<?xml version="1.0" encoding="utf-8"?>
<!-- Generator: Adobe Illustrator 25.0.0, SVG Export Plug-In . SVG Version: 6.00 Build 0)  -->
<svg version="1.1" id="Layer_1" xmlns="http://www.w3.org/2000/svg" xmlns:xlink="http://www.w3.org/1999/xlink" x="0px" y="0px"
	 viewBox="0 0 1000 1000" style="enable-background:new 0 0 1000 1000;" xml:space="preserve">
<style type="text/css">
	.st0{opacity:0.576;fill:#C8E5F8;enable-background:new    ;}
	.st1{fill:url(#Path_5768_3_);}
	.st2{fill:url(#SVGID_1_);}
	.st3{fill:url(#Path_5768_4_);}
	.st4{fill:#98C6DB;}
	.st5{opacity:0.25;}
	.st6{fill:#010101;}
	.st7{fill:url(#SVGID_2_);}
	.st8{fill:url(#SVGID_3_);}
	.st9{fill:url(#SVGID_4_);}
	.st10{fill:url(#SVGID_5_);}
	.st11{fill:#1D262D;}
	.st12{fill:#FFE7CB;}
	.st13{opacity:0.25;fill:#010101;}
	.st14{fill:#0C0C0C;}
	.st15{fill:#141416;}
	.st16{fill:#324757;}
	.st17{fill:#0D2033;}
	.st18{fill:#358DCC;}
	.st19{fill:#1572BA;}
	.st20{fill:#112C46;}
	.st21{fill:url(#SVGID_6_);}
	.st22{fill:url(#SVGID_7_);}
	.st23{fill:url(#Path_5404_1_);}
	.st24{fill:none;stroke:#7D4848;stroke-miterlimit:10;}
	.st25{fill:#32A3D1;}
	.st26{fill:#035C9F;}
	.st27{fill:#287EC2;}
	.st28{fill:#FBBB98;}
	.st29{fill:#5BC6CF;}
	.st30{fill:#FFFFFF;}
	.st31{fill:#5AAADE;}
	.st32{fill:none;}
	.st33{fill:none;stroke:#358DCC;stroke-width:0.3657;}
	.st34{fill:none;stroke:#358DCC;stroke-width:1.4629;stroke-linecap:round;stroke-miterlimit:10;}
	.st35{fill:url(#Ellipse_1369_2_);}
	.st36{fill:#104879;}
	.st37{opacity:0.573;fill:#035C9F;enable-background:new    ;}
	.st38{opacity:0.5;}
	.st39{fill:#1F374C;}
	.st40{fill:#133E67;}
	.st41{fill:none;stroke:#1F374C;stroke-width:1.4629;stroke-linecap:round;stroke-miterlimit:10;}
	.st42{fill:#156FB0;}
	.st43{fill:none;stroke:#FBBB98;stroke-width:0.7315;}
	.st44{fill:#8AC6EC;}
	.st45{fill:none;stroke:#5BC6CF;stroke-width:0.7315;}
	.st46{fill:#D7EDFB;}
	.st47{opacity:0.33;fill:#287EC2;}
	.st48{fill:#99CCEE;}
	.st49{fill:none;stroke:#99CCEE;}
	.st50{fill:#174672;}
	.st51{fill:none;stroke:#717171;}
	.st52{fill:none;stroke:#287EC2;stroke-width:4;}
	.st53{fill:none;stroke:#5BC6CF;stroke-width:4;}
	.st54{fill:#1D8AB6;}
	.st55{fill:#F1D2B7;}
	.st56{fill:url(#Path_5436_1_);}
	.st57{fill:#E1CCE3;}
	.st58{fill:url(#Ellipse_1094_1_);}
	.st59{fill:#F9A576;}
	.st60{fill:#FFFFFF;stroke:#2E3192;stroke-width:0.25;stroke-miterlimit:10;}
	.st61{fill:#287EC2;stroke:#2E3192;stroke-miterlimit:10;}
	.st62{fill:#FFFFFF;stroke:#2E3192;stroke-miterlimit:10;}
	.st63{fill:#174672;stroke:#2E3192;stroke-miterlimit:10;}
	.st64{opacity:0.79;}
	.st65{fill:none;stroke:#5BC6CF;stroke-width:3;}
	.st66{opacity:0.83;}
	.st67{fill:#035C9F;stroke:#035C9F;stroke-linecap:round;stroke-linejoin:round;}
	.st68{fill:#035C9F;stroke:#035C9F;}
	.st69{fill:none;stroke:#FBBB98;stroke-width:0.8965;}
	.st70{fill:none;stroke:#5BC6CF;stroke-width:0.8965;}
	.st71{fill:#C3D4EE;}
	.st72{opacity:0.5;fill:#43548B;}
	.st73{fill:#F2F2F3;}
	.st74{fill:#F69B6C;}
	.st75{fill:#43548B;}
	.st76{fill:#F8A47B;}
	.st77{fill:url(#SVGID_8_);}
	.st78{fill:url(#SVGID_9_);}
	.st79{fill:url(#SVGID_10_);}
	.st80{fill:#7E9DD1;}
	.st81{fill:url(#SVGID_11_);}
	.st82{fill:url(#SVGID_12_);}
	.st83{opacity:0.2;fill:#39B5E8;}
	.st84{fill:#FAFBFB;}
	.st85{opacity:0.2;}
	.st86{fill:#39B5E8;}
	.st87{fill:#1F3F7A;}
	.st88{fill:#1C54A5;}
	.st89{opacity:0.2;fill:#125267;stroke:#010101;stroke-width:0.8711;stroke-miterlimit:10;}
	.st90{fill:#385A65;}
	.st91{fill:#263238;}
	.st92{fill:#F0D3B9;}
	.st93{fill:#E7515B;}
	.st94{fill:url(#SVGID_13_);}
	.st95{fill:url(#SVGID_14_);}
	.st96{fill:#E1E1E1;}
	.st97{fill:url(#SVGID_15_);}
	.st98{fill:#E6E6E5;}
	.st99{fill:url(#SVGID_16_);}
	.st100{opacity:0.53;fill:#FFFFFF;}
	.st101{fill:url(#SVGID_17_);}
	.st102{fill:url(#SVGID_18_);}
	.st103{fill:url(#SVGID_19_);}
	.st104{fill:#05B9A9;}
	.st105{fill:#31286A;}
	.st106{fill:url(#SVGID_20_);}
	.st107{fill:#45BEA5;}
	.st108{fill:url(#SVGID_21_);}
	.st109{fill:#270D3B;}
	.st110{fill:#D5E4EA;}
	.st111{fill:url(#SVGID_22_);}
	.st112{fill:url(#SVGID_23_);}
	.st113{fill:url(#SVGID_24_);}
	.st114{fill:#FBB888;}
	.st115{fill:url(#SVGID_25_);}
	.st116{fill:url(#SVGID_26_);}
	.st117{fill:#FDD1B6;}
	.st118{fill:url(#SVGID_27_);}
	.st119{fill:url(#SVGID_28_);}
	.st120{fill:#162735;}
	.st121{fill:url(#SVGID_29_);}
	.st122{fill:#B7BABD;}
	.st123{fill:#101334;}
	.st124{fill:url(#SVGID_30_);}
	.st125{fill:url(#SVGID_31_);}
	.st126{fill:url(#SVGID_32_);}
	.st127{fill:url(#SVGID_33_);}
	.st128{fill:#29AAE1;}
	.st129{fill:#297FC3;}
	.st130{fill:#358DCC;stroke:#035C9F;stroke-width:7;stroke-miterlimit:10;}
	.st131{fill:#035C9F;stroke:#358DCC;stroke-width:3;stroke-miterlimit:10;}
	.st132{fill:#EEAC21;}
	.st133{fill:#FBD900;}
	.st134{fill:#DB9A28;}
	.st135{fill:#EEAA1F;}
	.st136{fill:#E8E4EE;}
	.st137{fill:url(#SVGID_34_);}
	.st138{fill:url(#SVGID_35_);}
	.st139{fill:url(#SVGID_36_);}
	.st140{fill:url(#SVGID_37_);}
	.st141{fill:url(#SVGID_38_);}
	.st142{fill:url(#SVGID_39_);}
	.st143{fill:url(#SVGID_40_);}
	.st144{fill:url(#SVGID_41_);}
	.st145{fill:url(#SVGID_42_);}
	.st146{fill:url(#SVGID_43_);}
	.st147{fill:url(#Path_5768_5_);}
	.st148{fill:url(#Ellipse_1278_1_);}
	.st149{opacity:0.435;fill:#C8E5F8;enable-background:new    ;}
	.st150{fill:url(#Ellipse_1174_1_);}
	.st151{fill:none;stroke:#FFFFFF;stroke-width:2;}
	.st152{opacity:0.966;fill:url(#Ellipse_1174_2_2_1_);enable-background:new    ;}
	.st153{opacity:0.966;fill:url(#Ellipse_1174_2_3_1_);enable-background:new    ;}
	.st154{fill:#4296D2;}
	.st155{fill:#2C1B4C;}
	.st156{fill:none;stroke:#358DCC;stroke-width:2;}
	.st157{fill-rule:evenodd;clip-rule:evenodd;fill:#C8E5F8;}
	.st158{fill:#97A7D5;}
	.st159{fill:#4598D3;}
	.st160{fill:#EDD7C1;}
	.st161{fill:#211128;}
	.st162{fill:url(#SVGID_44_);}
	.st163{fill:url(#SVGID_45_);}
	.st164{opacity:0.64;fill:url(#SVGID_46_);}
	.st165{fill:url(#SVGID_47_);}
	.st166{fill:#2272B9;}
	.st167{fill-rule:evenodd;clip-rule:evenodd;fill:#FFE7CB;}
	.st168{fill:url(#SVGID_48_);}
	.st169{fill:url(#SVGID_49_);}
	.st170{fill:url(#SVGID_50_);}
	.st171{fill:url(#SVGID_51_);}
	.st172{fill:url(#SVGID_52_);}
	.st173{fill:url(#SVGID_53_);}
	.st174{fill:#6EACCE;}
	.st175{fill:#E0EDF6;}
	.st176{fill:#262D66;}
	.st177{fill:url(#SVGID_54_);}
	.st178{fill:url(#SVGID_55_);}
	.st179{fill:url(#SVGID_56_);}
	.st180{fill:#FFFFFF;stroke:#FFFFFF;stroke-miterlimit:10;}
	.st181{fill:url(#SVGID_57_);}
	.st182{fill:none;stroke:#5AAADE;stroke-width:0.5;stroke-linecap:round;stroke-linejoin:round;stroke-miterlimit:10;}
	.st183{opacity:0.3;fill:none;stroke:#FFFFFF;enable-background:new    ;}
	.st184{fill:url(#Path_5783_1_);}
	.st185{fill:none;stroke:#FFFFFF;stroke-miterlimit:10;}
	.st186{fill:url(#Path_5785-2_1_);}
	.st187{fill:url(#Path_5786-2_1_);}
	.st188{opacity:0.23;fill:none;stroke:#FFFFFF;enable-background:new    ;}
</style>
<path class="st0" d="M941.22,517.96c-11.78,107.39-60.98,222.96-185,301.28c-4.27,2.7-8.51,5.3-12.78,7.87
	c-5.85,3.5-11.7,6.87-17.57,10.14c-28.15,15.64-56.33,28.42-84.31,38.55c-5.71,2.06-11.37,4.01-17.04,5.83
	c-5.6,1.84-11.17,3.55-16.75,5.16c-23.81,6.91-47.39,11.92-70.6,15.24c-136.1,19.4-259.5-20.22-339.62-89.23
	c-14.8-12.72-28.13-26.49-39.78-41.05c-10.48-13.09-19.43-26.65-26.94-40.52C61,602.56,114.89,448.18,229,409.19
	c125.09-42.75,183.65-6.33,329.32-126.65c145.65-120.33,292.52-134.46,351.96,0.27c9.93,22.51,19.23,52.61,25.56,87.5
	C943.75,413.88,947.05,464.92,941.22,517.96z"/>
<ellipse class="st98" cx="548.65" cy="892.93" rx="383.92" ry="34.26"/>
<g>
	<g>
		<g>
			<g>
				<linearGradient id="SVGID_1_" gradientUnits="userSpaceOnUse" x1="245.5824" y1="492.7572" x2="367.4231" y2="492.7572">
					<stop  offset="0" style="stop-color:#45989F"/>
					<stop  offset="0.1103" style="stop-color:#499FA6"/>
					<stop  offset="0.4607" style="stop-color:#54B3BB"/>
					<stop  offset="0.7689" style="stop-color:#5AC0C9"/>
					<stop  offset="1" style="stop-color:#5BC6CF"/>
				</linearGradient>
				<path class="st2" d="M367.41,491.51c-0.22-10.83-4.47-22.43-13.77-28.45c-11.28-7.3-23.17-0.7-34.42,4.45
					c3.31-8.47,13.24-10.86,20.09-15.53c-30.18-19.68-69.16-15.16-69.16-15.16s-23.03,26.95-24.12,39.59
					c6.51-1.52,12.9-3.71,19.67-4.53c-6.47,2.37-16.35,12.14-19.45,21.07c-2.6,7.51,2.98,20.81,6.55,27.92
					c7.06,14.04,30.58,40.39,46.8,21.86c13.53-15.46,7.54-36.88,34.99-30.19C355.16,517.58,367.92,517.15,367.41,491.51z"/>
			</g>
			<path class="st100" d="M348.07,649.49c1.22-37.06,2.28-75.11-8.62-110.99c-4.06-13.35-9.79-27.47-16.69-40.13
				c3.03-1.84,5.69-4.89,8.66-6.65c4.95-2.93,10.34-4.82,15.98-5.91c1.83-0.35,0.99-3.13-0.83-2.78c-4.92,0.95-9.64,2.52-14.1,4.81
				c-2.16,1.11-4.25,2.38-6.22,3.8c-1.49,1.07-3.2,2.9-4.93,4.11c-1.23-2.16-2.48-4.29-3.78-6.35c-0.46-0.72-0.99-1.4-1.47-2.11
				c4.14-6.12,9.22-11.31,15.29-15.56c1.52-1.06,0.02-3.54-1.51-2.47c-6.1,4.27-11.25,9.48-15.52,15.53
				c-3.34-4.56-7.18-8.85-11.22-13.01c2.17-6.7,5.25-12.9,9.24-18.71c1.06-1.54-1.49-2.93-2.53-1.41
				c-3.81,5.56-6.74,11.5-8.95,17.83c-4.13-4.12-8.43-8.1-12.66-12.05c2.02-4.02,3.89-8.1,5.61-12.26c0.7-1.71-1.82-3.13-2.53-1.41
				c-1.62,3.93-3.39,7.79-5.29,11.59c-2.49-2.34-4.96-4.68-7.3-7.03c-1.32-1.32-3.33,0.77-2.01,2.09c2.18,2.18,4.46,4.35,6.77,6.54
				c-5.56,0.34-11.12,0.68-16.68,1.03c-1.85,0.11-1.78,3.01,0.09,2.9c6.01-0.37,12.03-0.74,18.04-1.11c0.45-0.03,0.78-0.22,1.01-0.5
				c4.1,3.84,8.28,7.73,12.31,11.74c-5.34,0.25-10.56,1.15-15.78,2.36c-4.66,1.08-9.44,1.85-13.06,5.17
				c-1.38,1.27,0.72,3.27,2.09,2.01c3.5-3.22,9.15-3.83,13.64-4.83c5.09-1.13,10.18-1.88,15.4-1.93c0.14,0,0.25-0.05,0.37-0.08
				c3.57,3.68,6.98,7.47,10,11.46c-14.49,1.48-28.87,4.19-39.98,14.36c-1.38,1.26,0.72,3.26,2.09,2.01
				c11.01-10.08,25.57-12.3,39.9-13.66c1.18,1.68,2.33,3.38,3.35,5.14c0.76,1.29,1.49,2.62,2.22,3.94
				c-7.02,1.6-14.48,2.77-20.74,6.49c-5.4,3.21-9.56,7.98-13.2,13.02c-1.09,1.51,1.46,2.9,2.53,1.41
				c3.68-5.11,8.06-9.89,13.72-12.82c5.83-3.01,12.75-3.98,19.08-5.45c0.02,0,0.04,0,0.06,0c7.57,14,13.87,29.17,18.06,44.35
				c9.48,34.29,8.32,70.41,7.16,105.62C345.11,651.44,348.01,651.35,348.07,649.49z"/>
		</g>
		<g>
			<g>
				<linearGradient id="SVGID_2_" gradientUnits="userSpaceOnUse" x1="338.4408" y1="530.176" x2="436.5161" y2="530.176">
					<stop  offset="0" style="stop-color:#45989F"/>
					<stop  offset="0.1103" style="stop-color:#499FA6"/>
					<stop  offset="0.4607" style="stop-color:#54B3BB"/>
					<stop  offset="0.7689" style="stop-color:#5AC0C9"/>
					<stop  offset="1" style="stop-color:#5BC6CF"/>
				</linearGradient>
				<path class="st7" d="M338.45,529.18c0.18-8.71,3.6-18.06,11.08-22.9c9.08-5.87,18.65-0.57,27.71,3.59
					c-2.66-6.81-10.66-8.74-16.17-12.5c24.3-15.84,55.67-12.2,55.67-12.2s18.54,21.69,19.41,31.87c-5.24-1.22-10.39-2.98-15.83-3.64
					c5.21,1.91,13.16,9.77,15.66,16.96c2.1,6.04-2.4,16.76-5.27,22.47c-5.68,11.3-24.62,32.51-37.67,17.6
					c-10.89-12.45-6.07-29.69-28.17-24.3C348.31,550.16,338.04,549.81,338.45,529.18z"/>
			</g>
			<path class="st100" d="M354.02,656.34c-0.98-29.83-1.84-60.46,6.94-89.34c3.27-10.74,7.88-22.11,13.43-32.31
				c-2.44-1.48-4.58-3.93-6.98-5.35c-3.99-2.36-8.33-3.88-12.86-4.76c-1.47-0.28-0.79-2.52,0.67-2.23
				c3.96,0.77,7.76,2.03,11.35,3.87c1.74,0.89,3.42,1.91,5,3.06c1.2,0.87,2.57,2.33,3.97,3.31c0.99-1.74,2-3.45,3.04-5.11
				c0.37-0.58,0.79-1.13,1.18-1.7c-3.33-4.92-7.42-9.11-12.31-12.52c-1.23-0.86-0.02-2.85,1.21-1.99c4.91,3.43,9.05,7.63,12.49,12.5
				c2.69-3.67,5.78-7.12,9.03-10.47c-1.75-5.39-4.23-10.39-7.44-15.06c-0.85-1.24,1.2-2.36,2.04-1.13c3.07,4.47,5.43,9.26,7.2,14.35
				c3.33-3.32,6.79-6.52,10.19-9.7c-1.62-3.24-3.13-6.52-4.51-9.87c-0.57-1.37,1.47-2.52,2.04-1.13c1.3,3.16,2.73,6.27,4.25,9.33
				c2.01-1.89,3.99-3.77,5.88-5.66c1.06-1.06,2.68,0.62,1.62,1.68c-1.75,1.75-3.59,3.5-5.45,5.26c4.48,0.28,8.95,0.55,13.43,0.83
				c1.49,0.09,1.43,2.42-0.07,2.33c-4.84-0.3-9.68-0.6-14.52-0.89c-0.36-0.02-0.63-0.18-0.81-0.4c-3.3,3.09-6.66,6.22-9.91,9.45
				c4.3,0.2,8.5,0.92,12.7,1.9c3.75,0.87,7.6,1.49,10.51,4.16c1.11,1.02-0.58,2.63-1.68,1.62c-2.82-2.59-7.37-3.09-10.98-3.89
				c-4.1-0.91-8.2-1.51-12.4-1.55c-0.11,0-0.2-0.04-0.29-0.06c-2.87,2.97-5.62,6.02-8.05,9.22c11.66,1.19,23.24,3.37,32.18,11.56
				c1.11,1.02-0.58,2.63-1.68,1.62c-8.87-8.11-20.58-9.9-32.11-11c-0.95,1.36-1.87,2.72-2.7,4.14c-0.61,1.04-1.2,2.11-1.79,3.17
				c5.65,1.29,11.66,2.23,16.69,5.23c4.35,2.58,7.7,6.42,10.62,10.48c0.88,1.22-1.17,2.34-2.04,1.13
				c-2.96-4.11-6.48-7.96-11.05-10.32c-4.69-2.42-10.26-3.2-15.36-4.39c-0.02,0-0.03,0-0.05,0c-6.09,11.27-11.16,23.48-14.54,35.7
				c-7.63,27.6-6.7,56.68-5.77,85.02C356.4,657.91,354.07,657.83,354.02,656.34z"/>
		</g>
		<g>
			<g>
				<linearGradient id="SVGID_3_" gradientUnits="userSpaceOnUse" x1="231.456" y1="546.8687" x2="335.3542" y2="546.8687">
					<stop  offset="0" style="stop-color:#45989F"/>
					<stop  offset="0.1103" style="stop-color:#499FA6"/>
					<stop  offset="0.4607" style="stop-color:#54B3BB"/>
					<stop  offset="0.7689" style="stop-color:#5AC0C9"/>
					<stop  offset="1" style="stop-color:#5BC6CF"/>
				</linearGradient>
				<path class="st8" d="M333.87,530.56c-2.33-8.81-8.11-17.46-16.91-20.54c-10.67-3.73-19.09,4.02-27.27,10.47
					c1.02-7.58,8.68-11.51,13.35-16.69c-28.6-10.11-59.58,1.33-59.58,1.33s-13.5,26.62-11.87,37.17c5.02-2.54,9.82-5.59,15.19-7.61
					c-4.82,3.23-10.97,13.17-11.73,21.1c-0.64,6.66,6.57,16.44,10.9,21.54c8.56,10.09,33.03,26.97,42.62,8.6
					c8-15.33-1.15-31.66,22.64-31.64C329.02,554.31,339.38,551.42,333.87,530.56z"/>
			</g>
			<path class="st100" d="M349.4,663.62c-6.36-30.56-13.03-61.89-29.08-89.08c-5.97-10.11-13.45-20.53-21.61-29.52
				c2.12-2.11,3.69-5.13,5.77-7.16c3.47-3.38,7.5-6,11.9-8.01c1.42-0.65,0.19-2.75-1.23-2.11c-3.83,1.75-7.38,3.98-10.58,6.73
				c-1.55,1.33-3,2.79-4.33,4.34c-1.01,1.18-2.04,3-3.22,4.34c-1.43-1.53-2.88-3.02-4.35-4.44c-0.51-0.5-1.08-0.95-1.62-1.44
				c2.17-5.83,5.3-11.08,9.42-15.76c1.03-1.17-0.68-2.9-1.72-1.72c-4.15,4.7-7.32,9.99-9.61,15.78c-3.63-3.06-7.63-5.82-11.76-8.41
				c0.45-5.91,1.74-11.6,3.85-17.14c0.56-1.47-1.8-2.1-2.35-0.65c-2.02,5.3-3.23,10.75-3.78,16.36c-4.2-2.55-8.51-4.96-12.74-7.35
				c0.85-3.69,1.58-7.4,2.15-11.14c0.24-1.54-2.11-2.2-2.35-0.65c-0.54,3.54-1.23,7.04-2.02,10.53c-2.5-1.42-4.98-2.85-7.37-4.3
				c-1.34-0.82-2.57,1.29-1.23,2.11c2.21,1.35,4.51,2.68,6.84,4c-4.48,1.38-8.96,2.77-13.44,4.15c-1.49,0.46-0.86,2.82,0.65,2.35
				c4.85-1.5,9.69-2.99,14.54-4.49c0.36-0.11,0.6-0.34,0.73-0.61c4.12,2.33,8.31,4.68,12.4,7.16c-4.32,1.26-8.41,3.03-12.44,5.06
				c-3.6,1.81-7.35,3.38-9.65,6.82c-0.87,1.31,1.24,2.53,2.11,1.23c2.22-3.32,6.73-4.95,10.2-6.65c3.94-1.93,7.96-3.56,12.22-4.63
				c0.11-0.03,0.19-0.09,0.28-0.14c3.65,2.31,7.19,4.73,10.46,7.39c-11.56,4.08-22.78,9.16-29.86,19.68
				c-0.88,1.31,1.23,2.53,2.11,1.23c7.01-10.43,18.48-15.13,29.93-19.09c1.3,1.14,2.57,2.31,3.76,3.54c0.88,0.91,1.73,1.85,2.6,2.78
				c-5.43,2.7-11.3,5.14-15.68,9.43c-3.78,3.7-6.24,8.42-8.21,13.27c-0.59,1.45,1.77,2.08,2.35,0.65c2-4.91,4.63-9.69,8.68-13.21
				c4.17-3.62,9.64-5.79,14.53-8.24c0.02-0.01,0.03-0.01,0.05-0.02c8.97,9.95,17.13,21.11,23.58,32.69
				c14.56,26.17,20.78,55.95,26.82,84.98C347.37,665.8,349.72,665.15,349.4,663.62z"/>
		</g>
	</g>
	<g>
		<g>
			<g>
				<linearGradient id="SVGID_4_" gradientUnits="userSpaceOnUse" x1="292.7117" y1="568.2813" x2="362.2795" y2="568.2813">
					<stop  offset="0" style="stop-color:#45989F"/>
					<stop  offset="0.1103" style="stop-color:#499FA6"/>
					<stop  offset="0.4607" style="stop-color:#54B3BB"/>
					<stop  offset="0.7689" style="stop-color:#5AC0C9"/>
					<stop  offset="1" style="stop-color:#5BC6CF"/>
				</linearGradient>
				<path class="st9" d="M362.27,567.57c-0.12-6.18-2.55-12.81-7.86-16.24c-6.44-4.17-13.23-0.4-19.65,2.54
					c1.89-4.83,7.56-6.2,11.47-8.87c-17.23-11.23-39.49-8.65-39.49-8.65s-13.15,15.39-13.77,22.6c3.72-0.87,7.37-2.12,11.23-2.58
					c-3.7,1.35-9.34,6.93-11.11,12.03c-1.49,4.29,1.7,11.88,3.74,15.94c4.03,8.02,17.46,23.06,26.72,12.48
					c7.73-8.83,4.3-21.06,19.98-17.24C355.28,582.45,362.57,582.21,362.27,567.57z"/>
			</g>
			<path class="st100" d="M351.23,657.77c0.7-21.16,1.3-42.88-4.92-63.37c-2.32-7.62-5.59-15.68-9.53-22.92
				c1.73-1.05,3.25-2.79,4.95-3.8c2.83-1.67,5.91-2.75,9.12-3.38c1.04-0.2,0.56-1.79-0.48-1.58c-2.81,0.54-5.5,1.44-8.05,2.74
				c-1.23,0.63-2.42,1.36-3.55,2.17c-0.85,0.61-1.82,1.65-2.82,2.35c-0.7-1.24-1.42-2.45-2.16-3.62c-0.26-0.41-0.56-0.8-0.84-1.21
				c2.36-3.49,5.26-6.46,8.73-8.88c0.87-0.61,0.01-2.02-0.86-1.41c-3.48,2.44-6.42,5.41-8.86,8.86c-1.91-2.6-4.1-5.05-6.41-7.43
				c1.24-3.82,3-7.37,5.28-10.68c0.6-0.88-0.85-1.67-1.45-0.8c-2.18,3.17-3.85,6.57-5.11,10.18c-2.36-2.35-4.81-4.63-7.23-6.88
				c1.15-2.3,2.22-4.63,3.2-7c0.4-0.97-1.04-1.79-1.45-0.8c-0.92,2.24-1.94,4.45-3.02,6.62c-1.42-1.34-2.83-2.67-4.17-4.01
				c-0.75-0.75-1.9,0.44-1.15,1.19c1.24,1.24,2.55,2.49,3.87,3.73c-3.17,0.19-6.35,0.39-9.52,0.59c-1.06,0.07-1.02,1.72,0.05,1.65
				c3.43-0.21,6.87-0.42,10.3-0.63c0.26-0.02,0.45-0.13,0.58-0.28c2.34,2.19,4.73,4.41,7.03,6.7c-3.05,0.14-6.03,0.66-9.01,1.35
				c-2.66,0.62-5.39,1.05-7.46,2.95c-0.79,0.72,0.41,1.87,1.19,1.15c2-1.84,5.23-2.19,7.79-2.76c2.91-0.64,5.81-1.07,8.79-1.1
				c0.08,0,0.14-0.03,0.21-0.04c2.04,2.1,3.98,4.27,5.71,6.54c-8.27,0.84-16.48,2.39-22.83,8.2c-0.79,0.72,0.41,1.86,1.19,1.15
				c6.29-5.75,14.6-7.02,22.78-7.8c0.67,0.96,1.33,1.93,1.91,2.94c0.43,0.74,0.85,1.5,1.27,2.25c-4.01,0.91-8.27,1.58-11.84,3.71
				c-3.08,1.83-5.46,4.55-7.53,7.43c-0.62,0.86,0.83,1.66,1.45,0.8c2.1-2.92,4.6-5.65,7.84-7.32c3.33-1.72,7.28-2.27,10.9-3.11
				c0.01,0,0.02,0,0.03,0c4.32,7.99,7.92,16.66,10.31,25.32c5.41,19.58,4.75,40.2,4.09,60.3
				C349.54,658.88,351.19,658.83,351.23,657.77z"/>
		</g>
		<g>
			<g>
				<path class="st104" d="M345.74,589.07c0.1-4.98,2.05-10.31,6.33-13.08c5.18-3.35,10.65-0.32,15.82,2.05
					c-1.52-3.89-6.09-4.99-9.23-7.14c13.87-9.04,31.79-6.97,31.79-6.97s10.59,12.39,11.09,18.2c-2.99-0.7-5.93-1.7-9.04-2.08
					c2.97,1.09,7.52,5.58,8.94,9.68c1.2,3.45-1.37,9.57-3.01,12.83c-3.24,6.45-14.06,18.56-21.51,10.05
					c-6.22-7.11-3.46-16.95-16.08-13.87C351.37,601.05,345.5,600.86,345.74,589.07z"/>
			</g>
			<path class="st105" d="M354.63,661.68c-0.56-17.03-1.05-34.52,3.96-51.01c1.86-6.13,4.5-12.62,7.67-18.45
				c-1.39-0.85-2.62-2.25-3.98-3.06c-2.28-1.35-4.75-2.22-7.34-2.72c-0.84-0.16-0.45-1.44,0.38-1.28c2.26,0.44,4.43,1.16,6.48,2.21
				c0.99,0.51,1.95,1.09,2.86,1.75c0.69,0.49,1.47,1.33,2.27,1.89c0.56-0.99,1.14-1.97,1.74-2.92c0.21-0.33,0.45-0.65,0.67-0.97
				c-1.9-2.81-4.24-5.2-7.03-7.15c-0.7-0.49-0.01-1.63,0.69-1.14c2.8,1.96,5.17,4.36,7.13,7.14c1.53-2.09,3.3-4.07,5.16-5.98
				c-1-3.08-2.42-5.93-4.25-8.6c-0.49-0.71,0.68-1.35,1.16-0.65c1.75,2.55,3.1,5.29,4.11,8.2c1.9-1.89,3.88-3.72,5.82-5.54
				c-0.93-1.85-1.79-3.72-2.58-5.64c-0.32-0.78,0.84-1.44,1.16-0.65c0.74,1.81,1.56,3.58,2.43,5.33c1.15-1.08,2.28-2.15,3.36-3.23
				c0.61-0.61,1.53,0.35,0.92,0.96c-1,1-2.05,2-3.11,3c2.56,0.16,5.11,0.31,7.67,0.47c0.85,0.05,0.82,1.38-0.04,1.33
				c-2.76-0.17-5.53-0.34-8.29-0.51c-0.21-0.01-0.36-0.1-0.46-0.23c-1.89,1.77-3.81,3.55-5.66,5.4c2.45,0.11,4.85,0.53,7.25,1.09
				c2.14,0.5,4.34,0.85,6,2.38c0.63,0.58-0.33,1.5-0.96,0.92c-1.61-1.48-4.21-1.76-6.27-2.22c-2.34-0.52-4.68-0.86-7.08-0.89
				c-0.06,0-0.11-0.02-0.17-0.04c-1.64,1.69-3.21,3.44-4.6,5.27c6.66,0.68,13.27,1.93,18.37,6.6c0.63,0.58-0.33,1.5-0.96,0.92
				c-5.06-4.63-11.75-5.65-18.34-6.28c-0.54,0.77-1.07,1.56-1.54,2.36c-0.35,0.6-0.68,1.2-1.02,1.81c3.23,0.73,6.66,1.27,9.53,2.98
				c2.48,1.48,4.39,3.67,6.06,5.98c0.5,0.69-0.67,1.33-1.16,0.65c-1.69-2.35-3.7-4.55-6.31-5.89c-2.68-1.38-5.86-1.83-8.77-2.5
				c-0.01,0-0.02,0-0.03,0c-3.48,6.44-6.37,13.41-8.3,20.38c-4.36,15.76-3.82,32.36-3.29,48.54
				C355.99,662.58,354.66,662.54,354.63,661.68z"/>
		</g>
		<g>
			<g>
				<linearGradient id="SVGID_5_" gradientUnits="userSpaceOnUse" x1="284.646" y1="599.1774" x2="343.969" y2="599.1774">
					<stop  offset="0" style="stop-color:#45989F"/>
					<stop  offset="0.1103" style="stop-color:#499FA6"/>
					<stop  offset="0.4607" style="stop-color:#54B3BB"/>
					<stop  offset="0.7689" style="stop-color:#5AC0C9"/>
					<stop  offset="1" style="stop-color:#5BC6CF"/>
				</linearGradient>
				<path class="st10" d="M343.12,589.86c-1.33-5.03-4.63-9.97-9.65-11.73c-6.09-2.13-10.9,2.3-15.57,5.98
					c0.58-4.33,4.96-6.57,7.62-9.53c-16.33-5.77-34.02,0.76-34.02,0.76s-7.71,15.2-6.78,21.22c2.87-1.45,5.61-3.19,8.68-4.34
					c-2.75,1.84-6.26,7.52-6.7,12.05c-0.37,3.8,3.75,9.38,6.22,12.3c4.89,5.76,18.86,15.4,24.34,4.91
					c4.57-8.75-0.66-18.08,12.92-18.06C340.35,603.43,346.27,601.78,343.12,589.86z"/>
			</g>
			<path class="st100" d="M351.99,665.84c-3.63-17.45-7.44-35.34-16.6-50.86c-3.41-5.77-7.68-11.72-12.34-16.86
				c1.21-1.2,2.1-2.93,3.29-4.09c1.98-1.93,4.28-3.42,6.79-4.57c0.81-0.37,0.11-1.57-0.7-1.2c-2.19,1-4.22,2.27-6.04,3.84
				c-0.88,0.76-1.71,1.59-2.47,2.48c-0.58,0.67-1.16,1.72-1.84,2.48c-0.82-0.87-1.65-1.72-2.48-2.54c-0.29-0.29-0.62-0.54-0.92-0.82
				c1.24-3.33,3.02-6.33,5.38-9c0.59-0.67-0.39-1.66-0.98-0.98c-2.37,2.68-4.18,5.7-5.49,9.01c-2.08-1.75-4.36-3.32-6.71-4.8
				c0.26-3.38,0.99-6.62,2.2-9.79c0.32-0.84-1.03-1.2-1.34-0.37c-1.15,3.03-1.85,6.13-2.16,9.34c-2.4-1.46-4.86-2.83-7.28-4.19
				c0.49-2.11,0.9-4.23,1.23-6.36c0.14-0.88-1.21-1.25-1.34-0.37c-0.31,2.02-0.7,4.02-1.16,6.01c-1.43-0.81-2.84-1.63-4.21-2.46
				c-0.77-0.47-1.47,0.74-0.7,1.2c1.26,0.77,2.58,1.53,3.9,2.29c-2.56,0.79-5.12,1.58-7.67,2.37c-0.85,0.26-0.49,1.61,0.37,1.34
				c2.77-0.85,5.53-1.71,8.3-2.56c0.21-0.06,0.34-0.19,0.41-0.35c2.35,1.33,4.74,2.67,7.08,4.09c-2.47,0.72-4.8,1.73-7.1,2.89
				c-2.05,1.03-4.2,1.93-5.51,3.9c-0.5,0.75,0.71,1.44,1.2,0.7c1.27-1.9,3.84-2.83,5.82-3.8c2.25-1.1,4.54-2.03,6.98-2.64
				c0.07-0.02,0.11-0.05,0.16-0.08c2.08,1.32,4.11,2.7,5.97,4.22c-6.6,2.33-13.01,5.23-17.05,11.23c-0.5,0.75,0.7,1.44,1.2,0.7
				c4-5.95,10.55-8.64,17.09-10.9c0.74,0.65,1.47,1.32,2.15,2.02c0.5,0.52,0.99,1.05,1.48,1.59c-3.1,1.54-6.45,2.94-8.95,5.38
				c-2.16,2.11-3.56,4.81-4.69,7.58c-0.34,0.83,1.01,1.19,1.34,0.37c1.14-2.8,2.64-5.53,4.96-7.54c2.38-2.07,5.5-3.3,8.3-4.71
				c0.01,0,0.02,0,0.03-0.01c5.12,5.68,9.78,12.05,13.46,18.67c8.31,14.94,11.86,31.94,15.31,48.52
				C350.83,667.09,352.17,666.72,351.99,665.84z"/>
		</g>
		<g>
			<g>
				<path class="st107" d="M358.5,617.26c0.83-3.15,2.9-6.24,6.05-7.34c3.82-1.33,6.83,1.44,9.75,3.74
					c-0.37-2.71-3.1-4.12-4.77-5.97c10.22-3.61,21.3,0.47,21.3,0.47s4.83,9.52,4.25,13.29c-1.8-0.91-3.51-2-5.43-2.72
					c1.72,1.15,3.92,4.71,4.19,7.54c0.23,2.38-2.35,5.88-3.9,7.7c-3.06,3.61-11.81,9.64-15.24,3.07
					c-2.86-5.48,0.41-11.32-8.09-11.31C360.24,625.75,356.53,624.72,358.5,617.26z"/>
			</g>
			<path class="st105" d="M352.95,664.84c2.27-10.93,4.66-22.13,10.4-31.85c2.13-3.62,4.81-7.34,7.73-10.56
				c-0.76-0.75-1.32-1.83-2.06-2.56c-1.24-1.21-2.68-2.14-4.25-2.86c-0.51-0.23-0.07-0.98,0.44-0.75c1.37,0.63,2.64,1.42,3.78,2.41
				c0.55,0.48,1.07,1,1.55,1.55c0.36,0.42,0.73,1.07,1.15,1.55c0.51-0.55,1.03-1.08,1.56-1.59c0.18-0.18,0.39-0.34,0.58-0.51
				c-0.78-2.08-1.89-3.96-3.37-5.64c-0.37-0.42,0.24-1.04,0.62-0.62c1.48,1.68,2.62,3.57,3.44,5.64c1.3-1.1,2.73-2.08,4.21-3.01
				c-0.16-2.11-0.62-4.15-1.38-6.13c-0.2-0.53,0.64-0.75,0.84-0.23c0.72,1.9,1.16,3.84,1.35,5.85c1.5-0.91,3.04-1.77,4.56-2.63
				c-0.31-1.32-0.56-2.65-0.77-3.98c-0.08-0.55,0.76-0.79,0.84-0.23c0.19,1.27,0.44,2.52,0.72,3.77c0.9-0.51,1.78-1.02,2.63-1.54
				c0.48-0.29,0.92,0.46,0.44,0.75c-0.79,0.48-1.61,0.96-2.45,1.43c1.6,0.49,3.2,0.99,4.81,1.48c0.53,0.17,0.31,1.01-0.23,0.84
				c-1.73-0.53-3.47-1.07-5.2-1.6c-0.13-0.04-0.21-0.12-0.26-0.22c-1.47,0.83-2.97,1.67-4.43,2.56c1.54,0.45,3.01,1.08,4.45,1.81
				c1.29,0.65,2.63,1.21,3.45,2.44c0.31,0.47-0.44,0.9-0.75,0.44c-0.8-1.19-2.4-1.77-3.65-2.38c-1.41-0.69-2.84-1.27-4.37-1.66
				c-0.04-0.01-0.07-0.03-0.1-0.05c-1.31,0.82-2.57,1.69-3.74,2.64c4.13,1.46,8.15,3.27,10.68,7.04c0.31,0.47-0.44,0.9-0.75,0.44
				c-2.51-3.73-6.61-5.41-10.7-6.83c-0.46,0.41-0.92,0.83-1.35,1.27c-0.31,0.32-0.62,0.66-0.93,0.99c1.94,0.97,4.04,1.84,5.61,3.37
				c1.35,1.32,2.23,3.01,2.94,4.74c0.21,0.52-0.63,0.75-0.84,0.23c-0.72-1.76-1.65-3.46-3.1-4.72c-1.49-1.29-3.45-2.07-5.19-2.95
				c-0.01,0-0.01,0-0.02-0.01c-3.21,3.56-6.13,7.55-8.43,11.69c-5.2,9.36-7.43,20.01-9.59,30.39
				C353.68,665.62,352.84,665.39,352.95,664.84z"/>
		</g>
	</g>
	<linearGradient id="SVGID_6_" gradientUnits="userSpaceOnUse" x1="313.8524" y1="771.4185" x2="386.7585" y2="771.4185">
		<stop  offset="0" style="stop-color:#FBBB98"/>
		<stop  offset="1" style="stop-color:#F89E6E"/>
	</linearGradient>
	<path class="st21" d="M313.85,791.73c0-29.86,5.4-56.47,13.81-73.69c9.51-19.47,14.02-40.99,14.02-62.66l0,0h17.25l0,0
		c0,21.67,4.51,43.19,14.02,62.66c8.41,17.22,13.81,43.83,13.81,73.69c0,41.39-10.37,76.52-24.77,89.09v6.64h-23.37v-6.64
		C324.22,868.25,313.85,833.13,313.85,791.73z"/>
</g>
<g>
	<rect x="381.87" y="272.82" class="st109" width="241.53" height="190.02"/>
	<rect x="391.89" y="280.7" class="st110" width="221.5" height="174.27"/>
	<g>
		<rect x="418.68" y="301.6" class="st29" width="14.12" height="139.09"/>
		<rect x="445.41" y="331.23" class="st19" width="14.1" height="109.45"/>
		<rect x="472.45" y="344.73" class="st74" width="14.1" height="95.96"/>
		<rect x="499.49" y="365.15" class="st29" width="14.1" height="75.54"/>
		<rect x="526.52" y="393.46" class="st19" width="14.1" height="47.23"/>
		<rect x="553.56" y="416.24" class="st74" width="14.1" height="24.45"/>
		<rect x="407.56" y="440.69" class="st105" width="190.16" height="2.4"/>
		<g>
			<linearGradient id="SVGID_7_" gradientUnits="userSpaceOnUse" x1="411.7077" y1="356.732" x2="594.1707" y2="356.732">
				<stop  offset="0" style="stop-color:#FBBB98"/>
				<stop  offset="1" style="stop-color:#F89E6E"/>
			</linearGradient>
			<path class="st22" d="M442.38,412.52c-0.64,0-2.87-1.12-30.41-30.36c-0.36-0.39-0.34-0.99,0.04-1.35
				c0.39-0.36,0.99-0.34,1.36,0.04c9.81,10.42,25.62,26.89,28.86,29.5c3.86-3.93,24.4-23.5,31.07-29.84
				c0.19-0.18,0.46-0.28,0.71-0.26c0.26,0.01,0.51,0.13,0.68,0.33l18.66,21.81l43.48-73.35c0.18-0.3,0.54-0.48,0.86-0.47
				c0.35,0.01,0.67,0.22,0.82,0.53l20.46,40.92l33.4-68.55c0.23-0.48,0.81-0.67,1.28-0.44c0.48,0.23,0.67,0.81,0.44,1.28
				l-34.25,70.3c-0.16,0.33-0.49,0.54-0.86,0.54c0,0,0,0-0.01,0c-0.36,0-0.69-0.21-0.86-0.53l-20.54-41.09l-43.27,72.99
				c-0.16,0.27-0.43,0.44-0.74,0.47c-0.32,0.02-0.61-0.1-0.81-0.33l-18.87-22.06c-12.18,11.59-29.9,28.53-30.7,29.52
				c-0.16,0.2-0.46,0.38-0.72,0.4C442.43,412.52,442.4,412.52,442.38,412.52z"/>
		</g>
		<rect x="411.17" y="292.58" class="st105" width="1.2" height="148.1"/>
	</g>
</g>
<g>
	<path class="st12" d="M692.08,456.32l-34.03,46.3l-5.72,7.44c-4.62,4.77-9.95,8.35-15.09,8.69c-3.4,0.21-6.73-0.98-9.76-4.13
		l-41.65-47.06l-12.36-7.99c-1.77-1.13-3.12-2.88-3.83-4.87l-1.22-3.58c-1.29-3.7-0.15-7.8,2.82-10.34l-7.01-8.2
		c-0.95-1.07-1.96-2.82-1.81-4.25c0.24-2.45,4.77-0.31,11.87,9.91l10.34,3.89c2.48,0.92,4.44,2.82,5.45,5.23l4.19,9.98l43.02,35.89
		l1.56,1.32c1.65-2.97,3.21-5.84,4.68-8.6c10.1-19.03,15.61-32.44,24.27-41.1c5.81-5.81,15.67-4.1,19.62,3.09L692.08,456.32z"/>
	<linearGradient id="SVGID_8_" gradientUnits="userSpaceOnUse" x1="637.2388" y1="479.888" x2="692.0754" y2="479.888">
		<stop  offset="0" style="stop-color:#FBBB98"/>
		<stop  offset="1" style="stop-color:#F89E6E"/>
	</linearGradient>
	<path class="st77" d="M692.08,456.32l-34.03,46.3l-5.72,7.44c-4.62,4.77-9.95,8.35-15.09,8.69c8.54-10.5,3.43-20.75,0.06-25.52
		l1.56,1.32c1.65-2.97,3.21-5.84,4.68-8.6c10.1-19.03,9.6-31.9,18.26-40.56c5.81-5.81,22.73-6.13,26.68,1.06L692.08,456.32z"/>
</g>
<path class="st39" d="M745.87,878.49H731c-0.15-0.61-0.31-1.19-0.49-1.81l-26.59-89.29c-4.44-14.93-7.83-30.2-10.1-45.63
	c-0.12-0.8-0.24-1.59-0.37-2.39c-0.12-1.1-0.31-2.2-0.4-3.27c0,0-3.46-26.59-3.46-26.59c-1.35-10.39-9.76-63.89-11.3-74.25
	c2.84,19.17-3.64,83.29-8.31,117.92c-0.13,0.98-0.55,1.99,0.15,2.75c16.86,17.23,11.69,92.69,8.91,122.56h-14.87
	c-0.06-0.7-0.21-1.41-0.31-2.08l-15.82-92.05c-2.45-14.11-3.98-28.34-4.53-42.6c-0.09-2.14-0.15-4.28-0.18-6.4
	c-0.03-1.1-0.06-2.2-0.06-3.3l-0.24-21.94l-0.46-42.41c-0.77-12.67-1.19-25.37-1.19-38.1c0-3.92,0.03-7.77,0.12-11.66
	c0.03-1.29,0.03-2.6,0.09-3.89v-0.95l2.14-40.12l0.4-7.83l0.03-0.09c0,0,0.31-0.03,0.34-0.03l34.55-3.4l14.02-1.38
	c1.16-0.12,2.26,0.06,3.3,0.55c1.77-0.24,3.58,0.31,5.02,1.59c0.89,0.8,1.74,1.62,2.51,2.51c2.88,3.06,5.2,6.58,7.01,10.4
	c1.1,2.36,2.69,5.75,4.47,9.52c8.14,17.17,12.24,35.99,11.96,54.99c-0.31,20.14-0.8,47.22-1.53,69.16
	c-0.49,14.05-1.07,26.01-1.77,32.77c-0.67,6.55-1.38,10.8-1.96,11.84c-0.49,0.89-0.34,2.08,0.49,2.69
	C741.65,771.51,745.17,849.69,745.87,878.49z"/>
<path class="st29" d="M681.65,889.32c0,4.49-3.55,8.19-7.87,8.19l-40.43-0.07c-2.3,0-3.76-1.93-3.83-3.94
	c-0.04-1.12,0.36-2.27,1.32-3.1c0.54-0.5,4.1-2.1,8.72-4.07c9.79-4.16,24.31-9.92,24.31-9.92l15.41-0.68l0.46,4.32l0.78,3.78
	L681.65,889.32z"/>
<path class="st29" d="M740.56,897.51l-40.43-0.07c-2.32,0-3.76-1.93-3.84-3.94c-0.04-1.12,0.36-2.27,1.32-3.1
	c0.68-0.64,6.24-2.96,12.61-5.51c9.29-3.76,20.3-8.01,20.3-8.19l15.14-0.96h0.03c0.04,0.32,0.07,0.62,0.11,0.93l0.7,3.39l0.98,4.71
	l0.95,4.57C749.93,894.14,744.88,897.51,740.56,897.51z"/>
<linearGradient id="SVGID_9_" gradientUnits="userSpaceOnUse" x1="640.0239" y1="527.6761" x2="722.802" y2="527.6761">
	<stop  offset="0" style="stop-color:#FBBB98"/>
	<stop  offset="1" style="stop-color:#F89E6E"/>
</linearGradient>
<path class="st78" d="M722.59,602.54c-0.11,0.11-0.21,0.23-0.34,0.34c-6.58,6.47-20.62,9.26-35.28,10.29
	c-3.39,0.23-6.8,0.36-10.18,0.43c-15.79,0.29-30.39-0.98-35.14-1.44c-0.75-0.09-1.25-0.14-1.48-0.16c-0.09-0.02-0.14-0.02-0.14-0.02
	l0.21-3.78l0.04-0.68v-0.23c0-3.34,0.04-6.65,0.11-9.97c0.25-13.07,0.95-26.11,1.78-39.15c0.09-1.5,0.18-3.01,0.29-4.53
	c0.12-2,0.27-4.01,0.39-6.01c0.07-1.16,0.16-2.3,0.23-3.46c0.77-11.54,1.53-23.1,2.07-34.66c0.09-1.91,0.18-3.8,0.25-5.69
	c0-0.3,0.07-0.66,0.07-0.93c0.02-0.77,0.36-3.57,0.2-3.8c-4.64-4.12,13.13-37.73,13.84-39.86c7.72-23.06,21.6-16.5,22.28-16.78
	c2.21-0.96,4.33-0.8,6.72-0.48c0.73,0.04,7.79,1.11,8.56,1.18c6.9,0.78,1.78,0.59,8.53,2.32c1.02,0.27,2.21,0.57,3.34,0.93
	c1.52,0.41,3.07,0.86,4.49,1.52c1.19,0.52,2.34,1.14,3.35,1.91c5.39,4.19,3.19,16.23,1.09,24.85c-0.7,2.84-1.39,5.3-1.78,6.99
	C713.24,493.58,724.48,602.07,722.59,602.54z"/>
<path class="st12" d="M706.92,445.8c-4.2-0.83-5.46-2.75-5.09-5.25l1.68-14.62l1.36-11.8l-0.41,0.29l-18.39,13.4l-2.17,10.27
	l-0.76,3.54l-0.39,1.81c-0.17,0.76-1.51,1.55-3.19,2.23C675.62,447.32,706.92,445.8,706.92,445.8z"/>
<path class="st114" d="M683.14,441.64c3.58-0.07,6.97-1.12,10.01-2.93c5.95-3.59,9.68-9.99,10.47-16.9l0.85-7.37l-18.39,13.4
	l-2.17,10.27L683.14,441.64z"/>
<path class="st12" d="M714.2,399.37c-1.15-0.25-2.54,0.01-3.94,0.61c-1.2-13.74-9.19-29.91-18.85-32.01
	c-12.65-2.76-24.54,2.12-30.76,34.99c-2.46,13.01,4.64,27.97,16.92,31.79c9.22,2.87,21.54-5.86,28.11-15.89
	C719.29,413.04,718.06,400.21,714.2,399.37z"/>
<g>
	<g>
		<linearGradient id="SVGID_10_" gradientUnits="userSpaceOnUse" x1="703.8244" y1="482.0225" x2="751.2635" y2="482.0225">
			<stop  offset="0" style="stop-color:#FBBB98"/>
			<stop  offset="1" style="stop-color:#F89E6E"/>
		</linearGradient>
		<path class="st79" d="M751.26,504.97c-0.3,0.46-10.9,3.83-16.11,11.5c-0.16,0.25-11.62-8.49-20.32-18.06
			c-7.57-8.34-11.49-19.35-10.97-30.6c0.44-9.54,0.94-19.03,1.2-19.33c0,0,0.87-0.51,2.42-0.76c2.46-0.42,6.64-0.22,11.85,3.53
			C725.81,455.85,742.84,484.03,751.26,504.97z"/>
	</g>
	<g>
		<path class="st12" d="M729.6,517.39c4.12,2.8,9.34,3.76,14.02,2.11c8.1-2.88,10.75-11.3,5-18.35
			c-10.47-12.5-67.47-30.29-67.47-30.29l-3.96,10.34L729.6,517.39z"/>
	</g>
	<g>
		<path class="st12" d="M652.79,472.91l-0.96,7.41c0.25,2.69,3.02,3.04,3.02,3.04c1.43,1.7,3.73,0.91,3.73,0.91
			c0.01,0.01,0.01,0.01,0.04,0.01c0.23,0.13,0.44,0.22,0.65,0.31c3.41,1.15,5.74-3.5,5.97-3.98c0.01-0.01,0.01-0.01,0.01-0.04
			c1.37,1.08,2.59,1.68,3.67,1.97c3.83,0.99,5.89-2.1,6.35-2.55l1.92,1.21l3.96-10.34l-1.55-0.7c-7.44-5.62-12.03-6.77-17.37-6.04
			c-3.83,0.52-7.41,2.02-10.64,4.1c-6.35,4.1-16.73,7.27-15.58,9.35C639.09,481.71,652.79,472.91,652.79,472.91z"/>
		<path class="st114" d="M669.04,472.88c0.24,3.21,0.21,6.43-0.12,9.65c-1.08-0.27-2.31-0.88-3.67-1.96c1.44-2.42,2.18-5.1,2.87-7.8
			C668.25,472.22,668.99,472.38,669.04,472.88z"/>
	</g>
</g>
<g>
	
		<rect x="459.47" y="695.02" transform="matrix(-1 -1.224647e-16 1.224647e-16 -1 927.6703 1450.9052)" class="st30" width="8.73" height="60.87"/>
	<path class="st109" d="M442.78,704.01h44.45c2.24,0,4.06-1.82,4.06-4.06v-7.8c0-2.24-1.82-4.06-4.06-4.06h-44.45
		c-2.24,0-4.06,1.82-4.06,4.06v7.79C438.72,702.19,440.54,704.01,442.78,704.01z"/>
</g>
<linearGradient id="SVGID_11_" gradientUnits="userSpaceOnUse" x1="480.2216" y1="662.8732" x2="619.5056" y2="662.8732">
	<stop  offset="0" style="stop-color:#45989F"/>
	<stop  offset="0.1103" style="stop-color:#499FA6"/>
	<stop  offset="0.4607" style="stop-color:#54B3BB"/>
	<stop  offset="0.7689" style="stop-color:#5AC0C9"/>
	<stop  offset="1" style="stop-color:#5BC6CF"/>
</linearGradient>
<path class="st81" d="M515.82,569.17h88.8c9.09,0,15.72,7.32,14.8,16.34l-17.47,171.06H480.22l17.47-171.06
	C498.61,576.49,506.73,569.17,515.82,569.17z"/>
<path class="st30" d="M451.17,759.31v-6.19h6.92v0.42c0.89-0.25,1.81-0.42,2.77-0.42h62.94h6.92h65.71h6.92v11.79v131.2h-6.92
	v-131.2h-65.71v131.2h-6.92v-131.2h-65.71v131.2h-6.92v-131.2h-1.38C449.79,762.87,450.32,760.99,451.17,759.31z"/>
<path class="st29" d="M450.74,755.89h153.02v-13.25c0-7.2-5.84-13.03-13.03-13.03H463.78c-7.2,0-13.03,5.84-13.03,13.03V755.89z"/>
<g>
	
		<rect x="595.04" y="695.02" transform="matrix(-1 -1.224647e-16 1.224647e-16 -1 1198.8026 1450.9052)" class="st30" width="8.73" height="60.87"/>
	<path class="st109" d="M578.34,704.01h44.45c2.24,0,4.06-1.82,4.06-4.06v-7.8c0-2.24-1.82-4.06-4.06-4.06h-44.45
		c-2.24,0-4.06,1.82-4.06,4.06v7.8C574.29,702.19,576.1,704.01,578.34,704.01z"/>
</g>
<g>
	<g>
		<path class="st117" d="M425.26,594.01c0,0-23.95-16.57-34.64-2.38c0,0-4.03,4.64,7.45-1.14c0,0,4.22-1.21,5.55,0.24
			c0,0-10.87,2.79-12.3,5.01c-0.73,1.13,0.91,5.36,13.14-1.89c0,0-12.24,7.14-7.57,9.88l9.97-7.19l-6.98,8.01c0,0,0,6.21,9.24-4.6
			l0,0c0.02,0.03,0.03,0.08,0.07,0.1c4.68,2.64,8.86,4.18,14.23,2.73l1.08-0.64L425.26,594.01z"/>
		<linearGradient id="SVGID_12_" gradientUnits="userSpaceOnUse" x1="419.1102" y1="594.8493" x2="521.9188" y2="594.8493">
			<stop  offset="0" style="stop-color:#4B9DD6"/>
			<stop  offset="1" style="stop-color:#2279BE"/>
		</linearGradient>
		<path class="st82" d="M517.37,575.86l-25.09,51.37c-4.52,9.25-16.09,12.5-24.77,6.96l-48.4-30.94l2.57-10.8l50.84,18.35
			l16.86-37.49c4.91-10.93,15.01-18.63,26.85-20.48l0,0C525.6,551.92,521.49,567.41,517.37,575.86z"/>
	</g>
	<linearGradient id="SVGID_13_" gradientUnits="userSpaceOnUse" x1="493.1049" y1="613.1768" x2="585.6023" y2="613.1768">
		<stop  offset="0" style="stop-color:#4B9DD6"/>
		<stop  offset="1" style="stop-color:#2279BE"/>
	</linearGradient>
	<path class="st94" d="M493.1,671.45l86.56,4.51c0,0,1.98-93.59,5.54-107.87c2.37-9.52-6.36-18.04-14.97-17.68l-54.78,2.21
		c-8.05,0.33-14.3,8.08-13.94,17.29C501.82,577.91,493.1,671.45,493.1,671.45z"/>
	<g>
		<path class="st12" d="M532.58,556.12l0.22,0.72l0.97,2.99c2.13,6.61,11.21,7.33,14.36,1.13l0.77-1.52
			c1.58-3.15,2.46-6.61,2.55-10.13c0.06-0.41,0.06-0.83,0.03-1.25c-0.03-1.85-0.06-3.54-0.06-3.87c0.08-1.27,0.14-2.57,0.14-3.85
			c0.03-0.22,0.03-0.41,0.03-0.64l0.11-7.44l0.03-0.66l-20.2,2.63l0.08,9.24v1.08l-0.11,3.02
			C531.33,550.48,531.72,553.38,532.58,556.12z"/>
		<path class="st114" d="M532.58,556.12l0.22,0.72c8-1.58,14.8-7.77,18.76-16.49c0.03-0.22,0.03-0.41,0.03-0.64l0.11-7.44l0.03-0.66
			l-20.2,2.63l0.08,9.24v1.08l-0.11,3.02C531.33,550.48,531.72,553.38,532.58,556.12z"/>
	</g>
	<path class="st39" d="M579.02,673.79l-84.45-3.99l-6.7,16.38c-8.24,20.15,6.43,42.29,28.01,42.29h39.35
		c20.79,0,35.4-20.66,28.67-40.52L579.02,673.79z"/>
	<path class="st120" d="M498.41,725.09l-26.17,2.53l-54.88,151.97l-14.28,0.53l26.58-157.49c2.87-15.9,13.38-29.37,28.1-36.03
		l38.11-17.23l56.42,3.08L498.41,725.09z"/>
	<path class="st39" d="M560.89,725.09l-26.17,2.53l-54.88,151.97H463.8l28.34-156.96c2.87-15.9,13.38-29.37,28.1-36.03l30.18-13.64
		c3.8-1.72,8.14,0.94,8.33,5.11L560.89,725.09z"/>
	<path class="st29" d="M438.53,897.44l37.16,0.07c3.97,0,7.23-3.34,7.23-7.42l-1.76-8.39l-0.42-3.91l-14.18,0.61
		c0,0-28.65,11.42-30.35,12.65C431.93,894.17,436.41,897.44,438.53,897.44z"/>
	<path class="st29" d="M376.24,893.24c0.06,1.77,1.28,3.44,3.22,3.44l34.06,0.06c3.64,0,6.63-3.21,6.63-7.13l-1.61-8.06l-0.38-3.76
		l-12.99,0.59c0,0-26.38,10.81-27.82,12.16C376.54,891.28,376.21,892.28,376.24,893.24z"/>
	<g>
		<linearGradient id="SVGID_14_" gradientUnits="userSpaceOnUse" x1="509.6039" y1="532.6306" x2="553.8975" y2="609.3494">
			<stop  offset="0" style="stop-color:#4B9DD6"/>
			<stop  offset="1" style="stop-color:#2279BE"/>
		</linearGradient>
		<path class="st95" d="M530.05,622.61c-4.49,4.04-10.23,5.67-15.73,5.06c-7.24-0.8-13.26-5.98-16.03-12.71l-19.65-61.27l7.17-7.32
			l29.99,49.68l34.79-33.34c7.61-7.29,10.68-11.78,17.52-12.23c5.79-0.38,11.51,2.3,14.9,7.02c2.67,3.72,2.61,10.96-2.09,16.43
			L530.05,622.61z"/>
		<path class="st12" d="M486.84,548.24c0,0-3.43-30.95-22.87-30.01c0,0-6.73-0.15,6.18,5.48c0,0,3.97,2.71,3.68,4.84
			c0,0-9.96-7.2-12.83-6.85c-1.46,0.18-3.87,4.52,10.8,9.74c0,0-14.59-5.31-13.62,0.54l13.03,3.37l-11.63-0.27
			c0,0-5.23,4.34,10.35,4.56l0,0c-0.01,0.04-0.04,0.08-0.04,0.12c1.06,5.79,2.68,10.39,7.67,13.9l1.3,0.46L486.84,548.24z"/>
	</g>
	<g>
		<path class="st12" d="M562.64,509.27c-1.15-0.25-2.54,0.01-3.94,0.61c-1.2-13.74-9.19-29.91-18.85-32.01
			c-12.65-2.76-24.54,2.12-30.76,34.99c-2.46,13.01,4.64,27.97,16.92,31.79c9.22,2.87,21.54-5.86,28.11-15.89
			C567.73,522.94,566.5,510.11,562.64,509.27z"/>
	</g>
</g>
<g>
	<g>
		<polygon class="st30" points="200.94,889.85 200.94,742.47 195.24,742.47 195.24,889.85 179.08,889.85 179.08,897.51 
			217.1,897.51 217.1,889.85 		"/>
		<rect x="191.87" y="641.45" class="st109" width="12.45" height="218.67"/>
	</g>
	<g>
		<polygon class="st30" points="327.36,889.85 327.36,742.47 321.66,742.47 321.66,889.85 305.5,889.85 305.5,897.51 343.52,897.51 
			343.52,889.85 		"/>
		<rect x="318.29" y="641.45" class="st109" width="12.45" height="218.67"/>
	</g>
</g>
<g>
	<g>
		<polygon class="st30" points="738.8,889.85 738.8,742.47 733.1,742.47 733.1,889.85 716.94,889.85 716.94,897.51 754.96,897.51 
			754.96,889.85 		"/>
		<rect x="729.73" y="641.45" class="st109" width="12.45" height="218.67"/>
	</g>
	<g>
		<polygon class="st30" points="865.23,889.85 865.23,742.47 859.52,742.47 859.52,889.85 843.36,889.85 843.36,897.51 
			881.38,897.51 881.38,889.85 		"/>
		<rect x="856.15" y="641.45" class="st109" width="12.45" height="218.67"/>
	</g>
</g>
<rect x="189.53" y="645.02" class="st122" width="687.97" height="14.29"/>
<path class="st30" d="M882.57,649.49h-701.8c-4.33,0-7.84-3.4-7.84-7.59l0,0c0-4.19,3.51-7.59,7.84-7.59h701.8
	c4.33,0,7.84,3.4,7.84,7.59l0,0C890.41,646.09,886.9,649.49,882.57,649.49z"/>
<g>
	<path class="st123" d="M506.23,633.84h-47.69v-6.52h40.96C503.22,627.32,506.23,630.24,506.23,633.84L506.23,633.84z"/>
	<path class="st26" d="M458.38,634.38H361c-2.35,0-4.38-1.57-4.91-3.78l-14.51-60.89c-0.73-3.06,1.67-5.97,4.91-5.97h97.38
		c2.35,0,4.38,1.57,4.91,3.78l14.51,60.89C464.02,631.46,461.62,634.38,458.38,634.38z"/>
	<ellipse class="st123" cx="399.63" cy="600.42" rx="5.61" ry="6.79"/>
</g>
<g>
	<path class="st12" d="M380.6,508.83c-0.32,2.36-1.75,4.43-3.75,5.66l-12.13,7.18l-8.02,18.11l-17.49,39.55
		c-6.14,13.87-20.31,7.02-24.64-7.53l-7.96-32.4l-6.5-26.58l-1.2-4.88c-0.16-0.65-0.32-1.29-0.49-1.97
		c-2.1-8.99-2.39-16.2-0.97-23.51c1-5.3,2.94-10.57,5.69-16.59c0.16-0.32,0.32-0.68,0.49-1.03l2.46-5.21l0.06-0.1
		c0.48-0.1,1.71-0.19,3.36,0.1c0.13,0,0.23,0.03,0.32,0.06c0.26,0.03,0.45,0.1,0.74,0.16c3.1,0.84,7.37,3.23,11.54,9.57
		c2.36,4.62,3.52,10.38,4.01,16.36l2.3,26.36l1.23,13.94l2.49,28.81l16.23-36.25l2.65-5.85c0,0-3.4-5.17-0.81-13.23
		c1.1-3.36,1.84-6.89,2.04-10.44c0.32-6.08,5.08-11.97,7.34,2.43l8.83-2.17c2.72-0.29,5.47,0.91,6.98,3.27
		C378.08,496.44,381.37,502.72,380.6,508.83z"/>
</g>
<linearGradient id="SVGID_15_" gradientUnits="userSpaceOnUse" x1="296.5787" y1="499.4031" x2="329.6661" y2="499.4031">
	<stop  offset="0" style="stop-color:#FBBB98"/>
	<stop  offset="1" style="stop-color:#F89E6E"/>
</linearGradient>
<path class="st97" d="M329.67,526.07l-23.06,13.32l-6.5-26.58l-1.2-4.88c-0.16-0.65-0.32-1.29-0.49-1.97
	c-2.1-8.99-2.39-16.2-0.97-23.51c1-5.3,2.94-10.57,5.69-16.59c0.16-0.32,0.32-0.68,0.49-1.03l2.46-5.21l0.06-0.1
	c0.48-0.1,1.71-0.19,3.36,0.1c0.13,0,0.23,0.03,0.32,0.06c0.26,0.03,0.45,0.1,0.74,0.16c3.1,0.84,7.37,3.23,11.54,9.57
	c2.36,4.62,3.52,10.38,4.01,16.36l2.3,26.36L329.67,526.07z"/>
<g>
	<path class="st120" d="M235.15,607.47c0,0,6.97,1.46,15.03,7.41h0.02c5.84,4.26,12.24,10.89,16.98,20.95
		c3.18,6.75,5.61,15.03,6.65,25.21c0.25-1.29,0.34-2.02,0.34-2.02s1.1,1.36,0.14,3.22c-3.44,6.32,16.04,96.97,16.04,96.97
		s-13.98,86.3-10.95,118.07h16.04c0.09-0.75,0.23-1.48,0.34-2.21l24.89-118.91l-6.28-169.4l-0.44-8.32l-0.02-0.09l-0.34-0.02
		l-0.02-0.02h-0.02l-52.43-5.08c-1.24-0.12-2.45,0.09-3.53,0.59h-0.02c-1.56,0.71-2.84,1.98-3.6,3.62
		c-0.66,1.46-1.42,2.89-2.25,4.26l-0.07,0.07c-0.39,0.73-0.83,1.39-1.33,2.09c-3.46,5.08-8.34,12.77-11.57,17.94l-0.02,0.02
		C236.6,605.15,235.15,607.47,235.15,607.47z"/>
	<path class="st39" d="M207.23,877.29h16.05c0.15-0.64,0.33-1.27,0.51-1.91l29.51-77.42c4.78-15.9,8.45-32.1,10.9-48.51
		c0.12-0.85,0.27-1.7,0.39-2.54c0.15-1.18,0.33-2.33,0.45-3.48l4.51-47.28l0.51-3.75c0.82-4.33,1.57-8.69,2.27-13.05
		c0,0,0.06-0.03,0.06-0.09c0.58-3.45,1.09-6.9,1.6-10.36c1.6-10.81,2.97-21.68,3.97-32.61c0.06-0.67,0.12-1.36,0.18-2.03
		c0.42-4.3,0.76-8.6,1.03-12.93c0.06-0.64,0.09-1.24,0.15-1.88c0.15-1.97,0.27-3.91,0.36-5.9l0.15-2.66l0.73-12.05
		c0.27-4.97,0.58-9.93,0.94-14.87l-0.03-0.09l-21.95-9.57c-0.61-0.24-1.27-0.42-1.94-0.51h-0.03c-1.94-0.21-3.88,0.33-5.39,1.66
		c-0.03,0-0.03,0.03-0.06,0.03c-4.3,3.82-7.75,8.51-10.23,13.75c-2.51,5.3-5.96,14.62-8.66,22.26c-2.39,6.84-4.21,12.35-4.21,12.35
		l0.03,18.29l0.24,124.04C229.28,766.17,207.98,846.65,207.23,877.29z"/>
	<path class="st29" d="M332.85,893.23c-0.08,2.16-1.65,4.2-4.13,4.2l-43.66,0.08c-4.67,0-8.49-3.93-8.49-8.72l2.07-9.86l0.49-4.59
		l16.66,0.72c0,0,33.82,13.22,35.66,14.87C332.47,890.83,332.89,892.05,332.85,893.23z"/>
	<path class="st29" d="M260.76,893.23c-0.08,2.16-1.65,4.2-4.13,4.2l-43.66,0.08c-4.67,0-10.11-3.59-8.49-8.72l2.07-9.86l0.77-3.61
		c0.04-0.31,0.08-0.63,0.12-0.98h0.04l16.35,1.04c0,0.31,33.69,12.9,35.53,14.55C260.37,890.83,260.79,892.05,260.76,893.23z"/>
	<linearGradient id="SVGID_16_" gradientUnits="userSpaceOnUse" x1="225.9594" y1="541.0867" x2="321.4848" y2="541.0867">
		<stop  offset="0" style="stop-color:#FBBB98"/>
		<stop  offset="1" style="stop-color:#F89E6E"/>
	</linearGradient>
	<path class="st99" d="M321.48,625.92c0,0-3.27,0.32-8.67,0.74c-8.51,0.65-22.35,1.55-37.09,1.78c-5.17,0.06-10.45,0.06-15.68-0.06
		c-12.71-0.29-24.97-1.33-33.99-3.69h-0.1l0.1-0.42l0.39-1.49v-0.03l10.19-42.36c3.43-14.16,4.11-28.85,2.07-43.27l-11.64-82.49
		c8.44-0.58,16.72-0.91,24.8-0.94c12.55-0.1,24.64,0.55,36.15,2c5.98,0.78,11.8,1.75,17.46,2.98c1.03,0.23,2.07,0.45,3.07,0.71
		c0.97,0.19,1.91,0.45,2.88,0.68l-1.84,63.9c-0.03,0.36-0.03,0.71-0.03,1.07c-0.03,1.13-0.03,2.3,0,3.46
		c0,3.43,0.19,6.82,0.52,10.22l0.71,5.4L321.48,625.92z"/>
	<linearGradient id="SVGID_17_" gradientUnits="userSpaceOnUse" x1="251.8618" y1="461.628" x2="288.0153" y2="461.628">
		<stop  offset="0" style="stop-color:#FBBB98"/>
		<stop  offset="1" style="stop-color:#F89E6E"/>
	</linearGradient>
	<path class="st101" d="M288.02,455.7c-1.91,7.96-9.18,13.87-17.88,13.87c-9.41,0-17.2-6.95-18.27-15.88
		C264.41,453.6,276.5,454.24,288.02,455.7z"/>
</g>
<g>
	<path class="st12" d="M259.34,428.42v23.39c0,2.85,0.68,6,2.95,7.28c12.08,6.83,17.12-1.6,17.12-7.28v-14.26L259.34,428.42z"/>
	<path class="st114" d="M259.34,428.42v21.19c1.87,0.61,3.94,0.94,6.14,0.94c6.51,0,12.02-2.99,13.93-7.12v-5.88L259.34,428.42z"/>
	<path class="st12" d="M240.95,426.91c-2.3-4.31-2.74-10.77,0.92-12.21c1.09-0.43,2.49-0.38,3.94,0.01
		c-0.79-13.96,4.71-31.4,13.87-35c11.99-4.7,24.33-1.64,35.13,30.38c4.27,12.67-0.54,28.76-12.01,34.47
		c-8.62,4.29-21.93-2.57-29.79-11.63C248.69,432.95,243.87,432.38,240.95,426.91z"/>
</g>
<g>
	<g>
		<path class="st110" d="M376.6,519.72h-18.04c-1.37,0-2.5-1.05-2.61-2.41l-2.63-33.28c-0.12-1.52,1.08-2.82,2.61-2.82h23.82
			c1.54,0,2.75,1.33,2.61,2.86l-3.15,33.28C379.08,518.7,377.95,519.72,376.6,519.72z"/>
	</g>
	<path class="st30" d="M381.51,486.29h-27.28c-2.01,0-3.64-1.63-3.64-3.64l0,0c0-2.01,1.63-3.64,3.64-3.64h27.28
		c2.01,0,3.64,1.63,3.64,3.64l0,0C385.15,484.66,383.52,486.29,381.51,486.29z"/>
</g>
<path class="st117" d="M384.39,493.04c0,1.7-1.04,3.08-4.91,3.08c-3.87,0-9.1-1.38-9.1-3.08c0-1.7,5.23-3.08,9.1-3.08
	C383.35,489.96,384.39,491.34,384.39,493.04z"/>
<path class="st117" d="M383.49,498.84c0,1.8-1.04,3.26-4.91,3.26c-3.87,0-9.1-1.46-9.1-3.26c0-1.8,5.23-3.26,9.1-3.26
	C382.45,495.58,383.49,497.04,383.49,498.84z"/>
<path class="st117" d="M383.31,504.73c0,1.6-1.07,2.9-5.03,2.9c-3.97,0-9.33-1.3-9.33-2.9c0-1.6,5.37-2.9,9.33-2.9
	C382.25,501.83,383.31,503.13,383.31,504.73z"/>
<path class="st117" d="M382.07,509.82c0,1.6-0.77,2.9-3.63,2.9c-2.86,0-6.72-1.3-6.72-2.9c0-1.6,3.87-2.9,6.72-2.9
	C381.3,506.92,382.07,508.22,382.07,509.82z"/>
<g>
	<path class="st12" d="M248.62,649.58c0,0-5.64,4.43-14.69,7.89c0,0-11.82-18.32-11.33-29.09c0,0-22.44-37.58-24.9-56.11l8.83-43.98
		l11.67-58.05c0,0,3.1-13.68,10.57-16.1c4.62,4.07,7.57,11.54,9.35,20.15c2.94,14.39,1.52,29.36-3.3,43.24l-7.66,22.05l-8.96,25.84
		c0,0,5.37,6.86,6.82,32.73c0,0,4.39,18.87,7.33,24.72C234.26,623.02,250.41,647.21,248.62,649.58z"/>
	<linearGradient id="SVGID_18_" gradientUnits="userSpaceOnUse" x1="206.5243" y1="496.8647" x2="239.6453" y2="496.8647">
		<stop  offset="0" style="stop-color:#FBBB98"/>
		<stop  offset="1" style="stop-color:#F89E6E"/>
	</linearGradient>
	<path class="st102" d="M234.82,517.53l-7.66,22.05l-20.63-11.29l11.67-58.05c0,0,3.1-13.68,10.57-16.1
		c4.62,4.07,7.57,11.54,9.35,20.15C241.06,488.68,239.64,503.66,234.82,517.53z"/>
</g>
<path class="st19" d="M704.42,424.27c0,0,37.02-16.41,22.96-40.06c0,0,2.02-17.67-17.98-21.32c0,0-24.6-24.24-24.64-6.92
	c0,0-19.87-8.77-16.77,9.03c0,0-17.8-0.05-3.18,13.7c0,0,17.41,15.4,42.44,6.97c0,0-8.51,9.63-4.47,21.16
	C702.79,406.83,700.25,417.86,704.42,424.27z"/>
<ellipse transform="matrix(0.7071 -0.7071 0.7071 0.7071 -86.4686 619.9086)" class="st12" cx="705.06" cy="414.33" rx="11.93" ry="8.75"/>
<path class="st19" d="M551.2,531.09c0,0,37.02-16.41,22.96-40.06c0,0,2.02-17.67-17.98-21.32c0,0-24.6-24.24-24.64-6.92
	c0,0-19.87-8.77-16.77,9.03c0,0-17.8-0.05-3.18,13.7c0,0,17.41,15.4,42.44,6.97c0,0-8.51,9.63-4.47,21.16
	C549.57,513.65,547.03,524.68,551.2,531.09z"/>
<ellipse transform="matrix(0.7071 -0.7071 0.7071 0.7071 -206.8762 542.8508)" class="st12" cx="551.84" cy="521.15" rx="11.93" ry="8.75"/>
<path class="st19" d="M287.07,390.71c0,0,8.26-11.9,0.99-20.03c-7.27-8.13-33.66-5.44-47,4.4c-13.34,9.84-13.45,24.58-13.45,24.58
	l12.74,24.15c0,0,7.19-4.34,12.38,1.47c0,0,4.84-16.87,3.33-25.98C256.08,399.29,269.73,402.37,287.07,390.71z"/>
<ellipse transform="matrix(0.5232 -0.8522 0.8522 0.5232 -242.272 415.2654)" class="st12" cx="249.99" cy="424.15" rx="8.75" ry="11.93"/>
<g>
	<path class="st19" d="M708.14,384.16c-0.02,0.31-0.09,0.45-0.16,0.64c-0.07,0.19-0.17,0.33-0.26,0.48c-0.2,0.3-0.43,0.56-0.67,0.79
		c-0.49,0.46-1.03,0.82-1.58,1.16c-0.57,0.3-1.12,0.61-1.72,0.83l-0.88,0.36l-0.89,0.29c-2.39,0.77-4.83,1.28-7.29,1.64l-1.84,0.27
		l-1.85,0.2l-1.85,0.2l-1.85,0.13c-2.47,0.21-4.95,0.26-7.42,0.37c2.47-0.19,4.94-0.33,7.4-0.62l1.84-0.19l1.84-0.26l1.83-0.26
		l1.82-0.33c2.43-0.44,4.83-1.02,7.13-1.85l0.86-0.31l0.83-0.38c0.56-0.23,1.07-0.54,1.59-0.84c0.49-0.33,0.98-0.67,1.37-1.07
		c0.2-0.2,0.37-0.42,0.51-0.64c0.14-0.2,0.24-0.51,0.25-0.58L708.14,384.16z"/>
</g>
<g>
	<path class="st19" d="M726.6,383.81c0.74-0.04,1.6-0.38,2.27-0.87c0.7-0.49,1.27-1.17,1.71-1.94c0.46-0.76,0.73-1.62,0.98-2.49
		c0.08-0.44,0.18-0.89,0.25-1.34l0.14-1.36l-0.02,1.37c-0.03,0.46-0.09,0.91-0.13,1.37c-0.17,0.9-0.36,1.82-0.78,2.67
		c-0.39,0.85-0.94,1.66-1.69,2.3c-0.75,0.63-1.6,1.11-2.68,1.28L726.6,383.81z"/>
</g>
<g>
	<path class="st19" d="M725.07,382.62c0.56,0.48,1.27,0.91,1.99,1.23c0.72,0.32,1.5,0.55,2.29,0.63c0.79,0.1,1.61,0.04,2.39-0.18
		c0.8-0.18,1.52-0.59,2.23-1.02c-0.66,0.5-1.35,0.98-2.15,1.25c-0.78,0.31-1.64,0.46-2.5,0.44c-0.86-0.01-1.71-0.16-2.53-0.43
		c-0.82-0.28-1.59-0.63-2.34-1.15L725.07,382.62z"/>
</g>
<g>
	<circle class="st30" cx="398.1" cy="601.34" r="12.84"/>
	<path class="st128" d="M408.32,600.22l-5.67-5.69l-4.55,4.53l0,0l-4.53-4.55l-5.69,5.67l4.53,4.55l0,0l5.67,5.69l5.69-5.67l0,0
		L408.32,600.22z M402.65,596.8l3.4,3.41l-3.41,3.4l-3.4-3.41L402.65,596.8z M393.57,596.79l3.4,3.41l-3.41,3.4l-3.4-3.41
		L393.57,596.79z M398.09,608.15l-3.4-3.41l3.41-3.4l3.4,3.41L398.09,608.15z"/>
</g>
</svg>
