<?xml version="1.0" encoding="utf-8"?>
<!-- Generator: Adobe Illustrator 25.0.0, SVG Export Plug-In . SVG Version: 6.00 Build 0)  -->
<svg version="1.1" id="Layer_1" xmlns="http://www.w3.org/2000/svg" xmlns:xlink="http://www.w3.org/1999/xlink" x="0px" y="0px"
	 viewBox="0 0 1000 1000" style="enable-background:new 0 0 1000 1000;" xml:space="preserve">
<style type="text/css">
	.st0{opacity:0.576;fill:#C8E5F8;enable-background:new    ;}
	.st1{fill:url(#Path_5768_3_);}
	.st2{fill:url(#SVGID_1_);}
	.st3{fill:url(#Path_5768_4_);}
	.st4{fill:#98C6DB;}
	.st5{opacity:0.25;}
	.st6{fill:#010101;}
	.st7{fill:url(#SVGID_2_);}
	.st8{fill:url(#SVGID_3_);}
	.st9{fill:url(#SVGID_4_);}
	.st10{fill:url(#SVGID_5_);}
	.st11{fill:#1D262D;}
	.st12{fill:#FFE7CB;}
	.st13{opacity:0.25;fill:#010101;}
	.st14{fill:#0C0C0C;}
	.st15{fill:#141416;}
	.st16{fill:#324757;}
	.st17{fill:#0D2033;}
	.st18{fill:#358DCC;}
	.st19{fill:#1572BA;}
	.st20{fill:#112C46;}
	.st21{fill:url(#SVGID_6_);}
	.st22{fill:url(#SVGID_7_);}
	.st23{fill:url(#Path_5404_1_);}
	.st24{fill:none;stroke:#7D4848;stroke-miterlimit:10;}
	.st25{fill:#32A3D1;}
	.st26{fill:#035C9F;}
	.st27{fill:#287EC2;}
	.st28{fill:#FBBB98;}
	.st29{fill:#5BC6CF;}
	.st30{fill:#FFFFFF;}
	.st31{fill:#5AAADE;}
	.st32{fill:none;}
	.st33{fill:none;stroke:#358DCC;stroke-width:0.3657;}
	.st34{fill:none;stroke:#358DCC;stroke-width:1.4629;stroke-linecap:round;stroke-miterlimit:10;}
	.st35{fill:url(#Ellipse_1369_2_);}
	.st36{fill:#104879;}
	.st37{opacity:0.573;fill:#035C9F;enable-background:new    ;}
	.st38{opacity:0.5;}
	.st39{fill:#1F374C;}
	.st40{fill:#133E67;}
	.st41{fill:none;stroke:#1F374C;stroke-width:1.4629;stroke-linecap:round;stroke-miterlimit:10;}
	.st42{fill:#156FB0;}
	.st43{fill:none;stroke:#FBBB98;stroke-width:0.7315;}
	.st44{fill:#8AC6EC;}
	.st45{fill:none;stroke:#5BC6CF;stroke-width:0.7315;}
	.st46{fill:#D7EDFB;}
	.st47{opacity:0.33;fill:#287EC2;}
	.st48{fill:#99CCEE;}
	.st49{fill:none;stroke:#99CCEE;}
	.st50{fill:#174672;}
	.st51{fill:none;stroke:#717171;}
	.st52{fill:none;stroke:#287EC2;stroke-width:4;}
	.st53{fill:none;stroke:#5BC6CF;stroke-width:4;}
	.st54{fill:#1D8AB6;}
	.st55{fill:#F1D2B7;}
	.st56{fill:url(#Path_5436_1_);}
	.st57{fill:#E1CCE3;}
	.st58{fill:url(#Ellipse_1094_1_);}
	.st59{fill:#F9A576;}
	.st60{fill:#FFFFFF;stroke:#2E3192;stroke-width:0.25;stroke-miterlimit:10;}
	.st61{fill:#287EC2;stroke:#2E3192;stroke-miterlimit:10;}
	.st62{fill:#FFFFFF;stroke:#2E3192;stroke-miterlimit:10;}
	.st63{fill:#174672;stroke:#2E3192;stroke-miterlimit:10;}
	.st64{opacity:0.79;}
	.st65{fill:none;stroke:#5BC6CF;stroke-width:3;}
	.st66{opacity:0.83;}
	.st67{fill:#035C9F;stroke:#035C9F;stroke-linecap:round;stroke-linejoin:round;}
	.st68{fill:#035C9F;stroke:#035C9F;}
	.st69{fill:none;stroke:#FBBB98;stroke-width:0.8965;}
	.st70{fill:none;stroke:#5BC6CF;stroke-width:0.8965;}
	.st71{fill:#C3D4EE;}
	.st72{opacity:0.5;fill:#43548B;}
	.st73{fill:#F2F2F3;}
	.st74{fill:#F69B6C;}
	.st75{fill:#43548B;}
	.st76{fill:#F8A47B;}
	.st77{fill:url(#SVGID_8_);}
	.st78{fill:url(#SVGID_9_);}
	.st79{fill:url(#SVGID_10_);}
	.st80{fill:#7E9DD1;}
	.st81{fill:url(#SVGID_11_);}
	.st82{fill:url(#SVGID_12_);}
	.st83{opacity:0.2;fill:#39B5E8;}
	.st84{fill:#FAFBFB;}
	.st85{opacity:0.2;}
	.st86{fill:#39B5E8;}
	.st87{fill:#1F3F7A;}
	.st88{fill:#1C54A5;}
	.st89{opacity:0.2;fill:#125267;stroke:#010101;stroke-width:0.8711;stroke-miterlimit:10;}
	.st90{fill:#385A65;}
	.st91{fill:#263238;}
	.st92{fill:#F0D3B9;}
	.st93{fill:#E7515B;}
	.st94{fill:url(#SVGID_13_);}
	.st95{fill:url(#SVGID_14_);}
	.st96{fill:#E1E1E1;}
	.st97{fill:url(#SVGID_15_);}
	.st98{fill:#E6E6E5;}
	.st99{fill:url(#SVGID_16_);}
	.st100{opacity:0.53;fill:#FFFFFF;}
	.st101{fill:url(#SVGID_17_);}
	.st102{fill:url(#SVGID_18_);}
	.st103{fill:url(#SVGID_19_);}
	.st104{fill:#05B9A9;}
	.st105{fill:#31286A;}
	.st106{fill:url(#SVGID_20_);}
	.st107{fill:#45BEA5;}
	.st108{fill:url(#SVGID_21_);}
	.st109{fill:#270D3B;}
	.st110{fill:#D5E4EA;}
	.st111{fill:url(#SVGID_22_);}
	.st112{fill:url(#SVGID_23_);}
	.st113{fill:url(#SVGID_24_);}
	.st114{fill:#FBB888;}
	.st115{fill:url(#SVGID_25_);}
	.st116{fill:url(#SVGID_26_);}
	.st117{fill:#FDD1B6;}
	.st118{fill:url(#SVGID_27_);}
	.st119{fill:url(#SVGID_28_);}
	.st120{fill:#162735;}
	.st121{fill:url(#SVGID_29_);}
	.st122{fill:#B7BABD;}
	.st123{fill:#101334;}
	.st124{fill:url(#SVGID_30_);}
	.st125{fill:url(#SVGID_31_);}
	.st126{fill:url(#SVGID_32_);}
	.st127{fill:url(#SVGID_33_);}
	.st128{fill:#29AAE1;}
	.st129{fill:#297FC3;}
	.st130{fill:#358DCC;stroke:#035C9F;stroke-width:7;stroke-miterlimit:10;}
	.st131{fill:#035C9F;stroke:#358DCC;stroke-width:3;stroke-miterlimit:10;}
	.st132{fill:#EEAC21;}
	.st133{fill:#FBD900;}
	.st134{fill:#DB9A28;}
	.st135{fill:#EEAA1F;}
	.st136{fill:#E8E4EE;}
	.st137{fill:url(#SVGID_34_);}
	.st138{fill:url(#SVGID_35_);}
	.st139{fill:url(#SVGID_36_);}
	.st140{fill:url(#SVGID_37_);}
	.st141{fill:url(#SVGID_38_);}
	.st142{fill:url(#SVGID_39_);}
	.st143{fill:url(#SVGID_40_);}
	.st144{fill:url(#SVGID_41_);}
	.st145{fill:url(#SVGID_42_);}
	.st146{fill:url(#SVGID_43_);}
	.st147{fill:url(#Path_5768_5_);}
	.st148{fill:url(#Ellipse_1278_1_);}
	.st149{opacity:0.435;fill:#C8E5F8;enable-background:new    ;}
	.st150{fill:url(#Ellipse_1174_1_);}
	.st151{fill:none;stroke:#FFFFFF;stroke-width:2;}
	.st152{opacity:0.966;fill:url(#Ellipse_1174_2_2_1_);enable-background:new    ;}
	.st153{opacity:0.966;fill:url(#Ellipse_1174_2_3_1_);enable-background:new    ;}
	.st154{fill:#4296D2;}
	.st155{fill:#2C1B4C;}
	.st156{fill:none;stroke:#358DCC;stroke-width:2;}
	.st157{fill-rule:evenodd;clip-rule:evenodd;fill:#C8E5F8;}
	.st158{fill:#97A7D5;}
	.st159{fill:#4598D3;}
	.st160{fill:#EDD7C1;}
	.st161{fill:#211128;}
	.st162{fill:url(#SVGID_44_);}
	.st163{fill:url(#SVGID_45_);}
	.st164{opacity:0.64;fill:url(#SVGID_46_);}
	.st165{fill:url(#SVGID_47_);}
	.st166{fill:#2272B9;}
	.st167{fill-rule:evenodd;clip-rule:evenodd;fill:#FFE7CB;}
	.st168{fill:url(#SVGID_48_);}
	.st169{fill:url(#SVGID_49_);}
	.st170{fill:url(#SVGID_50_);}
	.st171{fill:url(#SVGID_51_);}
	.st172{fill:url(#SVGID_52_);}
	.st173{fill:url(#SVGID_53_);}
	.st174{fill:#6EACCE;}
	.st175{fill:#E0EDF6;}
	.st176{fill:#262D66;}
	.st177{fill:url(#SVGID_54_);}
	.st178{fill:url(#SVGID_55_);}
	.st179{fill:url(#SVGID_56_);}
	.st180{fill:#FFFFFF;stroke:#FFFFFF;stroke-miterlimit:10;}
	.st181{fill:url(#SVGID_57_);}
	.st182{fill:none;stroke:#5AAADE;stroke-width:0.5;stroke-linecap:round;stroke-linejoin:round;stroke-miterlimit:10;}
	.st183{opacity:0.3;fill:none;stroke:#FFFFFF;enable-background:new    ;}
	.st184{fill:url(#Path_5783_1_);}
	.st185{fill:none;stroke:#FFFFFF;stroke-miterlimit:10;}
	.st186{fill:url(#Path_5785-2_1_);}
	.st187{fill:url(#Path_5786-2_1_);}
	.st188{opacity:0.23;fill:none;stroke:#FFFFFF;enable-background:new    ;}
</style>
<linearGradient id="Path_5404_1_" gradientUnits="userSpaceOnUse" x1="1253.9573" y1="-7.9353" x2="1253.8756" y2="-5.908" gradientTransform="matrix(469.7124 16.4564 12.9587 -369.8783 -588391.9375 -22693.3867)">
	<stop  offset="0" style="stop-color:#C8E5F8"/>
	<stop  offset="1" style="stop-color:#D7EDFB;stop-opacity:0"/>
</linearGradient>
<path id="Path_5404" class="st23" d="M164.73,902.56c0,0-101.43-119.53-138.62-224.53s77.34-229.72,77.34-229.72l0,0
	c87.82-154.54,72.25-155.52,261.28-222.01s379.78,11.26,388.45,13.61c112.79,31.11,172.94,109.5,210.19,215.76
	s15.8,201.95-60.1,338.56s-63.59,140.36-188.24,127.62C590.37,909.1,577.22,969.7,483,951.08
	C388.78,932.67,199.94,939.53,164.73,902.56z"/>
<path class="st71" d="M231.96,820.21h-14.74c-0.83,0-1.51-0.67-1.51-1.51l0,0c0-0.83,0.68-1.51,1.51-1.51h14.74
	c0.83,0,1.51,0.67,1.51,1.51l0,0C233.47,819.53,232.8,820.21,231.96,820.21z"/>
<path class="st71" d="M226.1,811.33v14.74c0,0.83-0.68,1.51-1.51,1.51l0,0c-0.83,0-1.51-0.67-1.51-1.51v-14.74
	c0-0.83,0.68-1.51,1.51-1.51l0,0C225.43,809.82,226.1,810.5,226.1,811.33z"/>
<path class="st71" d="M783.52,629.33h-24.01c-0.83,0-1.51-0.68-1.51-1.51l0,0c0-0.83,0.68-1.51,1.51-1.51h24.01
	c0.83,0,1.51,0.68,1.51,1.51l0,0C785.03,628.66,784.36,629.33,783.52,629.33z"/>
<path class="st71" d="M811,635.17c0,0.84-0.67,1.51-1.51,1.51h-38.93c-0.84,0-1.52-0.67-1.52-1.51c0-0.84,0.68-1.51,1.52-1.51h38.93
	C810.33,633.66,811,634.33,811,635.17z"/>
<path class="st71" d="M268.05,871.38c0,0.84-0.67,1.51-1.51,1.51h-38.93c-0.84,0-1.52-0.67-1.52-1.51s0.68-1.51,1.52-1.51h38.93
	C267.38,869.87,268.05,870.54,268.05,871.38z"/>
<path class="st71" d="M391.32,479.76h-24.01c-0.83,0-1.51-0.67-1.51-1.51l0,0c0-0.83,0.68-1.51,1.51-1.51h24.01
	c0.83,0,1.51,0.67,1.51,1.51l0,0C392.83,479.09,392.16,479.76,391.32,479.76z"/>
<path class="st71" d="M440.49,471.78c0,0.84-0.68,1.51-1.52,1.51h-37.53c-0.82,0-1.51-0.67-1.51-1.51c0-0.84,0.68-1.51,1.51-1.51
	h37.53C439.8,470.27,440.49,470.94,440.49,471.78z"/>
<path class="st71" d="M418.8,485.59c0,0.84-0.67,1.51-1.51,1.51h-38.93c-0.84,0-1.52-0.67-1.52-1.51c0-0.84,0.68-1.51,1.52-1.51
	h38.93C418.13,484.09,418.8,484.76,418.8,485.59z"/>
<path class="st71" d="M597,427.23h-24.01c-0.83,0-1.51-0.67-1.51-1.51l0,0c0-0.83,0.67-1.51,1.51-1.51H597
	c0.83,0,1.51,0.67,1.51,1.51l0,0C598.51,426.56,597.84,427.23,597,427.23z"/>
<path class="st71" d="M279.26,881.16h-24.01c-0.83,0-1.51-0.68-1.51-1.51l0,0c0-0.83,0.68-1.51,1.51-1.51h24.01
	c0.83,0,1.51,0.68,1.51,1.51l0,0C280.77,880.48,280.09,881.16,279.26,881.16z"/>
<path class="st71" d="M576.68,418.07c0,0.84-0.67,1.51-1.51,1.51h-38.93c-0.84,0-1.52-0.67-1.52-1.51s0.68-1.51,1.52-1.51h38.93
	C576.01,416.56,576.68,417.23,576.68,418.07z"/>
<path class="st71" d="M576.37,432.51c0,0.84-0.67,1.51-1.51,1.51h-64.02c-0.84,0-1.52-0.67-1.52-1.51s0.68-1.51,1.52-1.51h64.02
	C575.7,431,576.37,431.67,576.37,432.51z"/>
<g>
	<rect x="285.49" y="527.61" class="st72" width="261.57" height="184.81"/>
	<g>
		<rect x="264.74" y="507.28" class="st73" width="261.57" height="184.81"/>
		<rect x="264.74" y="507.28" class="st74" width="261.57" height="19.26"/>
		<g>
			<rect x="287.35" y="603.93" class="st75" width="79.4" height="3.37"/>
			<rect x="287.35" y="610.4" class="st75" width="71.94" height="3.37"/>
			<rect x="287.35" y="616.88" class="st75" width="45.53" height="3.37"/>
			<rect x="287.35" y="623.36" class="st75" width="74.41" height="3.37"/>
			<rect x="287.35" y="629.84" class="st75" width="79.4" height="3.37"/>
			<rect x="392.52" y="545.05" class="st75" width="98.18" height="3.37"/>
			<rect x="392.52" y="551.52" class="st75" width="111.16" height="3.37"/>
			<rect x="392.52" y="558" class="st75" width="107.81" height="3.37"/>
			<rect x="392.52" y="564.48" class="st75" width="104.18" height="3.37"/>
			<rect x="392.52" y="570.96" class="st75" width="111.16" height="3.37"/>
			<rect x="287.35" y="642.79" class="st75" width="57.35" height="3.61"/>
			<rect x="287.35" y="649.27" class="st75" width="79.4" height="3.37"/>
			<rect x="287.35" y="655.75" class="st75" width="44.69" height="3.37"/>
			<rect x="287.35" y="662.23" class="st75" width="79.4" height="3.37"/>
			<rect x="287.35" y="668.71" class="st75" width="70.16" height="3.37"/>
			<rect x="392.52" y="584.49" class="st75" width="111.16" height="3.61"/>
			<rect x="392.52" y="590.97" class="st75" width="86.4" height="3.6"/>
			<rect x="392.52" y="597.45" class="st75" width="98.97" height="3.37"/>
			<rect x="392.52" y="603.93" class="st75" width="73.45" height="3.37"/>
			<rect x="392.52" y="610.4" class="st75" width="98.23" height="3.37"/>
			<g>
				<path class="st75" d="M444.16,672.21h-51.6V620.6h51.6V672.21z M394.63,670.13h47.45v-47.45h-47.45V670.13z"/>
				<g>
					
						<rect x="417.32" y="611.38" transform="matrix(0.7071 -0.7071 0.7071 0.7071 -334.5429 485.1415)" class="st75" width="2.08" height="70.05"/>
					
						<rect x="383.33" y="645.37" transform="matrix(0.7071 -0.7071 0.7071 0.7071 -334.5447 485.1502)" class="st75" width="70.05" height="2.08"/>
				</g>
			</g>
			<g>
				<path class="st75" d="M504.72,672.21h-51.6V620.6h51.6V672.21z M455.19,670.13h47.45v-47.45h-47.45V670.13z"/>
				<g>
					
						<rect x="477.88" y="611.38" transform="matrix(0.7071 -0.7071 0.7071 0.7071 -316.8044 527.9666)" class="st75" width="2.08" height="70.05"/>
					
						<rect x="443.9" y="645.37" transform="matrix(0.7071 -0.7071 0.7071 0.7071 -316.8055 527.9742)" class="st75" width="70.05" height="2.08"/>
				</g>
			</g>
			<g>
				<path class="st75" d="M367.79,595.61h-81.48v-51.61h81.48V595.61z M288.39,593.54h77.33v-47.45h-77.33V593.54z"/>
				
					<rect x="326.02" y="523.02" transform="matrix(0.5293 -0.8485 0.8485 0.5293 -329.5028 545.722)" class="st75" width="2.08" height="93.58"/>
				
					<rect x="280.26" y="568.77" transform="matrix(0.8485 -0.5292 0.5292 0.8485 -251.9995 259.4162)" class="st75" width="93.58" height="2.08"/>
			</g>
		</g>
	</g>
</g>
<g>
	<g>
		<rect x="252.11" y="441.92" class="st72" width="102.44" height="65.35"/>
		<rect x="240.63" y="430.45" class="st73" width="102.44" height="65.35"/>
		<rect x="240.63" y="430.45" class="st76" width="102.44" height="12.36"/>
	</g>
	<g>
		<rect x="235.04" y="430.45" class="st72" width="18.52" height="18.52"/>
		<g>
			<linearGradient id="SVGID_1_" gradientUnits="userSpaceOnUse" x1="230.1326" y1="434.8008" x2="248.6507" y2="434.8008">
				<stop  offset="0" style="stop-color:#4B9DD6"/>
				<stop  offset="1" style="stop-color:#2279BE"/>
			</linearGradient>
			<rect x="230.13" y="425.54" class="st2" width="18.52" height="18.52"/>
			<g>
				
					<rect x="231.91" y="434.06" transform="matrix(0.7072 -0.7071 0.7071 0.7072 -237.3255 296.5943)" class="st75" width="14.96" height="1.48"/>
				
					<rect x="238.65" y="427.32" transform="matrix(0.7071 -0.7071 0.7071 0.7071 -237.3301 296.6101)" class="st75" width="1.48" height="14.96"/>
			</g>
		</g>
	</g>
</g>
<g>
	<g>
		<rect x="631.99" y="410.19" class="st72" width="102.44" height="65.35"/>
		<rect x="620.51" y="398.72" class="st73" width="102.44" height="65.35"/>
		<rect x="620.51" y="398.72" class="st76" width="102.44" height="12.36"/>
	</g>
	<g>
		<rect x="614.92" y="398.72" class="st72" width="18.52" height="18.52"/>
		<g>
			<linearGradient id="SVGID_2_" gradientUnits="userSpaceOnUse" x1="610.0128" y1="403.0712" x2="628.5308" y2="403.0712">
				<stop  offset="0" style="stop-color:#4B9DD6"/>
				<stop  offset="1" style="stop-color:#2279BE"/>
			</linearGradient>
			<rect x="610.01" y="393.81" class="st7" width="18.52" height="18.52"/>
			<g>
				
					<rect x="611.79" y="402.33" transform="matrix(0.7071 -0.7071 0.7071 0.7071 -103.6341 555.9481)" class="st75" width="14.96" height="1.48"/>
				
					<rect x="618.53" y="395.59" transform="matrix(0.7071 -0.7071 0.7071 0.7071 -103.6391 555.9247)" class="st75" width="1.48" height="14.96"/>
			</g>
		</g>
	</g>
</g>
<g>
	<g>
		<rect x="701.1" y="492.03" class="st72" width="122.3" height="78.02"/>
		<rect x="687.4" y="478.34" class="st73" width="122.3" height="78.02"/>
		<rect x="687.4" y="478.34" class="st76" width="122.3" height="14.76"/>
	</g>
	<g>
		<rect x="680.72" y="478.34" class="st72" width="22.11" height="22.11"/>
		<g>
			<linearGradient id="SVGID_3_" gradientUnits="userSpaceOnUse" x1="674.8655" y1="483.5386" x2="696.9724" y2="483.5386">
				<stop  offset="0" style="stop-color:#4B9DD6"/>
				<stop  offset="1" style="stop-color:#2279BE"/>
			</linearGradient>
			<rect x="674.87" y="472.49" class="st8" width="22.11" height="22.11"/>
			<g>
				
					<rect x="676.99" y="482.66" transform="matrix(0.7071 -0.7071 0.7071 0.7071 -141.0127 626.643)" class="st75" width="17.86" height="1.76"/>
				
					<rect x="685.04" y="474.61" transform="matrix(0.7071 -0.7071 0.7071 0.7071 -141.0174 626.6161)" class="st75" width="1.76" height="17.86"/>
			</g>
		</g>
	</g>
</g>
<path class="st75" d="M637.03,655.96c16.26-20.96,136.6-14.36,163.56,13.46c26.96,27.83-41.87,143.53-40.87,243.44
	c0.16,16.39-139.58,13.6-152.81-1.68C586.09,887.13,583.02,725.6,637.03,655.96z"/>
<path class="st26" d="M450,885.38c0.46,13.98-89.31,18.29-95.55,7.62c-6.24-10.67,9.09-25.35,21.39-30.13
	C396.21,854.96,449.38,866.37,450,885.38z"/>
<path class="st71" d="M410.63,852.03c-5.26-1.39-19.12-3.28-22.24-2.77c-5.84,0.95-17.16,8.71-15.01,12.14
	c2.15,3.42,12.7-2.27,16.14-2.07c3.43,0.2,19.71,2.97,19.71,2.97L410.63,852.03z"/>
<path class="st71" d="M530.67,828.64c7.11-1.73,27.03-52.09,41.52-70.19c14.49-18.11,42.46-10.87,43.16,10.41
	c1.21,37-41.4,95.69-49.75,100.88c-12.01,7.46-105.14,20.58-113.71,19.22c-8.57-1.36-24.67-22.8-15.07-29.99
	C446.41,851.77,519.79,831.28,530.67,828.64z"/>
<path class="st71" d="M448.06,854.93c-7.48,2.2-34.65-6.27-41.57-4.68c-6.92,1.59-23.68,9.45-24.22,13.72
	c-0.54,4.27,21.37-1.89,24.95-1.66c3.58,0.22,24.14,9.93,25.18,15.68c1.04,5.75-16.08,12.77-18.8,18.3
	c-2.71,5.53,4.95,5.62,9.82,3.93c4.88-1.69,16.91-8.21,20.14-8.31c3.23-0.11,15.39-2.53,15.39-2.53L448.06,854.93z"/>
<path class="st80" d="M410.63,852.03c-5.26-1.39-19.12-3.28-22.24-2.77c-5.84,0.95-17.16,8.71-15.01,12.14
	c2.15,3.42,12.7-2.27,16.14-2.07c3.43,0.2,19.71,2.97,19.71,2.97L410.63,852.03z"/>
<path class="st12" d="M530.67,828.64c7.11-1.73,27.03-52.09,41.52-70.19c14.49-18.11,42.46-10.87,43.16,10.41
	c1.21,37-41.4,95.69-49.75,100.88c-12.01,7.46-105.14,20.58-113.71,19.22c-8.57-1.36-24.67-22.8-15.07-29.99
	C446.41,851.77,519.79,831.28,530.67,828.64z"/>
<path class="st80" d="M448.06,854.93c-7.48,2.2-34.65-6.27-41.57-4.68c-6.92,1.59-23.68,9.45-24.22,13.72
	c-0.54,4.27,21.37-1.89,24.95-1.66c3.58,0.22,24.14,9.93,25.18,15.68c1.04,5.75-16.08,12.77-18.8,18.3
	c-2.71,5.53,4.95,5.62,9.82,3.93c4.88-1.69,16.91-8.21,20.14-8.31c3.23-0.11,15.39-2.53,15.39-2.53L448.06,854.93z"/>
<linearGradient id="SVGID_4_" gradientUnits="userSpaceOnUse" x1="494.1811" y1="711.1774" x2="447.4883" y2="779.0377">
	<stop  offset="0" style="stop-color:#2D3246"/>
	<stop  offset="1" style="stop-color:#2C3144;stop-opacity:0"/>
</linearGradient>
<path class="st9" d="M410.63,852.03c-5.26-1.39-19.12-3.28-22.24-2.77c-5.84,0.95-17.16,8.71-15.01,12.14
	c2.15,3.42,12.7-2.27,16.14-2.07c3.43,0.2,19.71,2.97,19.71,2.97L410.63,852.03z"/>
<path class="st12" d="M448.06,854.93c-7.48,2.2-34.65-6.27-41.57-4.68c-6.92,1.59-23.68,9.45-24.22,13.72
	c-0.54,4.27,21.37-1.89,24.95-1.66c3.58,0.22,24.14,9.93,25.18,15.68c1.04,5.75-16.08,12.77-18.8,18.3
	c-2.71,5.53,4.95,5.62,9.82,3.93c4.88-1.69,16.91-8.21,20.14-8.31c3.23-0.11,15.39-2.53,15.39-2.53L448.06,854.93z"/>
<path class="st13" d="M572.19,758.44c-14.49,18.11-34.4,68.46-41.52,70.19c-9.37,2.28-65.08,17.79-86.49,26.65
	c-10.39-0.21-31.68-6.42-37.69-5.04c-6.92,1.59-23.68,9.45-24.22,13.72c-0.54,4.27,21.37-1.89,24.95-1.66
	c3.58,0.22,24.14,9.93,25.18,15.68c1.04,5.75-16.08,12.77-18.8,18.3c-2.71,5.53,4.95,5.62,9.82,3.93
	c4.88-1.69,16.91-8.21,20.14-8.31c3.23-0.11,15.39-2.53,15.39-2.53l-0.17-0.54c23.77-1.71,96.3-12.57,106.81-19.09
	c8.35-5.19,50.96-63.88,49.75-100.88C614.65,747.57,586.68,740.34,572.19,758.44z"/>
<path class="st76" d="M605.48,698.84c-17.79,7.24-33.29,29.54-41.76,45.72c-8.47,16.17-17.69,40.06-16.58,42.59
	c1.11,2.53,24.91,24.12,64.63,24.3c6.92,0.03,22.61-52.84,24.35-70.79C637.88,722.71,636.29,686.3,605.48,698.84z"/>
<path class="st18" d="M605.48,698.84c-17.79,7.24-33.29,29.54-41.76,45.72c-8.47,16.17-17.69,40.06-16.58,42.59
	c1.11,2.53,24.91,24.12,64.63,24.3c6.92,0.03,22.61-52.84,24.35-70.79C637.88,722.71,636.29,686.3,605.48,698.84z"/>
<path class="st18" d="M541.17,788.37c17.69,20.88,48.67,28.67,74.8,27.39c5.72-0.28,5.44-9.18-0.29-8.9
	c-24.04,1.17-52.15-5.78-68.43-24.99C543.55,777.51,537.5,784.05,541.17,788.37L541.17,788.37z"/>
<path class="st18" d="M657.57,681.15c-13.7,0-53.71,16.98-65.79,46.03c-12.08,29.06-27.8,178.41-29.07,182.22
	c-1.27,3.81,62.1,16.72,102.83,16.72c40.73,0,84.81-9.45,88.2-14.11s-19.15-144.34-19.92-155.61
	C733.04,745.13,722.88,681.15,657.57,681.15z"/>
<path class="st18" d="M639.91,682.53c-0.62-2.29-4.68-3.59-7.58,0c-2.9,3.59-19.52,33.02-6.58,40.67
	c12.95,7.65,36.8-2.87,50.61-21.45c10.85-14.59,11.25-19.63,11.55-22.86c0.29-3.24-6.66-4.44-8.76-0.39
	C677.54,681.58,639.91,682.53,639.91,682.53z"/>
<path class="st13" d="M639.91,682.53c-0.62-2.29-4.68-3.59-7.58,0c-2.9,3.59-19.52,33.02-6.58,40.67
	c12.95,7.65,36.8-2.87,50.61-21.45c10.85-14.59,11.25-19.63,11.55-22.86c0.29-3.24-6.66-4.44-8.76-0.39
	C677.54,681.58,639.91,682.53,639.91,682.53z"/>
<path class="st13" d="M583.87,757.84c-4.44,15.64-7.11,31.94-9.69,47.97c-2.44,15.18-5.27,30.9-5.49,46.3
	c-0.01,1.02,1.63,1.29,1.82,0.25c2.79-15.58,3.92-31.5,6.46-47.14c2.56-15.7,6.18-31.16,8.98-46.8
	C586.2,757.07,584.26,756.48,583.87,757.84z"/>
<path class="st13" d="M586.22,750.7c-0.67-0.08-1.22,0.47-1.13,1.14c-0.17,1.08,1.34,2.04,2.26,1.12
	C588.27,752.04,587.31,750.51,586.22,750.7z"/>
<path class="st12" d="M636,841.17c8.57-1.79,32.7-76.17,50.72-97.25c18.02-21.08,51.18-11.34,51.18,14.13
	c0,44.28-51.57,127.73-61.76,133.61c-14.65,8.45-128.12,5.54-138.31,3.58c-10.19-1.96-28.6-28.21-16.85-36.44
	C532.74,850.57,622.9,843.91,636,841.17z"/>
<path class="st12" d="M530.87,855.26c-19.29,1.31-34.97,1.72-45.74,5.06c-10.78,3.33-39.62,19.47-40.74,23.28
	c-1.12,3.81,8.52,0.9,8.52,0.9s-8.97,6.96-7.17,10.43c1.79,3.47,22.19-5.72,22.19-5.72s-12.1,9.19-9.41,13s15.91-2.91,15.91-2.91
	s-4.8,4.03-2.06,6.72c2.74,2.69,26.05-10.75,34.79-11.09c8.74-0.34,16.23,3.93,29.52,0L530.87,855.26z"/>
<path class="st18" d="M686.77,685.71c10.8,3.02,50.84,20.21,60.29,44.06c9.45,23.84-9.01,86.7-11.71,88.41
	c-2.7,1.71-48.67,0.52-78.85-24.05C650.07,788.89,686.77,685.71,686.77,685.71z"/>
<path class="st13" d="M660.86,762.09c-2.9,10.24-5.26,20.77-6.31,31.37c-0.1,1.04,1.63,1.28,1.83,0.25c2-10.41,3.8-20.81,6.16-31.16
	C662.79,761.46,661.17,761,660.86,762.09z"/>
<path class="st13" d="M663.71,757.53c-0.58-0.58-1.55-0.43-1.98,0.26c-0.04,0.07-0.09,0.14-0.13,0.22
	c-0.63,1.01,0.63,2.28,1.65,1.65c0.07-0.04,0.14-0.09,0.22-0.13C664.14,759.09,664.29,758.12,663.71,757.53z"/>
<path class="st18" d="M650.14,794.14c20.64,22.92,55.76,30.87,85.2,28.49c5.67-0.46,5.72-9.36,0-8.9
	c-27.26,2.21-59.73-4.58-78.91-25.88C652.59,783.58,646.31,789.89,650.14,794.14L650.14,794.14z"/>
<path class="st13" d="M577.6,801.67c-11.69-4.02-22.43-10.44-30.35-19.79c-3.7-4.37-9.75,2.17-6.09,6.5
	c9.33,11.01,20.95,17.9,35.01,22.22L577.6,801.67z"/>
<path class="st13" d="M650.14,794.14c20.64,22.92,55.76,30.87,85.2,28.49c5.67-0.46,5.72-9.36,0-8.9
	c-27.26,2.21-59.73-4.58-78.91-25.88C652.59,783.58,646.31,789.89,650.14,794.14L650.14,794.14z"/>
<path class="st12" d="M678.71,641.03c-0.05,1.21-0.07,2.27-0.03,3.19c0,0.11,0.01,0.22,0.01,0.32c0.66,10.96,1.31,33.09,0,36.38
	c-9.2,23.04-36.54,39.51-45.53,35.13s4.77-23.52,6.3-29.21c0.19-0.74,0.34-1.64,0.45-2.67c0.71-6.85-0.45-18.81-0.45-18.81
	s-20.38,11.61-37.93,0c-10.46-6.93-12.96-33.93-11.27-57.4c0.11-1.41,0.22-2.81,0.36-4.18c0.4-4.22,0.93-8.27,1.59-12.03
	c1.51-8.78,3.62-15.86,6.04-19.33c18.86-26.95,74.29-8.67,81.1,8.77c3.53,9.05,3.18,22.28,2.01,34.57
	C680.46,625.68,679.02,634.99,678.71,641.03z"/>
<path class="st19" d="M669.72,624.73c-2.8,6.73-9.02,0.48-10.55-17.86c-0.15-1.82-17.34,2.85-22.36-17.83
	c0,0-16.57,12.93-27.37-6.84c0,0-9.25,11.55-20.65,9.28c-14.75-2.93-17.87-31.31-2.78-44.01c15.93-13.41,31.5,1.67,31.5,1.67
	s14.2-8.8,30.62-3.7c17.17,5.33,20.95,22.88,20.95,22.88s13.66,1.86,22.94,14.18c9.28,12.32-8.97,58.39-13.08,58.54
	C674.83,641.2,669.72,624.73,669.72,624.73z"/>
<path class="st12" d="M669.07,626.1c1.66-3.71,5.37-10.85,14.18-10.35c8.94,0.51,13.16,9.84,11.37,17.76
	c-1.79,7.92-11.37,15.72-23.51,7.41L669.07,626.1z"/>
<polygon class="st19" points="575.09,904.65 414.6,904.65 414.6,893.29 575.09,897.91 "/>
<path class="st19" d="M486.98,843.51H282.25c-9.92,0-18.39-7.18-20.01-16.96l-24.07-144.93c-2.05-12.36,7.48-23.61,20.01-23.61
	h204.73c9.92,0,18.39,7.18,20.01,16.96l24.07,144.93C509.05,832.26,499.51,843.51,486.98,843.51z"/>
<path class="st26" d="M473.68,843.51H268.95c-9.92,0-18.39-7.18-20.01-16.96l-24.07-144.93c-2.05-12.36,7.48-23.61,20.01-23.61
	h204.73c9.92,0,18.39,7.18,20.01,16.96L493.7,819.9C495.75,832.26,486.21,843.51,473.68,843.51z"/>
<rect x="275.47" y="897.44" class="st26" width="169.03" height="7.2"/>
<polygon class="st19" points="391.17,897.44 308.75,897.44 324.15,779.29 406.57,779.29 "/>
<polygon class="st26" points="380.16,897.44 297.75,897.44 313.15,779.29 395.57,779.29 "/>
<g>
	<path class="st19" d="M314.09,760.07L314.09,760.07c-1.84,0-3.4-1.33-3.71-3.14l-5.24-31.23c-0.39-2.29,1.38-4.38,3.71-4.38l0,0
		c1.84,0,3.4,1.33,3.71,3.14l5.24,31.23C318.18,757.98,316.42,760.07,314.09,760.07z"/>
	<path class="st19" d="M326.86,760.07L326.86,760.07c-1.84,0-3.4-1.33-3.71-3.14l-5.24-31.23c-0.39-2.29,1.38-4.38,3.71-4.38l0,0
		c1.84,0,3.4,1.33,3.71,3.14l5.24,31.23C330.95,757.98,329.18,760.07,326.86,760.07z"/>
	<path class="st19" d="M339.62,760.07L339.62,760.07c-1.84,0-3.4-1.33-3.71-3.14l-5.24-31.23c-0.39-2.29,1.38-4.38,3.71-4.38l0,0
		c1.84,0,3.4,1.33,3.71,3.14l5.24,31.23C343.71,757.98,341.95,760.07,339.62,760.07z"/>
	<path class="st19" d="M352.39,760.07L352.39,760.07c-1.84,0-3.4-1.33-3.71-3.14l-5.24-31.23c-0.39-2.29,1.38-4.38,3.71-4.38l0,0
		c1.84,0,3.4,1.33,3.71,3.14l5.24,31.23C356.48,757.98,354.71,760.07,352.39,760.07z"/>
	<path class="st19" d="M365.15,760.07L365.15,760.07c-1.84,0-3.4-1.33-3.71-3.14l-5.24-31.23c-0.39-2.29,1.38-4.38,3.71-4.38l0,0
		c1.84,0,3.4,1.33,3.71,3.14l5.24,31.23C369.24,757.98,367.48,760.07,365.15,760.07z"/>
	<path class="st19" d="M377.92,760.07L377.92,760.07c-1.84,0-3.4-1.33-3.71-3.14l-5.24-31.23c-0.39-2.29,1.38-4.38,3.71-4.38l0,0
		c1.84,0,3.4,1.33,3.71,3.14l5.24,31.23C382.01,757.98,380.24,760.07,377.92,760.07z"/>
	<path class="st19" d="M390.68,760.07L390.68,760.07c-1.84,0-3.4-1.33-3.71-3.14l-5.24-31.23c-0.39-2.29,1.38-4.38,3.71-4.38l0,0
		c1.84,0,3.4,1.33,3.71,3.14l5.24,31.23C394.78,757.98,393.01,760.07,390.68,760.07z"/>
	<path class="st19" d="M403.45,760.07L403.45,760.07c-1.84,0-3.4-1.33-3.71-3.14l-5.24-31.23c-0.39-2.29,1.38-4.38,3.71-4.38l0,0
		c1.84,0,3.4,1.33,3.71,3.14l5.24,31.23C407.54,757.98,405.77,760.07,403.45,760.07z"/>
</g>
<linearGradient id="SVGID_5_" gradientUnits="userSpaceOnUse" x1="224.5937" y1="915.3794" x2="819.9675" y2="915.3794">
	<stop  offset="0" style="stop-color:#FBBB98"/>
	<stop  offset="1" style="stop-color:#F89E6E"/>
</linearGradient>
<rect x="224.59" y="904.65" class="st10" width="595.37" height="21.47"/>
<rect x="610.86" y="837.89" transform="matrix(-1 -1.224647e-16 1.224647e-16 -1 1389.7638 1709.0724)" class="st29" width="168.05" height="33.29"/>
<rect x="610.86" y="837.89" transform="matrix(-1 -1.224647e-16 1.224647e-16 -1 1358.5934 1709.0724)" class="st29" width="136.88" height="33.29"/>
<rect x="646.36" y="848.9" transform="matrix(-1 -1.224647e-16 1.224647e-16 -1 1375.6777 1709.0724)" class="st13" width="82.96" height="11.28"/>
<path class="st13" d="M621.91,854.54c0-3.65,2.96-6.61,6.61-6.61s6.61,2.96,6.61,6.61c0,3.65-2.96,6.61-6.61,6.61
	S621.91,858.19,621.91,854.54z"/>
<rect x="628.52" y="871.18" class="st29" width="168.05" height="33.29"/>
<rect x="659.69" y="871.18" class="st29" width="136.88" height="33.29"/>
<rect x="628.52" y="871.18" class="st13" width="168.05" height="33.29"/>
<rect x="678.1" y="882.19" class="st13" width="82.96" height="11.28"/>
<path class="st13" d="M785.52,887.83c0,3.65-2.96,6.61-6.61,6.61c-3.65,0-6.61-2.96-6.61-6.61c0-3.65,2.96-6.61,6.61-6.61
	C782.56,881.22,785.52,884.18,785.52,887.83z"/>
<polygon class="st19" points="659.48,453.66 657.59,456 655.7,453.66 645.58,441.17 654.37,441.17 654.37,417.27 656.56,417.27 
	658.61,417.27 660.81,417.27 660.81,441.17 669.59,441.17 "/>
<polygon class="st19" points="682.45,419.6 680.56,417.27 678.67,419.6 668.55,432.1 677.34,432.1 677.34,456 679.54,456 
	681.58,456 683.78,456 683.78,432.1 692.56,432.1 "/>
<g>
	<g>
		<path class="st19" d="M766.88,537.04h-3.1v-17.99c0-0.93-0.75-1.69-1.69-1.69h-7.44c-0.18,1.73-0.61,3.41-1.29,5.02
			c-0.89,2.1-2.16,3.99-3.78,5.6c-1.27,1.27-2.71,2.33-4.29,3.16v5.89h-3.1c-0.66,0-0.97,0.81-0.49,1.25l11.62,10.7
			c0.34,0.32,0.78,0.47,1.21,0.47s0.87-0.16,1.21-0.47l11.62-10.7C767.85,537.85,767.54,537.04,766.88,537.04z"/>
		<path class="st19" d="M743.95,530.32c0.23-0.1,0.45-0.21,0.67-0.33c0.23-0.12,0.45-0.24,0.67-0.37c4.35-2.53,7.42-7.02,8.01-12.26
			c0.02-0.22,0.05-0.44,0.06-0.67c0.02-0.22,0.03-0.44,0.03-0.67c0.01-0.17,0.01-0.34,0.01-0.5c0-9-7.3-16.3-16.3-16.3
			c-9,0-16.3,7.3-16.3,16.3c0,9,7.3,16.3,16.3,16.3C739.55,531.82,741.87,531.28,743.95,530.32z M730.74,523.69v-16.34
			c0-0.84,0.91-1.36,1.64-0.95l14.17,8.17c0.54,0.31,0.68,0.96,0.42,1.45c-0.09,0.18-0.23,0.33-0.42,0.44l-2.36,1.36l-11.81,6.81
			C731.65,525.06,730.74,524.53,730.74,523.69z"/>
	</g>
</g>
<g>
	<g id="file-download_1_">
		<path class="st19" d="M309.13,463.77h-9.87v-14.8h-14.8v14.8h-9.87l17.27,17.27L309.13,463.77z M274.58,485.97v4.93h34.54v-4.93
			H274.58z"/>
	</g>
</g>
</svg>
