<?xml version="1.0" encoding="utf-8"?>
<!-- Generator: Adobe Illustrator 25.0.0, SVG Export Plug-In . SVG Version: 6.00 Build 0)  -->
<svg version="1.1" id="Layer_1" xmlns="http://www.w3.org/2000/svg" xmlns:xlink="http://www.w3.org/1999/xlink" x="0px" y="0px"
	 viewBox="0 0 1000 1000" style="enable-background:new 0 0 1000 1000;" xml:space="preserve">
<style type="text/css">
	.st0{opacity:0.576;fill:#C8E5F8;enable-background:new    ;}
	.st1{fill:url(#Path_5768_3_);}
	.st2{fill:url(#SVGID_1_);}
	.st3{fill:url(#Path_5768_4_);}
	.st4{fill:#98C6DB;}
	.st5{opacity:0.25;}
	.st6{fill:#010101;}
	.st7{fill:url(#SVGID_2_);}
	.st8{fill:url(#SVGID_3_);}
	.st9{fill:url(#SVGID_4_);}
	.st10{fill:url(#SVGID_5_);}
	.st11{fill:#1D262D;}
	.st12{fill:#FFE7CB;}
	.st13{opacity:0.25;fill:#010101;}
	.st14{fill:#0C0C0C;}
	.st15{fill:#141416;}
	.st16{fill:#324757;}
	.st17{fill:#0D2033;}
	.st18{fill:#358DCC;}
	.st19{fill:#1572BA;}
	.st20{fill:#112C46;}
	.st21{fill:url(#SVGID_6_);}
	.st22{fill:url(#SVGID_7_);}
	.st23{fill:url(#Path_5404_1_);}
	.st24{fill:none;stroke:#7D4848;stroke-miterlimit:10;}
	.st25{fill:#32A3D1;}
	.st26{fill:#035C9F;}
	.st27{fill:#287EC2;}
	.st28{fill:#FBBB98;}
	.st29{fill:#5BC6CF;}
	.st30{fill:#FFFFFF;}
	.st31{fill:#5AAADE;}
	.st32{fill:none;}
	.st33{fill:none;stroke:#358DCC;stroke-width:0.3657;}
	.st34{fill:none;stroke:#358DCC;stroke-width:1.4629;stroke-linecap:round;stroke-miterlimit:10;}
	.st35{fill:url(#Ellipse_1369_2_);}
	.st36{fill:#104879;}
	.st37{opacity:0.573;fill:#035C9F;enable-background:new    ;}
	.st38{opacity:0.5;}
	.st39{fill:#1F374C;}
	.st40{fill:#133E67;}
	.st41{fill:none;stroke:#1F374C;stroke-width:1.4629;stroke-linecap:round;stroke-miterlimit:10;}
	.st42{fill:#156FB0;}
	.st43{fill:none;stroke:#FBBB98;stroke-width:0.7315;}
	.st44{fill:#8AC6EC;}
	.st45{fill:none;stroke:#5BC6CF;stroke-width:0.7315;}
	.st46{fill:#D7EDFB;}
	.st47{opacity:0.33;fill:#287EC2;}
	.st48{fill:#99CCEE;}
	.st49{fill:none;stroke:#99CCEE;}
	.st50{fill:#174672;}
	.st51{fill:none;stroke:#717171;}
	.st52{fill:none;stroke:#287EC2;stroke-width:4;}
	.st53{fill:none;stroke:#5BC6CF;stroke-width:4;}
	.st54{fill:#1D8AB6;}
	.st55{fill:#F1D2B7;}
	.st56{fill:url(#Path_5436_1_);}
	.st57{fill:#E1CCE3;}
	.st58{fill:url(#Ellipse_1094_1_);}
	.st59{fill:#F9A576;}
	.st60{fill:#FFFFFF;stroke:#2E3192;stroke-width:0.25;stroke-miterlimit:10;}
	.st61{fill:#287EC2;stroke:#2E3192;stroke-miterlimit:10;}
	.st62{fill:#FFFFFF;stroke:#2E3192;stroke-miterlimit:10;}
	.st63{fill:#174672;stroke:#2E3192;stroke-miterlimit:10;}
	.st64{opacity:0.79;}
	.st65{fill:none;stroke:#5BC6CF;stroke-width:3;}
	.st66{opacity:0.83;}
	.st67{fill:#035C9F;stroke:#035C9F;stroke-linecap:round;stroke-linejoin:round;}
	.st68{fill:#035C9F;stroke:#035C9F;}
	.st69{fill:none;stroke:#FBBB98;stroke-width:0.8965;}
	.st70{fill:none;stroke:#5BC6CF;stroke-width:0.8965;}
	.st71{fill:#C3D4EE;}
	.st72{opacity:0.5;fill:#43548B;}
	.st73{fill:#F2F2F3;}
	.st74{fill:#F69B6C;}
	.st75{fill:#43548B;}
	.st76{fill:#F8A47B;}
	.st77{fill:url(#SVGID_8_);}
	.st78{fill:url(#SVGID_9_);}
	.st79{fill:url(#SVGID_10_);}
	.st80{fill:#7E9DD1;}
	.st81{fill:url(#SVGID_11_);}
	.st82{fill:url(#SVGID_12_);}
	.st83{opacity:0.2;fill:#39B5E8;}
	.st84{fill:#FAFBFB;}
	.st85{opacity:0.2;}
	.st86{fill:#39B5E8;}
	.st87{fill:#1F3F7A;}
	.st88{fill:#1C54A5;}
	.st89{opacity:0.2;fill:#125267;stroke:#010101;stroke-width:0.8711;stroke-miterlimit:10;}
	.st90{fill:#385A65;}
	.st91{fill:#263238;}
	.st92{fill:#F0D3B9;}
	.st93{fill:#E7515B;}
	.st94{fill:url(#SVGID_13_);}
	.st95{fill:url(#SVGID_14_);}
	.st96{fill:#E1E1E1;}
	.st97{fill:url(#SVGID_15_);}
	.st98{fill:#E6E6E5;}
	.st99{fill:url(#SVGID_16_);}
	.st100{opacity:0.53;fill:#FFFFFF;}
	.st101{fill:url(#SVGID_17_);}
	.st102{fill:url(#SVGID_18_);}
	.st103{fill:url(#SVGID_19_);}
	.st104{fill:#05B9A9;}
	.st105{fill:#31286A;}
	.st106{fill:url(#SVGID_20_);}
	.st107{fill:#45BEA5;}
	.st108{fill:url(#SVGID_21_);}
	.st109{fill:#270D3B;}
	.st110{fill:#D5E4EA;}
	.st111{fill:url(#SVGID_22_);}
	.st112{fill:url(#SVGID_23_);}
	.st113{fill:url(#SVGID_24_);}
	.st114{fill:#FBB888;}
	.st115{fill:url(#SVGID_25_);}
	.st116{fill:url(#SVGID_26_);}
	.st117{fill:#FDD1B6;}
	.st118{fill:url(#SVGID_27_);}
	.st119{fill:url(#SVGID_28_);}
	.st120{fill:#162735;}
	.st121{fill:url(#SVGID_29_);}
	.st122{fill:#B7BABD;}
	.st123{fill:#101334;}
	.st124{fill:url(#SVGID_30_);}
	.st125{fill:url(#SVGID_31_);}
	.st126{fill:url(#SVGID_32_);}
	.st127{fill:url(#SVGID_33_);}
	.st128{fill:#29AAE1;}
	.st129{fill:#297FC3;}
	.st130{fill:#358DCC;stroke:#035C9F;stroke-width:7;stroke-miterlimit:10;}
	.st131{fill:#035C9F;stroke:#358DCC;stroke-width:3;stroke-miterlimit:10;}
	.st132{fill:#EEAC21;}
	.st133{fill:#FBD900;}
	.st134{fill:#DB9A28;}
	.st135{fill:#EEAA1F;}
	.st136{fill:#E8E4EE;}
	.st137{fill:url(#SVGID_34_);}
	.st138{fill:url(#SVGID_35_);}
	.st139{fill:url(#SVGID_36_);}
	.st140{fill:url(#SVGID_37_);}
	.st141{fill:url(#SVGID_38_);}
	.st142{fill:url(#SVGID_39_);}
	.st143{fill:url(#SVGID_40_);}
	.st144{fill:url(#SVGID_41_);}
	.st145{fill:url(#SVGID_42_);}
	.st146{fill:url(#SVGID_43_);}
	.st147{fill:url(#Path_5768_5_);}
	.st148{fill:url(#Ellipse_1278_1_);}
	.st149{opacity:0.435;fill:#C8E5F8;enable-background:new    ;}
	.st150{fill:url(#Ellipse_1174_1_);}
	.st151{fill:none;stroke:#FFFFFF;stroke-width:2;}
	.st152{opacity:0.966;fill:url(#Ellipse_1174_2_2_1_);enable-background:new    ;}
	.st153{opacity:0.966;fill:url(#Ellipse_1174_2_3_1_);enable-background:new    ;}
	.st154{fill:#4296D2;}
	.st155{fill:#2C1B4C;}
	.st156{fill:none;stroke:#358DCC;stroke-width:2;}
	.st157{fill-rule:evenodd;clip-rule:evenodd;fill:#C8E5F8;}
	.st158{fill:#97A7D5;}
	.st159{fill:#4598D3;}
	.st160{fill:#EDD7C1;}
	.st161{fill:#211128;}
	.st162{fill:url(#SVGID_44_);}
	.st163{fill:url(#SVGID_45_);}
	.st164{opacity:0.64;fill:url(#SVGID_46_);}
	.st165{fill:url(#SVGID_47_);}
	.st166{fill:#2272B9;}
	.st167{fill-rule:evenodd;clip-rule:evenodd;fill:#FFE7CB;}
	.st168{fill:url(#SVGID_48_);}
	.st169{fill:url(#SVGID_49_);}
	.st170{fill:url(#SVGID_50_);}
	.st171{fill:url(#SVGID_51_);}
	.st172{fill:url(#SVGID_52_);}
	.st173{fill:url(#SVGID_53_);}
	.st174{fill:#6EACCE;}
	.st175{fill:#E0EDF6;}
	.st176{fill:#262D66;}
	.st177{fill:url(#SVGID_54_);}
	.st178{fill:url(#SVGID_55_);}
	.st179{fill:url(#SVGID_56_);}
	.st180{fill:#FFFFFF;stroke:#FFFFFF;stroke-miterlimit:10;}
	.st181{fill:url(#SVGID_57_);}
	.st182{fill:none;stroke:#5AAADE;stroke-width:0.5;stroke-linecap:round;stroke-linejoin:round;stroke-miterlimit:10;}
	.st183{opacity:0.3;fill:none;stroke:#FFFFFF;enable-background:new    ;}
	.st184{fill:url(#Path_5783_1_);}
	.st185{fill:none;stroke:#FFFFFF;stroke-miterlimit:10;}
	.st186{fill:url(#Path_5785-2_1_);}
	.st187{fill:url(#Path_5786-2_1_);}
	.st188{opacity:0.23;fill:none;stroke:#FFFFFF;enable-background:new    ;}
</style>
<g id="Group_984_1_" transform="translate(-671 -407.727)">
	<g id="Group_983_1_" transform="translate(701 427.727)">
		<g id="Group_3_1_" transform="translate(0 0)">
			<g transform="matrix(1, 0, 0, 1, -30, -20)">
				<g id="Path_5-2_1_" transform="translate(30 20)">
					<path class="st30" d="M639.65,801.57c-5.4-0.92-10.49-2.89-15.06-5.77c-4.45-2.85-8.16-6.45-11.27-10.68
						c-3.11-4.23-5.25-9.04-6.36-14.16c-1.2-5.26-1.39-10.73-0.47-16.12c0.92-5.4,2.89-10.49,5.77-15.06
						c2.85-4.45,6.45-8.16,10.68-11.27c4.23-3.11,9.04-5.25,14.16-6.36c5.26-1.2,10.73-1.39,16.12-0.47
						c5.4,0.92,10.49,2.89,15.06,5.77c4.45,2.85,8.16,6.45,11.27,10.68c3.11,4.23,5.25,9.04,6.36,14.16
						c1.2,5.26,1.39,10.73,0.47,16.12c-0.92,5.4-2.89,10.49-5.77,15.06c-2.85,4.45-6.45,8.16-10.68,11.27
						c-4.23,3.11-9.04,5.25-14.16,6.36C650.51,802.3,645.05,802.49,639.65,801.57z"/>
					<path class="st30" d="M639.85,800.37c5.28,0.9,10.5,0.67,15.62-0.43c5-1.12,9.57-3.31,13.76-6.18
						c4.21-2.99,7.66-6.6,10.38-10.95c2.85-4.45,4.67-9.33,5.57-14.6c0.9-5.28,0.67-10.5-0.43-15.62c-1.12-5-3.31-9.57-6.18-13.76
						c-2.99-4.21-6.6-7.66-10.95-10.38c-4.45-2.85-9.33-4.67-14.6-5.57c-5.28-0.9-10.5-0.67-15.62,0.43
						c-5,1.12-9.57,3.31-13.76,6.18c-4.21,2.99-7.66,6.6-10.38,10.95c-2.85,4.45-4.67,9.33-5.57,14.6
						c-0.9,5.28-0.67,10.5,0.43,15.62c1.12,5,3.31,9.57,6.18,13.76c2.99,4.21,6.6,7.66,10.95,10.38
						C629.72,797.54,634.69,799.49,639.85,800.37 M639.45,802.77c-22.79-3.87-38-25.46-34.15-48.13s25.48-38.12,48.15-34.27
						s38.12,25.48,34.27,48.15S662.24,806.64,639.45,802.77z"/>
				</g>
			</g>
			<g id="Ellipse_2_1_" transform="translate(5.026 5.026)">
				<ellipse class="st30" cx="641.46" cy="756.52" rx="35.65" ry="35.65"/>
				<ellipse class="st156" cx="641.46" cy="756.52" rx="36.87" ry="36.87"/>
			</g>
			<g id="Group_1_1_" transform="translate(25.992 41.01) rotate(-2)">
				<g id="Group_2_1_" transform="matrix(0.999, -0.035, 0.035, 0.999, 0, 0.663)">
					<path id="Rectangle_1_1_" class="st18" d="M564.72,771.18l2.49,3.51c0.8,1.12,0.55,2.56-0.57,3.36l-3.51,2.49
						c-1.12,0.8-2.56,0.55-3.36-0.57l-2.49-3.51c-0.8-1.12-0.55-2.56,0.57-3.36l3.51-2.49
						C562.49,769.81,563.93,770.06,564.72,771.18z"/>
					<path id="Rectangle_2_1_" class="st18" d="M574.68,772.87l2.49,3.51c0.8,1.12,0.55,2.56-0.57,3.36l-3.51,2.49
						c-1.12,0.8-2.56,0.55-3.36-0.57l-2.49-3.51c-0.8-1.12-0.55-2.56,0.57-3.36l3.51-2.49C572.44,771.5,573.88,771.75,574.68,772.87
						z"/>
					<path id="Rectangle_3_1_" class="st18" d="M567.93,782.83l2.19,3.09c0.8,1.12,0.55,2.56-0.57,3.36l-3.09,2.19
						c-1.12,0.8-2.56,0.55-3.36-0.57l-2.19-3.09c-0.8-1.12-0.55-2.56,0.57-3.36l3.09-2.19
						C565.57,781.44,567.13,781.71,567.93,782.83z"/>
				</g>
			</g>
		</g>
	</g>
	<path id="Path_4582_1_" class="st18" d="M1383.26,1184.05c-11.92,6.24-28.38,10.11-42.71,8.05c-1.32-0.22-6.2-1.3-8.93-3.37
		c-5.89-4.58-4.5-12-4.04-14.01c1.4-6.8,5.73-14.82,10.15-21.23c0.66-0.26,1.44-0.5,2.22-0.73c-2.47,4.39-4.37,9.01-5.68,13.84
		c-1.97,7.93,2.97,15.93,18.81,15.66c9.88-0.05,19.71-1.96,28.94-5.45C1382.62,1179.13,1383.07,1181.55,1383.26,1184.05z"/>
</g>
<path class="st157" d="M773.05,650.38h25.31h2.5c52.98,0,96.33,45.65,96.33,101.45l0,0c0,55.8-43.35,101.45-96.33,101.45h-84.15
	h-48.43H267.15c-85.8,0-155.99-73.93-155.99-164.27v0c0-90.35,70.19-164.27,155.99-164.27l0,0c36.28,0,65.95-31.26,65.95-69.46l0,0
	c0-38.2-29.68-69.46-65.95-69.46h-15.42c-37.72,0-68.58-32.5-68.58-72.21v0c0-39.72,30.86-72.21,68.58-72.21h6.3h259.22
	c36.83,1.06,42.55,12.6,49.57,34.52c7.36,23.02,86.35,16.48,86.35,102.06c0,54.2,101.78,55.5,101.78,55.5h24.1
	c28.88,0,52.5,24.88,52.5,55.28l0,0c0,30.41-23.62,55.28-52.5,55.28h-6.01c-27.77,0-50.49,23.93-50.49,53.17l0,0
	C722.56,626.45,745.29,650.38,773.05,650.38z"/>
<g>
	<path class="st158" d="M643.14,420.1c0,0,0.78,5.58-5.73,5.45c0,0,5.6,0.06,5.45,5.29c0,0,0.5-4.12,5.64-5.04
		C648.49,425.81,644.15,426.8,643.14,420.1z"/>
</g>
<g>
	<path class="st159" d="M566.12,827.84L566.12,827.84c-15.66,4.43-31.95-4.67-36.38-20.33l-23.38-82.63
		c-4.43-15.66,4.67-31.95,20.33-36.38v0c15.66-4.43,31.95,4.67,36.38,20.33l23.38,82.63C590.88,807.12,581.78,823.41,566.12,827.84z
		"/>
	<path class="st159" d="M532.75,827.14L532.75,827.14c-11.62-11.4-11.8-30.05-0.4-41.67l60.13-61.31
		c11.4-11.62,30.05-11.8,41.67-0.4l0,0c11.62,11.4,11.8,30.05,0.4,41.67l-60.13,61.31C563.02,838.36,544.37,838.54,532.75,827.14z"
		/>
</g>
<g>
	<path class="st12" d="M507.6,659.74l-20.56-0.81c-3.82-0.15-6.8-3.37-6.65-7.19l2.3-58.52l34.4,1.35l-2.3,58.52
		C514.64,656.91,511.42,659.89,507.6,659.74z"/>
	<path class="st160" d="M517.17,592.65l-34.48-1.3l-0.53,13.51c-0.52,13.24,10.26,24.86,23.47,23.9c0.82-0.06,1.65-0.16,2.47-0.31
		c2.76-0.49,5.41-1.52,7.77-2.87L517.17,592.65z"/>
</g>
<ellipse transform="matrix(0.9859 -0.1675 0.1675 0.9859 -87.0319 93.6648)" class="st19" cx="511.8" cy="562.83" rx="29" ry="30.32"/>
<path class="st12" d="M535.55,579.95c1.38,5,2.18,10.18,1.68,15.34c-1.42,14.73-11.54,25.19-22.39,28.3l0,0
	c-15.63,2.79-31.05-10.33-34.44-29.31l-2.67-14.93c-3.39-18.98,6.54-36.62,22.17-39.41l0,0c15.64-2.79,36.02,8.23,34.06,27.4
	C533.33,573.53,534.46,575.99,535.55,579.95z"/>
<path id="Path_5090_5_" class="st19" d="M491.31,557.46c45.41,4.74,47.15-22.78,23.41-34.05c-14.86-6.27-27.76-5.84-38.91-0.89
	c7.05,8.92,11.7,18.05,1.81,18.24c-18.66,2.95-23.62,17.28-18.93,39.15c6.61,39.59,33.07,28.17,29.63,12.68
	c-19.63-6.71-4.96-28.23,0.17-10.93C500.51,584.04,499.16,573.85,491.31,557.46z"/>
<g>
	<g>
		<g>
			<g>
				<path class="st161" d="M510.68,611.38L510.68,611.38l-9.25-0.01c-3.73,0-7.31-1.38-10.08-3.88l-5.79-5.22
					c-0.46-0.42-0.5-1.13-0.08-1.58c0.41-0.46,1.12-0.5,1.59-0.08l5.79,5.22c2.36,2.13,5.4,3.3,8.58,3.3l9.25,0.01
					c0.62,0,1.12,0.5,1.12,1.12C511.8,610.88,511.3,611.38,510.68,611.38z"/>
			</g>
			<g>
				<linearGradient id="SVGID_1_" gradientUnits="userSpaceOnUse" x1="504.6862" y1="610.2505" x2="512.9258" y2="610.2505">
					<stop  offset="0" style="stop-color:#FBBB98"/>
					<stop  offset="1" style="stop-color:#F89E6E"/>
				</linearGradient>
				<path class="st2" d="M510.68,612.5L510.68,612.5l-3.75,0c-1.24,0-2.25-1.01-2.24-2.25c0-1.24,1.01-2.24,2.25-2.24h0l3.75,0
					c1.24,0,2.25,1.01,2.24,2.25C512.92,611.49,511.92,612.5,510.68,612.5z"/>
			</g>
		</g>
		<g>
			<linearGradient id="SVGID_2_" gradientUnits="userSpaceOnUse" x1="461.755" y1="590.6247" x2="499.3621" y2="590.6247">
				<stop  offset="0" style="stop-color:#FBBB98"/>
				<stop  offset="1" style="stop-color:#F89E6E"/>
			</linearGradient>
			<circle class="st7" cx="480.56" cy="590.62" r="18.8"/>
			<linearGradient id="SVGID_3_" gradientUnits="userSpaceOnUse" x1="463.1308" y1="590.5165" x2="492.4873" y2="590.5165">
				<stop  offset="0" style="stop-color:#E98B47"/>
				<stop  offset="1" style="stop-color:#F9AA77"/>
			</linearGradient>
			<path style="opacity:0.64;fill:url(#SVGID_3_);" d="M492.47,591.09c-0.35,8.86-7.2,15.78-15.3,15.46
				c-8.1-0.32-14.38-7.76-14.03-16.62c0.35-8.86,7.2-15.78,15.3-15.46C486.54,574.8,492.82,582.24,492.47,591.09z"/>
			<linearGradient id="SVGID_4_" gradientUnits="userSpaceOnUse" x1="470.0121" y1="590.4085" x2="480.1069" y2="590.4085">
				<stop  offset="0" style="stop-color:#E98B47"/>
				<stop  offset="1" style="stop-color:#F9AA77"/>
			</linearGradient>
			<path class="st9" d="M480.1,590.61c-0.14,3.59-2.51,6.41-5.3,6.3c-2.78-0.11-4.93-3.11-4.79-6.7c0.14-3.59,2.51-6.41,5.3-6.3
				C478.1,584.02,480.24,587.02,480.1,590.61z"/>
		</g>
	</g>
</g>
<g>
	<path class="st159" d="M525.99,853.13l-89.94,2.53c-14.99-0.59-26.67-13.22-26.08-28.22l5.68-150.52
		c0.31-7.87,5.51-14.7,13.02-17.09l67.05-21.35l53.6,25.69c6.73,3.23,10.9,10.15,10.61,17.6l-5.71,145.27
		C553.62,842.05,540.98,853.72,525.99,853.13z"/>
	<path class="st166" d="M559.92,681.78c0.31,15.7,0.13,31.37-0.13,47.05c-0.21,15.67-0.76,31.34-1.32,47
		c-0.67,15.66-1.34,31.31-2.36,46.96c-0.23,3.8-0.42,8.09-1.86,11.98c-1.36,3.89-3.53,7.49-6.41,10.38
		c-5.77,5.75-13.99,8.86-21.84,8c7.86-0.17,15.38-3.69,20.22-9.49c2.49-2.82,4.3-6.19,5.33-9.76c1.1-3.58,1.07-7.24,1.11-11.24
		c0.21-15.67,0.77-31.34,1.33-47c0.67-15.65,1.35-31.31,2.37-46.96C557.33,713.05,558.38,697.4,559.92,681.78z"/>
	<path class="st159" d="M520.33,666.96l-48.54-3.13l2.04-31.57c0.13-2.09,1.94-3.67,4.02-3.53l40.99,2.64
		c2.09,0.13,3.67,1.94,3.53,4.02L520.33,666.96z"/>
</g>
<path class="st167" d="M612.1,701.4c1.21-5.91-1.73-14.85-2.44-16.66c-0.62-1.57,3.41-2.79,6.15-0.72
	c2.72,2.06,3.34,12.99,7.98,12.37c1.95-0.27,13.62-21.63,14.97-24.16c1.35-2.53,4.49-1.47,5-0.39c0.51,1.08-1.49,4.72-3.71,9.49
	c-2.22,4.77-4.66,10.17-4.44,10.83c0.21,0.65,1.33,1.11,3.57-1.03c2.24-2.14,14.11-14.42,15.71-14.61c1.61-0.19,3.46,2.13,2.23,4.51
	c-1.23,2.38-13.69,14.31-14.8,16.35c-1.11,2.04,1.05,2.8,2.47,2.04c1.43-0.77,16.76-11.8,18.25-12.04c1.49-0.24,3.31,2.21,1.39,4.34
	c-1.91,2.13-16.14,13.3-16.59,14.55c-0.44,1.25,0.78,2.84,4.27,2.04c3.49-0.8,10.51-3.28,11.54-2.92c1.02,0.36,1.08,3.97-2.33,5.44
	c-3.41,1.47-11.72,5.41-12.88,6.15c-6.12,3.9-10.58,9.12-15.77,11.51c-1.88,0.86-4.02,1.22-6.22,1.15
	c-5.21-0.17-10.78-2.76-14.18-6.9C606.38,715.54,610.42,709.52,612.1,701.4z"/>
<g>
	<g>
		<path class="st159" d="M395.6,793.47L395.6,793.47c-15.03-6.24-22.15-23.49-15.91-38.52l32.94-79.31
			c6.24-15.03,23.49-22.15,38.52-15.91h0c15.03,6.24,22.15,23.49,15.91,38.52l-32.94,79.31
			C427.87,792.59,410.63,799.72,395.6,793.47z"/>
		<path class="st166" d="M451.14,659.74c5.26,1.7,10.06,5.08,13.61,9.56c3.48,4.52,5.71,10.11,6.2,15.92
			c0.78,5.77-1.08,11.92-3.2,16.88l-6.22,15.3c-4.27,10.15-8.55,20.3-13.15,30.31l-6.91,15.02c-2.46,4.94-4.77,9.94-7.35,14.83
			c1.64-5.28,3.55-10.45,5.32-15.68l5.76-15.5c3.85-10.33,8.02-20.52,12.19-30.71l6.45-15.21c1.1-2.6,2.24-4.89,2.79-7.4
			c0.61-2.49,0.97-5.07,0.89-7.66C467.38,675,461.01,664.77,451.14,659.74z"/>
	</g>
	<g>
		<g>
			<g>
				<linearGradient id="SVGID_5_" gradientUnits="userSpaceOnUse" x1="508.179" y1="737.8317" x2="534.5004" y2="737.8317">
					<stop  offset="0" style="stop-color:#FBBB98"/>
					<stop  offset="1" style="stop-color:#F89E6E"/>
				</linearGradient>
				<path class="st10" d="M532.75,751.91l-15.01-0.97c-5.63-0.36-9.91-5.24-9.54-10.86l0.44-6.77c0.36-5.62,5.23-9.91,10.86-9.54
					l15.01,0.97L532.75,751.91z M519.06,730.5c-1.92-0.12-3.58,1.34-3.7,3.25l-0.44,6.77c-0.12,1.92,1.34,3.58,3.25,3.7l8.28,0.53
					l0.89-13.72L519.06,730.5z"/>
			</g>
			<g>
				<linearGradient id="SVGID_6_" gradientUnits="userSpaceOnUse" x1="520.9823" y1="743.4174" x2="565.2236" y2="743.4174">
					<stop  offset="0" style="stop-color:#FBBB98"/>
					<stop  offset="1" style="stop-color:#F89E6E"/>
				</linearGradient>
				<path class="st21" d="M547.34,773.49l-12.98-0.84c-7.88-0.51-13.86-7.31-13.35-15.19l2.69-41.72c0.3-4.66,41.82-1.98,41.52,2.68
					l-2.69,41.72C562.02,768.02,555.22,774,547.34,773.49z"/>
				<linearGradient id="SVGID_7_" gradientUnits="userSpaceOnUse" x1="527.0433" y1="718.4509" x2="561.0872" y2="718.4509">
					<stop  offset="0" style="stop-color:#E98B47"/>
					<stop  offset="1" style="stop-color:#F9AA77"/>
				</linearGradient>
				<path class="st22" d="M561.09,719.55c-0.11,1.68-7.82,2.54-17.22,1.94c-9.4-0.61-16.93-2.46-16.83-4.13
					c0.11-1.68,7.82-2.54,17.22-1.94C553.66,716.02,561.19,717.87,561.09,719.55z"/>
			</g>
		</g>
		<path class="st159" d="M379.21,771.55L379.21,771.55c0.24-13.13,13-23.61,28.5-23.4l81.75,1.09
			c15.49,0.21,27.85,11.02,27.61,24.15l0,0c-0.24,13.13-13,23.61-28.5,23.4l-81.75-1.09C391.33,795.5,378.97,784.68,379.21,771.55z"
			/>
		<path class="st166" d="M407.71,748.15c10.5-0.61,20.99-0.82,31.48-0.97c10.49-0.19,20.97-0.1,31.46,0l15.72,0.31
			c3.67,0.02,7.82,0.33,11.62,1.39c2.8,0.78,5.3,2.45,7.01,4.81c1.93,2.65-1.21,0.7-4.15-0.65c-2.24-0.89-4.62-1.45-7.03-1.8
			c-2.4-0.4-4.83-0.29-7.52-0.31l-15.73-0.11c-10.48-0.19-20.97-0.37-31.44-0.84C428.65,749.53,418.18,749.04,407.71,748.15z"/>
	</g>
</g>
<g>
	<g>
		<g>
			<linearGradient id="SVGID_8_" gradientUnits="userSpaceOnUse" x1="770.1728" y1="696.5917" x2="801.2675" y2="696.5917">
				<stop  offset="0" style="stop-color:#E98B47"/>
				<stop  offset="1" style="stop-color:#F9AA77"/>
			</linearGradient>
			<path class="st77" d="M772.87,712.14c-0.69,0-1.38-0.26-1.9-0.79c-1.05-1.05-1.05-2.75,0-3.81l25.71-25.71
				c1.04-1.05,2.75-1.05,3.81,0c1.05,1.05,1.05,2.75,0,3.81l-25.71,25.71C774.25,711.88,773.55,712.14,772.87,712.14z"/>
		</g>
		<g>
			<g>
				<linearGradient id="SVGID_9_" gradientUnits="userSpaceOnUse" x1="751.865" y1="675.4907" x2="757.25" y2="675.4907">
					<stop  offset="0" style="stop-color:#E98B47"/>
					<stop  offset="1" style="stop-color:#F9AA77"/>
				</linearGradient>
				<path class="st78" d="M754.56,696.36c-1.49,0-2.69-1.21-2.69-2.69v-36.36c0-1.49,1.21-2.69,2.69-2.69s2.69,1.21,2.69,2.69v36.36
					C757.25,695.16,756.04,696.36,754.56,696.36z"/>
			</g>
			<g>
				<linearGradient id="SVGID_10_" gradientUnits="userSpaceOnUse" x1="785.9459" y1="727.7565" x2="827.6965" y2="727.7565">
					<stop  offset="0" style="stop-color:#E98B47"/>
					<stop  offset="1" style="stop-color:#F9AA77"/>
				</linearGradient>
				<path class="st79" d="M825,730.45h-36.37c-1.49,0-2.69-1.21-2.69-2.69c0-1.49,1.21-2.69,2.69-2.69H825
					c1.49,0,2.69,1.21,2.69,2.69C827.7,729.24,826.49,730.45,825,730.45z"/>
			</g>
		</g>
	</g>
	<g>
		<g>
			<path class="st174" d="M502.04,843.55h222.48c6.2,0,8.12-5.03,8.12-11.24l0,0H490.8l0,0
				C490.8,838.53,495.83,843.55,502.04,843.55z"/>
			<path class="st174" d="M489.13,832.32H568c0,6.21-5.71,11.24-12.76,11.24h-51.68c-0.07,0-14.68,0-14.75,0
				C481.53,843.45,481.86,832.32,489.13,832.32z"/>
			<g>
				<path class="st175" d="M572.92,835.59h159.72c4.74,0,8.82-3.38,9.7-8.03l21.53-92.38c1.16-6.08-3.51-11.72-9.7-11.72H594.45
					c-4.75,0-8.82,3.38-9.71,8.04l-21.53,92.37C562.06,829.95,566.73,835.59,572.92,835.59z"/>
				<path class="st174" d="M584.74,731.49c0.48-2.56,1.94-4.73,3.94-6.17c2.99,2.16,4.7,5.9,3.94,9.86l-21.52,92.38
					c-0.49,2.56-1.94,4.73-3.93,6.17c-2.98-2.15-4.7-5.9-3.95-9.85L584.74,731.49z"/>
				<g>
					<path class="st30" d="M685.19,791.31H659c-5.37,0-9.73-4.36-9.73-9.73l0,0c0-5.37,4.36-9.73,9.73-9.73h26.19
						c5.37,0,9.73,4.36,9.73,9.73l0,0C694.92,786.95,690.57,791.31,685.19,791.31z"/>
				</g>
			</g>
		</g>
		<g>
			<path class="st174" d="M512.95,835.41h-7.86c-1.55,0-2.81-1.26-2.81-2.81l0,0c0-1.55,1.26-2.81,2.81-2.81h7.86
				c1.55,0,2.81,1.26,2.81,2.81l0,0C515.75,834.16,514.5,835.41,512.95,835.41z"/>
			<path class="st174" d="M528.29,835.41h-7.86c-1.55,0-2.81-1.26-2.81-2.81l0,0c0-1.55,1.26-2.81,2.81-2.81h7.86
				c1.55,0,2.81,1.26,2.81,2.81l0,0C531.09,834.16,529.84,835.41,528.29,835.41z"/>
			<path class="st174" d="M543.63,835.41h-7.86c-1.55,0-2.81-1.26-2.81-2.81l0,0c0-1.55,1.26-2.81,2.81-2.81h7.86
				c1.55,0,2.81,1.26,2.81,2.81l0,0C546.44,834.16,545.18,835.41,543.63,835.41z"/>
			<path class="st174" d="M558.97,835.41h-7.86c-1.55,0-2.81-1.26-2.81-2.81l0,0c0-1.55,1.26-2.81,2.81-2.81h7.86
				c1.55,0,2.81,1.26,2.81,2.81l0,0C561.78,834.16,560.52,835.41,558.97,835.41z"/>
		</g>
	</g>
</g>
<path class="st176" d="M851.71,856.42H179.66c-3.72,0-6.74-3.02-6.74-6.74l0,0c0-3.72,3.02-6.74,6.74-6.74h672.05
	c3.72,0,6.74,3.02,6.74,6.74l0,0C858.45,853.4,855.43,856.42,851.71,856.42z"/>
<g>
	<g>
		<polygon class="st50" points="384.46,466.29 402.08,485.19 536.41,429.16 		"/>
		<polygon class="st31" points="390.72,403.92 377.46,423.94 386.43,443.55 366.3,446.97 348.52,486.02 540.72,427.86 		"/>
		<polygon class="st19" points="386.43,443.55 377.46,423.94 481.56,428.81 		"/>
	</g>
	<g>
		<linearGradient id="SVGID_11_" gradientUnits="userSpaceOnUse" x1="203.9654" y1="555.953" x2="396.2409" y2="555.953">
			<stop  offset="0" style="stop-color:#E98B47"/>
			<stop  offset="1" style="stop-color:#F9AA77"/>
		</linearGradient>
		<path class="st81" d="M376.31,637.53c-1.48,0-2.96-0.01-4.44-0.03c-1.49-0.02-2.68-1.24-2.66-2.72c0.02-1.49,1.3-2.84,2.72-2.66
			c6.98,0.08,13.9-0.03,21.5-0.35c0.04,0,0.08,0,0.11,0c1.44,0,2.63,1.13,2.69,2.58c0.06,1.49-1.09,2.75-2.58,2.81
			C387.57,637.41,381.89,637.53,376.31,637.53z M350.28,636.47c-0.08,0-0.16,0-0.24-0.01c-7.42-0.64-14.72-1.59-21.7-2.83
			c-1.46-0.26-2.44-1.66-2.18-3.13c0.26-1.46,1.67-2.39,3.13-2.18c6.81,1.21,13.95,2.14,21.22,2.77c1.48,0.13,2.58,1.43,2.45,2.92
			C352.84,635.42,351.66,636.47,350.28,636.47z M307.77,628.7c-0.26,0-0.53-0.04-0.79-0.12c-7.09-2.17-14-4.82-20.54-7.89
			c-1.35-0.63-1.93-2.24-1.29-3.58c0.63-1.35,2.25-1.93,3.58-1.29c6.31,2.96,12.98,5.52,19.83,7.62c1.42,0.43,2.22,1.94,1.78,3.36
			C309.99,627.95,308.92,628.7,307.77,628.7z M268.75,610.32c-0.51,0-1.03-0.14-1.49-0.45c-6.1-4.07-11.94-8.65-17.33-13.62
			c-1.1-1-1.17-2.71-0.16-3.81s2.72-1.16,3.81-0.16c5.19,4.77,10.8,9.18,16.68,13.1c1.24,0.82,1.57,2.5,0.75,3.74
			C270.48,609.9,269.62,610.32,268.75,610.32z M237,581.15c-0.79,0-1.57-0.35-2.11-1.01c-4.58-5.75-8.74-11.89-12.37-18.26
			c-0.74-1.29-0.28-2.94,1.01-3.67c1.29-0.72,2.94-0.28,3.67,1.01c3.49,6.12,7.49,12.03,11.9,17.56c0.93,1.17,0.73,2.86-0.43,3.79
			C238.19,580.96,237.59,581.15,237,581.15z M215.66,543.67c-1.09,0-2.11-0.67-2.52-1.75c-2.63-6.99-4.67-14.13-6.06-21.23
			c-0.29-1.46,0.67-2.88,2.13-3.16c1.47-0.3,2.88,0.67,3.16,2.13c1.33,6.81,3.28,13.66,5.81,20.36c0.53,1.39-0.18,2.95-1.57,3.47
			C216.3,543.61,215.98,543.67,215.66,543.67z M207.07,501.4c-1.41,0-2.59-1.1-2.68-2.52c-0.28-4.4-0.42-9.04-0.42-13.77v-1.09
			c0.01-2.34,0.05-4.69,0.13-7.04c0.05-1.46,1.24-2.6,2.69-2.6c0.03,0,0.06,0,0.09,0c1.49,0.05,2.65,1.29,2.6,2.78
			c-0.07,2.3-0.12,4.59-0.13,6.87v1.08c0,4.62,0.14,9.14,0.41,13.43c0.1,1.49-1.03,2.77-2.52,2.86
			C207.19,501.4,207.13,501.4,207.07,501.4z"/>
	</g>
	<g>
		<linearGradient id="SVGID_12_" gradientUnits="userSpaceOnUse" x1="51.8333" y1="380.0889" x2="328.2181" y2="380.0889">
			<stop  offset="0" style="stop-color:#E98B47"/>
			<stop  offset="1" style="stop-color:#F9AA77"/>
		</linearGradient>
		<path class="st82" d="M229.72,458.68c-4.11,0-8.17-0.05-12.14-0.15c-1.49-0.04-2.66-1.27-2.62-2.76c0.04-1.46,1.24-2.62,2.69-2.62
			c0.02,0,0.04,0,0.07,0c6.95,0.18,14.12,0.19,21.52,0.06c1.68-0.09,2.72,1.15,2.75,2.64c0.03,1.49-1.15,2.72-2.64,2.75
			C236.1,458.65,232.89,458.68,229.72,458.68z M260.92,457.78c-1.42,0-2.6-1.11-2.68-2.54c-0.08-1.48,1.05-2.75,2.54-2.84
			c6.97-0.39,14.2-0.92,21.51-1.56c1.44-0.15,2.79,0.96,2.92,2.45c0.13,1.48-0.96,2.79-2.45,2.92c-7.36,0.65-14.66,1.18-21.68,1.57
			C261.03,457.78,260.98,457.78,260.92,457.78z M196.04,457.43c-0.07,0-0.14,0-0.21,0c-7.5-0.58-14.8-1.38-21.69-2.37
			c-1.47-0.21-2.5-1.57-2.28-3.05c0.21-1.47,1.61-2.46,3.05-2.28c6.78,0.97,13.96,1.75,21.35,2.32c1.48,0.12,2.59,1.41,2.48,2.9
			C198.61,456.36,197.43,457.43,196.04,457.43z M304.05,453.99c-1.35,0-2.51-1.01-2.67-2.38c-0.18-1.48,0.89-2.82,2.36-2.99
			c7-0.82,14.13-1.75,21.4-2.78c1.48-0.23,2.84,0.82,3.05,2.28c0.21,1.47-0.81,2.84-2.28,3.05c-7.32,1.04-14.5,1.98-21.54,2.8
			C304.26,453.99,304.16,453.99,304.05,453.99z M153.22,451.23c-0.2,0-0.39-0.02-0.59-0.07c-5.21-1.17-10.29-2.49-15.09-3.92
			c-2.04-0.61-4.05-1.25-6.03-1.9c-1.41-0.46-2.18-1.99-1.71-3.4c0.46-1.41,1.99-2.19,3.4-1.71c1.93,0.64,3.88,1.25,5.87,1.85
			c4.69,1.39,9.64,2.68,14.73,3.82c1.46,0.33,2.37,1.77,2.04,3.22C155.56,450.37,154.45,451.23,153.22,451.23z M112.29,437.39
			c-0.39,0-0.8-0.09-1.18-0.27c-6.9-3.35-13.3-7.12-19.02-11.21c-1.21-0.87-1.49-2.55-0.63-3.76c0.86-1.21,2.54-1.5,3.76-0.63
			c5.48,3.92,11.62,7.53,18.24,10.74c1.34,0.65,1.9,2.26,1.25,3.6C114.26,436.83,113.29,437.39,112.29,437.39z M205.04,434.98
			c-1.49,0-2.69-1.21-2.69-2.69v-0.96c0-6.79-0.27-13.69-0.81-20.52c-0.11-1.48,1-2.78,2.48-2.9c1.43-0.13,2.78,0.99,2.9,2.48
			c0.54,6.96,0.82,14.01,0.82,20.94v0.96C207.73,433.78,206.53,434.98,205.04,434.98z M77.46,412.14c-0.73,0-1.46-0.29-1.99-0.88
			c-5.05-5.53-9.41-11.61-12.95-18.06c-0.71-1.31-0.24-2.94,1.07-3.66c1.32-0.71,2.95-0.22,3.66,1.07
			c3.33,6.08,7.44,11.81,12.2,17.03c1,1.1,0.93,2.8-0.18,3.81C78.76,411.9,78.11,412.14,77.46,412.14z M201.57,391.78
			c-1.29,0-2.42-0.93-2.65-2.24c-1.25-7.33-2.85-14.33-4.76-20.82c-0.42-1.43,0.39-2.92,1.82-3.34c1.43-0.44,2.92,0.39,3.34,1.82
			c1.97,6.69,3.62,13.9,4.91,21.43c0.25,1.47-0.74,2.86-2.2,3.11C201.87,391.77,201.72,391.78,201.57,391.78z M56.81,374.57
			c-1.18,0-2.27-0.78-2.6-1.98c-0.33-1.21-0.64-2.43-0.94-3.66c-0.96-4.05-1.44-8.07-1.44-11.94c0-2.32,0.17-4.65,0.52-6.91
			c0.22-1.47,1.62-2.49,3.07-2.26c1.47,0.22,2.48,1.6,2.26,3.07c-0.3,2-0.46,4.05-0.46,6.1c0,3.46,0.44,7.06,1.3,10.7
			c0.28,1.17,0.57,2.32,0.89,3.46c0.4,1.44-0.44,2.92-1.88,3.32C57.28,374.53,57.04,374.57,56.81,374.57z M189.08,350.41
			c-1,0-1.96-0.57-2.43-1.53c-3.22-6.72-6.94-12.72-11.05-17.83c-0.93-1.16-0.75-2.85,0.41-3.79c1.14-0.93,2.84-0.76,3.79,0.41
			c4.37,5.43,8.31,11.79,11.71,18.87c0.64,1.34,0.08,2.95-1.26,3.6C189.87,350.32,189.47,350.41,189.08,350.41z M63.49,333.52
			c-0.57,0-1.14-0.18-1.63-0.55c-1.18-0.9-1.41-2.59-0.51-3.78c4.32-5.68,10-10.7,16.87-14.9c1.28-0.77,2.93-0.37,3.71,0.89
			c0.78,1.27,0.38,2.93-0.89,3.71c-6.3,3.86-11.48,8.43-15.4,13.57C65.11,333.16,64.3,333.52,63.49,333.52z M161.83,317.5
			c-0.5,0-1.02-0.14-1.47-0.44c-5.71-3.74-12.06-6.49-18.88-8.17c-1.44-0.36-2.33-1.82-1.97-3.26c0.36-1.44,1.82-2.32,3.26-1.97
			c7.41,1.83,14.33,4.82,20.55,8.9c1.25,0.82,1.59,2.49,0.78,3.73C163.57,317.08,162.71,317.5,161.83,317.5z M99.42,310.63
			c-1.17,0-2.24-0.76-2.58-1.93c-0.42-1.43,0.39-2.92,1.82-3.35c6.79-2,13.92-3.29,21.18-3.83l0.81-0.03
			c1.33,0.07,2.72,1.15,2.75,2.64c0.03,1.49-1.15,2.72-2.64,2.75l-0.59,0.02c-6.81,0.5-13.56,1.72-19.98,3.61
			C99.92,310.59,99.67,310.63,99.42,310.63z"/>
	</g>
</g>
<g>
	<g>
		<linearGradient id="SVGID_13_" gradientUnits="userSpaceOnUse" x1="715.064" y1="413.6522" x2="924.2621" y2="413.6522">
			<stop  offset="0" style="stop-color:#E98B47"/>
			<stop  offset="1" style="stop-color:#F9AA77"/>
		</linearGradient>
		<path class="st94" d="M747.66,328.98h144.01c18,0,32.59,14.59,32.59,32.59v74.28c0,18-14.59,32.6-32.59,32.6H797.5l-33.87,29.89
			v-29.89h-15.97c-18,0-32.59-14.59-32.59-32.6v-74.28C715.06,343.57,729.66,328.98,747.66,328.98z"/>
		<g>
			<g>
				<path class="st180" d="M768.61,374.94h102.11c2.26,0,4.08-1.83,4.08-4.09c0-2.26-1.83-4.09-4.08-4.09H768.61
					c-2.26,0-4.08,1.83-4.08,4.09C764.52,373.11,766.35,374.94,768.61,374.94z"/>
			</g>
			<g>
				<path class="st180" d="M768.61,402.17h102.11c2.26,0,4.08-1.83,4.08-4.09s-1.83-4.09-4.08-4.09H768.61
					c-2.26,0-4.08,1.83-4.08,4.09S766.35,402.17,768.61,402.17z"/>
			</g>
			<g>
				<path class="st180" d="M855.74,429.4h14.98c2.26,0,4.08-1.83,4.08-4.09s-1.83-4.09-4.08-4.09h-14.98
					c-2.26,0-4.08,1.83-4.08,4.09S853.49,429.4,855.74,429.4z"/>
			</g>
			<g>
				<path class="st180" d="M821.71,429.4h14.98c2.26,0,4.08-1.83,4.08-4.09s-1.83-4.09-4.08-4.09h-14.98
					c-2.26,0-4.08,1.83-4.08,4.09S819.45,429.4,821.71,429.4z"/>
			</g>
			<g>
				<path class="st180" d="M768.61,429.4h34.04c2.26,0,4.08-1.83,4.08-4.09s-1.83-4.09-4.08-4.09h-34.04
					c-2.26,0-4.08,1.83-4.08,4.09S766.35,429.4,768.61,429.4z"/>
			</g>
		</g>
	</g>
	<g>
		<linearGradient id="SVGID_14_" gradientUnits="userSpaceOnUse" x1="595.0421" y1="547.3069" x2="749.0724" y2="547.3069">
			<stop  offset="0" style="stop-color:#45989F"/>
			<stop  offset="0.1103" style="stop-color:#499FA6"/>
			<stop  offset="0.4607" style="stop-color:#54B3BB"/>
			<stop  offset="0.7689" style="stop-color:#5AC0C9"/>
			<stop  offset="1" style="stop-color:#5BC6CF"/>
		</linearGradient>
		<path class="st95" d="M729.44,477.31H619.21c-10.84,0-19.63,8.79-19.63,19.63v63.57c0,10.36,8.02,18.82,18.19,19.56l-22.73,37.25
			l59.91-37.18h74.5c10.84,0,19.63-8.79,19.63-19.63v-63.57C749.07,486.09,740.28,477.31,729.44,477.31z"/>
		<g>
			
				<ellipse transform="matrix(0.7071 -0.7071 0.7071 0.7071 -165.449 627.1616)" class="st180" cx="674.33" cy="513.3" rx="13.05" ry="13.05"/>
			<path class="st180" d="M705.17,557.19h-61.7l0,0c0-10.92,8.85-19.77,19.77-19.77h22.15
				C696.32,537.42,705.17,546.27,705.17,557.19L705.17,557.19z"/>
		</g>
	</g>
</g>
<g>
	<g>
		<path class="st19" d="M574.3,386.64c-3.67,0-7.32-0.37-10.88-1.11c-1.46-0.31-2.39-1.73-2.09-3.19c0.31-1.46,1.75-2.37,3.19-2.09
			c5.52,1.15,11.39,1.3,16.91,0.47c1.47-0.2,2.84,0.79,3.07,2.27c0.22,1.47-0.79,2.84-2.27,3.07
			C579.65,386.44,576.97,386.63,574.3,386.64z M598.76,380.35c-0.95,0-1.87-0.5-2.36-1.39c-0.72-1.3-0.25-2.94,1.05-3.66
			c4.98-2.76,9.4-6.35,13.12-10.68c0.97-1.13,2.67-1.25,3.8-0.28c1.13,0.97,1.25,2.67,0.28,3.8c-4.14,4.81-9.05,8.8-14.59,11.87
			C599.64,380.24,599.19,380.35,598.76,380.35z M547.41,378.9c-0.49,0-0.99-0.13-1.43-0.41c-5.36-3.38-10.04-7.64-13.91-12.66
			c-0.91-1.18-0.69-2.87,0.49-3.78c1.18-0.9,2.87-0.68,3.78,0.49c3.48,4.53,7.69,8.36,12.5,11.39c1.26,0.79,1.64,2.46,0.85,3.71
			C549.18,378.46,548.3,378.9,547.41,378.9z M621.69,353.69c-0.31,0-0.63-0.06-0.94-0.17c-1.39-0.52-2.1-2.07-1.59-3.46
			c1.97-5.31,2.98-10.91,2.98-16.65c0-1.49,1.21-2.69,2.69-2.69c1.49,0,2.69,1.21,2.69,2.69c0,6.37-1.11,12.61-3.31,18.52
			C623.82,353.02,622.79,353.69,621.69,353.69z M525.99,351.01c-1.15,0-2.22-0.75-2.57-1.9c-1.56-5.06-2.35-10.34-2.35-15.69
			c0-1,0.03-1.99,0.08-2.98c0.08-1.49,1.55-2.62,2.84-2.54c1.49,0.08,2.62,1.35,2.54,2.84c-0.05,0.89-0.07,1.78-0.07,2.68
			c0,4.81,0.71,9.56,2.11,14.11c0.44,1.42-0.36,2.93-1.78,3.37C526.52,350.97,526.26,351.01,525.99,351.01z M623.36,323.92
			c-1.21,0-2.31-0.82-2.61-2.05c-1.37-5.53-3.7-10.71-6.92-15.42c-0.84-1.23-0.53-2.91,0.7-3.74c1.23-0.85,2.9-0.53,3.74,0.7
			c3.59,5.24,6.18,11.02,7.7,17.17c0.36,1.44-0.52,2.91-1.96,3.26C623.79,323.89,623.57,323.92,623.36,323.92z M527.97,315.9
			c-0.36,0-0.73-0.07-1.08-0.23c-1.36-0.6-1.99-2.18-1.39-3.55c2.54-5.81,6.06-11.07,10.47-15.64c1.03-1.09,2.74-1.11,3.81-0.07
			c1.07,1.03,1.11,2.74,0.07,3.81c-3.96,4.11-7.13,8.84-9.41,14.06C529.99,315.29,529,315.9,527.97,315.9z M603.53,294.88
			c-0.54,0-1.08-0.16-1.56-0.5c-4.65-3.31-9.8-5.73-15.3-7.2c-1.44-0.39-2.29-1.86-1.91-3.3c0.39-1.43,1.85-2.28,3.3-1.91
			c6.12,1.64,11.85,4.33,17.03,8.01c1.21,0.86,1.5,2.54,0.64,3.76C605.2,294.49,604.37,294.88,603.53,294.88z M552.36,290.57
			c-1,0-1.96-0.56-2.42-1.53c-0.65-1.34-0.09-2.95,1.25-3.6c5.71-2.75,11.81-4.45,18.13-5.03c1.52-0.14,2.8,0.96,2.93,2.43
			c0.14,1.48-0.96,2.8-2.43,2.93c-5.68,0.53-11.16,2.04-16.29,4.52C553.15,290.48,552.76,290.57,552.36,290.57z"/>
	</g>
	<rect x="542.55" y="323.83" class="st50" width="62.65" height="35.53"/>
	<g>
		<path class="st31" d="M596.61,321.01v-4.35c0-3.2,2.59-5.79,5.79-5.79l0,0c3.2,0,5.79,2.59,5.79,5.79v7.21h-11.59"/>
		<path class="st175" d="M596.73,316.58v36.93h-42.72v-36.93c0-3.2,2.59-5.79,5.79-5.79h42.23l-1.17,0.24
			C598.47,311.74,596.73,313.95,596.73,316.58z"/>
	</g>
	<g>
		<rect x="556.67" y="316.8" class="st31" width="9.47" height="9.72"/>
		<g>
			<g>
				<line class="st182" x1="569.04" y1="316.74" x2="593.12" y2="316.74"/>
				<line class="st182" x1="569.04" y1="320.02" x2="593.12" y2="320.02"/>
				<line class="st182" x1="569.04" y1="323.29" x2="593.12" y2="323.29"/>
				<line class="st182" x1="569.27" y1="326.56" x2="593.35" y2="326.56"/>
			</g>
			<line class="st182" x1="556.67" y1="329.79" x2="593.12" y2="329.79"/>
			<line class="st182" x1="556.67" y1="333.07" x2="593.12" y2="333.07"/>
			<line class="st182" x1="556.67" y1="336.27" x2="593.12" y2="336.27"/>
			<line class="st182" x1="556.67" y1="339.55" x2="574.39" y2="339.55"/>
		</g>
	</g>
	<polygon class="st19" points="589.81,359.35 542.55,359.35 542.55,323.83 	"/>
	<polygon class="st19" points="557.94,359.35 605.2,359.35 605.2,323.83 	"/>
	<path class="st19" d="M605.2,359.35h-31.33h-31.33l28.14-15.03c1.92-1.33,4.46-1.33,6.38,0L605.2,359.35z"/>
</g>
<path class="st12" d="M527.04,778.43c-3.69-0.94-8.61-1.31-9.84-3.57c-1.23-2.25-3.07-2.82-5.12-4.5c-2.05-1.69-0.82-3.38-3.28-5.44
	c-2.46-2.06,0-5.63-0.21-7.51c-0.2-1.88-0.41-5.63,0.41-9.01c0.82-3.38,4.1-4.13,8.4-5.44c4.3-1.31,7.38-1.31,7.38,0.75
	c0,2.06-4.51,4.88-4.51,4.88s7.38-2.25,9.43-3c2.05-0.75,5.33,0.94,3.89,3.38c-1.43,2.44-7.38,5.63-9.22,6.57
	c-1.84,0.94-2.87,2.82-2.87,2.82s5.53,0,9.43-1.5c3.89-1.5,7.38-4.88,10.04-3.38c2.66,1.5,1.23,3.38-1.43,5.44
	c0,0-5.74,3.57-7.58,4.32c0,0,5.74,0.19,8.61-0.94c2.87-1.13,4.3,0.19,3.48,2.25c-0.82,2.06-8.81,3.75-9.02,4.5
	c-0.21,0.75,1.43,2.63,2.46,4.88C538.51,776.18,527.04,778.43,527.04,778.43z"/>
<g id="Group_6372_6_" transform="translate(-311 -92)">
	<g id="Group_6364_6_" transform="translate(988.69 623.028)">
		<path id="Path_5763_6_" class="st183" d="M-372.33,219.39c0,0-2.47-7.87-10.17-15.5"/>
		<path id="Path_5761_6_" class="st183" d="M-338.38,192.97c0,0-15.34,1.68-25.99,10.35"/>
		<path id="Path_5762_6_" class="st183" d="M-362.95,191.83c0,0,0.05-11.08-6.63-19.01"/>
	</g>
	<g id="Group_6371_6_" transform="translate(957.999 598.057)">
		
			<linearGradient id="Path_5783_1_" gradientUnits="userSpaceOnUse" x1="-2073.5356" y1="433.73" x2="-2073.5356" y2="432.9978" gradientTransform="matrix(-48.0426 0 0 -78.363 -99959.1562 34182.5273)">
			<stop  offset="0" style="stop-color:#4B9DD6"/>
			<stop  offset="1" style="stop-color:#2279BE"/>
		</linearGradient>
		<path id="Path_5783_6_" class="st184" d="M-358.68,233.14c-0.35-12.96-0.09-24.87,9.63-19.26c3.5,2.63,7,1.75,7-2.63l-0.88-9.63
			c0,0,0-14.88,12.26-2.63c7.88,8.76,7.88,17.51,6.13,25.39l-7.88,17.51l-10.51,9.63l-15.76-5.25V233.14z"/>
		<g transform="matrix(1, 0, 0, 1, 14728, 17356.94)">
			<path id="Path_5781-2_6_" class="st180" d="M-15064.79-17120.3c0.88,7.01-6.13,7.88-6.13,7.88l-7-6.13l0.88,24.52
				c-4.38,4.38,21.63,4.99,27.14,2.63c4.38-0.88,7.01-6.13,2.63-7.88l-2.63-1.75c-2.63-1.75-1.31-4.2,2.63-4.38
				c10.77,0.61,21.01-2.1,29.77-14.89c1.75-2.63,1.14-5.25-2.63-5.25c-4.29-0.79-6.13-2.63-0.88-7.88
				c21.89-16.64-4.38-36.78-13.13-28.89c-4.47,3.68-6.13,17.51-6.13,17.51s-1.75,14.01-12.26,7.01c-0.26-0.18-0.44-0.35-0.7-0.53
				C-15060.07-17143.42-15067.33-17134.75-15064.79-17120.3z"/>
		</g>
		<g transform="matrix(1, 0, 0, 1, 14728, 17356.94)">
			
				<linearGradient id="Path_5785-2_1_" gradientUnits="userSpaceOnUse" x1="-16927.9219" y1="-16834.1895" x2="-16928.1602" y2="-16834.9961" gradientTransform="matrix(-99.3128 0 0 -129.3472 -1696276.5 -2194627.5)">
				<stop  offset="0" style="stop-color:#FBBB98"/>
				<stop  offset="1" style="stop-color:#F89E6E"/>
			</linearGradient>
			<path id="Path_5785-2_6_" class="st186" d="M-15078.81-17083.53c7.62-9.02,13.13-24.52,6.13-35.02
				c-5.25-8.05-10.51-13.48-15.76-5.25c-2.63,2.71-7,2.63-7-2.63c1.84-19.35,1.49-35.54-14.01-28.89c-4.03,2.01-6.13,0.35-6.13-5.25
				c5.25-21.89-27.14-22.77-20.14-0.88c6.65,9.98,6.92,13.4,4.38,14.01c-16.81,0.35-12.43,11.56,2.01,27.23
				c1.31,1.43,1.22,3.65-0.21,4.96c-0.15,0.14-0.32,0.27-0.49,0.38c-6.3,3.85-15.72,10.52,11.34,25.58
				C-15106.87-17082.82-15093.34-17081.69-15078.81-17083.53z"/>
		</g>
		<path id="Path_5807_6_" class="st27" d="M-300.92,216.54h1.76c-1.68,10.49-9.08,19.4-18.08,25.13
			c-19.05,11.64-27.96,25.05-19.84,45.42h-7.05c-1.15-6.26-6.08-12.43-15.87-18.52c-21.16-14.99-23.46-23.81-23.81-41.45l1.76-1.76
			c-0.44,11.64,1.76,22.05,12.35,31.75l25.58,19.4c-0.88-26.46,23.81-36.16,23.81-36.16S-304.89,233.74-300.92,216.54z"/>
	</g>
	<g transform="matrix(1, 0, 0, 1, 15686, 17955)">
		
			<linearGradient id="Path_5786-2_1_" gradientUnits="userSpaceOnUse" x1="-16873.4902" y1="-16951.7617" x2="-16872.8301" y2="-16951.7676" gradientTransform="matrix(-67.913 0 0 -69.543 -1160977.5 -1195922)">
			<stop  offset="0" style="stop-color:#5BC6CF"/>
			<stop  offset="1" style="stop-color:#51C4CC"/>
		</linearGradient>
		<path id="Path_5786-2_4_" class="st187" d="M-15045.46-17070.97h-49.73l3.98,50.92h41.77L-15045.46-17070.97z"/>
	</g>
	<path id="Path_5787_6_" class="st188" d="M587.97,861c0,0-4.63-3.62-13.24-0.98"/>
	<path id="Path_5790_6_" class="st188" d="M580.98,855.05c0,0-4.99-3.12-13.27,0.41"/>
	<path id="Path_5791_6_" class="st188" d="M575.68,848.34c0,0-5.24-2.67-13.19,1.57"/>
	<path id="Path_5792_6_" class="st188" d="M573.98,842.03c0,0-4.93-3.2-13.28,0.18"/>
	<path id="Path_5793_6_" class="st188" d="M572.21,835.49c0,0-4.7-3.54-13.26-0.75"/>
	<path id="Path_5794_6_" class="st188" d="M572.21,829.36c0,0-4.7-3.54-13.26-0.75"/>
	<path id="Path_5795_6_" class="st188" d="M571.68,824.6c0,0-3.2-4.94-12.2-5.24"/>
	<path id="Path_5797_6_" class="st188" d="M604.55,846.75c0,0-5.41,2.3-7.28,11.11"/>
	<path id="Path_5798_6_" class="st188" d="M600.14,841.52c0,0-5.14,2.85-6.07,11.81"/>
	<path id="Path_5799_6_" class="st188" d="M595.04,836.34c0,0-4.93,3.2-5.24,12.2"/>
	<path id="Path_5800_6_" class="st188" d="M588.15,833.44c0,0-4.51,3.78-3.71,12.75"/>
	<path id="Path_5801_6_" class="st188" d="M585.62,824.18c0,0-5.04,3.03-5.66,12.01"/>
	<path id="Path_5802_6_" class="st188" d="M582.67,814.41c0,0-4.88,3.29-5.02,12.29"/>
	<path id="Path_5803_6_" class="st188" d="M573.07,808.66c0,0-3.2,4.93,0.18,13.28"/>
	<path id="Path_5804_6_" class="st188" d="M625.53,799.57c0,0-3.62,0.13-6.49,4.72"/>
	<path id="Path_5805_6_" class="st188" d="M626.87,803.73c0,0-3.62,0.13-6.49,4.72"/>
	<path id="Path_5806_6_" class="st188" d="M628.22,807.9c0,0-3.62,0.13-6.49,4.72"/>
</g>
</svg>
