<?xml version="1.0" encoding="utf-8"?>
<!-- Generator: Adobe Illustrator 25.0.0, SVG Export Plug-In . SVG Version: 6.00 Build 0)  -->
<svg version="1.1" id="Layer_1" xmlns="http://www.w3.org/2000/svg" xmlns:xlink="http://www.w3.org/1999/xlink" x="0px" y="0px"
	 viewBox="0 0 1000 1000" style="enable-background:new 0 0 1000 1000;" xml:space="preserve">
<style type="text/css">
	.st0{fill:url(#Path_5768_2_);}
	.st1{fill-rule:evenodd;clip-rule:evenodd;fill:#D1E9F9;}
	.st2{opacity:0.61;fill-rule:evenodd;clip-rule:evenodd;fill:url(#SVGID_1_);}
	.st3{opacity:0.39;}
	.st4{fill:url(#SVGID_2_);}
	.st5{fill:#74818E;}
	.st6{fill:#F89F80;}
	.st7{fill:#F6917C;}
	.st8{opacity:0.2;fill:#39B5E8;}
	.st9{opacity:0.4;fill:#808080;}
	.st10{opacity:0.2;}
	.st11{fill:#39B5E8;}
	.st12{fill:#E5E5E5;}
	.st13{fill:#666766;}
	.st14{fill:#CBCBCA;}
	.st15{fill:#FFFFFF;}
	.st16{fill:#808080;}
	.st17{fill:#A5B4C2;}
	.st18{fill:#FFE7CB;}
	.st19{fill:#C4CBD6;}
	.st20{fill:#647889;}
	.st21{fill:#F8FCFD;}
	.st22{fill:#D4D2D1;}
	.st23{fill:#FEF5EA;}
	.st24{fill:#358DCC;}
	.st25{fill:#F69B6C;}
	.st26{fill:#EA8F68;}
	.st27{fill:#1572BA;}
	.st28{fill:#2383BF;}
	.st29{fill:#E38165;}
	.st30{fill:#F06A45;}
	.st31{fill:#94603D;}
	.st32{fill:#A4704C;}
	.st33{fill:#98C6DB;}
	.st34{opacity:0.25;}
	.st35{fill:#010101;}
	.st36{fill:url(#SVGID_3_);}
	.st37{fill:url(#SVGID_4_);}
	.st38{fill:url(#SVGID_5_);}
	.st39{fill:url(#SVGID_6_);}
	.st40{fill:#1D262D;}
	.st41{opacity:0.25;fill:#010101;}
	.st42{fill:#0C0C0C;}
	.st43{fill:#141416;}
	.st44{fill:#324757;}
	.st45{fill:#0D2033;}
	.st46{fill:#112C46;}
	.st47{fill:url(#SVGID_7_);}
	.st48{fill:url(#SVGID_8_);}
	.st49{fill:url(#Path_5404_1_);}
	.st50{fill:#287EC2;}
	.st51{fill:none;stroke:#7D4848;stroke-miterlimit:10;}
	.st52{opacity:0.581;fill:url(#Ellipse_1259_1_);enable-background:new    ;}
	.st53{fill:#1D8AB6;}
	.st54{fill:#1F374C;}
	.st55{fill:#035C9F;}
	.st56{fill:#EDD7C1;}
	.st57{fill:none;stroke:#32A3D1;stroke-miterlimit:10;}
	.st58{fill:none;stroke:#E0C5A8;stroke-miterlimit:10;}
	.st59{fill:#174672;}
	.st60{fill:none;stroke:#32A3D1;}
	.st61{fill:#4598D3;}
	.st62{fill:#2272B9;}
	.st63{clip-path:url(#SVGID_10_);}
	.st64{fill:#5BC6CF;}
	.st65{fill:#FBBB98;}
	.st66{fill:#5AAADE;}
	.st67{fill:#32A3D1;}
	.st68{fill:none;stroke:#035C9F;stroke-width:3;}
	.st69{fill:#297FC3;}
	.st70{fill:#D7EDFB;}
	.st71{fill:#358DCC;stroke:#035C9F;stroke-width:5;stroke-miterlimit:10;}
	.st72{fill:#035C9F;stroke:#358DCC;stroke-width:2;stroke-miterlimit:10;}
	.st73{fill:url(#Path_5768_3_);}
	.st74{fill:url(#Ellipse_1278_1_);}
	.st75{opacity:0.435;fill:#C8E5F8;enable-background:new    ;}
	.st76{opacity:0.576;fill:#C8E5F8;enable-background:new    ;}
	.st77{fill:none;}
	.st78{fill:none;stroke:#5BC6CF;stroke-width:3;}
	.st79{fill:#035C9F;stroke:#035C9F;stroke-linecap:round;stroke-linejoin:round;}
	.st80{fill:#035C9F;stroke:#035C9F;}
	.st81{fill:url(#Ellipse_1174_1_);}
	.st82{fill:none;stroke:#FFFFFF;stroke-width:2;}
	.st83{fill:#358DCC;stroke:#035C9F;stroke-width:7;stroke-miterlimit:10;}
	.st84{fill:#035C9F;stroke:#358DCC;stroke-width:3;stroke-miterlimit:10;}
	.st85{opacity:0.966;fill:url(#Ellipse_1174_2_2_1_);enable-background:new    ;}
	.st86{opacity:0.966;fill:url(#Ellipse_1174_2_3_1_);enable-background:new    ;}
	.st87{fill:#8AC6EC;}
	.st88{fill:none;stroke:#358DCC;stroke-width:0.3406;}
	.st89{fill:url(#Ellipse_1271_1_);}
	.st90{fill:none;stroke:#358DCC;stroke-width:1.3622;stroke-linecap:round;stroke-miterlimit:10;}
	.st91{fill:none;stroke:#134574;stroke-width:1.3622;stroke-linecap:round;stroke-miterlimit:10;}
	.st92{fill:#153E69;}
	.st93{fill:url(#Rectangle_1705_1_);}
	.st94{fill:#094C82;}
	.st95{opacity:0.195;fill:#1572BA;enable-background:new    ;}
	.st96{fill:#FAB58F;}
	.st97{opacity:0.031;fill:url(#Path_3464_1_);enable-background:new    ;}
	.st98{opacity:0.045;fill:url(#Path_3463_1_);enable-background:new    ;}
	.st99{opacity:0.1;fill:url(#Path_3462_1_);enable-background:new    ;}
	.st100{fill:url(#Subtraction_66-2_1_);}
	.st101{opacity:0.862;fill:#094C82;enable-background:new    ;}
	.st102{fill:url(#Path_3437_1_);}
	.st103{fill:url(#Path_3435-2_1_);}
	.st104{fill:url(#Path_3434-2_1_);}
	.st105{opacity:0.23;fill:none;stroke:#F7F8F8;stroke-width:0.3406;enable-background:new    ;}
	.st106{opacity:0.23;fill:none;stroke:#FFFFFF;stroke-width:0.3406;enable-background:new    ;}
	.st107{fill:url(#SVGID_11_);}
	.st108{fill:#B4D3E9;}
	.st109{fill:#1C54A5;}
	.st110{fill:#5793CE;}
	.st111{fill:#3B78BD;}
	.st112{fill:#D4EAF9;}
	.st113{fill:#639FD5;}
	.st114{fill:#FAFDFF;}
	.st115{fill:#1F3F7A;}
	.st116{fill:#3B6DAB;}
	.st117{fill:url(#SVGID_12_);}
	.st118{fill:#6B6B6B;}
	.st119{fill:#303030;}
	.st120{fill:#FBBC95;}
	.st121{fill:#F9C8A6;}
	.st122{fill:#162735;}
	.st123{fill:#16406F;}
	.st124{fill:#BABABD;}
	.st125{fill:#29AAE1;}
	.st126{fill:url(#SVGID_13_);}
	.st127{fill:url(#SVGID_14_);}
	.st128{fill:url(#SVGID_15_);}
	.st129{fill:url(#SVGID_16_);}
	.st130{fill:url(#SVGID_17_);}
	.st131{fill:url(#SVGID_18_);}
	.st132{opacity:0.25;fill:#606161;}
	.st133{fill:url(#SVGID_19_);}
	.st134{fill:url(#SVGID_20_);}
	.st135{fill:url(#SVGID_21_);}
	.st136{fill:url(#SVGID_22_);}
	.st137{fill:url(#SVGID_23_);}
	.st138{fill:url(#SVGID_24_);}
	.st139{fill:url(#SVGID_25_);}
	.st140{fill:url(#SVGID_26_);}
	.st141{fill:url(#SVGID_27_);}
	.st142{fill:#416AB3;}
	.st143{fill:#F7FAFC;}
	.st144{opacity:0.5;fill:#F4B39A;}
	.st145{opacity:0.3;fill:#F4B39A;}
	.st146{fill:url(#SVGID_28_);}
	.st147{opacity:0.5;fill:#EFA78D;}
	.st148{opacity:0.5;fill:#8FCBE1;}
	.st149{fill:url(#SVGID_29_);}
	.st150{fill:#EAA38E;}
	.st151{fill:#2D55A6;}
	.st152{fill:url(#SVGID_30_);}
	.st153{fill:url(#SVGID_31_);}
	.st154{fill:url(#SVGID_32_);}
	.st155{fill:#EEAC21;}
	.st156{fill:#FBD900;}
	.st157{fill:#DB9A28;}
	.st158{fill:#EEAA1F;}
	.st159{fill:url(#SVGID_33_);}
	.st160{opacity:0.61;fill-rule:evenodd;clip-rule:evenodd;fill:url(#SVGID_34_);}
	.st161{fill:url(#SVGID_35_);}
	.st162{fill:#377BBF;}
	.st163{fill:url(#SVGID_36_);}
	.st164{fill:url(#SVGID_37_);}
	.st165{opacity:0.4;fill:#10113C;}
	.st166{opacity:0.7;}
	.st167{fill:#10113C;}
	.st168{fill:url(#SVGID_38_);}
	.st169{opacity:0.3;fill:#10113C;}
	.st170{fill:url(#SVGID_39_);}
	.st171{fill:url(#SVGID_40_);}
	.st172{fill:url(#SVGID_41_);}
	.st173{fill:url(#SVGID_42_);}
	.st174{fill:#E9975C;}
	.st175{fill:#7ED2EA;}
	.st176{fill:url(#SVGID_43_);}
	.st177{fill:url(#SVGID_44_);}
	.st178{fill:url(#SVGID_45_);}
	.st179{fill:url(#SVGID_46_);}
	.st180{fill:url(#SVGID_47_);}
	.st181{fill:url(#SVGID_48_);}
	.st182{fill:url(#SVGID_49_);}
	.st183{fill:url(#SVGID_50_);}
	.st184{fill:#F9A343;}
	.st185{fill:#FCB96F;}
	.st186{fill:#DF8226;}
	.st187{fill:#FFD842;}
	.st188{fill:#FEE066;}
	.st189{fill:none;stroke:#358DCC;stroke-width:0.3657;}
	.st190{fill:none;stroke:#358DCC;stroke-width:1.4629;stroke-linecap:round;stroke-miterlimit:10;}
	.st191{fill:url(#Ellipse_1369_2_);}
	.st192{fill:#104879;}
	.st193{opacity:0.573;fill:#035C9F;enable-background:new    ;}
	.st194{opacity:0.5;}
	.st195{fill:#133E67;}
	.st196{fill:none;stroke:#1F374C;stroke-width:1.4629;stroke-linecap:round;stroke-miterlimit:10;}
	.st197{fill:#156FB0;}
	.st198{fill:none;stroke:#FBBB98;stroke-width:0.7315;}
	.st199{fill:none;stroke:#5BC6CF;stroke-width:0.7315;}
	.st200{fill:url(#SVGID_51_);}
</style>
<g>
	<path class="st5" d="M688.2,885.13c-6.59,0-12.12-5.13-12.53-11.79c-0.43-6.91,4.82-12.87,11.72-13.32
		c0.36-0.03,15.35-1.19,35.15-9.28c26.43-10.8,48.56-28.21,65.79-51.76c4.1-5.6,11.96-6.82,17.56-2.72
		c5.6,4.1,6.82,11.96,2.72,17.56c-48.38,66.12-116.74,71.1-119.62,71.28C688.72,885.12,688.46,885.13,688.2,885.13z"/>
	<path class="st5" d="M200.52,658.57c0-6.59,5.13-12.12,11.79-12.53c6.92-0.43,12.87,4.82,13.32,11.72
		c0.03,0.36,1.19,15.35,9.28,35.15c10.8,26.43,28.21,48.56,51.76,65.79c5.6,4.1,6.82,11.96,2.72,17.56
		c-4.1,5.6-11.96,6.82-17.56,2.72c-66.12-48.38-71.1-116.74-71.28-119.62C200.53,659.1,200.52,658.83,200.52,658.57z"/>
	<path class="st5" d="M574.79,162.93c4.89,4.41,5.57,11.92,1.42,17.15c-4.31,5.43-12.19,6.34-17.63,2.05
		c-0.28-0.22-12.2-9.39-32.33-16.63c-26.86-9.66-54.96-11.54-83.52-5.57c-6.79,1.42-13.45-2.94-14.87-9.73
		c-1.42-6.79,2.94-13.45,9.73-14.87c80.19-16.75,134.32,25.3,136.59,27.09C574.39,162.58,574.6,162.75,574.79,162.93z"/>
	<polygon class="st6" points="264.7,648.08 337.1,610.1 364.36,681.85 292.63,707.16 	"/>
	<path class="st7" d="M288,644.94c0,0,22.78-4.7,32.47,0s17.97,33.5,17.97,33.5l47.75,3.4l-43.2-81.17l-44.77,21.21L288,644.94z"/>
	<path class="st8" d="M303.81,376.21c-36.7,16.12-53.39,58.93-37.27,95.63l122.9,279.86c16.12,36.7,58.93,53.39,95.63,37.27
		l265.98-116.8c55.69-24.46,91.65-79.53,91.65-140.35V374.29c0-110.63-113.62-184.83-214.92-140.35L303.81,376.21z"/>
	
		<ellipse transform="matrix(0.2289 -0.9735 0.9735 0.2289 14.6682 1167.5553)" class="st9" cx="744.29" cy="574.52" rx="24.42" ry="24.42"/>
	
		<ellipse transform="matrix(0.2289 -0.9735 0.9735 0.2289 213.5974 845.7065)" class="st9" cx="640.6" cy="288.03" rx="24.42" ry="24.42"/>
	
		<ellipse transform="matrix(0.2306 -0.973 0.973 0.2306 -182.5284 686.9742)" class="st9" cx="343.15" cy="458.91" rx="24.42" ry="24.42"/>
	<g class="st10">
		<path class="st11" d="M511.61,614.29l-23.3,23.83l-97.76,84.84l-15.28-3.53l14.18,32.28c1.32,3,2.83,5.85,4.49,8.58
			c11.59-3.13,26.06-7.76,32.32-12.72c11.26-8.9,62.58-80.91,62.58-80.91s15.19-9.43,17.22-14.52c2.03-5.09,5.82-27.37,7.39-31.04
			C515.02,617.43,511.61,614.29,511.61,614.29z"/>
		<path class="st11" d="M423.11,601.2c5.24-0.52,9.14-7.86,9.14-7.86l8.14-3.67l1.05-8.12l-13.62-5.75l-76.38-21.92l-47.47-10.34
			l-2.42,8.01l13.87,31.6l79.67,15.72C395.09,598.89,417.87,601.72,423.11,601.2z"/>
	</g>
	<path class="st8" d="M657.69,541.11l5.32,49.4l28.13,45.54l42.9,43.6l-177.49,77.61l-10.47-85.54l-10.12-45.56l-28.18-48.26
		l147.33-64.11c0,0,1.06,1.71,1.12,3.19C656.29,518.45,657.69,541.11,657.69,541.11z"/>
	<g>
		<path class="st12" d="M655.58,543.96l-126.14,54.49c-2.54,1.1-3.71,4.04-2.61,6.58l35.95,83.22c1.1,2.54,4.04,3.71,6.58,2.61
			l126.14-54.49c2.54-1.1,3.71-4.04,2.61-6.58l-35.95-83.22C661.07,544.04,658.12,542.87,655.58,543.96z"/>
		<path class="st13" d="M643.97,553.12l-99.9,43.16c-2.06,0.89-3,3.28-2.12,5.33l21.6,50.01c0.89,2.06,3.28,3,5.33,2.12l99.9-43.16
			c2.06-0.89,3-3.28,2.12-5.33l-21.6-50.01C648.42,553.18,646.03,552.23,643.97,553.12z"/>
		<path class="st14" d="M629.02,632.47l-16.92,7.31c-2.13,0.92-3.12,3.4-2.19,5.53l6.04,13.99c0.92,2.13,3.4,3.12,5.53,2.19
			l16.92-7.31c2.13-0.92,3.12-3.4,2.19-5.53l-6.04-13.99C633.63,632.53,631.15,631.55,629.02,632.47z"/>
		<path class="st15" d="M650.99,512.95L580.5,543.4l-70.49,30.45c-2.35,1.02-2.98,4.06-1.23,5.93l17.13,18.26
			c0.78,0.83,1.99,1.08,3.04,0.63l63.55-27.45l63.55-27.45c1.04-0.45,1.69-1.51,1.62-2.65l-1.55-24.99
			C655.99,513.56,653.34,511.94,650.99,512.95z"/>
		<path class="st16" d="M657.69,541.11l-1.54-24.87c-0.97-0.9-2.52-1.21-3.99-0.57l-70.49,30.45l-70.49,30.45
			c-1.47,0.64-2.31,1.98-2.32,3.3l17.05,18.17c0.78,0.83,1.99,1.08,3.04,0.63l63.55-27.45l63.55-27.45
			C657.11,543.3,657.76,542.24,657.69,541.11z"/>
		<path class="st17" d="M651.44,542.69l-0.47-20.51c-0.84-0.71-2.21-0.91-3.56-0.33l-64.23,27.75l-64.23,27.75
			c-1.34,0.58-2.14,1.72-2.2,2.81l14.61,14.41c0.67,0.66,1.75,0.82,2.7,0.41l57.91-25.02l57.91-25.02
			C650.84,544.53,651.46,543.63,651.44,542.69z"/>
	</g>
	<path class="st18" d="M588.96,693.18l-5.72-27.47c0,0,5.39-17.44,4.98-20.76c-0.41-3.32-6.31-24.15-6.31-24.15
		s-3.97-0.42-4.82,1.69c-0.85,2.12,0,12.31,0,12.31s-2.97-3.2-3.81-5.11c-0.64-1.44-2.01-15.76-2.64-22.63
		c-0.19-2.07-1.92-3.64-4-3.64l0,0c-2.02,0-3.73,1.5-3.98,3.5l-1.03,8.06l-6.78,1.36l-3.18,7.42l-7.13,15.25l4.49,17.22l10.06,13.29
		l2.12,23.65H588.96z"/>
	<path class="st18" d="M685.06,652.14l-18.91-20.73c0,0-17.29-5.85-19.74-8.13c-2.45-2.28-15.88-19.26-15.88-19.26
		s1.98-3.47,4.2-2.91c2.21,0.55,9.98,7.21,9.98,7.21s-0.86-4.28-1.91-6.08c-0.79-1.37-11.59-10.86-16.79-15.39
		c-1.56-1.36-1.83-3.69-0.61-5.37l0,0c1.18-1.64,3.4-2.14,5.17-1.17l7.14,3.89l5.07-4.7l7.87,1.77l16.54,3.16l11.33,13.72
		l4.88,15.94l17.93,15.57L685.06,652.14z"/>
	
		<rect x="376.72" y="563.21" transform="matrix(0.942 -0.3355 0.3355 0.942 -178.3752 182.2772)" class="st15" width="123.24" height="88.33"/>
	
		<rect x="375.71" y="563.93" transform="matrix(0.942 -0.3355 0.3355 0.942 -177.6679 181.2653)" class="st19" width="120.1" height="81.78"/>
	
		<rect x="370.63" y="557.04" transform="matrix(0.942 -0.3355 0.3355 0.942 -176.6584 179.8772)" class="st15" width="123.24" height="88.33"/>
	<path class="st18" d="M379.97,553.89l14.51,6.11c0,0,16.59-3.49,22.07-1.4c5.48,2.09,21.87,12.53,23.6,13.77
		c1.73,1.24,4.39,7,4.39,8.22c0,1.22-3.51,6.46-7.31,6.81c-3.8,0.35-21.27,0.87-21.27,0.87s4.44,3.84,5.18,4.89
		c0.74,1.05,0.89,4.01,0.3,4.54c-0.59,0.52-14.07-5.24-17.92-6.46c-3.85-1.22-9.63-6.28-10.66-7.33c-1.04-1.05-4.59-5.06-4.59-5.06
		l-15.99-6.47L379.97,553.89z"/>
	<path class="st18" d="M471.47,671.72l10.1-12.08c0,0,16.34-4.5,20.25-8.87c3.91-4.37,2.67-11.29,3.64-13.18s-0.46-14.11,0.38-15
		c3.02-3.21,7.26-6.34,9.76-9.09c4.4-4.84,1.25-7.03-0.97-6.13c-3.54,1.43-26.92,17.3-26.92,17.3s2.19-5.45,2.37-6.72
		c0.18-1.27-1.05-3.97-1.82-4.17s-10.11,11.1-12.97,13.95c-2.86,2.85-5.68,9.99-6.12,11.4c-0.44,1.41-1.76,6.6-1.76,6.6
		l-11.25,13.08L471.47,671.72z"/>
	<g>
		<path class="st20" d="M556.84,374.03l-91.91,30.6c-5.49,1.83-8.45,7.75-6.63,13.24l18.34,55.1c1.83,5.49,7.75,8.45,13.24,6.63
			L581.8,449c5.49-1.83,8.45-7.75,6.63-13.24l-18.34-55.1C568.26,375.17,562.33,372.2,556.84,374.03z"/>
		<path class="st21" d="M582.65,451.54l-91.91,30.6c-6.88,2.29-14.34-1.44-16.63-8.32l-18.34-55.1c-2.29-6.88,1.44-14.34,8.32-16.63
			l91.91-30.6c6.88-2.29,14.34,1.44,16.63,8.32l18.34,55.1C593.26,441.79,589.52,449.25,582.65,451.54z M469.87,405.81
			c-4.08,1.36-6.29,5.78-4.93,9.85l18.34,55.1c1.36,4.08,5.78,6.29,9.85,4.93l87.82-29.24c4.08-1.36,6.29-5.78,4.93-9.85
			l-18.34-55.1c-1.36-4.08-5.78-6.29-9.85-4.93L469.87,405.81z"/>
		<path class="st22" d="M473.24,443.5c0.57,1.71-0.36,3.56-2.07,4.13c-1.71,0.57-3.56-0.36-4.13-2.07
			c-0.57-1.71,0.36-3.56,2.07-4.13C470.83,440.87,472.67,441.79,473.24,443.5z"/>
	</g>
	<polygon class="st8" points="388.7,338.93 475.4,463.47 514.49,453.6 503.47,427.42 480.89,421.05 454.35,373.29 590.42,323.65 
		592.52,302.06 574.61,257.29 	"/>
	<path class="st23" d="M509.66,439.67l-17.96-8.24c-0.9-0.42-1.98-0.14-2.57,0.65l-0.18,0.24c-0.82,1.09-0.41,2.66,0.84,3.21
		l18.14,8.01c1.02,0.45,2.2,0.04,2.73-0.94C511.21,441.51,510.76,440.18,509.66,439.67z"/>
	<path class="st18" d="M471.03,323.65c0,0-5.28,2.22-10.23,2.85c-4.95,0.64-11.24-2.09-15.43-1.43c-4.19,0.67-14.66,8-14.66,8
		l-4.01,9.78l-2.44,16.06l17.98,7.33c0,0,4.62,2.07,12.13-1.94c7.51-4.01,21.04-15.69,21.04-15.69l9.07-4.71L471.03,323.65z"/>
	<path class="st18" d="M483.61,414.38l12.25,4.27c0,0,6.43,6.88,7.61,8.77c1.19,1.9,0,7.59,0,7.59s4.27,4.27,4.03,8.3
		c-0.24,4.03-6.65,9.48-14.7,9.72c-8.06,0.24-16.59,1.19-18.49,0c-1.9-1.19-10.91-19.32-10.91-19.32l-12.8-17.66l24.89-12.09
		L483.61,414.38z"/>
	<path class="st24" d="M224.08,669.14c0,0-3.99-41.94,5.53-55.03c9.52-13.09,61-103.57,65.35-107.18
		c4.35-3.61,95.59,46.68,95.59,46.68s-10.24,24.01-11.31,24.48c-1.07,0.47-68.71-24.13-68.71-24.13l-11.79,37.8l17.51-6.74
		l15.7,35.76c0,0-18.61,11.71-50.23,27.29C250.1,663.66,224.08,669.14,224.08,669.14z"/>
	<path class="st24" d="M259.27,737.68c-0.42,1.09,45.4,34.79,63.09,28.71c17.69-6.07,86.55-23.16,95.93-29.82
		c9.38-6.66,61.02-67.97,61.02-67.97l-16.4-19.95l-54.43,49.27l-37.55,11.63l-17.75-40.41
		C353.18,669.14,277.02,692.13,259.27,737.68z"/>
	<path class="st25" d="M553.3,684.35l40.62-5.39l15.32,55.49l103.84-45.6l-36.02-35.65l24.69-30.07l79.81,65.53
		c0,0,23.39,69.02,22.78,76.64c-0.61,7.62-28.32,65.6-70.34,85.19c-42.02,19.58-98.96-5.75-106.53-7.52
		c-7.56-1.77-52.45-58.76-53.29-60.65C573.36,780.41,553.3,684.35,553.3,684.35z"/>
	<g>
		<path class="st25" d="M594.95,296.83c-5.16-27.53-7.52-89.29-12.67-98.06c-6.73-11.47-22.28-27.55-46.84-37.12
			c0,0-104.94-9.06-128.99,5.74c-24.04,14.8-32.8,144.77-32.75,150.69s80.84,108.73,80.84,108.73l25.64-20.1l-51.85-85.19
			l115.22-50.6l2.07,14.36l-80.45,37.12l15.95,28.53l103.02-35.68C591.83,312.67,596.44,304.81,594.95,296.83z"/>
		<polygon class="st26" points="466.86,417.16 457.15,419.22 374.34,319.76 454.54,426.81 		"/>
		<path class="st26" d="M595.06,302.06c-0.2,0.28-5.06,6.99-12.49,9.81c-7.59,2.88-96.63,30.11-96.63,30.11l-10.54-1.26l5.72,10.24
			l103.02-35.68C590.13,313.25,594.23,308.03,595.06,302.06z"/>
		<path class="st26" d="M428.32,321.53l16.52-121.99c0,0,47.48-4.89,60.75,0c13.27,4.89,33.09,13.75,33.09,13.75l4.87,57.64
			L428.32,321.53z"/>
		<path class="st26" d="M414.12,176.15c0,0,25.1,30.73,25.64,60.93c0.54,30.19,10.32,17.62,10.32,17.62l-5.24-55.16
			C444.84,199.54,431.93,181.73,414.12,176.15z"/>
		<path class="st26" d="M539.76,226.01c0,0-5.54-32.41,10.17-48.12c0,0-19.9,8.73-25.83,31.42
			C518.16,232.01,539.76,226.01,539.76,226.01z"/>
	</g>
	<g>
		<path class="st18" d="M517.65,203.12c0.83-0.3-0.64,22.11-0.64,22.11l-7.35,11.45c0,0-17.1,12.21-20.3,13.7
			c-3.2,1.49-21.85,1.77-21.85,1.77s-5.58,2.67-8.22,1.45c-2.64-1.22-5.42-10.51-5.42-10.51s-10.34-5.58-9.98-26.97
			c0.36-21.38,27.56-30.74,27.56-30.74L517.65,203.12z"/>
		<path class="st18" d="M451.11,163.38c0,0-6.34-2.59-9.96,2.25c-3.61,4.84,2.5,13.85,2.5,13.85L451.11,163.38z"/>
		<path class="st18" d="M535.46,204.16c0,0,4.7,1.32,4.75,5.29c0.05,3.97-9.09,13.65-15.43,12.93
			C518.44,221.66,535.46,204.16,535.46,204.16z"/>
		<path class="st27" d="M440.89,209.4c0,0-3.57-38.69,9.06-57.08c12.63-18.39,26.46-21.58,26.46-21.58s13.11-8.56,29.62-2.74
			c16.51,5.82,30.89,21.17,36.2,37.35c5.31,16.18-2.34,39.61-11.28,51.02c-8.94,11.41-21.28,20.31-21.28,20.31s5.11-15-0.86-15.94
			c0,0-23.96,18.17-39.96,17.16c-16-1.01-19.06-4.26-19.06-4.26s19.54-4.67,27.69-11.41c0,0-22.82,6.81-33.22,6.56l7.69-9.7
			l-5.31,2.57C446.64,221.67,441.28,216.91,440.89,209.4z"/>
	</g>
	<path class="st28" d="M316.25,585.03l-17.51,6.74L288,619c0,0,17.02-2.36,20.95,0c1.83,1.1,5.2,5.75,8.27,10.41
		c9.54-5.37,14.73-8.63,14.73-8.63L316.25,585.03z"/>
	<path class="st28" d="M353.18,669.14c0,0-4.69,1.42-12,4.24c3.17,7.31,7.84,19.66,6.78,27.06c-1.57,11-16.01,19.38-16.01,19.38
		l38.98-10.26L353.18,669.14z"/>
	<path class="st18" d="M658.78,781.04c0,0-6.95-18.88,0.14-29.98c8.26-12.93,30.88-21.39,45.22-15.87
		c21.02,8.09,19.54,14.89,19.54,14.89L658.78,781.04z"/>
	<path class="st27" d="M733.9,751.84c0,0-15.19-16.39-37.77-12.78c-22.59,3.61-27.61,8.36-27.61,8.36l5.87-0.16l-10.49,8.02
		c0,0-12.42,20.31-12.09,34.74c0.33,14.43,7.16,23.66,7.16,23.66s2.66,14.13,9.34,20.18c6.68,6.05,22.75,12.49,34.88,11.24
		c12.13-1.25,22.7-7.68,22.7-7.68s10.28-0.69,18-9.89c7.71-9.2,7.13-19.11,7.13-19.11s7.34-9.08,7.73-14.45
		c0.39-5.37-3.71-18.92-3.71-18.92S749.89,752.65,733.9,751.84z"/>
	<path class="st27" d="M293.3,653.13c0,0-15.19-16.39-37.77-12.78c-22.59,3.61-27.61,8.36-27.61,8.36l5.87-0.16l-10.49,8.02
		c0,0-12.42,20.31-12.09,34.74c0.33,14.43,7.16,23.66,7.16,23.66s2.66,14.13,9.34,20.18c6.68,6.05,22.75,12.49,34.88,11.24
		c12.13-1.25,22.7-7.68,22.7-7.68s10.28-0.69,18-9.89c7.71-9.2,7.13-19.11,7.13-19.11s7.34-9.08,7.73-14.45
		c0.39-5.37-3.71-18.92-3.71-18.92S309.29,653.94,293.3,653.13z"/>
	<path class="st26" d="M609.24,734.45l6.32,25.95l17.28,20.64c0,0,4.71-28.92,27.23-47.56c22.52-18.64,61.79-13.93,67.55-13.66
		c5.76,0.26,27.76,25.98,27.76,25.98l-12.04-32.08l-30.25-24.86L609.24,734.45z"/>
	<path class="st29" d="M797.37,782.31c0,0-42.53,54.71-81.78,65.54c-34.39,9.49-76.16-1.41-85.97-4.25
		c12.9,4.28,65.15,25.17,104.39,6.88C763.92,836.54,786.57,803.15,797.37,782.31z"/>
	<path class="st23" d="M499.87,435.03l-19.97-9.17c-1.01-0.46-2.2-0.16-2.86,0.72l-0.2,0.27c-0.91,1.21-0.46,2.96,0.93,3.57
		l20.17,8.9c1.13,0.5,2.45,0.04,3.03-1.05C501.6,437.08,501.1,435.6,499.87,435.03z"/>
	<rect x="638.25" y="409.71" class="st15" width="123.24" height="88.33"/>
	<rect x="638.25" y="409.71" class="st19" width="120.1" height="81.78"/>
	<rect x="634.59" y="401.85" class="st15" width="123.24" height="88.33"/>
	<g>
		<path class="st30" d="M314.87,469.17c1.08,1.73,3.35,2.26,5.08,1.19l12.76-7.93l-3.89-6.27l-12.76,7.93
			C314.33,465.17,313.8,467.44,314.87,469.17z"/>
		
			<ellipse transform="matrix(0.7071 -0.7071 0.7071 0.7071 -217.8432 375.6544)" class="st30" cx="344.53" cy="450.79" rx="22.71" ry="22.71"/>
		<circle class="st31" cx="344.53" cy="450.79" r="18.36"/>
		<path class="st32" d="M326.93,456c2.25,7.6,9.27,13.14,17.6,13.14c9.3,0,16.97-6.91,18.18-15.88c-2.25-7.6-9.27-13.14-17.6-13.14
			C335.82,440.12,328.14,447.03,326.93,456z"/>
	</g>
	<g>
		<path class="st30" d="M664.19,256.28c-1.44-1.44-3.78-1.44-5.22,0l-10.62,10.62l5.22,5.22l10.62-10.62
			C665.63,260.06,665.63,257.72,664.19,256.28z"/>
		
			<ellipse transform="matrix(0.2306 -0.9731 0.9731 0.2306 217.3907 838.46)" class="st30" cx="638.87" cy="281.77" rx="22.71" ry="22.71"/>
		<circle class="st31" cx="638.87" cy="281.77" r="18.36"/>
		<path class="st32" d="M621.27,286.98c2.25,7.6,9.27,13.14,17.6,13.14c9.3,0,16.97-6.91,18.18-15.88
			c-2.25-7.6-9.27-13.14-17.6-13.14C630.16,271.1,622.48,278.02,621.27,286.98z"/>
	</g>
	<g>
		<path class="st30" d="M759.71,591.09c1.58-1,2.04-3.09,1.04-4.67l-7.38-11.63l-5.71,3.63l7.38,11.63
			C756.04,591.63,758.13,592.1,759.71,591.09z"/>
		
			<ellipse transform="matrix(0.2306 -0.9731 0.9731 0.2306 24.1075 1155.2708)" class="st30" cx="742.56" cy="562.39" rx="20.82" ry="20.82"/>
		<circle class="st31" cx="742.56" cy="562.39" r="16.82"/>
		<path class="st32" d="M726.43,567.17c2.06,6.96,8.5,12.05,16.13,12.05c8.52,0,15.56-6.34,16.67-14.55
			c-2.06-6.96-8.5-12.05-16.13-12.05C734.57,552.61,727.53,558.95,726.43,567.17z"/>
	</g>
	<path class="st18" d="M324.92,669.14c-0.52-1.22-3.56-1.72-6.53-1.9c-11.29-20.93-39.87-21.66-39.87-21.66s-2.28,8.97,9.9,23.83
		c12.18,14.87,12.1,44.31,12.1,44.31s6.41-3.43,12.9-10.56c5.41-5.96,10.75-14.72,8.48-26.27
		C323.7,673.9,325.47,670.45,324.92,669.14z"/>
	<path class="st26" d="M600.3,688.55l-2.86-10.29c-0.72-2.6-3.25-4.28-5.93-3.94l-35.66,4.55c-3.21,0.41-5.35,3.51-4.6,6.66
		l2.66,11.1c0.66,2.74,3.3,4.53,6.09,4.11l35.86-5.36C599.1,694.9,601.17,691.7,600.3,688.55z"/>
	<path class="st26" d="M665.05,647.65l8.34,6.67c2.11,1.69,5.14,1.57,7.11-0.28l26.26-24.56c2.36-2.21,2.28-5.98-0.17-8.09
		l-8.65-7.44c-2.14-1.84-5.33-1.74-7.34,0.23l-25.94,25.33C662.32,641.79,662.5,645.61,665.05,647.65z"/>
</g>
<ellipse class="st25" cx="888.09" cy="104.73" rx="13.27" ry="11.44"/>
<ellipse class="st25" cx="888.09" cy="139.06" rx="13.27" ry="11.44"/>
<ellipse class="st25" cx="888.09" cy="173.38" rx="13.27" ry="11.44"/>
<path class="st132" d="M688.12,110.63h160.9c1.31,0,2.37-1.06,2.37-2.37v-6.62c0-1.31-1.06-2.37-2.37-2.37h-160.9
	c-1.31,0-2.37,1.06-2.37,2.37v6.62C685.75,109.57,686.81,110.63,688.12,110.63z"/>
<path class="st132" d="M688.12,144.73h160.9c1.31,0,2.37-1.06,2.37-2.37v-6.62c0-1.31-1.06-2.37-2.37-2.37h-160.9
	c-1.31,0-2.37,1.06-2.37,2.37v6.62C685.75,143.67,686.81,144.73,688.12,144.73z"/>
<path class="st132" d="M688.12,178.83h160.9c1.31,0,2.37-1.06,2.37-2.37v-6.62c0-1.31-1.06-2.37-2.37-2.37h-160.9
	c-1.31,0-2.37,1.06-2.37,2.37v6.62C685.75,177.77,686.81,178.83,688.12,178.83z"/>
</svg>
