<?xml version="1.0" encoding="utf-8"?>
<!-- Generator: Adobe Illustrator 25.0.0, SVG Export Plug-In . SVG Version: 6.00 Build 0)  -->
<svg version="1.1" id="Layer_1" xmlns="http://www.w3.org/2000/svg" xmlns:xlink="http://www.w3.org/1999/xlink" x="0px" y="0px"
	 viewBox="0 0 1000 1000" style="enable-background:new 0 0 1000 1000;" xml:space="preserve">
<style type="text/css">
	.st0{fill:url(#Path_5768_2_);}
	.st1{fill-rule:evenodd;clip-rule:evenodd;fill:#D1E9F9;}
	.st2{opacity:0.61;fill-rule:evenodd;clip-rule:evenodd;fill:url(#SVGID_1_);}
	.st3{opacity:0.39;}
	.st4{fill:url(#SVGID_2_);}
	.st5{fill:#74818E;}
	.st6{fill:#F89F80;}
	.st7{fill:#F6917C;}
	.st8{opacity:0.2;fill:#39B5E8;}
	.st9{opacity:0.4;fill:#808080;}
	.st10{opacity:0.2;}
	.st11{fill:#39B5E8;}
	.st12{fill:#E5E5E5;}
	.st13{fill:#666766;}
	.st14{fill:#CBCBCA;}
	.st15{fill:#FFFFFF;}
	.st16{fill:#808080;}
	.st17{fill:#A5B4C2;}
	.st18{fill:#FFE7CB;}
	.st19{fill:#C4CBD6;}
	.st20{fill:#647889;}
	.st21{fill:#F8FCFD;}
	.st22{fill:#D4D2D1;}
	.st23{fill:#FEF5EA;}
	.st24{fill:#358DCC;}
	.st25{fill:#F69B6C;}
	.st26{fill:#EA8F68;}
	.st27{fill:#1572BA;}
	.st28{fill:#2383BF;}
	.st29{fill:#E38165;}
	.st30{fill:#F06A45;}
	.st31{fill:#94603D;}
	.st32{fill:#A4704C;}
	.st33{fill:#98C6DB;}
	.st34{opacity:0.25;}
	.st35{fill:#010101;}
	.st36{fill:url(#SVGID_3_);}
	.st37{fill:url(#SVGID_4_);}
	.st38{fill:url(#SVGID_5_);}
	.st39{fill:url(#SVGID_6_);}
	.st40{fill:#1D262D;}
	.st41{opacity:0.25;fill:#010101;}
	.st42{fill:#0C0C0C;}
	.st43{fill:#141416;}
	.st44{fill:#324757;}
	.st45{fill:#0D2033;}
	.st46{fill:#112C46;}
	.st47{fill:url(#SVGID_7_);}
	.st48{fill:url(#SVGID_8_);}
	.st49{fill:url(#Path_5404_1_);}
	.st50{fill:#287EC2;}
	.st51{fill:none;stroke:#7D4848;stroke-miterlimit:10;}
	.st52{opacity:0.581;fill:url(#Ellipse_1259_1_);enable-background:new    ;}
	.st53{fill:#1D8AB6;}
	.st54{fill:#1F374C;}
	.st55{fill:#035C9F;}
	.st56{fill:#EDD7C1;}
	.st57{fill:none;stroke:#32A3D1;stroke-miterlimit:10;}
	.st58{fill:none;stroke:#E0C5A8;stroke-miterlimit:10;}
	.st59{fill:#174672;}
	.st60{fill:none;stroke:#32A3D1;}
	.st61{fill:#4598D3;}
	.st62{fill:#2272B9;}
	.st63{clip-path:url(#SVGID_10_);}
	.st64{fill:#5BC6CF;}
	.st65{fill:#FBBB98;}
	.st66{fill:#5AAADE;}
	.st67{fill:#32A3D1;}
	.st68{fill:none;stroke:#035C9F;stroke-width:3;}
	.st69{fill:#297FC3;}
	.st70{fill:#D7EDFB;}
	.st71{fill:#358DCC;stroke:#035C9F;stroke-width:5;stroke-miterlimit:10;}
	.st72{fill:#035C9F;stroke:#358DCC;stroke-width:2;stroke-miterlimit:10;}
	.st73{fill:url(#Path_5768_3_);}
	.st74{fill:url(#Ellipse_1278_1_);}
	.st75{opacity:0.435;fill:#C8E5F8;enable-background:new    ;}
	.st76{opacity:0.576;fill:#C8E5F8;enable-background:new    ;}
	.st77{fill:none;}
	.st78{fill:none;stroke:#5BC6CF;stroke-width:3;}
	.st79{fill:#035C9F;stroke:#035C9F;stroke-linecap:round;stroke-linejoin:round;}
	.st80{fill:#035C9F;stroke:#035C9F;}
	.st81{fill:url(#Ellipse_1174_1_);}
	.st82{fill:none;stroke:#FFFFFF;stroke-width:2;}
	.st83{fill:#358DCC;stroke:#035C9F;stroke-width:7;stroke-miterlimit:10;}
	.st84{fill:#035C9F;stroke:#358DCC;stroke-width:3;stroke-miterlimit:10;}
	.st85{opacity:0.966;fill:url(#Ellipse_1174_2_2_1_);enable-background:new    ;}
	.st86{opacity:0.966;fill:url(#Ellipse_1174_2_3_1_);enable-background:new    ;}
	.st87{fill:#8AC6EC;}
	.st88{fill:none;stroke:#358DCC;stroke-width:0.3406;}
	.st89{fill:url(#Ellipse_1271_1_);}
	.st90{fill:none;stroke:#358DCC;stroke-width:1.3622;stroke-linecap:round;stroke-miterlimit:10;}
	.st91{fill:none;stroke:#134574;stroke-width:1.3622;stroke-linecap:round;stroke-miterlimit:10;}
	.st92{fill:#153E69;}
	.st93{fill:url(#Rectangle_1705_1_);}
	.st94{fill:#094C82;}
	.st95{opacity:0.195;fill:#1572BA;enable-background:new    ;}
	.st96{fill:#FAB58F;}
	.st97{opacity:0.031;fill:url(#Path_3464_1_);enable-background:new    ;}
	.st98{opacity:0.045;fill:url(#Path_3463_1_);enable-background:new    ;}
	.st99{opacity:0.1;fill:url(#Path_3462_1_);enable-background:new    ;}
	.st100{fill:url(#Subtraction_66-2_1_);}
	.st101{opacity:0.862;fill:#094C82;enable-background:new    ;}
	.st102{fill:url(#Path_3437_1_);}
	.st103{fill:url(#Path_3435-2_1_);}
	.st104{fill:url(#Path_3434-2_1_);}
	.st105{opacity:0.23;fill:none;stroke:#F7F8F8;stroke-width:0.3406;enable-background:new    ;}
	.st106{opacity:0.23;fill:none;stroke:#FFFFFF;stroke-width:0.3406;enable-background:new    ;}
	.st107{fill:url(#SVGID_11_);}
	.st108{fill:#B4D3E9;}
	.st109{fill:#1C54A5;}
	.st110{fill:#5793CE;}
	.st111{fill:#3B78BD;}
	.st112{fill:#D4EAF9;}
	.st113{fill:#639FD5;}
	.st114{fill:#FAFDFF;}
	.st115{fill:#1F3F7A;}
	.st116{fill:#3B6DAB;}
	.st117{fill:url(#SVGID_12_);}
	.st118{fill:#6B6B6B;}
	.st119{fill:#303030;}
	.st120{fill:#FBBC95;}
	.st121{fill:#F9C8A6;}
	.st122{fill:#162735;}
	.st123{fill:#16406F;}
	.st124{fill:#BABABD;}
	.st125{fill:#29AAE1;}
	.st126{fill:url(#SVGID_13_);}
	.st127{fill:url(#SVGID_14_);}
	.st128{fill:url(#SVGID_15_);}
	.st129{fill:url(#SVGID_16_);}
	.st130{fill:url(#SVGID_17_);}
	.st131{fill:url(#SVGID_18_);}
	.st132{opacity:0.25;fill:#606161;}
	.st133{fill:url(#SVGID_19_);}
	.st134{fill:url(#SVGID_20_);}
	.st135{fill:url(#SVGID_21_);}
	.st136{fill:url(#SVGID_22_);}
	.st137{fill:url(#SVGID_23_);}
	.st138{fill:url(#SVGID_24_);}
	.st139{fill:url(#SVGID_25_);}
	.st140{fill:url(#SVGID_26_);}
	.st141{fill:url(#SVGID_27_);}
	.st142{fill:#416AB3;}
	.st143{fill:#F7FAFC;}
	.st144{opacity:0.5;fill:#F4B39A;}
	.st145{opacity:0.3;fill:#F4B39A;}
	.st146{fill:url(#SVGID_28_);}
	.st147{opacity:0.5;fill:#EFA78D;}
	.st148{opacity:0.5;fill:#8FCBE1;}
	.st149{fill:url(#SVGID_29_);}
	.st150{fill:#EAA38E;}
	.st151{fill:#2D55A6;}
	.st152{fill:url(#SVGID_30_);}
	.st153{fill:url(#SVGID_31_);}
	.st154{fill:url(#SVGID_32_);}
	.st155{fill:#EEAC21;}
	.st156{fill:#FBD900;}
	.st157{fill:#DB9A28;}
	.st158{fill:#EEAA1F;}
	.st159{fill:url(#SVGID_33_);}
	.st160{opacity:0.61;fill-rule:evenodd;clip-rule:evenodd;fill:url(#SVGID_34_);}
	.st161{fill:url(#SVGID_35_);}
	.st162{fill:#377BBF;}
	.st163{fill:url(#SVGID_36_);}
	.st164{fill:url(#SVGID_37_);}
	.st165{opacity:0.4;fill:#10113C;}
	.st166{opacity:0.7;}
	.st167{fill:#10113C;}
	.st168{fill:url(#SVGID_38_);}
	.st169{opacity:0.3;fill:#10113C;}
	.st170{fill:url(#SVGID_39_);}
	.st171{fill:url(#SVGID_40_);}
	.st172{fill:url(#SVGID_41_);}
	.st173{fill:url(#SVGID_42_);}
	.st174{fill:#E9975C;}
	.st175{fill:#7ED2EA;}
	.st176{fill:url(#SVGID_43_);}
	.st177{fill:url(#SVGID_44_);}
	.st178{fill:url(#SVGID_45_);}
	.st179{fill:url(#SVGID_46_);}
	.st180{fill:url(#SVGID_47_);}
	.st181{fill:url(#SVGID_48_);}
	.st182{fill:url(#SVGID_49_);}
	.st183{fill:url(#SVGID_50_);}
	.st184{fill:#F9A343;}
	.st185{fill:#FCB96F;}
	.st186{fill:#DF8226;}
	.st187{fill:#FFD842;}
	.st188{fill:#FEE066;}
	.st189{fill:none;stroke:#358DCC;stroke-width:0.3657;}
	.st190{fill:none;stroke:#358DCC;stroke-width:1.4629;stroke-linecap:round;stroke-miterlimit:10;}
	.st191{fill:url(#Ellipse_1369_2_);}
	.st192{fill:#104879;}
	.st193{opacity:0.573;fill:#035C9F;enable-background:new    ;}
	.st194{opacity:0.5;}
	.st195{fill:#133E67;}
	.st196{fill:none;stroke:#1F374C;stroke-width:1.4629;stroke-linecap:round;stroke-miterlimit:10;}
	.st197{fill:#156FB0;}
	.st198{fill:none;stroke:#FBBB98;stroke-width:0.7315;}
	.st199{fill:none;stroke:#5BC6CF;stroke-width:0.7315;}
	.st200{fill:url(#SVGID_51_);}
</style>
<g id="Group_8037" transform="translate(-3613 -17863)">
	
		<linearGradient id="Path_5768_2_" gradientUnits="userSpaceOnUse" x1="4863.5312" y1="20351.0898" x2="4863.5166" y2="20352.543" gradientTransform="matrix(740.5645 0 0 -612.5099 -3597630.75 12484092)">
		<stop  offset="0" style="stop-color:#C8E5F8"/>
		<stop  offset="1" style="stop-color:#FFFFFF"/>
	</linearGradient>
	<path id="Path_5768" class="st0" d="M4123.25,18085.02c138.17,88.17,296.38,127.85,296.38,127.85s174.22,26.46,110.14,224.83
		c-64.08,198.38-72.44,269.42-172.88,274.49c-95.25,2.71-148.76-36.6-243-29.82c-82.79,6.38-139.79,43.67-278.12-10.82
		C3614.1,18573.59,3630.62,17774.22,4123.25,18085.02z"/>
	
		<linearGradient id="Ellipse_1278_1_" gradientUnits="userSpaceOnUse" x1="4865.3281" y1="20075.9297" x2="4865.3281" y2="20073.6445" gradientTransform="matrix(471 0 0 -54 -2287465.25 1102611.5)">
		<stop  offset="0" style="stop-color:#358DCC"/>
		<stop  offset="1" style="stop-color:#287EC2;stop-opacity:0.051"/>
	</linearGradient>
	<ellipse id="Ellipse_1278" class="st74" cx="4104.28" cy="18603.88" rx="268.62" ry="30.8"/>
	<path id="Path_5770" class="st75" d="M3911.62,18140.16c-28.1-23.36-96.19,14.93-137.7-37.01
		c-41.51-51.94-70.43,28.36-130.97,23.74c-60.54-4.62,65.95,142.94,168.46,97.63c26.65-11.79,87.1-10.81,100.2-17.89
		C3947.45,18187.27,3939.72,18163.52,3911.62,18140.16z"/>
	<path id="Path_5769" class="st76" d="M4556.3,18518.53c-28.13,18.09-85.69-24.29-129.18,18.25c-43.49,42.54-60.8-33.61-116.3-36.17
		c-55.5-2.56,84.6-102.48,172.65-49.9c22.89,13.67,92.66-3.65,103.77,4.24C4617.62,18476.53,4584.43,18500.44,4556.3,18518.53z"/>
	<g id="Group_7596" transform="translate(291.745 245)">
		
			<ellipse id="Ellipse_1421" transform="matrix(0.866 -0.5 0.5 0.866 -8537.8037 4326.9263)" class="st77" cx="3805.05" cy="18094.82" rx="285.72" ry="84.41"/>
		<g id="Group_7563_2_" transform="translate(-81 162)">
			<g id="Group_5542_2_" transform="translate(416 194)">
				<circle id="Ellipse_1168_2_" class="st24" cx="3470.17" cy="17743.96" r="208.85"/>
				<g id="Group_7591" transform="translate(10647 19952)">
					<path id="Intersection_7-2_2_" class="st79" d="M-7232.95-2007.52c4.45-13.12,4.9-3.31,1.71-27.95
						c-3.65-27.49,13.23-17.57-3.42-40.61s-24.87-43.69-21.67-51.22c3.19-7.53,4.56-20.19,14.6-26.58
						c10.04-6.39-20.42-14.37-22.36-18.59c-1.94-4.22,5.02-3.42-22.13-12.89c-27.26-9.47-30.57,5.93-40.26-20.07
						c-9.7-26.01-6.96-8.21-19.85-32.85c-12.89-24.64-13.69-20.42-7.3-36.27c6.39-15.86,16.77-0.91,0-26.8
						c-1.96-3.02-3.31-6.39-3.99-9.92c10.1-17.62,22.7-33.68,37.41-47.68c12.2,0.23,29.09-0.91,37.41-8.33
						c14.03-12.32,13-3.99,15.74-18.71c0.69-3.3,0.91-6.68,0.68-10.04c1.82-0.91,3.76-1.71,5.7-2.62c0.35,0.79,0.81,1.52,1.37,2.17
						c4.22,4.79,4.9,18.14,13.69,10.49s5.59-16.2,14.37-16.08c8.9,0,20.53,8.9,20.53,8.9s7.64,11.75,5.25,19.28
						s-7.07,11.52-9.81,6.73c-2.74-4.79-3.42-4.22-2.97-10.72c0.46-6.5-10.95-10.15-13.12-3.99c-2.17,6.16,1.94,5.59-8.1,11.18
						c-10.04,5.59-29.2,8.9-38.55,19.05c-9.35,10.15-18.02,9.7-8.44,14.94s18.14,6.96,26.92,0c8.78-6.96,21.1-6.27,24.64-14.94
						c3.65-8.67-12.32-17,7.87-10.72c20.19,6.16,27.26,3.76,39.35,10.72s32.05,15.86,28.52,31.02
						c-3.54,15.17-12.55,14.37-24.29,12.89c-11.75-1.48-11.86-11.86-15.97,0s3.08,7.41-11.41,21.1c-5.93,5.59-8.21,4.68-9.7,3.76
						c-2.28-1.25-2.97-2.62-10.84,16.43c-13.35,32.05-3.29,39.47-14.37,42.55c-11.08,3.08-1.03-1.94-13.69-14.49
						c-12.66-12.55-4.79-22.93-18.48-10.49c-13.8,12.55-15.74,11.63-16.54,22.7c-0.8,11.07-14.94,9.35,0,16.88
						c14.94,7.53,4.79,11.86,19.05,7.41s18.48-6.62,18.93,2.51c0.46,9.12-6.62,5.25,0,13.91c6.62,8.67,1.03,10.49,29.54,22.7
						c28.52,12.09,56.46,24.07,62.05,27.49c5.59,3.54,27.95-0.68,27.03,16.08c-0.8,11.51-4.36,22.66-10.38,32.51
						c-1.6,2.74-21.79,29.66-39.58,46.65c-17.45,16.77-14.37,22.59-22.93,37.64C-7218.01-2003.87-7225.54-2005.46-7232.95-2007.52z"
						/>
				</g>
				<g id="Group_7592" transform="translate(10647 19952)">
					<path id="Intersection_8-2_2_" class="st79" d="M-7138.51-2369.78c-17.68-15.51-13.35,0.68-20.07-17.91s27.83-0.46-14.49-22.02
						c-4.9-2.51-9.47-4.56-13.69-6.27c3.31-0.11,6.5-0.23,9.81-0.23c28.77,0,57.24,5.94,83.61,17.45
						c-4.9,10.27,5.36,9.12-9.35,11.06c-3.71,0.54-7.51-0.09-10.84-1.82c-4.56-2.4-5.25-4.79-6.04,6.73
						c-1.25,17.34,13.35,23.04,0,21.1c-4.22-0.57-5.82-0.11-6.73,0.34c-0.57,0.34-0.8,0.68-1.25,0.68
						C-7128.35-2360.66-7130.07-2362.37-7138.51-2369.78z"/>
				</g>
				<g id="Group_7593" transform="translate(10647 19952)">
					<path id="Intersection_5-2_2_" class="st80" d="M-6995.81-2272.83c-11.29-15.4-5.7-17.57-15.63-18.93s-10.49-1.37-16.08,2.74
						c-5.59,4.11-1.48,7.3-9.7,8.33s-9.35,15.06-10.95,0c-1.6-15.06-2.28-14.37,0-17.79c2.28-3.31-1.48-3.99,4.33-4.45
						c1.94-0.11,2.74,2.17,3.08,4.45c0.8,4.45,0,9.01,3.54-4.45c5.36-20.42,2.4-21.67,9.7-21.44c1.66,0.16,3.31-0.38,4.56-1.48
						c1.71-1.48,1.82-2.97,6.96,1.48c3.08,2.74,1.03,2.39-0.68,1.94c-2.39-0.57-3.88-1.14,12.89,7.76c3.13,1.64,6.15,3.51,9.01,5.59
						c6.3,11.3,11.5,23.18,15.51,35.47c-3.88,3.65-5.82,7.53-8.67,7.53C-6989.77-2265.99-6992.16-2267.81-6995.81-2272.83z"/>
				</g>
				<g id="Group_7594" transform="translate(10647 19952)">
					<path id="Intersection_6-2_2_" class="st80" d="M-7011.44-2101.62c0.23-5.13-6.04,4.91,0-20.3c6.05-25.21,9.12-4.79,6.62-33.54
						c-2.51-28.75-3.88-28.52-6.62-29.88s-0.11-4.91-8.67,0c-8.55,4.91,0.46,14.03-12.66,6.27c-5.13-2.97-7.98-2.17-9.92-1.37
						c-2.97,1.25-3.31,2.62-5.59-11.18c-3.65-22.47-8.44-11.41-3.42-26.12c4.9-14.6-4.56-3.88,6.05-24.41
						c10.61-20.53-1.14-25.66,12.89-31.14c14.03-5.48,15.4-15.06,21.33-5.13s-0.68,15.63,6.62,18.71c3.42,1.48,3.99,0.57,4.56-0.34
						c0.8-1.03,1.6-2.17,6.96,0.34c9.92,4.68,8.44,0.57,12.78,14.03c4.33,13.46,0.8,7.98,7.87,20.87c0.94,1.86,2.17,3.55,3.65,5.02
						c0.23,3.88,0.34,7.76,0.34,11.63c0.1,39.94-11.39,79.04-33.08,112.58C-7007.56-2097.06-7011.55-2099.11-7011.44-2101.62z"/>
				</g>
				<path id="Path_4933_2_" class="st77" d="M3620.62,17616.89c-16.08-10.95-21.79-10.27-17.91-13.8c3.88-3.54,1.25-16.2,11.52-3.76
					c10.27,12.43,10.04,10.15,13,17.45C3630.2,17624.08,3620.62,17616.89,3620.62,17616.89z"/>
			</g>
			<g id="Group_5546_2_" transform="translate(446.38 271.019)">
				<g id="Group_5545_2_" transform="translate(-282.8 -240.784)">
					
						<linearGradient id="Ellipse_1174_1_" gradientUnits="userSpaceOnUse" x1="4529.7402" y1="18823.6738" x2="4529.7402" y2="18822.1094" gradientTransform="matrix(53.14 0 0 -14.66 -237114.5781 293784.9688)">
						<stop  offset="0" style="stop-color:#358DCC"/>
						<stop  offset="1" style="stop-color:#035C9F"/>
					</linearGradient>
					<ellipse id="Ellipse_1174_2_" class="st81" cx="3595.81" cy="17844.49" rx="30.31" ry="8.36"/>
				</g>
				<g id="Group_5544_2_" transform="translate(-271.73 -277.049)">
					<path id="Path_4934_2_" class="st65" d="M3603.42,17849.11c0,10.04-18.18,31.77-18.18,31.77s-18.18-21.95-18.18-31.77
						c0.02-10.03,8.17-18.14,18.19-18.12c1.99,0,3.96,0.33,5.84,0.98C3598.47,17834.43,3603.44,17841.34,3603.42,17849.11z"/>
					<g id="Ellipse_1173_2_" transform="translate(8.531 8.657)">
						<circle id="Ellipse_1422" class="st55" cx="3576.27" cy="17840.31" r="8.19"/>
						<circle id="Ellipse_1423" class="st82" cx="3576.5" cy="17840.71" r="7.75"/>
					</g>
				</g>
			</g>
		</g>
		<path id="Path_6143" class="st64" d="M4052.46,17951.9c-11.86-20.42-50.07-23.61-107.9-8.67c-0.23,0.11-0.57,0.11-0.8,0.23
			l3.08,2.74c54.52-13.8,91.82-11.18,102.66,7.41c10.49,18.14-5.02,50.99-42.55,90.22c-38.55,40.27-95.81,83.27-161.4,121.14
			s-131.52,66.04-185.58,79.27c-52.7,12.89-88.97,9.92-99.35-8.21c-10.38-17.91,4.68-50.19,41.06-88.63
			c-0.34-1.37-0.57-2.74-0.91-3.99c-39.35,41.06-54.64,74.48-43.23,94.45c6.84,11.86,22.81,17.91,46.31,17.91
			c15.74,0,34.79-2.62,56.8-8.1c54.41-13.35,120.68-41.63,186.49-79.62c65.81-37.98,123.42-81.21,162.2-121.71
			C4048.69,18005.29,4063.98,17971.75,4052.46,17951.9z"/>
		<g id="Group_7595">
			
				<ellipse id="Ellipse_1428" transform="matrix(0.5 -0.866 0.866 0.5 -13767.9766 12342.4463)" class="st77" cx="3805.04" cy="18094.81" rx="84.41" ry="285.72"/>
		</g>
		<path id="Path_6144" class="st64" d="M3666.81,17943.58c-1.14-0.34-2.28-0.57-3.42-0.91l-0.8,3.31c0.46,0.12,0.8,0.23,1.25,0.34
			C3664.87,17945.4,3665.9,17944.38,3666.81,17943.58z"/>
		<path id="Path_6145" class="st55" d="M3865.17,17893.5c-15.85-54.41-37.18-84.41-60.11-84.41c-24.07,0-46.08,32.51-62.05,91.48
			c1.25-0.46,2.62-0.8,3.88-1.25c15.28-55.21,36.5-86.8,58.17-86.8c20.99,0,41.63,29.88,56.8,81.9
			c15.63,53.5,24.18,124.67,24.18,200.41s-8.55,146.91-24.18,200.41c-15.17,52.13-35.93,81.9-56.8,81.9
			c-20.3,0-39.81-26.8-54.98-75.62c-1.37-0.34-2.74-0.8-3.88-1.14c15.74,51.67,36.61,80.19,58.86,80.19
			c22.93,0,44.26-30,60.11-84.41c15.63-53.84,24.3-125.24,24.3-201.32S3880.79,17947.34,3865.17,17893.5z"/>
		<path id="Path_6146" class="st65" d="M4009.46,18143.42c-0.23,1.03-0.57,2.28-0.91,3.99c36.5,38.55,51.33,70.61,41.06,88.63
			c-10.49,18.14-46.65,21.1-99.35,8.21c-54.07-13.23-120-41.4-185.58-79.27c-65.59-37.87-122.85-80.87-161.4-121.14
			c-37.53-39.12-53.04-72.09-42.55-90.22c10.72-18.48,47.79-21.21,101.97-7.64l0.8-3.31c-56.58-14.26-94.1-10.95-105.74,9.24
			c-11.41,19.85,3.88,53.38,43,94.22c38.78,40.49,96.38,83.72,162.2,121.71c65.81,37.98,132.09,66.27,186.49,79.62
			c22.01,5.36,41.06,8.1,56.8,8.1c23.5,0,39.47-6.05,46.31-17.91C4063.98,18217.79,4048.69,18184.37,4009.46,18143.42z"/>
	</g>
	<g id="Group_6236" transform="translate(145.952 -1488.371)">
		<path id="Subtraction_83_1_" class="st55" d="M3985.12,19591.11h-68.99v-78.85h45.33l23.67,23.67V19591.11L3985.12,19591.11z"/>
		<g id="Group_5946_1_" transform="translate(335.564 1706.893)">
			<g id="Group_5947_1_">
				<path id="Subtraction_81_1_" class="st24" d="M3649.55,17884.22h-68.98v-78.85h45.33v23.65h23.65V17884.22z"/>
				<rect id="Rectangle_2799_1_" x="3592.4" y="17842.82" class="st70" width="43.36" height="3.94"/>
				<rect id="Rectangle_2800_1_" x="3592.4" y="17852.68" class="st70" width="43.36" height="3.94"/>
				<rect id="Rectangle_2801_1_" x="3592.4" y="17862.53" class="st70" width="43.36" height="3.94"/>
			</g>
		</g>
	</g>
	<g id="Group_6234" transform="translate(150 -1388.529)">
		<g id="Group_5943_1_" transform="translate(542.703 1726.066)">
			<g id="video-player_1_" transform="translate(0 0)">
				<rect id="Rectangle_2785_1_" x="3615.97" y="17824.53" class="st83" width="73.52" height="59.8"/>
				<path id="Path_5563_1_" class="st70" d="M3645.9,17864.82v-20.78l16.33,10.39L3645.9,17864.82z"/>
				<rect id="Rectangle_2786_1_" x="3610.28" y="17822.11" class="st84" width="14.84" height="16.14"/>
				<rect id="Rectangle_2787_1_" x="3610.28" y="17838.25" class="st84" width="14.84" height="16.14"/>
				<rect id="Rectangle_2788_1_" x="3610.28" y="17854.38" class="st84" width="14.84" height="16.14"/>
				<rect id="Rectangle_2789_1_" x="3610.28" y="17870.52" class="st84" width="14.84" height="16.14"/>
				<rect id="Rectangle_2790_1_" x="3678.55" y="17822.11" class="st84" width="14.84" height="16.14"/>
				<rect id="Rectangle_2791_1_" x="3678.55" y="17838.25" class="st84" width="14.84" height="16.14"/>
				<rect id="Rectangle_2792_1_" x="3678.55" y="17854.38" class="st84" width="14.84" height="16.14"/>
				<rect id="Rectangle_2793_1_" x="3678.55" y="17870.52" class="st84" width="14.84" height="16.14"/>
			</g>
		</g>
	</g>
	<g id="Group_6238" transform="translate(271.865 -1157.387)">
		<path id="Subtraction_82_1_" class="st59" d="M4114.23,19674.61h-67.86v-77.55h44.54l23.31,23.31V19674.61L4114.23,19674.61z"/>
		<g id="Group_5944_1_" transform="translate(434.221 1740.425)">
			<path id="Subtraction_81-2_1_" class="st24" d="M3680,17934.19h-67.85v-77.55h44.58v23.26H3680V17934.19z"/>
			<path id="Path_5568_1_" class="st15" d="M3630.79,17907.13v5.72h-2.68v-15.41h5.89c1.49-0.08,2.95,0.4,4.11,1.34
				c1.01,0.9,1.57,2.2,1.52,3.55c0.07,1.34-0.47,2.64-1.48,3.53c-1.19,0.91-2.67,1.35-4.17,1.26H3630.79z M3630.79,17904.98h3.21
				c0.79,0.05,1.56-0.19,2.18-0.68c0.53-0.51,0.8-1.22,0.75-1.95c0.03-0.74-0.24-1.46-0.76-1.99c-0.57-0.52-1.32-0.8-2.09-0.77
				h-3.29L3630.79,17904.98z M3641.97,17912.85v-15.41h4.55c1.27-0.02,2.52,0.29,3.62,0.91c1.05,0.6,1.91,1.5,2.46,2.58
				c0.6,1.19,0.89,2.5,0.87,3.83v0.78c0.03,1.34-0.27,2.66-0.88,3.85c-0.56,1.08-1.43,1.97-2.49,2.56c-1.13,0.62-2.41,0.93-3.7,0.9
				L3641.97,17912.85z M3644.65,17899.6v11.12h1.74c1.22,0.08,2.42-0.41,3.24-1.32c0.82-1.09,1.22-2.43,1.14-3.79v-0.86
				c0.09-1.36-0.29-2.72-1.09-3.83c-0.79-0.91-1.96-1.4-3.16-1.32L3644.65,17899.6z M3665.01,17906.32h-6.2v6.53h-2.68v-15.41h9.79
				v2.16h-7.11v4.58h6.2V17906.32z"/>
		</g>
	</g>
	<g id="Group_6245" transform="translate(-171.554 -1168.422)">
		<path id="Subtraction_82-2_1_" class="st55" d="M4052.91,19674.24h-68.89v-78.73h45.26l23.64,23.63V19674.24L4052.91,19674.24z"/>
		<g id="Group_5944-2_1_" transform="translate(434.221 1740.425)">
			<g id="Group_6246_1_">
				<path id="Subtraction_81-3_1_" class="st24" d="M3618.68,17933.81h-68.88v-78.73h45.26v23.61h23.61L3618.68,17933.81
					L3618.68,17933.81z"/>
				<path id="Path_5690_1_" class="st15" d="M3563.73,17915.62v-15.78h4.66c1.3-0.03,2.58,0.3,3.71,0.93
					c1.08,0.62,1.95,1.54,2.51,2.64c0.61,1.21,0.92,2.56,0.89,3.92v0.8c0.03,1.37-0.28,2.72-0.9,3.94
					c-0.57,1.11-1.46,2.02-2.55,2.62c-1.16,0.63-2.47,0.95-3.79,0.92H3563.73z M3566.47,17902.05v11.38h1.79
					c1.25,0.08,2.47-0.42,3.31-1.35c0.84-1.11,1.26-2.49,1.18-3.88v-0.88c0.09-1.4-0.3-2.79-1.12-3.92
					c-0.81-0.94-2.01-1.44-3.24-1.36H3566.47z M3590.82,17908.15c0.03,1.4-0.24,2.79-0.8,4.07c-0.48,1.1-1.28,2.04-2.29,2.68
					c-1.03,0.63-2.22,0.96-3.42,0.93c-1.21,0.02-2.39-0.3-3.42-0.93c-1.02-0.64-1.82-1.57-2.32-2.67c-0.57-1.26-0.86-2.62-0.84-4
					v-0.89c-0.03-1.4,0.25-2.79,0.82-4.08c0.49-1.11,1.29-2.05,2.31-2.7c1.03-0.64,2.21-0.96,3.42-0.94
					c1.21-0.02,2.39,0.3,3.42,0.93c1.01,0.64,1.81,1.57,2.3,2.67c0.57,1.27,0.85,2.66,0.82,4.05L3590.82,17908.15z
					 M3588.07,17907.32c0.09-1.41-0.26-2.81-0.99-4.02c-0.63-0.92-1.7-1.45-2.81-1.4c-1.1-0.04-2.15,0.49-2.78,1.39
					c-0.74,1.18-1.1,2.56-1.03,3.95v0.91c-0.09,1.41,0.27,2.81,1.01,4.02c0.64,0.92,1.7,1.46,2.82,1.42
					c1.11,0.05,2.16-0.47,2.79-1.38c0.73-1.22,1.07-2.63,0.98-4.05V17907.32z M3598.98,17905.54l3.32-5.7h3.17l-4.77,7.83l4.87,7.95
					h-3.2l-3.39-5.79l-3.4,5.79h-3.19l4.89-7.95l-4.78-7.83h3.16L3598.98,17905.54z"/>
			</g>
		</g>
	</g>
	<g id="Group_6233" transform="translate(-296.806 -1465.195)">
		<g id="Group_5938_1_" transform="translate(563.096 1796.096)">
			<rect id="Rectangle_2794_1_" x="3550.31" y="17821.18" class="st69" width="64.2" height="67.41"/>
			<path id="music-player_1_" class="st70" d="M3600.18,17834.19c-0.16-0.14-0.38-0.21-0.6-0.18l-23.51,3.04
				c-0.38,0.05-0.66,0.37-0.66,0.75v27.5c-1.45-1.61-3.52-2.51-5.69-2.48c-3.98,0-7.2,2.87-7.2,6.4c0,3.54,3.22,6.4,7.2,6.4
				s7.2-2.87,7.2-6.4c0-0.25-0.02-0.5-0.05-0.74c0.03-0.08,0.05-0.17,0.05-0.26v-22l21.99-2.85v14.35
				c-1.45-1.61-3.52-2.51-5.69-2.48c-3.98,0-7.2,2.87-7.2,6.4s3.22,6.4,7.2,6.4s7.2-2.87,7.2-6.4c0-0.07-0.01-0.14-0.01-0.21
				c0-0.02,0.01-0.04,0.01-0.06v-26.61C3600.44,17834.54,3600.34,17834.33,3600.18,17834.19z"/>
		</g>
	</g>
	<g id="Group_5546_2_2" transform="translate(930.126 748.26)">
		<g id="Group_5545_2_2" transform="translate(-272.8 -242.161)">
			
				<linearGradient id="Ellipse_1174_2_2_1_" gradientUnits="userSpaceOnUse" x1="4277.0664" y1="18008.1152" x2="4277.0664" y2="18006.3516" gradientTransform="matrix(31.888 0 0 -8.796 -132763.6094 176239.7188)">
				<stop  offset="0" style="stop-color:#358DCC"/>
				<stop  offset="1" style="stop-color:#035C9F"/>
			</linearGradient>
			<ellipse id="Ellipse_1174_2_2" class="st85" cx="3623.49" cy="17850.83" rx="18.19" ry="5.02"/>
		</g>
		<g id="Group_5544_2_2" transform="translate(-275.269 -280.049)">
			<g id="Group_7603" transform="translate(8.87 13.933)">
				<path id="Path_4934_2_2" class="st64" d="M3629.33,17853.95c0,6.38-11.57,20.21-11.57,20.21s-11.57-13.96-11.57-20.21
					c0.01-6.38,5.2-11.54,11.57-11.52c1.26,0,2.52,0.21,3.71,0.62C3626.18,17844.61,3629.34,17849,3629.33,17853.95
					L3629.33,17853.95z"/>
				<g id="Ellipse_1173_2_2" transform="translate(4.957 5.158)">
					<circle id="Ellipse_1422-2" class="st55" cx="3612.53" cy="17848.7" r="5.21"/>
					<circle id="Ellipse_1423-2" class="st82" cx="3612.68" cy="17848.95" r="4.93"/>
				</g>
			</g>
			<g id="Group_5546_2_3" transform="translate(107.269 408.941)">
				<g id="Group_5545_2_3" transform="translate(-282.8 -257.222)">
					
						<linearGradient id="Ellipse_1174_2_3_1_" gradientUnits="userSpaceOnUse" x1="4456.6357" y1="17832.4238" x2="4456.6357" y2="17830.6602" gradientTransform="matrix(30.894 0 0 -8.522 -134085.4219 169824.4375)">
						<stop  offset="0" style="stop-color:#358DCC"/>
						<stop  offset="1" style="stop-color:#035C9F"/>
					</linearGradient>
					<ellipse id="Ellipse_1174_2_3" class="st86" cx="3597.89" cy="17866.69" rx="17.62" ry="4.86"/>
				</g>
				<g id="Group_5544_2_3" transform="translate(-276.365 -280.049)">
					<path id="Path_4934_2_3" class="st87" d="M3602.31,17869.12c0,5.83-10.57,18.47-10.57,18.47s-10.57-12.76-10.57-18.47
						c0.01-5.83,4.75-10.54,10.58-10.53c1.16,0,2.3,0.2,3.4,0.57C3599.43,17860.59,3602.33,17864.61,3602.31,17869.12z"/>
					<g id="Ellipse_1173_2_3" transform="translate(4.531 4.715)">
						<circle id="Ellipse_1422-3" class="st55" cx="3586.96" cy="17864.33" r="4.76"/>
						<circle id="Ellipse_1423-3" class="st82" cx="3587.09" cy="17864.56" r="4.51"/>
					</g>
				</g>
			</g>
		</g>
	</g>
</g>
</svg>
