<svg xmlns="http://www.w3.org/2000/svg" xmlns:xlink="http://www.w3.org/1999/xlink" viewBox="0 0 589.62 502.69"><defs><style>.cls-1{isolation:isolate;}.cls-2{fill:url(#linear-gradient);}.cls-3{fill:url(#linear-gradient-2);}.cls-4{fill:url(#linear-gradient-3);}.cls-5{fill:none;stroke:#fff;stroke-linecap:round;stroke-linejoin:round;stroke-width:1.27px;opacity:0.53;}.cls-6{fill:#6097b2;}.cls-7{fill:#8bbddb;}.cls-8{fill:#9bcfea;}.cls-9{fill:#288ed9;}.cls-10{fill:#ffe7cb;}.cls-11{fill:#e08d7e;opacity:0.26;}.cls-12{fill:url(#linear-gradient-4);}.cls-13{fill:#152735;}.cls-14{fill:#fff;}.cls-15{fill:#ef6e4b;}.cls-16{fill:#ff8b66;}.cls-17{fill:#21e2e2;}.cls-18{fill:#1f364c;}.cls-19{fill:url(#linear-gradient-5);}.cls-20{fill:#0e71bb;}.cls-21{fill:url(#linear-gradient-6);}.cls-22{fill:url(#linear-gradient-7);}.cls-23{fill:#197bdd;}.cls-24{fill:#0050af;}.cls-25{fill:#4ea4f9;}.cls-26{fill:#bc8861;}.cls-27{fill:#f2a668;}.cls-28{fill:#ffb878;}.cls-29{fill:#0c3d4c;opacity:0.1;mix-blend-mode:multiply;}.cls-30{fill:url(#linear-gradient-8);}</style><linearGradient id="linear-gradient" x1="294.81" y1="502.69" x2="294.81" gradientUnits="userSpaceOnUse"><stop offset="0" stop-color="#c6e6ff"/><stop offset="1" stop-color="#fff"/></linearGradient><linearGradient id="linear-gradient-2" x1="60.35" y1="356.14" x2="30.85" y2="356.14" gradientUnits="userSpaceOnUse"><stop offset="0" stop-color="#ffbc98"/><stop offset="1" stop-color="#ff9f6c"/></linearGradient><linearGradient id="linear-gradient-3" x1="30.3" y1="357.11" x2="62.92" y2="357.11" xlink:href="#linear-gradient-2"/><linearGradient id="linear-gradient-4" x1="165.47" y1="322.18" x2="182.56" y2="322.18" gradientUnits="userSpaceOnUse"><stop offset="0" stop-color="#18bfe3"/><stop offset="0.37" stop-color="#14a8db"/><stop offset="1" stop-color="#0d79c9"/></linearGradient><linearGradient id="linear-gradient-5" x1="186.13" y1="305.72" x2="213.02" y2="305.72" xlink:href="#linear-gradient-4"/><linearGradient id="linear-gradient-6" x1="205.36" y1="304.98" x2="217.37" y2="304.98" xlink:href="#linear-gradient-4"/><linearGradient id="linear-gradient-7" x1="207.42" y1="325.07" x2="231.57" y2="325.07" xlink:href="#linear-gradient-4"/><linearGradient id="linear-gradient-8" x1="241.81" y1="352.86" x2="583.39" y2="352.86" gradientUnits="userSpaceOnUse"><stop offset="0" stop-color="#80c9ff"/><stop offset="1" stop-color="#2a83ff"/></linearGradient></defs><g class="cls-1"><g id="Layer_2" data-name="Layer 2"><g id="Layer_1-2" data-name="Layer 1"><path class="cls-2" d="M587.55,231.1c-8.22,75-42.57,155.66-129.16,210.35-3,1.88-5.94,3.7-8.92,5.5q-6.14,3.66-12.27,7.07a406.16,406.16,0,0,1-58.86,26.92c-4,1.44-7.94,2.8-11.9,4.07s-7.8,2.48-11.7,3.6a357.3,357.3,0,0,1-49.29,10.64c-95,13.55-181.18-14.11-237.11-62.29A215.28,215.28,0,0,1,40.57,408.3,189.32,189.32,0,0,1,21.76,380C-27,290.16,10.63,182.38,90.3,155.16c87.33-29.85,128.23-4.42,229.93-88.43S524.45-27.14,566,66.92c6.93,15.72,13.42,36.73,17.84,61.09A361.8,361.8,0,0,1,587.55,231.1Z"/><path class="cls-3" d="M43.23,395.91s3.1-6.6-1.35-10.11-12.94-8.63-10.65-10.92,4.45,3.1,7.69,1.62,2-19.28-1.89-24.27-7.14-8-4.31-11.32,5.39,7,9.16,4.85-6.6-16.71-4.17-24.13,8.89-6.33,8.22-.81-.94,17.26,2.43,21.57,12-10.65,12-2.56-8,14.29-8.35,25.35-1.62,13.88,2.42,11.46,8,.67,4.32,4.31-7.69,9.44-6.2,13.75Z"/><path class="cls-4" d="M44.51,395.28s4.34-10.6-4.76-18.69-11.58-19-7.65-20.85,4.34,6.83,7.24,9.71,5.58-6.12,4.55-10.79-8.27-11.86-3.72-17.08,4.55,5.58,7,8.45,7.24-7.73,6.2-12.94-2.27-16.36,2.9-14,5.37,14,.82,20.67-7.85,12-6.82,16.18,3.1,3.95,6-.54,6.62-5.39,6.62.54S47,377,50.51,395.46Z"/><path class="cls-5" d="M47.68,393.76s2.43-12.68.41-23.19-1.76-18.2-.27-20.76"/><polygon class="cls-6" points="59.17 417.35 61.11 396.68 34.51 396.68 36.45 417.35 59.17 417.35"/><polygon class="cls-7" points="62.41 397.94 62.9 392.72 32.72 392.72 33.21 397.94 62.41 397.94"/><polygon class="cls-8" points="129.53 327.7 94.44 335.8 84.76 293.82 99.95 290.32 119.84 285.72 122.23 296.09 129.53 327.7"/><polygon class="cls-7" points="122.23 296.09 100.29 297.15 99.95 290.32 119.84 285.72 122.23 296.09"/><polygon class="cls-8" points="336.91 158.16 307.72 175.01 261.55 201.68 229.48 146.13 304.85 102.63 329.66 145.59 336.91 158.16"/><polygon class="cls-7" points="336.91 158.16 307.72 175.01 304.57 148.58 329.66 145.59 336.91 158.16"/><polygon class="cls-8" points="439.72 224.96 355.95 234.93 319.34 239.28 309.24 154.33 429.62 140.02 439.41 222.43 439.72 224.96"/><polygon class="cls-7" points="439.72 224.96 355.95 234.93 369.84 200.21 439.41 222.43 439.72 224.96"/><rect class="cls-8" x="101.81" y="237.2" width="45.89" height="54.91" transform="translate(-12.6 6.32) rotate(-2.76)"/><rect class="cls-8" x="147.84" y="149.22" width="58.96" height="74.97" transform="translate(140.18 -68.09) rotate(35.23)"/><polygon class="cls-8" points="511.23 254.44 491.83 313.77 478.81 353.6 337.09 307.25 346.01 279.98 360.93 234.34 369.51 208.09 426.08 226.59 511.23 254.44"/><path class="cls-9" d="M174.64,377.88S174,386.83,192,390s14.24-73.76,14.24-73.76l-23.11,9.5Z"/><path class="cls-10" d="M184.51,305.05c-9,2.82-11.83,12.22-18.5,34.79,0,0-21.48,13.31-27.11,12.71l1.86,4.19s22.22-.77,29.49-4.42C176,349.45,183,335,185.83,327.43S184.51,305.05,184.51,305.05Z"/><path class="cls-11" d="M184.51,305.05c-9,2.82-11.83,12.22-18.5,34.79,0,0-21.48,13.31-27.11,12.71l1.86,4.19s22.22-.77,29.49-4.42C176,349.45,183,335,185.83,327.43S184.51,305.05,184.51,305.05Z"/><path class="cls-12" d="M181,305.78c-5.75,1.55-15.54,27.35-15.54,27.35s3.88,4.81,12.27,5.43S181,305.78,181,305.78Z"/><path class="cls-13" d="M178.06,378.88s-64.18-13-69.46,2.88,23.31,32.32,70.85,32.32,42-36.67,42-36.67Z"/><path class="cls-13" d="M175.69,388.2c4.6-3.82,49.74-9.8,49.74-9.8s1.24,25.18-10.86,32.26-26,6.25-35.87,4C159.35,410.32,171.1,392,175.69,388.2Z"/><path class="cls-14" d="M225.32,380.87c1.43-15.71,7.41-60.56,7-62.77-1.36-7-12.19-16.39-26.58-17.11-1.58-.08-3.06-.11-4.47-.09-11.49.12-17.78,3.37-22.11,9.4-1.25,1.74-3.29,7.63-3.74,15.63a240.88,240.88,0,0,0,2.65,52.95C186.37,387.29,225.32,380.87,225.32,380.87Z"/><path class="cls-9" d="M191.26,313.86c-2.17,10.72-11,59-16.62,64,0,0-.78-24.24-.63-42s4-28.12,7-30.14,13.05-4.35,13.05-4.35Z"/><path class="cls-15" d="M128.34,354.64v1.62h11.38l1.48-2.66s-5.22-1.55-9.85-.16a8.45,8.45,0,0,0-2.26,1.12A.55.55,0,0,0,128.34,354.64Z"/><path class="cls-16" d="M142.52,355.13a3.61,3.61,0,0,1-3.33,1.66,13.71,13.71,0,0,0-3.3,0s-.44-.64.65-.89,2.82-1.17,2.87-1.88l-3-.46a8.27,8.27,0,0,0-2.17.46c-.65.32-.82,1.46-1.57,2.13s-1.2.39-1.2.39a9.55,9.55,0,0,1,.92-2.38,6,6,0,0,1,.76-.6,2.43,2.43,0,0,0-1.68.91,8.35,8.35,0,0,0-.59,1.68c-.13.29-.6.81-1.09.64,0,0,.44-2,.6-2.77a21.74,21.74,0,0,1-.92,2.52c-.37.38-.65-.06-.49-2.07a4,4,0,0,0-.38,1.68s-.6.39-.65-.25-.16-1.88,1.14-1.88c0,0,.76-1.5,1.9-1a14.85,14.85,0,0,1,2.71-1.17,7.39,7.39,0,0,1,2.16,0S144.63,351.7,142.52,355.13Z"/><path class="cls-10" d="M168.69,354.61c-.19,2-4.23,1.78-4.23,1.78s-2.29.37-3.5.42c0,0,.11,1.46-.54,1.55s-.95-2.34-.95-2.34-1.2,2.54-1.68,2.34-.39-2.73-.39-2.73-1.41,0-1.5.39a8.66,8.66,0,0,1-.58,1.46c-.3.6-.65,1.09-.93.9-.56-.39-.28-3.4-.28-3.4a5.24,5.24,0,0,0-1,.09c-.28.1-1,2.26-1.88.95a5.09,5.09,0,0,1,1.88-3.49,17,17,0,0,1,6-1.78,21,21,0,0,1,7.12.75C166.91,351.87,168.88,352.63,168.69,354.61Z"/><path class="cls-11" d="M159.47,356s-.29-1.54.48-1.81a14.79,14.79,0,0,1,2.18-.49,10.83,10.83,0,0,0-2.71.36c-1,.34-.66,3.29-.66,3.29Z"/><path class="cls-11" d="M159.1,353a3,3,0,0,0-1.31.7,5.43,5.43,0,0,0-.39,1.92s-1.41,0-1.5.39a8.66,8.66,0,0,1-.58,1.46,8.55,8.55,0,0,1,.82-3.28C156.78,353.17,158.77,353,159.1,353Z"/><path class="cls-11" d="M155.9,353s-1.6,1-1.79,2a5.24,5.24,0,0,0-1,.09A3.27,3.27,0,0,1,155.9,353Z"/><path class="cls-11" d="M168.69,354.61c-.19,2-4.23,1.78-4.23,1.78s-2.29.37-3.5.42c-.17-.57.2-.82.25-1.28,0,0,1.7,0,2-.28a4.23,4.23,0,0,0,2.3-.18C166.24,354.61,167.56,356.25,168.69,354.61Z"/><path class="cls-17" d="M131.28,402.27s-17.71,0-22.06-.31-5,7.15,2.8,10.26,14.6,5.9,23.61,1.24Z"/><path class="cls-17" d="M164,411.67s-.46-8.62,7.46-10c0,0,2.1-6.29,12.35,2.56,5.75,5,15.62,8.63,11.42,12.12S175.18,413.3,164,411.67Z"/><path class="cls-18" d="M131.28,402.27s57.19-22.06,76.45-23.93,22.07,10.88,6.84,20.82-80.8,14.61-80.8,14.61S126.93,408.8,131.28,402.27Z"/><path class="cls-19" d="M211.54,298.86c-5.36-2.56-16.86-.85-19.66,1.48a37.09,37.09,0,0,0-5.75,7l4-3.73,1.09,10.26s.93-14.92,21.76-9.48Z"/><path class="cls-10" d="M188.77,286.69c1.92,5.56,5.54,8.35,9.28,9.29,5.71,1.45,11.74-1.35,12.72-5.21a23.06,23.06,0,0,0,0-8.12c0-.26-.07-.53-.11-.8-.11-.79-.27-1.59-.43-2.38-1.19-5.37-3.55-10.39-6.92-10.74C191.65,267.5,183.92,272.71,188.77,286.69Z"/><path class="cls-20" d="M193,275.56c2,6-1.64,11.76-1.64,11.76l2.16,5,.25,1.71a54.07,54.07,0,0,1-5.51-4.67c-4.8-6.07-5.51-13.08-3.81-13.49C184.49,275.88,192.35,273.53,193,275.56Z"/><path class="cls-10" d="M191.67,285.54s-3-2.13-4.75.1,3.19,6.3,5.47,5.52S191.67,285.54,191.67,285.54Z"/><path class="cls-20" d="M192.82,275.8s-.45-2.62,1.54-3.81,7.55-.77,7.55-.77l3.69-1.82s2.82-7.67-6.08-6l1.5,1.09s-1.78-1.92-9.91,1.81-9.13,8.26-6.63,11.42S192.82,275.8,192.82,275.8Z"/><path class="cls-10" d="M207.1,294.92s-.14,7.05,2.65,9.93c.17.16-5.81,5.47-14.43,2.32,0,0,1.64-10.2-3.46-15.9a1.47,1.47,0,0,0,1.39-1.49S197.36,297.8,207.1,294.92Z"/><path class="cls-9" d="M205.36,305.16s1.29,5-.89,9.16c0,0-.93,51.9,3.57,69.46,0,0,11.35,5.44,18.18,5.44,0,0,.31-20.36,1.4-27.19s9.79-38.38,3.11-49.73S212.86,303,212.86,303Z"/><path class="cls-21" d="M211.54,298.86s-2,4.55-6.18,6.3a18.65,18.65,0,0,1,3.5,5.94s6.76-4.2,8.51-7.58C217.37,303.52,214.1,299.1,211.54,298.86Z"/><path class="cls-10" d="M226.44,309.2c-6.92-1.52-22,31.72-19.89,39s7.9,10.21,11.85,4.13,11.85-23.95,12.79-30.91S226.44,309.2,226.44,309.2Z"/><path class="cls-10" d="M208.32,342s8,6.9,5.85,13.59c0,0-9.39,8-48.24.74v-5S183.8,348.35,208.32,342Z"/><path class="cls-22" d="M207.42,335.77s8.24-25.95,16.78-27.66,10.1,17.25,2.33,34C226.53,342.14,218.14,333.75,207.42,335.77Z"/><path class="cls-23" d="M130.34,357h41.23a0,0,0,0,1,0,0v1a.87.87,0,0,1-.87.87H131.21a.87.87,0,0,1-.87-.87v-1A0,0,0,0,1,130.34,357Z"/><path class="cls-24" d="M113.49,357h41.23a0,0,0,0,1,0,0v1a.87.87,0,0,1-.87.87H114.36a.87.87,0,0,1-.87-.87v-1A0,0,0,0,1,113.49,357Z"/><path class="cls-23" d="M151.28,357H113.49a2.36,2.36,0,0,1-2.31-2.11l-2.54-28.64a1.9,1.9,0,0,1,1.94-2.11h37.78a2.36,2.36,0,0,1,2.32,2.11l2.54,28.64A1.91,1.91,0,0,1,151.28,357Z"/><path class="cls-25" d="M149.82,357H112a2.37,2.37,0,0,1-2.32-2.11l-2.54-28.64a1.91,1.91,0,0,1,1.94-2.11H146.9a2.36,2.36,0,0,1,2.32,2.11l2.54,28.64A1.91,1.91,0,0,1,149.82,357Z"/><polygon class="cls-26" points="96.57 417.35 105.28 362.44 193.33 362.44 202.05 417.35 204.88 417.35 195.72 359.64 102.9 359.64 93.74 417.35 96.57 417.35"/><polygon class="cls-27" points="68.6 417.35 77.31 362.44 165.36 362.44 174.08 417.35 176.91 417.35 167.75 359.64 74.93 359.64 65.77 417.35 68.6 417.35"/><rect class="cls-28" x="73.09" y="358.71" width="126.56" height="3.73"/><path class="cls-29" d="M491.83,313.77l-13,39.83L337.09,307.25,346,280a69.16,69.16,0,0,1,107.43,33.79,47.51,47.51,0,0,1,38.39,0Z"/><path class="cls-30" d="M532.89,333.8a50.31,50.31,0,0,0-23.38,5.74,47.47,47.47,0,0,0-61-20.86,69.17,69.17,0,0,0-133.86,9.21,55,55,0,1,0-17.91,106.9H532.89a50.5,50.5,0,1,0,0-101Z"/></g></g></g></svg>