<svg xmlns="http://www.w3.org/2000/svg" xmlns:xlink="http://www.w3.org/1999/xlink" viewBox="0 0 647 467.43"><defs><style>.cls-1{fill:url(#linear-gradient);}.cls-2{opacity:0.5;fill:url(#linear-gradient-2);}.cls-3,.cls-4{fill:#c6e6ff;isolation:isolate;}.cls-3{opacity:0.44;}.cls-4{opacity:0.58;}.cls-5,.cls-9{fill:#005b9f;}.cls-6,.cls-8{fill:#288ed9;}.cls-7{fill:#d6eeff;}.cls-8{stroke:#005b9f;stroke-width:5.72px;}.cls-13,.cls-8,.cls-9{stroke-miterlimit:10;}.cls-9{stroke:#288ed9;stroke-width:2.45px;}.cls-10{fill:#164571;}.cls-11{fill:#fff;}.cls-12{fill:#1780cf;}.cls-13{fill:none;stroke:#f7941d;stroke-width:1.15px;stroke-dasharray:5.74;}.cls-14{fill:url(#linear-gradient-3);}</style><linearGradient id="linear-gradient" x1="-4201.34" y1="5011.36" x2="-4201.35" y2="5012.33" gradientTransform="matrix(740.56, 0, 0, -612.51, 3111697.78, 3070064.06)" gradientUnits="userSpaceOnUse"><stop offset="0" stop-color="#c6e6ff"/><stop offset="1" stop-color="#fff"/></linearGradient><linearGradient id="linear-gradient-2" x1="-4198.39" y1="5088.05" x2="-4198.39" y2="5086.52" gradientTransform="matrix(471, 0, 0, -54, 1977759.74, 275087.7)" gradientUnits="userSpaceOnUse"><stop offset="0" stop-color="#288ed9"/><stop offset="1" stop-color="#137fcf" stop-opacity="0.05"/></linearGradient><linearGradient id="linear-gradient-3" x1="-4183.46" y1="5039.98" x2="-4181.37" y2="5041.73" gradientTransform="matrix(174.41, 0, 0, -118.21, 729869.12, 596029.45)" gradientUnits="userSpaceOnUse"><stop offset="0" stop-color="#80c9ff"/><stop offset="1" stop-color="#2a83ff"/></linearGradient></defs><g id="Layer_2" data-name="Layer 2"><g id="Layer_1-2" data-name="Layer 1"><path id="Path_5768" data-name="Path 5768" class="cls-1" d="M331.87,47.73c92.45,59,198.29,85.54,198.29,85.54S646.73,151,603.85,283.69,555.39,463.94,488.19,467.34c-63.73,1.81-99.53-24.49-162.58-20-55.39,4.27-93.53,29.22-186.08-7.23C-8.77,374.61,2.28-160.2,331.87,47.73Z"/><ellipse id="Ellipse_1278" data-name="Ellipse 1278" class="cls-2" cx="319.18" cy="394.88" rx="179.72" ry="20.6"/><path id="Path_5770" data-name="Path 5770" class="cls-3" d="M190.28,84.62c-18.8-15.63-64.35,10-92.12-24.76S51,78.84,10.53,75.75s44.13,95.63,112.71,65.32c17.83-7.89,58.28-7.24,67-12C214.25,116.14,209.08,100.26,190.28,84.62Z"/><path id="Path_5769" data-name="Path 5769" class="cls-4" d="M618.22,308.21c-18.82,12.1-57.33-16.25-86.43,12.21S491.11,297.94,454,296.23s56.61-68.57,115.52-33.39c15.31,9.15,62-2.44,69.42,2.83C659.25,280.11,637,296.11,618.22,308.21Z"/><g id="Group_6236" data-name="Group 6236"><path id="Subtraction_83" data-name="Subtraction 83" class="cls-5" d="M313.46,53.57H274.88V9.47h25.35l13.23,13.24V53.57Z"/><g id="Group_5946" data-name="Group 5946"><g id="Group_5947" data-name="Group 5947"><path id="Subtraction_81" data-name="Subtraction 81" class="cls-6" d="M313.46,53.57H274.88V9.48h25.35V22.7h13.23Z"/><rect id="Rectangle_2799" data-name="Rectangle 2799" class="cls-7" x="281.49" y="30.42" width="24.25" height="2.2"/><rect id="Rectangle_2800" data-name="Rectangle 2800" class="cls-7" x="281.49" y="35.93" width="24.25" height="2.2"/><rect id="Rectangle_2801" data-name="Rectangle 2801" class="cls-7" x="281.49" y="41.44" width="24.25" height="2.2"/></g></g></g><g id="Group_6234" data-name="Group 6234"><g id="Group_5943" data-name="Group 5943"><g id="video-player"><rect id="Rectangle_2785" data-name="Rectangle 2785" class="cls-8" x="475.62" y="71.83" width="52.7" height="42.87"/><path id="Path_5563" data-name="Path 5563" class="cls-7" d="M497.07,100.7V85.81l11.7,7.45Z"/><rect id="Rectangle_2786" data-name="Rectangle 2786" class="cls-9" x="471.54" y="70.09" width="10.64" height="11.57"/><rect id="Rectangle_2787" data-name="Rectangle 2787" class="cls-9" x="471.54" y="81.66" width="10.64" height="11.57"/><rect id="Rectangle_2788" data-name="Rectangle 2788" class="cls-9" x="471.54" y="93.22" width="10.64" height="11.57"/><rect id="Rectangle_2789" data-name="Rectangle 2789" class="cls-9" x="471.54" y="104.79" width="10.64" height="11.57"/><rect id="Rectangle_2790" data-name="Rectangle 2790" class="cls-9" x="520.48" y="70.09" width="10.64" height="11.57"/><rect id="Rectangle_2791" data-name="Rectangle 2791" class="cls-9" x="520.48" y="81.66" width="10.64" height="11.57"/><rect id="Rectangle_2792" data-name="Rectangle 2792" class="cls-9" x="520.48" y="93.22" width="10.64" height="11.57"/><rect id="Rectangle_2793" data-name="Rectangle 2793" class="cls-9" x="520.48" y="104.79" width="10.64" height="11.57"/></g></g></g><g id="Group_6238" data-name="Group 6238"><path id="Subtraction_82" data-name="Subtraction 82" class="cls-10" d="M498.66,403.74H441.21V338.08h37.71l19.74,19.74v45.91Z"/><g id="Group_5944" data-name="Group 5944"><path id="Subtraction_81-2" data-name="Subtraction 81-2" class="cls-6" d="M498.66,403.74H441.22V338.09H479v19.69h19.7Z"/><path id="Path_5568" data-name="Path 5568" class="cls-11" d="M457,380.83v4.85h-2.27V372.63h5a5.11,5.11,0,0,1,3.48,1.14,3.82,3.82,0,0,1,1.28,3,3.7,3.7,0,0,1-1.25,3,5.31,5.31,0,0,1-3.53,1.06Zm0-1.81h2.72a2.71,2.71,0,0,0,1.85-.58,2.09,2.09,0,0,0,.63-1.64,2.26,2.26,0,0,0-.64-1.69,2.47,2.47,0,0,0-1.78-.65H457Zm9.46,6.66V372.63h3.85a6,6,0,0,1,3.07.78,5.33,5.33,0,0,1,2.08,2.18,6.9,6.9,0,0,1,.73,3.24v.66a6.84,6.84,0,0,1-.74,3.26,5.25,5.25,0,0,1-2.11,2.17,6.33,6.33,0,0,1-3.13.76Zm2.27-11.22v9.41h1.48a3.43,3.43,0,0,0,2.74-1.11,4.86,4.86,0,0,0,1-3.21v-.73a4.94,4.94,0,0,0-.92-3.24,3.29,3.29,0,0,0-2.68-1.12ZM486,380.15h-5.24v5.53h-2.27V372.63h8.29v1.83h-6v3.88H486Z"/></g></g><g id="Group_6245" data-name="Group 6245"><path id="Subtraction_82-2" data-name="Subtraction 82-2" class="cls-5" d="M219.85,375.47H166.79V314.83h34.86l18.2,18.2v42.44Z"/><g id="Group_5944-2" data-name="Group 5944-2"><g id="Group_6246" data-name="Group 6246"><path id="Subtraction_81-3" data-name="Subtraction 81-3" class="cls-6" d="M219.85,375.47H166.79V314.83h34.87V333h18.18v42.45Z"/><path id="Path_5690" data-name="Path 5690" class="cls-11" d="M177.52,361.46V349.31h3.6A5.59,5.59,0,0,1,184,350a5,5,0,0,1,1.94,2,6.45,6.45,0,0,1,.68,3v.61a6.28,6.28,0,0,1-.69,3,4.89,4.89,0,0,1-2,2,5.92,5.92,0,0,1-2.92.71ZM179.64,351v8.76H181a3.16,3.16,0,0,0,2.54-1,4.54,4.54,0,0,0,.91-3v-.68a4.67,4.67,0,0,0-.86-3,3,3,0,0,0-2.49-1Zm18.75,4.69a7.52,7.52,0,0,1-.61,3.14A4.61,4.61,0,0,1,196,360.9a5.18,5.18,0,0,1-5.27,0,4.72,4.72,0,0,1-1.78-2,7.3,7.3,0,0,1-.65-3.09v-.68a7.38,7.38,0,0,1,.63-3.14,4.74,4.74,0,0,1,1.78-2.08,5.15,5.15,0,0,1,5.27,0,4.61,4.61,0,0,1,1.77,2.06,7.26,7.26,0,0,1,.63,3.12Zm-2.11-.64a5.27,5.27,0,0,0-.77-3.09,2.69,2.69,0,0,0-4.3,0,5.18,5.18,0,0,0-.79,3v.7a5.21,5.21,0,0,0,.78,3.1,2.53,2.53,0,0,0,2.17,1.09,2.46,2.46,0,0,0,2.15-1.07,5.35,5.35,0,0,0,.76-3.12Zm8.4-1.36,2.55-4.4h2.45l-3.68,6,3.75,6.12h-2.46L204.68,357l-2.62,4.46H199.6l3.77-6.12-3.68-6h2.43Z"/></g></g></g><g id="Group_6233" data-name="Group 6233"><g id="Group_5938" data-name="Group 5938"><rect id="Rectangle_2794" data-name="Rectangle 2794" class="cls-12" x="87.35" y="58.62" width="64.24" height="67.45"/><path id="music-player" class="cls-7" d="M137.25,71.64a.76.76,0,0,0-.6-.18l-23.52,3a.76.76,0,0,0-.66.75v27.52a7.52,7.52,0,0,0-5.69-2.49c-4,0-7.21,2.87-7.21,6.41s3.23,6.41,7.21,6.41,7.21-2.87,7.21-6.41a6.3,6.3,0,0,0,0-.75.7.7,0,0,0,0-.25v-22l22-2.85V95.18a7.55,7.55,0,0,0-5.69-2.49c-4,0-7.2,2.87-7.2,6.41s3.22,6.41,7.2,6.41,7.21-2.87,7.21-6.41c0-.07,0-.14,0-.21s0,0,0,0V72.21A.73.73,0,0,0,137.25,71.64Z"/></g></g><polyline class="cls-13" points="116.75 135.77 116.75 225.89 143.46 225.89"/><polyline class="cls-13" points="318.69 36.8 356.24 36.8 356.24 88.67"/><polyline class="cls-13" points="501.8 125 501.8 206.17 464.04 206.17"/><polyline class="cls-13" points="228.15 354.98 251.19 354.98 251.19 287.67"/><polyline class="cls-13" points="430.93 370.91 379.73 370.91 379.73 287.67"/><g id="mobileme-logo-of-black-cloud"><path id="MobileMe" class="cls-14" d="M463.19,229.24c.13,30.92-27.38,56.07-61.46,56.19H211.56c-34.21-.26-61.72-25.63-61.44-56.67.25-27.31,22.09-50.51,51.79-55a32.51,32.51,0,0,1-.58-6.07c-.08-19.58,17.36-35.52,38.94-35.59h0a40.94,40.94,0,0,1,25.17,8.45c12.09-24.92,27.59-47.64,71.08-47.64,52.74,0,77.72,37.18,77.72,76.41,0,1.65-.07,3.27-.19,4.88C442.74,179.67,463.27,202.65,463.19,229.24Z"/></g><polygon class="cls-11" points="336.61 240.93 320.01 221.8 303.42 202.67 286.83 221.8 270.23 240.93 287.89 240.93 287.89 285.43 318.95 285.43 318.95 240.93 336.61 240.93"/></g></g></svg>