<svg xmlns="http://www.w3.org/2000/svg" xmlns:xlink="http://www.w3.org/1999/xlink" viewBox="0 0 553.1 471.55"><defs><style>.cls-1{isolation:isolate;}.cls-2{fill:url(#linear-gradient);}.cls-3{fill:#d4ebf8;}.cls-4{fill:#c0dfed;}.cls-5{fill:url(#linear-gradient-2);}.cls-6{fill:#4f5aff;}.cls-7{fill:url(#linear-gradient-3);}.cls-8{fill:url(#linear-gradient-4);}.cls-9{fill:url(#linear-gradient-5);}.cls-10,.cls-23{fill:#37b5e8;}.cls-10{opacity:0.2;}.cls-11{fill:#0e71bb;}.cls-12{fill:#ec827d;}.cls-13{fill:#fbd15b;}.cls-14{fill:#b1b2f3;}.cls-15{fill:#fff;}.cls-16{fill:#bee1f4;}.cls-17{fill:url(#linear-gradient-6);}.cls-18{fill:#21e2e2;}.cls-19{fill:#f59b6b;}.cls-20{fill:#1cbab6;}.cls-21,.cls-30{fill:#d1d3d4;}.cls-22{fill:#239de8;}.cls-24{fill:#f9fbfc;}.cls-25{fill:#15647c;opacity:0.1;}.cls-25,.cls-30{mix-blend-mode:multiply;}.cls-26{fill:url(#linear-gradient-7);}.cls-27{fill:#ffe7cb;}.cls-28{fill:#ffc8af;}.cls-29{fill:#1f364c;}.cls-31{fill:#e08d7e;opacity:0.24;}.cls-32{fill:url(#linear-gradient-8);}.cls-33{fill:url(#linear-gradient-9);}.cls-34{fill:url(#linear-gradient-10);}</style><linearGradient id="linear-gradient" x1="276.55" y1="471.55" x2="276.55" gradientUnits="userSpaceOnUse"><stop offset="0" stop-color="#c6e6ff"/><stop offset="1" stop-color="#fff"/></linearGradient><linearGradient id="linear-gradient-2" x1="338.65" y1="309.09" x2="387.56" y2="393.8" gradientUnits="userSpaceOnUse"><stop offset="0" stop-color="#26e6ff"/><stop offset="0.49" stop-color="#4189ff"/><stop offset="0.83" stop-color="#534cff"/><stop offset="1" stop-color="#5a35ff"/></linearGradient><linearGradient id="linear-gradient-3" x1="323.74" y1="337.17" x2="360.42" y2="400.69" xlink:href="#linear-gradient-2"/><linearGradient id="linear-gradient-4" x1="138.59" y1="342.66" x2="167.89" y2="393.4" xlink:href="#linear-gradient-2"/><linearGradient id="linear-gradient-5" x1="116.66" y1="309.92" x2="160.06" y2="385.1" xlink:href="#linear-gradient-2"/><linearGradient id="linear-gradient-6" x1="400.89" y1="165.84" x2="410.68" y2="165.84" gradientUnits="userSpaceOnUse"><stop offset="0" stop-color="#ffbc98"/><stop offset="1" stop-color="#ff9f6c"/></linearGradient><linearGradient id="linear-gradient-7" x1="74.8" y1="318.14" x2="454.08" y2="318.14" gradientUnits="userSpaceOnUse"><stop offset="0" stop-color="#80c9ff"/><stop offset="1" stop-color="#2a83ff"/></linearGradient><linearGradient id="linear-gradient-8" x1="-2452.25" y1="-231.19" x2="-2434.28" y2="-231.19" gradientTransform="translate(2138.51 -1526.47) rotate(-52.75)" xlink:href="#linear-gradient-6"/><linearGradient id="linear-gradient-9" x1="402.48" y1="291.2" x2="477.61" y2="291.2" xlink:href="#linear-gradient-6"/><linearGradient id="linear-gradient-10" x1="46.26" y1="367.45" x2="64.24" y2="367.45" gradientTransform="translate(348.56 -79.83) rotate(-6.92)" xlink:href="#linear-gradient-6"/></defs><g class="cls-1"><g id="Layer_2" data-name="Layer 2"><g id="Layer_1-2" data-name="Layer 1"><path class="cls-2" d="M551.16,216.78c-7.71,70.33-39.93,146-121.16,197.32-2.8,1.77-5.58,3.48-8.37,5.16q-5.76,3.44-11.51,6.64a380.66,380.66,0,0,1-55.22,25.25q-5.59,2-11.16,3.82t-11,3.38a337.13,337.13,0,0,1-46.24,10c-89.13,12.7-170-13.24-222.43-58.44a201.67,201.67,0,0,1-26-26.89,178.59,178.59,0,0,1-17.64-26.53C-25.32,272.19,10,171.08,84.71,145.55c81.92-28,120.28-4.15,215.68-83S492-25.46,530.9,62.78c6.51,14.74,12.6,34.45,16.74,57.3A339.56,339.56,0,0,1,551.16,216.78Z"/><circle class="cls-3" cx="249.86" cy="181.92" r="82.42" transform="translate(-55.45 229.96) rotate(-45)"/><circle class="cls-4" cx="240.51" cy="340.9" r="41.95" transform="translate(-146.53 496.65) rotate(-76.72)"/><path class="cls-5" d="M376.92,400h-8.23c-.33-27.31-1.46-54.62-3.1-81.9-.07-1.16-.71-1.1-.7,0q.36,40.94,2.79,81.87h-11c1-63.29,4.53-105.47,7.49-105.56Q368.89,294.24,376.92,400Z"/><path class="cls-6" d="M368.69,400h-1q-2.46-40.87-2.79-81.87c0-1.13.63-1.19.7,0C367.23,345.33,368.36,372.64,368.69,400Z"/><path class="cls-7" d="M361.71,400h-7.95c-3.75-18.21-8.12-36.29-12.88-54.27-.23-.85-.85-.68-.69.16q5.28,27.21,12.18,54.11H341.23q-9.11-69.39-4.26-70.37T361.71,400Z"/><path class="cls-6" d="M353.76,400h-1.39q-6.93-26.85-12.18-54.11c-.16-.84.46-1,.69-.16C345.64,363.66,350,381.74,353.76,400Z"/><path class="cls-8" d="M169.48,325.31q5.69,2-12.93,74.64h-13.4q10.18-28.05,19.24-56.49c.33-1-.28-1.22-.66-.23Q151,371.36,141.4,400h-11Q163.49,323.24,169.48,325.31Z"/><path class="cls-6" d="M161.73,343.23c.38-1,1-.81.66.23q-9.1,28.41-19.24,56.49H141.4Q151,371.36,161.73,343.23Z"/><path class="cls-9" d="M159.47,285.43q5.11,1.63-25.13,114.52H122.2q15.77-45.57,30.15-91.63c.48-1.53-.14-1.69-.67-.23Q135.45,353.75,120.63,400h-9.12Q154.2,283.77,159.47,285.43Z"/><path class="cls-6" d="M151.68,308.09c.53-1.46,1.15-1.3.67.23q-14.47,46-30.15,91.63h-1.57Q135.42,353.78,151.68,308.09Z"/><path class="cls-10" d="M481.43,94.24V187.6a1.64,1.64,0,0,1-1.64,1.64H336.54a1.64,1.64,0,0,1-1.65-1.64V94.24a1.66,1.66,0,0,1,1.65-1.66H479.79A1.66,1.66,0,0,1,481.43,94.24Z"/><path class="cls-11" d="M481.43,94.24v10.14H334.89V94.24a1.66,1.66,0,0,1,1.65-1.66H479.79A1.66,1.66,0,0,1,481.43,94.24Z"/><path class="cls-12" d="M345.12,98.51a2.44,2.44,0,1,1-2.44-2.44A2.44,2.44,0,0,1,345.12,98.51Z"/><path class="cls-13" d="M355.69,98.51a2.44,2.44,0,1,1-2.44-2.44A2.44,2.44,0,0,1,355.69,98.51Z"/><path class="cls-14" d="M366.27,98.51a2.44,2.44,0,1,1-2.44-2.44A2.44,2.44,0,0,1,366.27,98.51Z"/><rect class="cls-15" x="394" y="110.59" width="78.89" height="71.23"/><rect class="cls-15" x="346.25" y="120.06" width="27.87" height="1.82"/><rect class="cls-15" x="346.25" y="129.13" width="41.72" height="1.82"/><rect class="cls-15" x="346.25" y="135.04" width="41.72" height="1.82"/><rect class="cls-15" x="346.25" y="140.96" width="41.72" height="1.82"/><rect class="cls-15" x="346.25" y="146.87" width="41.72" height="1.82"/><rect class="cls-15" x="346.25" y="152.79" width="41.72" height="1.82"/><rect class="cls-15" x="346.25" y="158.7" width="41.72" height="1.82"/><rect class="cls-15" x="346.25" y="164.62" width="41.72" height="1.82"/><rect class="cls-15" x="346.25" y="170.53" width="27.44" height="1.82"/><rect class="cls-16" x="400.89" y="119.33" width="9.8" height="53.76"/><rect class="cls-16" x="419.33" y="119.33" width="9.8" height="53.76"/><rect class="cls-16" x="437.77" y="119.33" width="9.8" height="53.76"/><rect class="cls-16" x="456.21" y="119.33" width="9.8" height="53.76"/><rect class="cls-17" x="400.89" y="158.59" width="9.8" height="14.5"/><rect class="cls-18" x="419.33" y="151.05" width="9.8" height="22.03"/><rect class="cls-11" x="437.77" y="133.31" width="9.8" height="39.78"/><rect class="cls-19" x="456.21" y="141.44" width="9.8" height="31.64"/><rect class="cls-20" x="170.03" y="103" width="179.04" height="236.39" rx="8.33"/><rect class="cls-15" x="184.64" y="114.98" width="149.83" height="188.82"/><path class="cls-10" d="M267.61,162.8H205.7c-.76,0-1.39-1.07-1.39-2.38s.63-2.38,1.39-2.38h61.91c.76,0,1.39,1.07,1.39,2.38S268.37,162.8,267.61,162.8Z"/><path class="cls-10" d="M267.61,143.9H205.7c-.76,0-1.39-1.06-1.39-2.37s.63-2.38,1.39-2.38h61.91c.76,0,1.39,1.06,1.39,2.38S268.37,143.9,267.61,143.9Z"/><path class="cls-10" d="M312.42,181.69H206.69a2.38,2.38,0,1,1,0-4.75H312.42a2.38,2.38,0,1,1,0,4.75Z"/><path class="cls-10" d="M312.42,200.58H206.69a2.38,2.38,0,1,1,0-4.75H312.42a2.38,2.38,0,1,1,0,4.75Z"/><path class="cls-10" d="M312.42,219.48H206.69a2.38,2.38,0,1,1,0-4.75H312.42a2.38,2.38,0,1,1,0,4.75Z"/><path class="cls-10" d="M312.42,238.37H206.69a2.38,2.38,0,1,1,0-4.75H312.42a2.38,2.38,0,1,1,0,4.75Z"/><path class="cls-16" d="M265.24,257.27H206.69a2.38,2.38,0,1,1,0-4.75h58.55a2.38,2.38,0,1,1,0,4.75Z"/><path class="cls-18" d="M296.9,94.35H274.74a15.19,15.19,0,1,0-30.37,0H222.21a3.12,3.12,0,0,0-3.12,3.12V117.9a3.13,3.13,0,0,0,3.12,3.13H296.9A3.13,3.13,0,0,0,300,117.9V97.47A3.12,3.12,0,0,0,296.9,94.35ZM259.56,101a6.68,6.68,0,1,1,6.67-6.67A6.68,6.68,0,0,1,259.56,101Z"/><path class="cls-21" d="M296.9,114.24H222.21a3.12,3.12,0,0,1-3.12-3.12v6.78a3.13,3.13,0,0,0,3.12,3.13H296.9A3.13,3.13,0,0,0,300,117.9v-6.78A3.12,3.12,0,0,1,296.9,114.24Z"/><rect class="cls-22" x="66.52" y="195" width="69.34" height="39.46"/><polygon class="cls-11" points="66.52 234.46 101.19 207.64 135.86 234.46 66.52 234.46"/><polygon class="cls-23" points="135.86 195 101.19 221.99 66.52 195 135.86 195"/><path class="cls-10" d="M302.82,60a16.34,16.34,0,0,0-2.05-7l2-1.13A18.8,18.8,0,0,0,298.88,47l-1.54,1.74A16.36,16.36,0,0,0,291,45.18l.63-2.22h0a18.8,18.8,0,0,0-5.11-.71c-.36,0-.73,0-1.09,0l.13,2.32a16.47,16.47,0,0,0-7,2l-1.13-2a19,19,0,0,0-4.89,3.92l1.74,1.54a16.36,16.36,0,0,0-3.52,6.39l-2.22-.64v0a18.8,18.8,0,0,0-.71,5.11q0,.54,0,1.08l2.32-.14a16.32,16.32,0,0,0,2,7l-2,1.13A19.19,19.19,0,0,0,274,74.92l1.55-1.74A16.25,16.25,0,0,0,282,76.7l-.64,2.23h.06a18.73,18.73,0,0,0,5.1.71c.38,0,.76,0,1.13,0l-.14-2.32a16.48,16.48,0,0,0,7-2l1.13,2a18.43,18.43,0,0,0,4.88-3.92l-1.74-1.54a16.34,16.34,0,0,0,3.51-6.39l2.22.63h0a18.78,18.78,0,0,0,.71-5.1c0-.37,0-.75,0-1.11ZM282.4,75.3h0l.12-.4ZM296,63.64a9.91,9.91,0,0,1-9.53,7.22,9.72,9.72,0,0,1-2.7-.38A9.91,9.91,0,0,1,276.55,61a9.72,9.72,0,0,1,.38-2.7A9.91,9.91,0,0,1,286.46,51a9.72,9.72,0,0,1,2.7.38,9.91,9.91,0,0,1,7.22,9.53A9.72,9.72,0,0,1,296,63.64Z"/><polygon class="cls-3" points="332.29 44.94 332.29 44.94 332.29 44.94 332.29 44.94"/><path class="cls-10" d="M331.28,52.9l-1.54.3a11.66,11.66,0,0,0-1.24-3.4l1.38-.76a13.26,13.26,0,0,0-4.15-4.54l-.87,1.3a11.41,11.41,0,0,0-3.29-1.54l.43-1.5-.06,0a13.19,13.19,0,0,0-3.6-.5,12.69,12.69,0,0,0-2.47.24l.29,1.54a11.7,11.7,0,0,0-3.41,1.23L312,43.88A13,13,0,0,0,307.45,48l1.29.87a12,12,0,0,0-1.54,3.29l-1.5-.44,0,.1a13.15,13.15,0,0,0-.27,6l1.54-.3A11.64,11.64,0,0,0,308.16,61l-1.37.75h0a13.19,13.19,0,0,0,4.11,4.56l.89-1.29a11.58,11.58,0,0,0,3.27,1.55l-.44,1.5h0l.14,0a13.12,13.12,0,0,0,3.59.5,13.44,13.44,0,0,0,2.55-.25l-.31-1.55A11.44,11.44,0,0,0,324,65.56l.76,1.37a13.13,13.13,0,0,0,4.52-4.16L328,61.9a11.29,11.29,0,0,0,1.54-3.29L331,59v0a13.59,13.59,0,0,0,.5-3.6A13.11,13.11,0,0,0,331.28,52.9ZM318.35,63.26a7.62,7.62,0,0,1-2.14-.3,7.84,7.84,0,0,1-5.71-7.54,8,8,0,0,1,.3-2.14,7.84,7.84,0,0,1,15.39,2.13,7.52,7.52,0,0,1-.3,2.14A7.83,7.83,0,0,1,318.35,63.26Z"/><path class="cls-10" d="M475.44,68.59a13.28,13.28,0,0,1-13.3,13.31H354.19a13.3,13.3,0,1,1,0-26.6h108A13.29,13.29,0,0,1,475.44,68.59Z"/><path class="cls-11" d="M475.44,68.59a13.28,13.28,0,0,1-13.3,13.31H448.3V55.3h13.84A13.29,13.29,0,0,1,475.44,68.59Z"/><path class="cls-24" d="M455,63a6.23,6.23,0,0,0,8.33,9.06l4,4a.43.43,0,0,0,.61,0l1.12-1.12a.45.45,0,0,0,0-.61l-4-4A6.23,6.23,0,0,0,455,63Zm7.56,6.55a3.79,3.79,0,1,1,0-5.35A3.79,3.79,0,0,1,462.59,69.55Z"/><rect class="cls-24" x="349.79" y="74.17" width="94.09" height="1.01"/><path class="cls-25" d="M349.07,271.91v57.46a8.33,8.33,0,0,1-8.32,8.33H178.36a8.34,8.34,0,0,1-8.33-8.33v-77.5A74.46,74.46,0,0,1,303.12,269.6a51.21,51.21,0,0,1,45.95,2.31Z"/><path class="cls-26" d="M398,297a55.84,55.84,0,0,0-26,6.37,52.73,52.73,0,0,0-67.71-23.17A76.81,76.81,0,0,0,155.7,290.42a61,61,0,1,0-19.88,118.69H398A56.07,56.07,0,1,0,398,297Z"/><path class="cls-27" d="M487.8,419.13c-3.49.47-17.43.32-17.05-1.39.18-.77,2.13-1.78,4.2-2.63,2.45-1,5.06-1.82,5.06-1.82l-5.41-13.05,7.51-4.35,5.14,20.51Z"/><path class="cls-27" d="M465.06,423.7c-3.77.51-18.81.34-18.4-1.5.19-.83,2.29-1.92,4.53-2.84,2.65-1.09,5.46-2,5.46-2l-4.8-14,8.11-4.69,4.51,22Z"/><path class="cls-28" d="M465,372.43c-4.47-.38-4.79-25.44-4.1-36.08s3.22-18.88,8.69-18.42,6.58,9,5.49,19.62S469.47,372.8,465,372.43Z"/><path class="cls-27" d="M486.47,304c-3,1.24-11.82-15.45-15-22.82s-4.44-13.74-.79-15.26,7.31,3.85,10.26,11.33S489.46,302.72,486.47,304Z"/><path class="cls-27" d="M447.92,304.44c-.15-2.87,20.9-4.82,26.85-5.15s12.27-.24,12.45,3-6.09,4-12,4.33S448.08,307.31,447.92,304.44Z"/><path class="cls-28" d="M443.63,373.76c-4.39-1-1.43-25.85.64-36.3s5.66-18.31,11-17.14,5.35,9.8,2.88,20.17S448,374.72,443.63,373.76Z"/><path class="cls-28" d="M475.18,327.91l-27.88-1.16-1.22-47.69,1.92-12,12.88-4.73,8.29,1.58a9.73,9.73,0,0,1,7.9,9.9l-3,33.75Z"/><path class="cls-29" d="M475.12,308.14c-.24,6.06,1.77,4.91,2.48,10.94,1.42,12.1-4.39,43.84-4.39,45.31s10.36,31.76,13.39,43.74c0,0-1.7,2.45-9.9,3.94,0,0-15.11-38-16.27-44.2s.26-58.6.26-58.6Z"/><path class="cls-29" d="M462.42,309.13H446.61a297.49,297.49,0,0,0-6,33.72c-2.34,19.38-1.59,25.13-1.17,28.22s14.07,43.7,14.07,43.7a18.65,18.65,0,0,0,11-2.56s-6.55-28-9.64-35.71-3.42-9.37-3.42-9.37,9.14-14.26,12.91-36.83C466.64,316.79,462.42,309.13,462.42,309.13Z"/><path class="cls-30" d="M460,348.77s2.79-13.26,4.88-22c0,0,2.62,20.37-4.67,36.65Z"/><path class="cls-27" d="M412.14,280c1.88-2.14,18.14,11.08,22.59,15s8.85,8.35,6.74,10.75-7.08-1.39-11.53-5.29S410.26,282.18,412.14,280Z"/><circle class="cls-3" cx="420.84" cy="232.6" r="6.96"/><rect class="cls-23" x="381.6" y="207.08" width="88.78" height="72.57" transform="translate(234.91 -208.5) rotate(37.34)"/><path class="cls-22" d="M374.86,237.19c38.63,29.47,75.79,18.95,97-4.45l11.4,8.7-44,57.69-70.59-53.84Z"/><path class="cls-27" d="M465.35,258.05v5.33s-3.87-.75-10.47,1.62l-.29-9.6,9.54-5.83Z"/><path class="cls-31" d="M454.59,255.58l.22,7.16c2.92-1.79,2.31-1.81,3.95-3.1s3.05-.08,3.06,3.9a29.34,29.34,0,0,1,3.53-.16v-5.33l-1.22-8.48Z"/><path class="cls-11" d="M456.73,242.08c-1.17-1.63,1.64-5.79,5.48-4.45s4.1,4.55,8.77,5.76,2.29,8-2.37,9.41c0,0-3.26,3-3.26,5.25,0,0-2.37-.64-3-4.55,0,0-3.33,1-4.29-1.47S456.73,242.08,456.73,242.08Z"/><path class="cls-27" d="M456.73,242.08c-3.89,4.63-7.2,13.56-5,16s7.93-.58,9.42-3.55c0,0,1.41,1.81,4.39-1.82s-1.37-3.9-3.15-2.17c0,0-2.32,2.22-3.23.73s1.22-3.95,1.41-6.59C460.78,241.34,456.73,242.08,456.73,242.08Z"/><path class="cls-27" d="M443.33,278.14a27.67,27.67,0,0,1,1.09-6.77,40.64,40.64,0,0,0-2.71,8.05c-1.85,7.76-4.83,26.25-1.72,27.05,1.55.4,3.89-3.77,6.12-9a32.25,32.25,0,0,0-1.81-6.59C441.89,284.87,443.22,279.93,443.33,278.14Z"/><path class="cls-27" d="M450.2,266.87c-2.27-.58-4.2,1.27-5.78,4.5a27.67,27.67,0,0,0-1.09,6.77c-.11,1.79-1.44,6.73,1,12.74a32.25,32.25,0,0,1,1.81,6.59A139.46,139.46,0,0,0,451.56,282C453.69,274.28,454,267.85,450.2,266.87Z"/><path class="cls-32" d="M477.34,282.92l5.42-2.48a45.28,45.28,0,0,0-4.11-9.6,15.52,15.52,0,0,0-3.43-4C477.17,269.61,478.09,274.51,477.34,282.92Z"/><path class="cls-33" d="M446.11,297.47c-.22,8.87-1.69,21.27-1.69,21.27l33.18.34s-2.16-22.75-1.18-28.92c.43-2.67.73-5.07.92-7.24.75-8.41-.17-13.31-2.12-16.05a7.13,7.13,0,0,0-4-2.81c-7.78-2.18-22.14.91-24.08,2.7a10.31,10.31,0,0,0-2.71,4.61c1.58-3.23,3.51-5.08,5.78-4.5,3.8,1,3.49,7.41,1.36,15.09A139.46,139.46,0,0,1,446.11,297.47Z"/><path class="cls-34" d="M448.69,265.94c-4.72.66-7.62,7.82-9.23,19.25L451.85,290a44.65,44.65,0,0,0,4-9.63C457.69,273.64,454.49,265.13,448.69,265.94Z"/><path class="cls-18" d="M456.77,419.91c-.72-.43.43-4.23-2.41-2.77,0,0-5.12,3.42-8.5,4-2.37.41-1.25,3.33-1.25,3.33h20c1.61-2.55.47-5.8-.45-7.65C462.86,420.94,457.49,420.35,456.77,419.91Z"/><path class="cls-18" d="M480.23,415.76c-.72-.43.43-4.23-2.41-2.78,0,0-5.13,3.42-8.5,4-2.37.4-1.25,3.32-1.25,3.32h20c1.61-2.55.47-5.8-.45-7.65C486.32,416.79,480.94,416.19,480.23,415.76Z"/><path class="cls-27" d="M405.05,271.82c.75-.84,4.81,3.15,6.12,4.19a1.28,1.28,0,0,0,.38.24c.06,0,.05-.08,0-.18-.21-.64-1.81-2.87-1-3.58s4.05,2.26,5.14,4.2c.06.11.14.23.18.32.88,1.9,1.07,3.18-.11,4.92-1.89,2.79-6.42-1.09-7.92-2.47a10.56,10.56,0,0,1-2.66-4.46C404.71,273.56,404.64,272.28,405.05,271.82Z"/></g></g></g></svg>