<svg id="surface1" xmlns="http://www.w3.org/2000/svg" xmlns:xlink="http://www.w3.org/1999/xlink" width="111.13" height="111.41" viewBox="0 0 111.13 111.41">
  <defs>
    <clipPath id="clip-path">
      <path id="Path_1944" data-name="Path 1944" d="M180,0h60.333V53.337H180Zm0,0" transform="translate(-180)" fill="#248fde"/>
    </clipPath>
    <clipPath id="clip-path-2">
      <path id="Path_1948" data-name="Path 1948" d="M180,208h60.333v52.711H180Zm0,0" transform="translate(-180 -208)" fill="#f5a477"/>
    </clipPath>
  </defs>
  <g id="Group_24" data-name="Group 24" transform="translate(50.797)" clip-path="url(#clip-path)">
    <path id="Path_1943" data-name="Path 1943" d="M180.366,8.739q30.066-4.6,60.21-8.743.018,26.4.012,52.79c-20.07.077-40.139.382-60.222.446q-.02-22.26,0-44.494" transform="translate(-180.255 0.003)" fill="#248fde"/>
  </g>
  <path id="Path_1945" data-name="Path 1945" d="M0,40.279c15.094-2.328,30.251-4.339,45.409-6.236q.02,21.9.025,43.781C30.29,77.812,15.144,78.04,0,78V40.279" transform="translate(0 -24.436)" fill="#1bdddd"/>
  <path id="Path_1946" data-name="Path 1946" d="M0,206.075c15.132-.052,30.264.191,45.4.165,0,14.635.038,29.271.012,43.907C30.29,247.908,15.144,245.948,0,243.9V206.075" transform="translate(0 -147.914)" fill="#bdddf5"/>
  <g id="Group_25" data-name="Group 25" transform="translate(50.797 58.699)" clip-path="url(#clip-path-2)">
    <path id="Path_1947" data-name="Path 1947" d="M180.074,208.164h60.3q.038,26.326,0,52.665c-20.044-3-40.127-5.791-60.21-8.515q-.038-22.068-.089-44.15" transform="translate(-180.053 -208.118)" fill="#f5a477"/>
  </g>
</svg>
