<svg xmlns="http://www.w3.org/2000/svg" xmlns:xlink="http://www.w3.org/1999/xlink" viewBox="0 0 584.47 584.47"><defs><style>.cls-1,.cls-2{isolation:isolate;}.cls-2{fill:#c8e5f9;opacity:0.58;}.cls-3{fill:#bbbdbf;}.cls-4,.cls-6{fill:#8ec047;}.cls-4{stroke:#066839;stroke-miterlimit:10;stroke-width:9.57px;}.cls-5{fill:#066839;}.cls-7{fill:#e7e6e7;}.cls-8{fill:#e2a541;}.cls-9{fill:#744d29;}.cls-10{fill:#d0d2d3;}.cls-11{fill:#f8f7f7;}.cls-12{fill:#e8af2d;}.cls-13{fill:#f9ca36;}.cls-14{fill:#c38728;}.cls-15,.cls-25{fill:#fff;}.cls-16{fill:#2b57a4;}.cls-17,.cls-25{opacity:0.2;}.cls-17,.cls-23{mix-blend-mode:multiply;}.cls-18{fill:#1c2949;}.cls-19{fill:#1d53a1;}.cls-20{fill:#619ed6;}.cls-21,.cls-23{fill:#196bb3;}.cls-22{fill:#3575ba;}.cls-23{opacity:0.6;}.cls-24{fill:#4391ce;}.cls-26{fill:#f49b6c;}.cls-27{fill:#5ec1cd;}.cls-28{fill:#75b4e3;}.cls-29{fill:url(#linear-gradient);}.cls-30{fill:url(#linear-gradient-2);}</style><linearGradient id="linear-gradient" x1="70.44" y1="333.29" x2="226.03" y2="333.29" gradientUnits="userSpaceOnUse"><stop offset="0" stop-color="#4b9dd7"/><stop offset="1" stop-color="#1f77bd"/></linearGradient><linearGradient id="linear-gradient-2" x1="358.44" y1="365.29" x2="514.03" y2="365.29" xlink:href="#linear-gradient"/></defs><g class="cls-1"><g id="Layer_1" data-name="Layer 1"><path class="cls-2" d="M540.89,261c-7,63.68-36.16,132.22-109.71,178.67q-3.8,2.4-7.58,4.67c-3.47,2.08-6.94,4.07-10.42,6a345.07,345.07,0,0,1-50,22.86c-3.38,1.22-6.74,2.38-10.11,3.46s-6.62,2.11-9.93,3.06a305.2,305.2,0,0,1-41.87,9c-80.71,11.5-153.89-12-201.4-52.92a182,182,0,0,1-23.59-24.34,161.06,161.06,0,0,1-16-24c-41.4-76.31-9.45-167.86,58.22-191,74.18-25.35,108.91-3.75,195.29-75.11s173.47-79.73,208.72.16c5.89,13.35,11.41,31.2,15.16,51.89A307.45,307.45,0,0,1,540.89,261Z"/><path class="cls-3" d="M127.61,261.17,114.7,244.58s.3-3,8.63-2.72,20.41-2,28.21-2.14a99,99,0,0,1,18,1.49l-13.49,20Z"/><path class="cls-4" d="M165.07,220.76c-5.84,12.85-11.48,25.83-14,39.21l-19.4-3.69c1.93-13.45,1.59-26.84,3-41.07A129.61,129.61,0,0,1,165.07,220.76Z"/><path class="cls-5" d="M146.92,230c5.77,1.05,9.1,5.54,7.57,9.71a9.8,9.8,0,0,1-10.81,6.06c-4.56-.86-8.16-5-7.92-9.37S141.16,229,146.92,230Z"/><path class="cls-5" d="M131.65,256.28l5.18,1a5.38,5.38,0,0,0-4.51-6.13C132.14,252.85,131.92,254.57,131.65,256.28Z"/><path class="cls-6" d="M143,235.82c-.73-.08-1.18.42-1.35,1.48s.08,1.65.73,1.76a.93.93,0,0,0,1-.36,10.42,10.42,0,0,0,1-1.95,4.19,4.19,0,0,1,1.66-2.07,3.45,3.45,0,0,1,2.39-.32,2.68,2.68,0,0,1,2.15,1.63,4.15,4.15,0,0,1,.11,2.79c-.67,2.37-2.06,3.52-4.19,3.48.09-.68.18-1.35.26-2a2,2,0,0,0,2.19-1.81c.31-1.19,0-1.88-1-2.06a1.14,1.14,0,0,0-1.06.26,6.66,6.66,0,0,0-1.14,1.92,5,5,0,0,1-1.57,2.12,2.55,2.55,0,0,1-2,.39,2.67,2.67,0,0,1-1.86-1.26,4.06,4.06,0,0,1-.47-2.82c.31-2.33,1.45-3.42,3.39-3.22Z"/><path class="cls-6" d="M140.28,236l-.27,1.91-2.07-.32.21-1.92Z"/><path class="cls-6" d="M152.62,238.2l-.57,1.87-2-.39.51-1.88Z"/><path class="cls-5" d="M150.74,259.91q.52-2.57,1.14-5.11a5.33,5.33,0,0,0-6.28,4.13Z"/><path class="cls-5" d="M164.6,220.62c-2.65-.79-5.3-1.51-8-2.14-.95,2.94,1.6,6,5.79,7.09Z"/><path class="cls-5" d="M134.64,215.21c-.16,1.82-.3,3.62-.43,5.42,4.34.34,8.12-1.61,8.7-4.67Q138.82,215.45,134.64,215.21Z"/><path class="cls-5" d="M143,249.14a1.8,1.8,0,0,1,1.49,2.1,1.83,1.83,0,0,1-2.14,1.41,1.85,1.85,0,0,1-1.5-2.1A1.8,1.8,0,0,1,143,249.14Z"/><path class="cls-5" d="M148.6,222.85c1.42.25,2.32,1.29,2.05,2.29a2.51,2.51,0,0,1-2.93,1.36c-1.33-.24-2.26-1.23-2.06-2.25S147.19,222.59,148.6,222.85Z"/><path class="cls-4" d="M160.4,212.94c-4.23,14.11-8.23,28.33-9,42.52-6.84-.36-13.68-.73-20.57-1.08.1-14.18-2.14-28-2.7-42.9A135.8,135.8,0,0,1,160.4,212.94Z"/><path class="cls-5" d="M142.91,224.23c6.72.29,11.2,4.89,10.11,9.87a11.24,11.24,0,0,1-11.36,8.56c-5.32-.26-10-4.43-10.46-9.43S136.19,224,142.91,224.23Z"/><path class="cls-5" d="M129.61,256.51l6,.31a6.18,6.18,0,0,0-6.08-6.27C129.63,252.53,129.65,254.51,129.61,256.51Z"/><path class="cls-6" d="M139.37,231.46c-.84,0-1.28.67-1.31,1.9s.35,1.87,1.11,1.9a1.09,1.09,0,0,0,1-.57,12.2,12.2,0,0,0,.84-2.37,4.91,4.91,0,0,1,1.57-2.61,4,4,0,0,1,2.67-.74,3.08,3.08,0,0,1,2.71,1.52,4.82,4.82,0,0,1,.56,3.15c-.4,2.81-1.81,4.33-4.23,4.61,0-.78,0-1.55,0-2.33,1.31-.11,2-.91,2.22-2.4s-.32-2.13-1.46-2.19a1.38,1.38,0,0,0-1.18.46,8.18,8.18,0,0,0-1,2.36,5.66,5.66,0,0,1-1.46,2.66,3,3,0,0,1-2.16.75,3.16,3.16,0,0,1-2.31-1.15,4.68,4.68,0,0,1-1-3.14c0-2.7,1.12-4.12,3.35-4.19C139.36,229.88,139.36,230.67,139.37,231.46Z"/><path class="cls-6" d="M136.27,232.07v2.21l-2.41-.05c0-.73,0-1.47-.05-2.21Z"/><path class="cls-6" d="M150.66,232.69l-.36,2.21-2.35-.13c.1-.74.19-1.48.3-2.22Z"/><path class="cls-5" d="M151.89,257.68c.13-2,.29-4,.5-6a6.11,6.11,0,0,0-6.5,5.67Z"/><path class="cls-5" d="M161.56,210.83c-3.14-.49-6.26-.89-9.38-1.2-.63,3.5,2.75,6.58,7.68,7.17Q160.72,213.82,161.56,210.83Z"/><path class="cls-5" d="M126.65,209.32c.09,2.1.21,4.17.34,6.23,5-.28,9-3.08,9.18-6.65C133,208.93,129.83,209.07,126.65,209.32Z"/><path class="cls-5" d="M141.46,246.62a2.07,2.07,0,0,1,2,2.15,2.13,2.13,0,0,1-4.25-.21A2.07,2.07,0,0,1,141.46,246.62Z"/><path class="cls-5" d="M143.71,215.85c1.65.07,2.84,1.11,2.68,2.29s-1.55,2.06-3.11,2-2.77-1-2.7-2.23S142.06,215.78,143.71,215.85Z"/><path class="cls-7" d="M127.61,261.17,114.7,244.58s.3-5.13,8.63-4.84,17.22,3.87,25,4.24a66.17,66.17,0,0,0,21.16-2.77l-13.49,20Z"/><path class="cls-7" d="M172.43,291.68c-4.15-10.2-10.53-20.85-16.41-30.51h-28.4a313.26,313.26,0,0,0-16.28,30.51c-9.8,21.47-4.22,28.55,7.28,33.62,8.54,3.77,38,3.77,46.52,0C176.65,320.23,179.55,309.18,172.43,291.68Z"/><path class="cls-8" d="M147,289.41c-.17-2.05-2.05-3.08-5.66-3.09s-5.43.95-5.44,2.88a2.67,2.67,0,0,0,1.74,2.57,36.22,36.22,0,0,0,7,1.84c3.52.69,6.1,1.82,7.75,3.42a8.17,8.17,0,0,1,2.46,6.18,7.62,7.62,0,0,1-4,6.85,17.15,17.15,0,0,1-9.1,2.38q-12.37,0-14.07-9.53l6.83-.53q.74,5,7.3,5c4.11,0,6.16-1.36,6.17-4.14a3,3,0,0,0-1.49-2.76q-1.49-.9-7-2c-3.67-.73-6.32-1.84-7.95-3.31a7.14,7.14,0,0,1-2.42-5.52,7.35,7.35,0,0,1,3.16-6c2.11-1.62,5.16-2.43,9.16-2.41q11.9,0,12.44,7.91Z"/><rect class="cls-8" x="138.82" y="275.7" width="5.92" height="6.51" transform="translate(-137.71 419.66) rotate(-89.78)"/><rect class="cls-8" x="138.7" y="311.01" width="5.92" height="6.51" transform="translate(-173.14 454.74) rotate(-89.78)"/><path class="cls-9" d="M158.65,261.79a1.17,1.17,0,0,1-1.27,1H125.85a1.16,1.16,0,0,1-1.27-1V261a1.16,1.16,0,0,1,1.27-1h31.53a1.17,1.17,0,0,1,1.27,1Z"/><path class="cls-10" d="M149.89,323.58c5.25,3.78,14.62.56,18.09-1.89,4.83-3.43,7-10.24,6.48-15.12a39.94,39.94,0,0,0-3.29-12.73,21.69,21.69,0,0,1-1.37,13.73c-2.8,6.58-10.91,8.26-16.29,8.87C149.75,316.86,144.67,319.82,149.89,323.58Z"/><path class="cls-10" d="M146.7,259s9.93-3.61,14.84-8.65c5.54-5.7-5.45,8.65-5.45,8.65Z"/><path class="cls-11" d="M118.51,245.79s.19.14.49.41.73.67,1.22,1.16a40.79,40.79,0,0,1,3.29,3.83,40.35,40.35,0,0,1,2.81,4.19c.34.6.61,1.11.79,1.48s.27.59.27.59l-.5-.42c-.3-.27-.73-.66-1.22-1.16a37.66,37.66,0,0,1-3.28-3.82,41.44,41.44,0,0,1-2.81-4.19c-.34-.6-.61-1.12-.79-1.49S118.51,245.79,118.51,245.79Z"/><path class="cls-11" d="M128.44,264.89s-.16.49-.47,1.32-.76,2-1.35,3.4c-1.15,2.79-2.84,6.44-4.66,10s-3.76,7.11-5.33,9.7c-.78,1.3-1.46,2.36-1.94,3.1s-.79,1.15-.79,1.15.16-.48.47-1.31.76-2,1.35-3.4c1.15-2.8,2.85-6.45,4.66-10s3.76-7.11,5.34-9.69c.77-1.3,1.45-2.36,1.94-3.1S128.44,264.89,128.44,264.89Z"/><path class="cls-12" d="M127.05,318.54a13.62,13.62,0,1,1-9.2-16.93A13.63,13.63,0,0,1,127.05,318.54Z"/><path class="cls-13" d="M124.69,317.84A11.16,11.16,0,1,1,117.15,304,11.16,11.16,0,0,1,124.69,317.84Z"/><path class="cls-14" d="M117.18,312.42c.18-.86-.46-1.5-1.93-1.94s-2.34-.27-2.57.51a1.13,1.13,0,0,0,.4,1.26,15.3,15.3,0,0,0,2.64,1.6,6.45,6.45,0,0,1,2.75,2.33,3.48,3.48,0,0,1,.26,2.82,3.22,3.22,0,0,1-2.46,2.31,7.2,7.2,0,0,1-4-.12q-5-1.51-4.59-5.59l2.85.61c-.2,1.41.59,2.39,2.38,2.92s2.67.19,3-.95a1.28,1.28,0,0,0-.27-1.3,11.12,11.12,0,0,0-2.61-1.66,7,7,0,0,1-2.84-2.31,3,3,0,0,1-.33-2.54,3.13,3.13,0,0,1,2-2.06,6.23,6.23,0,0,1,4,.12c3.23,1,4.61,2.55,4.12,4.73Z"/><rect class="cls-14" x="115.05" y="306.14" width="2.52" height="2.77" transform="translate(-211.66 330.52) rotate(-73.29)"/><rect class="cls-14" x="110.74" y="320.53" width="2.52" height="2.77" transform="translate(-228.53 336.6) rotate(-73.29)"/><path class="cls-15" d="M103.46,311.75a6.34,6.34,0,0,1,.82-3.05,6.42,6.42,0,0,1,3-.82,5.87,5.87,0,0,1-3-.83,5.81,5.81,0,0,1-.82-3.05,5.65,5.65,0,0,1-.88,3.1,5.33,5.33,0,0,1-3,.78,5.94,5.94,0,0,1,3,.82A5.87,5.87,0,0,1,103.46,311.75Z"/><path class="cls-15" d="M106.05,312.35a1.13,1.13,0,0,1,1.37-1.38,2.11,2.11,0,0,1-1.08-.29,2.06,2.06,0,0,1-.29-1.09,2,2,0,0,1-.32,1.11,1.88,1.88,0,0,1-1.06.27,1.14,1.14,0,0,1,1.38,1.38Z"/><path class="cls-15" d="M101,315.27a3.19,3.19,0,0,1,.4-1.51,3.15,3.15,0,0,1,1.51-.4,2.93,2.93,0,0,1-1.51-.41,2.87,2.87,0,0,1-.4-1.51,2.82,2.82,0,0,1-.44,1.54,2.66,2.66,0,0,1-1.48.38,3,3,0,0,1,1.51.4A3,3,0,0,1,101,315.27Z"/><rect class="cls-16" x="384.93" y="346.29" width="94.54" height="10.79"/><g class="cls-17"><rect class="cls-18" x="387.39" y="347.83" width="2.37" height="7.72"/><rect class="cls-18" x="391.55" y="347.83" width="2.37" height="7.72"/><rect class="cls-18" x="395.7" y="347.83" width="2.37" height="7.72"/><rect class="cls-18" x="399.86" y="347.83" width="2.37" height="7.72"/><rect class="cls-18" x="404.02" y="347.83" width="2.37" height="7.72"/><rect class="cls-18" x="408.18" y="347.83" width="2.37" height="7.72"/><rect class="cls-18" x="412.33" y="347.83" width="2.37" height="7.72"/><rect class="cls-18" x="416.49" y="347.83" width="2.37" height="7.72"/><rect class="cls-18" x="420.65" y="347.83" width="2.37" height="7.72"/><rect class="cls-18" x="424.81" y="347.83" width="2.37" height="7.72"/><rect class="cls-18" x="428.97" y="347.83" width="2.37" height="7.72"/><rect class="cls-18" x="433.12" y="347.83" width="2.37" height="7.72"/><rect class="cls-18" x="437.28" y="347.83" width="2.37" height="7.72"/><rect class="cls-18" x="441.44" y="347.83" width="2.37" height="7.72"/><rect class="cls-18" x="445.6" y="347.83" width="2.37" height="7.72"/><rect class="cls-18" x="449.75" y="347.83" width="2.37" height="7.72"/><rect class="cls-18" x="453.91" y="347.83" width="2.37" height="7.72"/><rect class="cls-18" x="458.07" y="347.83" width="2.37" height="7.72"/><rect class="cls-18" x="462.23" y="347.83" width="2.37" height="7.72"/><rect class="cls-18" x="466.38" y="347.83" width="2.37" height="7.72"/><rect class="cls-18" x="470.54" y="347.83" width="2.37" height="7.72"/><rect class="cls-18" x="474.7" y="347.83" width="2.37" height="7.72"/></g><rect class="cls-19" x="479.47" y="346.29" width="14.75" height="10.79" transform="translate(973.7 703.37) rotate(180)"/><rect class="cls-20" x="380.01" y="155.68" width="99.46" height="190.61"/><rect class="cls-21" x="386.53" y="154.05" width="106.09" height="1.63"/><rect class="cls-22" x="479.47" y="155.68" width="19.67" height="190.61" transform="translate(978.61 501.97) rotate(180)"/><rect class="cls-23" x="382.32" y="206.1" width="94.84" height="18.92" rx="3.27"/><path class="cls-22" d="M469.18,213l-3.83-7.89V226h11.81V215.56h-3.92A4.5,4.5,0,0,1,469.18,213Z"/><rect class="cls-24" x="382.32" y="157.96" width="94.84" height="20.89"/><rect class="cls-24" x="382.32" y="323" width="94.84" height="20.89"/><rect class="cls-24" x="382.32" y="299.43" width="94.84" height="20.89"/><rect class="cls-24" x="382.32" y="275.85" width="94.84" height="20.89"/><rect class="cls-24" x="382.32" y="252.27" width="94.84" height="20.89"/><rect class="cls-24" x="382.32" y="228.69" width="94.84" height="20.89"/><rect class="cls-24" x="370.52" y="205.12" width="94.84" height="20.89"/><rect class="cls-24" x="382.32" y="181.54" width="94.84" height="20.89"/><rect class="cls-22" x="432.15" y="160.95" width="42.15" height="14.92" rx="3.77"/><rect class="cls-25" x="459.71" y="161.27" width="3.81" height="14.27" rx="1.52" transform="translate(630.02 -293.21) rotate(90)"/><rect class="cls-22" x="432.15" y="184.52" width="42.15" height="14.92" rx="3.77"/><rect class="cls-26" x="459.71" y="184.85" width="3.81" height="14.27" rx="1.52" transform="translate(653.6 -269.63) rotate(90)"/><rect class="cls-22" x="420.35" y="208.1" width="42.15" height="14.92" rx="3.77"/><rect class="cls-25" x="447.91" y="208.43" width="3.81" height="14.27" rx="1.52" transform="translate(665.37 -234.25) rotate(90)"/><rect class="cls-22" x="432.15" y="231.68" width="42.15" height="14.92" rx="3.77"/><rect class="cls-25" x="459.71" y="232" width="3.81" height="14.27" rx="1.52" transform="translate(700.75 -222.48) rotate(90)"/><rect class="cls-22" x="432.15" y="255.26" width="42.15" height="14.92" rx="3.77"/><rect class="cls-26" x="459.71" y="255.58" width="3.81" height="14.27" rx="1.52" transform="translate(724.33 -198.9) rotate(90)"/><rect class="cls-22" x="432.15" y="278.83" width="42.15" height="14.92" rx="3.77"/><rect class="cls-26" x="459.71" y="279.16" width="3.81" height="14.27" rx="1.52" transform="translate(747.91 -175.32) rotate(90)"/><rect class="cls-22" x="432.15" y="302.41" width="42.15" height="14.92" rx="3.77"/><rect class="cls-25" x="459.71" y="302.74" width="3.81" height="14.27" rx="1.52" transform="translate(771.49 -151.75) rotate(90)"/><rect class="cls-22" x="432.15" y="325.99" width="42.15" height="14.92" rx="3.77"/><rect class="cls-25" x="459.71" y="326.31" width="3.81" height="14.27" rx="1.52" transform="translate(795.06 -128.17) rotate(90)"/><circle class="cls-22" cx="424.82" cy="168.41" r="2.41"/><circle class="cls-22" cx="417.94" cy="168.41" r="2.41"/><circle class="cls-26" cx="411.05" cy="168.41" r="2.41"/><path class="cls-22" d="M406.57,168.41a2.41,2.41,0,1,1-2.41-2.41A2.41,2.41,0,0,1,406.57,168.41Z"/><circle class="cls-27" cx="424.82" cy="191.98" r="2.41"/><circle class="cls-22" cx="417.94" cy="191.98" r="2.41"/><circle class="cls-22" cx="411.05" cy="191.98" r="2.41"/><path class="cls-28" d="M406.57,192a2.41,2.41,0,1,1-2.41-2.41A2.41,2.41,0,0,1,406.57,192Z"/><circle class="cls-28" cx="413.02" cy="215.56" r="2.41"/><circle class="cls-22" cx="406.13" cy="215.56" r="2.41"/><circle class="cls-28" cx="399.24" cy="215.56" r="2.41"/><circle class="cls-22" cx="392.36" cy="215.56" r="2.41"/><circle class="cls-28" cx="424.82" cy="239.14" r="2.41"/><circle class="cls-26" cx="417.94" cy="239.14" r="2.41"/><circle class="cls-22" cx="411.05" cy="239.14" r="2.41"/><path class="cls-27" d="M406.57,239.14a2.41,2.41,0,1,1-2.41-2.41A2.41,2.41,0,0,1,406.57,239.14Z"/><circle class="cls-22" cx="424.82" cy="262.72" r="2.41"/><circle class="cls-28" cx="417.94" cy="262.72" r="2.41"/><circle class="cls-22" cx="411.05" cy="262.72" r="2.41"/><path class="cls-22" d="M406.57,262.72a2.41,2.41,0,1,1-2.41-2.42A2.41,2.41,0,0,1,406.57,262.72Z"/><circle class="cls-27" cx="424.82" cy="286.29" r="2.41"/><circle class="cls-27" cx="417.94" cy="286.29" r="2.41"/><circle class="cls-28" cx="411.05" cy="286.29" r="2.41"/><path class="cls-28" d="M406.57,286.29a2.41,2.41,0,1,1-2.41-2.41A2.41,2.41,0,0,1,406.57,286.29Z"/><path class="cls-28" d="M427.23,309.87a2.41,2.41,0,1,1-2.41-2.41A2.41,2.41,0,0,1,427.23,309.87Z"/><path class="cls-27" d="M420.35,309.87a2.41,2.41,0,1,1-2.41-2.41A2.41,2.41,0,0,1,420.35,309.87Z"/><path class="cls-22" d="M413.46,309.87a2.41,2.41,0,1,1-2.41-2.41A2.41,2.41,0,0,1,413.46,309.87Z"/><path class="cls-22" d="M406.57,309.87a2.41,2.41,0,1,1-2.41-2.41A2.41,2.41,0,0,1,406.57,309.87Z"/><circle class="cls-22" cx="424.82" cy="333.45" r="2.41"/><circle class="cls-27" cx="417.94" cy="333.45" r="2.41"/><circle class="cls-27" cx="411.05" cy="333.45" r="2.41"/><path class="cls-26" d="M406.57,333.45a2.41,2.41,0,1,1-2.41-2.41A2.41,2.41,0,0,1,406.57,333.45Z"/><path class="cls-26" d="M397,168.41a5.23,5.23,0,1,1-5.22-5.23A5.22,5.22,0,0,1,397,168.41Z"/><path class="cls-26" d="M397,192a5.23,5.23,0,1,1-5.22-5.22A5.22,5.22,0,0,1,397,192Z"/><path class="cls-26" d="M385.14,215.56a5.22,5.22,0,1,1-5.22-5.22A5.22,5.22,0,0,1,385.14,215.56Z"/><path class="cls-26" d="M397,239.14a5.23,5.23,0,1,1-5.22-5.22A5.22,5.22,0,0,1,397,239.14Z"/><path class="cls-26" d="M397,262.72a5.23,5.23,0,1,1-5.22-5.23A5.22,5.22,0,0,1,397,262.72Z"/><path class="cls-26" d="M397,286.29a5.23,5.23,0,1,1-5.22-5.22A5.22,5.22,0,0,1,397,286.29Z"/><path class="cls-26" d="M397,309.87a5.23,5.23,0,1,1-5.22-5.22A5.22,5.22,0,0,1,397,309.87Z"/><path class="cls-26" d="M397,333.45a5.23,5.23,0,1,1-5.22-5.22A5.22,5.22,0,0,1,397,333.45Z"/><path class="cls-19" d="M421,117l-.71-.08"/><rect class="cls-19" x="423.9" y="365.3" width="24.67" height="27.43"/><rect class="cls-19" x="135.9" y="333.3" width="24.67" height="27.43"/><path class="cls-27" d="M132.27,367.2a7.34,7.34,0,0,1-6.49-8.12l.27-2.31a7.34,7.34,0,0,1,8.12-6.49L451,385.74a7.33,7.33,0,0,1,6.48,8.12l-.26,2.31a7.34,7.34,0,0,1-8.12,6.49Z"/><path class="cls-29" d="M70.44,322.66c17.1,13.11,51.15,21.26,77.8,21.26s60.69-8.15,77.79-21.26Z"/><path class="cls-30" d="M358.44,354.66c17.1,13.11,51.15,21.26,77.8,21.26s60.69-8.15,77.79-21.26Z"/><path class="cls-19" d="M324.93,434l-6-76.23c0-12.5-10.13-25.63-22.6-25.61h-7.16c-12.49,0-22.62,13.13-22.6,25.6l-6,76.25Z"/><path class="cls-27" d="M304.9,376.47a12.12,12.12,0,1,1-12.12-12.12A12.12,12.12,0,0,1,304.9,376.47Z"/><path class="cls-27" d="M256.21,440.57a4.4,4.4,0,0,1-4.4-4.4v-1.39a4.4,4.4,0,0,1,4.39-4.41h70.84a4.38,4.38,0,0,1,4.39,4.4v1.39a4.39,4.39,0,0,1-4.4,4.4Z"/></g></g></svg>