<svg id="Layer_1" data-name="Layer 1" xmlns="http://www.w3.org/2000/svg" xmlns:xlink="http://www.w3.org/1999/xlink" viewBox="0 0 584.47 584.47"><defs><style>.cls-1{fill:#c8e5f9;opacity:0.58;isolation:isolate;}.cls-2{fill:url(#linear-gradient);}.cls-3{fill:url(#linear-gradient-2);}.cls-4,.cls-5{fill:#fff;}.cls-5{opacity:0.78;}.cls-6{fill:url(#linear-gradient-3);}.cls-7{fill:url(#linear-gradient-4);}.cls-8{fill:url(#linear-gradient-5);}.cls-9{fill:url(#linear-gradient-6);}.cls-10{fill:url(#linear-gradient-7);}.cls-11{fill:url(#linear-gradient-8);}.cls-12{fill:url(#linear-gradient-9);}.cls-13{fill:url(#linear-gradient-10);}.cls-14{fill:url(#linear-gradient-11);}.cls-15{fill:url(#linear-gradient-12);}.cls-16{fill:url(#linear-gradient-13);}.cls-17{fill:url(#linear-gradient-14);}.cls-18{fill:url(#linear-gradient-15);}.cls-19{fill:url(#linear-gradient-16);}.cls-20{fill:url(#linear-gradient-17);}.cls-21{fill:url(#linear-gradient-18);}.cls-22{fill:url(#linear-gradient-19);}.cls-23{fill:url(#linear-gradient-20);}.cls-24{fill:url(#linear-gradient-21);}.cls-25{fill:url(#linear-gradient-22);}.cls-26{fill:url(#linear-gradient-23);}.cls-27{fill:#1f294f;}.cls-28,.cls-50{fill:none;stroke:#a0add9;}.cls-28{stroke-linecap:round;stroke-linejoin:round;stroke-width:1.4px;}.cls-29{fill:#f7b18a;}.cls-30{fill:#f7b28b;}.cls-31{fill:#fee6cb;}.cls-32{fill:#1672b9;}.cls-33{fill:url(#linear-gradient-24);}.cls-34{fill:#41b9b9;}.cls-35{fill:#11222b;}.cls-36{fill:#5ec1cd;}.cls-37{fill:#8ed1e8;}.cls-38{fill:#152735;}.cls-39{fill:url(#linear-gradient-25);}.cls-40{fill:#1f364c;}.cls-41{fill:#c7ccdd;}.cls-42{fill:#a0add9;}.cls-43{fill:#085ca0;}.cls-44{fill:url(#linear-gradient-26);}.cls-45{fill:url(#linear-gradient-27);}.cls-46{fill:url(#linear-gradient-28);}.cls-47{fill:url(#linear-gradient-29);}.cls-48{fill:#f49b6c;}.cls-49{fill:url(#linear-gradient-30);}.cls-50{stroke-miterlimit:10;stroke-width:2.95px;}</style><linearGradient id="linear-gradient" x1="376.48" y1="294.36" x2="395.63" y2="272.13" gradientTransform="translate(353.31 -206.67) rotate(50.45)" gradientUnits="userSpaceOnUse"><stop offset="0" stop-color="#f7ea4a"/><stop offset="1" stop-color="#d93e66"/></linearGradient><linearGradient id="linear-gradient-2" x1="406.46" y1="255.92" x2="349.83" y2="341.47" gradientTransform="translate(132.29 -129.68) rotate(22.24)" xlink:href="#linear-gradient"/><linearGradient id="linear-gradient-3" x1="404.77" y1="258.37" x2="374.61" y2="308.99" gradientTransform="matrix(1, 0, 0, 1, 0, 0)" xlink:href="#linear-gradient"/><linearGradient id="linear-gradient-4" x1="404.29" y1="284.58" x2="437.53" y2="246" gradientTransform="translate(348.23 -248.8) rotate(50.45)" xlink:href="#linear-gradient"/><linearGradient id="linear-gradient-5" x1="456.3" y1="217.87" x2="358.03" y2="366.33" gradientTransform="translate(125.42 -147.61) rotate(22.24)" xlink:href="#linear-gradient"/><linearGradient id="linear-gradient-6" x1="453.37" y1="222.12" x2="401.05" y2="309.97" gradientTransform="matrix(1, 0, 0, 1, 0, 0)" xlink:href="#linear-gradient"/><linearGradient id="linear-gradient-7" x1="376.81" y1="355.28" x2="408.28" y2="318.75" gradientTransform="translate(450.59 -198.33) rotate(56.74)" xlink:href="#linear-gradient"/><linearGradient id="linear-gradient-8" x1="426.06" y1="292.11" x2="333.01" y2="432.69" gradientTransform="matrix(0.83, 0.55, -0.55, 0.83, 243.8, -172.99)" xlink:href="#linear-gradient"/><linearGradient id="linear-gradient-9" x1="415.08" y1="309.65" x2="394.42" y2="340.3" gradientTransform="matrix(1, 0, 0, 1, 0, 0)" xlink:href="#linear-gradient"/><linearGradient id="linear-gradient-10" x1="328.84" y1="273.57" x2="355.98" y2="242.07" gradientTransform="translate(374.46 -188.78) rotate(58.28)" xlink:href="#linear-gradient"/><linearGradient id="linear-gradient-11" x1="371.32" y1="219.09" x2="291.06" y2="340.33" gradientTransform="translate(509.59 -161.03) rotate(76.72)" xlink:href="#linear-gradient"/><linearGradient id="linear-gradient-12" x1="329.14" y1="253.14" x2="380.93" y2="224.77" gradientTransform="matrix(1, 0, 0, 1, 0, 0)" xlink:href="#linear-gradient"/><linearGradient id="linear-gradient-13" x1="329.22" y1="253.28" x2="381.01" y2="224.91" gradientTransform="matrix(1, 0, 0, 1, 0, 0)" xlink:href="#linear-gradient"/><linearGradient id="linear-gradient-14" x1="334.21" y1="262.39" x2="386" y2="234.02" gradientTransform="translate(44.38 -54.53) rotate(9.22)" xlink:href="#linear-gradient"/><linearGradient id="linear-gradient-15" x1="331.48" y1="257.42" x2="383.27" y2="229.05" gradientTransform="matrix(1, 0, 0, 1, 0, 0)" xlink:href="#linear-gradient"/><linearGradient id="linear-gradient-16" x1="437.66" y1="333.62" x2="467.69" y2="298.76" gradientTransform="translate(226.64 -201.68) rotate(31.72)" xlink:href="#linear-gradient"/><linearGradient id="linear-gradient-17" x1="484.65" y1="273.34" x2="395.87" y2="407.48" gradientTransform="translate(282.61 -225.07) rotate(37.98)" xlink:href="#linear-gradient"/><linearGradient id="linear-gradient-18" x1="478.61" y1="291.03" x2="437.2" y2="328.68" gradientTransform="matrix(1, 0, 0, 1, 0, 0)" xlink:href="#linear-gradient"/><linearGradient id="linear-gradient-19" x1="476.49" y1="288.06" x2="433.63" y2="327.02" gradientTransform="matrix(1, 0, 0, 1, 0, 0)" xlink:href="#linear-gradient"/><linearGradient id="linear-gradient-20" x1="345.28" y1="303.12" x2="361.92" y2="283.8" gradientTransform="translate(567.04 -128.44) rotate(78.4)" xlink:href="#linear-gradient"/><linearGradient id="linear-gradient-21" x1="371.33" y1="269.71" x2="322.11" y2="344.07" gradientTransform="translate(412.89 -173.75) rotate(58.28)" xlink:href="#linear-gradient"/><linearGradient id="linear-gradient-22" x1="377.47" y1="268.72" x2="337.15" y2="306.73" gradientTransform="matrix(1, 0, 0, 1, 0, 0)" xlink:href="#linear-gradient"/><linearGradient id="linear-gradient-23" x1="378.99" y1="270.28" x2="338.62" y2="308.33" gradientTransform="matrix(1, 0, 0, 1, 0, 0)" xlink:href="#linear-gradient"/><linearGradient id="linear-gradient-24" x1="234.98" y1="302.9" x2="292.38" y2="302.9" gradientUnits="userSpaceOnUse"><stop offset="0" stop-color="#f8bb99"/><stop offset="1" stop-color="#f49e6f"/></linearGradient><linearGradient id="linear-gradient-25" x1="209.51" y1="329.83" x2="256.02" y2="329.83" gradientUnits="userSpaceOnUse"><stop offset="0" stop-color="#4b9dd7"/><stop offset="1" stop-color="#1f77bd"/></linearGradient><linearGradient id="linear-gradient-26" x1="353.57" y1="431.81" x2="374.89" y2="431.81" gradientUnits="userSpaceOnUse"><stop offset="0" stop-color="#45989f"/><stop offset="0.36" stop-color="#52adb6"/><stop offset="0.72" stop-color="#5bbcc7"/><stop offset="1" stop-color="#5ec1cd"/></linearGradient><linearGradient id="linear-gradient-27" x1="328.92" y1="424.16" x2="362.05" y2="424.16" xlink:href="#linear-gradient-26"/><linearGradient id="linear-gradient-28" x1="359.83" y1="440.38" x2="406.2" y2="440.38" xlink:href="#linear-gradient-26"/><linearGradient id="linear-gradient-29" x1="334.73" y1="479.7" x2="388.86" y2="479.7" xlink:href="#linear-gradient-24"/><linearGradient id="linear-gradient-30" x1="329.81" y1="463.18" x2="392.13" y2="463.18" xlink:href="#linear-gradient-24"/></defs><path class="cls-1" d="M525.79,274.75c-6,54.77-31.1,113.71-94.35,153.66-2.18,1.37-4.34,2.7-6.52,4q-4.47,2.68-9,5.17a295.79,295.79,0,0,1-43,19.66c-2.91,1.05-5.8,2.05-8.69,3s-5.7,1.81-8.54,2.63a263.07,263.07,0,0,1-36,7.77c-69.41,9.89-132.35-10.31-173.21-45.51a156.11,156.11,0,0,1-20.28-20.93,138.31,138.31,0,0,1-13.74-20.67c-35.61-65.62-8.13-144.36,50.07-164.24,63.79-21.8,93.66-3.23,168-64.6s149.19-68.57,179.5.14c5.07,11.48,9.81,26.83,13,44.63A264.35,264.35,0,0,1,525.79,274.75Z"/><circle class="cls-2" cx="396.02" cy="271.68" r="14.28" transform="translate(-65.64 404.02) rotate(-50.45)"/><circle class="cls-3" cx="396.02" cy="271.68" r="13.8" transform="translate(-73.37 170.1) rotate(-22.24)"/><path class="cls-4" d="M384.64,266.48a.49.49,0,0,1-.24-.05.54.54,0,0,1-.24-.72A13.22,13.22,0,0,1,396,258.4a13.73,13.73,0,0,1,2.4.22.53.53,0,1,1-.2,1.05,12.41,12.41,0,0,0-2.2-.19,12.15,12.15,0,0,0-10.9,6.71A.54.54,0,0,1,384.64,266.48Z"/><circle class="cls-5" cx="396.32" cy="271.98" r="11.68" transform="translate(-52.43 99.74) rotate(-13.46)"/><path class="cls-6" d="M395.18,280.67V279.4a10.45,10.45,0,0,1-3.57-.78.74.74,0,0,1-.41-.87l.33-1.18a.73.73,0,0,1,1-.48,8.71,8.71,0,0,0,3.29.69c1.28,0,2.23-.43,2.23-1.32s-.73-1.28-2.51-1.75c-2.53-.7-4.34-1.8-4.34-4,0-2,1.47-3.54,4-3.95v-1.28a.74.74,0,0,1,.74-.74h.75a.75.75,0,0,1,.74.74v1.15a9.16,9.16,0,0,1,2.82.5.73.73,0,0,1,.46.89l-.29,1.1a.75.75,0,0,1-1,.5,7.59,7.59,0,0,0-2.77-.51c-1.51,0-1.95.63-1.95,1.19s.91,1.17,2.88,1.78c2.81.84,4,2,4,4.11,0,1.92-1.43,3.65-4.2,4.08v1.43a.74.74,0,0,1-.74.74h-.74A.74.74,0,0,1,395.18,280.67Z"/><circle class="cls-7" cx="438.2" cy="245.22" r="24.78" transform="translate(-29.92 426.93) rotate(-50.45)"/><circle class="cls-8" cx="438.2" cy="245.22" r="23.95" transform="translate(-60.22 184.1) rotate(-22.24)"/><path class="cls-4" d="M418.45,236.2a.87.87,0,0,1-.42-.1.92.92,0,0,1-.41-1.25,23,23,0,0,1,24.73-12.29.93.93,0,0,1-.33,1.83,21.17,21.17,0,0,0-22.74,11.3A.92.92,0,0,1,418.45,236.2Z"/><circle class="cls-5" cx="438.72" cy="245.75" r="20.27" transform="translate(-45.16 108.89) rotate(-13.46)"/><path class="cls-9" d="M436.73,260.82v-2.21a17.9,17.9,0,0,1-6.19-1.34,1.27,1.27,0,0,1-.7-1.51l.56-2a1.27,1.27,0,0,1,1.74-.84,15,15,0,0,0,5.72,1.2c2.21,0,3.86-.75,3.86-2.29s-1.27-2.21-4.35-3c-4.39-1.2-7.55-3.12-7.55-7,0-3.49,2.56-6.16,7-6.87v-2.21a1.28,1.28,0,0,1,1.29-1.28h1.3a1.28,1.28,0,0,1,1.28,1.28v2a16.65,16.65,0,0,1,4.91.88,1.29,1.29,0,0,1,.8,1.55l-.52,1.9a1.28,1.28,0,0,1-1.69.86,13.55,13.55,0,0,0-4.81-.87c-2.63,0-3.38,1.09-3.38,2.06,0,1.21,1.58,2,5,3.08,4.88,1.47,6.91,3.49,6.91,7.13,0,3.34-2.48,6.35-7.28,7.1v2.47a1.28,1.28,0,0,1-1.29,1.28H438A1.28,1.28,0,0,1,436.73,260.82Z"/><circle class="cls-10" cx="408.92" cy="318.01" r="23.46" transform="translate(-81.26 485.56) rotate(-56.74)"/><circle class="cls-11" cx="408.92" cy="318.01" r="22.68" transform="translate(-107.62 278.89) rotate(-33.54)"/><path class="cls-4" d="M390.21,308.77l-.08,0a.18.18,0,0,1-.08-.24,21,21,0,0,1,18.87-11.62,22,22,0,0,1,3.81.34.18.18,0,0,1,.14.21.18.18,0,0,1-.21.15,21.15,21.15,0,0,0-3.74-.34,20.67,20.67,0,0,0-18.54,11.42A.21.21,0,0,1,390.21,308.77Z"/><circle class="cls-5" cx="409.41" cy="318.51" r="19.2" transform="translate(-41.78 574.41) rotate(-67.44)"/><path class="cls-12" d="M418.9,320.07a6.82,6.82,0,0,0-4-1.64h0v0h0a5.65,5.65,0,0,0,2.88-1.75,4.09,4.09,0,0,0,1.28-2.95,4,4,0,0,0-2.09-3.59,9,9,0,0,0-4.43-1.24.25.25,0,0,1-.23-.25v-3.83a.25.25,0,0,0-.24-.25h-1.76a.25.25,0,0,0-.25.25v3.88a.24.24,0,0,1-.24.24h-2a.24.24,0,0,1-.24-.24v-3.88a.25.25,0,0,0-.24-.25h-1.77a.25.25,0,0,0-.24.25v3.88a.24.24,0,0,1-.24.24H400a.24.24,0,0,0-.24.24v2a.25.25,0,0,0,.24.25h2.89a.24.24,0,0,1,.24.24v15.12a.25.25,0,0,1-.24.25H400a.24.24,0,0,0-.24.24v2.23a.24.24,0,0,0,.24.24h5.14a.24.24,0,0,1,.24.24v4a.25.25,0,0,0,.24.25h1.77a.25.25,0,0,0,.24-.25v-4a.24.24,0,0,1,.24-.24h2a.24.24,0,0,1,.24.24v4a.25.25,0,0,0,.25.25h1.76a.25.25,0,0,0,.24-.25v-4.08a.24.24,0,0,1,.24-.24,9.86,9.86,0,0,0,5.54-1.66,5.36,5.36,0,0,0,2.25-4.53A4.39,4.39,0,0,0,418.9,320.07Zm-8.61-7.75c2.52,0,3.78.61,3.78,1.89a1.83,1.83,0,0,1-.92,1.62,4.7,4.7,0,0,1-2.52.59h-2.81a.23.23,0,0,1-.24-.21v-3.69a.22.22,0,0,1,.24-.2ZM414,325.49a4.61,4.61,0,0,1-2.8.79h-3.34a.25.25,0,0,1-.24-.25V321a.24.24,0,0,1,.24-.24h3.37a4.8,4.8,0,0,1,2.79.68,2.39,2.39,0,0,1,1,2A2.42,2.42,0,0,1,414,325.49Z"/><circle class="cls-13" cx="356.53" cy="241.43" r="20.23" transform="translate(-36.28 417.78) rotate(-58.28)"/><circle class="cls-14" cx="356.53" cy="241.43" r="19.56" transform="translate(39.64 532.95) rotate(-76.72)"/><path class="cls-4" d="M340.4,233.5l-.09,0a.2.2,0,0,1-.08-.26,18.33,18.33,0,0,1,19.59-9.74.19.19,0,0,1,.15.22.18.18,0,0,1-.22.15,18.19,18.19,0,0,0-3.22-.29,17.79,17.79,0,0,0-16,9.83A.2.2,0,0,1,340.4,233.5Z"/><circle class="cls-5" cx="356.95" cy="241.86" r="16.56" transform="translate(73.29 566.59) rotate(-82.98)"/><path class="cls-15" d="M365.38,235.85a4.67,4.67,0,1,1-4.67-4.66A4.67,4.67,0,0,1,365.38,235.85Z"/><path class="cls-16" d="M354.7,241.87a4.66,4.66,0,1,1-4.66-4.66A4.66,4.66,0,0,1,354.7,241.87Z"/><circle class="cls-17" cx="360.43" cy="248.03" r="4.66" transform="translate(-35.08 60.94) rotate(-9.22)"/><path class="cls-18" d="M357.62,238.3a4.35,4.35,0,0,1-4.8,3.81l-.36,1.72s4.4-1.92,5,4.14a11.72,11.72,0,0,0,2.76-2.67s-4.26-3,0-5.37A8.07,8.07,0,0,1,357.62,238.3Z"/><circle class="cls-19" cx="468.29" cy="298.06" r="22.39" transform="translate(-86.76 290.71) rotate(-31.72)"/><circle class="cls-20" cx="468.29" cy="298.06" r="21.64" transform="translate(-84.25 351.32) rotate(-37.98)"/><path class="cls-4" d="M450.45,289.29a.19.19,0,0,1-.1,0,.21.21,0,0,1-.09-.29,20.21,20.21,0,0,1,21.68-10.77.21.21,0,1,1-.08.42,20.26,20.26,0,0,0-3.57-.32,19.68,19.68,0,0,0-17.65,10.87A.22.22,0,0,1,450.45,289.29Z"/><circle class="cls-5" cx="468.77" cy="298.53" r="18.32" transform="translate(70.52 686.17) rotate(-76.72)"/><path class="cls-21" d="M476.07,303.86c-.11-.13-.27-.08-.44-.08h-8c-.18,0-.34-.22-.44-.36a.65.65,0,0,1-.08-.56L471.58,289a.59.59,0,0,0-.08-.5.54.54,0,0,0-.44-.24h-3.38a.54.54,0,0,0-.52.37l-5.8,17.89a.37.37,0,0,0,.08.39c.1.15.27.13.44.13H475c.25,0,.47-.07.54-.32l.65-2.48C476.21,304.05,476.17,304,476.07,303.86Z"/><path class="cls-22" d="M471.44,295.53l-.12-.16a.55.55,0,0,0-.71-.15,7.62,7.62,0,0,1-3.76.92,9.45,9.45,0,0,0-5.33,2,.5.5,0,0,0-.22.38.57.57,0,0,0,.12.42l.13.15a.55.55,0,0,0,.74.09,8.38,8.38,0,0,1,4.43-1.73H467a8.72,8.72,0,0,0,4.23-1.1.52.52,0,0,0,.27-.36A.58.58,0,0,0,471.44,295.53Z"/><circle class="cls-23" cx="362.26" cy="283.41" r="12.41" transform="translate(11.8 581.29) rotate(-78.4)"/><circle class="cls-24" cx="362.26" cy="283.41" r="12" transform="translate(-69.27 442.57) rotate(-58.28)"/><path class="cls-4" d="M352.37,278.54h-.06a.13.13,0,0,1-.05-.16,11.15,11.15,0,0,1,10-6.16,11.33,11.33,0,0,1,2,.19.12.12,0,0,1,.1.13.13.13,0,0,1-.14.1,11,11,0,0,0-11.77,5.85A.11.11,0,0,1,352.37,278.54Z"/><circle class="cls-5" cx="362.52" cy="283.67" r="10.15" transform="translate(-58.64 469.44) rotate(-61.85)"/><path class="cls-25" d="M362.48,276.82a6.7,6.7,0,0,0-6.7,6.7,7.33,7.33,0,0,0,.18,1.57.42.42,0,0,0,.37.33h1.43c.08,0,.44-.14.44-.22v-5c0-.07-.11-.12-.05-.15s.05,0,.1,0l4,4.06a.25.25,0,0,0,.37,0l3.73-3.73a.22.22,0,0,1,.21,0c.06,0,.14.08.14.14v4.55c0,.16,0,.36.18.36h1.79a.3.3,0,0,0,.28-.23,7.26,7.26,0,0,0,.2-1.63A6.73,6.73,0,0,0,362.48,276.82Z"/><path class="cls-26" d="M368.1,286.48H366c-.15,0-.4-.3-.4-.45v-3.2c0-.06,0-.12,0-.14a.11.11,0,0,0-.13,0l-2.85,2.86a.14.14,0,0,1-.21,0l-3.19-3.19a.3.3,0,0,0-.26,0c-.06,0-.19.08-.19.14v3.43c0,.21,0,.55-.19.55H357c-.14,0-.26,0-.33.11a.29.29,0,0,0,0,.33,6.75,6.75,0,0,0,5.79,3.41,6.94,6.94,0,0,0,5.86-3.44.26.26,0,0,0,0-.27A.29.29,0,0,0,368.1,286.48Z"/><ellipse class="cls-1" cx="278.17" cy="484.65" rx="195.8" ry="17.47"/><rect class="cls-27" x="294.77" y="348.17" width="2.27" height="114.95" transform="translate(33.79 -22.61) rotate(4.64)"/><path class="cls-28" d="M377.48,331c-1,5.4-1.79,13.64-9.81,13.64H349.81"/><polygon class="cls-29" points="300.42 469.56 298.08 464.32 303.54 462.55 305.31 467.97 300.42 469.56"/><path class="cls-30" d="M243.78,463.62a42.72,42.72,0,0,0,3.48,3.65l5.46-11.66-7-.91Z"/><path class="cls-31" d="M277.67,292.55c-.12.07,15.18,50.82,15.18,50.82a3.15,3.15,0,0,0,2.82,2.05c2.38.33,18.46,0,18.46,0s-3.8-5.61-10.26-5.29-7.22-.21-7.22-.21l-6-55.58Z"/><path class="cls-31" d="M289.79,258.27l-6.13,9.88s8.09,9.39,8.09,9.07,5.18-12.52,5.18-12.52Z"/><path class="cls-32" d="M297,248.88s8,7.07,14.17,5.13,8.2-4.93,5.51-8.51-10.58-4.55-14.47-5S297.9,237.6,295,238a6.59,6.59,0,0,0-6,6.15c-.19,3.67,0,14.08,0,14.08l0,1.89,2.76-4,.18-3.44,1.71.2Z"/><path class="cls-31" d="M293.7,252.93s-3-2.59-3.78-.75,1.89,4,1.89,4-3.08,2.59-2.76,4,6.7,11.88,10.8,10.8,9.93-13.39,9.5-17.27-8.1-9.29-9.5-8S293.7,252.93,293.7,252.93Z"/><path class="cls-32" d="M295.21,247c.1.33,10.34,10.09,16,7s4.64-7,4.64-7l-19-4.54Z"/><path class="cls-33" d="M240.48,291.36c.22-.43,17.49-21.27,28.07-22.56s15.11-.65,15.11-.65l8.09,9.07s4,16.87-8.09,35.94S258,337.81,258,337.81l-23-43.32Z"/><path class="cls-34" d="M244.25,460.65a4.33,4.33,0,0,0,4.58,3.74s3.57,4.63,5,6.11,6.94,5.65,7.32,6.28-.42,1.84-.42,1.84l-12.67-6s-2.6-3.6-3.7-3.9-1.47,1.46-1.47,1.46L238.16,468s2.05-5.33,2.84-6S242.92,460.36,244.25,460.65Z"/><path class="cls-31" d="M288.86,286.31,272.65,297s16.9,14.36,32.9,20.83,49.89,15.55,53.34,12.63c1.51-1,3.14-2.16,5.4-6.37,0,0,14.22-2.66,10.9-3.56-2.81-.21-20.62-3.78-22,3.46C315.39,314.67,305.55,301.59,288.86,286.31Z"/><path class="cls-35" d="M260.58,345.57c.58-.34,20.65,37.64,17.09,51-7.18,26.94-36.52,64.45-36.52,64.45l-6.17-2.3s15.59-58.69,16.56-64.27-8.66-7.69-12.9-5.19L219,463.94h-6.54s-2.12-47.72,0-61.95a97.83,97.83,0,0,0-.94-34.25c-1.73-9,7.48-17.32,7.48-17.32Z"/><path class="cls-36" d="M232.86,462.48s-4.6,3.06-4.5,4.5,4.5,4.09,4.5,4.09l1.43-.92,4.91,5.62h12.18s1.53-1,0-1.73l-10.52-4.91-2-5.19C237,465.33,233.93,464.12,232.86,462.48Z"/><path class="cls-36" d="M299.5,467.05a4.34,4.34,0,0,0,5.88.72s5.49,2,7.5,2.49,8.89,1.07,9.55,1.41.63,1.77.63,1.77l-13.91,1.7s-4.12-1.66-5.21-1.32-.47,2-.47,2l-5.22.63s-1.12-5.6-.8-6.6S298.22,467.51,299.5,467.05Z"/><path class="cls-37" d="M245.06,404.75h-33.4a6.39,6.39,0,0,1-6.37-6.37h0a6.39,6.39,0,0,1,6.37-6.37h33.4a6.39,6.39,0,0,1,6.37,6.37h0A6.39,6.39,0,0,1,245.06,404.75Z"/><path class="cls-38" d="M251.71,458.89s38.25-54.83,36.91-62.2-18.3-23.94-33.48-29.5c0,0,3.61,37.95-2.2,58.6l-9,32.08Z"/><path class="cls-31" d="M252.76,316a1.84,1.84,0,0,1,.7.66c.9,1.5,1.63,3.14,2.44,4.69q2.88,5.54,5.78,11.05l.69,1.32s40.39-1,41.76,0,7.05,6.65,7.05,6.65-1.82.74-2.75,0c-5.12-4.12-13.37-1.65-13.37-1.65L275.92,341l-13.15,1.58-5,.61c-.93.11-1.78.48-2.67.63-1.47.23-2.23-1.22-2.75-2.43a117.69,117.69,0,0,1-7.07-22.24,1.32,1.32,0,0,1,0-.71,1.27,1.27,0,0,1,.55-.55C247.27,316.93,250.92,315,252.76,316Z"/><path class="cls-31" d="M238.36,283.2c.09.23,0,10.55,0,10.55s1.4,4.76,4.78,4.3a8.38,8.38,0,0,0,5-2.2V285.32Z"/><path class="cls-39" d="M238.36,292.36c2.54,2,6.48,4.73,9.84,3.5a2.9,2.9,0,0,0,.32.86c2.41,3.71,5.47,7.15,6.65,11.42,1.44,5.22.63,56.58.6,59.2a22,22,0,0,0-4.38-.2l-4.82-.07-12.82-.18L211,366.57c-1.33,0-1.71,0-1.33-1.35,1.72-6.21,11-51.58,11.84-54.83.7-2.62,1.57-6.09,3.21-8.28a29.75,29.75,0,0,1,6.13-6,24.7,24.7,0,0,1,3.64-2.24C235,293.64,237.94,292,238.36,292.36Z"/><path class="cls-31" d="M226.48,329.77c0-.13,20.05-5.53,20.05-5.53L255.14,342s39.65-6.5,41.85-6.14,7,1.28,7.78,2.29,1.28,7.6,1.28,7.6-.82-1.1-1.83-2.75-1.65,1.65-4.3.74a41.91,41.91,0,0,1-5.5-2.48S256.79,361,248.09,358.49,226.48,329.77,226.48,329.77Z"/><path class="cls-40" d="M209.08,366.55s-3,14,11.69,21.44,45.56,17.44,50,18.17c0,0,20.76,47.71,25.12,56.26,1.72,3.39,3.17,4,3.17,4l5.57-.66s-9-54.78-12.77-63.86-27.06-30.77-36.68-34.72Z"/><rect class="cls-27" x="288.94" y="345.57" width="104.13" height="2.78"/><rect class="cls-27" x="384.16" y="348.17" width="2.27" height="114.95" transform="translate(802.15 778.79) rotate(175.36)"/><rect class="cls-41" x="311.18" y="343.43" width="12.99" height="2.13"/><rect class="cls-42" x="378.69" y="273.85" width="1.86" height="52.82" transform="matrix(0.99, 0.15, -0.15, 0.99, 49.25, -53.47)"/><rect class="cls-43" x="379.79" y="270.64" width="4.09" height="61.9" transform="translate(49.5 -53.8) rotate(8.62)"/><path class="cls-44" d="M362,460a16.53,16.53,0,0,1-6.08-2.42,117,117,0,0,1-2-15.73c3.28.51,6.55,1.12,9.81,2-1.83-.47-5.86-3-10-5q-.15-3.4-.15-7a135.41,135.41,0,0,1,2.19-25.28,46.69,46.69,0,0,1,8.13,3c-1.77-.86-4.5-3.9-7.36-6.5,1.94-7.9,4.67-12.83,7.7-12.83,4.87,0,9,12.75,10.25,30.17-3.27,3-6.39,6.95-7.89,8.54,1.1-1.17,4.58-2.11,8.19-3.19q.11,3,.11,6.08a148,148,0,0,1-1.15,18.78c-3.6,2.27-7.05,5-8.92,5.56q4.2-1.2,8.44-2.23c-1.89,11.71-5.22,19.49-9,19.49-3.16,0-6-5.38-8-13.92Z"/><path class="cls-45" d="M352.07,457.1c-1.86.27-4.22-.4-6.63-1.25a164.93,164.93,0,0,1-6.82-17.56,86.61,86.61,0,0,1,10.08-.2c-1.9-.09-6.58-1.95-11.2-3.3-.8-2.57-1.58-5.23-2.32-8a190,190,0,0,1-5.76-29.56,42.1,42.1,0,0,1,8.79,1.41c-2-.55-5.56-3.34-9.13-5.61-.59-9.56.51-15.91,3.43-16.67,4.71-1.22,12.66,12.4,19.32,32.07-2.22,4.28-4,9.58-5,11.78.7-1.61,3.77-3.57,6.92-5.72q1,3.39,2,7a206.65,206.65,0,0,1,4.74,21.84c-2.77,3.51-5.24,7.53-6.88,8.61q3.68-2.42,7.45-4.67c1.83,13.91,1,23.69-2.64,24.64-3.06.8-7.48-4.67-12-14Z"/><path class="cls-46" d="M366.6,460.59a16.91,16.91,0,0,1-3.83-5.11,100.19,100.19,0,0,1,6.45-13c2.47,2.15,4.88,4.37,7.16,6.77-1.27-1.34-3.35-5.41-5.71-9.21,1.08-1.77,2.23-3.57,3.46-5.38a115.67,115.67,0,0,1,14.83-18,47.47,47.47,0,0,1,5.23,6.67c-1-1.61-1.75-5.39-2.79-8.9,5.69-5,10.5-7.25,13-5.62,4.06,2.63.92,14.54-7,28.47-4.28.54-8.91,1.84-11,2.24,1.52-.29,4.91.87,8.48,2-1,1.55-2,3.11-3,4.69a128.09,128.09,0,0,1-10.62,13.66c-4.17-.22-8.46,0-10.3-.59,2.74.9,5.47,1.86,8.18,2.86-7.59,7.88-14.39,12-17.56,9.95-2.64-1.7-2.24-7.32.53-14.87Z"/><polygon class="cls-47" points="388.86 465.59 387.77 470.91 383.13 493.81 340.46 493.81 335.82 470.91 334.73 465.59 388.86 465.59"/><polygon class="cls-48" points="388.86 463.39 388.86 465.59 387.77 470.91 335.82 470.91 334.73 465.59 334.73 463.39 388.86 463.39"/><rect class="cls-49" x="329.81" y="458.61" width="62.32" height="9.14"/><path class="cls-32" d="M242.2,270.72s10,3.85,15.06-.11,6-7.47,2.21-9.89-11.5-.59-15.3.35-5.06-1.23-7.64.19-4.55,4.33-3.45,7.84S238,282.3,238,282.3l.69,1.77,1.19-4.7-1-3.29,1.67-.4Z"/><path class="cls-31" d="M240.49,275.68s-3.73-1.38-3.8.6,3.16,3.09,3.16,3.09-2,3.5-1.19,4.7,10.4,8.81,13.87,6.37,4.66-16,2.9-19.5-10.82-5.89-11.68-4.18S240.49,275.68,240.49,275.68Z"/><path class="cls-32" d="M239.85,269.59c.21.26,13.2,5.86,17.41,1s1.92-8.19,1.92-8.19l-19.4,2.34Z"/><line class="cls-50" x1="228.36" y1="403.48" x2="228.36" y2="474.68"/><rect class="cls-42" x="216.13" y="473.78" width="24.73" height="4.78" rx="1.18"/><path class="cls-36" d="M213.51,466.57a4.33,4.33,0,0,0,5.74,1.43s5.2,2.66,7.15,3.38,8.69,2.14,9.31,2.55.4,1.84.4,1.84h-14s-3.89-2.14-5-1.94-.71,1.94-.71,1.94h-5.26s-.43-5.69,0-6.64S212.18,466.87,213.51,466.57Z"/><polygon class="cls-29" points="213.86 468.7 213.26 463 219 463 219 468.7 213.86 468.7"/><polygon class="cls-29" points="234.98 458.75 232.74 463.3 237.85 465.85 241.15 461.05 234.98 458.75"/><path class="cls-37" d="M206.54,325.91c.06.66.07,19.19-2.73,28.87-1,3.62-1.7,4.4-1.7,4.4s10.23,2.75,14-4.64c4.7-9.11,10.34-20.07,5-25.36C215,323.14,206.54,325.91,206.54,325.91Z"/><path class="cls-28" d="M205.29,358.6s-6.73,25-8.35,30.46c-1.21,4.11-.18,11.27,10.06,11.27"/></svg>