<svg xmlns="http://www.w3.org/2000/svg" xmlns:xlink="http://www.w3.org/1999/xlink" viewBox="0 0 584.47 584.47"><defs><style>.cls-1,.cls-3{isolation:isolate;}.cls-2{fill:#b2d3ea;}.cls-3{fill:#c8e5f9;opacity:0.58;}.cls-4{fill:#2b57a4;}.cls-13,.cls-5{opacity:0.2;}.cls-11,.cls-5{mix-blend-mode:multiply;}.cls-6{fill:#1c2949;}.cls-7{fill:#1d53a1;}.cls-8{fill:#619ed6;}.cls-11,.cls-9{fill:#196bb3;}.cls-10{fill:#3575ba;}.cls-11{opacity:0.6;}.cls-12{fill:#4391ce;}.cls-13,.cls-18,.cls-22{fill:#fff;}.cls-14{fill:#f49b6c;}.cls-15{fill:#5ec1cd;}.cls-16{fill:#75b4e3;}.cls-17{fill:#b2e0f9;}.cls-19{fill:url(#linear-gradient);}.cls-20{fill:#323657;}.cls-21,.cls-23{fill:#1672b9;}.cls-22{stroke:#085ca0;stroke-width:0.76px;}.cls-22,.cls-24{stroke-miterlimit:10;}.cls-23{fill-rule:evenodd;}.cls-24{fill:#4f9ad4;stroke:#1772b9;stroke-width:7.67px;}.cls-25{font-size:8px;fill:#c0d9f3;font-family:MarkPro, Mark Pro;}</style><linearGradient id="linear-gradient" x1="314.05" y1="311.41" x2="471.26" y2="311.41" gradientTransform="translate(785.31 622.83) rotate(-180)" gradientUnits="userSpaceOnUse"><stop offset="0" stop-color="#414c62"/><stop offset="0.47" stop-color="#3d4961"/><stop offset="0.98" stop-color="#303f5c"/><stop offset="1" stop-color="#2f3e5c"/></linearGradient></defs><g class="cls-1"><g id="Layer_1" data-name="Layer 1"><path class="cls-2" d="M368.74,477.33a5.88,5.88,0,0,1-2.82.91l-89.62,3.68a2.57,2.57,0,0,1-2.41-3.78l13.73-25.59a.87.87,0,0,0,0-.89.86.86,0,0,0-.78-.41l-32.43,1.42a2.51,2.51,0,0,1-2.21-1.13,2.48,2.48,0,0,1-.18-2.48l5.81-12.31,1.49.71-5.81,12.31a.88.88,0,0,0,.06.86.87.87,0,0,0,.77.39l32.43-1.41a2.52,2.52,0,0,1,2.33,3.71l-13.73,25.6a.93.93,0,0,0,.87,1.36l89.62-3.69a4.27,4.27,0,0,0,3.56-2.35l11-22.42a.38.38,0,0,0,0-.39.39.39,0,0,0-.35-.19l-18,.33,0-1.64,18-.34a2,2,0,0,1,1.77,1,2.06,2.06,0,0,1,.12,2l-11,22.42A5.93,5.93,0,0,1,368.74,477.33Z"/><path id="Path_5765" data-name="Path 5765" class="cls-3" d="M347.93,187c23.49,15.33,52.26,21,76.5,22.59,58.15,3.87,100.31,57.6,88.58,114.69-.28,1.38-.59,2.77-.9,4.18a84.45,84.45,0,0,1-4.85,14.87c-47.65,109.77-169.36,167.52-247.67,99-133.61-117-108.81-465.81,67-273.55A112,112,0,0,0,347.93,187Z"/><rect class="cls-4" x="157.83" y="447.61" width="116.93" height="13.34"/><g class="cls-5"><rect class="cls-6" x="160.87" y="449.51" width="2.93" height="9.55"/><rect class="cls-6" x="166.02" y="449.51" width="2.93" height="9.55"/><rect class="cls-6" x="171.16" y="449.51" width="2.93" height="9.55"/><rect class="cls-6" x="176.3" y="449.51" width="2.93" height="9.55"/><rect class="cls-6" x="181.44" y="449.51" width="2.93" height="9.55"/><rect class="cls-6" x="186.59" y="449.51" width="2.93" height="9.55"/><rect class="cls-6" x="191.73" y="449.51" width="2.93" height="9.55"/><rect class="cls-6" x="196.87" y="449.51" width="2.93" height="9.55"/><rect class="cls-6" x="202.01" y="449.51" width="2.93" height="9.55"/><rect class="cls-6" x="207.15" y="449.51" width="2.93" height="9.55"/><rect class="cls-6" x="212.3" y="449.51" width="2.93" height="9.55"/><rect class="cls-6" x="217.44" y="449.51" width="2.93" height="9.55"/><rect class="cls-6" x="222.58" y="449.51" width="2.93" height="9.55"/><rect class="cls-6" x="227.72" y="449.51" width="2.93" height="9.55"/><rect class="cls-6" x="232.87" y="449.51" width="2.93" height="9.55"/><rect class="cls-6" x="238.01" y="449.51" width="2.93" height="9.55"/><rect class="cls-6" x="243.15" y="449.51" width="2.93" height="9.55"/><rect class="cls-6" x="248.29" y="449.51" width="2.93" height="9.55"/><rect class="cls-6" x="253.43" y="449.51" width="2.93" height="9.55"/><rect class="cls-6" x="258.58" y="449.51" width="2.93" height="9.55"/><rect class="cls-6" x="263.72" y="449.51" width="2.93" height="9.55"/><rect class="cls-6" x="268.86" y="449.51" width="2.93" height="9.55"/></g><rect class="cls-7" x="274.77" y="447.61" width="18.24" height="13.34" transform="translate(567.77 908.57) rotate(180)"/><rect class="cls-8" x="151.75" y="211.86" width="123.02" height="235.75"/><rect class="cls-9" x="159.81" y="209.84" width="131.21" height="2.02"/><rect class="cls-10" x="274.77" y="211.86" width="24.33" height="235.75" transform="translate(573.86 659.47) rotate(180)"/><rect class="cls-11" x="154.61" y="274.22" width="117.29" height="23.4" rx="3.27"/><path class="cls-10" d="M262,282.77,257.3,273v25.83h14.6V285.92h-4.85A5.57,5.57,0,0,1,262,282.77Z"/><rect class="cls-12" x="154.61" y="214.68" width="117.29" height="25.83"/><rect class="cls-12" x="154.61" y="418.81" width="117.29" height="25.83"/><rect class="cls-12" x="154.61" y="389.65" width="117.29" height="25.83"/><rect class="cls-12" x="154.61" y="360.49" width="117.29" height="25.83"/><rect class="cls-12" x="154.61" y="331.33" width="117.29" height="25.83"/><rect class="cls-12" x="154.61" y="302.17" width="117.29" height="25.83"/><rect class="cls-12" x="140.01" y="273.01" width="117.29" height="25.83"/><rect class="cls-12" x="154.61" y="243.84" width="117.29" height="25.83"/><rect class="cls-10" x="216.24" y="218.37" width="52.13" height="18.45" rx="3.77"/><rect class="cls-13" x="250.32" y="218.78" width="4.72" height="17.65" rx="1.6" transform="translate(480.28 -25.08) rotate(90)"/><rect class="cls-10" x="216.24" y="247.53" width="52.13" height="18.45" rx="3.77"/><rect class="cls-14" x="250.32" y="247.94" width="4.72" height="17.65" rx="1.6" transform="translate(509.44 4.08) rotate(90)"/><rect class="cls-10" x="201.64" y="276.69" width="52.13" height="18.45" rx="3.77"/><rect class="cls-13" x="235.72" y="277.1" width="4.72" height="17.65" rx="1.6" transform="translate(524 47.84) rotate(90)"/><rect class="cls-10" x="216.24" y="305.86" width="52.13" height="18.45" rx="3.77"/><rect class="cls-13" x="250.32" y="306.26" width="4.72" height="17.65" rx="1.6" transform="translate(567.76 62.4) rotate(90)"/><rect class="cls-10" x="216.24" y="335.02" width="52.13" height="18.45" rx="3.77"/><rect class="cls-14" x="250.32" y="335.42" width="4.72" height="17.65" rx="1.6" transform="translate(596.92 91.56) rotate(90)"/><rect class="cls-10" x="216.24" y="364.18" width="52.13" height="18.45" rx="3.77"/><rect class="cls-14" x="250.32" y="364.58" width="4.72" height="17.65" rx="1.6" transform="translate(626.09 120.72) rotate(90)"/><rect class="cls-10" x="216.24" y="393.34" width="52.13" height="18.45" rx="3.77"/><rect class="cls-13" x="250.32" y="393.74" width="4.72" height="17.65" rx="1.6" transform="translate(655.25 149.88) rotate(90)"/><rect class="cls-10" x="216.24" y="422.5" width="52.13" height="18.45" rx="3.77"/><rect class="cls-13" x="250.32" y="422.9" width="4.72" height="17.65" rx="1.6" transform="translate(684.41 179.04) rotate(90)"/><circle class="cls-10" cx="207.17" cy="227.6" r="2.98"/><circle class="cls-10" cx="198.66" cy="227.6" r="2.98"/><circle class="cls-14" cx="190.14" cy="227.6" r="2.98"/><path class="cls-10" d="M184.6,227.6a3,3,0,1,1-3-3A3,3,0,0,1,184.6,227.6Z"/><circle class="cls-15" cx="207.17" cy="256.76" r="2.98"/><circle class="cls-10" cx="198.66" cy="256.76" r="2.98"/><circle class="cls-10" cx="190.14" cy="256.76" r="2.98"/><path class="cls-16" d="M184.6,256.76a3,3,0,1,1-3-3A3,3,0,0,1,184.6,256.76Z"/><circle class="cls-16" cx="192.57" cy="285.92" r="2.98"/><circle class="cls-10" cx="184.06" cy="285.92" r="2.98"/><circle class="cls-16" cx="175.54" cy="285.92" r="2.98"/><circle class="cls-10" cx="167.02" cy="285.92" r="2.98"/><circle class="cls-16" cx="207.17" cy="315.08" r="2.98"/><circle class="cls-14" cx="198.66" cy="315.08" r="2.98"/><circle class="cls-10" cx="190.14" cy="315.08" r="2.98"/><path class="cls-15" d="M184.6,315.08a3,3,0,1,1-3-3A3,3,0,0,1,184.6,315.08Z"/><circle class="cls-10" cx="207.17" cy="344.24" r="2.98"/><circle class="cls-16" cx="198.66" cy="344.24" r="2.98"/><circle class="cls-10" cx="190.14" cy="344.24" r="2.98"/><path class="cls-10" d="M184.6,344.24a3,3,0,1,1-3-3A3,3,0,0,1,184.6,344.24Z"/><circle class="cls-15" cx="207.17" cy="373.4" r="2.98"/><circle class="cls-15" cx="198.66" cy="373.4" r="2.98"/><circle class="cls-16" cx="190.14" cy="373.4" r="2.98"/><path class="cls-16" d="M184.6,373.4a3,3,0,1,1-3-3A3,3,0,0,1,184.6,373.4Z"/><path class="cls-16" d="M210.16,402.56a3,3,0,1,1-3-3A3,3,0,0,1,210.16,402.56Z"/><path class="cls-15" d="M201.64,402.56a3,3,0,1,1-3-3A3,3,0,0,1,201.64,402.56Z"/><path class="cls-10" d="M193.12,402.56a3,3,0,1,1-3-3A3,3,0,0,1,193.12,402.56Z"/><path class="cls-10" d="M184.6,402.56a3,3,0,1,1-3-3A3,3,0,0,1,184.6,402.56Z"/><circle class="cls-10" cx="207.17" cy="431.73" r="2.98"/><circle class="cls-15" cx="198.66" cy="431.73" r="2.98"/><circle class="cls-15" cx="190.14" cy="431.73" r="2.98"/><path class="cls-14" d="M184.6,431.73a3,3,0,1,1-3-3A3,3,0,0,1,184.6,431.73Z"/><path class="cls-14" d="M172.7,227.6a6.46,6.46,0,1,1-6.46-6.46A6.46,6.46,0,0,1,172.7,227.6Z"/><path class="cls-14" d="M172.7,256.76a6.46,6.46,0,1,1-6.46-6.46A6.46,6.46,0,0,1,172.7,256.76Z"/><path class="cls-14" d="M158.1,285.92a6.46,6.46,0,1,1-6.46-6.46A6.46,6.46,0,0,1,158.1,285.92Z"/><path class="cls-14" d="M172.7,315.08a6.46,6.46,0,1,1-6.46-6.46A6.46,6.46,0,0,1,172.7,315.08Z"/><path class="cls-14" d="M172.7,344.24a6.46,6.46,0,1,1-6.46-6.45A6.46,6.46,0,0,1,172.7,344.24Z"/><path class="cls-14" d="M172.7,373.4a6.46,6.46,0,1,1-6.46-6.45A6.46,6.46,0,0,1,172.7,373.4Z"/><path class="cls-14" d="M172.7,402.56a6.46,6.46,0,1,1-6.46-6.45A6.46,6.46,0,0,1,172.7,402.56Z"/><path class="cls-14" d="M172.7,431.73a6.46,6.46,0,1,1-6.46-6.46A6.46,6.46,0,0,1,172.7,431.73Z"/><rect class="cls-4" x="346.54" y="266.17" width="0.84" height="2.51"/><polygon class="cls-17" points="454.76 421.06 392.38 421.06 329.99 421.06 321.06 454.41 392.38 454.41 463.69 454.41 454.76 421.06"/><path class="cls-18" d="M331,429.92h8.17a.49.49,0,0,1,.53.55l-.79,3.55a.53.53,0,0,1-.53.38H330a.49.49,0,0,1-.53-.57l.93-3.55A.54.54,0,0,1,331,429.92Z"/><polygon class="cls-18" points="342.88 429.92 349.05 429.92 348.23 434.4 341.94 434.4 342.88 429.92"/><polygon class="cls-18" points="352.14 429.92 358.31 429.92 357.66 434.4 351.37 434.4 352.14 429.92"/><polygon class="cls-18" points="361.4 429.92 367.57 429.92 367.1 434.4 360.81 434.4 361.4 429.92"/><polygon class="cls-18" points="370.65 429.92 376.83 429.92 376.53 434.4 370.24 434.4 370.65 429.92"/><polygon class="cls-18" points="379.91 429.92 386.08 429.92 385.97 434.4 379.68 434.4 379.91 429.92"/><polygon class="cls-18" points="454 429.92 444.74 429.92 445.74 434.4 455.17 434.4 454 429.92"/><polygon class="cls-18" points="441.65 429.92 435.48 429.92 436.3 434.4 442.59 434.4 441.65 429.92"/><polygon class="cls-18" points="432.39 429.92 426.22 429.92 426.87 434.4 433.16 434.4 432.39 429.92"/><polygon class="cls-18" points="423.14 429.92 416.96 429.92 417.43 434.4 423.72 434.4 423.14 429.92"/><polygon class="cls-18" points="413.88 429.92 407.71 429.92 408 434.4 414.29 434.4 413.88 429.92"/><polygon class="cls-18" points="404.62 429.92 398.45 429.92 398.56 434.4 404.86 434.4 404.62 429.92"/><polygon class="cls-18" points="389.17 429.92 395.34 429.92 395.44 434.4 389.17 434.4 389.17 429.92"/><polygon class="cls-18" points="328.26 437.74 341.15 437.74 340.42 442.36 327.28 442.36 328.26 437.74"/><polygon class="cls-18" points="456.01 437.74 440.07 437.74 440.98 442.36 457.22 442.36 456.01 437.74"/><polygon class="cls-18" points="436.88 437.74 430.5 437.74 431.23 442.36 437.73 442.36 436.88 437.74"/><polygon class="cls-18" points="427.31 437.74 420.94 437.74 421.48 442.36 427.98 442.36 427.31 437.74"/><polygon class="cls-18" points="417.75 437.74 411.37 437.74 411.74 442.36 418.23 442.36 417.75 437.74"/><polygon class="cls-18" points="408.18 437.74 401.81 437.74 401.99 442.36 408.49 442.36 408.18 437.74"/><polygon class="cls-18" points="326.33 445.97 339.51 445.97 338.55 450.56 325.13 450.56 326.33 445.97"/><polygon class="cls-18" points="342.81 445.97 349.4 445.97 348.62 450.56 341.91 450.56 342.81 445.97"/><polygon class="cls-18" points="352.7 445.97 359.29 445.97 402.14 445.97 402.32 450.56 351.98 450.56 352.7 445.97"/><polygon class="cls-18" points="405.44 445.97 412.03 445.97 412.39 450.56 405.68 450.56 405.44 445.97"/><polygon class="cls-18" points="415.33 445.97 421.92 445.97 422.46 450.56 415.75 450.56 415.33 445.97"/><polygon class="cls-18" points="425.22 445.97 431.81 445.97 432.53 450.56 425.82 450.56 425.22 445.97"/><polygon class="cls-18" points="435.11 445.97 441.7 445.97 442.6 450.56 435.89 450.56 435.11 445.97"/><polygon class="cls-18" points="445 445.97 458.18 445.97 459.38 450.56 445.96 450.56 445 445.97"/><polygon class="cls-18" points="398.63 437.74 392.31 437.74 392.31 442.36 398.75 442.36 398.63 437.74"/><polygon class="cls-18" points="389.07 437.74 382.69 437.74 382.51 442.36 389.01 442.36 389.07 437.74"/><polygon class="cls-18" points="379.5 437.74 373.13 437.74 372.76 442.36 379.26 442.36 379.5 437.74"/><polygon class="cls-18" points="369.94 437.74 363.56 437.74 363.01 442.36 369.51 442.36 369.94 437.74"/><polygon class="cls-18" points="360.37 437.74 354 437.74 353.27 442.36 359.77 442.36 360.37 437.74"/><polygon class="cls-18" points="350.81 437.74 344.43 437.74 343.52 442.36 350.02 442.36 350.81 437.74"/><polygon class="cls-18" points="331.27 427.1 332.32 423.1 335.32 423.1 334.34 427.1 331.27 427.1"/><polygon class="cls-18" points="338.31 423.1 344.31 423.1 343.47 427.1 337.37 427.1 338.31 423.1"/><polygon class="cls-18" points="347.31 423.1 353.3 423.1 352.62 427.1 346.52 427.1 347.31 423.1"/><polygon class="cls-18" points="356.3 423.1 362.29 423.1 361.76 427.1 355.67 427.1 356.3 423.1"/><polygon class="cls-18" points="365.29 423.1 371.28 423.1 370.91 427.1 364.81 427.1 365.29 423.1"/><polygon class="cls-18" points="374.27 423.1 380.27 423.1 380.06 427.1 373.96 427.1 374.27 423.1"/><polygon class="cls-18" points="383.26 423.1 389.26 423.1 389.21 427.1 383.11 427.1 383.26 423.1"/><polygon class="cls-18" points="392.25 423.1 398.25 423.1 398.35 427.1 392.25 427.1 392.25 423.1"/><polygon class="cls-18" points="401.25 423.1 407.24 423.1 407.5 427.1 401.4 427.1 401.25 423.1"/><polygon class="cls-18" points="410.24 423.1 416.23 423.1 416.65 427.1 410.55 427.1 410.24 423.1"/><polygon class="cls-18" points="419.23 423.1 425.22 423.1 425.8 427.1 419.7 427.1 419.23 423.1"/><polygon class="cls-18" points="428.22 423.1 434.21 423.1 434.94 427.1 428.84 427.1 428.22 423.1"/><polygon class="cls-18" points="437.21 423.1 443.2 423.1 444.09 427.1 437.99 427.1 437.21 423.1"/><polygon class="cls-18" points="446.2 423.1 452.19 423.1 453.24 427.1 447.14 427.1 446.2 423.1"/><rect class="cls-10" x="321.07" y="454.41" width="142.62" height="1.97"/><rect class="cls-17" x="382.99" y="350.42" width="19.63" height="59.62"/><rect class="cls-10" x="308.06" y="259.57" width="169.49" height="119.57" rx="7.27" transform="translate(785.61 638.71) rotate(180)"/><rect class="cls-19" x="314.05" y="265.43" width="157.21" height="91.98" transform="translate(785.31 622.83) rotate(180)"/><path class="cls-17" d="M387.34,369a5.47,5.47,0,1,0,5.46-5.46A5.46,5.46,0,0,0,387.34,369Z"/><rect class="cls-10" x="348.65" y="407.79" width="88.31" height="4.5"/><path class="cls-20" d="M320.85,347.58Z"/><rect class="cls-21" x="342.22" y="271.04" width="125.09" height="10.26" rx="5.13"/><circle class="cls-21" cx="323.43" cy="276.17" r="5.13"/><circle class="cls-21" cx="335.39" cy="276.17" r="5.13"/><rect class="cls-22" x="342.22" y="269.27" width="125.09" height="10.26" rx="5.13"/><circle class="cls-22" cx="323.43" cy="274.4" r="5.13"/><circle class="cls-22" cx="335.39" cy="274.4" r="5.13"/><polygon class="cls-21" points="324.06 271.27 320.81 274.49 324.06 277.77 324.68 277.15 322.05 274.49 324.68 271.89 324.06 271.27"/><polygon class="cls-21" points="334.92 277.77 338.17 274.55 334.92 271.27 334.31 271.89 336.94 274.55 334.31 277.15 334.92 277.77"/><path class="cls-21" d="M352.77,277.35l-2.07-2.05a2.64,2.64,0,0,0,.44-1.47,2.72,2.72,0,0,0-4.61-1.9,2.63,2.63,0,0,0-.78,1.89,2.71,2.71,0,0,0,2.7,2.67h0a2.71,2.71,0,0,0,1.49-.44l2.06,2Zm-2.43-3.52a1.86,1.86,0,0,1-1.88,1.86h0a1.9,1.9,0,0,1-1.9-1.87,1.88,1.88,0,0,1,.55-1.32,1.9,1.9,0,0,1,3.24,1.33Z"/><path class="cls-23" d="M460.36,274.52l-1.16,1.17a.35.35,0,0,0,.5.5l1.16-1.17,1.17,1.17a.35.35,0,0,0,.5,0,.37.37,0,0,0,0-.5l-1.17-1.17,1.17-1.17a.37.37,0,0,0,0-.5.35.35,0,0,0-.5,0L460.86,274l-1.16-1.17a.35.35,0,0,0-.5.5Zm.5,3.78a3.78,3.78,0,1,1,3.76-3.78A3.77,3.77,0,0,1,460.86,278.3Z"/><path class="cls-24" d="M501.75,235.39v55.74a35.24,35.24,0,0,1-14.53,28.67l-32.83,21-.21.12a5.86,5.86,0,0,1-.87.43h0a4,4,0,0,1-.45.16,5.56,5.56,0,0,1-.7.19l-.35.06h-.05l-.3,0h-.06l-.3,0h-.38a6.74,6.74,0,0,1-3.67-1l-32.83-21a35.24,35.24,0,0,1-14.53-28.67V235.24a6.34,6.34,0,0,1,4.35-5.79c30.91-11.56,47.18-13.28,74.57-5.75l.22.06.85.23.46.13.7.2,1.2.35.78.23,3.16.95.85.27.82.26,1.4.44q3.9,1.26,8.14,2.7a7.61,7.61,0,0,1,2.47,1.42l.36.35A5.87,5.87,0,0,1,501.75,235.39Z"/><path class="cls-18" d="M424.44,243.48h12.42v54.71H424.44Zm39.87-.41a99.8,99.8,0,0,0-16.72,1.15v54h12.26V278.63a31.48,31.48,0,0,0,4.22.25c7.3,0,13.55-1.8,17.78-5.78,3.24-3.09,5-7.63,5-13A16,16,0,0,0,481,247.46C477.38,244.53,471.93,243.07,464.31,243.07Zm-.33,26.3a18.47,18.47,0,0,1-4.14-.33V252.9a21.24,21.24,0,0,1,5.12-.49c6.16,0,9.66,3,9.66,8C474.62,266,470.56,269.37,464,269.37Z"/><text class="cls-25" transform="translate(355.28 276.96)">Static IP</text><path class="cls-20" d="M361.69,350.42h0Z"/></g></g></svg>