<svg xmlns="http://www.w3.org/2000/svg" viewBox="0 0 584.47 584.47"><defs><style>.cls-1,.cls-2{isolation:isolate;}.cls-2{fill:#c8e5f9;opacity:0.58;}.cls-3{fill:#2b57a4;}.cls-12,.cls-4{opacity:0.2;}.cls-10,.cls-4{mix-blend-mode:multiply;}.cls-5{fill:#1c2949;}.cls-6{fill:#1d53a1;}.cls-7{fill:#619ed6;}.cls-10,.cls-8{fill:#196bb3;}.cls-9{fill:#3575ba;}.cls-10{opacity:0.6;}.cls-11{fill:#4391ce;}.cls-12{fill:#fff;}.cls-13{fill:#f49b6c;}.cls-14{fill:#5ec1cd;}.cls-15{fill:#75b4e3;}.cls-16,.cls-18{fill:#4f9ad4;}.cls-16{stroke:#1772b9;stroke-miterlimit:10;stroke-width:10.68px;}.cls-17{fill:#9cccef;}</style></defs><g class="cls-1"><g id="Layer_1" data-name="Layer 1"><path id="Path_5765" data-name="Path 5765" class="cls-2" d="M303.38,170.64c22.77,14.87,50.65,20.34,74.15,21.9,56.37,3.75,97.24,55.84,85.86,111.18-.27,1.33-.56,2.68-.87,4a81,81,0,0,1-4.7,14.42C411.63,428.59,293.66,484.57,217.75,418.1,88.24,304.72,112.28-33.41,282.65,153A108.14,108.14,0,0,0,303.38,170.64Z"/><rect class="cls-3" x="157.83" y="447.61" width="116.93" height="13.34"/><g class="cls-4"><rect class="cls-5" x="160.87" y="449.51" width="2.93" height="9.55"/><rect class="cls-5" x="166.02" y="449.51" width="2.93" height="9.55"/><rect class="cls-5" x="171.16" y="449.51" width="2.93" height="9.55"/><rect class="cls-5" x="176.3" y="449.51" width="2.93" height="9.55"/><rect class="cls-5" x="181.44" y="449.51" width="2.93" height="9.55"/><rect class="cls-5" x="186.59" y="449.51" width="2.93" height="9.55"/><rect class="cls-5" x="191.73" y="449.51" width="2.93" height="9.55"/><rect class="cls-5" x="196.87" y="449.51" width="2.93" height="9.55"/><rect class="cls-5" x="202.01" y="449.51" width="2.93" height="9.55"/><rect class="cls-5" x="207.15" y="449.51" width="2.93" height="9.55"/><rect class="cls-5" x="212.3" y="449.51" width="2.93" height="9.55"/><rect class="cls-5" x="217.44" y="449.51" width="2.93" height="9.55"/><rect class="cls-5" x="222.58" y="449.51" width="2.93" height="9.55"/><rect class="cls-5" x="227.72" y="449.51" width="2.93" height="9.55"/><rect class="cls-5" x="232.87" y="449.51" width="2.93" height="9.55"/><rect class="cls-5" x="238.01" y="449.51" width="2.93" height="9.55"/><rect class="cls-5" x="243.15" y="449.51" width="2.93" height="9.55"/><rect class="cls-5" x="248.29" y="449.51" width="2.93" height="9.55"/><rect class="cls-5" x="253.43" y="449.51" width="2.93" height="9.55"/><rect class="cls-5" x="258.58" y="449.51" width="2.93" height="9.55"/><rect class="cls-5" x="263.72" y="449.51" width="2.93" height="9.55"/><rect class="cls-5" x="268.86" y="449.51" width="2.93" height="9.55"/></g><rect class="cls-6" x="274.77" y="447.61" width="18.24" height="13.34" transform="translate(567.77 908.57) rotate(180)"/><rect class="cls-7" x="151.75" y="211.86" width="123.02" height="235.75"/><rect class="cls-8" x="159.81" y="209.84" width="131.21" height="2.02"/><rect class="cls-9" x="274.77" y="211.86" width="24.33" height="235.75" transform="translate(573.86 659.47) rotate(180)"/><rect class="cls-10" x="154.61" y="274.22" width="117.29" height="23.4" rx="3.27"/><path class="cls-9" d="M262,282.77,257.3,273v25.83h14.6V285.92h-4.85A5.57,5.57,0,0,1,262,282.77Z"/><rect class="cls-11" x="154.61" y="214.68" width="117.29" height="25.83"/><rect class="cls-11" x="154.61" y="418.81" width="117.29" height="25.83"/><rect class="cls-11" x="154.61" y="389.65" width="117.29" height="25.83"/><rect class="cls-11" x="154.61" y="360.49" width="117.29" height="25.83"/><rect class="cls-11" x="154.61" y="331.33" width="117.29" height="25.83"/><rect class="cls-11" x="154.61" y="302.17" width="117.29" height="25.83"/><rect class="cls-11" x="140.01" y="273.01" width="117.29" height="25.83"/><rect class="cls-11" x="154.61" y="243.84" width="117.29" height="25.83"/><rect class="cls-9" x="216.24" y="218.37" width="52.13" height="18.45" rx="3.77"/><rect class="cls-12" x="250.32" y="218.78" width="4.72" height="17.65" rx="1.6" transform="translate(480.28 -25.08) rotate(90)"/><rect class="cls-9" x="216.24" y="247.53" width="52.13" height="18.45" rx="3.77"/><rect class="cls-13" x="250.32" y="247.94" width="4.72" height="17.65" rx="1.6" transform="translate(509.44 4.08) rotate(90)"/><rect class="cls-9" x="201.64" y="276.69" width="52.13" height="18.45" rx="3.77"/><rect class="cls-12" x="235.72" y="277.1" width="4.72" height="17.65" rx="1.6" transform="translate(524 47.84) rotate(90)"/><rect class="cls-9" x="216.24" y="305.86" width="52.13" height="18.45" rx="3.77"/><rect class="cls-12" x="250.32" y="306.26" width="4.72" height="17.65" rx="1.6" transform="translate(567.76 62.4) rotate(90)"/><rect class="cls-9" x="216.24" y="335.02" width="52.13" height="18.45" rx="3.77"/><rect class="cls-13" x="250.32" y="335.42" width="4.72" height="17.65" rx="1.6" transform="translate(596.92 91.56) rotate(90)"/><rect class="cls-9" x="216.24" y="364.18" width="52.13" height="18.45" rx="3.77"/><rect class="cls-13" x="250.32" y="364.58" width="4.72" height="17.65" rx="1.6" transform="translate(626.09 120.72) rotate(90)"/><rect class="cls-9" x="216.24" y="393.34" width="52.13" height="18.45" rx="3.77"/><rect class="cls-12" x="250.32" y="393.74" width="4.72" height="17.65" rx="1.6" transform="translate(655.25 149.88) rotate(90)"/><rect class="cls-9" x="216.24" y="422.5" width="52.13" height="18.45" rx="3.77"/><rect class="cls-12" x="250.32" y="422.9" width="4.72" height="17.65" rx="1.6" transform="translate(684.41 179.04) rotate(90)"/><circle class="cls-9" cx="207.17" cy="227.6" r="2.98"/><circle class="cls-9" cx="198.66" cy="227.6" r="2.98"/><circle class="cls-13" cx="190.14" cy="227.6" r="2.98"/><path class="cls-9" d="M184.6,227.6a3,3,0,1,1-3-3A3,3,0,0,1,184.6,227.6Z"/><circle class="cls-14" cx="207.17" cy="256.76" r="2.98"/><circle class="cls-9" cx="198.66" cy="256.76" r="2.98"/><circle class="cls-9" cx="190.14" cy="256.76" r="2.98"/><path class="cls-15" d="M184.6,256.76a3,3,0,1,1-3-3A3,3,0,0,1,184.6,256.76Z"/><circle class="cls-15" cx="192.57" cy="285.92" r="2.98"/><circle class="cls-9" cx="184.06" cy="285.92" r="2.98"/><circle class="cls-15" cx="175.54" cy="285.92" r="2.98"/><circle class="cls-9" cx="167.02" cy="285.92" r="2.98"/><circle class="cls-15" cx="207.17" cy="315.08" r="2.98"/><circle class="cls-13" cx="198.66" cy="315.08" r="2.98"/><circle class="cls-9" cx="190.14" cy="315.08" r="2.98"/><path class="cls-14" d="M184.6,315.08a3,3,0,1,1-3-3A3,3,0,0,1,184.6,315.08Z"/><circle class="cls-9" cx="207.17" cy="344.24" r="2.98"/><circle class="cls-15" cx="198.66" cy="344.24" r="2.98"/><circle class="cls-9" cx="190.14" cy="344.24" r="2.98"/><path class="cls-9" d="M184.6,344.24a3,3,0,1,1-3-3A3,3,0,0,1,184.6,344.24Z"/><circle class="cls-14" cx="207.17" cy="373.4" r="2.98"/><circle class="cls-14" cx="198.66" cy="373.4" r="2.98"/><circle class="cls-15" cx="190.14" cy="373.4" r="2.98"/><path class="cls-15" d="M184.6,373.4a3,3,0,1,1-3-3A3,3,0,0,1,184.6,373.4Z"/><path class="cls-15" d="M210.16,402.56a3,3,0,1,1-3-3A3,3,0,0,1,210.16,402.56Z"/><path class="cls-14" d="M201.64,402.56a3,3,0,1,1-3-3A3,3,0,0,1,201.64,402.56Z"/><path class="cls-9" d="M193.12,402.56a3,3,0,1,1-3-3A3,3,0,0,1,193.12,402.56Z"/><path class="cls-9" d="M184.6,402.56a3,3,0,1,1-3-3A3,3,0,0,1,184.6,402.56Z"/><circle class="cls-9" cx="207.17" cy="431.73" r="2.98"/><circle class="cls-14" cx="198.66" cy="431.73" r="2.98"/><circle class="cls-14" cx="190.14" cy="431.73" r="2.98"/><path class="cls-13" d="M184.6,431.73a3,3,0,1,1-3-3A3,3,0,0,1,184.6,431.73Z"/><path class="cls-13" d="M172.7,227.6a6.46,6.46,0,1,1-6.46-6.46A6.46,6.46,0,0,1,172.7,227.6Z"/><path class="cls-13" d="M172.7,256.76a6.46,6.46,0,1,1-6.46-6.46A6.46,6.46,0,0,1,172.7,256.76Z"/><path class="cls-13" d="M158.1,285.92a6.46,6.46,0,1,1-6.46-6.46A6.46,6.46,0,0,1,158.1,285.92Z"/><path class="cls-13" d="M172.7,315.08a6.46,6.46,0,1,1-6.46-6.46A6.46,6.46,0,0,1,172.7,315.08Z"/><path class="cls-13" d="M172.7,344.24a6.46,6.46,0,1,1-6.46-6.45A6.46,6.46,0,0,1,172.7,344.24Z"/><path class="cls-13" d="M172.7,373.4a6.46,6.46,0,1,1-6.46-6.45A6.46,6.46,0,0,1,172.7,373.4Z"/><path class="cls-13" d="M172.7,402.56a6.46,6.46,0,1,1-6.46-6.45A6.46,6.46,0,0,1,172.7,402.56Z"/><path class="cls-13" d="M172.7,431.73a6.46,6.46,0,1,1-6.46-6.46A6.46,6.46,0,0,1,172.7,431.73Z"/><rect class="cls-3" x="185.67" y="204.13" width="0.84" height="2.51"/><path class="cls-3" d="M347.38,261.15h-.84v-5h.84Zm0-10h-.84v-5h.84Zm0-10h-.84v-5h.84Zm0-10h-.84v-5h.84Zm0-10h-.84v-5h.84Zm0-10h-.84v-5h.84Zm0-10h-.84v-5h.84Zm-160.87-2.07h-.84V195.7a14,14,0,0,1,.09-1.6l.83.09a15.11,15.11,0,0,0-.08,1.51Zm159.3-7.69a12.73,12.73,0,0,0-2.43-4.14l.62-.55a13.32,13.32,0,0,1,2.6,4.41Zm-157.75-1.83-.74-.4a13.51,13.51,0,0,1,3.26-3.95l.54.64A12.55,12.55,0,0,0,188.06,189.62Zm151.51-5.25a12.58,12.58,0,0,0-4.62-1.31l.07-.83a13.43,13.43,0,0,1,4.93,1.4Zm-144.24-.76-.25-.8a13.57,13.57,0,0,1,4.11-.63h.95V183h-.95A12.91,12.91,0,0,0,195.33,183.61ZM330,183h-5v-.84h5Zm-10,0h-5v-.84h5Zm-10,0h-5v-.84h5Zm-10,0h-5v-.84h5Zm-10,0h-5v-.84h5Zm-10,0h-5v-.84h5Zm-10,0h-5v-.84h5Zm-10,0h-5v-.84h5Zm-10,0h-5v-.84h5Zm-10,0h-5v-.84h5Zm-10,0h-5v-.84h5Zm-10,0h-5v-.84h5Zm-10,0h-5v-.84h5Z"/><rect class="cls-3" x="346.54" y="266.17" width="0.84" height="2.51"/><path class="cls-16" d="M418.63,282v77.62a49.06,49.06,0,0,1-20.23,39.91l-45.71,29.3-.29.18a11.26,11.26,0,0,1-1.21.59h0l-.63.23a8.12,8.12,0,0,1-1,.25,3.86,3.86,0,0,1-.49.09H349l-.42.05h-.08l-.41,0h-.53a9.51,9.51,0,0,1-5.11-1.46l-45.72-29.3a49.06,49.06,0,0,1-20.23-39.91V281.75a8.79,8.79,0,0,1,6.05-8.06c43-16.11,65.7-18.5,103.84-8l.31.09,1.18.32.64.19,1,.27,1.67.48,1.09.32,4.41,1.34,1.18.37,1.14.35L401,270q5.43,1.74,11.33,3.77a10.22,10.22,0,0,1,3.44,2l.5.48A8.2,8.2,0,0,1,418.63,282Z"/><path class="cls-16" d="M350.55,429.79l.63-.23Z"/><path class="cls-16" d="M351.19,429.56a11.26,11.26,0,0,0,1.21-.59A11.26,11.26,0,0,1,351.19,429.56Z"/><path class="cls-16" d="M392.27,267.34c1.44.43,2.91.87,4.41,1.34Z"/><path class="cls-16" d="M416.22,276.24l-.5-.48C415.89,275.92,416.06,276.07,416.22,276.24Z"/><path class="cls-17" d="M352.23,332.75h-10.4a16.93,16.93,0,0,1-16.91-16.91v-2a16.94,16.94,0,0,1,16.91-16.92h10.4a16.94,16.94,0,0,1,16.92,16.92v2A16.94,16.94,0,0,1,352.23,332.75Zm-10.4-29.08a10.16,10.16,0,0,0-10.15,10.15v2A10.16,10.16,0,0,0,341.83,326h10.4a10.16,10.16,0,0,0,10.15-10.15v-2a10.16,10.16,0,0,0-10.15-10.15Z"/><path class="cls-17" d="M318.61,318.8H374.8a8,8,0,0,1,8,8v27.08A26.14,26.14,0,0,1,356.63,380H340.21a27.82,27.82,0,0,1-27.82-27.82V325A6.22,6.22,0,0,1,318.61,318.8Z"/><circle class="cls-18" cx="347.58" cy="337.16" r="9.18" transform="translate(-92.01 134.06) rotate(-19.33)"/><path class="cls-18" d="M347.58,341.44h0a2,2,0,0,1,2,2v15.3a2,2,0,0,1-2,2h0a2,2,0,0,1-2-2v-15.3A2,2,0,0,1,347.58,341.44Z"/></g></g></svg>