<svg xmlns="http://www.w3.org/2000/svg" xmlns:xlink="http://www.w3.org/1999/xlink" viewBox="0 0 584.47 584.47"><defs><style>.cls-1,.cls-3{isolation:isolate;}.cls-2{font-size:20px;fill:#1672b9;font-family:AdobeArabic-Regular, Adobe Arabic;}.cls-3{fill:#c8e5f9;opacity:0.58;}.cls-20,.cls-4{fill:#2b57a4;}.cls-13,.cls-19,.cls-5{opacity:0.2;}.cls-11,.cls-19,.cls-5{mix-blend-mode:multiply;}.cls-6{fill:#1c2949;}.cls-7{fill:#1d53a1;}.cls-8{fill:#619ed6;}.cls-11,.cls-9{fill:#196bb3;}.cls-10{fill:#3575ba;}.cls-11{opacity:0.6;}.cls-12,.cls-18{fill:#4391ce;}.cls-13{fill:#fff;}.cls-14{fill:#f49b6c;}.cls-15{fill:#5ec1cd;}.cls-16{fill:#75b4e3;}.cls-17{fill:url(#Áåçûìÿííûé_ãðàäèåíò_178);}.cls-18,.cls-20,.cls-21,.cls-22,.cls-23{fill-rule:evenodd;}.cls-19{fill:#904173;}.cls-21{fill:url(#Áåçûìÿííûé_ãðàäèåíò_27);}.cls-22{fill:#fbf5b8;opacity:0.5;mix-blend-mode:soft-light;}.cls-23{mix-blend-mode:screen;fill:url(#Áåçûìÿííûé_ãðàäèåíò_78);}</style><radialGradient id="Áåçûìÿííûé_ãðàäèåíò_178" cx="338.49" cy="315.94" r="41.35" gradientTransform="translate(322.55 -146.81) rotate(45)" gradientUnits="userSpaceOnUse"><stop offset="0" stop-color="#faf5f8"/><stop offset="0.98" stop-color="#d4cbe2"/></radialGradient><linearGradient id="Áåçûìÿííûé_ãðàäèåíò_27" x1="336.42" y1="318.95" x2="340.56" y2="318.95" gradientUnits="userSpaceOnUse"><stop offset="0.02" stop-color="#e4dfd8"/><stop offset="1" stop-color="#cdc5e3"/></linearGradient><linearGradient id="Áåçûìÿííûé_ãðàäèåíò_78" x1="335.08" y1="360.49" x2="335.08" y2="271.92" gradientUnits="userSpaceOnUse"><stop offset="0" stop-color="#010101"/><stop offset="1" stop-color="#8284b1"/></linearGradient></defs><g class="cls-1"><g id="Layer_1" data-name="Layer 1"><text class="cls-2" transform="translate(527.63 -9.29)">تعس</text><path id="Path_5765" data-name="Path 5765" class="cls-3" d="M303.38,170.64c22.77,14.87,50.65,20.34,74.15,21.9,56.37,3.75,97.24,55.84,85.86,111.18-.27,1.33-.56,2.68-.87,4a81,81,0,0,1-4.7,14.42C411.63,428.59,293.66,484.57,217.75,418.1,88.24,304.72,112.28-33.41,282.65,153A108.14,108.14,0,0,0,303.38,170.64Z"/><rect class="cls-4" x="157.83" y="447.61" width="116.93" height="13.34"/><g class="cls-5"><rect class="cls-6" x="160.87" y="449.51" width="2.93" height="9.55"/><rect class="cls-6" x="166.02" y="449.51" width="2.93" height="9.55"/><rect class="cls-6" x="171.16" y="449.51" width="2.93" height="9.55"/><rect class="cls-6" x="176.3" y="449.51" width="2.93" height="9.55"/><rect class="cls-6" x="181.44" y="449.51" width="2.93" height="9.55"/><rect class="cls-6" x="186.59" y="449.51" width="2.93" height="9.55"/><rect class="cls-6" x="191.73" y="449.51" width="2.93" height="9.55"/><rect class="cls-6" x="196.87" y="449.51" width="2.93" height="9.55"/><rect class="cls-6" x="202.01" y="449.51" width="2.93" height="9.55"/><rect class="cls-6" x="207.15" y="449.51" width="2.93" height="9.55"/><rect class="cls-6" x="212.3" y="449.51" width="2.93" height="9.55"/><rect class="cls-6" x="217.44" y="449.51" width="2.93" height="9.55"/><rect class="cls-6" x="222.58" y="449.51" width="2.93" height="9.55"/><rect class="cls-6" x="227.72" y="449.51" width="2.93" height="9.55"/><rect class="cls-6" x="232.87" y="449.51" width="2.93" height="9.55"/><rect class="cls-6" x="238.01" y="449.51" width="2.93" height="9.55"/><rect class="cls-6" x="243.15" y="449.51" width="2.93" height="9.55"/><rect class="cls-6" x="248.29" y="449.51" width="2.93" height="9.55"/><rect class="cls-6" x="253.43" y="449.51" width="2.93" height="9.55"/><rect class="cls-6" x="258.58" y="449.51" width="2.93" height="9.55"/><rect class="cls-6" x="263.72" y="449.51" width="2.93" height="9.55"/><rect class="cls-6" x="268.86" y="449.51" width="2.93" height="9.55"/></g><rect class="cls-7" x="274.77" y="447.61" width="18.24" height="13.34" transform="translate(567.77 908.57) rotate(180)"/><rect class="cls-8" x="151.75" y="211.86" width="123.02" height="235.75"/><rect class="cls-9" x="159.81" y="209.84" width="131.21" height="2.02"/><rect class="cls-10" x="274.77" y="211.86" width="24.33" height="235.75" transform="translate(573.86 659.47) rotate(180)"/><rect class="cls-11" x="154.61" y="274.22" width="117.29" height="23.4" rx="3.27"/><path class="cls-10" d="M262,282.77,257.3,273v25.83h14.6V285.92h-4.85A5.57,5.57,0,0,1,262,282.77Z"/><rect class="cls-12" x="154.61" y="214.68" width="117.29" height="25.83"/><rect class="cls-12" x="154.61" y="418.81" width="117.29" height="25.83"/><rect class="cls-12" x="154.61" y="389.65" width="117.29" height="25.83"/><rect class="cls-12" x="154.61" y="360.49" width="117.29" height="25.83"/><rect class="cls-12" x="154.61" y="331.33" width="117.29" height="25.83"/><rect class="cls-12" x="154.61" y="302.17" width="117.29" height="25.83"/><rect class="cls-12" x="140.01" y="273.01" width="117.29" height="25.83"/><rect class="cls-12" x="154.61" y="243.84" width="117.29" height="25.83"/><rect class="cls-10" x="216.24" y="218.37" width="52.13" height="18.45" rx="3.77"/><rect class="cls-13" x="250.32" y="218.78" width="4.72" height="17.65" rx="1.6" transform="translate(480.28 -25.08) rotate(90)"/><rect class="cls-10" x="216.24" y="247.53" width="52.13" height="18.45" rx="3.77"/><rect class="cls-14" x="250.32" y="247.94" width="4.72" height="17.65" rx="1.6" transform="translate(509.44 4.08) rotate(90)"/><rect class="cls-10" x="201.64" y="276.69" width="52.13" height="18.45" rx="3.77"/><rect class="cls-13" x="235.72" y="277.1" width="4.72" height="17.65" rx="1.6" transform="translate(524 47.84) rotate(90)"/><rect class="cls-10" x="216.24" y="305.86" width="52.13" height="18.45" rx="3.77"/><rect class="cls-13" x="250.32" y="306.26" width="4.72" height="17.65" rx="1.6" transform="translate(567.76 62.4) rotate(90)"/><rect class="cls-10" x="216.24" y="335.02" width="52.13" height="18.45" rx="3.77"/><rect class="cls-14" x="250.32" y="335.42" width="4.72" height="17.65" rx="1.6" transform="translate(596.92 91.56) rotate(90)"/><rect class="cls-10" x="216.24" y="364.18" width="52.13" height="18.45" rx="3.77"/><rect class="cls-14" x="250.32" y="364.58" width="4.72" height="17.65" rx="1.6" transform="translate(626.09 120.72) rotate(90)"/><rect class="cls-10" x="216.24" y="393.34" width="52.13" height="18.45" rx="3.77"/><rect class="cls-13" x="250.32" y="393.74" width="4.72" height="17.65" rx="1.6" transform="translate(655.25 149.88) rotate(90)"/><rect class="cls-10" x="216.24" y="422.5" width="52.13" height="18.45" rx="3.77"/><rect class="cls-13" x="250.32" y="422.9" width="4.72" height="17.65" rx="1.6" transform="translate(684.41 179.04) rotate(90)"/><circle class="cls-10" cx="207.17" cy="227.6" r="2.98"/><circle class="cls-10" cx="198.66" cy="227.6" r="2.98"/><circle class="cls-14" cx="190.14" cy="227.6" r="2.98"/><path class="cls-10" d="M184.6,227.6a3,3,0,1,1-3-3A3,3,0,0,1,184.6,227.6Z"/><circle class="cls-15" cx="207.17" cy="256.76" r="2.98"/><circle class="cls-10" cx="198.66" cy="256.76" r="2.98"/><circle class="cls-10" cx="190.14" cy="256.76" r="2.98"/><path class="cls-16" d="M184.6,256.76a3,3,0,1,1-3-3A3,3,0,0,1,184.6,256.76Z"/><circle class="cls-16" cx="192.57" cy="285.92" r="2.98"/><circle class="cls-10" cx="184.06" cy="285.92" r="2.98"/><circle class="cls-16" cx="175.54" cy="285.92" r="2.98"/><circle class="cls-10" cx="167.02" cy="285.92" r="2.98"/><circle class="cls-16" cx="207.17" cy="315.08" r="2.98"/><circle class="cls-14" cx="198.66" cy="315.08" r="2.98"/><circle class="cls-10" cx="190.14" cy="315.08" r="2.98"/><path class="cls-15" d="M184.6,315.08a3,3,0,1,1-3-3A3,3,0,0,1,184.6,315.08Z"/><circle class="cls-10" cx="207.17" cy="344.24" r="2.98"/><circle class="cls-16" cx="198.66" cy="344.24" r="2.98"/><circle class="cls-10" cx="190.14" cy="344.24" r="2.98"/><path class="cls-10" d="M184.6,344.24a3,3,0,1,1-3-3A3,3,0,0,1,184.6,344.24Z"/><circle class="cls-15" cx="207.17" cy="373.4" r="2.98"/><circle class="cls-15" cx="198.66" cy="373.4" r="2.98"/><circle class="cls-16" cx="190.14" cy="373.4" r="2.98"/><path class="cls-16" d="M184.6,373.4a3,3,0,1,1-3-3A3,3,0,0,1,184.6,373.4Z"/><path class="cls-16" d="M210.16,402.56a3,3,0,1,1-3-3A3,3,0,0,1,210.16,402.56Z"/><path class="cls-15" d="M201.64,402.56a3,3,0,1,1-3-3A3,3,0,0,1,201.64,402.56Z"/><path class="cls-10" d="M193.12,402.56a3,3,0,1,1-3-3A3,3,0,0,1,193.12,402.56Z"/><path class="cls-10" d="M184.6,402.56a3,3,0,1,1-3-3A3,3,0,0,1,184.6,402.56Z"/><circle class="cls-10" cx="207.17" cy="431.73" r="2.98"/><circle class="cls-15" cx="198.66" cy="431.73" r="2.98"/><circle class="cls-15" cx="190.14" cy="431.73" r="2.98"/><path class="cls-14" d="M184.6,431.73a3,3,0,1,1-3-3A3,3,0,0,1,184.6,431.73Z"/><path class="cls-14" d="M172.7,227.6a6.46,6.46,0,1,1-6.46-6.46A6.46,6.46,0,0,1,172.7,227.6Z"/><path class="cls-14" d="M172.7,256.76a6.46,6.46,0,1,1-6.46-6.46A6.46,6.46,0,0,1,172.7,256.76Z"/><path class="cls-14" d="M158.1,285.92a6.46,6.46,0,1,1-6.46-6.46A6.46,6.46,0,0,1,158.1,285.92Z"/><path class="cls-14" d="M172.7,315.08a6.46,6.46,0,1,1-6.46-6.46A6.46,6.46,0,0,1,172.7,315.08Z"/><path class="cls-14" d="M172.7,344.24a6.46,6.46,0,1,1-6.46-6.45A6.46,6.46,0,0,1,172.7,344.24Z"/><path class="cls-14" d="M172.7,373.4a6.46,6.46,0,1,1-6.46-6.45A6.46,6.46,0,0,1,172.7,373.4Z"/><path class="cls-14" d="M172.7,402.56a6.46,6.46,0,1,1-6.46-6.45A6.46,6.46,0,0,1,172.7,402.56Z"/><path class="cls-14" d="M172.7,431.73a6.46,6.46,0,1,1-6.46-6.46A6.46,6.46,0,0,1,172.7,431.73Z"/><rect class="cls-4" x="185.67" y="204.13" width="0.84" height="2.51"/><path class="cls-4" d="M347.38,261.15h-.84v-5h.84Zm0-10h-.84v-5h.84Zm0-10h-.84v-5h.84Zm0-10h-.84v-5h.84Zm0-10h-.84v-5h.84Zm0-10h-.84v-5h.84Zm0-10h-.84v-5h.84Zm-160.87-2.07h-.84V195.7a14,14,0,0,1,.09-1.6l.83.09a15.11,15.11,0,0,0-.08,1.51Zm159.3-7.69a12.73,12.73,0,0,0-2.43-4.14l.62-.55a13.32,13.32,0,0,1,2.6,4.41Zm-157.75-1.83-.74-.4a13.51,13.51,0,0,1,3.26-3.95l.54.64A12.55,12.55,0,0,0,188.06,189.62Zm151.51-5.25a12.58,12.58,0,0,0-4.62-1.31l.07-.83a13.43,13.43,0,0,1,4.93,1.4Zm-144.24-.76-.25-.8a13.57,13.57,0,0,1,4.11-.63h.95V183h-.95A12.91,12.91,0,0,0,195.33,183.61ZM330,183h-5v-.84h5Zm-10,0h-5v-.84h5Zm-10,0h-5v-.84h5Zm-10,0h-5v-.84h5Zm-10,0h-5v-.84h5Zm-10,0h-5v-.84h5Zm-10,0h-5v-.84h5Zm-10,0h-5v-.84h5Zm-10,0h-5v-.84h5Zm-10,0h-5v-.84h5Zm-10,0h-5v-.84h5Zm-10,0h-5v-.84h5Zm-10,0h-5v-.84h5Z"/><rect class="cls-4" x="346.54" y="266.17" width="0.84" height="2.51"/><circle class="cls-4" cx="338.49" cy="315.94" r="51.43"/><circle class="cls-12" cx="338.49" cy="315.94" r="44.81" transform="translate(-124.27 331.89) rotate(-45)"/><circle class="cls-17" cx="338.49" cy="315.94" r="41.35" transform="translate(-124.27 331.89) rotate(-45)"/><path class="cls-14" d="M304.42,315.94a32.77,32.77,0,0,1,1.75-12.64A33.44,33.44,0,0,1,312.79,292a34.28,34.28,0,0,1,10.68-8,35.07,35.07,0,0,1,13.24-3.4,35.87,35.87,0,0,1,13.83,2,36.33,36.33,0,0,1,12.26,7.29,37.14,37.14,0,0,1,8.71,11.67,38.18,38.18,0,0,1,3.65,14.42H362.82a26.92,26.92,0,0,0-6.56-19.55,28.42,28.42,0,0,0-19.55-9.64A30,30,0,0,0,315,294.21,31.55,31.55,0,0,0,304.42,315.94Z"/><path class="cls-18" d="M383.3,315.94a47.33,47.33,0,0,1-.39,6,44.82,44.82,0,0,0-88.83,0,45.54,45.54,0,0,1-.4-6,44.81,44.81,0,0,1,89.62,0Z"/><circle class="cls-19" cx="338.49" cy="318.95" r="11.52" transform="translate(-89.78 137.59) rotate(-20.35)"/><path class="cls-20" d="M343,319a4.52,4.52,0,1,1-4.52-4.52A4.52,4.52,0,0,1,343,319Z"/><polygon class="cls-20" points="335.01 316.13 363.11 286.76 342.18 321.63 335.01 316.13"/><path class="cls-21" d="M340.56,319a2.07,2.07,0,1,1-2.07-2.07A2.07,2.07,0,0,1,340.56,319Z"/><path class="cls-22" d="M327.64,359.43l2.55-3a38.43,38.43,0,0,0,16.6,0l2.27,3S340.42,362.55,327.64,359.43Z"/><path class="cls-22" d="M305.86,276.19l5.49,4.11s16.29-12.8,35.77-8.33l1.94-6.37S325.39,259.78,305.86,276.19Z"/><path class="cls-23" d="M312.51,281.13l15.13,78.3s19.7,3.79,30-3L347.2,273A40.39,40.39,0,0,0,312.51,281.13Z"/><path class="cls-22" d="M353.07,358.64l-3.06-3a55.63,55.63,0,0,0,6-2.35l2.63,2.66S354.9,358.45,353.07,358.64Z"/><path class="cls-14" d="M324.58,336.73a1.45,1.45,0,0,0-.84.21.73.73,0,0,0-.31.65.87.87,0,0,0,.44.7,5.44,5.44,0,0,0,1.16.57,4.75,4.75,0,0,1,1,.49,2.18,2.18,0,0,1,.7.77,2.41,2.41,0,0,1,.28,1.23,2.26,2.26,0,0,1-.33,1.2,2.37,2.37,0,0,1-1,.88,3.47,3.47,0,0,1-1.54.32,5.12,5.12,0,0,1-1.49-.22,4.5,4.5,0,0,1-1.37-.68l.73-1.28a3.81,3.81,0,0,0,1,.52,2.94,2.94,0,0,0,1,.21,1.88,1.88,0,0,0,.91-.22.77.77,0,0,0,.39-.73c0-.43-.41-.8-1.22-1.12a12.92,12.92,0,0,1-1.19-.54,2.54,2.54,0,0,1-.82-.75,2.1,2.1,0,0,1-.35-1.23,2.25,2.25,0,0,1,.71-1.73,2.88,2.88,0,0,1,1.89-.72,5,5,0,0,1,1.56.21,5.24,5.24,0,0,1,1.21.6l-.62,1.26A4.09,4.09,0,0,0,324.58,336.73Z"/><path class="cls-14" d="M333.53,336.06a2.63,2.63,0,0,1,.84,2.06,3.28,3.28,0,0,1-.29,1.4,2.36,2.36,0,0,1-.94,1.07,3,3,0,0,1-1.68.42h-1.18v2.65h-1.65v-8.35h2.53A3.44,3.44,0,0,1,333.53,336.06Zm-1.34,3.14a1.19,1.19,0,0,0,.41-.49,1.25,1.25,0,0,0,.13-.54,1.63,1.63,0,0,0-.26-.86,1.1,1.1,0,0,0-1-.41h-1.18v2.51h1.17A1.18,1.18,0,0,0,332.19,339.2Z"/><path class="cls-14" d="M341.6,335.31v1.59h-2.72v1.78h2.41v1.59h-2.41v1.8h2.82v1.59h-3.92v-8.35Z"/><path class="cls-14" d="M349.1,335.31v1.59h-4.05v1.78h3.59v1.59h-3.59v1.8h4.21v1.59h-5.85v-8.35Z"/><path class="cls-14" d="M351,335.31h2.5a5.07,5.07,0,0,1,2.63.61,3.73,3.73,0,0,1,1.5,1.61,4.69,4.69,0,0,1,.48,2.1,3.93,3.93,0,0,1-.57,2.12,3.78,3.78,0,0,1-1.53,1.41,4.52,4.52,0,0,1-2.1.5H351Zm2.62,6.76a3,3,0,0,0,2-.66,2.41,2.41,0,0,0,.74-1.89,2.68,2.68,0,0,0-.41-1.59,2.23,2.23,0,0,0-1-.82,2.8,2.8,0,0,0-1-.23h-1.34v5.19Z"/><path class="cls-12" d="M334.91,346.05v1.46h.86v.69h-.86v2.64H334V348.2h-.57v-.69H334v-1.46Z"/><path class="cls-12" d="M339,349.91l.41.65a2.34,2.34,0,0,1-.58.26,1.78,1.78,0,0,1-.59.1,2,2,0,0,1-1-.23,1.62,1.62,0,0,1-.65-.62,1.87,1.87,0,0,1-.22-.92,1.65,1.65,0,0,1,.25-.9,1.88,1.88,0,0,1,1.63-.89,1.6,1.6,0,0,1,1.12.4,2,2,0,0,1,.6,1.12l-2.56.86a.9.9,0,0,0,.35.32,1.14,1.14,0,0,0,.49.11A1.33,1.33,0,0,0,339,349.91Zm-1.49-1.57a1.09,1.09,0,0,0-.27.76c0,.06,0,.1,0,.13l1.75-.62a1.08,1.08,0,0,0-.3-.4.82.82,0,0,0-.51-.16A.88.88,0,0,0,337.49,348.34Z"/><path class="cls-12" d="M341.09,350.77a1.49,1.49,0,0,1-.56-.39l.37-.5a1.2,1.2,0,0,0,.85.41.75.75,0,0,0,.39-.09.29.29,0,0,0,.15-.27.31.31,0,0,0-.15-.28,2.17,2.17,0,0,0-.35-.15l-.25-.08a1.38,1.38,0,0,1-.65-.39.91.91,0,0,1-.21-.6,1,1,0,0,1,.14-.51,1,1,0,0,1,.42-.39,1.4,1.4,0,0,1,.68-.15,2.46,2.46,0,0,1,.65.08,1.55,1.55,0,0,1,.52.28l-.33.53a1.23,1.23,0,0,0-.35-.22,1,1,0,0,0-.36-.08.6.6,0,0,0-.34.1.27.27,0,0,0-.13.24.28.28,0,0,0,.13.27,2.37,2.37,0,0,0,.46.2l.17.05a1.49,1.49,0,0,1,.61.35.8.8,0,0,1,.22.59,1,1,0,0,1-.35.81,1.39,1.39,0,0,1-1,.33A2,2,0,0,1,341.09,350.77Z"/><path class="cls-12" d="M345.35,346.05v1.46h.87v.69h-.87v2.64h-.88V348.2h-.57v-.69h.57v-1.46Z"/></g></g></svg>