<svg id="Layer_1" data-name="Layer 1" xmlns="http://www.w3.org/2000/svg" xmlns:xlink="http://www.w3.org/1999/xlink" viewBox="0 0 584.47 584.47"><defs><style>.cls-1{fill:#b2d3ea;}.cls-2{fill:#d5ecfb;}.cls-3{fill:#c8e5f9;opacity:0.58;isolation:isolate;}.cls-4{fill:url(#linear-gradient);}.cls-5{fill:url(#linear-gradient-2);}.cls-19,.cls-6,.cls-7{fill:#fff;}.cls-7{opacity:0.78;}.cls-8{fill:url(#linear-gradient-3);}.cls-9{fill:#5dbdb0;}.cls-10{fill:#1672b9;}.cls-11{opacity:0.1;}.cls-12{fill:#2d92d1;}.cls-13{fill:#fbfbfb;}.cls-14{fill:#385a65;}.cls-15{opacity:0.75;}.cls-16{opacity:0.2;}.cls-17{fill:#025385;}.cls-18{fill:#37474f;}.cls-19{opacity:0.15;}.cls-20{fill:#f49b6c;}.cls-21{fill:#5bbbeb;}</style><linearGradient id="linear-gradient" x1="94.05" y1="352.19" x2="236.57" y2="186.77" gradientUnits="userSpaceOnUse"><stop offset="0" stop-color="#f7ea4a"/><stop offset="1" stop-color="#d93e66"/></linearGradient><linearGradient id="linear-gradient-2" x1="323.57" y1="56.33" x2="-132.99" y2="746.06" gradientTransform="translate(398.69 -72.74) rotate(84.41)" xlink:href="#linear-gradient"/><linearGradient id="linear-gradient-3" x1="309.95" y1="76.1" x2="66.85" y2="484.23" xlink:href="#linear-gradient"/></defs><path class="cls-1" d="M418.91,320.93a4.56,4.56,0,0,1-2.34-.64l-14-8.4.84-1.42,14,8.4a2.89,2.89,0,0,0,2.95,0l35.24-25.52a1.14,1.14,0,0,0,0-2L425.19,275.1l.77-1.45,30.39,16.27a2.76,2.76,0,0,1,1.48,2.41,2.8,2.8,0,0,1-1.39,2.47L421.2,320.31A4.48,4.48,0,0,1,418.91,320.93Z"/><path class="cls-1" d="M378.78,437.35a5.85,5.85,0,0,1-2.87-.74L320,405.49a2.56,2.56,0,0,1,0-4.48l25.3-14.27a.87.87,0,0,0,.45-.76.86.86,0,0,0-.44-.77l-28.15-16.16a2.53,2.53,0,0,1-.09-4.33l11.5-7.29.88,1.4-11.5,7.28a.88.88,0,0,0-.41.76.87.87,0,0,0,.44.75l28.15,16.16a2.52,2.52,0,0,1,0,4.39l-25.3,14.27a.93.93,0,0,0-.47.81.91.91,0,0,0,.48.8l55.9,31.12a4.26,4.26,0,0,0,4.27-.08L402.24,422a.39.39,0,0,0,.2-.34.43.43,0,0,0-.2-.35L386.86,412l.85-1.41,15.39,9.35a2.07,2.07,0,0,1,0,3.51L381.84,436.5A5.87,5.87,0,0,1,378.78,437.35Z"/><path class="cls-1" d="M193,340.34a3.86,3.86,0,0,1-1.86-.49l-20.05-11.36a1.9,1.9,0,0,1-1-1.66,1.93,1.93,0,0,1,1-1.68l50-28.93a9.31,9.31,0,0,1,9.3,0l57.16,33-.82,1.43-57.17-33a7.68,7.68,0,0,0-7.65,0l-50,28.93a.28.28,0,0,0,0,.48L192,338.41a2.12,2.12,0,0,0,2.2-.06l8.47-5.48.9,1.38-8.47,5.48A3.74,3.74,0,0,1,193,340.34Z"/><path class="cls-1" d="M222.58,358.58a5.56,5.56,0,0,1-2.79-.75l-17-9.87a1.86,1.86,0,0,1,0-3.21L214,338.26l.83,1.43-11.19,6.49a.2.2,0,0,0-.1.17.2.2,0,0,0,.1.18l17,9.87a3.93,3.93,0,0,0,3.9,0l33.31-19a5.61,5.61,0,0,1,5.55,0l27.9,16.11a3.92,3.92,0,0,0,3.93,0l13.45-7.78.83,1.43L296,355a5.59,5.59,0,0,1-5.58,0l-27.9-16.12a3.93,3.93,0,0,0-3.9,0l-33.32,19A5.6,5.6,0,0,1,222.58,358.58Z"/><path class="cls-2" d="M329.54,159.86c0,.59-.41.82-.92.53a2,2,0,0,1-.92-1.59c0-.58.41-.82.92-.53A2,2,0,0,1,329.54,159.86Z"/><path class="cls-2" d="M337.62,164.76c0,.59-.41.82-.92.53a2,2,0,0,1-.92-1.59c0-.58.41-.82.92-.53A2,2,0,0,1,337.62,164.76Z"/><path class="cls-2" d="M345.7,169.66c0,.59-.41.82-.92.53a2,2,0,0,1-.92-1.59c0-.58.42-.82.92-.53A2,2,0,0,1,345.7,169.66Z"/><path class="cls-2" d="M327.09,164.74a.83.83,0,1,1-.83-.83A.83.83,0,0,1,327.09,164.74Z"/><path class="cls-2" d="M334.62,169.25a.83.83,0,1,1-.82-.82A.83.83,0,0,1,334.62,169.25Z"/><circle class="cls-2" cx="341.33" cy="173.76" r="0.83"/><path class="cls-2" d="M349.69,178.1a.83.83,0,1,1-.82-.82A.83.83,0,0,1,349.69,178.1Z"/><path class="cls-3" d="M488.1,215c9.26,0,17.77,4.16,22.08,10.82,24.58,38,16.05,93.92-17.11,108.92-41.47,18.76,17.17,73.58-37.92,101.47s-99.52-35.59-174.15-1-141-26-126.77-50.5,24.88-54.34-16.59-88c-28.53-23.16-4.9-55.88,12.62-74C155,217.82,162.2,215,169.84,215Z"/><path class="cls-3" d="M493.07,334.73c-41.47,18.76,17.17,73.58-37.92,101.47-18,9.13-34.93,8.47-52.12,4.66,19.61.23,49.36-3.79,50.54-30.14,1.78-39.43-67.53-65.4-16-93.77,51-28.08,21.35-86.77-38.41-102H488.1c9.26,0,17.77,4.16,22.08,10.82C534.76,263.83,526.23,319.73,493.07,334.73Z"/><circle class="cls-4" cx="239.45" cy="183.42" r="106.25"/><circle class="cls-5" cx="239.45" cy="183.42" r="111.28" transform="translate(33.59 403.88) rotate(-84.41)"/><path class="cls-6" d="M147.68,139.68a2.36,2.36,0,0,1-1.11-.27,2.47,2.47,0,0,1-1.1-3.33,104.77,104.77,0,0,1,94-57.86,106.39,106.39,0,0,1,19,1.7,2.49,2.49,0,0,1-.89,4.89,101.06,101.06,0,0,0-18.08-1.63,99.84,99.84,0,0,0-89.55,55.14A2.48,2.48,0,0,1,147.68,139.68Z"/><circle class="cls-7" cx="241.87" cy="185.85" r="94.19" transform="matrix(0.16, -0.99, 0.99, 0.16, 19.11, 394.22)"/><path class="cls-8" d="M232.63,255.87V245.62a83.71,83.71,0,0,1-28.75-6.23,5.94,5.94,0,0,1-3.28-7l2.6-9.54a6,6,0,0,1,8.11-3.91,69.44,69.44,0,0,0,26.55,5.59c10.29,0,18-3.49,18-10.64,0-6.45-5.93-10.29-20.23-14.12-20.4-5.58-35.05-14.48-35.05-32.44,0-16.22,11.86-28.6,32.44-31.91V125.16a6,6,0,0,1,6-6h6a6,6,0,0,1,6,6v9.2a76.57,76.57,0,0,1,22.79,4.09,6,6,0,0,1,3.71,7.18l-2.39,8.82a6,6,0,0,1-7.86,4,62.38,62.38,0,0,0-22.35-4.05c-12.21,0-15.7,5.05-15.7,9.59,0,5.58,7.33,9.41,23.19,14.3,22.68,6.8,32.09,16.22,32.09,33.13,0,15.52-11.51,29.47-33.83,33v11.47a6,6,0,0,1-6,6h-6A6,6,0,0,1,232.63,255.87Z"/><g id="Server"><polygon class="cls-9" points="409.24 308.42 342.2 347.13 275.16 308.43 342.2 269.72 409.24 308.42"/><polygon class="cls-10" points="409.24 308.42 342.2 347.13 275.16 308.43 342.2 269.72 409.24 308.42"/><polygon class="cls-11" points="342.2 347.13 342.2 342.29 279.35 306 275.15 308.42 342.2 347.13"/><path class="cls-9" d="M342.2,347.13V365a9.2,9.2,0,0,0,4.47-1.06h0l29.05-16.77,30.84-17.82a5.9,5.9,0,0,0,2.69-4.64V308.42Z"/><path class="cls-12" d="M342.2,347.13V365a9.2,9.2,0,0,0,4.47-1.06h0l29.05-16.77,30.84-17.82a5.9,5.9,0,0,0,2.69-4.64V308.42Z"/><path class="cls-10" d="M402.82,317l-33.25,19.19a5,5,0,0,0-2.23,3.87v4.52c0,1.43,1,2,2.23,1.29l33.25-19.19a5,5,0,0,0,2.23-3.87v-4.52C405.05,316.84,404.05,316.27,402.82,317Z"/><path class="cls-13" d="M402.7,320.81V323a1,1,0,0,1-.45.77l-.5.29c-.25.15-.45,0-.45-.25v-2.2a1,1,0,0,1,.45-.77l.5-.29C402.5,320.41,402.7,320.52,402.7,320.81Z"/><path class="cls-13" d="M400.44,322.11v2.19a1,1,0,0,1-.45.77l-.5.29c-.25.15-.45,0-.45-.25v-2.2a1,1,0,0,1,.45-.77l.5-.29C400.24,321.71,400.44,321.82,400.44,322.11Z"/><path class="cls-13" d="M398.18,323.41v2.19a1,1,0,0,1-.44.78l-.51.29c-.24.14-.44,0-.44-.26v-2.19a1,1,0,0,1,.44-.78l.51-.29C398,323,398.18,323.12,398.18,323.41Z"/><path class="cls-14" d="M395.92,324.71v2.19a1,1,0,0,1-.44.78l-.5.29c-.25.14-.45,0-.45-.26v-2.19a1,1,0,0,1,.45-.78l.5-.29C395.72,324.31,395.92,324.43,395.92,324.71Z"/><path class="cls-14" d="M393.67,326v2.19a1,1,0,0,1-.45.78l-.5.29c-.25.14-.45,0-.45-.26v-2.19a1,1,0,0,1,.45-.78l.5-.29C393.47,325.61,393.67,325.73,393.67,326Z"/><path class="cls-13" d="M391.41,327.31v2.2a1,1,0,0,1-.45.77l-.5.29c-.25.14-.45,0-.45-.26v-2.19a1,1,0,0,1,.45-.77l.5-.29C391.21,326.91,391.41,327,391.41,327.31Z"/><path class="cls-13" d="M389.15,328.61v2.2a1,1,0,0,1-.44.77l-.51.29c-.24.14-.44,0-.44-.26v-2.19a1,1,0,0,1,.44-.77l.51-.29C389,328.21,389.15,328.33,389.15,328.61Z"/><path class="cls-13" d="M386.9,329.92v2.19a1,1,0,0,1-.44.77l-.5.29c-.25.14-.45,0-.45-.26v-2.19A1,1,0,0,1,386,330l.5-.29C386.7,329.52,386.9,329.63,386.9,329.92Z"/><path class="cls-13" d="M384.64,331.22v2.19a1,1,0,0,1-.45.77l-.5.29c-.25.15-.45,0-.45-.25V332a1,1,0,0,1,.45-.77l.5-.29C384.44,330.82,384.64,330.93,384.64,331.22Z"/><path class="cls-13" d="M382.38,332.52v2.19a1,1,0,0,1-.45.77l-.5.3c-.25.14-.45,0-.45-.26v-2.2a1,1,0,0,1,.45-.77l.5-.29C382.18,332.12,382.38,332.23,382.38,332.52Z"/><path class="cls-13" d="M380.12,333.82V336a1,1,0,0,1-.44.78l-.51.29c-.24.14-.44,0-.44-.26v-2.19a1,1,0,0,1,.44-.78l.51-.29C379.92,333.42,380.12,333.54,380.12,333.82Z"/><path class="cls-13" d="M377.87,335.12v2.19a1,1,0,0,1-.45.78l-.5.29c-.25.14-.45,0-.45-.26v-2.19a1,1,0,0,1,.45-.78l.5-.29C377.67,334.72,377.87,334.84,377.87,335.12Z"/><path class="cls-14" d="M375.61,336.42v2.2a1,1,0,0,1-.45.77l-.5.29c-.25.14-.45,0-.45-.26v-2.19a1,1,0,0,1,.45-.77l.5-.29C375.41,336,375.61,336.14,375.61,336.42Z"/><path class="cls-13" d="M373.35,337.72v2.2a1,1,0,0,1-.45.77l-.5.29c-.25.14-.45,0-.45-.26v-2.19a1,1,0,0,1,.45-.77l.5-.29C373.15,337.32,373.35,337.44,373.35,337.72Z"/><path class="cls-13" d="M371.09,339v2.19a1,1,0,0,1-.44.77l-.51.29c-.24.14-.44,0-.44-.26v-2.19a1,1,0,0,1,.44-.77l.51-.29C370.89,338.63,371.09,338.74,371.09,339Z"/><path class="cls-9" d="M275.15,308.42v16.26a5.92,5.92,0,0,0,2.69,4.64l26.65,15.39,33.25,19.2A9.13,9.13,0,0,0,342.2,365V347.13Z"/><path class="cls-10" d="M275.15,308.42v16.26a5.92,5.92,0,0,0,2.69,4.64l26.65,15.39,33.25,19.2A9.13,9.13,0,0,0,342.2,365V347.13Z"/><g class="cls-15"><path class="cls-6" d="M285.76,319.42l16.49,9.51a5,5,0,0,1,2.23,3.87v4.52c0,1.43-1,2-2.23,1.29l-16.49-9.52a4.93,4.93,0,0,1-2.23-3.86v-4.52C283.53,319.28,284.53,318.7,285.76,319.42Z"/></g><path class="cls-9" d="M287.89,324.51l1-.59h0a1.35,1.35,0,0,1,1.36.14,4.27,4.27,0,0,1,2,3.36,1.38,1.38,0,0,1-.57,1.26h0l-1,.54-.17-.28a2.26,2.26,0,0,1-.55-.22,4.29,4.29,0,0,1-2-3.36,1.89,1.89,0,0,1,.07-.5Z"/><path class="cls-16" d="M287.89,324.51l1-.59h0a1.35,1.35,0,0,1,1.36.14,4.27,4.27,0,0,1,2,3.36,1.38,1.38,0,0,1-.57,1.26h0l-1,.54-.17-.28a2.26,2.26,0,0,1-.55-.22,4.29,4.29,0,0,1-2-3.36,1.89,1.89,0,0,1,.07-.5Z"/><path class="cls-9" d="M289.3,324.62a4.31,4.31,0,0,1,1.94,3.37c0,1.23-.87,1.74-1.94,1.12a4.31,4.31,0,0,1-1.94-3.37C287.36,324.51,288.23,324,289.3,324.62Z"/><path class="cls-9" d="M296.31,329.38l1-.59h0a1.35,1.35,0,0,1,1.36.14,4.3,4.3,0,0,1,1.94,3.36,1.36,1.36,0,0,1-.56,1.26h0l-.95.55-.17-.29a2.09,2.09,0,0,1-.56-.22,4.29,4.29,0,0,1-1.94-3.36,2.54,2.54,0,0,1,.06-.5Z"/><path class="cls-16" d="M296.31,329.38l1-.59h0a1.35,1.35,0,0,1,1.36.14,4.3,4.3,0,0,1,1.94,3.36,1.36,1.36,0,0,1-.56,1.26h0l-.95.55-.17-.29a2.09,2.09,0,0,1-.56-.22,4.29,4.29,0,0,1-1.94-3.36,2.54,2.54,0,0,1,.06-.5Z"/><path class="cls-9" d="M297.73,329.49a4.29,4.29,0,0,1,1.94,3.36c0,1.24-.87,1.74-1.94,1.12a4.26,4.26,0,0,1-1.94-3.36C295.79,329.37,296.65,328.87,297.73,329.49Z"/><g class="cls-15"><path class="cls-6" d="M285.76,319.42l16.49,9.51a5,5,0,0,1,2.23,3.87v4.52c0,1.43-1,2-2.23,1.29l-16.49-9.52a4.93,4.93,0,0,1-2.23-3.86v-4.52C283.53,319.28,284.53,318.7,285.76,319.42Z"/></g><path class="cls-9" d="M287.89,324.51l1-.59h0a1.35,1.35,0,0,1,1.36.14,4.27,4.27,0,0,1,2,3.36,1.38,1.38,0,0,1-.57,1.26h0l-1,.54-.17-.28a2.26,2.26,0,0,1-.55-.22,4.29,4.29,0,0,1-2-3.36,1.89,1.89,0,0,1,.07-.5Z"/><path class="cls-17" d="M287.89,324.51l1-.59h0a1.35,1.35,0,0,1,1.36.14,4.27,4.27,0,0,1,2,3.36,1.38,1.38,0,0,1-.57,1.26h0l-1,.54-.17-.28a2.26,2.26,0,0,1-.55-.22,4.29,4.29,0,0,1-2-3.36,1.89,1.89,0,0,1,.07-.5Z"/><path class="cls-10" d="M289.3,324.62a4.31,4.31,0,0,1,1.94,3.37c0,1.23-.87,1.74-1.94,1.12a4.31,4.31,0,0,1-1.94-3.37C287.36,324.51,288.23,324,289.3,324.62Z"/><path class="cls-9" d="M296.31,329.38l1-.59h0a1.35,1.35,0,0,1,1.36.14,4.3,4.3,0,0,1,1.94,3.36,1.36,1.36,0,0,1-.56,1.26h0l-.95.55-.17-.29a2.09,2.09,0,0,1-.56-.22,4.29,4.29,0,0,1-1.94-3.36,2.54,2.54,0,0,1,.06-.5Z"/><path class="cls-17" d="M296.31,329.38l1-.59h0a1.35,1.35,0,0,1,1.36.14,4.3,4.3,0,0,1,1.94,3.36,1.36,1.36,0,0,1-.56,1.26h0l-.95.55-.17-.29a2.09,2.09,0,0,1-.56-.22,4.29,4.29,0,0,1-1.94-3.36,2.54,2.54,0,0,1,.06-.5Z"/><path class="cls-10" d="M297.73,329.49a4.29,4.29,0,0,1,1.94,3.36c0,1.24-.87,1.74-1.94,1.12a4.26,4.26,0,0,1-1.94-3.36C295.79,329.37,296.65,328.87,297.73,329.49Z"/><path class="cls-9" d="M361.4,344.44l-1-.59h0A1.35,1.35,0,0,0,359,344a4.29,4.29,0,0,0-1.94,3.36,1.38,1.38,0,0,0,.56,1.26h0l.95.54.17-.28a2.09,2.09,0,0,0,.56-.22,4.3,4.3,0,0,0,1.94-3.36,2.45,2.45,0,0,0-.06-.5Z"/><path class="cls-17" d="M361.4,344.44l-1-.59h0A1.35,1.35,0,0,0,359,344a4.29,4.29,0,0,0-1.94,3.36,1.38,1.38,0,0,0,.56,1.26h0l.95.54.17-.28a2.09,2.09,0,0,0,.56-.22,4.3,4.3,0,0,0,1.94-3.36,2.45,2.45,0,0,0-.06-.5Z"/><path class="cls-9" d="M360,344.55a4.31,4.31,0,0,0-1.94,3.37c0,1.23.87,1.74,1.94,1.12a4.28,4.28,0,0,0,1.94-3.37C361.92,344.44,361.06,343.94,360,344.55Z"/><path class="cls-10" d="M360,344.55a4.31,4.31,0,0,0-1.94,3.37c0,1.23.87,1.74,1.94,1.12a4.28,4.28,0,0,0,1.94-3.37C361.92,344.44,361.06,343.94,360,344.55Z"/><path class="cls-9" d="M353,349.31l-1-.59h0a1.37,1.37,0,0,0-1.37.14,4.3,4.3,0,0,0-1.94,3.36,1.37,1.37,0,0,0,.57,1.26h0l.95.55.17-.29a1.71,1.71,0,0,0,.56-.22,4.29,4.29,0,0,0,1.94-3.36,2,2,0,0,0-.06-.5Z"/><path class="cls-17" d="M353,349.31l-1-.59h0a1.37,1.37,0,0,0-1.37.14,4.3,4.3,0,0,0-1.94,3.36,1.37,1.37,0,0,0,.57,1.26h0l.95.55.17-.29a1.71,1.71,0,0,0,.56-.22,4.29,4.29,0,0,0,1.94-3.36,2,2,0,0,0-.06-.5Z"/><path class="cls-9" d="M351.56,349.42a4.27,4.27,0,0,0-1.95,3.36c0,1.24.87,1.74,1.95,1.12a4.29,4.29,0,0,0,1.94-3.36C353.5,349.3,352.63,348.8,351.56,349.42Z"/><path class="cls-10" d="M351.56,349.42a4.27,4.27,0,0,0-1.95,3.36c0,1.24.87,1.74,1.95,1.12a4.29,4.29,0,0,0,1.94-3.36C353.5,349.3,352.63,348.8,351.56,349.42Z"/><polygon class="cls-9" points="409.24 279.39 342.2 318.1 275.16 279.39 342.2 240.69 409.24 279.39"/><polygon class="cls-10" points="409.24 279.39 342.2 318.1 275.16 279.39 342.2 240.69 409.24 279.39"/><polygon class="cls-11" points="342.2 318.1 342.2 313.26 279.35 276.97 275.16 279.39 342.2 318.1"/><polygon class="cls-9" points="409.24 298.75 342.2 337.46 342.2 318.1 409.24 279.39 409.24 298.75"/><polygon class="cls-12" points="409.24 298.75 342.2 337.46 342.2 318.1 409.24 279.39 409.24 298.75"/><path class="cls-10" d="M402.82,288l-33.25,19.2a4.93,4.93,0,0,0-2.23,3.87v4.52c0,1.42,1,2,2.23,1.29l33.25-19.2a4.93,4.93,0,0,0,2.23-3.87v-4.52C405.05,287.82,404.05,287.24,402.82,288Z"/><path class="cls-13" d="M402.7,291.78V294a1,1,0,0,1-.45.78l-.5.29c-.25.14-.45,0-.45-.26v-2.19a1,1,0,0,1,.45-.78l.5-.29C402.5,291.38,402.7,291.5,402.7,291.78Z"/><path class="cls-14" d="M400.44,293.08v2.2a1,1,0,0,1-.45.77l-.5.29c-.25.14-.45,0-.45-.26v-2.19a1,1,0,0,1,.45-.77l.5-.29C400.24,292.68,400.44,292.8,400.44,293.08Z"/><path class="cls-13" d="M398.18,294.38v2.2a1,1,0,0,1-.44.77l-.51.29c-.24.14-.44,0-.44-.26v-2.19a1,1,0,0,1,.44-.77l.51-.29C398,294,398.18,294.1,398.18,294.38Z"/><path class="cls-14" d="M395.92,295.69v2.19a1,1,0,0,1-.44.77l-.5.29c-.25.14-.45,0-.45-.26v-2.19a1,1,0,0,1,.45-.77l.5-.29C395.72,295.29,395.92,295.4,395.92,295.69Z"/><path class="cls-14" d="M393.67,297v2.19a1,1,0,0,1-.45.77l-.5.29c-.25.15-.45,0-.45-.25v-2.2a1,1,0,0,1,.45-.77l.5-.29C393.47,296.59,393.67,296.7,393.67,297Z"/><path class="cls-13" d="M391.41,298.29v2.19a1,1,0,0,1-.45.77l-.5.29c-.25.15-.45,0-.45-.25v-2.2a1,1,0,0,1,.45-.77l.5-.29C391.21,297.89,391.41,298,391.41,298.29Z"/><path class="cls-13" d="M389.15,299.59v2.19a1,1,0,0,1-.44.78l-.51.29c-.24.14-.44,0-.44-.26V300.4a1,1,0,0,1,.44-.78l.51-.29C389,299.19,389.15,299.31,389.15,299.59Z"/><path class="cls-13" d="M386.9,300.89v2.19a1,1,0,0,1-.44.78l-.5.29c-.25.14-.45,0-.45-.26V301.7a1,1,0,0,1,.45-.78l.5-.29C386.7,300.49,386.9,300.61,386.9,300.89Z"/><path class="cls-14" d="M384.64,302.19v2.19a1,1,0,0,1-.45.78l-.5.29c-.25.14-.45,0-.45-.26V303a1,1,0,0,1,.45-.78l.5-.29C384.44,301.79,384.64,301.91,384.64,302.19Z"/><path class="cls-13" d="M382.38,303.49v2.2a1,1,0,0,1-.45.77l-.5.29c-.25.14-.45,0-.45-.26V304.3a1,1,0,0,1,.45-.77l.5-.29C382.18,303.09,382.38,303.21,382.38,303.49Z"/><path class="cls-14" d="M380.12,304.8V307a1,1,0,0,1-.44.77l-.51.29c-.24.14-.44,0-.44-.26V305.6a1,1,0,0,1,.44-.77l.51-.29C379.92,304.4,380.12,304.51,380.12,304.8Z"/><path class="cls-13" d="M377.87,306.1v2.19a1,1,0,0,1-.45.77l-.5.29c-.25.15-.45,0-.45-.26V306.9a1,1,0,0,1,.45-.77l.5-.29C377.67,305.7,377.87,305.81,377.87,306.1Z"/><path class="cls-14" d="M375.61,307.4v2.19a1,1,0,0,1-.45.77l-.5.29c-.25.15-.45,0-.45-.25v-2.2a1,1,0,0,1,.45-.77l.5-.29C375.41,307,375.61,307.11,375.61,307.4Z"/><path class="cls-13" d="M373.35,308.7v2.19a1,1,0,0,1-.45.78l-.5.29c-.25.14-.45,0-.45-.26v-2.19a1,1,0,0,1,.45-.78l.5-.29C373.15,308.3,373.35,308.41,373.35,308.7Z"/><path class="cls-13" d="M371.09,310v2.19a1,1,0,0,1-.44.78l-.51.29c-.24.14-.44,0-.44-.26v-2.19a1,1,0,0,1,.44-.78l.51-.29C370.89,309.6,371.09,309.72,371.09,310Z"/><polygon class="cls-9" points="342.2 337.46 275.16 298.75 275.16 279.39 342.2 318.1 342.2 337.46"/><polygon class="cls-10" points="342.2 337.46 275.16 298.75 275.16 279.39 342.2 318.1 342.2 337.46"/><g class="cls-15"><path class="cls-6" d="M285.76,290.36l16.49,9.52a5,5,0,0,1,2.23,3.87v4.52c0,1.42-1,2-2.23,1.29L285.76,300a4.93,4.93,0,0,1-2.23-3.87v-4.52C283.53,290.23,284.53,289.65,285.76,290.36Z"/></g><path class="cls-9" d="M287.89,295.46l1-.59h0a1.35,1.35,0,0,1,1.36.14,4.26,4.26,0,0,1,2,3.36,1.35,1.35,0,0,1-.57,1.25h0l-1,.55-.17-.29a1.88,1.88,0,0,1-.55-.21,4.29,4.29,0,0,1-2-3.37,1.87,1.87,0,0,1,.07-.49Z"/><path class="cls-17" d="M287.89,295.46l1-.59h0a1.35,1.35,0,0,1,1.36.14,4.26,4.26,0,0,1,2,3.36,1.35,1.35,0,0,1-.57,1.25h0l-1,.55-.17-.29a1.88,1.88,0,0,1-.55-.21,4.29,4.29,0,0,1-2-3.37,1.87,1.87,0,0,1,.07-.49Z"/><path class="cls-10" d="M289.3,295.57a4.3,4.3,0,0,1,1.94,3.36c0,1.24-.87,1.74-1.94,1.12a4.27,4.27,0,0,1-1.94-3.36C287.36,295.45,288.23,295,289.3,295.57Z"/><path class="cls-9" d="M296.31,300.32l1-.59h0a1.35,1.35,0,0,1,1.36.14,4.29,4.29,0,0,1,1.94,3.36,1.38,1.38,0,0,1-.56,1.26h0l-.95.54-.17-.28a2.09,2.09,0,0,1-.56-.22,4.29,4.29,0,0,1-1.94-3.36,2.45,2.45,0,0,1,.06-.5Z"/><path class="cls-17" d="M296.31,300.32l1-.59h0a1.35,1.35,0,0,1,1.36.14,4.29,4.29,0,0,1,1.94,3.36,1.38,1.38,0,0,1-.56,1.26h0l-.95.54-.17-.28a2.09,2.09,0,0,1-.56-.22,4.29,4.29,0,0,1-1.94-3.36,2.45,2.45,0,0,1,.06-.5Z"/><path class="cls-10" d="M297.73,300.43a4.31,4.31,0,0,1,1.94,3.37c0,1.23-.87,1.74-1.94,1.12a4.28,4.28,0,0,1-1.94-3.36C295.79,300.32,296.65,299.82,297.73,300.43Z"/><polygon class="cls-14" points="400.86 308.42 400.86 303.59 342.2 337.46 342.2 342.29 400.86 308.42"/><polygon class="cls-9" points="279.35 301.17 279.35 306 342.2 342.29 342.2 337.46 279.35 301.17"/><polygon class="cls-18" points="279.35 301.17 279.35 306 342.2 342.29 342.2 337.46 279.35 301.17"/><path class="cls-9" d="M361.4,315.41l-1-.59h0A1.35,1.35,0,0,0,359,315a4.29,4.29,0,0,0-1.94,3.36,1.38,1.38,0,0,0,.56,1.26h0l.95.54.17-.28a2.09,2.09,0,0,0,.56-.22,4.3,4.3,0,0,0,1.94-3.36,2.45,2.45,0,0,0-.06-.5Z"/><path class="cls-17" d="M361.4,315.41l-1-.59h0A1.35,1.35,0,0,0,359,315a4.29,4.29,0,0,0-1.94,3.36,1.38,1.38,0,0,0,.56,1.26h0l.95.54.17-.28a2.09,2.09,0,0,0,.56-.22,4.3,4.3,0,0,0,1.94-3.36,2.45,2.45,0,0,0-.06-.5Z"/><path class="cls-9" d="M360,315.52a4.31,4.31,0,0,0-1.94,3.37c0,1.23.87,1.74,1.94,1.12a4.28,4.28,0,0,0,1.94-3.37C361.92,315.41,361.06,314.91,360,315.52Z"/><path class="cls-10" d="M360,315.52a4.31,4.31,0,0,0-1.94,3.37c0,1.23.87,1.74,1.94,1.12a4.28,4.28,0,0,0,1.94-3.37C361.92,315.41,361.06,314.91,360,315.52Z"/><path class="cls-9" d="M353,320.28l-1-.59h0a1.37,1.37,0,0,0-1.37.14,4.3,4.3,0,0,0-1.94,3.36,1.37,1.37,0,0,0,.57,1.26h0l.95.55.17-.29a1.71,1.71,0,0,0,.56-.22,4.29,4.29,0,0,0,1.94-3.36,2,2,0,0,0-.06-.5Z"/><path class="cls-17" d="M353,320.28l-1-.59h0a1.37,1.37,0,0,0-1.37.14,4.3,4.3,0,0,0-1.94,3.36,1.37,1.37,0,0,0,.57,1.26h0l.95.55.17-.29a1.71,1.71,0,0,0,.56-.22,4.29,4.29,0,0,0,1.94-3.36,2,2,0,0,0-.06-.5Z"/><path class="cls-9" d="M351.56,320.39a4.27,4.27,0,0,0-1.95,3.36c0,1.24.87,1.74,1.95,1.12a4.29,4.29,0,0,0,1.94-3.36C353.5,320.27,352.63,319.77,351.56,320.39Z"/><path class="cls-10" d="M351.56,320.39a4.27,4.27,0,0,0-1.95,3.36c0,1.24.87,1.74,1.95,1.12a4.29,4.29,0,0,0,1.94-3.36C353.5,320.27,352.63,319.77,351.56,320.39Z"/><polygon class="cls-9" points="409.24 250.36 342.2 289.07 275.16 250.36 342.2 211.66 409.24 250.36"/><polygon class="cls-10" points="409.24 250.36 342.2 289.07 275.16 250.36 342.2 211.66 409.24 250.36"/><polygon class="cls-11" points="342.2 289.07 342.2 284.23 279.35 247.94 275.16 250.36 342.2 289.07"/><polygon class="cls-9" points="409.24 269.72 342.2 308.43 342.2 289.07 409.24 250.36 409.24 269.72"/><polygon class="cls-12" points="409.24 269.72 342.2 308.43 342.2 289.07 409.24 250.36 409.24 269.72"/><path class="cls-10" d="M402.82,258.9l-33.25,19.19a4.93,4.93,0,0,0-2.23,3.87v4.52c0,1.42,1,2,2.23,1.29l33.25-19.2a4.93,4.93,0,0,0,2.23-3.86v-4.52C405.05,258.76,404.05,258.18,402.82,258.9Z"/><path class="cls-13" d="M402.7,262.72v2.2a1,1,0,0,1-.45.77l-.5.29c-.25.14-.45,0-.45-.26v-2.19a1,1,0,0,1,.45-.77l.5-.29C402.5,262.32,402.7,262.44,402.7,262.72Z"/><path class="cls-13" d="M400.44,264v2.2a1,1,0,0,1-.45.77l-.5.29c-.25.14-.45,0-.45-.26v-2.19a1,1,0,0,1,.45-.77l.5-.29C400.24,263.62,400.44,263.74,400.44,264Z"/><path class="cls-13" d="M398.18,265.33v2.19a1,1,0,0,1-.44.77l-.51.29c-.24.14-.44,0-.44-.26v-2.19a1,1,0,0,1,.44-.77l.51-.29C398,264.93,398.18,265,398.18,265.33Z"/><path class="cls-13" d="M395.92,266.63v2.19a1,1,0,0,1-.44.77l-.5.29c-.25.15-.45,0-.45-.25v-2.2a1,1,0,0,1,.45-.77l.5-.29C395.72,266.23,395.92,266.34,395.92,266.63Z"/><path class="cls-14" d="M393.67,267.93v2.19a1,1,0,0,1-.45.77l-.5.29c-.25.15-.45,0-.45-.25v-2.2a1,1,0,0,1,.45-.77l.5-.29C393.47,267.53,393.67,267.64,393.67,267.93Z"/><path class="cls-14" d="M391.41,269.23v2.19a1,1,0,0,1-.45.78l-.5.29c-.25.14-.45,0-.45-.26V270a1,1,0,0,1,.45-.78l.5-.29C391.21,268.83,391.41,269,391.41,269.23Z"/><path class="cls-13" d="M389.15,270.53v2.19a1,1,0,0,1-.44.78l-.51.29c-.24.14-.44,0-.44-.26v-2.19a1,1,0,0,1,.44-.78l.51-.29C389,270.13,389.15,270.25,389.15,270.53Z"/><path class="cls-13" d="M386.9,271.83V274a1,1,0,0,1-.44.77l-.5.29c-.25.14-.45,0-.45-.26v-2.19a1,1,0,0,1,.45-.77l.5-.29C386.7,271.43,386.9,271.55,386.9,271.83Z"/><path class="cls-13" d="M384.64,273.13v2.2a1,1,0,0,1-.45.77l-.5.29c-.25.14-.45,0-.45-.26v-2.19a1,1,0,0,1,.45-.77l.5-.29C384.44,272.73,384.64,272.85,384.64,273.13Z"/><path class="cls-14" d="M382.38,274.44v2.19a1,1,0,0,1-.45.77l-.5.29c-.25.14-.45,0-.45-.26v-2.19a1,1,0,0,1,.45-.77l.5-.29C382.18,274,382.38,274.15,382.38,274.44Z"/><path class="cls-13" d="M380.12,275.74v2.19a1,1,0,0,1-.44.77l-.51.29c-.24.15-.44,0-.44-.25v-2.2a1,1,0,0,1,.44-.77l.51-.29C379.92,275.34,380.12,275.45,380.12,275.74Z"/><path class="cls-13" d="M377.87,277v2.19a1,1,0,0,1-.45.77l-.5.29c-.25.15-.45,0-.45-.25v-2.2a1,1,0,0,1,.45-.77l.5-.29C377.67,276.64,377.87,276.75,377.87,277Z"/><path class="cls-14" d="M375.61,278.34v2.19a1,1,0,0,1-.45.78l-.5.29c-.25.14-.45,0-.45-.26v-2.19a1,1,0,0,1,.45-.78l.5-.29C375.41,277.94,375.61,278.05,375.61,278.34Z"/><path class="cls-13" d="M373.35,279.64v2.19a1,1,0,0,1-.45.78l-.5.29c-.25.14-.45,0-.45-.26v-2.19a1,1,0,0,1,.45-.78l.5-.29C373.15,279.24,373.35,279.36,373.35,279.64Z"/><path class="cls-14" d="M371.09,280.94v2.19a1,1,0,0,1-.44.78l-.51.29c-.24.14-.44,0-.44-.26v-2.19a1,1,0,0,1,.44-.78l.51-.29C370.89,280.54,371.09,280.66,371.09,280.94Z"/><polygon class="cls-9" points="342.2 308.43 275.16 269.72 275.16 250.36 342.2 289.07 342.2 308.43"/><polygon class="cls-10" points="342.2 308.43 275.16 269.72 275.16 250.36 342.2 289.07 342.2 308.43"/><g class="cls-15"><path class="cls-6" d="M285.76,261.33l16.49,9.52a4.93,4.93,0,0,1,2.23,3.87v4.51c0,1.43-1,2-2.23,1.29L285.76,271a5,5,0,0,1-2.23-3.87v-4.52C283.53,261.19,284.53,260.62,285.76,261.33Z"/></g><path class="cls-9" d="M287.89,266.43l1-.6h0a1.35,1.35,0,0,1,1.36.14,4.27,4.27,0,0,1,2,3.36,1.38,1.38,0,0,1-.57,1.26h0l-1,.55-.17-.29a1.92,1.92,0,0,1-.55-.22,4.27,4.27,0,0,1-2-3.36,2,2,0,0,1,.07-.5Z"/><path class="cls-17" d="M287.89,266.43l1-.6h0a1.35,1.35,0,0,1,1.36.14,4.27,4.27,0,0,1,2,3.36,1.38,1.38,0,0,1-.57,1.26h0l-1,.55-.17-.29a1.92,1.92,0,0,1-.55-.22,4.27,4.27,0,0,1-2-3.36,2,2,0,0,1,.07-.5Z"/><path class="cls-10" d="M289.3,266.54a4.29,4.29,0,0,1,1.94,3.36c0,1.24-.87,1.74-1.94,1.12a4.3,4.3,0,0,1-1.94-3.36C287.36,266.42,288.23,265.92,289.3,266.54Z"/><path class="cls-9" d="M296.31,271.29l1-.59h0a1.4,1.4,0,0,1,1.36.14,4.31,4.31,0,0,1,1.94,3.37,1.36,1.36,0,0,1-.56,1.25h0l-.95.55-.17-.29a1.8,1.8,0,0,1-.56-.22,4.27,4.27,0,0,1-1.94-3.36,2.43,2.43,0,0,1,.06-.49Z"/><path class="cls-17" d="M296.31,271.29l1-.59h0a1.4,1.4,0,0,1,1.36.14,4.31,4.31,0,0,1,1.94,3.37,1.36,1.36,0,0,1-.56,1.25h0l-.95.55-.17-.29a1.8,1.8,0,0,1-.56-.22,4.27,4.27,0,0,1-1.94-3.36,2.43,2.43,0,0,1,.06-.49Z"/><path class="cls-10" d="M297.73,271.4a4.29,4.29,0,0,1,1.94,3.36c0,1.24-.87,1.74-1.94,1.12a4.26,4.26,0,0,1-1.94-3.36C295.79,271.28,296.65,270.78,297.73,271.4Z"/><polygon class="cls-14" points="400.86 279.39 400.86 274.56 342.2 308.43 342.2 313.26 400.86 279.39"/><polygon class="cls-18" points="279.35 272.14 279.35 276.97 342.2 313.26 342.2 308.43 279.35 272.14"/><path class="cls-9" d="M361.4,286.38l-1-.59h0a1.35,1.35,0,0,0-1.36.14,4.29,4.29,0,0,0-1.94,3.36,1.38,1.38,0,0,0,.56,1.26h0l.95.54.17-.29a2,2,0,0,0,.56-.21,4.3,4.3,0,0,0,1.94-3.36,2.45,2.45,0,0,0-.06-.5Z"/><path class="cls-17" d="M361.4,286.38l-1-.59h0a1.35,1.35,0,0,0-1.36.14,4.29,4.29,0,0,0-1.94,3.36,1.38,1.38,0,0,0,.56,1.26h0l.95.54.17-.29a2,2,0,0,0,.56-.21,4.3,4.3,0,0,0,1.94-3.36,2.45,2.45,0,0,0-.06-.5Z"/><path class="cls-9" d="M360,286.49a4.31,4.31,0,0,0-1.94,3.37c0,1.23.87,1.74,1.94,1.12a4.28,4.28,0,0,0,1.94-3.37C361.92,286.38,361.06,285.87,360,286.49Z"/><path class="cls-10" d="M360,286.49a4.31,4.31,0,0,0-1.94,3.37c0,1.23.87,1.74,1.94,1.12a4.28,4.28,0,0,0,1.94-3.37C361.92,286.38,361.06,285.87,360,286.49Z"/><path class="cls-9" d="M353,291.25l-1-.59h0a1.37,1.37,0,0,0-1.37.14,4.3,4.3,0,0,0-1.94,3.36,1.37,1.37,0,0,0,.57,1.26h0l.95.55.17-.29a2,2,0,0,0,.56-.22,4.29,4.29,0,0,0,1.94-3.36,2,2,0,0,0-.06-.5Z"/><path class="cls-17" d="M353,291.25l-1-.59h0a1.37,1.37,0,0,0-1.37.14,4.3,4.3,0,0,0-1.94,3.36,1.37,1.37,0,0,0,.57,1.26h0l.95.55.17-.29a2,2,0,0,0,.56-.22,4.29,4.29,0,0,0,1.94-3.36,2,2,0,0,0-.06-.5Z"/><path class="cls-9" d="M351.56,291.36a4.27,4.27,0,0,0-1.95,3.36c0,1.24.87,1.74,1.95,1.12a4.29,4.29,0,0,0,1.94-3.36C353.5,291.24,352.63,290.74,351.56,291.36Z"/><path class="cls-10" d="M351.56,291.36a4.27,4.27,0,0,0-1.95,3.36c0,1.24.87,1.74,1.95,1.12a4.29,4.29,0,0,0,1.94-3.36C353.5,291.24,352.63,290.74,351.56,291.36Z"/><polygon class="cls-9" points="409.24 221.33 342.2 260.04 275.16 221.33 342.2 182.62 409.24 221.33"/><polygon class="cls-19" points="409.24 221.33 342.2 260.04 275.16 221.33 342.2 182.62 409.24 221.33"/><polygon class="cls-10" points="409.24 221.33 342.2 260.04 275.16 221.33 342.2 182.62 409.24 221.33"/><polygon class="cls-11" points="342.2 255.21 342.2 260.04 275.16 221.33 279.35 218.92 342.2 255.21"/><polygon class="cls-9" points="409.24 240.69 342.2 279.39 342.2 260.04 409.24 221.33 409.24 240.69"/><polygon class="cls-12" points="409.24 240.69 342.2 279.39 342.2 260.04 409.24 221.33 409.24 240.69"/><path class="cls-10" d="M402.82,229.89l-33.25,19.19a5,5,0,0,0-2.23,3.87v4.52c0,1.42,1,2,2.23,1.29l33.25-19.19a5,5,0,0,0,2.23-3.87v-4.52C405.05,229.75,404.05,229.18,402.82,229.89Z"/><path class="cls-13" d="M402.7,233.72v2.19a1,1,0,0,1-.45.77l-.5.29c-.25.14-.45,0-.45-.26v-2.19a1,1,0,0,1,.45-.77l.5-.29C402.5,233.31,402.7,233.43,402.7,233.72Z"/><path class="cls-14" d="M400.44,235v2.19a1,1,0,0,1-.45.77l-.5.29c-.25.14-.45,0-.45-.26v-2.19a1,1,0,0,1,.45-.77l.5-.29C400.24,234.62,400.44,234.73,400.44,235Z"/><path class="cls-13" d="M398.18,236.32v2.19a1,1,0,0,1-.44.77l-.51.29c-.24.15-.44,0-.44-.25v-2.2a1,1,0,0,1,.44-.77l.51-.29C398,235.92,398.18,236,398.18,236.32Z"/><path class="cls-13" d="M395.92,237.62v2.19a1,1,0,0,1-.44.78l-.5.29c-.25.14-.45,0-.45-.26v-2.19a1,1,0,0,1,.45-.78l.5-.29C395.72,237.22,395.92,237.33,395.92,237.62Z"/><path class="cls-13" d="M393.67,238.92v2.19a1,1,0,0,1-.45.78l-.5.29c-.25.14-.45,0-.45-.26v-2.19a1,1,0,0,1,.45-.78l.5-.29C393.47,238.52,393.67,238.64,393.67,238.92Z"/><path class="cls-14" d="M391.41,240.22v2.19a1,1,0,0,1-.45.78l-.5.29c-.25.14-.45,0-.45-.26V241a1,1,0,0,1,.45-.78l.5-.29C391.21,239.82,391.41,239.94,391.41,240.22Z"/><path class="cls-14" d="M389.15,241.52v2.2a1,1,0,0,1-.44.77l-.51.29c-.24.14-.44,0-.44-.26v-2.19a1,1,0,0,1,.44-.77l.51-.29C389,241.12,389.15,241.24,389.15,241.52Z"/><path class="cls-13" d="M386.9,242.82V245a1,1,0,0,1-.44.77l-.5.29c-.25.14-.45,0-.45-.26v-2.19a1,1,0,0,1,.45-.77l.5-.29C386.7,242.42,386.9,242.54,386.9,242.82Z"/><path class="cls-14" d="M384.64,244.13v2.19a1,1,0,0,1-.45.77l-.5.29c-.25.14-.45,0-.45-.26v-2.19a1,1,0,0,1,.45-.77l.5-.29C384.44,243.73,384.64,243.84,384.64,244.13Z"/><path class="cls-13" d="M382.38,245.43v2.19a1,1,0,0,1-.45.77l-.5.29c-.25.15-.45,0-.45-.25v-2.2a1,1,0,0,1,.45-.77l.5-.29C382.18,245,382.38,245.14,382.38,245.43Z"/><path class="cls-13" d="M380.12,246.73v2.19a1,1,0,0,1-.44.77l-.51.29c-.24.15-.44,0-.44-.25v-2.2a1,1,0,0,1,.44-.77l.51-.29C379.92,246.33,380.12,246.44,380.12,246.73Z"/><path class="cls-13" d="M377.87,248v2.19a1,1,0,0,1-.45.78l-.5.29c-.25.14-.45,0-.45-.26v-2.19a1,1,0,0,1,.45-.78l.5-.29C377.67,247.63,377.87,247.75,377.87,248Z"/><path class="cls-14" d="M375.61,249.33v2.19a1,1,0,0,1-.45.78l-.5.29c-.25.14-.45,0-.45-.26v-2.19a1,1,0,0,1,.45-.78l.5-.29C375.41,248.93,375.61,249.05,375.61,249.33Z"/><path class="cls-13" d="M373.35,250.63v2.19a1,1,0,0,1-.45.78l-.5.29c-.25.14-.45,0-.45-.26v-2.19a1,1,0,0,1,.45-.78l.5-.29C373.15,250.23,373.35,250.35,373.35,250.63Z"/><path class="cls-13" d="M371.09,251.93v2.2a1,1,0,0,1-.44.77l-.51.29c-.24.14-.44,0-.44-.26v-2.19a1,1,0,0,1,.44-.77l.51-.29C370.89,251.53,371.09,251.65,371.09,251.93Z"/><polygon class="cls-9" points="342.2 279.39 275.16 240.69 275.16 221.33 342.2 260.04 342.2 279.39"/><polygon class="cls-10" points="342.2 279.39 275.16 240.69 275.16 221.33 342.2 260.04 342.2 279.39"/><g class="cls-15"><path class="cls-6" d="M285.76,232.33l16.49,9.52a4.93,4.93,0,0,1,2.23,3.87v4.52c0,1.42-1,2-2.23,1.29L285.76,242a5,5,0,0,1-2.23-3.87v-4.52C283.53,232.2,284.53,231.62,285.76,232.33Z"/></g><path class="cls-9" d="M287.89,237.43l1-.59h0a1.35,1.35,0,0,1,1.36.14,4.29,4.29,0,0,1,2,3.36,1.37,1.37,0,0,1-.57,1.26h0l-1,.55-.17-.29a1.67,1.67,0,0,1-.55-.22,4.27,4.27,0,0,1-2-3.36,2,2,0,0,1,.07-.5Z"/><path class="cls-17" d="M287.89,237.43l1-.59h0a1.35,1.35,0,0,1,1.36.14,4.29,4.29,0,0,1,2,3.36,1.37,1.37,0,0,1-.57,1.26h0l-1,.55-.17-.29a1.67,1.67,0,0,1-.55-.22,4.27,4.27,0,0,1-2-3.36,2,2,0,0,1,.07-.5Z"/><path class="cls-20" d="M289.3,237.54a4.29,4.29,0,0,1,1.94,3.36c0,1.24-.87,1.74-1.94,1.12a4.29,4.29,0,0,1-1.94-3.36C287.36,237.42,288.23,236.92,289.3,237.54Z"/><path class="cls-9" d="M296.31,242.29l1-.59h0a1.35,1.35,0,0,1,1.36.14,4.27,4.27,0,0,1,1.94,3.36,1.35,1.35,0,0,1-.56,1.25h0l-.95.55-.17-.29a2,2,0,0,1-.56-.21,4.31,4.31,0,0,1-1.94-3.37,2.43,2.43,0,0,1,.06-.49Z"/><path class="cls-17" d="M296.31,242.29l1-.59h0a1.35,1.35,0,0,1,1.36.14,4.27,4.27,0,0,1,1.94,3.36,1.35,1.35,0,0,1-.56,1.25h0l-.95.55-.17-.29a2,2,0,0,1-.56-.21,4.31,4.31,0,0,1-1.94-3.37,2.43,2.43,0,0,1,.06-.49Z"/><path class="cls-10" d="M297.73,242.4a4.3,4.3,0,0,1,1.94,3.36c0,1.24-.87,1.74-1.94,1.12a4.25,4.25,0,0,1-1.94-3.36C295.79,242.28,296.65,241.78,297.73,242.4Z"/><polygon class="cls-14" points="400.86 250.36 400.86 245.52 342.2 279.39 342.2 284.23 400.86 250.36"/><polygon class="cls-18" points="279.35 243.1 279.35 247.94 342.2 284.23 342.2 279.39 279.35 243.1"/><path class="cls-9" d="M361.4,257.35l-1-.59h0a1.35,1.35,0,0,0-1.36.14,4.29,4.29,0,0,0-1.94,3.36,1.35,1.35,0,0,0,.56,1.25h0l.95.54.17-.29a2,2,0,0,0,.56-.21,4.3,4.3,0,0,0,1.94-3.36,2.45,2.45,0,0,0-.06-.5Z"/><path class="cls-17" d="M361.4,257.35l-1-.59h0a1.35,1.35,0,0,0-1.36.14,4.29,4.29,0,0,0-1.94,3.36,1.35,1.35,0,0,0,.56,1.25h0l.95.54.17-.29a2,2,0,0,0,.56-.21,4.3,4.3,0,0,0,1.94-3.36,2.45,2.45,0,0,0-.06-.5Z"/><path class="cls-9" d="M360,257.46a4.3,4.3,0,0,0-1.94,3.36c0,1.24.87,1.74,1.94,1.13a4.28,4.28,0,0,0,1.94-3.37C361.92,257.35,361.06,256.84,360,257.46Z"/><path class="cls-10" d="M360,257.46a4.3,4.3,0,0,0-1.94,3.36c0,1.24.87,1.74,1.94,1.13a4.28,4.28,0,0,0,1.94-3.37C361.92,257.35,361.06,256.84,360,257.46Z"/><path class="cls-9" d="M353,262.22l-1-.6h0a1.37,1.37,0,0,0-1.37.14,4.29,4.29,0,0,0-1.94,3.36,1.38,1.38,0,0,0,.57,1.26h0l.95.54.17-.28a2,2,0,0,0,.56-.22,4.29,4.29,0,0,0,1.94-3.36,1.9,1.9,0,0,0-.06-.5Z"/><path class="cls-17" d="M353,262.22l-1-.6h0a1.37,1.37,0,0,0-1.37.14,4.29,4.29,0,0,0-1.94,3.36,1.38,1.38,0,0,0,.57,1.26h0l.95.54.17-.28a2,2,0,0,0,.56-.22,4.29,4.29,0,0,0,1.94-3.36,1.9,1.9,0,0,0-.06-.5Z"/><path class="cls-9" d="M351.56,262.33a4.26,4.26,0,0,0-1.95,3.36c0,1.24.87,1.74,1.95,1.12a4.3,4.3,0,0,0,1.94-3.36C353.5,262.21,352.63,261.71,351.56,262.33Z"/><path class="cls-10" d="M351.56,262.33a4.26,4.26,0,0,0-1.95,3.36c0,1.24.87,1.74,1.95,1.12a4.3,4.3,0,0,0,1.94-3.36C353.5,262.21,352.63,261.71,351.56,262.33Z"/><path class="cls-9" d="M277.83,190.76l61.73-35.61a6,6,0,0,1,5.36,0l61.65,35.61a6,6,0,0,1,2.68,4.64v16.26l-67.09,38.71h0l-67-38.71V195.4A6,6,0,0,1,277.83,190.76Z"/><path class="cls-10" d="M277.83,190.76l61.73-35.61a6,6,0,0,1,5.36,0l61.65,35.61a6,6,0,0,1,2.68,4.64v16.26l-67.09,38.71h0l-67-38.71V195.4A6,6,0,0,1,277.83,190.76Z"/><g class="cls-15"><path class="cls-6" d="M285.76,203.28l16.49,9.51a5,5,0,0,1,2.23,3.87v4.52c0,1.42-1,2-2.23,1.29L285.76,213a4.93,4.93,0,0,1-2.23-3.87v-4.52C283.53,203.14,284.53,202.56,285.76,203.28Z"/></g><path class="cls-9" d="M287.89,208.37l1-.59h0a1.35,1.35,0,0,1,1.36.14,4.27,4.27,0,0,1,2,3.36,1.35,1.35,0,0,1-.57,1.25h0l-1,.54-.17-.29a1.88,1.88,0,0,1-.55-.21,4.29,4.29,0,0,1-2-3.37,1.87,1.87,0,0,1,.07-.49Z"/><path class="cls-17" d="M287.89,208.37l1-.59h0a1.35,1.35,0,0,1,1.36.14,4.27,4.27,0,0,1,2,3.36,1.35,1.35,0,0,1-.57,1.25h0l-1,.54-.17-.29a1.88,1.88,0,0,1-.55-.21,4.29,4.29,0,0,1-2-3.37,1.87,1.87,0,0,1,.07-.49Z"/><path class="cls-20" d="M289.3,208.48a4.3,4.3,0,0,1,1.94,3.36c0,1.24-.87,1.74-1.94,1.13a4.31,4.31,0,0,1-1.94-3.37C287.36,208.36,288.23,207.86,289.3,208.48Z"/><path class="cls-9" d="M296.31,213.23l1-.59h0a1.35,1.35,0,0,1,1.36.14,4.29,4.29,0,0,1,1.94,3.36,1.38,1.38,0,0,1-.56,1.26h0l-.95.54-.17-.28a2.09,2.09,0,0,1-.56-.22,4.29,4.29,0,0,1-1.94-3.36,2.45,2.45,0,0,1,.06-.5Z"/><path class="cls-17" d="M296.31,213.23l1-.59h0a1.35,1.35,0,0,1,1.36.14,4.29,4.29,0,0,1,1.94,3.36,1.38,1.38,0,0,1-.56,1.26h0l-.95.54-.17-.28a2.09,2.09,0,0,1-.56-.22,4.29,4.29,0,0,1-1.94-3.36,2.45,2.45,0,0,1,.06-.5Z"/><path class="cls-10" d="M297.73,213.35a4.27,4.27,0,0,1,1.94,3.36c0,1.24-.87,1.74-1.94,1.12a4.28,4.28,0,0,1-1.94-3.36C295.79,213.23,296.65,212.73,297.73,213.35Z"/><path class="cls-9" d="M342.16,230.11v20.26l67.08-38.71V195.4a6,6,0,0,0-2.19-4.3c1,.86.81,2-.49,2.76l-61.72,35.61A5.56,5.56,0,0,1,342.16,230.11Z"/><path class="cls-12" d="M342.16,230.11v20.26l67.08-38.71V195.4a6,6,0,0,0-2.19-4.3c1,.86.81,2-.49,2.76l-61.72,35.61A5.56,5.56,0,0,1,342.16,230.11Z"/><path class="cls-10" d="M402.82,200.85l-33.25,19.2a4.93,4.93,0,0,0-2.23,3.87v4.52c0,1.42,1,2,2.23,1.29l33.25-19.2a4.93,4.93,0,0,0,2.23-3.87v-4.52C405.05,200.72,404.05,200.14,402.82,200.85Z"/><path class="cls-14" d="M402.7,204.68v2.19a1,1,0,0,1-.45.78l-.5.29c-.25.14-.45,0-.45-.26v-2.19a1,1,0,0,1,.45-.78l.5-.29C402.5,204.28,402.7,204.4,402.7,204.68Z"/><path class="cls-13" d="M400.44,206v2.2a1,1,0,0,1-.45.77l-.5.29c-.25.14-.45,0-.45-.26v-2.19a1,1,0,0,1,.45-.77l.5-.29C400.24,205.58,400.44,205.7,400.44,206Z"/><path class="cls-14" d="M398.18,207.28v2.2a1,1,0,0,1-.44.77l-.51.29c-.24.14-.44,0-.44-.26v-2.19a1,1,0,0,1,.44-.77l.51-.29C398,206.88,398.18,207,398.18,207.28Z"/><path class="cls-14" d="M395.92,208.59v2.19a1,1,0,0,1-.44.77l-.5.29c-.25.14-.45,0-.45-.26v-2.19a1,1,0,0,1,.45-.77l.5-.29C395.72,208.19,395.92,208.3,395.92,208.59Z"/><path class="cls-14" d="M393.67,209.89v2.19a1,1,0,0,1-.45.77l-.5.29c-.25.15-.45,0-.45-.25v-2.2a1,1,0,0,1,.45-.77l.5-.29C393.47,209.49,393.67,209.6,393.67,209.89Z"/><path class="cls-13" d="M391.41,211.19v2.19a1,1,0,0,1-.45.77l-.5.29c-.25.15-.45,0-.45-.25V212a1,1,0,0,1,.45-.77l.5-.29C391.21,210.79,391.41,210.9,391.41,211.19Z"/><path class="cls-13" d="M389.15,212.49v2.19a1,1,0,0,1-.44.78l-.51.29c-.24.14-.44,0-.44-.26V213.3a1,1,0,0,1,.44-.78l.51-.29C389,212.09,389.15,212.21,389.15,212.49Z"/><path class="cls-14" d="M386.9,213.79V216a1,1,0,0,1-.44.78l-.5.29c-.25.14-.45,0-.45-.26V214.6a1,1,0,0,1,.45-.78l.5-.29C386.7,213.39,386.9,213.51,386.9,213.79Z"/><path class="cls-13" d="M384.64,215.09v2.19a1,1,0,0,1-.45.78l-.5.29c-.25.14-.45,0-.45-.26V215.9a1,1,0,0,1,.45-.78l.5-.29C384.44,214.69,384.64,214.81,384.64,215.09Z"/><path class="cls-14" d="M382.38,216.39v2.2a1,1,0,0,1-.45.77l-.5.29c-.25.14-.45,0-.45-.26V217.2a1,1,0,0,1,.45-.77l.5-.29C382.18,216,382.38,216.11,382.38,216.39Z"/><path class="cls-14" d="M380.12,217.7v2.19a1,1,0,0,1-.44.77l-.51.29c-.24.14-.44,0-.44-.26V218.5a1,1,0,0,1,.44-.77l.51-.29C379.92,217.3,380.12,217.41,380.12,217.7Z"/><path class="cls-14" d="M377.87,219v2.19a1,1,0,0,1-.45.77l-.5.29c-.25.15-.45,0-.45-.26V219.8a1,1,0,0,1,.45-.77l.5-.29C377.67,218.6,377.87,218.71,377.87,219Z"/><path class="cls-13" d="M375.61,220.3v2.19a1,1,0,0,1-.45.77l-.5.29c-.25.15-.45,0-.45-.25v-2.2a1,1,0,0,1,.45-.77l.5-.29C375.41,219.9,375.61,220,375.61,220.3Z"/><path class="cls-14" d="M373.35,221.6v2.19a1,1,0,0,1-.45.78l-.5.29c-.25.14-.45,0-.45-.26v-2.19a1,1,0,0,1,.45-.78l.5-.29C373.15,221.2,373.35,221.31,373.35,221.6Z"/><path class="cls-14" d="M371.09,222.9v2.19a1,1,0,0,1-.44.78l-.51.29c-.24.14-.44,0-.44-.26v-2.19a1,1,0,0,1,.44-.78l.51-.29C370.89,222.5,371.09,222.62,371.09,222.9Z"/><path class="cls-9" d="M406.57,193.86l-61.73,35.61a6,6,0,0,1-5.36,0l-61.65-35.61c-1.48-.86-1.48-2.24,0-3.1l61.73-35.61a5.89,5.89,0,0,1,5.36,0l61.65,35.61C408.05,191.62,408.05,193,406.57,193.86Z"/><path class="cls-21" d="M406.57,193.86l-61.73,35.61a6,6,0,0,1-5.36,0l-61.65-35.61c-1.48-.86-1.48-2.24,0-3.1l61.73-35.61a5.89,5.89,0,0,1,5.36,0l61.65,35.61C408.05,191.62,408.05,193,406.57,193.86Z"/><polygon class="cls-14" points="400.86 221.34 400.86 216.5 342.2 250.37 342.2 255.21 400.86 221.34"/><polygon class="cls-18" points="279.35 214.08 279.35 218.92 342.2 255.21 342.2 250.37 279.35 214.08"/><path class="cls-9" d="M361.4,228.33l-1-.59h0a1.4,1.4,0,0,0-1.36.14,4.31,4.31,0,0,0-1.94,3.37,1.36,1.36,0,0,0,.56,1.25h0l.95.55.17-.29a1.8,1.8,0,0,0,.56-.22,4.27,4.27,0,0,0,1.94-3.36,2.43,2.43,0,0,0-.06-.49Z"/><path class="cls-17" d="M361.4,228.33l-1-.59h0a1.4,1.4,0,0,0-1.36.14,4.31,4.31,0,0,0-1.94,3.37,1.36,1.36,0,0,0,.56,1.25h0l.95.55.17-.29a1.8,1.8,0,0,0,.56-.22,4.27,4.27,0,0,0,1.94-3.36,2.43,2.43,0,0,0-.06-.49Z"/><path class="cls-9" d="M360,228.44A4.29,4.29,0,0,0,358,231.8c0,1.24.87,1.74,1.94,1.12a4.26,4.26,0,0,0,1.94-3.36C361.92,228.32,361.06,227.82,360,228.44Z"/><path class="cls-10" d="M360,228.44A4.29,4.29,0,0,0,358,231.8c0,1.24.87,1.74,1.94,1.12a4.26,4.26,0,0,0,1.94-3.36C361.92,228.32,361.06,227.82,360,228.44Z"/><path class="cls-9" d="M353,233.19l-1-.59h0a1.37,1.37,0,0,0-1.37.14,4.29,4.29,0,0,0-1.94,3.36,1.35,1.35,0,0,0,.57,1.25h0l.95.54.17-.29a1.93,1.93,0,0,0,.56-.21,4.3,4.3,0,0,0,1.94-3.36,1.9,1.9,0,0,0-.06-.5Z"/><path class="cls-17" d="M353,233.19l-1-.59h0a1.37,1.37,0,0,0-1.37.14,4.29,4.29,0,0,0-1.94,3.36,1.35,1.35,0,0,0,.57,1.25h0l.95.54.17-.29a1.93,1.93,0,0,0,.56-.21,4.3,4.3,0,0,0,1.94-3.36,1.9,1.9,0,0,0-.06-.5Z"/><path class="cls-9" d="M351.56,233.3a4.29,4.29,0,0,0-1.95,3.37c0,1.23.87,1.74,1.95,1.12a4.31,4.31,0,0,0,1.94-3.37C353.5,233.19,352.63,232.68,351.56,233.3Z"/><path class="cls-10" d="M351.56,233.3a4.29,4.29,0,0,0-1.95,3.37c0,1.23.87,1.74,1.95,1.12a4.31,4.31,0,0,0,1.94-3.37C353.5,233.19,352.63,232.68,351.56,233.3Z"/></g><g id="Server-2" data-name="Server"><polygon class="cls-9" points="270.94 308.24 226.25 334.05 181.55 308.24 226.25 282.44 270.94 308.24"/><polygon class="cls-10" points="270.94 308.24 226.25 334.05 181.55 308.24 226.25 282.44 270.94 308.24"/><polygon class="cls-11" points="226.25 334.05 226.25 330.82 184.34 306.63 181.55 308.24 226.25 334.05"/><polygon class="cls-9" points="270.94 321.14 226.25 346.95 226.25 334.05 270.94 308.24 270.94 321.14"/><polygon class="cls-12" points="270.94 321.14 226.25 346.95 226.25 334.05 270.94 308.24 270.94 321.14"/><path class="cls-10" d="M266.66,313.93l-22.17,12.8a3.29,3.29,0,0,0-1.49,2.58v3c0,.95.67,1.33,1.49.86l22.17-12.8a3.29,3.29,0,0,0,1.49-2.58v-3C268.15,313.84,267.48,313.46,266.66,313.93Z"/><path class="cls-13" d="M266.57,316.48v1.46a.66.66,0,0,1-.29.52l-.34.19c-.16.1-.3,0-.3-.17V317a.69.69,0,0,1,.3-.52l.34-.19C266.44,316.22,266.57,316.29,266.57,316.48Z"/><path class="cls-13" d="M265.07,317.35v1.46a.66.66,0,0,1-.3.52l-.33.19c-.17.1-.3,0-.3-.17v-1.46a.66.66,0,0,1,.3-.52l.33-.19C264.94,317.08,265.07,317.16,265.07,317.35Z"/><path class="cls-13" d="M263.56,318.22v1.46a.68.68,0,0,1-.29.52l-.34.19c-.16.09-.3,0-.3-.17v-1.46a.67.67,0,0,1,.3-.52l.34-.19C263.43,318,263.56,318,263.56,318.22Z"/><path class="cls-13" d="M262.06,319.09v1.46a.63.63,0,0,1-.3.51l-.33.2c-.17.09-.3,0-.3-.18v-1.46a.63.63,0,0,1,.3-.51l.33-.2C261.93,318.82,262.06,318.9,262.06,319.09Z"/><path class="cls-14" d="M260.56,320v1.46a.67.67,0,0,1-.3.52l-.34.19c-.16.1-.3,0-.3-.17v-1.46a.69.69,0,0,1,.3-.52l.34-.19C260.42,319.69,260.56,319.76,260.56,320Z"/><path class="cls-14" d="M259.05,320.82v1.46a.66.66,0,0,1-.3.52l-.33.19c-.17.1-.3,0-.3-.17v-1.46a.66.66,0,0,1,.3-.52l.33-.19C258.92,320.55,259.05,320.63,259.05,320.82Z"/><path class="cls-13" d="M257.55,321.69v1.46a.69.69,0,0,1-.3.52l-.34.19c-.16.09-.3,0-.3-.17v-1.46a.67.67,0,0,1,.3-.52l.34-.19C257.41,321.42,257.55,321.5,257.55,321.69Z"/><path class="cls-13" d="M256,322.56V324a.63.63,0,0,1-.3.51l-.33.2c-.17.09-.3,0-.3-.18v-1.46a.63.63,0,0,1,.3-.51l.33-.2C255.91,322.29,256,322.37,256,322.56Z"/><path class="cls-13" d="M254.54,323.42v1.46a.67.67,0,0,1-.3.52l-.34.19c-.16.1-.3,0-.3-.17V324a.69.69,0,0,1,.3-.52l.34-.19C254.4,323.16,254.54,323.23,254.54,323.42Z"/><path class="cls-14" d="M253,324.29v1.46a.66.66,0,0,1-.3.52l-.33.19c-.17.1-.3,0-.3-.17v-1.46a.66.66,0,0,1,.3-.52l.33-.19C252.9,324,253,324.1,253,324.29Z"/><path class="cls-13" d="M251.53,325.16v1.46a.69.69,0,0,1-.3.52l-.34.19c-.16.09-.29,0-.29-.17V325.7a.66.66,0,0,1,.29-.52l.34-.19C251.39,324.89,251.53,325,251.53,325.16Z"/><path class="cls-13" d="M250,326v1.46a.63.63,0,0,1-.3.51l-.33.2c-.17.09-.3,0-.3-.18v-1.46a.63.63,0,0,1,.3-.51l.33-.2C249.89,325.76,250,325.84,250,326Z"/><path class="cls-14" d="M248.52,326.89v1.46a.67.67,0,0,1-.3.52l-.34.19c-.16.1-.29,0-.29-.17v-1.46a.68.68,0,0,1,.29-.52l.34-.19C248.38,326.63,248.52,326.7,248.52,326.89Z"/><path class="cls-13" d="M247,327.76v1.46a.66.66,0,0,1-.3.52l-.33.19c-.17.1-.3,0-.3-.17V328.3a.66.66,0,0,1,.3-.52l.33-.19C246.88,327.49,247,327.57,247,327.76Z"/><path class="cls-14" d="M245.51,328.63v1.46a.69.69,0,0,1-.3.52l-.34.19c-.16.09-.29,0-.29-.17v-1.46a.66.66,0,0,1,.29-.52l.34-.19C245.37,328.36,245.51,328.44,245.51,328.63Z"/><polygon class="cls-9" points="226.25 346.95 181.55 321.14 181.55 308.24 226.25 334.05 226.25 346.95"/><polygon class="cls-10" points="226.25 346.95 181.55 321.14 181.55 308.24 226.25 334.05 226.25 346.95"/><g class="cls-15"><path class="cls-6" d="M188.62,315.55l11,6.35a3.29,3.29,0,0,1,1.49,2.58v3c0,.95-.67,1.33-1.49.86l-11-6.35a3.27,3.27,0,0,1-1.49-2.57v-3C187.13,315.46,187.8,315.08,188.62,315.55Z"/></g><path class="cls-9" d="M190,319l.68-.39h0a.91.91,0,0,1,.91.1,2.85,2.85,0,0,1,1.29,2.24.91.91,0,0,1-.38.84h0l-.63.36-.12-.19a1.25,1.25,0,0,1-.37-.15,2.85,2.85,0,0,1-1.29-2.24,1.15,1.15,0,0,1,0-.33Z"/><path class="cls-17" d="M190,319l.68-.39h0a.91.91,0,0,1,.91.1,2.85,2.85,0,0,1,1.29,2.24.91.91,0,0,1-.38.84h0l-.63.36-.12-.19a1.25,1.25,0,0,1-.37-.15,2.85,2.85,0,0,1-1.29-2.24,1.15,1.15,0,0,1,0-.33Z"/><path class="cls-10" d="M191,319a2.89,2.89,0,0,1,1.29,2.25c0,.82-.58,1.16-1.29.74a2.83,2.83,0,0,1-1.29-2.24C189.69,319,190.26,318.61,191,319Z"/><path class="cls-9" d="M195.66,322.19l.68-.39h0a.88.88,0,0,1,.91.09,2.85,2.85,0,0,1,1.3,2.24.93.93,0,0,1-.38.84h0l-.64.36-.11-.19a1.54,1.54,0,0,1-.37-.14,2.87,2.87,0,0,1-1.3-2.24,1.67,1.67,0,0,1,0-.34Z"/><path class="cls-17" d="M195.66,322.19l.68-.39h0a.88.88,0,0,1,.91.09,2.85,2.85,0,0,1,1.3,2.24.93.93,0,0,1-.38.84h0l-.64.36-.11-.19a1.54,1.54,0,0,1-.37-.14,2.87,2.87,0,0,1-1.3-2.24,1.67,1.67,0,0,1,0-.34Z"/><path class="cls-10" d="M196.6,322.27a2.85,2.85,0,0,1,1.29,2.24c0,.82-.58,1.16-1.29.75a2.87,2.87,0,0,1-1.3-2.25C195.3,322.19,195.88,321.85,196.6,322.27Z"/><polygon class="cls-14" points="265.35 327.6 265.35 324.37 226.25 346.95 226.25 350.18 265.35 327.6"/><polygon class="cls-18" points="184.34 322.76 184.34 325.98 226.25 350.18 226.25 346.95 184.34 322.76"/><path class="cls-9" d="M239,332.26l-.68-.4h0a.93.93,0,0,0-.91.09,2.87,2.87,0,0,0-1.29,2.24.91.91,0,0,0,.38.84h0l.63.36.12-.19a1.21,1.21,0,0,0,.37-.14,2.87,2.87,0,0,0,1.29-2.24,1.11,1.11,0,0,0,0-.33Z"/><path class="cls-17" d="M239,332.26l-.68-.4h0a.93.93,0,0,0-.91.09,2.87,2.87,0,0,0-1.29,2.24.91.91,0,0,0,.38.84h0l.63.36.12-.19a1.21,1.21,0,0,0,.37-.14,2.87,2.87,0,0,0,1.29-2.24,1.11,1.11,0,0,0,0-.33Z"/><path class="cls-9" d="M238.1,332.33a2.85,2.85,0,0,0-1.29,2.24c0,.83.57,1.16,1.29.75a2.89,2.89,0,0,0,1.29-2.24C239.39,332.25,238.81,331.92,238.1,332.33Z"/><path class="cls-10" d="M238.1,332.33a2.85,2.85,0,0,0-1.29,2.24c0,.83.57,1.16,1.29.75a2.89,2.89,0,0,0,1.29-2.24C239.39,332.25,238.81,331.92,238.1,332.33Z"/><path class="cls-9" d="M233.42,335.5l-.68-.4h0a.93.93,0,0,0-.91.09,2.87,2.87,0,0,0-1.3,2.25.9.9,0,0,0,.38.83h0l.64.37.11-.19a1.25,1.25,0,0,0,.37-.15,2.85,2.85,0,0,0,1.3-2.24,1.66,1.66,0,0,0,0-.33Z"/><path class="cls-17" d="M233.42,335.5l-.68-.4h0a.93.93,0,0,0-.91.09,2.87,2.87,0,0,0-1.3,2.25.9.9,0,0,0,.38.83h0l.64.37.11-.19a1.25,1.25,0,0,0,.37-.15,2.85,2.85,0,0,0,1.3-2.24,1.66,1.66,0,0,0,0-.33Z"/><path class="cls-9" d="M232.48,335.57a2.87,2.87,0,0,0-1.29,2.24c0,.83.58,1.16,1.29.75a2.85,2.85,0,0,0,1.3-2.24C233.78,335.49,233.2,335.16,232.48,335.57Z"/><path class="cls-10" d="M232.48,335.57a2.87,2.87,0,0,0-1.29,2.24c0,.83.58,1.16,1.29.75a2.85,2.85,0,0,0,1.3-2.24C233.78,335.49,233.2,335.16,232.48,335.57Z"/><polygon class="cls-9" points="270.94 288.89 226.25 314.69 181.55 288.89 226.25 263.08 270.94 288.89"/><polygon class="cls-19" points="270.94 288.89 226.25 314.69 181.55 288.89 226.25 263.08 270.94 288.89"/><polygon class="cls-10" points="270.94 288.89 226.25 314.69 181.55 288.89 226.25 263.08 270.94 288.89"/><polygon class="cls-11" points="226.25 311.47 226.25 314.69 181.55 288.89 184.34 287.28 226.25 311.47"/><polygon class="cls-9" points="270.94 301.79 226.25 327.6 226.25 314.69 270.94 288.89 270.94 301.79"/><polygon class="cls-12" points="270.94 301.79 226.25 327.6 226.25 314.69 270.94 288.89 270.94 301.79"/><path class="cls-10" d="M266.66,294.59l-22.17,12.8A3.29,3.29,0,0,0,243,310v3c0,.95.67,1.33,1.49.86L266.66,301a3.27,3.27,0,0,0,1.49-2.57v-3C268.15,294.5,267.48,294.12,266.66,294.59Z"/><path class="cls-13" d="M266.57,297.14v1.47a.64.64,0,0,1-.29.51l-.34.2a.19.19,0,0,1-.3-.18v-1.46a.65.65,0,0,1,.3-.51l.34-.2C266.44,296.88,266.57,297,266.57,297.14Z"/><path class="cls-14" d="M265.07,298v1.46a.66.66,0,0,1-.3.52l-.33.19c-.17.1-.3,0-.3-.17v-1.46a.66.66,0,0,1,.3-.52l.33-.19C264.94,297.75,265.07,297.82,265.07,298Z"/><path class="cls-13" d="M263.56,298.88v1.46a.68.68,0,0,1-.29.52l-.34.19c-.16.1-.3,0-.3-.17v-1.46a.69.69,0,0,1,.3-.52l.34-.19C263.43,298.61,263.56,298.69,263.56,298.88Z"/><path class="cls-13" d="M262.06,299.75v1.46a.63.63,0,0,1-.3.51l-.33.2c-.17.09-.3,0-.3-.17v-1.47a.63.63,0,0,1,.3-.51l.33-.19C261.93,299.48,262.06,299.56,262.06,299.75Z"/><path class="cls-13" d="M260.56,300.61v1.47a.65.65,0,0,1-.3.51l-.34.2a.19.19,0,0,1-.3-.18v-1.46a.65.65,0,0,1,.3-.51l.34-.2C260.42,300.35,260.56,300.42,260.56,300.61Z"/><path class="cls-14" d="M259.05,301.48v1.46a.66.66,0,0,1-.3.52l-.33.19c-.17.1-.3,0-.3-.17V302a.66.66,0,0,1,.3-.52l.33-.19C258.92,301.22,259.05,301.29,259.05,301.48Z"/><path class="cls-14" d="M257.55,302.35v1.46a.69.69,0,0,1-.3.52l-.34.19c-.16.1-.3,0-.3-.17v-1.46a.69.69,0,0,1,.3-.52l.34-.19C257.41,302.08,257.55,302.16,257.55,302.35Z"/><path class="cls-13" d="M256,303.22v1.46a.63.63,0,0,1-.3.51l-.33.2c-.17.09-.3,0-.3-.17v-1.47a.63.63,0,0,1,.3-.51l.33-.19C255.91,303,256,303,256,303.22Z"/><path class="cls-14" d="M254.54,304.08v1.47a.65.65,0,0,1-.3.51l-.34.2a.19.19,0,0,1-.3-.18v-1.46a.65.65,0,0,1,.3-.51l.34-.2A.19.19,0,0,1,254.54,304.08Z"/><path class="cls-13" d="M253,305v1.46a.66.66,0,0,1-.3.52l-.33.19c-.17.1-.3,0-.3-.17v-1.46a.66.66,0,0,1,.3-.52l.33-.19C252.9,304.69,253,304.76,253,305Z"/><path class="cls-13" d="M251.53,305.82v1.46a.69.69,0,0,1-.3.52l-.34.19c-.16.1-.29,0-.29-.17v-1.46a.68.68,0,0,1,.29-.52l.34-.19C251.39,305.55,251.53,305.63,251.53,305.82Z"/><path class="cls-13" d="M250,306.69v1.46a.63.63,0,0,1-.3.51l-.33.2c-.17.09-.3,0-.3-.17v-1.47a.63.63,0,0,1,.3-.51l.33-.19C249.89,306.42,250,306.5,250,306.69Z"/><path class="cls-14" d="M248.52,307.56V309a.65.65,0,0,1-.3.51l-.34.2c-.16.09-.29,0-.29-.18v-1.46a.64.64,0,0,1,.29-.51l.34-.2A.19.19,0,0,1,248.52,307.56Z"/><path class="cls-13" d="M247,308.42v1.46a.66.66,0,0,1-.3.52l-.33.19c-.17.1-.3,0-.3-.17V309a.66.66,0,0,1,.3-.52l.33-.19C246.88,308.16,247,308.23,247,308.42Z"/><path class="cls-13" d="M245.51,309.29v1.46a.69.69,0,0,1-.3.52l-.34.19c-.16.1-.29,0-.29-.17v-1.46a.68.68,0,0,1,.29-.52l.34-.19C245.37,309,245.51,309.1,245.51,309.29Z"/><polygon class="cls-9" points="226.25 327.6 181.55 301.79 181.55 288.89 226.25 314.69 226.25 327.6"/><polygon class="cls-10" points="226.25 327.6 181.55 301.79 181.55 288.89 226.25 314.69 226.25 327.6"/><g class="cls-15"><path class="cls-6" d="M188.62,296.22l11,6.35a3.29,3.29,0,0,1,1.49,2.58v3c0,.95-.67,1.33-1.49.86l-11-6.35a3.29,3.29,0,0,1-1.49-2.58v-3C187.13,296.13,187.8,295.75,188.62,296.22Z"/></g><path class="cls-9" d="M190,299.62l.68-.39h0a.91.91,0,0,1,.91.1,2.85,2.85,0,0,1,1.29,2.24.88.88,0,0,1-.38.83h0l-.63.36-.12-.19a1.25,1.25,0,0,1-.37-.15,2.85,2.85,0,0,1-1.29-2.24,1.15,1.15,0,0,1,0-.33Z"/><path class="cls-17" d="M190,299.62l.68-.39h0a.91.91,0,0,1,.91.1,2.85,2.85,0,0,1,1.29,2.24.88.88,0,0,1-.38.83h0l-.63.36-.12-.19a1.25,1.25,0,0,1-.37-.15,2.85,2.85,0,0,1-1.29-2.24,1.15,1.15,0,0,1,0-.33Z"/><path class="cls-10" d="M191,299.69a2.89,2.89,0,0,1,1.29,2.24c0,.83-.58,1.16-1.29.75a2.83,2.83,0,0,1-1.29-2.24C189.69,299.61,190.26,299.28,191,299.69Z"/><path class="cls-9" d="M195.66,302.86l.68-.39h0a.88.88,0,0,1,.91.09,2.84,2.84,0,0,1,1.3,2.24.93.93,0,0,1-.38.84h0l-.64.36-.11-.19a1.54,1.54,0,0,1-.37-.14,2.87,2.87,0,0,1-1.3-2.25,1.66,1.66,0,0,1,0-.33Z"/><path class="cls-17" d="M195.66,302.86l.68-.39h0a.88.88,0,0,1,.91.09,2.84,2.84,0,0,1,1.3,2.24.93.93,0,0,1-.38.84h0l-.64.36-.11-.19a1.54,1.54,0,0,1-.37-.14,2.87,2.87,0,0,1-1.3-2.25,1.66,1.66,0,0,1,0-.33Z"/><path class="cls-10" d="M196.6,302.94a2.85,2.85,0,0,1,1.29,2.24c0,.82-.58,1.16-1.29.74a2.84,2.84,0,0,1-1.3-2.24C195.3,302.86,195.88,302.52,196.6,302.94Z"/><polygon class="cls-14" points="265.35 308.24 265.35 305.02 226.25 327.6 226.25 330.82 265.35 308.24"/><polygon class="cls-18" points="184.34 303.4 184.34 306.63 226.25 330.82 226.25 327.6 184.34 303.4"/><path class="cls-9" d="M239,312.9l-.68-.39h0a.88.88,0,0,0-.91.09,2.85,2.85,0,0,0-1.29,2.24.91.91,0,0,0,.38.84h0l.63.36.12-.19a1.54,1.54,0,0,0,.37-.14,2.89,2.89,0,0,0,1.29-2.25,1.15,1.15,0,0,0,0-.33Z"/><path class="cls-17" d="M239,312.9l-.68-.39h0a.88.88,0,0,0-.91.09,2.85,2.85,0,0,0-1.29,2.24.91.91,0,0,0,.38.84h0l.63.36.12-.19a1.54,1.54,0,0,0,.37-.14,2.89,2.89,0,0,0,1.29-2.25,1.15,1.15,0,0,0,0-.33Z"/><path class="cls-9" d="M238.1,313a2.85,2.85,0,0,0-1.29,2.24c0,.82.57,1.16,1.29.74a2.85,2.85,0,0,0,1.29-2.24C239.39,312.9,238.81,312.56,238.1,313Z"/><path class="cls-10" d="M238.1,313a2.85,2.85,0,0,0-1.29,2.24c0,.82.57,1.16,1.29.74a2.85,2.85,0,0,0,1.29-2.24C239.39,312.9,238.81,312.56,238.1,313Z"/><path class="cls-9" d="M233.42,316.14l-.68-.39h0a.93.93,0,0,0-.91.09,2.85,2.85,0,0,0-1.3,2.24.93.93,0,0,0,.38.84h0l.64.36.11-.19A1.54,1.54,0,0,0,232,319a2.85,2.85,0,0,0,1.3-2.24,1.57,1.57,0,0,0,0-.33Z"/><path class="cls-17" d="M233.42,316.14l-.68-.39h0a.93.93,0,0,0-.91.09,2.85,2.85,0,0,0-1.3,2.24.93.93,0,0,0,.38.84h0l.64.36.11-.19A1.54,1.54,0,0,0,232,319a2.85,2.85,0,0,0,1.3-2.24,1.57,1.57,0,0,0,0-.33Z"/><path class="cls-9" d="M232.48,316.22a2.85,2.85,0,0,0-1.29,2.24c0,.82.58,1.16,1.29.75a2.87,2.87,0,0,0,1.3-2.25C233.78,316.14,233.2,315.81,232.48,316.22Z"/><path class="cls-10" d="M232.48,316.22a2.85,2.85,0,0,0-1.29,2.24c0,.82.58,1.16,1.29.75a2.87,2.87,0,0,0,1.3-2.25C233.78,316.14,233.2,315.81,232.48,316.22Z"/><path class="cls-9" d="M183.34,268.51l41.14-23.74a4,4,0,0,1,3.58,0l41.09,23.74a4,4,0,0,1,1.79,3.09v10.84l-44.72,25.81h0l-44.67-25.81V271.6A4,4,0,0,1,183.34,268.51Z"/><path class="cls-10" d="M183.34,268.51l41.14-23.74a4,4,0,0,1,3.58,0l41.09,23.74a4,4,0,0,1,1.79,3.09v10.84l-44.72,25.81h0l-44.67-25.81V271.6A4,4,0,0,1,183.34,268.51Z"/><g class="cls-15"><path class="cls-6" d="M188.62,276.85l11,6.35a3.29,3.29,0,0,1,1.49,2.58v3c0,.95-.67,1.33-1.49.86l-11-6.35a3.29,3.29,0,0,1-1.49-2.58v-3C187.13,276.76,187.8,276.38,188.62,276.85Z"/></g><path class="cls-9" d="M190,280.25l.68-.39h0a.91.91,0,0,1,.91.1,2.85,2.85,0,0,1,1.29,2.24.88.88,0,0,1-.38.83h0l-.63.36-.12-.19a1.25,1.25,0,0,1-.37-.15,2.85,2.85,0,0,1-1.29-2.24,1.15,1.15,0,0,1,0-.33Z"/><path class="cls-17" d="M190,280.25l.68-.39h0a.91.91,0,0,1,.91.1,2.85,2.85,0,0,1,1.29,2.24.88.88,0,0,1-.38.83h0l-.63.36-.12-.19a1.25,1.25,0,0,1-.37-.15,2.85,2.85,0,0,1-1.29-2.24,1.15,1.15,0,0,1,0-.33Z"/><path class="cls-10" d="M191,280.32a2.89,2.89,0,0,1,1.29,2.24c0,.83-.58,1.16-1.29.75a2.83,2.83,0,0,1-1.29-2.24C189.69,280.25,190.26,279.91,191,280.32Z"/><path class="cls-9" d="M195.66,283.49l.68-.39h0a.88.88,0,0,1,.91.09,2.84,2.84,0,0,1,1.3,2.24.93.93,0,0,1-.38.84h0l-.64.36-.11-.19a1.54,1.54,0,0,1-.37-.14,2.87,2.87,0,0,1-1.3-2.25,1.66,1.66,0,0,1,0-.33Z"/><path class="cls-17" d="M195.66,283.49l.68-.39h0a.88.88,0,0,1,.91.09,2.84,2.84,0,0,1,1.3,2.24.93.93,0,0,1-.38.84h0l-.64.36-.11-.19a1.54,1.54,0,0,1-.37-.14,2.87,2.87,0,0,1-1.3-2.25,1.66,1.66,0,0,1,0-.33Z"/><path class="cls-10" d="M196.6,283.57a2.85,2.85,0,0,1,1.29,2.24c0,.82-.58,1.16-1.29.74a2.84,2.84,0,0,1-1.3-2.24C195.3,283.49,195.88,283.15,196.6,283.57Z"/><path class="cls-9" d="M226.22,294.74v13.51l44.72-25.81V271.61a4,4,0,0,0-1.47-2.87c.66.57.55,1.33-.32,1.83L228,294.31A3.55,3.55,0,0,1,226.22,294.74Z"/><path class="cls-12" d="M226.22,294.74v13.51l44.72-25.81V271.61a4,4,0,0,0-1.47-2.87c.66.57.55,1.33-.32,1.83L228,294.31A3.55,3.55,0,0,1,226.22,294.74Z"/><path class="cls-10" d="M266.66,275.24,244.49,288a3.31,3.31,0,0,0-1.49,2.58v3c0,.95.67,1.33,1.49.86l22.17-12.8a3.31,3.31,0,0,0,1.49-2.58v-3C268.15,275.15,267.48,274.76,266.66,275.24Z"/><path class="cls-14" d="M266.57,277.79v1.46a.68.68,0,0,1-.29.52l-.34.19c-.16.1-.3,0-.3-.17v-1.46a.69.69,0,0,1,.3-.52l.34-.19C266.44,277.52,266.57,277.6,266.57,277.79Z"/><path class="cls-13" d="M265.07,278.66v1.46a.63.63,0,0,1-.3.51l-.33.2c-.17.09-.3,0-.3-.17v-1.47a.63.63,0,0,1,.3-.51l.33-.19C264.94,278.39,265.07,278.47,265.07,278.66Z"/><path class="cls-14" d="M263.56,279.53V281a.64.64,0,0,1-.29.51l-.34.2a.19.19,0,0,1-.3-.18v-1.46a.65.65,0,0,1,.3-.51l.34-.2C263.43,279.26,263.56,279.34,263.56,279.53Z"/><path class="cls-14" d="M262.06,280.39v1.46a.66.66,0,0,1-.3.52l-.33.19c-.17.1-.3,0-.3-.17v-1.46a.66.66,0,0,1,.3-.52l.33-.19C261.93,280.13,262.06,280.2,262.06,280.39Z"/><path class="cls-14" d="M260.56,281.26v1.46a.69.69,0,0,1-.3.52l-.34.19c-.16.1-.3,0-.3-.17V281.8a.69.69,0,0,1,.3-.52l.34-.19C260.42,281,260.56,281.07,260.56,281.26Z"/><path class="cls-13" d="M259.05,282.13v1.46a.63.63,0,0,1-.3.51l-.33.2c-.17.09-.3,0-.3-.17v-1.47a.63.63,0,0,1,.3-.51l.33-.19C258.92,281.86,259.05,281.94,259.05,282.13Z"/><path class="cls-13" d="M257.55,283v1.46a.65.65,0,0,1-.3.51l-.34.2a.19.19,0,0,1-.3-.18v-1.46a.65.65,0,0,1,.3-.51l.34-.2A.19.19,0,0,1,257.55,283Z"/><path class="cls-14" d="M256,283.86v1.46a.66.66,0,0,1-.3.52l-.33.19c-.17.1-.3,0-.3-.17V284.4a.66.66,0,0,1,.3-.52l.33-.19C255.91,283.6,256,283.67,256,283.86Z"/><path class="cls-13" d="M254.54,284.73v1.46a.69.69,0,0,1-.3.52l-.34.19c-.16.1-.3,0-.3-.17v-1.46a.69.69,0,0,1,.3-.52l.34-.19C254.4,284.46,254.54,284.54,254.54,284.73Z"/><path class="cls-14" d="M253,285.6v1.46a.63.63,0,0,1-.3.51l-.33.2c-.17.09-.3,0-.3-.17v-1.47a.64.64,0,0,1,.3-.51l.33-.19C252.9,285.33,253,285.41,253,285.6Z"/><path class="cls-14" d="M251.53,286.47v1.46a.65.65,0,0,1-.3.51l-.34.2c-.16.09-.29,0-.29-.18V287a.64.64,0,0,1,.29-.51l.34-.2A.19.19,0,0,1,251.53,286.47Z"/><path class="cls-14" d="M250,287.33v1.46a.65.65,0,0,1-.3.52l-.33.19c-.17.1-.3,0-.3-.17v-1.46a.66.66,0,0,1,.3-.52l.33-.19C249.89,287.07,250,287.14,250,287.33Z"/><path class="cls-13" d="M248.52,288.2v1.46a.69.69,0,0,1-.3.52l-.34.19c-.16.1-.29,0-.29-.17v-1.46a.68.68,0,0,1,.29-.52l.34-.19C248.38,287.93,248.52,288,248.52,288.2Z"/><path class="cls-14" d="M247,289.07v1.46a.66.66,0,0,1-.3.52l-.33.19c-.17.09-.3,0-.3-.17v-1.46a.65.65,0,0,1,.3-.52l.33-.19C246.88,288.8,247,288.88,247,289.07Z"/><path class="cls-14" d="M245.51,289.94v1.46a.65.65,0,0,1-.3.51l-.34.2c-.16.09-.29,0-.29-.18v-1.46a.64.64,0,0,1,.29-.51l.34-.2A.19.19,0,0,1,245.51,289.94Z"/><path class="cls-9" d="M269.15,270.57,228,294.31a3.94,3.94,0,0,1-3.57,0l-41.09-23.74a1.09,1.09,0,0,1,0-2.06l41.14-23.74a4,4,0,0,1,3.58,0l41.09,23.74A1.09,1.09,0,0,1,269.15,270.57Z"/><path class="cls-21" d="M269.15,270.57,228,294.31a3.94,3.94,0,0,1-3.57,0l-41.09-23.74a1.09,1.09,0,0,1,0-2.06l41.14-23.74a4,4,0,0,1,3.58,0l41.09,23.74A1.09,1.09,0,0,1,269.15,270.57Z"/><polygon class="cls-14" points="265.35 288.89 265.35 285.67 226.25 308.25 226.25 311.47 265.35 288.89"/><polygon class="cls-18" points="184.34 284.06 184.34 287.28 226.25 311.47 226.25 308.25 184.34 284.06"/><path class="cls-9" d="M239,293.55l-.68-.39h0a.93.93,0,0,0-.91.09,2.87,2.87,0,0,0-1.29,2.24.91.91,0,0,0,.38.84h0l.63.36.12-.19a1.21,1.21,0,0,0,.37-.14,2.87,2.87,0,0,0,1.29-2.24,1.11,1.11,0,0,0,0-.33Z"/><path class="cls-17" d="M239,293.55l-.68-.39h0a.93.93,0,0,0-.91.09,2.87,2.87,0,0,0-1.29,2.24.91.91,0,0,0,.38.84h0l.63.36.12-.19a1.21,1.21,0,0,0,.37-.14,2.87,2.87,0,0,0,1.29-2.24,1.11,1.11,0,0,0,0-.33Z"/><path class="cls-9" d="M238.1,293.63a2.85,2.85,0,0,0-1.29,2.24c0,.82.57,1.16,1.29.75a2.89,2.89,0,0,0,1.29-2.24C239.39,293.55,238.81,293.22,238.1,293.63Z"/><path class="cls-10" d="M238.1,293.63a2.85,2.85,0,0,0-1.29,2.24c0,.82.57,1.16,1.29.75a2.89,2.89,0,0,0,1.29-2.24C239.39,293.55,238.81,293.22,238.1,293.63Z"/><path class="cls-9" d="M233.42,296.8l-.68-.4h0a.93.93,0,0,0-.91.09,2.87,2.87,0,0,0-1.3,2.24.91.91,0,0,0,.38.84h0l.64.37.11-.2a1.21,1.21,0,0,0,.37-.14,2.85,2.85,0,0,0,1.3-2.24,1.66,1.66,0,0,0,0-.33Z"/><path class="cls-17" d="M233.42,296.8l-.68-.4h0a.93.93,0,0,0-.91.09,2.87,2.87,0,0,0-1.3,2.24.91.91,0,0,0,.38.84h0l.64.37.11-.2a1.21,1.21,0,0,0,.37-.14,2.85,2.85,0,0,0,1.3-2.24,1.66,1.66,0,0,0,0-.33Z"/><path class="cls-9" d="M232.48,296.87a2.87,2.87,0,0,0-1.29,2.24c0,.83.58,1.16,1.29.75a2.85,2.85,0,0,0,1.3-2.24C233.78,296.79,233.2,296.46,232.48,296.87Z"/><path class="cls-10" d="M232.48,296.87a2.87,2.87,0,0,0-1.29,2.24c0,.83.58,1.16,1.29.75a2.85,2.85,0,0,0,1.3-2.24C233.78,296.79,233.2,296.46,232.48,296.87Z"/></g><g id="Server-3" data-name="Server"><polygon class="cls-9" points="463.79 387.98 419.1 413.78 374.4 387.98 419.1 362.18 463.79 387.98"/><polygon class="cls-10" points="463.79 387.98 419.1 413.78 374.4 387.98 419.1 362.18 463.79 387.98"/><polygon class="cls-11" points="419.1 413.78 419.1 410.56 377.2 386.37 374.4 387.98 419.1 413.78"/><polygon class="cls-9" points="463.79 400.88 419.1 426.69 419.1 413.78 463.79 387.98 463.79 400.88"/><polygon class="cls-12" points="463.79 400.88 419.1 426.69 419.1 413.78 463.79 387.98 463.79 400.88"/><path class="cls-10" d="M459.51,393.67l-22.16,12.79a3.28,3.28,0,0,0-1.49,2.58v3c0,.95.66,1.33,1.49.86l22.16-12.8a3.31,3.31,0,0,0,1.49-2.58v-3C461,393.58,460.33,393.19,459.51,393.67Z"/><path class="cls-13" d="M459.43,396.22v1.46a.69.69,0,0,1-.3.52l-.34.19c-.16.1-.29,0-.29-.17v-1.46a.68.68,0,0,1,.29-.52l.34-.19C459.29,396,459.43,396,459.43,396.22Z"/><path class="cls-13" d="M457.92,397.09v1.46a.63.63,0,0,1-.3.51l-.33.2c-.16.09-.3,0-.3-.17v-1.47a.65.65,0,0,1,.3-.51l.33-.19C457.79,396.82,457.92,396.9,457.92,397.09Z"/><path class="cls-13" d="M456.42,398v1.47a.65.65,0,0,1-.3.51l-.34.2c-.16.09-.29,0-.29-.18v-1.46a.64.64,0,0,1,.29-.51l.34-.2C456.28,397.69,456.42,397.76,456.42,398Z"/><path class="cls-13" d="M454.91,398.82v1.46a.66.66,0,0,1-.3.52l-.33.19c-.16.1-.3,0-.3-.17v-1.46a.69.69,0,0,1,.3-.52l.33-.19C454.78,398.56,454.91,398.63,454.91,398.82Z"/><path class="cls-14" d="M453.41,399.69v1.46a.69.69,0,0,1-.3.52l-.33.19c-.17.1-.3,0-.3-.17v-1.46a.66.66,0,0,1,.3-.52l.33-.19C453.27,399.42,453.41,399.5,453.41,399.69Z"/><path class="cls-14" d="M451.9,400.56V402a.64.64,0,0,1-.29.51l-.34.2c-.16.09-.3,0-.3-.17v-1.47a.65.65,0,0,1,.3-.51l.34-.19C451.77,400.29,451.9,400.37,451.9,400.56Z"/><path class="cls-13" d="M450.4,401.42v1.47a.65.65,0,0,1-.3.51l-.33.2c-.17.09-.3,0-.3-.18V402a.63.63,0,0,1,.3-.51l.33-.2A.19.19,0,0,1,450.4,401.42Z"/><path class="cls-13" d="M448.89,402.29v1.46a.68.68,0,0,1-.29.52l-.34.19c-.16.1-.3,0-.3-.17v-1.46a.69.69,0,0,1,.3-.52l.34-.19C448.76,402,448.89,402.1,448.89,402.29Z"/><path class="cls-13" d="M447.39,403.16v1.46a.69.69,0,0,1-.3.52l-.33.19c-.17.1-.3,0-.3-.17V403.7a.66.66,0,0,1,.3-.52l.33-.19C447.25,402.89,447.39,403,447.39,403.16Z"/><path class="cls-14" d="M445.88,404v1.46a.64.64,0,0,1-.29.51l-.34.2c-.16.09-.3,0-.3-.17v-1.47a.65.65,0,0,1,.3-.51l.34-.19C445.75,403.76,445.88,403.84,445.88,404Z"/><path class="cls-13" d="M444.38,404.9v1.46a.65.65,0,0,1-.3.51l-.33.2c-.17.09-.3,0-.3-.18v-1.46a.63.63,0,0,1,.3-.51l.33-.2C444.25,404.63,444.38,404.71,444.38,404.9Z"/><path class="cls-13" d="M442.87,405.76v1.46a.68.68,0,0,1-.29.52l-.34.19c-.16.1-.3,0-.3-.17V406.3a.69.69,0,0,1,.3-.52l.34-.19C442.74,405.5,442.87,405.57,442.87,405.76Z"/><path class="cls-14" d="M441.37,406.63v1.46a.66.66,0,0,1-.3.52l-.33.19c-.17.1-.3,0-.3-.17v-1.46a.66.66,0,0,1,.3-.52l.33-.19C441.24,406.36,441.37,406.44,441.37,406.63Z"/><path class="cls-13" d="M439.86,407.5V409a.64.64,0,0,1-.29.51l-.34.2c-.16.09-.3,0-.3-.17V408a.67.67,0,0,1,.3-.51l.34-.19C439.73,407.23,439.86,407.31,439.86,407.5Z"/><path class="cls-14" d="M438.36,408.37v1.46a.63.63,0,0,1-.3.51l-.33.2c-.17.09-.3,0-.3-.18V408.9a.63.63,0,0,1,.3-.51l.33-.2C438.23,408.1,438.36,408.18,438.36,408.37Z"/><polygon class="cls-9" points="419.1 426.69 374.4 400.88 374.4 387.98 419.1 413.78 419.1 426.69"/><polygon class="cls-10" points="419.1 426.69 374.4 400.88 374.4 387.98 419.1 413.78 419.1 426.69"/><g class="cls-15"><path class="cls-6" d="M381.47,395.29l11,6.35a3.25,3.25,0,0,1,1.49,2.57v3c0,.95-.66,1.33-1.49.86l-11-6.35a3.28,3.28,0,0,1-1.48-2.58v-3C380,395.2,380.65,394.82,381.47,395.29Z"/></g><path class="cls-9" d="M382.89,398.69l.68-.4h0a.93.93,0,0,1,.91.09,2.89,2.89,0,0,1,1.29,2.25.88.88,0,0,1-.38.83h0l-.63.37-.12-.19a1.37,1.37,0,0,1-.37-.15,2.85,2.85,0,0,1-1.29-2.24,1.15,1.15,0,0,1,0-.33Z"/><path class="cls-17" d="M382.89,398.69l.68-.4h0a.93.93,0,0,1,.91.09,2.89,2.89,0,0,1,1.29,2.25.88.88,0,0,1-.38.83h0l-.63.37-.12-.19a1.37,1.37,0,0,1-.37-.15,2.85,2.85,0,0,1-1.29-2.24,1.15,1.15,0,0,1,0-.33Z"/><path class="cls-10" d="M383.83,398.76a2.85,2.85,0,0,1,1.3,2.24c0,.83-.58,1.16-1.3.75a2.87,2.87,0,0,1-1.29-2.24C382.54,398.68,383.12,398.35,383.83,398.76Z"/><path class="cls-9" d="M388.51,401.93l.68-.39h0a.91.91,0,0,1,.91.1,2.85,2.85,0,0,1,1.29,2.24.88.88,0,0,1-.38.83h0l-.63.36-.12-.19a1.25,1.25,0,0,1-.37-.15,2.85,2.85,0,0,1-1.29-2.24,1.15,1.15,0,0,1,0-.33Z"/><path class="cls-17" d="M388.51,401.93l.68-.39h0a.91.91,0,0,1,.91.1,2.85,2.85,0,0,1,1.29,2.24.88.88,0,0,1-.38.83h0l-.63.36-.12-.19a1.25,1.25,0,0,1-.37-.15,2.85,2.85,0,0,1-1.29-2.24,1.15,1.15,0,0,1,0-.33Z"/><path class="cls-10" d="M389.45,402a2.89,2.89,0,0,1,1.29,2.24c0,.83-.58,1.16-1.29.75a2.85,2.85,0,0,1-1.29-2.24C388.16,401.93,388.73,401.59,389.45,402Z"/><polygon class="cls-14" points="458.2 407.33 458.2 404.11 419.1 426.69 419.1 429.91 458.2 407.33"/><polygon class="cls-18" points="377.2 402.49 377.2 405.72 419.1 429.91 419.1 426.69 377.2 402.49"/><path class="cls-9" d="M431.89,412l-.68-.39h0a.88.88,0,0,0-.91.09,2.84,2.84,0,0,0-1.3,2.24.93.93,0,0,0,.38.84h0l.64.36.11-.19a1.54,1.54,0,0,0,.37-.14,2.87,2.87,0,0,0,1.3-2.25,1.66,1.66,0,0,0,0-.33Z"/><path class="cls-17" d="M431.89,412l-.68-.39h0a.88.88,0,0,0-.91.09,2.84,2.84,0,0,0-1.3,2.24.93.93,0,0,0,.38.84h0l.64.36.11-.19a1.54,1.54,0,0,0,.37-.14,2.87,2.87,0,0,0,1.3-2.25,1.66,1.66,0,0,0,0-.33Z"/><path class="cls-9" d="M431,412.07a2.85,2.85,0,0,0-1.29,2.24c0,.82.58,1.16,1.29.74a2.84,2.84,0,0,0,1.3-2.24C432.25,412,431.67,411.65,431,412.07Z"/><path class="cls-10" d="M431,412.07a2.85,2.85,0,0,0-1.29,2.24c0,.82.58,1.16,1.29.74a2.84,2.84,0,0,0,1.3-2.24C432.25,412,431.67,411.65,431,412.07Z"/><path class="cls-9" d="M426.28,415.23l-.69-.39h0a.93.93,0,0,0-.91.09,2.85,2.85,0,0,0-1.3,2.24.93.93,0,0,0,.38.84h0l.64.36.11-.19a1.54,1.54,0,0,0,.37-.14,2.85,2.85,0,0,0,1.3-2.24,1.57,1.57,0,0,0,0-.33Z"/><path class="cls-17" d="M426.28,415.23l-.69-.39h0a.93.93,0,0,0-.91.09,2.85,2.85,0,0,0-1.3,2.24.93.93,0,0,0,.38.84h0l.64.36.11-.19a1.54,1.54,0,0,0,.37-.14,2.85,2.85,0,0,0,1.3-2.24,1.57,1.57,0,0,0,0-.33Z"/><path class="cls-9" d="M425.33,415.31a2.85,2.85,0,0,0-1.29,2.24c0,.82.58,1.16,1.29.75a2.87,2.87,0,0,0,1.3-2.25C426.63,415.23,426.05,414.9,425.33,415.31Z"/><path class="cls-10" d="M425.33,415.31a2.85,2.85,0,0,0-1.29,2.24c0,.82.58,1.16,1.29.75a2.87,2.87,0,0,0,1.3-2.25C426.63,415.23,426.05,414.9,425.33,415.31Z"/><polygon class="cls-9" points="463.79 368.63 419.1 394.43 374.4 368.63 419.1 342.82 463.79 368.63"/><polygon class="cls-19" points="463.79 368.63 419.1 394.43 374.4 368.63 419.1 342.82 463.79 368.63"/><polygon class="cls-10" points="463.79 368.63 419.1 394.43 374.4 368.63 419.1 342.82 463.79 368.63"/><polygon class="cls-11" points="419.1 391.21 419.1 394.43 374.4 368.63 377.2 367.02 419.1 391.21"/><polygon class="cls-9" points="463.79 381.53 419.1 407.33 419.1 394.43 463.79 368.63 463.79 381.53"/><polygon class="cls-12" points="463.79 381.53 419.1 407.33 419.1 394.43 463.79 368.63 463.79 381.53"/><path class="cls-10" d="M459.51,374.33l-22.16,12.8a3.26,3.26,0,0,0-1.49,2.57v3c0,.95.66,1.33,1.49.86l22.16-12.8A3.29,3.29,0,0,0,461,378.2v-3C461,374.24,460.33,373.86,459.51,374.33Z"/><path class="cls-13" d="M459.43,376.88v1.46a.69.69,0,0,1-.3.52l-.34.19c-.16.1-.29,0-.29-.17v-1.46a.68.68,0,0,1,.29-.52l.34-.19C459.29,376.61,459.43,376.69,459.43,376.88Z"/><path class="cls-14" d="M457.92,377.75v1.46a.66.66,0,0,1-.3.52l-.33.19c-.16.09-.3,0-.3-.17v-1.46a.69.69,0,0,1,.3-.52l.33-.19C457.79,377.48,457.92,377.56,457.92,377.75Z"/><path class="cls-13" d="M456.42,378.62v1.46a.65.65,0,0,1-.3.51l-.34.2c-.16.09-.29,0-.29-.17v-1.47a.64.64,0,0,1,.29-.51l.34-.2A.19.19,0,0,1,456.42,378.62Z"/><path class="cls-13" d="M454.91,379.48V381a.63.63,0,0,1-.3.51l-.33.19c-.16.1-.3,0-.3-.17V380a.65.65,0,0,1,.3-.51l.33-.2C454.78,379.22,454.91,379.29,454.91,379.48Z"/><path class="cls-13" d="M453.41,380.35v1.46a.69.69,0,0,1-.3.52l-.33.19c-.17.1-.3,0-.3-.17v-1.46a.66.66,0,0,1,.3-.52l.33-.19C453.27,380.08,453.41,380.16,453.41,380.35Z"/><path class="cls-14" d="M451.9,381.22v1.46a.68.68,0,0,1-.29.52l-.34.19c-.16.09-.3,0-.3-.17v-1.46a.69.69,0,0,1,.3-.52l.34-.19C451.77,381,451.9,381,451.9,381.22Z"/><path class="cls-14" d="M450.4,382.09v1.46a.65.65,0,0,1-.3.51l-.33.2c-.17.09-.3,0-.3-.17v-1.47a.63.63,0,0,1,.3-.51l.33-.2A.19.19,0,0,1,450.4,382.09Z"/><path class="cls-13" d="M448.89,383v1.47a.64.64,0,0,1-.29.51l-.34.19c-.16.1-.3,0-.3-.17v-1.46a.65.65,0,0,1,.3-.51l.34-.2C448.76,382.69,448.89,382.76,448.89,383Z"/><path class="cls-14" d="M447.39,383.82v1.46a.69.69,0,0,1-.3.52l-.33.19c-.17.1-.3,0-.3-.17v-1.46a.66.66,0,0,1,.3-.52l.33-.19C447.25,383.55,447.39,383.63,447.39,383.82Z"/><path class="cls-13" d="M445.88,384.69v1.46a.68.68,0,0,1-.29.52l-.34.19c-.16.09-.3,0-.3-.17v-1.46a.69.69,0,0,1,.3-.52l.34-.19C445.75,384.42,445.88,384.5,445.88,384.69Z"/><path class="cls-13" d="M444.38,385.56V387a.65.65,0,0,1-.3.51l-.33.2c-.17.09-.3,0-.3-.17v-1.47a.63.63,0,0,1,.3-.51l.33-.2C444.25,385.29,444.38,385.37,444.38,385.56Z"/><path class="cls-13" d="M442.87,386.42v1.47a.64.64,0,0,1-.29.51l-.34.2a.19.19,0,0,1-.3-.18V387a.65.65,0,0,1,.3-.51l.34-.2C442.74,386.16,442.87,386.23,442.87,386.42Z"/><path class="cls-14" d="M441.37,387.29v1.46a.66.66,0,0,1-.3.52l-.33.19c-.17.1-.3,0-.3-.17v-1.46a.66.66,0,0,1,.3-.52l.33-.19C441.24,387,441.37,387.1,441.37,387.29Z"/><path class="cls-13" d="M439.86,388.16v1.46a.68.68,0,0,1-.29.52l-.34.19c-.16.09-.3,0-.3-.17V388.7a.69.69,0,0,1,.3-.52l.34-.19C439.73,387.89,439.86,388,439.86,388.16Z"/><path class="cls-13" d="M438.36,389v1.46a.63.63,0,0,1-.3.51l-.33.2c-.17.09-.3,0-.3-.17v-1.47a.63.63,0,0,1,.3-.51l.33-.19C438.23,388.76,438.36,388.84,438.36,389Z"/><polygon class="cls-9" points="419.1 407.33 374.4 381.53 374.4 368.63 419.1 394.43 419.1 407.33"/><polygon class="cls-10" points="419.1 407.33 374.4 381.53 374.4 368.63 419.1 394.43 419.1 407.33"/><g class="cls-15"><path class="cls-6" d="M381.47,376l11,6.34a3.28,3.28,0,0,1,1.49,2.58v3c0,.94-.66,1.33-1.49.85l-11-6.34a3.28,3.28,0,0,1-1.48-2.58v-3C380,375.87,380.65,375.48,381.47,376Z"/></g><path class="cls-9" d="M382.89,379.36l.68-.4h0a.93.93,0,0,1,.91.09,2.89,2.89,0,0,1,1.29,2.24.89.89,0,0,1-.38.84h0l-.63.37-.12-.2a1.32,1.32,0,0,1-.37-.14,2.87,2.87,0,0,1-1.29-2.24,1.15,1.15,0,0,1,0-.33Z"/><path class="cls-17" d="M382.89,379.36l.68-.4h0a.93.93,0,0,1,.91.09,2.89,2.89,0,0,1,1.29,2.24.89.89,0,0,1-.38.84h0l-.63.37-.12-.2a1.32,1.32,0,0,1-.37-.14,2.87,2.87,0,0,1-1.29-2.24,1.15,1.15,0,0,1,0-.33Z"/><path class="cls-10" d="M383.83,379.43a2.85,2.85,0,0,1,1.3,2.24c0,.83-.58,1.16-1.3.75a2.87,2.87,0,0,1-1.29-2.24C382.54,379.35,383.12,379,383.83,379.43Z"/><path class="cls-9" d="M388.51,382.6l.68-.4h0a.93.93,0,0,1,.91.09,2.89,2.89,0,0,1,1.29,2.25.88.88,0,0,1-.38.83h0l-.63.37-.12-.19a1.25,1.25,0,0,1-.37-.15,2.85,2.85,0,0,1-1.29-2.24,1.15,1.15,0,0,1,0-.33Z"/><path class="cls-17" d="M388.51,382.6l.68-.4h0a.93.93,0,0,1,.91.09,2.89,2.89,0,0,1,1.29,2.25.88.88,0,0,1-.38.83h0l-.63.37-.12-.19a1.25,1.25,0,0,1-.37-.15,2.85,2.85,0,0,1-1.29-2.24,1.15,1.15,0,0,1,0-.33Z"/><path class="cls-10" d="M389.45,382.67a2.87,2.87,0,0,1,1.29,2.24c0,.83-.58,1.16-1.29.75a2.87,2.87,0,0,1-1.29-2.24C388.16,382.59,388.73,382.26,389.45,382.67Z"/><polygon class="cls-14" points="458.2 387.98 458.2 384.75 419.1 407.33 419.1 410.56 458.2 387.98"/><polygon class="cls-18" points="377.2 383.14 377.2 386.37 419.1 410.56 419.1 407.33 377.2 383.14"/><path class="cls-9" d="M431.89,392.64l-.68-.4h0a.91.91,0,0,0-.91.1,2.84,2.84,0,0,0-1.3,2.24.9.9,0,0,0,.38.83h0l.64.37.11-.19a1.25,1.25,0,0,0,.37-.15,2.84,2.84,0,0,0,1.3-2.24,1.66,1.66,0,0,0,0-.33Z"/><path class="cls-17" d="M431.89,392.64l-.68-.4h0a.91.91,0,0,0-.91.1,2.84,2.84,0,0,0-1.3,2.24.9.9,0,0,0,.38.83h0l.64.37.11-.19a1.25,1.25,0,0,0,.37-.15,2.84,2.84,0,0,0,1.3-2.24,1.66,1.66,0,0,0,0-.33Z"/><path class="cls-9" d="M431,392.71a2.89,2.89,0,0,0-1.29,2.24c0,.83.58,1.16,1.29.75a2.85,2.85,0,0,0,1.3-2.24C432.25,392.63,431.67,392.3,431,392.71Z"/><path class="cls-10" d="M431,392.71a2.89,2.89,0,0,0-1.29,2.24c0,.83.58,1.16,1.29.75a2.85,2.85,0,0,0,1.3-2.24C432.25,392.63,431.67,392.3,431,392.71Z"/><path class="cls-9" d="M426.28,395.88l-.69-.39h0a.91.91,0,0,0-.91.1,2.84,2.84,0,0,0-1.3,2.24.93.93,0,0,0,.38.84h0l.64.36.11-.19a1.25,1.25,0,0,0,.37-.15,2.84,2.84,0,0,0,1.3-2.24,1.66,1.66,0,0,0,0-.33Z"/><path class="cls-17" d="M426.28,395.88l-.69-.39h0a.91.91,0,0,0-.91.1,2.84,2.84,0,0,0-1.3,2.24.93.93,0,0,0,.38.84h0l.64.36.11-.19a1.25,1.25,0,0,0,.37-.15,2.84,2.84,0,0,0,1.3-2.24,1.66,1.66,0,0,0,0-.33Z"/><path class="cls-9" d="M425.33,396A2.89,2.89,0,0,0,424,398.2c0,.82.58,1.16,1.29.74a2.84,2.84,0,0,0,1.3-2.24C426.63,395.88,426.05,395.54,425.33,396Z"/><path class="cls-10" d="M425.33,396A2.89,2.89,0,0,0,424,398.2c0,.82.58,1.16,1.29.74a2.84,2.84,0,0,0,1.3-2.24C426.63,395.88,426.05,395.54,425.33,396Z"/><path class="cls-9" d="M376.19,348.25l41.15-23.74a3.94,3.94,0,0,1,3.57,0L462,348.25a4,4,0,0,1,1.78,3.09v10.84L419.07,388h0L374.4,362.18V351.34A4,4,0,0,1,376.19,348.25Z"/><path class="cls-10" d="M376.19,348.25l41.15-23.74a3.94,3.94,0,0,1,3.57,0L462,348.25a4,4,0,0,1,1.78,3.09v10.84L419.07,388h0L374.4,362.18V351.34A4,4,0,0,1,376.19,348.25Z"/><g class="cls-15"><path class="cls-6" d="M381.47,356.59l11,6.34a3.28,3.28,0,0,1,1.49,2.58v3c0,.94-.66,1.33-1.49.86l-11-6.35a3.28,3.28,0,0,1-1.48-2.58v-3C380,356.5,380.65,356.11,381.47,356.59Z"/></g><path class="cls-9" d="M382.89,360l.68-.4h0a.93.93,0,0,1,.91.09,2.89,2.89,0,0,1,1.29,2.24.89.89,0,0,1-.38.84h0l-.63.37-.12-.2a1.07,1.07,0,0,1-.37-.14,2.87,2.87,0,0,1-1.29-2.24,1.15,1.15,0,0,1,0-.33Z"/><path class="cls-17" d="M382.89,360l.68-.4h0a.93.93,0,0,1,.91.09,2.89,2.89,0,0,1,1.29,2.24.89.89,0,0,1-.38.84h0l-.63.37-.12-.2a1.07,1.07,0,0,1-.37-.14,2.87,2.87,0,0,1-1.29-2.24,1.15,1.15,0,0,1,0-.33Z"/><path class="cls-10" d="M383.83,360.06a2.85,2.85,0,0,1,1.3,2.24c0,.83-.58,1.16-1.3.75a2.87,2.87,0,0,1-1.29-2.24C382.54,360,383.12,359.65,383.83,360.06Z"/><path class="cls-9" d="M388.51,363.23l.68-.4h0a.93.93,0,0,1,.91.09,2.89,2.89,0,0,1,1.29,2.25.88.88,0,0,1-.38.83h0l-.63.37-.12-.19a1.25,1.25,0,0,1-.37-.15,2.85,2.85,0,0,1-1.29-2.24,1.15,1.15,0,0,1,0-.33Z"/><path class="cls-17" d="M388.51,363.23l.68-.4h0a.93.93,0,0,1,.91.09,2.89,2.89,0,0,1,1.29,2.25.88.88,0,0,1-.38.83h0l-.63.37-.12-.19a1.25,1.25,0,0,1-.37-.15,2.85,2.85,0,0,1-1.29-2.24,1.15,1.15,0,0,1,0-.33Z"/><path class="cls-10" d="M389.45,363.3a2.87,2.87,0,0,1,1.29,2.24c0,.83-.58,1.16-1.29.75a2.87,2.87,0,0,1-1.29-2.24C388.16,363.22,388.73,362.89,389.45,363.3Z"/><path class="cls-9" d="M419.07,374.48V388l44.72-25.8V351.34a4,4,0,0,0-1.46-2.87c.65.58.54,1.34-.33,1.84l-41.15,23.74A3.63,3.63,0,0,1,419.07,374.48Z"/><path class="cls-12" d="M419.07,374.48V388l44.72-25.8V351.34a4,4,0,0,0-1.46-2.87c.65.58.54,1.34-.33,1.84l-41.15,23.74A3.63,3.63,0,0,1,419.07,374.48Z"/><path class="cls-10" d="M459.51,355l-22.16,12.79a3.28,3.28,0,0,0-1.49,2.58v3c0,.95.66,1.34,1.49.86l22.16-12.79a3.31,3.31,0,0,0,1.49-2.58v-3C461,354.89,460.33,354.5,459.51,355Z"/><path class="cls-14" d="M459.43,357.53V359a.65.65,0,0,1-.3.51l-.34.2c-.16.09-.29,0-.29-.17v-1.47a.64.64,0,0,1,.29-.51l.34-.2A.19.19,0,0,1,459.43,357.53Z"/><path class="cls-13" d="M457.92,358.39v1.47a.63.63,0,0,1-.3.51l-.33.19c-.16.1-.3,0-.3-.17v-1.46a.65.65,0,0,1,.3-.51l.33-.2C457.79,358.13,457.92,358.2,457.92,358.39Z"/><path class="cls-14" d="M456.42,359.26v1.46a.69.69,0,0,1-.3.52l-.34.19c-.16.1-.29,0-.29-.17V359.8a.68.68,0,0,1,.29-.52l.34-.19C456.28,359,456.42,359.07,456.42,359.26Z"/><path class="cls-14" d="M454.91,360.13v1.46a.66.66,0,0,1-.3.52l-.33.19c-.16.09-.3,0-.3-.17v-1.46a.69.69,0,0,1,.3-.52l.33-.19C454.78,359.86,454.91,359.94,454.91,360.13Z"/><path class="cls-14" d="M453.41,361v1.46a.65.65,0,0,1-.3.51l-.33.2c-.17.09-.3,0-.3-.17v-1.47a.63.63,0,0,1,.3-.51l.33-.2A.19.19,0,0,1,453.41,361Z"/><path class="cls-13" d="M451.9,361.86v1.47a.64.64,0,0,1-.29.51l-.34.2a.19.19,0,0,1-.3-.18V362.4a.65.65,0,0,1,.3-.51l.34-.2C451.77,361.6,451.9,361.67,451.9,361.86Z"/><path class="cls-13" d="M450.4,362.73v1.46a.69.69,0,0,1-.3.52l-.33.19c-.17.1-.3,0-.3-.17v-1.46a.66.66,0,0,1,.3-.52l.33-.19C450.26,362.47,450.4,362.54,450.4,362.73Z"/><path class="cls-14" d="M448.89,363.6v1.46a.68.68,0,0,1-.29.52l-.34.19c-.16.1-.3,0-.3-.17v-1.46a.69.69,0,0,1,.3-.52l.34-.19C448.76,363.33,448.89,363.41,448.89,363.6Z"/><path class="cls-13" d="M447.39,364.47v1.46a.65.65,0,0,1-.3.51l-.33.2c-.17.09-.3,0-.3-.17V365a.63.63,0,0,1,.3-.51l.33-.19C447.25,364.2,447.39,364.28,447.39,364.47Z"/><path class="cls-14" d="M445.88,365.33v1.47a.64.64,0,0,1-.29.51l-.34.2a.19.19,0,0,1-.3-.18v-1.46a.65.65,0,0,1,.3-.51l.34-.2C445.75,365.07,445.88,365.14,445.88,365.33Z"/><path class="cls-14" d="M444.38,366.2v1.46a.69.69,0,0,1-.3.52l-.33.19c-.17.1-.3,0-.3-.17v-1.46a.66.66,0,0,1,.3-.52l.33-.19C444.25,365.94,444.38,366,444.38,366.2Z"/><path class="cls-14" d="M442.87,367.07v1.46a.68.68,0,0,1-.29.52l-.34.19c-.16.1-.3,0-.3-.17v-1.46a.69.69,0,0,1,.3-.52l.34-.19C442.74,366.8,442.87,366.88,442.87,367.07Z"/><path class="cls-13" d="M441.37,367.94v1.46a.63.63,0,0,1-.3.51l-.33.2c-.17.09-.3,0-.3-.17v-1.47a.63.63,0,0,1,.3-.51l.33-.19C441.24,367.67,441.37,367.75,441.37,367.94Z"/><path class="cls-14" d="M439.86,368.8v1.47a.64.64,0,0,1-.29.51l-.34.2a.19.19,0,0,1-.3-.18v-1.46a.65.65,0,0,1,.3-.51l.34-.2C439.73,368.54,439.86,368.61,439.86,368.8Z"/><path class="cls-14" d="M438.36,369.67v1.46a.66.66,0,0,1-.3.52l-.33.19c-.17.1-.3,0-.3-.17v-1.46a.66.66,0,0,1,.3-.52l.33-.19C438.23,369.41,438.36,369.48,438.36,369.67Z"/><path class="cls-9" d="M462,350.31l-41.15,23.74a4,4,0,0,1-3.58,0l-41.09-23.74a1.09,1.09,0,0,1,0-2.06l41.15-23.74a3.94,3.94,0,0,1,3.57,0L462,348.25A1.09,1.09,0,0,1,462,350.31Z"/><path class="cls-21" d="M462,350.31l-41.15,23.74a4,4,0,0,1-3.58,0l-41.09-23.74a1.09,1.09,0,0,1,0-2.06l41.15-23.74a3.94,3.94,0,0,1,3.57,0L462,348.25A1.09,1.09,0,0,1,462,350.31Z"/><polygon class="cls-14" points="458.2 368.63 458.2 365.41 419.1 387.99 419.1 391.21 458.2 368.63"/><polygon class="cls-18" points="377.2 363.79 377.2 367.02 419.1 391.21 419.1 387.99 377.2 363.79"/><path class="cls-9" d="M431.89,373.29l-.68-.39h0a.91.91,0,0,0-.91.1,2.84,2.84,0,0,0-1.3,2.24.93.93,0,0,0,.38.84h0l.64.36.11-.19a1.25,1.25,0,0,0,.37-.15,2.84,2.84,0,0,0,1.3-2.24,1.66,1.66,0,0,0,0-.33Z"/><path class="cls-17" d="M431.89,373.29l-.68-.39h0a.91.91,0,0,0-.91.1,2.84,2.84,0,0,0-1.3,2.24.93.93,0,0,0,.38.84h0l.64.36.11-.19a1.25,1.25,0,0,0,.37-.15,2.84,2.84,0,0,0,1.3-2.24,1.66,1.66,0,0,0,0-.33Z"/><path class="cls-9" d="M431,373.36a2.89,2.89,0,0,0-1.29,2.25c0,.82.58,1.16,1.29.74a2.84,2.84,0,0,0,1.3-2.24C432.25,373.29,431.67,373,431,373.36Z"/><path class="cls-10" d="M431,373.36a2.89,2.89,0,0,0-1.29,2.25c0,.82.58,1.16,1.29.74a2.84,2.84,0,0,0,1.3-2.24C432.25,373.29,431.67,373,431,373.36Z"/><path class="cls-9" d="M426.28,376.53l-.69-.39h0a.88.88,0,0,0-.91.09,2.85,2.85,0,0,0-1.3,2.24.93.93,0,0,0,.38.84h0l.64.36.11-.19a1.54,1.54,0,0,0,.37-.14,2.87,2.87,0,0,0,1.3-2.24,1.67,1.67,0,0,0,0-.34Z"/><path class="cls-17" d="M426.28,376.53l-.69-.39h0a.88.88,0,0,0-.91.09,2.85,2.85,0,0,0-1.3,2.24.93.93,0,0,0,.38.84h0l.64.36.11-.19a1.54,1.54,0,0,0,.37-.14,2.87,2.87,0,0,0,1.3-2.24,1.67,1.67,0,0,0,0-.34Z"/><path class="cls-9" d="M425.33,376.61a2.85,2.85,0,0,0-1.29,2.24c0,.82.58,1.16,1.29.75a2.87,2.87,0,0,0,1.3-2.25C426.63,376.53,426.05,376.19,425.33,376.61Z"/><path class="cls-10" d="M425.33,376.61a2.85,2.85,0,0,0-1.29,2.24c0,.82.58,1.16,1.29.75a2.87,2.87,0,0,0,1.3-2.25C426.63,376.53,426.05,376.19,425.33,376.61Z"/></g><g id="Server-4" data-name="Server"><polygon class="cls-9" points="511.1 257.43 466.4 283.24 421.71 257.44 466.4 231.63 511.1 257.43"/><polygon class="cls-10" points="511.1 257.43 466.4 283.24 421.71 257.44 466.4 231.63 511.1 257.43"/><polygon class="cls-11" points="466.4 283.24 466.4 280.01 424.5 255.82 421.71 257.44 466.4 283.24"/><polygon class="cls-9" points="511.1 270.34 466.4 296.14 466.4 283.24 511.1 257.43 511.1 270.34"/><polygon class="cls-12" points="511.1 270.34 466.4 296.14 466.4 283.24 511.1 257.43 511.1 270.34"/><path class="cls-10" d="M506.82,263.12l-22.17,12.8a3.29,3.29,0,0,0-1.49,2.58v3c0,.95.67,1.33,1.49.86l22.17-12.8a3.29,3.29,0,0,0,1.49-2.57v-3C508.31,263,507.64,262.65,506.82,263.12Z"/><path class="cls-13" d="M506.73,265.67v1.47a.64.64,0,0,1-.29.51l-.34.2a.19.19,0,0,1-.3-.18v-1.46a.65.65,0,0,1,.3-.51l.34-.2C506.6,265.41,506.73,265.48,506.73,265.67Z"/><path class="cls-13" d="M505.23,266.54V268a.66.66,0,0,1-.3.52l-.33.19c-.17.1-.3,0-.3-.17v-1.46a.66.66,0,0,1,.3-.52l.33-.19C505.1,266.28,505.23,266.35,505.23,266.54Z"/><path class="cls-13" d="M503.72,267.41v1.46a.68.68,0,0,1-.29.52l-.34.19c-.16.1-.3,0-.3-.17V268a.69.69,0,0,1,.3-.52l.34-.19C503.59,267.14,503.72,267.22,503.72,267.41Z"/><path class="cls-13" d="M502.22,268.28v1.46a.63.63,0,0,1-.3.51l-.33.2c-.17.09-.3,0-.3-.17v-1.47a.63.63,0,0,1,.3-.51l.33-.19C502.09,268,502.22,268.09,502.22,268.28Z"/><path class="cls-14" d="M500.72,269.14v1.47a.65.65,0,0,1-.3.51l-.34.2a.19.19,0,0,1-.3-.18v-1.46a.65.65,0,0,1,.3-.51l.34-.2C500.58,268.88,500.72,269,500.72,269.14Z"/><path class="cls-14" d="M499.21,270v1.46a.66.66,0,0,1-.3.52l-.33.19c-.17.1-.3,0-.3-.17v-1.46a.66.66,0,0,1,.3-.52l.33-.19C499.08,269.75,499.21,269.82,499.21,270Z"/><path class="cls-13" d="M497.71,270.88v1.46a.69.69,0,0,1-.3.52l-.34.19c-.16.1-.3,0-.3-.17v-1.46a.69.69,0,0,1,.3-.52l.34-.19C497.57,270.61,497.71,270.69,497.71,270.88Z"/><path class="cls-13" d="M496.2,271.75v1.46a.63.63,0,0,1-.3.51l-.33.2c-.17.09-.3,0-.3-.17v-1.47a.63.63,0,0,1,.3-.51l.33-.19C496.07,271.48,496.2,271.56,496.2,271.75Z"/><path class="cls-13" d="M494.7,272.61v1.47a.65.65,0,0,1-.3.51l-.34.2a.19.19,0,0,1-.3-.18v-1.46a.65.65,0,0,1,.3-.51l.34-.2C494.56,272.35,494.7,272.42,494.7,272.61Z"/><path class="cls-14" d="M493.19,273.48v1.46a.66.66,0,0,1-.3.52l-.33.19c-.17.1-.3,0-.3-.17V274a.66.66,0,0,1,.3-.52l.33-.19C493.06,273.22,493.19,273.29,493.19,273.48Z"/><path class="cls-13" d="M491.69,274.35v1.46a.69.69,0,0,1-.3.52l-.34.19c-.16.1-.29,0-.29-.17v-1.46a.68.68,0,0,1,.29-.52l.34-.19C491.55,274.08,491.69,274.16,491.69,274.35Z"/><path class="cls-13" d="M490.18,275.22v1.46a.63.63,0,0,1-.3.51l-.33.2c-.17.09-.3,0-.3-.17v-1.47a.63.63,0,0,1,.3-.51l.33-.19C490.05,275,490.18,275,490.18,275.22Z"/><path class="cls-14" d="M488.68,276.08v1.47a.65.65,0,0,1-.3.51l-.34.2c-.16.09-.29,0-.29-.18v-1.46a.64.64,0,0,1,.29-.51l.34-.2C488.54,275.82,488.68,275.89,488.68,276.08Z"/><path class="cls-13" d="M487.17,277v1.46a.66.66,0,0,1-.3.52l-.33.19c-.17.1-.3,0-.3-.17v-1.46a.66.66,0,0,1,.3-.52l.33-.19C487,276.69,487.17,276.76,487.17,277Z"/><path class="cls-14" d="M485.67,277.82v1.46a.69.69,0,0,1-.3.52L485,280c-.16.1-.29,0-.29-.17v-1.46a.68.68,0,0,1,.29-.52l.34-.19C485.53,277.55,485.67,277.63,485.67,277.82Z"/><polygon class="cls-9" points="466.4 296.14 421.71 270.34 421.71 257.44 466.4 283.24 466.4 296.14"/><polygon class="cls-10" points="466.4 296.14 421.71 270.34 421.71 257.44 466.4 283.24 466.4 296.14"/><g class="cls-15"><path class="cls-6" d="M428.78,264.75l11,6.34a3.29,3.29,0,0,1,1.49,2.58v3c0,.95-.67,1.34-1.49.86l-11-6.34a3.31,3.31,0,0,1-1.49-2.58v-3C427.29,264.66,428,264.27,428.78,264.75Z"/></g><path class="cls-9" d="M430.2,268.14l.68-.39h0a.88.88,0,0,1,.91.09,2.87,2.87,0,0,1,1.29,2.24.91.91,0,0,1-.38.84h0l-.63.36-.12-.19a1.54,1.54,0,0,1-.37-.14,2.89,2.89,0,0,1-1.29-2.25,1.15,1.15,0,0,1,0-.33Z"/><path class="cls-17" d="M430.2,268.14l.68-.39h0a.88.88,0,0,1,.91.09,2.87,2.87,0,0,1,1.29,2.24.91.91,0,0,1-.38.84h0l-.63.36-.12-.19a1.54,1.54,0,0,1-.37-.14,2.89,2.89,0,0,1-1.29-2.25,1.15,1.15,0,0,1,0-.33Z"/><path class="cls-10" d="M431.14,268.22a2.85,2.85,0,0,1,1.29,2.24c0,.82-.58,1.16-1.29.74a2.83,2.83,0,0,1-1.29-2.24C429.85,268.14,430.42,267.8,431.14,268.22Z"/><path class="cls-9" d="M435.82,271.38l.68-.39h0a.93.93,0,0,1,.91.09,2.85,2.85,0,0,1,1.3,2.24.93.93,0,0,1-.38.84h0l-.64.36-.11-.19a1.21,1.21,0,0,1-.37-.14,2.85,2.85,0,0,1-1.3-2.24,1.57,1.57,0,0,1,0-.33Z"/><path class="cls-17" d="M435.82,271.38l.68-.39h0a.93.93,0,0,1,.91.09,2.85,2.85,0,0,1,1.3,2.24.93.93,0,0,1-.38.84h0l-.64.36-.11-.19a1.21,1.21,0,0,1-.37-.14,2.85,2.85,0,0,1-1.3-2.24,1.57,1.57,0,0,1,0-.33Z"/><path class="cls-10" d="M436.76,271.46a2.85,2.85,0,0,1,1.29,2.24c0,.82-.58,1.16-1.29.75a2.87,2.87,0,0,1-1.3-2.24C435.46,271.38,436,271.05,436.76,271.46Z"/><polygon class="cls-14" points="505.51 276.79 505.51 273.56 466.4 296.14 466.4 299.37 505.51 276.79"/><polygon class="cls-18" points="424.5 271.95 424.5 275.18 466.4 299.37 466.4 296.14 424.5 271.95"/><path class="cls-9" d="M479.2,281.45l-.68-.4h0a.93.93,0,0,0-.91.09,2.89,2.89,0,0,0-1.29,2.24.89.89,0,0,0,.38.84h0l.63.37.12-.2a1,1,0,0,0,.37-.14A2.87,2.87,0,0,0,479.1,282a1.15,1.15,0,0,0,0-.33Z"/><path class="cls-17" d="M479.2,281.45l-.68-.4h0a.93.93,0,0,0-.91.09,2.89,2.89,0,0,0-1.29,2.24.89.89,0,0,0,.38.84h0l.63.37.12-.2a1,1,0,0,0,.37-.14A2.87,2.87,0,0,0,479.1,282a1.15,1.15,0,0,0,0-.33Z"/><path class="cls-9" d="M478.26,281.52a2.84,2.84,0,0,0-1.29,2.24c0,.83.57,1.16,1.29.75a2.87,2.87,0,0,0,1.29-2.24C479.55,281.44,479,281.11,478.26,281.52Z"/><path class="cls-10" d="M478.26,281.52a2.84,2.84,0,0,0-1.29,2.24c0,.83.57,1.16,1.29.75a2.87,2.87,0,0,0,1.29-2.24C479.55,281.44,479,281.11,478.26,281.52Z"/><path class="cls-9" d="M473.58,284.69l-.68-.4h0a.91.91,0,0,0-.91.1,2.84,2.84,0,0,0-1.3,2.24.9.9,0,0,0,.38.83h0l.64.37.11-.19a1.25,1.25,0,0,0,.37-.15,2.84,2.84,0,0,0,1.3-2.24,1.66,1.66,0,0,0,0-.33Z"/><path class="cls-17" d="M473.58,284.69l-.68-.4h0a.91.91,0,0,0-.91.1,2.84,2.84,0,0,0-1.3,2.24.9.9,0,0,0,.38.83h0l.64.37.11-.19a1.25,1.25,0,0,0,.37-.15,2.84,2.84,0,0,0,1.3-2.24,1.66,1.66,0,0,0,0-.33Z"/><path class="cls-9" d="M472.64,284.76a2.89,2.89,0,0,0-1.29,2.24c0,.83.58,1.16,1.29.75a2.85,2.85,0,0,0,1.3-2.24C473.94,284.68,473.36,284.35,472.64,284.76Z"/><path class="cls-10" d="M472.64,284.76a2.89,2.89,0,0,0-1.29,2.24c0,.83.58,1.16,1.29.75a2.85,2.85,0,0,0,1.3-2.24C473.94,284.68,473.36,284.35,472.64,284.76Z"/><polygon class="cls-9" points="511.1 238.08 466.4 263.89 421.71 238.08 466.4 212.28 511.1 238.08"/><polygon class="cls-19" points="511.1 238.08 466.4 263.89 421.71 238.08 466.4 212.28 511.1 238.08"/><polygon class="cls-10" points="511.1 238.08 466.4 263.89 421.71 238.08 466.4 212.28 511.1 238.08"/><polygon class="cls-11" points="466.4 260.67 466.4 263.89 421.71 238.08 424.5 236.47 466.4 260.67"/><polygon class="cls-9" points="511.1 250.98 466.4 276.79 466.4 263.89 511.1 238.08 511.1 250.98"/><polygon class="cls-12" points="511.1 250.98 466.4 276.79 466.4 263.89 511.1 238.08 511.1 250.98"/><path class="cls-10" d="M506.82,243.78l-22.17,12.8a3.31,3.31,0,0,0-1.49,2.58v3c0,.95.67,1.34,1.49.86l22.17-12.79a3.31,3.31,0,0,0,1.49-2.58v-3C508.31,243.69,507.64,243.31,506.82,243.78Z"/><path class="cls-13" d="M506.73,246.34v1.46a.64.64,0,0,1-.29.51l-.34.2a.19.19,0,0,1-.3-.18v-1.46a.65.65,0,0,1,.3-.51l.34-.2C506.6,246.07,506.73,246.15,506.73,246.34Z"/><path class="cls-14" d="M505.23,247.2v1.47a.63.63,0,0,1-.3.51l-.33.19c-.17.1-.3,0-.3-.17v-1.46a.63.63,0,0,1,.3-.51l.33-.2C505.1,246.94,505.23,247,505.23,247.2Z"/><path class="cls-13" d="M503.72,248.07v1.46a.68.68,0,0,1-.29.52l-.34.19c-.16.1-.3,0-.3-.17v-1.46a.69.69,0,0,1,.3-.52l.34-.19C503.59,247.8,503.72,247.88,503.72,248.07Z"/><path class="cls-13" d="M502.22,248.94v1.46a.66.66,0,0,1-.3.52l-.33.19c-.17.09-.3,0-.3-.17v-1.46a.66.66,0,0,1,.3-.52l.33-.19C502.09,248.67,502.22,248.75,502.22,248.94Z"/><path class="cls-13" d="M500.72,249.81v1.46a.65.65,0,0,1-.3.51l-.34.2a.19.19,0,0,1-.3-.17v-1.47a.65.65,0,0,1,.3-.51l.34-.2A.19.19,0,0,1,500.72,249.81Z"/><path class="cls-14" d="M499.21,250.67v1.47a.63.63,0,0,1-.3.51l-.33.19c-.17.1-.3,0-.3-.17v-1.46a.63.63,0,0,1,.3-.51l.33-.2C499.08,250.41,499.21,250.48,499.21,250.67Z"/><path class="cls-14" d="M497.71,251.54V253a.69.69,0,0,1-.3.52l-.34.19c-.16.1-.3,0-.3-.17v-1.46a.69.69,0,0,1,.3-.52l.34-.19C497.57,251.27,497.71,251.35,497.71,251.54Z"/><path class="cls-13" d="M496.2,252.41v1.46a.66.66,0,0,1-.3.52l-.33.19c-.17.09-.3,0-.3-.17V253a.66.66,0,0,1,.3-.52l.33-.19C496.07,252.14,496.2,252.22,496.2,252.41Z"/><path class="cls-14" d="M494.7,253.28v1.46a.65.65,0,0,1-.3.51l-.34.2c-.16.09-.3,0-.3-.17v-1.47a.65.65,0,0,1,.3-.51l.34-.2A.19.19,0,0,1,494.7,253.28Z"/><path class="cls-13" d="M493.19,254.14v1.47a.63.63,0,0,1-.3.51l-.33.19c-.17.1-.3,0-.3-.17v-1.46a.63.63,0,0,1,.3-.51l.33-.2C493.06,253.88,493.19,254,493.19,254.14Z"/><path class="cls-13" d="M491.69,255v1.46a.69.69,0,0,1-.3.52l-.34.19c-.16.1-.29,0-.29-.17v-1.46a.68.68,0,0,1,.29-.52l.34-.19C491.55,254.74,491.69,254.82,491.69,255Z"/><path class="cls-13" d="M490.18,255.88v1.46a.66.66,0,0,1-.3.52l-.33.19c-.17.09-.3,0-.3-.17v-1.46a.66.66,0,0,1,.3-.52l.33-.19C490.05,255.61,490.18,255.69,490.18,255.88Z"/><path class="cls-14" d="M488.68,256.75v1.46a.65.65,0,0,1-.3.51l-.34.2c-.16.09-.29,0-.29-.17v-1.47a.64.64,0,0,1,.29-.51l.34-.2A.19.19,0,0,1,488.68,256.75Z"/><path class="cls-13" d="M487.17,257.61v1.47a.63.63,0,0,1-.3.51l-.33.19c-.17.1-.3,0-.3-.17v-1.46a.63.63,0,0,1,.3-.51l.33-.2C487,257.35,487.17,257.42,487.17,257.61Z"/><path class="cls-13" d="M485.67,258.48v1.46a.69.69,0,0,1-.3.52l-.34.19c-.16.1-.29,0-.29-.17V259a.68.68,0,0,1,.29-.52l.34-.19C485.53,258.21,485.67,258.29,485.67,258.48Z"/><polygon class="cls-9" points="466.4 276.79 421.71 250.98 421.71 238.08 466.4 263.89 466.4 276.79"/><polygon class="cls-10" points="466.4 276.79 421.71 250.98 421.71 238.08 466.4 263.89 466.4 276.79"/><g class="cls-15"><path class="cls-6" d="M428.78,245.41l11,6.35a3.29,3.29,0,0,1,1.49,2.58v3c0,.95-.67,1.33-1.49.86l-11-6.35a3.27,3.27,0,0,1-1.49-2.57v-3C427.29,245.32,428,244.94,428.78,245.41Z"/></g><path class="cls-9" d="M430.2,248.81l.68-.39h0a.91.91,0,0,1,.91.1,2.85,2.85,0,0,1,1.29,2.24.91.91,0,0,1-.38.84h0l-.63.36-.12-.19a1.25,1.25,0,0,1-.37-.15,2.85,2.85,0,0,1-1.29-2.24,1.15,1.15,0,0,1,0-.33Z"/><path class="cls-17" d="M430.2,248.81l.68-.39h0a.91.91,0,0,1,.91.1,2.85,2.85,0,0,1,1.29,2.24.91.91,0,0,1-.38.84h0l-.63.36-.12-.19a1.25,1.25,0,0,1-.37-.15,2.85,2.85,0,0,1-1.29-2.24,1.15,1.15,0,0,1,0-.33Z"/><path class="cls-10" d="M431.14,248.88a2.89,2.89,0,0,1,1.29,2.25c0,.82-.58,1.16-1.29.74a2.83,2.83,0,0,1-1.29-2.24C429.85,248.81,430.42,248.47,431.14,248.88Z"/><path class="cls-9" d="M435.82,252.05l.68-.39h0a.88.88,0,0,1,.91.09,2.85,2.85,0,0,1,1.3,2.24.93.93,0,0,1-.38.84h0l-.64.36-.11-.19a1.54,1.54,0,0,1-.37-.14,2.87,2.87,0,0,1-1.3-2.24,1.67,1.67,0,0,1,0-.34Z"/><path class="cls-17" d="M435.82,252.05l.68-.39h0a.88.88,0,0,1,.91.09,2.85,2.85,0,0,1,1.3,2.24.93.93,0,0,1-.38.84h0l-.64.36-.11-.19a1.54,1.54,0,0,1-.37-.14,2.87,2.87,0,0,1-1.3-2.24,1.67,1.67,0,0,1,0-.34Z"/><path class="cls-10" d="M436.76,252.13a2.85,2.85,0,0,1,1.29,2.24c0,.82-.58,1.16-1.29.75a2.87,2.87,0,0,1-1.3-2.25C435.46,252.05,436,251.71,436.76,252.13Z"/><polygon class="cls-14" points="505.51 257.43 505.51 254.21 466.4 276.79 466.4 280.01 505.51 257.43"/><polygon class="cls-18" points="424.5 252.6 424.5 255.82 466.4 280.01 466.4 276.79 424.5 252.6"/><path class="cls-9" d="M479.2,262.09l-.68-.39h0a.93.93,0,0,0-.91.09,2.87,2.87,0,0,0-1.29,2.24.91.91,0,0,0,.38.84h0l.63.36.12-.19a1.54,1.54,0,0,0,.37-.14,2.89,2.89,0,0,0,1.29-2.24,1.11,1.11,0,0,0,0-.33Z"/><path class="cls-17" d="M479.2,262.09l-.68-.39h0a.93.93,0,0,0-.91.09,2.87,2.87,0,0,0-1.29,2.24.91.91,0,0,0,.38.84h0l.63.36.12-.19a1.54,1.54,0,0,0,.37-.14,2.89,2.89,0,0,0,1.29-2.24,1.11,1.11,0,0,0,0-.33Z"/><path class="cls-9" d="M478.26,262.17a2.83,2.83,0,0,0-1.29,2.24c0,.82.57,1.16,1.29.75a2.89,2.89,0,0,0,1.29-2.25C479.55,262.09,479,261.75,478.26,262.17Z"/><path class="cls-10" d="M478.26,262.17a2.83,2.83,0,0,0-1.29,2.24c0,.82.57,1.16,1.29.75a2.89,2.89,0,0,0,1.29-2.25C479.55,262.09,479,261.75,478.26,262.17Z"/><path class="cls-9" d="M473.58,265.34l-.68-.4h0a.93.93,0,0,0-.91.09,2.85,2.85,0,0,0-1.3,2.24.92.92,0,0,0,.38.84h0l.64.37.11-.2a1.21,1.21,0,0,0,.37-.14,2.85,2.85,0,0,0,1.3-2.24,1.66,1.66,0,0,0,0-.33Z"/><path class="cls-17" d="M473.58,265.34l-.68-.4h0a.93.93,0,0,0-.91.09,2.85,2.85,0,0,0-1.3,2.24.92.92,0,0,0,.38.84h0l.64.37.11-.2a1.21,1.21,0,0,0,.37-.14,2.85,2.85,0,0,0,1.3-2.24,1.66,1.66,0,0,0,0-.33Z"/><path class="cls-9" d="M472.64,265.41a2.87,2.87,0,0,0-1.29,2.24c0,.83.58,1.16,1.29.75a2.85,2.85,0,0,0,1.3-2.24C473.94,265.33,473.36,265,472.64,265.41Z"/><path class="cls-10" d="M472.64,265.41a2.87,2.87,0,0,0-1.29,2.24c0,.83.58,1.16,1.29.75a2.85,2.85,0,0,0,1.3-2.24C473.94,265.33,473.36,265,472.64,265.41Z"/><path class="cls-9" d="M423.5,217.7,464.64,194a4,4,0,0,1,3.58,0l41.09,23.74a4,4,0,0,1,1.79,3.1v10.84l-44.72,25.8h0l-44.67-25.8V220.8A4,4,0,0,1,423.5,217.7Z"/><path class="cls-10" d="M423.5,217.7,464.64,194a4,4,0,0,1,3.58,0l41.09,23.74a4,4,0,0,1,1.79,3.1v10.84l-44.72,25.8h0l-44.67-25.8V220.8A4,4,0,0,1,423.5,217.7Z"/><g class="cls-15"><path class="cls-6" d="M428.78,226l11,6.35a3.29,3.29,0,0,1,1.49,2.58v3c0,1-.67,1.33-1.49.86l-11-6.35a3.27,3.27,0,0,1-1.49-2.57v-3C427.29,226,428,225.57,428.78,226Z"/></g><path class="cls-9" d="M430.2,229.44l.68-.39h0a.91.91,0,0,1,.91.1,2.85,2.85,0,0,1,1.29,2.24.91.91,0,0,1-.38.84h0l-.63.36-.12-.19a1.25,1.25,0,0,1-.37-.15A2.85,2.85,0,0,1,430.3,230a1.15,1.15,0,0,1,0-.33Z"/><path class="cls-17" d="M430.2,229.44l.68-.39h0a.91.91,0,0,1,.91.1,2.85,2.85,0,0,1,1.29,2.24.91.91,0,0,1-.38.84h0l-.63.36-.12-.19a1.25,1.25,0,0,1-.37-.15A2.85,2.85,0,0,1,430.3,230a1.15,1.15,0,0,1,0-.33Z"/><path class="cls-10" d="M431.14,229.51a2.89,2.89,0,0,1,1.29,2.25c0,.82-.58,1.16-1.29.74a2.83,2.83,0,0,1-1.29-2.24C429.85,229.44,430.42,229.1,431.14,229.51Z"/><path class="cls-9" d="M435.82,232.68l.68-.39h0a.88.88,0,0,1,.91.09,2.85,2.85,0,0,1,1.3,2.24.93.93,0,0,1-.38.84h0l-.64.36-.11-.19a1.54,1.54,0,0,1-.37-.14,2.87,2.87,0,0,1-1.3-2.24,1.67,1.67,0,0,1,0-.34Z"/><path class="cls-17" d="M435.82,232.68l.68-.39h0a.88.88,0,0,1,.91.09,2.85,2.85,0,0,1,1.3,2.24.93.93,0,0,1-.38.84h0l-.64.36-.11-.19a1.54,1.54,0,0,1-.37-.14,2.87,2.87,0,0,1-1.3-2.24,1.67,1.67,0,0,1,0-.34Z"/><path class="cls-10" d="M436.76,232.76a2.85,2.85,0,0,1,1.29,2.24c0,.82-.58,1.16-1.29.75a2.87,2.87,0,0,1-1.3-2.25C435.46,232.68,436,232.34,436.76,232.76Z"/><path class="cls-9" d="M466.38,243.93v13.51l44.72-25.8V220.8a4,4,0,0,0-1.47-2.87c.66.57.55,1.33-.32,1.84l-41.15,23.74A3.66,3.66,0,0,1,466.38,243.93Z"/><path class="cls-12" d="M466.38,243.93v13.51l44.72-25.8V220.8a4,4,0,0,0-1.47-2.87c.66.57.55,1.33-.32,1.84l-41.15,23.74A3.66,3.66,0,0,1,466.38,243.93Z"/><path class="cls-10" d="M506.82,224.43l-22.17,12.8a3.29,3.29,0,0,0-1.49,2.57v3c0,1,.67,1.33,1.49.86l22.17-12.8a3.29,3.29,0,0,0,1.49-2.58v-3C508.31,224.34,507.64,224,506.82,224.43Z"/><path class="cls-14" d="M506.73,227v1.46a.68.68,0,0,1-.29.52l-.34.19c-.16.1-.3,0-.3-.17v-1.46a.69.69,0,0,1,.3-.52l.34-.19C506.6,226.71,506.73,226.79,506.73,227Z"/><path class="cls-13" d="M505.23,227.85v1.46a.66.66,0,0,1-.3.52l-.33.19c-.17.09-.3,0-.3-.17v-1.46a.66.66,0,0,1,.3-.52l.33-.19C505.1,227.58,505.23,227.66,505.23,227.85Z"/><path class="cls-14" d="M503.72,228.72v1.46a.64.64,0,0,1-.29.51l-.34.2c-.16.09-.3,0-.3-.17v-1.47a.65.65,0,0,1,.3-.51l.34-.2C503.59,228.45,503.72,228.53,503.72,228.72Z"/><path class="cls-14" d="M502.22,229.58v1.47a.63.63,0,0,1-.3.51l-.33.19c-.17.1-.3,0-.3-.17v-1.46a.63.63,0,0,1,.3-.51l.33-.2C502.09,229.32,502.22,229.39,502.22,229.58Z"/><path class="cls-14" d="M500.72,230.45v1.46a.69.69,0,0,1-.3.52l-.34.19c-.16.1-.3,0-.3-.17V231a.69.69,0,0,1,.3-.52l.34-.19C500.58,230.18,500.72,230.26,500.72,230.45Z"/><path class="cls-13" d="M499.21,231.32v1.46a.66.66,0,0,1-.3.52l-.33.19c-.17.09-.3,0-.3-.17v-1.46a.66.66,0,0,1,.3-.52l.33-.19C499.08,231.05,499.21,231.13,499.21,231.32Z"/><path class="cls-13" d="M497.71,232.19v1.46a.65.65,0,0,1-.3.51l-.34.2c-.16.09-.3,0-.3-.17v-1.47a.65.65,0,0,1,.3-.51l.34-.2A.19.19,0,0,1,497.71,232.19Z"/><path class="cls-14" d="M496.2,233.05v1.47a.63.63,0,0,1-.3.51l-.33.19c-.17.1-.3,0-.3-.17v-1.46a.63.63,0,0,1,.3-.51l.33-.2C496.07,232.79,496.2,232.86,496.2,233.05Z"/><path class="cls-13" d="M494.7,233.92v1.46a.69.69,0,0,1-.3.52l-.34.19c-.16.1-.3,0-.3-.17v-1.46a.69.69,0,0,1,.3-.52l.34-.19C494.56,233.65,494.7,233.73,494.7,233.92Z"/><path class="cls-14" d="M493.19,234.79v1.46a.66.66,0,0,1-.3.52l-.33.19c-.17.09-.3,0-.3-.17v-1.46a.66.66,0,0,1,.3-.52l.33-.19C493.06,234.52,493.19,234.6,493.19,234.79Z"/><path class="cls-14" d="M491.69,235.66v1.46a.65.65,0,0,1-.3.51l-.34.2c-.16.09-.29,0-.29-.17v-1.47a.64.64,0,0,1,.29-.51l.34-.2A.19.19,0,0,1,491.69,235.66Z"/><path class="cls-14" d="M490.18,236.52V238a.63.63,0,0,1-.3.51l-.33.19c-.17.1-.3,0-.3-.17v-1.46a.63.63,0,0,1,.3-.51l.33-.2C490.05,236.26,490.18,236.33,490.18,236.52Z"/><path class="cls-13" d="M488.68,237.39v1.46a.69.69,0,0,1-.3.52l-.34.19c-.16.1-.29,0-.29-.17v-1.46a.68.68,0,0,1,.29-.52l.34-.19C488.54,237.13,488.68,237.2,488.68,237.39Z"/><path class="cls-14" d="M487.17,238.26v1.46a.66.66,0,0,1-.3.52l-.33.19c-.17.09-.3,0-.3-.17V238.8a.66.66,0,0,1,.3-.52l.33-.19C487,238,487.17,238.07,487.17,238.26Z"/><path class="cls-14" d="M485.67,239.13v1.46a.65.65,0,0,1-.3.51l-.34.2c-.16.09-.29,0-.29-.17v-1.47a.64.64,0,0,1,.29-.51l.34-.19C485.53,238.86,485.67,238.94,485.67,239.13Z"/><path class="cls-9" d="M509.31,219.76l-41.15,23.75a3.94,3.94,0,0,1-3.57,0L423.5,219.76a1.09,1.09,0,0,1,0-2.06L464.64,194a4,4,0,0,1,3.58,0l41.09,23.74A1.09,1.09,0,0,1,509.31,219.76Z"/><path class="cls-21" d="M509.31,219.76l-41.15,23.75a3.94,3.94,0,0,1-3.57,0L423.5,219.76a1.09,1.09,0,0,1,0-2.06L464.64,194a4,4,0,0,1,3.58,0l41.09,23.74A1.09,1.09,0,0,1,509.31,219.76Z"/><polygon class="cls-14" points="505.51 238.09 505.51 234.86 466.4 257.44 466.4 260.67 505.51 238.09"/><polygon class="cls-18" points="424.5 233.25 424.5 236.47 466.4 260.67 466.4 257.44 424.5 233.25"/><path class="cls-9" d="M479.2,242.75l-.68-.4h0a.93.93,0,0,0-.91.09,2.87,2.87,0,0,0-1.29,2.24.89.89,0,0,0,.38.84h0l.63.37.12-.2a1.21,1.21,0,0,0,.37-.14,2.87,2.87,0,0,0,1.29-2.24,1.15,1.15,0,0,0,0-.33Z"/><path class="cls-17" d="M479.2,242.75l-.68-.4h0a.93.93,0,0,0-.91.09,2.87,2.87,0,0,0-1.29,2.24.89.89,0,0,0,.38.84h0l.63.37.12-.2a1.21,1.21,0,0,0,.37-.14,2.87,2.87,0,0,0,1.29-2.24,1.15,1.15,0,0,0,0-.33Z"/><path class="cls-9" d="M478.26,242.82a2.84,2.84,0,0,0-1.29,2.24c0,.83.57,1.16,1.29.75a2.87,2.87,0,0,0,1.29-2.24C479.55,242.74,479,242.41,478.26,242.82Z"/><path class="cls-10" d="M478.26,242.82a2.84,2.84,0,0,0-1.29,2.24c0,.83.57,1.16,1.29.75a2.87,2.87,0,0,0,1.29-2.24C479.55,242.74,479,242.41,478.26,242.82Z"/><path class="cls-9" d="M473.58,246l-.68-.4h0a.93.93,0,0,0-.91.09,2.87,2.87,0,0,0-1.3,2.25.9.9,0,0,0,.38.83h0l.64.37.11-.19a1.25,1.25,0,0,0,.37-.15,2.84,2.84,0,0,0,1.3-2.24,1.66,1.66,0,0,0,0-.33Z"/><path class="cls-17" d="M473.58,246l-.68-.4h0a.93.93,0,0,0-.91.09,2.87,2.87,0,0,0-1.3,2.25.9.9,0,0,0,.38.83h0l.64.37.11-.19a1.25,1.25,0,0,0,.37-.15,2.84,2.84,0,0,0,1.3-2.24,1.66,1.66,0,0,0,0-.33Z"/><path class="cls-9" d="M472.64,246.06a2.87,2.87,0,0,0-1.29,2.24c0,.83.58,1.16,1.29.75a2.85,2.85,0,0,0,1.3-2.24C473.94,246,473.36,245.65,472.64,246.06Z"/><path class="cls-10" d="M472.64,246.06a2.87,2.87,0,0,0-1.29,2.24c0,.83.58,1.16,1.29.75a2.85,2.85,0,0,0,1.3-2.24C473.94,246,473.36,245.65,472.64,246.06Z"/></g></svg>