<svg id="Layer_1" data-name="Layer 1" xmlns="http://www.w3.org/2000/svg" xmlns:xlink="http://www.w3.org/1999/xlink" viewBox="0 0 584.47 584.47"><defs><style>.cls-1,.cls-15,.cls-17{fill:#38b5e8;}.cls-1{opacity:0.1;}.cls-2,.cls-5{opacity:0.8;isolation:isolate;}.cls-3{fill:#6bb9e6;}.cls-4{fill:#1e93c1;}.cls-5{fill:#c8e5f9;}.cls-6{fill:#5dbdb0;}.cls-7{fill:url(#linear-gradient);}.cls-8{fill:#fff;}.cls-9{fill:url(#linear-gradient-2);}.cls-10{fill:#2d92d1;}.cls-11{fill:#1672b9;}.cls-12{fill:#5bbbeb;}.cls-13{fill:#fbfbfb;}.cls-14{fill:#025385;}.cls-15,.cls-16{opacity:0.2;}</style><linearGradient id="linear-gradient" x1="-449.56" y1="300.53" x2="-419.4" y2="300.53" gradientTransform="translate(890.85)" gradientUnits="userSpaceOnUse"><stop offset="0" stop-color="#f8bb99"/><stop offset="1" stop-color="#f49e6f"/></linearGradient><linearGradient id="linear-gradient-2" x1="-445.85" y1="311.74" x2="-402.7" y2="311.74" gradientTransform="translate(890.85)" gradientUnits="userSpaceOnUse"><stop offset="0" stop-color="#45989f"/><stop offset="0.36" stop-color="#52adb6"/><stop offset="0.72" stop-color="#5bbcc7"/><stop offset="1" stop-color="#5ec1cd"/></linearGradient></defs><path class="cls-1" d="M193.18,169.73a63.26,63.26,0,0,0-44.73,36.77C125.88,258.78,87.2,367,126.59,419.58,179.67,490.49,244.2,433,297.88,391.33s165.6,52.13,219.54-.36,42.82-186.05-45.24-228.69C404.42,129.45,257.35,155.83,193.18,169.73Z"/><g class="cls-2"><path class="cls-3" d="M340.54,197.72h0a7.79,7.79,0,0,1-5.83,1.15L320.44,196a9.05,9.05,0,0,1-.93-.25l-8.14-2.71a7.72,7.72,0,0,0-4.34-.17l-9.93,2.48a7.78,7.78,0,0,1-4.33-.16l-.11,0a7.76,7.76,0,0,1-4.49-10.83l1-2a7.79,7.79,0,0,1,6.95-4.3h7.69a7.89,7.89,0,0,0,3.47-.81l8.85-4.43a7.7,7.7,0,0,1,7.14.1,101.93,101.93,0,0,1,18,12.5A7.77,7.77,0,0,1,340.54,197.72Z"/><path class="cls-3" d="M367.38,219.8a103.68,103.68,0,0,1-3.45,94.94A8.19,8.19,0,0,1,351,316.45h0a8.22,8.22,0,0,1-2.41-5.81v-9a8.22,8.22,0,0,0-.86-3.68l-6.3-12.58-6.29-12.58a8.25,8.25,0,0,1-.86-3.68v-8a8.24,8.24,0,0,0-3.66-6.84l-4.06-2.7A8.2,8.2,0,0,0,320,250.5l-8.11,2a8.14,8.14,0,0,1-5.22-.42l-18.28-7.83a8.21,8.21,0,0,1-4.89-6.38l-2.35-16.43a8.23,8.23,0,0,1,2.33-7l5.43-5.42a8.21,8.21,0,0,1,5.8-2.41h13.68a8.22,8.22,0,0,1,6.84,3.66l2.74,4.12a8.2,8.2,0,0,0,5.49,3.54l15.91,2.66a8.31,8.31,0,0,0,4-.34l13.86-4.77A8.2,8.2,0,0,1,367.38,219.8Z"/><path class="cls-3" d="M264,185l-.26.8a6.32,6.32,0,0,1-4,4l-5.56,1.85a6.28,6.28,0,0,0-3.4,2.72L242,208.9a6.23,6.23,0,0,1-2.15,2.15l-15.46,9.28a6.37,6.37,0,0,1-2.34.83l-18.42,2.63a6.28,6.28,0,0,0-5.39,6.21v2.7a6.28,6.28,0,0,0,1.84,4.43l3.49,3.49a6.28,6.28,0,0,1,1.83,4.43h0a6.27,6.27,0,0,1-9.75,5.22l-1-.66-8.95-6a6.24,6.24,0,0,1-2.47-3.24L178.48,226a6.31,6.31,0,0,1,.25-4.6A103.73,103.73,0,0,1,231.42,169a6.27,6.27,0,0,1,6,.53l6.22,4.16a6.27,6.27,0,0,0,2.46,1l12.9,2.15A6.26,6.26,0,0,1,264,185Z"/><path class="cls-4" d="M272,285.56l-1.75,8.77a6.18,6.18,0,0,1-1.67,3.13l-11.22,11.21a6.12,6.12,0,0,0-1.79,4.33v5.15a6.13,6.13,0,0,1-2.45,4.89l-9.43,7.07a6.09,6.09,0,0,0-2.44,4.89v6.36a6.12,6.12,0,0,1-8.05,5.8h0a6.08,6.08,0,0,1-3.74-3.53l-5.67-14.17a6.15,6.15,0,0,1-.44-2.27V297.58a6.11,6.11,0,0,0-4.91-6l-10-2a6.11,6.11,0,0,1-4.27-3.27L198.91,276a6.16,6.16,0,0,1-.65-2.73v-6.77a6.11,6.11,0,0,1,1.8-4.32l5.36-5.37,4.74-4.74a6.12,6.12,0,0,1,9.8,1.59l1.67,3.35a6.12,6.12,0,0,0,5.47,3.38h17.82a6.13,6.13,0,0,1,5.24,3l7.17,12a6.13,6.13,0,0,0,5.25,3H266A6.11,6.11,0,0,1,272,285.56Z"/><circle class="cls-5" cx="273.44" cy="263.93" r="103.8"/></g><g id="Laptop"><g id="Plants"><path class="cls-6" d="M441.37,318.49c.06-7.17-1.26-20.42,4.92-32.77,4.48-9,12.42-17.62,19.74-16.7,6.82.87,7.35,11.36.77,18.49s-12.71,19.4-14.65,35.26l-7.06,9.33Z"/><path class="cls-7" d="M441.37,318.49c.06-7.17-1.26-20.42,4.92-32.77,4.48-9,12.42-17.62,19.74-16.7,6.82.87,7.35,11.36.77,18.49s-12.71,19.4-14.65,35.26l-7.06,9.33Z"/><path class="cls-8" d="M447,324.1a.51.51,0,0,0,.39-.54c-1.88-20.34,3.89-37.6,16.67-49.91a.5.5,0,0,0,0-.71.49.49,0,0,0-.7,0c-13,12.53-18.88,30.07-17,50.73a.51.51,0,0,0,.54.45Z"/><path class="cls-9" d="M451.89,328.9a25.31,25.31,0,0,0,12.7,3.2c7.68,0,10.42-4.12,10.42-4.12s-4.07-6.56-8.64-7.85a42.3,42.3,0,0,1,13.85,3.26s4.59-.66,5.3-7.93c0,0-3.38-3.77-12.84-4.59,0,0,5.31-2.28,13.61-1.51.64.14,1.75-9.3,1.86-13.59s-1.56-4-4.95-4.32-14.53.86-16.28,3-1.81,8.39-1.81,8.39-2.49-3.15-2.52-6.31a10.31,10.31,0,0,0-6.46,1.95c-2.09,1.5-3.22,2.84-3.32,5.53a49.08,49.08,0,0,0,.74,9,18,18,0,0,1-1.91-10.87s-6.18,4.25-6.49,8.41S444.27,323,451.89,328.9Z"/><path class="cls-8" d="M452,329.38a.52.52,0,0,0,.33-.33c4-13.51,24.17-31.67,32-34.52a.49.49,0,0,0,.3-.63.48.48,0,0,0-.64-.3c-7.94,2.9-28.46,21.4-32.57,35.16a.5.5,0,0,0,.33.62A.48.48,0,0,0,452,329.38Z"/></g><g id="Laptop-2" data-name="Laptop"><path class="cls-10" d="M296.31,348.28a5.18,5.18,0,0,0,2.42,4l67.82,39.15a5.3,5.3,0,0,0,4.84,0l92.79-53.57a4.55,4.55,0,0,0,0-8l-67.82-39.15a5.3,5.3,0,0,0-4.84,0l-92.79,53.57A5.18,5.18,0,0,0,296.31,348.28Z"/><path class="cls-11" d="M369,386.79V392a5,5,0,0,1-2.42-.57L298.73,352.3a4.53,4.53,0,0,1-.25-7.88c-1.08.77-1,1.91.25,2.64l67.82,39.15A4.87,4.87,0,0,0,369,386.79Z"/><path class="cls-12" d="M294,344.35a5.2,5.2,0,0,1-2.27-4.11V259.31a5.34,5.34,0,0,1,2.42-4.19L387,201.54a4.55,4.55,0,0,1,7,4v80.93a5.36,5.36,0,0,1-2.42,4.2l-92.79,53.57A5.21,5.21,0,0,1,294,344.35Z"/><path class="cls-11" d="M298.44,344.41a4.54,4.54,0,0,1-6.67-4.17V259.31a4.89,4.89,0,0,1,.71-2.38l4.54,2.61h0a4.92,4.92,0,0,0-.71,2.38v80.93C296.31,344.29,297.24,344.94,298.44,344.41Z"/><path class="cls-10" d="M296.31,261.93v80.93c0,1.55,1.08,2.17,2.42,1.4l92.79-53.57a5.36,5.36,0,0,0,2.42-4.2V205.56c0-1.54-1.08-2.17-2.42-1.4l-92.79,53.58A5.34,5.34,0,0,0,296.31,261.93Z"/><path class="cls-12" d="M298.73,347.06l67.82,39.15a5.36,5.36,0,0,0,4.84,0l92.79-53.57c1.34-.78,1.34-2,0-2.8l-67.82-39.15a5.3,5.3,0,0,0-4.84,0l-92.79,53.57C297.39,345,297.39,346.28,298.73,347.06Z"/><path class="cls-13" d="M300,262.23l89.47-51.64c.8-.46,1.45-.09,1.45.84v70.06A3.21,3.21,0,0,1,389.5,284L300,335.64c-.8.47-1.45.09-1.45-.84V264.75A3.21,3.21,0,0,1,300,262.23Z"/><path class="cls-6" d="M306.6,345l86.13-49.73a2.67,2.67,0,0,1,2.43,0l4.4,2.54a.74.74,0,0,1,0,1.4l-86.15,49.72a2.65,2.65,0,0,1-2.42,0l-4.39-2.53A.74.74,0,0,1,306.6,345Z"/><path class="cls-11" d="M306.6,345l86.13-49.73a2.67,2.67,0,0,1,2.43,0l4.4,2.54a.74.74,0,0,1,0,1.4l-86.15,49.72a2.65,2.65,0,0,1-2.42,0l-4.39-2.53A.74.74,0,0,1,306.6,345Z"/><path class="cls-11" d="M318,351.51l86.13-49.73a2.71,2.71,0,0,1,2.42,0l27.1,15.65a.74.74,0,0,1,0,1.4l-86,49.66a2.68,2.68,0,0,1-2.42,0L318,352.91A.74.74,0,0,1,318,351.51Z"/><path class="cls-6" d="M395.17,324.16l2.69-1.56c.12-.06.11-.18,0-.25l-3.12-1.8a.5.5,0,0,0-.43,0l-2.7,1.56c-.11.07-.11.18,0,.25l3.11,1.8A.52.52,0,0,0,395.17,324.16ZM389.84,318l-2.69,1.56c-.12.06-.11.18,0,.25l3.12,1.8a.5.5,0,0,0,.43,0l2.7-1.56c.11-.07.11-.18,0-.25l-3.12-1.8A.5.5,0,0,0,389.84,318Zm-8.71,5-4.56,2.64c-.12.06-.11.17,0,.25l3.12,1.8a.47.47,0,0,0,.43,0l4.56-2.63c.12-.07.11-.18,0-.25l-3.12-1.8A.5.5,0,0,0,381.13,323Zm4.77-2.75-2.7,1.55c-.11.07-.1.18,0,.25l3.12,1.8a.47.47,0,0,0,.43,0l2.7-1.56c.11-.06.1-.17,0-.24l-3.12-1.8A.44.44,0,0,0,385.9,320.25Zm-10.58,6.11-2.69,1.55c-.12.07-.11.18,0,.25l3.12,1.8a.47.47,0,0,0,.43,0l2.7-1.56c.11-.06.1-.17,0-.25l-3.12-1.8A.47.47,0,0,0,375.32,326.36Zm-3.94,2.27-2.7,1.56c-.11.06-.1.18,0,.25l3.12,1.8a.5.5,0,0,0,.43,0l2.69-1.56c.12-.07.11-.18,0-.25l-3.12-1.8A.5.5,0,0,0,371.38,328.63ZM383.65,336l2.69-1.55c.12-.07.11-.18,0-.25l-3.12-1.8a.47.47,0,0,0-.43,0l-2.7,1.55c-.11.07-.11.18,0,.25l3.12,1.8A.47.47,0,0,0,383.65,336Zm-3.94,2.28,2.69-1.56c.12-.06.11-.18,0-.25l-3.12-1.8a.5.5,0,0,0-.43,0l-2.7,1.56c-.11.07-.11.18,0,.25l3.11,1.8A.52.52,0,0,0,379.71,338.23Zm-3.95,2.27,2.7-1.55c.12-.07.11-.18,0-.25l-3.12-1.8a.47.47,0,0,0-.43,0l-2.7,1.56c-.11.06-.11.17,0,.24l3.11,1.81A.47.47,0,0,0,375.76,340.5Zm-3.94,2.28,2.7-1.56c.11-.06.11-.17,0-.25l-3.11-1.8a.49.49,0,0,0-.44,0l-2.69,1.55c-.12.07-.11.18,0,.25l3.12,1.8A.47.47,0,0,0,371.82,342.78Zm19.4-16.35,2.7-1.55c.12-.07.11-.18,0-.25l-3.12-1.8a.47.47,0,0,0-.43,0l-2.7,1.56c-.11.06-.11.17,0,.24l3.11,1.81A.47.47,0,0,0,391.22,326.43Zm-3.63,7.25,6-3.48c.12-.06.11-.17,0-.24L386,325.58a.5.5,0,0,0-.43,0l-3.12,1.8c-.11.07-.1.18,0,.25l4,2.31c.12.07.13.19,0,.25L384,331.62c-.11.07-.1.18,0,.25l3.12,1.8A.5.5,0,0,0,387.59,333.68Zm-20.15-2.77-2.7,1.55c-.11.07-.11.18,0,.25l3.12,1.8a.47.47,0,0,0,.43,0L371,333c.12-.06.11-.17,0-.24l-3.12-1.8A.44.44,0,0,0,367.44,330.91Zm-3.94,2.27-2.7,1.56c-.11.07-.11.18,0,.25l3.11,1.8a.5.5,0,0,0,.43,0l2.7-1.56c.12-.07.11-.18,0-.25l-3.12-1.8A.5.5,0,0,0,363.5,333.18ZM343.8,358.7a.47.47,0,0,0,.43,0l2.7-1.56c.11-.06.11-.18,0-.25l-3.12-1.8a.5.5,0,0,0-.43,0l-2.69,1.56c-.12.07-.11.18,0,.25ZM332,351.39l-2.7,1.55c-.12.07-.11.18,0,.25l3.12,1.8a.47.47,0,0,0,.43,0l2.7-1.55c.11-.07.11-.18,0-.25l-3.11-1.8A.47.47,0,0,0,332,351.39Zm6.34,5.34a.5.5,0,0,0,.43,0l2.7-1.56c.11-.07.1-.18,0-.25l-3.12-1.8a.5.5,0,0,0-.43,0l-2.69,1.56c-.12.06-.11.18,0,.25Zm12.45,3.35,2.7-1.55c.11-.07.11-.18,0-.25l-3.12-1.8a.47.47,0,0,0-.43,0L347.2,358c-.12.06-.11.17,0,.24l3.12,1.8A.44.44,0,0,0,350.76,360.08Zm-4.37,2.27a.47.47,0,0,0,.43,0l2.7-1.56c.11-.06.1-.18,0-.25l-3.12-1.8a.5.5,0,0,0-.43,0l-2.69,1.56c-.12.07-.11.18,0,.25Zm-10.48-13.24-2.7,1.56c-.11.07-.11.18,0,.25l3.11,1.8a.5.5,0,0,0,.43,0l2.7-1.56c.12-.07.11-.18,0-.25l-3.12-1.8A.5.5,0,0,0,335.91,349.11Zm19.7-11.38-2.69,1.56c-.12.07-.11.18,0,.25l3.12,1.8a.5.5,0,0,0,.43,0l2.7-1.56c.11-.06.11-.18,0-.25l-3.12-1.8A.5.5,0,0,0,355.61,337.73Zm-15.76,9.11-2.7,1.55c-.11.07-.11.18,0,.25l3.12,1.8a.47.47,0,0,0,.43,0l2.69-1.56c.12-.06.11-.17,0-.24l-3.12-1.81A.47.47,0,0,0,339.85,346.84Zm19.71-11.38-2.7,1.56c-.12.06-.11.17,0,.24l3.12,1.8a.47.47,0,0,0,.43,0l2.7-1.55c.11-.07.11-.18,0-.25l-3.11-1.8A.47.47,0,0,0,359.56,335.46ZM351.67,340,349,341.57c-.12.06-.11.17,0,.24l3.12,1.81a.47.47,0,0,0,.43,0l2.7-1.55c.11-.07.1-.18,0-.25L352.1,340A.47.47,0,0,0,351.67,340Zm-3.94,2.28-2.7,1.55c-.11.07-.1.18,0,.25l3.12,1.8a.47.47,0,0,0,.43,0l2.7-1.56c.11-.06.1-.17,0-.25l-3.12-1.8A.47.47,0,0,0,347.73,342.29Zm-3.94,2.27-2.7,1.56c-.11.06-.1.18,0,.25l3.12,1.8a.5.5,0,0,0,.43,0l2.69-1.56c.12-.07.11-.18,0-.25l-3.12-1.8A.47.47,0,0,0,343.79,344.56Zm20.15,2.77,2.7-1.56c.11-.06.1-.17,0-.24l-3.12-1.8a.44.44,0,0,0-.43,0l-2.69,1.55c-.12.07-.11.18,0,.25l3.12,1.8A.47.47,0,0,0,363.94,347.33Zm34.62-34.39-2.7,1.56c-.12.06-.11.18,0,.25l3.12,1.8a.5.5,0,0,0,.43,0l2.7-1.56c.11-.07.11-.18,0-.25L399,313A.5.5,0,0,0,398.56,312.94Zm-4.78,2.76-2.69,1.55c-.12.07-.11.18,0,.25l3.12,1.8a.47.47,0,0,0,.43,0l2.7-1.56c.11-.06.11-.17,0-.24l-3.12-1.81A.47.47,0,0,0,393.78,315.7Zm8.72-5-2.7,1.55c-.11.07-.11.18,0,.25l3.11,1.8a.47.47,0,0,0,.43,0l2.7-1.56c.12-.06.11-.17,0-.25l-3.12-1.8A.47.47,0,0,0,402.5,310.67Zm-20.4,21,2.69-1.55c.12-.07.11-.18,0-.25l-3.12-1.8a.47.47,0,0,0-.43,0l-2.7,1.56c-.11.06-.11.17,0,.24l3.12,1.81A.47.47,0,0,0,382.1,331.7Zm24.77-23.3a.47.47,0,0,0-.43,0l-2.7,1.56c-.11.06-.11.17,0,.25l3.12,1.8a.47.47,0,0,0,.43,0l2.69-1.55c.12-.07.11-.18,0-.25Zm-39,36.66,2.7-1.56c.11-.07.1-.18,0-.25l-3.12-1.8a.47.47,0,0,0-.43,0L364.32,343c-.12.06-.11.18,0,.25l3.12,1.8A.5.5,0,0,0,367.88,345.06Zm48.34-27.91,2.69-1.56c.12-.06.11-.18,0-.25l-3.12-1.8a.5.5,0,0,0-.43,0l-2.7,1.56c-.11.07-.11.18,0,.25l3.12,1.8A.5.5,0,0,0,416.22,317.15Zm-8.4-.3,2.7-1.55c.11-.07.1-.18,0-.25l-3.12-1.8a.47.47,0,0,0-.43,0l-2.69,1.55c-.12.07-.11.18,0,.25l3.12,1.8A.47.47,0,0,0,407.82,316.85Zm3.5-5.88a.5.5,0,0,0-.43,0l-2.69,1.56c-.12.07-.11.18,0,.25l3.12,1.8a.5.5,0,0,0,.43,0l2.7-1.56c.11-.07.11-.18,0-.25Zm.83-.48,7.58,4.37a.44.44,0,0,0,.43,0l2.69-1.55c.12-.07.11-.18,0-.25l-7.57-4.37a.44.44,0,0,0-.43,0l-2.7,1.55C412,310.31,412,310.42,412.15,310.49Zm-9.14,5-2.7,1.56c-.11.07-.1.18,0,.25l3.12,1.8a.5.5,0,0,0,.43,0l2.69-1.56c.12-.07.11-.18,0-.25l-3.12-1.8A.5.5,0,0,0,403,315.51Zm-29.66,17.13-2.7,1.56c-.12.06-.11.17,0,.25l3.12,1.8a.5.5,0,0,0,.43,0l2.7-1.56c.11-.07.11-.18,0-.25l-3.11-1.8A.47.47,0,0,0,373.35,332.64Zm38.49-13.22a.47.47,0,0,0,.43,0l2.7-1.55c.12-.07.11-.18,0-.25l-3.12-1.8a.47.47,0,0,0-.43,0l-2.7,1.56c-.11.06-.11.17,0,.24Zm-34.55,10.94-2.7,1.56c-.11.07-.11.18,0,.25l3.11,1.8a.47.47,0,0,0,.43,0l2.7-1.56c.12-.06.11-.18,0-.25l-3.12-1.8A.5.5,0,0,0,377.29,330.36Zm-29.55,26.06a.44.44,0,0,0,.43,0l2.7-1.55c.11-.07.11-.18,0-.25l-3.11-1.8a.47.47,0,0,0-.43,0l-2.7,1.56c-.12.06-.11.17,0,.24Zm-5.93-5.57-2.69,1.55c-.12.07-.11.18,0,.25l3.12,1.8a.47.47,0,0,0,.43,0l2.7-1.56c.11-.06.11-.17,0-.25l-3.12-1.8A.47.47,0,0,0,341.81,350.85Zm10.3,3.31,2.7-1.56c.12-.07.11-.18,0-.25l-3.12-1.8a.5.5,0,0,0-.43,0l-2.7,1.56c-.11.07-.11.18,0,.25l3.11,1.8A.5.5,0,0,0,352.11,354.16Zm3.95-2.28,2.69-1.55c.12-.07.11-.18,0-.25l-3.12-1.8a.47.47,0,0,0-.43,0l-2.7,1.55c-.11.07-.11.18,0,.25l3.12,1.8A.47.47,0,0,0,356.06,351.88Zm3.94-2.27,2.69-1.56c.12-.07.11-.18,0-.25l-3.12-1.8a.5.5,0,0,0-.43,0l-2.7,1.56c-.11.06-.1.18,0,.25l3.12,1.8A.5.5,0,0,0,360,349.61Zm-14.24-1-2.7,1.56c-.12.06-.11.17,0,.25l3.12,1.8a.47.47,0,0,0,.43,0l2.7-1.55c.11-.07.11-.18,0-.25l-3.11-1.8A.47.47,0,0,0,345.76,348.57Zm3.94-2.28-2.7,1.56c-.11.07-.11.18,0,.25l3.11,1.8a.47.47,0,0,0,.43,0l2.7-1.56c.12-.06.11-.18,0-.25l-3.12-1.8A.5.5,0,0,0,349.7,346.29Zm15.76-9.1-2.69,1.56c-.12.07-.11.18,0,.25l3.12,1.8a.5.5,0,0,0,.43,0l2.7-1.56c.11-.07.1-.18,0-.25l-3.12-1.8A.5.5,0,0,0,365.46,337.19Zm-3.94,2.28-2.7,1.55c-.11.07-.1.18,0,.25l3.12,1.8a.47.47,0,0,0,.43,0l2.7-1.55c.11-.07.1-.18,0-.25l-3.12-1.8A.47.47,0,0,0,361.52,339.47Zm7.88-4.55-2.69,1.55c-.12.07-.11.18,0,.25l3.12,1.8a.47.47,0,0,0,.43,0L373,337c.11-.06.11-.17,0-.24l-3.12-1.81A.47.47,0,0,0,369.4,334.92ZM353.64,344l-2.7,1.56c-.11.06-.11.17,0,.24l3.12,1.8a.44.44,0,0,0,.43,0l2.69-1.55c.12-.07.11-.18,0-.25l-3.12-1.8A.47.47,0,0,0,353.64,344Zm3.94-2.28-2.7,1.56c-.11.07-.1.18,0,.25l3.12,1.8a.5.5,0,0,0,.43,0l2.69-1.56c.12-.07.11-.18,0-.25l-3.12-1.8A.5.5,0,0,0,357.58,341.74Zm-2.88,16.07,2.7-1.56c.11-.07.11-.18,0-.25l-3.11-1.8a.5.5,0,0,0-.43,0l-2.7,1.56c-.12.07-.11.18,0,.25l3.12,1.8A.5.5,0,0,0,354.7,357.81Zm-23.13-2.34-3.12-1.8a.5.5,0,0,0-.43,0l-2.69,1.56c-.12.07-.11.18,0,.25l3.12,1.8a.5.5,0,0,0,.43,0l2.7-1.56C331.7,355.65,331.7,355.54,331.57,355.47Zm5.91,1.74-3.12-1.8a.44.44,0,0,0-.43,0l-4.15,2.39c-.11.07-.11.18,0,.25l3.12,1.8a.47.47,0,0,0,.43,0l4.14-2.4C337.61,357.39,337.6,357.28,337.48,357.21ZM326.79,352l-3.12-1.8a.5.5,0,0,0-.43,0l-3.32,1.92c-.11.06-.11.18,0,.25l3.11,1.8a.5.5,0,0,0,.43,0l3.32-1.92C326.92,352.17,326.91,352.06,326.79,352Zm2.54-1.47a.47.47,0,0,0,.43,0l2.7-1.56c.11-.06.11-.17,0-.24l-3.11-1.8a.44.44,0,0,0-.43,0l-2.7,1.55c-.12.07-.11.18,0,.25ZM343,359.18l-3.12-1.8a.47.47,0,0,0-.43,0l-5.18,3c-.12.07-.11.18,0,.25l3.12,1.8a.47.47,0,0,0,.43,0l5.19-3C343.1,359.36,343.09,359.25,343,359.18Zm2.59,3.65-3.12-1.8a.47.47,0,0,0-.43,0l-3.32,1.92c-.11.06-.11.17,0,.24l3.12,1.81a.47.47,0,0,0,.43,0l3.31-1.91C345.69,363,345.68,362.9,345.56,362.83Zm13.08-29.23a.47.47,0,0,0,.43,0l2.69-1.56c.12-.06.11-.17,0-.24l-3.12-1.8a.44.44,0,0,0-.43,0l-2.7,1.55c-.11.07-.1.18,0,.25Zm-7.88,4.55a.44.44,0,0,0,.43,0l2.69-1.55c.12-.07.11-.18,0-.25l-3.12-1.8a.47.47,0,0,0-.43,0l-2.7,1.56c-.11.06-.11.17,0,.24Zm-17.49,10.1a.5.5,0,0,0,.43,0l2.7-1.56c.12-.07.11-.18,0-.25l-3.12-1.8a.47.47,0,0,0-.43,0l-2.7,1.56c-.11.06-.11.18,0,.25Zm21.43-12.37a.5.5,0,0,0,.43,0l2.69-1.56c.12-.07.11-.18,0-.25l-3.12-1.8a.5.5,0,0,0-.43,0l-2.7,1.56c-.11.07-.1.18,0,.25Zm-7.89,4.55a.5.5,0,0,0,.43,0l2.7-1.56c.12-.06.11-.18,0-.25l-3.12-1.8a.5.5,0,0,0-.43,0l-2.7,1.56c-.11.07-.11.18,0,.25Zm.92,22.69a.5.5,0,0,0-.43,0l-4.15,2.4c-.12.06-.11.18,0,.25l3.12,1.8a.5.5,0,0,0,.43,0l4.15-2.4c.11-.07.11-.18,0-.25Zm-6.57-19.42a.47.47,0,0,0,.43,0l2.69-1.55c.12-.07.11-.18,0-.25l-3.12-1.8a.47.47,0,0,0-.43,0l-2.7,1.56c-.11.06-.1.17,0,.25ZM337.22,346a.47.47,0,0,0,.43,0l2.69-1.56c.12-.06.11-.17,0-.25l-3.12-1.8a.47.47,0,0,0-.43,0l-2.7,1.55c-.11.07-.11.18,0,.25Zm83.53-25a.5.5,0,0,0-.43,0l-6.64,3.84c-.12.06-.11.17,0,.24l3.12,1.81a.47.47,0,0,0,.43,0l6.64-3.83c.12-.06.11-.18,0-.25ZM412,326a.5.5,0,0,0-.43,0l-2.69,1.56c-.12.07-.11.18,0,.25l3.12,1.8a.5.5,0,0,0,.43,0l2.7-1.56c.11-.06.11-.18,0-.25Zm-53.39,29.54,2.7-1.55c.12-.07.11-.18,0-.25l-3.12-1.8a.47.47,0,0,0-.43,0l-2.7,1.55c-.11.07-.11.18,0,.25l3.11,1.8A.47.47,0,0,0,358.64,355.53Zm45.51-25a.47.47,0,0,0-.43,0l-2.7,1.55c-.11.07-.1.18,0,.25l3.12,1.8a.47.47,0,0,0,.43,0l2.7-1.56c.11-.06.1-.17,0-.25Zm20.54-11.85a.47.47,0,0,0-.43,0l-2.7,1.56c-.11.06-.11.17,0,.24l3.12,1.8a.47.47,0,0,0,.43,0l2.69-1.55c.12-.07.11-.18,0-.25Zm7.06-.48-7.57-4.37a.47.47,0,0,0-.43,0l-2.7,1.56c-.12.06-.11.17,0,.25l7.58,4.37a.5.5,0,0,0,.43,0l2.69-1.56C431.88,318.39,431.87,318.28,431.75,318.21Zm-42.33,20.84a.47.47,0,0,0-.43,0L385.67,341c-.11.06-.1.17,0,.24l3.12,1.8a.44.44,0,0,0,.43,0l3.32-1.91c.11-.07.1-.18,0-.25Zm10-5.75a.47.47,0,0,0-.43,0l-4.15,2.4c-.11.06-.11.17,0,.24l3.11,1.8a.44.44,0,0,0,.43,0l4.15-2.39c.12-.07.11-.18,0-.25Zm-19.09,11a.47.47,0,0,0-.43,0l-22.19,12.81c-.12.07-.11.18,0,.25l3.12,1.8a.47.47,0,0,0,.43,0l22.2-12.81c.11-.07.11-.18,0-.25Zm-23.44,13.53a.5.5,0,0,0-.43,0l-3.32,1.92c-.11.07-.1.18,0,.25l3.12,1.8a.5.5,0,0,0,.43,0L360,359.9c.11-.07.1-.18,0-.25Zm28-16.17a.5.5,0,0,0-.43,0l-3.32,1.92c-.12.07-.11.18,0,.25l3.12,1.8a.5.5,0,0,0,.43,0l3.32-1.92c.12-.06.11-.18,0-.25Zm-32.57,18.81a.47.47,0,0,0-.43,0l-3.32,1.91c-.11.07-.11.18,0,.25l3.11,1.8a.47.47,0,0,0,.43,0l3.32-1.91c.12-.07.11-.18,0-.25ZM394,336.41a.5.5,0,0,0-.43,0l-3.32,1.92c-.12.07-.11.18,0,.25l3.12,1.8a.5.5,0,0,0,.43,0l3.32-1.92c.11-.06.11-.18,0-.25Zm14.1-8.14a.47.47,0,0,0-.43,0L405,329.82c-.12.06-.11.17,0,.25l3.12,1.8a.47.47,0,0,0,.43,0l2.7-1.55c.11-.07.1-.18,0-.25Zm8.64-6.27,2.7-1.56c.11-.07.1-.18,0-.25l-3.12-1.8a.5.5,0,0,0-.43,0l-2.69,1.56c-.12.06-.11.18,0,.25l3.12,1.8A.5.5,0,0,0,416.73,322Zm-17.62-.12,2.69-1.55c.12-.07.11-.18,0-.25l-3.12-1.8a.47.47,0,0,0-.43,0l-2.7,1.56c-.11.06-.1.17,0,.24l3.12,1.8A.47.47,0,0,0,399.11,321.88Zm-8.93,15.45,7.88-4.55c.11-.07.11-.18,0-.25l-3.11-1.8a.47.47,0,0,0-.43,0l-7.89,4.55c-.11.07-.11.18,0,.25l3.12,1.8A.5.5,0,0,0,390.18,337.33Zm22.18-13.07a.47.47,0,0,0,.43,0l2.69-1.55c.12-.07.11-.18,0-.25l-3.12-1.8a.47.47,0,0,0-.43,0l-2.7,1.55c-.11.07-.1.18,0,.25Zm-4-2.56,2.7-1.56c.11-.06.11-.17,0-.25l-3.11-1.8a.47.47,0,0,0-.43,0l-2.7,1.55c-.12.07-.11.18,0,.25l3.12,1.8A.47.47,0,0,0,408.33,321.7Zm-22.1,17.9,2.7-1.55c.12-.07.11-.18,0-.25L385.8,336a.47.47,0,0,0-.43,0l-2.7,1.56c-.11.06-.11.17,0,.24l3.11,1.8A.47.47,0,0,0,386.23,339.6Zm17.41-10.31a.47.47,0,0,0,.43,0l2.7-1.55c.12-.07.11-.18,0-.25l-3.12-1.8a.47.47,0,0,0-.43,0l-2.7,1.55c-.11.07-.11.18,0,.25ZM366.53,351l2.69-1.56c.12-.06.11-.17,0-.24l-3.12-1.8a.44.44,0,0,0-.43,0l-2.7,1.55c-.11.07-.1.18,0,.25l3.12,1.8A.47.47,0,0,0,366.53,351Zm3.94-2.27,2.7-1.56c.11-.07.1-.18,0-.25L370,345.1a.47.47,0,0,0-.43,0l-2.7,1.56c-.11.06-.1.17,0,.25l3.12,1.8A.5.5,0,0,0,370.47,348.71Zm-7.88,4.55,2.69-1.56c.12-.07.11-.18,0-.25l-3.12-1.8a.5.5,0,0,0-.43,0L359,351.2c-.11.06-.11.18,0,.25l3.12,1.8A.5.5,0,0,0,362.59,353.26Zm15.76-9.11,2.7-1.55c.11-.07.11-.18,0-.25l-3.12-1.8a.47.47,0,0,0-.43,0l-2.69,1.56c-.12.06-.11.17,0,.24l3.12,1.81A.47.47,0,0,0,378.35,344.15Zm-3.94,2.28,2.7-1.56c.11-.06.1-.17,0-.25l-3.12-1.8a.5.5,0,0,0-.43,0l-2.69,1.56c-.12.07-.11.18,0,.25l3.12,1.8A.47.47,0,0,0,374.41,346.43Zm7.88-4.55,2.7-1.56c.11-.06.11-.18,0-.25l-3.11-1.8a.5.5,0,0,0-.43,0l-2.7,1.56c-.12.07-.11.18,0,.25l3.12,1.8A.5.5,0,0,0,382.29,341.88Zm18-33.67a.47.47,0,0,0,.43,0l2.69-1.55c.12-.07.11-.18,0-.25l-.83-.48a.47.47,0,0,0-.43,0l-2.7,1.56c-.11.06-.11.17,0,.24Zm-19.4,12.52a.47.47,0,0,0,.43,0l2.7-1.56c.11-.06.11-.17,0-.25l-3.11-1.8a.47.47,0,0,0-.43,0l-2.7,1.55c-.12.07-.11.18,0,.25Zm7.89-4.55a.47.47,0,0,0,.43,0l2.69-1.56c.12-.06.11-.18,0-.25l-3.12-1.8a.5.5,0,0,0-.43,0l-2.7,1.56c-.11.07-.11.18,0,.25Zm-12.7,7.33a.47.47,0,0,0,.43,0l2.7-1.56c.11-.06.1-.18,0-.25l-3.12-1.8a.5.5,0,0,0-.43,0L373,321.46c-.12.07-.11.18,0,.25Zm8.75-5.05a.47.47,0,0,0,.43,0l2.7-1.55c.11-.07.11-.18,0-.25l-3.12-1.8a.47.47,0,0,0-.43,0l-2.7,1.56c-.11.06-.11.17,0,.25Zm-16.63,9.6a.47.47,0,0,0,.43,0l2.69-1.56c.12-.06.11-.17,0-.25l-3.12-1.8a.47.47,0,0,0-.43,0L365.1,326c-.11.07-.11.18,0,.25Zm3.94-2.27a.47.47,0,0,0,.43,0l2.69-1.55c.12-.07.11-.18,0-.25l-3.12-1.8a.47.47,0,0,0-.43,0l-2.7,1.56c-.11.06-.1.17,0,.25Zm20.26-13a.44.44,0,0,0,.43,0l2.7-1.55c.11-.07.11-.18,0-.25l-.83-.48a.47.47,0,0,0-.43,0L391.6,312c-.12.06-.11.17,0,.25Zm11.83-6.82a.5.5,0,0,0,.43,0l2.69-1.56c.12-.07.11-.18,0-.25l-.83-.48a.5.5,0,0,0-.43,0l-2.7,1.56c-.11.07-.11.18,0,.25Zm6.55,3.78a.47.47,0,0,0,.43,0l2.69-1.56c.12-.06.11-.18,0-.25l-3.12-1.8a.5.5,0,0,0-.43,0l-2.7,1.56c-.11.07-.1.18,0,.25Zm9.85,10,2.7-1.56c.11-.06.11-.17,0-.24l-3.12-1.81a.47.47,0,0,0-.43,0l-2.69,1.55c-.12.07-.11.18,0,.25l3.12,1.8A.47.47,0,0,0,420.67,319.72Zm-24.29-9.23a.5.5,0,0,0,.43,0l2.7-1.56c.12-.06.11-.18,0-.25l-.83-.48a.5.5,0,0,0-.43,0l-2.7,1.56c-.12.07-.11.18,0,.25Zm-32.09,19.85a.5.5,0,0,0,.43,0l2.7-1.56c.12-.07.11-.18,0-.25l-3.12-1.8a.5.5,0,0,0-.43,0l-2.7,1.56c-.11.06-.11.18,0,.25Z"/><path class="cls-14" d="M395.17,324.16l2.69-1.56c.12-.06.11-.18,0-.25l-3.12-1.8a.5.5,0,0,0-.43,0l-2.7,1.56c-.11.07-.11.18,0,.25l3.11,1.8A.52.52,0,0,0,395.17,324.16ZM389.84,318l-2.69,1.56c-.12.06-.11.18,0,.25l3.12,1.8a.5.5,0,0,0,.43,0l2.7-1.56c.11-.07.11-.18,0-.25l-3.12-1.8A.5.5,0,0,0,389.84,318Zm-8.71,5-4.56,2.64c-.12.06-.11.17,0,.25l3.12,1.8a.47.47,0,0,0,.43,0l4.56-2.63c.12-.07.11-.18,0-.25l-3.12-1.8A.5.5,0,0,0,381.13,323Zm4.77-2.75-2.7,1.55c-.11.07-.1.18,0,.25l3.12,1.8a.47.47,0,0,0,.43,0l2.7-1.56c.11-.06.1-.17,0-.24l-3.12-1.8A.44.44,0,0,0,385.9,320.25Zm-10.58,6.11-2.69,1.55c-.12.07-.11.18,0,.25l3.12,1.8a.47.47,0,0,0,.43,0l2.7-1.56c.11-.06.1-.17,0-.25l-3.12-1.8A.47.47,0,0,0,375.32,326.36Zm-3.94,2.27-2.7,1.56c-.11.06-.1.18,0,.25l3.12,1.8a.5.5,0,0,0,.43,0l2.69-1.56c.12-.07.11-.18,0-.25l-3.12-1.8A.5.5,0,0,0,371.38,328.63ZM383.65,336l2.69-1.55c.12-.07.11-.18,0-.25l-3.12-1.8a.47.47,0,0,0-.43,0l-2.7,1.55c-.11.07-.11.18,0,.25l3.12,1.8A.47.47,0,0,0,383.65,336Zm-3.94,2.28,2.69-1.56c.12-.06.11-.18,0-.25l-3.12-1.8a.5.5,0,0,0-.43,0l-2.7,1.56c-.11.07-.11.18,0,.25l3.11,1.8A.52.52,0,0,0,379.71,338.23Zm-3.95,2.27,2.7-1.55c.12-.07.11-.18,0-.25l-3.12-1.8a.47.47,0,0,0-.43,0l-2.7,1.56c-.11.06-.11.17,0,.24l3.11,1.81A.47.47,0,0,0,375.76,340.5Zm-3.94,2.28,2.7-1.56c.11-.06.11-.17,0-.25l-3.11-1.8a.49.49,0,0,0-.44,0l-2.69,1.55c-.12.07-.11.18,0,.25l3.12,1.8A.47.47,0,0,0,371.82,342.78Zm19.4-16.35,2.7-1.55c.12-.07.11-.18,0-.25l-3.12-1.8a.47.47,0,0,0-.43,0l-2.7,1.56c-.11.06-.11.17,0,.24l3.11,1.81A.47.47,0,0,0,391.22,326.43Zm-3.63,7.25,6-3.48c.12-.06.11-.17,0-.24L386,325.58a.5.5,0,0,0-.43,0l-3.12,1.8c-.11.07-.1.18,0,.25l4,2.31c.12.07.13.19,0,.25L384,331.62c-.11.07-.1.18,0,.25l3.12,1.8A.5.5,0,0,0,387.59,333.68Zm-20.15-2.77-2.7,1.55c-.11.07-.11.18,0,.25l3.12,1.8a.47.47,0,0,0,.43,0L371,333c.12-.06.11-.17,0-.24l-3.12-1.8A.44.44,0,0,0,367.44,330.91Zm-3.94,2.27-2.7,1.56c-.11.07-.11.18,0,.25l3.11,1.8a.5.5,0,0,0,.43,0l2.7-1.56c.12-.07.11-.18,0-.25l-3.12-1.8A.5.5,0,0,0,363.5,333.18ZM343.8,358.7a.47.47,0,0,0,.43,0l2.7-1.56c.11-.06.11-.18,0-.25l-3.12-1.8a.5.5,0,0,0-.43,0l-2.69,1.56c-.12.07-.11.18,0,.25ZM332,351.39l-2.7,1.55c-.12.07-.11.18,0,.25l3.12,1.8a.47.47,0,0,0,.43,0l2.7-1.55c.11-.07.11-.18,0-.25l-3.11-1.8A.47.47,0,0,0,332,351.39Zm6.34,5.34a.5.5,0,0,0,.43,0l2.7-1.56c.11-.07.1-.18,0-.25l-3.12-1.8a.5.5,0,0,0-.43,0l-2.69,1.56c-.12.06-.11.18,0,.25Zm12.45,3.35,2.7-1.55c.11-.07.11-.18,0-.25l-3.12-1.8a.47.47,0,0,0-.43,0L347.2,358c-.12.06-.11.17,0,.24l3.12,1.8A.44.44,0,0,0,350.76,360.08Zm-4.37,2.27a.47.47,0,0,0,.43,0l2.7-1.56c.11-.06.1-.18,0-.25l-3.12-1.8a.5.5,0,0,0-.43,0l-2.69,1.56c-.12.07-.11.18,0,.25Zm-10.48-13.24-2.7,1.56c-.11.07-.11.18,0,.25l3.11,1.8a.5.5,0,0,0,.43,0l2.7-1.56c.12-.07.11-.18,0-.25l-3.12-1.8A.5.5,0,0,0,335.91,349.11Zm19.7-11.38-2.69,1.56c-.12.07-.11.18,0,.25l3.12,1.8a.5.5,0,0,0,.43,0l2.7-1.56c.11-.06.11-.18,0-.25l-3.12-1.8A.5.5,0,0,0,355.61,337.73Zm-15.76,9.11-2.7,1.55c-.11.07-.11.18,0,.25l3.12,1.8a.47.47,0,0,0,.43,0l2.69-1.56c.12-.06.11-.17,0-.24l-3.12-1.81A.47.47,0,0,0,339.85,346.84Zm19.71-11.38-2.7,1.56c-.12.06-.11.17,0,.24l3.12,1.8a.47.47,0,0,0,.43,0l2.7-1.55c.11-.07.11-.18,0-.25l-3.11-1.8A.47.47,0,0,0,359.56,335.46ZM351.67,340,349,341.57c-.12.06-.11.17,0,.24l3.12,1.81a.47.47,0,0,0,.43,0l2.7-1.55c.11-.07.1-.18,0-.25L352.1,340A.47.47,0,0,0,351.67,340Zm-3.94,2.28-2.7,1.55c-.11.07-.1.18,0,.25l3.12,1.8a.47.47,0,0,0,.43,0l2.7-1.56c.11-.06.1-.17,0-.25l-3.12-1.8A.47.47,0,0,0,347.73,342.29Zm-3.94,2.27-2.7,1.56c-.11.06-.1.18,0,.25l3.12,1.8a.5.5,0,0,0,.43,0l2.69-1.56c.12-.07.11-.18,0-.25l-3.12-1.8A.47.47,0,0,0,343.79,344.56Zm20.15,2.77,2.7-1.56c.11-.06.1-.17,0-.24l-3.12-1.8a.44.44,0,0,0-.43,0l-2.69,1.55c-.12.07-.11.18,0,.25l3.12,1.8A.47.47,0,0,0,363.94,347.33Zm34.62-34.39-2.7,1.56c-.12.06-.11.18,0,.25l3.12,1.8a.5.5,0,0,0,.43,0l2.7-1.56c.11-.07.11-.18,0-.25L399,313A.5.5,0,0,0,398.56,312.94Zm-4.78,2.76-2.69,1.55c-.12.07-.11.18,0,.25l3.12,1.8a.47.47,0,0,0,.43,0l2.7-1.56c.11-.06.11-.17,0-.24l-3.12-1.81A.47.47,0,0,0,393.78,315.7Zm8.72-5-2.7,1.55c-.11.07-.11.18,0,.25l3.11,1.8a.47.47,0,0,0,.43,0l2.7-1.56c.12-.06.11-.17,0-.25l-3.12-1.8A.47.47,0,0,0,402.5,310.67Zm-20.4,21,2.69-1.55c.12-.07.11-.18,0-.25l-3.12-1.8a.47.47,0,0,0-.43,0l-2.7,1.56c-.11.06-.11.17,0,.24l3.12,1.81A.47.47,0,0,0,382.1,331.7Zm24.77-23.3a.47.47,0,0,0-.43,0l-2.7,1.56c-.11.06-.11.17,0,.25l3.12,1.8a.47.47,0,0,0,.43,0l2.69-1.55c.12-.07.11-.18,0-.25Zm-39,36.66,2.7-1.56c.11-.07.1-.18,0-.25l-3.12-1.8a.47.47,0,0,0-.43,0L364.32,343c-.12.06-.11.18,0,.25l3.12,1.8A.5.5,0,0,0,367.88,345.06Zm48.34-27.91,2.69-1.56c.12-.06.11-.18,0-.25l-3.12-1.8a.5.5,0,0,0-.43,0l-2.7,1.56c-.11.07-.11.18,0,.25l3.12,1.8A.5.5,0,0,0,416.22,317.15Zm-8.4-.3,2.7-1.55c.11-.07.1-.18,0-.25l-3.12-1.8a.47.47,0,0,0-.43,0l-2.69,1.55c-.12.07-.11.18,0,.25l3.12,1.8A.47.47,0,0,0,407.82,316.85Zm3.5-5.88a.5.5,0,0,0-.43,0l-2.69,1.56c-.12.07-.11.18,0,.25l3.12,1.8a.5.5,0,0,0,.43,0l2.7-1.56c.11-.07.11-.18,0-.25Zm.83-.48,7.58,4.37a.44.44,0,0,0,.43,0l2.69-1.55c.12-.07.11-.18,0-.25l-7.57-4.37a.44.44,0,0,0-.43,0l-2.7,1.55C412,310.31,412,310.42,412.15,310.49Zm-9.14,5-2.7,1.56c-.11.07-.1.18,0,.25l3.12,1.8a.5.5,0,0,0,.43,0l2.69-1.56c.12-.07.11-.18,0-.25l-3.12-1.8A.5.5,0,0,0,403,315.51Zm-29.66,17.13-2.7,1.56c-.12.06-.11.17,0,.25l3.12,1.8a.5.5,0,0,0,.43,0l2.7-1.56c.11-.07.11-.18,0-.25l-3.11-1.8A.47.47,0,0,0,373.35,332.64Zm38.49-13.22a.47.47,0,0,0,.43,0l2.7-1.55c.12-.07.11-.18,0-.25l-3.12-1.8a.47.47,0,0,0-.43,0l-2.7,1.56c-.11.06-.11.17,0,.24Zm-34.55,10.94-2.7,1.56c-.11.07-.11.18,0,.25l3.11,1.8a.47.47,0,0,0,.43,0l2.7-1.56c.12-.06.11-.18,0-.25l-3.12-1.8A.5.5,0,0,0,377.29,330.36Zm-29.55,26.06a.44.44,0,0,0,.43,0l2.7-1.55c.11-.07.11-.18,0-.25l-3.11-1.8a.47.47,0,0,0-.43,0l-2.7,1.56c-.12.06-.11.17,0,.24Zm-5.93-5.57-2.69,1.55c-.12.07-.11.18,0,.25l3.12,1.8a.47.47,0,0,0,.43,0l2.7-1.56c.11-.06.11-.17,0-.25l-3.12-1.8A.47.47,0,0,0,341.81,350.85Zm10.3,3.31,2.7-1.56c.12-.07.11-.18,0-.25l-3.12-1.8a.5.5,0,0,0-.43,0l-2.7,1.56c-.11.07-.11.18,0,.25l3.11,1.8A.5.5,0,0,0,352.11,354.16Zm3.95-2.28,2.69-1.55c.12-.07.11-.18,0-.25l-3.12-1.8a.47.47,0,0,0-.43,0l-2.7,1.55c-.11.07-.11.18,0,.25l3.12,1.8A.47.47,0,0,0,356.06,351.88Zm3.94-2.27,2.69-1.56c.12-.07.11-.18,0-.25l-3.12-1.8a.5.5,0,0,0-.43,0l-2.7,1.56c-.11.06-.1.18,0,.25l3.12,1.8A.5.5,0,0,0,360,349.61Zm-14.24-1-2.7,1.56c-.12.06-.11.17,0,.25l3.12,1.8a.47.47,0,0,0,.43,0l2.7-1.55c.11-.07.11-.18,0-.25l-3.11-1.8A.47.47,0,0,0,345.76,348.57Zm3.94-2.28-2.7,1.56c-.11.07-.11.18,0,.25l3.11,1.8a.47.47,0,0,0,.43,0l2.7-1.56c.12-.06.11-.18,0-.25l-3.12-1.8A.5.5,0,0,0,349.7,346.29Zm15.76-9.1-2.69,1.56c-.12.07-.11.18,0,.25l3.12,1.8a.5.5,0,0,0,.43,0l2.7-1.56c.11-.07.1-.18,0-.25l-3.12-1.8A.5.5,0,0,0,365.46,337.19Zm-3.94,2.28-2.7,1.55c-.11.07-.1.18,0,.25l3.12,1.8a.47.47,0,0,0,.43,0l2.7-1.55c.11-.07.1-.18,0-.25l-3.12-1.8A.47.47,0,0,0,361.52,339.47Zm7.88-4.55-2.69,1.55c-.12.07-.11.18,0,.25l3.12,1.8a.47.47,0,0,0,.43,0L373,337c.11-.06.11-.17,0-.24l-3.12-1.81A.47.47,0,0,0,369.4,334.92ZM353.64,344l-2.7,1.56c-.11.06-.11.17,0,.24l3.12,1.8a.44.44,0,0,0,.43,0l2.69-1.55c.12-.07.11-.18,0-.25l-3.12-1.8A.47.47,0,0,0,353.64,344Zm3.94-2.28-2.7,1.56c-.11.07-.1.18,0,.25l3.12,1.8a.5.5,0,0,0,.43,0l2.69-1.56c.12-.07.11-.18,0-.25l-3.12-1.8A.5.5,0,0,0,357.58,341.74Zm-2.88,16.07,2.7-1.56c.11-.07.11-.18,0-.25l-3.11-1.8a.5.5,0,0,0-.43,0l-2.7,1.56c-.12.07-.11.18,0,.25l3.12,1.8A.5.5,0,0,0,354.7,357.81Zm-23.13-2.34-3.12-1.8a.5.5,0,0,0-.43,0l-2.69,1.56c-.12.07-.11.18,0,.25l3.12,1.8a.5.5,0,0,0,.43,0l2.7-1.56C331.7,355.65,331.7,355.54,331.57,355.47Zm5.91,1.74-3.12-1.8a.44.44,0,0,0-.43,0l-4.15,2.39c-.11.07-.11.18,0,.25l3.12,1.8a.47.47,0,0,0,.43,0l4.14-2.4C337.61,357.39,337.6,357.28,337.48,357.21ZM326.79,352l-3.12-1.8a.5.5,0,0,0-.43,0l-3.32,1.92c-.11.06-.11.18,0,.25l3.11,1.8a.5.5,0,0,0,.43,0l3.32-1.92C326.92,352.17,326.91,352.06,326.79,352Zm2.54-1.47a.47.47,0,0,0,.43,0l2.7-1.56c.11-.06.11-.17,0-.24l-3.11-1.8a.44.44,0,0,0-.43,0l-2.7,1.55c-.12.07-.11.18,0,.25ZM343,359.18l-3.12-1.8a.47.47,0,0,0-.43,0l-5.18,3c-.12.07-.11.18,0,.25l3.12,1.8a.47.47,0,0,0,.43,0l5.19-3C343.1,359.36,343.09,359.25,343,359.18Zm2.59,3.65-3.12-1.8a.47.47,0,0,0-.43,0l-3.32,1.92c-.11.06-.11.17,0,.24l3.12,1.81a.47.47,0,0,0,.43,0l3.31-1.91C345.69,363,345.68,362.9,345.56,362.83Zm13.08-29.23a.47.47,0,0,0,.43,0l2.69-1.56c.12-.06.11-.17,0-.24l-3.12-1.8a.44.44,0,0,0-.43,0l-2.7,1.55c-.11.07-.1.18,0,.25Zm-7.88,4.55a.44.44,0,0,0,.43,0l2.69-1.55c.12-.07.11-.18,0-.25l-3.12-1.8a.47.47,0,0,0-.43,0l-2.7,1.56c-.11.06-.11.17,0,.24Zm-17.49,10.1a.5.5,0,0,0,.43,0l2.7-1.56c.12-.07.11-.18,0-.25l-3.12-1.8a.47.47,0,0,0-.43,0l-2.7,1.56c-.11.06-.11.18,0,.25Zm21.43-12.37a.5.5,0,0,0,.43,0l2.69-1.56c.12-.07.11-.18,0-.25l-3.12-1.8a.5.5,0,0,0-.43,0l-2.7,1.56c-.11.07-.1.18,0,.25Zm-7.89,4.55a.5.5,0,0,0,.43,0l2.7-1.56c.12-.06.11-.18,0-.25l-3.12-1.8a.5.5,0,0,0-.43,0l-2.7,1.56c-.11.07-.11.18,0,.25Zm.92,22.69a.5.5,0,0,0-.43,0l-4.15,2.4c-.12.06-.11.18,0,.25l3.12,1.8a.5.5,0,0,0,.43,0l4.15-2.4c.11-.07.11-.18,0-.25Zm-6.57-19.42a.47.47,0,0,0,.43,0l2.69-1.55c.12-.07.11-.18,0-.25l-3.12-1.8a.47.47,0,0,0-.43,0l-2.7,1.56c-.11.06-.1.17,0,.25ZM337.22,346a.47.47,0,0,0,.43,0l2.69-1.56c.12-.06.11-.17,0-.25l-3.12-1.8a.47.47,0,0,0-.43,0l-2.7,1.55c-.11.07-.11.18,0,.25Zm83.53-25a.5.5,0,0,0-.43,0l-6.64,3.84c-.12.06-.11.17,0,.24l3.12,1.81a.47.47,0,0,0,.43,0l6.64-3.83c.12-.06.11-.18,0-.25ZM412,326a.5.5,0,0,0-.43,0l-2.69,1.56c-.12.07-.11.18,0,.25l3.12,1.8a.5.5,0,0,0,.43,0l2.7-1.56c.11-.06.11-.18,0-.25Zm-53.39,29.54,2.7-1.55c.12-.07.11-.18,0-.25l-3.12-1.8a.47.47,0,0,0-.43,0l-2.7,1.55c-.11.07-.11.18,0,.25l3.11,1.8A.47.47,0,0,0,358.64,355.53Zm45.51-25a.47.47,0,0,0-.43,0l-2.7,1.55c-.11.07-.1.18,0,.25l3.12,1.8a.47.47,0,0,0,.43,0l2.7-1.56c.11-.06.1-.17,0-.25Zm20.54-11.85a.47.47,0,0,0-.43,0l-2.7,1.56c-.11.06-.11.17,0,.24l3.12,1.8a.47.47,0,0,0,.43,0l2.69-1.55c.12-.07.11-.18,0-.25Zm7.06-.48-7.57-4.37a.47.47,0,0,0-.43,0l-2.7,1.56c-.12.06-.11.17,0,.25l7.58,4.37a.5.5,0,0,0,.43,0l2.69-1.56C431.88,318.39,431.87,318.28,431.75,318.21Zm-42.33,20.84a.47.47,0,0,0-.43,0L385.67,341c-.11.06-.1.17,0,.24l3.12,1.8a.44.44,0,0,0,.43,0l3.32-1.91c.11-.07.1-.18,0-.25Zm10-5.75a.47.47,0,0,0-.43,0l-4.15,2.4c-.11.06-.11.17,0,.24l3.11,1.8a.44.44,0,0,0,.43,0l4.15-2.39c.12-.07.11-.18,0-.25Zm-19.09,11a.47.47,0,0,0-.43,0l-22.19,12.81c-.12.07-.11.18,0,.25l3.12,1.8a.47.47,0,0,0,.43,0l22.2-12.81c.11-.07.11-.18,0-.25Zm-23.44,13.53a.5.5,0,0,0-.43,0l-3.32,1.92c-.11.07-.1.18,0,.25l3.12,1.8a.5.5,0,0,0,.43,0L360,359.9c.11-.07.1-.18,0-.25Zm28-16.17a.5.5,0,0,0-.43,0l-3.32,1.92c-.12.07-.11.18,0,.25l3.12,1.8a.5.5,0,0,0,.43,0l3.32-1.92c.12-.06.11-.18,0-.25Zm-32.57,18.81a.47.47,0,0,0-.43,0l-3.32,1.91c-.11.07-.11.18,0,.25l3.11,1.8a.47.47,0,0,0,.43,0l3.32-1.91c.12-.07.11-.18,0-.25ZM394,336.41a.5.5,0,0,0-.43,0l-3.32,1.92c-.12.07-.11.18,0,.25l3.12,1.8a.5.5,0,0,0,.43,0l3.32-1.92c.11-.06.11-.18,0-.25Zm14.1-8.14a.47.47,0,0,0-.43,0L405,329.82c-.12.06-.11.17,0,.25l3.12,1.8a.47.47,0,0,0,.43,0l2.7-1.55c.11-.07.1-.18,0-.25Zm8.64-6.27,2.7-1.56c.11-.07.1-.18,0-.25l-3.12-1.8a.5.5,0,0,0-.43,0l-2.69,1.56c-.12.06-.11.18,0,.25l3.12,1.8A.5.5,0,0,0,416.73,322Zm-17.62-.12,2.69-1.55c.12-.07.11-.18,0-.25l-3.12-1.8a.47.47,0,0,0-.43,0l-2.7,1.56c-.11.06-.1.17,0,.24l3.12,1.8A.47.47,0,0,0,399.11,321.88Zm-8.93,15.45,7.88-4.55c.11-.07.11-.18,0-.25l-3.11-1.8a.47.47,0,0,0-.43,0l-7.89,4.55c-.11.07-.11.18,0,.25l3.12,1.8A.5.5,0,0,0,390.18,337.33Zm22.18-13.07a.47.47,0,0,0,.43,0l2.69-1.55c.12-.07.11-.18,0-.25l-3.12-1.8a.47.47,0,0,0-.43,0l-2.7,1.55c-.11.07-.1.18,0,.25Zm-4-2.56,2.7-1.56c.11-.06.11-.17,0-.25l-3.11-1.8a.47.47,0,0,0-.43,0l-2.7,1.55c-.12.07-.11.18,0,.25l3.12,1.8A.47.47,0,0,0,408.33,321.7Zm-22.1,17.9,2.7-1.55c.12-.07.11-.18,0-.25L385.8,336a.47.47,0,0,0-.43,0l-2.7,1.56c-.11.06-.11.17,0,.24l3.11,1.8A.47.47,0,0,0,386.23,339.6Zm17.41-10.31a.47.47,0,0,0,.43,0l2.7-1.55c.12-.07.11-.18,0-.25l-3.12-1.8a.47.47,0,0,0-.43,0l-2.7,1.55c-.11.07-.11.18,0,.25ZM366.53,351l2.69-1.56c.12-.06.11-.17,0-.24l-3.12-1.8a.44.44,0,0,0-.43,0l-2.7,1.55c-.11.07-.1.18,0,.25l3.12,1.8A.47.47,0,0,0,366.53,351Zm3.94-2.27,2.7-1.56c.11-.07.1-.18,0-.25L370,345.1a.47.47,0,0,0-.43,0l-2.7,1.56c-.11.06-.1.17,0,.25l3.12,1.8A.5.5,0,0,0,370.47,348.71Zm-7.88,4.55,2.69-1.56c.12-.07.11-.18,0-.25l-3.12-1.8a.5.5,0,0,0-.43,0L359,351.2c-.11.06-.11.18,0,.25l3.12,1.8A.5.5,0,0,0,362.59,353.26Zm15.76-9.11,2.7-1.55c.11-.07.11-.18,0-.25l-3.12-1.8a.47.47,0,0,0-.43,0l-2.69,1.56c-.12.06-.11.17,0,.24l3.12,1.81A.47.47,0,0,0,378.35,344.15Zm-3.94,2.28,2.7-1.56c.11-.06.1-.17,0-.25l-3.12-1.8a.5.5,0,0,0-.43,0l-2.69,1.56c-.12.07-.11.18,0,.25l3.12,1.8A.47.47,0,0,0,374.41,346.43Zm7.88-4.55,2.7-1.56c.11-.06.11-.18,0-.25l-3.11-1.8a.5.5,0,0,0-.43,0l-2.7,1.56c-.12.07-.11.18,0,.25l3.12,1.8A.5.5,0,0,0,382.29,341.88Zm18-33.67a.47.47,0,0,0,.43,0l2.69-1.55c.12-.07.11-.18,0-.25l-.83-.48a.47.47,0,0,0-.43,0l-2.7,1.56c-.11.06-.11.17,0,.24Zm-19.4,12.52a.47.47,0,0,0,.43,0l2.7-1.56c.11-.06.11-.17,0-.25l-3.11-1.8a.47.47,0,0,0-.43,0l-2.7,1.55c-.12.07-.11.18,0,.25Zm7.89-4.55a.47.47,0,0,0,.43,0l2.69-1.56c.12-.06.11-.18,0-.25l-3.12-1.8a.5.5,0,0,0-.43,0l-2.7,1.56c-.11.07-.11.18,0,.25Zm-12.7,7.33a.47.47,0,0,0,.43,0l2.7-1.56c.11-.06.1-.18,0-.25l-3.12-1.8a.5.5,0,0,0-.43,0L373,321.46c-.12.07-.11.18,0,.25Zm8.75-5.05a.47.47,0,0,0,.43,0l2.7-1.55c.11-.07.11-.18,0-.25l-3.12-1.8a.47.47,0,0,0-.43,0l-2.7,1.56c-.11.06-.11.17,0,.25Zm-16.63,9.6a.47.47,0,0,0,.43,0l2.69-1.56c.12-.06.11-.17,0-.25l-3.12-1.8a.47.47,0,0,0-.43,0L365.1,326c-.11.07-.11.18,0,.25Zm3.94-2.27a.47.47,0,0,0,.43,0l2.69-1.55c.12-.07.11-.18,0-.25l-3.12-1.8a.47.47,0,0,0-.43,0l-2.7,1.56c-.11.06-.1.17,0,.25Zm20.26-13a.44.44,0,0,0,.43,0l2.7-1.55c.11-.07.11-.18,0-.25l-.83-.48a.47.47,0,0,0-.43,0L391.6,312c-.12.06-.11.17,0,.25Zm11.83-6.82a.5.5,0,0,0,.43,0l2.69-1.56c.12-.07.11-.18,0-.25l-.83-.48a.5.5,0,0,0-.43,0l-2.7,1.56c-.11.07-.11.18,0,.25Zm6.55,3.78a.47.47,0,0,0,.43,0l2.69-1.56c.12-.06.11-.18,0-.25l-3.12-1.8a.5.5,0,0,0-.43,0l-2.7,1.56c-.11.07-.1.18,0,.25Zm9.85,10,2.7-1.56c.11-.06.11-.17,0-.24l-3.12-1.81a.47.47,0,0,0-.43,0l-2.69,1.55c-.12.07-.11.18,0,.25l3.12,1.8A.47.47,0,0,0,420.67,319.72Zm-24.29-9.23a.5.5,0,0,0,.43,0l2.7-1.56c.12-.06.11-.18,0-.25l-.83-.48a.5.5,0,0,0-.43,0l-2.7,1.56c-.12.07-.11.18,0,.25Zm-32.09,19.85a.5.5,0,0,0,.43,0l2.7-1.56c.12-.07.11-.18,0-.25l-3.12-1.8a.5.5,0,0,0-.43,0l-2.7,1.56c-.11.06-.11.18,0,.25Z"/><path class="cls-12" d="M395.1,323.54l2.7-1.56c.12-.06.11-.18,0-.25l-3.12-1.8a.5.5,0,0,0-.43,0l-2.7,1.56c-.11.07-.11.18,0,.25l3.11,1.8A.5.5,0,0,0,395.1,323.54Zm-5.32-6.19-2.69,1.56c-.12.07-.11.18,0,.25l3.12,1.8a.5.5,0,0,0,.43,0l2.7-1.56c.11-.07.1-.18,0-.25l-3.12-1.8A.5.5,0,0,0,389.78,317.35Zm-8.71,5L376.51,325c-.12.06-.11.17,0,.25l3.12,1.8a.47.47,0,0,0,.43,0l4.56-2.63c.12-.07.11-.18,0-.25l-3.12-1.8A.5.5,0,0,0,381.07,322.38Zm4.77-2.75-2.7,1.55c-.11.07-.1.18,0,.25l3.12,1.8a.47.47,0,0,0,.43,0l2.69-1.55c.12-.07.11-.18,0-.25l-3.12-1.8A.47.47,0,0,0,385.84,319.63Zm-10.58,6.11-2.7,1.55c-.11.07-.1.18,0,.25l3.12,1.8a.47.47,0,0,0,.43,0l2.69-1.56c.12-.06.11-.17,0-.24l-3.12-1.81A.47.47,0,0,0,375.26,325.74ZM371.32,328l-2.7,1.56c-.11.06-.11.18,0,.25l3.12,1.8a.5.5,0,0,0,.43,0l2.69-1.56c.12-.07.11-.18,0-.25l-3.12-1.8A.5.5,0,0,0,371.32,328Zm12.27,7.32,2.69-1.55c.12-.07.11-.18,0-.25l-3.12-1.8a.47.47,0,0,0-.43,0l-2.7,1.56c-.11.06-.11.17,0,.24l3.12,1.8A.44.44,0,0,0,383.59,335.33Zm-3.95,2.28,2.7-1.56c.12-.06.11-.18,0-.25l-3.12-1.8a.5.5,0,0,0-.43,0l-2.7,1.56c-.11.07-.11.18,0,.25l3.12,1.8A.5.5,0,0,0,379.64,337.61Zm-3.94,2.27,2.7-1.55c.11-.07.11-.18,0-.25l-3.11-1.8a.47.47,0,0,0-.43,0l-2.7,1.56c-.12.06-.11.17,0,.24l3.12,1.81A.47.47,0,0,0,375.7,339.88Zm-3.94,2.28,2.7-1.56c.11-.06.11-.17,0-.25l-3.12-1.8a.47.47,0,0,0-.43,0l-2.69,1.55c-.12.07-.11.18,0,.25l3.12,1.8A.47.47,0,0,0,371.76,342.16Zm19.4-16.35,2.7-1.55c.11-.07.11-.18,0-.25l-3.11-1.8a.47.47,0,0,0-.43,0l-2.7,1.56c-.12.06-.11.17,0,.24l3.12,1.81A.47.47,0,0,0,391.16,325.81Zm-3.63,7.25,6-3.48c.12-.06.11-.17,0-.24L386,325a.5.5,0,0,0-.43,0l-3.11,1.8c-.11.07-.11.18,0,.25l4,2.31c.12.07.13.19,0,.25L384,331c-.11.07-.1.18,0,.25l3.12,1.8A.5.5,0,0,0,387.53,333.06Zm-20.15-2.77-2.7,1.55c-.11.07-.11.18,0,.25l3.11,1.8a.47.47,0,0,0,.43,0l2.7-1.56c.12-.06.11-.17,0-.24l-3.12-1.8A.44.44,0,0,0,367.38,330.29Zm-3.94,2.27-2.7,1.56c-.12.07-.11.18,0,.25l3.12,1.8a.5.5,0,0,0,.43,0l2.7-1.56c.11-.07.11-.18,0-.25l-3.11-1.8A.5.5,0,0,0,363.44,332.56Zm-19.7,25.52a.47.47,0,0,0,.43,0l2.7-1.56c.11-.06.1-.18,0-.25l-3.12-1.8a.5.5,0,0,0-.43,0L340.61,356c-.12.07-.11.18,0,.25Zm-11.84-7.31-2.69,1.55c-.12.07-.11.18,0,.25l3.12,1.8a.47.47,0,0,0,.43,0l2.7-1.55c.11-.07.11-.18,0-.25l-3.12-1.8A.47.47,0,0,0,331.9,350.77Zm6.35,5.34a.5.5,0,0,0,.43,0l2.69-1.56c.12-.07.11-.18,0-.25l-3.12-1.8a.5.5,0,0,0-.43,0l-2.7,1.56c-.11.06-.1.18,0,.25Zm12.45,3.35,2.7-1.55c.11-.07.1-.18,0-.25l-3.12-1.8a.47.47,0,0,0-.43,0l-2.69,1.56c-.12.06-.11.17,0,.24l3.12,1.8A.44.44,0,0,0,350.7,359.46Zm-4.37,2.27a.47.47,0,0,0,.43,0l2.69-1.56c.12-.06.11-.18,0-.25l-3.12-1.8a.5.5,0,0,0-.43,0l-2.7,1.56c-.11.07-.1.18,0,.25Zm-10.48-13.24-2.7,1.56c-.12.07-.11.18,0,.25l3.12,1.8a.5.5,0,0,0,.43,0l2.7-1.56c.11-.07.11-.18,0-.25l-3.11-1.8A.5.5,0,0,0,335.85,348.49Zm19.7-11.38-2.69,1.56c-.12.07-.11.18,0,.25l3.12,1.8a.5.5,0,0,0,.43,0l2.7-1.56c.11-.06.1-.18,0-.25l-3.12-1.8A.5.5,0,0,0,355.55,337.11Zm-15.76,9.11-2.7,1.55c-.11.07-.11.18,0,.25l3.11,1.8a.47.47,0,0,0,.43,0l2.7-1.56c.12-.06.11-.17,0-.24l-3.12-1.8A.44.44,0,0,0,339.79,346.22Zm19.7-11.38-2.69,1.56c-.12.06-.11.17,0,.24l3.12,1.8a.44.44,0,0,0,.43,0l2.7-1.55c.11-.07.11-.18,0-.25l-3.12-1.8A.47.47,0,0,0,359.49,334.84Zm-7.88,4.55-2.7,1.56c-.11.06-.1.17,0,.25l3.12,1.8a.47.47,0,0,0,.43,0l2.7-1.55c.11-.07.1-.18,0-.25L352,339.4A.47.47,0,0,0,351.61,339.39Zm-3.94,2.28-2.7,1.55c-.11.07-.1.18,0,.25l3.12,1.8a.47.47,0,0,0,.43,0l2.69-1.56c.12-.06.11-.17,0-.25l-3.12-1.8A.47.47,0,0,0,347.67,341.67Zm-3.94,2.27L341,345.5c-.11.06-.11.18,0,.25l3.12,1.8a.5.5,0,0,0,.43,0l2.69-1.56c.12-.07.11-.18,0-.25l-3.12-1.8A.47.47,0,0,0,343.73,343.94Zm20.15,2.77,2.69-1.56c.12-.06.11-.17,0-.24l-3.12-1.8a.44.44,0,0,0-.43,0l-2.7,1.55c-.11.07-.1.18,0,.25l3.12,1.8A.47.47,0,0,0,363.88,346.71Zm34.61-34.39-2.69,1.56c-.12.06-.11.18,0,.25l3.12,1.8a.5.5,0,0,0,.43,0l2.7-1.56c.11-.07.11-.18,0-.25l-3.11-1.8A.52.52,0,0,0,398.49,312.32Zm-4.77,2.76L391,316.63c-.12.07-.11.18,0,.25l3.12,1.8a.47.47,0,0,0,.43,0l2.7-1.56c.11-.06.11-.17,0-.24l-3.12-1.8A.44.44,0,0,0,393.72,315.08Zm8.72-5-2.7,1.55c-.11.07-.11.18,0,.25l3.12,1.8a.47.47,0,0,0,.43,0l2.7-1.56c.11-.06.11-.17,0-.24l-3.11-1.81A.47.47,0,0,0,402.44,310.05Zm-20.41,21,2.7-1.55c.12-.07.11-.18,0-.25l-3.12-1.8a.47.47,0,0,0-.43,0l-2.7,1.56c-.11.06-.11.17,0,.24l3.11,1.81A.47.47,0,0,0,382,331.08Zm24.78-23.3a.47.47,0,0,0-.43,0l-2.7,1.56c-.11.06-.11.17,0,.25l3.11,1.8a.47.47,0,0,0,.43,0l2.7-1.55c.12-.07.11-.18,0-.25Zm-39,36.66,2.7-1.56c.11-.07.1-.18,0-.25l-3.12-1.8a.47.47,0,0,0-.43,0l-2.69,1.56c-.12.06-.11.18,0,.25l3.12,1.8A.5.5,0,0,0,367.82,344.44Zm48.33-27.91,2.7-1.56c.12-.06.11-.18,0-.25l-3.12-1.8a.5.5,0,0,0-.43,0l-2.7,1.56c-.11.07-.11.18,0,.25l3.11,1.8A.47.47,0,0,0,416.15,316.53Zm-8.39-.3,2.7-1.55c.11-.07.1-.18,0-.25l-3.12-1.8a.47.47,0,0,0-.43,0l-2.7,1.55c-.11.07-.1.18,0,.25l3.12,1.8A.47.47,0,0,0,407.76,316.23Zm3.5-5.88a.5.5,0,0,0-.43,0l-2.69,1.56c-.12.07-.11.18,0,.25l3.12,1.8a.5.5,0,0,0,.43,0l2.7-1.56c.11-.07.1-.18,0-.25Zm.83-.48,7.58,4.37a.44.44,0,0,0,.43,0l2.69-1.55c.12-.07.11-.18,0-.25l-7.58-4.37a.44.44,0,0,0-.43,0l-2.69,1.55C412,309.69,412,309.8,412.09,309.87Zm-9.14,5-2.7,1.56c-.11.07-.11.18,0,.25l3.12,1.8a.5.5,0,0,0,.43,0l2.69-1.56c.12-.07.11-.18,0-.25l-3.12-1.8A.5.5,0,0,0,403,314.89ZM373.28,332l-2.69,1.56c-.12.06-.11.18,0,.25l3.12,1.8a.5.5,0,0,0,.43,0l2.7-1.56c.11-.07.11-.18,0-.25l-3.12-1.8A.47.47,0,0,0,373.28,332Zm38.5-13.22a.47.47,0,0,0,.43,0l2.7-1.55c.11-.07.11-.18,0-.25l-3.11-1.8a.47.47,0,0,0-.43,0l-2.7,1.56c-.12.06-.11.17,0,.25Zm-34.55,10.95-2.7,1.55c-.12.07-.11.18,0,.25l3.12,1.8a.47.47,0,0,0,.43,0l2.7-1.56c.11-.06.11-.17,0-.25l-3.11-1.8A.47.47,0,0,0,377.23,329.75ZM347.68,355.8a.44.44,0,0,0,.43,0l2.7-1.55c.11-.07.11-.18,0-.25l-3.12-1.8a.47.47,0,0,0-.43,0l-2.69,1.56c-.12.06-.11.17,0,.24Zm-5.93-5.57-2.69,1.55c-.12.07-.11.18,0,.25l3.12,1.8a.47.47,0,0,0,.43,0l2.7-1.56c.11-.06.1-.17,0-.24l-3.12-1.81A.47.47,0,0,0,341.75,350.23Zm10.3,3.31,2.7-1.56c.11-.07.11-.18,0-.25l-3.11-1.8a.5.5,0,0,0-.43,0l-2.7,1.56c-.12.07-.11.18,0,.25l3.12,1.8A.5.5,0,0,0,352.05,353.54Zm3.94-2.28,2.7-1.55c.12-.07.11-.18,0-.25l-3.12-1.8a.47.47,0,0,0-.43,0l-2.7,1.55c-.11.07-.11.18,0,.25l3.11,1.8A.47.47,0,0,0,356,351.26Zm3.95-2.27,2.69-1.56c.12-.07.11-.18,0-.25l-3.12-1.8a.5.5,0,0,0-.43,0l-2.7,1.56c-.11.07-.11.18,0,.25l3.12,1.8A.5.5,0,0,0,359.94,349Zm-14.25-1L343,349.51c-.12.06-.11.17,0,.25l3.12,1.8a.47.47,0,0,0,.43,0l2.7-1.55c.11-.07.11-.18,0-.25l-3.12-1.8A.47.47,0,0,0,345.69,348Zm3.95-2.28-2.7,1.56c-.12.07-.11.18,0,.25l3.12,1.8a.47.47,0,0,0,.43,0l2.7-1.56c.11-.06.11-.18,0-.25l-3.11-1.8A.5.5,0,0,0,349.64,345.67Zm15.76-9.1-2.7,1.56c-.11.07-.1.18,0,.25l3.12,1.8a.5.5,0,0,0,.43,0l2.7-1.56c.11-.07.1-.18,0-.25l-3.12-1.8A.5.5,0,0,0,365.4,336.57Zm-3.94,2.28-2.7,1.55c-.11.07-.1.18,0,.25l3.12,1.8a.47.47,0,0,0,.43,0l2.69-1.55c.12-.07.11-.18,0-.25l-3.12-1.8A.47.47,0,0,0,361.46,338.85Zm7.88-4.55-2.69,1.55c-.12.07-.11.18,0,.25l3.12,1.8a.47.47,0,0,0,.43,0l2.7-1.56c.11-.06.1-.17,0-.24l-3.12-1.8A.44.44,0,0,0,369.34,334.3Zm-15.76,9.1-2.7,1.56c-.11.06-.11.17,0,.24L354,347a.44.44,0,0,0,.43,0l2.7-1.55c.12-.07.11-.18,0-.25l-3.12-1.8A.47.47,0,0,0,353.58,343.4Zm3.94-2.28-2.7,1.56c-.11.07-.11.18,0,.25l3.12,1.8a.5.5,0,0,0,.43,0l2.69-1.56c.12-.07.11-.18,0-.25l-3.12-1.8A.5.5,0,0,0,357.52,341.12Zm-2.88,16.07,2.7-1.56c.11-.07.11-.18,0-.25l-3.12-1.8a.5.5,0,0,0-.43,0l-2.69,1.56c-.12.07-.11.18,0,.25l3.12,1.8A.5.5,0,0,0,354.64,357.19Zm-23.13-2.34-3.12-1.8a.5.5,0,0,0-.43,0l-2.69,1.56c-.12.07-.11.18,0,.25l3.12,1.8a.5.5,0,0,0,.43,0l2.7-1.56C331.64,355,331.63,354.92,331.51,354.85Zm5.91,1.74-3.12-1.8a.47.47,0,0,0-.43,0l-4.15,2.39c-.11.07-.11.18,0,.25l3.11,1.8a.47.47,0,0,0,.43,0l4.15-2.4C337.55,356.77,337.54,356.66,337.42,356.59Zm-10.69-5.22-3.12-1.8a.5.5,0,0,0-.43,0l-3.32,1.92c-.12.07-.11.18,0,.25l3.12,1.8a.5.5,0,0,0,.43,0l3.32-1.92C326.86,351.55,326.85,351.44,326.73,351.37Zm2.54-1.47a.47.47,0,0,0,.43,0l2.7-1.56c.11-.06.11-.17,0-.24l-3.12-1.8a.44.44,0,0,0-.43,0l-2.69,1.55c-.12.07-.11.18,0,.25Zm13.64,8.66-3.12-1.8a.47.47,0,0,0-.43,0l-5.18,3c-.12.07-.11.18,0,.25l3.12,1.8a.47.47,0,0,0,.43,0l5.19-3C343,358.74,343,358.63,342.91,358.56Zm2.59,3.65-3.12-1.8a.47.47,0,0,0-.43,0l-3.32,1.92c-.11.06-.11.17,0,.24l3.11,1.81a.47.47,0,0,0,.43,0l3.32-1.91C345.63,362.39,345.62,362.28,345.5,362.21ZM358.58,333a.47.47,0,0,0,.43,0l2.69-1.56c.12-.06.11-.17,0-.24l-3.12-1.8a.47.47,0,0,0-.43,0l-2.7,1.55c-.11.07-.1.18,0,.25Zm-7.89,4.55a.44.44,0,0,0,.43,0l2.7-1.55c.12-.07.11-.18,0-.25l-3.12-1.8a.47.47,0,0,0-.43,0l-2.7,1.56c-.11.06-.11.17,0,.24Zm-17.48,10.1a.5.5,0,0,0,.43,0l2.7-1.56c.11-.07.11-.18,0-.25l-3.11-1.8a.5.5,0,0,0-.43,0l-2.7,1.56c-.12.06-.11.18,0,.25Zm21.43-12.37a.5.5,0,0,0,.43,0l2.69-1.56c.12-.07.11-.18,0-.25l-3.12-1.8a.5.5,0,0,0-.43,0l-2.7,1.56c-.11.07-.11.18,0,.25Zm-7.89,4.55a.47.47,0,0,0,.43,0l2.7-1.56c.11-.06.11-.18,0-.25l-3.11-1.8a.5.5,0,0,0-.43,0l-2.7,1.56c-.12.07-.11.18,0,.25Zm.91,22.69a.5.5,0,0,0-.43,0l-4.15,2.4c-.11.06-.1.18,0,.25l3.12,1.8a.5.5,0,0,0,.43,0l4.15-2.4c.11-.07.11-.18,0-.25Zm-6.56-19.42a.47.47,0,0,0,.43,0l2.69-1.55c.12-.07.11-.18,0-.25l-3.12-1.8a.47.47,0,0,0-.43,0L338,341c-.11.06-.11.17,0,.25Zm-4,2.27a.47.47,0,0,0,.43,0l2.7-1.56c.12-.06.11-.17,0-.24l-3.12-1.81a.47.47,0,0,0-.43,0L334,343.3c-.11.07-.11.18,0,.25Zm83.54-25a.5.5,0,0,0-.43,0l-6.64,3.84c-.12.06-.11.17,0,.25l3.12,1.8a.47.47,0,0,0,.43,0l6.64-3.83c.11-.06.11-.18,0-.25Zm-8.72,5a.5.5,0,0,0-.43,0l-2.69,1.56c-.12.07-.11.18,0,.25L412,329a.47.47,0,0,0,.43,0l2.7-1.56c.11-.06.1-.18,0-.25Zm-53.39,29.54,2.7-1.55c.11-.07.11-.18,0-.25l-3.11-1.8a.47.47,0,0,0-.43,0l-2.7,1.55c-.12.07-.11.18,0,.25l3.12,1.8A.47.47,0,0,0,358.58,354.91Zm45.51-25a.47.47,0,0,0-.43,0l-2.7,1.55c-.11.07-.1.18,0,.25l3.12,1.8a.47.47,0,0,0,.43,0l2.69-1.56c.12-.06.11-.17,0-.24Zm20.54-11.85a.47.47,0,0,0-.43,0l-2.7,1.56c-.11.06-.11.17,0,.24l3.11,1.8a.44.44,0,0,0,.43,0l2.7-1.55c.12-.07.11-.18,0-.25Zm7.06-.48-7.58-4.37a.47.47,0,0,0-.43,0L421,314.77c-.12.06-.11.18,0,.25l7.58,4.37a.5.5,0,0,0,.43,0l2.69-1.56C431.82,317.77,431.81,317.66,431.69,317.59Zm-42.33,20.84a.47.47,0,0,0-.43,0l-3.32,1.92c-.11.06-.11.17,0,.24l3.12,1.8a.44.44,0,0,0,.43,0l3.31-1.91c.12-.07.11-.18,0-.25Zm10-5.75a.47.47,0,0,0-.43,0l-4.15,2.4c-.11.06-.11.17,0,.24l3.12,1.8a.44.44,0,0,0,.43,0l4.15-2.39c.12-.07.11-.18,0-.25Zm-19.09,11a.47.47,0,0,0-.43,0L357.61,356.5c-.12.07-.11.18,0,.25l3.12,1.8a.47.47,0,0,0,.43,0l22.2-12.81c.11-.07.1-.18,0-.25Zm-23.44,13.53a.5.5,0,0,0-.43,0L353,359.14c-.11.07-.11.18,0,.25l3.12,1.8a.5.5,0,0,0,.43,0l3.32-1.92c.11-.07.1-.18,0-.25Zm28-16.17a.5.5,0,0,0-.43,0L381.05,343c-.12.07-.11.18,0,.25l3.12,1.8a.5.5,0,0,0,.43,0l3.32-1.92c.12-.06.11-.18,0-.25Zm-32.57,18.81a.47.47,0,0,0-.43,0l-3.32,1.91c-.12.07-.11.18,0,.25l3.12,1.8a.47.47,0,0,0,.43,0l3.32-1.91c.12-.07.11-.18,0-.25Zm41.7-24.08a.52.52,0,0,0-.44,0l-3.31,1.92c-.12.07-.11.18,0,.25l3.12,1.8a.5.5,0,0,0,.43,0l3.32-1.92c.11-.06.11-.18,0-.25Zm14.1-8.14a.47.47,0,0,0-.43,0l-2.7,1.56c-.11.06-.1.17,0,.25l3.12,1.8a.47.47,0,0,0,.43,0l2.7-1.55c.11-.07.1-.18,0-.25Zm8.64-6.27,2.69-1.56c.12-.07.11-.18,0-.25l-3.12-1.8a.5.5,0,0,0-.43,0l-2.7,1.56c-.11.06-.1.18,0,.25l3.12,1.8A.5.5,0,0,0,416.67,321.38Zm-17.62-.12,2.69-1.55c.12-.07.11-.18,0-.25l-3.12-1.8a.47.47,0,0,0-.43,0l-2.7,1.56c-.11.06-.11.17,0,.24l3.12,1.8A.44.44,0,0,0,399.05,321.26Zm-8.94,15.45,7.89-4.55c.11-.07.11-.18,0-.25l-3.12-1.8a.47.47,0,0,0-.43,0l-7.88,4.55c-.11.07-.11.18,0,.25l3.11,1.8A.5.5,0,0,0,390.11,336.71Zm22.19-13.07a.47.47,0,0,0,.43,0l2.69-1.55c.12-.07.11-.18,0-.25l-3.12-1.8a.47.47,0,0,0-.43,0l-2.7,1.55c-.11.07-.11.18,0,.25Zm-4-2.56,2.7-1.56c.11-.06.11-.17,0-.25l-3.12-1.8a.47.47,0,0,0-.43,0L404.71,319c-.12.07-.11.18,0,.25l3.12,1.8A.47.47,0,0,0,408.27,321.08ZM386.17,339l2.7-1.55c.11-.07.11-.18,0-.25l-3.11-1.8a.47.47,0,0,0-.43,0l-2.7,1.56c-.12.06-.11.17,0,.24l3.12,1.8A.44.44,0,0,0,386.17,339Zm17.41-10.31a.47.47,0,0,0,.43,0l2.7-1.55c.11-.07.11-.18,0-.25l-3.12-1.8a.47.47,0,0,0-.43,0l-2.7,1.55c-.12.07-.11.18,0,.25Zm-37.11,21.69,2.69-1.56c.12-.06.11-.17,0-.24l-3.12-1.8a.44.44,0,0,0-.43,0l-2.7,1.55c-.11.07-.11.18,0,.25l3.12,1.8A.47.47,0,0,0,366.47,350.36Zm3.94-2.27,2.69-1.56c.12-.07.11-.18,0-.25l-3.12-1.8a.47.47,0,0,0-.43,0l-2.7,1.56c-.11.06-.1.18,0,.25l3.12,1.8A.5.5,0,0,0,370.41,348.09Zm-7.89,4.55,2.7-1.56c.12-.07.11-.18,0-.25l-3.12-1.8a.5.5,0,0,0-.43,0l-2.7,1.56c-.11.07-.11.18,0,.25l3.11,1.8A.5.5,0,0,0,362.52,352.64Zm15.77-9.11L381,342c.11-.07.1-.18,0-.25l-3.12-1.8a.47.47,0,0,0-.43,0l-2.69,1.56c-.12.06-.11.17,0,.24l3.12,1.81A.47.47,0,0,0,378.29,343.53Zm-3.94,2.28,2.7-1.56c.11-.06.1-.17,0-.25l-3.12-1.8a.47.47,0,0,0-.43,0l-2.7,1.55c-.11.07-.1.18,0,.25l3.12,1.8A.47.47,0,0,0,374.35,345.81Zm7.88-4.55,2.7-1.56c.11-.06.11-.18,0-.25l-3.12-1.8a.5.5,0,0,0-.43,0l-2.69,1.56c-.12.07-.11.18,0,.25l3.12,1.8A.5.5,0,0,0,382.23,341.26Zm18-33.67a.47.47,0,0,0,.43,0l2.7-1.55c.12-.07.11-.18,0-.25l-.83-.48a.47.47,0,0,0-.43,0l-2.7,1.56c-.12.06-.11.17,0,.24Zm-19.39,12.52a.47.47,0,0,0,.43,0l2.7-1.56c.11-.06.11-.17,0-.24l-3.12-1.81a.47.47,0,0,0-.43,0l-2.69,1.55c-.12.07-.11.18,0,.25Zm7.88-4.55a.47.47,0,0,0,.43,0l2.7-1.56c.12-.06.11-.17,0-.25l-3.12-1.8a.5.5,0,0,0-.43,0l-2.7,1.56c-.11.07-.11.18,0,.25Zm-12.69,7.33a.47.47,0,0,0,.43,0l2.69-1.56c.12-.06.11-.18,0-.25l-3.12-1.8a.5.5,0,0,0-.43,0l-2.7,1.56c-.11.07-.1.18,0,.25Zm8.75-5.05a.5.5,0,0,0,.43,0l2.7-1.56c.11-.07.11-.18,0-.25l-3.11-1.8a.47.47,0,0,0-.43,0l-2.7,1.56c-.12.06-.11.17,0,.25Zm-16.64,9.6a.47.47,0,0,0,.43,0l2.7-1.56c.12-.06.11-.17,0-.24l-3.12-1.81a.47.47,0,0,0-.43,0l-2.7,1.55c-.11.07-.11.18,0,.25Zm3.95-2.27a.47.47,0,0,0,.43,0l2.69-1.55c.12-.07.11-.18,0-.25l-3.12-1.8a.47.47,0,0,0-.43,0l-2.7,1.56c-.11.06-.11.17,0,.25Zm20.26-13a.47.47,0,0,0,.43,0l2.7-1.55c.11-.07.11-.18,0-.25l-.83-.48a.47.47,0,0,0-.43,0l-2.69,1.56c-.12.06-.11.17,0,.25Zm11.83-6.83a.5.5,0,0,0,.43,0l2.69-1.56c.12-.07.11-.18,0-.25l-.83-.48a.5.5,0,0,0-.43,0l-2.7,1.56c-.11.07-.11.18,0,.25Zm6.55,3.78a.47.47,0,0,0,.43,0l2.69-1.56c.12-.06.11-.18,0-.25l-3.12-1.8a.5.5,0,0,0-.43,0l-2.7,1.56c-.11.07-.11.18,0,.25Zm9.85,10,2.7-1.56c.11-.06.1-.17,0-.24l-3.12-1.8a.44.44,0,0,0-.43,0L417.05,317c-.12.07-.11.18,0,.25l3.12,1.8A.47.47,0,0,0,420.61,319.1Zm-24.29-9.23a.5.5,0,0,0,.43,0l2.7-1.56c.11-.06.11-.18,0-.25l-.83-.48a.47.47,0,0,0-.43,0l-2.69,1.55c-.12.07-.11.18,0,.25Zm-32.09,19.85a.5.5,0,0,0,.43,0l2.7-1.56c.11-.07.11-.18,0-.25l-3.12-1.8a.5.5,0,0,0-.43,0l-2.7,1.56c-.11.06-.11.18,0,.25Z"/><path class="cls-6" d="M381.77,354l26.62-15.37a3.22,3.22,0,0,1,2.9,0l15.26,8.81a.89.89,0,0,1,0,1.68l-26.61,15.36a3.18,3.18,0,0,1-2.91,0l-15.26-8.81A.88.88,0,0,1,381.77,354Z"/><path class="cls-11" d="M381.77,354l26.62-15.37a3.22,3.22,0,0,1,2.9,0l15.26,8.81a.89.89,0,0,1,0,1.68l-26.61,15.36a3.18,3.18,0,0,1-2.91,0l-15.26-8.81A.88.88,0,0,1,381.77,354Z"/><path class="cls-6" d="M294,344.34a3.31,3.31,0,0,0,.74.32,3.29,3.29,0,0,1-.74-.31l-.23-.15Z"/><path class="cls-6" d="M298.27,344.57l0,0,0,0Z"/></g><g id="Window"><path class="cls-15" d="M302.13,326.6c0,1.14.8,1.6,1.79,1L386,280.24a4,4,0,0,0,1.79-3.1V221.88l-85.66,49.46Z"/><path class="cls-15" d="M302.13,326.6c0,1.14.8,1.6,1.79,1L386,280.24a4,4,0,0,0,1.79-3.1V221.88l-85.66,49.46Z"/><path class="cls-15" d="M302.13,267.59a4,4,0,0,1,1.79-3.1L386,217.09c1-.57,1.79-.1,1.79,1v3.75l-85.66,49.46Z"/><g class="cls-16"><path class="cls-17" d="M377.72,223.81a1.85,1.85,0,0,0-.84,1.46c0,.53.37.75.84.48a1.85,1.85,0,0,0,.84-1.45C378.56,223.76,378.18,223.55,377.72,223.81Z"/><path class="cls-17" d="M380.66,222.12a1.85,1.85,0,0,0-.84,1.46c0,.53.37.75.84.48a1.87,1.87,0,0,0,.84-1.45C381.5,222.07,381.12,221.85,380.66,222.12Z"/><path class="cls-17" d="M383.59,220.43a1.86,1.86,0,0,0-.83,1.45c0,.54.37.76.83.49a1.85,1.85,0,0,0,.84-1.46C384.43,220.38,384.06,220.16,383.59,220.43Z"/></g></g><path class="cls-15" d="M369.33,396.59a9.17,9.17,0,0,1-4.62-1.17l-65.86-38a5.94,5.94,0,0,1,0-10.59l90.11-52a9.65,9.65,0,0,1,9.25,0l65.85,38a5.93,5.93,0,0,1,0,10.58l-90.11,52A9.17,9.17,0,0,1,369.33,396.59Z"/><g id="www" class="cls-16"><path class="cls-17" d="M334,271.69c.17-.1.31-.11.4,0a.65.65,0,0,1,.19.32l1.29,5.34,1.29-6.83a2.52,2.52,0,0,1,.19-.54.91.91,0,0,1,.4-.44l2.16-1.25a.21.21,0,0,1,.29,0,.46.46,0,0,1,.13.38,2,2,0,0,1,0,.23l-2.77,14a2.6,2.6,0,0,1-.18.56,1,1,0,0,1-.39.44l-2,1.15c-.17.1-.3.1-.38,0a1.08,1.08,0,0,1-.19-.35l-1.24-4.91L332,286.14a3.44,3.44,0,0,1-.2.56.82.82,0,0,1-.38.44l-2,1.14c-.18.1-.31.11-.39,0a.79.79,0,0,1-.19-.35l-2.76-10.8a.75.75,0,0,1,0-.21,1.2,1.2,0,0,1,.12-.52.74.74,0,0,1,.3-.36l2.15-1.25c.18-.1.31-.1.4,0a.72.72,0,0,1,.2.32l1.28,5.34,1.29-6.83a2.86,2.86,0,0,1,.19-.53,1,1,0,0,1,.4-.45Z"/><path class="cls-17" d="M349.94,262.48c.18-.1.31-.1.4,0a.72.72,0,0,1,.2.32l1.28,5.34,1.29-6.83a2.86,2.86,0,0,1,.19-.53,1,1,0,0,1,.4-.45l2.16-1.25a.24.24,0,0,1,.3,0,.52.52,0,0,1,.12.38.9.9,0,0,1,0,.23l-2.76,14a2.93,2.93,0,0,1-.19.57.93.93,0,0,1-.39.44l-2,1.14c-.18.1-.3.1-.39,0a1.17,1.17,0,0,1-.19-.35l-1.23-4.91-1.24,6.34a4.23,4.23,0,0,1-.19.57.89.89,0,0,1-.38.43l-2,1.15c-.17.1-.3.1-.39,0a.69.69,0,0,1-.18-.35L342,267.93a1.36,1.36,0,0,1,0-.21,1.11,1.11,0,0,1,.13-.52.72.72,0,0,1,.29-.36l2.16-1.24c.17-.1.31-.11.4,0a.7.7,0,0,1,.19.32l1.29,5.34,1.29-6.83a2.07,2.07,0,0,1,.19-.54,1,1,0,0,1,.4-.44Z"/><path class="cls-17" d="M365.89,253.28c.17-.1.3-.11.4,0a.65.65,0,0,1,.19.32l1.29,5.34,1.29-6.83a2.07,2.07,0,0,1,.19-.54,1,1,0,0,1,.4-.45l2.15-1.24a.23.23,0,0,1,.3,0,.49.49,0,0,1,.12.38,1.85,1.85,0,0,1,0,.23l-2.77,14a2.65,2.65,0,0,1-.19.56.84.84,0,0,1-.39.44l-2,1.15c-.18.1-.3.1-.39,0a1.37,1.37,0,0,1-.19-.34l-1.23-4.91-1.24,6.34a3.37,3.37,0,0,1-.19.56.91.91,0,0,1-.38.44l-2,1.14c-.17.1-.3.11-.39,0a.72.72,0,0,1-.18-.36l-2.77-10.8a1.49,1.49,0,0,1,0-.21A1.29,1.29,0,0,1,358,258a.75.75,0,0,1,.29-.35l2.16-1.25c.17-.1.31-.1.4,0a.63.63,0,0,1,.19.32l1.29,5.34,1.29-6.83a2.28,2.28,0,0,1,.19-.53,1,1,0,0,1,.4-.45Z"/></g></g><path class="cls-12" d="M231.86,241.26h5.25v23.12h-5.25Zm16.85-.17a42.31,42.31,0,0,0-7.07.48v22.81h5.18v-8.27a13,13,0,0,0,1.79.11c3.08,0,5.72-.76,7.51-2.45a7.37,7.37,0,0,0,2.12-5.48,6.76,6.76,0,0,0-2.46-5.35C254.23,241.7,251.93,241.09,248.71,241.09Zm-.14,11.11a8.15,8.15,0,0,1-1.75-.14v-6.82A9,9,0,0,1,249,245c2.61,0,4.08,1.27,4.08,3.39C253.06,250.79,251.35,252.2,248.57,252.2Zm-5.39-26.92A28.16,28.16,0,0,0,215,253.44c0,15.55,28.17,40.35,28.17,40.35s28.16-24.8,28.16-40.35A28.16,28.16,0,0,0,243.18,225.28Zm.07,45.28A18.7,18.7,0,1,1,262,251.85,18.7,18.7,0,0,1,243.25,270.56Z"/><path class="cls-12" d="M317.2,167.12h1.87v8.24H317.2Zm6-.06a15.17,15.17,0,0,0-2.52.17v8.13h1.85v-2.94a5.72,5.72,0,0,0,.64,0,3.79,3.79,0,0,0,2.67-.87,2.62,2.62,0,0,0,.76-2,2.4,2.4,0,0,0-.88-1.91A4,4,0,0,0,323.2,167.06Zm-.05,4a2.61,2.61,0,0,1-.62-.05v-2.43a3,3,0,0,1,.77-.07c.93,0,1.46.45,1.46,1.21S324.14,171,323.15,171Zm-1.92-9.6a10,10,0,0,0-10,10c0,5.55,10,14.39,10,14.39s10-8.84,10-14.39A10,10,0,0,0,321.23,161.42Zm0,16.15a6.67,6.67,0,1,1,6.67-6.67A6.67,6.67,0,0,1,321.25,177.57Z"/><path class="cls-12" d="M217.18,183.27h1.87v8.24h-1.87Zm6-.06a15.08,15.08,0,0,0-2.52.17v8.13h1.85v-2.95a3.9,3.9,0,0,0,.64,0,3.79,3.79,0,0,0,2.67-.87,2.63,2.63,0,0,0,.76-2,2.38,2.38,0,0,0-.88-1.9A4,4,0,0,0,223.19,183.21Zm-.05,4a2.61,2.61,0,0,1-.62,0v-2.43a2.89,2.89,0,0,1,.77-.08c.93,0,1.45.46,1.45,1.21S224.13,187.17,223.14,187.17Zm-1.92-9.6a10,10,0,0,0-10,10c0,5.55,10,14.39,10,14.39s10-8.84,10-14.39A10,10,0,0,0,221.22,177.57Zm0,16.15a6.67,6.67,0,1,1,6.67-6.67A6.67,6.67,0,0,1,221.24,193.72Z"/><path class="cls-12" d="M301.13,218.93h1v4.42h-1Zm3.21,0A8.52,8.52,0,0,0,303,219v4.36h1v-1.58l.34,0a2,2,0,0,0,1.43-.47,1.37,1.37,0,0,0,.41-1,1.28,1.28,0,0,0-.47-1A2.11,2.11,0,0,0,304.34,218.9Zm0,2.12a1.52,1.52,0,0,1-.33,0v-1.31a1.65,1.65,0,0,1,.41,0c.5,0,.78.25.78.65S304.84,221,304.31,221Zm-1-5.13a5.37,5.37,0,0,0-5.37,5.37c0,3,5.37,7.7,5.37,7.7s5.38-4.73,5.38-7.7A5.37,5.37,0,0,0,303.28,215.89Zm0,8.64a3.57,3.57,0,1,1,3.57-3.57A3.57,3.57,0,0,1,303.3,224.53Z"/></svg>