<svg id="Layer_1" data-name="Layer 1" xmlns="http://www.w3.org/2000/svg" viewBox="0 0 584.47 584.47"><defs><style>.cls-1{fill:#b2d3ea;}.cls-2{fill:#d5ecfb;}.cls-3,.cls-4{fill:#c8e5f9;}.cls-3,.cls-5{opacity:0.58;}.cls-3,.cls-4,.cls-5{isolation:isolate;}.cls-4{opacity:0.8;}.cls-6{fill:#6bb9e6;}.cls-7{fill:#1e93c1;}.cls-8{fill:#5dbdb0;}.cls-9{fill:#1672b9;}.cls-10{opacity:0.1;}.cls-11{fill:#2d92d1;}.cls-12{fill:#fbfbfb;}.cls-13{fill:#385a65;}.cls-14{opacity:0.75;}.cls-15,.cls-19{fill:#fff;}.cls-16{opacity:0.2;}.cls-17{fill:#025385;}.cls-18{fill:#37474f;}.cls-19{opacity:0.15;}.cls-20{fill:#f49b6c;}.cls-21{fill:#5bbbeb;}</style></defs><path class="cls-1" d="M408.23,334.31a4.57,4.57,0,0,1-2.34-.65l-14-8.4.85-1.41,14,8.39a2.89,2.89,0,0,0,2.95,0l35.23-25.52a1.15,1.15,0,0,0,0-2L414.5,288.47l.78-1.45,30.39,16.27a2.8,2.8,0,0,1,.08,4.88l-35.23,25.51A4.49,4.49,0,0,1,408.23,334.31Z"/><path class="cls-1" d="M368.1,450.73a5.86,5.86,0,0,1-2.87-.75l-55.91-31.12a2.57,2.57,0,0,1,0-4.48l25.3-14.27a.89.89,0,0,0,0-1.53l-28.15-16.16a2.54,2.54,0,0,1-.09-4.33l11.5-7.28.88,1.39-11.49,7.29a.87.87,0,0,0,0,1.5l28.15,16.16a2.53,2.53,0,0,1,0,4.39l-25.3,14.27a.92.92,0,0,0,0,1.61L366,448.54a4.26,4.26,0,0,0,4.27-.08l21.26-13.06a.4.4,0,0,0,.19-.35.41.41,0,0,0-.19-.35l-15.39-9.35.86-1.41,15.38,9.36a2,2,0,0,1,0,3.5l-21.26,13.07A5.9,5.9,0,0,1,368.1,450.73Z"/><path class="cls-1" d="M182.36,353.71a3.75,3.75,0,0,1-1.86-.49l-20.05-11.36a1.88,1.88,0,0,1-1-1.66,1.93,1.93,0,0,1,1-1.68l50-28.93a9.35,9.35,0,0,1,9.31,0l57.16,33-.83,1.43-57.16-33a7.68,7.68,0,0,0-7.65,0l-50,28.93a.28.28,0,0,0,0,.48l20.05,11.35a2.12,2.12,0,0,0,2.2-.06l8.47-5.48.9,1.38-8.48,5.48A3.69,3.69,0,0,1,182.36,353.71Z"/><path class="cls-1" d="M211.9,372a5.54,5.54,0,0,1-2.79-.75l-17-9.87a1.86,1.86,0,0,1,0-3.21l11.18-6.49.83,1.43-11.18,6.49a.19.19,0,0,0-.11.17.19.19,0,0,0,.11.18l17,9.87a3.93,3.93,0,0,0,3.9,0l33.32-19a5.59,5.59,0,0,1,5.54,0l27.91,16.11a3.9,3.9,0,0,0,3.92,0L298,359.17l.83,1.43-13.46,7.78a5.59,5.59,0,0,1-5.58,0l-27.9-16.12a4,4,0,0,0-3.91,0l-33.31,19A5.6,5.6,0,0,1,211.9,372Z"/><path class="cls-2" d="M318.85,173.23c0,.59-.41.83-.91.53a2,2,0,0,1-.92-1.59c0-.58.41-.82.92-.53A2.06,2.06,0,0,1,318.85,173.23Z"/><path class="cls-2" d="M326.93,178.13c0,.59-.41.82-.91.53a2,2,0,0,1-.92-1.59c0-.58.41-.82.92-.53A2.06,2.06,0,0,1,326.93,178.13Z"/><path class="cls-2" d="M335,183c0,.59-.42.82-.92.53a2,2,0,0,1-.92-1.59c0-.58.41-.82.92-.53A2.07,2.07,0,0,1,335,183Z"/><path class="cls-2" d="M316.41,178.11a.82.82,0,0,1-.83.82.81.81,0,0,1-.82-.82.82.82,0,0,1,.82-.83A.83.83,0,0,1,316.41,178.11Z"/><path class="cls-2" d="M323.94,182.62a.83.83,0,1,1-.83-.82A.83.83,0,0,1,323.94,182.62Z"/><circle class="cls-2" cx="330.65" cy="187.14" r="0.83"/><path class="cls-2" d="M339,191.47a.83.83,0,1,1-.83-.82A.83.83,0,0,1,339,191.47Z"/><path class="cls-3" d="M477.42,228.36c9.26,0,17.77,4.16,22.07,10.82,24.58,38,16,93.92-17.11,108.92-41.46,18.76,17.18,73.58-37.91,101.47S345,414,270.31,448.61s-141-26-126.77-50.5,24.88-54.33-16.58-88c-28.54-23.16-4.9-55.88,12.62-74,4.71-4.88,11.94-7.71,19.58-7.71Z"/><path class="cls-3" d="M482.38,348.1c-41.46,18.76,17.18,73.58-37.91,101.47-18,9.13-34.94,8.47-52.13,4.66,19.62.23,49.36-3.79,50.55-30.13,1.78-39.44-67.53-65.4-16-93.78,51-28.08,21.35-86.77-38.42-102h88.94c9.26,0,17.77,4.16,22.07,10.82C524.07,277.2,515.54,333.1,482.38,348.1Z"/><circle class="cls-4" cx="221.09" cy="218.7" r="103.8"/><g class="cls-5"><path class="cls-6" d="M288.19,152.5h0a7.79,7.79,0,0,1-5.83,1.15l-14.27-2.85c-.31-.07-.63-.15-.93-.25L259,147.84a7.69,7.69,0,0,0-4.33-.17l-9.94,2.48a7.78,7.78,0,0,1-4.33-.16l-.11,0a7.76,7.76,0,0,1-4.48-10.84l1-2a7.75,7.75,0,0,1,6.94-4.29h7.69a7.77,7.77,0,0,0,3.47-.82l8.85-4.42a7.7,7.7,0,0,1,7.14.1,101.93,101.93,0,0,1,18,12.5A7.77,7.77,0,0,1,288.19,152.5Z"/><path class="cls-6" d="M211.6,139.77l-.26.8a6.28,6.28,0,0,1-4,4l-5.56,1.86a6.28,6.28,0,0,0-3.4,2.72l-8.73,14.56a6.2,6.2,0,0,1-2.16,2.16l-15.46,9.28a6.31,6.31,0,0,1-2.34.83l-18.42,2.63a6.26,6.26,0,0,0-5.38,6.21v2.7a6.28,6.28,0,0,0,1.83,4.43l3.49,3.49a6.28,6.28,0,0,1,1.83,4.43h0a6.27,6.27,0,0,1-9.75,5.22l-1-.66-9-6a6.32,6.32,0,0,1-2.47-3.24l-4.79-14.4a6.36,6.36,0,0,1,.25-4.6,103.73,103.73,0,0,1,52.69-52.41,6.27,6.27,0,0,1,6,.53l6.23,4.16a6.23,6.23,0,0,0,2.45,1l12.91,2.15A6.26,6.26,0,0,1,211.6,139.77Z"/><path class="cls-7" d="M219.62,240.34l-1.75,8.77a6.15,6.15,0,0,1-1.67,3.12L205,263.45a6.11,6.11,0,0,0-1.79,4.33v5.15a6.13,6.13,0,0,1-2.45,4.89l-9.42,7.07a6.1,6.1,0,0,0-2.45,4.89v6.35a6.12,6.12,0,0,1-8.05,5.81h0a6.13,6.13,0,0,1-3.74-3.53l-5.67-14.18A6.07,6.07,0,0,1,171,282v-29.6a6.12,6.12,0,0,0-4.91-6l-10.05-2a6.1,6.1,0,0,1-4.27-3.26l-5.18-10.35a6.18,6.18,0,0,1-.64-2.73v-6.77a6.1,6.1,0,0,1,1.79-4.32l5.36-5.37,4.74-4.74a6.12,6.12,0,0,1,9.8,1.59l1.67,3.35a6.12,6.12,0,0,0,5.47,3.38h17.82a6.13,6.13,0,0,1,5.24,3l7.18,12a6.11,6.11,0,0,0,5.24,3h3.4A6.11,6.11,0,0,1,219.62,240.34Z"/><path class="cls-6" d="M315,174.58a103.71,103.71,0,0,1-3.46,94.94,8.19,8.19,0,0,1-12.92,1.71h0a8.22,8.22,0,0,1-2.41-5.81v-9a8.21,8.21,0,0,0-.86-3.67l-6.3-12.58L282.8,227.6a8.18,8.18,0,0,1-.86-3.67v-8a8.24,8.24,0,0,0-3.66-6.84l-4.06-2.7a8.19,8.19,0,0,0-6.55-1.14l-8.11,2a8.14,8.14,0,0,1-5.22-.42l-18.27-7.83a8.22,8.22,0,0,1-4.9-6.39l-2.35-16.42a8.23,8.23,0,0,1,2.33-7l5.43-5.43a8.21,8.21,0,0,1,5.8-2.4h13.68a8.22,8.22,0,0,1,6.84,3.66l2.74,4.12a8.2,8.2,0,0,0,5.49,3.54L287,175.41a8.19,8.19,0,0,0,4-.33l13.86-4.77A8.22,8.22,0,0,1,315,174.58Z"/></g><g id="Server"><polygon class="cls-8" points="398.56 321.8 331.52 360.5 264.47 321.8 331.52 283.09 398.56 321.8"/><polygon class="cls-9" points="398.56 321.8 331.52 360.5 264.47 321.8 331.52 283.09 398.56 321.8"/><polygon class="cls-10" points="331.52 360.5 331.52 355.67 268.66 319.38 264.47 321.79 331.52 360.5"/><path class="cls-8" d="M331.52,360.5v17.84a9.2,9.2,0,0,0,4.47-1.06h0L365,360.51l30.84-17.82a5.89,5.89,0,0,0,2.68-4.64V321.79Z"/><path class="cls-11" d="M331.52,360.5v17.84a9.2,9.2,0,0,0,4.47-1.06h0L365,360.51l30.84-17.82a5.89,5.89,0,0,0,2.68-4.64V321.79Z"/><path class="cls-9" d="M392.14,330.35l-33.25,19.2a4.93,4.93,0,0,0-2.23,3.86v4.52c0,1.43,1,2,2.23,1.29L392.14,340a5,5,0,0,0,2.23-3.87v-4.52C394.37,330.22,393.37,329.64,392.14,330.35Z"/><path class="cls-12" d="M392,334.18v2.19a1,1,0,0,1-.44.77l-.51.29c-.24.15-.44,0-.44-.25V335a1,1,0,0,1,.44-.77l.51-.29C391.81,333.78,392,333.89,392,334.18Z"/><path class="cls-12" d="M389.76,335.48v2.19a1,1,0,0,1-.45.78l-.5.29c-.25.14-.45,0-.45-.26v-2.19a1,1,0,0,1,.45-.78l.5-.29C389.56,335.08,389.76,335.19,389.76,335.48Z"/><path class="cls-12" d="M387.5,336.78V339a1,1,0,0,1-.45.78l-.5.29c-.25.14-.45,0-.45-.26v-2.19a1,1,0,0,1,.45-.78l.5-.29C387.3,336.38,387.5,336.5,387.5,336.78Z"/><path class="cls-13" d="M385.24,338.08v2.19a1,1,0,0,1-.45.78l-.5.29c-.25.14-.45,0-.45-.26v-2.19a1,1,0,0,1,.45-.78l.5-.29C385,337.68,385.24,337.8,385.24,338.08Z"/><path class="cls-13" d="M383,339.38v2.2a1,1,0,0,1-.44.77l-.51.29c-.24.14-.44,0-.44-.26v-2.19a1,1,0,0,1,.44-.77l.51-.29C382.78,339,383,339.1,383,339.38Z"/><path class="cls-12" d="M380.73,340.69v2.19a1,1,0,0,1-.45.77l-.5.29c-.25.14-.45,0-.45-.26v-2.19a1,1,0,0,1,.45-.77l.5-.29C380.53,340.28,380.73,340.4,380.73,340.69Z"/><path class="cls-12" d="M378.47,342v2.19a1,1,0,0,1-.45.77l-.5.29c-.25.14-.45,0-.45-.26v-2.19a1,1,0,0,1,.45-.77l.5-.29C378.27,341.59,378.47,341.7,378.47,342Z"/><path class="cls-12" d="M376.21,343.29v2.19a1,1,0,0,1-.45.77l-.5.29c-.24.15-.44,0-.44-.25v-2.2a1,1,0,0,1,.44-.77l.5-.29C376,342.89,376.21,343,376.21,343.29Z"/><path class="cls-12" d="M374,344.59v2.19a1,1,0,0,1-.44.77l-.51.3c-.24.14-.44,0-.44-.26v-2.2a1,1,0,0,1,.44-.77l.51-.29C373.75,344.19,374,344.3,374,344.59Z"/><path class="cls-12" d="M371.7,345.89v2.19a1,1,0,0,1-.45.78l-.5.29c-.25.14-.45,0-.45-.26V346.7a1,1,0,0,1,.45-.78l.5-.29C371.5,345.49,371.7,345.61,371.7,345.89Z"/><path class="cls-12" d="M369.44,347.19v2.19a1,1,0,0,1-.45.78l-.5.29c-.25.14-.45,0-.45-.26V348a1,1,0,0,1,.45-.78l.5-.29C369.24,346.79,369.44,346.91,369.44,347.19Z"/><path class="cls-12" d="M367.18,348.49v2.2a1,1,0,0,1-.45.77l-.5.29c-.24.14-.44,0-.44-.26V349.3a1,1,0,0,1,.44-.77l.5-.29C367,348.09,367.18,348.21,367.18,348.49Z"/><path class="cls-13" d="M364.92,349.79V352a1,1,0,0,1-.44.77l-.51.29c-.24.14-.44,0-.44-.26V350.6a1,1,0,0,1,.44-.77l.51-.29C364.72,349.39,364.92,349.51,364.92,349.79Z"/><path class="cls-12" d="M362.67,351.1v2.19a1,1,0,0,1-.45.77l-.5.29c-.25.14-.45,0-.45-.26V351.9a1,1,0,0,1,.45-.77l.5-.29C362.47,350.7,362.67,350.81,362.67,351.1Z"/><path class="cls-12" d="M360.41,352.4v2.19a1,1,0,0,1-.45.77l-.5.29c-.25.15-.45,0-.45-.25v-2.2a1,1,0,0,1,.45-.77l.5-.29C360.21,352,360.41,352.11,360.41,352.4Z"/><path class="cls-8" d="M264.47,321.79v16.26a5.94,5.94,0,0,0,2.68,4.64l26.66,15.39,33.24,19.2a9.17,9.17,0,0,0,4.47,1.06V360.5Z"/><path class="cls-9" d="M264.47,321.79v16.26a5.94,5.94,0,0,0,2.68,4.64l26.66,15.39,33.24,19.2a9.17,9.17,0,0,0,4.47,1.06V360.5Z"/><g class="cls-14"><path class="cls-15" d="M275.08,332.79l16.48,9.52a4.91,4.91,0,0,1,2.24,3.86v4.52c0,1.43-1,2-2.24,1.29l-16.48-9.51a5,5,0,0,1-2.23-3.87v-4.52C272.85,332.65,273.85,332.08,275.08,332.79Z"/></g><path class="cls-8" d="M277.2,337.88l1-.59h0a1.35,1.35,0,0,1,1.36.14,4.29,4.29,0,0,1,1.94,3.36,1.38,1.38,0,0,1-.56,1.26h0l-1,.54-.17-.28a2.09,2.09,0,0,1-.56-.22,4.29,4.29,0,0,1-1.94-3.36,1.9,1.9,0,0,1,.06-.5Z"/><path class="cls-16" d="M277.2,337.88l1-.59h0a1.35,1.35,0,0,1,1.36.14,4.29,4.29,0,0,1,1.94,3.36,1.38,1.38,0,0,1-.56,1.26h0l-1,.54-.17-.28a2.09,2.09,0,0,1-.56-.22,4.29,4.29,0,0,1-1.94-3.36,1.9,1.9,0,0,1,.06-.5Z"/><path class="cls-8" d="M278.62,338a4.27,4.27,0,0,1,1.94,3.36c0,1.24-.87,1.74-1.94,1.12a4.29,4.29,0,0,1-1.95-3.36C276.67,337.88,277.54,337.38,278.62,338Z"/><path class="cls-8" d="M285.63,342.75l1-.59h0a1.42,1.42,0,0,1,1.37.14,4.3,4.3,0,0,1,1.94,3.36,1.37,1.37,0,0,1-.57,1.26h0l-.95.55-.17-.29a1.71,1.71,0,0,1-.56-.22,4.29,4.29,0,0,1-1.94-3.36,1.88,1.88,0,0,1,.06-.49Z"/><path class="cls-16" d="M285.63,342.75l1-.59h0a1.42,1.42,0,0,1,1.37.14,4.3,4.3,0,0,1,1.94,3.36,1.37,1.37,0,0,1-.57,1.26h0l-.95.55-.17-.29a1.71,1.71,0,0,1-.56-.22,4.29,4.29,0,0,1-1.94-3.36,1.88,1.88,0,0,1,.06-.49Z"/><path class="cls-8" d="M287,342.86a4.26,4.26,0,0,1,1.94,3.36c0,1.24-.86,1.74-1.94,1.12A4.29,4.29,0,0,1,285.1,344C285.1,342.74,286,342.24,287,342.86Z"/><g class="cls-14"><path class="cls-15" d="M275.08,332.79l16.48,9.52a4.91,4.91,0,0,1,2.24,3.86v4.52c0,1.43-1,2-2.24,1.29l-16.48-9.51a5,5,0,0,1-2.23-3.87v-4.52C272.85,332.65,273.85,332.08,275.08,332.79Z"/></g><path class="cls-8" d="M277.2,337.88l1-.59h0a1.35,1.35,0,0,1,1.36.14,4.29,4.29,0,0,1,1.94,3.36,1.38,1.38,0,0,1-.56,1.26h0l-1,.54-.17-.28a2.09,2.09,0,0,1-.56-.22,4.29,4.29,0,0,1-1.94-3.36,1.9,1.9,0,0,1,.06-.5Z"/><path class="cls-17" d="M277.2,337.88l1-.59h0a1.35,1.35,0,0,1,1.36.14,4.29,4.29,0,0,1,1.94,3.36,1.38,1.38,0,0,1-.56,1.26h0l-1,.54-.17-.28a2.09,2.09,0,0,1-.56-.22,4.29,4.29,0,0,1-1.94-3.36,1.9,1.9,0,0,1,.06-.5Z"/><path class="cls-9" d="M278.62,338a4.27,4.27,0,0,1,1.94,3.36c0,1.24-.87,1.74-1.94,1.12a4.29,4.29,0,0,1-1.95-3.36C276.67,337.88,277.54,337.38,278.62,338Z"/><path class="cls-8" d="M285.63,342.75l1-.59h0a1.42,1.42,0,0,1,1.37.14,4.3,4.3,0,0,1,1.94,3.36,1.37,1.37,0,0,1-.57,1.26h0l-.95.55-.17-.29a1.71,1.71,0,0,1-.56-.22,4.29,4.29,0,0,1-1.94-3.36,1.88,1.88,0,0,1,.06-.49Z"/><path class="cls-17" d="M285.63,342.75l1-.59h0a1.42,1.42,0,0,1,1.37.14,4.3,4.3,0,0,1,1.94,3.36,1.37,1.37,0,0,1-.57,1.26h0l-.95.55-.17-.29a1.71,1.71,0,0,1-.56-.22,4.29,4.29,0,0,1-1.94-3.36,1.88,1.88,0,0,1,.06-.49Z"/><path class="cls-9" d="M287,342.86a4.26,4.26,0,0,1,1.94,3.36c0,1.24-.86,1.74-1.94,1.12A4.29,4.29,0,0,1,285.1,344C285.1,342.74,286,342.24,287,342.86Z"/><path class="cls-8" d="M350.71,357.81l-1-.59h0a1.37,1.37,0,0,0-1.37.14,4.29,4.29,0,0,0-1.94,3.36,1.38,1.38,0,0,0,.57,1.26h0l.95.54.18-.28a2,2,0,0,0,.55-.22,4.26,4.26,0,0,0,1.94-3.36,1.9,1.9,0,0,0-.06-.5Z"/><path class="cls-17" d="M350.71,357.81l-1-.59h0a1.37,1.37,0,0,0-1.37.14,4.29,4.29,0,0,0-1.94,3.36,1.38,1.38,0,0,0,.57,1.26h0l.95.54.18-.28a2,2,0,0,0,.55-.22,4.26,4.26,0,0,0,1.94-3.36,1.9,1.9,0,0,0-.06-.5Z"/><path class="cls-8" d="M349.3,357.93a4.27,4.27,0,0,0-1.94,3.36c0,1.24.87,1.74,1.94,1.12a4.3,4.3,0,0,0,1.94-3.36C351.24,357.81,350.37,357.31,349.3,357.93Z"/><path class="cls-9" d="M349.3,357.93a4.27,4.27,0,0,0-1.94,3.36c0,1.24.87,1.74,1.94,1.12a4.3,4.3,0,0,0,1.94-3.36C351.24,357.81,350.37,357.31,349.3,357.93Z"/><path class="cls-8" d="M342.28,362.68l-1-.59h0a1.4,1.4,0,0,0-1.36.14,4.31,4.31,0,0,0-1.94,3.37,1.36,1.36,0,0,0,.56,1.25h0l1,.55.17-.29a1.8,1.8,0,0,0,.56-.22,4.29,4.29,0,0,0,1.94-3.36,2.43,2.43,0,0,0-.06-.49Z"/><path class="cls-17" d="M342.28,362.68l-1-.59h0a1.4,1.4,0,0,0-1.36.14,4.31,4.31,0,0,0-1.94,3.37,1.36,1.36,0,0,0,.56,1.25h0l1,.55.17-.29a1.8,1.8,0,0,0,.56-.22,4.29,4.29,0,0,0,1.94-3.36,2.43,2.43,0,0,0-.06-.49Z"/><path class="cls-8" d="M340.87,362.79a4.29,4.29,0,0,0-1.94,3.36c0,1.24.87,1.74,1.94,1.12a4.29,4.29,0,0,0,1.94-3.36C342.81,362.67,341.94,362.17,340.87,362.79Z"/><path class="cls-9" d="M340.87,362.79a4.29,4.29,0,0,0-1.94,3.36c0,1.24.87,1.74,1.94,1.12a4.29,4.29,0,0,0,1.94-3.36C342.81,362.67,341.94,362.17,340.87,362.79Z"/><polygon class="cls-8" points="398.56 292.76 331.52 331.47 264.47 292.76 331.52 254.06 398.56 292.76"/><polygon class="cls-9" points="398.56 292.76 331.52 331.47 264.47 292.76 331.52 254.06 398.56 292.76"/><polygon class="cls-10" points="331.52 331.47 331.52 326.63 268.66 290.35 264.47 292.76 331.52 331.47"/><polygon class="cls-8" points="398.56 312.12 331.52 350.83 331.52 331.47 398.56 292.76 398.56 312.12"/><polygon class="cls-11" points="398.56 312.12 331.52 350.83 331.52 331.47 398.56 292.76 398.56 312.12"/><path class="cls-9" d="M392.14,301.33l-33.25,19.19a4.93,4.93,0,0,0-2.23,3.87v4.52c0,1.42,1,2,2.23,1.29L392.14,311a4.93,4.93,0,0,0,2.23-3.87v-4.51C394.37,301.19,393.37,300.61,392.14,301.33Z"/><path class="cls-12" d="M392,305.15v2.2a1,1,0,0,1-.44.77l-.51.29c-.24.14-.44,0-.44-.26V306a1,1,0,0,1,.44-.77l.51-.29C391.81,304.75,392,304.87,392,305.15Z"/><path class="cls-13" d="M389.76,306.45v2.2a1,1,0,0,1-.45.77l-.5.29c-.25.14-.45,0-.45-.26v-2.19a1,1,0,0,1,.45-.77l.5-.29C389.56,306.05,389.76,306.17,389.76,306.45Z"/><path class="cls-12" d="M387.5,307.76V310a1,1,0,0,1-.45.77l-.5.29c-.25.14-.45,0-.45-.26v-2.19a1,1,0,0,1,.45-.77l.5-.29C387.3,307.36,387.5,307.47,387.5,307.76Z"/><path class="cls-13" d="M385.24,309.06v2.19a1,1,0,0,1-.45.77l-.5.29c-.25.15-.45,0-.45-.25v-2.2a1,1,0,0,1,.45-.77l.5-.29C385,308.66,385.24,308.77,385.24,309.06Z"/><path class="cls-13" d="M383,310.36v2.19a1,1,0,0,1-.44.77l-.51.29c-.24.15-.44,0-.44-.25v-2.2a1,1,0,0,1,.44-.77l.51-.29C382.78,310,383,310.07,383,310.36Z"/><path class="cls-12" d="M380.73,311.66v2.19a1,1,0,0,1-.45.78l-.5.29c-.25.14-.45,0-.45-.26v-2.19a1,1,0,0,1,.45-.78l.5-.29C380.53,311.26,380.73,311.38,380.73,311.66Z"/><path class="cls-12" d="M378.47,313v2.19a1,1,0,0,1-.45.78l-.5.29c-.25.14-.45,0-.45-.26v-2.19a1,1,0,0,1,.45-.78l.5-.29C378.27,312.56,378.47,312.68,378.47,313Z"/><path class="cls-12" d="M376.21,314.26v2.19a1,1,0,0,1-.45.78l-.5.29c-.24.14-.44,0-.44-.26v-2.19a1,1,0,0,1,.44-.78l.5-.29C376,313.86,376.21,314,376.21,314.26Z"/><path class="cls-13" d="M374,315.56v2.2a1,1,0,0,1-.44.77l-.51.29c-.24.14-.44,0-.44-.26v-2.19a1,1,0,0,1,.44-.77l.51-.29C373.75,315.16,374,315.28,374,315.56Z"/><path class="cls-12" d="M371.7,316.87v2.19a1,1,0,0,1-.45.77l-.5.29c-.25.14-.45,0-.45-.26v-2.19a1,1,0,0,1,.45-.77l.5-.29C371.5,316.47,371.7,316.58,371.7,316.87Z"/><path class="cls-13" d="M369.44,318.17v2.19a1,1,0,0,1-.45.77l-.5.29c-.25.15-.45,0-.45-.26V319a1,1,0,0,1,.45-.77l.5-.29C369.24,317.77,369.44,317.88,369.44,318.17Z"/><path class="cls-12" d="M367.18,319.47v2.19a1,1,0,0,1-.45.77l-.5.29c-.24.15-.44,0-.44-.25v-2.2a1,1,0,0,1,.44-.77l.5-.29C367,319.07,367.18,319.18,367.18,319.47Z"/><path class="cls-13" d="M364.92,320.77V323a1,1,0,0,1-.44.78L364,324c-.24.14-.44,0-.44-.26v-2.19a1,1,0,0,1,.44-.78l.51-.29C364.72,320.37,364.92,320.48,364.92,320.77Z"/><path class="cls-12" d="M362.67,322.07v2.19a1,1,0,0,1-.45.78l-.5.29c-.25.14-.45,0-.45-.26v-2.19a1,1,0,0,1,.45-.78l.5-.29C362.47,321.67,362.67,321.79,362.67,322.07Z"/><path class="cls-12" d="M360.41,323.37v2.19a1,1,0,0,1-.45.78l-.5.29c-.25.14-.45,0-.45-.26v-2.19a1,1,0,0,1,.45-.78l.5-.29C360.21,323,360.41,323.09,360.41,323.37Z"/><polygon class="cls-8" points="331.52 350.83 264.47 312.12 264.47 292.76 331.52 331.47 331.52 350.83"/><polygon class="cls-9" points="331.52 350.83 264.47 312.12 264.47 292.76 331.52 331.47 331.52 350.83"/><g class="cls-14"><path class="cls-15" d="M275.08,303.74l16.48,9.51a5,5,0,0,1,2.24,3.87v4.52c0,1.43-1,2-2.24,1.29l-16.48-9.52a4.93,4.93,0,0,1-2.23-3.87V305C272.85,303.6,273.85,303,275.08,303.74Z"/></g><path class="cls-8" d="M277.2,308.83l1-.59h0a1.35,1.35,0,0,1,1.36.14,4.29,4.29,0,0,1,1.94,3.36A1.35,1.35,0,0,1,281,313h0l-1,.54-.17-.29a2,2,0,0,1-.56-.21,4.3,4.3,0,0,1-1.94-3.36,1.9,1.9,0,0,1,.06-.5Z"/><path class="cls-17" d="M277.2,308.83l1-.59h0a1.35,1.35,0,0,1,1.36.14,4.29,4.29,0,0,1,1.94,3.36A1.35,1.35,0,0,1,281,313h0l-1,.54-.17-.29a2,2,0,0,1-.56-.21,4.3,4.3,0,0,1-1.94-3.36,1.9,1.9,0,0,1,.06-.5Z"/><path class="cls-9" d="M278.62,308.94a4.31,4.31,0,0,1,1.94,3.37c0,1.23-.87,1.73-1.94,1.12a4.29,4.29,0,0,1-1.95-3.37C276.67,308.83,277.54,308.32,278.62,308.94Z"/><path class="cls-8" d="M285.63,313.7l1-.6h0a1.37,1.37,0,0,1,1.37.14A4.29,4.29,0,0,1,290,316.6a1.38,1.38,0,0,1-.57,1.26h0l-.95.54-.17-.28a2,2,0,0,1-.56-.22,4.29,4.29,0,0,1-1.94-3.36,1.9,1.9,0,0,1,.06-.5Z"/><path class="cls-17" d="M285.63,313.7l1-.6h0a1.37,1.37,0,0,1,1.37.14A4.29,4.29,0,0,1,290,316.6a1.38,1.38,0,0,1-.57,1.26h0l-.95.54-.17-.28a2,2,0,0,1-.56-.22,4.29,4.29,0,0,1-1.94-3.36,1.9,1.9,0,0,1,.06-.5Z"/><path class="cls-9" d="M287,313.81a4.25,4.25,0,0,1,1.94,3.36c0,1.24-.86,1.74-1.94,1.12a4.3,4.3,0,0,1-1.94-3.36C285.1,313.69,286,313.19,287,313.81Z"/><polygon class="cls-13" points="390.18 321.8 390.18 316.96 331.52 350.83 331.52 355.67 390.18 321.8"/><polygon class="cls-8" points="268.66 314.54 268.66 319.38 331.52 355.67 331.52 350.83 268.66 314.54"/><polygon class="cls-18" points="268.66 314.54 268.66 319.38 331.52 355.67 331.52 350.83 268.66 314.54"/><path class="cls-8" d="M350.71,328.79l-1-.6h0a1.37,1.37,0,0,0-1.37.14,4.29,4.29,0,0,0-1.94,3.36,1.38,1.38,0,0,0,.57,1.26h0l.95.54.18-.28a2,2,0,0,0,.55-.22,4.26,4.26,0,0,0,1.94-3.36,1.9,1.9,0,0,0-.06-.5Z"/><path class="cls-17" d="M350.71,328.79l-1-.6h0a1.37,1.37,0,0,0-1.37.14,4.29,4.29,0,0,0-1.94,3.36,1.38,1.38,0,0,0,.57,1.26h0l.95.54.18-.28a2,2,0,0,0,.55-.22,4.26,4.26,0,0,0,1.94-3.36,1.9,1.9,0,0,0-.06-.5Z"/><path class="cls-8" d="M349.3,328.9a4.27,4.27,0,0,0-1.94,3.36c0,1.24.87,1.74,1.94,1.12a4.3,4.3,0,0,0,1.94-3.36C351.24,328.78,350.37,328.28,349.3,328.9Z"/><path class="cls-9" d="M349.3,328.9a4.27,4.27,0,0,0-1.94,3.36c0,1.24.87,1.74,1.94,1.12a4.3,4.3,0,0,0,1.94-3.36C351.24,328.78,350.37,328.28,349.3,328.9Z"/><path class="cls-8" d="M342.28,333.65l-1-.59h0a1.4,1.4,0,0,0-1.36.14,4.31,4.31,0,0,0-1.94,3.37,1.36,1.36,0,0,0,.56,1.25h0l1,.55.17-.29a1.8,1.8,0,0,0,.56-.22,4.29,4.29,0,0,0,1.94-3.36,2.43,2.43,0,0,0-.06-.49Z"/><path class="cls-17" d="M342.28,333.65l-1-.59h0a1.4,1.4,0,0,0-1.36.14,4.31,4.31,0,0,0-1.94,3.37,1.36,1.36,0,0,0,.56,1.25h0l1,.55.17-.29a1.8,1.8,0,0,0,.56-.22,4.29,4.29,0,0,0,1.94-3.36,2.43,2.43,0,0,0-.06-.49Z"/><path class="cls-8" d="M340.87,333.76a4.29,4.29,0,0,0-1.94,3.36c0,1.24.87,1.74,1.94,1.12a4.29,4.29,0,0,0,1.94-3.36C342.81,333.64,341.94,333.14,340.87,333.76Z"/><path class="cls-9" d="M340.87,333.76a4.29,4.29,0,0,0-1.94,3.36c0,1.24.87,1.74,1.94,1.12a4.29,4.29,0,0,0,1.94-3.36C342.81,333.64,341.94,333.14,340.87,333.76Z"/><polygon class="cls-8" points="398.56 263.73 331.52 302.44 264.47 263.74 331.52 225.03 398.56 263.73"/><polygon class="cls-9" points="398.56 263.73 331.52 302.44 264.47 263.74 331.52 225.03 398.56 263.73"/><polygon class="cls-10" points="331.52 302.44 331.52 297.6 268.66 261.31 264.47 263.74 331.52 302.44"/><polygon class="cls-8" points="398.56 283.09 331.52 321.8 331.52 302.44 398.56 263.73 398.56 283.09"/><polygon class="cls-11" points="398.56 283.09 331.52 321.8 331.52 302.44 398.56 263.73 398.56 283.09"/><path class="cls-9" d="M392.14,272.27l-33.25,19.19a5,5,0,0,0-2.23,3.87v4.52c0,1.42,1,2,2.23,1.29l33.25-19.2a4.93,4.93,0,0,0,2.23-3.86v-4.52C394.37,272.13,393.37,271.56,392.14,272.27Z"/><path class="cls-12" d="M392,276.09v2.2a1,1,0,0,1-.44.77l-.51.29c-.24.14-.44,0-.44-.26V276.9a1,1,0,0,1,.44-.77l.51-.29C391.81,275.69,392,275.81,392,276.09Z"/><path class="cls-12" d="M389.76,277.4v2.19a1,1,0,0,1-.45.77l-.5.29c-.25.14-.45,0-.45-.26V278.2a1,1,0,0,1,.45-.77l.5-.29C389.56,277,389.76,277.11,389.76,277.4Z"/><path class="cls-12" d="M387.5,278.7v2.19a1,1,0,0,1-.45.77l-.5.29c-.25.15-.45,0-.45-.25v-2.2a1,1,0,0,1,.45-.77l.5-.29C387.3,278.3,387.5,278.41,387.5,278.7Z"/><path class="cls-12" d="M385.24,280v2.19a1,1,0,0,1-.45.77l-.5.29c-.25.15-.45,0-.45-.25v-2.2a1,1,0,0,1,.45-.77l.5-.29C385,279.6,385.24,279.71,385.24,280Z"/><path class="cls-13" d="M383,281.3v2.19a1,1,0,0,1-.44.78l-.51.29c-.24.14-.44,0-.44-.26v-2.19a1,1,0,0,1,.44-.78l.51-.29C382.78,280.9,383,281,383,281.3Z"/><path class="cls-13" d="M380.73,282.6v2.19a1,1,0,0,1-.45.78l-.5.29c-.25.14-.45,0-.45-.26v-2.19a1,1,0,0,1,.45-.78l.5-.29C380.53,282.2,380.73,282.32,380.73,282.6Z"/><path class="cls-12" d="M378.47,283.9v2.2a1,1,0,0,1-.45.77l-.5.29c-.25.14-.45,0-.45-.26v-2.19a1,1,0,0,1,.45-.77l.5-.29C378.27,283.5,378.47,283.62,378.47,283.9Z"/><path class="cls-12" d="M376.21,285.2v2.2a1,1,0,0,1-.45.77l-.5.29c-.24.14-.44,0-.44-.26V286a1,1,0,0,1,.44-.77l.5-.29C376,284.8,376.21,284.92,376.21,285.2Z"/><path class="cls-12" d="M374,286.51v2.19a1,1,0,0,1-.44.77l-.51.29c-.24.14-.44,0-.44-.26v-2.19a1,1,0,0,1,.44-.77l.51-.29C373.75,286.11,374,286.22,374,286.51Z"/><path class="cls-13" d="M371.7,287.81V290a1,1,0,0,1-.45.77l-.5.29c-.25.15-.45,0-.45-.25v-2.2a1,1,0,0,1,.45-.77l.5-.29C371.5,287.41,371.7,287.52,371.7,287.81Z"/><path class="cls-12" d="M369.44,289.11v2.19a1,1,0,0,1-.45.77l-.5.29c-.25.15-.45,0-.45-.25v-2.2a1,1,0,0,1,.45-.77l.5-.29C369.24,288.71,369.44,288.82,369.44,289.11Z"/><path class="cls-12" d="M367.18,290.41v2.19a1,1,0,0,1-.45.78l-.5.29c-.24.14-.44,0-.44-.26v-2.19a1,1,0,0,1,.44-.78l.5-.29C367,290,367.18,290.12,367.18,290.41Z"/><path class="cls-13" d="M364.92,291.71v2.19a1,1,0,0,1-.44.78L364,295c-.24.14-.44,0-.44-.26v-2.19a1,1,0,0,1,.44-.78l.51-.29C364.72,291.31,364.92,291.43,364.92,291.71Z"/><path class="cls-12" d="M362.67,293v2.19a1,1,0,0,1-.45.78l-.5.29c-.25.14-.45,0-.45-.26v-2.19a1,1,0,0,1,.45-.78l.5-.29C362.47,292.61,362.67,292.73,362.67,293Z"/><path class="cls-13" d="M360.41,294.31v2.2a1,1,0,0,1-.45.77l-.5.29c-.25.14-.45,0-.45-.26v-2.19a1,1,0,0,1,.45-.77l.5-.29C360.21,293.91,360.41,294,360.41,294.31Z"/><polygon class="cls-8" points="331.52 321.8 264.47 283.09 264.47 263.74 331.52 302.44 331.52 321.8"/><polygon class="cls-9" points="331.52 321.8 264.47 283.09 264.47 263.74 331.52 302.44 331.52 321.8"/><g class="cls-14"><path class="cls-15" d="M275.08,274.7l16.48,9.52a4.92,4.92,0,0,1,2.24,3.87v4.52c0,1.42-1,2-2.24,1.29l-16.48-9.52a5,5,0,0,1-2.23-3.87V276C272.85,274.57,273.85,274,275.08,274.7Z"/></g><path class="cls-8" d="M277.2,279.8l1-.59h0a1.35,1.35,0,0,1,1.36.14,4.3,4.3,0,0,1,1.94,3.36A1.36,1.36,0,0,1,281,284h0l-1,.55-.17-.29a1.8,1.8,0,0,1-.56-.22,4.29,4.29,0,0,1-1.94-3.36,2,2,0,0,1,.06-.5Z"/><path class="cls-17" d="M277.2,279.8l1-.59h0a1.35,1.35,0,0,1,1.36.14,4.3,4.3,0,0,1,1.94,3.36A1.36,1.36,0,0,1,281,284h0l-1,.55-.17-.29a1.8,1.8,0,0,1-.56-.22,4.29,4.29,0,0,1-1.94-3.36,2,2,0,0,1,.06-.5Z"/><path class="cls-9" d="M278.62,279.91a4.29,4.29,0,0,1,1.94,3.36c0,1.24-.87,1.74-1.94,1.12a4.27,4.27,0,0,1-1.95-3.36C276.67,279.79,277.54,279.29,278.62,279.91Z"/><path class="cls-8" d="M285.63,284.66l1-.59h0a1.39,1.39,0,0,1,1.37.13,4.31,4.31,0,0,1,1.94,3.37,1.35,1.35,0,0,1-.57,1.25h0l-.95.55-.17-.29a1.93,1.93,0,0,1-.56-.21,4.31,4.31,0,0,1-1.94-3.37,1.88,1.88,0,0,1,.06-.49Z"/><path class="cls-17" d="M285.63,284.66l1-.59h0a1.39,1.39,0,0,1,1.37.13,4.31,4.31,0,0,1,1.94,3.37,1.35,1.35,0,0,1-.57,1.25h0l-.95.55-.17-.29a1.93,1.93,0,0,1-.56-.21,4.31,4.31,0,0,1-1.94-3.37,1.88,1.88,0,0,1,.06-.49Z"/><path class="cls-9" d="M287,284.77a4.28,4.28,0,0,1,1.94,3.36c0,1.24-.86,1.74-1.94,1.12a4.29,4.29,0,0,1-1.94-3.36C285.1,284.65,286,284.15,287,284.77Z"/><polygon class="cls-13" points="390.18 292.76 390.18 287.93 331.52 321.8 331.52 326.63 390.18 292.76"/><polygon class="cls-18" points="268.66 285.51 268.66 290.35 331.52 326.63 331.52 321.8 268.66 285.51"/><path class="cls-8" d="M350.71,299.75l-1-.59h0a1.37,1.37,0,0,0-1.37.14,4.29,4.29,0,0,0-1.94,3.36,1.38,1.38,0,0,0,.57,1.26h0l.95.54.18-.28a2,2,0,0,0,.55-.22,4.26,4.26,0,0,0,1.94-3.36,1.9,1.9,0,0,0-.06-.5Z"/><path class="cls-17" d="M350.71,299.75l-1-.59h0a1.37,1.37,0,0,0-1.37.14,4.29,4.29,0,0,0-1.94,3.36,1.38,1.38,0,0,0,.57,1.26h0l.95.54.18-.28a2,2,0,0,0,.55-.22,4.26,4.26,0,0,0,1.94-3.36,1.9,1.9,0,0,0-.06-.5Z"/><path class="cls-8" d="M349.3,299.86a4.31,4.31,0,0,0-1.94,3.37c0,1.23.87,1.74,1.94,1.12a4.3,4.3,0,0,0,1.94-3.36C351.24,299.75,350.37,299.25,349.3,299.86Z"/><path class="cls-9" d="M349.3,299.86a4.31,4.31,0,0,0-1.94,3.37c0,1.23.87,1.74,1.94,1.12a4.3,4.3,0,0,0,1.94-3.36C351.24,299.75,350.37,299.25,349.3,299.86Z"/><path class="cls-8" d="M342.28,304.62l-1-.59h0a1.35,1.35,0,0,0-1.36.14,4.3,4.3,0,0,0-1.94,3.36,1.36,1.36,0,0,0,.56,1.26h0l1,.55.17-.29a1.8,1.8,0,0,0,.56-.22,4.29,4.29,0,0,0,1.94-3.36,2.63,2.63,0,0,0-.06-.5Z"/><path class="cls-17" d="M342.28,304.62l-1-.59h0a1.35,1.35,0,0,0-1.36.14,4.3,4.3,0,0,0-1.94,3.36,1.36,1.36,0,0,0,.56,1.26h0l1,.55.17-.29a1.8,1.8,0,0,0,.56-.22,4.29,4.29,0,0,0,1.94-3.36,2.63,2.63,0,0,0-.06-.5Z"/><path class="cls-8" d="M340.87,304.73a4.29,4.29,0,0,0-1.94,3.36c0,1.24.87,1.74,1.94,1.12a4.29,4.29,0,0,0,1.94-3.36C342.81,304.61,341.94,304.11,340.87,304.73Z"/><path class="cls-9" d="M340.87,304.73a4.29,4.29,0,0,0-1.94,3.36c0,1.24.87,1.74,1.94,1.12a4.29,4.29,0,0,0,1.94-3.36C342.81,304.61,341.94,304.11,340.87,304.73Z"/><polygon class="cls-8" points="398.56 234.7 331.52 273.41 264.47 234.7 331.52 196 398.56 234.7"/><polygon class="cls-19" points="398.56 234.7 331.52 273.41 264.47 234.7 331.52 196 398.56 234.7"/><polygon class="cls-9" points="398.56 234.7 331.52 273.41 264.47 234.7 331.52 196 398.56 234.7"/><polygon class="cls-10" points="331.52 268.58 331.52 273.41 264.47 234.7 268.66 232.29 331.52 268.58"/><polygon class="cls-8" points="398.56 254.06 331.52 292.76 331.52 273.41 398.56 234.7 398.56 254.06"/><polygon class="cls-11" points="398.56 254.06 331.52 292.76 331.52 273.41 398.56 234.7 398.56 254.06"/><path class="cls-9" d="M392.14,243.26l-33.25,19.19a5,5,0,0,0-2.23,3.87v4.52c0,1.43,1,2,2.23,1.29l33.25-19.19a5,5,0,0,0,2.23-3.87v-4.52C394.37,243.12,393.37,242.55,392.14,243.26Z"/><path class="cls-12" d="M392,247.09v2.19a1,1,0,0,1-.44.77l-.51.29c-.24.14-.44,0-.44-.26v-2.19a1,1,0,0,1,.44-.77l.51-.29C391.81,246.69,392,246.8,392,247.09Z"/><path class="cls-13" d="M389.76,248.39v2.19a1,1,0,0,1-.45.77l-.5.29c-.25.15-.45,0-.45-.25v-2.2a1,1,0,0,1,.45-.77l.5-.29C389.56,248,389.76,248.1,389.76,248.39Z"/><path class="cls-12" d="M387.5,249.69v2.19a1,1,0,0,1-.45.78l-.5.29c-.25.14-.45,0-.45-.26V250.5a1,1,0,0,1,.45-.78l.5-.29C387.3,249.29,387.5,249.4,387.5,249.69Z"/><path class="cls-12" d="M385.24,251v2.19a1,1,0,0,1-.45.78l-.5.29c-.25.14-.45,0-.45-.26V251.8a1,1,0,0,1,.45-.78l.5-.29C385,250.59,385.24,250.71,385.24,251Z"/><path class="cls-12" d="M383,252.29v2.19a1,1,0,0,1-.44.78l-.51.29c-.24.14-.44,0-.44-.26V253.1a1,1,0,0,1,.44-.78l.51-.29C382.78,251.89,383,252,383,252.29Z"/><path class="cls-13" d="M380.73,253.59v2.2a1,1,0,0,1-.45.77l-.5.29c-.25.14-.45,0-.45-.26V254.4a1,1,0,0,1,.45-.77l.5-.29C380.53,253.19,380.73,253.31,380.73,253.59Z"/><path class="cls-13" d="M378.47,254.89v2.2a1,1,0,0,1-.45.77l-.5.29c-.25.14-.45,0-.45-.26V255.7a1,1,0,0,1,.45-.77l.5-.29C378.27,254.49,378.47,254.61,378.47,254.89Z"/><path class="cls-12" d="M376.21,256.2v2.19a1,1,0,0,1-.45.77l-.5.29c-.24.14-.44,0-.44-.26V257a1,1,0,0,1,.44-.77l.5-.29C376,255.8,376.21,255.91,376.21,256.2Z"/><path class="cls-13" d="M374,257.5v2.19a1,1,0,0,1-.44.77l-.51.29c-.24.15-.44,0-.44-.25v-2.2a1,1,0,0,1,.44-.77l.51-.29C373.75,257.1,374,257.21,374,257.5Z"/><path class="cls-12" d="M371.7,258.8V261a1,1,0,0,1-.45.77l-.5.29c-.25.15-.45,0-.45-.25v-2.2a1,1,0,0,1,.45-.77l.5-.29C371.5,258.4,371.7,258.51,371.7,258.8Z"/><path class="cls-12" d="M369.44,260.1v2.19a1,1,0,0,1-.45.78l-.5.29c-.25.14-.45,0-.45-.26v-2.19a1,1,0,0,1,.45-.78l.5-.29C369.24,259.7,369.44,259.82,369.44,260.1Z"/><path class="cls-12" d="M367.18,261.4v2.19a1,1,0,0,1-.45.78l-.5.29c-.24.14-.44,0-.44-.26v-2.19a1,1,0,0,1,.44-.78l.5-.29C367,261,367.18,261.12,367.18,261.4Z"/><path class="cls-13" d="M364.92,262.7v2.19a1,1,0,0,1-.44.78L364,266c-.24.14-.44,0-.44-.26v-2.19a1,1,0,0,1,.44-.78l.51-.29C364.72,262.3,364.92,262.42,364.92,262.7Z"/><path class="cls-12" d="M362.67,264v2.2a1,1,0,0,1-.45.77l-.5.29c-.25.14-.45,0-.45-.26v-2.19a1,1,0,0,1,.45-.77l.5-.29C362.47,263.6,362.67,263.72,362.67,264Z"/><path class="cls-12" d="M360.41,265.31v2.19a1,1,0,0,1-.45.77l-.5.29c-.25.14-.45,0-.45-.26v-2.19a1,1,0,0,1,.45-.77l.5-.29C360.21,264.91,360.41,265,360.41,265.31Z"/><polygon class="cls-8" points="331.52 292.76 264.47 254.06 264.47 234.7 331.52 273.41 331.52 292.76"/><polygon class="cls-9" points="331.52 292.76 264.47 254.06 264.47 234.7 331.52 273.41 331.52 292.76"/><g class="cls-14"><path class="cls-15" d="M275.08,245.7l16.48,9.52a4.92,4.92,0,0,1,2.24,3.87v4.52c0,1.42-1,2-2.24,1.29l-16.48-9.52a4.93,4.93,0,0,1-2.23-3.87V247C272.85,245.57,273.85,245,275.08,245.7Z"/></g><path class="cls-8" d="M277.2,250.8l1-.59h0a1.4,1.4,0,0,1,1.36.14,4.31,4.31,0,0,1,1.94,3.37A1.36,1.36,0,0,1,281,255h0l-1,.55-.17-.29a1.8,1.8,0,0,1-.56-.22,4.27,4.27,0,0,1-1.94-3.36,1.88,1.88,0,0,1,.06-.49Z"/><path class="cls-17" d="M277.2,250.8l1-.59h0a1.4,1.4,0,0,1,1.36.14,4.31,4.31,0,0,1,1.94,3.37A1.36,1.36,0,0,1,281,255h0l-1,.55-.17-.29a1.8,1.8,0,0,1-.56-.22,4.27,4.27,0,0,1-1.94-3.36,1.88,1.88,0,0,1,.06-.49Z"/><path class="cls-20" d="M278.62,250.91a4.29,4.29,0,0,1,1.94,3.36c0,1.24-.87,1.74-1.94,1.12a4.27,4.27,0,0,1-1.95-3.36C276.67,250.79,277.54,250.29,278.62,250.91Z"/><path class="cls-8" d="M285.63,255.66l1-.59h0a1.37,1.37,0,0,1,1.37.14,4.29,4.29,0,0,1,1.94,3.36,1.35,1.35,0,0,1-.57,1.25h0l-.95.54-.17-.29a1.93,1.93,0,0,1-.56-.21,4.3,4.3,0,0,1-1.94-3.36,1.9,1.9,0,0,1,.06-.5Z"/><path class="cls-17" d="M285.63,255.66l1-.59h0a1.37,1.37,0,0,1,1.37.14,4.29,4.29,0,0,1,1.94,3.36,1.35,1.35,0,0,1-.57,1.25h0l-.95.54-.17-.29a1.93,1.93,0,0,1-.56-.21,4.3,4.3,0,0,1-1.94-3.36,1.9,1.9,0,0,1,.06-.5Z"/><path class="cls-9" d="M287,255.77a4.28,4.28,0,0,1,1.94,3.36c0,1.24-.86,1.74-1.94,1.13a4.31,4.31,0,0,1-1.94-3.37C285.1,255.66,286,255.15,287,255.77Z"/><polygon class="cls-13" points="390.18 263.73 390.18 258.89 331.52 292.76 331.52 297.6 390.18 263.73"/><polygon class="cls-18" points="268.66 256.48 268.66 261.31 331.52 297.6 331.52 292.76 268.66 256.48"/><path class="cls-8" d="M350.71,270.72l-1-.59h0a1.37,1.37,0,0,0-1.37.14,4.29,4.29,0,0,0-1.94,3.36,1.38,1.38,0,0,0,.57,1.26h0l.95.54.18-.28a2.43,2.43,0,0,0,.55-.22,4.28,4.28,0,0,0,1.94-3.36,1.9,1.9,0,0,0-.06-.5Z"/><path class="cls-17" d="M350.71,270.72l-1-.59h0a1.37,1.37,0,0,0-1.37.14,4.29,4.29,0,0,0-1.94,3.36,1.38,1.38,0,0,0,.57,1.26h0l.95.54.18-.28a2.43,2.43,0,0,0,.55-.22,4.28,4.28,0,0,0,1.94-3.36,1.9,1.9,0,0,0-.06-.5Z"/><path class="cls-8" d="M349.3,270.83a4.31,4.31,0,0,0-1.94,3.37c0,1.23.87,1.74,1.94,1.12a4.31,4.31,0,0,0,1.94-3.37C351.24,270.72,350.37,270.21,349.3,270.83Z"/><path class="cls-9" d="M349.3,270.83a4.31,4.31,0,0,0-1.94,3.37c0,1.23.87,1.74,1.94,1.12a4.31,4.31,0,0,0,1.94-3.37C351.24,270.72,350.37,270.21,349.3,270.83Z"/><path class="cls-8" d="M342.28,275.59l-1-.59h0a1.35,1.35,0,0,0-1.36.14,4.3,4.3,0,0,0-1.94,3.36,1.36,1.36,0,0,0,.56,1.26h0l1,.55.17-.29a2.09,2.09,0,0,0,.56-.22,4.29,4.29,0,0,0,1.94-3.36,2.54,2.54,0,0,0-.06-.5Z"/><path class="cls-17" d="M342.28,275.59l-1-.59h0a1.35,1.35,0,0,0-1.36.14,4.3,4.3,0,0,0-1.94,3.36,1.36,1.36,0,0,0,.56,1.26h0l1,.55.17-.29a2.09,2.09,0,0,0,.56-.22,4.29,4.29,0,0,0,1.94-3.36,2.54,2.54,0,0,0-.06-.5Z"/><path class="cls-8" d="M340.87,275.7a4.29,4.29,0,0,0-1.94,3.36c0,1.24.87,1.74,1.94,1.12a4.29,4.29,0,0,0,1.94-3.36C342.81,275.58,341.94,275.08,340.87,275.7Z"/><path class="cls-9" d="M340.87,275.7a4.29,4.29,0,0,0-1.94,3.36c0,1.24.87,1.74,1.94,1.12a4.29,4.29,0,0,0,1.94-3.36C342.81,275.58,341.94,275.08,340.87,275.7Z"/><path class="cls-8" d="M267.15,204.13l61.72-35.61a6,6,0,0,1,5.36,0l61.65,35.61a5.93,5.93,0,0,1,2.68,4.64V225l-67.08,38.71h0l-67-38.71V208.78A6,6,0,0,1,267.15,204.13Z"/><path class="cls-9" d="M267.15,204.13l61.72-35.61a6,6,0,0,1,5.36,0l61.65,35.61a5.93,5.93,0,0,1,2.68,4.64V225l-67.08,38.71h0l-67-38.71V208.78A6,6,0,0,1,267.15,204.13Z"/><g class="cls-14"><path class="cls-15" d="M275.08,216.65l16.48,9.51A5,5,0,0,1,293.8,230v4.52c0,1.43-1,2-2.24,1.29l-16.48-9.52a4.93,4.93,0,0,1-2.23-3.86v-4.52C272.85,216.51,273.85,215.93,275.08,216.65Z"/></g><path class="cls-8" d="M277.2,221.74l1-.59h0a1.35,1.35,0,0,1,1.36.14,4.29,4.29,0,0,1,1.94,3.36,1.38,1.38,0,0,1-.56,1.26h0l-1,.54-.17-.28a2.49,2.49,0,0,1-.56-.22,4.3,4.3,0,0,1-1.94-3.36,1.9,1.9,0,0,1,.06-.5Z"/><path class="cls-17" d="M277.2,221.74l1-.59h0a1.35,1.35,0,0,1,1.36.14,4.29,4.29,0,0,1,1.94,3.36,1.38,1.38,0,0,1-.56,1.26h0l-1,.54-.17-.28a2.49,2.49,0,0,1-.56-.22,4.3,4.3,0,0,1-1.94-3.36,1.9,1.9,0,0,1,.06-.5Z"/><path class="cls-20" d="M278.62,221.85a4.31,4.31,0,0,1,1.94,3.37c0,1.23-.87,1.74-1.94,1.12a4.29,4.29,0,0,1-1.95-3.37C276.67,221.74,277.54,221.23,278.62,221.85Z"/><path class="cls-8" d="M285.63,226.61l1-.59h0a1.37,1.37,0,0,1,1.37.14,4.3,4.3,0,0,1,1.94,3.36,1.37,1.37,0,0,1-.57,1.26h0l-.95.55-.17-.29a2,2,0,0,1-.56-.22,4.29,4.29,0,0,1-1.94-3.36,2,2,0,0,1,.06-.5Z"/><path class="cls-17" d="M285.63,226.61l1-.59h0a1.37,1.37,0,0,1,1.37.14,4.3,4.3,0,0,1,1.94,3.36,1.37,1.37,0,0,1-.57,1.26h0l-.95.55-.17-.29a2,2,0,0,1-.56-.22,4.29,4.29,0,0,1-1.94-3.36,2,2,0,0,1,.06-.5Z"/><path class="cls-9" d="M287,226.72a4.26,4.26,0,0,1,1.94,3.36c0,1.24-.86,1.74-1.94,1.12a4.29,4.29,0,0,1-1.94-3.36C285.1,226.6,286,226.1,287,226.72Z"/><path class="cls-8" d="M331.48,243.48v20.26L398.56,225V208.78a6,6,0,0,0-2.2-4.31c1,.86.82,2-.48,2.76l-61.73,35.61A5.49,5.49,0,0,1,331.48,243.48Z"/><path class="cls-11" d="M331.48,243.48v20.26L398.56,225V208.78a6,6,0,0,0-2.2-4.31c1,.86.82,2-.48,2.76l-61.73,35.61A5.49,5.49,0,0,1,331.48,243.48Z"/><path class="cls-9" d="M392.14,214.23l-33.25,19.19a4.93,4.93,0,0,0-2.23,3.87v4.52c0,1.42,1,2,2.23,1.29l33.25-19.2a4.93,4.93,0,0,0,2.23-3.87v-4.51C394.37,214.09,393.37,213.51,392.14,214.23Z"/><path class="cls-13" d="M392,218.05v2.2a1,1,0,0,1-.44.77l-.51.29c-.24.14-.44,0-.44-.26v-2.19a1,1,0,0,1,.44-.77l.51-.29C391.81,217.65,392,217.77,392,218.05Z"/><path class="cls-12" d="M389.76,219.35v2.2a1,1,0,0,1-.45.77l-.5.29c-.25.14-.45,0-.45-.26v-2.19a1,1,0,0,1,.45-.77l.5-.29C389.56,219,389.76,219.07,389.76,219.35Z"/><path class="cls-13" d="M387.5,220.66v2.19a1,1,0,0,1-.45.77l-.5.29c-.25.14-.45,0-.45-.26v-2.19a1,1,0,0,1,.45-.77l.5-.29C387.3,220.26,387.5,220.37,387.5,220.66Z"/><path class="cls-13" d="M385.24,222v2.19a1,1,0,0,1-.45.77l-.5.29c-.25.15-.45,0-.45-.25v-2.2a1,1,0,0,1,.45-.77l.5-.29C385,221.56,385.24,221.67,385.24,222Z"/><path class="cls-13" d="M383,223.26v2.19a1,1,0,0,1-.44.77l-.51.29c-.24.15-.44,0-.44-.25v-2.2a1,1,0,0,1,.44-.77l.51-.29C382.78,222.86,383,223,383,223.26Z"/><path class="cls-12" d="M380.73,224.56v2.19a1,1,0,0,1-.45.78l-.5.29c-.25.14-.45,0-.45-.26v-2.19a1,1,0,0,1,.45-.78l.5-.29C380.53,224.16,380.73,224.28,380.73,224.56Z"/><path class="cls-12" d="M378.47,225.86v2.19a1,1,0,0,1-.45.78l-.5.29c-.25.14-.45,0-.45-.26v-2.19a1,1,0,0,1,.45-.78l.5-.29C378.27,225.46,378.47,225.58,378.47,225.86Z"/><path class="cls-13" d="M376.21,227.16v2.19a1,1,0,0,1-.45.78l-.5.29c-.24.14-.44,0-.44-.26V228a1,1,0,0,1,.44-.77l.5-.3C376,226.76,376.21,226.88,376.21,227.16Z"/><path class="cls-12" d="M374,228.46v2.2a1,1,0,0,1-.44.77l-.51.29c-.24.14-.44,0-.44-.26v-2.19a1,1,0,0,1,.44-.77l.51-.29C373.75,228.06,374,228.18,374,228.46Z"/><path class="cls-13" d="M371.7,229.77V232a1,1,0,0,1-.45.77l-.5.29c-.25.14-.45,0-.45-.26v-2.19a1,1,0,0,1,.45-.77l.5-.29C371.5,229.37,371.7,229.48,371.7,229.77Z"/><path class="cls-13" d="M369.44,231.07v2.19a1,1,0,0,1-.45.77l-.5.29c-.25.15-.45,0-.45-.26v-2.19a1,1,0,0,1,.45-.77l.5-.29C369.24,230.67,369.44,230.78,369.44,231.07Z"/><path class="cls-13" d="M367.18,232.37v2.19a1,1,0,0,1-.45.77l-.5.29c-.24.15-.44,0-.44-.25v-2.2a1,1,0,0,1,.44-.77l.5-.29C367,232,367.18,232.08,367.18,232.37Z"/><path class="cls-12" d="M364.92,233.67v2.19a1,1,0,0,1-.44.78l-.51.29c-.24.14-.44,0-.44-.26v-2.19a1,1,0,0,1,.44-.78l.51-.29C364.72,233.27,364.92,233.38,364.92,233.67Z"/><path class="cls-13" d="M362.67,235v2.19a1,1,0,0,1-.45.78l-.5.29c-.25.14-.45,0-.45-.26v-2.19a1,1,0,0,1,.45-.78l.5-.29C362.47,234.57,362.67,234.69,362.67,235Z"/><path class="cls-13" d="M360.41,236.27v2.19a1,1,0,0,1-.45.78l-.5.29c-.25.14-.45,0-.45-.26v-2.19a1,1,0,0,1,.45-.78l.5-.29C360.21,235.87,360.41,236,360.41,236.27Z"/><path class="cls-8" d="M395.88,207.23l-61.72,35.61a5.89,5.89,0,0,1-5.36,0l-61.65-35.61c-1.48-.86-1.48-2.24,0-3.1l61.72-35.61a5.89,5.89,0,0,1,5.36,0l61.65,35.61C397.36,205,397.36,206.37,395.88,207.23Z"/><path class="cls-21" d="M395.88,207.23l-61.72,35.61a5.89,5.89,0,0,1-5.36,0l-61.65-35.61c-1.48-.86-1.48-2.24,0-3.1l61.72-35.61a5.89,5.89,0,0,1,5.36,0l61.65,35.61C397.36,205,397.36,206.37,395.88,207.23Z"/><polygon class="cls-13" points="390.18 234.71 390.18 229.87 331.52 263.74 331.52 268.58 390.18 234.71"/><polygon class="cls-18" points="268.66 227.45 268.66 232.29 331.52 268.58 331.52 263.74 268.66 227.45"/><path class="cls-8" d="M350.71,241.7l-1-.59h0a1.37,1.37,0,0,0-1.37.14,4.27,4.27,0,0,0-1.94,3.36,1.35,1.35,0,0,0,.57,1.25h0l.95.55.18-.29a2,2,0,0,0,.55-.21,4.28,4.28,0,0,0,1.94-3.37,1.88,1.88,0,0,0-.06-.49Z"/><path class="cls-17" d="M350.71,241.7l-1-.59h0a1.37,1.37,0,0,0-1.37.14,4.27,4.27,0,0,0-1.94,3.36,1.35,1.35,0,0,0,.57,1.25h0l.95.55.18-.29a2,2,0,0,0,.55-.21,4.28,4.28,0,0,0,1.94-3.37,1.88,1.88,0,0,0-.06-.49Z"/><path class="cls-8" d="M349.3,241.81a4.3,4.3,0,0,0-1.94,3.36c0,1.24.87,1.74,1.94,1.12a4.27,4.27,0,0,0,1.94-3.36C351.24,241.69,350.37,241.19,349.3,241.81Z"/><path class="cls-9" d="M349.3,241.81a4.3,4.3,0,0,0-1.94,3.36c0,1.24.87,1.74,1.94,1.12a4.27,4.27,0,0,0,1.94-3.36C351.24,241.69,350.37,241.19,349.3,241.81Z"/><path class="cls-8" d="M342.28,246.56l-1-.59h0a1.35,1.35,0,0,0-1.36.14,4.29,4.29,0,0,0-1.94,3.36,1.38,1.38,0,0,0,.56,1.26h0l1,.54.17-.28a2.09,2.09,0,0,0,.56-.22,4.29,4.29,0,0,0,1.94-3.36,2.45,2.45,0,0,0-.06-.5Z"/><path class="cls-17" d="M342.28,246.56l-1-.59h0a1.35,1.35,0,0,0-1.36.14,4.29,4.29,0,0,0-1.94,3.36,1.38,1.38,0,0,0,.56,1.26h0l1,.54.17-.28a2.09,2.09,0,0,0,.56-.22,4.29,4.29,0,0,0,1.94-3.36,2.45,2.45,0,0,0-.06-.5Z"/><path class="cls-8" d="M340.87,246.67a4.31,4.31,0,0,0-1.94,3.37c0,1.23.87,1.74,1.94,1.12a4.3,4.3,0,0,0,1.94-3.36C342.81,246.56,341.94,246.06,340.87,246.67Z"/><path class="cls-9" d="M340.87,246.67a4.31,4.31,0,0,0-1.94,3.37c0,1.23.87,1.74,1.94,1.12a4.3,4.3,0,0,0,1.94-3.36C342.81,246.56,341.94,246.06,340.87,246.67Z"/></g><g id="Server-2" data-name="Server"><polygon class="cls-8" points="260.26 321.61 215.56 347.42 170.87 321.61 215.56 295.81 260.26 321.61"/><polygon class="cls-9" points="260.26 321.61 215.56 347.42 170.87 321.61 215.56 295.81 260.26 321.61"/><polygon class="cls-10" points="215.56 347.42 215.56 344.19 173.66 320 170.87 321.61 215.56 347.42"/><polygon class="cls-8" points="260.25 334.52 215.56 360.32 215.56 347.42 260.26 321.61 260.25 334.52"/><polygon class="cls-11" points="260.25 334.52 215.56 360.32 215.56 347.42 260.26 321.61 260.25 334.52"/><path class="cls-9" d="M256,327.3l-22.16,12.8a3.29,3.29,0,0,0-1.49,2.58v3c0,.95.67,1.33,1.49.86L256,333.75a3.26,3.26,0,0,0,1.49-2.57v-3C257.46,327.21,256.79,326.83,256,327.3Z"/><path class="cls-12" d="M255.89,329.85v1.47a.63.63,0,0,1-.3.51l-.33.19c-.17.1-.3,0-.3-.17v-1.46a.63.63,0,0,1,.3-.51l.33-.2C255.76,329.59,255.89,329.66,255.89,329.85Z"/><path class="cls-12" d="M254.39,330.72v1.46a.69.69,0,0,1-.3.52l-.34.19c-.16.1-.29,0-.29-.17v-1.46a.68.68,0,0,1,.29-.52l.34-.19C254.25,330.45,254.39,330.53,254.39,330.72Z"/><path class="cls-12" d="M252.88,331.59v1.46a.66.66,0,0,1-.3.52l-.33.19c-.17.09-.3,0-.3-.17v-1.46a.66.66,0,0,1,.3-.52l.33-.19C252.75,331.32,252.88,331.4,252.88,331.59Z"/><path class="cls-12" d="M251.38,332.46v1.46a.65.65,0,0,1-.3.51l-.34.2c-.16.09-.29,0-.29-.17V333a.64.64,0,0,1,.29-.51l.34-.2A.19.19,0,0,1,251.38,332.46Z"/><path class="cls-13" d="M249.87,333.32v1.47a.63.63,0,0,1-.3.51l-.33.19c-.17.1-.3,0-.3-.17v-1.46a.63.63,0,0,1,.3-.51l.33-.2C249.74,333.06,249.87,333.13,249.87,333.32Z"/><path class="cls-13" d="M248.37,334.19v1.46a.69.69,0,0,1-.3.52l-.34.19c-.16.1-.29,0-.29-.17v-1.46a.68.68,0,0,1,.29-.52l.34-.19C248.23,333.92,248.37,334,248.37,334.19Z"/><path class="cls-12" d="M246.86,335.06v1.46a.66.66,0,0,1-.3.52l-.33.19c-.17.09-.3,0-.3-.17V335.6a.66.66,0,0,1,.3-.52l.33-.19C246.73,334.79,246.86,334.87,246.86,335.06Z"/><path class="cls-12" d="M245.36,335.93v1.46a.65.65,0,0,1-.3.51l-.34.2c-.16.09-.29,0-.29-.17v-1.47a.64.64,0,0,1,.29-.51l.34-.19C245.22,335.66,245.36,335.74,245.36,335.93Z"/><path class="cls-12" d="M243.85,336.79v1.47a.63.63,0,0,1-.3.51l-.33.2c-.17.09-.3,0-.3-.18v-1.46a.63.63,0,0,1,.3-.51l.33-.2C243.72,336.53,243.85,336.6,243.85,336.79Z"/><path class="cls-13" d="M242.35,337.66v1.46a.69.69,0,0,1-.3.52l-.34.19c-.16.1-.29,0-.29-.17V338.2a.68.68,0,0,1,.29-.52l.34-.19C242.21,337.4,242.35,337.47,242.35,337.66Z"/><path class="cls-12" d="M240.84,338.53V340a.66.66,0,0,1-.3.52l-.33.19c-.17.1-.3,0-.3-.17v-1.46a.66.66,0,0,1,.3-.52l.33-.19C240.71,338.26,240.84,338.34,240.84,338.53Z"/><path class="cls-12" d="M239.34,339.4v1.46a.65.65,0,0,1-.3.51l-.34.2c-.16.09-.29,0-.29-.17v-1.47a.64.64,0,0,1,.29-.51l.34-.19C239.2,339.13,239.34,339.21,239.34,339.4Z"/><path class="cls-13" d="M237.83,340.26v1.47a.63.63,0,0,1-.3.51l-.33.2c-.17.09-.3,0-.3-.18V340.8a.63.63,0,0,1,.3-.51l.33-.2C237.7,340,237.83,340.07,237.83,340.26Z"/><path class="cls-12" d="M236.33,341.13v1.46a.69.69,0,0,1-.3.52l-.34.19c-.16.1-.29,0-.29-.17v-1.46a.68.68,0,0,1,.29-.52L236,341C236.19,340.87,236.33,340.94,236.33,341.13Z"/><path class="cls-13" d="M234.82,342v1.46a.66.66,0,0,1-.3.52l-.33.19c-.16.1-.3,0-.3-.17v-1.46a.69.69,0,0,1,.3-.52l.33-.19C234.69,341.73,234.82,341.81,234.82,342Z"/><polygon class="cls-8" points="215.56 360.32 170.87 334.52 170.87 321.61 215.56 347.42 215.56 360.32"/><polygon class="cls-9" points="215.56 360.32 170.87 334.52 170.87 321.61 215.56 347.42 215.56 360.32"/><g class="cls-14"><path class="cls-15" d="M177.94,328.92l11,6.35a3.29,3.29,0,0,1,1.49,2.58v3c0,.95-.67,1.34-1.49.86l-11-6.34a3.31,3.31,0,0,1-1.49-2.58v-3C176.45,328.83,177.12,328.45,177.94,328.92Z"/></g><path class="cls-8" d="M179.35,332.32l.69-.39h0a.88.88,0,0,1,.91.09,2.84,2.84,0,0,1,1.3,2.24.93.93,0,0,1-.38.84h0l-.64.36-.11-.19a1.54,1.54,0,0,1-.37-.14,2.87,2.87,0,0,1-1.3-2.25,1.66,1.66,0,0,1,0-.33Z"/><path class="cls-17" d="M179.35,332.32l.69-.39h0a.88.88,0,0,1,.91.09,2.84,2.84,0,0,1,1.3,2.24.93.93,0,0,1-.38.84h0l-.64.36-.11-.19a1.54,1.54,0,0,1-.37-.14,2.87,2.87,0,0,1-1.3-2.25,1.66,1.66,0,0,1,0-.33Z"/><path class="cls-9" d="M180.3,332.4a2.85,2.85,0,0,1,1.29,2.24c0,.82-.58,1.16-1.29.74a2.84,2.84,0,0,1-1.3-2.24C179,332.32,179.58,332,180.3,332.4Z"/><path class="cls-8" d="M185,335.56l.68-.39h0a.93.93,0,0,1,.91.09,2.87,2.87,0,0,1,1.29,2.24.93.93,0,0,1-.37.84h0l-.63.36-.12-.19a1.32,1.32,0,0,1-.37-.14,2.87,2.87,0,0,1-1.29-2.24,1.57,1.57,0,0,1,0-.33Z"/><path class="cls-17" d="M185,335.56l.68-.39h0a.93.93,0,0,1,.91.09,2.87,2.87,0,0,1,1.29,2.24.93.93,0,0,1-.37.84h0l-.63.36-.12-.19a1.32,1.32,0,0,1-.37-.14,2.87,2.87,0,0,1-1.29-2.24,1.57,1.57,0,0,1,0-.33Z"/><path class="cls-9" d="M185.91,335.64a2.84,2.84,0,0,1,1.3,2.24c0,.82-.58,1.16-1.3.75a2.89,2.89,0,0,1-1.29-2.24C184.62,335.56,185.2,335.23,185.91,335.64Z"/><polygon class="cls-13" points="254.67 340.97 254.67 337.74 215.56 360.32 215.56 363.55 254.67 340.97"/><polygon class="cls-18" points="173.66 336.13 173.66 339.35 215.56 363.55 215.56 360.32 173.66 336.13"/><path class="cls-8" d="M228.36,345.63l-.69-.4h0a.93.93,0,0,0-.91.09,2.86,2.86,0,0,0-1.29,2.24.9.9,0,0,0,.37.84h0l.64.37.11-.2a1,1,0,0,0,.38-.14,2.87,2.87,0,0,0,1.29-2.24,1.66,1.66,0,0,0,0-.33Z"/><path class="cls-17" d="M228.36,345.63l-.69-.4h0a.93.93,0,0,0-.91.09,2.86,2.86,0,0,0-1.29,2.24.9.9,0,0,0,.37.84h0l.64.37.11-.2a1,1,0,0,0,.38-.14,2.87,2.87,0,0,0,1.29-2.24,1.66,1.66,0,0,0,0-.33Z"/><path class="cls-8" d="M227.42,345.7a2.85,2.85,0,0,0-1.3,2.24c0,.83.58,1.16,1.3.75a2.87,2.87,0,0,0,1.29-2.24C228.71,345.62,228.13,345.29,227.42,345.7Z"/><path class="cls-9" d="M227.42,345.7a2.85,2.85,0,0,0-1.3,2.24c0,.83.58,1.16,1.3.75a2.87,2.87,0,0,0,1.29-2.24C228.71,345.62,228.13,345.29,227.42,345.7Z"/><path class="cls-8" d="M222.74,348.87l-.68-.4h0a.91.91,0,0,0-.91.1,2.85,2.85,0,0,0-1.29,2.24.88.88,0,0,0,.38.83h0l.63.37.12-.19a1.37,1.37,0,0,0,.37-.15,2.85,2.85,0,0,0,1.29-2.24,1.15,1.15,0,0,0,0-.33Z"/><path class="cls-17" d="M222.74,348.87l-.68-.4h0a.91.91,0,0,0-.91.1,2.85,2.85,0,0,0-1.29,2.24.88.88,0,0,0,.38.83h0l.63.37.12-.19a1.37,1.37,0,0,0,.37-.15,2.85,2.85,0,0,0,1.29-2.24,1.15,1.15,0,0,0,0-.33Z"/><path class="cls-8" d="M221.8,348.94a2.85,2.85,0,0,0-1.3,2.24c0,.83.58,1.16,1.3.75a2.87,2.87,0,0,0,1.29-2.24C223.09,348.86,222.51,348.53,221.8,348.94Z"/><path class="cls-9" d="M221.8,348.94a2.85,2.85,0,0,0-1.3,2.24c0,.83.58,1.16,1.3.75a2.87,2.87,0,0,0,1.29-2.24C223.09,348.86,222.51,348.53,221.8,348.94Z"/><polygon class="cls-8" points="260.26 302.26 215.56 328.06 170.87 302.26 215.56 276.46 260.26 302.26"/><polygon class="cls-19" points="260.26 302.26 215.56 328.06 170.87 302.26 215.56 276.46 260.26 302.26"/><polygon class="cls-9" points="260.26 302.26 215.56 328.06 170.87 302.26 215.56 276.46 260.26 302.26"/><polygon class="cls-10" points="215.56 324.85 215.56 328.06 170.87 302.26 173.66 300.65 215.56 324.85"/><polygon class="cls-8" points="260.25 315.16 215.56 340.97 215.56 328.06 260.26 302.26 260.25 315.16"/><polygon class="cls-11" points="260.25 315.16 215.56 340.97 215.56 328.06 260.26 302.26 260.25 315.16"/><path class="cls-9" d="M256,308l-22.16,12.8a3.31,3.31,0,0,0-1.49,2.58v3c0,.95.67,1.34,1.49.86L256,314.42a3.28,3.28,0,0,0,1.49-2.58v-3C257.46,307.87,256.79,307.49,256,308Z"/><path class="cls-12" d="M255.89,310.52V312a.63.63,0,0,1-.3.51l-.33.2c-.17.09-.3,0-.3-.18v-1.46a.63.63,0,0,1,.3-.51l.33-.2C255.76,310.25,255.89,310.33,255.89,310.52Z"/><path class="cls-13" d="M254.39,311.38v1.46a.67.67,0,0,1-.3.52l-.34.19c-.16.1-.29,0-.29-.17v-1.46a.64.64,0,0,1,.29-.51l.34-.2C254.25,311.12,254.39,311.19,254.39,311.38Z"/><path class="cls-12" d="M252.88,312.25v1.46a.66.66,0,0,1-.3.52l-.33.19c-.17.1-.3,0-.3-.17v-1.46a.66.66,0,0,1,.3-.52l.33-.19C252.75,312,252.88,312.06,252.88,312.25Z"/><path class="cls-12" d="M251.38,313.12v1.46a.69.69,0,0,1-.3.52l-.34.19c-.16.09-.29,0-.29-.17v-1.46a.68.68,0,0,1,.29-.52l.34-.19C251.24,312.85,251.38,312.93,251.38,313.12Z"/><path class="cls-12" d="M249.87,314v1.46a.63.63,0,0,1-.3.51l-.33.2c-.17.09-.3,0-.3-.18v-1.46a.63.63,0,0,1,.3-.51l.33-.2C249.74,313.72,249.87,313.8,249.87,314Z"/><path class="cls-13" d="M248.37,314.85v1.47a.65.65,0,0,1-.3.51l-.34.19c-.16.1-.29,0-.29-.17v-1.46a.64.64,0,0,1,.29-.51l.34-.2C248.23,314.59,248.37,314.66,248.37,314.85Z"/><path class="cls-13" d="M246.86,315.72v1.46a.66.66,0,0,1-.3.52l-.33.19c-.17.1-.3,0-.3-.17v-1.46a.66.66,0,0,1,.3-.52l.33-.19C246.73,315.45,246.86,315.53,246.86,315.72Z"/><path class="cls-12" d="M245.36,316.59v1.46a.69.69,0,0,1-.3.52l-.34.19c-.16.09-.29,0-.29-.17v-1.46a.68.68,0,0,1,.29-.52l.34-.19C245.22,316.32,245.36,316.4,245.36,316.59Z"/><path class="cls-13" d="M243.85,317.46v1.46a.63.63,0,0,1-.3.51l-.33.2c-.17.09-.3,0-.3-.18V318a.63.63,0,0,1,.3-.51l.33-.2C243.72,317.19,243.85,317.27,243.85,317.46Z"/><path class="cls-12" d="M242.35,318.32v1.47a.65.65,0,0,1-.3.51l-.34.19c-.16.1-.29,0-.29-.17v-1.46a.64.64,0,0,1,.29-.51l.34-.2C242.21,318.06,242.35,318.13,242.35,318.32Z"/><path class="cls-12" d="M240.84,319.19v1.46a.66.66,0,0,1-.3.52l-.33.19c-.17.1-.3,0-.3-.17v-1.46a.66.66,0,0,1,.3-.52l.33-.19C240.71,318.92,240.84,319,240.84,319.19Z"/><path class="cls-12" d="M239.34,320.06v1.46a.69.69,0,0,1-.3.52l-.34.19c-.16.09-.29,0-.29-.17V320.6a.68.68,0,0,1,.29-.52l.34-.19C239.2,319.79,239.34,319.87,239.34,320.06Z"/><path class="cls-13" d="M237.83,320.93v1.46a.63.63,0,0,1-.3.51l-.33.2c-.17.09-.3,0-.3-.17v-1.47a.63.63,0,0,1,.3-.51l.33-.2C237.7,320.66,237.83,320.74,237.83,320.93Z"/><path class="cls-12" d="M236.33,321.79v1.47a.65.65,0,0,1-.3.51l-.34.19c-.16.1-.29,0-.29-.17v-1.46a.64.64,0,0,1,.29-.51l.34-.2C236.19,321.53,236.33,321.6,236.33,321.79Z"/><path class="cls-12" d="M234.82,322.66v1.46a.66.66,0,0,1-.3.52l-.33.19c-.16.1-.3,0-.3-.17V323.2a.69.69,0,0,1,.3-.52l.33-.19C234.69,322.39,234.82,322.47,234.82,322.66Z"/><polygon class="cls-8" points="215.56 340.97 170.87 315.16 170.87 302.26 215.56 328.06 215.56 340.97"/><polygon class="cls-9" points="215.56 340.97 170.87 315.16 170.87 302.26 215.56 328.06 215.56 340.97"/><g class="cls-14"><path class="cls-15" d="M177.94,309.59l11,6.35a3.29,3.29,0,0,1,1.49,2.58v3c0,1-.67,1.33-1.49.86l-11-6.35a3.27,3.27,0,0,1-1.49-2.57v-3C176.45,309.5,177.12,309.12,177.94,309.59Z"/></g><path class="cls-8" d="M179.35,313l.69-.39h0a.91.91,0,0,1,.91.1,2.84,2.84,0,0,1,1.3,2.24.93.93,0,0,1-.38.84h0l-.64.36-.11-.19a1.25,1.25,0,0,1-.37-.15,2.84,2.84,0,0,1-1.3-2.24,1.66,1.66,0,0,1,0-.33Z"/><path class="cls-17" d="M179.35,313l.69-.39h0a.91.91,0,0,1,.91.1,2.84,2.84,0,0,1,1.3,2.24.93.93,0,0,1-.38.84h0l-.64.36-.11-.19a1.25,1.25,0,0,1-.37-.15,2.84,2.84,0,0,1-1.3-2.24,1.66,1.66,0,0,1,0-.33Z"/><path class="cls-9" d="M180.3,313.06a2.89,2.89,0,0,1,1.29,2.25c0,.82-.58,1.16-1.29.74a2.84,2.84,0,0,1-1.3-2.24C179,313,179.58,312.65,180.3,313.06Z"/><path class="cls-8" d="M185,316.23l.68-.39h0a.88.88,0,0,1,.91.09,2.87,2.87,0,0,1,1.29,2.24.93.93,0,0,1-.37.84h0l-.63.36-.12-.19a1.72,1.72,0,0,1-.37-.14,2.89,2.89,0,0,1-1.29-2.24,1.67,1.67,0,0,1,0-.34Z"/><path class="cls-17" d="M185,316.23l.68-.39h0a.88.88,0,0,1,.91.09,2.87,2.87,0,0,1,1.29,2.24.93.93,0,0,1-.37.84h0l-.63.36-.12-.19a1.72,1.72,0,0,1-.37-.14,2.89,2.89,0,0,1-1.29-2.24,1.67,1.67,0,0,1,0-.34Z"/><path class="cls-9" d="M185.91,316.31a2.84,2.84,0,0,1,1.3,2.24c0,.82-.58,1.16-1.3.75a2.89,2.89,0,0,1-1.29-2.25C184.62,316.23,185.2,315.89,185.91,316.31Z"/><polygon class="cls-13" points="254.67 321.61 254.67 318.39 215.56 340.97 215.56 344.19 254.67 321.61"/><polygon class="cls-18" points="173.66 316.78 173.66 320 215.56 344.19 215.56 340.97 173.66 316.78"/><path class="cls-8" d="M228.36,326.27l-.69-.39h0a.88.88,0,0,0-.91.09,2.84,2.84,0,0,0-1.29,2.24.93.93,0,0,0,.37.84h0l.64.36.11-.19a1.61,1.61,0,0,0,.38-.14,2.89,2.89,0,0,0,1.29-2.24,1.67,1.67,0,0,0,0-.34Z"/><path class="cls-17" d="M228.36,326.27l-.69-.39h0a.88.88,0,0,0-.91.09,2.84,2.84,0,0,0-1.29,2.24.93.93,0,0,0,.37.84h0l.64.36.11-.19a1.61,1.61,0,0,0,.38-.14,2.89,2.89,0,0,0,1.29-2.24,1.67,1.67,0,0,0,0-.34Z"/><path class="cls-8" d="M227.42,326.35a2.84,2.84,0,0,0-1.3,2.24c0,.82.58,1.16,1.3.75a2.89,2.89,0,0,0,1.29-2.25C228.71,326.27,228.13,325.93,227.42,326.35Z"/><path class="cls-9" d="M227.42,326.35a2.84,2.84,0,0,0-1.3,2.24c0,.82.58,1.16,1.3.75a2.89,2.89,0,0,0,1.29-2.25C228.71,326.27,228.13,325.93,227.42,326.35Z"/><path class="cls-8" d="M222.74,329.52l-.68-.4h0a.93.93,0,0,0-.91.09,2.87,2.87,0,0,0-1.29,2.24.9.9,0,0,0,.38.84h0l.63.36.12-.19a1.32,1.32,0,0,0,.37-.14,2.87,2.87,0,0,0,1.29-2.24,1.15,1.15,0,0,0,0-.33Z"/><path class="cls-17" d="M222.74,329.52l-.68-.4h0a.93.93,0,0,0-.91.09,2.87,2.87,0,0,0-1.29,2.24.9.9,0,0,0,.38.84h0l.63.36.12-.19a1.32,1.32,0,0,0,.37-.14,2.87,2.87,0,0,0,1.29-2.24,1.15,1.15,0,0,0,0-.33Z"/><path class="cls-8" d="M221.8,329.59a2.85,2.85,0,0,0-1.3,2.24c0,.83.58,1.16,1.3.75a2.87,2.87,0,0,0,1.29-2.24C223.09,329.51,222.51,329.18,221.8,329.59Z"/><path class="cls-9" d="M221.8,329.59a2.85,2.85,0,0,0-1.3,2.24c0,.83.58,1.16,1.3.75a2.87,2.87,0,0,0,1.29-2.24C223.09,329.51,222.51,329.18,221.8,329.59Z"/><path class="cls-8" d="M172.65,281.88l41.15-23.74a3.94,3.94,0,0,1,3.57,0l41.1,23.74a4,4,0,0,1,1.79,3.1v10.84l-44.73,25.8h0l-44.67-25.8V285A4,4,0,0,1,172.65,281.88Z"/><path class="cls-9" d="M172.65,281.88l41.15-23.74a3.94,3.94,0,0,1,3.57,0l41.1,23.74a4,4,0,0,1,1.79,3.1v10.84l-44.73,25.8h0l-44.67-25.8V285A4,4,0,0,1,172.65,281.88Z"/><g class="cls-14"><path class="cls-15" d="M177.94,290.22l11,6.35a3.29,3.29,0,0,1,1.49,2.58v3c0,.95-.67,1.33-1.49.86l-11-6.35a3.27,3.27,0,0,1-1.49-2.57v-3C176.45,290.13,177.12,289.75,177.94,290.22Z"/></g><path class="cls-8" d="M179.35,293.62l.69-.39h0a.91.91,0,0,1,.91.1,2.84,2.84,0,0,1,1.3,2.24.93.93,0,0,1-.38.84h0l-.64.36-.11-.19a1.25,1.25,0,0,1-.37-.15,2.84,2.84,0,0,1-1.3-2.24,1.66,1.66,0,0,1,0-.33Z"/><path class="cls-17" d="M179.35,293.62l.69-.39h0a.91.91,0,0,1,.91.1,2.84,2.84,0,0,1,1.3,2.24.93.93,0,0,1-.38.84h0l-.64.36-.11-.19a1.25,1.25,0,0,1-.37-.15,2.84,2.84,0,0,1-1.3-2.24,1.66,1.66,0,0,1,0-.33Z"/><path class="cls-9" d="M180.3,293.69a2.89,2.89,0,0,1,1.29,2.25c0,.82-.58,1.16-1.29.74a2.84,2.84,0,0,1-1.3-2.24C179,293.62,179.58,293.28,180.3,293.69Z"/><path class="cls-8" d="M185,296.86l.68-.39h0a.88.88,0,0,1,.91.09,2.87,2.87,0,0,1,1.29,2.24.93.93,0,0,1-.37.84h0l-.63.36-.12-.19a1.72,1.72,0,0,1-.37-.14,2.89,2.89,0,0,1-1.29-2.24,1.67,1.67,0,0,1,0-.34Z"/><path class="cls-17" d="M185,296.86l.68-.39h0a.88.88,0,0,1,.91.09,2.87,2.87,0,0,1,1.29,2.24.93.93,0,0,1-.37.84h0l-.63.36-.12-.19a1.72,1.72,0,0,1-.37-.14,2.89,2.89,0,0,1-1.29-2.24,1.67,1.67,0,0,1,0-.34Z"/><path class="cls-9" d="M185.91,296.94a2.84,2.84,0,0,1,1.3,2.24c0,.82-.58,1.16-1.3.75a2.89,2.89,0,0,1-1.29-2.25C184.62,296.86,185.2,296.52,185.91,296.94Z"/><path class="cls-8" d="M215.54,308.11v13.51l44.71-25.8V285a4,4,0,0,0-1.46-2.87c.65.57.54,1.33-.32,1.84l-41.15,23.74A3.69,3.69,0,0,1,215.54,308.11Z"/><path class="cls-11" d="M215.54,308.11v13.51l44.71-25.8V285a4,4,0,0,0-1.46-2.87c.65.57.54,1.33-.32,1.84l-41.15,23.74A3.69,3.69,0,0,1,215.54,308.11Z"/><path class="cls-9" d="M256,288.61l-22.16,12.8a3.29,3.29,0,0,0-1.49,2.57v3c0,.95.67,1.33,1.49.86L256,295.06a3.27,3.27,0,0,0,1.49-2.58v-3C257.46,288.52,256.79,288.14,256,288.61Z"/><path class="cls-13" d="M255.89,291.16v1.46a.66.66,0,0,1-.3.52l-.33.19c-.17.1-.3,0-.3-.17V291.7a.66.66,0,0,1,.3-.52l.33-.19C255.76,290.89,255.89,291,255.89,291.16Z"/><path class="cls-12" d="M254.39,292v1.46a.69.69,0,0,1-.3.52l-.34.19c-.16.09-.29,0-.29-.17v-1.46a.68.68,0,0,1,.29-.52l.34-.19C254.25,291.76,254.39,291.84,254.39,292Z"/><path class="cls-13" d="M252.88,292.9v1.46a.63.63,0,0,1-.3.51l-.33.2c-.17.09-.3,0-.3-.18v-1.46a.63.63,0,0,1,.3-.51l.33-.2C252.75,292.63,252.88,292.71,252.88,292.9Z"/><path class="cls-13" d="M251.38,293.76v1.47a.65.65,0,0,1-.3.51l-.34.19c-.16.1-.29,0-.29-.17V294.3a.64.64,0,0,1,.29-.51l.34-.2C251.24,293.5,251.38,293.57,251.38,293.76Z"/><path class="cls-13" d="M249.87,294.63v1.46a.66.66,0,0,1-.3.52l-.33.19c-.17.1-.3,0-.3-.17v-1.46a.66.66,0,0,1,.3-.52l.33-.19C249.74,294.36,249.87,294.44,249.87,294.63Z"/><path class="cls-12" d="M248.37,295.5V297a.69.69,0,0,1-.3.52l-.34.19c-.16.09-.29,0-.29-.17V296a.68.68,0,0,1,.29-.52l.34-.19C248.23,295.23,248.37,295.31,248.37,295.5Z"/><path class="cls-12" d="M246.86,296.37v1.46a.63.63,0,0,1-.3.51l-.33.2c-.17.09-.3,0-.3-.17V296.9a.63.63,0,0,1,.3-.51l.33-.2C246.73,296.1,246.86,296.18,246.86,296.37Z"/><path class="cls-13" d="M245.36,297.23v1.47a.65.65,0,0,1-.3.51l-.34.19c-.16.1-.29,0-.29-.17v-1.46a.64.64,0,0,1,.29-.51l.34-.2C245.22,297,245.36,297,245.36,297.23Z"/><path class="cls-12" d="M243.85,298.1v1.46a.66.66,0,0,1-.3.52l-.33.19c-.17.1-.3,0-.3-.17v-1.46a.66.66,0,0,1,.3-.52l.33-.19C243.72,297.83,243.85,297.91,243.85,298.1Z"/><path class="cls-13" d="M242.35,299v1.46a.69.69,0,0,1-.3.52l-.34.19c-.16.09-.29,0-.29-.17v-1.46a.68.68,0,0,1,.29-.52l.34-.19C242.21,298.7,242.35,298.78,242.35,299Z"/><path class="cls-13" d="M240.84,299.84v1.46a.63.63,0,0,1-.3.51l-.33.2c-.17.09-.3,0-.3-.17v-1.47a.63.63,0,0,1,.3-.51l.33-.2C240.71,299.57,240.84,299.65,240.84,299.84Z"/><path class="cls-13" d="M239.34,300.7v1.47a.65.65,0,0,1-.3.51l-.34.19c-.16.1-.29,0-.29-.17v-1.46a.64.64,0,0,1,.29-.51l.34-.2C239.2,300.44,239.34,300.51,239.34,300.7Z"/><path class="cls-12" d="M237.83,301.57V303a.66.66,0,0,1-.3.52l-.33.19c-.17.1-.3,0-.3-.17v-1.46a.66.66,0,0,1,.3-.52l.33-.19C237.7,301.3,237.83,301.38,237.83,301.57Z"/><path class="cls-13" d="M236.33,302.44v1.46a.69.69,0,0,1-.3.52l-.34.19c-.16.09-.29,0-.29-.17V303a.68.68,0,0,1,.29-.52l.34-.19C236.19,302.17,236.33,302.25,236.33,302.44Z"/><path class="cls-13" d="M234.82,303.31v1.46a.63.63,0,0,1-.3.51l-.33.2c-.16.09-.3,0-.3-.17v-1.47a.65.65,0,0,1,.3-.51l.33-.2C234.69,303,234.82,303.12,234.82,303.31Z"/><path class="cls-8" d="M258.47,283.94l-41.15,23.75a3.94,3.94,0,0,1-3.57,0l-41.1-23.75a1.09,1.09,0,0,1,0-2.06l41.15-23.74a3.94,3.94,0,0,1,3.57,0l41.1,23.74A1.09,1.09,0,0,1,258.47,283.94Z"/><path class="cls-21" d="M258.47,283.94l-41.15,23.75a3.94,3.94,0,0,1-3.57,0l-41.1-23.75a1.09,1.09,0,0,1,0-2.06l41.15-23.74a3.94,3.94,0,0,1,3.57,0l41.1,23.74A1.09,1.09,0,0,1,258.47,283.94Z"/><polygon class="cls-13" points="254.67 302.27 254.67 299.04 215.56 321.62 215.56 324.85 254.67 302.27"/><polygon class="cls-18" points="173.66 297.43 173.66 300.65 215.56 324.85 215.56 321.62 173.66 297.43"/><path class="cls-8" d="M228.36,306.93l-.69-.4h0a.93.93,0,0,0-.91.09,2.84,2.84,0,0,0-1.29,2.24.92.92,0,0,0,.37.84h0l.64.37.11-.2a1.26,1.26,0,0,0,.38-.14,2.87,2.87,0,0,0,1.29-2.24,1.66,1.66,0,0,0,0-.33Z"/><path class="cls-17" d="M228.36,306.93l-.69-.4h0a.93.93,0,0,0-.91.09,2.84,2.84,0,0,0-1.29,2.24.92.92,0,0,0,.37.84h0l.64.37.11-.2a1.26,1.26,0,0,0,.38-.14,2.87,2.87,0,0,0,1.29-2.24,1.66,1.66,0,0,0,0-.33Z"/><path class="cls-8" d="M227.42,307a2.85,2.85,0,0,0-1.3,2.24c0,.83.58,1.16,1.3.75a2.87,2.87,0,0,0,1.29-2.24C228.71,306.92,228.13,306.59,227.42,307Z"/><path class="cls-9" d="M227.42,307a2.85,2.85,0,0,0-1.3,2.24c0,.83.58,1.16,1.3.75a2.87,2.87,0,0,0,1.29-2.24C228.71,306.92,228.13,306.59,227.42,307Z"/><path class="cls-8" d="M222.74,310.17l-.68-.4h0a.93.93,0,0,0-.91.09,2.89,2.89,0,0,0-1.29,2.25.88.88,0,0,0,.38.83h0l.63.37.12-.19a1.37,1.37,0,0,0,.37-.15,2.85,2.85,0,0,0,1.29-2.24,1.15,1.15,0,0,0,0-.33Z"/><path class="cls-17" d="M222.74,310.17l-.68-.4h0a.93.93,0,0,0-.91.09,2.89,2.89,0,0,0-1.29,2.25.88.88,0,0,0,.38.83h0l.63.37.12-.19a1.37,1.37,0,0,0,.37-.15,2.85,2.85,0,0,0,1.29-2.24,1.15,1.15,0,0,0,0-.33Z"/><path class="cls-8" d="M221.8,310.24a2.85,2.85,0,0,0-1.3,2.24c0,.83.58,1.16,1.3.75a2.87,2.87,0,0,0,1.29-2.24C223.09,310.16,222.51,309.83,221.8,310.24Z"/><path class="cls-9" d="M221.8,310.24a2.85,2.85,0,0,0-1.3,2.24c0,.83.58,1.16,1.3.75a2.87,2.87,0,0,0,1.29-2.24C223.09,310.16,222.51,309.83,221.8,310.24Z"/></g><g id="Server-3" data-name="Server"><polygon class="cls-8" points="453.11 401.35 408.41 427.15 363.72 401.35 408.41 375.55 453.11 401.35"/><polygon class="cls-9" points="453.11 401.35 408.41 427.15 363.72 401.35 408.41 375.55 453.11 401.35"/><polygon class="cls-10" points="408.41 427.15 408.41 423.93 366.51 399.74 363.72 401.35 408.41 427.15"/><polygon class="cls-8" points="453.11 414.25 408.41 440.06 408.41 427.15 453.11 401.35 453.11 414.25"/><polygon class="cls-11" points="453.11 414.25 408.41 440.06 408.41 427.15 453.11 401.35 453.11 414.25"/><path class="cls-9" d="M448.83,407l-22.17,12.8a3.27,3.27,0,0,0-1.49,2.57v3c0,.95.67,1.33,1.49.86l22.17-12.8a3.28,3.28,0,0,0,1.48-2.58v-3C450.31,407,449.65,406.56,448.83,407Z"/><path class="cls-12" d="M448.74,409.59v1.46a.68.68,0,0,1-.29.52l-.34.19c-.16.1-.3,0-.3-.17v-1.46a.69.69,0,0,1,.3-.52l.34-.19C448.61,409.32,448.74,409.4,448.74,409.59Z"/><path class="cls-12" d="M447.24,410.46v1.46a.66.66,0,0,1-.3.52l-.33.19c-.17.09-.3,0-.3-.17V411a.66.66,0,0,1,.3-.52l.33-.19C447.11,410.19,447.24,410.27,447.24,410.46Z"/><path class="cls-12" d="M445.73,411.33v1.46a.64.64,0,0,1-.29.51l-.34.2a.19.19,0,0,1-.3-.18v-1.46a.65.65,0,0,1,.3-.51l.34-.2C445.6,411.06,445.73,411.14,445.73,411.33Z"/><path class="cls-12" d="M444.23,412.19v1.47a.64.64,0,0,1-.3.51l-.33.19c-.17.1-.3,0-.3-.17v-1.46a.63.63,0,0,1,.3-.51l.33-.2C444.1,411.93,444.23,412,444.23,412.19Z"/><path class="cls-13" d="M442.72,413.06v1.46a.68.68,0,0,1-.29.52l-.34.19c-.16.1-.3,0-.3-.17V413.6a.69.69,0,0,1,.3-.52l.34-.19C442.59,412.79,442.72,412.87,442.72,413.06Z"/><path class="cls-13" d="M441.22,413.93v1.46a.66.66,0,0,1-.3.52l-.33.19c-.17.09-.3,0-.3-.17v-1.46a.66.66,0,0,1,.3-.52l.33-.19C441.09,413.66,441.22,413.74,441.22,413.93Z"/><path class="cls-12" d="M439.71,414.8v1.46a.64.64,0,0,1-.29.51l-.34.2a.19.19,0,0,1-.3-.18v-1.46a.65.65,0,0,1,.3-.51l.34-.2C439.58,414.53,439.71,414.61,439.71,414.8Z"/><path class="cls-12" d="M438.21,415.66v1.47a.63.63,0,0,1-.3.51l-.33.19c-.17.1-.3,0-.3-.17V416.2a.63.63,0,0,1,.3-.51l.33-.2C438.08,415.4,438.21,415.47,438.21,415.66Z"/><path class="cls-12" d="M436.7,416.53V418a.68.68,0,0,1-.29.52l-.34.19c-.16.1-.3,0-.3-.17v-1.46a.69.69,0,0,1,.3-.52l.34-.19C436.57,416.26,436.7,416.34,436.7,416.53Z"/><path class="cls-13" d="M435.2,417.4v1.46a.66.66,0,0,1-.3.52l-.33.19c-.17.09-.3,0-.3-.17v-1.46a.66.66,0,0,1,.3-.52l.33-.19C435.07,417.13,435.2,417.21,435.2,417.4Z"/><path class="cls-12" d="M433.69,418.27v1.46a.64.64,0,0,1-.29.51l-.34.2c-.16.09-.3,0-.3-.17V418.8a.65.65,0,0,1,.3-.51l.34-.2C433.56,418,433.69,418.08,433.69,418.27Z"/><path class="cls-12" d="M432.19,419.13v1.47a.63.63,0,0,1-.3.51l-.33.19c-.17.1-.3,0-.3-.17v-1.46a.63.63,0,0,1,.3-.51l.33-.2C432.06,418.87,432.19,418.94,432.19,419.13Z"/><path class="cls-13" d="M430.68,420v1.46a.68.68,0,0,1-.29.52l-.34.19c-.16.1-.3,0-.3-.17v-1.46a.69.69,0,0,1,.3-.52l.34-.19C430.55,419.73,430.68,419.81,430.68,420Z"/><path class="cls-12" d="M429.18,420.87v1.46a.66.66,0,0,1-.3.52l-.33.19c-.17.09-.3,0-.3-.17v-1.46a.66.66,0,0,1,.3-.52l.33-.19C429.05,420.6,429.18,420.68,429.18,420.87Z"/><path class="cls-13" d="M427.67,421.74v1.46a.64.64,0,0,1-.29.51l-.34.2c-.16.09-.3,0-.3-.17v-1.47a.65.65,0,0,1,.3-.51l.34-.2C427.54,421.47,427.67,421.55,427.67,421.74Z"/><polygon class="cls-8" points="408.41 440.06 363.72 414.25 363.72 401.35 408.41 427.15 408.41 440.06"/><polygon class="cls-9" points="408.41 440.06 363.72 414.25 363.72 401.35 408.41 427.15 408.41 440.06"/><g class="cls-14"><path class="cls-15" d="M370.79,408.66l11,6.35a3.29,3.29,0,0,1,1.49,2.58v3c0,.95-.67,1.33-1.49.86l-11-6.35a3.29,3.29,0,0,1-1.49-2.58v-3C369.3,408.57,370,408.19,370.79,408.66Z"/></g><path class="cls-8" d="M372.21,412.06l.68-.39h0a.91.91,0,0,1,.91.1,2.84,2.84,0,0,1,1.3,2.24.9.9,0,0,1-.38.83h0l-.64.37L374,415a1.25,1.25,0,0,1-.37-.15,2.84,2.84,0,0,1-1.3-2.24,1.66,1.66,0,0,1,0-.33Z"/><path class="cls-17" d="M372.21,412.06l.68-.39h0a.91.91,0,0,1,.91.1,2.84,2.84,0,0,1,1.3,2.24.9.9,0,0,1-.38.83h0l-.64.37L374,415a1.25,1.25,0,0,1-.37-.15,2.84,2.84,0,0,1-1.3-2.24,1.66,1.66,0,0,1,0-.33Z"/><path class="cls-9" d="M373.15,412.13a2.89,2.89,0,0,1,1.29,2.24c0,.83-.58,1.16-1.29.75a2.84,2.84,0,0,1-1.3-2.24C371.85,412.05,372.43,411.72,373.15,412.13Z"/><path class="cls-8" d="M377.82,415.3l.69-.39h0a.91.91,0,0,1,.91.1,2.84,2.84,0,0,1,1.3,2.24.93.93,0,0,1-.38.84h0l-.64.36-.11-.19a1.25,1.25,0,0,1-.37-.15,2.84,2.84,0,0,1-1.3-2.24,1.66,1.66,0,0,1,0-.33Z"/><path class="cls-17" d="M377.82,415.3l.69-.39h0a.91.91,0,0,1,.91.1,2.84,2.84,0,0,1,1.3,2.24.93.93,0,0,1-.38.84h0l-.64.36-.11-.19a1.25,1.25,0,0,1-.37-.15,2.84,2.84,0,0,1-1.3-2.24,1.66,1.66,0,0,1,0-.33Z"/><path class="cls-9" d="M378.77,415.37a2.89,2.89,0,0,1,1.29,2.25c0,.82-.58,1.16-1.29.74a2.84,2.84,0,0,1-1.3-2.24C377.47,415.3,378.05,415,378.77,415.37Z"/><polygon class="cls-13" points="447.52 420.7 447.52 417.48 408.41 440.06 408.41 443.28 447.52 420.7"/><polygon class="cls-18" points="366.51 415.87 366.51 419.09 408.41 443.28 408.41 440.06 366.51 415.87"/><path class="cls-8" d="M421.21,425.36l-.68-.39h0a.9.9,0,0,0-.91.09,2.87,2.87,0,0,0-1.29,2.24.91.91,0,0,0,.38.84h0l.63.36.12-.19a1.54,1.54,0,0,0,.37-.14,2.89,2.89,0,0,0,1.29-2.24,1.11,1.11,0,0,0,0-.33Z"/><path class="cls-17" d="M421.21,425.36l-.68-.39h0a.9.9,0,0,0-.91.09,2.87,2.87,0,0,0-1.29,2.24.91.91,0,0,0,.38.84h0l.63.36.12-.19a1.54,1.54,0,0,0,.37-.14,2.89,2.89,0,0,0,1.29-2.24,1.11,1.11,0,0,0,0-.33Z"/><path class="cls-8" d="M420.27,425.44a2.84,2.84,0,0,0-1.3,2.24c0,.82.58,1.16,1.3.75a2.89,2.89,0,0,0,1.29-2.25C421.56,425.36,421,425,420.27,425.44Z"/><path class="cls-9" d="M420.27,425.44a2.84,2.84,0,0,0-1.3,2.24c0,.82.58,1.16,1.3.75a2.89,2.89,0,0,0,1.29-2.25C421.56,425.36,421,425,420.27,425.44Z"/><path class="cls-8" d="M415.59,428.61l-.68-.4h0a.93.93,0,0,0-.91.09,2.87,2.87,0,0,0-1.29,2.24.9.9,0,0,0,.38.84h0l.63.36.12-.19a1.21,1.21,0,0,0,.37-.14,2.87,2.87,0,0,0,1.29-2.24,1.15,1.15,0,0,0,0-.33Z"/><path class="cls-17" d="M415.59,428.61l-.68-.4h0a.93.93,0,0,0-.91.09,2.87,2.87,0,0,0-1.29,2.24.9.9,0,0,0,.38.84h0l.63.36.12-.19a1.21,1.21,0,0,0,.37-.14,2.87,2.87,0,0,0,1.29-2.24,1.15,1.15,0,0,0,0-.33Z"/><path class="cls-8" d="M414.65,428.68a2.87,2.87,0,0,0-1.29,2.24c0,.83.58,1.16,1.29.75a2.84,2.84,0,0,0,1.29-2.24C415.94,428.6,415.37,428.27,414.65,428.68Z"/><path class="cls-9" d="M414.65,428.68a2.87,2.87,0,0,0-1.29,2.24c0,.83.58,1.16,1.29.75a2.84,2.84,0,0,0,1.29-2.24C415.94,428.6,415.37,428.27,414.65,428.68Z"/><polygon class="cls-8" points="453.11 382 408.41 407.8 363.72 382 408.41 356.19 453.11 382"/><polygon class="cls-19" points="453.11 382 408.41 407.8 363.72 382 408.41 356.19 453.11 382"/><polygon class="cls-9" points="453.11 382 408.41 407.8 363.72 382 408.41 356.19 453.11 382"/><polygon class="cls-10" points="408.41 404.58 408.41 407.8 363.72 382 366.51 380.39 408.41 404.58"/><polygon class="cls-8" points="453.11 394.9 408.41 420.7 408.41 407.8 453.11 382 453.11 394.9"/><polygon class="cls-11" points="453.11 394.9 408.41 420.7 408.41 407.8 453.11 382 453.11 394.9"/><path class="cls-9" d="M448.83,387.7l-22.17,12.8a3.29,3.29,0,0,0-1.49,2.58v3c0,1,.67,1.33,1.49.86l22.17-12.8a3.28,3.28,0,0,0,1.48-2.58v-3C450.31,387.61,449.65,387.23,448.83,387.7Z"/><path class="cls-12" d="M448.74,390.25v1.46a.66.66,0,0,1-.29.52l-.34.19c-.16.1-.3,0-.3-.17v-1.46a.69.69,0,0,1,.3-.52l.34-.19C448.61,390,448.74,390.06,448.74,390.25Z"/><path class="cls-13" d="M447.24,391.12v1.46a.66.66,0,0,1-.3.52l-.33.19c-.17.1-.3,0-.3-.17v-1.46a.66.66,0,0,1,.3-.52l.33-.19C447.11,390.85,447.24,390.93,447.24,391.12Z"/><path class="cls-12" d="M445.73,392v1.46a.68.68,0,0,1-.29.52l-.34.19c-.16.09-.3,0-.3-.17v-1.46a.67.67,0,0,1,.3-.52l.34-.19C445.6,391.72,445.73,391.8,445.73,392Z"/><path class="cls-12" d="M444.23,392.86v1.46a.63.63,0,0,1-.3.51l-.33.2c-.17.09-.3,0-.3-.18v-1.46a.63.63,0,0,1,.3-.51l.33-.2C444.1,392.59,444.23,392.67,444.23,392.86Z"/><path class="cls-12" d="M442.72,393.72v1.46a.66.66,0,0,1-.29.52l-.34.19c-.16.1-.3,0-.3-.17v-1.46a.69.69,0,0,1,.3-.52l.34-.19C442.59,393.46,442.72,393.53,442.72,393.72Z"/><path class="cls-13" d="M441.22,394.59v1.46a.66.66,0,0,1-.3.52l-.33.19c-.17.1-.3,0-.3-.17v-1.46a.66.66,0,0,1,.3-.52l.33-.19C441.09,394.32,441.22,394.4,441.22,394.59Z"/><path class="cls-13" d="M439.71,395.46v1.46a.68.68,0,0,1-.29.52l-.34.19c-.16.09-.3,0-.3-.17V396a.67.67,0,0,1,.3-.52l.34-.19C439.58,395.19,439.71,395.27,439.71,395.46Z"/><path class="cls-12" d="M438.21,396.33v1.46a.63.63,0,0,1-.3.51l-.33.2c-.17.09-.3,0-.3-.18v-1.46a.63.63,0,0,1,.3-.51l.33-.2C438.08,396.06,438.21,396.14,438.21,396.33Z"/><path class="cls-13" d="M436.7,397.19v1.46a.66.66,0,0,1-.29.52l-.34.19c-.16.1-.3,0-.3-.17v-1.46a.69.69,0,0,1,.3-.52l.34-.19C436.57,396.93,436.7,397,436.7,397.19Z"/><path class="cls-12" d="M435.2,398.06v1.46a.66.66,0,0,1-.3.52l-.33.19c-.17.1-.3,0-.3-.17V398.6a.66.66,0,0,1,.3-.52l.33-.19C435.07,397.79,435.2,397.87,435.2,398.06Z"/><path class="cls-12" d="M433.69,398.93v1.46a.68.68,0,0,1-.29.52l-.34.19c-.16.09-.3,0-.3-.17v-1.46a.67.67,0,0,1,.3-.52l.34-.19C433.56,398.66,433.69,398.74,433.69,398.93Z"/><path class="cls-12" d="M432.19,399.8v1.46a.63.63,0,0,1-.3.51l-.33.2c-.17.09-.3,0-.3-.18v-1.46a.63.63,0,0,1,.3-.51l.33-.2C432.06,399.53,432.19,399.61,432.19,399.8Z"/><path class="cls-13" d="M430.68,400.66v1.46a.66.66,0,0,1-.29.52l-.34.19c-.16.1-.3,0-.3-.17V401.2a.69.69,0,0,1,.3-.52l.34-.19C430.55,400.4,430.68,400.47,430.68,400.66Z"/><path class="cls-12" d="M429.18,401.53V403a.66.66,0,0,1-.3.52l-.33.19c-.17.1-.3,0-.3-.17v-1.46a.66.66,0,0,1,.3-.52l.33-.19C429.05,401.26,429.18,401.34,429.18,401.53Z"/><path class="cls-12" d="M427.67,402.4v1.46a.68.68,0,0,1-.29.52l-.34.19c-.16.09-.3,0-.3-.17v-1.46a.67.67,0,0,1,.3-.52l.34-.19C427.54,402.13,427.67,402.21,427.67,402.4Z"/><polygon class="cls-8" points="408.41 420.7 363.72 394.9 363.72 382 408.41 407.8 408.41 420.7"/><polygon class="cls-9" points="408.41 420.7 363.72 394.9 363.72 382 408.41 407.8 408.41 420.7"/><g class="cls-14"><path class="cls-15" d="M370.79,389.33l11,6.35a3.27,3.27,0,0,1,1.49,2.57v3c0,1-.67,1.33-1.49.86l-11-6.35a3.29,3.29,0,0,1-1.49-2.58v-3C369.3,389.24,370,388.86,370.79,389.33Z"/></g><path class="cls-8" d="M372.21,392.73l.68-.4h0a.93.93,0,0,1,.91.09,2.87,2.87,0,0,1,1.3,2.25.9.9,0,0,1-.38.83h0l-.64.37-.11-.19a1.25,1.25,0,0,1-.37-.15,2.84,2.84,0,0,1-1.3-2.24,1.66,1.66,0,0,1,0-.33Z"/><path class="cls-17" d="M372.21,392.73l.68-.4h0a.93.93,0,0,1,.91.09,2.87,2.87,0,0,1,1.3,2.25.9.9,0,0,1-.38.83h0l-.64.37-.11-.19a1.25,1.25,0,0,1-.37-.15,2.84,2.84,0,0,1-1.3-2.24,1.66,1.66,0,0,1,0-.33Z"/><path class="cls-9" d="M373.15,392.8a2.87,2.87,0,0,1,1.29,2.24c0,.83-.58,1.16-1.29.75a2.85,2.85,0,0,1-1.3-2.24C371.85,392.72,372.43,392.39,373.15,392.8Z"/><path class="cls-8" d="M377.82,396l.69-.39h0a.91.91,0,0,1,.91.1,2.84,2.84,0,0,1,1.3,2.24.9.9,0,0,1-.38.83h0l-.64.36-.11-.19a1.25,1.25,0,0,1-.37-.15,2.84,2.84,0,0,1-1.3-2.24,1.66,1.66,0,0,1,0-.33Z"/><path class="cls-17" d="M377.82,396l.69-.39h0a.91.91,0,0,1,.91.1,2.84,2.84,0,0,1,1.3,2.24.9.9,0,0,1-.38.83h0l-.64.36-.11-.19a1.25,1.25,0,0,1-.37-.15,2.84,2.84,0,0,1-1.3-2.24,1.66,1.66,0,0,1,0-.33Z"/><path class="cls-9" d="M378.77,396a2.89,2.89,0,0,1,1.29,2.24c0,.83-.58,1.16-1.29.75a2.84,2.84,0,0,1-1.3-2.24C377.47,396,378.05,395.63,378.77,396Z"/><polygon class="cls-13" points="447.52 401.35 447.52 398.13 408.41 420.7 408.41 423.93 447.52 401.35"/><polygon class="cls-18" points="366.51 396.51 366.51 399.74 408.41 423.93 408.41 420.7 366.51 396.51"/><path class="cls-8" d="M421.21,406l-.68-.39h0a.91.91,0,0,0-.91.1,2.85,2.85,0,0,0-1.29,2.24.88.88,0,0,0,.38.83h0l.63.36.12-.19a1.25,1.25,0,0,0,.37-.15,2.85,2.85,0,0,0,1.29-2.24,1.15,1.15,0,0,0,0-.33Z"/><path class="cls-17" d="M421.21,406l-.68-.39h0a.91.91,0,0,0-.91.1,2.85,2.85,0,0,0-1.29,2.24.88.88,0,0,0,.38.83h0l.63.36.12-.19a1.25,1.25,0,0,0,.37-.15,2.85,2.85,0,0,0,1.29-2.24,1.15,1.15,0,0,0,0-.33Z"/><path class="cls-8" d="M420.27,406.08a2.87,2.87,0,0,0-1.3,2.25c0,.82.58,1.16,1.3.74a2.85,2.85,0,0,0,1.29-2.24C421.56,406,421,405.67,420.27,406.08Z"/><path class="cls-9" d="M420.27,406.08a2.87,2.87,0,0,0-1.3,2.25c0,.82.58,1.16,1.3.74a2.85,2.85,0,0,0,1.29-2.24C421.56,406,421,405.67,420.27,406.08Z"/><path class="cls-8" d="M415.59,409.25l-.68-.39h0a.88.88,0,0,0-.91.09,2.85,2.85,0,0,0-1.29,2.24.91.91,0,0,0,.38.84h0l.63.36.12-.19a1.54,1.54,0,0,0,.37-.14,2.89,2.89,0,0,0,1.29-2.25,1.15,1.15,0,0,0,0-.33Z"/><path class="cls-17" d="M415.59,409.25l-.68-.39h0a.88.88,0,0,0-.91.09,2.85,2.85,0,0,0-1.29,2.24.91.91,0,0,0,.38.84h0l.63.36.12-.19a1.54,1.54,0,0,0,.37-.14,2.89,2.89,0,0,0,1.29-2.25,1.15,1.15,0,0,0,0-.33Z"/><path class="cls-8" d="M414.65,409.33a2.85,2.85,0,0,0-1.29,2.24c0,.82.58,1.16,1.29.74a2.83,2.83,0,0,0,1.29-2.24C415.94,409.25,415.37,408.91,414.65,409.33Z"/><path class="cls-9" d="M414.65,409.33a2.85,2.85,0,0,0-1.29,2.24c0,.82.58,1.16,1.29.74a2.83,2.83,0,0,0,1.29-2.24C415.94,409.25,415.37,408.91,414.65,409.33Z"/><path class="cls-8" d="M365.5,361.62l41.15-23.74a4,4,0,0,1,3.58,0l41.09,23.74a4,4,0,0,1,1.79,3.09v10.84l-44.72,25.81h0l-44.67-25.81V364.71A4,4,0,0,1,365.5,361.62Z"/><path class="cls-9" d="M365.5,361.62l41.15-23.74a4,4,0,0,1,3.58,0l41.09,23.74a4,4,0,0,1,1.79,3.09v10.84l-44.72,25.81h0l-44.67-25.81V364.71A4,4,0,0,1,365.5,361.62Z"/><g class="cls-14"><path class="cls-15" d="M370.79,370l11,6.35a3.27,3.27,0,0,1,1.49,2.57v3c0,1-.67,1.33-1.49.86l-11-6.35a3.29,3.29,0,0,1-1.49-2.58v-3C369.3,369.87,370,369.49,370.79,370Z"/></g><path class="cls-8" d="M372.21,373.36l.68-.4h0a.93.93,0,0,1,.91.09,2.87,2.87,0,0,1,1.3,2.25.9.9,0,0,1-.38.83h0l-.64.37-.11-.19a1.25,1.25,0,0,1-.37-.15,2.84,2.84,0,0,1-1.3-2.24,1.66,1.66,0,0,1,0-.33Z"/><path class="cls-17" d="M372.21,373.36l.68-.4h0a.93.93,0,0,1,.91.09,2.87,2.87,0,0,1,1.3,2.25.9.9,0,0,1-.38.83h0l-.64.37-.11-.19a1.25,1.25,0,0,1-.37-.15,2.84,2.84,0,0,1-1.3-2.24,1.66,1.66,0,0,1,0-.33Z"/><path class="cls-9" d="M373.15,373.43a2.87,2.87,0,0,1,1.29,2.24c0,.83-.58,1.16-1.29.75a2.85,2.85,0,0,1-1.3-2.24C371.85,373.35,372.43,373,373.15,373.43Z"/><path class="cls-8" d="M377.82,376.6l.69-.39h0a.91.91,0,0,1,.91.1,2.84,2.84,0,0,1,1.3,2.24.9.9,0,0,1-.38.83h0l-.64.36-.11-.19a1.25,1.25,0,0,1-.37-.15,2.84,2.84,0,0,1-1.3-2.24,1.66,1.66,0,0,1,0-.33Z"/><path class="cls-17" d="M377.82,376.6l.69-.39h0a.91.91,0,0,1,.91.1,2.84,2.84,0,0,1,1.3,2.24.9.9,0,0,1-.38.83h0l-.64.36-.11-.19a1.25,1.25,0,0,1-.37-.15,2.84,2.84,0,0,1-1.3-2.24,1.66,1.66,0,0,1,0-.33Z"/><path class="cls-9" d="M378.77,376.67a2.89,2.89,0,0,1,1.29,2.24c0,.83-.58,1.16-1.29.75a2.84,2.84,0,0,1-1.3-2.24C377.47,376.6,378.05,376.26,378.77,376.67Z"/><path class="cls-8" d="M408.39,387.85v13.51l44.72-25.81V364.71a4,4,0,0,0-1.47-2.86c.66.57.55,1.33-.32,1.83l-41.15,23.74A3.66,3.66,0,0,1,408.39,387.85Z"/><path class="cls-11" d="M408.39,387.85v13.51l44.72-25.81V364.71a4,4,0,0,0-1.47-2.86c.66.57.55,1.33-.32,1.83l-41.15,23.74A3.66,3.66,0,0,1,408.39,387.85Z"/><path class="cls-9" d="M448.83,368.35l-22.17,12.79a3.31,3.31,0,0,0-1.49,2.58v3c0,.95.67,1.34,1.49.86l22.17-12.79a3.3,3.3,0,0,0,1.48-2.58v-3C450.31,368.26,449.65,367.87,448.83,368.35Z"/><path class="cls-13" d="M448.74,370.9v1.46a.68.68,0,0,1-.29.52l-.34.19c-.16.09-.3,0-.3-.17v-1.46a.67.67,0,0,1,.3-.52l.34-.19C448.61,370.63,448.74,370.71,448.74,370.9Z"/><path class="cls-12" d="M447.24,371.77v1.46a.63.63,0,0,1-.3.51l-.33.2c-.17.09-.3,0-.3-.18V372.3a.63.63,0,0,1,.3-.51l.33-.2C447.11,371.5,447.24,371.58,447.24,371.77Z"/><path class="cls-13" d="M445.73,372.63v1.46a.66.66,0,0,1-.29.52l-.34.19c-.16.1-.3,0-.3-.17v-1.46a.69.69,0,0,1,.3-.52l.34-.19C445.6,372.37,445.73,372.44,445.73,372.63Z"/><path class="cls-13" d="M444.23,373.5V375a.66.66,0,0,1-.3.52l-.33.19c-.17.1-.3,0-.3-.17V374a.66.66,0,0,1,.3-.52l.33-.19C444.1,373.23,444.23,373.31,444.23,373.5Z"/><path class="cls-13" d="M442.72,374.37v1.46a.68.68,0,0,1-.29.52l-.34.19c-.16.09-.3,0-.3-.17v-1.46a.67.67,0,0,1,.3-.52l.34-.19C442.59,374.1,442.72,374.18,442.72,374.37Z"/><path class="cls-12" d="M441.22,375.24v1.46a.63.63,0,0,1-.3.51l-.33.2c-.17.09-.3,0-.3-.18v-1.46a.63.63,0,0,1,.3-.51l.33-.2C441.09,375,441.22,375.05,441.22,375.24Z"/><path class="cls-12" d="M439.71,376.1v1.46a.66.66,0,0,1-.29.52l-.34.19c-.16.1-.3,0-.3-.17v-1.46a.69.69,0,0,1,.3-.52l.34-.19C439.58,375.84,439.71,375.91,439.71,376.1Z"/><path class="cls-13" d="M438.21,377v1.46a.66.66,0,0,1-.3.52l-.33.19c-.17.1-.3,0-.3-.17v-1.46a.66.66,0,0,1,.3-.52l.33-.19C438.08,376.7,438.21,376.78,438.21,377Z"/><path class="cls-12" d="M436.7,377.84v1.46a.68.68,0,0,1-.29.52l-.34.19c-.16.09-.3,0-.3-.17v-1.46a.67.67,0,0,1,.3-.52l.34-.19C436.57,377.57,436.7,377.65,436.7,377.84Z"/><path class="cls-13" d="M435.2,378.71v1.46a.63.63,0,0,1-.3.51l-.33.2c-.17.09-.3,0-.3-.18v-1.46a.63.63,0,0,1,.3-.51l.33-.2C435.07,378.44,435.2,378.52,435.2,378.71Z"/><path class="cls-13" d="M433.69,379.57V381a.66.66,0,0,1-.29.52l-.34.19c-.16.1-.3,0-.3-.17v-1.46a.69.69,0,0,1,.3-.52l.34-.19C433.56,379.31,433.69,379.38,433.69,379.57Z"/><path class="cls-13" d="M432.19,380.44v1.46a.66.66,0,0,1-.3.52l-.33.19c-.17.1-.3,0-.3-.17V381a.66.66,0,0,1,.3-.52l.33-.19C432.06,380.17,432.19,380.25,432.19,380.44Z"/><path class="cls-12" d="M430.68,381.31v1.46a.68.68,0,0,1-.29.52l-.34.19c-.16.09-.3,0-.3-.17v-1.46a.67.67,0,0,1,.3-.52l.34-.19C430.55,381,430.68,381.12,430.68,381.31Z"/><path class="cls-13" d="M429.18,382.18v1.46a.63.63,0,0,1-.3.51l-.33.2c-.17.09-.3,0-.3-.18v-1.46a.63.63,0,0,1,.3-.51l.33-.2C429.05,381.91,429.18,382,429.18,382.18Z"/><path class="cls-13" d="M427.67,383v1.46a.66.66,0,0,1-.29.52l-.34.19c-.16.1-.3,0-.3-.17v-1.46a.65.65,0,0,1,.3-.51l.34-.2C427.54,382.78,427.67,382.85,427.67,383Z"/><path class="cls-8" d="M451.32,363.68l-41.15,23.74a3.94,3.94,0,0,1-3.57,0l-41.1-23.74a1.09,1.09,0,0,1,0-2.06l41.15-23.74a4,4,0,0,1,3.58,0l41.09,23.74A1.09,1.09,0,0,1,451.32,363.68Z"/><path class="cls-21" d="M451.32,363.68l-41.15,23.74a3.94,3.94,0,0,1-3.57,0l-41.1-23.74a1.09,1.09,0,0,1,0-2.06l41.15-23.74a4,4,0,0,1,3.58,0l41.09,23.74A1.09,1.09,0,0,1,451.32,363.68Z"/><polygon class="cls-13" points="447.52 382 447.52 378.78 408.41 401.36 408.41 404.58 447.52 382"/><polygon class="cls-18" points="366.51 377.17 366.51 380.39 408.41 404.58 408.41 401.36 366.51 377.17"/><path class="cls-8" d="M421.21,386.66l-.68-.39h0a.88.88,0,0,0-.91.09,2.87,2.87,0,0,0-1.29,2.24.91.91,0,0,0,.38.84h0l.63.36.12-.19a1.54,1.54,0,0,0,.37-.14,2.89,2.89,0,0,0,1.29-2.25,1.15,1.15,0,0,0,0-.33Z"/><path class="cls-17" d="M421.21,386.66l-.68-.39h0a.88.88,0,0,0-.91.09,2.87,2.87,0,0,0-1.29,2.24.91.91,0,0,0,.38.84h0l.63.36.12-.19a1.54,1.54,0,0,0,.37-.14,2.89,2.89,0,0,0,1.29-2.25,1.15,1.15,0,0,0,0-.33Z"/><path class="cls-8" d="M420.27,386.74A2.84,2.84,0,0,0,419,389c0,.82.58,1.16,1.3.74a2.85,2.85,0,0,0,1.29-2.24C421.56,386.66,421,386.32,420.27,386.74Z"/><path class="cls-9" d="M420.27,386.74A2.84,2.84,0,0,0,419,389c0,.82.58,1.16,1.3.74a2.85,2.85,0,0,0,1.29-2.24C421.56,386.66,421,386.32,420.27,386.74Z"/><path class="cls-8" d="M415.59,389.9l-.68-.39h0a.93.93,0,0,0-.91.09,2.87,2.87,0,0,0-1.29,2.24.91.91,0,0,0,.38.84h0l.63.36.12-.19a1.21,1.21,0,0,0,.37-.14,2.87,2.87,0,0,0,1.29-2.24,1.11,1.11,0,0,0,0-.33Z"/><path class="cls-17" d="M415.59,389.9l-.68-.39h0a.93.93,0,0,0-.91.09,2.87,2.87,0,0,0-1.29,2.24.91.91,0,0,0,.38.84h0l.63.36.12-.19a1.21,1.21,0,0,0,.37-.14,2.87,2.87,0,0,0,1.29-2.24,1.11,1.11,0,0,0,0-.33Z"/><path class="cls-8" d="M414.65,390a2.85,2.85,0,0,0-1.29,2.24c0,.82.58,1.16,1.29.75a2.86,2.86,0,0,0,1.29-2.24C415.94,389.9,415.37,389.57,414.65,390Z"/><path class="cls-9" d="M414.65,390a2.85,2.85,0,0,0-1.29,2.24c0,.82.58,1.16,1.29.75a2.86,2.86,0,0,0,1.29-2.24C415.94,389.9,415.37,389.57,414.65,390Z"/></g><g id="Server-4" data-name="Server"><polygon class="cls-8" points="500.42 270.81 455.72 296.61 411.03 270.81 455.72 245 500.42 270.81"/><polygon class="cls-9" points="500.42 270.81 455.72 296.61 411.03 270.81 455.72 245 500.42 270.81"/><polygon class="cls-10" points="455.72 296.61 455.72 293.38 413.82 269.19 411.03 270.81 455.72 296.61"/><polygon class="cls-8" points="500.42 283.71 455.72 309.51 455.72 296.61 500.42 270.81 500.42 283.71"/><polygon class="cls-11" points="500.42 283.71 455.72 309.51 455.72 296.61 500.42 270.81 500.42 283.71"/><path class="cls-9" d="M496.13,276.49,474,289.29a3.31,3.31,0,0,0-1.49,2.58v3c0,.95.67,1.34,1.49.86L496.13,283a3.28,3.28,0,0,0,1.49-2.58v-3C497.62,276.4,497,276,496.13,276.49Z"/><path class="cls-12" d="M496.05,279.05v1.46a.63.63,0,0,1-.3.51l-.33.2c-.17.09-.3,0-.3-.18v-1.46a.63.63,0,0,1,.3-.51l.33-.2C495.92,278.78,496.05,278.86,496.05,279.05Z"/><path class="cls-12" d="M494.55,279.91v1.46a.67.67,0,0,1-.3.52l-.34.19c-.16.1-.29,0-.29-.17v-1.46a.68.68,0,0,1,.29-.52l.34-.19C494.41,279.65,494.55,279.72,494.55,279.91Z"/><path class="cls-12" d="M493,280.78v1.46a.66.66,0,0,1-.3.52l-.33.19c-.17.1-.3,0-.3-.17v-1.46a.66.66,0,0,1,.3-.52l.33-.19C492.91,280.51,493,280.59,493,280.78Z"/><path class="cls-12" d="M491.54,281.65v1.46a.69.69,0,0,1-.3.52l-.34.19c-.16.09-.29,0-.29-.17v-1.46a.66.66,0,0,1,.29-.52l.34-.19C491.4,281.38,491.54,281.46,491.54,281.65Z"/><path class="cls-13" d="M490,282.52V284a.63.63,0,0,1-.3.51l-.33.2c-.17.09-.3,0-.3-.18v-1.46a.63.63,0,0,1,.3-.51l.33-.2C489.9,282.25,490,282.33,490,282.52Z"/><path class="cls-13" d="M488.53,283.38v1.46a.67.67,0,0,1-.3.52l-.34.19c-.16.1-.29,0-.29-.17v-1.46a.68.68,0,0,1,.29-.52l.34-.19C488.39,283.12,488.53,283.19,488.53,283.38Z"/><path class="cls-12" d="M487,284.25v1.46a.66.66,0,0,1-.3.52l-.33.19c-.17.1-.3,0-.3-.17v-1.46a.66.66,0,0,1,.3-.52l.33-.19C486.89,284,487,284.06,487,284.25Z"/><path class="cls-12" d="M485.52,285.12v1.46a.69.69,0,0,1-.3.52l-.34.19c-.16.09-.29,0-.29-.17v-1.46a.66.66,0,0,1,.29-.52l.34-.19C485.38,284.85,485.52,284.93,485.52,285.12Z"/><path class="cls-12" d="M484,286v1.46a.63.63,0,0,1-.3.51l-.33.2c-.17.09-.3,0-.3-.18v-1.46a.63.63,0,0,1,.3-.51l.33-.2C483.88,285.72,484,285.8,484,286Z"/><path class="cls-13" d="M482.51,286.85v1.46a.67.67,0,0,1-.3.52l-.34.19c-.16.1-.29,0-.29-.17v-1.46a.64.64,0,0,1,.29-.51l.34-.2C482.37,286.59,482.51,286.66,482.51,286.85Z"/><path class="cls-12" d="M481,287.72v1.46a.66.66,0,0,1-.3.52l-.33.19c-.17.1-.3,0-.3-.17v-1.46a.66.66,0,0,1,.3-.52l.33-.19C480.87,287.45,481,287.53,481,287.72Z"/><path class="cls-12" d="M479.5,288.59v1.46a.69.69,0,0,1-.3.52l-.34.19c-.16.09-.29,0-.29-.17v-1.46a.68.68,0,0,1,.29-.52l.34-.19C479.36,288.32,479.5,288.4,479.5,288.59Z"/><path class="cls-13" d="M478,289.46v1.46a.63.63,0,0,1-.3.51l-.33.2c-.17.09-.3,0-.3-.18V290a.63.63,0,0,1,.3-.51l.33-.2C477.86,289.19,478,289.27,478,289.46Z"/><path class="cls-12" d="M476.49,290.32v1.47a.65.65,0,0,1-.3.51l-.34.19c-.16.1-.29,0-.29-.17v-1.46a.64.64,0,0,1,.29-.51l.34-.2C476.35,290.06,476.49,290.13,476.49,290.32Z"/><path class="cls-13" d="M475,291.19v1.46a.66.66,0,0,1-.3.52l-.33.19c-.16.1-.3,0-.3-.17v-1.46a.69.69,0,0,1,.3-.52l.33-.19C474.85,290.92,475,291,475,291.19Z"/><polygon class="cls-8" points="455.72 309.51 411.03 283.71 411.03 270.81 455.72 296.61 455.72 309.51"/><polygon class="cls-9" points="455.72 309.51 411.03 283.71 411.03 270.81 455.72 296.61 455.72 309.51"/><g class="cls-14"><path class="cls-15" d="M418.1,278.12l11,6.34a3.31,3.31,0,0,1,1.49,2.58v3c0,.95-.67,1.34-1.49.86l-11-6.34a3.31,3.31,0,0,1-1.49-2.58v-3C416.61,278,417.28,277.64,418.1,278.12Z"/></g><path class="cls-8" d="M419.51,281.51l.69-.39h0a.93.93,0,0,1,.91.09,2.85,2.85,0,0,1,1.3,2.24.93.93,0,0,1-.38.84h0l-.64.36-.11-.19a1.54,1.54,0,0,1-.37-.14,2.87,2.87,0,0,1-1.3-2.24,1.57,1.57,0,0,1,0-.33Z"/><path class="cls-17" d="M419.51,281.51l.69-.39h0a.93.93,0,0,1,.91.09,2.85,2.85,0,0,1,1.3,2.24.93.93,0,0,1-.38.84h0l-.64.36-.11-.19a1.54,1.54,0,0,1-.37-.14,2.87,2.87,0,0,1-1.3-2.24,1.57,1.57,0,0,1,0-.33Z"/><path class="cls-9" d="M420.46,281.59a2.85,2.85,0,0,1,1.29,2.24c0,.82-.58,1.16-1.29.75a2.87,2.87,0,0,1-1.3-2.25C419.16,281.51,419.74,281.17,420.46,281.59Z"/><path class="cls-8" d="M425.13,284.76l.68-.4h0a.93.93,0,0,1,.91.09,2.87,2.87,0,0,1,1.29,2.24.9.9,0,0,1-.37.84h0l-.63.37-.12-.2a1.32,1.32,0,0,1-.37-.14,2.87,2.87,0,0,1-1.29-2.24,1.66,1.66,0,0,1,0-.33Z"/><path class="cls-17" d="M425.13,284.76l.68-.4h0a.93.93,0,0,1,.91.09,2.87,2.87,0,0,1,1.29,2.24.9.9,0,0,1-.37.84h0l-.63.37-.12-.2a1.32,1.32,0,0,1-.37-.14,2.87,2.87,0,0,1-1.29-2.24,1.66,1.66,0,0,1,0-.33Z"/><path class="cls-9" d="M426.07,284.83a2.85,2.85,0,0,1,1.3,2.24c0,.83-.58,1.16-1.3.75a2.87,2.87,0,0,1-1.29-2.24C424.78,284.75,425.36,284.42,426.07,284.83Z"/><polygon class="cls-13" points="494.83 290.16 494.83 286.93 455.72 309.51 455.72 312.74 494.83 290.16"/><polygon class="cls-18" points="413.82 285.32 413.82 288.55 455.72 312.74 455.72 309.51 413.82 285.32"/><path class="cls-8" d="M468.52,294.82l-.69-.4h0a.93.93,0,0,0-.91.09,2.86,2.86,0,0,0-1.29,2.25.9.9,0,0,0,.37.83h0l.64.37.11-.19a1.3,1.3,0,0,0,.38-.15,2.85,2.85,0,0,0,1.29-2.24,1.66,1.66,0,0,0,0-.33Z"/><path class="cls-17" d="M468.52,294.82l-.69-.4h0a.93.93,0,0,0-.91.09,2.86,2.86,0,0,0-1.29,2.25.9.9,0,0,0,.37.83h0l.64.37.11-.19a1.3,1.3,0,0,0,.38-.15,2.85,2.85,0,0,0,1.29-2.24,1.66,1.66,0,0,0,0-.33Z"/><path class="cls-8" d="M467.58,294.89a2.85,2.85,0,0,0-1.3,2.24c0,.83.58,1.16,1.3.75a2.87,2.87,0,0,0,1.29-2.24C468.87,294.81,468.29,294.48,467.58,294.89Z"/><path class="cls-9" d="M467.58,294.89a2.85,2.85,0,0,0-1.3,2.24c0,.83.58,1.16,1.3.75a2.87,2.87,0,0,0,1.29-2.24C468.87,294.81,468.29,294.48,467.58,294.89Z"/><path class="cls-8" d="M462.9,298.06l-.68-.39h0a.91.91,0,0,0-.91.1A2.85,2.85,0,0,0,460,300a.91.91,0,0,0,.38.84h0l.63.36.12-.19a1.37,1.37,0,0,0,.37-.15,2.85,2.85,0,0,0,1.29-2.24,1.15,1.15,0,0,0,0-.33Z"/><path class="cls-17" d="M462.9,298.06l-.68-.39h0a.91.91,0,0,0-.91.1A2.85,2.85,0,0,0,460,300a.91.91,0,0,0,.38.84h0l.63.36.12-.19a1.37,1.37,0,0,0,.37-.15,2.85,2.85,0,0,0,1.29-2.24,1.15,1.15,0,0,0,0-.33Z"/><path class="cls-8" d="M462,298.13a2.87,2.87,0,0,0-1.3,2.25c0,.82.58,1.16,1.3.74a2.85,2.85,0,0,0,1.29-2.24C463.25,298.06,462.67,297.72,462,298.13Z"/><path class="cls-9" d="M462,298.13a2.87,2.87,0,0,0-1.3,2.25c0,.82.58,1.16,1.3.74a2.85,2.85,0,0,0,1.29-2.24C463.25,298.06,462.67,297.72,462,298.13Z"/><polygon class="cls-8" points="500.42 251.45 455.72 277.26 411.03 251.45 455.72 225.65 500.42 251.45"/><polygon class="cls-19" points="500.42 251.45 455.72 277.26 411.03 251.45 455.72 225.65 500.42 251.45"/><polygon class="cls-9" points="500.42 251.45 455.72 277.26 411.03 251.45 455.72 225.65 500.42 251.45"/><polygon class="cls-10" points="455.72 274.04 455.72 277.26 411.03 251.45 413.82 249.84 455.72 274.04"/><polygon class="cls-8" points="500.42 264.36 455.72 290.16 455.72 277.26 500.42 251.45 500.42 264.36"/><polygon class="cls-11" points="500.42 264.36 455.72 290.16 455.72 277.26 500.42 251.45 500.42 264.36"/><path class="cls-9" d="M496.13,257.16,474,270a3.31,3.31,0,0,0-1.49,2.58v3c0,.95.67,1.34,1.49.86l22.16-12.79a3.28,3.28,0,0,0,1.49-2.58v-3C497.62,257.07,497,256.68,496.13,257.16Z"/><path class="cls-12" d="M496.05,259.71v1.46a.63.63,0,0,1-.3.51l-.33.2c-.17.09-.3,0-.3-.17v-1.47a.63.63,0,0,1,.3-.51l.33-.19C495.92,259.44,496.05,259.52,496.05,259.71Z"/><path class="cls-13" d="M494.55,260.58V262a.65.65,0,0,1-.3.51l-.34.2c-.16.09-.29,0-.29-.18v-1.46a.64.64,0,0,1,.29-.51l.34-.2A.19.19,0,0,1,494.55,260.58Z"/><path class="cls-12" d="M493,261.44v1.46a.66.66,0,0,1-.3.52l-.33.19c-.17.1-.3,0-.3-.17V262a.66.66,0,0,1,.3-.52l.33-.19C492.91,261.18,493,261.25,493,261.44Z"/><path class="cls-12" d="M491.54,262.31v1.46a.69.69,0,0,1-.3.52l-.34.19c-.16.1-.29,0-.29-.17v-1.46a.68.68,0,0,1,.29-.52l.34-.19C491.4,262,491.54,262.12,491.54,262.31Z"/><path class="cls-12" d="M490,263.18v1.46a.63.63,0,0,1-.3.51l-.33.2c-.17.09-.3,0-.3-.17v-1.46a.65.65,0,0,1,.3-.52l.33-.19C489.9,262.91,490,263,490,263.18Z"/><path class="cls-13" d="M488.53,264.05v1.46a.65.65,0,0,1-.3.51l-.34.2c-.16.09-.29,0-.29-.18v-1.46a.64.64,0,0,1,.29-.51l.34-.2A.19.19,0,0,1,488.53,264.05Z"/><path class="cls-13" d="M487,264.91v1.46a.65.65,0,0,1-.3.52l-.33.19c-.17.1-.3,0-.3-.17v-1.46a.66.66,0,0,1,.3-.52l.33-.19C486.89,264.65,487,264.72,487,264.91Z"/><path class="cls-12" d="M485.52,265.78v1.46a.69.69,0,0,1-.3.52l-.34.19c-.16.1-.29,0-.29-.17v-1.46a.68.68,0,0,1,.29-.52l.34-.19C485.38,265.51,485.52,265.59,485.52,265.78Z"/><path class="cls-13" d="M484,266.65v1.46a.66.66,0,0,1-.3.52l-.33.19c-.17.09-.3,0-.3-.17v-1.46a.65.65,0,0,1,.3-.52l.33-.19C483.88,266.38,484,266.46,484,266.65Z"/><path class="cls-12" d="M482.51,267.52V269a.65.65,0,0,1-.3.51l-.34.2c-.16.09-.29,0-.29-.18v-1.46a.64.64,0,0,1,.29-.51l.34-.2A.19.19,0,0,1,482.51,267.52Z"/><path class="cls-12" d="M481,268.38v1.46a.65.65,0,0,1-.3.52l-.33.19c-.17.1-.3,0-.3-.17v-1.46a.66.66,0,0,1,.3-.52l.33-.19C480.87,268.12,481,268.19,481,268.38Z"/><path class="cls-12" d="M479.5,269.25v1.46a.69.69,0,0,1-.3.52l-.34.19c-.16.1-.29,0-.29-.17v-1.46a.68.68,0,0,1,.29-.52l.34-.19C479.36,269,479.5,269.06,479.5,269.25Z"/><path class="cls-13" d="M478,270.12v1.46a.66.66,0,0,1-.3.52l-.33.19c-.17.09-.3,0-.3-.17v-1.46a.65.65,0,0,1,.3-.52l.33-.19C477.86,269.85,478,269.93,478,270.12Z"/><path class="cls-12" d="M476.49,271v1.46a.65.65,0,0,1-.3.51l-.34.2c-.16.09-.29,0-.29-.18v-1.46a.64.64,0,0,1,.29-.51l.34-.2A.19.19,0,0,1,476.49,271Z"/><path class="cls-12" d="M475,271.85v1.46a.65.65,0,0,1-.3.52l-.33.19c-.16.1-.3,0-.3-.17v-1.46a.69.69,0,0,1,.3-.52l.33-.19C474.85,271.59,475,271.66,475,271.85Z"/><polygon class="cls-8" points="455.72 290.16 411.03 264.36 411.03 251.45 455.72 277.26 455.72 290.16"/><polygon class="cls-9" points="455.72 290.16 411.03 264.36 411.03 251.45 455.72 277.26 455.72 290.16"/><g class="cls-14"><path class="cls-15" d="M418.1,258.78l11,6.35a3.29,3.29,0,0,1,1.49,2.58v3c0,.95-.67,1.34-1.49.86l-11-6.34a3.31,3.31,0,0,1-1.49-2.58v-3C416.61,258.7,417.28,258.31,418.1,258.78Z"/></g><path class="cls-8" d="M419.51,262.18l.69-.39h0a.88.88,0,0,1,.91.09,2.84,2.84,0,0,1,1.3,2.24.93.93,0,0,1-.38.84h0l-.64.36-.11-.19a1.54,1.54,0,0,1-.37-.14,2.87,2.87,0,0,1-1.3-2.25,1.66,1.66,0,0,1,0-.33Z"/><path class="cls-17" d="M419.51,262.18l.69-.39h0a.88.88,0,0,1,.91.09,2.84,2.84,0,0,1,1.3,2.24.93.93,0,0,1-.38.84h0l-.64.36-.11-.19a1.54,1.54,0,0,1-.37-.14,2.87,2.87,0,0,1-1.3-2.25,1.66,1.66,0,0,1,0-.33Z"/><path class="cls-9" d="M420.46,262.26a2.85,2.85,0,0,1,1.29,2.24c0,.82-.58,1.16-1.29.74a2.84,2.84,0,0,1-1.3-2.24C419.16,262.18,419.74,261.84,420.46,262.26Z"/><path class="cls-8" d="M425.13,265.42l.68-.39h0a.93.93,0,0,1,.91.09,2.87,2.87,0,0,1,1.29,2.24.93.93,0,0,1-.37.84h0l-.63.36-.12-.19a1.32,1.32,0,0,1-.37-.14,2.87,2.87,0,0,1-1.29-2.24,1.57,1.57,0,0,1,0-.33Z"/><path class="cls-17" d="M425.13,265.42l.68-.39h0a.93.93,0,0,1,.91.09,2.87,2.87,0,0,1,1.29,2.24.93.93,0,0,1-.37.84h0l-.63.36-.12-.19a1.32,1.32,0,0,1-.37-.14,2.87,2.87,0,0,1-1.29-2.24,1.57,1.57,0,0,1,0-.33Z"/><path class="cls-9" d="M426.07,265.5a2.84,2.84,0,0,1,1.3,2.24c0,.82-.58,1.16-1.3.75a2.89,2.89,0,0,1-1.29-2.24C424.78,265.42,425.36,265.09,426.07,265.5Z"/><polygon class="cls-13" points="494.83 270.81 494.83 267.58 455.72 290.16 455.72 293.38 494.83 270.81"/><polygon class="cls-18" points="413.82 265.97 413.82 269.19 455.72 293.38 455.72 290.16 413.82 265.97"/><path class="cls-8" d="M468.52,275.46l-.69-.39h0a.93.93,0,0,0-.91.09,2.84,2.84,0,0,0-1.29,2.24.93.93,0,0,0,.37.84h0l.64.36.11-.19a1.26,1.26,0,0,0,.38-.14,2.87,2.87,0,0,0,1.29-2.24,1.57,1.57,0,0,0,0-.33Z"/><path class="cls-17" d="M468.52,275.46l-.69-.39h0a.93.93,0,0,0-.91.09,2.84,2.84,0,0,0-1.29,2.24.93.93,0,0,0,.37.84h0l.64.36.11-.19a1.26,1.26,0,0,0,.38-.14,2.87,2.87,0,0,0,1.29-2.24,1.57,1.57,0,0,0,0-.33Z"/><path class="cls-8" d="M467.58,275.54a2.84,2.84,0,0,0-1.3,2.24c0,.83.58,1.16,1.3.75a2.89,2.89,0,0,0,1.29-2.24C468.87,275.46,468.29,275.13,467.58,275.54Z"/><path class="cls-9" d="M467.58,275.54a2.84,2.84,0,0,0-1.3,2.24c0,.83.58,1.16,1.3.75a2.89,2.89,0,0,0,1.29-2.24C468.87,275.46,468.29,275.13,467.58,275.54Z"/><path class="cls-8" d="M462.9,278.71l-.68-.4h0a.93.93,0,0,0-.91.09,2.89,2.89,0,0,0-1.29,2.24.89.89,0,0,0,.38.84h0l.63.37.12-.2a1.07,1.07,0,0,0,.37-.14,2.87,2.87,0,0,0,1.29-2.24,1.15,1.15,0,0,0,0-.33Z"/><path class="cls-17" d="M462.9,278.71l-.68-.4h0a.93.93,0,0,0-.91.09,2.89,2.89,0,0,0-1.29,2.24.89.89,0,0,0,.38.84h0l.63.37.12-.2a1.07,1.07,0,0,0,.37-.14,2.87,2.87,0,0,0,1.29-2.24,1.15,1.15,0,0,0,0-.33Z"/><path class="cls-8" d="M462,278.78a2.85,2.85,0,0,0-1.3,2.24c0,.83.58,1.16,1.3.75a2.87,2.87,0,0,0,1.29-2.24C463.25,278.7,462.67,278.37,462,278.78Z"/><path class="cls-9" d="M462,278.78a2.85,2.85,0,0,0-1.3,2.24c0,.83.58,1.16,1.3.75a2.87,2.87,0,0,0,1.29-2.24C463.25,278.7,462.67,278.37,462,278.78Z"/><path class="cls-8" d="M412.81,231.07,454,207.33a3.94,3.94,0,0,1,3.57,0l41.1,23.74a4,4,0,0,1,1.79,3.1V245l-44.73,25.8h0L411,245V234.17A4,4,0,0,1,412.81,231.07Z"/><path class="cls-9" d="M412.81,231.07,454,207.33a3.94,3.94,0,0,1,3.57,0l41.1,23.74a4,4,0,0,1,1.79,3.1V245l-44.73,25.8h0L411,245V234.17A4,4,0,0,1,412.81,231.07Z"/><g class="cls-14"><path class="cls-15" d="M418.1,239.42l11,6.34a3.29,3.29,0,0,1,1.49,2.58v3c0,1-.67,1.34-1.49.86l-11-6.34a3.31,3.31,0,0,1-1.49-2.58v-3C416.61,239.33,417.28,238.94,418.1,239.42Z"/></g><path class="cls-8" d="M419.51,242.81l.69-.39h0a.88.88,0,0,1,.91.09,2.85,2.85,0,0,1,1.3,2.24.93.93,0,0,1-.38.84h0l-.64.36-.11-.19a1.54,1.54,0,0,1-.37-.14,2.87,2.87,0,0,1-1.3-2.25,1.66,1.66,0,0,1,0-.33Z"/><path class="cls-17" d="M419.51,242.81l.69-.39h0a.88.88,0,0,1,.91.09,2.85,2.85,0,0,1,1.3,2.24.93.93,0,0,1-.38.84h0l-.64.36-.11-.19a1.54,1.54,0,0,1-.37-.14,2.87,2.87,0,0,1-1.3-2.25,1.66,1.66,0,0,1,0-.33Z"/><path class="cls-9" d="M420.46,242.89a2.85,2.85,0,0,1,1.29,2.24c0,.82-.58,1.16-1.29.74a2.84,2.84,0,0,1-1.3-2.24C419.16,242.81,419.74,242.47,420.46,242.89Z"/><path class="cls-8" d="M425.13,246.05l.68-.39h0a.93.93,0,0,1,.91.09A2.87,2.87,0,0,1,428,248a.93.93,0,0,1-.37.84h0l-.63.36-.12-.19a1.32,1.32,0,0,1-.37-.14,2.87,2.87,0,0,1-1.29-2.24,1.57,1.57,0,0,1,0-.33Z"/><path class="cls-17" d="M425.13,246.05l.68-.39h0a.93.93,0,0,1,.91.09A2.87,2.87,0,0,1,428,248a.93.93,0,0,1-.37.84h0l-.63.36-.12-.19a1.32,1.32,0,0,1-.37-.14,2.87,2.87,0,0,1-1.29-2.24,1.57,1.57,0,0,1,0-.33Z"/><path class="cls-9" d="M426.07,246.13a2.84,2.84,0,0,1,1.3,2.24c0,.82-.58,1.16-1.3.75a2.89,2.89,0,0,1-1.29-2.24C424.78,246.05,425.36,245.72,426.07,246.13Z"/><path class="cls-8" d="M455.7,257.3v13.51L500.41,245V234.17A4,4,0,0,0,499,231.3c.65.57.54,1.33-.32,1.84l-41.15,23.74A3.69,3.69,0,0,1,455.7,257.3Z"/><path class="cls-11" d="M455.7,257.3v13.51L500.41,245V234.17A4,4,0,0,0,499,231.3c.65.57.54,1.33-.32,1.84l-41.15,23.74A3.69,3.69,0,0,1,455.7,257.3Z"/><path class="cls-9" d="M496.13,237.8,474,250.6a3.29,3.29,0,0,0-1.49,2.58v3c0,.95.67,1.33,1.49.86l22.16-12.8a3.27,3.27,0,0,0,1.49-2.58v-3C497.62,237.71,497,237.33,496.13,237.8Z"/><path class="cls-13" d="M496.05,240.35v1.46a.65.65,0,0,1-.3.52l-.33.19c-.17.1-.3,0-.3-.17v-1.46a.66.66,0,0,1,.3-.52l.33-.19C495.92,240.09,496.05,240.16,496.05,240.35Z"/><path class="cls-12" d="M494.55,241.22v1.46a.69.69,0,0,1-.3.52l-.34.19c-.16.1-.29,0-.29-.17v-1.46a.68.68,0,0,1,.29-.52l.34-.19C494.41,241,494.55,241,494.55,241.22Z"/><path class="cls-13" d="M493,242.09v1.46a.66.66,0,0,1-.3.52l-.33.19c-.17.09-.3,0-.3-.17v-1.46a.65.65,0,0,1,.3-.52l.33-.19C492.91,241.82,493,241.9,493,242.09Z"/><path class="cls-13" d="M491.54,243v1.46a.65.65,0,0,1-.3.51l-.34.2c-.16.09-.29,0-.29-.18v-1.46a.64.64,0,0,1,.29-.51l.34-.2A.19.19,0,0,1,491.54,243Z"/><path class="cls-13" d="M490,243.82v1.46a.65.65,0,0,1-.3.52l-.33.19c-.17.1-.3,0-.3-.17v-1.46a.66.66,0,0,1,.3-.52l.33-.19C489.9,243.56,490,243.63,490,243.82Z"/><path class="cls-12" d="M488.53,244.69v1.46a.69.69,0,0,1-.3.52l-.34.19c-.16.1-.29,0-.29-.17v-1.46a.68.68,0,0,1,.29-.52l.34-.19C488.39,244.42,488.53,244.5,488.53,244.69Z"/><path class="cls-12" d="M487,245.56V247a.66.66,0,0,1-.3.52l-.33.19c-.17.09-.3,0-.3-.17V246.1a.65.65,0,0,1,.3-.52l.33-.19C486.89,245.29,487,245.37,487,245.56Z"/><path class="cls-13" d="M485.52,246.43v1.46a.65.65,0,0,1-.3.51l-.34.2c-.16.09-.29,0-.29-.18V247a.64.64,0,0,1,.29-.51l.34-.2A.19.19,0,0,1,485.52,246.43Z"/><path class="cls-12" d="M484,247.29v1.46a.65.65,0,0,1-.3.52l-.33.19c-.17.1-.3,0-.3-.17v-1.46a.66.66,0,0,1,.3-.52l.33-.19C483.88,247,484,247.1,484,247.29Z"/><path class="cls-13" d="M482.51,248.16v1.46a.69.69,0,0,1-.3.52l-.34.19c-.16.1-.29,0-.29-.17V248.7a.68.68,0,0,1,.29-.52l.34-.19C482.37,247.89,482.51,248,482.51,248.16Z"/><path class="cls-13" d="M481,249v1.46a.66.66,0,0,1-.3.52l-.33.19c-.17.09-.3,0-.3-.17v-1.46a.65.65,0,0,1,.3-.52l.33-.19C480.87,248.76,481,248.84,481,249Z"/><path class="cls-13" d="M479.5,249.9v1.46a.65.65,0,0,1-.3.51l-.34.2c-.16.09-.29,0-.29-.18v-1.46a.64.64,0,0,1,.29-.51l.34-.2A.19.19,0,0,1,479.5,249.9Z"/><path class="cls-12" d="M478,250.76v1.46a.65.65,0,0,1-.3.52l-.33.19c-.17.1-.3,0-.3-.17V251.3a.66.66,0,0,1,.3-.52l.33-.19C477.86,250.5,478,250.57,478,250.76Z"/><path class="cls-13" d="M476.49,251.63v1.46a.69.69,0,0,1-.3.52l-.34.19c-.16.1-.29,0-.29-.17v-1.46a.68.68,0,0,1,.29-.52l.34-.19C476.35,251.36,476.49,251.44,476.49,251.63Z"/><path class="cls-13" d="M475,252.5V254a.66.66,0,0,1-.3.52l-.33.19c-.16.09-.3,0-.3-.17V253a.67.67,0,0,1,.3-.52l.33-.19C474.85,252.23,475,252.31,475,252.5Z"/><path class="cls-8" d="M498.63,233.14l-41.15,23.74a3.94,3.94,0,0,1-3.57,0l-41.1-23.74a1.09,1.09,0,0,1,0-2.07L454,207.33a3.94,3.94,0,0,1,3.57,0l41.1,23.74A1.09,1.09,0,0,1,498.63,233.14Z"/><path class="cls-21" d="M498.63,233.14l-41.15,23.74a3.94,3.94,0,0,1-3.57,0l-41.1-23.74a1.09,1.09,0,0,1,0-2.07L454,207.33a3.94,3.94,0,0,1,3.57,0l41.1,23.74A1.09,1.09,0,0,1,498.63,233.14Z"/><polygon class="cls-13" points="494.83 251.46 494.83 248.23 455.72 270.81 455.72 274.04 494.83 251.46"/><polygon class="cls-18" points="413.82 246.62 413.82 249.84 455.72 274.04 455.72 270.81 413.82 246.62"/><path class="cls-8" d="M468.52,256.12l-.69-.4h0a.93.93,0,0,0-.91.09,2.86,2.86,0,0,0-1.29,2.25.9.9,0,0,0,.37.83h0l.64.37.11-.19a1.3,1.3,0,0,0,.38-.15,2.87,2.87,0,0,0,1.29-2.24,1.66,1.66,0,0,0,0-.33Z"/><path class="cls-17" d="M468.52,256.12l-.69-.4h0a.93.93,0,0,0-.91.09,2.86,2.86,0,0,0-1.29,2.25.9.9,0,0,0,.37.83h0l.64.37.11-.19a1.3,1.3,0,0,0,.38-.15,2.87,2.87,0,0,0,1.29-2.24,1.66,1.66,0,0,0,0-.33Z"/><path class="cls-8" d="M467.58,256.19a2.85,2.85,0,0,0-1.3,2.24c0,.83.58,1.16,1.3.75a2.87,2.87,0,0,0,1.29-2.24C468.87,256.11,468.29,255.78,467.58,256.19Z"/><path class="cls-9" d="M467.58,256.19a2.85,2.85,0,0,0-1.3,2.24c0,.83.58,1.16,1.3.75a2.87,2.87,0,0,0,1.29-2.24C468.87,256.11,468.29,255.78,467.58,256.19Z"/><path class="cls-8" d="M462.9,259.36l-.68-.39h0a.91.91,0,0,0-.91.1A2.85,2.85,0,0,0,460,261.3a.88.88,0,0,0,.38.83h0l.63.37.12-.19a1.37,1.37,0,0,0,.37-.15,2.85,2.85,0,0,0,1.29-2.24,1.15,1.15,0,0,0,0-.33Z"/><path class="cls-17" d="M462.9,259.36l-.68-.39h0a.91.91,0,0,0-.91.1A2.85,2.85,0,0,0,460,261.3a.88.88,0,0,0,.38.83h0l.63.37.12-.19a1.37,1.37,0,0,0,.37-.15,2.85,2.85,0,0,0,1.29-2.24,1.15,1.15,0,0,0,0-.33Z"/><path class="cls-8" d="M462,259.43a2.87,2.87,0,0,0-1.3,2.24c0,.83.58,1.16,1.3.75a2.85,2.85,0,0,0,1.29-2.24C463.25,259.35,462.67,259,462,259.43Z"/><path class="cls-9" d="M462,259.43a2.87,2.87,0,0,0-1.3,2.24c0,.83.58,1.16,1.3.75a2.85,2.85,0,0,0,1.29-2.24C463.25,259.35,462.67,259,462,259.43Z"/></g></svg>