<svg xmlns="http://www.w3.org/2000/svg" width="300" height="220" viewBox="0 0 300 220" fill="none"><g clip-path="url(#clip0_161_667)"><path d="M157.804 22.4394C201.256 50.1704 251.021 62.6475 251.021 62.6475C251.021 62.6475 305.815 70.9704 285.661 133.36C265.507 195.749 262.877 218.095 231.286 219.691C201.327 220.545 184.502 208.183 154.874 210.314C128.836 212.316 110.906 224.047 67.4009 206.909C-2.32826 176.1 2.86994 -75.3112 157.804 22.4394Z" fill="url(#paint0_linear_161_667)"></path><path opacity="0.58" d="M286.472 99.9462C277.625 105.636 259.519 92.3085 245.84 105.686C232.161 119.064 226.716 95.1139 209.248 94.3103C191.781 93.5067 235.857 62.0771 263.552 78.6152C270.748 82.9202 292.692 77.4673 296.197 79.9498C305.754 86.7408 295.315 94.2601 286.472 99.9462Z" fill="#C6E6FF"></path><path opacity="0.44" d="M89.4493 42.6511C80.6134 35.3004 59.1928 47.3542 46.1417 31.0098C33.0906 14.6655 23.9928 39.9282 4.95067 38.4789C-14.0915 37.0296 25.6933 83.4332 57.9336 69.1838C66.3175 65.478 85.3309 65.7829 89.4493 63.5551C100.717 57.4672 98.296 49.9982 89.4493 42.6511Z" fill="#C6E6FF"></path><path d="M153.729 205.227C199.757 205.227 237.069 199.906 237.069 193.342C237.069 186.778 199.757 181.456 153.729 181.456C107.702 181.456 70.3892 186.778 70.3892 193.342C70.3892 199.906 107.702 205.227 153.729 205.227Z" fill="url(#paint1_linear_161_667)"></path><path d="M158.996 147.304L163.978 186.454H130.131L125.148 147.304H158.996Z" fill="#399BE3"></path><path d="M162.777 147.304L167.76 186.454H133.912L128.926 147.304H162.777Z" fill="#49A3E6"></path><path d="M166.113 173.528H132.265L128.926 147.304H162.777L166.113 173.528Z" fill="#3F9EE4"></path><path d="M95.9785 170.31H197.073C197.495 170.316 197.914 170.232 198.301 170.065C198.689 169.898 199.037 169.651 199.323 169.34C199.609 169.03 199.827 168.662 199.961 168.262C200.096 167.862 200.144 167.437 200.104 167.017L194.587 97.191C194.501 96.3015 194.092 95.4744 193.436 94.8671C192.781 94.2598 191.925 93.9148 191.031 93.8977H89.9372C89.515 93.8923 89.0963 93.9758 88.7085 94.143C88.3207 94.3101 87.9724 94.5571 87.6865 94.8678C87.4005 95.1785 87.1831 95.5459 87.0486 95.9462C86.9141 96.3465 86.8655 96.7707 86.9058 97.191L92.4233 167.017C92.5085 167.907 92.9179 168.734 93.5735 169.341C94.229 169.948 95.085 170.293 95.9785 170.31Z" fill="#49A3E6"></path><path d="M98.809 170.31H199.907C200.329 170.316 200.748 170.232 201.135 170.065C201.523 169.898 201.871 169.651 202.157 169.34C202.443 169.03 202.661 168.662 202.795 168.262C202.93 167.862 202.978 167.437 202.938 167.017L197.417 97.191C197.333 96.3018 196.924 95.4747 196.269 94.8674C195.614 94.26 194.759 93.9149 193.865 93.8977H92.7677C92.3455 93.8923 91.9268 93.9758 91.539 94.143C91.1512 94.3101 90.8029 94.5571 90.517 94.8678C90.231 95.1785 90.0136 95.5459 89.8791 95.9462C89.7446 96.3465 89.696 96.7707 89.7363 97.191L95.2574 167.017C95.3418 167.906 95.7504 168.733 96.4054 169.341C97.0604 169.948 97.9159 170.293 98.809 170.31Z" fill="#67B2EA"></path><path d="M100.14 166.877H198.027C198.42 166.882 198.81 166.805 199.171 166.649C199.532 166.494 199.856 166.264 200.122 165.975C200.389 165.686 200.591 165.344 200.717 164.972C200.842 164.599 200.888 164.205 200.85 163.813L195.921 101.417C195.842 100.589 195.461 99.8198 194.851 99.2548C194.241 98.6898 193.445 98.369 192.613 98.3533H94.7085C94.3156 98.348 93.9261 98.4255 93.5652 98.5809C93.2043 98.7363 92.8802 98.9661 92.6141 99.2552C92.3481 99.5443 92.1459 99.8862 92.0209 100.259C91.896 100.631 91.8509 101.026 91.8888 101.417L96.8215 163.813C96.9001 164.643 97.2822 165.415 97.8946 165.98C98.507 166.546 99.3065 166.865 100.14 166.877Z" fill="#D3E9F9"></path><path d="M142.454 96.2798C142.48 96.5638 142.611 96.8281 142.82 97.022C143.029 97.216 143.302 97.326 143.587 97.3309C143.722 97.3331 143.856 97.3067 143.98 97.2535C144.104 97.2003 144.216 97.1215 144.307 97.0223C144.399 96.923 144.468 96.8056 144.511 96.6776C144.554 96.5497 144.569 96.4141 144.556 96.2798C144.529 95.9964 144.398 95.733 144.189 95.5398C143.98 95.3466 143.707 95.2371 143.422 95.2323C143.288 95.2302 143.154 95.2565 143.031 95.3094C142.907 95.3624 142.796 95.4409 142.704 95.5397C142.613 95.6385 142.543 95.7555 142.5 95.8831C142.457 96.0106 142.441 96.1458 142.454 96.2798Z" fill="#49A3E6"></path><path d="M143.092 96.2798C143.103 96.3912 143.154 96.4948 143.236 96.5709C143.318 96.647 143.425 96.6902 143.537 96.6923C143.591 96.6962 143.645 96.6879 143.695 96.6681C143.745 96.6482 143.79 96.6173 143.827 96.5777C143.863 96.538 143.89 96.4907 143.906 96.4391C143.922 96.3875 143.926 96.3331 143.917 96.2798C143.907 96.1687 143.856 96.0656 143.773 95.9901C143.691 95.9146 143.584 95.8721 143.473 95.8708C143.419 95.8671 143.366 95.8753 143.316 95.895C143.266 95.9146 143.221 95.9452 143.185 95.9844C143.148 96.0236 143.121 96.0705 143.105 96.1216C143.089 96.1727 143.085 96.2268 143.092 96.2798Z" fill="white"></path><path d="M140.477 96.2798C140.487 96.3915 140.538 96.4955 140.62 96.5718C140.702 96.648 140.81 96.691 140.922 96.6923C140.976 96.6962 141.03 96.6879 141.08 96.6681C141.13 96.6482 141.175 96.6173 141.211 96.5777C141.248 96.538 141.275 96.4907 141.291 96.4391C141.307 96.3875 141.31 96.3331 141.302 96.2798C141.292 96.1687 141.24 96.0656 141.158 95.9901C141.076 95.9146 140.969 95.8721 140.857 95.8708C140.804 95.8671 140.75 95.8753 140.701 95.895C140.651 95.9146 140.606 95.9452 140.569 95.9844C140.533 96.0236 140.506 96.0705 140.49 96.1216C140.474 96.1727 140.469 96.2268 140.477 96.2798Z" fill="#49A3E6"></path><path d="M126.856 191.343H168.204C169.156 191.343 170.068 190.965 170.741 190.293C171.414 189.62 171.792 188.707 171.792 187.756C171.792 186.805 171.414 185.892 170.741 185.219C170.068 184.547 169.156 184.169 168.204 184.169H126.856C125.904 184.169 124.992 184.547 124.319 185.219C123.646 185.892 123.268 186.805 123.268 187.756C123.268 188.707 123.646 189.62 124.319 190.293C124.992 190.965 125.904 191.343 126.856 191.343Z" fill="#49A3E6"></path><path d="M126.856 190.045H168.204C169.04 190.042 169.848 189.749 170.49 189.214C171.131 188.68 171.567 187.938 171.72 187.117C171.759 187.332 171.779 187.549 171.781 187.767C171.781 188.718 171.403 189.631 170.73 190.304C170.058 190.976 169.145 191.354 168.194 191.354H126.856C125.904 191.354 124.992 190.976 124.319 190.304C123.646 189.631 123.268 188.718 123.268 187.767C123.268 187.549 123.289 187.332 123.329 187.117C123.483 187.94 123.92 188.683 124.564 189.218C125.208 189.752 126.019 190.045 126.856 190.045Z" fill="#399BE3"></path><path d="M134.852 191.343H176.201C177.152 191.343 178.065 190.965 178.738 190.293C179.41 189.62 179.788 188.707 179.788 187.756C179.788 186.805 179.41 185.892 178.738 185.219C178.065 184.547 177.152 184.169 176.201 184.169H134.852C133.901 184.169 132.988 184.547 132.315 185.219C131.643 185.892 131.265 186.805 131.265 187.756C131.265 188.707 131.643 189.62 132.315 190.293C132.988 190.965 133.901 191.343 134.852 191.343Z" fill="#67B2EA"></path><path d="M134.852 190.045H176.201C177.036 190.042 177.844 189.749 178.486 189.214C179.128 188.68 179.563 187.938 179.717 187.117C179.757 187.332 179.778 187.549 179.778 187.767C179.778 188.718 179.4 189.631 178.727 190.304C178.054 190.976 177.142 191.354 176.19 191.354H134.852C133.901 191.354 132.988 190.976 132.315 190.304C131.643 189.631 131.265 188.718 131.265 187.767C131.266 187.549 131.287 187.331 131.329 187.117C131.483 187.94 131.919 188.682 132.563 189.217C133.206 189.751 134.016 190.044 134.852 190.045Z" fill="#55A9E7"></path><path d="M158.701 187.623H176.122C176.426 187.621 176.718 187.499 176.933 187.284C177.148 187.068 177.269 186.776 177.27 186.472C177.27 186.167 177.149 185.875 176.934 185.659C176.719 185.443 176.427 185.321 176.122 185.32H158.701C158.396 185.321 158.104 185.443 157.888 185.659C157.672 185.874 157.551 186.167 157.55 186.472C157.552 186.777 157.674 187.068 157.889 187.284C158.105 187.5 158.397 187.621 158.701 187.623Z" fill="#6FB6EB"></path><path d="M146.335 187.623H153.668C153.973 187.621 154.264 187.499 154.479 187.284C154.694 187.068 154.815 186.776 154.816 186.472C154.816 186.167 154.695 185.875 154.48 185.659C154.265 185.443 153.973 185.321 153.668 185.32H146.335C146.031 185.321 145.739 185.443 145.523 185.659C145.308 185.875 145.187 186.167 145.187 186.472C145.188 186.776 145.31 187.068 145.525 187.284C145.739 187.499 146.031 187.621 146.335 187.623Z" fill="#6FB6EB"></path><path d="M96.8359 163.813L92.6529 110.931C92.6242 110.551 92.0215 102.884 100.961 103.469C109.901 104.054 109.126 111.996 109.126 111.996C109.126 111.996 116.929 109.274 120.761 114.174C124.592 119.074 120.147 129.6 120.147 129.6C130.988 131.598 129.187 139.239 129.187 139.239C147.756 132.126 169.026 103.473 169.026 103.473L175.178 115.085C163.566 121.98 162.902 143.756 162.902 143.756C168.958 137.769 174.454 142.368 174.454 142.368C174.454 142.368 176.994 135.161 185.015 136.678C194.475 138.472 193.578 147.308 193.578 147.308C193.578 147.308 196.136 144.99 199.387 145.27L200.854 163.817C200.891 164.208 200.846 164.603 200.72 164.976C200.595 165.348 200.392 165.69 200.126 165.979C199.86 166.268 199.535 166.498 199.174 166.653C198.813 166.808 198.424 166.886 198.03 166.881H100.14C99.3085 166.865 98.512 166.543 97.9025 165.978C97.293 165.412 96.9133 164.641 96.8359 163.813Z" fill="white"></path><path d="M97.6359 165.693C114.339 157.848 151.2 138.013 162.694 111.315C163.738 110.091 164.674 108.965 165.485 107.968L172.556 114.579C172.556 114.579 156.843 128.305 155.803 166.877H100.14C99.6621 166.87 99.1913 166.761 98.7594 166.557C98.3274 166.353 97.9443 166.058 97.6359 165.693Z" fill="white"></path><path d="M166.059 115.892C164.883 114.71 163.535 113.713 162.059 112.936C161.47 112.61 161.021 112.08 160.795 111.446C160.57 110.812 160.584 110.117 160.836 109.492C162.956 104.238 166 99.4045 169.822 95.2215C179.193 84.7784 192.305 78.0879 204.868 77.0834C203.864 89.6394 197.173 102.759 186.73 112.129C182.547 115.952 177.714 118.995 172.459 121.116C171.835 121.367 171.14 121.381 170.506 121.156C169.871 120.931 169.341 120.481 169.015 119.892C168.238 118.417 167.242 117.068 166.059 115.892Z" fill="#49A3E6"></path><path d="M161.015 109.058C163.132 103.974 166.111 99.2941 169.822 95.2251C179.193 84.782 192.305 78.0915 204.868 77.087C203.864 89.643 197.173 102.762 186.73 112.133C182.596 115.906 177.83 118.921 172.649 121.04C172.599 120.958 172.545 120.879 172.499 120.789C169.877 115.858 165.892 111.786 161.019 109.058H161.015Z" fill="#379AE3"></path><path d="M196.212 111.308C196.212 111.308 183.605 115.727 178.633 120.994C178.633 120.994 181.008 129.919 171.379 134.802C171.249 134.889 171.151 135.017 171.1 135.165C171.049 135.313 171.048 135.474 171.097 135.623C171.146 135.772 171.243 135.901 171.372 135.99C171.502 136.079 171.657 136.122 171.813 136.115C178.884 135.006 191.993 130.375 196.212 111.308Z" fill="#49A3E6"></path><g style="mix-blend-mode:multiply" opacity="0.1"><path d="M178.816 122.181C178.778 121.777 178.712 121.375 178.619 120.979C183.605 115.727 196.197 111.293 196.197 111.293C195.865 112.803 195.452 114.294 194.96 115.76C191.014 118.409 186.774 120.591 182.325 122.264C181.185 122.672 179.935 122.643 178.816 122.181Z" fill="black"></path></g><path d="M170.644 85.7399C170.644 85.7399 166.224 98.3462 160.958 103.318C160.958 103.318 152.032 100.943 147.15 110.572C147.063 110.703 146.935 110.801 146.787 110.852C146.638 110.903 146.477 110.904 146.328 110.855C146.179 110.805 146.05 110.709 145.962 110.579C145.873 110.45 145.829 110.295 145.837 110.138C146.945 103.067 151.577 89.9587 170.644 85.7399Z" fill="#49A3E6"></path><g style="mix-blend-mode:multiply" opacity="0.1"><path d="M160.972 103.318C160.577 103.226 160.175 103.161 159.77 103.125C159.3 102.002 159.266 100.745 159.674 99.5982C161.346 95.1493 163.528 90.9093 166.178 86.9632C167.643 86.4759 169.134 86.0675 170.644 85.7399C170.644 85.7399 166.224 98.3462 160.972 103.318Z" fill="black"></path></g><path d="M170.002 111.95C167.964 109.909 165.632 108.184 163.085 106.83C162.071 106.288 161.296 105.386 160.915 104.3C160.534 103.215 160.573 102.026 161.026 100.969C164.552 92.832 169.598 85.4425 175.892 79.1964C189.471 65.6179 206.795 58.8627 222.432 59.5193C223.089 75.1569 216.334 92.4843 202.755 106.059C196.51 112.353 189.122 117.398 180.987 120.926C179.929 121.379 178.739 121.419 177.653 121.038C176.567 120.657 175.663 119.882 175.121 118.866C173.768 116.319 172.043 113.988 170.002 111.95Z" fill="white"></path><path d="M195.182 97.1336C200.906 97.1336 205.546 92.4934 205.546 86.7695C205.546 81.0455 200.906 76.4054 195.182 76.4054C189.458 76.4054 184.818 81.0455 184.818 86.7695C184.818 92.4934 189.458 97.1336 195.182 97.1336Z" fill="#005B9F"></path><path d="M196.334 95.982C202.058 95.982 206.698 91.3419 206.698 85.6179C206.698 79.894 202.058 75.2538 196.334 75.2538C190.61 75.2538 185.97 79.894 185.97 85.6179C185.97 91.3419 190.61 95.982 196.334 95.982Z" fill="#49A3E6"></path><path d="M199.067 94.0807C199.108 94.2617 199.077 94.4514 198.98 94.6099C198.884 94.7684 198.73 94.8835 198.551 94.9309H198.508C198.396 94.9568 198.279 94.9536 198.168 94.9216C198.058 94.8896 197.957 94.8298 197.876 94.748C197.779 94.65 197.712 94.5251 197.686 94.3892C197.669 94.2171 197.715 94.0448 197.816 93.9039C197.916 93.763 198.064 93.6631 198.232 93.6225C198.4 93.5819 198.577 93.6033 198.73 93.6829C198.884 93.7625 199.004 93.8948 199.067 94.0556V94.0807Z" fill="#379AE3"></path><path d="M195.211 93.7076C195.395 93.7327 195.562 93.8282 195.677 93.9741C195.792 94.12 195.846 94.3048 195.828 94.4897C195.818 94.581 195.789 94.6693 195.744 94.7495C195.699 94.8296 195.639 94.8998 195.566 94.956C195.493 95.014 195.41 95.0569 195.321 95.0822C195.231 95.1074 195.138 95.1145 195.046 95.1031H194.992C194.848 95.0824 194.715 95.0157 194.612 94.913C194.535 94.8358 194.478 94.7417 194.444 94.6383C194.41 94.5348 194.401 94.425 194.418 94.3175C194.445 94.1326 194.543 93.9655 194.691 93.8516C194.839 93.7377 195.025 93.6861 195.211 93.7076Z" fill="#379AE3"></path><path d="M205.144 86.956C205.324 87.0043 205.478 87.1202 205.573 87.2794C205.669 87.4387 205.699 87.6288 205.657 87.8099C205.613 87.9903 205.5 88.1465 205.343 88.2455C205.186 88.3445 204.996 88.3787 204.814 88.3408C204.685 88.3101 204.567 88.2443 204.474 88.1507C204.39 88.066 204.329 87.9621 204.296 87.8482C204.263 87.7342 204.259 87.6138 204.283 87.4977V87.4511C204.335 87.2735 204.454 87.1228 204.614 87.0305C204.775 86.9383 204.965 86.9116 205.144 86.956Z" fill="#379AE3"></path><path d="M192.377 92.7641C192.478 92.7962 192.571 92.8504 192.649 92.9228C192.726 92.9951 192.787 93.0839 192.827 93.1826C192.866 93.2813 192.883 93.3875 192.876 93.4935C192.869 93.5996 192.839 93.7028 192.788 93.7957C192.736 93.8887 192.665 93.969 192.578 94.031C192.492 94.0929 192.393 94.1349 192.288 94.1539C192.184 94.173 192.076 94.1685 191.974 94.141C191.871 94.1134 191.776 94.0634 191.695 93.9946H191.67C191.59 93.9506 191.519 93.8909 191.462 93.8189C191.405 93.747 191.364 93.6644 191.34 93.5759C191.315 93.4875 191.309 93.3952 191.322 93.3044C191.334 93.2136 191.365 93.1262 191.412 93.0475C191.503 92.8832 191.656 92.7614 191.836 92.7084C192.017 92.6554 192.211 92.6754 192.377 92.7641Z" fill="#379AE3"></path><path d="M205.819 84.3049C205.843 84.4889 205.794 84.6751 205.684 84.8242C205.574 84.9734 205.41 85.074 205.227 85.1049C205.119 85.1199 205.008 85.1098 204.905 85.0756C204.801 85.0414 204.706 84.984 204.628 84.9076C204.521 84.8011 204.451 84.6625 204.43 84.513C204.43 84.513 204.43 84.4664 204.43 84.4592C204.445 84.2947 204.515 84.1402 204.63 84.0217C204.745 83.9032 204.897 83.8278 205.061 83.8085C205.225 83.7891 205.391 83.8268 205.53 83.9153C205.669 84.0038 205.774 84.1376 205.826 84.2942L205.819 84.3049Z" fill="#379AE3"></path><path d="M195.935 76.0538C196.027 76.0505 196.118 76.0652 196.203 76.0971C196.289 76.1291 196.367 76.1776 196.434 76.24C196.5 76.3023 196.554 76.3772 196.592 76.4604C196.629 76.5436 196.65 76.6334 196.653 76.7247C196.656 76.8668 196.617 77.0067 196.54 77.1264C196.463 77.2462 196.353 77.3405 196.223 77.3974C196.092 77.4543 195.948 77.4712 195.808 77.446C195.668 77.4207 195.539 77.3545 195.437 77.2556C195.314 77.1274 195.243 76.958 195.237 76.7804C195.232 76.6028 195.293 76.4295 195.408 76.2942C195.526 76.1557 195.693 76.0693 195.874 76.0538H195.935Z" fill="#379AE3"></path><path d="M203.254 91.2108C203.22 91.1875 203.189 91.1611 203.161 91.1318C203.044 91.0124 202.973 90.8561 202.959 90.6898C202.945 90.5235 202.99 90.3576 203.085 90.2206C203.127 90.1225 203.19 90.0349 203.27 89.9642C203.349 89.8935 203.444 89.8414 203.546 89.8118C203.648 89.7821 203.756 89.7757 203.861 89.7928C203.967 89.81 204.067 89.8504 204.154 89.9111C204.242 89.9718 204.315 90.0512 204.368 90.1436C204.421 90.236 204.453 90.3391 204.461 90.4454C204.469 90.5516 204.454 90.6584 204.416 90.7579C204.377 90.8574 204.318 90.9471 204.24 91.0206L204.222 91.0457C204.17 91.1208 204.104 91.1847 204.026 91.2338C203.949 91.2828 203.863 91.316 203.773 91.3313C203.683 91.3467 203.59 91.3439 203.501 91.3232C203.412 91.3025 203.328 91.2643 203.254 91.2108Z" fill="#379AE3"></path><path d="M200.936 92.3695L200.983 92.3372C201.06 92.2873 201.146 92.253 201.236 92.2364C201.326 92.2198 201.419 92.2212 201.509 92.2405C201.598 92.2599 201.683 92.2968 201.759 92.3491C201.834 92.4014 201.898 92.4681 201.948 92.5453C202.043 92.6979 202.077 92.8807 202.044 93.0574C202.011 93.2341 201.913 93.3919 201.769 93.4996H201.747C201.611 93.5903 201.447 93.6316 201.284 93.6165C201.121 93.6015 200.968 93.5311 200.85 93.417C200.82 93.3873 200.792 93.3549 200.768 93.3202C200.672 93.1692 200.637 92.988 200.668 92.8122C200.699 92.6364 200.795 92.4786 200.936 92.3695Z" fill="#379AE3"></path><path d="M190.572 78.8341C190.704 78.9682 190.777 79.1485 190.777 79.3363C190.777 79.5241 190.704 79.7044 190.572 79.8386C190.514 79.9276 190.436 80.0024 190.345 80.0577C190.254 80.1129 190.152 80.1472 190.046 80.1581C189.94 80.1689 189.833 80.156 189.732 80.1203C189.632 80.0846 189.541 80.0269 189.465 79.9516C189.39 79.8763 189.332 79.7851 189.297 79.6848C189.261 79.5844 189.248 79.4773 189.259 79.3714C189.27 79.2654 189.304 79.1631 189.359 79.0721C189.415 78.981 189.489 78.9034 189.578 78.8448L189.625 78.7946C189.758 78.6787 189.93 78.6182 190.107 78.6255C190.283 78.6328 190.449 78.7075 190.572 78.8341Z" fill="#379AE3"></path><path d="M199.365 76.5309H199.39C199.565 76.593 199.709 76.7203 199.792 76.8862C199.875 77.052 199.89 77.2436 199.835 77.4206C199.806 77.5089 199.759 77.5904 199.697 77.66C199.635 77.7297 199.56 77.7862 199.476 77.826C199.309 77.9087 199.116 77.9228 198.938 77.8655H198.899C198.755 77.7831 198.644 77.6534 198.585 77.4986C198.526 77.3438 198.522 77.1733 198.575 77.0161C198.627 76.8589 198.732 76.7247 198.873 76.6363C199.013 76.5478 199.179 76.5106 199.343 76.5309H199.365Z" fill="#379AE3"></path><path d="M193.022 78.1489C192.893 78.2003 192.752 78.2131 192.616 78.1857C192.479 78.1583 192.354 78.0919 192.255 77.9946C192.158 77.8956 192.092 77.7709 192.065 77.6353C192.037 77.4997 192.05 77.3592 192.1 77.2305C192.173 77.0592 192.309 76.9229 192.481 76.8502H192.499C192.66 76.8164 192.827 76.839 192.974 76.9141C193.12 76.9891 193.236 77.1122 193.302 77.2627C193.369 77.4132 193.382 77.5819 193.338 77.7406C193.295 77.8993 193.199 78.0384 193.065 78.1345L193.022 78.1489Z" fill="#379AE3"></path><path d="M187.982 84.7318C188.108 84.8698 188.175 85.0512 188.169 85.2377C188.169 85.2377 188.169 85.2735 188.169 85.2807C188.157 85.4606 188.075 85.6286 187.941 85.7492C187.807 85.8698 187.631 85.9334 187.451 85.9264C187.28 85.915 187.118 85.8425 186.996 85.722C186.926 85.651 186.871 85.5668 186.835 85.4743C186.799 85.3819 186.781 85.2831 186.784 85.1838C186.797 85.0493 186.848 84.9213 186.931 84.8145C187.014 84.7078 187.126 84.6267 187.253 84.5806C187.38 84.5344 187.518 84.5252 187.65 84.5538C187.782 84.5825 187.903 84.6479 188 84.7426L187.982 84.7318Z" fill="#379AE3"></path><path d="M188.499 81.4027C188.671 81.481 188.805 81.624 188.872 81.8007C188.939 81.9773 188.934 82.1733 188.857 82.3462C188.779 82.5137 188.639 82.6446 188.467 82.7114C188.294 82.7783 188.103 82.7759 187.932 82.7049C187.853 82.6691 187.781 82.6192 187.72 82.5578C187.621 82.4565 187.554 82.3282 187.528 82.189C187.502 82.0499 187.518 81.9061 187.573 81.7758C187.608 81.6893 187.66 81.6108 187.726 81.5449C187.792 81.479 187.87 81.4271 187.956 81.3923C188.043 81.3574 188.135 81.3404 188.229 81.3422C188.322 81.344 188.414 81.3645 188.499 81.4027Z" fill="#379AE3"></path><path d="M188.596 88.2296C188.653 88.4062 188.641 88.5983 188.56 88.7656C188.479 88.9329 188.336 89.0623 188.161 89.1264C188.038 89.1683 187.905 89.1747 187.779 89.1449C187.652 89.1151 187.536 89.0503 187.444 88.9578C187.37 88.8825 187.314 88.7919 187.279 88.6923V88.6529C187.25 88.5664 187.239 88.4752 187.246 88.3845C187.253 88.2938 187.278 88.2053 187.32 88.1243C187.361 88.0432 187.418 87.9711 187.487 87.9123C187.557 87.8534 187.637 87.8088 187.724 87.7811C187.899 87.7314 188.086 87.75 188.248 87.8333C188.41 87.9165 188.534 88.0582 188.596 88.2296Z" fill="#379AE3"></path><path d="M204.7 80.9507V80.9865C204.784 81.1475 204.805 81.3348 204.757 81.5103C204.72 81.6257 204.655 81.7301 204.568 81.8135C204.48 81.897 204.372 81.9569 204.255 81.9877C204.138 82.0185 204.015 82.0192 203.898 81.9896C203.781 81.9601 203.672 81.9014 203.584 81.8188C203.541 81.7726 203.502 81.7222 203.469 81.6682V81.643C203.419 81.4851 203.425 81.3147 203.486 81.1608C203.548 81.0069 203.66 80.8789 203.805 80.7987C203.95 80.7184 204.119 80.6907 204.282 80.7204C204.445 80.7501 204.592 80.8352 204.7 80.9614V80.9507Z" fill="#379AE3"></path><path d="M190.135 90.7982C190.194 90.8558 190.242 90.9248 190.275 91.0013C190.307 91.0777 190.324 91.1599 190.324 91.243C190.324 91.3261 190.307 91.4083 190.275 91.4848C190.242 91.5612 190.194 91.6303 190.135 91.6879C190 91.7751 189.838 91.8105 189.679 91.7874C189.52 91.7643 189.374 91.6843 189.27 91.5623L189.23 91.5193L189.205 91.4906C189.145 91.4345 189.098 91.3667 189.065 91.2915C189.032 91.2162 189.015 91.135 189.015 91.0529C189.015 90.9708 189.032 90.8896 189.065 90.8143C189.098 90.739 189.145 90.6713 189.205 90.6152C189.355 90.5229 189.534 90.4904 189.706 90.5243C189.878 90.5582 190.031 90.6561 190.135 90.7982Z" fill="#379AE3"></path><path d="M202.45 78.2493H202.475C202.547 78.308 202.605 78.3806 202.648 78.4626C202.69 78.5446 202.716 78.6343 202.723 78.7264C202.728 78.8621 202.695 78.9966 202.627 79.1142C202.56 79.2318 202.46 79.3277 202.339 79.3908C202.219 79.454 202.084 79.4817 201.948 79.4707C201.813 79.4598 201.683 79.4107 201.575 79.3291L201.546 79.3076L201.503 79.2681C201.381 79.1423 201.309 78.9761 201.301 78.801C201.293 78.6258 201.35 78.4538 201.46 78.3175C201.585 78.1807 201.757 78.0973 201.941 78.0846C202.126 78.0719 202.308 78.1309 202.45 78.2493Z" fill="#379AE3"></path><path d="M196.334 93.0081C200.415 93.0081 203.724 89.6994 203.724 85.6179C203.724 81.5365 200.415 78.2278 196.334 78.2278C192.252 78.2278 188.944 81.5365 188.944 85.6179C188.944 89.6994 192.252 93.0081 196.334 93.0081Z" fill="#D3E9F9"></path><path d="M197.209 83.3399C196.827 83.7223 196.567 84.2094 196.461 84.7396C196.356 85.2698 196.41 85.8194 196.617 86.3188C196.824 86.8181 197.175 87.245 197.624 87.5453C198.074 87.8456 198.602 88.0058 199.143 88.0058C199.683 88.0058 200.212 87.8456 200.661 87.5453C201.111 87.245 201.461 86.8181 201.668 86.3188C201.875 85.8194 201.929 85.2698 201.824 84.7396C201.719 84.2094 201.458 83.7223 201.076 83.3399C200.822 83.0859 200.521 82.8843 200.189 82.7468C199.857 82.6093 199.502 82.5386 199.143 82.5386C198.783 82.5386 198.428 82.6093 198.096 82.7468C197.764 82.8843 197.463 83.0859 197.209 83.3399Z" fill="#EFF7FD"></path><path d="M192.126 84.122C191.898 84.3497 191.743 84.6399 191.68 84.9559C191.617 85.2718 191.649 85.5993 191.772 85.8969C191.896 86.1946 192.104 86.4489 192.372 86.6279C192.64 86.8069 192.955 86.9024 193.277 86.9024C193.599 86.9024 193.914 86.8069 194.182 86.6279C194.45 86.4489 194.659 86.1946 194.782 85.8969C194.905 85.5993 194.937 85.2718 194.875 84.9559C194.812 84.6399 194.656 84.3497 194.429 84.122C194.123 83.8166 193.709 83.645 193.277 83.645C192.845 83.645 192.431 83.8166 192.126 84.122Z" fill="#EFF7FD"></path><path d="M201.561 80.391C202.595 81.4249 203.299 82.7424 203.585 84.1767C203.871 85.611 203.724 87.0978 203.165 88.4491C202.605 89.8003 201.658 90.9552 200.442 91.7678C199.226 92.5804 197.796 93.0142 196.334 93.0142C194.871 93.0142 193.442 92.5804 192.226 91.7678C191.01 90.9552 190.062 89.8003 189.502 88.4491C188.943 87.0978 188.797 85.611 189.082 84.1767C189.368 82.7424 190.072 81.4249 191.107 80.391C191.793 79.7044 192.608 79.1597 193.505 78.7881C194.402 78.4165 195.363 78.2252 196.334 78.2252C197.304 78.2252 198.266 78.4165 199.163 78.7881C200.059 79.1597 200.874 79.7044 201.561 80.391ZM192.337 89.6144C193.209 90.4856 194.319 91.0788 195.528 91.319C196.737 91.5593 197.989 91.4357 199.128 90.964C200.266 90.4923 201.239 89.6936 201.924 88.6689C202.609 87.6442 202.974 86.4395 202.974 85.2072C202.974 83.9748 202.609 82.7702 201.924 81.7455C201.239 80.7208 200.266 79.9221 199.128 79.4504C197.989 78.9787 196.737 78.8551 195.528 79.0953C194.319 79.3356 193.209 79.9288 192.337 80.8C191.758 81.3784 191.298 82.0654 190.985 82.8216C190.671 83.5779 190.51 84.3885 190.51 85.2072C190.51 86.0258 190.671 86.8365 190.985 87.5927C191.298 88.3489 191.758 89.0359 192.337 89.6144Z" fill="#87C2EE"></path><path d="M208.431 73.5103C205.278 70.3632 202.303 67.0433 199.519 63.5659C207.143 60.5776 214.97 59.2072 222.418 59.5193C222.73 66.9668 221.36 74.7946 218.375 82.4179C214.897 79.6361 211.577 76.6623 208.431 73.5103Z" fill="#49A3E6"></path><g style="mix-blend-mode:multiply" opacity="0.05"><path d="M161.026 100.969C164.552 92.832 169.598 85.4425 175.892 79.1964C189.471 65.6179 206.795 58.8627 222.432 59.5193C208.083 59.3578 191.968 66.052 179.11 78.9094C173.166 84.8057 168.33 91.7237 164.836 99.3327C163.914 101.37 164.66 103.699 166.561 104.664C171.181 107.016 174.936 110.771 177.288 115.39C178.253 117.291 180.581 118.038 182.619 117.116C190.23 113.622 197.151 108.787 203.049 102.841C215.907 89.9838 222.601 73.8726 222.422 59.5193C223.078 75.1569 216.323 92.4843 202.744 106.059C196.499 112.353 189.111 117.398 180.976 120.926C179.918 121.379 178.728 121.419 177.642 121.038C176.556 120.657 175.652 119.882 175.11 118.866C172.386 113.746 168.195 109.555 163.074 106.83C162.062 106.287 161.29 105.383 160.91 104.298C160.531 103.213 160.572 102.025 161.026 100.969Z" fill="black"></path></g><path d="M171.121 107.648C165.862 112.908 154.834 125.37 155.717 126.253C156.599 127.135 169.062 116.108 174.321 110.848C179.58 105.589 183.125 100.613 182.242 99.7274C181.36 98.8413 176.362 102.393 171.121 107.648Z" fill="#49A3E6"></path><path opacity="0.2" d="M104.617 37.6394H82.1381C80.4065 37.6394 79.0027 39.0432 79.0027 40.7749V63.2538C79.0027 64.9854 80.4065 66.3892 82.1381 66.3892H104.617C106.349 66.3892 107.752 64.9854 107.752 63.2538V40.7749C107.752 39.0432 106.349 37.6394 104.617 37.6394Z" fill="black"></path><path d="M108.524 34.4861H89.6933C88.241 34.4861 87.0637 35.6634 87.0637 37.1157V55.9462C87.0637 57.3985 88.241 58.5758 89.6933 58.5758H108.524C109.976 58.5758 111.153 57.3985 111.153 55.9462V37.1157C111.153 35.6634 109.976 34.4861 108.524 34.4861Z" fill="#007CFF"></path><path opacity="0.3" d="M108.524 34.4861H89.6933C88.241 34.4861 87.0637 35.6634 87.0637 37.1157V55.9462C87.0637 57.3985 88.241 58.5758 89.6933 58.5758H108.524C109.976 58.5758 111.153 57.3985 111.153 55.9462V37.1157C111.153 35.6634 109.976 34.4861 108.524 34.4861Z" fill="white"></path><path d="M100.965 43.7668V42.3103L100.215 42.2385C100.112 41.7598 99.9225 41.3039 99.6556 40.8933L100.136 40.3121L99.1067 39.2825L98.522 39.7632C98.1135 39.4922 97.6568 39.3022 97.1767 39.2036L97.1085 38.4538H95.652L95.5803 39.2036C95.1003 39.3028 94.6437 39.4927 94.235 39.7632L93.6502 39.2825L92.6206 40.3121L93.1049 40.8933C92.835 41.3023 92.6451 41.7588 92.5453 42.2385L91.7955 42.3103V43.7668L92.5453 43.8385C92.6451 44.3183 92.835 44.7748 93.1049 45.1838L92.6206 45.765L93.6502 46.7946L94.235 46.3139C94.6437 46.5844 95.1003 46.7743 95.5803 46.8735L95.652 47.6233H97.1085L97.1767 46.8735C97.6568 46.7749 98.1135 46.5849 98.522 46.3139L99.1067 46.7946L100.136 45.765L99.6556 45.1838C99.9225 44.7732 100.112 44.3173 100.215 43.8385L100.965 43.7668ZM96.3803 45.0116C95.9899 45.0124 95.608 44.8972 95.2831 44.6809C94.9581 44.4645 94.7047 44.1566 94.5548 43.7961C94.4049 43.4356 94.3653 43.0388 94.441 42.6558C94.5168 42.2728 94.7044 41.9209 94.9802 41.6446C95.256 41.3683 95.6076 41.1801 95.9904 41.1036C96.3733 41.0272 96.7702 41.0661 97.1309 41.2153C97.4917 41.3645 97.8 41.6174 98.017 41.942C98.2339 42.2665 98.3498 42.6482 98.3498 43.0385C98.345 43.5581 98.1356 44.0548 97.7668 44.4209C97.3981 44.7869 96.8998 44.9928 96.3803 44.9937V45.0116Z" fill="white"></path><path d="M106.87 47.8601V46.7193L106.282 46.6654C106.203 46.2897 106.054 45.932 105.844 45.6107L106.203 45.1551L105.396 44.348L104.94 44.7067C104.619 44.4956 104.261 44.3471 103.885 44.269L103.828 43.6807H102.687L102.633 44.269C102.257 44.3465 101.899 44.495 101.578 44.7067L101.123 44.348L100.312 45.1551L100.692 45.6107C100.481 45.9312 100.332 46.2892 100.255 46.6654L99.6664 46.7193V47.8601L100.255 47.9175C100.333 48.2935 100.481 48.6513 100.692 48.9722L100.312 49.4278L101.123 50.235L101.596 49.8654C101.918 50.0757 102.275 50.2241 102.651 50.3031L102.705 50.8915H103.846L103.903 50.3031C104.279 50.2235 104.636 50.0751 104.958 49.8654L105.413 50.2421L106.221 49.435L105.862 48.9793C106.072 48.6578 106.22 48.3002 106.3 47.9246L106.87 47.8601ZM103.283 48.8359C102.977 48.8359 102.678 48.7452 102.423 48.5753C102.169 48.4054 101.971 48.1639 101.854 47.8814C101.737 47.5988 101.706 47.2879 101.766 46.988C101.826 46.6881 101.973 46.4126 102.189 46.1963C102.405 45.9801 102.681 45.8328 102.981 45.7732C103.281 45.7135 103.592 45.7441 103.874 45.8612C104.157 45.9782 104.398 46.1764 104.568 46.4306C104.738 46.6849 104.829 46.9839 104.829 47.2897C104.829 47.4933 104.788 47.695 104.71 47.883C104.632 48.0711 104.518 48.2419 104.373 48.3855C104.229 48.5292 104.058 48.6429 103.869 48.7202C103.681 48.7975 103.479 48.8368 103.275 48.8359H103.283Z" fill="white"></path><path d="M100.965 51.1031V50.1453L100.47 50.0986C100.407 49.7833 100.285 49.4827 100.111 49.2125L100.43 48.8287L99.7309 48.1507L99.3471 48.4664C99.077 48.2919 98.7763 48.1702 98.461 48.1076L98.4143 47.6125H97.4565L97.4099 48.1076C97.0945 48.1702 96.7938 48.2919 96.5238 48.4664L96.1399 48.1507L95.4619 48.8287L95.7812 49.2125C95.6054 49.4819 95.4835 49.7829 95.4224 50.0986L94.9273 50.1453V51.1031L95.4224 51.1498C95.4841 51.4654 95.6059 51.7662 95.7812 52.0359L95.4619 52.4197L96.1435 53.0942L96.5273 52.7749C96.7975 52.9492 97.0981 53.0709 97.4134 53.1336L97.4601 53.6251H98.4179L98.4646 53.1336C98.7799 53.0709 99.0805 52.9492 99.3507 52.7749L99.7309 53.0942L100.409 52.4161L100.09 52.0323C100.263 51.7618 100.385 51.4613 100.448 51.1462L100.965 51.1031ZM97.9372 51.9211C97.6804 51.9211 97.4293 51.8449 97.2157 51.7022C97.0022 51.5595 96.8357 51.3567 96.7374 51.1194C96.6391 50.8821 96.6134 50.621 96.6635 50.3691C96.7136 50.1171 96.8373 49.8857 97.0189 49.7041C97.2005 49.5225 97.4319 49.3988 97.6838 49.3487C97.9358 49.2986 98.1969 49.3243 98.4342 49.4226C98.6715 49.5209 98.8743 49.6874 99.017 49.9009C99.1597 50.1145 99.2359 50.3656 99.2359 50.6224C99.2359 50.9668 99.099 51.2972 98.8555 51.5407C98.6119 51.7842 98.2816 51.9211 97.9372 51.9211Z" fill="white"></path><path opacity="0.2" d="M109.543 34.4861H90.7121C89.2598 34.4861 88.0825 35.6634 88.0825 37.1157V55.9462C88.0825 57.3985 89.2598 58.5758 90.7121 58.5758H109.543C110.995 58.5758 112.172 57.3985 112.172 55.9462V37.1157C112.172 35.6634 110.995 34.4861 109.543 34.4861Z" fill="white"></path><path opacity="0.2" d="M146.066 65.5426H125.288C123.687 65.5426 122.389 66.8404 122.389 68.4413V89.2197C122.389 90.8206 123.687 92.1184 125.288 92.1184H146.066C147.667 92.1184 148.965 90.8206 148.965 89.2197V68.4413C148.965 66.8404 147.667 65.5426 146.066 65.5426Z" fill="black"></path><path d="M148.904 64.1219H131.494C130.153 64.1219 129.065 65.2093 129.065 66.5506V83.9605C129.065 85.3018 130.153 86.3892 131.494 86.3892H148.904C150.245 86.3892 151.333 85.3018 151.333 83.9605V66.5506C151.333 65.2093 150.245 64.1219 148.904 64.1219Z" fill="#007CFF"></path><path opacity="0.2" d="M148.904 64.1219H131.494C130.153 64.1219 129.065 65.2093 129.065 66.5506V83.9605C129.065 85.3018 130.153 86.3892 131.494 86.3892H148.904C150.245 86.3892 151.333 85.3018 151.333 83.9605V66.5506C151.333 65.2093 150.245 64.1219 148.904 64.1219Z" fill="white"></path><path d="M141.048 78.8305C141.048 78.9894 141 79.1448 140.912 79.2769C140.824 79.4091 140.698 79.5121 140.551 79.5729C140.405 79.6337 140.243 79.6496 140.087 79.6186C139.931 79.5876 139.788 79.5111 139.676 79.3987C139.563 79.2863 139.487 79.1431 139.456 78.9872C139.425 78.8314 139.441 78.6698 139.502 78.523C139.562 78.3761 139.665 78.2506 139.798 78.1623C139.93 78.074 140.085 78.0269 140.244 78.0269C140.457 78.0269 140.661 78.1115 140.812 78.2623C140.963 78.413 141.048 78.6174 141.048 78.8305Z" fill="white"></path><path d="M140.176 70.8125C138.059 70.8125 136.029 71.6535 134.532 73.1504C133.035 74.6474 132.194 76.6776 132.194 78.7946H138.569C138.558 78.5822 138.592 78.3699 138.67 78.1718C138.747 77.9737 138.866 77.7944 139.018 77.6455C139.17 77.4966 139.351 77.3817 139.551 77.3083C139.751 77.2349 139.964 77.2047 140.176 77.2197C140.34 77.2268 140.502 77.2583 140.657 77.313L143.645 73.8439L141.535 77.948C141.7 78.1994 141.786 78.4941 141.783 78.7946H148.161C148.161 77.7461 147.955 76.7078 147.553 75.7392C147.152 74.7705 146.564 73.8904 145.822 73.1492C145.081 72.4079 144.2 71.82 143.231 71.4191C142.263 71.0182 141.224 70.8121 140.176 70.8125Z" fill="white"></path><path opacity="0.2" d="M149.844 64.1219H132.434C131.093 64.1219 130.005 65.2093 130.005 66.5506V83.9605C130.005 85.3018 131.093 86.3892 132.434 86.3892H149.844C151.185 86.3892 152.273 85.3018 152.273 83.9605V66.5506C152.273 65.2093 151.185 64.1219 149.844 64.1219Z" fill="white"></path><path opacity="0.2" d="M152.563 44.3013H134.332C132.927 44.3013 131.788 45.4401 131.788 46.8448V65.0762C131.788 66.481 132.927 67.6197 134.332 67.6197H152.563C153.968 67.6197 155.107 66.481 155.107 65.0762V46.8448C155.107 45.4401 153.968 44.3013 152.563 44.3013Z" fill="black"></path><path d="M155.448 42.2457H140.172C138.995 42.2457 138.041 43.1998 138.041 44.3767V59.652C138.041 60.8289 138.995 61.7829 140.172 61.7829H155.448C156.624 61.7829 157.578 60.8289 157.578 59.652V44.3767C157.578 43.1998 156.624 42.2457 155.448 42.2457Z" fill="#007CFF"></path><path opacity="0.1" d="M155.448 42.2457H140.172C138.995 42.2457 138.041 43.1998 138.041 44.3767V59.652C138.041 60.8289 138.995 61.7829 140.172 61.7829H155.448C156.624 61.7829 157.578 60.8289 157.578 59.652V44.3767C157.578 43.1998 156.624 42.2457 155.448 42.2457Z" fill="white"></path><path d="M153.263 47.2072C153.263 47.0368 153.195 46.8735 153.075 46.7531C152.954 46.6327 152.791 46.565 152.621 46.565H143.049C142.879 46.565 142.716 46.6327 142.595 46.7531C142.475 46.8735 142.407 47.0368 142.407 47.2072V49.313C142.407 49.4833 142.475 49.6466 142.595 49.7671C142.716 49.8875 142.879 49.9551 143.049 49.9551H152.621C152.791 49.9551 152.954 49.8875 153.075 49.7671C153.195 49.6466 153.263 49.4833 153.263 49.313V47.2072ZM150.102 48.348H149.553V47.7955H150.102V48.348ZM151.57 48.6242C151.46 48.627 151.351 48.5971 151.259 48.5381C151.166 48.4792 151.093 48.3939 151.049 48.2933C151.005 48.1926 150.992 48.0811 151.012 47.973C151.031 47.8649 151.083 47.7651 151.159 47.6864C151.236 47.6077 151.334 47.5537 151.442 47.5312C151.55 47.5087 151.661 47.5187 151.763 47.5601C151.865 47.6014 151.952 47.6722 152.013 47.7634C152.075 47.8545 152.108 47.9619 152.108 48.0717C152.108 48.2158 152.051 48.3542 151.951 48.4574C151.85 48.5606 151.714 48.6204 151.57 48.6242Z" fill="white"></path><path d="M153.263 50.9417C153.263 50.7714 153.195 50.608 153.075 50.4876C152.954 50.3672 152.791 50.2995 152.621 50.2995H143.049C142.882 50.3033 142.722 50.3726 142.604 50.4926C142.487 50.6126 142.421 50.7738 142.422 50.9417V53.0511C142.422 53.2214 142.489 53.3847 142.61 53.5052C142.73 53.6256 142.893 53.6932 143.064 53.6932H152.635C152.805 53.6932 152.969 53.6256 153.089 53.5052C153.209 53.3847 153.277 53.2214 153.277 53.0511L153.263 50.9417ZM150.102 52.2941H149.553V51.7453H150.102V52.2941ZM151.569 52.5704C151.46 52.5732 151.351 52.5433 151.259 52.4843C151.166 52.4254 151.093 52.3401 151.049 52.2395C151.005 52.1388 150.992 52.0273 151.012 51.9192C151.031 51.8111 151.083 51.7113 151.159 51.6326C151.236 51.5539 151.334 51.4999 151.442 51.4773C151.55 51.4548 151.661 51.4649 151.763 51.5063C151.865 51.5476 151.952 51.6184 152.013 51.7095C152.075 51.8007 152.108 51.908 152.108 52.0179C152.107 52.1614 152.05 52.2988 151.95 52.4013C151.849 52.5037 151.713 52.5631 151.569 52.5668V52.5704Z" fill="white"></path><path d="M153.263 54.669C153.263 54.4987 153.195 54.3354 153.075 54.215C152.954 54.0945 152.791 54.0269 152.621 54.0269H143.049C142.879 54.0269 142.716 54.0945 142.595 54.215C142.475 54.3354 142.407 54.4987 142.407 54.669V56.7785C142.407 56.9488 142.475 57.1121 142.595 57.2325C142.716 57.353 142.879 57.4206 143.049 57.4206H152.621C152.791 57.4206 152.954 57.353 153.075 57.2325C153.195 57.1121 153.263 56.9488 153.263 56.7785V54.669ZM150.102 56.2367H149.553V55.6843H150.102V56.2367ZM151.57 56.5094C151.46 56.5115 151.353 56.4811 151.261 56.4219C151.17 56.3628 151.098 56.2776 151.054 56.1773C151.011 56.077 150.999 55.9661 151.019 55.8589C151.04 55.7516 151.091 55.6528 151.168 55.5751C151.245 55.4974 151.343 55.4443 151.45 55.4227C151.557 55.401 151.668 55.4117 151.769 55.4535C151.87 55.4953 151.956 55.5661 152.016 55.6571C152.076 55.7481 152.108 55.8549 152.108 55.9641C152.107 56.1072 152.05 56.2443 151.949 56.3462C151.849 56.448 151.713 56.5066 151.57 56.5094Z" fill="white"></path><path opacity="0.2" d="M156.273 42.2457H140.997C139.82 42.2457 138.866 43.1998 138.866 44.3767V59.652C138.866 60.8289 139.82 61.7829 140.997 61.7829H156.273C157.45 61.7829 158.404 60.8289 158.404 59.652V44.3767C158.404 43.1998 157.45 42.2457 156.273 42.2457Z" fill="white"></path><path opacity="0.2" d="M119.372 62.3605H96.8933C95.1616 62.3605 93.7578 63.7643 93.7578 65.496V87.9749C93.7578 89.7065 95.1616 91.1103 96.8933 91.1103H119.372C121.104 91.1103 122.508 89.7065 122.508 87.9749V65.496C122.508 63.7643 121.104 62.3605 119.372 62.3605Z" fill="black"></path><path d="M121.962 60.3264H103.132C101.68 60.3264 100.502 61.5038 100.502 62.956V81.7865C100.502 83.2388 101.68 84.4161 103.132 84.4161H121.962C123.415 84.4161 124.592 83.2388 124.592 81.7865V62.956C124.592 61.5038 123.415 60.3264 121.962 60.3264Z" fill="#007CFF"></path><path opacity="0.5" d="M121.962 60.3264H103.132C101.68 60.3264 100.502 61.5038 100.502 62.956V81.7865C100.502 83.2388 101.68 84.4161 103.132 84.4161H121.962C123.415 84.4161 124.592 83.2388 124.592 81.7865V62.956C124.592 61.5038 123.415 60.3264 121.962 60.3264Z" fill="white"></path><path d="M105.883 78.9847C105.708 78.8101 105.569 78.6027 105.475 78.3743C105.38 78.1459 105.331 77.9011 105.331 77.6538C105.331 77.4065 105.38 77.1617 105.475 76.9333C105.569 76.7049 105.708 76.4975 105.883 76.3229L110.274 71.9282C110.475 71.7321 110.745 71.6223 111.026 71.6223C111.307 71.6223 111.577 71.7321 111.778 71.9282L112.94 73.0906C113.135 73.2914 113.244 73.5604 113.244 73.8403C113.244 74.1203 113.135 74.3893 112.94 74.5901L108.545 78.9847C108.371 79.1598 108.163 79.2987 107.935 79.3935C107.706 79.4883 107.462 79.537 107.214 79.537C106.967 79.537 106.722 79.4883 106.494 79.3935C106.265 79.2987 106.058 79.1598 105.883 78.9847Z" fill="white"></path><path d="M113.977 71.7524L113.116 70.8915L118.077 65.9264L119.157 65.7112L118.942 66.791L113.977 71.7524Z" fill="white"></path><path d="M113.492 72.904L111.964 71.3901C111.901 71.3234 111.865 71.2348 111.865 71.1426C111.865 71.0504 111.901 70.9618 111.964 70.8951C112.031 70.8325 112.119 70.7977 112.21 70.7977C112.301 70.7977 112.389 70.8325 112.456 70.8951L113.987 72.4233C114.051 72.49 114.087 72.5787 114.087 72.6708C114.087 72.763 114.051 72.8517 113.987 72.9184C113.919 72.9801 113.829 73.013 113.737 73.0103C113.645 73.0077 113.557 72.9696 113.492 72.904Z" fill="white"></path><path d="M111.433 69.9767L109.338 67.878C109.733 66.8305 108.94 65.539 108.082 65.1982V66.8161C108.081 66.9973 108.008 67.1705 107.88 67.2986C107.752 67.4267 107.578 67.4995 107.397 67.5013C107.308 67.5023 107.22 67.4857 107.137 67.4525C107.055 67.4193 106.979 67.3701 106.916 67.3078C106.852 67.2455 106.801 67.1713 106.766 67.0894C106.731 67.0075 106.713 66.9195 106.712 66.8305V65.2269C106.318 65.386 105.978 65.6542 105.732 65.9999C105.485 66.3456 105.342 66.7544 105.32 67.1784C105.329 67.677 105.517 68.1557 105.85 68.5272C106.182 68.8987 106.637 69.1381 107.132 69.2018C107.475 69.2541 107.827 69.2055 108.143 69.0619L110.253 71.1784L111.433 69.9767Z" fill="white"></path><path d="M118.404 77.9408V79.5444C118.797 79.3852 119.137 79.1171 119.384 78.7714C119.63 78.4257 119.773 78.0168 119.796 77.5928C119.799 77.0934 119.622 76.6095 119.298 76.2295C118.974 75.8494 118.524 75.5986 118.03 75.5229C117.705 75.4559 117.367 75.4897 117.062 75.6197L114.87 73.4206L113.668 74.6188L115.846 76.8C115.214 78.0879 116.204 79.1821 117.055 79.5229V77.93C117.055 77.7512 117.126 77.5796 117.252 77.4531C117.379 77.3267 117.55 77.2556 117.729 77.2556C117.909 77.2575 118.081 77.3306 118.208 77.459C118.334 77.5874 118.405 77.7606 118.404 77.9408Z" fill="white"></path><path opacity="0.2" d="M122.981 60.3264H104.151C102.698 60.3264 101.521 61.5038 101.521 62.956V81.7865C101.521 83.2388 102.698 84.4161 104.151 84.4161H122.981C124.433 84.4161 125.611 83.2388 125.611 81.7865V62.956C125.611 61.5038 124.433 60.3264 122.981 60.3264Z" fill="white"></path><path d="M117.213 55.9677H139.914C141.663 55.9677 143.082 54.5495 143.082 52.8V30.0987C143.082 28.3492 141.663 26.9309 139.914 26.9309L117.213 26.9309C115.463 26.9309 114.045 28.3492 114.045 30.0987V52.8C114.045 54.5495 115.463 55.9677 117.213 55.9677Z" fill="#007CFF"></path><path opacity="0.2" d="M138.217 31.5444H111.128C109.04 31.5444 107.347 33.2373 107.347 35.3255V62.4143C107.347 64.5026 109.04 66.1955 111.128 66.1955H138.217C140.305 66.1955 141.998 64.5026 141.998 62.4143V35.3255C141.998 33.2373 140.305 31.5444 138.217 31.5444Z" fill="black"></path><path opacity="0.5" d="M117.213 55.9677H139.914C141.663 55.9677 143.082 54.5495 143.082 52.8V30.0987C143.082 28.3492 141.663 26.9309 139.914 26.9309L117.213 26.9309C115.463 26.9309 114.045 28.3492 114.045 30.0987V52.8C114.045 54.5495 115.463 55.9677 117.213 55.9677Z" fill="white"></path><path d="M128.56 32.452L119.663 35.9426C119.663 35.9426 120.789 48.1399 128.56 50.4466C136.33 48.1542 137.453 35.9426 137.453 35.9426L128.56 32.452ZM128.33 44.2906C128.273 44.3666 128.2 44.4284 128.115 44.4714C128.03 44.5143 127.937 44.5371 127.842 44.5381C127.746 44.5364 127.652 44.5122 127.567 44.4673C127.483 44.4224 127.41 44.3582 127.354 44.2798L124.237 39.9749C124.182 39.9105 124.14 39.8354 124.116 39.7543C124.091 39.6732 124.083 39.5878 124.093 39.5036C124.103 39.4194 124.13 39.3381 124.173 39.265C124.216 39.1918 124.274 39.1284 124.342 39.0786C124.411 39.0288 124.489 38.9939 124.572 38.9759C124.655 38.9579 124.741 38.9573 124.824 38.9741C124.907 38.9909 124.986 39.0247 125.055 39.0735C125.124 39.1222 125.183 39.1849 125.227 39.2574L127.86 42.8807L132.165 37.2018C132.214 37.1373 132.275 37.0832 132.344 37.0423C132.414 37.0015 132.491 36.9748 132.571 36.9638C132.651 36.9528 132.732 36.9577 132.81 36.9782C132.888 36.9988 132.962 37.0345 133.026 37.0834C133.156 37.1897 133.241 37.3417 133.263 37.5083C133.285 37.675 133.243 37.8438 133.144 37.9802L128.33 44.2906Z" fill="white"></path><path opacity="0.2" d="M118.439 55.9677H141.141C142.89 55.9677 144.309 54.5495 144.309 52.8V30.0987C144.309 28.3492 142.89 26.9309 141.141 26.9309L118.439 26.9309C116.69 26.9309 115.272 28.3492 115.272 30.0987V52.8C115.272 54.5495 116.69 55.9677 118.439 55.9677Z" fill="white"></path></g><defs><linearGradient id="paint0_linear_161_667" x1="162.894" y1="262.737" x2="161.076" y2="-18.5284" gradientUnits="userSpaceOnUse"><stop stop-color="#C6E6FF"></stop><stop offset="1" stop-color="white"></stop></linearGradient><linearGradient id="paint1_linear_161_667" x1="153.937" y1="157.736" x2="153.937" y2="205.091" gradientUnits="userSpaceOnUse"><stop stop-color="#288ED9"></stop><stop offset="1" stop-color="#137FCF" stop-opacity="0.05"></stop></linearGradient><clipPath id="clip0_161_667"><rect width="300" height="219.735" fill="white"></rect></clipPath></defs></svg>