<?xml version="1.0" encoding="utf-8"?>
<!-- Generator: Adobe Illustrator 22.0.1, SVG Export Plug-In . SVG Version: 6.00 Build 0)  -->
<svg version="1.1" id="Layer_1" xmlns="http://www.w3.org/2000/svg" xmlns:xlink="http://www.w3.org/1999/xlink" x="0px" y="0px"
	 viewBox="0 0 60 60" enable-background="new 0 0 60 60" xml:space="preserve">
<g>
	<g id="Group_8508" transform="translate(-417.387 -1212.758)">
		<path fill="#288ED9" d="M462.9,1253.1c-0.7-1.2-2.1-1.8-3.5-1.6c-1.8,0.2-3.1,1.7-3.1,3.5c0.1,2,1.7,3.5,3.6,3.5
			c0.2,0,0.3,0,0.5-0.1c0.6-0.1,1-0.2,1.5-0.6C463.4,1256.9,463.9,1254.8,462.9,1253.1z M459.9,1256.8L459.9,1256.8
			c-1,0-1.9-0.8-1.9-1.8l0,0c0-0.9,0.8-1.8,1.8-1.8s1.8,0.8,1.8,1.8C461.6,1256,460.8,1256.8,459.9,1256.8z"/>
		<path fill="#288ED9" d="M442.9,1256.8c0.5,0.2,1,0.2,1.5,0.2c0.3,0,0.6,0,0.9-0.1c0.1-0.1,0.2-0.1,0.3-0.1
			c0.2-0.2,0.3-0.5,0.2-0.7c0-0.1-0.1-0.1-0.2-0.2c-0.2-0.2-0.4-0.2-0.6-0.3c-0.3-0.1-0.6-0.2-0.9-0.4c-0.7-0.3-1.2-1.1-1.1-1.9
			c0-0.8,0.6-1.5,1.3-1.8c0.6-0.2,1.2-0.2,1.7-0.2c0.3,0.1,0.7,0.1,1,0.2c0.1,0,0.2,0.1,0.2,0.2v1.2c0,0.1,0,0.2-0.2,0.1
			c-0.4-0.1-0.8-0.2-1.2-0.2c-0.2,0-0.5,0-0.7,0.1c-0.2,0.1-0.4,0.2-0.4,0.4s0.2,0.4,0.3,0.6c0.3,0.2,0.6,0.2,0.9,0.3
			c0.5,0.2,0.9,0.5,1.3,0.9c0.6,0.9,0.5,2.2-0.5,2.8c-0.1,0-0.1,0.1-0.2,0.1c-0.5,0.2-0.9,0.4-1.5,0.5c-0.7,0-1.3,0-2-0.2
			c-0.1,0-0.1,0-0.1-0.1C442.9,1257.8,442.9,1257.3,442.9,1256.8z"/>
		<path fill="#288ED9" d="M454.5,1256.5v1.7c0,0.1-0.1,0.1-0.1,0.1c-1.3,0.5-2.8,0.2-3.9-0.6c-0.7-0.6-1.2-1.4-1.3-2.4
			c-0.2-1.1,0.2-2.2,1.1-3c0.6-0.6,1.4-0.9,2.2-0.9c0.6,0,1.2,0,1.7,0.2c0.1,0.1,0.2,0.1,0.2,0.2v1.6c0,0.2,0,0.2-0.2,0.1
			c-0.6-0.3-1.3-0.4-2-0.2c-0.8,0.2-1.3,1.1-1.2,1.9c0.1,0.8,0.6,1.5,1.4,1.6c0.6,0.1,1.2,0,1.7-0.2
			C454.3,1256.5,454.4,1256.5,454.5,1256.5z"/>
		<path fill="#288ED9" d="M436.5,1256.5v1.7c0,0.1,0,0.1-0.1,0.1c-1.5,0.6-3.1,0.2-4.2-0.9c-0.6-0.7-0.9-1.7-0.9-2.6
			c0-0.9,0.5-1.8,1.2-2.4c0.6-0.5,1.3-0.8,2-0.8c0.6,0,1.2,0,1.8,0.2c0.1,0.1,0.2,0.1,0.2,0.2v1.6c0,0.2-0.1,0.2-0.2,0.1
			c-0.6-0.3-1.3-0.4-2-0.2c-0.9,0.3-1.4,1.3-1.1,2.3c0.2,0.6,0.8,1.1,1.4,1.2c0.6,0.1,1.2,0,1.7-0.2
			C436.4,1256.6,436.5,1256.5,436.5,1256.5L436.5,1256.5L436.5,1256.5z"/>
		<path fill="#288ED9" d="M438.8,1255v-3.2c0-0.2,0.1-0.2,0.2-0.2h1.4c0.1,0,0.2,0,0.2,0.2v6.5c0,0.1,0,0.2-0.1,0.2l0,0h-1.4
			c-0.2,0-0.2-0.1-0.2-0.2L438.8,1255L438.8,1255z"/>
		<path fill="#288ED9" d="M439.4,1242.8v-4.2c0-0.3,0.2-0.6,0.4-0.7s0.6-0.2,0.9,0.1c0.2,0.2,0.4,0.4,0.4,0.6v8.6
			c0,0.5-0.3,0.9-0.8,0.9c-0.5,0-0.9-0.3-0.9-0.8l0,0v-3.6C439.4,1243.2,439.4,1243,439.4,1242.8z"/>
		<path fill="#288ED9" d="M455.5,1242.8v4.2c0,0.4-0.2,0.7-0.6,0.8c-0.5,0.1-0.9-0.2-1-0.6c0-0.1,0-0.1,0-0.2v-8.6
			c0-0.4,0.2-0.7,0.6-0.9c0.4-0.2,0.9,0.1,1,0.6c0,0.1,0,0.2,0,0.2v1.8C455.6,1241.2,455.5,1242,455.5,1242.8z"/>
		<path fill="#288ED9" d="M457.5,1243.6v-2c0-0.3,0.2-0.6,0.6-0.8c0.3-0.1,0.7,0,0.9,0.2c0.2,0.2,0.2,0.3,0.2,0.5v3.9
			c0,0.4-0.3,0.8-0.7,0.9c-0.4,0.1-0.8-0.2-0.9-0.6c-0.1-0.1-0.1-0.2-0.1-0.3C457.5,1244.8,457.5,1244.2,457.5,1243.6L457.5,1243.6z
			"/>
		<path fill="#288ED9" d="M443,1243.6v-2c0-0.4,0.3-0.7,0.6-0.8c0.4-0.1,0.8,0.2,0.9,0.6c0,0.1,0.1,0.2,0.1,0.4v3.7
			c0.1,0.4-0.2,0.7-0.6,0.9c-0.4,0.2-0.9-0.1-1-0.5c0-0.1-0.1-0.2-0.1-0.3L443,1243.6z"/>
		<path fill="#288ED9" d="M437.4,1243.6v2c0,0.5-0.4,0.8-0.8,0.8c-0.2,0-0.3-0.1-0.5-0.2c-0.2-0.2-0.4-0.4-0.4-0.7v-3.9
			c0-0.5,0.3-0.8,0.8-0.8c0.2,0,0.3,0,0.4,0.1c0.2,0.2,0.4,0.4,0.4,0.7L437.4,1243.6L437.4,1243.6z"/>
		<path fill="#288ED9" d="M451.9,1243.6v2c0,0.5-0.3,0.8-0.8,0.8c-0.2,0-0.3-0.1-0.5-0.2c-0.2-0.2-0.4-0.4-0.4-0.6v-4
			c0-0.5,0.4-0.8,0.9-0.8c0.4,0,0.7,0.3,0.8,0.8V1243.6z"/>
		<path fill="#288ED9" d="M432.1,1244.7v-0.9c0-0.5,0.3-0.8,0.8-0.8l0,0c0.5,0,0.8,0.3,0.9,0.8v1.7c0,0.5-0.4,0.8-0.8,0.8
			c-0.4,0-0.8-0.4-0.8-0.8C432.1,1245.2,432.1,1244.9,432.1,1244.7z"/>
		<path fill="#288ED9" d="M462.8,1244.7v0.9c0,0.5-0.3,0.8-0.8,0.8l0,0c-0.5,0-0.8-0.4-0.9-0.8v-1.7c0-0.5,0.3-0.8,0.8-0.8l0,0
			c0.5,0,0.8,0.4,0.8,0.8l0,0C462.8,1244.1,462.8,1244.4,462.8,1244.7z"/>
		<path fill="#288ED9" d="M446.6,1244.7v-0.8c0-0.5,0.3-0.8,0.8-0.9c0.5,0,0.8,0.3,0.9,0.8v0.1v1.7c0,0.5-0.3,0.8-0.8,0.9
			c-0.5,0-0.8-0.3-0.9-0.8v-0.1V1244.7z"/>
		<path fill="#288ED9" d="M465.1,1263.5h-35.5c-6.8-0.1-12.3-5.7-12.2-12.4c0.1-5.7,4-10.6,9.6-11.9c-0.2-1.9,0.4-3.7,1.4-5.3
			c1.3-1.7,3.1-2.9,5.2-3.3c0.5-0.1,0.9-0.1,1.3-0.2l0,0c1.6,0,3.1,0.5,4.4,1.3c2.2-4.6,5.3-9.4,13.6-9.4c10.5,0,15.2,8.3,15.2,16.4
			c0,0.2,0,0.2,0,0.4c5.3,1.4,9.1,6.4,9.1,11.9C477.3,1257.9,471.8,1263.5,465.1,1263.5z M435,1232.1L435,1232.1
			c-0.4,0-0.7,0-1.1,0.1c-3.5,0.6-5.9,4-5.3,7.5l0.2,0.8l-0.8,0.2c-5.2,0.9-9,5.3-9,10.5c-0.1,5.9,4.7,10.8,10.7,10.8h35.5
			c5.9,0,10.7-4.8,10.7-10.8l0,0c0-5-3.6-9.5-8.6-10.5l-0.7-0.2l0.1-0.7c0-0.3,0-0.6,0-0.9c0-7.4-4.2-14.9-13.7-14.9
			c-7.8,0-10.4,4.4-12.5,9.3l-0.4,0.9l-0.8-0.7C438,1232.6,436.5,1232.1,435,1232.1z"/>
	</g>
</g>
</svg>
