<?xml version="1.0" encoding="utf-8"?>
<!-- Generator: Adobe Illustrator 22.0.1, SVG Export Plug-In . SVG Version: 6.00 Build 0)  -->
<svg version="1.1" id="Layer_1" xmlns="http://www.w3.org/2000/svg" xmlns:xlink="http://www.w3.org/1999/xlink" x="0px" y="0px"
	 viewBox="0 0 60 60" enable-background="new 0 0 60 60" xml:space="preserve">
<g>
	<g id="Group_7267" transform="translate(5134.701 -16433.445)">
		<g id="Path_6060">
			<path fill="#288ED9" d="M-5106.6,16490.3c-14.1,0-25.6-12.1-25.6-26.9s11.5-26.9,25.6-26.9s25.6,12.1,25.6,26.9c0,0.6-0.4,1-1,1
				s-1-0.4-1-1c0-13.7-10.6-24.9-23.6-24.9s-23.6,11.2-23.6,24.9s10.6,24.9,23.6,24.9c0.6,0,1,0.4,1,1S-5106,16490.3-5106.6,16490.3
				z"/>
		</g>
		<g id="Path_6061">
			<path fill="#288ED9" d="M-5081.8,16465.8c-0.3,0-0.5-0.1-0.7-0.3l-3.5-3.7c-0.4-0.4-0.4-1,0-1.4s1-0.4,1.4,0l2.8,3l2.8-3
				c0.4-0.4,1-0.4,1.4,0s0.4,1,0,1.4l-3.5,3.7C-5081.3,16465.7-5081.6,16465.8-5081.8,16465.8z"/>
		</g>
		<g id="Ellipse_1389">
			<ellipse fill="#D6EEFF" cx="-5106.6" cy="16462.9" rx="18.5" ry="19.4"/>
		</g>
		<g id="Path_6063">
			<path fill="#FFFFFF" d="M-5106.6,16456.9c3.6,0.1,6.4,3,6.3,6.6c0.1,3.6-2.7,6.5-6.3,6.6c-3.6-0.1-6.4-3-6.3-6.6
				C-5112.9,16459.9-5110.1,16457-5106.6,16456.9z"/>
		</g>
		<g id="Path_6064">
			<path fill="#288ED9" d="M-5096.1,16482.7h4.8c0.5,0,1-0.1,1.4-0.5s0.6-1,0.5-1.6v-3.7c0.1-0.6-0.1-1.2-0.5-1.6s-0.9-0.5-1.4-0.5
				h-5.6c-0.4,0-0.8,0.3-0.9,0.7v0.1c-0.1,0.4,0.3,0.8,0.7,0.9h0.1h5.8v4.3h-4.8c-1.3,0-1.9,0.7-1.9,2v5.8h7.5
				c0.4,0,0.8-0.3,0.9-0.7v-0.1c0.1-0.4-0.3-0.8-0.7-0.9h-0.1h-5.8V16482.7z M-5085.2,16482.5v-6.7c0.1-0.4-0.3-0.8-0.7-0.9h-0.1
				c-0.4,0-0.8,0.3-0.9,0.7v0.1v8.5h5v3.6c0,0.6,0.2,0.9,0.8,0.9s0.8-0.3,0.8-0.9v-3.6c0.4,0,0.8-0.3,0.9-0.7v-0.1
				c0.1-0.4-0.3-0.8-0.7-0.9h-0.1v-6.3c0.1-0.4-0.3-0.8-0.7-0.9h-0.1c-0.4,0-0.8,0.3-0.9,0.7v0.1v6.3h-3.3V16482.5z"/>
			<path fill="#288ED9" d="M-5090.2,16488.9C-5090.2,16488.9-5090.3,16488.9-5090.2,16488.9h-7.7v-6c0-1.4,0.7-2.2,2.1-2.2h4.6v-4
				h-5.7c0,0-0.1,0-0.2,0c-0.3,0-0.5-0.2-0.6-0.4c-0.2-0.2-0.2-0.4-0.2-0.7v-0.1c0-0.3,0.1-0.5,0.3-0.7c0.2-0.2,0.4-0.3,0.7-0.2h5.6
				c0.5,0,1.1,0.2,1.5,0.5c0.4,0.5,0.6,1.1,0.6,1.7v3.6c0.1,0.6-0.1,1.2-0.6,1.7c-0.4,0.4-0.9,0.6-1.5,0.5h-4.6v4h5.7
				c0.1,0,0.1,0,0.2,0c0.5,0.1,0.9,0.5,0.8,1.1v0.1C-5089.3,16488.6-5089.7,16488.9-5090.2,16488.9z M-5097.7,16488.6h7.4
				c0.4,0,0.7-0.2,0.7-0.6v-0.1c0-0.4-0.2-0.7-0.6-0.8h-0.1h-6v-4.6h4.9c0.5,0.1,0.9-0.1,1.3-0.5s0.6-0.9,0.5-1.5v-3.7
				c0.1-0.6-0.1-1.1-0.5-1.5c-0.3-0.3-0.8-0.5-1.3-0.5h-5.6c-0.2,0-0.4,0-0.5,0.2c-0.1,0.1-0.2,0.3-0.2,0.4v0.1c0,0.2,0,0.4,0.1,0.5
				s0.3,0.2,0.4,0.2h0.1h6v4.6h-4.9c-1.2,0-1.8,0.6-1.8,1.9v5.9H-5097.7z M-5081,16488.9c-0.7,0-1-0.4-1-1v-3.5h-5v-8.6
				c0,0,0-0.1,0-0.2c0-0.3,0.1-0.5,0.3-0.7c0.2-0.2,0.4-0.3,0.7-0.2c0,0,0.1,0,0.2,0c0.3,0,0.5,0.2,0.6,0.4s0.2,0.4,0.2,0.7v6.5h3
				v-6.1c0,0,0-0.1,0-0.2c0-0.3,0.1-0.5,0.3-0.7c0.2-0.2,0.4-0.3,0.7-0.2c0,0,0.1,0,0.2,0c0.5,0.1,0.9,0.5,0.8,1.1v6.1l0,0
				c0.3,0,0.5,0.2,0.6,0.4c0.2,0.2,0.2,0.4,0.2,0.7v0.1c0,0.5-0.4,0.8-0.9,0.9v3.5C-5080,16488.6-5080.4,16488.9-5081,16488.9z
				 M-5086.7,16484.1h5v3.8c0,0.5,0.2,0.7,0.7,0.7s0.7-0.2,0.7-0.7v-3.8h0.2c0.4,0,0.7-0.2,0.7-0.6v-0.1c0-0.2,0-0.4-0.1-0.5
				s-0.3-0.2-0.4-0.2h-0.1h-0.2v-6.4c0-0.2,0-0.4-0.1-0.5s-0.3-0.2-0.4-0.2h-0.1c-0.2,0-0.4,0-0.5,0.2c-0.1,0.1-0.2,0.3-0.2,0.4v0.1
				v6.4h-3.6v-6.8c0-0.2,0-0.4-0.1-0.5s-0.3-0.2-0.4-0.2h-0.1c-0.2,0-0.4,0-0.5,0.2c-0.1,0.1-0.2,0.3-0.2,0.4v0.1L-5086.7,16484.1z"
				/>
		</g>
		<g id="Path_6062">
			<path fill="#288ED9" d="M-5096.2,16464.4h-10.2c-0.3,0-0.5-0.1-0.7-0.3l-7.1-7.3c-0.4-0.4-0.4-1,0-1.4s1-0.4,1.4,0l6.8,7h9.7
				c0.6,0,1,0.4,1,1S-5095.7,16464.4-5096.2,16464.4z"/>
		</g>
		<g id="Line_657">
			<path fill="#288ED9" d="M-5106.4,16482.7c-0.6,0-1-0.4-1-1v-3.3c0-0.6,0.4-1,1-1s1,0.4,1,1v3.3
				C-5105.4,16482.2-5105.8,16482.7-5106.4,16482.7z"/>
		</g>
		<g id="Ellipse_1391">
			<circle fill="#FFFFFF" cx="-5106.5" cy="16463.5" r="2.7"/>
			<path fill="#288ED9" d="M-5106.5,16467.1c-2,0-3.7-1.6-3.7-3.7c0-2,1.6-3.7,3.7-3.7c2,0,3.6,1.6,3.6,3.7
				S-5104.5,16467.1-5106.5,16467.1z M-5106.5,16461.8c-0.9,0-1.7,0.7-1.7,1.7s0.7,1.7,1.7,1.7c0.9,0,1.6-0.7,1.6-1.7
				S-5105.6,16461.8-5106.5,16461.8z"/>
		</g>
		<g id="Line_658">
			<path fill="#288ED9" d="M-5106.4,16449.2c-0.6,0-1-0.4-1-1v-3.3c0-0.6,0.4-1,1-1s1,0.4,1,1v3.3
				C-5105.4,16448.8-5105.8,16449.2-5106.4,16449.2z"/>
		</g>
		<g id="Group_7268" transform="translate(8.064 26.911)">
			<g id="Line_659">
				<path fill="#288ED9" d="M-5129,16437.4h-3.2c-0.6,0-1-0.4-1-1s0.4-1,1-1h3.2c0.6,0,1,0.4,1,1S-5128.5,16437.4-5129,16437.4z"/>
			</g>
			<g id="Line_660">
				<path fill="#288ED9" d="M-5097.3,16437.4h-3.1c-0.6,0-1-0.4-1-1s0.4-1,1-1h3.1c0.6,0,1,0.4,1,1S-5096.8,16437.4-5097.3,16437.4z
					"/>
			</g>
		</g>
	</g>
</g>
</svg>
