<?xml version="1.0" encoding="utf-8"?>
<!-- Generator: Adobe Illustrator 22.0.1, SVG Export Plug-In . SVG Version: 6.00 Build 0)  -->
<svg version="1.1" id="Layer_1" xmlns="http://www.w3.org/2000/svg" xmlns:xlink="http://www.w3.org/1999/xlink" x="0px" y="0px"
	 viewBox="0 0 60 60" enable-background="new 0 0 60 60" xml:space="preserve">
<g>
	<g id="Group_7079" transform="translate(-42 -17917)">
		<g id="Rectangle_3014" transform="translate(826 1435)">
			<g>
				<path fill="#FFFFFF" d="M-781.5,16489.8h48.8c1.4,0,2.4,1.1,2.4,2.4v34.2c0,1.4-1.1,2.4-2.4,2.4h-48.8c-1.4,0-2.4-1.1-2.4-2.4
					v-34.2C-784,16490.9-782.9,16489.8-781.5,16489.8z"/>
			</g>
			<g>
				<path fill="#288ED9" d="M-732.7,16528.9h-48.8c-1.4,0-2.4-1.1-2.4-2.4v-34.2c0-1.4,1.1-2.4,2.4-2.4h48.8c1.4,0,2.4,1.1,2.4,2.4
					v34.2C-730.3,16527.8-731.3,16528.9-732.7,16528.9z M-781.5,16491.4c-0.5,0-0.8,0.3-0.8,0.8v34.2c0,0.5,0.3,0.8,0.8,0.8h48.8
					c0.5,0,0.8-0.3,0.8-0.8v-34.2c0-0.5-0.3-0.8-0.8-0.8H-781.5z"/>
			</g>
		</g>
		<g id="Group_7050" transform="translate(-6.328 302)">
			<g id="Group_7052">
				<g id="Path_4920">
					<rect x="48.3" y="17630.3" fill="#288ED9" width="52.9" height="1.6"/>
				</g>
				<g id="Rectangle_2327">
					<rect x="53.5" y="17635.4" fill="#D6EEFF" width="8.5" height="21.9"/>
				</g>
				<g id="Ellipse_1153">
					<circle fill="#288ED9" cx="53" cy="17627.4" r="0.9"/>
				</g>
				<g id="Ellipse_1154">
					<circle fill="#288ED9" cx="55.7" cy="17627.4" r="0.9"/>
				</g>
				<g id="Ellipse_1155">
					<circle fill="#288ED9" cx="58.5" cy="17627.4" r="0.9"/>
				</g>
				<g id="Rectangle_2328">
					<rect x="65" y="17635.4" fill="#D6EEFF" width="31.8" height="5.9"/>
				</g>
				<g id="Rectangle_2329">
					<rect x="65" y="17645.5" fill="#D6EEFF" width="31.8" height="11.6"/>
				</g>
			</g>
		</g>
		<g id="Group_7051" transform="translate(819.443 1474.415)">
			<g id="mobileme-logo-of-black-cloud" transform="translate(38.955 -13)">
				<g id="MobileMe">
					<path fill="#FFFFFF" d="M-757.1,16500.7c0,3.6-2.8,6.5-6.4,6.5h-20c-3.6,0-6.5-2.9-6.4-6.5c0-3.2,2.3-5.9,5.5-6.3
						c-0.4-2.3,1.1-4.4,3.3-4.7c0.2,0,0.5-0.1,0.7-0.1c1,0,1.9,0.3,2.7,1c1.3-2.8,2.9-5.5,7.5-5.5c5.5,0,8.1,4.3,8.1,8.9
						c0,0.2,0,0.4,0,0.6C-759.2,16494.9-757.1,16497.6-757.1,16500.7z"/>
					<path fill="#137FCF" d="M-763.6,16508h-20c-2,0-3.8-0.8-5.1-2.2c-1.4-1.4-2.1-3.3-2.1-5.2c0-3.3,2.3-6.2,5.4-7
						c0-2.4,1.7-4.5,4.1-4.9c0.2-0.1,0.6-0.1,0.8-0.1c0.8,0,1.6,0.2,2.3,0.6c1.3-2.6,3.2-5.1,7.8-5.1c6.2,0,9,4.8,9,9.6
						c3,1,5.1,3.7,5.1,7C-756.3,16504.7-759.6,16507.9-763.6,16508z M-780.5,16490.2c-0.2,0-0.3,0-0.6,0.1c-1.8,0.3-3,2-2.7,3.8
						l0.2,0.8l-0.8,0.2c-2.8,0.5-4.7,2.8-4.7,5.5c0,1.5,0.6,2.9,1.6,4.1c1.1,1.1,2.5,1.7,4,1.7h19.9c3.1,0,5.6-2.5,5.6-5.7l0,0
						c0-2.7-1.9-5-4.5-5.5l-0.7-0.2l0.1-0.7c0-0.2,0-0.3,0-0.5c0-3.7-2-8.1-7.3-8.1c-4.2,0-5.5,2.4-6.8,5l-0.4,1l-0.8-0.7
						C-779,16490.5-779.8,16490.2-780.5,16490.2z"/>
				</g>
			</g>
		</g>
	</g>
</g>
</svg>
