<?xml version="1.0" encoding="utf-8"?>
<!-- Generator: Adobe Illustrator 21.0.0, SVG Export Plug-In . SVG Version: 6.00 Build 0)  -->
<svg version="1.1" id="Layer_1" xmlns="http://www.w3.org/2000/svg" xmlns:xlink="http://www.w3.org/1999/xlink" x="0px" y="0px"
	 viewBox="0 0 26.9 18" enable-background="new 0 0 26.9 18" xml:space="preserve">
<path fill="#FFFFFF" d="M2,0h18.5c1.1,0,2,0.9,2,2v13.3c0,1.1-0.9,2-2,2H2c-1.1,0-2-0.9-2-2V2C0,0.9,0.9,0,2,0z"/>
<path  d="M20.5,17.3H2c-1.1,0-2-0.9-2-2V2c0-1.1,0.9-2,2-2h18.5c1.1,0,2,0.9,2,2v13.3C22.5,16.4,21.6,17.3,20.5,17.3z
	 M2,1C1.4,1,1,1.4,1,2v13.3c0,0.6,0.4,1,1,1h18.5c0.6,0,1-0.4,1-1V2c0-0.6-0.4-1-1-1H2z"/>
<path fill="#FFFFFF" d="M2,0h18.5c1.1,0,2,0.9,2,2v4.9l0,0H0l0,0V2C0,0.9,0.9,0,2,0z"/>
<path  d="M21.5,6.9H1c-0.6,0-1-0.4-1-1V2c0-1.1,0.9-2,2-2h18.5c1.1,0,2,0.9,2,2v3.9C22.5,6.5,22,6.9,21.5,6.9z M2,1
	C1.4,1,1,1.4,1,2v3.9h20.5V2c0-0.6-0.4-1-1-1H2z"/>
<rect x="8.2" y="3.4"  width="11.2" height="1"/>
<path  d="M3.5,2.6L3.5,2.6c0.5,0,0.9,0.4,0.9,0.9l0,0c0,0.5-0.4,0.9-0.9,0.9l0,0C3,4.3,2.6,3.9,2.6,3.5l0,0
	C2.6,3,3,2.6,3.5,2.6z"/>
<path  d="M6,2.6L6,2.6c0.5,0,0.9,0.4,0.9,0.9l0,0c0,0.5-0.4,0.9-0.9,0.9l0,0c-0.5,0-0.9-0.4-0.9-0.9l0,0
	C5.2,3,5.6,2.6,6,2.6z"/>
<path fill="#FFFFFF" d="M26.4,14.1c-0.1,1.9-1.7,3.5-3.6,3.4H11.6C9.7,17.5,8.1,16,8,14.1c0-1.7,1.3-3.1,3-3.3c0-0.1,0-0.2,0-0.4
	c0-1.2,1.1-2.2,2.3-2.1c0.5,0,1.1,0.2,1.5,0.5c0.7-1.5,1.6-2.9,4.2-2.9c2.4-0.1,4.4,1.7,4.6,4.1c0,0.2,0,0.3,0,0.5
	c0,0.1,0,0.2,0,0.3C25.2,11,26.4,12.4,26.4,14.1z"/>
<path  d="M11.5,18c-2.1,0-3.9-1.7-4-3.9c0-1.8,1.3-3.3,3-3.8c0.1-1.5,1.3-2.6,2.8-2.6c0.4,0,0.9,0.1,1.3,0.3
	c0.7-1.4,1.8-2.7,4.4-2.7c1.3-0.1,2.5,0.4,3.5,1.2c1,0.9,1.5,2.1,1.6,3.3c0,0.1,0,0.3,0,0.4c1.6,0.5,2.8,2,2.9,3.7v0
	c-0.1,2.2-1.9,3.9-4,3.9c0,0-0.1,0-0.1,0H11.6C11.6,18,11.5,18,11.5,18z M13.3,8.7c-0.9,0-1.7,0.7-1.7,1.7c0,0.1,0,0.2,0,0.3
	l0.1,0.5l-0.5,0.1c-1.4,0.2-2.6,1.4-2.6,2.9C8.6,15.7,10,17,11.6,17h11.2c1.7,0,3.1-1.2,3.1-2.9c0-1.4-1.1-2.6-2.5-2.8L23,11.2
	l0.1-0.5c0-0.1,0-0.2,0-0.2c0-0.2,0-0.3,0-0.5c-0.1-1-0.5-2-1.3-2.7s-1.7-1-2.8-1c-2.3,0-3.1,1.2-3.8,2.6L15,9.5l-0.5-0.4
	C14.2,8.8,13.7,8.7,13.3,8.7C13.3,8.7,13.3,8.7,13.3,8.7z"/>
</svg>
