<?xml version="1.0" encoding="utf-8"?>
<!-- Generator: Adobe Illustrator 22.0.1, SVG Export Plug-In . SVG Version: 6.00 Build 0)  -->
<svg version="1.1" id="Layer_1" xmlns="http://www.w3.org/2000/svg" xmlns:xlink="http://www.w3.org/1999/xlink" x="0px" y="0px"
	 viewBox="0 0 60 60" enable-background="new 0 0 60 60" xml:space="preserve">
<g>
	<g id="Group_5481" transform="translate(-11349 -18465.501)">
		<g id="Rectangle_2304">
			<path fill="#FFFFFF" d="M11362.8,18478.4h32c0.6,0,1,0.4,1,1v32c0,0.6-0.4,1-1,1h-32c-0.6,0-1-0.4-1-1v-32
				C11361.8,18478.8,11362.3,18478.4,11362.8,18478.4z"/>
			<path fill="#288ED9" d="M11394.8,18513.4h-32c-1.1,0-2-0.9-2-2v-32c0-1.1,0.9-2,2-2h32c1.1,0,2,0.9,2,2v32
				C11396.8,18512.5,11396,18513.4,11394.8,18513.4z M11362.8,18479.4L11362.8,18479.4v32h32v-32H11362.8z"/>
		</g>
		<g id="Rectangle_2305">
			<path fill="#D6EEFF" d="M11372.3,18487.8h13c0.6,0,1,0.4,1,1v13c0,0.6-0.4,1-1,1h-13c-0.6,0-1-0.4-1-1v-13
				C11371.3,18488.2,11371.6,18487.8,11372.3,18487.8z"/>
			<path fill="#288ED9" d="M11385.3,18503.8h-13c-1.1,0-2-0.9-2-2v-13c0-1.1,0.9-2,2-2h13c1.1,0,2,0.9,2,2v13
				C11387.3,18502.9,11386.3,18503.8,11385.3,18503.8z M11372.3,18488.8L11372.3,18488.8v13h13v-13H11372.3z"/>
		</g>
		<g id="Line_250">
			<rect x="11368" y="18472.1" fill="#288ED9" width="2" height="6.7"/>
		</g>
		<g id="Line_251">
			<rect x="11374.6" y="18472.1" fill="#288ED9" width="2" height="6.7"/>
		</g>
		<g id="Line_252">
			<rect x="11381.3" y="18472.1" fill="#288ED9" width="2" height="6.7"/>
		</g>
		<g id="Line_253">
			<rect x="11388" y="18472.1" fill="#288ED9" width="2" height="6.7"/>
		</g>
		<g id="Line_254">
			<rect x="11368" y="18512.3" fill="#288ED9" width="2" height="6.7"/>
		</g>
		<g id="Line_255">
			<rect x="11374.6" y="18512.3" fill="#288ED9" width="2" height="6.7"/>
		</g>
		<g id="Line_256">
			<rect x="11381.3" y="18512.3" fill="#288ED9" width="2" height="6.7"/>
		</g>
		<g id="Line_257">
			<rect x="11388" y="18512.3" fill="#288ED9" width="2" height="6.7"/>
		</g>
		<g id="Line_259">
			<rect x="11355.5" y="18504.6" fill="#288ED9" width="6.7" height="2"/>
		</g>
		<g id="Line_260">
			<rect x="11355.5" y="18497.9" fill="#288ED9" width="6.7" height="2"/>
		</g>
		<g id="Line_261">
			<rect x="11355.5" y="18491.2" fill="#288ED9" width="6.7" height="2"/>
		</g>
		<g id="Line_262">
			<rect x="11355.5" y="18484.5" fill="#288ED9" width="6.7" height="2"/>
		</g>
		<g id="Line_264">
			<rect x="11395.8" y="18504.6" fill="#288ED9" width="6.7" height="2"/>
		</g>
		<g id="Line_265">
			<rect x="11395.8" y="18497.9" fill="#288ED9" width="6.7" height="2"/>
		</g>
		<g id="Line_266">
			<rect x="11395.8" y="18491.2" fill="#288ED9" width="6.7" height="2"/>
		</g>
		<g id="Line_267">
			<rect x="11395.8" y="18484.5" fill="#288ED9" width="6.7" height="2"/>
		</g>
	</g>
</g>
</svg>
