<?xml version="1.0" encoding="utf-8"?>
<!-- Generator: Adobe Illustrator 21.0.0, SVG Export Plug-In . SVG Version: 6.00 Build 0)  -->
<svg version="1.1" id="Layer_1" xmlns="http://www.w3.org/2000/svg" xmlns:xlink="http://www.w3.org/1999/xlink" x="0px" y="0px"
	 viewBox="0 0 24 24" enable-background="new 0 0 24 24" xml:space="preserve">
<path  d="M13.7,8.5h-4c-0.8,0-1.5,0.7-1.5,1.5v4c0,0.8,0.7,1.5,1.5,1.5h4c0.8,0,1.5-0.7,1.5-1.5v-4
	C15.2,9.2,14.6,8.5,13.7,8.5z M14.2,14c0,0.3-0.2,0.5-0.5,0.5h-4c-0.3,0-0.5-0.2-0.5-0.5v-4c0-0.3,0.2-0.5,0.5-0.5h4
	c0.3,0,0.5,0.2,0.5,0.5V14z"/>
<path  d="M24,8.1v-1h-3.5V5.2c0-0.8-0.7-1.5-1.5-1.5h-2V0h-1v3.7h-3.4V0h-1v3.7H8.1V0h-1v3.7H5
	c-0.8,0-1.5,0.7-1.5,1.5v1.9H0v1h3.5v3.4H0v1h3.5v3.4H0v1h3.5v2.3c0,0.8,0.7,1.5,1.5,1.5h2.1V24h1v-3.3h3.4V24h1v-3.3h3.4V24h1v-3.3
	h2c0.8,0,1.5-0.7,1.5-1.5v-2.3H24v-1h-3.5v-3.4H24v-1h-3.5V8.1H24z M19.5,19.2c0,0.3-0.2,0.5-0.5,0.5H5c-0.3,0-0.5-0.2-0.5-0.5v-14
	c0-0.3,0.2-0.5,0.5-0.5h14c0.3,0,0.5,0.2,0.5,0.5V19.2z"/>
</svg>
