<?xml version="1.0" encoding="utf-8"?>
<!-- Generator: Adobe Illustrator 22.0.1, SVG Export Plug-In . SVG Version: 6.00 Build 0)  -->
<svg version="1.1" id="Layer_1" xmlns="http://www.w3.org/2000/svg" xmlns:xlink="http://www.w3.org/1999/xlink" x="0px" y="0px"
	 viewBox="0 0 60 60" enable-background="new 0 0 60 60" xml:space="preserve">
<g>
	<g id="Group_8502" transform="translate(-1112.793 -1383.926)">
		<path fill="#288ED9" d="M1141.1,1443.7l-0.3-0.1c-15.8-4.5-23.8-15.6-23.8-33.1V1394c-0.1-0.7,0.1-0.8,5.9-3.1l10.4-4
			c4-1.6,7.2-2.8,7.4-2.9l0.4-0.1l20.9,8.2c3.2,1.3,3.3,1.3,3.2,2c0,1.1,0,11.1,0,16.5c0,17.5-8,28.6-23.8,33.1H1141.1z
			 M1119,1394.6v15.9c0,16.6,7.2,26.8,22.1,31.1c14.6-4.2,22.1-14.7,22.1-31.1c0-4.8,0-13.5,0-15.9c-3-1.2-16.1-6.3-20.7-8.1
			l-1.4-0.6c-1,0.4-3.8,1.5-7.1,2.8C1128.5,1390.9,1121.1,1393.8,1119,1394.6z"/>
		<path fill="#D6EEFF" d="M1141.1,1385.9c-0.4,0.2-22.3,8.7-22.3,8.7v16c0,11.1,3.1,25.6,22.3,31c19.1-5.4,22.3-20.2,22.3-31
			c0-5.5,0-16,0-16S1141.7,1386.1,1141.1,1385.9z M1158.6,1410.7c0,8.9-1.8,21.5-17.6,25.9c-15.8-4.4-17.6-16.8-17.6-25.9v-13.1
			c0,0.1,17.2-6.7,17.6-6.8c0.5,0.2,17.6,7.2,17.6,7.2C1158.7,1398,1158.7,1406.3,1158.6,1410.7z"/>
		<path fill="#288ED9" d="M1126.7,1418.5v-9.2h2.7c0.8,0,1.5,0.2,2.2,0.5c0.6,0.4,1.1,0.9,1.5,1.5c0.4,0.7,0.5,1.5,0.5,2.3v0.5
			c0,0.8-0.2,1.6-0.5,2.3c-0.3,0.6-0.8,1.2-1.5,1.5c-0.7,0.4-1.4,0.6-2.2,0.5L1126.7,1418.5L1126.7,1418.5z M1128.3,1410.6v6.6h1
			c0.7,0,1.4-0.2,1.9-0.8c0.5-0.6,0.7-1.4,0.7-2.3v-0.5c0.1-0.8-0.2-1.6-0.7-2.3c-0.5-0.5-1.2-0.8-1.9-0.8L1128.3,1410.6z
			 M1135.1,1418.5v-9.2h2.7c0.8,0,1.5,0.2,2.2,0.5c0.6,0.4,1.1,0.9,1.5,1.5c0.4,0.7,0.5,1.5,0.5,2.3v0.5c0,0.8-0.2,1.6-0.5,2.3
			c-0.3,0.6-0.8,1.2-1.5,1.5c-0.7,0.4-1.4,0.6-2.2,0.5L1135.1,1418.5L1135.1,1418.5z M1136.7,1410.6v6.6h1c0.7,0,1.4-0.2,1.9-0.8
			c0.5-0.6,0.7-1.4,0.7-2.3v-0.5c0.1-0.8-0.2-1.6-0.7-2.3c-0.5-0.5-1.2-0.8-1.9-0.8L1136.7,1410.6z M1143.1,1415.1
			c0-0.6,0.1-1.2,0.4-1.8c0.2-0.5,0.6-0.9,1.1-1.2c0.5-0.3,1.1-0.4,1.7-0.4c0.8,0,1.7,0.3,2.2,0.9c0.6,0.6,0.9,1.5,0.9,2.4v0.4
			c0,0.6-0.1,1.2-0.4,1.8c-0.2,0.5-0.6,0.9-1.1,1.2c-0.5,0.3-1.1,0.4-1.7,0.4c-0.9,0-1.7-0.3-2.3-1
			C1143.4,1417,1143.1,1416.1,1143.1,1415.1L1143.1,1415.1z M1144.7,1415.2c0,0.6,0.1,1.2,0.4,1.7c0.3,0.4,0.7,0.6,1.2,0.6
			s0.9-0.2,1.2-0.6c0.3-0.5,0.5-1.2,0.4-1.8c0-0.6-0.1-1.2-0.4-1.6s-0.7-0.6-1.2-0.6s-0.9,0.2-1.2,0.6
			C1144.8,1413.9,1144.6,1414.6,1144.7,1415.2L1144.7,1415.2z M1154.6,1416.7c0-0.3-0.1-0.5-0.3-0.6c-0.4-0.2-0.7-0.3-1.1-0.4
			s-0.9-0.2-1.3-0.4c-0.7-0.2-1.1-0.9-1.2-1.6c0-0.6,0.3-1.1,0.7-1.5c0.5-0.4,1.2-0.6,1.9-0.6c0.7,0,1.4,0.2,2,0.6
			c0.5,0.4,0.8,1,0.8,1.6h-1.5c0-0.3-0.1-0.6-0.3-0.7c-0.2-0.2-0.6-0.3-0.9-0.3s-0.6,0.1-0.8,0.2c-0.2,0.1-0.3,0.4-0.3,0.6
			s0.1,0.4,0.3,0.5c0.4,0.2,0.8,0.3,1.2,0.4c0.5,0.1,1,0.3,1.4,0.5c0.3,0.2,0.6,0.4,0.8,0.7c0.2,0.3,0.3,0.6,0.2,0.9
			c0,0.6-0.3,1.2-0.8,1.5c-0.6,0.4-1.3,0.6-2,0.6c-0.5,0-1-0.1-1.5-0.3c-0.4-0.2-0.8-0.5-1-0.8s-0.4-0.7-0.4-1.1h1.5
			c0,0.3,0.2,0.6,0.4,0.8c0.3,0.2,0.6,0.3,1,0.3c0.3,0,0.6-0.1,0.9-0.2C1154.5,1417.1,1154.6,1416.9,1154.6,1416.7L1154.6,1416.7z"
			/>
	</g>
</g>
</svg>
