<?xml version="1.0" encoding="utf-8"?>
<!-- Generator: Adobe Illustrator 22.0.1, SVG Export Plug-In . SVG Version: 6.00 Build 0)  -->
<svg version="1.1" id="Layer_1" xmlns="http://www.w3.org/2000/svg" xmlns:xlink="http://www.w3.org/1999/xlink" x="0px" y="0px"
	 viewBox="0 0 60 60" enable-background="new 0 0 60 60" xml:space="preserve">
<g>
	<g id="Group_6183" transform="translate(-5658 -17869)">
		<g id="Group_6181" transform="translate(-208.998 816)">
			<g id="Group_5544" transform="translate(504.998 318.002)">
				<g id="Path_4934">
					<path fill="#FFFFFF" d="M5409.6,16754.4c0,9.6-17.3,30.6-17.3,30.6s-17.3-21-17.3-30.6s7.8-17.3,17.3-17.3
						C5401.8,16737.1,5409.6,16744.9,5409.6,16754.4z"/>
					<path fill="#137FCF" d="M5392.2,16786.4l-0.8-0.9c-0.8-0.9-17.6-21.4-17.6-31.2c0-10.1,8.2-18.3,18.3-18.3s18.3,8.2,18.3,18.3
						c0,9.8-16.9,30.3-17.6,31.2L5392.2,16786.4z M5392.2,16738c-9.1,0-16.4,7.3-16.4,16.4c0,8,13.2,25,16.4,29.1
						c3.2-4.1,16.4-21,16.4-29.1C5408.7,16745.4,5401.2,16738,5392.2,16738z"/>
				</g>
				<g id="Ellipse_1173" transform="translate(7.429 7.745)">
					<g>
						<ellipse fill="#D6EEFF" cx="5384.3" cy="16746.5" rx="9.8" ry="9.8"/>
					</g>
					<g>
						<path fill="#137FCF" d="M5384.3,16756.4c-5.4,0-9.8-4.4-9.8-9.8c0-5.4,4.4-9.8,9.8-9.8c5.4,0,9.8,4.4,9.8,9.8
							C5394.1,16752.1,5389.7,16756.4,5384.3,16756.4z M5384.3,16738.6c-4.4,0-7.9,3.5-7.9,7.9s3.5,7.9,7.9,7.9s7.9-3.5,7.9-7.9
							S5388.7,16738.6,5384.3,16738.6z"/>
					</g>
				</g>
			</g>
		</g>
		<g id="Group_6182" transform="translate(-49 -2039)">
			<g id="Group_5383" transform="translate(20 661)">
				<g id="Group_5297" transform="translate(-6 -9)">
					<g id="Rectangle_2216">
						<path fill="#FFFFFF" d="M5702,19303.4h41.9c1,0,1.9,0.9,1.9,1.9v7.6c0,1-0.9,1.9-1.9,1.9H5702c-1,0-1.9-0.9-1.9-1.9v-7.6
							C5700.1,19304.3,5701,19303.4,5702,19303.4z"/>
					</g>
					<g id="Rectangle_2219">
						<path fill="#D6EEFF" d="M5702,19303.4h17.3l0,0v11.4l0,0H5702c-1,0-1.9-0.9-1.9-1.9v-7.6
							C5700.1,19304.3,5701,19303.4,5702,19303.4z"/>
					</g>
					<g id="Rectangle_2225" transform="translate(325 2568.578)">
						<g>
							<path fill="none" d="M5377,16734.8h41.9c1,0,1.9,0.9,1.9,1.9v7.6c0,1-0.9,1.9-1.9,1.9H5377c-1,0-1.9-0.9-1.9-1.9v-7.6
								C5375.1,16735.7,5376,16734.8,5377,16734.8z"/>
						</g>
						<g>
							<path fill="#137FCF" d="M5419,16746.3H5377c-1,0-1.9-0.9-1.9-1.9v-7.6c0-1,0.9-1.9,1.9-1.9h41.9c1,0,1.9,0.9,1.9,1.9v7.6
								C5420.9,16745.4,5420,16746.3,5419,16746.3z M5377,16736.8L5377,16736.8v7.6h41.9v-7.6H5377z"/>
						</g>
					</g>
					<g id="Ellipse_1064">
						<circle fill="#137FCF" cx="5739.7" cy="19309.2" r="1.4"/>
					</g>
					<g id="Ellipse_1065">
						<circle fill="#137FCF" cx="5734.9" cy="19309.2" r="1.4"/>
					</g>
				</g>
			</g>
		</g>
	</g>
</g>
</svg>
