<?xml version="1.0" encoding="utf-8"?>
<!-- Generator: Adobe Illustrator 22.0.1, SVG Export Plug-In . SVG Version: 6.00 Build 0)  -->
<svg version="1.1" id="Layer_1" xmlns="http://www.w3.org/2000/svg" xmlns:xlink="http://www.w3.org/1999/xlink" x="0px" y="0px"
	 viewBox="0 0 60 60" enable-background="new 0 0 60 60" xml:space="preserve">
<g>
	<g id="Group_8732" transform="translate(-355 -1017)">
		<g id="Rectangle_3617" transform="translate(362.378 1017)">
			<path fill="#D6EEFF" d="M6.6,3.4h38.3c0.5,0,1,0.4,1,1v25.2c0,0.5-0.4,1-1,1H6.6c-0.5,0-1-0.4-1-1V4.3C5.6,3.8,6,3.4,6.6,3.4z"/>
			<rect x="6.6" y="4.3" fill="none" stroke="#288ED9" stroke-width="2" width="38.3" height="25.2"/>
		</g>
		<g id="Group_8729" transform="translate(356 1024.289)">
			<path id="Path_6506" fill="#FFFFFF" stroke="#288ED9" stroke-width="2" stroke-linejoin="round" d="M22.3,7.8l-2.8-4.7H5.9v28.3
				h39.8V7.8H22.3z"/>
			<g id="Group_8707" transform="translate(3.721 33.254)">
				
					<line id="Line_730" fill="none" stroke="#288ED9" stroke-width="2" stroke-linejoin="round" x1="22.2" y1="1.7" x2="22.2" y2="13.1"/>
				
					<line id="Line_731" fill="none" stroke="#288ED9" stroke-width="2" stroke-linejoin="round" x1="10.5" y1="13" x2="34.2" y2="13"/>
				<g id="Ellipse_1586" transform="translate(29.764 9.203)">
					<circle fill="none" cx="6.8" cy="3.6" r="2.3"/>
					<circle fill="none" stroke="#288ED9" stroke-width="2" stroke-linejoin="round" cx="6.8" cy="3.6" r="3.3"/>
				</g>
				<g id="Ellipse_1587" transform="translate(0 9.203)">
					<circle fill="none" cx="8" cy="3.6" r="2.3"/>
					<circle fill="none" stroke="#288ED9" stroke-width="2" stroke-linejoin="round" cx="8" cy="3.6" r="3.3"/>
				</g>
			</g>
		</g>
	</g>
</g>
</svg>
