<?xml version="1.0" encoding="utf-8"?>
<!-- Generator: Adobe Illustrator 22.0.1, SVG Export Plug-In . SVG Version: 6.00 Build 0)  -->
<svg version="1.1" id="Layer_1" xmlns="http://www.w3.org/2000/svg" xmlns:xlink="http://www.w3.org/1999/xlink" x="0px" y="0px"
	 viewBox="0 0 60 60" enable-background="new 0 0 60 60" xml:space="preserve">
<g>
	<g id="Group_8730" transform="translate(-1173 -1132)">
		<g id="Rectangle_3616" transform="translate(1173 1132)">
			<path fill="#D6EEFF" d="M6.8,4.9h38.5c1.1,0,2,0.9,2,2v38.5c0,1.1-0.9,2-2,2H6.8c-1.1,0-2-0.9-2-2V6.8C4.9,5.8,5.8,4.9,6.8,4.9z"
				/>
			<path fill="none" stroke="#288ED9" stroke-width="2" d="M6.8,5.9h38.5c0.5,0,1,0.4,1,1v38.5c0,0.5-0.4,1-1,1H6.8
				c-0.5,0-1-0.4-1-1V6.8C5.9,6.3,6.3,5.9,6.8,5.9z"/>
		</g>
		<g id="Group_8728" transform="translate(1180.928 1139.928)">
			<g id="Group_8703" transform="translate(0 0)">
				<path id="Path_6504" fill="#FFFFFF" stroke="#288ED9" stroke-width="2" stroke-linecap="round" stroke-linejoin="round" d="
					M45.5,4.8H33.1c-1.4,3.9-5.6,6-9.6,4.7c-2.2-0.8-3.9-2.5-4.7-4.7H6.5C5.6,4.7,4.8,5.4,4.8,6.3c0,0.1,0,0.1,0,0.2v39
					c-0.1,0.9,0.6,1.6,1.5,1.7c0.1,0,0.1,0,0.2,0h39c0.9,0.1,1.6-0.6,1.7-1.5c0-0.1,0-0.1,0-0.2v-39c0.1-0.9-0.6-1.6-1.5-1.7
					C45.6,4.8,45.6,4.8,45.5,4.8z"/>
			</g>
			<g id="Group_8704" transform="translate(6.205 13.384)">
				<path id="Path_6505" fill="none" stroke="#288ED9" stroke-width="2" stroke-linejoin="round" d="M4.7,11.6l7.1-7.1l7.1,7.1"/>
				<line id="Line_729" fill="none" stroke="#288ED9" stroke-width="2" x1="11.7" y1="5.6" x2="11.7" y2="23.1"/>
			</g>
			<g id="Group_8705" transform="translate(36.716 34.021) rotate(180)">
				<path id="Path_6505-2" fill="none" stroke="#288ED9" stroke-width="2" stroke-linejoin="round" d="M-4.2,2.8l7.1-7.1l7.1,7.1"/>
				<line id="Line_729-2" fill="none" stroke="#288ED9" stroke-width="2" x1="2.9" y1="-3.2" x2="2.9" y2="14.3"/>
			</g>
		</g>
	</g>
</g>
</svg>
