<?xml version="1.0" encoding="utf-8"?>
<!-- Generator: Adobe Illustrator 22.0.1, SVG Export Plug-In . SVG Version: 6.00 Build 0)  -->
<svg version="1.1" id="Layer_1" xmlns="http://www.w3.org/2000/svg" xmlns:xlink="http://www.w3.org/1999/xlink" x="0px" y="0px"
	 viewBox="0 0 60 60" enable-background="new 0 0 60 60" xml:space="preserve">
<g>
	<g id="Group_8731" transform="translate(-1242 -493.556)">
		<g id="Group_8695" transform="translate(1243 493.556)">
			<path id="Path_6502" fill="#D6EEFF" stroke="#288ED9" stroke-width="2" d="M4.5,24.9h35.8c0.9,0,1.6,0.7,1.6,1.6v24.4
				c0,0.9-0.7,1.6-1.6,1.6c0,0,0,0,0,0H4.5c-0.9,0-1.6-0.7-1.6-1.6v0V26.5C2.9,25.6,3.6,24.9,4.5,24.9z"/>
			<path id="Path_6500" fill="none" stroke="#288ED9" stroke-width="2" d="M7.7,31.6l14.6,10.3l14.9-10.3"/>
			<g id="Group_8694" transform="translate(24.031 0)">
				<g id="Ellipse_1584" transform="translate(0 0)">
					<circle fill="#FFFFFF" cx="15.9" cy="24.4" r="16.9"/>
					<circle fill="none" stroke="#288ED9" stroke-width="2" cx="15.9" cy="24.4" r="16"/>
				</g>
			</g>
		</g>
		<g id="Group_8696" transform="translate(1276.382 502.246)">
			
				<ellipse id="Ellipse_1585" transform="matrix(0.1959 -0.9806 0.9806 0.1959 -10.5961 17.8308)" fill="none" stroke="#288ED9" stroke-width="2" stroke-miterlimit="10" cx="5.6" cy="15.4" rx="4.7" ry="3.7"/>
			<path id="Path_6501" fill="none" stroke="#288ED9" stroke-width="2" stroke-miterlimit="10" d="M10.6,10.3L9,17.8
				c-0.3,1.4,2.4,3.7,4.1,2.3c5.4-5.8,0.9-11,0.1-11.7c-3.9-3.4-9.9-3-13.3,0.9s-3,9.9,0.9,13.3C2.5,24.2,4.7,25,7,25
				c1.3,0,2.5-0.3,3.7-0.8"/>
		</g>
	</g>
</g>
</svg>
