<?xml version="1.0" encoding="utf-8"?>
<!-- Generator: Adobe Illustrator 22.0.1, SVG Export Plug-In . SVG Version: 6.00 Build 0)  -->
<svg version="1.1" id="Layer_1" xmlns="http://www.w3.org/2000/svg" xmlns:xlink="http://www.w3.org/1999/xlink" x="0px" y="0px"
	 viewBox="0 0 60 60" enable-background="new 0 0 60 60" xml:space="preserve">
<g>
	<g id="Group_8169" transform="translate(-0.011 -0.012)">
		<path id="Path_6236" fill="#D6EEFF" stroke="#288ED9" stroke-width="2.178" stroke-linecap="round" stroke-miterlimit="10" d="
			M45.7,50H7.9c-0.6,0-1.1-0.5-1.1-1.1V5.1C6.8,4.5,7.3,4,7.9,4h37.8c0.6,0,1.1,0.5,1.1,1.1v43.8C46.8,49.5,46.3,50,45.7,50z"/>
		<path id="Path_6237" fill="#FFFFFF" stroke="#288ED9" stroke-width="2" stroke-miterlimit="10" d="M14.3,10h26.4
			c0.3,0,0.5,0.1,0.7,0.3L53,21.7c0.2,0.2,0.3,0.4,0.3,0.7V55c0,0.5-0.4,1-0.9,1c0,0-0.1,0-0.1,0h-38c-0.5,0-1-0.4-1-0.9
			c0,0,0-0.1,0-0.1V11c0-0.5,0.4-1,0.9-1C14.2,10,14.2,10,14.3,10z"/>
		<g id="Group_8168">
			
				<line id="Line_698" fill="none" stroke="#288ED9" stroke-width="2" stroke-linecap="round" stroke-miterlimit="10" x1="21.3" y1="21" x2="31.3" y2="21"/>
			
				<line id="Line_699" fill="none" stroke="#288ED9" stroke-width="2" stroke-linecap="round" stroke-miterlimit="10" x1="21.3" y1="29" x2="45.3" y2="29"/>
			
				<line id="Line_700" fill="none" stroke="#288ED9" stroke-width="2" stroke-linecap="round" stroke-miterlimit="10" x1="21.3" y1="37" x2="45.3" y2="37"/>
			
				<line id="Line_701" fill="none" stroke="#288ED9" stroke-width="2" stroke-linecap="round" stroke-miterlimit="10" x1="21.3" y1="45" x2="45.3" y2="45"/>
		</g>
		
			<path id="Path_6238" fill="#D6EEFF" stroke="#288ED9" stroke-width="2" stroke-linecap="round" stroke-linejoin="round" stroke-miterlimit="10" d="
			M41.3,10.2L41.3,10.2v10.3c0,0.5,0.4,1,0.9,1c0,0,0.1,0,0.1,0h10.5L41.3,10.2z"/>
	</g>
</g>
</svg>
