<?xml version="1.0" encoding="utf-8"?>
<!-- Generator: Adobe Illustrator 22.0.1, SVG Export Plug-In . SVG Version: 6.00 Build 0)  -->
<svg version="1.1" id="Layer_1" xmlns="http://www.w3.org/2000/svg" xmlns:xlink="http://www.w3.org/1999/xlink" x="0px" y="0px"
	 viewBox="0 0 60 60" enable-background="new 0 0 60 60" xml:space="preserve">
<g>
	<g id="Group_7080" transform="translate(-50 -17914)">
		<g id="firewall" transform="translate(284.022 1436.497)">
			<g id="Rectangle_3015">
				<rect x="-233" y="16500.3" fill="#D6EEFF" width="16.7" height="10.4"/>
				<path fill="#288ED9" d="M-215.4,16511.6h-18.5v-12.2h18.5V16511.6z M-232,16509.8h14.8v-8.5H-232V16509.8z"/>
			</g>
			<g id="Rectangle_3016">
				<rect x="-216.3" y="16500.3" fill="#FFFFFF" width="16.7" height="10.4"/>
				<path fill="#288ED9" d="M-198.7,16511.6h-18.5v-12.2h18.5V16511.6z M-215.4,16509.8h14.8v-8.5h-14.8V16509.8z"/>
			</g>
			<g id="Rectangle_3017">
				<rect x="-199.6" y="16500.3" fill="#D6EEFF" width="17.6" height="10.4"/>
				<path fill="#288ED9" d="M-181.1,16511.6h-19.4v-12.2h19.4V16511.6z M-198.7,16509.8h15.8v-8.5h-15.8V16509.8z"/>
			</g>
			<g id="Rectangle_3018">
				<rect x="-225.1" y="16510.7" fill="#D6EEFF" width="16.7" height="10.4"/>
				<path fill="#288ED9" d="M-207.5,16522H-226v-12.2h18.5V16522z M-224.2,16520.1h14.8v-8.5h-14.8V16520.1z"/>
			</g>
			<g id="Rectangle_3019">
				<rect x="-233" y="16510.7" fill="#FFFFFF" width="8.8" height="10.4"/>
				<path fill="#288ED9" d="M-223.2,16522h-10.6v-12.2h10.6V16522z M-232,16520.1h7v-8.5h-7V16520.1z"/>
			</g>
			<g id="Rectangle_3020">
				<rect x="-191.6" y="16510.7" fill="#D6EEFF" width="9.7" height="10.4"/>
				<path fill="#288ED9" d="M-181.1,16522h-11.5v-12.2h11.5V16522z M-190.7,16520.1h7.9v-8.5h-7.9V16520.1z"/>
			</g>
			<g id="Rectangle_3021">
				<rect x="-208.4" y="16510.7" fill="#FFFFFF" width="16.7" height="10.4"/>
				<path fill="#288ED9" d="M-190.7,16522h-18.5v-12.2h18.5V16522z M-207.5,16520.1h14.8v-8.5h-14.8V16520.1z"/>
			</g>
			<g id="Rectangle_3022">
				<rect x="-224.2" y="16490" fill="#D6EEFF" width="16.7" height="10.4"/>
				<path fill="#288ED9" d="M-206.6,16501.3h-18.5v-12.2h18.5V16501.3z M-223.2,16499.4h14.8v-8.5h-14.8V16499.4z"/>
			</g>
			<g id="Path_5970">
				<path fill="#FFFFFF" d="M-224.2,16500.3h-8.8v-8.8c0-0.9,0.8-1.6,1.7-1.6h7.1L-224.2,16500.3L-224.2,16500.3z"/>
				<path fill="#288ED9" d="M-223.2,16501.3h-10.6v-9.7c0.1-1.5,1.3-2.6,2.7-2.5h8L-223.2,16501.3L-223.2,16501.3z M-232,16499.4h7
					v-8.5h-6.1c-0.5,0-0.8,0.3-0.8,0.6L-232,16499.4z"/>
			</g>
			<g id="Path_5971">
				<path fill="#D6EEFF" d="M-182,16500.3h-8.8v-10.4h7.1c0.9,0,1.6,0.6,1.7,1.6L-182,16500.3L-182,16500.3z"/>
				<path fill="#288ED9" d="M-181.1,16501.3h-10.6v-12.2h8c1.4-0.1,2.6,1,2.7,2.5L-181.1,16501.3z M-189.9,16499.4h7v-7.9
					c0-0.4-0.4-0.6-0.7-0.6h-6.2V16499.4z"/>
			</g>
			<g id="Rectangle_3023">
				<rect x="-207.5" y="16490" fill="#FFFFFF" width="16.7" height="10.4"/>
				<path fill="#288ED9" d="M-189.9,16501.3h-18.5v-12.2h18.5V16501.3z M-206.6,16499.4h14.8v-8.5h-14.8V16499.4z"/>
			</g>
			<g id="Path_5972">
				<path fill="#D6EEFF" d="M-217.2,16531.4h-14.2c-0.9,0-1.6-0.6-1.6-1.6v-8.8h15.8V16531.4z"/>
				<path fill="#288ED9" d="M-231.4,16532.3c-1.4,0-2.5-1.1-2.5-2.5v-9.7h17.7v12.2L-231.4,16532.3L-231.4,16532.3z M-232,16522v7.9
					c0,0.4,0.4,0.6,0.7,0.6h13.3v-8.5L-232,16522L-232,16522z"/>
			</g>
			<g id="Rectangle_3024">
				<rect x="-217.2" y="16521" fill="#FFFFFF" width="16.7" height="10.4"/>
				<path fill="#288ED9" d="M-199.5,16532.3H-218v-12.2h18.5V16532.3z M-216.3,16530.5h14.8v-8.5h-14.8V16530.5z"/>
			</g>
			<g id="Path_5973">
				<path fill="#D6EEFF" d="M-183.8,16531.4h-16.7v-10.4h18.4v8.8C-182.1,16530.7-182.8,16531.5-183.8,16531.4z"/>
				<path fill="#288ED9" d="M-183.7,16532.3c-0.1,0-0.1,0-0.2,0h-17.6v-12.2h20.2v9.7C-181.2,16531.3-182.4,16532.3-183.7,16532.3z
					 M-199.5,16530.5h15.8c0.5,0,0.8-0.3,0.8-0.7v-7.8h-16.6L-199.5,16530.5L-199.5,16530.5z"/>
			</g>
		</g>
		<g id="Group_7057" transform="translate(0.982 -13.906)">
			<g id="fire" transform="translate(319 1446.47)">
				<g id="Group_7055" transform="translate(0 0)">
					<g id="Path_5974">
						<path fill="#FFFFFF" d="M-211.1,16506.7c-0.4-4.9-2.7-8-4.9-10.6c-1.9-2.5-3.7-4.7-3.7-7.9c0-0.3-0.2-0.5-0.4-0.6
							c-0.3-0.1-0.5-0.1-0.7,0.1c-3.2,2.2-5.6,5.5-6.8,9.3c-0.5,2.3-0.7,4.6-0.7,6.9c-2.9-0.6-3.6-4.8-3.6-4.8
							c0-0.2-0.2-0.4-0.4-0.5c-0.2-0.1-0.5-0.1-0.6,0c-0.2,0.1-3.8,1.8-4,8.8c0,0.3,0,0.5,0,0.7c0,6.8,5.8,12.3,12.9,12.3l0,0l0,0
							c7.1,0,12.9-5.5,12.9-12.3C-211.1,16507.6-211.1,16506.7-211.1,16506.7z"/>
						<path fill="#288ED9" d="M-224,16521.2L-224,16521.2c-7.7,0-13.9-6-13.9-13.2c0-0.3,0-0.5,0-0.7c0.2-7.3,4.1-9.3,4.5-9.5
							c0.5-0.2,1-0.2,1.5,0c0.5,0.2,0.8,0.6,0.8,1.2c0,0,0.4,2.4,1.8,3.5c0.1-1.9,0.3-3.8,0.7-5.7c1.2-4,3.8-7.4,7.1-9.8
							c0.5-0.4,1.1-0.4,1.6-0.1s0.9,0.8,0.9,1.4c0,2.8,1.6,4.9,3.5,7.2c2.2,2.8,4.7,6,5.1,11.1l0,0c0,0,0.1,1,0.1,1.4
							C-210.1,16515.2-216.3,16521.1-224,16521.2L-224,16521.2z M-232.8,16499.5c-0.7,0.5-3.1,2.4-3.2,7.9c0,0.3,0,0.5,0,0.6
							c0,6.2,5.4,11.4,12,11.4l0,0c6.6,0,12-5.1,12-11.4c0-0.3-0.1-1.2-0.1-1.2l0,0c-0.4-4.6-2.7-7.5-4.7-10.2
							c-1.9-2.4-3.7-4.8-3.8-8c-2.9,2.1-5,5.1-6.1,8.5c-0.5,2.1-0.7,4.4-0.7,6.6v1.1l-1.1-0.2
							C-231.5,16504.1-232.5,16500.5-232.8,16499.5z"/>
					</g>
				</g>
			</g>
			<g id="fire-2" transform="translate(325.761 1458.9)">
				<g id="Group_7056" transform="translate(0 0)">
					<g id="Path_5975">
						<path fill="#D6EEFF" d="M-231.1,16503.5c-3.6,0-6.4-2.8-6.4-6.4c0-0.1,0-0.3,0-0.4c0-1.1,0.2-2.2,0.6-3.2
							c0.5,1.5,1.9,2.4,3.5,2.4c0.5,0,1-0.5,1.1-1l0,0c-0.1-1.6,0.1-3,0.4-4.6c0.4-1.5,1.1-2.7,2.1-3.8c0.5,1.4,1.3,2.7,2.2,3.8
							c1.6,1.7,2.5,3.9,2.7,6.2c0,0.2,0,0.4,0,0.5C-224.7,16500.6-227.6,16503.5-231.1,16503.5z"/>
					</g>
				</g>
			</g>
		</g>
	</g>
</g>
</svg>
