<?xml version="1.0" encoding="utf-8"?>
<!-- Generator: Adobe Illustrator 22.0.1, SVG Export Plug-In . SVG Version: 6.00 Build 0)  -->
<svg version="1.1" id="Layer_1" xmlns="http://www.w3.org/2000/svg" xmlns:xlink="http://www.w3.org/1999/xlink" x="0px" y="0px"
	 viewBox="0 0 60 60" enable-background="new 0 0 60 60" xml:space="preserve">
<g>
	<g id="Group_7587" transform="translate(-8144 -17866)">
		<g id="Group_5533" transform="translate(2.832 -2)">
			<g id="diskette" transform="translate(556.168 1106)">
				<g id="Path_4913">
					<path fill="#FFFFFF" d="M7636.8,16776.6l-6.7-6.9c-0.4-0.4-1-0.7-1.5-0.7h-32.9c-1.2,0-2.2,1-2.2,2.2v40.5c0,1.2,1,2.2,2.2,2.2
						h39.6c1.2,0,2.2-1,2.2-2.2v-33.7C7637.4,16777.6,7637.2,16777.1,7636.8,16776.6z"/>
					<path fill="#288ED9" d="M7595.6,16815.1c-1.8,0-3.2-1.5-3.2-3.2v-40.5c0-1.8,1.4-3.2,3.2-3.2h32.9c0.8,0,1.7,0.4,2.3,1l6.7,6.9
						c0.6,0.6,0.9,1.4,0.9,2.3v33.7c0,1.8-1.4,3.2-3.2,3.2h-39.6V16815.1z M7628.5,16770.1h-32.9c-0.7,0-1.2,0.6-1.2,1.2v40.5
						c0,0.7,0.5,1.2,1.2,1.2h39.6c0.7,0,1.2-0.6,1.2-1.2v-33.7c0-0.3-0.1-0.6-0.4-0.9l-6.7-6.9
						C7629.1,16770.2,7628.8,16770.1,7628.5,16770.1z"/>
				</g>
				<g id="Path_4914">
					<path fill="#D6EEFF" d="M7629.8,16789.3h-28.7c-1.1,0-1.9,0.9-1.9,1.9v15.4c0,1.1,0.8,1.9,1.9,1.9h28.7c1.1,0,1.9-0.9,1.9-1.9
						v-15.4C7631.7,16790.2,7630.8,16789.3,7629.8,16789.3z"/>
				</g>
				<g id="Group_5508" transform="translate(9.052 0)">
					<g id="Rectangle_2313">
						<rect x="7593.4" y="16793" fill="#288ED9" width="25.9" height="1.7"/>
					</g>
					<g id="Rectangle_2314">
						<rect x="7593.4" y="16798.1" fill="#288ED9" width="25.9" height="1.7"/>
					</g>
					<g id="Rectangle_2315">
						<rect x="7593.4" y="16803.3" fill="#288ED9" width="25.9" height="1.7"/>
					</g>
					<g id="Path_4915">
						<path fill="#D6EEFF" d="M7593.8,16769.1v10.4c0,1,0.8,1.8,1.8,1.8h21.8c1,0,1.8-0.8,1.8-1.8v-10.4H7593.8z"/>
						<path fill="#288ED9" d="M7595.5,16782.2c-1.5,0-2.7-1.2-2.8-2.7v-11.4h27.4v11.4c0,1.6-1.3,2.8-2.8,2.8h-21.8
							C7595.6,16782.2,7595.6,16782.2,7595.5,16782.2z M7594.8,16770.1v9.4c0,0.4,0.4,0.8,0.8,0.8h21.8c0.5,0,0.8-0.3,0.8-0.8v-9.3
							L7594.8,16770.1L7594.8,16770.1z"/>
					</g>
				</g>
				<g id="Rectangle_2316">
					<rect x="7622.8" y="16772.8" fill="#288ED9" width="1.7" height="5.2"/>
				</g>
			</g>
		</g>
	</g>
</g>
</svg>
