<?xml version="1.0" encoding="utf-8"?>
<!-- Generator: Adobe Illustrator 22.0.1, SVG Export Plug-In . SVG Version: 6.00 Build 0)  -->
<svg version="1.1" id="Layer_1" xmlns="http://www.w3.org/2000/svg" xmlns:xlink="http://www.w3.org/1999/xlink" x="0px" y="0px"
	 viewBox="0 0 60 60" enable-background="new 0 0 60 60" xml:space="preserve">
<g>
	<g id="Group_8727" transform="translate(-1322.399 -460.189)">
		<g id="Group_8699" transform="translate(1323.399 461.189)">
			<g id="mobileme-logo-of-black-cloud" transform="translate(0 0)">
				<g id="Group_8700" transform="translate(0 0)">
					<path id="MobileMe" fill="#D6EEFF" stroke="#288ED9" stroke-width="2" d="M48.6,32.4c0,5.1-4.1,9.3-9.2,9.3H10.8
						c-5.1,0-9.3-4.2-9.2-9.4c0-4.5,3.3-8.4,7.8-9.1c-0.6-3.2,1.6-6.2,4.8-6.8c0.3-0.1,0.7-0.1,1-0.1c1.4,0,2.7,0.5,3.8,1.4
						c1.8-4.1,4.2-7.9,10.7-7.9c7.9,0,11.7,6.1,11.7,12.6c0,0.3,0,0.5,0,0.8C45.6,24.2,48.6,28,48.6,32.4z"/>
				</g>
			</g>
		</g>
		<g id="Group_8697" transform="translate(1355.222 467.933)">
			<g id="Group_5450_1_" transform="translate(0 0)">
				<g id="Group_7059" transform="translate(0 0)">
					<path id="Subtraction_68_2_" fill="#FFFFFF" stroke="#288ED9" stroke-width="2" d="M16.7,23c4.9,2.3,7.9,7.2,7.9,12.5
						c0,4-7.3,5.9-13.9,5.9s-13.9-1.8-13.9-5.9c0-5.3,3.1-10.2,7.9-12.5"/>
					<g id="Ellipse_875_1_" transform="translate(6.383)">
						<ellipse id="Ellipse_1359" fill="none" cx="4.3" cy="17.4" rx="8.6" ry="8.6"/>
						<ellipse id="Ellipse_1360" fill="#FFFFFF" stroke="#288ED9" stroke-width="2" cx="4.3" cy="17.4" rx="7.7" ry="7.7"/>
					</g>
				</g>
			</g>
		</g>
	</g>
</g>
</svg>
