<?xml version="1.0" encoding="utf-8"?>
<!-- Generator: Adobe Illustrator 22.0.1, SVG Export Plug-In . SVG Version: 6.00 Build 0)  -->
<svg version="1.1" id="Layer_1" xmlns="http://www.w3.org/2000/svg" xmlns:xlink="http://www.w3.org/1999/xlink" x="0px" y="0px"
	 viewBox="0 0 60 60" enable-background="new 0 0 60 60" xml:space="preserve">
<g>
	<g id="gamepad" transform="translate(5683 -16501.781)">
		<g id="Path_6051">
			<path fill="#288ED9" d="M-5652.9,16524c-0.5,0-0.9-0.5-0.9-0.9v-3.3c0-3.6,2.8-6.4,6.4-6.4h6.2c2.5,0,4.5-2,4.5-4.5
				c0-0.5,0.4-0.9,0.9-1c0.5-0.1,0.9,0.4,1,0.9c0,0,0,0,0,0.1c0,3.6-2.8,6.4-6.4,6.4h-6.2c-2.5,0-4.5,2-4.5,4.5v3.3
				C-5652,16523.6-5652.5,16524-5652.9,16524z"/>
		</g>
		<g id="Path_6052">
			<path fill="#D6EEFF" d="M-5644.9,16527.1v-2.9c0-1.2-0.9-2.1-2.1-2.1h-11.8c-1.2,0-2.1,0.9-2.1,2.1v2.9H-5644.9z"/>
			<path fill="#288ED9" d="M-5644,16528.1h-17.7v-3.8c0-1.6,1.4-3,3-3h11.8c1.6,0,3,1.4,3,3L-5644,16528.1L-5644,16528.1z
				 M-5659.8,16526.2h14v-2c0-0.6-0.5-1.2-1.2-1.2h-11.8c-0.6,0-1.2,0.5-1.2,1.2L-5659.8,16526.2L-5659.8,16526.2z"/>
		</g>
		<g id="Path_6053">
			<path fill="#FFFFFF" d="M-5637.1,16526.4h-32.1l0,0c-7.1,0-12.8,6.3-12.8,14.1s5.7,14.1,12.8,14.1c2.1,0,4.2-0.5,6-1.6l0,0
				c6-4.3,14-4.3,19.9,0l0,0c1.8,1.1,3.9,1.6,6,1.6c7.1,0,12.8-6.3,12.8-14.1C-5624.2,16532.7-5630,16526.4-5637.1,16526.4z"/>
			<path fill="#288ED9" d="M-5637.1,16555.6c-2.3,0-4.6-0.6-6.5-1.8c-5.7-4.1-13.3-4.1-18.9,0c-2,1.2-4.3,1.8-6.6,1.8
				c-7.6,0-13.8-6.7-13.8-15s6.2-15,13.8-15h32.1c7.6,0,13.8,6.7,13.8,15C-5623.3,16548.8-5629.5,16555.6-5637.1,16555.6z
				 M-5653.1,16548.9c3.6,0,7.4,1.1,10.6,3.4c1.6,0.9,3.6,1.5,5.5,1.5c6.6,0,11.9-5.9,11.9-13.2s-5.4-13.2-11.9-13.2h-32.1
				c-6.6,0-11.9,5.9-11.9,13.2s5.4,13.2,11.9,13.2c1.9,0,3.9-0.5,5.6-1.5C-5660.5,16550-5656.8,16548.9-5653.1,16548.9z"/>
		</g>
		<g id="Group_7264" transform="translate(26.098 92.556)">
			<g id="Path_6054">
				<path fill="#D6EEFF" d="M-5671.9,16441h-3.3c-0.5,0-1-0.5-1-1s0.5-1,1-1h3.3c0.5,0,1,0.5,1,1S-5671.4,16441-5671.9,16441
					L-5671.9,16441z"/>
			</g>
			<g id="Path_6055">
				<path fill="#D6EEFF" d="M-5682.7,16441h-3.3c-0.5,0-1-0.5-1-1s0.5-1,1-1l0,0h3.3c0.5,0,1,0.5,1,1S-5682.1,16441-5682.7,16441z"
					/>
			</g>
		</g>
		<g id="Group_7265" transform="translate(0 1.103)">
			<g id="Ellipse_1382">
				<circle fill="#D6EEFF" cx="-5636.7" cy="16534.1" r="2.6"/>
				<path fill="#288ED9" d="M-5636.7,16537.5c-1.9,0-3.5-1.5-3.5-3.5c0-1.9,1.5-3.5,3.5-3.5s3.5,1.5,3.5,3.5
					C-5633.3,16536-5634.8,16537.5-5636.7,16537.5z M-5636.7,16532.5c-0.9,0-1.6,0.7-1.6,1.6c0,0.9,0.7,1.6,1.6,1.6
					c0.9,0,1.6-0.7,1.6-1.6C-5635.1,16533.2-5635.8,16532.5-5636.7,16532.5z"/>
			</g>
			<g id="Ellipse_1383">
				<circle fill="#D6EEFF" cx="-5642" cy="16539.4" r="2.6"/>
				<path fill="#288ED9" d="M-5642,16542.8c-1.9,0-3.5-1.5-3.5-3.5c0-1.9,1.5-3.5,3.5-3.5c1.9,0,3.5,1.5,3.5,3.5
					C-5638.6,16541.3-5640.2,16542.8-5642,16542.8z M-5642,16537.8c-0.9,0-1.6,0.7-1.6,1.6c0,0.9,0.7,1.6,1.6,1.6
					c0.9,0,1.6-0.7,1.6-1.6C-5640.4,16538.5-5641.2,16537.8-5642,16537.8z"/>
			</g>
			<g id="Ellipse_1384">
				<circle fill="#D6EEFF" cx="-5636.7" cy="16544.7" r="2.6"/>
				<path fill="#288ED9" d="M-5636.7,16548.1c-1.9,0-3.5-1.5-3.5-3.5c0-1.9,1.5-3.5,3.5-3.5s3.5,1.5,3.5,3.5
					C-5633.3,16546.6-5634.8,16548.1-5636.7,16548.1z M-5636.7,16543.1c-0.9,0-1.6,0.7-1.6,1.6c0,0.9,0.7,1.6,1.6,1.6
					c0.9,0,1.6-0.7,1.6-1.6C-5635.1,16543.8-5635.8,16543.1-5636.7,16543.1z"/>
			</g>
			<g id="Ellipse_1385">
				<circle fill="#D6EEFF" cx="-5631.4" cy="16539.4" r="2.6"/>
				<path fill="#288ED9" d="M-5631.4,16542.8c-1.9,0-3.5-1.5-3.5-3.5c0-1.9,1.5-3.5,3.5-3.5c1.9,0,3.5,1.5,3.5,3.5
					C-5628,16541.3-5629.5,16542.8-5631.4,16542.8z M-5631.4,16537.8c-0.9,0-1.6,0.7-1.6,1.6c0,0.9,0.7,1.6,1.6,1.6
					c0.9,0,1.6-0.7,1.6-1.6C-5629.8,16538.5-5630.5,16537.8-5631.4,16537.8z"/>
			</g>
		</g>
		<g id="Path_6056">
			<path fill="#D6EEFF" d="M-5672.4,16543.9v3.3c0,0.6,0.5,1.2,1.2,1.2h2.6c0.6,0,1.2-0.5,1.2-1.2v-3.3h3.3c0.6,0,1.2-0.5,1.2-1.2
				v-2.6c0-0.6-0.5-1.2-1.2-1.2h-3.3v-3.3c0-0.6-0.5-1.2-1.2-1.2h-2.6c-0.6,0-1.2,0.5-1.2,1.2v3.3h-3.3c-0.6,0-1.2,0.5-1.2,1.2v2.6
				c0,0.6,0.5,1.2,1.2,1.2H-5672.4z"/>
			<path fill="#288ED9" d="M-5668.7,16549.3h-2.6c-1.2,0-2.1-1-2.1-2.1v-2.4h-2.4c-1.2,0-2.1-1-2.1-2.1v-2.6c0-1.2,1-2.1,2.1-2.1
				h2.4v-2.4c0-1.2,1-2.1,2.1-2.1h2.6c1.2,0,2.1,1,2.1,2.1v2.4h2.4c1.2,0,2.1,1,2.1,2.1v2.6c0,1.2-1,2.1-2.1,2.1h-2.4v2.4
				C-5666.5,16548.3-5667.5,16549.3-5668.7,16549.3z M-5671.5,16543v4.2c0,0.2,0.2,0.3,0.3,0.3h2.6c0.2,0,0.3-0.2,0.3-0.3v-4.2h4.2
				c0.2,0,0.3-0.2,0.3-0.3v-2.6c0-0.2-0.2-0.3-0.3-0.3h-4.2v-4.2c0-0.2-0.2-0.3-0.3-0.3h-2.6c-0.2,0-0.3,0.2-0.3,0.3v4.2h-4.2
				c-0.2,0-0.3,0.2-0.3,0.3v2.6c0,0.2,0.2,0.3,0.3,0.3H-5671.5z"/>
		</g>
	</g>
</g>
</svg>
