<?xml version="1.0" encoding="utf-8"?>
<!-- Generator: Adobe Illustrator 22.0.1, SVG Export Plug-In . SVG Version: 6.00 Build 0)  -->
<svg version="1.1" id="Layer_1" xmlns="http://www.w3.org/2000/svg" xmlns:xlink="http://www.w3.org/1999/xlink" x="0px" y="0px"
	 viewBox="0 0 60 60" enable-background="new 0 0 60 60" xml:space="preserve">
<g>
	<g id="Group_6180" transform="translate(-5641.207 -17863.354)">
		<g id="shield" transform="translate(830 1128.354)">
			<g id="Path_5657">
				<path fill="#D6EEFF" d="M4864.8,16745.2c0,0-22.5-8.8-23.1-9c-0.4,0.2-23.1,9-23.1,9v16.6c0,11.5,3.2,26.5,23.1,32.1
					c19.8-5.6,23.1-20.9,23.1-32.1C4864.8,16756.1,4864.8,16745.2,4864.8,16745.2z"/>
				<path fill="#137FCF" d="M4841.7,16795l-0.3-0.1c-15.8-4.5-23.8-15.6-23.8-33.1v-16.5c-0.1-0.7,0.1-0.8,5.8-3.1l10.2-4
					c4.1-1.6,7.5-2.9,7.7-3l0.4-0.2l21.1,8.3c3,1.2,3.1,1.2,3,1.9c0,1.1,0,11.1,0,16.5c0,17.5-8,28.6-23.8,33.1L4841.7,16795z
					 M4819.6,16745.9v15.9c0,16.6,7.2,26.8,22.1,31.1c14.6-4.2,22.1-14.7,22.1-31.1c0-4.8,0-13.5,0-15.9c-2.9-1.1-14.9-5.8-19.8-7.7
					l-2.3-0.9c-1,0.4-3.9,1.5-7.3,2.9C4828.9,16742.2,4821.7,16745,4819.6,16745.9z"/>
			</g>
			<g id="Path_5659">
				<path fill="#FFFFFF" d="M4859.2,16749.3c0,0-17.1-7-17.6-7.2c-0.4,0.1-17.6,6.9-17.6,6.8v13.1c0,9.1,1.8,21.5,17.6,25.9
					c15.8-4.4,17.6-17,17.6-25.9C4859.3,16757.6,4859.3,16749.3,4859.2,16749.3z"/>
			</g>
		</g>
		<g id="security-on">
			<path fill="#FFFFFF" d="M5669.9,17902.3l-8.4-8.5l3.7-3.8l4.6,4.7l8.8-8.9l3.7,3.8L5669.9,17902.3z"/>
			<path fill="#137FCF" d="M5669.9,17903.7l-9.8-9.9l5.1-5.2l4.6,4.7l8.8-8.9l5.1,5.2L5669.9,17903.7z M5663,17893.8l6.9,7.1
				l11.1-11.3l-2.3-2.4l-8.8,8.9l-4.6-4.7L5663,17893.8z"/>
		</g>
	</g>
</g>
</svg>
