<?xml version="1.0" encoding="utf-8"?>
<!-- Generator: Adobe Illustrator 22.0.1, SVG Export Plug-In . SVG Version: 6.00 Build 0)  -->
<svg version="1.1" id="Layer_1" xmlns="http://www.w3.org/2000/svg" xmlns:xlink="http://www.w3.org/1999/xlink" x="0px" y="0px"
	 viewBox="0 0 60 60" enable-background="new 0 0 60 60" xml:space="preserve">
<g>
	<g id="gift" transform="translate(-7584 -16604.996)">
		<g id="Path_6073">
			<path fill="#D6EEFF" d="M7627.5,16615.7c-1.5-2.9-3.3-4.3-5.3-4.3c-2.4,0-4.8,2-7.3,5.8c-0.3,0.5-0.6,1-0.9,1.5
				c-0.3-0.5-0.6-1-0.9-1.5c-2.5-3.9-4.9-5.8-7.3-5.8c-2,0-3.8,1.4-5.3,4.3c-0.9,1.4-1,3.1-0.2,4.6c1,1.6,3.1,2.7,6.6,3.4
				c2.3,0.4,4.6,0.6,6.9,0.6h0.2c2.3,0,4.6-0.2,6.9-0.6c3.5-0.6,5.6-1.7,6.6-3.4C7628.5,16618.8,7628.3,16617.1,7627.5,16615.7z"/>
			<path fill="#288ED9" d="M7613.8,16625.2c-2.3,0-4.6-0.2-6.9-0.6c-3.8-0.7-6.2-1.9-7.3-3.9c-1-1.8-0.9-3.9,0.2-5.6
				c1.6-3.1,3.7-4.8,6.2-4.8c2.7,0,5.4,2.1,8.1,6.3c0,0,0,0,0,0.1c0,0,0,0,0-0.1c2.7-4.2,5.4-6.3,8.1-6.3c2.4,0,4.5,1.6,6.2,4.8
				c1.1,1.7,1.1,3.8,0.2,5.6c-1.1,1.9-3.5,3.2-7.3,3.9c-2.4,0.4-4.8,0.6-7.1,0.6h-0.2C7613.8,16625.2,7613.8,16625.2,7613.8,16625.2
				z M7605.8,16612.4c-1.6,0-3.1,1.3-4.5,3.8c-0.7,1.2-0.8,2.5-0.2,3.6c0.8,1.3,2.8,2.3,5.9,2.9c2.2,0.4,4.5,0.6,6.8,0.5h0.2
				c2.3,0,4.5-0.2,6.8-0.5c3.1-0.6,5.1-1.5,5.9-2.9c0.6-1.1,0.5-2.5-0.2-3.5v-0.1c-1.3-2.5-2.8-3.8-4.5-3.8c-2,0-4.2,1.9-6.4,5.4
				c-0.3,0.5-0.6,1-0.9,1.4l-0.9,1.5l-0.9-1.5c-0.3-0.5-0.6-0.9-0.9-1.4C7610,16614.3,7607.8,16612.4,7605.8,16612.4z"/>
		</g>
		<g id="Path_6074">
			<path fill="#FFFFFF" d="M7636,16631.2c0-1.2-0.9-2.1-2.1-2.1l0,0h-39.8c-1.2,0-2.1,1-2.1,2.1l0,0v25.3c0,1.2,0.9,2.1,2.1,2.1l0,0
				h39.8c1.2,0,2.1-1,2.1-2.1l0,0V16631.2L7636,16631.2z"/>
			<path fill="#288ED9" d="M7594,16659.6c-1.7,0-3.1-1.4-3.1-3.1v-25.3c0-0.8,0.3-1.6,0.9-2.2c0.6-0.6,1.4-0.9,2.2-0.9h39.8
				c0.8,0,1.6,0.3,2.2,0.9c0.6,0.6,0.9,1.4,0.9,2.2v25.3c0,0.8-0.3,1.6-0.9,2.2c-0.6,0.6-1.4,0.9-2.2,0.9H7594z M7634,16630h-39.8
				c-0.3,0-0.6,0.1-0.8,0.3c-0.2,0.2-0.3,0.5-0.3,0.8v25.3c0,0.6,0.5,1.1,1.1,1.1h39.8c0.3,0,0.6-0.1,0.8-0.3
				c0.2-0.2,0.3-0.5,0.3-0.8v-25.3c0-0.3-0.1-0.6-0.3-0.8C7634.6,16630.1,7634.3,16630,7634,16630z"/>
		</g>
		<g id="Path_6075">
			<path fill="#FFFFFF" d="M7639.1,16633c0,1.2-0.9,2.1-2.1,2.1l0,0h-46.1c-1.2,0-2.1-1-2.1-2.1l0,0v-10.7c0-1.2,0.9-2.1,2.1-2.1
				l0,0h46.1c1.2,0,2.1,1,2.1,2.1l0,0V16633L7639.1,16633z"/>
			<path fill="#288ED9" d="M7591,16636.1c-1.7,0-3.1-1.4-3.1-3.1v-10.7c0-1.7,1.4-3.1,3.1-3.1h46.1c1.7,0,3.1,1.4,3.1,3.1v10.7
				c0,0.8-0.3,1.6-0.9,2.2c-0.6,0.6-1.4,0.9-2.2,0.9H7591z M7637,16621.2H7591c-0.3,0-0.6,0.1-0.8,0.3c-0.2,0.2-0.3,0.5-0.3,0.8
				v10.7c0,0.6,0.5,1.1,1.1,1.1h46.1c0.6,0,1.1-0.5,1.1-1.1v-10.7C7638.1,16621.7,7637.6,16621.2,7637,16621.2z"/>
		</g>
		<g id="Rectangle_3101">
			<rect x="7608.8" y="16620.2" fill="#D6EEFF" width="10.5" height="14.9"/>
			<path fill="#288ED9" d="M7620.3,16636.1h-12.5v-16.9h12.5V16636.1z M7609.8,16634.1h8.5v-12.9h-8.5V16634.1z"/>
		</g>
		<g id="Rectangle_3102">
			<rect x="7608.8" y="16635.1" fill="#D6EEFF" width="10.5" height="23.5"/>
			<path fill="#288ED9" d="M7620.3,16659.6h-12.5v-25.5h12.5V16659.6z M7609.8,16657.6h8.5v-21.5h-8.5V16657.6z"/>
		</g>
		<g id="Path_6077">
			<path fill="#C63046" d="M7619.3,16635.2L7619.3,16635.2z"/>
		</g>
	</g>
</g>
</svg>
