<?xml version="1.0" encoding="utf-8"?>
<!-- Generator: Adobe Illustrator 21.0.0, SVG Export Plug-In . SVG Version: 6.00 Build 0)  -->
<svg version="1.1" id="Layer_1" xmlns="http://www.w3.org/2000/svg" xmlns:xlink="http://www.w3.org/1999/xlink" x="0px" y="0px"
	 viewBox="0 0 21 21" enable-background="new 0 0 21 21" xml:space="preserve">
<path  d="M10.5,21C4.7,21,0,16.3,0,10.5C0,4.7,4.7,0,10.5,0C16.3,0,21,4.7,21,10.5C21,16.3,16.3,21,10.5,21z M10.5,1
	C5.3,1,1,5.3,1,10.5S5.3,20,10.5,20s9.5-4.3,9.5-9.5S15.7,1,10.5,1z"/>
<path  d="M10.5,20.9c-0.3,0-0.5-0.2-0.5-0.5V0.5C10,0.2,10.2,0,10.5,0S11,0.2,11,0.5v19.9
	C11,20.7,10.8,20.9,10.5,20.9z"/>
<path  d="M20.4,11H0.5C0.2,11,0,10.8,0,10.5S0.2,10,0.5,10h19.9c0.3,0,0.5,0.2,0.5,0.5S20.7,11,20.4,11z"/>
<path  d="M10.5,21c-3.4,0-6-4.6-6-10.5S7.1,0,10.5,0s6,4.6,6,10.5S13.9,21,10.5,21z M10.5,1c-2.7,0-5,4.4-5,9.5
	s2.3,9.5,5,9.5c2.7,0,5-4.4,5-9.5S13.2,1,10.5,1z"/>
</svg>
