<?xml version="1.0" encoding="utf-8"?>
<!-- Generator: Adobe Illustrator 22.0.1, SVG Export Plug-In . SVG Version: 6.00 Build 0)  -->
<svg version="1.1" id="Layer_1" xmlns="http://www.w3.org/2000/svg" xmlns:xlink="http://www.w3.org/1999/xlink" x="0px" y="0px"
	 viewBox="0 0 60 60" enable-background="new 0 0 60 60" xml:space="preserve">
<g>
	<g id="Group_7271" transform="translate(4181 -16665)">
		<g id="Path_6066">
			<path fill="#288ED9" d="M-4131.5,16721.1h-38.9c-3.6,0-6.5-2.9-6.6-6.6v-38.9c0-3.6,3-6.5,6.6-6.6h38.9c3.6,0,6.5,2.9,6.6,6.6
				v38.9C-4125,16718.1-4128,16721.1-4131.5,16721.1z M-4170.3,16671.1c-2.5,0-4.5,2.1-4.6,4.6v38.9c0,2.5,2.1,4.5,4.6,4.6h38.9
				c2.5,0,4.6-2.1,4.6-4.6v-38.9c0-2.5-2.1-4.5-4.6-4.6H-4170.3z"/>
		</g>
		<g id="Path_6067">
			<path fill="#D6EEFF" d="M-4137,16711.9h-28.6c-1.3,0-2.4-1.1-2.4-2.4v-28.6c0-1.3,1.1-2.4,2.4-2.4h28.6c1.3,0,2.4,1.1,2.4,2.4
				v28.6C-4134.5,16710.9-4135.7,16711.9-4137,16711.9L-4137,16711.9z"/>
		</g>
		<g id="Group_7272" transform="translate(5.391 1.83)">
			<g id="Path_6068">
				<path fill="#288ED9" d="M-4139.4,16693.7c-0.6,0-1-0.4-1-1v-8.7h-19.4c-0.6,0-1-0.4-1-1v-13.9c0-0.6,0.4-1,1-1s1,0.4,1,1v12.9
					h19.4c0.6,0,1,0.4,1,1v9.7C-4138.4,16693.2-4138.9,16693.7-4139.4,16693.7z"/>
			</g>
			<g id="Path_6070">
				<path fill="#288ED9" d="M-4154.1,16718.3c-0.6,0-1-0.4-1-1v-23.8c0-0.6,0.4-1,1-1h6.4c0.6,0,1,0.4,1,1s-0.4,1-1,1h-5.4v22.8
					C-4153.1,16717.8-4153.5,16718.3-4154.1,16718.3z"/>
			</g>
			<g id="Path_6071">
				<path fill="#288ED9" d="M-4154.3,16699.1h-8.7c-0.6,0-1-0.4-1-1v-7.1h-6c-0.6,0-1-0.4-1-1v-20.9c0-0.6,0.4-1,1-1s1,0.4,1,1v19.9
					h6c0.6,0,1,0.4,1,1v7.1h7.7c0.6,0,1,0.4,1,1S-4153.7,16699.1-4154.3,16699.1z"/>
			</g>
			<g id="Path_6072">
				<path fill="#288ED9" d="M-4166.1,16718.3c-0.6,0-1-0.4-1-1v-10h-7.5c-0.6,0-1-0.4-1-1s0.4-1,1-1h8.5c0.6,0,1,0.4,1,1v11
					C-4165.1,16717.8-4165.6,16718.3-4166.1,16718.3z"/>
			</g>
			<g id="Line_661">
				<path fill="#288ED9" d="M-4147.7,16707h-6.4c-0.6,0-1-0.4-1-1s0.4-1,1-1h6.4c0.6,0,1,0.4,1,1S-4147.2,16707-4147.7,16707z"/>
			</g>
			<g id="Ellipse_1392">
				<ellipse fill="#288ED9" cx="-4147.9" cy="16693.7" rx="2.2" ry="2.2"/>
			</g>
			<g id="Ellipse_1393">
				<circle fill="#288ED9" cx="-4146.6" cy="16705.8" r="2.2"/>
			</g>
			<g id="Ellipse_1395">
				<ellipse fill="#288ED9" cx="-4145.6" cy="16676.4" rx="2.2" ry="2.2"/>
			</g>
			<g id="Ellipse_1396">
				<circle fill="#288ED9" cx="-4174.3" cy="16706.1" r="2.2"/>
			</g>
			<g id="Ellipse_1398">
				<circle fill="#288ED9" cx="-4139.5" cy="16698.2" r="2.2"/>
			</g>
		</g>
	</g>
</g>
</svg>
