<?xml version="1.0" encoding="utf-8"?>
<!-- Generator: Adobe Illustrator 22.0.1, SVG Export Plug-In . SVG Version: 6.00 Build 0)  -->
<svg version="1.1" id="Layer_1" xmlns="http://www.w3.org/2000/svg" xmlns:xlink="http://www.w3.org/1999/xlink" x="0px" y="0px"
	 viewBox="0 0 60 60" enable-background="new 0 0 60 60" xml:space="preserve">
<g>
	<g id="Group_8507" transform="translate(-834.068 -1126.002)">
		<path fill="#D6EEFF" d="M875.9,1139.4c0,0.5-0.1,1.2-0.2,1.7l-0.1,1.3c0,0.5-0.1,1.2-0.1,1.6s-0.1,0.7-0.1,0.7h-22.5
			c-0.5,0-0.8,0.4-0.8,0.8v0.1l0.4,4.4c0.1,0.5,0.5,0.9,1,0.9h20.6c0.4,0,0.7,0.3,0.8,0.7v0.1c0,0.5-0.1,1.2-0.2,1.7l-1.3,14.3
			c0,0.5-0.1,1.2-0.1,1.4c0,0.3-0.4,0.6-0.9,0.8l-10.8,3l-0.9,0.3c0,0-0.4-0.1-0.9-0.2l-10.8-3c-0.5-0.2-0.9-0.6-1-1.2l-0.7-7.8
			c0-0.5,0.3-0.9,0.7-0.9h0.1h4.3c0.5,0,1,0.4,1,0.9l0.3,3c0.1,0.5,0.5,1,1,1.2l5,1.4l0.9,0.2l0.9-0.2l5-1.4c0.5-0.2,0.9-0.6,1-1.2
			l0.5-6.1c0-0.5-0.3-0.9-0.7-0.9h-0.1h-19.4c-0.5,0-1-0.4-1-0.9l-1.3-15.1c0-0.5-0.1-1.3-0.2-1.7c0-0.4,0.3-0.8,0.8-0.8h0.1H875
			C875.5,1138.5,875.9,1138.8,875.9,1139.4C875.9,1139.3,875.9,1139.3,875.9,1139.4z"/>
		<path fill="#288ED9" d="M860.8,1174.2L860.8,1174.2c-0.2,0-0.3,0-1.3-0.3l-10.8-3c-0.9-0.3-1.6-1.1-1.7-2l-0.7-7.8
			c-0.1-1,0.6-1.9,1.6-2c0.1,0,0.2,0,0.2,0h4.3c1,0,1.9,0.8,2,1.8l0.3,3.1c0,0.1,0.1,0.3,0.3,0.3l5.6,1.5l5.7-1.5
			c0.1,0,0.2-0.2,0.2-0.3l0.5-5.9h-19.2c-1,0-1.9-0.8-2-1.8l-1.5-16.8c0-1,0.7-1.9,1.7-1.9h0.1h0.2h28.8c0.4,0,0.9,0.1,1.2,0.4
			s0.6,0.7,0.6,1.2v0.2l-0.4,4.7c-0.1,0.8-0.1,1.6-1.1,1.6H853l0.4,4.3H874l0,0c0.9,0,1.7,0.8,1.7,1.7v0.1l-0.2,1.9l-1.4,15.7
			c-0.1,0.8-0.9,1.4-1.7,1.6L860.8,1174.2z M848.3,1161.1l0.7,7.6c0,0.1,0.1,0.3,0.3,0.3l10.7,3c0.2,0.1,0.5,0.1,0.6,0.2l11.4-3.2
			c0.1,0,0.2-0.1,0.2-0.1l1.5-17h-20.3c-1,0-1.9-0.8-2-1.8l-0.4-4.5c0-0.1,0-0.1,0-0.2c0-0.5,0.2-0.9,0.6-1.3
			c0.4-0.3,0.8-0.5,1.3-0.5h21.6l0.4-4.1h-28.5l1.5,16.5h19.4c0.1,0,0.1,0,0.2,0c1,0.1,1.7,1,1.6,2l-0.5,6.1c-0.1,1-0.8,1.7-1.7,2
			l-6.3,1.7l-6.2-1.7c-0.9-0.3-1.6-1.1-1.7-2l-0.3-3.1L848.3,1161.1z M848.3,1161L848.3,1161L848.3,1161z M867.1,1157.9
			L867.1,1157.9L867.1,1157.9z M874.1,1152C874.1,1152,874.1,1151.9,874.1,1152L874.1,1152z M852.9,1145.7L852.9,1145.7
			L852.9,1145.7z M875.1,1139.5L875.1,1139.5L875.1,1139.5z M875.9,1139.4h-1H875.9z"/>
		<path fill="#FFFFFF" d="M887.4,1166.6l-15-8.7c-1.6-0.9-3.6-0.4-4.6,1.3c-0.3,0.5-0.4,1.1-0.4,1.7v17.3c0,1.8,1.5,3.3,3.3,3.4
			c0.6,0,1.2-0.1,1.7-0.4l15-8.7c1.6-0.9,2.2-3,1.2-4.6C888.3,1167.3,887.9,1166.9,887.4,1166.6z"/>
		<path fill="#288ED9" d="M890.4,1167.2c-0.4-0.7-1-1.3-1.7-1.7l-5.8-3.3l2.9-32c0.1-0.5-0.1-0.9-0.4-1.3c-0.3-0.4-0.7-0.6-1.2-0.6
			c-0.1,0-0.1,0-0.2,0h-45.2c-0.5,0-0.9,0.2-1.2,0.5s-0.5,0.8-0.5,1.2c0,0.1,0,0.1,0,0.2l4.1,46.2c0.1,0.9,0.7,1.6,1.6,1.9l17.5,4.9
			c0.3,0.1,0.7,0.1,1.1,0.1c0.4,0,0.7,0,1.1-0.1l4.1-1.1c0.8,1,2.1,1.6,3.5,1.6l0,0c0.8,0,1.6-0.2,2.3-0.6l16.3-9.4
			c1.1-0.6,1.9-1.6,2.2-2.8C891.2,1169.5,891,1168.3,890.4,1167.2z M862,1181.2c-0.4,0.1-0.9,0.1-1.2,0l-17.4-4.8
			c-0.2-0.1-0.3-0.2-0.3-0.3l-4.1-46h44.9l-2.8,31l-8.7-5c-1.1-0.6-2.3-0.8-3.5-0.4c-1.2,0.3-2.2,1.1-2.8,2.2
			c-0.4,0.7-0.6,1.5-0.6,2.3v18.8c0,0.4,0.1,0.9,0.2,1.3L862,1181.2z M888.9,1170.2c-0.2,0.7-0.6,1.3-1.2,1.6l-16.3,9.4
			c-0.4,0.2-0.8,0.3-1.3,0.3l0,0c-1.5,0-2.6-1.2-2.6-2.6v-18.8c0-0.5,0.1-0.9,0.3-1.3c0.5-0.9,1.4-1.3,2.3-1.3
			c0.4,0,0.9,0.1,1.3,0.3l16.3,9.4l0,0c0.4,0.2,0.7,0.6,1,1C889,1168.8,889.1,1169.5,888.9,1170.2z"/>
		<path fill="#D6EEFF" d="M884.2,1168.7l-12.4-7.1c-0.5-0.3-1.1-0.1-1.4,0.4c-0.1,0.2-0.1,0.3-0.1,0.5v14.3c0,0.6,0.5,1,1,1
			c0.2,0,0.4-0.1,0.5-0.1l12.4-7.2c0.5-0.3,0.7-0.9,0.4-1.4C884.5,1168.9,884.3,1168.7,884.2,1168.7z"/>
	</g>
</g>
</svg>
