<?xml version="1.0" encoding="utf-8"?>
<!-- Generator: Adobe Illustrator 22.0.1, SVG Export Plug-In . SVG Version: 6.00 Build 0)  -->
<svg version="1.1" id="Layer_1" xmlns="http://www.w3.org/2000/svg" xmlns:xlink="http://www.w3.org/1999/xlink" x="0px" y="0px"
	 viewBox="0 0 60 60" enable-background="new 0 0 60 60" xml:space="preserve">
<g>
	<g id="Group_8032" transform="translate(-5647 -17863)">
		<g id="Group_6218" transform="translate(-1 -1)">
			<g id="Rectangle_2866" transform="translate(546 1387)">
				<g>
					<path fill="#FFFFFF" d="M5106.2,16491.1h51.6c0.5,0,0.8,0.3,0.8,0.8v4.8c0,0.5-0.3,0.8-0.8,0.8h-51.6c-0.5,0-0.8-0.3-0.8-0.8
						v-4.8C5105.4,16491.4,5105.8,16491.1,5106.2,16491.1z"/>
				</g>
				<g>
					<path fill="#137FCF" d="M5158.6,16497.6h-53.3v-6.5h53.3V16497.6z M5107,16495.9h50v-3.2h-50V16495.9z"/>
				</g>
			</g>
			<g id="Ellipse_1276" transform="translate(574 1382)">
				<g>
					<circle fill="#FFFFFF" cx="5104" cy="16496.1" r="4"/>
				</g>
				<g>
					<path fill="#137FCF" d="M5104,16500.1c-2.3,0-4-1.8-4-4s1.8-4,4-4c2.3,0,4,1.8,4,4S5106.3,16500.1,5104,16500.1z M5104,16493.7
						c-1.4,0-2.4,1-2.4,2.4s1,2.4,2.4,2.4c1.4,0,2.4-1,2.4-2.4S5105.4,16493.7,5104,16493.7z"/>
				</g>
			</g>
		</g>
		<g id="comparison" transform="translate(542.001 1165.994)">
			<g id="Union_41">
				<path fill="#FFFFFF" d="M5118.1,16735.7h-10.5c-0.9,0-1.6-0.7-1.6-1.6c0-0.3,0.1-0.6,0.2-0.8l10.5-17.4c0.5-0.8,1.5-1,2.3-0.6
					c0.2,0.2,0.4,0.3,0.6,0.6l10.5,17.4c0.5,0.8,0.2,1.8-0.6,2.3c-0.2,0.2-0.6,0.2-0.8,0.2L5118.1,16735.7L5118.1,16735.7z
					 M5110.5,16732.5h15.2l-7.6-12.7L5110.5,16732.5z"/>
				<path fill="#137FCF" d="M5128.5,16736.5h-21c-1.4,0-2.4-1.1-2.4-2.4c0-0.4,0.1-0.9,0.3-1.3l10.5-17.4c0.3-0.6,0.9-1,1.5-1.1
					c0.6-0.2,1.3-0.1,1.9,0.2c0.3,0.2,0.6,0.5,0.8,0.8l10.5,17.4c0.3,0.6,0.4,1.2,0.2,1.9c-0.2,0.6-0.6,1.1-1.1,1.5
					C5129.4,16736.4,5128.9,16736.5,5128.5,16736.5z M5118.1,16715.9c-0.1,0-0.2,0-0.2,0c-0.2,0.1-0.4,0.2-0.5,0.4l-10.5,17.4
					c-0.1,0.2-0.1,0.2-0.1,0.4c0,0.5,0.4,0.8,0.8,0.8h20.9c0.2,0,0.3-0.1,0.4-0.1c0.2-0.1,0.3-0.3,0.4-0.5c0.1-0.2,0-0.4-0.1-0.6
					l-10.5-17.4c-0.1-0.1-0.2-0.2-0.2-0.2C5118.4,16715.9,5118.2,16715.9,5118.1,16715.9z M5127.1,16733.3h-18l9-15L5127.1,16733.3z
					 M5111.9,16731.7h12.3l-6.1-10.2L5111.9,16731.7z"/>
			</g>
			<g id="Path_5666">
				<path fill="#FFFFFF" d="M5128.5,16732.5h-21c-0.9,0-1.6,0.7-1.6,1.6l0,0c0.1,6.7,5.5,12,12.2,11.9c6.6-0.1,11.9-5.4,11.9-11.9
					C5130.2,16733.2,5129.4,16732.5,5128.5,16732.5z"/>
				<path fill="#137FCF" d="M5118.1,16746.9c-7,0-12.8-5.7-12.9-12.8c0-1.4,1.1-2.4,2.4-2.4l0,0h20.9c1.4,0,2.4,1.1,2.4,2.4
					C5130.8,16741.2,5125.1,16746.9,5118.1,16746.9L5118.1,16746.9z M5107.6,16733.3c-0.5,0-0.8,0.4-0.8,0.8
					c0.1,6.2,5.1,11.2,11.3,11.2h0.1c6.1-0.1,11.1-5.1,11.2-11.2c0-0.5-0.4-0.8-0.8-0.8H5107.6L5107.6,16733.3z"/>
			</g>
			<g id="Group_6217" transform="translate(14.973 246.516)">
				<g id="Path_5672">
					<path fill="#D6EEFF" d="M5113.5,16486h-10.5v13.7c6.7,0,12.1-5.4,12.1-12.1C5115.2,16486.7,5114.4,16486,5113.5,16486z"/>
				</g>
			</g>
			<g id="Path_5673">
				<path fill="#137FCF" d="M5118.1,16746.9c-7,0-12.8-5.7-12.9-12.8c0-1.4,1.1-2.4,2.4-2.4l0,0h20.9c1.4,0,2.4,1.1,2.4,2.4
					C5130.8,16741.2,5125.1,16746.9,5118.1,16746.9L5118.1,16746.9z M5107.6,16733.3c-0.5,0-0.8,0.4-0.8,0.8
					c0.1,6.2,5.1,11.2,11.3,11.2h0.1c6.1-0.1,11.1-5.1,11.2-11.2c0-0.5-0.4-0.8-0.8-0.8H5107.6L5107.6,16733.3z"/>
			</g>
		</g>
		<g id="comparison-2" transform="translate(584.001 1165.994)">
			<g id="Union_41-2">
				<path fill="#FFFFFF" d="M5109.9,16735.7h-10.5c-0.9,0-1.6-0.7-1.6-1.6c0-0.3,0.1-0.6,0.2-0.8l10.5-17.4c0.5-0.8,1.5-1,2.3-0.6
					c0.2,0.2,0.4,0.3,0.6,0.6l10.5,17.4c0.5,0.8,0.2,1.8-0.6,2.3c-0.2,0.2-0.6,0.2-0.8,0.2L5109.9,16735.7L5109.9,16735.7z
					 M5102.4,16732.5h15.2l-7.6-12.7L5102.4,16732.5z"/>
				<path fill="#137FCF" d="M5120.4,16736.5h-21c-1.4,0-2.4-1.1-2.4-2.4c0-0.4,0.1-0.9,0.3-1.3l10.5-17.4c0.3-0.6,0.9-1,1.5-1.1
					c0.6-0.2,1.3-0.1,1.9,0.2c0.3,0.2,0.6,0.5,0.8,0.8l10.5,17.4c0.3,0.6,0.4,1.2,0.2,1.9c-0.2,0.6-0.6,1.1-1.1,1.5
					C5121.2,16736.4,5120.8,16736.5,5120.4,16736.5z M5109.9,16715.9c-0.1,0-0.2,0-0.2,0c-0.2,0.1-0.4,0.2-0.5,0.4l-10.5,17.4
					c-0.1,0.2-0.1,0.2-0.1,0.4c0,0.5,0.4,0.8,0.8,0.8h20.9c0.2,0,0.3-0.1,0.4-0.1c0.2-0.1,0.3-0.3,0.4-0.5c0.1-0.2,0-0.4-0.1-0.6
					l-10.5-17.4c-0.1-0.1-0.2-0.2-0.2-0.2C5110.3,16715.9,5110.1,16715.9,5109.9,16715.9z M5119,16733.3h-18l9-15L5119,16733.3z
					 M5103.8,16731.7h12.3l-6.1-10.2L5103.8,16731.7z"/>
			</g>
			<g id="Path_5666-2">
				<path fill="#FFFFFF" d="M5120.4,16732.5h-21c-0.9,0-1.6,0.7-1.6,1.6l0,0c0.1,6.7,5.5,12,12.2,11.9c6.6-0.1,11.9-5.4,11.9-11.9
					C5122,16733.2,5121.3,16732.5,5120.4,16732.5z"/>
				<path fill="#137FCF" d="M5109.9,16746.9c-3.4,0-6.6-1.3-9-3.7c-2.4-2.3-3.8-5.5-3.9-8.9l-0.1-0.2l0.1-0.2c0-0.6,0.3-1.1,0.7-1.6
					c0.5-0.5,1-0.7,1.7-0.7l0,0h20.9c1.4,0,2.4,1.1,2.4,2.4c-0.1,7-5.8,12.7-12.7,12.7C5110,16746.9,5109.9,16746.9,5109.9,16746.9z
					 M5098.6,16734.1c0,3,1.2,5.8,3.4,7.9c2.2,2.1,5,3.2,8,3.2c6.1-0.1,11.1-5.1,11.2-11.2c0-0.5-0.4-0.8-0.8-0.8h-21l0,0
					c-0.2,0-0.4,0.1-0.6,0.2C5098.7,16733.7,5098.6,16733.9,5098.6,16734.1L5098.6,16734.1z"/>
			</g>
			<g id="Group_6217-2" transform="translate(14.973 246.516)">
				<g id="Path_5672-2">
					<path fill="#D6EEFF" d="M5105.4,16486h-10.5v13.7c6.7,0,12.1-5.4,12.1-12.1C5107.1,16486.7,5106.3,16486,5105.4,16486z"/>
				</g>
			</g>
			<g id="Path_5673-2">
				<path fill="#137FCF" d="M5109.9,16746.9c-3.4,0-6.6-1.3-9-3.7c-2.4-2.3-3.8-5.5-3.9-8.9l-0.1-0.2l0.1-0.2c0-0.6,0.3-1.1,0.7-1.6
					c0.5-0.5,1-0.7,1.7-0.7l0,0h20.9c1.4,0,2.4,1.1,2.4,2.4c-0.1,7-5.8,12.7-12.7,12.7C5110,16746.9,5109.9,16746.9,5109.9,16746.9z
					 M5098.6,16734.1c0,3,1.2,5.8,3.4,7.9c2.2,2.1,5,3.2,8,3.2c6.1-0.1,11.1-5.1,11.2-11.2c0-0.5-0.4-0.8-0.8-0.8h-21l0,0
					c-0.2,0-0.4,0.1-0.6,0.2C5098.7,16733.7,5098.6,16733.9,5098.6,16734.1L5098.6,16734.1z"/>
			</g>
		</g>
	</g>
</g>
</svg>
