<?xml version="1.0" encoding="utf-8"?>
<!-- Generator: Adobe Illustrator 22.0.1, SVG Export Plug-In . SVG Version: 6.00 Build 0)  -->
<svg version="1.1" id="Layer_1" xmlns="http://www.w3.org/2000/svg" xmlns:xlink="http://www.w3.org/1999/xlink" x="0px" y="0px"
	 viewBox="0 0 60 60" enable-background="new 0 0 60 60" xml:space="preserve">
<g>
	<g id="Group_7589" transform="translate(4581 -17863)">
		<g id="Group_7588" transform="translate(-505 157)">
			<g id="Path_6138">
				<path fill="#D6EEFF" d="M-4058.4,17759.8c0,0-3.9-1.2-4.2-1.3s-4.4-1.3-4.8-1.5s-2.9-0.9-2.9-1c-0.1-0.7-0.1-1.5,0-2.2
					c0.1-1.3,0.1-2.6,0-3.9c0.4-0.4,0.9-0.7,1.4-1c0.3-0.1,2.4-0.8,2.4-0.8l1.2-1.2l1.2-1c0,0,1.6,0.4,2,0.6
					c0.7,0.4,1.3,0.9,1.9,1.4c0.1,0.2,2.4,3.9,2.4,3.9l1.1,3l0.9,2.2l-0.3,1.8l-1,0.9L-4058.4,17759.8z"/>
			</g>
			<g id="Path_6139">
				<path fill="#D6EEFF" d="M-4041.7,17759.1l-0.9-1.2c-0.3-0.7-0.6-1.4-0.7-2.2c0-0.4,0.7-4,0.7-4l0.3-3.5l0.4-2h2l3.6,0.6l2.5,0.6
					v2.4l1,1.7l2.3,1.3l-0.2,1l-3.5,2.3l-4.1,2.2c-0.6,0.6-1.2,1.1-1.9,1.6C-4040.6,17759.6-4041.2,17759.4-4041.7,17759.1z"/>
			</g>
			<path fill="#288ED9" d="M-4030.5,17751.1c-1.5-0.6-2.1-1.4-2-2.6c0-1-0.4-2.1-1.1-2.8c0.6-2.1,0.6-4.3,0-6.4
				c-1-2.8-3.9-7-6.9-11.2c-1.2-1.7-1.3-3.6-1.4-5.7c0.1-2.4-0.4-4.8-1.3-7c-1.1-2.8-3.9-4.5-6.9-4.4c-1.9,0-3.7,0.6-5.2,1.6
				c-3,2.1-2.6,6.6-2.3,9.6c0,0.4,0.1,0.8,0.1,1.1c0.2,2.9,0,4.5-0.2,4.9c-0.5,0.7-1,1.4-1.5,2.1c-0.7,1-1.5,2-2.2,3
				c-0.9,1.5-1.6,3.2-2.1,4.9c-0.4,1.1-0.8,2.2-1.3,3.3c-0.6,1-0.7,2.2-0.4,3.4c-0.5,0.4-0.9,0.8-1.1,1.4c-0.4,1-1.4,1.5-3.2,1.8
				c-0.7,0.1-1.4,0.5-1.8,1.1c-0.3,0.8-0.3,1.7,0,2.4c0.3,0.9,0.2,1.9-0.3,2.8c-0.1,0.3-0.2,0.6-0.3,0.9c-0.2,0.5-0.1,1,0.2,1.4
				c0.7,1.1,2.8,1.5,4.9,1.7c1.4,0.2,2.7,0.6,4,1.2c1.3,0.5,2.6,0.9,3.9,1.1c0.2,0,0.4,0,0.6,0c1.3,0,2.4-0.6,3-1.8
				c1.8-0.4,3.6-0.6,5.4-0.6c1.8,0,3.6,0.2,5.4,0.5c0.4,0.7,0.9,1.3,1.6,1.8c0.6,0.3,1.2,0.4,1.8,0.4l0,0c1.2,0,2.4-0.5,3.2-1.3
				c1.1-1.2,3.8-2.6,5.8-3.7c0.4-0.2,0.9-0.5,1.2-0.7c1-0.4,1.6-1.4,1.7-2.4C-4029.3,17752.1-4029.8,17751.4-4030.5,17751.1z
				 M-4055.2,17750.9c-0.1-1-1.4-1.9-2.9-3.1c-1.2-0.9-2.5-2-2.9-2.8c-0.8-1.8-0.2-5,0.9-6.7c0.6-1,1-2.1,1.4-3.3
				c0.3-1.1,0.8-2.2,1.4-3.2c0.9-1.2,1.5-2.6,1.7-4.1c0.8,0.9,1.9,1.5,3,1.7c0.2,0,0.3,0,0.5-0.1c1-0.4,2-0.9,2.9-1.5
				c0.8-0.5,1.6-0.9,2.5-1.2c0.7,1,5,10.4,5.4,13.4c0.2,1.7,0.2,3.4-0.2,5.1c-0.2,0-0.3,0-0.5,0c-1.2,0-1.5,0.6-1.6,1
				c-0.2,1.6-0.3,3.3-0.2,4.9c-1.4,1.8-3.4,3.1-5.7,3.6c-1.2,0.2-2.3,0.3-3.5,0.3c-0.6,0-1.2,0-1.7-0.1l-1.6-1.8
				C-4055.5,17752.7-4055,17751.8-4055.2,17750.9L-4055.2,17750.9z M-4053.2,17721.5c0,0-0.1,0-0.1,0.1c0-0.1,0-0.2,0-0.3
				c-0.1-0.9-0.7-1.6-1.5-1.7c-0.1,0-0.1,0-0.2,0c-0.4,0.1-0.8,0.4-1,0.9c0.2-1,0.7-1.8,1.4-1.8c0.8,0,1.5,1.1,1.5,2.3
				C-4053.2,17721.2-4053.2,17721.4-4053.2,17721.5L-4053.2,17721.5z M-4047,17722.3c0.1-0.2,0.1-0.5,0.1-0.7c0.1-1-0.6-1.9-1.7-2.1
				l0,0c-1,0.1-1.7,1-1.7,2.1c0,0.1,0,0.2,0,0.2l-0.1-0.1c-0.1-0.3-0.2-0.7-0.2-1c-0.1-1.2,0.7-2.3,2-2.5c1.2,0.2,2.1,1.3,2,2.5
				C-4046.6,17721.3-4046.7,17721.8-4047,17722.3L-4047,17722.3z M-4047.8,17724.9c0,0.1,0,0.1-0.4,0.3c-0.2,0.1-0.4,0.2-0.7,0.4
				l-0.2,0.1c-1,0.6-2,1.2-3.1,1.6c-0.3,0-0.5-0.1-1-0.4c-0.1-0.1-0.2-0.1-0.3-0.2c-0.6-0.3-1.1-0.8-1.4-1.4
				c0.3-0.2,0.9-0.7,1.3-1.1c0.5-0.5,1.1-0.9,1.8-1.1c0,0,0,0,0.1,0c0.7,0.2,1.5,0.5,2.2,0.8c0.3,0.1,0.6,0.3,0.8,0.3
				C-4048.5,17724.4-4048.1,17724.6-4047.8,17724.9L-4047.8,17724.9z M-4041.9,17755.5c0.4-1.7,0.7-3.5,0.7-5.3c0-0.3,0-0.6-0.1-1
				c-0.1-0.6-0.1-1.2,0-1.8l0,0c0,0.8,0.2,2.3,1.4,2.8c0.4,0.2,0.8,0.2,1.2,0.2c1.1,0,2.3-0.4,3.1-1.2c0.3-0.3,0.6-0.7,0.8-1
				c0.1,0.2,0.1,0.3,0.1,0.5c-0.1,1.3,0.5,2.5,1.5,3.2l0.2,0.1c0.4,0.2,1.4,0.7,1.4,1c0,0,0,0.1-0.1,0.1c-0.6,0.4-1.3,0.8-2,1.1
				c-1.4,0.6-2.7,1.4-3.9,2.4c-0.8,0.9-1.8,1.6-3,1.9c-0.1,0-0.2,0-0.2,0C-4041.6,17758.3-4042.3,17757.1-4041.9,17755.5z
				 M-4069,17751.2c-0.1-0.3-0.1-0.6-0.1-1c0-0.2,1.1-0.4,1.6-0.5c0.6-0.1,1.2-0.3,1.7-0.5c0.5-0.4,0.9-0.9,1.2-1.6
				c0.1-0.4,0.4-0.7,0.7-1c0,0,0,0,0.1,0c0.5,0,1.4,1,2,1.8c0.1,0.2,0.4,0.7,0.7,1.2c0.8,1.5,1.8,2.9,2.8,4.3
				c0.6,0.6,1.5,1.8,1.3,2.9c-0.2,0.7-0.7,1.2-1.3,1.6c-0.1,0-0.2,0-0.3,0c-1.2,0-3.7-1-5-1.6l-0.2-0.1c-1-0.3-2.1-0.6-3.1-0.7
				c-0.8-0.1-1.6-0.3-2.4-0.5c-0.2-0.2,0-0.8,0.2-1.4c0.1-0.4,0.2-0.8,0.3-1.2C-4068.8,17752.4-4068.9,17751.8-4069,17751.2z"/>
		</g>
		<g id="Rectangle_3227">
			<path fill="#FFFFFF" d="M-4558.9,17905h30c2.2,0,4,1.8,4,4l0,0c0,2.2-1.8,4-4,4h-30c-2.2,0-4-1.8-4-4l0,0
				C-4562.9,17906.8-4561.1,17905-4558.9,17905z"/>
		</g>
		<g id="Rectangle_3226">
			<path fill="#D6EEFF" d="M-4529.9,17913h-14l0,0v-8l0,0h14c2.2,0,4,1.8,4,4l0,0C-4525.9,17911.2-4527.7,17913-4529.9,17913z"/>
		</g>
		<g id="Rectangle_3225" transform="translate(295 1469)">
			<g>
				<path fill="none" d="M-4854.9,16436h30c2.2,0,4,1.8,4,4l0,0c0,2.2-1.8,4-4,4h-30c-2.2,0-4-1.8-4-4l0,0
					C-4858.9,16437.8-4857.1,16436-4854.9,16436z"/>
			</g>
			<g>
				<path fill="#288ED9" d="M-4824.9,16444h-30c-2.2,0-4-1.8-4-4s1.8-4,4-4h30c2.2,0,4,1.8,4,4S-4822.7,16444-4824.9,16444z
					 M-4854.9,16438c-1.1,0-2,0.9-2,2s0.9,2,2,2h30c1.1,0,2-0.9,2-2s-0.9-2-2-2H-4854.9z"/>
			</g>
		</g>
	</g>
</g>
</svg>
