<?xml version="1.0" encoding="utf-8"?>
<!-- Generator: Adobe Illustrator 22.0.1, SVG Export Plug-In . SVG Version: 6.00 Build 0)  -->
<svg version="1.1" id="Layer_1" xmlns="http://www.w3.org/2000/svg" xmlns:xlink="http://www.w3.org/1999/xlink" x="0px" y="0px"
	 viewBox="0 0 60 60" enable-background="new 0 0 60 60" xml:space="preserve">
<g>
	<g id="Group_7586" transform="translate(-8725 -17864)">
		<path id="Path_6138" fill="#D6EEFF" d="M8747.2,17917.8c0,0-3.9-1.2-4.2-1.3s-4.4-1.3-4.8-1.5s-2.9-0.9-2.9-1
			c-0.1-0.7-0.1-1.5,0-2.2c0.1-1.3,0.1-2.6,0-3.9c0.4-0.4,0.9-0.7,1.4-1c0.3-0.1,2.4-0.8,2.4-0.8l1.2-1.2l1.2-1c0,0,1.6,0.4,2,0.6
			c0.7,0.4,1.3,0.9,1.9,1.4c0.1,0.2,2.4,3.9,2.4,3.9l1.1,3l0.9,2.2l-0.3,1.8l-1,0.9L8747.2,17917.8z"/>
		<path id="Path_6139" fill="#D6EEFF" d="M8763.9,17917.1l-0.9-1.2c-0.3-0.7-0.6-1.4-0.7-2.2c0-0.4,0.7-4,0.7-4l0.3-3.5l0.4-2h2
			l3.6,0.6l2.5,0.6v2.4l1,1.7l2.3,1.3l-0.2,1l-3.5,2.3l-4.1,2.2c-0.6,0.6-1.2,1.1-1.9,1.6
			C8765,17917.6,8764.4,17917.4,8763.9,17917.1z"/>
		<path id="XMLID_92_" fill="#288ED9" d="M8775.1,17909.1c-1.5-0.6-2.1-1.4-2-2.6c0-1-0.4-2.1-1.1-2.8c0.6-2.1,0.6-4.3,0-6.4
			c-1-2.8-3.9-7-6.9-11.2c-1.2-1.7-1.3-3.6-1.4-5.7c0.1-2.4-0.4-4.8-1.3-7c-1.1-2.8-3.9-4.5-6.9-4.4c-1.9,0-3.7,0.6-5.2,1.6
			c-3,2.1-2.6,6.6-2.3,9.6c0,0.4,0.1,0.8,0.1,1.1c0.2,2.9,0,4.5-0.2,4.9c-0.5,0.7-1,1.4-1.5,2.1c-0.7,1-1.5,2-2.2,3
			c-0.9,1.5-1.6,3.2-2.1,4.9c-0.4,1.1-0.8,2.2-1.3,3.3c-0.6,1-0.7,2.2-0.4,3.4c-0.5,0.4-0.9,0.8-1.1,1.4c-0.4,1-1.3,1.5-3.2,1.8
			c-0.7,0.1-1.4,0.5-1.8,1.1c-0.3,0.8-0.3,1.7,0,2.4c0.3,0.9,0.2,1.9-0.3,2.8c-0.1,0.3-0.2,0.6-0.3,0.9c-0.2,0.5-0.1,1,0.2,1.4
			c0.7,1.1,2.8,1.5,4.9,1.7c1.4,0.2,2.7,0.6,4,1.2c1.3,0.5,2.6,0.9,3.9,1.1c0.2,0,0.4,0,0.6,0c1.3,0,2.4-0.6,3-1.8
			c1.8-0.4,3.6-0.6,5.4-0.6c1.8,0,3.6,0.2,5.4,0.5c0.4,0.7,0.9,1.3,1.6,1.8c0.6,0.3,1.2,0.4,1.8,0.4l0,0c1.2,0,2.4-0.5,3.2-1.3
			c1.1-1.2,3.8-2.6,5.8-3.7c0.4-0.2,0.9-0.5,1.2-0.7c1-0.4,1.6-1.4,1.7-2.4C8776.3,17910.1,8775.8,17909.4,8775.1,17909.1z
			 M8750.4,17908.9c-0.1-1-1.4-1.9-2.9-3.1c-1.2-0.9-2.5-2-2.9-2.8c-0.8-1.8-0.2-5,0.9-6.7c0.6-1,1-2.1,1.4-3.3
			c0.3-1.1,0.8-2.2,1.4-3.2c0.9-1.2,1.5-2.6,1.7-4.1c0.8,0.9,1.9,1.5,3,1.7c0.2,0,0.3,0,0.5-0.1c1-0.4,2-0.9,2.9-1.5
			c0.8-0.5,1.6-0.9,2.5-1.2c0.7,1,5,10.4,5.4,13.4c0.2,1.7,0.2,3.4-0.2,5.1c-0.2,0-0.3,0-0.5,0c-1.2,0-1.5,0.6-1.6,1
			c-0.2,1.6-0.3,3.3-0.2,4.9c-1.4,1.8-3.4,3.1-5.7,3.6c-1.2,0.2-2.3,0.3-3.5,0.3c-0.6,0-1.2,0-1.7-0.1l-1.6-1.8
			C8750.1,17910.7,8750.6,17909.8,8750.4,17908.9L8750.4,17908.9z M8752.4,17879.5C8752.4,17879.5,8752.3,17879.5,8752.4,17879.5
			c-0.1,0-0.1-0.1-0.1-0.2c0-0.9-0.7-1.6-1.5-1.7c-0.1,0-0.1,0-0.2,0c-0.4,0.1-0.8,0.4-1,0.9c0.2-1,0.7-1.8,1.4-1.8
			c0.8,0,1.5,1.1,1.5,2.3C8752.4,17879.2,8752.4,17879.4,8752.4,17879.5L8752.4,17879.5z M8758.6,17880.3c0.1-0.2,0.1-0.5,0.1-0.7
			c0.1-1-0.6-1.9-1.7-2.1l0,0c-1,0.1-1.7,1-1.7,2.1c0,0.1,0,0.2,0,0.2l-0.1-0.1c-0.1-0.3-0.2-0.7-0.2-1c-0.1-1.2,0.7-2.3,2-2.5
			c1.2,0.2,2.1,1.3,2,2.5C8759,17879.3,8758.9,17879.8,8758.6,17880.3L8758.6,17880.3z M8757.8,17882.9c0,0.1,0,0.1-0.4,0.3
			c-0.2,0.1-0.4,0.2-0.7,0.4l-0.2,0.1c-1,0.6-2,1.2-3.1,1.6c-0.3,0-0.5-0.1-1-0.4c-0.1-0.1-0.2-0.1-0.3-0.2
			c-0.6-0.3-1.1-0.8-1.4-1.4c0.3-0.2,1-0.7,1.3-1.1c0.5-0.5,1.1-0.9,1.8-1.1c0,0,0,0,0.1,0c0.7,0.2,1.5,0.5,2.2,0.8
			c0.3,0.1,0.6,0.3,0.8,0.3C8757.1,17882.4,8757.5,17882.6,8757.8,17882.9L8757.8,17882.9z M8763.7,17913.5c0.4-1.7,0.7-3.5,0.7-5.3
			c0-0.3,0-0.6-0.1-1c-0.1-0.6-0.1-1.2,0-1.8l0,0c0,0.8,0.2,2.3,1.4,2.8c0.4,0.2,0.8,0.2,1.2,0.2c1.1,0,2.3-0.4,3.1-1.2
			c0.3-0.3,0.6-0.7,0.8-1c0.1,0.2,0.1,0.3,0.1,0.5c-0.1,1.3,0.5,2.5,1.5,3.2l0.2,0.1c0.4,0.2,1.4,0.7,1.4,1c0,0,0,0.1-0.1,0.1
			c-0.6,0.4-1.3,0.8-2,1.1c-1.4,0.6-2.7,1.4-3.9,2.4c-0.8,0.9-1.8,1.6-3,1.9c-0.1,0-0.2,0-0.2,0
			C8764,17916.3,8763.3,17915.1,8763.7,17913.5z M8736.6,17909.2c-0.1-0.3-0.1-0.6-0.1-1c0-0.2,1.1-0.4,1.6-0.5
			c0.6-0.1,1.2-0.3,1.7-0.5c0.5-0.4,0.9-0.9,1.2-1.6c0.1-0.4,0.4-0.7,0.7-1c0,0,0,0,0.1,0c0.5,0,1.4,1,2,1.8
			c0.1,0.2,0.4,0.7,0.7,1.2c0.8,1.5,1.8,2.9,2.8,4.3c0.6,0.6,1.5,1.8,1.3,2.9c-0.2,0.7-0.7,1.2-1.3,1.6c-0.1,0-0.2,0-0.3,0
			c-1.2,0-3.7-1-5-1.6l-0.2-0.1c-1-0.3-2.1-0.6-3.1-0.7c-0.8-0.1-1.6-0.3-2.4-0.5c-0.2-0.2,0-0.8,0.2-1.4c0.1-0.4,0.2-0.8,0.3-1.2
			C8736.8,17910.4,8736.7,17909.8,8736.6,17909.2z"/>
	</g>
</g>
</svg>
