<?xml version="1.0" encoding="utf-8"?>
<!-- Generator: Adobe Illustrator 22.0.1, SVG Export Plug-In . SVG Version: 6.00 Build 0)  -->
<svg version="1.1" id="Layer_1" xmlns="http://www.w3.org/2000/svg" xmlns:xlink="http://www.w3.org/1999/xlink" x="0px" y="0px"
	 viewBox="0 0 60 60" enable-background="new 0 0 60 60" xml:space="preserve">
<g>
	<g id="Group_8383" transform="translate(-273 -1131)">
		<path fill="#D6EEFF" d="M315.9,1159.4l-18.1-10.5c-0.7-0.4-1.6-0.2-2.1,0.5c-0.1,0.2-0.2,0.5-0.2,0.7v20.8c0,0.8,0.7,1.5,1.5,1.5
			c0.3,0,0.5-0.1,0.7-0.2l18.1-10.5c0.7-0.4,0.9-1.2,0.6-1.9C316.3,1159.7,316.1,1159.5,315.9,1159.4z"/>
		<path fill="#288ED9" d="M296.5,1174.2c-1.4,0-2.6-1.1-2.6-2.6v-22.1c0-0.5,0.1-0.9,0.4-1.3c0.7-1.2,2.3-1.7,3.5-0.9l19.1,11.1
			c0.4,0.2,0.8,0.6,1,1c0.3,0.6,0.4,1.3,0.2,1.9c-0.2,0.6-0.6,1.2-1.2,1.5l-19.1,11.1C297.4,1174.1,297,1174.2,296.5,1174.2
			L296.5,1174.2z M296.5,1149c-0.2,0-0.4,0.1-0.5,0.3c-0.1,0.1-0.1,0.2-0.1,0.3v22.1c0,0.3,0.3,0.5,0.6,0.6c0.1,0,0.2,0,0.3-0.1
			l19.1-11.1c0.2-0.1,0.2-0.2,0.3-0.3c0-0.1,0-0.2,0-0.4c0-0.1-0.1-0.2-0.2-0.2l0,0l-19.1-11.1C296.7,1149,296.6,1149,296.5,1149z"
			/>
		<path fill="#288ED9" d="M326,1143.3c0.8-1,1.2-2.2,1.2-3.6c0-3.2-2.6-5.8-5.8-5.8c-1.6,0-3.1,0.7-4.2,1.8c-4.2-2.4-9-3.7-14.2-3.7
			c-16,0-29,13-29,29s13,29,29,29s29-13,29-29C332.1,1154.3,329.8,1148.2,326,1143.3z M321.5,1135.9c2.1,0,3.8,1.7,3.8,3.8
			c0,0.7-0.2,1.4-0.6,2c-1.7-1.9-3.6-3.5-5.6-4.9C319.7,1136.3,320.6,1135.9,321.5,1135.9z M317.9,1138.4c2,1.3,3.8,2.9,5.3,4.6
			c-0.5,0.3-1.1,0.5-1.8,0.5c-2.1,0-3.8-1.7-3.8-3.8C317.7,1139.3,317.8,1138.8,317.9,1138.4z M303.1,1188c-14.9,0-27-12.1-27-27
			s12.1-27,27-27c4.7,0,9.2,1.2,13.1,3.4c-0.3,0.7-0.5,1.5-0.5,2.3c0,3.2,2.6,5.8,5.8,5.8c1.1,0,2.2-0.3,3.1-0.9
			c3.5,4.5,5.5,10.2,5.5,16.4C330.1,1175.9,318,1188,303.1,1188z"/>
		<circle fill="#D6EEFF" cx="321.5" cy="1139.7" r="3.8"/>
	</g>
</g>
</svg>
