<?xml version="1.0" encoding="utf-8"?>
<!-- Generator: Adobe Illustrator 22.0.1, SVG Export Plug-In . SVG Version: 6.00 Build 0)  -->
<svg version="1.1" id="Layer_1" xmlns="http://www.w3.org/2000/svg" xmlns:xlink="http://www.w3.org/1999/xlink" x="0px" y="0px"
	 viewBox="0 0 60 60" enable-background="new 0 0 60 60" xml:space="preserve">
<g>
	<g id="Group_7277" transform="translate(786 -17869.201)">
		<g id="Ellipse_1400" transform="translate(288 1174.296)">
			<g>
				<ellipse fill="#D6EEFF" cx="-1044" cy="16745.6" rx="23.8" ry="6"/>
			</g>
			<g>
				<path fill="#288ED9" d="M-1044,16751.5c-8.2,0-23.8-1.2-23.8-6s15.6-6,23.8-6s23.8,1.2,23.8,6S-1035.8,16751.5-1044,16751.5z
					 M-1044,16741.6c-14.1,0-21.8,2.6-21.8,4s7.7,4,21.8,4c14.1,0,21.8-2.6,21.8-4S-1029.9,16741.6-1044,16741.6z"/>
			</g>
		</g>
		<g id="Group_6181" transform="translate(295.327 1134.002)">
			<g id="Group_5544" transform="translate(0 0)">
				<g id="Path_4934">
					<path fill="#FFFFFF" d="M-1034.4,16756.3c0,9.2-16.7,29.4-16.7,29.4s-16.7-20.1-16.7-29.4c0-9.2,7.5-16.7,16.7-16.7
						S-1034.4,16747.1-1034.4,16756.3z"/>
					<path fill="#288ED9" d="M-1051.1,16787.2l-0.8-0.9c-0.7-0.8-16.9-20.5-16.9-30c0-9.8,7.9-17.7,17.7-17.7s17.7,7.9,17.7,17.7
						c0,9.5-16.2,29.2-16.9,30L-1051.1,16787.2z M-1051.1,16740.6c-8.7,0-15.7,7-15.7,15.7c0,7.6,12.4,23.7,15.7,27.8
						c3.3-4.1,15.7-20.1,15.7-27.8C-1035.4,16747.6-1042.5,16740.6-1051.1,16740.6z"/>
				</g>
				<g id="Ellipse_1173" transform="translate(6.804 7.093)">
					<g>
						<ellipse fill="#D6EEFF" cx="-1058.3" cy="16749.1" rx="9.5" ry="9.5"/>
					</g>
					<g>
						<path fill="#288ED9" d="M-1058.3,16758.5c-5.2,0-9.5-4.2-9.5-9.5c0-5.2,4.2-9.5,9.5-9.5c5.2,0,9.5,4.2,9.5,9.5
							C-1048.9,16754.3-1053.1,16758.5-1058.3,16758.5z M-1058.3,16741.6c-4.1,0-7.5,3.3-7.5,7.5c0,4.1,3.3,7.5,7.5,7.5
							s7.5-3.3,7.5-7.5C-1050.9,16744.9-1054.2,16741.6-1058.3,16741.6z"/>
					</g>
				</g>
			</g>
		</g>
	</g>
</g>
</svg>
