<?xml version="1.0" encoding="utf-8"?>
<!-- Generator: Adobe Illustrator 22.0.1, SVG Export Plug-In . SVG Version: 6.00 Build 0)  -->
<svg version="1.1" id="Layer_1" xmlns="http://www.w3.org/2000/svg" xmlns:xlink="http://www.w3.org/1999/xlink" x="0px" y="0px"
	 viewBox="0 0 60 60" enable-background="new 0 0 60 60" xml:space="preserve">
<g>
	<g id="Group_8361" transform="translate(-1103.035 -1377.555)">
		<path fill="#D6EEFF" d="M1109.8,1377.7h24.8c2.7,0,4.8,2.1,4.8,4.8v42c0,2.7-2.1,4.8-4.8,4.8h-24.8c-2.7,0-4.8-2.1-4.8-4.8v-42
			C1105,1379.8,1107.2,1377.7,1109.8,1377.7z"/>
		<path fill="#FFFFFF" d="M1133.7,1428.6h-22.8c-2.4,0-4.4-2-4.4-4.4v-8.2l0,0h31.6l0,0v8.2
			C1138.1,1426.7,1136.1,1428.6,1133.7,1428.6z"/>
		<circle fill="#288ED9" cx="1122.3" cy="1422.3" r="2.6"/>
		<path fill="#FFFFFF" d="M1110.8,1378h23c2.5,0,4.4,2,4.4,4.4v3.5l0,0h-31.8l0,0v-3.5C1106.4,1380,1108.3,1378,1110.8,1378z"/>
		<path fill="#288ED9" d="M1134.6,1377.7h-24.8c-2.7,0-4.8,2.1-4.8,4.8v1.9v33v7.1l0,0c0,2.7,2.1,4.8,4.8,4.8h24.8
			c2.7,0,4.8-2.1,4.8-4.8l0,0v-7.1v-33v-1.9C1139.4,1379.8,1137.3,1377.7,1134.6,1377.7z M1106.9,1382.5c0-1.6,1.2-2.9,2.9-2.9h24.8
			c1.6,0,2.9,1.2,2.9,2.9v1.9h-30.5V1382.5z M1137.5,1386.2v29.2h-30.5v-29.2H1137.5z M1134.6,1427.3h-24.8c-1.6,0-2.9-1.2-2.9-2.9
			v-7.1h30.5v7.1C1137.5,1426,1136.2,1427.3,1134.6,1427.3z"/>
		<path fill="#FFFFFF" d="M1132.6,1390.4h25.6c1.6,0,2.9,1.2,2.9,2.9v41.3c0,1.6-1.2,2.9-2.9,2.9h-25.6c-1.6,0-2.9-1.2-2.9-2.9
			v-41.3C1129.7,1391.7,1131,1390.4,1132.6,1390.4z"/>
		<path fill="#D6EEFF" d="M1157.3,1436.5h-23.8c-1.4,0-2.7-1.1-2.7-2.3l0,0v-5.9l0,0h29.2l0,0v5.9
			C1160,1435.4,1158.7,1436.5,1157.3,1436.5z"/>
		<path fill="#288ED9" d="M1158.2,1390.4h-25.6c-1.6,0-2.9,1.2-2.9,2.9v35.9v5.4c0,1.6,1.2,2.9,2.9,2.9h25.6c1.6,0,2.9-1.2,2.9-2.9
			v-5.4v-35.9C1161,1391.8,1159.8,1390.4,1158.2,1390.4z M1159.1,1434.5c0,0.6-0.4,1-1,1h-25.6c-0.6,0-1-0.4-1-1v-5.4h27.5V1434.5z
			 M1131.6,1427.3v-34c0-0.6,0.4-1,1-1h25.6c0.6,0,1,0.4,1,1v34H1131.6z"/>
		<path fill="#288ED9" d="M1142.7,1431.2h5.5c0.7,0,1.1,0.5,1.1,1.1l0,0c0,0.7-0.5,1.1-1.1,1.1h-5.5c-0.7,0-1.1-0.5-1.1-1.1l0,0
			C1141.4,1431.7,1142,1431.2,1142.7,1431.2z"/>
	</g>
</g>
</svg>
