<?xml version="1.0" encoding="utf-8"?>
<!-- Generator: Adobe Illustrator 22.0.1, SVG Export Plug-In . SVG Version: 6.00 Build 0)  -->
<svg version="1.1" id="Layer_1" xmlns="http://www.w3.org/2000/svg" xmlns:xlink="http://www.w3.org/1999/xlink" x="0px" y="0px"
	 viewBox="0 0 60 60" enable-background="new 0 0 60 60" xml:space="preserve">
<g>
	<g id="Group_7084" transform="translate(-39 -17913)">
		<g id="Path_5977">
			<path fill="#D6EEFF" d="M84.9,17968.5v-45.4c0-1.8-1.5-3.3-3.3-3.3h-0.9c-1.8,0-3.3,1.5-3.3,3.3v11.4h-1.1v-15.6
				c0-1.8-1.5-3.3-3.3-3.3h-0.9c-1.8,0-3.3,1.5-3.3,3.3l0,0v15.6h-1.1v-13c0-1.8-1.5-3.3-3.3-3.3l0,0h-0.9c-1.8,0-3.3,1.5-3.3,3.3
				l0,0v13h-0.9v-8.9c0-1.8-1.5-3.3-3.3-3.3l0,0h-0.9c-1.8,0-3.3,1.5-3.3,3.3l0,0v42.9c0,0.5,0.4,0.9,0.9,0.9H84
				C84.5,17969.4,84.9,17969,84.9,17968.5L84.9,17968.5z"/>
			<path fill="#288ED9" d="M52.7,17970.4c-1,0-1.9-0.8-1.9-1.9v-42.9c0-2.3,1.9-4.3,4.3-4.3H56c1.3,0,2.5,0.6,3.3,1.6v-1.4
				c0-2.3,1.9-4.3,4.3-4.3h0.9c1.3,0,2.5,0.6,3.3,1.6l0,0c0-2.3,1.9-4.3,4.3-4.3H73c2.3,0,4.3,1.9,4.3,4.3v1.6c0.8-1,2-1.6,3.3-1.6
				h0.9c2.3,0,4.3,1.9,4.3,4.3v45.4c0,1-0.8,1.9-1.9,1.9l0,0H52.7L52.7,17970.4z M84,17968.4L84,17968.4L84,17968.4L84,17968.4z
				 M52.8,17968.4h31.1v-45.3c0-1.2-1-2.3-2.3-2.3h-0.9c-1.2,0-2.3,1-2.3,2.3v12.4h-3.1v-16.6c0-1.2-1-2.3-2.3-2.3h-0.9
				c-1.2,0-2.3,1-2.3,2.3v16.6h-3.1v-14c0-1.2-1-2.3-2.3-2.3h-0.9c-1.2,0-2.3,1-2.3,2.3v14h-2.9v-9.9c0-1.2-1-2.3-2.3-2.3h-0.9
				c-1.2,0-2.3,1-2.3,2.3V17968.4z"/>
		</g>
		<g id="Rectangle_3025" transform="translate(556 1189)">
			<g>
				<path fill="#FFFFFF" d="M-511.7,16738.4h47c0.6,0,1,0.4,1,1v22c0,0.6-0.4,1-1,1h-47c-0.6,0-1-0.4-1-1v-22
					C-512.7,16738.8-512.3,16738.4-511.7,16738.4z"/>
			</g>
			<g>
				<path fill="#288ED9" d="M-463.7,16762.4h-49v-24h49V16762.4z M-510.7,16760.4h45v-20h-45V16760.4z"/>
			</g>
		</g>
		<g id="Group_7082" transform="translate(572.639 1193.368)">
			<g id="Ellipse_1361">
				<ellipse fill="#D6EEFF" cx="-504.9" cy="16746.1" rx="7.8" ry="7.8"/>
			</g>
		</g>
		<g id="Path_5991">
			<path fill="#FFFFFF" d="M84.9,17968.5v-26.2c0-2.5-2-4.4-4.4-4.4l0,0h-0.7c-2.5,0-4.4,2-4.4,4.4l0,0v8.4H64.5
				c-7,0-12.7,5.7-12.7,12.7l0,0v5.1c0,0.5,0.4,0.9,0.9,0.9l0,0h31.4C84.5,17969.4,84.9,17969,84.9,17968.5z"/>
			<path fill="#288ED9" d="M52.6,17970.4c-1,0-1.9-0.8-1.9-1.9v-5.1c0-7.6,6.2-13.7,13.7-13.7h9.9v-7.4c0-3,2.4-5.4,5.4-5.4h0.7
				c3,0,5.4,2.4,5.4,5.4v26.2c0,1-0.8,1.9-1.9,1.9H52.6z M52.7,17968.4h31.1v-26c0-1.9-1.5-3.4-3.4-3.4h-0.7c-1.9,0-3.4,1.5-3.4,3.4
				v9.4H64.5c-6.5,0-11.7,5.3-11.7,11.7L52.7,17968.4L52.7,17968.4z"/>
		</g>
		<g id="Line_641">
			<rect x="49.8" y="17932.9" fill="#288ED9" width="9" height="2"/>
		</g>
		<g id="Line_642">
			<rect x="49.8" y="17936.9" fill="#288ED9" width="7" height="2"/>
		</g>
		<g id="Line_643">
			<rect x="49.8" y="17943.9" fill="#288ED9" width="9" height="2"/>
		</g>
		<g id="Path_5992">
			<path fill="#288ED9" d="M69,17940.9c0-0.3-0.1-0.6-0.3-0.8c-0.3-0.3-0.6-0.5-1-0.6c-0.4-0.1-0.7-0.3-1.1-0.5
				c-0.8-0.4-1.3-1.2-1.3-2.1c0-0.6,0.2-1.1,0.6-1.5c0.4-0.4,1-0.7,1.5-0.7v-1.2h0.9v1.2c0.6,0.1,1.1,0.4,1.5,0.8
				c0.4,0.5,0.6,1.2,0.5,1.8h-1.4c0-0.4-0.1-0.8-0.3-1.1c-0.2-0.3-0.5-0.4-0.9-0.4c-0.3,0-0.6,0.1-0.8,0.3c-0.2,0.2-0.3,0.5-0.3,0.8
				s0.1,0.6,0.3,0.8c0.3,0.3,0.6,0.4,1,0.6c0.4,0.1,0.8,0.3,1.1,0.5c0.3,0.1,0.5,0.3,0.7,0.5s0.3,0.4,0.4,0.7s0.2,0.6,0.2,0.9
				c0,0.6-0.2,1.1-0.6,1.5c-0.4,0.4-1,0.7-1.6,0.7v1.1h-0.8v-1.1c-0.7,0-1.3-0.3-1.7-0.8s-0.6-1.1-0.6-1.8h1.3
				c0,0.4,0.1,0.8,0.4,1.1s0.6,0.4,1,0.4s0.7-0.1,1-0.3C68.9,17941.6,69,17941.3,69,17940.9z"/>
			<path fill="#288ED9" d="M68.4,17944.5h-1.3v-1.1c-0.6-0.1-1.2-0.4-1.7-0.8c-0.5-0.6-0.7-1.2-0.7-1.9v-0.2h1.8v0.2
				c0,0.3,0.1,0.7,0.3,1c0.2,0.2,0.5,0.3,0.8,0.3c0.3,0,0.6-0.1,0.9-0.3c0.2-0.2,0.3-0.4,0.3-0.7l0,0c0-0.2-0.1-0.5-0.2-0.6
				c-0.3-0.2-0.6-0.4-0.9-0.5c-0.4-0.1-0.8-0.3-1.1-0.5c-0.9-0.4-1.4-1.3-1.4-2.3c0-0.6,0.2-1.2,0.6-1.7c0.4-0.4,0.9-0.7,1.5-0.8
				v-1.3h1.3v1.3c0.6,0.1,1.1,0.4,1.5,0.9c0.4,0.6,0.6,1.2,0.6,1.9v0.2h-1.8v-0.2c0-0.4-0.1-0.7-0.3-1c-0.2-0.2-0.4-0.3-0.7-0.3
				c-0.3,0-0.5,0.1-0.7,0.2c-0.2,0.2-0.3,0.4-0.2,0.7c0,0.3,0.1,0.5,0.2,0.7c0.3,0.2,0.6,0.4,0.9,0.5c0.4,0.1,0.8,0.3,1.2,0.5
				c0.3,0.1,0.5,0.3,0.7,0.6c0.2,0.2,0.4,0.5,0.5,0.7c0.1,0.3,0.2,0.6,0.2,1c0,0.6-0.2,1.2-0.6,1.7c-0.4,0.4-1,0.7-1.6,0.7
				L68.4,17944.5L68.4,17944.5z M67.5,17944.1H68v-1.1h0.2c0.6,0,1.1-0.3,1.5-0.6c0.4-0.4,0.5-0.9,0.5-1.4c0-0.3,0-0.6-0.1-0.8
				s-0.2-0.4-0.4-0.6c-0.2-0.2-0.4-0.3-0.6-0.5c-0.4-0.2-0.7-0.3-1.1-0.5c-0.4-0.1-0.8-0.3-1.1-0.6c-0.3-0.3-0.4-0.6-0.4-0.9
				s0.1-0.7,0.4-1s0.6-0.4,1-0.4s0.8,0.2,1,0.5s0.3,0.7,0.4,1h1c0-0.5-0.2-1-0.5-1.5c-0.3-0.4-0.8-0.7-1.4-0.8h-0.2v-1.2h-0.5v1.2
				h-0.2c-0.5,0-1,0.3-1.4,0.7c-0.3,0.4-0.5,0.9-0.5,1.4c0,0.8,0.5,1.6,1.2,1.9c0.4,0.2,0.7,0.3,1.1,0.5c0.4,0.1,0.8,0.3,1.1,0.6
				c0.2,0.3,0.4,0.6,0.4,0.9c0,0.4-0.1,0.7-0.4,1s-0.7,0.4-1.1,0.4s-0.8-0.1-1.1-0.5c-0.3-0.3-0.4-0.7-0.4-1h-1
				c0,0.5,0.2,1.1,0.6,1.5c0.4,0.4,1,0.7,1.6,0.7h0.2v1.1H67.5z"/>
		</g>
	</g>
</g>
</svg>
