<?xml version="1.0" encoding="utf-8"?>
<!-- Generator: Adobe Illustrator 22.0.1, SVG Export Plug-In . SVG Version: 6.00 Build 0)  -->
<svg version="1.1" id="Layer_1" xmlns="http://www.w3.org/2000/svg" xmlns:xlink="http://www.w3.org/1999/xlink" x="0px" y="0px"
	 viewBox="0 0 60 60" enable-background="new 0 0 60 60" xml:space="preserve">
<g>
	<g id="Group_7081" transform="translate(-38 -17911)">
		<g id="Ellipse_1352" transform="translate(553.774 1429.732)">
			<g>
				<circle fill="#FFFFFF" cx="-488.2" cy="16510.3" r="24.5"/>
			</g>
			<g>
				<path fill="#288ED9" d="M-488.2,16534.8c-13.5,0-24.5-11-24.5-24.5c0-13.5,11-24.5,24.5-24.5s24.5,11,24.5,24.5
					C-463.7,16523.8-474.6,16534.8-488.2,16534.8z M-488.2,16487.7c-12.5,0-22.6,10.2-22.6,22.6c0,12.5,10.2,22.6,22.6,22.6
					c12.5,0,22.6-10.2,22.6-22.6C-465.5,16497.9-475.7,16487.7-488.2,16487.7z"/>
			</g>
		</g>
		<g id="Ellipse_1353" transform="translate(572.701 1425)">
			<g>
				<ellipse fill="#FFFFFF" cx="-507.1" cy="16492.3" rx="6.3" ry="6.3"/>
			</g>
			<g>
				<path fill="#288ED9" d="M-507.1,16498.7c-3.5,0-6.3-2.9-6.3-6.3s2.9-6.3,6.3-6.3c3.5,0,6.3,2.9,6.3,6.3
					S-503.6,16498.7-507.1,16498.7z M-507.1,16487.9c-2.5,0-4.4,2-4.4,4.4s2,4.4,4.4,4.4c2.4,0,4.4-2,4.4-4.4
					C-502.6,16489.9-504.7,16487.9-507.1,16487.9z"/>
			</g>
		</g>
		<g id="Ellipse_1354" transform="translate(572.701 1472.318)">
			<g>
				<ellipse fill="#D6EEFF" cx="-507.1" cy="16490.4" rx="6.3" ry="6.3"/>
			</g>
			<g>
				<path fill="#288ED9" d="M-507.1,16496.7c-3.5,0-6.3-2.9-6.3-6.3s2.9-6.3,6.3-6.3c3.5,0,6.3,2.9,6.3,6.3
					S-503.6,16496.7-507.1,16496.7z M-507.1,16486c-2.5,0-4.4,2-4.4,4.4s2,4.4,4.4,4.4c2.4,0,4.4-2,4.4-4.4
					C-502.6,16488-504.7,16486-507.1,16486z"/>
			</g>
		</g>
		<g id="Ellipse_1355" transform="translate(549.787 1445.878) rotate(-60)">
			<g>
				
					<ellipse transform="matrix(-0.5 -0.866 0.866 -0.5 -28549.1719 -873.2303)" fill="#D6EEFF" cx="-14526.7" cy="7804.8" rx="6.3" ry="6.3"/>
			</g>
			<g>
				<path fill="#288ED9" d="M-14532,7808.2c-0.6-1-0.9-2-0.9-3.2c0-1.7,0.7-3.3,1.8-4.5c1.2-1.2,2.8-1.8,4.5-1.8l0,0
					c3.5,0,6.3,2.9,6.3,6.3c0,3.5-2.9,6.3-6.3,6.3C-14528.8,7811.4-14530.9,7810.2-14532,7808.2z M-14522.7,7802.9
					c-0.8-1.3-2.2-2.2-3.8-2.2l0,0c-1.2,0-2.3,0.5-3.2,1.3c-0.9,0.9-1.3,1.9-1.3,3.2c0,2.5,2,4.4,4.4,4.4s4.4-2,4.4-4.4
					C-14522,7804.3-14522.3,7803.5-14522.7,7802.9z"/>
			</g>
		</g>
		<g id="Ellipse_1357" transform="translate(556.412 1476.162) rotate(-120)">
			<g>
				
					<ellipse transform="matrix(0.5 -0.866 0.866 0.5 510.8537 -16475.2695)" fill="#FFFFFF" cx="-14012.5" cy="-8680" rx="6.3" ry="6.3"/>
			</g>
			<g>
				<path fill="#288ED9" d="M-14018.2-8682.9c1.1-1.9,3.2-3.2,5.5-3.2l0,0c1.7,0,3.3,0.7,4.5,1.8s1.8,2.8,1.8,4.5s-0.7,3.3-1.8,4.5
					c-1.2,1.2-2.8,1.8-4.5,1.8c-3.5,0-6.3-2.9-6.3-6.3C-14019.1-8680.8-14018.8-8681.9-14018.2-8682.9z M-14012.7-8684.1
					c-1.2,0-2.3,0.5-3.2,1.3c-0.9,0.9-1.3,1.9-1.3,3.2c0,2.4,2,4.4,4.4,4.4c1.2,0,2.3-0.5,3.2-1.3c0.9-0.9,1.3-1.9,1.3-3.2
					c0-1.2-0.5-2.3-1.3-3.2S-14011.5-8684.1-14012.7-8684.1L-14012.7-8684.1z"/>
			</g>
		</g>
		<g id="Ellipse_1358" transform="translate(597.391 1452.503) rotate(-120)">
			<g>
				
					<ellipse transform="matrix(0.5 -0.866 0.866 0.5 512.5492 -16476.248)" fill="#D6EEFF" cx="-14012.5" cy="-8682" rx="6.3" ry="6.3"/>
			</g>
			<g>
				<path fill="#288ED9" d="M-14018.2-8684.8c1.1-1.9,3.2-3.2,5.5-3.2c3.5,0,6.3,2.9,6.3,6.3c0,3.5-2.9,6.3-6.3,6.3
					c-3.5,0-6.3-2.9-6.3-6.3C-14019.1-8682.8-14018.8-8683.9-14018.2-8684.8z M-14008.9-8679.4c0.4-0.7,0.6-1.4,0.6-2.2
					c0-2.4-2-4.4-4.4-4.4s-4.4,2-4.4,4.4s2,4.4,4.4,4.4C-14011.1-8677.2-14009.7-8678.1-14008.9-8679.4z"/>
			</g>
		</g>
		<g id="Line_638">
			<rect x="65.1" y="17926.9" fill="#288ED9" width="1.9" height="27.2"/>
		</g>
		<g id="Group_5450_1_" transform="translate(589.278 1461.49)">
			<g id="Group_7059" transform="translate(0 0)">
				<g id="Subtraction_68_2_">
					<path fill="#FFFFFF" d="M-499.4,16494.9c3.6,1.6,5.8,5.3,5.8,9.3c0,3-5.4,4.3-10.4,4.3s-10.4-1.3-10.4-4.3
						c0-3.9,2.3-7.6,5.8-9.3"/>
					<path fill="#288ED9" d="M-503.8,16509.5c-5.2,0-11.3-1.3-11.3-5.3c0-4.3,2.5-8.2,6.3-10.2l0.9,1.7c-3.3,1.6-5.3,4.8-5.3,8.4
						c0,1.9,4.1,3.4,9.4,3.4c5.3,0,9.4-1.4,9.4-3.4c0-3.6-2-6.9-5.3-8.4l0.8-1.7c3.9,1.8,6.4,5.8,6.4,10.2
						C-492.6,16508.1-498.6,16509.5-503.8,16509.5z"/>
				</g>
				<g id="Ellipse_875_1_" transform="translate(4.172 0)">
					<g id="Ellipse_1359">
						<ellipse fill="none" cx="-508" cy="16490.8" rx="6.3" ry="6.3"/>
					</g>
					<g id="Ellipse_1360">
						<ellipse fill="#FFFFFF" cx="-508" cy="16490.8" rx="5.7" ry="5.7"/>
						<path fill="#288ED9" d="M-508,16497.4c-3.6,0-6.6-3-6.6-6.6c0-3.6,3-6.6,6.6-6.6s6.6,3,6.6,6.6
							C-501.4,16494.5-504.4,16497.4-508,16497.4z M-508,16486.1c-2.6,0-4.7,2.1-4.7,4.7s2.1,4.7,4.7,4.7c2.6,0,4.7-2.1,4.7-4.7
							S-505.4,16486.1-508,16486.1z"/>
					</g>
				</g>
			</g>
		</g>
		<g id="Line_639">
			
				<rect x="52.6" y="17939.8" transform="matrix(0.8747 -0.4847 0.4847 0.8747 -8687.4385 2280.3491)" fill="#288ED9" width="27.2" height="1.9"/>
		</g>
		<g id="Line_640">
			
				<rect x="64.6" y="17927.1" transform="matrix(0.5 -0.866 0.866 0.5 -15504.2402 9026.9043)" fill="#288ED9" width="1.9" height="27.2"/>
		</g>
		<g id="Path_5976" transform="translate(573.648 1449.605)">
			<g>
				<path fill="#D6EEFF" d="M-507.6,16495.8c-2.7,0-5-2.2-5-5c0-2.7,2.2-5,5-5c2.8,0,5,2.2,5,5
					C-502.7,16493.6-504.9,16495.8-507.6,16495.8z"/>
			</g>
			<g>
				<path fill="#288ED9" d="M-507.6,16494.9c2.2,0,4-1.8,4-4c0-2.2-1.8-4-4-4c-2.2,0-4,1.8-4,4
					C-511.6,16493-509.8,16494.9-507.6,16494.9 M-507.6,16496.8c-3.3,0-5.9-2.7-5.9-5.9c0-3.3,2.7-5.9,5.9-5.9
					c3.3,0,5.9,2.7,5.9,5.9C-501.7,16494.1-504.3,16496.8-507.6,16496.8z"/>
			</g>
		</g>
	</g>
</g>
</svg>
