<?xml version="1.0" encoding="utf-8"?>
<!-- Generator: Adobe Illustrator 22.0.1, SVG Export Plug-In . SVG Version: 6.00 Build 0)  -->
<svg version="1.1" id="Layer_1" xmlns="http://www.w3.org/2000/svg" xmlns:xlink="http://www.w3.org/1999/xlink" x="0px" y="0px"
	 viewBox="0 0 58 53.7" enable-background="new 0 0 58 53.7" xml:space="preserve">
<g id="Group_6066" transform="translate(-7187 -17863)">
	<g id="coding" transform="translate(832 1132.07)">
		<g id="Path_4917">
			<path fill="#FFFFFF" d="M6390.4,16779.1h-13.8l2-7.9h9.8L6390.4,16779.1z"/>
			<path fill="#288ED9" d="M6391.7,16780.1h-16.3l2.5-9.9h11.4L6391.7,16780.1z M6377.9,16778.1h11.2l-1.5-5.9h-8.3L6377.9,16778.1z
				"/>
		</g>
		<g id="Path_4918">
			<path fill="#FFFFFF" d="M6412,16763.9h-56v-28.7c0-1.8,1.5-3.3,3.4-3.3h49.2c1.8,0,3.4,1.5,3.4,3.3V16763.9z"/>
			<path fill="#288ED9" d="M6413,16764.9h-58v-29.7c0-2.4,2-4.3,4.4-4.3h49.2c2.4,0,4.3,1.9,4.4,4.3V16764.9z M6357,16762.9h54
				v-27.7c0-1.3-1.1-2.3-2.4-2.3h-49.3c-1.3,0-2.4,1-2.4,2.3V16762.9z"/>
		</g>
		<g id="Path_4919">
			<path fill="#D6EEFF" d="M6408.6,16771.3h-49.2c-1.8,0-3.3-1.4-3.4-3.2v-4.2h56v4.2C6412,16769.9,6410.4,16771.4,6408.6,16771.3"
				/>
			<path fill="#288ED9" d="M6408.7,16772.3C6408.7,16772.3,6408.6,16772.3,6408.7,16772.3L6408.7,16772.3l-49.3,0c0,0-0.1,0-0.1,0
				c-2.3,0-4.2-1.9-4.3-4.2v-5.2h58v5.2C6413,16770.5,6411,16772.3,6408.7,16772.3z M6408.6,16770.3v1V16770.3
				C6408.7,16770.3,6408.7,16770.3,6408.6,16770.3c1.3,0,2.4-1,2.4-2.3v-3.2h-54v3.2c0,1.2,1.1,2.2,2.3,2.2c0,0,0,0,0,0H6408.6z"/>
		</g>
		<g id="Rectangle_2326" transform="translate(13.791 46.675)">
			<g>
				<path fill="#D6EEFF" d="M6363,16729.9h12.9c4.4,0,8,3.6,8,8l0,0l0,0H6355l0,0l0,0C6355,16733.5,6358.6,16729.9,6363,16729.9z"/>
			</g>
			<g>
				<path fill="#288ED9" d="M6382.3,16737.9h-25.7c-0.9,0-1.6-0.7-1.6-1.6c0-3.5,2.9-6.4,6.4-6.4h16.1c3.5,0,6.4,2.9,6.4,6.4
					C6383.9,16737.2,6383.2,16737.9,6382.3,16737.9z M6357,16735.9h24.9c-0.2-2.2-2.1-4-4.4-4h-16.1
					C6359.1,16731.9,6357.2,16733.7,6357,16735.9z"/>
			</g>
		</g>
	</g>
	<g id="Path_4920">
		<rect x="7187.3" y="17870.9" fill="#288ED9" width="56.5" height="2"/>
	</g>
	<g id="Rectangle_2327">
		<rect x="7192.9" y="17876.6" fill="#D6EEFF" width="9" height="15"/>
	</g>
	<g id="Ellipse_1153">
		<circle fill="#288ED9" cx="7192.3" cy="17868" r="1"/>
	</g>
	<g id="Ellipse_1154">
		<circle fill="#288ED9" cx="7195.2" cy="17868" r="1"/>
	</g>
	<g id="Ellipse_1155">
		<circle fill="#288ED9" cx="7198.2" cy="17868" r="1"/>
	</g>
	<g id="Rectangle_2328">
		<rect x="7205.1" y="17876.6" fill="#D6EEFF" width="34" height="4"/>
	</g>
	<g id="Rectangle_2329">
		<rect x="7205.1" y="17883.5" fill="#D6EEFF" width="34" height="8"/>
	</g>
</g>
</svg>
