<?xml version="1.0" encoding="utf-8"?>
<!-- Generator: Adobe Illustrator 22.0.1, SVG Export Plug-In . SVG Version: 6.00 Build 0)  -->
<svg version="1.1" id="Layer_1" xmlns="http://www.w3.org/2000/svg" xmlns:xlink="http://www.w3.org/1999/xlink" x="0px" y="0px"
	 viewBox="0 0 60 60" enable-background="new 0 0 60 60" xml:space="preserve">
<g>
	<g id="ram" transform="translate(-10318 -17258)">
		<g id="Path_4911">
			<path fill="#288ED9" d="M10375.8,17279.1l-12.4-12.3c-0.5-0.5-1.2-0.5-1.7,0l0,0c-0.5,0.4-1.3,0.4-1.7-0.1
				c-0.2-0.2-0.3-0.4-0.3-0.7s0.1-0.6,0.3-0.8c0.5-0.5,0.5-1.2,0-1.7l0,0l-3-3c-0.5-0.5-1.2-0.5-1.6,0l0,0l-35,35
				c-0.5,0.5-0.5,1.2,0,1.6l0,0l3,3c0.5,0.5,1.2,0.5,1.7,0l0,0c0.5-0.4,1.3-0.4,1.7,0.1c0.2,0.2,0.3,0.4,0.3,0.7
				c0,0.3-0.1,0.6-0.3,0.8c-0.5,0.5-0.5,1.2,0,1.6l0,0l12.3,12.3c0.5,0.5,1.2,0.5,1.6,0l0,0l9.4-9.4c0.5-0.5,0.5-1.2,0-1.6l0,0
				l-2.8-2.7c-0.2-0.2-0.2-0.4,0-0.6s0.4-0.2,0.6,0l0,0l2.8,2.7c0.5,0.5,1.2,0.5,1.6,0l0,0l23.4-23.4
				C10376.2,17280.3,10376.2,17279.6,10375.8,17279.1L10375.8,17279.1z"/>
		</g>
		<g id="Path_4912">
			<path fill="#FFFFFF" d="M10371.4,17281.8l-2.7-2.7c-0.5-0.4-1.2-0.4-1.7,0c-0.4,0.5-0.4,1.2,0,1.6l2.7,2.7l-1.8,1.9l-2.7-2.7
				c-0.4-0.5-1.2-0.5-1.7,0c-0.5,0.4-0.5,1.2,0,1.7l0,0l2.7,2.7l-1.8,1.9l-2.7-2.7c-0.5-0.4-1.2-0.4-1.7,0c-0.4,0.5-0.4,1.2,0,1.6
				l2.7,2.7l-1.8,1.9l-2.7-2.7c-0.5-0.4-1.2-0.4-1.7,0c-0.4,0.5-0.4,1.2,0,1.6l2.7,2.7l-1.8,1.9l-2.7-2.7c-0.5-0.4-1.2-0.4-1.7,0
				c-0.4,0.5-0.4,1.2,0,1.6l2.7,2.7l-1.8,1.9l-2.7-2.7c-0.4-0.5-1.2-0.5-1.7,0c-0.5,0.4-0.5,1.2,0,1.7l0,0l2.7,2.7l-0.7,0.7
				l-1.9-1.9c-1.1-1.1-2.8-1.1-3.9,0c-1.1,1.1-1.1,2.8,0,3.9l0,0l0,0l1.9,1.9l-0.7,0.7l-2.7-2.7c-0.5-0.4-1.2-0.4-1.7,0
				c-0.4,0.5-0.4,1.2,0,1.6l2.7,2.7l-1.8,1.9l-2.7-2.7c-0.5-0.4-1.2-0.4-1.7,0c-0.4,0.5-0.4,1.2,0,1.6l2.7,2.7l-1.8,1.9l-10.8-10.8
				c0.8-1.7,0.1-3.8-1.6-4.7c-1-0.5-2.1-0.5-3,0l-1.5-1.5l33.3-33.3l1.5,1.5c-0.8,1.7-0.1,3.8,1.6,4.7c1,0.5,2.1,0.5,3,0l10.8,10.8
				L10371.4,17281.8z"/>
			<path fill="#FFFFFF" d="M10339.9,17313.6l-11.1-11.1l0.1-0.2c0.8-1.6,0.1-3.6-1.5-4.3c-0.9-0.4-1.9-0.4-2.8,0l-0.2,0.1l-1.8-1.8
				l33.7-33.7l1.8,1.8l-0.1,0.2c-0.8,1.6-0.1,3.6,1.5,4.3c0.9,0.4,1.9,0.4,2.8,0l0.2-0.1l11.1,11.1l-2.2,2.2l-2.9-2.9
				c-0.4-0.3-0.9-0.3-1.3,0c-0.3,0.4-0.3,0.9,0,1.3l2.8,2.8l-2.2,2.2l-2.9-2.9c-0.4-0.4-0.9-0.4-1.3,0c-0.4,0.3-0.4,0.9,0,1.3
				l2.9,2.9l-2.2,2.2l-2.9-2.9c-0.4-0.3-0.9-0.3-1.3,0c-0.3,0.4-0.3,0.9,0,1.3l2.8,2.8l-2.2,2.2l-2.9-2.9c-0.4-0.3-0.9-0.3-1.3,0
				c-0.3,0.4-0.3,0.9,0,1.3l2.8,2.8l-2.2,2.2l-2.9-2.9c-0.4-0.3-0.9-0.3-1.3,0c-0.3,0.4-0.3,0.9,0,1.3l2.8,2.8l-2.2,2.2l-2.9-2.9
				c-0.4-0.4-0.9-0.4-1.3,0c-0.2,0.2-0.3,0.4-0.3,0.6s0.1,0.5,0.3,0.7l2.9,2.9l-1.1,1.1l-2.1-2.1c-1-1-2.5-1-3.5,0
				c-0.5,0.5-0.7,1.1-0.8,1.8c0,0.7,0.2,1.3,0.7,1.8l2.1,2.1l-1.1,1.1l-2.9-2.9c-0.4-0.3-0.9-0.3-1.3,0c-0.3,0.4-0.3,0.9,0,1.3
				l2.8,2.8l-2.2,2.2l-2.9-2.9c-0.4-0.3-0.9-0.3-1.3,0c-0.3,0.4-0.3,0.9,0,1.3l2.8,2.8L10339.9,17313.6z M10329.4,17302.4l10.5,10.5
				l1.5-1.5l-2.5-2.5c-0.5-0.6-0.5-1.4,0-2c0.5-0.6,1.4-0.6,2,0l2.5,2.5l1.5-1.5l-2.5-2.5c-0.5-0.6-0.5-1.4,0-2c0.5-0.6,1.4-0.6,2,0
				l2.5,2.5l0.4-0.4l-1.8-1.8c-0.6-0.6-0.9-1.3-0.8-2.1c0-0.8,0.3-1.5,0.9-2.1c1.2-1.2,3.1-1.1,4.2,0l1.7,1.7l0.4-0.4l-2.5-2.5
				c-0.3-0.3-0.4-0.7-0.4-1.1c0-0.4,0.2-0.7,0.4-1c0.6-0.5,1.5-0.5,2,0l2.5,2.5l1.5-1.5l-2.5-2.5c-0.5-0.6-0.5-1.4,0-2
				c0.5-0.6,1.4-0.6,2,0l2.5,2.5l1.5-1.5l-2.5-2.5c-0.5-0.6-0.5-1.4,0-2c0.5-0.6,1.4-0.6,2,0l2.5,2.5l1.5-1.5l-2.5-2.5
				c-0.5-0.6-0.5-1.4,0-2c0.5-0.6,1.4-0.6,2,0l2.5,2.5l1.5-1.5l-2.5-2.5c-0.6-0.6-0.6-1.5,0-2s1.5-0.5,2,0l2.5,2.5l1.5-1.5l-2.5-2.5
				c-0.5-0.6-0.5-1.4,0-2c0.5-0.6,1.4-0.6,2,0l2.5,2.5l1.5-1.5l-10.5-10.5c-1,0.4-2.1,0.4-3.1-0.1c-1.8-0.9-2.6-3-1.8-4.8l-1.2-1.2
				l-33,33l1.2,1.2c1-0.4,2.1-0.4,3.1,0.1C10329.4,17298.4,10330.2,17300.6,10329.4,17302.4z"/>
		</g>
		<g id="Rectangle_2306">
			<path fill="#D6EEFF" d="M10341.1,17298.1l-2.8,2.8c-0.4,0.4-1,0.4-1.4,0l-3.9-3.9c-0.4-0.4-0.4-1,0-1.4l2.8-2.8
				c0.4-0.4,1-0.4,1.4,0l3.9,3.9C10341.5,17297.1,10341.5,17297.8,10341.1,17298.1z"/>
			<path fill="#288ED9" d="M10337.6,17302.1c-0.5,0-1-0.2-1.4-0.6l-3.9-3.9c-0.4-0.4-0.6-0.9-0.6-1.4s0.2-1,0.6-1.4l2.8-2.8
				c0.8-0.8,2.1-0.8,2.8,0l3.9,3.9c0.8,0.8,0.8,2.1,0,2.8l-2.8,2.8C10338.6,17301.9,10338.1,17302.1,10337.6,17302.1z
				 M10336.4,17293.4l-2.8,2.8l3.9,3.9l2.8-2.8L10336.4,17293.4z"/>
		</g>
		<g id="Rectangle_2307">
			<path fill="#D6EEFF" d="M10351,17288.1l-2.8,2.8c-0.4,0.4-1,0.4-1.4,0l-3.9-3.9c-0.4-0.4-0.4-1,0-1.4l2.8-2.8
				c0.4-0.4,1-0.4,1.4,0l3.9,3.9C10351.4,17287.1,10351.4,17287.8,10351,17288.1z"/>
			<path fill="#288ED9" d="M10347.5,17292.3c-0.5,0-1-0.2-1.4-0.6l-3.9-3.9c-0.8-0.8-0.8-2,0-2.8l2.8-2.8c0.8-0.8,2.1-0.8,2.8,0
				l3.9,3.9c0.8,0.8,0.8,2,0,2.8l-2.8,2.8C10348.6,17292.1,10348.1,17292.3,10347.5,17292.3z M10346.4,17283.6l-2.8,2.8l3.9,3.9
				l2.8-2.8L10346.4,17283.6z"/>
		</g>
		<g id="Rectangle_2308">
			<path fill="#D6EEFF" d="M10360.9,17278.3l-2.8,2.8c-0.4,0.4-1,0.4-1.4,0l-3.9-3.9c-0.4-0.4-0.4-1,0-1.4l2.8-2.8
				c0.4-0.4,1-0.4,1.4,0l3.9,3.9C10361.3,17277.3,10361.3,17277.9,10360.9,17278.3z"/>
			<path fill="#288ED9" d="M10357.4,17282.4c-0.5,0-1-0.2-1.4-0.6l-3.9-3.9c-0.8-0.8-0.8-2,0-2.8l2.8-2.8c0.4-0.4,0.9-0.6,1.4-0.6
				l0,0c0.5,0,1,0.2,1.4,0.6l3.9,3.9c0.8,0.8,0.8,2,0,2.8l-2.8,2.8C10358.5,17282.1,10357.9,17282.4,10357.4,17282.4z
				 M10356.3,17273.6l-2.8,2.8l3.9,3.9l2.8-2.8L10356.3,17273.6z"/>
		</g>
	</g>
</g>
</svg>
