<?xml version="1.0" encoding="utf-8"?>
<!-- Generator: Adobe Illustrator 21.0.0, SVG Export Plug-In . SVG Version: 6.00 Build 0)  -->
<svg version="1.1" id="Layer_1" xmlns="http://www.w3.org/2000/svg" xmlns:xlink="http://www.w3.org/1999/xlink" x="0px" y="0px"
	 viewBox="0 0 23 15" enable-background="new 0 0 23 15" xml:space="preserve">
<path d="M22.5,15h-2.9c-0.3,0-0.5-0.2-0.5-0.5v-1.8c0-0.7-0.6-1.2-1.3-1.3c-0.4,0-0.7,0.1-1,0.4
	c-0.3,0.2-0.4,0.6-0.4,0.9v1.8c0,0.3-0.2,0.5-0.5,0.5h-2.6c-0.3,0-0.5-0.2-0.5-0.5v-1.8c0-0.7-0.6-1.2-1.3-1.3
	c-0.7-0.1-1.4,0.5-1.4,1.3l0,1.8c0,0.3-0.2,0.5-0.5,0.5H7.1c-0.3,0-0.5-0.2-0.5-0.5v-1.8c0-0.4-0.2-0.7-0.4-0.9
	c-0.2-0.2-0.6-0.4-0.9-0.3c-0.4,0-0.7,0.1-1,0.4C4.1,12.1,4,12.4,4,12.7v1.8C4,14.8,3.7,15,3.5,15h-3C0.2,15,0,14.8,0,14.5V6.6
	c0-0.1,0.1-0.3,0.1-0.4c0.1-0.1,0.2-0.2,0.4-0.1c0.9,0,1.7-0.7,1.7-1.6c0-0.9-0.8-1.6-1.7-1.6c-0.1,0-0.3,0-0.4-0.1
	C0.1,2.7,0,2.6,0,2.4V0.5C0,0.2,0.2,0,0.5,0h22C22.8,0,23,0.2,23,0.5v1.9c0,0.1-0.1,0.3-0.1,0.4c-0.1,0.1-0.2,0.1-0.4,0.1
	c-0.9-0.1-1.7,0.7-1.7,1.6c0,0.9,0.8,1.6,1.7,1.6c0.1,0,0.3,0,0.4,0.1C22.9,6.4,23,6.5,23,6.6v7.9C23,14.8,22.8,15,22.5,15z
	 M20.1,14H22V7.1c-1.2-0.2-2.2-1.3-2.2-2.5c0-1.3,1-2.4,2.2-2.6V1H1v1c1.2,0.2,2.2,1.3,2.2,2.5c0,1.3-1,2.4-2.2,2.6V14h2v-1.3
	c0-0.6,0.3-1.2,0.7-1.6c0.4-0.4,1-0.6,1.6-0.6c0.6,0,1.2,0.2,1.6,0.6c0.4,0.4,0.7,1,0.7,1.6l0,1.3h1.6v-1.3c0.1-1.3,1.2-2.3,2.4-2.3
	c1.2,0,2.2,1,2.2,2.2V14h1.6v-1.3c0-0.6,0.3-1.2,0.8-1.6s1.1-0.6,1.7-0.6c1.2,0,2.2,1,2.2,2.2V14z M16.8,8h-3.3
	C13.2,8,13,7.7,13,7.5V4.3c0-0.3,0.2-0.5,0.5-0.5h3.3c0.3,0,0.5,0.2,0.5,0.5v3.1C17.3,7.7,17.1,8,16.8,8z M14,7h2.3V4.8H14V7z
	 M9.8,8H6.5C6.2,8,6,7.7,6,7.5V4.3C6,4,6.2,3.8,6.5,3.8h3.3c0.3,0,0.5,0.2,0.5,0.5v3.1C10.3,7.7,10.1,8,9.8,8z M7,7h2.3V4.8H7V7z"/>
</svg>
