<?xml version="1.0" encoding="utf-8"?>
<!-- Generator: Adobe Illustrator 22.0.1, SVG Export Plug-In . SVG Version: 6.00 Build 0)  -->
<svg version="1.1" id="Layer_1" xmlns="http://www.w3.org/2000/svg" xmlns:xlink="http://www.w3.org/1999/xlink" x="0px" y="0px"
	 viewBox="0 0 60 60" enable-background="new 0 0 60 60" xml:space="preserve">
<g>
	<path fill="none" stroke="#288ED9" stroke-width="2" d="M16.3,6.1h26.6c5.5,0,10,4.5,10,10v27.6c0,5.5-4.5,10-10,10H16.3
		c-5.5,0-10-4.5-10-10V16.1C6.3,10.5,10.7,6.1,16.3,6.1z"/>
	<path id="Subtraction_60" fill="#FFFFFF" stroke="#288ED9" stroke-width="2" d="M57.4,34.6H44.2c1-3,1-6.1,0.1-9.1h13
		c0.8,0,1.5,0.7,1.5,1.5v6.1C58.9,33.9,58.2,34.6,57.4,34.6L57.4,34.6z M15.3,34.6H2.6c-0.8,0-1.5-0.7-1.5-1.5l0,0v-6.1
		c0-0.8,0.7-1.5,1.5-1.5h12.6C14.3,28.4,14.4,31.6,15.3,34.6L15.3,34.6z"/>
	<path id="Subtraction_61" fill="#FFFFFF" stroke="#288ED9" stroke-width="2" d="M33.1,58.9h-6.1c-0.8,0-1.5-0.7-1.5-1.5v-13
		c3,0.9,6.2,0.8,9.1-0.1v13.2C34.6,58.2,33.9,58.9,33.1,58.9z M34.6,15.3L34.6,15.3c-3-1-6.1-1-9.1-0.1V2.6c0-0.8,0.7-1.5,1.5-1.5
		h6.1c0.8,0,1.5,0.7,1.5,1.5V15.3L34.6,15.3z"/>
	<path id="Subtraction_65" fill="#D6EEFF" stroke="#288ED9" stroke-width="2" stroke-linecap="round" d="M25.4,53.5L25.4,53.5
		c-9.7-1.8-17.3-9.3-19.2-18.9h9.1c-1-3-1-6.1-0.1-9.1H6.1c1.8-9.8,9.5-17.5,19.3-19.3v9.1c3-0.9,6.2-0.8,9.1,0.1V6.2
		c9.6,2,17.1,9.6,18.9,19.2h-9.1c0.9,3,0.8,6.2-0.1,9.1h9.1c-1.9,9.5-9.3,16.9-18.8,18.8v-9.1c-3,1-6.1,1-9.1,0.1L25.4,53.5
		L25.4,53.5z"/>
	<path id="Path_3417" fill="#FFFFFF" stroke="#288ED9" stroke-width="2" stroke-linecap="round" d="M29.8,14.6
		c8.4,0,15.2,6.8,15.2,15.2S38.2,45,29.8,45c-8.4,0-15.2-6.8-15.2-15.2C14.6,21.4,21.4,14.6,29.8,14.6z"/>
</g>
</svg>
