<?xml version="1.0" encoding="utf-8"?>
<!-- Generator: Adobe Illustrator 22.0.1, SVG Export Plug-In . SVG Version: 6.00 Build 0)  -->
<svg version="1.1" id="Layer_1" xmlns="http://www.w3.org/2000/svg" xmlns:xlink="http://www.w3.org/1999/xlink" x="0px" y="0px"
	 viewBox="0 0 60 60" enable-background="new 0 0 60 60" xml:space="preserve">
<g>
	<g id="Group_7670" transform="translate(-5587 -17602)">
		<g id="Rectangle_3098">
			<path fill="#D6EEFF" d="M5592,17634.7h21.3c0.6,0,1,0.4,1,1v21.3c0,0.6-0.4,1-1,1H5592c-0.6,0-1-0.4-1-1v-21.3
				C5591,17635.1,5591.4,17634.7,5592,17634.7z"/>
			<path fill="#288ED9" d="M5613.3,17659H5592c-1.1,0-2-0.9-2-2v-21.3c0-1.1,0.9-2,2-2h21.3c1.1,0,2,0.9,2,2v21.3
				C5615.3,17658.1,5614.5,17659,5613.3,17659z M5592,17635.7L5592,17635.7v21.3h21.3v-21.3H5592z"/>
		</g>
		<g id="Rectangle_3099">
			<path fill="#FFFFFF" d="M5603.7,17606h38.3c0.6,0,1,0.4,1,1v38.3c0,0.6-0.4,1-1,1h-38.3c-0.6,0-1-0.4-1-1v-38.3
				C5602.7,17606.4,5603.1,17606,5603.7,17606z"/>
			<path fill="#288ED9" d="M5642,17647.3h-38.3c-1.1,0-2-0.9-2-2v-38.3c0-1.1,0.9-2,2-2h38.3c1.1,0,2,0.9,2,2v38.3
				C5644,17646.4,5643.1,17647.3,5642,17647.3z M5603.7,17607L5603.7,17607v38.3h38.3v-38.3H5603.7z"/>
		</g>
		<g id="Group_7253" transform="translate(239.875 1141.612)">
			<g id="Path_6050">
				<path fill="#288ED9" d="M5373.5,16494.9l-0.4-0.7l-0.8-0.9l0.1-0.1c0.2-0.2,1.3-1.3,2.3-2.3c0.7-0.7,1.5-1.5,2.1-2.2
					c2-2,4.2-4.3,6.6-6.6c2.5-2.5,5-5,7.3-7.4l1.4,1.4c-2.3,2.3-4.8,4.9-7.3,7.3c-2.3,2.3-4.6,4.6-6.6,6.6c-0.6,0.6-1.4,1.4-2.1,2.2
					C5373.8,16494.8,5373.7,16494.8,5373.5,16494.9z"/>
			</g>
			<g id="Path_6049">
				<polygon fill="#288ED9" points="5393.1,16487.1 5391.1,16487.1 5391.1,16476 5380,16476 5380,16474 5393.1,16474 				"/>
			</g>
		</g>
	</g>
</g>
</svg>
