<?xml version="1.0" encoding="utf-8"?>
<!-- Generator: Adobe Illustrator 22.0.1, SVG Export Plug-In . SVG Version: 6.00 Build 0)  -->
<svg version="1.1" id="Layer_1" xmlns="http://www.w3.org/2000/svg" xmlns:xlink="http://www.w3.org/1999/xlink" x="0px" y="0px"
	 viewBox="0 0 61.1 55.8" enable-background="new 0 0 61.1 55.8" xml:space="preserve">
<g id="Group_7276" transform="translate(-7187 -18119)">
	<g id="Group_7097" transform="translate(473 -1083.93)">
		<g id="Group_5385" transform="translate(-79 150)">
			<g id="Path_4726">
				<path fill="#D6EEFF" d="M6837,19060.4v38.4c0,0.9-0.7,1.6-1.6,1.6l0,0h2.4c0.9,0,1.6-0.7,1.6-1.6c0,0,0,0,0,0v-38.4H6837z"/>
			</g>
			<g id="Group_5310" transform="translate(4 43.089)">
				<g id="Path_4737">
					<path fill="#288ED9" d="M6817.7,19033.1c0,0.4-0.3,0.7-0.7,0.7c-0.4,0-0.7-0.3-0.7-0.7s0.3-0.7,0.7-0.7
						C6817.4,19032.4,6817.7,19032.7,6817.7,19033.1C6817.7,19033.1,6817.7,19033.1,6817.7,19033.1"/>
				</g>
				<g id="Path_4738">
					<path fill="#288ED9" d="M6798.9,19041.1c-1.6,0-2.9-1.3-2.9-2.9c0-0.4,0.3-0.7,0.7-0.7c0.4,0,0.7,0.3,0.7,0.7c0,0,0,0,0,0.1
						c0,0.8,0.6,1.4,1.4,1.4s1.4-0.6,1.4-1.4c0-0.8-0.6-1.4-1.4-1.4c-1.6,0-2.9-1.3-2.9-2.9c0-1.6,1.3-2.9,2.9-2.9s2.9,1.3,2.9,2.9
						l0,0c0,0.4-0.3,0.7-0.7,0.7c-0.4,0-0.7-0.3-0.7-0.7c0-0.8-0.6-1.4-1.4-1.4s-1.4,0.6-1.4,1.4c0,0.8,0.6,1.4,1.4,1.4
						c1.6,0,2.9,1.3,2.9,2.9C6801.8,19039.8,6800.5,19041.1,6798.9,19041.1L6798.9,19041.1z"/>
				</g>
				<g id="Path_4739">
					<path fill="#288ED9" d="M6806.9,19041.1c-2,0-3.6-1.6-3.6-3.6s1.6-3.6,3.6-3.6c1,0,2,0.4,2.7,1.2c0.3,0.3,0.2,0.7,0,1
						c-0.3,0.3-0.7,0.3-1,0c0,0,0,0,0,0c-0.8-0.9-2.2-1-3.1-0.2c-0.9,0.8-1,2.2-0.2,3.1c0.8,0.9,2.2,1,3.1,0.2
						c0.1-0.1,0.1-0.1,0.2-0.2c0.3-0.3,0.7-0.3,1-0.1s0.3,0.7,0.1,1c0,0,0,0,0,0C6808.9,19040.6,6807.9,19041.1,6806.9,19041.1z"/>
				</g>
				<g id="Path_4740">
					<path fill="#288ED9" d="M6811.9,19041.1c-0.4,0-0.7-0.3-0.7-0.7l0,0v-5.8c0-0.4,0.3-0.7,0.7-0.7c0.4,0,0.7,0.3,0.7,0.7
						c0,0,0,0,0,0.1v5.8C6812.7,19040.8,6812.3,19041.1,6811.9,19041.1z"/>
				</g>
				<g id="Path_4741">
					<path fill="#288ED9" d="M6811.9,19037.5c-0.4,0-0.7-0.3-0.7-0.7l0,0c0-1.6,1.3-2.9,2.9-2.9c0.4,0,0.7,0.3,0.7,0.7
						c0,0.4-0.3,0.7-0.7,0.7c0,0,0,0-0.1,0c-0.8,0-1.4,0.6-1.4,1.4C6812.7,19037.1,6812.3,19037.5,6811.9,19037.5z"/>
				</g>
				<g id="Path_4742">
					<path fill="#288ED9" d="M6817,19041.1c-0.4,0-0.7-0.3-0.7-0.7l0,0v-4.3c0-0.4,0.3-0.7,0.7-0.7c0.4,0,0.7,0.3,0.7,0.7
						c0,0,0,0,0,0.1v4.3C6817.7,19040.8,6817.4,19041.1,6817,19041.1z"/>
				</g>
				<g id="Path_4743">
					<path fill="#288ED9" d="M6819.9,19041.1c-0.4,0-0.7-0.3-0.7-0.7l0,0v-7.2c0-0.4,0.3-0.7,0.7-0.7c0.4,0,0.7,0.3,0.7,0.7v7.2
						C6820.6,19040.8,6820.3,19041.1,6819.9,19041.1z"/>
				</g>
				<g id="Path_4744">
					<path fill="#288ED9" d="M6822,19036.7h-2.2c-0.4,0-0.7-0.3-0.7-0.7l0,0v-2.9c0-0.4,0.3-0.7,0.7-0.7l0,0h2.2
						c1.2,0,2.1,1,2.1,2.2C6824.1,19035.8,6823.2,19036.7,6822,19036.7L6822,19036.7z M6820.6,19035.3h1.4c0.4,0,0.7-0.3,0.7-0.7
						s-0.3-0.7-0.7-0.7h-1.4V19035.3z"/>
				</g>
				<g id="Path_4745">
					<path fill="#288ED9" d="M6829.3,19035.3h-2.9c-0.4,0-0.7-0.3-0.7-0.7c0-0.4,0.3-0.7,0.7-0.7h2.9c0.4,0,0.7,0.3,0.7,0.7
						C6830,19034.9,6829.7,19035.3,6829.3,19035.3C6829.3,19035.3,6829.3,19035.3,6829.3,19035.3z"/>
				</g>
				<g id="Path_4746">
					<path fill="#288ED9" d="M6830,19041.1c-1.6,0-2.9-1.3-2.9-2.9v-5.8c0-0.4,0.3-0.7,0.7-0.7c0.4,0,0.7,0.3,0.7,0.7c0,0,0,0,0,0.1
						v5.8c0,0.8,0.6,1.4,1.4,1.4c0.4,0,0.7,0.3,0.7,0.7C6830.7,19040.8,6830.4,19041.1,6830,19041.1L6830,19041.1z"/>
				</g>
			</g>
			<g id="Rectangle_2228" transform="translate(718.761 2313.927)">
				<g>
					<path fill="none" d="M6077.2,16739h42c1.7,0,3,1.3,3,3v42c0,1.7-1.3,3-3,3h-42c-1.7,0-3-1.3-3-3v-42
						C6074.2,16740.3,6075.6,16739,6077.2,16739z"/>
				</g>
				<g>
					<path fill="#288ED9" d="M6119.2,16787h-42c-1.7,0-3-1.3-3-3v-42c0-1.7,1.3-3,3-3h42c1.7,0,3,1.3,3,3v42
						C6122.2,16785.7,6120.9,16787,6119.2,16787z M6077.2,16741c-0.6,0-1,0.4-1,1v42c0,0.6,0.4,1,1,1h42c0.6,0,1-0.4,1-1v-42
						c0-0.6-0.4-1-1-1H6077.2z"/>
				</g>
			</g>
			<g id="Rectangle_2229" transform="translate(718.762 2313.928)">
				<g>
					<path fill="#D6EEFF" d="M6077.2,16739h42c1.7,0,3,1.1,3,2.5v8.5l0,0h-48l0,0v-8.5C6074.2,16740.1,6075.6,16739,6077.2,16739z"
						/>
				</g>
				<g>
					<path fill="#288ED9" d="M6120.2,16752h-44c-1.1,0-2-0.9-2-2v-8c0-1.7,1.3-3,3-3h42c1.7,0,3,1.3,3,3v8
						C6122.2,16751.1,6121.3,16752,6120.2,16752z M6077.2,16741c-0.6,0-1,0.4-1,1v8h44v-8c0-0.6-0.4-1-1-1H6077.2z"/>
				</g>
			</g>
			<g id="Group_5311" transform="translate(1 1)">
				<g id="Path_4734">
					<path fill="#288ED9" d="M6800.5,19058.9c0,0.8-0.7,1.5-1.5,1.5s-1.5-0.7-1.5-1.5s0.7-1.5,1.5-1.5
						S6800.5,19058.1,6800.5,19058.9L6800.5,19058.9"/>
				</g>
				<g id="Path_4735">
					<path fill="#288ED9" d="M6805.4,19058.9c0,0.8-0.7,1.5-1.5,1.5c-0.8,0-1.5-0.7-1.5-1.5c0-0.8,0.7-1.5,1.5-1.5
						C6804.7,19057.4,6805.4,19058,6805.4,19058.9"/>
				</g>
				<g id="Path_4736">
					<path fill="#288ED9" d="M6810.3,19058.9c0,0.8-0.7,1.5-1.5,1.5s-1.5-0.7-1.5-1.5s0.7-1.5,1.5-1.5l0,0
						C6809.6,19057.4,6810.3,19058.1,6810.3,19058.9"/>
				</g>
			</g>
		</g>
		<g id="ic_settings_black_24px" transform="translate(691.439 2530)">
			<g id="Path_4748">
				<path fill="#FFFFFF" d="M6079.8,16716.6c0.1-0.4,0.1-0.8,0.1-1.2c0-0.4,0-0.8-0.1-1.2l2.6-2c0.2-0.2,0.3-0.5,0.1-0.8l-2.5-4.3
					c-0.2-0.3-0.5-0.4-0.8-0.3l-3.1,1.2c-0.6-0.5-1.3-0.9-2.1-1.2l-0.5-3.3c0-0.3-0.3-0.5-0.6-0.5h-5c-0.3,0-0.6,0.2-0.6,0.5
					l-0.5,3.3c-0.7,0.3-1.4,0.7-2.1,1.2l-3.1-1.2c-0.3-0.1-0.6,0-0.8,0.3l-2.5,4.3c-0.2,0.3-0.1,0.6,0.1,0.8l2.6,2
					c-0.1,0.4-0.1,0.8-0.1,1.2c0,0.4,0,0.8,0.1,1.2l-2.6,2c-0.2,0.2-0.3,0.5-0.1,0.8l2.5,4.3c0.2,0.3,0.5,0.4,0.8,0.3l3.1-1.2
					c0.6,0.5,1.3,0.9,2.1,1.2l0.5,3.3c0,0.3,0.3,0.5,0.6,0.5h5c0.3,0,0.6-0.2,0.6-0.5l0.5-3.3c0.7-0.3,1.4-0.7,2.1-1.2l3.1,1.2
					c0.3,0.1,0.6,0,0.8-0.3l2.5-4.3c0.1-0.3,0.1-0.6-0.1-0.8L6079.8,16716.6z"/>
				<path fill="#288ED9" d="M6068,16728.8c-0.8,0-1.5-0.6-1.6-1.4l-0.4-2.7c-0.5-0.2-0.9-0.5-1.3-0.8l-2.6,1c-0.8,0.3-1.6,0-2-0.7
					l-2.5-4.3c-0.4-0.7-0.2-1.6,0.4-2.1l2.2-1.7c0-0.3,0-0.5,0-0.8c0-0.3,0-0.5,0-0.8l-2.2-1.7c-0.6-0.5-0.8-1.4-0.4-2.1l2.5-4.3
					c0.4-0.7,1.2-1,2-0.7l2.6,1c0.4-0.3,0.9-0.5,1.3-0.8l0.4-2.7c0.1-0.8,0.8-1.4,1.6-1.4c0,0,0,0,0,0h4.9c0.8,0,1.5,0.6,1.6,1.4
					l0.4,2.7c0.5,0.2,0.9,0.5,1.3,0.8l2.6-1c0.8-0.3,1.6,0,2,0.7l2.5,4.3c0.4,0.7,0.2,1.6-0.4,2.1l-2.2,1.7c0,0.3,0,0.5,0,0.8
					c0,0.3,0,0.5,0,0.8l2.2,1.7c0.6,0.5,0.8,1.4,0.4,2.1l-2.5,4.3c-0.4,0.7-1.2,1-2,0.7l-2.6-1c-0.4,0.3-0.9,0.5-1.3,0.8l-0.4,2.7
					c-0.1,0.8-0.8,1.4-1.6,1.4c0,0,0,0,0,0H6068C6068.1,16728.8,6068.1,16728.8,6068,16728.8z M6072.6,16727.1
					C6072.6,16727.1,6072.6,16727.1,6072.6,16727.1L6072.6,16727.1z M6068.5,16727.1L6068.5,16727.1
					C6068.5,16727.1,6068.5,16727.1,6068.5,16727.1z M6068.1,16726.8C6068.1,16726.8,6068.1,16726.8,6068.1,16726.8L6068.1,16726.8
					C6068.1,16726.8,6068.1,16726.8,6068.1,16726.8z M6065.1,16721.6l0.5,0.4c0.6,0.4,1.2,0.8,1.9,1.1l0.5,0.2l0.5,3.5h4.3l0.5-3.5
					l0.5-0.2c0.7-0.3,1.3-0.6,1.9-1.1l0.5-0.3l3.3,1.3l2.1-3.7l-2.8-2.2l0.1-0.6c0-0.4,0.1-0.7,0.1-1.1c0-0.3,0-0.7-0.1-1.1
					l-0.1-0.6l2.8-2.2l-2.1-3.7l-3.3,1.3l-0.5-0.4c-0.6-0.4-1.2-0.8-1.9-1.1l-0.5-0.2l-0.5-3.5h-4.3l-0.5,3.5l-0.5,0.2
					c-0.7,0.3-1.3,0.6-1.9,1.1l-0.5,0.3l-3.3-1.3l-2.1,3.7l2.8,2.2l-0.1,0.6c0,0.4-0.1,0.7-0.1,1.1c0,0.3,0,0.7,0.1,1.1l0.1,0.6
					l-2.8,2.2l2.1,3.7L6065.1,16721.6z M6073,16726.8C6073,16726.8,6073,16726.8,6073,16726.8L6073,16726.8
					C6073,16726.8,6073,16726.8,6073,16726.8z M6079.2,16723.2C6079.2,16723.2,6079.2,16723.2,6079.2,16723.2L6079.2,16723.2z
					 M6079.6,16723.1L6079.6,16723.1C6079.7,16723.1,6079.7,16723.1,6079.6,16723.1z M6059.5,16711.8L6059.5,16711.8
					C6059.5,16711.8,6059.5,16711.8,6059.5,16711.8z M6061.5,16707.7C6061.5,16707.7,6061.5,16707.7,6061.5,16707.7L6061.5,16707.7z
					 M6062,16707.5L6062,16707.5C6061.9,16707.5,6061.9,16707.5,6062,16707.5z M6068.1,16704L6068.1,16704
					C6068.1,16704,6068.1,16704,6068.1,16704z M6073,16704C6073,16704,6073,16704,6073,16704L6073,16704z M6072.6,16703.7
					C6072.6,16703.7,6072.6,16703.7,6072.6,16703.7L6072.6,16703.7z M6068.5,16703.7L6068.5,16703.7
					C6068.5,16703.7,6068.5,16703.7,6068.5,16703.7z"/>
			</g>
		</g>
	</g>
	<g id="Ellipse_1399" transform="translate(1155 1417)">
		<g>
			<circle fill="#FFFFFF" cx="6079.7" cy="16744.5" r="5.5"/>
		</g>
		<g>
			<path fill="#288ED9" d="M6079.7,16750c-3,0-5.5-2.5-5.5-5.5s2.5-5.5,5.5-5.5s5.5,2.5,5.5,5.5S6082.8,16750,6079.7,16750z
				 M6079.7,16741c-1.9,0-3.5,1.6-3.5,3.5s1.6,3.5,3.5,3.5s3.5-1.6,3.5-3.5S6081.7,16741,6079.7,16741z"/>
		</g>
	</g>
</g>
</svg>
