<?xml version="1.0" encoding="utf-8"?>
<!-- Generator: Adobe Illustrator 22.0.1, SVG Export Plug-In . SVG Version: 6.00 Build 0)  -->
<svg version="1.1" id="Layer_1" xmlns="http://www.w3.org/2000/svg" xmlns:xlink="http://www.w3.org/1999/xlink" x="0px" y="0px"
	 viewBox="0 0 60 60" enable-background="new 0 0 60 60" xml:space="preserve">
<g>
	<g id="Group_8035" transform="translate(-5647 -17863)">
		<g id="Group_8034">
			<g id="Rectangle_2891" transform="translate(1103 1147.111)">
				<g>
					<path fill="#FFFFFF" d="M4544.9,16730h38c0.5,0,0.9,0.3,0.9,0.9v31.9c0,0.5-0.3,0.9-0.9,0.9h-38c-0.5,0-0.9-0.3-0.9-0.9v-31.9
						C4544,16730.3,4544.3,16730,4544.9,16730z"/>
				</g>
				<g>
					<path fill="#137FCF" d="M4583.7,16763.6H4544v-33.6h39.7V16763.6z M4545.7,16761.9h36.3v-30.2h-36.3V16761.9z"/>
				</g>
			</g>
			<g id="Rectangle_2893" transform="translate(1103 1174.215)">
				<g>
					<path fill="#FFFFFF" d="M4544.9,16726.3h38c0.5,0,0.9,0.3,0.9,0.9v8.5c0,0.5-0.3,0.9-0.9,0.9h-38c-0.5,0-0.9-0.3-0.9-0.9v-8.5
						C4544,16726.6,4544.3,16726.3,4544.9,16726.3z"/>
				</g>
				<g>
					<path fill="#137FCF" d="M4583.7,16736.4H4544v-10.2h39.7V16736.4z M4545.7,16734.7h36.3v-6.7h-36.3V16734.7z"/>
				</g>
			</g>
			<g id="Rectangle_2894" transform="translate(1103 1164.787)">
				<g>
					<path fill="#FFFFFF" d="M4544.9,16727.6h38c0.5,0,0.9,0.3,0.9,0.9v8.5c0,0.5-0.3,0.9-0.9,0.9h-38c-0.5,0-0.9-0.3-0.9-0.9v-8.5
						C4544,16727.9,4544.3,16727.6,4544.9,16727.6z"/>
				</g>
				<g>
					<path fill="#137FCF" d="M4583.7,16737.8H4544v-10.2h39.7V16737.8z M4545.7,16736h36.3v-6.7h-36.3V16736z"/>
				</g>
			</g>
			<g id="Rectangle_2895" transform="translate(1103 1155.359)">
				<g>
					<path fill="#FFFFFF" d="M4544.9,16728.8h38c0.5,0,0.9,0.3,0.9,0.9v8.5c0,0.5-0.3,0.9-0.9,0.9h-38c-0.5,0-0.9-0.3-0.9-0.9v-8.5
						C4544,16729.2,4544.3,16728.8,4544.9,16728.8z"/>
				</g>
				<g>
					<path fill="#137FCF" d="M4583.7,16739H4544v-10.2h39.7V16739z M4545.7,16737.2h36.3v-6.7h-36.3V16737.2z"/>
				</g>
			</g>
			<g id="Rectangle_2896" transform="translate(1103 1145.934)">
				<g>
					<path fill="#FFFFFF" d="M4544.9,16730.1h38c0.5,0,0.9,0.3,0.9,0.9v8.5c0,0.5-0.3,0.9-0.9,0.9h-38c-0.5,0-0.9-0.3-0.9-0.9v-8.5
						C4544,16730.5,4544.3,16730.1,4544.9,16730.1z"/>
				</g>
				<g>
					<path fill="#137FCF" d="M4583.7,16740.2H4544v-10.2h39.7V16740.2z M4545.7,16738.5h36.3v-6.7h-36.3V16738.5z"/>
				</g>
			</g>
			<g id="Rectangle_2892">
				<rect x="5648" y="17876.6" fill="#D6EEFF" width="16.7" height="9.3"/>
			</g>
			<g id="Rectangle_2897">
				<rect x="5648" y="17885.7" fill="#D6EEFF" width="16.7" height="9.3"/>
			</g>
			<g id="Rectangle_2898">
				<rect x="5648" y="17892.9" fill="#D6EEFF" width="16.7" height="9.3"/>
			</g>
			<g id="Rectangle_2899">
				<rect x="5648" y="17900" fill="#D6EEFF" width="16.7" height="9.3"/>
			</g>
			<g id="Rectangle_2900" transform="translate(1103 1174.215)">
				<g>
					<path fill="none" d="M4544.9,16726.3h38c0.5,0,0.9,0.3,0.9,0.9v8.5c0,0.5-0.3,0.9-0.9,0.9h-38c-0.5,0-0.9-0.3-0.9-0.9v-8.5
						C4544,16726.6,4544.3,16726.3,4544.9,16726.3z"/>
				</g>
				<g>
					<path fill="#137FCF" d="M4583.7,16736.4H4544v-10.2h39.7V16736.4z M4545.7,16734.7h36.3v-6.7h-36.3V16734.7z"/>
				</g>
			</g>
			<g id="Rectangle_2901" transform="translate(1103 1164.787)">
				<g>
					<path fill="none" d="M4544.9,16727.6h38c0.5,0,0.9,0.3,0.9,0.9v8.5c0,0.5-0.3,0.9-0.9,0.9h-38c-0.5,0-0.9-0.3-0.9-0.9v-8.5
						C4544,16727.9,4544.3,16727.6,4544.9,16727.6z"/>
				</g>
				<g>
					<path fill="#137FCF" d="M4583.7,16737.8H4544v-10.2h39.7V16737.8z M4545.7,16736h36.3v-6.7h-36.3V16736z"/>
				</g>
			</g>
			<g id="Rectangle_2902" transform="translate(1103 1155.359)">
				<g>
					<path fill="none" d="M4544.9,16728.8h38c0.5,0,0.9,0.3,0.9,0.9v8.5c0,0.5-0.3,0.9-0.9,0.9h-38c-0.5,0-0.9-0.3-0.9-0.9v-8.5
						C4544,16729.2,4544.3,16728.8,4544.9,16728.8z"/>
				</g>
				<g>
					<path fill="#137FCF" d="M4583.7,16739H4544v-10.2h39.7V16739z M4545.7,16737.2h36.3v-6.7h-36.3V16737.2z"/>
				</g>
			</g>
			<g id="Rectangle_2903" transform="translate(1103 1145.934)">
				<g>
					<path fill="none" d="M4544.9,16730.1h38c0.5,0,0.9,0.3,0.9,0.9v8.5c0,0.5-0.3,0.9-0.9,0.9h-38c-0.5,0-0.9-0.3-0.9-0.9v-8.5
						C4544,16730.5,4544.3,16730.1,4544.9,16730.1z"/>
				</g>
				<g>
					<path fill="#137FCF" d="M4583.7,16740.2H4544v-10.2h39.7V16740.2z M4545.7,16738.5h36.3v-6.7h-36.3V16738.5z"/>
				</g>
			</g>
		</g>
		<g id="Group_8033">
			<g id="Group_6264" transform="translate(1113.443 1145.934)">
				<g id="mobileme-logo-of-black-cloud" transform="translate(0 0)">
					<g id="MobileMe">
						<path fill="#FFFFFF" d="M4592.7,16754.1c0,5.4-4.4,9.8-9.8,9.8h-30.4c-5.4,0-9.8-4.5-9.8-9.9c0-4.8,3.5-8.9,8.3-9.7
							c-0.6-3.4,1.7-6.7,5.1-7.3c0.3-0.1,0.7-0.1,1-0.1c1.5,0,2.9,0.5,4.1,1.5c1.9-4.4,4.4-8.4,11.4-8.4c8.5,0,12.4,6.6,12.4,13.5
							c0,0.3,0,0.6,0,0.9C4589.4,16745.3,4592.7,16749.4,4592.7,16754.1z"/>
						<path fill="#137FCF" d="M4552.4,16764.9c-6,0-10.7-4.9-10.7-10.8c0-5,3.5-9.2,8.2-10.4c-0.1-1.6,0.3-3.2,1.3-4.5
							c1.1-1.6,2.8-2.6,4.6-2.9c0.3-0.1,0.8-0.1,1.2-0.1l0,0c1.3,0,2.6,0.3,3.6,1c1.9-4,4.7-7.9,11.8-7.9c9.2,0,13.3,7.2,13.3,14.3
							c0,0.1,0,0.1,0,0.2c4.6,1.3,7.9,5.5,7.9,10.4c0,5.9-4.8,10.7-10.7,10.7H4552.4z M4557,16737.9L4557,16737.9
							c-0.3,0-0.6,0-0.9,0.1c-1.4,0.3-2.7,1-3.5,2.2c-0.9,1.2-1.1,2.6-0.9,4.1l0.2,0.9l-0.9,0.2c-4.3,0.7-7.5,4.4-7.6,8.8
							c0,5,4,9.1,9,9.1h30.4c4.9,0,9-4.1,9-9l0,0c0-4.2-3-7.9-7.2-8.8l-0.8-0.2l0.1-0.8c0-0.3,0-0.5,0-0.8c0-6.3-3.5-12.6-11.6-12.6
							c-6.6,0-8.7,3.7-10.5,7.9l-0.4,1l-0.9-0.8C4559.5,16738.3,4558.3,16737.9,4557,16737.9z"/>
					</g>
				</g>
				<g id="Group_6263" transform="translate(17.016 14.759)">
					<g id="Group_6261" transform="translate(0 5.927)">
						<g id="Line_4">
							<path fill="#288ED9" d="M4545.6,16739.2c-0.3,0-0.4-0.1-0.6-0.3c-0.3-0.3-0.3-0.9,0-1.2l5.2-5.4c0.3-0.3,0.9-0.3,1.2,0
								c0.3,0.3,0.3,0.9,0,1.2l-5.2,5.4C4546.1,16739.1,4545.9,16739.2,4545.6,16739.2z"/>
						</g>
						<g id="Line_5">
							<path fill="#288ED9" d="M4545.6,16739.2c-0.3,0-0.4-0.1-0.6-0.3l-5.2-5.4c-0.3-0.3-0.3-0.9,0-1.2c0.3-0.3,0.9-0.3,1.2,0
								l5.2,5.4c0.3,0.3,0.3,0.9,0,1.2C4546.1,16739.1,4545.9,16739.2,4545.6,16739.2z"/>
						</g>
						<g id="Line_10">
							<path fill="#288ED9" d="M4545.4,16738.4c-0.5,0-0.9-0.3-0.9-0.9v-10.3c0-0.5,0.3-0.9,0.9-0.9s0.9,0.3,0.9,0.9v10.3
								C4546.2,16738,4545.8,16738.4,4545.4,16738.4z"/>
						</g>
					</g>
					<g id="Group_6262" transform="translate(24.724 12.732) rotate(-180)">
						<g id="Line_4-2">
							<path fill="#288ED9" d="M-4526.4-16721.6c0.3,0,0.4,0.1,0.6,0.3c0.3,0.3,0.3,0.9,0,1.2l-5.2,5.4c-0.3,0.3-0.9,0.3-1.2,0
								c-0.3-0.3-0.3-0.9,0-1.2l5.2-5.4C-4526.8-16721.6-4526.5-16721.6-4526.4-16721.6z"/>
						</g>
						<g id="Line_5-2">
							<path fill="#288ED9" d="M-4536.7-16721.6c0.3,0,0.4,0.1,0.6,0.3l5.2,5.4c0.3,0.3,0.3,0.9,0,1.2c-0.3,0.3-0.9,0.3-1.2,0
								l-5.2-5.4c-0.3-0.3-0.3-0.9,0-1.2C-4537.2-16721.6-4537-16721.6-4536.7-16721.6z"/>
						</g>
						<g id="Line_10-2">
							<path fill="#288ED9" d="M-4531.8-16727.3c0.5,0,0.9,0.3,0.9,0.9v10.3c0,0.5-0.3,0.9-0.9,0.9c-0.5,0-0.9-0.3-0.9-0.9v-10.3
								C-4532.7-16726.8-4532.3-16727.3-4531.8-16727.3z"/>
						</g>
					</g>
				</g>
			</g>
			<g id="Group_6267" transform="translate(1108.223 1160.439)">
				<g id="Path_5692">
					<path fill="#137FCF" d="M4547.4,16728.2c0.6,0,1,0.4,1,1s-0.4,1-1,1s-1-0.4-1-1l0,0
						C4546.4,16728.6,4546.8,16728.2,4547.4,16728.2z"/>
				</g>
				<g id="Ellipse_1282">
					<circle fill="#137FCF" cx="4544.3" cy="16729.1" r="1"/>
				</g>
			</g>
			<g id="Group_6268" transform="translate(1108.223 1151.012)">
				<g id="Path_5692-2">
					<path fill="#137FCF" d="M4547.4,16729.4c0.6,0,1,0.4,1,1c0,0.6-0.4,1-1,1s-1-0.4-1-1l0,0
						C4546.4,16729.9,4546.8,16729.4,4547.4,16729.4z"/>
				</g>
				<g id="Ellipse_1282-2">
					<circle fill="#137FCF" cx="4544.3" cy="16730.4" r="1"/>
				</g>
			</g>
			<g id="Group_6269" transform="translate(1108.223 1169.867)">
				<g id="Ellipse_1282-3">
					<circle fill="#137FCF" cx="4544.3" cy="16727.8" r="1"/>
				</g>
			</g>
			<g id="Group_6270" transform="translate(1108.223 1179.295)">
				<g id="Path_5692-3">
					<path fill="#137FCF" d="M4547.4,16725.6c0.6,0,1,0.4,1,1c0,0.6-0.4,1-1,1s-1-0.4-1-1l0,0
						C4546.4,16726,4546.8,16725.6,4547.4,16725.6z"/>
				</g>
				<g id="Ellipse_1282-4">
					<circle fill="#137FCF" cx="4544.3" cy="16726.5" r="1"/>
				</g>
			</g>
		</g>
	</g>
</g>
</svg>
