<?xml version="1.0" encoding="utf-8"?>
<!-- Generator: Adobe Illustrator 21.0.0, SVG Export Plug-In . SVG Version: 6.00 Build 0)  -->
<svg version="1.1" id="Layer_1" xmlns="http://www.w3.org/2000/svg" xmlns:xlink="http://www.w3.org/1999/xlink" x="0px" y="0px"
	 viewBox="0 0 169 150" enable-background="new 0 0 169 150" xml:space="preserve">
<g id="Group_8566" transform="translate(-21686 -17860)">
	<path id="Path_6258" fill="#C6E6FF" d="M21810.441,17964.764c-26.707,10.008-64.455,25.277-64.455,25.277
		s-13.016,11.703-36.469-18.057s-11.559-49.502,20.111-65.186c31.672-15.684,29.342-39.783,56.572-38.598
		C21813.434,17869.387,21881.402,17934.51,21810.441,17964.764z"/>
	<g id="Group_7956" transform="translate(-6440.879 7242.222)">
		<g id="Group_7950" transform="translate(7497.48 -6047.73)">
			<g id="Group_7920" transform="translate(17.793 62.376)">
				<g id="Group_5848" transform="translate(0 54.298) rotate(-90)">
					<path id="Path_5507" fill="#30A3D1" d="M-16661.709,20734.65"/>
					<path id="Rectangle_2754" fill="#005B9F" d="M-16664.191,20655.262L-16664.191,20655.262c1.371,0,2.482,1.109,2.482,2.48
						v74.428c0,1.371-1.111,2.48-2.482,2.48l0,0c-1.369,0-2.48-1.109-2.48-2.48v-74.428
						C-16666.672,20656.371-16665.561,20655.262-16664.191,20655.262z"/>
				</g>
				<g id="Group_7393" transform="translate(27.786 0)">
					<g id="Group_5847" transform="translate(8.931 10)">
						<path id="Rectangle_2754-2" fill="#005B9F" d="M20657.742,16666.672L20657.742,16666.672c1.369,0,2.48,1.111,2.48,2.48v41.016
							c0,1.371-1.111,2.48-2.48,2.48l0,0c-1.371,0-2.48-1.109-2.48-2.48v-41.016
							C20655.262,16667.783,20656.371,16666.672,20657.742,16666.672z"/>
					</g>
					<circle id="Ellipse_1241" fill="#21E2E2" cx="20667.168" cy="16717" r="11.908"/>
				</g>
			</g>
			<g id="Group_7917" transform="translate(-21 -3.997)">
				<g id="Group_7902" transform="translate(0 35.322)">
					<g id="Group_5581">
						<path id="Path_3764" fill="#0E71BB" d="M20660.52,16666.672h147.229c2.898-0.006,5.254,2.34,5.26,5.238c0,0,0,0,0,0v33.523
							c-0.006,2.898-2.361,5.244-5.26,5.238h-147.229c-2.898,0.006-5.254-2.34-5.258-5.238c0,0,0,0,0,0v-33.523
							C20655.266,16669.012,20657.621,16666.666,20660.52,16666.672C20660.52,16666.672,20660.52,16666.672,20660.52,16666.672z"/>
						<path id="Rectangle_1631" fill="#005B9F" d="M20659.262,16666.672h53.84l0,0v44l0,0h-53.84c-2.209,0-4-1.791-4-4v-36
							C20655.262,16668.463,20657.053,16666.672,20659.262,16666.672z"/>
					</g>
					<g id="Group_5710" transform="translate(85.871 12.91)">
						<g id="Group_5584" transform="translate(0 0)">
							<path id="Rectangle_1405" fill="#52ACEA" d="M20658.357,16666.672h0.025c1.711,0,3.098,1.387,3.098,3.098l0,0
								c0,1.711-1.387,3.098-3.098,3.098h-0.025c-1.709,0-3.096-1.387-3.096-3.098l0,0
								C20655.262,16668.059,20656.648,16666.672,20658.357,16666.672z"/>
							<path id="Rectangle_1424" fill="#52ACEA" d="M20665.82,16679.063h0.025c1.711,0,3.098,1.387,3.098,3.096v0.002
								c0,1.711-1.387,3.098-3.098,3.098h-0.025c-1.709,0-3.096-1.387-3.096-3.098v-0.002
								C20662.725,16680.449,20664.111,16679.063,20665.82,16679.063z"/>
							<path id="Rectangle_1406" fill="#52ACEA" d="M20670.797,16666.672h0.023c1.711,0,3.098,1.387,3.098,3.098l0,0
								c0,1.711-1.387,3.098-3.098,3.098h-0.023c-1.711,0-3.098-1.387-3.098-3.098l0,0
								C20667.699,16668.059,20669.086,16666.672,20670.797,16666.672z"/>
							<path id="Rectangle_1423" fill="#52ACEA" d="M20678.258,16679.063h0.025c1.711,0,3.098,1.387,3.098,3.096v0.002
								c0,1.711-1.387,3.098-3.098,3.098h-0.025c-1.711,0-3.098-1.387-3.098-3.098v-0.002
								C20675.16,16680.449,20676.547,16679.063,20678.258,16679.063z"/>
							<path id="Rectangle_1407" fill="#52ACEA" d="M20683.232,16666.672h0.025c1.711,0,3.098,1.387,3.098,3.098l0,0
								c0,1.711-1.387,3.098-3.098,3.098h-0.025c-1.709,0-3.096-1.387-3.096-3.098l0,0
								C20680.137,16668.059,20681.523,16666.672,20683.232,16666.672z"/>
							<path id="Rectangle_1422" fill="#52ACEA" d="M20690.695,16679.063h0.025c1.711,0,3.098,1.387,3.098,3.096v0.002
								c0,1.711-1.387,3.098-3.098,3.098h-0.025c-1.709,0-3.096-1.387-3.096-3.098v-0.002
								C20687.6,16680.449,20688.986,16679.063,20690.695,16679.063z"/>
						</g>
					</g>
					<g id="Ellipse_1404" transform="translate(136.06 18.006)">
						<ellipse fill="none" cx="20659.51" cy="16670.902" rx="4.248" ry="4.231"/>
						<ellipse fill="none" stroke="#FFBC98" stroke-width="2" cx="20659.51" cy="16670.902" rx="3.248" ry="3.231"/>
					</g>
					<g id="Group_7371" transform="translate(70.322 11.107)">
						<path id="Rectangle_3143" fill="#52ACEA" d="M20657.148,16666.672L20657.148,16666.672c1.043,0,1.889,0.846,1.889,1.889
							v19.617c0,1.041-0.846,1.887-1.889,1.887l0,0c-1.043,0-1.887-0.846-1.887-1.887v-19.617
							C20655.262,16667.518,20656.105,16666.672,20657.148,16666.672z"/>
						<path id="Rectangle_3144" fill="#21E2E2" d="M20655.262,16680.971h3.775l0,0v7.207c0,1.041-0.846,1.887-1.889,1.887
							c0,0,0,0,0,0l0,0c-1.043,0-1.887-0.846-1.887-1.887c0,0,0,0,0,0V16680.971L20655.262,16680.971z"/>
					</g>
					<g id="Group_7370" transform="translate(15.489 11.107)">
						<g id="Group_7361" transform="translate(18.878 0)">
							<path id="Rectangle_1425" fill="#288ED9" d="M20658.379,16683.604L20658.379,16683.604c1.723,0,3.119,1.396,3.119,3.119
								v0.223c0,1.723-1.396,3.119-3.119,3.119l0,0c-1.723,0-3.117-1.396-3.117-3.119v-0.223
								C20655.262,16685,20656.656,16683.604,20658.379,16683.604z"/>
							<path id="Rectangle_3140" fill="#137FCF" d="M20658.564,16666.672L20658.564,16666.672c0.783,0,1.416,0.635,1.416,1.416
								v10.969c0,0.783-0.633,1.416-1.416,1.416l0,0c-0.781,0-1.416-0.633-1.416-1.416v-10.969
								C20657.148,16667.307,20657.783,16666.672,20658.564,16666.672z"/>
						</g>
						<g id="Group_7362" transform="translate(9.439 1.881)">
							<path id="Rectangle_1442" fill="#FFBC98" d="M20658.379,16681.723L20658.379,16681.723c1.723,0,3.119,1.396,3.119,3.119
								v0.223c0,1.723-1.396,3.119-3.119,3.119l0,0c-1.723,0-3.117-1.396-3.117-3.119v-0.223
								C20655.262,16683.119,20656.656,16681.723,20658.379,16681.723z"/>
							<path id="Rectangle_3141" fill="#FFBC98" d="M20658.564,16666.672L20658.564,16666.672c0.783,0,1.416,0.635,1.416,1.416
								v9.088c0,0.781-0.633,1.416-1.416,1.416l0,0c-0.781,0-1.416-0.635-1.416-1.416v-9.088
								C20657.148,16667.307,20657.783,16666.672,20658.564,16666.672z"/>
						</g>
						<g id="Group_7363" transform="translate(0 6.278)">
							<path id="Rectangle_1425-2" fill="#21E2E2" d="M20658.379,16677.326L20658.379,16677.326c1.723,0,3.119,1.396,3.119,3.119
								v0.223c0,1.723-1.396,3.119-3.119,3.119l0,0c-1.723,0-3.117-1.396-3.117-3.119v-0.223
								C20655.262,16678.723,20656.656,16677.326,20658.379,16677.326z"/>
							<path id="Rectangle_3142" fill="#21E2E2" d="M20658.564,16666.672L20658.564,16666.672c0.783,0,1.416,0.635,1.416,1.416
								v4.689c0,0.783-0.633,1.416-1.416,1.416l0,0c-0.781,0-1.416-0.633-1.416-1.416v-4.689
								C20657.148,16667.307,20657.783,16666.672,20658.564,16666.672z"/>
						</g>
					</g>
				</g>
			</g>
		</g>
	</g>
</g>
</svg>
