<?xml version="1.0" encoding="utf-8"?>
<!-- Generator: Adobe Illustrator 21.0.0, SVG Export Plug-In . SVG Version: 6.00 Build 0)  -->
<svg version="1.1" id="Layer_1" xmlns="http://www.w3.org/2000/svg" xmlns:xlink="http://www.w3.org/1999/xlink" x="0px" y="0px"
	 viewBox="0 0 20.5 21.5" enable-background="new 0 0 20.5 21.5" xml:space="preserve">
<path fill="#FFFFFF" d="M19.8,3.9l-3-3.1c-0.2-0.2-0.4-0.3-0.7-0.3H1.5c-0.5,0-1,0.5-1,1V20c0,0.5,0.4,1,1,1h17.6c0.5,0,1-0.5,1-1
	V4.7C20,4.4,19.9,4.1,19.8,3.9z"/>
<path  d="M1.5,21.5C0.6,21.5,0,20.8,0,20V1.5C0,0.7,0.6,0,1.5,0h14.6c0.4,0,0.8,0.2,1.1,0.5l3,3.1
	c0.3,0.3,0.4,0.7,0.4,1.1V20c0,0.8-0.6,1.5-1.5,1.5H1.5z M1.5,1C1.2,1,1,1.2,1,1.5V20c0,0.3,0.2,0.5,0.5,0.5h17.6
	c0.3,0,0.5-0.2,0.5-0.5V4.7c0-0.1-0.1-0.3-0.2-0.4l-3-3.1C16.3,1.1,16.2,1,16.1,1H1.5z"/>
<rect x="4.5" y="10.5"  width="11.5" height="0.9"/>
<rect x="4.5" y="14.6"  width="11.5" height="0.9"/>
<path  d="M5.5,6.5c-0.7,0-1.3-0.6-1.3-1.3V0h11.9v5.2c0,0.7-0.6,1.3-1.3,1.3H5.5z M5.2,1v4.2c0,0.2,0.1,0.3,0.3,0.3
	h9.3c0.2,0,0.3-0.1,0.3-0.3V1H5.2z"/>
<path  d="M13.2,2.2L13.2,2.2c0.5,0,0.8,0.4,0.8,0.8v0c0,0.5-0.4,0.8-0.8,0.8l0,0c-0.5,0-0.8-0.4-0.8-0.8v0
	C12.4,2.5,12.8,2.2,13.2,2.2z"/>
</svg>
