<?xml version="1.0" encoding="utf-8"?>
<!-- Generator: Adobe Illustrator 22.0.1, SVG Export Plug-In . SVG Version: 6.00 Build 0)  -->
<svg version="1.1" id="Layer_1" xmlns="http://www.w3.org/2000/svg" xmlns:xlink="http://www.w3.org/1999/xlink" x="0px" y="0px"
	 viewBox="0 0 60 60" enable-background="new 0 0 60 60" xml:space="preserve">
<g>
	<g id="Group_6229" transform="translate(-5443 -17691.363)">
		<g id="money-bag-with-dollar-symbol" transform="translate(352 959.363)">
			<g id="Group_6226" transform="translate(0 0)">
				<g id="Group_6219" transform="translate(26.128 38.546)">
					<g id="Path_5674">
						<path d="M5098.6,16732.6c-0.2-0.2-0.5-0.4-0.7-0.5c-0.5-0.3-1.2-0.5-1.8-0.6v4.9c1.1,0,2.1-0.5,2.7-1.5l0,0
							c0.3-0.5,0.3-1,0.2-1.5C5099,16733.1,5098.9,16732.8,5098.6,16732.6z"/>
					</g>
				</g>
				<g id="Group_6220" transform="translate(29.126 42.327)">
					<g id="Path_5675">
						<path d="M5095.8,16731.1L5095.8,16731.1L5095.8,16731.1L5095.8,16731.1z"/>
					</g>
				</g>
				<g id="Group_6221" transform="translate(20.494 29.936)">
					<g id="Path_5676">
						<path d="M5096.9,16733.4c-0.2,0.3-0.3,0.5-0.3,0.8c0,0.4,0,0.6,0.1,0.9c0.1,0.3,0.4,0.5,0.5,0.6c0.3,0.2,0.5,0.4,0.9,0.5
							c0.3,0.1,0.5,0.2,0.8,0.3v-4.5C5098.2,16732.3,5097.4,16732.7,5096.9,16733.4z"/>
					</g>
				</g>
				<g id="Group_6222" transform="translate(29.132 42.288)">
					<g id="Path_5677">
						<path d="M5095.8,16731.1L5095.8,16731.1L5095.8,16731.1L5095.8,16731.1z"/>
					</g>
				</g>
				<g id="Group_6223" transform="translate(29.182 42.235)">
					<g id="Path_5678">
						<path d="M5095.8,16731.1"/>
					</g>
				</g>
				<g id="Group_6224" transform="translate(0 0)">
					<g id="Path_5679">
						<path fill="#FFFFFF" d="M5123.9,16746.7c4.2-3.5,6.9-11.4,5.2-11.7c-2.3-0.5-7.2,1.5-9.6,1.9c-3.4,0.4-7.1-3.6-9.1-1.4
							c-1.6,1.8,1.2,8.6,5.7,11.5c-13.5,6.7-32.5,39.8,0.6,42.3C5162.5,16792.6,5139.6,16753.2,5123.9,16746.7z"/>
						<path fill="#137FCF" d="M5122,16790.3c-1.6,0-3.4-0.1-5.3-0.2c-13.9-1-18-7.3-19-12.4c-2.2-11.3,8.2-25.8,16.7-30.9
							c-3-2.5-5-6.3-5.4-9c-0.2-1.3,0.1-2.4,0.6-3c1.6-1.7,3.8-0.8,5.7,0.1c1.4,0.5,2.7,1.2,3.9,1.1c0.7-0.1,1.9-0.5,3.1-0.8
							c2.6-0.7,5.1-1.5,6.8-1.1c0.5,0.1,1,0.5,1.2,1.2c0.5,2.2-1.8,7.8-4.9,11.1c9.6,4.8,21.5,20.7,18.7,32.4
							C5142.9,16784.2,5137.9,16790.3,5122,16790.3z M5112,16735.7c-0.4,0-0.6,0.1-0.9,0.4c-0.2,0.3-0.3,0.8-0.2,1.5
							c0.4,2.6,2.6,6.6,5.7,8.6l1.4,0.9l-1.5,0.7c-8.2,4-19.1,18.9-17,29.6c1.3,6.5,7.2,10.2,17.3,10.9c15,1.1,23.8-2.4,25.6-10
							c2.6-11.2-9.9-27.1-18.9-30.8l-1.4-0.5l1.2-1c3.6-3,5.7-8.8,5.4-10.1c-1.3-0.2-3.7,0.5-5.7,1.1c-1.3,0.4-2.5,0.7-3.4,0.8
							c-1.7,0.2-3.5-0.5-4.9-1.2C5113.5,16736,5112.7,16735.7,5112,16735.7z"/>
					</g>
				</g>
				<g id="Group_6225" transform="translate(29.088 42.365)">
					<g id="Path_5680">
						<path d="M5095.8,16731.1L5095.8,16731.1L5095.8,16731.1z"/>
					</g>
				</g>
			</g>
		</g>
		<g id="money-bag" transform="translate(363.604 996.105)">
			<g id="Path_5684">
				<path fill="#FFFFFF" d="M5114.4,16741.1c0,2.9-2.4,5.4-5.3,5.4c-2.9,0-5.4-2.4-5.4-5.3c0-2.9,2.4-5.4,5.3-5.4l0,0
					C5112,16735.8,5114.4,16738.1,5114.4,16741.1L5114.4,16741.1"/>
				<path fill="#137FCF" d="M5109.1,16747.4c-1.6,0-3.2-0.6-4.4-1.8s-1.8-2.7-1.8-4.4c0-1.6,0.6-3.3,1.8-4.5s2.7-1.8,4.4-1.8
					c1.6,0,3.3,0.6,4.5,1.8s1.8,2.7,1.8,4.4C5115.4,16744.5,5112.5,16747.4,5109.1,16747.4L5109.1,16747.4z M5109.1,16736.7
					L5109.1,16736.7c-1.3,0-2.4,0.5-3.2,1.3c-0.8,0.8-1.3,1.9-1.3,3.1s0.5,2.3,1.3,3.1c0.8,0.8,1.9,1.3,3.1,1.3l0,0
					c2.5,0,4.4-2,4.4-4.5l0,0c0-1.2-0.5-2.3-1.3-3.1C5111.4,16737.1,5110.3,16736.7,5109.1,16736.7z"/>
			</g>
			<g id="Group_6228" transform="translate(0 0)">
				<g id="Path_5685">
					<path fill="#D6EEFF" d="M5116.6,16731.6c-2.7,0-5,2-5.3,4.7c1.9,0.8,3.1,2.7,3.1,4.8c0,0.2,0,0.4-0.1,0.5
						c2.6,1.2,5.8,0.1,7-2.6c1.2-2.6,0.1-5.8-2.6-7C5118.1,16731.7,5117.3,16731.6,5116.6,16731.6"/>
					<path fill="#137FCF" d="M5116.6,16743.1c-0.9,0-1.7-0.2-2.6-0.5l-0.6-0.3l0.1-0.6c0-0.2,0-0.3,0.1-0.5c0-1.6-1-3.2-2.6-3.9
						l-0.6-0.3l0.1-0.6c0.4-3.2,3-5.6,6.2-5.6l0,0l0,0c0.9,0,1.8,0.2,2.6,0.5c1.5,0.7,2.6,1.9,3.2,3.5c0.5,1.5,0.5,3.3-0.2,4.7
						c-0.7,1.5-1.9,2.6-3.5,3.2C5118,16742.9,5117.3,16743.1,5116.6,16743.1z M5115.3,16741.1c0.9,0.3,1.8,0.3,2.7-0.1
						c1.1-0.4,2-1.2,2.5-2.3c1-2.2,0.1-4.8-2.1-5.8c-0.5-0.3-1.2-0.4-1.9-0.4v-0.7v0.7l0,0c-2,0-3.7,1.4-4.3,3.3
						C5114.1,16736.9,5115.3,16738.9,5115.3,16741.1z"/>
				</g>
				<g id="Path_5686">
					<path fill="#D6EEFF" d="M5103.7,16741.1c0-2.2,1.4-4.2,3.5-4.9c-1.5-2.5-4.8-3.3-7.3-1.7c-2.5,1.5-3.3,4.8-1.7,7.3
						c1.4,2.2,4,3.1,6.5,2.2C5104.1,16743.1,5103.7,16742.1,5103.7,16741.1"/>
					<path fill="#137FCF" d="M5102.6,16745.2c-2.1,0-4.1-1.1-5.3-2.9c-0.9-1.5-1.2-3.1-0.7-4.7c0.4-1.6,1.4-3,2.8-3.8
						c1.5-0.9,3.1-1.2,4.7-0.7c1.6,0.4,3,1.4,3.8,2.8l0.5,0.9l-1,0.4c-1.7,0.6-2.8,2.3-2.8,4.1c0,0.8,0.3,1.6,0.7,2.3l0.6,0.9
						l-1,0.4C5104.2,16745,5103.4,16745.2,5102.6,16745.2z M5102.6,16734.5c-0.8,0-1.6,0.2-2.3,0.6c-1,0.6-1.7,1.5-2,2.7
						c-0.3,1.2-0.1,2.3,0.5,3.3c0.9,1.6,2.6,2.3,4.4,2.1c-0.3-0.7-0.5-1.5-0.5-2.2h1.3h-1.3c0-2.2,1.2-4.1,2.9-5.2
						c-0.5-0.5-1.3-1-2.1-1.2C5103.3,16734.6,5103,16734.5,5102.6,16734.5z"/>
				</g>
			</g>
		</g>
		<g id="Path_5687">
			<path fill="#137FCF" d="M5467.3,17723.6l-0.8-1.6c1.9-1,2-2.9,1.8-5.8c-0.1-1.1-0.1-2.1,0-3.1c0.4-2.2,0.9-3.5,1.9-4.1
				c0.7-0.5,1.6-0.6,2.6-0.4c0.6,0.1,1.2,0.5,1.6,1.3c1.3,2,1.4,6.2,0.8,8.2c-0.3,1.2,0.2,2.4,1,3.3l-1.3,1.3
				c-1.4-1.3-1.9-3.1-1.6-4.9c0.5-1.9,0.3-5.5-0.5-6.8c-0.1-0.2-0.3-0.4-0.5-0.5c-0.6-0.2-1,0-1.2,0.1c-0.5,0.4-0.9,1.3-1.2,2.9
				c-0.1,0.7-0.1,1.6,0,2.6C5470.2,17718.7,5470.4,17722,5467.3,17723.6z"/>
		</g>
		<g id="Rectangle_2867" transform="translate(363 969.363)">
			<g>
				<path fill="#D6EEFF" d="M5101,16733.9h15.5c2,0,3.6,1.6,3.6,3.6l0,0c0,2-1.6,3.6-3.6,3.6H5101c-2,0-3.6-1.6-3.6-3.6l0,0
					C5097.4,16735.6,5099,16733.9,5101,16733.9z"/>
			</g>
			<g>
				<path fill="#137FCF" d="M5116.5,16741.2H5101c-2,0-3.6-1.6-3.6-3.6c0-2,1.6-3.6,3.6-3.6h15.5c2,0,3.6,1.6,3.6,3.6
					C5120.2,16739.6,5118.5,16741.2,5116.5,16741.2z M5101,16735.8c-1,0-1.8,0.8-1.8,1.8s0.8,1.8,1.8,1.8h15.5c1,0,1.8-0.8,1.8-1.8
					s-0.8-1.8-1.8-1.8H5101z"/>
			</g>
		</g>
	</g>
</g>
</svg>
