<?xml version="1.0" encoding="utf-8"?>
<!-- Generator: Adobe Illustrator 22.0.1, SVG Export Plug-In . SVG Version: 6.00 Build 0)  -->
<svg version="1.1" id="Layer_1" xmlns="http://www.w3.org/2000/svg" xmlns:xlink="http://www.w3.org/1999/xlink" x="0px" y="0px"
	 viewBox="0 0 60 60" enable-background="new 0 0 60 60" xml:space="preserve">
<g>
	<g id="Group_8382" transform="translate(-0.1)">
		<path fill="#D6EEFF" d="M42.6,28.9L24.9,18.7c-0.7-0.4-1.6-0.2-2.1,0.5c-0.1,0.2-0.2,0.4-0.2,0.7v20.5c0,0.8,0.7,1.4,1.5,1.4
			c0.3,0,0.5-0.1,0.7-0.2l17.7-10.3c0.7-0.4,0.9-1.3,0.5-1.9C43.1,29.3,42.9,29.1,42.6,28.9z"/>
		<path fill="#288ED9" d="M24.2,42.8c-1.3,0-2.3-1.1-2.3-2.3V20c0-0.4,0.1-0.8,0.4-1.2c0.4-0.5,0.8-0.9,1.4-1.1
			c0.6-0.2,1.3-0.1,1.8,0.3l17.7,10.3c0.4,0.2,0.7,0.5,0.9,0.9c0.3,0.5,0.4,1.2,0.2,1.7c-0.2,0.5-0.5,1.1-1.1,1.3L25.3,42.4
			C25,42.6,24.6,42.7,24.2,42.8L24.2,42.8z M24.2,19.4c-0.1,0-0.1,0-0.2,0c-0.2,0-0.3,0.2-0.4,0.3c-0.1,0.1-0.1,0.2-0.1,0.3v20.4
			c0,0.3,0.3,0.5,0.6,0.5c0.1,0,0.2,0,0.3-0.1l17.7-10.3c0.3-0.2,0.4-0.4,0.2-0.7c-0.1-0.1-0.1-0.2-0.2-0.2l0,0L24.4,19.4
			C24.4,19.4,24.3,19.4,24.2,19.4z"/>
		<path fill="#288ED9" d="M6.5,24.2c-0.1,0-0.2,0-0.3,0c-0.4-0.1-0.7-0.6-0.6-1.1c0.2-0.8,0.4-1.5,0.8-2.2c3-7.6,9.1-13.2,16.8-15.5
			c0.4-0.2,1,0.1,1.1,0.6c0.2,0.4-0.1,1-0.6,1.1C16.4,9.2,10.8,14.5,8,21.5c-0.3,0.7-0.5,1.3-0.7,2.1C7.3,23.9,6.9,24.2,6.5,24.2z"
			/>
		<path fill="#288ED9" d="M23.6,55.2c-0.1,0-0.2,0-0.3,0c-8.5-2.5-15.1-9-17.6-17.5c-0.2-0.4,0.1-1,0.6-1.1c0.4-0.2,1,0.1,1.1,0.6
			c2.3,7.9,8.5,14,16.5,16.3c0.4,0.2,0.7,0.6,0.6,1.1C24.4,55,24,55.2,23.6,55.2z"/>
		<path fill="#288ED9" d="M37.8,55.1c-0.4,0-0.7-0.3-0.9-0.6c-0.2-0.4,0.1-1,0.6-1.1c7.9-2.3,14-8.4,16.4-16.3
			c0.2-0.4,0.6-0.7,1.1-0.6c0.4,0.2,0.7,0.6,0.6,1.1c-2.5,8.5-9.1,15-17.6,17.5C37.9,55.1,37.9,55.1,37.8,55.1z"/>
		<path fill="#288ED9" d="M54.7,24.1c-0.4,0-0.7-0.3-0.9-0.6c-0.3-0.8-0.5-1.7-0.9-2.7C50,14.2,44.4,9.1,37.4,7
			c-0.4-0.2-0.7-0.6-0.6-1.1c0.2-0.4,0.6-0.7,1.1-0.6c7.5,2.2,13.6,7.6,16.6,14.8c0.4,1,0.7,2,1,2.9c0.2,0.4-0.1,1-0.6,1.2
			C54.9,24.1,54.8,24.1,54.7,24.1z"/>
		<path fill="#288ED9" d="M27.6,10c-0.4,0-0.7-0.2-1-0.4c-0.4-0.3-0.5-0.7-0.5-1.1V8.4V8.2V2.4c0-0.4,0.1-0.8,0.4-1.1
			c0.4-0.4,0.7-0.5,1.2-0.5h0.1h0.2h5.8c0.4,0,0.8,0.1,1.1,0.4c0.4,0.3,0.5,0.7,0.5,1.1v0.1v0.2v5.8c0,0.9-0.7,1.6-1.6,1.6L27.6,10
			C27.7,10,27.7,10,27.6,10z M27.7,8.2L27.7,8.2L27.7,8.2L27.7,8.2z M27.8,2.5v5.6h5.5V2.5H27.8z M33.7,2.5L33.7,2.5L33.7,2.5z
			 M27.8,2.4L27.8,2.4L27.8,2.4z"/>
		<path fill="#288ED9" d="M26.5,59.2c-0.2,0-0.4-0.1-0.5-0.2c-0.5-0.3-0.7-1-0.4-1.5l4.1-7.2c0.2-0.3,0.4-0.5,0.8-0.5
			c0.4-0.1,0.8,0.1,1.1,0.4l0.2,0.2l4.1,7.2c0.1,0.2,0.2,0.4,0.2,0.6c0,0.3-0.1,0.5-0.4,0.8c-0.2,0.2-0.5,0.4-0.8,0.4L26.5,59.2
			C26.5,59.2,26.5,59.2,26.5,59.2z M26.5,57.4L26.5,57.4L26.5,57.4L26.5,57.4z M30.6,52.2l-3,5.2h6.1L30.6,52.2z M34.7,57.4
			L34.7,57.4L34.7,57.4C34.8,57.4,34.7,57.4,34.7,57.4z"/>
		<path fill="#288ED9" d="M5.3,34.8c-2.5,0-4.6-2.1-4.6-4.6s2.1-4.6,4.6-4.6s4.6,2.1,4.6,4.6S7.9,34.8,5.3,34.8z M5.3,27.4
			c-1.5,0-2.8,1.3-2.8,2.8c0,1.5,1.3,2.8,2.8,2.8s2.8-1.3,2.8-2.8C8.2,28.7,6.8,27.4,5.3,27.4z"/>
		<path fill="#288ED9" d="M52.4,34.3c-0.3,0-0.4-0.1-0.6-0.3c-0.4-0.4-0.4-0.9,0-1.3l6.3-6.3c0.4-0.4,0.9-0.4,1.3,0s0.4,0.9,0,1.3
			L53.1,34C52.9,34.2,52.6,34.3,52.4,34.3z"/>
		<path fill="#288ED9" d="M58.7,34.3c-0.3,0-0.4-0.1-0.6-0.3l-6.3-6.3c-0.4-0.4-0.4-0.9,0-1.3s0.9-0.4,1.3,0l6.3,6.3
			c0.4,0.4,0.4,0.9,0,1.3C59.2,34.2,59,34.3,58.7,34.3z"/>
	</g>
</g>
</svg>
