<?xml version="1.0" encoding="utf-8"?>
<!-- Generator: Adobe Illustrator 22.0.1, SVG Export Plug-In . SVG Version: 6.00 Build 0)  -->
<svg version="1.1" id="Layer_1" xmlns="http://www.w3.org/2000/svg" xmlns:xlink="http://www.w3.org/1999/xlink" x="0px" y="0px"
	 viewBox="0 0 60 60" enable-background="new 0 0 60 60" xml:space="preserve">
<g>
	<g id="Group_6771" transform="translate(-3613 -16010)">
		<g id="Rectangle_2785">
			<rect x="3617.7" y="16020.4" fill="#FFFFFF" width="50.7" height="39.2"/>
			<path fill="#137FCF" d="M3669.4,16060.6h-52.7v-41.2h52.7V16060.6z M3618.7,16058.6h48.7v-37.2h-48.7V16058.6z"/>
		</g>
		<g id="Path_5563">
			<path fill="#D6EEFF" d="M3637.5,16049v-19.1l15,9.6L3637.5,16049z"/>
			<path fill="#137FCF" d="M3636.5,16050.8v-22.8l17.9,11.4L3636.5,16050.8z M3638.5,16031.7v15.5l12.2-7.8L3638.5,16031.7z"/>
		</g>
		<g id="Rectangle_2787">
			<rect x="3616.4" y="16030.2" fill="#D6EEFF" width="9.5" height="9.8"/>
			<path fill="#137FCF" d="M3626.9,16041h-11.5v-11.8h11.5V16041z M3617.4,16039h7.5v-7.8h-7.5V16039z"/>
		</g>
		<g id="Rectangle_2788">
			<rect x="3616.4" y="16040" fill="#D6EEFF" width="9.5" height="9.8"/>
			<path fill="#137FCF" d="M3626.9,16050.8h-11.5v-11.8h11.5V16050.8z M3617.4,16048.8h7.5v-7.8h-7.5V16048.8z"/>
		</g>
		<g id="Rectangle_2791">
			<rect x="3660.1" y="16030.2" fill="#D6EEFF" width="9.5" height="9.8"/>
			<path fill="#137FCF" d="M3670.6,16041h-11.5v-11.8h11.5V16041z M3661.1,16039h7.5v-7.8h-7.5V16039z"/>
		</g>
		<g id="Rectangle_2792">
			<rect x="3660.1" y="16040" fill="#D6EEFF" width="9.5" height="9.8"/>
			<path fill="#137FCF" d="M3670.6,16050.8h-11.5v-11.8h11.5V16050.8z M3661.1,16048.8h7.5v-7.8h-7.5V16048.8z"/>
		</g>
		<g id="Rectangle_2790">
			<rect x="3660.1" y="16020.4" fill="#D6EEFF" width="9.5" height="9.8"/>
			<path fill="#137FCF" d="M3670.6,16031.2h-11.5v-11.8h11.5V16031.2z M3661.1,16029.2h7.5v-7.8h-7.5V16029.2z"/>
		</g>
		<g id="Rectangle_2786">
			<rect x="3616.4" y="16020.4" fill="#D6EEFF" width="9.5" height="9.8"/>
			<path fill="#137FCF" d="M3626.9,16031.2h-11.5v-11.8h11.5V16031.2z M3617.4,16029.2h7.5v-7.8h-7.5V16029.2z"/>
		</g>
		<g id="Rectangle_2789">
			<rect x="3616.4" y="16049.8" fill="#D6EEFF" width="9.5" height="9.8"/>
			<path fill="#137FCF" d="M3626.9,16060.6h-11.5v-11.8h11.5V16060.6z M3617.4,16058.6h7.5v-7.8h-7.5V16058.6z"/>
		</g>
		<g id="Rectangle_2793">
			<rect x="3660.1" y="16049.8" fill="#D6EEFF" width="9.5" height="9.8"/>
			<path fill="#137FCF" d="M3670.6,16060.6h-11.5v-11.8h11.5V16060.6z M3661.1,16058.6h7.5v-7.8h-7.5V16058.6z"/>
		</g>
	</g>
</g>
</svg>
