<?xml version="1.0" encoding="utf-8"?>
<!-- Generator: Adobe Illustrator 22.0.1, SVG Export Plug-In . SVG Version: 6.00 Build 0)  -->
<svg version="1.1" id="Layer_1" xmlns="http://www.w3.org/2000/svg" xmlns:xlink="http://www.w3.org/1999/xlink" x="0px" y="0px"
	 viewBox="0 0 60 60" enable-background="new 0 0 60 60" xml:space="preserve">
<g>
	<g id="Group_7134" transform="translate(3043 -17861.811)">
		<g id="Group_7086" transform="translate(788 1200)">
			<g id="Rectangle_3014">
				<g>
					<path fill="#FFFFFF" d="M-3825.6,16669.9h49.3c1.7,0,3,1.3,3,3v37.8c0,1.7-1.3,3-3,3h-49.3c-1.7,0-3-1.3-3-3v-37.8
						C-3828.6,16671.3-3827.4,16669.9-3825.6,16669.9z"/>
				</g>
				<g>
					<path fill="#288ED9" d="M-3776.4,16713.7h-49.3c-1.7,0-3-1.3-3-3v-37.8c0-1.7,1.3-3,3-3h49.3c1.7,0,3,1.3,3,3v37.8
						C-3773.4,16712.4-3774.6,16713.7-3776.4,16713.7z M-3825.6,16671.9c-0.6,0-1,0.4-1,1v37.8c0,0.6,0.4,1,1,1h49.3
						c0.6,0,1-0.4,1-1v-37.8c0-0.6-0.4-1-1-1H-3825.6z"/>
				</g>
			</g>
			<g id="Group_7050" transform="translate(0 4.235)">
				<g id="Group_7052">
					<g id="Path_4920">
						<rect x="-3828.6" y="16677.2" fill="#288ED9" width="54.5" height="2"/>
					</g>
					<g id="Rectangle_2327">
						<rect x="-3823.3" y="16682.3" fill="#D6EEFF" width="8.7" height="22.9"/>
					</g>
					<g id="Group_7273">
						<g id="Ellipse_1153">
							<circle fill="#288ED9" cx="-3822.1" cy="16672.6" r="1.7"/>
						</g>
						<g id="Ellipse_1154">
							<circle fill="#288ED9" cx="-3817.1" cy="16672.6" r="1.7"/>
						</g>
						<g id="Ellipse_1155">
							<circle fill="#288ED9" cx="-3812.1" cy="16672.6" r="1.7"/>
						</g>
					</g>
					<g id="Rectangle_2328">
						<rect x="-3811.5" y="16682.3" fill="#D6EEFF" width="32.8" height="9"/>
					</g>
				</g>
			</g>
		</g>
		<g id="Path_5993">
			<path fill="#288ED9" d="M-3021.5,17898.8l3.7,9.4h1.6l3.8-9.4h-1.6l-2.9,7.6l-2.9-7.6H-3021.5z M-3006.1,17898.8
				c-1.2,0-2.4,0.5-3.2,1.5v-1.5h-1.6v9.4h1.6v-5c-0.1-1.5,1.1-2.7,2.6-2.8c0,0,0,0,0.1,0c1.2,0,2.2,0.9,2.2,2.1c0,0.1,0,0.1,0,0.2
				v5.6h1.6v-5.9c0.1-1.8-1.2-3.3-3-3.4C-3006,17898.8-3006,17898.8-3006.1,17898.8z M-2993.6,17901.3l0.9-1.2
				c-1-0.9-2.2-1.4-3.6-1.4c-2.6-0.1-4.8,2-4.9,4.6v0.1c0,2.6,2.1,4.8,4.7,4.8h0.1c1.4,0,2.7-0.6,3.6-1.5l-0.9-1
				c-0.7,0.7-1.6,1.1-2.6,1.1c-1.8,0-3.3-1.4-3.3-3.2c0,0,0,0,0-0.1c0-1.8,1.5-3.3,3.3-3.3c0,0,0,0,0.1,0
				C-2995.3,17900.2-2994.3,17900.6-2993.6,17901.3L-2993.6,17901.3z"/>
		</g>
	</g>
</g>
</svg>
