<svg version="1" xmlns="http://www.w3.org/2000/svg" width="736" height="736" viewBox="0 0 552.000000 552.000000"><path d="M270.8 8.5c-.2.1-5.2.5-11.3.9-6 .3-12.1.8-13.5 1.1-1.4.2-4.7.7-7.5.9-2.7.3-5.9.7-7 .9-1.1.3-4 .8-6.5 1.3-2.5.4-4.7.8-5 .9-.3.1-3.2.7-6.5 1.5-12.1 2.8-31.4 8.9-36.7 11.6-1.5.8-2.9 1.4-3 1.3-1.3-.4-25 11-33.2 16-3.7 2.2-6.9 4.1-7.1 4.1-1.6 0-28.7 19.9-36.8 27.1C73.4 96.6 50 125.9 36.9 151c-1.8 3.6-3.8 6.8-4.4 7.2-.5.4-.7.8-.3.8.4 0-.5 2.4-2 5.2-1.4 2.9-2.7 5.5-2.7 5.8 0 .3-.4 1-.8 1.7-1.3 2.1-7.9 19.7-10.4 27.8-2.4 7.8-2.9 9.6-3.7 13.3-.2.9-.9 3.5-1.5 5.7s-1.3 5.7-1.7 7.9c-.7 4.4-1.1 7-1.9 10.6-.6 2.8-1.1 6.8-2.2 17.5-1.5 14.2-.8 49.7 1.1 61.5.3 1.4.7 4.3 1 6.5 5.7 41.2 24.4 85.2 51.6 121.3 11.7 15.6 34.8 39.2 49 50.2 2.5 1.9 4.7 3.7 5 4 .3.3 1.2.9 2.1 1.5.8.5 6.1 4 11.7 7.7 5.6 3.8 10.6 6.8 11.1 6.8s1.1.4 1.3.9c.3.8 25.4 13.5 32.3 16.2 7.1 2.9 11 4.4 11.5 4.5.5.1 2.3.7 6.5 2.4 3.4 1.2 9.3 3.1 11.5 3.5 1.2.2 3 .7 4 1 1 .3 2.7.7 3.7.9 1 .2 3.6.9 5.9 1.5 6.3 1.7 16.5 3.6 24.4 4.5 13.7 1.7 20.1 2.1 36.5 2.1 15.9 0 29-.7 36.5-1.9.8-.2 4-.6 7-1 3-.5 8.2-1.4 11.5-2.2 3.3-.7 7.2-1.5 8.7-1.8 4.8-.8 27.8-8 34.3-10.7 1.7-.7 3.2-1.3 3.5-1.3 1.2-.2 16.9-7.2 20.5-9.2 12.1-6.5 15.8-8.5 23.5-13.3 10.3-6.4 14.2-9.2 29.5-21.4 8.3-6.5 32.4-31.6 40.1-41.7 28.8-37.5 45.8-76.1 53.8-122.6.6-3.3 1.1-6.8 2.3-16.9.9-7.8.9-44 0-53-1.7-17-5-34.7-9.2-48.5-1.4-4.7-2.7-9-2.9-9.5-2.6-9.9-18-45.4-20.5-47.5-.3-.3-1.7-2.5-3-5-13.1-24.5-40.8-56.5-65.6-75.9-4.4-3.4-8.7-6.8-9.5-7.4-8.3-6.6-28.3-18.4-42-24.8-5.8-2.8-11.3-5.4-12.2-6-1-.5-2.5-.9-3.3-.9-.8 0-1.5-.5-1.5-1.1 0-.5-.4-.8-.8-.5-.4.2-2.1-.2-3.7-.9-5.3-2.4-29-9.8-35.8-11.1-1.2-.2-3.3-.6-4.7-.9-1.4-.3-4.3-.8-6.5-1.1-2.2-.3-4.3-.8-4.6-1-.3-.1-3.4-.6-7-1-3.5-.3-6.7-.8-7-1-.3-.2-7.1-.6-15-.9-7.9-.4-15.9-.8-17.6-.9-1.8-.2-3.4-.2-3.5-.1z"/></svg>