<svg xmlns="http://www.w3.org/2000/svg" xmlns:xlink="http://www.w3.org/1999/xlink" viewBox="-2836.574 -15708.529 498.366 470.59">
  <defs>
    <style>
      .cls-1 {
        fill: url(#linear-gradient);
      }

      .cls-2 {
        fill: #98cdf2;
      }

      .cls-3 {
        fill: #e3ccf3;
      }

      .cls-4 {
        fill: #d6eeff;
      }

      .cls-5 {
        fill: #005b9f;
      }

      .cls-6 {
        fill: #137fcf;
      }

      .cls-7 {
        fill: #ffe7cb;
      }

      .cls-8 {
        fill: url(#linear-gradient-2);
      }

      .cls-9 {
        fill: #1f364c;
      }

      .cls-10, .cls-19 {
        fill: #21e2e2;
      }

      .cls-11 {
        fill: #164571;
      }

      .cls-12 {
        fill: #ffbc98;
      }

      .cls-13 {
        fill: #0e71bb;
      }

      .cls-14 {
        fill: #fca576;
      }

      .cls-15 {
        fill: #52acea;
      }

      .cls-16, .cls-17, .cls-21 {
        fill: none;
      }

      .cls-16 {
        stroke: #707070;
      }

      .cls-17 {
        stroke: #137fcf;
      }

      .cls-17, .cls-19 {
        stroke-width: 4px;
      }

      .cls-18 {
        fill: #288ed9;
      }

      .cls-19 {
        stroke: #21e2e2;
      }

      .cls-20 {
        stroke: none;
      }
    </style>
    <linearGradient id="linear-gradient" x1="0.569" y1="0.896" x2="0.529" y2="-0.097" gradientUnits="objectBoundingBox">
      <stop offset="0" stop-color="#c6e6ff"/>
      <stop offset="1" stop-color="#d6eeff" stop-opacity="0"/>
    </linearGradient>
    <linearGradient id="linear-gradient-2" x1="0.5" y1="1" x2="0.5" gradientUnits="objectBoundingBox">
      <stop offset="0" stop-color="#288ed9" stop-opacity="0"/>
      <stop offset="1" stop-color="#005b9f"/>
    </linearGradient>
  </defs>
  <g id="Group_8040" data-name="Group 8040" transform="translate(-3613 -17863)">
    <path id="Path_5436" data-name="Path 5436" class="cls-1" d="M56.278,329.835s-53.5-49.5-74.2-93.754,35.1-99.2,35.1-99.2h0C58.917,69.616,51.014,69.427,145.584,38.227s192.571-.872,197,0c57.686,11.591,89.545,44.147,110.3,88.939s11.58,85.952-24.437,145.389-29.717,60.853-93.085,57.279-68.953,22.485-117.008,15.949C170.3,339.334,74.768,345.086,56.278,329.835Z" transform="translate(798.951 2234.514)"/>
    <path id="Path_5719" data-name="Path 5719" class="cls-2" d="M0,0H277V210H0Z" transform="translate(809 2199)"/>
    <path id="Path_5440" data-name="Path 5440" class="cls-3" d="M71.7,183.7" transform="translate(800.082 2139.211)"/>
    <path id="Path_5441" data-name="Path 5441" class="cls-3" d="M249.691,195H71.7" transform="translate(800.082 2172.463)"/>
    <rect id="Rectangle_2554" data-name="Rectangle 2554" class="cls-4" width="244.824" height="178.372" transform="translate(824 2214.885)"/>
    <path id="Path_5445" data-name="Path 5445" class="cls-5" d="M128.5,69.045v55.1a2.066,2.066,0,0,0,3.169,1.738l45.6-28.421a2.055,2.055,0,0,0,0-3.476l-45.6-26.683A2.066,2.066,0,0,0,128.5,69.045Z" transform="translate(801.352 2186.604)"/>
    <path id="Path_5438" data-name="Path 5438" class="cls-6" d="M42.141,38.754c1.545-.322,233.026-54.907,335.971-33.975,27.64,3.324,48.9,5.212,83.122,22.622s28.007,77.782-48.4,86.482-79.493-.529-142.65-6.609-82.967,3.021-117.539,8.979S52.744,121.918,28.1,105.33-26.231,53.487,42.141,38.754Z" transform="translate(794.346 2480.256) rotate(3)"/>
    <g id="Group_5731" data-name="Group 5731" transform="translate(23 -29.824)">
      <path id="Path_5439" data-name="Path 5439" class="cls-7" d="M110.642,109.525l-1.716,19.6c-.1,1.625-.293,11.046.9,12.7l33.09,7.451c2.383,8.127-4.228,35.9-.986,31.308l-2.22-48.505-16.731-1.358L127.8,105.7Z" transform="translate(996.806 2236.261)"/>
      <g id="Group_5728" data-name="Group 5728" transform="translate(1063.314 2244.756)">
        <ellipse id="Ellipse_1094" data-name="Ellipse 1094" class="cls-8" cx="82.542" cy="26.663" rx="82.542" ry="26.663" transform="translate(0 328.587)"/>
        <g id="Group_5373" data-name="Group 5373" transform="translate(36.713 0)">
          <path id="Path_4787" data-name="Path 4787" class="cls-9" d="M100.1,344.783l-.3,9.195a4.813,4.813,0,0,0,3.164,4.746,16.24,16.24,0,0,0,8.107.494,7.436,7.436,0,0,0,5.339-4.35l9-18.785a6.675,6.675,0,0,0-.3-6.525c-2.472-3.856-7.811-5.24-11.568-1.483Z" transform="translate(-37.888 -13.003)"/>
          <path id="Path_4775" data-name="Path 4775" class="cls-10" d="M100.087,344.161l-.287,8.892a4.655,4.655,0,0,0,3.06,4.59,15.705,15.705,0,0,0,7.841.478,7.192,7.192,0,0,0,5.163-4.207l8.7-18.167a6.456,6.456,0,0,0-.287-6.311c-2.39-3.729-7.554-5.068-11.187-1.434Z" transform="translate(-38.67 -15.348)"/>
          <path id="Path_4769" data-name="Path 4769" class="cls-7" d="M140.25,109.525l1.721,19.6a19.839,19.839,0,0,1-.191,4.781L125.9,176.68c-2.39,8.127-13.775,8.491-17.026,3.9l10.344-10.819,9.5-34.875L123.039,105.7Z" transform="translate(-35.806 -2.828)"/>
          <path id="Path_4773" data-name="Path 4773" class="cls-11" d="M58.437,180.2s-4.59,45.9,3.06,102.309c5.546,41.115,6.6,57.274,6.693,63.107a3.771,3.771,0,0,0,2.964,3.633c4.781,1.052,13.482,2.486,14.247-1.721,1.912-25.816,0-91.792,0-91.792l5.737-41.115,4.781,42.071.956,78.405c.031,4.268,14.342,6.693,16.255-1.912L116,250l5.737-58.326L92.094,180.2Z" transform="translate(-35.842 -6.094)"/>
          <path id="Path_4771" data-name="Path 4771" class="cls-7" d="M91.991,40.962l16.255,26.773L81.474,62,74.78,52.436s-5.737,4.3-8.605,0c-3.06-4.781-6.119-9.466-6.693-19.123-1.912-2.868-3.538-6.024-1.912-12.43,1.052-8.8,7.171-7.267,13.386-5.737Z" transform="translate(-35.834 1.193)"/>
          <path id="Path_4768" data-name="Path 4768" class="cls-12" d="M65.306,63.423c12.143-4.972,27.251-6.215,42.167-6.024A22.7,22.7,0,0,1,126.4,67.63c7.649,11.761,12.813,29.45,15.2,36.239a2.963,2.963,0,0,1-1.721,3.633c-4.207,1.53-12.335,4.111-16.542,2.868-3.92,15.394-1.912,43.983-1.912,43.983s3.538,19.888,3.825,34.039a3.809,3.809,0,0,1-2.1,3.442c-22.374,11.283-45.7-3.06-45.7-3.06L59.091,176.25a5.827,5.827,0,0,1-2.486-4.972l2.677-56.987-2.39,7.936a1.913,1.913,0,0,1-2.2,1.339c-6.98-1.434-11.378-5.259-15.3-12.717a1.016,1.016,0,0,1-.1-.765c5.355-16.255,9.753-30.119,18.836-41.115A16.972,16.972,0,0,1,65.306,63.423Z" transform="translate(-35.061 -0.71)"/>
          <path id="Path_4781" data-name="Path 4781" class="cls-13" d="M244.263,59.235c-1.287-1.552-9.632-12.137-8.471-18.327,2.716-9.437,10.934-12.556,18.054-12.2-1.942,6.257,5.506,7.69,11.044,5.748,10.788-2.229,17.7,9.17,19.861,21.971,2.342,11.045-5.564,21.215-12.092,21.213-6.5,0-18.037-1.324-18.813-5.982,9.206-7.623-3.02-19.847-2.229-9.563C249.74,64.039,249.747,65.189,244.263,59.235Z" transform="translate(-219.131 -28.684)"/>
          <g id="Group_5368" data-name="Group 5368" transform="translate(0 337.896)">
            <path id="Path_4776" data-name="Path 4776" class="cls-10" d="M67.143,351.5l16.446,1.53a1.956,1.956,0,0,1,1.721,1.912v15.394a2.9,2.9,0,0,1-2.964,2.868l-41.976-.861c-6.693,0-6.693-11.474,0-13.386Z" transform="translate(-34.889 -351.5)"/>
            <rect id="Rectangle_2230" data-name="Rectangle 2230" class="cls-9" width="51.605" height="3.909" rx="1.955" transform="translate(0 17.974)"/>
            <g id="Group_5322" data-name="Group 5322" transform="matrix(-0.996, 0.087, -0.087, -0.996, 45.939, 14.183)">
              <g id="Group_5321" data-name="Group 5321" transform="matrix(0.999, -0.035, 0.035, 0.999, 4.898, 1.218)">
                <path id="Path_4220" data-name="Path 4220" class="cls-5" d="M27.673,7.977C23.318,9.272,17.076,9.92,13.446,5,11.414,2.6,9.164,1.242,6.769,1.113A8.956,8.956,0,0,0,1.034,2.991a.722.722,0,0,1-.871,0,.544.544,0,0,1,0-.777,10.391,10.391,0,0,1,6.75-2.2c2.831.13,5.371,1.619,7.621,4.339,5.3,7.188,16.767,1.1,17.275.842a.711.711,0,0,1,.871.13.578.578,0,0,1-.218.777A28.6,28.6,0,0,1,27.673,7.977Z" transform="translate(0 0)"/>
              </g>
              <path id="Path_4786" data-name="Path 4786" class="cls-5" d="M3.894,6.938H3.505a3.269,3.269,0,0,1-3.5-3.044V3.505A3.269,3.269,0,0,1,3.052.009h.389a3.269,3.269,0,0,1,3.5,3.044v.389A3.269,3.269,0,0,1,3.894,6.938Z" transform="translate(0 0)"/>
            </g>
          </g>
          <g id="Group_5323" data-name="Group 5323" transform="matrix(0.309, -0.951, 0.951, 0.309, 72.152, 335.573)">
            <g id="Group_5321-2" data-name="Group 5321" transform="translate(1.333 3.046) rotate(-8)">
              <path id="Path_4220-2" data-name="Path 4220" class="cls-5" d="M18.491,5.33c-2.91.865-7.081,1.3-9.506-1.99A6.44,6.44,0,0,0,4.523.744,5.984,5.984,0,0,0,.691,2,.482.482,0,0,1,.109,2a.363.363,0,0,1,0-.519A6.943,6.943,0,0,1,4.62.008a7.04,7.04,0,0,1,5.093,2.9c3.541,4.8,11.2.736,11.543.563a.475.475,0,0,1,.582.087.386.386,0,0,1-.146.519A19.11,19.11,0,0,1,18.491,5.33Z" transform="translate(0 0)"/>
            </g>
            <path id="Path_4786-2" data-name="Path 4786" class="cls-5" d="M2.6,4.636h-.26A2.184,2.184,0,0,1,.006,2.6v-.26A2.184,2.184,0,0,1,2.039.006H2.3A2.184,2.184,0,0,1,4.636,2.039V2.3A2.184,2.184,0,0,1,2.6,4.636Z" transform="translate(0 1.324)"/>
          </g>
          <path id="Intersection_3" data-name="Intersection 3" class="cls-14" d="M.048,44.539C.921,30.975,8.656,0,8.656,0l3.975,30.95L12.6,31.991a13.253,13.253,0,0,1-5.151-.16c-3.917,15.4-1.912,43.985-1.912,43.985s.605,3.4,1.337,8.393C3.674,71.55-.5,53.033.048,44.539Z" transform="translate(80.836 77.83)"/>
        </g>
        <path id="Intersection_4" data-name="Intersection 4" class="cls-14" d="M.007,82.463,2.628,26.656C3.573,23.033,5.353,16,6.238,11.177,7.918,2.011,8.017-2.915,9,1.844c1.75,8.483,1.632,39.082,0,61.1-.961,12.984-4.939,19.63-8.042,22.9A5.668,5.668,0,0,1,.007,82.463Z" transform="translate(58.25 88.104)"/>
      </g>
    </g>
    <g id="Group_5732" data-name="Group 5732" transform="translate(10 -32.68)">
      <path id="Path_3764" data-name="Path 3764" class="cls-13" d="M3.19,0H92.512A3.19,3.19,0,0,1,95.7,3.19V23.606a3.19,3.19,0,0,1-3.19,3.19H3.19A3.19,3.19,0,0,1,0,23.606V3.19A3.19,3.19,0,0,1,3.19,0Z" transform="translate(995.8 2281.213)"/>
      <path id="Rectangle_1631" data-name="Rectangle 1631" class="cls-5" d="M4,0H35.091a0,0,0,0,1,0,0V26.8a0,0,0,0,1,0,0H4a4,4,0,0,1-4-4V4A4,4,0,0,1,4,0Z" transform="translate(995.8 2281.213)"/>
      <g id="Group_5597" data-name="Group 5597" transform="translate(1007.113 2292.322)">
        <rect id="Rectangle_1425" data-name="Rectangle 1425" class="cls-10" width="5.575" height="5.797" rx="2.788"/>
        <rect id="Rectangle_1442" data-name="Rectangle 1442" class="cls-12" width="5.575" height="5.797" rx="2.788" transform="translate(8.116)"/>
      </g>
      <g id="Group_5710" data-name="Group 5710" transform="translate(1037.551 2288.454)">
        <g id="Group_5584" data-name="Group 5584" transform="translate(0 0)">
          <rect id="Rectangle_1405" data-name="Rectangle 1405" class="cls-15" width="3.773" height="3.773" rx="1.886"/>
          <rect id="Rectangle_1424" data-name="Rectangle 1424" class="cls-15" width="3.773" height="3.773" rx="1.886" transform="translate(4.527 7.546)"/>
          <rect id="Rectangle_1410" data-name="Rectangle 1410" class="cls-15" width="3.773" height="3.773" rx="1.886" transform="translate(37.728)"/>
          <rect id="Rectangle_1419" data-name="Rectangle 1419" class="cls-15" width="3.773" height="3.773" rx="1.886" transform="translate(42.255 7.546)"/>
          <rect id="Rectangle_1406" data-name="Rectangle 1406" class="cls-15" width="3.773" height="3.773" rx="1.886" transform="translate(7.546)"/>
          <rect id="Rectangle_1423" data-name="Rectangle 1423" class="cls-15" width="3.773" height="3.773" rx="1.886" transform="translate(12.073 7.546)"/>
          <rect id="Rectangle_1407" data-name="Rectangle 1407" class="cls-15" width="3.773" height="3.773" rx="1.886" transform="translate(15.091)"/>
          <rect id="Rectangle_1422" data-name="Rectangle 1422" class="cls-15" width="3.773" height="3.773" rx="1.886" transform="translate(19.619 7.546)"/>
          <rect id="Rectangle_1408" data-name="Rectangle 1408" class="cls-15" width="3.773" height="3.773" rx="1.886" transform="translate(22.637)"/>
          <rect id="Rectangle_1421" data-name="Rectangle 1421" class="cls-15" width="3.773" height="3.773" rx="1.886" transform="translate(27.164 7.546)"/>
          <rect id="Rectangle_1409" data-name="Rectangle 1409" class="cls-15" width="3.773" height="3.773" rx="1.886" transform="translate(30.182)"/>
          <rect id="Rectangle_1420" data-name="Rectangle 1420" class="cls-15" width="3.773" height="3.773" rx="1.886" transform="translate(34.71 7.546)"/>
        </g>
      </g>
    </g>
    <g id="Group_5733" data-name="Group 5733" transform="translate(-157.794 -126.742)">
      <path id="Path_3764-2" data-name="Path 3764" class="cls-13" d="M3.674,0H106.538a3.674,3.674,0,0,1,3.674,3.674V27.185a3.674,3.674,0,0,1-3.674,3.674H3.674A3.674,3.674,0,0,1,0,27.185V3.674A3.674,3.674,0,0,1,3.674,0Z" transform="translate(995.8 2281.213)"/>
      <path id="Rectangle_1631-2" data-name="Rectangle 1631" class="cls-5" d="M4,0H40.411a0,0,0,0,1,0,0V30.859a0,0,0,0,1,0,0H4a4,4,0,0,1-4-4V4A4,4,0,0,1,4,0Z" transform="translate(995.8 2281.213)"/>
      <g id="Group_5597-2" data-name="Group 5597" transform="translate(1008.828 2294.006)">
        <rect id="Rectangle_1425-2" data-name="Rectangle 1425" class="cls-10" width="6.421" height="6.676" rx="3.21"/>
        <rect id="Rectangle_1442-2" data-name="Rectangle 1442" class="cls-12" width="6.421" height="6.676" rx="3.21" transform="translate(9.347)"/>
      </g>
      <g id="Group_5710-2" data-name="Group 5710" transform="translate(1043.88 2289.552)">
        <g id="Group_5584-2" data-name="Group 5584" transform="translate(0 0)">
          <rect id="Rectangle_1405-2" data-name="Rectangle 1405" class="cls-15" width="4.345" height="4.345" rx="2.172"/>
          <rect id="Rectangle_1424-2" data-name="Rectangle 1424" class="cls-15" width="4.345" height="4.345" rx="2.172" transform="translate(5.214 8.69)"/>
          <rect id="Rectangle_1410-2" data-name="Rectangle 1410" class="cls-15" width="4.345" height="4.345" rx="2.172" transform="translate(43.448)"/>
          <rect id="Rectangle_1419-2" data-name="Rectangle 1419" class="cls-15" width="4.345" height="4.345" rx="2.172" transform="translate(48.662 8.69)"/>
          <rect id="Rectangle_1406-2" data-name="Rectangle 1406" class="cls-15" width="4.345" height="4.345" rx="2.172" transform="translate(8.69)"/>
          <rect id="Rectangle_1423-2" data-name="Rectangle 1423" class="cls-15" width="4.345" height="4.345" rx="2.172" transform="translate(13.903 8.69)"/>
          <rect id="Rectangle_1407-2" data-name="Rectangle 1407" class="cls-15" width="4.345" height="4.345" rx="2.172" transform="translate(17.379)"/>
          <rect id="Rectangle_1422-2" data-name="Rectangle 1422" class="cls-15" width="4.345" height="4.345" rx="2.172" transform="translate(22.593 8.69)"/>
          <rect id="Rectangle_1408-2" data-name="Rectangle 1408" class="cls-15" width="4.345" height="4.345" rx="2.172" transform="translate(26.069)"/>
          <rect id="Rectangle_1421-2" data-name="Rectangle 1421" class="cls-15" width="4.345" height="4.345" rx="2.172" transform="translate(31.283 8.69)"/>
          <rect id="Rectangle_1409-2" data-name="Rectangle 1409" class="cls-15" width="4.345" height="4.345" rx="2.172" transform="translate(34.758)"/>
          <rect id="Rectangle_1420-2" data-name="Rectangle 1420" class="cls-15" width="4.345" height="4.345" rx="2.172" transform="translate(39.972 8.69)"/>
        </g>
      </g>
    </g>
    <g id="Group_5734" data-name="Group 5734" transform="translate(-172 154)">
      <path id="Path_3764-3" data-name="Path 3764" class="cls-13" d="M4.181,0H121.237a4.181,4.181,0,0,1,4.181,4.181V30.936a4.181,4.181,0,0,1-4.181,4.181H4.181A4.181,4.181,0,0,1,0,30.936V4.181A4.181,4.181,0,0,1,4.181,0Z" transform="translate(995.8 2281.213)"/>
      <path id="Rectangle_1631-3" data-name="Rectangle 1631" class="cls-5" d="M4,0H45.987a0,0,0,0,1,0,0V35.117a0,0,0,0,1,0,0H4a4,4,0,0,1-4-4V4A4,4,0,0,1,4,0Z" transform="translate(995.8 2281.213)"/>
      <g id="Group_5597-3" data-name="Group 5597" transform="translate(1010.625 2295.771)">
        <rect id="Rectangle_1425-3" data-name="Rectangle 1425" class="cls-10" width="7.307" height="7.598" rx="3.653"/>
        <rect id="Rectangle_1442-3" data-name="Rectangle 1442" class="cls-12" width="7.307" height="7.598" rx="3.653" transform="translate(10.636)"/>
      </g>
      <g id="Group_5710-3" data-name="Group 5710" transform="translate(1050.514 2290.702)">
        <g id="Group_5584-3" data-name="Group 5584" transform="translate(0 0)">
          <rect id="Rectangle_1405-3" data-name="Rectangle 1405" class="cls-15" width="4.944" height="4.944" rx="2.472"/>
          <rect id="Rectangle_1424-3" data-name="Rectangle 1424" class="cls-15" width="4.944" height="4.944" rx="2.472" transform="translate(5.933 9.889)"/>
          <rect id="Rectangle_1410-3" data-name="Rectangle 1410" class="cls-15" width="4.944" height="4.944" rx="2.472" transform="translate(49.443)"/>
          <rect id="Rectangle_1419-3" data-name="Rectangle 1419" class="cls-15" width="4.944" height="4.944" rx="2.472" transform="translate(55.376 9.889)"/>
          <rect id="Rectangle_1406-3" data-name="Rectangle 1406" class="cls-15" width="4.944" height="4.944" rx="2.472" transform="translate(9.889)"/>
          <rect id="Rectangle_1423-3" data-name="Rectangle 1423" class="cls-15" width="4.944" height="4.944" rx="2.472" transform="translate(15.822 9.889)"/>
          <rect id="Rectangle_1407-3" data-name="Rectangle 1407" class="cls-15" width="4.944" height="4.944" rx="2.472" transform="translate(19.777)"/>
          <rect id="Rectangle_1422-3" data-name="Rectangle 1422" class="cls-15" width="4.944" height="4.944" rx="2.472" transform="translate(25.71 9.889)"/>
          <rect id="Rectangle_1408-3" data-name="Rectangle 1408" class="cls-15" width="4.944" height="4.944" rx="2.472" transform="translate(29.666)"/>
          <rect id="Rectangle_1421-3" data-name="Rectangle 1421" class="cls-15" width="4.944" height="4.944" rx="2.472" transform="translate(35.599 9.889)"/>
          <rect id="Rectangle_1409-3" data-name="Rectangle 1409" class="cls-15" width="4.944" height="4.944" rx="2.472" transform="translate(39.554)"/>
          <rect id="Rectangle_1420-3" data-name="Rectangle 1420" class="cls-15" width="4.944" height="4.944" rx="2.472" transform="translate(45.487 9.889)"/>
        </g>
      </g>
    </g>
    <path id="Path_5446" data-name="Path 5446" class="cls-16" d="M-14891.292-19032.5" transform="translate(15864 21202)"/>
    <path id="Path_5447" data-name="Path 5447" class="cls-17" d="M-14884.808-19032.5h12.266v71.518" transform="translate(15851 21202)"/>
    <path id="Path_5448" data-name="Path 5448" class="cls-17" d="M-14892.73-19032.5h20.188v61.844" transform="translate(-17984.102 17182.441) rotate(90)"/>
    <rect id="Rectangle_2555" data-name="Rectangle 2555" class="cls-18" width="220" height="9" rx="4.5" transform="translate(836 2342)"/>
    <path id="Rectangle_2556" data-name="Rectangle 2556" class="cls-5" d="M4.5,0H84a0,0,0,0,1,0,0V9a0,0,0,0,1,0,0H4.5A4.5,4.5,0,0,1,0,4.5v0A4.5,4.5,0,0,1,4.5,0Z" transform="translate(836 2342)"/>
    <path id="Path_5449" data-name="Path 5449" class="cls-17" d="M-15004.619-18948.879l116.077.326v53.176" transform="translate(19808.559 -12589.102) rotate(-90)"/>
    <g id="Group_5735" data-name="Group 5735" transform="translate(-215 -71.68)">
      <path id="Path_3764-4" data-name="Path 3764" class="cls-13" d="M3.19,0H92.512A3.19,3.19,0,0,1,95.7,3.19V23.606a3.19,3.19,0,0,1-3.19,3.19H3.19A3.19,3.19,0,0,1,0,23.606V3.19A3.19,3.19,0,0,1,3.19,0Z" transform="translate(995.8 2281.213)"/>
      <path id="Rectangle_1631-4" data-name="Rectangle 1631" class="cls-5" d="M4,0H35.091a0,0,0,0,1,0,0V26.8a0,0,0,0,1,0,0H4a4,4,0,0,1-4-4V4A4,4,0,0,1,4,0Z" transform="translate(995.8 2281.213)"/>
      <g id="Group_5597-4" data-name="Group 5597" transform="translate(1007.113 2292.322)">
        <rect id="Rectangle_1425-4" data-name="Rectangle 1425" class="cls-10" width="5.575" height="5.797" rx="2.788"/>
        <rect id="Rectangle_1442-4" data-name="Rectangle 1442" class="cls-12" width="5.575" height="5.797" rx="2.788" transform="translate(8.116)"/>
      </g>
      <g id="Group_5710-4" data-name="Group 5710" transform="translate(1037.551 2288.454)">
        <g id="Group_5584-4" data-name="Group 5584" transform="translate(0 0)">
          <rect id="Rectangle_1405-4" data-name="Rectangle 1405" class="cls-15" width="3.773" height="3.773" rx="1.886"/>
          <rect id="Rectangle_1424-4" data-name="Rectangle 1424" class="cls-15" width="3.773" height="3.773" rx="1.886" transform="translate(4.527 7.546)"/>
          <rect id="Rectangle_1410-4" data-name="Rectangle 1410" class="cls-15" width="3.773" height="3.773" rx="1.886" transform="translate(37.728)"/>
          <rect id="Rectangle_1419-4" data-name="Rectangle 1419" class="cls-15" width="3.773" height="3.773" rx="1.886" transform="translate(42.255 7.546)"/>
          <rect id="Rectangle_1406-4" data-name="Rectangle 1406" class="cls-15" width="3.773" height="3.773" rx="1.886" transform="translate(7.546)"/>
          <rect id="Rectangle_1423-4" data-name="Rectangle 1423" class="cls-15" width="3.773" height="3.773" rx="1.886" transform="translate(12.073 7.546)"/>
          <rect id="Rectangle_1407-4" data-name="Rectangle 1407" class="cls-15" width="3.773" height="3.773" rx="1.886" transform="translate(15.091)"/>
          <rect id="Rectangle_1422-4" data-name="Rectangle 1422" class="cls-15" width="3.773" height="3.773" rx="1.886" transform="translate(19.619 7.546)"/>
          <rect id="Rectangle_1408-4" data-name="Rectangle 1408" class="cls-15" width="3.773" height="3.773" rx="1.886" transform="translate(22.637)"/>
          <rect id="Rectangle_1421-4" data-name="Rectangle 1421" class="cls-15" width="3.773" height="3.773" rx="1.886" transform="translate(27.164 7.546)"/>
          <rect id="Rectangle_1409-4" data-name="Rectangle 1409" class="cls-15" width="3.773" height="3.773" rx="1.886" transform="translate(30.182)"/>
          <rect id="Rectangle_1420-4" data-name="Rectangle 1420" class="cls-15" width="3.773" height="3.773" rx="1.886" transform="translate(34.71 7.546)"/>
        </g>
      </g>
    </g>
    <path id="Path_5450" data-name="Path 5450" class="cls-17" d="M-14892.73-18978.049h20.188v-113.213" transform="translate(-18179.648 17148.441) rotate(90)"/>
    <g id="Group_5736" data-name="Group 5736" transform="translate(944 2371)">
      <rect id="Rectangle_2557" data-name="Rectangle 2557" class="cls-5" width="2.976" height="11.903" transform="translate(0 0)"/>
      <rect id="Rectangle_2558" data-name="Rectangle 2558" class="cls-5" width="2.976" height="11.903" transform="translate(5.464 0)"/>
    </g>
    <g id="Group_5737" data-name="Group 5737" transform="translate(982.733 2371)">
      <path id="Path_5451" data-name="Path 5451" class="cls-18" d="M128.5,67.414V78.5a.415.415,0,0,0,.637.35l9.17-5.716a.413.413,0,0,0,0-.7l-9.17-5.366A.415.415,0,0,0,128.5,67.414Z" transform="translate(-122.978 -67.003)"/>
      <rect id="Rectangle_2559" data-name="Rectangle 2559" class="cls-18" width="2.976" height="11.903" transform="translate(0 0)"/>
    </g>
    <g id="Group_5738" data-name="Group 5738" transform="translate(913.255 2382.902) rotate(180)">
      <path id="Path_5451-2" data-name="Path 5451" class="cls-18" d="M128.5,67.414V78.5a.415.415,0,0,0,.637.35l9.17-5.716a.413.413,0,0,0,0-.7l-9.17-5.366A.415.415,0,0,0,128.5,67.414Z" transform="translate(-122.978 -67.003)"/>
      <rect id="Rectangle_2559-2" data-name="Rectangle 2559" class="cls-18" width="2.976" height="11.903" transform="translate(0 0)"/>
    </g>
    <circle id="Ellipse_1219" data-name="Ellipse 1219" class="cls-10" cx="7.5" cy="7.5" r="7.5" transform="translate(953 2162)"/>
    <circle id="Ellipse_1222" data-name="Ellipse 1222" class="cls-10" cx="7.5" cy="7.5" r="7.5" transform="translate(805.9 2245.441) rotate(90)"/>
    <g id="Ellipse_1220" data-name="Ellipse 1220" class="cls-19" transform="translate(1055.9 2279.441) rotate(90)">
      <circle class="cls-20" cx="7.5" cy="7.5" r="7.5"/>
      <circle class="cls-21" cx="7.5" cy="7.5" r="5.5"/>
    </g>
    <circle id="Ellipse_1221" data-name="Ellipse 1221" class="cls-10" cx="7.5" cy="7.5" r="7.5" transform="translate(851.557 2428.898) rotate(-90)"/>
  </g>
</svg>
