<svg xmlns="http://www.w3.org/2000/svg" xmlns:xlink="http://www.w3.org/1999/xlink" viewBox="0 0 400 400"><defs><style>.a{isolation:isolate;}.b{font-size:28.55px;font-family:AdobeArabic-Regular, Adobe Arabic;}.b,.t{fill:#fff;}.c{fill:#71939e;opacity:0.15;}.d{fill:#00aeef;}.e{fill:url(#a);}.f{fill:#6a6a6a;}.g{fill:#303030;}.h{fill:#0e71bb;}.i{fill:#ffe7cb;}.j{fill:#ffbd95;}.k{fill:#f59b6b;}.l{fill:#f9c7a5;}.m{fill:#21e2e2;}.n{fill:#152735;}.o{fill:#1f364c;}.p{fill:#0c3f6f;}.q{fill:#b9b9bd;mix-blend-mode:multiply;}.r{fill:#005b9f;}.s{fill:#4ea4f9;}.u{fill:#28aae1;}.v,.w{fill:none;stroke:#f7941d;stroke-miterlimit:10;}.w{stroke-dasharray:5.18 5.18;}.x{fill:url(#b);}.y{fill:url(#c);}.z{fill:url(#d);}.aa{fill:url(#e);}.ab{fill:url(#f);}.ac{fill:url(#g);}</style><linearGradient id="a" x1="226.5" y1="385.74" x2="176.29" y2="100.95" gradientUnits="userSpaceOnUse"><stop offset="0" stop-color="#c6e6ff"/><stop offset="1" stop-color="#fff"/></linearGradient><linearGradient id="b" x1="39.7" y1="256.25" x2="109.13" y2="256.25" gradientUnits="userSpaceOnUse"><stop offset="0" stop-color="#419ee3"/><stop offset="1" stop-color="#0d79c9"/></linearGradient><linearGradient id="c" x1="90.63" y1="294.99" x2="153.41" y2="294.99" gradientUnits="userSpaceOnUse"><stop offset="0" stop-color="#40d5e6"/><stop offset="1" stop-color="#57f"/></linearGradient><linearGradient id="d" x1="96" y1="304.12" x2="143.12" y2="304.12" xlink:href="#c"/><linearGradient id="e" x1="78.98" y1="266.2" x2="133.86" y2="266.2" xlink:href="#b"/><linearGradient id="f" x1="66.39" y1="344.92" x2="117.03" y2="344.92" gradientUnits="userSpaceOnUse"><stop offset="0" stop-color="#ffbc98"/><stop offset="1" stop-color="#ff9f6c"/></linearGradient><linearGradient id="g" x1="102.37" y1="347.62" x2="64.39" y2="325.69" xlink:href="#f"/></defs><title>access-cloud-server</title><g class="a"><text class="b" transform="translate(167 -34.3)"> یربا روس یاه یستسد*</text><path class="c" d="M153.4,58.6a16.7,16.7,0,0,0-7,1.6A25.7,25.7,0,0,0,120.7,36a24.6,24.6,0,0,0-9.4,1.8,29.3,29.3,0,0,0-56.5,9.7h0a21.8,21.8,0,0,0,0,43.6h98.6a16.3,16.3,0,0,0,0-32.5Zm-55,16.3H96.8l1.2-.6Z"/><path class="d" d="M147.5,53.3a16.3,16.3,0,0,0-7,1.6,25.9,25.9,0,0,0-35.1-22.5,29.3,29.3,0,0,0-56.5,9.7h-.1a21.9,21.9,0,0,0,0,43.7h98.7a16.3,16.3,0,0,0,0-32.5Zm-55,16.2H90.9l1.2-.6Z"/><path class="e" d="M102.6,324.2C46.5,301,11.1,244.1,16.8,183.6c2.2-23.1,10-43.7,28.3-54.3C102.3,96,147,147.6,185.2,186.7s149.3,4.4,185.8,50.5,4,129.1-78,136.3C244.3,377.8,161.7,348.6,102.6,324.2Z"/><rect class="f" x="164.7" y="284.8" width="6.2" height="76.82"/><rect class="f" x="229.8" y="284.8" width="5.9" height="76.82"/><polygon class="f" points="173.6 275.2 170.5 275.3 167.9 220.6 171 220.5 173.6 275.2"/><polygon class="f" points="229.2 275.3 226.1 275.2 228.6 220.5 231.8 220.6 229.2 275.3"/><path class="g" d="M234.7,284.8H164a4.8,4.8,0,0,1-4.8-4.7h0a4.8,4.8,0,0,1,4.8-4.8h70.7a4.7,4.7,0,0,1,4.7,4.8h0A4.7,4.7,0,0,1,234.7,284.8Z"/><rect class="h" x="163" y="207.7" width="73.9" height="28.35" rx="1.3"/><path class="i" d="M190.7,185.3c1.7-4.4-1.9-10-10.2-13.2s-14.2-4.5-16.4-5.3-14.9-6.4-18.5-7.3-7.6.1-8.9,3.6,2.7,8.6,8.2,12S185.9,197.2,190.7,185.3Z"/><path class="i" d="M147.4,169.7c2.8-2.6,3.7-6.3-3.3-14.7s-25.8-25.9-25.8-25.9l-4.6,4.3s10.1,19.9,13.7,24.6S139.9,176.6,147.4,169.7Z"/><path class="i" d="M107.2,123.3h0a1.4,1.4,0,0,1,1.8.2l3.5,4.4a1.3,1.3,0,0,1-.2,1.9h0a1.4,1.4,0,0,1-1.8-.2l-3.5-4.4A1.3,1.3,0,0,1,107.2,123.3Z"/><path class="i" d="M108.9,121.6h0a1.3,1.3,0,0,1,1.9.2l3.5,4.4a1.2,1.2,0,0,1-.2,1.8h0a1.2,1.2,0,0,1-1.8-.2l-3.6-4.4A1.4,1.4,0,0,1,108.9,121.6Z"/><path class="i" d="M110.8,120h0a1.4,1.4,0,0,1,1.8.2l3.5,4.4a1.2,1.2,0,0,1-.2,1.8h0a1.4,1.4,0,0,1-1.8-.2l-3.5-4.4A1.3,1.3,0,0,1,110.8,120Z"/><path class="i" d="M112.7,118.7h0a1.2,1.2,0,0,1,1.8.2l3.5,4.3a1.3,1.3,0,0,1-.2,1.9h0a1.2,1.2,0,0,1-1.8-.2l-3.5-4.4A1.2,1.2,0,0,1,112.7,118.7Z"/><path class="i" d="M123.8,135.2s-2.4-9-3.4-10.6-6.3-6.1-6.3-6.1-.5,3.2-1.9,4l-5.2,2.7s2.5,5.6,4.4,7.7a24.2,24.2,0,0,0,4.3,3.8Z"/><path class="i" d="M220.3,188c-1.8-4.4,1.8-10,10-13.3s14.3-4.6,16.4-5.4,14.8-6.6,18.4-7.6,7.6,0,9,3.5-2.7,8.6-8.1,12.1S225.3,199.8,220.3,188Z"/><path class="i" d="M263.1,170.8c-2.8-2.7-3.7-6.4,3.5-14.7s26.2-25.4,26.2-25.4l4.6,4.3s-10.5,19.8-14.1,24.4S270.4,177.8,263.1,170.8Z"/><path class="j" d="M228.3,214.9c4.8-12,16.5-32.4,10.5-36.4-7.8-5.2-30.9-9.3-30.9-9.3v.4s-23.6.6-31.9,4.9c-6.4,3.3,3.2,25.8,6.6,38.3.8,2.9.6,16-.4,27.6-.2,2.9-2.4,16.1-2.3,21.6,0,1.6,16.9,12.7,22.2,13.3v-.4c5.3,0,24.8-9.1,25-10.7.7-5.4-.9-18.8-.9-21.7C226.6,230.9,227.2,217.7,228.3,214.9Z"/><path class="k" d="M221.8,178.4s5-4.3,10.2-5.4,18.5-6.4,18.5-6.4a12.2,12.2,0,0,1,7.5,7.7,42.5,42.5,0,0,1,2.6,9.2s-27.6,10.9-29.4,11S224.5,185.7,221.8,178.4Z"/><path class="i" d="M217.8,166c-.4-2.5-1.1-14.4-1.1-14.4l-7.8-.4v.4l-7.8-.4s-2,11.7-2.6,14.1-7.4,5.6-7.4,5.6l16.7.9v-.4l16.7,1S218.2,168.4,217.8,166Z"/><path class="l" d="M217.5,162.6c-.4-3.7-.7-8.8-.8-10.5l-.4-.5-7.4-.4v.4l-7.8-.4s-2,11.7-2.6,14.1-7.4,5.6-7.4,5.6h.8l16.1-3.4c2.1-.5,9.5-5,9.5-5Z"/><path class="i" d="M287.2,136.6s2.6-8.9,3.5-10.5,6.5-6,6.5-6,.5,3.2,1.9,4,5.1,2.8,5.1,2.8-2.6,5.6-4.6,7.7a26.3,26.3,0,0,1-4.3,3.7Z"/><path class="i" d="M304,125h0a1.4,1.4,0,0,0-1.8.2l-3.6,4.3a1.3,1.3,0,0,0,.2,1.9h0a1.2,1.2,0,0,0,1.8-.2l3.6-4.3A1.3,1.3,0,0,0,304,125Z"/><path class="i" d="M302.3,123.3h0a1.3,1.3,0,0,0-1.9.2l-3.6,4.3a1.4,1.4,0,0,0,.2,1.8h0a1.4,1.4,0,0,0,1.9-.1l3.6-4.4A1.3,1.3,0,0,0,302.3,123.3Z"/><path class="i" d="M300.5,121.7h0a1.4,1.4,0,0,0-1.9.1l-3.6,4.4a1.4,1.4,0,0,0,.2,1.8h0a1.4,1.4,0,0,0,1.9-.1l3.6-4.4A1.3,1.3,0,0,0,300.5,121.7Z"/><path class="i" d="M298.6,120.3h0a1.2,1.2,0,0,0-1.8.2l-3.6,4.3a1.3,1.3,0,0,0,.1,1.8h0a1.4,1.4,0,0,0,1.9-.1l3.6-4.3A1.3,1.3,0,0,0,298.6,120.3Z"/><path class="k" d="M189.1,175.8s-5.1-4.3-10.3-5.4-18.5-6.2-18.5-6.2a12.5,12.5,0,0,0-7.5,7.8c-2.2,6.3-2.4,9.2-2.4,9.2s27.6,10.6,29.5,10.7S186.5,183.1,189.1,175.8Z"/><path class="i" d="M224,142.3c-.6,10.3-9,20.2-15.7,19.9S194.4,151,195,140.6s7.6-18.4,15.6-18S224.6,131.9,224,142.3Z"/><path class="h" d="M194.9,142.7c-.6-1.2-2.5-6.1-1.9-8.2s3.4-6.7,4.3-8.1,8.7-4.7,9.8-4.7a25.4,25.4,0,0,1,6.5.3c2.4.5,6.4,2.4,7.3,4.3s3,4.2,3.7,5.8,1.8,5.5,1.5,6l-1.6,5.6a6.8,6.8,0,0,1-.9,1.4s-3.3-10.1-3.4-11.1-19.8-2.3-21-1.7S194.9,142.7,194.9,142.7Z"/><path class="m" d="M187.4,355.7l-13.9-1.4a125.5,125.5,0,0,0-11.9,9.5,10,10,0,0,0-3.1,8.7s11.8,3.1,16.8,0a115.3,115.3,0,0,1,12.1-6.2Z"/><polygon class="n" points="179.8 247.5 168.1 267.1 167.4 276.7 202 276.7 227.8 275.9 232.6 267.9 226 247.6 179.8 247.5"/><path class="o" d="M166.1,272.1l3.5,85h21.6l2-85s-3.2-10.9-14.4-10.9C169.3,261.2,166.1,272.1,166.1,272.1Z"/><path class="n" d="M178.9,261.2h-.1c-9.5,0-12.7,10.9-12.7,10.9l3.5,85h9.3Z"/><path class="m" d="M214.4,357l13.9-1.4s7.8,5.4,11.8,9.5a10.2,10.2,0,0,1,3.2,8.7s-11.8,3.1-16.8,0a115.3,115.3,0,0,0-12.1-6.2Z"/><path class="o" d="M235.6,273.4l-3.5,85H210.5l-2-85s3.2-10.9,14.4-10.9C232.5,262.5,235.6,273.4,235.6,273.4Z"/><path class="n" d="M222.1,262.6c-10.5.6-13.6,10.8-13.6,10.8l2,85h11.6Z"/><path class="k" d="M240.7,179c-.6-1.9-6.5-3.6-11.6-5.5a74.2,74.2,0,0,1-8.5-3.7l-13.2,6.7-12.3-8s-4.3,1.5-8.9,2.7-11.2,2.4-12.2,4.2,6.4,38.1,7.3,41.2-3.6,25-1.3,31.6l23.4,1.1h.1l22.9-.5c2.4-7.2,1.4-27,2.6-30S242.6,184.3,240.7,179Z"/><path class="k" d="M208.8,247c-2.2-1.4-5.5-2.9-7.4-4.2s0-5.5.1-7.7,6.2-6.1,10.4-7.6,11.3-.6,13-3.5-2.6-5.7-4.6-5.7-14.2-4-16.1-3.7-16.5,1.3-18.8-.5-13.1-35.8-13.1-35.8c2.3,11.4,8.4,36.1,9.1,38s-3.8,25.5-1.3,32l24.8,1.7h0l21.5-1.2-5.2-1.6C219.1,246.6,210.9,248.4,208.8,247Z"/><rect class="p" x="67.2" y="300.5" width="136.8" height="8.42" transform="translate(-169.1 440.4) rotate(-90)"/><rect class="p" x="214.7" y="301.3" width="136.8" height="8.42" transform="translate(-22.4 588.6) rotate(-90)"/><rect class="p" x="133.1" y="236.4" width="152.4" height="22.32"/><polygon class="q" points="287.3 251.5 131.4 253.7 131.4 246.3 287.3 246.4 287.3 251.5"/><rect class="r" x="121.6" y="233.1" width="175.9" height="13.82"/><polygon class="s" points="185.8 233.1 182.4 194.5 255 194.5 250.6 233.1 185.8 233.1"/><path class="t" d="M225.2,215.2c-.4,3.1-3.4,5.4-6.8,5.4s-6.4-2.3-6.8-5.4,2.6-6.8,6.8-6.8S225.7,211.6,225.2,215.2Z"/><path class="u" d="M223.9,214.7l-2.9-2.9-2.6,2.3h0l-2.5-2.3-2.9,2.9,2.5,2.1h0l2.9,2.4,2.9-2.4h0Zm-3-1.7,1.8,1.7-1.9,1.5-1.8-1.5Zm-5,0,1.9,1.7-1.7,1.5-1.9-1.5Zm2.5,5.2-1.7-1.4,1.7-1.6,1.8,1.6Z"/><line class="v" x1="90.2" y1="95" x2="90.2" y2="97.5"/><line class="w" x1="90.2" y1="102.7" x2="90.2" y2="203.8"/><line class="v" x1="90.2" y1="206.4" x2="90.2" y2="208.9"/><path class="x" d="M45.8,164.5c6-2.8,11.9,16.2,11.9,16.2,10.2,13.5,24.4-4.4,23,15.7-2.4,35.1,40.5,11,20.7,47.7s17.5,20.8,5.2,50.4,3.6,64.9-14.9,50.4c0,0-16.3-35.7-33.1-46.8s10.1-24.2,4.8-39.2c-7.6-21.8-26-21-12.8-44.4S25.4,174.2,45.8,164.5Z"/><path class="t" d="M97.6,331.5c-8.1-5.7-17.4-45-18-68.4-.3-12-3.8-17-7-21.4s-5.5-7.9-4-16.3c2.8-15.9-4.7-22.8-4.8-22.9l.9-1c.3.3,8.2,7.4,5.2,24.2-1.4,7.8.9,11.1,3.8,15.2s6.9,9.7,7.2,22.1c.6,25.2,10.2,62.3,17.4,67.4Z"/><path class="y" d="M100.6,334.4a13.7,13.7,0,0,1-3.4-.4q-4.7-.9-6-4.8C89,323,94,312.9,98.1,308.1c0-.1,6.8-8.4,6.1-20-.1-1.9-.3-3.7-.5-5.3-.5-4.5-.9-7.8,1.1-10s5.1-2.8,11.2-2.8c10.6-.1,14.9-4.5,18.2-8.1a19.8,19.8,0,0,1,4.5-3.8h0c5.3-2.9,11-3.3,13.4-1s2.1,3.2.2,7.3a27.2,27.2,0,0,1-5.8,7.8c-2.5,2.6-4.1,4.2-3.3,7.5a21.7,21.7,0,0,0,.7,2.4c1.6,5.6,3.5,12-6.2,16.3l-5.5,2.3c-6.7,2.7-10.8,4.3-15.4,13.9q-1.3,2.8-2.4,5.4C110.8,328.2,108,334.4,100.6,334.4Zm38.7-75.1a18.9,18.9,0,0,0-4.1,3.6c-3.6,3.7-8,8.3-19.2,8.4-5.6,0-8.8.8-10.2,2.4s-1.2,4.8-.8,9c.2,1.6.4,3.4.5,5.4a31.3,31.3,0,0,1-6.4,20.8c-4,4.8-8.6,14.4-6.7,19.8a6.1,6.1,0,0,0,5,4c9.1,1.8,11.6-3.8,15.8-13.2q1-2.7,2.4-5.4c4.8-10.2,9.3-12,16.1-14.6l5.5-2.3c8.6-3.8,7-9.1,5.4-14.7-.2-.9-.5-1.7-.7-2.4-1-4.1,1-6.2,3.6-8.8a24.4,24.4,0,0,0,5.6-7.5c.9-1.8,1.6-4.3.1-5.7s-7.1-1.4-11.9,1.2Z"/><path class="z" d="M97.3,342H96c.1-1.3,1.7-30.6,13.5-39.2s17-19.6,19-26.4,13.9-10.1,14.4-10.2l.2,1.3c-.1,0-11.3,2.1-13.4,9.3s-6.1,17.4-19.4,27.1C99,312.1,97.3,341.7,97.3,342Z"/><path class="aa" d="M124.3,194.1c-8.4-2.8-6.7,13.3-10.2,25.2s-39.4,5.3-24.3,35.2-19.1,10-8.9,36.1.9,54,12,46.9,6.2-40,17.7-43.9,13.4-8.4,2-19.1,29.8-21.1,19.6-42.6S133.9,197.5,124.3,194.1Z"/><path class="t" d="M98,336.2c-1.1-4.4-10.1-43.8-1.7-48.5s7.2-20.5,6.1-35.9c-1-13.6,16.5-20,17.2-20.2l.5,1.2c-.2.1-17.3,6.3-16.4,18.9,1.2,15.8,1.3,32.6-6.7,37.1-6.4,3.7-.5,35.3,2.3,47.1Z"/><polygon class="ab" points="117 322.2 105.1 367.6 78.3 367.6 66.4 322.2 117 322.2"/><path class="ac" d="M117,322.2s-26.3,5-26.3,45.4H78.3L66.4,322.2Z"/></g></svg>