<svg xmlns="http://www.w3.org/2000/svg" xmlns:xlink="http://www.w3.org/1999/xlink" viewBox="0 0 400 400"><defs><style>.a{fill:url(#a);}.b{fill:#288ed9;}.c{fill:#152735;}.d{fill:#1f364c;}.e{fill:#575756;}.f{fill:#fff;}.g{fill:#0e71bb;}.h{fill:#ffe7cb;}.i,.k,.p{fill:#1d1d1b;}.i{opacity:0.1;}.j{fill:#3c3c3b;}.l{fill:#95c11f;}.m{fill:#e94e1b;}.n{fill:#878787;}.o{fill:#36a9e1;}.p,.q{opacity:0.5;}</style><linearGradient id="a" x1="230.38" y1="369.23" x2="177.94" y2="71.78" gradientUnits="userSpaceOnUse"><stop offset="0" stop-color="#c6e6ff"/><stop offset="1" stop-color="#fff"/></linearGradient></defs><title>advantage-server-dedicated</title><path class="a" d="M299.9,356.5c-24.4,2.1-57-3.8-91-13.3-10.8-3-21.7-6.4-32.5-10l-6.8-2.2c-8.8-3.1-17.6-6.2-26.2-9.4-14.8-5.5-29.2-11.2-42.4-16.6C42.3,280.7,5.4,221.3,11.3,158.1c2.3-24.1,10.5-45.6,29.6-56.7,46.4-27.1,84.9-.6,118.5,31.7,6.7,6.4,13.2,13.1,19.5,19.6h0l.6.6,7.8,8A53.8,53.8,0,0,0,205,173.1c2.6,1.1,5.4,2.1,8.2,3l.6.2c3.5,1.1,7.1,2,10.9,2.8h0l4.3.9c51.2,9.3,123.7-2,152.3,34C419.5,262.1,385.5,349,299.9,356.5Z"/><path class="b" d="M215.5,185.7c-3.3-19.3-7.5-32.6-12.7-50-8.2-27.5-44.7-15.3-9.1,57.6l16.1,42.2c5.9-1.1,19.5-2.2,25.7-6.2Z"/><path class="c" d="M202.8,234.1h0l-.9,5.3v.5l-3,16.4-.3,1.7-1,5.9v.4l-.9,5.4-2.3,12.8-3.9,21.7-15.6,20-5.1,6.7c-8.8-3.1-17.6-6.2-26.2-9.4l17-30.9,1.5-2.7,4.5-39h0l.4-3.8.8-6.9.3-2.4v-.6l.4-.2,8.4-2.7h.1l7.3-2.3h0l10.5-3.5h0l.9-.3,1,1.2,3.7,4.1Z"/><path class="b" d="M215,185.7c-3.3-19.3-7.5-32.6-12.7-50-8.2-27.5-44.7-15.3-9.1,57.6l16.1,42.2c5.9-1.1,19.5-2.2,25.7-6.2Z"/><path class="d" d="M208.9,343.2c-10.8-3-21.7-6.4-32.5-10-.5-2.8-1.1-5.8-1.7-8.9a1.3,1.3,0,0,0-.1-.6l-14.2-33-6.2-14.4c-6.2-7.7-10.4-22.8-6.8-35.6a14.5,14.5,0,0,1,2.1-4.1h0l.7-.9.7-.8c3.9-4.6,10.4-9.3,17.4-13,.2-.1.5-.1.7-.3h0l.5-.2a60.8,60.8,0,0,1,17-5.7,25.5,25.5,0,0,1,8.3.1,10,10,0,0,1,5.3,2.7,12,12,0,0,1,1.7,2.1l.6,1.4a12.8,12.8,0,0,1,.8,3.5,3.7,3.7,0,0,1,.1,1.1,57.8,57.8,0,0,1-.5,7.5h0c-.2,1.9-.6,3.6-.9,5.3l-.2.5a25.4,25.4,0,0,1-6.6,12.4,21.6,21.6,0,0,1-3.3,2.7h0a27.9,27.9,0,0,1-5.4,3l-.4.2,3,9,5.2,15.3,10.2,30.1Z"/><path d="M147.4,233.4c0,.1-.2,5.3,0,7.3,17.2,12.1,52.8-2.7,55.9-14.1-.1-2.4.3-4.8,0-7.9C192.7,233.1,160.3,240.7,147.4,233.4Z"/><path class="e" d="M192.6,235.6c-1.7,1.5-4.2,2.4-7.1,3.5v-4.5a31.3,31.3,0,0,0,7.1-3.5Z"/><path class="b" d="M203.4,220.8c-9.1,12.5-40.7,24.4-56.1,13.1-3.1-2.3-2.2-5.2-3.1-12.2s-1.5-14.2-2.1-20.5c-2.2-24.3-2.7-39.9-2.4-47.9h0c.1-1.5.2-2.7.3-3.7,6.2-7.4,17-15.1,26-20.8,12.2-5.5,13.2-5.2,19.3-7.4C209.7,112.5,206.4,216.7,203.4,220.8Z"/><path class="f" d="M190.5,223a3.1,3.1,0,0,1-1.5,2.3c-.7.4-1.3.1-1.3-.8a3,3,0,0,1,1.4-2.3C189.9,221.8,190.5,222.2,190.5,223Z"/><path class="g" d="M185.6,105.5c3.7-3.3,8.7-8.8,8-14.8S185.5,81,176.3,81c-13.2.1-19.2,11.1-16.2,24.6,1,4.7,1.5,11.4,3.5,11.7s1.5-1,3.9-.5Z"/><path class="h" d="M183.7,135.4c0-.2,0-.3.1-.4l.5-6.8.2-2L164.1,113l-1.5,13.2C160.2,139.5,181.4,142,183.7,135.4Z"/><path class="i" d="M183.7,135.4c0-.2,0-.3.1-.4l.5-6.8-14.9-7.8C168.4,128.7,175.2,137.5,183.7,135.4Z"/><path class="h" d="M195,94.5c-1.4-8.1-9.7-11.1-18.5-10.8-12.1.3-15.3,9.1-15.6,18.5a60.4,60.4,0,0,0,2.8,13.8l5.7,4.4s1.7,4.9,4.7,7.4,6.8,4.5,10.5,3.7,6.8-3.1,7.9-9.6,1.8-6.6,2.1-9.4-.1-3.5,0-4.3.8-2.5,1-3.7A48.4,48.4,0,0,0,195,94.5Z"/><path class="g" d="M171.4,92.3c-2.4-1-.2,14.1-.2,14.1s-3.6-.3-4.5.4.9,7.2-.5,9.8c-.4.8-1.4,1-2.6.7-1-4.1-2.7-8.6-3-12.7a25.8,25.8,0,0,1,1.5-12.3,15.6,15.6,0,0,1,8.4-8.7,19.9,19.9,0,0,1,11.1-.7c8.9,1.5,11.2,4.4,12,7.8C192.8,94.8,183.6,97.8,171.4,92.3Z"/><path class="h" d="M166.6,102.7c-2.8-1.1-2.8,2.9-2.6,4.7s.5,2.2.6,3.3-.1,2.5.7,3.4,3.7-1.5,4.1-3S169.1,103.6,166.6,102.7Z"/><path class="j" d="M168.4,213.7v33.1a1.4,1.4,0,0,0,.5,1.2l39.7,22.9h.1l57.6-69.4-39.7-23c-.3-.2-.7-.1-1.2.2l-55.3,31.9A3.6,3.6,0,0,0,168.4,213.7Z"/><path class="k" d="M265.2,238.9a3.7,3.7,0,0,0,1.8-3V202.8c0-1.2-.8-1.6-1.8-1l-55.3,31.9a3.9,3.9,0,0,0-1.7,3v33.1a1,1,0,0,0,1.7,1Z"/><path class="e" d="M253.8,209.1l11.4-6.6c.6-.3,1.1-.1,1.1.6v33.1a2.3,2.3,0,0,1-1.1,2l-11.4,6.6Z"/><path class="j" d="M209.9,234.4l44.9-25.9v8.9l-46,26.6v-7.7A2.5,2.5,0,0,1,209.9,234.4Z"/><path class="k" d="M209.9,270.1l44.9-25.9V216.8l-46,26.6v26C208.8,270.1,209.3,270.4,209.9,270.1Z"/><polygon class="l" points="249.4 220.4 251.8 219 251.8 219.6 249.4 221 249.4 220.4"/><polygon class="j" points="247.2 247.8 254.1 243.8 254.1 218.4 247.2 222.3 247.2 247.8"/><path class="f" d="M249,243.1c0,1,.7,1.4,1.6.9a3.4,3.4,0,0,0,1.6-2.7c0-1.1-.7-1.5-1.6-1A3.6,3.6,0,0,0,249,243.1Z"/><polygon class="k" points="252.6 238.3 253.3 237.9 253.3 233.3 252.6 233.7 252.6 238.3"/><polygon class="k" points="251.4 239 252.1 238.5 252.1 234 251.4 234.4 251.4 239"/><polygon class="k" points="250.3 239.6 251 239.2 251 234.7 250.3 235.1 250.3 239.6"/><polygon class="k" points="249.1 240.3 249.8 239.9 249.8 235.4 249.1 235.8 249.1 240.3"/><polygon class="k" points="247.9 241 248.6 240.6 248.6 236 247.9 236.4 247.9 241"/><polygon class="k" points="251.4 233.6 253.3 232.5 253.3 231.7 251.4 232.8 251.4 233.6"/><polygon class="f" points="250.3 234.3 251 233.9 251 233 250.3 233.5 250.3 234.3"/><polygon class="l" points="249.1 235 249.8 234.5 249.8 233.7 249.1 234.1 249.1 235"/><polygon class="m" points="247.9 235.6 248.6 235.2 248.6 234.4 247.9 234.8 247.9 235.6"/><path class="k" d="M248.3,222.4l4.7-2.7c.2-.1.3,0,.3.2v10.4a.9.9,0,0,1-.3.7l-4.7,2.7c-.2.1-.4,0-.4-.3V223.1A1,1,0,0,1,248.3,222.4Z"/><path class="n" d="M249.8,242.7a.5.5,0,0,0,.8.4,1.6,1.6,0,0,0,.8-1.4c0-.5-.3-.7-.8-.5A2,2,0,0,0,249.8,242.7Z"/><polygon class="k" points="251.6 219.1 254.1 217.8 254.1 218.4 251.6 219.7 251.6 219.1"/><polygon class="k" points="247.2 221.7 249.6 220.3 249.6 220.9 247.2 222.3 247.2 221.7"/><polygon class="l" points="241.9 224.8 244.3 223.4 244.3 224 241.9 225.4 241.9 224.8"/><polygon class="j" points="239.7 252.1 246.5 248.1 246.5 222.7 239.7 226.7 239.7 252.1"/><path class="f" d="M241.5,247.4c0,1.1.7,1.5,1.6,1a3.7,3.7,0,0,0,1.6-2.8c0-1-.7-1.4-1.6-.9A3.4,3.4,0,0,0,241.5,247.4Z"/><polygon class="k" points="245.1 242.6 245.8 242.2 245.8 237.7 245.1 238.1 245.1 242.6"/><polygon class="k" points="243.9 243.3 244.6 242.9 244.6 238.3 243.9 238.8 243.9 243.3"/><polygon class="k" points="242.8 244 243.5 243.6 243.5 239 242.8 239.4 242.8 244"/><polygon class="k" points="241.6 244.6 242.3 244.2 242.3 239.7 241.6 240.1 241.6 244.6"/><polygon class="k" points="240.4 245.3 241.1 244.9 241.1 240.4 240.4 240.8 240.4 245.3"/><polygon class="k" points="243.9 237.9 245.8 236.8 245.8 236 243.9 237.1 243.9 237.9"/><polygon class="f" points="242.8 238.6 243.5 238.2 243.5 237.4 242.8 237.8 242.8 238.6"/><polygon class="l" points="241.6 239.3 242.3 238.9 242.3 238.1 241.6 238.5 241.6 239.3"/><polygon class="m" points="240.4 240 241.1 239.6 241.1 238.7 240.4 239.1 240.4 240"/><path class="k" d="M240.8,226.8l4.6-2.7c.2-.1.4,0,.4.2v10.4a.8.8,0,0,1-.4.6l-4.6,2.7c-.2.1-.4,0-.4-.2V227.4A.8.8,0,0,1,240.8,226.8Z"/><path class="n" d="M242.3,247a.5.5,0,0,0,.8.5,1.8,1.8,0,0,0,.8-1.5c0-.5-.3-.7-.8-.4A1.8,1.8,0,0,0,242.3,247Z"/><polygon class="k" points="244.1 223.5 246.5 222.1 246.5 222.7 244.1 224.1 244.1 223.5"/><polygon class="k" points="239.7 226.1 242.1 224.7 242.1 225.3 239.7 226.7 239.7 226.1"/><polygon class="l" points="234.4 229.1 236.8 227.7 236.8 228.3 234.4 229.7 234.4 229.1"/><polygon class="j" points="232.2 256.4 239 252.5 239 227 232.2 231 232.2 256.4"/><path class="f" d="M234,251.8c0,1,.7,1.4,1.6.9a3.6,3.6,0,0,0,1.6-2.8c0-1-.7-1.4-1.6-.9A3.6,3.6,0,0,0,234,251.8Z"/><polygon class="k" points="237.6 246.9 238.3 246.5 238.3 242 237.6 242.4 237.6 246.9"/><polygon class="k" points="236.4 247.6 237.1 247.2 237.1 242.7 236.4 243.1 236.4 247.6"/><polygon class="k" points="235.2 248.3 235.9 247.9 235.9 243.4 235.2 243.8 235.2 248.3"/><polygon class="k" points="234.1 249 234.8 248.6 234.8 244 234.1 244.4 234.1 249"/><polygon class="k" points="232.9 249.7 233.6 249.2 233.6 244.7 232.9 245.1 232.9 249.7"/><polygon class="k" points="236.4 242.3 238.3 241.2 238.3 240.4 236.4 241.4 236.4 242.3"/><polygon class="f" points="235.2 242.9 235.9 242.5 235.9 241.7 235.2 242.1 235.2 242.9"/><polygon class="l" points="234.1 243.6 234.8 243.2 234.8 242.4 234.1 242.8 234.1 243.6"/><polygon class="m" points="232.9 244.3 233.6 243.9 233.6 243.1 232.9 243.5 232.9 244.3"/><path class="k" d="M233.3,231.1l4.6-2.7c.2-.1.4,0,.4.2V239a.8.8,0,0,1-.4.6l-4.6,2.7c-.2.1-.4.1-.4-.2V231.7A.8.8,0,0,1,233.3,231.1Z"/><path class="n" d="M234.8,251.3c0,.6.3.8.8.5a2,2,0,0,0,.8-1.4c0-.5-.4-.8-.8-.5A1.7,1.7,0,0,0,234.8,251.3Z"/><polygon class="k" points="236.6 227.8 239 226.4 239 227 236.6 228.4 236.6 227.8"/><polygon class="k" points="232.2 230.4 234.6 229 234.6 229.6 232.2 231 232.2 230.4"/><polygon class="l" points="226.9 233.4 229.3 232.1 229.3 232.6 226.9 234 226.9 233.4"/><polygon class="j" points="224.6 260.8 231.5 256.8 231.5 231.4 224.6 235.3 224.6 260.8"/><path class="f" d="M226.5,256.1c0,1,.7,1.4,1.6.9a3.4,3.4,0,0,0,1.6-2.7c0-1.1-.7-1.5-1.6-1A3.7,3.7,0,0,0,226.5,256.1Z"/><polygon class="k" points="230.1 251.3 230.8 250.9 230.8 246.3 230.1 246.7 230.1 251.3"/><polygon class="k" points="228.9 252 229.6 251.6 229.6 247 228.9 247.4 228.9 252"/><polygon class="k" points="227.7 252.6 228.4 252.2 228.4 247.7 227.7 248.1 227.7 252.6"/><polygon class="k" points="226.6 253.3 227.3 252.9 227.3 248.4 226.6 248.8 226.6 253.3"/><polygon class="k" points="225.4 254 226.1 253.6 226.1 249 225.4 249.5 225.4 254"/><polygon class="k" points="228.9 246.6 230.8 245.5 230.8 244.7 228.9 245.8 228.9 246.6"/><polygon class="f" points="227.7 247.3 228.4 246.9 228.4 246.1 227.7 246.5 227.7 247.3"/><polygon class="l" points="226.6 248 227.3 247.5 227.3 246.7 226.6 247.1 226.6 248"/><polygon class="m" points="225.4 248.6 226.1 248.2 226.1 247.4 225.4 247.8 225.4 248.6"/><path class="k" d="M225.7,235.5l4.7-2.8c.2-.1.4,0,.4.3v10.3a1,1,0,0,1-.4.7l-4.7,2.7c-.2.1-.3,0-.3-.2V236.1A.6.6,0,0,1,225.7,235.5Z"/><path class="n" d="M227.3,255.7c0,.5.3.7.8.4a1.8,1.8,0,0,0,.8-1.4.5.5,0,0,0-.8-.5A1.8,1.8,0,0,0,227.3,255.7Z"/><polygon class="k" points="229.1 232.2 231.5 230.8 231.5 231.4 229.1 232.8 229.1 232.2"/><polygon class="k" points="224.6 234.7 227.1 233.3 227.1 233.9 224.6 235.3 224.6 234.7"/><polygon class="l" points="219.4 237.8 221.8 236.4 221.8 237 219.4 238.4 219.4 237.8"/><polygon class="j" points="217.1 265.1 224 261.1 224 235.7 217.1 239.7 217.1 265.1"/><path class="f" d="M219,260.4c0,1.1.7,1.5,1.6,1a3.6,3.6,0,0,0,1.6-2.8c0-1-.7-1.4-1.6-.9A3.4,3.4,0,0,0,219,260.4Z"/><polygon class="k" points="222.6 255.6 223.3 255.2 223.3 250.7 222.6 251.1 222.6 255.6"/><polygon class="k" points="221.4 256.3 222.1 255.9 222.1 251.3 221.4 251.8 221.4 256.3"/><polygon class="k" points="220.2 257 220.9 256.6 220.9 252 220.2 252.4 220.2 257"/><polygon class="k" points="219 257.6 219.8 257.2 219.8 252.7 219 253.1 219 257.6"/><polygon class="k" points="217.9 258.3 218.6 257.9 218.6 253.4 217.9 253.8 217.9 258.3"/><polygon class="k" points="221.4 250.9 223.3 249.9 223.3 249 221.4 250.1 221.4 250.9"/><polygon class="f" points="220.2 251.6 220.9 251.2 220.9 250.4 220.2 250.8 220.2 251.6"/><polygon class="l" points="219 252.3 219.8 251.9 219.8 251.1 219 251.5 219 252.3"/><polygon class="m" points="217.9 253 218.6 252.6 218.6 251.7 217.9 252.2 217.9 253"/><path class="k" d="M218.2,239.8l4.7-2.7c.2-.1.4,0,.4.2v10.4a.8.8,0,0,1-.4.6l-4.7,2.7c-.2.1-.3,0-.3-.2V240.4A.7.7,0,0,1,218.2,239.8Z"/><path class="n" d="M219.8,260c0,.5.3.7.8.5a2,2,0,0,0,.8-1.5.5.5,0,0,0-.8-.4A1.6,1.6,0,0,0,219.8,260Z"/><polygon class="k" points="221.6 236.5 224 235.1 224 235.7 221.6 237.1 221.6 236.5"/><polygon class="k" points="217.1 239.1 219.5 237.7 219.5 238.3 217.1 239.7 217.1 239.1"/><polygon class="l" points="211.9 242.1 214.3 240.7 214.3 241.3 211.9 242.7 211.9 242.1"/><polygon class="j" points="209.6 269.5 216.5 265.5 216.5 240 209.6 244 209.6 269.5"/><path class="f" d="M211.5,264.8c0,1,.7,1.4,1.6.9a3.7,3.7,0,0,0,1.6-2.8,1,1,0,0,0-1.6-.9A3.6,3.6,0,0,0,211.5,264.8Z"/><polygon class="k" points="215.1 260 215.8 259.5 215.8 255 215.1 255.4 215.1 260"/><polygon class="k" points="213.9 260.6 214.6 260.2 214.6 255.7 213.9 256.1 213.9 260.6"/><polygon class="k" points="212.7 261.3 213.4 260.9 213.4 256.4 212.7 256.8 212.7 261.3"/><polygon class="k" points="211.5 262 212.2 261.6 212.2 257 211.5 257.4 211.5 262"/><polygon class="k" points="210.4 262.7 211.1 262.3 211.1 257.7 210.4 258.1 210.4 262.7"/><polygon class="k" points="213.9 255.3 215.8 254.2 215.8 253.4 213.9 254.5 213.9 255.3"/><polygon class="f" points="212.7 256 213.4 255.5 213.4 254.7 212.7 255.1 212.7 256"/><polygon class="l" points="211.5 256.6 212.2 256.2 212.2 255.4 211.5 255.8 211.5 256.6"/><polygon class="m" points="210.4 257.3 211.1 256.9 211.1 256.1 210.4 256.5 210.4 257.3"/><path class="k" d="M210.7,244.1l4.7-2.7c.2-.1.4,0,.4.2V252a.8.8,0,0,1-.4.6l-4.7,2.7c-.2.2-.3.1-.3-.2V244.7A.7.7,0,0,1,210.7,244.1Z"/><path class="n" d="M212.2,264.3c0,.6.4.8.9.5a2,2,0,0,0,.8-1.4c0-.5-.4-.8-.8-.5A1.8,1.8,0,0,0,212.2,264.3Z"/><polygon class="k" points="214.1 240.8 216.5 239.4 216.5 240 214.1 241.4 214.1 240.8"/><polygon class="k" points="209.6 243.4 212 242 212 242.6 209.6 244 209.6 243.4"/><polygon class="o" points="239 223.5 251.6 216.3 251.6 212.9 239 220.1 239 223.5"/><polygon class="e" points="210.9 239.8 211.9 239.2 211.9 235.8 210.9 236.4 210.9 239.8"/><polygon class="e" points="212.9 238.6 213.9 238 213.9 234.6 212.9 235.2 212.9 238.6"/><polygon class="l" points="259.2 214.9 261.7 213.5 261.7 213.8 259.2 215.2 259.2 214.9"/><polygon class="k" points="261.5 213.6 263.9 212.2 263.9 212.5 261.5 213.9 261.5 213.6"/><polygon class="k" points="257 216.2 259.4 214.8 259.4 215.1 257 216.5 257 216.2"/><polygon class="l" points="259.2 216.1 261.7 214.7 261.7 215 259.2 216.4 259.2 216.1"/><polygon class="k" points="261.5 214.8 263.9 213.4 263.9 213.7 261.5 215.1 261.5 214.8"/><polygon class="k" points="257 217.4 259.4 216 259.4 216.3 257 217.7 257 217.4"/><polygon class="l" points="259.2 217.3 261.7 215.9 261.7 216.2 259.2 217.6 259.2 217.3"/><polygon class="k" points="261.5 216 263.9 214.6 263.9 214.9 261.5 216.3 261.5 216"/><polygon class="k" points="257 218.6 259.4 217.2 259.4 217.5 257 218.9 257 218.6"/><path class="j" d="M257.9,235.2l4.8-2.8a.9.9,0,0,0,.5-.7v-2c0-.2-.2-.4-.5-.2l-4.8,2.8a.8.8,0,0,0-.4.7v1.9C257.5,235.2,257.7,235.3,257.9,235.2Z"/><path class="k" d="M257.9,239.6l4.8-2.8a.8.8,0,0,0,.5-.7v-1.9c0-.3-.2-.4-.5-.3l-4.8,2.8a1,1,0,0,0-.4.8v1.9C257.5,239.6,257.7,239.8,257.9,239.6Z"/><polygon class="f" points="256.1 211.3 264.7 206.4 264.7 205.3 256.1 210.2 256.1 211.3"/><path class="p" d="M168.4,220.7v26.1a1.4,1.4,0,0,0,.5,1.2l39.7,22.9a1.2,1.2,0,0,1-.4-1V243.7Z"/><g class="q"><path class="k" d="M254.1,200.7l-17.3,10a4,4,0,0,1-3.7,0l-7.9-4.5a1.2,1.2,0,0,1,0-2.2l17.3-10a4.2,4.2,0,0,1,3.8,0l7.8,4.6C255.2,199.1,255.2,200.1,254.1,200.7Z"/></g><g class="q"><path class="k" d="M237.7,191.1l-17.4,10a4,4,0,0,1-3.7,0l-7.9-4.6c-1-.6-1-1.5,0-2.1l17.4-10a4,4,0,0,1,3.7,0l7.9,4.5A1.2,1.2,0,0,1,237.7,191.1Z"/></g><g class="q"><path class="k" d="M226.4,216.7l-17.3,10a4.2,4.2,0,0,1-3.8,0l-7.8-4.6c-1.1-.6-1.1-1.5,0-2.1l17.3-10a4,4,0,0,1,3.7,0l7.9,4.5A1.2,1.2,0,0,1,226.4,216.7Z"/></g><g class="q"><path class="k" d="M209.9,207l-17.3,10a4,4,0,0,1-3.7,0l-7.9-4.5a1.2,1.2,0,0,1,0-2.2l17.3-10a4.2,4.2,0,0,1,3.8,0l7.8,4.6C211,205.5,211,206.4,209.9,207Z"/></g><path class="h" d="M180.9,261.5a9.5,9.5,0,0,0,2.5,3.1,10.1,10.1,0,0,0,2.5,1.4l6.8,2.8,2.1.8a8.9,8.9,0,0,0,5.1-.3,2.1,2.1,0,0,0,1.1-1,1.1,1.1,0,0,0,0-.8c-.2-1.2-1.5-1.9-2.5-2.6a15.8,15.8,0,0,1-4.4-5.5c-1.2-2-2.1-4.2-3.4-6.2a12.4,12.4,0,0,0,3,4.1,4.7,4.7,0,0,0,4.9.8.3.3,0,0,0,.3-.3.4.4,0,0,0,.1-.3,3.2,3.2,0,0,0-1.2-2.6c-.5-.5-1.2-.8-1.8-1.3a12.1,12.1,0,0,1-1.5-2.2c-1.9-3.2-6.2-5.3-9.6-7s-10,5.4-8.3,10.2C177.4,256.9,179.6,259.4,180.9,261.5Z"/><path class="b" d="M175.4,254.2c5.5,1.9,9.1-3.6,9.1-10.4-9.1-15.1-19-26.4-25.2-34.8,1.9-8.9,1.2-25.9,1.1-39.3.2-18.4-13.1-30.2-20.4-20.2-7.2,21.2-7.1,45.1-1.9,70.8C144.1,235.5,158.4,244.4,175.4,254.2Z"/><path class="b" d="M175.4,254.3c5.5,2,9.1-3.5,9.1-10.3-9.1-15.1-19-26.4-25.2-34.9,1.9-8.8,1.2-25.8,1.1-39.3.2-18.4-13.1-30.2-20.4-20.2-7.2,21.2-7.1,45.1-1.9,70.8C144.1,235.6,158.4,244.5,175.4,254.3Z"/></svg>