<svg xmlns="http://www.w3.org/2000/svg" xmlns:xlink="http://www.w3.org/1999/xlink" viewBox="0 0 400 400"><defs><style>.a{isolation:isolate;}.b{fill:url(#a);}.c{fill:url(#b);}.d{fill:#19cec9;}.e{fill:#152735;}.f{fill:url(#c);}.g{fill:#21e2e2;}.h{fill:#1f364c;}.i{fill:url(#d);}.j{fill:#ffe7cb;}.k{fill:#ea8f68;}.l{fill:url(#e);}.m{fill:#f59b6b;}.n{fill:#f0d2b9;}.o{fill:#0e71bb;}.p{fill:url(#f);}.q{fill:url(#g);}.r{fill:url(#h);}.s{fill:url(#i);}.t{fill:url(#j);}.u{fill:url(#k);}.v{fill:url(#l);}.w{fill:url(#m);}.x{fill:url(#n);}.y{fill:url(#o);}.z{fill:url(#p);}.aa{fill:#288ed9;}.ab{fill:#ffc38a;}.ac{fill:url(#q);}.ad{fill:url(#r);}.ae{fill:url(#s);}.af{fill:#005b9f;}.ag{fill:url(#t);}.ah{fill:url(#u);}.ai{fill:url(#v);}.aj{fill:url(#w);}.ak{fill:url(#x);}.al{fill:url(#y);}.am{fill:url(#z);}.an{fill:url(#aa);}.ao{fill:url(#ab);}.ap{fill:url(#ac);}.aq{fill:url(#ad);}.ar{fill:url(#ae);}.as{fill:url(#af);}.at{fill:#2283bf;}.au{fill:url(#ag);}.av{fill:url(#ah);}.aw{fill:url(#ai);}.ax{fill:url(#aj);}.ay{fill:#fff;opacity:0.57;mix-blend-mode:overlay;}.az{fill:url(#ak);}.ba{fill:url(#al);}.bb{fill:url(#am);}.bc{fill:url(#an);}.bd{fill:url(#ao);}.be{fill:#00c1bc;}.bf{fill:#4987ce;}</style><linearGradient id="a" x1="36.22" y1="212.79" x2="392.64" y2="212.79" gradientUnits="userSpaceOnUse"><stop offset="0" stop-color="#c6e6ff"/><stop offset="1" stop-color="#fff"/></linearGradient><linearGradient id="b" x1="8464.91" y1="328.65" x2="8429.73" y2="348.95" gradientTransform="translate(-8306.9)" gradientUnits="userSpaceOnUse"><stop offset="0" stop-color="#f4f3f1"/><stop offset="1" stop-color="#ffb2bc"/></linearGradient><linearGradient id="c" x1="8435.14" y1="334.59" x2="8402.08" y2="353.68" xlink:href="#b"/><linearGradient id="d" x1="957.28" y1="328.65" x2="922.11" y2="348.95" gradientTransform="matrix(-1, 0, 0, 1, 1222.93, 0)" xlink:href="#b"/><linearGradient id="e" x1="927.51" y1="334.59" x2="894.45" y2="353.68" gradientTransform="matrix(-1, 0, 0, 1, 1222.93, 0)" xlink:href="#b"/><linearGradient id="f" x1="1237.75" y1="134.2" x2="1235.89" y2="119.57" gradientTransform="translate(-986.5 77.1)" gradientUnits="userSpaceOnUse"><stop offset="0" stop-color="#f9fbfc"/><stop offset="0.31" stop-color="#f0f5fd"/><stop offset="0.8" stop-color="#d8e3fe"/><stop offset="1" stop-color="#cddbff"/></linearGradient><linearGradient id="g" x1="-5633.47" y1="188.79" x2="-5633.47" y2="194.48" gradientTransform="matrix(1, 0, 0, -1, 5856.24, 383.28)" gradientUnits="userSpaceOnUse"><stop offset="0" stop-color="#f9fbfc"/><stop offset="0.3" stop-color="#f5f8fc"/><stop offset="0.6" stop-color="#e9effd"/><stop offset="0.91" stop-color="#d4e0fe"/><stop offset="1" stop-color="#cddbff"/></linearGradient><linearGradient id="h" x1="-5662.83" y1="300.11" x2="-5605.16" y2="300.11" gradientTransform="matrix(1, 0, 0, -1, 5857.28, 600.22)" gradientUnits="userSpaceOnUse"><stop offset="0" stop-color="#07154b"/><stop offset="0.26" stop-color="#0c174e"/><stop offset="0.58" stop-color="#1b1d57"/><stop offset="0.93" stop-color="#332767"/><stop offset="1" stop-color="#39296a"/></linearGradient><linearGradient id="i" x1="-5638.58" y1="307.9" x2="-5629.4" y2="307.9" gradientTransform="matrix(1, 0, 0, -1, 5857.28, 615.81)" xlink:href="#h"/><linearGradient id="j" x1="-5635.81" y1="318.04" x2="-5632.17" y2="318.04" gradientTransform="matrix(1, 0, 0, -1, 5857.28, 636.08)" xlink:href="#h"/><linearGradient id="k" x1="-5636.33" y1="336.83" x2="-5631.65" y2="336.83" gradientTransform="matrix(1, 0, 0, -1, 5857.28, 673.65)" xlink:href="#h"/><linearGradient id="l" x1="-5642.27" y1="304.47" x2="-5625.71" y2="304.47" gradientTransform="matrix(-1, 0, 0, 1, -5410.7, 0)" xlink:href="#h"/><linearGradient id="m" x1="-5658.68" y1="348.86" x2="-5635.3" y2="348.86" gradientTransform="matrix(-1, 0, 0, 1, -5410.7, 0)" xlink:href="#h"/><linearGradient id="n" x1="-5657.77" y1="356.69" x2="-5652" y2="356.69" gradientTransform="matrix(-1, 0, 0, 1, -5410.7, 0)" xlink:href="#h"/><linearGradient id="o" x1="-5632.68" y1="348.86" x2="-5609.3" y2="348.86" gradientTransform="matrix(-1, 0, 0, 1, -5410.7, 0)" xlink:href="#h"/><linearGradient id="p" x1="-5615.98" y1="356.69" x2="-5610.21" y2="356.69" gradientTransform="matrix(-1, 0, 0, 1, -5410.7, 0)" xlink:href="#h"/><linearGradient id="q" x1="-5589.46" y1="359.53" x2="-5589.46" y2="326.41" gradientTransform="matrix(-1, 0, 0, 1, -5410.7, 0)" gradientUnits="userSpaceOnUse"><stop offset="0" stop-color="#ffd1c1"/><stop offset="0.28" stop-color="#ffcebe"/><stop offset="0.51" stop-color="#ffc6b4"/><stop offset="0.72" stop-color="#ffb8a2"/><stop offset="0.92" stop-color="#ffa48b"/><stop offset="1" stop-color="#ff9a7f"/></linearGradient><linearGradient id="r" x1="-5678.52" y1="359.53" x2="-5678.52" y2="326.41" xlink:href="#q"/><linearGradient id="s" x1="685.46" y1="3027.92" x2="683.61" y2="3013.29" gradientTransform="translate(-390.1 -2799.2)" xlink:href="#f"/><linearGradient id="t" x1="-375.84" y1="262.48" x2="-361.71" y2="262.48" gradientTransform="translate(751.7)" xlink:href="#h"/><linearGradient id="u" x1="-426.58" y1="300.11" x2="-368.91" y2="300.11" gradientTransform="translate(751.7)" xlink:href="#h"/><linearGradient id="v" x1="-402.34" y1="307.9" x2="-393.16" y2="307.9" gradientTransform="translate(751.7)" xlink:href="#h"/><linearGradient id="w" x1="-399.57" y1="318.04" x2="-395.93" y2="318.04" gradientTransform="translate(751.7)" xlink:href="#h"/><linearGradient id="x" x1="-400.09" y1="336.83" x2="-395.41" y2="336.83" gradientTransform="translate(751.7)" xlink:href="#h"/><linearGradient id="y" x1="-406.03" y1="304.47" x2="-389.47" y2="304.47" gradientTransform="translate(751.7)" xlink:href="#h"/><linearGradient id="z" x1="-422.44" y1="348.86" x2="-399.06" y2="348.86" gradientTransform="translate(751.7)" xlink:href="#h"/><linearGradient id="aa" x1="-421.53" y1="356.69" x2="-415.76" y2="356.69" gradientTransform="translate(751.7)" xlink:href="#h"/><linearGradient id="ab" x1="-396.44" y1="348.86" x2="-373.06" y2="348.86" gradientTransform="translate(751.7)" xlink:href="#h"/><linearGradient id="ac" x1="-379.73" y1="356.69" x2="-373.97" y2="356.69" gradientTransform="translate(751.7)" xlink:href="#h"/><linearGradient id="ad" x1="-5735.76" y1="306.9" x2="-5725.88" y2="306.9" gradientTransform="matrix(-1, 0, 0, 1, -5410.7, 0)" xlink:href="#h"/><linearGradient id="ae" x1="-5569.79" y1="306.9" x2="-5559.91" y2="306.9" gradientTransform="matrix(-1, 0, 0, 1, -5410.7, 0)" xlink:href="#h"/><linearGradient id="af" x1="-5647.84" y1="238.18" x2="-5647.84" y2="260.91" gradientTransform="matrix(1, 0, 0, -1, 5884.98, 501.77)" gradientUnits="userSpaceOnUse"><stop offset="0" stop-color="#f4f3f1"/><stop offset="0.74" stop-color="#9d9d9f"/><stop offset="1" stop-color="#7d7e81"/></linearGradient><linearGradient id="ag" x1="-1640.15" y1="224.28" x2="-1630.22" y2="224.28" gradientTransform="matrix(0.98, 0.18, -0.18, 0.98, 1801.37, 236.54)" gradientUnits="userSpaceOnUse"><stop offset="0" stop-color="#f9fbfc"/><stop offset="0.1" stop-color="#f0f5fd"/><stop offset="0.4" stop-color="#dde6fe"/><stop offset="0.69" stop-color="#d1deff"/><stop offset="1" stop-color="#cddbff"/></linearGradient><linearGradient id="ah" x1="-1631.4" y1="203.82" x2="-1609.35" y2="203.82" xlink:href="#ag"/><linearGradient id="ai" x1="131.43" y1="166.91" x2="142.9" y2="166.91" gradientTransform="matrix(1, 0, 0, 1, 0, 0)" xlink:href="#ag"/><linearGradient id="aj" x1="-5153.94" y1="518.74" x2="-5175.43" y2="481.52" gradientTransform="matrix(-1, 0.06, -0.06, -1, -5061.33, 1116.97)" gradientUnits="userSpaceOnUse"><stop offset="0" stop-color="#419ee3"/><stop offset="1" stop-color="#0d79c9"/></linearGradient><linearGradient id="ak" x1="47.15" y1="-10.71" x2="62.84" y2="-1.26" gradientTransform="translate(16.6 302.8) rotate(7.1)" gradientUnits="userSpaceOnUse"><stop offset="0" stop-color="#ffbc98"/><stop offset="1" stop-color="#ff9f6c"/></linearGradient><linearGradient id="al" x1="34.84" y1="83.52" x2="6.44" y2="34.33" gradientTransform="translate(16.2 236.6) rotate(5.5)" gradientUnits="userSpaceOnUse"><stop offset="0" stop-color="#44989f"/><stop offset="0.21" stop-color="#39b0b4"/><stop offset="0.52" stop-color="#2ccbcd"/><stop offset="0.8" stop-color="#24dcdd"/><stop offset="1" stop-color="#21e2e2"/></linearGradient><linearGradient id="am" x1="44.86" y1="71.27" x2="11.94" y2="14.26" gradientTransform="translate(16.2 236.6) rotate(5.5)" xlink:href="#aj"/><linearGradient id="an" x1="41.5" y1="49.28" x2="16.75" y2="6.41" gradientTransform="matrix(0.99, 0.16, -0.16, 0.99, 30.63, 259)" xlink:href="#al"/><linearGradient id="ao" x1="51.17" y1="322.4" x2="51.17" y2="412.65" gradientTransform="matrix(1, 0, 0, 1, 0, 0)" xlink:href="#ak"/></defs><title>advantage-windows-dedicated-server</title><g class="a"><path class="b" d="M96.8,367c-48.3,0-77.4-54.2-50-94l1.8-2.7c40.9-57.1,14.6-93.7,48-159.7s117.6-73.8,155.1,3.6c10.2,21.1,46.2,74.5,71.3,90.1,20.4,12.6,68.2,22,69.6,97.8a79.1,79.1,0,0,1-1.5,15.9c-5.2,28.4-30.3,49-59.3,49Z"/><path class="c" d="M124.2,343.1a22.2,22.2,0,0,1,1-3.1,27.5,27.5,0,0,0,1-3.4c.2-4.6-.4-17.4-.4-17.4h12.7s-1.9,11.1-.2,17.6h0c5.6,3.2,15.6,7.5,15.6,7.5l12,2.2a11.3,11.3,0,0,1,3.7,2.3s1.3,3-12.9,5c0,0-6.2,1.3-16-.3l-6.5-.7c-2.1-.2-8.7-.5-9.6-1.1l-.7-.8C122.8,348.9,123.9,345.3,124.2,343.1Z"/><path class="d" d="M125.2,340a18.2,18.2,0,0,0,.7-2l1.4.8c5.4,2.7,11.3,2.5,17.1,1.4h.3l9.2,4.2,12,2.2a11.3,11.3,0,0,1,3.7,2.3s1.3,3-12.9,5c0,0-6.2,1.3-16-.3l-6.5-.7c-2.1-.2-8.7-.5-9.6-1.1l-.7-.8c-1.1-2,0-5.6.3-7.8A22.2,22.2,0,0,1,125.2,340Z"/><path class="e" d="M141.3,229.9c-.2-11.5-2.7-32.4-12.2-33.1-3.6-.3-7.2-1.6-10.4-.2a7.8,7.8,0,0,0-2.2,1.2c-3.8,2.6-6,7.2-6.5,11.8s.7,10.9,2,16.2c2.8,11.6,5.5,23.2,9.2,34.5A26.8,26.8,0,0,0,123,265c-5.7,27.8,1.8,75.8,1.8,75.8l18.9-2s-2-72.6-1.8-80.6a20.6,20.6,0,0,0-.2-3.8C142.8,246.5,141.5,238.8,141.3,229.9Z"/><path class="f" d="M95.9,345.3a15.1,15.1,0,0,1,1.3-2.9c.2-.3,1.3-3,1.4-3.3.7-4.6,1.4-17.3,1.4-17.3l12.7,1.3s-3.1,10.8-2.1,17.4h0c5.2,3.8,14.7,9.1,14.7,9.1s11.1,3.2,11.7,3.5a12.3,12.3,0,0,1,3.4,2.7s1,3.1-13.4,3.6c0,0-6.2.6-15.8-2l-6.3-1.4c-2.2-.4-8.7-1.4-9.5-2.1a2.4,2.4,0,0,1-.6-.9C93.9,350.9,95.4,347.5,95.9,345.3Z"/><path class="g" d="M97.2,342.4l.9-2,1.3.9c5.1,3.4,11,3.8,16.9,3.2h.3c4.4,2.7,8.7,5.1,8.7,5.1s11.1,3.2,11.7,3.5a12.3,12.3,0,0,1,3.4,2.7s1,3.1-13.4,3.6c0,0-6.2.6-15.8-2l-6.3-1.4c-2.2-.4-8.7-1.4-9.5-2.1a2.4,2.4,0,0,1-.6-.9c-.9-2.1.6-5.5,1.1-7.7A15.1,15.1,0,0,1,97.2,342.4Z"/><path class="h" d="M127.3,217.8c-.7-6.7-4.1-13-9.7-16.6s-9.5-3.3-13.9-.7a15.9,15.9,0,0,0-7.2,10.6c-1.4,6.5-.5,13.3.8,19.7s2.2,13.4,3.4,20c.7,3.9,1.6,7.8,2.3,11.7.2.9.4,2,.6,3-9.2,27.1-6.5,77.5-6.5,77.5l18.3.7s6-72.6,7.1-80.9a18.2,18.2,0,0,1,.7-2.5,95,95,0,0,0,3.1-14.6A130.4,130.4,0,0,0,127.3,217.8Z"/><path class="i" d="M299.4,343.1a13.9,13.9,0,0,0-1-3.1,27.5,27.5,0,0,1-1-3.4c-.2-4.6.4-17.4.4-17.4H285.1s1.9,11.1.2,17.6h0c-5.6,3.2-15.6,7.5-15.6,7.5s-11.4,2-11.9,2.2a11.3,11.3,0,0,0-3.8,2.3s-1.3,3,13,5c0,0,6.1,1.3,16-.3l6.4-.7c2.2-.2,8.7-.5,9.6-1.1s.6-.5.7-.8C300.8,348.9,299.7,345.3,299.4,343.1Z"/><path class="d" d="M298.4,340a10,10,0,0,1-.6-2l-1.5.8c-5.4,2.7-11.3,2.5-17.1,1.4h-.3l-9.2,4.2s-11.4,2-11.9,2.2a11.3,11.3,0,0,0-3.8,2.3s-1.3,3,13,5c0,0,6.1,1.3,16-.3l6.4-.7c2.2-.2,8.7-.5,9.6-1.1s.6-.5.7-.8c1.1-2,0-5.6-.3-7.8A13.9,13.9,0,0,0,298.4,340Z"/><path class="e" d="M313.6,209.6c-.5-4.6-2.7-9.2-6.4-11.8a9.4,9.4,0,0,0-2.2-1.2c-3.3-1.4-6.9-.1-10.5.2-9.5.7-11.9,21.6-12.2,33.1-.2,8.9-1.4,16.6-.4,24.5a36.3,36.3,0,0,0-.2,3.8c.2,8,4.6,78.6,4.6,78.6l11.8,1.3s7.7-45.2,2.5-73a27.8,27.8,0,0,0,1.8-4.8c3.7-11.3,6.4-22.9,9.2-34.5C312.9,220.5,314.2,215.1,313.6,209.6Z"/><path class="j" d="M283,185.8c-1-2.4-4-2.2-6.3-2.5-5.6-.5-30.4,13.9-30.4,13.9l-4.9.2-4.9-.9-3.1-.5a9,9,0,0,1-2.4-1.2,8.7,8.7,0,0,0-1.1-.9.8.8,0,0,0-.9.2c-.2.1-.2.4-.2.7a2.9,2.9,0,0,0,1.4,2.3l1,.4a2.1,2.1,0,0,1,1,.6,1,1,0,0,1,.3.9c0,.5-.4.6-.8.6l-1.5.3-.9.2-.9.2-1.2.2c-3.7.7-5.2-.8-7.4.3s.5,1.2-.2,2.6,4.2,2.5,3,3,.6,2.8,4.6,4.4a13.4,13.4,0,0,0,8.3.4h.5l13.2-6.1c1.8-.9,11.5-3.5,13.4-3.9S287.5,196.2,283,185.8Z"/><path class="k" d="M289.7,145.5a9.5,9.5,0,0,0-4.8,5.5c-3.8,9.8-10.6,31.5-10.6,31.5l.2.4c-7,1.7-21.5,9.7-27.7,13.1a62.2,62.2,0,0,1,3.1,9.2c3.9-1.2,10.3-2.9,11.9-3.2s14.9-3,20.5-8.6h0c1.3.4,12.4-16.6,12.9-18C297.1,169.4,306.3,138.2,289.7,145.5Z"/><path class="l" d="M327.7,345.3a10.8,10.8,0,0,0-1.3-2.9l-1.4-3.3c-.7-4.6-1.4-17.3-1.4-17.3l-12.7,1.3s3.2,10.8,2.1,17.4h.1c-5.3,3.8-14.8,9.1-14.8,9.1s-11.1,3.2-11.6,3.5a11,11,0,0,0-3.5,2.7s-1,3.1,13.4,3.6c0,0,6.3.6,15.9-2l6.3-1.4c2.1-.4,8.6-1.4,9.4-2.1a2.4,2.4,0,0,0,.6-.9C329.7,350.9,328.3,347.5,327.7,345.3Z"/><path class="d" d="M326.4,342.4l-.9-2-1.3.9c-5.1,3.4-11,3.8-16.9,3.2H307c-4.4,2.7-8.7,5.1-8.7,5.1s-11.1,3.2-11.6,3.5a11,11,0,0,0-3.5,2.7s-1,3.1,13.4,3.6c0,0,6.3.6,15.9-2l6.3-1.4c2.1-.4,8.6-1.4,9.4-2.1a2.4,2.4,0,0,0,.6-.9c.9-2.1-.5-5.5-1.1-7.7A10.8,10.8,0,0,0,326.4,342.4Z"/><path class="h" d="M322.9,250.8c1.2-6.6,2.2-13.3,3.5-20s2.1-13.2.7-19.7a16.2,16.2,0,0,0-7.1-10.6,13,13,0,0,0-13.9.7,21.8,21.8,0,0,0-9.7,16.6,124.1,124.1,0,0,0,.9,27.9,95,95,0,0,0,3.1,14.6,23.3,23.3,0,0,1,.7,2.5c1.1,8.3,7.5,80.7,7.5,80.7l17.8-1.1s2.6-49.8-6.4-76.9c.2-1,.5-2,.6-3C321.3,258.6,322.2,254.7,322.9,250.8Z"/><path class="m" d="M330.4,212.1c-.9-7.3-2.5-14.1-1.6-21.5s1.8-15,2.9-22.5c.4-3.2,1.3-6.5,1.6-9.6s-1.6-7.9-4.2-10.9a51.6,51.6,0,0,0-7.8-7.7l-.3-.2c-1.1-.8-1.9-.6-3.1-1.2-4.8-2.3-11.4-2.5-16.2.1l-9.1,4.8a10.8,10.8,0,0,0-5.5,9.5c-.3,9-.5,18-.6,26.9,0,4.7.5,9.3-.2,13.9-1,6.1-5.9,13.8-5.8,22.6.1,3.1,1.3,2.4,3.7,3.1,6.2,1.8,17.1,2,23.4,3.1s17,2.2,23.1.4C334.5,221.8,330.9,216.3,330.4,212.1Z"/><path class="n" d="M318,128.6l-.3,9.6s-2.6,11.5-14.7,5l.8-15Z"/><path class="j" d="M319.8,114.6l-3.4,16.9-.3,2.4c-7.1,7.8-15.9,6.9-18.1,3.3s-.4-26.6-.4-26.6Z"/><path class="o" d="M320.6,105.8c-1.6-5-10.3-4.9-15.2-3.3-7.2,2.4-18.1,4.4-15.9,8.1,5.5,8.9,23,4,23,4s-1.7,2.2.1,6.3a17.7,17.7,0,0,1,.9,7.9,1.2,1.2,0,0,0,2,.8l2.5-3.1-.3,10.2a87.5,87.5,0,0,0,7.3-13.9h0C333.2,106.2,320.6,105.8,320.6,105.8Z"/><path class="j" d="M320.9,123.7c1.4,2.1-.1,6.5-4.5,7.8l.8-7.8A2.3,2.3,0,0,1,320.9,123.7Z"/><rect class="p" x="246.7" y="193.3" width="6.2" height="13.67" transform="translate(-47.1 80.5) rotate(-16.8)"/><rect class="q" x="213.5" y="188.8" width="18.6" height="5.69" transform="translate(445.5 383.3) rotate(180)"/><rect class="r" x="194.5" y="297.7" width="57.7" height="4.74" transform="translate(446.6 600.2) rotate(180)"/><rect class="s" x="218.7" y="306.5" width="9.2" height="2.87" transform="translate(446.6 615.8) rotate(180)"/><rect class="t" x="221.5" y="309.3" width="3.6" height="17.4" transform="translate(446.6 636.1) rotate(180)"/><rect class="u" x="221" y="326.7" width="4.7" height="20.17" transform="translate(446.6 673.7) rotate(180)"/><polygon class="v" points="220.9 302.5 225.7 302.5 231.6 302.5 229.2 306.5 225.7 306.5 220.9 306.5 217.4 306.5 215 302.5 220.9 302.5"/><path class="o" d="M226.2,281.4h-5.8c-9.4.4-28.6,2.9-25,16.3h55.8C254.8,284.3,235.6,281.8,226.2,281.4Z"/><path class="w" d="M224.6,345.9,248,356.5a6.2,6.2,0,0,0-1.3-4.1c-1.6-1.9-13.6-7.5-22.1-11.2Z"/><circle class="x" cx="244.2" cy="356.7" r="2.9"/><path class="y" d="M222,341.2c-8.5,3.7-20.5,9.3-22.1,11.2a6.2,6.2,0,0,0-1.3,4.1L222,345.9Z"/><circle class="z" cx="202.4" cy="356.7" r="2.9"/><path class="aa" d="M182,231.4a60.7,60.7,0,0,1,2.4-5.9h0s9-25.6,15.6-28c.2,0,7-1.6,7.5-1.5l-4.2,29.5h-5.8c-1.9,4.1-3.9,8.3-6.1,12.3-1.1,2-2.1,4.2-3.9,5.5s-4.9,1.5-6.3-.4a6.3,6.3,0,0,1-.9-3.8A25.3,25.3,0,0,1,182,231.4Z"/><path class="aa" d="M238.3,196c.4-.1,7.3,1.5,7.4,1.5,6.6,2.4,16.6,30.2,16.6,30.2h0c.5,1.2,1,2.5,1.4,3.7a25.3,25.3,0,0,1,1.7,7.7,5.7,5.7,0,0,1-.9,3.8c-1.4,1.9-4.3,1.8-6.2.4s-2.6-3.6-4-5.5a67.7,67.7,0,0,1-7.1-11.8l-4.8-.5Z"/><path class="ab" d="M194.6,346.2c0-.3-.1-.5-.1-.8A2.5,2.5,0,0,1,194.6,346.2Z"/><path class="ab" d="M177.1,351.2h0Z"/><path class="ab" d="M177.5,351.1l.4-.2Z"/><path class="ab" d="M173.1,350.4h0Z"/><path class="ab" d="M172.6,350a.1.1,0,0,0,.1.1A.1.1,0,0,1,172.6,350Z"/><path class="h" d="M176.3,273.9l.3-.6c1.4-3,5.3-4.3,8.1-5.5,4.6-2.1,9.4-3.7,14-5.7s12-4.4,18.2-3.4a14.8,14.8,0,0,1,6.4,2.5,14.8,14.8,0,0,1,6.4-2.5c6.2-1,12.5,1.1,18.2,3.4s9.4,3.6,14,5.7c2.7,1.2,6.7,2.5,8.1,5.5l.3.6c.9,2.9-.4,6-1.7,8.4s-3.3,5.6-5,6c-6.8,1.5-14,1.3-20.9.5-4.3-.6-8.5-1.3-12.6-2.2a56.3,56.3,0,0,1-6.8-1.7,61.4,61.4,0,0,1-6.8,1.7c-4.2.9-8.4,1.6-12.6,2.2-6.9.8-14.1,1-21-.5-1.6-.4-4-4.6-4.9-6S175.4,276.8,176.3,273.9Z"/><path class="aa" d="M222.8,192.1h.1c11.3.1,22.8,7,22.8,7s-.1,2.1-.1,3.1c-.5,8.2-.9,16.3-1.3,24.4-.3,4.9-.5,9.9-.8,14.8s-.8,9.9.5,15.1c.3,1.5.8,3.3.3,4.8a4.7,4.7,0,0,1-2.3,2.3,39.9,39.9,0,0,1-5.3,3c-8.6,4-18.1,2.5-27.2.4-2.9-.7-6-1.6-7.9-4.5a6.7,6.7,0,0,1-.8-1.7,9.1,9.1,0,0,1,.5-4.3c.3-1.3.5-2.6.7-3.9.8-5.8.2-11.9-.1-17.8l-.9-16.7c-.3-6.4-.7-12.7-1-19C200,199.1,211.6,192.2,222.8,192.1Z"/><path class="ac" d="M164,354.4h.1a5.7,5.7,0,0,1,1.1-1.1l-.5.3.5-.3a14,14,0,0,1,2.6-1.6l.9-.5,3-1.7h.2c.5-.6,10.4-11.4,10.9-12.3.9-4,.2-9.9.2-9.9l8.2-.7s-1.2,7.3,0,12.8a17.3,17.3,0,0,1,1.4,2,.3.3,0,0,0,.1.2h-.1c1.2.5,1.9,4.1,2.1,5.2a3.3,3.3,0,0,1-2.1,3.8c-1.7.9-3.5,1.5-5.3,2.3s-6.3,3.5-9.7,4.8-7.7,1.4-11.5,2c-1.1.1-2.7.1-3.2-1.1S163.4,355.3,164,354.4Z"/><path class="g" d="M162.8,357.9a4.3,4.3,0,0,0,.1.5,2.2,2.2,0,0,0,2.1,1.1h1.1l5.8-.7,2.2-.4h.8l1.3-.4.7-.2.7-.2,2.5-1.1,3.1-1.5,4.1-2.2,1.4-.6,1.3-.5a20.6,20.6,0,0,0,2.6-1.2,7.8,7.8,0,0,0,1.5-1l.2-.3.3-.7a1.3,1.3,0,0,0,.1-.6.4.4,0,0,1,.1-.3c0-.3-.1-.6-.1-.9s-.2-1-.3-1.6a.6.6,0,0,1-.1-.4l-.3-.8c0-.2-.1-.3-.1-.5l-.3-.7-.2-.3a17.7,17.7,0,0,0-1.2-1.7l-.6-.8c-3,2.8-8.9,3.5-11.7.5-3.1,3.6-7.6,8.5-8,9h-.2l-3,1.7-.9.5-.6.3a.1.1,0,0,0-.1.1l-.6.3-1.3.9-.5.3.5-.3-.5.4c0,.1-.1.1-.1.2h-.2l-.3.4H164a.3.3,0,0,1-.1.2h0l-.2.3-.6,1.1a.4.4,0,0,1-.1.3,4.3,4.3,0,0,1-.1.5,1.3,1.3,0,0,0-.1.6v.5Zm8.9-8.5h0a12,12,0,0,1-2.1,1.3h-.1l-.7.3Z"/><path class="h" d="M177.7,273.3s-2.1,0-1.6,6,4.5,60.3,4.5,60.3l11.7.4s4.6-41.9-3-62.2C189.3,277.8,185.2,268.7,177.7,273.3Z"/><path class="ad" d="M282.6,354.4h-.1a5.7,5.7,0,0,0-1.1-1.1l.5.3-.5-.3a12,12,0,0,0-2.7-1.6l-.9-.5a22.2,22.2,0,0,1-2.9-1.7h-.2c-.5-.6-10.4-11.4-10.9-12.3-.9-4-.2-9.9-.2-9.9l-8.2-.7s1.1,7.3,0,12.8a17.3,17.3,0,0,0-1.4,2,.3.3,0,0,1-.1.2h.1c-1.2.5-1.9,4.1-2.1,5.2a3.6,3.6,0,0,0,.1,1.8,3.3,3.3,0,0,0,2,2c1.7.9,3.5,1.5,5.2,2.3,3.2,1.5,6.4,3.5,9.7,4.8s7.8,1.4,11.6,2c1.1.1,2.7.1,3.2-1.1S283.2,355.3,282.6,354.4Z"/><path class="ab" d="M252,346.2a2.2,2.2,0,0,1,.1-.8A2.5,2.5,0,0,0,252,346.2Z"/><path class="ab" d="M269.5,351.2h0Z"/><path class="ab" d="M269.1,351.1l-.4-.2Z"/><path class="ab" d="M273.5,350.4h0Z"/><path class="ab" d="M274,350a.1.1,0,0,1-.1.1A.1.1,0,0,0,274,350Z"/><path class="g" d="M283.8,357.9v-.5a1.3,1.3,0,0,0-.1-.6,4.3,4.3,0,0,1-.1-.5l-.2-.3a3.7,3.7,0,0,0-.5-1.1l-.2-.3h0a.3.3,0,0,1-.1-.2h-.1c-.1-.1-.2-.3-.4-.4H282c0-.1-.1-.1-.2-.2l-.4-.4.5.3-.5-.3-1.3-.9-.6-.3a.1.1,0,0,0-.1-.1l-.7-.3-.9-.5a22.2,22.2,0,0,1-2.9-1.7h-.2c-.4-.5-4.9-5.4-8-9-2.8,3-8.7,2.3-11.7-.5a5.5,5.5,0,0,0-.6.8,17.7,17.7,0,0,0-1.2,1.7l-.2.3-.3.7c0,.2-.1.3-.2.5a2.4,2.4,0,0,1-.2.8.6.6,0,0,1-.1.4c-.1.6-.2,1.2-.3,1.6s-.1.6-.1.9v.3c.1.2.1.4.2.6l.3.7.2.3a7.8,7.8,0,0,0,1.5,1,20.6,20.6,0,0,0,2.6,1.2l1.3.5,1.3.6,4.2,2.2,3.1,1.5,2.4,1.1.7.2.8.2,1.3.4h.8l2.2.4,5.8.7h1.1a2.2,2.2,0,0,0,2.1-1.1,4.3,4.3,0,0,0,.1-.5Zm-6-6.8-.7-.3H277a9.2,9.2,0,0,1-2.1-1.3h0Z"/><path class="h" d="M268.9,273.3s2.1,0,1.6,6-3,61.9-3,61.9l-14.4.7s-3.4-43.8,4.2-64.1C257.3,277.8,261.4,268.7,268.9,273.3Z"/><path class="aa" d="M221.9,237.6c.3-.9-.3-1.5-.2-2.3s.5-1.1.9-1.6.2-1.2,0-2.1,1.1-1.2,1.3-1.4a8.9,8.9,0,0,0,1.3-1.4c.5-.7,0-1.3-.6-1.8l-6.2,2.1,1.5-3.2c.7-1.6-1.1-1.8-1.1-1.8a6.1,6.1,0,0,1-1.6,2.7l-2.1,1.7h0l-3.2,2.7-3.5,1.8s-20.2-1.2-24,1.5c-1.6,1.1-3.7,3.2-4,5.3-.6,4.1,3.7,5.9,6.8,6.3s8-1.8,11.9-3.1l4.8-1.7c1.4-.4,3.3-1.4,4.8-1.4l11.6-.5C221,239.3,221.6,238.3,221.9,237.6Z"/><path class="aa" d="M223.9,237.6c-.3-.9.3-1.5.2-2.3a3.4,3.4,0,0,0-1-1.6c-.6-.7-.2-1.2,0-2.1s-1.1-1.2-1.2-1.4a9.2,9.2,0,0,1-1.4-1.4c-.4-.7.1-1.3.6-1.8l6.3,2.1c-.4-.7-1.1-2.1-1.6-3.2a1.3,1.3,0,0,1,1.1-1.8,6.2,6.2,0,0,0,1.7,2.7l2,1.7h0l3.2,2.7,3.6,1.8s20.2-1.2,23.9,1.5c1.7,1.1,3.8,3.2,4.1,5.3.5,4.1-3.7,5.9-6.9,6.3s-7.9-1.8-11.8-3.1l-4.8-1.7c-1.5-.4-3.3-1.4-4.8-1.4l-11.6-.5C224.7,239.3,224.1,238.3,223.9,237.6Z"/><path class="j" d="M321.2,190.5c-1.8-1.8-5.5-1.1-7.8-.4-5.4,1.6-26,28.8-26,28.8l-4.5,2L278,222l-3.1.6a8.2,8.2,0,0,1-2.7-.2,5,5,0,0,0-1.3-.4.7.7,0,0,0-.8.5.9.9,0,0,0,.1.7,2.8,2.8,0,0,0,2.2,1.6h1.1a2.2,2.2,0,0,1,1.1.2,1.1,1.1,0,0,1,.7.8c.1.4-.2.7-.6.8l-1.3.8-.8.6-.7.5-1,.6c-3.3,2-5.1,1.2-6.8,3s.9,1,.8,2.6,4.8.7,3.9,1.6,1.6,2.3,5.8,2.3a13.6,13.6,0,0,0,8-2.6l.4-.3,10-10.6c1.3-1.5,9.3-7.5,10.9-8.5S329.2,198.5,321.2,190.5Z"/><path class="k" d="M317.3,146.3a9.5,9.5,0,0,0-4.2,6.1c-2.4,9.3-1.7,34.6-1.6,38.4-5.9,4-17.3,17.9-21.9,23.8a101.5,101.5,0,0,1,6.6,8.1c3.3-2.6,8.8-6.6,10.2-7.5s12.9-8.4,16.2-16h0c1.3.3,7.3-22.3,7.6-23.8C331.4,169.2,332.8,137.1,317.3,146.3Z"/><rect class="ae" x="290.9" y="210.8" width="6.2" height="13.67" transform="translate(-67.4 274) rotate(-45.4)"/><path class="n" d="M231.2,182.3l-.9,11.2s-3.9,6.5-14.8,0l-1-8.2Z"/><rect class="af" x="196.7" y="216.4" width="50.8" height="28.6" transform="translate(444.3 461.3) rotate(180)"/><path class="o" d="M380,223.9a1.8,1.8,0,0,1,.5-.7c-8.7-2.8-11.8,10-12.8,16.4h0a.4.4,0,0,1-.1.3,2.2,2.2,0,0,1-.1.8h0v.4h0a.4.4,0,0,1-.1.3v.2h0v.6a1.7,1.7,0,0,0-.1.7v.4h0c-.4,6.4,2.8,19.2,11.6,18.4C371.7,245.5,379.7,224.8,380,223.9Z"/><path class="ag" d="M384.1,262.5c-8.4-15,.1-36.9.2-37.1a2.2,2.2,0,0,0-1.4-2.8,2.3,2.3,0,0,0-2.4.6,1.8,1.8,0,0,0-.5.7c-.3.9-8.3,21.6-1.1,38,.4.9.8,1.7,1.3,2.6,6.1,11,6.4,27.3,4,31.7-.4.7-1.2,1.9-2.3,2a2.2,2.2,0,0,0-2,2.4,2.2,2.2,0,0,0,2.2,1.9h.3a7.5,7.5,0,0,0,5.7-4.3C391.2,292.6,391.1,274.9,384.1,262.5Z"/><rect class="ah" x="325.2" y="297.7" width="57.7" height="4.74"/><rect class="ai" x="349.4" y="306.5" width="9.2" height="2.87"/><rect class="aj" x="352.2" y="309.3" width="3.6" height="17.4"/><rect class="ak" x="351.7" y="326.7" width="4.7" height="20.17"/><polygon class="al" points="356.4 302.5 351.6 302.5 345.7 302.5 348.1 306.5 351.6 306.5 356.4 306.5 359.9 306.5 362.3 302.5 356.4 302.5"/><path class="o" d="M351.1,281.4h5.8c9.4.4,28.6,2.9,25,16.3H326.1C322.5,284.3,341.7,281.8,351.1,281.4Z"/><path class="am" d="M352.7,341.2c-8.5,3.7-20.5,9.3-22.1,11.2a6.2,6.2,0,0,0-1.3,4.1l23.4-10.6Z"/><path class="an" d="M336,356.7a2.9,2.9,0,1,1-2.9-2.9A2.9,2.9,0,0,1,336,356.7Z"/><path class="ao" d="M355.3,345.9l23.4,10.6a6.2,6.2,0,0,0-1.3-4.1c-1.6-1.9-13.6-7.5-22.1-11.2Z"/><path class="ap" d="M372,356.7a2.9,2.9,0,1,0,2.9-2.9A2.9,2.9,0,0,0,372,356.7Z"/><polygon class="aq" points="325 358.8 325.1 359.6 321 359.6 315.2 254.2 320.9 254.2 325 358.8"/><polygon class="ar" points="153.4 254.2 159.1 254.2 153.3 359.6 149.2 359.6 153.4 254.2"/><rect class="as" x="146.6" y="245" width="181.2" height="11.86" transform="translate(474.3 501.8) rotate(180)"/><path class="j" d="M234.1,167.2l-1.1,5.6-1.6,8.5-.5,2.4c-8,7.3-17,5.5-18.9,1.7s2.1-21.3,2.1-21.3Z"/><path class="o" d="M230.7,164.4l-1.2,11.2,3.1-3.4-2.5,17.2s13.2-14.7,10.5-22.9l-1.2-1.1s4.6-6.9-8.4-9-21-3.1-21.3,2.4a28.9,28.9,0,0,0,.7,8.9Z"/><path class="j" d="M236.1,172.9c1.2,2.3-.1,6.8-4.8,7.7l.9-8A2.5,2.5,0,0,1,236.1,172.9Z"/><polygon class="o" points="233.9 166.1 220.8 167.7 227.2 161.8 233.9 166.1"/><path class="at" d="M147.6,174.5c-3.1-8.4-9-23.2-12.4-28.1-1.1-1.5-2.6-3-4.5-3.3-7.8-1.1-3.8,11.2-2.8,14.9a77.2,77.2,0,0,0,4.4,12.5,63,63,0,0,0,8.1,14,18.4,18.4,0,0,0,5.1,4.1l.2.2h.2c7.7-.5,26.4-23,26.4-23l.9-10.7C161.7,165.1,153,170.3,147.6,174.5Z"/><path class="j" d="M167.7,159l10.3-6.5s.9,3.1,0,4.1-.8,2.1-1.4,3.1-1,3.9-2.4,5.3-4.5.9-6,2.1l-4.4,3.9-4.3-5.5,4.2-3.5s1.4-6,5.6-7.8Z"/><polygon class="af" points="166.5 178.5 145.3 178.5 160.8 142.8 181.9 143.6 166.5 178.5"/><polygon class="au" points="144.3 177.5 145.3 178.5 160.8 142.8 159.8 141.8 144.3 177.5"/><polygon class="av" points="159.8 141.8 180.9 142.6 181.9 143.6 160.8 142.8 159.8 141.8"/><path class="j" d="M175.9,150.5l1.3,5.2-3.5,7-2.3-9.3s1.1-1.1,1.6.2l-.3-2.2S172.8,149,175.9,150.5Z"/><path class="aa" d="M93.3,212.1c.8-7.3,2.4-14.1,1.5-21.5s-1.8-15-2.9-22.5c-.4-3.2-1.3-6.5-1.6-9.6a14,14,0,0,1,3.5-10.9c2.2-2.6,11-9.1,12.2-9.7a18.2,18.2,0,0,1,15.9.7l9.2,4.8a11.1,11.1,0,0,1,5.5,9.5c.2,9,.4,18,.5,26.9,0,4.7-.5,9.3.3,13.9.9,6.1,5.6,16.5,5.5,25.3a7.2,7.2,0,0,0-3.5.4c-6.2,1.8-17,2-23.4,3.1s-15.4,3.4-21.5,1.6C94.5,224.1,92.8,216.3,93.3,212.1Z"/><path class="at" d="M121.5,139c-.6-.3,1-.1.4-.4a18.2,18.2,0,0,0-15.9-.7l-2.6,1.7c.6,5.2,6.7,7.8,12,7.8S124.5,144.5,121.5,139Z"/><path class="at" d="M130.4,176.2c2.9,2,4.7,3.2,6.7,3,0-4.8-.1-9.6-.2-14.4a5,5,0,0,1-2.2,2.1c-4.1,1.8-8.3-4-11.9-1.9s-7,8-12.2,5.7-8.5-1-14.4,4.7l-1,8.8.3,1.3c3.1-.2,17.9-1.3,21.8-2.2S124.4,172.2,130.4,176.2Z"/><path class="n" d="M105.7,128.6l.3,9.6s2.4,10.8,13.5,5.6a2.1,2.1,0,0,0,1.1-1.9l-.8-13.7Z"/><path class="j" d="M106.3,113l.8,17.2v2.4c5.8,8.8,14.7,9.3,17.4,6.1s4.5-26.3,4.5-26.3Z"/><path class="o" d="M106.8,104.2c2.4-4.7,18.6-2.9,23.3,4.1,3.6,5.4.9,10.5-3.1,12-5.7,2-12.5-3.3-12.5-3.3l-2.1,3.3a18.4,18.4,0,0,0-2.1,7.6c-.1,1.1-2.5,1.8-3.1.9l-1.3-3.6v11a94.4,94.4,0,0,1-5.9-15.9h0C94.3,102.7,106.8,104.2,106.8,104.2Z"/><path class="j" d="M103.8,121.8c-1.7,1.9-.9,6.5,3.3,8.4l.4-7.8A2.3,2.3,0,0,0,103.8,121.8Z"/><polygon class="aw" points="131.4 159.2 132.6 158.4 142.9 174.7 141.8 175.4 131.4 159.2"/><path class="j" d="M122.8,173.8l.8-.8h.1l6.6-5.7a2,2,0,0,1,1.1-.3l11.7,2.7.5.3h0a1.3,1.3,0,0,1-.2,2l-1.2.5-.7.2-4-.8a1.1,1.1,0,0,0-.8.2,61.4,61.4,0,0,1-10.2,5.7,1.1,1.1,0,0,1-1.4-.5Z"/><path class="aa" d="M125.3,169c-11,5.1-19.3,8.4-25.6,11.1,2-9.7,4.1-22.1,3.5-27.1a6.8,6.8,0,0,0-3.2-5.2c-8.7-5-12.7,10-14.1,13.9a69.6,69.6,0,0,0-3.5,13.2,43.6,43.6,0,0,0,.1,16.5,12.2,12.2,0,0,0,4.3,6.5c8.1,2.2,43.3-17.6,43.3-17.6Z"/><path class="ax" d="M63.3,307.1a13.2,13.2,0,0,0,3.9-4.2,31.7,31.7,0,0,0,1.5-3.7,25.8,25.8,0,0,0,1.6-7.7c.1-2-.3-3.9.1-5.8a18.8,18.8,0,0,1,1.7-4.7,19.3,19.3,0,0,0,1.6-6.7,34.1,34.1,0,0,0-.5-4.6,67.5,67.5,0,0,1-.9-12.1,15.2,15.2,0,0,0-.3-4.8,21.3,21.3,0,0,1-1,4.2,25.7,25.7,0,0,1-3.1,6.2c-2.4,3.7-5,7.1-7.2,11A36.5,36.5,0,0,0,56,287.4c-.3,2.2-.3,4.4-.8,6.6-1.3,5.8-5.9,9.7-6.7,15.5a21.7,21.7,0,0,0-.2,3.6c0,1.5-.4,7,.7,6.6s1.7-1.9,2.3-2.5l2.3-2.3,4.9-4C60,309.7,62.1,308.7,63.3,307.1Z"/><path class="ay" d="M54.2,309a34.1,34.1,0,0,0,6.1-11.5,47.2,47.2,0,0,0,1.9-6.7c.5-2.2.8-4.5,1.2-6.9a35.9,35.9,0,0,1,.8-3.5,20.1,20.1,0,0,1,1-3.5,64.4,64.4,0,0,1,2.5-6.6c.9-2.1,1.7-4.2,2.4-6.4a26.5,26.5,0,0,0,1.5-6.9,29,29,0,0,1-1,7.1,53,53,0,0,1-2.3,6.7c-.8,2.2-1.6,4.3-2.3,6.5s-.7,2.2-.9,3.3-.5,2.3-.7,3.5-.8,4.6-1.3,7A54.9,54.9,0,0,1,61,298a32.3,32.3,0,0,1-3,6.2A20.6,20.6,0,0,1,54.2,309Z"/><path class="az" d="M73.6,286.7a16.3,16.3,0,0,0-4.7,2c-3.7,2.7-4,8.3-6.8,12.1s-5.5,4.5-7.5,7.3a21.5,21.5,0,0,0-2.4,5.1l-2.1,5.7a116.8,116.8,0,0,0,23.5-8.8,11.7,11.7,0,0,0,3.8-2.4c2-2.1,2.6-5.2,2.7-8.2s-.3-5,.5-7.4c1.4-4,4.9-5.3,7.7-7.9C84.1,283.4,77.7,285.6,73.6,286.7Z"/><path class="ay" d="M82.9,286.1l-4.1,2.3a21.6,21.6,0,0,0-3.7,2.9,11.9,11.9,0,0,0-2.5,3.8,32.2,32.2,0,0,0-1.4,4.4,21.8,21.8,0,0,1-.9,2.3,22.6,22.6,0,0,1-1.1,2.2,17.9,17.9,0,0,1-3.1,3.6,40.9,40.9,0,0,1-7.8,5.5l3.7-2.9a35.2,35.2,0,0,0,3.5-3.1,17.6,17.6,0,0,0,2.9-3.7c.3-.6.7-1.3,1-2s.5-1.4.8-2.2.9-3,1.5-4.5a12.8,12.8,0,0,1,2.9-4C77,288.5,80,287.3,82.9,286.1Z"/><path class="ba" d="M43.8,292.2a18.2,18.2,0,0,0-8.7-8c-5.1-2.2-11.4-1.2-16-4.4-.9-.6-1.7-1.4-2.7-2s-4.8-1.4-7.4-1.4a1.8,1.8,0,0,0-1,.2c-.2.1-.3.4-.4.6A4.6,4.6,0,0,0,9,281.6c1.1,1.2,2.6,2,3.8,3.1a14.1,14.1,0,0,1,3.8,7.1,57.9,57.9,0,0,1,1.2,8.2,8.8,8.8,0,0,0,.7,3.2,9.3,9.3,0,0,0,3.6,3.5,36.4,36.4,0,0,0,7.7,3.7c5.7,1.9,12.2,2.6,16.6,6.7l1.4,1.3a4.9,4.9,0,0,0,3.5.9c.4-1.6-.3-3.2-.8-4.7-1.5-3.8-1.8-7.7-2.6-11.7A31.7,31.7,0,0,0,43.8,292.2Z"/><path class="bb" d="M45.7,261.8a24.2,24.2,0,0,1,4.8,15.3c-.2,4.9-1.9,9.9-.5,14.7.7,2.3,2.1,4.4,2.4,6.8.8,5.6-4.6,10.5-4.8,16.2-1.1-.2-1.7-1.4-2.2-2.3-1.6-2.7-4.5-4.2-6.9-6.2a20.7,20.7,0,0,1-7.4-14c-.5-6.4,2.1-12.9,1.4-19.3-.3-2.2-.9-4.4-1.3-6.6a28.4,28.4,0,0,1,0-9.2c.4-2.5,1.1-7,3.1-8.7C37.7,253.3,42.2,257.1,45.7,261.8Z"/><path class="bc" d="M55.1,274.2a23.7,23.7,0,0,0-2.9,3.4,10.1,10.1,0,0,0-1.3,3.8,21.5,21.5,0,0,0-.1,6.7,18.6,18.6,0,0,1,.4,3.4c-.3,4.3-5.1,6.9-5.1,11.3a16.5,16.5,0,0,0,.9,4.3c1.2,4,2.6,8,4.2,11.9a22.4,22.4,0,0,1,1.6-5c.4-1,1-2,1.5-3,1.2-2.9.9-6.3.1-9.4a5.7,5.7,0,0,1-.4-2.9,4.9,4.9,0,0,1,.8-1.8c1.3-1.9,3.2-3.2,4.7-4.8a14,14,0,0,0,2.8-5.9,20.5,20.5,0,0,0,1-5.4,22.8,22.8,0,0,0-.9-5.1c-1.2-4.1-2-8.6-3.6-12.5-.7,1.4-.3,3.4-.7,5A13.6,13.6,0,0,1,55.1,274.2Z"/><path class="ay" d="M35,256.9c1.2,4.6,2.9,9.1,3.8,13.8a35.1,35.1,0,0,1,.7,7.2c.1,2.4.1,4.8.1,7.2s0,2.3.1,3.5.2,2.4.4,3.5a34,34,0,0,0,.7,3.4c.3,1.1.7,2.3,1.1,3.4A135.7,135.7,0,0,0,47.5,312a64.5,64.5,0,0,1-6.8-12.7,34.2,34.2,0,0,1-1.3-3.4c-.3-1.2-.6-2.4-.8-3.6a43.6,43.6,0,0,1-.5-7.2c0-2.4.1-4.8.2-7.2a32.5,32.5,0,0,0-.5-7C37.1,266.2,35.8,261.6,35,256.9Z"/><path class="ay" d="M14,281.7a34.5,34.5,0,0,1,10.5,6.4,19,19,0,0,1,4.1,4.8c1.1,1.7,2,3.6,3,5.4a28.5,28.5,0,0,0,3,5.1,20.9,20.9,0,0,0,4.3,4.1l4.9,3.7a15.2,15.2,0,0,1,2.2,2.2,11.4,11.4,0,0,1,1.8,2.5,11,11,0,0,0-2.1-2.2,15.5,15.5,0,0,0-2.4-1.9c-1.6-1.2-3.4-2.2-5.1-3.3l-1.3-.9-1.2-1a23.9,23.9,0,0,1-2.2-2.3,29.3,29.3,0,0,1-3.3-5.3c-.9-1.8-1.8-3.7-2.8-5.4a27.3,27.3,0,0,0-3.7-4.7A49.9,49.9,0,0,0,14,281.7Z"/><path class="ay" d="M58.6,274.3a41.8,41.8,0,0,1-1.6,10c-.9,3.3-2.1,6.4-3.2,9.6s-1.9,6.4-2.6,9.7a78.6,78.6,0,0,0-1.6,9.9,48.6,48.6,0,0,1,.8-10.1,67.1,67.1,0,0,1,2.5-9.8c1-3.2,2.2-6.3,3.3-9.5A53.9,53.9,0,0,0,58.6,274.3Z"/><path class="bd" d="M63.5,356.4H38.9a2.9,2.9,0,0,1-2.9-2.9l-4.8-34.2a2.9,2.9,0,0,1,2.8-2.9H68.3a2.9,2.9,0,0,1,2.9,2.9l-4.8,34.2A2.9,2.9,0,0,1,63.5,356.4Z"/><path class="g" d="M221,225.7l7.5-1.1h.1v6.8h-8v-5.7h.3Z"/><path class="g" d="M214.3,226.7l5.6-.8h.1v5.6h-5.9a.1.1,0,0,1-.1-.1v-4.9h.3Z"/><path class="g" d="M214.1,232.4H220V238H220l-5.9-.7H214v-4.8Z"/><path class="g" d="M221.1,232.4h7.6v6.8c0,.1,0,.1-.1.1l-7.8-1.1h0v-5.6h.4Z"/><path class="be" d="M221.3,231.6v-5.8h-.6v5.7h.6Z"/><path class="be" d="M214.6,231.7v-5H214v4.9a.1.1,0,0,0,.1.1h.5Z"/><path class="bf" d="M220,232.3h0Z"/><path class="be" d="M214.6,237.4v-5H214v4.8h.6Z"/><path class="be" d="M221.4,238.3v-5.8h-.6v5.6h.6Z"/></g></svg>