<svg xmlns="http://www.w3.org/2000/svg" xmlns:xlink="http://www.w3.org/1999/xlink" viewBox="0 0 400 400"><defs><style>.a{fill:url(#a);}.b{font-size:27.72px;font-family:AdobeArabic-Regular, Adobe Arabic;}.c{fill:#eeac1f;}.d{fill:#fcda00;}.e{fill:#db9927;}.f{fill:#efaa1e;}.g{fill:#0e71bb;}.h{fill:url(#b);}.i{fill:#e1e1e1;}.j{fill:#1f364c;}.k{fill:#ffe7cb;}.l{fill:#21e2e2;}.m{fill:#f59b6b;}.n{fill:#4ea4f9;}.o{fill:#fff;}.p{fill:#28aae1;}.q{fill:#f0d2b9;}</style><linearGradient id="a" x1="226.93" y1="351.05" x2="178.03" y2="73.78" gradientUnits="userSpaceOnUse"><stop offset="0" stop-color="#c6e6ff"/><stop offset="1" stop-color="#fff"/></linearGradient><linearGradient id="b" x1="103.69" y1="128.47" x2="178.02" y2="128.47" gradientUnits="userSpaceOnUse"><stop offset="0" stop-color="#44989f"/><stop offset="0.21" stop-color="#39b0b4"/><stop offset="0.52" stop-color="#2ccbcd"/><stop offset="0.8" stop-color="#24dcdd"/><stop offset="1" stop-color="#21e2e2"/></linearGradient></defs><title>buy-dedicated-server</title><path class="a" d="M261.8,334.7c-76,42.2-171.8,25.2-226.8-42C19.8,274.2,9.6,254.2,9.9,234.1c.8-76.2,74.8-69.1,133.3-67.4S231.7,46.3,295.9,55.4s124.2,107.5,84.7,181.8C361.8,272.6,310.5,307.7,261.8,334.7Z"/><text class="b" transform="translate(148 -34.8)">*<tspan x="8.1" y="0">ناریا یصاصتخا روس دیرخ</tspan></text><path class="c" d="M122.5,338c0,8.2,32.7,14.8,73,14.8s72.9-6.6,72.9-14.8V324.7H122.5Z"/><path class="d" d="M268.4,324.7c0,8.2-32.6,14.8-72.9,14.8s-73-6.6-73-14.8,32.7-14.8,73-14.8S268.4,316.5,268.4,324.7Z"/><path class="e" d="M195.5,337.8h-1.2c-.2,0-.3-.1-.3-.2s.1-.2.3-.2h2.4c.2,0,.3.1.3.2s-.1.2-.3.2Zm-3.7,0h-2.5c-.1-.1-.2-.2-.2-.3a.2.2,0,0,1,.2-.2h2.5c.1,0,.2.1.2.3Zm7.4,0-.2-.2c0-.2.1-.3.2-.3h2.5a.2.2,0,1,1,0,.4Zm-12.4-.1h-2.4c-.2,0-.3-.1-.3-.2s.1-.2.3-.2h2.4c.2,0,.3.1.3.2S187,337.7,186.8,337.7Zm17.4,0c-.2,0-.3-.1-.3-.2a.2.2,0,0,1,.2-.2h2.5c.2,0,.3.1.3.2s-.1.2-.3.2Zm-22.3-.2h-2.5a.2.2,0,0,1-.2-.2l.2-.2h2.5a.2.2,0,1,1,0,.4Zm27.2,0a.2.2,0,0,1-.2-.2c-.1-.1.1-.2.2-.2h2.5l.2.2a.2.2,0,0,1-.2.2Zm-32.2-.2h-2.4q-.3-.1-.3-.3l.3-.2,2.5.2a.2.2,0,0,1,.2.2C177.2,337.2,177.1,337.3,176.9,337.3Zm37.1,0-.2-.2a.2.2,0,0,1,.2-.2l2.5-.2.3.2c0,.1-.1.2-.3.2l-2.4.2Zm-42-.3h0l-2.5-.2-.2-.2c0-.2.1-.3.3-.2H172q.3.2.3.3Zm47,0-.3-.2a.3.3,0,0,1,.3-.3l2.4-.2c.2,0,.3.1.3.2s-.1.3-.2.3l-2.5.2Zm-51.9-.4H167l-2.4-.3c-.2,0-.2-.1-.2-.2a.2.2,0,0,1,.2-.2l2.5.2.2.3A.2.2,0,0,1,167.1,336.6Zm56.8,0a.2.2,0,0,1-.2-.2c0-.1.1-.3.2-.3l2.4-.2c.2,0,.3.1.3.2l-.2.2-2.5.3Zm-61.7-.5h-.1l-2.4-.3c-.2,0-.3-.1-.2-.3s.1-.2.2-.1l2.5.2.2.3A.2.2,0,0,1,162.2,336.1Zm66.6,0a.2.2,0,0,1-.2-.2l.2-.3,2.5-.3a.2.2,0,0,1,.2.2c.1.2,0,.3-.2.3l-2.4.3Zm-71.5-.6h-.1l-2.4-.4c-.2,0-.3-.1-.2-.2a.2.2,0,0,1,.2-.2l2.5.3c.1.1.2.2.2.3A.2.2,0,0,1,157.3,335.5Zm76.4,0a.2.2,0,0,1-.2-.2c0-.1.1-.2.2-.3l2.4-.3c.2,0,.3,0,.3.2s0,.2-.2.2l-2.4.4Zm-81.3-.7h-.1l-2.4-.5-.2-.2c0-.1.1-.2.3-.2l2.4.4c.1,0,.2.2.2.3Zm86.2-.1h-.2c0-.2,0-.3.2-.3l2.4-.4c.1,0,.3,0,.3.2l-.2.2-2.4.4Zm-91.1-.8h0l-2.5-.5c-.1-.1-.2-.2-.1-.3s.1-.2.3-.2l2.4.5.2.3Zm96,0-.3-.2.2-.3,2.4-.5c.1,0,.3.1.3.2s0,.2-.2.3l-2.4.5Zm-100.8-1.1h-.1l-2.3-.6c-.2-.1-.2-.2-.2-.3l.3-.2,2.4.7a.2.2,0,0,1,.2.2Zm105.6,0-.3-.2a.2.2,0,0,1,.2-.2l2.4-.7.3.2c0,.1,0,.2-.2.3l-2.4.6ZM138,331.5h-.1l-2.3-.9c-.1,0-.2-.1-.1-.3s.2-.1.3-.1l2.3.8c.1.1.2.2.1.3A.2.2,0,0,1,138,331.5Zm115,0a.2.2,0,0,1-.2-.2c-.1-.1,0-.2.1-.3l2.3-.8c.1,0,.3,0,.3.1a.2.2,0,0,1-.1.3l-2.3.8A.1.1,0,0,0,253,331.5Zm-119.5-1.8h-.2l-2.1-1.2a.2.2,0,0,1,0-.3c.1-.1.2-.2.3-.1l2.1,1.2c.1,0,.1.2.1.3Zm124,0a.2.2,0,0,1-.2-.2c-.1-.1,0-.2.1-.3a10.3,10.3,0,0,0,2.1-1.1.2.2,0,0,1,.3,0c.1.1.1.3,0,.3l-2.2,1.2ZM129.6,327h-.2a3.2,3.2,0,0,1-.9-2.1c0-.2.1-.3.2-.3h0a.3.3,0,0,1,.3.3,2.9,2.9,0,0,0,.8,1.8c.1.1.1.3,0,.3Zm131.8-.1h-.2a.2.2,0,0,1,0-.3,3,3,0,0,0,.7-1.9h0c0-.1.1-.2.3-.2h0a.2.2,0,0,1,.2.2h0a4,4,0,0,1-.8,2.2Zm-131.9-4h-.1c-.1-.1-.2-.2-.1-.3a14.5,14.5,0,0,1,1.8-1.6.3.3,0,0,1,.4,0c.1.1,0,.3-.1.4a6.3,6.3,0,0,0-1.7,1.5Zm131.8-.1c-.1,0-.2,0-.2-.1a6.1,6.1,0,0,0-1.7-1.4c-.2-.1-.2-.3-.1-.3s.2-.2.4-.1a9.3,9.3,0,0,1,1.8,1.6c.1.1,0,.2-.1.3Zm-127.9-2.6h-.3a.4.4,0,0,1,.1-.3l2.3-1h.3a.2.2,0,0,1-.1.3l-2.2,1Zm124-.1h-.1l-2.2-.9c-.1-.1-.2-.2-.1-.3a.2.2,0,0,1,.3-.1l2.2.9c.1.1.2.2.1.3S257.5,320.1,257.4,320.1Zm-119.5-1.7h-.3c0-.1.1-.3.2-.3l2.3-.7c.2-.1.3,0,.4.1s-.1.3-.2.3l-2.3.7Zm115,0h-.1l-2.3-.7c-.2,0-.2-.1-.2-.2s.2-.2.3-.2l2.4.7c.1.1.2.2.1.3A.2.2,0,0,1,252.9,318.4Zm-110.3-1.3a.2.2,0,0,1-.2-.2c-.1-.1,0-.2.1-.3l2.4-.5c.2-.1.3,0,.3.1s0,.3-.2.3l-2.3.6Zm105.6-.1h-.1l-2.4-.5c-.1-.1-.2-.2-.2-.3l.3-.2,2.4.6c.2,0,.2.1.2.3S248.3,317,248.2,317Zm-100.8-1-.2-.2c-.1-.1,0-.2.1-.2l2.5-.5c.1,0,.2,0,.3.2a.2.2,0,0,1-.2.2l-2.5.5Zm96,0h-.1l-2.4-.5c-.2,0-.2-.1-.2-.3s.1-.2.3-.1l2.4.4c.1,0,.2.2.2.3A.2.2,0,0,1,243.4,316Zm-91.2-.9a.2.2,0,0,1-.2-.2l.2-.2,2.4-.4c.2,0,.3.1.3.2s0,.2-.2.2l-2.4.4Zm86.3,0h0l-2.5-.4c-.1,0-.2-.1-.2-.3a.2.2,0,0,1,.3-.1l2.4.3c.2.1.3.2.2.3A.2.2,0,0,1,238.5,315.1Zm-81.4-.7a.2.2,0,0,1-.2-.2l.2-.3,2.4-.3c.2,0,.3.1.3.2s0,.2-.2.3l-2.4.3Zm76.5,0h0l-2.5-.4a.2.2,0,0,1-.2-.2c0-.1.1-.2.3-.2l2.5.3c.1,0,.2.2.2.3Zm-71.6-.6-.2-.2c0-.1.1-.2.2-.3l2.5-.2c.1,0,.2,0,.2.2s0,.2-.2.2l-2.4.3Zm66.7,0h0l-2.5-.3a.2.2,0,0,1-.2-.2c0-.2.1-.3.3-.2l2.4.2a.3.3,0,0,1,.3.3Zm-61.7-.5c-.2,0-.3-.1-.3-.2s.1-.3.2-.3l2.5-.2c.1,0,.3.1.3.2a.3.3,0,0,1-.3.3l-2.4.2Zm56.8,0h0l-2.5-.3a.2.2,0,0,1-.2-.2c0-.1.1-.2.3-.2l2.4.2c.2,0,.3.1.2.3Zm-51.9-.4c-.1,0-.3-.1-.3-.2a.3.3,0,0,1,.3-.3h2.4c.2-.1.3,0,.3.2a.2.2,0,0,1-.2.2l-2.5.2Zm47,0h-.1l-2.4-.2c-.2,0-.3-.1-.3-.2s.2-.3.3-.2h2.5c.1,0,.2.1.2.3A.2.2,0,0,1,218.9,312.9Zm-42.1-.3c-.1,0-.2-.1-.2-.3a.2.2,0,0,1,.2-.2h2.5a.2.2,0,0,1,0,.4l-2.5.2Zm37.1-.1h-2.5a.2.2,0,0,1-.2-.2c0-.1.1-.2.3-.2h2.4c.2,0,.3.1.3.2S214.1,312.5,213.9,312.5Zm-32.1-.2c-.2,0-.3-.1-.3-.2s.1-.2.3-.2h2.4c.1,0,.3.1.3.2s-.1.2-.3.2Zm27.2,0h-2.5a.2.2,0,0,1,0-.4H209a.2.2,0,0,1,.2.2Zm-22.3-.1c-.1,0-.2-.1-.2-.3l.2-.2h2.5a.2.2,0,1,1,0,.4Zm17.3,0h-2.4c-.2,0-.3-.1-.3-.2s.1-.2.3-.2H204c.2,0,.3.1.3.2A.3.3,0,0,1,204,312.2Zm-12.3-.1a.3.3,0,0,1-.3-.3c0-.1.1-.2.3-.2h2.4c.2,0,.3.1.3.2s-.1.2-.3.2Zm7.4,0h-2.5c-.1,0-.2,0-.2-.2a.2.2,0,0,1,.2-.2h2.5a.2.2,0,0,1,.2.2C199.3,312,199.2,312.1,199.1,312.1Z"/><ellipse class="c" cx="195.5" cy="324.7" rx="61.3" ry="10.7"/><path class="e" d="M135.4,326.9c5.7-4.9,30.4-8.6,60.1-8.6s54.3,3.7,60.1,8.6a3.1,3.1,0,0,0,1.2-2.2c0-5.9-27.5-10.7-61.3-10.7s-61.4,4.8-61.4,10.7A2.9,2.9,0,0,0,135.4,326.9Z"/><path class="e" d="M175.7,330.4c-2.7-.6-4.4-1.3-5.3-2.2H167a17.3,17.3,0,0,1-3.6-.3c-.9-.2-1.3-.4-1.3-.7s.4-.5,1.3-.7a17.3,17.3,0,0,1,3.6-.3h3.2q.9-1.6,4.5-2.7l1.8-.4h2.6l3.7.2c1,.2,1.6.4,1.6.6s-.1.3-.3.4l-1.1.4a13.1,13.1,0,0,0-2.4,1.2,1.5,1.5,0,0,0-.7,1.2c0,.5.4.9,1.2,1.1a12.5,12.5,0,0,0,3.8.4l2.4-.2,1.5-.6,1.4-1a21.1,21.1,0,0,1,2.7-1.8,18.9,18.9,0,0,1,4.4-1.2,51.5,51.5,0,0,1,7.8-.5,56.6,56.6,0,0,1,9.9.8c2.7.6,4.6,1.3,5.5,2.1H224a16.9,16.9,0,0,1,3.5.3c.9.2,1.4.5,1.4.7s-.5.6-1.4.8a16.2,16.2,0,0,1-3.5.3h-3.3c-.6.7-2.1,1.5-4.5,2.3a5.2,5.2,0,0,1-1.8.3l-2.6.2a18.6,18.6,0,0,1-3.6-.3c-1.1-.2-1.6-.4-1.6-.6s.1-.2.3-.3l1.1-.5,1.1-.4a5.8,5.8,0,0,0,1.4-.8.9.9,0,0,0,.6-.8c0-.5-.5-.8-1.4-1.1a17.3,17.3,0,0,0-3.7-.4,9.4,9.4,0,0,0-3.4.5,9.5,9.5,0,0,0-2.3,1.4,14.4,14.4,0,0,1-2.5,1.8,21.8,21.8,0,0,1-4.3,1.2,55.6,55.6,0,0,1-8,.5A54.6,54.6,0,0,1,175.7,330.4Z"/><path class="e" d="M253.1,333.8v13.3l1.5-.4V333.4Z"/><path class="e" d="M238.5,336.7V350l1.5-.2V336.5Z"/><path class="e" d="M223.9,338.4v13.3l1.5-.2V338.2Z"/><path class="e" d="M209.3,339.3v13.3h1.5V339.2Z"/><path class="e" d="M195.5,339.5h-.8v13.3h1.5V339.5Z"/><path class="e" d="M180.1,339.2v13.3h1.5V339.3Z"/><path class="e" d="M165.6,338.2v13.3l1.4.2V338.4Z"/><path class="e" d="M151,336.5v13.3l1.4.2V336.7Z"/><path class="e" d="M136.4,333.4v13.3l1.4.4V333.8Z"/><path class="c" d="M133,324.7c0,8.1,32.7,14.8,73,14.8s73-6.7,73-14.8V311.3H133Z"/><ellipse class="d" cx="206" cy="311.3" rx="73" ry="14.8"/><path class="e" d="M206,324.5h-1.2a.2.2,0,0,1,0-.4h2.5a.2.2,0,0,1,0,.4Zm-3.7-.1h-2.4c-.2,0-.3-.1-.3-.2s.1-.2.3-.2h2.4c.2,0,.3.1.3.2S202.5,324.4,202.3,324.4Zm7.5,0c-.2,0-.3-.1-.3-.2s.1-.2.3-.2h2.4a.3.3,0,0,1,.3.3c0,.1-.1.2-.3.2Zm-12.4-.1h-2.5c-.1,0-.2-.1-.2-.3a.2.2,0,0,1,.2-.2h2.5a.2.2,0,0,1,.2.2Zm17.3,0-.2-.2a.2.2,0,0,1,.2-.2h2.5a.2.2,0,0,1,.2.2c0,.2-.1.3-.2.3Zm-22.3-.1H190a.3.3,0,0,1-.3-.3c0-.1.1-.2.3-.2h2.4a.3.3,0,0,1,.3.3C192.7,324.1,192.6,324.2,192.4,324.2Zm27.3,0c-.2,0-.3-.1-.3-.2s.1-.3.2-.3h2.5c.2,0,.3.1.3.2a.3.3,0,0,1-.3.3Zm-32.2-.3H185l-.2-.2c0-.2.1-.3.2-.2h2.5c.1,0,.3.1.2.2S187.6,323.9,187.5,323.9Zm37.1,0c-.1,0-.2,0-.2-.2s0-.2.2-.2h2.5c.1-.1.2,0,.2.2l-.2.2Zm-42-.3h-.1l-2.4-.2c-.2,0-.3-.1-.3-.2l.3-.2,2.5.2.2.2A.2.2,0,0,1,182.6,323.6Zm46.9,0a.2.2,0,0,1-.2-.2l.2-.2,2.5-.2a.2.2,0,0,1,.2.2c.1.1,0,.2-.2.2l-2.4.2Zm-51.9-.4h0l-2.5-.2c-.1,0-.2-.1-.2-.3s.1-.2.3-.2l2.5.3a.2.2,0,0,1,.2.2C177.9,323.1,177.8,323.2,177.6,323.2Zm56.9,0c-.2,0-.3-.1-.3-.2a.2.2,0,0,1,.2-.2l2.5-.3c.2,0,.3.1.3.2s-.1.3-.2.3l-2.5.2Zm-61.8-.5h0l-2.5-.3a.2.2,0,0,1-.2-.2l.3-.2,2.4.3c.2,0,.3.1.3.2S172.8,322.7,172.7,322.7Zm66.7,0-.3-.2c0-.1.1-.2.3-.2l2.4-.3.3.2a.2.2,0,0,1-.2.2l-2.5.3Zm-71.6-.6h0l-2.5-.3c-.1,0-.2-.2-.2-.3s.2-.2.3-.2l2.4.4c.2,0,.3.1.2.2S167.9,322.1,167.8,322.1Zm76.5,0-.3-.2c0-.1.1-.2.3-.2l2.4-.4c.1,0,.3.1.3.2s-.1.3-.2.3l-2.5.3Zm-81.4-.7h0l-2.5-.4c-.1,0-.2-.2-.2-.3l.3-.2,2.5.5a.2.2,0,0,1,.2.2Zm86.3,0-.3-.2a.2.2,0,0,1,.2-.2l2.5-.5.2.2c.1.1,0,.2-.1.3l-2.5.4Zm-91.1-.9H158l-2.4-.5c-.1,0-.2-.1-.2-.3h.3l2.4.5c.2,0,.2.1.2.3S158.2,320.5,158.1,320.5Zm95.9,0a.2.2,0,0,1-.2-.2c0-.1,0-.2.2-.2l2.4-.5c.1-.1.2,0,.3.1s-.1.3-.2.3l-2.4.5Zm-100.7-1c-.1,0-.1,0-.1-.1l-2.4-.6c-.1,0-.2-.1-.1-.3s.1-.1.3-.1l2.3.6c.2.1.2.2.2.3A.2.2,0,0,1,153.3,319.5Zm105.5-.1h-.2c0-.1,0-.3.2-.3l2.3-.6c.2-.1.3,0,.3.1a.2.2,0,0,1-.1.3l-2.4.6Zm-110.3-1.3h0l-2.4-.8a.4.4,0,0,1-.1-.3c.1-.1.2-.2.3-.1l2.3.8c.2,0,.2.2.2.3Zm115,0h-.2c0-.2,0-.3.2-.3l2.2-.8c.2-.1.3,0,.4.1s0,.2-.2.3l-2.3.8ZM144,316.3h-.1l-2.1-1.2c-.1-.1-.2-.2-.1-.3a.3.3,0,0,1,.4,0l2,1.1c.2.1.2.2.1.3S144.1,316.3,144,316.3Zm124.1,0h-.3a.4.4,0,0,1,.1-.3l2.1-1.2h.4a.4.4,0,0,1-.1.3l-2.1,1.2Zm-127.9-2.7H140a3.5,3.5,0,0,1-.9-2.2c-.1-.1.1-.2.2-.2h0l.2.2a3.3,3.3,0,0,0,.9,1.9.4.4,0,0,1-.1.3Zm131.7,0a.1.1,0,0,1-.1-.1.2.2,0,0,1-.1-.3,2.9,2.9,0,0,0,.8-1.9h0c0-.2.1-.3.2-.3h0c.2,0,.3.1.3.2v.2a3.2,3.2,0,0,1-.9,2.1C272.1,313.6,272,313.6,271.9,313.6Zm-131.8-4h-.2a.3.3,0,0,1,0-.4,10,10,0,0,1,1.8-1.6h.3a.2.2,0,0,1,0,.3,8.6,8.6,0,0,0-1.7,1.5Zm131.7-.1h-.2a8.6,8.6,0,0,0-1.7-1.5.2.2,0,0,1,0-.3c0-.1.2-.1.3-.1a10,10,0,0,1,1.8,1.6.2.2,0,0,1,0,.3Zm-127.9-2.6a.2.2,0,0,1-.2-.2c-.1-.1,0-.2.1-.3l2.2-.9c.2-.1.3,0,.4.1s0,.2-.2.3l-2.2.9Zm124.1-.1h-.2a11.2,11.2,0,0,0-2.2-1,.2.2,0,0,1-.1-.3h.3l2.3,1c.1,0,.1.2.1.3Zm-119.6-1.7a.2.2,0,0,1-.2-.2.4.4,0,0,1,.1-.3l2.4-.7c.1,0,.3,0,.3.2s0,.2-.1.2l-2.4.8Zm115-.1h-.1l-2.3-.7c-.1,0-.2-.2-.2-.3s.2-.2.4-.1l2.3.7c.1,0,.2.1.2.3Zm-110.3-1.3h-.2c0-.2,0-.3.2-.3l2.4-.6.3.2a.2.2,0,0,1-.2.2l-2.4.6Zm105.6,0h-.1l-2.3-.6c-.2,0-.3-.1-.2-.3s.1-.2.3-.1l2.4.5c.1.1.2.2.1.3A.2.2,0,0,1,258.7,303.7Zm-100.8-1.1c-.1,0-.2,0-.2-.1s.1-.3.2-.3l2.4-.5c.2,0,.3.1.3.2s0,.2-.2.3l-2.4.4Zm96,0h-.1l-2.4-.5a.2.2,0,0,1-.2-.2l.3-.2,2.5.5c.1,0,.2.1.1.2A.2.2,0,0,1,253.9,302.6Zm-91.1-.8a.2.2,0,0,1-.2-.2c-.1-.1,0-.3.2-.3l2.4-.4c.1,0,.3.1.3.2s-.1.3-.2.3l-2.5.4Zm86.3-.1H249l-2.4-.4c-.2,0-.3-.1-.2-.2s.1-.2.3-.2l2.4.4a.2.2,0,0,1,.2.2C249.3,301.7,249.2,301.7,249.1,301.7Zm-81.4-.7c-.1,0-.2,0-.3-.2a.2.2,0,0,1,.2-.2l2.5-.3c.1,0,.3,0,.3.2a.2.2,0,0,1-.2.2l-2.5.3Zm76.5,0h-.1l-2.4-.3c-.2,0-.2-.1-.2-.3s.1-.2.3-.2l2.4.4a.2.2,0,1,1,0,.4Zm-71.6-.6-.3-.2c0-.1.1-.2.3-.2l2.4-.3c.2,0,.3.1.3.2s-.1.2-.2.3l-2.5.2Zm66.7,0h-.1l-2.4-.3c-.2,0-.3-.1-.2-.2a.2.2,0,0,1,.2-.2l2.5.3a.2.2,0,0,1,0,.4Zm-61.8-.5a.2.2,0,0,1-.2-.2c-.1-.1,0-.2.2-.2l2.4-.2c.2,0,.3,0,.3.2a.2.2,0,0,1-.2.2l-2.5.2Zm56.8,0h0l-2.4-.2c-.2,0-.3-.1-.3-.2s.2-.3.3-.2l2.5.2a.2.2,0,0,1,.2.2C234.6,299.8,234.5,299.9,234.3,299.9Zm-51.9-.4-.2-.2a.2.2,0,0,1,.2-.2l2.5-.2.3.2c0,.1-.1.2-.3.2l-2.4.2Zm47,0h0l-2.5-.2-.2-.2c0-.1.1-.2.3-.2l2.4.2c.2,0,.3.1.3.2Zm-42-.3c-.2,0-.3-.1-.3-.2s.1-.2.3-.2l2.4-.2c.2,0,.3.1.3.2s-.1.3-.2.3Zm37.1,0H222c-.1,0-.2-.1-.2-.3a.2.2,0,0,1,.2-.2h2.5c.1.1.2.2.2.3A.2.2,0,0,1,224.5,299.2Zm-32.2-.2a.2.2,0,0,1-.2-.2c0-.2.1-.3.2-.3h2.5a.2.2,0,0,1,.2.2c0,.2-.1.3-.2.3Zm27.2,0h-2.4a.3.3,0,0,1-.3-.3c0-.1.1-.2.3-.2h2.4c.2,0,.3.1.3.2A.3.3,0,0,1,219.5,299Zm-22.2-.2c-.2,0-.3-.1-.3-.2s.1-.2.3-.2h2.4c.2,0,.3.1.3.2s-.1.2-.3.2Zm17.3,0h-2.5a.2.2,0,0,1,0-.4h2.5a.2.2,0,0,1,.2.2Zm-12.4-.1a.2.2,0,0,1,0-.4h2.5c.1,0,.2,0,.2.2a.2.2,0,0,1-.2.2Zm7.4,0h-2.4c-.2,0-.3-.1-.3-.2s.1-.2.3-.2h2.4c.2,0,.3.1.3.2S209.8,298.7,209.6,298.7Z"/><ellipse class="c" cx="206" cy="311.3" rx="61.3" ry="10.7"/><path class="e" d="M145.9,313.5c5.7-4.9,30.5-8.5,60.1-8.5s54.4,3.6,60.1,8.5a3.1,3.1,0,0,0,1.3-2.2c0-5.8-27.5-10.6-61.4-10.6s-61.3,4.8-61.3,10.6A2.9,2.9,0,0,0,145.9,313.5Z"/><path class="e" d="M186.3,317c-2.7-.5-4.5-1.2-5.3-2.1h-3.5a16.9,16.9,0,0,1-3.5-.3c-.9-.2-1.4-.5-1.4-.7s.5-.6,1.4-.8a16.9,16.9,0,0,1,3.5-.3h3.2c.7-1,2.2-1.9,4.6-2.7a4.8,4.8,0,0,1,1.8-.3l2.6-.2a20.5,20.5,0,0,1,3.7.3q1.5.3,1.5.6t-.3.3l-1,.5a6.5,6.5,0,0,0-2.4,1.2,1.3,1.3,0,0,0-.7,1.1q0,.8,1.2,1.2a15.9,15.9,0,0,0,3.7.4,7.8,7.8,0,0,0,2.4-.3,3.4,3.4,0,0,0,1.6-.6l1.4-1a13.3,13.3,0,0,1,7-2.9,42.9,42.9,0,0,1,7.9-.5,47.3,47.3,0,0,1,9.8.8c2.8.5,4.6,1.2,5.5,2.1h3.6a17.5,17.5,0,0,1,3.5.3c.9.2,1.3.4,1.3.7s-.4.5-1.3.7a16.9,16.9,0,0,1-3.5.3h-3.4c-.6.8-2.1,1.6-4.4,2.3l-1.9.4h-2.5a20.5,20.5,0,0,1-3.7-.3q-1.5-.2-1.5-.6l.3-.3,1-.5,1.2-.4a9.1,9.1,0,0,0,1.4-.7,1.4,1.4,0,0,0,.5-.9c0-.4-.4-.8-1.4-1a12.2,12.2,0,0,0-3.7-.4,10.1,10.1,0,0,0-3.4.4,7.2,7.2,0,0,0-2.2,1.5,10.6,10.6,0,0,1-2.6,1.7,13.3,13.3,0,0,1-4.3,1.2,54.5,54.5,0,0,1-8,.5A53.4,53.4,0,0,1,186.3,317Z"/><path class="e" d="M263.7,320.4v13.3l1.4-.3V320.1Z"/><path class="e" d="M249.1,323.3v13.3l1.4-.2V323.1Z"/><path class="e" d="M234.5,325v13.3h1.4V324.9Z"/><path class="e" d="M219.9,325.9v13.3h1.4V325.9Z"/><path class="e" d="M206,326.2h-.7v13.3h1.4V326.2Z"/><path class="e" d="M190.7,325.9v13.3h1.4V325.9Z"/><path class="e" d="M176.1,324.9v13.3h1.4V325Z"/><path class="e" d="M161.5,323.1v13.3l1.5.2V323.3Z"/><path class="e" d="M146.9,320.1v13.3l1.5.3V320.4Z"/><path class="f" d="M119.4,310.1c0,8.2,32.6,14.9,72.9,14.9s73-6.7,73-14.9V296.8H119.4Z"/><ellipse class="d" cx="192.3" cy="296.8" rx="73" ry="14.8"/><path class="e" d="M192.3,309.9h-1.2a.2.2,0,1,1,0-.4h2.5l.3.2c0,.1-.2.2-.3.2Zm-3.6,0h-2.5a.3.3,0,0,1-.3-.3c0-.1.2-.2.3-.2h2.5c.1,0,.2.1.2.3A.2.2,0,0,1,188.7,309.9Zm7.4,0c-.2,0-.3-.1-.3-.2a.3.3,0,0,1,.3-.3h2.5a.2.2,0,0,1,.2.2l-.2.3Zm-12.4-.1h-2.5a.2.2,0,0,1,0-.4h2.5c.2,0,.3.1.3.2Zm17.3,0-.2-.2a.2.2,0,0,1,.2-.2h2.5c.1,0,.3.1.3.2s-.1.2-.3.2Zm-22.2-.2h-2.5c-.2,0-.3-.1-.3-.2l.3-.2h2.5l.2.2A.2.2,0,0,1,178.8,309.6Zm27.2,0c-.2,0-.3-.1-.3-.2s.1-.2.3-.2h2.4c.2,0,.3.1.3.2a.2.2,0,0,1-.2.2Zm-32.2-.2h-2.5c-.1,0-.2-.2-.2-.3s.1-.2.3-.2l2.4.2c.2,0,.3.1.3.2S174,309.4,173.8,309.4Zm37.1,0a.2.2,0,0,1-.2-.2l.2-.2,2.5-.2a.2.2,0,0,1,.2.2c.1.1-.1.2-.2.3Zm-42-.3h0l-2.5-.2a.2.2,0,0,1-.2-.2c0-.2.1-.3.2-.2h2.5l.2.3A.2.2,0,0,1,168.9,309.1Zm47,0c-.2,0-.3-.1-.3-.2l.2-.3h2.5c.2-.1.3,0,.3.2a.2.2,0,0,1-.2.2l-2.5.2Zm-51.9-.4h-.1l-2.4-.2q-.3-.2-.3-.3l.3-.2,2.5.2c.1.1.2.2.2.3A.2.2,0,0,1,164,308.7Zm56.8,0-.3-.2q0-.2.3-.3l2.4-.2c.2,0,.3.1.3.2a.2.2,0,0,1-.2.2l-2.5.3Zm-61.8-.5h0l-2.5-.3a.2.2,0,0,1-.2-.2c.1-.2.2-.3.3-.2l2.5.3a.2.2,0,0,1,.2.2C159.3,308.1,159.2,308.2,159,308.2Zm66.7,0a.2.2,0,0,1-.2-.2c-.1-.1,0-.2.2-.3l2.4-.2c.2-.1.3,0,.3.1s-.1.3-.2.3l-2.5.3Zm-71.6-.6h0l-2.5-.4a.2.2,0,0,1-.2-.2l.3-.2,2.5.3.2.3C154.4,307.5,154.3,307.6,154.1,307.6Zm76.5,0a.2.2,0,0,1-.2-.2c0-.1,0-.2.2-.3l2.4-.3c.2,0,.3.1.3.2a.2.2,0,0,1-.2.2l-2.4.4Zm-81.4-.7h0l-2.4-.5c-.2,0-.3-.1-.2-.2s.1-.2.3-.2l2.4.4c.1,0,.2.2.2.3S149.4,306.9,149.2,306.9Zm86.3,0a.2.2,0,0,1-.2-.2c-.1-.1,0-.3.2-.3l2.4-.4c.1,0,.2,0,.3.2a.2.2,0,0,1-.2.2l-2.5.4Zm-91.1-.9h-.1l-2.4-.5c-.1-.1-.2-.2-.2-.3l.3-.2,2.4.5c.2.1.3.2.2.3A.2.2,0,0,1,144.4,306Zm96,0c-.2,0-.3-.1-.3-.2s.1-.2.2-.3l2.4-.5.3.2c0,.1,0,.2-.2.3l-2.4.5Zm-100.8-1.1h-.1l-2.4-.6c-.1-.1-.2-.2-.1-.3a.2.2,0,0,1,.3-.1l2.4.6c.1,0,.2.1.1.3Zm105.6,0c-.2,0-.3-.1-.3-.2a.2.2,0,0,1,.2-.2l2.4-.7.3.2c0,.1-.1.2-.2.3l-2.4.6Zm-110.3-1.3h-.1l-2.3-.9c-.2,0-.2-.1-.2-.3h.4a12.3,12.3,0,0,0,2.3.8c.1.1.2.2.1.3A.2.2,0,0,1,134.9,303.6Zm115,0-.3-.2.2-.3,2.3-.8h.3a.2.2,0,0,1-.1.3l-2.3.8Zm-119.6-1.8h-.1l-2.1-1.2a.2.2,0,0,1,0-.3.2.2,0,0,1,.3-.1l2.1,1.2c.1,0,.1.2.1.3Zm124.1,0h-.2c-.1-.2,0-.3.1-.3l2-1.2h.4a.2.2,0,0,1-.1.3,10.5,10.5,0,0,1-2.1,1.2A.1.1,0,0,1,254.4,301.8Zm-127.9-2.7c-.1,0-.2,0-.2-.1a3.2,3.2,0,0,1-.9-2.1c0-.2.1-.3.2-.3h0a.3.3,0,0,1,.3.3,2.9,2.9,0,0,0,.8,1.8c.1.1,0,.3-.1.4Zm131.7,0h-.1a.4.4,0,0,1-.1-.3,3.1,3.1,0,0,0,.8-1.9h0a.2.2,0,0,1,.2-.2h.1l.2.2h0a3.5,3.5,0,0,1-.9,2.2Zm-131.8-4h-.1c-.1-.1-.2-.2-.1-.3a7.3,7.3,0,0,1,1.8-1.6c.1-.1.3,0,.4,0a.6.6,0,0,1-.1.4,8.6,8.6,0,0,0-1.7,1.5Zm131.8-.2H258a6.6,6.6,0,0,0-1.8-1.4.2.2,0,0,1,0-.3c.1-.1.2-.2.3-.1a7.7,7.7,0,0,1,1.9,1.6.4.4,0,0,1-.1.3Zm-128-2.6H130a.4.4,0,0,1,.1-.3l2.3-1h.3c0,.1,0,.3-.1.3l-2.2,1Zm124.1-.1h-.1l-2.2-.9c-.2-.1-.2-.2-.2-.3s.2-.2.4-.1l2.2.9c.1.1.2.2.1.3Zm-119.5-1.7h-.3c0-.1,0-.3.2-.3l2.3-.7c.2-.1.3,0,.3.1a.2.2,0,0,1-.1.3l-2.4.7Zm115,0h-.1l-2.4-.8c-.1,0-.2-.1-.1-.2s.2-.2.3-.2l2.3.7c.2.1.2.2.2.3A.2.2,0,0,1,249.8,290.5Zm-110.3-1.3-.3-.2c0-.1.1-.2.2-.3l2.4-.5a.2.2,0,0,1,.3.1c0,.2,0,.3-.2.3l-2.4.6Zm105.5-.1h0l-2.4-.5c-.2-.1-.2-.2-.2-.3s.2-.2.3-.2l2.4.6c.1,0,.2.2.2.3Zm-100.7-1-.3-.2.2-.2,2.4-.5c.2,0,.3.1.3.2s0,.2-.2.2l-2.4.5Zm95.9,0h0l-2.4-.5c-.2,0-.3-.1-.2-.3s.1-.2.3-.1l2.4.4.2.3Zm-91.1-.9a.2.2,0,0,1-.2-.2c0-.1,0-.2.2-.2l2.4-.4c.2,0,.3.1.3.2l-.2.2-2.4.4Zm86.3,0h-.1l-2.4-.4-.2-.2c0-.2.1-.3.3-.2l2.4.3c.2.1.2.2.2.3A.2.2,0,0,1,235.4,287.2Zm-81.4-.7a.2.2,0,0,1-.2-.2c-.1-.1,0-.2.2-.3l2.4-.3c.2,0,.3.1.3.2s-.1.3-.2.3l-2.5.3Zm76.5,0h0l-2.5-.4a.2.2,0,0,1-.2-.2c0-.1.1-.2.3-.2l2.4.3c.2,0,.3.2.2.3A.2.2,0,0,1,230.5,286.5Zm-71.6-.6a.2.2,0,0,1-.2-.2c0-.1,0-.2.2-.3l2.4-.2c.2,0,.3.1.3.2a.2.2,0,0,1-.2.2l-2.5.3Zm66.7,0h0l-2.5-.3a.2.2,0,0,1-.2-.2c0-.2.1-.2.3-.2l2.4.2c.2,0,.3.1.2.3A.2.2,0,0,1,225.6,285.9Zm-61.8-.5a.2.2,0,0,1-.2-.2l.2-.3,2.5-.2.2.2c.1.1,0,.3-.2.3l-2.4.2Zm56.9,0h-.1l-2.4-.2c-.2-.1-.3-.2-.2-.3l.2-.2,2.5.2c.1,0,.2.1.2.3A.2.2,0,0,1,220.7,285.4Zm-51.9-.4c-.2,0-.3-.1-.3-.2s.1-.3.2-.3h2.5c.1-.1.3,0,.3.2s-.1.2-.3.2l-2.4.2Zm46.9,0h0l-2.4-.2c-.2,0-.3-.1-.3-.2s.2-.3.3-.2h2.5c.1,0,.2.1.2.3S215.9,285,215.7,285Zm-42-.3a.2.2,0,0,1-.2-.2c-.1-.2,0-.3.2-.3h2.5a.2.2,0,1,1,0,.4l-2.5.2Zm37.1,0h-2.5a.2.2,0,0,1,0-.4h2.5c.2,0,.3.1.3.2S210.9,284.7,210.8,284.7Zm-32.2-.3a.2.2,0,1,1,0-.4h2.5c.1,0,.3.1.3.2s-.1.2-.3.2h-2.5Zm27.3,0h-2.5c-.2,0-.3-.1-.3-.2s.2-.2.3-.2h2.5a.2.2,0,1,1,0,.4Zm-22.3-.1a.3.3,0,0,1-.3-.3c0-.1.1-.2.3-.2h2.5a.2.2,0,1,1,0,.4Zm17.3,0h-2.5a.2.2,0,1,1,0-.4h2.5c.2,0,.3.1.3.2A.3.3,0,0,1,200.9,284.3Zm-12.4-.1a.2.2,0,0,1-.2-.2c0-.2.1-.3.2-.3H191c.2,0,.3.1.3.2a.3.3,0,0,1-.3.3Zm7.5,0h-2.5a.3.3,0,0,1-.3-.3l.3-.2H196l.2.2C196.2,284.1,196.1,284.2,196,284.2Z"/><ellipse class="f" cx="192.3" cy="296.8" rx="61.3" ry="10.7"/><path class="e" d="M132.2,299c5.8-4.9,30.5-8.6,60.1-8.6s54.4,3.7,60.1,8.6a2.9,2.9,0,0,0,1.3-2.2c0-5.9-27.5-10.7-61.4-10.7S131,290.9,131,296.8A3.1,3.1,0,0,0,132.2,299Z"/><path class="e" d="M172.6,302.5c-2.7-.6-4.4-1.3-5.3-2.2h-3.4a17.3,17.3,0,0,1-3.6-.3c-.9-.2-1.3-.4-1.3-.7s.4-.5,1.3-.7a17.3,17.3,0,0,1,3.6-.3H167c.7-1.1,2.2-2,4.6-2.7l1.8-.4H176a20.5,20.5,0,0,1,3.7.3c1,.1,1.5.3,1.5.5a.5.5,0,0,1-.2.4l-1.1.4-2.4,1.2a1.5,1.5,0,0,0-.7,1.2c0,.5.4.9,1.2,1.1a11.8,11.8,0,0,0,3.7.4,9.4,9.4,0,0,0,2.5-.2l1.5-.6,1.4-1a21.1,21.1,0,0,1,2.7-1.8,24.1,24.1,0,0,1,4.3-1.2,54,54,0,0,1,7.9-.5,54.6,54.6,0,0,1,9.8.8c2.8.6,4.7,1.3,5.5,2.1h3.6a16.9,16.9,0,0,1,3.5.3c.9.2,1.4.5,1.4.8s-.5.5-1.4.7a16.9,16.9,0,0,1-3.5.3h-3.3c-.7.8-2.1,1.5-4.5,2.3l-1.9.4h-2.5a20.5,20.5,0,0,1-3.7-.3q-1.5-.3-1.5-.6t.3-.3l1-.5,1.2-.4a5.8,5.8,0,0,0,1.4-.8.8.8,0,0,0,.5-.8c0-.4-.4-.8-1.3-1.1a18.2,18.2,0,0,0-3.7-.4,9.4,9.4,0,0,0-3.4.5,9.5,9.5,0,0,0-2.3,1.4,14.4,14.4,0,0,1-2.5,1.8,24.1,24.1,0,0,1-4.3,1.2,55.6,55.6,0,0,1-8,.5A53.8,53.8,0,0,1,172.6,302.5Z"/><path class="e" d="M250,305.9v13.3l1.4-.4V305.5Z"/><path class="e" d="M235.4,308.8v13.3l1.4-.2V308.6Z"/><path class="e" d="M220.8,310.5v13.3l1.5-.2V310.3Z"/><path class="e" d="M206.2,311.4v13.3h1.5V311.3Z"/><path class="e" d="M192.3,311.6h-.7v13.3h1.5V311.6Z"/><path class="e" d="M177,311.3v13.3h1.5V311.4Z"/><path class="e" d="M162.4,310.3v13.3l1.5.2V310.5Z"/><path class="e" d="M147.8,308.6v13.3l1.5.2V308.8Z"/><path class="e" d="M133.2,305.5v13.3l1.5.4V305.9Z"/><path class="c" d="M132.4,296.7c0,8.2,32.6,14.8,72.9,14.8s73-6.6,73-14.8V283.4H132.4Z"/><ellipse class="d" cx="205.3" cy="283.4" rx="73" ry="14.8"/><path class="e" d="M205.3,296.5h-1.2c-.1,0-.2-.1-.2-.3a.2.2,0,0,1,.2-.2h2.5l.2.2c0,.2-.1.3-.2.3Zm-3.7-.1h-2.4c-.2,0-.3-.1-.3-.2s.1-.2.3-.2h2.5a.2.2,0,0,1,.2.2C201.9,296.3,201.8,296.4,201.6,296.4Zm7.5,0c-.2,0-.3-.1-.3-.2s.1-.2.3-.2h2.4c.2,0,.3.1.3.2a.2.2,0,0,1-.2.2Zm-12.4,0h-2.5l-.2-.2c0-.2.1-.3.2-.3h2.5c.1,0,.3.1.2.2S196.8,296.4,196.7,296.4Zm17.3-.1c-.1,0-.2,0-.2-.2a.2.2,0,0,1,.2-.2h2.5a.2.2,0,0,1,.2.2c0,.2-.1.3-.2.3Zm-22.2-.1h-2.5a.3.3,0,0,1-.3-.3c0-.1.1-.2.3-.2h2.5c.1.1.2.2.2.3A.2.2,0,0,1,191.8,296.2Zm27.2,0c-.2,0-.3-.1-.3-.2s.1-.2.3-.3h2.4c.2,0,.3.1.3.2s-.1.3-.2.3Zm-32.2-.2h0l-2.5-.2a.2.2,0,0,1-.2-.2c0-.2.1-.3.3-.2h2.4c.2,0,.3.1.3.2S186.9,296,186.8,296Zm37.1,0c-.1,0-.2-.1-.2-.3l.2-.2h2.5c.1-.1.2,0,.2.2l-.2.2h-2.5Zm-42-.4h0l-2.5-.2c-.2,0-.3-.1-.2-.2l.2-.2,2.5.2.2.2C182.1,295.6,182,295.6,181.9,295.6Zm46.9,0a.2.2,0,1,1,0-.4l2.5-.2c.2,0,.3.1.3.2s-.1.2-.3.2l-2.4.2Zm-51.9-.4h0l-2.4-.2c-.2,0-.3-.1-.3-.2s.1-.2.3-.2l2.5.2a.2.2,0,0,1,.2.2C177.2,295.2,177.1,295.2,176.9,295.2Zm56.9,0c-.1,0-.3-.1-.3-.2s.1-.2.3-.2l2.4-.2c.2-.1.3,0,.3.1s-.1.3-.2.3l-2.5.2Zm-61.8-.5h0l-2.5-.2c-.1-.1-.2-.2-.2-.3l.3-.2,2.5.3a.2.2,0,0,1,.2.2C172.3,294.7,172.1,294.7,172,294.7Zm66.7,0c-.1,0-.2,0-.2-.2s0-.2.2-.2l2.4-.3.3.2a.2.2,0,0,1-.2.2l-2.5.3Zm-71.6-.6h0l-2.5-.3c-.1,0-.2-.1-.2-.3s.2-.2.3-.1l2.5.3a.2.2,0,0,1,.2.2C167.3,294.1,167.2,294.1,167.1,294.1Zm76.5,0a.2.2,0,0,1-.2-.2c-.1-.1,0-.2.2-.2l2.4-.4c.2,0,.3.1.3.2s-.1.3-.2.3l-2.5.3Zm-81.4-.7h0l-2.4-.4c-.2,0-.3-.2-.2-.3s.1-.2.3-.1l2.4.4a.2.2,0,0,1,.2.2C162.5,293.3,162.4,293.4,162.2,293.4Zm86.3,0-.3-.2.2-.2,2.5-.5.3.2c0,.1-.1.3-.2.3l-2.5.4Zm-91.1-.9h-.1l-2.4-.5-.2-.2c.1-.2.2-.2.3-.2l2.4.5c.2,0,.3.1.2.3S157.5,292.5,157.4,292.5Zm95.9,0c-.1,0-.2,0-.2-.2a.2.2,0,0,1,.2-.2l2.4-.5a.2.2,0,0,1,.3.1c0,.2-.1.3-.2.3l-2.4.5Zm-100.7-1h-.1l-2.4-.7c-.1,0-.2-.1-.1-.3s.1-.1.3-.1l2.3.6c.2.1.3.2.2.3Zm105.5-.1h-.2c0-.1,0-.3.2-.3l2.3-.6c.2-.1.3,0,.4.1s-.1.3-.2.3l-2.4.6Zm-110.2-1.3h-.1l-2.3-.8c-.2-.1-.2-.2-.2-.3s.2-.2.4-.1l2.2.8c.2,0,.2.2.2.3S148,290.1,147.9,290.1Zm115,0h-.3c0-.2,0-.3.2-.3l2.3-.8c.1-.1.2,0,.3.1a.4.4,0,0,1-.1.3l-2.4.8Zm-119.6-1.8h-.1l-2.1-1.2c-.1,0-.1-.2-.1-.3a.3.3,0,0,1,.4,0l2.1,1.1a.2.2,0,0,1,0,.3C143.5,288.3,143.4,288.3,143.3,288.3Zm124.1,0c-.1,0-.2,0-.2-.1s-.1-.2.1-.3l2-1.2h.4a.4.4,0,0,1-.1.3l-2.1,1.2Zm-127.9-2.7h-.2a3.5,3.5,0,0,1-.9-2.2l.2-.2h0l.3.2a2.6,2.6,0,0,0,.8,1.9.4.4,0,0,1-.1.3Zm131.7,0h-.1c-.1-.1-.2-.3-.1-.4a2.9,2.9,0,0,0,.8-1.8h0c0-.2.1-.3.2-.3h0c.2,0,.3.1.3.2v.2a3.2,3.2,0,0,1-.9,2.1C271.4,285.6,271.3,285.6,271.2,285.6Zm-131.8-4h-.1a.2.2,0,0,1-.1-.4,7.1,7.1,0,0,1,1.8-1.5h.3a.2.2,0,0,1,0,.3,8.6,8.6,0,0,0-1.7,1.5Zm131.8-.1H271a9.5,9.5,0,0,0-1.8-1.5.2.2,0,0,1,0-.3c0-.1.2-.1.3,0a10.5,10.5,0,0,1,1.9,1.5c0,.1,0,.3-.1.3A.1.1,0,0,1,271.2,281.5Zm-128-2.6c-.1,0-.1-.1-.2-.2s0-.2.1-.3l2.2-.9c.2-.1.3,0,.4.1s0,.2-.2.3l-2.2.9Zm124.1-.1h-.1l-2.3-1c-.1,0-.1-.2-.1-.3h.3l2.3,1a.2.2,0,0,1,.1.3Zm-119.6-1.7a.2.2,0,0,1-.2-.2c0-.1,0-.2.2-.3l2.3-.7c.1,0,.3,0,.3.2s0,.2-.1.2l-2.4.8Zm115-.1h0l-2.4-.7a.2.2,0,0,1-.1-.3c0-.1.1-.2.3-.1l2.3.7c.2,0,.2.2.2.3Zm-110.2-1.3h-.3c0-.2.1-.3.2-.3l2.4-.6.3.2c0,.1-.1.2-.2.3l-2.4.5Zm105.5,0h0l-2.4-.6c-.2,0-.2-.1-.2-.3s.2-.1.3-.1l2.4.5c.1.1.2.2.2.3Zm-100.7-1.1c-.2,0-.3,0-.3-.1s.1-.3.2-.3l2.4-.5c.2,0,.3.1.3.2s0,.3-.2.3l-2.4.4Zm95.9,0h0l-2.5-.4c-.1-.1-.2-.2-.1-.3a.2.2,0,0,1,.2-.2l2.5.5.2.2Zm-91.1-.8-.2-.2c-.1-.1,0-.3.2-.3l2.4-.4c.1,0,.3.1.3.2s-.1.3-.2.3l-2.4.4Zm86.3-.1h-.1l-2.4-.3-.2-.3c0-.1.1-.2.3-.2l2.4.4c.1,0,.2.1.2.3ZM167,273c-.1,0-.2,0-.2-.2s0-.2.2-.2l2.4-.3c.2,0,.3,0,.3.2a.2.2,0,0,1-.2.2l-2.5.3Zm76.5,0h-.1l-2.4-.3c-.1,0-.2-.1-.2-.3s.1-.2.3-.1l2.4.3c.2,0,.2.1.2.2A.2.2,0,0,1,243.5,273Zm-71.6-.6a.2.2,0,0,1-.2-.2c-.1-.1,0-.2.2-.2l2.4-.3c.2,0,.3.1.3.2s-.1.3-.2.3l-2.5.2Zm66.7,0h-.1l-2.4-.3a.2.2,0,0,1-.2-.2l.2-.2,2.5.3.2.2A.2.2,0,0,1,238.6,272.4Zm-61.8-.5a.2.2,0,0,1,0-.4l2.5-.2a.2.2,0,0,1,0,.4l-2.5.2Zm56.9,0h-.1l-2.4-.2c-.2,0-.3-.1-.3-.2s.2-.3.3-.2l2.5.2a.2.2,0,1,1,0,.4Zm-52-.4a.2.2,0,0,1,0-.4l2.5-.2c.1,0,.3.1.3.2s-.1.2-.3.3h-2.5Zm47,0h0l-2.5-.2-.2-.2c0-.1.2-.2.3-.2l2.4.2c.2,0,.3.1.3.2S228.9,271.5,228.7,271.5Zm-42-.3c-.1,0-.3-.1-.3-.2s.1-.2.3-.2l2.4-.2c.2,0,.3.1.3.2s-.1.3-.2.3Zm37.1,0h-2.5c-.1,0-.2-.1-.2-.3a.2.2,0,0,1,.2-.2h0l2.5.2a.2.2,0,0,1,0,.4Zm-32.2-.2a.2.2,0,0,1-.2-.2c0-.2.1-.3.2-.3h2.5q.2,0,.3.3c0,.1-.2.2-.3.2Zm27.2,0h-2.4a.3.3,0,0,1-.3-.3c0-.1.1-.2.3-.2h2.5c.1,0,.2.1.2.3S219,271,218.8,271Zm-22.2-.2c-.2,0-.3-.1-.3-.2s.1-.2.3-.2h2.5a.2.2,0,0,1,.2.2c0,.2-.1.3-.2.3Zm17.3,0h-2.5c-.1,0-.2-.2-.2-.3a.2.2,0,0,1,.2-.2h2.5c.1,0,.3.1.2.2Zm-12.4-.1a.2.2,0,0,1,0-.4H204l.3.2c0,.1-.2.2-.3.2Zm7.5,0h-2.5c-.2,0-.3-.1-.3-.2s.1-.2.3-.2H209a.2.2,0,0,1,0,.4Z"/><ellipse class="c" cx="205.3" cy="283.4" rx="61.3" ry="10.7"/><path class="e" d="M145.2,285.5c5.8-4.9,30.5-8.5,60.1-8.5s54.4,3.6,60.1,8.5a3.1,3.1,0,0,0,1.3-2.1c0-5.9-27.5-10.7-61.4-10.7S144,277.5,144,283.4A2.9,2.9,0,0,0,145.2,285.5Z"/><path class="e" d="M185.6,289c-2.7-.5-4.5-1.2-5.3-2.1h-3.5a16.9,16.9,0,0,1-3.5-.3c-.9-.2-1.3-.4-1.3-.7s.4-.6,1.3-.8a17.8,17.8,0,0,1,3.5-.2H180c.7-1.1,2.2-2,4.6-2.8a8.4,8.4,0,0,1,1.8-.3H189a21.2,21.2,0,0,1,3.7.2q1.5.3,1.5.6t-.3.3l-1,.5a6.5,6.5,0,0,0-2.4,1.2,1.3,1.3,0,0,0-.7,1.1q0,.8,1.2,1.2a15.9,15.9,0,0,0,3.7.4,9,9,0,0,0,2.5-.3,5.3,5.3,0,0,0,1.5-.5l1.4-1.1a13.4,13.4,0,0,1,2.7-1.7,14.2,14.2,0,0,1,4.3-1.2,42.9,42.9,0,0,1,7.9-.5,47.3,47.3,0,0,1,9.8.8c2.8.5,4.6,1.2,5.5,2.1h3.6a17.5,17.5,0,0,1,3.5.3c.9.2,1.3.4,1.3.7s-.4.5-1.3.7a16.9,16.9,0,0,1-3.5.3h-3.4c-.6.8-2.1,1.6-4.4,2.3l-1.9.4h-2.5a20.5,20.5,0,0,1-3.7-.3q-1.5-.2-1.5-.6t.3-.3l1-.4,1.2-.5a6,6,0,0,0,1.4-.7,1.1,1.1,0,0,0,.5-.9c0-.4-.4-.7-1.3-1a13.4,13.4,0,0,0-3.8-.4,9.2,9.2,0,0,0-3.3.4,6.5,6.5,0,0,0-2.3,1.5,10.6,10.6,0,0,1-2.6,1.7,12.6,12.6,0,0,1-4.3,1.2,53,53,0,0,1-7.9.5A53.8,53.8,0,0,1,185.6,289Z"/><path class="e" d="M263,292.5v13.3l1.4-.4V292.1Z"/><path class="e" d="M248.4,295.3v13.3l1.4-.2V295.1Z"/><path class="e" d="M233.8,297v13.3h1.4V296.9Z"/><path class="e" d="M219.2,297.9v13.3h1.4V297.9Z"/><path class="e" d="M205.3,298.2h-.7v13.3H206V298.2Z"/><path class="e" d="M190,297.9v13.3h1.5V297.9Z"/><path class="e" d="M175.4,296.9v13.3h1.5V297Z"/><path class="e" d="M160.8,295.1v13.3l1.5.2V295.3Z"/><path class="e" d="M146.2,292.1v13.3l1.5.4V292.5Z"/><path class="c" d="M123.9,283.3c0,8.2,32.7,14.8,73,14.8s73-6.6,73-14.8V270h-146Z"/><path class="d" d="M269.9,270c0,8.2-32.7,14.8-73,14.8s-73-6.6-73-14.8,32.7-14.8,73-14.8S269.9,261.8,269.9,270Z"/><path class="e" d="M196.9,283.1h-1.2c-.2,0-.3-.1-.3-.2s.1-.2.3-.2h2.5a.2.2,0,0,1,0,.4Zm-3.7,0h-2.5a.2.2,0,0,1,0-.4h2.5a.3.3,0,0,1,.3.3Zm7.4,0a.2.2,0,0,1-.2-.2c0-.2.1-.3.2-.3h2.5l.3.2-.3.2Zm-12.3-.1h-2.5c-.2,0-.3-.1-.3-.2s.1-.2.3-.2h2.5a.2.2,0,0,1,0,.4Zm17.3,0c-.2,0-.3-.1-.3-.2s.1-.2.3-.2h2.5l.2.2a.2.2,0,0,1-.2.2Zm-22.3-.2h-2.5a.2.2,0,0,1,0-.4h2.5c.2,0,.3.1.3.2Zm27.2,0-.2-.2a.2.2,0,0,1,.2-.2H213a.2.2,0,0,1,.2.2c.1.1-.1.2-.2.2Zm-32.1-.2h-2.5q-.3-.2-.3-.3l.3-.2,2.5.2.2.2A.2.2,0,0,1,178.4,282.6Zm37.1,0c-.2,0-.3-.1-.3-.2s.1-.2.3-.2l2.4-.2c.2,0,.3.1.3.2a.2.2,0,0,1-.2.2l-2.5.2Zm-42.1-.3h0l-2.5-.2a.2.2,0,0,1-.2-.2c0-.2.1-.3.3-.2h2.4q.3.1.3.3C173.7,282.2,173.6,282.3,173.4,282.3Zm47,0-.2-.2c-.1-.1,0-.3.2-.3l2.4-.2c.2,0,.3.1.3.2s-.1.3-.2.3l-2.5.2Zm-51.9-.4h0l-2.5-.3a.2.2,0,0,1-.2-.2c0-.1.1-.2.3-.2l2.4.2c.2.1.3.2.2.3A.2.2,0,0,1,168.5,281.9Zm56.8,0a.2.2,0,0,1-.2-.2c0-.1.1-.3.2-.3l2.5-.2.2.2c.1.1,0,.2-.2.2l-2.4.3Zm-61.7-.5h-.1l-2.4-.3c-.1,0-.2-.1-.2-.3s.1-.2.3-.1l2.4.2.2.3A.2.2,0,0,1,163.6,281.4Zm66.7,0c-.2,0-.3-.1-.3-.2l.2-.3,2.5-.3.3.2a.3.3,0,0,1-.3.3l-2.4.3Zm-71.6-.6h-.1l-2.4-.4a.2.2,0,0,1-.2-.2c0-.1.1-.2.3-.2l2.4.3c.1.1.2.2.2.3A.2.2,0,0,1,158.7,280.8Zm76.5,0c-.2,0-.3-.1-.3-.2s.1-.3.2-.3l2.5-.3c.1,0,.2,0,.2.2s0,.2-.2.2l-2.4.4Zm-81.4-.7h-.1l-2.4-.5a.2.2,0,0,1-.2-.2l.3-.2,2.4.4c.2,0,.3.2.2.3A.2.2,0,0,1,153.8,280.1ZM240,280c-.1,0-.2,0-.2-.1s.1-.3.2-.3l2.4-.4c.2,0,.3,0,.3.2s0,.2-.2.2l-2.4.4Zm-91.1-.8h0l-2.4-.5c-.2-.1-.2-.2-.2-.3l.3-.2,2.4.5c.1.1.2.2.2.3S149,279.2,148.9,279.2Zm96,0a.2.2,0,0,1-.2-.2c-.1-.1,0-.2.1-.3l2.4-.5c.2,0,.3.1.3.2s0,.2-.1.3l-2.5.5Zm-100.8-1.1h0l-2.4-.6c-.1-.1-.2-.2-.2-.3l.3-.2,2.4.7a.2.2,0,0,1,.2.2Zm105.6,0a.2.2,0,0,1-.2-.2c-.1-.1,0-.2.1-.2l2.4-.7.3.2c0,.1,0,.2-.2.3l-2.3.6Zm-110.3-1.3h-.1l-2.3-.9c-.1,0-.2-.1-.1-.3s.2-.1.3-.1l2.3.8c.1.1.2.2.1.3Zm115,0-.2-.2c-.1-.1,0-.2.1-.3l2.3-.8c.1,0,.3,0,.3.1a.2.2,0,0,1-.1.3l-2.3.8ZM134.9,275h-.1l-2.2-1.2a.2.2,0,0,1,0-.3c.1-.1.2-.2.3-.1l2.1,1.2a.2.2,0,0,1,.1.3Zm124,0-.2-.2a.4.4,0,0,1,.1-.3,10.3,10.3,0,0,0,2.1-1.1h.3c.1.1.1.3,0,.3l-2.1,1.2ZM131,272.3h-.2a3.2,3.2,0,0,1-.9-2.1.3.3,0,0,1,.3-.3h0a.2.2,0,0,1,.2.2,2.9,2.9,0,0,0,.8,1.9c.1.1.1.3,0,.3Zm131.8-.1h-.2a.2.2,0,0,1,0-.3,3,3,0,0,0,.7-1.9c.1,0,0-.1,0-.1l.3-.2h0l.2.2h0a3.3,3.3,0,0,1-.8,2.2Zm-131.8-4h-.2a.4.4,0,0,1-.1-.3,14.5,14.5,0,0,1,1.8-1.6c.2-.1.3-.1.4,0a.2.2,0,0,1-.1.4,4.6,4.6,0,0,0-1.6,1.5Zm131.7-.1h-.2a6.1,6.1,0,0,0-1.7-1.4c-.1-.1-.2-.3-.1-.4h.4a7.1,7.1,0,0,1,1.8,1.6.2.2,0,0,1,0,.3Zm-127.9-2.6c-.1,0-.2,0-.2-.1s-.1-.2.1-.3l2.2-1h.3a.2.2,0,0,1-.1.3l-2.2,1Zm124-.1h-.1l-2.2-.9c-.1-.1-.2-.2-.1-.3a.2.2,0,0,1,.3-.1l2.2.9c.2.1.2.2.1.3Zm-119.5-1.7h-.2a.2.2,0,0,1,.1-.3l2.4-.7c.1-.1.2,0,.3.1s-.1.3-.2.3l-2.3.7Zm115,0h-.1l-2.3-.7c-.2,0-.2-.1-.2-.2s.2-.2.3-.2l2.4.7c.1.1.2.2.1.3A.2.2,0,0,1,254.3,263.7ZM144,262.4a.2.2,0,0,1-.2-.2c-.1-.1,0-.2.1-.3l2.4-.5c.2-.1.3,0,.3.1a.2.2,0,0,1-.1.3l-2.4.6Zm105.6-.1h-.1l-2.4-.5c-.1-.1-.2-.2-.2-.3l.3-.2,2.4.6c.2,0,.3.1.2.3S249.7,262.3,249.6,262.3Zm-100.8-1a.2.2,0,0,1-.2-.2c-.1-.1,0-.2.2-.2l2.4-.5c.1,0,.3,0,.3.2l-.2.2-2.4.5Zm96,0h-.1l-2.4-.5c-.1,0-.2-.1-.2-.3a.2.2,0,0,1,.3-.1l2.4.4c.2,0,.2.2.2.3Zm-91.1-.9c-.2,0-.3-.1-.3-.2a.2.2,0,0,1,.2-.2l2.5-.4.3.2c0,.1-.1.2-.3.2l-2.4.4Zm86.2,0h0l-2.5-.4c-.1,0-.2-.1-.2-.3s.2-.2.3-.1l2.5.3.2.3Zm-81.3-.7c-.2,0-.3-.1-.3-.2s.1-.2.2-.3l2.5-.3a.2.2,0,0,1,.2.2c.1.1,0,.2-.2.3l-2.4.3Zm76.4,0h0l-2.4-.4c-.2,0-.3-.1-.3-.2l.3-.2,2.5.3c.1,0,.2.1.2.3S235.2,259.7,235,259.7Zm-71.5-.6c-.2,0-.3-.1-.3-.2s.1-.3.2-.3l2.5-.2c.1,0,.2,0,.3.2s-.1.2-.3.2l-2.4.3Zm66.6,0h0l-2.5-.3c-.1,0-.2-.1-.2-.3s.1-.2.3-.1l2.5.2c.1,0,.2.1.2.3S230.3,259.1,230.1,259.1Zm-61.7-.5c-.2,0-.3-.1-.3-.2s.1-.3.2-.3l2.5-.2c.2,0,.3.1.3.2s-.1.3-.2.3l-2.5.2Zm56.8,0h0l-2.5-.3-.2-.2c0-.1.2-.2.3-.2l2.4.2a.3.3,0,0,1,.3.3Zm-51.9-.4a.2.2,0,0,1-.2-.2c-.1-.2,0-.3.2-.3h2.5c.1-.1.2,0,.2.2a.2.2,0,0,1-.2.2l-2.5.2Zm47,0h0l-2.5-.2a.2.2,0,0,1-.2-.2c0-.2.1-.3.2-.3l2.5.2c.1,0,.2.1.2.3A.2.2,0,0,1,220.3,258.2Zm-42.1-.3c-.1,0-.2-.1-.2-.3a.2.2,0,0,1,.2-.2h2.5c.1,0,.3.1.3.2s-.1.2-.3.2l-2.4.2Zm37.1-.1h-2.4c-.2,0-.3-.1-.3-.2s.1-.2.3-.2h2.5a.2.2,0,0,1,.2.2C215.6,257.8,215.5,257.8,215.3,257.8Zm-32.1-.2c-.1,0-.3-.1-.3-.2s.1-.2.3-.2h2.5a.2.2,0,1,1,0,.4Zm27.2,0h-2.5l-.2-.2a.2.2,0,0,1,.2-.2h2.5c.1,0,.3.1.2.2A.2.2,0,0,1,210.4,257.6Zm-22.3-.1c-.1,0-.2-.1-.2-.3a.2.2,0,0,1,.2-.2h2.5l.3.2c0,.1-.2.2-.3.2Zm17.4,0H203c-.2,0-.3-.1-.3-.2s.1-.2.3-.2h2.5a.2.2,0,0,1,.2.2C205.7,257.4,205.6,257.5,205.5,257.5Zm-12.4-.1a.3.3,0,0,1-.3-.3c0-.1.1-.2.3-.2h2.5a.2.2,0,0,1,.2.2l-.2.2Zm7.4,0H198l-.2-.2a.2.2,0,0,1,.2-.2h2.5c.1,0,.3.1.3.2A.3.3,0,0,1,200.5,257.4Z"/><path class="c" d="M258.2,270c0,5.9-27.4,10.7-61.3,10.7s-61.4-4.8-61.4-10.7,27.5-10.7,61.4-10.7S258.2,264.1,258.2,270Z"/><path class="e" d="M136.8,272.2c5.7-4.9,30.4-8.6,60.1-8.6s54.4,3.7,60.1,8.6a3.1,3.1,0,0,0,1.2-2.2c0-5.9-27.4-10.7-61.3-10.7s-61.4,4.8-61.4,10.7A3.2,3.2,0,0,0,136.8,272.2Z"/><path class="e" d="M177.2,275.7c-2.7-.6-4.5-1.3-5.3-2.2h-3.5a16.2,16.2,0,0,1-3.5-.3c-.9-.2-1.4-.4-1.4-.7s.5-.5,1.4-.7a16.2,16.2,0,0,1,3.5-.3h3.2c.6-1.1,2.2-2,4.6-2.7l1.7-.4h2.6l3.7.2c1.1.2,1.6.4,1.6.6s-.1.3-.3.4a3.2,3.2,0,0,1-1.1.4,13.1,13.1,0,0,0-2.4,1.2,1.9,1.9,0,0,0-.7,1.2c0,.5.4.9,1.3,1.1a11.4,11.4,0,0,0,3.7.4l2.4-.2,1.5-.6,1.4-1a16.7,16.7,0,0,1,2.8-1.8,13.3,13.3,0,0,1,4.3-1.2,53,53,0,0,1,7.9-.5,56.3,56.3,0,0,1,9.8.8c2.8.6,4.6,1.3,5.5,2.1h3.5a16.9,16.9,0,0,1,3.5.3c.9.2,1.4.5,1.4.7s-.5.6-1.3.8a17.3,17.3,0,0,1-3.6.3h-3.3c-.6.7-2.1,1.5-4.5,2.3a4.8,4.8,0,0,1-1.8.3l-2.5.2a19.8,19.8,0,0,1-3.7-.3c-1-.2-1.6-.4-1.6-.6s.1-.2.3-.3l1.1-.5,1.1-.4,1.5-.8a1,1,0,0,0,.5-.8c0-.5-.5-.8-1.4-1.1a16.6,16.6,0,0,0-3.7-.4,9.8,9.8,0,0,0-3.4.5,11.8,11.8,0,0,0-2.3,1.4,14.4,14.4,0,0,1-2.5,1.8,21.8,21.8,0,0,1-4.3,1.2,54.5,54.5,0,0,1-8,.5A52.6,52.6,0,0,1,177.2,275.7Z"/><path class="e" d="M254.5,279.1v13.3l1.5-.4V278.7Z"/><path class="e" d="M239.9,282v13.3l1.5-.2V281.8Z"/><path class="e" d="M225.4,283.7V297l1.4-.2V283.5Z"/><path class="e" d="M210.8,284.6v13.3h1.4V284.5Z"/><path class="e" d="M196.9,284.8h-.7v13.3h1.4V284.8Z"/><path class="e" d="M181.6,284.5v13.3H183V284.6Z"/><path class="e" d="M167,283.5v13.3l1.4.2V283.7Z"/><path class="e" d="M152.4,281.8v13.3l1.4.2V282Z"/><path class="e" d="M137.8,278.7V292l1.4.4V279.1Z"/><path class="c" d="M127.4,270.1c0,8.2,32.6,14.9,72.9,14.9s73-6.7,73-14.9V256.8H127.4Z"/><ellipse class="d" cx="200.3" cy="256.8" rx="73" ry="14.8"/><path class="e" d="M200.3,269.9h-1.2a.2.2,0,1,1,0-.4h2.5c.2,0,.3.1.3.2s-.1.2-.3.2Zm-3.6,0h-2.5a.3.3,0,0,1-.3-.3c0-.1.2-.2.3-.2h2.5a.2.2,0,0,1,0,.4Zm7.4,0c-.1,0-.3-.1-.3-.2l.3-.2h2.5a.2.2,0,0,1,.2.2c0,.2-.1.3-.2.3Zm-12.4-.1h-2.5a.2.2,0,0,1-.2-.2c0-.1.1-.2.3-.2h2.4c.2,0,.3.1.3.2S191.9,269.8,191.7,269.8Zm17.3,0-.2-.2a.2.2,0,0,1,.2-.2h2.5c.1,0,.3.1.3.2s-.1.2-.3.2Zm-22.2-.1h0l-2.5-.2c-.2,0-.3-.1-.2-.2a.2.2,0,0,1,.2-.2h2.5l.2.2C187,269.6,186.9,269.7,186.8,269.7Zm27.2-.1c-.1,0-.3,0-.3-.2s.1-.2.3-.2h2.4c.2,0,.3.1.3.2a.2.2,0,0,1-.2.2Zm-32.2-.2h-2.5c-.1,0-.2-.1-.2-.3s.1-.2.3-.2l2.4.2c.2,0,.3.1.3.2S182,269.4,181.8,269.4Zm37.1,0a.2.2,0,0,1-.2-.2l.2-.2,2.5-.2a.2.2,0,0,1,.2.2c.1.1,0,.3-.2.3Zm-42-.3h0l-2.5-.2a.2.2,0,0,1-.2-.2c0-.2.1-.2.2-.2l2.5.2.2.2A.2.2,0,0,1,176.9,269.1Zm47,0c-.2,0-.3-.1-.3-.2a.2.2,0,0,1,.2-.2l2.5-.2c.2,0,.3,0,.3.2a.2.2,0,0,1-.2.2l-2.5.2Zm-51.9-.4h-.1l-2.4-.2q-.3-.2-.3-.3l.3-.2,2.5.3a.2.2,0,0,1,0,.4Zm56.8,0a.2.2,0,0,1-.2-.2c-.1-.1,0-.2.2-.3l2.4-.2c.2,0,.3.1.3.2s-.1.2-.2.3l-2.5.2Zm-61.8-.5h0l-2.4-.3c-.2,0-.3-.1-.3-.2s.2-.2.3-.2l2.5.3a.2.2,0,0,1,.2.2C167.3,268.1,167.2,268.2,167,268.2Zm66.7,0a.2.2,0,0,1,0-.4l2.4-.3c.2,0,.3,0,.3.2a.2.2,0,0,1-.2.2l-2.5.3Zm-71.6-.6h0l-2.5-.4a.2.2,0,0,1-.2-.2l.3-.2,2.5.4a.2.2,0,0,1,.2.2C162.4,267.5,162.3,267.6,162.1,267.6Zm76.5,0a.2.2,0,0,1-.2-.2c0-.1,0-.2.2-.3l2.4-.3c.2,0,.3.1.3.2a.2.2,0,0,1-.2.2l-2.4.4Zm-81.3-.7h-.1l-2.4-.5c-.2,0-.2-.1-.2-.2s.1-.2.3-.2l2.4.4.2.3A.2.2,0,0,1,157.3,266.9Zm86.2,0a.2.2,0,0,1-.2-.2c-.1-.1,0-.3.2-.3l2.4-.4.3.2a.2.2,0,0,1-.2.2l-2.5.5Zm-91.1-.9h-.1l-2.4-.5c-.1,0-.2-.2-.2-.3l.3-.2,2.5.6c.1,0,.2.1.1.2A.2.2,0,0,1,152.4,266Zm96,0c-.2,0-.3-.1-.3-.2s.1-.2.2-.3l2.4-.5.3.2c0,.1,0,.2-.2.3l-2.4.5Zm-100.8-1.1h-.1l-2.4-.6c-.1-.1-.2-.2-.1-.3a.2.2,0,0,1,.3-.1l2.4.6c.1,0,.2.1.1.3Zm105.6,0-.3-.2a.2.2,0,0,1,.2-.2l2.4-.7.3.2c0,.1-.1.2-.2.3l-2.4.6Zm-110.3-1.3h-.1l-2.3-.9c-.1,0-.2-.1-.1-.2s.2-.2.3-.2l2.3.9c.1,0,.2.1.1.2A.2.2,0,0,1,142.9,263.6Zm115,0-.3-.2.2-.3,2.3-.8h.3a.2.2,0,0,1-.1.3l-2.3.9Zm-119.5-1.8h-.2l-2.1-1.2a.2.2,0,0,1,0-.3c0-.1.2-.1.3-.1l2.1,1.2c.1,0,.1.2.1.3Zm124,0h-.2a.2.2,0,0,1,.1-.3,11.7,11.7,0,0,0,2-1.2h.4c.1.1,0,.3-.1.4l-2.1,1.2Zm-127.9-2.7c-.1,0-.2,0-.2-.1a3.2,3.2,0,0,1-.9-2.1c0-.1.1-.3.2-.3h0a.3.3,0,0,1,.3.3,3.4,3.4,0,0,0,.8,1.9c.1.1,0,.2-.1.3Zm131.7,0h-.1a.4.4,0,0,1-.1-.3,2.6,2.6,0,0,0,.8-1.9h0c0-.1.1-.2.3-.2h0l.2.2h0a3.5,3.5,0,0,1-.9,2.2Zm-131.8-4h-.1c-.1-.1-.2-.2-.1-.3a7.3,7.3,0,0,1,1.8-1.6c.1-.1.3,0,.4.1a.4.4,0,0,1-.1.3,8.6,8.6,0,0,0-1.7,1.5Zm131.8-.2H266a10.3,10.3,0,0,0-1.8-1.4.2.2,0,0,1,0-.3c.1-.1.2-.2.3-.1a7.7,7.7,0,0,1,1.9,1.6c.1.1,0,.2-.1.3Zm-128-2.6H138a.4.4,0,0,1,.1-.3l2.3-1h.3c0,.2,0,.3-.1.3l-2.2,1Zm124.1-.1h-.1l-2.2-.9c-.2-.1-.2-.2-.2-.3s.2-.2.4-.1l2.2.9c.1.1.2.2.1.3Zm-119.5-1.7h-.3c0-.1,0-.3.2-.3l2.3-.7c.2-.1.3,0,.3.1a.2.2,0,0,1-.1.3l-2.4.7Zm115,0h-.1l-2.4-.7c-.1-.1-.2-.2-.1-.3l.3-.2,2.3.7c.2.1.2.2.2.3Zm-110.3-1.3-.3-.2.2-.3,2.4-.5a.2.2,0,0,1,.3.1c0,.2,0,.3-.2.3l-2.4.6Zm105.5-.1h0l-2.4-.5-.2-.3c0-.1.2-.2.3-.2l2.4.6c.1,0,.2.2.2.3Zm-100.7-1-.3-.2a.2.2,0,0,1,.2-.2l2.5-.5a.2.2,0,0,1,.2.2c.1.1,0,.2-.1.2l-2.5.5Zm95.9,0h0l-2.4-.5c-.2,0-.3-.1-.2-.2s.1-.3.3-.2l2.4.4.2.3Zm-91.1-.9c-.1,0-.2,0-.2-.2l.2-.2,2.4-.4c.2,0,.3.1.3.2l-.2.2-2.4.4Zm86.3,0h-.1l-2.4-.4-.2-.2c0-.2.2-.2.3-.2l2.4.4c.2,0,.3.1.2.2Zm-81.4-.7-.2-.2c-.1-.1,0-.2.2-.2l2.4-.4c.2,0,.3.1.3.2s-.1.3-.2.3l-2.4.3Zm76.5,0h0l-2.5-.3-.2-.3c0-.1.1-.2.3-.2l2.4.3c.2.1.3.2.2.3Zm-71.6-.6a.2.2,0,0,1-.2-.2l.2-.3,2.5-.2a.2.2,0,0,1,.2.2l-.2.2-2.4.3Zm66.7,0h0l-2.5-.3-.2-.2c0-.2.1-.2.3-.2l2.4.2c.2,0,.3.2.2.3A.2.2,0,0,1,233.6,245.9Zm-61.8-.5a.2.2,0,0,1-.2-.2l.2-.3,2.5-.2a.2.2,0,0,1,.2.2c.1.2,0,.3-.2.3l-2.4.2Zm56.9,0h0l-2.5-.2c-.1,0-.2-.2-.2-.3a.2.2,0,0,1,.2-.2l2.5.2c.1,0,.2.2.2.3A.2.2,0,0,1,228.7,245.4Zm-51.9-.4c-.2,0-.3-.1-.3-.2s.1-.2.2-.3h2.5c.1-.1.3.1.3.2a.2.2,0,0,1-.2.2l-2.5.2Zm46.9,0h0l-2.4-.2c-.2,0-.3-.1-.3-.2s.2-.3.3-.2h2.5c.1,0,.2.1.2.3S223.9,245,223.7,245Zm-42-.3-.2-.2c-.1-.2.1-.3.2-.3h2.5a.2.2,0,1,1,0,.4l-2.5.2Zm37.1,0h0l-2.5-.2a.2.2,0,0,1,0-.4h2.5a.3.3,0,0,1,.3.3Zm-32.2-.3a.2.2,0,0,1-.2-.2l.2-.2h2.5l.3.2c0,.1-.1.2-.3.2h-2.5Zm27.3,0h-2.5c-.2,0-.3-.1-.3-.2l.3-.2h2.5l.2.2A.2.2,0,0,1,213.9,244.4Zm-22.3-.1-.3-.2a.3.3,0,0,1,.3-.3h2.5l.2.2-.2.2Zm17.3,0h-2.5l-.2-.2.2-.2h2.5a.3.3,0,0,1,.3.3C209.2,244.2,209.1,244.3,208.9,244.3Zm-12.4-.1-.2-.2c0-.2.1-.3.2-.3H199c.2,0,.3.1.3.2a.3.3,0,0,1-.3.3Zm7.5,0h-2.5a.3.3,0,0,1-.3-.3l.3-.2H204c.1,0,.2.1.2.3Z"/><ellipse class="c" cx="200.3" cy="256.8" rx="61.3" ry="10.7"/><path class="e" d="M140.3,259c5.7-4.9,30.4-8.5,60-8.5s54.4,3.6,60.1,8.5a2.8,2.8,0,0,0,1.3-2.2c0-5.9-27.5-10.7-61.4-10.7S139,250.9,139,256.8A2.8,2.8,0,0,0,140.3,259Z"/><path class="e" d="M180.6,262.5c-2.7-.6-4.4-1.3-5.3-2.2h-3.4a17.3,17.3,0,0,1-3.6-.3c-.9-.1-1.3-.4-1.3-.7s.4-.5,1.3-.7a17.3,17.3,0,0,1,3.6-.3H175c.7-1,2.2-2,4.6-2.7l1.8-.4H184a20.5,20.5,0,0,1,3.7.3q1.5.2,1.5.6c0,.1-.1.2-.2.3l-1.1.4-2.4,1.2a1.5,1.5,0,0,0-.7,1.2c0,.5.4.9,1.2,1.1a11.8,11.8,0,0,0,3.7.4,9.4,9.4,0,0,0,2.5-.2l1.5-.6,1.4-1a21.1,21.1,0,0,1,2.7-1.8,24.1,24.1,0,0,1,4.3-1.2,54,54,0,0,1,7.9-.5,54.6,54.6,0,0,1,9.8.8c2.8.6,4.7,1.3,5.6,2.2h3.5l3.5.2c.9.2,1.4.5,1.4.8s-.5.5-1.4.7a16.9,16.9,0,0,1-3.5.3h-3.3c-.7.8-2.1,1.5-4.5,2.3l-1.9.4h-2.5a18.6,18.6,0,0,1-3.6-.3c-1.1-.2-1.6-.4-1.6-.6s.1-.2.3-.3l1-.5,1.2-.4a5.8,5.8,0,0,0,1.4-.8.9.9,0,0,0,.6-.8c0-.4-.5-.8-1.4-1.1a17.3,17.3,0,0,0-3.7-.4,9.4,9.4,0,0,0-3.4.5,7.5,7.5,0,0,0-2.3,1.5,13.8,13.8,0,0,1-2.5,1.7,17.8,17.8,0,0,1-4.3,1.2,55.6,55.6,0,0,1-8,.5A54.6,54.6,0,0,1,180.6,262.5Z"/><path class="e" d="M258,265.9v13.3l1.4-.4V265.5Z"/><path class="e" d="M243.4,268.8v13.3l1.5-.2V268.6Z"/><path class="e" d="M228.8,270.5v13.3h1.5V270.4Z"/><path class="e" d="M214.2,271.4v13.3h1.5V271.3Z"/><path class="e" d="M200.3,271.7h-.7V285h1.5V271.7Z"/><path class="e" d="M185,271.3v13.3h1.5V271.4Z"/><path class="e" d="M170.4,270.4v13.3h1.5V270.5Z"/><path class="e" d="M155.8,268.6v13.3l1.5.2V268.8Z"/><path class="e" d="M141.2,265.5v13.3l1.5.4V265.9Z"/><path class="c" d="M119.6,256.8c0,8.2,32.7,14.8,73,14.8s73-6.6,73-14.8V243.5h-146Z"/><ellipse class="d" cx="192.6" cy="243.5" rx="73" ry="14.8"/><path class="e" d="M192.6,256.6h-1.2c-.1,0-.2-.1-.2-.3a.2.2,0,0,1,.2-.2h2.5a.2.2,0,0,1,.2.2c0,.2-.1.3-.2.3Zm-3.7-.1h-2.4c-.2,0-.3-.1-.3-.2s.1-.2.3-.2h2.4c.2,0,.3.1.3.2S189.1,256.5,188.9,256.5Zm7.5,0c-.2,0-.3-.1-.3-.2s.1-.2.3-.2h2.4c.2,0,.3.1.3.2s-.1.2-.3.2Zm-12.4,0h-2.5a.2.2,0,0,1-.2-.2c0-.2.1-.3.2-.3H184a.2.2,0,0,1,.2.2C184.2,256.4,184.1,256.5,184,256.5Zm17.3,0c-.1,0-.2-.1-.2-.3a.2.2,0,0,1,.2-.2h2.5c.1,0,.2.1.2.3a.2.2,0,0,1-.2.2Zm-22.3-.2h-2.4c-.2,0-.3-.1-.3-.2a.3.3,0,0,1,.3-.3h0l2.5.2a.2.2,0,0,1,.2.2C179.3,256.2,179.2,256.3,179,256.3Zm27.3,0c-.2,0-.3-.1-.3-.2s.1-.2.3-.2l2.4-.2a.3.3,0,0,1,.3.3c0,.1-.1.2-.3.2Zm-32.2-.2h0l-2.5-.2a.2.2,0,0,1-.2-.2c0-.1.1-.3.3-.2h2.4a.3.3,0,0,1,.3.3Zm37.1,0c-.1,0-.2-.1-.2-.3a.2.2,0,0,1,.2-.2h2.5c.1-.1.2,0,.2.2a.2.2,0,0,1-.2.2l-2.5.2Zm-42-.4h-2.5c-.2-.1-.3-.2-.2-.3a.2.2,0,0,1,.2-.2l2.5.2a.2.2,0,0,1,.2.2C169.4,255.7,169.3,255.7,169.2,255.7Zm46.9,0c-.1,0-.2,0-.2-.2l.2-.2,2.5-.2c.2,0,.2.1.3.2s-.1.2-.3.2l-2.4.2Zm-51.9-.4h0l-2.5-.2-.2-.2c0-.2.1-.2.3-.2l2.5.2.2.2C164.5,255.3,164.4,255.3,164.2,255.3Zm56.9,0c-.2,0-.3,0-.3-.2s.1-.2.3-.2l2.4-.2c.2-.1.3,0,.3.2l-.2.2-2.5.2Zm-61.8-.5h0l-2.5-.2-.2-.3c0-.1.2-.2.3-.2l2.4.3a.3.3,0,0,1,.3.3Zm66.7,0c-.1,0-.2,0-.3-.2s.1-.2.3-.2l2.4-.3c.1,0,.3.1.3.2l-.2.2-2.5.3Zm-71.6-.6h0l-2.5-.3c-.1,0-.2-.1-.2-.3a.2.2,0,0,1,.3-.1l2.4.3a.3.3,0,0,1,.3.3Zm76.5,0c-.1,0-.2,0-.2-.2s0-.2.2-.2l2.4-.4c.2,0,.3.1.3.2s-.1.3-.2.3l-2.5.3Zm-81.4-.7h0l-2.5-.4c-.1,0-.2-.1-.1-.3s.1-.2.2-.1l2.5.4a.2.2,0,0,1,.2.2Zm86.3,0-.3-.2a.2.2,0,0,1,.2-.2l2.5-.5.3.2c0,.1-.1.3-.2.3l-2.5.4Zm-91.1-.9h-.1l-2.4-.5-.2-.2c.1-.2.2-.2.3-.2l2.4.5c.2,0,.2.1.2.3Zm95.9,0h-.2c0-.2,0-.3.2-.3l2.4-.5a.2.2,0,0,1,.3.1c0,.2-.1.3-.2.3l-2.4.5Zm-100.7-1h-.1l-2.4-.7c-.1,0-.2-.1-.1-.2s.1-.2.3-.2l2.3.6c.2.1.2.2.2.3Zm105.5,0-.2-.2c0-.1,0-.2.2-.3l2.3-.6h.3c.1.2,0,.3-.1.3l-2.4.6Zm-110.2-1.4h-.1l-2.3-.8c-.2-.1-.2-.2-.2-.3s.2-.2.4-.1l2.2.8c.2,0,.2.2.2.3Zm115,0h-.3c0-.2,0-.3.2-.3l2.3-.8c.1-.1.2,0,.3.1a.4.4,0,0,1-.1.3l-2.4.8Zm-119.6-1.7h-.1l-2.1-1.2c-.1,0-.1-.2-.1-.3h.4l2,1.1c.2.1.2.2.1.3Zm124.1-.1h-.2c-.1-.1-.1-.2.1-.3l2-1.2h.4a.4.4,0,0,1-.1.3l-2.1,1.2Zm-127.9-2.6h-.2a3.5,3.5,0,0,1-.9-2.2l.2-.2h0l.3.2a2.6,2.6,0,0,0,.8,1.9.4.4,0,0,1-.1.3Zm131.7-.1h-.1c-.1-.1-.2-.2-.1-.3a3.4,3.4,0,0,0,.8-1.9h0c0-.2.1-.3.2-.3h0a.3.3,0,0,1,.3.3h0a3.2,3.2,0,0,1-.9,2.1Zm-131.8-4h-.2a.2.2,0,0,1,0-.3,5.7,5.7,0,0,1,1.8-1.6c.1-.1.3-.1.3,0a.2.2,0,0,1,0,.3,8.6,8.6,0,0,0-1.7,1.5Zm131.7-.1h-.1l-1.8-1.5a.2.2,0,0,1,0-.3h.3a7.1,7.1,0,0,1,1.8,1.5c.1.1.1.3,0,.3ZM130.5,239h-.2c-.1-.2,0-.3.1-.3l2.2-1c.2-.1.3,0,.4.1s0,.2-.2.3l-2.2.9Zm124.1-.1h-.1l-2.3-1c-.1,0-.1-.2-.1-.3h.3l2.3,1a.2.2,0,0,1,.1.3ZM135,237.2l-.2-.2c0-.1,0-.2.2-.3l2.3-.7.3.2c.1.1,0,.2-.1.3l-2.4.7Zm115-.1h0l-2.4-.7a.2.2,0,0,1-.1-.3c0-.1.1-.2.3-.1l2.3.7c.2,0,.2.2.2.3Zm-110.2-1.3c-.2,0-.3,0-.3-.1s.1-.3.2-.3l2.4-.6.3.2-.2.3-2.4.5Zm105.5,0h0l-2.4-.6c-.2,0-.3-.1-.2-.3h.3l2.4.6.2.2Zm-100.7-1c-.2,0-.3-.1-.3-.2s.1-.3.2-.3l2.4-.4c.2-.1.3,0,.3.1s0,.3-.2.3l-2.4.4Zm95.9-.1h0l-2.5-.4-.2-.3.3-.2,2.5.5.2.2Zm-91.1-.8a.2.2,0,0,1-.2-.2c-.1-.1,0-.2.2-.3l2.4-.3a.2.2,0,0,1,.3.1c0,.2-.1.3-.2.3l-2.4.4Zm86.3-.1h-.1l-2.4-.3c-.2-.1-.2-.2-.2-.3s.1-.2.3-.2l2.4.4c.1,0,.2.1.2.3S235.8,233.8,235.7,233.8Zm-81.4-.7H154a.3.3,0,0,1,.3-.3l2.4-.3.3.2a.2.2,0,0,1-.2.2l-2.5.3Zm76.5,0h-.1l-2.4-.3a.2.2,0,0,1-.2-.2c0-.2.1-.3.3-.2l2.4.3a.2.2,0,0,1,.2.2Zm-71.6-.6c-.1,0-.2,0-.2-.2s0-.2.2-.2l2.4-.3c.2,0,.3.1.3.2s-.1.3-.2.3l-2.5.2Zm66.7,0h-.1l-2.4-.2-.2-.3.2-.2,2.5.3a.2.2,0,0,1,.2.2Zm-61.8-.5c-.1,0-.2,0-.2-.2a.2.2,0,0,1,.2-.2l2.5-.2.2.2-.2.2-2.5.2Zm56.9,0h-.1l-2.4-.2c-.2,0-.3-.1-.3-.2s.2-.3.3-.2l2.5.2a.2.2,0,0,1,.2.2Zm-52-.4-.2-.2a.2.2,0,0,1,.2-.2l2.5-.2.3.2a.3.3,0,0,1-.3.3H169Zm47,0h-2.5c-.1-.1-.2-.2-.2-.3l.3-.2,2.4.2c.2,0,.3.1.3.2S216.2,231.6,216,231.6Zm-42-.3-.3-.2c0-.1.1-.2.3-.2l2.4-.2a.3.3,0,0,1,.3.3l-.2.2Zm37.1,0h-2.5c-.1,0-.2-.1-.2-.3a.2.2,0,0,1,.2-.2h0l2.5.2.2.2Zm-32.2-.2-.2-.2c0-.2.1-.3.2-.3h2.5c.1,0,.2.1.2.3s-.1.2-.2.2Zm27.2,0h-2.4c-.2,0-.3-.1-.3-.2a.3.3,0,0,1,.3-.3h2.5c.1,0,.2.1.2.3S206.3,231.1,206.1,231.1Zm-22.2-.2c-.2,0-.3-.1-.3-.2s.1-.2.3-.2h2.4c.2,0,.3.1.3.2s-.1.3-.2.3Zm17.3,0h-2.5c-.1,0-.2-.1-.2-.3l.2-.2h2.5a.2.2,0,1,1,0,.4Zm-12.4-.1a.2.2,0,0,1-.2-.2l.2-.2h2.5l.2.2a.2.2,0,0,1-.2.2Zm7.4,0h-2.4c-.2,0-.3-.1-.3-.2s.1-.2.3-.2h2.4c.2,0,.3.1.3.2S196.4,230.8,196.2,230.8Z"/><ellipse class="c" cx="192.6" cy="243.5" rx="61.3" ry="10.7"/><path class="e" d="M132.5,245.6c5.8-4.8,30.5-8.5,60.1-8.5s54.4,3.7,60.1,8.5a3.1,3.1,0,0,0,1.3-2.1c0-5.9-27.5-10.7-61.4-10.7s-61.3,4.8-61.3,10.7A2.9,2.9,0,0,0,132.5,245.6Z"/><path class="e" d="M172.9,249.1c-2.7-.5-4.5-1.2-5.3-2.1h-3.5a16.9,16.9,0,0,1-3.5-.3c-.9-.2-1.3-.4-1.3-.7s.4-.6,1.3-.8l3.5-.2h3.2c.7-1.1,2.2-2,4.6-2.8a8.4,8.4,0,0,1,1.8-.3h2.6a21.2,21.2,0,0,1,3.7.2q1.5.3,1.5.6t-.3.3l-1,.5a6.5,6.5,0,0,0-2.4,1.2,1.3,1.3,0,0,0-.7,1.1q0,.8,1.2,1.2a11.8,11.8,0,0,0,3.7.4,7.8,7.8,0,0,0,2.4-.3,5,5,0,0,0,1.6-.5l1.4-1.1a13.4,13.4,0,0,1,2.7-1.7,14.2,14.2,0,0,1,4.3-1.2,42.9,42.9,0,0,1,7.9-.5,47.3,47.3,0,0,1,9.8.8c2.8.5,4.6,1.2,5.5,2.1h3.6a17.5,17.5,0,0,1,3.5.3c.9.2,1.3.4,1.3.7s-.4.5-1.3.7a16.9,16.9,0,0,1-3.5.3h-3.4c-.6.8-2.1,1.6-4.4,2.3l-1.9.4H209l-3.7-.2q-1.5-.3-1.5-.6c0-.2.1-.3.3-.4l1-.4,1.2-.5,1.4-.7a1.1,1.1,0,0,0,.5-.9c0-.4-.4-.7-1.3-1a13.4,13.4,0,0,0-3.8-.4,10.1,10.1,0,0,0-3.4.4,9.6,9.6,0,0,0-2.2,1.5,10.6,10.6,0,0,1-2.6,1.7,13.3,13.3,0,0,1-4.3,1.2,42.7,42.7,0,0,1-8,.5A53.4,53.4,0,0,1,172.9,249.1Z"/><path class="e" d="M250.3,252.6v13.3l1.4-.4V252.2Z"/><path class="e" d="M235.7,255.4v13.3l1.4-.2V255.2Z"/><path class="e" d="M221.1,257.1v13.3h1.4V257Z"/><path class="e" d="M206.5,258v13.3h1.4V258Z"/><path class="e" d="M192.6,258.3h-.7v13.3h1.4V258.3Z"/><path class="e" d="M177.3,258v13.3h1.5V258Z"/><path class="e" d="M162.7,257v13.3h1.5V257.1Z"/><path class="e" d="M148.1,255.2v13.3l1.5.2V255.4Z"/><path class="e" d="M133.5,252.2v13.3l1.5.4V252.6Z"/><path class="c" d="M129.7,242.2c0,8.2,32.7,14.9,73,14.9s73-6.7,73-14.9V228.9h-146Z"/><ellipse class="d" cx="202.7" cy="228.9" rx="73" ry="14.8"/><path class="e" d="M202.7,242h-1.2l-.3-.2c0-.1.2-.2.3-.2H204a.2.2,0,0,1,.2.2l-.2.2Zm-3.7,0h-2.5c-.1,0-.2-.1-.2-.3l.2-.2H199c.2,0,.3.1.3.2S199.2,242,199,242Zm7.4,0-.2-.2a.2.2,0,0,1,.2-.2h2.5c.2,0,.3.1.3.2a.3.3,0,0,1-.3.3Zm-12.3-.1h-2.5l-.3-.2.3-.2h2.5l.2.2A.2.2,0,0,1,194.1,241.9Zm17.3,0c-.1,0-.3-.1-.3-.2s.1-.2.3-.2h2.5l.2.2a.2.2,0,0,1-.2.2Zm-22.3-.1h0l-2.5-.2-.2-.2c0-.1.1-.2.3-.2h2.4c.2,0,.3.1.3.2A.3.3,0,0,1,189.1,241.8Zm27.2,0c-.1,0-.2-.1-.2-.3a.2.2,0,0,1,.2-.2h2.5c.2,0,.3.1.3.2s-.1.2-.3.2l-2.5.2Zm-32.1-.3h-2.5c-.1,0-.2-.1-.2-.3l.2-.2,2.5.2a.2.2,0,1,1,0,.4Zm37.1,0-.3-.2c0-.1.1-.2.3-.2l2.4-.2c.2,0,.3.1.3.2s-.1.3-.2.3Zm-42.1-.3h0l-2.4-.2c-.2,0-.3-.1-.3-.2s.1-.2.3-.2l2.5.2.2.2C179.5,241.1,179.4,241.2,179.2,241.2Zm47,0-.2-.2.2-.2,2.5-.2c.1,0,.2,0,.2.2a.2.2,0,0,1-.2.2l-2.5.2Zm-51.9-.4h0l-2.5-.2-.2-.3c0-.1.1-.2.3-.2l2.4.3c.2,0,.3.1.3.2Zm56.9,0c-.2,0-.3-.1-.3-.2l.2-.2,2.5-.3.3.2-.3.3-2.4.2Zm-61.8-.5h0l-2.5-.3-.2-.2c0-.2.1-.2.3-.2l2.4.3c.2,0,.3.1.2.2A.2.2,0,0,1,169.4,240.3Zm66.7,0c-.2,0-.3-.1-.3-.2l.2-.2,2.5-.3c.1,0,.3,0,.3.2l-.2.2-2.5.3Zm-71.6-.6h0l-2.5-.3-.2-.3c0-.1.1-.2.3-.2l2.4.4c.2,0,.3.1.2.2Zm76.5,0-.3-.2.2-.2,2.5-.4.3.2a.2.2,0,0,1-.2.2l-2.5.4Zm-81.4-.7h0l-2.5-.4-.2-.3.3-.2,2.4.4c.2.1.3.2.2.3Zm86.3,0c-.2,0-.3-.1-.3-.2s.1-.3.2-.3l2.4-.4c.2,0,.3.1.3.2s0,.2-.2.2l-2.4.5Zm-91.1-.9h-.1l-2.4-.5c-.2,0-.2-.2-.2-.3a.2.2,0,0,1,.3-.1l2.4.5a.2.2,0,0,1,.2.2Zm95.9,0-.2-.2c-.1-.1,0-.2.2-.3l2.4-.5.3.2-.2.3-2.4.5ZM149.9,237h0l-2.4-.6c-.1,0-.2-.2-.2-.3s.2-.2.4-.1l2.3.6c.1,0,.2.1.2.3Zm105.6,0h-.2c-.1-.2,0-.3.1-.3l2.4-.7.3.2c.1.1,0,.2-.1.3l-2.4.6Zm-110.3-1.3h-.1l-2.3-.8c-.1-.1-.2-.2-.1-.3s.2-.2.3-.2l2.3.9.2.2Zm115,0-.2-.2c-.1-.1,0-.2.1-.3a12.3,12.3,0,0,0,2.3-.8h.4c0,.2,0,.3-.2.3l-2.3.9Zm-119.5-1.8h-.1l-2.1-1.2c-.1-.1-.2-.2-.1-.3h.4l2,1.2c.1.1.2.2.1.3Zm124.1,0h-.3c0-.1,0-.3.1-.3l2.1-1.2c.1-.1.3-.1.3,0a.3.3,0,0,1,0,.4l-2.1,1.2Zm-128-2.7h-.2a4.8,4.8,0,0,1-.9-2.1c0-.1.1-.2.3-.2h0c.1,0,.2,0,.2.2a3.4,3.4,0,0,0,.8,1.9.2.2,0,0,1,0,.3Zm131.8,0h-.1c-.2-.1-.2-.2-.1-.3a2.9,2.9,0,0,0,.8-1.9h0a.2.2,0,0,1,.2-.2h0c.1,0,.3.1.3.2h0a3.5,3.5,0,0,1-.9,2.2Zm-131.8-4h-.2c-.1,0-.1-.2,0-.3a7.3,7.3,0,0,1,1.8-1.6c.1-.1.2,0,.3.1a.2.2,0,0,1,0,.3,6.5,6.5,0,0,0-1.7,1.5Zm131.7-.2h-.2l-1.7-1.4a.4.4,0,0,1-.1-.3c.1-.1.3-.2.4-.1a7.3,7.3,0,0,1,1.8,1.6.2.2,0,0,1,0,.3Zm-127.9-2.6h-.2c-.1-.1,0-.2.1-.3l2.2-1h.3c.1.2,0,.3-.1.3l-2.2,1Zm124,0h-.1l-2.2-.9c-.1-.1-.2-.2-.1-.3a.2.2,0,0,1,.3-.1l2.3.9a.4.4,0,0,1,.1.3Zm-119.5-1.8h-.2a.2.2,0,0,1,.1-.3l2.4-.7a.2.2,0,0,1,.3.1c0,.1,0,.3-.2.3l-2.3.7Zm115,0H260l-2.3-.7-.2-.3.3-.2,2.4.8c.1,0,.2.1.1.2Zm-110.3-1.3a.2.2,0,0,1-.2-.2c0-.1,0-.2.2-.2l2.4-.6h.3c0,.2-.1.3-.2.3l-2.4.6Zm105.6-.1h-.1l-2.4-.5c-.1-.1-.2-.2-.1-.3s.1-.2.3-.2l2.4.6a.2.2,0,0,1,.1.3Zm-100.8-1-.2-.2c0-.1,0-.2.2-.2l2.4-.5.3.2-.2.2-2.4.5Zm96,0h-.1l-2.4-.5-.2-.2c0-.2.2-.2.3-.2l2.4.4c.2.1.3.2.2.3Zm-91.1-.9c-.1,0-.2,0-.3-.2l.2-.2,2.5-.4.3.2a.2.2,0,0,1-.2.2l-2.5.4Zm86.2,0h0l-2.4-.4c-.2,0-.3-.1-.2-.2s.1-.2.2-.2l2.5.4.2.2C246,219.2,245.9,219.3,245.7,219.3Zm-81.3-.7c-.2,0-.3-.1-.3-.2a.2.2,0,0,1,.2-.2l2.5-.4.3.2c0,.2-.1.3-.2.3l-2.5.3Zm76.5,0h-.1l-2.4-.3c-.2-.1-.3-.2-.2-.3l.2-.2,2.5.3.2.3Zm-71.6-.6c-.2,0-.3-.1-.3-.2a.2.2,0,0,1,.2-.2l2.5-.3c.2,0,.3.1.3.2l-.2.2-2.5.3Zm66.6,0h0l-2.4-.3c-.2,0-.3-.1-.3-.2s.2-.2.3-.2l2.5.2c.1,0,.2.2.2.3S236.1,218,235.9,218Zm-61.7-.5-.3-.2c0-.1.1-.2.3-.2l2.4-.3c.2,0,.3.1.3.2s-.1.3-.2.3l-2.5.2Zm56.8,0h0l-2.5-.2c-.1,0-.2-.2-.2-.3l.3-.2,2.5.2c.1.1.2.2.2.3S231.2,217.5,231,217.5Zm-51.9-.4-.2-.2.2-.3h2.5l.2.2a.2.2,0,0,1-.2.2l-2.5.2Zm47,0h0l-2.5-.2a.2.2,0,0,1-.2-.2l.2-.2h2.5c.2,0,.3.2.2.3Zm-42-.3c-.2,0-.3-.1-.3-.2s.1-.3.2-.3h2.5c.2,0,.3.1.3.2s-.1.2-.3.2l-2.4.2Zm37.1,0h-.1l-2.4-.2c-.2,0-.3-.1-.3-.2l.3-.2h2.5c.1,0,.2.1.2.3A.2.2,0,0,1,221.2,216.8Zm-32.2-.3-.2-.2c-.1-.1.1-.2.2-.2h2.5l.2.2a.2.2,0,0,1-.2.2Zm27.2,0h-2.5a.2.2,0,0,1-.2-.2l.2-.2h2.5c.2,0,.3.1.3.2Zm-22.3-.1a.2.2,0,0,1-.2-.2c0-.2.1-.3.2-.3h2.5c.2,0,.3.1.3.2s-.1.2-.3.2h-2.5Zm17.4,0h-2.5l-.3-.2.3-.2h2.5c.1,0,.2.1.2.3A.2.2,0,0,1,211.3,216.4Zm-12.4-.1-.3-.2a.3.3,0,0,1,.3-.3h2.5l.2.2c0,.2-.1.3-.2.3Zm7.4,0h-2.5c-.1,0-.2-.1-.2-.3a.2.2,0,0,1,.2-.2h2.5a.3.3,0,0,1,.3.3C206.6,216.2,206.5,216.3,206.3,216.3Z"/><ellipse class="c" cx="202.7" cy="228.9" rx="61.3" ry="10.7"/><path class="e" d="M142.6,231.1c5.7-4.9,30.5-8.5,60.1-8.5s54.4,3.6,60.1,8.5a2.9,2.9,0,0,0,1.2-2.2c0-5.9-27.4-10.6-61.3-10.6s-61.3,4.7-61.3,10.6A2.9,2.9,0,0,0,142.6,231.1Z"/><path class="e" d="M183,234.6c-2.7-.6-4.5-1.3-5.3-2.2h-3.5a16.2,16.2,0,0,1-3.5-.3c-.9-.1-1.4-.4-1.4-.7s.5-.5,1.4-.7a16.2,16.2,0,0,1,3.5-.3h3.2c.6-1,2.2-2,4.6-2.7l1.7-.4h2.7a18.6,18.6,0,0,1,3.6.3c1.1.1,1.6.3,1.6.6s-.1.2-.3.3l-1.1.5a14.2,14.2,0,0,0-2.4,1.1,1.9,1.9,0,0,0-.7,1.2c0,.5.5.9,1.3,1.2a16.4,16.4,0,0,0,3.7.3,8.2,8.2,0,0,0,2.4-.2,2.6,2.6,0,0,0,1.5-.6l1.5-1,2.7-1.8a21.8,21.8,0,0,1,4.3-1.2,53,53,0,0,1,7.9-.5,56.3,56.3,0,0,1,9.8.8c2.8.6,4.6,1.3,5.5,2.2h3.5l3.5.2c1,.2,1.4.5,1.4.8s-.4.5-1.3.7a17.3,17.3,0,0,1-3.6.3h-3.3c-.6.8-2.1,1.5-4.4,2.3l-1.9.4h-2.5a19.8,19.8,0,0,1-3.7-.3q-1.5-.3-1.5-.6c0-.1,0-.2.2-.3l1.1-.5,1.2-.4,1.4-.8a1,1,0,0,0,.5-.8c0-.4-.5-.8-1.4-1.1a16.6,16.6,0,0,0-3.7-.4,9.8,9.8,0,0,0-3.4.5,7.2,7.2,0,0,0-2.2,1.5,14.5,14.5,0,0,1-2.6,1.7,16.5,16.5,0,0,1-4.3,1.2,54.5,54.5,0,0,1-8,.5A53.4,53.4,0,0,1,183,234.6Z"/><path class="e" d="M260.4,238v13.3l1.4-.4V237.6Z"/><path class="e" d="M245.8,240.9v13.3l1.4-.2V240.7Z"/><path class="e" d="M231.2,242.6v13.3h1.4V242.5Z"/><path class="e" d="M216.6,243.5v13.3H218V243.4Z"/><path class="e" d="M202.7,243.8H202v13.3h1.4V243.8Z"/><path class="e" d="M187.4,243.4v13.3h1.4V243.5Z"/><path class="e" d="M172.8,242.5v13.3h1.4V242.6Z"/><path class="e" d="M158.2,240.7V254l1.4.2V240.9Z"/><path class="e" d="M143.6,237.6v13.3l1.4.4V238Z"/><path class="f" d="M118.9,228.8c0,8.2,32.7,14.8,73,14.8s73-6.6,73-14.8V215.5h-146Z"/><ellipse class="d" cx="191.9" cy="215.5" rx="73" ry="14.8"/><path class="e" d="M191.9,228.6h-1.2a.3.3,0,0,1-.3-.3l.3-.2h2.5a.2.2,0,0,1,.2.2c0,.2-.1.3-.2.3Zm-3.7,0h-2.5l-.2-.2a.2.2,0,0,1,.2-.2h2.5c.2,0,.3.1.3.2A.3.3,0,0,1,188.2,228.6Zm7.4,0c-.1,0-.2-.1-.2-.3a.2.2,0,0,1,.2-.2h2.5c.2,0,.3.1.3.2s-.1.2-.3.2Zm-12.3-.1h-2.5c-.1,0-.3-.1-.2-.2s.1-.3.2-.3h2.5l.2.2C183.5,228.4,183.4,228.5,183.3,228.5Zm17.3,0q-.2,0-.3-.3l.3-.2h2.5c.1,0,.2.1.2.3a.2.2,0,0,1-.2.2Zm-22.3-.2h-2.5a.2.2,0,0,1-.2-.2c0-.2.1-.2.3-.2h2.4c.2,0,.3.1.3.2S178.5,228.3,178.3,228.3Zm27.2,0a.2.2,0,0,1-.2-.2l.2-.2H208c.2-.1.3,0,.3.2s-.1.2-.3.2h-2.5Zm-32.1-.2h0l-2.5-.2a.2.2,0,0,1-.2-.2c0-.1.1-.3.2-.2h2.5c.1,0,.2.1.2.3Zm37.1,0-.3-.2a.3.3,0,0,1,.3-.3h2.4c.2-.1.3.1.3.2a.2.2,0,0,1-.2.2l-2.5.2Zm-42.1-.3h0l-2.4-.2a.3.3,0,0,1-.3-.3c0-.1.1-.2.3-.2l2.5.2.2.2A.3.3,0,0,1,168.4,227.8Zm47-.1c-.1,0-.2,0-.2-.2l.2-.2,2.5-.2a.2.2,0,0,1,.2.2l-.2.3Zm-51.9-.3h0l-2.5-.2-.2-.2c0-.2.1-.2.3-.2l2.4.2a.3.3,0,0,1,.3.3Zm56.9-.1c-.2,0-.3,0-.3-.2l.2-.2,2.5-.2c.1-.1.2,0,.3.2s-.1.2-.3.2l-2.4.2Zm-61.8-.4h0l-2.5-.3-.2-.3c0-.1.1-.2.3-.2l2.4.3c.2,0,.3.1.2.3A.2.2,0,0,1,158.6,226.9Zm66.7-.1c-.2,0-.3,0-.3-.1s.1-.3.2-.3l2.5-.3c.1,0,.3.1.3.2l-.2.3-2.5.2Zm-71.6-.5h0l-2.5-.3c-.1,0-.2-.1-.2-.3s.1-.2.3-.1l2.4.3c.2,0,.3.1.2.3A.2.2,0,0,1,153.7,226.3Zm76.5-.1h-.3c0-.2.1-.3.2-.3l2.5-.3c.1-.1.2,0,.3.1s-.1.3-.2.3l-2.5.3Zm-81.4-.7h0l-2.5-.4c-.1,0-.2-.1-.2-.3s.2-.2.3-.1l2.5.4a.2.2,0,0,1,.2.2Zm86.3,0c-.2,0-.3-.1-.3-.2a.2.2,0,0,1,.2-.2l2.4-.4c.2-.1.3,0,.3.1s0,.3-.2.3l-2.4.4Zm-91.1-.9h-.1l-2.4-.5-.2-.2c0-.2.2-.2.3-.2l2.4.5c.1,0,.2.2.2.3Zm95.9,0h-.2c-.1-.2,0-.3.2-.3l2.4-.5c.1,0,.2,0,.3.2l-.2.2-2.4.5Zm-100.7-1h-.1l-2.4-.7a.2.2,0,0,1-.2-.2c.1-.2.2-.2.4-.2l2.3.6.2.3Zm105.5,0-.2-.2c-.1-.1,0-.2.1-.3l2.4-.6h.3c.1.2,0,.3-.1.3l-2.4.7Zm-110.3-1.4h-.1l-2.3-.8c-.1,0-.1-.2-.1-.3s.2-.2.3-.1l2.3.8c.1,0,.2.2.2.3Zm115,0h-.2c0-.1,0-.3.1-.3l2.3-.8c.2-.1.3,0,.4.1s0,.2-.2.3l-2.3.8Zm-119.5-1.7h-.1l-2.1-1.2a.2.2,0,0,1-.1-.3h.4a7.5,7.5,0,0,0,2,1.1c.1.1.2.2.1.3Zm124.1-.1h-.3a.4.4,0,0,1,.1-.3l2.1-1.2h.3a.2.2,0,0,1,0,.3l-2.1,1.2Zm-128-2.6h-.2a5.1,5.1,0,0,1-.9-2.2c0-.1.1-.2.3-.2h0l.2.2a3.1,3.1,0,0,0,.8,1.9.2.2,0,0,1,0,.3Zm131.8-.1h-.1c-.2-.1-.2-.2-.1-.3a3.4,3.4,0,0,0,.8-1.9h0l.2-.3h0a.3.3,0,0,1,.3.3h0a3.2,3.2,0,0,1-.9,2.1Zm-131.8-4h-.2a.2.2,0,0,1,0-.3,5.7,5.7,0,0,1,1.8-1.6.2.2,0,1,1,.3.3,6.5,6.5,0,0,0-1.7,1.5Zm131.7-.1h-.2a8.6,8.6,0,0,0-1.7-1.5c-.1,0-.1-.2-.1-.3h.4a7.1,7.1,0,0,1,1.8,1.5c.1.1.1.3,0,.3ZM129.8,211h-.2a.2.2,0,0,1,.1-.3l2.2-1a.2.2,0,0,1,.3.1c.1.1,0,.2-.1.3l-2.2,1Zm124-.1h-.1l-2.2-1a.2.2,0,0,1-.1-.3h.3l2.3,1c.1,0,.1.2.1.3Zm-119.5-1.7a.2.2,0,0,1-.2-.2c-.1-.1,0-.2.1-.2l2.4-.8.3.2c0,.1,0,.2-.2.3l-2.3.7Zm115-.1h-.1l-2.3-.7c-.1,0-.2-.2-.2-.3s.2-.2.3-.1l2.4.7a.2.2,0,0,1,.1.3ZM139,207.8c-.1,0-.2,0-.2-.1s0-.3.2-.3l2.4-.6.3.2-.2.3-2.4.5Zm105.6,0h-.1l-2.4-.6c-.1,0-.2-.1-.1-.2s.1-.2.3-.2l2.4.6c.1,0,.2.1.1.2Zm-100.8-1a.2.2,0,0,1-.2-.2c0-.1,0-.3.2-.3l2.4-.4a.2.2,0,0,1,.3.1c0,.2-.1.3-.2.3l-2.4.5Zm96-.1h-.1l-2.4-.4-.2-.3.3-.2,2.4.5c.2,0,.3.1.2.3Zm-91.1-.8-.3-.2.2-.3,2.5-.3c.1-.1.2,0,.3.1s-.1.3-.2.3l-2.5.4Zm86.2,0h0l-2.4-.3c-.2-.1-.3-.2-.2-.3l.2-.2,2.5.4c.1,0,.2.1.2.3S235.1,205.9,234.9,205.9Zm-81.3-.7c-.2,0-.3-.1-.3-.2s.1-.3.2-.3l2.5-.3.3.2-.2.2-2.5.3Zm76.5-.1H230l-2.4-.3c-.2,0-.3-.1-.2-.2s.1-.3.2-.2l2.5.3.2.2Zm-71.6-.6h-.3c0-.2.1-.3.2-.3l2.5-.3c.2,0,.3.1.3.2s-.1.3-.2.3l-2.5.2Zm66.7,0h-.1l-2.4-.2-.3-.3.3-.2,2.5.3a.2.2,0,1,1,0,.4Zm-61.8-.5c-.1,0-.2,0-.3-.2s.1-.2.3-.2l2.4-.2c.2,0,.3.1.3.2a.2.2,0,0,1-.2.2l-2.5.2Zm56.8,0h0l-2.5-.2a.2.2,0,0,1-.2-.2l.3-.2,2.5.2a.2.2,0,0,1,.2.2C220.5,203.9,220.4,204,220.2,204Zm-51.9-.4c-.1,0-.2,0-.2-.2a.2.2,0,0,1,.2-.2l2.5-.2.2.2c0,.2-.1.3-.2.3Zm47,0h-2.5c-.1,0-.2-.2-.2-.3s.1-.2.3-.2l2.4.2c.2,0,.3.1.2.2Zm-42-.3c-.2,0-.3-.1-.3-.2l.2-.2h2.5c.2-.1.3,0,.3.2s-.1.2-.3.2Zm37.1,0h-2.5c-.2,0-.3-.1-.3-.2l.3-.3h0l2.5.2.2.2A.2.2,0,0,1,210.4,203.3Zm-32.2-.2-.2-.2c-.1-.1.1-.3.2-.3h2.5c.1,0,.2,0,.2.2a.2.2,0,0,1-.2.2Zm27.2,0h-2.5l-.2-.2c0-.2.1-.3.2-.3h2.5a.3.3,0,0,1,.3.3C205.7,203,205.6,203.1,205.4,203.1Zm-22.2-.2c-.2,0-.3-.1-.3-.2l.2-.2h2.5c.2,0,.3.1.3.2a.3.3,0,0,1-.3.3Zm17.3,0H198a.3.3,0,0,1-.3-.3l.3-.2h2.5l.2.2A.2.2,0,0,1,200.5,202.9Zm-12.4-.1a.2.2,0,0,1-.2-.2c-.1-.1.1-.2.2-.2h2.5l.2.2-.2.2Zm7.4,0H193a.2.2,0,0,1-.2-.2l.2-.2h2.5c.2,0,.3.1.3.2S195.7,202.8,195.5,202.8Z"/><ellipse class="f" cx="191.9" cy="215.5" rx="61.3" ry="10.7"/><path class="e" d="M131.8,217.6c5.7-4.8,30.5-8.5,60.1-8.5s54.4,3.7,60.1,8.5a2.9,2.9,0,0,0,1.2-2.1c0-5.9-27.4-10.7-61.3-10.7s-61.3,4.8-61.3,10.7A2.9,2.9,0,0,0,131.8,217.6Z"/><path class="e" d="M172.2,221.1c-2.7-.5-4.5-1.2-5.3-2.1h-3.5a16.9,16.9,0,0,1-3.5-.3c-.9-.2-1.4-.4-1.4-.7s.5-.6,1.4-.8l3.5-.2h3.2c.6-1.1,2.2-2,4.6-2.8a8.4,8.4,0,0,1,1.8-.3h2.6a19.4,19.4,0,0,1,3.6.2c1.1.2,1.6.4,1.6.6l-.3.4-1,.4a8.3,8.3,0,0,0-2.5,1.2,1.5,1.5,0,0,0-.7,1.1c0,.6.5.9,1.3,1.2a11.4,11.4,0,0,0,3.7.4l2.4-.2,1.5-.6,1.5-1.1a13.3,13.3,0,0,1,7-2.9,42.2,42.2,0,0,1,7.9-.5,47.9,47.9,0,0,1,9.8.8c2.8.5,4.6,1.2,5.5,2.1h3.5a16.2,16.2,0,0,1,3.5.3c1,.2,1.4.4,1.4.7s-.4.6-1.3.7a17.3,17.3,0,0,1-3.6.3h-3.3c-.6.8-2.1,1.6-4.4,2.3l-1.9.4h-2.5l-3.7-.2q-1.5-.3-1.5-.6c0-.2,0-.3.2-.4l1.1-.4,1.2-.5,1.4-.7a1.4,1.4,0,0,0,.5-.9c0-.4-.5-.7-1.4-1a12.2,12.2,0,0,0-3.7-.4,7.9,7.9,0,0,0-3.4.5,6.8,6.8,0,0,0-2.2,1.4,10.6,10.6,0,0,1-2.6,1.7,13.3,13.3,0,0,1-4.3,1.2,43.4,43.4,0,0,1-8,.5A45.7,45.7,0,0,1,172.2,221.1Z"/><path class="e" d="M249.6,224.6v13.3l1.4-.4V224.2Z"/><path class="e" d="M235,227.5v13.3l1.4-.3V227.2Z"/><path class="e" d="M220.4,229.1v13.3h1.4V229Z"/><path class="e" d="M205.8,230v13.3h1.4V230Z"/><path class="e" d="M191.9,230.3h-.7v13.3h1.4V230.3Z"/><path class="e" d="M176.6,230v13.3H178V230Z"/><path class="e" d="M162,229v13.3h1.4V229.1Z"/><path class="e" d="M147.4,227.2v13.3l1.4.3V227.5Z"/><path class="e" d="M132.8,224.2v13.3l1.4.4V224.6Z"/><path class="c" d="M127.7,215.4c0,8.2,32.7,14.9,73,14.9s73-6.7,73-14.9V202.1h-146Z"/><path class="d" d="M273.7,202.1c0,8.2-32.7,14.9-73,14.9s-73-6.7-73-14.9,32.7-14.8,73-14.8S273.7,193.9,273.7,202.1Z"/><path class="e" d="M200.7,215.2h-1.2l-.2-.2.2-.2H202l.2.2-.2.2Zm-3.7,0h-2.4a.3.3,0,0,1-.3-.3c0-.1.1-.2.3-.2H197c.2,0,.3.1.3.2S197.2,215.2,197,215.2Zm7.5,0c-.2,0-.3-.1-.3-.2s.1-.2.3-.2h2.4c.2,0,.3.1.3.2a.3.3,0,0,1-.3.3Zm-12.4-.1h-2.5l-.2-.2a.2.2,0,0,1,.2-.2h2.5l.2.2Zm17.3,0-.2-.2.2-.2h2.5a.2.2,0,0,1,.2.2l-.2.2Zm-22.3-.1h0l-2.4-.2c-.2,0-.3-.1-.3-.2s.1-.2.3-.2h2.5a.2.2,0,0,1,.2.2A.3.3,0,0,1,187.1,215Zm27.3-.1c-.2,0-.3,0-.3-.2s.1-.2.3-.2h2.4c.2,0,.3.1.3.2s-.1.2-.3.2Zm-32.2-.2h-2.5c-.1,0-.2-.1-.2-.3a.2.2,0,0,1,.2-.2l2.5.2c.2,0,.3.1.2.2A.2.2,0,0,1,182.2,214.7Zm37.1,0a.2.2,0,0,1,0-.4l2.5-.2a.2.2,0,0,1,.2.2c0,.1-.1.3-.2.3Zm-42-.3h-.1l-2.4-.2c-.2,0-.3-.1-.2-.2s.1-.2.2-.2l2.5.2.2.2A.2.2,0,0,1,177.3,214.4Zm46.9,0a.2.2,0,0,1-.2-.2l.2-.2,2.5-.2c.1,0,.2,0,.3.2s-.1.2-.3.2l-2.4.2Zm-51.9-.4h0l-2.5-.2-.2-.3c0-.1.1-.2.3-.2l2.5.3a.2.2,0,0,1,.2.2C172.6,213.9,172.5,214,172.3,214Zm56.9,0c-.2,0-.3-.1-.3-.2s.1-.2.2-.3l2.5-.2c.2,0,.3.1.3.2l-.2.3-2.5.2Zm-61.8-.5h0l-2.5-.3-.2-.2c0-.2.2-.2.3-.2l2.4.3c.2,0,.3.1.3.2Zm66.7,0-.3-.2q0-.2.3-.3l2.4-.2c.1,0,.3,0,.3.2l-.2.2-2.5.3Zm-71.6-.6h0l-2.5-.4-.2-.2c0-.1.2-.2.3-.2l2.4.4c.2,0,.3.1.3.2Zm76.5,0a.2.2,0,0,1-.2-.2c-.1-.1,0-.2.2-.3l2.4-.3c.2,0,.3.1.3.2l-.2.2-2.5.4Zm-81.4-.7h0l-2.5-.5c-.1,0-.2-.1-.1-.2l.2-.2,2.5.4.2.3Zm86.3,0-.3-.2c0-.1.1-.3.2-.3l2.5-.4.3.2-.2.2-2.5.5Zm-91.1-.9h-.1l-2.4-.5-.2-.3.3-.2,2.4.6c.2,0,.2.1.2.2A.2.2,0,0,1,152.8,211.3Zm95.9,0a.2.2,0,0,1-.2-.2c0-.1,0-.2.2-.3l2.4-.5.3.2-.2.3-2.4.5ZM148,210.2h-.1l-2.4-.6c-.1-.1-.2-.2-.1-.3s.1-.2.3-.1l2.3.6c.2,0,.2.1.2.3Zm105.5,0-.2-.2c0-.1,0-.2.2-.2l2.3-.7c.2,0,.3.1.3.2s0,.2-.1.3l-2.4.6Zm-110.2-1.3h-.1l-2.3-.9c-.2,0-.2-.1-.2-.2s.2-.2.4-.2l2.2.9c.2,0,.2.1.2.2Zm115,0-.3-.2c0-.1,0-.2.2-.3l2.3-.8h.3c0,.1,0,.3-.2.3a12.3,12.3,0,0,1-2.3.8Zm-119.6-1.8h-.1l-2.1-1.2a.4.4,0,0,1-.1-.3h.4l2,1.2c.2,0,.2.2.1.3Zm124.1,0h-.2c-.1-.1-.1-.3.1-.3l2-1.2h.4c0,.1,0,.3-.1.3a7.2,7.2,0,0,1-2.1,1.2Zm-127.9-2.7h-.2a3.2,3.2,0,0,1-.9-2.1c0-.2.1-.3.2-.3h0a.3.3,0,0,1,.3.3,2.8,2.8,0,0,0,.8,1.9.5.5,0,0,1-.1.3Zm131.7,0h-.1c-.1-.1-.2-.2-.1-.3a3.1,3.1,0,0,0,.8-1.9h0l.2-.2h0c.2,0,.3.1.3.2h0a3.5,3.5,0,0,1-.9,2.2Zm-131.8-4h-.2a.2.2,0,0,1,0-.3,7.3,7.3,0,0,1,1.8-1.6.2.2,0,0,1,.3.1.2.2,0,0,1,0,.3,8.6,8.6,0,0,0-1.7,1.5Zm131.7-.2h-.2a8.5,8.5,0,0,0-1.7-1.4.2.2,0,0,1,0-.3.2.2,0,0,1,.3-.1,5.7,5.7,0,0,1,1.8,1.6.2.2,0,0,1,0,.3Zm-127.9-2.6h-.2c-.1-.1,0-.2.1-.3l2.2-1h.4c0,.2,0,.3-.2.3l-2.2,1Zm124.1-.1h-.2l-2.2-.9a.4.4,0,0,1-.1-.3c.1-.1.2-.2.3-.1l2.3.9a.4.4,0,0,1,.1.3Zm-119.6-1.7c-.1,0-.2,0-.2-.1s0-.3.2-.3l2.3-.7a.2.2,0,1,1,.2.4l-2.4.7Zm115,0h0l-2.4-.7c-.1-.1-.2-.2-.1-.3s.1-.2.3-.2l2.3.7c.2.1.2.2.2.3Zm-110.2-1.3c-.2,0-.3-.1-.3-.2s.1-.2.2-.3l2.4-.5a.2.2,0,0,1,.3.1c0,.2-.1.3-.2.3l-2.4.6Zm105.5-.1h-.1l-2.3-.5c-.2-.1-.3-.2-.2-.3l.3-.2,2.4.6c.1,0,.2.2.2.3Zm-100.7-1c-.2,0-.3-.1-.3-.2l.2-.2,2.4-.5c.2,0,.3.1.3.2s0,.2-.2.2l-2.4.5Zm95.9,0h0l-2.5-.5c-.1,0-.2-.1-.2-.3s.2-.2.3-.1l2.5.4.2.3Zm-91.1-.9c-.1,0-.2,0-.2-.2s0-.2.2-.2l2.4-.4.3.2-.2.2-2.4.4Zm86.3,0h-.1l-2.4-.4c-.2,0-.2-.1-.2-.2s.1-.2.3-.2l2.4.4a.2.2,0,0,1,.2.2Zm-81.4-.7-.3-.2c0-.1.1-.2.3-.2l2.4-.4.3.2c0,.1-.1.3-.2.3l-2.5.3Zm76.5,0h-.1l-2.4-.3c-.1-.1-.2-.2-.2-.3s.1-.2.3-.2l2.4.3c.1,0,.2.2.2.3A.2.2,0,0,1,238.9,191.8Zm-71.6-.6-.3-.2.3-.3,2.4-.2c.2,0,.3.1.3.2a.2.2,0,0,1-.2.2l-2.5.3Zm66.7,0h-.1l-2.4-.3c-.2,0-.2-.1-.2-.2s.1-.2.2-.2l2.5.2c.1,0,.2.2.2.3Zm-61.8-.5-.2-.2.2-.3,2.5-.2a.2.2,0,0,1,.2.2c0,.2-.1.3-.2.3l-2.5.2Zm56.9,0H229l-2.4-.2a.3.3,0,0,1-.3-.3l.3-.2,2.5.2c.1,0,.2.2.2.3Zm-52-.4a.2.2,0,0,1-.2-.2l.2-.3h2.5c.1-.1.2.1.3.2s-.1.2-.3.2l-2.4.2Zm47,0h0l-2.5-.2-.2-.2c0-.2.1-.3.3-.2h2.4a.3.3,0,0,1,.3.3Zm-42-.3-.3-.2a.3.3,0,0,1,.3-.3h2.4c.2,0,.3.1.3.2l-.2.2-2.5.2Zm37.1,0h0l-2.5-.2a.2.2,0,0,1-.2-.2l.2-.2h2.5c.1,0,.2.1.2.3A.2.2,0,0,1,219.2,190Zm-32.2-.3-.2-.2.2-.2h2.5a.2.2,0,0,1,.2.2c.1.1-.1.2-.2.2Zm27.2,0h-2.4c-.2,0-.3-.1-.3-.2s.1-.2.3-.2h2.5l.2.2C214.5,189.6,214.4,189.7,214.2,189.7Zm-22.2-.1c-.2,0-.3-.1-.3-.2a.3.3,0,0,1,.3-.3h2.4c.2,0,.3.1.3.2l-.2.2Zm17.3,0h-2.5a.2.2,0,0,1,0-.4h2.5a.2.2,0,0,1,.2.2C209.5,189.5,209.4,189.6,209.3,189.6Zm-12.4-.1-.2-.2c0-.2.1-.3.2-.3h2.5l.2.2c0,.2-.1.3-.2.3Zm7.4,0h-2.4a.3.3,0,0,1-.3-.3c0-.1.1-.2.3-.2h2.4a.3.3,0,0,1,.3.3C204.6,189.4,204.5,189.5,204.3,189.5Z"/><ellipse class="c" cx="200.7" cy="202.1" rx="61.3" ry="10.7"/><path class="e" d="M140.6,204.3c5.7-4.9,30.5-8.6,60.1-8.6s54.4,3.7,60.1,8.6a3.1,3.1,0,0,0,1.3-2.2c0-5.9-27.5-10.7-61.4-10.7s-61.3,4.8-61.3,10.7A2.9,2.9,0,0,0,140.6,204.3Z"/><path class="e" d="M181,207.8c-2.7-.6-4.5-1.3-5.3-2.2h-3.5a16.9,16.9,0,0,1-3.5-.3c-.9-.1-1.3-.4-1.3-.7s.4-.5,1.3-.7a16.9,16.9,0,0,1,3.5-.3h3.2c.7-1.1,2.2-2,4.6-2.7l1.8-.4h2.6a20.5,20.5,0,0,1,3.7.3q1.5.2,1.5.6l-.3.3-1,.4-2.4,1.2a1.5,1.5,0,0,0-.7,1.2c0,.5.4.9,1.2,1.1a11.8,11.8,0,0,0,3.7.4,8.2,8.2,0,0,0,2.4-.2l1.6-.6,1.4-1,2.7-1.8a24.1,24.1,0,0,1,4.3-1.2,54,54,0,0,1,7.9-.5,55.4,55.4,0,0,1,9.8.8c2.8.6,4.6,1.3,5.5,2.2h3.6l3.5.2c.9.2,1.3.5,1.3.8s-.4.5-1.3.7a16.9,16.9,0,0,1-3.5.3h-3.4c-.6.8-2.1,1.5-4.4,2.3l-1.9.4h-2.5a20.5,20.5,0,0,1-3.7-.3q-1.5-.3-1.5-.6l.3-.3,1-.5,1.2-.4,1.4-.8a1,1,0,0,0,.5-.8c0-.4-.4-.8-1.4-1.1a16.6,16.6,0,0,0-3.7-.4,9.8,9.8,0,0,0-3.4.5,9,9,0,0,0-2.2,1.4,11,11,0,0,1-2.6,1.8,21.8,21.8,0,0,1-4.3,1.2,61.4,61.4,0,0,1-17.7-.3Z"/><path class="e" d="M258.4,211.2v13.3l1.4-.4V210.8Z"/><path class="e" d="M243.8,214.1v13.3l1.4-.2V213.9Z"/><path class="e" d="M229.2,215.8v13.3h1.4V215.7Z"/><path class="e" d="M214.6,216.7V230H216V216.6Z"/><path class="e" d="M200.7,217H200v13.3h1.4V217Z"/><path class="e" d="M185.4,216.6v13.3h1.4V216.7Z"/><path class="e" d="M170.8,215.7V229h1.5V215.8Z"/><path class="e" d="M156.2,213.9v13.3l1.5.2V214.1Z"/><path class="e" d="M141.6,210.8v13.3l1.5.4V211.2Z"/><path class="f" d="M118.9,200.9c0,8.2,32.7,14.8,73,14.8s73-6.6,73-14.8V187.6h-146Z"/><ellipse class="d" cx="191.9" cy="187.6" rx="73" ry="14.8"/><path class="e" d="M191.9,200.7h-1.2a.3.3,0,0,1-.3-.3l.3-.2h2.5a.2.2,0,0,1,.2.2c0,.2-.1.3-.2.3Zm-3.7,0h-2.5l-.2-.2a.2.2,0,0,1,.2-.2h2.5c.2,0,.3.1.3.2A.3.3,0,0,1,188.2,200.7Zm7.4,0c-.1,0-.2-.1-.2-.3a.2.2,0,0,1,.2-.2h2.5c.2,0,.3.1.3.2s-.1.2-.3.2Zm-12.3-.1h-2.5c-.1,0-.3-.1-.2-.2s.1-.3.2-.2h2.5c.1,0,.2.1.2.3Zm17.3,0-.3-.2a.3.3,0,0,1,.3-.3h2.5c.1,0,.2,0,.2.2l-.2.2Zm-22.3-.2h-2.5a.2.2,0,0,1-.2-.2c0-.2.1-.2.3-.2h2.4c.2,0,.3.1.3.2S178.5,200.4,178.3,200.4Zm27.2,0a.2.2,0,0,1-.2-.2l.2-.2H208c.2-.1.3,0,.3.2s-.1.2-.3.2h-2.5Zm-32.1-.2h0l-2.5-.2-.2-.2c0-.1.1-.3.2-.2h2.5c.1,0,.2.1.2.3Zm37.1,0-.3-.2a.3.3,0,0,1,.3-.3h2.4c.2-.1.3.1.3.2l-.2.2-2.5.2Zm-42.1-.3h0l-2.4-.2a.3.3,0,0,1-.3-.3c0-.1.1-.2.3-.2l2.5.2c.1,0,.2.1.2.3S168.6,199.9,168.4,199.9Zm47,0c-.1,0-.2-.1-.2-.3l.2-.2,2.5-.2a.2.2,0,0,1,.2.2c0,.1-.1.3-.2.3l-2.5.2Zm-51.9-.4h0l-2.5-.3-.2-.2c0-.1.1-.2.3-.2l2.4.2a.3.3,0,0,1,.3.3Zm56.9-.1c-.2,0-.3,0-.3-.2a.2.2,0,0,1,.2-.2l2.5-.2c.1,0,.2,0,.3.2s-.1.2-.3.2l-2.4.2Zm-61.8-.4h0l-2.5-.3c-.1,0-.2-.2-.2-.3s.1-.2.3-.2l2.4.3c.2,0,.3.1.2.3Zm66.7,0c-.2,0-.3-.1-.3-.2s.1-.3.2-.3l2.5-.3.3.2-.2.3-2.5.2Zm-71.6-.6h0l-2.5-.4c-.1,0-.2-.1-.2-.3s.1-.2.3-.1l2.4.3c.2,0,.3.1.2.3A.2.2,0,0,1,153.7,198.4Zm76.5-.1c-.1,0-.3,0-.3-.1s.1-.3.2-.3l2.5-.3c.1-.1.2,0,.3.1s-.1.3-.2.3l-2.5.3Zm-81.4-.7h0l-2.5-.4c-.1,0-.2-.1-.2-.3s.2-.2.3-.1l2.5.4a.2.2,0,0,1,.2.2C149,197.6,148.9,197.6,148.8,197.6Zm86.3,0c-.2,0-.3-.1-.3-.2a.2.2,0,0,1,.2-.2l2.4-.4c.2-.1.3,0,.3.1s0,.3-.2.3l-2.4.4Zm-91.1-.8a.1.1,0,0,1-.1-.1l-2.4-.5-.2-.2.3-.2,2.4.5c.1,0,.2.2.2.3A.2.2,0,0,1,144,196.8Zm95.9-.1h-.2c-.1-.2,0-.3.2-.3l2.4-.5c.1,0,.2,0,.3.2l-.2.2-2.4.5Zm-100.7-1h-.1l-2.4-.7-.2-.2c.1-.2.2-.2.4-.2l2.3.6.2.3A.2.2,0,0,1,139.2,195.7Zm105.5,0-.2-.2c-.1-.1,0-.2.1-.3l2.4-.6h.3c.1.2,0,.3-.1.3l-2.4.7Zm-110.3-1.4h-.1l-2.3-.8c-.1,0-.1-.2-.1-.3h.3l2.3.8.2.3Zm115,0c-.1,0-.2,0-.2-.1s0-.3.1-.3l2.3-.8c.2-.1.3,0,.4.1s0,.2-.2.3l-2.3.8Zm-119.5-1.7h-.1l-2.1-1.2a.2.2,0,0,1-.1-.3h.4a7.5,7.5,0,0,0,2,1.1c.1.1.2.2.1.3Zm124.1-.1h-.3a.4.4,0,0,1,.1-.3l2.1-1.1h.3a.2.2,0,0,1,0,.3l-2.1,1.2Zm-128-2.6h-.2a4.7,4.7,0,0,1-.9-2.2c0-.1.1-.2.3-.2h0l.2.2a3.1,3.1,0,0,0,.8,1.9.2.2,0,0,1,0,.3Zm131.8-.1h-.1c-.2-.1-.2-.2-.1-.3a3.4,3.4,0,0,0,.8-1.9h0l.2-.2h0c.1,0,.3,0,.3.2h0a3.2,3.2,0,0,1-.9,2.1C258,189.8,257.9,189.8,257.8,189.8Zm-131.8-4h-.2a.2.2,0,0,1,0-.3,5.7,5.7,0,0,1,1.8-1.6h.3c.1.1.1.3,0,.3a6.5,6.5,0,0,0-1.7,1.5Zm131.7-.1h-.2a8.6,8.6,0,0,0-1.7-1.5c-.1,0-.1-.2-.1-.3a.3.3,0,0,1,.4,0,7.1,7.1,0,0,1,1.8,1.5c.1.1.1.3,0,.3Zm-127.9-2.6h-.2a.2.2,0,0,1,.1-.3l2.2-1a.2.2,0,0,1,.3.1c.1.1,0,.2-.1.3l-2.2,1Zm124-.1h-.1l-2.2-1c-.1,0-.2-.1-.1-.3h.3l2.3,1c.1,0,.1.2.1.3Zm-119.5-1.7a.2.2,0,0,1-.2-.2c-.1-.1,0-.2.1-.2l2.4-.8c.1,0,.3.1.3.2s0,.2-.2.3l-2.3.7Zm115-.1h-.1l-2.3-.7c-.1,0-.2-.1-.2-.3s.2-.2.3-.1l2.4.7a.2.2,0,0,1,.1.3ZM139,179.9h-.2c0-.1,0-.3.2-.3l2.4-.6.3.2-.2.3-2.4.5Zm105.6,0h-.1l-2.4-.6c-.1,0-.2-.1-.1-.2s.1-.2.3-.2l2.4.6c.1,0,.2.1.1.2A.2.2,0,0,1,244.6,179.9Zm-100.8-1a.2.2,0,0,1-.2-.2c0-.1,0-.2.2-.3l2.4-.4a.2.2,0,0,1,.3.1c0,.2-.1.3-.2.3l-2.4.5Zm96-.1h-.1l-2.4-.4-.2-.3.3-.2,2.4.5c.2,0,.3.1.2.3S239.9,178.8,239.8,178.8Zm-91.1-.8-.3-.2c0-.1.1-.2.2-.3l2.5-.3c.1-.1.2,0,.3.1s-.1.3-.2.3l-2.5.4Zm86.2,0h0l-2.4-.4c-.2,0-.3-.2-.2-.3a.2.2,0,0,1,.2-.2l2.5.4c.1,0,.2.2.2.3S235.1,178,234.9,178Zm-81.3-.7c-.2,0-.3-.1-.3-.2s.1-.3.2-.3l2.5-.3.3.2a.2.2,0,0,1-.2.2l-2.5.4Zm76.5-.1H230l-2.4-.3c-.2,0-.3-.1-.2-.2s.1-.2.2-.2l2.5.3.2.2C230.3,177.2,230.2,177.2,230.1,177.2Zm-71.6-.6h-.3c0-.2.1-.3.2-.3l2.5-.3c.2,0,.3.1.3.2s-.1.3-.2.3l-2.5.2Zm66.7,0h-.1l-2.4-.2a.3.3,0,0,1-.3-.3l.3-.2,2.5.3a.2.2,0,0,1,.2.2Zm-61.8-.5c-.1,0-.2,0-.3-.2s.1-.2.3-.2l2.4-.2c.2,0,.3.1.3.2a.2.2,0,0,1-.2.2l-2.5.2Zm56.8,0h0l-2.5-.2a.2.2,0,0,1-.2-.2l.3-.2,2.5.2a.2.2,0,0,1,.2.2C220.5,176,220.4,176.1,220.2,176.1Zm-51.9-.4c-.1,0-.2,0-.2-.2a.2.2,0,0,1,.2-.2l2.5-.2a.2.2,0,0,1,.2.2c0,.2-.1.3-.2.3Zm47,0h-2.5c-.1,0-.2-.2-.2-.3s.1-.2.3-.2l2.4.2c.2,0,.3.1.2.2Zm-42-.3c-.2,0-.3-.1-.3-.2l.2-.2h2.5c.2-.1.3,0,.3.2s-.1.2-.3.2Zm37.1,0h-2.5c-.2,0-.3-.1-.3-.2l.3-.3h0l2.5.2.2.2A.2.2,0,0,1,210.4,175.4Zm-32.2-.2-.2-.2c-.1-.1.1-.2.2-.3h2.5c.1,0,.2,0,.2.2l-.2.2Zm27.2,0h-2.5l-.2-.2c0-.2.1-.3.2-.3h2.5a.3.3,0,0,1,.3.3C205.7,175.1,205.6,175.2,205.4,175.2Zm-22.2-.2c-.2,0-.3-.1-.3-.2a.2.2,0,0,1,.2-.2h2.5c.2,0,.3.1.3.2a.3.3,0,0,1-.3.3Zm17.3,0H198a.3.3,0,0,1-.3-.3l.3-.2h2.5a.2.2,0,0,1,.2.2Zm-12.4-.1a.2.2,0,0,1-.2-.2c-.1-.1.1-.2.2-.2h2.5l.2.2a.2.2,0,0,1-.2.2Zm7.4,0H193a.2.2,0,0,1-.2-.2l.2-.2h2.5c.2,0,.3.1.3.2S195.7,174.9,195.5,174.9Z"/><ellipse class="f" cx="191.9" cy="187.6" rx="61.3" ry="10.7"/><path class="e" d="M131.8,189.7c5.7-4.8,30.5-8.5,60.1-8.5s54.4,3.7,60.1,8.5a2.9,2.9,0,0,0,1.2-2.1c0-5.9-27.4-10.7-61.3-10.7s-61.3,4.8-61.3,10.7A2.9,2.9,0,0,0,131.8,189.7Z"/><path class="e" d="M249.6,196.7V210l1.4-.4V196.3Z"/><path class="e" d="M235,199.6v13.3l1.4-.3V199.3Z"/><path class="e" d="M220.4,201.2v13.3h1.4V201.1Z"/><path class="e" d="M205.8,202.1v13.3h1.4V202.1Z"/><path class="e" d="M191.9,202.4h-.7v13.3h1.4V202.4Z"/><path class="e" d="M176.6,202.1v13.3H178V202.1Z"/><path class="e" d="M162,201.1v13.3h1.4V201.2Z"/><path class="e" d="M147.4,199.3v13.3l1.4.3V199.6Z"/><path class="e" d="M132.8,196.3v13.3l1.4.4V196.7Z"/><path class="g" d="M205.1,64.7c-.1.9-.8,2.8-.2,3.2a1.7,1.7,0,0,0,2-.2,7.2,7.2,0,0,0,1.6-5.6c-.3-1.6-1.2-3.1-.9-4.7a19.1,19.1,0,0,1,1.6-3.2,8.6,8.6,0,0,0,.7-6.3,5.4,5.4,0,0,0-4.1-3.8c-1.9-.2-4,1-5.6-.2s-1.5-2.7-2.4-3.9-4-1.5-6-.7-3.9,2-6,1.9-3.4-1.2-5.1-1.7c-3.7-1-7.9,1-10,4.8a13.5,13.5,0,0,0,.6,12.8c.9,1.2,2.8,5.1,6.7,4.1"/><path class="h" d="M161.5,175.2c13.9-9.7,17-27.6,16.5-43.7-.1-2.7.2-5.6-1.1-7.9s-4.3-4-6.7-2.9-2.9,3.3-4,5.2a16.1,16.1,0,0,1-6.3,6.1c-1.7.8-3.8,1.4-5.5.5s-2.6-4.5-2.6-7.2c0-5,.1-10,.1-15a25.9,25.9,0,0,0-.8-7.9,8.1,8.1,0,0,0-5.2-5.6c-2.6-.8-5.7.7-6.3,3.3a19.3,19.3,0,0,0,0,3.4,2.8,2.8,0,0,1-1.7,2.6,3.1,3.1,0,0,1-2.9-1.2c-2.8-2.7-4.7-6.2-6.4-9.7s-3.5-7-6-9.9-6-5.3-9.8-5.5-7.9,2.1-8.9,5.9,1.3,7.6,3.7,10.7A57.9,57.9,0,0,0,120,108.2a5.5,5.5,0,0,1,2.1,2.2c.6,1.8-1.1,3.6-2.9,4.2s-4.2.4-6.2.7-4.4,1.2-5.2,3.1,1.2,5.6,3.5,7.5a52,52,0,0,0,15.1,8.8c2,.7,4.1,1.3,5.6,2.7s2.6,3.8,1.6,5.7-3.4,2.5-5.5,2.1a31.8,31.8,0,0,1-5.8-2.3c-3.7-1.4-8.5-1.1-10.8,2.1a8.3,8.3,0,0,0-.9,7.5,21.2,21.2,0,0,0,4,6.6,51.3,51.3,0,0,0,22,15.4c8.5,3,16.5,3.8,24.9.7"/><path class="i" d="M161.7,187.1a110,110,0,0,0-4.3-22,235,235,0,0,0-9.5-25.8c-1-2.3-2-4.5-2.9-6.7s-1.9-4.3-2.9-6.4a122.4,122.4,0,0,0-6.7-11.4c-2.2-3.6-4.6-6.9-6.7-9.9s-4.3-5.9-6.3-8.4A94.8,94.8,0,0,0,112,85.6l-3.1-2.7-.8-.7-.3-.2.3.3.7.7,3.1,2.7a102,102,0,0,1,10.2,11.1c2,2.4,4.1,5.3,6.2,8.3s4.5,6.4,6.8,9.9,4.5,7.3,6.6,11.4c1,2.1,1.9,4.2,2.9,6.4l2.8,6.7a221.5,221.5,0,0,1,9.5,25.7,117.9,117.9,0,0,1,4.5,22"/><path class="i" d="M142,126.2s.1-.4.2-1.1.3-1.9.5-3.2.8-6.4,1.2-10.4.9-7.8,1.3-10.4.4-2.4.5-3.2.2-1.1.2-1.1-.2.3-.4,1.1a28.6,28.6,0,0,0-.6,3.1c-.5,2.6-1.1,6.3-1.5,10.4s-.7,7.7-1,10.5c-.2,1.2-.3,2.3-.4,3.1S141.9,126.2,142,126.2Z"/><path class="i" d="M107.5,119.8h1.4l3.8.4c3.1.3,7.4,1,12.2,1.9s9,1.9,12.1,2.7l3.6,1,1.4.3-1.3-.5-3.6-1.2c-3.1-.9-7.3-1.9-12.1-2.8a107.3,107.3,0,0,0-12.3-1.7l-3.8-.3Z"/><path class="i" d="M157,164.4l.2-.4.6-1.2c.5-1.1,1.2-2.7,2-4.7,1.7-3.9,3.8-9.4,6-15.5l5.9-15.7c.8-1.9,1.5-3.5,1.9-4.7l.5-1.2.2-.5-.3.4a11.2,11.2,0,0,1-.5,1.3c-.6,1-1.2,2.6-2.1,4.6-1.6,3.9-3.8,9.5-6,15.6s-4.3,11.6-5.9,15.6l-1.9,4.7a11.2,11.2,0,0,0-.5,1.3C157,164.3,156.9,164.4,157,164.4Z"/><path class="i" d="M111.2,149.7l.5.2,1.3.4,4.9,1.6,16.1,5.4,16.2,5.3,4.9,1.4,1.4.4h0l-1.3-.5-4.9-1.6c-4.2-1.3-9.9-3.2-16.1-5.4s-12-4-16.2-5.2l-4.9-1.4-1.4-.4Z"/><path class="j" d="M256.6,162.1l-54.2-3.2-.6-1.2-14.7.3-4.8-.3-.2.4-49.3,1.2c-9.8,0-20.2,6-20.1,13.7s3.4,15.2,12.2,15l67.2-.4h67.2c8.9.2,11.2-5.1,11.2-11.4C271.5,164.4,264.1,162.2,256.6,162.1Z"/><polygon class="k" points="194 175.2 204.1 176.6 204.2 187.6 194.9 187.4 194 175.2"/><path class="l" d="M204.1,176.6h4.6a5.1,5.1,0,0,1,2.5.6l2.4,1.4a40,40,0,0,0,4.2,2c2.8.9,7.5,2.1,8.4,2.8,2.8,2.2,2,4.7.5,5s-22.5-.8-22.5-.8Z"/><path class="k" d="M223,102.5l17.2,29.8a12.5,12.5,0,0,1,.4,12h0a12.8,12.8,0,0,1-11.7,7.1l-26.3-.7-.8-9.6,23.2-4.5-15.7-27.1Z"/><path class="k" d="M159.1,153.8l24.3,6.3.5-7.2L161.5,140l16.3-30.4-13.8-7-17.1,30h0a14,14,0,0,0,8.2,19.9Z"/><path class="m" d="M215.8,121.7l16.5-8.8a89.9,89.9,0,0,0-7.1-11.8A36.4,36.4,0,0,0,203,87.2h0l-19.1.3a28.7,28.7,0,0,0-6.8,1.5h.1c-10.4,2.3-21.8,24.9-21.8,24.9l15.1,7.9.3,2.3c.5,3.2-.3,37.4-.3,37.4l48.9.9Z"/><polygon class="n" points="168 168.5 165.1 136.3 224.8 136.1 220.9 168.7 168 168.5"/><path class="o" d="M200.3,154.2a5.8,5.8,0,0,1-11.2,0c-.3-2.9,2.1-5.6,5.6-5.6A5.3,5.3,0,0,1,200.3,154.2Z"/><path class="p" d="M199.2,153.7l-2.4-2.3-2.1,1.9h0l-2.1-1.9-2.4,2.3,2.1,1.7h0l2.4,2,2.4-2h0Zm-2.5-1.4,1.5,1.4-1.6,1.3-1.4-1.3Zm-4.1,0,1.6,1.4-1.4,1.3-1.6-1.3Zm2.1,4.3-1.4-1.2,1.4-1.2,1.4,1.2Z"/><path class="k" d="M195.7,95.9c5-.1,9.3-1.5,9.4-6.5l.4-37h0a3,3,0,0,0-2.6-3l-15.7-4c-5-.5-8.3,5.7-8.6,10.7s-.6,12.4.1,16.6c1.3,8.4,7.7,9.4,7.7,9.4v7.3c.1,5.2,4.1,6.6,9.3,6.5Z"/><path class="q" d="M186.4,82.1a20.7,20.7,0,0,0,11.2-3s-2.7,5.8-11.1,5Z"/><path class="k" d="M200.9,58.4c.1,0,4.4-2.6,5.5,2.2s-4,4.9-4.1,4.8S200.9,58.4,200.9,58.4Z"/><path class="g" d="M175.9,57.6s4.8,1.6,10.2-3.1c3.5-3,7.7-4.8,9-4.4s.3,4.4,3.8,5.7a3.1,3.1,0,0,1,2.2,3c0,2.9.2,7.2,1.8,5.5v-6c.5-.5,1.8-.4,2.7.4a37.9,37.9,0,0,0,.9-9.3L196.2,47,188,44.4l-7.2.7-6,7.7Z"/></svg>