<svg xmlns="http://www.w3.org/2000/svg" xmlns:xlink="http://www.w3.org/1999/xlink" viewBox="0 0 400 400"><defs><style>.a,.j,.m,.q,.r,.u,.v{fill:none;}.b,.c{isolation:isolate;}.c{fill:url(#a);}.d{fill:#1f364c;}.e{fill:#0e71bb;}.f{fill:#005b9f;}.g{fill:#52acea;}.h{fill:#21e2e2;}.i{fill:#ffbc98;}.j{stroke:#ffbc98;}.j,.m{stroke-width:0.51px;}.k{fill:#80c9ff;}.l{fill:#288ed9;}.m{stroke:#21e2e2;}.n{fill:#137fcf;}.o{fill:#d6eeff;}.p{fill:#fff;}.q,.r{stroke:#083872;}.q,.r,.u,.v{stroke-linecap:round;stroke-miterlimit:10;}.q{stroke-width:3.03px;}.r{stroke-width:2.96px;}.s{fill:#001c45;}.t{fill:#85b8ed;}.u{stroke:#001c45;stroke-width:2.34px;}.v{stroke:#ea5e5d;stroke-width:5.31px;}.w{fill:#ff9a8d;}.x{fill:#263238;}.y{clip-path:url(#b);}.z{fill:url(#c);}.aa{fill:#f0d2b9;}.ab{fill:url(#d);}.ac{fill:#f59b6b;}.ad{fill:#db8965;}.ae{fill:url(#e);}.af{fill:url(#f);}.ag{fill:url(#g);}.ah{fill:url(#h);}.ai{fill:url(#i);}.aj{fill:url(#j);}.ak{fill:url(#k);}.al{fill:url(#l);}.am{fill:url(#m);}.an{fill:url(#n);}.ao{fill:url(#o);}.ap{opacity:0.25;mix-blend-mode:overlay;}</style><linearGradient id="a" x1="12.13" y1="193.66" x2="392.55" y2="193.66" gradientUnits="userSpaceOnUse"><stop offset="0" stop-color="#c6e6ff"/><stop offset="1" stop-color="#fff"/></linearGradient><clipPath id="b"><path class="a" d="M317.9,311.4s-32.6-33.1-35.1-35.9-12.7-57.6-13.4-61.7c0,0-10.2-10.4-10.5-19L292,178.2c1.4,5.3,2.6,5.5,3.6,19.3.4,7.1,2,36.1,3.1,70.5a48,48,0,0,1,8.6,6.9c4.2,4.2,17.2,29.7,17.2,29.7S322.9,309.7,317.9,311.4Z"/></clipPath><linearGradient id="c" x1="2339.18" y1="122.69" x2="2354.47" y2="122.69" gradientTransform="matrix(-1, 0, 0, 1, 2612.77, 0)" gradientUnits="userSpaceOnUse"><stop offset="0" stop-color="#efd9c0"/><stop offset="1" stop-color="#ffe7cb"/></linearGradient><linearGradient id="d" x1="2338.09" y1="107.48" x2="2364.72" y2="107.48" xlink:href="#c"/><linearGradient id="e" x1="2327.77" y1="171.38" x2="2400.88" y2="171.38" xlink:href="#c"/><linearGradient id="f" x1="216.59" y1="263.49" x2="228.26" y2="263.49" gradientUnits="userSpaceOnUse"><stop offset="0" stop-color="#ffbc98"/><stop offset="1" stop-color="#ff9f6c"/></linearGradient><linearGradient id="g" x1="208.17" y1="270.57" x2="214.45" y2="270.57" xlink:href="#f"/><linearGradient id="h" x1="214.04" y1="274.67" x2="231.33" y2="274.67" xlink:href="#f"/><linearGradient id="i" x1="202.34" y1="279.95" x2="213.22" y2="279.95" xlink:href="#f"/><linearGradient id="j" x1="190.07" y1="289.9" x2="215.16" y2="289.9" xlink:href="#f"/><linearGradient id="k" x1="217.54" y1="292.19" x2="227.5" y2="292.19" xlink:href="#f"/><linearGradient id="l" x1="221.34" y1="305.38" x2="227.51" y2="305.38" xlink:href="#f"/><linearGradient id="m" x1="225.01" y1="314.24" x2="235.39" y2="314.24" xlink:href="#f"/><linearGradient id="n" x1="196.32" y1="315.47" x2="224.33" y2="315.47" xlink:href="#f"/><linearGradient id="o" x1="195.25" y1="302.6" x2="219.88" y2="302.6" xlink:href="#f"/></defs><title>buy-host</title><g class="b"><path class="c" d="M358.1,324.4a23.9,23.9,0,0,0,21-12.2c23.4-43,15.3-106.1-16.3-123-39.4-21.2,16.4-83.1-36-114.6s-94.7,40.2-165.7,1.1S35,95.9,43.3,138.5c5.7,29.7,20.9,55.6-18.5,93.6-27.2,26.1-4.7,63.1,12,83.6a23.9,23.9,0,0,0,18.6,8.7Z"/><rect class="d" x="140.8" y="174.5" width="6.4" height="81.81" transform="translate(-112.4 178) rotate(-47.9)"/><path class="e" d="M126.7,172.4l62,56c1.3,1.1,1.6,2.7.8,3.6l-9.3,10.3c-.8.9-2.4.7-3.7-.4l-62.1-56c-1.2-1.1-1.5-2.7-.7-3.6L123,172C123.8,171.1,125.4,171.3,126.7,172.4Z"/><path class="f" d="M125.4,171.2l21.5,19.4h0l-12.2,13.5h0l-21.5-19.3a1.4,1.4,0,0,1-.1-1.9l10.5-11.6A1.3,1.3,0,0,1,125.4,171.2Z"/><path class="g" d="M162,213h0a1.1,1.1,0,0,1,0,1.4h0a.9.9,0,0,1-1.3,0h0a.9.9,0,0,1-.1-1.3h0A1.1,1.1,0,0,1,162,213Z"/><path class="h" d="M161.1,217.4h0a.9.9,0,0,1,.1,1.3h0a1.1,1.1,0,0,1-1.4.1h0a1,1,0,0,1,0-1.4h0A.9.9,0,0,1,161.1,217.4Z"/><path class="g" d="M164.8,215.6h0a.9.9,0,0,1,0,1.3h0a.9.9,0,0,1-1.3.1h0a1.1,1.1,0,0,1-.1-1.4h0A1,1,0,0,1,164.8,215.6Z"/><path class="g" d="M163.9,219.9h0a.9.9,0,0,1,.1,1.3h0c-.4.4-1,.5-1.3.1h0a.9.9,0,0,1-.1-1.3h0A.9.9,0,0,1,163.9,219.9Z"/><path class="i" d="M167.6,218.1h0a.9.9,0,0,1,.1,1.3h0a1,1,0,0,1-1.4.1h0a.9.9,0,0,1,0-1.3h0A.9.9,0,0,1,167.6,218.1Z"/><path class="g" d="M166.7,222.4h0a1,1,0,0,1,.1,1.4h0a.9.9,0,0,1-1.3.1h0a1.1,1.1,0,0,1-.1-1.4h0A.9.9,0,0,1,166.7,222.4Z"/><path class="g" d="M170.4,220.6h0a1.1,1.1,0,0,1,.1,1.4h0a1.1,1.1,0,0,1-1.4.1h0a1.1,1.1,0,0,1,0-1.4h0A.9.9,0,0,1,170.4,220.6Z"/><path class="h" d="M169.6,225h0a.9.9,0,0,1,0,1.3h0a.9.9,0,0,1-1.3.1h0a.9.9,0,0,1-.1-1.3h0A1,1,0,0,1,169.6,225Z"/><path class="g" d="M173.2,223.2h0a.9.9,0,0,1,.1,1.3h0a.9.9,0,0,1-1.3.1h0c-.4-.4-.5-1-.1-1.3h0A.9.9,0,0,1,173.2,223.2Z"/><path class="g" d="M172.4,227.5h0a1,1,0,0,1,0,1.4h0a.9.9,0,0,1-1.3,0h0a.9.9,0,0,1-.1-1.3h0A1.1,1.1,0,0,1,172.4,227.5Z"/><circle class="a" cx="178" cy="231.2" r="1.6"/><circle class="j" cx="178" cy="231.2" r="1.3"/><path class="g" d="M159.2,209.5h0a.7.7,0,0,1,0,1l-3.6,4a.8.8,0,0,1-1,.1h0a.8.8,0,0,1-.1-1l3.6-4A.9.9,0,0,1,159.2,209.5Z"/><path class="g" d="M157,207.6h0a.8.8,0,0,1,.1,1l-3.6,4a.8.8,0,0,1-1,.1h0a.8.8,0,0,1-.1-1.1l3.6-3.9A.7.7,0,0,1,157,207.6Z"/><rect class="f" x="148.2" y="197.2" width="2.9" height="11.48" transform="translate(-101.2 178.1) rotate(-47.9)"/><rect class="f" x="145.6" y="200.1" width="2.9" height="11.48" transform="translate(-104.3 177.1) rotate(-47.9)"/><path class="i" d="M157.7,210.1l1,1h0l-3.1,3.4a.8.8,0,0,1-1,.1h0a.8.8,0,0,1-.1-1l3.2-3.5Z"/><path class="h" d="M153.7,210.2l1.1,1h0l-1.3,1.4a.8.8,0,0,1-1,.1h0a.8.8,0,0,1-.1-1.1h0l1.3-1.4Z"/><rect class="k" x="145" y="198.6" width="2.9" height="2.87" transform="translate(-100.1 174.7) rotate(-47.9)"/><rect class="k" x="142.4" y="201.5" width="2.9" height="2.87" transform="translate(-103.2 173.7) rotate(-47.9)"/><rect class="l" x="150.4" y="201" width="0.7" height="5.74" transform="translate(-101.6 179.2) rotate(-47.9)"/><rect class="l" x="147.7" y="203.9" width="0.7" height="5.74" transform="translate(-104.6 178.2) rotate(-47.9)"/><circle class="a" cx="178" cy="231.2" r="3.4"/><circle class="m" cx="178" cy="231.2" r="3.1"/><path class="l" d="M132.8,194h0a1.2,1.2,0,0,1,.1,1.7h-.1a1.2,1.2,0,0,1-1.7.1h0a1.2,1.2,0,0,1-.1-1.7h.1A1.2,1.2,0,0,1,132.8,194Z"/><path class="n" d="M137.5,188.9h0a.6.6,0,0,1,0,.8l-3.1,3.5a.6.6,0,0,1-.8,0h0a.6.6,0,0,1,0-.8l3.1-3.4A.6.6,0,0,1,137.5,188.9Z"/><path class="o" d="M130.1,191.6h0a1.2,1.2,0,0,1,.1,1.7h-.1a1.1,1.1,0,0,1-1.6.1h0a1.2,1.2,0,0,1-.1-1.7h.1A1.1,1.1,0,0,1,130.1,191.6Z"/><path class="p" d="M133.4,188.1h0a.6.6,0,0,1,0,.8l-1.7,1.9a.5.5,0,0,1-.7,0h0a.6.6,0,0,1-.1-.8l1.7-1.8A.6.6,0,0,1,133.4,188.1Z"/><path class="l" d="M127.5,189.2h0a1.2,1.2,0,0,1,0,1.7h0a1.2,1.2,0,0,1-1.7.1h0a1.2,1.2,0,0,1-.1-1.7h.1A1.2,1.2,0,0,1,127.5,189.2Z"/><path class="n" d="M132.7,183.5h0a.6.6,0,0,1,0,.8l-3.6,4.1a.6.6,0,0,1-.8,0h0a.6.6,0,0,1,0-.8l3.6-4A.5.5,0,0,1,132.7,183.5Z"/><path class="i" d="M124.8,186.8h0a1.2,1.2,0,0,1,.1,1.7h-.1a1.2,1.2,0,0,1-1.7.1h0a1.2,1.2,0,0,1,0-1.7h0A1.2,1.2,0,0,1,124.8,186.8Z"/><path class="i" d="M129.1,182.1h0a.5.5,0,0,1,.1.8l-2.8,3.1a.5.5,0,0,1-.7,0h0a.5.5,0,0,1-.1-.8l2.8-3A.5.5,0,0,1,129.1,182.1Z"/><path class="h" d="M122.1,184.4h0a1.2,1.2,0,0,1,.1,1.7h0a1.2,1.2,0,0,1-1.7.1h0a1.2,1.2,0,0,1-.1-1.7h.1A1.1,1.1,0,0,1,122.1,184.4Z"/><path class="h" d="M124.9,181.5h0a.6.6,0,0,1,.1.7l-1.3,1.4c-.1.2-.5.2-.7,0h0a.6.6,0,0,1,0-.8l1.2-1.3A.5.5,0,0,1,124.9,181.5Z"/><rect class="d" x="126.3" y="190.7" width="6.4" height="81.81" transform="translate(-129.2 172.5) rotate(-47.9)"/><path class="e" d="M112.1,188.5l62.1,56c1.2,1.1,1.6,2.7.8,3.6l-9.3,10.3c-.8.9-2.5.7-3.7-.4L99.9,202c-1.2-1.1-1.6-2.7-.8-3.6l9.3-10.3C109.2,187.2,110.9,187.4,112.1,188.5Z"/><path class="f" d="M110.9,187.3l21.4,19.4h0l-12.2,13.6h0L98.6,200.9a1.4,1.4,0,0,1,0-1.9L109,187.4A1.5,1.5,0,0,1,110.9,187.3Z"/><path class="g" d="M147.4,229.1h0a1.1,1.1,0,0,1,.1,1.4h0a1,1,0,0,1-1.4,0h0a.9.9,0,0,1,0-1.3h0A.9.9,0,0,1,147.4,229.1Z"/><path class="h" d="M146.6,233.5h0a.9.9,0,0,1,0,1.3h0a.9.9,0,0,1-1.3.1h0a1.1,1.1,0,0,1-.1-1.4h0A1.1,1.1,0,0,1,146.6,233.5Z"/><path class="g" d="M150.2,231.7h0a.9.9,0,0,1,.1,1.3h0a.9.9,0,0,1-1.3.1h0a1,1,0,0,1-.1-1.4h0A.9.9,0,0,1,150.2,231.7Z"/><path class="g" d="M149.4,236h0a1.1,1.1,0,0,1,.1,1.4h0a1.1,1.1,0,0,1-1.4,0h0a.9.9,0,0,1-.1-1.3h0A1.1,1.1,0,0,1,149.4,236Z"/><path class="i" d="M153.1,234.2h0a1.1,1.1,0,0,1,0,1.4h0a.9.9,0,0,1-1.3,0h0a.9.9,0,0,1-.1-1.3h0A1.1,1.1,0,0,1,153.1,234.2Z"/><path class="g" d="M152.2,238.6h0a.9.9,0,0,1,.1,1.3h0a1.1,1.1,0,0,1-1.4.1h0a1,1,0,0,1,0-1.4h0A.9.9,0,0,1,152.2,238.6Z"/><path class="g" d="M155.9,236.8h0a.9.9,0,0,1,0,1.3h0a.9.9,0,0,1-1.3.1h0a1.1,1.1,0,0,1-.1-1.4h0A1,1,0,0,1,155.9,236.8Z"/><path class="h" d="M155,241.1h0a.9.9,0,0,1,.1,1.3h0a1,1,0,0,1-1.4.1h0a.9.9,0,0,1,0-1.3h0A.9.9,0,0,1,155,241.1Z"/><path class="g" d="M158.7,239.3h0a.9.9,0,0,1,.1,1.3h0a1,1,0,0,1-1.4.1h0a.9.9,0,0,1-.1-1.3h0A1.1,1.1,0,0,1,158.7,239.3Z"/><path class="g" d="M157.8,243.6h0a1,1,0,0,1,.1,1.4h0a.9.9,0,0,1-1.3.1h0a1,1,0,0,1-.1-1.4h0A.9.9,0,0,1,157.8,243.6Z"/><circle class="a" cx="163.5" cy="247.3" r="1.6"/><circle class="j" cx="163.5" cy="247.3" r="1.3"/><path class="g" d="M144.6,225.6h0a.8.8,0,0,1,.1,1l-3.6,4a.8.8,0,0,1-1.1.1h0a.8.8,0,0,1,0-1l3.6-4A.8.8,0,0,1,144.6,225.6Z"/><path class="g" d="M142.5,223.7h0a.7.7,0,0,1,0,1l-3.6,4a.8.8,0,0,1-1,.1h0a.7.7,0,0,1,0-1l3.6-4A.7.7,0,0,1,142.5,223.7Z"/><rect class="f" x="133.7" y="213.3" width="2.9" height="11.48" transform="translate(-118 172.6) rotate(-47.9)"/><rect class="f" x="131.1" y="216.2" width="2.9" height="11.48" transform="translate(-121 171.6) rotate(-47.9)"/><path class="i" d="M143.1,226.2l1.1,1h0l-3.1,3.4a.8.8,0,0,1-1.1.1h0a.8.8,0,0,1,0-1l3.1-3.5Z"/><path class="h" d="M139.2,226.3l1,1h0l-1.3,1.4a.8.8,0,0,1-1,.1h0a.7.7,0,0,1,0-1h0l1.3-1.5Z"/><rect class="k" x="130.5" y="214.7" width="2.9" height="2.87" transform="translate(-116.9 169.3) rotate(-47.9)"/><rect class="k" x="127.9" y="217.6" width="2.9" height="2.87" transform="translate(-119.9 168.3) rotate(-47.9)"/><rect class="l" x="135.8" y="217.1" width="0.7" height="5.74" transform="translate(-118.4 173.7) rotate(-47.9)"/><rect class="l" x="133.2" y="220" width="0.7" height="5.74" transform="translate(-121.4 172.7) rotate(-47.9)"/><circle class="a" cx="163.5" cy="247.3" r="3.4"/><circle class="m" cx="163.5" cy="247.3" r="3.1"/><path class="l" d="M118.2,210.2h0a1,1,0,0,1,.1,1.6h0a1.2,1.2,0,0,1-1.7.1h0a1.2,1.2,0,0,1-.1-1.7h.1A1.1,1.1,0,0,1,118.2,210.2Z"/><path class="n" d="M122.9,205.1h0a.4.4,0,0,1,.1.7l-3.1,3.5a.6.6,0,0,1-.8,0h0a.5.5,0,0,1,0-.7l3.1-3.5A.5.5,0,0,1,122.9,205.1Z"/><path class="o" d="M115.6,207.8h0a1.1,1.1,0,0,1,.1,1.6h-.1a1.2,1.2,0,0,1-1.7.1h0a1.2,1.2,0,0,1-.1-1.7h.1A1.2,1.2,0,0,1,115.6,207.8Z"/><path class="p" d="M118.8,204.3h0a.4.4,0,0,1,.1.7l-1.7,1.9a.6.6,0,0,1-.8,0h0a.5.5,0,0,1,0-.7l1.7-1.9A.5.5,0,0,1,118.8,204.3Z"/><path class="l" d="M112.9,205.4h0a1.1,1.1,0,0,1,.1,1.6h-.1a1.1,1.1,0,0,1-1.6.1h0a1.2,1.2,0,0,1-.1-1.7h0A1.2,1.2,0,0,1,112.9,205.4Z"/><path class="n" d="M118.2,199.6h0a.6.6,0,0,1,0,.8l-3.7,4.1a.5.5,0,0,1-.7,0h0a.4.4,0,0,1-.1-.7l3.7-4.1A.6.6,0,0,1,118.2,199.6Z"/><path class="i" d="M110.3,202.9h0a1.2,1.2,0,0,1,0,1.7h0a1.2,1.2,0,0,1-1.7.1h0a1.2,1.2,0,0,1-.1-1.7h.1A1.2,1.2,0,0,1,110.3,202.9Z"/><path class="i" d="M114.6,198.3h0a.5.5,0,0,1,0,.7l-2.7,3.1a.6.6,0,0,1-.8,0h0a.6.6,0,0,1,0-.8l2.7-3A.6.6,0,0,1,114.6,198.3Z"/><path class="h" d="M107.6,200.5h0a1.2,1.2,0,0,1,.1,1.7h-.1a1.2,1.2,0,0,1-1.7.1h0a1.2,1.2,0,0,1,0-1.7h0A1.2,1.2,0,0,1,107.6,200.5Z"/><path class="h" d="M110.4,197.6h0a.5.5,0,0,1,0,.7l-1.2,1.4a.6.6,0,0,1-.8,0h0a.6.6,0,0,1,0-.8l1.2-1.3A.6.6,0,0,1,110.4,197.6Z"/><rect class="d" x="111.8" y="206.8" width="6.4" height="81.81" transform="translate(-145.9 167) rotate(-47.9)"/><path class="e" d="M97.6,204.6l62.1,56c1.2,1.1,1.5,2.7.7,3.6l-9.3,10.3c-.8.9-2.4.8-3.7-.3l-62-56.1c-1.3-1.1-1.6-2.7-.8-3.6l9.3-10.3C94.7,203.3,96.3,203.5,97.6,204.6Z"/><path class="f" d="M96.3,203.5l21.5,19.3h0l-12.2,13.6h0L84.1,217a1.3,1.3,0,0,1-.1-1.8l10.5-11.7A1.3,1.3,0,0,1,96.3,203.5Z"/><path class="g" d="M132.9,245.2h0a1,1,0,0,1,0,1.4h0a.9.9,0,0,1-1.3.1h0a1.1,1.1,0,0,1-.1-1.4h0A1.1,1.1,0,0,1,132.9,245.2Z"/><path class="h" d="M132,249.6h0a.9.9,0,0,1,.1,1.3h0a1.1,1.1,0,0,1-1.4.1h0a.9.9,0,0,1,0-1.3h0A.9.9,0,0,1,132,249.6Z"/><path class="g" d="M135.7,247.8h0a.9.9,0,0,1,.1,1.3h0a1.1,1.1,0,0,1-1.4.1h0a.9.9,0,0,1,0-1.3h0A.9.9,0,0,1,135.7,247.8Z"/><path class="g" d="M134.8,252.1h0a1,1,0,0,1,.1,1.4h0a.9.9,0,0,1-1.3,0h0a.9.9,0,0,1-.1-1.3h0A.9.9,0,0,1,134.8,252.1Z"/><path class="i" d="M138.5,250.3h0a1.1,1.1,0,0,1,.1,1.4h0a1,1,0,0,1-1.4,0h0a.9.9,0,0,1,0-1.3h0A.9.9,0,0,1,138.5,250.3Z"/><path class="g" d="M137.7,254.7h0a.9.9,0,0,1,0,1.3h0a.9.9,0,0,1-1.3.1h0a1.1,1.1,0,0,1-.1-1.4h0A1.1,1.1,0,0,1,137.7,254.7Z"/><path class="g" d="M141.3,252.9h0a.9.9,0,0,1,.1,1.3h0a.9.9,0,0,1-1.3.1h0a1,1,0,0,1-.1-1.4h0A.9.9,0,0,1,141.3,252.9Z"/><path class="h" d="M140.5,257.2h0a1,1,0,0,1,0,1.4h0a.9.9,0,0,1-1.3,0h0a.9.9,0,0,1-.1-1.3h0A1.1,1.1,0,0,1,140.5,257.2Z"/><path class="g" d="M144.1,255.4h0a1,1,0,0,1,.1,1.4h0a.9.9,0,0,1-1.3,0h0a.9.9,0,0,1-.1-1.3h0A.9.9,0,0,1,144.1,255.4Z"/><path class="g" d="M143.3,259.8h0a.9.9,0,0,1,.1,1.3h0a1.1,1.1,0,0,1-1.4.1h0a1.1,1.1,0,0,1-.1-1.4h0A1,1,0,0,1,143.3,259.8Z"/><circle class="a" cx="149" cy="263.4" r="1.6"/><circle class="j" cx="149" cy="263.4" r="1.3"/><path class="g" d="M130.1,241.7h0a.8.8,0,0,1,0,1.1l-3.6,4a.8.8,0,0,1-1,0h0a.7.7,0,0,1,0-1l3.6-4A.8.8,0,0,1,130.1,241.7Z"/><path class="g" d="M127.9,239.8h0a.7.7,0,0,1,.1,1l-3.6,4a.8.8,0,0,1-1,.1h0a.8.8,0,0,1-.1-1l3.6-4A.8.8,0,0,1,127.9,239.8Z"/><rect class="f" x="119.2" y="229.4" width="2.9" height="11.48" transform="translate(-134.7 167.1) rotate(-47.9)"/><rect class="f" x="116.5" y="232.3" width="2.9" height="11.48" transform="translate(-137.8 166.1) rotate(-47.9)"/><path class="i" d="M128.6,242.3l1,1h0l-3.1,3.5a.8.8,0,0,1-1,0h0a.7.7,0,0,1,0-1l3.1-3.5Z"/><path class="h" d="M124.6,242.4l1.1,1h0l-1.3,1.4a.8.8,0,0,1-1,.1h0a.8.8,0,0,1-.1-1h0l1.3-1.5Z"/><rect class="k" x="116" y="230.8" width="2.9" height="2.87" transform="translate(-133.7 163.8) rotate(-47.9)"/><rect class="k" x="113.3" y="233.7" width="2.9" height="2.87" transform="translate(-136.7 162.8) rotate(-47.9)"/><rect class="l" x="121.3" y="233.2" width="0.7" height="5.74" transform="translate(-135.1 168.2) rotate(-47.9)"/><rect class="l" x="118.7" y="236.1" width="0.7" height="5.74" transform="translate(-138.2 167.2) rotate(-47.9)"/><circle class="a" cx="149" cy="263.4" r="3.4"/><circle class="m" cx="149" cy="263.4" r="3.1"/><path class="l" d="M103.7,226.3h0a1.1,1.1,0,0,1,.1,1.6h-.1a1.2,1.2,0,0,1-1.7.1h0a1.2,1.2,0,0,1,0-1.7h0A1.2,1.2,0,0,1,103.7,226.3Z"/><path class="n" d="M108.4,221.2h0a.5.5,0,0,1,0,.7l-3.1,3.5a.5.5,0,0,1-.7,0h0a.4.4,0,0,1-.1-.7l3.1-3.5A.6.6,0,0,1,108.4,221.2Z"/><path class="o" d="M101,223.9h0a1,1,0,0,1,.1,1.6h0a1.2,1.2,0,0,1-1.7.1h0a1.2,1.2,0,0,1-.1-1.7h.1A1,1,0,0,1,101,223.9Z"/><path class="p" d="M104.3,220.4h0a.5.5,0,0,1,0,.7l-1.7,1.9a.5.5,0,0,1-.7,0h0a.5.5,0,0,1,0-.7l1.6-1.9A.6.6,0,0,1,104.3,220.4Z"/><path class="l" d="M98.4,221.5h0a1.1,1.1,0,0,1,.1,1.6h-.1a1.2,1.2,0,0,1-1.7.1h0a1.2,1.2,0,0,1-.1-1.7h.1A1.2,1.2,0,0,1,98.4,221.5Z"/><path class="n" d="M103.6,215.8h0a.5.5,0,0,1,.1.7l-3.7,4.1a.6.6,0,0,1-.8,0h0a.5.5,0,0,1,0-.7l3.7-4.1A.5.5,0,0,1,103.6,215.8Z"/><path class="i" d="M95.7,219.1h0a1.1,1.1,0,0,1,.1,1.6h-.1a1.1,1.1,0,0,1-1.6.1h0a1.2,1.2,0,0,1-.1-1.7h0A1.2,1.2,0,0,1,95.7,219.1Z"/><path class="i" d="M100,214.4h0a.4.4,0,0,1,.1.7l-2.8,3.1a.5.5,0,0,1-.7,0h0a.4.4,0,0,1-.1-.7l2.8-3.1A.5.5,0,0,1,100,214.4Z"/><path class="h" d="M93,216.7h0a1,1,0,0,1,.1,1.6h0a1.2,1.2,0,0,1-1.7.1h0a1.2,1.2,0,0,1-.1-1.7h.1A1.1,1.1,0,0,1,93,216.7Z"/><path class="h" d="M95.8,213.7h0a.5.5,0,0,1,.1.7l-1.2,1.4a.6.6,0,0,1-.8,0h0a.5.5,0,0,1,0-.7l1.2-1.4A.5.5,0,0,1,95.8,213.7Z"/><path class="e" d="M83,220.7l62.1,56c1.2,1.1,1.6,2.8.8,3.6l-9.3,10.4c-.8.8-2.5.7-3.7-.4L70.8,234.2c-1.2-1.1-1.6-2.7-.7-3.6l9.3-10.3C80.2,219.4,81.8,219.6,83,220.7Z"/><path class="f" d="M81.8,219.6,103.3,239h0L91,252.5h0L69.6,233.1a1.2,1.2,0,0,1-.1-1.8l10.4-11.6A1.3,1.3,0,0,1,81.8,219.6Z"/><path class="g" d="M118.3,261.4h0a.9.9,0,0,1,.1,1.3h0a.9.9,0,0,1-1.3.1h0a1,1,0,0,1-.1-1.4h0A.9.9,0,0,1,118.3,261.4Z"/><path class="h" d="M117.5,265.7h0a.9.9,0,0,1,0,1.3h0a.9.9,0,0,1-1.3.1h0a.9.9,0,0,1-.1-1.3h0A1,1,0,0,1,117.5,265.7Z"/><path class="g" d="M121.1,263.9h0c.4.4.5,1,.1,1.3h0a.9.9,0,0,1-1.3.1h0a.9.9,0,0,1-.1-1.3h0C120.2,263.6,120.8,263.5,121.1,263.9Z"/><path class="g" d="M120.3,268.2h0a1.1,1.1,0,0,1,.1,1.4h0a1.1,1.1,0,0,1-1.4.1h0a1,1,0,0,1,0-1.4h0A.9.9,0,0,1,120.3,268.2Z"/><path class="i" d="M124,266.4h0a1,1,0,0,1,0,1.4h0a.9.9,0,0,1-1.3.1h0a1.1,1.1,0,0,1-.1-1.4h0A1.1,1.1,0,0,1,124,266.4Z"/><path class="g" d="M123.1,270.8h0a.9.9,0,0,1,.1,1.3h0a1.1,1.1,0,0,1-1.4.1h0a.9.9,0,0,1,0-1.3h0A.9.9,0,0,1,123.1,270.8Z"/><path class="g" d="M126.8,269h0a.9.9,0,0,1,0,1.3h0a.9.9,0,0,1-1.3.1h0a.9.9,0,0,1-.1-1.3h0A1,1,0,0,1,126.8,269Z"/><path class="h" d="M125.9,273.3h0a1.1,1.1,0,0,1,.1,1.4h0a.9.9,0,0,1-1.3,0h0a.9.9,0,0,1-.1-1.3h0A.9.9,0,0,1,125.9,273.3Z"/><path class="g" d="M129.6,271.5h0a1.1,1.1,0,0,1,.1,1.4h0a1,1,0,0,1-1.4,0h0a.9.9,0,0,1,0-1.3h0A.9.9,0,0,1,129.6,271.5Z"/><path class="g" d="M128.7,275.9h0a.9.9,0,0,1,.1,1.3h0a.9.9,0,0,1-1.3.1h0a1.1,1.1,0,0,1-.1-1.4h0A.9.9,0,0,1,128.7,275.9Z"/><circle class="a" cx="134.4" cy="279.5" r="1.6"/><circle class="j" cx="134.4" cy="279.5" r="1.3"/><path class="g" d="M115.5,257.9h0a.8.8,0,0,1,.1,1l-3.6,4a.7.7,0,0,1-1,0h0a.7.7,0,0,1-.1-1l3.6-4A.7.7,0,0,1,115.5,257.9Z"/><path class="g" d="M113.4,255.9h0a.8.8,0,0,1,0,1.1l-3.6,3.9a.7.7,0,0,1-1,.1h0a.7.7,0,0,1,0-1l3.6-4A.8.8,0,0,1,113.4,255.9Z"/><rect class="f" x="104.6" y="245.5" width="2.9" height="11.48" transform="translate(-151.5 161.6) rotate(-47.9)"/><rect class="f" x="102" y="248.4" width="2.9" height="11.48" transform="translate(-154.6 160.6) rotate(-47.9)"/><path class="i" d="M114,258.4l1.1,1h0l-3.1,3.5a.7.7,0,0,1-1,0h0a.7.7,0,0,1-.1-1l3.1-3.5Z"/><path class="h" d="M110.1,258.5l1,1h0l-1.3,1.4a.7.7,0,0,1-1,.1h0a.7.7,0,0,1,0-1h0l1.3-1.5Z"/><rect class="k" x="101.4" y="246.9" width="2.9" height="2.87" transform="translate(-150.4 158.3) rotate(-47.9)"/><rect class="k" x="98.8" y="249.8" width="2.9" height="2.87" transform="translate(-153.5 157.3) rotate(-47.9)"/><rect class="l" x="106.8" y="249.3" width="0.7" height="5.74" transform="translate(-151.9 162.7) rotate(-47.9)"/><rect class="l" x="104.1" y="252.3" width="0.7" height="5.74" transform="matrix(0.67, -0.74, 0.74, 0.67, -154.92, 161.73)"/><circle class="a" cx="134.4" cy="279.5" r="3.4"/><circle class="m" cx="134.4" cy="279.5" r="3.1"/><path class="l" d="M89.4,242.1h0a1.2,1.2,0,0,1,.1,1.7h-.1a1.2,1.2,0,0,1-1.7.1h0a1.2,1.2,0,0,1-.1-1.7h.1A1.2,1.2,0,0,1,89.4,242.1Z"/><path class="n" d="M94.1,237h0a.6.6,0,0,1,0,.8L91,241.3a.6.6,0,0,1-.8,0h0a.6.6,0,0,1,0-.8l3.1-3.4A.6.6,0,0,1,94.1,237Z"/><path class="o" d="M86.7,239.7h0a1.2,1.2,0,0,1,.1,1.7h-.1a1.1,1.1,0,0,1-1.6.1h0a1.2,1.2,0,0,1-.1-1.7h0A1.2,1.2,0,0,1,86.7,239.7Z"/><path class="p" d="M90,236.2h0a.6.6,0,0,1,0,.8l-1.7,1.9a.5.5,0,0,1-.7,0h0a.5.5,0,0,1-.1-.8l1.7-1.8A.6.6,0,0,1,90,236.2Z"/><path class="l" d="M84,237.3h0a1.2,1.2,0,0,1,.1,1.7h0a1.2,1.2,0,0,1-1.7.1h0a1.2,1.2,0,0,1-.1-1.7h.1A1.1,1.1,0,0,1,84,237.3Z"/><path class="n" d="M89.3,231.6h0a.6.6,0,0,1,0,.8l-3.6,4.1a.6.6,0,0,1-.8,0h0a.6.6,0,0,1,0-.8l3.6-4A.5.5,0,0,1,89.3,231.6Z"/><path class="i" d="M81.4,234.9h0a1.2,1.2,0,0,1,.1,1.7h-.1a1.2,1.2,0,0,1-1.7.1h0a1.2,1.2,0,0,1-.1-1.7h.1A1.2,1.2,0,0,1,81.4,234.9Z"/><path class="i" d="M85.7,230.2h0a.6.6,0,0,1,.1.8L83,234.1a.6.6,0,0,1-.8,0h0a.6.6,0,0,1,0-.8l2.8-3A.5.5,0,0,1,85.7,230.2Z"/><path class="h" d="M78.7,232.5h0a1.2,1.2,0,0,1,.1,1.7h-.1a1.1,1.1,0,0,1-1.6.1h0a1.2,1.2,0,0,1-.1-1.7h0A1.2,1.2,0,0,1,78.7,232.5Z"/><path class="h" d="M81.5,229.6h0a.5.5,0,0,1,0,.7l-1.2,1.4a.5.5,0,0,1-.7,0h0a.6.6,0,0,1-.1-.8l1.2-1.3A.6.6,0,0,1,81.5,229.6Z"/><path class="q" d="M218.5,203h-9.3a10,10,0,0,0-9.6,7l-26.2,80a5,5,0,0,1-4.6,3.3H81a4.8,4.8,0,0,1-4.8-4.1L65.9,226.4H194.2"/><path class="r" d="M87.5,293.2h61.6a34.5,34.5,0,0,1,34.6,34.5H91.5"/><path class="s" d="M176,338.6a7.1,7.1,0,1,0-14.2,0,7.1,7.1,0,0,0,14.2,0Z"/><path class="t" d="M169.9,329.8a12.9,12.9,0,0,0,2.1,8.4c2,2.9-2.6,4.7-7.3,1.9s-7-10.3-7-10.3Z"/><path class="s" d="M170.4,338.6a1.4,1.4,0,0,0-1.5-1.5,1.5,1.5,0,0,0-1.5,1.5,1.5,1.5,0,0,0,1.5,1.5A1.5,1.5,0,0,0,170.4,338.6Z"/><path class="s" d="M126.3,338.6a7.1,7.1,0,1,0-7.1,7.1A7.1,7.1,0,0,0,126.3,338.6Z"/><path class="t" d="M120.2,329.8a12.9,12.9,0,0,0,2.1,8.4c2,2.9-2.6,4.7-7.3,1.9s-7-10.3-7-10.3Z"/><path class="s" d="M120.7,338.6a1.5,1.5,0,0,0-3,0,1.5,1.5,0,0,0,3,0Z"/><line class="u" x1="186.8" y1="248.8" x2="69.6" y2="248.8"/><line class="u" x1="179.5" y1="271.1" x2="73.3" y2="271.1"/><line class="v" x1="212.4" y1="203" x2="227" y2="203"/><path class="h" d="M278,330.6c.5,2.4,2.5,8.1,1.9,10.9-2.5,2.1-7.8,2.2-11.8,1.2s-6.7,1.1-11.7,1.4-9-1.1-10-3.2,7.5-3.9,13.3-5.7a27,27,0,0,0,9.9-5.2Z"/><path class="w" d="M278,321v9.6a5.5,5.5,0,0,0-1.6.9c-.4.6-1.1,2.4-1.9,2.4-3.1.2-4.9-3.9-4.9-3.9l-1.2-8.8Z"/><path class="h" d="M329.8,310.1c2.4.6,8.4,1.2,10.7,2.9.8,3.2-1.4,8-4,11.2s-1.9,6.6-3.8,11.2-4.8,7.7-7.1,7.7-.4-8.5.5-14.5a26,26,0,0,0-.5-11.2Z"/><path class="w" d="M324.5,304.6l5.3,5.5a4.5,4.5,0,0,0,.2,1.8c.3.7,1.6,2,1.3,2.7-1.2,2.9-5.7,2.8-5.7,2.8l-7.7-6Z"/><path class="x" d="M259.4,183.5c10.8,0,18.8.8,18.8.8,3.5,1.5,9.4,9.4,11.2,14.3s1,13.4.1,17.7c-5.1,23.9-13.6,37.6-15.5,47.1-1.2,5.8,4.5,2.7,4.5,17.4,0,13.1.2,50.1.2,50.1a12.6,12.6,0,0,1-9.4.8s-8.8-55.2-9.7-60.5c-1.4-8.6-1.9-12.2-2.1-27C257.3,223.3,259.4,183.5,259.4,183.5Z"/><path class="d" d="M325.3,319s-40-40.7-42.5-43.5-12.7-57.6-13.4-61.7c0,0-10.2-10.4-10.5-19L292,178.2c1.4,5.3,2.6,5.5,3.6,19.3.4,7.1,2,36.1,3.1,70.5a48,48,0,0,1,8.6,6.9c4.2,4.2,25.2,37.3,25.2,37.3S330.3,317.3,325.3,319Z"/><polygon class="z" points="273.6 123.6 262.3 133.8 258.3 123.2 269.3 111.6 273.6 123.6"/><path class="aa" d="M260.1,127.9s10.8-8.4,9.2-16.3l-11,11.6Z"/><path class="ab" d="M269.3,111.6s-.3,1.7-.7,3.1-9.1,8.2-11.6,9.2-6.1,1.5-7.9-7.4-1.7-17,3.1-22.6,14-3.6,19.1,1S275.7,111.5,269.3,111.6Z"/><path class="e" d="M269.3,111.6l1.6,4.6s1.9-.8,3.5-4.6,5.2-11.5,3.7-15.1-3.9-4.1-6.7-4.7c-1-.1-1.3.1-1.7-.8s-1.8-3.5-3.8-4.7a10.3,10.3,0,0,0-4.9-1.4c-2.1-.2-4.3.4-6.4.7a41.1,41.1,0,0,1-13.1.1H241a.7.7,0,0,0-.1.5c.4,3.7,3,5.7,6.3,6.8,0,0-5.1,4.7-.7,5.9s15.1-2.1,15.1-2.1-4.8,3.5-2.8,4.5,8.7-1.5,8.7-1.5v3.7s2.5-1.6,4.5-.2S273.4,111.6,269.3,111.6Z"/><path class="ac" d="M260.4,134.3c-1,4.4-.9,11.8-1.5,27.3-.4,10-1.4,38.9-1.4,38.9s7.7,5,20.5,4,17.6-7,17.6-7-1.3-40.7-5.4-56.8c-5.9-16.5-14.4-19.4-14.4-19.4Z"/><path class="ad" d="M258.2,181.2,284.4,144c-.8,6.1-13.9,39.2-13.9,39.2l-2.2-.2s-2.6,6.1-3.7,7.9-4.7,2.3-6.9,3C257.9,190.4,258,185.9,258.2,181.2Z"/><path class="aa" d="M271.1,104.8a2.6,2.6,0,0,0-2.3.3c-.3.1.1.5.3.4s2.6-.5,3.2.9.1,0,.1-.1A2.2,2.2,0,0,0,271.1,104.8Z"/><path class="aa" d="M270.5,104.9a.8.8,0,0,0-.4.4l.7.5a2.3,2.3,0,0,1,.2,1.4,2.2,2.2,0,0,1-1.9,2.2h0c1,.3,2.1-.8,2.4-1.7A2.5,2.5,0,0,0,270.5,104.9Z"/><path class="ae" d="M284.9,140.7c1.3-7.2-12.5-11.7-16.3-2.5s-13.4,40.1-13.4,40.1-28.3,17.8-31.1,17.6-13.3,9.9-12.1,11.5,5.9,3,9.3,2,5.5-5.8,6.5-6.6c5.5-1.8,31.7-10.5,35.2-13.5S284.1,145.5,284.9,140.7Z"/><path class="ac" d="M269.6,134.6a89.7,89.7,0,0,0-5.2,13.7c-1.6,5.4-8.6,27.9-8.6,27.9s4.6,5.7,11.3,6.3l8.4-17.3c3.1-6.6,8.5-19.7,9.8-23.6s-3-10.7-5.6-11.2S271.4,130.6,269.6,134.6Z"/><path class="af" d="M228.3,256.7c-.1,4.5-9.3,7.2-11.7,14,.7-2.1,2.5-10.9,7.8-13.8A3.9,3.9,0,0,1,228.3,256.7Z"/><path class="ag" d="M208.3,262.3a3.7,3.7,0,0,1,3.5,1.4c4,4.6,2.3,13.2,2.2,15.2C214.5,271.6,206.9,266.6,208.3,262.3Z"/><path class="ah" d="M231.3,264.5c-.5,7-14.5,10-17.3,21.2.6-2.5,2.6-16.8,11.5-21.2C227.4,263.5,229.6,263.2,231.3,264.5Z"/><path class="ai" d="M202.3,274.2a3.4,3.4,0,0,1,3.5-.2c5,2,6.4,8.5,7.4,12.3C211.4,279.7,203,278.3,202.3,274.2Z"/><path class="aj" d="M190.1,285.7c1.4-4.6,8.7-4.5,13.9-1.6s8.8,8.8,11.2,13.6c-1.8-3.5-6.2-7.1-13.1-8.5C197,288.2,192.8,288.8,190.1,285.7Z"/><path class="ak" d="M227.4,281.2c.9,5.9-10.3,12.1-9.2,22.3-.3-2.6-2.8-15.1,4.2-21C223.8,281.2,225.7,280.4,227.4,281.2Z"/><path class="al" d="M227.4,297.2c1.3,4.2-6.3,9.2-5.3,16.4-.2-1.6-2.4-10.4,1.8-15A3.7,3.7,0,0,1,227.4,297.2Z"/><path class="am" d="M235.3,304.4c1.1,5.6-9.5,10.7-10.3,19.9.3-2.8-.1-13.8,5.7-18.7A4.7,4.7,0,0,1,235.3,304.4Z"/><path class="an" d="M196.3,309c.9-4.2,6.7-5,11.7-3.3,12.3,4.1,14.9,16.3,16.3,20.4C219.2,311.6,202.6,315,196.3,309Z"/><path class="ao" d="M195.3,298.7c1.6-4.6,8.7-3.8,13.3-1.3,6.1,3.3,8.9,8.6,11.3,12.4-2.7-4.3-8.1-6.6-13.1-7.5S197.7,301.7,195.3,298.7Z"/><g class="ap"><path d="M225.5,326.4v.9h0a.8.8,0,0,1-.2.4,25,25,0,0,1,.5,2.9h0a.7.7,0,0,1-.4.5h-.3v2.1a52.9,52.9,0,0,1-2.2,15,.3.3,0,0,0,.3.5h.1c.2,0,.3-.2.4-.4h0a54.5,54.5,0,0,0,2.3-15.2,48,48,0,0,0-.5-6.7M220.6,312h0a60.6,60.6,0,0,1,3.7,12.5,3.6,3.6,0,0,1,.4.9,22.8,22.8,0,0,1,.2-2.6A60.8,60.8,0,0,0,223,316a.3.3,0,0,1-.3.3h-.1a.4.4,0,0,1-.4-.4,10.1,10.1,0,0,1-.5-2.5h-.1l-.4-.2-.6-1.3m-1.5-5.9.3.7h0a.5.5,0,0,1-.3.5h-.4a19.4,19.4,0,0,1,2.7,4.3c-.7-1.9-1.5-3.8-2.3-5.6m-5.9-17.6a46.3,46.3,0,0,0,1,6.5,1.4,1.4,0,0,0,.2.6,41.5,41.5,0,0,1,2.7,5.6h0a.6.6,0,0,1-.3.6h-.4c.6,1.5,1.2,3.1,1.9,4.7a16.7,16.7,0,0,1-.7-4,41.6,41.6,0,0,1-3.5-12.9.5.5,0,0,1-.3.3h-.1a.4.4,0,0,1-.4-.4v-.6h0a.3.3,0,0,1-.1-.2m.2-7.8-.3,3.9c.2.5.3.9.5,1.3a15.5,15.5,0,0,1,.4-2.1c.1-.8.1-1.6.2-2.4s-.2.2-.4.2h0a.4.4,0,0,1-.4-.4v-.5m6.4-17-.3.2a38.8,38.8,0,0,0-5.1,11.8v1.9c0,1,0,2.1-.1,3.2a39.8,39.8,0,0,1,1.7-7.6c-.1.2-.2.3-.4.3a.1.1,0,0,1-.1-.1.3.3,0,0,1-.3-.5,40.8,40.8,0,0,1,4-8.4l.6-.8"/><path d="M225.8,257.8h-.2a26.5,26.5,0,0,0-5.8,5.8h.3a.4.4,0,0,1,.1.6,39.6,39.6,0,0,0-4.2,8.8h0a36.6,36.6,0,0,1,3.9-8.2,25,25,0,0,1,6.2-6.4c.2-.1.2-.4.1-.6l-.4-.2"/><path d="M219.9,263.7h-.1l-.6.8a40.8,40.8,0,0,0-4,8.4.3.3,0,0,0,.3.5.1.1,0,0,0,.1.1c.2,0,.3-.1.4-.3a39.6,39.6,0,0,1,4.2-8.8.4.4,0,0,0-.1-.6h-.2"/><path d="M214.3,280.8c0,.2-.1.4-.1.6v-.6m-4.2-16.7h-.3a.3.3,0,0,0-.1.5,21.1,21.1,0,0,1,3.9,12.9c0,1-.1,2-.2,3.1.3-1.7.6-3.3,1-5a21.5,21.5,0,0,0-4-11.4c-.1-.2-.2-.2-.3-.2"/><path d="M214.4,275.7c-.4,1.7-.7,3.3-1,5v.5a.4.4,0,0,0,.4.4h0c.2,0,.4-.1.4-.2s.1-.4.1-.6.1-2.2.1-3.2v-1.9"/><path d="M227.5,266.2h-.2a34,34,0,0,0-9.7,9.9,31.5,31.5,0,0,0-3.6,7.7v2c0,1.2,0,2.5.1,3.7v-.2h0v-.5c-.1-4,1.6-8.3,4.1-12.2a33.1,33.1,0,0,1,9.4-9.6c.2-.2.3-.4.2-.6a.4.4,0,0,0-.4-.2"/><path d="M214,283.8a15.5,15.5,0,0,0-.4,2.1c.2.8.3,1.6.5,2.5h0a.7.7,0,0,1-.4.5h-.1l-.3-.2h0v.6a.4.4,0,0,0,.4.4h.1a.5.5,0,0,0,.3-.3c-.1-1.2-.1-2.5-.1-3.7v-2"/><path d="M204.7,274.9l-.4.2a.5.5,0,0,0,.2.6,17.4,17.4,0,0,1,8.7,12.8h0c0-.9-.1-1.8-.1-2.7v-1.2a17.6,17.6,0,0,0-8.2-9.6h-.2"/><path d="M213.1,284.6v1.2c0,.9.1,1.8.1,2.7a.3.3,0,0,0,.1.2,14.1,14.1,0,0,1,.3-2.8c-.2-.4-.3-.8-.5-1.3"/><path d="M213.6,285.9a14.1,14.1,0,0,0-.3,2.8l.3.2h.1a.7.7,0,0,0,.4-.5h0c-.2-.9-.3-1.7-.5-2.5"/><path d="M195,284.8h-.3a.4.4,0,1,0,0,.8h.3a21,21,0,0,1,12.6,4,24.9,24.9,0,0,1,8.7,11.9c0,.1,0,.2.1.2a54.1,54.1,0,0,1-2-6.1,23.9,23.9,0,0,0-6.3-6.7,21.9,21.9,0,0,0-13.1-4.1"/><path d="M214.4,295.6a54.1,54.1,0,0,0,2,6.1h.4a.6.6,0,0,0,.3-.6h0a41.5,41.5,0,0,0-2.7-5.6"/><path d="M218.3,306.4l.3.7v.2l-.4-.9m6.3-23h-.3a26.7,26.7,0,0,0-6.8,17.5c0,.5.1.9.1,1.4l1.5,3.7a16.6,16.6,0,0,1-.7-5.1,25.9,25.9,0,0,1,6.5-16.9c.2-.2.1-.4,0-.6h-.3"/><path d="M217.6,302.4a16.7,16.7,0,0,0,.7,4l.4.9h.4a.5.5,0,0,0,.3-.5h0l-.3-.7-1.5-3.7"/><path d="M225.6,298.9c-.1,0-.3.1-.3.2a20.1,20.1,0,0,0-3.8,11.9v.9a11.7,11.7,0,0,1,.5,1.1v.2c.3.9.7,1.8,1,2.8v-.2a15.9,15.9,0,0,1-.7-4.8,19.2,19.2,0,0,1,3.7-11.4.6.6,0,0,0-.1-.6h-.3"/><path d="M222,313.2c0,.2-.1.3-.2.3h-.1a10.1,10.1,0,0,0,.5,2.5.4.4,0,0,0,.4.4h.1a.3.3,0,0,0,.3-.3c-.3-1-.7-1.9-1-2.8"/><path d="M232.7,306.4l-.3.2a28,28,0,0,0-7.5,16.2c.2,1.2.4,2.3.6,3.6a27.9,27.9,0,0,1,7.6-19.3.5.5,0,0,0-.1-.6h-.3"/><path d="M224.9,322.8a22.8,22.8,0,0,0-.2,2.6l.6,2.3a.8.8,0,0,0,.2-.4h0v-.9c-.2-1.3-.4-2.4-.6-3.6"/><path d="M201.8,308a.4.4,0,0,0-.4.4.7.7,0,0,0,.4.5,24.3,24.3,0,0,1,15.9,7.2,23.4,23.4,0,0,1,7.2,14.6c0,.1.1.2.2.3l-.3-3.4a.4.4,0,0,1-.1-.3v-.9a12.9,12.9,0,0,0-.4-1.9,25.4,25.4,0,0,0-6-9,26.1,26.1,0,0,0-16.5-7.5h0"/><path d="M224.8,327.6l.3,3.4h.3a.7.7,0,0,0,.4-.5h0a25,25,0,0,0-.5-2.9h-.5m-.5-3.1a12.9,12.9,0,0,1,.4,1.9v-1a3.6,3.6,0,0,0-.4-.9"/><path d="M224.7,326.4v.9a.4.4,0,0,0,.1.3c0-.4-.1-.8-.1-1.2"/><path d="M224.7,325.4v1c0,.4.1.8.1,1.2h.5l-.6-2.3"/><path d="M221.4,311.7h0v.2h0v-.2m-21.7-13.8a.5.5,0,0,0-.5.4.5.5,0,0,0,.5.5A23.6,23.6,0,0,1,220.6,312c-.6-1.6-1.2-3.1-1.9-4.6a24.4,24.4,0,0,0-19-9.5h0"/><path d="M218.7,307.4c.7,1.5,1.3,3,1.9,4.6l.6,1.3.4.2h.1a7.8,7.8,0,0,1-.2-1.6v-.2h0a19.4,19.4,0,0,0-2.7-4.3"/><path d="M221.5,311.9h0c.2.4.3.9.5,1.3V313a11.7,11.7,0,0,0-.5-1.1"/><path d="M221.5,311.9a7.8,7.8,0,0,0,.2,1.6h.1c.1,0,.2-.1.2-.3s-.3-.9-.5-1.3"/></g></g></svg>