<svg xmlns="http://www.w3.org/2000/svg" xmlns:xlink="http://www.w3.org/1999/xlink" viewBox="0 0 400 400"><defs><style>.a{isolation:isolate;}.b{fill:url(#a);}.c{font-size:27.72px;font-family:AdobeArabic-Regular, Adobe Arabic;}.d{fill:#6a6a6a;}.e{fill:#303030;}.f{fill:#0e71bb;}.g{fill:#ffe7cb;}.h{fill:#ffbd95;}.i{fill:#f59b6b;}.j{fill:#f9c7a5;}.k{fill:#21e2e2;}.l{fill:#152735;}.m{fill:#1f364c;}.n{fill:#0c3f6f;}.o{fill:#b9b9bd;mix-blend-mode:multiply;}.p{fill:#005b9f;}.q{fill:#4ea4f9;}.r{fill:#fff;}.s{fill:#28aae1;}.t{fill:url(#b);}.u{fill:url(#c);}.v{fill:url(#d);}.w{fill:url(#e);}.x{fill:url(#f);}.y{fill:url(#g);}</style><linearGradient id="a" x1="226.84" y1="343.44" x2="173.9" y2="43.21" gradientUnits="userSpaceOnUse"><stop offset="0" stop-color="#c6e6ff"/><stop offset="1" stop-color="#fff"/></linearGradient><linearGradient id="b" x1="29.91" y1="206.93" x2="103.1" y2="206.93" gradientUnits="userSpaceOnUse"><stop offset="0" stop-color="#419ee3"/><stop offset="1" stop-color="#0d79c9"/></linearGradient><linearGradient id="c" x1="83.6" y1="247.77" x2="149.79" y2="247.77" gradientUnits="userSpaceOnUse"><stop offset="0" stop-color="#40d5e6"/><stop offset="1" stop-color="#57f"/></linearGradient><linearGradient id="d" x1="89.26" y1="257.39" x2="138.94" y2="257.39" xlink:href="#c"/><linearGradient id="e" x1="71.32" y1="217.42" x2="129.17" y2="217.42" xlink:href="#b"/><linearGradient id="f" x1="58.05" y1="300.4" x2="111.43" y2="300.4" gradientUnits="userSpaceOnUse"><stop offset="0" stop-color="#ffbc98"/><stop offset="1" stop-color="#ff9f6c"/></linearGradient><linearGradient id="g" x1="95.98" y1="303.25" x2="55.94" y2="280.13" xlink:href="#f"/></defs><title>cp-iran-dedicated-server</title><g class="a"><path class="b" d="M96.3,278.6C37,254.1-.3,194.1,5.8,130.3c2.3-24.3,10.5-46,29.8-57.2C95.9,37.9,143,92.4,183.3,133.6s157.3,4.7,195.9,53.2S383.4,323,297,330.6C245.6,335.1,158.5,304.3,96.3,278.6Z"/><text class="c" transform="translate(166.7 -34.8)">*<tspan x="8.1" y="0">ناریا یصاصتخا روس لتنک لنپ</tspan></text><rect class="d" x="161.6" y="237" width="6.5" height="80.99"/><rect class="d" x="230.3" y="237" width="6.3" height="80.99"/><polygon class="d" points="171.1 227 167.8 227 165 169.4 168.4 169.3 171.1 227"/><polygon class="d" points="229.7 227 226.4 227 229 169.3 232.4 169.4 229.7 227"/><path class="e" d="M235.5,237H160.9a5,5,0,0,1-5-5h0a5,5,0,0,1,5-5h74.6a5,5,0,0,1,5,5h0A5,5,0,0,1,235.5,237Z"/><rect class="f" x="159.9" y="155.7" width="77.9" height="29.88" rx="1.3"/><path class="g" d="M189.1,132.1c1.8-4.6-2-10.5-10.7-13.9s-15.1-4.7-17.4-5.5-15.6-6.8-19.5-7.8-7.9.1-9.4,3.8,2.9,9.1,8.7,12.7S184,144.6,189.1,132.1Z"/><path class="g" d="M143.4,115.7c3-2.8,4-6.7-3.4-15.5s-27.3-27.3-27.3-27.3l-4.8,4.5s10.6,21,14.4,26S135.6,123,143.4,115.7Z"/><path class="g" d="M101,66.8h0a1.4,1.4,0,0,1,2,.2l3.7,4.6a1.4,1.4,0,0,1-.2,2h0a1.4,1.4,0,0,1-2-.2l-3.7-4.7A1.3,1.3,0,0,1,101,66.8Z"/><path class="g" d="M102.9,65h0a1.3,1.3,0,0,1,1.9.2l3.8,4.6a1.4,1.4,0,0,1-.2,2h0a1.5,1.5,0,0,1-2-.3l-3.7-4.6A1.3,1.3,0,0,1,102.9,65Z"/><path class="g" d="M104.8,63.3h0a1.4,1.4,0,0,1,2,.2l3.7,4.6a1.4,1.4,0,0,1-.2,2h0a1.4,1.4,0,0,1-2-.2l-3.7-4.6A1.4,1.4,0,0,1,104.8,63.3Z"/><path class="g" d="M106.8,61.9h0a1.4,1.4,0,0,1,2,.2l3.7,4.6a1.4,1.4,0,0,1-.2,2h0a1.7,1.7,0,0,1-2-.2l-3.7-4.7A1.3,1.3,0,0,1,106.8,61.9Z"/><path class="g" d="M118.6,79.3S116,69.8,115,68.2s-6.7-6.5-6.7-6.5-.5,3.3-2,4.2-5.5,2.8-5.5,2.8,2.6,6,4.7,8.2a25.3,25.3,0,0,0,4.6,4Z"/><path class="g" d="M220.3,135c-1.9-4.7,1.9-10.6,10.6-14.1s15-4.8,17.3-5.7,15.6-6.9,19.4-7.9,7.9,0,9.4,3.7-2.8,9-8.5,12.7S225.5,147.4,220.3,135Z"/><path class="g" d="M265.4,116.8c-3-2.8-3.9-6.7,3.7-15.5s27.7-26.8,27.7-26.8l4.7,4.6s-10.9,20.8-14.8,25.8S273.1,124.2,265.4,116.8Z"/><path class="h" d="M228.8,163.3c5-12.7,17.3-34.1,11-38.3-8.2-5.5-32.6-9.9-32.6-9.9v.4s-24.8.7-33.6,5.2c-6.8,3.5,3.4,27.3,7,40.4.8,3.1.6,16.9-.5,29.2-.2,3-2.5,16.9-2.4,22.7,0,1.7,17.9,13.4,23.4,14v-.4c5.6,0,26.2-9.6,26.4-11.3.8-5.7-1-19.8-1-22.8C226.9,180.2,227.6,166.3,228.8,163.3Z"/><path class="i" d="M221.9,124.9s5.3-4.6,10.8-5.7,19.4-6.8,19.4-6.8a13.1,13.1,0,0,1,8,8.1c2.4,6.6,2.7,9.7,2.7,9.7s-29.1,11.5-31,11.6S224.7,132.6,221.9,124.9Z"/><path class="g" d="M217.7,111.7c-.5-2.5-1.2-15.1-1.2-15.1l-8.3-.4v.4l-8.3-.4s-2,12.4-2.7,14.9-7.7,5.9-7.7,5.9l17.6.9v-.4l17.6,1S218.1,114.3,217.7,111.7Z"/><path class="j" d="M217.3,108.2c-.3-3.9-.7-9.3-.8-11l-.5-.6-7.8-.4v.4l-8.3-.4s-2,12.4-2.7,14.9-7.7,5.9-7.7,5.9h.8l17-3.5c2.2-.6,10-5.3,10-5.3Z"/><path class="g" d="M290.8,80.8s2.7-9.4,3.8-11,6.8-6.4,6.8-6.4.5,3.4,1.9,4.3,5.5,2.9,5.5,2.9-2.8,5.9-4.8,8.1a30.5,30.5,0,0,1-4.7,3.9Z"/><path class="g" d="M308.6,68.6h0a1.4,1.4,0,0,0-2,.2l-3.8,4.5a1.4,1.4,0,0,0,.2,2h0a1.4,1.4,0,0,0,2-.2l3.8-4.5A1.4,1.4,0,0,0,308.6,68.6Z"/><path class="g" d="M306.7,66.8h0a1.4,1.4,0,0,0-1.9.2L301,71.5a1.3,1.3,0,0,0,.2,1.9h0a1.3,1.3,0,0,0,1.9-.1l3.8-4.6A1.3,1.3,0,0,0,306.7,66.8Z"/><path class="g" d="M304.9,65.1h-.1a1.4,1.4,0,0,0-1.9.1l-3.8,4.6a1.4,1.4,0,0,0,.2,2h0a1.4,1.4,0,0,0,1.9-.2L305,67A1.4,1.4,0,0,0,304.9,65.1Z"/><path class="g" d="M302.9,63.6h0a1.4,1.4,0,0,0-2,.2l-3.8,4.5a1.4,1.4,0,0,0,.2,2h0a1.3,1.3,0,0,0,1.9-.2l3.8-4.5A1.4,1.4,0,0,0,302.9,63.6Z"/><path class="i" d="M187.4,122.1s-5.3-4.6-10.9-5.6-19.5-6.6-19.5-6.6a13.2,13.2,0,0,0-7.8,8.2c-2.4,6.6-2.6,9.8-2.6,9.8s29.2,11.1,31.1,11.2S184.6,129.8,187.4,122.1Z"/><path class="g" d="M224.2,86.8c-.6,10.9-9.5,21.3-16.5,20.9S193,96,193.6,85s8-19.4,16.4-18.9S224.8,75.8,224.2,86.8Z"/><path class="f" d="M193.5,87.2c-.6-1.2-2.6-6.4-2-8.7s3.6-7,4.6-8.5,9.1-4.9,10.3-5a36.9,36.9,0,0,1,6.9.4c2.4.6,6.7,2.5,7.6,4.5s3.2,4.5,3.9,6.1,1.9,5.8,1.7,6.4-1.7,5.5-1.8,5.9a8.3,8.3,0,0,1-.9,1.5s-3.5-10.7-3.6-11.7-20.8-2.5-22.2-1.9S193.5,87.2,193.5,87.2Z"/><path class="k" d="M185.6,311.8l-14.7-1.5a132.8,132.8,0,0,0-12.5,10,10.8,10.8,0,0,0-3.3,9.2s12.5,3.2,17.7,0a113.4,113.4,0,0,1,12.8-6.5Z"/><polygon class="l" points="177.6 197.8 165.3 218.4 164.5 228.5 201 228.5 228.2 227.6 233.3 219.2 226.3 197.8 177.6 197.8"/><path class="m" d="M163.2,223.6l3.7,89.6h22.7l2.1-89.6s-3.3-11.4-15.1-11.4C166.5,212.2,163.2,223.6,163.2,223.6Z"/><path class="l" d="M176.6,212.2h0c-10.1,0-13.4,11.4-13.4,11.4l3.7,89.6h9.7Z"/><path class="k" d="M214,313.1l14.7-1.5s8.2,5.8,12.5,10.1a10.5,10.5,0,0,1,3.3,9.1s-12.4,3.3-17.7,0a135.8,135.8,0,0,0-12.8-6.5Z"/><path class="m" d="M236.5,225l-3.7,89.6H210L207.9,225s3.4-11.5,15.1-11.5C233.1,213.5,236.5,225,236.5,225Z"/><path class="l" d="M222.2,213.6c-11,.6-14.3,11.4-14.3,11.4l2.1,89.6h12.2Z"/><path class="i" d="M241.9,125.5c-.8-2-6.9-3.8-12.3-5.8a78.2,78.2,0,0,1-9-3.9l-13.9,7-13-8.4s-4.5,1.6-9.4,2.9-11.8,2.5-12.8,4.4,6.7,40.2,7.7,43.4-3.8,26.4-1.3,33.3l24.6,1.2h.1l24.1-.5c2.6-7.6,1.5-28.5,2.8-31.7S243.9,131.1,241.9,125.5Z"/><path class="i" d="M208.1,197.2c-2.3-1.5-5.7-3.1-7.8-4.4s.1-5.8.1-8.1,6.6-6.5,11-8,11.9-.7,13.7-3.7-2.7-6.1-4.8-6.1-14.9-4.2-17-3.9-17.4,1.4-19.8-.5-13.8-37.7-13.8-37.7c2.5,12,8.9,38,9.6,40s-4,26.9-1.4,33.7l26.2,1.8h0l22.6-1.2-5.5-1.7C219.1,196.7,210.4,198.7,208.1,197.2Z"/><rect class="n" x="58.9" y="253.6" width="144.2" height="8.87" transform="translate(-127 389.1) rotate(-90)"/><rect class="n" x="214.4" y="254.4" width="144.2" height="8.87" transform="translate(27.7 545.3) rotate(-90)"/><rect class="n" x="128.4" y="185.9" width="160.6" height="23.53"/><polygon class="o" points="290.9 201.9 126.6 204.2 126.6 196.4 290.9 196.5 290.9 201.9"/><rect class="p" x="116.2" y="182.5" width="185.4" height="14.57"/><polygon class="q" points="187.2 207.5 184.3 175.1 245.4 175.1 241.7 207.5 187.2 207.5"/><path class="r" d="M220.3,192.5c-.3,2.7-2.9,4.6-5.7,4.6s-5.4-1.9-5.7-4.6,2.2-5.7,5.7-5.7S220.7,189.5,220.3,192.5Z"/><path class="s" d="M219.2,192.1l-2.4-2.4-2.2,1.9h0l-2.1-1.9-2.5,2.4,2.2,1.7h0l2.4,2.1,2.5-2.1h0Zm-2.5-1.4,1.5,1.4-1.6,1.3-1.5-1.3Zm-4.2,0,1.6,1.4-1.5,1.3-1.6-1.3Zm2.1,4.4-1.5-1.3,1.5-1.3,1.5,1.3Z"/><path class="t" d="M36.3,110.2c6.3-3,12.6,17.1,12.6,17.1,10.7,14.2,25.7-4.7,24.3,16.5-2.6,37.1,42.6,11.7,21.8,50.4s18.4,21.8,5.4,53.1,3.9,68.4-15.7,53.1c0,0-17.1-37.7-34.9-49.3s10.7-25.5,5.1-41.4c-8-23-27.5-22.1-13.5-46.8S14.9,120.5,36.3,110.2Z"/><path class="r" d="M90.9,286.2c-8.4-5.9-18.3-47.4-18.9-72.1-.3-12.6-4.1-17.9-7.4-22.6s-5.8-8.2-4.3-17c3.1-16.9-4.9-24.2-5-24.2l.9-1.1c.4.3,8.7,7.8,5.5,25.5-1.5,8.2,1,11.7,4.1,16s7.3,10.3,7.6,23.4c.6,26.5,10.7,65.6,18.3,71Z"/><path class="u" d="M94.1,289.3a15.9,15.9,0,0,1-3.6-.4q-4.9-1-6.3-5.1c-2.3-6.5,3-17.1,7.2-22.2a32.3,32.3,0,0,0,6.5-21c-.1-2.1-.3-4-.5-5.6-.5-4.9-.9-8.3,1.1-10.6s5.4-3,11.8-3c11.3-.1,15.7-4.7,19.3-8.5a17.6,17.6,0,0,1,4.7-4h0c5.6-3.1,11.5-3.5,14.1-1.1s2.3,3.4.2,7.7a29.2,29.2,0,0,1-6.1,8.3c-2.6,2.6-4.4,4.4-3.5,7.9.2.8.5,1.6.7,2.5,1.8,5.9,3.7,12.6-6.4,17.2-2.2,1-4.2,1.7-5.9,2.4-7.1,2.8-11.4,4.5-16.2,14.7-.9,1.9-1.8,3.8-2.5,5.6C104.8,282.8,102,289.3,94.1,289.3ZM135,210.1a19,19,0,0,0-4.4,3.8c-3.8,3.9-8.4,8.8-20.3,8.9-5.9,0-9.2.8-10.7,2.5s-1.3,5.1-.8,9.5c.2,1.7.4,3.6.5,5.7a33.7,33.7,0,0,1-6.8,22c-4.2,5-9,15.1-7,20.8.8,2.3,2.5,3.7,5.3,4.2,9.6,2,12.2-4,16.6-13.9l2.5-5.7c5.1-10.7,9.8-12.6,17-15.4,1.7-.7,3.7-1.4,5.8-2.4,9-4.1,7.4-9.6,5.7-15.6a18.2,18.2,0,0,1-.7-2.5c-1.1-4.2,1-6.4,3.8-9.2a31.2,31.2,0,0,0,5.9-7.9c.9-1.9,1.7-4.5,0-6.1s-7.4-1.4-12.4,1.3Z"/><path class="v" d="M90.7,297.4H89.3c0-1.3,1.8-32.3,14.2-41.3s17.9-20.6,20-27.8,14.7-10.7,15.2-10.8l.2,1.4c-.1,0-11.9,2.2-14.1,9.8s-6.5,18.3-20.5,28.5C92.4,265.8,90.7,297.1,90.7,297.4Z"/><path class="w" d="M119.1,141.4c-8.9-3-7,14-10.8,26.6s-41.5,5.5-25.6,37-20.1,10.6-9.3,38.1.9,57,12.6,49.5,6.5-42.2,18.6-46.3,14.1-8.9,2.1-20.1,31.5-22.3,20.8-44.9S129.3,144.9,119.1,141.4Z"/><path class="r" d="M91.4,291.2c-1.2-4.7-10.6-46.1-1.8-51.1s7.6-21.6,6.4-37.8c-1.1-14.4,17.4-21.1,18.2-21.4l.4,1.3c-.2.1-18.2,6.7-17.2,20,1.2,16.6,1.4,34.3-7.1,39.1-6.7,3.8-.5,37.1,2.4,49.6Z"/><polygon class="x" points="111.4 276.5 98.8 324.3 70.7 324.3 58 276.5 111.4 276.5"/><path class="y" d="M111.4,276.5s-27.7,5.2-27.7,47.8h-13L58,276.5Z"/></g></svg>