<svg xmlns="http://www.w3.org/2000/svg" xmlns:xlink="http://www.w3.org/1999/xlink" viewBox="0 0 400 400"><defs><style>.a{font-size:38.43px;font-family:AdobeArabic-Regular, Adobe Arabic;}.a,.p{fill:#fff;}.b{opacity:0.58;isolation:isolate;fill:url(#a);}.c{fill:url(#b);}.d{fill:#288ed9;}.e{fill:#ffe7cb;}.f{fill:#edd7c0;}.g{fill:#0e71bb;}.h{fill:url(#c);}.i{fill:none;stroke:#638be2;stroke-linecap:round;stroke-linejoin:round;stroke-width:4.39px;}.j{fill:#005b9f;}.k{fill:url(#d);}.l{fill:url(#e);}.m{fill:url(#f);}.n{fill:url(#g);}.o{fill:#f59b6b;}.q{fill:#28aae1;}</style><linearGradient id="a" x1="105.06" y1="95.62" x2="305.92" y2="362.16" gradientUnits="userSpaceOnUse"><stop offset="0" stop-color="#c6e6ff"/><stop offset="1" stop-color="#fff"/></linearGradient><linearGradient id="b" x1="95.79" y1="271.13" x2="153.57" y2="271.13" gradientUnits="userSpaceOnUse"><stop offset="0" stop-color="#419ee3"/><stop offset="1" stop-color="#0d79c9"/></linearGradient><linearGradient id="c" x1="288.04" y1="274.25" x2="223.78" y2="274.25" xlink:href="#b"/><linearGradient id="d" x1="285.57" y1="284.26" x2="319.55" y2="284.26" gradientUnits="userSpaceOnUse"><stop offset="0" stop-color="#44989f"/><stop offset="0.21" stop-color="#39b0b4"/><stop offset="0.52" stop-color="#2ccbcd"/><stop offset="0.8" stop-color="#24dcdd"/><stop offset="1" stop-color="#21e2e2"/></linearGradient><linearGradient id="e" x1="282.13" y1="270.46" x2="297.55" y2="270.46" xlink:href="#d"/><linearGradient id="f" x1="253.96" y1="280.51" x2="283.84" y2="280.51" xlink:href="#d"/><linearGradient id="g" x1="336.03" y1="304.77" x2="232.47" y2="304.77" gradientUnits="userSpaceOnUse"><stop offset="0" stop-color="#ffbc98"/><stop offset="1" stop-color="#ff9f6c"/></linearGradient></defs><title>cp-windows-dedicated-server</title><text class="a" transform="translate(1.2 -38.7)">زودنیو یصاصتخا روس لتنک لنپ*</text><path class="b" d="M346.7,325.9a21.3,21.3,0,0,0,18.7-10.8c20.8-38.3,13.6-94.5-14.5-109.5-35.1-18.9,14.5-74-32.1-102.1s-84.3,35.8-147.5,1-112.2,18-104.9,55.9c5.1,26.5,18.6,49.5-16.5,83.4-24.1,23.2-4.1,56.1,10.7,74.4a21.3,21.3,0,0,0,16.6,7.7Z"/><path class="c" d="M141.9,218.9c-24.8,25.8-46.1,104.5-46.1,104.5h35.6l22.2-52.3Z"/><path class="d" d="M270.9,223.2c-5.2-5.9-32.8-25.3-68-23.2-31,1.9-56.1,11.4-61,18.9-3.6,5.4,4.3,42.3,9.7,56.9a127.3,127.3,0,0,1,7.8,43.6s87.8-.5,88.3,0,10.9-32.3,12.3-48.7S258.3,236.3,270.9,223.2Z"/><path class="e" d="M223.4,169.5s.4,27.2,0,35.4-13.1,15.4-17.7,15.6-15.1-6.7-16.7-18.3V177.6Z"/><path class="f" d="M223.6,184.3c-.1-7.9-.2-14.8-.2-14.8L189,177.6v20.2c2.8,12.6,21.9,9.2,26.4-2.8C218,188.1,220.2,186.1,223.6,184.3Z"/><path class="e" d="M179.8,158.9c1.3,19.9,9.5,39.3,22.4,37.2,16-2.5,20.9-26.8,20.2-40s-8.1-21.5-19.6-21.5S178.8,141.9,179.8,158.9Z"/><path class="e" d="M226.2,165.5c-.9,4-2.8,7-4.3,6.8s-2.1-3.7-1.3-7.7,2.8-7,4.4-6.8S227,161.5,226.2,165.5Z"/><path class="g" d="M180.1,162c-2.4-3.7-2.6-5.2-2.4-11.4s5.4-6.4,5.3-9.1,3.2-9.7,17-10.3,13,5.7,17.3,6.2,10.9,4.8,7.7,20.4c0,0-3.8.4-5.3,8a.7.7,0,0,1-1.2.2,9,9,0,0,1-1.2-2.9c-1.1-3.8-5.2,1.9-5.9-5.7-.6-5.3-13.7,4.5-23.5-4.2,0,0-1.4,1.9-5.6,1.8C179.9,154.9,180.1,162,180.1,162Z"/><path class="h" d="M287.9,303.1c0-22.6-6.6-68-17-79.9,0,0-16.4,8.7-21.5,36.4-1.6,8.3,1,32,1.7,42l-27.3,4.2.3,19.6h49.7C281.1,325.4,289,319.3,287.9,303.1Z"/><path class="e" d="M199.1,324.4l2.4-2.2,7.1,2.5a13.4,13.4,0,0,0,3.9.7h14.2s6.7-1.5,6.9-9.4-6.6-10.2-9.6-10.2H208.5a8.5,8.5,0,0,1-2.3-.3l-11.1-2.3a7.4,7.4,0,0,0-4.8.8l-6.2,3.6a13.7,13.7,0,0,0-3.3,2.5l-11.4,11.4a2.3,2.3,0,0,0,1.6,3.9h25.6A3.6,3.6,0,0,0,199.1,324.4Z"/><line class="i" x1="12" y1="327.1" x2="396.6" y2="327.1"/><path class="j" d="M165.6,329.5h52.1a5.4,5.4,0,0,0,5.4-5.4h0a2.5,2.5,0,0,0-2.4-2.5H165.6a2.5,2.5,0,0,0-2.5,2.5V327A2.5,2.5,0,0,0,165.6,329.5Z"/><path class="j" d="M73.3,329.5H182.2a6.4,6.4,0,0,0,6.1-8.1l-19.2-69.9a10.4,10.4,0,0,0-10.1-7.7H50.1a6.3,6.3,0,0,0-6.1,8l19.2,70A10.6,10.6,0,0,0,73.3,329.5Z"/><path class="k" d="M319.5,269.9c-1.6.4-3.9,2.2-6.4,4.6a89.6,89.6,0,0,1-8.8,7.9l-6.2,4.5-5.6,4.3c-3.4,2.7-6,5.4-6.9,7.5.9-2.1,1.3-5.8,3-10.3a31.7,31.7,0,0,1,3.6-7.1,26.2,26.2,0,0,1,6.3-6.6,24.1,24.1,0,0,1,12.7-4.6C315,269.8,317.9,270.3,319.5,269.9Z"/><path class="l" d="M284.2,297.1c.2-2-.8-5.3-1.5-9.5a42.9,42.9,0,0,1,.3-15.5,56.2,56.2,0,0,1,7.7-17.8c3-4.7,5.8-8.1,6.9-10.5-1.1,2.4-1.7,6.8-2.3,12.2s-1.3,11.6-2.8,18.3a74.2,74.2,0,0,1-5,13.9C285.8,292,284.4,295.1,284.2,297.1Z"/><path class="m" d="M254,262.1c1.6.7,4.7.7,8.6,1.9a27,27,0,0,1,12.3,7.4,34.3,34.3,0,0,1,7.7,16.2c1,5.1.7,9.1,1.2,11.4-.5-2.4-2.6-5.8-5.6-9.4s-6.8-7.4-10.5-11.7a98.2,98.2,0,0,1-7.8-9.9C257.7,265.1,255.6,262.8,254,262.1Z"/><path class="n" d="M303.7,285.5H271.6a2.8,2.8,0,0,0-2.8,3.2l3.9,32.8a2.7,2.7,0,0,0,2.8,2.5h24.3a2.7,2.7,0,0,0,2.8-2.5l4-32.8A2.9,2.9,0,0,0,303.7,285.5Z"/><path class="o" d="M267.2,285.6l1.4,12.2A1.5,1.5,0,0,0,270,299h35.4a1.5,1.5,0,0,0,1.3-1.2l1.4-12.2a1.3,1.3,0,0,0-1.3-1.5H268.5A1.3,1.3,0,0,0,267.2,285.6Z"/><path class="p" d="M121.4,290.2c1.2,6.3-2.9,11.2-9,11.2s-11.8-4.7-13.2-10.6,2.1-11.2,8.2-11.6S120,283.8,121.4,290.2Z"/><path class="q" d="M118.8,289.3l-6.2-4.9-3.1,4.2h0l-4.8-3.8-3.6,5,4.7,3.8h0l5.9,4.7,3.9-4.9h0Zm-5.8-2.9,3.7,2.9-2.4,3.1-3.6-2.9Zm-7.8.3,3.6,2.9-2.3,3-3.5-2.8Zm6.1,9.7-3.6-2.9,2.3-3,3.6,2.9Z"/></svg>