<svg xmlns="http://www.w3.org/2000/svg" xmlns:xlink="http://www.w3.org/1999/xlink" viewBox="0 0 400 400"><defs><style>.a{isolation:isolate;}.b{fill:url(#a);}.c{font-size:27.72px;font-family:AdobeArabic-Regular, Adobe Arabic;}.d{fill:url(#b);}.e{fill:#1b1b35;}.f{fill:url(#c);}.g{fill:url(#d);}.h,.i{fill:#d3c2be;}.ai,.h,.i{opacity:0.5;}.h{mix-blend-mode:screen;}.ai,.i{mix-blend-mode:multiply;}.j{fill:url(#e);}.k{fill:url(#f);}.l{fill:#f0dcc1;}.m{fill:#ceb699;}.n{fill:#fff;}.o{fill:#c8cbda;}.p{fill:#939cbb;}.q{fill:#382632;}.r{fill:#da6249;}.s{fill:#63b4f7;}.t{fill:#288ed9;}.u{fill:#005b9f;}.v{fill:#98cdf2;}.w{fill:#1f364c;}.x{fill:#152735;}.y{fill:#21e2e2;}.z{fill:#f0d2b9;}.aa{fill:#ffe7cb;}.ab{fill:#f59b6b;}.ac,.ae,.af,.ag,.al,.am,.an{opacity:0.78;mix-blend-mode:overlay;}.ac{fill:url(#g);}.ad{fill:#0e71bb;}.ae{fill:url(#h);}.af{fill:url(#i);}.ag{fill:url(#j);}.ah{fill:url(#k);}.ai{fill:#175dcc;}.aj{fill:url(#l);}.ak{fill:#80a7ea;}.al{fill:url(#m);}.am{fill:url(#n);}.an{fill:url(#o);}.ao{fill:url(#p);}.ap{fill:url(#q);}.aq{fill:url(#r);}.ar{fill:#333;}.as{fill:#c0c2c1;}.at{fill:#e6e6e6;}.au{fill:#000100;}.av{fill:#fe9a0f;}.aw{fill:#e2810c;}.ax{fill:#dd7f10;}.ay{fill:#ae4e32;}.az{fill:#9e402b;}.ba{fill:#fe9b0e;}.bb{fill:#00c1bc;}.bc{fill:#4987ce;}.bd{fill:#28aae1;}</style><linearGradient id="a" x1="218.57" y1="365.48" x2="166.5" y2="70.18" gradientUnits="userSpaceOnUse"><stop offset="0" stop-color="#c6e6ff"/><stop offset="1" stop-color="#fff"/></linearGradient><linearGradient id="b" x1="309.87" y1="226.22" x2="358.24" y2="226.22" gradientUnits="userSpaceOnUse"><stop offset="0" stop-color="#ffbc98"/><stop offset="1" stop-color="#ff9f6c"/></linearGradient><linearGradient id="c" x1="353.18" y1="235.72" x2="393.97" y2="235.72" gradientUnits="userSpaceOnUse"><stop offset="0" stop-color="#44989f"/><stop offset="0.21" stop-color="#39b0b4"/><stop offset="0.52" stop-color="#2ccbcd"/><stop offset="0.8" stop-color="#24dcdd"/><stop offset="1" stop-color="#21e2e2"/></linearGradient><linearGradient id="d" x1="332.83" y1="310.6" x2="377.08" y2="310.6" xlink:href="#b"/><linearGradient id="e" x1="341.33" y1="343.16" x2="368.58" y2="343.16" xlink:href="#b"/><linearGradient id="f" x1="330.86" y1="282.84" x2="379.05" y2="282.84" xlink:href="#b"/><linearGradient id="g" x1="253.01" y1="217.64" x2="268.57" y2="217.64" gradientUnits="userSpaceOnUse"><stop offset="0"/><stop offset="1" stop-opacity="0"/></linearGradient><linearGradient id="h" x1="190.33" y1="220.04" x2="206.43" y2="220.04" xlink:href="#g"/><linearGradient id="i" x1="240.15" y1="213" x2="248.85" y2="213" xlink:href="#g"/><linearGradient id="j" x1="211.02" y1="213" x2="223.27" y2="213" xlink:href="#g"/><linearGradient id="k" x1="16.95" y1="242.64" x2="331.68" y2="242.64" gradientUnits="userSpaceOnUse"><stop offset="0.22" stop-color="#8ab4fd"/><stop offset="1" stop-color="#c7dbfd"/></linearGradient><linearGradient id="l" x1="32.12" y1="256.75" x2="316.51" y2="256.75" xlink:href="#k"/><linearGradient id="m" x1="94.71" y1="181.23" x2="111.5" y2="181.23" xlink:href="#g"/><linearGradient id="n" x1="49.4" y1="181.91" x2="87.78" y2="181.91" xlink:href="#g"/><linearGradient id="o" x1="42.91" y1="201.33" x2="57.32" y2="201.33" xlink:href="#g"/><linearGradient id="p" x1="173.14" y1="225.9" x2="182.64" y2="225.9" gradientTransform="translate(-70.7 81.5) rotate(-21.6)" xlink:href="#c"/><linearGradient id="q" x1="169.25" y1="237.46" x2="180.75" y2="237.46" xlink:href="#b"/><linearGradient id="r" x1="169.25" y1="224.2" x2="180.75" y2="224.2" xlink:href="#b"/></defs><title>Difference-linux-windows-dedicated-server</title><g class="a"><path class="b" d="M108.9,346.7A58.4,58.4,0,0,1,82,340.2c-25-12.9-70.9-46-48.8-107.6,9.5-26.2,41.9-32.2,90.5-120.9S286.1,80.1,301.5,152c18,83.7,49.3,70.9,69.4,107.7l1.1,2c20.1,38.7-8.6,85-52.3,85Z"/><text class="c" transform="translate(64.2 -34.8)">*<tspan x="8.1" y="0">زودنیو و سکونیل یصاصتخا روس یاه توافت</tspan></text><path class="d" d="M352.1,271.2s7.7-16.1,5.9-26.8-11.3-8.3-8.7-21,.2-20.3-7.3-21.6-7.8-7.6-13-16.2-22.1-5.6-18.7,10.8c4.6,21.6,15.3,15.3,18.7,23.9s-3.2,18.4,2,27.5S345.8,252.6,352.1,271.2Z"/><path class="e" d="M352.4,286.9h-1.1c.1-.2,1.6-12.7-1.4-30.4A129.6,129.6,0,0,0,321.3,194l.8-.6c18.9,22.2,26.1,46.5,28.8,62.9S352.4,286.8,352.4,286.9Z"/><path class="f" d="M358.3,273.6s-6.4-13.6-4.9-22.5,9.5-7,7.3-17.8-.2-17,6.2-18.1,6.5-6.5,10.9-13.7,18.7-4.7,15.8,9.1c-3.9,18.2-12.9,12.9-15.8,20.1s2.8,15.5-1.6,23.2S363.7,258,358.3,273.6Z"/><path class="e" d="M358.1,286.9a100.3,100.3,0,0,1,1.2-25.8A110.2,110.2,0,0,1,383.6,208l.7.6a109.2,109.2,0,0,0-24.1,52.6,98.8,98.8,0,0,0-1.2,25.6Z"/><polygon class="g" points="370.7 341.2 339.2 341.2 332.8 280 377.1 280 370.7 341.2"/><polygon class="h" points="334.7 280 341.1 341.2 345.4 341.2 338.9 280 334.7 280"/><polygon class="i" points="377.1 280 370.7 341.2 362.2 341.2 368.6 280 377.1 280"/><polygon class="i" points="375.9 291 376.3 287.3 333.6 287.3 334 291 375.9 291"/><rect class="j" x="341.3" y="341.2" width="27.2" height="3.98"/><rect class="i" x="341.3" y="341.2" width="27.2" height="1.99"/><rect class="k" x="330.9" y="278.4" width="48.2" height="8.83"/><rect class="i" x="370.1" y="278.4" width="8.9" height="8.83"/><rect class="h" x="332" y="278.4" width="6" height="8.83"/><rect class="l" x="164" y="146.8" width="39.9" height="56.35" rx="2.6"/><polygon class="m" points="200.2 198.7 166.6 199.4 167.3 150.3 200.8 149.6 200.2 198.7"/><rect class="n" x="167.7" y="149.9" width="33.6" height="48.33" transform="translate(-3.4 3.6) rotate(-1.1)"/><rect class="o" x="172.3" y="180.5" width="24.6" height="1.32" transform="translate(-3.5 3.6) rotate(-1.1)"/><rect class="o" x="172.4" y="183.7" width="24.6" height="1.32" transform="translate(-3.6 3.6) rotate(-1.1)"/><rect class="o" x="172.5" y="186.9" width="24.6" height="1.32" transform="translate(-3.6 3.6) rotate(-1.1)"/><rect class="o" x="172.5" y="190.2" width="13.6" height="1.32" transform="translate(-3.7 3.5) rotate(-1.1)"/><rect class="p" x="171.2" y="150.3" width="25.7" height="0.8"/><path class="o" d="M188,145.1h0a.7.7,0,0,1-.6-1,4.1,4.1,0,0,0,.1-2.2,3.4,3.4,0,0,0-2.7-2.7,3.5,3.5,0,0,0-4.4,3.5,5.9,5.9,0,0,0,.2,1.4.7.7,0,0,1-.6,1h0a8.3,8.3,0,0,0-5.4,2.1l-3.4,3.1h25.6l-3.4-3.1A8.3,8.3,0,0,0,188,145.1Z"/><path class="q" d="M184.9,142.7a.9.9,0,1,1-.9-.9A.9.9,0,0,1,184.9,142.7Z"/><rect class="r" x="198.6" y="161.2" width="4.4" height="0.93" transform="translate(-22.7 33.2) rotate(-9)"/><rect class="o" x="198.6" y="163.2" width="4.4" height="0.93"/><path class="s" d="M316.3,192.9l-6.4,43.6a.6.6,0,0,0,.6.8h3.1a.9.9,0,0,0,.7-.6l6.4-43.6a.6.6,0,0,0-.6-.7H317A.8.8,0,0,0,316.3,192.9Z"/><path class="t" d="M316.3,192.7a.8.8,0,0,1,.7-.5h3.1a.6.6,0,0,1,.6.7l-1.1,7.3-.8,1.1a.7.7,0,0,1-1,0l-2.3-2.6Z"/><path class="t" d="M279,161.4a6,6,0,0,0,4.7-1.7l2.8-2.7a.8.8,0,0,1,1.2.1l4.9,4.9a.9.9,0,0,1,.1,1.2l-2.8,2.7a5.8,5.8,0,0,0-1.7,4.7c.3,4.7-1.9,10.3-6.2,14.9a1.2,1.2,0,0,1-1.6-.1L264.2,169a1.2,1.2,0,0,1-.1-1.7C268.8,163.1,274.4,161,279,161.4Z"/><path class="s" d="M288.2,166.4l29.2,31.5a1.2,1.2,0,0,0,1.8-.1l1.2-1.5a1.2,1.2,0,0,0,0-1.6l-29.1-31.4c-.3-.3-1.4.1-2.2,1S288,166.2,288.2,166.4Z"/><path class="u" d="M314.3,236.7a.9.9,0,0,1-.7.6h-3.1a.6.6,0,0,1-.6-.8l1-6.8h4.4Z"/><path class="u" d="M288.9,238.2h28.9a1.8,1.8,0,0,0-1.8-1.7H290.6a1.8,1.8,0,0,0-1.7,1.7Z"/><path class="u" d="M316.9,195.7a1.1,1.1,0,1,0,1.1-1.1A1.1,1.1,0,0,0,316.9,195.7Z"/><path class="t" d="M317,195.3a1.1,1.1,0,1,0,1.1-1.1A1.1,1.1,0,0,0,317,195.3Z"/><rect class="v" x="224" y="225.8" width="6.8" height="108.66"/><path class="v" d="M222.4,303.9h10.1a1.7,1.7,0,0,1,1.7,1.7v19.5a0,0,0,0,1,0,0H220.7a0,0,0,0,1,0,0V305.6A1.7,1.7,0,0,1,222.4,303.9Z"/><polygon class="v" points="227.4 325.1 227.4 332.4 189 337.9 189 334.4 220.7 325.1 227.4 325.1"/><path class="v" d="M193.2,341.7a3.7,3.7,0,0,1-3.6,3.7,3.8,3.8,0,0,1-3.7-3.7,3.7,3.7,0,0,1,3.7-3.6A3.6,3.6,0,0,1,193.2,341.7Z"/><polygon class="v" points="190.1 339.9 189 339.9 189 334.4 190.1 334.1 190.1 339.9"/><polygon class="v" points="227.4 325.1 227.4 332.4 265.8 337.9 265.8 334.4 234.1 325.1 227.4 325.1"/><path class="v" d="M261.6,341.7a3.7,3.7,0,1,0,7.3,0,3.7,3.7,0,0,0-7.3,0Z"/><path class="v" d="M223.8,341.7a3.7,3.7,0,0,0,3.6,3.7,3.8,3.8,0,0,0,3.7-3.7,3.7,3.7,0,0,0-3.7-3.6A3.6,3.6,0,0,0,223.8,341.7Z"/><polygon class="v" points="264.7 339.9 265.8 339.9 265.8 334.4 264.7 334.1 264.7 339.9"/><rect class="q" x="226.9" y="334.4" width="1.1" height="5.49"/><rect class="q" x="195.7" y="205.1" width="63.4" height="43.34" rx="9.5"/><rect class="t" x="197.2" y="205.1" width="60.5" height="41.33" rx="9.1"/><path class="v" d="M227.4,279.6c-27.1,0-35.1-2.9-36.3-6.8-1.2,5,4,9.1,36.3,9.1s37.5-4.1,36.3-9.1C262.5,276.7,254.5,279.6,227.4,279.6Z"/><path class="v" d="M262.2,267.3c3.7,6.2,4.4,12.3-34.8,12.3s-38.5-6.1-34.8-12.3,7.2-8.8,34.8-8.8S259.2,262.1,262.2,267.3Z"/><path class="w" d="M212.8,281.8c-.5-4.1,4.3-4.7,6.3-5,5.1-.6,8.1-1.2,8.1-1.2.8-1.7,1.4-26.1,1.4-26.1H216.9s-16.9,9.7-19.7,14.1-4.9,10.9.7,22.8Z"/><path class="w" d="M255,285.6c1.1-6.6,7.5-11.2,2.8-22s-13.1-14.1-13.1-14.1H228.6l-1.4,26.1s13.1,1.1,14.5,6.2S255,285.6,255,285.6Z"/><path class="x" d="M244.5,279.2c-7.2-3.6-16.7-9.9-16.7-9.9l-10.1,4.3c-4.2,1.8-7.6,3.5-9.5,8.5l-.3,1.2,4.9-1.5c-.5-4.1,4.3-4.7,6.3-5,5.1-.6,8.1-1.2,8.1-1.2s13.1,1.1,14.5,6.2c.5,2,2.8,3,5.2,3.5C246.7,282.5,247.8,280.9,244.5,279.2Z"/><polygon class="y" points="246.1 344.2 230.6 344.2 231.4 345.4 246.1 345.4 246.1 344.2"/><path class="y" d="M228.3,339.9c.4-.4-.9-2.6,1.3-5.1s5.1-1.8,5.8-1.8.9-.7-.1-2.2l5.2,4.3c3.3,2.9,5.5,4,5.6,9.1H230.6a51.8,51.8,0,0,1-4-5.7C226.8,338.7,227.8,340.2,228.3,339.9Z"/><path class="z" d="M232.9,328.9l2.4,1.9c1,1.5.7,2.2.1,2.2s-3.7-.6-5.8,1.8-.9,4.7-1.3,5.1-1.5-1.2-1.7-1.4a45.8,45.8,0,0,1-2.8-5.4C226.5,333.3,230.9,331.8,232.9,328.9Z"/><path class="w" d="M200.6,296.1c-1.7-10.6-8.1-16.9-.8-26.4,1.9-2.5,8-2,11.2,2.6,2.1,3,1.4,5,1.5,6.7.1,7,5.7,10.7,10.4,26.3s9.9,23.6,9.9,23.6h.1c-2,2.9-6.4,4.4-9.1,4.2-.4-.9-.7-1.9-1-2.8C221.1,323.8,202.6,309,200.6,296.1Z"/><path class="x" d="M222.8,330.3c.3.9.6,1.9,1,2.8,2.7.2,7.1-1.3,9.1-4.2h-.1s-3.9-6-8-17.8a72.8,72.8,0,0,1-4.4,14.8A13,13,0,0,1,222.8,330.3Z"/><polygon class="y" points="207.8 344.2 223.3 344.2 222.5 345.4 207.8 345.4 207.8 344.2"/><path class="y" d="M225.5,339.9c-.5-.4.9-2.6-1.4-5.1s-5.2-1.8-5.8-1.8-.9-.7,0-2.2l-5,4.3c-3.3,2.9-5.5,4-5.5,9.1h15.5a61.7,61.7,0,0,0,3.9-5.7C227,338.7,226,340.2,225.5,339.9Z"/><path class="aa" d="M220.7,328.9l-2.4,1.9c-.9,1.5-.6,2.2,0,2.2s3.6-.6,5.8,1.8.9,4.7,1.4,5.1,1.5-1.2,1.7-1.4a44.9,44.9,0,0,0,2.6-5.4C227.1,333.3,222.7,331.8,220.7,328.9Z"/><path class="w" d="M252.3,296.1c1.5-10.6,7.7-16.9.3-26.4-2-2.5-8.1-2-11.2,2.6-2,3-1.3,5-1.3,6.7,0,7-5.5,10.7-9.9,26.3s-9.4,23.6-9.4,23.6h-.1c2,2.9,6.4,4.4,9.1,4.2.4-.9.7-1.9,1-2.8C232.3,323.8,250.6,309,252.3,296.1Z"/><path class="ab" d="M230.2,178.9c-3.8,0-9.9,3.9-9.9,8.6s3.8,42.7-3.4,62h27.8s-5.4-34.2-5.4-48S243.3,178.9,230.2,178.9Z"/><path class="t" d="M259.3,194.3c1.8,2.6,7.1,25,9.7,31.5a42.7,42.7,0,0,1,1.6,4.6H256.8c-1.7,0-3.6-7-3.8-10.5s2.3-16.4,4.3-21Z"/><path class="ac" d="M261.8,226.5c-1.1-1-4.7-13.7-6.4-21.6-1.4,5.6-2.5,12.6-2.4,15s2.1,10.5,3.8,10.5h7.7l4.1-2.3C264.9,226.2,263.1,227.7,261.8,226.5Z"/><path class="t" d="M270.6,230.4c1.6,3.7,1,6.7-.7,8.1s-8.1.7-12.1,1.5v-1.1s2.4-5.7.3-8.5v-1.9s.4.4,1.6.1S268.4,225.2,270.6,230.4Z"/><path class="ab" d="M257.8,238.9s2.4-5.7.3-8.5Z"/><path class="t" d="M244.1,187.9c9.9,3.4,15.3,5.3,15.2,6.4a132.3,132.3,0,0,0-5.7,22c-2,12.5-2.6,15.9-.4,22.8s7.3,18.7,8.3,24.5,1.9,11.4-.7,13.2a28.3,28.3,0,0,0-8.8-16c-7.8-7.2-11.9-7.7-11.9-22.7S244.1,187.9,244.1,187.9Z"/><path class="t" d="M215.6,187.9c-6.7,3.3-15.2,6.3-15.2,6.3a49.6,49.6,0,0,1,4.3,17.7c.3,9.3,3.9,14.9,3.3,23.2s-13.8,18.9-10.8,28.5c0,0,3.4-3.8,10.6-6.6s14.9-9.2,15.5-24.1S215.6,187.9,215.6,187.9Z"/><path class="aa" d="M222.4,175.5a116.7,116.7,0,0,0,0,12.1c.4,3.4,7.4,16.6,7.4,16.6s7.4-4,8.1-14.4.1-14,.1-14Z"/><path class="z" d="M222.4,175.5s-.2,4.7-.2,8.5,4,8.4,8,8.4,6.1-2.3,7.8-5.4a73.2,73.2,0,0,0,0-11.2Z"/><path class="z" d="M238,175.9c-.5,1.8-.2,3.4.5,3.6s1.7-1.1,2.1-2.9.3-3.5-.5-3.7S238.4,174.1,238,175.9Z"/><path class="z" d="M222.1,175.9c.5,1.8.3,3.4-.5,3.6s-1.7-1.1-2.1-2.9-.3-3.5.5-3.7S221.7,174.1,222.1,175.9Z"/><path class="ad" d="M240.7,171.5a3.8,3.8,0,0,1,1.2-1.6,3.6,3.6,0,0,0,1.3-1.7,1.4,1.4,0,0,0-.7-1.8,3.8,3.8,0,0,0,.3-4.6,3.9,3.9,0,0,0-4.4-1.5,3.5,3.5,0,0,0,.6-2.8,1.7,1.7,0,0,0-2.3-1,3.8,3.8,0,0,0-1.6-4,8.7,8.7,0,0,0-4.4-1.3,11.3,11.3,0,0,0-7,1.4c-2,1.3-3.3,4-2.4,6.2a3.2,3.2,0,0,1,.2,1.3c-.1.6-.9.8-1.6.9a9.5,9.5,0,0,0-4.3,1.7,4,4,0,0,0-1.7,4.1,2.7,2.7,0,0,0,3.7,1.7,4.5,4.5,0,0,0-.7,3.7c1.3,4.6,5,3.6,5.5,3.3s.9-1.6,1.7-2.2,2-.1,3,.3c3.4,1.4,6.8,1.4,10.3,2.1.9.2,2.2.9,2.9.3S240.3,172.8,240.7,171.5Z"/><path class="aa" d="M222.1,170a2,2,0,0,0-1.8,2c.3,7.8,4.4,13.9,9.7,13.9s8.7-5,9.3-10.1a3.2,3.2,0,0,0-.6-2.1c-.9-1-2.1-3.4-1.9-8.5C236.8,165.2,232.1,168.9,222.1,170Z"/><path class="t" d="M200.4,194.2c-2.3.8-3.1,10.8-8.8,23.3s-5,18.4-2.4,20.6c0,0,12.7-8.5,16-9.7,0,0,2-1.9.9-6.7S204.6,192.6,200.4,194.2Z"/><path class="ae" d="M206.1,221.7c-.4-2.3-.8-9.6-1.6-16.2-.9,5.8-3.4,13.2-5.7,19.2a1.7,1.7,0,0,1-1.2,1c-4.9,1.1-6.6,4-7.3,7.9,0,0,4.7.1,4.3,1,3.8-2.5,8.7-5.5,10.6-6.2C205.2,228.4,207.2,226.5,206.1,221.7Z"/><path class="t" d="M206.9,228.1c0-.8-1.3-.8-3.8-.6s-3.7-.5-5.4-.1c-7.8,1.8-7.9,8.7-8.5,10.7,0,0,1.9,1.3,8.6,1.3,4.8,0,10,1.3,10.9-1.3,0,0-1.2,1.1-4,1s-5.3-2.9-4.4-6.7S206.9,228.1,206.9,228.1Z"/><path class="ab" d="M208.7,238.1s-1.2,1.1-4,1-5.3-2.9-4.4-6.7,6.6-4.3,6.6-4.3h.8a1.6,1.6,0,0,1,1.6,1.8Z"/><path class="z" d="M213.3,231.9c0,1.9-2.1,4.7-4.6,4.7a4.7,4.7,0,0,1-4.6-4.7c0-1.9,2-3.4,4.6-3.4S213.3,230,213.3,231.9Z"/><path class="af" d="M248.8,196.4c.2-.3-.2-.8-.7-.6l-2.6.6h-.1c.5-.5,3-3.5,2-5.9a8,8,0,0,0-1.5-2l-1.8-.6s-3.5,30.5-4,46.8c.1,1.2.1,2.4.2,3.4C240.3,221.3,246,201.2,248.8,196.4Z"/><path class="t" d="M246.4,195.8l-2.1.6h0c.3-.5,2.4-3.5,1.5-5.9s-3.7-4.7-5.9-6l-.4-.2c.9,4-.2,9.9-.2,17.2,0,10,.5,27.6.8,36.6,0-16.8,4.6-36.9,6.9-41.7C247.2,196.1,246.8,195.6,246.4,195.8Z"/><path class="ag" d="M223.3,230.7c-.2-15.5-7.7-42.8-7.7-42.8l-2.2,1a10.1,10.1,0,0,0-1,1.6c-1,2.4,1.4,5.4,1.8,5.9h0l-2.5-.6c-.4-.2-.8.3-.6.6,2.6,4.8,13.3,25.5,11.5,41.7A56.4,56.4,0,0,0,223.3,230.7Z"/><path class="t" d="M219.8,184.5l1.8-.8a7,7,0,0,0-1.3,3.8c0,4.1,4.6,34.3,2.3,50.6,1.6-16.2-7.7-36.9-9.9-41.7a.4.4,0,0,1,.6-.6l2.1.6h0c-.4-.5-2.4-3.5-1.6-5.9S217.6,185.8,219.8,184.5Z"/><path class="u" d="M256.6,241.8H210a1.1,1.1,0,0,1-1.1-1l-1.1-28.4a1.1,1.1,0,0,1,1.1-1.1h48.8a1.1,1.1,0,0,1,1.1,1.1l-1.1,28.4A1.1,1.1,0,0,1,256.6,241.8Z"/><path class="ah" d="M316.5,247.2H32.1a17.3,17.3,0,0,1-11.2-3.9l-4-3.2a2.3,2.3,0,0,1,2.5-2H329.2a2.3,2.3,0,0,1,2.5,2l-3.9,3.2A17.6,17.6,0,0,1,316.5,247.2Z"/><path class="ai" d="M32.1,247.2H316.5a17.6,17.6,0,0,0,11.3-3.9H20.9A17.3,17.3,0,0,0,32.1,247.2Z"/><rect class="aj" x="32.1" y="247.2" width="284.4" height="19.1"/><rect class="ai" x="32.1" y="247.2" width="284.4" height="8.04"/><path class="ak" d="M45.1,345.4h0a1.9,1.9,0,0,1-1.8-2l-2.6-96.2h8.7l-2.5,96.2A2.1,2.1,0,0,1,45.1,345.4Z"/><polygon class="ai" points="40.7 247.2 41 255.2 49.2 255.2 49.4 247.2 40.7 247.2"/><path class="ak" d="M303.6,345.4h0a2.1,2.1,0,0,0,1.8-2l2.5-96.2h-8.6l2.5,96.2A1.9,1.9,0,0,0,303.6,345.4Z"/><polygon class="ai" points="307.9 247.2 307.7 255.2 299.5 255.2 299.3 247.2 307.9 247.2"/><path class="y" d="M135.8,288.4c-3.5,4.7-4.4,4-4.4,6.8s5,6.3,7,15.6c1.5,7,4.9,9.3,8.6,7.9s2.1-7.2,1-10.4a62.1,62.1,0,0,1-1.8-9.5Z"/><path class="aa" d="M135.8,288.4c-.1,3.6,1.7,6.5,5.1,7.5Z"/><path class="w" d="M99.2,208.2c18.1,9.4,47.5,20.7,51,25.1,9.4,11.9-4.2,51.7-4,65.5a5.7,5.7,0,0,1-6.3-2.8c-2.5-4.5-3.6-5.6-4.1-7.6,0,0,1.1-14.1-.2-23.4s-3.8-13.5-1.4-19.7c0,0-32.1-10.1-39.6-6L84,215Z"/><path class="x" d="M136.5,241.5c-1.1-2.6-34.6-10.1-43.2-14.7l-2.4,4,3.7,8.5c7.5-4.1,39.6,6,39.6,6-2.4,6.2.1,10.5,1.4,19.7s.2,23.4.2,23.4a13.8,13.8,0,0,0,1.3,2.8c.7-7.9,2.6-18.9-.7-30.3C132.1,246.4,137.5,244,136.5,241.5Z"/><path class="y" d="M111.6,334.8c.7,3.8-1.7,4.9-.9,9.9a.8.8,0,0,0,.8.7h19.8a.9.9,0,0,0,.8-1.1,8.1,8.1,0,0,0-2.4-3.7c-1.3-1.1-7.3-2.6-8.3-5.8Z"/><path class="w" d="M57.3,216.2c-5.4,11.6-3.5,22.5,7.5,30.1s30,30.4,29.7,31.5-3.5,14.7,6.7,32.5,10.4,24.5,10.4,24.5h9.8s-5.3-30.5-6.6-41.4.8-16.5-2.2-21.5-15.5-24.6-15.5-31.5,1.9-19.5-5.2-26S57.3,216.2,57.3,216.2Z"/><path class="ab" d="M97.3,151.5c5.8,6.5,9.7,21.7,7.4,36.6-.2,1.4,5.7,9.6,6.8,14l-12.3,6.1s-1.5-4.6-3.8-14.2S97.3,151.5,97.3,151.5Z"/><path class="al" d="M103.1,202.9c-3.3-.8-4.7-9.5-4.5-11.3.7-7.2,5.5-16.4,2.3-30.4a11.6,11.6,0,0,0-4-6.9c-.9,8.1-3.4,31.8-1.5,39.7,2.3,9.6,3.8,14.2,3.8,14.2l12.3-6.1S106.3,203.8,103.1,202.9Z"/><path class="ab" d="M99.2,208.2a9.1,9.1,0,0,0,3.8,4.9h.1l13.7-6c.1,0,.1-.1.1-.2a14.3,14.3,0,0,0-3.4-6.8h-.2l-14,7.9C99.2,208,99.2,208.1,99.2,208.2Z"/><path class="ab" d="M99.2,204.1c-1.5-5.9-4.2-8.3-2.1-14.9,2.8-8.8,5.7-16.6,3.8-28S90,141.5,82.8,141.5c-5.7-.1-18.8,5.6-24.8,12.3s-8.5,14.4-8.6,25.4c-.1,17.6,4.8,22.1,3.4,33.3-.7,5.7.8,9.3,3.6,9.8s14-2.6,24.8-2.7C95.3,219.5,100.7,209.7,99.2,204.1Z"/><path class="am" d="M67.8,155.6c4.9-5.8,12.7-8,20-10.9l-.3-2.1a11.9,11.9,0,0,0-4.7-1.1c-5.7-.1-18.8,5.6-24.8,12.3s-8.5,14.4-8.6,25.4c-.1,17.6,4.8,22.1,3.4,33.3-.7,5.7.8,9.3,3.6,9.8s7.6-.9,14.4-1.9h0c-4-1.3-1.7-3.2-2.8-7s-8.5-6-4.8-15.5c3-7.8,1.3-16,7-23.9C74.5,168,64,160.2,67.8,155.6Z"/><path class="aa" d="M104.1,147.8l-2.3-.5-9.2,8.4s-7.6-8.6-9.8-14.2l17.4-16.4Z"/><path class="z" d="M100.2,125.1,82.8,141.5a16.7,16.7,0,0,0,2.3,4.3c7.7-1.8,12.4.6,16.7,1.5l2.3.5Z"/><path class="ad" d="M112.7,125.3a7.2,7.2,0,0,1-2.2-.8c-1.3-.8-1-2.6-1-4.1a5.9,5.9,0,0,0-3.4-5.1,4.1,4.1,0,0,0-5.4,2,3.5,3.5,0,0,0-.3-3,6.7,6.7,0,0,0-2.3-2.1,8.3,8.3,0,0,0-4.6-1.7,4.1,4.1,0,0,0-4,2.4c-.5,1.1-.2,2.4-.2,3.6s-.3,2.7-1.5,3.2-2.7-.3-4,0-2.4,2.3-2.7,3.9a10.2,10.2,0,0,0,.3,4.9,4.2,4.2,0,0,0,3.7,2.8,4.5,4.5,0,0,0-4.4,3.3,5.9,5.9,0,0,0,1.4,5.5,8,8,0,0,0,5.3,2.5,13.1,13.1,0,0,0,5.9-.6,8.5,8.5,0,0,0,2.6-1.1,3.3,3.3,0,0,0,1.2-2.4c-.1-.7-.4-1.3-.5-1.9s.1-1.5.8-1.6a4.1,4.1,0,0,0,.1,2.2,1.3,1.3,0,0,0,1.9.5,1.1,1.1,0,0,0,.3-1.1,8,8,0,0,0-.5-2.1,3.1,3.1,0,0,1-.2-2.1,1.5,1.5,0,0,1,1.8-.8c.5.2.7.8.9,1.3l1.2,3.8a11.1,11.1,0,0,0,.9,1.9,2.4,2.4,0,0,0,1.9.8c.9-.2,1.4-1.2,1.7-2.1s.8-5.8,3.4-6.8,2.6-.6,3.2-2A2.8,2.8,0,0,0,112.7,125.3Z"/><path class="aa" d="M103.2,133.6c.5-3.2-1.8-4.8-2.7-3.9s-1.1,8,1.3,7.8-2.1,7.9,2.3,10.3c0,0,2.3,1.1,4.6-4.5s1.4-14.7,1.4-14.7a1.2,1.2,0,0,0-1.8,1.1c-.3,1.9-2.2,7.2-3.3,7.1S103.1,134.5,103.2,133.6Z"/><path class="ab" d="M57.3,200.6a38.9,38.9,0,0,1-.7-4.8s8-15.4,12.4-20.3,9.2-12.8,4.9-19.9-11.8-8-19.6,2.4-16.2,29.8-15.7,35.1,4.3,11.7,4.3,11.7Z"/><path class="aa" d="M58.2,210.7h0c-2.3,1-6.3,1.9-11.9.3h0c2.8,5.5,10.9,15.2,15.6,19.5s4.2,8.7,8.2,8.8V226.9Z"/><path class="z" d="M67.5,236.3c-1.6-1.3-3-5.8-8-11.3s-4.5-10.9-.2-12.8l-1.1-1.5h0c-2.3,1-6.3,1.9-11.9.3h0c2.8,5.5,10.9,15.2,15.6,19.5s4.2,8.7,8.2,8.8V226.9l-1.4-1.8C68.7,229.4,68.6,237.3,67.5,236.3Z"/><polygon class="an" points="42.9 204.8 56.8 197.8 57.3 200.6 42.9 204.8"/><path class="ab" d="M42.9,204.8,59,199.9l1.3,8.9a1,1,0,0,1-.5,1.1c-1.8,1.1-7.8,3.9-17.2-.2a.9.9,0,0,1-.6-1A7.2,7.2,0,0,1,42.9,204.8Z"/><path class="aa" d="M103.1,213.1c5.8,4.6,16.4,10.1,17,11.5s.2,3.2.6,6-.8,4.8,1.1,4.9S125,232,125,232a12.5,12.5,0,0,1,1.7,3.5,16.5,16.5,0,0,1-1,3.9s-2.3,1.3-2,1.9,4.5-.2,6.1-1.9a13.7,13.7,0,0,0,2.3-5.1c0-.2.1-.4,0-.6s-1.3-8.5-2.4-10S114.9,208,114.9,208Z"/><path class="z" d="M115.5,208.5l-.6-.5-11.8,5.1c5.5,4.4,15.6,9.7,16.9,11.3-1.8-2.9-10-7.6-10.4-10.3S111.7,209.8,115.5,208.5Z"/><rect class="l" x="117.1" y="146.8" width="39.9" height="56.35" rx="2.6"/><polygon class="m" points="153.3 198.7 119.7 199.4 120.3 150.3 153.9 149.6 153.3 198.7"/><rect class="n" x="120.8" y="149.9" width="33.6" height="48.33" transform="translate(-3.4 2.7) rotate(-1.1)"/><rect class="o" x="125.4" y="180.5" width="24.6" height="1.32" transform="translate(-3.5 2.7) rotate(-1.1)"/><rect class="o" x="125.5" y="183.7" width="24.6" height="1.32" transform="translate(-3.6 2.7) rotate(-1.1)"/><rect class="o" x="125.5" y="186.9" width="24.6" height="1.32" transform="translate(-3.6 2.7) rotate(-1.1)"/><rect class="o" x="125.6" y="190.2" width="13.6" height="1.32" transform="translate(-3.7 2.6) rotate(-1.1)"/><rect class="p" x="124.2" y="150.3" width="25.7" height="0.8"/><path class="o" d="M141.1,145.1h0a.7.7,0,0,1-.7-1,3.3,3.3,0,0,0,.2-2.2,3.7,3.7,0,0,0-7.2.8,3.2,3.2,0,0,0,.3,1.4.7.7,0,0,1-.7,1h0a8.3,8.3,0,0,0-5.4,2.1l-3.4,3.1h25.7l-3.4-3.1A8.3,8.3,0,0,0,141.1,145.1Z"/><path class="q" d="M138,142.7a.9.9,0,0,1-.9.9.9.9,0,1,1,0-1.8A.9.9,0,0,1,138,142.7Z"/><rect class="ao" x="177.4" y="214.2" width="0.9" height="23.4" transform="translate(95.8 -49.7) rotate(21.6)"/><rect class="u" x="171.1" y="218.5" width="0.8" height="8.39" rx="0.1" transform="translate(-34.8 31.9) rotate(-9.6)"/><rect class="t" x="171.5" y="219.4" width="1.7" height="16.37" rx="0.2" transform="translate(-35.7 32.1) rotate(-9.6)"/><rect class="ab" x="169.6" y="224.1" width="10.8" height="13.48"/><rect class="ap" x="169.3" y="236.7" width="11.5" height="1.52" rx="0.3"/><rect class="aq" x="169.3" y="223.4" width="11.5" height="1.52" rx="0.3"/><path class="ar" d="M190.5,163.9a5.6,5.6,0,0,1-1.7-5c0-.3.1-.6,0-.8a4,4,0,0,0-7.9.2,2.8,2.8,0,0,0,.1.9,5.5,5.5,0,0,1-1.3,5.1,7.6,7.6,0,0,0-2.1,5.2c0,4.7,1.8,6.9,4.4,7.6a8,8,0,0,1,2.4-.4,5.5,5.5,0,0,1,2.4.4c3.2-.7,4.7-2.2,5.7-5.8A7.5,7.5,0,0,0,190.5,163.9Z"/><path d="M190.5,163.9a5.6,5.6,0,0,1-1.7-5c0-.3.1-.6,0-.8a3.9,3.9,0,0,0-3.8-3.8h-.6v22.4a6,6,0,0,1,2.6.5c3.1-.5,4.5-2.4,5.5-5.9A7.5,7.5,0,0,0,190.5,163.9Z"/><path class="n" d="M179.3,170.5c0-3.1,2.4-10.1,5.4-10.1s5.5,7.1,5.5,10.1a5.5,5.5,0,0,1-5.5,5.4A5.4,5.4,0,0,1,179.3,170.5Z"/><path class="as" d="M184.7,160.4h-.3v15.4h.3a5.5,5.5,0,0,0,5.5-5.4C190.2,167.5,187.7,160.4,184.7,160.4Z"/><ellipse class="at" cx="182.7" cy="158.9" rx="0.9" ry="1.2"/><ellipse class="au" cx="182.7" cy="159.2" rx="0.4" ry="0.8"/><ellipse class="at" cx="185.9" cy="158.9" rx="0.9" ry="1.2"/><ellipse class="au" cx="185.9" cy="159.2" rx="0.4" ry="0.8"/><path class="av" d="M187.1,161c.3.6-1.9,1.8-2.7,1.8s-3-1.4-2.7-1.8,1.6-1.9,2.6-1.9A7,7,0,0,1,187.1,161Z"/><path class="aw" d="M187.1,161a6.1,6.1,0,0,0-2.7-1.8v3.6C185.2,162.7,187.4,161.6,187.1,161Z"/><path class="ax" d="M190.5,170.7c.4.7,1,1.5,1.7,1.6a1.4,1.4,0,0,1,1.1,1.2v.2a3.5,3.5,0,0,0,.6,1.4.9.9,0,0,1-.6,1.5l-5.7,1.1a1.5,1.5,0,0,1-1.5-2.2l3.2-4.9A.7.7,0,0,1,190.5,170.7Z"/><path class="ay" d="M184.4,162.4a3.9,3.9,0,0,1-2.5-1.2l.3-.2a3.2,3.2,0,0,0,2.4,1,2.5,2.5,0,0,0,1.7-1l.3.2a2.5,2.5,0,0,1-1.9,1.2Z"/><path class="az" d="M184.6,162h-.2v.4h.3a2.5,2.5,0,0,0,1.9-1.2l-.3-.2A2.5,2.5,0,0,1,184.6,162Z"/><circle cx="191.3" cy="171.6" r="1.8"/><path class="ar" d="M179,169.6a12.9,12.9,0,0,0,3.3,2.9c1.4.5-.7,2-2.5.9S179,169.6,179,169.6Z"/><path class="ba" d="M177.9,170.7c-.4.7-1,1.5-1.7,1.6a1.4,1.4,0,0,0-1.1,1.2v.2a3.5,3.5,0,0,1-.6,1.4.9.9,0,0,0,.6,1.5l5.7,1.1a1.5,1.5,0,0,0,1.5-2.2l-3.2-4.9A.7.7,0,0,0,177.9,170.7Z"/><path class="y" d="M136.3,159.8l8.6-1.3h.1v7.8h-9.2V160h.4Z"/><path class="y" d="M128.6,160.9l6.4-.9h.1v6.4h-6.9v-5.5h.4Z"/><path class="y" d="M128.3,167.4h6.8v6.4h-.1l-6.7-.8h-.1v-5.6Z"/><path class="y" d="M136.4,167.4h8.7v7.8H145c-2.9-.5-6-.8-8.9-1.2H136v-6.6h.5Z"/><path class="bb" d="M136.6,166.5v-6.7h-.7v6.5h.7Z"/><path class="bb" d="M128.9,166.6V161h-.6v5.5h.7Z"/><path class="bc" d="M135.1,167.4h0Z"/><path class="bb" d="M128.9,173.2v-5.7h-.7v5.6h.6Z"/><path class="bb" d="M136.7,174.2v-6.7h-.7v6.6h.7Z"/><path class="bd" d="M236.7,226a3.8,3.8,0,0,1-3.8,3.3,3.7,3.7,0,0,1-3.8-3.3,3.5,3.5,0,0,1,3.8-3.7A3.7,3.7,0,0,1,236.7,226Z"/><path class="n" d="M235.9,225.7l-1.6-1.6-1.4,1.3h0l-1.4-1.3-1.7,1.6,1.4,1.3h0l1.7,1.4,1.6-1.4h0Zm-1.6-.9.9.9-1,1-1-1Zm-2.8,0,1,.9-.9,1-1.1-1Zm1.4,3-1-.8,1-1,1,1Z"/></g></svg>