<svg xmlns="http://www.w3.org/2000/svg" xmlns:xlink="http://www.w3.org/1999/xlink" viewBox="0 0 400 400"><defs><style>.a{fill:url(#a);}.b{fill:#005b9f;}.c{fill:#d6eeff;}.d{fill:#1f364c;}.e{fill:#0070c4;}.f{fill:none;stroke:#0070c4;stroke-width:0.3px;}.g{fill:#ffbc98;}.h,.n{fill:#fff;}.i{fill:#21e2e2;}.j{fill:#98cdf2;}.k{opacity:0.56;isolation:isolate;fill:url(#b);}.l{fill:#1ed1d1;}.m{fill:#80c9ff;}.n{font-size:59.55px;font-family:MarkPro-Bold, MarkPro Bold;font-weight:700;}</style><linearGradient id="a" x1="-1735.6" y1="401.82" x2="-1735.6" y2="400.46" gradientTransform="matrix(569.41, 0, 0, -126.11, 988461.55, 50844.94)" gradientUnits="userSpaceOnUse"><stop offset="0" stop-color="#288ed9"/><stop offset="1" stop-color="#137fcf" stop-opacity="0.05"/></linearGradient><linearGradient id="b" x1="-1727.87" y1="401.34" x2="-1727.87" y2="402.16" gradientTransform="matrix(152.79, 0, 0, -35.3, 264267.34, 14500.87)" gradientUnits="userSpaceOnUse"><stop offset="0" stop-color="#288ed9" stop-opacity="0"/><stop offset="1" stop-color="#005b9f"/></linearGradient></defs><title>Domain Validated</title><ellipse class="a" cx="198.5" cy="298.1" rx="192.5" ry="42.6"/><rect class="b" x="45.9" y="71.4" width="304.8" height="220.05" rx="6.8"/><path class="c" d="M173.3,84h66.6l4.6,11.5H168.7Z"/><path class="d" d="M57.5,94.9H336.1V228.7H57.5Z"/><rect class="e" x="57.5" y="118.4" width="278.6" height="172.83"/><rect class="f" x="57.6" y="118.5" width="278.4" height="172.62"/><path class="g" d="M61.2,84.6a3.8,3.8,0,1,1-3.8,3.8,3.8,3.8,0,0,1,3.8-3.8Z"/><circle class="h" cx="72.1" cy="88.4" r="3.8"/><circle class="i" cx="83.1" cy="88.4" r="3.8"/><rect class="j" x="79.4" y="103.3" width="242.8" height="8.86"/><rect class="c" x="69.6" y="103.3" width="7.3" height="8.86"/><path class="d" d="M98.3,84h66.6l4.6,11.5H93.7Z"/><rect class="g" x="80.3" y="212.6" width="76.7" height="5.14"/><rect class="g" x="80.3" y="224.8" width="110.7" height="5.14"/><ellipse class="k" cx="258.8" cy="315.7" rx="51.6" ry="11.9"/><path class="i" d="M295.6,311.9a9.2,9.2,0,0,1-9.2,9.2H231.7a9.2,9.2,0,0,1-9.1-9.2V263.5a9.1,9.1,0,0,1,9.1-9.1h54.7a9.2,9.2,0,0,1,9.2,9.1Z"/><path class="l" d="M286.4,254.4h-6.3v11.8a42.7,42.7,0,0,1-42.8,42.9H222.6v2.8a9.2,9.2,0,0,0,9.1,9.2h54.7a9.3,9.3,0,0,0,9.2-9.2V263.6A9.2,9.2,0,0,0,286.4,254.4Z"/><path class="b" d="M264.6,293.1h-11l3.8-10.1a1.8,1.8,0,0,1,1.7-1.7,1.7,1.7,0,0,1,1.6,1.7Z"/><circle class="b" cx="259.1" cy="281.4" r="5.6"/><path class="i" d="M259.1,217.3h0a25.4,25.4,0,0,0-25.4,25.3v11.8h10.2V241.4a15.2,15.2,0,0,1,15.2-15.2h0a15.2,15.2,0,0,1,15.2,15.2v12.9h10.1V242.6A25.3,25.3,0,0,0,259.1,217.3Z"/><rect class="l" x="233.7" y="248.3" width="10.1" height="6.08"/><rect class="l" x="274.3" y="248.3" width="10.1" height="6.08"/><path class="m" d="M79.8,195l2.5-.2a4.6,4.6,0,0,0,.8,2.4,4.1,4.1,0,0,0,1.9,1.5,8,8,0,0,0,3,.6,7.5,7.5,0,0,0,2.6-.5,3,3,0,0,0,1.7-1.2,2.5,2.5,0,0,0,.6-1.6,2.7,2.7,0,0,0-.6-1.7,4.5,4.5,0,0,0-1.7-1.1l-3.5-.9a17.1,17.1,0,0,1-3.8-1.3,4.9,4.9,0,0,1-2-1.8,4,4,0,0,1-.7-2.4,5.7,5.7,0,0,1,.8-2.8,6,6,0,0,1,2.5-1.9,8.4,8.4,0,0,1,3.5-.7,10.7,10.7,0,0,1,3.9.7,5.7,5.7,0,0,1,2.5,2.1,5.6,5.6,0,0,1,.9,3.1H92.3a4.2,4.2,0,0,0-1.4-2.7,5.2,5.2,0,0,0-3.4-1,5.3,5.3,0,0,0-3.4.9,2.5,2.5,0,0,0-1,2,2.1,2.1,0,0,0,.7,1.8,10.4,10.4,0,0,0,3.9,1.3A21.3,21.3,0,0,1,92,191a5.5,5.5,0,0,1,2.5,2,4.5,4.5,0,0,1,.8,2.7,5.3,5.3,0,0,1-.9,3,5.7,5.7,0,0,1-2.5,2.1,10,10,0,0,1-3.8.8,11.1,11.1,0,0,1-4.4-.8,7,7,0,0,1-2.8-2.3A6.6,6.6,0,0,1,79.8,195ZM98,195l2.4-.2a5.7,5.7,0,0,0,.8,2.4,5,5,0,0,0,2,1.5,7.3,7.3,0,0,0,3,.6,8.5,8.5,0,0,0,2.6-.5,3.1,3.1,0,0,0,1.6-1.2,2.5,2.5,0,0,0,.6-1.6,3.4,3.4,0,0,0-.5-1.7,4.2,4.2,0,0,0-1.8-1.1l-3.5-.9a18.2,18.2,0,0,1-3.7-1.3,4.6,4.6,0,0,1-2.1-1.8,4,4,0,0,1-.7-2.4,4.9,4.9,0,0,1,.9-2.8,5.1,5.1,0,0,1,2.4-1.9,8.6,8.6,0,0,1,3.6-.7,9.9,9.9,0,0,1,3.8.7,5.9,5.9,0,0,1,3.5,5.2h-2.5a4.1,4.1,0,0,0-1.3-2.8,5.8,5.8,0,0,0-3.4-.9,5.1,5.1,0,0,0-3.4.9,2.3,2.3,0,0,0-1.1,2,2.5,2.5,0,0,0,.8,1.8,9.7,9.7,0,0,0,3.8,1.3,22.3,22.3,0,0,1,4.4,1.3,6,6,0,0,1,2.5,2,5.2,5.2,0,0,1-.1,5.7,5.4,5.4,0,0,1-2.6,2.1,9.5,9.5,0,0,1-3.7.8,11.9,11.9,0,0,1-4.5-.8,7,7,0,0,1-2.8-2.3A7.4,7.4,0,0,1,98,195Zm18.9,6.2V181.8h2.6v17.1h9.6v2.3Z"/><text class="n" transform="translate(232.9 185.9)">DV</text></svg>