<svg xmlns="http://www.w3.org/2000/svg" xmlns:xlink="http://www.w3.org/1999/xlink" viewBox="0 0 400 400"><defs><style>.a{font-size:28.55px;font-family:AdobeArabic-Regular, Adobe Arabic;}.a,.y{fill:#fff;}.b{fill:url(#a);}.c{fill:#137fcf;}.d{fill:#288ed9;}.e,.f,.g,.n,.u,.w{fill:none;}.f,.g{stroke:#288ed9;}.f{stroke-width:0.37px;}.g,.n{stroke-linecap:round;stroke-miterlimit:10;stroke-width:1.46px;}.h{fill:url(#b);}.i{fill:#024679;}.j,.p{fill:#005b9f;}.j{opacity:0.57;isolation:isolate;}.k{opacity:0.5;}.l{fill:#1f364c;}.m{fill:#043c67;}.n{stroke:#1f364c;}.o{fill:#166eaf;}.q{fill:#21e2e2;}.r{fill:#ffbc98;}.s{fill:#0e71bb;}.t{fill:#52acea;}.u{stroke:#ffbc98;}.u,.w{stroke-width:0.73px;}.v{fill:#80c9ff;}.w{stroke:#21e2e2;}.x{fill:#d6eeff;}.z{fill:#191919;}.aa{fill:#c91b1b;}.ab{fill:#f9c7a5;}.ac{fill:#0876ba;}.ad{fill:#ffe7cb;}.ae{fill:#152735;}.af{fill:#adb3ba;}.ag{fill:#6d7a85;}.ah{fill:#565656;}</style><linearGradient id="a" x1="-1594.3" y1="400.29" x2="-1594.3" y2="400.93" gradientTransform="matrix(740.55, -3.84, -3.18, -612.5, 1182138.45, 239492.2)" gradientUnits="userSpaceOnUse"><stop offset="0" stop-color="#c6e6ff"/><stop offset="1" stop-color="#fff"/></linearGradient><linearGradient id="b" x1="-1593.58" y1="403.1" x2="-1593.58" y2="402.1" gradientTransform="matrix(531, 0, 0, -95, 846398.57, 38535.42)" gradientUnits="userSpaceOnUse"><stop offset="0" stop-color="#288ed9"/><stop offset="1" stop-color="#137fcf" stop-opacity="0.05"/></linearGradient></defs><title>foreign-cloud-server</title><text class="a" transform="translate(173.2 -40.3)"> جراخ یربا روس*</text><path class="b" d="M199.3,100.1c60.8,38.4,130.3,55.4,130.3,55.4s76.4,11.2,48.8,98.4-31.2,118.3-75.2,120.8c-41.8,1.4-65.4-15.7-106.7-12.5-36.3,2.9-61.2,19.4-122-4.2C-23,315.6-17.5-35.1,199.3,100.1Z"/><rect class="c" x="40.9" y="257.4" width="16.5" height="16.54" rx="2.5" transform="translate(-1.4 0.3) rotate(-0.3)"/><path class="d" d="M49.4,262a3.9,3.9,0,0,1,4,3.9,4,4,0,0,1-3.9,4.1,4.2,4.2,0,0,1-4.1-4A4,4,0,0,1,49.4,262Z"/><circle class="e" cx="49.4" cy="266" r="5.5"/><circle class="f" cx="49.4" cy="266" r="5.3"/><path class="g" d="M103,248.7H72.5c-4.1,0-6.1,2.3-6,6.4.1,1,.2,17.9.2,21.2s-2.4,5.2-6.5,5.2H54.4c-3.1,0-5-2.1-5-4.4v-7.6"/><ellipse class="h" cx="205" cy="312.4" rx="132.8" ry="23.8" transform="translate(-1.6 1.1) rotate(-0.3)"/><rect class="i" x="100.8" y="136.4" width="94.1" height="176.12" rx="5" transform="translate(-1.2 0.8) rotate(-0.3)"/><path class="j" d="M105.8,136.6l45-.3h0l1,176.2h0l-45.1.2a5,5,0,0,1-5-5l-.9-166.1A5,5,0,0,1,105.8,136.6Z"/><g class="k"><rect class="l" x="126.4" y="147.4" width="42.5" height="1.5" transform="translate(-0.8 0.8) rotate(-0.3)"/><rect class="l" x="126.4" y="151.4" width="42.5" height="1.5" transform="translate(-0.8 0.8) rotate(-0.3)"/><rect class="l" x="126.4" y="155.4" width="42.5" height="1.5" transform="translate(-0.8 0.8) rotate(-0.3)"/><rect class="l" x="126.5" y="159.4" width="42.5" height="1.5" transform="translate(-0.8 0.8) rotate(-0.3)"/><rect class="l" x="126.5" y="163.4" width="42.5" height="1.5" transform="translate(-0.8 0.8) rotate(-0.3)"/></g><g class="k"><rect class="l" x="126.6" y="288.5" width="42.5" height="1.5" transform="translate(-1.5 0.8) rotate(-0.3)"/><rect class="l" x="126.6" y="292.5" width="42.5" height="1.5" transform="translate(-1.5 0.8) rotate(-0.3)"/><rect class="l" x="126.7" y="296.5" width="42.5" height="1.5" transform="translate(-1.5 0.8) rotate(-0.3)"/><rect class="l" x="126.7" y="300.5" width="42.5" height="1.5" transform="translate(-1.6 0.8) rotate(-0.3)"/></g><rect class="m" x="126.3" y="176.4" width="50" height="92.56" transform="translate(-1.2 0.8) rotate(-0.3)"/><path class="n" d="M151,185.3v10.9c0,2.3,1.2,3.4,3.3,3.3h3.2c2.1,0,2.7,1.4,2.8,3.7v1l.3,63.5"/><path class="n" d="M147.6,188.5v4.7c0,2.3,1.2,3.4,3.4,3.3h3.2c2.1,0,2.7,1.3,2.7,3.6l.4,67.5"/><path class="n" d="M157.2,183.5v8.8c0,2,1,2.9,2.9,2.8h5.2c1.8,0,2.4,1.1,2.4,3.1v3.4"/><path class="n" d="M175.9,182.7H154.3c-2.3,0-3.4,1.2-3.3,3.3v3.3"/><path class="n" d="M147.6,189.8v-3.3c.1-2.1-1-3.3-3.3-3.3h-17"/><path class="n" d="M134.1,183.3l.3,43.1c0,2.3,1.2,3.4,3.3,3.3H141c2,0,2.7,1.3,2.7,3.6l.2,34.3h0"/><path class="n" d="M137.3,183.3v14c0,2.3,1.2,3.3,3.4,3.3H144c2.1,0,2.7,1.4,2.8,3.7v29.3"/><path class="n" d="M140.5,183.6l.2,54.8c.1,2.4,1.3,3.4,3.3,3.4h3.3c2.1,0,2.7,1.4,2.7,3.7l.2,22.2"/><rect class="o" x="109.6" y="217.3" width="9" height="33.86" rx="4.5" transform="translate(-1.2 0.6) rotate(-0.3)"/><path class="p" d="M113.4,240.5V228.7a2.1,2.1,0,0,1,2.1-2.2h0a2.2,2.2,0,0,1,2.2,2.2v11.8a2.2,2.2,0,0,1-2.2,2.2h0A2.2,2.2,0,0,1,113.4,240.5Z"/><path class="q" d="M141.9,280.1h0a1.8,1.8,0,0,1,1.7,1.7h0a1.7,1.7,0,0,1-1.7,1.7h0a1.6,1.6,0,0,1-1.6-1.7h0A1.7,1.7,0,0,1,141.9,280.1Z"/><path class="r" d="M146.7,280.1h0a1.8,1.8,0,0,1,1.7,1.7h0a1.7,1.7,0,0,1-1.6,1.7h0a1.7,1.7,0,0,1-1.7-1.7h0A1.7,1.7,0,0,1,146.7,280.1Z"/><path class="d" d="M151.4,280.1h0a1.7,1.7,0,0,1,1.7,1.6v.2a1.6,1.6,0,0,1-1.7,1.6h0a1.6,1.6,0,0,1-1.6-1.6h0A1.6,1.6,0,0,1,151.4,280.1Z"/><path class="c" d="M156.2,280.1h0a1.6,1.6,0,0,1,1.7,1.6v.2a1.6,1.6,0,0,1-1.6,1.6h0a1.6,1.6,0,0,1-1.7-1.6v-.2A1.6,1.6,0,0,1,156.2,280.1Z"/><path class="d" d="M160.9,280.1h0a1.6,1.6,0,0,1,1.7,1.6h0a1.7,1.7,0,0,1-1.6,1.7h0a1.6,1.6,0,0,1-1.7-1.7h0A1.6,1.6,0,0,1,160.9,280.1Z"/><rect class="q" x="107.2" y="194.3" width="3.4" height="3.57" rx="1.7" transform="translate(-1 0.6) rotate(-0.3)"/><rect class="r" x="112.2" y="194.3" width="3.4" height="3.57" rx="1.7" transform="translate(-1 0.6) rotate(-0.3)"/><rect class="d" x="107.2" y="199" width="3.4" height="3.57" rx="1.7" transform="translate(-1 0.6) rotate(-0.3)"/><rect class="c" x="112.2" y="199" width="3.4" height="3.57" rx="1.7" transform="matrix(1, -0.01, 0.01, 1, -1.04, 0.59)"/><rect class="d" x="117" y="199" width="3.4" height="3.57" rx="1.7" transform="translate(-1 0.6) rotate(-0.3)"/><rect class="d" x="117" y="194.3" width="3.4" height="3.57" rx="1.7" transform="translate(-1 0.6) rotate(-0.3)"/><rect class="q" x="107.2" y="203.6" width="3.4" height="3.57" rx="1.7" transform="matrix(1, -0.01, 0.01, 1, -1.06, 0.57)"/><rect class="d" x="112.2" y="203.6" width="3.4" height="3.57" rx="1.7" transform="translate(-1.1 0.6) rotate(-0.3)"/><rect class="d" x="107.2" y="208.3" width="3.4" height="3.57" rx="1.7" transform="translate(-1.1 0.6) rotate(-0.3)"/><rect class="c" x="112.2" y="208.2" width="3.4" height="3.57" rx="1.7" transform="translate(-1.1 0.6) rotate(-0.3)"/><rect class="d" x="117.1" y="208.2" width="3.4" height="3.57" rx="1.7" transform="translate(-1.1 0.6) rotate(-0.3)"/><rect class="d" x="117.1" y="203.5" width="3.4" height="3.57" rx="1.7" transform="translate(-1.1 0.6) rotate(-0.3)"/><rect class="l" x="171.5" y="183.8" width="126.3" height="9.81" transform="translate(-1 1.2) rotate(-0.3)"/><path class="s" d="M170.1,157.7l129.1-.7c2.6,0,4.6,1.5,4.7,3.3v21.5c0,1.8-2.1,3.3-4.6,3.3l-129.2.7c-2.5,0-4.6-1.5-4.6-3.3V161C165.5,159.2,167.5,157.7,170.1,157.7Z"/><path class="p" d="M167.5,157.7l44.6-.3h0l.2,28.2h0l-44.7.2a2,2,0,0,1-2-2V159.7A1.9,1.9,0,0,1,167.5,157.7Z"/><path class="t" d="M252.7,167.3h0a1.5,1.5,0,0,1,1.4,1.5h0a1.4,1.4,0,0,1-1.4,1.4h0a1.5,1.5,0,0,1-1.5-1.4h0A1.5,1.5,0,0,1,252.7,167.3Z"/><path class="q" d="M256.2,173.2h0a1.4,1.4,0,0,1,1.5,1.4h0a1.5,1.5,0,0,1-1.5,1.5h0a1.6,1.6,0,0,1-1.5-1.5h0A1.5,1.5,0,0,1,256.2,173.2Z"/><path class="t" d="M258.5,167.3h0a1.5,1.5,0,0,1,1.5,1.4h0a1.5,1.5,0,0,1-1.5,1.5h0a1.4,1.4,0,0,1-1.4-1.4h0A1.4,1.4,0,0,1,258.5,167.3Z"/><path class="t" d="M262.1,173.1h0a1.5,1.5,0,0,1,1.4,1.5h0a1.5,1.5,0,0,1-1.4,1.5h0a1.5,1.5,0,0,1-1.5-1.5h0A1.5,1.5,0,0,1,262.1,173.1Z"/><path class="r" d="M264.4,167.2h0a1.6,1.6,0,0,1,1.5,1.5h0a1.5,1.5,0,0,1-1.5,1.5h0a1.5,1.5,0,0,1-1.5-1.5h0A1.6,1.6,0,0,1,264.4,167.2Z"/><path class="t" d="M267.9,173.1h0a1.5,1.5,0,0,1,1.5,1.4h0a1.4,1.4,0,0,1-1.5,1.5h0a1.4,1.4,0,0,1-1.4-1.4h0A1.5,1.5,0,0,1,267.9,173.1Z"/><path class="t" d="M270.2,167.2h0a1.5,1.5,0,0,1,1.5,1.5h0a1.4,1.4,0,0,1-1.4,1.4h0a1.3,1.3,0,0,1-1.5-1.4h0A1.5,1.5,0,0,1,270.2,167.2Z"/><path class="q" d="M273.8,173.1h0a1.5,1.5,0,0,1,1.5,1.4h0a1.5,1.5,0,0,1-1.5,1.5h0a1.5,1.5,0,0,1-1.5-1.5h0A1.5,1.5,0,0,1,273.8,173.1Z"/><path class="t" d="M276.1,167.2h0a1.5,1.5,0,0,1,1.5,1.4h0a1.5,1.5,0,0,1-1.5,1.5h0a1.5,1.5,0,0,1-1.5-1.4h0A1.5,1.5,0,0,1,276.1,167.2Z"/><path class="t" d="M279.7,173h0a1.5,1.5,0,0,1,1.4,1.5h0a1.5,1.5,0,0,1-1.4,1.5h0a1.5,1.5,0,0,1-1.5-1.5h0A1.5,1.5,0,0,1,279.7,173Z"/><circle class="e" cx="289.9" cy="171.3" r="2.5"/><circle class="u" cx="289.9" cy="171.3" r="2"/><path class="t" d="M245.8,166.2h0a1.1,1.1,0,0,1,1.1,1.1v8.3a1.1,1.1,0,0,1-1.1,1.2h0a1.1,1.1,0,0,1-1.1-1.1v-8.4A1.1,1.1,0,0,1,245.8,166.2Z"/><path class="t" d="M241.4,166.3h0a1,1,0,0,1,1.1,1.1v8.3a1,1,0,0,1-1.1,1.1h0a1.1,1.1,0,0,1-1.1-1.1v-8.3A1.1,1.1,0,0,1,241.4,166.3Z"/><rect class="p" x="219.2" y="166.3" width="17.7" height="4.43" transform="translate(-0.9 1.2) rotate(-0.3)"/><rect class="p" x="219.3" y="172.4" width="17.7" height="4.43" transform="translate(-0.9 1.2) rotate(-0.3)"/><path class="r" d="M244.7,168.5h2.2v7.2a1.1,1.1,0,0,1-1.1,1.2h0a1.1,1.1,0,0,1-1.1-1.1v-7.2Z"/><path class="q" d="M240.3,172.7h2.2v3a1,1,0,0,1-1.1,1.1h0a1.1,1.1,0,0,1-1.1-1.1h0v-3Z"/><rect class="v" x="219.2" y="166.4" width="4.4" height="4.43" transform="translate(-0.9 1.2) rotate(-0.3)"/><rect class="v" x="219.3" y="172.5" width="4.4" height="4.43" transform="translate(-0.9 1.2) rotate(-0.3)"/><rect class="d" x="225.9" y="168" width="8.9" height="1.11" transform="translate(-0.9 1.2) rotate(-0.3)"/><rect class="d" x="225.9" y="174.1" width="8.9" height="1.11" transform="translate(-0.9 1.2) rotate(-0.3)"/><circle class="e" cx="289.9" cy="171.3" r="5.3"/><circle class="w" cx="289.9" cy="171.3" r="4.8"/><path class="d" d="M199.6,175.5h0a1.9,1.9,0,0,1,1.9,1.8v.2a1.8,1.8,0,0,1-1.9,1.8h0a1.8,1.8,0,0,1-1.8-1.8h0A1.8,1.8,0,0,1,199.6,175.5Z"/><path class="c" d="M199.7,164.8h0a.9.9,0,0,1,.8.8v7.2a.8.8,0,0,1-.8.9h0a.9.9,0,0,1-.8-.9v-7.2A.9.9,0,0,1,199.7,164.8Z"/><path class="x" d="M194.1,175.5h0a1.9,1.9,0,0,1,1.8,1.9h0a1.9,1.9,0,0,1-1.8,1.9h0a1.9,1.9,0,0,1-1.8-1.9h0A1.9,1.9,0,0,1,194.1,175.5Z"/><path class="y" d="M194.2,168.2h0a.8.8,0,0,1,.8.8v3.9a.9.9,0,0,1-.8.8h0a.9.9,0,0,1-.9-.8V169A.8.8,0,0,1,194.2,168.2Z"/><path class="d" d="M188.5,175.6h0a1.8,1.8,0,0,1,1.9,1.8h0a1.8,1.8,0,0,1-1.8,1.9h0a1.9,1.9,0,0,1-1.9-1.8v-.2A1.8,1.8,0,0,1,188.5,175.6Z"/><path class="c" d="M188.6,163.6h0a.9.9,0,0,1,.8.8v8.5a.8.8,0,0,1-.9.8h0a.8.8,0,0,1-.8-.8v-8.5A.8.8,0,0,1,188.6,163.6Z"/><path class="r" d="M183,175.6h0a1.8,1.8,0,0,1,1.8,1.8v.2a1.8,1.8,0,0,1-1.8,1.8h0a1.8,1.8,0,0,1-1.8-1.8v-.2A1.8,1.8,0,0,1,183,175.6Z"/><path class="r" d="M183.1,165.7h0a.9.9,0,0,1,.8.9v6.3a.8.8,0,0,1-.8.9h0a.8.8,0,0,1-.8-.9v-6.3A.9.9,0,0,1,183.1,165.7Z"/><path class="q" d="M177.5,175.6h0a1.8,1.8,0,0,1,1.8,1.9h0a1.8,1.8,0,0,1-1.8,1.8h0a1.9,1.9,0,0,1-1.9-1.8h0A2,2,0,0,1,177.5,175.6Z"/><path class="q" d="M177.5,169.4h0a.8.8,0,0,1,.9.8V173a.9.9,0,0,1-.8.8h0a.9.9,0,0,1-.9-.8v-2.8A.8.8,0,0,1,177.5,169.4Z"/><rect class="l" x="171.7" y="217.4" width="126.3" height="9.81" transform="translate(-1.1 1.2) rotate(-0.3)"/><path class="s" d="M170.2,191.2l129.2-.7c2.5,0,4.6,1.5,4.6,3.3v21.5c0,1.8-2,3.3-4.6,3.4l-129.1.6c-2.6,0-4.6-1.4-4.6-3.3l-.2-21.4C165.6,192.7,167.7,191.2,170.2,191.2Z"/><path class="p" d="M167.6,191.2l44.7-.2h0l.2,28.1h0l-44.7.2a1.9,1.9,0,0,1-2-1.9l-.2-24.2A2,2,0,0,1,167.6,191.2Z"/><path class="t" d="M252.8,200.8h0a1.5,1.5,0,0,1,1.5,1.5h0a1.5,1.5,0,0,1-1.5,1.5h0a1.5,1.5,0,0,1-1.4-1.5h0A1.5,1.5,0,0,1,252.8,200.8Z"/><path class="q" d="M256.4,206.7h0a1.5,1.5,0,0,1,1.5,1.4h0a1.5,1.5,0,0,1-1.5,1.5h0a1.5,1.5,0,0,1-1.5-1.5h0A1.5,1.5,0,0,1,256.4,206.7Z"/><path class="t" d="M258.7,200.8h0a1.5,1.5,0,0,1,1.5,1.5h0a1.5,1.5,0,0,1-1.5,1.4h0a1.5,1.5,0,0,1-1.5-1.4h0A1.5,1.5,0,0,1,258.7,200.8Z"/><path class="t" d="M262.2,206.6h0a1.5,1.5,0,0,1,1.5,1.5h0a1.5,1.5,0,0,1-1.4,1.5h0a1.5,1.5,0,0,1-1.5-1.5h0A1.5,1.5,0,0,1,262.2,206.6Z"/><path class="r" d="M264.6,200.8h0a1.4,1.4,0,0,1,1.4,1.4h0a1.5,1.5,0,0,1-1.4,1.5h0a1.5,1.5,0,0,1-1.5-1.5h0A1.4,1.4,0,0,1,264.6,200.8Z"/><path class="t" d="M268.1,206.6h0a1.5,1.5,0,0,1,1.5,1.5h0a1.5,1.5,0,0,1-1.5,1.4h0a1.5,1.5,0,0,1-1.5-1.4h0A1.5,1.5,0,0,1,268.1,206.6Z"/><path class="t" d="M270.4,200.7h0a1.5,1.5,0,0,1,1.5,1.5h0a1.5,1.5,0,0,1-1.5,1.5h0a1.5,1.5,0,0,1-1.4-1.5h0A1.5,1.5,0,0,1,270.4,200.7Z"/><path class="q" d="M274,206.6h0a1.4,1.4,0,0,1,1.4,1.4h0a1.5,1.5,0,0,1-1.4,1.5h0a1.5,1.5,0,0,1-1.5-1.4h0A1.5,1.5,0,0,1,274,206.6Z"/><path class="t" d="M276.3,200.7h0a1.6,1.6,0,0,1,1.5,1.5h0a1.5,1.5,0,0,1-1.5,1.4h0a1.5,1.5,0,0,1-1.5-1.4h0A1.5,1.5,0,0,1,276.3,200.7Z"/><path class="t" d="M279.8,206.6h0a1.4,1.4,0,0,1,1.5,1.4h0a1.5,1.5,0,0,1-1.5,1.5h0a1.5,1.5,0,0,1-1.4-1.5h0A1.4,1.4,0,0,1,279.8,206.6Z"/><circle class="e" cx="290.1" cy="204.8" r="2.5"/><circle class="u" cx="290.1" cy="204.8" r="2"/><path class="t" d="M246,199.8h0a1,1,0,0,1,1.1,1.1v8.3a1.1,1.1,0,0,1-1.1,1.1h0a1.1,1.1,0,0,1-1.2-1.1v-8.3A1.1,1.1,0,0,1,246,199.8Z"/><path class="t" d="M241.6,199.8h0a1.1,1.1,0,0,1,1.1,1.1v8.3a1.1,1.1,0,0,1-1.1,1.1h0a1.1,1.1,0,0,1-1.1-1.1v-8.3A1.1,1.1,0,0,1,241.6,199.8Z"/><rect class="p" x="219.4" y="199.8" width="17.7" height="4.43" transform="translate(-1 1.2) rotate(-0.3)"/><rect class="p" x="219.5" y="205.9" width="17.7" height="4.43" transform="translate(-1.1 1.2) rotate(-0.3)"/><path class="r" d="M244.9,202h2.2v7.2a1.1,1.1,0,0,1-1.1,1.1h0a1.1,1.1,0,0,1-1.2-1.1V202Z"/><path class="q" d="M240.5,206.2h2.2v3a1.1,1.1,0,0,1-1.1,1.1h0a1.1,1.1,0,0,1-1.1-1.1h0v-3Z"/><rect class="v" x="219.4" y="199.9" width="4.4" height="4.43" transform="translate(-1 1.2) rotate(-0.3)"/><rect class="v" x="219.5" y="206" width="4.4" height="4.43" transform="translate(-1.1 1.2) rotate(-0.3)"/><rect class="d" x="226.1" y="201.5" width="8.9" height="1.11" transform="translate(-1 1.2) rotate(-0.3)"/><rect class="d" x="226.1" y="207.6" width="8.9" height="1.11" transform="translate(-1.1 1.2) rotate(-0.3)"/><circle class="e" cx="290.1" cy="204.8" r="5.3"/><circle class="w" cx="290.1" cy="204.8" r="4.8"/><path class="d" d="M199.8,209.5h0a1.9,1.9,0,0,1,1.8,1.9h0a1.8,1.8,0,0,1-1.8,1.8h0a1.7,1.7,0,0,1-1.8-1.8h0A1.9,1.9,0,0,1,199.8,209.5Z"/><path class="c" d="M199.8,198.8h0a.9.9,0,0,1,.9.9v7.2a.8.8,0,0,1-.8.8h0a.8.8,0,0,1-.8-.8v-7.2A.9.9,0,0,1,199.8,198.8Z"/><path class="x" d="M194.3,209.6h0a1.8,1.8,0,0,1,1.8,1.8h0a1.9,1.9,0,0,1-1.8,1.9h0a1.9,1.9,0,0,1-1.9-1.8v-.2A1.8,1.8,0,0,1,194.3,209.6Z"/><path class="y" d="M194.3,202.2h0a.9.9,0,0,1,.9.8v3.9a.9.9,0,0,1-.8.8h0a.8.8,0,0,1-.9-.8V203A.9.9,0,0,1,194.3,202.2Z"/><path class="d" d="M188.7,209.6h0a1.9,1.9,0,0,1,1.9,1.8v.2a1.9,1.9,0,0,1-1.9,1.8h0a1.8,1.8,0,0,1-1.8-1.8v-.2A1.8,1.8,0,0,1,188.7,209.6Z"/><path class="c" d="M188.8,197.6h0a.9.9,0,0,1,.8.9v8.4a.8.8,0,0,1-.8.9h0a.9.9,0,0,1-.8-.9v-8.4A.9.9,0,0,1,188.8,197.6Z"/><path class="r" d="M183.2,209.6h0a1.8,1.8,0,0,1,1.8,1.8v.2a1.8,1.8,0,0,1-1.8,1.8h0a1.8,1.8,0,0,1-1.8-1.8h0A1.9,1.9,0,0,1,183.2,209.6Z"/><path class="r" d="M183.2,199.8h0a.8.8,0,0,1,.9.8v6.3a.9.9,0,0,1-.8.9h0a.9.9,0,0,1-.9-.8v-6.4A.8.8,0,0,1,183.2,199.8Z"/><path class="q" d="M177.6,209.7h0a1.8,1.8,0,0,1,1.9,1.8h0a1.9,1.9,0,0,1-1.8,1.9h0a1.9,1.9,0,0,1-1.9-1.9h0A1.8,1.8,0,0,1,177.6,209.7Z"/><path class="q" d="M177.7,203.4h0a.8.8,0,0,1,.9.8V207a.9.9,0,0,1-.9.8h0a.9.9,0,0,1-.8-.8v-2.8A.9.9,0,0,1,177.7,203.4Z"/><rect class="l" x="171.9" y="250.9" width="126.3" height="9.81" transform="translate(-1.3 1.2) rotate(-0.3)"/><path class="s" d="M170.4,224.7l129.2-.7c2.5,0,4.6,1.5,4.6,3.4v21.4c0,1.9-2,3.4-4.6,3.4l-129.1.7c-2.6,0-4.7-1.5-4.7-3.4V228.1C165.8,226.2,167.9,224.7,170.4,224.7Z"/><path class="p" d="M167.8,224.7l44.7-.2h0v28.1h0l-44.7.3a2,2,0,0,1-2-2V226.7A2,2,0,0,1,167.8,224.7Z"/><path class="t" d="M253,234.4h0a1.4,1.4,0,0,1,1.5,1.4h0a1.5,1.5,0,0,1-1.5,1.5h0a1.6,1.6,0,0,1-1.5-1.5h0A1.5,1.5,0,0,1,253,234.4Z"/><path class="q" d="M256.6,240.2h0a1.4,1.4,0,0,1,1.4,1.5h0a1.4,1.4,0,0,1-1.4,1.4h0a1.5,1.5,0,0,1-1.5-1.4h0A1.5,1.5,0,0,1,256.6,240.2Z"/><path class="t" d="M258.9,234.3h0a1.5,1.5,0,0,1,1.4,1.5h0a1.5,1.5,0,0,1-1.4,1.5h0a1.5,1.5,0,0,1-1.5-1.5h0A1.5,1.5,0,0,1,258.9,234.3Z"/><path class="t" d="M262.4,240.2h0a1.5,1.5,0,0,1,1.5,1.4h0a1.5,1.5,0,0,1-1.5,1.5h0a1.5,1.5,0,0,1-1.4-1.5h0A1.4,1.4,0,0,1,262.4,240.2Z"/><path class="r" d="M264.7,234.3h0a1.5,1.5,0,0,1,1.5,1.4h0a1.4,1.4,0,0,1-1.5,1.5h0a1.4,1.4,0,0,1-1.4-1.4h0A1.5,1.5,0,0,1,264.7,234.3Z"/><path class="t" d="M268.3,240.1h0a1.5,1.5,0,0,1,1.4,1.5h0a1.4,1.4,0,0,1-1.4,1.5h0a1.5,1.5,0,0,1-1.5-1.5h0A1.5,1.5,0,0,1,268.3,240.1Z"/><path class="t" d="M270.6,234.3h0a1.5,1.5,0,0,1,1.5,1.4h0a1.5,1.5,0,0,1-1.5,1.5h0a1.5,1.5,0,0,1-1.5-1.5h0A1.5,1.5,0,0,1,270.6,234.3Z"/><path class="q" d="M274.1,240.1h0a1.5,1.5,0,0,1,1.5,1.5h0a1.4,1.4,0,0,1-1.4,1.4h0a1.4,1.4,0,0,1-1.5-1.4h0A1.5,1.5,0,0,1,274.1,240.1Z"/><path class="t" d="M276.5,234.2h0a1.5,1.5,0,0,1,1.4,1.5h0a1.5,1.5,0,0,1-1.4,1.5h0a1.5,1.5,0,0,1-1.5-1.5h0A1.5,1.5,0,0,1,276.5,234.2Z"/><path class="t" d="M280,240.1h0a1.5,1.5,0,0,1,1.5,1.4h0A1.5,1.5,0,0,1,280,243h0a1.5,1.5,0,0,1-1.5-1.5h0A1.5,1.5,0,0,1,280,240.1Z"/><circle class="e" cx="290.2" cy="238.3" r="2.5"/><circle class="u" cx="290.2" cy="238.3" r="2"/><path class="t" d="M246.2,233.3h0a1.1,1.1,0,0,1,1.1,1.1v8.3a1.1,1.1,0,0,1-1.1,1.1h0a1.1,1.1,0,0,1-1.1-1.1v-8.3A1.1,1.1,0,0,1,246.2,233.3Z"/><path class="t" d="M241.7,233.3h0a1.2,1.2,0,0,1,1.2,1.1v8.3a1.1,1.1,0,0,1-1.1,1.1h0a1.1,1.1,0,0,1-1.1-1.1v-8.3A1.1,1.1,0,0,1,241.7,233.3Z"/><rect class="p" x="219.6" y="233.4" width="17.7" height="4.43" transform="translate(-1.2 1.2) rotate(-0.3)"/><rect class="p" x="219.6" y="239.5" width="17.7" height="4.43" transform="translate(-1.3 1.2) rotate(-0.3)"/><path class="r" d="M245.1,235.5h2.2v7.2a1.1,1.1,0,0,1-1.1,1.1h0a1.1,1.1,0,0,1-1.1-1.1v-7.2Z"/><path class="q" d="M240.7,239.7h2.2v3a1.1,1.1,0,0,1-1.1,1.1h0a1.1,1.1,0,0,1-1.1-1.1h0v-3Z"/><rect class="v" x="219.6" y="233.4" width="4.4" height="4.43" transform="translate(-1.2 1.2) rotate(-0.3)"/><rect class="v" x="219.6" y="239.5" width="4.4" height="4.43" transform="translate(-1.3 1.2) rotate(-0.3)"/><rect class="d" x="226.2" y="235" width="8.9" height="1.11" transform="translate(-1.2 1.2) rotate(-0.3)"/><rect class="d" x="226.3" y="241.1" width="8.9" height="1.11" transform="translate(-1.2 1.2) rotate(-0.3)"/><circle class="e" cx="290.2" cy="238.3" r="5.3"/><circle class="w" cx="290.2" cy="238.3" r="4.8"/><path class="d" d="M200,243.1h0a1.8,1.8,0,0,1,1.8,1.8h0a1.9,1.9,0,0,1-1.8,1.9h0a1.8,1.8,0,0,1-1.8-1.9h-.1A1.9,1.9,0,0,1,200,243.1Z"/><path class="c" d="M200,232.4h0a.8.8,0,0,1,.9.8v7.2a.9.9,0,0,1-.8.8h0a.8.8,0,0,1-.9-.8v-7.2A.8.8,0,0,1,200,232.4Z"/><path class="x" d="M194.4,243.1h0a1.9,1.9,0,0,1,1.9,1.8v.2a1.8,1.8,0,0,1-1.8,1.8h0a1.8,1.8,0,0,1-1.9-1.8v-.2A1.8,1.8,0,0,1,194.4,243.1Z"/><path class="y" d="M194.5,235.7h0a.8.8,0,0,1,.8.8v3.9a.8.8,0,0,1-.9.8h0a.8.8,0,0,1-.8-.8v-3.9A.8.8,0,0,1,194.5,235.7Z"/><path class="d" d="M188.9,243.1h0a1.8,1.8,0,0,1,1.8,1.8v.2a1.8,1.8,0,0,1-1.8,1.8h0a1.8,1.8,0,0,1-1.8-1.8h0A1.9,1.9,0,0,1,188.9,243.1Z"/><path class="c" d="M188.9,231.1h0a.9.9,0,0,1,.9.9v8.4a.8.8,0,0,1-.8.9h0a.8.8,0,0,1-.8-.9V232A.9.9,0,0,1,188.9,231.1Z"/><path class="r" d="M183.4,243.1h0a1.9,1.9,0,0,1,1.8,1.9h0a1.9,1.9,0,0,1-1.8,1.9h0a2,2,0,0,1-1.9-1.9h0A2,2,0,0,1,183.4,243.1Z"/><path class="r" d="M183.4,233.3h0a.8.8,0,0,1,.8.8v6.4a.9.9,0,0,1-.8.8h0a.9.9,0,0,1-.9-.8v-6.4A.9.9,0,0,1,183.4,233.3Z"/><path class="q" d="M177.8,243.2h0a1.9,1.9,0,0,1,1.9,1.8h0a1.9,1.9,0,0,1-1.9,1.9h0a1.8,1.8,0,0,1-1.8-1.8V245A1.8,1.8,0,0,1,177.8,243.2Z"/><path class="q" d="M177.9,236.9h0a.8.8,0,0,1,.8.8v2.8a.7.7,0,0,1-.8.8h0a.8.8,0,0,1-.8-.8v-2.8A.8.8,0,0,1,177.9,236.9Z"/><rect class="l" x="172.1" y="284.4" width="126.3" height="9.81" transform="translate(-1.5 1.2) rotate(-0.3)"/><path class="s" d="M170.6,258.2l129.1-.6c2.6-.1,4.7,1.4,4.7,3.3v21.4c0,1.9-2.1,3.4-4.6,3.4l-129.2.7c-2.5,0-4.6-1.5-4.6-3.4V261.6C166,259.7,168,258.2,170.6,258.2Z"/><path class="p" d="M168,258.2l44.7-.2h0v28.2h0l-44.7.2a2,2,0,0,1-2-2V260.2A2,2,0,0,1,168,258.2Z"/><path class="t" d="M253.2,267.9h0a1.5,1.5,0,0,1,1.5,1.4h0a1.5,1.5,0,0,1-1.5,1.5h0a1.5,1.5,0,0,1-1.5-1.5h0A1.5,1.5,0,0,1,253.2,267.9Z"/><path class="q" d="M256.7,273.7h0a1.5,1.5,0,0,1,1.5,1.5h0a1.4,1.4,0,0,1-1.5,1.4h0a1.3,1.3,0,0,1-1.4-1.4h0A1.5,1.5,0,0,1,256.7,273.7Z"/><path class="t" d="M259,267.8h0a1.5,1.5,0,0,1,1.5,1.5h0a1.5,1.5,0,0,1-1.4,1.5h0a1.5,1.5,0,0,1-1.5-1.5h0A1.5,1.5,0,0,1,259,267.8Z"/><path class="t" d="M262.6,273.7h0a1.5,1.5,0,0,1,1.5,1.4h0a1.5,1.5,0,0,1-1.5,1.5h0a1.5,1.5,0,0,1-1.5-1.4h0A1.5,1.5,0,0,1,262.6,273.7Z"/><path class="r" d="M264.9,267.8h0a1.5,1.5,0,0,1,1.5,1.5h0a1.5,1.5,0,0,1-1.5,1.4h0a1.5,1.5,0,0,1-1.5-1.4h0A1.5,1.5,0,0,1,264.9,267.8Z"/><path class="t" d="M268.4,273.7h0a1.4,1.4,0,0,1,1.5,1.4h0a1.5,1.5,0,0,1-1.4,1.5h0a1.5,1.5,0,0,1-1.5-1.5h0A1.4,1.4,0,0,1,268.4,273.7Z"/><path class="t" d="M270.8,267.8h0a1.4,1.4,0,0,1,1.4,1.4h0a1.5,1.5,0,0,1-1.4,1.5h0a1.5,1.5,0,0,1-1.5-1.4h0A1.5,1.5,0,0,1,270.8,267.8Z"/><path class="q" d="M274.3,273.6h0a1.5,1.5,0,0,1,1.5,1.5h0a1.5,1.5,0,0,1-1.5,1.5h0a1.5,1.5,0,0,1-1.4-1.5h0A1.4,1.4,0,0,1,274.3,273.6Z"/><path class="t" d="M276.6,267.8h0a1.4,1.4,0,0,1,1.5,1.4h0a1.5,1.5,0,0,1-1.5,1.5h0a1.5,1.5,0,0,1-1.4-1.5h0A1.4,1.4,0,0,1,276.6,267.8Z"/><path class="t" d="M280.2,273.6h0a1.4,1.4,0,0,1,1.4,1.5h0a1.4,1.4,0,0,1-1.4,1.4h0a1.5,1.5,0,0,1-1.5-1.4h0A1.5,1.5,0,0,1,280.2,273.6Z"/><circle class="e" cx="290.4" cy="271.8" r="2.5"/><circle class="u" cx="290.4" cy="271.8" r="2"/><path class="t" d="M246.3,266.8h0a1.1,1.1,0,0,1,1.2,1.1v8.3a1.1,1.1,0,0,1-1.1,1.1h0a1.1,1.1,0,0,1-1.1-1.1v-8.3A1.1,1.1,0,0,1,246.3,266.8Z"/><path class="t" d="M241.9,266.8h0a1.1,1.1,0,0,1,1.1,1.1v8.3a1.1,1.1,0,0,1-1.1,1.1h0a1,1,0,0,1-1.1-1.1v-8.3A1.1,1.1,0,0,1,241.9,266.8Z"/><rect class="p" x="219.8" y="266.9" width="17.7" height="4.43" transform="translate(-1.4 1.2) rotate(-0.3)"/><rect class="p" x="219.8" y="273" width="17.7" height="4.43" transform="translate(-1.4 1.2) rotate(-0.3)"/><path class="r" d="M245.2,269h2.3v7.2a1.1,1.1,0,0,1-1.1,1.1h0a1.1,1.1,0,0,1-1.1-1.1V269Z"/><path class="q" d="M240.8,273.3h2.3v2.9a1.1,1.1,0,0,1-1.1,1.1h0a1,1,0,0,1-1.1-1.1h0v-2.9Z"/><rect class="v" x="219.8" y="266.9" width="4.4" height="4.43" transform="translate(-1.4 1.2) rotate(-0.3)"/><rect class="v" x="219.8" y="273" width="4.4" height="4.43" transform="translate(-1.4 1.2) rotate(-0.3)"/><rect class="d" x="226.4" y="268.5" width="8.9" height="1.11" transform="translate(-1.4 1.2) rotate(-0.3)"/><rect class="d" x="226.4" y="274.6" width="8.9" height="1.11" transform="translate(-1.4 1.2) rotate(-0.3)"/><circle class="e" cx="290.4" cy="271.8" r="5.3"/><circle class="w" cx="290.4" cy="271.8" r="4.8"/><path class="d" d="M200.1,276.6h0a1.8,1.8,0,0,1,1.9,1.8v.2a1.8,1.8,0,0,1-1.8,1.8h0a1.9,1.9,0,0,1-1.9-1.8v-.2A1.8,1.8,0,0,1,200.1,276.6Z"/><path class="c" d="M200.2,265.9h0a.7.7,0,0,1,.8.8v7.2a.8.8,0,0,1-.9.8h0a.8.8,0,0,1-.8-.8v-7.2A.8.8,0,0,1,200.2,265.9Z"/><path class="x" d="M194.6,276.6h0a1.8,1.8,0,0,1,1.8,1.8v.2a1.7,1.7,0,0,1-1.8,1.8h0a1.8,1.8,0,0,1-1.8-1.8h0A1.8,1.8,0,0,1,194.6,276.6Z"/><path class="y" d="M194.7,269.2h0a.9.9,0,0,1,.8.9v3.8a.8.8,0,0,1-.8.9h0a.8.8,0,0,1-.8-.9v-3.8A.9.9,0,0,1,194.7,269.2Z"/><path class="d" d="M189.1,276.6h0a1.9,1.9,0,0,1,1.8,1.9h0a1.8,1.8,0,0,1-1.8,1.8h0a1.9,1.9,0,0,1-1.9-1.8h0A2,2,0,0,1,189.1,276.6Z"/><path class="c" d="M189.1,264.7h0a.7.7,0,0,1,.8.8V274a.9.9,0,0,1-.8.8h0a.9.9,0,0,1-.9-.8v-8.5A.8.8,0,0,1,189.1,264.7Z"/><path class="r" d="M183.5,276.7h0a1.9,1.9,0,0,1,1.9,1.8h0a1.9,1.9,0,0,1-1.9,1.9h0a1.8,1.8,0,0,1-1.8-1.8v-.2A1.8,1.8,0,0,1,183.5,276.7Z"/><path class="r" d="M183.6,266.8h0a.9.9,0,0,1,.8.8V274a.8.8,0,0,1-.9.8h0a.8.8,0,0,1-.8-.8v-6.4A.8.8,0,0,1,183.6,266.8Z"/><path class="q" d="M178,276.7h0a1.8,1.8,0,0,1,1.8,1.8v.2a1.8,1.8,0,0,1-1.8,1.8h0a1.8,1.8,0,0,1-1.8-1.8v-.2A1.8,1.8,0,0,1,178,276.7Z"/><path class="q" d="M178.1,270.4h0a.9.9,0,0,1,.8.9V274a.9.9,0,0,1-.8.9h0a.8.8,0,0,1-.8-.9v-2.7A.9.9,0,0,1,178.1,270.4Z"/><path class="s" d="M170.8,291.7l129.1-.6c2.6,0,4.6,1.5,4.6,3.3l.2,21.4c0,1.9-2.1,3.4-4.6,3.4l-129.2.7c-2.5,0-4.6-1.5-4.6-3.3V295.1C166.2,293.3,168.2,291.8,170.8,291.7Z"/><path class="p" d="M168.1,291.8l44.7-.3h0l.2,28.2h0l-44.7.2a2,2,0,0,1-2-2V293.8A1.9,1.9,0,0,1,168.1,291.8Z"/><path class="t" d="M253.4,301.4h0a1.4,1.4,0,0,1,1.4,1.5h0a1.4,1.4,0,0,1-1.4,1.4h0a1.5,1.5,0,0,1-1.5-1.4h0A1.5,1.5,0,0,1,253.4,301.4Z"/><path class="q" d="M256.9,307.2h0a1.5,1.5,0,0,1,1.5,1.5h0a1.5,1.5,0,0,1-1.5,1.5h0a1.5,1.5,0,0,1-1.5-1.5h0A1.5,1.5,0,0,1,256.9,307.2Z"/><path class="t" d="M259.2,301.4h0a1.5,1.5,0,0,1,1.5,1.4h0a1.5,1.5,0,0,1-1.5,1.5h0a1.5,1.5,0,0,1-1.4-1.5h0A1.4,1.4,0,0,1,259.2,301.4Z"/><path class="t" d="M262.8,307.2h0a1.5,1.5,0,0,1,1.4,1.5h0a1.4,1.4,0,0,1-1.4,1.4h0a1.5,1.5,0,0,1-1.5-1.4h0A1.5,1.5,0,0,1,262.8,307.2Z"/><path class="r" d="M265.1,301.3h0a1.5,1.5,0,0,1,1.4,1.5h0a1.4,1.4,0,0,1-1.4,1.5h0a1.5,1.5,0,0,1-1.5-1.5h0A1.5,1.5,0,0,1,265.1,301.3Z"/><path class="t" d="M268.6,307.2h0a1.5,1.5,0,0,1,1.5,1.4h0a1.5,1.5,0,0,1-1.5,1.5h0a1.4,1.4,0,0,1-1.4-1.5h0A1.4,1.4,0,0,1,268.6,307.2Z"/><path class="t" d="M270.9,301.3h0a1.5,1.5,0,0,1,1.5,1.5h0a1.4,1.4,0,0,1-1.4,1.4h0a1.4,1.4,0,0,1-1.5-1.4h0A1.5,1.5,0,0,1,270.9,301.3Z"/><path class="q" d="M274.5,307.1h0a1.5,1.5,0,0,1,1.5,1.5h0a1.5,1.5,0,0,1-1.5,1.5h0a1.5,1.5,0,0,1-1.5-1.5h0A1.6,1.6,0,0,1,274.5,307.1Z"/><path class="t" d="M276.8,301.3h0a1.5,1.5,0,0,1,1.5,1.4h0a1.5,1.5,0,0,1-1.5,1.5h0a1.5,1.5,0,0,1-1.5-1.5h0A1.5,1.5,0,0,1,276.8,301.3Z"/><path class="t" d="M280.3,307.1h0a1.5,1.5,0,0,1,1.5,1.5h0a1.4,1.4,0,0,1-1.4,1.4h0a1.4,1.4,0,0,1-1.5-1.4h0A1.5,1.5,0,0,1,280.3,307.1Z"/><circle class="e" cx="290.6" cy="305.4" r="2.5"/><circle class="u" cx="290.6" cy="305.4" r="2"/><path class="t" d="M246.5,300.3h0a1.1,1.1,0,0,1,1.1,1.1v8.3a1.1,1.1,0,0,1-1.1,1.1h0a1,1,0,0,1-1.1-1.1v-8.3A1.1,1.1,0,0,1,246.5,300.3Z"/><path class="t" d="M242.1,300.3h0a1.1,1.1,0,0,1,1.1,1.1v8.4a1,1,0,0,1-1.1,1.1h0a1.1,1.1,0,0,1-1.1-1.1v-8.3A1.1,1.1,0,0,1,242.1,300.3Z"/><rect class="p" x="219.9" y="300.4" width="17.7" height="4.43" transform="translate(-1.6 1.2) rotate(-0.3)"/><rect class="p" x="220" y="306.5" width="17.7" height="4.43" transform="translate(-1.6 1.2) rotate(-0.3)"/><path class="r" d="M245.4,302.5h2.2v7.2a1.1,1.1,0,0,1-1.1,1.1h0a1,1,0,0,1-1.1-1.1v-7.2Z"/><path class="q" d="M241,306.8h2.2v3a1,1,0,0,1-1.1,1.1h0a1.1,1.1,0,0,1-1.1-1.1h0v-3Z"/><rect class="v" x="219.9" y="300.4" width="4.4" height="4.43" transform="translate(-1.6 1.2) rotate(-0.3)"/><rect class="v" x="220" y="306.5" width="4.4" height="4.43" transform="translate(-1.6 1.2) rotate(-0.3)"/><rect class="d" x="226.6" y="302.1" width="8.9" height="1.11" transform="translate(-1.6 1.2) rotate(-0.3)"/><rect class="d" x="226.6" y="308.2" width="8.9" height="1.11" transform="translate(-1.6 1.2) rotate(-0.3)"/><circle class="e" cx="290.6" cy="305.4" r="5.3"/><circle class="w" cx="290.6" cy="305.4" r="4.8"/><path class="d" d="M200.3,309.6h0a1.9,1.9,0,0,1,1.9,1.8v.2a1.9,1.9,0,0,1-1.9,1.8h0a1.8,1.8,0,0,1-1.8-1.8v-.2A1.8,1.8,0,0,1,200.3,309.6Z"/><path class="c" d="M200.4,298.9h0a.9.9,0,0,1,.8.8v7.2a.8.8,0,0,1-.8.9h0a.9.9,0,0,1-.8-.9v-7.2A.9.9,0,0,1,200.4,298.9Z"/><path class="x" d="M194.8,309.6h0a1.8,1.8,0,0,1,1.8,1.9h0a1.8,1.8,0,0,1-1.8,1.8h0a1.8,1.8,0,0,1-1.8-1.8h0A1.9,1.9,0,0,1,194.8,309.6Z"/><path class="y" d="M194.8,302.3h0a.8.8,0,0,1,.9.8V307a.9.9,0,0,1-.8.8h0a.9.9,0,0,1-.9-.8v-3.9A.8.8,0,0,1,194.8,302.3Z"/><path class="d" d="M189.2,309.7h0a1.9,1.9,0,0,1,1.9,1.8h0a1.9,1.9,0,0,1-1.8,1.9h0a1.8,1.8,0,0,1-1.9-1.9h0A1.8,1.8,0,0,1,189.2,309.7Z"/><path class="c" d="M189.3,297.7h0a.9.9,0,0,1,.8.8V307a.9.9,0,0,1-.9.8h0a.8.8,0,0,1-.8-.8v-8.5A.8.8,0,0,1,189.3,297.7Z"/><path class="r" d="M183.7,309.7h0a1.8,1.8,0,0,1,1.8,1.8v.2a1.8,1.8,0,0,1-1.8,1.8h0a1.8,1.8,0,0,1-1.8-1.8v-.2A1.8,1.8,0,0,1,183.7,309.7Z"/><path class="r" d="M183.8,299.8h0a.9.9,0,0,1,.8.9V307a.7.7,0,0,1-.8.8h0c-.5.1-.8-.3-.8-.8v-6.3A.9.9,0,0,1,183.8,299.8Z"/><path class="q" d="M178.2,309.7h0a1.8,1.8,0,0,1,1.8,1.8v.2a1.8,1.8,0,0,1-1.8,1.8h0a1.9,1.9,0,0,1-1.9-1.8h0A1.9,1.9,0,0,1,178.2,309.7Z"/><path class="q" d="M178.2,303.4h0a.9.9,0,0,1,.9.9V307a.9.9,0,0,1-.8.9h0a.9.9,0,0,1-.9-.9v-2.7A.9.9,0,0,1,178.2,303.4Z"/><rect class="z" x="173.5" y="142.4" width="24.9" height="5.27" transform="translate(-0.7 1) rotate(-0.3)"/><rect class="aa" x="174.8" y="143.8" width="10.7" height="2.61" transform="translate(-0.7 0.9) rotate(-0.3)"/><path class="ab" d="M92.4,103.6c-6.7,1.5-7.3,7-5.2,12.8s19.2,33.8,21.2,34.6,11.3-2.6,11.5-5.5-10.4-28.6-13-33.2S100.2,101.8,92.4,103.6Z"/><path class="ab" d="M144.9,138.8l2.4-.5c1.7-.2,2.4-.5,4.2,0s6.7,2,7.6,2,1.7.9.3,1.3-14.7.5-14.7.5Z"/><path class="ab" d="M107,150.8c1.3,7.4,12.8,4.6,18.3,2.8s21-8.9,21-8.9l-1.4-6a116.7,116.7,0,0,0-31.1,2.6C112.2,141.7,105.7,143.4,107,150.8Z"/><path class="q" d="M55.4,343.3s4.7,8.6,4,10.4-3.9,4.5-8.7,3.8-8.9-5.1-9.8-5.4.3-12.1.3-12.1Z"/><path class="ac" d="M98.5,103.9c2.4.8,8,3.5,11.9,12.5,2.5,5.9,7.1,17.5,7.1,17.5a24.9,24.9,0,0,1-9.4,5.4,24.3,24.3,0,0,1-11.8.9s-10.2-23.9-9.5-29.1C87.1,109.6,91.7,101.7,98.5,103.9Z"/><path class="ad" d="M73.3,77s-.8,19.7-1.9,20.6c-3.6,3-16.5,5.6-18.9,10.8S65.7,142.7,67.9,152s-2.2,23.8-3.6,32.9S91.6,205,92.7,205s10.3-8.7,12-11.7,0-26.4-.1-32.3,1.3-26.9,1.6-28.3a39.7,39.7,0,0,0-1-18.2c-.3-2-.2-5.2-1.2-6.4s-12.7-5.7-12.8-6.9-1.7-18.4-1.7-18.4Z"/><polygon class="ab" points="90.1 94.2 72.9 81.7 71.4 97.7 76 101 90.1 94.2"/><path class="ad" d="M99.8,62.4c-3.2-5-14.9-11.7-23.1-5S69.1,73,71.2,78.8s3.6,7.4,8,10.9c.9.8,9.8,4.7,11.8,4.5s4.6-9.1,5-9a1.5,1.5,0,0,0,1.7-.8c.4-1.1.8-8,1.3-8.7S103.6,68.1,99.8,62.4Z"/><rect class="q" x="81.6" y="343.7" width="11.2" height="2.09" transform="translate(-1.8 0.5) rotate(-0.3)"/><path class="q" d="M82,329a18.8,18.8,0,0,0-2.6,7.9c-.1,2.2,1.2,6.9,2.6,6.9a105.4,105.4,0,0,1,13.7.6c4.4.6,6,3.1,17.2,3,3.2,0,9-.2,9-1.6-.1-5.7-10.8-3.6-14.2-6.7-8.6-7.9-14.3-9.8-14.3-9.8S82.3,328.6,82,329Z"/><path class="ae" d="M86.5,176.5S71.7,191.5,71,198s5.8,27.2,8.1,43.6,3.7,19.6,3.1,23.5-4.8,19.5-4.6,29.9c.2,12.2-.3,37.1-.3,37.1s3.3,2.5,11.6,2.4c5.4,0,10.1-3.9,10.1-3.9s3-61.1,3.7-67.5c.4-4.1,3.6-32.8,4.5-56.2.3-7.5-1.5-29-1.5-32.1Z"/><path class="l" d="M63.3,175.6s-5.9,14.6-8.2,24.4-4.9,60.3-5.7,65.1-3.7,19.3-6,33.7S40,342,40,342l18.4,2.8S69,284.2,70.7,274.7s19.6-77,19.6-77l8-22.8Z"/><path class="ae" d="M64.1,216.9c-1.5,6.5-5.8,50.4-6.2,52.9s-11.3,70-11.9,73.1l-6-.9s1.2-28.9,3.4-43.2,5.2-29,6-33.7,3.4-55.3,5.7-65.1,8.2-24.4,8.2-24.4l16.1.4S65.6,210.4,64.1,216.9Z"/><path class="d" d="M71.4,97.6s11.1,9.2,17.2,8.6,2.6-5,2.6-5,11.3,3.5,12.8,5.9,2.2,8.7,2.7,10.7.8,11.1.1,19.1c-.5,4.6-.4,10.7-1,18.6s.2,23.6.2,23.6-6.5.3-16.5-.2-23.2-2.3-23.8-2.7c-2.2-1.8.8-19.7.4-21.7s-14.7-36.3-15-40.8,1.5-7.6,4.9-9.4S71.4,97.6,71.4,97.6Z"/><path class="ac" d="M58.3,103.7s-11.3,6.3,0,14.9c4.8,3.7,17.7,21.9,22.1,23.2,15.5,4.7,1.9,26.7,0,29.3a12,12,0,0,0-1.7,6.2l-15-1.6c-4.6.9,2.4-21.4.6-26.2s-13.1-32.2-13.2-35.8A10.3,10.3,0,0,1,58.3,103.7Z"/><path class="ad" d="M55.1,105.8c-6.6,2.5-6.6,8.5-3.9,14.7s25.8,39.5,28,40,11.1-4.1,11.1-7.3-16.4-34.9-19.5-39.6S62.9,102.9,55.1,105.8Z"/><path class="d" d="M61.1,104.9c2.6.6,8.5,3,10.5,7.7,2.9,6.6,11.7,23.5,11.7,23.5a25.2,25.2,0,0,1-9,7.1c-6.7,3.2-11.9,2.4-11.9,2.4S49.7,119.9,49.2,114,53.9,103.1,61.1,104.9Z"/><rect class="af" x="114.9" y="141.4" width="95.4" height="10.24" rx="0.8" transform="translate(-0.8 0.8) rotate(-0.3)"/><rect class="z" x="118.7" y="143.9" width="26.7" height="5.61" transform="translate(-0.8 0.7) rotate(-0.3)"/><rect class="ag" x="120.1" y="145.4" width="11.2" height="2.78" transform="translate(-0.8 0.7) rotate(-0.3)"/><path class="ah" d="M167.6,143.7a.8.8,0,1,1-1.6,0,.8.8,0,0,1,1.6,0Z"/><path class="ah" d="M171.1,143.7a.8.8,0,0,1-.7.8.8.8,0,0,1-.8-.8.8.8,0,0,1,.7-.8A.8.8,0,0,1,171.1,143.7Z"/><path class="ah" d="M174.7,143.7a.8.8,0,1,1-.8-.8A.8.8,0,0,1,174.7,143.7Z"/><path class="ah" d="M178.2,143.7a.8.8,0,0,1-.7.8.8.8,0,0,1-.8-.8.7.7,0,0,1,.7-.8A.7.7,0,0,1,178.2,143.7Z"/><path class="ah" d="M181.8,143.6a.8.8,0,0,1-.8.8.8.8,0,0,1-.8-.7.8.8,0,0,1,.8-.8A.8.8,0,0,1,181.8,143.6Z"/><path class="ah" d="M185.3,143.6a.7.7,0,0,1-.7.8.7.7,0,0,1-.8-.8.8.8,0,0,1,.7-.8A.8.8,0,0,1,185.3,143.6Z"/><path class="ah" d="M188.9,143.6a.9.9,0,0,1-.8.8.8.8,0,0,1-.8-.8.8.8,0,1,1,1.6,0Z"/><path class="ah" d="M192.4,143.6a.8.8,0,0,1-.7.8.8.8,0,0,1-.8-.8.8.8,0,0,1,.7-.8A.8.8,0,0,1,192.4,143.6Z"/><path class="ah" d="M196,143.6a.8.8,0,1,1-1.6,0,.8.8,0,1,1,1.6,0Z"/><path class="ah" d="M199.5,143.6a.7.7,0,0,1-.8.7c-.4.1-.7-.3-.7-.7a.7.7,0,0,1,.7-.8A.7.7,0,0,1,199.5,143.6Z"/><path class="ah" d="M167.6,146.7a.7.7,0,0,1-.8.7.8.8,0,0,1-.8-.7.8.8,0,0,1,1.6,0Z"/><path class="ah" d="M171.2,146.6a.8.8,0,0,1-.8.8.7.7,0,0,1-.8-.8.8.8,0,0,1,.8-.8A.9.9,0,0,1,171.2,146.6Z"/><path class="ah" d="M174.7,146.6a.7.7,0,0,1-.8.8.8.8,0,0,1-.8-.8.8.8,0,1,1,1.6,0Z"/><path class="ah" d="M178.3,146.6a.9.9,0,0,1-.8.8.8.8,0,0,1,0-1.6A.9.9,0,0,1,178.3,146.6Z"/><path class="ah" d="M181.8,146.6a.8.8,0,0,1-.8.8.9.9,0,0,1-.8-.8.8.8,0,1,1,1.6,0Z"/><path class="ah" d="M185.4,146.6a.9.9,0,0,1-.8.8.8.8,0,0,1-.8-.8.7.7,0,0,1,.8-.8A.8.8,0,0,1,185.4,146.6Z"/><path class="ah" d="M188.9,146.5a.7.7,0,0,1-.8.8.8.8,0,0,1-.8-.8.8.8,0,0,1,.8-.7A.7.7,0,0,1,188.9,146.5Z"/><path class="ah" d="M192.5,146.5a.8.8,0,0,1-.8.8.7.7,0,0,1-.8-.8.8.8,0,0,1,.8-.8A.9.9,0,0,1,192.5,146.5Z"/><path class="ah" d="M196,146.5a.8.8,0,0,1-.8.8.8.8,0,1,1,.8-.8Z"/><path class="ah" d="M199.6,146.5a.9.9,0,0,1-.8.8.8.8,0,1,1,.8-.8Z"/><path class="ah" d="M167.6,149.6a.8.8,0,0,1-.8.8.8.8,0,0,1,0-1.6A.7.7,0,0,1,167.6,149.6Z"/><path class="ah" d="M171.2,149.6a.9.9,0,0,1-.8.8.8.8,0,0,1-.8-.8.7.7,0,0,1,.8-.8A.8.8,0,0,1,171.2,149.6Z"/><path class="ah" d="M174.7,149.5a.7.7,0,0,1-.8.8.8.8,0,0,1-.8-.7.8.8,0,0,1,.8-.8A.7.7,0,0,1,174.7,149.5Z"/><path class="ah" d="M178.3,149.5a.8.8,0,0,1-.8.8.7.7,0,0,1-.8-.8.8.8,0,0,1,.8-.8A.9.9,0,0,1,178.3,149.5Z"/><path class="ah" d="M181.8,149.5a.8.8,0,0,1-1.6,0,.9.9,0,0,1,.8-.8A.8.8,0,0,1,181.8,149.5Z"/><path class="ah" d="M185.4,149.5a.9.9,0,0,1-.8.8.8.8,0,0,1,0-1.6A.9.9,0,0,1,185.4,149.5Z"/><path class="ah" d="M188.9,149.5a.8.8,0,0,1-.8.8.9.9,0,0,1-.8-.8.8.8,0,0,1,.8-.8A.7.7,0,0,1,188.9,149.5Z"/><path class="ah" d="M192.5,149.5c0,.4-.4.7-.8.8a.8.8,0,0,1-.8-.8.7.7,0,0,1,.8-.8A.8.8,0,0,1,192.5,149.5Z"/><path class="ah" d="M196,149.4a.7.7,0,0,1-.8.8.8.8,0,0,1-.8-.8c0-.4.4-.7.8-.8A.8.8,0,0,1,196,149.4Z"/><path class="ah" d="M199.6,149.4a.8.8,0,0,1-.8.8.7.7,0,0,1-.8-.8.8.8,0,0,1,.8-.8A.9.9,0,0,1,199.6,149.4Z"/><path class="ad" d="M78.6,158.5c.4,7.4,15.7,5.4,23.1,4s28.6-7.5,28.6-7.5l.3-6.9s-17.5-.6-38.5,0C84.8,148.3,78.3,150.9,78.6,158.5Z"/><path class="ad" d="M127.9,154.8c3.6,2,8.4,2,10.1,2.2s17.7-3.9,17.8-4.3.4-1.5-3.5-1.4c-6.7.1-10.2,1.7-12.1,0s-3.9-3.5-7.2-3.9S126,153.7,127.9,154.8Z"/><path class="ad" d="M133.9,152.2s11.8-4.1,12.1-5.1.3-1.4-1.1-1.4-6.5,1.4-7.6,1.3-5.2-.1-6.3,1S133.9,152.2,133.9,152.2Z"/><path class="s" d="M80.1,72.8c1.9-8.4-8.7-2.6-2.5,4.5-2.2,7.2-15.1,6.2-8.8-11.8,3.1-10.2,8.3-15.1,16.3-12.2,3.9,2.1,4.1-2.7,3.4-8,5.4.4,10.6,3.1,15,9,6.7,9.9-.2,21-16.8,9C86,71.9,84.3,76.4,80.1,72.8Z"/></svg>