<svg xmlns="http://www.w3.org/2000/svg" xmlns:xlink="http://www.w3.org/1999/xlink" viewBox="0 0 400 400"><defs><style>.a{isolation:isolate;}.b{fill:url(#a);}.c{fill:url(#b);}.d{fill:url(#c);}.e{fill:url(#d);}.f{fill:url(#e);}.g{fill:url(#f);}.h{fill:#0e71bb;}.i{fill:url(#g);}.j{fill:url(#h);}.k{fill:url(#i);}.l{fill:url(#j);}.m{fill:#eaeaea;}.ae,.m,.x,.y{opacity:0.5;}.m,.p,.y{mix-blend-mode:multiply;}.n{fill:#1b1b35;}.o{fill:#288ed9;}.p{fill:#7771d5;}.ad,.p{opacity:0.4;}.q{fill:#1f364c;}.r{fill:#ffe7cb;}.s{fill:#f0d2b9;}.t{fill:#005b9f;}.u{fill:url(#k);}.v{fill:url(#l);}.w{fill:url(#m);}.x,.y{fill:#d3c2be;}.x{mix-blend-mode:screen;}.z{fill:url(#n);}.aa{fill:url(#o);}.ab{fill:#379ae3;}.ac{opacity:0.3;}.ae,.af,.ag{fill:#fff;}.ag{font-size:17.61px;font-family:Dubai-Bold, Dubai;font-weight:700;}</style><linearGradient id="a" x1="110.59" y1="217.49" x2="370.64" y2="217.49" gradientUnits="userSpaceOnUse"><stop offset="0" stop-color="#c6e6ff"/><stop offset="1" stop-color="#fff"/></linearGradient><linearGradient id="b" x1="-570.89" y1="259.2" x2="-464.34" y2="259.2" gradientTransform="translate(751.7)" gradientUnits="userSpaceOnUse"><stop offset="0" stop-color="#07154b"/><stop offset="0.26" stop-color="#0c174e"/><stop offset="0.58" stop-color="#1b1d57"/><stop offset="0.93" stop-color="#332767"/><stop offset="1" stop-color="#39296a"/></linearGradient><linearGradient id="c" x1="-526.09" y1="273.6" x2="-509.14" y2="273.6" xlink:href="#b"/><linearGradient id="d" x1="-520.99" y1="292.33" x2="-514.25" y2="292.33" xlink:href="#b"/><linearGradient id="e" x1="-521.94" y1="327.04" x2="-513.3" y2="327.04" xlink:href="#b"/><linearGradient id="f" x1="-532.91" y1="267.27" x2="-502.32" y2="267.27" xlink:href="#b"/><linearGradient id="g" x1="-563.23" y1="349.27" x2="-520.04" y2="349.27" xlink:href="#b"/><linearGradient id="h" x1="-561.56" y1="363.73" x2="-550.9" y2="363.73" xlink:href="#b"/><linearGradient id="i" x1="-515.19" y1="349.27" x2="-472" y2="349.27" xlink:href="#b"/><linearGradient id="j" x1="-484.33" y1="363.73" x2="-473.68" y2="363.73" xlink:href="#b"/><linearGradient id="k" x1="26.63" y1="218.89" x2="88.69" y2="218.89" gradientUnits="userSpaceOnUse"><stop offset="0" stop-color="#44989f"/><stop offset="0.21" stop-color="#39b0b4"/><stop offset="0.52" stop-color="#2ccbcd"/><stop offset="0.8" stop-color="#24dcdd"/><stop offset="1" stop-color="#21e2e2"/></linearGradient><linearGradient id="l" x1="82.19" y1="231.08" x2="134.53" y2="231.08" gradientUnits="userSpaceOnUse"><stop offset="0" stop-color="#ffbc98"/><stop offset="1" stop-color="#ff9f6c"/></linearGradient><linearGradient id="m" x1="44.71" y1="327.16" x2="124.23" y2="327.16" xlink:href="#l"/><linearGradient id="n" x1="59.99" y1="368.94" x2="108.96" y2="368.94" xlink:href="#l"/><linearGradient id="o" x1="41.17" y1="291.54" x2="127.78" y2="291.54" xlink:href="#l"/></defs><title>free-ssl</title><g class="a"><path class="b" d="M366.8,189c-5.9-40.2-18.1-130.4-110.5-124.6S196,189.8,148.2,217.9s-46.6,93.2-15.3,127.9,162.1,33,202.6-2.5S373.4,233.5,366.8,189Z"/><rect class="c" x="180.9" y="254.8" width="106.6" height="8.76"/><rect class="d" x="225.7" y="271" width="16.9" height="5.3"/><rect class="e" x="230.8" y="276.3" width="6.7" height="32.16"/><rect class="f" x="229.8" y="308.4" width="8.6" height="37.27"/><polygon class="g" points="238.5 263.6 229.7 263.6 218.8 263.6 223.3 271 229.7 271 238.5 271 245 271 249.4 263.6 238.5 263.6"/><path class="h" d="M228.9,224.6h10.5c17.5.8,52.9,5.5,46.2,30.2h-103C176,230.1,211.3,225.4,228.9,224.6Z"/><path class="i" d="M231.7,335.2c-15.6,6.7-37.8,17.1-40.7,20.6a11.5,11.5,0,0,0-2.5,7.6l43.2-19.7Z"/><path class="j" d="M200.8,363.7a5.3,5.3,0,0,1-5.3,5.4,5.4,5.4,0,0,1,0-10.7A5.3,5.3,0,0,1,200.8,363.7Z"/><path class="k" d="M236.6,343.7l43.1,19.7a10.8,10.8,0,0,0-2.4-7.6c-3-3.5-25.1-13.9-40.7-20.6Z"/><path class="l" d="M267.4,363.7a5.4,5.4,0,1,0,5.3-5.3A5.4,5.4,0,0,0,267.4,363.7Z"/><path class="m" d="M182.9,269.5c8,4.7,9.3,22.3,10,34s-2,26.6,1.3,35-1.3,24.3-11,16.3-7-63.6-7-63.6Z"/><path class="m" d="M156.2,255.5c12.4,3.4,31.3,8,46.3,3.7s19.4-10,32-7.7,33,13,41.7,9-3.4-30.3-3.4-30.3l-44.6-14.3-55,18Z"/><path class="m" d="M245.5,72.9c8,0,7.1,24.8,18.7,28.8s30.2,12.9,30.2,36.9-15.1,54.2-11.1,66.6,12,19.6,4.6,35.6c-4.5,9.7-47.3-31.6-47.3-35.1s1.8-79.5,1.8-80.9S245.5,72.9,245.5,72.9Z"/><path class="n" d="M185.9,328.2s.8,5,1.3,6.5,5,10.5,4.7,15.3-4.5,7-13.6,10.2c-4.8,1.7-4.2,4.1-11.6,7.8s-16.9-2.3-11.2-10.2a108.4,108.4,0,0,1,14.9-16.5c3.2-2.9,4.2-9.2,3.4-12.8Z"/><path class="n" d="M273.6,325.8s-.8,5-1.3,6.5-5,10.5-4.7,15.4,4.6,6.9,13.6,10.1c4.8,1.8,4.2,4.1,11.7,7.8s16.9-2.3,11.1-10.2a98.6,98.6,0,0,0-14.9-16.5c-3.2-2.9-4.2-9.2-3.3-12.7Z"/><path class="o" d="M222.7,117.1s-9.4,3.9-16.2,21.8-11.9,39.8-44.6,54.7l3.6,16.2s34.1-3,56.6-33.3C248.8,140.8,222.7,117.1,222.7,117.1Z"/><path class="p" d="M222.7,117.1s-9.4,3.9-16.2,21.8-11.9,39.8-44.6,54.7l3.6,16.2s34.1-3,56.6-33.3C248.8,140.8,222.7,117.1,222.7,117.1Z"/><path class="q" d="M276.9,198.8s10.4,18.7,14.1,34.9-3.3,94.1-3.3,94.1H270.8s-15.2-49.4-14.3-79.1l-26.7-15.2c-18.1,10.1-25.3,13.7-45.6,19.8,0,0,6.6,45.7,4.8,78.3H171.3s-16.7-47.4-23.1-80a14.3,14.3,0,0,1,.7-7.4c3.2-7.7,31.7-25.1,64-40.6Z"/><path class="o" d="M250.5,108.5l17,4.4c9.4,2.5,19,14.6,16.3,28.1s-5,34.9-6.1,54.4-51,24.4-62.5,4.9c0,0,2.9-25.5-2.2-47.3s.1-37.3,16.8-40.9S250.5,108.5,250.5,108.5Z"/><circle class="r" cx="228.9" cy="77.3" r="18.5" transform="matrix(0.26, -0.97, 0.97, 0.26, 94.79, 278.29)"/><path class="r" d="M253.7,109.3c-2.6-5.3-5.6-19.9-6.3-32l-36.5,4s2.1,12.9,2.6,18.6,5.7,11.6,12.8,9.3c3.1-1,4,.2,4.5,2.7l-1,.2a25.5,25.5,0,0,0-6.4,2.3c.8,9.6,7.6,13.8,12.7,13.8s18.2-1.1,24.2-17.2Z"/><path class="s" d="M237,99.6a12.5,12.5,0,0,1-8.6,9.1l-.2.2c1.7,0,2.2,1.1,2.6,3l-1,.2-3.1.8c1.4,2,4.4,6,6.4,6s3.5-3.7,4.6-9.3A19.1,19.1,0,0,0,237,99.6Z"/><path class="h" d="M210.6,79.3a17.9,17.9,0,0,0,5.8.3,104.9,104.9,0,0,0,13.2-2.7c2.4-.6,4.8.8,5.9,4.7l.8,5.4,2,.9s-.6-4.3,2.3-4.6,3.7,5.7,2.5,7.3a3.2,3.2,0,0,1-2.8,1.5s-1.2.6-.2,2.3,8.7,5.3,10.7,4.2c0,0-2.6-17-3-22S246,64,241.4,61.2a25.1,25.1,0,0,0-22.1-.8c-8.6,3.8-9.2,11-14.4,12.8,0,0,2.1,8,6.1,9Z"/><path class="o" d="M265.7,121.8c-6.8.8-13.2,9.4-11.4,20.7s-1.2,46.7-49.2,53.9l1.9,16.2s22.3,6.6,46.8-8.5,29.8-58.7,26.8-69.5S273.6,120.8,265.7,121.8Z"/><path class="p" d="M275.5,117.4c1.3,2,5.2,9.2,5.1,17.2-.2,11.2-3.8,55.2-26.8,69.5a70.7,70.7,0,0,1-18.1,7.8h0c18.4,3.1,41.3-3.4,42-16.6,1.1-19.5,3.3-41,6.1-54.4.1-.5.1-1,.2-1.6C284.9,125,277.3,119.6,275.5,117.4Z"/><path class="p" d="M254.3,145.5s4.7,35.2-38.5,48.7C215.8,194.2,254.1,180.4,254.3,145.5Z"/><path class="n" d="M210.9,226.8H146.1a6,6,0,0,1-5.6-4.7l-8.1-44.8a3.8,3.8,0,0,1,3.9-4.7h64.8a6,6,0,0,1,5.6,4.7l8.1,44.8A3.9,3.9,0,0,1,210.9,226.8Z"/><path class="t" d="M208,226.8H143.2a6,6,0,0,1-5.6-4.7l-8-44.8a3.8,3.8,0,0,1,3.8-4.7h64.8a5.9,5.9,0,0,1,5.6,4.7l8.1,44.8A3.8,3.8,0,0,1,208,226.8Z"/><path class="t" d="M238.1,232.8H143.3a3,3,0,0,1-3-3h0a3.1,3.1,0,0,1,3-3h94.8a3,3,0,0,1,3,3h0A2.9,2.9,0,0,1,238.1,232.8Z"/><path class="n" d="M238.1,232.8H213.8a3,3,0,0,1-3-3h0a3.1,3.1,0,0,1,3-3h24.3a3,3,0,0,1,3,3h0A2.9,2.9,0,0,1,238.1,232.8Z"/><path class="u" d="M80.8,276.6s9.9-20.7,7.5-34.4-14.5-10.6-11.1-26.9.3-26-9.4-27.7-9.9-9.8-16.6-20.8-28.4-7.2-24,13.8c5.9,27.8,19.7,19.7,24,30.7s-4.2,23.6,2.5,35.3S72.7,252.7,80.8,276.6Z"/><path class="n" d="M81.2,296.7H79.8c.1-.2,2-16.3-1.8-39-3.5-20.8-12.7-51.7-36.6-80l1-.9c24.2,28.6,33.4,59.7,36.9,80.8C83.1,280.3,81.2,296.6,81.2,296.7Z"/><path class="v" d="M88.8,279.7s-8.3-17.4-6.3-28.9,12.2-9,9.4-22.8-.3-21.9,7.9-23.3,8.4-8.2,14-17.6,24-6,20.2,11.7c-4.9,23.4-16.5,16.6-20.2,25.8s3.5,20-2.1,29.8S95.7,259.6,88.8,279.7Z"/><path class="n" d="M88.5,296.7c0-.1-1.6-13.9,1.6-33.1a141,141,0,0,1,31.2-68.1l.8.8a139.6,139.6,0,0,0-30.9,67.4c-3.2,19.1-1.6,32.7-1.5,32.9Z"/><polygon class="w" points="112.7 366.4 56.2 366.4 44.7 287.9 124.2 287.9 112.7 366.4"/><polygon class="x" points="48.1 287.9 59.6 366.4 67.2 366.4 55.7 287.9 48.1 287.9"/><polygon class="y" points="124.2 287.9 112.7 366.4 97.4 366.4 109 287.9 124.2 287.9"/><polygon class="y" points="122.2 302 122.9 297.2 46.1 297.2 46.8 302 122.2 302"/><rect class="z" x="60" y="366.4" width="49" height="5.11"/><rect class="y" x="60" y="366.4" width="49" height="2.55"/><rect class="aa" x="41.2" y="285.9" width="86.6" height="11.33"/><rect class="y" x="111.7" y="285.9" width="16.1" height="11.33"/><rect class="x" x="43.2" y="285.9" width="10.7" height="11.33"/><path class="o" d="M188.4,107.3l-3.5-7.6a34.1,34.1,0,1,0-5.4,8Z"/><path class="ab" d="M356.3,34.6,324.5,23.1,293,34.4c-4.1,1.9-7.6,3-7.6,6.8V59.9A70.3,70.3,0,0,0,295.8,97a64.8,64.8,0,0,0,29,25.6c12.9-4.2,22.5-15.3,28.4-24.9a70.3,70.3,0,0,0,10.4-37.1V43.8C363.6,38.5,360.7,35.8,356.3,34.6Z"/><g class="ac"><path d="M324.8,111.8a52.4,52.4,0,0,1-23-20.4A56.3,56.3,0,0,1,293.6,62V48.9c0-3,1.8-5.8,5.4-7.4l25.5-9.6V23.1L293,34.4c-3.4,1.4-7.6,3-7.6,6.8V59.9A70.3,70.3,0,0,0,295.8,97a64.8,64.8,0,0,0,29,25.6Z"/></g><g class="ad"><path d="M324.8,122.6a31.4,31.4,0,0,0,6.2-2.7,54.9,54.9,0,0,0,13.3-10.4,75.6,75.6,0,0,0,9.2-12.3,68.1,68.1,0,0,0,10.1-37.5V44.2c0-7.6-4-8.2-7.3-9.6L324.5,23.1v8.8l25.8,9.7c3.5,1.7,5.3,4.5,5.3,7.4V62.1a56,56,0,0,1-8.2,29.4,49.9,49.9,0,0,1-22.6,20.3Z"/></g><path class="ae" d="M332.9,61.1V58.6a8.3,8.3,0,0,0-16.6,0v2.6a4.6,4.6,0,0,0-4,4.5V80.6a4.7,4.7,0,0,0,4.7,4.6h15.4a4.6,4.6,0,0,0,4.6-4.6V65.7A4.6,4.6,0,0,0,332.9,61.1Zm-6,15.8h-4l.6-2.9a2.6,2.6,0,0,1-1.2-2.1,2.5,2.5,0,1,1,3.9,2C326.4,75.1,326.9,76.9,326.9,76.9Zm4.2-15.8H318.2V58.6a6.5,6.5,0,0,1,13,0Z"/><path class="af" d="M298,52l.3-3.5a8.2,8.2,0,0,1,.7-2.8,3.7,3.7,0,0,1,1.4-1.4c.4-.2.7-.2.7-.1a2.8,2.8,0,0,0-1.8,1.7,9.3,9.3,0,0,0-.5,2.7c-.1,1-.2,2.2-.2,3.4a61.1,61.1,0,0,0,.1,6.3,12.9,12.9,0,0,1,.1,2.6,7,7,0,0,1-.5-2.5"/><path class="af" d="M299.2,69.1a5.4,5.4,0,0,1-.3-1.7c0-1,.1-1.8.3-1.8a3.4,3.4,0,0,1,.3,1.7C299.5,68.3,299.4,69.1,299.2,69.1Z"/><text class="ag" transform="translate(134.2 90.4)">FREE</text></g></svg>