<svg xmlns="http://www.w3.org/2000/svg" xmlns:xlink="http://www.w3.org/1999/xlink" viewBox="0 0 400 400"><defs><style>.a{fill:url(#a);}.b{fill:#e1e1e1;}.c{fill:url(#b);}.d{fill:url(#c);}.e{fill:url(#d);}.f{fill:url(#e);}.g{fill:url(#f);}.h{fill:url(#g);}.i{fill:url(#h);}.j{fill:url(#i);}.k{fill:#e8505b;}.l{fill:url(#j);}.m{fill:url(#k);}.n{fill:url(#l);}.o{fill:url(#m);}.p{fill:url(#n);}.q{fill:#1a2e35;}.r{fill:#fafafa;}.s{fill:#37b5e8;stroke:#00aeef;stroke-miterlimit:10;opacity:0.2;}.t{fill:#0e71bb;}.u{fill:#ffe7cb;}.v{fill:#f0d2b9;}.w{fill:#1f364c;}.x{fill:#21e2e2;}.y{fill:#f59b6b;}.z{fill:#f5f5f5;}.aa{fill:#ececec;}.ab{fill:#375a64;}.ac{opacity:0.3;}.ad{fill:#288ed9;}.ae{fill:#152735;}.af{fill:red;}.ag{fill:#ffcf00;}.ah{fill:#00c1bc;}.ai{fill:#4987ce;}</style><linearGradient id="a" x1="-849.64" y1="409.37" x2="-849.64" y2="409.98" gradientTransform="matrix(740.56, 0, 0, -612.51, 629397.75, 251139.08)" gradientUnits="userSpaceOnUse"><stop offset="0" stop-color="#c6e6ff"/><stop offset="1" stop-color="#fff"/></linearGradient><linearGradient id="b" x1="23.27" y1="241.95" x2="27.69" y2="241.95" gradientUnits="userSpaceOnUse"><stop offset="0" stop-color="#419ee3"/><stop offset="1" stop-color="#0d79c9"/></linearGradient><linearGradient id="c" x1="28.14" y1="268.88" x2="38.93" y2="268.88" xlink:href="#b"/><linearGradient id="d" x1="25.83" y1="295.35" x2="32.35" y2="295.35" xlink:href="#b"/><linearGradient id="e" x1="32.09" y1="323.32" x2="39.13" y2="323.32" xlink:href="#b"/><linearGradient id="f" x1="9.24" y1="233.95" x2="19.39" y2="233.95" xlink:href="#b"/><linearGradient id="g" x1="19.1" y1="257.27" x2="30.07" y2="257.27" xlink:href="#b"/><linearGradient id="h" x1="19.56" y1="281.26" x2="24.19" y2="281.26" xlink:href="#b"/><linearGradient id="i" x1="20.4" y1="313.06" x2="31.15" y2="313.06" xlink:href="#b"/><linearGradient id="j" x1="43.1" y1="292.72" x2="46.97" y2="292.72" gradientUnits="userSpaceOnUse"><stop offset="0" stop-color="#44989f"/><stop offset="0.21" stop-color="#39b0b4"/><stop offset="0.52" stop-color="#2ccbcd"/><stop offset="0.8" stop-color="#24dcdd"/><stop offset="1" stop-color="#21e2e2"/></linearGradient><linearGradient id="k" x1="28.66" y1="317.79" x2="33" y2="317.79" xlink:href="#j"/><linearGradient id="l" x1="50.84" y1="280.99" x2="59.17" y2="280.99" xlink:href="#j"/><linearGradient id="m" x1="35.72" y1="310.56" x2="49.81" y2="310.56" xlink:href="#j"/><linearGradient id="n" x1="21.9" y1="347.07" x2="42.07" y2="347.07" gradientUnits="userSpaceOnUse"><stop offset="0" stop-color="#ffbc98"/><stop offset="0.45" stop-color="#ffbb96"/><stop offset="0.67" stop-color="#ffb68e"/><stop offset="0.84" stop-color="#ffad81"/><stop offset="0.98" stop-color="#ffa16f"/><stop offset="1" stop-color="#ff9f6c"/></linearGradient></defs><title>germany-windows-dedicated-server</title><path class="a" d="M186.1,78c58.2,37.1,124.7,53.8,124.7,53.8s73.4,11.1,46.4,94.6-30.5,113.4-72.8,115.5c-40,1.2-62.6-15.4-102.2-12.5-34.9,2.7-58.9,18.4-117.1-4.6C-28.2,283.6-21.2-52.8,186.1,78Z"/><path class="b" d="M29.6,339.6a.8.8,0,0,1,.1-.3,5.9,5.9,0,0,0,.4-.8,18.3,18.3,0,0,0,1.2-3.4,30.2,30.2,0,0,0-.1-13.1,78.9,78.9,0,0,0-2.4-8.8c-1.1-3.1-2.3-6.4-3.2-10A35.6,35.6,0,0,1,24,291.7a40.6,40.6,0,0,1,2.7-12.1c1.3-4.1,2.7-8,3.1-12a18.9,18.9,0,0,0-2.2-11.1c-1.8-3.2-4-6-5.6-8.8a29.6,29.6,0,0,1-3.4-8.5,30.9,30.9,0,0,1-.2-13.2,20,20,0,0,1,1.4-4.7.4.4,0,0,0-.1.3l-.3.9c-.2.8-.6,2-.9,3.5a32.9,32.9,0,0,0,.4,13.1,28,28,0,0,0,3.4,8.4c1.6,2.8,3.8,5.6,5.6,8.8a19,19,0,0,1,2.3,11.3c-.4,4.1-1.8,8.1-3.1,12.1a44,44,0,0,0-2.7,12.1,41.1,41.1,0,0,0,1.5,11.3c1,3.6,2.2,6.9,3.2,10a74.7,74.7,0,0,1,2.4,8.9,28.2,28.2,0,0,1-.1,13.1,14.1,14.1,0,0,1-1.2,3.4l-.4.9Z"/><path class="c" d="M24.2,250.5s-3.3-10.7,2.7-17c.2-.2.5-.1.6.2C27.8,235.5,28.2,240.9,24.2,250.5Z"/><path class="b" d="M26.2,237.1c.1,0,0,.7-.2,2s-.5,2.9-.8,4.7-.5,3.3-.7,4.7a8.2,8.2,0,0,1-.4,2s0-.8.1-2,.3-2.9.6-4.8.6-3.5.9-4.7Z"/><path class="d" d="M28.1,275.8s2.1-11.1,10.3-13.8a.4.4,0,0,1,.5.5C38.4,264.2,36.2,269.1,28.1,275.8Z"/><path class="b" d="M36.2,264.9l-1.1,1.6-2.9,3.8-2.9,3.8-1.2,1.6c-.1,0,.3-.7,1-1.7a40.5,40.5,0,0,1,2.7-3.9c1.2-1.5,2.2-2.9,3-3.8S36.1,264.8,36.2,264.9Z"/><path class="e" d="M25.9,303.5s-1.2-11.2,5.9-16.2c.2-.2.6,0,.6.3S31.7,294.8,25.9,303.5Z"/><path class="b" d="M30.4,290.7c.1,0-.1.7-.6,1.9s-1,2.8-1.6,4.5-1.2,3.2-1.6,4.5a12.8,12.8,0,0,1-.8,1.8,12.2,12.2,0,0,1,.5-1.9,39.7,39.7,0,0,1,1.5-4.6c.6-1.7,1.3-3.3,1.8-4.4Z"/><path class="f" d="M32.1,331.3s-.8-11.2,6.5-15.9c.2-.2.5,0,.5.3C39,317.5,38.2,322.8,32.1,331.3Z"/><path class="b" d="M37.1,318.7a7,7,0,0,1-.7,1.9c-.5,1.3-1.1,2.8-1.8,4.4a39.6,39.6,0,0,1-1.8,4.4,6.1,6.1,0,0,1-.8,1.9s.2-.8.6-2a42.3,42.3,0,0,1,1.6-4.4c.8-1.8,1.4-3.3,2-4.4S37.1,318.7,37.1,318.7Z"/><path class="g" d="M19.4,241.1s-10-5.2-10.2-13.9c0-.3.4-.5.6-.3S15.4,231.4,19.4,241.1Z"/><path class="b" d="M11.3,230.2a10.8,10.8,0,0,1,1.2,1.5l2.9,3.9c1,1.5,2,2.8,2.8,3.9l1.1,1.6-1.4-1.4L15,235.9l-2.7-4A10.6,10.6,0,0,1,11.3,230.2Z"/><path class="h" d="M30.1,264.1s-10.3-4.6-11-13.2c0-.3.3-.6.6-.4S25.5,254.7,30.1,264.1Z"/><path class="b" d="M21.3,253.7a6.7,6.7,0,0,1,1.4,1.5l3,3.7,3.1,3.7,1.2,1.5c0,.1-.6-.4-1.5-1.3l-3.1-3.6-3-3.8Z"/><path class="i" d="M24.2,289.8S17.1,281,20.4,273a.4.4,0,0,1,.7-.1C22,274.5,24.4,279.3,24.2,289.8Z"/><path class="b" d="M21.1,276.5a7.7,7.7,0,0,1,.6,2l1,4.6c.4,1.8.7,3.4,1,4.7a18.7,18.7,0,0,1,.4,2,8.2,8.2,0,0,1-.7-1.9c-.3-1.2-.7-2.8-1.1-4.7s-.7-3.5-.9-4.7S21.1,276.6,21.1,276.5Z"/><path class="j" d="M31.1,320S21,315.2,20.4,306.6c0-.4.3-.6.6-.4S26.7,310.5,31.1,320Z"/><path class="b" d="M22.6,309.4l1.3,1.5,3,3.8c1.1,1.4,2.1,2.7,3,3.7l1.2,1.6c-.1.1-.6-.5-1.5-1.4L26.5,315l-2.8-3.9C23,310.1,22.5,309.5,22.6,309.4Z"/><path class="b" d="M51.4,275.8v1c0,.7-.1,1.6-.1,2.7s-.3,5.8-.6,9.7h0a37.1,37.1,0,0,1-5.5,12.9l-6,8.9a60.7,60.7,0,0,0-4.6,7.4,38,38,0,0,0-2.1,5.5,12.3,12.3,0,0,1-.4,1.6,1.2,1.2,0,0,1-.1.5,2.8,2.8,0,0,1,.1-.6,6.4,6.4,0,0,1,.3-1.5,25.7,25.7,0,0,1,2-5.6,51.6,51.6,0,0,1,4.4-7.5c1.9-2.8,4-5.7,6-8.9a39.1,39.1,0,0,0,5.6-12.8h0c.3-4,.5-7.3.7-9.7s.1-2,.2-2.7a1.5,1.5,0,0,1,.1-.7Z"/><path class="k" d="M45.4,301.4s4.3-10.4-1.2-17.2c-.2-.2-.5-.2-.6.1C43.1,286.1,42.2,291.4,45.4,301.4Z"/><path class="l" d="M45.4,301.4s4.3-10.4-1.2-17.2c-.2-.2-.5-.2-.6.1C43.1,286.1,42.2,291.4,45.4,301.4Z"/><path class="b" d="M44.6,287.8a13.8,13.8,0,0,1,.3,2c.2,1.2.3,2.9.5,4.8s.2,3.5.2,4.8-.1,1.9-.2,1.9a14.9,14.9,0,0,1-.1-1.9c-.1-1.4-.2-3-.4-4.8s-.2-3.4-.3-4.8A5.4,5.4,0,0,1,44.6,287.8Z"/><path class="k" d="M32,326.4s3.5-10.7-2.5-17.1a.3.3,0,0,0-.6.2C28.5,311.3,28.1,316.7,32,326.4Z"/><path class="m" d="M32,326.4s3.5-10.7-2.5-17.1a.3.3,0,0,0-.6.2C28.5,311.3,28.1,316.7,32,326.4Z"/><path class="b" d="M30.1,312.9a5,5,0,0,1,.5,1.9c.3,1.2.6,2.9.9,4.8s.5,3.5.6,4.7.1,2,0,2a5.2,5.2,0,0,1-.3-1.9c-.2-1.4-.5-3-.7-4.8s-.6-3.3-.8-4.7S30.1,312.9,30.1,312.9Z"/><path class="k" d="M50.8,288.7s9.2-6.4,8.3-15.1a.3.3,0,0,0-.6-.2C57.2,274.6,53.5,278.6,50.8,288.7Z"/><path class="n" d="M50.8,288.7s9.2-6.4,8.3-15.1a.3.3,0,0,0-.6-.2C57.2,274.6,53.5,278.6,50.8,288.7Z"/><path class="b" d="M57.4,276.8c.1.1-.2.8-.7,1.9s-1.3,2.6-2.2,4.3-1.7,3.1-2.4,4.1-1.1,1.7-1.2,1.6a15.7,15.7,0,0,1,.9-1.7l2.3-4.2c.9-1.6,1.7-3,2.3-4.3Z"/><path class="k" d="M35.7,315.8s11.1-1.8,14.1-9.9a.4.4,0,0,0-.5-.5C47.6,305.9,42.6,307.9,35.7,315.8Z"/><path class="o" d="M35.7,315.8s11.1-1.8,14.1-9.9a.4.4,0,0,0-.5-.5C47.6,305.9,42.6,307.9,35.7,315.8Z"/><path class="b" d="M46.9,308a8.1,8.1,0,0,1-1.5,1.3l-3.9,2.9a40.4,40.4,0,0,1-4,2.7l-1.7.9,1.6-1.2,3.9-2.7,3.9-2.8Z"/><polygon class="p" points="25.1 336.2 21.9 358 42.1 358 39.5 336.2 25.1 336.2"/><path class="q" d="M377.3,357.6c0,.1-88.1.2-196.9.2s-197-.1-197-.2,88.2-.2,197-.2S377.3,357.5,377.3,357.6Z"/><rect class="r" x="42.6" y="61.8" width="215.7" height="141.48"/><path class="q" d="M258.3,203.3c0-1.4-.1-55.2-.2-141.5l.2.2H42.6l.2-.2V203.3l-.2-.2,215.7.2-215.7.2h-.2V61.6H258.5C258.4,148.1,258.3,201.9,258.3,203.3Z"/><path class="s" d="M241.2,112.3c0,.1-21.1.2-47,.2s-47-.1-47-.2,21-.2,47-.2S241.2,112.2,241.2,112.3Z"/><path class="s" d="M241.2,105.7c0,.1-21.1.2-47,.2s-47-.1-47-.2,21-.2,47-.2S241.2,105.5,241.2,105.7Z"/><path class="s" d="M241.2,99.3c0,.1-21.1.2-47,.2s-47-.1-47-.2,21-.2,47-.2S241.2,99.2,241.2,99.3Z"/><path class="s" d="M241.2,118.8c0,.2-21.1.3-47,.3s-47-.1-47-.3,21-.2,47-.2S241.2,118.7,241.2,118.8Z"/><path class="s" d="M212.1,125.7c0,.2-14.5.2-32.3.2s-32.3,0-32.3-.2,14.5-.2,32.3-.2S212.1,125.6,212.1,125.7Z"/><path class="s" d="M130.1,85.6c0,.1-12,.2-26.8.2s-26.9-.1-26.9-.2,12-.2,26.9-.2S130.1,85.5,130.1,85.6Z"/><path class="s" d="M98,89.9h0Z"/><rect class="r" x="268.9" y="51.5" width="124" height="141.48"/><path class="q" d="M392.8,193V182.7c0-6.7,0-16.4-.1-28.9V51.7H268.9l.2-.2V193l-.2-.2h-.2V51.3H393v.2c0,42.2,0,77.6-.1,102.5v38.3A4.2,4.2,0,0,0,392.8,193Z"/><path class="s" d="M374.7,155.3c0,.2-21.2.3-47.3.3s-47.4-.1-47.4-.3,21.2-.2,47.4-.2S374.7,155.2,374.7,155.3Z"/><path class="s" d="M374.7,160.5c0,.1-21.2.2-47.3.2s-47.4-.1-47.4-.2,21.2-.2,47.4-.2S374.7,160.3,374.7,160.5Z"/><path class="s" d="M374.7,165.6c0,.1-21.2.2-47.3.2s-47.4-.1-47.4-.2,21.2-.2,47.4-.2S374.7,165.5,374.7,165.6Z"/><path class="s" d="M374.7,170.7c0,.1-21.2.2-47.3.2s-47.4-.1-47.4-.2,21.2-.2,47.4-.2S374.7,170.6,374.7,170.7Z"/><path class="t" d="M337.3,168.7c2.6-4.4,3.4-10.2,4-15.2.3-2.3.9-5.7-.8-7.2s-1.9-4-3.9-5.2a6.2,6.2,0,0,0-6.8,0"/><path class="u" d="M330.1,184.1h0a7,7,0,0,1-7.5-6.7c-.1-3.8-.3-7.7-.3-7.7s-5.7-.5-6.1-6.2-.3-18.9-.3-18.9h0a20.1,20.1,0,0,1,20.1,1.3l-.3,20.1v10.8C335.6,180.4,333.7,183.8,330.1,184.1Z"/><path class="t" d="M321.8,156.5a2.9,2.9,0,0,1,3.9-.8,3.1,3.1,0,0,1,1.1,4.1,4,4,0,0,1-2.8,2.1,2.4,2.4,0,0,0-1.7,2.4c.2,1.4,2.6,2,3.6,3.2s5.4,2.6,7.9,2.9,2.1.3,3.5-1.7a7.8,7.8,0,0,0,1.4-4.6l.3-12.7a22.7,22.7,0,0,0-.3-4.5,5.9,5.9,0,0,0-2.4-3.7c-1.4-.9-3.2-1-4.7-1.5s-3.7-2-5.5-2.9-4.2-1.5-6-.6-2.2,2-3.5,2.7-4.4.8-5.3,3.6a4.8,4.8,0,0,0,0,2.9c1.3,3.6,5.9,5.1,9.2,3.5a7.7,7.7,0,0,0,.1,4c.2.7.3,1.6,1.2,1.6"/><path class="v" d="M322.1,169.7l-1.3-.2a7.4,7.4,0,0,1-2.7-1.5,6.2,6.2,0,0,1-1.9-2.6,3.4,3.4,0,0,1-.3-1.2c.1,0,.2.4.6,1.1a8.8,8.8,0,0,0,1.8,2.4,7.1,7.1,0,0,0,2.6,1.5C321.7,169.5,322.2,169.6,322.1,169.7Z"/><polygon class="u" points="354.4 204.5 342.3 214 347.4 222.3 362 211.6 354.4 204.5"/><path class="u" d="M321.9,172.6s.1-1-2.6-1.1a14,14,0,0,0-2.9-.1,6.7,6.7,0,0,1-1.3-2.5,9.9,9.9,0,0,1,.6-2.5l2.7-.2-.7-1.8h-1.9l-5.4.6-2.1,9.4-14.6,27.2a7.1,7.1,0,0,0,2.8,10.2h0c3.8,1.8,8.8-2.1,10.2-6l8.1-30.2,2.8-2.3,4.1-.7"/><path class="w" d="M287.7,353.6l20.9-114.1h-.1l.2-.5h0c3.3-13.4,8.5-17.7,8.5-17.7l30.4,1.9c2.6,4.7,2.9,15.8,2.9,15.8s-6,112-6,112l-11.4-.4L328.4,246,300.8,354Z"/><path class="x" d="M288.5,354.7v-1.1l10.5.3v3.4h-.7c-2.8.1-14.6.2-16.5-.4S288.5,354.7,288.5,354.7Z"/><path class="y" d="M339.5,175.8a20.2,20.2,0,0,1,8,3.2c9.6,6.2,25.7,19.4,24.3,25.5S358.2,216,358.2,216l-8.2-9.8,5-2.9-12.2-8.1Z"/><path class="y" d="M350.5,234.7H309.9c1.2-9.9,3-27.2,3.5-34,0,0-8.1,8.5-9.3,9.6-4,3.7-7.9,2.6-9.7,1-5-4.5.1-10.3.1-10.3l19.2-22a10.4,10.4,0,0,1,5-3,35.1,35.1,0,0,1,4.1-.7h12.9a29.6,29.6,0,0,1,3.8.4s6.4,2.8,7.5,8.3S350.5,234.7,350.5,234.7Z"/><polygon class="x" points="344.1 351 346.9 357.5 334.2 357.4 333.9 350.6 344.1 351"/><rect class="q" x="137.3" y="260.4" width="48.1" height="2.34"/><polygon class="q" points="129.9 262.8 120.9 229 158.4 229 166.6 262.8 129.9 262.8"/><polygon class="z" points="164.3 260.2 130.8 260.2 123 230.6 156.7 230.6 164.3 260.2"/><path class="aa" d="M123.5,232.7h33.7l-.5-2.2H123Z"/><path class="r" d="M127.2,231.6c0,.2.1.4.3.4a.4.4,0,0,0,0-.8C127.3,231.2,127.2,231.4,127.2,231.6Z"/><path class="r" d="M125.9,231.6a.4.4,0,0,0,.4.4c.2,0,.3-.2.3-.4s-.1-.4-.3-.4A.4.4,0,0,0,125.9,231.6Z"/><path class="r" d="M124.6,231.6a.4.4,0,1,0,.4-.4A.4.4,0,0,0,124.6,231.6Z"/><polygon class="q" points="80.4 262.7 80.4 267.1 83.3 267.1 83.3 356.8 89.2 356.8 89.2 267.1 120.9 267.1 120.9 356.8 126.8 356.8 126.8 267.1 263.9 267.1 263.9 356.8 269.9 356.8 269.9 267.1 272.5 267.1 272.5 262.7 80.4 262.7"/><ellipse class="ab" cx="153.1" cy="296.9" rx="0.2" ry="0.1"/><path class="u" d="M191.1,217.2l-22.3-22.6-.5-2.5c-.1-.4-.1-.9-.2-1.5a6.7,6.7,0,0,1,0-2,8.4,8.4,0,0,1,.7-2.4.7.7,0,0,0-.9-1.1c-.6.2-1.7,2-1.9,4.4s-2.3-.7-3.1-1.9-3.3-4.7-3.9-4.7-1,.8-.2,1.9,3,4.8,2.4,5.2h0a2.8,2.8,0,0,0-3.1,1.5c-.5,1.1-1.2,2.6-.7,3.3a51.4,51.4,0,0,0,3.6,3.8l.7.6S181,227.1,185.2,228c2.6.5,42.9,3.9,42.9,3.9l3-11.1Z"/><path class="u" d="M157.3,194.3l2,2c.3.2.5.5.8.6a.8.8,0,0,0,.9-.2.8.8,0,0,0,.1-.8,1.8,1.8,0,0,0-.5-.7l-2-2.4"/><path class="v" d="M158.6,192.8c.1-.1.5.3,1.1,1l1,1.1a2.2,2.2,0,0,1,.5.8.9.9,0,0,1,0,1.1,1,1,0,0,1-1.1.3,1.7,1.7,0,0,1-.8-.6l-1.1-1.1c-.6-.6-1-1-.9-1.1l1.1.9,1.1,1,.7.5a.9.9,0,0,0,.7-.1.9.9,0,0,0,0-.7,1.8,1.8,0,0,0-.5-.7,14.7,14.7,0,0,0-1-1.3Z"/><path class="u" d="M158.7,192.9l2.1,2,.8.5a.8.8,0,0,0,.9-.1.8.8,0,0,0,.1-.8,3.5,3.5,0,0,0-.5-.8l-2-2.4"/><path class="v" d="M160.1,191.3l1,1,1,1.2.6.7a1.3,1.3,0,0,1,0,1.2.9.9,0,0,1-1.2.2l-.8-.5a5.7,5.7,0,0,0-1.1-1.1l-.9-1.1c.1-.1.5.3,1.1.9l1.2,1a1.8,1.8,0,0,0,.7.5c.2,0,.5,0,.6-.2s.2-.4,0-.7l-.5-.7-.9-1.2Z"/><path class="u" d="M160.3,191.7l2.1,2,.8.6a1,1,0,0,0,.9-.2.8.8,0,0,0,.1-.8,1.8,1.8,0,0,0-.5-.7l-2-2.5"/><path class="v" d="M161.7,190.1c.1,0,.4.4,1,1l1,1.2a1.7,1.7,0,0,1,.6.8,1.1,1.1,0,0,1,0,1.1,1.1,1.1,0,0,1-1.2.3l-.8-.6-1.1-1.1a3.8,3.8,0,0,1-.9-1.1l1.2.9,1.1,1a1.8,1.8,0,0,0,.7.5.5.5,0,0,0,.6-.2c.2-.1.2-.4,0-.7l-.5-.7-.9-1.2Z"/><path class="v" d="M163.6,195.1a2.8,2.8,0,0,1,1.2.1l-.2.2a6.1,6.1,0,0,1-.1-1.4,3.8,3.8,0,0,1,.8-1.7c.3-.4.6-.6.6-.5a9.1,9.1,0,0,0-.9,2.2,6.6,6.6,0,0,0-.1,1.3v.3h-.3Z"/><path class="u" d="M220.2,183.3v30.9l-12.1.6-.5-7.4s-5.8.9-7-3.5c-.8-2.8-.6-24.4-.6-24.4Z"/><path class="t" d="M197.1,182.5c.9,1.9,5.2,5.3,5.2,5.3l1.9,5.1c1.7-1.3,3.9-1.2,4.3,1.7s-2.3,2.6-2.3,2.6a39.2,39.2,0,0,0,4.8,7.2c2.4,2.7,3.8,2.9,6.4,3h2.9s5.9-5,4.8-18-12.9-9.2-15.7-12.5C204.8,171.6,194.1,176.3,197.1,182.5Z"/><path class="x" d="M209.7,349.3l-3.9-5.1,9.4-7.4,5.9,7.3-.6.5c-2.5,2.2-12.8,11-14.9,11.9S209.7,349.3,209.7,349.3Z"/><g class="ac"><polygon points="218.6 341.1 209.1 348.4 208.2 347.3 218.2 340.5 218.6 341.1"/></g><path class="x" d="M166.4,354.4v-6.5h12v9.4h-.8c-3.3.2-16.8.8-19.1.1S166.4,354.4,166.4,354.4Z"/><g class="ac"><polygon points="178.5 353.2 166.4 353.3 166.4 351.8 178.4 351.7 178.5 353.2"/></g><path class="u" d="M196,243.6l-4.8,14.5c-1.3,3.9-4.7,4.6-8.8,4.6H155.6v-6l24.5-3.5,5.8-14.9Z"/><path class="u" d="M152.7,255.4l-2.2-1s-2.3-4.4-2.8-4.2-.7,1.4.3,3.5l-2.9-.8s-6.1,2.8-5.8,3.2a1.4,1.4,0,0,0,2.1.6l3.1-1.5,3.3.9-4.3.6-4,3.6a2.1,2.1,0,0,0,2.5,0l10.3,2.2,3.3.2v-6Z"/><path class="v" d="M142,260.3l.6-.7.7-.6a2.1,2.1,0,0,1,1.2-.3l3.1-.5-3.2.2a2.4,2.4,0,0,0-1.2.3,2.9,2.9,0,0,0-.8.7C142,259.9,141.9,260.2,142,260.3Z"/><path class="v" d="M143.6,260.7a.7.7,0,0,1,.3-.3l1.3-.2a8.3,8.3,0,0,0,1.8-.2,5.8,5.8,0,0,0-1.8-.1l-1.3.3q-.3.2-.3.3A.1.1,0,0,0,143.6,260.7Z"/><path class="ad" d="M198.3,240.4l-2.1,7-13-5.9c.4-1.5,2.6-8,6.7-18.3a17.8,17.8,0,0,1,13.6-10.9,72,72,0,0,1,12.5-1.2c7.3,0,18.1,4.6,19.6,11.8,1.1,5.5,0,15.2,0,26.9l-.9,22.5-37.6,1.3Z"/><g class="ac"><path d="M235.6,244.6c-4.6,1-9.3,0-13.9-.3-2.9-.1-6-.4-8.2,1.3s-2.5,3.7-3,5.9c-2,8.3-2.3,13.9-2.8,22.4l22.6,1.4Z"/></g><path class="ae" d="M177.6,275.3a13.4,13.4,0,0,0-5.5,17.9l32.7,56.1,15.1-9.1-25.4-50.6,18.4-12.1"/><path class="w" d="M217.4,272.5l-44.9,1.6a13.4,13.4,0,0,0-12.9,13.6l1.9,64.1h18.9l-.6-57.3A3.3,3.3,0,0,1,183,291l34.4-.9Z"/><path class="ab" d="M236.8,231.8H223.3a9.9,9.9,0,0,0-9.9,9.9v47.4H186.2a6.9,6.9,0,0,0-6.8,6.8h61.9a5.6,5.6,0,0,0,5.4-5.6V241.7A9.9,9.9,0,0,0,236.8,231.8Z"/><path class="ab" d="M215.6,345.7V296h-4.4v49.7c-2.7,5.3-9,8.9-16.8,11.8h39.4C225.8,354.3,218.6,351.8,215.6,345.7Z"/><path d="M306.4,77.4h46.9a9,9,0,0,1,9,9v6.8a0,0,0,0,1,0,0H297.3a0,0,0,0,1,0,0V86.4A9,9,0,0,1,306.4,77.4Z"/><rect class="af" x="297.3" y="93.2" width="64.9" height="15.79"/><path class="ag" d="M297.3,109h64.9a0,0,0,0,1,0,0v6.8a9,9,0,0,1-9,9H306.4a9,9,0,0,1-9-9V109A0,0,0,0,1,297.3,109Z"/><path class="x" d="M102,116.8c10.8-1.8,20.3-3.2,31.1-4.8.2-.1.4.1.4.4h0l.2,28.2c0,.2-.2.3-.4.3l-32.2.5a.4.4,0,0,1-.4-.4l-.2-21.7v-1.9c0-.2.1-.4.3-.4Z"/><path class="x" d="M74.2,120.8l23-3.2a.4.4,0,0,1,.4.4l.2,23a.4.4,0,0,1-.4.4c-8.2.1-16.2.4-24.2.4-.3,0-.4-.1-.4-.4l-.2-18.9v-1.1a.4.4,0,0,1,.3-.4Z"/><path class="x" d="M73.2,144.3c8-.1,16,.1,24.2-.2a.4.4,0,0,1,.4.4l.2,23.3a.5.5,0,0,1-.5.4l-24.2-3.1a.4.4,0,0,1-.4-.4v-20A.4.4,0,0,1,73.2,144.3Z"/><path class="x" d="M102.2,144.3l31.1-.2c.3,0,.4.1.4.4l.2,27.3v.8c0,.3-.2.5-.4.4-10.7-1.6-21.6-2.9-32.3-4.3-.2,0-.3-.2-.3-.4l-.2-23.6a.4.4,0,0,1,.4-.4Z"/><path class="ah" d="M103.1,141V116.9a.3.3,0,0,1,.1-.2h-1l-1.2.2c-.2,0-.3.2-.3.4v1.9l.2,21.7a.4.4,0,0,0,.4.4h2.4C103.3,141.3,103.1,141.2,103.1,141Z"/><path class="ah" d="M75.2,141.4V120.7h-.9l-1.3.2a.4.4,0,0,0-.3.4v1.1l.2,18.9c0,.3.1.4.4.4h2.3C75.3,141.8,75.2,141.6,75.2,141.4Z"/><path class="ai" d="M97.6,144.2h0Z"/><path class="ah" d="M75.4,165.3l-.2-20.6a.4.4,0,0,1,.4-.4H73.2a.4.4,0,0,0-.4.4v20a.4.4,0,0,0,.4.4l2.1.3Z"/><path class="ah" d="M103.3,168.8l-.2-24.1a.4.4,0,0,1,.4-.4h-2.4a.4.4,0,0,0-.4.4l.2,23.6c0,.2.1.4.3.4l2.2.3Z"/></svg>