<svg xmlns="http://www.w3.org/2000/svg" xmlns:xlink="http://www.w3.org/1999/xlink" viewBox="0 0 400 400"><defs><style>.a{fill:url(#a);}.b{font-size:27.72px;font-family:AdobeArabic-Regular, Adobe Arabic;}.c{fill:url(#b);}.d{fill:url(#c);}.e{fill:url(#d);}.f{fill:#e1e1e1;}.g{fill:url(#e);}.h{fill:url(#f);}.i{fill:url(#g);}.j{fill:url(#h);}.k{fill:#1a2e35;}.l{fill:url(#i);}.m{fill:url(#j);}.n{fill:url(#k);}.o{fill:url(#l);}.p{fill:url(#m);}.q{fill:url(#n);}.r{fill:url(#o);}.s{fill:url(#p);}.t{fill:#e8505b;}.u{fill:url(#q);}.v{fill:url(#r);}.w{fill:url(#s);}.x{fill:url(#t);}.y{fill:url(#u);}.z{fill:#0e72c4;}.aa{fill:#197bdd;}.ab{fill:#0c5591;}.ac{fill:#ececec;}.ad{fill:#fafafa;}.ae{fill:#375a64;}.af{fill:#f5f5f5;}.ag{fill:#ffe7cb;}.ah{fill:#f0d2b9;}.ai{fill:#21e2e2;}.aj{fill:#152735;}.ak{fill:#1f364c;}.al{fill:#288ed9;}.am{fill:#0e71bb;}.an{fill:#00c1bc;}.ao{fill:#4987ce;}</style><linearGradient id="a" x1="216.29" y1="340.63" x2="164.94" y2="49.39" gradientUnits="userSpaceOnUse"><stop offset="0" stop-color="#c6e6ff"/><stop offset="1" stop-color="#fff"/></linearGradient><linearGradient id="b" x1="349.59" y1="265.04" x2="369.66" y2="265.04" gradientUnits="userSpaceOnUse"><stop offset="0" stop-color="#44989f"/><stop offset="0.21" stop-color="#39b0b4"/><stop offset="0.52" stop-color="#2ccbcd"/><stop offset="0.8" stop-color="#24dcdd"/><stop offset="1" stop-color="#21e2e2"/></linearGradient><linearGradient id="c" x1="344.39" y1="233.27" x2="358.9" y2="233.27" xlink:href="#b"/><linearGradient id="d" x1="319.03" y1="239.41" x2="342.97" y2="239.41" xlink:href="#b"/><linearGradient id="e" x1="332.29" y1="302.58" x2="358.96" y2="302.58" gradientUnits="userSpaceOnUse"><stop offset="0" stop-color="#ffbc98"/><stop offset="0.45" stop-color="#ffbb96"/><stop offset="0.67" stop-color="#ffb68e"/><stop offset="0.84" stop-color="#ffad81"/><stop offset="0.98" stop-color="#ffa16f"/><stop offset="1" stop-color="#ff9f6c"/></linearGradient><linearGradient id="f" x1="329.98" y1="289.58" x2="361.82" y2="289.58" xlink:href="#e"/><linearGradient id="g" x1="329.98" y1="312.2" x2="361.29" y2="312.2" xlink:href="#e"/><linearGradient id="h" x1="331.48" y1="314.79" x2="360.15" y2="314.79" xlink:href="#e"/><linearGradient id="i" x1="30.88" y1="231.78" x2="34.11" y2="231.78" gradientUnits="userSpaceOnUse"><stop offset="0" stop-color="#419ee3"/><stop offset="1" stop-color="#0d79c9"/></linearGradient><linearGradient id="j" x1="34.44" y1="251.45" x2="42.32" y2="251.45" xlink:href="#i"/><linearGradient id="k" x1="32.75" y1="270.78" x2="37.52" y2="270.78" xlink:href="#i"/><linearGradient id="l" x1="37.33" y1="291.21" x2="42.47" y2="291.21" xlink:href="#i"/><linearGradient id="m" x1="20.64" y1="225.94" x2="28.05" y2="225.94" xlink:href="#i"/><linearGradient id="n" x1="27.84" y1="242.98" x2="35.85" y2="242.98" xlink:href="#i"/><linearGradient id="o" x1="28.17" y1="260.49" x2="31.55" y2="260.49" xlink:href="#i"/><linearGradient id="p" x1="28.79" y1="283.72" x2="36.64" y2="283.72" xlink:href="#i"/><linearGradient id="q" x1="45.36" y1="268.86" x2="48.19" y2="268.86" xlink:href="#b"/><linearGradient id="r" x1="34.82" y1="287.17" x2="37.99" y2="287.17" xlink:href="#b"/><linearGradient id="s" x1="51.02" y1="260.3" x2="57.1" y2="260.3" xlink:href="#b"/><linearGradient id="t" x1="39.97" y1="281.9" x2="50.26" y2="281.9" xlink:href="#b"/><linearGradient id="u" x1="29.88" y1="308.56" x2="44.61" y2="308.56" xlink:href="#e"/></defs><title>iran-windows-dedicated-server</title><path class="a" d="M40.2,315.6s-54.9-58.5-27.4-121.5c26.2-60.1,69.8,4.3,128.6-91s128.1-73.9,146.7,3.3c21.8,89.9,67.5,56.7,91.8,96.3,27.8,45.1-2.5,96.6-21.6,112.9Z"/><text class="b" transform="translate(158.9 -34.8)">*<tspan x="8.1" y="0">ناریا زودنیو یصاصتخا روس</tspan></text><path class="c" d="M353.3,260.3a17.2,17.2,0,0,1,10.3-1.3c1.8.4,3.8.9,5,2.3s1.5,3.9.1,5.1a5.1,5.1,0,0,1-3.2.8c-2.7-.1-5.7-.5-7.9,1.1s-2,2.5-3.5,2.9a3.5,3.5,0,0,1-3.9-1.7,6.6,6.6,0,0,1-.4-4.4A6.8,6.8,0,0,1,353.3,260.3Z"/><path class="d" d="M346.2,246.5c1.9,2.7,5.6,1.8,7.3.2s2.4-4.1,3.1-6.4c1.5-5.2,3-10.7,1.9-16.1a8.6,8.6,0,0,0-2-4.3,4.9,4.9,0,0,0-4.5-1.5c-1.8.5-3,2.3-3.8,4.1a37.2,37.2,0,0,0-3.8,16.4c0,2.7.3,5.4,1.8,7.6"/><path class="e" d="M341,250.4a10.1,10.1,0,0,0,1.5-9.1,17,17,0,0,0-5.4-7.8,27.9,27.9,0,0,0-9.7-5.7,8.9,8.9,0,0,0-4.3-.7,4.3,4.3,0,0,0-3.6,2.2c-1.1,1.9-.1,4.3,1,6.2a75.5,75.5,0,0,0,6.3,9.6c1.9,2.5,4.1,4.9,7,6s5.9,1,7.4-1"/><path class="f" d="M346.1,287.5a5.5,5.5,0,0,0,.1-1.2c.1-.9.2-2,.4-3.4a33.9,33.9,0,0,1,.7-4.9,42.9,42.9,0,0,1,1.8-5.9,18.7,18.7,0,0,1,3-5.2,11,11,0,0,1,3.8-3.2,15.3,15.3,0,0,1,3.1-1h1.3c0-.1-.5-.1-1.3-.1a11,11,0,0,0-3.3.9,11.5,11.5,0,0,0-4,3.2,23.2,23.2,0,0,0-3.1,5.4,27.8,27.8,0,0,0-1.7,5.9,37.1,37.1,0,0,0-.7,5c-.1,1.4-.1,2.6-.2,3.4S346,287.5,346.1,287.5Z"/><path class="f" d="M346.3,284.9v-2.2c0-1.4,0-3.5.1-6,.1-5.1.6-10.6,1.4-18.3s1.9-15.7,3-21.2c.3-1.2.5-2.3.7-3.3s.4-1.8.6-2.5l.4-1.6a2.8,2.8,0,0,0,.1-.6l-.2.5a14.2,14.2,0,0,1-.5,1.6c-.2.7-.4,1.5-.6,2.5a24.4,24.4,0,0,0-.8,3.4,154,154,0,0,0-3.2,19.6c-.9,7.8-1.2,14.8-1.3,19.9,0,2.5.1,4.6.1,6a10.9,10.9,0,0,1,.1,1.7A1.8,1.8,0,0,1,346.3,284.9Z"/><path class="f" d="M346.3,271.4c.1,0,.1-.6,0-1.7a35.9,35.9,0,0,0-.5-4.7,65.9,65.9,0,0,0-4.3-14.7,44.9,44.9,0,0,0-8.3-13l-2-1.8-.8-.7-.8-.5-1.4-.9a46.5,46.5,0,0,1,4.7,4.2,42.2,42.2,0,0,1,8.1,12.9,50.8,50.8,0,0,1,2.8,7.9,45.4,45.4,0,0,1,1.6,6.7,40.2,40.2,0,0,1,.7,4.6C346.2,270.8,346.3,271.4,346.3,271.4Z"/><polygon class="g" points="332.3 293.3 333.7 311.9 357.6 311.9 359 293.3 332.3 293.3"/><rect class="h" x="330" y="285.9" width="31.8" height="7.35"/><polygon class="i" points="330 311.2 330 313.2 331.5 313.2 361.3 313.2 361.3 311.2 330 311.2"/><polygon class="j" points="332.9 316.6 331.5 313 360.2 313 358.4 316.6 332.9 316.6"/><path class="k" d="M367.8,316.9c0,.1-88.6.1-197.8.1s-197.9,0-197.9-.1,88.6-.2,197.9-.2S367.8,316.8,367.8,316.9Z"/><path class="f" d="M35.5,303.1v-.2a1.6,1.6,0,0,0,.3-.6,12.3,12.3,0,0,0,.8-2.5,21.3,21.3,0,0,0,0-9.5,44.5,44.5,0,0,0-1.8-6.4c-.8-2.3-1.6-4.7-2.3-7.3a29.4,29.4,0,0,1-1.2-8.4,31,31,0,0,1,2-8.9,49.3,49.3,0,0,0,2.2-8.8,13.2,13.2,0,0,0-1.6-8.1c-1.3-2.3-2.9-4.3-4.1-6.4a21.9,21.9,0,0,1-2.4-6.2,24.6,24.6,0,0,1-.2-9.7,23,23,0,0,1,1-3.4v.3a.8.8,0,0,0-.2.6,16.4,16.4,0,0,0-.7,2.5,22.7,22.7,0,0,0,.3,9.6,22.1,22.1,0,0,0,2.4,6.1c1.2,2.1,2.9,4.1,4.2,6.5a13.5,13.5,0,0,1,1.6,8.2,48.2,48.2,0,0,1-2.2,8.9,30.3,30.3,0,0,0-2,8.8,28.2,28.2,0,0,0,1.1,8.3c.7,2.6,1.6,5,2.3,7.3a48.5,48.5,0,0,1,1.8,6.4,22.2,22.2,0,0,1,0,9.7,15.8,15.8,0,0,1-1,2.4,1.6,1.6,0,0,1-.3.6C35.6,303.1,35.5,303.1,35.5,303.1Z"/><path class="l" d="M31.6,238s-2.5-7.8,1.9-12.4c.2-.1.4-.1.5.2S34.5,231,31.6,238Z"/><path class="f" d="M33,228.2c.1,0,0,.6-.1,1.5s-.4,2.1-.6,3.4-.4,2.5-.5,3.5l-.3,1.4v-1.4c.1-.9.3-2.2.5-3.5s.5-2.6.7-3.5A8.1,8.1,0,0,1,33,228.2Z"/><path class="m" d="M34.4,256.5s1.5-8.1,7.6-10.1c.2,0,.4.2.3.4S40.3,251.6,34.4,256.5Z"/><path class="f" d="M40.3,248.5c.1,0-.3.5-.8,1.2l-2.1,2.8-2.1,2.8c-.5.7-.9,1.2-.9,1.1a6.4,6.4,0,0,1,.7-1.2l2-2.9,2.2-2.7Z"/><path class="n" d="M32.8,276.7s-.9-8.1,4.3-11.8c.2-.1.4,0,.4.2S37,270.4,32.8,276.7Z"/><path class="f" d="M36.1,267.4c.1,0-.1.5-.4,1.4s-.8,2-1.2,3.2l-1.2,3.3-.5,1.4c-.1,0,0-.6.3-1.4a26,26,0,0,1,1.1-3.4c.5-1.2.9-2.4,1.3-3.2A8.7,8.7,0,0,1,36.1,267.4Z"/><path class="o" d="M37.3,297.1s-.6-8.2,4.7-11.7c.2-.1.5,0,.5.2S41.8,290.9,37.3,297.1Z"/><path class="f" d="M41,287.8l-.5,1.4-1.3,3.2c-.5,1.3-1,2.4-1.3,3.3l-.6,1.3a13.1,13.1,0,0,1,.4-1.4c.2-.8.7-2,1.2-3.3s1-2.4,1.4-3.2Z"/><path class="p" d="M28,231.2s-7.2-3.8-7.4-10.2c0-.2.3-.3.5-.2S25.1,224.1,28,231.2Z"/><path class="f" d="M22.1,223.2c.1,0,.4.4,1,1.1l2,2.9,2.1,2.8.8,1.2-1-1.1a18.4,18.4,0,0,1-2.1-2.8l-2-2.8Z"/><path class="q" d="M35.9,248s-7.5-3.4-8.1-9.7c0-.2.3-.4.4-.3S32.5,241.1,35.9,248Z"/><path class="f" d="M29.5,240.4l1,1.1,2.2,2.7,2.2,2.7a6.4,6.4,0,0,1,.9,1.1l-1.1-1-2.3-2.6-2.1-2.8C29.7,240.9,29.4,240.4,29.5,240.4Z"/><path class="r" d="M31.5,266.7s-5.1-6.4-2.7-12.2c.1-.3.4-.3.5-.1S31.7,259.1,31.5,266.7Z"/><path class="f" d="M29.3,257.1c.1-.1.2.5.4,1.4l.7,3.4c.3,1.2.6,2.4.8,3.4l.3,1.4c-.1,0-.3-.5-.5-1.4a26.5,26.5,0,0,1-.9-3.4c-.2-1.3-.5-2.5-.6-3.4A7.2,7.2,0,0,1,29.3,257.1Z"/><path class="s" d="M36.6,288.8s-7.4-3.5-7.8-9.8c0-.3.2-.4.4-.3S33.4,281.9,36.6,288.8Z"/><path class="f" d="M30.4,281.1l.9,1.1,2.2,2.7,2.2,2.7a9.9,9.9,0,0,1,.9,1.2c-.1,0-.5-.3-1.1-1s-1.4-1.6-2.2-2.7l-2.1-2.8Z"/><path class="f" d="M51.4,256.5v.7a15.6,15.6,0,0,1-.1,2l-.3,7.1h-.1a27.3,27.3,0,0,1-4,9.5l-4.4,6.5a43.8,43.8,0,0,0-3.3,5.4,25.2,25.2,0,0,0-1.6,4,7.4,7.4,0,0,0-.2,1.2v.3c-.1,0,0-.1,0-.4a8.9,8.9,0,0,1,.2-1.1,27.2,27.2,0,0,1,1.5-4.1,58.2,58.2,0,0,1,3.2-5.5c1.4-2,2.9-4.1,4.4-6.5a28.8,28.8,0,0,0,4.1-9.3h0c.2-2.9.4-5.3.5-7.1a15.6,15.6,0,0,0,.1-2v-.7Z"/><path class="t" d="M47,275.2s3.2-7.6-.8-12.6a.3.3,0,0,0-.5.1C45.4,264,44.7,267.9,47,275.2Z"/><path class="u" d="M47,275.2s3.2-7.6-.8-12.6a.3.3,0,0,0-.5.1C45.4,264,44.7,267.9,47,275.2Z"/><path class="f" d="M46.4,265.3c.1,0,.2.5.3,1.4s.2,2.1.3,3.5.2,2.6.2,3.5a10.1,10.1,0,0,1-.1,1.5c-.1,0-.1-.6-.2-1.5s-.1-2.2-.2-3.5-.2-2.5-.2-3.5S46.4,265.3,46.4,265.3Z"/><path class="t" d="M37.3,293.4s2.5-7.8-1.9-12.4a.2.2,0,0,0-.4.1C34.7,282.4,34.4,286.4,37.3,293.4Z"/><path class="v" d="M37.3,293.4s2.5-7.8-1.9-12.4a.2.2,0,0,0-.4.1C34.7,282.4,34.4,286.4,37.3,293.4Z"/><path class="f" d="M35.9,283.6a10,10,0,0,1,.4,1.4c.1.9.4,2.1.6,3.5s.3,2.6.4,3.5.1,1.4,0,1.4-.1-.5-.2-1.4-.3-2.2-.5-3.5-.4-2.4-.6-3.4S35.8,283.6,35.9,283.6Z"/><path class="t" d="M51,265.9s6.7-4.7,6.1-11a.4.4,0,0,0-.5-.2C55.6,255.6,53,258.6,51,265.9Z"/><path class="w" d="M51,265.9s6.7-4.7,6.1-11a.4.4,0,0,0-.5-.2C55.6,255.6,53,258.6,51,265.9Z"/><path class="f" d="M55.8,257.3c.1,0-.1.5-.5,1.3l-1.6,3.1-1.8,3.1c-.4.7-.8,1.2-.8,1.1s.2-.5.6-1.2l1.7-3.1c.6-1.2,1.2-2.2,1.7-3.1A8.6,8.6,0,0,1,55.8,257.3Z"/><path class="t" d="M40,285.7s8.1-1.3,10.2-7.2c.1-.2-.1-.5-.3-.4S45,279.9,40,285.7Z"/><path class="x" d="M40,285.7s8.1-1.3,10.2-7.2c.1-.2-.1-.5-.3-.4S45,279.9,40,285.7Z"/><path class="f" d="M48.1,280c0,.1-.4.4-1.1,1l-2.8,2.1-2.9,2c-.8.4-1.3.7-1.3.6l1.2-.8,2.8-2,2.9-2.1Z"/><polygon class="y" points="32.2 300.6 29.9 316.5 44.6 316.5 42.7 300.6 32.2 300.6"/><rect class="z" x="183.3" y="156.5" width="70.5" height="46.64" rx="0.8"/><path class="aa" d="M180.3,199.7h76.4a0,0,0,0,1,0,0v.5a3.6,3.6,0,0,1-3.6,3.6H183.9a3.6,3.6,0,0,1-3.6-3.6v-.5a0,0,0,0,1,0,0Z"/><polygon class="ab" points="211.6 199.7 212.5 201.2 225.9 201.2 226.8 199.7 211.6 199.7"/><rect class="ac" x="186.5" y="159.7" width="63.9" height="37.93" rx="1.8"/><rect class="ad" x="186.5" y="162.5" width="63.9" height="35.15"/><path class="ae" d="M253.2,199.7c0,.1-15.7.1-35,.1s-34.9,0-34.9-.1h69.9Z"/><path class="aa" d="M178.9,138.3H104.5a2.3,2.3,0,0,0-2.3,2.3v52.6a2.3,2.3,0,0,0,2.3,2.3H133a7,7,0,0,1-3.8,8.5h26.7s-6.3-2.2-4.7-8.5h27.7a2.3,2.3,0,0,0,2.3-2.3V140.6A2.3,2.3,0,0,0,178.9,138.3Z"/><path class="k" d="M142.7,190a1.4,1.4,0,0,1-2,2l-.2-.2a1.4,1.4,0,0,1,2-2Z"/><rect class="ac" x="105.4" y="141.5" width="72" height="42.73"/><rect class="ad" x="105.4" y="144.7" width="72" height="41.2"/><path class="af" d="M111.3,143.2a.6.6,0,1,1-.6-.6A.6.6,0,0,1,111.3,143.2Z"/><path class="af" d="M107.8,143.2a.6.6,0,0,1-.6.6.6.6,0,0,1,0-1.2A.6.6,0,0,1,107.8,143.2Z"/><path class="af" d="M109.5,143.2a.6.6,0,1,1-.6-.6A.6.6,0,0,1,109.5,143.2Z"/><rect class="aa" x="73.6" y="166.2" width="26.4" height="37.89" rx="1.8"/><rect class="ad" x="74.4" y="168.8" width="24.7" height="31.65"/><path class="k" d="M87.5,201.4c.8,1.1-.4,2.4-1.5,1.5A1.1,1.1,0,0,1,87.5,201.4Z"/><rect class="k" x="82.8" y="167.3" width="8" height="0.42" rx="0.2"/><rect class="ae" x="252" y="210.4" width="6.5" height="106.39"/><rect class="ae" x="69.6" y="210.4" width="6.5" height="106.39"/><rect class="ae" x="42.3" y="203.8" width="252.4" height="6.53"/><rect class="ae" x="179.2" y="210.4" width="72.8" height="18.25"/><path class="k" d="M266,210.8H154.1l-111.8-.4H154.1Z"/><path class="k" d="M183.7,228.6c-.1,0-.2-4-.2-9s.1-9.1.2-9.1.1,4.1.1,9.1S183.8,228.6,183.7,228.6Z"/><path class="k" d="M247,225.2H215.2c-17.5-.1-31.7-.3-31.7-.4s14.2-.1,31.7,0S247,225.1,247,225.2Z"/><path class="k" d="M247,228.6c-.1,0-.2-3.8-.2-8.5s.1-8.6.2-8.6.1,3.9.1,8.6S247.1,228.6,247,228.6Z"/><path class="k" d="M252.3,245.5c-.1,0-.1-7.7-.1-17.2s0-17.3.1-17.3.2,7.7.2,17.3S252.4,245.5,252.3,245.5Z"/><path class="k" d="M218.5,215.9a2.3,2.3,0,0,1-2.3,2.4,2.4,2.4,0,1,1,0-4.8A2.3,2.3,0,0,1,218.5,215.9Z"/><path class="ag" d="M302.5,159.7l.9,6.7,10.2-8.7,5.6,1.3s-5.8,12.2-10.3,17-7.1,5.5-8.8,5.5-3.4-2.7-3.4-2.7L295.6,162Z"/><path class="ah" d="M303.3,166.2a9,9,0,0,0-.7,1.7,3.2,3.2,0,0,0-.2,1.8l.4-1.7A6.9,6.9,0,0,0,303.3,166.2Z"/><path class="ae" d="M314.6,140.6h7.7a2,2,0,0,1,1.8,2.5l-7.8,15.1a1.8,1.8,0,0,1-1.5,1h-9.4a1.4,1.4,0,0,1-1.1-2l7.5-14.8A3.3,3.3,0,0,1,314.6,140.6Z"/><path class="k" d="M315.1,141.5h7.7a1.3,1.3,0,0,1,1.2,1.9l-7.6,14.8a1.8,1.8,0,0,1-1.5,1h-9.4a.7.7,0,0,1-.6-1.1l7.5-14.8A2.9,2.9,0,0,1,315.1,141.5Z"/><path class="ag" d="M315.8,147.7l4.7,1.9,1,3.8-2.3,5.6-8.3,1.2,2.4-2.5-.3-2.1s-2.3-.7-2.3-1.1.2-1.5.6-1.6a13.6,13.6,0,0,1,2.8.8s-2.9-2.2-2.8-2.6.4-1.3,1-1.4,5.2,2.1,5.2,2.1l.7,1.7.7-2.7S314.8,149.6,315.8,147.7Z"/><path class="ah" d="M315.2,156.6a1.2,1.2,0,0,0,.1-.5,1.7,1.7,0,0,0-.1-1.2,2.2,2.2,0,0,0-.7-.9l-.4-.3a4.8,4.8,0,0,1,.9,1.3A8.2,8.2,0,0,1,315.2,156.6Z"/><path class="ah" d="M317.4,155.8l-.2-1.2a3.6,3.6,0,0,0-.2-1.4,1.6,1.6,0,0,0-.4-.7,1.4,1.4,0,0,0-.8-.5l-2.9-1-1.2-.3,1.2.5,2.8,1,.7.4a1.6,1.6,0,0,1,.4.7,6.1,6.1,0,0,1,.3,1.3A4,4,0,0,0,317.4,155.8Z"/><path class="ah" d="M318.5,154.9c.1,0,0-.4,0-.9s-.2-.9-.3-.9-.1.4,0,.9S318.4,154.9,318.5,154.9Z"/><path class="ad" d="M318.6,144.4a1,1,0,0,1-1,1,1,1,0,0,1-.9-1,.9.9,0,0,1,.9-1A.9.9,0,0,1,318.6,144.4Z"/><path class="ai" d="M318.6,313.2l-1.8-6.3-12,.6,1.8,9.3h.8c3.3,0,16.9-.2,19.1-1S318.6,313.2,318.6,313.2Z"/><path class="ai" d="M314.5,296.5l3.1-5.7L307.1,285l-4.6,8.2.6.4c2.9,1.8,14.5,8.8,16.7,9.3S314.5,296.5,314.5,296.5Z"/><path class="aj" d="M296.4,183.4l33,45.8a24.4,24.4,0,0,1,3,23.2l-15.6,40.8-14.7-7.6,12.3-38.4a2,2,0,0,0-.6-2.3l-23.9-21.6-3.8-39.9Z"/><path class="ak" d="M303.4,313.3l15.9-2.2-14.5-64.7-10-63H266L264.5,202c0,5.8.8,11.9,3.2,16.6l13.1,26.1C280.7,246.4,303.4,313.3,303.4,313.3Z"/><path class="al" d="M294.2,137a12.2,12.2,0,0,1,7.6,8.4,64.6,64.6,0,0,1,2.4,14.5l-6.8,1.5Z"/><path class="al" d="M304.2,193.7l-39.7,5.4,1.7-39.1-1.8,5-12.8-8.4,2.6-6.3a31,31,0,0,1,4.4-8,17.3,17.3,0,0,1,9.6-5.7c2.7-.6,5.3-.9,5.3-.9h11.7a73.3,73.3,0,0,1,9,1.2Z"/><path class="am" d="M289.4,100.1a4.6,4.6,0,0,1,5.7-.5,6.9,6.9,0,0,1,3.1,5.1c.2,1.3-.2,3.1.4,4.2a33.5,33.5,0,0,1,1.9,3c.6,1.6.7,5.3-1.4,6.5s-18.1,11.8-21,9"/><path class="ag" d="M288.8,137.1v-7.3s5.2-.8,6.3-7.6c.5-3.3.3-8.9.1-13.4s-3-9.1-8.4-9.1c0,0-11.8-.9-12.3,8.1l-.3,29.3a7.3,7.3,0,0,0,7.4,7.3h0A7.2,7.2,0,0,0,288.8,137.1Z"/><path class="ah" d="M288.8,129.8a17.5,17.5,0,0,1-9.1-2.4s2.2,4.7,9,4Z"/><path class="am" d="M279.3,120.2a19.1,19.1,0,0,1,0,2.4c0,2.1-1.6-1.4-3.5-.4s-5,1.5-6.2-4.3c-.4-1.8-2.3-1.7-3-4.2a6.1,6.1,0,0,1,.5-4.9,4,4,0,0,1,1.9-1.6,5.3,5.3,0,0,0,2.4-2.5c.6-1,1-2.1,1.7-3.1a4.2,4.2,0,0,1,2-1.7l1.3-1c2.3-1.3,5-1.2,7.5-1.1s8.2-2.2,8.5,4.4a2,2,0,0,0-3.3.2,4.1,4.1,0,0,0-.5,2.9,4.4,4.4,0,0,1-.3,3.2,3.2,3.2,0,0,1-3,1.3,13.9,13.9,0,0,1-3.3-1s-.8,4.3-3.6,5.3Z"/><path class="ag" d="M292.2,165.9l-4-3.8a4.3,4.3,0,0,0-3.6-.8,4.4,4.4,0,0,0-2.9,1.9l-4.5,6.3-17.2,3s3.5-7.8,3.5-8.1l.4.2-.4-.2h0l-10.7-6.9-4.6,11.4s-4.4,11.7,4.6,15.1,29.5-7.8,29.5-7.8h0l2.6-2,1.3-1a5.1,5.1,0,0,0,1.5-3l.5-4.5,3.5,1.9c.6.2.8-.1.9-.4A1.5,1.5,0,0,0,292.2,165.9Z"/><path class="ah" d="M288.2,166.1a.6.6,0,0,0-.2-.5,2.5,2.5,0,0,0-1.1-.9,1.3,1.3,0,0,0-1.4.3.8.8,0,0,0-.2.5l.3-.4a1.6,1.6,0,0,1,1.2-.2,2.1,2.1,0,0,1,1,.8A1.2,1.2,0,0,1,288.2,166.1Z"/><path class="ah" d="M285.2,167.7c0,.1.2-.1.4-.2a2.4,2.4,0,0,1,1-.3,1.9,1.9,0,0,1,.9.3c.3.1.4.3.4.2l-.3-.3a1.5,1.5,0,0,0-1-.4,1.6,1.6,0,0,0-1.1.4Z"/><path class="ai" d="M142,155.1l10.3-1.6h.1V163h-.1l-10.7.2a.2.2,0,0,1-.2-.2v-7.8c0-.1,0-.1.1-.1Z"/><path class="ai" d="M132.7,156.4l7.7-1c.1-.1.1,0,.1.1v7.6a.2.2,0,0,1-.2.2h-8.1v-6.7h.5Z"/><path class="ai" d="M132.4,164.2h8.1a.1.1,0,0,1,.1.1V172c0,.1,0,.2-.1.1l-8.1-1h-.1v-6.7A.1.1,0,0,1,132.4,164.2Z"/><path class="ai" d="M142,164.2h10.4c.1,0,.1.1.1.2v9.3a.2.2,0,0,1-.2.2c-3.5-.6-7.1-1-10.7-1.5a.1.1,0,0,1-.1-.1v-7.8a.2.2,0,0,1,.2-.2Z"/><path class="an" d="M142.4,163.1v-8h-.7c-.1,0-.1,0-.1.1v7.8a.2.2,0,0,0,.2.2h.7Z"/><path class="an" d="M133.1,163.3v-6.8h-.8v6.7h.8Z"/><path class="ao" d="M140.5,164.2Z"/><path class="an" d="M133.1,171.2v-6.9a.1.1,0,0,1,.1-.1h-.8a.1.1,0,0,0-.1.1V171h.8Z"/><path class="an" d="M142.4,172.4v-8.1a.1.1,0,0,1,.1-.1h-.8a.2.2,0,0,0-.2.2v7.8a.1.1,0,0,0,.1.1Z"/><path class="ai" d="M217.8,171.3l10.3-1.6.2.2h0v9.3c0,.1,0,.2-.1.2H217.4v-7.9h.5Z"/><path class="ai" d="M208.6,172.7l7.6-1.1h.2v7.7h-8.3v-6.6c0-.1,0-.2.1-.2Z"/><path class="ai" d="M208.2,180.5h8.2v7.8h-.2l-8-1c-.1,0-.1-.1-.1-.2v-6.6Z"/><path class="ai" d="M217.9,180.5h10.5v9.4h-.1l-10.8-1.4v-8h.5Z"/><path class="an" d="M218.2,179.4v-8h-.8v7.9h.8Z"/><path class="an" d="M208.9,179.5v-6.8h-.7c-.1,0-.1.1-.1.2v6.6h.8Z"/><path class="ao" d="M216.4,180.4h0Z"/><path class="an" d="M209,187.5v-6.9h-.8v6.6c0,.1,0,.2.1.2Z"/><path class="an" d="M218.3,188.6v-8h-.8v8h.8Z"/><path class="ai" d="M86.4,180.2l4.7-.7h.1v4.4H86.1v-3.7h.3Z"/><path class="ai" d="M82.1,180.8l3.5-.5h.1V184H81.8v-3.1h.3Z"/><path class="ai" d="M81.9,184.5h3.8v3.6h0l-3.8-.4h0v-3.1Z"/><path class="ai" d="M86.4,184.5h4.8v4.2h-.1l-5-.7h0v-3.7h.2Z"/><path class="an" d="M86.5,184v-3.8h-.4V184h.4Z"/><path class="an" d="M82.2,184v-3h-.4V184h.4Z"/><path class="ao" d="M85.7,184.4h0Z"/><path class="an" d="M82.3,187.7v-3.2h-.3v3.1h.4Z"/><path class="an" d="M86.6,188.2v-3.7h-.3v3.7h.4Z"/></svg>