<svg xmlns="http://www.w3.org/2000/svg" xmlns:xlink="http://www.w3.org/1999/xlink" viewBox="0 0 400 400"><defs><style>.a{fill:url(#a);}.b{fill:#137fcf;}.c{fill:#288ed9;}.ab,.ac,.d,.e,.h,.j{fill:none;}.e,.h{stroke:#288ed9;}.ab,.ac,.e{stroke-width:0.34px;}.f{fill:url(#b);}.g{opacity:0.64;fill:url(#c);}.ab,.ac,.g,.n,.s,.t,.u,.w{isolation:isolate;}.h,.j{stroke-linecap:round;stroke-miterlimit:10;stroke-width:1.36px;}.i{fill:#005b9f;}.j{stroke:#014374;}.k{fill:#003c69;}.l{fill:url(#d);}.m,.w{fill:#004b83;}.an,.n{fill:#0e71bb;}.n{opacity:0.19;}.o{fill:#ffbc98;}.p{fill:#d6eeff;}.q{fill:#21e2e2;}.r{fill:#ffb68f;}.s{opacity:0.03;fill:url(#e);}.t{opacity:0.05;fill:url(#f);}.u{opacity:0.1;fill:url(#g);}.v{fill:url(#h);}.w{opacity:0.86;}.x{fill:url(#i);}.y{fill:url(#j);}.z{fill:#fff;}.aa{fill:url(#k);}.ab{stroke:#f7f7f7;}.ab,.ac{opacity:0.23;}.ac{stroke:#fff;}.ad{fill:#f9c7a5;}.ae{fill:#0876ba;}.af{fill:#ffe7cb;}.ag{fill:#152735;}.ah{fill:#1f364c;}.ai{fill:#3b1b1d;}.aj{fill:#722c1d;}.ak{fill:#00233f;}.al{fill:#b8d1ff;}.am{fill:#565656;}</style><linearGradient id="a" x1="889.98" y1="448.35" x2="889.98" y2="449.01" gradientTransform="matrix(740.56, 0, 0, -612.51, -658888.8, 275065.97)" gradientUnits="userSpaceOnUse"><stop offset="0" stop-color="#c6e6ff"/><stop offset="1" stop-color="#fff"/></linearGradient><linearGradient id="b" x1="888.98" y1="452.84" x2="888.98" y2="451.8" gradientTransform="matrix(447, 0, 0, -64, -397176.26, 29271.44)" gradientUnits="userSpaceOnUse"><stop offset="0" stop-color="#288ed9"/><stop offset="1" stop-color="#137fcf" stop-opacity="0.05"/></linearGradient><linearGradient id="c" x1="878.35" y1="462.94" x2="878.35" y2="463.46" gradientTransform="matrix(90.46, 0, 0, -16.56, -79185.6, 8028.06)" gradientUnits="userSpaceOnUse"><stop offset="0" stop-color="#288ed9" stop-opacity="0"/><stop offset="1" stop-color="#005b9f"/></linearGradient><linearGradient id="d" x1="869.24" y1="448.77" x2="869.76" y2="448.77" gradientTransform="matrix(53, 0, 0, -441, -45841.26, 198131.44)" gradientUnits="userSpaceOnUse"><stop offset="0" stop-color="#0563a8"/><stop offset="1" stop-color="#0061aa"/></linearGradient><linearGradient id="e" x1="885.94" y1="449.06" x2="885.94" y2="448.54" gradientTransform="matrix(204.44, 0, 0, -293.33, -180909.19, 131837.07)" gradientUnits="userSpaceOnUse"><stop offset="0" stop-color="#f7f7f7"/><stop offset="1" stop-color="#fff" stop-opacity="0"/></linearGradient><linearGradient id="f" x1="886.43" y1="449.07" x2="886.43" y2="448.55" gradientTransform="matrix(223.06, 0, 0, -277.34, -197521.15, 124658.01)" xlink:href="#e"/><linearGradient id="g" x1="885.56" y1="449.09" x2="885.56" y2="448.57" gradientTransform="matrix(191.43, 0, 0, -198.45, -169313.02, 89233.59)" xlink:href="#e"/><linearGradient id="h" x1="886.66" y1="448.99" x2="886.66" y2="448.47" gradientTransform="matrix(233.23, 0, 0, -502, -206598.91, 225479.44)" gradientUnits="userSpaceOnUse"><stop offset="0" stop-color="#1882d1"/><stop offset="1" stop-color="#0d70b9"/></linearGradient><linearGradient id="i" x1="872.15" y1="448.19" x2="872.43" y2="447.63" gradientTransform="matrix(71.35, 13.87, 33.23, -170.93, -77058.75, 64745.26)" gradientUnits="userSpaceOnUse"><stop offset="0" stop-color="#50abef"/><stop offset="1" stop-color="#1175bf"/></linearGradient><linearGradient id="j" x1="874.69" y1="449.95" x2="874.2" y2="449.48" gradientTransform="matrix(83.03, 0, 0, -162.7, -72525.59, 73468.85)" gradientUnits="userSpaceOnUse"><stop offset="0" stop-color="#ffbc98"/><stop offset="1" stop-color="#ff945a"/></linearGradient><linearGradient id="k" x1="870.74" y1="451.77" x2="871.21" y2="451.76" gradientTransform="matrix(67.91, 0, 0, -69.54, -59087.74, 31755.71)" gradientUnits="userSpaceOnUse"><stop offset="0" stop-color="#21e2e2"/><stop offset="1" stop-color="#19dbdb"/></linearGradient></defs><title>iran-dedicated-servers</title><path class="a" d="M199.2,102.3c63,40.2,135.2,58.3,135.2,58.3s79.5,12.1,50.3,102.6-33.1,122.9-78.9,125.2c-43.5,1.3-67.9-16.7-110.9-13.6-37.8,2.9-63.8,20-126.9-4.9C-33.1,325.2-25.6-39.5,199.2,102.3Z"/><rect class="b" x="87.2" y="291.1" width="17.2" height="17.2" rx="2.6"/><path class="c" d="M96.1,295.8a4.2,4.2,0,0,1,0,8.4,4.2,4.2,0,0,1,0-8.4Z"/><circle class="d" cx="96.1" cy="300" r="5.7"/><circle class="e" cx="96.1" cy="300" r="5.5"/><ellipse class="f" cx="198.3" cy="339.5" rx="116.3" ry="16.7"/><ellipse class="g" cx="266.9" cy="356.5" rx="23.5" ry="4.3"/><path class="h" d="M151.9,282.3H120.1c-4.3,0-6.3,2.4-6.2,6.6,0,1.1.1,18.6.1,22s-2.6,5.4-6.9,5.4h-6c-3.2,0-5.2-2.2-5.2-4.6v-7.9"/><rect class="i" x="127.3" y="86.6" width="133.7" height="261.25" rx="10.4"/><path class="j" d="M195.5,102.3v17.8c0,3.7-2,5.5-5.5,5.4h-5.2c-3.4,0-4.4,2.2-4.4,6v1.7"/><path class="j" d="M201,107.5v7.6c0,3.8-1.9,5.5-5.4,5.5h-5.2c-3.4,0-4.5,2.2-4.5,5.9v6.6"/><path class="j" d="M186.2,102v13.2c0,3.8-1.9,5.5-5.4,5.4h-5.3c-3.4,0-4.5,2.3-4.5,6v6.6"/><path class="j" d="M154.9,99.8h35.2c3.8,0,5.5,2,5.4,5.5v5.2"/><path class="j" d="M201.1,109.6c0-2.8,0-4.3-.1-5.3-.1-3.5,1.6-5.4,5.4-5.4h29"/><path class="j" d="M222.9,98.8v70.4c0,3.7-1.9,5.5-5.4,5.4h-5.3c-3.4,0-4.4,2.3-4.4,6v1.7"/><path class="j" d="M217.7,98.9v22.8c0,3.7-1.9,5.5-5.4,5.4H207c-3.4,0-4.5,2.3-4.5,6v6.6"/><path class="j" d="M212.6,101.2v87.7c0,3.7-1.9,5.4-5.3,5.4H202c-3.4,0-4.5,2.2-4.5,6v38.1"/><rect class="k" x="154.9" y="145.4" width="73.4" height="165.5"/><rect class="l" x="228.3" y="108" width="27.6" height="229.51"/><path class="m" d="M161.4,231h72.1a1.8,1.8,0,0,1,1.9,1.9v14.5a1.8,1.8,0,0,1-1.9,1.8H161.4a1.8,1.8,0,0,1-1.8-1.8V232.9A1.8,1.8,0,0,1,161.4,231Z"/><path class="n" d="M161.6,231H183v18.2H161.6a2.6,2.6,0,0,1-2.6-2.6v-13A2.6,2.6,0,0,1,161.6,231Z"/><rect class="o" x="165.9" y="237.3" width="5.7" height="5.95" rx="2.9"/><path class="p" d="M191.3,237.3h0a1,1,0,0,1,1,1h0a.9.9,0,0,1-1,.9h0a.9.9,0,0,1-.9-.9h0A1,1,0,0,1,191.3,237.3Z"/><path class="p" d="M193.6,241.1h0a.9.9,0,0,1,.9.9h0a.9.9,0,0,1-.9.9h0a1,1,0,0,1-1-.9h0A1,1,0,0,1,193.6,241.1Z"/><path class="c" d="M209.9,237.3h0a1.1,1.1,0,0,1,1,1h0a1,1,0,0,1-1,.9h0a.9.9,0,0,1-.9-.9h0A1,1,0,0,1,209.9,237.3Z"/><path class="c" d="M212.2,241.1h0a.9.9,0,0,1,.9.9h0a.9.9,0,0,1-.9.9h0a.9.9,0,0,1-1-.9h0A.9.9,0,0,1,212.2,241.1Z"/><path class="c" d="M195.1,237.3h0a1,1,0,0,1,.9,1h0a.9.9,0,0,1-.9.9h0a.9.9,0,0,1-1-.9h0A1,1,0,0,1,195.1,237.3Z"/><path class="c" d="M197.3,241.1h0a.9.9,0,0,1,.9.9h0a.9.9,0,0,1-.9.9h0a.9.9,0,0,1-.9-.9h0A.9.9,0,0,1,197.3,241.1Z"/><path class="c" d="M213.6,237.3h0a1,1,0,0,1,1,1h0a.9.9,0,0,1-1,.9h0a.9.9,0,0,1-.9-.9h0A1,1,0,0,1,213.6,237.3Z"/><path class="c" d="M215.9,241.1h0a.9.9,0,0,1,.9.9h0a.9.9,0,0,1-.9.9h0a1,1,0,0,1-1-.9h0A1,1,0,0,1,215.9,241.1Z"/><path class="c" d="M198.8,237.3h0a1,1,0,0,1,.9,1h0a.9.9,0,0,1-.9.9h0a1,1,0,0,1-1-.9h0A1.1,1.1,0,0,1,198.8,237.3Z"/><path class="c" d="M201,241.1h0a.9.9,0,0,1,.9.9h0a.9.9,0,0,1-.9.9h0a.9.9,0,0,1-.9-.9h0A.9.9,0,0,1,201,241.1Z"/><path class="p" d="M217.4,237.3h0a1,1,0,0,1,.9,1h0a.9.9,0,0,1-.9.9h0a1,1,0,0,1-1-.9h0A1.1,1.1,0,0,1,217.4,237.3Z"/><path class="p" d="M219.6,241.1h0a.9.9,0,0,1,.9.9h0a.9.9,0,0,1-.9.9h0a.9.9,0,0,1-.9-.9h0A.9.9,0,0,1,219.6,241.1Z"/><path class="c" d="M202.5,237.3h0a1,1,0,0,1,.9,1h0a.9.9,0,0,1-.9.9h0a.9.9,0,0,1-.9-.9h0A1,1,0,0,1,202.5,237.3Z"/><path class="p" d="M204.7,241.1h0a1,1,0,0,1,1,.9h0a1,1,0,0,1-1,.9h0a.9.9,0,0,1-.9-.9h0A.9.9,0,0,1,204.7,241.1Z"/><path class="c" d="M221.1,237.3h0a1,1,0,0,1,.9,1h0a.9.9,0,0,1-.9.9h0a.9.9,0,0,1-.9-.9h0A1,1,0,0,1,221.1,237.3Z"/><path class="c" d="M223.3,241.1h0a.9.9,0,0,1,.9.9h0a.9.9,0,0,1-.9.9h0a.9.9,0,0,1-.9-.9h0A.9.9,0,0,1,223.3,241.1Z"/><path class="c" d="M206.2,237.3h0a1,1,0,0,1,.9,1h0a.9.9,0,0,1-.9.9h0a.9.9,0,0,1-.9-.9h0A1,1,0,0,1,206.2,237.3Z"/><path class="c" d="M208.4,241.1h0a.9.9,0,0,1,1,.9h0a.9.9,0,0,1-1,.9h0a.9.9,0,0,1-.9-.9h0A.9.9,0,0,1,208.4,241.1Z"/><path class="c" d="M224.8,237.3h0a1,1,0,0,1,.9,1h0a.9.9,0,0,1-.9.9h0a.9.9,0,0,1-.9-.9h0A1,1,0,0,1,224.8,237.3Z"/><path class="c" d="M227,241.1h0a1,1,0,0,1,1,.9h0a1,1,0,0,1-1,.9h0a.9.9,0,0,1-.9-.9h0A.9.9,0,0,1,227,241.1Z"/><rect class="q" x="174.2" y="237.3" width="5.7" height="5.95" rx="2.9"/><path class="m" d="M161.4,131.5h72.1a1.9,1.9,0,0,1,1.9,1.9v14.5a1.8,1.8,0,0,1-1.9,1.8H161.4a1.8,1.8,0,0,1-1.8-1.8V133.4A1.9,1.9,0,0,1,161.4,131.5Z"/><path class="n" d="M161.6,131.5H183v18.2H161.6a2.6,2.6,0,0,1-2.6-2.6v-13A2.6,2.6,0,0,1,161.6,131.5Z"/><rect class="o" x="165.9" y="137.9" width="5.7" height="5.95" rx="2.9"/><path class="c" d="M191.3,137.9h0a.9.9,0,0,1,1,.9h0a.9.9,0,0,1-1,.9h0a.9.9,0,0,1-.9-.9h0A.9.9,0,0,1,191.3,137.9Z"/><path class="c" d="M193.6,141.6h0a.9.9,0,0,1,.9.9h0a.9.9,0,0,1-.9.9h0a1,1,0,0,1-1-.9h0A1,1,0,0,1,193.6,141.6Z"/><path class="c" d="M209.9,137.9h0a1,1,0,0,1,1,.9h0a1,1,0,0,1-1,.9h0a.9.9,0,0,1-.9-.9h0A.9.9,0,0,1,209.9,137.9Z"/><path class="p" d="M212.2,141.6h0a.9.9,0,0,1,.9.9h0a.9.9,0,0,1-.9.9h0a.9.9,0,0,1-1-.9h0A.9.9,0,0,1,212.2,141.6Z"/><path class="p" d="M195.1,137.9h0a.9.9,0,0,1,.9.9h0a.9.9,0,0,1-.9.9h0a.9.9,0,0,1-1-.9h0A.9.9,0,0,1,195.1,137.9Z"/><path class="c" d="M197.3,141.6h0a.9.9,0,0,1,.9.9h0a.9.9,0,0,1-.9.9h0a.9.9,0,0,1-.9-.9h0A.9.9,0,0,1,197.3,141.6Z"/><path class="c" d="M213.6,137.9h0a.9.9,0,0,1,1,.9h0a.9.9,0,0,1-1,.9h0a.9.9,0,0,1-.9-.9h0A.9.9,0,0,1,213.6,137.9Z"/><path class="p" d="M215.9,141.6h0a.9.9,0,0,1,.9.9h0a.9.9,0,0,1-.9.9h0a1,1,0,0,1-1-.9h0A1,1,0,0,1,215.9,141.6Z"/><path class="c" d="M198.8,137.9h0a.9.9,0,0,1,.9.9h0a.9.9,0,0,1-.9.9h0a1,1,0,0,1-1-.9h0A1,1,0,0,1,198.8,137.9Z"/><path class="c" d="M201,141.6h0a.9.9,0,0,1,.9.9h0a.9.9,0,0,1-.9.9h0a.9.9,0,0,1-.9-.9h0A.9.9,0,0,1,201,141.6Z"/><path class="c" d="M217.4,137.9h0a.9.9,0,0,1,.9.9h0a.9.9,0,0,1-.9.9h0a1,1,0,0,1-1-.9h0A1,1,0,0,1,217.4,137.9Z"/><path class="c" d="M219.6,141.6h0a.9.9,0,0,1,.9.9h0a.9.9,0,0,1-.9.9h0a.9.9,0,0,1-.9-.9h0A.9.9,0,0,1,219.6,141.6Z"/><path class="c" d="M202.5,137.9h0a.9.9,0,0,1,.9.9h0a.9.9,0,0,1-.9.9h0a.9.9,0,0,1-.9-.9h0A.9.9,0,0,1,202.5,137.9Z"/><path class="c" d="M204.7,141.6h0a1,1,0,0,1,1,.9h0a1,1,0,0,1-1,.9h0a.9.9,0,0,1-.9-.9h0A.9.9,0,0,1,204.7,141.6Z"/><path class="c" d="M221.1,137.9h0a.9.9,0,0,1,.9.9h0a.9.9,0,0,1-.9.9h0a.9.9,0,0,1-.9-.9h0A.9.9,0,0,1,221.1,137.9Z"/><path class="p" d="M223.3,141.6h0a.9.9,0,0,1,.9.9h0a.9.9,0,0,1-.9.9h0a.9.9,0,0,1-.9-.9h0A.9.9,0,0,1,223.3,141.6Z"/><path class="p" d="M206.2,137.9h0a.9.9,0,0,1,.9.9h0a.9.9,0,0,1-.9.9h0a.9.9,0,0,1-.9-.9h0A.9.9,0,0,1,206.2,137.9Z"/><path class="c" d="M208.4,141.6h0a.9.9,0,0,1,1,.9h0a.9.9,0,0,1-1,.9h0a.9.9,0,0,1-.9-.9h0A.9.9,0,0,1,208.4,141.6Z"/><path class="c" d="M224.8,137.9h0a.9.9,0,0,1,.9.9h0a.9.9,0,0,1-.9.9h0a.9.9,0,0,1-.9-.9h0A.9.9,0,0,1,224.8,137.9Z"/><path class="c" d="M227,141.6h0a1,1,0,0,1,1,.9h0a1,1,0,0,1-1,.9h0a.9.9,0,0,1-.9-.9h0A.9.9,0,0,1,227,141.6Z"/><rect class="q" x="174.2" y="137.9" width="5.7" height="5.95" rx="2.9"/><path class="m" d="M161.4,255.9h72.1a1.8,1.8,0,0,1,1.9,1.8v14.5a1.8,1.8,0,0,1-1.9,1.9H161.4a1.8,1.8,0,0,1-1.8-1.9V257.7A1.8,1.8,0,0,1,161.4,255.9Z"/><path class="n" d="M161.6,255.9H183v18.2H161.6a2.6,2.6,0,0,1-2.6-2.6v-13A2.6,2.6,0,0,1,161.6,255.9Z"/><rect class="o" x="165.9" y="262.2" width="5.7" height="5.95" rx="2.9"/><path class="p" d="M191.3,262.2h0a.9.9,0,0,1,1,.9h0a.9.9,0,0,1-1,1h0a.9.9,0,0,1-.9-1h0A.9.9,0,0,1,191.3,262.2Z"/><path class="c" d="M193.6,265.9h0a.9.9,0,0,1,.9,1h0a.9.9,0,0,1-.9.9h0a1,1,0,0,1-1-.9h0A1,1,0,0,1,193.6,265.9Z"/><path class="c" d="M209.9,262.2h0a1,1,0,0,1,1,.9h0a1,1,0,0,1-1,1h0a.9.9,0,0,1-.9-1h0A.9.9,0,0,1,209.9,262.2Z"/><path class="c" d="M212.2,265.9h0a.9.9,0,0,1,.9,1h0a.9.9,0,0,1-.9.9h0a.9.9,0,0,1-1-.9h0A.9.9,0,0,1,212.2,265.9Z"/><path class="c" d="M195.1,262.2h0a.9.9,0,0,1,.9.9h0a.9.9,0,0,1-.9,1h0a.9.9,0,0,1-1-1h0A.9.9,0,0,1,195.1,262.2Z"/><path class="c" d="M197.3,265.9h0a.9.9,0,0,1,.9,1h0a.9.9,0,0,1-.9.9h0a.9.9,0,0,1-.9-.9h0A.9.9,0,0,1,197.3,265.9Z"/><path class="p" d="M213.6,262.2h0a.9.9,0,0,1,1,.9h0a.9.9,0,0,1-1,1h0a.9.9,0,0,1-.9-1h0A.9.9,0,0,1,213.6,262.2Z"/><path class="c" d="M215.9,265.9h0a.9.9,0,0,1,.9,1h0a.9.9,0,0,1-.9.9h0a1,1,0,0,1-1-.9h0A1,1,0,0,1,215.9,265.9Z"/><path class="c" d="M198.8,262.2h0a.9.9,0,0,1,.9.9h0a.9.9,0,0,1-.9,1h0a1,1,0,0,1-1-1h0A1,1,0,0,1,198.8,262.2Z"/><path class="c" d="M201,265.9h0a.9.9,0,0,1,.9,1h0a.9.9,0,0,1-.9.9h0a.9.9,0,0,1-.9-.9h0A.9.9,0,0,1,201,265.9Z"/><path class="c" d="M217.4,262.2h0a.9.9,0,0,1,.9.9h0a.9.9,0,0,1-.9,1h0a1,1,0,0,1-1-1h0A1,1,0,0,1,217.4,262.2Z"/><path class="c" d="M219.6,265.9h0a.9.9,0,0,1,.9,1h0a.9.9,0,0,1-.9.9h0a.9.9,0,0,1-.9-.9h0A.9.9,0,0,1,219.6,265.9Z"/><path class="p" d="M202.5,262.2h0a.9.9,0,0,1,.9.9h0a.9.9,0,0,1-.9,1h0a.9.9,0,0,1-.9-1h0A.9.9,0,0,1,202.5,262.2Z"/><path class="c" d="M204.7,265.9h0a1,1,0,0,1,1,1h0a1,1,0,0,1-1,.9h0a.9.9,0,0,1-.9-.9h0A.9.9,0,0,1,204.7,265.9Z"/><path class="c" d="M221.1,262.2h0a.9.9,0,0,1,.9.9h0a.9.9,0,0,1-.9,1h0a.9.9,0,0,1-.9-1h0A.9.9,0,0,1,221.1,262.2Z"/><path class="p" d="M223.3,265.9h0a.9.9,0,0,1,.9,1h0a.9.9,0,0,1-.9.9h0a.9.9,0,0,1-.9-.9h0A.9.9,0,0,1,223.3,265.9Z"/><path class="c" d="M206.2,262.2h0a.9.9,0,0,1,.9.9h0a.9.9,0,0,1-.9,1h0a.9.9,0,0,1-.9-1h0A.9.9,0,0,1,206.2,262.2Z"/><path class="c" d="M208.4,265.9h0a.9.9,0,0,1,1,1h0a.9.9,0,0,1-1,.9h0a.9.9,0,0,1-.9-.9h0A.9.9,0,0,1,208.4,265.9Z"/><path class="c" d="M224.8,262.2h0a.9.9,0,0,1,.9.9h0a.9.9,0,0,1-.9,1h0a.9.9,0,0,1-.9-1h0A.9.9,0,0,1,224.8,262.2Z"/><path class="p" d="M227,265.9h0a1,1,0,0,1,1,1h0a1,1,0,0,1-1,.9h0a.9.9,0,0,1-.9-.9h0A.9.9,0,0,1,227,265.9Z"/><rect class="q" x="174.2" y="262.2" width="5.7" height="5.95" rx="2.9"/><path class="m" d="M161.4,156.4h72.1a1.8,1.8,0,0,1,1.9,1.9v14.5a1.8,1.8,0,0,1-1.9,1.8H161.4a1.8,1.8,0,0,1-1.8-1.8V158.3A1.8,1.8,0,0,1,161.4,156.4Z"/><path class="n" d="M161.6,156.4H183v18.2H161.6A2.6,2.6,0,0,1,159,172V159A2.6,2.6,0,0,1,161.6,156.4Z"/><rect class="o" x="165.9" y="162.7" width="5.7" height="5.95" rx="2.9"/><path class="c" d="M191.3,162.7h0a.9.9,0,0,1,1,1h0a.9.9,0,0,1-1,.9h0a.9.9,0,0,1-.9-.9h0A.9.9,0,0,1,191.3,162.7Z"/><path class="p" d="M193.6,166.4h0a1,1,0,0,1,.9,1h0a.9.9,0,0,1-.9.9h0a1,1,0,0,1-1-.9h0A1.1,1.1,0,0,1,193.6,166.4Z"/><path class="c" d="M209.9,162.7h0a1,1,0,0,1,1,1h0a1,1,0,0,1-1,.9h0a.9.9,0,0,1-.9-.9h0A.9.9,0,0,1,209.9,162.7Z"/><path class="c" d="M212.2,166.4h0a1,1,0,0,1,.9,1h0a.9.9,0,0,1-.9.9h0a.9.9,0,0,1-1-.9h0A1,1,0,0,1,212.2,166.4Z"/><path class="c" d="M195.1,162.7h0a.9.9,0,0,1,.9,1h0a.9.9,0,0,1-.9.9h0a.9.9,0,0,1-1-.9h0A.9.9,0,0,1,195.1,162.7Z"/><path class="c" d="M197.3,166.4h0a1,1,0,0,1,.9,1h0a.9.9,0,0,1-.9.9h0a.9.9,0,0,1-.9-.9h0A1,1,0,0,1,197.3,166.4Z"/><path class="c" d="M213.6,162.7h0a.9.9,0,0,1,1,1h0a.9.9,0,0,1-1,.9h0a.9.9,0,0,1-.9-.9h0A.9.9,0,0,1,213.6,162.7Z"/><path class="c" d="M215.9,166.4h0a1,1,0,0,1,.9,1h0a.9.9,0,0,1-.9.9h0a1,1,0,0,1-1-.9h0A1.1,1.1,0,0,1,215.9,166.4Z"/><path class="c" d="M198.8,162.7h0a.9.9,0,0,1,.9,1h0a.9.9,0,0,1-.9.9h0a1,1,0,0,1-1-.9h0A1,1,0,0,1,198.8,162.7Z"/><path class="p" d="M201,166.4h0a1,1,0,0,1,.9,1h0a.9.9,0,0,1-.9.9h0a.9.9,0,0,1-.9-.9h0A1,1,0,0,1,201,166.4Z"/><path class="c" d="M217.4,162.7h0a.9.9,0,0,1,.9,1h0a.9.9,0,0,1-.9.9h0a1,1,0,0,1-1-.9h0A1,1,0,0,1,217.4,162.7Z"/><path class="c" d="M219.6,166.4h0a1,1,0,0,1,.9,1h0a.9.9,0,0,1-.9.9h0a.9.9,0,0,1-.9-.9h0A1,1,0,0,1,219.6,166.4Z"/><path class="c" d="M202.5,162.7h0a.9.9,0,0,1,.9,1h0a.9.9,0,0,1-.9.9h0a.9.9,0,0,1-.9-.9h0A.9.9,0,0,1,202.5,162.7Z"/><path class="c" d="M204.7,166.4h0a1.1,1.1,0,0,1,1,1h0a1,1,0,0,1-1,.9h0a.9.9,0,0,1-.9-.9h0A1,1,0,0,1,204.7,166.4Z"/><path class="p" d="M221.1,162.7h0a.9.9,0,0,1,.9,1h0a.9.9,0,0,1-.9.9h0a.9.9,0,0,1-.9-.9h0A.9.9,0,0,1,221.1,162.7Z"/><path class="c" d="M223.3,166.4h0a1,1,0,0,1,.9,1h0a.9.9,0,0,1-.9.9h0a.9.9,0,0,1-.9-.9h0A1,1,0,0,1,223.3,166.4Z"/><path class="p" d="M206.2,162.7h0a.9.9,0,0,1,.9,1h0a.9.9,0,0,1-.9.9h0a.9.9,0,0,1-.9-.9h0A.9.9,0,0,1,206.2,162.7Z"/><path class="c" d="M208.4,166.4h0a1,1,0,0,1,1,1h0a.9.9,0,0,1-1,.9h0a.9.9,0,0,1-.9-.9h0A1,1,0,0,1,208.4,166.4Z"/><path class="p" d="M224.8,162.7h0a.9.9,0,0,1,.9,1h0a.9.9,0,0,1-.9.9h0a.9.9,0,0,1-.9-.9h0A.9.9,0,0,1,224.8,162.7Z"/><path class="c" d="M227,166.4h0a1.1,1.1,0,0,1,1,1h0a1,1,0,0,1-1,.9h0a.9.9,0,0,1-.9-.9h0A1,1,0,0,1,227,166.4Z"/><rect class="q" x="174.2" y="162.7" width="5.7" height="5.95" rx="2.9"/><path class="m" d="M161.4,280.8h72.1a1.8,1.8,0,0,1,1.9,1.8v14.5a1.9,1.9,0,0,1-1.9,1.9H161.4a1.9,1.9,0,0,1-1.8-1.9V282.6A1.8,1.8,0,0,1,161.4,280.8Z"/><path class="n" d="M161.6,280.7H183V299H161.6a2.6,2.6,0,0,1-2.6-2.6V283.3A2.6,2.6,0,0,1,161.6,280.7Z"/><rect class="r" x="165.9" y="287.1" width="5.7" height="5.95" rx="2.9"/><path class="c" d="M191.3,287.1h0a.9.9,0,0,1,1,.9h0a.9.9,0,0,1-1,.9h0a.9.9,0,0,1-.9-.9h0A.9.9,0,0,1,191.3,287.1Z"/><path class="c" d="M193.6,290.8h0a.9.9,0,0,1,.9.9h0a1,1,0,0,1-.9,1h0a1.1,1.1,0,0,1-1-1h0A1,1,0,0,1,193.6,290.8Z"/><path class="c" d="M209.9,287.1h0a1,1,0,0,1,1,.9h0a1,1,0,0,1-1,.9h0a.9.9,0,0,1-.9-.9h0A.9.9,0,0,1,209.9,287.1Z"/><path class="c" d="M212.2,290.8h0a.9.9,0,0,1,.9.9h0a1,1,0,0,1-.9,1h0a1,1,0,0,1-1-1h0A.9.9,0,0,1,212.2,290.8Z"/><path class="c" d="M195.1,287.1h0a.9.9,0,0,1,.9.9h0a.9.9,0,0,1-.9.9h0a.9.9,0,0,1-1-.9h0A.9.9,0,0,1,195.1,287.1Z"/><path class="p" d="M197.3,290.8h0a.9.9,0,0,1,.9.9h0a1,1,0,0,1-.9,1h0a1,1,0,0,1-.9-1h0A.9.9,0,0,1,197.3,290.8Z"/><path class="c" d="M213.6,287.1h0a.9.9,0,0,1,1,.9h0a.9.9,0,0,1-1,.9h0a.9.9,0,0,1-.9-.9h0A.9.9,0,0,1,213.6,287.1Z"/><path class="c" d="M215.9,290.8h0a.9.9,0,0,1,.9.9h0a1,1,0,0,1-.9,1h0a1.1,1.1,0,0,1-1-1h0A1,1,0,0,1,215.9,290.8Z"/><path class="c" d="M198.8,287.1h0a.9.9,0,0,1,.9.9h0a.9.9,0,0,1-.9.9h0a1,1,0,0,1-1-.9h0A1,1,0,0,1,198.8,287.1Z"/><path class="p" d="M201,290.8h0a.9.9,0,0,1,.9.9h0a1,1,0,0,1-.9,1h0a1,1,0,0,1-.9-1h0A.9.9,0,0,1,201,290.8Z"/><path class="c" d="M217.4,287.1h0a.9.9,0,0,1,.9.9h0a.9.9,0,0,1-.9.9h0a1,1,0,0,1-1-.9h0A1,1,0,0,1,217.4,287.1Z"/><path class="p" d="M219.6,290.8h0a.9.9,0,0,1,.9.9h0a1,1,0,0,1-.9,1h0a1,1,0,0,1-.9-1h0A.9.9,0,0,1,219.6,290.8Z"/><path class="c" d="M202.5,287.1h0a.9.9,0,0,1,.9.9h0a.9.9,0,0,1-.9.9h0a.9.9,0,0,1-.9-.9h0A.9.9,0,0,1,202.5,287.1Z"/><path class="c" d="M204.7,290.8h0a1,1,0,0,1,1,.9h0a1.1,1.1,0,0,1-1,1h0a1,1,0,0,1-.9-1h0A.9.9,0,0,1,204.7,290.8Z"/><path class="p" d="M221.1,287.1h0a.9.9,0,0,1,.9.9h0a.9.9,0,0,1-.9.9h0a.9.9,0,0,1-.9-.9h0A.9.9,0,0,1,221.1,287.1Z"/><path class="c" d="M223.3,290.8h0a.9.9,0,0,1,.9.9h0a1,1,0,0,1-.9,1h0a1,1,0,0,1-.9-1h0A.9.9,0,0,1,223.3,290.8Z"/><path class="c" d="M206.2,287.1h0a.9.9,0,0,1,.9.9h0a.9.9,0,0,1-.9.9h0a.9.9,0,0,1-.9-.9h0A.9.9,0,0,1,206.2,287.1Z"/><path class="p" d="M208.4,290.8h0a.9.9,0,0,1,1,.9h0a1,1,0,0,1-1,1h0a1,1,0,0,1-.9-1h0A.9.9,0,0,1,208.4,290.8Z"/><path class="c" d="M224.8,287.1h0a.9.9,0,0,1,.9.9h0a.9.9,0,0,1-.9.9h0a.9.9,0,0,1-.9-.9h0A.9.9,0,0,1,224.8,287.1Z"/><path class="c" d="M227,290.8h0a1,1,0,0,1,1,.9h0a1.1,1.1,0,0,1-1,1h0a1,1,0,0,1-.9-1h0A.9.9,0,0,1,227,290.8Z"/><rect class="q" x="174.2" y="287.1" width="5.7" height="5.95" rx="2.9"/><path class="m" d="M161.4,181.3h72.1a1.8,1.8,0,0,1,1.9,1.8v14.5a1.8,1.8,0,0,1-1.9,1.9H161.4a1.8,1.8,0,0,1-1.8-1.9V183.1A1.8,1.8,0,0,1,161.4,181.3Z"/><path class="n" d="M161.6,181.3H183v18.2H161.6a2.6,2.6,0,0,1-2.6-2.6v-13A2.6,2.6,0,0,1,161.6,181.3Z"/><rect class="o" x="165.9" y="187.6" width="5.7" height="5.95" rx="2.9"/><path class="c" d="M191.3,187.6h0a.9.9,0,0,1,1,.9h0a1,1,0,0,1-1,1h0a1,1,0,0,1-.9-1h0A.9.9,0,0,1,191.3,187.6Z"/><path class="c" d="M193.6,191.3h0a.9.9,0,0,1,.9.9h0a.9.9,0,0,1-.9,1h0a1,1,0,0,1-1-1h0A1,1,0,0,1,193.6,191.3Z"/><path class="c" d="M209.9,187.6h0a1,1,0,0,1,1,.9h0a1.1,1.1,0,0,1-1,1h0a1,1,0,0,1-.9-1h0A.9.9,0,0,1,209.9,187.6Z"/><path class="p" d="M212.2,191.3h0a.9.9,0,0,1,.9.9h0a.9.9,0,0,1-.9,1h0a.9.9,0,0,1-1-1h0A.9.9,0,0,1,212.2,191.3Z"/><path class="c" d="M195.1,187.6h0a.9.9,0,0,1,.9.9h0a1,1,0,0,1-.9,1h0a1,1,0,0,1-1-1h0A.9.9,0,0,1,195.1,187.6Z"/><path class="c" d="M197.3,191.3h0a.9.9,0,0,1,.9.9h0a.9.9,0,0,1-.9,1h0a.9.9,0,0,1-.9-1h0A.9.9,0,0,1,197.3,191.3Z"/><path class="c" d="M213.6,187.6h0a.9.9,0,0,1,1,.9h0a1,1,0,0,1-1,1h0a1,1,0,0,1-.9-1h0A.9.9,0,0,1,213.6,187.6Z"/><path class="c" d="M215.9,191.3h0a.9.9,0,0,1,.9.9h0a.9.9,0,0,1-.9,1h0a1,1,0,0,1-1-1h0A1,1,0,0,1,215.9,191.3Z"/><path class="p" d="M198.8,187.6h0a.9.9,0,0,1,.9.9h0a1,1,0,0,1-.9,1h0a1.1,1.1,0,0,1-1-1h0A1,1,0,0,1,198.8,187.6Z"/><path class="c" d="M201,191.3h0a.9.9,0,0,1,.9.9h0a.9.9,0,0,1-.9,1h0a.9.9,0,0,1-.9-1h0A.9.9,0,0,1,201,191.3Z"/><path class="c" d="M217.4,187.6h0a.9.9,0,0,1,.9.9h0a1,1,0,0,1-.9,1h0a1.1,1.1,0,0,1-1-1h0A1,1,0,0,1,217.4,187.6Z"/><path class="p" d="M219.6,191.3h0a.9.9,0,0,1,.9.9h0a.9.9,0,0,1-.9,1h0a.9.9,0,0,1-.9-1h0A.9.9,0,0,1,219.6,191.3Z"/><path class="c" d="M202.5,187.6h0a.9.9,0,0,1,.9.9h0a1,1,0,0,1-.9,1h0a1,1,0,0,1-.9-1h0A.9.9,0,0,1,202.5,187.6Z"/><path class="p" d="M204.7,191.3h0a1,1,0,0,1,1,.9h0a1,1,0,0,1-1,1h0a.9.9,0,0,1-.9-1h0A.9.9,0,0,1,204.7,191.3Z"/><path class="c" d="M221.1,187.6h0a.9.9,0,0,1,.9.9h0a1,1,0,0,1-.9,1h0a1,1,0,0,1-.9-1h0A.9.9,0,0,1,221.1,187.6Z"/><path class="c" d="M223.3,191.3h0a.9.9,0,0,1,.9.9h0a.9.9,0,0,1-.9,1h0a.9.9,0,0,1-.9-1h0A.9.9,0,0,1,223.3,191.3Z"/><path class="c" d="M206.2,187.6h0a.9.9,0,0,1,.9.9h0a1,1,0,0,1-.9,1h0a1,1,0,0,1-.9-1h0A.9.9,0,0,1,206.2,187.6Z"/><path class="c" d="M208.4,191.3h0a.9.9,0,0,1,1,.9h0a.9.9,0,0,1-1,1h0a.9.9,0,0,1-.9-1h0A.9.9,0,0,1,208.4,191.3Z"/><path class="c" d="M224.8,187.6h0a.9.9,0,0,1,.9.9h0a1,1,0,0,1-.9,1h0a1,1,0,0,1-.9-1h0A.9.9,0,0,1,224.8,187.6Z"/><path class="c" d="M227,191.3h0a1,1,0,0,1,1,.9h0a1,1,0,0,1-1,1h0a.9.9,0,0,1-.9-1h0A.9.9,0,0,1,227,191.3Z"/><rect class="q" x="174.2" y="187.6" width="5.7" height="5.95" rx="2.9"/><path class="m" d="M161.4,305.6h72.1a1.9,1.9,0,0,1,1.9,1.9V322a1.8,1.8,0,0,1-1.9,1.8H161.4a1.8,1.8,0,0,1-1.8-1.8V307.5A1.9,1.9,0,0,1,161.4,305.6Z"/><path class="n" d="M161.6,305.6H183v18.2H161.6a2.6,2.6,0,0,1-2.6-2.6v-13A2.6,2.6,0,0,1,161.6,305.6Z"/><rect class="o" x="165.9" y="311.9" width="5.7" height="5.95" rx="2.9"/><path class="c" d="M191.3,311.9h0a1,1,0,0,1,1,1h0a.9.9,0,0,1-1,.9h0a.9.9,0,0,1-.9-.9h0A1,1,0,0,1,191.3,311.9Z"/><path class="c" d="M193.6,315.7h0a.9.9,0,0,1,.9.9h0a.9.9,0,0,1-.9.9h0a1,1,0,0,1-1-.9h0A1,1,0,0,1,193.6,315.7Z"/><path class="p" d="M209.9,311.9h0a1.1,1.1,0,0,1,1,1h0a1,1,0,0,1-1,.9h0a.9.9,0,0,1-.9-.9h0A1,1,0,0,1,209.9,311.9Z"/><path class="p" d="M212.2,315.7h0a.9.9,0,0,1,.9.9h0a.9.9,0,0,1-.9.9h0a.9.9,0,0,1-1-.9h0A.9.9,0,0,1,212.2,315.7Z"/><path class="c" d="M195.1,311.9h0a1,1,0,0,1,.9,1h0a.9.9,0,0,1-.9.9h0a.9.9,0,0,1-1-.9h0A1,1,0,0,1,195.1,311.9Z"/><path class="p" d="M197.3,315.7h0a.9.9,0,0,1,.9.9h0a.9.9,0,0,1-.9.9h0a.9.9,0,0,1-.9-.9h0A.9.9,0,0,1,197.3,315.7Z"/><path class="p" d="M213.6,311.9h0a1,1,0,0,1,1,1h0a.9.9,0,0,1-1,.9h0a.9.9,0,0,1-.9-.9h0A1,1,0,0,1,213.6,311.9Z"/><path class="c" d="M215.9,315.7h0a.9.9,0,0,1,.9.9h0a.9.9,0,0,1-.9.9h0a1,1,0,0,1-1-.9h0A1,1,0,0,1,215.9,315.7Z"/><path class="c" d="M198.8,311.9h0a1,1,0,0,1,.9,1h0a.9.9,0,0,1-.9.9h0a1,1,0,0,1-1-.9h0A1.1,1.1,0,0,1,198.8,311.9Z"/><path class="c" d="M201,315.7h0a.9.9,0,0,1,.9.9h0a.9.9,0,0,1-.9.9h0a.9.9,0,0,1-.9-.9h0A.9.9,0,0,1,201,315.7Z"/><path class="c" d="M217.4,311.9h0a1,1,0,0,1,.9,1h0a.9.9,0,0,1-.9.9h0a1,1,0,0,1-1-.9h0A1.1,1.1,0,0,1,217.4,311.9Z"/><path class="p" d="M219.6,315.7h0a.9.9,0,0,1,.9.9h0a.9.9,0,0,1-.9.9h0a.9.9,0,0,1-.9-.9h0A.9.9,0,0,1,219.6,315.7Z"/><path class="c" d="M202.5,311.9h0a1,1,0,0,1,.9,1h0a.9.9,0,0,1-.9.9h0a.9.9,0,0,1-.9-.9h0A1,1,0,0,1,202.5,311.9Z"/><path class="c" d="M204.7,315.7h0a1,1,0,0,1,1,.9h0a1,1,0,0,1-1,.9h0a.9.9,0,0,1-.9-.9h0A.9.9,0,0,1,204.7,315.7Z"/><path class="c" d="M221.1,311.9h0a1,1,0,0,1,.9,1h0a.9.9,0,0,1-.9.9h0a.9.9,0,0,1-.9-.9h0A1,1,0,0,1,221.1,311.9Z"/><path class="c" d="M223.3,315.7h0a.9.9,0,0,1,.9.9h0a.9.9,0,0,1-.9.9h0a.9.9,0,0,1-.9-.9h0A.9.9,0,0,1,223.3,315.7Z"/><path class="c" d="M206.2,311.9h0a1,1,0,0,1,.9,1h0a.9.9,0,0,1-.9.9h0a.9.9,0,0,1-.9-.9h0A1,1,0,0,1,206.2,311.9Z"/><path class="c" d="M208.4,315.7h0a.9.9,0,0,1,1,.9h0a.9.9,0,0,1-1,.9h0a.9.9,0,0,1-.9-.9h0A.9.9,0,0,1,208.4,315.7Z"/><path class="c" d="M224.8,311.9h0a1,1,0,0,1,.9,1h0a.9.9,0,0,1-.9.9h0a.9.9,0,0,1-.9-.9h0A1,1,0,0,1,224.8,311.9Z"/><path class="c" d="M227,315.7h0a1,1,0,0,1,1,.9h0a1,1,0,0,1-1,.9h0a.9.9,0,0,1-.9-.9h0A.9.9,0,0,1,227,315.7Z"/><rect class="q" x="174.2" y="311.9" width="5.7" height="5.95" rx="2.9"/><path class="m" d="M161.4,206.1h72.1a1.9,1.9,0,0,1,1.9,1.9v14.5a1.9,1.9,0,0,1-1.9,1.9H161.4a1.9,1.9,0,0,1-1.8-1.9V208A1.9,1.9,0,0,1,161.4,206.1Z"/><path class="n" d="M161.6,206.1H183v18.2H161.6a2.6,2.6,0,0,1-2.6-2.6v-13A2.6,2.6,0,0,1,161.6,206.1Z"/><rect class="o" x="165.9" y="212.5" width="5.7" height="5.95" rx="2.9"/><path class="c" d="M191.3,212.5h0a.9.9,0,0,1,1,.9h0a.9.9,0,0,1-1,.9h0a.9.9,0,0,1-.9-.9h0A.9.9,0,0,1,191.3,212.5Z"/><path class="c" d="M193.6,216.2h0a.9.9,0,0,1,.9.9h0a.9.9,0,0,1-.9.9h0a1,1,0,0,1-1-.9h0A1,1,0,0,1,193.6,216.2Z"/><path class="c" d="M209.9,212.5h0a1,1,0,0,1,1,.9h0a1,1,0,0,1-1,.9h0a.9.9,0,0,1-.9-.9h0A.9.9,0,0,1,209.9,212.5Z"/><path class="c" d="M212.2,216.2h0a.9.9,0,0,1,.9.9h0a.9.9,0,0,1-.9.9h0a.9.9,0,0,1-1-.9h0A.9.9,0,0,1,212.2,216.2Z"/><path class="p" d="M195.1,212.5h0a.9.9,0,0,1,.9.9h0a.9.9,0,0,1-.9.9h0a.9.9,0,0,1-1-.9h0A.9.9,0,0,1,195.1,212.5Z"/><path class="c" d="M197.3,216.2h0a.9.9,0,0,1,.9.9h0a.9.9,0,0,1-.9.9h0a.9.9,0,0,1-.9-.9h0A.9.9,0,0,1,197.3,216.2Z"/><path class="p" d="M213.6,212.5h0a.9.9,0,0,1,1,.9h0a.9.9,0,0,1-1,.9h0a.9.9,0,0,1-.9-.9h0A.9.9,0,0,1,213.6,212.5Z"/><path class="c" d="M215.9,216.2h0a.9.9,0,0,1,.9.9h0a.9.9,0,0,1-.9.9h0a1,1,0,0,1-1-.9h0A1,1,0,0,1,215.9,216.2Z"/><path class="p" d="M198.8,212.5h0a.9.9,0,0,1,.9.9h0a.9.9,0,0,1-.9.9h0a1,1,0,0,1-1-.9h0A1,1,0,0,1,198.8,212.5Z"/><path class="c" d="M201,216.2h0a.9.9,0,0,1,.9.9h0a.9.9,0,0,1-.9.9h0a.9.9,0,0,1-.9-.9h0A.9.9,0,0,1,201,216.2Z"/><path class="c" d="M217.4,212.5h0a.9.9,0,0,1,.9.9h0a.9.9,0,0,1-.9.9h0a1,1,0,0,1-1-.9h0A1,1,0,0,1,217.4,212.5Z"/><path class="c" d="M219.6,216.2h0a.9.9,0,0,1,.9.9h0a.9.9,0,0,1-.9.9h0a.9.9,0,0,1-.9-.9h0A.9.9,0,0,1,219.6,216.2Z"/><path class="c" d="M202.5,212.5h0a.9.9,0,0,1,.9.9h0a.9.9,0,0,1-.9.9h0a.9.9,0,0,1-.9-.9h0A.9.9,0,0,1,202.5,212.5Z"/><path class="c" d="M204.7,216.2h0a1,1,0,0,1,1,.9h0a1,1,0,0,1-1,.9h0a.9.9,0,0,1-.9-.9h0A.9.9,0,0,1,204.7,216.2Z"/><path class="c" d="M221.1,212.5h0a.9.9,0,0,1,.9.9h0a.9.9,0,0,1-.9.9h0a.9.9,0,0,1-.9-.9h0A.9.9,0,0,1,221.1,212.5Z"/><path class="c" d="M223.3,216.2h0a.9.9,0,0,1,.9.9h0a.9.9,0,0,1-.9.9h0a.9.9,0,0,1-.9-.9h0A.9.9,0,0,1,223.3,216.2Z"/><path class="c" d="M206.2,212.5h0a.9.9,0,0,1,.9.9h0a.9.9,0,0,1-.9.9h0a.9.9,0,0,1-.9-.9h0A.9.9,0,0,1,206.2,212.5Z"/><path class="p" d="M208.4,216.2h0a.9.9,0,0,1,1,.9h0a.9.9,0,0,1-1,.9h0a.9.9,0,0,1-.9-.9h0A.9.9,0,0,1,208.4,216.2Z"/><path class="p" d="M224.8,212.5h0a.9.9,0,0,1,.9.9h0a.9.9,0,0,1-.9.9h0a.9.9,0,0,1-.9-.9h0A.9.9,0,0,1,224.8,212.5Z"/><path class="p" d="M227,216.2h0a1,1,0,0,1,1,.9h0a1,1,0,0,1-1,.9h0a.9.9,0,0,1-.9-.9h0A.9.9,0,0,1,227,216.2Z"/><rect class="q" x="174.2" y="212.5" width="5.7" height="5.95" rx="2.9"/><path class="s" d="M163.9,112.2h93.3c-.5,10.1,0,14.8,0,18.3,0,24.6,13.5,19.4-.8,33.5-28.3,27.9-54.1,54.9-98.4,100.8-3.3,0,0-26,0-146.3A6.1,6.1,0,0,1,163.9,112.2Z"/><path class="t" d="M155.8,112.2H255.9c10.4,0,1.8,6.6,1.7,12-.2,7.3,4.6,14.7,0,19.1-35.9,34.3-57.2,56.5-111.8,113.2-3.3,0,4.2-17.7,4.2-138A6.1,6.1,0,0,1,155.8,112.2Z"/><path class="u" d="M165.3,112.1H256a4.1,4.1,0,0,1,4,4.3c-37.2,36.9-53.6,52.2-98.7,99-2.2,0,0-17.6,0-99A4.2,4.2,0,0,1,165.3,112.1Z"/><path class="v" d="M261.2,340.1a7.8,7.8,0,0,1-7.8,7.8H150.2a10.4,10.4,0,0,1-10.4-10.4h0V97a10.4,10.4,0,0,1,10.4-10.4H251.7a9.9,9.9,0,0,1,3.7.8,10.9,10.9,0,0,1,3,2.3,8.6,8.6,0,0,1,2,3.3,11,11,0,0,1,.8,4ZM169.6,114.7a7.8,7.8,0,0,0-7.8,7.8h0V312a7.8,7.8,0,0,0,7.8,7.8h76.9a7.8,7.8,0,0,0,7.9-7.8V122.5a7.8,7.8,0,0,0-7.9-7.8H169.6Z"/><path class="w" d="M146.6,244.6V214.7a5.1,5.1,0,0,1,5.1-5.1h0a5.1,5.1,0,0,1,5.2,5.1v29.9a5.1,5.1,0,0,1-5.2,5.1h0A5.1,5.1,0,0,1,146.6,244.6Z"/><path class="i" d="M146.1,244.6V214.7a5.1,5.1,0,0,1,5.2-5.1h0a5.1,5.1,0,0,1,5.1,5.1v29.9a5.1,5.1,0,0,1-5.1,5.1h0A5.1,5.1,0,0,1,146.1,244.6Z"/><rect class="b" x="151.3" y="222.2" width="2.9" height="14.05" rx="1.5"/><path class="x" d="M63.6,320.5S60,296.3,45.1,278.8s14.2-22,16.7-42.8,29.7,32.4,7.6,64.1S63.6,320.5,63.6,320.5Z"/><path class="y" d="M63.2,339.9S61.9,311,88.7,301s10.3-28.9,13.8-38.6-43.1,10.2-41.2,54.1S63.2,339.9,63.2,339.9Z"/><path class="z" d="M65.2,344.6s1.1-23.8-21-32-8.5-23.8-11.3-31.8,35.5,8.4,33.9,44.6S65.2,344.6,65.2,344.6Z"/><path class="aa" d="M44.7,320.5H80.1l-2.8,36.2H47.6Z"/><path class="ab" d="M63.2,293.1s13-30.8,2.8-50.9"/><path class="ab" d="M67.9,312.6s6.9-33.5,28-44.6"/><path class="ac" d="M75.3,300.5s2.5-3.9,10-4.3"/><path class="ac" d="M62.6,279.8s-.7-4-6.4-6.7"/><path class="ac" d="M80.3,290.3s5.6-6.6,11.7-7.2"/><path class="ac" d="M62.1,270.1s-2.2-7-6.8-9.6"/><path class="ad" d="M304.1,181c-3.9,6.8-17.2-2.5-23.4-7.3s-23.1-20.9-23.1-20.9l4.9-7a212.9,212.9,0,0,1,37.6,20.3C301.9,167.4,308.1,174.2,304.1,181Z"/><path class="q" d="M358.4,373.8s-4.9,9-4.2,10.9,4.1,4.7,9.2,3.9,9.3-5.4,10.3-5.7-.4-12.7-.4-12.7Z"/><path class="ad" d="M314.2,124.6c7.1.8,8.5,7,7.2,13.9s-15.3,41.1-17.3,42.2-12.1-1.5-12.7-4.7,6.8-34.1,8.9-39.6S305.8,123.5,314.2,124.6Z"/><path class="ae" d="M310.4,123c-2.5,1-8.2,4.4-11.9,14.8-2.5,6.9-6.8,20.4-6.8,20.4a25.2,25.2,0,0,0,10.1,5.8c7.3,2.2,12.4.6,12.4.6s9.7-27.8,8.7-33.7C322.6,129.1,317.5,120.2,310.4,123Z"/><path class="af" d="M334.3,95.6s4.8,19.3,6,20.3c3.7,3.1,17.3,5.7,19.9,11.1s-13.7,36.2-15.9,46,2.4,24.9,3.9,34.5-28.6,21.2-29.7,21.2-10.9-9-12.7-12.2-.1-27.7-.1-33.9-1.5-28.2-1.8-29.7a43.2,43.2,0,0,1,.9-19.2c.4-2,.2-5.4,1.3-6.7s13.2-6,13.4-7.3,1.7-19.3,1.7-19.3Z"/><path class="c" d="M340.3,115.9l-11.7,7a6.3,6.3,0,0,1-9.1-3.2h0s-11.9,3.8-13.4,6.3-2.3,9.2-2.8,11.3-.8,11.6,0,20c.5,4.8.4,11.3,1.2,19.5s-.1,24.8-.1,24.8,6.8.3,17.3-.3c12.1-.6,24.4-2.5,24.9-2.9,2.4-2-.9-20.8-.5-22.9s15.3-38.1,15.5-42.9-1.6-8-5.2-9.8S340.3,115.9,340.3,115.9Z"/><path class="ae" d="M354,122.2s11.9,6.5.2,15.6c-5.1,3.9-29.3,10.1-33.9,11.5-16.3,5,8.9,41.1,10.9,43.8a12.9,12.9,0,0,1,1.9,6.5l15.7-1.8c4.8.9-2.6-22.4-.8-27.5s13.6-33.9,13.6-37.7A10.7,10.7,0,0,0,354,122.2Z"/><polygon class="ad" points="320.4 111.7 334.8 97.3 339.4 112.5 333.7 115.9 320.4 111.7"/><path class="af" d="M305.4,80.1c3.1-5.5,14.8-13.4,23.9-7s9.1,15.7,7.4,22-3.2,8-7.5,12c-.9.9-9.9,5.6-12,5.6s-5.6-9.1-5.9-9a1.8,1.8,0,0,1-2-.8c-.4-1.1-1.4-8.3-2-8.9S301.9,86.4,305.4,80.1Z"/><rect class="q" x="319.1" y="374.4" width="11.8" height="2.19" transform="translate(650 751) rotate(180)"/><path class="q" d="M330.4,358.9a20.7,20.7,0,0,1,2.7,8.3c.2,2.3-1.2,7.2-2.7,7.2a116.4,116.4,0,0,0-14.3.8c-4.6.6-6.3,3.2-18,3.2-3.5,0-9.5-.2-9.5-1.6,0-6.1,11.2-3.9,14.8-7.2,9-8.3,15.1-10.3,15.1-10.3S330.1,358.5,330.4,358.9Z"/><path class="ag" d="M324.8,198.8s15.7,15.6,16.4,22.5-5.9,28.6-8.2,45.8-3.8,20.6-3.2,24.7,5.2,20.5,5,31.4c-.2,12.8.5,38.9.5,38.9s-3.4,2.7-12.2,2.6c-5.6,0-10.5-4-10.5-4s-3.6-64.1-4.3-70.9c-.4-4.3-4-34.4-5.1-59-.3-7.8,1.5-30.4,1.5-33.7Z"/><path class="ah" d="M349.2,197.7s6.3,15.3,8.8,25.6,5.4,63.3,6.3,68.3,4,20.3,6.4,35.3,3.9,45.4,3.9,45.4l-19.3,3s-11.6-63.5-13.4-73.5S321,221,321,221l-2.4-22.7Z"/><path class="ag" d="M348.6,241.1c1.6,6.8,6.3,52.9,6.7,55.5s12.4,73.4,12.9,76.7l6.4-1s-1.5-30.3-3.9-45.4-5.5-30.3-6.4-35.3-3.9-58.1-6.3-68.3-8.8-25.6-8.8-25.6l-16.9.5S347,234.3,348.6,241.1Z"/><path class="ai" d="M349.6,197.7l-31.5.5c-1.7.1-13.4-1.1-13.4-1.1l-.3,4.7s11.4,1,16.8,1,29.5-1.3,29.5-1.3Z"/><rect class="aj" x="313.9" y="197.9" width="7.6" height="5.43" rx="0.4" transform="translate(635.3 401.3) rotate(180)"/><path class="af" d="M348.3,125.3c5.2-4.9,10.8-2.2,15.2,3.1s24.1,41.7,23.6,43.9-8.9,8.3-11.8,6.8-24.3-30.9-27.1-35.9S342.1,131.1,348.3,125.3Z"/><path class="c" d="M344.7,130.4c-.6,2.6-1.1,9.1,2.3,13.1,4.7,5.7,15.9,21.4,15.9,21.4a23.9,23.9,0,0,0,10.6-4.9c6-4.7,7.6-9.8,7.6-9.8s-17.5-23.4-22.7-26.5S346.4,123,344.7,130.4Z"/><path class="af" d="M385.7,170.4c5.8,5.2-6,16.3-12.1,21.4s-25.2,18.1-25.2,18.1l-5.9-6.2a211.4,211.4,0,0,1,27.8-32.5C371.9,169.7,379.9,165.1,385.7,170.4Z"/><path class="af" d="M338.5,221.5h0a1.6,1.6,0,0,1-.4-2.1l3.9-5.3a1.6,1.6,0,0,1,2.1-.3h0a1.5,1.5,0,0,1,.3,2.1l-3.8,5.3A1.6,1.6,0,0,1,338.5,221.5Z"/><path class="af" d="M336,220h0a1.5,1.5,0,0,1-.3-2.1l3.8-5.2a1.6,1.6,0,0,1,2.1-.4h.1a1.5,1.5,0,0,1,.3,2.1l-3.9,5.2A1.4,1.4,0,0,1,336,220Z"/><path class="af" d="M333.7,218.5h0a1.7,1.7,0,0,1-.3-2.2l3.8-5.2a1.6,1.6,0,0,1,2.2-.3h0a1.6,1.6,0,0,1,.3,2.1l-3.8,5.2A1.6,1.6,0,0,1,333.7,218.5Z"/><path class="af" d="M331.7,216.7h0a1.5,1.5,0,0,1-.4-2.1l3.9-5.2a1.5,1.5,0,0,1,2.1-.3h0a1.5,1.5,0,0,1,.3,2.1l-3.8,5.2A1.5,1.5,0,0,1,331.7,216.7Z"/><path class="af" d="M346.7,199.5s-9.3,5.3-10.7,6.8-4.9,8.9-4.9,8.9,3.6-.3,5,1,4.5,5,4.5,5,5.5-4.5,7.3-7.3a32.6,32.6,0,0,0,2.9-5.9Z"/><polygon class="ak" points="230.5 123.7 245.5 117.2 266.3 159.8 253.3 167.2 230.5 123.7"/><polygon class="al" points="232.9 124.8 245.8 119.2 263.5 155.3 252.3 161.7 232.9 124.8"/><rect class="am" x="235.6" y="119.2" width="7.8" height="3.94" rx="0.2" transform="translate(-28.2 102) rotate(-22.7)"/><rect class="am" x="237.4" y="118.3" width="2.8" height="2.73" rx="0.1" transform="translate(-27.7 101.6) rotate(-22.7)"/><path class="ad" d="M262.5,145.8s-1.3-4.7-2.5-6.5-4-2.9-4.5-3.1a5.5,5.5,0,0,1-2.3-1.7c-.3-.6-1.4-1.4-1.6-.2s.9,3.5,2.1,4.1,2.9,1.5,3.5,3l3.5,7Z"/><path class="an" d="M321.5,79.5C304.8,93,297,82.7,303.4,72.2c4.3-6.2,9.5-9.3,15.2-10.3-.5,5.3,0,10.1,4,7.6,8.1-3.6,13.8.7,17.6,10.4,7.7,17.1-5.7,19.4-8.4,12.5,6-7.6-5.4-12.2-2.9-4.2C324.8,92.2,322.7,87.9,321.5,79.5Z"/></svg>