<svg xmlns="http://www.w3.org/2000/svg" xmlns:xlink="http://www.w3.org/1999/xlink" viewBox="0 0 400 400"><defs><style>.a{fill:url(#a);}.b{fill:#21e2e2;}.c{fill:#1f364c;}.ab,.d,.i,.o{fill:#1d1d1b;}.d{opacity:0.3;}.e{fill:#b3b7d4;}.f{fill:#9d9d9c;}.g{fill:#878787;}.h{fill:#3c3c3b;}.j{fill:#575756;}.k{fill:#95c11f;}.l{fill:#fff;}.m{fill:#e94e1b;}.n{fill:#36a9e1;}.o,.x{opacity:0.5;}.p{fill:#0c4f75;}.q{fill:#0a5487;}.r{fill:#706f6f;}.s{fill:#f59b6b;}.t{fill:url(#b);}.u{fill:#455c73;}.v{fill:#0c3f6f;}.w{fill:#314151;}.y{fill:#6485a6;}.z{fill:#ffe7cb;}.aa{fill:#ffbb7d;}.ab{opacity:0.1;}.ac{fill:#005b9f;}.ad{fill:#0e71bb;}.ae{fill:#3f3f3f;opacity:0.53;}.af{fill:#333;}.ag{fill:#c0c2c1;}.ah{fill:#e6e6e6;}.ai{fill:#000100;}.aj{fill:#fe9a0f;}.ak{fill:#e2810c;}.al{fill:#dd7f10;}.am{fill:#ae4e32;}.an{fill:#9e402b;}.ao{fill:#fe9b0e;}</style><linearGradient id="a" x1="225.76" y1="363.47" x2="176.53" y2="84.25" gradientUnits="userSpaceOnUse"><stop offset="0" stop-color="#c6e6ff"/><stop offset="1" stop-color="#fff"/></linearGradient><linearGradient id="b" x1="105.94" y1="109.8" x2="165.36" y2="109.8" gradientUnits="userSpaceOnUse"><stop offset="0" stop-color="#ffbc98"/><stop offset="1" stop-color="#ff9f6c"/></linearGradient></defs><title>iran-linux-dedicated-server</title><path class="a" d="M260.9,347c-76.5,42.5-173,25.4-228.4-42.3C17.2,286,7,265.9,7.2,245.7c.8-76.8,75.4-69.6,134.3-67.9S230.6,56.6,295.2,65.7,420.3,174,380.6,248.8C361.6,284.5,309.9,319.8,260.9,347Z"/><path class="b" d="M167.5,305.8c-3.6,0-14.3-4.4-20.5-8.3h0l-.8-.5h0l-1.4-1-1.2-1a3.1,3.1,0,0,1-.9-1.3,29.3,29.3,0,0,1,.4-5.3,15.6,15.6,0,0,1,1.6-5.4l.7-7,.3-2.2h15.9l-.4,4.6-.4,5.5.6.8c1.2,1.6,4.6,5.8,12.1,11C176.4,297.7,176.6,305.8,167.5,305.8Z"/><path class="c" d="M162.5,160l4,51.6c-.9,27.6-3.8,39.6-4.9,71.4-.2,6.5-20.1,9.2-19.6,4.2-1.4-21.3-2.3-47.8.7-66.8-4.2-15-7.1-38.2-7.2-52.4Z"/><path class="b" d="M134,330.7c-3.6.1-14.3-4.3-20.4-8.2h0l-.8-.5h-.1l-1.4-1.1-.7-.6-.4-.3a5,5,0,0,1-1-1.3c.1-1.9.2-3.7.4-5.3,0-.1,0-.2.1-.2a16.9,16.9,0,0,1,1.5-5.2l.8-7,.2-2.2h15.9l-.3,4.5-.4,5.6.5.8.3.4c1.4,1.8,5,5.8,11.9,10.6C142.9,322.7,143.2,330.7,134,330.7Z"/><path class="c" d="M162.7,168.7c-1.2,8.7-7.7,13.2-15.9,15.9l-7,47.8c-5.5,27.9-7.5,40.5-11,75.7v.6a4.2,4.2,0,0,1-.6,1.4c-2,2.7-8.8,4.9-13.9,4.6a7.6,7.6,0,0,1-4.6-1.5,4.8,4.8,0,0,1-.9-1.1,3.8,3.8,0,0,1-.4-1.9c.3-7.3.3-39.4,1.3-49.7a14.9,14.9,0,0,0,.2-2.1,27,27,0,0,1,.4-2.8v-.7c.1-.3.1-.7.2-1,.2-2,.5-4.1.9-6.1l.3-1.7.3-1.6.3-1.7a8.3,8.3,0,0,1,.4-1.5c.1-.7.3-1.3.4-2s1.1-3.6,1.7-5.3c-2.7-15.4-1.5-31.9-.1-46a46.2,46.2,0,0,1-1.7-7.1c0-.2-.1-.4-.1-.6s-.4-2.7-.5-4.2-.2-4.5-.1-6.9.4-4.1.7-6.1l.6-3.2.7-.2h0l7.9-2h.1l39.2-9.8.8-.2C162.6,154.6,162.3,160.8,162.7,168.7Z"/><path class="d" d="M113,163.1c-.3,2-.6,4.1-.7,6.1a52.4,52.4,0,0,0,.1,6.9c.1,1.5.3,2.8.5,4.2s.1.4.1.6a46.2,46.2,0,0,0,1.7,7.1c-1.4,14.1-2.6,30.6,0,46-.6,1.7-1.1,3.5-1.6,5.3s-.3,1.3-.4,2a8.3,8.3,0,0,0-.4,1.5l-.3,1.7-.3,1.6-.3,1.7c-.4,2-.7,4.1-.9,6.1a9.9,9.9,0,0,0-.2,1.7,27,27,0,0,0-.4,2.8,14.9,14.9,0,0,1-.2,2.1c-1,10.3-1,42.4-1.3,49.7a3.8,3.8,0,0,0,.4,1.9,4.8,4.8,0,0,0,.9,1.1c-.1,0-.1.1-.1.2-.2,1.6-.3,3.4-.4,5.3a5,5,0,0,0,1,1.3l.4.3h.1l1.5,1.2h.1l.9.6h0c.4-2.6.8-5.1,1.1-7.5a116.7,116.7,0,0,0,1-15.9v-2.7c-.2-9.7-1.5-16.9-1.6-22.1-.2-19.2,7.8-31.8,8.3-38.2,0,0-4-29.7-2-54.8.4-4.7,4.2-11.1,7.1-14.9a10.5,10.5,0,0,1-.8-1.1l-13.2-2.6C113.1,162.6,113,162.8,113,163.1Z"/><polygon class="e" points="232.3 372.8 146.2 323.2 203.9 289.9 289.9 339.5 232.3 372.8"/><polygon class="f" points="232.3 375.5 232.3 372.8 289.9 339.5 289.9 342.2 232.3 375.5"/><polygon class="g" points="232.3 372.8 146.2 323.2 146.2 325.8 232.3 375.5 232.3 372.8"/><path class="h" d="M275.3,297.5v37.6a1.2,1.2,0,0,1-.6,1.2l-45,26h-.1l-65.3-78.6,45-26a1.4,1.4,0,0,1,1.4.1l62.6,36.2A4.4,4.4,0,0,1,275.3,297.5Z"/><path class="i" d="M165.5,326.1a4.4,4.4,0,0,1-2-3.5V285.1c0-1.2.9-1.8,2-1.1l62.7,36.2a4.2,4.2,0,0,1,2,3.4v37.5a1.5,1.5,0,0,1-.6,1.3,1.4,1.4,0,0,1-1.4-.1Z"/><path class="j" d="M178.5,292.3l-13-7.5c-.7-.4-1.2,0-1.2.7v37.6a2.6,2.6,0,0,0,1.2,2.1l13,7.5Z"/><path class="i" d="M228.2,321l-50.9-29.4v10.2l52.1,30.1v-8.7A2.7,2.7,0,0,0,228.2,321Z"/><path class="i" d="M228.2,361.4,177.3,332V301.1l52.1,30.1v29.5C229.4,361.5,228.9,361.8,228.2,361.4Z"/><polygon class="k" points="183.4 305.1 180.7 303.6 180.7 304.2 183.4 305.8 183.4 305.1"/><polygon class="h" points="186 336.1 178.2 331.6 178.2 302.8 186 307.3 186 336.1"/><path class="l" d="M183.9,330.8c0,1.2-.8,1.7-1.8,1.1a4.1,4.1,0,0,1-1.8-3.2c0-1.1.8-1.6,1.8-1A4,4,0,0,1,183.9,330.8Z"/><polygon class="i" points="179.8 325.4 179 324.9 179 319.8 179.8 320.2 179.8 325.4"/><polygon class="i" points="181.2 326.1 180.3 325.7 180.3 320.5 181.2 321 181.2 326.1"/><polygon class="i" points="182.5 326.9 181.7 326.4 181.7 321.3 182.5 321.8 182.5 326.9"/><polygon class="i" points="183.8 327.7 183 327.2 183 322.1 183.8 322.5 183.8 327.7"/><polygon class="i" points="185.1 328.4 184.3 328 184.3 322.8 185.1 323.3 185.1 328.4"/><polygon class="i" points="181.2 320.1 179 318.8 179 317.9 181.2 319.1 181.2 320.1"/><polygon class="l" points="182.5 320.8 181.7 320.4 181.7 319.4 182.5 319.9 182.5 320.8"/><polygon class="k" points="183.8 321.6 183 321.1 183 320.2 183.8 320.7 183.8 321.6"/><polygon class="m" points="185.1 322.4 184.3 321.9 184.3 321 185.1 321.4 185.1 322.4"/><path class="i" d="M184.7,307.4l-5.3-3c-.2-.2-.4-.1-.4.2v11.8a1.3,1.3,0,0,0,.4.7l5.3,3c.3.2.4.1.4-.2V308.1A.9.9,0,0,0,184.7,307.4Z"/><path class="g" d="M183,330.3c0,.6-.4.9-.9.6a2.3,2.3,0,0,1-1-1.6.6.6,0,0,1,1-.6A2,2,0,0,1,183,330.3Z"/><polygon class="i" points="180.9 303.7 178.2 302.1 178.2 302.8 180.9 304.4 180.9 303.7"/><polygon class="i" points="186 306.6 183.2 305 183.2 305.7 186 307.3 186 306.6"/><polygon class="k" points="192 310.1 189.2 308.5 189.2 309.2 192 310.7 192 310.1"/><polygon class="h" points="194.5 341 186.7 336.5 186.7 307.7 194.5 312.2 194.5 341"/><path class="l" d="M192.4,335.8c0,1.1-.8,1.6-1.8,1a4,4,0,0,1-1.8-3.1c0-1.2.8-1.7,1.8-1.1A4.1,4.1,0,0,1,192.4,335.8Z"/><polygon class="i" points="188.3 330.3 187.5 329.8 187.5 324.7 188.3 325.1 188.3 330.3"/><polygon class="i" points="189.7 331 188.9 330.6 188.9 325.4 189.7 325.9 189.7 331"/><polygon class="i" points="191 331.8 190.2 331.4 190.2 326.2 191 326.7 191 331.8"/><polygon class="i" points="192.3 332.6 191.5 332.1 191.5 327 192.3 327.4 192.3 332.6"/><polygon class="i" points="193.7 333.4 192.9 332.9 192.9 327.7 193.7 328.2 193.7 333.4"/><polygon class="i" points="189.7 325 187.5 323.7 187.5 322.8 189.7 324.1 189.7 325"/><polygon class="l" points="191 325.7 190.2 325.3 190.2 324.4 191 324.8 191 325.7"/><polygon class="k" points="192.3 326.5 191.5 326.1 191.5 325.1 192.3 325.6 192.3 326.5"/><polygon class="m" points="193.7 327.3 192.9 326.8 192.9 325.9 193.7 326.4 193.7 327.3"/><path class="i" d="M193.2,312.3l-5.3-3c-.2-.2-.4-.1-.4.2v11.8a1,1,0,0,0,.4.7l5.3,3c.3.2.5.1.5-.2V313A1,1,0,0,0,193.2,312.3Z"/><path class="g" d="M191.5,335.2c0,.6-.4.9-.9.6a2,2,0,0,1-.9-1.6c0-.6.4-.9.9-.6A2.2,2.2,0,0,1,191.5,335.2Z"/><polygon class="i" points="189.4 308.6 186.7 307 186.7 307.7 189.4 309.3 189.4 308.6"/><polygon class="i" points="194.5 311.5 191.8 309.9 191.8 310.6 194.5 312.2 194.5 311.5"/><polygon class="k" points="200.5 315 197.7 313.4 197.7 314.1 200.5 315.7 200.5 315"/><polygon class="h" points="203 346 195.2 341.5 195.2 312.6 203 317.1 203 346"/><path class="l" d="M200.9,340.7c0,1.1-.8,1.6-1.8,1a4,4,0,0,1-1.8-3.1c0-1.2.8-1.6,1.8-1.1A4.1,4.1,0,0,1,200.9,340.7Z"/><polygon class="i" points="196.9 335.2 196 334.7 196 329.6 196.9 330.1 196.9 335.2"/><polygon class="i" points="198.2 336 197.4 335.5 197.4 330.4 198.2 330.8 198.2 336"/><polygon class="i" points="199.5 336.7 198.7 336.3 198.7 331.1 199.5 331.6 199.5 336.7"/><polygon class="i" points="200.8 337.5 200 337 200 331.9 200.8 332.4 200.8 337.5"/><polygon class="i" points="202.2 338.3 201.4 337.8 201.4 332.7 202.2 333.1 202.2 338.3"/><polygon class="i" points="198.2 329.9 196 328.7 196 327.7 198.2 329 198.2 329.9"/><polygon class="l" points="199.5 330.7 198.7 330.2 198.7 329.3 199.5 329.7 199.5 330.7"/><polygon class="k" points="200.8 331.4 200 331 200 330 200.8 330.5 200.8 331.4"/><polygon class="m" points="202.2 332.2 201.4 331.7 201.4 330.8 202.2 331.3 202.2 332.2"/><path class="i" d="M201.8,317.3l-5.3-3.1c-.3-.1-.5,0-.5.2v11.8a.8.8,0,0,0,.5.7l5.3,3.1c.2.1.4,0,.4-.3V318A.8.8,0,0,0,201.8,317.3Z"/><path class="g" d="M200,340.2c0,.6-.4.8-.9.5a2,2,0,0,1-.9-1.6c0-.6.4-.9.9-.6A2.2,2.2,0,0,1,200,340.2Z"/><polygon class="i" points="197.9 313.5 195.2 311.9 195.2 312.6 197.9 314.2 197.9 313.5"/><polygon class="i" points="203 316.4 200.3 314.9 200.3 315.5 203 317.1 203 316.4"/><polygon class="k" points="209 319.9 206.3 318.3 206.3 319 209 320.6 209 319.9"/><polygon class="h" points="211.5 350.9 203.7 346.4 203.7 317.5 211.5 322 211.5 350.9"/><path class="l" d="M209.4,345.6c0,1.1-.8,1.6-1.8,1a4,4,0,0,1-1.8-3.1c0-1.2.8-1.6,1.8-1.1A4.1,4.1,0,0,1,209.4,345.6Z"/><polygon class="i" points="205.4 340.1 204.6 339.6 204.6 334.5 205.4 335 205.4 340.1"/><polygon class="i" points="206.7 340.9 205.9 340.4 205.9 335.3 206.7 335.7 206.7 340.9"/><polygon class="i" points="208 341.6 207.2 341.2 207.2 336 208 336.5 208 341.6"/><polygon class="i" points="209.4 342.4 208.5 341.9 208.6 336.8 209.4 337.3 209.4 342.4"/><polygon class="i" points="210.7 343.2 209.9 342.7 209.9 337.6 210.7 338 210.7 343.2"/><polygon class="i" points="206.7 334.8 204.6 333.6 204.6 332.6 206.7 333.9 206.7 334.8"/><polygon class="l" points="208 335.6 207.2 335.1 207.2 334.2 208 334.6 208 335.6"/><polygon class="k" points="209.4 336.3 208.6 335.9 208.6 335 209.4 335.4 209.4 336.3"/><polygon class="m" points="210.7 337.1 209.9 336.6 209.9 335.7 210.7 336.2 210.7 337.1"/><path class="i" d="M210.3,322.2l-5.3-3.1c-.3-.1-.4,0-.4.2v11.8a.7.7,0,0,0,.4.7l5.3,3.1c.2.1.4,0,.4-.3V322.9A.8.8,0,0,0,210.3,322.2Z"/><path class="g" d="M208.6,345.1c0,.6-.5.8-1,.5a2,2,0,0,1-.9-1.6c0-.6.4-.8.9-.5A2.1,2.1,0,0,1,208.6,345.1Z"/><polygon class="i" points="206.5 318.4 203.7 316.8 203.7 317.5 206.5 319.1 206.5 318.4"/><polygon class="i" points="211.5 321.4 208.8 319.8 208.8 320.5 211.5 322 211.5 321.4"/><polygon class="k" points="217.5 324.8 214.8 323.2 214.8 323.9 217.5 325.5 217.5 324.8"/><polygon class="h" points="220 355.8 212.2 351.3 212.2 322.4 220 326.9 220 355.8"/><path class="l" d="M217.9,350.5c0,1.2-.8,1.6-1.8,1a3.7,3.7,0,0,1-1.8-3.1c0-1.1.8-1.6,1.8-1A3.7,3.7,0,0,1,217.9,350.5Z"/><polygon class="i" points="213.9 345 213.1 344.6 213.1 339.4 213.9 339.9 213.9 345"/><polygon class="i" points="215.2 345.8 214.4 345.3 214.4 340.2 215.2 340.7 215.2 345.8"/><polygon class="i" points="216.5 346.6 215.7 346.1 215.7 341 216.5 341.4 216.5 346.6"/><polygon class="i" points="217.9 347.3 217.1 346.9 217.1 341.7 217.9 342.2 217.9 347.3"/><polygon class="i" points="219.2 348.1 218.4 347.6 218.4 342.5 219.2 343 219.2 348.1"/><polygon class="i" points="215.2 339.7 213.1 338.5 213.1 337.6 215.2 338.8 215.2 339.7"/><polygon class="l" points="216.5 340.5 215.7 340 215.7 339.1 216.5 339.6 216.5 340.5"/><polygon class="k" points="217.9 341.3 217.1 340.8 217.1 339.9 217.9 340.3 217.9 341.3"/><polygon class="m" points="219.2 342 218.4 341.6 218.4 340.6 219.2 341.1 219.2 342"/><path class="i" d="M218.8,327.1l-5.3-3.1c-.2-.1-.4,0-.4.3V336a.8.8,0,0,0,.4.7l5.3,3.1c.2.1.4,0,.4-.2V327.8A.8.8,0,0,0,218.8,327.1Z"/><path class="g" d="M217.1,350c0,.6-.4.8-1,.5a2,2,0,0,1-.9-1.6c0-.6.4-.8.9-.5A1.9,1.9,0,0,1,217.1,350Z"/><polygon class="i" points="215 323.3 212.2 321.8 212.2 322.4 215 324 215 323.3"/><polygon class="i" points="220 326.3 217.3 324.7 217.3 325.4 220 326.9 220 326.3"/><polygon class="k" points="226 329.7 223.3 328.1 223.3 328.8 226 330.4 226 329.7"/><polygon class="h" points="228.5 360.7 220.8 356.2 220.8 327.4 228.5 331.9 228.5 360.7"/><path class="l" d="M226.5,355.4c0,1.2-.9,1.6-1.9,1.1a4.1,4.1,0,0,1-1.8-3.2,1.1,1.1,0,0,1,1.8-1A4.2,4.2,0,0,1,226.5,355.4Z"/><polygon class="i" points="222.4 349.9 221.6 349.5 221.6 344.3 222.4 344.8 222.4 349.9"/><polygon class="i" points="223.7 350.7 222.9 350.2 222.9 345.1 223.7 345.6 223.7 350.7"/><polygon class="i" points="225.1 351.5 224.2 351 224.2 345.9 225.1 346.3 225.1 351.5"/><polygon class="i" points="226.4 352.2 225.6 351.8 225.6 346.6 226.4 347.1 226.4 352.2"/><polygon class="i" points="227.7 353 226.9 352.5 226.9 347.4 227.7 347.9 227.7 353"/><polygon class="i" points="223.7 344.6 221.6 343.4 221.6 342.5 223.7 343.7 223.7 344.6"/><polygon class="l" points="225.1 345.4 224.2 344.9 224.2 344 225.1 344.5 225.1 345.4"/><polygon class="k" points="226.4 346.2 225.6 345.7 225.6 344.8 226.4 345.2 226.4 346.2"/><polygon class="m" points="227.7 346.9 226.9 346.5 226.9 345.6 227.7 346 227.7 346.9"/><path class="i" d="M227.3,332l-5.3-3.1c-.2-.1-.4,0-.4.3v11.7a.8.8,0,0,0,.4.7l5.3,3.1c.2.1.4,0,.4-.2V332.7A.8.8,0,0,0,227.3,332Z"/><path class="g" d="M225.6,354.9c0,.6-.4.8-1,.5a2,2,0,0,1-.9-1.6c0-.6.4-.8.9-.5A1.9,1.9,0,0,1,225.6,354.9Z"/><polygon class="i" points="223.5 328.3 220.8 326.7 220.8 327.4 223.5 328.9 223.5 328.3"/><polygon class="i" points="228.5 331.2 225.8 329.6 225.8 330.3 228.5 331.9 228.5 331.2"/><polygon class="n" points="195.2 308.6 181 300.4 181 296.6 195.2 304.8 195.2 308.6"/><polygon class="j" points="227.1 327 226 326.4 226 322.5 227.1 323.2 227.1 327"/><polygon class="j" points="224.8 325.7 223.7 325 223.7 321.2 224.8 321.9 224.8 325.7"/><polygon class="k" points="172.3 298.9 169.6 297.3 169.6 297.6 172.3 299.2 172.3 298.9"/><polygon class="i" points="169.8 297.4 167 295.8 167 296.2 169.8 297.7 169.8 297.4"/><polygon class="i" points="174.8 300.3 172.1 298.8 172.1 299.1 174.8 300.7 174.8 300.3"/><polygon class="k" points="172.3 300.2 169.6 298.7 169.6 299 172.3 300.6 172.3 300.2"/><polygon class="i" points="169.8 298.8 167 297.2 167 297.5 169.8 299.1 169.8 298.8"/><polygon class="i" points="174.8 301.7 172.1 300.1 172.1 300.5 174.8 302 174.8 301.7"/><polygon class="k" points="172.3 301.6 169.6 300 169.6 300.4 172.3 302 172.3 301.6"/><polygon class="i" points="169.8 300.2 167 298.6 167 298.9 169.8 300.5 169.8 300.2"/><polygon class="i" points="174.8 303.1 172.1 301.5 172.1 301.8 174.8 303.4 174.8 303.1"/><path class="h" d="M173.8,321.9l-5.5-3.2a1.1,1.1,0,0,1-.5-.8v-2.2c0-.3.3-.5.5-.3l5.5,3.2a.9.9,0,0,1,.5.8v2.2C174.3,321.9,174.1,322,173.8,321.9Z"/><path class="i" d="M173.8,326.9l-5.5-3.2a1.1,1.1,0,0,1-.5-.8v-2.2a.3.3,0,0,1,.5-.3l5.5,3.2a.9.9,0,0,1,.5.8v2.2C174.3,326.9,174.1,327.1,173.8,326.9Z"/><polygon class="l" points="175.8 294.8 166.2 289.3 166.2 288 175.8 293.6 175.8 294.8"/><path class="o" d="M275.3,305.5v29.6a1.2,1.2,0,0,1-.6,1.2l-45,26a1.6,1.6,0,0,0,.5-1.1V331.5Z"/><path class="i" d="M178.1,282.8l19.7,11.3a4.5,4.5,0,0,0,4.2,0l8.9-5.1a1.3,1.3,0,0,0,0-2.5l-19.7-11.3a4.5,4.5,0,0,0-4.2,0l-8.9,5.1A1.3,1.3,0,0,0,178.1,282.8Z"/><path class="i" d="M196.7,271.8l19.7,11.4a4.5,4.5,0,0,0,4.2,0l9-5.2c1.1-.6,1.1-1.7,0-2.4l-19.7-11.3a4.5,4.5,0,0,0-4.2,0l-9,5.1C195.6,270.1,195.6,271.2,196.7,271.8Z"/><path class="i" d="M209.5,300.9l19.7,11.3a4.5,4.5,0,0,0,4.2,0l8.9-5.1a1.3,1.3,0,0,0,0-2.5l-19.6-11.3a4.5,4.5,0,0,0-4.2,0l-9,5.1A1.4,1.4,0,0,0,209.5,300.9Z"/><path class="i" d="M228.2,289.9l19.7,11.4a4.5,4.5,0,0,0,4.2,0l8.9-5.2c1.2-.6,1.2-1.7,0-2.4l-19.7-11.3a4.5,4.5,0,0,0-4.2,0l-8.9,5.1C227,288.2,227,289.3,228.2,289.9Z"/><polygon class="e" points="232.3 319.1 146.2 269.4 203.9 236.1 289.9 285.8 232.3 319.1"/><polygon class="f" points="232.3 321.8 232.3 319.1 289.9 285.8 289.9 288.5 232.3 321.8"/><polygon class="g" points="232.3 319.1 146.2 269.4 146.2 272.1 232.3 321.8 232.3 319.1"/><path class="h" d="M275.3,243.1v37.6a1.2,1.2,0,0,1-.6,1.2l-45,26h-.1l-65.3-78.6,45-26c.3-.3.8-.2,1.4.1l62.6,36.2A4.4,4.4,0,0,1,275.3,243.1Z"/><path class="i" d="M165.5,271.7a4.4,4.4,0,0,1-2-3.5V230.7c0-1.3.9-1.8,2-1.1l62.7,36.2a4.2,4.2,0,0,1,2,3.4v37.5a1.5,1.5,0,0,1-.6,1.3,1.4,1.4,0,0,1-1.4-.1Z"/><path class="j" d="M178.5,237.9l-13-7.5c-.7-.4-1.2-.1-1.2.7v37.6a2.6,2.6,0,0,0,1.2,2.1l13,7.5Z"/><path class="i" d="M228.2,266.6l-50.9-29.4v10.2l52.1,30v-8.6A2.7,2.7,0,0,0,228.2,266.6Z"/><path class="i" d="M228.2,307l-50.9-29.4V246.7l52.1,30.1v29.5C229.4,307.1,228.9,307.4,228.2,307Z"/><polygon class="k" points="183.4 250.7 180.7 249.2 180.7 249.8 183.4 251.4 183.4 250.7"/><polygon class="h" points="186 281.7 178.2 277.2 178.2 248.4 186 252.9 186 281.7"/><path class="l" d="M183.9,276.4c0,1.2-.8,1.7-1.8,1.1a4.1,4.1,0,0,1-1.8-3.2c0-1.1.8-1.6,1.8-1A4,4,0,0,1,183.9,276.4Z"/><polygon class="i" points="179.8 271 179 270.5 179 265.4 179.8 265.8 179.8 271"/><polygon class="i" points="181.2 271.7 180.3 271.3 180.3 266.1 181.2 266.6 181.2 271.7"/><polygon class="i" points="182.5 272.5 181.7 272 181.7 266.9 182.5 267.4 182.5 272.5"/><polygon class="i" points="183.8 273.3 183 272.8 183 267.7 183.8 268.1 183.8 273.3"/><polygon class="i" points="185.1 274 184.3 273.6 184.3 268.4 185.1 268.9 185.1 274"/><polygon class="i" points="181.2 265.7 179 264.4 179 263.5 181.2 264.7 181.2 265.7"/><polygon class="l" points="182.5 266.4 181.7 266 181.7 265 182.5 265.5 182.5 266.4"/><polygon class="k" points="183.8 267.2 183 266.7 183 265.8 183.8 266.3 183.8 267.2"/><polygon class="m" points="185.1 268 184.3 267.5 184.3 266.6 185.1 267 185.1 268"/><path class="i" d="M184.7,253l-5.3-3c-.2-.2-.4-.1-.4.2V262a1.3,1.3,0,0,0,.4.7l5.3,3c.3.2.4.1.4-.2V253.7C185.1,253.5,185,253.1,184.7,253Z"/><path class="g" d="M183,275.9c0,.6-.4.9-.9.6a2.3,2.3,0,0,1-1-1.6.6.6,0,0,1,1-.6A2,2,0,0,1,183,275.9Z"/><polygon class="i" points="180.9 249.3 178.2 247.7 178.2 248.4 180.9 250 180.9 249.3"/><polygon class="i" points="186 252.2 183.2 250.6 183.2 251.3 186 252.9 186 252.2"/><polygon class="k" points="192 255.7 189.2 254.1 189.2 254.8 192 256.3 192 255.7"/><polygon class="h" points="194.5 286.6 186.7 282.1 186.7 253.3 194.5 257.8 194.5 286.6"/><path class="l" d="M192.4,281.3c0,1.2-.8,1.7-1.8,1.1a4,4,0,0,1-1.8-3.1c0-1.2.8-1.7,1.8-1.1A4,4,0,0,1,192.4,281.3Z"/><polygon class="i" points="188.3 275.9 187.5 275.4 187.5 270.3 188.3 270.7 188.3 275.9"/><polygon class="i" points="189.7 276.6 188.9 276.2 188.9 271 189.7 271.5 189.7 276.6"/><polygon class="i" points="191 277.4 190.2 276.9 190.2 271.8 191 272.3 191 277.4"/><polygon class="i" points="192.3 278.2 191.5 277.7 191.5 272.6 192.3 273 192.3 278.2"/><polygon class="i" points="193.7 278.9 192.9 278.5 192.9 273.3 193.7 273.8 193.7 278.9"/><polygon class="i" points="189.7 270.6 187.5 269.3 187.5 268.4 189.7 269.6 189.7 270.6"/><polygon class="l" points="191 271.3 190.2 270.9 190.2 270 191 270.4 191 271.3"/><polygon class="k" points="192.3 272.1 191.5 271.6 191.5 270.7 192.3 271.2 192.3 272.1"/><polygon class="m" points="193.7 272.9 192.9 272.4 192.9 271.5 193.7 271.9 193.7 272.9"/><path class="i" d="M193.2,257.9l-5.3-3c-.2-.2-.4-.1-.4.2v11.8a1,1,0,0,0,.4.7l5.3,3c.3.2.5.1.5-.2V258.6A1,1,0,0,0,193.2,257.9Z"/><path class="g" d="M191.5,280.8c0,.6-.4.9-.9.6a2,2,0,0,1-.9-1.6c0-.6.4-.9.9-.6A2,2,0,0,1,191.5,280.8Z"/><polygon class="i" points="189.4 254.2 186.7 252.6 186.7 253.3 189.4 254.9 189.4 254.2"/><polygon class="i" points="194.5 257.1 191.8 255.5 191.8 256.2 194.5 257.8 194.5 257.1"/><polygon class="k" points="200.5 260.6 197.7 259 197.7 259.7 200.5 261.3 200.5 260.6"/><polygon class="h" points="203 291.6 195.2 287.1 195.2 258.2 203 262.7 203 291.6"/><path class="l" d="M200.9,286.3c0,1.1-.8,1.6-1.8,1a4,4,0,0,1-1.8-3.1c0-1.2.8-1.6,1.8-1.1A4.1,4.1,0,0,1,200.9,286.3Z"/><polygon class="i" points="196.9 280.8 196 280.3 196 275.2 196.9 275.7 196.9 280.8"/><polygon class="i" points="198.2 281.6 197.4 281.1 197.4 276 198.2 276.4 198.2 281.6"/><polygon class="i" points="199.5 282.3 198.7 281.9 198.7 276.7 199.5 277.2 199.5 282.3"/><polygon class="i" points="200.8 283.1 200 282.6 200 277.5 200.8 278 200.8 283.1"/><polygon class="i" points="202.2 283.9 201.4 283.4 201.4 278.3 202.2 278.7 202.2 283.9"/><polygon class="i" points="198.2 275.5 196 274.3 196 273.3 198.2 274.6 198.2 275.5"/><polygon class="l" points="199.5 276.3 198.7 275.8 198.7 274.9 199.5 275.3 199.5 276.3"/><polygon class="k" points="200.8 277 200 276.6 200 275.6 200.8 276.1 200.8 277"/><polygon class="m" points="202.2 277.8 201.4 277.3 201.4 276.4 202.2 276.9 202.2 277.8"/><path class="i" d="M201.8,262.8l-5.3-3c-.3-.1-.5,0-.5.2v11.8a.9.9,0,0,0,.5.7l5.3,3.1c.2.1.4,0,.4-.3V263.6A1.2,1.2,0,0,0,201.8,262.8Z"/><path class="g" d="M200,285.8c0,.6-.4.8-.9.5a2,2,0,0,1-.9-1.6c0-.6.4-.9.9-.6A2.2,2.2,0,0,1,200,285.8Z"/><polygon class="i" points="197.9 259.1 195.2 257.5 195.2 258.2 197.9 259.8 197.9 259.1"/><polygon class="i" points="203 262 200.3 260.5 200.3 261.1 203 262.7 203 262"/><polygon class="k" points="209 265.5 206.3 263.9 206.3 264.6 209 266.2 209 265.5"/><polygon class="h" points="211.5 296.5 203.7 292 203.7 263.1 211.5 267.6 211.5 296.5"/><path class="l" d="M209.4,291.2c0,1.1-.8,1.6-1.8,1a4,4,0,0,1-1.8-3.1c0-1.2.8-1.6,1.8-1.1A4.1,4.1,0,0,1,209.4,291.2Z"/><polygon class="i" points="205.4 285.7 204.6 285.2 204.6 280.1 205.4 280.6 205.4 285.7"/><polygon class="i" points="206.7 286.5 205.9 286 205.9 280.9 206.7 281.3 206.7 286.5"/><polygon class="i" points="208 287.2 207.2 286.8 207.2 281.6 208 282.1 208 287.2"/><polygon class="i" points="209.4 288 208.5 287.5 208.6 282.4 209.4 282.9 209.4 288"/><polygon class="i" points="210.7 288.8 209.9 288.3 209.9 283.2 210.7 283.6 210.7 288.8"/><polygon class="i" points="206.7 280.4 204.6 279.2 204.6 278.2 206.7 279.5 206.7 280.4"/><polygon class="l" points="208 281.2 207.2 280.7 207.2 279.8 208 280.2 208 281.2"/><polygon class="k" points="209.4 281.9 208.6 281.5 208.6 280.5 209.4 281 209.4 281.9"/><polygon class="m" points="210.7 282.7 209.9 282.2 209.9 281.3 210.7 281.8 210.7 282.7"/><path class="i" d="M210.3,267.8l-5.3-3.1c-.3-.1-.4,0-.4.2v11.8a.7.7,0,0,0,.4.7l5.3,3.1c.2.1.4,0,.4-.3V268.5A.8.8,0,0,0,210.3,267.8Z"/><path class="g" d="M208.6,290.7c0,.6-.5.8-1,.5a2,2,0,0,1-.9-1.6c0-.6.4-.8.9-.5A2.1,2.1,0,0,1,208.6,290.7Z"/><polygon class="i" points="206.5 264 203.7 262.4 203.7 263.1 206.5 264.7 206.5 264"/><polygon class="i" points="211.5 266.9 208.8 265.4 208.8 266 211.5 267.6 211.5 266.9"/><polygon class="k" points="217.5 270.4 214.8 268.8 214.8 269.5 217.5 271.1 217.5 270.4"/><polygon class="h" points="220 301.4 212.2 296.9 212.2 268 220 272.5 220 301.4"/><path class="l" d="M217.9,296.1c0,1.1-.8,1.6-1.8,1a3.7,3.7,0,0,1-1.8-3.1c0-1.1.8-1.6,1.8-1A3.7,3.7,0,0,1,217.9,296.1Z"/><polygon class="i" points="213.9 290.6 213.1 290.2 213.1 285 213.9 285.5 213.9 290.6"/><polygon class="i" points="215.2 291.4 214.4 290.9 214.4 285.8 215.2 286.3 215.2 291.4"/><polygon class="i" points="216.5 292.2 215.7 291.7 215.7 286.6 216.5 287 216.5 292.2"/><polygon class="i" points="217.9 292.9 217.1 292.5 217.1 287.3 217.9 287.8 217.9 292.9"/><polygon class="i" points="219.2 293.7 218.4 293.2 218.4 288.1 219.2 288.6 219.2 293.7"/><polygon class="i" points="215.2 285.3 213.1 284.1 213.1 283.2 215.2 284.4 215.2 285.3"/><polygon class="l" points="216.5 286.1 215.7 285.6 215.7 284.7 216.5 285.2 216.5 286.1"/><polygon class="k" points="217.9 286.9 217.1 286.4 217.1 285.5 217.9 285.9 217.9 286.9"/><polygon class="m" points="219.2 287.6 218.4 287.2 218.4 286.2 219.2 286.7 219.2 287.6"/><path class="i" d="M218.8,272.7l-5.3-3.1c-.2-.1-.4,0-.4.3v11.7a.8.8,0,0,0,.4.7l5.3,3.1c.2.1.4,0,.4-.2V273.4A.8.8,0,0,0,218.8,272.7Z"/><path class="g" d="M217.1,295.6c0,.6-.4.8-1,.5a2,2,0,0,1-.9-1.6c0-.6.4-.8.9-.5A1.9,1.9,0,0,1,217.1,295.6Z"/><polygon class="i" points="215 268.9 212.2 267.4 212.2 268 215 269.6 215 268.9"/><polygon class="i" points="220 271.9 217.3 270.3 217.3 271 220 272.5 220 271.9"/><polygon class="k" points="226 275.3 223.3 273.7 223.3 274.4 226 276 226 275.3"/><polygon class="h" points="228.5 306.3 220.8 301.8 220.8 273 228.5 277.5 228.5 306.3"/><path class="l" d="M226.5,301c0,1.2-.9,1.6-1.9,1.1a4.1,4.1,0,0,1-1.8-3.2,1.1,1.1,0,0,1,1.8-1A4.2,4.2,0,0,1,226.5,301Z"/><polygon class="i" points="222.4 295.5 221.6 295.1 221.6 289.9 222.4 290.4 222.4 295.5"/><polygon class="i" points="223.7 296.3 222.9 295.8 222.9 290.7 223.7 291.2 223.7 296.3"/><polygon class="i" points="225.1 297.1 224.2 296.6 224.2 291.5 225.1 291.9 225.1 297.1"/><polygon class="i" points="226.4 297.8 225.6 297.4 225.6 292.2 226.4 292.7 226.4 297.8"/><polygon class="i" points="227.7 298.6 226.9 298.1 226.9 293 227.7 293.5 227.7 298.6"/><polygon class="i" points="223.7 290.2 221.6 289 221.6 288.1 223.7 289.3 223.7 290.2"/><polygon class="l" points="225.1 291 224.2 290.5 224.2 289.6 225.1 290.1 225.1 291"/><polygon class="k" points="226.4 291.8 225.6 291.3 225.6 290.4 226.4 290.8 226.4 291.8"/><polygon class="m" points="227.7 292.5 226.9 292.1 226.9 291.1 227.7 291.6 227.7 292.5"/><path class="i" d="M227.3,277.6l-5.3-3.1c-.2-.1-.4,0-.4.3v11.7a.8.8,0,0,0,.4.7l5.3,3.1c.2.1.4,0,.4-.2V278.3A.8.8,0,0,0,227.3,277.6Z"/><path class="g" d="M225.6,300.5c0,.6-.4.8-1,.5a2,2,0,0,1-.9-1.6c0-.6.4-.8.9-.5A1.9,1.9,0,0,1,225.6,300.5Z"/><polygon class="i" points="223.5 273.9 220.8 272.3 220.8 273 223.5 274.5 223.5 273.9"/><polygon class="i" points="228.5 276.8 225.8 275.2 225.8 275.9 228.5 277.5 228.5 276.8"/><polygon class="n" points="195.2 254.2 181 246 181 242.2 195.2 250.4 195.2 254.2"/><polygon class="j" points="227.1 272.6 226 272 226 268.1 227.1 268.8 227.1 272.6"/><polygon class="j" points="224.8 271.3 223.7 270.6 223.7 266.8 224.8 267.5 224.8 271.3"/><polygon class="k" points="172.3 244.5 169.6 242.9 169.6 243.2 172.3 244.8 172.3 244.5"/><polygon class="i" points="169.8 243 167 241.4 167 241.8 169.8 243.3 169.8 243"/><polygon class="i" points="174.8 245.9 172.1 244.3 172.1 244.7 174.8 246.3 174.8 245.9"/><polygon class="k" points="172.3 245.8 169.6 244.3 169.6 244.6 172.3 246.2 172.3 245.8"/><polygon class="i" points="169.8 244.4 167 242.8 167 243.1 169.8 244.7 169.8 244.4"/><polygon class="i" points="174.8 247.3 172.1 245.7 172.1 246.1 174.8 247.6 174.8 247.3"/><polygon class="k" points="172.3 247.2 169.6 245.6 169.6 246 172.3 247.6 172.3 247.2"/><polygon class="i" points="169.8 245.8 167 244.2 167 244.5 169.8 246.1 169.8 245.8"/><polygon class="i" points="174.8 248.7 172.1 247.1 172.1 247.4 174.8 249 174.8 248.7"/><path class="h" d="M173.8,267.5l-5.5-3.2a1.1,1.1,0,0,1-.5-.8v-2.2c0-.3.3-.5.5-.3l5.5,3.2a.9.9,0,0,1,.5.8v2.2C174.3,267.5,174.1,267.6,173.8,267.5Z"/><path class="i" d="M173.8,272.5l-5.5-3.2a1.1,1.1,0,0,1-.5-.8v-2.2a.3.3,0,0,1,.5-.3l5.5,3.2a.9.9,0,0,1,.5.8v2.2C174.3,272.5,174.1,272.6,173.8,272.5Z"/><polygon class="l" points="175.8 240.4 166.2 234.9 166.2 233.6 175.8 239.2 175.8 240.4"/><path class="o" d="M275.3,251.1v29.6a1.2,1.2,0,0,1-.6,1.2l-45,26a1.6,1.6,0,0,0,.5-1.1V277.1Z"/><path class="i" d="M178.1,228.4l19.7,11.3a4.5,4.5,0,0,0,4.2,0l8.9-5.1a1.3,1.3,0,0,0,0-2.5l-19.7-11.3a4.5,4.5,0,0,0-4.2,0l-8.9,5.1A1.3,1.3,0,0,0,178.1,228.4Z"/><path class="i" d="M196.7,217.4l19.7,11.4a4.5,4.5,0,0,0,4.2,0l9-5.2c1.1-.6,1.1-1.7,0-2.4l-19.7-11.4a5.1,5.1,0,0,0-4.2,0l-9,5.2C195.6,215.7,195.6,216.8,196.7,217.4Z"/><path class="i" d="M209.5,246.5l19.7,11.3a4.5,4.5,0,0,0,4.2,0l8.9-5.1a1.3,1.3,0,0,0,0-2.5l-19.6-11.3a4.5,4.5,0,0,0-4.2,0l-9,5.1A1.4,1.4,0,0,0,209.5,246.5Z"/><path class="i" d="M228.2,235.5l19.7,11.4a4.5,4.5,0,0,0,4.2,0l8.9-5.2c1.2-.6,1.2-1.7,0-2.4l-19.7-11.4a5.1,5.1,0,0,0-4.2,0l-8.9,5.2C227,233.8,227,234.9,228.2,235.5Z"/><polygon class="e" points="232.3 264.7 146.2 215 203.9 181.7 289.9 231.4 232.3 264.7"/><polygon class="f" points="232.3 267.4 232.3 264.7 289.9 231.4 289.9 234.1 232.3 267.4"/><polygon class="g" points="232.3 264.7 146.2 215 146.2 217.7 232.3 267.4 232.3 264.7"/><path class="h" d="M275.3,188.7v37.6a1.2,1.2,0,0,1-.6,1.2l-45,26h-.1L164.3,175l45-26c.3-.3.8-.2,1.4.1l62.6,36.2A4.4,4.4,0,0,1,275.3,188.7Z"/><path class="i" d="M165.5,217.3a4.4,4.4,0,0,1-2-3.5V176.3c0-1.3.9-1.8,2-1.1l62.7,36.1a4.6,4.6,0,0,1,2,3.5v37.5a1.5,1.5,0,0,1-.6,1.3,1.4,1.4,0,0,1-1.4-.1Z"/><path class="j" d="M178.5,183.5l-13-7.5c-.7-.4-1.2-.1-1.2.7v37.6a2.6,2.6,0,0,0,1.2,2.1l13,7.5Z"/><path class="i" d="M228.2,212.2l-50.9-29.4v10.1L229.4,223v-8.6A2.7,2.7,0,0,0,228.2,212.2Z"/><path class="i" d="M228.2,252.6l-50.9-29.4V192.3l52.1,30.1v29.5C229.4,252.7,228.9,253,228.2,252.6Z"/><polygon class="k" points="183.4 196.3 180.7 194.8 180.7 195.4 183.4 197 183.4 196.3"/><polygon class="h" points="186 227.3 178.2 222.8 178.2 194 186 198.5 186 227.3"/><path class="l" d="M183.9,222c0,1.2-.8,1.7-1.8,1.1a4.1,4.1,0,0,1-1.8-3.2c0-1.1.8-1.6,1.8-1A4,4,0,0,1,183.9,222Z"/><polygon class="i" points="179.8 216.6 179 216.1 179 211 179.8 211.4 179.8 216.6"/><polygon class="i" points="181.2 217.3 180.3 216.9 180.3 211.7 181.2 212.2 181.2 217.3"/><polygon class="i" points="182.5 218.1 181.7 217.6 181.7 212.5 182.5 213 182.5 218.1"/><polygon class="i" points="183.8 218.9 183 218.4 183 213.3 183.8 213.7 183.8 218.9"/><polygon class="i" points="185.1 219.6 184.3 219.2 184.3 214 185.1 214.5 185.1 219.6"/><polygon class="i" points="181.2 211.3 179 210 179 209.1 181.2 210.3 181.2 211.3"/><polygon class="l" points="182.5 212 181.7 211.6 181.7 210.6 182.5 211.1 182.5 212"/><polygon class="k" points="183.8 212.8 183 212.3 183 211.4 183.8 211.9 183.8 212.8"/><polygon class="m" points="185.1 213.6 184.3 213.1 184.3 212.2 185.1 212.6 185.1 213.6"/><path class="i" d="M184.7,198.6l-5.3-3c-.2-.2-.4-.1-.4.2v11.8a1.3,1.3,0,0,0,.4.7l5.3,3c.3.2.4.1.4-.2V199.3C185.1,199.1,185,198.7,184.7,198.6Z"/><path class="g" d="M183,221.5c0,.6-.4.9-.9.6a2.3,2.3,0,0,1-1-1.7.6.6,0,0,1,1-.5A2,2,0,0,1,183,221.5Z"/><polygon class="i" points="180.9 194.9 178.2 193.3 178.2 194 180.9 195.6 180.9 194.9"/><polygon class="i" points="186 197.8 183.2 196.2 183.2 196.9 186 198.5 186 197.8"/><polygon class="k" points="192 201.3 189.2 199.7 189.2 200.4 192 201.9 192 201.3"/><polygon class="h" points="194.5 232.2 186.7 227.7 186.7 198.9 194.5 203.4 194.5 232.2"/><path class="l" d="M192.4,226.9c0,1.2-.8,1.7-1.8,1.1a4,4,0,0,1-1.8-3.1c0-1.2.8-1.7,1.8-1.1A4,4,0,0,1,192.4,226.9Z"/><polygon class="i" points="188.3 221.5 187.5 221 187.5 215.9 188.3 216.3 188.3 221.5"/><polygon class="i" points="189.7 222.2 188.9 221.8 188.9 216.6 189.7 217.1 189.7 222.2"/><polygon class="i" points="191 223 190.2 222.5 190.2 217.4 191 217.9 191 223"/><polygon class="i" points="192.3 223.8 191.5 223.3 191.5 218.2 192.3 218.6 192.3 223.8"/><polygon class="i" points="193.7 224.5 192.9 224.1 192.9 218.9 193.7 219.4 193.7 224.5"/><polygon class="i" points="189.7 216.2 187.5 214.9 187.5 214 189.7 215.2 189.7 216.2"/><polygon class="l" points="191 216.9 190.2 216.5 190.2 215.5 191 216 191 216.9"/><polygon class="k" points="192.3 217.7 191.5 217.2 191.5 216.3 192.3 216.8 192.3 217.7"/><polygon class="m" points="193.7 218.5 192.9 218 192.9 217.1 193.7 217.5 193.7 218.5"/><path class="i" d="M193.2,203.5l-5.3-3c-.2-.2-.4-.1-.4.2v11.8a1.3,1.3,0,0,0,.4.7l5.3,3c.3.2.5.1.5-.2V204.2A1,1,0,0,0,193.2,203.5Z"/><path class="g" d="M191.5,226.4c0,.6-.4.9-.9.6a2,2,0,0,1-.9-1.6c0-.6.4-.9.9-.6A2,2,0,0,1,191.5,226.4Z"/><polygon class="i" points="189.4 199.8 186.7 198.2 186.7 198.9 189.4 200.5 189.4 199.8"/><polygon class="i" points="194.5 202.7 191.8 201.1 191.8 201.8 194.5 203.4 194.5 202.7"/><polygon class="k" points="200.5 206.2 197.7 204.6 197.7 205.3 200.5 206.8 200.5 206.2"/><polygon class="h" points="203 237.2 195.2 232.7 195.2 203.8 203 208.3 203 237.2"/><path class="l" d="M200.9,231.9c0,1.1-.8,1.6-1.8,1a4,4,0,0,1-1.8-3.1c0-1.2.8-1.6,1.8-1.1A4.1,4.1,0,0,1,200.9,231.9Z"/><polygon class="i" points="196.9 226.4 196 225.9 196 220.8 196.9 221.2 196.9 226.4"/><polygon class="i" points="198.2 227.2 197.4 226.7 197.4 221.6 198.2 222 198.2 227.2"/><polygon class="i" points="199.5 227.9 198.7 227.5 198.7 222.3 199.5 222.8 199.5 227.9"/><polygon class="i" points="200.8 228.7 200 228.2 200 223.1 200.8 223.6 200.8 228.7"/><polygon class="i" points="202.2 229.5 201.4 229 201.4 223.9 202.2 224.3 202.2 229.5"/><polygon class="i" points="198.2 221.1 196 219.9 196 218.9 198.2 220.2 198.2 221.1"/><polygon class="l" points="199.5 221.9 198.7 221.4 198.7 220.5 199.5 220.9 199.5 221.9"/><polygon class="k" points="200.8 222.6 200 222.2 200 221.2 200.8 221.7 200.8 222.6"/><polygon class="m" points="202.2 223.4 201.4 222.9 201.4 222 202.2 222.5 202.2 223.4"/><path class="i" d="M201.8,208.4l-5.3-3c-.3-.1-.5,0-.5.2v11.8a.9.9,0,0,0,.5.7l5.3,3.1c.2.1.4,0,.4-.3V209.2A1.2,1.2,0,0,0,201.8,208.4Z"/><path class="g" d="M200,231.4a.6.6,0,0,1-.9.5,2,2,0,0,1-.9-1.6c0-.6.4-.9.9-.6A2.2,2.2,0,0,1,200,231.4Z"/><polygon class="i" points="197.9 204.7 195.2 203.1 195.2 203.8 197.9 205.4 197.9 204.7"/><polygon class="i" points="203 207.6 200.3 206.1 200.3 206.7 203 208.3 203 207.6"/><polygon class="k" points="209 211.1 206.3 209.5 206.3 210.2 209 211.8 209 211.1"/><polygon class="h" points="211.5 242.1 203.7 237.6 203.7 208.7 211.5 213.2 211.5 242.1"/><path class="l" d="M209.4,236.8c0,1.1-.8,1.6-1.8,1a4,4,0,0,1-1.8-3.1c0-1.2.8-1.6,1.8-1.1A4.1,4.1,0,0,1,209.4,236.8Z"/><polygon class="i" points="205.4 231.3 204.6 230.8 204.6 225.7 205.4 226.2 205.4 231.3"/><polygon class="i" points="206.7 232.1 205.9 231.6 205.9 226.5 206.7 226.9 206.7 232.1"/><polygon class="i" points="208 232.8 207.2 232.4 207.2 227.2 208 227.7 208 232.8"/><polygon class="i" points="209.4 233.6 208.5 233.1 208.6 228 209.4 228.5 209.4 233.6"/><polygon class="i" points="210.7 234.4 209.9 233.9 209.9 228.8 210.7 229.2 210.7 234.4"/><polygon class="i" points="206.7 226 204.6 224.8 204.6 223.8 206.7 225.1 206.7 226"/><polygon class="l" points="208 226.8 207.2 226.3 207.2 225.4 208 225.8 208 226.8"/><polygon class="k" points="209.4 227.5 208.6 227.1 208.6 226.1 209.4 226.6 209.4 227.5"/><polygon class="m" points="210.7 228.3 209.9 227.8 209.9 226.9 210.7 227.4 210.7 228.3"/><path class="i" d="M210.3,213.4l-5.3-3.1c-.3-.1-.4,0-.4.2v11.8a.7.7,0,0,0,.4.7l5.3,3.1c.2.1.4,0,.4-.3V214.1A.8.8,0,0,0,210.3,213.4Z"/><path class="g" d="M208.6,236.3c0,.6-.5.8-1,.5a2,2,0,0,1-.9-1.6c0-.6.4-.8.9-.5A2.1,2.1,0,0,1,208.6,236.3Z"/><polygon class="i" points="206.5 209.6 203.7 208 203.7 208.7 206.5 210.3 206.5 209.6"/><polygon class="i" points="211.5 212.5 208.8 211 208.8 211.6 211.5 213.2 211.5 212.5"/><polygon class="k" points="217.5 216 214.8 214.4 214.8 215.1 217.5 216.7 217.5 216"/><polygon class="h" points="220 247 212.2 242.5 212.2 213.6 220 218.1 220 247"/><path class="l" d="M217.9,241.7c0,1.1-.8,1.6-1.8,1a3.7,3.7,0,0,1-1.8-3.1c0-1.2.8-1.6,1.8-1A3.7,3.7,0,0,1,217.9,241.7Z"/><polygon class="i" points="213.9 236.2 213.1 235.8 213.1 230.6 213.9 231.1 213.9 236.2"/><polygon class="i" points="215.2 237 214.4 236.5 214.4 231.4 215.2 231.8 215.2 237"/><polygon class="i" points="216.5 237.8 215.7 237.3 215.7 232.2 216.5 232.6 216.5 237.8"/><polygon class="i" points="217.9 238.5 217.1 238.1 217.1 232.9 217.9 233.4 217.9 238.5"/><polygon class="i" points="219.2 239.3 218.4 238.8 218.4 233.7 219.2 234.1 219.2 239.3"/><polygon class="i" points="215.2 230.9 213.1 229.7 213.1 228.8 215.2 230 215.2 230.9"/><polygon class="l" points="216.5 231.7 215.7 231.2 215.7 230.3 216.5 230.8 216.5 231.7"/><polygon class="k" points="217.9 232.5 217.1 232 217.1 231.1 217.9 231.5 217.9 232.5"/><polygon class="m" points="219.2 233.2 218.4 232.8 218.4 231.8 219.2 232.3 219.2 233.2"/><path class="i" d="M218.8,218.3l-5.3-3.1c-.2-.1-.4,0-.4.2v11.8a.8.8,0,0,0,.4.7l5.3,3.1c.2.1.4,0,.4-.2V219A.8.8,0,0,0,218.8,218.3Z"/><path class="g" d="M217.1,241.2c0,.6-.4.8-1,.5a2,2,0,0,1-.9-1.6c0-.6.4-.8.9-.5A1.9,1.9,0,0,1,217.1,241.2Z"/><polygon class="i" points="215 214.5 212.2 213 212.2 213.6 215 215.2 215 214.5"/><polygon class="i" points="220 217.5 217.3 215.9 217.3 216.6 220 218.1 220 217.5"/><polygon class="k" points="226 220.9 223.3 219.3 223.3 220 226 221.6 226 220.9"/><polygon class="h" points="228.5 251.9 220.8 247.4 220.8 218.6 228.5 223.1 228.5 251.9"/><path class="l" d="M226.5,246.6c0,1.2-.9,1.6-1.9,1.1a4.1,4.1,0,0,1-1.8-3.2,1.1,1.1,0,0,1,1.8-1A4.2,4.2,0,0,1,226.5,246.6Z"/><polygon class="i" points="222.4 241.1 221.6 240.7 221.6 235.5 222.4 236 222.4 241.1"/><polygon class="i" points="223.7 241.9 222.9 241.4 222.9 236.3 223.7 236.8 223.7 241.9"/><polygon class="i" points="225.1 242.7 224.2 242.2 224.2 237.1 225.1 237.5 225.1 242.7"/><polygon class="i" points="226.4 243.4 225.6 243 225.6 237.8 226.4 238.3 226.4 243.4"/><polygon class="i" points="227.7 244.2 226.9 243.7 226.9 238.6 227.7 239.1 227.7 244.2"/><polygon class="i" points="223.7 235.8 221.6 234.6 221.6 233.7 223.7 234.9 223.7 235.8"/><polygon class="l" points="225.1 236.6 224.2 236.1 224.2 235.2 225.1 235.7 225.1 236.6"/><polygon class="k" points="226.4 237.4 225.6 236.9 225.6 236 226.4 236.4 226.4 237.4"/><polygon class="m" points="227.7 238.1 226.9 237.7 226.9 236.7 227.7 237.2 227.7 238.1"/><path class="i" d="M227.3,223.2l-5.3-3.1c-.2-.1-.4,0-.4.3v11.7a.8.8,0,0,0,.4.7l5.3,3.1c.2.1.4,0,.4-.2V223.9A.8.8,0,0,0,227.3,223.2Z"/><path class="g" d="M225.6,246.1c0,.6-.4.8-1,.5a2,2,0,0,1-.9-1.6c0-.6.4-.8.9-.5A1.9,1.9,0,0,1,225.6,246.1Z"/><polygon class="i" points="223.5 219.5 220.8 217.9 220.8 218.6 223.5 220.1 223.5 219.5"/><polygon class="i" points="228.5 222.4 225.8 220.8 225.8 221.5 228.5 223.1 228.5 222.4"/><polygon class="n" points="195.2 199.8 181 191.6 181 187.8 195.2 196 195.2 199.8"/><polygon class="j" points="227.1 218.2 226 217.6 226 213.7 227.1 214.4 227.1 218.2"/><polygon class="j" points="224.8 216.9 223.7 216.2 223.7 212.4 224.8 213 224.8 216.9"/><polygon class="k" points="172.3 190.1 169.6 188.5 169.6 188.8 172.3 190.4 172.3 190.1"/><polygon class="i" points="169.8 188.6 167 187 167 187.4 169.8 188.9 169.8 188.6"/><polygon class="i" points="174.8 191.5 172.1 189.9 172.1 190.3 174.8 191.9 174.8 191.5"/><polygon class="k" points="172.3 191.4 169.6 189.9 169.6 190.2 172.3 191.8 172.3 191.4"/><polygon class="i" points="169.8 190 167 188.4 167 188.7 169.8 190.3 169.8 190"/><polygon class="i" points="174.8 192.9 172.1 191.3 172.1 191.7 174.8 193.2 174.8 192.9"/><polygon class="k" points="172.3 192.8 169.6 191.2 169.6 191.6 172.3 193.1 172.3 192.8"/><polygon class="i" points="169.8 191.3 167 189.8 167 190.1 169.8 191.7 169.8 191.3"/><polygon class="i" points="174.8 194.3 172.1 192.7 172.1 193 174.8 194.6 174.8 194.3"/><path class="h" d="M173.8,213.1l-5.5-3.2a1.1,1.1,0,0,1-.5-.8v-2.2c0-.3.3-.5.5-.3l5.5,3.1a1.2,1.2,0,0,1,.5.9v2.2C174.3,213.1,174.1,213.2,173.8,213.1Z"/><path class="i" d="M173.8,218.1l-5.5-3.2a1.1,1.1,0,0,1-.5-.8v-2.2a.3.3,0,0,1,.5-.3l5.5,3.2a.9.9,0,0,1,.5.8v2.2C174.3,218.1,174.1,218.2,173.8,218.1Z"/><polygon class="l" points="175.8 186 166.2 180.5 166.2 179.2 175.8 184.8 175.8 186"/><polygon class="i" points="189.1 245.2 203 237.2 195.2 232.6 181.2 240.7 189.1 245.2"/><polygon class="h" points="189.1 215.6 203 207.6 195.2 203.1 181.2 211.1 189.1 215.6"/><polygon class="k" points="186.5 214.1 183.8 212.5 183.8 213.2 186.5 214.8 186.5 214.1"/><polygon class="h" points="189 245.1 181.2 240.6 181.2 211.7 189 216.2 189 245.1"/><path class="l" d="M187,239.8c0,1.2-.9,1.6-1.9,1a3.7,3.7,0,0,1-1.8-3.1c0-1.1.8-1.6,1.8-1A3.8,3.8,0,0,1,187,239.8Z"/><polygon class="i" points="182.9 234.3 182.1 233.9 182.1 228.7 182.9 229.2 182.9 234.3"/><polygon class="i" points="184.2 235.1 183.4 234.6 183.4 229.5 184.2 230 184.2 235.1"/><polygon class="i" points="185.5 235.9 184.7 235.4 184.7 230.3 185.5 230.7 185.5 235.9"/><polygon class="i" points="186.9 236.6 186.1 236.2 186.1 231 186.9 231.5 186.9 236.6"/><polygon class="i" points="188.2 237.4 187.4 236.9 187.4 231.8 188.2 232.3 188.2 237.4"/><polygon class="i" points="184.2 229 182.1 227.8 182.1 226.9 184.2 228.1 184.2 229"/><polygon class="l" points="185.5 229.8 184.7 229.3 184.7 228.4 185.5 228.9 185.5 229.8"/><polygon class="k" points="186.9 230.6 186.1 230.1 186.1 229.2 186.9 229.6 186.9 230.6"/><polygon class="m" points="188.2 231.3 187.4 230.9 187.4 229.9 188.2 230.4 188.2 231.3"/><path class="i" d="M187.8,216.4l-5.3-3.1c-.2-.1-.4,0-.4.3v11.7a.8.8,0,0,0,.4.7l5.3,3.1c.2.1.4,0,.4-.2V217.1A.8.8,0,0,0,187.8,216.4Z"/><path class="g" d="M186.1,239.3c0,.6-.4.8-1,.5a2,2,0,0,1-.9-1.6c0-.6.4-.8.9-.5A1.9,1.9,0,0,1,186.1,239.3Z"/><polygon class="i" points="184 212.6 181.2 211.1 181.2 211.7 184 213.3 184 212.6"/><polygon class="i" points="189 215.6 186.3 214 186.3 214.7 189 216.2 189 215.6"/><polygon class="i" points="189.1 215.6 203 207.6 203 237.2 189.1 245.2 189.1 215.6"/><polygon class="h" points="192.8 223.6 192 224 192 216.9 192.8 216.4 192.8 223.6"/><polygon class="h" points="194.2 222.8 193.4 223.2 193.4 216.1 194.2 215.7 194.2 222.8"/><polygon class="h" points="195.6 222 194.8 222.4 194.8 215.3 195.6 214.8 195.6 222"/><polygon class="h" points="197 221.2 196.2 221.6 196.2 214.5 197 214 197 221.2"/><polygon class="h" points="198.3 220.4 197.6 220.8 197.6 213.7 198.3 213.2 198.3 220.4"/><polygon class="h" points="199.7 219.6 199 220 199 212.9 199.7 212.4 199.7 219.6"/><polygon class="h" points="201.1 218.8 200.4 219.2 200.4 212.1 201.1 211.6 201.1 218.8"/><polygon class="h" points="192.8 232.5 192 232.9 192 225.8 192.8 225.4 192.8 232.5"/><polygon class="h" points="194.2 231.7 193.4 232.1 193.4 225 194.2 224.6 194.2 231.7"/><polygon class="h" points="195.6 230.9 194.8 231.3 194.8 224.2 195.6 223.8 195.6 230.9"/><polygon class="h" points="197 230.1 196.2 230.5 196.2 223.4 197 223 197 230.1"/><polygon class="h" points="198.3 229.3 197.6 229.7 197.6 222.6 198.3 222.2 198.3 229.3"/><polygon class="h" points="199.7 228.5 199 228.9 199 221.8 199.7 221.4 199.7 228.5"/><polygon class="h" points="201.1 227.7 200.4 228.1 200.4 221 201.1 220.6 201.1 227.7"/><path class="h" d="M202.6,229.8a.6.6,0,0,1-.3.6l-11.7,6.8c-.2.1-.3,0-.3-.2h0a.6.6,0,0,1,.3-.6l11.7-6.8c.2-.1.3,0,.3.2Z"/><path class="h" d="M202.6,232.2a.7.7,0,0,1-.3.6l-11.7,6.7c-.2.1-.3,0-.3-.2h0a.7.7,0,0,1,.3-.6l11.7-6.7c.2-.2.3-.1.3.2Z"/><path class="h" d="M202.6,234.5a.7.7,0,0,1-.3.6l-11.7,6.7c-.2.2-.3.1-.3-.2h0a.7.7,0,0,1,.3-.6l11.7-6.7c.2-.1.3,0,.3.2Z"/><path class="o" d="M275.3,196.7v29.6a1.2,1.2,0,0,1-.6,1.2l-45,26a1.6,1.6,0,0,0,.5-1.1V222.7Z"/><path class="i" d="M178.1,174l19.7,11.3a4.5,4.5,0,0,0,4.2,0l8.9-5.1a1.3,1.3,0,0,0,0-2.5l-19.7-11.3a4.5,4.5,0,0,0-4.2,0l-8.9,5.1A1.3,1.3,0,0,0,178.1,174Z"/><path class="i" d="M196.7,163l19.7,11.4a4.5,4.5,0,0,0,4.2,0l9-5.2c1.1-.6,1.1-1.7,0-2.4l-19.7-11.4a5.1,5.1,0,0,0-4.2,0l-9,5.2C195.6,161.3,195.6,162.4,196.7,163Z"/><path class="i" d="M209.5,192.1l19.7,11.3a4.5,4.5,0,0,0,4.2,0l8.9-5.1a1.3,1.3,0,0,0,0-2.5l-19.6-11.3a4.5,4.5,0,0,0-4.2,0l-9,5.1A1.4,1.4,0,0,0,209.5,192.1Z"/><path class="i" d="M228.2,181.1l19.7,11.4a4.5,4.5,0,0,0,4.2,0l8.9-5.2c1.2-.6,1.2-1.7,0-2.4l-19.7-11.4a5.1,5.1,0,0,0-4.2,0l-8.9,5.2C227,179.4,227,180.5,228.2,181.1Z"/><polygon class="p" points="232.3 385.9 227.6 383.2 227.6 210.3 232.3 213.1 232.3 385.9"/><polygon class="g" points="236.9 210.3 232.3 213.1 227.6 210.3 232.3 207.6 236.9 210.3"/><polygon class="q" points="232.3 385.9 236.9 383.2 236.9 210.3 232.3 213.1 232.3 385.9"/><polygon class="p" points="150.9 338.9 146.2 336.2 146.2 163.3 150.9 166 150.9 338.9"/><polygon class="g" points="155.6 163.3 150.9 166 146.2 163.3 150.9 160.6 155.6 163.3"/><polygon class="q" points="150.9 338.9 155.6 336.2 155.6 163.3 150.9 166 150.9 338.9"/><polygon class="p" points="285.2 355.3 280.5 352.6 280.5 179.8 285.2 182.5 285.2 355.3"/><polygon class="g" points="289.9 179.8 285.2 182.5 280.5 179.8 285.2 177 289.9 179.8"/><polygon class="q" points="285.2 355.3 289.9 352.6 289.9 179.8 285.2 182.5 285.2 355.3"/><polygon class="e" points="232.3 210.3 146.2 160.6 203.9 127.3 289.9 177 232.3 210.3"/><polygon class="f" points="232.3 213 232.3 210.3 289.9 177 289.9 179.7 232.3 213"/><polygon class="g" points="232.3 210.3 146.2 160.6 146.2 163.3 232.3 213 232.3 210.3"/><polygon class="r" points="165.4 217.9 158.3 222 150.9 217.7 158 213.6 165.4 217.9"/><polygon class="g" points="158.3 224.7 158.3 222 150.9 217.7 150.9 220.4 158.3 224.7"/><polygon class="r" points="165.4 272.3 158.3 276.4 150.9 272.1 158 268 165.4 272.3"/><polygon class="g" points="158.3 279.1 158.3 276.4 150.9 272.1 150.9 274.8 158.3 279.1"/><polygon class="r" points="165.4 326 158.3 330.1 150.9 325.9 158 321.8 165.4 326"/><polygon class="g" points="158.3 332.8 158.3 330.1 150.9 325.9 150.9 328.5 158.3 332.8"/><polygon class="r" points="270.7 234.3 277.8 238.4 285.2 234.1 278.1 230 270.7 234.3"/><polygon class="f" points="277.8 241 277.8 238.4 285.2 234.1 285.2 236.8 277.8 241"/><polygon class="r" points="270.7 288.6 277.8 292.8 285.2 288.5 278.1 284.4 270.7 288.6"/><polygon class="f" points="277.8 295.4 277.8 292.8 285.2 288.5 285.2 291.2 277.8 295.4"/><polygon class="r" points="270.7 342.4 277.8 346.5 285.2 342.2 278.1 338.1 270.7 342.4"/><polygon class="f" points="277.8 349.2 277.8 346.5 285.2 342.2 285.2 344.9 277.8 349.2"/><path class="s" d="M193,126.1c-8.9-7.6-12.5-10.9-17-15.3h0l-3.1-3.2c-1.4-13.9-2.3-28.5-4.6-36.1-6.2-18.8-26.7-18.3-23.2,2.5,2.9,17.8,3.9,25.1,7.4,37.7,2.4,5.9,5.1,9.7,8,12.3a20.8,20.8,0,0,0,6.5,3.9h0l3,1.1c3.6,1.1,8,2.2,12.2,3.3l5.8,1.6c1-.2,1.5-1.2,2-2.3a7.4,7.4,0,0,1,4.6-4.2Z"/><path class="d" d="M169.4,121.7h-.1a9.8,9.8,0,0,0-2.3,6.2,20.8,20.8,0,0,1-6.5-3.9c.2-13.6-.3-27.1-1.3-40.6,1.9,6.1,4.2-4.4,6.2,1.7.6,2,3.4,33.9,3.9,36.2A.8.8,0,0,0,169.4,121.7Z"/><path class="d" d="M112.8,158.1c0,.1-.1,4.7,0,6.5,9.9,8.5,46.9-2.4,49.7-12.6-.1-2.1.3-4.2,0-6.9C153.1,157.9,124.2,164.6,112.8,158.1Z"/><polygon class="l" points="151.6 159.4 145.1 162 145.1 158 151.6 155.5 151.6 159.4"/><path class="t" d="M164.6,125c-.5,10.3-1.2,17.5-1.2,17.5a1.3,1.3,0,0,1-.1.6,9.8,9.8,0,0,1-1.8,4.8c-6.1,8.4-25.2,13.3-37.4,13.5a24.6,24.6,0,0,1-5.6-.3,9.5,9.5,0,0,1-4.2-1.4c-3-1.9-3.5-5.4-4.3-11.6s-1.4-12.7-1.9-18.2c-1.9-21.6-2.4-35.4-2.1-42.6h0c.1-1.4.1-2.5.2-3.4,5.6-6.5,15.2-13.3,23.2-18.4,10.8-4.9,20.5-7.9,26.2-7.3C166.6,59.5,166,100.7,164.6,125Z"/><path class="l" d="M149.8,149.6a2.7,2.7,0,0,1-1.3,2c-.7.4-1.2,0-1.2-.7a3.3,3.3,0,0,1,1.3-2.1C149.3,148.4,149.9,148.8,149.8,149.6Z"/><polygon class="u" points="142.7 155.3 142.7 157.5 145.1 157.9 144.9 154.9 142.7 155.3"/><polygon class="u" points="227.7 146.5 227.7 144.4 225.2 144 225.4 147 227.7 146.5"/><path class="v" d="M142.7,157.5a.4.4,0,0,1,.2-.4l51.2-29.5a1.3,1.3,0,0,1,1.2,0l32.1,18.5a.4.4,0,0,1,0,.7l-51.2,29.6a1.3,1.3,0,0,1-1.2,0l-32.1-18.6C142.7,157.7,142.7,157.6,142.7,157.5Z"/><path class="w" d="M227.4,144.7l-51.2,29.5a1.3,1.3,0,0,1-1.2,0l-32.1-18.5c-.2-.1-.2-.2-.2-.4s0-.2.2-.3l33.8-19.6,1.6-.8,3.9-2.3,4.2-2.5,6.6-3.7,1.1-.7a2.4,2.4,0,0,1,1.2,0L227.4,144A.4.4,0,0,1,227.4,144.7Z"/><polygon class="x" points="216.3 148.8 219.3 147.1 223.5 144.7 220 142.7 220 142.7 216.1 140.4 213.1 138.7 213.1 138.7 209.6 136.7 209.6 136.7 205.4 134.3 201.9 132.2 197.5 134.8 197.5 134.8 190.4 138.9 190.4 138.9 168.9 151.3 168.9 151.3 165.4 153.3 165.4 153.3 161.8 155.4 161.8 155.4 158.2 157.4 158.2 157.4 154.7 159.5 158.1 161.5 158.1 161.5 158.2 161.5 159 162 159 162 161.6 163.5 161.6 163.5 168.5 167.5 168.5 167.5 171.9 169.5 171.9 169.5 176.2 172 184.2 167.3 184.2 167.3 187.8 165.3 187.8 165.3 191.3 163.2 191.3 163.2 194.9 161.2 194.9 161.2 198.5 159.1 198.5 159.1 202 157 202 157 205.6 155 205.6 155 208.3 153.4 208.3 153.4 211.9 151.4 211.9 151.4 212.3 151.1 212.8 150.9 212.8 150.9 216.3 148.8 216.3 148.8"/><path class="u" d="M167.4,146.1l3.6,2a1.5,1.5,0,0,0,1.3,0l9.9-5.7a.4.4,0,0,0,0-.7l-3.6-2.1Z"/><path class="y" d="M178.3,139.4l-1.4-.8a1.3,1.3,0,0,0-1.2,0l-4.8,2.8,2,1.2Z"/><path class="y" d="M172.5,142.8l-2-1.2-4.8,2.8a.4.4,0,0,0,0,.7l1.4.8Z"/><polygon class="u" points="219.1 146.5 222.2 144.7 219.2 143 216.1 144.8 219.1 146.5"/><polygon class="y" points="215.5 148.5 218.6 146.7 215.6 145 212.5 146.8 215.5 148.5"/><polygon class="y" points="212 147.1 208.9 148.9 211.9 150.6 215 148.8 212 147.1"/><polygon class="y" points="208.3 152.7 211.5 150.9 208.5 149.1 205.4 150.9 208.3 152.7"/><polygon class="y" points="204.8 154.7 207.9 152.9 204.9 151.2 201.8 153 204.8 154.7"/><polygon class="y" points="201.2 156.8 204.3 155 201.3 153.3 198.2 155.1 201.2 156.8"/><polygon class="y" points="197.6 158.8 200.8 157.1 197.8 155.3 194.6 157.1 197.6 158.8"/><polygon class="y" points="194.1 160.9 197.2 159.1 194.2 157.4 191.1 159.2 194.1 160.9"/><polygon class="y" points="190.6 159.4 187.5 161.2 190.5 163 193.6 161.2 190.6 159.4"/><polygon class="y" points="187.1 161.5 183.9 163.3 186.9 165 190.1 163.2 187.1 161.5"/><polygon class="y" points="183.5 163.6 180.4 165.4 183.4 167.1 186.5 165.3 183.5 163.6"/><polygon class="u" points="182.9 167.3 179.9 165.6 173.2 169.5 176.2 171.2 182.9 167.3"/><polygon class="y" points="215.6 144.5 218.7 142.7 215.7 141 212.6 142.8 215.6 144.5"/><polygon class="y" points="212 146.6 215.1 144.8 212.1 143 209 144.8 212 146.6"/><polygon class="y" points="208.6 145.1 205.5 146.9 208.5 148.6 211.6 146.8 208.6 145.1"/><polygon class="y" points="204.9 150.7 208 148.9 205 147.1 201.9 148.9 204.9 150.7"/><polygon class="y" points="201.3 152.7 204.4 150.9 201.4 149.2 198.3 151 201.3 152.7"/><polygon class="y" points="197.8 154.8 200.9 153 197.9 151.3 194.8 153.1 197.8 154.8"/><polygon class="y" points="194.2 156.9 197.3 155.1 194.3 153.3 191.2 155.1 194.2 156.9"/><polygon class="y" points="190.6 158.9 193.7 157.1 190.7 155.4 187.6 157.2 190.6 158.9"/><polygon class="y" points="187.2 157.4 184.1 159.2 187.1 161 190.2 159.2 187.2 157.4"/><polygon class="y" points="183.6 159.5 180.5 161.3 183.5 163 186.6 161.2 183.6 159.5"/><polygon class="y" points="180 161.6 176.9 163.4 179.9 165.1 183 163.3 180 161.6"/><polygon class="y" points="176.3 167.2 179.5 165.4 176.5 163.6 173.3 165.4 176.3 167.2"/><polygon class="y" points="172.9 165.7 169.8 167.5 172.8 169.2 175.9 167.4 172.9 165.7"/><polygon class="y" points="212.1 142.5 215.3 140.7 212.3 139 209.1 140.8 212.1 142.5"/><polygon class="y" points="208.6 144.6 211.7 142.8 208.7 141 205.6 142.8 208.6 144.6"/><polygon class="y" points="205.1 143.1 202 144.9 205 146.6 208.1 144.8 205.1 143.1"/><polygon class="y" points="201.4 148.7 204.6 146.9 201.6 145.1 198.4 146.9 201.4 148.7"/><polygon class="y" points="197.9 150.7 201 148.9 198 147.2 194.9 149 197.9 150.7"/><polygon class="y" points="194.3 152.8 197.4 151 194.4 149.3 191.3 151.1 194.3 152.8"/><polygon class="y" points="190.7 154.9 193.8 153.1 190.8 151.3 187.7 153.1 190.7 154.9"/><polygon class="y" points="187.2 156.9 190.3 155.1 187.3 153.4 184.2 155.2 187.2 156.9"/><polygon class="y" points="183.7 155.4 180.6 157.2 183.6 159 186.7 157.2 183.7 155.4"/><polygon class="y" points="180.1 157.5 177 159.3 180 161 183.1 159.2 180.1 157.5"/><polygon class="y" points="176.6 159.6 173.5 161.4 176.5 163.1 179.6 161.3 176.6 159.6"/><polygon class="y" points="172.9 165.2 176 163.4 173 161.6 169.9 163.4 172.9 165.2"/><path class="u" d="M169,163.4l3.6-2-3-1.8-6.7,3.9,6.4,3.7,3.1-1.8Z"/><polygon class="y" points="202.1 140.8 205.1 142.6 211.8 138.7 208.8 137 202.1 140.8"/><polygon class="y" points="201.7 141.1 198.6 142.9 201.6 144.6 204.7 142.8 201.7 141.1"/><polygon class="y" points="198 146.7 201.1 144.9 198.1 143.2 195 145 198 146.7"/><polygon class="y" points="194.4 148.7 197.5 146.9 194.5 145.2 191.4 147 194.4 148.7"/><polygon class="y" points="190.8 150.8 194 149 191 147.3 187.9 149.1 190.8 150.8"/><polygon class="y" points="187.3 152.9 190.4 151.1 187.4 149.3 184.3 151.1 187.3 152.9"/><polygon class="y" points="183.7 154.9 186.8 153.1 183.8 151.4 180.7 153.2 183.7 154.9"/><polygon class="y" points="180.3 153.5 177.1 155.3 180.1 157 183.3 155.2 180.3 153.5"/><polygon class="y" points="176.7 155.5 173.6 157.3 176.6 159 179.7 157.2 176.7 155.5"/><polygon class="y" points="173.1 157.6 170 159.4 173 161.1 176.1 159.3 173.1 157.6"/><polygon class="u" points="200.6 137.7 198.7 138.8 201.7 140.6 208.3 136.7 205.4 135 201.8 137 200.6 137.7"/><polygon class="y" points="198.2 139.1 195.1 140.9 198.1 142.6 201.2 140.8 198.2 139.1"/><polygon class="y" points="194.5 144.7 197.6 142.9 194.6 141.2 191.5 143 194.5 144.7"/><polygon class="y" points="191 146.7 194.1 145 191.1 143.2 188 145 191 146.7"/><polygon class="y" points="187.4 148.8 190.5 147 187.5 145.3 184.4 147.1 187.4 148.8"/><polygon class="y" points="183.8 150.9 186.9 149.1 183.9 147.3 180.8 149.1 183.8 150.9"/><polygon class="y" points="180.3 152.9 183.4 151.1 180.4 149.4 177.3 151.2 180.3 152.9"/><polygon class="y" points="176.8 151.5 173.7 153.3 176.7 155 179.8 153.2 176.8 151.5"/><polygon class="y" points="173.2 153.5 170.1 155.3 173.1 157.1 176.2 155.3 173.2 153.5"/><polygon class="y" points="169.7 155.6 166.6 157.4 169.6 159.1 172.7 157.3 169.7 155.6"/><polygon class="u" points="169.1 159.4 166.1 157.6 159.4 161.5 162.4 163.2 169.1 159.4"/><polygon class="y" points="201.9 133 198.8 134.8 201.8 136.5 204.9 134.7 201.9 133"/><polygon class="y" points="197.8 138.8 201.3 136.8 198.3 135 194.8 137.1 193.6 137.8 191.6 138.9 194.6 140.6 196.6 139.5 197.8 138.8"/><path class="u" d="M191.2,139.2l-21,12.1,3,1.7,21-12.1Z"/><polygon class="y" points="169.8 151.5 166.7 153.3 169.7 155.1 172.8 153.3 169.8 151.5"/><polygon class="y" points="166.2 153.6 163.1 155.4 166.1 157.1 169.2 155.3 166.2 153.6"/><polygon class="y" points="162.6 155.6 159.5 157.4 162.5 159.2 165.6 157.4 162.6 155.6"/><polygon class="y" points="159.1 157.7 156 159.5 159 161.2 162.1 159.4 159.1 157.7"/><path class="z" d="M187.3,131.4a2.1,2.1,0,0,0,.5,1.1l3.1,2.7.6.5,4.7,4.1,8.3-6.9-7.4-3.4-4.3-2.9C191.3,126,186.8,128.7,187.3,131.4Z"/><path class="aa" d="M201.3,134.3h.1l6,3.4,1.2,4.1a1.8,1.8,0,0,0,.8,1.1l.7.4a.9.9,0,0,0,.9-.7.8.8,0,0,1,.1-.4.4.4,0,0,0-.1-.3l-1.3-5.7s-4.9-3.3-5.4-3.4a9,9,0,0,0-2.6,1.2l-.4.2Z"/><path class="ab" d="M203,134.5l4.7,3,1.1,4.1a14.7,14.7,0,0,0,.6,1.4l.7.4a.9.9,0,0,0,.9-.7.8.8,0,0,1,.1-.4c-.9-.7-1.7-3-2.2-5Z"/><path class="aa" d="M199.3,135.7l2.1,1.4,5,3.1,1.9,4a2.1,2.1,0,0,0,1.9,1.2.7.7,0,0,0,.6-.4,1.6,1.6,0,0,0,.1-1.2l-2.4-5.8s-6.2-4.1-6.6-4.1S199.3,135.7,199.3,135.7Z"/><path class="ab" d="M200.2,135.7l1.2,1.4,5,3.1,1.9,4a2.1,2.1,0,0,0,1.9,1.2.7.7,0,0,0,.6-.4c-1.1-.1-3.2-3-3.8-5.3Z"/><path class="aa" d="M197,137.2l3.4,2.4,4.6,3.2,2.6,3.6a2.2,2.2,0,0,0,2.1.8h.2l.3-.3c.2-.3.2-.7-.1-1.3l-3.6-5.1s-6.3-5-6.8-5A17.9,17.9,0,0,0,197,137.2Z"/><path class="ab" d="M198.5,137.5l1.9,2.1,4.6,3.2,2.6,3.6a2.2,2.2,0,0,0,2.1.8h.2l.3-.3c-1.1.6-4.3-2.3-4.9-4.9Z"/><path class="aa" d="M195.2,139.2l6.2,4.8,2.2,3.9a2.4,2.4,0,0,0,2,1.1,1,1,0,0,0,.6-.5,1.7,1.7,0,0,0-.1-1.2l-2.9-5.5s-5.2-5-5.7-5-1.3,1.1-1.9,1.8A2.5,2.5,0,0,1,195.2,139.2Z"/><path class="ab" d="M195.2,139.2l6.2,4.8,2.2,3.9a2.4,2.4,0,0,0,2,1.1,1,1,0,0,0,.6-.5c-1.2.2-3.7-2.7-4.3-5.1l-6.3-4.8A2.5,2.5,0,0,1,195.2,139.2Z"/><path class="z" d="M190.8,134.2a3.1,3.1,0,0,1,.1,1,11.6,11.6,0,0,0,.9,4.9,18.3,18.3,0,0,0,2.4,3.1,12.9,12.9,0,0,1,2.2,3.5,1.9,1.9,0,0,0,.9,1.2h.8a1.8,1.8,0,0,0,.8-.7,2.5,2.5,0,0,0,.1-1.9c-.5-2-2.3-3.6-2.8-5.6,0-.2-.1-.3-.1-.5s-.1-1.3-.2-1.9a3.5,3.5,0,0,0-2.1-2.3,9,9,0,0,0-2.3-.8Z"/><path class="ab" d="M187.3,131.4a2.1,2.1,0,0,0,.5,1.1l3.1,2.7a11.6,11.6,0,0,0,.9,4.9,18.3,18.3,0,0,0,2.4,3.1,12.9,12.9,0,0,1,2.2,3.5,1.9,1.9,0,0,0,.9,1.2h.8a3.9,3.9,0,0,1-.8-1c-.4-.7-.7-1.6-1.1-2.3a31.7,31.7,0,0,0-2.8-3.4,9.5,9.5,0,0,1-1.9-5.6v-1.4a3.6,3.6,0,0,0,.2-1,2.2,2.2,0,0,1-1.4.1l-1.2-.8Z"/><path class="ac" d="M227.5,144.1l.5.2a1.3,1.3,0,0,0,1.7-.8l12.2-33.7a1.3,1.3,0,0,0-.8-1.7l-.5-.2Z"/><polygon class="ac" points="229.3 144.1 177 174.4 175.2 174.4 188.3 138.2 240.6 107.9 229.3 144.1"/><path class="v" d="M175.2,174.4l.6.2a1.4,1.4,0,0,0,1.7-.8l12.1-33.7a1.3,1.3,0,0,0-.8-1.7l-.5-.2Z"/><path class="d" d="M192.7,135.6l-3.9,2.2-3.4-2.1-7.1-1.1,3.9-2.3c-4.2-1.1-8.6-2.2-12.2-3.3l-3-1.1a9.8,9.8,0,0,1,2.3-6.2h.1l17,8.1,3.6,1.8,1.4.6Z"/><path class="d" d="M160.2,156.4c0-.3,2.3-.7,2.3-.9s-19.2-30.9-22.1-33.5-9-19.6-13.8-26.7c-4.6,2.5-12.7,3.5-17.3,6-1.7-5.4-3.1-10.3-3.3-14-.3,7.2.2,21,2.1,42.6.5,5.5,1.2,11.6,1.9,18.2s1.3,9.7,4.3,11.6l-.7.2h0c-.2.8-.3,1.7-.5,2.5l13.2,2.6a21.6,21.6,0,0,1-2.2-3.6,31.5,31.5,0,0,1-1.9-3.7c-1.4-3.2-2.6-6.9-2.3-9.9C120.6,141.6,143.4,156.3,160.2,156.4Z"/><path class="s" d="M164.3,144.8,137,122c-5-12.9-7.7-22.8-11.9-29.3-11-16.5-28.1-12.5-20.7,10.9,5.3,16.6,9.2,21.6,15.9,32.8.9,1.2,1.7,2,2.5,3h.1a24.4,24.4,0,0,0,6.9,5l28.3,8.6C160.4,154.1,167.3,147.3,164.3,144.8Z"/><path class="z" d="M173.6,158.5a2.5,2.5,0,0,1-.6,1.9l-.4.3h-.4a2.1,2.1,0,0,1-2.1-1l-1.5-1.5h0l-.5-.7a3.8,3.8,0,0,1-.1-1,1,1,0,0,1,1.6-.7h.1l.5.4v-2l3.3-2v6.3Z"/><path class="z" d="M171.5,146.8l-5.8-.3-1.5-.7c-1.6-.4-5.8,2.9-5.1,6.1l1.2.5c1.1,3.3,4.1,4.1,7.7,4.1h1.6l2.5-.2h2l1-1.1h0l.5-.4h0l.5-.6,1.8-1.8h0l2.2-2.2A24.9,24.9,0,0,0,171.5,146.8Z"/><path class="z" d="M180.1,150.1l-2.3.4h-.9v.3h.1v.4l3.5,7.5h.1l1.4-3.9Z"/><path class="z" d="M178.3,151.6v6.6c0,1.9-1.3,2.4-2.2,2.2h-.4c0-.1-.1-.1-.1-.2l-.5-4.8h0v-1.6h0l.5-.4.6-.3h.2l.3-.2.9-.5.4-.3h.1Z"/><path class="ab" d="M180.8,158.1l-2.5-5.8v1.5l2.4,5.2h.1v-.5A4.3,4.3,0,0,0,180.8,158.1Z"/><path class="ab" d="M176.1,152.5v7.9h-.4a1.8,1.8,0,0,1-.5,1.4l-.2-6.5v-1.5h0v-.4l.5-.4Z"/><path class="z" d="M175.8,159.8a.9.9,0,0,1-.1.5,1.8,1.8,0,0,1-.5,1.4,1.7,1.7,0,0,1-2.2-.1,1,1,0,0,1-.4-.5h-.1v-.3l-.2-4.4v-.8l.2-.2.7-.6.3-.2,1.5-1.3.5-.5h0v1.9h0Z"/><path class="ab" d="M173.2,154.1v7.5a1,1,0,0,1-.4-.5,1.9,1.9,0,0,1-.4.9v-7.2l.4-.3Z"/><path class="z" d="M172.6,160.3v.8a1.9,1.9,0,0,1-.4.9c-.8,1.2-2.6.6-3.1-.3l-1.4-1.5c-.8-.9-.8-1.8-.4-2.3s.5-.4.8-.4a2.1,2.1,0,0,1,1.1.5v-2l.5-.2.2-.2h0l.3-.2,2.3-1.3v6.2Z"/><path class="ab" d="M169.6,156.5a1.5,1.5,0,0,0,.1-.7c.1,0,.1-.1.1-.2h0l.3-1a3.5,3.5,0,0,1-2.8.9c-3.4.2-5.1-1.7-6.5-5H159c-.1.4.2.9.1,1.4l1.2.5c1.1,3.4,4.1,4.1,7.7,4.1a3.8,3.8,0,0,0,.1,1,.9.9,0,0,0-.8.4,2.8,2.8,0,0,1,1.3.3l1.5,1.6A8.3,8.3,0,0,1,169.6,156.5Z"/><path class="ad" d="M156.5,46.8c5.2-1.4,7.9-4.7,8-9.8-.9-6.7-6.7-11.5-17-12.4S129.3,31.8,130.2,44a79.4,79.4,0,0,1-.1,10.2c0,2.3.8,2.9,2.9,3.6Z"/><path class="z" d="M139.3,74.9c3.5.6,6.8,0,7.8-2.1l.2-.2,1.3-5.9.4-1.8L132.8,51l-2.9,11.3C127.6,69.3,133.7,73.8,139.3,74.9Z"/><path class="ab" d="M139.3,74.9c3.5.6,6.8,0,7.8-2.1l.2-.2,1.3-5.9-12-8.7C133.8,64.7,135.7,71.9,139.3,74.9Z"/><path class="z" d="M162.1,38.6c-.3-7.2-7.1-10.8-14.8-11.7-10.6-1.3-14.4,6-15.9,14.2a52,52,0,0,0,.7,12.4l4.5,4.5a27.6,27.6,0,0,0,3.9,6.3,11.2,11.2,0,0,0,5.9,4,6.5,6.5,0,0,0,5.1-.8,19.9,19.9,0,0,0,5-5.3c3-4.6,2.4-5.5,3-8s.3-3,.5-3.7,1.1-2.1,1.4-3.1A43,43,0,0,0,162.1,38.6Z"/><path class="ad" d="M158.8,41.5c-4.4,4.4-7.9,1-13.4,4.3.1-1.4,2.1-2.9,3.2-3.5-1.8,1.2-6.9-.2-8.1-1.1s-.3,6.3-.3,6.4-4.7-1.6-4.9-2-.3,3.1-1.2,9.1c-.6,4.4-2.1,3-2.8,2.4S131,41.3,131,41c0-3.2,1.9-16.5,17.2-14.7C155.5,27.1,168.2,32,158.8,41.5Z"/><path class="z" d="M138.1,47.6c-.1-1.6,0-4.4-1.8-5.4s-2.8,2.2-2.9,3.8.2,2,.2,3-.4,2.2.1,3,3.5-.8,4-2A5.5,5.5,0,0,0,138.1,47.6Z"/><polygon class="r" points="152.2 163.2 147 160.2 146.2 160.6 156.8 166.8 152.2 163.2"/><polygon class="g" points="156.8 166.8 146.2 160.6 146.2 163.3 156.8 169.4 156.8 166.8"/><path class="l" d="M181.2,231.2h-7.4c-6.7.1-12.4.2-16-3.4s-3.8-7.2-3.6-13.7c.4-11.9,4.1-38.1,13.3-43l.4.7c-8.9,4.8-12.5,30.6-12.9,42.3-.2,6.3.9,10.6,3.4,13.1s8.9,3.3,15.4,3.2h7.5Z"/><polygon class="l" points="165.4 172 166.2 170.6 167 170.1 169.1 171.4 169.1 172.5 167 173.1 165.4 172"/><path class="ae" d="M247.3,186.5c0-2,1.6-11.3-1-12.7s-12.4,4.3-18.6,4.3c-10.9,0-19.7,3.7-19.7,8.4s8.8,8.3,19.7,8.3S247.3,191.1,247.3,186.5Z"/><path class="ae" d="M240.6,179.3a29,29,0,0,0-3.2-15.7c-.7-1.4-2.9-3-2.3-6.9.1-.5,0-2.9,0-3.4-.2-4.4-4.4-7.2-8.7-7.2-2.3,0-7.9,2.7-7.9,7,0,.7-.2,3.2-.2,3.9,0,3.8,1.5,6.1-1.1,8.9a24.4,24.4,0,0,0-1.4,2.8l-.7,12.4Z"/><path class="af" d="M243.4,165.5a10.9,10.9,0,0,1-3.3-9.7,8.1,8.1,0,0,0,.1-1.6,7.8,7.8,0,0,0-15.5.4,6.2,6.2,0,0,0,.2,1.9,10.5,10.5,0,0,1-2.5,9.9,15.1,15.1,0,0,0-4.1,10.2c0,9.1,3.5,13.4,8.6,14.8a12.4,12.4,0,0,1,4.7-.8,14.8,14.8,0,0,1,4.6.7c6.2-1.2,9.2-4.2,11.2-11.2S246.5,168.3,243.4,165.5Z"/><path d="M243.4,165.5a10.9,10.9,0,0,1-3.3-9.7,8.1,8.1,0,0,0,.1-1.6,7.8,7.8,0,0,0-7.5-7.4h-1.1v43.7a11.8,11.8,0,0,1,5.1,1c5.9-.9,8.7-4.7,10.7-11.5S246.5,168.3,243.4,165.5Z"/><path class="l" d="M221.6,178.4c0-5.9,4.7-19.6,10.6-19.6s10.6,13.8,10.6,19.6a10.6,10.6,0,0,1-21.2,0Z"/><path class="ag" d="M232.2,158.8h-.6V189h.6a10.6,10.6,0,0,0,10.6-10.6C242.8,172.6,238,158.8,232.2,158.8Z"/><ellipse class="ah" cx="228.3" cy="155.8" rx="1.7" ry="2.4"/><ellipse class="ai" cx="228.3" cy="156.4" rx="0.9" ry="1.5"/><ellipse class="ah" cx="234.5" cy="155.8" rx="1.7" ry="2.4"/><ellipse class="ai" cx="234.5" cy="156.4" rx="0.9" ry="1.5"/><path class="aj" d="M236.8,159.9c.6,1.2-3.7,3.5-5.2,3.5s-5.9-2.8-5.3-3.5,3.2-3.6,5-3.6S236.4,159.1,236.8,159.9Z"/><path class="ak" d="M236.8,159.9c-.3-.8-3.7-3.2-5.2-3.6v7.1C233.2,163.3,237.4,161.1,236.8,159.9Z"/><path class="al" d="M243.4,178.8c.8,1.5,1.9,2.9,3.4,3.2a2.9,2.9,0,0,1,2.1,2.3v.5a5.7,5.7,0,0,0,1.2,2.6,1.9,1.9,0,0,1-1.1,3.1l-11.1,2.1a2.9,2.9,0,0,1-3-4.3l6.1-9.6A1.4,1.4,0,0,1,243.4,178.8Z"/><path class="am" d="M231.5,162.7c-1.5,0-3.1-.8-4.8-2.3l.6-.5c1.6,1.5,3.2,2.2,4.7,2a5.2,5.2,0,0,0,3.3-2l.6.5a6,6,0,0,1-3.9,2.3Z"/><path class="an" d="M232,161.9h-.4v.8h.4a6,6,0,0,0,3.9-2.3l-.6-.5A5.2,5.2,0,0,1,232,161.9Z"/><circle cx="244.9" cy="180.5" r="3.6"/><path class="af" d="M220.9,176.6s3.8,4.7,6.5,5.7-1.3,4.1-4.9,1.8S220.9,176.6,220.9,176.6Z"/><path class="ao" d="M218.9,178.8c-.8,1.5-1.9,2.9-3.4,3.2a2.7,2.7,0,0,0-2,2.3.9.9,0,0,0-.1.5,5.7,5.7,0,0,1-1.2,2.6,1.9,1.9,0,0,0,1.1,3.1l11.1,2.1a2.9,2.9,0,0,0,3-4.3l-6.1-9.6A1.4,1.4,0,0,0,218.9,178.8Z"/></svg>