<svg xmlns="http://www.w3.org/2000/svg" xmlns:xlink="http://www.w3.org/1999/xlink" viewBox="0 0 400 400"><defs><style>.a{fill:url(#a);}.b{fill:url(#b);}.c{fill:url(#c);}.d{fill:url(#d);}.e{fill:#e1e1e1;}.f{fill:url(#e);}.g{fill:url(#f);}.h{fill:url(#g);}.i{fill:url(#h);}.j{fill:#1a2e35;}.k{fill:url(#i);}.l{fill:url(#j);}.m{fill:url(#k);}.n{fill:url(#l);}.o{fill:url(#m);}.p{fill:url(#n);}.q{fill:url(#o);}.r{fill:url(#p);}.s{fill:#e8505b;}.t{fill:url(#q);}.u{fill:url(#r);}.v{fill:url(#s);}.w{fill:url(#t);}.x{fill:url(#u);}.y{fill:#0e72c4;}.z{fill:#197bdd;}.aa{fill:#0c5591;}.ab{fill:#ececec;}.ac{fill:#fafafa;}.ad{fill:#375a64;}.ae{fill:#f5f5f5;}.af{fill:#ffe7cb;}.ag{fill:#f0d2b9;}.ah{fill:#21e2e2;}.ai{fill:#152735;}.aj{fill:#1f364c;}.ak{fill:#288ed9;}.al{fill:#0e71bb;}.am{fill:#00c1bc;}.an{fill:#4987ce;}</style><linearGradient id="a" x1="217.76" y1="383.95" x2="166.59" y2="93.76" gradientUnits="userSpaceOnUse"><stop offset="0" stop-color="#c6e6ff"/><stop offset="1" stop-color="#fff"/></linearGradient><linearGradient id="b" x1="350.58" y1="308.63" x2="370.58" y2="308.63" gradientUnits="userSpaceOnUse"><stop offset="0" stop-color="#44989f"/><stop offset="0.21" stop-color="#39b0b4"/><stop offset="0.52" stop-color="#2ccbcd"/><stop offset="0.8" stop-color="#24dcdd"/><stop offset="1" stop-color="#21e2e2"/></linearGradient><linearGradient id="c" x1="345.4" y1="276.97" x2="359.87" y2="276.97" xlink:href="#b"/><linearGradient id="d" x1="320.14" y1="283.1" x2="343.99" y2="283.1" xlink:href="#b"/><linearGradient id="e" x1="333.35" y1="346.03" x2="359.92" y2="346.03" gradientUnits="userSpaceOnUse"><stop offset="0" stop-color="#ffbc98"/><stop offset="0.45" stop-color="#ffbb96"/><stop offset="0.67" stop-color="#ffb68e"/><stop offset="0.84" stop-color="#ffad81"/><stop offset="0.98" stop-color="#ffa16f"/><stop offset="1" stop-color="#ff9f6c"/></linearGradient><linearGradient id="f" x1="331.04" y1="333.08" x2="362.77" y2="333.08" xlink:href="#e"/><linearGradient id="g" x1="331.04" y1="355.62" x2="362.24" y2="355.62" xlink:href="#e"/><linearGradient id="h" x1="332.54" y1="358.2" x2="361.11" y2="358.2" xlink:href="#e"/><linearGradient id="i" x1="33.02" y1="275.49" x2="36.24" y2="275.49" gradientUnits="userSpaceOnUse"><stop offset="0" stop-color="#419ee3"/><stop offset="1" stop-color="#0d79c9"/></linearGradient><linearGradient id="j" x1="36.57" y1="295.09" x2="44.42" y2="295.09" xlink:href="#i"/><linearGradient id="k" x1="34.88" y1="314.35" x2="39.63" y2="314.35" xlink:href="#i"/><linearGradient id="l" x1="39.44" y1="334.71" x2="44.56" y2="334.71" xlink:href="#i"/><linearGradient id="m" x1="22.81" y1="269.67" x2="30.2" y2="269.67" xlink:href="#i"/><linearGradient id="n" x1="29.99" y1="286.65" x2="37.97" y2="286.65" xlink:href="#i"/><linearGradient id="o" x1="30.32" y1="304.1" x2="33.69" y2="304.1" xlink:href="#i"/><linearGradient id="p" x1="30.93" y1="327.25" x2="38.75" y2="327.25" xlink:href="#i"/><linearGradient id="q" x1="47.45" y1="312.44" x2="50.27" y2="312.44" xlink:href="#b"/><linearGradient id="r" x1="36.94" y1="330.68" x2="40.11" y2="330.68" xlink:href="#b"/><linearGradient id="s" x1="53.08" y1="303.9" x2="59.15" y2="303.9" xlink:href="#b"/><linearGradient id="t" x1="42.08" y1="325.43" x2="52.33" y2="325.43" xlink:href="#b"/><linearGradient id="u" x1="32.02" y1="351.99" x2="46.7" y2="351.99" xlink:href="#e"/></defs><title>iran-windows-dedicated-server</title><path class="a" d="M42.3,359S-12.4,300.7,15,237.9c26.1-59.8,69.6,4.3,128.1-90.6s127.6-73.6,146.2,3.3c21.7,89.5,67.3,56.5,91.5,95.9,27.7,45-2.5,96.2-21.5,112.5Z"/><path class="b" d="M354.3,303.9a16.3,16.3,0,0,1,10.2-1.2c1.9.3,3.8.8,5,2.2s1.5,3.8.1,5a4.6,4.6,0,0,1-3.2.8c-2.7,0-5.7-.5-7.8,1.2s-2.1,2.4-3.5,2.9a3.6,3.6,0,0,1-3.9-1.7,6.1,6.1,0,0,1-.4-4.4A6.8,6.8,0,0,1,354.3,303.9Z"/><path class="c" d="M347.2,290.2c1.9,2.7,5.6,1.8,7.3.1s2.4-4,3.1-6.3c1.5-5.2,3-10.7,1.9-16a9,9,0,0,0-2.1-4.4,4.3,4.3,0,0,0-4.4-1.4c-1.8.4-3,2.3-3.8,4a37.2,37.2,0,0,0-3.8,16.4c0,2.6.3,5.4,1.8,7.6"/><path class="d" d="M342,294.1a10.1,10.1,0,0,0,1.5-9.1,17,17,0,0,0-5.4-7.8,29.1,29.1,0,0,0-9.6-5.7,9.1,9.1,0,0,0-4.3-.7,4.3,4.3,0,0,0-3.6,2.2c-1,1.9-.1,4.3,1,6.2a66.1,66.1,0,0,0,6.3,9.6c1.9,2.4,4.1,4.8,6.9,5.9s5.9,1,7.5-1"/><path class="e" d="M347.1,331a5.5,5.5,0,0,0,.1-1.2c.1-.9.2-2,.4-3.3a35.1,35.1,0,0,1,.7-5,38.1,38.1,0,0,1,1.8-5.8,20.9,20.9,0,0,1,3-5.3,11.5,11.5,0,0,1,3.7-3.1,15.9,15.9,0,0,1,3.2-1h0a11,11,0,0,0-3.3.9,11.5,11.5,0,0,0-4,3.2,22.4,22.4,0,0,0-3.1,5.3,31.6,31.6,0,0,0-1.7,5.9,37.1,37.1,0,0,0-.7,5c-.1,1.5-.1,2.6-.2,3.4S347,331,347.1,331Z"/><path class="e" d="M347.3,328.5v-2.2c0-1.5,0-3.5.1-6,.1-5.1.6-10.6,1.4-18.3s1.9-15.6,3-21.1c.2-1.2.5-2.3.7-3.3s.4-1.8.6-2.5l.4-1.6a2.8,2.8,0,0,0,.1-.6l-.2.6c-.1.4-.3.9-.5,1.5l-.7,2.5c-.2,1-.5,2.1-.7,3.4a152,152,0,0,0-3.2,19.5c-.8,7.8-1.2,14.8-1.3,19.8,0,2.6.1,4.6.1,6.1a9.7,9.7,0,0,1,.1,1.6A2.8,2.8,0,0,1,347.3,328.5Z"/><path class="e" d="M347.3,314.9c.1,0,.1-.6,0-1.7a33.1,33.1,0,0,0-.5-4.6,60.3,60.3,0,0,0-1.5-6.7,48.1,48.1,0,0,0-2.8-8,43.5,43.5,0,0,0-8.3-12.9c-.6-.7-1.4-1.3-1.9-1.8l-.9-.7-.7-.5c-.9-.6-1.4-1-1.5-.9a29.7,29.7,0,0,1,4.7,4.2,42.8,42.8,0,0,1,8.1,12.8,54.7,54.7,0,0,1,2.8,7.9,71.5,71.5,0,0,1,2.3,11.2C347.2,314.3,347.3,314.9,347.3,314.9Z"/><polygon class="f" points="333.3 336.7 334.7 355.3 358.6 355.3 359.9 336.7 333.3 336.7"/><rect class="g" x="331" y="329.4" width="31.7" height="7.32"/><polygon class="h" points="331 354.6 331 356.6 332.5 356.6 362.2 356.6 362.2 354.6 331 354.6"/><polygon class="i" points="334 360 332.5 356.4 361.1 356.4 359.4 360 334 360"/><path class="j" d="M368.7,360.3H-25.5c0-.1,88.2-.2,197.1-.2S368.7,360.2,368.7,360.3Z"/><path class="e" d="M37.6,346.6a.3.3,0,0,0,.1-.2l.3-.6a13.7,13.7,0,0,0,.9-2.5,23.3,23.3,0,0,0-.1-9.5,44.5,44.5,0,0,0-1.8-6.4c-.7-2.3-1.6-4.7-2.3-7.3a28.4,28.4,0,0,1-1.2-8.4,34.9,34.9,0,0,1,2-8.8,35.9,35.9,0,0,0,2.2-8.7,13,13,0,0,0-1.5-8.1c-1.3-2.3-2.9-4.4-4.1-6.4a21.2,21.2,0,0,1-2.5-6.2,22.1,22.1,0,0,1-.1-9.6,12.1,12.1,0,0,1,1-3.4v.2a2.5,2.5,0,0,1-.2.7,15.3,15.3,0,0,0-.6,2.5,23.6,23.6,0,0,0,.2,9.5,22.5,22.5,0,0,0,2.5,6.1c1.2,2.1,2.8,4.1,4.1,6.5a13.4,13.4,0,0,1,1.6,8.2,49.3,49.3,0,0,1-2.2,8.8,34.2,34.2,0,0,0-2,8.7A27.8,27.8,0,0,0,35,320c.7,2.6,1.5,5,2.3,7.3s1.3,4.4,1.7,6.4a21.8,21.8,0,0,1,0,9.6c-.3,1.1-.7,1.9-.9,2.5a2.1,2.1,0,0,0-.4.6A.3.3,0,0,1,37.6,346.6Z"/><path class="k" d="M33.7,281.7s-2.4-7.8,1.9-12.3c.2-.2.5-.1.5.1S36.6,274.7,33.7,281.7Z"/><path class="e" d="M35.2,272s-.1.5-.2,1.4-.4,2.1-.6,3.4-.3,2.5-.5,3.5-.2,1.4-.3,1.4,0-.6.1-1.5.2-2.1.4-3.4.5-2.6.7-3.4S35.1,271.9,35.2,272Z"/><path class="l" d="M36.6,300.1s1.5-8,7.5-10a.2.2,0,0,1,.3.3C44,291.7,42.4,295.3,36.6,300.1Z"/><path class="e" d="M42.4,292.2c.1,0-.3.4-.8,1.2l-2.1,2.7-2.1,2.8a6.3,6.3,0,0,1-.9,1.2,4,4,0,0,1,.7-1.3,20.3,20.3,0,0,1,2.1-2.8l2.1-2.8Z"/><path class="m" d="M34.9,320.3s-.9-8.2,4.3-11.8c.2-.1.4,0,.4.2S39.2,313.9,34.9,320.3Z"/><path class="e" d="M38.2,311c.1,0-.1.5-.4,1.3a34.3,34.3,0,0,1-1.2,3.3q-.6,1.8-1.2,3.3l-.5,1.3c-.1,0,.1-.5.3-1.4s.6-2,1.1-3.3l1.3-3.2A8.4,8.4,0,0,1,38.2,311Z"/><path class="n" d="M39.5,340.5s-.7-8.1,4.6-11.6a.3.3,0,0,1,.5.3C44.5,330.5,43.9,334.4,39.5,340.5Z"/><path class="e" d="M43.1,331.4l-.5,1.3-1.3,3.2L40,339.2c-.3.8-.5,1.3-.6,1.3a8.3,8.3,0,0,1,.4-1.4l1.2-3.3c.5-1.2,1-2.4,1.4-3.2S43.1,331.3,43.1,331.4Z"/><path class="o" d="M30.2,274.9s-7.2-3.8-7.4-10.1c0-.3.3-.4.4-.3S27.3,267.8,30.2,274.9Z"/><path class="e" d="M24.3,266.9q.1,0,.9,1.2l2.1,2.8,2,2.8c.5.7.9,1.2.8,1.2l-1-1.1L27,271.1l-2-2.9C24.6,267.4,24.3,267,24.3,266.9Z"/><path class="p" d="M38,291.6s-7.5-3.3-8-9.6c0-.2.2-.4.4-.3S34.6,284.8,38,291.6Z"/><path class="e" d="M31.6,284.1c.1-.1.4.3,1,1l2.2,2.7,2.2,2.7.9,1.1-1-.9a22.8,22.8,0,0,1-2.3-2.7,33.2,33.2,0,0,1-2.2-2.7Z"/><path class="q" d="M33.7,310.3s-5.1-6.4-2.7-12.2a.2.2,0,0,1,.4-.1C32.1,299.1,33.8,302.7,33.7,310.3Z"/><path class="e" d="M31.5,300.7l.3,1.4.8,3.4c.3,1.2.5,2.4.7,3.4s.4,1.4.3,1.4l-.5-1.4c-.2-.8-.5-2-.8-3.4s-.5-2.5-.7-3.4S31.4,300.7,31.5,300.7Z"/><path class="r" d="M38.8,332.3s-7.4-3.5-7.9-9.8c0-.2.3-.4.4-.2S35.5,325.4,38.8,332.3Z"/><path class="e" d="M32.5,324.6c.1,0,.4.4,1,1.1l2.1,2.7,2.2,2.8a6.4,6.4,0,0,1,.9,1.1,7.2,7.2,0,0,1-1-1,22.8,22.8,0,0,1-2.3-2.7,33.9,33.9,0,0,1-2.1-2.8Z"/><path class="e" d="M53.5,300.2h0v.6c0,.4-.1,1.1-.1,1.9l-.4,7.1h0a26.1,26.1,0,0,1-4,9.4c-1.5,2.4-3.1,4.5-4.4,6.5a43.8,43.8,0,0,0-3.3,5.4,17.1,17.1,0,0,0-1.5,4,3.6,3.6,0,0,0-.3,1.1v0a7.5,7.5,0,0,0,.2-1.1,27.2,27.2,0,0,1,1.5-4.1,58.2,58.2,0,0,1,3.2-5.5c1.4-2,2.9-4.1,4.4-6.4a29.8,29.8,0,0,0,4.1-9.3h0c.2-2.9.3-5.3.5-7.1s.1-1.5.1-1.9v-.6Z"/><path class="s" d="M49.1,318.7s3.1-7.5-.8-12.5c-.2-.1-.4-.1-.5.1S46.8,311.5,49.1,318.7Z"/><path class="t" d="M49.1,318.7s3.1-7.5-.8-12.5c-.2-.1-.4-.1-.5.1S46.8,311.5,49.1,318.7Z"/><path class="e" d="M48.5,308.9c.1,0,.2.5.3,1.4s.2,2.1.3,3.5.1,2.6.1,3.5v1.4c-.1,0-.1-.5-.2-1.4s-.1-2.2-.2-3.5-.2-2.5-.2-3.5S48.5,308.9,48.5,308.9Z"/><path class="s" d="M39.4,336.9s2.5-7.8-1.8-12.4c-.2-.1-.5-.1-.5.2S36.5,329.9,39.4,336.9Z"/><path class="u" d="M39.4,336.9s2.5-7.8-1.8-12.4c-.2-.1-.5-.1-.5.2S36.5,329.9,39.4,336.9Z"/><path class="e" d="M38,327.1c.1,0,.2.6.4,1.4s.4,2.1.6,3.5.3,2.6.4,3.4.1,1.5,0,1.5-.1-.5-.2-1.4-.3-2.2-.5-3.5-.4-2.4-.5-3.4A7.7,7.7,0,0,1,38,327.1Z"/><path class="s" d="M53.1,309.5s6.7-4.7,6-11a.2.2,0,0,0-.4-.1C57.7,299.2,55.1,302.2,53.1,309.5Z"/><path class="v" d="M53.1,309.5s6.7-4.7,6-11a.2.2,0,0,0-.4-.1C57.7,299.2,55.1,302.2,53.1,309.5Z"/><path class="e" d="M57.9,300.9l-.6,1.3a23.3,23.3,0,0,1-1.6,3.1c-.6,1.2-1.2,2.3-1.7,3.1s-.8,1.2-.9,1.1l.7-1.3,1.7-3c.6-1.2,1.2-2.2,1.6-3.1Z"/><path class="s" d="M42.1,329.2s8.1-1.2,10.2-7.2a.2.2,0,0,0-.3-.3C50.7,322,47.1,323.5,42.1,329.2Z"/><path class="w" d="M42.1,329.2s8.1-1.2,10.2-7.2a.2.2,0,0,0-.3-.3C50.7,322,47.1,323.5,42.1,329.2Z"/><path class="e" d="M50.2,323.6l-1.1.9-2.8,2.1-2.9,2-1.3.7a6.3,6.3,0,0,1,1.2-.9l2.8-2,2.9-2Z"/><polygon class="x" points="34.4 344.1 32 359.9 46.7 359.9 44.8 344.1 34.4 344.1"/><rect class="y" x="184.9" y="200.5" width="70.3" height="46.47" rx="0.7"/><path class="z" d="M181.9,243.6h76.1a0,0,0,0,1,0,0v.9a3.2,3.2,0,0,1-3.2,3.2H185.1a3.2,3.2,0,0,1-3.2-3.2v-.9a0,0,0,0,1,0,0Z"/><polygon class="aa" points="213.1 243.6 214 245.1 227.3 245.1 228.2 243.6 213.1 243.6"/><rect class="ab" x="188.1" y="203.7" width="63.7" height="37.79" rx="1.6"/><rect class="ac" x="188.1" y="206.5" width="63.7" height="35.02"/><path class="ad" d="M254.5,243.6h0Z"/><path class="z" d="M180.5,182.3H106.4a2.4,2.4,0,0,0-2.4,2.3V237a2.3,2.3,0,0,0,2.4,2.3h28.4a7.2,7.2,0,0,1-3.8,8.5h26.6s-6.3-2.2-4.7-8.5h27.6a2.3,2.3,0,0,0,2.3-2.3V184.6A2.3,2.3,0,0,0,180.5,182.3Z"/><path class="j" d="M144.4,233.8a1.4,1.4,0,0,1-2,2h-.1a1.4,1.4,0,0,1,2-2Z"/><rect class="ab" x="107.3" y="185.6" width="71.8" height="42.58"/><rect class="ac" x="107.3" y="188.7" width="71.8" height="41.05"/><path class="ae" d="M113.1,187.2a.6.6,0,0,1-.5.6.6.6,0,0,1,0-1.2A.6.6,0,0,1,113.1,187.2Z"/><path class="ae" d="M109.7,187.2a.6.6,0,1,1-.6-.6A.6.6,0,0,1,109.7,187.2Z"/><path class="ae" d="M111.3,187.2a.6.6,0,0,1-.5.6.6.6,0,0,1,0-1.2A.6.6,0,0,1,111.3,187.2Z"/><rect class="z" x="75.6" y="210.1" width="26.3" height="37.76" rx="1.6"/><rect class="ac" x="76.4" y="212.7" width="24.7" height="31.53"/><path class="j" d="M89.4,245.3a1,1,0,1,1-1.4,1.4A1,1,0,1,1,89.4,245.3Z"/><rect class="j" x="84.7" y="211.2" width="7.9" height="0.42" rx="0.2"/><rect class="ad" x="253.4" y="254.2" width="6.5" height="106.01"/><rect class="ad" x="71.6" y="254.2" width="6.5" height="106.01"/><rect class="ad" x="44.4" y="247.6" width="251.4" height="6.51"/><rect class="ad" x="180.8" y="254.2" width="72.5" height="18.19"/><path class="j" d="M267.3,254.6H155.8l-111.4-.4H155.8Z"/><path class="j" d="M185.3,272.3c-.1,0-.2-4-.2-9s.1-9,.2-9,.1,4,.1,9S185.3,272.3,185.3,272.3Z"/><path class="j" d="M248.3,268.9c0,.1-14.1.1-31.6,0l-31.6-.3c0-.1,14.1-.1,31.6,0Z"/><path class="j" d="M248.3,272.3s-.1-3.8-.1-8.5.1-8.5.1-8.5.2,3.8.2,8.5S248.4,272.3,248.3,272.3Z"/><path class="j" d="M253.7,289.2c-.1,0-.2-7.7-.2-17.2s.1-17.2.2-17.2.1,7.7.1,17.2S253.8,289.2,253.7,289.2Z"/><path class="j" d="M220,259.7a2.3,2.3,0,0,1-2.4,2.3,2.3,2.3,0,0,1-2.3-2.3,2.3,2.3,0,0,1,2.3-2.4A2.4,2.4,0,0,1,220,259.7Z"/><path class="af" d="M303.7,203.7l.8,6.7,10.2-8.8,5.6,1.4s-5.7,12.1-10.3,16.9-7,5.5-8.7,5.5-3.5-2.7-3.5-2.7l-1-16.7Z"/><path class="ag" d="M304.5,210.2c-.1-.1-.5.7-.7,1.6a6.9,6.9,0,0,0-.3,1.8c.1.1.2-.7.5-1.7S304.5,210.2,304.5,210.2Z"/><path class="ad" d="M315.7,184.7h7.7a1.9,1.9,0,0,1,1.8,2.4l-7.7,15.1a1.7,1.7,0,0,1-1.6.9h-9.4a1.4,1.4,0,0,1-1-2l7.5-14.7A2.8,2.8,0,0,1,315.7,184.7Z"/><path class="j" d="M316.2,185.6h7.7a1.3,1.3,0,0,1,1.2,1.8l-7.6,14.8a1.6,1.6,0,0,1-1.5.9h-9.3a.8.8,0,0,1-.7-1.1l7.5-14.7A2.9,2.9,0,0,1,316.2,185.6Z"/><path class="af" d="M316.9,191.7l4.7,1.9,1,3.8-2.3,5.6-8.3,1.2,2.5-2.5-.3-2.1a10.1,10.1,0,0,1-2.4-1.1,2.1,2.1,0,0,1,.6-1.6,13.6,13.6,0,0,1,2.8.8s-2.9-2.2-2.8-2.6.4-1.3,1-1.4,5.2,2.1,5.2,2.1l.7,1.7.7-2.7S315.9,193.6,316.9,191.7Z"/><path class="ag" d="M316.3,200.6l.2-.5a3,3,0,0,0-.2-1.2,2.4,2.4,0,0,0-.6-1l-.5-.2a3.4,3.4,0,0,1,.9,1.3A7.5,7.5,0,0,1,316.3,200.6Z"/><path class="ag" d="M318.5,199.8c.1-.1-.1-.5-.2-1.3a3.4,3.4,0,0,0-.2-1.3,1.6,1.6,0,0,0-.4-.7,1.4,1.4,0,0,0-.8-.5l-2.9-1-1.2-.3,1.2.5,2.8,1,.7.4a1.6,1.6,0,0,1,.4.7,6.1,6.1,0,0,1,.3,1.3A5.8,5.8,0,0,0,318.5,199.8Z"/><path class="ag" d="M319.6,198.9c.1,0,.1-.4,0-.9s-.2-.9-.3-.9-.1.4,0,.9S319.5,198.9,319.6,198.9Z"/><path class="ac" d="M319.7,188.4a.9.9,0,0,1-1,1,.9.9,0,0,1-.9-1,1,1,0,0,1,.9-1A1,1,0,0,1,319.7,188.4Z"/><path class="ah" d="M319.7,356.6l-1.8-6.3L306,351l1.8,9.2h.7c3.3,0,16.9-.2,19-.9S319.7,356.6,319.7,356.6Z"/><path class="ah" d="M315.7,340l3-5.7-10.5-5.7-4.5,8.1.6.4c2.8,1.8,14.4,8.8,16.6,9.2S315.7,340,315.7,340Z"/><path class="ai" d="M297.5,227.3l33,45.6a24.7,24.7,0,0,1,3,23.1l-15.6,40.7-14.6-7.6,12.3-38.2a2.4,2.4,0,0,0-.7-2.4L291.1,267l-3.7-39.7Z"/><path class="aj" d="M304.6,356.8l15.8-2.3L306,290.1l-10-62.8H267.3l-1.5,18.5c0,5.8.8,11.8,3.2,16.5l13,26.1C281.9,290.1,304.6,356.8,304.6,356.8Z"/><path class="ak" d="M295.4,181.1a12.4,12.4,0,0,1,7.6,8.3,68.1,68.1,0,0,1,2.3,14.5l-6.7,1.5Z"/><path class="ak" d="M305.3,237.5l-39.5,5.4,1.7-39-1.8,5-12.8-8.3,2.7-6.3a30.1,30.1,0,0,1,4.3-7.9,16.7,16.7,0,0,1,9.6-5.7l5.2-1,11.7.2a61.2,61.2,0,0,1,9,1.1Z"/><path class="al" d="M290.6,144.3a4.8,4.8,0,0,1,5.7-.6,7.1,7.1,0,0,1,3.1,5.2c.1,1.3-.2,3,.4,4.2a23.5,23.5,0,0,1,1.9,3c.6,1.5.7,5.2-1.4,6.5s-18,11.6-21,8.9"/><path class="af" d="M290.1,181.1v-7.2s5.2-.8,6.3-7.6c.5-3.3.3-8.8,0-13.3s-2.9-9.2-8.3-9.1c0,0-11.7-.9-12.3,8.1l-.2,29.1a7.3,7.3,0,0,0,7.3,7.4h0A7.5,7.5,0,0,0,290.1,181.1Z"/><path class="ag" d="M290,173.9a17,17,0,0,1-9-2.4s2.2,4.6,8.9,4Z"/><path class="al" d="M280.5,164.3a20.9,20.9,0,0,1,.1,2.4c-.1,2.1-1.7-1.4-3.6-.4s-4.9,1.5-6.1-4.2c-.4-1.8-2.3-1.7-3-4.2a5.7,5.7,0,0,1,.5-4.9,3.8,3.8,0,0,1,1.9-1.7,4.7,4.7,0,0,0,2.4-2.4c.6-1.1,1-2.2,1.6-3.1a4.1,4.1,0,0,1,2-1.7,4.5,4.5,0,0,1,1.4-1c2.2-1.3,4.9-1.2,7.5-1.1s8.1-2.2,8.4,4.3a2.1,2.1,0,0,0-3.3.3,3.9,3.9,0,0,0-.5,2.8,4.7,4.7,0,0,1-.3,3.3,3.5,3.5,0,0,1-3,1.3,9.4,9.4,0,0,1-3.2-1.1s-.8,4.3-3.7,5.3Z"/><path class="af" d="M293.4,209.9l-4-3.9a4.5,4.5,0,0,0-3.6-.7,4.7,4.7,0,0,0-2.9,1.8l-4.4,6.3-17.1,3s3.4-7.8,3.4-8.1l.4.3-.4-.3h0l-10.6-6.9-4.7,11.4s-4.3,11.7,4.6,15,29.5-7.7,29.5-7.7h-.1l2.6-1.9,1.3-1.1a4.6,4.6,0,0,0,1.5-3l.5-4.4,3.5,1.8c.6.3.8,0,.9-.4A1.4,1.4,0,0,0,293.4,209.9Z"/><path class="ag" d="M289.4,210c.1,0,0-.2-.2-.5a2.1,2.1,0,0,0-1.1-.9,1.4,1.4,0,0,0-1.3.3c-.3.3-.3.5-.3.5s.1-.2.4-.4a1.3,1.3,0,0,1,1.1-.1,2,2,0,0,1,1,.7Z"/><path class="ag" d="M286.4,211.7l.4-.3,1-.2a1.2,1.2,0,0,1,.9.3l.4.2c.1,0,0-.2-.3-.4a1.5,1.5,0,0,0-1-.4,1.6,1.6,0,0,0-1.1.4Z"/><path class="ah" d="M143.7,199.1l10.3-1.6h.1v9.3c0,.1,0,.2-.1.2H143.3v-7.8c0-.1.1-.1.1-.2Z"/><path class="ah" d="M134.5,200.4l7.6-1.1.2.2v7.6h-.1l-8,.2a.2.2,0,0,1-.2-.2v-6.6h.5Z"/><path class="ah" d="M134.2,208.2h8.1v7.7l-.2.2-8-1v-6.8C134.1,208.2,134.1,208.2,134.2,208.2Z"/><path class="ah" d="M143.8,208.2h10.4v9.3l-.2.2c-3.5-.6-7.1-1-10.6-1.5h-.2v-7.8c0-.1,0-.1.1-.1Z"/><path class="am" d="M144.1,207.1v-8h-.7c0,.1-.1.1-.1.2v7.8h.8Z"/><path class="am" d="M134.9,207.2v-6.8H134v6.6a.2.2,0,0,0,.2.2h.8C134.9,207.3,134.9,207.3,134.9,207.2Z"/><path class="an" d="M142.3,208.1h0Z"/><path class="am" d="M134.9,215.1v-6.8c0-.1,0-.1.1-.1h-.8c-.1,0-.1,0-.1.1v6.6h.8Z"/><path class="am" d="M144.2,216.3v-8a.1.1,0,0,1,.1-.1h-.8c-.1,0-.1,0-.1.1v7.8h.9Z"/><path class="ah" d="M219.3,215.3l10.3-1.6a.1.1,0,0,1,.1.1h0v9.3h-.2l-10.6.2h-.2v-7.8c0-.1,0-.2.1-.2Z"/><path class="ah" d="M210.1,216.6l7.6-1.1h.1v7.7h-8.3v-6.6c0-.1,0-.1.1-.1Z"/><path class="ah" d="M209.7,224.4h8.2v7.7c0,.1,0,.2-.1.2l-8-1.1h-.1v-6.6Z"/><path class="ah" d="M219.3,224.4h10.5v9.3c0,.1,0,.2-.1.2-3.5-.6-7.1-1-10.7-1.5h-.1v-7.8h.5Z"/><path class="am" d="M219.7,223.3v-8h-.7c-.1,0-.1.1-.1.2v7.8h.9Z"/><path class="am" d="M210.4,223.4v-6.8h-.7c-.1,0-.1,0-.1.1v6.6h.8Z"/><path class="an" d="M217.8,224.3Z"/><path class="am" d="M210.5,231.3v-7h-.9v6.6h.8Z"/><path class="am" d="M219.7,232.5v-8h-.9v7.8h.8Z"/><path class="ah" d="M88.3,224.1l4.8-.7h0v4.4H88.1v-3.6h.2Z"/><path class="ah" d="M84,224.7l3.6-.5h0v3.5H83.8v-3.1H84Z"/><path class="ah" d="M83.9,228.3h3.7v3.5h-.1l-3.7-.5h-.1v-3.1Z"/><path class="ah" d="M88.3,228.3h4.9v4.2h0a.1.1,0,0,1-.1.1l-4.9-.7h-.1v-3.6h.2Z"/><path class="am" d="M88.5,227.8v-3.7h-.3v3.6h.4Z"/><path class="am" d="M84.2,227.9v-3h-.4v3.1h.4Z"/><path class="an" d="M87.6,228.3Z"/><path class="am" d="M84.2,231.6v-3.2h-.4v3.1h.4Z"/><path class="am" d="M88.5,232.1v-3.7h-.4V232h.4Z"/></svg>