<svg xmlns="http://www.w3.org/2000/svg" xmlns:xlink="http://www.w3.org/1999/xlink" viewBox="0 0 400 400"><defs><style>.a{fill:url(#a);}.b{fill:#005b9f;}.c{fill:#d6eeff;}.d{fill:#1f364c;}.e{fill:#0070c4;}.f{fill:none;stroke:#0070c4;stroke-width:0.3px;}.g{fill:#ffbc98;}.h,.o{fill:#fff;}.i{fill:#21e2e2;}.j{fill:#98cdf2;}.k{fill:#30a3d1;}.l{opacity:0.56;isolation:isolate;fill:url(#b);}.m{fill:#1ed1d1;}.n{fill:#80c9ff;}.o{font-size:58.4px;font-family:MarkPro-Bold, MarkPro Bold;font-weight:700;}</style><linearGradient id="a" x1="-2177.82" y1="401.91" x2="-2177.82" y2="400.58" gradientTransform="matrix(569.41, 0, 0, -126.11, 1240266.3, 50844.94)" gradientUnits="userSpaceOnUse"><stop offset="0" stop-color="#288ed9"/><stop offset="1" stop-color="#137fcf" stop-opacity="0.05"/></linearGradient><linearGradient id="b" x1="-2167.99" y1="401.75" x2="-2167.99" y2="402.55" gradientTransform="matrix(152.79, 0, 0, -35.3, 331512.09, 14500.87)" gradientUnits="userSpaceOnUse"><stop offset="0" stop-color="#288ed9" stop-opacity="0"/><stop offset="1" stop-color="#005b9f"/></linearGradient></defs><title>Organization Validated</title><ellipse class="a" cx="197.2" cy="284.3" rx="188.8" ry="41.8"/><rect class="b" x="47.6" y="62" width="298.9" height="215.8" rx="6.6"/><path class="c" d="M172.5,74.4h65.3l4.5,11.3H168Z"/><path class="d" d="M59,85H332.2V216.3H59Z"/><rect class="e" x="59" y="108.1" width="273.2" height="169.49"/><rect class="f" x="59.1" y="108.2" width="273" height="169.29"/><path class="g" d="M62.6,75a3.7,3.7,0,0,1,3.7,3.7,3.6,3.6,0,0,1-3.7,3.7,3.7,3.7,0,0,1-3.7-3.7A3.8,3.8,0,0,1,62.6,75Z"/><circle class="h" cx="73.3" cy="78.7" r="3.7"/><circle class="i" cx="84.1" cy="78.7" r="3.7"/><rect class="j" x="80.4" y="93.3" width="238.1" height="8.69"/><rect class="c" x="70.9" y="93.3" width="7.2" height="8.69"/><path class="d" d="M99,74.4h65.3l4.5,11.3H94.5Z"/><rect class="g" x="81.3" y="162.3" width="75.2" height="5.05"/><rect class="g" x="81.3" y="174.3" width="108.6" height="5.05"/><rect class="k" x="90" y="200.8" width="99.9" height="3.42"/><rect class="k" x="90" y="209.4" width="99.9" height="3.42"/><rect class="k" x="90" y="217.9" width="99.9" height="3.42"/><rect class="k" x="90" y="226.5" width="99.9" height="3.42"/><rect class="k" x="90" y="192.3" width="99.9" height="3.42"/><rect class="k" x="90" y="235" width="48.6" height="3.42"/><circle class="g" cx="83.7" cy="194" r="2.4"/><circle class="g" cx="83.7" cy="202.5" r="2.4"/><circle class="g" cx="83.7" cy="211.1" r="2.4"/><circle class="g" cx="83.7" cy="219.6" r="2.4"/><circle class="g" cx="83.7" cy="228.2" r="2.4"/><circle class="g" cx="83.7" cy="236.7" r="2.4"/><ellipse class="l" cx="256.4" cy="301.6" rx="50.7" ry="11.7"/><path class="i" d="M292.4,297.9a9,9,0,0,1-8.9,9H229.8a9,9,0,0,1-8.9-9V250.4a9,9,0,0,1,8.9-9h53.7a9,9,0,0,1,8.9,9Z"/><path class="m" d="M283.4,241.4h-6.1V253a41.9,41.9,0,0,1-42,42.1H220.9v2.8a9,9,0,0,0,9,9h53.5a9,9,0,0,0,9-9V250.5A9.1,9.1,0,0,0,283.4,241.4Z"/><path class="i" d="M256.7,205.1h-.1a24.8,24.8,0,0,0-24.8,24.8v11.5h9.9V228.7a14.9,14.9,0,0,1,14.9-14.9h.1a14.9,14.9,0,0,1,14.9,14.9v12.7h9.9V229.9A24.8,24.8,0,0,0,256.7,205.1Z"/><rect class="m" x="231.8" y="235.5" width="9.9" height="5.97"/><rect class="m" x="271.6" y="235.5" width="9.9" height="5.97"/><path class="n" d="M80.9,145.1l2.4-.2a4.8,4.8,0,0,0,.7,2.3,4.3,4.3,0,0,0,2,1.5,7.2,7.2,0,0,0,2.9.6,7.8,7.8,0,0,0,2.6-.4,4.8,4.8,0,0,0,1.6-1.2,2.5,2.5,0,0,0,.5-1.6,1.8,1.8,0,0,0-.5-1.6,3.4,3.4,0,0,0-1.7-1.1l-3.4-1a12.3,12.3,0,0,1-3.7-1.2,5.5,5.5,0,0,1-2-1.7,4.4,4.4,0,0,1-.7-2.4,5,5,0,0,1,.8-2.7,4.5,4.5,0,0,1,2.4-1.9,8.4,8.4,0,0,1,3.5-.7,9.9,9.9,0,0,1,3.8.7,5.5,5.5,0,0,1,2.5,2,5.5,5.5,0,0,1,.9,3l-2.4.2a4.1,4.1,0,0,0-1.3-2.7,5.9,5.9,0,0,0-3.4-1,5,5,0,0,0-3.3.9,2.3,2.3,0,0,0-1.1,2,2.1,2.1,0,0,0,.8,1.7,11,11,0,0,0,3.8,1.4,16.6,16.6,0,0,1,4.2,1.2,6,6,0,0,1,2.5,1.9,5.3,5.3,0,0,1,.8,2.7,4.8,4.8,0,0,1-.9,2.9,5.7,5.7,0,0,1-2.5,2.1,9.5,9.5,0,0,1-3.7.8,12.6,12.6,0,0,1-4.3-.8,6.3,6.3,0,0,1-2.8-2.3A6.7,6.7,0,0,1,80.9,145.1Zm17.8,0,2.4-.2a4.8,4.8,0,0,0,.7,2.3,4.3,4.3,0,0,0,2,1.5,7.2,7.2,0,0,0,2.9.6,6.9,6.9,0,0,0,2.5-.4,4.3,4.3,0,0,0,1.7-1.2,2.5,2.5,0,0,0,.5-1.6,1.8,1.8,0,0,0-.5-1.6,3.4,3.4,0,0,0-1.7-1.1l-3.4-1a12.3,12.3,0,0,1-3.7-1.2,5.5,5.5,0,0,1-2-1.7,4.4,4.4,0,0,1-.7-2.4,5,5,0,0,1,.8-2.7,4.5,4.5,0,0,1,2.4-1.9,8.4,8.4,0,0,1,3.5-.7,9.9,9.9,0,0,1,3.8.7,5.5,5.5,0,0,1,2.5,2,5.5,5.5,0,0,1,.9,3l-2.4.2a4.6,4.6,0,0,0-1.3-2.7,5.9,5.9,0,0,0-3.4-1,5,5,0,0,0-3.3.9,2.3,2.3,0,0,0-1.1,2,2.1,2.1,0,0,0,.8,1.7,11,11,0,0,0,3.8,1.4,16.6,16.6,0,0,1,4.2,1.2,6,6,0,0,1,2.5,1.9,5.3,5.3,0,0,1,.8,2.7,4.8,4.8,0,0,1-.9,2.9,5.7,5.7,0,0,1-2.5,2.1,9.5,9.5,0,0,1-3.7.8,12.6,12.6,0,0,1-4.3-.8,6.3,6.3,0,0,1-2.8-2.3A6.7,6.7,0,0,1,98.7,145.1Zm18.5,6.1V132.1h2.5V149h9.5v2.2Z"/><text class="o" transform="translate(229.6 174.3)">OV</text><path class="b" d="M261.9,280.6H251l3.8-10a1.6,1.6,0,1,1,3.2,0Z"/><circle class="b" cx="256.4" cy="269.1" r="5.5"/></svg>