<svg xmlns="http://www.w3.org/2000/svg" viewBox="0 0 400 400"><defs><style>.a{fill:#74818e;}.b{fill:#fda080;}.c{fill:#f4907c;}.d,.g{fill:#37b5e8;}.d,.f{opacity:0.2;}.e,.l{fill:gray;}.ad,.e{opacity:0.4;}.h{fill:#e5e5e5;}.i{fill:#666;}.j{fill:#cbcbcb;}.k{fill:#fff;}.m{fill:#a5b4c2;}.n{fill:#ffe7cb;}.o{fill:#c4ccd7;}.p{fill:#647889;}.q{fill:#f8fbfc;}.r{fill:#d4d2d1;}.s{fill:#fdf5ea;}.t{fill:#288ed9;}.u{fill:#f59b6b;}.v{fill:#ea8f68;}.w{fill:#0e71bb;}.x{fill:#2283bf;}.y{fill:#e28166;}.z{fill:#f16a44;}.aa{fill:#93603d;}.ab{fill:#a4704c;}.ac{fill:#28aae1;}.ad{fill:#606060;}.ae{fill:#6bcff2;}</style></defs><title>parspack-host</title><path class="a" d="M284.2,376.1a5.8,5.8,0,0,1-.4-11.5,59.5,59.5,0,0,0,16.2-4.3,69.9,69.9,0,0,0,30.3-23.8,5.8,5.8,0,1,1,9.4,6.8c-22.3,30.5-53.8,32.8-55.2,32.8Z"/><path class="a" d="M59.5,271.7a5.8,5.8,0,0,1,11.5-.3,61.4,61.4,0,0,0,4.3,16.2,69.9,69.9,0,0,0,23.8,30.3,5.8,5.8,0,1,1-6.8,9.3c-30.5-22.3-32.8-53.8-32.8-55.1Z"/><path class="a" d="M231.9,43.4a5.8,5.8,0,0,1,.7,7.9,5.8,5.8,0,0,1-8.2.9,59.7,59.7,0,0,0-14.8-7.7A70,70,0,0,0,171.1,42a5.8,5.8,0,1,1-2.4-11.4c36.9-7.7,61.9,11.7,62.9,12.5Z"/><polygon class="b" points="89 266.9 122.4 249.4 134.9 282.5 101.9 294.1 89 266.9"/><path class="c" d="M99.8,265.5s10.5-2.2,14.9,0,8.3,15.4,8.3,15.4l22,1.6-19.9-37.4-20.6,9.7Z"/><path class="d" d="M107,141.6a33.4,33.4,0,0,0-17.1,44.1l56.6,129a33.4,33.4,0,0,0,44.1,17.1L313.1,278a70.6,70.6,0,0,0,42.3-64.7V140.7c0-50.9-52.4-85.1-99.1-64.6Z"/><circle class="e" cx="310" cy="233" r="11.3" transform="translate(12.2 481.5) rotate(-76.8)"/><circle class="e" cx="262.2" cy="101" r="11.3" transform="translate(103.9 333.2) rotate(-76.8)"/><circle class="e" cx="125.2" cy="179.7" r="11.3" transform="translate(-78.6 260.1) rotate(-76.7)"/><g class="f"><path class="g" d="M202.8,251.3l-10.7,11L147,301.4l-7-1.6,6.5,14.9a29.3,29.3,0,0,0,2.1,3.9c5.3-1.4,12-3.6,14.9-5.8,5.2-4.1,28.8-37.3,28.8-37.3s7-4.4,7.9-6.7,2.7-12.6,3.4-14.3S202.8,251.3,202.8,251.3Z"/><path class="g" d="M162,245.3c2.4-.2,4.2-3.6,4.2-3.6L170,240l.5-3.7-6.3-2.7L129,223.5l-21.9-4.8-1.1,3.7,6.4,14.6,36.7,7.2S159.6,245.6,162,245.3Z"/></g><path class="d" d="M270.1,217.6l2.5,22.8,12.9,21,19.8,20.1-81.8,35.7-4.8-39.4-4.7-21-13-22.2L268.9,205a3.4,3.4,0,0,1,.5,1.5C269.5,207.2,270.1,217.6,270.1,217.6Z"/><rect class="h" x="215.3" y="229.6" width="67.9" height="46.38" rx="2.3" transform="translate(-79.8 119.6) rotate(-23.4)"/><rect class="i" x="219.6" y="231.9" width="53.9" height="28.84" rx="1.9" transform="translate(-77.5 118) rotate(-23.4)"/><rect class="j" x="249" y="261" width="12.4" height="10.9" rx="1.9" transform="translate(-84.7 123) rotate(-23.4)"/><path class="k" d="M267,204.6l-32.5,14.1-32.4,14a1.7,1.7,0,0,0-.6,2.7l7.9,8.5a1.2,1.2,0,0,0,1.4.2l29.3-12.6,29.3-12.7a1.1,1.1,0,0,0,.7-1.2l-.7-11.5A1.8,1.8,0,0,0,267,204.6Z"/><path class="l" d="M270.1,217.6l-.7-11.4a1.5,1.5,0,0,0-1.8-.3l-32.5,14L202.6,234a1.7,1.7,0,0,0-1.1,1.5l7.9,8.4a1.2,1.2,0,0,0,1.4.2l29.3-12.6,29.3-12.7A1.1,1.1,0,0,0,270.1,217.6Z"/><path class="m" d="M267.2,218.4l-.2-9.5a1.8,1.8,0,0,0-1.6-.2l-29.6,12.8-29.6,12.8a1.6,1.6,0,0,0-1,1.3l6.7,6.7a1,1,0,0,0,1.2.1l26.7-11.5,26.7-11.5A1,1,0,0,0,267.2,218.4Z"/><path class="n" d="M238.4,287.7,235.8,275s2.5-8,2.3-9.5-2.9-11.2-2.9-11.2-1.8-.2-2.2.8,0,5.7,0,5.7a12.9,12.9,0,0,1-1.8-2.4c-.3-.6-.9-7.2-1.2-10.4a1.9,1.9,0,0,0-1.8-1.7h0a1.9,1.9,0,0,0-1.9,1.7l-.4,3.7-3.2.6-1.4,3.4-3.3,7,2,8,4.7,6.1,1,10.9Z"/><path class="n" d="M282.7,268.8l-8.7-9.6s-8-2.7-9.1-3.7-7.3-8.9-7.3-8.9.9-1.6,1.9-1.3,4.6,3.3,4.6,3.3a16.3,16.3,0,0,0-.8-2.8c-.4-.6-5.4-5-7.8-7.1a2,2,0,0,1-.3-2.5h0a1.9,1.9,0,0,1,2.4-.5l3.3,1.8,2.3-2.2,3.7.8,7.6,1.5,5.2,6.3,2.3,7.3,8.2,7.2Z"/><rect class="k" x="140.6" y="227.8" width="56.8" height="40.7" transform="translate(-73.5 71.1) rotate(-19.6)"/><rect class="o" x="140.2" y="228.1" width="55.3" height="37.69" transform="translate(-73.1 70.6) rotate(-19.6)"/><rect class="k" x="137.8" y="225" width="56.8" height="40.7" transform="matrix(0.94, -0.34, 0.34, 0.94, -72.67, 69.99)"/><path class="n" d="M142.1,223.5l6.7,2.8s7.7-1.6,10.2-.6,10.1,5.8,10.9,6.3a9.4,9.4,0,0,1,2,3.8c0,.6-1.6,3-3.4,3.2l-9.8.4a21,21,0,0,1,2.4,2.2c.4.5.4,1.9.1,2.1s-6.4-2.4-8.2-3-4.4-2.9-4.9-3.4S146,235,146,235l-7.4-3Z"/><path class="n" d="M184.3,277.8l4.7-5.6s7.5-2,9.3-4,1.2-5.2,1.7-6.1-.2-6.5.1-6.9,3.4-3,4.5-4.2.6-3.3-.4-2.8-12.4,7.9-12.4,7.9,1-2.5,1.1-3.1a2.3,2.3,0,0,0-.9-1.9c-.3-.1-4.6,5.1-5.9,6.4a16.7,16.7,0,0,0-2.9,5.3c-.2.6-.8,3-.8,3l-5.2,6.1Z"/><rect class="p" x="181.1" y="146.7" width="54.3" height="36.41" rx="4.8" transform="matrix(0.95, -0.32, 0.32, 0.95, -41.44, 74.21)"/><path class="q" d="M235.5,176.3l-42.3,14.1a6,6,0,0,1-7.7-3.8l-8.4-25.4a5.9,5.9,0,0,1,3.8-7.6l42.4-14.1a5.9,5.9,0,0,1,7.6,3.8l8.5,25.4A6,6,0,0,1,235.5,176.3Zm-51.9-21a3.5,3.5,0,0,0-2.3,4.5l8.4,25.4a3.7,3.7,0,0,0,4.6,2.3L234.8,174a3.5,3.5,0,0,0,2.2-4.5l-8.4-25.4a3.7,3.7,0,0,0-4.6-2.3Z"/><path class="r" d="M185.1,172.6a1.5,1.5,0,0,1-2.8,1,1.4,1.4,0,0,1,.9-1.9A1.5,1.5,0,0,1,185.1,172.6Z"/><polygon class="d" points="146.2 124.5 186.1 181.8 204.1 177.3 199.1 165.2 188.6 162.3 176.4 140.3 239.1 117.4 240.1 107.5 231.8 86.8 146.2 124.5"/><path class="s" d="M201.9,170.9l-8.3-3.8a1,1,0,0,0-1.2.3h0a1,1,0,0,0,.3,1.5l8.4,3.7a1,1,0,0,0,1.3-.5A1,1,0,0,0,201.9,170.9Z"/><path class="n" d="M184.1,117.4a21.5,21.5,0,0,1-4.7,1.3c-2.3.3-5.2-.9-7.1-.6s-6.8,3.7-6.8,3.7l-1.8,4.5-1.2,7.4,8.3,3.3s2.2,1,5.6-.9,9.7-7.2,9.7-7.2l4.2-2.2Z"/><path class="n" d="M189.9,159.2l5.6,2s3,3.2,3.6,4,0,3.5,0,3.5,1.9,2,1.8,3.8-3.1,4.4-6.8,4.5-7.6.6-8.5,0-5-8.9-5-8.9l-5.9-8.1,11.5-5.6Z"/><path class="t" d="M70.3,276.6s-1.8-19.3,2.6-25.3S101,203.5,103,201.9s44,21.5,44,21.5-4.7,11.1-5.2,11.3-31.7-11.2-31.7-11.2L104.7,241l8.1-3.1,7.2,16.4s-8.6,5.4-23.1,12.6A124.2,124.2,0,0,1,70.3,276.6Z"/><path class="t" d="M86.5,308.2c-.2.5,20.9,16,29.1,13.2s39.9-10.6,44.2-13.7,28.1-31.3,28.1-31.3l-7.5-9.2-25.1,22.7L138,295.2l-8.2-18.6S94.7,287.2,86.5,308.2Z"/><path class="u" d="M222,283.6l18.7-2.5,7.1,25.6,47.8-21L279,269.3l11.4-13.9,36.8,30.2s10.8,31.8,10.5,35.3-13.1,30.3-32.4,39.3-45.6-2.7-49.1-3.5-24.2-27.1-24.6-27.9S222,283.6,222,283.6Z"/><path class="u" d="M241.2,105.1c-2.4-12.7-3.5-41.2-5.8-45.2s-10.3-12.7-21.6-17.1c0,0-48.4-4.2-59.5,2.6s-15.1,66.7-15,69.4S176.5,165,176.5,165l11.8-9.3-23.9-39.3,53.1-23.3,1,6.6-37.1,17.1,7.4,13.2,47.4-16.4A7.5,7.5,0,0,0,241.2,105.1Z"/><polygon class="v" points="182.2 160.5 177.7 161.5 139.5 115.6 176.5 165 182.2 160.5"/><path class="v" d="M241.3,107.5a15,15,0,0,1-5.8,4.5c-3.5,1.3-44.5,13.9-44.5,13.9l-4.9-.6,2.7,4.7,47.4-16.4A7.7,7.7,0,0,0,241.3,107.5Z"/><path class="v" d="M164.4,116.4,172,60.2s21.9-2.2,28,0,15.3,6.4,15.3,6.4l2.2,26.5Z"/><path class="v" d="M157.9,49.4s11.5,14.2,11.8,28.1,4.7,8.1,4.7,8.1L172,60.2S166.1,52,157.9,49.4Z"/><path class="v" d="M215.8,72.4s-2.6-14.9,4.7-22.2a23.2,23.2,0,0,0-11.9,14.5C205.8,75.2,215.8,72.4,215.8,72.4Z"/><path class="n" d="M205.6,61.9c.4-.2-.3,10.2-.3,10.2l-3.4,5.2s-7.9,5.7-9.4,6.3-10,.9-10,.9-2.6,1.2-3.8.6-2.5-4.8-2.5-4.8-4.8-2.6-4.6-12.4,12.7-14.2,12.7-14.2Z"/><path class="n" d="M174.9,43.6s-2.9-1.2-4.6,1,1.2,6.4,1.2,6.4Z"/><path class="n" d="M213.8,62.4s2.2.6,2.2,2.4-4.2,6.3-7.1,5.9S213.8,62.4,213.8,62.4Z"/><path class="w" d="M170.2,64.8s-1.6-17.9,4.2-26.3,12.2-10,12.2-10a16.4,16.4,0,0,1,13.6-1.2,28.2,28.2,0,0,1,16.7,17.2c2.5,7.4-1.1,18.2-5.2,23.5a55.8,55.8,0,0,1-9.8,9.3s2.4-6.9-.4-7.3c0,0-11,8.4-18.4,7.9s-8.8-2-8.8-2,9-2.1,12.8-5.2c0,0-10.5,3.1-15.3,3l3.5-4.5-2.4,1.2A8.8,8.8,0,0,1,170.2,64.8Z"/><path class="x" d="M112.8,237.9l-8.1,3.1-4.9,12.5s7.8-1.1,9.6,0,2.4,2.7,3.8,4.8l6.8-4Z"/><path class="x" d="M129.8,276.6s-2.2.7-5.5,2c1.4,3.3,3.6,9,3.1,12.4-.7,5.1-7.4,9-7.4,9l18-4.8Z"/><path class="n" d="M270.6,328.2s-3.2-8.7.1-13.8,14.2-9.9,20.8-7.3c9.7,3.7,9,6.8,9,6.8Z"/><path class="w" d="M305.2,314.7s-7-7.5-17.4-5.9-12.7,3.9-12.7,3.9h2.7l-4.8,3.7s-5.7,9.4-5.6,16a20.7,20.7,0,0,0,3.3,10.9s1.2,6.5,4.3,9.3,10.5,5.8,16.1,5.2a28.6,28.6,0,0,0,10.4-3.5,13.7,13.7,0,0,0,11.6-13.4s3.4-4.2,3.6-6.7-1.7-8.7-1.7-8.7S312.6,315.1,305.2,314.7Z"/><path class="w" d="M102.2,269.2s-7-7.5-17.4-5.8-12.7,3.8-12.7,3.8h2.7l-4.9,3.7s-5.7,9.4-5.5,16a19.7,19.7,0,0,0,3.3,10.9s1.2,6.5,4.3,9.3,10.5,5.8,16.1,5.2a29.5,29.5,0,0,0,10.4-3.5,12.7,12.7,0,0,0,8.3-4.6,13.4,13.4,0,0,0,3.3-8.8s3.4-4.2,3.6-6.6-1.8-8.8-1.8-8.8S109.6,269.6,102.2,269.2Z"/><path class="v" d="M247.8,306.7l2.9,12,8,9.5s2.1-13.3,12.5-21.9,28.5-6.5,31.1-6.3,12.8,11.9,12.8,11.9l-5.5-14.7-14-11.5Z"/><path class="y" d="M334.5,328.8S314.9,354,296.8,359c-15.9,4.3-35.1-.7-39.6-2,5.9,2,30,11.6,48.1,3.2C319.1,353.8,329.5,338.4,334.5,328.8Z"/><path class="s" d="M197.4,168.7l-9.2-4.2a1.1,1.1,0,0,0-1.3.3v.2a1.1,1.1,0,0,0,.4,1.6l9.3,4.1a1.1,1.1,0,0,0,1.4-.5A1.1,1.1,0,0,0,197.4,168.7Z"/><rect class="k" x="261.2" y="157.1" width="56.8" height="40.7"/><rect class="o" x="261.2" y="157.1" width="55.3" height="37.69"/><rect class="k" x="259.5" y="153.4" width="56.8" height="40.7"/><path class="z" d="M112.1,184.5a1.8,1.8,0,0,0,2.4.5l5.9-3.6-1.8-2.9-5.9,3.6A1.8,1.8,0,0,0,112.1,184.5Z"/><circle class="z" cx="125.8" cy="176" r="10.5" transform="translate(-87.6 140.5) rotate(-45)"/><circle class="aa" cx="125.8" cy="176" r="8.5"/><path class="ab" d="M117.7,178.4a8.4,8.4,0,0,0,16.5-1.3,8.4,8.4,0,0,0-8.1-6A8.5,8.5,0,0,0,117.7,178.4Z"/><path class="z" d="M273.1,86.4a1.6,1.6,0,0,0-2.4,0l-4.9,4.9,2.4,2.4,4.9-4.9A1.6,1.6,0,0,0,273.1,86.4Z"/><circle class="z" cx="261.4" cy="98.1" r="10.5" transform="translate(105.7 329.9) rotate(-76.7)"/><circle class="aa" cx="261.4" cy="98.1" r="8.5"/><path class="ab" d="M253.3,100.5a8.6,8.6,0,0,0,8.1,6.1,8.4,8.4,0,0,0,8.4-7.3,8.4,8.4,0,0,0-8.1-6.1A8.5,8.5,0,0,0,253.3,100.5Z"/><path class="z" d="M317.1,240.7a1.5,1.5,0,0,0,.5-2.2l-3.4-5.4-2.6,1.7,3.4,5.4A1.6,1.6,0,0,0,317.1,240.7Z"/><circle class="z" cx="309.2" cy="227.4" r="9.6" transform="translate(16.6 475.9) rotate(-76.7)"/><circle class="aa" cx="309.2" cy="227.4" r="7.8"/><path class="ab" d="M301.8,229.6a7.7,7.7,0,0,0,15.1-1.1,7.7,7.7,0,0,0-15.1,1.1Z"/><path class="n" d="M116.8,276.6c-.3-.5-1.7-.8-3-.9-5.2-9.6-18.4-9.9-18.4-9.9s-1.1,4.1,4.6,10.9,5.5,20.5,5.5,20.5a25,25,0,0,0,6-4.9c2.5-2.8,4.9-6.8,3.9-12.1C116.2,278.8,117,277.2,116.8,276.6Z"/><path class="v" d="M243.7,285.6l-1.3-4.8a2.5,2.5,0,0,0-2.8-1.8l-16.4,2.1a2.5,2.5,0,0,0-2.1,3.1l1.2,5.1a2.5,2.5,0,0,0,2.8,1.9l16.5-2.5A2.5,2.5,0,0,0,243.7,285.6Z"/><path class="v" d="M273.5,266.7l3.9,3.1a2.4,2.4,0,0,0,3.2-.1l12.1-11.4a2.5,2.5,0,0,0,0-3.7l-4-3.4a2.5,2.5,0,0,0-3.4.1l-12,11.7A2.4,2.4,0,0,0,273.5,266.7Z"/><rect class="o" x="253.4" y="123.3" width="56.8" height="40.7" transform="translate(-18.6 44.6) rotate(-8.8)"/><rect class="k" x="253" y="122.9" width="56.8" height="40.7" transform="translate(-18.6 44.6) rotate(-8.8)"/><rect class="o" x="252.8" y="123.1" width="55.3" height="37.69" transform="translate(-18.4 44.4) rotate(-8.8)"/><rect class="k" x="250.8" y="119.6" width="56.8" height="40.7" transform="translate(-18.1 44.2) rotate(-8.8)"/><circle class="ac" cx="284.4" cy="139.1" r="10.8"/><path class="k" d="M286.6,147.5l4-5.4-4.3-3.2h0l3.2-4.4-5.4-4-3.2,4.4h0l-4,5.4,5.4,4h0Zm2.1-5.2-2.4,3.3-3.2-2.4,2.4-3.3Zm-1.1-7.5-2.4,3.3-3.2-2.4,2.4-3.3Zm-8.8,5.2,2.4-3.2,3.2,2.3-2.4,3.3Z"/><circle class="ac" cx="307" cy="174.9" r="4.3"/><path class="k" d="M307.4,178.3l1.8-1.9-1.5-1.5h0l1.5-1.5-1.8-1.9-1.6,1.5h0l-1.8,1.9,1.8,1.9h0Zm1.1-1.9-1.1,1.1-1.2-1.1,1.2-1.1Zm0-3-1.1,1.1-1.2-1.1,1.2-1.1Zm-3.8,1.5,1.1-1.1,1.2,1.1-1.2,1.1Z"/><path class="ad" d="M295.8,165.7v22a.6.6,0,0,1-.6.6.7.7,0,0,1-.7-.6V165.9Z"/><path class="ad" d="M288.4,166.7v21a.7.7,0,0,1-.7.6.6.6,0,0,1-.6-.6V166.9Z"/><path class="ad" d="M281,167.8v19.9a.7.7,0,0,1-1.4,0V168Z"/><path class="ad" d="M273.5,169.2v18.5a.6.6,0,0,1-.6.6.7.7,0,0,1-.7-.6V169.4Z"/><path class="ae" d="M221.6,174.3a3.8,3.8,0,0,1-4.9-2.4l-5.5-17a4.1,4.1,0,0,1,2.6-5.2,4.3,4.3,0,0,1,5.3,2.6,6.8,6.8,0,0,1,.2,1.4H221a5.5,5.5,0,0,1,4,3.5,5.3,5.3,0,0,1-1.9,5.9,2.7,2.7,0,0,1,.7,1.3,3.4,3.4,0,0,1-.8,3.6,3.1,3.1,0,0,1,1,1.5A3.8,3.8,0,0,1,221.6,174.3Z"/></svg>