<svg xmlns="http://www.w3.org/2000/svg" xmlns:xlink="http://www.w3.org/1999/xlink" viewBox="0 0 400 400"><defs><style>.a{fill:#e4e6f0;}.b{fill:url(#a);}.c{fill:url(#b);}.d{fill:url(#c);}.e{fill:#21e2e2;}.f{fill:#288ed9;}.al,.g{fill:#ffe7cb;}.h,.x{fill:#152735;}.i{fill:#1f364c;}.j{isolation:isolate;}.k{fill:#27456f;opacity:0.15;}.al,.k,.x{mix-blend-mode:multiply;}.l{font-size:27.72px;font-family:AdobeArabic-Regular, Adobe Arabic;}.m{fill:url(#d);}.n{clip-path:url(#e);}.o{fill:#edf1f6;}.ag,.p{fill:#fff;}.q{fill:#0a5487;}.r{opacity:0.24;}.s{fill:#f0f4f7;}.t{clip-path:url(#f);}.u{fill:#f59b6b;}.v{clip-path:url(#g);}.w{clip-path:url(#h);}.x{opacity:0.3;}.y{clip-path:url(#i);}.z{fill:url(#j);}.aa{clip-path:url(#k);}.ab{fill:#005b9f;}.ac{fill:#0e71bb;}.ad{clip-path:url(#m);}.ae,.ag{opacity:0.53;}.af{clip-path:url(#o);}.ah{clip-path:url(#q);}.ai{clip-path:url(#r);}.aj{fill:#59f7ef;opacity:0.37;}.ak{fill:#b3b7d4;}.al{opacity:0.39;}.am{fill:#28aae1;}</style><linearGradient id="a" x1="52.91" y1="208.75" x2="68.29" y2="208.75" gradientUnits="userSpaceOnUse"><stop offset="0" stop-color="#ffbc98"/><stop offset="1" stop-color="#ff9f6c"/></linearGradient><linearGradient id="b" x1="41.97" y1="218.53" x2="64.32" y2="218.53" xlink:href="#a"/><linearGradient id="c" x1="58.35" y1="216.47" x2="79.71" y2="216.47" xlink:href="#a"/><linearGradient id="d" x1="217.05" y1="330.14" x2="168.43" y2="54.38" gradientUnits="userSpaceOnUse"><stop offset="0" stop-color="#c6e6ff"/><stop offset="1" stop-color="#fff"/></linearGradient><clipPath id="e"><rect class="a" x="73.4" y="95.6" width="269.8" height="128.62"/></clipPath><clipPath id="f"><path class="f" d="M113.8,137.1l-26.1,7.6s8.2,41.3,4.8,69.5S87.7,241,87.7,241h20.6S124.8,198,113.8,137.1Z"/></clipPath><clipPath id="g"><path class="g" d="M199,335.3l-7.8,7.6s1.3,3.4-6.1,9c0,0-17.6-25.9-16.4-26.7s10.7,7.5,10.7,7.5l7.1,3,7.4-8.2Z"/></clipPath><clipPath id="h"><path class="h" d="M269.4,281s-27.1,16.4-33.5,17.8c0,0-21.4,28.7-42.8,43.6l-7.9-7.8s37.9-56.5,47.9-58.6S268,277.4,269.4,281Z"/></clipPath><clipPath id="i"><path class="g" d="M246.6,330.9l2.1,10.6s3.6.8,4.3,10c0,0-31.3.7-31.3-.7s12.1-5,12.1-5l6.4-4.3-2.9-10.6Z"/></clipPath><linearGradient id="j" x1="259.41" y1="237.89" x2="309.99" y2="237.89" xlink:href="#a"/><clipPath id="k"><path class="i" d="M305.1,271.1s-.1,19.2-70.6,12c0,0,13.1,27.3,16.6,59.3l-12.8,2.9s-26.4-58.8-22.6-79.5a1.7,1.7,0,0,1,1.4-1.4c5.8-1.2,31.7-6.1,48.7-5.5C285.1,259.6,305.1,271.1,305.1,271.1Z"/></clipPath><clipPath id="m"><path class="b" d="M64.1,189.9l-3.1,2,2.2-4a32.6,32.6,0,0,0-5.2-8.3,70,70,0,0,0-4.9,31.8l5,2.8-4.7-.4a69,69,0,0,0,6.9,23.8l4.4.3C70.9,214.9,67.9,199.2,64.1,189.9Z"/></clipPath><clipPath id="o"><path class="c" d="M49.9,202.4,48,204.8l.5-3.8a27,27,0,0,0-6.5-5,59.8,59.8,0,0,0,5.4,26.5l4.8.7-3.9,1.2A59,59,0,0,0,60.7,241l3.6-1C62.5,220,55.5,208.6,49.9,202.4Z"/></clipPath><clipPath id="q"><path class="d" d="M79.6,203.5l-3.1.2,3.2-2.1a25.3,25.3,0,0,0-.8-8.2,58.3,58.3,0,0,0-15.8,21.9l2.6,4-3.4-2.1a56.3,56.3,0,0,0-3.9,20.4l3.1,1.9C75,224.7,78.8,211.8,79.6,203.5Z"/></clipPath><clipPath id="r"><rect class="e" x="51" y="235.6" width="19.3" height="15.9" rx="1.2"/></clipPath></defs><title>parspack-iran-dedicated-server-advantage</title><g class="j"><ellipse class="k" cx="198.8" cy="355.9" rx="193" ry="10.9"/><path class="e" d="M83.4,354.8h19.3s-.7-3.4-2.1-4.8-2-4.1-5.5-4.8a8.8,8.8,0,0,0-9.6,4.8A7.7,7.7,0,0,0,83.4,354.8Z"/><text class="l" transform="translate(78.3 -34.8)">*<tspan x="8.1" y="0">کپ سراپ ناریا یصاصتخا روس ایازم</tspan><tspan x="266.9" y="0"> </tspan></text><path class="m" d="M365.8,172.4c-4.9,45.1-25.6,93.6-77.7,126.5-1.8,1.2-3.5,2.3-5.3,3.3l-7.4,4.3A246.7,246.7,0,0,1,240,322.7q-3.6,1.4-7.2,2.4l-7,2.2a216.3,216.3,0,0,1-29.7,6.4c-57.1,8.2-109-8.5-142.6-37.5A128.8,128.8,0,0,1,36.8,279a111.4,111.4,0,0,1-11.3-17c-29.3-54.1-6.7-118.9,41.2-135.3,52.5-17.9,77.1-2.6,138.3-53.2s122.9-56.4,147.8.1a168.1,168.1,0,0,1,10.8,36.8A216.7,216.7,0,0,1,365.8,172.4Z"/><rect class="a" x="73.4" y="95.6" width="269.8" height="128.62"/><g class="n"><ellipse class="o" cx="100.3" cy="216.8" rx="69.9" ry="49.1"/><ellipse class="o" cx="404.5" cy="206.1" rx="54.5" ry="61.5"/></g><rect class="e" x="73.1" y="95.4" width="270.7" height="5.13"/><rect class="p" x="119.3" y="124.9" width="112" height="14.53"/><rect class="p" x="242.8" y="168.9" width="74.4" height="9.4" transform="translate(106.4 453.6) rotate(-90)"/><rect class="p" x="269.3" y="175.8" width="62.4" height="9.4" transform="translate(120.1 481) rotate(-90)"/><rect class="p" x="295.4" y="178.8" width="54.7" height="9.4" transform="translate(139.3 506.2) rotate(-90)"/><rect class="p" x="119.3" y="152.7" width="112" height="14.53"/><circle class="e" cx="256.8" cy="129.6" r="6.8"/><circle class="e" cx="256.8" cy="160" r="6.8"/><path class="p" d="M229.9,197.8c0-2.2.1-1.4.1-1.8,0-10.9-8.6-19.9-19.1-19.9l-1.1-.2v21.9Z"/><path class="p" d="M207.6,200V178.2c-11.1.5-18,9.1-18,19.6s8.5,20.1,19.1,20.1a19,19,0,0,0,19-17.9Z"/><polygon class="q" points="263 288.7 250 356.1 255.6 355.9 269.4 288.7 263 288.7"/><polygon class="q" points="292.6 288.7 305.5 356.1 300.3 356.1 286.1 288.7 292.6 288.7"/><path class="e" d="M246.3,281.3s-6.4,8.3,23.1,7.4,37-1,39.8-8.4,8.3-51.7,12.9-53.6-5.5-6.5-8.3,3.7-6.5,47.2-18.5,48.1S246.3,281.3,246.3,281.3Z"/><g class="r"><path class="p" d="M205.9,237.5a3.1,3.1,0,0,1-1.4-4.6c1.8-3.1,5.6-2.1,3.3-6.2s-5.1-2.3-2.8-5.3,3.7.2,3.3,1-1.2.4-1.2.4a1,1,0,0,0,.8-1.2c-.2-1-2.3-.6-2.6.8s10,5.4,7.2,7.7-3.9,3.8-2.8,4.9-2.6,2.6-2.6,2.6Z"/><path class="p" d="M207.2,238a2.1,2.1,0,0,0,.5-2.7c-.7-1.9-2.2-1.3-1.3-3.7s2.1-1.4,1.2-3.2-1.6.2-1.4.6.5.2.5.2-.4,0-.3-.6.9-.4,1,.4-4,3.2-2.9,4.6,1.6,2.3,1.1,2.9,1.1,1.5,1.1,1.5Z"/></g><path class="e" d="M212.3,237.3h-9.9a.7.7,0,0,0-.7.9l.3,2.5a2.2,2.2,0,0,0-1.4-.2,1.9,1.9,0,0,0-1.5,1.4,4.2,4.2,0,0,0-.2,2.5,4.6,4.6,0,0,0,1.1,2.2,2.4,2.4,0,0,0,1.6.8h.4a1.8,1.8,0,0,0,.9-.4l.4,3.2c.1.7,8.3.7,8.4,0l1.3-12A.7.7,0,0,0,212.3,237.3Zm-10.5,9.3a1.3,1.3,0,0,1-1.2-.5,3.9,3.9,0,0,1-1-1.9,3.4,3.4,0,0,1,.2-2,1.4,1.4,0,0,1,1-1h.2a1.6,1.6,0,0,1,1,.5l.2.2.5,4A1.3,1.3,0,0,1,201.8,246.6Z"/><path class="e" d="M122.1,345.6a16.4,16.4,0,0,0-2.8,9.7h29.6s2.1,0,1.4-1.4-11.7-2.1-13.8-3.4-4.1-5.6-4.1-5.6Z"/><path class="i" d="M93.9,234.8,85.1,347.5a37.4,37.4,0,0,0,17,.7l19.3-112-2.1,109.7s13,3.2,16.4-.3l5-123.8-5.6-6.2H106.7Z"/><path class="f" d="M157.1,192.9s-2.7-11.7-6.1-13.1-2.8,10.3-2.8,10.3Z"/><path class="s" d="M124.1,138.2l-10.3-1.1-6.5,14.8-2.1,61.9,4.1,4.9h28.9l-4.1-53S127.6,140.9,124.1,138.2Z"/><path class="g" d="M124.5,135c-.8,3.2-.4,4.9-3.6,7.2s-7.1-3.7-7.1-3.7l1.2-12.3S123,131.9,124.5,135Z"/><path class="f" d="M113.8,137.1l-26.1,7.6s8.2,41.3,4.8,69.5S87.7,241,87.7,241h20.6S124.8,198,113.8,137.1Z"/><g class="t"><path class="f" d="M95.7,140.6l-1.2-9.1"/></g><path class="f" d="M124.1,138.2,141,150.5l8.3,19.3-4.2,33,.7,38.6h-6.2s-9.6-26.2-8.2-49.6S126.2,141.6,124.1,138.2Z"/><polygon class="u" points="153.6 165.9 133.1 179.1 105.6 179.1 104.2 212.1 134.4 214.2 151.7 203.2 153.6 165.9"/><path class="g" d="M99.8,195.2l1.9-1,3.3-1v2.9l2.7.3s3,8.6-3.1,8.9-8.7-1.6-8.7-1.6S94.1,196.1,99.8,195.2Z"/><path class="g" d="M152.5,187.2a19.6,19.6,0,0,1,1.9,2.9c.7,1.4,4.1,2.8,2.8,4.8,0,0,2,3.5,0,4.1s-5.5,2.8-7.6,1.4S149.2,191.2,152.5,187.2Z"/><path class="f" d="M87.8,144.6S68,176,70.1,191.1s26.7,14.2,26.7,14.2-3.4-7.7,2.1-10.3c0,0-10.2-5.2-13.7-5.2,0,0,11.7-14.5,12.4-20S96.1,146,87.8,144.6Z"/><path class="g" d="M199,335.3l-7.8,7.6s1.3,3.4-6.1,9c0,0-17.6-25.9-16.4-26.7s10.7,7.5,10.7,7.5l7.1,3,7.4-8.2Z"/><g class="v"><path class="e" d="M192.1,343.6c-.2-1-.4-1.3-4.5-.7s.3-7.3-1.6-8.7-18.3-11-18.3-11l-1.5,4,19,26.9S193.2,348.4,192.1,343.6Z"/></g><path class="h" d="M269.4,281s-27.1,16.4-33.5,17.8c0,0-21.4,28.7-42.8,43.6l-7.9-7.8s37.9-56.5,47.9-58.6S268,277.4,269.4,281Z"/><g class="w"><path class="x" d="M264.7,286s-25.2,0-27.3-.8,7.2,8.1,7.7,15.8-21.4,17.5-21.4,17.5-11.1-34.6-8.5-36.3S257.9,275.8,264.7,286Z"/></g><path class="g" d="M246.6,330.9l2.1,10.6s3.6.8,4.3,10c0,0-31.3.7-31.3-.7s12.1-5,12.1-5l6.4-4.3-2.9-10.6Z"/><g class="y"><path class="e" d="M249.8,341.1c-.9-.3-1.3-.4-3,3.5s-6-4.3-8.1-3.5-19.3,9.4-19.3,9.4L222,354l32.9-1.3S254.5,342.8,249.8,341.1Z"/></g><path class="z" d="M293.6,203.3l2.1,1.5s7.9,0,14.3,2.8c0,0,0,57.7-5.7,64.8,0,0-32.1-1.4-44.9-13.5,0,0,7.1-51.3,10.7-53.4s16.4-.7,16.4-.7Z"/><path class="i" d="M305.1,271.1s-.1,19.2-70.6,12c0,0,13.1,27.3,16.6,59.3l-12.8,2.9s-26.4-58.8-22.6-79.5a1.7,1.7,0,0,1,1.4-1.4c5.8-1.2,31.7-6.1,48.7-5.5C285.1,259.6,305.1,271.1,305.1,271.1Z"/><g class="aa"><path class="i" d="M250.2,312.7l-.8-.2"/></g><path class="g" d="M295.1,194.1l.6,10.7s-6.4,5.7-11.4,0l.8-9.3Z"/><path class="g" d="M316,240.3s-2.7-4.2-5.5-9.2c3.7-4,9.1-4.3,11.5-4.2a105.1,105.1,0,0,1,6,18.9s-3.4,9.4-38.9,5.2l-2.6-5.6S308.7,244.1,316,240.3Z"/><path class="u" d="M310,233.5c-3.3-6-6.4-15.4-6-18.4.9-5.6,2.6-6.4,2.6-6.4s2.6-3,6,.4,8,11.6,11.5,20.1C321.7,229.1,313.8,229.4,310,233.5Z"/><path class="ab" d="M290.9,248.4,279.4,220a2.6,2.6,0,0,0-2.3-1.6H228.7a1.8,1.8,0,0,0-1.6,2.5l13.2,31h69.8l-.6-2.5Z"/><path class="g" d="M279.3,172.3s-8.1,23.5,3,26.5,15.8-8.1,15.8-8.1V175Z"/><path class="ac" d="M294.2,196.5s17.2-7.6,10.6-18.6c0,0,1-8.2-8.3-9.9,0,0-11.4-11.2-11.4-3.2,0,0-9.2-4.1-7.8,4.2,0,0-8.2,0-1.5,6.3a20.8,20.8,0,0,0,19.7,3.3s-3.9,4.4-2.1,9.8C293.4,188.4,292.3,193.5,294.2,196.5Z"/><path class="g" d="M293.2,188.5c-1,1.9-.5,4,1,4.7s3.5-.1,4.4-1.9.5-3.9-1-4.7S294.1,186.7,293.2,188.5Z"/><path class="ac" d="M296.3,177.8a1.9,1.9,0,0,1-.5.9l-.7.5-1.5.6-3,.6-3.1.3-3.2.2,3.1-.3,3.1-.5a16.7,16.7,0,0,0,3-.8,8.4,8.4,0,0,0,1.4-.6c.2-.1.3-.3.5-.5a.8.8,0,0,0,.3-.4Z"/><path class="ac" d="M304,177.5a1.9,1.9,0,0,0,.9-.3,2.7,2.7,0,0,0,.7-.8,3,3,0,0,0,.4-1,4.3,4.3,0,0,0,.2-1.1v1.1l-.3,1.2a6.1,6.1,0,0,1-.7,1,2.7,2.7,0,0,1-1.2.6Z"/><path class="ac" d="M303.4,177.1l.8.5.9.3a2.9,2.9,0,0,0,2-.5,3.2,3.2,0,0,1-2,.8L304,178a2.4,2.4,0,0,1-1-.5Z"/><path class="b" d="M64.1,189.9l-3.1,2,2.2-4a32.6,32.6,0,0,0-5.2-8.3,70,70,0,0,0-4.9,31.8l5,2.8-4.7-.4a69,69,0,0,0,6.9,23.8l4.4.3C70.9,214.9,67.9,199.2,64.1,189.9Z"/><g class="ad"><g class="ae"><path class="p" d="M58.4,189.3c.5,14.2,1.7,28.4,3.6,42.5.6,4,1.1,8,1.8,12,0,.2.3.1.3-.1a423.6,423.6,0,0,1-4.8-42.1q-.4-6.2-.6-12.3a.1.1,0,0,0-.3,0Z"/></g><g class="ae"><path class="p" d="M59.4,203.2a45.1,45.1,0,0,1,5.2-5.5c.1-.2-.1-.4-.2-.3-1.9,1.8-3.6,3.7-5.3,5.6-.1.2.2.3.3.2Z"/></g><g class="ae"><path class="p" d="M61.6,224.9c1.6-2.2,3.2-4.6,4.7-6.9.1-.2-.1-.3-.2-.2l-4.7,7a.1.1,0,1,0,.2.1Z"/></g><g class="ae"><path class="p" d="M60.2,212a44.2,44.2,0,0,1,3.9-4.7c.1-.1-.1-.4-.2-.2a57.1,57.1,0,0,0-3.9,4.7c-.1.2.1.3.2.2Z"/></g><g class="ae"><path class="p" d="M58.9,196.3,55,194.1c-.2-.1-.3.2-.2.3l3.9,2.1c.2.1.4-.1.2-.2Z"/></g><g class="ae"><path class="p" d="M59.7,208.6c-1.6-.8-3.1-1.7-4.6-2.6s-.4.1-.2.2l4.6,2.7c.2.1.3-.2.2-.3Z"/></g><g class="ae"><path class="p" d="M62.4,232.6a20.4,20.4,0,0,0-4-1.8c-.2-.1-.2.2-.1.2a23.2,23.2,0,0,1,3.9,1.8c.2.1.3-.1.2-.2Z"/></g><g class="ae"><path class="p" d="M60.8,220.7a47.4,47.4,0,0,1-7.2-3.4.1.1,0,1,0-.1.2,47.9,47.9,0,0,0,7.2,3.5c.2,0,.3-.2.1-.3Z"/></g></g><path class="c" d="M49.9,202.4,48,204.8l.5-3.8a27,27,0,0,0-6.5-5,59.8,59.8,0,0,0,5.4,26.5l4.8.7-3.9,1.2A59,59,0,0,0,60.7,241l3.6-1C62.5,220,55.5,208.6,49.9,202.4Z"/><g class="af"><path class="ag" d="M45.1,203.5c4.6,11.1,9.7,21.9,15.3,32.5,1.6,3,3.2,6,4.9,8.9.1.2.3.1.2-.1-5.9-10.3-11.2-21-16.1-31.8-1.4-3.2-2.7-6.3-4-9.5-.1-.2-.3-.1-.3,0Z"/><path class="ag" d="M50,214.2a43.5,43.5,0,0,1,2.5-5.9c0-.1-.2-.2-.2-.1a54.2,54.2,0,0,0-2.6,6c0,.1.2.2.3,0Z"/><path class="ag" d="M58.1,230.7c.6-2.3,1.1-4.5,1.6-6.8.1-.2-.2-.2-.2-.1-.5,2.3-1.1,4.6-1.7,6.9,0,.1.2.2.3,0Z"/><path class="ag" d="M53.2,220.9a39,39,0,0,1,1.7-4.8c0-.2-.2-.3-.2-.1a27.4,27.4,0,0,0-1.7,4.8c-.1.2.1.2.2.1Z"/><path class="ag" d="M47.6,208.9l-3.7-.6c-.2,0-.3.3-.1.3l3.7.5c.2,0,.2-.2.1-.2Z"/><path class="ag" d="M51.8,218.4l-4.4-.7c-.2,0-.2.2-.1.2l4.4.7c.2.1.2-.2.1-.2Z"/><path class="ag" d="M60.9,236.5l-3.6-.3a.2.2,0,0,0,0,.3,14.5,14.5,0,0,1,3.6.2c.1.1.2-.2,0-.2Z"/><path class="ag" d="M56.2,227.6a36.8,36.8,0,0,1-6.6-.6c-.2,0-.2.2-.1.2a37.9,37.9,0,0,0,6.7.6c.2,0,.2-.2,0-.2Z"/></g><path class="d" d="M79.6,203.5l-3.1.2,3.2-2.1a25.3,25.3,0,0,0-.8-8.2,58.3,58.3,0,0,0-15.8,21.9l2.6,4-3.4-2.1a56.3,56.3,0,0,0-3.9,20.4l3.1,1.9C75,224.7,78.8,211.8,79.6,203.5Z"/><g class="ah"><g class="ae"><path class="p" d="M75.5,200.8c-5.1,10.8-9.6,21.9-13.6,33.1-1.2,3.2-2.3,6.5-3.3,9.7-.1.1.1.2.2.1,3.7-11.3,7.9-22.5,12.7-33.4,1.3-3.1,2.7-6.3,4.2-9.4a.1.1,0,1,0-.2-.1Z"/></g><g class="ae"><path class="p" d="M70.9,211.6a48.4,48.4,0,0,1,6-2.2c.2,0,.1-.2,0-.2a62.6,62.6,0,0,0-6.1,2.1c-.2.1,0,.3.1.3Z"/></g><g class="ae"><path class="p" d="M64.2,228.7l6.2-3.4c.1-.1,0-.3-.1-.2l-6.2,3.4c-.2,0-.1.2.1.2Z"/></g><g class="ae"><path class="p" d="M68.1,218.4l4.7-2c.2,0,.1-.3,0-.2l-4.8,2c-.1.1,0,.3.1.2Z"/></g><g class="ae"><path class="p" d="M73.2,206.2l-2.1-3.1c-.1-.1-.3,0-.2.1l2.1,3.1c.1.1.3,0,.2-.1Z"/></g><g class="ae"><path class="p" d="M69,215.7,66.6,212c-.1-.1-.3,0-.2.1l2.4,3.7c.1.2.3.1.2-.1Z"/></g><g class="ae"><path class="p" d="M61.8,234.7a20.1,20.1,0,0,0-2.2-2.9c-.1-.1-.3,0-.2.2a15.1,15.1,0,0,1,2.2,2.8c.1.1.3,0,.2-.1Z"/></g><g class="ae"><path class="p" d="M65.2,225.2a40.9,40.9,0,0,1-4-5.3c-.1-.1-.3,0-.2.1a42.6,42.6,0,0,0,4.1,5.4c.1.1.2-.1.1-.2Z"/></g></g><rect class="e" x="51" y="235.6" width="19.3" height="15.9" rx="1.2"/><g class="ai"><rect class="aj" x="57.9" y="235.6" width="19.3" height="15.9" rx="1.2"/></g><rect class="ak" x="35.3" y="250.1" width="336.5" height="7.69"/><rect class="q" x="349.7" y="257.8" width="5.3" height="97.22"/><rect class="q" x="50.2" y="257.8" width="5.3" height="97.22"/><path class="al" d="M115,127.1h0s0,10.6,7.9,9.7c1-.1,1.4-.4,1.4-.9C121,135.1,115,133.1,115,127.1Z"/><path class="g" d="M125.5,113c-2.1,3.5-8.2,7.6-8.2,7.6a4.4,4.4,0,0,0-3.2-4.1c-1.8.2,1.4,7.2,1.4,7.2a14.7,14.7,0,0,0-.5,3.4c0,6,6,8,9.3,8.7l2.2.3c6.5-2.5,9.7-11.8,11-16.8C128.9,118,125.5,113,125.5,113Z"/><path class="ac" d="M127.6,100.6a13.3,13.3,0,0,0-11,4.2l-2.8,11.7h.3a4.4,4.4,0,0,1,3.2,4.1s6.1-4.1,8.2-7.6c0,0,3.4,5,12,6.3,0,0,5.9-1.5,5.9-6.3S134.5,101.3,127.6,100.6Z"/><ellipse class="g" cx="115.5" cy="120.5" rx="2.9" ry="4.4" transform="translate(-29.7 38.2) rotate(-16.7)"/><path class="p" d="M261.4,235.6a3.5,3.5,0,0,1-3.6,4.5,6.7,6.7,0,0,1-6.1-4.5,3.5,3.5,0,0,1,3.5-4.8A6.9,6.9,0,0,1,261.4,235.6Z"/><path class="am" d="M260.3,235.2l-2.7-2.1-1.3,1.7h0l-2.2-1.7-1.6,2.1,2.2,1.7h0l2.7,2,1.6-2h0Zm-2.5-1.2,1.6,1.2-.9,1.3-1.7-1.3Zm-3.5,0,1.7,1.2-.9,1.3-1.7-1.3Zm2.9,4.1-1.6-1.2.9-1.3,1.6,1.3Z"/></g></svg>