<svg xmlns="http://www.w3.org/2000/svg" xmlns:xlink="http://www.w3.org/1999/xlink" viewBox="0 0 400 400"><defs><style>.a{isolation:isolate;}.b{fill:url(#a);}.c{fill:#164571;}.d{fill:#0e71bb;}.e{fill:#005b9f;}.f{fill:#21e2e2;}.g{fill:#ffbc98;}.h{fill:#52acea;}.i{fill:#30a3d1;}.j{fill:#565656;}.k{fill:#aaa;}.l{fill:#4a4a4a;}.m{fill:#f9ae00;}.n{fill:#6a6a6a;}.o{fill:#292929;}.p{fill:#bcbcbb;}.q{mix-blend-mode:soft-light;fill:url(#b);}.r{fill:#959593;}.s{fill:#c74000;}.t{fill:#afafae;}.u{fill:#f9c7a5;}.v{fill:#ffe7cb;}.w{fill:#ffbd95;}.x{fill:#152735;}.y{fill:#1f364c;}.z{fill:#288ed9;}.aa{fill:url(#c);}.ab{fill:#1b1b35;}.ac{fill:url(#d);}.ad{fill:url(#e);}.ae,.af{fill:#d3c2be;opacity:0.5;}.ae{mix-blend-mode:screen;}.af{mix-blend-mode:multiply;}.ag{fill:url(#f);}.ah{fill:url(#g);}</style><linearGradient id="a" x1="217.61" y1="346.83" x2="166.53" y2="57.12" gradientUnits="userSpaceOnUse"><stop offset="0" stop-color="#c6e6ff"/><stop offset="1" stop-color="#fff"/></linearGradient><linearGradient id="b" x1="194.03" y1="187.6" x2="255.17" y2="187.6" gradientUnits="userSpaceOnUse"><stop offset="0" stop-color="#9ba9a9"/><stop offset="0.17" stop-color="#a1aeae"/><stop offset="0.39" stop-color="#b2bcbc"/><stop offset="0.65" stop-color="#cdd4d4"/><stop offset="0.92" stop-color="#f3f5f5"/><stop offset="1" stop-color="#fff"/></linearGradient><linearGradient id="c" x1="267.44" y1="280.01" x2="300.8" y2="280.01" gradientUnits="userSpaceOnUse"><stop offset="0" stop-color="#ffbc98"/><stop offset="1" stop-color="#ff9f6c"/></linearGradient><linearGradient id="d" x1="297.31" y1="286.56" x2="325.44" y2="286.56" gradientUnits="userSpaceOnUse"><stop offset="0" stop-color="#44989f"/><stop offset="0.21" stop-color="#39b0b4"/><stop offset="0.52" stop-color="#2ccbcd"/><stop offset="0.8" stop-color="#24dcdd"/><stop offset="1" stop-color="#21e2e2"/></linearGradient><linearGradient id="e" x1="283.28" y1="338.2" x2="313.79" y2="338.2" xlink:href="#c"/><linearGradient id="f" x1="289.14" y1="360.65" x2="307.93" y2="360.65" xlink:href="#c"/><linearGradient id="g" x1="281.92" y1="319.06" x2="315.15" y2="319.06" xlink:href="#c"/></defs><title>possibility-iran-dedicated-server</title><g class="a"><path class="b" d="M390.1,232.4c-6.6-20.4-17.1-26.6-27-39.7-12.1-15.9-20.3-27.5-17.1-48,5.1-33.6,7.3-117.2-73.1-106.3-28.9,3.9-51.6,28.3-68.2,52.7-14.1,20.7-39.5,22.5-59.9,27.3-25.1,6-50.7,14.9-73.9,28.1-47.8,27-62.1,65.9-60.2,115.6.6,15,2.6,38.7,25.6,66.4,31,37.4,76.1,42.4,130.5,25.2,12.4-3.9,24.1-10,36.4-14.7a157.5,157.5,0,0,1,39.3-9.4c31.2-3.3,63.5,2.7,93.4-7.6a97.5,97.5,0,0,0,41.8-28.6A63.2,63.2,0,0,0,390.1,232.4Z"/><rect class="c" x="188" y="270.2" width="80.1" height="6.34" rx="0.9"/><rect class="d" x="185.3" y="248.1" width="85.3" height="23.88" rx="2.2"/><path class="e" d="M187.7,248.1h28.8v23.8H187.7a2.3,2.3,0,0,1-2.4-2.3V250.4a2.3,2.3,0,0,1,2.4-2.3Z"/><path class="f" d="M197.2,257.9h0a2.5,2.5,0,0,1,2.4,2.5v.2a2.5,2.5,0,0,1-2.4,2.5h0a2.5,2.5,0,0,1-2.5-2.5v-.2A2.5,2.5,0,0,1,197.2,257.9Z"/><path class="g" d="M204.4,257.9h0a2.5,2.5,0,0,1,2.5,2.5v.2a2.5,2.5,0,0,1-2.5,2.5h0a2.5,2.5,0,0,1-2.5-2.5v-.2A2.5,2.5,0,0,1,204.4,257.9Z"/><rect class="h" x="222.5" y="254.8" width="2.4" height="2.4" rx="1.2"/><rect class="h" x="225.4" y="259.6" width="2.4" height="2.4" rx="1.2"/><rect class="h" x="246.5" y="254.8" width="2.4" height="2.4" rx="1.2"/><rect class="h" x="249.4" y="259.6" width="2.4" height="2.4" rx="1.2"/><rect class="h" x="227.3" y="254.8" width="2.4" height="2.4" rx="1.2"/><rect class="h" x="230.2" y="259.6" width="2.4" height="2.4" rx="1.2"/><rect class="h" x="232.1" y="254.8" width="2.4" height="2.4" rx="1.2"/><rect class="h" x="235" y="259.6" width="2.4" height="2.4" rx="1.2"/><rect class="h" x="236.9" y="254.8" width="2.4" height="2.4" rx="1.2"/><rect class="h" x="239.8" y="259.6" width="2.4" height="2.4" rx="1.2"/><rect class="h" x="241.7" y="254.8" width="2.4" height="2.4" rx="1.2"/><rect class="h" x="244.6" y="259.6" width="2.4" height="2.4" rx="1.2"/><rect class="h" x="222.3" y="264.1" width="2.4" height="2.4" rx="1.2"/><rect class="h" x="246.3" y="264.1" width="2.4" height="2.4" rx="1.2"/><rect class="h" x="227.1" y="264.1" width="2.4" height="2.4" rx="1.2"/><rect class="h" x="231.9" y="264.1" width="2.4" height="2.4" rx="1.2"/><rect class="h" x="237.1" y="264.1" width="2.4" height="2.4" rx="1.2"/><rect class="h" x="241.9" y="264.1" width="2.4" height="2.4" rx="1.2"/><rect class="h" x="255.4" y="254.8" width="2.4" height="2.4" rx="1.2"/><rect class="h" x="258.2" y="259.6" width="2.4" height="2.4" rx="1.2"/><rect class="h" x="250.6" y="254.8" width="2.4" height="2.4" rx="1.2"/><rect class="h" x="253.9" y="259.6" width="2.4" height="2.4" rx="1.2"/><rect class="h" x="255.1" y="264.1" width="2.4" height="2.4" rx="1.2"/><rect class="h" x="250.8" y="264.1" width="2.4" height="2.4" rx="1.2"/><rect class="h" x="259.8" y="254.8" width="2.4" height="2.4" rx="1.2"/><rect class="h" x="262.7" y="259.6" width="2.4" height="2.4" rx="1.2"/><rect class="h" x="259.6" y="264.1" width="2.4" height="2.4" rx="1.2"/><rect class="c" x="188" y="298.6" width="80.1" height="6.34" rx="0.9"/><rect class="d" x="185.3" y="276.4" width="85.3" height="23.88" rx="2.2"/><path class="e" d="M187.7,276.4h28.8v23.9H187.7a2.4,2.4,0,0,1-2.4-2.4V278.8a2.4,2.4,0,0,1,2.4-2.4Z"/><path class="f" d="M197.2,286.3h0a2.4,2.4,0,0,1,2.4,2.4v.2a2.5,2.5,0,0,1-2.4,2.5h0a2.5,2.5,0,0,1-2.5-2.5v-.2A2.5,2.5,0,0,1,197.2,286.3Z"/><path class="g" d="M204.4,286.3h0a2.5,2.5,0,0,1,2.5,2.4v.2a2.5,2.5,0,0,1-2.5,2.5h0a2.5,2.5,0,0,1-2.5-2.5v-.2A2.5,2.5,0,0,1,204.4,286.3Z"/><rect class="h" x="222.5" y="283.2" width="2.4" height="2.4" rx="1.2"/><rect class="h" x="225.4" y="288" width="2.4" height="2.4" rx="1.2"/><rect class="h" x="246.5" y="283.2" width="2.4" height="2.4" rx="1.2"/><rect class="h" x="249.4" y="288" width="2.4" height="2.4" rx="1.2"/><rect class="h" x="227.3" y="283.2" width="2.4" height="2.4" rx="1.2"/><rect class="h" x="230.2" y="288" width="2.4" height="2.4" rx="1.2"/><rect class="h" x="232.1" y="283.2" width="2.4" height="2.4" rx="1.2"/><rect class="h" x="235" y="288" width="2.4" height="2.4" rx="1.2"/><rect class="h" x="236.9" y="283.2" width="2.4" height="2.4" rx="1.2"/><rect class="h" x="239.8" y="288" width="2.4" height="2.4" rx="1.2"/><rect class="h" x="241.7" y="283.2" width="2.4" height="2.4" rx="1.2"/><rect class="h" x="244.6" y="288" width="2.4" height="2.4" rx="1.2"/><rect class="h" x="222.3" y="292.4" width="2.4" height="2.4" rx="1.2"/><rect class="h" x="246.3" y="292.4" width="2.4" height="2.4" rx="1.2"/><rect class="h" x="227.1" y="292.4" width="2.4" height="2.4" rx="1.2"/><rect class="h" x="231.9" y="292.4" width="2.4" height="2.4" rx="1.2"/><rect class="h" x="237.1" y="292.4" width="2.4" height="2.4" rx="1.2"/><rect class="h" x="241.9" y="292.4" width="2.4" height="2.4" rx="1.2"/><rect class="h" x="255.4" y="283.2" width="2.4" height="2.4" rx="1.2"/><rect class="h" x="258.2" y="288" width="2.4" height="2.4" rx="1.2"/><rect class="h" x="250.6" y="283.2" width="2.4" height="2.4" rx="1.2"/><rect class="h" x="253.9" y="288" width="2.4" height="2.4" rx="1.2"/><rect class="h" x="255.1" y="292.4" width="2.4" height="2.4" rx="1.2"/><rect class="h" x="250.8" y="292.4" width="2.4" height="2.4" rx="1.2"/><rect class="h" x="259.8" y="283.2" width="2.4" height="2.4" rx="1.2"/><rect class="h" x="262.7" y="288" width="2.4" height="2.4" rx="1.2"/><rect class="h" x="259.6" y="292.4" width="2.4" height="2.4" rx="1.2"/><rect class="c" x="188" y="241.9" width="80.1" height="6.34" rx="0.9"/><rect class="d" x="185.3" y="219.7" width="85.3" height="23.88" rx="2.2"/><path class="e" d="M187.7,219.7h28.8v23.9H187.7a2.3,2.3,0,0,1-2.4-2.4V222.1a2.4,2.4,0,0,1,2.4-2.4Z"/><path class="f" d="M197.2,229.6h0a2.5,2.5,0,0,1,2.4,2.5v.2a2.5,2.5,0,0,1-2.4,2.5h0a2.5,2.5,0,0,1-2.5-2.5v-.2A2.5,2.5,0,0,1,197.2,229.6Z"/><path class="g" d="M204.4,229.6h0a2.5,2.5,0,0,1,2.5,2.5v.2a2.5,2.5,0,0,1-2.5,2.5h0a2.5,2.5,0,0,1-2.5-2.5v-.2A2.5,2.5,0,0,1,204.4,229.6Z"/><rect class="h" x="222.5" y="226.5" width="2.4" height="2.4" rx="1.2"/><rect class="h" x="225.4" y="231.3" width="2.4" height="2.4" rx="1.2"/><rect class="h" x="246.5" y="226.5" width="2.4" height="2.4" rx="1.2"/><rect class="h" x="249.4" y="231.3" width="2.4" height="2.4" rx="1.2"/><rect class="h" x="227.3" y="226.5" width="2.4" height="2.4" rx="1.2"/><rect class="h" x="230.2" y="231.3" width="2.4" height="2.4" rx="1.2"/><rect class="h" x="232.1" y="226.5" width="2.4" height="2.4" rx="1.2"/><rect class="h" x="235" y="231.3" width="2.4" height="2.4" rx="1.2"/><rect class="h" x="236.9" y="226.5" width="2.4" height="2.4" rx="1.2"/><rect class="h" x="239.8" y="231.3" width="2.4" height="2.4" rx="1.2"/><rect class="h" x="241.7" y="226.5" width="2.4" height="2.4" rx="1.2"/><rect class="h" x="244.6" y="231.3" width="2.4" height="2.4" rx="1.2"/><rect class="h" x="222.3" y="235.7" width="2.4" height="2.4" rx="1.2"/><rect class="h" x="246.3" y="235.7" width="2.4" height="2.4" rx="1.2"/><rect class="h" x="227.1" y="235.7" width="2.4" height="2.4" rx="1.2"/><rect class="h" x="231.9" y="235.7" width="2.4" height="2.4" rx="1.2"/><rect class="h" x="237.1" y="235.7" width="2.4" height="2.4" rx="1.2"/><rect class="h" x="241.9" y="235.7" width="2.4" height="2.4" rx="1.2"/><rect class="h" x="255.4" y="226.5" width="2.4" height="2.4" rx="1.2"/><rect class="h" x="258.2" y="231.3" width="2.4" height="2.4" rx="1.2"/><rect class="h" x="250.6" y="226.5" width="2.4" height="2.4" rx="1.2"/><rect class="h" x="253.9" y="231.3" width="2.4" height="2.4" rx="1.2"/><rect class="h" x="255.1" y="235.7" width="2.4" height="2.4" rx="1.2"/><rect class="h" x="250.8" y="235.7" width="2.4" height="2.4" rx="1.2"/><rect class="h" x="259.8" y="226.5" width="2.4" height="2.4" rx="1.2"/><rect class="h" x="262.7" y="231.3" width="2.4" height="2.4" rx="1.2"/><rect class="h" x="259.6" y="235.7" width="2.4" height="2.4" rx="1.2"/><rect class="c" x="188" y="326.9" width="80.1" height="6.34" rx="0.9"/><rect class="d" x="185.3" y="304.7" width="85.3" height="23.88" rx="2.2"/><path class="e" d="M187.7,304.7h28.8v23.9H187.7a2.4,2.4,0,0,1-2.4-2.4V307.1a2.4,2.4,0,0,1,2.4-2.4Z"/><path class="f" d="M197.2,314.6h0a2.5,2.5,0,0,1,2.4,2.5v.2a2.4,2.4,0,0,1-2.4,2.4h0a2.5,2.5,0,0,1-2.5-2.4v-.2A2.5,2.5,0,0,1,197.2,314.6Z"/><path class="g" d="M204.4,314.6h0a2.5,2.5,0,0,1,2.5,2.5v.2a2.5,2.5,0,0,1-2.5,2.4h0a2.5,2.5,0,0,1-2.5-2.4v-.2A2.5,2.5,0,0,1,204.4,314.6Z"/><rect class="h" x="222.5" y="311.5" width="2.4" height="2.4" rx="1.2"/><rect class="h" x="225.4" y="316.3" width="2.4" height="2.4" rx="1.2"/><rect class="h" x="246.5" y="311.5" width="2.4" height="2.4" rx="1.2"/><rect class="h" x="249.4" y="316.3" width="2.4" height="2.4" rx="1.2"/><rect class="h" x="227.3" y="311.5" width="2.4" height="2.4" rx="1.2"/><rect class="h" x="230.2" y="316.3" width="2.4" height="2.4" rx="1.2"/><rect class="h" x="232.1" y="311.5" width="2.4" height="2.4" rx="1.2"/><rect class="h" x="235" y="316.3" width="2.4" height="2.4" rx="1.2"/><rect class="h" x="236.9" y="311.5" width="2.4" height="2.4" rx="1.2"/><rect class="h" x="239.8" y="316.3" width="2.4" height="2.4" rx="1.2"/><rect class="h" x="241.7" y="311.5" width="2.4" height="2.4" rx="1.2"/><rect class="h" x="244.6" y="316.3" width="2.4" height="2.4" rx="1.2"/><rect class="h" x="222.3" y="320.7" width="2.4" height="2.4" rx="1.2"/><rect class="h" x="246.3" y="320.7" width="2.4" height="2.4" rx="1.2"/><rect class="h" x="227.1" y="320.7" width="2.4" height="2.4" rx="1.2"/><rect class="h" x="231.9" y="320.7" width="2.4" height="2.4" rx="1.2"/><rect class="h" x="237.1" y="320.7" width="2.4" height="2.4" rx="1.2"/><rect class="h" x="241.9" y="320.7" width="2.4" height="2.4" rx="1.2"/><rect class="h" x="255.4" y="311.5" width="2.4" height="2.4" rx="1.2"/><rect class="h" x="258.2" y="316.3" width="2.4" height="2.4" rx="1.2"/><rect class="h" x="250.6" y="311.5" width="2.4" height="2.4" rx="1.2"/><rect class="h" x="253.9" y="316.3" width="2.4" height="2.4" rx="1.2"/><rect class="h" x="255.1" y="320.7" width="2.4" height="2.4" rx="1.2"/><rect class="h" x="250.8" y="320.7" width="2.4" height="2.4" rx="1.2"/><rect class="h" x="259.8" y="311.5" width="2.4" height="2.4" rx="1.2"/><rect class="h" x="262.7" y="316.3" width="2.4" height="2.4" rx="1.2"/><rect class="h" x="259.6" y="320.7" width="2.4" height="2.4" rx="1.2"/><rect class="d" x="185.3" y="333" width="85.3" height="23.88" rx="2.2"/><path class="e" d="M187.7,333h28.8v23.9H187.7a2.3,2.3,0,0,1-2.4-2.4V335.4a2.4,2.4,0,0,1,2.4-2.4Z"/><path class="f" d="M197.2,342.9h0a2.5,2.5,0,0,1,2.4,2.5v.2a2.5,2.5,0,0,1-2.4,2.5h0a2.5,2.5,0,0,1-2.5-2.5v-.2A2.5,2.5,0,0,1,197.2,342.9Z"/><path class="g" d="M204.4,342.9h0a2.5,2.5,0,0,1,2.5,2.5v.2a2.5,2.5,0,0,1-2.5,2.5h0a2.5,2.5,0,0,1-2.5-2.5v-.2A2.5,2.5,0,0,1,204.4,342.9Z"/><rect class="h" x="222.5" y="339.8" width="2.4" height="2.4" rx="1.2"/><rect class="h" x="225.4" y="344.6" width="2.4" height="2.4" rx="1.2"/><rect class="h" x="246.5" y="339.8" width="2.4" height="2.4" rx="1.2"/><rect class="h" x="249.4" y="344.6" width="2.4" height="2.4" rx="1.2"/><rect class="h" x="227.3" y="339.8" width="2.4" height="2.4" rx="1.2"/><rect class="h" x="230.2" y="344.6" width="2.4" height="2.4" rx="1.2"/><rect class="h" x="232.1" y="339.8" width="2.4" height="2.4" rx="1.2"/><rect class="h" x="235" y="344.6" width="2.4" height="2.4" rx="1.2"/><rect class="h" x="236.9" y="339.8" width="2.4" height="2.4" rx="1.2"/><rect class="h" x="239.8" y="344.6" width="2.4" height="2.4" rx="1.2"/><rect class="h" x="241.7" y="339.8" width="2.4" height="2.4" rx="1.2"/><rect class="h" x="244.6" y="344.6" width="2.4" height="2.4" rx="1.2"/><rect class="h" x="222.3" y="349" width="2.4" height="2.4" rx="1.2"/><rect class="h" x="246.3" y="349" width="2.4" height="2.4" rx="1.2"/><rect class="h" x="227.1" y="349" width="2.4" height="2.4" rx="1.2"/><rect class="h" x="231.9" y="349" width="2.4" height="2.4" rx="1.2"/><rect class="h" x="237.1" y="349" width="2.4" height="2.4" rx="1.2"/><rect class="h" x="241.9" y="349" width="2.4" height="2.4" rx="1.2"/><rect class="h" x="255.4" y="339.8" width="2.4" height="2.4" rx="1.2"/><rect class="h" x="258.2" y="344.6" width="2.4" height="2.4" rx="1.2"/><rect class="h" x="250.6" y="339.8" width="2.4" height="2.4" rx="1.2"/><rect class="h" x="253.9" y="344.6" width="2.4" height="2.4" rx="1.2"/><rect class="h" x="255.1" y="349" width="2.4" height="2.4" rx="1.2"/><rect class="h" x="250.8" y="349" width="2.4" height="2.4" rx="1.2"/><rect class="h" x="259.8" y="339.8" width="2.4" height="2.4" rx="1.2"/><rect class="h" x="262.7" y="344.6" width="2.4" height="2.4" rx="1.2"/><rect class="h" x="259.6" y="349" width="2.4" height="2.4" rx="1.2"/><path class="i" d="M256.9,206c-6.3-1.9-13.3-.4-15.3,0a.6.6,0,0,0-.4.7l1.4,10.6a3.2,3.2,0,0,0,3.1,2.7h7.1a3.1,3.1,0,0,0,3.1-2.7l1.5-10.6A.8.8,0,0,0,256.9,206Z"/><ellipse class="e" cx="249.2" cy="206.7" rx="6.9" ry="1"/><path class="i" d="M256.6,210.4c.9-1,2.6-2,3.1,0s-2.1,4.5-3.8,5l-.2,1.6c2.8-.6,6.2-3.5,5.6-7.2a2.7,2.7,0,0,0-4.4-1.7Z"/><rect class="j" x="167.6" y="215.7" width="16.1" height="4.38"/><rect class="j" x="244.4" y="215.7" width="16.1" height="4.38"/><path class="k" d="M242.2,187.1l-1-1.3c.7-.5,16.6-12.4,26.8-12.4h.6c6.3.3,8.6,7.4,8.7,7.7l-1.6.5c0-.1-2.1-6.2-7.2-6.5H268C258.4,175.1,242.4,187,242.2,187.1Z"/><rect class="l" x="272" y="179.4" width="8.2" height="6.08" rx="0.3"/><polygon class="m" points="284.8 215.7 267 215.7 267 199.8 266.2 198 266.2 184.1 285.8 184.1 285.8 198 284.8 199.8 284.8 215.7"/><rect class="n" x="268.5" y="185.8" width="14.9" height="28.01"/><rect class="o" x="268.6" y="185.9" width="14.7" height="14.73"/><circle class="l" cx="271.6" cy="204.1" r="1"/><circle class="l" cx="274.6" cy="204.1" r="1"/><circle class="l" cx="277.6" cy="204.1" r="1"/><circle class="l" cx="280.6" cy="204.1" r="1"/><path class="l" d="M272.5,207.1a.9.9,0,0,1-.9.9.9.9,0,0,1-1-.9.9.9,0,0,1,1-1A.9.9,0,0,1,272.5,207.1Z"/><path class="l" d="M275.5,207.1a.9.9,0,0,1-1,.9.9.9,0,0,1-.9-.9.9.9,0,0,1,.9-1A.9.9,0,0,1,275.5,207.1Z"/><path class="l" d="M278.5,207.1a.9.9,0,0,1-1,.9.9.9,0,0,1-.9-.9.9.9,0,0,1,.9-1A.9.9,0,0,1,278.5,207.1Z"/><path class="l" d="M281.5,207.1a.9.9,0,0,1-1,.9.9.9,0,0,1-.9-.9.9.9,0,0,1,.9-1A.9.9,0,0,1,281.5,207.1Z"/><path class="l" d="M272.4,210.1a.9.9,0,0,1-.9.9,1,1,0,0,1-1-.9,1,1,0,0,1,1-1A.9.9,0,0,1,272.4,210.1Z"/><circle class="l" cx="274.5" cy="210.1" r="1"/><path class="l" d="M278.4,210.1a.9.9,0,0,1-.9.9.9.9,0,0,1-1-.9.9.9,0,0,1,1-1A.9.9,0,0,1,278.4,210.1Z"/><circle class="l" cx="280.5" cy="210.1" r="1"/><rect class="l" x="270" y="187.7" width="11.8" height="10.26"/><rect class="p" x="191.4" y="166.2" width="66.4" height="46.57"/><rect class="o" x="194" y="169" width="61.1" height="37.18"/><polygon class="q" points="194 169 255.2 206.2 255.2 169 194 169"/><rect class="r" x="185.3" y="212.7" width="78.1" height="2.95"/><rect class="p" x="197.1" y="171.5" width="13.9" height="1.09"/><rect class="p" x="201.9" y="174.3" width="13.9" height="1.09"/><rect class="p" x="197.1" y="184.1" width="13.9" height="1.09"/><rect class="p" x="206.8" y="180.7" width="27.7" height="1.09"/><rect class="p" x="196.7" y="197.2" width="27.7" height="1.09"/><rect class="p" x="201.9" y="187.4" width="4" height="1.09"/><rect class="s" x="215.9" y="187.5" width="1.5" height="1.09"/><rect class="p" x="207.3" y="187.5" width="7.9" height="1.09"/><rect class="s" x="200.6" y="177.6" width="4.4" height="1.09"/><rect class="p" x="208.6" y="177.6" width="4.4" height="1.09"/><rect class="p" x="205.9" y="177.6" width="1.8" height="1.09"/><rect class="s" x="205.7" y="190.3" width="4.4" height="1.09"/><rect class="p" x="213.7" y="190.3" width="4.4" height="1.09"/><rect class="p" x="210.6" y="193.1" width="4.4" height="1.09"/><rect class="p" x="210.9" y="190.3" width="1.8" height="1.09"/><rect class="s" x="220.2" y="174.3" width="1.8" height="1.09"/><rect class="t" x="128.5" y="215.6" width="169.4" height="4.52"/><polygon class="r" points="270.8 249.3 267.7 249.3 289.8 220.1 292.9 220.1 270.8 249.3"/><path class="u" d="M191.1,153.8s4.3-1.2,5.6-2.1,4.2-4.7,5-5.9c3-4.3,8.7-6.2,7.7-7.1s-9.4,4-9.9,3.7-.2-.4-.7-.5l-1.3.2c-.3,0-.3-.4-.5-.4l-1.6.2c-.3,0-.4-.3-.6-.3-4.3-.2-7.6,6.9-7.6,6.9Z"/><path class="u" d="M150.6,174.2c2,2.9,5.3,4.3,14.3-1.2s28.2-20.6,28.2-20.6l-3.2-4.8s-20.2,6.8-25.2,9.6S145.4,166.4,150.6,174.2Z"/><path class="u" d="M202.4,145.7a3.1,3.1,0,0,0-3.4.8c-1.4,1.4-5.5,4.5-5.4,5.2s2,.8,3.6.2,2.8-2.5,3.3-3.4S203.9,146.2,202.4,145.7Z"/><path class="v" d="M199.4,194.2c1.9-3.2,5.2-5,14.6-.8S242.6,209,242.6,209l-1.7,5.5s-21-2.9-26.3-5S194.4,202.8,199.4,194.2Z"/><path class="f" d="M135.2,365.5s-5.7-2.1-8.6-2.1-4.7,1.8-4.9,3.6.8,1.5,1.5,2.4,9.5,6.9,11.4,7.1,6.7.4,8.5-.3,1.8-6.9,1.8-6.9Z"/><path class="w" d="M172.1,189.3c4-12.1,14.2-33,8.2-36.6-7.8-4.7-30.2-7.6-30.2-7.6v.4s-19.3,2.4-27.1,7.2c-6,3.6,1,24.8,4.9,37,1,2.9.9,16,.5,27.6-.1,2.9-2.4,16-2,21.5.1,1.6,18.5,11.6,23.6,11.9v-.4c5.1-.3,23.5-10.3,23.6-11.9.4-5.4-1.9-18.6-2-21.5C171.3,205.3,171.2,192.3,172.1,189.3Z"/><path class="v" d="M170.8,151.7c2.6-3,8.6-2.4,14.1,4.7s19,26.4,21,29.6,7.9,9.5,2.4,15.1-10.9-.6-15.3-5.2C173.8,175.3,163.7,159.6,170.8,151.7Z"/><path class="v" d="M159.4,141.5c-.5-2.3-1.7-13.8-1.7-13.8h-7.6v.4h-7.6s-1.3,11.4-1.8,13.8-6.8,5.8-6.8,5.8h16.2v-.4h16.1S160,143.8,159.4,141.5Z"/><path class="w" d="M137.9,226c-9.2,0-12.8,6.4-12.6,26.2s3.2,41.3,4.5,44.4,14.4,3.2,15.7,1.4,4.5-42.9,4.5-49.4S148,226,137.9,226Z"/><rect class="w" x="129.7" y="290.8" width="15.8" height="21.61" rx="1.3" transform="translate(7.4 -3.3) rotate(1.4)"/><path class="w" d="M137.2,300.3c-2.8,0-9.7,1-9.4,19.4s8.3,43.8,8.3,43.8h6.6s3.3-34.2,3.3-40.7C146.1,307.8,146.2,300.3,137.2,300.3Z"/><path class="x" d="M127.9,222s-3.4,16.3-3.9,25.2,3.8,47.7,3.8,52-.2,17.3,0,30.2,3.6,38.2,3.6,38.2l16.5-.4V304.3c0-8.6,2.1-53.6,2.1-53.6v-28Z"/><path class="x" d="M171.9,221.5s5.1,15.9,6.5,24.7,1.2,47.8,1.7,52,2.1,17.3,3.1,30.1.5,38.4.5,38.4L167.2,368l-6.6-62.6c-.9-8.5-10.7-53.3-10.7-53.3V222.7Z"/><path class="f" d="M132.6,367.6a58.1,58.1,0,0,0-.1,7.6c.2,1,2.7,2.1,7,2.3a15.6,15.6,0,0,0,7.1-1.3c1.9-.8-.6-9-.6-9Z"/><path class="f" d="M178.2,364.1s5.7-2.1,8.6-2.1,4.7,1.8,4.9,3.6-.8,1.5-1.5,2.4-9.5,6.9-11.4,7.1-6.7.4-8.5-.2-1.8-7-1.8-7Z"/><path class="y" d="M170,254.8c1,5.8,2.1,44.9,2.2,47.1s5.5,59.5,5.8,62.3l5.7-1.8s.6-21.3-.5-34.1-2.7-25.8-3.1-30.1-.2-43.3-1.7-52-6.5-24.7-6.5-24.7L150,222.7c-.2,31.7,24.6,23.2,25.3,25S169.7,252.6,170,254.8Z"/><path class="y" d="M135.5,256.1c1.4,7.4,3.5,43.3,3.2,44.2s0,66.9,0,66.9l.3.2,8.9-.2V304.3c0-8.6,1.6-41.7,1.6-41.7s-2.5-6.5-6.5-6.1S135.3,254.7,135.5,256.1Z"/><path class="v" d="M164,119.8c-.1,1,.5,2.1.4,3.5s-.8,1.2-.8,1.8c-.5,4.7-1.5,9.9-4.2,9.8-4.8-.1-7.7.3-11,.3-4.8,0-11.1-5.5-12.3-15.4s8.5-17.2,17.5-17.1,10.8,6.7,10.5,15.5C164.1,118.7,164,119.2,164,119.8Z"/><path class="v" d="M160.5,116.8c-.1-.4-2.1-1.6-3,1s1.2,7.1,1.5,7.1S160.6,118.8,160.5,116.8Z"/><path class="z" d="M182.3,152.8c-1-1.7-6.5-3.1-11.6-4.7a54.8,54.8,0,0,1-8-3.3H137.6a40.4,40.4,0,0,1-9.1,2.5c-5.7.7-7.2,3.2-8,5s-1.3,18.2,6.2,39.8c1,2.9-1.6,23.6.9,29.7l22.2.8h0L172,222c2-7.1,0-27.2,1-30.2S184,155.6,182.3,152.8Z"/><path class="z" d="M181.8,152.7a24.5,24.5,0,0,1,8.1,8.5c3.8,6,16.6,24.6,16.6,24.6a22.9,22.9,0,0,1-8.2,8.7c-4.9,2.8-6.4,2.2-6.4,2.2l-17.6-19.5Z"/><path class="v" d="M238.3,208.2c3-1.2,6.6-.4,7.9-.4s12.7,6.3,12.7,6.7.1,1.2-2.8.7c-5-.9-5.9-1-8.7-.6s-3.8,1.1-6.3.9S236.7,208.8,238.3,208.2Z"/><path class="d" d="M160,114.8c.9-1.1,6.3-8,5.6-12-1.8-6.2-7.2-8.2-11.8-8,1.2,4.1-3.6,5-7.3,3.8-7-1.5-11.5,6-12.9,14.3a19.9,19.9,0,0,0,3.2,14.7,10.1,10.1,0,0,0,11.6,4.1c2.8-.9,5.2-3.3,5.4-8.8-6.1-5,1.9-13,1.4-6.3C156.4,117.9,156.4,118.6,160,114.8Z"/><path class="aa" d="M296.6,311s5.3-11.1,4-18.4-7.8-5.8-6-14.5.2-14-5-14.9-5.4-5.3-9-11.2-15.2-3.8-12.8,7.4c3.1,15,10.5,10.6,12.8,16.5s-2.2,12.7,1.4,19S292.2,298.2,296.6,311Z"/><path class="ab" d="M296.8,321.8H296c.1-.1,1.1-8.8-.9-21a90.5,90.5,0,0,0-19.7-43l.5-.4a90.1,90.1,0,0,1,19.9,43.3A85.2,85.2,0,0,1,296.8,321.8Z"/><path class="ac" d="M300.9,312.7s-4.5-9.4-3.4-15.6,6.5-4.8,5-12.2-.1-11.8,4.3-12.5,4.5-4.4,7.5-9.5,12.9-3.2,10.9,6.3c-2.7,12.6-8.9,8.9-10.9,13.9s1.9,10.7-1.1,16S304.6,301.9,300.9,312.7Z"/><path class="ab" d="M300.7,321.8a67.4,67.4,0,0,1,.9-17.8,74.5,74.5,0,0,1,16.7-36.5l.5.3a76.2,76.2,0,0,0-16.7,36.3,68.9,68.9,0,0,0-.8,17.7Z"/><polygon class="ad" points="309.4 359.3 287.7 359.3 283.3 317.1 313.8 317.1 309.4 359.3"/><polygon class="ae" points="284.6 317.1 289 359.3 291.9 359.3 287.5 317.1 284.6 317.1"/><polygon class="af" points="313.8 317.1 309.4 359.3 303.5 359.3 307.9 317.1 313.8 317.1"/><polygon class="af" points="313 324.7 313.3 322.1 283.8 322.1 284.1 324.7 313 324.7"/><rect class="ag" x="289.1" y="359.3" width="18.8" height="2.75"/><rect class="af" x="289.1" y="359.3" width="18.8" height="1.37"/><rect class="ah" x="281.9" y="316" width="33.2" height="6.09"/><rect class="af" x="309" y="316" width="6.2" height="6.09"/><rect class="ae" x="282.7" y="316" width="4.1" height="6.09"/></g></svg>