<svg xmlns="http://www.w3.org/2000/svg" xmlns:xlink="http://www.w3.org/1999/xlink" viewBox="0 0 400 400"><defs><style>.a{isolation:isolate;}.b{fill:#164571;}.c{fill:#0e71bb;}.d{fill:#005b9f;}.e{fill:#21e2e2;}.f{fill:#ffbc98;}.g{fill:#52acea;}.h{fill:#eeac1f;}.i{fill:#fcda00;}.j{fill:#db9927;}.k{fill:#efaa1e;}.l{fill:#f59b6b;}.m{fill:#ffe7cb;}.n{fill:#ef7f4d;}.o{fill:#111114;}.p{fill:#314656;}.q{fill:#152735;}.r{opacity:0.25;mix-blend-mode:overlay;}.s{fill:#e2e6ed;}.t{fill:url(#a);}.u{fill:#1b1b35;}.v{fill:url(#b);}.w{fill:url(#c);}.x,.y{fill:#d3c2be;opacity:0.5;}.x{mix-blend-mode:screen;}.y{mix-blend-mode:multiply;}.z{fill:url(#d);}.aa{fill:url(#e);}</style><linearGradient id="a" x1="9.77" y1="178.87" x2="78.06" y2="178.87" gradientUnits="userSpaceOnUse"><stop offset="0" stop-color="#ffbc98"/><stop offset="1" stop-color="#ff9f6c"/></linearGradient><linearGradient id="b" x1="70.91" y1="192.28" x2="128.51" y2="192.28" gradientUnits="userSpaceOnUse"><stop offset="0" stop-color="#44989f"/><stop offset="0.21" stop-color="#39b0b4"/><stop offset="0.52" stop-color="#2ccbcd"/><stop offset="0.8" stop-color="#24dcdd"/><stop offset="1" stop-color="#21e2e2"/></linearGradient><linearGradient id="c" x1="42.19" y1="298.01" x2="104.66" y2="298.01" xlink:href="#a"/><linearGradient id="d" x1="54.19" y1="343.98" x2="92.66" y2="343.98" xlink:href="#a"/><linearGradient id="e" x1="39.4" y1="258.81" x2="107.44" y2="258.81" xlink:href="#a"/></defs><title>price-windows-dedicated-server</title><g class="a"><rect class="b" x="95.3" y="162.6" width="154.4" height="12.23" rx="1.7"/><rect class="c" x="90.1" y="119.8" width="164.4" height="46.03" rx="4.3"/><path class="d" d="M94.6,119.8h55.7v46.1H94.6a4.6,4.6,0,0,1-4.5-4.6V124.4a4.6,4.6,0,0,1,4.5-4.6Z"/><path class="e" d="M113,138.9h0a4.8,4.8,0,0,1,4.8,4.7v.4a4.8,4.8,0,0,1-4.8,4.8h0a4.7,4.7,0,0,1-4.8-4.8v-.4A4.7,4.7,0,0,1,113,138.9Z"/><path class="f" d="M126.9,138.9h0a4.7,4.7,0,0,1,4.8,4.7v.4a4.7,4.7,0,0,1-4.8,4.8h0a4.8,4.8,0,0,1-4.8-4.8v-.4A4.8,4.8,0,0,1,126.9,138.9Z"/><rect class="g" x="161.8" y="132.9" width="4.6" height="4.63" rx="2.3"/><rect class="g" x="167.3" y="142.1" width="4.6" height="4.63" rx="2.3"/><rect class="g" x="208.1" y="132.9" width="4.6" height="4.63" rx="2.3"/><rect class="g" x="213.7" y="142.1" width="4.6" height="4.63" rx="2.3"/><rect class="g" x="171.1" y="132.9" width="4.6" height="4.63" rx="2.3"/><rect class="g" x="176.6" y="142.1" width="4.6" height="4.63" rx="2.3"/><rect class="g" x="180.3" y="132.9" width="4.6" height="4.63" rx="2.3"/><rect class="g" x="185.9" y="142.1" width="4.6" height="4.63" rx="2.3"/><rect class="g" x="189.6" y="132.9" width="4.6" height="4.63" rx="2.3"/><rect class="g" x="195.1" y="142.1" width="4.6" height="4.63" rx="2.3"/><rect class="g" x="198.8" y="132.9" width="4.6" height="4.63" rx="2.3"/><rect class="g" x="204.4" y="142.1" width="4.6" height="4.63" rx="2.3"/><rect class="g" x="161.4" y="150.7" width="4.6" height="4.63" rx="2.3"/><rect class="g" x="207.7" y="150.7" width="4.6" height="4.63" rx="2.3"/><rect class="g" x="170.6" y="150.7" width="4.6" height="4.63" rx="2.3"/><rect class="g" x="179.9" y="150.7" width="4.6" height="4.63" rx="2.3"/><rect class="g" x="190" y="150.7" width="4.6" height="4.63" rx="2.3"/><rect class="g" x="199.3" y="150.7" width="4.6" height="4.63" rx="2.3"/><rect class="g" x="225.2" y="132.9" width="4.6" height="4.63" rx="2.3"/><rect class="g" x="230.7" y="142.1" width="4.6" height="4.63" rx="2.3"/><rect class="g" x="215.9" y="132.9" width="4.6" height="4.63" rx="2.3"/><rect class="g" x="222.3" y="142.1" width="4.6" height="4.63" rx="2.3"/><rect class="g" x="224.8" y="150.7" width="4.6" height="4.63" rx="2.3"/><rect class="g" x="216.3" y="150.7" width="4.6" height="4.63" rx="2.3"/><rect class="g" x="233.7" y="132.9" width="4.6" height="4.63" rx="2.3"/><rect class="g" x="239.3" y="142.1" width="4.6" height="4.63" rx="2.3"/><rect class="g" x="233.3" y="150.7" width="4.6" height="4.63" rx="2.3"/><rect class="b" x="95.3" y="217.2" width="154.4" height="12.23" rx="1.7"/><rect class="c" x="90.1" y="174.5" width="164.4" height="46.03" rx="4.3"/><path class="d" d="M94.6,174.5h55.7v46H94.6a4.6,4.6,0,0,1-4.5-4.6V179a4.5,4.5,0,0,1,4.5-4.5Z"/><path class="e" d="M113,193.5h0a4.8,4.8,0,0,1,4.8,4.8v.3a4.8,4.8,0,0,1-4.8,4.8h0a4.7,4.7,0,0,1-4.8-4.8v-.3A4.7,4.7,0,0,1,113,193.5Z"/><path class="f" d="M126.9,193.5h0a4.7,4.7,0,0,1,4.8,4.8v.3a4.7,4.7,0,0,1-4.8,4.8h0a4.8,4.8,0,0,1-4.8-4.8v-.3A4.8,4.8,0,0,1,126.9,193.5Z"/><rect class="g" x="161.8" y="187.5" width="4.6" height="4.63" rx="2.3"/><rect class="g" x="167.3" y="196.8" width="4.6" height="4.63" rx="2.3"/><rect class="g" x="208.1" y="187.5" width="4.6" height="4.63" rx="2.3"/><rect class="g" x="213.7" y="196.8" width="4.6" height="4.63" rx="2.3"/><rect class="g" x="171.1" y="187.5" width="4.6" height="4.63" rx="2.3"/><rect class="g" x="176.6" y="196.8" width="4.6" height="4.63" rx="2.3"/><rect class="g" x="180.3" y="187.5" width="4.6" height="4.63" rx="2.3"/><rect class="g" x="185.9" y="196.8" width="4.6" height="4.63" rx="2.3"/><rect class="g" x="189.6" y="187.5" width="4.6" height="4.63" rx="2.3"/><rect class="g" x="195.1" y="196.8" width="4.6" height="4.63" rx="2.3"/><rect class="g" x="198.8" y="187.5" width="4.6" height="4.63" rx="2.3"/><rect class="g" x="204.4" y="196.8" width="4.6" height="4.63" rx="2.3"/><rect class="g" x="161.4" y="205.3" width="4.6" height="4.63" rx="2.3"/><rect class="g" x="207.7" y="205.3" width="4.6" height="4.63" rx="2.3"/><rect class="g" x="170.6" y="205.3" width="4.6" height="4.63" rx="2.3"/><rect class="g" x="179.9" y="205.3" width="4.6" height="4.63" rx="2.3"/><rect class="g" x="190" y="205.3" width="4.6" height="4.63" rx="2.3"/><rect class="g" x="199.3" y="205.3" width="4.6" height="4.63" rx="2.3"/><rect class="g" x="225.2" y="187.5" width="4.6" height="4.63" rx="2.3"/><rect class="g" x="230.7" y="196.8" width="4.6" height="4.63" rx="2.3"/><rect class="g" x="215.9" y="187.5" width="4.6" height="4.63" rx="2.3"/><rect class="g" x="222.3" y="196.8" width="4.6" height="4.63" rx="2.3"/><rect class="g" x="224.8" y="205.3" width="4.6" height="4.63" rx="2.3"/><rect class="g" x="216.3" y="205.3" width="4.6" height="4.63" rx="2.3"/><rect class="g" x="233.7" y="187.5" width="4.6" height="4.63" rx="2.3"/><rect class="g" x="239.3" y="196.8" width="4.6" height="4.63" rx="2.3"/><rect class="g" x="233.3" y="205.3" width="4.6" height="4.63" rx="2.3"/><rect class="b" x="95.3" y="108" width="154.4" height="12.23" rx="1.7"/><rect class="c" x="90.1" y="65.2" width="164.4" height="46.03" rx="4.3"/><path class="d" d="M94.6,65.2h55.7v46.1H94.6a4.6,4.6,0,0,1-4.5-4.6V69.8a4.6,4.6,0,0,1,4.5-4.6Z"/><path class="e" d="M113,84.2h0a4.9,4.9,0,0,1,4.8,4.8v.4a4.8,4.8,0,0,1-4.8,4.8h0a4.7,4.7,0,0,1-4.8-4.8V89A4.8,4.8,0,0,1,113,84.2Z"/><path class="f" d="M126.9,84.2h0a4.8,4.8,0,0,1,4.8,4.8v.4a4.7,4.7,0,0,1-4.8,4.8h0a4.8,4.8,0,0,1-4.8-4.8V89A4.9,4.9,0,0,1,126.9,84.2Z"/><rect class="g" x="161.8" y="78.3" width="4.6" height="4.63" rx="2.3"/><rect class="g" x="167.3" y="87.5" width="4.6" height="4.63" rx="2.3"/><rect class="g" x="208.1" y="78.3" width="4.6" height="4.63" rx="2.3"/><rect class="g" x="213.7" y="87.5" width="4.6" height="4.63" rx="2.3"/><rect class="g" x="171.1" y="78.3" width="4.6" height="4.63" rx="2.3"/><rect class="g" x="176.6" y="87.5" width="4.6" height="4.63" rx="2.3"/><rect class="g" x="180.3" y="78.3" width="4.6" height="4.63" rx="2.3"/><rect class="g" x="185.9" y="87.5" width="4.6" height="4.63" rx="2.3"/><rect class="g" x="189.6" y="78.3" width="4.6" height="4.63" rx="2.3"/><rect class="g" x="195.1" y="87.5" width="4.6" height="4.63" rx="2.3"/><rect class="g" x="198.8" y="78.3" width="4.6" height="4.63" rx="2.3"/><rect class="g" x="204.4" y="87.5" width="4.6" height="4.63" rx="2.3"/><rect class="g" x="161.4" y="96.1" width="4.6" height="4.63" rx="2.3"/><rect class="g" x="207.7" y="96.1" width="4.6" height="4.63" rx="2.3"/><rect class="g" x="170.6" y="96.1" width="4.6" height="4.63" rx="2.3"/><rect class="g" x="179.9" y="96.1" width="4.6" height="4.63" rx="2.3"/><rect class="g" x="190" y="96.1" width="4.6" height="4.63" rx="2.3"/><rect class="g" x="199.3" y="96.1" width="4.6" height="4.63" rx="2.3"/><rect class="g" x="225.2" y="78.3" width="4.6" height="4.63" rx="2.3"/><rect class="g" x="230.7" y="87.5" width="4.6" height="4.63" rx="2.3"/><rect class="g" x="215.9" y="78.3" width="4.6" height="4.63" rx="2.3"/><rect class="g" x="222.3" y="87.5" width="4.6" height="4.63" rx="2.3"/><rect class="g" x="224.8" y="96.1" width="4.6" height="4.63" rx="2.3"/><rect class="g" x="216.3" y="96.1" width="4.6" height="4.63" rx="2.3"/><rect class="g" x="233.7" y="78.3" width="4.6" height="4.63" rx="2.3"/><rect class="g" x="239.3" y="87.5" width="4.6" height="4.63" rx="2.3"/><rect class="g" x="233.3" y="96.1" width="4.6" height="4.63" rx="2.3"/><rect class="b" x="95.3" y="271.8" width="154.4" height="12.23" rx="1.7"/><rect class="c" x="90.1" y="229.1" width="164.4" height="46.03" rx="4.3"/><path class="d" d="M94.6,229.1h55.7v46H94.6a4.6,4.6,0,0,1-4.5-4.6V233.6a4.5,4.5,0,0,1,4.5-4.5Z"/><path class="e" d="M113,248.1h0a4.8,4.8,0,0,1,4.8,4.8v.3A4.8,4.8,0,0,1,113,258h0a4.7,4.7,0,0,1-4.8-4.8v-.3A4.7,4.7,0,0,1,113,248.1Z"/><path class="f" d="M126.9,248.1h0a4.7,4.7,0,0,1,4.8,4.8v.3a4.7,4.7,0,0,1-4.8,4.8h0a4.8,4.8,0,0,1-4.8-4.8v-.3A4.8,4.8,0,0,1,126.9,248.1Z"/><rect class="g" x="161.8" y="242.1" width="4.6" height="4.63" rx="2.3"/><rect class="g" x="167.3" y="251.4" width="4.6" height="4.63" rx="2.3"/><rect class="g" x="208.1" y="242.1" width="4.6" height="4.63" rx="2.3"/><rect class="g" x="213.7" y="251.4" width="4.6" height="4.63" rx="2.3"/><rect class="g" x="171.1" y="242.1" width="4.6" height="4.63" rx="2.3"/><rect class="g" x="176.6" y="251.4" width="4.6" height="4.63" rx="2.3"/><rect class="g" x="180.3" y="242.1" width="4.6" height="4.63" rx="2.3"/><rect class="g" x="185.9" y="251.4" width="4.6" height="4.63" rx="2.3"/><rect class="g" x="189.6" y="242.1" width="4.6" height="4.63" rx="2.3"/><rect class="g" x="195.1" y="251.4" width="4.6" height="4.63" rx="2.3"/><rect class="g" x="198.8" y="242.1" width="4.6" height="4.63" rx="2.3"/><rect class="g" x="204.4" y="251.4" width="4.6" height="4.63" rx="2.3"/><rect class="g" x="161.4" y="259.9" width="4.6" height="4.63" rx="2.3"/><rect class="g" x="207.7" y="259.9" width="4.6" height="4.63" rx="2.3"/><rect class="g" x="170.6" y="259.9" width="4.6" height="4.63" rx="2.3"/><rect class="g" x="179.9" y="259.9" width="4.6" height="4.63" rx="2.3"/><rect class="g" x="190" y="259.9" width="4.6" height="4.63" rx="2.3"/><rect class="g" x="199.3" y="259.9" width="4.6" height="4.63" rx="2.3"/><rect class="g" x="225.2" y="242.1" width="4.6" height="4.63" rx="2.3"/><rect class="g" x="230.7" y="251.4" width="4.6" height="4.63" rx="2.3"/><rect class="g" x="215.9" y="242.1" width="4.6" height="4.63" rx="2.3"/><rect class="g" x="222.3" y="251.4" width="4.6" height="4.63" rx="2.3"/><rect class="g" x="224.8" y="259.9" width="4.6" height="4.63" rx="2.3"/><rect class="g" x="216.3" y="259.9" width="4.6" height="4.63" rx="2.3"/><rect class="g" x="233.7" y="242.1" width="4.6" height="4.63" rx="2.3"/><rect class="g" x="239.3" y="251.4" width="4.6" height="4.63" rx="2.3"/><rect class="g" x="233.3" y="259.9" width="4.6" height="4.63" rx="2.3"/><rect class="c" x="90.1" y="283.7" width="164.4" height="46.03" rx="4.3"/><path class="d" d="M94.6,283.7h55.7v46H94.6a4.5,4.5,0,0,1-4.5-4.6V288.3a4.5,4.5,0,0,1,4.5-4.6Z"/><path class="e" d="M113,302.7h0a4.8,4.8,0,0,1,4.8,4.8v.3a4.8,4.8,0,0,1-4.8,4.8h0a4.7,4.7,0,0,1-4.8-4.8v-.3A4.7,4.7,0,0,1,113,302.7Z"/><path class="f" d="M126.9,302.7h0a4.7,4.7,0,0,1,4.8,4.8v.3a4.7,4.7,0,0,1-4.8,4.8h0a4.8,4.8,0,0,1-4.8-4.8v-.3A4.8,4.8,0,0,1,126.9,302.7Z"/><rect class="g" x="161.8" y="296.7" width="4.6" height="4.63" rx="2.3"/><rect class="g" x="167.3" y="306" width="4.6" height="4.63" rx="2.3"/><rect class="g" x="208.1" y="296.7" width="4.6" height="4.63" rx="2.3"/><rect class="g" x="213.7" y="306" width="4.6" height="4.63" rx="2.3"/><rect class="g" x="171.1" y="296.7" width="4.6" height="4.63" rx="2.3"/><rect class="g" x="176.6" y="306" width="4.6" height="4.63" rx="2.3"/><rect class="g" x="180.3" y="296.7" width="4.6" height="4.63" rx="2.3"/><rect class="g" x="185.9" y="306" width="4.6" height="4.63" rx="2.3"/><rect class="g" x="189.6" y="296.7" width="4.6" height="4.63" rx="2.3"/><rect class="g" x="195.1" y="306" width="4.6" height="4.63" rx="2.3"/><rect class="g" x="198.8" y="296.7" width="4.6" height="4.63" rx="2.3"/><rect class="g" x="204.4" y="306" width="4.6" height="4.63" rx="2.3"/><rect class="g" x="161.4" y="314.5" width="4.6" height="4.63" rx="2.3"/><rect class="g" x="207.7" y="314.5" width="4.6" height="4.63" rx="2.3"/><rect class="g" x="170.6" y="314.5" width="4.6" height="4.63" rx="2.3"/><rect class="g" x="179.9" y="314.5" width="4.6" height="4.63" rx="2.3"/><rect class="g" x="190" y="314.5" width="4.6" height="4.63" rx="2.3"/><rect class="g" x="199.3" y="314.5" width="4.6" height="4.63" rx="2.3"/><rect class="g" x="225.2" y="296.7" width="4.6" height="4.63" rx="2.3"/><rect class="g" x="230.7" y="306" width="4.6" height="4.63" rx="2.3"/><rect class="g" x="215.9" y="296.7" width="4.6" height="4.63" rx="2.3"/><rect class="g" x="222.3" y="306" width="4.6" height="4.63" rx="2.3"/><rect class="g" x="224.8" y="314.5" width="4.6" height="4.63" rx="2.3"/><rect class="g" x="216.3" y="314.5" width="4.6" height="4.63" rx="2.3"/><rect class="g" x="233.7" y="296.7" width="4.6" height="4.63" rx="2.3"/><rect class="g" x="239.3" y="306" width="4.6" height="4.63" rx="2.3"/><rect class="g" x="233.3" y="314.5" width="4.6" height="4.63" rx="2.3"/><path class="h" d="M189,362.8c0,7.9,31.4,14.3,70.2,14.3s70.2-6.4,70.2-14.3V350H189Z"/><path class="i" d="M329.4,350c0,7.9-31.4,14.3-70.2,14.3S189,357.9,189,350s31.4-14.3,70.2-14.3S329.4,342.1,329.4,350Z"/><path class="j" d="M259.2,362.6h-1.1c-.2,0-.3-.1-.3-.2s.1-.2.3-.2h2.3c.2,0,.3.1.3.2s-.1.2-.3.2Zm-3.5,0h-2.4c-.1,0-.2-.1-.2-.3a.2.2,0,0,1,.2-.2h2.4a.2.2,0,1,1,0,.4Zm7.1,0a.2.2,0,0,1,0-.4h2.4a.2.2,0,0,1,.2.2c0,.2-.1.3-.2.3Zm-11.9-.1h-2.4a.2.2,0,1,1,0-.4h2.4c.2,0,.3.1.3.2S251.1,362.5,250.9,362.5Zm16.7,0-.3-.2c0-.1.1-.2.3-.2H270a.2.2,0,1,1,0,.4Zm-21.4-.1h-2.4a.3.3,0,0,1-.3-.3l.3-.2h2.4c.1,0,.2.1.2.3A.2.2,0,0,1,246.2,362.4Zm26.1,0a.2.2,0,0,1-.2-.2c0-.2.1-.3.2-.3h2.4c.2,0,.3.1.3.2s-.1.2-.3.3h-2.4Zm-30.9-.3H239a.2.2,0,0,1-.2-.2c0-.2.1-.3.2-.2h2.4c.2,0,.3.1.2.2A.2.2,0,0,1,241.4,362.1Zm35.7,0a.2.2,0,0,1-.2-.2l.2-.2h2.4c.1-.1.2,0,.2.2a.2.2,0,0,1-.2.2Zm-40.4-.3h-.1l-2.3-.2c-.2,0-.3-.1-.3-.2s.1-.2.3-.2l2.4.2a.2.2,0,0,1,0,.4Zm45.2,0c-.2,0-.3-.1-.3-.2a.2.2,0,0,1,.2-.2l2.4-.2c.2,0,.3.1.3.2s-.1.2-.3.2l-2.3.2Zm-50-.4h0l-2.4-.2a.2.2,0,0,1-.2-.2c0-.1.1-.2.3-.2l2.3.2c.2,0,.3.1.2.3Zm54.7,0c-.1,0-.2,0-.2-.2s0-.2.2-.2l2.3-.2c.2,0,.3.1.3.2a.2.2,0,0,1-.2.2l-2.4.2Zm-59.4-.4h-.1l-2.3-.3c-.1,0-.2-.1-.2-.3s.1-.2.2-.1l2.4.2c.1.1.2.2.2.3A.2.2,0,0,1,227.2,361Zm64.1,0a.2.2,0,0,1-.2-.2c0-.1.1-.3.2-.3l2.4-.2c.1-.1.2,0,.2.1s0,.3-.2.3l-2.3.3Zm-68.8-.6h-.1l-2.3-.4c-.2,0-.3-.1-.2-.2a.2.2,0,0,1,.2-.2l2.4.4a.2.2,0,1,1,0,.4Zm73.5,0a.2.2,0,1,1,0-.4l2.4-.4a.2.2,0,0,1,.2.2c.1.1,0,.2-.2.2l-2.3.4Zm-78.2-.7h-.1l-2.3-.4c-.2,0-.2-.2-.2-.3s.1-.2.3-.1l2.3.4a.2.2,0,0,1,0,.4Zm82.9,0a.2.2,0,0,1,0-.4l2.3-.4c.2-.1.3,0,.3.1s0,.2-.2.3l-2.3.4Zm-87.6-.9H213l-2.3-.5-.2-.2.3-.2,2.3.5c.2,0,.3.2.2.3S213.2,358.8,213.1,358.8Zm92.3,0c-.1,0-.2,0-.2-.1s0-.3.2-.3l2.3-.5.3.2-.2.2-2.3.5Zm-96.9-1h-.1l-2.3-.6a.2.2,0,0,1-.1-.3h.3l2.2.6c.2,0,.2.1.2.3S208.6,357.8,208.5,357.8Zm101.5,0a.2.2,0,0,1-.2-.2c0-.1,0-.2.2-.2l2.2-.6c.2-.1.3,0,.3.1s0,.2-.1.3l-2.3.6Zm-106.1-1.3h-.1l-2.2-.8a.2.2,0,0,1-.1-.3h.3l2.2.8.2.3Zm110.7,0c-.1,0-.2,0-.2-.1a.2.2,0,0,1,.1-.3l2.2-.8h.3a.2.2,0,0,1-.1.3l-2.2.8Zm-115-1.7h-.1l-2.1-1.2c-.1,0-.1-.2,0-.3s.2-.1.3,0l2,1.1a.4.4,0,0,1,.1.3Zm119.3,0h-.2c0-.1,0-.3.1-.3l2-1.1a.2.2,0,0,1,.3.3l-2.1,1.2Zm-123-2.6h-.2a2.8,2.8,0,0,1-.9-2c0-.2.1-.2.2-.3h0a.3.3,0,0,1,.3.3,2.7,2.7,0,0,0,.7,1.8.2.2,0,0,1,0,.3Zm126.7,0h-.1c-.1,0-.1-.2-.1-.3a2.9,2.9,0,0,0,.8-1.8h0l.2-.2h0l.3.2h0a3.2,3.2,0,0,1-.9,2.1Zm-126.8-3.9h-.2a.2.2,0,0,1,0-.3,8.6,8.6,0,0,1,1.7-1.5.3.3,0,0,1,.4,0,.4.4,0,0,1-.1.3,7.6,7.6,0,0,0-1.6,1.4Zm126.8-.1h-.2a8.5,8.5,0,0,0-1.7-1.4.4.4,0,0,1-.1-.3h.4a5,5,0,0,1,1.7,1.5c.1,0,.1.2,0,.3Zm-123.1-2.5h-.2c-.1-.1-.1-.3.1-.3l2.1-1c.1,0,.3,0,.3.2s0,.2-.1.2l-2.1,1Zm119.3-.1h-.1l-2.1-.9c-.1-.1-.2-.2-.1-.3a.2.2,0,0,1,.3-.1l2.1.9c.2.1.2.2.1.3S318.9,345.6,318.8,345.6Zm-115-1.6a.2.2,0,0,1-.2-.2c0-.1,0-.2.1-.2l2.3-.7a.2.2,0,0,1,.3.1c0,.1,0,.2-.2.3l-2.2.7Zm110.7-.1h-.1l-2.3-.7c-.1,0-.2-.1-.1-.2s.2-.2.3-.2l2.2.7c.2,0,.2.2.2.3Zm-106.1-1.2-.3-.2c0-.1.1-.2.2-.3l2.3-.5c.1,0,.3,0,.3.2a.2.2,0,0,1-.2.2l-2.3.6Zm101.5-.1h0l-2.3-.5c-.2,0-.2-.2-.2-.3a.2.2,0,0,1,.3-.1l2.3.5c.1,0,.2.2.2.3Zm-96.9-1h-.3c0-.1.1-.3.2-.3l2.4-.4c.1-.1.2,0,.2.1a.2.2,0,0,1-.1.3l-2.4.4Zm92.3,0h-.1l-2.3-.4c-.1-.1-.2-.2-.2-.3l.3-.2,2.4.5c.1,0,.2.1.1.2A.2.2,0,0,1,305.3,341.6Zm-87.7-.8-.2-.2a.2.2,0,0,1,.2-.2l2.4-.4a.2.2,0,0,1,.2.2c0,.1,0,.2-.2.2l-2.3.4Zm83,0h0l-2.4-.4c-.1,0-.2-.1-.1-.3s.1-.1.2-.1l2.4.3c.1.1.2.2.2.3Zm-78.3-.7a.2.2,0,1,1,0-.4l2.4-.3c.1-.1.2,0,.2.1s0,.3-.2.3l-2.3.3Zm73.6,0h0l-2.4-.3c-.1-.1-.2-.2-.2-.3l.3-.2,2.4.3.2.3C296.2,340,296,340.1,295.9,340.1Zm-68.8-.6c-.2,0-.3-.1-.3-.2a.2.2,0,0,1,.2-.2l2.4-.3c.1,0,.3.1.3.2a.2.2,0,0,1-.2.2l-2.4.3Zm64.1,0h0l-2.4-.3a.2.2,0,0,1-.2-.2c0-.1.1-.2.3-.2l2.3.3c.2,0,.3.1.3.2Zm-59.4-.5a.2.2,0,0,1-.2-.2c-.1-.1,0-.2.2-.2l2.3-.2c.2,0,.3.1.3.2a.2.2,0,0,1-.2.2l-2.4.2Zm54.7,0h0l-2.4-.2-.2-.2a.2.2,0,0,1,.2-.2l2.4.2a.2.2,0,1,1,0,.4Zm-50-.4a.2.2,0,0,1-.2-.2l.2-.2,2.4-.2a.2.2,0,0,1,.2.2c.1.2,0,.3-.2.3h-2.4Zm45.2,0h-2.4c-.1-.1-.2-.2-.2-.3l.3-.2,2.4.2.2.2C282,338.5,281.9,338.6,281.7,338.6Zm-40.4-.3a.2.2,0,0,1-.2-.2c-.1-.1,0-.2.2-.2h2.4a.2.2,0,1,1,0,.4Zm35.7,0h-2.4a.2.2,0,1,1,0-.4H277a.2.2,0,0,1,0,.4Zm-31-.2a.2.2,0,0,1-.2-.2l.2-.2h2.4c.1,0,.3.1.3.2s-.1.2-.3.2H246Zm26.2,0h-2.4a.2.2,0,0,1-.2-.2c0-.1.1-.2.3-.2h2.3c.2,0,.3.1.3.2S272.4,338.1,272.2,338.1Zm-21.4-.2a.2.2,0,0,1,0-.4h2.4a.2.2,0,1,1,0,.4Zm16.7,0h-2.4c-.1,0-.3-.1-.2-.2a.2.2,0,0,1,.2-.2h2.4a.2.2,0,1,1,0,.4Zm-11.9,0a.3.3,0,0,1-.3-.3c0-.1.1-.2.3-.2h2.3c.2,0,.3.1.3.2s-.1.2-.3.2Zm7.1,0h-2.4a.2.2,0,0,1,0-.4h2.4a.2.2,0,0,1,.2.2C262.9,337.8,262.8,337.9,262.7,337.9Z"/><ellipse class="h" cx="259.2" cy="350" rx="59" ry="10.3"/><path class="j" d="M201.4,352.1c5.5-4.7,29.3-8.2,57.8-8.2s52.3,3.5,57.8,8.2a2.9,2.9,0,0,0,1.2-2.1c0-5.7-26.4-10.3-59-10.3s-59,4.6-59,10.3A2.9,2.9,0,0,0,201.4,352.1Z"/><path class="j" d="M240.2,355.5c-2.5-.6-4.2-1.2-5.1-2.1h-3.3a15.8,15.8,0,0,1-3.4-.3c-.8-.2-1.3-.4-1.3-.7s.5-.5,1.3-.7a16.7,16.7,0,0,1,3.4-.2h3.1c.6-1.1,2.1-1.9,4.4-2.7a8.6,8.6,0,0,1,1.7-.3h2.5l3.5.2q1.5.3,1.5.6c0,.1-.1.2-.2.3l-1.1.4a15.4,15.4,0,0,0-2.3,1.2,1.4,1.4,0,0,0-.6,1.1c0,.5.4.9,1.1,1.1a11.1,11.1,0,0,0,3.6.4l2.4-.2,1.4-.6,1.4-1a14.5,14.5,0,0,1,2.6-1.7,17.9,17.9,0,0,1,4.1-1.1,40,40,0,0,1,7.6-.5,44.3,44.3,0,0,1,9.5.8c2.7.5,4.4,1.2,5.3,2h3.4a14.8,14.8,0,0,1,3.3.3c.9.2,1.4.4,1.4.7s-.5.5-1.3.7l-3.4.2h-3.2c-.6.8-2,1.5-4.3,2.3a8.4,8.4,0,0,1-1.8.3H275l-3.5-.2q-1.5-.3-1.5-.6c0-.1,0-.2.2-.3l1-.5,1.2-.4a4,4,0,0,0,1.3-.7c.4-.3.5-.5.5-.8s-.4-.8-1.3-1a11.9,11.9,0,0,0-3.6-.4,8.9,8.9,0,0,0-3.2.4,9,9,0,0,0-2.2,1.4,11.8,11.8,0,0,1-2.4,1.7,17.5,17.5,0,0,1-4.2,1.1,40.5,40.5,0,0,1-7.7.5A51.5,51.5,0,0,1,240.2,355.5Z"/><path class="j" d="M314.7,358.8v12.8l1.4-.4V358.4Z"/><path class="j" d="M300.7,361.5v12.8l1.3-.2V361.3Z"/><path class="j" d="M286.6,363.2V376l1.4-.2V363Z"/><path class="j" d="M272.6,364v12.8H274V364Z"/><path class="j" d="M259.2,364.3h-.7v12.8h1.4V364.3Z"/><path class="j" d="M244.5,364v12.8h1.4V364Z"/><path class="j" d="M230.4,363v12.8l1.4.2V363.2Z"/><path class="j" d="M216.4,361.3v12.8l1.4.2V361.5Z"/><path class="j" d="M202.4,358.4v12.8l1.3.4V358.8Z"/><path class="h" d="M199.2,350c0,7.8,31.4,14.2,70.2,14.2s70.2-6.4,70.2-14.2V337.2H199.2Z"/><ellipse class="i" cx="269.4" cy="337.2" rx="70.2" ry="14.3"/><path class="j" d="M269.4,349.8h-1.2l-.2-.2c0-.2.1-.3.2-.3h2.4c.1,0,.2.1.2.3l-.2.2Zm-3.6,0h-2.4a.2.2,0,0,1-.2-.2c0-.1.1-.2.3-.2h2.3c.2,0,.3.1.3.2A.3.3,0,0,1,265.8,349.8Zm7.2-.1c-.2,0-.3,0-.3-.2s.1-.2.3-.2h2.4a.2.2,0,1,1,0,.4Zm-11.9,0h-2.4a.2.2,0,0,1-.2-.2c0-.1.1-.3.2-.2h2.4c.1,0,.2.1.2.3A.2.2,0,0,1,261.1,349.7Zm16.6,0a.2.2,0,0,1-.2-.2c0-.2.1-.3.2-.3h2.4l.3.2c0,.1-.1.2-.3.2Zm-21.4-.2h-2.4a.2.2,0,0,1-.2-.2l.2-.2h2.4c.2,0,.3.1.3.2Zm26.2,0a.2.2,0,1,1,0-.4h2.4a.2.2,0,1,1,0,.4Zm-30.9-.2h-.1l-2.3-.2c-.2,0-.3-.1-.3-.2l.3-.2,2.4.2a.2.2,0,0,1,.2.2Zm35.7,0c-.2,0-.3-.1-.3-.2a.2.2,0,0,1,.2-.2l2.4-.2c.2,0,.3.1.3.2a.2.2,0,0,1-.2.2l-2.4.2Zm-40.5-.3h0l-2.4-.2-.2-.2c0-.2.1-.2.3-.2l2.3.2c.2,0,.3.1.2.2A.2.2,0,0,1,246.8,349Zm45.2,0a.2.2,0,1,1,0-.4l2.4-.2c.1,0,.2,0,.2.2l-.2.2-2.4.2Zm-49.9-.4H242l-2.3-.2c-.2,0-.3-.2-.2-.3a.2.2,0,0,1,.2-.2l2.4.3.2.2A.2.2,0,0,1,242.1,348.6Zm54.7,0c-.2,0-.3-.1-.3-.2l.2-.2,2.4-.3.3.2q0,.1-.3.3l-2.3.2Zm-59.5-.5h0l-2.4-.3-.2-.2.3-.2,2.4.3.2.2C237.6,348,237.5,348.1,237.3,348.1Zm64.2,0-.3-.2c0-.1.1-.2.3-.2l2.3-.3c.1,0,.3.1.3.2l-.2.2-2.4.3Zm-68.9-.6h0l-2.4-.3a.2.2,0,0,1-.2-.2c0-.2.2-.2.3-.2l2.3.3c.2,0,.3.1.2.3S232.7,347.5,232.6,347.5Zm73.6,0c-.1,0-.2,0-.2-.2s0-.2.2-.2l2.3-.3c.2-.1.3,0,.3.1s-.1.3-.2.3l-2.4.3Zm-78.3-.7h0l-2.4-.4a.2.2,0,0,1-.2-.2l.3-.2,2.4.4c.1,0,.2.1.1.3S228,346.8,227.9,346.8Zm83,0c-.1,0-.2,0-.2-.1s0-.3.2-.3l2.3-.4.3.2a.2.2,0,0,1-.2.2l-2.4.4Zm-87.7-.8h0l-2.3-.5c-.2,0-.2-.1-.2-.3h.3l2.3.5a.2.2,0,0,1,.2.2C223.5,345.9,223.4,346,223.2,346Zm92.4,0-.3-.2a.2.2,0,0,1,.2-.2l2.3-.5c.2-.1.3,0,.3.1s0,.3-.2.3l-2.3.5Zm-97-1h0l-2.3-.7c-.2,0-.2-.1-.2-.2l.3-.2a15.5,15.5,0,0,0,2.3.6c.1.1.2.2.2.3Zm101.6-.1H320c-.1-.1,0-.2.1-.3l2.3-.6c.1,0,.3.1.3.2s0,.2-.2.2l-2.2.6Zm-106.1-1.2H214l-2.2-.8c-.1-.1-.2-.2-.1-.3s.1-.2.3-.1l2.2.8c.1,0,.2.1.1.2A.2.2,0,0,1,214.1,343.7Zm110.6,0a.2.2,0,0,1-.2-.2.4.4,0,0,1,.1-.3l2.2-.7c.2-.1.3,0,.4.1s0,.2-.2.2l-2.2.8Zm-115-1.7a.1.1,0,0,1-.1-.1,9.5,9.5,0,0,1-2-1.1c-.1-.1-.2-.2-.1-.3h.4l1.9,1.2c.2,0,.2.1.1.3Zm119.4-.1h-.2c-.1-.1,0-.2.1-.3a8.6,8.6,0,0,0,1.9-1.1c.1-.1.3,0,.4.1s0,.2-.1.3l-2,1.1ZM206,339.4h-.2a4.8,4.8,0,0,1-.9-2.1l.3-.2h0a.2.2,0,0,1,.2.2,2.9,2.9,0,0,0,.8,1.8c.1.1.1.3,0,.3Zm126.8-.1h-.2a.2.2,0,0,1,0-.3,2.7,2.7,0,0,0,.7-1.8h0c0-.1.1-.2.3-.2h0c.1,0,.2,0,.2.2h0a3.2,3.2,0,0,1-.8,2Zm-126.9-3.8a.1.1,0,0,1-.1-.1c-.1,0-.1-.2-.1-.3a9.5,9.5,0,0,1,1.8-1.5c.1-.1.2,0,.3,0s.1.3,0,.3a8.6,8.6,0,0,0-1.7,1.5Zm126.8-.2h-.2a5.6,5.6,0,0,0-1.6-1.4c-.2-.1-.2-.3-.1-.3s.2-.2.3-.1a7.1,7.1,0,0,1,1.8,1.5.2.2,0,0,1,0,.3Zm-123.1-2.5h-.2a.4.4,0,0,1,.1-.3l2.2-.9h.3a.4.4,0,0,1-.1.3l-2.2.9Zm119.4,0c-.1,0-.1,0-.1-.1l-2.2-.9c-.1,0-.1-.1-.1-.3h.3l2.2,1c.1,0,.1.2.1.3Zm-115-1.7h-.3c0-.1.1-.3.2-.3l2.3-.7c.1,0,.2,0,.3.2a.2.2,0,0,1-.2.2l-2.2.7Zm110.6,0h-.1l-2.2-.7-.2-.3c.1-.1.2-.2.3-.1l2.3.7c.1,0,.2.1.1.2A.2.2,0,0,1,324.6,331.1Zm-106.1-1.3c-.1,0-.2,0-.2-.1s0-.3.1-.3l2.4-.5c.1-.1.2,0,.2.1s0,.2-.1.3l-2.3.5Zm101.6,0H320l-2.3-.6a.2.2,0,0,1-.2-.2l.3-.2,2.3.6c.2,0,.2.1.2.2Zm-97-1-.2-.2c0-.1,0-.2.2-.2l2.3-.5c.1,0,.3.1.3.2l-.2.2-2.3.5Zm92.4,0c-.1,0-.1,0-.1-.1l-2.3-.4c-.2,0-.2-.1-.2-.2s.1-.2.3-.2l2.3.4c.1.1.2.2.2.3A.2.2,0,0,1,315.5,328.8Zm-87.7-.9h-.2c-.1-.2,0-.3.2-.3l2.3-.4c.1,0,.3.1.3.2l-.2.3-2.4.3Zm83,0h-.1l-2.3-.4-.2-.2c0-.1.1-.2.3-.2l2.3.4c.2,0,.2.1.2.2A.2.2,0,0,1,310.8,327.9Zm-78.3-.7h-.2c-.1-.2,0-.3.2-.3l2.3-.3c.2,0,.3.1.3.2a.2.2,0,0,1-.2.2l-2.4.3Zm73.6,0h0l-2.4-.3a.2.2,0,0,1-.2-.2c0-.1.1-.2.3-.2l2.3.3c.2,0,.2.1.2.2A.2.2,0,0,1,306.1,327.2Zm-68.9-.5a.2.2,0,0,1-.2-.2c0-.2.1-.3.2-.3l2.4-.2c.1,0,.2,0,.2.2a.2.2,0,0,1-.2.2l-2.4.3Zm64.2-.1h-.1l-2.3-.2c-.2,0-.3-.1-.2-.3s.1-.1.2-.1l2.4.2.2.2C301.6,326.6,301.5,326.6,301.4,326.6Zm-59.5-.4a.2.2,0,0,1-.2-.2c0-.1.1-.2.2-.3l2.4-.2.3.2a.3.3,0,0,1-.3.3l-2.3.2Zm54.7,0h0l-2.4-.2c-.1-.1-.2-.2-.2-.3l.3-.2,2.4.2c.1,0,.2.1.2.3S296.8,326.2,296.6,326.2Zm-49.9-.4-.2-.2c-.1-.1,0-.2.2-.2l2.3-.2c.2,0,.3.1.3.2a.2.2,0,0,1-.2.2l-2.4.2Zm45.2,0h0l-2.4-.2a.2.2,0,1,1,0-.4h2.4c.1.1.2.2.2.3Zm-40.5-.3-.2-.2a.2.2,0,0,1,.2-.2l2.4-.2c.1,0,.3.1.3.2s-.1.2-.3.3h-2.4Zm35.7,0h0l-2.4-.2-.2-.2c0-.1.1-.2.3-.2h2.4c.1,0,.2.1.2.3S287.3,325.5,287.1,325.5Zm-30.9-.3c-.1,0-.2,0-.2-.2a.2.2,0,0,1,.2-.2h2.4l.2.2c0,.2-.1.3-.2.3Zm26.2,0H280c-.1,0-.2-.1-.2-.3a.2.2,0,0,1,.2-.2h2.4a.2.2,0,0,1,.2.2C282.6,325.2,282.5,325.2,282.4,325.2Zm-21.4-.1c-.2,0-.3-.1-.3-.2l.2-.2h2.4c.2,0,.3.1.3.2s-.1.2-.3.2Zm16.6,0h-2.4l-.2-.2a.2.2,0,0,1,.2-.2h2.4c.2,0,.3.1.3.2S277.8,325.1,277.6,325.1Zm-11.9-.1-.2-.2a.2.2,0,0,1,.2-.2h2.4a.2.2,0,0,1,.2.2l-.2.2Zm7.2,0h-2.4c-.2,0-.3-.1-.3-.2s.1-.2.3-.2h2.4a.2.2,0,1,1,0,.4Z"/><ellipse class="h" cx="269.4" cy="337.2" rx="59" ry="10.3"/><path class="j" d="M211.6,339.2c5.5-4.6,29.3-8.2,57.8-8.2s52.3,3.6,57.8,8.2a2.6,2.6,0,0,0,1.2-2c0-5.7-26.4-10.3-59-10.3s-59,4.6-59,10.3A2.6,2.6,0,0,0,211.6,339.2Z"/><path class="j" d="M250.4,342.6q-3.9-.7-5.1-2.1H242l-3.4-.2c-.9-.2-1.3-.4-1.3-.7s.4-.5,1.3-.7a15.2,15.2,0,0,1,3.4-.3h3c.7-1,2.1-1.9,4.4-2.6l1.7-.4h2.6a18.3,18.3,0,0,1,3.5.3c1,.1,1.5.3,1.5.5a.5.5,0,0,1-.3.4l-1,.4a9.9,9.9,0,0,0-2.3,1.1,1.5,1.5,0,0,0-.7,1.2c0,.4.4.8,1.2,1.1a16,16,0,0,0,3.6.3,7.9,7.9,0,0,0,2.3-.2,3.4,3.4,0,0,0,1.5-.6l1.3-.9a13.4,13.4,0,0,1,2.7-1.7,11.9,11.9,0,0,1,4.1-1.2,49.5,49.5,0,0,1,7.6-.5,50.7,50.7,0,0,1,9.4.8c2.7.5,4.5,1.2,5.3,2h3.4a15.8,15.8,0,0,1,3.4.3c.9.2,1.3.4,1.3.7s-.4.5-1.3.7a15.2,15.2,0,0,1-3.4.3h-3.2a9.7,9.7,0,0,1-4.2,2.2l-1.8.4h-2.5a18.3,18.3,0,0,1-3.5-.3q-1.5-.1-1.5-.6t.3-.3l1-.4,1.1-.4,1.4-.8a1,1,0,0,0,.5-.8c0-.4-.5-.7-1.3-1a16.3,16.3,0,0,0-3.6-.4,9.1,9.1,0,0,0-3.3.5,6.4,6.4,0,0,0-2.1,1.4,13.8,13.8,0,0,1-2.5,1.7,16.5,16.5,0,0,1-4.1,1.1,51,51,0,0,1-7.7.5A49.9,49.9,0,0,1,250.4,342.6Z"/><path class="j" d="M324.9,345.9v12.8l1.3-.4V345.5Z"/><path class="j" d="M310.8,348.7v12.8l1.4-.2V348.5Z"/><path class="j" d="M296.8,350.3v12.8h1.4V350.2Z"/><path class="j" d="M282.7,351.2V364h1.4V351.1Z"/><path class="j" d="M269.4,351.4h-.7v12.8h1.4V351.4Z"/><path class="j" d="M254.6,351.1v12.8H256V351.2Z"/><path class="j" d="M240.6,350.2V363H242V350.3Z"/><path class="j" d="M226.6,348.5v12.8l1.3.2V348.7Z"/><path class="j" d="M212.5,345.5v12.8l1.4.4V345.9Z"/><path class="k" d="M186,336c0,7.9,31.4,14.3,70.2,14.3s70.2-6.4,70.2-14.3V323.2H186Z"/><ellipse class="i" cx="256.2" cy="323.2" rx="70.2" ry="14.3"/><path class="j" d="M256.2,335.8h-1.1c-.2,0-.3-.1-.3-.2a.3.3,0,0,1,.3-.3h2.3a.3.3,0,0,1,.3.3c0,.1-.1.2-.3.2Zm-3.5,0h-2.4a.2.2,0,0,1,0-.4h2.4a.2.2,0,0,1,.2.2C252.9,335.7,252.8,335.8,252.7,335.8Zm7.1,0c-.1,0-.2-.1-.2-.3a.2.2,0,0,1,.2-.2h2.4a.2.2,0,0,1,0,.4Zm-11.9-.1h-2.4a.2.2,0,0,1-.2-.2l.2-.2h2.4c.2.1.3.1.3.3S248,335.7,247.9,335.7Zm16.7,0c-.1,0-.3-.1-.3-.2a.3.3,0,0,1,.3-.3H267a.2.2,0,0,1,0,.4Zm-21.4-.2h-2.4c-.2,0-.3-.1-.3-.2l.3-.2h2.4a.2.2,0,1,1,0,.4Zm26.1,0a.2.2,0,0,1,0-.4h2.4c.2,0,.3.1.3.2s-.1.2-.3.2h-2.4Zm-30.9-.2H236c-.1-.1-.2-.2-.2-.3l.2-.2,2.4.2a.2.2,0,0,1,.2.2Zm35.7,0-.2-.2a.2.2,0,0,1,.2-.2l2.4-.2a.2.2,0,0,1,0,.4l-2.4.2Zm-40.4-.3h-.1l-2.3-.2c-.2,0-.3-.1-.3-.2s.1-.2.3-.2l2.4.2a.2.2,0,1,1,0,.4Zm45.2,0c-.2,0-.3-.1-.3-.2a.2.2,0,0,1,.2-.2l2.4-.2c.2,0,.3.1.3.2s-.1.2-.3.2l-2.3.2Zm-50-.4h0l-2.4-.2c-.1,0-.2-.1-.2-.3s.1-.2.3-.2l2.3.3c.2,0,.3.1.2.2A.2.2,0,0,1,228.9,334.6Zm54.7,0a.2.2,0,0,1-.2-.2c-.1-.1,0-.2.2-.2l2.3-.3c.2,0,.3.1.3.2s-.1.3-.2.3l-2.4.2Zm-59.4-.5h-.1l-2.3-.3a.2.2,0,0,1,0-.4l2.4.3a.2.2,0,1,1,0,.4Zm64.1,0a.2.2,0,1,1,0-.4l2.4-.3a.2.2,0,0,1,.2.2c0,.1,0,.2-.2.2l-2.3.3Zm-68.8-.6h-.1l-2.3-.3c-.2,0-.3-.1-.2-.2s.1-.2.2-.2l2.4.3c.1,0,.2.1.2.3S219.6,333.5,219.5,333.5Zm73.5,0c-.1,0-.2,0-.2-.1s.1-.3.2-.3l2.4-.3c.1,0,.2,0,.2.2s0,.2-.2.2l-2.3.3Zm-78.2-.7h-.1l-2.3-.4c-.2,0-.2-.1-.2-.2s.1-.2.3-.2l2.3.4c.1,0,.2.2.2.3S214.9,332.8,214.8,332.8Zm82.9,0c-.1,0-.2,0-.2-.1s.1-.3.2-.3l2.3-.4c.2,0,.3.1.3.2s0,.2-.2.2l-2.3.4Zm-87.6-.8H210l-2.3-.5a.2.2,0,0,1-.2-.2c.1-.2.2-.2.3-.2l2.3.5c.2,0,.3.1.2.2Zm92.3,0-.2-.2c0-.1,0-.2.2-.2l2.3-.5c.1-.1.2,0,.3.1s-.1.3-.2.3l-2.3.5Zm-96.9-1h-.1l-2.3-.6c-.1-.1-.2-.2-.1-.3s.1-.2.3-.1l2.2.6c.2,0,.2.1.2.2A.2.2,0,0,1,205.5,331ZM307,331a.2.2,0,0,1-.2-.2c0-.1,0-.2.2-.3l2.2-.6c.2,0,.3.1.3.2s0,.2-.1.2l-2.3.7Zm-106.1-1.3h-.1l-2.2-.8c-.1-.1-.2-.2-.1-.3a.2.2,0,0,1,.3-.1l2.2.8a.2.2,0,0,1,.2.2Zm110.7,0-.3-.2a.2.2,0,0,1,.2-.2l2.2-.8c.1-.1.2,0,.3.1s0,.2-.1.3l-2.2.8Zm-115-1.7c-.1,0-.1,0-.1-.1a10.3,10.3,0,0,1-2.1-1.1.2.2,0,0,1,0-.3c0-.1.2-.1.3,0l2,1.1c.1,0,.1.2.1.3Zm119.3-.1h-.2a.4.4,0,0,1,.1-.3,9.5,9.5,0,0,0,2-1.1h.3a.2.2,0,0,1,0,.3l-2.1,1.1Zm-123-2.5h-.2a3.2,3.2,0,0,1-.9-2.1.2.2,0,0,1,.2-.2h0c.2,0,.3.1.3.2a2.7,2.7,0,0,0,.7,1.8c.1.1.1.3,0,.3Zm126.7-.1h-.1a.4.4,0,0,1-.1-.3,2.9,2.9,0,0,0,.8-1.8h0a.2.2,0,0,1,.2-.2h0a.2.2,0,0,1,.2.2h0a2.7,2.7,0,0,1-.8,2C319.8,325.3,319.7,325.3,319.6,325.3Zm-126.8-3.8h-.2c-.1,0-.1-.2,0-.3a8.6,8.6,0,0,1,1.7-1.5c.1-.1.3,0,.4.1a.5.5,0,0,1-.1.3,5.6,5.6,0,0,0-1.6,1.4Zm126.8-.1h-.2a6.1,6.1,0,0,0-1.7-1.4.4.4,0,0,1-.1-.3c.1-.1.3-.2.4-.1a8.6,8.6,0,0,1,1.7,1.5.2.2,0,0,1,0,.3Zm-123.1-2.5a.2.2,0,0,1-.2-.2c-.1-.1-.1-.2.1-.3l2.1-.9c.1,0,.3,0,.3.1a.2.2,0,0,1-.1.3l-2.1.9Zm119.3-.1h-.1a13.6,13.6,0,0,0-2.1-1c-.1,0-.2-.1-.1-.2s.2-.2.3-.2l2.1,1c.2,0,.2.2.1.3Zm-115-1.7c-.1,0-.2,0-.2-.1s0-.2.1-.3l2.3-.7c.1,0,.3,0,.3.2s0,.2-.2.2l-2.2.7Zm110.7,0h-.1l-2.3-.7c-.1-.1-.2-.2-.1-.3s.1-.2.3-.1l2.2.7c.2,0,.2.1.2.2A.2.2,0,0,1,311.5,317.1Zm-106.1-1.3h-.3c0-.1.1-.3.2-.3l2.3-.5a.2.2,0,0,1,.3.1c0,.1-.1.2-.2.3l-2.3.5Zm101.5,0h0l-2.3-.6c-.2,0-.2-.1-.2-.2s.2-.2.3-.2l2.3.6c.1,0,.2.1.1.2Zm-96.9-1-.3-.2a.2.2,0,0,1,.2-.2l2.4-.5a.2.2,0,0,1,.2.2c.1.1,0,.2-.1.2l-2.4.5Zm92.3,0h-.1l-2.3-.5-.2-.2c.1-.2.2-.2.3-.2l2.3.4c.2.1.3.2.2.3Zm-87.7-.9h-.2c0-.1.1-.3.2-.3l2.3-.3c.2-.1.3,0,.3.1s0,.3-.2.3l-2.3.3Zm83,0h0l-2.4-.3-.2-.3.3-.2,2.4.4a.2.2,0,0,1,.2.2Zm-78.3-.7h-.2c0-.2.1-.3.2-.3l2.4-.3a.2.2,0,0,1,.2.2c.1.1,0,.2-.2.2l-2.3.3Zm73.6,0h0l-2.4-.3a.2.2,0,0,1-.2-.2l.3-.2,2.4.3a.2.2,0,0,1,.2.2Zm-68.8-.5c-.2,0-.3-.1-.3-.2s.1-.2.2-.3l2.4-.2.3.2a.2.2,0,0,1-.2.2l-2.4.3Zm64.1-.1h0l-2.4-.2a.2.2,0,0,1-.2-.2c0-.2.1-.2.3-.2l2.3.2c.2,0,.3.1.2.3S288.3,312.6,288.2,312.6Zm-59.4-.4a.2.2,0,0,1-.2-.2c-.1-.1,0-.2.2-.2l2.3-.3c.2,0,.3.1.3.2s-.1.3-.2.3l-2.4.2Zm54.7,0h0l-2.4-.2c-.1,0-.2-.2-.2-.3a.2.2,0,0,1,.2-.2l2.4.2c.1.1.2.2.2.3A.2.2,0,0,1,283.5,312.2Zm-50-.4-.2-.2a.2.2,0,0,1,.2-.2l2.4-.2.2.2c.1.1,0,.2-.2.2l-2.3.2Zm45.2,0h0l-2.4-.2a.2.2,0,0,1-.2-.2l.3-.2,2.4.2a.2.2,0,0,1,.2.2C279,311.7,278.9,311.8,278.7,311.8Zm-40.4-.3-.3-.2c0-.1.1-.2.3-.2l2.3-.2c.2,0,.3.1.3.2s-.1.3-.2.3Zm35.7,0h-2.4l-.2-.3a.2.2,0,0,1,.2-.2H274c.1.1.2.2.2.3A.2.2,0,0,1,274,311.5Zm-31-.2-.2-.2c0-.2.1-.3.2-.3h2.4l.3.2a.3.3,0,0,1-.3.3H243Zm26.2,0h-2.4c-.1,0-.2-.1-.2-.3a.2.2,0,0,1,.2-.2h2.4c.2,0,.3.1.3.2A.3.3,0,0,1,269.2,311.3Zm-21.4-.2a.2.2,0,1,1,0-.4h2.4a.2.2,0,0,1,.2.2c0,.2-.1.2-.2.3Zm16.7,0h-2.4l-.3-.2c0-.1.2-.2.3-.2h2.4a.2.2,0,0,1,0,.4Zm-11.9-.1c-.2,0-.3-.1-.3-.2s.1-.2.3-.2h2.3c.2,0,.3.1.3.2s-.1.2-.3.2Zm7.1,0h-2.4a.2.2,0,0,1,0-.4h2.4a.2.2,0,0,1,0,.4Z"/><ellipse class="k" cx="256.2" cy="323.2" rx="59" ry="10.3"/><path class="j" d="M198.4,325.2c5.5-4.6,29.3-8.2,57.8-8.2s52.3,3.6,57.8,8.2a2.6,2.6,0,0,0,1.2-2c0-5.7-26.4-10.3-59-10.3s-59,4.6-59,10.3A2.6,2.6,0,0,0,198.4,325.2Z"/><path class="j" d="M237.2,328.6q-3.7-.7-5.1-2.1h-3.3a16.7,16.7,0,0,1-3.4-.2c-.9-.2-1.3-.4-1.3-.7s.4-.5,1.3-.7a15.8,15.8,0,0,1,3.4-.3h3.1c.6-1,2.1-1.9,4.4-2.6l1.7-.4h2.5a17.5,17.5,0,0,1,3.5.3c1,.1,1.5.3,1.5.5a.5.5,0,0,1-.2.4l-1.1.4-2.3,1.1a1.7,1.7,0,0,0-.6,1.2c0,.4.3.8,1.1,1.1a14.9,14.9,0,0,0,3.6.4,8.3,8.3,0,0,0,2.4-.3,3.8,3.8,0,0,0,1.4-.5l1.4-1a10.6,10.6,0,0,1,2.6-1.7,13.5,13.5,0,0,1,4.1-1.2,50.5,50.5,0,0,1,7.6-.5,52.7,52.7,0,0,1,9.5.8c2.6.5,4.4,1.2,5.3,2.1h3.4l3.3.2c.9.2,1.4.4,1.4.7s-.5.5-1.3.7a15.8,15.8,0,0,1-3.4.3h-3.2c-.6.8-2,1.5-4.3,2.2l-1.8.4H272a18.6,18.6,0,0,1-3.6-.3c-.9-.1-1.4-.3-1.4-.5s0-.3.2-.4l1-.4,1.2-.4,1.3-.7a1.1,1.1,0,0,0,.5-.9c0-.4-.4-.7-1.3-1a17.3,17.3,0,0,0-3.6-.3,8.9,8.9,0,0,0-3.2.4,9,9,0,0,0-2.2,1.4,10.2,10.2,0,0,1-6.6,2.8,57.3,57.3,0,0,1-17.1-.3Z"/><path class="j" d="M311.7,331.9v12.8l1.4-.4V331.5Z"/><path class="j" d="M297.7,334.7v12.8l1.3-.2V334.5Z"/><path class="j" d="M283.6,336.3v12.8H285V336.2Z"/><path class="j" d="M269.6,337.2V350H271V337.1Z"/><path class="j" d="M256.2,337.5h-.7v12.7h1.4V337.5Z"/><path class="j" d="M241.5,337.1v12.8h1.4V337.2Z"/><path class="j" d="M227.4,336.2V349h1.4V336.3Z"/><path class="j" d="M213.4,334.5v12.8l1.4.2V334.7Z"/><path class="j" d="M199.4,331.5v12.8l1.3.4V331.9Z"/><path class="h" d="M198.5,323c0,7.9,31.4,14.3,70.2,14.3s70.2-6.4,70.2-14.3V310.2H198.5Z"/><ellipse class="i" cx="268.7" cy="310.2" rx="70.2" ry="14.3"/><path class="j" d="M268.7,322.8h-1.1c-.2,0-.3-.1-.3-.2s.1-.2.3-.2h2.3c.2,0,.3.1.3.2s-.1.2-.3.2Zm-3.5,0h-2.4a.2.2,0,0,1-.2-.2c0-.2.1-.2.2-.2h2.4a.2.2,0,1,1,0,.4Zm7.1,0a.2.2,0,0,1,0-.4h2.4c.1,0,.2,0,.2.2a.2.2,0,0,1-.2.2Zm-11.9-.1H258c-.1,0-.2-.1-.2-.3a.2.2,0,0,1,.2-.2h2.4c.2,0,.3.1.3.2Zm16.7,0c-.1,0-.3-.1-.3-.2s.1-.2.3-.2h2.4a.2.2,0,0,1,.2.2c0,.2-.1.3-.2.3Zm-21.4-.1h-2.4c-.2,0-.3-.1-.3-.2a.3.3,0,0,1,.3-.3h0l2.4.2a.2.2,0,1,1,0,.4Zm26.1,0a.2.2,0,1,1,0-.4l2.4-.2c.2,0,.3.1.3.2a.3.3,0,0,1-.3.3Zm-30.9-.2h0l-2.4-.2a.2.2,0,0,1,0-.4h2.4c.1,0,.2.1.2.3A.2.2,0,0,1,250.9,322.4Zm35.7-.1c-.1,0-.2,0-.2-.2a.2.2,0,0,1,.2-.2H289a.2.2,0,0,1,0,.4Zm-40.5-.3h-2.3a.3.3,0,0,1-.3-.3c0-.1.1-.2.3-.2l2.4.2c.1,0,.2.1.2.3S246.3,322,246.1,322Zm45.2,0c-.1,0-.2,0-.2-.2a.2.2,0,0,1,.2-.2l2.4-.2c.2,0,.2.1.3.2a.3.3,0,0,1-.3.3h-2.4Zm-49.9-.3h0l-2.4-.3a.2.2,0,0,1-.2-.2c0-.1.1-.2.3-.2l2.3.2c.2,0,.3.2.2.3A.2.2,0,0,1,241.4,321.7Zm54.7,0a.2.2,0,0,1-.2-.2c-.1-.2,0-.3.2-.3l2.3-.2c.2,0,.3.1.3.2a.2.2,0,0,1-.2.2l-2.4.3Zm-59.4-.5h-.1l-2.3-.3c-.2,0-.2-.1-.2-.2s.1-.2.2-.2l2.4.3a.2.2,0,1,1,0,.4Zm64.1,0a.2.2,0,0,1,0-.4l2.4-.3c.1,0,.2,0,.2.2a.2.2,0,0,1-.2.2l-2.3.3Zm-68.8-.6h-.1l-2.3-.3c-.2-.1-.3-.2-.2-.3a.2.2,0,0,1,.2-.2l2.4.4.2.2A.2.2,0,0,1,232,320.6Zm73.5,0a.2.2,0,1,1,0-.4l2.4-.4a.2.2,0,0,1,.2.2c.1.1,0,.2-.2.3l-2.3.3Zm-78.2-.7h-.1l-2.3-.4c-.2,0-.2-.1-.2-.3h.3l2.3.4a.2.2,0,0,1,0,.4Zm82.9,0a.2.2,0,0,1-.2-.2l.2-.2,2.3-.4c.2-.1.3,0,.3.1s0,.3-.2.3l-2.3.4Zm-87.6-.8h-.1l-2.3-.5-.2-.3c.1-.1.2-.2.3-.1l2.3.4c.2.1.2.2.2.3A.2.2,0,0,1,222.6,319.1Zm92.3,0a.2.2,0,0,1-.2-.2c-.1-.1,0-.2.2-.3l2.3-.5.3.2-.2.3-2.3.4A.1.1,0,0,0,314.9,319.1ZM218,318h-.1l-2.3-.6c-.1,0-.2-.1-.1-.3s.1-.1.3-.1l2.2.6c.2,0,.2.2.2.3S218.1,318,218,318Zm101.5,0c-.1,0-.2,0-.2-.1s0-.3.2-.3l2.2-.6c.2,0,.3,0,.3.1a.2.2,0,0,1-.1.3l-2.3.6Zm-106.1-1.3h-.1l-2.2-.8c-.1,0-.2-.1-.1-.2l.3-.2,2.2.8c.1.1.2.2.1.3Zm110.7,0h-.3c0-.1.1-.2.2-.3l2.2-.8h.3a.2.2,0,0,1-.1.3l-2.3.8Zm-115-1.7H209l-2.1-1.1a.2.2,0,0,1,0-.3.2.2,0,0,1,.3-.1,9.5,9.5,0,0,0,2,1.1.4.4,0,0,1,.1.3Zm119.3,0h-.2c-.1-.1,0-.2.1-.3l2-1.1a.2.2,0,0,1,.3,0c.1.1.1.3,0,.3l-2.1,1.2Zm-123.1-2.6h-.1a2.8,2.8,0,0,1-.9-2,.2.2,0,0,1,.2-.2h0c.2,0,.3.1.3.2a2.7,2.7,0,0,0,.7,1.8.2.2,0,0,1,0,.3Zm126.8,0H332a.2.2,0,0,1-.1-.3,2.9,2.9,0,0,0,.8-1.8h0a.2.2,0,0,1,.2-.2h0a.2.2,0,0,1,.2.2h0a3.1,3.1,0,0,1-.8,2.1Zm-126.8-3.9h-.2a.2.2,0,0,1,0-.3,8.6,8.6,0,0,1,1.7-1.5h.3a.2.2,0,0,1,0,.3,7.8,7.8,0,0,0-1.6,1.5Zm126.7-.1h-.1l-1.7-1.4a.4.4,0,0,1-.1-.3.3.3,0,0,1,.4,0,8.6,8.6,0,0,1,1.7,1.5.2.2,0,0,1,0,.3Zm-123-2.5h-.2a.2.2,0,0,1,0-.3l2.2-.9a.2.2,0,0,1,.3.1c.1.1,0,.2-.1.3l-2.1.9Zm119.3-.1h-.1l-2.1-.9a.2.2,0,0,1-.1-.3c0-.1.1-.1.3-.1l2.1.9c.1.1.2.2.1.3S328.4,305.8,328.3,305.8Zm-115-1.6a.2.2,0,0,1-.2-.2c-.1-.1,0-.2.1-.2l2.3-.7a.2.2,0,0,1,.3.1c0,.1,0,.2-.2.3l-2.2.7Zm110.7-.1h-.1l-2.3-.7c-.1,0-.2-.1-.1-.2s.1-.2.3-.2l2.2.7c.2.1.2.2.2.3Zm-106.2-1.2a.2.2,0,0,1,0-.4l2.3-.6.3.2a.2.2,0,0,1-.2.2l-2.3.6Zm101.6-.1h0l-2.3-.5c-.2,0-.3-.1-.2-.3s.1-.1.3-.1l2.3.5c.1.1.2.2.1.3S319.5,302.8,319.4,302.8Zm-96.9-.9-.3-.2.2-.3,2.3-.4c.2,0,.3,0,.3.2s0,.2-.2.2l-2.3.4Zm92.3-.1h-.1l-2.3-.4c-.1,0-.2-.2-.2-.3s.2-.2.3-.1l2.3.4c.2,0,.3.1.2.3S314.9,301.8,314.8,301.8Zm-87.7-.8a.2.2,0,1,1,0-.4l2.3-.4c.2,0,.3.1.3.2s0,.2-.2.2l-2.3.4Zm83,0h0l-2.4-.4a.2.2,0,0,1-.2-.2c.1-.2.2-.2.3-.2l2.4.4a.2.2,0,0,1,.2.2Zm-78.3-.7a.2.2,0,0,1,0-.4l2.4-.3c.1,0,.2,0,.2.2s0,.2-.2.2l-2.3.3Zm73.6,0h0L303,300c-.1,0-.2-.2-.2-.3s.1-.2.3-.1a9.9,9.9,0,0,1,2.4.3.2.2,0,0,1,.2.2Zm-68.8-.6c-.2,0-.3-.1-.3-.2a.2.2,0,0,1,.2-.2l2.4-.3.3.2a.3.3,0,0,1-.3.3l-2.3.2Zm64.1,0h0l-2.4-.3a.2.2,0,0,1-.2-.2c0-.1.1-.2.3-.2l2.3.3c.2,0,.3.1.2.2A.2.2,0,0,1,300.7,299.7Zm-59.4-.5c-.1,0-.2,0-.3-.2s.1-.2.3-.2l2.3-.2c.2,0,.3.1.3.2a.2.2,0,0,1-.2.2l-2.4.2Zm54.7,0h-.1l-2.3-.2a.2.2,0,1,1,0-.4l2.4.2a.2.2,0,0,1,0,.4Zm-50-.3a.2.2,0,0,1-.2-.2c0-.2.1-.3.2-.3h2.4c.1-.1.2,0,.2.2s0,.2-.2.2l-2.4.2Zm45.2-.1h-2.4c-.1,0-.2-.1-.2-.3a.2.2,0,0,1,.3-.1h2.3c.2,0,.3.1.3.2S291.4,298.8,291.2,298.8Zm-40.4-.3c-.1,0-.3,0-.3-.2s.1-.2.3-.2h2.3c.2,0,.3.1.3.2a.2.2,0,0,1-.2.2Zm35.7,0h-2.4a.2.2,0,0,1,0-.4h2.4a.2.2,0,1,1,0,.4Zm-31-.2-.2-.2a.2.2,0,0,1,.2-.2h2.4c.1,0,.3.1.3.2s-.1.2-.3.2Zm26.2,0h-2.4a.2.2,0,0,1,0-.4h2.4c.2,0,.3.1.3.2Zm-21.4-.1a.2.2,0,0,1-.2-.2c0-.2.1-.3.2-.3h2.4a.2.2,0,0,1,0,.4Zm16.7,0h-2.4c-.2,0-.3-.1-.3-.2l.3-.2H277a.2.2,0,0,1,.2.2C277.2,298.1,277.1,298.2,277,298.2Zm-11.9-.1c-.2,0-.3-.1-.3-.2a.3.3,0,0,1,.3-.3h2.3c.2,0,.3.1.3.2a.3.3,0,0,1-.3.3Zm7.1,0h-2.4c-.1,0-.2-.1-.2-.3a.2.2,0,0,1,.2-.2h2.4c.1,0,.2.1.2.3A.2.2,0,0,1,272.2,298.1Z"/><ellipse class="h" cx="268.7" cy="310.2" rx="59" ry="10.3"/><path class="j" d="M210.9,312.3c5.5-4.7,29.3-8.2,57.8-8.2s52.3,3.5,57.8,8.2a2.9,2.9,0,0,0,1.2-2.1c0-5.6-26.4-10.2-59-10.2s-59,4.6-59,10.2A2.9,2.9,0,0,0,210.9,312.3Z"/><path class="j" d="M249.7,315.7q-3.7-.7-5.1-2.1h-3.3a15.8,15.8,0,0,1-3.4-.3c-.9-.1-1.3-.4-1.3-.7s.4-.5,1.3-.7l3.4-.2h3.1c.6-1.1,2.1-1.9,4.4-2.7l1.7-.3H253l3.5.2q1.5.3,1.5.6c0,.1-.1.2-.2.3l-1.1.5a8.2,8.2,0,0,0-2.3,1.1,1.5,1.5,0,0,0-.7,1.1c0,.5.4.9,1.2,1.1a11.1,11.1,0,0,0,3.6.4l2.4-.2,1.4-.6,1.4-1a14.5,14.5,0,0,1,2.6-1.7,17.9,17.9,0,0,1,4.1-1.1,49.5,49.5,0,0,1,7.6-.5,52.7,52.7,0,0,1,9.5.8c2.6.5,4.4,1.2,5.3,2h3.4a14.8,14.8,0,0,1,3.3.3c.9.2,1.4.4,1.4.7s-.5.5-1.3.7a15.8,15.8,0,0,1-3.4.3H293a9.7,9.7,0,0,1-4.3,2.2,5.7,5.7,0,0,1-1.8.3h-2.4a19.4,19.4,0,0,1-3.6-.2q-1.5-.3-1.5-.6l.3-.3,1-.4,1.2-.5a4,4,0,0,0,1.3-.7.8.8,0,0,0,.5-.8c0-.4-.4-.7-1.3-1a11.9,11.9,0,0,0-3.6-.4,8.5,8.5,0,0,0-3.2.5,4.8,4.8,0,0,0-2.2,1.4,13.2,13.2,0,0,1-2.5,1.6,14.6,14.6,0,0,1-4.1,1.2,53.2,53.2,0,0,1-7.7.4A50.8,50.8,0,0,1,249.7,315.7Z"/><path class="j" d="M324.2,319v12.8l1.4-.4V318.6Z"/><path class="j" d="M310.1,321.8v12.8l1.4-.3V321.5Z"/><path class="j" d="M296.1,323.4v12.8h1.4V323.3Z"/><path class="j" d="M282.1,324.3V337h1.4V324.2Z"/><path class="j" d="M268.7,324.5H268v12.8h1.4V324.5Z"/><path class="j" d="M254,324.2V337h1.4V324.3Z"/><path class="j" d="M239.9,323.3v12.8h1.4V323.4Z"/><path class="j" d="M225.9,321.5v12.8l1.4.3V321.8Z"/><path class="j" d="M211.9,318.6v12.8l1.3.4V319Z"/><path class="h" d="M190.4,310.2c0,7.9,31.4,14.3,70.2,14.3s70.2-6.4,70.2-14.3V297.4H190.4Z"/><path class="i" d="M330.8,297.4c0,7.9-31.4,14.3-70.2,14.3s-70.2-6.4-70.2-14.3,31.4-14.3,70.2-14.3S330.8,289.5,330.8,297.4Z"/><path class="j" d="M260.6,310h-1.2l-.2-.2a.2.2,0,0,1,.2-.2h2.4c.1,0,.3.1.3.2l-.3.2Zm-3.6,0h-2.3c-.2,0-.3-.1-.3-.2s.1-.2.3-.2h2.4c.1,0,.2.1.2.3S257.2,310,257,310Zm7.2,0-.2-.2c0-.2.1-.3.2-.3h2.4l.2.2a.2.2,0,0,1-.2.2Zm-11.9-.1h-2.4l-.2-.2a.2.2,0,0,1,.2-.2h2.4a.2.2,0,0,1,0,.4Zm16.7,0c-.2,0-.3-.1-.3-.2l.2-.2h2.4c.2,0,.3.1.3.2s-.1.2-.3.2Zm-21.5-.2h-2.4a.2.2,0,0,1-.2-.2l.2-.2h2.4c.2,0,.3.1.3.2S247.7,309.7,247.5,309.7Zm26.2,0a.2.2,0,0,1,0-.4h2.4l.2.2a.2.2,0,0,1-.2.2Zm-30.9-.2h-2.4c-.2,0-.3-.1-.2-.3a.2.2,0,0,1,.2-.2l2.4.2a.2.2,0,0,1,0,.4Zm35.7,0c-.2,0-.3-.1-.3-.2s.1-.2.3-.2l2.3-.2c.2,0,.3.1.3.2l-.2.3Zm-40.5-.3h0l-2.4-.2a.2.2,0,0,1-.2-.2c0-.1.1-.2.3-.2l2.3.2c.2,0,.3.1.3.2Zm45.2,0a.2.2,0,0,1,0-.4l2.4-.2a.2.2,0,0,1,.2.2l-.2.2-2.4.2Zm-49.9-.4h0l-2.4-.2c-.1,0-.2-.1-.2-.3s.1-.1.2-.1l2.4.2a.2.2,0,0,1,.2.2Zm54.7,0c-.2,0-.3-.1-.3-.2a.2.2,0,0,1,.2-.2l2.4-.2c.2-.1.3,0,.3.1s-.1.3-.2.3l-2.4.2Zm-59.5-.5h0l-2.3-.2-.3-.3.3-.2,2.4.3a.2.2,0,0,1,.2.2C228.8,308.3,228.7,308.3,228.5,308.3Zm64.2,0-.2-.2c-.1-.1,0-.2.2-.2l2.3-.3c.2,0,.3.1.3.2l-.2.2-2.4.3Zm-68.9-.5h0l-2.4-.4a.2.2,0,0,1-.2-.2l.3-.2,2.4.3c.1,0,.2.2.2.3Zm73.6-.1h-.2c0-.2.1-.3.2-.3l2.3-.3c.2,0,.3,0,.3.2a.2.2,0,0,1-.2.2l-2.3.3Zm-78.3-.6h0l-2.4-.5c-.1,0-.2-.1-.1-.2a.2.2,0,0,1,.2-.2l2.4.4.2.3Zm83-.1c-.1,0-.2,0-.2-.1s0-.3.2-.3l2.3-.4.3.2a.2.2,0,0,1-.2.2l-2.3.4Zm-87.6-.8h-.1l-2.3-.5a.2.2,0,0,1-.2-.2c0-.2.2-.2.3-.2l2.3.5a.2.2,0,0,1,0,.4Zm92.3,0-.3-.2a.2.2,0,0,1,.2-.2l2.3-.5h.3c.1.2,0,.3-.1.3l-2.4.5Zm-97-1h0l-2.3-.6-.2-.3c.1-.1.2-.2.3-.1l2.3.6a.2.2,0,0,1,.2.2Zm101.6,0a.2.2,0,0,1-.2-.2c-.1-.1,0-.2.1-.3a15.5,15.5,0,0,0,2.3-.6c.1,0,.3.1.3.2s0,.2-.1.3l-2.3.6Zm-106.1-1.3h-.1l-2.2-.8c-.1-.1-.2-.2-.1-.3s.2-.1.3-.1l2.2.8c.1,0,.2.1.1.3Zm110.6,0-.2-.2c0-.1,0-.2.2-.2l2.2-.8c.1-.1.2,0,.3.1s0,.2-.2.3l-2.2.8Zm-115-1.7h-.1l-2-1.2a.4.4,0,0,1-.1-.3h.4l2,1.1c.1,0,.1.2.1.3Zm119.4,0a.2.2,0,0,1-.2-.2c-.1-.1,0-.2.1-.2l2-1.2h.3c.1.1.1.2-.1.3a7.5,7.5,0,0,1-2,1.1Zm-123.1-2.6H197a3.7,3.7,0,0,1-.8-2.1l.2-.2h0l.2.2a3.6,3.6,0,0,0,.8,1.8c.1.1.1.3,0,.3Zm126.8-.1h-.1c-.2-.1-.2-.2-.1-.3a2.7,2.7,0,0,0,.7-1.8h0c0-.1.1-.2.3-.2h0a.2.2,0,0,1,.2.2h0a3.7,3.7,0,0,1-.8,2.1Zm-126.8-3.8H197a.2.2,0,0,1,0-.3,6.6,6.6,0,0,1,1.7-1.6c.1-.1.2,0,.3.1a.2.2,0,0,1,0,.3,6.1,6.1,0,0,0-1.7,1.4Zm126.7-.1h-.2a5.6,5.6,0,0,0-1.6-1.4c-.1-.1-.2-.2-.1-.3h.3a7.1,7.1,0,0,1,1.8,1.5c.1.1.1.3,0,.3Zm-123.1-2.5-.2-.2c0-.1,0-.2.1-.2l2.2-1h.3c0,.1,0,.3-.1.3l-2.1.9Zm119.4-.1h-.1l-2.1-1c-.2,0-.2-.1-.2-.2s.2-.2.3-.1l2.2.9a.2.2,0,0,1,.1.3Zm-115-1.7c-.1,0-.2,0-.2-.1s0-.2.1-.3l2.3-.7.3.2a.2.2,0,0,1-.2.2l-2.2.7Zm110.6,0h0l-2.3-.7c-.1,0-.2-.2-.2-.3s.2-.2.3-.1l2.3.7a.2.2,0,0,1,.2.2ZM209.7,290c-.1,0-.2,0-.2-.1s0-.2.2-.3l2.3-.5c.1-.1.2,0,.3.1s-.1.3-.2.3l-2.3.5Zm101.6,0h-.1l-2.3-.5c-.1-.1-.2-.2-.1-.3a.2.2,0,0,1,.2-.2l2.4.6c.1,0,.2.1.1.2Zm-97-1a.2.2,0,0,1,0-.4l2.3-.5c.2,0,.3.1.3.2l-.2.3-2.3.4Zm92.4,0h-.1l-2.3-.5a.2.2,0,0,1-.2-.2c0-.1.2-.2.3-.2l2.3.4c.1.1.2.2.2.3A.2.2,0,0,1,306.7,289Zm-87.7-.8a.2.2,0,0,1-.2-.2c0-.1,0-.2.2-.3l2.3-.3a.2.2,0,0,1,.3.1c0,.2-.1.3-.2.3l-2.3.4Zm83-.1h0l-2.4-.3c-.1-.1-.2-.2-.2-.3s.2-.2.3-.2l2.3.4c.2,0,.3.1.2.3S302.1,288.1,302,288.1Zm-78.3-.6a.2.2,0,0,1-.2-.2c0-.1,0-.3.2-.3l2.3-.3c.2,0,.3.1.3.2a.2.2,0,0,1-.2.2l-2.4.4Zm73.6-.1h0l-2.4-.3a.2.2,0,0,1-.2-.2c0-.1.1-.2.3-.2l2.3.3c.2,0,.3.1.2.2S297.4,287.4,297.3,287.4Zm-68.9-.5a.2.2,0,0,1-.2-.2l.2-.3,2.4-.2.2.2c0,.1,0,.2-.2.2l-2.3.3Zm64.2,0h0l-2.4-.2a.2.2,0,0,1-.2-.2c0-.2.1-.2.2-.2l2.4.2c.1,0,.2.1.2.3A.2.2,0,0,1,292.6,286.9Zm-59.4-.5c-.2,0-.3-.1-.3-.2a.2.2,0,0,1,.2-.2l2.4-.2c.1-.1.3,0,.3.2a.2.2,0,0,1-.2.2l-2.4.2Zm54.6,0h0l-2.3-.2a.3.3,0,0,1-.3-.3l.3-.2,2.4.2.2.3C288.1,286.3,288,286.4,287.8,286.4Zm-49.9-.4-.2-.2a.2.2,0,0,1,.2-.2l2.4-.2a.2.2,0,0,1,.2.2l-.2.2-2.4.2Zm45.2,0h0l-2.4-.2-.2-.2a.2.2,0,0,1,.2-.2l2.4.2c.2,0,.3.1.2.2Zm-40.4-.3c-.2,0-.3-.1-.3-.2a.2.2,0,0,1,.2-.2l2.4-.2c.2,0,.3.1.3.2a.3.3,0,0,1-.3.3Zm35.7,0H276a.3.3,0,0,1-.3-.3c0-.1.1-.2.3-.2h0l2.4.2a.2.2,0,0,1,0,.4Zm-31-.2-.2-.2c0-.2.1-.3.2-.3h2.4c.1,0,.2,0,.2.2a.2.2,0,0,1-.2.2Zm26.2,0h-2.4a.2.2,0,0,1-.2-.2c0-.2.1-.3.2-.3h2.4c.1,0,.2.1.2.3Zm-21.4-.2c-.2,0-.3-.1-.3-.2s.1-.2.3-.2h2.4a.2.2,0,0,1,.2.2c0,.2-.1.3-.2.3Zm16.6,0h-2.3a.3.3,0,0,1-.3-.3c0-.1.1-.2.3-.2h2.3c.2,0,.3.1.3.2S269,285.3,268.8,285.3Zm-11.9-.1a.2.2,0,0,1,0-.4h2.4c.1,0,.3.1.3.2s-.2.2-.3.2Zm7.2,0h-2.4a.2.2,0,0,1,0-.4h2.4a.2.2,0,0,1,0,.4Z"/><path class="h" d="M319.6,297.4c0,5.7-26.4,10.2-59,10.2s-59-4.5-59-10.2,26.4-10.3,59-10.3S319.6,291.7,319.6,297.4Z"/><path class="j" d="M202.8,299.5c5.5-4.7,29.3-8.2,57.8-8.2s52.3,3.5,57.8,8.2a2.9,2.9,0,0,0,1.2-2.1c0-5.7-26.4-10.3-59-10.3s-59,4.6-59,10.3A2.9,2.9,0,0,0,202.8,299.5Z"/><path class="j" d="M241.6,302.8c-2.6-.5-4.3-1.2-5.1-2h-3.3a15.2,15.2,0,0,1-3.4-.3c-.9-.2-1.3-.4-1.3-.7s.4-.5,1.3-.7a15.2,15.2,0,0,1,3.4-.3h3c.7-1,2.1-1.9,4.5-2.6l1.7-.4h2.5a18.3,18.3,0,0,1,3.5.3q1.5.2,1.5.6t-.3.3l-1,.4a12.5,12.5,0,0,0-2.3,1.1,1.5,1.5,0,0,0-.7,1.2c0,.5.4.8,1.2,1.1a14.9,14.9,0,0,0,3.6.4,7.5,7.5,0,0,0,2.3-.3l1.5-.5,1.3-1a13.4,13.4,0,0,1,2.7-1.7,14.6,14.6,0,0,1,4.1-1.2,49.5,49.5,0,0,1,7.6-.5,50.7,50.7,0,0,1,9.4.8c2.7.5,4.5,1.2,5.3,2.1H288l3.4.2c.9.2,1.3.5,1.3.7s-.4.6-1.3.7a14.6,14.6,0,0,1-3.4.3h-3.1c-.6.8-2.1,1.5-4.3,2.2l-1.8.4h-2.4a18.6,18.6,0,0,1-3.6-.3c-1-.1-1.5-.3-1.5-.5s.1-.2.3-.3a3,3,0,0,1,1-.5l1.1-.4a6,6,0,0,0,1.4-.7,1.5,1.5,0,0,0,.5-.8c0-.5-.4-.8-1.3-1a11.9,11.9,0,0,0-3.6-.4,9.9,9.9,0,0,0-3.3.4,8.5,8.5,0,0,0-2.1,1.4,13.8,13.8,0,0,1-2.5,1.7,15.3,15.3,0,0,1-4.1,1.1,51,51,0,0,1-7.7.5A49.9,49.9,0,0,1,241.6,302.8Z"/><path class="j" d="M316.1,306.1v12.8l1.4-.3V305.8Z"/><path class="j" d="M302,308.9v12.8l1.4-.2V308.7Z"/><path class="j" d="M288,310.5v12.8h1.4V310.4Z"/><path class="j" d="M273.9,311.4v12.8h1.4V311.3Z"/><path class="j" d="M260.6,311.7h-.7v12.8h1.4V311.7Z"/><path class="j" d="M245.9,311.3v12.8h1.3V311.4Z"/><path class="j" d="M231.8,310.4v12.8h1.4V310.5Z"/><path class="j" d="M217.8,308.7v12.8l1.4.2V308.9Z"/><path class="j" d="M203.7,305.8v12.8l1.4.3V306.1Z"/><path class="h" d="M193.7,297.5c0,7.9,31.4,14.3,70.2,14.3s70.2-6.4,70.2-14.3V284.7H193.7Z"/><ellipse class="i" cx="263.9" cy="284.7" rx="70.2" ry="14.3"/><path class="j" d="M263.9,297.3h-1.1c-.2,0-.3-.1-.3-.2s.1-.2.3-.2h2.3c.2,0,.3.1.3.2s-.1.2-.3.2Zm-3.5,0H258c-.1-.1-.2-.2-.2-.3a.2.2,0,0,1,.2-.2h2.4a.2.2,0,0,1,.2.2Zm7.1,0a.2.2,0,0,1,0-.4h2.4a.2.2,0,1,1,0,.4Zm-11.9-.1h-2.4a.2.2,0,0,1-.2-.2l.2-.2h2.4c.2,0,.3.1.3.2S255.8,297.2,255.6,297.2Zm16.7,0-.3-.2c0-.1.1-.2.3-.2h2.4a.2.2,0,0,1,0,.4Zm-21.4-.2h-2.4c-.2,0-.3-.1-.3-.2l.3-.2h2.4a.2.2,0,0,1,.2.2C251.1,297,251,297,250.9,297Zm26.1,0c-.1,0-.2,0-.2-.2a.2.2,0,0,1,.2-.2h2.4c.2,0,.3.1.3.2s-.1.2-.3.2H277Zm-30.9-.2h-2.4c-.1,0-.2-.1-.2-.3s.1-.2.2-.1h2.4c.2,0,.3.1.2.2Zm35.7,0a.2.2,0,0,1,0-.4l2.4-.2a.2.2,0,0,1,.2.2c0,.2-.1.3-.2.3Zm-40.4-.3h-.1l-2.3-.2c-.2,0-.3-.1-.3-.2s.1-.2.3-.2l2.4.2a.2.2,0,1,1,0,.4Zm45.2,0c-.2,0-.3-.1-.3-.2a.2.2,0,0,1,.2-.2l2.4-.2c.2,0,.3.1.3.2s-.1.2-.3.2l-2.3.2Zm-50-.4h0l-2.4-.2a.2.2,0,0,1-.2-.2c0-.2.1-.2.3-.2l2.3.2c.2,0,.3.1.2.2A.2.2,0,0,1,236.6,296.1Zm54.7,0a.2.2,0,0,1-.2-.2c-.1-.1,0-.2.2-.2l2.3-.2c.2,0,.3,0,.3.2a.2.2,0,0,1-.2.2l-2.4.2Zm-59.4-.4h-.1l-2.3-.2c-.1,0-.2-.2-.2-.3a.2.2,0,0,1,.2-.2l2.4.3c.1,0,.2.1.2.3A.2.2,0,0,1,231.9,295.7Zm64.1-.1c-.1,0-.2,0-.2-.1s.1-.3.2-.3l2.4-.3a.2.2,0,0,1,.2.2c0,.1,0,.2-.2.3l-2.3.2Zm-68.8-.5h-.1l-2.3-.4c-.2,0-.3-.1-.2-.2a.2.2,0,0,1,.2-.2l2.4.3.2.3A.2.2,0,0,1,227.2,295.1Zm73.5,0a.2.2,0,0,1-.2-.2l.2-.3,2.4-.3a.2.2,0,0,1,.2.2c.1.1,0,.2-.2.2l-2.3.4Zm-78.2-.7h-.1l-2.3-.4c-.2-.1-.2-.2-.2-.3s.1-.2.3-.2l2.3.4.2.3A.2.2,0,0,1,222.5,294.4Zm82.9,0a.2.2,0,0,1-.2-.2l.2-.3,2.3-.4c.2,0,.3.1.3.2s0,.2-.2.3l-2.3.4Zm-87.6-.9h-.1l-2.3-.5-.2-.2.3-.2,2.3.5c.2,0,.3.1.2.3S217.9,293.5,217.8,293.5Zm92.3,0a.2.2,0,0,1-.2-.2c0-.1,0-.2.2-.2l2.3-.5c.1,0,.2,0,.3.2a.2.2,0,0,1-.2.2l-2.3.5Zm-96.9-1h-.1l-2.3-.6c-.1-.1-.2-.2-.1-.3s.1-.2.3-.1l2.2.6c.2,0,.2.1.2.2A.2.2,0,0,1,213.2,292.5Zm101.5,0-.2-.2c0-.1,0-.2.2-.2l2.2-.6c.2-.1.3,0,.3.1s0,.2-.1.3l-2.3.6Zm-106.1-1.3h-.1l-2.2-.8a.2.2,0,0,1-.1-.3h.3l2.2.8c.1,0,.2.2.2.3Zm110.7,0a.2.2,0,0,1-.2-.2c-.1-.1,0-.2.1-.2l2.2-.8a.2.2,0,0,1,.3.1c.1.1,0,.2-.1.3l-2.2.8Zm-115-1.7h-.1l-2.1-1.2c-.1,0-.1-.2,0-.3s.2-.1.3,0l2,1.1a.4.4,0,0,1,.1.3Zm119.3,0h-.2c0-.1,0-.3.1-.3l2-1.2h.3a.2.2,0,0,1,0,.3,10.3,10.3,0,0,1-2.1,1.1C323.7,289.5,323.7,289.5,323.6,289.5Zm-123-2.6h-.2a3.2,3.2,0,0,1-.9-2c0-.2.1-.3.2-.3h0c.2,0,.3.1.3.2a3,3,0,0,0,.7,1.9.2.2,0,0,1,0,.3Zm126.7,0h-.1a.4.4,0,0,1-.1-.3,2.9,2.9,0,0,0,.8-1.8h0a.2.2,0,0,1,.2-.2h0a.2.2,0,0,1,.2.2h.1a3.2,3.2,0,0,1-.9,2.1ZM200.5,283h-.2a.2.2,0,0,1,0-.3,6.6,6.6,0,0,1,1.7-1.6h.4a.4.4,0,0,1-.1.3,5.6,5.6,0,0,0-1.6,1.4Zm126.8-.1h-.2a6.1,6.1,0,0,0-1.7-1.4.4.4,0,0,1-.1-.3h.4a8.6,8.6,0,0,1,1.7,1.5c.1.1.1.3,0,.3Zm-123.1-2.5H204c-.1-.1-.1-.3.1-.3l2.1-1c.1,0,.3,0,.3.1a.2.2,0,0,1-.1.3l-2.1.9Zm119.3-.1h-.1l-2.1-.9c-.1-.1-.2-.2-.1-.3a.2.2,0,0,1,.3-.1l2.1.9c.2.1.2.2.1.3S323.6,280.3,323.5,280.3Zm-115-1.6a.2.2,0,0,1-.2-.2.4.4,0,0,1,.1-.3l2.3-.7.3.2c0,.1,0,.2-.2.3l-2.2.6Zm110.7-.1h-.1l-2.3-.7a.2.2,0,0,1-.1-.3c0-.1.2-.1.3-.1l2.2.7c.2,0,.2.1.2.3Zm-106.1-1.2-.3-.2.2-.3,2.3-.5c.1,0,.3,0,.3.1s-.1.3-.2.3l-2.3.5Zm101.5-.1h0l-2.3-.5c-.2-.1-.2-.2-.2-.3s.2-.2.3-.2l2.3.6c.1,0,.2.1.2.3Zm-96.9-1h-.3c0-.2.1-.3.2-.3l2.4-.4c.1-.1.2,0,.2.1s0,.2-.1.3l-2.4.4Zm92.3,0h-.1l-2.3-.5-.2-.2.3-.2,2.4.5c.1,0,.2.1.1.2A.2.2,0,0,1,310,276.3Zm-87.7-.8a.2.2,0,0,1-.2-.2c0-.1.1-.2.2-.3l2.4-.3c.1,0,.2,0,.2.2s0,.2-.2.2l-2.3.4Zm83-.1h0l-2.4-.3a.2.2,0,0,1-.1-.3c0-.1.1-.2.2-.1l2.4.3c.1,0,.2.2.2.3Zm-78.3-.6-.2-.2c0-.1.1-.2.2-.3l2.4-.3a.2.2,0,0,1,.2.2c.1.1,0,.2-.2.3l-2.3.3Zm73.6-.1h0l-2.4-.3a.2.2,0,0,1-.2-.2l.3-.2,2.4.3c.1,0,.2.1.2.3Zm-68.8-.5c-.2,0-.3-.1-.3-.2a.2.2,0,0,1,.2-.2l2.4-.3.3.2a.2.2,0,0,1-.2.2l-2.4.3Zm64.1,0h0l-2.4-.3a.2.2,0,0,1-.2-.2c0-.1.1-.2.3-.2l2.3.2q.3.2.3.3Zm-59.4-.5a.2.2,0,0,1-.2-.2c-.1-.1,0-.2.2-.2l2.3-.2c.2,0,.3,0,.3.2a.2.2,0,0,1-.2.2l-2.4.2Zm54.7,0h0l-2.4-.2a.2.2,0,0,1-.2-.2c0-.2.1-.3.2-.2l2.4.2a.2.2,0,0,1,0,.4Zm-50-.4-.2-.2a.2.2,0,0,1,.2-.2l2.4-.2.2.2c.1.1,0,.2-.2.3h-2.4Zm45.2,0h0l-2.4-.2a.2.2,0,0,1-.2-.2l.3-.2,2.4.2a.2.2,0,0,1,.2.2C286.7,273.2,286.6,273.3,286.4,273.3ZM246,273l-.3-.2c0-.1.1-.2.3-.2h2.4c.1-.1.2,0,.2.2a.2.2,0,0,1-.2.2Zm35.7,0h-2.4a.2.2,0,0,1-.2-.2c0-.2.1-.2.2-.2h2.4a.2.2,0,0,1,0,.4Zm-31-.2-.2-.2a.2.2,0,0,1,.2-.2h2.4c.1,0,.3.1.3.2s-.1.2-.3.2h-2.4Zm26.2,0h-2.4a.2.2,0,0,1-.2-.2c0-.1.1-.2.3-.2h2.3q.3.1.3.3C277.2,272.7,277.1,272.8,276.9,272.8Zm-21.4-.2a.2.2,0,0,1-.2-.2l.2-.2h2.4c.1,0,.2.1.2.3a.2.2,0,0,1-.2.2Zm16.7,0h-2.4c-.1,0-.3-.1-.3-.2s.2-.3.3-.3h2.4a.2.2,0,0,1,0,.4Zm-11.9-.1c-.2,0-.3-.1-.3-.2s.1-.2.3-.2h2.3c.2,0,.3.1.3.2s-.1.2-.3.2Zm7.1,0H265a.2.2,0,1,1,0-.4h2.4a.2.2,0,0,1,0,.4Z"/><ellipse class="h" cx="263.9" cy="284.7" rx="59" ry="10.3"/><path class="j" d="M206.1,286.8c5.5-4.7,29.3-8.2,57.8-8.2s52.3,3.5,57.8,8.2a2.9,2.9,0,0,0,1.2-2.1c0-5.7-26.4-10.3-59-10.3s-59,4.6-59,10.3A2.9,2.9,0,0,0,206.1,286.8Z"/><path class="j" d="M244.9,290.1a11.3,11.3,0,0,1-5.1-2h-3.3a15.8,15.8,0,0,1-3.4-.3c-.8-.2-1.3-.4-1.3-.7s.5-.5,1.3-.7a15.8,15.8,0,0,1,3.4-.3h3.1c.6-1,2.1-1.9,4.4-2.6a4.7,4.7,0,0,1,1.7-.3h2.5a18.3,18.3,0,0,1,3.5.2c1,.2,1.5.3,1.5.6s-.1.2-.2.3l-1.1.4a9.6,9.6,0,0,0-2.3,1.2,1.4,1.4,0,0,0-.6,1.1c0,.5.3.8,1.1,1.1a14.9,14.9,0,0,0,3.6.4,8.3,8.3,0,0,0,2.4-.3,3.8,3.8,0,0,0,1.4-.5l1.4-1a10.6,10.6,0,0,1,2.6-1.7,23.6,23.6,0,0,1,4.1-1.2,68,68,0,0,1,17.1.3c2.7.6,4.4,1.2,5.3,2.1h3.4a14.8,14.8,0,0,1,3.3.3c.9.1,1.4.4,1.4.6s-.5.6-1.3.7a15.8,15.8,0,0,1-3.4.3h-3.2c-.6.8-2,1.5-4.3,2.3l-1.8.3h-2.4l-3.6-.2c-.9-.2-1.4-.4-1.4-.6s0-.2.2-.3l1-.5,1.2-.4,1.3-.7c.4-.3.5-.5.5-.8s-.4-.8-1.3-1a11.9,11.9,0,0,0-3.6-.4,8.9,8.9,0,0,0-3.2.4,9,9,0,0,0-2.2,1.4,11.8,11.8,0,0,1-2.4,1.7,17.5,17.5,0,0,1-4.2,1.1,57.3,57.3,0,0,1-17.1-.3Z"/><path class="j" d="M319.4,293.4v12.8l1.4-.3V293.1Z"/><path class="j" d="M305.4,296.2V309l1.3-.2V296Z"/><path class="j" d="M291.3,297.8v12.8h1.4V297.7Z"/><path class="j" d="M277.3,298.7v12.8h1.4V298.7Z"/><path class="j" d="M263.9,299h-.7v12.8h1.4V299Z"/><path class="j" d="M249.2,298.7v12.8h1.4V298.7Z"/><path class="j" d="M235.1,297.7v12.8h1.4V297.8Z"/><path class="j" d="M221.1,296v12.8l1.4.2V296.2Z"/><path class="j" d="M207.1,293.1v12.8l1.3.3V293.4Z"/><path class="h" d="M186.3,284.6c0,7.9,31.4,14.3,70.2,14.3s70.2-6.4,70.2-14.3V271.8H186.3Z"/><ellipse class="i" cx="256.5" cy="271.8" rx="70.2" ry="14.3"/><path class="j" d="M256.5,284.5h-1.2c-.1,0-.2-.1-.2-.3a.2.2,0,0,1,.2-.2h2.4l.3.2c0,.2-.2.2-.3.3Zm-3.5-.1h-2.4c-.2,0-.3-.1-.3-.2s.1-.2.3-.2H253a.2.2,0,1,1,0,.4Zm7.1,0a.2.2,0,0,1,0-.4h2.4a.2.2,0,1,1,0,.4Zm-11.9,0h-2.4a.2.2,0,0,1-.2-.2c0-.2.1-.3.2-.2h2.4a.2.2,0,0,1,.2.2C248.4,284.3,248.3,284.4,248.2,284.4Zm16.7-.1c-.2,0-.3,0-.3-.2a.2.2,0,0,1,.2-.2h2.4c.2,0,.3,0,.3.2s-.1.2-.3.2Zm-21.5-.1H241a.2.2,0,0,1-.2-.2c0-.1.1-.2.3-.2h2.3c.2,0,.3.1.3.2S243.6,284.2,243.4,284.2Zm26.2,0a.2.2,0,1,1,0-.4H272c.1-.1.2,0,.2.2a.2.2,0,0,1-.2.2Zm-30.9-.2h0l-2.4-.2c-.2,0-.3-.1-.2-.2a.2.2,0,0,1,.2-.2h2.4c.1.1.2.2.2.3A.2.2,0,0,1,238.7,284Zm35.7,0c-.2,0-.3-.1-.3-.2a.3.3,0,0,1,.3-.3h2.3c.2,0,.3.1.3.2l-.2.2-2.4.2Zm-40.5-.3h0l-2.4-.2c-.1,0-.2-.1-.2-.3s.1-.2.3-.1h2.3a.3.3,0,0,1,.3.3C234.2,283.6,234,283.7,233.9,283.7Zm45.2,0a.2.2,0,0,1-.2-.2c0-.2.1-.3.2-.3h2.4c.1-.1.2,0,.2.1s-.1.3-.2.3l-2.4.2Zm-49.9-.4h0l-2.4-.2-.2-.3a.2.2,0,0,1,.2-.2l2.4.3a.2.2,0,0,1,0,.4Zm54.7,0c-.2,0-.3-.1-.3-.2s.1-.2.2-.3l2.4-.2c.2,0,.3.1.3.2l-.2.2-2.4.3Zm-59.5-.5h0l-2.3-.3c-.2,0-.3-.1-.3-.2l.3-.2,2.4.3a.2.2,0,0,1,.2.2C224.7,282.7,224.6,282.8,224.4,282.8Zm64.2,0-.2-.2c-.1-.1,0-.2.2-.2l2.3-.3c.2,0,.3.1.3.2a.2.2,0,0,1-.2.2l-2.4.3Zm-68.9-.6h0l-2.4-.3c-.1,0-.2-.1-.2-.3s.2-.2.3-.1l2.4.3a.2.2,0,0,1,.2.2Zm73.6,0a.2.2,0,0,1,0-.4l2.3-.3c.2-.1.3,0,.3.1s-.1.3-.2.3l-2.3.3Zm-78.3-.7h0l-2.4-.4c-.1,0-.2-.1-.1-.2s.1-.2.2-.2l2.4.4a.2.2,0,0,1,.2.2Zm83,0a.2.2,0,0,1-.2-.2c0-.1,0-.2.2-.2l2.3-.4c.1,0,.3,0,.3.2a.2.2,0,0,1-.2.2l-2.3.4Zm-87.6-.8h-.1l-2.3-.5c-.1,0-.2-.2-.2-.3a.2.2,0,0,1,.3-.1l2.3.5a.2.2,0,0,1,0,.4Zm92.3,0a.2.2,0,0,1-.2-.2c-.1-.1,0-.2.1-.3l2.3-.4c.2-.1.3,0,.3.1s0,.2-.1.3l-2.4.5Zm-97-1.1h0l-2.3-.6-.2-.2.3-.2,2.3.6c.1.1.2.2.2.3Zm101.6,0c-.1,0-.2,0-.2-.1a.2.2,0,0,1,.1-.3l2.3-.6h.3c.1.2,0,.3-.1.3l-2.3.6Zm-106.1-1.2h-.1l-2.2-.7c-.1-.1-.2-.2-.1-.3a.2.2,0,0,1,.3-.1l2.2.7c.1.1.2.2.1.3A.2.2,0,0,1,201.2,278.4Zm110.6-.1h-.2c0-.1,0-.2.2-.3l2.2-.8c.1,0,.2,0,.3.2s0,.2-.1.2l-2.3.8Zm-115-1.7h-.1l-2-1.1a.4.4,0,0,1-.1-.3h.4a7.5,7.5,0,0,0,2,1.1.4.4,0,0,1,.1.3Zm119.4,0c-.1,0-.2,0-.2-.1s0-.2.1-.3l2-1.1a.2.2,0,0,1,.3,0c.1.1.1.3-.1.3a11.7,11.7,0,0,1-2,1.2Zm-123.1-2.5h-.2a3.7,3.7,0,0,1-.8-2.1.2.2,0,0,1,.2-.2h0l.2.2a3.6,3.6,0,0,0,.8,1.8.2.2,0,0,1,0,.3Zm126.8-.1h-.1c-.2-.1-.2-.2-.1-.3a2.8,2.8,0,0,0,.7-1.9h0a.3.3,0,0,1,.3-.3h0a.2.2,0,0,1,.2.2v.2a3.7,3.7,0,0,1-.8,2Zm-126.8-3.8h-.2a.2.2,0,0,1,0-.3,8.6,8.6,0,0,1,1.7-1.5.2.2,0,0,1,.3,0c.1.1.1.3,0,.3a5.9,5.9,0,0,0-1.6,1.5Zm126.7-.2h-.2a12.2,12.2,0,0,0-1.6-1.4.2.2,0,0,1-.1-.3h.4a8.6,8.6,0,0,1,1.7,1.5.2.2,0,0,1,0,.3Zm-123.1-2.5h-.2a.4.4,0,0,1,.1-.3l2.2-.9c.1-.1.2,0,.3.1a.4.4,0,0,1-.1.3l-2.1.9Zm119.4,0H316l-2.1-.9c-.2,0-.2-.2-.2-.3h.3l2.2,1c.1,0,.2.1.1.2Zm-115-1.7h-.2a.2.2,0,0,1,.1-.3l2.3-.7h.3c0,.1-.1.3-.2.3l-2.2.7Zm110.6-.1h0l-2.3-.6-.2-.3.3-.2,2.3.7c.1.1.2.2.2.3Zm-106.1-1.2a.2.2,0,0,1-.2-.2c0-.1,0-.2.2-.2l2.3-.6.3.2c0,.1-.1.2-.2.3l-2.3.5Zm101.6,0h-.1l-2.3-.6c-.1,0-.2-.1-.1-.2s.1-.2.2-.2l2.4.5c.1.1.2.2.1.3A.2.2,0,0,1,307.2,264.5Zm-97-1a.2.2,0,0,1-.2-.2c0-.1.1-.2.2-.3l2.3-.4c.2,0,.3.1.3.2l-.2.2-2.3.5Zm92.4-.1h-.1l-2.3-.4c-.1,0-.2-.1-.2-.3a.2.2,0,0,1,.3-.1l2.3.4c.1,0,.2.2.2.3Zm-87.7-.8a.2.2,0,0,1-.2-.2c0-.1,0-.2.2-.2l2.3-.4c.1,0,.3.1.3.2s-.1.2-.2.3l-2.3.3Zm83,0h0l-2.4-.4a.2.2,0,0,1-.2-.2c0-.1.2-.2.3-.2l2.3.4c.2,0,.3.1.2.2A.2.2,0,0,1,297.9,262.6Zm-78.3-.7a.2.2,0,0,1-.2-.2c0-.1,0-.2.2-.2l2.3-.3c.2,0,.3.1.3.2a.2.2,0,0,1-.2.2l-2.4.3Zm73.6,0h0l-2.4-.3c-.1,0-.2-.1-.2-.3s.1-.2.3-.1l2.3.3c.2,0,.3.1.2.2A.2.2,0,0,1,293.2,261.9Zm-68.9-.6c-.1,0-.2,0-.2-.2a.2.2,0,0,1,.2-.2l2.4-.2c.1-.1.2,0,.2.1s0,.3-.2.3l-2.3.2Zm64.2,0h0l-2.4-.2c-.1,0-.2-.2-.2-.3a.2.2,0,0,1,.2-.2l2.4.3a.2.2,0,0,1,0,.4Zm-59.4-.4c-.2,0-.3-.1-.3-.2s.1-.3.2-.3l2.4-.2.3.2a.2.2,0,0,1-.2.2l-2.4.3Zm54.7-.1h-.1l-2.3-.2c-.2,0-.3-.1-.3-.2l.3-.2,2.4.2a.2.2,0,0,1,.2.2C284,260.8,283.9,260.8,283.8,260.8Zm-50-.3a.2.2,0,0,1-.2-.2c0-.1.1-.2.2-.3h2.4a.2.2,0,0,1,0,.4l-2.4.2Zm45.2,0h0l-2.4-.2-.2-.2c0-.2.1-.2.2-.2H279c.2,0,.3.1.2.3A.2.2,0,0,1,279,260.5Zm-40.4-.3c-.2,0-.3-.1-.3-.2s.1-.3.2-.3h2.4c.2,0,.3.1.3.2s-.1.2-.3.2l-2.3.2Zm35.7,0h-2.4c-.2,0-.3-.1-.3-.2s.2-.2.3-.2h2.4c.1,0,.2.1.2.3A.2.2,0,0,1,274.3,260.2Zm-31-.3a.2.2,0,1,1,0-.4h2.4a.2.2,0,0,1,0,.4Zm26.2,0h-2.4l-.2-.2a.2.2,0,0,1,.2-.2h2.4a.2.2,0,1,1,0,.4Zm-21.4-.1c-.2,0-.3-.1-.3-.2s.1-.2.3-.3h2.4a.2.2,0,0,1,0,.4Zm16.6,0h-2.3c-.2,0-.3-.1-.3-.2s.1-.2.3-.2h2.3a.3.3,0,0,1,.3.3C265,259.7,264.9,259.8,264.7,259.8Zm-11.9-.1a.2.2,0,0,1,0-.4h2.4a.3.3,0,0,1,.3.3c0,.1-.2.2-.3.2Zm7.2,0h-2.4a.2.2,0,0,1-.2-.2c0-.2.1-.3.2-.3H260a.2.2,0,0,1,0,.4Z"/><ellipse class="h" cx="256.5" cy="271.8" rx="59" ry="10.3"/><path class="j" d="M198.7,273.9c5.5-4.7,29.3-8.2,57.8-8.2s52.3,3.5,57.8,8.2a2.6,2.6,0,0,0,1.2-2.1c0-5.6-26.4-10.2-59-10.2s-59,4.6-59,10.2A2.6,2.6,0,0,0,198.7,273.9Z"/><path class="j" d="M237.5,277.3q-3.9-.7-5.1-2.1h-3.3l-3.4-.2c-.9-.2-1.3-.5-1.3-.7s.4-.6,1.3-.7a15.2,15.2,0,0,1,3.4-.3h3c.7-1,2.1-1.9,4.5-2.6l1.7-.4h2.5l3.5.2q1.5.3,1.5.6c0,.1-.1.2-.3.4l-1,.4a12.5,12.5,0,0,0-2.3,1.1c-.5.4-.7.7-.7,1.1s.4.9,1.2,1.1a11.1,11.1,0,0,0,3.6.4,7.9,7.9,0,0,0,2.3-.2,5.2,5.2,0,0,0,1.5-.6,5,5,0,0,0,1.3-1l2.7-1.7a16.5,16.5,0,0,1,4.1-1.1,49.5,49.5,0,0,1,7.6-.5,50.7,50.7,0,0,1,9.4.8c2.7.5,4.5,1.2,5.3,2h3.4a15.8,15.8,0,0,1,3.4.3c.9.2,1.3.4,1.3.7s-.4.5-1.3.7a14.6,14.6,0,0,1-3.4.3h-3.1a10.3,10.3,0,0,1-4.3,2.2l-1.8.4h-2.4a18.6,18.6,0,0,1-3.6-.3c-1-.2-1.5-.3-1.5-.6s.1-.2.3-.3l1-.4,1.1-.5a3.7,3.7,0,0,0,1.4-.7,1,1,0,0,0,.5-.8c0-.4-.4-.7-1.3-1a16.3,16.3,0,0,0-3.6-.4,9.5,9.5,0,0,0-3.3.5,6.4,6.4,0,0,0-2.1,1.4,13.2,13.2,0,0,1-2.5,1.6,11.9,11.9,0,0,1-4.1,1.2,51,51,0,0,1-7.7.5A49.9,49.9,0,0,1,237.5,277.3Z"/><path class="j" d="M312,280.6v12.8l1.4-.4V280.2Z"/><path class="j" d="M297.9,283.4v12.8l1.4-.2V283.2Z"/><path class="j" d="M283.9,285v12.8h1.4V284.9Z"/><path class="j" d="M269.8,285.9v12.8h1.4V285.8Z"/><path class="j" d="M256.5,286.1h-.7v12.8h1.4V286.1Z"/><path class="j" d="M241.8,285.8v12.8h1.3V285.9Z"/><path class="j" d="M227.7,284.9v12.8h1.4V285Z"/><path class="j" d="M213.7,283.2V296l1.4.2V283.4Z"/><path class="j" d="M199.6,280.2V293l1.4.4V280.6Z"/><path class="h" d="M196,270.7c0,7.8,31.4,14.2,70.2,14.2s70.2-6.4,70.2-14.2V257.9H196Z"/><ellipse class="i" cx="266.2" cy="257.9" rx="70.2" ry="14.3"/><path class="j" d="M266.2,270.5H265c-.1,0-.2-.1-.2-.3a.2.2,0,0,1,.2-.2h2.4a.2.2,0,0,1,.2.2c0,.2-.1.3-.2.3Zm-3.6-.1h-2.3c-.2,0-.3-.1-.3-.2s.1-.2.3-.2h2.3c.2,0,.3.1.3.2S262.8,270.4,262.6,270.4Zm7.2,0-.3-.2.3-.2h2.4a.2.2,0,0,1,0,.4Zm-11.9,0h-2.4l-.2-.2c0-.1.1-.3.2-.2h2.4c.1,0,.2.1.2.3A.2.2,0,0,1,257.9,270.4Zm16.7,0c-.2,0-.3-.1-.3-.2s.1-.3.2-.3h2.4c.2,0,.3.1.3.2s-.1.2-.3.2Zm-21.5-.2h-2.4a.2.2,0,0,1-.2-.2l.2-.2h2.4c.2,0,.3.1.3.2S253.3,270.2,253.1,270.2Zm26.2,0a.2.2,0,0,1,0-.4h2.4a.2.2,0,0,1,0,.4Zm-30.9-.2h0l-2.4-.2c-.2,0-.3-.1-.2-.2a.2.2,0,0,1,.2-.2l2.4.2a.2.2,0,1,1,0,.4Zm35.7,0c-.2,0-.3-.1-.3-.2s.1-.2.3-.3h2.3c.2,0,.3.1.3.2a.2.2,0,0,1-.2.2l-2.4.2Zm-40.5-.3h0l-2.4-.2a.2.2,0,0,1-.2-.2c0-.2.1-.2.3-.2h2.3q.3.2.3.3Zm45.2,0a.2.2,0,0,1-.2-.2c0-.1.1-.2.2-.3h2.4c.1,0,.2,0,.2.2a.2.2,0,0,1-.2.2l-2.4.2Zm-49.9-.4h-.1l-2.3-.2c-.2-.1-.2-.2-.2-.3a.2.2,0,0,1,.2-.2l2.4.3a.2.2,0,0,1,.2.2Zm54.7,0c-.2,0-.3-.1-.3-.2a.2.2,0,0,1,.2-.2l2.4-.3c.1,0,.3.1.3.2l-.2.3-2.4.2Zm-59.5-.5h0l-2.4-.3a.2.2,0,0,1-.2-.2l.3-.2,2.4.3a.2.2,0,0,1,.2.2C234.4,268.7,234.3,268.8,234.1,268.8Zm64.2,0a.2.2,0,0,1-.2-.2c-.1-.1,0-.2.2-.2l2.3-.3c.1,0,.3.1.3.2a.2.2,0,0,1-.2.2l-2.4.3Zm-68.9-.6h0l-2.4-.3c-.1,0-.2-.1-.2-.3h.3l2.4.3a.2.2,0,0,1,.2.2C229.6,268.2,229.5,268.2,229.4,268.2Zm73.6,0a.2.2,0,0,1-.2-.2c0-.1,0-.2.2-.2l2.3-.3c.2-.1.3,0,.3.1s-.1.3-.2.3l-2.4.3Zm-78.3-.7h0l-2.4-.4a.2.2,0,0,1-.2-.2l.3-.2,2.4.4c.1,0,.2.1.2.3Zm83,0c-.1,0-.2,0-.2-.2s0-.2.2-.2l2.3-.4c.1,0,.3,0,.3.2a.2.2,0,0,1-.2.2l-2.3.4Zm-87.6-.8H220l-2.3-.5c-.1,0-.2-.2-.2-.3a.2.2,0,0,1,.3-.1l2.3.5a.2.2,0,1,1,0,.4Zm92.3,0-.3-.2a.2.2,0,0,1,.2-.2l2.3-.5c.2-.1.3,0,.3.1a.2.2,0,0,1-.1.3l-2.4.5Zm-97-1h0a8.6,8.6,0,0,1-2.3-.6.2.2,0,0,1-.2-.2l.3-.2,2.3.6c.1.1.2.2.2.3Zm101.6-.1c-.1,0-.2,0-.2-.1s0-.2.1-.3l2.3-.6c.1,0,.3,0,.3.2s0,.2-.1.2l-2.3.6Zm-106.1-1.2h-.1l-2.2-.8c-.1-.1-.2-.2-.1-.3a.2.2,0,0,1,.3-.1l2.2.8c.1,0,.2.1.1.2A.2.2,0,0,1,210.9,264.4Zm110.6-.1c-.1,0-.2,0-.2-.1s0-.2.2-.3l2.2-.7c.1-.1.2,0,.3.1s0,.2-.2.2l-2.2.8Zm-115-1.6h-.1l-2-1.1a.4.4,0,0,1-.1-.3h.4l2,1.2c.1,0,.1.1,0,.2A.2.2,0,0,1,206.5,262.7Zm119.4-.1c-.1,0-.2,0-.2-.1s0-.2.1-.3l2-1.1c.1-.1.2,0,.3,0a.2.2,0,0,1-.1.3,11.7,11.7,0,0,1-2,1.2Zm-123.1-2.5h-.2a3.7,3.7,0,0,1-.8-2.1l.2-.2h0l.2.2a2.9,2.9,0,0,0,.8,1.8.2.2,0,0,1,0,.3Zm126.8-.1h-.2a.2.2,0,0,1,0-.3,2.7,2.7,0,0,0,.7-1.8h0c0-.2.1-.2.3-.3h0c.1,0,.2.1.2.3h0a3.2,3.2,0,0,1-.8,2Zm-126.9-3.8h-.1c-.1,0-.1-.2,0-.3a8.6,8.6,0,0,1,1.7-1.5.2.2,0,0,1,.3,0c.1.1.1.3,0,.3a8.6,8.6,0,0,0-1.7,1.5Zm126.8-.2h-.2a7.8,7.8,0,0,0-1.6-1.5.2.2,0,0,1-.1-.3h.3a7.1,7.1,0,0,1,1.8,1.5.2.2,0,0,1,0,.3Zm-123.1-2.5h-.2a.4.4,0,0,1,.1-.3l2.2-.9c.1-.1.2,0,.3.1a.4.4,0,0,1-.1.3l-2.2.9Zm119.4,0h-.1l-2.2-.9c-.1,0-.1-.1-.1-.3h.3l2.2,1c.1,0,.2.1.1.2Zm-115-1.7c-.1,0-.2,0-.2-.1a.2.2,0,0,1,.1-.3l2.3-.7h.3c0,.2-.1.3-.2.3l-2.2.7Zm110.6,0h-.1l-2.2-.6-.2-.3c.1-.1.2-.2.3-.1l2.3.6.2.3Zm-106.1-1.3h-.2c0-.2,0-.3.2-.3l2.3-.6.3.2c0,.1-.1.2-.2.3l-2.3.5Zm101.6,0h-.1l-2.3-.6a.2.2,0,0,1-.2-.2l.3-.2,2.3.6c.2,0,.3.1.2.2Zm-97-1-.2-.2a.2.2,0,0,1,.2-.2l2.3-.5c.2,0,.3.1.3.2l-.2.2-2.3.5Zm92.4-.1h-.1l-2.3-.4c-.1,0-.2-.1-.2-.3h.3l2.3.4c.1,0,.2.2.2.3Zm-87.7-.8h-.2c-.1-.2,0-.3.2-.3l2.3-.4.3.2-.2.3-2.4.3Zm83,0h0l-2.4-.4-.2-.2.3-.2,2.3.4c.2,0,.3.1.2.2Zm-78.3-.7c-.1,0-.2,0-.2-.2s0-.2.2-.2l2.3-.3c.2,0,.3.1.3.2l-.2.2-2.4.3Zm73.6,0h0l-2.4-.3a.2.2,0,0,1-.2-.2c0-.2.1-.2.3-.2l2.3.3c.2,0,.3.1.2.2A.2.2,0,0,1,302.9,247.9Zm-68.9-.6c-.1,0-.2,0-.2-.1s.1-.3.2-.3l2.4-.2c.1,0,.2,0,.2.2l-.2.2-2.3.2Zm64.2,0h-.1l-2.3-.2c-.1,0-.2-.1-.2-.3a.2.2,0,0,1,.2-.2l2.4.3a.2.2,0,0,1,0,.4Zm-59.4-.4c-.2,0-.3-.1-.3-.2l.2-.3,2.4-.2.3.2-.3.3-2.3.2Zm54.6,0h0l-2.3-.2c-.2,0-.3-.1-.3-.2l.3-.2,2.4.2c.1,0,.2.1.2.3S293.6,246.9,293.4,246.9Zm-49.9-.4-.2-.2c0-.1,0-.2.2-.2l2.4-.2.2.2a.2.2,0,0,1-.2.2l-2.4.2Zm45.2,0h0l-2.4-.2a.2.2,0,1,1,0-.4h2.4c.1,0,.2.1.2.3A.2.2,0,0,1,288.7,246.5Zm-40.4-.3c-.2,0-.3-.1-.3-.2l.2-.3h2.4c.2,0,.3.1.3.2s-.1.2-.3.2l-2.3.2Zm35.6,0h0l-2.3-.2c-.2,0-.3-.1-.3-.2s.1-.2.3-.2H284c.1,0,.2.1.2.3S284.1,246.2,283.9,246.2Zm-30.9-.3c-.1,0-.2,0-.2-.2l.2-.2h2.4l.2.2c0,.2-.1.3-.2.3Zm26.2,0h-2.4a.2.2,0,1,1,0-.4h2.4a.2.2,0,0,1,0,.4Zm-21.4-.1c-.2,0-.3-.1-.3-.2s.1-.2.3-.2h2.3c.2,0,.3.1.3.2a.2.2,0,0,1-.2.2Zm16.6,0H272a.2.2,0,0,1-.2-.2c0-.1.1-.2.3-.2h2.3c.2,0,.3.1.3.2S274.6,245.8,274.4,245.8Zm-11.9-.1a.2.2,0,0,1,0-.4h2.4c.1,0,.2,0,.2.2l-.2.2Zm7.2,0h-2.4a.2.2,0,0,1,0-.4h2.4a.2.2,0,0,1,0,.4Z"/><ellipse class="h" cx="266.2" cy="257.9" rx="59" ry="10.3"/><path class="j" d="M208.4,259.9c5.5-4.6,29.3-8.2,57.8-8.2s52.3,3.6,57.8,8.2a2.6,2.6,0,0,0,1.2-2c0-5.7-26.4-10.3-59-10.3s-59,4.6-59,10.3A2.6,2.6,0,0,0,208.4,259.9Z"/><path class="j" d="M247.2,263.3q-3.9-.7-5.1-2.1h-3.3l-3.4-.2c-.9-.2-1.3-.4-1.3-.7s.4-.6,1.3-.7a15.2,15.2,0,0,1,3.4-.3h3c.7-1,2.1-1.9,4.5-2.6l1.7-.4h2.5a18.3,18.3,0,0,1,3.5.3c1,.1,1.5.3,1.5.5a.5.5,0,0,1-.3.4l-1,.4a9.9,9.9,0,0,0-2.3,1.1c-.5.4-.7.7-.7,1.1s.4.9,1.2,1.2a16,16,0,0,0,3.6.3,7.9,7.9,0,0,0,2.3-.2,3.4,3.4,0,0,0,1.5-.6l1.3-.9a13.4,13.4,0,0,1,2.7-1.7,11.9,11.9,0,0,1,4.1-1.2,49.5,49.5,0,0,1,7.6-.5,50.7,50.7,0,0,1,9.4.8c2.7.5,4.5,1.2,5.3,2h3.4a15.8,15.8,0,0,1,3.4.3c.9.2,1.3.4,1.3.7s-.4.5-1.3.7a15.2,15.2,0,0,1-3.4.3h-3.2c-.5.7-2,1.5-4.2,2.2l-1.8.4h-2.5a18.3,18.3,0,0,1-3.5-.3q-1.5-.2-1.5-.6t.3-.3l1-.4,1.1-.4a5.8,5.8,0,0,0,1.4-.8,1,1,0,0,0,.5-.8c0-.4-.4-.7-1.3-1a16.3,16.3,0,0,0-3.6-.4,9.5,9.5,0,0,0-3.3.5,6.4,6.4,0,0,0-2.1,1.4,13.8,13.8,0,0,1-2.5,1.7,15.3,15.3,0,0,1-4.1,1.1,51,51,0,0,1-7.7.5A49.9,49.9,0,0,1,247.2,263.3Z"/><path class="j" d="M321.7,266.6v12.8l1.3-.4V266.2Z"/><path class="j" d="M307.6,269.4v12.8l1.4-.2V269.2Z"/><path class="j" d="M293.6,271v12.8H295V270.9Z"/><path class="j" d="M279.5,271.9v12.8h1.4V271.8Z"/><path class="j" d="M266.2,272.1h-.7v12.8h1.4V272.1Z"/><path class="j" d="M251.4,271.8v12.8h1.4V271.9Z"/><path class="j" d="M237.4,270.9v12.8h1.4V271Z"/><path class="j" d="M223.4,269.2V282l1.4.2V269.4Z"/><path class="j" d="M209.3,266.2V279l1.4.4V266.6Z"/><path class="k" d="M185.6,257.7c0,7.9,31.4,14.3,70.2,14.3s70.2-6.4,70.2-14.3V244.9H185.6Z"/><ellipse class="i" cx="255.8" cy="244.9" rx="70.2" ry="14.3"/><path class="j" d="M255.8,257.5h-1.2a.2.2,0,1,1,0-.4H257c.2,0,.3.1.3.2s-.1.2-.3.2Zm-3.5,0h-2.4c-.2,0-.3-.1-.3-.2a.3.3,0,0,1,.3-.3h2.4a.2.2,0,0,1,0,.4Zm7.1,0-.2-.2a.2.2,0,0,1,.2-.2h2.4l.2.2c0,.2-.1.3-.2.3Zm-11.9-.1h-2.4l-.2-.2a.2.2,0,0,1,.2-.2h2.4a.2.2,0,1,1,0,.4Zm16.7,0c-.2,0-.3-.1-.3-.2s.1-.2.3-.2h2.3c.2,0,.3.1.3.2l-.2.2Zm-21.5-.1h-2.4c-.1,0-.2-.1-.2-.3s.1-.2.3-.2h2.3a.3.3,0,0,1,.3.3C243,257.2,242.9,257.3,242.7,257.3Zm26.2,0-.2-.2c0-.2.1-.3.2-.3h2.4l.2.2c0,.2-.1.3-.2.3ZM238,257h-2.4a.2.2,0,0,1-.2-.2c0-.2.1-.3.2-.2H238a.2.2,0,0,1,.2.2C238.2,257,238.1,257,238,257Zm35.7,0-.3-.2c0-.1.1-.2.3-.2H276c.2-.1.3,0,.3.2a.2.2,0,0,1-.2.2Zm-40.5-.3h0l-2.4-.2a.2.2,0,0,1-.2-.2c0-.1.1-.2.3-.2l2.3.2c.2,0,.3.1.3.2S233.4,256.7,233.2,256.7Zm45.2,0a.2.2,0,0,1,0-.4l2.4-.2a.2.2,0,0,1,.2.2c.1.1,0,.2-.2.2l-2.4.2Zm-49.9-.4h0l-2.4-.2a.2.2,0,0,1,0-.4l2.4.2c.1,0,.2.1.2.3S228.6,256.3,228.5,256.3Zm54.7,0c-.1,0-.3,0-.3-.2a.2.2,0,0,1,.2-.2l2.4-.2c.2,0,.3.1.3.2l-.2.2-2.4.2Zm-59.4-.4h-.1l-2.3-.3c-.2,0-.3-.1-.2-.2s.1-.2.2-.2l2.4.2.2.3A.2.2,0,0,1,223.8,255.9Zm64.1,0a.2.2,0,0,1-.2-.2c0-.1,0-.2.2-.3l2.3-.2c.2-.1.3,0,.3.1s-.1.3-.2.3l-2.4.3Zm-68.9-.6h0l-2.4-.3c-.1-.1-.2-.2-.2-.3l.3-.2,2.4.4.2.2Zm73.6,0a.2.2,0,0,1-.2-.2l.2-.2,2.3-.4c.2,0,.3.1.3.2a.2.2,0,0,1-.2.2l-2.3.4Zm-78.3-.7h0l-2.4-.4a.2.2,0,0,1-.1-.3c0-.1.1-.2.2-.1l2.4.4a.2.2,0,0,1,.2.2Zm83,0a.2.2,0,0,1-.2-.2c0-.1,0-.2.2-.2l2.3-.4a.2.2,0,0,1,.3.1l-.2.3-2.3.4Zm-87.6-.9h-.1l-2.3-.4-.2-.3.3-.2,2.3.5c.1,0,.2.2.2.3Zm92.3,0h-.2a.2.2,0,0,1,.1-.3l2.4-.5.2.2c.1.1,0,.2-.1.2l-2.4.5Zm-97-1h0l-2.3-.6c-.1,0-.2-.2-.2-.3h.3l2.3.6c.1,0,.2.1.2.3Zm101.6,0-.2-.2c-.1-.1,0-.2.1-.2l2.3-.6c.2-.1.3,0,.3.1s0,.2-.1.3l-2.3.6Zm-106.1-1.3h-.1l-2.2-.8a.2.2,0,0,1-.1-.3c0-.1.2-.1.3-.1l2.2.8c.1.1.2.2.1.3Zm110.6,0h-.2c0-.1,0-.3.2-.3l2.2-.8h.3c0,.1,0,.3-.1.3l-2.3.8Zm-115-1.7H196l-2-1.2c-.1,0-.1-.2-.1-.3h.4a12,12,0,0,0,2,1.1.4.4,0,0,1,.1.3Zm119.4,0h-.2a.2.2,0,0,1,.1-.3l2-1.1h.3a.2.2,0,0,1,0,.3l-2.1,1.2Zm-123.1-2.6h-.2a3.2,3.2,0,0,1-.8-2l.2-.2h0c.1,0,.2,0,.2.2a3.6,3.6,0,0,0,.8,1.8.2.2,0,0,1,0,.3Zm126.8,0h-.1a.2.2,0,0,1-.1-.3,2.7,2.7,0,0,0,.7-1.8h0c0-.1.1-.2.3-.2h0a.2.2,0,0,1,.2.2h0a3.7,3.7,0,0,1-.8,2.1Zm-126.8-3.9h-.2a.2.2,0,0,1,0-.3,8.6,8.6,0,0,1,1.7-1.5h.3a.2.2,0,0,1,0,.3,7.9,7.9,0,0,0-1.6,1.4Zm126.7-.1h-.2a7.6,7.6,0,0,0-1.6-1.4c-.1-.1-.2-.2-.1-.3s.2-.1.4,0a6.3,6.3,0,0,1,1.7,1.5.2.2,0,0,1,0,.3ZM196,240.6h-.2c0-.1,0-.3.1-.3l2.2-1,.3.2c.1.1,0,.2-.1.2l-2.1,1Zm119.4-.1h-.1l-2.1-.9c-.2-.1-.2-.2-.2-.3s.2-.2.3-.1l2.2.9c.1.1.2.2.1.3Zm-115-1.6a.2.2,0,0,1-.2-.2c-.1-.1,0-.2.1-.2l2.3-.7c.1-.1.2,0,.3.1l-.2.3-2.2.7Zm110.6-.1h0l-2.3-.7c-.1,0-.2-.1-.1-.2s.1-.2.3-.2l2.2.7c.1,0,.2.2.2.3Zm-106.1-1.2-.2-.2c0-.1,0-.2.2-.2l2.3-.6c.1,0,.2,0,.3.2l-.2.2-2.3.6Zm101.6-.1h-.1l-2.3-.5a.2.2,0,0,1-.1-.3c0-.1.1-.2.3-.1l2.3.5a.2.2,0,0,1,.1.3Zm-97-1h-.2c0-.1.1-.3.2-.3l2.3-.4c.2-.1.3,0,.3.1s0,.3-.2.3l-2.3.4Zm92.4,0h-.1l-2.3-.4-.2-.3c0-.1.2-.2.3-.2l2.3.5c.2,0,.2.1.2.2Zm-87.7-.8-.2-.2c0-.1,0-.2.2-.2l2.3-.4c.2,0,.3.1.3.2l-.2.2-2.3.4Zm83,0h0l-2.4-.4c-.1,0-.2-.1-.2-.3h.3l2.3.3c.2.1.3.2.2.3A.2.2,0,0,1,297.2,235.7Zm-78.3-.7-.2-.2c0-.1,0-.2.2-.2l2.3-.3c.2-.1.3,0,.3.1s-.1.3-.2.3l-2.3.3Zm73.6,0h0l-2.4-.3-.2-.3c0-.1.1-.2.3-.2l2.3.3c.2.1.3.2.2.3A.2.2,0,0,1,292.5,235Zm-68.9-.6a.2.2,0,0,1-.2-.2l.2-.2,2.4-.3a.2.2,0,0,1,.2.2c.1.1,0,.2-.2.3l-2.3.2Zm64.2,0h0l-2.4-.3-.2-.2.2-.2,2.4.3.2.2A.2.2,0,0,1,287.8,234.4Zm-59.4-.5c-.2,0-.3-.1-.3-.2a.2.2,0,0,1,.2-.2l2.4-.2c.2,0,.3.1.3.2l-.2.2-2.4.2Zm54.7,0H283l-2.3-.2c-.2,0-.3-.1-.3-.2l.3-.2,2.4.2.2.2A.2.2,0,0,1,283.1,233.9Zm-50-.4c-.1,0-.2,0-.2-.2a.2.2,0,0,1,.2-.2l2.4-.2.2.2c0,.2-.1.3-.2.3Zm45.2,0h-2.4c-.1,0-.2-.2-.2-.3s.1-.2.3-.2l2.3.2c.2,0,.3.1.2.2Zm-40.4-.3c-.2,0-.3-.1-.3-.2a.2.2,0,0,1,.2-.2h2.4c.2,0,.3.1.3.2l-.2.2Zm35.7,0h-2.4c-.2,0-.3-.1-.3-.2l.3-.2h2.4l.2.2Zm-31-.2-.2-.2a.2.2,0,0,1,.2-.2H245l.2.2a.2.2,0,0,1-.2.2Zm26.2,0h-2.4a.2.2,0,0,1-.2-.2l.2-.2h2.4a.2.2,0,0,1,.2.2Zm-21.4-.2c-.2,0-.3,0-.3-.2s.1-.2.3-.2h2.4l.2.2a.2.2,0,0,1-.2.2Zm16.6,0h-2.3c-.2,0-.3-.1-.3-.2s.1-.2.3-.2h2.4l.2.2C264.3,232.7,264.2,232.8,264,232.8Zm-11.9,0c-.1,0-.2-.1-.2-.3l.2-.2h2.4c.2,0,.3.1.3.2s-.1.2-.3.2Zm7.2,0h-2.4l-.2-.2.2-.2h2.4l.2.2C259.5,232.7,259.4,232.8,259.3,232.8Z"/><ellipse class="k" cx="255.8" cy="244.9" rx="59" ry="10.3"/><path class="j" d="M198,247c5.5-4.7,29.3-8.2,57.8-8.2s52.3,3.5,57.8,8.2a2.9,2.9,0,0,0,1.2-2.1c0-5.7-26.4-10.3-59-10.3s-59,4.6-59,10.3A2.9,2.9,0,0,0,198,247Z"/><path class="j" d="M236.8,250.4c-2.6-.6-4.3-1.2-5.1-2.1h-3.3a15.2,15.2,0,0,1-3.4-.3c-.9-.2-1.3-.4-1.3-.7s.4-.5,1.3-.7a16.2,16.2,0,0,1,3.4-.2h3c.7-1.1,2.2-1.9,4.5-2.7a7.4,7.4,0,0,1,1.7-.3h2.5l3.5.2q1.5.3,1.5.6t-.3.3l-1,.4a11.6,11.6,0,0,0-2.3,1.2,1.5,1.5,0,0,0-.7,1.1c0,.5.4.9,1.2,1.1a11.1,11.1,0,0,0,3.6.4l2.3-.2,1.5-.6,1.4-1a14.5,14.5,0,0,1,2.6-1.7,16.5,16.5,0,0,1,4.1-1.1,39.4,39.4,0,0,1,7.6-.5,44.9,44.9,0,0,1,9.5.8c2.6.5,4.4,1.2,5.3,2h3.4a15.5,15.5,0,0,1,3.3.3c.9.2,1.3.4,1.3.7s-.4.5-1.2.7l-3.4.2h-3.2c-.6.8-2.1,1.5-4.3,2.3l-1.8.3h-2.4l-3.6-.2q-1.5-.3-1.5-.6l.3-.3,1-.5,1.1-.4a3.7,3.7,0,0,0,1.4-.7c.3-.3.5-.5.5-.8s-.4-.8-1.3-1a11.9,11.9,0,0,0-3.6-.4,8.9,8.9,0,0,0-3.2.4,7.4,7.4,0,0,0-2.2,1.4,10.1,10.1,0,0,1-2.5,1.7,12.3,12.3,0,0,1-4.1,1.1,40.5,40.5,0,0,1-7.7.5A50.8,50.8,0,0,1,236.8,250.4Z"/><path class="j" d="M311.3,253.7v12.8l1.4-.4V253.3Z"/><path class="j" d="M297.2,256.4v12.8l1.4-.2V256.2Z"/><path class="j" d="M283.2,258.1v12.8l1.4-.2V257.9Z"/><path class="j" d="M269.1,258.9v12.8h1.4V258.9Z"/><path class="j" d="M255.8,259.2h-.7V272h1.4V259.2Z"/><path class="j" d="M241.1,258.9v12.8h1.3V258.9Z"/><path class="j" d="M227,257.9v12.8l1.4.2V258.1Z"/><path class="j" d="M213,256.2V269l1.4.2V256.4Z"/><path class="j" d="M198.9,253.3v12.8l1.4.4V253.7Z"/><path class="h" d="M194.1,244.9c0,7.9,31.4,14.2,70.2,14.2s70.2-6.3,70.2-14.2V232.1H194.1Z"/><path class="i" d="M334.5,232.1c0,7.9-31.4,14.2-70.2,14.2s-70.2-6.3-70.2-14.2,31.4-14.3,70.2-14.3S334.5,224.2,334.5,232.1Z"/><path class="j" d="M264.3,244.7h-1.2l-.2-.2c0-.2.1-.3.2-.3h2.4c.1,0,.2.1.2.3a.2.2,0,0,1-.2.2Zm-3.6,0h-2.3c-.2,0-.3-.1-.3-.2s.1-.2.3-.2h2.3c.2,0,.3.1.3.2A.3.3,0,0,1,260.7,244.7Zm7.2,0a.3.3,0,0,1-.3-.3l.3-.2h2.4l.2.2-.2.2Zm-11.9-.1h-2.4l-.2-.2a.2.2,0,0,1,.2-.2H256c.1,0,.2.1.2.3A.2.2,0,0,1,256,244.6Zm16.6,0-.2-.2c0-.2.1-.3.2-.3H275c.2,0,.3.1.3.2s-.1.2-.3.2h-2.4Zm-21.4-.2h-2.4a.2.2,0,0,1-.2-.2l.2-.2h2.4c.2,0,.3.1.3.2S251.3,244.4,251.2,244.4Zm26.2,0a.2.2,0,0,1-.2-.2l.2-.2h2.4l.2.2-.2.2Zm-30.9-.2h0l-2.4-.2c-.2,0-.3-.1-.2-.2a.2.2,0,0,1,.2-.2l2.4.2.2.2Zm35.7,0c-.2,0-.3-.1-.3-.2l.2-.2,2.4-.2c.2,0,.3.1.3.2l-.2.2-2.4.2Zm-40.5-.3h0l-2.4-.2a.2.2,0,0,1-.2-.2c0-.1.1-.2.3-.2l2.3.2c.2,0,.3.1.3.2Zm45.2,0a.2.2,0,0,1-.2-.2l.2-.2,2.4-.2c.1,0,.2,0,.2.2l-.2.2-2.4.2Zm-49.9-.4h-.1l-2.3-.2c-.2,0-.3-.2-.2-.3l.2-.2,2.4.3a.2.2,0,0,1,.2.2Zm54.7,0c-.2,0-.3-.1-.3-.2a.2.2,0,0,1,.2-.2l2.4-.3.3.2-.2.3-2.4.2Zm-59.5-.5h0l-2.4-.3a.2.2,0,0,1-.2-.2l.3-.2,2.4.3a.2.2,0,0,1,.2.2C232.5,242.9,232.4,243,232.2,243Zm64.2,0-.2-.2c-.1-.1,0-.2.2-.2l2.3-.3.3.2-.2.2-2.4.3Zm-68.9-.6h0l-2.4-.3-.2-.2c.1-.2.2-.2.3-.2l2.4.3c.1,0,.2.1.2.3Zm73.6,0c-.1,0-.2,0-.2-.2s0-.2.2-.2l2.3-.3c.2,0,.3,0,.3.1s-.1.3-.2.3l-2.4.3Zm-78.3-.7h0l-2.4-.4-.2-.2.3-.2,2.4.4c.1,0,.2.1.2.3Zm83,0h-.2c-.1-.2,0-.3.2-.3l2.3-.4.3.2a.2.2,0,0,1-.2.2l-2.3.4Zm-87.6-.8h-.1l-2.3-.5c-.2,0-.2-.1-.2-.3h.3l2.3.5a.2.2,0,1,1,0,.4Zm92.3,0-.3-.2.2-.2,2.3-.5c.2-.1.3,0,.3.1a.2.2,0,0,1-.1.3l-2.4.5Zm-97-1h0l-2.3-.6c-.2-.1-.2-.2-.2-.3l.3-.2a9.8,9.8,0,0,0,2.3.6l.2.3Zm101.6,0a.2.2,0,0,1-.2-.2c-.1-.1,0-.2.1-.3l2.3-.6.3.2c0,.1,0,.2-.1.2l-2.3.6ZM209,238.6h-.1l-2.2-.8c-.1-.1-.2-.2-.1-.3a.2.2,0,0,1,.3-.1l2.2.8c.1,0,.2.1.1.2Zm110.6,0-.2-.2c0-.1,0-.2.2-.3l2.2-.7c.1-.1.2,0,.3.1s0,.2-.2.3l-2.2.7Zm-115-1.7h-.1a9.5,9.5,0,0,1-2-1.1.4.4,0,0,1-.1-.3h.4l1.9,1.1c.2,0,.2.2.1.3Zm119.4-.1c-.1,0-.2,0-.2-.1s0-.2.1-.3l2-1.1c.1-.1.2,0,.3.1s0,.2-.1.3l-2,1.1Zm-123.1-2.5h-.2a3.7,3.7,0,0,1-.8-2.1l.2-.2h0l.2.2a2.9,2.9,0,0,0,.8,1.8c.1.1.1.3,0,.3Zm126.8-.1h-.2a.2.2,0,0,1,0-.3,2.7,2.7,0,0,0,.7-1.8h0c0-.1.1-.2.3-.2h0c.1,0,.2,0,.2.2h0a3.2,3.2,0,0,1-.8,2Zm-126.9-3.8h-.1c-.1,0-.1-.2,0-.3a6.5,6.5,0,0,1,1.7-1.5h.3c.1.1.1.3,0,.3a8.6,8.6,0,0,0-1.7,1.5Zm126.8-.1h-.2a5.6,5.6,0,0,0-1.6-1.4c-.1-.1-.2-.2-.1-.3s.2-.2.3-.1a7.1,7.1,0,0,1,1.8,1.5.2.2,0,0,1,0,.3Zm-123.1-2.6h-.2a.4.4,0,0,1,.1-.3l2.2-.9h.3a.4.4,0,0,1-.1.3l-2.2.9Zm119.4,0h-.1l-2.2-.9c-.1,0-.1-.1-.1-.2s.2-.2.3-.2l2.2,1a.2.2,0,0,1,.1.3Zm-115-1.7h-.2a.2.2,0,0,1,.1-.3l2.3-.7c.1,0,.2,0,.3.2a.2.2,0,0,1-.2.2l-2.2.7Zm110.6,0h-.1l-2.2-.7-.2-.3c.1-.1.2-.2.3-.1l2.3.7c.1,0,.2.1.1.2A.2.2,0,0,1,319.5,226Zm-106.1-1.3h-.2c-.1-.1,0-.3.2-.3l2.3-.5c.1-.1.2,0,.3.1l-.2.3-2.3.5Zm101.6,0h-.1l-2.3-.6-.2-.2.3-.2,2.3.6c.2,0,.2.1.2.2A.2.2,0,0,1,315,224.7Zm-97-1-.2-.2.2-.2,2.3-.5c.2,0,.3.1.3.2l-.2.2-2.3.5Zm92.4,0h-.1l-2.3-.4a.2.2,0,0,1-.2-.2c0-.2.1-.2.3-.2l2.3.4.2.3Zm-87.7-.9c-.1,0-.2,0-.2-.1s0-.3.2-.3l2.3-.4.3.2c0,.1-.1.3-.2.3l-2.4.3Zm83,0h-.1l-2.3-.4a.2.2,0,0,1-.2-.2l.3-.2,2.3.4c.2,0,.3.1.2.2A.2.2,0,0,1,305.7,222.8Zm-78.3-.7h-.2c-.1-.2,0-.3.2-.3l2.3-.3c.2,0,.3.1.3.2a.2.2,0,0,1-.2.2l-2.4.3Zm73.6,0h0l-2.4-.3a.2.2,0,0,1-.2-.2c0-.1.1-.2.3-.2l2.3.3c.2,0,.2.1.2.2A.2.2,0,0,1,301,222.1Zm-68.9-.5-.2-.2c0-.1.1-.3.2-.3l2.4-.2c.1,0,.2,0,.2.2a.2.2,0,0,1-.2.2l-2.3.3Zm64.2-.1h-.1l-2.3-.2c-.1,0-.2-.1-.2-.3h.2l2.4.2a.2.2,0,0,1,.2.2C296.5,221.5,296.4,221.5,296.3,221.5Zm-59.4-.4c-.2,0-.3-.1-.3-.2l.2-.3,2.4-.2.3.2a.3.3,0,0,1-.3.3l-2.3.2Zm54.6,0h0l-2.4-.2-.2-.3.3-.2,2.4.2c.1,0,.2.1.2.3S291.7,221.1,291.5,221.1Zm-49.9-.4-.2-.2c-.1-.1,0-.2.2-.2l2.4-.2a.2.2,0,0,1,.2.2l-.2.2-2.4.2Zm45.2,0h0l-2.4-.2-.2-.2a.2.2,0,0,1,.2-.2h2.4l.2.3Zm-40.5-.3a.2.2,0,1,1,0-.4l2.4-.2c.2,0,.3.1.3.2l-.3.3h-2.4Zm35.7,0h0l-2.3-.2c-.2,0-.3-.1-.3-.2s.1-.2.3-.2h2.4l.2.3C282.3,220.3,282.2,220.4,282,220.4Zm-30.9-.2c-.1,0-.2-.1-.2-.3a.2.2,0,0,1,.2-.2h2.4a.2.2,0,0,1,.2.2c0,.2-.1.3-.2.3Zm26.2-.1h-2.4c-.1,0-.2-.1-.2-.3a.2.2,0,0,1,.2-.2h2.4l.2.2C277.5,220.1,277.4,220.1,277.3,220.1Zm-21.4-.1c-.2,0-.3-.1-.3-.2s.1-.2.3-.2h2.3c.2,0,.3.1.3.2a.2.2,0,0,1-.2.2Zm16.6,0h-2.4a.2.2,0,0,1-.2-.2l.2-.2h2.4c.2,0,.3.1.3.2S272.7,220,272.5,220Zm-11.9-.1a.2.2,0,0,1-.2-.2l.2-.2H263a.2.2,0,1,1,0,.4Zm7.2,0h-2.4c-.1,0-.3-.1-.3-.2l.3-.2h2.4l.2.2A.2.2,0,0,1,267.8,219.9Z"/><ellipse class="h" cx="264.3" cy="232.1" rx="59" ry="10.3"/><path class="j" d="M206.5,234.1c5.5-4.6,29.3-8.2,57.8-8.2s52.3,3.6,57.8,8.2a2.6,2.6,0,0,0,1.2-2c0-5.7-26.4-10.3-59-10.3s-59,4.6-59,10.3A2.6,2.6,0,0,0,206.5,234.1Z"/><path class="j" d="M245.3,237.5q-3.9-.7-5.1-2.1h-3.3a16.2,16.2,0,0,1-3.4-.2c-.9-.2-1.3-.4-1.3-.7s.4-.5,1.3-.7a15.2,15.2,0,0,1,3.4-.3h3c.7-1,2.1-1.9,4.5-2.6a6.1,6.1,0,0,1,1.7-.4h2.5a18.3,18.3,0,0,1,3.5.3c1,.1,1.5.3,1.5.5s-.1.3-.3.4l-1,.4a9.9,9.9,0,0,0-2.3,1.1,1.5,1.5,0,0,0-.7,1.2c0,.4.4.8,1.2,1.1a16,16,0,0,0,3.6.3,7.9,7.9,0,0,0,2.3-.2,5.3,5.3,0,0,0,1.5-.5l1.3-1a13.4,13.4,0,0,1,2.7-1.7,11.9,11.9,0,0,1,4.1-1.2,49.5,49.5,0,0,1,7.6-.5,50.7,50.7,0,0,1,9.4.8c2.7.5,4.5,1.2,5.3,2.1h3.4a16.7,16.7,0,0,1,3.4.2c.9.2,1.3.4,1.3.7s-.4.5-1.3.7a15.2,15.2,0,0,1-3.4.3h-3.2c-.5.8-2,1.5-4.2,2.2l-1.8.4H280a18.3,18.3,0,0,1-3.5-.3c-1-.1-1.5-.3-1.5-.5s.1-.3.3-.4l1-.4,1.1-.4,1.4-.7a1.4,1.4,0,0,0,.5-.9c0-.4-.4-.7-1.3-1a16.3,16.3,0,0,0-3.6-.4,9.5,9.5,0,0,0-3.3.5A6.4,6.4,0,0,0,269,235a13.8,13.8,0,0,1-2.5,1.7,15.3,15.3,0,0,1-4.1,1.1,51,51,0,0,1-7.7.5A49.9,49.9,0,0,1,245.3,237.5Z"/><path class="j" d="M319.8,240.8v12.8l1.3-.4V240.4Z"/><path class="j" d="M305.7,243.6v12.8l1.4-.2V243.4Z"/><path class="j" d="M291.7,245.2V258h1.4V245.1Z"/><path class="j" d="M277.6,246.1v12.8H279V246Z"/><path class="j" d="M264.3,246.3h-.7v12.8H265V246.3Z"/><path class="j" d="M249.5,246v12.8h1.4V246.1Z"/><path class="j" d="M235.5,245.1v12.8h1.4V245.2Z"/><path class="j" d="M221.5,243.4v12.8l1.4.2V243.6Z"/><path class="j" d="M207.4,240.4v12.8l1.4.4V240.8Z"/><path class="k" d="M185.6,230.9c0,7.9,31.4,14.3,70.2,14.3s70.2-6.4,70.2-14.3V218.1H185.6Z"/><ellipse class="i" cx="255.8" cy="218.1" rx="70.2" ry="14.3"/><path class="j" d="M255.8,230.7h-1.2l-.2-.2c0-.2.1-.2.2-.2H257c.2,0,.3,0,.3.2s-.1.2-.3.2Zm-3.5,0h-2.4c-.2,0-.3-.1-.3-.2s.1-.2.3-.2h2.4c.1,0,.2.1.2.3Zm7.1,0c-.1,0-.2-.1-.2-.3l.2-.2h2.4l.2.2-.2.2Zm-11.9-.1h-2.4l-.2-.2a.2.2,0,0,1,.2-.2h2.4a.2.2,0,0,1,.2.2Zm16.7,0c-.2,0-.3-.1-.3-.2l.3-.3h2.3c.2,0,.3.1.3.2l-.2.2Zm-21.5-.2h-2.4a.2.2,0,0,1-.2-.2c0-.1.1-.2.3-.2h2.3c.2,0,.3.1.3.2S242.9,230.4,242.7,230.4Zm26.2,0a.2.2,0,0,1-.2-.2l.2-.2h2.4l.2.2-.2.2Zm-30.9-.2h-2.4l-.2-.3a.2.2,0,0,1,.2-.2l2.4.2.2.2Zm35.7,0-.3-.2c0-.1.1-.2.3-.2l2.3-.2c.2,0,.3.1.3.2l-.2.2-2.4.2Zm-40.5-.3h0l-2.4-.2a.2.2,0,0,1-.2-.2c0-.1.1-.2.3-.2l2.3.2c.2,0,.3.1.3.2S233.4,229.9,233.2,229.9Zm45.2,0a.2.2,0,0,1-.2-.2l.2-.2,2.4-.2.2.2c.1.1,0,.2-.2.2l-2.4.2Zm-49.9-.4h0l-2.4-.2c-.1,0-.2-.1-.2-.3s.1-.2.2-.1l2.4.2a.2.2,0,0,1,.2.2Zm54.7,0-.3-.2a.2.2,0,0,1,.2-.2l2.4-.3c.2,0,.3.1.3.2s-.1.3-.2.3l-2.4.2Zm-59.4-.5h-.1l-2.3-.2c-.2-.1-.3-.2-.2-.3l.2-.2,2.4.3a.2.2,0,0,1,.2.2C224,229,223.9,229,223.8,229Zm64.1,0-.2-.2c0-.1,0-.2.2-.2l2.3-.3c.2,0,.3.1.3.2l-.2.2-2.4.3Zm-68.9-.6h0l-2.4-.3-.2-.2c.1-.2.2-.2.3-.2l2.4.3c.1,0,.2.2.2.3Zm73.6,0h-.2c0-.2.1-.3.2-.3l2.3-.3c.2,0,.3,0,.3.2a.2.2,0,0,1-.2.2l-2.3.3Zm-78.3-.7h0l-2.4-.4c-.1,0-.2-.1-.1-.2l.2-.2,2.4.4c.1,0,.2.2.2.3Zm83,0h-.2c0-.2,0-.3.2-.3l2.3-.4.3.2a.2.2,0,0,1-.2.2l-2.3.4Zm-87.6-.8h-.1l-2.3-.5a.2.2,0,0,1-.2-.2c0-.2.2-.2.3-.2l2.3.5a.2.2,0,0,1,0,.4Zm92.3,0a.2.2,0,0,1-.2-.2c-.1-.1,0-.2.1-.2l2.4-.5h.2c.1.2,0,.3-.1.3l-2.4.5Zm-97-1h0l-2.3-.6-.2-.3c.1-.1.2-.2.3-.1l2.3.6.2.2Zm101.6,0a.2.2,0,0,1-.2-.2c-.1-.1,0-.2.1-.3l2.3-.6c.2,0,.3.1.3.2s0,.2-.1.2l-2.3.7Zm-106.1-1.3h-.1l-2.2-.8c-.1-.1-.2-.2-.1-.3a.2.2,0,0,1,.3-.1l2.2.8c.1,0,.2.1.1.2Zm110.6,0-.2-.2c0-.1,0-.2.2-.2l2.2-.8c.1-.1.2,0,.3.1a.4.4,0,0,1-.1.3l-2.3.8Zm-115-1.7H196l-2-1.1a.4.4,0,0,1-.1-.3h.4l2,1.1c.1,0,.1.2.1.3Zm119.4-.1c-.1,0-.2,0-.2-.1s0-.2.1-.3l2-1.1h.3a.2.2,0,0,1,0,.3l-2.1,1.1Zm-123.1-2.5h-.2a3.7,3.7,0,0,1-.8-2.1l.2-.2h0l.2.2a3.6,3.6,0,0,0,.8,1.8c.1.1.1.3,0,.3Zm126.8-.1h-.1c-.1-.1-.2-.2-.1-.3a2.7,2.7,0,0,0,.7-1.8h0c0-.1.1-.2.3-.2h0a.2.2,0,0,1,.2.2h0a3.2,3.2,0,0,1-.8,2Zm-126.8-3.8h-.2c-.1,0-.1-.2,0-.3a8.6,8.6,0,0,1,1.7-1.5.2.2,0,0,1,.3.1c.1,0,.1.2,0,.3a4.5,4.5,0,0,0-1.6,1.4Zm126.7-.1h-.2a5.6,5.6,0,0,0-1.6-1.4c-.1-.1-.2-.2-.1-.3s.2-.2.4-.1a8.6,8.6,0,0,1,1.7,1.5.2.2,0,0,1,0,.3ZM196,213.8l-.2-.2c0-.1,0-.2.1-.2l2.2-1h.3a.2.2,0,0,1-.1.3l-2.1.9Zm119.4-.1h-.1l-2.1-1c-.2,0-.2-.1-.2-.2l.3-.2,2.2,1a.2.2,0,0,1,.1.3Zm-115-1.7h-.2c-.1-.1,0-.2.1-.3l2.3-.7c.1,0,.2,0,.3.2a.2.2,0,0,1-.2.2l-2.2.7ZM311,212h0l-2.3-.7c-.1-.1-.2-.2-.1-.3s.1-.2.3-.1l2.2.7a.2.2,0,0,1,.2.2Zm-106.1-1.3h-.2c0-.1,0-.3.2-.3l2.3-.5c.1-.1.2,0,.3.1s-.1.3-.2.3l-2.3.5Zm101.6,0h-.1l-2.3-.6c-.1,0-.2-.1-.1-.2s.1-.2.3-.2l2.3.6c.1,0,.2.1.1.2A.2.2,0,0,1,306.5,210.7Zm-97-1-.2-.2.2-.2,2.3-.5c.2,0,.3.1.3.2s0,.2-.2.2l-2.3.5Zm92.4,0h-.1l-2.3-.5a.2.2,0,0,1-.2-.2l.3-.2,2.3.4c.2.1.2.2.2.3Zm-87.7-.9c-.1,0-.2,0-.2-.1s0-.3.2-.3l2.3-.3c.2-.1.3,0,.3.1s-.1.3-.2.3l-2.3.3Zm83,0h0l-2.4-.3c-.1-.1-.2-.2-.2-.3l.3-.2,2.3.4c.2,0,.3.1.2.2A.2.2,0,0,1,297.2,208.8Zm-78.3-.7h-.2c0-.2,0-.3.2-.3l2.3-.3c.2,0,.3.1.3.2a.2.2,0,0,1-.2.2l-2.3.3Zm73.6,0h0l-2.4-.3a.2.2,0,0,1-.2-.2c0-.1.1-.2.3-.2l2.3.3c.2,0,.3.1.2.2A.2.2,0,0,1,292.5,208.1Zm-68.9-.5-.2-.2.2-.3,2.4-.2.2.2c.1.1,0,.2-.2.2l-2.3.3Zm64.2-.1h0l-2.4-.2-.2-.2c0-.2.1-.2.2-.2l2.4.2c.1,0,.2.1.2.3Zm-59.4-.4c-.2,0-.3-.1-.3-.2a.2.2,0,0,1,.2-.2l2.4-.2c.2-.1.3,0,.3.1s-.1.3-.2.3l-2.4.2Zm54.7,0H283l-2.3-.2a.3.3,0,0,1-.3-.3l.3-.2,2.4.2.2.3Zm-50-.4-.2-.2.2-.2,2.4-.2a.2.2,0,0,1,.2.2l-.2.2-2.4.2Zm45.2,0h0l-2.4-.2-.2-.2c0-.1.1-.2.3-.2l2.3.2c.2,0,.3.1.2.2Zm-40.4-.3c-.2,0-.3-.1-.3-.2a.2.2,0,0,1,.2-.2l2.4-.2c.2,0,.3.1.3.2s-.1.3-.2.3Zm35.7,0h-2.4a.3.3,0,0,1-.3-.3l.3-.2h0l2.4.2.2.2A.2.2,0,0,1,273.6,206.4Zm-31-.2-.2-.2c0-.2.1-.3.2-.3H245c.1,0,.2.1.2.3l-.2.2Zm26.2,0h-2.4c-.1,0-.2-.1-.2-.3a.2.2,0,0,1,.2-.2h2.4l.2.2C269,206.1,268.9,206.2,268.8,206.2Zm-21.4-.2c-.2,0-.3-.1-.3-.2s.1-.2.3-.2h2.4l.2.2c0,.2-.1.2-.2.3Zm16.6,0h-2.3c-.2,0-.3-.1-.3-.2s.1-.2.3-.2h2.4a.2.2,0,0,1,.2.2C264.3,205.9,264.2,206,264,206Zm-11.9-.1a.2.2,0,0,1-.2-.2l.2-.2h2.4c.2,0,.3.1.3.2s-.1.2-.3.2Zm7.2,0h-2.4a.2.2,0,0,1-.2-.2l.2-.2h2.4l.2.2A.2.2,0,0,1,259.3,205.9Z"/><ellipse class="k" cx="255.8" cy="218.1" rx="59" ry="10.3"/><path class="j" d="M198,220.1c5.5-4.6,29.3-8.1,57.8-8.1s52.3,3.5,57.8,8.1a2.6,2.6,0,0,0,1.2-2c0-5.7-26.4-10.3-59-10.3s-59,4.6-59,10.3A2.6,2.6,0,0,0,198,220.1Z"/><path class="j" d="M311.3,226.8v12.8l1.4-.4V226.5Z"/><path class="j" d="M297.2,229.6v12.8l1.4-.2V229.4Z"/><path class="j" d="M283.2,231.2V244h1.4V231.1Z"/><path class="j" d="M269.1,232.1v12.8h1.4V232Z"/><path class="j" d="M255.8,232.4h-.7v12.8h1.4V232.4Z"/><path class="j" d="M241.1,232v12.8h1.3V232.1Z"/><path class="j" d="M227,231.1v12.8h1.4V231.2Z"/><path class="j" d="M213,229.4v12.8l1.4.2V229.6Z"/><path class="j" d="M198.9,226.5v12.7l1.4.4V226.8Z"/><path class="l" d="M289.9,82.6s-10,1.2-9.5,12.6,10.8,60.3,22.9,70S315,151.8,315,151.8,307.6,80.1,289.9,82.6Z"/><path class="m" d="M357.8,160.7s13.8,2.6,23.1-1.3,7.2-4.2,6.4-5.6c-1.5-3.1-13.9-2.2-16.2-2.9s1.9-2.4,2.9-3.9,3.1-3.5,2.3-4-2.7-1-6.1,1.8-12.3,6.5-12.3,6.5Z"/><path class="l" d="M359.8,150a25.9,25.9,0,0,0-.7,6.1,13,13,0,0,0,2,7s-44.9,9-56.2,3.2c0,0-11-16.9,5.8-21.4Z"/><path class="n" d="M308.7,167.6a6.9,6.9,0,0,1-3.7-1.2h-.2a7.2,7.2,0,0,1-1.5-1.1c-12.1-9.7-22.6-58.7-22.9-70a14.3,14.3,0,0,1,.8-5.4c3.7,12.6,20.7,70.5,26,71.6s39.7-1.2,52.3-2a12.2,12.2,0,0,0,1.6,3.7S324,170.6,308.7,167.6Z"/><path class="o" d="M340.8,304.8s-2.5,9,3.8,11.2,11.4,5,13.9,6.9,29.4,13.4,32.8,8-4.8-11.6-6.8-13.5L364,299.5Z"/><path class="o" d="M319,320.4s-2.6,9,3.7,11.2,11.5,4.9,13.9,6.9,29.4,13.4,32.8,7.9-4.8-11.6-6.8-13.5-20.5-17.8-20.5-17.8Z"/><path class="p" d="M295.5,175.7s66.4,41.7,68.3,52.3,1.5,73.1,1.5,73.1-17,7.3-25.2,2.7L333.2,245s-52.1-38.6-54.4-40S295.5,175.7,295.5,175.7Z"/><path class="q" d="M278.8,205c2.3,1.4,54.4,40,54.4,40l6.9,58.8c4,2.2,10,1.6,15.1.5-2.3-17.9-7.6-57.2-9.5-67.2-2.4-13-56-43.8-56-43.8l-10.9,10.1C278.5,204.3,278.5,204.8,278.8,205Z"/><path class="p" d="M295.6,177.3S288,200,284,205c0,0,53,28.1,55.7,41.6s6,71.6,6,71.6-11.8,7.8-27.8,2.1c0,0-5.9-44.6-6.5-62.5,0,0-80.2-21.2-74.3-65.1C237.1,192.7,267.8,204.9,295.6,177.3Z"/><path class="q" d="M311.4,257.8c.6,17.9,6.5,62.5,6.5,62.5a36.1,36.1,0,0,0,7.8,1.8c-.4-7-1-16.1-1.7-28.2-2.6-44.9-9.6-44.1-9.6-44.1-50.8-22.9-61.1-44.9-61.1-44.9l-16.3-10C234,237.3,311.4,257.8,311.4,257.8Z"/><path class="l" d="M261.4,86.5s-25.3,12.9-25.9,14.8-7.2,6.7,2.1,28.9c0,0,12.6,24.2,6.3,48.3-3.6,14-6.9,21.3-6.9,21.3s11.2,16.6,42.8,5c6.4-2.3,17.1-11,20.3-18a161.8,161.8,0,0,1,1-44.7c4-24.1,6.2-55.4-7.5-59.6C293.6,82.5,290.1,78.3,261.4,86.5Z"/><path class="m" d="M258.5,69s7.7,11.7,1.6,19.7c-3.4,4.4,4.6,14.9,18.4,14.1,0,0,6.2-1.5,5.5-3.8-1.4-5,.6-7.9,2.8-11.8S258.5,69,258.5,69Z"/><path class="r" d="M260.1,88.7a2.9,2.9,0,0,0-.7,1.8c5.1-5.3,15-5.7,15-5.7l-13-14.4-1.4-.7-.4,1.3C261.5,74.7,264.7,82.8,260.1,88.7Z"/><path class="m" d="M284,99c-1.3-8,.6-7.9,2.8-11.8.7-1-1.2-2.9-4.2-5a9.5,9.5,0,0,0-2.3,2.5c-5.3,8.2-5.3,14.7-4.6,18.1a26.1,26.1,0,0,0,2.8,0C280.2,102.5,284.4,101.5,284,99Z"/><path class="m" d="M255.6,62.4S259,78,269.7,85s20.5,10.4,22.5-1c1.6-9,6.1-31.8-1.9-36.5-10.2-5.9-14-13.2-25.8-8.8C264.5,38.7,250.9,44.9,255.6,62.4Z"/><path class="r" d="M255.6,62.4a35.1,35.1,0,0,0,14,22.8,46.5,46.5,0,0,0,9,4.8c-5-3.7-5.5-4.8-9.4-9.3s5.8-2.8-.8-14.3c-2.2-3.9,8.8,1.1,11.2,1.1,14.6-.4,13.5-8.7,13.8-12.3a27,27,0,0,0-1.2-4.3l-1.4-2.6-.5-.8a47.3,47.3,0,0,0-4.7-5.1l-24.4.5c-.2.1-3.3,4.3-6.1,8.2A23.4,23.4,0,0,0,255.6,62.4Z"/><path class="c" d="M262,77.5s-11.8-10.9-7.7-26.4a18.2,18.2,0,0,1,16.1-14.2c6.6-.8,19.4-.4,24.5,13,1.6,4.2.5,13.3-15.9,9.1-2.4-.6-8.6-1.5-10.8.5s-2.5,5.8-1.4,9-1.6,3-1.9,2.4-3.5-8.5-6.4-5.4S261.7,76.9,262,77.5Z"/><path class="c" d="M262,77.5c-.3-.6-6.2-9.2-3.5-12s6.1,4.9,6.4,5.4,2.8.3,1.9-2.4-.8-7,1.4-9,7.4-.8,10.8-.5c-2.8-1.8-8.2-2.4-10.1-6.9-2.6-6.1-6.3-8.9-9.7-10a19.3,19.3,0,0,0-4.9,9C250.2,66.6,262,77.5,262,77.5Z"/><path class="n" d="M235.5,101.3c-.7,2-7.2,6.7,2.1,28.9,0,0,10.6,24,5.1,48.1-2.3,10.3-2.1,11-6.1,19.8-2.2,5,7.6,8.1,16.6,10.8,5.4-12.7,4.8-13,7.1-26.9,3.1-19.2.9-35-14.8-54.2-13.8-16.9-8-23.5-8.3-27.9A5.6,5.6,0,0,0,235.5,101.3Z"/><path class="c" d="M294.9,49.9s2.4,15-16.7,9.6c0,0-9.5-2.6-13.3-11.4-.8-1.9-3-5-6.3-5.4,0,0,5.1-7.2,18.2-6.3,6.2.5,12.6,6.5,14.2,7.5S290,51.1,294.9,49.9Z"/><polygon class="s" points="302.5 198.7 351.2 227 389 205.2 340.3 176.9 302.5 198.7"/><path class="m" d="M293.2,200.8s15.2,12.5,30,9.5c0,0,0-3.8-6.6-5.2s-9.1-6.5-9.1-7.3,5.2-1.2,7.6-1.3,5-3.3-.6-3.7-15.2-2.5-20.7-1.3C293.8,191.5,288.3,197.4,293.2,200.8Z"/><path class="l" d="M244.3,96.8s-12.4,2.9-15.5,13.8-7.6,60.8.9,73.7,64.5,19.6,64.5,19.6c-4.1-8.5,1.6-15.5,1.6-15.5l-48.2-20.1S256.2,101.5,244.3,96.8Z"/><path class="n" d="M247.6,168.3l48.2,20.1a22.8,22.8,0,0,0-1.8,3.3c-11.5-4-49.5-17.2-53.4-22s4.8-61.7,6.3-70.4C254.9,112.3,247.6,168.3,247.6,168.3Z"/><path class="d" d="M359.5,196.5c1.7,1.1,2.1,2.6,1.1,4.2a2.8,2.8,0,0,1-4.3.8l-5.4-3.4c-1.7-1.1-2.1-2.5-1-4.1s2.5-1.9,4.2-.9Zm-6.6-1.8a1,1,0,0,0-1.6.2c-.3.5-.2,1,.5,1.5l5.7,3.5c.7.5,1.2.4,1.6-.2s.2-1-.5-1.5Zm1.5,13.4.2,3-12.4-16.8v-2.9Zm-7-1c1.7,1.1,2.1,2.5,1.1,4.2s-2.5,1.9-4.2.8l-5.4-3.4c-1.7-1.1-2.1-2.5-1.1-4.2s2.5-1.9,4.2-.8Zm-6.5-1.8c-.8-.5-1.3-.4-1.6.2s-.2,1,.5,1.5l5.7,3.5c.7.5,1.2.4,1.5-.2s.3-1-.5-1.5Z"/><path class="t" d="M69.4,242.3s10.8-22.7,8.3-37.7-16-11.8-12.3-29.7.4-28.6-10.3-30.5-11-10.7-18.3-22.9-31.3-7.8-26.4,15.2c6.5,30.6,21.6,21.7,26.4,33.8s-4.6,26,2.7,38.8S60.4,216.1,69.4,242.3Z"/><path class="u" d="M69.8,264.5l-1.5-.2c0-.1,2.2-17.9-2-42.8-3.8-23-13.9-56.9-40.3-88.1l1.1-.9c26.6,31.4,36.8,65.6,40.7,88.8C71.9,246.4,69.8,264.3,69.8,264.5Z"/><path class="v" d="M78.2,245.8s-9.1-19.2-7-31.9,13.5-9.8,10.4-25-.3-24.1,8.7-25.7,9.2-9,15.4-19.3,26.4-6.6,22.3,12.9c-5.5,25.7-18.3,18.2-22.3,28.4s3.9,21.9-2.3,32.8S85.8,223.7,78.2,245.8Z"/><path class="u" d="M77.9,264.5c0-.1-1.8-15.3,1.7-36.4,3.3-19.6,11.9-48.4,34.3-74.9l.9.8c-22.2,26.2-30.7,54.8-34,74.2-3.5,21-1.7,36-1.7,36.2Z"/><polygon class="w" points="95.6 341.2 51.2 341.2 42.2 254.9 104.7 254.9 95.6 341.2"/><polygon class="x" points="44.8 254.9 53.9 341.2 59.9 341.2 50.8 254.9 44.8 254.9"/><polygon class="y" points="104.7 254.9 95.6 341.2 83.6 341.2 92.7 254.9 104.7 254.9"/><polygon class="y" points="103 270.4 103.6 265 43.3 265 43.8 270.4 103 270.4"/><rect class="z" x="54.2" y="341.2" width="38.5" height="5.62"/><rect class="y" x="54.2" y="341.2" width="38.5" height="2.81"/><rect class="aa" x="39.4" y="252.6" width="68" height="12.46"/><rect class="y" x="94.8" y="252.6" width="12.6" height="12.46"/><rect class="x" x="41" y="252.6" width="8.4" height="12.46"/></g></svg>