<svg xmlns="http://www.w3.org/2000/svg" viewBox="0 0 400 400"><defs><style>.a{fill:#74818e;}.b{fill:#fda080;}.c{fill:#f4907c;}.d,.g{fill:#37b5e8;}.d,.f{opacity:0.2;}.e,.l{fill:gray;}.ad,.ag,.e{opacity:0.4;}.h{fill:#e5e5e5;}.i{fill:#666;}.j{fill:#cbcbcb;}.ah,.k{fill:#fff;}.m{fill:#a5b4c2;}.n{fill:#ffe7cb;}.o{fill:#c4ccd7;}.p{fill:#647889;}.q{fill:#f8fbfc;}.r{fill:#d4d2d1;}.s{fill:#fdf5ea;}.t{fill:#288ed9;}.u{fill:#f59b6b;}.v{fill:#ea8f68;}.w{fill:#0e71bb;}.x{fill:#2283bf;}.y{fill:#e28166;}.z{fill:#f16a44;}.aa{fill:#93603d;}.ab{fill:#a4704c;}.ac{fill:#28aae1;}.ad{fill:#606060;}.ae{fill:#379ae3;}.af{opacity:0.3;}.ah{opacity:0.5;}</style></defs><title>types-of-ssl</title><path class="a" d="M290.4,385.1a6.2,6.2,0,0,1-6.2-5.9,6.2,6.2,0,0,1,5.8-6.6,66.5,66.5,0,0,0,17.5-4.7,74.7,74.7,0,0,0,32.7-25.7,6.4,6.4,0,0,1,8.8-1.4,6.3,6.3,0,0,1,1.3,8.8c-24,32.9-58.1,35.4-59.5,35.4Z"/><path class="a" d="M47.6,272.3a6.3,6.3,0,0,1,5.9-6.3,6.3,6.3,0,0,1,6.6,5.9,64.6,64.6,0,0,0,4.6,17.5,76.2,76.2,0,0,0,25.8,32.7,6.4,6.4,0,0,1,1.4,8.8,6.3,6.3,0,0,1-8.8,1.3c-32.9-24.1-35.4-58.1-35.5-59.5Z"/><path class="a" d="M233.9,25.5a6.3,6.3,0,0,1-8,9.6,65.2,65.2,0,0,0-16.1-8.3A76.4,76.4,0,0,0,168.2,24a6.2,6.2,0,0,1-7.4-4.8,6.3,6.3,0,0,1,4.8-7.4c40-8.4,66.9,12.6,68,13.5Z"/><polygon class="b" points="79.6 267 115.6 248.1 129.2 283.9 93.5 296.5 79.6 267"/><path class="c" d="M91.2,265.5s11.3-2.3,16.1,0,9,16.7,9,16.7l23.7,1.7-21.5-40.4L96.2,254Z"/><path class="d" d="M99,131.7a36.2,36.2,0,0,0-18.5,47.6l61.2,139.3a36.1,36.1,0,0,0,47.6,18.6L321.7,279a76.1,76.1,0,0,0,45.6-69.8V130.7c0-55-56.6-92-107-69.8Z"/><circle class="e" cx="318.3" cy="230.4" r="12.2" transform="translate(21.1 487.6) rotate(-76.8)"/><circle class="e" cx="266.7" cy="87.8" r="12.2" transform="translate(120.2 327.3) rotate(-76.8)"/><circle class="e" cx="118.6" cy="172.9" r="12.2" transform="translate(-77 248.4) rotate(-76.7)"/><g class="f"><path class="g" d="M202.5,250.2l-11.6,11.9-48.7,42.2-7.6-1.7,7.1,16a28.9,28.9,0,0,0,2.2,4.3c5.8-1.5,13-3.9,16.1-6.3,5.6-4.5,31.1-40.3,31.1-40.3s7.6-4.7,8.6-7.2,2.9-13.7,3.7-15.5S202.5,250.2,202.5,250.2Z"/><path class="g" d="M158.4,243.7c2.6-.2,4.6-3.9,4.6-3.9l4-1.8.5-4.1-6.7-2.8-38.1-10.9L99.1,215l-1.2,4,6.9,15.7,39.7,7.9S155.8,244,158.4,243.7Z"/></g><path class="d" d="M275.2,213.8l2.7,24.6,14,22.7,21.3,21.7-88.3,38.6-5.3-42.6-5-22.7-14-24,73.3-31.9a3.2,3.2,0,0,1,.6,1.6C274.5,202.5,275.2,213.8,275.2,213.8Z"/><rect class="h" x="216" y="226.7" width="73.4" height="50.11" rx="2.5" transform="translate(-79.1 120.9) rotate(-23.4)"/><rect class="i" x="220.6" y="229.2" width="58.2" height="31.16" rx="2" transform="translate(-76.6 119.1) rotate(-23.4)"/><rect class="j" x="252.4" y="260.6" width="13.4" height="11.78" rx="2.1" transform="translate(-84.4 124.6) rotate(-23.4)"/><path class="k" d="M271.9,199.8l-35.1,15.1-35.1,15.2a1.8,1.8,0,0,0-.6,2.9l8.5,9.1a1.2,1.2,0,0,0,1.5.3l31.7-13.6,31.6-13.7a1.3,1.3,0,0,0,.8-1.3l-.8-12.4A1.8,1.8,0,0,0,271.9,199.8Z"/><path class="l" d="M275.2,213.8l-.8-12.4a1.8,1.8,0,0,0-1.9-.3l-35.1,15.2-35.1,15.1a1.9,1.9,0,0,0-1.2,1.7l8.5,9a1.2,1.2,0,0,0,1.5.3l31.7-13.6,31.6-13.7A1.3,1.3,0,0,0,275.2,213.8Z"/><path class="m" d="M272.1,214.6l-.2-10.2a1.7,1.7,0,0,0-1.8-.2l-32,13.8-32,13.8a2.1,2.1,0,0,0-1.1,1.4l7.3,7.2a1.4,1.4,0,0,0,1.4.2l28.8-12.4,28.8-12.5A1.2,1.2,0,0,0,272.1,214.6Z"/><path class="n" d="M241,289.5l-2.9-13.7s2.7-8.7,2.5-10.3-3.1-12-3.1-12-2-.2-2.4.8,0,6.1,0,6.1a13.8,13.8,0,0,1-1.9-2.5c-.3-.7-1-7.8-1.3-11.3a2,2,0,0,0-2-1.8h0a2,2,0,0,0-2,1.8l-.5,4-3.4.7-1.6,3.6-3.5,7.6,2.2,8.6,5,6.6,1.1,11.8Z"/><path class="n" d="M288.8,269.1l-9.4-10.3s-8.6-3-9.8-4.1-7.9-9.6-7.9-9.6,1-1.7,2.1-1.4,4.9,3.6,4.9,3.6a14.4,14.4,0,0,0-.9-3.1c-.4-.6-5.8-5.4-8.4-7.6a2,2,0,0,1-.3-2.7h0a2,2,0,0,1,2.6-.6l3.6,1.9,2.5-2.3,3.9.9,8.2,1.6,5.7,6.8,2.4,7.9,8.9,7.8Z"/><rect class="k" x="135.3" y="224.8" width="61.4" height="43.97" transform="translate(-73.2 70) rotate(-19.6)"/><rect class="o" x="134.8" y="225.2" width="59.8" height="40.71" transform="translate(-72.8 69.5) rotate(-19.6)"/><rect class="k" x="132.3" y="221.7" width="61.4" height="43.97" transform="translate(-72.3 68.8) rotate(-19.6)"/><path class="n" d="M136.9,220.2l7.3,3s8.2-1.7,11-.7,10.8,6.2,11.7,6.9a8.7,8.7,0,0,1,2.2,4.1c0,.6-1.8,3.2-3.7,3.3s-10.5.5-10.5.5a25.8,25.8,0,0,1,2.5,2.4,2.7,2.7,0,0,1,.2,2.3c-.3.2-7-2.6-8.9-3.2s-4.8-3.2-5.3-3.7-2.3-2.5-2.3-2.5l-8-3.2Z"/><path class="n" d="M182.5,278.8l5-6s8.2-2.2,10.1-4.4,1.3-5.6,1.8-6.6-.2-7,.2-7.4,3.6-3.2,4.9-4.6.6-3.5-.5-3-13.4,8.6-13.4,8.6,1.1-2.7,1.2-3.3a3.4,3.4,0,0,0-.9-2.1c-.4-.1-5.1,5.5-6.5,6.9s-2.8,5-3,5.7-.9,3.3-.9,3.3l-5.6,6.5Z"/><rect class="p" x="179" y="137.2" width="58.7" height="39.34" rx="5.2" transform="translate(-38.9 73.8) rotate(-18.4)"/><path class="q" d="M237.8,169.2l-45.7,15.2a6.5,6.5,0,0,1-8.3-4.1l-9.1-27.4a6.5,6.5,0,0,1,4.1-8.3l45.8-15.2a6.6,6.6,0,0,1,8.3,4.1l9.1,27.4A6.5,6.5,0,0,1,237.8,169.2Zm-56.1-22.8a4,4,0,0,0-2.5,4.9l9.2,27.5a3.9,3.9,0,0,0,4.9,2.4L237,166.7a4,4,0,0,0,2.5-4.9l-9.2-27.5a3.8,3.8,0,0,0-4.9-2.4Z"/><path class="r" d="M183.4,165.2a1.7,1.7,0,0,1-1,2.1,1.7,1.7,0,0,1-2.1-1.1,1.6,1.6,0,0,1,1-2A1.7,1.7,0,0,1,183.4,165.2Z"/><polygon class="d" points="141.3 113.1 184.5 175.1 203.9 170.2 198.4 157.2 187.2 154 174 130.2 241.7 105.5 242.8 94.8 233.8 72.5 141.3 113.1"/><path class="s" d="M201.5,163.3l-8.9-4.1a1.1,1.1,0,0,0-1.3.3h-.1a1,1,0,0,0,.4,1.6l9,4a1.1,1.1,0,0,0,1.4-.5A1,1,0,0,0,201.5,163.3Z"/><path class="n" d="M182.3,105.5a28.4,28.4,0,0,1-5.1,1.5c-2.5.3-5.6-1.1-7.7-.8s-7.3,4-7.3,4l-2,4.9-1.2,8,8.9,3.6s2.3,1.1,6.1-.9,10.5-7.8,10.5-7.8l4.5-2.4Z"/><path class="n" d="M188.5,150.7l6.1,2.1s3.2,3.5,3.8,4.4,0,3.8,0,3.8,2.2,2.1,2,4.1-3.3,4.7-7.3,4.8-8.2.6-9.2,0-5.4-9.6-5.4-9.6l-6.4-8.8,12.4-6Z"/><path class="t" d="M59.3,277.5s-1.9-20.8,2.8-27.4,30.4-51.5,32.5-53.3S142.2,220,142.2,220s-5.1,12-5.6,12.2-34.2-12-34.2-12L96.5,239l8.7-3.3,7.8,17.8s-9.2,5.8-25,13.5A132.3,132.3,0,0,1,59.3,277.5Z"/><path class="t" d="M76.9,311.7c-.3.5,22.6,17.3,31.4,14.3s43.1-11.6,47.7-14.9,30.4-33.8,30.4-33.8l-8.2-10-27.1,24.6-18.7,5.8-8.8-20.2S85.7,289,76.9,311.7Z"/><path class="u" d="M223.2,285.1l20.3-2.7,7.6,27.6,51.7-22.7-17.9-17.7,12.2-15,39.8,32.6s11.6,34.4,11.3,38.2-14.1,32.7-35,42.4-49.3-2.9-53-3.7-26.1-29.3-26.6-30.2S223.2,285.1,223.2,285.1Z"/><path class="u" d="M244,92.2c-2.6-13.7-3.8-44.5-6.3-48.8s-11.1-13.7-23.4-18.5c0,0-52.2-4.5-64.2,2.8s-16.3,72.1-16.3,75.1,40.3,54.1,40.3,54.1l12.7-10L161,104.5l57.4-25.2,1,7.1-40,18.5,7.9,14.2,51.3-17.7A8.2,8.2,0,0,0,244,92.2Z"/><polygon class="v" points="180.2 152.1 175.4 153.1 134.1 103.6 174.1 156.9 180.2 152.1"/><path class="v" d="M244,94.8a15.4,15.4,0,0,1-6.2,4.9c-3.8,1.4-48.1,15-48.1,15l-5.2-.7,2.8,5.1,51.3-17.7A8,8,0,0,0,244,94.8Z"/><path class="v" d="M161,104.5l8.2-60.7s23.7-2.5,30.3,0S216,50.6,216,50.6l2.4,28.7Z"/><path class="v" d="M153.9,32.1s12.5,15.3,12.8,30.3,5.1,8.8,5.1,8.8l-2.6-27.4S162.8,34.9,153.9,32.1Z"/><path class="v" d="M216.5,56.9s-2.8-16.1,5.1-23.9a24.5,24.5,0,0,0-12.9,15.6C205.7,59.9,216.5,56.9,216.5,56.9Z"/><path class="n" d="M205.5,45.5c.4-.1-.3,11-.3,11l-3.7,5.7s-8.5,6.1-10.1,6.9-10.9.8-10.9.8-2.8,1.4-4.1.8-2.7-5.3-2.7-5.3-5.1-2.8-4.9-13.4,13.7-15.3,13.7-15.3Z"/><path class="n" d="M172.4,25.8s-3.2-1.3-5,1.1,1.3,6.9,1.3,6.9Z"/><path class="n" d="M214.4,46.1s2.3.6,2.3,2.6-4.5,6.8-7.7,6.4S214.4,46.1,214.4,46.1Z"/><path class="w" d="M167.3,48.7s-1.8-19.3,4.5-28.5S185,9.5,185,9.5a17.6,17.6,0,0,1,14.7-1.4c8.2,2.9,15.4,10.6,18,18.6s-1.1,19.7-5.6,25.4a57,57,0,0,1-10.6,10.1s2.6-7.4-.4-7.9c0,0-11.9,9-19.9,8.5s-9.5-2.1-9.5-2.1,9.7-2.3,13.8-5.7c0,0-11.4,3.4-16.6,3.3l3.9-4.8-2.7,1.3A9.7,9.7,0,0,1,167.3,48.7Z"/><path class="x" d="M105.2,235.7,96.5,239l-5.3,13.6s8.4-1.2,10.4,0,2.6,2.8,4.1,5.2c4.8-2.7,7.3-4.3,7.3-4.3Z"/><path class="x" d="M123.6,277.5s-2.3.7-6,2.1c1.6,3.7,3.9,9.8,3.4,13.5-.8,5.5-8,9.7-8,9.7l19.4-5.1Z"/><path class="n" d="M275.7,333.2s-3.4-9.4.1-14.9,15.4-10.6,22.5-7.9c10.5,4,9.8,7.4,9.8,7.4Z"/><path class="w" d="M313.1,318.7s-7.5-8.2-18.8-6.4-13.7,4.2-13.7,4.2h2.9l-5.2,4s-6.2,10.1-6,17.3a21.8,21.8,0,0,0,3.5,11.8s1.4,7,4.7,10,11.3,6.3,17.4,5.6a30.8,30.8,0,0,0,11.3-3.8,13.6,13.6,0,0,0,8.9-4.9,14.6,14.6,0,0,0,3.6-9.5s3.6-4.6,3.8-7.2-1.8-9.4-1.8-9.4S321.1,319.1,313.1,318.7Z"/><path class="w" d="M93.8,269.6s-7.6-8.2-18.8-6.4-13.8,4.2-13.8,4.2h3l-5.3,4s-6.1,10.1-6,17.3a21.8,21.8,0,0,0,3.6,11.7s1.3,7.1,4.6,10.1,11.4,6.2,17.4,5.6a29.9,29.9,0,0,0,11.3-3.8,14.4,14.4,0,0,0,9-5,14.7,14.7,0,0,0,3.5-9.5s3.7-4.5,3.9-7.2-1.9-9.4-1.9-9.4S101.8,270,93.8,269.6Z"/><path class="v" d="M251.1,310l3.1,13,8.6,10.2s2.4-14.4,13.6-23.6,30.8-7,33.6-6.8,13.8,12.9,13.8,12.9l-6-16-15-12.4Z"/><path class="y" d="M344.7,333.9s-21.1,27.2-40.7,32.6c-17.1,4.7-37.9-.7-42.8-2.1,6.4,2.1,32.5,12.5,52,3.4C328.1,360.9,339.4,344.2,344.7,333.9Z"/><path class="s" d="M196.6,161l-9.9-4.6a1.1,1.1,0,0,0-1.4.4h-.1a1.1,1.1,0,0,0,.4,1.8l10.1,4.4a1.2,1.2,0,0,0,1.5-.5A1.2,1.2,0,0,0,196.6,161Z"/><rect class="k" x="265.5" y="148.4" width="61.4" height="43.97"/><rect class="o" x="265.5" y="148.4" width="59.8" height="40.71"/><rect class="k" x="263.7" y="144.5" width="61.4" height="43.97"/><path class="z" d="M104.5,178a2,2,0,0,0,2.6.6l6.3-4-1.9-3.1-6.4,4A1.9,1.9,0,0,0,104.5,178Z"/><circle class="z" cx="119.3" cy="168.8" r="11.3" transform="translate(-84.4 133.8) rotate(-45)"/><circle class="aa" cx="119.3" cy="168.8" r="9.1"/><path class="ab" d="M110.5,171.4a9.2,9.2,0,0,0,17.9-1.3,9.2,9.2,0,0,0-17.9,1.3Z"/><path class="z" d="M278.4,72a1.9,1.9,0,0,0-2.6,0l-5.2,5.3,2.6,2.6,5.2-5.3A1.7,1.7,0,0,0,278.4,72Z"/><circle class="z" cx="265.8" cy="84.7" r="11.3" transform="translate(122.1 323.8) rotate(-76.7)"/><circle class="aa" cx="265.8" cy="84.7" r="9.1"/><path class="ab" d="M257.1,87.3a9.1,9.1,0,0,0,17.8-1.4,9.1,9.1,0,0,0-17.8,1.4Z"/><path class="z" d="M326,238.7a1.7,1.7,0,0,0,.5-2.3l-3.7-5.8-2.8,1.8,3.7,5.8A1.7,1.7,0,0,0,326,238.7Z"/><circle class="z" cx="317.5" cy="224.4" r="10.4" transform="translate(25.9 481.6) rotate(-76.7)"/><circle class="aa" cx="317.5" cy="224.4" r="8.4"/><path class="ab" d="M309.4,226.8a8.4,8.4,0,0,0,16.4-1.3,8.6,8.6,0,0,0-8.1-6A8.5,8.5,0,0,0,309.4,226.8Z"/><path class="n" d="M109.5,277.5c-.2-.6-1.7-.8-3.2-.9-5.6-10.4-19.9-10.8-19.9-10.8s-1.1,4.5,5,11.9,6,22,6,22a26.7,26.7,0,0,0,6.4-5.2c2.7-3,5.4-7.4,4.2-13.1C108.9,279.9,109.8,278.2,109.5,277.5Z"/><path class="v" d="M246.6,287.2l-1.4-5.1a2.6,2.6,0,0,0-2.9-2l-17.8,2.3a2.7,2.7,0,0,0-2.3,3.3l1.3,5.5a2.8,2.8,0,0,0,3.1,2.1l17.8-2.7A2.6,2.6,0,0,0,246.6,287.2Z"/><path class="v" d="M278.9,266.8l4.1,3.4a2.9,2.9,0,0,0,3.6-.2l13-12.2a2.6,2.6,0,0,0-.1-4l-4.3-3.7a2.5,2.5,0,0,0-3.6.1l-12.9,12.6A2.6,2.6,0,0,0,278.9,266.8Z"/><rect class="o" x="257.2" y="111.9" width="61.4" height="43.97" transform="translate(-17 45.4) rotate(-8.8)"/><rect class="k" x="256.7" y="111.5" width="61.4" height="43.97" transform="matrix(0.99, -0.15, 0.15, 0.99, -16.99, 45.37)"/><rect class="o" x="256.5" y="111.6" width="59.8" height="40.71" transform="translate(-16.8 45.2) rotate(-8.8)"/><rect class="k" x="254.3" y="107.9" width="61.4" height="43.97" transform="translate(-16.5 45) rotate(-8.8)"/><circle class="ac" cx="315" cy="167.7" r="4.6"/><path class="k" d="M315.4,171.3l2.1-2-1.7-1.7h0l1.7-1.6-2.1-2-1.6,1.6h0l-2,2.1,2,2h0Zm1.3-2-1.3,1.2-1.2-1.2,1.2-1.2Zm0-3.3-1.3,1.2-1.2-1.2,1.2-1.2Zm-4.1,1.7,1.2-1.3,1.2,1.3-1.2,1.2Z"/><path class="ad" d="M303,157.7v23.7a.8.8,0,0,1-.7.8.9.9,0,0,1-.8-.8V158Z"/><path class="ad" d="M295,158.8v22.6a.9.9,0,0,1-.8.8.8.8,0,0,1-.7-.8V159Z"/><path class="ad" d="M286.9,160v21.4a.7.7,0,1,1-1.4,0V160.2Z"/><path class="ad" d="M278.9,161.4v20a.7.7,0,1,1-1.4,0V161.7Z"/><path class="ae" d="M300.1,138.8l2.2-11.4-5.4-10.1c-.8-1.2-1.4-2.4-2.6-2.2l-6.4.9a24.7,24.7,0,0,0-12,5.4,22.1,22.1,0,0,0-7.3,11.1c2.1,4.2,6.3,6.9,9.9,8.4a24.6,24.6,0,0,0,13.1,1.7l5.7-.9C299.1,141.5,299.8,140.4,300.1,138.8Z"/><g class="af"><path d="M272.3,132a16.9,16.9,0,0,1,5.8-8.8,19.2,19.2,0,0,1,9.5-4.3l4.5-.6a2.6,2.6,0,0,1,2.7,1.4l4.6,8.2,2.9-.5-5.4-10.1c-.6-1-1.4-2.4-2.6-2.2l-6.4.9a24.7,24.7,0,0,0-12,5.4,22.1,22.1,0,0,0-7.3,11.1Z"/></g><g class="ag"><path d="M268.6,132.5l1.2,2a19.5,19.5,0,0,0,4.2,4,30.9,30.9,0,0,0,4.7,2.5,23,23,0,0,0,13.2,1.5l5.2-.7c2.6-.4,2.6-1.8,3-3l2.2-11.4-2.9.5-2,9.2a2.9,2.9,0,0,1-2.3,2.2l-4.4.7a18.6,18.6,0,0,1-10.4-1.4,17,17,0,0,1-8-6.6Z"/></g><path class="ah" d="M289.9,132.2h.8a2.8,2.8,0,0,0,2.4-3.2,2.8,2.8,0,0,0-3.2-2.4H289a1.6,1.6,0,0,0-1.7-1.1l-5,.7a1.7,1.7,0,0,0-1.4,1.8l.8,5.3a1.6,1.6,0,0,0,1.8,1.3l5-.7A1.8,1.8,0,0,0,289.9,132.2Zm-5.7-1.2-.2-1.4h1c.2-.3.4-.5.7-.5a.8.8,0,0,1,1,.7.9.9,0,0,1-.8.9.7.7,0,0,1-.7-.2Zm5.6.6-.7-4.4h.9a2.2,2.2,0,0,1,2.5,1.9,2.2,2.2,0,0,1-1.9,2.5Z"/><path class="k" d="M288.2,120.6l.9-.3,2.1-.4h2.2l.6.4c0,.2.1.3,0,.3a.7.7,0,0,0-.6-.5h-2.2l-2.1.4C288.6,120.6,288.2,120.7,288.2,120.6Z"/><path class="k" d="M285.5,121.2c0-.1.2-.2.6-.2h.6l-.6.2Z"/></svg>