<svg xmlns="http://www.w3.org/2000/svg" xmlns:xlink="http://www.w3.org/1999/xlink" viewBox="0 0 400 400"><defs><style>.a{isolation:isolate;}.b{fill:url(#a);}.c{fill:url(#b);}.d{fill:#1b1b35;}.e{fill:url(#c);}.f{fill:url(#d);}.g,.h{fill:#d3c2be;}.ag,.g,.h{opacity:0.5;}.g{mix-blend-mode:screen;}.ag,.h{mix-blend-mode:multiply;}.i{fill:url(#e);}.j{fill:url(#f);}.k{fill:#f0dcc1;}.l{fill:#ceb699;}.m{fill:#fff;}.n{fill:#c8cbda;}.o{fill:#939cbb;}.p{fill:#382632;}.q{fill:#63b4f7;}.r{fill:#288ed9;}.s{fill:#005b9f;}.t{fill:#98cdf2;}.u{fill:#1f364c;}.v{fill:#152735;}.w{fill:#21e2e2;}.x{fill:#f0d2b9;}.y{fill:#ffe7cb;}.z{fill:#f59b6b;}.aa,.ac,.ad,.ae,.aj,.ak,.al{opacity:0.78;mix-blend-mode:overlay;}.aa{fill:url(#g);}.ab{fill:#0e71bb;}.ac{fill:url(#h);}.ad{fill:url(#i);}.ae{fill:url(#j);}.af{fill:url(#k);}.ag{fill:#175dcc;}.ah{fill:url(#l);}.ai{fill:#80a7ea;}.aj{fill:url(#m);}.ak{fill:url(#n);}.al{fill:url(#o);}.am{fill:url(#p);}.an{fill:url(#q);}.ao{fill:url(#r);}.ap{fill:#00c1bc;}.aq{fill:#4987ce;}.ar{fill:#28aae1;}</style><linearGradient id="a" x1="197.78" y1="338.25" x2="151.23" y2="74.28" gradientUnits="userSpaceOnUse"><stop offset="0" stop-color="#c6e6ff"/><stop offset="1" stop-color="#fff"/></linearGradient><linearGradient id="b" x1="305.71" y1="213.31" x2="353.94" y2="213.31" gradientUnits="userSpaceOnUse"><stop offset="0" stop-color="#ffbc98"/><stop offset="1" stop-color="#ff9f6c"/></linearGradient><linearGradient id="c" x1="348.89" y1="222.78" x2="389.57" y2="222.78" gradientUnits="userSpaceOnUse"><stop offset="0" stop-color="#44989f"/><stop offset="0.21" stop-color="#39b0b4"/><stop offset="0.52" stop-color="#2ccbcd"/><stop offset="0.8" stop-color="#24dcdd"/><stop offset="1" stop-color="#21e2e2"/></linearGradient><linearGradient id="d" x1="328.61" y1="297.46" x2="372.73" y2="297.46" xlink:href="#b"/><linearGradient id="e" x1="337.08" y1="329.93" x2="364.25" y2="329.93" xlink:href="#b"/><linearGradient id="f" x1="326.64" y1="269.78" x2="374.69" y2="269.78" xlink:href="#b"/><linearGradient id="g" x1="249" y1="204.76" x2="264.52" y2="204.76" gradientUnits="userSpaceOnUse"><stop offset="0"/><stop offset="1" stop-opacity="0"/></linearGradient><linearGradient id="h" x1="186.5" y1="207.15" x2="202.55" y2="207.15" xlink:href="#g"/><linearGradient id="i" x1="236.17" y1="200.13" x2="244.86" y2="200.13" xlink:href="#g"/><linearGradient id="j" x1="207.12" y1="200.13" x2="219.35" y2="200.13" xlink:href="#g"/><linearGradient id="k" x1="13.59" y1="229.69" x2="327.45" y2="229.69" gradientUnits="userSpaceOnUse"><stop offset="0.22" stop-color="#8ab4fd"/><stop offset="1" stop-color="#c7dbfd"/></linearGradient><linearGradient id="l" x1="28.72" y1="243.76" x2="312.32" y2="243.76" xlink:href="#k"/><linearGradient id="m" x1="91.14" y1="168.45" x2="107.88" y2="168.45" xlink:href="#g"/><linearGradient id="n" x1="45.96" y1="169.12" x2="84.23" y2="169.12" xlink:href="#g"/><linearGradient id="o" x1="39.48" y1="188.49" x2="53.85" y2="188.49" xlink:href="#g"/><linearGradient id="p" x1="169.35" y1="212.99" x2="178.83" y2="212.99" gradientTransform="translate(-66.2 79.2) rotate(-21.6)" xlink:href="#c"/><linearGradient id="q" x1="165.47" y1="224.52" x2="176.94" y2="224.52" xlink:href="#b"/><linearGradient id="r" x1="165.47" y1="211.3" x2="176.94" y2="211.3" xlink:href="#b"/></defs><title>what-is-windows-dedicated-server</title><g class="a"><path class="b" d="M354.9,234c-6-18.6-15.5-24.3-24.5-36.2-11.1-14.5-18.5-25.1-15.6-43.8,4.6-30.5,6.6-106.7-66.7-96.8-26.2,3.6-47,25.8-62.1,48-12.9,18.9-36,20.5-54.6,24.9-22.9,5.4-46.2,13.6-67.3,25.6-43.6,24.6-56.6,60-54.8,105.4.5,13.7,2.3,35.2,23.2,60.5,28.3,34,69.5,38.6,118.9,23,11.4-3.6,22.1-9.2,33.2-13.5a143.6,143.6,0,0,1,35.8-8.5c28.4-3.1,57.9,2.4,85.2-7a88.6,88.6,0,0,0,38-26A57.4,57.4,0,0,0,354.9,234Z"/><path class="c" d="M347.8,258.1s7.7-16,5.9-26.6-11.3-8.3-8.7-21,.3-20.2-7.3-21.5-7.7-7.6-12.9-16.2-22.1-5.5-18.6,10.8c4.5,21.6,15.2,15.2,18.6,23.8s-3.2,18.4,1.9,27.4S341.5,239.6,347.8,258.1Z"/><path class="d" d="M348.1,273.8h-1c0-.1,1.5-12.7-1.5-30.3s-9.8-40.2-28.4-62.2l.7-.6a131.1,131.1,0,0,1,28.8,62.7C349.6,261,348.1,273.7,348.1,273.8Z"/><path class="e" d="M354,260.6s-6.4-13.6-4.9-22.5,9.5-7,7.3-17.7-.2-17,6.2-18.1,6.5-6.4,10.9-13.7,18.6-4.7,15.7,9.1c-3.9,18.2-12.9,12.9-15.7,20.1s2.7,15.5-1.7,23.1S359.4,245,354,260.6Z"/><path class="d" d="M353.8,273.8a99.6,99.6,0,0,1,1.2-25.7,109.7,109.7,0,0,1,24.3-52.9l.6.5a109.5,109.5,0,0,0-24,52.5,98,98,0,0,0-1.2,25.5Z"/><polygon class="f" points="366.3 327.9 335 327.9 328.6 267 372.7 267 366.3 327.9"/><polygon class="g" points="330.5 267 336.9 327.9 341.1 327.9 334.7 267 330.5 267"/><polygon class="h" points="372.7 267 366.3 327.9 357.9 327.9 364.3 267 372.7 267"/><polygon class="h" points="371.6 277.9 372 274.2 329.4 274.2 329.8 277.9 371.6 277.9"/><rect class="i" x="337.1" y="327.9" width="27.2" height="3.97"/><rect class="h" x="337.1" y="327.9" width="27.2" height="1.98"/><rect class="j" x="326.6" y="265.4" width="48.1" height="8.8"/><rect class="h" x="365.8" y="265.4" width="8.9" height="8.8"/><rect class="g" x="327.8" y="265.4" width="6" height="8.8"/><rect class="k" x="128.5" y="134.1" width="39.8" height="56.19" rx="2.8"/><polygon class="l" points="164.5 185.9 131.1 186.5 131.7 137.6 165.1 136.9 164.5 185.9"/><rect class="m" x="132.1" y="137.2" width="33.5" height="48.2" transform="translate(-3.1 2.9) rotate(-1.1)"/><rect class="n" x="136.8" y="167.7" width="24.6" height="1.32" transform="translate(-3.3 2.9) rotate(-1.1)"/><rect class="n" x="136.8" y="170.9" width="24.6" height="1.32" transform="translate(-3.3 2.9) rotate(-1.1)"/><rect class="n" x="136.9" y="174.1" width="24.6" height="1.32" transform="translate(-3.4 2.9) rotate(-1.1)"/><rect class="n" x="136.9" y="177.4" width="13.6" height="1.32" transform="translate(-3.5 2.8) rotate(-1.1)"/><rect class="o" x="135.6" y="137.6" width="25.6" height="0.79"/><path class="n" d="M152.4,132.4h0a.7.7,0,0,1-.7-1,3.3,3.3,0,0,0,.2-2.2,3.7,3.7,0,0,0-7.2.8,3.2,3.2,0,0,0,.3,1.4.7.7,0,0,1-.6,1h0a8.3,8.3,0,0,0-5.4,2.1l-3.4,3.1h25.6l-3.4-3.1A8.3,8.3,0,0,0,152.4,132.4Z"/><path class="p" d="M149.3,130a.9.9,0,1,1-1.8,0,.9.9,0,0,1,1.8,0Z"/><path class="q" d="M312.2,180.1l-6.5,43.5a.7.7,0,0,0,.6.7h3.2a.6.6,0,0,0,.6-.5l6.4-43.5a.6.6,0,0,0-.6-.7h-3.1A.6.6,0,0,0,312.2,180.1Z"/><path class="r" d="M312.2,179.9a.6.6,0,0,1,.6-.5h3.1a.6.6,0,0,1,.6.7l-1,7.3-.9,1a.6.6,0,0,1-.9.1l-2.4-2.6Z"/><path class="r" d="M275,148.6a5.4,5.4,0,0,0,4.6-1.7l2.8-2.6a.8.8,0,0,1,1.2.1l4.9,4.8a.9.9,0,0,1,0,1.3l-2.7,2.7a5.6,5.6,0,0,0-1.7,4.7c.3,4.6-1.9,10.2-6.2,14.8a1.1,1.1,0,0,1-1.6-.1l-16.1-16.4a1,1,0,0,1-.1-1.6C264.7,150.3,270.3,148.3,275,148.6Z"/><path class="q" d="M284.1,153.7,313.2,185a1.2,1.2,0,0,0,1.9,0l1.1-1.5a1.2,1.2,0,0,0,0-1.6l-29.1-31.4c-.2-.3-1.3.2-2.1,1.1S283.9,153.5,284.1,153.7Z"/><path class="s" d="M310.1,223.8a.6.6,0,0,1-.6.5h-3.2a.7.7,0,0,1-.6-.7l1-6.8h4.4Z"/><path class="s" d="M284.8,225.3h28.8a1.8,1.8,0,0,0-1.8-1.8H286.5a1.8,1.8,0,0,0-1.7,1.8Z"/><path class="s" d="M312.7,182.9a1.1,1.1,0,0,0,2.2,0,1.1,1.1,0,1,0-2.2,0Z"/><path class="r" d="M312.8,182.5a1.1,1.1,0,0,0,2.2,0,1.1,1.1,0,0,0-2.2,0Z"/><rect class="t" x="220.1" y="212.9" width="6.8" height="108.36"/><path class="t" d="M218.6,290.8h9.8a1.8,1.8,0,0,1,1.8,1.8v19.3a0,0,0,0,1,0,0H216.8a0,0,0,0,1,0,0V292.6A1.8,1.8,0,0,1,218.6,290.8Z"/><polygon class="t" points="223.5 311.9 223.5 319.2 185.2 324.7 185.2 321.2 216.8 311.9 223.5 311.9"/><path class="t" d="M189.4,328.5a3.7,3.7,0,0,1-3.7,3.6,3.6,3.6,0,1,1,0-7.2A3.7,3.7,0,0,1,189.4,328.5Z"/><polygon class="t" points="186.3 326.7 185.2 326.7 185.2 321.2 186.3 320.9 186.3 326.7"/><polygon class="t" points="223.5 311.9 223.5 319.2 261.8 324.7 261.8 321.2 230.2 311.9 223.5 311.9"/><path class="t" d="M257.6,328.5a3.6,3.6,0,0,0,3.6,3.6,3.6,3.6,0,1,0,0-7.2A3.6,3.6,0,0,0,257.6,328.5Z"/><path class="t" d="M219.8,328.5a3.7,3.7,0,0,0,3.7,3.6,3.6,3.6,0,0,0,0-7.2A3.7,3.7,0,0,0,219.8,328.5Z"/><polygon class="t" points="260.7 326.7 261.8 326.7 261.8 321.2 260.7 320.9 260.7 326.7"/><rect class="p" x="222.9" y="321.2" width="1.1" height="5.47"/><rect class="p" x="191.8" y="192.3" width="63.3" height="43.22" rx="10.3"/><rect class="r" x="193.3" y="192.3" width="60.3" height="41.21" rx="9.8"/><path class="t" d="M223.5,266.5c-27,0-35-2.9-36.2-6.7-1.2,4.9,4,9.1,36.2,9.1s37.4-4.2,36.2-9.1C258.5,263.6,250.5,266.5,223.5,266.5Z"/><path class="t" d="M258.2,254.2c3.7,6.3,4.4,12.3-34.7,12.3s-38.4-6-34.7-12.3,7.1-8.7,34.7-8.7S255.2,249.1,258.2,254.2Z"/><path class="u" d="M208.9,268.7c-.5-4.1,4.2-4.7,6.2-4.9a74.8,74.8,0,0,0,8.1-1.3c.9-1.7,1.5-26,1.5-26H213s-16.9,9.7-19.7,14.1-4.8,10.8.8,22.7Z"/><path class="u" d="M251,272.5c1.1-6.6,7.5-11.1,2.7-21.9s-13-14.1-13-14.1h-16l-1.5,26s13.1,1.1,14.5,6.2S251,272.5,251,272.5Z"/><path class="v" d="M240.5,266.2c-7.1-3.7-16.7-9.9-16.7-9.9l-10,4.2c-4.2,1.8-7.6,3.5-9.5,8.6l-.3,1.1,4.9-1.5c-.5-4.1,4.2-4.7,6.2-4.9a74.8,74.8,0,0,0,8.1-1.3s13.1,1.1,14.5,6.2c.6,2.1,2.8,3.1,5.3,3.5C242.7,269.4,243.8,267.9,240.5,266.2Z"/><polygon class="w" points="242.1 331 226.7 331 227.4 332.1 242.1 332.1 242.1 331"/><path class="w" d="M224.3,326.6c.5-.4-.9-2.6,1.3-5s5.2-1.8,5.8-1.8.9-.7,0-2.2l5.1,4.3c3.3,2.9,5.5,4,5.6,9.1H226.7a60.7,60.7,0,0,1-4-5.8C222.8,325.5,223.9,327,224.3,326.6Z"/><path class="x" d="M228.9,315.8l2.5,1.8c.9,1.5.6,2.2,0,2.2s-3.6-.6-5.8,1.8-.8,4.6-1.3,5-1.5-1.1-1.6-1.4a37.8,37.8,0,0,1-2.8-5.3C222.6,320.1,227,318.6,228.9,315.8Z"/><path class="u" d="M196.7,283c-1.6-10.5-8-16.9-.8-26.3,1.9-2.5,8-2,11.2,2.6,2.1,2.9,1.4,4.9,1.5,6.6.1,7,5.7,10.8,10.4,26.3s9.8,23.5,9.8,23.5h.1c-1.9,2.8-6.3,4.3-9,4.1-.4-.9-.7-1.9-1-2.8C217.2,310.6,198.7,295.9,196.7,283Z"/><path class="v" d="M218.9,317.1c.3.9.6,1.9,1,2.8,2.7.2,7.1-1.3,9-4.1h-.1s-3.9-6-8-17.7a75.2,75.2,0,0,1-4.3,14.8A13.6,13.6,0,0,1,218.9,317.1Z"/><polygon class="w" points="204 331 219.3 331 218.6 332.1 204 332.1 204 331"/><path class="w" d="M221.6,326.6c-.5-.4.8-2.6-1.4-5s-5.2-1.8-5.8-1.8-.9-.7,0-2.2l-5,4.3c-3.3,2.9-5.4,4-5.4,9.1h15.3a51.4,51.4,0,0,0,3.9-5.8C223.1,325.5,222.1,327,221.6,326.6Z"/><path class="y" d="M216.8,315.8l-2.4,1.8c-.9,1.5-.6,2.2,0,2.2s3.6-.6,5.8,1.8.9,4.6,1.4,5,1.5-1.1,1.6-1.4a29.3,29.3,0,0,0,2.7-5.3C223.2,320.1,218.8,318.6,216.8,315.8Z"/><path class="u" d="M248.3,283c1.5-10.5,7.7-16.9.3-26.3-2-2.5-8.1-2-11.2,2.6-2,2.9-1.3,4.9-1.3,6.6,0,7-5.4,10.8-9.8,26.3s-9.4,23.5-9.4,23.5h-.1c2,2.8,6.4,4.3,9.1,4.1a15.2,15.2,0,0,0,.9-2.8C228.4,310.6,246.6,295.9,248.3,283Z"/><path class="z" d="M226.3,166.1c-3.9,0-9.9,3.9-9.9,8.6s3.8,42.6-3.4,61.8h27.7s-5.4-34.1-5.4-47.8S239.3,166.1,226.3,166.1Z"/><path class="r" d="M255.2,181.5c1.8,2.6,7.1,24.9,9.8,31.4a36.3,36.3,0,0,1,1.6,4.6H252.8c-1.7.1-3.6-6.9-3.8-10.4s2.3-16.4,4.3-20.9Z"/><path class="aa" d="M257.8,213.6c-1.1-1-4.7-13.7-6.4-21.6-1.4,5.6-2.5,12.6-2.4,15s2.1,10.5,3.8,10.4h7.6l4.1-2.3C260.8,213.3,259.1,214.8,257.8,213.6Z"/><path class="r" d="M266.6,217.5c1.5,3.6.9,6.7-.8,8.1s-8,.6-12.1,1.5V226s2.5-5.7.4-8.6v-1.8s.4.4,1.6.1S264.3,212.3,266.6,217.5Z"/><path class="z" d="M253.7,226s2.5-5.7.4-8.6Z"/><path class="r" d="M240.1,175.1c9.9,3.4,15.3,5.3,15.1,6.4s-3.6,9.5-5.6,21.9-2.6,15.8-.4,22.8,7.3,18.6,8.3,24.4,1.8,11.3-.7,13.2a28.3,28.3,0,0,0-8.8-16c-7.7-7.2-11.9-7.7-11.9-22.7S240.1,175.1,240.1,175.1Z"/><path class="r" d="M211.7,175.1a154.5,154.5,0,0,1-15.1,6.2,51.5,51.5,0,0,1,4.2,17.7c.3,9.4,3.9,14.9,3.3,23.2s-13.8,18.8-10.8,28.4c0,0,3.5-3.8,10.7-6.6s14.8-9.2,15.3-24S211.7,175.1,211.7,175.1Z"/><path class="y" d="M218.5,162.7a116.7,116.7,0,0,0,0,12.1c.4,3.4,7.4,16.6,7.4,16.6s7.4-4.1,8-14.4.1-14,.1-14Z"/><path class="x" d="M218.5,162.7s-.2,4.7-.2,8.6,3.9,8.3,8,8.3,6.1-2.3,7.7-5.4a73.9,73.9,0,0,0,0-11.2Z"/><path class="x" d="M234,163.1c-.4,1.8-.2,3.4.5,3.6s1.7-1.1,2.2-2.9.2-3.4-.5-3.6S234.5,161.3,234,163.1Z"/><path class="x" d="M218.2,163.1c.5,1.8.2,3.4-.5,3.6s-1.7-1.1-2.1-2.9-.3-3.4.5-3.6S217.8,161.3,218.2,163.1Z"/><path class="ab" d="M236.7,158.8a3.6,3.6,0,0,1,1.3-1.7,4.5,4.5,0,0,0,1.2-1.6,1.3,1.3,0,0,0-.7-1.8,3.8,3.8,0,0,0-4-6.1,3.6,3.6,0,0,0,.5-2.8,1.6,1.6,0,0,0-2.2-1,3.8,3.8,0,0,0-1.7-4,8.4,8.4,0,0,0-4.4-1.3,11,11,0,0,0-6.9,1.4c-2,1.3-3.3,4-2.5,6.2a2.1,2.1,0,0,1,.3,1.3c-.2.6-1,.8-1.6.9a10.6,10.6,0,0,0-4.3,1.6A4.1,4.1,0,0,0,210,154c.4,1.5,2.3,2.6,3.7,1.8a4.4,4.4,0,0,0-.8,3.7c1.3,4.5,5.1,3.5,5.6,3.2s.9-1.6,1.7-2.1,2-.2,2.9.2c3.5,1.5,6.8,1.4,10.4,2.1.8.2,2.1.9,2.9.3S236.3,160,236.7,158.8Z"/><path class="y" d="M218.2,157.2a2.1,2.1,0,0,0-1.8,2.1c.3,7.7,4.4,13.8,9.6,13.8s8.8-5,9.3-10.1a2.4,2.4,0,0,0-.6-2c-.8-1-2.1-3.4-1.9-8.6C232.8,152.4,228.1,156.1,218.2,157.2Z"/><path class="r" d="M196.6,181.3c-2.4.9-3.1,10.8-8.8,23.3s-5,18.4-2.4,20.5c0,0,12.7-8.5,15.9-9.6,0,0,2-1.9,1-6.7S200.7,179.8,196.6,181.3Z"/><path class="ac" d="M202.3,208.8c-.5-2.3-.9-9.6-1.7-16.1-.8,5.8-3.3,13.1-5.7,19.1a1.5,1.5,0,0,1-1.2,1c-4.8,1.1-6.5,4-7.2,7.9,0,0,4.6.1,4.2,1,3.9-2.5,8.7-5.5,10.6-6.2C201.3,215.5,203.3,213.6,202.3,208.8Z"/><path class="r" d="M203,215.2c0-.8-1.3-.8-3.8-.6s-3.7-.5-5.4-.1c-7.7,1.8-7.8,8.6-8.4,10.6,0,0,1.9,1.3,8.5,1.3,4.8,0,10,1.4,10.9-1.3a5.3,5.3,0,0,1-3.9,1.1c-3-.2-5.3-3-4.5-6.8S203,215.2,203,215.2Z"/><path class="z" d="M204.8,225.1a5.3,5.3,0,0,1-3.9,1.1c-3-.2-5.3-3-4.5-6.8s6.6-4.2,6.6-4.2h.8a1.5,1.5,0,0,1,1.6,1.7Z"/><path class="x" d="M209.4,219c0,1.9-2.1,4.7-4.6,4.7a4.8,4.8,0,0,1-4.6-4.7c0-1.9,2.1-3.4,4.6-3.4S209.4,217.1,209.4,219Z"/><path class="ad" d="M244.8,183.6c.2-.4-.2-.8-.7-.7l-2.6.7h-.1c.5-.4,3-3.4,2-5.8a8,8,0,0,0-1.5-2l-1.8-.6s-3.4,30.4-3.9,46.7c0,1.2.1,2.3.1,3.3C236.3,208.5,242,188.3,244.8,183.6Z"/><path class="r" d="M242.4,182.9l-2.1.7h0c.3-.4,2.4-3.4,1.5-5.8s-3.7-4.7-5.9-6l-.3-.2c.9,4-.3,9.9-.3,17.2,0,9.9.5,27.5.8,36.4,0-16.6,4.7-36.8,6.9-41.5A.5.5,0,0,0,242.4,182.9Z"/><path class="ae" d="M219.3,217.8c-.2-15.4-7.6-42.7-7.6-42.7l-2.2,1a10.1,10.1,0,0,0-1,1.6c-1,2.4,1.4,5.4,1.8,5.8h0l-2.5-.7a.5.5,0,0,0-.6.7c2.6,4.7,13.3,25.4,11.5,41.5C219,222.9,219.2,220.4,219.3,217.8Z"/><path class="r" d="M215.9,171.7l1.8-.8a7,7,0,0,0-1.3,3.8c0,4.1,4.6,34.2,2.3,50.4,1.6-16.1-7.7-36.8-9.9-41.5a.5.5,0,0,1,.6-.7l2.1.7h0c-.4-.4-2.4-3.4-1.6-5.8S213.7,173,215.9,171.7Z"/><path class="s" d="M252.6,228.9H206.1a1.1,1.1,0,0,1-1.1-1.1l-1-28.3a1,1,0,0,1,1.1-1.1h48.6a1.1,1.1,0,0,1,1.1,1.1l-1.1,28.3A1.1,1.1,0,0,1,252.6,228.9Z"/><path class="af" d="M312.3,234.2H28.7a17.8,17.8,0,0,1-11.2-3.8l-3.9-3.3a2.3,2.3,0,0,1,2.5-2H325a2.3,2.3,0,0,1,2.5,2l-3.9,3.3A18.1,18.1,0,0,1,312.3,234.2Z"/><path class="ag" d="M28.7,234.2H312.3a18.1,18.1,0,0,0,11.3-3.8H17.5A17.8,17.8,0,0,0,28.7,234.2Z"/><rect class="ah" x="28.7" y="234.2" width="283.6" height="19.05"/><rect class="ag" x="28.7" y="234.2" width="283.6" height="8.02"/><path class="ai" d="M41.6,332.1h0a1.9,1.9,0,0,1-1.8-1.9l-2.5-96h8.6l-2.5,96A1.8,1.8,0,0,1,41.6,332.1Z"/><polygon class="ag" points="37.3 234.2 37.5 242.2 45.7 242.2 45.9 234.2 37.3 234.2"/><path class="ai" d="M299.4,332.1h0a1.8,1.8,0,0,0,1.8-1.9l2.5-96h-8.6l2.5,96A2,2,0,0,0,299.4,332.1Z"/><polygon class="ag" points="303.7 234.2 303.5 242.2 295.3 242.2 295.1 234.2 303.7 234.2"/><path class="w" d="M132.1,275.3c-3.5,4.7-4.3,4-4.3,6.8s4.9,6.3,6.9,15.6c1.5,6.9,4.9,9.2,8.6,7.8s2.1-7.2,1-10.4a59.5,59.5,0,0,1-1.8-9.4Z"/><path class="y" d="M132.1,275.3c-.1,3.6,1.7,6.5,5.1,7.5Z"/><path class="u" d="M95.7,195.3c17.9,9.5,47.3,20.7,50.8,25.1,9.4,11.9-4.2,51.5-4,65.3a5.7,5.7,0,0,1-6.3-2.8c-2.5-4.5-3.5-5.6-4.1-7.6,0,0,1.1-14.1-.2-23.3s-3.7-13.5-1.4-19.6c0,0-31.9-10.2-39.5-6L80.5,202.1Z"/><path class="v" d="M132.8,228.5c-1-2.5-34.5-10-43.1-14.6l-2.4,3.9,3.7,8.6c7.6-4.2,39.5,6,39.5,6-2.3,6.1.2,10.4,1.4,19.6s.2,23.3.2,23.3a13.8,13.8,0,0,0,1.3,2.8c.7-7.9,2.7-18.8-.7-30.2C128.5,233.4,133.8,231.1,132.8,228.5Z"/><path class="w" d="M108,321.6c.7,3.8-1.8,4.9-.9,9.9,0,.4.4.6.8.6h19.7a.8.8,0,0,0,.8-1,7.3,7.3,0,0,0-2.4-3.8c-1.3-1-7.2-2.5-8.2-5.7Z"/><path class="u" d="M53.8,203.4c-5.3,11.5-3.4,22.3,7.5,29.9S91.2,263.7,91,264.7s-3.5,14.7,6.6,32.5S108,321.6,108,321.6h9.8s-5.3-30.4-6.7-41.3.9-16.5-2.1-21.5-15.5-24.5-15.5-31.4,2-19.4-5.1-25.9S53.8,203.4,53.8,203.4Z"/><path class="r" d="M93.7,138.8c5.8,6.5,9.7,21.7,7.4,36.5-.2,1.4,5.6,9.6,6.8,14l-12.2,6s-1.6-4.5-3.9-14.1S93.7,138.8,93.7,138.8Z"/><path class="aj" d="M99.5,190.1c-3.2-.9-4.7-9.5-4.5-11.3.7-7.2,5.5-16.4,2.3-30.4a11.2,11.2,0,0,0-4-6.8c-.9,8.1-3.3,31.7-1.5,39.6,2.3,9.6,3.9,14.1,3.9,14.1l12.2-6S102.7,191,99.5,190.1Z"/><path class="r" d="M95.7,195.3c1.2,3.5,3.3,4.7,3.7,4.9s.1.1.1,0l13.7-5.9c.1,0,.1-.1.1-.2s-1.1-4.6-3.5-6.8c0-.1-.1-.1-.2-.1l-13.9,7.9C95.7,195.2,95.6,195.2,95.7,195.3Z"/><path class="r" d="M95.6,191.2c-1.5-5.8-4.1-8.2-2-14.8,2.7-8.7,5.6-16.6,3.7-28s-10.8-19.6-18.1-19.6c-5.6,0-18.7,5.6-24.7,12.3s-8.4,14.4-8.5,25.3c-.2,17.6,4.7,22.1,3.3,33.3-.7,5.6.8,9.2,3.6,9.7s14-2.6,24.8-2.7C91.7,206.6,97.1,196.9,95.6,191.2Z"/><path class="ak" d="M64.3,142.9c4.9-5.8,12.7-8,19.9-10.9l-.2-2.1a12,12,0,0,0-4.8-1.1c-5.6,0-18.7,5.6-24.7,12.3s-8.4,14.4-8.5,25.3c-.2,17.6,4.7,22.1,3.3,33.3-.7,5.6.8,9.2,3.6,9.7s7.6-.9,14.4-1.8h0c-3.9-1.4-1.7-3.3-2.8-7s-8.5-6-4.8-15.6c3-7.7,1.3-15.9,7-23.8C71,155.2,60.5,147.5,64.3,142.9Z"/><path class="y" d="M100.5,135.1l-2.3-.5L89.1,143s-7.6-8.6-9.9-14.2l17.5-16.4Z"/><path class="x" d="M96.7,112.4,79.2,128.8a18.1,18.1,0,0,0,2.3,4.3c7.8-1.8,12.4.6,16.7,1.5l2.3.5Z"/><path class="ab" d="M109,112.7c-.7-.4-1.5-.4-2.2-.8s-.9-2.7-1-4.1a5.5,5.5,0,0,0-3.3-5.1,4.1,4.1,0,0,0-5.4,2,3,3,0,0,0-.3-3,7.3,7.3,0,0,0-2.2-2.1,9,9,0,0,0-4.7-1.7,4.4,4.4,0,0,0-4,2.4,8.7,8.7,0,0,0-.1,3.6c0,1.3-.4,2.7-1.5,3.2s-2.7-.3-4,0-2.4,2.2-2.7,3.9a8.7,8.7,0,0,0,.2,4.8,4.3,4.3,0,0,0,3.8,2.9,4.7,4.7,0,0,0-4.5,3.2,5.9,5.9,0,0,0,1.5,5.5,8,8,0,0,0,5.2,2.5,13.1,13.1,0,0,0,5.9-.6,6,6,0,0,0,2.6-1.1,3.3,3.3,0,0,0,1.2-2.4c-.1-.6-.4-1.2-.5-1.9a1.4,1.4,0,0,1,.8-1.6,3.2,3.2,0,0,0,.2,2.2,1.3,1.3,0,0,0,1.9.5,2,2,0,0,0,.3-1.1,11.7,11.7,0,0,0-.6-2,2.6,2.6,0,0,1-.1-2.1,1.2,1.2,0,0,1,1.7-.8c.5.2.7.8.9,1.3l1.2,3.8a10.1,10.1,0,0,0,.9,1.8,2.1,2.1,0,0,0,1.9.8c.9-.2,1.4-1.2,1.7-2.1s.8-5.8,3.4-6.8,2.6-.5,3.1-1.9A2.5,2.5,0,0,0,109,112.7Z"/><path class="y" d="M99.6,120.9c.5-3.1-1.7-4.7-2.7-3.8s-1,7.9,1.3,7.8-2.1,7.8,2.3,10.2c0,0,2.3,1.1,4.6-4.5s1.4-14.6,1.4-14.6a1.2,1.2,0,0,0-1.8,1.1c-.3,1.8-2.2,7.1-3.3,7.1S99.5,121.8,99.6,120.9Z"/><path class="r" d="M53.9,187.7a29.8,29.8,0,0,1-.8-4.7s8-15.4,12.4-20.3,9.2-12.8,4.9-19.8-11.8-8-19.6,2.4-16.1,29.7-15.6,35S39.5,192,39.5,192Z"/><path class="y" d="M54.7,197.9h0a17.8,17.8,0,0,1-11.8.3h-.1c2.9,5.4,11,15.1,15.6,19.4s4.2,8.7,8.2,8.7V214Z"/><path class="x" d="M64,223.4c-1.6-1.4-3-5.8-8-11.3s-4.5-10.9-.2-12.7l-1.1-1.5h0a17.8,17.8,0,0,1-11.8.3h-.1c2.9,5.4,11,15.1,15.6,19.4s4.2,8.7,8.2,8.7V214l-1.4-1.8C65.2,216.5,65.1,224.4,64,223.4Z"/><polygon class="al" points="39.5 192 53.4 185 53.9 187.7 39.5 192"/><path class="r" d="M39.5,192l16.1-4.9,1.2,8.8a.9.9,0,0,1-.5,1.1c-1.8,1.2-7.8,4-17.1-.1a1.4,1.4,0,0,1-.7-1A6.5,6.5,0,0,1,39.5,192Z"/><path class="y" d="M99.5,200.2c5.7,4.6,16.4,10.1,16.9,11.5s.2,3.2.6,5.9-.8,4.8,1.2,5,3.2-3.5,3.2-3.5a12.5,12.5,0,0,1,1.7,3.5c.1.9-1.1,3.8-1.1,3.8s-2.2,1.4-2,1.9,4.5-.1,6.1-1.9a12.7,12.7,0,0,0,2.3-5,1.7,1.7,0,0,0,.1-.7c-.3-1.5-1.3-8.4-2.5-9.9s-14.7-15.7-14.7-15.7Z"/><path class="x" d="M111.8,195.7l-.5-.6-11.8,5.1c5.5,4.4,15.6,9.7,16.8,11.3-1.8-2.9-9.9-7.6-10.3-10.3S108,197,111.8,195.7Z"/><rect class="am" x="173.6" y="201.3" width="0.9" height="23.33" transform="translate(90.8 -49.2) rotate(21.6)"/><rect class="s" x="167.3" y="205.6" width="0.8" height="8.37" rx="0.1" transform="translate(-32.7 31) rotate(-9.6)"/><rect class="r" x="167.8" y="206.5" width="1.6" height="16.33" rx="0.2" transform="translate(-33.6 31.2) rotate(-9.6)"/><rect class="z" x="165.8" y="211.2" width="10.8" height="13.45"/><rect class="an" x="165.5" y="223.8" width="11.5" height="1.51" rx="0.4"/><rect class="ao" x="165.5" y="210.5" width="11.5" height="1.51" rx="0.4"/><path class="w" d="M148.4,145.8l8.3-1.3h.1v7.6H148V146h.4Z"/><path class="w" d="M140.9,146.9l6.2-.9h.1v6.2h-6.7V147h.4Z"/><path class="w" d="M140.6,153.2h6.6v6.3h-.1l-6.5-.8v-5.5A.1.1,0,0,1,140.6,153.2Z"/><path class="w" d="M148.4,153.2h8.5v7.6h-.1c-2.8-.5-5.8-.8-8.6-1.2h-.1v-6.3a.1.1,0,0,1,.1-.1Z"/><path class="ap" d="M148.7,152.3v-6.5H148v6.3h.7Z"/><path class="ap" d="M141.2,152.4v-5.5h-.7v5.4h.7Z"/><path class="aq" d="M147.2,153.1h0Z"/><path class="ap" d="M141.2,158.8v-5.5c0-.1,0-.1.1-.1h-.7a.1.1,0,0,0-.1.1v5.5Z"/><path class="ap" d="M148.7,159.7v-6.4c0-.1,0-.1.1-.1h-.7a.1.1,0,0,0-.1.1v6.3h.6Z"/><circle class="m" cx="228.6" cy="212.9" r="4.6"/><path class="ar" d="M232.3,212.5l-2.1-2.1-1.6,1.7h0l-1.6-1.7-2,2.1,1.6,1.6h0l2,2,2.1-2h0Zm-2.1-1.3,1.3,1.3-1.3,1.2-1.2-1.2Zm-3.2,0,1.2,1.3-1.2,1.2-1.2-1.2Zm1.6,4.1-1.2-1.2,1.2-1.2,1.2,1.2Z"/></g></svg>