<svg xmlns="http://www.w3.org/2000/svg" xmlns:xlink="http://www.w3.org/1999/xlink" viewBox="0 0 400 400"><defs><style>.a{isolation:isolate;}.b{fill:url(#a);}.c{fill:#606060;opacity:0.15;}.d{fill:#379ae3;}.e{opacity:0.3;}.f{opacity:0.4;}.ab,.g,.h{fill:#fff;}.g{opacity:0.5;}.i{fill:#ffe7cb;}.j{fill:#f59b6b;}.k{fill:#21e2e2;}.l{fill:#152735;}.m{fill:#1f364c;}.n{fill:#ea8f68;}.o{fill:#a4a4f7;}.p{fill:#0050af;}.q{fill:#0e71bb;}.r{fill:#5e5dbb;}.s{fill:#288ed9;}.t{fill:#2283bf;}.u{fill:#f2a181;}.v{fill:#e9e6ff;}.w{opacity:0.22;}.x{fill:#1cb5b1;}.y{fill:#ffbe9d;}.z{fill:#f0d2b9;}.aa{fill:url(#b);}.ab{opacity:0.57;mix-blend-mode:overlay;}.ac{fill:url(#c);}.ad{fill:url(#d);}.ae{fill:url(#e);}.af{fill:url(#f);}.ag{fill:url(#g);}</style><linearGradient id="a" x1="8.36" y1="212.91" x2="390.83" y2="212.91" gradientUnits="userSpaceOnUse"><stop offset="0" stop-color="#c6e6ff"/><stop offset="1" stop-color="#fff"/></linearGradient><linearGradient id="b" x1="-4587.11" y1="548.98" x2="-4607.88" y2="513.02" gradientTransform="matrix(-1, 0.06, -0.06, -1, -4273.78, 1073.66)" gradientUnits="userSpaceOnUse"><stop offset="0" stop-color="#ffbc98"/><stop offset="1" stop-color="#ff9f6c"/></linearGradient><linearGradient id="c" x1="264.32" y1="-27" x2="279.48" y2="-17.87" gradientTransform="translate(18.5 254.1) rotate(7.1)" gradientUnits="userSpaceOnUse"><stop offset="0" stop-color="#419ee3"/><stop offset="1" stop-color="#0d79c9"/></linearGradient><linearGradient id="d" x1="252.93" y1="61.56" x2="225.49" y2="14.05" gradientTransform="translate(17.2 198.5) rotate(5.5)" xlink:href="#b"/><linearGradient id="e" x1="262.6" y1="49.73" x2="230.8" y2="-5.34" gradientTransform="translate(17.2 198.5) rotate(5.5)" xlink:href="#c"/><linearGradient id="f" x1="258.47" y1="38.73" x2="234.56" y2="-2.69" gradientTransform="matrix(0.99, 0.16, -0.16, 0.99, 34.18, 196.4)" gradientUnits="userSpaceOnUse"><stop offset="0" stop-color="#44989f"/><stop offset="0.21" stop-color="#39b0b4"/><stop offset="0.52" stop-color="#2ccbcd"/><stop offset="0.8" stop-color="#24dcdd"/><stop offset="1" stop-color="#21e2e2"/></linearGradient><linearGradient id="g" x1="271.05" y1="283.47" x2="271.05" y2="370.66" gradientTransform="matrix(1, 0, 0, 1, 0, 0)" xlink:href="#b"/></defs><title>what-is-ssl</title><g class="a"><path class="b" d="M387.7,241.9c-6.6-18.4-17-24-26.9-35.9-12.1-14.4-20.3-24.9-17.2-43.5,5.2-30.4,7.4-106.1-73-96.2-28.9,3.5-51.6,25.6-68.2,47.6-14.1,18.8-39.5,20.5-59.9,24.8-25.1,5.4-50.6,13.5-73.8,25.4C20.9,188.6,6.6,223.8,8.5,268.9,9.1,282.5,11,304,34,329.1c31.1,33.8,76.2,38.4,130.5,22.8,12.4-3.6,24.1-9.1,36.4-13.3a170.7,170.7,0,0,1,39.2-8.6c31.2-3,63.5,2.5,93.5-6.8a98.9,98.9,0,0,0,41.7-26C389.6,282.3,394.7,261.4,387.7,241.9Z"/><ellipse class="c" cx="206.3" cy="296" rx="74.8" ry="4.5"/><path class="d" d="M276.9,98.6,205.6,72.9,134.9,98.2c-9,4.3-16.9,6.8-16.9,15.2v41.9a157.7,157.7,0,0,0,23.3,83.2c13.1,21.4,33.6,43.5,65,57.5,28.9-9.4,50.4-34.4,63.6-55.8a157.8,157.8,0,0,0,23.3-83.3V119.3C293.2,107.3,286.8,101.4,276.9,98.6Z"/><g class="e"><path d="M206.3,271.7c-24.9-11.1-41-28.9-51.5-45.8A125,125,0,0,1,136.4,160V130.6c0-6.6,4-12.8,12-16.5l57.2-21.4V72.9L134.9,98.2c-7.4,3.3-16.9,6.8-16.9,15.2v41.9a157.7,157.7,0,0,0,23.3,83.2c13.1,21.4,33.6,43.5,65,57.5Z"/></g><g class="f"><path d="M206.3,296a88.3,88.3,0,0,0,14-6.1c11.8-6.4,21.9-15.3,29.7-23.3s15-18.7,20.6-27.7a152.7,152.7,0,0,0,22.6-84.1V120.3c0-17.2-8.9-18.5-16.3-21.7L205.6,72.9V92.7l57.8,21.7c8,3.7,12,9.9,12,16.6v29.3A125,125,0,0,1,257,226.2c-10.4,16.9-25.9,34.4-50.7,45.5Z"/></g><path class="g" d="M224.5,158.1v-5.6a18.6,18.6,0,1,0-37.1-.1v5.8a10.3,10.3,0,0,0-8.9,10.2v33.3A10.4,10.4,0,0,0,189,212.1h34.6a10.3,10.3,0,0,0,10.3-10.4V168.4A10.3,10.3,0,0,0,224.5,158.1ZM211,193.4h-9l1.4-6.5a5.5,5.5,0,0,1,2.9-10.2,5.5,5.5,0,0,1,3,10.1C210,189.3,211,193.4,211,193.4Zm9.5-35.3H191.4v-5.6a14.6,14.6,0,1,1,29.1-.1Z"/><path class="h" d="M148,157.7c-.2,0-.7-2.2-1.1-5.8a114.2,114.2,0,0,1-.6-14.2q.1-4.2.6-7.8a16.7,16.7,0,0,1,1.5-6.3,8.1,8.1,0,0,1,3.2-3.2c.9-.4,1.5-.4,1.6-.3a7.4,7.4,0,0,0-4,3.9,18.7,18.7,0,0,0-1.2,6c-.2,2.4-.3,5-.4,7.7-.2,5.5,0,10.5.2,14.1S148.2,157.7,148,157.7Z"/><path class="h" d="M149,175.9c-.3,0-.6-1.7-.7-3.8s.2-3.9.6-3.9.6,1.7.7,3.9S149.4,175.9,149,175.9Z"/><path class="i" d="M156.5,38.6c.1,1.7,0,4.8.5,5.2s2.1.4,2.1.4-5.8,7.3-6.3,6.9-7.3-6-5.8-6.3,3-.2,3-1-.1-1.6-.2-2.4"/><path class="j" d="M162.8,77.5s-11.3,1.3-13.8,1.4-2.5-1.3-2.5-1.3a85.5,85.5,0,0,0-1.2-11.9c-.5-2.1-.7-2.9-1.1-4.9-1-4.5-.9-5.4-2-10.9l6.8-5.4a3.6,3.6,0,0,0,3.5,2.1,5.2,5.2,0,0,0,4.9-2.6l9.2,6.1.8,14.8-1.1,12.2"/><path class="i" d="M156.6,37a12.9,12.9,0,0,1-.8,2.6c-.6,1.5-1.4,1.9-3.1,2.4a6.7,6.7,0,0,1-2.8.3,5.6,5.6,0,0,1-3-2,6.7,6.7,0,0,1-1.4-2.8,13.8,13.8,0,0,1-.3-2c-.2-2.2-.3-4.4-.3-6.5a2.8,2.8,0,0,1,.1-.9,1,1,0,0,1,.1-.3.6.6,0,0,1,.5-.2,34.9,34.9,0,0,1,6.5-.4,7.6,7.6,0,0,1,4.4,1.1,8.4,8.4,0,0,1,2.3,4,.6.6,0,0,1-.1.7"/><path class="i" d="M131.4,117.7s.4,2.2.6,3,2.9.1,3-.4-.8-4.2-.8-4.2"/><path class="k" d="M135.6,120.9c.2.8.5,2.4.5,2.4l-2.5,1.1-.4-.4a3.7,3.7,0,0,1-1.4,1.1,10.9,10.9,0,0,1-2.4.7c-2.2.2-3.8-.2-4-.5s2.4-1.6,3-1.7a3.9,3.9,0,0,0,2.7-2.8c.2-.7,0-.8.4-.8a.9.9,0,0,1,.6.3,1.6,1.6,0,0,0,1.8.4,2,2,0,0,0,.9-.7A1.1,1.1,0,0,1,135.6,120.9Z"/><path class="l" d="M142.2,88.4a39.3,39.3,0,0,1-12.8.3c.5,1.6,1.9,3.7,2.4,5.9,1.7,7.4,2.3,17.3,2.7,23.5,0,0-.8,1.5-3.4.3-3.9-9.7-10.8-29.3-10.7-33.6S134,78,144,76.7"/><path class="l" d="M159.5,77.5c3.1,2.3-17.3,10.9-17.3,10.9a31.1,31.1,0,0,1-6.7.7,6.9,6.9,0,0,1-.5-1.3c-.1-.6-.1-1.2-.2-1.8a4.1,4.1,0,0,0-2-2.8,7.9,7.9,0,0,0-3.4-1,40.7,40.7,0,0,0-7.5-.2c6.1-4.5,18.7-5.1,24.5-5.5C147.6,78.4,159.1,77.2,159.5,77.5Z"/><path class="i" d="M137.9,122.9a16.7,16.7,0,0,0,.1,3c.2.8,2.8.6,3,.1s-.1-4.2-.1-4.2"/><path class="k" d="M141.5,126.8a19.3,19.3,0,0,1,0,2.5l-2.6.6-.4-.5a3.8,3.8,0,0,1-1.5.9,7.1,7.1,0,0,1-2.5.2c-2.2-.1-3.7-.8-3.8-1.1s2.6-1.2,3.2-1.2a4.1,4.1,0,0,0,3.2-2.3c.2-.6.1-.8.4-.7a1.1,1.1,0,0,1,.6.4,1.5,1.5,0,0,0,1.7.7,1.9,1.9,0,0,0,1-.5S141.4,125.9,141.5,126.8Z"/><path class="m" d="M166.3,77.1a125.6,125.6,0,0,1-13.8.4c-1.8,0-15.2,2.5-16.4,4.8s1.3,25.6,1,41.2c0,0,1.6,1.3,4.4,0,.8-7.6,5.3-25.7,2.2-34.2,7.3,1,13.3,2,20-.2a5.5,5.5,0,0,0,3.4-3.7C167.9,83.4,167.5,78.9,166.3,77.1Z"/><path class="j" d="M149,44.5h-2a16.8,16.8,0,0,0-3.9.7c-1.9.7-3.2,2.4-4.6,3.7s-4.7,13-5.9,13.8-9.3,8.8-9.3,8.8l-2.9,3s8.9-4.7,12.8-4.7c1.9,0,8.1-10.7,11.4-12.8Z"/><path class="n" d="M131.8,67c-2.7.1-10.8,7.5-12.3,6.4l-.6.6s9-4.7,12.9-4.7c1.6,0,6.8-5.1,10.6-10.9l1.2-.7-.7-4.1S134.7,66.8,131.8,67Z"/><path class="o" d="M116.3,79.5h30.1L141,61.9a2.2,2.2,0,0,0-2.2-1.6H112.4a1.6,1.6,0,0,0-1.5,1.9Z"/><path class="p" d="M115.9,79.5h29.7l-5.4-17.6a2.3,2.3,0,0,0-2.3-1.6H111.6a1.5,1.5,0,0,0-1.5,1.9l5.2,16.9A.5.5,0,0,0,115.9,79.5Z"/><path class="n" d="M162.2,53A115.4,115.4,0,0,0,160,69.9c-5.2,2-7.4,5.1-12.5,7.4,0,0-4.1-.7-4.5.8s4.7,1.6,4.7,1.6c4.8.1,17.4-3.4,18.2-3.7s3.4-16.2,3.5-24.9a5.9,5.9,0,0,0-.8-3.5,4.8,4.8,0,0,0-1.6-1.2,21,21,0,0,0-9.6-2.4"/><path class="i" d="M148.4,78.3a2.9,2.9,0,0,0-2.5-.8l-2,.2a.7.7,0,0,0-.7.4c0,.4,1.5,0,2.3.3h-5.2c-.2,0-.3.2-.3.4l.2.3a3.7,3.7,0,0,0,1.6.7,12.3,12.3,0,0,0,7.1-.7"/><path class="j" d="M161.9,52.8c-.1,7.3-.7,10.6-.5,17.9-3.7.7-8.7,4.9-13.8,7.1a2.5,2.5,0,0,0,.1,1.9c.4.2,17.4-4,18.8-5.2s2.8-14.7,2.9-23.4a5.9,5.9,0,0,0-.8-3.5,4.8,4.8,0,0,0-1.6-1.2,21,21,0,0,0-9.6-2.4"/><path class="q" d="M158.9,30.5l-.3-1.8a5.4,5.4,0,0,0-2.8-3.6,9.1,9.1,0,0,0-6.3-.7c-1.2.4-1.6,1-2.2.9a5.8,5.8,0,0,1-1.6-.5c-4.5-1.6-3.8,2.8-3.3,4s1.3.9,1.4,1.2.1,1.3.2,1.8.6.6.6.6V30.8a1.7,1.7,0,0,1,.7-1.3,4.3,4.3,0,0,1,1.6-.5,10.8,10.8,0,0,1,3.3.6c.8.7,1.1,2.3,1.3,3.3s.2.8.4.8.6-1.4,1.4-1a2.6,2.6,0,0,1,.7,1.9,1.9,1.9,0,0,1-1.4,1.9c-.3.1.7,1.9,1.1,2.4l.5.4.5.2.7.2h.9c.4-.1.7-.6.9-1.1a15.1,15.1,0,0,0,1.1-2.2A14.3,14.3,0,0,0,158.9,30.5Z"/><path class="k" d="M94.7,307.1a8.2,8.2,0,0,0,3.3,2.5c1.8.8,5.6,1.2,3.5,1.9a12.5,12.5,0,0,1-5.8,0,23.6,23.6,0,0,0-3.9-.2c-1.9,0-1.9-.1-1.7-2.3S93.8,305.4,94.7,307.1Z"/><path class="k" d="M59.7,306c.1.6-.7,2.4.8,3.8s5,2.7,2.7,2.8a14,14,0,0,1-5.7-1.1c-1.2-.6-.2-1.5-1.7-1.9s-1.5-2.1-.5-2.9C56.6,303.8,59.4,304,59.7,306Z"/><path class="m" d="M67.1,245s-4.6-13.5,8.4-24.6c0,0,7,2.8,12.6,3.1a31.1,31.1,0,0,0,6.7-.1s.3,12,.4,18.4Z"/><path class="m" d="M96.2,267.5c.3-6.1-6.3-5.3-8.7-.8-5,9.4,1.8,30.9,2.7,41.1a6,6,0,0,0,3.5.2,2.1,2.1,0,0,0,1-1.1C94.6,294.4,95.9,273.9,96.2,267.5Z"/><path class="m" d="M87.7,268.4c.8,2.5,9.1,5.1,8.5-3.9-.3-4-1.1-26-1.3-28.1s-.5-5.2-1.5-5.6c-5.2-2-14.2,4.7-12.9,12.7C81.4,248.8,86.2,263.3,87.7,268.4Z"/><path class="m" d="M74.6,271.8c2-5.7-4.6-6.7-8.3-3.2-8.8,8.3-9.1,27.6-11.2,37.6a6.4,6.4,0,0,0,3.8,1.1,1.2,1.2,0,0,0,1-.5C63.5,294.8,72.4,277.9,74.6,271.8Z"/><path class="m" d="M65.9,270c-.2,2.5,6.8,7.9,9.5-.7,1.2-3.8,6.4-26.3,7.1-28.3s.5-6.2-.3-7c-4.1-3.7-13.1-.4-14.9,7.4C66.1,246.7,66.4,264.6,65.9,270Z"/><path class="i" d="M101.6,171.5a2.7,2.7,0,0,1-.7-.8c-1.7-2.1-1.9-4-3.5-6.4a10.8,10.8,0,0,0-1.1-2.1,8.6,8.6,0,0,0-2.5-2.1c-.7-.4-.1,1.2-.1,1.2s-.6-.9-1.1-.8-.3,1.4-.3,1.6a11.8,11.8,0,0,0,1.2,5.3,2.9,2.9,0,0,1,.5,1.3,3.1,3.1,0,0,1-1.5-.8,1.7,1.7,0,0,0-1.5-.4l.3.6a7,7,0,0,0,2.6,3.2,16.9,16.9,0,0,1,2.4.8c1.3.7,2,2.3,3.3,3"/><rect class="r" x="91.1" y="161" width="5.7" height="10.52" rx="0.5" transform="translate(244.8 283.5) rotate(157.3)"/><rect class="s" x="91.4" y="161.7" width="4.8" height="9.39" transform="translate(244.5 283.7) rotate(157.3)"/><path class="s" d="M89.8,180.1a28.2,28.2,0,0,1,6.3,1c4.6,1.4,6.2,3.5,7.7,4.4-3-3.9-6.4-12.1-6.4-12.1s4.1-3.4,4.5-2.6,17.7,20.9,17.2,24.2c-.2,1.3-2.2,2.7-4,2.6-4.9-.2-10.5-1.9-16.5-3.9-2.6-.8-3.4,1-3.4,1"/><path class="t" d="M103.8,185.5s2.2,4.3,2.8,4.6-1.5-.9-2.8-2.1a26.1,26.1,0,0,1-2.8-4.6A20.1,20.1,0,0,1,103.8,185.5Z"/><path class="i" d="M96.7,164.3c-.2.2-.2.4-.3.7a5.7,5.7,0,0,0,.1,2.9,4.4,4.4,0,0,0,1.2,1.5,5.7,5.7,0,0,0,1.8,1.2"/><path class="q" d="M89.7,157.1c1.1.3,1.7,1.8,2.1,2.8a16.2,16.2,0,0,1,.9,3.8,6.1,6.1,0,0,1-.2,2.7l-.8,1.2a1.2,1.2,0,0,1-.5.5,1.1,1.1,0,0,1-.8.2,1.7,1.7,0,0,1-.6-1,24.2,24.2,0,0,0-2.7-6.9"/><path class="i" d="M90.7,164.7c0-.8.8-1.3,1.5-.5A5.4,5.4,0,0,1,93,167c0,1.2-.9,1.4-1.6,1.5"/><path class="s" d="M98.6,184c-1.4-1.6-5.9-4.3-11.9-4.1-4.2.1-15.5.8-16.7,3.6s-1.4,15.9-.4,20.9,2.5,13.1,2.5,15.4-1.2,3.2-.6,3.8,9.9,2.1,13.9,2.1,9.8-1,10.1-2.1-.7-1.7-.9-3.5-.6-13.4.1-15.4,1.7-9,2.7-11.6S100,185.6,98.6,184Z"/><path class="t" d="M72.8,195.8l-3.4,5.6v.5c.1,1,.2,1.8.3,2.5.7,3.8,2.5,13.1,2.5,15.4s-1.1,3.1-.6,3.8,17.2,4.4,16.4.6c0-.3-13.6-10.7-13.7-11-.6-3-1.2-5.1-1.4-7.3C72.1,200.7,73.2,194.9,72.8,195.8Z"/><path class="i" d="M89.7,174.7a41.8,41.8,0,0,0,.2,4.9l1.1.7s-.6,4.1-1.7,3.8l-7.8-3.8s1-.4,1-.8-.9-7.8-.9-7.8"/><path class="i" d="M85,157.6c.9.2,3.6-.3,4.3.8a30.4,30.4,0,0,1,1.6,4.4c.5,1.4.9,2.9,1.3,4.4s1.3,5.5-.6,7.1a2.3,2.3,0,0,1-1.4.7l-2.7.5a7.9,7.9,0,0,1-4.3.1c-1.8-.6-2.8-3.1-3.3-4.8L77.2,161Z"/><path class="u" d="M88.8,224.2a6.7,6.7,0,0,1,4,2.3c0,.1.1.2.1.3s-.2.2-.4.3-1.1-.5-2-.9l-1.8-.7"/><path class="v" d="M95.8,209.2l-7.3,23.4c-.2.7.1,1.2.7,1.2l15.3,1.3a1.3,1.3,0,0,0,1.2-.9l7.9-23.1c.2-.6-.7-1.5-1.3-1.5L97,208.3A1.3,1.3,0,0,0,95.8,209.2Z"/><g class="w"><path class="x" d="M96.3,209.8l-7.2,23.1c-.2.6.1,1.1.7,1.1l15.3,1.4a1.3,1.3,0,0,0,1.2-1l7.2-23c.2-.7-.1-1.2-.7-1.2l-15.3-1.3A1.3,1.3,0,0,0,96.3,209.8Z"/></g><polygon class="h" points="108.4 209.1 107.9 211.1 100.8 210.5 101.3 208.5 108.4 209.1"/><path class="h" d="M105.9,205.3a2.2,2.2,0,0,0-2.2,1.6l-.7,2.3,3.4.3s.5-1.8.7-2.3A1.4,1.4,0,0,0,105.9,205.3Zm-.8,2.8a.8.8,0,0,1-.7-1.1,1.4,1.4,0,0,1,1.3-.9c.5,0,.8.5.6,1.1A1.3,1.3,0,0,1,105.1,208.1Z"/><path class="y" d="M83,222.6c1.6.3,5.8,1.6,6.3,1.8a26.9,26.9,0,0,1,2.7,2c1.6,1.6.8,2.4,1.4,4.6v.3a.4.4,0,0,1-.6.2c-.1.3-.6.1-.9-.2s-.3.4-.8.1l-.8-.7a4.5,4.5,0,0,0-1.7-1l-1.7-.8c-.7-.4-1.8-.5-2.4-2.4-.1-.4-.5-.6-.9-.9L81,224"/><path class="s" d="M73.2,192.7c-.7,2.4-3.5,19.1-3.5,19.1l15.8,11.5-1.3,3.5s-19-6.4-20.5-10.8-1.4-24,3.9-30.9a12.1,12.1,0,0,1,5-3.3"/><path class="u" d="M89.4,228.6l.8.5a1.5,1.5,0,0,1,.6.5l1,1.5-1.1-1.3Z"/><path class="u" d="M90.3,227.6a2.7,2.7,0,0,1,.8.7l.7.9.9,2a7.6,7.6,0,0,1-1.2-1.9,4.1,4.1,0,0,0-.5-.9A2.7,2.7,0,0,0,90.3,227.6Z"/><path class="u" d="M91.3,226.7l.8.8a2.6,2.6,0,0,1,.5.9,6.6,6.6,0,0,1,.6,2c-.3-.6-.5-1.3-.8-1.9a1.6,1.6,0,0,0-.5-.9Z"/><path class="q" d="M79.2,169.1c.6-.4,1.1-.8,1.5-.2s.3.8.7.9.7-.2.8-.6a2,2,0,0,0-.1-1.1c-.3-.8-.5-1.6-.8-2.4a4,4,0,0,1-.1-2.4,2.3,2.3,0,0,1,.7-1,8.7,8.7,0,0,1,3.7-1.6c1.4-.3,2.7-.4,4-.8a3.6,3.6,0,0,0,1.5-.8,3.2,3.2,0,0,0,1.1-2.4,5,5,0,0,0-.8-2.7,3,3,0,0,1-.4,1,2.4,2.4,0,0,0-.7-1.2c-.4,2.2-9.5,1.5-11.6,2.4s-2.7,1.1-2.6,3.5l-.3.4a6.7,6.7,0,0,0-2.1,4.8c-.2,2.6,1.4,5.5,2.9,7.7a6.9,6.9,0,0,0,1.1,1.3,3.3,3.3,0,0,0,2.1.5c.7-.1,2-.1,2-.7s-1-1.4-1.3-1.7"/><path class="i" d="M81.3,171.6a1,1,0,0,1-.2.8c-.2.3-.7.2-1.1.1a2.9,2.9,0,0,1-1.8-2.2c-.2-1.1.4-2.3,1.5-2a1.6,1.6,0,0,1,1,1.5"/><path class="z" d="M89.9,175.1l-2.9.6a4.4,4.4,0,0,0,3,1"/><path class="aa" d="M282.8,268.7a13.7,13.7,0,0,0,3.8-4.1,19.1,19.1,0,0,0,1.3-3.6,27.4,27.4,0,0,0,1.7-7.4,34.9,34.9,0,0,1,0-5.6,21.8,21.8,0,0,1,1.6-4.5,16.4,16.4,0,0,0,1.6-6.5,31.2,31.2,0,0,0-.5-4.4,63.9,63.9,0,0,1-.8-11.7,18,18,0,0,0-.3-4.7,27.1,27.1,0,0,1-.9,4.1,30.9,30.9,0,0,1-3.1,6c-2.3,3.5-4.8,6.8-6.9,10.6a33.9,33.9,0,0,0-4.6,12.7,44.8,44.8,0,0,1-.7,6.4c-1.3,5.6-5.8,9.4-6.6,15-.1,1.2-.1,2.4-.1,3.5s-.4,6.8.7,6.4,1.6-1.9,2.2-2.5l2.2-2.1,4.7-4C279.5,271.2,281.6,270.2,282.8,268.7Z"/><path class="ab" d="M273.9,270.6a32.9,32.9,0,0,0,6-11.1c.7-2.1,1.3-4.3,1.8-6.5s.8-4.4,1.2-6.7a42.3,42.3,0,0,1,1.7-6.8c.7-2.2,1.6-4.3,2.4-6.3s1.7-4.1,2.4-6.3a28.7,28.7,0,0,0,1.4-6.6,26,26,0,0,1-1,6.8,61.9,61.9,0,0,1-2.2,6.5c-.7,2.1-1.6,4.2-2.2,6.3a19.2,19.2,0,0,0-.9,3.2c-.3,1.1-.5,2.2-.7,3.3s-.7,4.5-1.3,6.8a51.2,51.2,0,0,1-1.9,6.7,37,37,0,0,1-2.9,6A22.3,22.3,0,0,1,273.9,270.6Z"/><path class="ac" d="M292.7,249a12,12,0,0,0-4.5,1.9c-3.6,2.7-3.9,8-6.6,11.7s-5.3,4.3-7.3,7.1a21.9,21.9,0,0,0-2.3,4.9c-.6,1.8-1.3,3.7-2,5.5a115.8,115.8,0,0,0,22.8-8.5,13.8,13.8,0,0,0,3.6-2.3c2-2.1,2.5-5.1,2.6-7.9s-.3-4.9.5-7.2,4.7-5.1,7.4-7.6C302.9,245.8,296.7,248,292.7,249Z"/><path class="ab" d="M301.7,248.4l-4,2.3a19.1,19.1,0,0,0-3.5,2.7,11.2,11.2,0,0,0-2.4,3.7,27.1,27.1,0,0,0-1.4,4.3c-.3.7-.5,1.4-.8,2.2l-1.1,2.1a20.5,20.5,0,0,1-3,3.5,35.8,35.8,0,0,1-7.6,5.3c1.2-.9,2.5-1.8,3.6-2.8a33.1,33.1,0,0,0,3.4-3,30.7,30.7,0,0,0,2.8-3.5l1-2c.2-.7.5-1.4.7-2.1s.9-3,1.5-4.4a11.5,11.5,0,0,1,2.7-3.8A25,25,0,0,1,301.7,248.4Z"/><path class="ad" d="M263.9,254.3a18.4,18.4,0,0,0-8.3-7.8c-5-2-11.1-1.1-15.5-4.2-.9-.6-1.7-1.4-2.6-1.9s-4.7-1.3-7.2-1.4a1.3,1.3,0,0,0-1.4.8,4.7,4.7,0,0,0,1.4,4.3c1.1,1.1,2.5,1.9,3.6,3a13.9,13.9,0,0,1,3.8,6.9,66.6,66.6,0,0,1,1.1,7.8,7.1,7.1,0,0,0,4.2,6.5,29.5,29.5,0,0,0,7.4,3.5c5.5,1.9,11.8,2.6,16,6.5l1.4,1.3a5,5,0,0,0,3.3.9c.5-1.5-.2-3.1-.7-4.5-1.5-3.8-1.8-7.5-2.5-11.4A32.4,32.4,0,0,0,263.9,254.3Z"/><path class="ae" d="M265.8,224.9a23.3,23.3,0,0,1,4.6,14.8c-.2,4.8-1.8,9.6-.5,14.2.7,2.2,2,4.2,2.4,6.5.7,5.5-4.5,10.2-4.7,15.7-1.1-.1-1.6-1.3-2.1-2.2-1.6-2.6-4.4-4.1-6.7-6a19.8,19.8,0,0,1-7.1-13.5c-.5-6.2,2-12.4,1.3-18.7-.3-2.1-.9-4.2-1.2-6.3a29.5,29.5,0,0,1-.1-8.9c.4-2.4,1.1-6.8,3-8.4C258.1,216.7,262.4,220.4,265.8,224.9Z"/><path class="af" d="M274.9,236.9a22.8,22.8,0,0,0-2.9,3.3,9.5,9.5,0,0,0-1.2,3.7,19.6,19.6,0,0,0-.1,6.4,12.3,12.3,0,0,1,.3,3.3c-.3,4.2-4.8,6.7-4.8,10.9a15.6,15.6,0,0,0,.8,4.2c1.2,3.9,2.6,7.7,4.1,11.5a18.4,18.4,0,0,1,1.5-4.9c.4-.9,1-1.8,1.4-2.8a13.5,13.5,0,0,0,.1-9.1,6.7,6.7,0,0,1-.3-2.8,4.2,4.2,0,0,1,.8-1.8c1.3-1.8,3-3,4.5-4.6s2.1-3.6,2.7-5.7a18.4,18.4,0,0,0,1-5.2,20.2,20.2,0,0,0-.9-4.9c-1.2-4-1.9-8.4-3.5-12.2-.7,1.4-.3,3.4-.6,4.9A14.4,14.4,0,0,1,274.9,236.9Z"/><path class="ab" d="M255.4,220.2c1.2,4.4,2.8,8.8,3.7,13.3a33.3,33.3,0,0,1,.7,7c.1,2.3,0,4.6.1,6.9s0,2.3.1,3.4l.3,3.4c.2,1.1.5,2.2.7,3.3a30.1,30.1,0,0,0,1.1,3.2,110,110,0,0,0,5.4,12.7,68.3,68.3,0,0,1-6.6-12.2l-1.2-3.3a35.9,35.9,0,0,1-.8-3.5,40.5,40.5,0,0,1-.5-7c0-2.3.1-4.6.2-6.9a38.8,38.8,0,0,0-.4-6.8C257.5,229.2,256.2,224.7,255.4,220.2Z"/><path class="ab" d="M235.1,244.2a32.2,32.2,0,0,1,10.2,6.1,22.1,22.1,0,0,1,4,4.6c1,1.7,1.9,3.5,2.8,5.3a30.6,30.6,0,0,0,3,4.9,22.2,22.2,0,0,0,4.1,4c1.6,1.2,3.2,2.3,4.7,3.6a20.9,20.9,0,0,1,2.2,2,13.8,13.8,0,0,1,1.7,2.5,20.9,20.9,0,0,0-2-2.2l-2.3-1.8c-1.6-1.1-3.3-2-5-3.2l-1.2-.8-1.2-1A14.5,14.5,0,0,1,254,266a30.9,30.9,0,0,1-3.2-5.1c-.9-1.8-1.8-3.6-2.7-5.2a19.8,19.8,0,0,0-3.6-4.5A43.4,43.4,0,0,0,235.1,244.2Z"/><path class="ab" d="M278.2,237a35.7,35.7,0,0,1-1.5,9.7c-.9,3.1-2.1,6.2-3.1,9.3a90.5,90.5,0,0,0-2.5,9.3,73.9,73.9,0,0,0-1.6,9.6,46.3,46.3,0,0,1,.8-9.8,62.9,62.9,0,0,1,2.4-9.5c1-3.1,2.2-6.1,3.2-9.1A50.7,50.7,0,0,0,278.2,237Z"/><path class="ag" d="M282.9,316.3H259.2a2.7,2.7,0,0,1-2.8-2.7l-4.7-33.2a2.8,2.8,0,0,1,2.8-2.7h33.1a2.8,2.8,0,0,1,2.8,2.7l-4.7,33.2A2.7,2.7,0,0,1,282.9,316.3Z"/></g></svg>