<svg xmlns="http://www.w3.org/2000/svg" xmlns:xlink="http://www.w3.org/1999/xlink" viewBox="0 0 400 400"><defs><style>.a{isolation:isolate;}.b{fill:url(#a);}.c{opacity:0.2;}.d{fill:#37b5e8;}.e,.g{fill:#0e71bb;}.f{fill:#005b9f;}.g,.s{opacity:0.8;}.h{fill:#024589;}.i{opacity:0.35;}.aa,.j{fill:#fff;}.k{opacity:0.25;}.k,.n,.p,.u{mix-blend-mode:multiply;}.l{fill:#fca70c;}.m{fill:#b1affd;}.n{opacity:0.15;}.o{opacity:0.26;}.p{opacity:0.62;}.q{fill:#d5dbda;}.r{fill:#efefef;}.s{fill:url(#b);}.t{fill:#cfcfff;}.u{fill:#c4c3fc;opacity:0.55;}.v{fill:url(#c);}.w{fill:#21e2e2;}.x{fill:#00c1bc;}.y{fill:#4987ce;}.z{fill:url(#d);}.aa{opacity:0.57;mix-blend-mode:overlay;}.ab{fill:url(#e);}.ac{fill:url(#f);}.ad{fill:url(#g);}.ae{fill:url(#h);}.af{fill:url(#i);}</style><linearGradient id="a" x1="7.29" y1="211" x2="394.55" y2="211" gradientUnits="userSpaceOnUse"><stop offset="0" stop-color="#c6e6ff"/><stop offset="1" stop-color="#fff"/></linearGradient><linearGradient id="b" x1="156.9" y1="169.98" x2="286.11" y2="169.98" gradientUnits="userSpaceOnUse"><stop offset="0" stop-color="#3d7ce6"/><stop offset="0.17" stop-color="#4989e8"/><stop offset="0.48" stop-color="#67aaef"/><stop offset="0.89" stop-color="#98dff9"/><stop offset="1" stop-color="#a6eefc"/></linearGradient><linearGradient id="c" x1="125.2" y1="185.81" x2="254.41" y2="185.81" gradientUnits="userSpaceOnUse"><stop offset="0" stop-color="#419ee3"/><stop offset="1" stop-color="#0d79c9"/></linearGradient><linearGradient id="d" x1="-4494.46" y1="551.12" x2="-4513.06" y2="518.9" gradientTransform="matrix(-1, 0.06, -0.06, -1, -4153.33, 1087.79)" gradientUnits="userSpaceOnUse"><stop offset="0" stop-color="#ffbc98"/><stop offset="1" stop-color="#ff9f6c"/></linearGradient><linearGradient id="e" x1="291.54" y1="-7.91" x2="305.12" y2="0.27" gradientTransform="translate(20.1 246.8) rotate(7.1)" xlink:href="#c"/><linearGradient id="f" x1="281.83" y1="77.05" x2="257.25" y2="34.48" gradientTransform="translate(18.3 192.7) rotate(5.5)" xlink:href="#d"/><linearGradient id="g" x1="290.5" y1="66.45" x2="262.01" y2="17.1" gradientTransform="translate(18.3 192.7) rotate(5.5)" xlink:href="#c"/><linearGradient id="h" x1="285.9" y1="57.35" x2="264.47" y2="20.25" gradientTransform="matrix(0.99, 0.16, -0.16, 0.99, 36.36, 187.01)" gradientUnits="userSpaceOnUse"><stop offset="0" stop-color="#44989f"/><stop offset="0.21" stop-color="#39b0b4"/><stop offset="0.52" stop-color="#2ccbcd"/><stop offset="0.8" stop-color="#24dcdd"/><stop offset="1" stop-color="#21e2e2"/></linearGradient><linearGradient id="i" x1="298.64" y1="295.99" x2="298.64" y2="374.11" gradientTransform="matrix(1, 0, 0, 1, 0, 0)" xlink:href="#d"/></defs><title>windows-dedicated-server</title><g class="a"><path class="b" d="M391.4,240.4c-6.7-18.7-17.2-24.4-27.3-36.4-12.2-14.6-20.5-25.2-17.3-44.1,5.2-30.7,7.4-107.4-74-97.4-29.2,3.6-52.3,26-69.1,48.3-14.2,19-39.9,20.7-60.6,25.1-25.4,5.4-51.3,13.7-74.8,25.7C19.9,186.4,5.5,222.1,7.5,267.7c.6,13.8,2.5,35.5,25.8,60.9,31.4,34.3,77.1,38.9,132.1,23.1,12.5-3.6,24.4-9.2,36.8-13.5a175.7,175.7,0,0,1,39.8-8.6c31.6-3.1,64.3,2.4,94.6-7a100.4,100.4,0,0,0,42.3-26.2C393.3,281.2,398.5,260.1,391.4,240.4Z"/><g class="c"><path class="d" d="M79.5,309.2c0,5,57.2,9.1,127.7,9.1s127.7-4.1,127.7-9.1S277.8,300,207.2,300,79.5,304.1,79.5,309.2Z"/></g><rect class="e" x="176.8" y="287.3" width="56.6" height="15.23"/><rect class="f" x="107.3" y="151.1" width="196.2" height="141.17" rx="9.4"/><rect class="g" x="112.8" y="156.2" width="184.7" height="122.48" rx="5.8"/><path class="h" d="M159.8,301.2h90.6a7.3,7.3,0,0,1,7.3,7.3v2.3a0,0,0,0,1,0,0H152.5a0,0,0,0,1,0,0v-2.3A7.3,7.3,0,0,1,159.8,301.2Z"/><g class="i"><rect class="j" x="156.9" y="164.7" width="129.2" height="86.85" rx="5.7"/></g><g class="k"><rect class="l" x="169.2" y="228.1" width="5.6" height="14.13"/><rect class="m" x="181.9" y="215.7" width="5.6" height="26.53"/><rect class="l" x="194.6" y="218.5" width="5.6" height="23.79"/><rect class="m" x="207.2" y="205" width="5.6" height="37.22"/><g class="n"><rect class="o" x="181.9" y="215.7" width="2.6" height="26.53"/></g><g class="n"><rect class="o" x="169.2" y="228.1" width="2.6" height="14.13"/></g><g class="p"><rect class="o" x="207.2" y="205" width="2.6" height="37.22"/></g><g class="n"><rect class="o" x="194.6" y="218.5" width="2.6" height="23.79"/></g><polygon class="q" points="215.8 246.1 165.5 246.1 165.5 192.5 166.2 192.5 166.2 245.4 215.8 245.4 215.8 246.1"/><polygon class="q" points="170.6 221.5 170.1 220.9 183.3 209.1 195.5 211.7 208.7 197 209.3 197.5 195.8 212.6 183.5 209.9 170.6 221.5"/><polygon class="q" points="210.3 199.7 206.6 196.1 211.4 194.9 210.3 199.7"/><rect class="m" x="220.6" y="227.1" width="3.9" height="3.87"/><rect class="l" x="220.6" y="233.9" width="3.9" height="3.87"/><rect class="r" x="225.5" y="235.6" width="12.3" height="2.2"/><rect class="r" x="225.5" y="228.8" width="12.3" height="2.2"/><rect class="m" x="243.3" y="227.1" width="3.9" height="3.87"/><rect class="l" x="243.3" y="233.9" width="3.9" height="3.87"/><rect class="r" x="248.3" y="235.6" width="12.3" height="2.2"/><rect class="r" x="248.3" y="228.8" width="12.3" height="2.2"/><rect class="r" x="268.7" y="235.6" width="8.1" height="2.2"/><rect class="r" x="268.7" y="228.8" width="8.1" height="2.2"/><rect class="r" x="221.3" y="190.2" width="55.5" height="1.01"/><rect class="r" x="165.5" y="177.8" width="111.3" height="2.31"/><rect class="r" x="221.2" y="193.3" width="55.6" height="1.01"/><rect class="r" x="221.2" y="187" width="55.6" height="1.01"/><rect class="r" x="221.2" y="196.5" width="55.6" height="1.01"/><rect class="r" x="221.2" y="199.6" width="55.6" height="1.01"/><rect class="r" x="221.2" y="202.7" width="55.6" height="1.01"/><rect class="r" x="221.2" y="205.9" width="55.6" height="1.01"/><rect class="r" x="221.2" y="209" width="55.6" height="1.01"/><rect class="r" x="221.2" y="212.1" width="55.6" height="1.01"/><rect class="r" x="228" y="215.3" width="48.8" height="1.01"/><path class="s" d="M280.5,164.7H162.6a5.6,5.6,0,0,0-5.7,5.6v5H286.1v-5A5.6,5.6,0,0,0,280.5,164.7Z"/><path class="t" d="M269.5,170.2a1.6,1.6,0,0,1-1.6,1.6,1.7,1.7,0,0,1-1.7-1.6,1.8,1.8,0,0,1,1.7-1.7A1.7,1.7,0,0,1,269.5,170.2Z"/><circle class="t" cx="274.5" cy="170.2" r="1.6"/><circle class="t" cx="281.2" cy="170.2" r="1.6"/></g><rect class="u" x="122.6" y="183.9" width="129.2" height="86.85" rx="5.7"/><rect class="j" x="125.2" y="180.5" width="129.2" height="86.85" rx="5.7"/><path class="v" d="M248.8,180.5H130.9a5.6,5.6,0,0,0-5.7,5.7v4.9H254.4v-4.9A5.6,5.6,0,0,0,248.8,180.5Z"/><path class="t" d="M237.8,186a1.6,1.6,0,0,1-1.6,1.6,1.6,1.6,0,1,1,0-3.2A1.6,1.6,0,0,1,237.8,186Z"/><path class="t" d="M244.4,186a1.6,1.6,0,1,1-1.6-1.6A1.6,1.6,0,0,1,244.4,186Z"/><path class="t" d="M251.1,186a1.6,1.6,0,0,1-1.6,1.6,1.6,1.6,0,1,1,0-3.2A1.6,1.6,0,0,1,251.1,186Z"/><path class="w" d="M186,206.6c9.9-1.7,18.6-3,28.5-4.5a.4.4,0,0,1,.4.4h0l.2,25.8a.4.4,0,0,1-.4.4c-9.8,0-19.8.3-29.5.4a.4.4,0,0,1-.4-.4V207.1c0-.2.2-.3.3-.4Z"/><path class="w" d="M160.5,210.2l21.1-2.9c.2-.1.4.1.4.3v21.1c0,.2-.1.4-.3.4l-22.2.4a.4.4,0,0,1-.4-.4V210.7a.3.3,0,0,1,.3-.3Z"/><path class="w" d="M159.6,231.7c7.3,0,14.7.1,22.2-.1.2,0,.4.1.4.3v21.3a.4.4,0,0,1-.4.4l-22.2-2.8c-.2,0-.3-.2-.3-.4l-.2-18.3A.4.4,0,0,1,159.6,231.7Z"/><path class="w" d="M186.2,231.7l28.5-.2a.4.4,0,0,1,.4.4l.2,25v.8a.4.4,0,0,1-.4.4c-9.8-1.6-19.8-2.7-29.6-4-.2,0-.3-.2-.3-.4l-.2-21.6a.4.4,0,0,1,.4-.4Z"/><path class="x" d="M187,228.7V206.4l-1,.2h-1.1c-.1.1-.3.2-.3.4v21.6a.4.4,0,0,0,.4.4h2.1C187.2,229,187,228.9,187,228.7Z"/><path class="x" d="M161.5,229.1l-.2-17.7v-1.1a.3.3,0,0,1,.1-.2h-.9l-1.1.2a.3.3,0,0,0-.3.3v18.4a.4.4,0,0,0,.4.4h2.2A.3.3,0,0,1,161.5,229.1Z"/><path class="y" d="M182,231.6h0Z"/><path class="x" d="M161.6,251V232.1c0-.2.1-.4.3-.4h-2.2a.4.4,0,0,0-.4.4l.2,18.3c0,.2.1.4.3.4l1.9.2Z"/><path class="x" d="M187.2,254.2V232.1c0-.2.1-.4.3-.4h-2.2a.4.4,0,0,0-.4.4l.2,21.6c0,.2.1.4.3.4l2,.2A.1.1,0,0,1,187.2,254.2Z"/><path class="z" d="M309.2,282.7a11.6,11.6,0,0,0,3.3-3.6,30.5,30.5,0,0,0,1.3-3.2,22.3,22.3,0,0,0,1.4-6.7c.1-1.7-.3-3.3,0-5a27.4,27.4,0,0,1,1.5-4,15,15,0,0,0,1.4-5.8,17.5,17.5,0,0,0-.4-4A51,51,0,0,1,317,240a14.6,14.6,0,0,0-.4-4.3,15.3,15.3,0,0,1-.8,3.7,22,22,0,0,1-2.7,5.3c-2.1,3.2-4.3,6.2-6.2,9.5a31.6,31.6,0,0,0-4.1,11.5,55.1,55.1,0,0,1-.6,5.7c-1.2,5-5.2,8.4-5.9,13.4a11.5,11.5,0,0,0-.1,3.2c0,1.2-.4,6,.6,5.7s1.5-1.7,2-2.2,1.3-1.3,2-2,2.8-2.4,4.2-3.5S308.1,284.1,309.2,282.7Z"/><path class="aa" d="M301.2,284.4a31.5,31.5,0,0,0,5.4-9.9c.6-1.9,1.1-3.8,1.6-5.8s.7-4,1.1-6a17,17,0,0,1,.6-3.1c.2-1,.5-2,.8-3s1.5-3.8,2.2-5.7,1.5-3.6,2.2-5.6a29.4,29.4,0,0,0,1.2-5.9,21.5,21.5,0,0,1-.9,6.1,56.2,56.2,0,0,1-1.9,5.8c-.7,1.9-1.4,3.8-2,5.7s-.6,1.9-.8,2.8l-.6,3c-.4,2-.7,4-1.2,6.1a39.8,39.8,0,0,1-1.7,5.9,33.9,33.9,0,0,1-2.6,5.4A18.3,18.3,0,0,1,301.2,284.4Z"/><path class="ab" d="M318.1,265.1a11.5,11.5,0,0,0-4.1,1.7c-3.3,2.4-3.5,7.2-5.9,10.5s-4.8,3.9-6.5,6.3a18.5,18.5,0,0,0-2.1,4.5l-1.8,4.8a103.8,103.8,0,0,0,20.4-7.5,13.6,13.6,0,0,0,3.2-2.1c1.8-1.8,2.3-4.6,2.3-7.1s-.2-4.4.5-6.4,4.2-4.6,6.7-6.8C327.1,262.2,321.6,264.2,318.1,265.1Z"/><path class="aa" d="M326.1,264.6l-3.6,2a14.8,14.8,0,0,0-3.1,2.5,8.7,8.7,0,0,0-2.2,3.2c-.5,1.3-.9,2.6-1.3,3.9a15.9,15.9,0,0,1-.7,2,16.2,16.2,0,0,1-1,1.8,11.8,11.8,0,0,1-2.7,3.2,35.5,35.5,0,0,1-6.7,4.8l3.2-2.6a26.1,26.1,0,0,0,3.1-2.7,18.3,18.3,0,0,0,2.4-3.1,15.1,15.1,0,0,0,.9-1.8,10.7,10.7,0,0,0,.7-1.9c.4-1.3.8-2.6,1.3-3.9a9.4,9.4,0,0,1,2.5-3.4A23.2,23.2,0,0,1,326.1,264.6Z"/><path class="ac" d="M292.3,269.8a16.7,16.7,0,0,0-7.5-6.9c-4.5-1.8-9.9-1-13.9-3.8-.8-.5-1.5-1.2-2.4-1.7s-4.1-1.2-6.3-1.2h-.9l-.4.6a4.2,4.2,0,0,0,1.2,3.8c1,1,2.3,1.7,3.3,2.7a11.8,11.8,0,0,1,3.3,6.1,41.9,41.9,0,0,1,1,7.1,9.6,9.6,0,0,0,.7,2.8,7.5,7.5,0,0,0,3.1,3,33.5,33.5,0,0,0,6.6,3.2c5,1.7,10.6,2.3,14.4,5.8l1.2,1.1a4.7,4.7,0,0,0,3,.8c.4-1.3-.2-2.7-.7-4-1.3-3.4-1.5-6.7-2.2-10.2A28.3,28.3,0,0,0,292.3,269.8Z"/><path class="ad" d="M293.9,243.6a20.8,20.8,0,0,1,4.2,13.2c-.2,4.2-1.7,8.6-.5,12.7.6,2,1.8,3.8,2.1,5.9.7,4.9-3.9,9.1-4.2,14-.9-.1-1.4-1.2-1.9-2s-3.9-3.6-6-5.3a18,18,0,0,1-6.3-12.1c-.5-5.6,1.8-11.2,1.1-16.8-.2-1.9-.7-3.8-1-5.7a23.8,23.8,0,0,1-.1-8c.4-2.1,1-6,2.7-7.4C287,236.2,290.9,239.5,293.9,243.6Z"/><path class="ae" d="M302.1,254.2a24.3,24.3,0,0,0-2.6,3,9.9,9.9,0,0,0-1.1,3.3,22.5,22.5,0,0,0-.1,5.8,9.6,9.6,0,0,1,.3,2.9c-.2,3.8-4.4,6.1-4.3,9.8a11.6,11.6,0,0,0,.7,3.7c1.1,3.5,2.3,7,3.6,10.4a22.5,22.5,0,0,1,1.4-4.4c.4-.9.9-1.7,1.3-2.5,1.1-2.6.8-5.5.1-8.2a5.4,5.4,0,0,1-.3-2.5,4.6,4.6,0,0,1,.7-1.6c1.1-1.6,2.7-2.7,4.1-4.1s1.8-3.3,2.4-5.1a19.3,19.3,0,0,0,.8-4.7,16.3,16.3,0,0,0-.8-4.4c-1-3.5-1.6-7.5-3.1-10.9-.6,1.2-.2,3-.5,4.4A11.8,11.8,0,0,1,302.1,254.2Z"/><path class="aa" d="M284.6,239.3c1.1,4,2.5,7.9,3.3,12a31.8,31.8,0,0,1,.7,6.2v6.2c0,1,.1,2,.1,3.1l.3,3a47,47,0,0,0,1.6,5.8,95.4,95.4,0,0,0,4.9,11.4,50.6,50.6,0,0,1-5.9-11,24.9,24.9,0,0,1-1.1-2.9,17.3,17.3,0,0,1-.7-3.1,33.5,33.5,0,0,1-.5-6.3c0-2.1.1-4.1.2-6.2a40.8,40.8,0,0,0-.4-6.1C286.5,247.4,285.3,243.4,284.6,239.3Z"/><path class="aa" d="M266.4,260.8a30.8,30.8,0,0,1,9.2,5.5,19.5,19.5,0,0,1,3.5,4.1c1,1.6,1.7,3.2,2.6,4.7a33,33,0,0,0,2.6,4.5,20.6,20.6,0,0,0,3.7,3.5l4.3,3.2c.6.6,1.3,1.2,1.9,1.9a10.1,10.1,0,0,1,1.5,2.1,15.7,15.7,0,0,0-1.8-1.9l-2-1.6c-1.5-1-3-1.8-4.5-2.9l-1.1-.7-1-.9a12.6,12.6,0,0,1-2-2,26.9,26.9,0,0,1-2.8-4.6c-.8-1.5-1.6-3.1-2.5-4.6a20.1,20.1,0,0,0-3.1-4.1A44.2,44.2,0,0,0,266.4,260.8Z"/><path class="aa" d="M305.1,254.4a35.9,35.9,0,0,1-1.4,8.6c-.8,2.9-1.9,5.6-2.8,8.3s-1.6,5.6-2.3,8.4a61.5,61.5,0,0,0-1.3,8.6,36.1,36.1,0,0,1,.7-8.7,58.6,58.6,0,0,1,2.1-8.5c.9-2.8,2-5.5,2.9-8.3A46.9,46.9,0,0,0,305.1,254.4Z"/><path class="af" d="M309.3,325.4H288a2.5,2.5,0,0,1-2.5-2.5l-4.2-29.6a2.5,2.5,0,0,1,2.5-2.5h29.7a2.5,2.5,0,0,1,2.5,2.5l-4.2,29.6A2.5,2.5,0,0,1,309.3,325.4Z"/></g></svg>