<svg xmlns="http://www.w3.org/2000/svg" viewBox="0 0 400 400"><defs><style>.a{font-size:38.64px;font-family:AdobeArabic-Regular, Adobe Arabic;}.a,.l{fill:#fff;}.b{fill:#74818e;}.c{fill:#fda080;}.d{fill:#f4907c;}.e,.h{fill:#37b5e8;}.e,.g{opacity:0.2;}.f,.m{fill:gray;}.ah,.f{opacity:0.4;}.i{fill:#e5e5e5;}.j{fill:#666;}.k{fill:#cbcbcb;}.n{fill:#a5b4c2;}.o{fill:#ffe7cb;}.p{fill:#c4ccd7;}.q{fill:#647889;}.r{fill:#f8fbfc;}.s{fill:#d4d2d1;}.t{fill:#fdf5ea;}.u{fill:#288ed9;}.v{fill:#f59b6b;}.w{fill:#ea8f68;}.x{fill:#0e71bb;}.y{fill:#2283bf;}.z{fill:#e28166;}.aa{fill:#f16a44;}.ab{fill:#93603d;}.ac{fill:#a4704c;}.ad{fill:#21e2e2;}.ae{fill:#00c1bc;}.af{fill:#4987ce;}.ag{fill:#28aae1;}.ah{fill:#606060;}</style></defs><title>accses dedicated server</title><text class="a" transform="translate(22.1 -46.2)"> یصاصتخا روس یاه یستسد*</text><path class="b" d="M298.2,392.3a6.3,6.3,0,0,1-.4-12.6,65.7,65.7,0,0,0,17.6-4.6,75.7,75.7,0,0,0,32.9-25.9,6.3,6.3,0,0,1,10.2,7.4c-24.3,33.1-58.5,35.6-59.9,35.7Z"/><path class="b" d="M54,278.9a6.3,6.3,0,0,1,12.6-.4,63.9,63.9,0,0,0,4.6,17.6,76.7,76.7,0,0,0,26,32.9,6.3,6.3,0,0,1,1.3,8.8,6.4,6.4,0,0,1-8.8,1.4C56.6,314.9,54.1,280.7,54,279.3Z"/><path class="b" d="M241.4,30.8a6.3,6.3,0,0,1-8.1,9.6A66.9,66.9,0,0,0,217.1,32a76,76,0,0,0-41.8-2.7,6.3,6.3,0,1,1-2.6-12.4c40.2-8.4,67.3,12.7,68.4,13.6Z"/><polygon class="c" points="86.2 273.6 122.4 254.6 136.1 290.5 100.1 303.2 86.2 273.6"/><path class="d" d="M97.8,272.1s11.4-2.4,16.3,0,9,16.7,9,16.7l23.9,1.7-21.7-40.6-22.4,10.6Z"/><path class="e" d="M105.7,137.5a36.4,36.4,0,0,0-18.6,47.9l61.5,140.1a36.4,36.4,0,0,0,47.9,18.7l133.1-58.5a76.7,76.7,0,0,0,45.9-70.3V136.6c0-55.4-56.9-92.6-107.6-70.3Z"/><circle class="f" cx="326.3" cy="236.8" r="12.2" transform="translate(21.1 500.2) rotate(-76.8)"/><circle class="f" cx="274.3" cy="93.4" r="12.2" transform="translate(120.6 339.1) rotate(-76.8)"/><circle class="f" cx="125.4" cy="178.9" r="12.2" transform="translate(-77.6 259.7) rotate(-76.7)"/><g class="g"><path class="h" d="M209.8,256.7l-11.7,11.9-48.9,42.5-7.7-1.8,7.1,16.2a35.5,35.5,0,0,0,2.3,4.3c5.8-1.6,13-3.9,16.1-6.4,5.7-4.4,31.4-40.5,31.4-40.5s7.6-4.7,8.6-7.2,2.9-13.7,3.7-15.6S209.8,256.7,209.8,256.7Z"/><path class="h" d="M165.5,250.2c2.6-.3,4.5-4,4.5-4l4.1-1.8.5-4.1-6.8-2.8-38.2-11-23.8-5.2-1.2,4,7,15.8,39.8,7.9S162.8,250.4,165.5,250.2Z"/></g><path class="e" d="M282.9,220.1l2.7,24.7,14,22.8,21.5,21.8-88.8,38.9L227,285.5l-5-22.8-14.2-24.2,73.8-32.1a5.8,5.8,0,0,1,.6,1.6C282.2,208.7,282.9,220.1,282.9,220.1Z"/><rect class="i" x="223.4" y="233.1" width="73.8" height="50.39" rx="2.5" transform="translate(-81.1 124.4) rotate(-23.4)"/><rect class="j" x="228" y="235.6" width="58.5" height="31.33" rx="2" transform="translate(-78.6 122.6) rotate(-23.4)"/><rect class="k" x="259.9" y="267.2" width="13.4" height="11.84" rx="2.1" transform="translate(-86.4 128.1) rotate(-23.4)"/><path class="l" d="M279.5,206l-35.2,15.2L209,236.5a1.8,1.8,0,0,0-.6,2.9l8.5,9.2a1.5,1.5,0,0,0,1.6.3l31.8-13.8,31.8-13.7a1.4,1.4,0,0,0,.8-1.3l-.8-12.5A1.9,1.9,0,0,0,279.5,206Z"/><path class="m" d="M282.9,220.1l-.8-12.5a2,2,0,0,0-2-.3l-35.3,15.3-35.2,15.2a1.8,1.8,0,0,0-1.2,1.7l8.5,9.1a1.5,1.5,0,0,0,1.6.3l31.8-13.8,31.8-13.7A1.4,1.4,0,0,0,282.9,220.1Z"/><path class="n" d="M279.8,220.9l-.3-10.3a1.6,1.6,0,0,0-1.8-.2l-32.1,13.9-32.2,13.9a2.1,2.1,0,0,0-1.1,1.4l7.4,7.2a.9.9,0,0,0,1.3.2l29-12.5L279,222A1.3,1.3,0,0,0,279.8,220.9Z"/><path class="o" d="M248.5,296.2l-2.9-13.7s2.7-8.8,2.5-10.4S245,260,245,260s-2-.2-2.4.8,0,6.2,0,6.2a15.8,15.8,0,0,1-2-2.6c-.3-.7-1-7.9-1.3-11.3a2,2,0,0,0-2-1.8h0a2,2,0,0,0-2,1.7l-.5,4.1-3.4.6-1.6,3.8-3.5,7.6,2.2,8.6,5,6.7,1.1,11.8Z"/><path class="o" d="M296.6,275.7l-9.5-10.4s-8.6-2.9-9.9-4.1-7.9-9.6-7.9-9.6,1-1.8,2.1-1.5,5,3.6,5,3.6a11.1,11.1,0,0,0-1-3c-.4-.7-5.8-5.5-8.4-7.7a2,2,0,0,1-.3-2.7h0a2,2,0,0,1,2.6-.6l3.6,1.9,2.5-2.3,4,.9,8.2,1.6,5.7,6.8,2.5,8,8.9,7.8Z"/><rect class="l" x="142.2" y="231.1" width="61.7" height="44.22" transform="translate(-74.9 72.8) rotate(-19.6)"/><rect class="p" x="141.7" y="231.5" width="60.1" height="40.94" transform="translate(-74.6 72.2) rotate(-19.6)"/><rect class="l" x="139.2" y="228.1" width="61.7" height="44.22" transform="translate(-74.1 71.6) rotate(-19.6)"/><path class="o" d="M143.9,226.5l7.2,3s8.3-1.7,11.1-.7,10.9,6.3,11.8,6.9a9.8,9.8,0,0,1,2.2,4.1c0,.7-1.8,3.3-3.7,3.5l-10.6.4s2.2,1.9,2.6,2.4a3.1,3.1,0,0,1,.1,2.3c-.3.3-7-2.6-9-3.2s-4.8-3.2-5.3-3.7L148,239l-8-3.3Z"/><path class="o" d="M189.7,285.5l5-6.1s8.2-2.2,10.2-4.4,1.3-5.7,1.8-6.6-.2-7.1.2-7.5,3.6-3.2,4.9-4.6.6-3.5-.5-3-13.5,8.6-13.5,8.6,1.1-2.7,1.2-3.3-.5-2-.9-2.1-5.1,5.5-6.5,6.9-2.9,5.1-3.1,5.8l-.9,3.3L182,279Z"/><rect class="q" x="186.2" y="143.1" width="59" height="39.56" rx="5.2" transform="translate(-40.4 76.5) rotate(-18.4)"/><path class="r" d="M245.3,175.2l-46,15.4a6.7,6.7,0,0,1-8.3-4.2l-9.2-27.6a6.6,6.6,0,0,1,4.2-8.3l46-15.3a6.5,6.5,0,0,1,8.3,4.1l9.2,27.6A6.5,6.5,0,0,1,245.3,175.2Zm-56.4-22.9a3.9,3.9,0,0,0-2.5,5l9.2,27.6a3.9,3.9,0,0,0,4.9,2.4l44-14.6a3.9,3.9,0,0,0,2.4-4.9l-9.1-27.6a3.9,3.9,0,0,0-5-2.5Z"/><path class="s" d="M190.6,171.2a1.7,1.7,0,0,1-1.1,2.1,1.5,1.5,0,0,1-2-1.1,1.5,1.5,0,0,1,1-2A1.7,1.7,0,0,1,190.6,171.2Z"/><polygon class="e" points="148.2 118.9 191.6 181.2 211.2 176.3 205.7 163.2 194.4 160 181.1 136.1 249.2 111.2 250.3 100.4 241.3 78 148.2 118.9"/><path class="t" d="M208.8,169.3l-9-4.1a1.1,1.1,0,0,0-1.3.3h-.1a1.1,1.1,0,0,0,.4,1.6l9.1,4a1.1,1.1,0,0,0,1.4-.4A1.1,1.1,0,0,0,208.8,169.3Z"/><path class="o" d="M189.4,111.2a22,22,0,0,1-5.1,1.4c-2.5.4-5.6-1-7.7-.7s-7.3,4-7.3,4l-2,4.9-1.3,8.1,9,3.6s2.3,1.1,6.1-.9,10.5-7.9,10.5-7.9l4.6-2.3Z"/><path class="o" d="M195.7,156.6l6.2,2.2a55.3,55.3,0,0,1,3.8,4.4c.6.9,0,3.8,0,3.8s2.1,2.1,2,4.1-3.3,4.8-7.4,4.9-8.3.6-9.2,0-5.5-9.7-5.5-9.7l-6.4-8.8,12.5-6.1Z"/><path class="u" d="M65.8,284.2s-2-21,2.8-27.6,30.5-51.8,32.7-53.6,47.9,23.3,47.9,23.3-5.2,12.1-5.7,12.3-34.4-12.1-34.4-12.1l-5.9,18.9,8.8-3.3,7.8,17.9s-9.3,5.8-25.1,13.6A140,140,0,0,1,65.8,284.2Z"/><path class="u" d="M83.4,318.5c-.2.5,22.8,17.4,31.6,14.4s43.4-11.6,48-15,30.6-34,30.6-34l-8.2-10-27.3,24.7-18.8,5.8-8.8-20.2S92.3,295.7,83.4,318.5Z"/><path class="v" d="M230.6,291.8l20.4-2.7,7.6,27.8,52-22.9-18-17.8L305,261.1l39.9,32.8s11.7,34.6,11.4,38.4-14.2,32.9-35.2,42.7-49.5-2.9-53.3-3.8-26.3-29.4-26.7-30.4S230.6,291.8,230.6,291.8Z"/><path class="v" d="M251.5,97.8c-2.6-13.8-3.8-44.7-6.4-49.1S234,34.9,221.7,30.1c0,0-52.5-4.5-64.6,2.9s-16.4,72.5-16.4,75.4,40.5,54.5,40.5,54.5L194,152.8l-25.9-42.6,57.7-25.4,1,7.2-40.3,18.6,8,14.3L246.1,107A8.2,8.2,0,0,0,251.5,97.8Z"/><polygon class="w" points="187.4 158 182.5 159.1 141 109.3 181.2 162.9 187.4 158"/><path class="w" d="M251.5,100.4a15.4,15.4,0,0,1-6.2,4.9c-3.8,1.5-48.4,15.1-48.4,15.1l-5.3-.6,2.9,5.1L246.1,107A8,8,0,0,0,251.5,100.4Z"/><path class="w" d="M168.1,110.2l8.2-61.1s23.8-2.5,30.5,0S223.3,56,223.3,56l2.5,28.8Z"/><path class="w" d="M161,37.4s12.5,15.4,12.8,30.5,5.2,8.8,5.2,8.8l-2.7-27.6S169.9,40.2,161,37.4Z"/><path class="w" d="M223.9,62.3s-2.8-16.2,5-24.1A25.2,25.2,0,0,0,216,54C213,65.3,223.9,62.3,223.9,62.3Z"/><path class="o" d="M212.8,50.9c.4-.2-.3,11-.3,11l-3.7,5.8s-8.6,6.1-10.2,6.8-10.9.9-10.9.9-2.8,1.4-4.1.7-2.7-5.2-2.7-5.2-5.2-2.8-5-13.5S189.7,42,189.7,42Z"/><path class="o" d="M179.5,31s-3.2-1.3-5,1.1,1.2,6.9,1.2,6.9Z"/><path class="o" d="M221.7,51.4s2.4.7,2.4,2.6-4.6,6.9-7.7,6.5S221.7,51.4,221.7,51.4Z"/><path class="x" d="M174.4,54s-1.8-19.3,4.5-28.6,13.2-10.8,13.2-10.8A18.2,18.2,0,0,1,207,13.3c8.2,2.9,15.4,10.6,18.1,18.7s-1.2,19.8-5.7,25.5a59.5,59.5,0,0,1-10.6,10.2s2.5-7.5-.4-8c0,0-12,9.1-20,8.6s-9.6-2.1-9.6-2.1,9.8-2.4,13.9-5.8c0,0-11.4,3.5-16.7,3.3l3.9-4.8-2.7,1.3A9.8,9.8,0,0,1,174.4,54Z"/><path class="y" d="M112,242.1l-8.8,3.3-5.4,13.7s8.5-1.2,10.5,0,2.6,2.9,4.2,5.2l7.3-4.3Z"/><path class="y" d="M130.5,284.2s-2.4.7-6.1,2.1c1.6,3.7,4,9.8,3.4,13.5-.7,5.5-8,9.7-8,9.7l19.5-5.1Z"/><path class="o" d="M283.4,340.2s-3.4-9.5.1-15,15.5-10.7,22.6-8c10.6,4.1,9.8,7.5,9.8,7.5Z"/><path class="x" d="M321,325.6s-7.6-8.2-18.9-6.4-13.8,4.2-13.8,4.2h3l-5.3,4s-6.2,10.2-6,17.4a21.8,21.8,0,0,0,3.5,11.8s1.4,7.1,4.7,10.1,11.4,6.3,17.5,5.7a31.1,31.1,0,0,0,11.3-3.9,14.1,14.1,0,0,0,9.1-4.9,15,15,0,0,0,3.5-9.6s3.7-4.6,3.9-7.2-1.9-9.5-1.9-9.5S329.1,326,321,325.6Z"/><path class="x" d="M100.5,276.2s-7.6-8.2-18.9-6.4-13.9,4.1-13.9,4.1h3l-5.3,4s-6.2,10.1-6,17.4A21.4,21.4,0,0,0,63,307.1s1.3,7.1,4.6,10.1,11.4,6.3,17.5,5.6A30.8,30.8,0,0,0,96.5,319a13.8,13.8,0,0,0,9-5,14.8,14.8,0,0,0,3.5-9.5s3.7-4.6,3.9-7.3-1.8-9.4-1.8-9.4S108.5,276.6,100.5,276.2Z"/><path class="w" d="M258.6,316.9l3.2,13,8.7,10.3s2.3-14.5,13.6-23.8,30.9-7,33.8-6.9,13.9,13,13.9,13l-6-16L310.6,294Z"/><path class="z" d="M352.8,340.8s-21.3,27.4-40.9,32.8c-17.2,4.8-38.1-.7-43.1-2.1,6.5,2.2,32.7,12.6,52.3,3.5C336.1,368,347.4,351.3,352.8,340.8Z"/><path class="t" d="M203.9,167l-10-4.6a1.2,1.2,0,0,0-1.4.3v.2a1.1,1.1,0,0,0,.4,1.8l10.1,4.4a1.1,1.1,0,0,0,1.5-.5A1.1,1.1,0,0,0,203.9,167Z"/><rect class="l" x="273.2" y="154.3" width="61.7" height="44.22"/><rect class="p" x="273.2" y="154.3" width="60.1" height="40.94"/><rect class="l" x="271.3" y="150.4" width="61.7" height="44.22"/><path class="aa" d="M111.3,184.1a1.9,1.9,0,0,0,2.5.6l6.4-4-1.9-3.1-6.4,3.9A1.8,1.8,0,0,0,111.3,184.1Z"/><circle class="aa" cx="126.1" cy="174.9" r="11.4" transform="translate(-86.7 140.4) rotate(-45)"/><circle class="ab" cx="126.1" cy="174.9" r="9.2"/><path class="ac" d="M117.3,177.5a9.2,9.2,0,0,0,17.9-1.4,9.1,9.1,0,0,0-8.8-6.6A9.3,9.3,0,0,0,117.3,177.5Z"/><path class="aa" d="M286.1,77.5a1.9,1.9,0,0,0-2.6,0l-5.3,5.3,2.6,2.6,5.3-5.3A1.7,1.7,0,0,0,286.1,77.5Z"/><circle class="aa" cx="273.5" cy="90.2" r="11.4" transform="translate(122.6 335.5) rotate(-76.7)"/><circle class="ab" cx="273.5" cy="90.2" r="9.2"/><path class="ac" d="M264.7,92.9a9.1,9.1,0,0,0,8.8,6.5,9.2,9.2,0,0,0,9.1-7.9,9.2,9.2,0,0,0-17.9,1.4Z"/><path class="aa" d="M334,245.1a1.6,1.6,0,0,0,.5-2.3l-3.7-5.9-2.9,1.9,3.7,5.8A1.8,1.8,0,0,0,334,245.1Z"/><circle class="aa" cx="325.4" cy="230.7" r="10.4" transform="translate(25.8 494.1) rotate(-76.7)"/><circle class="ab" cx="325.4" cy="230.7" r="8.4"/><path class="ac" d="M317.3,233.1a8.4,8.4,0,0,0,16.4-1.2,8.4,8.4,0,0,0-8-6.1A8.5,8.5,0,0,0,317.3,233.1Z"/><path class="o" d="M116.3,284.2c-.3-.6-1.8-.9-3.3-1-5.6-10.5-19.9-10.8-19.9-10.8s-1.2,4.5,4.9,11.9,6.1,22.2,6.1,22.2a25.8,25.8,0,0,0,6.4-5.3c2.8-3,5.4-7.4,4.3-13.2C115.7,286.6,116.6,284.8,116.3,284.2Z"/><path class="w" d="M254.2,293.9l-1.5-5.2a2.6,2.6,0,0,0-2.9-1.9L231.9,289a2.8,2.8,0,0,0-2.3,3.4l1.3,5.5A2.8,2.8,0,0,0,234,300l17.9-2.7A2.7,2.7,0,0,0,254.2,293.9Z"/><path class="w" d="M286.6,273.4l4.2,3.4a2.7,2.7,0,0,0,3.5-.2l13.2-12.3a2.7,2.7,0,0,0-.1-4l-4.4-3.8a2.6,2.6,0,0,0-3.6.2l-13,12.6A2.7,2.7,0,0,0,286.6,273.4Z"/><path class="ad" d="M230.5,158.2c1.5,3,2.7,5.7,4.1,8.7,0,.1,0,.2-.1.2h0l-8.2,2.5h-.2c-.9-3.1-2-6.3-2.9-9.5h.1l6.3-1.9.6-.2h.2Z"/><path class="ad" d="M227,150.4l2.9,6.5h-.1l-6.8,2h-.1c-.8-2.4-1.5-4.8-2.2-7.1,0-.1,0-.2.1-.2l5.5-1.6h.5Z"/><path class="ad" d="M220,152.1c.7,2.3,1.3,4.7,2.1,7.1,0,.1,0,.1-.1.2l-6.8,2H215l-1.2-7.4h.1l5.9-1.8Z"/><path class="ad" d="M222.4,160.6l2.8,9.2h-.1l-8,2.4h-.4c-.4-3.3-1-6.6-1.5-9.9h.1l6.9-2.1c.1,0,.1,0,.1.1v.3Z"/><path class="ae" d="M223.5,160.6l6.5-1.9.6-.2h.1l-.2-.3v-.3h-.2l-.6.2-6.3,1.9h-.1c.1.3.1.5.2.8S223.4,160.6,223.5,160.6Z"/><path class="ae" d="M221,152.4l5.6-1.7h.5v-.2l-.2-.4h-.5l-5.5,1.6c-.1,0-.1.1-.1.2a2.5,2.5,0,0,0,.2.7Z"/><path class="af" d="M222.1,159.3h0Z"/><path class="ae" d="M213.9,154.6l6.1-1.9h.2a1.9,1.9,0,0,1-.2-.7h-.2l-5.9,1.8h-.1a1.5,1.5,0,0,1,.1.7Z"/><path class="ae" d="M215.3,163.1l7.1-2.2h.2l-.2-.4v-.3c0-.1,0-.1-.1-.1l-6.9,2.1h-.1a1.5,1.5,0,0,0,.1.7Z"/><rect class="p" x="264.7" y="117.6" width="61.7" height="44.22" transform="translate(-17.8 46.7) rotate(-8.8)"/><rect class="l" x="264.3" y="117.2" width="61.7" height="44.22" transform="translate(-17.8 46.6) rotate(-8.8)"/><rect class="p" x="264.1" y="117.3" width="60.1" height="40.94" transform="translate(-17.6 46.5) rotate(-8.8)"/><rect class="l" x="261.9" y="113.6" width="61.7" height="44.22" transform="translate(-17.3 46.2) rotate(-8.8)"/><circle class="ag" cx="298.4" cy="134.8" r="11.7"/><path class="l" d="M300.8,143.9l4.4-5.9-4.7-3.5h0l3.4-4.7-5.8-4.3-3.5,4.7h0l-4.3,5.9,5.8,4.3h0Zm2.3-5.6-2.6,3.5-3.5-2.6,2.6-3.5Zm-1.2-8.2-2.6,3.6-3.5-2.6,2.6-3.6Zm-9.6,5.7,2.6-3.6,3.5,2.6-2.6,3.6Z"/><circle class="ag" cx="322.9" cy="173.7" r="4.6"/><path class="l" d="M323.4,177.4l2-2.1-1.6-1.6h0l1.6-1.7-2.1-2-1.6,1.6h0l-2,2.1,2,2h0Zm1.2-2.1-1.2,1.2-1.3-1.2,1.3-1.2Zm0-3.3-1.3,1.3-1.2-1.3,1.2-1.2Zm-4.1,1.7,1.2-1.3,1.2,1.3-1.2,1.2Z"/><path class="ah" d="M310.8,163.7v23.8a.7.7,0,1,1-1.4,0V163.9Z"/><path class="ah" d="M302.8,164.8v22.7a.9.9,0,0,1-.8.8.8.8,0,0,1-.7-.8V165Z"/><path class="ah" d="M294.7,165.9v21.6a.8.8,0,0,1-.7.8.9.9,0,0,1-.8-.8V166.2Z"/><path class="ah" d="M286.6,167.4v20.1a.7.7,0,1,1-1.4,0V167.7Z"/></svg>