<svg xmlns="http://www.w3.org/2000/svg" xmlns:xlink="http://www.w3.org/1999/xlink" viewBox="0 0 400 400"><defs><style>.a{fill:none;}.b{isolation:isolate;}.c,.ca{opacity:0.2;}.d{fill:#37b5e8;}.e{clip-path:url(#a);}.f{fill:#70f9e8;}.g{fill:#60f4e6;}.h{fill:#4ef2e6;}.i{fill:#45ede5;}.j{fill:#3beae5;}.k{fill:#35e5e5;}.l{fill:#33d5dd;}.m{fill:#31cbdb;}.n{fill:#2bbfd8;}.o{fill:#2bb6d6;}.p{fill:#27a6cc;}.q{fill:#1f99c9;}.r{fill:#1a8dc6;}.s{fill:#1481c4;}.t{clip-path:url(#b);}.u{fill:#8a999e;}.v{clip-path:url(#c);}.w{fill:#0e71bb;}.x{clip-path:url(#d);}.y{fill:#87abbb;}.z{fill:#84a7b7;}.aa{fill:#80a3b2;}.ab{fill:#7d9ead;}.ac{fill:#7a9aa8;}.ad{fill:#7696a4;}.ae{fill:#73929f;}.af{fill:#708d9a;}.ag{fill:#6c8996;}.ah{fill:#698591;}.ai{clip-path:url(#e);}.aj{fill:#586f7a;}.ak{fill:#5b747e;}.al{fill:#5f7883;}.am{fill:#627c88;}.an{fill:#65808c;}.ao{fill:#bfd4db;}.ap{fill:#def6ff;}.aq{fill:#b2ddea;}.ar{clip-path:url(#f);}.as{clip-path:url(#g);}.at{fill:#b2c5cc;}.au{fill:#adc0c7;}.av{fill:#a9bbc2;}.aw{fill:#a4b6bd;}.ax{fill:#a0b1b8;}.ay{fill:#9bacb3;}.az{fill:#97a7ad;}.ba{fill:#93a2a8;}.bb{fill:#8e9da3;}.bc{clip-path:url(#h);}.bd{fill:#738085;}.be{fill:#78858a;}.bf{fill:#7c8a8f;}.bg{fill:#818f94;}.bh{fill:#859499;}.bi{clip-path:url(#i);}.bj{clip-path:url(#j);}.bk{clip-path:url(#k);}.bl{clip-path:url(#l);}.bm{clip-path:url(#m);}.bn{clip-path:url(#n);}.bo{clip-path:url(#o);}.bp{clip-path:url(#p);}.bq{clip-path:url(#q);}.br{fill:#a9d6ea;}.bs{fill:#5fb7dd;}.bt{fill:#95c4de;}.bu{fill:#ffe7cb;}.bv{fill:#f59b6b;}.bw{fill:#ef7f4d;}.bx,.ca{fill:#152735;}.by{fill:#314656;}.bz{opacity:0.25;mix-blend-mode:overlay;}.ca{mix-blend-mode:multiply;}.cb{fill:#333;}.cc{fill:#fff;}.cd{fill:#c0c2c1;}.ce{fill:#e6e6e6;}.cf{fill:#000100;}.cg{fill:#fe9a0f;}.ch{fill:#e2810c;}.ci{fill:#dd7f10;}.cj{fill:#ae4e32;}.ck{fill:#9e402b;}.cl{fill:#fe9b0e;}</style><clipPath id="a"><path class="a" d="M227.6,254.5c24.2-13.9,43.7-47.7,43.6-75.5,2.2,1.4,4.5,2.7,6.8,4,.1,27.8-19.4,61.5-43.6,75.5Z"/></clipPath><clipPath id="b"><path class="a" d="M196.5,257.6c7.9,4.6,19,4,31.1-3.1l6.8,4c-12.1,7-23.2,7.7-31.1,3Z"/></clipPath><clipPath id="c"><path class="a" d="M271.2,179c-.1-13.7-4.9-23.4-12.8-28l6.8,3.9c7.9,4.6,12.7,14.3,12.8,28.1C275.7,181.7,273.4,180.4,271.2,179Z"/></clipPath><clipPath id="d"><path class="a" d="M258.4,151l6.8,3.9c-7.9-4.6-18.9-3.9-31.1,3.1l-6.8-4C239.5,147,250.5,146.4,258.4,151Z"/></clipPath><clipPath id="e"><path class="a" d="M203.3,261.5l-6.8-3.9c-7.9-4.6-12.7-14.3-12.8-28.1,0-27.7,19.5-61.5,43.6-75.5l6.8,4c-24.1,13.9-43.6,47.7-43.6,75.5C190.6,247.3,195.4,257,203.3,261.5Z"/></clipPath><clipPath id="f"><path class="a" d="M159,143.9c0-1.9-.6-3.2-1.7-3.8l6.8,3.9c1.1.6,1.7,2,1.7,3.9h0l-4.3-2.5-2.5-1.5c2.3,1.3,4.6,2.6,6.8,4a13,13,0,0,1-5.9,10.3l-6.8-4A13,13,0,0,0,159,143.9Z"/></clipPath><clipPath id="g"><path class="a" d="M157.3,140.1l1,.6,5.8,3.3c-1.1-.6-2.6-.5-4.3.4l-6.8-3.9C154.7,139.5,156.2,139.4,157.3,140.1Z"/></clipPath><clipPath id="h"><path class="a" d="M155.6,158.6l-6.8-3.9c-1.1-.7-1.7-2-1.7-3.9a13,13,0,0,1,5.9-10.3l6.8,3.9a13.4,13.4,0,0,0-5.9,10.4C153.9,156.7,154.5,158,155.6,158.6Z"/></clipPath><clipPath id="i"><path class="a" d="M143.9,153.6l6,3.5h0Z"/></clipPath><clipPath id="j"><path class="a" d="M143.1,153.1a4.2,4.2,0,0,0-1.7-3.8l6.7,3.9a4.3,4.3,0,0,1,1.8,3.9h0l-6.8-4,6.8,4a13.2,13.2,0,0,1-6,10.3l-6.8-3.9A13.3,13.3,0,0,0,143.1,153.1Z"/></clipPath><clipPath id="k"><path class="a" d="M132.9,163.9a4.3,4.3,0,0,0,4.2-.4l6,3.4.8.5c-1.6,1-3.2,1.1-4.2.4Z"/></clipPath><clipPath id="l"><path class="a" d="M141.4,149.3l6.7,3.9a4.1,4.1,0,0,0-4.2.5l-6.8-4A4.3,4.3,0,0,1,141.4,149.3Z"/></clipPath><clipPath id="m"><path class="a" d="M139.7,167.8l-6.8-3.9a4.3,4.3,0,0,1-1.8-3.9,13.2,13.2,0,0,1,6-10.3l6.8,4a13.2,13.2,0,0,0-6,10.3C137.9,165.9,138.6,167.2,139.7,167.8Z"/></clipPath><clipPath id="n"><path class="a" d="M127.9,162.8l6,3.5h0Z"/></clipPath><clipPath id="o"><path class="a" d="M127.1,162.3c0-1.9-.6-3.2-1.7-3.8l6.8,4c1.1.6,1.7,1.9,1.7,3.8h0l-6.8-4,6.8,4a12.9,12.9,0,0,1-6,10.3l-6.7-3.9A13.2,13.2,0,0,0,127.1,162.3Z"/></clipPath><clipPath id="p"><path class="a" d="M125.4,158.5l6.8,4c-1.1-.7-2.6-.6-4.3.4l-6.8-4C122.8,158,124.3,157.9,125.4,158.5Z"/></clipPath><clipPath id="q"><path class="a" d="M123.7,177l-6.8-3.9a4.2,4.2,0,0,1-1.8-3.8,13.3,13.3,0,0,1,6-10.4l6.8,4a13.2,13.2,0,0,0-6,10.3C121.9,175.1,122.6,176.4,123.7,177Z"/></clipPath></defs><title>advantage-linux-dedicated-servers</title><g class="b"><g class="c"><polygon class="d" points="5.6 314.5 112 376.3 357.6 234.5 248.7 170.5 5.6 314.5"/></g><g class="b"><g class="e"><g class="b"><path class="f" d="M234.4,258.5l-6.8-4a69.9,69.9,0,0,0,14.6-11.3l6.8,4a73.4,73.4,0,0,1-14.6,11.3Z"/><path class="g" d="M249,247.2l-6.8-4c1.7-1.6,3.2-3.3,4.8-5.1l6.8,4c-1.6,1.8-3.1,3.5-4.8,5.1Z"/><path class="h" d="M253.8,242.1l-6.8-4c1.2-1.4,2.4-2.8,3.5-4.3l6.8,4c-1.1,1.5-2.3,2.9-3.5,4.3Z"/><path class="i" d="M257.3,237.8l-6.8-4,3-3.9,6.7,3.9c-.9,1.4-1.9,2.7-2.9,4Z"/><path class="j" d="M260.2,233.8l-6.7-3.9,2.5-3.8,6.8,3.9c-.9,1.3-1.7,2.6-2.6,3.8Z"/><path class="k" d="M262.8,230l-6.8-3.9c.8-1.2,1.5-2.5,2.2-3.7l6.8,4c-.7,1.2-1.4,2.4-2.2,3.6Z"/><path class="l" d="M265,226.4l-6.8-4,2.1-3.7,6.8,4-2.1,3.7Z"/><path class="m" d="M267.1,222.7l-6.8-4,1.9-3.7,6.8,3.9c-.6,1.3-1.3,2.5-1.9,3.8Z"/><path class="n" d="M269,218.9l-6.8-3.9c.6-1.3,1.2-2.5,1.7-3.8l6.8,4c-.5,1.2-1.1,2.5-1.7,3.7Z"/><path class="o" d="M270.7,215.2l-6.8-4c.6-1.3,1.1-2.6,1.6-3.9l6.8,3.9c-.5,1.3-1,2.7-1.6,4Z"/><path class="p" d="M272.3,211.2l-6.8-3.9,1.5-4.2,6.8,4-1.5,4.1Z"/><path class="q" d="M273.8,207.1l-6.8-4c.5-1.4.9-2.9,1.4-4.4l6.7,3.9c-.4,1.5-.8,3-1.3,4.5Z"/><path class="r" d="M275.1,202.6l-6.7-3.9,1.2-5,6.8,3.9c-.4,1.7-.8,3.4-1.3,5Z"/><path class="s" d="M276.4,197.6l-6.8-3.9c.4-2.1.8-4.1,1-6.1l6.8,4c-.2,2-.6,4-1,6Z"/><path class="s" d="M277.4,191.6l-6.8-4a63.3,63.3,0,0,0,.6-8.6c-.1-13.7-4.9-23.4-12.8-28l6.8,3.9c7.9,4.6,12.7,14.3,12.8,28.1a63.3,63.3,0,0,1-.6,8.6Z"/></g></g></g><g class="b"><g class="t"><g class="b"><path class="u" d="M203.3,261.5l-6.8-3.9h.2l6.8,4-.2-.2Z"/><path class="m" d="M203.5,261.7l-6.8-4,2.2,1.1,6.8,3.9-2.2-1Z"/><path class="k" d="M205.7,262.7l-6.8-3.9,2.3.8,6.8,4-2.3-.9Z"/><path class="k" d="M208,263.6l-6.8-4,2.5.6,6.8,3.9-2.5-.5Z"/><path class="j" d="M210.5,264.1l-6.8-3.9,2.6.3,6.8,3.9a11.5,11.5,0,0,1-2.6-.3Z"/><path class="j" d="M213.1,264.4l-6.8-3.9a28,28,0,0,0,2.9,0l6.8,4Z"/><path class="i" d="M216,264.5l-6.8-4a18.4,18.4,0,0,0,3.3-.3l6.8,3.9-3.3.4Z"/><path class="i" d="M219.3,264.1l-6.8-3.9,3.8-.8,6.8,3.9a25.7,25.7,0,0,1-3.8.8Z"/><path class="h" d="M223.1,263.3l-6.8-3.9,5.2-1.8,6.8,3.9a29.3,29.3,0,0,1-5.2,1.8Z"/><path class="g" d="M228.3,261.5l-6.8-3.9c2-.9,4-1.9,6.1-3.1l6.8,4a48.9,48.9,0,0,1-6.1,3Z"/></g></g></g><g class="b"><g class="v"><path class="w" d="M277.4,191.6l-6.8-4a63.3,63.3,0,0,0,.6-8.6c-.1-13.7-4.9-23.4-12.8-28l6.8,3.9c7.9,4.6,12.7,14.3,12.8,28.1a63.3,63.3,0,0,1-.6,8.6Z"/></g></g><g class="b"><g class="x"><g class="b"><path class="y" d="M234.1,158l-6.8-4a56.9,56.9,0,0,1,6.1-3l6.8,3.9c-2,.9-4,1.9-6.1,3.1Z"/><path class="z" d="M240.2,154.9l-6.8-3.9,5.2-1.8,6.8,4a39.3,39.3,0,0,0-5.2,1.7Z"/><path class="aa" d="M245.4,153.2l-6.8-4,3.8-.8,6.8,3.9-3.8.9Z"/><path class="ab" d="M249.2,152.3l-6.8-3.9a18.4,18.4,0,0,1,3.3-.3l6.8,3.9-3.3.3Z"/><path class="ac" d="M252.5,152l-6.8-3.9h2.9l6.8,3.9Z"/><path class="ad" d="M255.4,152l-6.8-3.9a10.9,10.9,0,0,1,2.6.3l6.8,3.9-2.6-.3Z"/><path class="ae" d="M258,152.3l-6.8-3.9a10.2,10.2,0,0,1,2.5.6l6.8,3.9-2.5-.6Z"/><path class="af" d="M260.5,152.9l-6.8-3.9,2.3.8,6.8,3.9-2.3-.8Z"/><path class="ag" d="M262.8,153.7l-6.8-3.9a15.1,15.1,0,0,1,2.2,1.1l6.8,3.9-2.2-1.1Z"/><path class="ah" d="M265,154.8l-6.8-3.9h.2l6.8,3.9Z"/></g></g></g><g class="b"><g class="ai"><g class="b"><path class="aj" d="M203.3,261.5l-6.8-3.9c-7.9-4.6-12.7-14.3-12.8-28.1a61.8,61.8,0,0,1,.6-8.5l6.8,3.9a63.3,63.3,0,0,0-.6,8.6c.1,13.8,4.9,23.5,12.8,28Z"/><path class="ak" d="M191.1,224.9l-6.8-3.9c.3-2,.6-4.1,1-6.1l6.8,4c-.4,2-.7,4-1,6Z"/><path class="al" d="M192.1,218.9l-6.8-4c.4-1.7.8-3.3,1.3-5l6.8,3.9c-.5,1.7-.9,3.4-1.3,5.1Z"/><path class="am" d="M193.4,213.8l-6.8-3.9c.4-1.5.8-3,1.3-4.5l6.8,4c-.5,1.5-.9,3-1.3,4.4Z"/><path class="an" d="M194.7,209.4l-6.8-4,1.5-4.1,6.8,4-1.5,4.1Z"/><path class="ah" d="M196.2,205.3l-6.8-4,1.6-3.9,6.8,3.9c-.5,1.3-1.1,2.6-1.6,4Z"/><path class="ag" d="M197.8,201.3l-6.8-3.9c.6-1.3,1.1-2.6,1.8-3.8l6.7,3.9c-.6,1.3-1.1,2.6-1.7,3.8Z"/><path class="af" d="M199.5,197.5l-6.7-3.9,1.8-3.7,6.8,3.9c-.6,1.2-1.2,2.5-1.9,3.7Z"/><path class="ae" d="M201.4,193.8l-6.8-3.9,2.1-3.7,6.8,3.9-2.1,3.7Z"/><path class="ad" d="M203.5,190.1l-6.8-3.9c.7-1.3,1.5-2.5,2.2-3.7l6.8,3.9c-.7,1.3-1.5,2.5-2.2,3.7Z"/><path class="ac" d="M205.7,186.4l-6.8-3.9c.9-1.3,1.7-2.6,2.6-3.8l6.8,4-2.6,3.7Z"/><path class="ab" d="M208.3,182.7l-6.8-4c.9-1.3,1.9-2.7,2.9-3.9l6.8,3.9c-1,1.3-2,2.6-2.9,4Z"/><path class="aa" d="M211.2,178.7l-6.8-3.9c1.1-1.5,2.3-3,3.5-4.4l6.8,4c-1.2,1.4-2.4,2.8-3.5,4.3Z"/><path class="z" d="M214.7,174.4l-6.8-4,4.8-5,6.8,3.9-4.8,5.1Z"/><path class="y" d="M219.5,169.3l-6.8-3.9A73.2,73.2,0,0,1,227.3,154l6.8,4a72.6,72.6,0,0,0-14.6,11.3Z"/></g></g></g><polygon class="ao" points="109.4 195.2 102.6 191.3 361 42.1 367.8 46 109.4 195.2"/><path class="ap" d="M109.4,195.2,367.8,46l.5,176.8a14.4,14.4,0,0,1-6.5,11.3L116.4,375.7c-3.6,2.1-6.5.5-6.5-3.7Zm125,63.3c24.2-14,43.7-47.7,43.6-75.5s-19.7-39-43.9-25-43.6,47.7-43.6,75.5,19.8,38.9,43.9,25Z"/><path class="aq" d="M109.9,372l-.5-176.8-6.8-3.9.5,176.8c0,2,.7,3.5,1.9,4.2l6.8,3.9C110.6,375.5,109.9,374.1,109.9,372Z"/><g class="b"><g class="ar"><g class="b"><path class="y" d="M159.9,158.2l-6.8-4a9.5,9.5,0,0,0,2-1.5l6.8,3.9a7.4,7.4,0,0,1-2,1.6Z"/><path class="z" d="M161.9,156.6l-6.8-3.9.6-.7,6.8,4-.6.6Z"/><path class="aa" d="M162.5,156l-6.8-4,.5-.6,6.8,4-.5.6Z"/><path class="ab" d="M163,155.4l-6.8-4,.4-.5,6.8,3.9-.4.6Z"/><path class="ac" d="M163.4,154.8l-6.8-3.9a1,1,0,0,1,.4-.5l6.7,3.9-.3.5Z"/><path class="ad" d="M163.7,154.3l-6.7-3.9.3-.5,6.8,3.9-.4.5Z"/><path class="ae" d="M164.1,153.8l-6.8-3.9.2-.5,6.8,3.9-.2.5Z"/><path class="af" d="M164.3,153.3l-6.8-3.9.3-.6,6.8,4-.3.5Z"/><path class="ag" d="M164.6,152.8l-6.8-4a.8.8,0,0,0,.2-.5l6.8,4-.2.5Z"/><path class="ah" d="M164.8,152.3l-6.8-4,.3-.5,6.8,3.9-.3.6Z"/><path class="an" d="M165.1,151.7l-6.8-3.9a1.4,1.4,0,0,1,.2-.6l6.8,4c-.1.2-.2.3-.2.5Z"/><path class="am" d="M165.3,151.2l-6.8-4c0-.2.1-.4.1-.6l6.8,4c0,.2-.1.4-.1.6Z"/><path class="al" d="M165.4,150.6l-6.8-4a1.9,1.9,0,0,0,.2-.7l6.8,4a2.5,2.5,0,0,1-.2.7Z"/><path class="ak" d="M165.6,149.9l-6.8-4,.2-.8,6.8,3.9c-.1.3-.1.6-.2.9Z"/><path class="aj" d="M165.8,149l-6.8-3.9v-1.2c0-1.9-.6-3.2-1.7-3.8l6.8,3.9c1.1.6,1.7,2,1.7,3.9V149Z"/></g></g></g><g class="b"><g class="as"><g class="b"><path class="at" d="M159.8,144.4l-6.8-3.9.9-.4,6.8,3.9-.9.4Z"/><path class="au" d="M160.7,144l-6.8-3.9.7-.3,6.8,4-.7.2Z"/><path class="av" d="M161.4,143.8l-6.8-4h.5l6.8,4Z"/><path class="aw" d="M161.9,143.7l-6.8-4h.5l6.8,3.9Z"/><path class="ax" d="M162.4,143.6l-6.8-3.9h.4l6.8,3.9Z"/><path class="ay" d="M162.8,143.6l-6.8-3.9h.3l6.8,4Z"/><path class="az" d="M163.1,143.7l-6.8-4h.4l6.7,3.9Z"/><path class="ba" d="M163.4,143.7l-6.7-3.9h.3l6.8,4-.4-.2Z"/><path class="bb" d="M163.8,143.9l-6.8-4,.3.2,6.8,3.9Z"/><path class="u" d="M164.1,144l-6.8-3.9h0l6.8,3.9Z"/></g></g></g><g class="b"><g class="bc"><g class="b"><path class="bd" d="M155.6,158.6l-6.8-3.9c-1.1-.7-1.7-2-1.7-3.9a4.9,4.9,0,0,1,.1-1.2l6.7,4v1.2c0,1.9.6,3.2,1.7,3.8Z"/><path class="be" d="M153.9,153.6l-6.7-4a2.5,2.5,0,0,1,.1-.8l6.8,4c-.1.2-.1.5-.2.8Z"/><path class="bf" d="M154.1,152.8l-6.8-4a2.5,2.5,0,0,1,.2-.7l6.7,4c0,.2-.1.4-.1.7Z"/><path class="bg" d="M154.2,152.1l-6.7-4c0-.2.1-.4.1-.6l6.8,4a1.4,1.4,0,0,1-.2.6Z"/><path class="bh" d="M154.4,151.5l-6.8-4c.1-.2.2-.3.2-.5l6.8,3.9a1.4,1.4,0,0,1-.2.6Z"/><path class="u" d="M154.6,150.9l-6.8-3.9.3-.6,6.8,4-.3.5Z"/><path class="bb" d="M154.9,150.4l-6.8-4,.2-.5,6.8,4a.8.8,0,0,0-.2.5Z"/><path class="ba" d="M155.1,149.9l-6.8-4,.3-.5,6.8,4-.3.5Z"/><path class="az" d="M155.4,149.4l-6.8-4c0-.2.1-.3.2-.5l6.8,4c-.1.1-.1.3-.2.5Z"/><path class="ay" d="M155.6,148.9l-6.8-4,.4-.5,6.7,3.9-.3.6Z"/><path class="ax" d="M155.9,148.3l-6.7-3.9.3-.5,6.8,3.9a1,1,0,0,1-.4.5Z"/><path class="aw" d="M156.3,147.8l-6.8-3.9.4-.6,6.8,4-.4.5Z"/><path class="av" d="M156.7,147.3l-6.8-4,.5-.6,6.8,4-.5.6Z"/><path class="au" d="M157.2,146.7l-6.8-4,.6-.7,6.8,4-.6.7Z"/><path class="at" d="M157.8,146l-6.8-4a13,13,0,0,1,2-1.5l6.8,3.9a14,14,0,0,0-2,1.6Z"/></g></g></g><g class="b"><g class="bi"><g class="b"><path class="aj" d="M149.8,158.2l-6.8-3.9a4.9,4.9,0,0,0,.1-1.2,4.2,4.2,0,0,0-1.7-3.8l6.7,3.9a4.3,4.3,0,0,1,1.8,3.9,4.5,4.5,0,0,1-.1,1.1Z"/></g></g></g><g class="b"><g class="bj"><g class="b"><path class="y" d="M143.9,167.4l-6.8-3.9a10,10,0,0,0,2-1.6l6.8,4a9.5,9.5,0,0,1-2,1.5Z"/><path class="z" d="M145.9,165.9l-6.8-4,.7-.7,6.8,4a4.6,4.6,0,0,0-.7.7Z"/><path class="aa" d="M146.6,165.2l-6.8-4,.5-.6,6.8,4-.5.6Z"/><path class="ab" d="M147.1,164.6l-6.8-4,.4-.5,6.8,3.9-.4.6Z"/><path class="ac" d="M147.5,164l-6.8-3.9.3-.5,6.8,3.9-.3.5Z"/><path class="ad" d="M147.8,163.5l-6.8-3.9.3-.5,6.8,3.9-.3.5Z"/><path class="ae" d="M148.1,163l-6.8-3.9.3-.6,6.8,4-.3.5Z"/><path class="af" d="M148.4,162.5l-6.8-4,.3-.5,6.8,4-.3.5Z"/><path class="ag" d="M148.7,162l-6.8-4,.2-.5,6.8,4a.8.8,0,0,0-.2.5Z"/><path class="ah" d="M148.9,161.5l-6.8-4,.2-.5,6.8,3.9c-.1.2-.1.4-.2.6Z"/><path class="an" d="M149.1,160.9l-6.8-3.9a1.4,1.4,0,0,0,.2-.6l6.8,4-.2.5Z"/><path class="am" d="M149.3,160.4l-6.8-4c.1-.2.1-.4.2-.6l6.8,3.9a6.4,6.4,0,0,1-.2.7Z"/><path class="al" d="M149.5,159.7l-6.8-3.9c.1-.2.1-.5.2-.7l6.8,4c-.1.2-.1.4-.2.6Z"/><path class="ak" d="M149.7,159.1l-6.8-4c0-.3.1-.5.1-.8l6.8,3.9c0,.3-.1.6-.1.9Z"/><path class="aj" d="M149.8,158.2l-6.8-3.9a4.9,4.9,0,0,0,.1-1.2,4.2,4.2,0,0,0-1.7-3.8l6.7,3.9a4.3,4.3,0,0,1,1.8,3.9,4.5,4.5,0,0,1-.1,1.1Z"/></g></g></g><g class="b"><g class="bk"><g class="b"><path class="ah" d="M139.7,167.8l-6.8-3.9h0l6.8,3.9Z"/><path class="ag" d="M139.7,167.8l-6.8-3.9h.3l6.8,4-.3-.2Z"/><path class="af" d="M140,168l-6.8-4,.3.2,6.8,3.9Z"/><path class="ae" d="M140.3,168.1l-6.8-3.9h.3l6.8,4Z"/><path class="ad" d="M140.6,168.2l-6.8-4h.4l6.8,3.9Z"/><path class="ac" d="M141,168.2l-6.8-3.9h.4l6.8,3.9Z"/><path class="ab" d="M141.4,168.2l-6.8-3.9h.5l6.7,4Z"/><path class="aa" d="M141.8,168.2l-6.7-4h.5l6.8,4Z"/><path class="z" d="M142.4,168.1l-6.8-4,.7-.2,6.8,3.9-.7.3Z"/><path class="y" d="M143.1,167.8l-6.8-3.9.8-.4,6.8,3.9-.8.4Z"/></g></g></g><g class="b"><g class="bl"><g class="b"><path class="at" d="M143.9,153.7l-6.8-4,.8-.4,6.8,3.9-.8.5Z"/><path class="au" d="M144.7,153.2l-6.8-3.9.7-.2,6.8,3.9-.7.2Z"/><path class="av" d="M145.4,153l-6.8-3.9.6-.2,6.8,4Z"/><path class="aw" d="M146,152.9l-6.8-4h.4l6.8,3.9Z"/><path class="ax" d="M146.4,152.8l-6.8-3.9h.4l6.8,3.9Z"/><path class="ay" d="M146.8,152.8l-6.8-3.9h.4l6.8,4Z"/><path class="az" d="M147.2,152.9l-6.8-4h.3l6.8,4Z"/><path class="ba" d="M147.5,153l-6.8-4h.3l6.8,4Z"/><path class="bb" d="M147.8,153.1l-6.8-4,.3.2,6.8,3.9Z"/><path class="u" d="M148.1,153.2l-6.8-3.9h.1l6.7,3.9Z"/></g></g></g><g class="b"><g class="bm"><g class="b"><path class="bd" d="M139.7,167.8l-6.8-3.9a4.3,4.3,0,0,1-1.8-3.9,4.5,4.5,0,0,1,.1-1.1l6.8,3.9a4.9,4.9,0,0,0-.1,1.2c0,1.9.7,3.2,1.8,3.8Z"/><path class="be" d="M138,162.8l-6.8-3.9c0-.3.1-.6.1-.9l6.8,4c0,.3-.1.5-.1.8Z"/><path class="bf" d="M138.1,162l-6.8-4c.1-.2.1-.4.2-.6l6.8,3.9c-.1.2-.1.5-.2.7Z"/><path class="bg" d="M138.3,161.3l-6.8-3.9a1.1,1.1,0,0,1,.2-.6l6.8,3.9a1.4,1.4,0,0,0-.2.6Z"/><path class="bh" d="M138.5,160.7l-6.8-3.9a1.4,1.4,0,0,1,.2-.6l6.8,3.9a1.4,1.4,0,0,0-.2.6Z"/><path class="u" d="M138.7,160.1l-6.8-3.9a.8.8,0,0,1,.2-.5l6.8,3.9-.2.5Z"/><path class="bb" d="M138.9,159.6l-6.8-3.9a1.4,1.4,0,0,0,.2-.6l6.8,4-.2.5Z"/><path class="ba" d="M139.1,159.1l-6.8-4,.3-.5,6.8,4-.3.5Z"/><path class="az" d="M139.4,158.6l-6.8-4,.3-.5,6.8,4-.3.5Z"/><path class="ay" d="M139.7,158.1l-6.8-4,.3-.5,6.8,4-.3.5Z"/><path class="ax" d="M140,157.6l-6.8-4,.3-.5,6.8,3.9-.3.6Z"/><path class="aw" d="M140.3,157l-6.8-3.9.4-.5,6.8,3.9a1,1,0,0,1-.4.5Z"/><path class="av" d="M140.7,156.5l-6.8-3.9.5-.6,6.8,3.9-.5.6Z"/><path class="au" d="M141.2,155.9l-6.8-3.9a2.3,2.3,0,0,1,.7-.7l6.8,3.9-.7.7Z"/><path class="at" d="M141.9,155.2l-6.8-3.9a7.4,7.4,0,0,1,2-1.6l6.8,4a9.5,9.5,0,0,0-2,1.5Z"/></g></g></g><g class="b"><g class="bn"><g class="b"><path class="aj" d="M133.8,167.4l-6.8-3.9a4.9,4.9,0,0,0,.1-1.2c0-1.9-.6-3.2-1.7-3.8l6.8,4c1.1.6,1.7,1.9,1.7,3.8a3.7,3.7,0,0,1-.1,1.1Z"/></g></g></g><g class="b"><g class="bo"><g class="b"><path class="y" d="M127.9,176.6l-6.7-3.9a14,14,0,0,0,2-1.6l6.7,4a9.5,9.5,0,0,1-2,1.5Z"/><path class="z" d="M129.9,175.1l-6.7-4,.6-.7,6.8,4-.7.7Z"/><path class="aa" d="M130.6,174.4l-6.8-4,.5-.6,6.8,4-.5.6Z"/><path class="ab" d="M131.1,173.8l-6.8-4,.4-.5,6.8,3.9-.4.6Z"/><path class="ac" d="M131.5,173.2l-6.8-3.9.3-.5,6.8,3.9-.3.5Z"/><path class="ad" d="M131.8,172.7l-6.8-3.9.3-.5,6.8,3.9-.3.5Z"/><path class="ae" d="M132.1,172.2l-6.8-3.9.3-.5,6.8,3.9-.3.5Z"/><path class="af" d="M132.4,171.7l-6.8-3.9.3-.5,6.8,3.9-.3.5Z"/><path class="ag" d="M132.7,171.2l-6.8-3.9a1.4,1.4,0,0,0,.2-.6l6.8,4-.2.5Z"/><path class="ah" d="M132.9,170.7l-6.8-4c.1-.2.2-.3.2-.5l6.8,3.9a1.4,1.4,0,0,1-.2.6Z"/><path class="an" d="M133.1,170.1l-6.8-3.9a1.4,1.4,0,0,0,.2-.6l6.9,4-.3.5Z"/><path class="am" d="M133.4,169.6l-6.9-4a1.4,1.4,0,0,0,.2-.6l6.8,4c0,.2-.1.4-.1.6Z"/><path class="al" d="M133.5,169l-6.8-4a1.4,1.4,0,0,0,.2-.7l6.8,4a2.5,2.5,0,0,1-.2.7Z"/><path class="ak" d="M133.7,168.3l-6.8-4a2.2,2.2,0,0,0,.1-.8l6.8,3.9a2.8,2.8,0,0,1-.1.9Z"/><path class="aj" d="M133.8,167.4l-6.8-3.9a4.9,4.9,0,0,0,.1-1.2c0-1.9-.6-3.2-1.7-3.8l6.8,4c1.1.6,1.7,1.9,1.7,3.8a3.7,3.7,0,0,1-.1,1.1Z"/></g></g></g><g class="b"><g class="bp"><g class="b"><path class="at" d="M127.9,162.9l-6.8-4,.9-.4,6.8,4-.9.4Z"/><path class="au" d="M128.8,162.5l-6.8-4,.7-.2,6.8,3.9-.7.3Z"/><path class="av" d="M129.5,162.2l-6.8-3.9h.5l6.8,3.9Z"/><path class="aw" d="M130,162.1l-6.8-3.9h.4l6.8,4Z"/><path class="ax" d="M130.4,162.1l-6.8-4h.4l6.8,4Z"/><path class="ay" d="M130.8,162.1l-6.8-4h.4l6.8,3.9Z"/><path class="az" d="M131.2,162.1l-6.8-3.9h.3l6.8,4Z"/><path class="ba" d="M131.5,162.2l-6.8-4h.3l6.8,4Z"/><path class="bb" d="M131.8,162.3l-6.8-4,.4.2,6.7,3.9Z"/><path class="u" d="M132.1,162.4l-6.7-3.9h0l6.8,4Z"/></g></g></g><g class="b"><g class="bq"><g class="b"><path class="bd" d="M123.7,177l-6.8-3.9a4.2,4.2,0,0,1-1.8-3.8c0-.4.1-.8.1-1.2L122,172c0,.4-.1.8-.1,1.2,0,1.9.7,3.2,1.8,3.8Z"/><path class="be" d="M122,172l-6.8-3.9c.1-.3.1-.6.2-.8l6.7,3.9c0,.3-.1.6-.1.8Z"/><path class="bf" d="M122.1,171.2l-6.7-3.9c0-.3.1-.5.1-.7l6.8,3.9a1.9,1.9,0,0,1-.2.7Z"/><path class="bg" d="M122.3,170.5l-6.8-3.9c.1-.2.1-.4.2-.6l6.8,3.9c-.1.2-.1.4-.2.6Z"/><path class="bh" d="M122.5,169.9l-6.8-3.9c.1-.2.1-.4.2-.6l6.8,4c-.1.1-.1.3-.2.5Z"/><path class="u" d="M122.7,169.4l-6.8-4,.2-.5,6.8,3.9a1.4,1.4,0,0,1-.2.6Z"/><path class="bb" d="M122.9,168.8l-6.8-3.9.3-.5,6.8,3.9-.3.5Z"/><path class="ba" d="M123.2,168.3l-6.8-3.9c.1-.2.1-.4.2-.6l6.8,4c-.1.2-.2.3-.2.5Z"/><path class="az" d="M123.4,167.8l-6.8-4,.3-.5,6.8,4-.3.5Z"/><path class="ay" d="M123.7,167.3l-6.8-4,.3-.5,6.8,4-.3.5Z"/><path class="ax" d="M124,166.8l-6.8-4,.4-.5,6.8,4a1,1,0,0,0-.4.5Z"/><path class="aw" d="M124.4,166.3l-6.8-4,.4-.5,6.8,3.9-.4.6Z"/><path class="av" d="M124.8,165.7l-6.8-3.9.4-.6,6.8,3.9-.4.6Z"/><path class="au" d="M125.2,165.1l-6.8-3.9.7-.7,6.8,3.9-.7.7Z"/><path class="at" d="M125.9,164.4l-6.8-3.9a10,10,0,0,1,2-1.6l6.8,4a9.5,9.5,0,0,0-2,1.5Z"/></g></g></g><path class="br" d="M361.2,18.4c3.6-2.1,6.5-.4,6.5,3.7V46L109.4,195.2V171.3a14.4,14.4,0,0,1,6.5-11.3Zm-217.3,149a13.2,13.2,0,0,0,6-10.3c0-3.8-2.7-5.4-6-3.4a13.2,13.2,0,0,0-6,10.3c0,3.8,2.7,5.3,6,3.4Zm-16,9.2a12.9,12.9,0,0,0,6-10.3c0-3.8-2.7-5.3-6-3.4a13.2,13.2,0,0,0-6,10.3c0,3.8,2.7,5.3,6,3.4Zm32-18.4a13,13,0,0,0,5.9-10.3c0-3.8-2.7-5.4-6-3.5a13.4,13.4,0,0,0-5.9,10.4c0,3.8,2.7,5.3,6,3.4Z"/><path class="bs" d="M159.8,144.4c3.3-1.9,6-.3,6,3.5a13,13,0,0,1-5.9,10.3c-3.3,1.9-6,.4-6-3.4A13.4,13.4,0,0,1,159.8,144.4Z"/><path class="bs" d="M143.9,153.7c3.3-2,6-.4,6,3.4a13.2,13.2,0,0,1-6,10.3c-3.3,1.9-6,.4-6-3.4A13.2,13.2,0,0,1,143.9,153.7Z"/><path class="bs" d="M127.9,162.9c3.3-1.9,6-.4,6,3.4a12.9,12.9,0,0,1-6,10.3c-3.3,1.9-6,.4-6-3.4A13.2,13.2,0,0,1,127.9,162.9Z"/><polygon class="bs" points="109.4 195.2 102.6 191.3 102.5 167.4 109.3 171.3 109.4 195.2"/><path class="bt" d="M362.6,17.7l1.1-.2h1.2l.9.4h0l-6.8-4h-3.7l-.9.4L109,156l-1.2.9c-.1.1-.3.2-.4.4l-.5.4-.3.3-.2.2-.3.3-.5.7-.2.2h-.1v.2l-.4.6-.3.6h-.1l-.3.5a1.4,1.4,0,0,1-.2.6l-.3.5h0a1.4,1.4,0,0,0-.2.6l-.3.7v.3H103c0,.1,0,.1-.1.2s-.1.5-.1.8a.6.6,0,0,0-.1.4v.5a5.3,5.3,0,0,0-.1,1.3l6.8,3.9c0-.5.1-1,.1-1.5a.3.3,0,0,1,.1-.2l.3-1.5h0l.6-1.5h0l.8-1.5h0l.9-1.4v-.2l1-1.1.2-.2.8-.8.4-.3,1.2-.9L361.2,18.4l1.2-.6Z"/><path class="bu" d="M282.1,193.4s-9.1,4.2-13.6,2.5-10.5-5.9-7.8-7.3,9.5-.2,10-2.4-3.9-2.1-1.7-3,6.1-1,13.3,4.2A5.2,5.2,0,0,1,282.1,193.4Z"/><path class="bv" d="M329.1,146.2s7.1-2.7,7.2,5.6c0,0-1.1,10.8-9.8,26.7,0,0-8.1,15.6-12.3,16.4s-34.4,0-34.4,0a14.9,14.9,0,0,0-.1-9.8s26.6-2.9,28.5-5S323.3,147.8,329.1,146.2Z"/><path class="bw" d="M314.2,194.9c-3.3.6-26.2.2-34.4,0a7.4,7.4,0,0,0,.6-2.5s28.9-3.4,30.9-5.5,15.1-32.3,20.9-33.9a7.6,7.6,0,0,1,3.9-.2c-.5,3.1-2.5,12.7-9.6,25.7C326.5,178.5,318.4,194.1,314.2,194.9Z"/><g class="c"><path class="d" d="M380.2,337.4c17.8,10.3,17.9,27,.2,37.2s-46.5,10.3-64.4,0-17.9-26.9-.2-37.2S362.3,327.1,380.2,337.4Z"/></g><path d="M328.1,332.7a17.7,17.7,0,0,1,0,8.1c-.9,3.3-12.8,10.2-12,13.4s7.2,6.2,12.4,1,6.7-5.9,8.9-6.3,5.4-3.2,3.1-8.1C340.5,340.8,330.9,336.4,328.1,332.7Z"/><path class="bx" d="M327.9,206s-9.5,46.7-4.3,72.6c0,0,2.4,20.4,3.5,26.1s1,36.1,1,36.1,8.6,3.7,12.9-.3c0,0,5.6-31.5-.5-51.5,0,0,7.2-38.3,7.3-50.7a197.3,197.3,0,0,1,1.8-23.2Z"/><path class="by" d="M323.6,278.6s2.4,20.4,3.5,26.1,1,36.1,1,36.1a32.4,32.4,0,0,0,3.4,1.1c.7-9.1,1.8-25,2.3-28.6.7-5.1-5.1-33-5.5-43.4s11-49.3,11-49.3l-3.2-11.1-8.2-3.5S318.4,252.7,323.6,278.6Z"/><path d="M356.8,346.7s1.4-.1-.7,3.3c-5.2,8.5-14.2,9.5-14.1,15,0,3.2,8.7,6.6,13.8,1.3s5.8-5.5,8-6,5.3-3.3,3-8.1C366.8,352.2,359.7,350.3,356.8,346.7Z"/><path class="by" d="M366.7,221.4s9.3,13.2,4.8,40.1l-2,32.1s6.1,10.3,1.8,41.5l-4.2,18.8s-5.3,3.8-11-3.9c0,0,.4-46.2-1.8-53.4-1.5-5.2-8.8-26.9-11.6-47.9-1.1-7.6-12.9-20.3-12.3-26.9Z"/><path class="bx" d="M367.1,353.9l4.2-18.8c4.3-31.2-1.8-41.5-1.8-41.5l2-32.1c4.5-26.9-4.8-40.1-4.8-40.1h-1l-10.1,6.5s10,50.9,9.3,63.8,2.9,28.1,2.4,36.1c-.3,5.2-2.6,18.3-4.2,27A5.9,5.9,0,0,0,367.1,353.9Z"/><path class="bv" d="M372.9,165s-8.2-15.3-41.6-19.2c0,0-5.3-2.2-4.7,15,0,2.5-1,48.1-2,56.8s18.4,16,37,14.2c2.2-.2,8.6-2.4,6.6-10.4s-.4-12.4-.5-28.4S375.4,172.5,372.9,165Z"/><path class="bw" d="M372.9,164.5c2.5,7.5-3.9,5.4-4.5,20.6s-2.2,28.3-.2,36.3-2.9,9.9-5.2,10.1a54.7,54.7,0,0,1-9.9.4c6.5-14.2,2.9-43.7,2.5-58s7.6-18.1,7.6-18.1C370.5,160.4,372.9,164.5,372.9,164.5Z"/><path class="bu" d="M324.4,207.3s-10,1.7-14.1-.8-9-7.6-6.1-8.3,9.5,2,10.5.1-3.4-2.7-1.1-3.1,6.3.5,12.3,6.8A4.4,4.4,0,0,1,324.4,207.3Z"/><path class="bw" d="M371,162.7s-7.1-3-11.2,7.9l-11.3,28.9-1.8,2.5-24.1-3.5s3.2,6.1-2.1,9.4c0,0,29.6,13.4,38.1,4.5C358.6,212.4,383,166.1,371,162.7Z"/><path class="bv" d="M322.6,198.5l24.1,3.5,1.8-2.5,11.3-28.9c3.5-9.2,9.1-8.5,10.7-8-.7,13.9-15.7,42.2-15.7,42.2-5.9,6.2-22,1.6-31.3-1.7A9.4,9.4,0,0,0,322.6,198.5Z"/><path class="bu" d="M333.9,138.7s5.4,7.4,2.1,14.6c-.9,2-3.5,10.3,9.5,7.8,0,0,13.8-5.6,10.1-9.9s-4.7-6.9.3-20.3Z"/><g class="bz"><path d="M355.6,151.2a1.9,1.9,0,0,1,.6,1.3c-12.4,1.5-20.1-7.7-20.1-7.7L353,132.1h0l1.9,1.6C351.3,144.8,353.4,148.5,355.6,151.2Z"/></g><path class="bu" d="M337.9,114.6s-3.5,1-4.4,11.1a61.5,61.5,0,0,1-1.4,6.4c-.7,2.8-1.9,11.2,4.2,14.1,4.5,2.2,15.4-.4,20.2-11.5S352.7,108.2,337.9,114.6Z"/><path class="bu" d="M353,133.3s2.2-5.5,5.3-3.5c1,.6,2,1.8.2,4.6s-5.2,5.2-7.7,4.6Z"/><path class="bu" d="M354.6,129.2c-1.8,1.7-2.4,3.9-1.5,5s3.3.6,5.1-1,2.5-3.9,1.5-5S356.5,127.6,354.6,129.2Z"/><path class="w" d="M354.1,138.6s9.9-5.5,9.8-16.8a12.9,12.9,0,0,0-8.6-12.5c-4.4-1.7-13.3-3.6-19,4.8-1.8,2.6-2.6,9,9.3,8.9,1.8,0,6.2.5,7.3,2.2s.7,4.4-.5,6.4.5,2.3.8,2,3.9-5.3,5.4-2.6S354.4,138.2,354.1,138.6Z"/><path class="w" d="M354.1,138.6c.3-.4,5.8-5.2,4.5-7.6s-5.1,2.3-5.4,2.6-2-.3-.8-2,1.7-4.6.5-6.4-4.9-1.9-7.3-2.2c2.2-.7,6-.2,8.1-3s5.8-5,8.4-5.2a14,14,0,0,1,1.8,7C364,133.1,354.1,138.6,354.1,138.6Z"/><path class="w" d="M335,113.1s-2.9,10.8,11.1,10.3c0,0,6.9-.1,11.1-5.5.8-1.1,2.9-2.9,5.1-2.6,0,0-2.2-5.8-11.4-7.4-4.3-.7-9.7,2.3-10.9,2.7S338.1,114.8,335,113.1Z"/><path class="ca" d="M256.1,252.9l-2.9-2.1-18.4,1-3,3.1a66.4,66.4,0,0,0-8,1.4,24.1,24.1,0,0,1-2.3,1.3,49.5,49.5,0,0,0,7.4,1.7c1.5,0,2.9-.9,3.1-1.6l1.8,1v5a3.9,3.9,0,0,0,1.9,3.3h0a3.8,3.8,0,0,0,3.6.1l8.9-4.2a14.6,14.6,0,0,0,7.9-10Z"/><path class="cb" d="M248.6,226.2a12.9,12.9,0,0,1-4-11.6,5.9,5.9,0,0,0,.1-1.9,9.2,9.2,0,0,0-8.9-8.8,9.4,9.4,0,0,0-9.6,9.3,9.1,9.1,0,0,0,.3,2.3,12.5,12.5,0,0,1-3,11.8,17.3,17.3,0,0,0-4.8,12.1c0,10.8,4.2,16,10.2,17.6a14.8,14.8,0,0,1,5.6-1,14.1,14.1,0,0,1,5.4,1c7.4-1.5,11-5.1,13.4-13.5C255.3,236.8,252.2,229.5,248.6,226.2Z"/><path d="M248.6,226.2a12.9,12.9,0,0,1-4-11.6,5.9,5.9,0,0,0,.1-1.9,9.2,9.2,0,0,0-8.9-8.8h-1.3v52a12.1,12.1,0,0,1,6,1.3c7.1-1.1,10.4-5.7,12.8-13.8S252.2,229.5,248.6,226.2Z"/><path class="cc" d="M222.6,241.6c0-7.1,5.6-23.4,12.6-23.4s12.6,16.4,12.6,23.4a12.6,12.6,0,0,1-25.2,0Z"/><path class="cd" d="M235.2,218.2h-.7v35.9h.7a12.6,12.6,0,0,0,12.6-12.6C247.8,234.6,242.2,218.2,235.2,218.2Z"/><ellipse class="ce" cx="230.5" cy="214.7" rx="2.1" ry="2.8"/><ellipse class="cf" cx="230.5" cy="215.3" rx="1" ry="1.8"/><ellipse class="ce" cx="237.9" cy="214.7" rx="2.1" ry="2.8"/><ellipse class="cf" cx="237.9" cy="215.3" rx="1" ry="1.8"/><path class="cg" d="M240.7,219.5c.7,1.4-4.5,4.2-6.3,4.2s-6.9-3.3-6.3-4.2,3.9-4.3,6-4.3S240.3,218.5,240.7,219.5Z"/><path class="ch" d="M240.7,219.5c-.4-.9-4.4-3.8-6.2-4.2v8.4C236.4,223.6,241.4,220.9,240.7,219.5Z"/><path class="ci" d="M248.6,242.1c.9,1.7,2.3,3.4,4,3.8a3.1,3.1,0,0,1,2.4,2.7,4.3,4.3,0,0,0,.1.5,7.1,7.1,0,0,0,1.4,3.2,2.2,2.2,0,0,1-1.3,3.6L242,258.4a3.4,3.4,0,0,1-3.6-5.1l7.3-11.4A1.7,1.7,0,0,1,248.6,242.1Z"/><path class="cj" d="M234.4,222.9c-1.9,0-3.8-1-5.7-2.8l.6-.7c2,1.9,3.8,2.7,5.6,2.5a6.7,6.7,0,0,0,4-2.4l.7.6a6.7,6.7,0,0,1-4.6,2.7Z"/><path class="ck" d="M234.9,221.9h-.4v1h.5a6.7,6.7,0,0,0,4.6-2.7l-.7-.6A6.7,6.7,0,0,1,234.9,221.9Z"/><circle cx="250.4" cy="244.1" r="4.2"/><path class="cb" d="M221.8,239.4s4.5,5.6,7.7,6.8-1.5,4.9-5.9,2.1S221.8,239.4,221.8,239.4Z"/><path class="cl" d="M219.3,242.1c-.9,1.7-2.2,3.4-4,3.8a3.1,3.1,0,0,0-2.4,2.7,4.3,4.3,0,0,1-.1.5,7.1,7.1,0,0,1-1.4,3.2,2.2,2.2,0,0,0,1.3,3.6l13.2,2.5a3.4,3.4,0,0,0,3.6-5.1l-7.3-11.4A1.7,1.7,0,0,0,219.3,242.1Z"/></g></svg>