<svg xmlns="http://www.w3.org/2000/svg" xmlns:xlink="http://www.w3.org/1999/xlink" viewBox="0 0 400 400"><defs><style>.a{opacity:0.1;}.b{fill:url(#a);}.c{fill:#21e2e2;}.d{fill:#0e71bb;}.e{fill:url(#b);}.f{fill:url(#c);}.g{fill:url(#d);}.h{fill:#f59b6b;}.i{fill:url(#e);}.j{fill:url(#f);}.k{fill:url(#g);}.l{opacity:0.2;}.m{fill:#37b5e8;}.n{fill:#95c4de;}.o{fill:#def6ff;}.p{fill:url(#h);}.q{fill:#a9d6ea;}.r{fill:#72b5d3;}.s{fill:url(#i);}.t{fill:#fffffe;}.u{fill:url(#j);}.v{fill:#ffe7cb;}.w{fill:url(#k);}.x{fill:#feffff;}</style><linearGradient id="a" x1="44.25" y1="82.76" x2="44.25" y2="121.73" gradientUnits="userSpaceOnUse"><stop offset="0" stop-color="#44989f"/><stop offset="0.21" stop-color="#39b0b4"/><stop offset="0.52" stop-color="#2ccbcd"/><stop offset="0.8" stop-color="#24dcdd"/><stop offset="1" stop-color="#21e2e2"/></linearGradient><linearGradient id="b" x1="63.81" y1="53.06" x2="71.09" y2="53.06" gradientUnits="userSpaceOnUse"><stop offset="0" stop-color="#419ee3"/><stop offset="1" stop-color="#0d79c9"/></linearGradient><linearGradient id="c" x1="42.72" y1="48.49" x2="50" y2="48.49" xlink:href="#b"/><linearGradient id="d" x1="7.54" y1="57.31" x2="14.64" y2="57.31" xlink:href="#b"/><linearGradient id="e" x1="39.9" y1="58.24" x2="47.17" y2="58.24" gradientUnits="userSpaceOnUse"><stop offset="0" stop-color="#ffbc98"/><stop offset="1" stop-color="#ff9f6c"/></linearGradient><linearGradient id="f" x1="29.66" y1="48.91" x2="36.98" y2="48.91" xlink:href="#e"/><linearGradient id="g" x1="1505.72" y1="155.2" x2="1584.43" y2="109.76" gradientTransform="matrix(-1, 0, 0, 1, 1577.64, 0)" xlink:href="#a"/><linearGradient id="h" x1="1405.26" y1="50.41" x2="1260.82" y2="273.82" gradientTransform="matrix(-1, 0, 0, 1, 1577.64, 0)" gradientUnits="userSpaceOnUse"><stop offset="0" stop-color="#1a6bb2"/><stop offset="1" stop-color="#1b4b92"/></linearGradient><linearGradient id="i" x1="332.49" y1="296.4" x2="332.49" y2="397.17" xlink:href="#e"/><linearGradient id="j" x1="296.62" y1="283.37" x2="368.38" y2="283.37" xlink:href="#e"/><linearGradient id="k" x1="351.3" y1="334.53" x2="369.46" y2="334.53" xlink:href="#e"/></defs><title>advantage-advantage-linux-dedicated-servers</title><g class="a"><path d="M24.3,153.6c-17.1,9.9-17.2,25.9-.2,35.7s44.5,9.9,61.6,0,17.1-25.8.2-35.7S41.4,143.8,24.3,153.6Z"/></g><path class="b" d="M20.5,88.5C7.4,96.1,7.3,108.4,20.4,116s34.4,7.6,47.6,0,13.2-19.9.1-27.5S33.7,80.9,20.5,88.5Z"/><path class="c" d="M20.4,116c13.1,7.6,34.4,7.6,47.6,0s13.2-19.9.1-27.5-34.4-7.6-47.6,0S7.3,108.4,20.4,116Zm4.4-25.1c10.8-6.2,28.3-6.2,39.1,0s10.6,16.4-.2,22.6-28.3,6.3-39,0S14,97.2,24.8,90.9Z"/><path class="d" d="M63.8,53h0c.1.1.1.2.2.4h0c.1.1.1.3.2.4l.3.2c0,.1.1.1.2.2l1,.6h.2l1.2.4h1.5a5.3,5.3,0,0,0,1.2-.3,1.8,1.8,0,0,0,1.3-1.4L58.2,151.7a1.8,1.8,0,0,1-1.3,1.4l-.6.2H52.8l-.3-.2-.8-.4h0c-.1,0-.1,0-.1-.1l-.3-.2h0l-.2-.3H51a.3.3,0,0,1-.1-.2h0v-.2h0L63.8,52.6Z"/><path class="e" d="M65.1,51.2c-1.5.7-1.7,2-.4,3a5.8,5.8,0,0,0,5.1.7,1.6,1.6,0,0,0,.4-3A5.8,5.8,0,0,0,65.1,51.2Z"/><path class="d" d="M42.7,48.4h0c.1.2.1.3.2.4h0c.1.1.2.2.2.3l.3.2a.2.2,0,0,0,.2.2,2.1,2.1,0,0,0,1,.6h.2l1.2.3h.1a2.9,2.9,0,0,0,1.3,0h.1a2.7,2.7,0,0,0,1.2-.3A1.9,1.9,0,0,0,50,49L37.1,147.2a1.9,1.9,0,0,1-1.3,1.3l-.6.2H32.5l-.4-.2h-.7l-.7-.5h-.1c0-.1-.1-.1-.1-.2l-.3-.2h0l-.2-.3h-.1v-.2h0v-.4h0L42.7,48Z"/><path class="f" d="M44,46.7c-1.5.6-1.7,1.9-.4,2.9a5.5,5.5,0,0,0,5.1.7c1.5-.6,1.7-1.9.4-3A5.5,5.5,0,0,0,44,46.7Z"/><path class="d" d="M7.8,58.8h0l.3.3h0l.4.2h2a5.3,5.3,0,0,0,1.2-.3h.1l1.2-.5h0l1-.8q.9-1.1.6-1.8l30.2,94.3q.3.8-.6,1.8l-.4.4a.5.5,0,0,1-.4.2v.2h-.2l-.3.2h0l-.4.2H38.2v-.2h-.2v-.2a.1.1,0,0,1-.1-.1L7.6,58.4A.5.5,0,0,0,7.8,58.8Z"/><path class="g" d="M8.2,56.7c-1.1,1.2-.7,2.5.9,2.8A5.5,5.5,0,0,0,14,58c1.1-1.3.7-2.5-.9-2.9A5.3,5.3,0,0,0,8.2,56.7Z"/><path class="h" d="M40,59.2h0l.3.3h0c.1.2.2.2.3.3l.3.2h.3a3.5,3.5,0,0,0,1.2.3h1.5a2.7,2.7,0,0,0,1.2-.3h.1l1.1-.6a2.2,2.2,0,0,0,.9-1.7l14.7,97.9a2,2,0,0,1-.9,1.7l-.5.3-.4.2H56.7l-.8-.3h-.6l-.2-.2h-.2a.1.1,0,0,1-.1-.1h-.1a.4.4,0,0,1-.1-.3h0L39.9,58.8C39.9,58.9,40,59,40,59.2Z"/><path class="i" d="M40.8,57.1c-1.3,1.1-1.1,2.4.4,3a5.8,5.8,0,0,0,5.1-.7c1.3-1.1,1.1-2.4-.4-3A5.8,5.8,0,0,0,40.8,57.1Z"/><path class="h" d="M29.7,49.3h0l.2.3H30c0,.1.1.2.2.3l.3.2h.2a4.3,4.3,0,0,0,1.2.5h2.8a3.3,3.3,0,0,0,1.2-.5A1.9,1.9,0,0,0,37,48.9l1.1,99a1.8,1.8,0,0,1-1,1.5l-.6.3H32.7l-.8-.3h-.3c0-.1-.1-.1-.2-.2h0l-.3-.3H31c-.1,0-.1-.1-.1-.2h0c-.1,0-.1,0-.1-.1V148h0L29.7,48.9Z"/><path class="j" d="M30.7,47.4c-1.4.9-1.4,2.2,0,3a5.9,5.9,0,0,0,5.2,0c1.4-.9,1.4-2.2,0-3A5.9,5.9,0,0,0,30.7,47.4Z"/><path class="c" d="M68,116c-13.2,7.6-34.5,7.6-47.6,0-9.1-5.2-11.8-12.8-8.3-19.4h6.4c-3.7,5.7-1.7,12.4,6.2,16.9,10.7,6.3,28.2,6.3,39,0,8-4.5,10.1-11.2,6.4-16.9h6.4C79.9,103.2,77.1,110.8,68,116Z"/><path class="k" d="M10.7,103.3c0,.4.1.7.1,1.1a3.1,3.1,0,0,1,.2.8l.3,1.1a5.9,5.9,0,0,0,.4.8,4.7,4.7,0,0,0,.5,1,3,3,0,0,0,.4.8,4.4,4.4,0,0,0,.8,1.1l.9,1.1.2.3a18.5,18.5,0,0,0,1.4,1.4l1.1.9.9.7,1.2.8a5.7,5.7,0,0,0,1.3.8l3.2,1.6.9.4,2.7,1,.9.4,1.8.5,1.3.3,1.8.4,1.3.3,3.8.5h1.2l2.3.2h6.6l1.5-.2h1.7l1.5-.3a5.7,5.7,0,0,0,1.8-.3l1.4-.2,2.1-.6,1.1-.3a25.3,25.3,0,0,0,3.6-1.2l1.8-.7.8-.4L68,116c6.6-3.8,9.9-8.8,9.9-13.8l.2,66c0,5-3.3,10-10,13.8l-2.4,1.3-.9.4-1.5.7h-.2l-3.6,1.3h-.3l-.8.2-2.2.5h-.5l-.8.2-1.8.3H51.6l-1.7.2H41.8l-2.3-.2H38.3l-3.8-.5h-.2l-1-.3-1.9-.4-1.3-.3-1.8-.5H28l-.6-.2-2.7-1-1-.5a18.2,18.2,0,0,1-3.1-1.6l-.4-.2-.9-.6-1.2-.8-1-.7-1-.9c-.1,0-.1-.1-.2-.2a13.6,13.6,0,0,1-1.2-1.2c-.1-.1-.2-.1-.2-.2l-.7-.8-.2-.3a8.3,8.3,0,0,1-.8-1.2l-.3-.5-.2-.3a10.4,10.4,0,0,1-.4-1c-.1-.2-.3-.4-.3-.6v-.2l-.3-1a1.9,1.9,0,0,0-.2-.7v-.2a3.4,3.4,0,0,1-.1-1c0-.3-.1-.5-.1-.7v-.3l-.2-66.1C10.6,102.7,10.7,103,10.7,103.3Z"/><g class="l"><path class="m" d="M348.1,286.7,229.8,355.5a22.3,22.3,0,0,1-22.1,0L11.5,242.1a5.8,5.8,0,0,1-.1-10L132.1,162Z"/></g><path class="n" d="M321.7,280.3c-1.6,5.7-99.3,57.8-99.3,57.8-6.4,3.7-19,3.1-25.4-.6C152.8,312,23.6,236.6,23.6,236.6c-6.3-3.7-8.8-12.2-2.9-16.9l102.8-55.8S336.1,227.1,321.7,280.3Z"/><path class="o" d="M322.4,275.9,222.4,334c-6.4,3.6-19,3.1-25.4-.6C152.8,307.9,22.5,231.9,22.5,231.9c-6.4-3.7-6.4-9.7-.1-13.3l101.1-58.8Z"/><path class="n" d="M348.8,136.6c-.1-.7-.3-1.5-.4-2.2a6.4,6.4,0,0,0-.2-.7,15.5,15.5,0,0,0-.7-2.3V131l-.9-1.8a4.7,4.7,0,0,0-.6-.9l-.9-1.4-.3-.4a12.9,12.9,0,0,0-1.5-1.7l-.4-.3-1.9-1.3L165.3,21.8l-2-.9-.7-.2h-2.4l-1.3.2,5-1.2.9-.2h1.8l.9.2h.7a9.5,9.5,0,0,1,2.1.9L345.9,122a8,8,0,0,1,1.9,1.3l.3.3,1.6,1.6.2.4.6.7.4.8.5.8.3.4a11.5,11.5,0,0,1,.6,1.7h.2l.6,1.7c0,.2,0,.5.1.6a1.3,1.3,0,0,1,.1.6,1.4,1.4,0,0,1,.2.7,7.8,7.8,0,0,1,.2,1.6v.2h0a19.3,19.3,0,0,1,.1,2.4c0,.1-.1.1-.1.2a14.5,14.5,0,0,1-.4,2.9L321.7,280.3l-4.2,2.5,31-140.4a13.9,13.9,0,0,0,.3-3v-2.8Z"/><path class="o" d="M165.3,21.8c-5.7-3.3-11.7-.1-13.4,7.2L123.5,159.8l195,118.4,30-135.8c1.6-7.3-1.8-15.9-7.6-19.2Z"/><polygon class="p" points="341.6 146.3 155.9 40.3 131.2 152.6 314.5 265 341.6 146.3"/><path class="q" d="M116.5,178.1,293.6,280.4l-59.1,34.4L57.4,212.5Zm75.9,107.1,8-4.7-82.5-47.6-8,4.7,82.5,47.6ZM140,220.1l-8,4.6,7.4,4.2,7.9-4.6-7.3-4.2Zm-25.7-5.6,8-4.7-7.3-4.2-8,4.7,7.3,4.2Zm100.2,57.8,8-4.6-7.3-4.2-8,4.6,7.3,4.2ZM190.1,249l-7.9,4.6,7.3,4.3,7.9-4.7-7.3-4.2Zm49.4,37.8,8-4.6-7.3-4.3-7.9,4.7,7.2,4.2Zm-82.4-47.6,7.3,4.2,8-4.6-7.3-4.3-8,4.7Zm-.4-9.5-7.9,4.6,7.3,4.3L164,234l-7.3-4.3Zm99.6,66.7,7.9-4.6-7.2-4.2-8.1,4.6,7.4,4.2ZM105.9,209.7l8-4.7-7.3-4.2-7.9,4.6,7.2,4.3Zm75.9,34.5-8,4.6,7.3,4.2,8-4.6-7.3-4.2ZM131,224.1l8-4.6-7.3-4.2-8,4.6,7.3,4.2Zm75.8,34.6-7.9,4.6,7.3,4.2,7.9-4.6-7.3-4.2Zm24.4,23.2,8-4.6-7.3-4.2-8,4.6,7.3,4.2Zm-13.7,17.7,7.9-4.6-7.3-4.2-7.9,4.6,7.3,4.2ZM103.3,220.9l7.9-4.6-7.3-4.3-8,4.7,7.4,4.2ZM179,255.5l-7.9,4.6,7.3,4.2,8-4.6-7.4-4.2Zm-28-41.8-7.9,4.6,7.3,4.2,8-4.6-7.4-4.2ZM125.4,208l7.9-4.6-7.3-4.2-7.9,4.6,7.3,4.2Zm35.9,37.2L154,241l-8,4.6,7.4,4.2,7.9-4.6Zm6.9-12.5,7.3,4.3,7.9-4.6-7.3-4.3-7.9,4.6Zm-39.3-6.2-7.9,4.6,7.3,4.2,7.9-4.6-7.3-4.2Zm-36.7.8,8-4.6-7.3-4.2-8,4.6,7.3,4.2Zm109,15.3-8,4.6,7.3,4.2,8-4.6-7.3-4.2Zm27.3,50.6,8-4.6-7.3-4.2-8,4.6,7.3,4.2Zm-25-14.5,7.9-4.6-7.3-4.2-8,4.6,7.4,4.2Zm22.1-12.8,7.9-4.6-7.3-4.2-7.9,4.6,7.3,4.2Zm25,14.4,8-4.6-7.3-4.2-7.9,4.6,7.2,4.2Zm-82.8-57-8,4.6,7.3,4.2,8-4.6-7.3-4.2Zm52.4,65.1,7.9-4.6-7.3-4.2-7.9,4.5,7.3,4.3Zm22.1-12.8,7.9-4.7-7.3-4.2-7.9,4.6,7.3,4.3Zm-71.6-25-7.9,4.6,7.3,4.3,8-4.7-7.4-4.2Zm-28.6-32.9,7.9-4.6-7.3-4.2-7.9,4.6,7.3,4.2Zm50.7,20.1-7.9,4.6,7.3,4.2,7.9-4.6-7.3-4.2ZM120,230.5l7.9-4.6-7.3-4.2-7.9,4.6,7.3,4.2Zm25.6,5.7-7.9,4.6L145,245l8-4.6-7.4-4.2Zm-36.7.8,8-4.6-7.4-4.3-7.9,4.6,7.3,4.3Zm86.9,28.1-8,4.6,7.3,4.2,8-4.6-7.3-4.2Zm22.1-12.9-8,4.7,7.3,4.2,8-4.7-7.3-4.2Zm16.3,57.1,7.9-4.7-7.3-4.2-7.9,4.6,7.3,4.3ZM83.9,222.5l7.9-4.6-7.3-4.2-7.9,4.6,7.3,4.2Zm11-6.4,8-4.6-7.3-4.3-8,4.7,7.3,4.2Zm150.3,86.8,8-4.7-7.3-4.2-8,4.6,7.3,4.3ZM117,203.2l8-4.6-7.3-4.2-8,4.6,7.3,4.2Zm92.1,91.6,8-4.6-7.3-4.2-8,4.6,7.3,4.2Zm58.3-4.8,7.9-4.6-7.4-4.2-7.9,4.6,7.4,4.2ZM97.6,204.8l8-4.6L98.3,196l-8,4.6,7.3,4.2Zm100.9,49-8,4.7,7.3,4.1,8-4.5-7.3-4.3Zm24.4,23.3,7.9-4.6-7.2-4.2-8,4.6,7.3,4.2ZM122.6,219.3l8-4.6-7.3-4.3-7.9,4.7,7.2,4.2Zm25.8,5.6-8,4.6,7.3,4.3,8-4.7-7.3-4.2Zm99.5,66.7,7.9-4.6-7.2-4.2-8,4.6,7.3,4.2ZM165.5,244l7.2,4.2,8-4.6-7.2-4.2-8,4.6ZM259,285.2l7.9-4.7-7.3-4.1-7.9,4.6,7.3,4.2Zm-172.4-74,7.9-4.6-7.3-4.2L79.3,207l7.3,4.2ZM236.9,298l7.9-4.6-7.3-4.2-7.9,4.6,7.3,4.2Zm-99.6-66.7-7.9,4.7,7.3,4.2,7.9-4.6-7.3-4.3Zm-3.6-18.5,7.9-4.6-7.2-4.2-8,4.6,7.3,4.2Zm25.7,5.7-7.9,4.6,7.3,4.2,7.9-4.6-7.3-4.2ZM200.8,290l7.9-4.6-7.3-4.2-7.9,4.6,7.3,4.2ZM75.5,217.7l7.9-4.6-7.2-4.2-8,4.6,7.3,4.2Zm136.3,65.9,8-4.7-7.3-4.2-8,4.7,7.3,4.2ZM111.6,225.7l8-4.6-7.3-4.2-8,4.6,7.3,4.2Zm122.3,45,8-4.6-7.3-4.2-8,4.6,7.3,4.2Zm-8.1,33.8,7.9-4.7-7.3-4.2-7.9,4.6,7.3,4.3Zm-16.2-57.1-8,4.6,7.3,4.2,7.9-4.6-7.2-4.2ZM100.5,232.1l8-4.6-7.3-4.2-7.9,4.6,7.2,4.2Zm76,5.5,7.3,4.2,8-4.6-7.3-4.3-8,4.7ZM169.6,250l-7.3-4.2-7.9,4.6,7.3,4.3,7.9-4.7Zm-60.9-51.6,7.9-4.6-7.3-4.2-8,4.6,7.4,4.2Zm78.7,61.9-7.9,4.6,7.3,4.2,7.9-4.6-7.3-4.2Zm-7.5-40.8-5.5,3.2,7.3,4.2,5.5-3.2-7.3-4.2ZM232.8,250l-5.5,3.2,7.3,4.2,5.5-3.2-7.3-4.2Zm-103-59.4-5.6,3.2,7.4,4.2,5.5-3.2-7.3-4.2Zm30.6,17.6-5.5,3.3,7.2,4.2,5.6-3.2-7.3-4.3Zm-11.1-6.4-5.6,3.2,7.3,4.3,5.6-3.2-7.3-4.3Zm114.1,65.9-5.6,3.2,7.4,4.2,5.5-3.2-7.3-4.2Zm11.1,6.4-5.5,3.2,7.3,4.3,5.5-3.3-7.3-4.2Zm-28.8-10.2,5.5-3.3-7.3-4.2-5.5,3.3,7.3,4.2ZM120.4,191.6l5.5-3.2-7.2-4.3-5.6,3.2,7.3,4.3ZM191,225.9l-5.5,3.2,7.3,4.3,5.5-3.3-7.3-4.2Z"/><polygon class="r" points="175.1 227.5 167.1 232.1 159.8 227.9 167.8 223.3 175.1 227.5"/><polygon class="r" points="116.6 193.8 108.7 198.4 101.3 194.2 109.3 189.6 116.6 193.8"/><polygon class="r" points="150 213.1 142.1 217.7 134.8 213.5 142.7 208.9 150 213.1"/><polygon class="r" points="127.9 225.9 120 230.5 112.7 226.3 120.6 221.7 127.9 225.9"/><polygon class="r" points="126 188.4 120.4 191.6 113.1 187.3 118.7 184.2 126 188.4"/><polygon class="r" points="137.1 194.8 131.6 198 124.2 193.8 129.8 190.6 137.1 194.8"/><polygon class="r" points="125 198.6 117 203.2 109.7 199 117.7 194.4 125 198.6"/><polygon class="r" points="105.6 200.2 97.6 204.8 90.3 200.6 98.3 196 105.6 200.2"/><polygon class="r" points="133.3 203.4 125.4 208 118.1 203.8 126 199.2 133.3 203.4"/><polygon class="r" points="156.6 206.1 151 209.3 143.7 205 149.3 201.8 156.6 206.1"/><polygon class="r" points="113.9 205 105.9 209.7 98.7 205.4 106.6 200.8 113.9 205"/><polygon class="r" points="94.5 206.6 86.6 211.2 79.3 207 87.2 202.4 94.5 206.6"/><polygon class="r" points="141.6 208.2 133.7 212.8 126.4 208.6 134.4 204 141.6 208.2"/><polygon class="r" points="122.3 209.8 114.3 214.5 107 210.3 115 205.6 122.3 209.8"/><polygon class="r" points="167.7 212.5 162.1 215.7 154.9 211.5 160.4 208.2 167.7 212.5"/><polygon class="r" points="102.9 211.5 94.9 216.1 87.6 211.9 95.6 207.2 102.9 211.5"/><polygon class="r" points="83.4 213.1 75.5 217.7 68.2 213.5 76.2 208.9 83.4 213.1"/><polygon class="r" points="130.6 214.7 122.6 219.3 115.4 215.1 123.3 210.4 130.6 214.7"/><polygon class="r" points="111.2 216.3 103.3 220.9 95.9 216.7 103.9 212 111.2 216.3"/><polygon class="r" points="158.4 217.9 150.4 222.5 143.1 218.3 151 213.7 158.4 217.9"/><polygon class="r" points="139 219.5 131 224.1 123.7 219.9 131.7 215.3 139 219.5"/><polygon class="r" points="119.6 221.1 111.6 225.7 104.3 221.5 112.3 216.9 119.6 221.1"/><polygon class="r" points="187.2 223.7 181.7 226.9 174.4 222.7 179.9 219.5 187.2 223.7"/><polygon class="r" points="166.7 222.7 158.8 227.3 151.5 223.1 159.4 218.5 166.7 222.7"/><polygon class="r" points="147.3 224.3 139.4 228.9 132 224.7 140 220.1 147.3 224.3"/><polygon class="r" points="108.5 227.5 100.5 232.1 93.3 227.9 101.2 223.3 108.5 227.5"/><polygon class="r" points="198.3 230.1 192.8 233.4 185.5 229.1 191 225.9 198.3 230.1"/><polygon class="r" points="155.7 229.1 147.7 233.8 140.4 229.5 148.4 224.9 155.7 229.1"/><polygon class="r" points="136.2 230.7 128.3 235.3 121 231.1 128.9 226.5 136.2 230.7"/><polygon class="r" points="183.4 232.4 175.5 237 168.2 232.7 176.1 228.1 183.4 232.4"/><polygon class="r" points="116.9 232.4 108.9 237 101.6 232.7 109.5 228.1 116.9 232.4"/><polygon class="r" points="144.6 235.6 136.7 240.2 129.4 236 137.3 231.3 144.6 235.6"/><polygon class="r" points="191.8 237.2 183.8 241.8 176.5 237.6 184.5 232.9 191.8 237.2"/><polygon class="r" points="172.4 238.8 164.4 243.4 157.1 239.2 165.1 234.5 172.4 238.8"/><polygon class="r" points="153 240.4 145 245 137.7 240.8 145.6 236.2 153 240.4"/><polygon class="r" points="200.1 242 192.2 246.6 184.9 242.4 192.8 237.8 200.1 242"/><polygon class="r" points="180.7 243.6 172.7 248.2 165.5 244 173.5 239.4 180.7 243.6"/><polygon class="r" points="161.3 245.2 153.4 249.8 146 245.6 154 241 161.3 245.2"/><polygon class="r" points="208.5 246.8 200.5 251.4 193.2 247.2 201.2 242.6 208.5 246.8"/><polygon class="r" points="189.1 248.4 181.1 253 173.8 248.8 181.8 244.2 189.1 248.4"/><polygon class="r" points="169.6 250 161.7 254.7 154.4 250.4 162.3 245.8 169.6 250"/><polygon class="r" points="216.8 251.6 208.9 256.2 201.6 252 209.6 247.4 216.8 251.6"/><polygon class="r" points="240.1 254.2 234.6 257.4 227.3 253.2 232.8 250 240.1 254.2"/><polygon class="r" points="197.4 253.2 189.5 257.9 182.2 253.6 190.1 249 197.4 253.2"/><polygon class="r" points="178.1 254.8 170.1 259.5 162.8 255.2 170.7 250.6 178.1 254.8"/><polygon class="r" points="225.2 256.4 217.2 261.1 209.9 256.9 217.9 252.2 225.2 256.4"/><polygon class="r" points="205.8 258.1 197.8 262.6 190.5 258.5 198.5 253.8 205.8 258.1"/><polygon class="r" points="251.2 260.6 245.7 263.9 238.4 259.7 243.9 256.4 251.2 260.6"/><polygon class="r" points="186.4 259.7 178.4 264.3 171.1 260.1 179 255.5 186.4 259.7"/><polygon class="r" points="233.5 261.3 225.6 265.9 218.3 261.7 226.2 257.1 233.5 261.3"/><polygon class="r" points="214.1 262.9 206.2 267.5 198.9 263.3 206.8 258.7 214.1 262.9"/><polygon class="r" points="194.7 264.5 186.8 269.1 179.5 264.9 187.4 260.3 194.7 264.5"/><polygon class="r" points="241.9 266.1 233.9 270.7 226.6 266.5 234.6 261.9 241.9 266.1"/><polygon class="r" points="222.5 267.7 214.5 272.3 207.2 268.1 215.2 263.5 222.5 267.7"/><polygon class="r" points="203.1 269.3 195.1 273.9 187.8 269.7 195.8 265.1 203.1 269.3"/><polygon class="r" points="270.7 271.9 265.2 275.1 257.9 270.9 263.4 267.7 270.7 271.9"/><polygon class="r" points="250.2 270.9 242.3 275.6 235 271.3 242.9 266.7 250.2 270.9"/><polygon class="r" points="230.8 272.5 222.9 277.1 215.6 272.9 223.6 268.3 230.8 272.5"/><polygon class="r" points="258.6 275.7 250.6 280.3 243.4 276.1 251.3 271.5 258.6 275.7"/><polygon class="r" points="281.8 278.3 276.3 281.6 269 277.3 274.5 274.1 281.8 278.3"/><polygon class="r" points="239.2 277.3 231.2 281.9 223.9 277.7 231.9 273.1 239.2 277.3"/><polygon class="r" points="219.8 278.9 211.8 283.6 204.5 279.4 212.5 274.7 219.8 278.9"/><polygon class="r" points="266.9 280.5 259 285.2 251.7 281 259.6 276.4 266.9 280.5"/><polygon class="r" points="200.4 280.5 192.4 285.2 109.9 237.6 117.9 232.9 200.4 280.5"/><polygon class="r" points="247.5 282.2 239.5 286.8 232.3 282.6 240.2 277.9 247.5 282.2"/><polygon class="r" points="228.1 283.8 220.2 288.4 212.9 284.1 220.8 279.6 228.1 283.8"/><polygon class="r" points="275.3 285.4 267.4 290 260 285.8 267.9 281.2 275.3 285.4"/><polygon class="r" points="208.7 285.4 200.8 290 193.5 285.8 201.4 281.2 208.7 285.4"/><polygon class="r" points="255.8 287 247.9 291.6 240.6 287.4 248.6 282.8 255.8 287"/><polygon class="r" points="236.5 288.6 228.5 293.2 221.2 289 229.2 284.4 236.5 288.6"/><polygon class="r" points="217.1 290.2 209.1 294.8 201.8 290.6 209.8 286 217.1 290.2"/><polygon class="r" points="264.2 291.8 256.3 296.4 248.9 292.2 257 287.6 264.2 291.8"/><polygon class="r" points="244.8 293.4 236.9 298 229.6 293.8 237.5 289.2 244.8 293.4"/><polygon class="r" points="225.4 295 217.5 299.6 210.2 295.4 218.1 290.8 225.4 295"/><polygon class="r" points="253.2 298.2 245.2 302.9 237.9 298.6 245.9 294 253.2 298.2"/><polygon class="r" points="233.7 299.8 225.8 304.5 218.5 300.2 226.4 295.6 233.7 299.8"/><polygon class="r" points="242.1 304.6 234.2 309.3 226.9 305 234.8 300.4 242.1 304.6"/><polygon class="r" points="164 234 156.1 238.6 148.8 234.3 156.7 229.7 164 234"/><polygon class="r" points="211.4 274.1 203.5 278.7 196.1 274.5 204.1 269.9 211.4 274.1"/><polygon class="r" points="100.2 222.7 92.2 227.3 84.9 223.1 92.9 218.5 100.2 222.7"/><polygon class="r" points="91.8 217.9 83.9 222.5 76.6 218.3 84.5 213.7 91.8 217.9"/><path class="r" d="M152.1,271.3c2.6,1.5,2.6,3.9,0,5.4l-16.6,9.6a10.3,10.3,0,0,1-9.2.1l-22.6-13.1c-2.5-1.5-2.5-3.9,0-5.4l16.6-9.6a10.6,10.6,0,0,1,9.2,0Z"/><path class="q" d="M152.1,272.1c2.6,1.5,2.6,3.9,0,5.4l-16.6,9.6a10.3,10.3,0,0,1-9.2.1l-22.6-13.1c-2.5-1.5-2.5-3.9,0-5.4l16.6-9.6a10,10,0,0,1,9.2,0Z"/><g class="l"><path class="m" d="M375.6,338.1c17.8,10.3,17.9,27,.2,37.2s-46.3,10.3-64.1,0-17.9-26.9-.3-37.1S357.8,327.9,375.6,338.1Z"/></g><path class="s" d="M361.9,359.3a15.7,15.7,0,0,0,.4-2.3l12.3-73.6H290.4l12.3,73.9a15.5,15.5,0,0,0,.4,2.1v.4h.1c1,3.3,3.7,6.4,8.1,9,11.6,6.7,30.5,6.7,42.2,0,4.4-2.6,7.2-5.7,8.3-9h0Z"/><path class="t" d="M302.8,266.1c-16.4,9.5-16.5,25-.2,34.5s43.1,9.5,59.5,0,16.6-24.9.2-34.5S319.3,256.6,302.8,266.1Z"/><path class="h" d="M302.8,266.1c-16.4,9.5-16.5,25-.2,34.5s43.1,9.5,59.5,0,16.6-24.9.2-34.5S319.3,256.6,302.8,266.1Z"/><path class="u" d="M307.2,268.7c-14,8.1-14.1,21.2-.2,29.4s36.7,8.1,50.8,0,14.1-21.3.1-29.4S321.3,260.6,307.2,268.7Z"/><path class="v" d="M357.8,298.1c-14.1,8.1-36.8,8.1-50.8,0a23.3,23.3,0,0,1-8.8-8.5c1.2-4.2,4.6-8.1,10.1-11.3,14.1-8.2,36.8-8.2,50.7,0a21.3,21.3,0,0,1,8.8,8.5C366.6,290.9,363.3,294.9,357.8,298.1Z"/><path class="h" d="M353.3,348.5h-.2l-1.8-.9,4-2.4a7.6,7.6,0,0,0,1.8.9l.5.2,1,.4.6.2h4l.8-.2h.2l.9-.4-4,2.3a.1.1,0,0,0-.1.1l-.6.3h-5.2c-.1,0-.2,0-.2-.1h-.4l-1-.3Z"/><path class="h" d="M369.5,343.7c0-.6-.1-1.3-.1-1.9a.9.9,0,0,0-.1-.5c0-.4-.1-.8-.1-1.2s-.1-.8-.2-1.2l-.3-1.1a2.4,2.4,0,0,0-.2-.8l-.3-1.3c-.1-.2-.1-.4-.2-.6a10.7,10.7,0,0,0-.7-1.9c0-.1-.1-.2-.1-.3a11.1,11.1,0,0,0-.7-1.6c-.1-.2-.1-.4-.2-.5l-.9-1.8a.1.1,0,0,0-.1-.1,16.2,16.2,0,0,0-1-1.8l-.3-.6a5.7,5.7,0,0,1-.8-1.3,2.1,2.1,0,0,1-.4-.6,14.7,14.7,0,0,1-1-1.3l-.3-.5-.9-1.1-.6-.7-.4-.4-1.5-1.6-.9-.9-.6-.5-1.1-1-.6-.5-1.2-.9-.5-.3-1.8-1.1,4-2.4,1.8,1.2.5.3,1.2.9.6.5,1.1.9.6.6.6.6.3.3,1.5,1.6.3.3h.1l.7.8.7.9h0l.5.6.7.9c0,.1.1.2.2.3l.3.6a1.8,1.8,0,0,1,.5.7l.4.6.3.5a.5.5,0,0,1,.2.4,6.4,6.4,0,0,1,.8,1.4h.1l.7,1.4a.8.8,0,0,0,.2.4c.1.2.1.4.2.5a1.4,1.4,0,0,1,.2.6,11.7,11.7,0,0,1,.5,1.1v.3h.1c.2.6.3,1.1.5,1.6s.1.2.1.3l.2.5c.1.3.1.6.2.9a.7.7,0,0,1,.1.5l.3.8a.9.9,0,0,0,.1.5,1.3,1.3,0,0,0,.1.6,6,6,0,0,0,.2,1.2,1.1,1.1,0,0,0,.1.5v.6c0,.2.1.4.1.6s.1,1.2.1,1.8c-.1,5.2-1.9,8.7-4.9,10.5l-4,2.3C367.6,352.4,369.4,348.8,369.5,343.7Z"/><path class="w" d="M351.4,313.8V319c7.3,4.2,13.3,14,13.2,21.9s-6,10.8-13.3,6.6v5.2c10,5.7,18.1,1.7,18.2-9S361.4,319.5,351.4,313.8Z"/><path class="x" d="M77.9,112.3s11.9,6.3,6.6,15.3l5.6,3.1S95.6,114.9,77.9,112.3Z"/></svg>