<svg xmlns="http://www.w3.org/2000/svg" xmlns:xlink="http://www.w3.org/1999/xlink" viewBox="0 0 400 400"><defs><style>.a{isolation:isolate;}.b{fill:url(#a);}.c{fill:#263238;}.d{fill:#fafafa;}.e,.h,.u{opacity:0.2;}.f,.h{fill:#37b5e8;}.g{opacity:0.4;}.i{opacity:0.38;}.j{opacity:0.6;}.k{fill:#375a64;}.l{fill:#288ed9;}.m{fill:#ffe7cb;}.n{fill:#f0d2b9;}.o{fill:#21e2e2;}.p,.y{opacity:0.3;}.q{fill:#1f364c;}.r{fill:#152735;}.s{fill:#0e71bb;}.t{fill:#f59b6b;}.u,.z{mix-blend-mode:overlay;}.v{fill:url(#b);}.w{fill:#e0e0e0;}.x{fill:#fff;}.z{opacity:0.25;}.aa{fill:#333;}.ab{fill:#c0c2c1;}.ac{fill:#e6e6e6;}.ad{fill:#000100;}.ae{fill:#fe9a0f;}.af{fill:#e2810c;}.ag{fill:#dd7f10;}.ah{fill:#ae4e32;}.ai{fill:#9e402b;}.aj{fill:#fe9b0e;}</style><linearGradient id="a" x1="216.82" y1="359.34" x2="165.72" y2="69.49" gradientUnits="userSpaceOnUse"><stop offset="0" stop-color="#c6e6ff"/><stop offset="1" stop-color="#fff"/></linearGradient><linearGradient id="b" x1="61.83" y1="201.65" x2="89.58" y2="201.65" gradientUnits="userSpaceOnUse"><stop offset="0" stop-color="#ffbc98"/><stop offset="1" stop-color="#ff9f6c"/></linearGradient></defs><title>advantage-parspack-linux-dedicated-servers</title><g class="a"><path class="b" d="M389.4,244.8c-6.6-20.4-17.1-26.6-27-39.6-12.1-16-20.3-27.6-17.1-48.1,5.1-33.6,7.3-117.3-73.2-106.3-28.8,3.9-51.6,28.3-68.2,52.6-14.1,20.8-39.5,22.6-60,27.4-25.1,6-50.6,14.9-73.9,28.1-47.8,27-62.1,65.9-60.1,115.7.5,15,2.5,38.7,25.5,66.4,31.1,37.4,76.2,42.4,130.5,25.3,12.5-4,24.2-10.1,36.5-14.8a157.5,157.5,0,0,1,39.3-9.4c31.2-3.3,63.5,2.7,93.5-7.6A98.1,98.1,0,0,0,377,305.9,63.3,63.3,0,0,0,389.4,244.8Z"/><path class="c" d="M373.8,350.4c0,.1-78,.2-174.3.2s-174.2-.1-174.2-.2,78-.2,174.2-.2S373.8,350.3,373.8,350.4Z"/><rect class="d" x="145.5" y="44.1" width="152.6" height="139.81"/><path class="c" d="M298.6,184.3H145.1V43.7H298.6ZM146,183.5H297.8V44.5H146Z"/><rect class="c" x="142" y="35.7" width="158.9" height="8.91"/><g class="e"><polygon class="f" points="145.9 44.6 297.8 59.5 297.8 44.6 145.9 44.6"/></g><g class="g"><rect class="f" x="223.2" y="104.1" width="5.1" height="108.78" transform="translate(67.2 384.3) rotate(-90)"/></g><g class="e"><rect class="f" x="232.9" y="104" width="5.1" height="89.35" transform="translate(86.8 384.1) rotate(-90)"/></g><g class="g"><rect class="f" x="226.9" y="87.8" width="5.1" height="101.96" transform="translate(90.7 368.2) rotate(-90)"/></g><rect class="h" x="224.3" y="75.6" width="5.1" height="106.57" transform="translate(98 355.7) rotate(-90)"/><g class="g"><rect class="f" x="233.5" y="74.9" width="5.1" height="88.19" transform="translate(117.1 355) rotate(-90)"/></g><g class="e"><rect class="f" x="237.1" y="68.6" width="5.1" height="81.01" transform="translate(130.6 348.7) rotate(-90)"/></g><g class="g"><rect class="f" x="226.1" y="47.7" width="5.1" height="102.91" transform="translate(129.5 327.9) rotate(-90)"/></g><g class="e"><rect class="f" x="230.8" y="42.5" width="5.1" height="93.66" transform="translate(144 322.6) rotate(-90)"/></g><g class="i"><rect class="f" x="227.1" y="28.9" width="5.1" height="101.05" transform="translate(150.2 309) rotate(-90)"/></g><g class="e"><rect class="f" x="234.9" y="26.9" width="5.1" height="85.28" transform="translate(168 307) rotate(-90)"/></g><g class="j"><rect class="f" x="188.5" y="57.1" width="91.7" height="5.12"/></g><g class="e"><path class="f" d="M284.1,166.7c0,.1-16.3.2-36.4.2s-36.4-.1-36.4-.2,16.3-.2,36.4-.2S284.1,166.6,284.1,166.7Z"/></g><path class="h" d="M284.1,55c.1,0,.2,24.3.2,54.2s-.1,54.3-.2,54.3-.2-24.3-.2-54.3S284,55,284.1,55Z"/><path class="h" d="M288.6,153.8a19.1,19.1,0,0,1,.2,3.8,19.1,19.1,0,0,1-.2,3.8,19.1,19.1,0,0,1-.2-3.8A19.1,19.1,0,0,1,288.6,153.8Z"/><path class="h" d="M288.9,141.2a26.6,26.6,0,0,1,.2,4.5,26.6,26.6,0,0,1-.2,4.5c-.2,0-.2-2-.2-4.5S288.7,141.2,288.9,141.2Z"/><path class="h" d="M288.9,130.4a27.3,27.3,0,0,1,.2,4.6,26.6,26.6,0,0,1-.2,4.5c-.2,0-.2-2-.2-4.5S288.7,130.4,288.9,130.4Z"/><path class="h" d="M288.9,119.7a26.6,26.6,0,0,1,.2,4.5,26.6,26.6,0,0,1-.2,4.5c-.2,0-.2-2-.2-4.5S288.7,119.7,288.9,119.7Z"/><path class="h" d="M288.9,108.9a26.6,26.6,0,0,1,.2,4.5,27.3,27.3,0,0,1-.2,4.6c-.2,0-.2-2-.2-4.6S288.7,108.9,288.9,108.9Z"/><path class="h" d="M288.9,98.1a28.4,28.4,0,0,1,.2,4.6,26.6,26.6,0,0,1-.2,4.5c-.2,0-.2-2-.2-4.5S288.7,98.1,288.9,98.1Z"/><path class="h" d="M288.9,87.4a26.6,26.6,0,0,1,.2,4.5,28.4,28.4,0,0,1-.2,4.6c-.2,0-.2-2.1-.2-4.6S288.7,87.4,288.9,87.4Z"/><g class="e"><path class="f" d="M288.9,76.6a28.4,28.4,0,0,1,.2,4.6,26.6,26.6,0,0,1-.2,4.5c-.2,0-.2-2-.2-4.5S288.7,76.6,288.9,76.6Z"/></g><g class="e"><path class="f" d="M288.9,65.9a26.6,26.6,0,0,1,.2,4.5,28.4,28.4,0,0,1-.2,4.6c-.2,0-.2-2.1-.2-4.6S288.7,65.9,288.9,65.9Z"/></g><g class="e"><path class="f" d="M288.9,55.1a28.4,28.4,0,0,1,.2,4.6,26.6,26.6,0,0,1-.2,4.5c-.2,0-.2-2-.2-4.5S288.7,55.1,288.9,55.1Z"/></g><path class="c" d="M198.5,126.1a.9.9,0,0,1,.8-.6,1.2,1.2,0,0,1,1,.1l.5.5a1.1,1.1,0,0,1-.1.8,1,1,0,0,1-1.2.6.9.9,0,0,1-.9-.5.7.7,0,0,1-.2-.7c0-.2.1-.2.1-.2s-.1.4.3.7a1,1,0,0,0,.7.4,1.2,1.2,0,0,0,.9-.5.8.8,0,0,0-.2-.8,1.4,1.4,0,0,0-.9-.1C198.8,125.8,198.6,126.1,198.5,126.1Z"/><g class="e"><path class="f" d="M199,39.3c.2,0,.3,8.4.3,18.8s-.1,18.8-.3,18.8-.2-8.4-.2-18.8S198.9,39.3,199,39.3Z"/></g><g class="e"><path class="f" d="M193.8,52.1c.1,0,.2,5.5.2,12.1s-.1,12.1-.2,12.1-.2-5.4-.2-12.1S193.7,52.1,193.8,52.1Z"/></g><rect class="k" x="330.5" y="273" width="5.6" height="66.99" transform="translate(666.5 613.1) rotate(180)"/><path class="k" d="M293.7,276.1h80a8.7,8.7,0,0,0-8.7-8.7H302.4a8.7,8.7,0,0,0-8.7,8.7Z"/><path class="k" d="M308.8,346.1h.8a23.8,23.8,0,0,1,47.6,0h.8a24.6,24.6,0,0,0-49.2,0Z"/><path class="c" d="M353.9,347.3a3.7,3.7,0,1,0,7.3,0,3.7,3.7,0,1,0-7.3,0Z"/><path class="c" d="M305.3,346.8a3.7,3.7,0,0,0,7.4,0,3.7,3.7,0,0,0-7.4,0Z"/><path class="k" d="M309,340c0,.2,10.7.2,23.9.2s23.9,0,23.9-.2-10.7-.2-23.9-.2S309,339.9,309,340Z"/><path class="k" d="M376,206.7V256a11.7,11.7,0,0,1-11.7,11.8h-38l5.2-61.1a5.2,5.2,0,0,1,5.2-5.2h34.1A5.2,5.2,0,0,1,376,206.7Z"/><path class="l" d="M343.7,204h8.6l-3-15.4c-2.3-12.6-20-13.5-20-13.5l-13.8-.2s-10.3-1.4-16.6,5.8l-4,4.5-15.1,15.7-1.5-19.7-12.9,2,1.8,24.7a10.2,10.2,0,0,0,6.8,8.8c2.8.9,5.6.1,8.4-1.3,7.5-3.7,21.6-15.6,22.7-16.5-.7,1.3-.8,47-.8,47l45.2-1.8C348.6,236.8,343.7,204,343.7,204Z"/><path class="m" d="M323.4,238.9a77.6,77.6,0,0,1-7.3,4.5c-3.2,1.5-3.3,1.2-3.5.8s5.6-2.9,4.1-3.2-6.9,3-7.2,1.9,5.8-3.3,6.3-3.5.2-.9-.2-.7-7.6,3.1-8,1.6,1.3-1,1.3-1,6.6-2.2,6.4-2.9-4.1.5-5.4.9-2.1.1-1.8-.6,4.1-2.1,5.4-2.5,4.9-1.6,2.6-2.5-3.7-2.3-3.8-3,.8-1,1.3-.5l2.1,1.3a4.5,4.5,0,0,0,1.9.5l1.5.2,4.8.3,2.5,6.4Z"/><path class="l" d="M344.5,180.9a16.3,16.3,0,0,1,5.7,8.5c1.1,3.5,4.1,15.3,6.4,24.1a11.2,11.2,0,0,1-7.4,13.5l-25.5,13.8L319.6,230l22.3-14.7-5.4-20a14.2,14.2,0,0,1-.1-9.1C337.5,183.2,339.8,180.3,344.5,180.9Z"/><path class="m" d="M266.2,183.9l-1.5-5c-.7-3.5,2.1-4.1,2.5-4.6a8.2,8.2,0,0,1,2.5-2l-.2-1.4a44.1,44.1,0,0,1-.8-4.7c0-.8,1.6-.9,1.8-.1s1.4,5.1,1.8,6.2,2,5.6,3.5,3.1a12.4,12.4,0,0,0,1.5-4.7c.3-.9,2.1-1,1.7.7a33,33,0,0,1-.6,3.7c-.2.7-.7,1.7-.9,2.4s-.3,4.2-.5,4.8Z"/><path class="n" d="M267,175.3c.1,0,.2.5.4,1.4a9.4,9.4,0,0,0,.6,1.5,2.9,2.9,0,0,1,.3,1,1.1,1.1,0,0,1-.6,1.1,1.1,1.1,0,0,1-1.1-.2,3,3,0,0,1-.8-.8,6.4,6.4,0,0,1-.6-1.6c-.1-.9-.1-1.5-.1-1.5s.2.6.4,1.4a3.4,3.4,0,0,0,.7,1.5,1.7,1.7,0,0,0,.6.6.6.6,0,0,0,1.1-.5,1.6,1.6,0,0,0-.3-.8,14.2,14.2,0,0,1-.5-1.6C267,175.9,267,175.3,267,175.3Z"/><path class="n" d="M269.3,173.6s.3.7.7,1.9.4,1.3.7,2.1.3.7.4,1.2a2.2,2.2,0,0,1-.1.8,1,1,0,0,1-.5.6,1.5,1.5,0,0,1-1.6-.1,1.6,1.6,0,0,1-.8-1,12.8,12.8,0,0,1-.7-2.1,7,7,0,0,1-.4-2s.3.7.7,1.9.4,1.3.7,2a1.8,1.8,0,0,0,.8.9,1.1,1.1,0,0,0,1.1.1,1.2,1.2,0,0,0,.4-1c-.1-.4-.3-.8-.4-1.2s-.4-1.5-.6-2.1A7,7,0,0,1,269.3,173.6Z"/><path class="c" d="M277.9,205.5a6.6,6.6,0,0,1,.8-2.5,5.5,5.5,0,0,1,1.2-2.2,11.1,11.1,0,0,1-.8,2.4A12,12,0,0,1,277.9,205.5Z"/><path class="o" d="M253.2,304l3.4-7,13,6.2-4.8,10.2-.8-.3c-3.7-1.5-18.7-7.9-20.8-9.8S253.2,304,253.2,304Z"/><path class="o" d="M292,346v-7.7l14.4-.4.4,11.3h-.9c-4,.3-20.3,1.4-23,.6S292,346,292,346Z"/><g class="p"><path d="M335.4,191.4c.5,8.6,5.5,23.5-12.2,35.8,1.3-.6,18.2-11.9,18.2-12.2S337.3,200.6,335.4,191.4Z"/></g><path class="q" d="M349.7,242.1s-59.2-12.4-64.9-9.7-32.2,68-32.2,68l17.8,6.5,24.2-54.1s43.6,16.4,50.8,14.9S349.7,242.1,349.7,242.1Z"/><path class="c" d="M302.8,275.2l2.4.8a10.4,10.4,0,0,1,2.2,1.3,8.4,8.4,0,0,1-2.4-.8A6.4,6.4,0,0,1,302.8,275.2Z"/><path class="r" d="M301.2,255.2c-7.7,3.6-14.5,7.3-15.5,9.2-2.4,4.6,3.5,79.6,3.5,79.6h19.5l-1.2-66.7,37.9-9.6S337.4,267.4,301.2,255.2Z"/><path class="c" d="M304.5,273.2c.1-.1.6,1,1.5,2.2a23.8,23.8,0,0,1,1.7,2.1,5.3,5.3,0,0,1-2-1.9A4.5,4.5,0,0,1,304.5,273.2Z"/><path class="m" d="M314,179c-.1-4.2-.3-8.8-.3-8.8s-6.5-.8-6.7-7.4-.4-18.2-.4-18.2l14.2-2.7,7.3,5.5.3,31.4a7.3,7.3,0,0,1-7.2,7.3h0A7.2,7.2,0,0,1,314,179Z"/><path class="n" d="M313.7,170.2a16,16,0,0,0,8.6-2.8s-2,4.8-8.5,4.4Z"/><path class="o" d="M176,347.2v-7.9l-14.8-.2-.2,11.6h.9c4.1.3,20.8,1.2,23.6.4S176,347.2,176,347.2Z"/><path class="o" d="M118.3,347.2v-7.9l14.8-.2.2,11.6h-.9c-4.1.3-20.8,1.2-23.6.4S118.3,347.2,118.3,347.2Z"/><polyline class="q" points="185.7 195.5 180.3 344.2 157.2 344.7 161 215.8 135 345.6 113.1 345.6 141.4 195.8"/><path class="m" d="M153.8,133.6l14.2-1.1c.1-1.7,0-8.2,0-8.2s6-.9,6-6.8-.9-19.6-.9-19.6h0a21,21,0,0,0-20.8,2.6l-.8.7Z"/><path class="n" d="M168,124.3a13.8,13.8,0,0,1-7.7-2.2s1.8,4.2,7.7,3.7Z"/><path class="m" d="M152.2,107.4c-.1-.1-4.1-1.3-4,2.8s4.2,3.1,4.2,3S152.2,107.4,152.2,107.4Z"/><path class="s" d="M176,94.2a2.4,2.4,0,0,0-.8-2,1.7,1.7,0,0,0-2.1.2,1.7,1.7,0,0,0-1.5-2.2c-1-.1-1.8.6-2.7.9a5.3,5.3,0,0,1-2.8-.3c-.9-.4-1.7-.9-2.6-1.2a7.8,7.8,0,0,0-5.8.2,7.8,7.8,0,0,0-3.9,4.3,3.4,3.4,0,0,0-3.6,1.3,5.4,5.4,0,0,0-.8,3.9,13.1,13.1,0,0,0,.6,2.7v.2c.1,3.3.5,7.1,1.9,7.1s1.8-4.5,1.8-4.5c3-1.2,1.9-5.6,2.6-6.3s2.3-2.3,8.6.9a11.6,11.6,0,0,0,7.4.8h.2l1.6-.7a2.7,2.7,0,0,0,1.3-1.5,1.5,1.5,0,0,0-.3-1.8A5.2,5.2,0,0,0,176,94.2Z"/><path class="l" d="M146.9,131.4a39.1,39.1,0,0,1,6.3-1.2h0a26.2,26.2,0,0,0,15.2,0l2.6.2c6.6.8,9.1,2.2,13.9,6.9l-.6,26.7s1.6,30.5,1.5,35.4H140.7V173.1l-14.8,5.4,1.3-7.8s6.7-25.8,7.7-29.3S140.6,132.6,146.9,131.4Z"/><path class="l" d="M132.6,171.2l22.2-3.2,4.3,7.6-20.7,9.3a9.5,9.5,0,0,1-3.7.8h0a8.8,8.8,0,0,1-8.2-5.5l-.7-1.7Z"/><path class="m" d="M174.9,164.4l-.5-.4a10.9,10.9,0,0,0-8.7-2h0a15.7,15.7,0,0,0-6.9,3.2l-3.8,3.1,4.1,7.3,2.7-3.9s2.6,3.5,3.1,3.1a6.3,6.3,0,0,0,1-1.4l-1.9-2.6,4.5.9,6.4-2.9-2.8-3.5,2.8.9Z"/><path class="l" d="M178.1,132.1s6.2,2.2,8.9,8.2c1.7,4,4.2,23,4.2,23l3.2,6.1a10.3,10.3,0,0,1,1.2,4.8v1a10.3,10.3,0,0,1-2.3,6.5h0a10.3,10.3,0,0,1-7.2,3.8c-3.1.3-7,.4-7.8-.5a40.1,40.1,0,0,1-3.7-6.1l9.3-5-4-7.4Z"/><polygon class="c" points="168.1 163.7 153.9 180.8 155 182 178 178.5 189.4 161.4 188.3 160.4 168.1 163.7"/><path class="m" d="M183.1,168.2h0a2.2,2.2,0,0,0-2,1.4,5.6,5.6,0,0,1-1.4,2.2,5,5,0,0,1-3.7.6c-1-.5-4.7-3.8-5.3-3.4a1.2,1.2,0,0,0-.6,1.9c.7.8,4.1,3,3.5,3.7s-7.9-2.5-9.1-2.2-1.7,1-1.1,1.4,5.6,2.3,5.9,3-7.4-2-7.7-1.5-.8,1.2,0,1.5,7.1,1.9,7.7,2.2a12.1,12.1,0,0,0,2.8.8l3,1a6.9,6.9,0,0,0,4.7-.1l.7-.4a2.8,2.8,0,0,0,1.8-2.9v-2.5l.8-2.1Z"/><path class="k" d="M189.4,161.5H189l-1.2.2-4.6.7-6.7,1-3.9.6a7.9,7.9,0,0,0-3.9,1.6,21.4,21.4,0,0,0-2.8,3.2l-2.5,3.1-4.3,5.3-2.9,3.6-.8.9-.3.3.2-.3.8-1,2.8-3.6,4.2-5.4c.8-1,1.6-2.1,2.5-3.1a28.8,28.8,0,0,1,2.8-3.3,9.2,9.2,0,0,1,4.1-1.7l4-.5,6.7-1,4.6-.6h1.6Z"/><path class="d" d="M178.7,165.2l-.7.5c-.1.3-.2.6,0,.8s.7.2,1,0a.9.9,0,0,0,.3-.5.4.4,0,0,0-.2-.6c-.1-.2-.4-.2-.6-.1"/><rect class="k" x="28.8" y="184.7" width="37.1" height="74.84"/><path class="k" d="M30.5,259.4h0a5.8,5.8,0,0,1-5.8-5.8V190.5a5.8,5.8,0,0,1,5.8-5.8h0a5.8,5.8,0,0,1,5.8,5.8v63.1A5.8,5.8,0,0,1,30.5,259.4Z"/><rect class="k" x="62.5" y="268.9" width="6" height="71.66"/><path class="k" d="M107.3,268.9H21.7a9.3,9.3,0,0,1,9.3-9.3H98a9.3,9.3,0,0,1,9.3,9.3Z"/><path class="k" d="M91.7,347h-.9a25.5,25.5,0,0,0-50.9,0h-.8a26.3,26.3,0,0,1,52.6,0Z"/><circle class="c" cx="39.5" cy="346.5" r="3.9"/><path class="c" d="M95.4,346.7a4,4,0,1,1-7.9,0,4,4,0,0,1,7.9,0Z"/><path class="k" d="M91.4,340.5c0,.1-11.4.2-25.5.2s-25.6-.1-25.6-.2,11.5-.2,25.6-.2S91.4,340.4,91.4,340.5Z"/><path class="m" d="M53.8,181.1h0c4.4,0,8.1-2.9,8.2-16.4,0-2.7-.1-5.1-.1-5.1s6.4-.6,6.9-6.8.1-20.7.1-20.7h0a22.3,22.3,0,0,0-22.2,1.5l-1,.7.3,30.6C46,169.2,49.4,181.1,53.8,181.1Z"/><path class="n" d="M61.9,159.5a14.7,14.7,0,0,1-8.1-2.8s1.7,4.6,8,4.5Z"/><path class="s" d="M69.1,130.9a5.6,5.6,0,0,0-1-2.7,2.6,2.6,0,0,0-.3-2.8,2.8,2.8,0,0,0-3.8-.2h0a1.4,1.4,0,0,0-.5-1.8,3.3,3.3,0,0,0-2.2-.5c-1.4,0-4.8,1.2-7.4,2.1h-.5a13.1,13.1,0,0,0-5.9,2.6,12.8,12.8,0,0,0-3.7,6.5,23.5,23.5,0,0,0-.1,9.3c.7-.7,3.5-2.4,3.9-1.5a11,11,0,0,1,.2,1.8,1.4,1.4,0,0,0,.9,1.4,1.2,1.2,0,0,0,1.2-.5,2.3,2.3,0,0,0,.4-1.4c.1-1.9-.3-3.9,0-5.8a7.3,7.3,0,0,1,3-4.8,6.9,6.9,0,0,1,5.4-1.1,21.7,21.7,0,0,0,3.5.7c1.7-.1,3.5-1.3,5-.6l.9.5c.6.3.9.7,1,.4A4.7,4.7,0,0,0,69.1,130.9Z"/><path class="m" d="M47.3,141.1c-.1,0-4-.5-3.6,4s4.9,2.7,4.9,2.6S47.3,141.1,47.3,141.1Z"/><path class="o" d="M90.3,331.7l3.5-5-13.5-9.5-5.6,7.7.7.6c3.5,3,17.9,14.7,20.9,15.8S90.3,331.7,90.3,331.7Z"/><path class="o" d="M156.1,347.3l-1.3-5.8-15.7,3.6,1.8,9.1,1-.2c4.4-.5,22.4-3.3,25.1-4.7S156.1,347.3,156.1,347.3Z"/><g class="p"><polygon points="139.8 348.8 155.7 345.2 155.5 344.4 139.3 346.3 139.8 348.8"/></g><path class="n" d="M115.1,207a13.2,13.2,0,0,1,3.2-3c.4-.1,8.3-3.4,8.4-3.1s1.1,2.2-.5,3l-1.2.5,4.5.3s5.1,3.8,5,4.6-.7,1.3-1.2.9,1.2,2.6,1.2,2.6,0,1.2-.6,1a5.3,5.3,0,0,1-1.7-1.4s.9,1.6.6,1.9-1.7.3-1.9,0l-.3-1.1h-.9v1.2l-13.4.4Z"/><polygon class="t" points="63.1 170 67.2 174.9 83.6 203.5 115.5 206.7 116.2 215.9 79.5 219.4 58.9 182.2 63.1 170"/><g class="u"><polygon points="63.1 170 67.2 174.9 83.6 203.5 115.5 206.7 116.2 215.9 79.5 219.4 58.9 182.2 63.1 170"/></g><path class="t" d="M66.4,184l-3.2-12v-3.9l-17.7-8L42,164.3l.4.2C41,166,30.6,177.2,31.3,185.4s16.2,54.3,16.2,54.3l35.6-10.5Z"/><path class="v" d="M62.8,172.2l-1,4.9,2.6,4.9v3.6l18.7,43.6,5.5,1.9,1-3.7S74,200.8,71.3,193.3l-6.6-18.2Z"/><path class="t" d="M34.5,194.2c0,.4,21.6,21.3,29.4,28.9a7.2,7.2,0,0,0,6.6,1.9l39.7-7.7-1.4-9.3-29.7.8a8.8,8.8,0,0,1-7.8-3.6L50.7,178.5C50.3,177.9,34.5,194.2,34.5,194.2Z"/><path class="m" d="M127.5,208l-7.8-2.1-6.5,3.2h-3.6l-.6.2,1,7h1a9.8,9.8,0,0,0,3,1.2c2.1.4,5.1-.9,5.1-.9l4.1-2.3,2.9-.8,2.2,1.3a7.5,7.5,0,0,1,.2,1.1c0,.3.9.7,1.3.7s.6-1,.6-1l-.5-2.2,1,.9h2.6v-1.6Z"/><polygon class="r" points="110.2 259 76.7 318.5 94.6 330.7 124.2 278.2 119.2 259 110.2 259"/><path class="q" d="M47.5,239.7s-3.9,16.2,6.5,19.4,64.7,5.1,64.7,5.1l20.1,83.2,17.3-2.5-14.9-89.2A15.1,15.1,0,0,0,129,243.5c-16.1-2.9-45.2-8.2-45.6-8.8s-2.5-4.8-2.5-4.8Z"/><polygon class="k" points="322.1 219.8 106.8 219.1 106.7 225.5 119.5 225.5 119.1 350 123.6 350.1 124 225.5 302 226.2 301.5 350.7 306 350.7 306.5 226.2 322.1 226.2 322.1 219.8"/><polygon class="w" points="248.1 184.5 260.1 219.4 314.2 219.4 313.8 217.6 291.9 216.9 281.8 184.5 248.1 184.5"/><path class="x" d="M272.1,200.9a2.4,2.4,0,0,1-1.4,3.1,2.3,2.3,0,0,1-2.6-2c-.4-1.5.2-2.9,1.3-3.2A2.5,2.5,0,0,1,272.1,200.9Z"/><polygon class="w" points="194.9 183.5 183 218.4 128.9 218.4 129.3 216.6 151.1 216 161.2 183.5 194.9 183.5"/><path class="x" d="M170.9,199.9c-.3,1.5.3,2.9,1.4,3.1a2.4,2.4,0,0,0,2.7-2,2.5,2.5,0,0,0-1.4-3.1A2.4,2.4,0,0,0,170.9,199.9Z"/><path class="y" d="M178.5,170.2l2.8-9.6s-2,8.6-1.2,8.6l13.7-1.2Z"/><path class="z" d="M40.3,200.1,62.7,226a7.8,7.8,0,0,0,10.1,1.6l7.1-4.4L70.7,225a7.6,7.6,0,0,1-7-2.1Z"/><path class="s" d="M328.2,155a1.8,1.8,0,0,0,.5,1.6,1.5,1.5,0,0,0,1.7.2c1-.5,1.1-1.9.9-3s-.6-2.3-.1-3.4,1.1-1.3,1.7-1.9a5,5,0,0,0,1.3-4.2,4.3,4.3,0,0,0-2.9-3.2c-1.5-.4-3.3.1-4.4-.9s-.9-2.1-1.5-3-3-1.6-4.7-1.4-3.5.8-5.2.4-2.5-1.3-3.9-1.9a7.6,7.6,0,0,0-9.7,10.6c.5,1,1.6,3.8,4.8,3.8"/><path class="s" d="M305.4,145.8a10.5,10.5,0,0,0,8.6-.5c3.1-1.6,6.8-2.3,7.6-1.7s1,3.9,4.1,4.9c0,0-.2,6.2,2.2,6s1.9-12.6,1.9-12.6l-6.9-.3-6.6-1.3-6.3.9-4.8,1.2Z"/><path class="m" d="M327.7,152c.1-.1,4.1-1.5,4.3,2.6s-4.1,3.5-4.1,3.4S327.7,152,327.7,152Z"/><path class="h" d="M240.8,217c0-2.2,1.4-23.7-1.7-25.3s-13.9,15.6-21.3,15.6c-12.6,0-22.9,4.3-22.9,9.7s10.3,9.8,22.9,9.8S240.8,222.4,240.8,217Z"/><path class="aa" d="M238.8,190.4a13.6,13.6,0,0,1-4.1-12.2,12.1,12.1,0,0,0,.1-1.9,9.7,9.7,0,1,0-19.1,2.8,13.4,13.4,0,0,1-3.1,12.4,18.3,18.3,0,0,0-5.2,12.7c0,11.4,4.5,16.8,10.8,18.5a15.7,15.7,0,0,1,5.9-1,14.9,14.9,0,0,1,5.6.9c7.8-1.5,11.5-5.3,14.1-14.1A18.6,18.6,0,0,0,238.8,190.4Z"/><path d="M238.8,190.4a13.6,13.6,0,0,1-4.1-12.2,12.1,12.1,0,0,0,.1-1.9,9.8,9.8,0,0,0-9.4-9.3h-1.3v54.6a13.5,13.5,0,0,1,6.3,1.3c7.4-1.2,10.9-6,13.4-14.5A18.6,18.6,0,0,0,238.8,190.4Z"/><path class="x" d="M211.6,206.5c0-7.4,5.9-24.5,13.2-24.5S238,199.2,238,206.5a13.2,13.2,0,1,1-26.4,0Z"/><path class="ab" d="M224.8,182h-.7v37.6h.7A13.2,13.2,0,0,0,238,206.5C238,199.2,232.1,182,224.8,182Z"/><ellipse class="ac" cx="219.9" cy="178.3" rx="2.2" ry="3"/><ellipse class="ad" cx="219.9" cy="179" rx="1.1" ry="1.9"/><ellipse class="ac" cx="227.7" cy="178.3" rx="2.2" ry="3"/><ellipse class="ad" cx="227.7" cy="179" rx="1.1" ry="1.9"/><path class="ae" d="M230.6,183.3c.7,1.6-4.7,4.4-6.6,4.4s-7.3-3.4-6.6-4.4,4-4.4,6.3-4.4S230.1,182.3,230.6,183.3Z"/><path class="af" d="M230.6,183.3c-.5-.9-4.6-3.9-6.5-4.4v8.8C226,187.7,231.3,184.8,230.6,183.3Z"/><path class="ag" d="M238.8,207c1,1.9,2.4,3.6,4.3,4a3.4,3.4,0,0,1,2.5,2.9.9.9,0,0,0,.1.5,7.2,7.2,0,0,0,1.5,3.3,2.5,2.5,0,0,1-1.5,3.9l-13.8,2.6a3.5,3.5,0,0,1-3.7-5.3l7.6-12A1.7,1.7,0,0,1,238.8,207Z"/><path class="ah" d="M224,186.9c-2,0-4-1-6-2.9l.7-.7c2,1.9,3.9,2.8,5.8,2.6a6.3,6.3,0,0,0,4.1-2.5l.8.5a7,7,0,0,1-4.8,2.9Z"/><path class="ai" d="M224.5,185.9h-.4v1h.5a7,7,0,0,0,4.8-2.9l-.8-.5A6.3,6.3,0,0,1,224.5,185.9Z"/><circle cx="240.7" cy="209.1" r="4.4"/><path class="aa" d="M210.7,204.3s4.7,5.8,8.1,7.1-1.6,5.1-6.1,2.2S210.7,204.3,210.7,204.3Z"/><path class="aj" d="M208.2,207c-1,1.9-2.4,3.6-4.3,4a3.3,3.3,0,0,0-2.5,2.9c0,.2-.1.3-.1.5a7.2,7.2,0,0,1-1.5,3.3,2.5,2.5,0,0,0,1.4,3.9l13.9,2.6a3.5,3.5,0,0,0,3.7-5.3l-7.7-12A1.6,1.6,0,0,0,208.2,207Z"/></g></svg>