<svg xmlns="http://www.w3.org/2000/svg" xmlns:xlink="http://www.w3.org/1999/xlink" viewBox="0 0 720 525.9"><defs><style>.a{isolation:isolate;}.b{fill:url(#a);}.aa,.c{opacity:0.25;}.d,.i{fill:#37b5e8;}.e{fill:#fafafa;}.f{fill:#1a2e35;}.g,.i,.v{opacity:0.2;}.h{opacity:0.4;}.j{fill:#ffcf00;}.k{fill:red;}.l{fill:#375a64;}.m{fill:#288ed9;}.n{fill:#ffe7cb;}.o{fill:#f0d2b9;}.p{fill:#21e2e2;}.q,.z{opacity:0.3;}.r{fill:#1f364c;}.s{fill:#152735;}.t{fill:#0e71bb;}.u{fill:#f59b6b;}.aa,.v{mix-blend-mode:overlay;}.w{fill:url(#b);}.x{fill:#e1e1e1;}.y{fill:#fff;}</style><linearGradient id="a" x1="391.82" y1="512.76" x2="327.19" y2="146.24" gradientUnits="userSpaceOnUse"><stop offset="0" stop-color="#c6e6ff"/><stop offset="1" stop-color="#fff"/></linearGradient><linearGradient id="b" x1="200.43" y1="295.84" x2="234.78" y2="295.84" gradientUnits="userSpaceOnUse"><stop offset="0" stop-color="#ffbc98"/><stop offset="1" stop-color="#ff9f6c"/></linearGradient></defs><title>advantage-german dedicated server</title><g class="a"><path class="b" d="M170.2,481.2s-69-73.6-34.4-152.9c32.9-75.6,87.8,5.5,161.7-114.4s161.2-93,184.7,4.1c27.4,113.1,85,71.4,115.6,121.1,34.9,56.9-3.2,121.6-27.2,142.1Z"/><g class="c"><circle class="d" cx="550.8" cy="140.8" r="30.1" transform="translate(-8.5 243) rotate(-24.7)"/></g><path class="e" d="M564.5,141.7c0,.1-.4.1-1.1.1h-13V128.6c.1-1.3.1-2.5.1-3.4a5.5,5.5,0,0,1,.1-1.2c.1,0,.1.4.1,1.2s.1,2.1.1,3.4c.1,2.9.1,6.8.1,11.2v1.9l-.3-.2h13.9Z"/><path class="e" d="M550.7,115.6c.2,0,.3,1.2.3,2.6s-.1,2.5-.3,2.5a8.3,8.3,0,0,1-.2-2.5A9.3,9.3,0,0,1,550.7,115.6Z"/><path class="e" d="M564.4,119.7c.1.1-.6,1-1.6,2s-1.8,1.6-1.9,1.5.6-.9,1.6-1.9S564.3,119.6,564.4,119.7Z"/><path class="e" d="M572.4,128.5c.1.1-.8.7-2,1.4s-2.1,1.3-2.2,1.1.7-.8,1.9-1.5S572.4,128.3,572.4,128.5Z"/><path class="e" d="M577.1,141.5a15.2,15.2,0,0,1-3.4.2,16.5,16.5,0,0,1-3.5-.2c0-.2,1.6-.3,3.5-.3S577.1,141.3,577.1,141.5Z"/><path class="e" d="M529.3,141a10.7,10.7,0,0,1-3.2.3,11.7,11.7,0,0,1-3.3-.3,11.7,11.7,0,0,1,3.3-.3A10.7,10.7,0,0,1,529.3,141Z"/><path class="e" d="M532.7,150.7a12.6,12.6,0,0,1-2.4,2.3,13,13,0,0,1-2.7,1.8,10.7,10.7,0,0,1,2.4-2.2A9.7,9.7,0,0,1,532.7,150.7Z"/><path class="e" d="M541.1,158.2a21.9,21.9,0,0,1-1.7,2.9,12.4,12.4,0,0,1-1.8,2.8,8.5,8.5,0,0,1,1.4-3.1C540,159.2,540.9,158.1,541.1,158.2Z"/><path class="e" d="M550.7,167.8a15.2,15.2,0,0,1-.2-3.4,16.5,16.5,0,0,1,.2-3.5c.2,0,.3,1.6.3,3.5S550.9,167.8,550.7,167.8Z"/><path class="e" d="M565.6,163.2a7.4,7.4,0,0,1-2.9-1.9,7.3,7.3,0,0,1-2.3-2.6,21.2,21.2,0,0,1,2.6,2.2C564.4,162.2,565.7,163.1,565.6,163.2Z"/><path class="e" d="M572.5,155.7a10,10,0,0,1-2.3-2,6.9,6.9,0,0,1-1.9-2.3,10,10,0,0,1,2.3,2A8.2,8.2,0,0,1,572.5,155.7Z"/><path class="e" d="M532.4,131.7c-.1.1-1-.6-2.1-1.7s-1.7-1.9-1.6-2,1,.6,2,1.7S532.5,131.6,532.4,131.7Z"/><path class="e" d="M541,122.7c-.1.1-1-.7-2-1.7s-1.8-1.9-1.7-2,1,.6,2.1,1.6S541.1,122.6,541,122.7Z"/><path class="f" d="M586.5,479.9c0,.1-96.6.3-215.6.3s-215.7-.2-215.7-.3,96.6-.3,215.7-.3S586.5,479.8,586.5,479.9Z"/><rect class="e" x="304" y="100.9" width="188.9" height="173.02"/><path class="f" d="M493.4,274.4H303.5v-174H493.4Zm-188.9-1H492.4v-172H304.5Z"/><rect class="f" x="299.7" y="90.5" width="196.7" height="11.03"/><g class="g"><polygon class="d" points="304.5 101.5 492.5 120 492.4 101.5 304.5 101.5"/></g><g class="h"><rect class="d" x="400.1" y="175.1" width="6.3" height="134.62" transform="translate(160.8 645.8) rotate(-90)"/></g><g class="g"><rect class="d" x="412.2" y="174.9" width="6.3" height="110.58" transform="translate(185.1 645.5) rotate(-90)"/></g><g class="h"><rect class="d" x="404.7" y="154.9" width="6.3" height="126.18" transform="translate(189.9 625.9) rotate(-90)"/></g><rect class="i" x="401.5" y="139.8" width="6.3" height="131.89" transform="translate(198.9 610.4) rotate(-90)"/><g class="h"><rect class="d" x="412.9" y="138.9" width="6.3" height="109.14" transform="translate(222.5 609.6) rotate(-90)"/></g><g class="g"><rect class="d" x="417.3" y="131.1" width="6.3" height="100.26" transform="translate(239.2 601.8) rotate(-90)"/></g><g class="h"><rect class="d" x="403.8" y="105.4" width="6.3" height="127.36" transform="translate(237.9 576) rotate(-90)"/></g><g class="g"><rect class="d" x="409.5" y="98.8" width="6.3" height="115.91" transform="translate(255.9 569.5) rotate(-90)"/></g><rect class="j" x="345.6" y="141.4" width="125.1" height="6.34"/><rect class="k" x="365.1" y="129.2" width="105.5" height="6.34"/><rect x="357.1" y="116.9" width="113.5" height="6.34"/><g class="g"><path class="d" d="M475.5,252.6c0,.1-20.1.3-45,.3s-45.1-.2-45.1-.3,20.2-.3,45.1-.3S475.5,252.5,475.5,252.6Z"/></g><path class="i" d="M475.5,114.3c.2,0,.3,30.1.3,67.2s-.1,67.1-.3,67.1-.2-30-.2-67.1S475.4,114.3,475.5,114.3Z"/><path class="i" d="M481.1,236.6c.2,0,.3,2.1.3,4.7s-.1,4.7-.3,4.7a55.3,55.3,0,0,1,0-9.4Z"/><path class="i" d="M481.4,221a52.4,52.4,0,0,1,0,11.2,52.4,52.4,0,0,1,0-11.2Z"/><path class="i" d="M481.4,207.7a52.4,52.4,0,0,1,0,11.2,52.4,52.4,0,0,1,0-11.2Z"/><path class="i" d="M481.4,194.4a32.8,32.8,0,0,1,.3,5.6,32.8,32.8,0,0,1-.3,5.6,32.8,32.8,0,0,1-.3-5.6A32.8,32.8,0,0,1,481.4,194.4Z"/><path class="i" d="M481.4,181.1a32.8,32.8,0,0,1,.3,5.6,32.8,32.8,0,0,1-.3,5.6,32.8,32.8,0,0,1-.3-5.6A32.8,32.8,0,0,1,481.4,181.1Z"/><path class="i" d="M481.4,167.7a34.6,34.6,0,0,1,.3,5.7,32.8,32.8,0,0,1-.3,5.6,32.8,32.8,0,0,1-.3-5.6A34.6,34.6,0,0,1,481.4,167.7Z"/><path class="i" d="M481.4,154.4a34.6,34.6,0,0,1,.3,5.7,32.8,32.8,0,0,1-.3,5.6,32.8,32.8,0,0,1-.3-5.6A34.6,34.6,0,0,1,481.4,154.4Z"/><g class="g"><path class="d" d="M481.4,141.1a33.5,33.5,0,0,1,.3,5.7,32.8,32.8,0,0,1-.3,5.6,32.8,32.8,0,0,1-.3-5.6A33.5,33.5,0,0,1,481.4,141.1Z"/></g><g class="g"><path class="d" d="M481.4,127.8a32.8,32.8,0,0,1,.3,5.6,33.5,33.5,0,0,1-.3,5.7,33.5,33.5,0,0,1-.3-5.7A32.8,32.8,0,0,1,481.4,127.8Z"/></g><g class="g"><path class="d" d="M481.4,114.5a32.8,32.8,0,0,1,.3,5.6,34.6,34.6,0,0,1-.3,5.7,34.6,34.6,0,0,1-.3-5.7A32.8,32.8,0,0,1,481.4,114.5Z"/></g><path class="f" d="M369.6,202.3c-.1,0,.1-.6.9-.7a1.7,1.7,0,0,1,1.4.1,1.3,1.3,0,0,1,.5.7,1,1,0,0,1-.1.9,1.4,1.4,0,0,1-1.5.8,1.7,1.7,0,0,1-1.2-.6,1.6,1.6,0,0,1-.2-.9l.2-.3c.1,0-.1.5.3.9a1.6,1.6,0,0,0,1,.5,1.5,1.5,0,0,0,1-.6.8.8,0,0,0-.3-1,1.8,1.8,0,0,0-1-.2A2.5,2.5,0,0,0,369.6,202.3Z"/><g class="g"><path class="d" d="M370.3,95c.1,0,.2,10.4.2,23.2s-.1,23.2-.2,23.2-.3-10.4-.3-23.2S370.1,95,370.3,95Z"/></g><g class="g"><path class="d" d="M363.8,110.8c.1,0,.2,6.7.2,15s-.1,14.9-.2,14.9-.3-6.7-.3-14.9S363.6,110.8,363.8,110.8Z"/></g><rect class="l" x="532.9" y="384.2" width="6.9" height="82.91" transform="translate(1072.7 851.3) rotate(180)"/><path class="l" d="M487.4,387.9h98.9a10.7,10.7,0,0,0-10.7-10.7H498.1a10.7,10.7,0,0,0-10.7,10.7Z"/><path class="l" d="M506.1,474.6h.9a29.5,29.5,0,0,1,58.9,0h1a30.4,30.4,0,0,0-60.8,0Z"/><path class="f" d="M561.9,476.1a4.6,4.6,0,0,0,4.5,4.6,4.7,4.7,0,0,0,4.6-4.6,4.6,4.6,0,0,0-4.6-4.5A4.5,4.5,0,0,0,561.9,476.1Z"/><path class="f" d="M501.8,475.5a4.6,4.6,0,0,0,4.5,4.6,4.6,4.6,0,0,0,0-9.2A4.6,4.6,0,0,0,501.8,475.5Z"/><path class="l" d="M506.4,467.1c0,.1,13.2.3,29.5.3s29.6-.2,29.6-.3-13.2-.2-29.6-.2S506.4,467,506.4,467.1Z"/><path class="l" d="M589.3,302.1v61.1a14.4,14.4,0,0,1-14.5,14.4H527.7l6.4-75.5a6.4,6.4,0,0,1,6.5-6.4h42.2A6.4,6.4,0,0,1,589.3,302.1Z"/><path class="m" d="M549.3,298.7H560l-3.8-19c-2.8-15.6-24.7-16.7-24.7-16.7l-17.1-.3s-12.7-1.7-20.6,7.2l-5,5.5-18.6,19.5-1.9-24.4-16,2.5,2.3,30.6a12.6,12.6,0,0,0,8.4,10.9c3.4,1.1,6.9.1,10.4-1.6,9.3-4.6,26.7-19.4,28-20.5-.8,1.7-.9,58.2-.9,58.2l56-2.2C555.4,339.3,549.3,298.7,549.3,298.7Z"/><path class="n" d="M524.2,342c-3.1,2-6.9,4.4-9.1,5.5-3.9,1.8-4.1,1.5-4.3,1s6.9-3.6,5-4-8.5,3.8-8.9,2.4,7.2-4.1,7.8-4.3.3-1.2-.3-.9-9.3,3.8-9.8,2,1.6-1.3,1.6-1.3,8.2-2.7,8-3.5-5.2.5-6.8,1.1-2.6.1-2.2-.8,5.1-2.6,6.7-3.1,6-2,3.2-3-4.5-3-4.7-3.8a1,1,0,0,1,1.7-.6,10.5,10.5,0,0,0,2.6,1.6,8.8,8.8,0,0,0,2.3.7l1.9.2,5.9.4,3,7.9Z"/><path class="m" d="M550.3,270.1a20.5,20.5,0,0,1,7,10.6c1.4,4.3,5.1,18.9,7.9,29.8a13.8,13.8,0,0,1-9.1,16.7l-31.5,17.1L519.4,331l27.7-18.2L540.4,288c-1.1-3.7-1.6-7.6-.2-11.2S544.5,269.4,550.3,270.1Z"/><path class="n" d="M453.4,273.9l-1.9-6.2c-.9-4.3,2.6-5.1,3.1-5.7a9.4,9.4,0,0,1,3.1-2.5l-.2-1.8a35.7,35.7,0,0,1-1-5.7c0-1.1,1.9-1.1,2.2-.1s1.7,6.2,2.3,7.7,2.4,6.8,4.2,3.8a15.1,15.1,0,0,0,1.9-5.9c.3-1,2.6-1.2,2.1.9a23.7,23.7,0,0,1-.8,4.5c-.2,1-.8,2.1-1,3.1s-.5,5.1-.6,5.9Z"/><path class="o" d="M454.4,263.2a9.2,9.2,0,0,1,.5,1.8,11.4,11.4,0,0,0,.7,1.9,8.3,8.3,0,0,1,.4,1.2,1.4,1.4,0,0,1-.8,1.3,1.4,1.4,0,0,1-1.4-.3,3.8,3.8,0,0,1-.9-.9,6,6,0,0,1-.7-2,12.9,12.9,0,0,1-.2-1.9,9.2,9.2,0,0,1,.5,1.8,7.1,7.1,0,0,0,.8,1.8,3,3,0,0,0,.8.8,1.2,1.2,0,0,0,1,.2,1,1,0,0,0,.4-.8,7.6,7.6,0,0,0-.4-1.1,10.1,10.1,0,0,1-.6-1.9C454.3,263.9,454.3,263.2,454.4,263.2Z"/><path class="o" d="M457.1,261.2c.1-.1.5.8,1,2.3s.5,1.6.8,2.5.3,1,.5,1.6a3.8,3.8,0,0,1-.1,1,1.2,1.2,0,0,1-.7.7,1.5,1.5,0,0,1-1.8-.1,2.3,2.3,0,0,1-1.1-1.3,20.3,20.3,0,0,1-.9-2.6,8.4,8.4,0,0,1-.5-2.4,9.2,9.2,0,0,1,.9,2.3c.3.7.5,1.6.9,2.5a3.1,3.1,0,0,0,.9,1.1,1.4,1.4,0,0,0,1.4.1,1.1,1.1,0,0,0,.5-1.2,8.8,8.8,0,0,0-.5-1.5c-.2-1-.5-1.8-.7-2.6S457.1,261.2,457.1,261.2Z"/><path class="f" d="M467.8,300.6a9.9,9.9,0,0,1,1-3,10.2,10.2,0,0,1,1.5-2.8,10.9,10.9,0,0,1-1,3A9.1,9.1,0,0,1,467.8,300.6Z"/><path class="p" d="M437.3,422.5l4.1-8.6,16.2,7.7-6,12.6-1-.4c-4.6-1.9-23.1-9.8-25.6-12.1S437.3,422.5,437.3,422.5Z"/><path class="p" d="M485.3,474.5l-.2-9.5,17.9-.5.4,13.9h-1.1c-4.9.4-25,1.7-28.3.8S485.3,474.5,485.3,474.5Z"/><g class="q"><path d="M539,283.1c.6,10.6,6.8,29.1-15.1,44.3,1.7-.7,22.5-14.6,22.5-15S541.4,294.6,539,283.1Z"/></g><path class="r" d="M556.6,345.9s-73.2-15.4-80.3-12S436.6,418,436.6,418l22,8.1,29.9-67s54,20.3,62.9,18.5S556.6,345.9,556.6,345.9Z"/><path class="f" d="M498.6,386.9a9.9,9.9,0,0,1,3,1,10.5,10.5,0,0,1,2.7,1.5c-.1.2-1.4-.3-3-1A10.5,10.5,0,0,1,498.6,386.9Z"/><path class="s" d="M496.7,362.1c-9.5,4.5-17.9,9-19.2,11.4-3,5.6,4.3,98.6,4.3,98.6h24.1l-1.5-82.6,47-11.9S541.4,377.2,496.7,362.1Z"/><path class="f" d="M500.7,384.4c.2-.1.8,1.2,1.9,2.7s2.2,2.4,2.1,2.6a8.7,8.7,0,0,1-2.5-2.3A7.8,7.8,0,0,1,500.7,384.4Z"/><path class="n" d="M512.5,267.9c-.1-5.3-.3-11-.3-11s-8.1-1-8.4-9.2-.4-22.5-.4-22.5l17.5-3.3,9.1,6.9.3,38.8a9,9,0,0,1-8.9,9h0A8.9,8.9,0,0,1,512.5,267.9Z"/><path class="o" d="M512.2,256.9a19.4,19.4,0,0,0,10.6-3.4s-2.5,5.9-10.5,5.5Z"/><path class="p" d="M389.9,475.9v-9.8l-18.4-.2-.2,14.4h1.1c5.1.4,25.8,1.4,29.2.4S389.9,475.9,389.9,475.9Z"/><path class="p" d="M318.5,475.9v-9.8l18.3-.2.3,14.4h-1.2c-5,.4-25.7,1.4-29.1.4S318.5,475.9,318.5,475.9Z"/><polyline class="r" points="401.9 288.2 395.2 472.2 366.6 472.8 371.4 313.4 339.2 474 312 474 347 288.6"/><path class="n" d="M362.4,211.6l17.7-1.4c.1-2.1-.1-10-.1-10s7.4-1.2,7.5-8.5-1.2-24.2-1.2-24.2h0a25.6,25.6,0,0,0-25.7,3.2l-1.1.8Z"/><path class="o" d="M380,200.1a17.3,17.3,0,0,1-9.5-2.8s2.2,5.3,9.5,4.7Z"/><path class="n" d="M360.4,179.1c-.1,0-5-1.5-4.8,3.6s5.1,3.8,5.1,3.7S360.4,179.1,360.4,179.1Z"/><path class="t" d="M389.8,162.8a2.5,2.5,0,0,0-1-2.4,1.8,1.8,0,0,0-2.4.2,2.3,2.3,0,0,0-2-2.7c-1.2-.1-2.2.8-3.4,1.1a5.1,5.1,0,0,1-3.4-.4l-3.2-1.4a9.2,9.2,0,0,0-7.1.3,9.6,9.6,0,0,0-4.9,5.2,4.1,4.1,0,0,0-4.4,1.7,6.7,6.7,0,0,0-1.1,4.8,20.2,20.2,0,0,0,.9,3.3v.3c0,4,.5,8.8,2.2,8.8s2.3-5.6,2.3-5.6c3.7-1.5,2.3-7,3.2-7.8s2.9-2.8,10.6,1.1a14.5,14.5,0,0,0,9.2,1h.3a6.6,6.6,0,0,0,1.9-.9,3.7,3.7,0,0,0,1.7-1.8,2.1,2.1,0,0,0-.4-2.3A4.6,4.6,0,0,0,389.8,162.8Z"/><path class="m" d="M353.9,208.8c2.5-.4,4.9-1.3,7.8-1.4h0a31.7,31.7,0,0,0,18.8,0l3.2.3c8.2,1,11.3,2.7,17.2,8.5l-.7,33.1s2,37.6,1.9,43.7H346.2V260.5l-18.4,6.7,1.7-9.6s8.3-32,9.5-36.3S346.1,210.3,353.9,208.8Z"/><path class="m" d="M336.2,258.1l27.5-3.9,5.2,9.4-25.6,11.5a9.9,9.9,0,0,1-4.5,1h0a11,11,0,0,1-10.2-6.9l-.9-2Z"/><path class="n" d="M388.5,249.7l-.6-.5a13.9,13.9,0,0,0-10.8-2.5h0a19.6,19.6,0,0,0-8.5,4l-4.7,3.9,5,9,3.5-4.8s3.2,4.3,3.7,3.9a7.8,7.8,0,0,0,1.3-1.9l-2.3-3.1,5.5,1.1,7.9-3.6-3.4-4.4,3.4,1.2Z"/><path class="m" d="M392.4,209.8s7.8,2.7,11.1,10.2c2.1,4.8,5.3,28.4,5.3,28.4l3.9,7.6a12,12,0,0,1,1.5,5.9v1.2a13.4,13.4,0,0,1-2.9,8.1h0a12.9,12.9,0,0,1-8.9,4.7c-3.9.3-8.7.5-9.7-.7s-4.5-7.6-4.5-7.6l11.5-6.1-4.9-9.2Z"/><polygon class="f" points="380.1 248.9 362.6 270.1 363.9 271.5 392.4 267.2 406.5 246 405.2 244.8 380.1 248.9"/><path class="n" d="M398.7,254.5h0a2.7,2.7,0,0,0-2.5,1.7,5.7,5.7,0,0,1-1.7,2.7c-1.3.7-3.5,1.3-4.6.7s-5.8-4.7-6.6-4.2a1.6,1.6,0,0,0-.7,2.4c.8.9,5.1,3.7,4.3,4.6s-9.8-3.1-11.2-2.8-2.2,1.2-1.4,1.8,6.9,2.8,7.3,3.6-9.2-2.4-9.6-1.8-.9,1.5,0,1.8,8.9,2.5,9.6,2.8a21.3,21.3,0,0,0,3.5,1l3.7,1.2a8,8,0,0,0,5.7-.1l1-.4a3.7,3.7,0,0,0,2.2-3.6v-3.2l1-2.5Z"/><path class="l" d="M406.5,246.1H406l-1.5.3-5.6.9-8.4,1.3-4.9.7a10.2,10.2,0,0,0-4.7,1.9,32.3,32.3,0,0,0-3.5,4l-3.1,3.9-5.3,6.5-3.6,4.4-1,1.2a1.2,1.2,0,0,1-.4.4l.3-.4.9-1.3c.9-1.1,2.1-2.6,3.5-4.5l5.2-6.6L377,255a42.5,42.5,0,0,1,3.5-4.1,11.2,11.2,0,0,1,5-2l5-.7,8.3-1.2,5.6-.7,1.6-.2Z"/><path class="e" d="M393.2,250.7a2.7,2.7,0,0,0-.8.7.7.7,0,0,0,0,.9c.3.4.8.3,1.2.1a1,1,0,0,0,.4-.7.8.8,0,0,0-.2-.8.6.6,0,0,0-.8,0"/><rect class="l" x="159.5" y="274.9" width="45.9" height="92.61"/><path class="l" d="M161.6,367.3h0a7.1,7.1,0,0,1-7.1-7.2v-78a7.1,7.1,0,0,1,7.1-7.2h0a7.2,7.2,0,0,1,7.2,7.2v78A7.2,7.2,0,0,1,161.6,367.3Z"/><rect class="l" x="201.3" y="379" width="7.4" height="88.69"/><path class="l" d="M256.7,379H150.8a11.6,11.6,0,0,1,11.5-11.5h82.9A11.6,11.6,0,0,1,256.7,379Z"/><path class="l" d="M237.4,475.7h-1.1a31.5,31.5,0,1,0-62.9,0h-1.1a32.6,32.6,0,0,1,65.1,0Z"/><circle class="f" cx="172.8" cy="475.1" r="4.9"/><path class="f" d="M242,475.4a4.9,4.9,0,0,1-9.8,0,4.9,4.9,0,0,1,9.8,0Z"/><path class="l" d="M237.1,467.7c0,.1-14.2.3-31.6.3s-31.7-.2-31.7-.3,14.2-.3,31.7-.3S237.1,467.5,237.1,467.7Z"/><path class="n" d="M190.5,270.5h0c5.5,0,10-3.6,10.1-20.4,0-3.3-.1-6.3-.1-6.3s8-.7,8.6-8.4.1-25.6.1-25.6h0a27.6,27.6,0,0,0-27.5,1.8l-1.2.8.3,37.9C180.9,255.6,185,270.5,190.5,270.5Z"/><path class="o" d="M200.5,243.7a18.1,18.1,0,0,1-10-3.5s2,5.7,9.9,5.5Z"/><path class="t" d="M209.5,208.3a10.6,10.6,0,0,0-1.2-3.4,3.5,3.5,0,0,0-.5-3.4,3.4,3.4,0,0,0-4.6-.3h-.1a1.9,1.9,0,0,0-.5-2.2,4.5,4.5,0,0,0-2.8-.6c-1.7,0-5.9,1.4-9.1,2.6h-.6a16.9,16.9,0,0,0-7.4,3.2c-2.4,2-3.7,5-4.6,8.1s-.8,6.3-.2,11.5c1-.9,4.4-3,4.9-1.8a4.9,4.9,0,0,1,.2,2.1c.1.8.4,1.6,1.2,1.8a1.7,1.7,0,0,0,1.5-.7,4.8,4.8,0,0,0,.5-1.7c.1-2.4-.5-4.8-.1-7.2a8.8,8.8,0,0,1,10.5-7.3c1.4.3,2.8,1,4.3.9s4.3-1.6,6.2-.7l1.1.6c.7.4,1.1.8,1.3.5A14.4,14.4,0,0,0,209.5,208.3Z"/><path class="n" d="M182.5,221c-.2-.1-5-.7-4.5,4.9s6,3.3,6,3.1Z"/><path class="p" d="M235.7,456.7l4.3-6.1-16.7-11.7-7,9.4,1,.8c4.3,3.7,22.1,18.2,25.8,19.6S235.7,456.7,235.7,456.7Z"/><path class="p" d="M317.1,476.1l-1.6-7.2-19.4,4.5,2.2,11.2,1.3-.2c5.4-.7,27.6-4.1,31-5.9S317.1,476.1,317.1,476.1Z"/><g class="q"><polygon points="297 477.9 316.6 473.5 316.4 472.5 296.3 474.8 297 477.9"/></g><path class="o" d="M266.4,302.5c0-.4,3.3-3.6,3.9-3.8s10.3-4.2,10.5-3.8,1.3,2.7-.7,3.8l-1.5.5,5.6.5s6.3,4.6,6.2,5.6-.9,1.6-1.5,1.1,1.5,3.2,1.5,3.2,0,1.6-.8,1.3a8.6,8.6,0,0,1-2.1-1.7s1.2,1.9.8,2.2-2.2.5-2.4,0-.4-1.2-.4-1.2h-1.1v1.4l-16.6.6Z"/><polygon class="u" points="202.1 256.7 207.1 262.7 227.4 298.1 266.9 302 267.8 313.5 222.3 317.8 196.9 271.8 202.1 256.7"/><g class="v"><polygon points="202.1 256.7 207.1 262.7 227.4 298.1 266.9 302 267.8 313.5 222.3 317.8 196.9 271.8 202.1 256.7"/></g><path class="u" d="M206.1,274l-3.9-14.8v-4.8l-22-10-4.2,5.2.5.3c-1.8,1.8-14.6,15.7-13.8,25.9s20,67.1,20,67.1L226.8,330Z"/><path class="w" d="M201.7,259.4l-1.3,6,3.3,6.1V276l23.1,54,6.8,2.3,1.2-4.6s-19.3-32.9-22.6-42.2-8.3-22.5-8.3-22.5Z"/><path class="u" d="M166.6,286.6c0,.5,26.7,26.4,36.4,35.8a9.6,9.6,0,0,0,8.1,2.4l49.2-9.6-1.7-11.5-36.8,1a11.1,11.1,0,0,1-9.7-4.4l-25.4-33.1C186.1,266.5,166.6,286.6,166.6,286.6Z"/><path class="n" d="M281.6,303.7,272,301l-7.9,4h-4.6l-.7.3,1.3,8.6,1.1.2a11,11,0,0,0,3.9,1.4c2.5.6,6.2-1,6.2-1l5.1-2.9,3.6-1,2.7,1.6a10.6,10.6,0,0,1,.3,1.4c0,.4,1,.9,1.5.9s.8-1.3.8-1.3l-.7-2.7,1.3,1.1h3.2v-1.9Z"/><polygon class="s" points="260.3 366.8 218.9 440.5 241 455.5 277.6 390.6 271.4 366.8 260.3 366.8"/><path class="r" d="M182.6,342.9s-4.7,20,8.2,24.1,80,6.2,80,6.2l24.9,103,21.4-3L298.7,362.8a18.7,18.7,0,0,0-15.1-15.2c-19.9-3.6-56-10.1-56.5-10.8s-3-6-3-6Z"/><polygon class="l" points="522.5 318.3 256 317.4 256 325.3 271.8 325.4 271.3 479.5 276.9 479.5 277.4 325.4 497.6 326.2 497.1 480.3 502.7 480.3 503.2 326.2 522.5 326.3 522.5 318.3"/><polygon class="x" points="431 274.6 445.8 317.8 512.7 317.8 512.2 315.6 485.2 314.8 472.7 274.6 431 274.6"/><path class="y" d="M460.7,294.9c.4,1.8-.4,3.5-1.7,3.9s-2.9-.8-3.3-2.6.3-3.5,1.7-3.8S460.2,293.1,460.7,294.9Z"/><polygon class="x" points="365.1 273.4 350.4 316.6 283.4 316.6 283.9 314.4 311 313.5 323.4 273.4 365.1 273.4"/><path class="y" d="M335.5,293.7c-.5,1.8.3,3.5,1.7,3.9s2.8-.8,3.3-2.6-.4-3.5-1.7-3.8S335.9,291.9,335.5,293.7Z"/><circle class="l" cx="392.3" cy="301.5" r="8.2" transform="translate(31.7 640.3) rotate(-80.8)"/><rect class="x" x="365.5" y="298.3" width="53.5" height="19.56"/><path class="f" d="M386.1,303.7c0,.1-3.9.2-8.7.2s-8.8-.1-8.8-.2,4-.3,8.8-.3S386.1,303.5,386.1,303.7Z"/><path class="f" d="M386.1,306.5c0,.1-3.9.2-8.7.2s-8.8-.1-8.8-.2,4-.3,8.8-.3S386.1,306.3,386.1,306.5Z"/><path class="f" d="M386.1,309.3c0,.1-3.9.2-8.7.2s-8.8-.1-8.8-.2,4-.3,8.8-.3S386.1,309.1,386.1,309.3Z"/><path class="f" d="M386.1,312.1c0,.1-3.9.2-8.7.2s-8.8-.1-8.8-.2,4-.3,8.8-.3S386.1,311.9,386.1,312.1Z"/><path class="z" d="M344.8,256.9l3.5-11.8s-2.5,10.6-1.5,10.6l16.9-1.5Z"/><path class="aa" d="M173.7,293.9,201.5,326a9.8,9.8,0,0,0,12.5,1.9l8.9-5.4-11.4,2.3a10.1,10.1,0,0,1-8.8-2.6Z"/><path class="t" d="M530.1,238.1a2.1,2.1,0,0,0,.6,2,1.8,1.8,0,0,0,2.1.2c1.3-.6,1.4-2.3,1.1-3.7s-.7-2.9-.1-4.1a6.9,6.9,0,0,1,2.1-2.4,6.2,6.2,0,0,0,1.6-5.2A4.8,4.8,0,0,0,534,221c-1.9-.5-4.1.1-5.5-1.3s-1.1-2.5-1.9-3.6-3.7-2.1-5.8-1.7-4.3,1-6.4.5-3.2-1.6-4.8-2.4a9.4,9.4,0,0,0-12.1,13.1c.7,1.2,2,4.8,6,4.7"/><path class="t" d="M501.9,226.7s4.5,2.3,10.6-.6c3.9-2,8.5-2.9,9.5-2.1s1.2,4.9,5,6.1c0,0-.3,7.7,2.8,7.4s2.2-15.7,2.2-15.7l-8.5-.2-8.2-1.6-7.7,1-6,1.6Z"/><path class="n" d="M529.5,234.4c.1-.1,5.1-1.9,5.3,3.2s-5.1,4.3-5.1,4.2S529.5,234.4,529.5,234.4Z"/><rect x="368" y="300.5" width="19.8" height="4.82"/><rect class="k" x="368" y="305.3" width="19.8" height="4.82"/><rect class="j" x="368" y="310.1" width="19.8" height="4.82"/></g></svg>