<svg xmlns="http://www.w3.org/2000/svg" xmlns:xlink="http://www.w3.org/1999/xlink" viewBox="0 0 400 400"><defs><style>.a{font-size:38.64px;font-family:AdobeArabic-Regular, Adobe Arabic;}.a,.g{fill:#fff;}.b{fill:url(#a);}.c{fill:#f59b6b;}.d{fill:#152735;}.e{fill:#1f364c;}.f{fill:#575756;}.h{fill:#0e71bb;}.i{fill:#ffe7cb;}.j,.l,.q{fill:#1d1d1b;}.j{opacity:0.1;}.k{fill:#3c3c3b;}.m{fill:#95c11f;}.n{fill:#e94e1b;}.o{fill:#878787;}.p{fill:#36a9e1;}.q,.r{opacity:0.5;}.s{fill:#288ed9;}</style><linearGradient id="a" x1="230.41" y1="343.72" x2="188.19" y2="104.27" gradientUnits="userSpaceOnUse"><stop offset="0" stop-color="#c6e6ff"/><stop offset="1" stop-color="#fff"/></linearGradient></defs><title>advantage dedicated server</title><text class="a" transform="translate(154.2 -46.2)"> یصاصتخا روس ایازم*</text><path class="b" d="M286.3,333.5c-19.6,1.7-45.8-3.1-73.2-10.7-8.7-2.4-17.4-5.2-26.2-8l-5.4-1.9c-7.1-2.4-14.2-4.9-21.1-7.5-12-4.4-23.5-9-34.1-13.4-47.3-19.5-77-67.4-72.2-118.3,1.8-19.3,8.4-36.6,23.8-45.6,37.3-21.8,68.3-.5,95.3,25.5,5.4,5.2,10.7,10.6,15.8,15.8h0l.5.5,6.2,6.4a43.6,43.6,0,0,0,14.3,9.5,47.3,47.3,0,0,0,6.6,2.5h.4a77.1,77.1,0,0,0,8.9,2.3h0l3.4.7c41.2,7.5,99.5-1.6,122.6,27.4C382.7,257.5,355.3,327.4,286.3,333.5Z"/><path class="c" d="M218.4,196c-2.6-15.6-6-26.2-10.2-40.3-6.6-22.1-36-12.3-7.3,46.4l13,34c4.7-.9,15.7-1.8,20.7-5Z"/><path class="d" d="M208.2,235h0l-.8,4.3v.4L205,252.9l-.2,1.4-.9,4.7v.4l-.8,4.3L201.3,274l-3.1,17.5-12.6,16.1-4.1,5.3c-7.1-2.4-14.2-4.9-21.1-7.5l13.7-24.9,1.2-2.2,3.6-31.4h0l.3-3,.7-5.5.2-2v-.5h.3l6.8-2.2h.1l5.8-2h0l8.5-2.7h0l.7-.3.8,1,3,3.3Z"/><path class="c" d="M218,196c-2.6-15.6-6-26.2-10.2-40.3-6.6-22.1-36-12.3-7.3,46.4l13,34c4.7-.9,15.7-1.8,20.7-5Z"/><path class="e" d="M213.1,322.8c-8.7-2.4-17.4-5.2-26.2-8-.4-2.3-.8-4.7-1.3-7.2a.9.9,0,0,0-.1-.5l-11.4-26.6-5-11.6c-5-6.2-8.4-18.4-5.5-28.7a11.1,11.1,0,0,1,1.7-3.2h0l.6-.7.5-.6c3.1-3.7,8.4-7.5,14.1-10.4l.5-.3h0l.4-.2a46.1,46.1,0,0,1,13.7-4.6,20.6,20.6,0,0,1,6.6.1,8.8,8.8,0,0,1,4.3,2.2,6.1,6.1,0,0,1,1.4,1.7,3.7,3.7,0,0,1,.5,1.1,22.9,22.9,0,0,1,.7,2.8v.9a56.8,56.8,0,0,1-.4,6.1h0a27.4,27.4,0,0,1-.8,4.3.6.6,0,0,1-.1.4,20.8,20.8,0,0,1-5.3,10,27.5,27.5,0,0,1-2.6,2.2h-.1a25.2,25.2,0,0,1-4.3,2.4h-.4l2.5,7.2,4.2,12.4,8.2,24.2Z"/><path d="M163.6,234.4c0,.1-.1,4.2,0,5.8,13.8,9.8,42.5-2.1,45-11.3a45.3,45.3,0,0,0,0-6.4C200.1,234.1,174,240.2,163.6,234.4Z"/><path class="f" d="M200,236.1a20.2,20.2,0,0,1-5.7,2.9v-3.6a25.3,25.3,0,0,0,5.7-2.9Z"/><path class="c" d="M208.7,224.3c-7.3,10-32.8,19.6-45.1,10.5-2.6-1.9-1.8-4.2-2.6-9.8s-1.2-11.5-1.7-16.5c-1.7-19.6-2.1-32.1-1.9-38.6h0c.1-1.2.2-2.2.2-3,5-5.9,13.8-12.1,21-16.7,9.8-4.4,10.6-4.2,15.5-6C213.7,137,211.1,221,208.7,224.3Z"/><path class="g" d="M198.3,226a2.5,2.5,0,0,1-1.2,1.9c-.6.3-1.1,0-1.1-.7a3,3,0,0,1,1.2-1.9C197.8,225,198.3,225.3,198.3,226Z"/><path class="h" d="M194.3,131.5c3-2.8,7.1-7.2,6.5-12s-6.5-7.8-13.9-7.8c-10.7.1-15.5,8.9-13.1,19.8.8,3.8,1.2,9.2,2.9,9.4s1.2-.8,3.1-.4Z"/><path class="i" d="M192.8,155.4a.3.3,0,0,0,.1-.2l.4-5.5v-1.6L177,137.5l-1.1,10.6C173.9,158.8,190.9,160.8,192.8,155.4Z"/><path class="j" d="M192.8,155.4a.3.3,0,0,0,.1-.2l.4-5.5-12-6.3C180.5,150.1,186,157.2,192.8,155.4Z"/><path class="i" d="M201.9,122.6c-1.1-6.6-7.8-8.9-14.9-8.8-9.7.3-12.3,7.4-12.5,15a48.5,48.5,0,0,0,2.2,11.1l4.6,3.5a16.9,16.9,0,0,0,3.8,6c2.4,2,5.5,3.6,8.5,3s5.5-2.5,6.3-7.8,1.5-5.3,1.7-7.6-.1-2.7,0-3.4.7-2,.8-3A30.8,30.8,0,0,0,201.9,122.6Z"/><path class="h" d="M182.9,120.8c-1.9-.8-.2,11.3-.2,11.3s-2.9-.2-3.5.4.7,5.8-.4,7.9-1.2.7-2.1.5c-.8-3.2-2.2-6.9-2.5-10.2a22.2,22.2,0,0,1,1.2-9.9,12.6,12.6,0,0,1,6.8-7,15.8,15.8,0,0,1,8.9-.6c7.2,1.3,9.1,3.5,9.7,6.3S192.8,125.2,182.9,120.8Z"/><path class="i" d="M179.1,129.1c-2.3-.8-2.3,2.4-2.2,3.8a26.1,26.1,0,0,1,.6,2.7c.1.9-.1,2,.5,2.7s3-1.2,3.3-2.3S181,129.9,179.1,129.1Z"/><path class="k" d="M180.5,218.5v26.7c0,.4.1.8.4.9l32,18.5h.1l46.4-55.8-32-18.5c-.3-.2-.6-.1-1,.1l-44.5,25.7A2.9,2.9,0,0,0,180.5,218.5Z"/><path class="l" d="M258.5,238.8a3.2,3.2,0,0,0,1.4-2.4V209.7a.9.9,0,0,0-1.4-.8L214,234.6a3.3,3.3,0,0,0-1.5,2.5v26.6c0,.5.2.8.5.9s.6.1,1-.1Z"/><path class="f" d="M249.2,214.8l9.3-5.3a.6.6,0,0,1,.9.5v26.7a2,2,0,0,1-.9,1.5l-9.3,5.3Z"/><path class="k" d="M214,235.2l36.1-20.9v7.2l-37,21.4v-6.2A2,2,0,0,1,214,235.2Z"/><path class="l" d="M214,263.9,250.1,243V221.1l-37,21.3v21C213.1,264,213.5,264.2,214,263.9Z"/><polygon class="m" points="245.7 223.9 247.7 222.8 247.7 223.3 245.7 224.4 245.7 223.9"/><polygon class="k" points="243.9 245.9 249.5 242.8 249.5 222.3 243.9 225.5 243.9 245.9"/><path class="g" d="M245.4,242.2c0,.8.6,1.1,1.3.7a2.9,2.9,0,0,0,1.3-2.2c0-.8-.6-1.1-1.3-.7A2.9,2.9,0,0,0,245.4,242.2Z"/><polygon class="l" points="248.3 238.3 248.9 238 248.9 234.3 248.3 234.7 248.3 238.3"/><polygon class="l" points="247.4 238.8 247.9 238.5 247.9 234.9 247.4 235.2 247.4 238.8"/><polygon class="l" points="246.4 239.4 247 239.1 247 235.4 246.4 235.7 246.4 239.4"/><polygon class="l" points="245.5 239.9 246 239.6 246 236 245.5 236.3 245.5 239.9"/><polygon class="l" points="244.5 240.5 245.1 240.2 245.1 236.5 244.5 236.8 244.5 240.5"/><polygon class="l" points="247.4 234.5 248.9 233.7 248.9 233 247.4 233.9 247.4 234.5"/><polygon class="g" points="246.4 235.1 247 234.8 247 234.1 246.4 234.4 246.4 235.1"/><polygon class="m" points="245.5 235.6 246 235.3 246 234.6 245.5 235 245.5 235.6"/><polygon class="n" points="244.5 236.2 245.1 235.8 245.1 235.2 244.5 235.5 244.5 236.2"/><path class="l" d="M244.8,225.6l3.8-2.2a.2.2,0,0,1,.3.1v8.4a.9.9,0,0,1-.3.5l-3.8,2.2c-.2.1-.3,0-.3-.2v-8.3A.5.5,0,0,1,244.8,225.6Z"/><path class="o" d="M246,241.8c0,.4.3.6.7.4a1.4,1.4,0,0,0,.7-1.1c0-.5-.3-.6-.7-.4A1.4,1.4,0,0,0,246,241.8Z"/><polygon class="l" points="247.5 222.9 249.5 221.8 249.5 222.3 247.5 223.4 247.5 222.9"/><polygon class="l" points="243.9 225 245.9 223.9 245.9 224.3 243.9 225.5 243.9 225"/><polygon class="m" points="239.7 227.4 241.6 226.3 241.6 226.8 239.7 227.9 239.7 227.4"/><polygon class="k" points="237.9 249.4 243.4 246.2 243.4 225.8 237.9 229 237.9 249.4"/><path class="g" d="M239.4,245.7c0,.8.5,1.1,1.2.7a2.6,2.6,0,0,0,1.3-2.2c0-.8-.5-1.2-1.3-.7A2.7,2.7,0,0,0,239.4,245.7Z"/><polygon class="l" points="242.3 241.8 242.8 241.5 242.8 237.8 242.3 238.1 242.3 241.8"/><polygon class="l" points="241.3 242.3 241.9 242 241.9 238.4 241.3 238.7 241.3 242.3"/><polygon class="l" points="240.4 242.9 240.9 242.6 240.9 238.9 240.4 239.2 240.4 242.9"/><polygon class="l" points="239.4 243.4 240 243.1 240 239.4 239.4 239.8 239.4 243.4"/><polygon class="l" points="238.5 244 239 243.6 239 240 238.5 240.3 238.5 244"/><polygon class="l" points="241.3 238 242.8 237.2 242.8 236.5 241.3 237.4 241.3 238"/><polygon class="g" points="240.4 238.6 240.9 238.2 240.9 237.6 240.4 237.9 240.4 238.6"/><polygon class="m" points="239.4 239.1 240 238.8 240 238.1 239.4 238.5 239.4 239.1"/><polygon class="n" points="238.5 239.7 239 239.3 239 238.7 238.5 239 238.5 239.7"/><path class="l" d="M238.8,229l3.7-2.1c.2-.1.3,0,.3.1v8.4a.5.5,0,0,1-.3.5l-3.7,2.2c-.2.1-.3,0-.3-.2v-8.3A.7.7,0,0,1,238.8,229Z"/><path class="o" d="M240,245.3c0,.4.3.6.6.4a1.4,1.4,0,0,0,.7-1.1c0-.5-.3-.6-.7-.4A1.5,1.5,0,0,0,240,245.3Z"/><polygon class="l" points="241.5 226.4 243.4 225.3 243.4 225.8 241.5 226.9 241.5 226.4"/><polygon class="l" points="237.9 228.5 239.8 227.3 239.8 227.8 237.9 229 237.9 228.5"/><polygon class="m" points="233.6 230.9 235.6 229.8 235.6 230.3 233.6 231.4 233.6 230.9"/><polygon class="k" points="231.8 252.9 237.4 249.7 237.4 229.2 231.8 232.4 231.8 252.9"/><path class="g" d="M233.3,249.2c0,.8.6,1.1,1.3.7a2.9,2.9,0,0,0,1.3-2.2c0-.8-.6-1.2-1.3-.8A3,3,0,0,0,233.3,249.2Z"/><polygon class="l" points="236.2 245.3 236.8 245 236.8 241.3 236.2 241.6 236.2 245.3"/><polygon class="l" points="235.3 245.8 235.8 245.5 235.8 241.8 235.3 242.2 235.3 245.8"/><polygon class="l" points="234.3 246.4 234.9 246 234.9 242.4 234.3 242.7 234.3 246.4"/><polygon class="l" points="233.4 246.9 233.9 246.6 233.9 242.9 233.4 243.3 233.4 246.9"/><polygon class="l" points="232.4 247.5 233 247.1 233 243.5 232.4 243.8 232.4 247.5"/><polygon class="l" points="235.3 241.5 236.8 240.6 236.8 240 235.3 240.9 235.3 241.5"/><polygon class="g" points="234.3 242.1 234.9 241.7 234.9 241.1 234.3 241.4 234.3 242.1"/><polygon class="m" points="233.4 242.6 233.9 242.3 233.9 241.6 233.4 241.9 233.4 242.6"/><polygon class="n" points="232.4 243.2 233 242.8 233 242.2 232.4 242.5 232.4 243.2"/><path class="l" d="M232.7,232.5l3.8-2.1c.1-.1.3-.1.3.1v8.4a.9.9,0,0,1-.3.5l-3.8,2.2c-.1.1-.3,0-.3-.2V233Z"/><path class="o" d="M233.9,248.8c0,.4.3.6.7.4a1.4,1.4,0,0,0,.7-1.2c0-.4-.3-.5-.7-.3A1.4,1.4,0,0,0,233.9,248.8Z"/><polygon class="l" points="235.4 229.9 237.4 228.8 237.4 229.2 235.4 230.4 235.4 229.9"/><polygon class="l" points="231.8 232 233.8 230.8 233.8 231.3 231.8 232.4 231.8 232"/><polygon class="m" points="227.6 234.4 229.5 233.3 229.5 233.8 227.6 234.9 227.6 234.4"/><polygon class="k" points="225.8 256.4 231.3 253.2 231.3 232.7 225.8 235.9 225.8 256.4"/><path class="g" d="M227.3,252.7c0,.8.5,1.1,1.3.7a2.7,2.7,0,0,0,1.2-2.2c0-.8-.5-1.2-1.2-.8A2.6,2.6,0,0,0,227.3,252.7Z"/><polygon class="l" points="230.2 248.8 230.7 248.4 230.7 244.8 230.2 245.1 230.2 248.8"/><polygon class="l" points="229.2 249.3 229.8 249 229.8 245.3 229.2 245.7 229.2 249.3"/><polygon class="l" points="228.3 249.9 228.8 249.5 228.8 245.9 228.3 246.2 228.3 249.9"/><polygon class="l" points="227.3 250.4 227.9 250.1 227.9 246.4 227.3 246.8 227.3 250.4"/><polygon class="l" points="226.4 251 227 250.6 227 247 226.4 247.3 226.4 251"/><polygon class="l" points="229.2 245 230.7 244.1 230.7 243.5 229.2 244.3 229.2 245"/><polygon class="g" points="228.3 245.6 228.8 245.2 228.8 244.6 228.3 244.9 228.3 245.6"/><polygon class="m" points="227.3 246.1 227.9 245.8 227.9 245.1 227.3 245.4 227.3 246.1"/><polygon class="n" points="226.4 246.6 227 246.3 227 245.7 226.4 246 226.4 246.6"/><path class="l" d="M226.7,236l3.7-2.1c.2-.1.3-.1.3.1v8.4a.5.5,0,0,1-.3.5l-3.7,2.2c-.2,0-.3,0-.3-.2v-8.4A.5.5,0,0,1,226.7,236Z"/><path class="o" d="M227.9,252.3c0,.4.3.6.7.4a1.6,1.6,0,0,0,.6-1.2c0-.4-.3-.6-.6-.3A1.4,1.4,0,0,0,227.9,252.3Z"/><polygon class="l" points="229.4 233.4 231.3 232.3 231.3 232.7 229.4 233.9 229.4 233.4"/><polygon class="l" points="225.8 235.4 227.7 234.3 227.7 234.8 225.8 235.9 225.8 235.4"/><polygon class="m" points="221.5 237.9 223.5 236.8 223.5 237.3 221.5 238.4 221.5 237.9"/><polygon class="k" points="219.7 259.9 225.3 256.7 225.3 236.2 219.7 239.4 219.7 259.9"/><path class="g" d="M221.2,256.1c0,.9.6,1.2,1.3.8a2.9,2.9,0,0,0,1.3-2.2c0-.9-.6-1.2-1.3-.8A2.9,2.9,0,0,0,221.2,256.1Z"/><polygon class="l" points="224.1 252.3 224.7 251.9 224.7 248.3 224.1 248.6 224.1 252.3"/><polygon class="l" points="223.2 252.8 223.7 252.5 223.7 248.8 223.2 249.2 223.2 252.8"/><polygon class="l" points="222.2 253.4 222.8 253 222.8 249.4 222.2 249.7 222.2 253.4"/><polygon class="l" points="221.3 253.9 221.8 253.6 221.8 249.9 221.3 250.2 221.3 253.9"/><polygon class="l" points="220.3 254.4 220.9 254.1 220.9 250.5 220.3 250.8 220.3 254.4"/><polygon class="l" points="223.2 248.5 224.7 247.6 224.7 247 223.2 247.8 223.2 248.5"/><polygon class="g" points="222.2 249 222.8 248.7 222.8 248.1 222.2 248.4 222.2 249"/><polygon class="m" points="221.3 249.6 221.8 249.3 221.8 248.6 221.3 248.9 221.3 249.6"/><polygon class="n" points="220.3 250.1 220.9 249.8 220.9 249.1 220.3 249.5 220.3 250.1"/><path class="l" d="M220.6,239.5l3.8-2.2c.2,0,.3,0,.3.2v8.4a.5.5,0,0,1-.3.5l-3.8,2.1c-.1.1-.3.1-.3-.1V240A.9.9,0,0,1,220.6,239.5Z"/><path class="o" d="M221.8,255.8c0,.4.3.6.7.4a1.5,1.5,0,0,0,.7-1.2c0-.4-.3-.6-.7-.4A1.7,1.7,0,0,0,221.8,255.8Z"/><polygon class="l" points="223.3 236.9 225.3 235.7 225.3 236.2 223.3 237.3 223.3 236.9"/><polygon class="l" points="219.7 238.9 221.7 237.8 221.7 238.3 219.7 239.4 219.7 238.9"/><polygon class="m" points="215.5 241.4 217.4 240.3 217.4 240.8 215.5 241.9 215.5 241.4"/><polygon class="k" points="213.7 263.4 219.2 260.2 219.2 239.7 213.7 242.9 213.7 263.4"/><path class="g" d="M215.2,259.6c0,.9.6,1.2,1.3.8a2.7,2.7,0,0,0,1.2-2.2c0-.9-.5-1.2-1.2-.8A2.9,2.9,0,0,0,215.2,259.6Z"/><polygon class="l" points="218.1 255.8 218.6 255.4 218.6 251.8 218.1 252.1 218.1 255.8"/><polygon class="l" points="217.1 256.3 217.7 256 217.7 252.3 217.1 252.6 217.1 256.3"/><polygon class="l" points="216.2 256.8 216.7 256.5 216.7 252.9 216.2 253.2 216.2 256.8"/><polygon class="l" points="215.2 257.4 215.8 257.1 215.8 253.4 215.2 253.7 215.2 257.4"/><polygon class="l" points="214.3 257.9 214.9 257.6 214.9 254 214.3 254.3 214.3 257.9"/><polygon class="l" points="217.1 252 218.6 251.1 218.6 250.5 217.1 251.3 217.1 252"/><polygon class="g" points="216.2 252.5 216.7 252.2 216.7 251.5 216.2 251.9 216.2 252.5"/><polygon class="m" points="215.2 253.1 215.8 252.8 215.8 252.1 215.2 252.4 215.2 253.1"/><polygon class="n" points="214.3 253.6 214.9 253.3 214.9 252.6 214.3 253 214.3 253.6"/><path class="l" d="M214.6,243l3.7-2.2c.2-.1.3,0,.3.2v8.4a.7.7,0,0,1-.3.5l-3.7,2.1c-.2.1-.3.1-.3-.1v-8.4A.5.5,0,0,1,214.6,243Z"/><path class="o" d="M215.8,259.3c0,.4.3.6.7.4a1.7,1.7,0,0,0,.6-1.2c0-.4-.3-.6-.6-.4A1.5,1.5,0,0,0,215.8,259.3Z"/><polygon class="l" points="217.3 240.4 219.2 239.2 219.2 239.7 217.3 240.8 217.3 240.4"/><polygon class="l" points="213.7 242.4 215.6 241.3 215.6 241.8 213.7 242.9 213.7 242.4"/><polygon class="p" points="237.4 226.4 247.5 220.6 247.5 217.8 237.4 223.7 237.4 226.4"/><polygon class="f" points="214.7 239.5 215.5 239 215.5 236.3 214.7 236.8 214.7 239.5"/><polygon class="f" points="216.3 238.5 217.2 238.1 217.2 235.3 216.3 235.8 216.3 238.5"/><polygon class="m" points="253.6 219.5 255.6 218.4 255.6 218.6 253.6 219.7 253.6 219.5"/><polygon class="l" points="255.4 218.4 257.4 217.3 257.4 217.6 255.4 218.7 255.4 218.4"/><polygon class="l" points="251.8 220.5 253.8 219.4 253.8 219.6 251.8 220.8 251.8 220.5"/><polygon class="m" points="253.6 220.5 255.6 219.3 255.6 219.6 253.6 220.7 253.6 220.5"/><polygon class="l" points="255.4 219.4 257.4 218.3 257.4 218.5 255.4 219.7 255.4 219.4"/><polygon class="l" points="251.8 221.5 253.8 220.4 253.8 220.6 251.8 221.7 251.8 221.5"/><polygon class="m" points="253.6 221.4 255.6 220.3 255.6 220.6 253.6 221.7 253.6 221.4"/><polygon class="l" points="255.4 220.4 257.4 219.3 257.4 219.5 255.4 220.6 255.4 220.4"/><polygon class="l" points="251.8 222.5 253.8 221.4 253.8 221.6 251.8 222.7 251.8 222.5"/><path class="k" d="M252.6,235.8l3.9-2.2a1.1,1.1,0,0,0,.3-.6v-1.6c0-.2-.2-.3-.3-.2l-3.9,2.3a.8.8,0,0,0-.4.6v1.5C252.2,235.8,252.4,235.9,252.6,235.8Z"/><path class="l" d="M252.6,239.4l3.9-2.2a1.5,1.5,0,0,0,.3-.7V235c0-.2-.2-.3-.3-.2l-3.9,2.2a.8.8,0,0,0-.4.6v1.6C252.2,239.4,252.4,239.5,252.6,239.4Z"/><polygon class="g" points="251.1 216.6 258 212.7 258 211.8 251.1 215.7 251.1 216.6"/><path class="q" d="M180.5,224.2v21c0,.4.1.8.4.9l32,18.5a1.9,1.9,0,0,1-.4-.9v-21Z"/><g class="r"><path class="l" d="M249.5,208.1l-13.9,8a3.2,3.2,0,0,1-3,0l-6.4-3.6a1,1,0,0,1,0-1.8l14-8a3.2,3.2,0,0,1,3,0l6.3,3.6C250.4,206.8,250.4,207.6,249.5,208.1Z"/></g><g class="r"><path class="l" d="M236.3,200.3l-14,8.1a3.9,3.9,0,0,1-3,0l-6.3-3.7c-.8-.5-.8-1.3,0-1.7l13.9-8.1a3.2,3.2,0,0,1,3,0l6.4,3.7C237.1,199,237.1,199.8,236.3,200.3Z"/></g><g class="r"><path class="l" d="M227.2,220.9l-14,8.1a3.9,3.9,0,0,1-3,0l-6.3-3.7c-.8-.5-.8-1.2,0-1.7l14-8.1a3.2,3.2,0,0,1,3,0l6.3,3.7C228,219.7,228,220.4,227.2,220.9Z"/></g><g class="r"><path class="l" d="M213.9,213.1,200,221.2a3.2,3.2,0,0,1-3,0l-6.4-3.7c-.8-.4-.8-1.2,0-1.7l14-8a3.2,3.2,0,0,1,3,0l6.3,3.6C214.8,211.9,214.8,212.7,213.9,213.1Z"/></g><path class="i" d="M190.6,257a6.9,6.9,0,0,0,2,2.5,7.8,7.8,0,0,0,2,1.1l5.5,2.3,1.7.6a6.1,6.1,0,0,0,4-.3,1.4,1.4,0,0,0,1-.7v-.6c-.2-1-1.3-1.6-2.1-2.2a12.7,12.7,0,0,1-3.5-4.4c-1-1.6-1.7-3.4-2.7-5a8.1,8.1,0,0,0,2.4,3.3,3.7,3.7,0,0,0,3.9.7l.3-.2c0-.1.1-.2.1-.4a2.8,2.8,0,0,0-1-2c-.4-.4-1-.6-1.4-1a7.5,7.5,0,0,1-1.3-1.8c-1.5-2.6-5-4.3-7.7-5.6s-8,4.3-6.7,8.1C187.8,253.3,189.5,255.3,190.6,257Z"/><path class="s" d="M186.1,251.1c4.4,1.6,7.3-2.9,7.3-8.3-7.3-12.2-15.2-21.3-20.2-28.1,1.5-7.1,1-20.8.9-31.6.1-14.8-10.6-24.3-16.5-16.3-5.8,17.1-5.7,36.3-1.5,57C160.9,236.1,172.5,243.2,186.1,251.1Z"/><path class="c" d="M186.1,251.2c4.4,1.6,7.3-2.9,7.3-8.3-7.3-12.2-15.2-21.2-20.2-28,1.5-7.2,1-20.9.9-31.7.1-14.8-10.6-24.3-16.5-16.3-5.8,17.1-5.7,36.3-1.5,57C160.9,236.2,172.5,243.3,186.1,251.2Z"/></svg>