<svg xmlns="http://www.w3.org/2000/svg" xmlns:xlink="http://www.w3.org/1999/xlink" viewBox="0 0 400 400"><defs><style>.a{isolation:isolate;}.b{fill:url(#a);}.c{fill:url(#b);}.d{fill:url(#c);}.e{fill:url(#d);}.f{fill:url(#e);}.g{fill:url(#f);}.h{fill:url(#g);}.i{fill:url(#h);}.j{fill:url(#i);}.k{fill:#0068ff;}.l{fill:#0e71bb;}.m{fill:#f59b6b;}.n{fill:#f7fafb;}.o,.p{fill:#f5b39a;}.o,.t,.u{opacity:0.5;}.o,.p,.t,.u{mix-blend-mode:multiply;}.p{opacity:0.3;}.q{fill:#ffe7cb;}.r{opacity:0.25;mix-blend-mode:overlay;}.s{fill:url(#j);}.t{fill:#efa68d;}.u{fill:#8ecbe1;}.v{fill:url(#k);}.w{fill:#e9a38e;}.x{fill:#004cc0;}.y{fill:url(#l);}.z{fill:url(#m);}.aa{fill:url(#n);}.ab{fill:#333;}.ac{fill:#fff;}.ad{fill:#c0c2c1;}.ae{fill:#e6e6e6;}.af{fill:#000100;}.ag{fill:#fe9a0f;}.ah{fill:#e2810c;}.ai{fill:#dd7f10;}.aj{fill:#ae4e32;}.ak{fill:#9e402b;}.al{fill:#fe9b0e;}.am{fill:#eeac1f;}.an{fill:#fcda00;}.ao{fill:#db9927;}.ap{fill:#efaa1e;}</style><linearGradient id="a" x1="218.83" y1="315.72" x2="177.44" y2="80.96" gradientUnits="userSpaceOnUse"><stop offset="0" stop-color="#c6e6ff"/><stop offset="1" stop-color="#fff"/></linearGradient><linearGradient id="b" x1="286.31" y1="275.31" x2="274.03" y2="275.31" gradientUnits="userSpaceOnUse"><stop offset="0" stop-color="#419ee3"/><stop offset="1" stop-color="#0d79c9"/></linearGradient><linearGradient id="c" x1="274.03" y1="275.28" x2="285.06" y2="275.28" xlink:href="#b"/><linearGradient id="d" x1="296.51" y1="270.73" x2="287.57" y2="270.73" xlink:href="#b"/><linearGradient id="e" x1="287.57" y1="270.73" x2="294.22" y2="270.73" xlink:href="#b"/><linearGradient id="f" x1="299.84" y1="279" x2="289.18" y2="279" xlink:href="#b"/><linearGradient id="g" x1="289.18" y1="279.01" x2="299.83" y2="279.01" xlink:href="#b"/><linearGradient id="h" x1="290.6" y1="267.86" x2="282.96" y2="267.86" xlink:href="#b"/><linearGradient id="i" x1="282.96" y1="267.42" x2="286.71" y2="267.42" xlink:href="#b"/><linearGradient id="j" x1="199.39" y1="198.22" x2="225.2" y2="232.25" gradientUnits="userSpaceOnUse"><stop offset="0" stop-color="#fff" stop-opacity="0"/><stop offset="0.43" stop-color="#fbffff" stop-opacity="0.01"/><stop offset="0.58" stop-color="#eefeff" stop-opacity="0.03"/><stop offset="0.69" stop-color="#d6fcff" stop-opacity="0.08"/><stop offset="0.78" stop-color="#b4faff" stop-opacity="0.15"/><stop offset="0.86" stop-color="#88f7ff" stop-opacity="0.23"/><stop offset="0.93" stop-color="#52f3ff" stop-opacity="0.34"/><stop offset="0.98" stop-color="#13efff" stop-opacity="0.46"/><stop offset="1" stop-color="#0ef" stop-opacity="0.5"/></linearGradient><linearGradient id="k" x1="207.43" y1="231.41" x2="237.93" y2="231.41" xlink:href="#b"/><linearGradient id="l" x1="247.4" y1="292.1" x2="271.74" y2="292.1" gradientUnits="userSpaceOnUse"><stop offset="0" stop-color="#44989f"/><stop offset="0.21" stop-color="#39b0b4"/><stop offset="0.52" stop-color="#2ccbcd"/><stop offset="0.8" stop-color="#24dcdd"/><stop offset="1" stop-color="#21e2e2"/></linearGradient><linearGradient id="m" x1="276.6" y1="292.89" x2="299.23" y2="292.89" gradientUnits="userSpaceOnUse"><stop offset="0" stop-color="#ffbc98"/><stop offset="1" stop-color="#ff9f6c"/></linearGradient><linearGradient id="n" x1="299.23" y1="292.89" x2="279.2" y2="292.89" gradientUnits="userSpaceOnUse"><stop offset="0" stop-color="#ffbc98"/><stop offset="0.31" stop-color="#ffb994"/><stop offset="0.6" stop-color="#ffb289"/><stop offset="0.89" stop-color="#ffa575"/><stop offset="1" stop-color="#ff9f6c"/></linearGradient></defs><title>buy-advantage-linux-dedicated-servers</title><g class="a"><path class="b" d="M28.6,208.7c9.3,6.2,20.5,10.3,30.9,15.4s20.4,12.7,17.7,21.6c-2.1,6.8-10.8,10.6-17.6,15.2C44.5,271,37.9,288.1,42.2,303.2c14.6-.3,29.1-.5,43.7-.3,29.1.5,58.1,1.8,87.1,2.7s58.7,1.1,88,1.2h8.4a5.7,5.7,0,0,1-.3-1.8c0-8.8,16-15.8,22.4-18.7a117.7,117.7,0,0,1,30.1-8.6c17-2.8,35.1-.8,51.4-7.2,9.2-3.6,17.6-11.9,17.4-21.8s-7.8-17.2-14.4-23.1c-2.2-2.1-4.4-4-6.5-5.7-10.7-9.2-21-20.5-25-34.5-4.5-15.7-3.3-32.7-7.3-48.5-10.1-40.3-52.6-61.2-90.6-64.3A112.7,112.7,0,0,0,183,86a98.2,98.2,0,0,0-25.3,19.6c-7.7,8.2-14.8,16.9-24.5,22.8-20.1,12.3-47.2,12.2-70.5,18.1-20.2,5.1-48.7,18.6-50.2,37.1,0,.2-.1.3-.1.5C11.9,193.7,19.3,202.5,28.6,208.7Z"/><path class="c" d="M286,284.1c-.5-.4-1.3.2-4.4-1.3s-7.6-16.1-7.6-16.1c6.4-1.9,7.4,12.4,10.1,14.6a6.6,6.6,0,0,1,2.2,2.8"/><path class="d" d="M285.1,283.9a9.7,9.7,0,0,1-3.5-1.1c-4.5-2.3-7.6-16.1-7.6-16.1s.7-.1,2.4,3.9,4,10,6.8,11.7a7.7,7.7,0,0,1,1.9,1.6"/><path class="e" d="M287.9,284.3c-.5-1.1-.6-3.3.9-7.3,2.8-7.4,4.2-17,2.3-19.9,0,0,6.7,5.8,5.2,11.7s-8.7,9.4-7.7,15.5"/><path class="f" d="M287.9,284.3c-.5-1.1-.6-3.3.9-7.3,2.8-7.4,4.2-17,2.3-19.9,0,0,4.4,5.9,2.7,11.6s-6.8,8.5-5.5,15.6"/><path class="g" d="M289.2,285.1c.6-2.2,1-4.6,2.4-6.4s8-5.4,8.2-5.8-2.6,7.8-5.8,9.4a10.2,10.2,0,0,0-4,2.8"/><path class="h" d="M289.2,285.1c.6-2.2,1-4.6,2.4-6.4s8-5.4,8.2-5.8-3.1,4.6-6.5,6.7a7.9,7.9,0,0,0-3.4,4.9"/><path class="i" d="M286.8,284.3c-1.7-2.6-4.3-7.6-3.8-13.5.7-8.6,1.5-19.4,1.5-19.4s9.5,8.6,4.8,18.1a24,24,0,0,0-2.7,11.3,13.4,13.4,0,0,0,.7,3.5"/><path class="j" d="M286.2,264.9c-1,7.2-1,15.1.5,18.5l-.9-.7a21.8,21.8,0,0,1-2.8-11.9c.7-8.6,1.5-19.4,1.5-19.4S287.4,255.7,286.2,264.9Z"/><polygon class="k" points="176.5 182.5 168.1 168.7 178.3 169.2 176.5 182.5"/><path class="l" d="M218.3,150.9s1.9,18.6-5.7,20.8-4.6-17.9-4.6-17.9"/><polygon class="m" points="150.8 204.9 228.4 204.6 233.6 246.8 215.7 306.2 152.8 307.6 150.8 204.9"/><path class="m" d="M256.5,290.8c-.6,3.3-9.6,13-21.8,4.9a43,43,0,0,1-9.4-9.6c-1.4-1.8,1.7-3,4.5-4.2s3.7-1.8,3.7-3a3.1,3.1,0,0,0-.2-.8,8.3,8.3,0,0,1-1.2-3.1c-2.2-7.8-1.4-29.8-5.8-44.4a68.1,68.1,0,0,0-14.9-25.9l9.8-2a16.5,16.5,0,0,1,2.1-.2,44.2,44.2,0,0,1,10.3.1,13.7,13.7,0,0,1,7.2,2.8,15.1,15.1,0,0,1,5.3,8c2.1,6.3,2.5,13,3.9,19.4l.9,3.7h0c3.1,10.7,5.9,23.2,6.6,32.3A88,88,0,0,1,256.5,290.8Z"/><path class="n" d="M237.1,297.1c5.5,2.7,10.3,1.9,13.7,0Z"/><path class="o" d="M250.2,281.6h-.1l-9.3,4.6-9.2-.8a23.1,23.1,0,0,1-1.8-3.5,25.9,25.9,0,0,1-1.4-2.9h5.1a3.1,3.1,0,0,0-.2-.8,8.3,8.3,0,0,1-1.2-3.1A68,68,0,0,1,250.2,281.6Z"/><path class="o" d="M220.5,251.4l-4.2-3.4-3-6.7c-.9-2.7-6.7-4.9-7.8-3.9s-5.3,8.1-7.2,10.6a34.7,34.7,0,0,1-4.3,4.2c-3.4,2-7.1,3.3-10.6,5.2s-16,6-22.5,8.6a2.1,2.1,0,0,1-2.8-2c0-7.2.1-24.7-.3-33.8a68.7,68.7,0,0,1,3.2-24l-8.4-1.2a24.3,24.3,0,0,0-4.7-.2c-4.8.2-9.4.6-13,4.8-5.2,6.1-1.8,23.2-2.2,30.5-.5,10.9-.2,24.1,0,33.2.3,11.9,8.2,22.4,8.7,23.2,1.4,2.4,3.8,6.7,9.5,5.1a21.9,21.9,0,0,0,7.5-4.4c2.3-1.9-.5-13.1-1.7-18.5-.1-.2-.1-.4-.2-.6l5.4-2.7c0-.4.1-.9.1-1.3l12.3,21.1c9.6-5.9,15.4-17.2,21.1-23.8a21.7,21.7,0,0,1,10.5-6.7l.7-.3c6.3-2,10.1-3.7,11.9-5.1a53,53,0,0,0,4.9-4.1C224.6,254.1,220.5,251.4,220.5,251.4Z"/><path class="p" d="M222.1,300.6c-22.6,1.4-50-2.7-50.4-2.7l.2-9.4c14.5-1.1,36.9-10,42.5-10.6l6.2-.6h7.8c5.2.1,11.8.6,16.7,2.7s6,3.7,6.4,7.1C252.6,294.7,238.7,299.5,222.1,300.6Z"/><path class="m" d="M227.2,302.5c-22.6,1.4-50-2.7-50.5-2.7l.3-12.5c14.6-1.1,36.8-7,42.5-7.5l6.2-.6h7.8c5.1.1,11.8.6,16.6,2.7s6,3.7,6.5,7.1C257.7,296.6,243.7,301.4,227.2,302.5Z"/><path class="q" d="M182.7,300.5a37.6,37.6,0,0,0-10.3.5c-12.2,3-16,2.1-17.3,2.3s-2.5.8-4-.3-.5-3.2-.5-3.2h-.2a2.6,2.6,0,0,1-1.1-1.7,2.9,2.9,0,0,1,.2-2.1s-1.6-1.4-1.8-2.3a5.6,5.6,0,0,1,.2-2.2s-1.4-1.5-1.3-2.5,1.8-2.6,4.6-3.6h-.1c-2.4.5-3.3-1-2.9-1.8s6.1-3.9,7.8-3.7,10.4,3.8,14,4.8,5.3,2.4,9.5,2.4h.2Z"/><path class="m" d="M157.1,297.2a21.1,21.1,0,0,1-7.5,4.4c-5.6,1.6-8.1-2.7-9.5-5.1-.5-.8-8.3-11.3-8.6-23.2-.3-9.1-.6-22.3,0-33.2.3-7.3-3-24.4,2.2-30.5,3.5-4.2,8.3-5.1,13.1-5.2a24.2,24.2,0,0,1,4.6.6l8.4,1.2a68.7,68.7,0,0,0-3.2,24c.4,11.8.4,27.8.2,37.4-.1,1.6-.1,3.1-.2,4.5s-1.5,2.5-1.7,3.7a9,9,0,0,0,.5,2.9C156.6,284.1,159.4,295.3,157.1,297.2Z"/><path class="q" d="M211.9,207.1s-.2,19.9-18.7,21.7c-28.3,2.3-33.4-22.6-33.4-22.6s10.6-1.9,14.4-9.7c1.5-3,2.1-7.7,2.2-12.2.1-1.4.1-2.7.1-4-.1-5.6-.6-10.2-.6-10.2l12.6,9.1,16.4,11.9s-.6,4.5-.8,8.4a7.4,7.4,0,0,0,6.4,7.6h1.4Z"/><path class="r" d="M210.5,207.1a14,14,0,0,1-2,4.3c-1.8,2.7-4.5,4.6-7.2,6.4l-.2.2c-.4.1-.7-.4-.8-.8-.9-2.5-1.5-5.2-3.1-7.5s-5.9-5-9-7.4a26.9,26.9,0,0,1-9.6-14,23.4,23.4,0,0,1-.9-4.6,21.7,21.7,0,0,1-.4-2.5c0-.3-.2-.8,0-1.2h0a41.7,41.7,0,0,1,11.2-.8l16.4,11.9s-.6,4.5-.8,8.4A7.4,7.4,0,0,0,210.5,207.1Z"/><path class="m" d="M143,204.8s11.4,7.4,12.3,16.6c1.3,12.6,3.4,28.4,2.9,31.7,13.8,3.2,71.8,3,71.8,3s-11.5-44.4-6.1-53.7l-19.2.2s3.4,16.2-16.2,17.5h-1.3c-6.4-.1-14.2-.9-19.6-16.8C151.4,203.5,143,204.8,143,204.8Z"/><path class="q" d="M213.4,175c-.9,8.6-2.7,11.5-6,16.6s-7.3,9.8-13.6,9.8c-9.1,0-17.9-12.4-17.9-30.9s8.5-32.4,20.3-32.4S216.4,147.2,213.4,175Z"/><polygon class="s" points="236.9 213.9 225.7 193.6 194.2 211.7 208.4 249.4 236.9 213.9"/><path class="t" d="M180,287a75.6,75.6,0,0,1-9.9,5.6c-4.6,2.2-14.4,7.8-19.8,8.9-.3-.2,4.1-2.5,3.9-3.5a2.9,2.9,0,0,1,.2-2.1,7.4,7.4,0,0,1-1.5-2.3,5.6,5.6,0,0,1,.2-2.2s-1.3-1.5-1.2-2.5,1.6-2.6,4-3.6h-.2c-2,.5-2.7-1-2.4-1.8s5.2-3.9,6.6-3.7,8.9,3.8,12,4.8S176.4,287,180,287Z"/><path class="m" d="M201.4,262.1c-.1,0-1.8,2.3-4.7,5.5l-2,2.2c-5.9,6.5-15,15.5-24.6,21.1-6.5,3.7-14.4,9.4-20.5,10.7s-8.9-1.3-9.1-11c0-3.5-1.1-6.1.4-9l.7-1.1a9.1,9.1,0,0,1,1.7-1.7l1.6-1.3c2.6-1.7,5.3-3,8-4.5l2.5-1.3c1.9-1,3.8-2,5.8-2.9l8.6-4.4,13.6-6.8,3.2-1.6,2.7-1.4,4.9-2.6Z"/><path class="o" d="M222.8,251.5H212.4a3.1,3.1,0,0,1-2.9-4.2l12-30.5a4,4,0,0,1,3.6-2.4h11.7a3.1,3.1,0,0,1,2.9,4.3l-11.4,29A5.8,5.8,0,0,1,222.8,251.5Z"/><path class="l" d="M220.9,250.2H210.5a3.1,3.1,0,0,1-2.9-4.2l12-30.4a3.9,3.9,0,0,1,3.6-2.5h11.7a3.1,3.1,0,0,1,2.9,4.3l-11.4,29.1A5.9,5.9,0,0,1,220.9,250.2Z"/><path class="o" d="M235.6,235.6l-.3-.4c-1-.6-11.6,2.7-11.6,2.7l-10.2,3.5,3,7,.6-.4a28.9,28.9,0,0,0-.4,5.2c1-.2-.2,3.3.8,2.9h5s6.7-5.2,8.9-8.3a3.7,3.7,0,0,0,.6-2.1h0a1,1,0,0,0-.4-.7l1.1-.8a4.8,4.8,0,0,0,1.4-3.4.7.7,0,0,0-.5-.9l1.5-1.2h0A2.6,2.6,0,0,0,235.6,235.6Zm-6,5.4,1.7-.3c-2.4,1.3-5.6,2.8-8.4,4Z"/><path class="u" d="M219.8,236.2a60.3,60.3,0,0,1,6.6-1.3c4.5-.9,5-2.9,4.8-4.1a1,1,0,0,0-1-.9l-11.2.7a3.4,3.4,0,0,0-1.7.5l-10.5,5.4,7.2,4.2Z"/><path class="v" d="M208.9,247.7l12-30.4a3.7,3.7,0,0,1,3.5-2.4h11.8a3.4,3.4,0,0,1,1.7.5,3,3,0,0,0-3-2.3H223.2a3.9,3.9,0,0,0-3.6,2.5l-12,30.4a3.3,3.3,0,0,0,1.2,3.7A3.5,3.5,0,0,1,208.9,247.7Z"/><path class="q" d="M213.6,240.1c-.8-2.8-6.6-5.1-7.7-4.2s-5.5,8-7.5,10.5-2.6,4.6-5.6,6.5l5.1,12.8c1.6-1.3,5.4-1.8,8.4-2.7,6.3-1.8,10.2-3.4,12-4.7l5-4c1.2-1.1-2.8-4-2.8-4l-4.1-3.5Z"/><path class="q" d="M205.9,235.9l10.4-5.4a6.1,6.1,0,0,1,1.8-.5l11.2-.6a.9.9,0,0,1,1,.8c.1,1.2-.3,3.3-4.8,4.1-2.7.4-6.6,1.3-6.6,1.3l-5.9,4.5Z"/><path class="q" d="M221.1,256.1s6.4-4.9,8.6-8a3.6,3.6,0,0,0,.6-2h0a.8.8,0,0,0-1.2-.7l-11.4,6.8Z"/><path class="w" d="M216.2,253.1s9.3-2,13.5-7.5c.1-.4.1-.8.2-1.1a.8.8,0,0,0-1.1-.8l-12.5,4.6Z"/><path class="q" d="M216.2,247.2s10.3-4.3,14.9-7.1c1-.6,2.2-.3,1.9.7a4.8,4.8,0,0,1-1.4,3.4c-.8.5-9.1,7.3-16,9A36.7,36.7,0,0,1,216.2,247.2Z"/><path class="q" d="M213,240.1l10.2-3.6s10.6-3.2,11.6-2.7l.3.5a2.6,2.6,0,0,1-.5,3.1h0a7.1,7.1,0,0,1-3.5,1.9l-2,.4L216,247.1Z"/><path class="l" d="M220.6,150.3c-2.8,3.2-6.7,4.9-11.1,5.6-12.4,2.3-27.8-3.4-27.8-3.4l6.5-15.1s14-11.7,14.2-11.6c8.6,4.5,17.5-2.6,17.5-2.6s4.9,6.2,5.4,13.9A17.4,17.4,0,0,1,220.6,150.3Z"/><path class="l" d="M168.8,169.7a9.8,9.8,0,0,0,1.3,2.2c.6.5,1.8,2,2.5,2.1s3.2-1.9,3.4-1a8.7,8.7,0,0,0,.9,1.1l.5.5a.9.9,0,0,0,.5.3s-.3-4.9-.3-5.3c-.1-5.3.7-10.5,4.6-14.4a4.5,4.5,0,0,1,1.7-1.1,8.5,8.5,0,0,1,2.2.4l5.2,1.1a54.1,54.1,0,0,0,14.5.6c3.5-.3,12.8-23.9,9.4-24.3s-4.7-1.9-6.9-2.9a57,57,0,0,1-5.9-3.2,19.3,19.3,0,0,0-12.5-1.4,41.1,41.1,0,0,0-8.6,3.6c-2.8,1.5-5.9,5.1-6.3,8.3a13.9,13.9,0,0,0-10.5,9.1,26.7,26.7,0,0,0-.7,10.9,29.4,29.4,0,0,0,1.9,7.2A25.7,25.7,0,0,0,168.8,169.7Z"/><path class="q" d="M175.6,167.2s-5.2-4-7.6.1,1.6,11.9,8.3,10.4"/><rect class="x" y="302" width="393.3" height="7.37"/><path class="y" d="M252.2,296a18.3,18.3,0,0,0,2.6,1.6l.4,3.1,1.6,1.2h10.9l1.6-1.2,2.4-18.4H252.8l.3,2.2a6.2,6.2,0,0,0-3,.2,4,4,0,0,0-2.3,2.3C246.2,291.1,249.3,293.8,252.2,296Zm-3.1-8.5a2.2,2.2,0,0,1,1.5-1.5,3.9,3.9,0,0,1,2.6,0l1.3,9.9-1.5-1C249.7,292.4,248,290.4,249.1,287.5Z"/><path class="r" d="M252.8,282.3l2.4,18.4,1.6,1.2h10.9s-10.7-3.7-11.1-19.6Z"/><path class="z" d="M276.6,283.8l2,15.2a3.3,3.3,0,0,0,3,2.9h12.7a3.2,3.2,0,0,0,2.9-2.9l2-15.2Z"/><path class="aa" d="M297.2,283.8l-1.9,13.9a3.2,3.2,0,0,1-2.9,2.9H279.2a3.2,3.2,0,0,0,2.4,1.4h12.7a3.2,3.2,0,0,0,2.9-2.9l2-15.2Z"/><path class="ab" d="M355,264.7a16,16,0,0,1-4.9-14.6,16.9,16.9,0,0,0,.1-2.3,11.6,11.6,0,0,0-23.2.6,13.3,13.3,0,0,0,.3,2.8,15.5,15.5,0,0,1-3.7,14.8,22.4,22.4,0,0,0-6.1,15.2c0,13.5,5.3,20,12.8,22a19.8,19.8,0,0,1,7.1-1.2,18.4,18.4,0,0,1,6.7,1.1c9.3-1.8,13.7-6.4,16.8-16.8C363.4,278,359.6,268.8,355,264.7Z"/><path d="M355,264.7a16,16,0,0,1-4.9-14.6,16.9,16.9,0,0,0,.1-2.3,11.6,11.6,0,0,0-11.3-11,7.5,7.5,0,0,0-1.5,0V302a16.8,16.8,0,0,1,7.5,1.5c8.8-1.4,13-7.1,16-17.2C363.4,278,359.6,268.8,355,264.7Z"/><path class="ac" d="M322.4,283.9c0-8.8,7.1-29.2,15.8-29.2S354,275.2,354,283.9a15.8,15.8,0,0,1-31.6,0Z"/><path class="ad" d="M338.2,254.7h-.8v44.9h.8A15.8,15.8,0,0,0,354,283.9C354,275.2,346.9,254.7,338.2,254.7Z"/><ellipse class="ae" cx="332.4" cy="250.2" rx="2.6" ry="3.5"/><ellipse class="af" cx="332.4" cy="251" rx="1.3" ry="2.3"/><ellipse class="ae" cx="341.6" cy="250.2" rx="2.6" ry="3.5"/><ellipse class="af" cx="341.6" cy="251" rx="1.3" ry="2.3"/><path class="ag" d="M345.1,256.2c.9,1.9-5.6,5.3-7.8,5.3s-8.7-4.2-7.9-5.3,4.8-5.3,7.5-5.3S344.6,255,345.1,256.2Z"/><path class="ah" d="M345.1,256.2c-.5-1.1-5.5-4.7-7.7-5.2v10.5C339.7,261.4,346,258,345.1,256.2Z"/><path class="ai" d="M355,284.5c1.1,2.2,2.8,4.3,5,4.8a3.7,3.7,0,0,1,3,3.4,1.3,1.3,0,0,1,.1.6,10.5,10.5,0,0,0,1.8,4,2.8,2.8,0,0,1-1.7,4.5L346.7,305a4.3,4.3,0,0,1-4.4-6.4l9.1-14.3A2.1,2.1,0,0,1,355,284.5Z"/><path class="aj" d="M337.2,260.5c-2.3,0-4.7-1.2-7.1-3.5l.8-.8c2.4,2.3,4.7,3.3,7,3.1a8.1,8.1,0,0,0,4.9-3l1,.6a8.6,8.6,0,0,1-5.8,3.5Z"/><path class="ak" d="M337.9,259.3h-.5v1.2h.6a8.6,8.6,0,0,0,5.8-3.5l-1-.6A8.1,8.1,0,0,1,337.9,259.3Z"/><circle cx="357.2" cy="287" r="5.3"/><path class="ab" d="M321.4,281.2s5.7,6.9,9.7,8.5-1.9,6-7.4,2.6S321.4,281.2,321.4,281.2Z"/><path class="al" d="M318.4,284.5c-1.2,2.2-2.9,4.3-5.1,4.8a3.8,3.8,0,0,0-3,3.4c0,.2-.1.4-.1.6a9.1,9.1,0,0,1-1.8,4,2.8,2.8,0,0,0,1.7,4.5l16.6,3.2a4.3,4.3,0,0,0,4.4-6.4l-9.2-14.3A2,2,0,0,0,318.4,284.5Z"/><path class="am" d="M31.9,299.4c0,4.1,16.2,7.4,36.2,7.4s36.2-3.3,36.2-7.4v-6.6H31.9Z"/><path class="an" d="M104.3,292.8c0,4.1-16.2,7.4-36.2,7.4s-36.2-3.3-36.2-7.4,16.2-7.3,36.2-7.3S104.3,288.8,104.3,292.8Z"/><path class="ao" d="M68.1,299.3h-.6c-.1,0-.1,0-.1-.1h1.4c0,.1,0,.1-.1.1Zm-1.9,0H65a.1.1,0,0,1-.1-.1h1.5C66.4,299.3,66.3,299.3,66.2,299.3Zm3.7,0a.1.1,0,0,1-.1-.1h1.5a.1.1,0,0,1-.1.1Zm-6.1,0H62.6l-.2-.2h1.5A.1.1,0,0,1,63.8,299.3Zm8.6,0a.1.1,0,0,1-.1-.1h1.3a.1.1,0,0,1,.1.1c0,.1,0,.2-.1.2Zm-11.1-.1H60.1c-.1,0-.1-.1-.1-.2a.1.1,0,0,1,.1-.1h1.2c.1,0,.2,0,.2.1Zm13.5,0h-.1a.1.1,0,0,1,.1-.1h1.4a.3.3,0,0,1-.1.2H74.8Zm-15.9-.1H57.7c-.1,0-.2,0-.2-.1h1.4c.1,0,.1,0,.1.1A.1.1,0,0,1,58.9,299.1Zm18.4,0c-.1,0-.1,0-.1-.1s0-.1.1-.1h1.3c.1.1,0,.1-.1.1Zm-20.9-.2H55.2c-.1,0-.1,0-.1-.1h1.3Zm23.3,0h1.4c0,.1,0,.1-.1.1H79.7ZM54,298.7H52.8c-.1,0-.2,0-.2-.1H54a.1.1,0,0,1,.1.1Zm28.2,0h-.1a.1.1,0,0,1,.1-.1h1.2c.1,0,.1,0,.1.1s0,.1-.1.1Zm-30.7-.2H50.3c-.1-.1-.1-.1-.1-.2h.1l1.3.2h.1C51.7,298.5,51.6,298.5,51.5,298.5Zm33.1,0h0l1.2-.2H86a.1.1,0,0,1-.1.1l-1.2.2Zm-35.5-.3h0l-1.2-.2c-.1,0-.1,0-.1-.1h.1l1.2.2c.1,0,.1,0,.1.1Zm38,0h-.2c0-.1.1-.1.2-.1l1.2-.2h.1c0,.1,0,.1-.1.1l-1.2.2Zm-40.4-.4h0l-1.2-.2c-.1,0-.2,0-.1-.1s0-.1.1-.1l1.2.2h.1A.1.1,0,0,1,46.7,297.8Zm42.8,0c-.1,0-.1,0-.1-.1h.1l1.2-.2a.1.1,0,0,1,0,.2l-1.2.2Zm-45.2-.4h0l-1.2-.3c-.1,0-.2,0-.1-.1h.1l1.2.3a.1.1,0,0,1,.1.1Zm47.6,0h-.1c0-.1,0-.1.1-.1l1.2-.3a.1.1,0,0,1,.1.1c0,.1,0,.1-.1.1l-1.2.3Zm-50-.5h0l-1.2-.3c-.1-.1-.1-.1-.1-.2h.2l1.1.4c.1,0,.1,0,.1.1Zm52.4,0h-.1c-.1-.1,0-.1.1-.2l1.1-.3h.2c0,.1,0,.1-.1.1l-1.2.4Zm-54.7-.7h-.1l-1.1-.4c-.1,0-.1-.1-.1-.2h.2l1.1.4a.1.1,0,0,1,.1.1Zm57,0h-.1a.1.1,0,0,1,.1-.1l1.1-.4h.2c0,.1,0,.2-.1.2l-1.1.4Zm-59.3-.9h-.1l-1-.6c-.1,0-.1-.1,0-.1a.1.1,0,0,1,.1-.1l1.1.6v.2Zm61.6,0c-.1,0-.1,0-.1-.1s0-.1,0-.1l1-.6h.2v.2l-1.1.6ZM35.4,294a.1.1,0,0,1-.1-.1,2.4,2.4,0,0,1-.5-1h.3a1.2,1.2,0,0,0,.4.9v.2Zm65.4,0a.1.1,0,0,1-.1-.1s-.1-.1,0-.1a1.8,1.8,0,0,0,.4-1h0c0-.1,0-.1.1-.1h0a.1.1,0,0,1,.1.1h0a1.5,1.5,0,0,1-.4,1.1Zm-65.4-2h-.1c-.1-.1-.1-.2,0-.2a6,6,0,0,1,.8-.8h.2c.1.1.1.1,0,.2a2.9,2.9,0,0,0-.8.7Zm65.3-.1h-.1l-.8-.8c-.1,0-.1-.1,0-.1s.1-.1.1,0a3.5,3.5,0,0,1,.9.7c.1.1.1.1,0,.2Zm-63.4-1.3h-.2c0-.1,0-.2.1-.2l1.1-.5h.2a.1.1,0,0,1-.1.1l-1.1.5Zm61.5,0h0l-1.1-.5c-.1,0-.1-.1-.1-.2h.2l1.1.5s.1.1,0,.1S98.9,290.6,98.8,290.6Zm-59.3-.9h-.1c0-.1,0-.2.1-.2l1.1-.3h.2c0,.1,0,.1-.1.2l-1.2.3Zm57.1,0h-.1l-1.1-.4c-.1,0-.1,0-.1-.1h.1l1.2.4a.1.1,0,0,1,.1.1Zm-54.8-.6h-.1c0-.1,0-.1.1-.2l1.2-.2c.1-.1.1,0,.1,0a.1.1,0,0,1,0,.2l-1.2.3Zm52.4-.1h0l-1.2-.2v-.2h.2l1.2.3a.1.1,0,0,1,0,.2Zm-50-.5a.1.1,0,0,1-.1-.1h.1l1.2-.2h.1c.1,0,0,.1-.1.1l-1.2.2Zm47.6,0h0l-1.2-.2c-.1,0-.1-.1-.1-.2a.1.1,0,0,1,.2,0l1.2.2h-.1Zm-45.2-.4h-.1c0-.1,0-.1.1-.1l1.2-.2h.1l-1.2.2Zm42.8,0h0l-1.2-.2h-.1a.1.1,0,0,1,.1-.1l1.3.2a.1.1,0,0,1,.1.1Zm-40.3-.4H49l1.3-.2h.1c0,.1,0,.2-.1.2Zm37.9,0H85.8c-.1-.1-.1-.1-.1-.2h.1l1.2.2a.1.1,0,0,1,.1.1Zm-35.5-.3h-.1a.1.1,0,0,1,.1-.1h1.3a.1.1,0,0,1-.1.1Zm33.1,0h0a.1.1,0,0,1,.1.1Zm-30.7-.2h-.1c0-.1,0-.1.1-.1l1.2-.2h.2a.3.3,0,0,1-.1.2Zm28.2,0H80.9c-.1,0-.1-.1-.1-.2h1.3c.1.1.2.1.2.2ZM56.4,287a.1.1,0,0,1-.1-.1c-.1-.1,0-.1.1-.1h1.2c.1,0,.1,0,.1.1H56.4Zm23.3,0H78.3c0-.1.1-.1.2-.1h1.2v.2A.1.1,0,0,1,79.7,287Zm-20.9-.2a.1.1,0,0,1-.1-.1h1.5c0,.1-.1.1-.1.2Zm18.4,0H75.9a.1.1,0,0,1,.1-.1h1.4C77.4,286.8,77.3,286.8,77.2,286.8Zm-15.9-.1h-.1c0-.1,0-.1.1-.1h1.2a.1.1,0,0,1,.1.1c0,.1,0,.2-.1.2Zm13.5,0H73.6c-.1-.1-.2-.1-.2-.2h1.4c.1,0,.1,0,.1.1Zm-11.1-.1a.1.1,0,0,1-.1-.1H65a.1.1,0,0,1,.1.1H63.7Zm8.6,0H71.1a.1.1,0,0,1-.1-.1c0-.1,0-.1.1-.1h1.2c.1,0,.2,0,.2.1S72.4,286.6,72.3,286.6Zm-6.1,0a.1.1,0,0,1-.1-.1c0-.1,0-.1.1-.1h1.2c.1,0,.1.1.1.2a.1.1,0,0,1-.1.1Zm3.7,0H68.5a.3.3,0,0,1,.1-.2h1.3a.1.1,0,0,1,.1.1Z"/><ellipse class="am" cx="68.1" cy="292.8" rx="30.4" ry="5.3"/><path class="ao" d="M38.3,293.9c2.8-2.4,15.1-4.2,29.8-4.2s27,1.8,29.8,4.2a1.4,1.4,0,0,0,.6-1.1c0-2.9-13.6-5.3-30.4-5.3s-30.5,2.4-30.5,5.3A1.3,1.3,0,0,0,38.3,293.9Z"/><path class="ao" d="M58.3,295.7a5.8,5.8,0,0,1-2.6-1.1H53.9l-1.7-.2c-.5,0-.7-.2-.7-.3s.2-.3.7-.4h3.3a4.3,4.3,0,0,1,2.3-1.4h4l.8.3c0,.1-.1.1-.2.2l-.5.2a3.3,3.3,0,0,0-1.2.6.9.9,0,0,0-.3.6c0,.2.2.4.6.5a4.4,4.4,0,0,0,1.8.2H64l.8-.3.7-.5,1.3-.9a8,8,0,0,1,2.2-.5,19.2,19.2,0,0,1,3.9-.3,22.7,22.7,0,0,1,4.8.4,5.7,5.7,0,0,1,2.8,1.1H84c.4.1.7.2.7.4l-.7.3-1.8.2H80.6a5.4,5.4,0,0,1-2.2,1.1l-.9.2H74.4c-.5-.1-.8-.2-.8-.3h.2l.5-.3.6-.2.7-.4a.5.5,0,0,0,.2-.4c0-.2-.2-.4-.7-.5l-1.8-.2-1.7.2a3.8,3.8,0,0,0-1.1.8,5.7,5.7,0,0,1-1.3.8l-2.1.6a22.4,22.4,0,0,1-4,.2A32.3,32.3,0,0,1,58.3,295.7Z"/><path class="ao" d="M96.7,297.4V304l.7-.2v-6.6Z"/><path class="ao" d="M89.4,298.8v6.6h.8v-6.6Z"/><path class="ao" d="M82.2,299.6v6.6h.7v-6.6Z"/><path class="ao" d="M75,300.1v6.6h.7V300Z"/><path class="ao" d="M68.1,300.2h-.4v6.6h.7v-6.6Z"/><path class="ao" d="M60.5,300v6.6h.7v-6.6Z"/><path class="ao" d="M53.2,299.6v6.6h.7v-6.6Z"/><path class="ao" d="M46,298.7v6.6h.7v-6.6Z"/><path class="ao" d="M38.7,297.2v6.6l.8.2v-6.6Z"/><path class="am" d="M37.1,292.8c0,4.1,16.2,7.4,36.2,7.4s36.2-3.3,36.2-7.4v-6.6H37.1Z"/><ellipse class="an" cx="73.3" cy="286.2" rx="36.2" ry="7.4"/><path class="ao" d="M73.3,292.7h-.7c0-.1,0-.1.1-.1h1.2c.1,0,.2,0,.2.1h-.8Zm-1.8,0H70.1c0-.1.1-.1.2-.1h1.2c.1,0,.1,0,.1.1Zm3.7,0H75c0-.1.1-.1.2-.1h1.2c.1,0,.1,0,.1.1H75.2Zm-6.2,0H67.8c-.1,0-.1,0-.1-.1a.1.1,0,0,1,.1-.1H69a.2.2,0,0,1,.2.2Zm8.6,0h-.1a.3.3,0,0,1,.1-.2H79a.1.1,0,0,1-.1.1Zm-11-.1H65.3a.1.1,0,0,1-.1-.1h1.4a.1.1,0,0,1,.1.1Zm13.5,0a.1.1,0,0,1-.1-.1c0-.1,0-.1.1-.1h1.3c0,.1,0,.1-.1.1Zm-16-.1H62.8c0-.1,0-.1.1-.1h1.3A.1.1,0,0,1,64.1,292.5Zm18.4,0h-.1c0-.1.1-.1.1-.2h1.3a.1.1,0,0,1,.1.1H82.5Zm-20.8-.2H60.3c0-.1.1-.1.2-.1h1.3A.1.1,0,0,1,61.7,292.3Zm23.3,0c-.1,0-.1,0-.1-.1h1.3c.1,0,.1,0,.1.1H85Zm-25.8-.2H58a.1.1,0,0,1-.1-.1h1.3c.1,0,.2.1.1.1S59.3,292.1,59.2,292.1Zm28.2,0a.1.1,0,0,1-.1-.1h.1Zm-30.6-.2h0l-1.3-.2h1.3c.1.1.1.1.1.2Zm33.1,0h-.1c-.1-.1,0-.1.1-.2h1.2a.1.1,0,0,1,.1.1h-.1l-1.2.2Zm-35.6-.3h0l-1.2-.2H53c0-.1.1-.1.2-.1h1.2c0,.1.1.1.1.2Zm38,0a.1.1,0,0,1-.1-.1c0-.1,0-.1.1-.2h1.2c.1,0,.1,0,.1.1h-.1l-1.2.2Zm-40.4-.4h0l-1.2-.2a.1.1,0,0,1-.1-.1h.1l1.2.2c.1,0,.2.1.1.1Zm42.8,0h-.1a.1.1,0,0,1,.1-.1l1.2-.2H96l-1.2.2Zm-45.2-.4h0l-1.2-.3a.1.1,0,0,1-.1-.1h.2l1.1.3c.1,0,.2,0,.1.1A.1.1,0,0,1,49.5,290.8Zm47.6,0H97v-.2l1.2-.2h.1l-1.2.3Zm-50-.6h0l-1.2-.3H46l1.2.3v.2Zm52.4,0h-.1c0-.1,0-.2.1-.2l1.2-.3a.1.1,0,0,1,.1.1h-.1l-1.1.3Zm-54.7-.6h0l-1.2-.4c-.1-.1-.1-.1-.1-.2s.1-.1.2,0l1.1.4c.1,0,.1,0,.1.1Zm57.1,0h-.2a.1.1,0,0,1,.1-.1l1.2-.5a.1.1,0,0,1,.1.1v.2l-1.2.4Zm-59.4-.9h0l-1.1-.6v-.2h.2l1,.6a.1.1,0,0,1,.1.1Zm61.6,0H104l1.1-.6h.1c.1.1.1.1,0,.2l-1,.6Zm-63.5-1.3h-.1a1.5,1.5,0,0,1-.4-1.1h.2a1.8,1.8,0,0,0,.4,1c.1,0,.1.1,0,.1Zm65.4-.1h-.1a1.6,1.6,0,0,0,.4-1h.2a1.7,1.7,0,0,1-.4,1.1Zm-65.4-2h-.1a2.4,2.4,0,0,1,.9-.8h.2c0,.1,0,.1-.1.2a2.7,2.7,0,0,0-.8.7Zm65.4,0c-.1,0-.1,0-.1-.1a3.5,3.5,0,0,0-.9-.7h.2a7.3,7.3,0,0,1,.9.8v.2ZM42.5,284c-.1,0-.1,0-.1-.1h0l1.1-.5h.2a.1.1,0,0,1-.1.1l-1,.5Zm61.6,0a.1.1,0,0,1-.1-.1l-1.1-.4v-.2c.1,0,.1-.1.2,0l1.1.4v.2A.1.1,0,0,0,104.1,284Zm-59.4-.9a.1.1,0,0,1,0-.2l1.2-.4a.1.1,0,0,1,.1.1h-.1l-1.1.4Zm57.1,0h0l-1.2-.4h-.1c0-.1.1-.1.2-.1l1.1.4c.1,0,.1,0,.1.1A.1.1,0,0,1,101.8,283.1Zm-54.7-.7H47c-.1,0,0-.1,0-.1l1.2-.3h.2c0,.1,0,.1-.1.1l-1.2.3Zm52.4,0h-.1l-1.2-.3s-.1,0,0-.1,0-.1.1-.1l1.2.3a.1.1,0,0,1,.1.1Zm-50-.5h-.1l1.2-.3h.2c0,.1,0,.2-.1.2l-1.2.2Zm47.6,0h0l-1.2-.3c-.1,0-.2,0-.1-.1a.1.1,0,0,1,.1-.1l1.2.3c.1,0,.1,0,.1.1Zm-45.2-.4h-.2c0-.1.1-.1.1-.2h1.3c0-.1.1,0,.1,0s0,.2-.1.2l-1.2.2Zm42.8-.1H93.4c0-.1-.1-.1-.1-.2h.2l1.2.2c.1,0,.1.1.1.2Zm-40.4-.3c-.1,0-.1,0-.1-.1s0-.1.1-.1l1.2-.2a.1.1,0,0,1,.1.1h-.1l-1.2.2Zm37.9,0h0l-1.2-.2h-.1a.1.1,0,0,1,.1-.1l1.3.2a.1.1,0,0,1,.1.1Zm-35.5-.3a.1.1,0,0,1-.1-.1h.1l1.2-.2h.2a.3.3,0,0,1-.1.2Zm33.1,0H88.6c-.1-.1-.1-.1-.1-.2a.1.1,0,0,1,.1-.1l1.2.2h.1A.1.1,0,0,1,89.8,280.8Zm-30.6-.3c-.1,0-.2,0-.2-.1h.2Zm28.2,0h.1A.1.1,0,0,1,87.4,280.5Zm-25.8-.2c-.1,0-.1,0-.1-.1H63l-.2.2Zm23.3,0H83.7c-.1,0-.1-.1-.1-.2a.1.1,0,0,1,.1-.1H85C85,280.3,85,280.3,84.9,280.3Zm-20.8-.1h-.2c0-.1.1-.1.2-.1h1.2c.1,0,.1,0,.1.1s0,.1-.1.1Zm18.4,0H81.2a.1.1,0,1,1,0-.2h1.3c.1,0,.1,0,.1.1Zm-16-.1a.1.1,0,0,1-.1-.1c0-.1,0-.1.1-.1h1.4c0,.1-.1.1-.2.1Zm13.5,0H78.8c-.1,0-.1,0-.1-.1H80c.1.1.1.1.1.2A.1.1,0,0,1,80,280.1ZM69,280h1.2c.1,0,.1.1.1.2a.1.1,0,0,1-.1.1Zm8.6,0H76.2v-.2h1.3Zm-6.2-.1h0Zm3.7,0H73.8a.1.1,0,0,1,.1-.1h1.2a.1.1,0,0,1,.1.1Z"/><ellipse class="am" cx="73.3" cy="286.2" rx="30.4" ry="5.3"/><path class="ao" d="M43.5,287.3c2.8-2.4,15.1-4.2,29.8-4.2s27,1.8,29.8,4.2c.4-.4.7-.7.7-1.1,0-2.9-13.7-5.3-30.5-5.3s-30.4,2.4-30.4,5.3A1.5,1.5,0,0,0,43.5,287.3Z"/><path class="ao" d="M63.5,289a5,5,0,0,1-2.6-1H59.2l-1.8-.2q-.6-.2-.6-.3c0-.2.2-.3.6-.4h3.4c.3-.6,1-1,2.2-1.4l.9-.2H67c.5.1.8.2.8.3v.2l-.6.2-1.2.6a.5.5,0,0,0-.3.5q0,.4.6.6a4.4,4.4,0,0,0,1.8.2h1.3l.7-.3.7-.5a5.5,5.5,0,0,1,1.4-.9l2.1-.6,3.9-.2a23.7,23.7,0,0,1,4.9.4,5,5,0,0,1,2.7,1h1.8l1.7.2c.5.1.7.2.7.3s-.2.3-.7.4H85.8a4.7,4.7,0,0,1-2.2,1.2l-.9.2H79.6c-.5-.1-.8-.2-.8-.3l.2-.2.5-.2.6-.2.7-.4a.5.5,0,0,0,.3-.4c0-.2-.3-.4-.7-.5a5.3,5.3,0,0,0-1.9-.2l-1.7.2-1.1.7a4.7,4.7,0,0,1-1.2.9l-2.2.6-3.9.2A23.7,23.7,0,0,1,63.5,289Z"/><path class="ao" d="M101.9,290.7v6.6l.7-.2v-6.6Z"/><path class="ao" d="M94.7,292.2v6.6h.7v-6.6Z"/><path class="ao" d="M87.4,293v6.6h.8v-6.6Z"/><path class="ao" d="M80.2,293.4v6.7h.7v-6.6Z"/><path class="ao" d="M73.3,293.6H73v6.6h.7v-6.6Z"/><path class="ao" d="M65.7,293.4V300h.7v-6.7Z"/><path class="ao" d="M58.5,292.9v6.6h.7V293Z"/><path class="ao" d="M51.2,292.1v6.6h.7v-6.6Z"/><path class="ao" d="M44,290.5v6.6l.7.2v-6.6Z"/><path class="ap" d="M30.3,285.6c0,4.1,16.2,7.4,36.2,7.4s36.2-3.3,36.2-7.4V279H30.3Z"/><ellipse class="an" cx="66.5" cy="279" rx="36.2" ry="7.4"/><path class="ao" d="M66.5,285.5h-.6a.1.1,0,0,1-.1-.1h1.5a.1.1,0,0,1-.1.1Zm-1.8,0h.1A.1.1,0,0,1,64.7,285.5Zm3.7,0a.1.1,0,0,1-.1-.1h1.4a.1.1,0,0,1-.1.1Zm-6.2-.1H60.9c0-.1,0-.1.1-.1h1.2Zm8.6,0h1.3a.1.1,0,0,1,.1.1H70.8Zm-11,0H58.6c-.1,0-.2,0-.2-.1h1.4c.1,0,.1,0,.1.1Zm13.5,0h-.1c0-.1,0-.1.1-.2h1.3c.1.1,0,.1-.1.1Zm-16-.1H56c0-.1.1-.2.1-.1h1.2a.2.2,0,0,1,.2.2Zm18.5,0-.2-.2H77c0-.1.1,0,.1.1H75.8Zm-20.9-.2h0c.1,0,.1,0,.1.1A.1.1,0,0,1,54.9,285.1Zm23.3,0c-.1,0-.1,0-.1-.1s0-.1.1-.1h1.3c.1,0,0,.1-.1.1Zm-25.8-.2H51.2a.1.1,0,0,1-.1-.1h1.4a.1.1,0,0,1,.1.1Zm28.2,0h-.1a.1.1,0,0,1,.1-.1h1.3c0-.1.1,0,.1.1a.1.1,0,0,1-.1.1H80.6ZM50,284.7H48.8c-.1,0-.2-.1-.1-.1H50c.1,0,.1.1.1.2Zm33.1-.1c-.1,0-.1,0-.1-.1a.1.1,0,0,1,.1-.1h1.3a.1.1,0,0,1-.1.1Zm-35.5-.2h-.1l-1.2-.2h-.1c0-.1.1-.1.2-.1h1.2a.3.3,0,0,1,.1.2Zm37.9-.1h-.1c0-.1,0-.2.1-.2h1.2c.1-.1.1,0,.2,0a.3.3,0,0,1-.1.2ZM45.1,284h0l-1.2-.2a.1.1,0,0,1-.1-.1H44l1.2.2h.1C45.3,284,45.2,284,45.1,284Zm42.8,0h0l1.2-.2a.1.1,0,0,1,.2,0v.2L88,284Zm-45.2-.4h0l-1.2-.3a.1.1,0,0,1-.1-.1h.2l1.2.2c0,.1.1.1.1.2Zm47.7-.1h-.2a.3.3,0,0,1,.1-.2l1.2-.2h.1l-1.2.2ZM40.3,283h0l-1.2-.3s-.1-.1,0-.1,0-.1.1-.1l1.2.3h.1C40.5,283,40.4,283,40.3,283Zm52.4,0a.1.1,0,0,1-.1-.1h.1l1.2-.3a.1.1,0,0,1,.1.1c.1,0,0,.1,0,.1l-1.2.3ZM38,282.4h0l-1.2-.5s-.1,0,0-.1a.1.1,0,0,1,.1-.1l1.1.4c.1.1.1.1.1.2Zm57.1,0H95c-.1-.1,0-.1,0-.2l1.2-.4a.1.1,0,0,1,.1.1c.1,0,0,.1,0,.1l-1.2.4Zm-59.3-.9h-.1l-1.1-.6v-.2h.2l1,.6h0Zm61.5,0h0l1-.6h.2a.3.3,0,0,1-.1.2,3.1,3.1,0,0,1-1,.5A.1.1,0,0,1,97.3,281.5Zm-63.5-1.4h-.1a2.5,2.5,0,0,1-.4-1.1.1.1,0,0,1,.1-.1h0a.1.1,0,0,1,.1.1,2.1,2.1,0,0,0,.4,1c.1,0,.1.1,0,.1Zm65.4,0h0c-.1,0-.1-.1-.1-.2a1.2,1.2,0,0,0,.4-.9h0a.3.3,0,0,1,.1-.2h.2a1.8,1.8,0,0,1-.5,1.1Zm-65.4-2h-.1a2.4,2.4,0,0,1,.9-.8h.2a.1.1,0,0,1-.1.1,6,6,0,0,0-.8.8Zm65.4,0a.1.1,0,0,1-.1-.1,3.5,3.5,0,0,0-.9-.7v-.2h.2a3.6,3.6,0,0,1,.9.8h-.1Zm-63.5-1.3a.1.1,0,0,1-.1-.1h0l1.2-.5h.1v.2l-1.1.5Zm61.6-.1h-.1l-1.1-.5h.1l1.1.5v.2Zm-59.4-.8h-.1a.1.1,0,0,1,.1-.1l1.2-.4h.1c.1,0,0,.1,0,.1l-1.2.4Zm57.1,0h0l-1.2-.3h.1l1.2.3c0,.1.1.1,0,.2Zm-54.7-.7h-.1a.1.1,0,0,1,.1-.1l1.1-.3c.1,0,.2,0,.2.1h-.1l-1.2.3Zm52.4,0h-.1l-1.1-.3h-.1a.1.1,0,0,1,.1-.1l1.2.3a.1.1,0,0,1,.1.1Zm-50-.5h-.1c-.1-.1,0-.1,0-.1l1.2-.3h.1l-1.2.3Zm47.6,0h0l-1.2-.3H89c0-.1,0-.1.1-.1l1.2.2c.1.1.1.1.1.2Zm-45.2-.5H45c-.1-.1,0-.2.1-.2l1.2-.2h.1c0,.1,0,.1-.1.2Zm42.8,0h0l-1.2-.2c-.1,0-.2,0-.1-.1h.1l1.2.2a.1.1,0,0,1,.1.1Zm-40.4-.3h-.1c0-.1,0-.1.1-.1l1.2-.2c.1,0,.1,0,.1.1s0,.1-.1.1l-1.2.2Zm38,0h-.1l-1.2-.2h-.1c0-.1.1-.1.2-.1h1.2c0,.1.1.1.1.2Zm-35.6-.3h-.1a.1.1,0,0,1,.1-.1l1.2-.2h.1l-1.2.2Zm33.1,0h0l-1.2-.2h-.1a.1.1,0,0,1,.1-.1H83c.1.1.2.1.1.2A.1.1,0,0,1,83,273.6Zm-30.6-.3c-.1,0-.1,0-.1-.1h1.3c.1,0,.1,0,.1.1H52.4Zm28.2,0H79.2c0-.1.1-.1.2-.1h1.3A.1.1,0,0,1,80.6,273.3Zm-25.8-.2a.1.1,0,0,1,0-.2h1.4a.1.1,0,0,1-.1.1Zm23.3,0H76.9c-.1,0-.1,0-.1-.1h1.5C78.3,273.1,78.2,273.1,78.1,273.1ZM57.3,273a.1.1,0,0,1-.1-.1c-.1-.1,0-.1.1-.1h1.2c.1,0,.1,0,.1.1H57.3Zm18.4,0H74.3c0-.1.1-.1.2-.1h1.2v.2A.1.1,0,0,1,75.7,273Zm-16-.1a.3.3,0,0,1-.1-.2h1.5a.1.1,0,0,1-.1.1Zm13.5,0H72c-.1,0-.1,0-.1-.1h1.5A.2.2,0,0,1,73.2,272.9Zm-11-.1a.1.1,0,0,1-.1-.1h1.3a.1.1,0,0,1,.1.1H62.2Zm8.6,0Zm-6.2-.1h1.3a.1.1,0,0,1,.1.1H64.6Zm3.7,0H67a.1.1,0,0,1,.1-.1h1.2a.1.1,0,0,1,.1.1Z"/><ellipse class="ap" cx="66.5" cy="279" rx="30.4" ry="5.3"/><path class="ao" d="M36.7,280.1c2.8-2.4,15.1-4.3,29.8-4.3s27,1.9,29.9,4.3A1.5,1.5,0,0,0,97,279c0-2.9-13.7-5.3-30.5-5.3s-30.4,2.4-30.4,5.3A1.5,1.5,0,0,0,36.7,280.1Z"/><path class="ao" d="M56.7,281.8a4.9,4.9,0,0,1-2.6-1.1H50.6c-.4-.1-.6-.2-.6-.4l.6-.3,1.8-.2H54a4.4,4.4,0,0,1,2.2-1.3l.9-.2h3.1c.6.1.8.2.8.3h-.1l-.6.3-1.1.6a.5.5,0,0,0-.4.5q0,.4.6.6l1.9.2h1.2l.7-.3.7-.5a5.5,5.5,0,0,1,1.4-.9l2.1-.6a21.8,21.8,0,0,1,3.9-.2,23.7,23.7,0,0,1,4.9.4,5,5,0,0,1,2.7,1h1.8l1.7.2c.5.1.7.2.7.3s-.2.3-.7.4H79a4.7,4.7,0,0,1-2.2,1.2h-4c-.5-.1-.7-.2-.7-.3v-.2l.5-.2.6-.2.7-.4a.5.5,0,0,0,.3-.4c0-.2-.3-.4-.7-.5a5.3,5.3,0,0,0-1.9-.2,3.4,3.4,0,0,0-1.6.2,3.7,3.7,0,0,0-1.2.7l-1.2.9-2.2.6-3.9.2A23.7,23.7,0,0,1,56.7,281.8Z"/><path class="ao" d="M95.1,283.5v6.6l.8-.2v-6.6Z"/><path class="ao" d="M87.9,284.9v6.6h.7v-6.6Z"/><path class="ao" d="M80.7,285.8v6.6h.7v-6.6Z"/><path class="ao" d="M73.4,286.2v6.6h.7v-6.6Z"/><path class="ao" d="M66.5,286.4h-.3V293h.7v-6.6Z"/><path class="ao" d="M58.9,286.2v6.6h.7v-6.6Z"/><path class="ao" d="M51.7,285.7v6.6h.7v-6.6Z"/><path class="ao" d="M44.4,284.8v6.6h.8v-6.6Z"/><path class="ao" d="M37.2,283.3v6.6l.7.2v-6.6Z"/><path class="am" d="M36.8,278.9c0,4.1,16.2,7.4,36.2,7.4s36.2-3.3,36.2-7.4v-6.6H36.8Z"/><ellipse class="an" cx="73" cy="272.3" rx="36.2" ry="7.4"/><path class="ao" d="M73,278.8h-.6c-.1,0-.1,0-.1-.1h1.4c0,.1,0,.1-.1.1Zm-1.9,0H69.9a.1.1,0,0,1-.1-.1h1.5C71.3,278.8,71.2,278.8,71.1,278.8Zm3.7,0a.1.1,0,0,1-.1-.1h.1Zm-6.1,0h.1A.1.1,0,0,1,68.7,278.8Zm8.6,0a.1.1,0,0,1-.1-.1h1.3a.1.1,0,0,1,.1.1H77.3Zm-11.1-.1H65c-.1,0-.1,0-.1-.1a.1.1,0,0,1,.1-.1h1.2c.1,0,.2,0,.2.1Zm13.5,0h-.1a.1.1,0,0,1,.1-.1h1.4a.1.1,0,0,1-.1.1Zm-15.9-.1h0c.1,0,.1,0,.1.1Zm18.4,0a.1.1,0,0,1-.1-.1c0-.1,0-.1.1-.1h1.3a.1.1,0,0,1-.1.1Zm-20.9-.2H60.1c-.1,0-.1,0-.1-.1h1.3Zm23.3,0H86a.1.1,0,0,1-.1.1H84.6Zm-25.7-.2H57.5c0-.1.1-.1.2-.1h1.2a.1.1,0,0,1,.1.1Zm28.2,0H87a.1.1,0,0,1,.1-.1h1.2c.1,0,.1,0,.1.1a.1.1,0,0,1-.1.1ZM56.4,278h0l-1.2-.2c-.1,0-.1,0-.1-.1h.1l1.3.2h-.1Zm33.1,0h0l1.2-.2h.2a.1.1,0,0,1-.1.1l-1.3.2ZM54,277.7h0l-1.2-.2a.1.1,0,0,1-.1-.1h.1l1.2.2c.1,0,.1,0,.1.1Zm38,0h-.2a.1.1,0,0,1,.1-.1l1.3-.2h.1a.1.1,0,0,1-.1.1l-1.2.2Zm-40.4-.4h0l-1.2-.2c-.1,0-.2-.1-.1-.1s0-.1.1-.1l1.2.2h.1A.1.1,0,0,1,51.6,277.3Zm42.8,0c-.1,0-.1,0-.1-.1h.1l1.2-.2a.1.1,0,0,1,0,.2l-1.2.2Zm-45.2-.4h-.1l-1.1-.3c-.1,0-.2,0-.1-.1s0-.1.1-.1l1.2.3c.1,0,.1,0,.1.1Zm47.6,0h-.1c0-.1,0-.1.1-.1l1.2-.3a.1.1,0,0,1,0,.2l-1.2.3Zm-50-.6h0l-1.2-.3c-.1,0-.1,0-.1-.1h.2l1.1.3c.1,0,.1.1.1.2Zm52.4,0h-.1a.1.1,0,0,1,0-.2l1.2-.3h.2a.1.1,0,0,1-.1.1l-1.2.3Zm-54.7-.6h-.1l-1.1-.4v-.2a.1.1,0,0,1,.2,0l1.1.4a.1.1,0,0,1,.1.1Zm57,0h-.1c0-.1,0-.1.1-.1l1.1-.4c.1-.1.1,0,.2,0v.2l-1.1.4Zm-59.3-.9h-.1l-1-.6c-.1,0-.1-.1,0-.2h.1l1.1.6h0A.1.1,0,0,1,42.2,274.8Zm61.6,0c-.1,0-.1,0-.1-.1s-.1-.1,0-.1l1-.6h.2v.2l-1.1.6Zm-63.5-1.3h-.1a1.6,1.6,0,0,1-.5-1,.2.2,0,0,1,.2-.2H40a1.3,1.3,0,0,0,.4,1h-.1Zm65.4-.1h-.1c-.1,0-.1-.1,0-.1a2.1,2.1,0,0,0,.4-1h0c0-.1,0-.1.1-.1h0a.1.1,0,0,1,.1.1h0a1.7,1.7,0,0,1-.4,1.1Zm-65.4-1.9a.1.1,0,0,1-.1-.1c-.1,0-.1-.1,0-.1a3,3,0,0,1,.8-.8h.2c.1.1,0,.1,0,.2a2.9,2.9,0,0,0-.8.7A.1.1,0,0,0,40.3,271.5Zm65.3-.1h-.1l-.8-.7c-.1,0-.1-.1,0-.1a.1.1,0,0,1,.1-.1l.9.8c.1.1.1.1,0,.2Zm-63.4-1.3H42a.1.1,0,0,1,.1-.1l1.1-.5h.2a.1.1,0,0,1-.1.1l-1.1.5Zm61.5,0h0l-1.1-.4c-.1,0-.1-.1-.1-.2h.2l1.1.5s.1,0,0,.1A.1.1,0,0,1,103.7,270.1Zm-59.3-.9h-.1a.1.1,0,0,1,.1-.1l1.1-.4h.2c0,.1,0,.1-.1.1l-1.2.4Zm57.1,0h-.1l-1.1-.4a.1.1,0,0,1-.1-.1h.1l1.2.4c.1,0,.1,0,.1.1Zm-54.8-.7h-.1c0-.1,0-.2.1-.2l1.2-.3a.1.1,0,0,1,.1.1c.1.1,0,.1,0,.2l-1.2.2Zm52.4,0h0l-1.2-.3h-.1c0-.1.1-.1.2-.1l1.2.3s.1.1,0,.1S99.2,268.5,99.1,268.5Zm-50-.5a.1.1,0,0,1-.1-.1h.1l1.2-.2c.1-.1.1,0,.1,0s0,.2-.1.2l-1.2.2Zm47.6,0h0l-1.2-.2v-.2h.2l1.2.3h-.1Zm-45.2-.4h-.1c0-.1,0-.1.1-.2h1.4a.3.3,0,0,1-.1.2l-1.3.2Zm42.8,0h0l-1.2-.2c-.1,0-.1-.1-.1-.2h.1l1.3.2a.3.3,0,0,1,.1.2Zm-40.4-.4h0l1.2-.2h.2a.1.1,0,0,1-.1.1l-1.2.2Zm38,0h0l-1.2-.2c-.1,0-.1,0-.1-.1h.1l1.2.2c.1,0,.1,0,.1.1Zm-35.5-.3h-.1c0-.1,0-.1.1-.1h1.2c.1-.1.1,0,.1.1a.1.1,0,0,1-.1.1Zm33.1,0H88.2v-.2h.2l1.2.2c.1,0,.1,0,.1.1Zm-30.7-.2h-.1c0-.1,0-.2.1-.2h1.4a.1.1,0,0,1-.1.1l-1.3.2Zm28.2-.1H85.8c-.1,0-.1,0-.1-.1H87Zm-25.7-.1h-.2l.2-.2h1.2c0-.1.1,0,.1.1H61.3Zm23.3-.1H83.4a.2.2,0,0,1-.2-.2h1.4a.1.1,0,0,1,.1.1Zm-20.9-.1a.1.1,0,0,1-.1-.1h.1Zm18.4,0H80.8a.1.1,0,0,1,.1-.1h1.2Zm-15.9-.1h-.1c-.1-.1,0-.1.1-.1h1.2a.1.1,0,0,1,.1.1c0,.1,0,.1-.1.1Zm13.5,0H78.4a.1.1,0,0,1-.1-.1h1.4c.1,0,.1,0,.1.1Zm-11.1-.1a.1.1,0,0,1,0-.2h1.3a.1.1,0,0,1,.1.1H68.6Zm8.6,0H76a.1.1,0,0,1-.1-.1c0-.1,0-.1.1-.1h1.2c.1,0,.2,0,.1.1A.1.1,0,0,1,77.2,266.1Zm-6.1,0c-.1,0-.1-.1-.1-.2h1.4c0,.1,0,.1-.1.1Zm3.7,0H73.5a.1.1,0,0,1-.1-.1h1.5A.3.3,0,0,1,74.8,266.1Z"/><ellipse class="am" cx="73" cy="272.3" rx="30.4" ry="5.3"/><path class="ao" d="M43.1,273.4c2.9-2.4,15.2-4.2,29.9-4.2s27,1.8,29.8,4.2a1.5,1.5,0,0,0,.6-1.1c0-2.9-13.6-5.3-30.4-5.3s-30.5,2.4-30.5,5.3A1.5,1.5,0,0,0,43.1,273.4Z"/><path class="ao" d="M63.2,275.1a4.6,4.6,0,0,1-2.6-1H58.8l-1.7-.2c-.5-.1-.7-.2-.7-.3s.2-.3.7-.4h3.3c.3-.6,1.1-1,2.3-1.4l.9-.2h3.1l.8.3c0,.1-.1.1-.2.2l-.5.2-1.2.6a.7.7,0,0,0-.3.6c0,.2.2.4.6.5a4.4,4.4,0,0,0,1.8.2h1.2l.8-.3.7-.5a10.1,10.1,0,0,1,1.3-.9l2.2-.6,3.9-.2a22.7,22.7,0,0,1,4.8.4,7.2,7.2,0,0,1,2.8,1h1.7l1.8.2c.4.1.7.2.7.3s-.3.3-.7.4H85.5a5.3,5.3,0,0,1-2.2,1.2l-1,.2h-3c-.5-.1-.8-.2-.8-.3s.1-.1.1-.2l.6-.2.6-.2.7-.4a.5.5,0,0,0,.2-.4c0-.2-.2-.4-.7-.5a4.4,4.4,0,0,0-1.8-.2l-1.7.2-1.1.7a3.8,3.8,0,0,1-1.3.9l-2.1.6-4,.2A22.1,22.1,0,0,1,63.2,275.1Z"/><path class="ao" d="M101.6,276.8v6.6l.7-.2v-6.6Z"/><path class="ao" d="M94.3,278.3v6.6h.8v-6.6Z"/><path class="ao" d="M87.1,279.1v6.6h.7V279Z"/><path class="ao" d="M79.9,279.6v6.6h.7v-6.6Z"/><path class="ao" d="M73,279.7h-.4v6.6h.7v-6.6Z"/><path class="ao" d="M65.4,279.5v6.6h.7v-6.6Z"/><path class="ao" d="M58.1,279v6.6h.7v-6.6Z"/><path class="ao" d="M50.9,278.2v6.6h.7v-6.6Z"/><path class="ao" d="M43.6,276.6v6.6l.8.2v-6.6Z"/><path class="am" d="M32.6,272.3c0,4.1,16.2,7.4,36.2,7.4s36.2-3.3,36.2-7.4v-6.6H32.6Z"/><path class="an" d="M105,265.7c0,4.1-16.2,7.4-36.2,7.4s-36.2-3.3-36.2-7.4,16.2-7.4,36.2-7.4S105,261.6,105,265.7Z"/><path class="ao" d="M68.8,272.2h-.7c0-.1,0-.1.1-.1h1.2c.1,0,.1,0,.1.1h-.7Zm-1.8,0H65.6a.1.1,0,0,1,.1-.1H67a.1.1,0,0,1,.1.1Zm3.6,0h-.1a.1.1,0,0,1,.1-.1h1.3a.1.1,0,0,1,.1.1H70.6Zm-6.1-.1H63.3c-.1,0-.2,0-.2-.1h1.4a.1.1,0,0,1,.1.1C64.6,272.1,64.6,272.1,64.5,272.1Zm8.6,0c-.1,0-.1,0-.1-.1a.1.1,0,0,1,.1-.1h1.2c.1,0,.1,0,.1.1s0,.1-.1.1Zm-11.1,0H60.8c-.1,0-.1,0-.1-.1H62c.1.1.2.1.2.2Zm13.5,0h-.1a.3.3,0,0,1,.1-.2h1.4c0,.1,0,.1-.1.1H75.5ZM59.6,272H58.2c0-.1.1-.2.2-.1h1.2a.1.1,0,0,1,.1.1C59.7,271.9,59.7,272,59.6,272Zm18.4-.1h-.1a.1.1,0,0,1,.1-.1h1.2c.1-.1.1,0,.2.1H78Zm-20.9-.1H55.8c0-.1,0-.1.1-.1h1.4C57.3,271.8,57.2,271.8,57.1,271.8Zm23.4,0h1.2a.1.1,0,0,1,.1.1H80.5Zm-25.8-.2h0c.1,0,.1,0,.1.1S54.8,271.6,54.7,271.6Zm28.2,0a.1.1,0,0,1-.1-.1c0-.1,0-.1.1-.1h1.2c.1-.1.1,0,.1.1s0,.1-.1.1Zm-30.6-.3H50.9c0-.1.1-.1.2-.1h1.2a.3.3,0,0,1,.1.2Zm33,0a.1.1,0,0,1-.1-.1h1.3c.1,0,.2,0,.2.1H85.3ZM49.8,271H48.6c-.1,0-.1-.1-.1-.2h1.3c.1,0,.1.1.1.2Zm38,0c-.1,0-.1,0-.1-.1h1.4c0,.1,0,.2-.1.2Zm-40.4-.3h0l-1.2-.2c-.1,0-.1-.1-.1-.2h.1l1.2.2c.1,0,.1,0,.1.1Zm42.8,0h-.1c0-.1,0-.1.1-.1l1.2-.2c0-.1.1,0,.1,0s0,.2-.1.2l-1.2.2ZM45,270.3h0l-1.2-.3a.1.1,0,0,1-.1-.1h.1l1.2.2c.1,0,.1.1.1.2Zm47.6-.1h-.1c0-.1,0-.2.1-.2l1.2-.2h.1a.1.1,0,0,1-.1.1l-1.2.2Zm-50-.5h0l-1.2-.3h-.1c0-.1.1-.1.2-.1l1.1.3a.1.1,0,0,1,.1.1Zm52.4,0h-.1a.1.1,0,0,1,.1-.1l1.1-.3c.1,0,.2,0,.2.1h-.1l-1.2.3Zm-54.7-.6c-.1,0-.1,0-.1-.1l-1.1-.4c-.1,0-.1,0-.1-.1s.1-.1.2-.1l1.1.4c.1.1.1.1.1.2Zm57-.1h-.1c0-.1,0-.1.1-.2l1.1-.4c.1,0,.2,0,.2.1a.1.1,0,0,1-.1.1l-1.1.4ZM38,268.2h0l-1.1-.6c-.1-.1-.1-.1,0-.2H37l1.1.6s.1.1,0,.1Zm61.6,0h-.1c-.1-.1,0-.1,0-.1l1-.6h.2c.1,0,0,.1,0,.2l-1.1.5Zm-63.5-1.4H36a2.7,2.7,0,0,1-.5-1.1h.3a1.6,1.6,0,0,0,.4,1h-.1Zm65.4,0h-.1a.1.1,0,0,1,0-.2,1.8,1.8,0,0,0,.4-.9h0c0-.1,0-.2.1-.2h0a.1.1,0,0,1,.1.1h0a1.7,1.7,0,0,1-.4,1.1Zm-65.4-2H36c-.1,0-.1-.1,0-.1a2.4,2.4,0,0,1,.9-.8H37c.1,0,.1.1,0,.1a3,3,0,0,0-.8.8Zm65.3,0a.1.1,0,0,0-.1-.1,2.9,2.9,0,0,0-.8-.7c-.1,0-.1-.1,0-.2h.1a3.6,3.6,0,0,1,.9.8c.1,0,.1.1,0,.1S101.5,264.8,101.4,264.8ZM38,263.5a.1.1,0,0,1-.1-.1c-.1,0-.1-.1,0-.1l1.1-.5h.2c0,.1,0,.2-.1.2l-1.1.5Zm61.5-.1h0l-1.1-.5h-.1c0-.1.1-.1.2-.1l1.1.5c0,.1.1.1,0,.2Zm-59.3-.8a.1.1,0,0,1,0-.2l1.1-.4c.1,0,.2,0,.2.1h-.1l-1.2.4Zm57.1,0a.1.1,0,0,1-.1-.1l-1.1-.3H96a.1.1,0,0,1,.1-.1l1.2.3c.1.1.1.1.1.2Zm-54.8-.7h-.1a.1.1,0,0,1,.1-.1l1.2-.3h.2a.1.1,0,0,1-.1.1l-1.2.3Zm52.4,0h0l-1.2-.3a.1.1,0,0,1-.1-.1c0-.1.1-.1.2-.1l1.2.3s.1,0,0,.1Zm-50-.5h-.1c0-.1,0-.1.1-.1l1.2-.3a.1.1,0,0,1,.1.1c.1.1,0,.1,0,.1l-1.2.3Zm47.6,0h0l-1.2-.3a.1.1,0,0,1-.1-.1c0-.1.1-.1.2-.1l1.2.2c0,.1.1.1.1.2Zm-45.2-.5h-.1a.1.1,0,0,1,.1-.1l1.2-.2h.1l-1.2.2Zm42.8,0h0l-1.2-.2h-.1a.1.1,0,0,1,.1-.1l1.3.2h-.1Zm-40.3-.3h-.2a.1.1,0,0,1,.1-.1l1.3-.2a.1.1,0,0,1,.1.1H51l-1.2.2Zm37.9,0h0l-1.2-.2h-.1c0-.1,0-.1.1-.1h1.2c.1.1.1.1.1.2A.1.1,0,0,1,87.7,260.6Zm-35.5-.3a.1.1,0,0,1-.1-.1h.1l1.2-.2a.1.1,0,0,1,.1.1c0,.1,0,.1-.1.1l-1.2.2Zm33.1,0h0l-1.3-.2a.1.1,0,0,1-.1-.1h1.4v.2ZM54.6,260a.1.1,0,0,1-.1-.1h1.3c.1,0,.2,0,.2.1H54.6Zm28.2,0H81.5a.1.1,0,0,1,.1-.1H83C83,260,82.9,260,82.8,260Zm-25.7-.2c-.1,0-.1,0-.1-.1h1.3a.1.1,0,0,1,.1.1H57.1Zm23.3,0h.1C80.5,259.8,80.5,259.8,80.4,259.8Zm-20.9-.1h-.1a.1.1,0,0,1,.1-.1h1.2c.1,0,.2,0,.2.1a.1.1,0,0,1-.1.1Zm18.4,0H76.7a.1.1,0,1,1,0-.2H78a.3.3,0,0,1,.1.2ZM62,259.6c-.1,0-.1-.1-.1-.2h1.4c0,.1,0,.1-.1.1Zm13.5-.1H74.3c-.1,0-.2,0-.2-.1h1.5C75.6,259.5,75.6,259.5,75.5,259.5Zm-11.1,0h0Zm8.6,0H71.7a.1.1,0,0,1,.1-.1H73l.2.2Zm-6.1-.1h-.1a.1.1,0,0,1,.1-.1h1.2c.1,0,.1,0,.1.1H66.9Zm3.7,0H69.2a.1.1,0,0,1,.1-.1h1.3Z"/><path class="am" d="M99.2,265.7c0,2.9-13.6,5.3-30.4,5.3s-30.5-2.4-30.5-5.3,13.7-5.3,30.5-5.3S99.2,262.8,99.2,265.7Z"/><path class="ao" d="M39,266.8c2.8-2.4,15.1-4.3,29.8-4.3s27,1.9,29.8,4.3a1.5,1.5,0,0,0,.6-1.1c0-2.9-13.6-5.3-30.4-5.3s-30.5,2.4-30.5,5.3C38.3,266.1,38.6,266.4,39,266.8Z"/><path class="ao" d="M59,268.5a4.9,4.9,0,0,1-2.6-1.1H52.9c-.5-.1-.7-.2-.7-.4s.2-.2.7-.3l1.7-.2h1.6a4.3,4.3,0,0,1,2.3-1.3l.9-.2h3.1c.5.1.8.2.8.3h-.2l-.5.3-1.2.5a.9.9,0,0,0-.3.6q0,.4.6.6l1.8.2h1.2l.8-.3.7-.5a5.1,5.1,0,0,1,1.3-.9l2.2-.6a20.7,20.7,0,0,1,3.9-.2,24.3,24.3,0,0,1,4.9.4,5.8,5.8,0,0,1,2.7,1h1.7l1.8.2.7.3c0,.2-.3.3-.7.4H81.3a4.7,4.7,0,0,1-2.2,1.2h-4c-.5-.1-.8-.2-.8-.3l.2-.2.5-.2.6-.2.7-.4a.8.8,0,0,0,.2-.4c0-.2-.2-.4-.7-.5a4.4,4.4,0,0,0-1.8-.2,4.2,4.2,0,0,0-1.7.2,3.4,3.4,0,0,0-1.1.7,6,6,0,0,1-1.3.9l-2.1.6-4,.2A22.1,22.1,0,0,1,59,268.5Z"/><path class="ao" d="M97.4,270.2v6.6l.7-.2V270Z"/><path class="ao" d="M90.2,271.6v6.6h.7v-6.6Z"/><path class="ao" d="M82.9,272.5v6.6h.7v-6.6Z"/><path class="ao" d="M75.7,272.9v6.6h.7v-6.6Z"/><path class="ao" d="M68.8,273.1h-.4v6.6h.7v-6.6Z"/><path class="ao" d="M61.2,272.9v6.6h.7v-6.6Z"/><path class="ao" d="M53.9,272.4V279h.8v-6.6Z"/><path class="ao" d="M46.7,271.5v6.6h.7v-6.6Z"/><path class="ao" d="M39.5,270v6.6l.7.2v-6.6Z"/><path class="am" d="M34.3,265.8c0,4,16.2,7.3,36.2,7.3s36.2-3.3,36.2-7.3v-6.6H34.3Z"/><ellipse class="an" cx="70.5" cy="259.2" rx="36.2" ry="7.4"/><path class="ao" d="M70.5,265.7h-.6c-.1,0-.1-.1-.1-.2a.1.1,0,0,1,.1-.1h1.4a.2.2,0,0,1-.2.2Zm-1.8-.1H67.4a.1.1,0,0,1-.1-.1h1.5A.1.1,0,0,1,68.7,265.6Zm3.7,0c-.1,0-.2,0-.2-.1h1.4a.1.1,0,0,1,.1.1c0,.1,0,.1-.1.1Zm-6.2,0H65a.1.1,0,0,1-.1-.1c0-.1,0-.2.1-.2h1.2c.1,0,.1,0,.1.1S66.3,265.6,66.2,265.6Zm8.6,0c-.1,0-.1,0-.1-.1s0-.1.1-.1H76a.2.2,0,0,1,.2.2H74.8Zm-11-.1h.1A.1.1,0,0,1,63.8,265.5Zm13.5,0c-.1,0-.2,0-.2-.1h1.4c.1,0,.1.1.1.2a.1.1,0,0,1-.1.1Zm-16-.1H60.1c-.1,0-.1,0-.1-.1h1.3c.1,0,.1,0,.1.1Zm18.4,0h-.1c0-.1,0-.1.1-.1h1.4a.1.1,0,0,1-.1.1Zm-20.8-.1H57.6a.3.3,0,0,1-.1-.2H59Zm23.3-.1h-.1c-.1,0,0-.1.1-.1h1.2a.1.1,0,0,1,.1.1c0,.1,0,.1-.1.2Zm-25.8-.1h0l-1.2-.2h-.1a.1.1,0,0,1,.1-.1h1.2c.1,0,.1.1.1.2A.1.1,0,0,1,56.4,265.1Zm28.2-.1a.1.1,0,0,1-.1-.1h1.3c.1,0,.2,0,.2.1H84.6ZM54,264.8H52.7a.3.3,0,0,1-.1-.2h.2l1.2.2h.1A.1.1,0,0,1,54,264.8Zm33.1,0c-.1,0-.2,0-.2-.1H87l1.3-.2h.1c0,.1,0,.1-.1.2Zm-35.6-.3h0l-1.2-.2c-.1,0-.1,0-.1-.1h.1l1.3.2h-.1Zm38,0c-.1,0-.1,0-.1-.1h.1l1.2-.2h.1c0,.1,0,.1-.1.1l-1.2.2Zm-40.4-.4h0l-1.2-.2h-.1a.1.1,0,0,1,.1-.1l1.2.2c.1,0,.1.1.1.2Zm42.8,0h-.1c0-.1,0-.2.1-.2l1.2-.2c.1,0,.1,0,.1.1s0,.1-.1.1l-1.2.2Zm-45.2-.4h0l-1.2-.2v-.2h.1l1.2.3a.1.1,0,0,1,.1.1Zm47.6,0h-.1a.1.1,0,0,1,.1-.1l1.2-.3a.1.1,0,0,1,.1.1c.1.1,0,.1,0,.1l-1.2.3Zm-50-.5h0l-1.2-.3c-.1-.1-.1-.1-.1-.2h.2l1.2.3s.1,0,0,.1Zm52.4,0h-.1c0-.1,0-.1.1-.1l1.2-.4H98c0,.1,0,.1-.1.2l-1.2.3ZM42,262.5h-.1l-1.1-.4a.1.1,0,0,1-.1-.1h.2l1.1.4h.1A.1.1,0,0,1,42,262.5Zm57,0h0l1.1-.4h.2c0,.1,0,.2-.1.2l-1.1.4Zm-59.3-.9h0l-1.1-.6h.2l1,.6c.1.1.1.1,0,.2Zm61.6,0h-.1v-.2l1.1-.6h.1c.1,0,.1.1,0,.1l-1,.6Zm-63.5-1.3a.1.1,0,0,1-.1-.1,1.4,1.4,0,0,1-.4-1h.2a1.8,1.8,0,0,0,.4.9c.1.1,0,.1,0,.2Zm65.4,0h-.1a1.2,1.2,0,0,0,.4-.9h0c0-.1,0-.1.1-.1h0c.1,0,.1,0,.1.1h0a1.4,1.4,0,0,1-.4,1A.1.1,0,0,1,103.2,260.3Zm-65.4-2h-.1c0-.1-.1-.1,0-.2a3.6,3.6,0,0,1,.9-.8h.1c.1.1.1.2,0,.2l-.8.7A.1.1,0,0,1,37.8,258.3Zm65.4-.1h-.1a3.6,3.6,0,0,0-.9-.8s-.1-.1,0-.1.1-.1.2,0l.9.7c0,.1,0,.2-.1.2Zm-63.5-1.3h-.1a.1.1,0,0,1,0-.2l1.1-.5c.1,0,.2,0,.2.1h-.1l-1.1.5Zm61.5,0h0l-1.1-.5H100c0-.1.1-.1.2-.1l1.1.5c.1,0,.1.1,0,.1ZM41.9,256h-.1c0-.1,0-.2.1-.2l1.1-.3h.2c0,.1,0,.2-.1.2L42,256ZM99,256h0l-1.2-.3v-.2h.2l1.1.4h0Zm-54.7-.6h-.2a.1.1,0,0,1,.1-.1l1.2-.3h.2v.2l-1.2.3Zm52.4-.1h-.1l-1.2-.2v-.2h.2l1.2.3a.3.3,0,0,1,.1.2Zm-50.1-.5a.1.1,0,0,1-.1-.1h.1l1.2-.2h.1l-1.2.2Zm47.7,0h-.1l-1.2-.2h.1l1.2.2h.1A.1.1,0,0,1,94.3,254.8Zm-45.2-.4h-.2a.1.1,0,0,1,.1-.1l1.2-.2h.1l-1.2.2Zm42.8,0h-.1l-1.2-.2h.1l1.2.2a.1.1,0,0,1,.1.1ZM51.5,254h1.2c0-.1.1,0,.1.1H51.5Zm37.9,0H88.2c-.1,0-.1-.1-.1-.2h.1l1.3.2h-.1Zm-35.5-.3h0Zm33.1,0Zm-30.6-.2h1.2a.1.1,0,0,1,.1.1H56.4Zm28.2,0H83.2c0-.1.1-.2.1-.1h1.3Zm-25.8-.2a.1.1,0,0,1-.1-.1h.1Zm23.3,0h.1A.1.1,0,0,1,82.1,253.3Zm-20.9-.2h1.4v.2H61.2Zm18.5,0H78.4v-.2h1.4Zm-16-.1h1.2a.2.2,0,0,1,.2.2H63.7Zm13.5,0H76c-.1,0-.1-.1-.1-.2a.1.1,0,0,1,.1-.1h1.2Zm-11-.1h1.2c.1,0,.1,0,.1.1H66.2Zm8.6,0H73.4a.1.1,0,0,1,.1-.1h1.3Zm-6.2,0h-.1c0-.1,0-.1.1-.1h1.2c.1,0,.2,0,.2.1H68.6Zm3.7,0H70.9c0-.1.1-.1.2-.1h1.2c.1,0,.1,0,.1.1Z"/><ellipse class="am" cx="70.5" cy="259.2" rx="30.4" ry="5.3"/><path class="ao" d="M40.7,260.2c2.8-2.4,15.1-4.2,29.8-4.2s27,1.8,29.8,4.2a1.4,1.4,0,0,0,.6-1c0-3-13.6-5.3-30.4-5.3s-30.4,2.3-30.4,5.3A1.4,1.4,0,0,0,40.7,260.2Z"/><path class="ao" d="M60.7,262a5.8,5.8,0,0,1-2.6-1.1H54.6c-.4-.1-.7-.3-.7-.4s.3-.3.7-.4h3.3a4.8,4.8,0,0,1,2.3-1.4h4l.8.3c0,.1-.1.1-.2.2s-.2.1-.5.2l-1.2.6a.9.9,0,0,0-.3.6q0,.3.6.6l1.8.2,1.2-.2a1,1,0,0,0,.8-.3l.7-.5,1.3-.8a5.3,5.3,0,0,1,2.2-.6,20.6,20.6,0,0,1,3.9-.3,23.7,23.7,0,0,1,4.9.4,4.9,4.9,0,0,1,2.7,1.1h3.5c.5.1.7.2.7.4s-.2.2-.7.3l-1.7.2H83a4.8,4.8,0,0,1-2.2,1.1l-.9.2H78.6l-1.8-.2-.8-.3h.2l.5-.3.6-.2.7-.4c.2-.1.2-.2.2-.4s-.2-.4-.6-.5l-1.9-.2-1.7.2a5.9,5.9,0,0,0-1.1.8l-1.2.8a7.5,7.5,0,0,1-2.2.6,21,21,0,0,1-4,.3A32,32,0,0,1,60.7,262Z"/><path class="ao" d="M99.1,263.7v6.6l.7-.2v-6.6Z"/><path class="ao" d="M91.9,265.1v6.6h.7V265Z"/><path class="ao" d="M84.6,265.9v6.6h.7v-6.6Z"/><path class="ao" d="M77.4,266.4V273h.7v-6.6Z"/><path class="ao" d="M70.5,266.5h-.4v6.6h.8v-6.6Z"/><path class="ao" d="M62.9,266.4V273h.7v-6.6Z"/><path class="ao" d="M55.7,265.9v6.6h.7v-6.6Z"/><path class="ao" d="M48.4,265v6.6h.7v-6.6Z"/><path class="ao" d="M41.2,263.5v6.6l.7.2v-6.6Z"/><path class="am" d="M30.5,259.1c0,4.1,16.2,7.4,36.2,7.4s36.2-3.3,36.2-7.4v-6.6H30.5Z"/><ellipse class="an" cx="66.7" cy="252.5" rx="36.2" ry="7.4"/><path class="ao" d="M66.7,259h-.6c-.1,0-.2,0-.2-.1h1.5c0,.1,0,.1-.1.1Zm-1.9,0H63.6c-.1,0-.1,0-.1-.1H65C65,259,64.9,259,64.8,259Zm3.7,0a.1.1,0,0,1-.1-.1h.1Zm-6.1,0h.1A.1.1,0,0,1,62.4,259Zm8.6,0a.1.1,0,0,1-.1-.1h1.3a.1.1,0,0,1,.1.1H71Zm-11.1-.1H58.7c-.1,0-.1,0-.1-.1h1.3c.1,0,.2,0,.2.1Zm13.5,0h-.1a.1.1,0,0,1,.1-.1h1.4a.1.1,0,0,1-.1.1Zm-15.9-.1H56.1c0-.1.1-.1.2-.1h1.2Zm18.4,0a.1.1,0,0,1-.1-.1h1.3c.1,0,.1,0,.1.1H75.9ZM55,258.6H53.8c-.1,0-.1,0-.1-.1H55c.1,0,.2.1.1.1S55.1,258.6,55,258.6Zm23.3,0a.1.1,0,0,1-.1-.1h1.5a.1.1,0,0,1-.1.1H78.3Zm-25.7-.2h0a.1.1,0,0,1,.1.1Zm28.2,0h-.1a.1.1,0,0,1,.1-.1h1.3a.1.1,0,0,1-.1.1Zm-30.7-.2h0l-1.2-.2c-.1,0-.1,0-.1-.1h.1l1.3.2a.1.1,0,0,1,.1.1Zm33.1,0h-.1c0-.1,0-.1.1-.1l1.2-.2h.2a.1.1,0,0,1-.1.1l-1.3.2Zm-35.5-.3h0l-1.2-.2h-.1c0-.1,0-.1.1-.1l1.2.2c.1,0,.1,0,.1.1Zm38,0h-.2a.1.1,0,0,1,.1-.1l1.3-.2a.1.1,0,0,1,.1.1h-.1l-1.2.2Zm-40.4-.4h0l-1.3-.2s-.1-.1,0-.1h.1l1.2.2h.1A.1.1,0,0,1,45.3,257.5Zm42.8,0c-.1,0-.1,0-.1-.1h.1l1.2-.2h.1a.1.1,0,0,1-.1.1l-1.2.2Zm-45.2-.4h-.1l-1.2-.3s-.1,0,0-.1h.1l1.2.3c.1,0,.1,0,.1.1Zm47.6,0a.1.1,0,0,1-.1-.1c0-.1,0-.1.1-.1l1.2-.3h.1a.1.1,0,0,1-.1.1l-1.2.3Zm-50-.5h0l-1.2-.3h-.1a.1.1,0,0,1,.1-.1l1.2.3c.1.1.1.1.1.2Zm52.4-.1h-.1a.1.1,0,0,1,0-.2L94,256c.1,0,.2,0,.2.1h-.1l-1.2.3Zm-54.8-.6h0l-1.1-.4v-.2a.1.1,0,0,1,.2,0l1.1.4a.1.1,0,0,1,.1.1Zm57.1,0h-.1c0-.1,0-.1.1-.1l1.1-.4c.1-.1.1,0,.2,0v.2l-1.1.4ZM35.9,255h-.1l-1-.6c-.1,0-.1-.1,0-.2h.1l1.1.6h-.1Zm61.6,0h-.1c-.1,0-.1-.1,0-.1l1-.6h.2v.2l-1.1.6ZM34,253.7h-.1a1.6,1.6,0,0,1-.5-1l.2-.2h0v.2a1.2,1.2,0,0,0,.4.9H34Zm65.4-.1h-.1c-.1,0-.1-.1,0-.1a2.1,2.1,0,0,0,.4-1h0c-.1-.1,0-.1.1-.1h.1a1.7,1.7,0,0,1-.4,1.1Zm-65.5-1.9h-.1l.9-.8h.2c.1.1,0,.1,0,.2a3.5,3.5,0,0,0-.9.7Zm65.4-.1h-.1l-.8-.7a.1.1,0,0,1-.1-.1h.2l.9.8c.1.1.1.1,0,.2Zm-63.5-1.3h0l1.1-.5h.2a.1.1,0,0,1-.1.1l-1.1.5Zm61.6,0h0l-1.1-.4c-.1,0-.1-.1-.1-.2h.2l1.1.5h0A.1.1,0,0,1,97.4,250.3Zm-59.3-.9H38l1.2-.4h.1l-1.2.4Zm57.1,0h-.1L94,249h0l1.2.4a.1.1,0,0,1,.1.1Zm-54.8-.7h-.1c0-.1,0-.2.1-.2l1.2-.3a.1.1,0,0,1,.1.1c.1.1,0,.1-.1.2l-1.1.2Zm52.4,0h0l-1.2-.3h-.1c0-.1.1-.1.2-.1l1.2.3s.1.1,0,.1Zm-50-.5h0l1.2-.2c.1-.1.1,0,.1,0s0,.2-.1.2l-1.2.2Zm47.6,0h0l-1.2-.2v-.2h.2l1.2.3h-.1Zm-45.2-.4h0l1.2-.2h0l-1.2.2Zm42.8,0h0l-1.2-.2c-.1,0-.1-.1-.1-.2h.1l1.2.2c.1,0,.2.1.1.2A.1.1,0,0,1,88,247.8Zm-40.4-.4h0l1.2-.2h.1l-1.2.2Zm38,0h0l-1.2-.2h0l1.2.2c.1,0,.1,0,.1.1Zm-35.5-.3H50c-.1-.1,0-.1.1-.1h0Zm33.1,0H81.9v-.2H82l1.2.2h0Zm-30.7-.2h-.1c0-.1,0-.2.1-.2h1.4c0,.1-.1.1-.1.2Zm28.2,0h0c.1,0,.2.1.1.2ZM55,246.7h-.2l.2-.2h0Zm23.3,0H77v-.2h1.5Zm-20.9-.2h0Zm18.4,0H74.5a.1.1,0,0,1,.1-.1h1.2Zm-15.9-.1h-.2c0-.1.1-.1.2-.1h1.3c0,.1,0,.1-.1.1Zm13.5,0H72.1a.1.1,0,0,1-.1-.1h1.4a.1.1,0,0,1,.1.1Zm-11.1-.1a.1.1,0,0,1-.1-.1h.1Zm8.6,0H69.7a.1.1,0,0,1-.1-.1H71C71,246.3,71,246.3,70.9,246.3Zm-6.1,0c-.1,0-.1-.1-.1-.2h.1Zm3.7,0h.1Z"/><ellipse class="am" cx="66.7" cy="252.5" rx="30.4" ry="5.3"/><path class="ao" d="M36.8,253.6c2.9-2.4,15.2-4.2,29.9-4.2s27,1.8,29.8,4.2a1.4,1.4,0,0,0,.6-1.1c0-2.9-13.6-5.3-30.4-5.3s-30.5,2.4-30.5,5.3A1.4,1.4,0,0,0,36.8,253.6Z"/><path class="ao" d="M56.9,255.3a5.4,5.4,0,0,1-2.7-1H52.5l-1.7-.2c-.5-.1-.7-.2-.7-.3s.2-.3.7-.4h3.3c.3-.6,1.1-1,2.3-1.4l.9-.2h3.1l.8.3-.2.2-.5.2a3.3,3.3,0,0,0-1.2.6c-.2.2-.4.4-.4.6s.2.4.7.5a4.4,4.4,0,0,0,1.8.2h1.2l.8-.3.7-.5a10.1,10.1,0,0,1,1.3-.9l2.2-.6,3.9-.2a22.7,22.7,0,0,1,4.8.4,7.2,7.2,0,0,1,2.8,1h1.7l1.8.2.6.3c0,.2-.2.3-.6.4H79.2a5.3,5.3,0,0,1-2.2,1.2l-1,.2H73c-.5-.1-.8-.2-.8-.3V255l.6-.2.5-.2c.3-.1.6-.2.7-.4s.3-.2.3-.4-.2-.4-.7-.5l-1.8-.2-1.7.2-1.1.7a3.8,3.8,0,0,1-1.3.9l-2.1.6-4,.2A22.1,22.1,0,0,1,56.9,255.3Z"/><path class="ao" d="M95.3,257v6.6l.7-.2v-6.6Z"/><path class="ao" d="M88,258.5v6.6h.8v-6.6Z"/><path class="ao" d="M80.8,259.3v6.6h.7v-6.6Z"/><path class="ao" d="M73.6,259.8v6.6h.7v-6.6Z"/><path class="ao" d="M66.7,259.9h-.4v6.6H67v-6.6Z"/><path class="ao" d="M59.1,259.7v6.6h.7v-6.6Z"/><path class="ao" d="M51.8,259.2v6.6h.7v-6.6Z"/><path class="ao" d="M44.6,258.4V265h.7v-6.6Z"/><path class="ao" d="M37.3,256.8v6.6l.8.2V257Z"/><path class="am" d="M35.5,251.9c0,4.1,16.2,7.4,36.2,7.4s36.2-3.3,36.2-7.4v-6.6H35.5Z"/><ellipse class="an" cx="71.7" cy="245.3" rx="36.2" ry="7.4"/><path class="ao" d="M71.7,251.8h-.6c-.1,0-.2,0-.2-.1h1.5c0,.1,0,.1-.1.1Zm-1.9,0H68.6a.1.1,0,0,1-.1-.1H70C70,251.8,69.9,251.8,69.8,251.8Zm3.7,0a.1.1,0,0,1-.1-.1h.1Zm-6.1,0h0c.1,0,.1.1.1.2A.1.1,0,0,1,67.4,251.8Zm8.6,0a.1.1,0,0,1-.1-.1c0-.1,0-.2.1-.2h0Zm-11.1-.1Zm13.5,0h0Zm-15.9-.1h0c.1,0,.1.1.1.2Zm18.4,0h-.1c0-.1,0-.2.1-.2h0ZM60,251.4H58.8c-.1,0-.1,0-.1-.1H60c.1,0,.2,0,.1.1Zm23.3,0h-.1a.1.1,0,0,1,.1-.1h1.4a.1.1,0,0,1-.1.1H83.3Zm-25.7-.2Zm28.2,0h0ZM55.1,251h0l-1.2-.2c-.1,0-.1,0-.1-.1h1.4v.2Zm33.1,0h-.1c0-.1,0-.2.1-.2h1.3l-1.3.2Zm-35.5-.3h0l-1.2-.2h1.2v.2Zm38,0h-.2v-.2h1.3l-1.2.2Zm-40.4-.4h0l-1.3-.2s-.1-.1,0-.1h.1l1.2.2h.1A.1.1,0,0,1,50.3,250.3Zm42.8,0c-.1,0-.1,0-.1-.1h.1l1.2-.2h0l-1.2.2Zm-45.2-.4h-.1l-1.2-.3s-.1-.1,0-.1h.1l1.2.2c.1.1.1.1.1.2Zm47.6,0h-.1c0-.1,0-.1.1-.2l1.2-.2h0l-1.2.3Zm-50-.6h0l-1.2-.3h0l1.2.3c.1,0,.1.1.1.2Zm52.4,0c-.1,0-.1,0-.1-.1s0-.1,0-.1l1.2-.3h.1l-1.2.3Zm-54.8-.6h0l-1.1-.4v-.2h.2l1.1.4h-.1Zm57.1,0h-.1v-.2l1.1-.4h.1l-1.1.5Zm-59.3-.9h-.1l-1-.6c-.1-.1-.1-.1,0-.2h.1l1.1.6h0A.1.1,0,0,1,40.9,247.8Zm61.6,0c-.1,0-.1,0-.1-.1s-.1-.1,0-.1l1-.6h.2v.2l-1.1.6ZM39,246.4h-.1a1.6,1.6,0,0,1-.5-1.1h.3a1.4,1.4,0,0,0,.4,1H39Zm65.4,0h-.1c-.1,0-.1-.1,0-.2a1.8,1.8,0,0,0,.4-.9h0c-.1-.1,0-.1.1-.1h0a.1.1,0,0,1,.1.1h0a1.7,1.7,0,0,1-.4,1.1Zm-65.5-2h-.1l.9-.8h.2c.1,0,0,.1,0,.1a3.6,3.6,0,0,0-.9.8Zm65.4,0h-.1l-.8-.7c-.1,0-.1-.1-.1-.2h.2a3.6,3.6,0,0,1,.9.8c.1,0,.1.1,0,.2Zm-63.5-1.3h0l1.1-.5h.2c0,.1,0,.2-.1.2l-1.1.5Zm61.6-.1h0l-1.1-.4v-.2h.2l1.1.4v.2Zm-59.3-.8H43l1.2-.4h.2c0,.1,0,.1-.1.1l-1.2.4Zm57.1,0h-.1l-1.1-.4a.1.1,0,0,1-.1-.1H99l1.2.4h0Zm-54.8-.7h0l1.2-.3h.1c.1.1,0,.1-.1.1l-1.1.3Zm52.4,0h0l-1.2-.3h.1l1.2.3s.1.1,0,.1Zm-50-.5h0l1.2-.3h.1v.2l-1.2.2Zm47.6,0h0l-1.2-.3h.1l1.2.3h-.1Zm-45.2-.4h-.1c0-.1,0-.2.1-.2l1.2-.2h.2a.2.2,0,0,1-.2.2l-1.2.2Zm42.8-.1h0l-1.2-.2c-.1,0-.1,0-.1-.1h.1l1.2.2h0Zm-40.4-.3h0l1.2-.2h.1l-1.2.2Zm38,0h0l-1.2-.2h0l1.2.2h0Zm-35.5-.3H55c-.1-.1,0-.1.1-.1l1.2-.2h.1c0,.1,0,.2-.1.2Zm33.1,0h0l-1.3-.2H87l1.2.2a.1.1,0,0,1,.1.1Zm-30.7-.3h0Zm28.2,0h0c.1,0,.2.1.1.1ZM60,239.4h1.3c0,.1,0,.2-.1.2Zm23.3,0H82c0-.1-.1-.1-.1-.2h1.4a.1.1,0,0,1,.1.1Zm-20.9-.1h0Zm18.4,0Zm-15.9-.1h-.2l.2-.2h0Zm13.5,0h0v.2Zm-11.1-.1h1.4v.2Zm8.6,0H74.7c-.1,0-.1-.1-.1-.2h1.3Zm-6.1-.1h0Zm3.7,0Z"/><ellipse class="am" cx="71.7" cy="245.3" rx="30.4" ry="5.3"/><path class="ao" d="M41.8,246.4c2.9-2.4,15.2-4.2,29.9-4.2s26.9,1.8,29.8,4.2a1.5,1.5,0,0,0,.6-1.1c0-2.9-13.6-5.3-30.4-5.3s-30.5,2.4-30.5,5.3A1.5,1.5,0,0,0,41.8,246.4Z"/><path class="ao" d="M61.9,248.1a5.4,5.4,0,0,1-2.7-1H57.5l-1.7-.2c-.5-.1-.7-.2-.7-.3s.2-.3.7-.4h3.3c.3-.6,1.1-1,2.3-1.4l.9-.2h3.1l.8.3-.2.2-.5.2a3.3,3.3,0,0,0-1.2.6.7.7,0,0,0-.4.5c0,.3.2.5.7.6l1.8.2h1.2l.8-.3.7-.5a5.1,5.1,0,0,1,1.3-.9l2.2-.6,3.9-.2a22.7,22.7,0,0,1,4.8.4,5.9,5.9,0,0,1,2.8,1h1.7l1.8.2.6.3c0,.2-.2.3-.6.4H84.2a5.3,5.3,0,0,1-2.2,1.2l-1,.2H78l-.8-.3v-.2l.6-.2.5-.2.7-.4a.5.5,0,0,0,.3-.4c0-.2-.2-.4-.7-.5a4.4,4.4,0,0,0-1.8-.2,3.9,3.9,0,0,0-1.7.2,3.4,3.4,0,0,0-1.1.7,3.8,3.8,0,0,1-1.3.9l-2.1.6-4,.2A22.1,22.1,0,0,1,61.9,248.1Z"/><path class="ao" d="M100.3,249.8v6.6l.7-.2v-6.6Z"/><path class="ao" d="M93,251.3v6.6l.8-.2v-6.6Z"/><path class="ao" d="M85.8,252.1v6.6h.7V252Z"/><path class="ao" d="M78.6,252.5v6.6h.7v-6.6Z"/><path class="ao" d="M71.7,252.7h-.4v6.6H72v-6.6Z"/><path class="ao" d="M64.1,252.5v6.6h.7v-6.6Z"/><path class="ao" d="M56.8,252v6.6h.7v-6.6Z"/><path class="ao" d="M49.6,251.1v6.6l.7.2v-6.6Z"/><path class="ao" d="M42.3,249.6v6.6l.8.2v-6.6Z"/><path class="ap" d="M30.1,245.2c0,4.1,16.2,7.4,36.2,7.4s36.2-3.3,36.2-7.4v-6.6H30.1Z"/><ellipse class="an" cx="66.3" cy="238.6" rx="36.2" ry="7.4"/><path class="ao" d="M66.3,245.1h0Zm-1.8,0Zm3.7,0h0Zm-6.2,0h0c.1,0,.2,0,.1.1Zm8.6,0h0Zm-11-.1H58.3v-.2h1.4Zm13.5,0h1.2a.1.1,0,0,1,.1.1v.2Zm-16-.1H55.9c-.1,0-.1,0-.1-.1h1.3c.1,0,.1,0,.1.1Zm18.4,0h-.1a.1.1,0,0,1,.1-.1h1.4a.1.1,0,0,1-.1.1Zm-20.8-.2Zm23.3,0h0Zm-25.8-.2H50.9c0-.1,0-.1.1-.1h1.2Zm28.2,0h1.2c.1,0,.2,0,.2.1H80.4Zm-30.6-.2h0l-1.3-.2h.1l1.2.2h0Zm33.1,0h0l1.2-.2h0l-1.2.2ZM47.3,244h0l-1.2-.2a.1.1,0,0,1-.1-.1h.2l1.2.2h-.1Zm38,0h0l1.2-.2h.1a.1.1,0,0,1-.1.1l-1.2.2Zm-40.4-.4h0l-1.2-.2h-.1a.1.1,0,0,1,.1-.1l1.2.2h0Zm42.8,0h0l1.2-.2H89l-1.3.2Zm-45.2-.4h0l-1.2-.3h-.1a.1.1,0,0,1,.1-.1l1.2.3h0Zm47.6,0h0l1.2-.3h.1l-1.2.3Zm-50-.5h0l-1.2-.4a.1.1,0,0,1-.1-.1H39l1.2.3c0,.1.1.1,0,.2Zm52.4,0h-.1v-.2l1.2-.3h.1c0,.1,0,.1-.1.1l-1.1.3ZM37.8,242h-.1l-1.1-.4c-.1,0-.1-.1-.1-.2h.2l1.1.4h0Zm57.1,0h-.1l1.2-.4h.1v.2l-1.1.4Zm-59.4-.9h0l-1.1-.6h.2l1,.6c.1,0,.1.1,0,.2Zm61.6,0H97l1.1-.6h.1c.1.1.1.2,0,.2l-1,.6Zm-63.5-1.3a.1.1,0,0,1-.1-.1,1.4,1.4,0,0,1-.4-1h.2a1.8,1.8,0,0,0,.4.9c.1,0,.1.1,0,.2Zm65.4-.1h-.1a1.4,1.4,0,0,0,.4-1h.2a1.5,1.5,0,0,1-.4,1.1Zm-65.4-1.9a.1.1,0,0,1-.1-.1s-.1-.1,0-.1a3.6,3.6,0,0,1,.9-.8h.2v.2l-.8.7Zm65.4-.1h-.1a3.6,3.6,0,0,0-.9-.8h0c0-.1.1-.1.2,0l.9.7v.2Zm-63.5-1.3h-.1c-.1,0,0-.1,0-.1l1.1-.5c.1,0,.2,0,.2.1h-.1l-1.1.5Zm61.6,0H97l-1.1-.5c-.1,0-.1-.1-.1-.2H96l1.1.5a.1.1,0,0,1,.1.1Zm-59.4-.9h0l1.2-.4H39v.2l-1.1.3Zm57.1,0h0l-1.2-.4h.1l1.1.4h0Zm-54.7-.7H40a.1.1,0,0,1,0-.2l1.2-.3h.2v.2l-1.2.2Zm52.4,0h-.1l-1.2-.3s-.1,0,0-.1h.1l1.2.3h.1A.1.1,0,0,1,92.5,234.8Zm-50-.5c-.1,0-.2,0-.2-.1h.1l1.2-.2h.1l-1.2.2Zm47.6,0H90l-1.2-.2a.1.1,0,0,1,0-.2h.1l1.2.2h.1A.1.1,0,0,1,90.1,234.3Zm-45.2-.4h-.2a.1.1,0,0,1,.1-.1l1.3-.2h0l-1.2.2Zm42.8,0h-.1l-1.2-.2v-.2h1.4c.1.1.1.1.1.2Zm-40.4-.4h0l1.2-.2h.1c0,.1,0,.1-.1.2Zm37.9,0h0l-1.2-.2c-.1,0-.1,0-.1-.1H84l1.3.2h-.1Zm-35.5-.3h0Zm33.1,0ZM52.2,233H52c0-.1.1-.1.1-.2h1.4c0,.1,0,.2-.1.2Zm28.2,0H79.1c0-.1-.1-.1-.1-.2h1.4v.2Zm-25.8-.2a.1.1,0,0,1-.1-.1v-.2h1.2c.1-.1.1,0,.2.1H54.6Zm23.3,0H76.6c0-.1,0-.2.1-.1h1.2c.1,0,.1.1.1.2A.1.1,0,0,1,77.9,232.8Zm-20.8-.2h0Zm18.4,0Zm-16-.1h0Zm13.5,0H71.7a.1.1,0,0,1,.1-.1H73Zm-11-.1h-.2c0-.1.1-.1.2-.1h1.2c.1,0,.1,0,.1.1H62Zm8.6,0H69.2a.1.1,0,0,1,.1-.1h1.3a.1.1,0,0,1,.1.1Zm-6.2,0h-.1a.3.3,0,0,1,.1-.2h1.4a.3.3,0,0,1-.1.2Zm3.7,0H66.9c-.1,0-.1-.1-.1-.2h1.3c.1,0,.1.1.1.2Z"/><ellipse class="ap" cx="66.3" cy="238.6" rx="30.4" ry="5.3"/><path class="ao" d="M36.5,239.7c2.8-2.4,15.1-4.2,29.8-4.2s27,1.8,29.8,4.2a1.5,1.5,0,0,0,.7-1.1c0-2.9-13.7-5.3-30.5-5.3s-30.4,2.4-30.4,5.3A1.4,1.4,0,0,0,36.5,239.7Z"/><path class="ao" d="M56.5,241.4a5,5,0,0,1-2.6-1H52.2l-1.8-.2-.7-.3c0-.2.3-.3.7-.4h3.3A4.8,4.8,0,0,1,56,238l.9-.2H60l.8.3c0,.1-.1.1-.1.2l-.6.2-1.2.6a.9.9,0,0,0-.3.6c0,.2.2.4.6.5a4.4,4.4,0,0,0,1.8.2h1.3l.7-.3.7-.5,1.4-.9,2.1-.6,3.9-.2a23.7,23.7,0,0,1,4.9.4,4.9,4.9,0,0,1,2.7,1.1h3.5c.5.1.7.2.7.3s-.2.3-.7.4H78.8a4.7,4.7,0,0,1-2.2,1.2l-.9.2H72.6l-.8-.3.2-.2.5-.2.6-.2.7-.4c.2-.1.3-.2.3-.4s-.3-.4-.7-.5l-1.9-.2-1.7.2-1.1.7a4.7,4.7,0,0,1-1.2.9l-2.2.6a21.8,21.8,0,0,1-3.9.2A23.7,23.7,0,0,1,56.5,241.4Z"/><path class="ao" d="M94.9,243.2v6.6l.7-.2V243Z"/><path class="ao" d="M87.7,244.6v6.6h.7v-6.6Z"/><path class="ao" d="M80.4,245.4V252h.8v-6.6Z"/><path class="ao" d="M73.2,245.9v6.6h.7v-6.6Z"/><path class="ao" d="M66.3,246H66v6.6h.7V246Z"/><path class="ao" d="M58.7,245.8v6.6h.7v-6.6Z"/><path class="ao" d="M51.5,245.4V252h.7v-6.6Z"/><path class="ao" d="M44.2,244.5v6.6h.7v-6.6Z"/><path class="ao" d="M37,243v6.6l.7.2v-6.6Z"/><path class="am" d="M34.5,238.6c0,4.1,16.2,7.4,36.2,7.4s36.2-3.3,36.2-7.4V232H34.5Z"/><path class="an" d="M106.9,232c0,4.1-16.2,7.4-36.2,7.4s-36.2-3.3-36.2-7.4,16.2-7.4,36.2-7.4S106.9,227.9,106.9,232Z"/><path class="ao" d="M70.7,238.5h0Zm-1.8,0Zm3.6,0h0Zm-6.1,0H65.2c-.1,0-.2,0-.1-.1s0-.1.1-.1h1.2a.1.1,0,0,1,.1.1C66.5,238.4,66.5,238.5,66.4,238.5Zm8.6,0c-.1,0-.1-.1-.1-.2a.1.1,0,0,1,.1-.1h0Zm-11.1-.1H62.7c-.1,0-.1,0-.1-.1H64a.1.1,0,0,1,.1.1Zm13.6,0h-.2a.1.1,0,0,1,.1-.1h1.4c0,.1,0,.1-.1.1Zm-16-.1h0c.1,0,.1.1.1.2A.1.1,0,0,1,61.5,238.3Zm18.4,0a.1.1,0,0,1-.1-.1c0-.1,0-.2.1-.2h0ZM59,238.1Zm23.4,0h0Zm-25.8-.2H55.4c-.1,0-.2-.1-.1-.1h1.3c.1,0,.1,0,.1.1Zm28.2,0h-.1c0-.1,0-.1.1-.1h1.3c.1,0,0,.1-.1.1Zm-30.6-.2h-.1l-1.2-.2h1.3v.2Zm33,0h-.1v-.2h1.3l-1.2.2Zm-35.5-.3h0l-1.2-.2h1.2c.1,0,.2.1.1.2Zm38,0h-.1c-.1-.1,0-.2.1-.2h1.2l-1.2.2ZM49.3,237h0l-1.2-.2a.1.1,0,0,1-.1-.1h.1l1.2.2h0Zm42.8,0h0l1.2-.2h.1a.1.1,0,0,1-.1.1l-1.2.2Zm-45.2-.4h0l-1.2-.3a.1.1,0,0,1-.1-.1h.1l1.2.2v.2Zm47.6,0h-.1v-.2l1.2-.2h.1a.1.1,0,0,1-.1.1l-1.2.3Zm-50-.6h0l-1.2-.3h.1l1.1.3c.1,0,.1.1.1.2Zm52.4,0h0l1.1-.3h.1l-1.2.3Zm-54.7-.6h-.1L41,235v-.2a.1.1,0,0,1,.2,0l1.1.4c.1,0,.1,0,.1.1Zm57,0h-.1c0-.1,0-.1.1-.2l1.1-.4c.1,0,.2,0,.2.1h-.1l-1.1.5Zm-59.3-.9h0l-1.1-.6c0-.1-.1-.1,0-.2H39l1,.6s.1.1,0,.1Zm61.6,0h-.1c-.1,0,0-.1,0-.1l1-.6h.2c.1.1,0,.1,0,.2l-1.1.6ZM38,233.1h-.1a1.5,1.5,0,0,1-.4-1.1h.2a1.4,1.4,0,0,0,.4,1H38Zm65.4,0h-.1a.1.1,0,0,1,0-.2,1.8,1.8,0,0,0,.4-.9h0c0-.1,0-.2.1-.2h0c.1,0,.1.1.1.2h0a1.7,1.7,0,0,1-.4,1.1Zm-65.4-2h-.1c-.1,0-.1-.1,0-.1a2.4,2.4,0,0,1,.9-.8h.1c.1,0,.1.1,0,.1l-.8.8Zm65.4,0h-.1a7.1,7.1,0,0,0-.9-.7c-.1,0-.1-.1,0-.2h.1l1,.8h-.1Zm-63.5-1.3c-.1,0-.1,0-.1-.1s-.1-.1,0-.1l1.1-.5h.2c0,.1,0,.2-.1.2l-1.1.5Zm61.5-.1h0l-1.1-.4v-.2h.2l1.1.4c0,.1.1.1,0,.2Zm-59.3-.8H42a.1.1,0,0,1,.1-.1l1.1-.4h.1l-1.1.4Zm57.1,0h-.1l-1.1-.4h.1l1.1.3c.1.1.1.1.1.2Zm-54.8-.7h0l1.2-.3h.1l-1.2.3Zm52.4,0h0l-1.2-.3h-.1c0-.1.1-.1.2-.1l1.2.3h-.1Zm-50-.5h0l1.2-.3h.2v.2l-1.2.2Zm47.7,0h-.1l-1.2-.3h.1l1.2.3h0Zm-45.3-.5h-.1c0-.1,0-.2.1-.2l1.2-.2h.2v.2H49.2Zm42.8,0h0l-1.2-.2h.1l1.2.2H92Zm-40.3-.3h-.2a.1.1,0,0,1,.1-.1l1.3-.2h0l-1.2.2Zm37.9,0h0l-1.2-.2h0l1.2.2c.1,0,.2,0,.1.1Zm-35.5-.3h0l1.2-.2a.1.1,0,0,1,.1.1v.2Zm33.1,0h0l-1.2-.2h0l1.2.2h0Zm-30.7-.3a.1.1,0,0,1-.1-.1h.1Zm28.2,0h.2C84.9,226.3,84.8,226.3,84.7,226.3ZM59,226.1h1.3v.2Zm23.3,0H81.1c-.1,0-.2,0-.1-.1h1.3ZM61.4,226h1.3a.1.1,0,0,1,.1.1H61.4Zm18.4,0H78.5a.1.1,0,0,1,.1-.1h1.2Zm-15.9-.1h-.1c0-.1,0-.2.1-.2h1.3c0,.1,0,.1-.1.1Zm13.5,0H76.2c-.1,0-.2,0-.2-.1h1.4c.1,0,.1.1.1.2Zm-11.1-.1h1.4v.2Zm8.6,0H73.7c-.1,0-.1-.1-.1-.2h1.3Zm-6.1-.1h0Zm3.7,0Z"/><ellipse class="am" cx="70.7" cy="232" rx="30.4" ry="5.3"/><path class="ao" d="M40.9,233.1c2.8-2.4,15.1-4.3,29.8-4.3s27,1.9,29.8,4.3a1.5,1.5,0,0,0,.6-1.1c0-2.9-13.6-5.3-30.4-5.3s-30.5,2.4-30.5,5.3C40.2,232.4,40.5,232.7,40.9,233.1Z"/><path class="ao" d="M60.9,234.8a4.2,4.2,0,0,1-2.6-1.1H54.8c-.5-.1-.7-.2-.7-.3s.2-.3.7-.4h3.3a4.1,4.1,0,0,1,2.3-1.4l.9-.2h3.1l.8.3-.2.2-.5.2a3.3,3.3,0,0,0-1.2.6.5.5,0,0,0-.3.5q0,.5.6.6l1.8.2h1.2l.8-.3.7-.5a5.1,5.1,0,0,1,1.3-.9l2.2-.6,3.9-.2a23.7,23.7,0,0,1,4.9.4,5.8,5.8,0,0,1,2.7,1h1.7l1.8.2.7.3c0,.2-.3.3-.7.4H83.2a4.7,4.7,0,0,1-2.2,1.2l-.9.2H77c-.5-.1-.8-.2-.8-.3l.2-.2.5-.2.6-.2.7-.4.2-.4c0-.2-.2-.4-.7-.5a4.4,4.4,0,0,0-1.8-.2,4.2,4.2,0,0,0-1.7.2,3.4,3.4,0,0,0-1.1.7,3.8,3.8,0,0,1-1.3.9l-2.1.6-4,.2A22.1,22.1,0,0,1,60.9,234.8Z"/><path class="ao" d="M99.3,236.5v6.6l.7-.2v-6.6Z"/><path class="ao" d="M92.1,238v6.6l.7-.2v-6.6Z"/><path class="ao" d="M84.8,238.8v6.6h.7v-6.6Z"/><path class="ao" d="M77.6,239.2v6.6h.7v-6.6Z"/><path class="ao" d="M70.7,239.4h-.4V246H71v-6.6Z"/><path class="ao" d="M63.1,239.2v6.6h.7v-6.6Z"/><path class="ao" d="M55.8,238.7v6.6h.8v-6.6Z"/><path class="ao" d="M48.6,237.8v6.6l.7.2V238Z"/><path class="ao" d="M41.4,236.3v6.6l.7.2v-6.6Z"/><path class="ap" d="M30.1,231.4c0,4.1,16.2,7.4,36.2,7.4s36.2-3.3,36.2-7.4v-6.6H30.1Z"/><ellipse class="an" cx="66.3" cy="224.8" rx="36.2" ry="7.4"/><path class="ao" d="M66.3,231.3h-.6a.1.1,0,0,1-.1-.1h.7Zm-1.8,0H63.1l.2-.2h1.2Zm3.7,0h1.2c.1,0,.1.1.1.2a.1.1,0,0,1-.1.1Zm-6.2-.1Zm8.6,0h0Zm-11,0h0v.2Zm13.5,0H73c0-.1,0-.2.1-.2h0Zm-16-.2H55.8c0-.1,0-.2.1-.1h1.2Zm18.4,0h1.4v.2Zm-20.8-.1h0a.1.1,0,0,1,.1.1Zm23.3,0h-.1c0-.1,0-.1.1-.1h1.3a.1.1,0,0,1-.1.1Zm-25.8-.2H51c-.1,0-.1-.1-.1-.2h1.3Zm28.2,0h0l1.2-.2h.2v.2Zm-30.6-.3h0a.1.1,0,0,1,.1.1Zm33.1,0h1.3a.1.1,0,0,1-.1.1Zm-35.6-.3H46.1c-.1,0-.1-.1-.1-.2a.1.1,0,0,1,.2,0h1.1Zm38,0h0l1.2-.2a.1.1,0,0,1,.1.1c0,.1,0,.2-.1.2Zm-40.4-.3h0l-1.2-.2c-.1,0-.1-.1-.1-.2h.1l1.2.2c.1,0,.2,0,.1.1A.1.1,0,0,1,44.9,229.8Zm42.8,0h0l1.2-.2h.2v.2l-1.3.2Zm-45.2-.5h0l-1.2-.2h0l1.2.2c.1,0,.1.1.1.2Zm47.6,0H90c0-.1,0-.2.1-.2l1.2-.2h.1l-1.2.2Zm-50-.5h0l-1.2-.3H39l1.2.3s.1.1,0,.1S40.2,228.8,40.1,228.8Zm52.4,0a.1.1,0,0,1-.1-.1h.1l1.2-.3h0l-1.1.3Zm-54.7-.6h-.1l-1.1-.4h.1l1.1.4v.2Zm57.1-.1h-.2v-.2l1.2-.4h0l-1.1.4Zm-59.4-.8h0l-1.1-.6v-.2h.2l1,.6c.1,0,.1.1,0,.1A.1.1,0,0,1,35.5,227.3Zm61.6,0H97V227l1.1-.5h.1c.1,0,.1.1,0,.1l-1,.6A.1.1,0,0,0,97.1,227.3Zm-63.5-1.4h-.1a1.7,1.7,0,0,1-.4-1.1.1.1,0,0,1,.1-.1h0a.1.1,0,0,1,.1.1,2.6,2.6,0,0,0,.4,1c.1,0,.1.1,0,.1Zm65.4,0h-.1v-.2a1.2,1.2,0,0,0,.4-.9h.2a1.7,1.7,0,0,1-.4,1.1Zm-65.4-2h-.1a.1.1,0,0,1,0-.2,3.5,3.5,0,0,1,.9-.7h.1a6,6,0,0,0-.8.8Zm65.4,0h-.1a3.5,3.5,0,0,0-.9-.7v-.2h.2a7.3,7.3,0,0,1,.9.8H99Zm-63.5-1.3h-.1c-.1,0,0-.1,0-.1l1.1-.5h.2v.2l-1.1.4Zm61.6-.1H97l-1.1-.5H96l1.1.5c.1,0,.1.1.1.2Zm-59.4-.8h0l1.2-.4H39a.1.1,0,0,1-.1.1l-1.1.4Zm57.1-.1h0l-1.2-.3a.1.1,0,0,1-.1-.1h.2l1.1.3v.2ZM40.1,221H40c-.1,0,0-.1,0-.1l1.2-.3h.1l-1.2.3Zm52.4,0h-.1l-1.2-.3s-.1-.1,0-.1h.1l1.2.3h0Zm-50-.5h-.1l1.2-.3h.1l-1.2.3Zm47.6,0H90l-1.2-.3s-.1,0,0-.1h.1l1.2.2c.1,0,.1.1.1.2ZM44.9,220h-.1l1.3-.2h.1c0,.1,0,.1-.1.1l-1.2.2Zm42.8,0h-.1l-1.2-.2a.1.1,0,0,1-.1-.1h.2l1.2.2h0Zm-40.4-.3h0l1.2-.2h0l-1.2.2Zm37.9,0h0l-1.2-.2h1.3v.2Zm-35.5-.3h-.1c0-.1,0-.1.1-.1l1.2-.2H51l-1.3.2Zm33.1,0h0l-1.2-.2h1.2c.1,0,.1.1.1.2Zm-30.6-.3h0Zm28.2,0Zm-25.8-.2h-.1a.1.1,0,0,1,.1-.1H56c0,.1-.1.1-.2.1Zm23.3,0H76.7c-.1,0-.1,0-.1-.1h1.3a.1.1,0,0,1,.1.1Zm-20.8-.1h-.2v-.2h.1Zm18.4,0h0v.2Zm-16-.2h0Zm13.5,0Zm-11,0h-.2l.2-.2h0Zm8.6,0h0v.2Zm-6.2-.1h0Zm3.7,0Z"/><ellipse class="ap" cx="66.3" cy="224.8" rx="30.4" ry="5.3"/><path class="ao" d="M36.5,225.9c2.8-2.5,15.1-4.3,29.8-4.3s27,1.8,29.8,4.3c.4-.4.7-.7.7-1.1,0-2.9-13.7-5.3-30.5-5.3s-30.4,2.4-30.4,5.3A1.5,1.5,0,0,0,36.5,225.9Z"/><path class="ao" d="M94.9,229.3v6.6l.7-.2v-6.6Z"/><path class="ao" d="M87.7,230.7v6.6h.7v-6.6Z"/><path class="ao" d="M80.4,231.6v6.6h.8v-6.6Z"/><path class="ao" d="M73.2,232v6.6h.7V232Z"/><path class="ao" d="M66.3,232.2H66v6.6h.7v-6.6Z"/><path class="ao" d="M58.7,232v6.6h.7V232Z"/><path class="ao" d="M51.5,231.5v6.6h.7v-6.6Z"/><path class="ao" d="M44.2,230.6v6.6h.7v-6.6Z"/><path class="ao" d="M37,229.1v6.6l.7.2v-6.6Z"/></g></svg>