<svg xmlns="http://www.w3.org/2000/svg" xmlns:xlink="http://www.w3.org/1999/xlink" viewBox="0 0 400 400"><defs><style>.a,.k,.l,.o,.p{fill:none;}.b,.d{isolation:isolate;}.c{font-size:38.64px;fill:#fff;font-family:AdobeArabic-Regular, Adobe Arabic;}.d{opacity:0.58;fill:url(#a);}.e{fill:#164571;}.f{fill:#0e71bb;}.g{fill:#005b9f;}.h{fill:#21e2e2;}.i{fill:#ffbc98;}.j{fill:#52acea;}.k,.l{stroke:#083872;}.k,.l,.o,.p{stroke-linecap:round;stroke-miterlimit:10;}.k{stroke-width:3.03px;}.l{stroke-width:2.96px;}.m{fill:#001c45;}.n{fill:#85b8ed;}.o{stroke:#001c45;stroke-width:2.34px;}.p{stroke:#ea5e5d;stroke-width:5.31px;}.q{fill:#ff9a8d;}.r{fill:#263238;}.s{fill:#1f364c;}.t{clip-path:url(#b);}.u{fill:url(#c);}.v{fill:#f0d2b9;}.w{fill:url(#d);}.x{fill:#f59b6b;}.y{fill:#db8965;}.z{fill:url(#e);}.aa{fill:url(#f);}.ab{fill:url(#g);}.ac{fill:url(#h);}.ad{fill:url(#i);}.ae{fill:url(#j);}.af{fill:url(#k);}.ag{fill:url(#l);}.ah{fill:url(#m);}.ai{fill:url(#n);}.aj{fill:url(#o);}.ak{opacity:0.25;mix-blend-mode:overlay;}</style><linearGradient id="a" x1="220.13" y1="379.53" x2="167.47" y2="80.92" gradientUnits="userSpaceOnUse"><stop offset="0" stop-color="#c6e6ff"/><stop offset="1" stop-color="#fff"/></linearGradient><clipPath id="b"><path class="a" d="M318.5,315.8s-32.8-33.3-35.3-36.1-12.8-57.9-13.5-62.1c0,0-10.3-10.4-10.6-19.1l33.4-16.8c1.4,5.4,2.6,5.6,3.6,19.5.4,7.1,2,36.4,3.1,71a44.6,44.6,0,0,1,8.7,7c4.3,4.1,17.3,29.8,17.3,29.8A11.3,11.3,0,0,1,318.5,315.8Z"/></clipPath><linearGradient id="c" x1="79.35" y1="125.89" x2="94.74" y2="125.89" gradientTransform="matrix(-1, 0, 0, 1, 353.29, 0)" gradientUnits="userSpaceOnUse"><stop offset="0" stop-color="#efd9c0"/><stop offset="1" stop-color="#ffe7cb"/></linearGradient><linearGradient id="d" x1="78.25" y1="110.58" x2="105.06" y2="110.58" xlink:href="#c"/><linearGradient id="e" x1="67.86" y1="174.91" x2="141.47" y2="174.91" xlink:href="#c"/><linearGradient id="f" x1="216.55" y1="267.64" x2="228.31" y2="267.64" gradientUnits="userSpaceOnUse"><stop offset="0" stop-color="#ffbc98"/><stop offset="1" stop-color="#ff9f6c"/></linearGradient><linearGradient id="g" x1="208.08" y1="274.77" x2="214.4" y2="274.77" xlink:href="#f"/><linearGradient id="h" x1="213.99" y1="278.9" x2="231.4" y2="278.9" xlink:href="#f"/><linearGradient id="i" x1="202.21" y1="284.21" x2="213.16" y2="284.21" xlink:href="#f"/><linearGradient id="j" x1="189.86" y1="294.24" x2="215.11" y2="294.24" xlink:href="#f"/><linearGradient id="k" x1="217.51" y1="296.53" x2="227.54" y2="296.53" xlink:href="#f"/><linearGradient id="l" x1="221.34" y1="309.81" x2="227.55" y2="309.81" xlink:href="#f"/><linearGradient id="m" x1="225.04" y1="318.74" x2="235.48" y2="318.74" xlink:href="#f"/><linearGradient id="n" x1="196.15" y1="319.97" x2="224.35" y2="319.97" xlink:href="#f"/><linearGradient id="o" x1="195.08" y1="307.01" x2="219.87" y2="307.01" xlink:href="#f"/></defs><title>buy dedicated server</title><g class="b"><text class="c" transform="translate(53.3 -46.2)"> یصاصتخا روس دیرخ *</text><path class="d" d="M360.3,354.4a23.8,23.8,0,0,0,21.1-12.3c23.6-43.2,15.4-106.8-16.3-123.8-39.7-21.3,16.4-83.7-36.3-115.4S233.5,143.4,162,104,35.1,124.4,43.4,167.3c5.8,29.9,21,55.9-18.7,94.2C-2.6,287.8,20,325,36.8,345.7a24.3,24.3,0,0,0,18.8,8.7Z"/><rect class="e" x="90.3" y="219.6" width="71" height="5.62" rx="0.8"/><rect class="f" x="88.1" y="199.9" width="75.6" height="21.16" rx="2"/><path class="g" d="M161.5,199.9H135.9v21.2h25.6a2.1,2.1,0,0,0,2.1-2.1V202a2.1,2.1,0,0,0-2.1-2.1Z"/><path class="h" d="M153.1,208.7h0a2.2,2.2,0,0,0-2.2,2.2h0a2.2,2.2,0,0,0,2.2,2.2h0a2.2,2.2,0,0,0,2.2-2.2h0A2.2,2.2,0,0,0,153.1,208.7Z"/><path class="i" d="M146.7,208.7h0a2.2,2.2,0,0,0-2.2,2.2h0a2.2,2.2,0,0,0,2.2,2.2h0a2.2,2.2,0,0,0,2.2-2.2h0A2.2,2.2,0,0,0,146.7,208.7Z"/><rect class="j" x="128.5" y="205.9" width="2.1" height="2.13" rx="1.1"/><rect class="j" x="126" y="210.2" width="2.1" height="2.13" rx="1.1"/><rect class="j" x="107.2" y="205.9" width="2.1" height="2.13" rx="1.1"/><rect class="j" x="104.7" y="210.2" width="2.1" height="2.13" rx="1.1"/><rect class="j" x="124.3" y="205.9" width="2.1" height="2.13" rx="1.1"/><rect class="j" x="121.7" y="210.2" width="2.1" height="2.13" rx="1.1"/><rect class="j" x="120" y="205.9" width="2.1" height="2.13" rx="1.1"/><rect class="j" x="117.5" y="210.2" width="2.1" height="2.13" rx="1.1"/><rect class="j" x="115.8" y="205.9" width="2.1" height="2.13" rx="1.1"/><rect class="j" x="113.2" y="210.2" width="2.1" height="2.13" rx="1.1"/><rect class="j" x="111.5" y="205.9" width="2.1" height="2.13" rx="1.1"/><rect class="j" x="108.9" y="210.2" width="2.1" height="2.13" rx="1.1"/><rect class="j" x="128.7" y="214.1" width="2.1" height="2.13" rx="1.1"/><rect class="j" x="107.4" y="214.1" width="2.1" height="2.13" rx="1.1"/><rect class="j" x="124.5" y="214.1" width="2.1" height="2.13" rx="1.1"/><rect class="j" x="120.2" y="214.1" width="2.1" height="2.13" rx="1.1"/><rect class="j" x="115.5" y="214.1" width="2.1" height="2.13" rx="1.1"/><rect class="j" x="111.3" y="214.1" width="2.1" height="2.13" rx="1.1"/><rect class="j" x="99.4" y="205.9" width="2.1" height="2.13" rx="1.1"/><rect class="j" x="96.8" y="210.2" width="2.1" height="2.13" rx="1.1"/><rect class="j" x="103.6" y="205.9" width="2.1" height="2.13" rx="1.1"/><rect class="j" x="100.7" y="210.2" width="2.1" height="2.13" rx="1.1"/><rect class="j" x="99.6" y="214.1" width="2.1" height="2.13" rx="1.1"/><rect class="j" x="103.4" y="214.1" width="2.1" height="2.13" rx="1.1"/><rect class="j" x="95.5" y="205.9" width="2.1" height="2.13" rx="1.1"/><rect class="j" x="92.9" y="210.2" width="2.1" height="2.13" rx="1.1"/><rect class="j" x="95.7" y="214.1" width="2.1" height="2.13" rx="1.1"/><rect class="e" x="90.3" y="244.7" width="71" height="5.62" rx="0.8"/><rect class="f" x="88.1" y="225" width="75.6" height="21.16" rx="2"/><path class="g" d="M161.5,225H135.9v21.2h25.6a2.1,2.1,0,0,0,2.1-2.1v-17a2.1,2.1,0,0,0-2.1-2.1Z"/><path class="h" d="M153.1,233.8h0a2.2,2.2,0,0,0-2.2,2.2h0a2.2,2.2,0,0,0,2.2,2.2h0a2.2,2.2,0,0,0,2.2-2.2h0A2.2,2.2,0,0,0,153.1,233.8Z"/><path class="i" d="M146.7,233.8h0a2.2,2.2,0,0,0-2.2,2.2h0a2.2,2.2,0,0,0,2.2,2.2h0a2.2,2.2,0,0,0,2.2-2.2h0A2.2,2.2,0,0,0,146.7,233.8Z"/><rect class="j" x="128.5" y="231" width="2.1" height="2.13" rx="1.1"/><rect class="j" x="126" y="235.3" width="2.1" height="2.13" rx="1.1"/><rect class="j" x="107.2" y="231" width="2.1" height="2.13" rx="1.1"/><rect class="j" x="104.7" y="235.3" width="2.1" height="2.13" rx="1.1"/><rect class="j" x="124.3" y="231" width="2.1" height="2.13" rx="1.1"/><rect class="j" x="121.7" y="235.3" width="2.1" height="2.13" rx="1.1"/><rect class="j" x="120" y="231" width="2.1" height="2.13" rx="1.1"/><rect class="j" x="117.5" y="235.3" width="2.1" height="2.13" rx="1.1"/><rect class="j" x="115.8" y="231" width="2.1" height="2.13" rx="1.1"/><rect class="j" x="113.2" y="235.3" width="2.1" height="2.13" rx="1.1"/><rect class="j" x="111.5" y="231" width="2.1" height="2.13" rx="1.1"/><rect class="j" x="108.9" y="235.3" width="2.1" height="2.13" rx="1.1"/><rect class="j" x="128.7" y="239.2" width="2.1" height="2.13" rx="1.1"/><rect class="j" x="107.4" y="239.2" width="2.1" height="2.13" rx="1.1"/><rect class="j" x="124.5" y="239.2" width="2.1" height="2.13" rx="1.1"/><rect class="j" x="120.2" y="239.2" width="2.1" height="2.13" rx="1.1"/><rect class="j" x="115.5" y="239.2" width="2.1" height="2.13" rx="1.1"/><rect class="j" x="111.3" y="239.2" width="2.1" height="2.13" rx="1.1"/><rect class="j" x="99.4" y="231" width="2.1" height="2.13" rx="1.1"/><rect class="j" x="96.8" y="235.3" width="2.1" height="2.13" rx="1.1"/><rect class="j" x="103.6" y="231" width="2.1" height="2.13" rx="1.1"/><rect class="j" x="100.7" y="235.3" width="2.1" height="2.13" rx="1.1"/><rect class="j" x="99.6" y="239.2" width="2.1" height="2.13" rx="1.1"/><rect class="j" x="103.4" y="239.2" width="2.1" height="2.13" rx="1.1"/><rect class="j" x="95.5" y="231" width="2.1" height="2.13" rx="1.1"/><rect class="j" x="92.9" y="235.3" width="2.1" height="2.13" rx="1.1"/><rect class="j" x="95.7" y="239.2" width="2.1" height="2.13" rx="1.1"/><rect class="e" x="90.3" y="194.5" width="71" height="5.62" rx="0.8"/><rect class="f" x="88.1" y="174.8" width="75.6" height="21.16" rx="2"/><path class="g" d="M161.5,174.8H135.9V196h25.6a2.1,2.1,0,0,0,2.1-2.1v-17a2.1,2.1,0,0,0-2.1-2.1Z"/><path class="h" d="M153.1,183.6h0a2.2,2.2,0,0,0-2.2,2.2h0a2.2,2.2,0,0,0,2.2,2.2h0a2.2,2.2,0,0,0,2.2-2.2h0A2.2,2.2,0,0,0,153.1,183.6Z"/><path class="i" d="M146.7,183.6h0a2.2,2.2,0,0,0-2.2,2.2h0a2.2,2.2,0,0,0,2.2,2.2h0a2.2,2.2,0,0,0,2.2-2.2h0A2.2,2.2,0,0,0,146.7,183.6Z"/><rect class="j" x="128.5" y="180.8" width="2.1" height="2.13" rx="1.1"/><rect class="j" x="126" y="185.1" width="2.1" height="2.13" rx="1.1"/><rect class="j" x="107.2" y="180.8" width="2.1" height="2.13" rx="1.1"/><rect class="j" x="104.7" y="185.1" width="2.1" height="2.13" rx="1.1"/><rect class="j" x="124.3" y="180.8" width="2.1" height="2.13" rx="1.1"/><rect class="j" x="121.7" y="185.1" width="2.1" height="2.13" rx="1.1"/><rect class="j" x="120" y="180.8" width="2.1" height="2.13" rx="1.1"/><rect class="j" x="117.5" y="185.1" width="2.1" height="2.13" rx="1.1"/><rect class="j" x="115.8" y="180.8" width="2.1" height="2.13" rx="1.1"/><rect class="j" x="113.2" y="185.1" width="2.1" height="2.13" rx="1.1"/><rect class="j" x="111.5" y="180.8" width="2.1" height="2.13" rx="1.1"/><rect class="j" x="108.9" y="185.1" width="2.1" height="2.13" rx="1.1"/><rect class="j" x="128.7" y="189" width="2.1" height="2.13" rx="1.1"/><rect class="j" x="107.4" y="189" width="2.1" height="2.13" rx="1.1"/><rect class="j" x="124.5" y="189" width="2.1" height="2.13" rx="1.1"/><rect class="j" x="120.2" y="189" width="2.1" height="2.13" rx="1.1"/><rect class="j" x="115.5" y="189" width="2.1" height="2.13" rx="1.1"/><rect class="j" x="111.3" y="189" width="2.1" height="2.13" rx="1.1"/><rect class="j" x="99.4" y="180.8" width="2.1" height="2.13" rx="1.1"/><rect class="j" x="96.8" y="185.1" width="2.1" height="2.13" rx="1.1"/><rect class="j" x="103.6" y="180.8" width="2.1" height="2.13" rx="1.1"/><rect class="j" x="100.7" y="185.1" width="2.1" height="2.13" rx="1.1"/><rect class="j" x="99.6" y="189" width="2.1" height="2.13" rx="1.1"/><rect class="j" x="103.4" y="189" width="2.1" height="2.13" rx="1.1"/><rect class="j" x="95.5" y="180.8" width="2.1" height="2.13" rx="1.1"/><rect class="j" x="92.9" y="185.1" width="2.1" height="2.13" rx="1.1"/><rect class="j" x="95.7" y="189" width="2.1" height="2.13" rx="1.1"/><rect class="e" x="90.3" y="269.8" width="71" height="5.62" rx="0.8"/><rect class="f" x="88.1" y="250.1" width="75.6" height="21.16" rx="2"/><path class="g" d="M161.5,250.1H135.9v21.2h25.6a2.1,2.1,0,0,0,2.1-2.1v-17a2.1,2.1,0,0,0-2.1-2.1Z"/><path class="h" d="M153.1,258.9h0a2.2,2.2,0,0,0-2.2,2.2h0a2.2,2.2,0,0,0,2.2,2.2h0a2.2,2.2,0,0,0,2.2-2.2h0A2.2,2.2,0,0,0,153.1,258.9Z"/><path class="i" d="M146.7,258.9h0a2.2,2.2,0,0,0-2.2,2.2h0a2.2,2.2,0,0,0,2.2,2.2h0a2.2,2.2,0,0,0,2.2-2.2h0A2.2,2.2,0,0,0,146.7,258.9Z"/><rect class="j" x="128.5" y="256.1" width="2.1" height="2.13" rx="1.1"/><rect class="j" x="126" y="260.4" width="2.1" height="2.13" rx="1.1"/><rect class="j" x="107.2" y="256.1" width="2.1" height="2.13" rx="1.1"/><rect class="j" x="104.7" y="260.4" width="2.1" height="2.13" rx="1.1"/><rect class="j" x="124.3" y="256.1" width="2.1" height="2.13" rx="1.1"/><rect class="j" x="121.7" y="260.4" width="2.1" height="2.13" rx="1.1"/><rect class="j" x="120" y="256.1" width="2.1" height="2.13" rx="1.1"/><rect class="j" x="117.5" y="260.4" width="2.1" height="2.13" rx="1.1"/><rect class="j" x="115.8" y="256.1" width="2.1" height="2.13" rx="1.1"/><rect class="j" x="113.2" y="260.4" width="2.1" height="2.13" rx="1.1"/><rect class="j" x="111.5" y="256.1" width="2.1" height="2.13" rx="1.1"/><rect class="j" x="108.9" y="260.4" width="2.1" height="2.13" rx="1.1"/><rect class="j" x="128.7" y="264.3" width="2.1" height="2.13" rx="1.1"/><rect class="j" x="107.4" y="264.3" width="2.1" height="2.13" rx="1.1"/><rect class="j" x="124.5" y="264.3" width="2.1" height="2.13" rx="1.1"/><rect class="j" x="120.2" y="264.3" width="2.1" height="2.13" rx="1.1"/><rect class="j" x="115.5" y="264.3" width="2.1" height="2.13" rx="1.1"/><rect class="j" x="111.3" y="264.3" width="2.1" height="2.13" rx="1.1"/><rect class="j" x="99.4" y="256.1" width="2.1" height="2.13" rx="1.1"/><rect class="j" x="96.8" y="260.4" width="2.1" height="2.13" rx="1.1"/><rect class="j" x="103.6" y="256.1" width="2.1" height="2.13" rx="1.1"/><rect class="j" x="100.7" y="260.4" width="2.1" height="2.13" rx="1.1"/><rect class="j" x="99.6" y="264.3" width="2.1" height="2.13" rx="1.1"/><rect class="j" x="103.4" y="264.3" width="2.1" height="2.13" rx="1.1"/><rect class="j" x="95.5" y="256.1" width="2.1" height="2.13" rx="1.1"/><rect class="j" x="92.9" y="260.4" width="2.1" height="2.13" rx="1.1"/><rect class="j" x="95.7" y="264.3" width="2.1" height="2.13" rx="1.1"/><rect class="f" x="88.1" y="275.2" width="75.6" height="21.16" rx="2"/><path class="g" d="M161.5,275.2H135.9v21.2h25.6a2.1,2.1,0,0,0,2.1-2.1v-17a2.1,2.1,0,0,0-2.1-2.1Z"/><path class="h" d="M153.1,284h0a2.2,2.2,0,0,0-2.2,2.2h0a2.2,2.2,0,0,0,2.2,2.2h0a2.2,2.2,0,0,0,2.2-2.2h0A2.2,2.2,0,0,0,153.1,284Z"/><path class="i" d="M146.7,284h0a2.2,2.2,0,0,0-2.2,2.2h0a2.2,2.2,0,0,0,2.2,2.2h0a2.2,2.2,0,0,0,2.2-2.2h0A2.2,2.2,0,0,0,146.7,284Z"/><rect class="j" x="128.5" y="281.2" width="2.1" height="2.13" rx="1.1"/><rect class="j" x="126" y="285.5" width="2.1" height="2.13" rx="1.1"/><rect class="j" x="107.2" y="281.2" width="2.1" height="2.13" rx="1.1"/><rect class="j" x="104.7" y="285.5" width="2.1" height="2.13" rx="1.1"/><rect class="j" x="124.3" y="281.2" width="2.1" height="2.13" rx="1.1"/><rect class="j" x="121.7" y="285.5" width="2.1" height="2.13" rx="1.1"/><rect class="j" x="120" y="281.2" width="2.1" height="2.13" rx="1.1"/><rect class="j" x="117.5" y="285.5" width="2.1" height="2.13" rx="1.1"/><rect class="j" x="115.8" y="281.2" width="2.1" height="2.13" rx="1.1"/><rect class="j" x="113.2" y="285.5" width="2.1" height="2.13" rx="1.1"/><rect class="j" x="111.5" y="281.2" width="2.1" height="2.13" rx="1.1"/><rect class="j" x="108.9" y="285.5" width="2.1" height="2.13" rx="1.1"/><rect class="j" x="128.7" y="289.4" width="2.1" height="2.13" rx="1.1"/><rect class="j" x="107.4" y="289.4" width="2.1" height="2.13" rx="1.1"/><rect class="j" x="124.5" y="289.4" width="2.1" height="2.13" rx="1.1"/><rect class="j" x="120.2" y="289.4" width="2.1" height="2.13" rx="1.1"/><rect class="j" x="115.5" y="289.4" width="2.1" height="2.13" rx="1.1"/><rect class="j" x="111.3" y="289.4" width="2.1" height="2.13" rx="1.1"/><rect class="j" x="99.4" y="281.2" width="2.1" height="2.13" rx="1.1"/><rect class="j" x="96.8" y="285.5" width="2.1" height="2.13" rx="1.1"/><rect class="j" x="103.6" y="281.2" width="2.1" height="2.13" rx="1.1"/><rect class="j" x="100.7" y="285.5" width="2.1" height="2.13" rx="1.1"/><rect class="j" x="99.6" y="289.4" width="2.1" height="2.13" rx="1.1"/><rect class="j" x="103.4" y="289.4" width="2.1" height="2.13" rx="1.1"/><rect class="j" x="95.5" y="281.2" width="2.1" height="2.13" rx="1.1"/><rect class="j" x="92.9" y="285.5" width="2.1" height="2.13" rx="1.1"/><rect class="j" x="95.7" y="289.4" width="2.1" height="2.13" rx="1.1"/><path class="k" d="M218.5,206.8h-9.4a10.2,10.2,0,0,0-9.7,7L173,294.3a4.7,4.7,0,0,1-4.6,3.3H80a4.7,4.7,0,0,1-4.7-4L64.8,230.3H194"/><path class="l" d="M86.6,297.5h62a34.8,34.8,0,0,1,34.8,34.8H90.7"/><path class="m" d="M175.7,343.2a7.2,7.2,0,1,0-7.1,7.2A7.1,7.1,0,0,0,175.7,343.2Z"/><path class="n" d="M169.6,334.4c-.1,2.6,0,5.6,2,8.5s-2.6,4.7-7.2,1.9-7.1-10.4-7.1-10.4Z"/><path class="m" d="M170.1,343.2a1.5,1.5,0,0,0-1.5-1.5,1.5,1.5,0,0,0-1.5,1.5,1.5,1.5,0,0,0,1.5,1.6A1.6,1.6,0,0,0,170.1,343.2Z"/><path class="m" d="M125.7,343.2a7.2,7.2,0,1,0-7.2,7.2A7.1,7.1,0,0,0,125.7,343.2Z"/><path class="n" d="M119.5,334.4a13.3,13.3,0,0,0,2.1,8.5c2,2.8-2.6,4.7-7.3,1.9s-7.1-10.4-7.1-10.4Z"/><path class="m" d="M120,343.2a1.5,1.5,0,0,0-1.5-1.5,1.5,1.5,0,0,0-1.5,1.5,1.6,1.6,0,0,0,1.5,1.6A1.5,1.5,0,0,0,120,343.2Z"/><line class="o" x1="186.6" y1="252.8" x2="68.5" y2="252.8"/><line class="o" x1="179.2" y1="275.3" x2="72.3" y2="275.3"/><line class="p" x1="212.4" y1="206.8" x2="227" y2="206.8"/><path class="h" d="M278.4,335.2c.5,2.5,2.5,8.2,1.9,11-2.5,2.1-7.8,2.2-11.8,1.2s-6.9,1.1-11.9,1.4-9-1.1-10-3.2,7.5-4,13.3-5.8a26.9,26.9,0,0,0,10-5.2Z"/><path class="q" d="M278.4,325.5v9.7a4.5,4.5,0,0,0-1.6,1c-.5.5-1.1,2.3-1.9,2.4-3.1.1-5-4-5-4l-1.2-8.9Z"/><path class="h" d="M330.5,314.5c2.5.7,8.5,1.3,10.8,3,.8,3.2-1.4,8.1-4,11.3s-2,6.6-3.9,11.2-4.8,7.7-7.1,7.8-.4-8.5.5-14.6a26.6,26.6,0,0,0-.5-11.3Z"/><path class="q" d="M325.2,309l5.3,5.5a5,5,0,0,0,.2,1.9c.3.6,1.7,2,1.4,2.7-1.3,2.9-5.8,2.8-5.8,2.8l-7.8-6.1Z"/><path class="r" d="M259.6,187.1c10.9,0,19,.8,19,.8,3.5,1.5,9.5,9.4,11.2,14.5s1.1,13.4.2,17.7c-5.2,24.1-13.7,37.9-15.7,47.5-1.2,5.8,4.6,2.7,4.6,17.5,0,13.2.2,50.5.2,50.5a13.1,13.1,0,0,1-9.5.7s-8.8-55.6-9.7-60.9c-1.5-8.6-2-12.3-2.1-27.2C257.5,227.2,259.6,187.1,259.6,187.1Z"/><path class="s" d="M326,323.5s-40.3-41-42.8-43.8-12.8-57.9-13.5-62.1c0,0-10.3-10.4-10.6-19.1l33.4-16.8c1.4,5.4,2.6,5.6,3.6,19.5.4,7.1,2,36.4,3.1,71a44.6,44.6,0,0,1,8.7,7c4.3,4.1,25.4,37.5,25.4,37.5S331.1,321.8,326,323.5Z"/><polygon class="u" points="273.9 126.8 262.6 137.1 258.6 126.4 269.6 114.7 273.9 126.8"/><path class="v" d="M260.3,131.1s11-8.4,9.3-16.4l-11,11.7Z"/><path class="w" d="M269.6,114.7s-.3,1.8-.6,3.2-9.2,8.2-11.8,9.2-6.1,1.5-7.9-7.4-1.7-17.2,3.1-22.8,14.1-3.6,19.3,1S276.1,114.6,269.6,114.7Z"/><path class="f" d="M269.6,114.7l1.7,4.6s1.9-.7,3.5-4.6,5.2-11.5,3.7-15.1-4-4.3-6.8-4.8c-.9-.2-1.3.1-1.7-.8s-1.8-3.6-3.8-4.7a9.4,9.4,0,0,0-4.9-1.5,34,34,0,0,0-6.4.8,44.9,44.9,0,0,1-13.2.1.4.4,0,0,0-.5,0,.7.7,0,0,0-.2.6c.4,3.7,3.1,5.7,6.4,6.8,0,0-5.2,4.7-.7,5.9s15.1-2.1,15.1-2.1-4.7,3.5-2.7,4.6,8.7-1.5,8.7-1.5v3.7s2.5-1.7,4.6-.3S273.8,114.8,269.6,114.7Z"/><path class="x" d="M260.7,137.6c-1,4.5-.9,11.8-1.5,27.4-.4,10.1-1.4,39.3-1.4,39.3s7.7,5,20.6,4,17.7-7.1,17.7-7.1-1.3-41-5.4-57.1c-6-16.7-14.5-19.6-14.5-19.6Z"/><path class="y" d="M258.4,184.8l26.5-37.4c-.9,6-14.1,39.4-14.1,39.4l-2.1-.2s-2.7,6.1-3.9,8-4.6,2.3-6.8,2.9C258.1,194,258.3,189.5,258.4,184.8Z"/><path class="v" d="M271.4,107.9a2.6,2.6,0,0,0-2.3.2c-.2.2.1.6.3.5s2.7-.5,3.2.9.1,0,.1-.1A2,2,0,0,0,271.4,107.9Z"/><path class="v" d="M270.9,108c-.2-.1-.5.3-.5.4s.5.3.7.5a3.2,3.2,0,0,1,.3,1.4,2.3,2.3,0,0,1-1.9,2.2h-.1c1,.3,2.2-.8,2.4-1.7S272,108.5,270.9,108Z"/><path class="z" d="M285.3,144.1c1.3-7.3-12.5-11.9-16.4-2.6s-13.5,40.4-13.5,40.4-28.5,17.9-31.3,17.7-13.3,10-12.2,11.6,6,3,9.4,2,5.5-5.8,6.6-6.7c5.5-1.8,31.8-10.5,35.4-13.6S284.5,148.8,285.3,144.1Z"/><path class="x" d="M269.9,137.9a92.4,92.4,0,0,0-5.2,13.8c-1.6,5.4-8.7,28.1-8.7,28.1s4.7,5.7,11.4,6.3l8.4-17.4c3.2-6.7,8.6-19.9,10-23.8s-3.1-10.7-5.7-11.3S271.7,133.8,269.9,137.9Z"/><path class="aa" d="M228.3,260.8c0,4.5-9.3,7.3-11.7,14.1.7-2.1,2.5-10.9,7.9-13.9A4,4,0,0,1,228.3,260.8Z"/><path class="ab" d="M208.3,266.5a3.6,3.6,0,0,1,3.4,1.4c4.1,4.5,2.4,13.3,2.2,15.2C214.5,275.9,206.8,270.8,208.3,266.5Z"/><path class="ac" d="M231.4,268.6c-.6,7.1-14.7,10.1-17.4,21.4.6-2.5,2.5-17,11.5-21.3A5.7,5.7,0,0,1,231.4,268.6Z"/><path class="ad" d="M202.2,278.5a3.2,3.2,0,0,1,3.5-.3c5,2.1,6.4,8.6,7.5,12.4C211.4,283.9,202.9,282.6,202.2,278.5Z"/><path class="ae" d="M189.9,290c1.4-4.7,8.7-4.5,14-1.6s8.8,8.9,11.2,13.7c-1.7-3.5-6.2-7.2-13.1-8.5C196.8,292.6,192.6,293.1,189.9,290Z"/><path class="af" d="M227.5,285.5c.9,5.9-10.5,12.1-9.3,22.4-.3-2.5-2.8-15.1,4.2-21.2C223.8,285.5,225.7,284.7,227.5,285.5Z"/><path class="ag" d="M227.4,301.6c1.3,4.2-6.3,9.3-5.3,16.5-.2-1.7-2.4-10.5,1.8-15.2A3.5,3.5,0,0,1,227.4,301.6Z"/><path class="ah" d="M235.4,308.8c1.1,5.7-9.5,10.8-10.4,20.1.3-2.8-.1-13.9,5.8-18.9A4.7,4.7,0,0,1,235.4,308.8Z"/><path class="ai" d="M196.2,313.5c.9-4.2,6.6-5.1,11.7-3.4,12.4,4.2,15,16.5,16.4,20.6C219.2,316,202.5,319.5,196.2,313.5Z"/><path class="aj" d="M195.1,303.1c1.6-4.6,8.8-3.8,13.4-1.3,6.2,3.3,9,8.7,11.4,12.5-2.7-4.3-8.2-6.7-13.2-7.6S197.6,306.1,195.1,303.1Z"/><g class="ak"><path d="M225.5,330.9v1h0c0,.1,0,.3-.2.3a15.7,15.7,0,0,1,.5,3h0a.7.7,0,0,1-.4.5h-.3v2.1a53.5,53.5,0,0,1-2.2,15.1.4.4,0,0,0,.3.6h.1c.2,0,.4-.1.4-.3h0a55.9,55.9,0,0,0,2.3-15.4,50.6,50.6,0,0,0-.5-6.8m-4.9-14.4h0a66.3,66.3,0,0,1,3.8,12.6l.3.9a21.1,21.1,0,0,1,.2-2.6,69.5,69.5,0,0,0-1.9-6.9.5.5,0,0,1-.3.4h-.1a.4.4,0,0,1-.4-.3,11.9,11.9,0,0,1-.5-2.6h-.1l-.4-.2-.6-1.3m-1.5-6a2.5,2.5,0,0,1,.2.7h0a.4.4,0,0,1-.2.6h-.2c-.1,0-.2,0-.2-.1v.2a17.3,17.3,0,0,1,2.7,4.3c-.7-2-1.5-3.9-2.3-5.7m-5.9-17.7a35.1,35.1,0,0,0,.9,6.5,6.4,6.4,0,0,0,.2.7,26.3,26.3,0,0,1,2.7,5.6h0a.4.4,0,0,1-.2.6h-.4c.6,1.6,1.2,3.1,1.9,4.7a15.9,15.9,0,0,1-.7-4,46.6,46.6,0,0,1-2.6-7.7,45.1,45.1,0,0,1-.9-5.3c-.1.2-.2.3-.4.3h0a.4.4,0,0,1-.4-.4,1.3,1.3,0,0,1-.1-.6h0v-.2m.2-7.8a25.6,25.6,0,0,0-.3,3.9c.1.5.3.9.4,1.3a16,16,0,0,1,.5-2.1,22.9,22.9,0,0,1,.2-2.5c-.1.2-.2.3-.4.3h-.1a.5.5,0,0,1-.4-.5.6.6,0,0,0,.1-.4m6.3-17.1-.2.2a38.5,38.5,0,0,0-5.2,11.9,10.9,10.9,0,0,1,.1,1.8c0,1.1-.1,2.1-.2,3.3a41,41,0,0,1,1.8-7.7.5.5,0,0,1-.4.3h-.2a.5.5,0,0,1-.2-.6,36.2,36.2,0,0,1,4-8.4,3.5,3.5,0,0,0,.5-.8"/><path d="M225.9,261.9h-.3a27.5,27.5,0,0,0-5.9,5.9h.4c.2.1.3.3.1.5a38.1,38.1,0,0,0-4.2,8.9h0a36.6,36.6,0,0,1,3.9-8.2,23.8,23.8,0,0,1,6.2-6.5.4.4,0,0,0,.1-.6l-.3-.2"/><path d="M219.9,267.9h-.2a3.5,3.5,0,0,1-.5.8,36.2,36.2,0,0,0-4,8.4.5.5,0,0,0,.2.6h.2a.5.5,0,0,0,.4-.3,38.1,38.1,0,0,1,4.2-8.9c.2-.2.1-.4-.1-.5h-.2"/><path d="M214.2,285.1v.5h0v-.4M210,268.2h-.2a.4.4,0,0,0-.1.6,21.6,21.6,0,0,1,3.8,12.9c0,1,0,2.1-.1,3.2a40.1,40.1,0,0,1,.9-5,21.2,21.2,0,0,0-3.9-11.6l-.4-.2"/><path d="M214.3,280a40.1,40.1,0,0,0-.9,5,.6.6,0,0,1-.1.4.5.5,0,0,0,.4.5h.1c.2,0,.3-.1.4-.3v-.5c.1-1.2.2-2.2.2-3.3a10.9,10.9,0,0,0-.1-1.8"/><path d="M227.5,270.3h-.2a34,34,0,0,0-9.7,9.9,28.8,28.8,0,0,0-3.6,7.8,14.1,14.1,0,0,0-.1,2c0,1.2.1,2.5.2,3.7h0v-.6c0-4,1.7-8.3,4.2-12.3a33.8,33.8,0,0,1,9.5-9.7c.2-.1.2-.4.1-.6l-.4-.2"/><path d="M214,288.1a16,16,0,0,0-.5,2.1,22.1,22.1,0,0,1,.5,2.5h0c0,.2-.1.5-.4.5h0l-.4-.2h0a1.3,1.3,0,0,0,.1.6.4.4,0,0,0,.4.4h0c.2,0,.3-.1.4-.3s-.2-2.5-.2-3.7a14.1,14.1,0,0,1,.1-2"/><path d="M204.6,279.1c-.2,0-.3.1-.4.3a.4.4,0,0,0,.2.5,18,18,0,0,1,8.8,12.9h0a24.4,24.4,0,0,1-.1-2.7v-1.2a18.4,18.4,0,0,0-8.3-9.7h-.2"/><path d="M213.1,288.9v1.2a24.4,24.4,0,0,0,.1,2.7v.2c.1-.9.1-1.8.3-2.8s-.3-.8-.4-1.3"/><path d="M213.5,290.2c-.2,1-.2,1.9-.3,2.8l.4.2h0c.3,0,.4-.3.4-.5h0a22.1,22.1,0,0,0-.5-2.5"/><path d="M194.8,289.1h-.3a.4.4,0,0,0-.4.4.4.4,0,0,0,.4.4h.3a21.3,21.3,0,0,1,12.7,4,24.1,24.1,0,0,1,8.7,12c.1.1.1.2.2.2a40.2,40.2,0,0,1-2.1-6.1,22.9,22.9,0,0,0-6.3-6.8,22.2,22.2,0,0,0-13.2-4.1"/><path d="M214.3,300a40.2,40.2,0,0,0,2.1,6.1h.4a.4.4,0,0,0,.2-.6h0a26.3,26.3,0,0,0-2.7-5.6"/><path d="M218.3,310.8a2.5,2.5,0,0,1,.2.7l.2.2a3.6,3.6,0,0,1-.4-.9m6.3-23.1h-.3a27,27,0,0,0-6.8,17.6,6.1,6.1,0,0,0,.1,1.4l1.5,3.7a16.6,16.6,0,0,1-.7-5.1,26.2,26.2,0,0,1,6.5-17,.4.4,0,0,0,0-.6h-.3"/><path d="M217.6,306.8a15.9,15.9,0,0,0,.7,4,3.6,3.6,0,0,0,.4.9c0,.1.1.1.2.1h.2a.4.4,0,0,0,.2-.6h0a2.5,2.5,0,0,0-.2-.7l-1.5-3.7"/><path d="M225.6,303.3l-.3.2a20.3,20.3,0,0,0-3.8,11.9v.9a11.7,11.7,0,0,0,.5,1.1v.3a23.1,23.1,0,0,1,1,2.8v-.2a16.1,16.1,0,0,1-.7-4.9A19.4,19.4,0,0,1,226,304c.1-.2.1-.5-.1-.6h-.3"/><path d="M222,317.7c0,.1-.1.3-.2.3h-.1a11.9,11.9,0,0,0,.5,2.6.4.4,0,0,0,.4.3h.1a.5.5,0,0,0,.3-.4,23.1,23.1,0,0,0-1-2.8"/><path d="M232.8,310.9h-.3a28.4,28.4,0,0,0-7.6,16.4c.2,1.1.5,2.3.6,3.5a28.4,28.4,0,0,1,7.6-19.3.4.4,0,0,0,0-.6h-.3"/><path d="M224.9,327.4a21.1,21.1,0,0,0-.2,2.6,9,9,0,0,1,.6,2.2c.2,0,.2-.2.2-.3h0v-1c-.1-1.2-.4-2.4-.6-3.5"/><path d="M201.7,312.5a.4.4,0,0,0-.4.4c-.1.2.1.4.4.4a25.4,25.4,0,0,1,16,7.3c4.1,4.1,6.9,9.4,7.2,14.7l.2.3c-.1-1.2-.1-2.3-.3-3.4a.4.4,0,0,1-.1-.3V331l-.3-1.9a25.2,25.2,0,0,0-6.1-9.1,25.6,25.6,0,0,0-16.6-7.5h0"/><path d="M224.8,332.2c.2,1.1.2,2.2.3,3.4h.3a.7.7,0,0,0,.4-.5h0a15.7,15.7,0,0,0-.5-3c0,.1-.1.1-.2.1h-.3m-.4-3.1.3,1.9v-1l-.3-.9"/><path d="M224.7,331v.9a.4.4,0,0,0,.1.3c0-.4-.1-.8-.1-1.2"/><path d="M224.7,330v1c0,.4.1.8.1,1.2h.3c.1,0,.2,0,.2-.1a9,9,0,0,0-.6-2.2"/><path d="M221.4,316.2h0v.2h-.1m-21.9-13.9a.4.4,0,0,0-.4.4.5.5,0,0,0,.4.5,23.7,23.7,0,0,1,21.1,13.3c-.6-1.6-1.2-3.1-1.9-4.6a24.4,24.4,0,0,0-19.2-9.6h0"/><path d="M218.7,311.9c.7,1.5,1.3,3,1.9,4.6l.6,1.3.4.2h.1a8.8,8.8,0,0,1-.2-1.6v-.2h0a17.3,17.3,0,0,0-2.7-4.3"/><path d="M221.5,316.3h0a6.9,6.9,0,0,1,.5,1.3v-.3a11.7,11.7,0,0,1-.5-1.1"/><path d="M221.5,316.4a8.8,8.8,0,0,0,.2,1.6h.1c.1,0,.2-.2.2-.3a6.9,6.9,0,0,0-.5-1.3"/></g></g></svg>