<svg xmlns="http://www.w3.org/2000/svg" xmlns:xlink="http://www.w3.org/1999/xlink" viewBox="0 0 400 400"><defs><style>.a{isolation:isolate;}.b{font-size:38.64px;fill:#fff;font-family:AdobeArabic-Regular, Adobe Arabic;}.c,.g,.w{fill:#37b5e8;}.c,.h{opacity:0.2;}.d{fill:#0e71bb;}.e{fill:#f1f1f1;}.ai,.f{opacity:0.25;mix-blend-mode:overlay;}.i{fill:#fc9a80;}.j{fill:none;stroke:#463840;stroke-miterlimit:10;stroke-width:0.65px;}.k{fill:#e8e0e4;}.l{fill:#78cfd8;}.m{fill:#ff6a66;}.n{fill:#ffd994;}.o{fill:#314656;}.p{fill:#1f2848;}.q{fill:#288ed9;}.r{fill:#d67363;}.s{fill:#2f3767;}.t{fill:#ffe7cb;}.u{fill:#5fbeed;}.v{fill:#4ba6dd;}.w{opacity:0.86;}.x{fill:#21e2e2;}.y{fill:url(#a);}.z{fill:url(#b);}.aa{fill:url(#c);}.ab{fill:url(#d);}.ac{fill:url(#e);}.ad{fill:url(#f);}.ae{fill:url(#g);}.af{fill:url(#h);}.ag{fill:url(#i);}.ah{fill:url(#j);}.aj{fill:url(#k);}</style><linearGradient id="a" x1="88.16" y1="97.23" x2="115.59" y2="97.23" gradientUnits="userSpaceOnUse"><stop offset="0" stop-color="#ffbc98"/><stop offset="1" stop-color="#ff9f6c"/></linearGradient><linearGradient id="b" x1="68.39" y1="113.89" x2="83.14" y2="113.89" xlink:href="#a"/><linearGradient id="c" x1="82.18" y1="123.53" x2="122.82" y2="123.53" xlink:href="#a"/><linearGradient id="d" x1="54.68" y1="135.92" x2="80.24" y2="135.92" xlink:href="#a"/><linearGradient id="e" x1="25.85" y1="159.32" x2="84.8" y2="159.32" xlink:href="#a"/><linearGradient id="f" x1="90.39" y1="164.68" x2="113.8" y2="164.68" xlink:href="#a"/><linearGradient id="g" x1="99.34" y1="195.68" x2="113.84" y2="195.68" xlink:href="#a"/><linearGradient id="h" x1="107.97" y1="216.51" x2="132.34" y2="216.51" xlink:href="#a"/><linearGradient id="i" x1="40.54" y1="219.4" x2="106.35" y2="219.4" xlink:href="#a"/><linearGradient id="j" x1="38.02" y1="189.15" x2="95.91" y2="189.15" xlink:href="#a"/><linearGradient id="k" x1="73.98" y1="324.22" x2="139.95" y2="324.22" xlink:href="#a"/></defs><title>cp- dedicated server</title><g class="a"><text class="b" transform="translate(117.1 -46.2)"> یصاصتخا روس لنپ لتنک*</text><rect class="c" x="204.6" y="60.3" width="47.3" height="31.24"/><rect class="c" x="204.6" y="60.3" width="47.3" height="20.83"/><rect class="c" x="204.6" y="60.3" width="47.3" height="10.41"/><rect class="c" x="241.6" y="82.6" width="4.4" height="7.63"/><rect class="c" x="241.6" y="72.1" width="4.4" height="7.63"/><rect class="c" x="241.6" y="61.7" width="4.4" height="7.63"/><rect class="d" x="115.2" y="91.6" width="195.3" height="6.84"/><rect class="c" x="257" y="50.9" width="41.5" height="40.63"/><path class="e" d="M264.4,86.4a2.2,2.2,0,0,1-4.4,0,2.2,2.2,0,1,1,4.4,0Z"/><rect class="c" x="267.4" y="50.9" width="31.1" height="40.63"/><circle class="e" cx="272.6" cy="86.4" r="2.2"/><rect class="c" x="277.8" y="50.9" width="20.7" height="40.63"/><path class="e" d="M285.1,86.4a2.1,2.1,0,0,1-2.1,2.1,2.1,2.1,0,0,1-2.2-2.1,2.2,2.2,0,1,1,4.3,0Z"/><rect class="c" x="288.1" y="50.9" width="10.4" height="40.63"/><path class="e" d="M295.5,86.4a2.1,2.1,0,0,1-2.2,2.1,2.1,2.1,0,0,1-2.1-2.1,2.1,2.1,0,0,1,2.1-2.2A2.2,2.2,0,0,1,295.5,86.4Z"/><path class="d" d="M255.2,150.5l3.2,43.1a4.8,4.8,0,0,1-4.8,5.1h21.9a4.6,4.6,0,0,0,4.5-5.8l-11-42.4Z"/><path class="f" d="M254.5,150.5l3.2,43.1a4.8,4.8,0,0,1-4.9,5.1h21.9a4.6,4.6,0,0,0,4.5-5.8l-11-42.4Z"/><path class="d" d="M279.2,195.4H244.4a2.8,2.8,0,0,0-2.7,2.8v.5h32.6C278.7,198.7,279.2,195.4,279.2,195.4Z"/><rect class="d" x="214.4" y="118.1" width="85.7" height="69.02" rx="3.1"/><rect class="g" x="216.7" y="122" width="81" height="61.06" transform="translate(514.5 305.1) rotate(180)"/><g class="h"><rect class="i" x="223.6" y="132.4" width="33" height="17.42"/><rect class="e" x="257.8" y="132.4" width="33" height="17.42"/><rect class="i" x="223.6" y="152.3" width="67.2" height="19.95"/><rect class="i" x="223.6" y="127" width="67.2" height="2"/><rect class="i" x="223.6" y="174.1" width="4" height="4.04" rx="0.7"/><rect class="i" x="229.9" y="174.1" width="4" height="4.04" rx="0.7"/><rect class="i" x="236.3" y="174.1" width="4" height="4.04" rx="0.7"/><rect class="i" x="242.6" y="174.1" width="4" height="4.04" rx="0.7"/><rect class="i" x="248.9" y="174.1" width="4" height="4.04" rx="0.7"/><rect class="i" x="255.2" y="174.1" width="4" height="4.04" rx="0.7"/><rect class="i" x="261.5" y="174.1" width="4" height="4.04" rx="0.7"/><rect class="i" x="267.9" y="174.1" width="4" height="4.04" rx="0.7"/><rect class="i" x="274.2" y="174.1" width="4" height="4.04" rx="0.7"/><rect class="i" x="280.5" y="174.1" width="4" height="4.04" rx="0.7"/><rect class="i" x="286.8" y="174.1" width="4" height="4.04" rx="0.7"/><line class="j" x1="257.8" y1="132.4" x2="290.9" y2="149.9"/><line class="j" x1="290.9" y1="132.4" x2="257.8" y2="149.9"/></g><path class="e" d="M170.4,150.5l-3.2,43.1a4.8,4.8,0,0,0,4.9,5.1H150.2a4.7,4.7,0,0,1-4.6-5.8l11.1-42.4Z"/><path class="k" d="M171.2,150.5,168,193.6a4.8,4.8,0,0,0,4.8,5.1H150.9a4.7,4.7,0,0,1-4.5-5.8l11-42.4Z"/><path class="e" d="M146.5,195.4h34.8a2.8,2.8,0,0,1,2.7,2.8v.5H151.4C146.9,198.7,146.5,195.4,146.5,195.4Z"/><rect class="d" x="125.6" y="118.1" width="85.7" height="69.02" rx="3.1" transform="translate(336.8 305.1) rotate(180)"/><rect class="g" x="127.9" y="122" width="81" height="61.06"/><g class="h"><rect class="l" x="135.8" y="129" width="4.9" height="1.91"/><rect class="m" x="142.4" y="129" width="10.4" height="1.91"/><rect class="m" x="142.4" y="160.3" width="10.4" height="1.91"/><rect class="m" x="142.4" y="174.3" width="10.4" height="1.91"/><rect class="m" x="142.4" y="156.8" width="10.4" height="1.91"/><rect class="n" x="145.2" y="132.4" width="17.8" height="1.91"/><rect class="n" x="149.1" y="142.9" width="32.9" height="1.91"/><rect class="n" x="175.2" y="135.9" width="25.8" height="1.91"/><rect class="l" x="164.2" y="132.4" width="17.8" height="1.91"/><rect class="l" x="145.2" y="135.9" width="28.9" height="1.91"/><rect class="l" x="149.1" y="149.9" width="52" height="1.91"/><rect class="i" x="183.2" y="132.4" width="17.8" height="1.91"/><rect class="n" x="149.1" y="146.4" width="13.9" height="1.91"/><rect class="l" x="164.2" y="146.4" width="17.8" height="1.91"/><rect class="i" x="183.2" y="146.4" width="17.8" height="1.91"/><rect class="l" x="183.2" y="142.9" width="17.8" height="1.91"/><rect class="i" x="145.2" y="139.4" width="55.9" height="1.91"/><rect class="n" x="145.2" y="163.8" width="17.8" height="1.91"/><rect class="n" x="175.2" y="167.3" width="25.8" height="1.91"/><rect class="l" x="164.2" y="163.8" width="17.8" height="1.91"/><rect class="l" x="145.2" y="167.3" width="28.9" height="1.91"/><rect class="i" x="183.2" y="163.8" width="17.8" height="1.91"/><rect class="i" x="145.2" y="170.8" width="55.9" height="1.91"/><rect class="i" x="145.2" y="153.3" width="55.9" height="1.91"/><rect class="l" x="135.8" y="132.4" width="4.9" height="1.91"/><rect class="l" x="135.8" y="135.9" width="4.9" height="1.91"/><rect class="l" x="135.8" y="139.4" width="4.9" height="1.91"/><rect class="l" x="135.8" y="142.9" width="4.9" height="1.91"/><rect class="l" x="135.8" y="146.4" width="4.9" height="1.91"/><rect class="l" x="135.8" y="149.9" width="4.9" height="1.91"/><rect class="l" x="135.8" y="153.3" width="4.9" height="1.91"/><rect class="l" x="135.8" y="156.8" width="4.9" height="1.91"/><rect class="l" x="135.8" y="160.3" width="4.9" height="1.91"/><rect class="l" x="135.8" y="163.8" width="4.9" height="1.91"/><rect class="l" x="135.8" y="167.3" width="4.9" height="1.91"/><rect class="l" x="135.8" y="170.8" width="4.9" height="1.91"/><rect class="l" x="135.8" y="174.3" width="4.9" height="1.91"/></g><polygon class="d" points="333.6 233.3 92 233.3 90.8 212.5 333.6 212.5 333.6 233.3"/><polygon class="f" points="333.6 222.9 92 222.9 90.5 212.5 333.6 212.5 333.6 222.9"/><rect class="d" x="60.3" y="198.7" width="305.1" height="13.74"/><rect class="f" x="60.3" y="205.6" width="305.1" height="6.87"/><path class="d" d="M92,233.3V374.9h0a5.3,5.3,0,0,0,5.4-4.8l15-136.8Z"/><path class="d" d="M333.6,233.3V374.9h0a5.3,5.3,0,0,1-5.3-4.8l-15-136.8Z"/><path class="i" d="M178,347.4c-.7,3.6-1.6,7.2-1.6,7.2s-14,5.9-12.5,1.5a68.7,68.7,0,0,0,2.6-8.7c.9-3,4.6-9.1,8.9-7.8C177.4,340.2,178,347.4,178,347.4Z"/><path class="o" d="M174.5,245.3c-2.6,10.8-5.4,18.9-4.6,41.6,1.1,30.4.7,46.9-4.7,66.1a8.3,8.3,0,0,1,3-2.5c3.3-1.7,7.8.2,8.7,3.2,0,0,4.9-24.9,7.4-36.2,4.5-20.4,14.2-29.9,9.7-55.5Z"/><path class="p" d="M169.9,374.9c4.8,0,6.3-3.2,6.3-5.2s-1.3-4-1-6.3,2-5,1.9-8.4c0-1.6-1.1-6.9-5.7-6.2s-5.7,3.7-7.5,7.3a38.9,38.9,0,0,0-3.1,14.1C161,374.1,162.9,374.9,169.9,374.9Z"/><path class="i" d="M243.1,342.3c.4,3.6,2.3,6.9,2.8,9.8,0,0,12.1,2.6,10.8,0s-1.3-5.5-1.7-9.8-8.5-5.4-10.3-3.4S243.1,342.3,243.1,342.3Z"/><path class="o" d="M252.6,256.5c2.4,13.8,2.2,81,4.1,95.6,0,0-7.8-5.7-11.5-.7,0,0-8.3-35.9-13-54.1s-6-23.6-4.7-35.7Z"/><path class="p" d="M249.2,362.3c-1.9-2.5-3.2-4.1-3.5-6.5s-.4-2.5-.5-3.8a4.4,4.4,0,0,1,4.3-4.6c3.3,0,6.8,3.7,8.4,6.3s8.4,8.8,9.2,14.8-1.8,6.4-9.8,6.4S250.9,364.5,249.2,362.3Z"/><path class="o" d="M185.8,232.7c-13.6,6.4-14.9,23.1-9.5,28.5s26.3,4.1,39.7,4.1h25.1c8.3,0,18.8-5.4,17.8-15.2s-10.4-12.3-10.4-12.3Z"/><path class="q" d="M247.5,148.8c7.5,7.1,10.8,25.9,11.8,39s-.5,21.5-4.1,23.2-15.3,1.2-19.1-8.8v-7.1c6.3-1.3,8.9,0,8.9,0s-2.3-16.1-3.7-21.5S247.5,148.8,247.5,148.8Z"/><path class="p" d="M246,202.8c-.3-2.8-1-7.7-1-7.7s-2.6-1.3-8.9,0v1.7C242.8,198.6,246.2,205,246,202.8Z"/><path class="f" d="M246,158.2c-2.1,6-5.7,11.5-4.7,15.4s6.8,16.6,7.6,21.8c-.3-7.2,2-21.2-.9-39A7.4,7.4,0,0,1,246,158.2Z"/><path class="r" d="M185.8,196.4c5.4-.6,10.7,2.5,10.7,7.2h-9.2Z"/><path class="s" d="M174.1,212.6c6.4,0,15.3-7.7,16.7-9s.8-10.1-6.7-8.2Z"/><path class="p" d="M184.1,195.4l-1.6,2.8a29.6,29.6,0,0,1-.4,5s3.2-5.6,7.6-6.6h0C188.6,195.4,186.8,194.7,184.1,195.4Z"/><path class="t" d="M195.9,114.2c-1.9-2-2.4,1.2-1.2,4.6s2.5,5.7,3.8,6.1c3,.7,3.7,2.1,3.7,5.3s-.4,7.3-1.1,9.2-7.9,7.9-7.9,7.9h39.2s-8.9-5.2-9.9-8.7-1-8.8-.3-10.6,2.2-1.6,3-5.9c.5-.7,1.9,2.5,3.6-3.4s0-7.6-2.6-5.4C222,115.3,195.9,114.2,195.9,114.2Z"/><path class="d" d="M196.5,96.3a24.4,24.4,0,0,0-2.2,16.8c2,8.8,9.1,17.4,17.6,17.4s13.5-8.2,16.4-14.8a22.2,22.2,0,0,0-1.8-20.9c-3.3-5.1-8.1-7.5-14.6-7.5C201.7,87.3,197.9,93.6,196.5,96.3Z"/><path class="q" d="M180.5,147.1c9.2-4.9,19.5-7,32.4-7s23.3-.5,34.6,8.7a231.9,231.9,0,0,1,.4,32.1c-1.3,16.8-1.7,21.6,1.6,29.5s4.6,26.3,5.7,34.6c0,0-5.2,11.5-37.3,11.5s-37.2-8.8-36.1-15.4,2-23.4,3.4-32.4-.3-9.9-.3-18.7S184.7,160,180.5,147.1Z"/><path class="f" d="M181.8,241.1c3.2-11,1.1-23.7.2-36.3s3.8-35.5,3.7-44.1l.2.6c.8,8.9.2,7.7,1.7,19.7,1.3,10,.3,52.3,3.7,29.2C190,219.2,183,234.6,181.8,241.1Z"/><path class="q" d="M184.1,195.4l1.7-26.1s.7-24.5-5.3-22.2c-10.8,4.1-13.5,49.1-13.7,57.4a7.4,7.4,0,0,0,7.3,8.1C179.2,212.6,183.7,202.3,184.1,195.4Z"/><path class="u" d="M167.9,184.2h89.9a4.9,4.9,0,0,1,4.9,4.9v16.4A25.7,25.7,0,0,1,237,231.3H188.7a25.7,25.7,0,0,1-25.7-25.7V189.1a4.9,4.9,0,0,1,4.9-4.9Z"/><path class="u" d="M170.1,274.7,157.4,374.9h0a7.8,7.8,0,0,0,7.7-6.2L184,291.3h28.8V274.7Z"/><path class="v" d="M255.6,274.7l12.7,100.2h0a7.8,7.8,0,0,1-7.7-6.2l-19-77.4H212.8V274.7Z"/><path class="d" d="M258.7,274.7H167a4,4,0,0,1-4.1-4h0a6.5,6.5,0,0,1,6.5-6.5h86.9a6.5,6.5,0,0,1,6.4,6.5h0A4,4,0,0,1,258.7,274.7Z"/><path class="v" d="M182.7,214.7l9.9,76.6h-5.7l-11.6-83.6h0C179,207.7,182.1,210.7,182.7,214.7Z"/><path class="u" d="M186.9,291.3h-4.8l-9.3-80.4a2.7,2.7,0,0,1,2.5-3.2h0Z"/><path class="u" d="M243,214.7l-10,76.6h5.8l11.6-83.6h0C246.7,207.7,243.6,210.7,243,214.7Z"/><path class="v" d="M238.8,291.3h4.7l9.3-80.4a2.6,2.6,0,0,0-2.4-3.2h0Z"/><path class="c" d="M104.4,198.7h25.4a2,2,0,0,0,2-2.4L124.7,162a3.3,3.3,0,0,0-3.3-2.7H95.9a2.1,2.1,0,0,0-2,2.4l7.2,34.3A3.3,3.3,0,0,0,104.4,198.7Z"/><path class="c" d="M105.1,198.7h25.4a2,2,0,0,0,2-2.4L125.4,162a3.4,3.4,0,0,0-3.4-2.7H96.6a2,2,0,0,0-2,2.4l7.1,34.3A3.5,3.5,0,0,0,105.1,198.7Z"/><polygon class="c" points="124.7 162 131.8 196.3 103.1 196 96 161.7 124.7 162"/><g class="h"><polygon class="w" points="127 187.9 104.7 187.9 102.5 177.5 124.8 177.5 127 187.9"/><polygon class="w" points="122.2 164.8 99.9 164.8 99.6 163.4 121.9 163.4 122.2 164.8"/><polygon class="w" points="124.7 177 102.4 177 100.2 166.5 122.6 166.5 124.7 177"/><path class="w" d="M109.2,194.6H107a1.2,1.2,0,0,1-1.1-.9l-.5-2.2a.7.7,0,0,1,.8-.9h2.1a1.4,1.4,0,0,1,1.2.9l.4,2.2A.7.7,0,0,1,109.2,194.6Z"/><path class="w" d="M115.3,194.6h-2.2a1.2,1.2,0,0,1-1.1-.9l-.5-2.2a.7.7,0,0,1,.8-.9h2.1a1.3,1.3,0,0,1,1.2.9l.4,2.2A.7.7,0,0,1,115.3,194.6Z"/><path class="w" d="M121.4,194.6h-2.2a1.2,1.2,0,0,1-1.1-.9l-.5-2.2a.7.7,0,0,1,.8-.9h2.1a1.3,1.3,0,0,1,1.2.9l.4,2.2A.7.7,0,0,1,121.4,194.6Z"/><path class="w" d="M127.5,194.6h-2.2a1.2,1.2,0,0,1-1.1-.9l-.5-2.2a.8.8,0,0,1,.8-.9h2.1a1.3,1.3,0,0,1,1.2.9l.4,2.2A.7.7,0,0,1,127.5,194.6Z"/></g><path class="x" d="M306.3,125.8,282,110.3a.9.9,0,0,1-.2-1.3L302,85.8a.9.9,0,0,1,1.2-.1l16.5,10.5a1,1,0,0,1,.4,1.2l-12.5,28A.9.9,0,0,1,306.3,125.8Z"/><rect class="d" x="315.9" y="72" width="2.3" height="20.58" transform="translate(94 -157.6) rotate(32.5)"/><path class="d" d="M349.5,108.3c0,1.1-.7,2.1-1.6,2.1s-1.6-1-1.6-2.1.7-2.2,1.6-2.2S349.5,107.1,349.5,108.3Z"/><path class="q" d="M344.4,106.1c-.9,0-1.6,1-1.6,2.2s.7,2.1,1.6,2.1h3.5c-.9,0-1.6-1-1.6-2.1s.7-2.2,1.6-2.2Z"/><path class="d" d="M346.9,106.1,318,81.1l-2,2.3,28.8,24.9s.5.3.9-.6S346.9,106.1,346.9,106.1Z"/><path class="d" d="M343.8,110.4l-14.7,84,3,.5,14.8-84.5a1.9,1.9,0,0,0-2.1-.8A1,1,0,0,0,343.8,110.4Z"/><rect class="x" x="311.1" y="194.4" width="41" height="4.36"/><path class="y" d="M115.6,81.3c-.1,10.6-21.8,17-27.4,32.9,1.7-4.9,6-25.5,18.4-32.4C109.4,80.2,112.8,79.6,115.6,81.3Z"/><path class="z" d="M68.8,94.5c3.1-.7,6,1,8.1,3.3,9.5,10.6,5.4,31,5.1,35.6C83.3,116.4,65.5,104.6,68.8,94.5Z"/><path class="aa" d="M122.8,99.6c-1.3,16.4-34.2,23.5-40.6,49.8,1.4-5.8,5.9-39.5,26.9-49.8C113.5,97.3,118.7,96.6,122.8,99.6Z"/><path class="ab" d="M54.7,122.5c2.3-1.9,5.4-1.7,8.2-.6,11.7,4.8,15,20.1,17.3,28.9C76.1,135.3,56.2,132.1,54.7,122.5Z"/><path class="ac" d="M25.9,149.5c3.3-10.9,20.4-10.5,32.7-3.7,14.7,8,20.5,20.6,26.2,31.9-4.1-8.2-14.4-16.8-30.7-20C42.1,155.4,32.3,156.7,25.9,149.5Z"/><path class="ad" d="M113.7,138.8c2.1,14-24.4,28.5-21.7,52.4-.7-5.9-6.6-35.3,9.7-49.4C105.1,138.8,109.5,137.1,113.7,138.8Z"/><path class="ae" d="M113.5,176.5c3,9.9-14.7,21.7-12.4,38.6-.5-3.9-5.6-24.6,4.3-35.5C107.5,177.3,110.4,175.7,113.5,176.5Z"/><path class="af" d="M132.2,193.4c2.5,13.1-22.3,25.2-24.2,46.7.6-6.5-.3-32.4,13.4-43.9C124.5,193.6,128.3,192,132.2,193.4Z"/><path class="ag" d="M40.5,204.3c2.2-9.9,15.6-12,27.4-8,29,9.8,35,38.5,38.5,48.1C94.3,210.2,55.4,218.3,40.5,204.3Z"/><path class="ah" d="M38,179.9c3.9-10.7,20.6-8.8,31.3-3,14.5,7.7,21.1,20.3,26.6,29.2-6.2-10.1-19.1-15.6-30.8-17.7S43.8,187.1,38,179.9Z"/><g class="ai"><path d="M109.1,245v2.2h0c0,.3-.1.7-.4.8a40.7,40.7,0,0,1,1,7h0a.9.9,0,0,1-.9,1h-.1l-.6-.2c.1,1.7.1,3.4.1,5.1a123.9,123.9,0,0,1-5.3,35.2,1,1,0,0,0,.7,1.2h.3a1.2,1.2,0,0,0,1-.7h0a127.8,127.8,0,0,0,5.3-35.8,115.6,115.6,0,0,0-1.1-15.9M97.7,211.3h0a159.1,159.1,0,0,1,8.7,29.3l.8,2.1c0-2,.2-4.1.4-6.1a149.4,149.4,0,0,0-4.4-16,1.1,1.1,0,0,1-.7.9h-.3a1.1,1.1,0,0,1-1-.8,37.1,37.1,0,0,1-1.1-5.8H100a1.3,1.3,0,0,1-1-.6c-.4-1-.8-2-1.3-3m-3.6-13.9.6,1.6h0a1,1,0,0,1-.6,1.3h-.4a.7.7,0,0,1-.6-.2v.3a50.2,50.2,0,0,1,6.3,10.1c-1.8-4.5-3.6-8.9-5.4-13.1M80.2,156.1a94.9,94.9,0,0,0,2.3,15.1,9.4,9.4,0,0,1,.4,1.6,69.3,69.3,0,0,1,6.4,13.1h0a1,1,0,0,1-.6,1.3h-.3a.9.9,0,0,1-.7-.3c1.4,3.6,3,7.3,4.5,11.1a40.1,40.1,0,0,1-1.7-9.4,125.5,125.5,0,0,1-6-17.9,88.2,88.2,0,0,1-2.1-12.5,1,1,0,0,1-.9.7h0a.9.9,0,0,1-1-1,5.3,5.3,0,0,1-.1-1.3v-.2c-.1-.1-.1-.3-.2-.4m.6-18.4c-.4,3.1-.6,6.1-.7,9.2.3,1,.7,2,.9,3,.3-1.6.7-3.2,1.1-4.8s.3-3.9.5-5.8a1.1,1.1,0,0,1-.9.6h-.1a1,1,0,0,1-.9-1.1,4.1,4.1,0,0,1,.1-1.1M95.6,97.8a1,1,0,0,0-.5.4A90.7,90.7,0,0,0,83,126c0,1.4.1,2.9.1,4.3s-.1,5-.3,7.6a90.9,90.9,0,0,1,4-17.9,1.1,1.1,0,0,1-.9.7h-.4a1,1,0,0,1-.6-1.3,96.2,96.2,0,0,1,9.4-19.6l1.3-1.9"/><path d="M109.9,83.9l-.6.2A61.3,61.3,0,0,0,95.6,97.8h.3l.6.2a.9.9,0,0,1,.2,1.3A87.6,87.6,0,0,0,86.8,120h0A90,90,0,0,1,96,100.8a55.6,55.6,0,0,1,14.5-15,1.1,1.1,0,0,0,.2-1.4,1,1,0,0,0-.8-.5"/><path d="M95.9,97.8h-.3l-1.3,1.9a96.2,96.2,0,0,0-9.4,19.6,1,1,0,0,0,.6,1.3h.4a1.1,1.1,0,0,0,.9-.7,87.6,87.6,0,0,1,9.9-20.7.9.9,0,0,0-.2-1.3l-.6-.2"/><path d="M82.8,137.9c-.1.4-.1.9-.2,1.4s.1-.2.1-.3a3.7,3.7,0,0,1,.1-1.1M72.9,98.6l-.6.2a1,1,0,0,0-.2,1.4c6.7,9.6,9,19.1,9,30.1,0,2.4-.1,4.8-.3,7.4A96.2,96.2,0,0,1,83,126a50.8,50.8,0,0,0-9.3-27,1.2,1.2,0,0,0-.8-.4"/><path d="M83,126a96.2,96.2,0,0,0-2.2,11.7,4.1,4.1,0,0,0-.1,1.1,1,1,0,0,0,.9,1.1h.1a1.1,1.1,0,0,0,.9-.6c.1-.5.1-1,.2-1.4.2-2.6.3-5.1.3-7.6s-.1-2.9-.1-4.3"/><path d="M113.8,103.6h-.5c-8.5,5.4-16.6,13.8-22.7,23.2a68.2,68.2,0,0,0-8.5,18.2c0,1.5-.1,3.1-.1,4.6s.2,5.7.4,8.6c0-.1.1-.2.1-.3h0a6.2,6.2,0,0,1-.1-1.3c0-9.3,3.9-19.5,9.8-28.7s14-17.4,22.2-22.6a1.1,1.1,0,0,0,.3-1.4,1,1,0,0,0-.9-.4"/><path d="M82.1,145.1c-.4,1.6-.8,3.2-1.1,4.8a29.9,29.9,0,0,1,1.2,5.8h0a1,1,0,0,1-.9,1.2h-.1a1.2,1.2,0,0,1-.8-.4v.2a5.3,5.3,0,0,0,.1,1.3.9.9,0,0,0,1,1h0a1,1,0,0,0,.9-.7c-.2-2.9-.4-5.7-.4-8.6s.1-3.1.1-4.6"/><path d="M60.2,124.1a.9.9,0,0,0-.8.5.9.9,0,0,0,.3,1.3c10.9,6.1,19,17.6,20.5,30.1h0c-.1-2.2-.2-4.3-.2-6.4a27.2,27.2,0,0,1,.1-2.8,43.2,43.2,0,0,0-19.4-22.7h-.5"/><path d="M80.1,146.9a27.2,27.2,0,0,0-.1,2.8c0,2.1.1,4.2.2,6.4.1.1.1.3.2.4.1-2.2.3-4.3.6-6.6s-.6-2-.9-3"/><path d="M81,149.9c-.3,2.3-.5,4.4-.6,6.6a1.2,1.2,0,0,0,.8.4h.1a1,1,0,0,0,.9-1.2h0a29.9,29.9,0,0,0-1.2-5.8"/><path d="M37.3,147.2h-.7a1,1,0,0,0-.9,1.1.9.9,0,0,0,1,.9h.6A50.1,50.1,0,0,1,67,158.5c8.7,6.2,15.8,15.5,20.4,28.1l.3.4a118.8,118.8,0,0,1-4.8-14.2,55,55,0,0,0-14.7-15.9,52,52,0,0,0-30.9-9.7"/><path d="M82.9,172.8A118.8,118.8,0,0,0,87.7,187a.9.9,0,0,0,.7.3h.3a1,1,0,0,0,.6-1.3h0a69.3,69.3,0,0,0-6.4-13.1"/><path d="M92.2,198.1l.6,1.6.3.4-.9-2M107,144a1.1,1.1,0,0,0-.8.3c-10.3,11.1-15.8,27.2-15.8,41,0,1.2,0,2.3.1,3.4,1.2,2.9,2.4,5.7,3.6,8.7a41.6,41.6,0,0,1-1.7-12.1c0-13.3,5.4-29,15.3-39.6a1,1,0,0,0-.1-1.4.7.7,0,0,0-.6-.3"/><path d="M90.5,188.7a40.1,40.1,0,0,0,1.7,9.4l.9,2a.7.7,0,0,0,.6.2h.4a1,1,0,0,0,.6-1.3h0l-.6-1.6c-1.2-3-2.4-5.8-3.6-8.7"/><path d="M109.4,180.5a1,1,0,0,0-.9.4,48.6,48.6,0,0,0-8.8,27.9v2.1l1.2,2.6a.6.6,0,0,1,0,.6c.8,2.1,1.6,4.3,2.3,6.5v-.4a43.5,43.5,0,0,1-1.5-11.4,46.6,46.6,0,0,1,8.5-26.8,1,1,0,0,0-.3-1.4h-.5"/><path d="M100.9,214.1a1.1,1.1,0,0,1-.6.7h-.2a37.1,37.1,0,0,0,1.1,5.8,1.1,1.1,0,0,0,1,.8h.3a1.1,1.1,0,0,0,.7-.9c-.7-2.2-1.5-4.4-2.3-6.5"/><path d="M126.1,198.2a1.1,1.1,0,0,0-.7.3,67.2,67.2,0,0,0-17.8,38.1c.6,2.8,1.1,5.5,1.5,8.4.2-17.4,6.2-32.7,17.8-45.2a1.1,1.1,0,0,0-.1-1.4l-.7-.2"/><path d="M107.6,236.6c-.2,2-.4,4.1-.4,6.1a52.6,52.6,0,0,1,1.5,5.3c.3-.1.4-.5.4-.8h0V245c-.4-2.9-.9-5.6-1.5-8.4"/><path d="M53.5,201.9a.9.9,0,0,0-1,.9.9.9,0,0,0,.9,1c14.5.8,27.6,7.5,37.4,17s16,22,16.9,34.3a1.6,1.6,0,0,0,.4.7q-.1-4.1-.6-7.8a1.2,1.2,0,0,1-.4-.8v-2.1c-.2-1.5-.4-3-.7-4.5a62.3,62.3,0,0,0-14.2-21.2c-10.1-9.8-23.6-16.7-38.7-17.5h0"/><path d="M107.5,248q.4,3.8.6,7.8l.6.2h.1a.9.9,0,0,0,.9-1h0a40.7,40.7,0,0,0-1-7l-.5.2h-.1l-.6-.2m-1.1-7.4c.3,1.5.5,3,.7,4.5a19.3,19.3,0,0,1,.1-2.4l-.8-2.1"/><path d="M107.1,245.1v2.1a1.2,1.2,0,0,0,.4.8c-.1-1-.3-1.9-.4-2.9"/><path d="M107.2,242.7a19.3,19.3,0,0,0-.1,2.4c.1,1,.3,1.9.4,2.9l.6.2h.1l.5-.2a52.6,52.6,0,0,0-1.5-5.3"/><path d="M99.5,210.5h.1c0,.2.1.3.1.4h0l-.2-.4M48.4,178.2a.9.9,0,0,0-1,.9.9.9,0,0,0,1,1,56.1,56.1,0,0,1,49.3,31.2l-4.5-10.9a57.7,57.7,0,0,0-44.8-22.2h0"/><path d="M93.2,200.4l4.5,10.9c.5,1,.9,2,1.3,3a1.3,1.3,0,0,0,1,.6h.1c-.2-1.3-.3-2.6-.4-3.9s-.1-.2-.1-.4h-.1a50.2,50.2,0,0,0-6.3-10.1"/><path d="M99.7,210.9h0l1.2,3.1a.6.6,0,0,0,0-.6l-1.2-2.6"/><path d="M99.7,211c.1,1.3.2,2.6.4,3.9h.2a1.1,1.1,0,0,0,.6-.7L99.7,211"/></g><path class="aj" d="M121.7,374.9H92.2a13.8,13.8,0,0,1-13.8-13.1L74,280.5a6.6,6.6,0,0,1,6.6-7h52.7a6.6,6.6,0,0,1,6.6,7l-4.4,81.3A13.8,13.8,0,0,1,121.7,374.9Z"/></g></svg>