<svg xmlns="http://www.w3.org/2000/svg" xmlns:xlink="http://www.w3.org/1999/xlink" viewBox="0 0 400 400"><defs><style>.a{font-size:38.64px;font-family:AdobeArabic-Regular, Adobe Arabic;}.a,.y{fill:#fff;}.b{fill:url(#a);}.c{fill:#137fcf;}.d{fill:#288ed9;}.e,.f,.g,.n,.u,.w{fill:none;}.f,.g{stroke:#288ed9;}.f{stroke-width:0.23px;}.g,.n{stroke-linecap:round;stroke-miterlimit:10;stroke-width:0.93px;}.h{fill:url(#b);}.i{fill:#024679;}.j,.p{fill:#005b9f;}.j{opacity:0.57;isolation:isolate;}.k{opacity:0.5;}.l{fill:#1f364c;}.m{fill:#043c67;}.n{stroke:#1f364c;}.o{fill:#166eaf;}.q{fill:#21e2e2;}.r{fill:#ffbc98;}.s{fill:#0e71bb;}.t{fill:#52acea;}.u{stroke:#ffbc98;}.u,.w{stroke-width:0.47px;}.v{fill:#80c9ff;}.w{stroke:#21e2e2;}.x{fill:#d6eeff;}.z{fill:#375a64;}.aa{fill:#ffe7cb;}.ab{fill:#263238;}.ac{opacity:0.2;}.ad{fill:#f0d2b9;}.ae{fill:#152735;}.af{fill:#173d7a;}.ag{fill:url(#c);}</style><linearGradient id="a" x1="1.19" y1="400.41" x2="1.18" y2="400.89" gradientTransform="matrix(740.56, 0, 0, -612.51, -677.44, 245617.49)" gradientUnits="userSpaceOnUse"><stop offset="0" stop-color="#c6e6ff"/><stop offset="1" stop-color="#fff"/></linearGradient><linearGradient id="b" x1="0.93" y1="402.95" x2="0.93" y2="402.48" gradientTransform="matrix(531, 0, 0, -95, -352.26, 38535.44)" gradientUnits="userSpaceOnUse"><stop offset="0" stop-color="#288ed9"/><stop offset="1" stop-color="#137fcf" stop-opacity="0.05"/></linearGradient><linearGradient id="c" x1="313.98" y1="225.42" x2="331.57" y2="225.42" gradientUnits="userSpaceOnUse"><stop offset="0" stop-color="#ffbc98"/><stop offset="1" stop-color="#ff9f6c"/></linearGradient></defs><title>dedicated server</title><text class="a" transform="translate(15.4 -46.2)">)یصاصتخا روس( هحفص یلصا ریوصت</text><path class="b" d="M199.4,111.4c45.8,29.3,98.3,42.4,98.3,42.4s57.8,8.8,36.5,74.6-24,89.4-57.3,91c-31.6.9-49.4-12.1-80.6-9.9-27.5,2.2-46.4,14.5-92.3-3.5C30.5,273.5,36,8.4,199.4,111.4Z"/><rect class="c" x="66.1" y="262.4" width="7.7" height="7.69" rx="1.2"/><path class="d" d="M70.1,264.5a1.9,1.9,0,1,1-1.9,1.8A1.9,1.9,0,0,1,70.1,264.5Z"/><circle class="e" cx="70.1" cy="266.3" r="2.6"/><circle class="f" cx="70.1" cy="266.3" r="2.4"/><path class="g" d="M95,258.4H80.8c-1.9,0-2.8,1.1-2.7,3v9.8c0,1.9-1.1,2.4-3.1,2.4H72.3a2.2,2.2,0,0,1-2.3-2v-3.5"/><ellipse class="h" cx="142.3" cy="288.3" rx="61.7" ry="11"/><rect class="i" x="94" y="206.3" width="43.7" height="81.86" rx="2.3"/><path class="j" d="M96.6,206.3h20.9v81.9H96.6a2.3,2.3,0,0,1-2.3-2.3V208.7A2.3,2.3,0,0,1,96.6,206.3Z"/><g class="k"><rect class="l" x="106.1" y="211.5" width="19.8" height="0.7"/><rect class="l" x="106.1" y="213.3" width="19.8" height="0.7"/><rect class="l" x="106.1" y="215.2" width="19.8" height="0.7"/><rect class="l" x="106.1" y="217" width="19.8" height="0.7"/><rect class="l" x="106.1" y="218.9" width="19.8" height="0.7"/></g><g class="k"><rect class="l" x="105.9" y="277" width="19.8" height="0.7"/><rect class="l" x="105.9" y="278.9" width="19.8" height="0.7"/><rect class="l" x="105.9" y="280.8" width="19.8" height="0.7"/><rect class="l" x="105.9" y="282.6" width="19.8" height="0.7"/></g><rect class="m" x="105.9" y="225" width="23.3" height="43.02"/><path class="n" d="M117.5,229.1v5.1a1.3,1.3,0,0,0,1.5,1.5h1.5c1,0,1.3.6,1.3,1.7v30"/><path class="n" d="M115.9,230.6v2.2a1.4,1.4,0,0,0,1.5,1.5h1.5c1,0,1.3.6,1.3,1.7v31.4"/><path class="n" d="M120.4,228.3v4.1c0,.9.4,1.3,1.3,1.3h2.4c.8,0,1.1.5,1.1,1.4v1.6"/><path class="n" d="M129,227.9H119c-1.1,0-1.6.6-1.5,1.6V231"/><path class="n" d="M115.9,231.2v-1.5a1.4,1.4,0,0,0-1.5-1.6h-7.9"/><path class="n" d="M109.7,228.1v20.1a1.3,1.3,0,0,0,1.5,1.5h1.5c1,0,1.3.6,1.3,1.7v15.9h0"/><path class="n" d="M111.1,228.1v6.5a1.4,1.4,0,0,0,1.6,1.6h1.5c1,0,1.3.6,1.3,1.7v13.6"/><path class="n" d="M112.6,228.3v25.5a1.3,1.3,0,0,0,1.5,1.5h1.5c1,0,1.3.6,1.3,1.7v10.4"/><rect class="o" x="98.1" y="243.9" width="4.2" height="15.74" rx="2.1"/><path class="p" d="M99.9,254.7v-5.5a.9.9,0,0,1,1-1h0a.9.9,0,0,1,1,1v5.5a1,1,0,0,1-1,1h0A1,1,0,0,1,99.9,254.7Z"/><path class="q" d="M113,273.2h0a.7.7,0,0,1,.8.7h0a.8.8,0,0,1-.8.8h0a.8.8,0,0,1-.7-.8h0A.7.7,0,0,1,113,273.2Z"/><path class="r" d="M115.3,273.2h0a.7.7,0,0,1,.7.7h0a.8.8,0,0,1-.7.8h0a.8.8,0,0,1-.8-.8h0A.7.7,0,0,1,115.3,273.2Z"/><path class="d" d="M117.5,273.2h0a.7.7,0,0,1,.7.7h0a.8.8,0,0,1-.7.8h0a.8.8,0,0,1-.8-.8h0A.7.7,0,0,1,117.5,273.2Z"/><path class="c" d="M119.7,273.2h0a.8.8,0,0,1,.8.7h0a.9.9,0,0,1-.8.8h0a.9.9,0,0,1-.8-.8h0A.8.8,0,0,1,119.7,273.2Z"/><path class="d" d="M121.9,273.2h0a.7.7,0,0,1,.7.7h0a.8.8,0,0,1-.7.8h0a.8.8,0,0,1-.8-.8h0A.7.7,0,0,1,121.9,273.2Z"/><rect class="q" x="97.1" y="233.2" width="1.6" height="1.66" rx="0.8"/><rect class="r" x="99.4" y="233.2" width="1.6" height="1.66" rx="0.8"/><rect class="d" x="97.1" y="235.4" width="1.6" height="1.66" rx="0.8"/><rect class="c" x="99.4" y="235.4" width="1.6" height="1.66" rx="0.8"/><rect class="d" x="101.7" y="235.4" width="1.6" height="1.66" rx="0.8"/><rect class="d" x="101.7" y="233.2" width="1.6" height="1.66" rx="0.8"/><rect class="q" x="97.1" y="237.5" width="1.6" height="1.66" rx="0.8"/><rect class="d" x="99.4" y="237.5" width="1.6" height="1.66" rx="0.8"/><rect class="d" x="97.1" y="239.7" width="1.6" height="1.66" rx="0.8"/><rect class="c" x="99.4" y="239.7" width="1.6" height="1.66" rx="0.8"/><rect class="d" x="101.7" y="239.7" width="1.6" height="1.66" rx="0.8"/><rect class="d" x="101.7" y="237.5" width="1.6" height="1.66" rx="0.8"/><rect class="l" x="127" y="228.6" width="58.7" height="4.56"/><path class="s" d="M126.4,216.3h60c1.2,0,2.2.7,2.2,1.6v9.9c0,.9-1,1.6-2.2,1.6h-60c-1.2,0-2.1-.7-2.1-1.6v-9.9C124.3,217,125.2,216.3,126.4,216.3Z"/><path class="p" d="M125.2,216.3H146v13.1H125.2a.9.9,0,0,1-.9-.9V217.2A.9.9,0,0,1,125.2,216.3Z"/><path class="t" d="M164.8,221h0a.7.7,0,0,1,.7.7h0a.7.7,0,0,1-.7.6h0a.7.7,0,0,1-.7-.6h0A.7.7,0,0,1,164.8,221Z"/><path class="q" d="M166.4,223.7h0a.7.7,0,0,1,.7.7h0a.7.7,0,0,1-.7.7h0a.7.7,0,0,1-.7-.7h0A.7.7,0,0,1,166.4,223.7Z"/><path class="t" d="M167.5,221h0a.7.7,0,0,1,.7.7h0a.7.7,0,0,1-.7.6h0a.7.7,0,0,1-.7-.6h0A.7.7,0,0,1,167.5,221Z"/><path class="t" d="M169.1,223.7h0a.7.7,0,0,1,.7.7h0a.7.7,0,0,1-.7.7h0a.7.7,0,0,1-.6-.7h0A.7.7,0,0,1,169.1,223.7Z"/><path class="r" d="M170.2,221h0a.7.7,0,0,1,.7.7h0a.7.7,0,0,1-.7.6h0a.7.7,0,0,1-.7-.6h0A.7.7,0,0,1,170.2,221Z"/><path class="t" d="M171.9,223.7h0a.7.7,0,0,1,.6.7h0a.7.7,0,0,1-.6.7h0a.7.7,0,0,1-.7-.7h0A.7.7,0,0,1,171.9,223.7Z"/><path class="t" d="M172.9,221h0a.7.7,0,0,1,.7.7h0a.7.7,0,0,1-.7.6h0a.6.6,0,0,1-.6-.6h0A.7.7,0,0,1,172.9,221Z"/><path class="q" d="M174.6,223.7h0a.7.7,0,0,1,.7.7h0a.7.7,0,0,1-.7.7h0a.7.7,0,0,1-.7-.7h0A.7.7,0,0,1,174.6,223.7Z"/><path class="t" d="M175.7,221h0a.8.8,0,0,1,.7.7h0c0,.3-.4.6-.7.6h0a.7.7,0,0,1-.7-.6h0A.7.7,0,0,1,175.7,221Z"/><path class="t" d="M177.3,223.7h0a.7.7,0,0,1,.7.7h0a.7.7,0,0,1-.7.7h0a.7.7,0,0,1-.7-.7h0A.7.7,0,0,1,177.3,223.7Z"/><circle class="e" cx="182.1" cy="222.9" r="1.2"/><circle class="u" cx="182.1" cy="222.9" r="0.9"/><path class="t" d="M161.6,220.5h0a.5.5,0,0,1,.5.5v3.8a.6.6,0,0,1-.5.6h0a.6.6,0,0,1-.5-.6V221A.5.5,0,0,1,161.6,220.5Z"/><path class="t" d="M159.5,220.5h0a.6.6,0,0,1,.6.5v3.8a.6.6,0,0,1-.6.6h0a.6.6,0,0,1-.5-.6V221A.5.5,0,0,1,159.5,220.5Z"/><rect class="p" x="149.2" y="220.5" width="8.2" height="2.06"/><rect class="p" x="149.2" y="223.3" width="8.2" height="2.06"/><path class="r" d="M161.1,221.5h1v3.3a.6.6,0,0,1-.5.6h0a.6.6,0,0,1-.5-.6v-3.3Z"/><path class="q" d="M159,223.5h1.1v1.3a.6.6,0,0,1-.6.6h0a.6.6,0,0,1-.5-.6h0v-1.3Z"/><rect class="v" x="149.2" y="220.5" width="2.1" height="2.06"/><rect class="v" x="149.2" y="223.3" width="2.1" height="2.06"/><rect class="d" x="152.3" y="221.2" width="4.1" height="0.51"/><rect class="d" x="152.3" y="224.1" width="4.1" height="0.51"/><circle class="e" cx="182.1" cy="222.9" r="2.4"/><circle class="w" cx="182.1" cy="222.9" r="2.2"/><path class="d" d="M140.1,224.7h0a.9.9,0,0,1,.9.8h0a.8.8,0,0,1-.9.8h0a.7.7,0,0,1-.8-.8h0A.8.8,0,0,1,140.1,224.7Z"/><path class="c" d="M140.2,219.7h0c.2,0,.3.2.3.4v3.3c0,.2-.1.4-.3.4h0a.4.4,0,0,1-.4-.4v-3.3A.4.4,0,0,1,140.2,219.7Z"/><path class="x" d="M137.5,224.7h0a.9.9,0,0,1,.9.8h0a.8.8,0,0,1-.9.8h0a.8.8,0,0,1-.8-.8h0A.9.9,0,0,1,137.5,224.7Z"/><path class="y" d="M137.6,221.2h0a.4.4,0,0,1,.4.4v1.8a.4.4,0,0,1-.4.4h0a.4.4,0,0,1-.4-.4v-1.8A.4.4,0,0,1,137.6,221.2Z"/><path class="d" d="M135,224.7h0a.9.9,0,0,1,.8.8h0a.8.8,0,0,1-.8.8h0a.8.8,0,0,1-.9-.8h0A.9.9,0,0,1,135,224.7Z"/><path class="c" d="M135,219.1h0a.4.4,0,0,1,.4.4v3.9a.4.4,0,0,1-.4.4h0a.4.4,0,0,1-.4-.4v-3.9A.4.4,0,0,1,135,219.1Z"/><path class="r" d="M132.4,224.7h0a.8.8,0,0,1,.8.8h0a.7.7,0,0,1-.8.8h0a.8.8,0,0,1-.9-.8h0A.9.9,0,0,1,132.4,224.7Z"/><path class="r" d="M132.4,220.1h0a.4.4,0,0,1,.4.4v2.9a.4.4,0,0,1-.4.4h0a.4.4,0,0,1-.4-.4v-2.9A.4.4,0,0,1,132.4,220.1Z"/><path class="q" d="M129.8,224.7h0a.9.9,0,0,1,.9.8h0a.8.8,0,0,1-.9.8h0a.7.7,0,0,1-.8-.8h0A.8.8,0,0,1,129.8,224.7Z"/><path class="q" d="M129.9,221.8h0a.3.3,0,0,1,.3.3v1.3c0,.2-.1.4-.3.4h0a.4.4,0,0,1-.4-.4v-1.3C129.5,221.9,129.6,221.8,129.9,221.8Z"/><rect class="l" x="127" y="244.2" width="58.7" height="4.56"/><path class="s" d="M126.4,231.9h60c1.2,0,2.2.7,2.2,1.5v10c0,.9-1,1.6-2.2,1.6h-60c-1.2,0-2.1-.7-2.1-1.6v-10C124.3,232.6,125.2,231.9,126.4,231.9Z"/><path class="p" d="M125.2,231.9H146V245H125.2a1,1,0,0,1-.9-1V232.8A.9.9,0,0,1,125.2,231.9Z"/><path class="t" d="M164.8,236.6h0a.7.7,0,0,1,.7.6h0a.7.7,0,0,1-.7.7h0a.7.7,0,0,1-.7-.7h0A.7.7,0,0,1,164.8,236.6Z"/><path class="q" d="M166.4,239.3h0a.7.7,0,0,1,.7.7h0a.8.8,0,0,1-.7.7h0a.8.8,0,0,1-.7-.7h0A.7.7,0,0,1,166.4,239.3Z"/><path class="t" d="M167.5,236.6h0a.7.7,0,0,1,.7.6h0a.7.7,0,0,1-.7.7h0a.7.7,0,0,1-.7-.7h0A.7.7,0,0,1,167.5,236.6Z"/><path class="t" d="M169.1,239.3h0a.7.7,0,0,1,.7.7h0a.8.8,0,0,1-.7.7h0c-.3,0-.6-.4-.6-.7h0A.7.7,0,0,1,169.1,239.3Z"/><path class="r" d="M170.2,236.6h0a.7.7,0,0,1,.7.6h0a.7.7,0,0,1-.7.7h0a.7.7,0,0,1-.7-.7h0A.7.7,0,0,1,170.2,236.6Z"/><path class="t" d="M171.9,239.3h0a.7.7,0,0,1,.6.7h0c0,.3-.3.7-.6.7h0a.8.8,0,0,1-.7-.7h0A.7.7,0,0,1,171.9,239.3Z"/><path class="t" d="M172.9,236.6h0a.7.7,0,0,1,.7.6h0a.7.7,0,0,1-.7.7h0a.7.7,0,0,1-.6-.7h0A.6.6,0,0,1,172.9,236.6Z"/><path class="q" d="M174.6,239.3h0a.7.7,0,0,1,.7.7h0a.8.8,0,0,1-.7.7h0a.8.8,0,0,1-.7-.7h0A.7.7,0,0,1,174.6,239.3Z"/><path class="t" d="M175.7,236.6h0c.3,0,.7.3.7.6h0a.8.8,0,0,1-.7.7h0a.7.7,0,0,1-.7-.7h0A.7.7,0,0,1,175.7,236.6Z"/><path class="t" d="M177.3,239.3h0a.7.7,0,0,1,.7.7h0a.8.8,0,0,1-.7.7h0a.8.8,0,0,1-.7-.7h0A.7.7,0,0,1,177.3,239.3Z"/><circle class="e" cx="182.1" cy="238.5" r="1.2"/><circle class="u" cx="182.1" cy="238.5" r="0.9"/><path class="t" d="M161.6,236.1h0a.5.5,0,0,1,.5.5v3.8a.5.5,0,0,1-.5.5h0a.5.5,0,0,1-.5-.5v-3.8A.5.5,0,0,1,161.6,236.1Z"/><path class="t" d="M159.5,236.1h0a.6.6,0,0,1,.6.5v3.8a.6.6,0,0,1-.6.5h0a.5.5,0,0,1-.5-.5v-3.8A.5.5,0,0,1,159.5,236.1Z"/><rect class="p" x="149.2" y="236.1" width="8.2" height="2.06"/><rect class="p" x="149.2" y="238.9" width="8.2" height="2.06"/><path class="r" d="M161.1,237.1h1v3.3a.5.5,0,0,1-.5.5h0a.5.5,0,0,1-.5-.5v-3.3Z"/><path class="q" d="M159,239h1.1v1.4a.6.6,0,0,1-.6.5h0a.5.5,0,0,1-.5-.5h0V239Z"/><rect class="v" x="149.2" y="236.1" width="2.1" height="2.06"/><rect class="v" x="149.2" y="238.9" width="2.1" height="2.06"/><rect class="d" x="152.3" y="236.8" width="4.1" height="0.51"/><rect class="d" x="152.3" y="239.7" width="4.1" height="0.51"/><circle class="e" cx="182.1" cy="238.5" r="2.4"/><circle class="w" cx="182.1" cy="238.5" r="2.2"/><path class="d" d="M140.1,240.5h0a.9.9,0,0,1,.9.8h0a.9.9,0,0,1-.9.9h0a.8.8,0,0,1-.8-.9h0A.8.8,0,0,1,140.1,240.5Z"/><path class="c" d="M140.2,235.5h0c.2,0,.3.2.3.4v3.3c0,.3-.1.4-.3.4h0c-.3,0-.4-.1-.4-.4v-3.3A.4.4,0,0,1,140.2,235.5Z"/><path class="x" d="M137.5,240.5h0a.9.9,0,0,1,.9.8h0a.9.9,0,0,1-.9.9h0a.9.9,0,0,1-.8-.9h0A.9.9,0,0,1,137.5,240.5Z"/><path class="y" d="M137.6,237.1h0c.2,0,.4.1.4.3v1.8a.4.4,0,0,1-.4.4h0a.4.4,0,0,1-.4-.4v-1.8C137.2,237.2,137.4,237.1,137.6,237.1Z"/><path class="d" d="M135,240.5h0a.9.9,0,0,1,.8.8h0a.9.9,0,0,1-.8.9h0a.9.9,0,0,1-.9-.9h0A.9.9,0,0,1,135,240.5Z"/><path class="c" d="M135,234.9h0a.4.4,0,0,1,.4.4v3.9a.4.4,0,0,1-.4.4h0a.4.4,0,0,1-.4-.4v-3.9A.4.4,0,0,1,135,234.9Z"/><path class="r" d="M132.4,240.5h0a.8.8,0,0,1,.8.8h0a.8.8,0,0,1-.8.9h0a.9.9,0,0,1-.9-.9h0A.9.9,0,0,1,132.4,240.5Z"/><path class="r" d="M132.4,235.9h0a.4.4,0,0,1,.4.4v2.9a.4.4,0,0,1-.4.4h0a.4.4,0,0,1-.4-.4v-2.9A.4.4,0,0,1,132.4,235.9Z"/><path class="q" d="M129.8,240.5h0a.9.9,0,0,1,.9.8h0a.9.9,0,0,1-.9.9h0a.8.8,0,0,1-.8-.9h0A.8.8,0,0,1,129.8,240.5Z"/><path class="q" d="M129.9,237.6h0c.2,0,.3.1.3.4v1.2c0,.3-.1.4-.3.4h0c-.3,0-.4-.1-.4-.4V238C129.5,237.7,129.6,237.6,129.9,237.6Z"/><rect class="l" x="127" y="259.8" width="58.7" height="4.56"/><path class="s" d="M126.4,247.5h60c1.2,0,2.2.7,2.2,1.5v10c0,.8-1,1.5-2.2,1.5h-60c-1.2,0-2.1-.7-2.1-1.5V249C124.3,248.2,125.2,247.5,126.4,247.5Z"/><path class="p" d="M125.2,247.5H146v13H125.2a.9.9,0,0,1-.9-.9V248.4A.9.9,0,0,1,125.2,247.5Z"/><path class="t" d="M164.8,252.1h0a.8.8,0,0,1,.7.7h0a.7.7,0,0,1-.7.7h0a.7.7,0,0,1-.7-.7h0A.8.8,0,0,1,164.8,252.1Z"/><path class="q" d="M166.4,254.9h0a.7.7,0,0,1,.7.7h0a.7.7,0,0,1-.7.6h0a.7.7,0,0,1-.7-.6h0A.7.7,0,0,1,166.4,254.9Z"/><path class="t" d="M167.5,252.1h0a.8.8,0,0,1,.7.7h0a.7.7,0,0,1-.7.7h0a.7.7,0,0,1-.7-.7h0A.8.8,0,0,1,167.5,252.1Z"/><path class="t" d="M169.1,254.9h0a.7.7,0,0,1,.7.7h0a.7.7,0,0,1-.7.6h0a.6.6,0,0,1-.6-.6h0A.7.7,0,0,1,169.1,254.9Z"/><path class="r" d="M170.2,252.1h0a.8.8,0,0,1,.7.7h0a.7.7,0,0,1-.7.7h0a.7.7,0,0,1-.7-.7h0A.8.8,0,0,1,170.2,252.1Z"/><path class="t" d="M171.9,254.9h0a.7.7,0,0,1,.6.7h0a.6.6,0,0,1-.6.6h0a.7.7,0,0,1-.7-.6h0A.7.7,0,0,1,171.9,254.9Z"/><path class="t" d="M172.9,252.1h0a.8.8,0,0,1,.7.7h0a.7.7,0,0,1-.7.7h0a.7.7,0,0,1-.6-.7h0C172.3,252.5,172.6,252.1,172.9,252.1Z"/><path class="q" d="M174.6,254.9h0a.7.7,0,0,1,.7.7h0a.7.7,0,0,1-.7.6h0a.7.7,0,0,1-.7-.6h0A.7.7,0,0,1,174.6,254.9Z"/><path class="t" d="M175.7,252.1h0a.8.8,0,0,1,.7.7h0a.8.8,0,0,1-.7.7h0a.7.7,0,0,1-.7-.7h0A.8.8,0,0,1,175.7,252.1Z"/><path class="t" d="M177.3,254.9h0a.7.7,0,0,1,.7.7h0a.7.7,0,0,1-.7.6h0a.7.7,0,0,1-.7-.6h0A.7.7,0,0,1,177.3,254.9Z"/><circle class="e" cx="182.1" cy="254.1" r="1.2"/><circle class="u" cx="182.1" cy="254.1" r="0.9"/><path class="t" d="M161.6,251.6h0a.5.5,0,0,1,.5.5V256a.5.5,0,0,1-.5.5h0a.5.5,0,0,1-.5-.5v-3.9A.5.5,0,0,1,161.6,251.6Z"/><path class="t" d="M159.5,251.6h0a.6.6,0,0,1,.6.5V256a.6.6,0,0,1-.6.5h0a.5.5,0,0,1-.5-.5v-3.9A.6.6,0,0,1,159.5,251.6Z"/><rect class="p" x="149.2" y="251.6" width="8.2" height="2.06"/><rect class="p" x="149.2" y="254.5" width="8.2" height="2.06"/><path class="r" d="M161.1,252.7h1V256a.5.5,0,0,1-.5.5h0a.5.5,0,0,1-.5-.5v-3.3Z"/><path class="q" d="M159,254.6h1.1V256a.6.6,0,0,1-.6.5h0a.5.5,0,0,1-.5-.5h0v-1.4Z"/><rect class="v" x="149.2" y="251.6" width="2.1" height="2.06"/><rect class="v" x="149.2" y="254.5" width="2.1" height="2.06"/><rect class="d" x="152.3" y="252.4" width="4.1" height="0.51"/><rect class="d" x="152.3" y="255.2" width="4.1" height="0.51"/><circle class="e" cx="182.1" cy="254.1" r="2.4"/><circle class="w" cx="182.1" cy="254.1" r="2.2"/><path class="d" d="M140.1,256.1h0a.8.8,0,0,1,.9.8h0a.8.8,0,0,1-.9.8h0a.7.7,0,0,1-.8-.8h0A.7.7,0,0,1,140.1,256.1Z"/><path class="c" d="M140.2,251.1h0c.2,0,.3.2.3.4v3.3c0,.2-.1.4-.3.4h0a.4.4,0,0,1-.4-.4v-3.3A.4.4,0,0,1,140.2,251.1Z"/><path class="x" d="M137.5,256.1h0a.8.8,0,0,1,.9.8h0a.8.8,0,0,1-.9.8h0a.8.8,0,0,1-.8-.8h0A.8.8,0,0,1,137.5,256.1Z"/><path class="y" d="M137.6,252.6h0a.4.4,0,0,1,.4.4v1.8a.4.4,0,0,1-.4.4h0a.4.4,0,0,1-.4-.4V253A.4.4,0,0,1,137.6,252.6Z"/><path class="d" d="M135,256.1h0a.8.8,0,0,1,.8.8h0a.8.8,0,0,1-.8.8h0a.8.8,0,0,1-.9-.8h0A.8.8,0,0,1,135,256.1Z"/><path class="c" d="M135,250.5h0a.4.4,0,0,1,.4.4v3.9a.4.4,0,0,1-.4.4h0a.4.4,0,0,1-.4-.4v-3.9A.4.4,0,0,1,135,250.5Z"/><path class="r" d="M132.4,256.1h0a.7.7,0,0,1,.8.8h0a.7.7,0,0,1-.8.8h0a.8.8,0,0,1-.9-.8h0A.8.8,0,0,1,132.4,256.1Z"/><path class="r" d="M132.4,251.5h0a.4.4,0,0,1,.4.4v2.9a.4.4,0,0,1-.4.4h0a.4.4,0,0,1-.4-.4v-2.9A.4.4,0,0,1,132.4,251.5Z"/><path class="q" d="M129.8,256.1h0a.8.8,0,0,1,.9.8h0a.8.8,0,0,1-.9.8h0a.7.7,0,0,1-.8-.8h0A.7.7,0,0,1,129.8,256.1Z"/><path class="q" d="M129.9,253.2h0a.3.3,0,0,1,.3.3v1.3c0,.2-.1.4-.3.4h0a.4.4,0,0,1-.4-.4v-1.3C129.5,253.3,129.6,253.2,129.9,253.2Z"/><rect class="l" x="127" y="275.4" width="58.7" height="4.56"/><path class="s" d="M126.4,263h60c1.2,0,2.2.7,2.2,1.6v10c0,.8-1,1.5-2.2,1.5h-60c-1.2,0-2.1-.7-2.1-1.5v-10C124.3,263.7,125.2,263,126.4,263Z"/><path class="p" d="M125.2,263H146v13.1H125.2a.9.9,0,0,1-.9-.9V264A1,1,0,0,1,125.2,263Z"/><path class="t" d="M164.8,267.7h0a.7.7,0,0,1,.7.7h0a.7.7,0,0,1-.7.7h0a.7.7,0,0,1-.7-.7h0A.7.7,0,0,1,164.8,267.7Z"/><path class="q" d="M166.4,270.5h0a.7.7,0,0,1,.7.6h0a.7.7,0,0,1-.7.7h0a.7.7,0,0,1-.7-.7h0A.7.7,0,0,1,166.4,270.5Z"/><path class="t" d="M167.5,267.7h0a.7.7,0,0,1,.7.7h0a.7.7,0,0,1-.7.7h0a.7.7,0,0,1-.7-.7h0A.7.7,0,0,1,167.5,267.7Z"/><path class="t" d="M169.1,270.5h0a.7.7,0,0,1,.7.6h0a.7.7,0,0,1-.7.7h0a.7.7,0,0,1-.6-.7h0A.6.6,0,0,1,169.1,270.5Z"/><path class="r" d="M170.2,267.7h0a.7.7,0,0,1,.7.7h0a.7.7,0,0,1-.7.7h0a.7.7,0,0,1-.7-.7h0A.7.7,0,0,1,170.2,267.7Z"/><path class="t" d="M171.9,270.5h0a.6.6,0,0,1,.6.6h0a.7.7,0,0,1-.6.7h0a.7.7,0,0,1-.7-.7h0A.7.7,0,0,1,171.9,270.5Z"/><path class="t" d="M172.9,267.7h0a.7.7,0,0,1,.7.7h0a.7.7,0,0,1-.7.7h0a.7.7,0,0,1-.6-.7h0A.7.7,0,0,1,172.9,267.7Z"/><path class="q" d="M174.6,270.5h0a.7.7,0,0,1,.7.6h0a.7.7,0,0,1-.7.7h0a.7.7,0,0,1-.7-.7h0A.7.7,0,0,1,174.6,270.5Z"/><path class="t" d="M175.7,267.7h0a.8.8,0,0,1,.7.7h0a.8.8,0,0,1-.7.7h0a.7.7,0,0,1-.7-.7h0A.7.7,0,0,1,175.7,267.7Z"/><path class="t" d="M177.3,270.5h0a.7.7,0,0,1,.7.6h0a.7.7,0,0,1-.7.7h0a.7.7,0,0,1-.7-.7h0A.7.7,0,0,1,177.3,270.5Z"/><circle class="e" cx="182.1" cy="269.7" r="1.2"/><circle class="u" cx="182.1" cy="269.7" r="0.9"/><path class="t" d="M161.6,267.2h0a.5.5,0,0,1,.5.5v3.9a.5.5,0,0,1-.5.5h0a.5.5,0,0,1-.5-.5v-3.9A.5.5,0,0,1,161.6,267.2Z"/><path class="t" d="M159.5,267.2h0a.6.6,0,0,1,.6.5v3.9a.6.6,0,0,1-.6.5h0a.5.5,0,0,1-.5-.5v-3.9A.5.5,0,0,1,159.5,267.2Z"/><rect class="p" x="149.2" y="267.2" width="8.2" height="2.06"/><rect class="p" x="149.2" y="270" width="8.2" height="2.06"/><path class="r" d="M161.1,268.2h1v3.4a.5.5,0,0,1-.5.5h0a.5.5,0,0,1-.5-.5v-3.4Z"/><path class="q" d="M159,270.2h1.1v1.4a.6.6,0,0,1-.6.5h0a.5.5,0,0,1-.5-.5h0v-1.4Z"/><rect class="v" x="149.2" y="267.2" width="2.1" height="2.06"/><rect class="v" x="149.2" y="270" width="2.1" height="2.06"/><rect class="d" x="152.3" y="268" width="4.1" height="0.51"/><rect class="d" x="152.3" y="270.8" width="4.1" height="0.51"/><circle class="e" cx="182.1" cy="269.7" r="2.4"/><circle class="w" cx="182.1" cy="269.7" r="2.2"/><path class="d" d="M140.1,271.6h0a.9.9,0,0,1,.9.9h0a.9.9,0,0,1-.9.8h0a.8.8,0,0,1-.8-.8h0A.8.8,0,0,1,140.1,271.6Z"/><path class="c" d="M140.2,266.7h0c.2,0,.3.1.3.4v3.3c0,.2-.1.4-.3.4h0a.4.4,0,0,1-.4-.4v-3.3C139.8,266.8,139.9,266.7,140.2,266.7Z"/><path class="x" d="M137.5,271.6h0a.9.9,0,0,1,.9.9h0a.9.9,0,0,1-.9.8h0a.9.9,0,0,1-.8-.8h0A.9.9,0,0,1,137.5,271.6Z"/><path class="y" d="M137.6,268.2h0a.4.4,0,0,1,.4.4v1.8a.4.4,0,0,1-.4.4h0a.4.4,0,0,1-.4-.4v-1.8A.4.4,0,0,1,137.6,268.2Z"/><path class="d" d="M135,271.6h0a.9.9,0,0,1,.8.9h0a.9.9,0,0,1-.8.8h0a.9.9,0,0,1-.9-.8h0A.9.9,0,0,1,135,271.6Z"/><path class="c" d="M135,266.1h0a.4.4,0,0,1,.4.4v3.9a.4.4,0,0,1-.4.4h0a.4.4,0,0,1-.4-.4v-3.9A.4.4,0,0,1,135,266.1Z"/><path class="r" d="M132.4,271.6h0a.8.8,0,0,1,.8.9h0a.8.8,0,0,1-.8.8h0a.9.9,0,0,1-.9-.8h0A.9.9,0,0,1,132.4,271.6Z"/><path class="r" d="M132.4,267.1h0c.2,0,.4.1.4.3v3a.4.4,0,0,1-.4.4h0a.4.4,0,0,1-.4-.4v-3C132,267.2,132.2,267.1,132.4,267.1Z"/><path class="q" d="M129.8,271.6h0a.9.9,0,0,1,.9.9h0a.9.9,0,0,1-.9.8h0a.8.8,0,0,1-.8-.8h0A.8.8,0,0,1,129.8,271.6Z"/><path class="q" d="M129.9,268.7h0c.2,0,.3.2.3.4v1.3c0,.2-.1.4-.3.4h0a.4.4,0,0,1-.4-.4v-1.3A.4.4,0,0,1,129.9,268.7Z"/><path class="s" d="M126.4,278.6h60c1.2,0,2.2.7,2.2,1.6v9.9c0,.9-1,1.6-2.2,1.6h-60c-1.2,0-2.1-.7-2.1-1.6v-9.9C124.3,279.3,125.2,278.6,126.4,278.6Z"/><path class="p" d="M125.2,278.6H146v13.1H125.2a.9.9,0,0,1-.9-.9V279.6A.9.9,0,0,1,125.2,278.6Z"/><path class="t" d="M164.8,283.3h0a.7.7,0,0,1,.7.7h0a.7.7,0,0,1-.7.7h0a.7.7,0,0,1-.7-.7h0A.7.7,0,0,1,164.8,283.3Z"/><path class="q" d="M166.4,286h0a.7.7,0,0,1,.7.7h0a.7.7,0,0,1-.7.7h0a.7.7,0,0,1-.7-.7h0A.7.7,0,0,1,166.4,286Z"/><path class="t" d="M167.5,283.3h0a.7.7,0,0,1,.7.7h0a.7.7,0,0,1-.7.7h0a.7.7,0,0,1-.7-.7h0A.7.7,0,0,1,167.5,283.3Z"/><path class="t" d="M169.1,286h0a.7.7,0,0,1,.7.7h0a.7.7,0,0,1-.7.7h0a.7.7,0,0,1-.6-.7h0A.7.7,0,0,1,169.1,286Z"/><path class="r" d="M170.2,283.3h0a.7.7,0,0,1,.7.7h0a.7.7,0,0,1-.7.7h0a.7.7,0,0,1-.7-.7h0A.7.7,0,0,1,170.2,283.3Z"/><path class="t" d="M171.9,286h0a.7.7,0,0,1,.6.7h0a.7.7,0,0,1-.6.7h0a.7.7,0,0,1-.7-.7h0A.7.7,0,0,1,171.9,286Z"/><path class="t" d="M172.9,283.3h0a.7.7,0,0,1,.7.7h0a.7.7,0,0,1-.7.7h0a.7.7,0,0,1-.6-.7h0A.7.7,0,0,1,172.9,283.3Z"/><path class="q" d="M174.6,286h0a.7.7,0,0,1,.7.7h0a.7.7,0,0,1-.7.7h0a.7.7,0,0,1-.7-.7h0A.7.7,0,0,1,174.6,286Z"/><path class="t" d="M175.7,283.3h0a.8.8,0,0,1,.7.7h0a.8.8,0,0,1-.7.7h0a.7.7,0,0,1-.7-.7h0A.7.7,0,0,1,175.7,283.3Z"/><path class="t" d="M177.3,286h0a.7.7,0,0,1,.7.7h0a.7.7,0,0,1-.7.7h0a.7.7,0,0,1-.7-.7h0A.7.7,0,0,1,177.3,286Z"/><circle class="e" cx="182.1" cy="285.2" r="1.2"/><circle class="u" cx="182.1" cy="285.2" r="0.9"/><path class="t" d="M161.6,282.8h0a.5.5,0,0,1,.5.5v3.9a.5.5,0,0,1-.5.5h0a.5.5,0,0,1-.5-.5v-3.9A.5.5,0,0,1,161.6,282.8Z"/><path class="t" d="M159.5,282.8h0a.6.6,0,0,1,.6.5v3.9a.6.6,0,0,1-.6.5h0a.5.5,0,0,1-.5-.5v-3.9A.5.5,0,0,1,159.5,282.8Z"/><rect class="p" x="149.2" y="282.8" width="8.2" height="2.06"/><rect class="p" x="149.2" y="285.6" width="8.2" height="2.06"/><path class="r" d="M161.1,283.8h1v3.4a.5.5,0,0,1-.5.5h0a.5.5,0,0,1-.5-.5v-3.4Z"/><path class="q" d="M159,285.8h1.1v1.4a.6.6,0,0,1-.6.5h0a.5.5,0,0,1-.5-.5h0v-1.4Z"/><rect class="v" x="149.2" y="282.8" width="2.1" height="2.06"/><rect class="v" x="149.2" y="285.6" width="2.1" height="2.06"/><rect class="d" x="152.3" y="283.6" width="4.1" height="0.51"/><rect class="d" x="152.3" y="286.4" width="4.1" height="0.51"/><circle class="e" cx="182.1" cy="285.2" r="2.4"/><circle class="w" cx="182.1" cy="285.2" r="2.2"/><path class="d" d="M140.1,287h0a.9.9,0,0,1,.9.8h0a.9.9,0,0,1-.9.9h0a.8.8,0,0,1-.8-.9h0A.8.8,0,0,1,140.1,287Z"/><path class="c" d="M140.2,282h0c.2,0,.3.2.3.4v3.4a.3.3,0,0,1-.3.3h0c-.3,0-.4-.1-.4-.3v-3.4A.4.4,0,0,1,140.2,282Z"/><path class="x" d="M137.5,287h0a.9.9,0,0,1,.9.8h0a.9.9,0,0,1-.9.9h0a.9.9,0,0,1-.8-.9h0A.9.9,0,0,1,137.5,287Z"/><path class="y" d="M137.6,283.6h0a.4.4,0,0,1,.4.4v1.8c0,.2-.2.3-.4.3h0c-.2,0-.4-.1-.4-.3V284A.4.4,0,0,1,137.6,283.6Z"/><path class="d" d="M135,287h0a.9.9,0,0,1,.8.8h0a.9.9,0,0,1-.8.9h0a.9.9,0,0,1-.9-.9h0A.9.9,0,0,1,135,287Z"/><path class="c" d="M135,281.4h0a.4.4,0,0,1,.4.4v4c0,.2-.2.3-.4.3h0c-.2,0-.4-.1-.4-.3v-4A.4.4,0,0,1,135,281.4Z"/><path class="r" d="M132.4,287h0a.8.8,0,0,1,.8.8h0a.8.8,0,0,1-.8.9h0a.9.9,0,0,1-.9-.9h0A.9.9,0,0,1,132.4,287Z"/><path class="r" d="M132.4,282.4h0a.4.4,0,0,1,.4.4v3c0,.2-.2.3-.4.3h0c-.2,0-.4-.1-.4-.3v-3A.4.4,0,0,1,132.4,282.4Z"/><path class="q" d="M129.8,287h0a.9.9,0,0,1,.9.8h0a.9.9,0,0,1-.9.9h0a.8.8,0,0,1-.8-.9h0A.8.8,0,0,1,129.8,287Z"/><path class="q" d="M129.9,284.1h0c.2,0,.3.2.3.4v1.3a.3.3,0,0,1-.3.3h0c-.3,0-.4-.1-.4-.3v-1.3A.4.4,0,0,1,129.9,284.1Z"/><polygon class="z" points="277.2 259.9 275.6 310.2 273.2 310.2 273.7 260.1 277.2 259.9"/><polygon class="z" points="285.8 259.3 297.6 312.4 300.2 312.2 290.5 259.3 285.8 259.3"/><polygon class="z" points="264 259.9 250.3 312.4 247.3 312.2 260.2 259.7 264 259.9"/><path class="z" d="M297.5,207.9s12.8-.7,11.6,14.1-2.1,29.9-6.8,35.1-52.9,5.3-56.9,1.1,7.7-4.1,9.9-4.1,15.8,1.3,20.2-10.2S278.8,207.2,297.5,207.9Z"/><path class="z" d="M298.3,207.9s9.8,2,8.9,12.3-3.5,28.3-8.2,32.8-23.5,5.6-33.6,5a90.4,90.4,0,0,1-19.2-3s-2.1,1.4-1.4,2.3,6.3,4.4,34.1,3.9,25.8-4.7,27-9.2,3.5-28.3,3.2-33.6S306.1,208.8,298.3,207.9Z"/><path class="q" d="M239.2,309.2v-5.9h10.9l.2,8.5h-.7c-3,.2-15.4.8-17.4.2S239.2,309.2,239.2,309.2Z"/><path class="q" d="M264.1,309.2v-5.9H275v8.5h-.6c-3.1.2-15.4.8-17.4.2S264.1,309.2,264.1,309.2Z"/><path class="aa" d="M242.9,188.9c-.8,7.6-2.8,30.8,7.8,30,12.5-1,15.3-10.8,15.3-10.8l-2.4-8.9s-12.3,10.7-12.6,9.4c-1.8-7.1-1.3-16.8-1-20.3"/><path class="d" d="M298.3,216.3,296,205.5c-1.6-8.8-13.9-9.4-13.9-9.4h-9.6a18.5,18.5,0,0,0-11.6,4c-5.2,4.2-8.6,7.4-8.6,7.4l8.1,9.4,4.8-3.2,2.1,26.7,28.7.3-3.7-24.2Z"/><path class="ab" d="M260.4,216.8c-.1,0-1.9-2.1-4-4.7s-3.8-4.8-3.8-4.8a39.2,39.2,0,0,1,4,4.6A37.4,37.4,0,0,1,260.4,216.8Z"/><polygon class="ac" points="267.2 238.1 266.8 232 294.4 232 295.5 237.3 267.2 238.1"/><path class="ac" d="M284.1,205.8c.1,3.7,1,7.5,1.2,11.2a8.1,8.1,0,0,1-.5,3.5c-1,1.8-3.3,2.4-5.3,2.9l-12.3,2.5,22-1.1Z"/><path class="aa" d="M299.4,224.8c-.6-5.2-1.3-8.5-1.3-8.5l-11.2.2s1,5.6.7,7.2-21.9,2.2-27.5,2.2c-.3-.2-.8.2-1.3-.2a4.8,4.8,0,0,1-.9-1.1,9.1,9.1,0,0,1-.8-1.8.6.6,0,0,0-1.1-.2c-.2.4.1,2,1.1,3.6s-1.7.7-2.7.5-4.3-1-4.6-.7-.2.9.9,1.2,4,1.2,3.9,1.8-5.4-1-5.4-1-1.1-.5-1.3.2,5.3,2.2,5.8,2.3.2.7-.2.6-5.1-1.6-5.5-.4,4.6,1,5.4,1.8-3.7-.4-4,.4,1.8.5,4.6.9,7.3.3,8.4.3c6.3.3,28.7.8,33.5.4S299.6,226.5,299.4,224.8Z"/><path class="aa" d="M249.9,190.2a31.5,31.5,0,0,1,.3-3.3l2.4-5.1s-.5-1.1-1.9,1.2-2.7.6-2.3-1a2,2,0,0,1,3.7-.8s.9.1,1-.6-1.8-2.2-3.4-1.8a4.4,4.4,0,0,0-1.8,1s.3-5.4-.1-5.4-1.1.3-1.4,6.2c0,0-.2-4.7-.3-5.3s-.9-1-1,.5-.3,4.8-.3,4.8-.5-3.1-.5-3.3-.8-.6-.9.3-.1,3.3-.1,3.3l-.4,8.3v.4"/><path class="aa" d="M271.7,198.8l-.2-5.7a5,5,0,0,1-4.3-4.7c-.1-4.1.3-13.7.3-13.7l7.5-3.6,6.5,7.5v20a5,5,0,0,1-5,5h0A4.8,4.8,0,0,1,271.7,198.8Z"/><path class="ad" d="M271.5,193.1a10,10,0,0,0,5.4-1.7,5.2,5.2,0,0,1-5.3,2.7Z"/><path class="ae" d="M248.3,239.9a168.2,168.2,0,0,1,29-.4l-12.2,17.6H254l-2.4,50.5H237l1.4-56.8a11.4,11.4,0,0,1,9.9-11Z"/><path class="l" d="M275.3,258.5s21.9,1.5,21.3-18.2c0,0-35.1-5.9-37.4,4.3-.7,3.3,1.3,63.5,1.3,63.5h15.3"/><polygon class="af" points="228.2 203.6 236.5 229.6 282.6 230.4 282.3 229 265.4 228.5 257.7 203.6 228.2 203.6"/><path class="y" d="M246.9,216.6a1.9,1.9,0,0,1-1,2.4,1.9,1.9,0,0,1-2.1-1.6,1.9,1.9,0,0,1,1.1-2.4C245.7,214.8,246.6,215.5,246.9,216.6Z"/><path class="ag" d="M330.7,222.2a4.1,4.1,0,0,0-2.6-.8v-.8H314s-.5,9.3,6.7,9.6a6,6,0,0,0,6-3.1l1.6.2a3.5,3.5,0,0,0,2.2-.6,2.7,2.7,0,0,0,1.1-2.4A2.6,2.6,0,0,0,330.7,222.2Zm-1,3.4a3.3,3.3,0,0,1-2.4.3,13.5,13.5,0,0,0,.7-3.1,3,3,0,0,1,1.8.4,1.8,1.8,0,0,1,.4,1.1A1.7,1.7,0,0,1,329.7,225.6Z"/><polygon class="ab" points="343.1 229.7 198.8 229.7 198.8 234.1 206.6 234.1 202.4 312.2 204.7 312.2 208.8 234.1 335.2 233.4 338.2 312 340.6 312.1 337.5 234.1 343.1 234.1 343.1 229.7"/><path class="s" d="M277.6,176.4c-13.9,1.9-14.9-6.5-7.7-10.2,4.5-2.1,8.4-2.1,11.9-.7-2,2.8-3.3,5.7-.3,5.6,5.8.7,7.5,5.1,6.4,11.8-1.5,12.2-9.8,9-8.9,4.2,5.9-2.3,1.1-8.7-.2-3.4C275.1,184.6,275.4,181.5,277.6,176.4Z"/></svg>