<svg xmlns="http://www.w3.org/2000/svg" xmlns:xlink="http://www.w3.org/1999/xlink" viewBox="0 0 400 400"><defs><style>.a{font-size:41.46px;font-family:AdobeArabic-Regular, Adobe Arabic;}.a,.y{fill:#fff;}.b{fill:url(#a);}.c{fill:#137fcf;}.d{fill:#288ed9;}.e,.f,.g,.n,.u,.w{fill:none;}.f,.g{stroke:#288ed9;}.f{stroke-width:0.37px;}.g,.n{stroke-linecap:round;stroke-miterlimit:10;stroke-width:1.46px;}.h{fill:url(#b);}.i{fill:#024679;}.j,.p{fill:#005b9f;}.j{opacity:0.57;isolation:isolate;}.k{opacity:0.5;}.l{fill:#1f364c;}.m{fill:#043c67;}.n{stroke:#1f364c;}.o{fill:#166eaf;}.q{fill:#21e2e2;}.r{fill:#ffbc98;}.s{fill:#0e71bb;}.t{fill:#52acea;}.u{stroke:#ffbc98;}.u,.w{stroke-width:0.73px;}.v{fill:#80c9ff;}.w{stroke:#21e2e2;}.x{fill:#d6eeff;}.z{fill:#191919;}.aa{fill:#c91b1b;}.ab{fill:#f9c7a5;}.ac{fill:#0876ba;}.ad{fill:#ffe7cb;}.ae{fill:#152735;}.af{fill:#adb3ba;}.ag{fill:#6d7a85;}.ah{fill:#565656;}</style><linearGradient id="a" x1="-2033.26" y1="400.28" x2="-2033.26" y2="400.93" gradientTransform="matrix(740.56, 0, 0, -612.51, 1505966.02, 245617.49)" gradientUnits="userSpaceOnUse"><stop offset="0" stop-color="#c6e6ff"/><stop offset="1" stop-color="#fff"/></linearGradient><linearGradient id="b" x1="-2032.31" y1="403.07" x2="-2032.31" y2="402.06" gradientTransform="matrix(531, 0, 0, -95, 1079365.71, 38535.44)" gradientUnits="userSpaceOnUse"><stop offset="0" stop-color="#288ed9"/><stop offset="1" stop-color="#137fcf" stop-opacity="0.05"/></linearGradient></defs><title>foreign dedicated server</title><text class="a" transform="translate(84.6 -44.1)"> جراخ یصاصتخا روس *</text><path class="b" d="M205.7,100.9c61.4,39.2,131.6,56.8,131.6,56.8s77.4,11.7,48.9,99.8-32.1,119.6-76.7,121.9c-42.3,1.2-66.1-16.3-107.9-13.3-36.8,2.8-62.1,19.4-123.5-4.8C-20.3,317.8-13-37.1,205.7,100.9Z"/><rect class="c" x="44.6" y="259.4" width="16.7" height="16.74" rx="2.5"/><path class="d" d="M53.3,263.9a4.1,4.1,0,1,1-4.1,4.1A4,4,0,0,1,53.3,263.9Z"/><circle class="e" cx="53.3" cy="268" r="5.6"/><circle class="f" cx="53.3" cy="268" r="5.3"/><path class="g" d="M107.6,250.7H76.7c-4.2,0-6.2,2.4-6.1,6.5,0,1,.1,18.1.1,21.4s-2.5,5.3-6.7,5.3H58.2c-3.1,0-5.1-2.1-5.1-4.4v-7.7"/><ellipse class="h" cx="210.5" cy="315.8" rx="134.5" ry="24.1"/><rect class="i" x="105.4" y="137.3" width="95.2" height="178.26" rx="5.1"/><path class="j" d="M111,137.3h45.6V315.6H111a5.1,5.1,0,0,1-5.1-5.1V142.4A5.1,5.1,0,0,1,111,137.3Z"/><g class="k"><rect class="l" x="131.7" y="148.5" width="43" height="1.52"/><rect class="l" x="131.7" y="152.5" width="43" height="1.52"/><rect class="l" x="131.7" y="156.6" width="43" height="1.52"/><rect class="l" x="131.7" y="160.6" width="43" height="1.52"/><rect class="l" x="131.7" y="164.7" width="43" height="1.52"/></g><g class="k"><rect class="l" x="131.2" y="291.3" width="43" height="1.52"/><rect class="l" x="131.2" y="295.3" width="43" height="1.52"/><rect class="l" x="131.2" y="299.4" width="43" height="1.52"/><rect class="l" x="131.2" y="303.4" width="43" height="1.52"/></g><rect class="m" x="131.2" y="177.8" width="50.6" height="93.69"/><path class="n" d="M156.5,186.8v11.1c0,2.3,1.2,3.4,3.3,3.4h3.3c2.1,0,2.7,1.4,2.7,3.7v65.3"/><path class="n" d="M153,190.1v4.7c0,2.4,1.2,3.4,3.4,3.4h3.2c2.1,0,2.8,1.4,2.8,3.7v68.3"/><path class="n" d="M162.7,185.1V194c0,2,1,2.9,2.9,2.9h5.3c1.8,0,2.4,1.2,2.4,3.2v3.4"/><path class="n" d="M181.6,184.3H159.8c-2.3,0-3.4,1.2-3.4,3.4,0,.6.1,1.5.1,3.3"/><path class="n" d="M153,191.4v-3.3c.1-2.2-1-3.4-3.4-3.4H132.5"/><path class="n" d="M139.4,184.7v43.7c0,2.3,1.2,3.4,3.4,3.4h3.3c2.1,0,2.7,1.4,2.7,3.7v34.7h0"/><path class="n" d="M142.7,184.8v14.1c0,2.3,1.2,3.4,3.3,3.4h3.3c2.1,0,2.8,1.4,2.8,3.7v29.7"/><path class="n" d="M145.8,185.1v55.5c0,2.3,1.2,3.4,3.3,3.4h3.3c2.1,0,2.8,1.4,2.8,3.7v22.6"/><rect class="o" x="114.3" y="219.1" width="9.1" height="34.28" rx="4.5"/><path class="p" d="M118.1,242.6v-12a2.2,2.2,0,0,1,2.2-2.2h0a2.2,2.2,0,0,1,2.3,2.2v12a2.2,2.2,0,0,1-2.3,2.2h0A2.2,2.2,0,0,1,118.1,242.6Z"/><path class="q" d="M146.8,282.8h0a1.7,1.7,0,0,1,1.6,1.7h0a1.6,1.6,0,0,1-1.6,1.7h0a1.6,1.6,0,0,1-1.7-1.7h0A1.7,1.7,0,0,1,146.8,282.8Z"/><path class="r" d="M151.6,282.8h0a1.7,1.7,0,0,1,1.7,1.7h0a1.6,1.6,0,0,1-1.7,1.7h0a1.6,1.6,0,0,1-1.6-1.7h0A1.7,1.7,0,0,1,151.6,282.8Z"/><path class="d" d="M156.4,282.8h0a1.8,1.8,0,0,1,1.7,1.7h0a1.7,1.7,0,0,1-1.7,1.7h0a1.7,1.7,0,0,1-1.7-1.7h0A1.8,1.8,0,0,1,156.4,282.8Z"/><path class="c" d="M161.3,282.8h0a1.7,1.7,0,0,1,1.6,1.7h0a1.6,1.6,0,0,1-1.6,1.7h0a1.6,1.6,0,0,1-1.7-1.7h0A1.7,1.7,0,0,1,161.3,282.8Z"/><path class="d" d="M166,282.8h0a1.8,1.8,0,0,1,1.7,1.7h0a1.7,1.7,0,0,1-1.7,1.7h0a1.7,1.7,0,0,1-1.7-1.7h0A1.8,1.8,0,0,1,166,282.8Z"/><rect class="q" x="112" y="195.8" width="3.5" height="3.61" rx="1.7"/><rect class="r" x="117.1" y="195.8" width="3.5" height="3.61" rx="1.7"/><rect class="d" x="112" y="200.5" width="3.5" height="3.61" rx="1.7"/><rect class="c" x="117.1" y="200.5" width="3.5" height="3.61" rx="1.7"/><rect class="d" x="122" y="200.5" width="3.5" height="3.61" rx="1.7"/><rect class="d" x="122" y="195.8" width="3.5" height="3.61" rx="1.7"/><rect class="q" x="112" y="205.2" width="3.5" height="3.61" rx="1.7"/><rect class="d" x="117.1" y="205.2" width="3.5" height="3.61" rx="1.7"/><rect class="d" x="112" y="209.9" width="3.5" height="3.61" rx="1.7"/><rect class="c" x="117.1" y="209.9" width="3.5" height="3.61" rx="1.7"/><rect class="d" x="122" y="209.9" width="3.5" height="3.61" rx="1.7"/><rect class="d" x="122" y="205.2" width="3.5" height="3.61" rx="1.7"/><rect class="l" x="177.2" y="185.8" width="127.9" height="9.93"/><path class="s" d="M175.9,159H306.6c2.6,0,4.7,1.5,4.7,3.4v21.7c0,1.9-2.1,3.4-4.7,3.4H175.9c-2.6,0-4.7-1.5-4.7-3.4V162.4C171.2,160.5,173.3,159,175.9,159Z"/><path class="p" d="M173.3,159h45.2v28.5H173.3a2,2,0,0,1-2.1-2V161A2,2,0,0,1,173.3,159Z"/><path class="t" d="M259.4,169.2h0a1.5,1.5,0,0,1,1.5,1.5h0a1.5,1.5,0,0,1-1.5,1.5h0a1.5,1.5,0,0,1-1.4-1.5h0A1.5,1.5,0,0,1,259.4,169.2Z"/><path class="q" d="M263,175.1h0a1.5,1.5,0,0,1,1.5,1.5h0a1.5,1.5,0,0,1-1.5,1.5h0a1.5,1.5,0,0,1-1.5-1.5h0A1.5,1.5,0,0,1,263,175.1Z"/><path class="t" d="M265.4,169.2h0a1.5,1.5,0,0,1,1.5,1.5h0a1.5,1.5,0,0,1-1.5,1.5h0a1.5,1.5,0,0,1-1.5-1.5h0A1.5,1.5,0,0,1,265.4,169.2Z"/><path class="t" d="M268.9,175.1h0a1.5,1.5,0,0,1,1.5,1.5h0a1.5,1.5,0,0,1-1.5,1.5h0a1.5,1.5,0,0,1-1.4-1.5h0A1.5,1.5,0,0,1,268.9,175.1Z"/><path class="r" d="M271.3,169.2h0a1.5,1.5,0,0,1,1.5,1.5h0a1.5,1.5,0,0,1-1.5,1.5h0a1.5,1.5,0,0,1-1.5-1.5h0A1.5,1.5,0,0,1,271.3,169.2Z"/><path class="t" d="M274.9,175.1h0a1.5,1.5,0,0,1,1.5,1.5h0a1.5,1.5,0,0,1-1.5,1.5h0a1.5,1.5,0,0,1-1.5-1.5h0A1.5,1.5,0,0,1,274.9,175.1Z"/><path class="t" d="M277.2,169.2h0a1.5,1.5,0,0,1,1.5,1.5h0a1.5,1.5,0,0,1-1.5,1.5h0a1.5,1.5,0,0,1-1.4-1.5h0A1.5,1.5,0,0,1,277.2,169.2Z"/><path class="q" d="M280.8,175.1h0a1.5,1.5,0,0,1,1.5,1.5h0a1.5,1.5,0,0,1-1.5,1.5h0a1.5,1.5,0,0,1-1.5-1.5h0A1.5,1.5,0,0,1,280.8,175.1Z"/><path class="t" d="M283.2,169.2h0a1.5,1.5,0,0,1,1.5,1.5h0a1.5,1.5,0,0,1-1.5,1.5h0a1.5,1.5,0,0,1-1.5-1.5h0A1.5,1.5,0,0,1,283.2,169.2Z"/><path class="t" d="M286.7,175.1h0a1.5,1.5,0,0,1,1.5,1.5h0a1.5,1.5,0,0,1-1.5,1.5h0a1.5,1.5,0,0,1-1.4-1.5h0A1.5,1.5,0,0,1,286.7,175.1Z"/><circle class="e" cx="297.1" cy="173.4" r="2.5"/><circle class="u" cx="297.1" cy="173.4" r="2"/><path class="t" d="M252.5,168.1h0a1.1,1.1,0,0,1,1.2,1.1v8.4a1.1,1.1,0,0,1-1.2,1.1h0a1.1,1.1,0,0,1-1.1-1.1v-8.4A1.1,1.1,0,0,1,252.5,168.1Z"/><path class="t" d="M248,168.1h0a1.1,1.1,0,0,1,1.2,1.1v8.4a1.1,1.1,0,0,1-1.2,1.1h0a1.1,1.1,0,0,1-1.1-1.1v-8.4A1.1,1.1,0,0,1,248,168.1Z"/><rect class="p" x="225.6" y="168.1" width="17.9" height="4.48"/><rect class="p" x="225.6" y="174.2" width="17.9" height="4.48"/><path class="r" d="M251.4,170.3h2.3v7.3a1.1,1.1,0,0,1-1.2,1.1h0a1.1,1.1,0,0,1-1.1-1.1v-7.3Z"/><path class="q" d="M246.9,174.6h2.3v3a1.1,1.1,0,0,1-1.2,1.1h0a1.1,1.1,0,0,1-1.1-1.1h0v-3Z"/><rect class="v" x="225.6" y="168.1" width="4.5" height="4.48"/><rect class="v" x="225.6" y="174.2" width="4.5" height="4.48"/><rect class="d" x="232.4" y="169.8" width="9" height="1.12"/><rect class="d" x="232.4" y="175.9" width="9" height="1.12"/><circle class="e" cx="297.1" cy="173.4" r="5.3"/><circle class="w" cx="297.1" cy="173.4" r="4.8"/><path class="d" d="M205.7,177.2h0a2,2,0,0,1,1.9,1.9h0a2,2,0,0,1-1.9,1.9h0a1.9,1.9,0,0,1-1.8-1.9h0A1.9,1.9,0,0,1,205.7,177.2Z"/><path class="c" d="M205.8,166.4h0a.9.9,0,0,1,.9.8v7.3a.9.9,0,0,1-.9.9h0a.9.9,0,0,1-.8-.9v-7.3A.9.9,0,0,1,205.8,166.4Z"/><path class="x" d="M200.1,177.2h0a2,2,0,0,1,1.9,1.9h0a2,2,0,0,1-1.9,1.9h0a1.9,1.9,0,0,1-1.8-1.9h0A1.9,1.9,0,0,1,200.1,177.2Z"/><path class="y" d="M200.2,169.8h0a.8.8,0,0,1,.9.8v3.9a.9.9,0,0,1-.9.9h0a.9.9,0,0,1-.8-.9v-3.9A.8.8,0,0,1,200.2,169.8Z"/><path class="d" d="M194.5,177.2h0a2,2,0,0,1,1.9,1.9h0a2,2,0,0,1-1.9,1.9h0a1.9,1.9,0,0,1-1.8-1.9h0A1.9,1.9,0,0,1,194.5,177.2Z"/><path class="c" d="M194.6,165.1h0a.9.9,0,0,1,.9.8v8.6a.9.9,0,0,1-.9.9h0a.9.9,0,0,1-.8-.9v-8.6A.9.9,0,0,1,194.6,165.1Z"/><path class="r" d="M188.9,177.2h0a2,2,0,0,1,1.9,1.9h0a2,2,0,0,1-1.9,1.9h0a1.9,1.9,0,0,1-1.8-1.9h0A1.9,1.9,0,0,1,188.9,177.2Z"/><path class="r" d="M189,167.2h0a.9.9,0,0,1,.9.9v6.4a.9.9,0,0,1-.9.9h0a.8.8,0,0,1-.8-.9v-6.4A.8.8,0,0,1,189,167.2Z"/><path class="q" d="M183.3,177.2h0a1.9,1.9,0,0,1,1.8,1.9h0a1.9,1.9,0,0,1-1.8,1.9h0a2,2,0,0,1-1.9-1.9h0A2,2,0,0,1,183.3,177.2Z"/><path class="q" d="M183.4,170.9h0a.7.7,0,0,1,.8.8v2.8a.8.8,0,0,1-.8.9h0a.8.8,0,0,1-.8-.9v-2.8A.7.7,0,0,1,183.4,170.9Z"/><rect class="l" x="177.2" y="219.8" width="127.9" height="9.93"/><path class="s" d="M175.9,192.9H306.6c2.6,0,4.7,1.5,4.7,3.4V218c0,1.9-2.1,3.4-4.7,3.4H175.9c-2.6,0-4.7-1.5-4.7-3.4V196.3C171.2,194.4,173.3,192.9,175.9,192.9Z"/><path class="p" d="M173.3,192.9h45.2v28.5H173.3a2,2,0,0,1-2.1-2V194.9A2,2,0,0,1,173.3,192.9Z"/><path class="t" d="M259.4,203.1h0a1.5,1.5,0,0,1,1.5,1.5h0a1.5,1.5,0,0,1-1.5,1.5h0a1.5,1.5,0,0,1-1.4-1.5h0A1.5,1.5,0,0,1,259.4,203.1Z"/><path class="q" d="M263,209.1h0a1.5,1.5,0,0,1,1.5,1.4h0A1.5,1.5,0,0,1,263,212h0a1.5,1.5,0,0,1-1.5-1.5h0A1.5,1.5,0,0,1,263,209.1Z"/><path class="t" d="M265.4,203.1h0a1.5,1.5,0,0,1,1.5,1.5h0a1.5,1.5,0,0,1-1.5,1.5h0a1.5,1.5,0,0,1-1.5-1.5h0A1.5,1.5,0,0,1,265.4,203.1Z"/><path class="t" d="M268.9,209.1h0a1.4,1.4,0,0,1,1.5,1.4h0a1.4,1.4,0,0,1-1.5,1.5h0a1.4,1.4,0,0,1-1.4-1.5h0A1.4,1.4,0,0,1,268.9,209.1Z"/><path class="r" d="M271.3,203.1h0a1.5,1.5,0,0,1,1.5,1.5h0a1.5,1.5,0,0,1-1.5,1.5h0a1.5,1.5,0,0,1-1.5-1.5h0A1.5,1.5,0,0,1,271.3,203.1Z"/><path class="t" d="M274.9,209.1h0a1.5,1.5,0,0,1,1.5,1.4h0a1.5,1.5,0,0,1-1.5,1.5h0a1.5,1.5,0,0,1-1.5-1.5h0A1.5,1.5,0,0,1,274.9,209.1Z"/><path class="t" d="M277.2,203.1h0a1.5,1.5,0,0,1,1.5,1.5h0a1.5,1.5,0,0,1-1.5,1.5h0a1.5,1.5,0,0,1-1.4-1.5h0A1.5,1.5,0,0,1,277.2,203.1Z"/><path class="q" d="M280.8,209.1h0a1.5,1.5,0,0,1,1.5,1.4h0a1.5,1.5,0,0,1-1.5,1.5h0a1.5,1.5,0,0,1-1.5-1.5h0A1.5,1.5,0,0,1,280.8,209.1Z"/><path class="t" d="M283.2,203.1h0a1.5,1.5,0,0,1,1.5,1.5h0a1.5,1.5,0,0,1-1.5,1.5h0a1.5,1.5,0,0,1-1.5-1.5h0A1.5,1.5,0,0,1,283.2,203.1Z"/><path class="t" d="M286.7,209.1h0a1.4,1.4,0,0,1,1.5,1.4h0a1.4,1.4,0,0,1-1.5,1.5h0a1.4,1.4,0,0,1-1.4-1.5h0A1.4,1.4,0,0,1,286.7,209.1Z"/><circle class="e" cx="297.1" cy="207.3" r="2.5"/><circle class="u" cx="297.1" cy="207.3" r="2"/><path class="t" d="M252.5,202h0a1.1,1.1,0,0,1,1.2,1.1v8.4a1.2,1.2,0,0,1-1.2,1.2h0a1.2,1.2,0,0,1-1.1-1.2v-8.4A1.1,1.1,0,0,1,252.5,202Z"/><path class="t" d="M248,202h0a1.1,1.1,0,0,1,1.2,1.1v8.4a1.2,1.2,0,0,1-1.2,1.2h0a1.2,1.2,0,0,1-1.1-1.2v-8.4A1.1,1.1,0,0,1,248,202Z"/><rect class="p" x="225.6" y="202" width="17.9" height="4.48"/><rect class="p" x="225.6" y="208.2" width="17.9" height="4.48"/><path class="r" d="M251.4,204.2h2.3v7.3a1.2,1.2,0,0,1-1.2,1.2h0a1.2,1.2,0,0,1-1.1-1.2v-7.3Z"/><path class="q" d="M246.9,208.5h2.3v3a1.2,1.2,0,0,1-1.2,1.2h0a1.2,1.2,0,0,1-1.1-1.2h0v-3Z"/><rect class="v" x="225.6" y="202" width="4.5" height="4.48"/><rect class="v" x="225.6" y="208.2" width="4.5" height="4.48"/><rect class="d" x="232.4" y="203.7" width="9" height="1.12"/><rect class="d" x="232.4" y="209.8" width="9" height="1.12"/><circle class="e" cx="297.1" cy="207.3" r="5.3"/><circle class="w" cx="297.1" cy="207.3" r="4.8"/><path class="d" d="M205.7,211.7h0a1.9,1.9,0,0,1,1.9,1.8v.2a1.9,1.9,0,0,1-1.9,1.8h0a1.8,1.8,0,0,1-1.8-1.8v-.2A1.8,1.8,0,0,1,205.7,211.7Z"/><path class="c" d="M205.8,200.8h0a.9.9,0,0,1,.9.9V209a.9.9,0,0,1-.9.8h0a.9.9,0,0,1-.8-.8v-7.3A.9.9,0,0,1,205.8,200.8Z"/><path class="x" d="M200.1,211.7h0a1.9,1.9,0,0,1,1.9,1.8v.2a1.9,1.9,0,0,1-1.9,1.8h0a1.8,1.8,0,0,1-1.8-1.8v-.2A1.8,1.8,0,0,1,200.1,211.7Z"/><path class="y" d="M200.2,204.2h0a.9.9,0,0,1,.9.8v4a.9.9,0,0,1-.9.8h0a.9.9,0,0,1-.8-.8v-4A.9.9,0,0,1,200.2,204.2Z"/><path class="d" d="M194.5,211.7h0a1.9,1.9,0,0,1,1.9,1.8v.2a1.9,1.9,0,0,1-1.9,1.8h0a1.8,1.8,0,0,1-1.8-1.8v-.2A1.8,1.8,0,0,1,194.5,211.7Z"/><path class="c" d="M194.6,199.5h0a.9.9,0,0,1,.9.9V209a.9.9,0,0,1-.9.8h0a.9.9,0,0,1-.8-.8v-8.6A.9.9,0,0,1,194.6,199.5Z"/><path class="r" d="M188.9,211.7h0a1.9,1.9,0,0,1,1.9,1.8v.2a1.9,1.9,0,0,1-1.9,1.8h0a1.8,1.8,0,0,1-1.8-1.8v-.2A1.8,1.8,0,0,1,188.9,211.7Z"/><path class="r" d="M189,201.7h0a.9.9,0,0,1,.9.8V209a.9.9,0,0,1-.9.8h0a.8.8,0,0,1-.8-.8v-6.5A.8.8,0,0,1,189,201.7Z"/><path class="q" d="M183.3,211.7h0a1.8,1.8,0,0,1,1.8,1.8v.2a1.8,1.8,0,0,1-1.8,1.8h0a1.9,1.9,0,0,1-1.9-1.8v-.2A1.9,1.9,0,0,1,183.3,211.7Z"/><path class="q" d="M183.4,205.3h0a.8.8,0,0,1,.8.8V209a.8.8,0,0,1-.8.8h0a.8.8,0,0,1-.8-.8v-2.9A.8.8,0,0,1,183.4,205.3Z"/><rect class="l" x="177.2" y="253.7" width="127.9" height="9.93"/><path class="s" d="M175.9,226.8H306.6c2.6,0,4.7,1.6,4.7,3.4v21.7c0,1.9-2.1,3.4-4.7,3.4H175.9c-2.6,0-4.7-1.5-4.7-3.4V230.2C171.2,228.4,173.3,226.8,175.9,226.8Z"/><path class="p" d="M173.3,226.8h45.2v28.5H173.3a2,2,0,0,1-2.1-2V228.9A2.1,2.1,0,0,1,173.3,226.8Z"/><path class="t" d="M259.4,237h0a1.5,1.5,0,0,1,1.5,1.5h0a1.4,1.4,0,0,1-1.5,1.5h0a1.4,1.4,0,0,1-1.4-1.5h0A1.5,1.5,0,0,1,259.4,237Z"/><path class="q" d="M263,243h0a1.5,1.5,0,0,1,1.5,1.5h0a1.5,1.5,0,0,1-1.5,1.4h0a1.5,1.5,0,0,1-1.5-1.4h0A1.5,1.5,0,0,1,263,243Z"/><path class="t" d="M265.4,237h0a1.5,1.5,0,0,1,1.5,1.5h0a1.5,1.5,0,0,1-1.5,1.5h0a1.5,1.5,0,0,1-1.5-1.5h0A1.5,1.5,0,0,1,265.4,237Z"/><path class="t" d="M268.9,243h0a1.4,1.4,0,0,1,1.5,1.5h0a1.4,1.4,0,0,1-1.5,1.4h0a1.4,1.4,0,0,1-1.4-1.4h0A1.4,1.4,0,0,1,268.9,243Z"/><path class="r" d="M271.3,237h0a1.5,1.5,0,0,1,1.5,1.5h0a1.5,1.5,0,0,1-1.5,1.5h0a1.5,1.5,0,0,1-1.5-1.5h0A1.5,1.5,0,0,1,271.3,237Z"/><path class="t" d="M274.9,243h0a1.5,1.5,0,0,1,1.5,1.5h0a1.5,1.5,0,0,1-1.5,1.4h0a1.5,1.5,0,0,1-1.5-1.4h0A1.5,1.5,0,0,1,274.9,243Z"/><path class="t" d="M277.2,237h0a1.5,1.5,0,0,1,1.5,1.5h0a1.4,1.4,0,0,1-1.5,1.5h0a1.4,1.4,0,0,1-1.4-1.5h0A1.5,1.5,0,0,1,277.2,237Z"/><path class="q" d="M280.8,243h0a1.5,1.5,0,0,1,1.5,1.5h0a1.5,1.5,0,0,1-1.5,1.4h0a1.5,1.5,0,0,1-1.5-1.4h0A1.5,1.5,0,0,1,280.8,243Z"/><path class="t" d="M283.2,237h0a1.5,1.5,0,0,1,1.5,1.5h0a1.5,1.5,0,0,1-1.5,1.5h0a1.5,1.5,0,0,1-1.5-1.5h0A1.5,1.5,0,0,1,283.2,237Z"/><path class="t" d="M286.7,243h0a1.4,1.4,0,0,1,1.5,1.5h0a1.4,1.4,0,0,1-1.5,1.4h0a1.4,1.4,0,0,1-1.4-1.4h0A1.4,1.4,0,0,1,286.7,243Z"/><circle class="e" cx="297.1" cy="241.3" r="2.5"/><circle class="u" cx="297.1" cy="241.3" r="2"/><path class="t" d="M252.5,235.9h0a1.2,1.2,0,0,1,1.2,1.2v8.4a1.1,1.1,0,0,1-1.2,1.1h0a1.1,1.1,0,0,1-1.1-1.1v-8.4A1.1,1.1,0,0,1,252.5,235.9Z"/><path class="t" d="M248,235.9h0a1.2,1.2,0,0,1,1.2,1.2v8.4a1.1,1.1,0,0,1-1.2,1.1h0a1.1,1.1,0,0,1-1.1-1.1v-8.4A1.1,1.1,0,0,1,248,235.9Z"/><rect class="p" x="225.6" y="235.9" width="17.9" height="4.48"/><rect class="p" x="225.6" y="242.1" width="17.9" height="4.48"/><path class="r" d="M251.4,238.2h2.3v7.3a1.1,1.1,0,0,1-1.2,1.1h0a1.1,1.1,0,0,1-1.1-1.1v-7.3Z"/><path class="q" d="M246.9,242.4h2.3v3.1a1.1,1.1,0,0,1-1.2,1.1h0a1.1,1.1,0,0,1-1.1-1.1h0v-3.1Z"/><rect class="v" x="225.6" y="235.9" width="4.5" height="4.48"/><rect class="v" x="225.6" y="242.1" width="4.5" height="4.48"/><rect class="d" x="232.4" y="237.6" width="9" height="1.12"/><rect class="d" x="232.4" y="243.8" width="9" height="1.12"/><circle class="e" cx="297.1" cy="241.3" r="5.3"/><circle class="w" cx="297.1" cy="241.3" r="4.8"/><path class="d" d="M205.7,245.6h0a1.9,1.9,0,0,1,1.9,1.8v.2a1.9,1.9,0,0,1-1.9,1.8h0a1.8,1.8,0,0,1-1.8-1.8v-.2A1.8,1.8,0,0,1,205.7,245.6Z"/><path class="c" d="M205.8,234.8h0a.8.8,0,0,1,.9.8v7.3a.9.9,0,0,1-.9.8h0a.9.9,0,0,1-.8-.8v-7.3A.8.8,0,0,1,205.8,234.8Z"/><path class="x" d="M200.1,245.6h0a1.9,1.9,0,0,1,1.9,1.8v.2a1.9,1.9,0,0,1-1.9,1.8h0a1.8,1.8,0,0,1-1.8-1.8v-.2A1.8,1.8,0,0,1,200.1,245.6Z"/><path class="y" d="M200.2,238.1h0a.9.9,0,0,1,.9.9v3.9a.9.9,0,0,1-.9.8h0a.9.9,0,0,1-.8-.8V239A.9.9,0,0,1,200.2,238.1Z"/><path class="d" d="M194.5,245.6h0a1.9,1.9,0,0,1,1.9,1.8v.2a1.9,1.9,0,0,1-1.9,1.8h0a1.8,1.8,0,0,1-1.8-1.8v-.2A1.8,1.8,0,0,1,194.5,245.6Z"/><path class="c" d="M194.6,233.5h0a.8.8,0,0,1,.9.8v8.6a.9.9,0,0,1-.9.8h0a.9.9,0,0,1-.8-.8v-8.6A.8.8,0,0,1,194.6,233.5Z"/><path class="r" d="M188.9,245.6h0a1.9,1.9,0,0,1,1.9,1.8v.2a1.9,1.9,0,0,1-1.9,1.8h0a1.8,1.8,0,0,1-1.8-1.8v-.2A1.8,1.8,0,0,1,188.9,245.6Z"/><path class="r" d="M189,235.6h0a.9.9,0,0,1,.9.8v6.5a.9.9,0,0,1-.9.8h0a.8.8,0,0,1-.8-.8v-6.5A.8.8,0,0,1,189,235.6Z"/><path class="q" d="M183.3,245.6h0a1.8,1.8,0,0,1,1.8,1.8v.2a1.8,1.8,0,0,1-1.8,1.8h0a1.9,1.9,0,0,1-1.9-1.8v-.2A1.9,1.9,0,0,1,183.3,245.6Z"/><path class="q" d="M183.4,239.2h0a.8.8,0,0,1,.8.9v2.8a.8.8,0,0,1-.8.8h0a.8.8,0,0,1-.8-.8v-2.8A.8.8,0,0,1,183.4,239.2Z"/><rect class="l" x="177.2" y="287.6" width="127.9" height="9.93"/><path class="s" d="M175.9,260.8H306.6c2.6,0,4.7,1.5,4.7,3.4v21.7c0,1.9-2.1,3.4-4.7,3.4H175.9c-2.6,0-4.7-1.5-4.7-3.4V264.2C171.2,262.3,173.3,260.8,175.9,260.8Z"/><path class="p" d="M173.3,260.8h45.2v28.5H173.3a2.1,2.1,0,0,1-2.1-2.1V262.8A2,2,0,0,1,173.3,260.8Z"/><path class="t" d="M259.4,271h0a1.4,1.4,0,0,1,1.5,1.5h0a1.4,1.4,0,0,1-1.5,1.4h0a1.4,1.4,0,0,1-1.4-1.4h0A1.4,1.4,0,0,1,259.4,271Z"/><path class="q" d="M263,276.9h0a1.5,1.5,0,0,1,1.5,1.5h0a1.5,1.5,0,0,1-1.5,1.5h0a1.5,1.5,0,0,1-1.5-1.5h0A1.5,1.5,0,0,1,263,276.9Z"/><path class="t" d="M265.4,271h0a1.5,1.5,0,0,1,1.5,1.5h0a1.5,1.5,0,0,1-1.5,1.4h0a1.5,1.5,0,0,1-1.5-1.4h0A1.5,1.5,0,0,1,265.4,271Z"/><path class="t" d="M268.9,276.9h0a1.5,1.5,0,0,1,1.5,1.5h0a1.5,1.5,0,0,1-1.5,1.5h0a1.5,1.5,0,0,1-1.4-1.5h0A1.5,1.5,0,0,1,268.9,276.9Z"/><path class="r" d="M271.3,271h0a1.5,1.5,0,0,1,1.5,1.5h0a1.5,1.5,0,0,1-1.5,1.4h0a1.5,1.5,0,0,1-1.5-1.4h0A1.5,1.5,0,0,1,271.3,271Z"/><path class="t" d="M274.9,276.9h0a1.5,1.5,0,0,1,1.5,1.5h0a1.5,1.5,0,0,1-1.5,1.5h0a1.5,1.5,0,0,1-1.5-1.5h0A1.5,1.5,0,0,1,274.9,276.9Z"/><path class="t" d="M277.2,271h0a1.4,1.4,0,0,1,1.5,1.5h0a1.4,1.4,0,0,1-1.5,1.4h0a1.4,1.4,0,0,1-1.4-1.4h0A1.4,1.4,0,0,1,277.2,271Z"/><path class="q" d="M280.8,276.9h0a1.5,1.5,0,0,1,1.5,1.5h0a1.5,1.5,0,0,1-1.5,1.5h0a1.5,1.5,0,0,1-1.5-1.5h0A1.5,1.5,0,0,1,280.8,276.9Z"/><path class="t" d="M283.2,271h0a1.5,1.5,0,0,1,1.5,1.5h0a1.5,1.5,0,0,1-1.5,1.4h0a1.5,1.5,0,0,1-1.5-1.4h0A1.5,1.5,0,0,1,283.2,271Z"/><path class="t" d="M286.7,276.9h0a1.5,1.5,0,0,1,1.5,1.5h0a1.5,1.5,0,0,1-1.5,1.5h0a1.5,1.5,0,0,1-1.4-1.5h0A1.5,1.5,0,0,1,286.7,276.9Z"/><circle class="e" cx="297.1" cy="275.2" r="2.5"/><circle class="u" cx="297.1" cy="275.2" r="2"/><path class="t" d="M252.5,269.9h0a1.1,1.1,0,0,1,1.2,1.1v8.4a1.1,1.1,0,0,1-1.2,1.1h0a1.1,1.1,0,0,1-1.1-1.1V271A1.1,1.1,0,0,1,252.5,269.9Z"/><path class="t" d="M248,269.9h0a1.1,1.1,0,0,1,1.2,1.1v8.4a1.1,1.1,0,0,1-1.2,1.1h0a1.1,1.1,0,0,1-1.1-1.1V271A1.1,1.1,0,0,1,248,269.9Z"/><rect class="p" x="225.6" y="269.9" width="17.9" height="4.48"/><rect class="p" x="225.6" y="276" width="17.9" height="4.48"/><path class="r" d="M251.4,272.1h2.3v7.3a1.1,1.1,0,0,1-1.2,1.1h0a1.1,1.1,0,0,1-1.1-1.1v-7.3Z"/><path class="q" d="M246.9,276.4h2.3v3a1.1,1.1,0,0,1-1.2,1.1h0a1.1,1.1,0,0,1-1.1-1.1h0v-3Z"/><rect class="v" x="225.6" y="269.9" width="4.5" height="4.48"/><rect class="v" x="225.6" y="276" width="4.5" height="4.48"/><rect class="d" x="232.4" y="271.5" width="9" height="1.12"/><rect class="d" x="232.4" y="277.7" width="9" height="1.12"/><circle class="e" cx="297.1" cy="275.2" r="5.3"/><circle class="w" cx="297.1" cy="275.2" r="4.8"/><path class="d" d="M205.7,279.5h0a1.9,1.9,0,0,1,1.9,1.9h0a2,2,0,0,1-1.9,1.9h0a1.9,1.9,0,0,1-1.8-1.9h0A1.8,1.8,0,0,1,205.7,279.5Z"/><path class="c" d="M205.8,268.7h0a.9.9,0,0,1,.9.8v7.3a.9.9,0,0,1-.9.9h0a.9.9,0,0,1-.8-.9v-7.3A.9.9,0,0,1,205.8,268.7Z"/><path class="x" d="M200.1,279.5h0a1.9,1.9,0,0,1,1.9,1.9h0a2,2,0,0,1-1.9,1.9h0a1.9,1.9,0,0,1-1.8-1.9h0A1.8,1.8,0,0,1,200.1,279.5Z"/><path class="y" d="M200.2,272h0a.9.9,0,0,1,.9.9v3.9a.9.9,0,0,1-.9.9h0a.9.9,0,0,1-.8-.9v-3.9A.9.9,0,0,1,200.2,272Z"/><path class="d" d="M194.5,279.5h0a1.9,1.9,0,0,1,1.9,1.9h0a2,2,0,0,1-1.9,1.9h0a1.9,1.9,0,0,1-1.8-1.9h0A1.8,1.8,0,0,1,194.5,279.5Z"/><path class="c" d="M194.6,267.4h0a.9.9,0,0,1,.9.8v8.6a.9.9,0,0,1-.9.9h0a.9.9,0,0,1-.8-.9v-8.6A.9.9,0,0,1,194.6,267.4Z"/><path class="r" d="M188.9,279.5h0a1.9,1.9,0,0,1,1.9,1.9h0a2,2,0,0,1-1.9,1.9h0a1.9,1.9,0,0,1-1.8-1.9h0A1.8,1.8,0,0,1,188.9,279.5Z"/><path class="r" d="M189,269.5h0a.9.9,0,0,1,.9.9v6.4a.9.9,0,0,1-.9.9h0a.8.8,0,0,1-.8-.9v-6.4A.8.8,0,0,1,189,269.5Z"/><path class="q" d="M183.3,279.5h0a1.8,1.8,0,0,1,1.8,1.9h0a1.9,1.9,0,0,1-1.8,1.9h0a2,2,0,0,1-1.9-1.9h0A1.9,1.9,0,0,1,183.3,279.5Z"/><path class="q" d="M183.4,273.2h0a.7.7,0,0,1,.8.8v2.8a.8.8,0,0,1-.8.9h0a.8.8,0,0,1-.8-.9V274A.7.7,0,0,1,183.4,273.2Z"/><path class="s" d="M175.9,294.7H306.6c2.6,0,4.7,1.5,4.7,3.4v21.7c0,1.9-2.1,3.4-4.7,3.4H175.9c-2.6,0-4.7-1.5-4.7-3.4V298.1C171.2,296.2,173.3,294.7,175.9,294.7Z"/><path class="p" d="M173.3,294.7h45.2v28.5H173.3a2,2,0,0,1-2.1-2V296.7A2,2,0,0,1,173.3,294.7Z"/><path class="t" d="M259.4,304.9h0a1.5,1.5,0,0,1,1.5,1.5h0a1.5,1.5,0,0,1-1.5,1.5h0a1.5,1.5,0,0,1-1.4-1.5h0A1.5,1.5,0,0,1,259.4,304.9Z"/><path class="q" d="M263,310.8h0a1.5,1.5,0,0,1,1.5,1.5h0a1.5,1.5,0,0,1-1.5,1.5h0a1.5,1.5,0,0,1-1.5-1.5h0A1.5,1.5,0,0,1,263,310.8Z"/><path class="t" d="M265.4,304.9h0a1.5,1.5,0,0,1,1.5,1.5h0a1.5,1.5,0,0,1-1.5,1.5h0a1.5,1.5,0,0,1-1.5-1.5h0A1.5,1.5,0,0,1,265.4,304.9Z"/><path class="t" d="M268.9,310.8h0a1.5,1.5,0,0,1,1.5,1.5h0a1.5,1.5,0,0,1-1.5,1.5h0a1.5,1.5,0,0,1-1.4-1.5h0A1.5,1.5,0,0,1,268.9,310.8Z"/><path class="r" d="M271.3,304.9h0a1.5,1.5,0,0,1,1.5,1.5h0a1.5,1.5,0,0,1-1.5,1.5h0a1.5,1.5,0,0,1-1.5-1.5h0A1.5,1.5,0,0,1,271.3,304.9Z"/><path class="t" d="M274.9,310.8h0a1.5,1.5,0,0,1,1.5,1.5h0a1.5,1.5,0,0,1-1.5,1.5h0a1.5,1.5,0,0,1-1.5-1.5h0A1.5,1.5,0,0,1,274.9,310.8Z"/><path class="t" d="M277.2,304.9h0a1.5,1.5,0,0,1,1.5,1.5h0a1.5,1.5,0,0,1-1.5,1.5h0a1.5,1.5,0,0,1-1.4-1.5h0A1.5,1.5,0,0,1,277.2,304.9Z"/><path class="q" d="M280.8,310.8h0a1.5,1.5,0,0,1,1.5,1.5h0a1.5,1.5,0,0,1-1.5,1.5h0a1.5,1.5,0,0,1-1.5-1.5h0A1.5,1.5,0,0,1,280.8,310.8Z"/><path class="t" d="M283.2,304.9h0a1.5,1.5,0,0,1,1.5,1.5h0a1.5,1.5,0,0,1-1.5,1.5h0a1.5,1.5,0,0,1-1.5-1.5h0A1.5,1.5,0,0,1,283.2,304.9Z"/><path class="t" d="M286.7,310.8h0a1.5,1.5,0,0,1,1.5,1.5h0a1.5,1.5,0,0,1-1.5,1.5h0a1.5,1.5,0,0,1-1.4-1.5h0A1.5,1.5,0,0,1,286.7,310.8Z"/><circle class="e" cx="297.1" cy="309.1" r="2.5"/><circle class="u" cx="297.1" cy="309.1" r="2"/><path class="t" d="M252.5,303.8h0a1.1,1.1,0,0,1,1.2,1.1v8.4a1.1,1.1,0,0,1-1.2,1.1h0a1.1,1.1,0,0,1-1.1-1.1v-8.4A1.1,1.1,0,0,1,252.5,303.8Z"/><path class="t" d="M248,303.8h0a1.1,1.1,0,0,1,1.2,1.1v8.4a1.1,1.1,0,0,1-1.2,1.1h0a1.1,1.1,0,0,1-1.1-1.1v-8.4A1.1,1.1,0,0,1,248,303.8Z"/><rect class="p" x="225.6" y="303.8" width="17.9" height="4.48"/><rect class="p" x="225.6" y="310" width="17.9" height="4.48"/><path class="r" d="M251.4,306h2.3v7.3a1.1,1.1,0,0,1-1.2,1.1h0a1.1,1.1,0,0,1-1.1-1.1V306Z"/><path class="q" d="M246.9,310.3h2.3v3a1.1,1.1,0,0,1-1.2,1.1h0a1.1,1.1,0,0,1-1.1-1.1h0v-3Z"/><rect class="v" x="225.6" y="303.8" width="4.5" height="4.48"/><rect class="v" x="225.6" y="310" width="4.5" height="4.48"/><rect class="d" x="232.4" y="305.5" width="9" height="1.12"/><rect class="d" x="232.4" y="311.6" width="9" height="1.12"/><circle class="e" cx="297.1" cy="309.1" r="5.3"/><circle class="w" cx="297.1" cy="309.1" r="4.8"/><path class="d" d="M205.7,312.9h0a2,2,0,0,1,1.9,1.9h0a1.9,1.9,0,0,1-1.9,1.9h0a1.8,1.8,0,0,1-1.8-1.9h0A1.9,1.9,0,0,1,205.7,312.9Z"/><path class="c" d="M205.8,302.1h0a.9.9,0,0,1,.9.8v7.3a.9.9,0,0,1-.9.9h0a.9.9,0,0,1-.8-.9v-7.3A.9.9,0,0,1,205.8,302.1Z"/><path class="x" d="M200.1,312.9h0a2,2,0,0,1,1.9,1.9h0a1.9,1.9,0,0,1-1.9,1.9h0a1.8,1.8,0,0,1-1.8-1.9h0A1.9,1.9,0,0,1,200.1,312.9Z"/><path class="y" d="M200.2,305.5h0a.8.8,0,0,1,.9.8v3.9a.9.9,0,0,1-.9.9h0a.9.9,0,0,1-.8-.9v-3.9A.8.8,0,0,1,200.2,305.5Z"/><path class="d" d="M194.5,312.9h0a2,2,0,0,1,1.9,1.9h0a1.9,1.9,0,0,1-1.9,1.9h0a1.8,1.8,0,0,1-1.8-1.9h0A1.9,1.9,0,0,1,194.5,312.9Z"/><path class="c" d="M194.6,300.8h0a.9.9,0,0,1,.9.9v8.5a.9.9,0,0,1-.9.9h0a.9.9,0,0,1-.8-.9v-8.5A.9.9,0,0,1,194.6,300.8Z"/><path class="r" d="M188.9,312.9h0a2,2,0,0,1,1.9,1.9h0a1.9,1.9,0,0,1-1.9,1.9h0a1.8,1.8,0,0,1-1.8-1.9h0A1.9,1.9,0,0,1,188.9,312.9Z"/><path class="r" d="M189,303h0a.8.8,0,0,1,.9.8v6.4a.9.9,0,0,1-.9.9h0a.8.8,0,0,1-.8-.9v-6.4A.7.7,0,0,1,189,303Z"/><path class="q" d="M183.3,312.9h0a1.9,1.9,0,0,1,1.8,1.9h0a1.8,1.8,0,0,1-1.8,1.9h0a1.9,1.9,0,0,1-1.9-1.9h0A2,2,0,0,1,183.3,312.9Z"/><path class="q" d="M183.4,306.6h0a.8.8,0,0,1,.8.8v2.8a.8.8,0,0,1-.8.9h0a.8.8,0,0,1-.8-.9v-2.8A.8.8,0,0,1,183.4,306.6Z"/><rect class="z" x="179.4" y="143.6" width="25.2" height="5.33"/><rect class="aa" x="180.8" y="145" width="10.9" height="2.65"/><path class="ab" d="M97.6,103.9c-6.8,1.4-7.4,7-5.4,12.9s19.3,34.3,21.4,35.1,11.3-2.6,11.6-5.4-10.4-29.1-13-33.7S105.4,102.1,97.6,103.9Z"/><path class="ab" d="M150.5,139.8l2.5-.5a7.5,7.5,0,0,1,4.2,0c1.8.5,6.8,2.1,7.7,2.1s1.7.8.3,1.2-14.8.5-14.8.5Z"/><path class="ab" d="M112.1,151.8c1.2,7.4,12.9,4.6,18.5,2.9s21.3-9,21.3-9l-1.4-6a117.2,117.2,0,0,0-31.5,2.5C117.4,142.5,110.8,144.2,112.1,151.8Z"/><path class="q" d="M58.9,346.3s4.7,8.7,4,10.5-4,4.5-8.9,3.8-8.9-5.2-9.8-5.5.3-12.3.3-12.3Z"/><path class="ac" d="M103.7,104.2c2.5.8,8.1,3.6,12,12.7,2.6,6,7.1,17.7,7.1,17.7a24.2,24.2,0,0,1-9.6,5.5,25.3,25.3,0,0,1-11.9.8s-10.2-24.2-9.4-29.4C92.1,109.9,96.9,101.9,103.7,104.2Z"/><path class="ad" d="M78.4,76.8s-.9,20-2.1,20.9c-3.6,3-16.7,5.5-19.2,10.8s13.3,34.8,15.4,44.3-2.4,24-3.8,33.2,27.6,20.5,28.6,20.5,10.5-8.7,12.3-11.7,0-26.7.1-32.8,1.4-27.2,1.7-28.6a41.8,41.8,0,0,0-.9-18.5c-.3-1.9-.2-5.2-1.2-6.4s-12.8-5.8-13-7.1L94.7,82.8Z"/><polygon class="ab" points="95.3 94.4 77.9 81.6 76.3 97.7 81 101.2 95.3 94.4"/><path class="ad" d="M105.3,62.2c-3.3-5.1-15-11.9-23.4-5.2s-7.7,15.7-5.7,21.7,3.6,7.5,8.1,11.1c.9.7,9.8,4.7,11.9,4.5s4.7-9.1,5.1-9a1.8,1.8,0,0,0,1.8-.9c.3-1.1.8-8.1,1.3-8.7S109.1,68,105.3,62.2Z"/><rect class="q" x="85.4" y="346.9" width="11.3" height="2.11"/><path class="q" d="M85.8,332a22.2,22.2,0,0,0-2.6,7.9c-.2,2.3,1.2,7,2.6,7a110.1,110.1,0,0,1,13.9.8c4.4.5,6,3.1,17.3,3.1,3.3,0,9.1-.2,9.1-1.6,0-5.8-10.8-3.8-14.2-6.9-8.7-8.1-14.5-10-14.5-10S86.1,331.6,85.8,332Z"/><path class="ae" d="M91.2,177.6s-15.1,15.1-15.8,21.7,5.7,27.6,8,44.2,3.6,19.9,3,23.8-5,19.7-4.8,30.3c.2,12.3-.5,37.4-.5,37.4s3.3,2.6,11.8,2.6c5.4,0,10.1-3.9,10.1-3.9s3.4-61.8,4.1-68.3c.5-4.2,3.9-33.2,5-56.9.3-7.6-1.5-29.3-1.5-32.5Z"/><path class="l" d="M67.7,176.6s-6,14.8-8.4,24.6-5.3,61.1-6.1,65.9-3.9,19.5-6.2,34-3.7,43.8-3.7,43.8l18.6,2.9S73,286.6,74.7,276.9s20.2-77.8,20.2-77.8l8.2-23.1Z"/><path class="ae" d="M68.3,218.4c-1.6,6.5-6.1,51-6.5,53.5s-11.9,70.8-12.4,73.9l-6.1-.9s1.4-29.2,3.7-43.8,5.3-29.2,6.2-34,3.7-56,6.1-65.9,8.4-24.6,8.4-24.6l16.3.5S69.9,211.8,68.3,218.4Z"/><path class="d" d="M76.3,97.7s11.2,9.3,17.4,8.8,2.6-5.1,2.6-5.1,11.5,3.6,13,6.1,2.2,8.8,2.7,10.8.7,11.3-.1,19.3c-.4,4.7-.3,10.9-1.1,18.9s.1,23.8.1,23.8-6.5.3-16.6-.2c-11.7-.6-23.6-2.4-24.1-2.9-2.2-1.8.9-20,.5-22S56,118.4,55.8,113.9s1.5-7.8,5-9.5S76.3,97.7,76.3,97.7Z"/><path class="ac" d="M63.1,103.8s-11.5,6.3-.2,15.1c4.9,3.7,17.9,22.2,22.3,23.6,15.7,4.8,1.8,27-.1,29.7a12.4,12.4,0,0,0-1.8,6.2l-15.2-1.7c-4.7.9,2.6-21.6.8-26.5s-13.1-32.7-13.1-36.3A10.3,10.3,0,0,1,63.1,103.8Z"/><path class="ad" d="M59.8,105.9c-6.6,2.5-6.7,8.6-4,14.9s25.9,40.1,28.1,40.6,11.3-4.1,11.2-7.3-16.3-35.5-19.4-40.2S67.7,103,59.8,105.9Z"/><path class="d" d="M65.9,105c2.6.6,8.5,3.1,10.6,7.9,2.9,6.7,11.7,23.8,11.7,23.8a24.7,24.7,0,0,1-9.1,7.2A23.4,23.4,0,0,1,67,146.2s-12.7-26-13.2-32S58.6,103.2,65.9,105Z"/><rect class="af" x="120.1" y="142.5" width="96.5" height="10.36" rx="0.8"/><rect class="z" x="123.9" y="144.9" width="27" height="5.67"/><rect class="ag" x="125.4" y="146.3" width="11.3" height="2.82"/><path class="ah" d="M173.5,144.9a.9.9,0,0,1-.8.8.8.8,0,0,1-.8-.8.7.7,0,0,1,.8-.8A.8.8,0,0,1,173.5,144.9Z"/><path class="ah" d="M177.1,144.9a.9.9,0,0,1-.8.8.8.8,0,0,1-.8-.8.7.7,0,0,1,.8-.8A.8.8,0,0,1,177.1,144.9Z"/><path class="ah" d="M180.7,144.9a.9.9,0,0,1-.8.8.8.8,0,0,1-.8-.8.7.7,0,0,1,.8-.8A.8.8,0,0,1,180.7,144.9Z"/><path class="ah" d="M184.2,144.9a.8.8,0,0,1-.8.8.9.9,0,0,1-.8-.8.8.8,0,0,1,.8-.8A.7.7,0,0,1,184.2,144.9Z"/><path class="ah" d="M187.8,144.9a.8.8,0,0,1-.8.8.9.9,0,0,1-.8-.8.8.8,0,0,1,.8-.8A.7.7,0,0,1,187.8,144.9Z"/><path class="ah" d="M191.4,144.9a.8.8,0,0,1-.8.8.9.9,0,0,1-.8-.8.8.8,0,0,1,.8-.8A.7.7,0,0,1,191.4,144.9Z"/><path class="ah" d="M195,144.9a.8.8,0,0,1-.8.8.9.9,0,0,1-.8-.8.8.8,0,0,1,.8-.8A.7.7,0,0,1,195,144.9Z"/><path class="ah" d="M198.6,144.9a.8.8,0,0,1-.8.8.9.9,0,0,1-.8-.8.8.8,0,0,1,.8-.8A.7.7,0,0,1,198.6,144.9Z"/><path class="ah" d="M202.2,144.9a.8.8,0,0,1-.8.8.9.9,0,0,1-.8-.8.8.8,0,0,1,.8-.8A.7.7,0,0,1,202.2,144.9Z"/><path class="ah" d="M205.8,144.9a.8.8,0,0,1-1.6,0,.8.8,0,1,1,1.6,0Z"/><path class="ah" d="M173.5,147.8a.8.8,0,0,1-.8.8.7.7,0,0,1-.8-.8.8.8,0,0,1,.8-.8A.9.9,0,0,1,173.5,147.8Z"/><path class="ah" d="M177.1,147.8a.8.8,0,0,1-.8.8.7.7,0,0,1-.8-.8.8.8,0,0,1,.8-.8A.9.9,0,0,1,177.1,147.8Z"/><path class="ah" d="M180.7,147.8a.8.8,0,0,1-.8.8.7.7,0,0,1-.8-.8.8.8,0,0,1,.8-.8A.9.9,0,0,1,180.7,147.8Z"/><path class="ah" d="M184.2,147.8a.7.7,0,0,1-.8.8.8.8,0,0,1-.8-.8.9.9,0,0,1,.8-.8A.8.8,0,0,1,184.2,147.8Z"/><path class="ah" d="M187.8,147.8a.7.7,0,0,1-.8.8.8.8,0,0,1-.8-.8.9.9,0,0,1,.8-.8A.8.8,0,0,1,187.8,147.8Z"/><path class="ah" d="M191.4,147.8a.7.7,0,0,1-.8.8.8.8,0,0,1-.8-.8.9.9,0,0,1,.8-.8A.8.8,0,0,1,191.4,147.8Z"/><path class="ah" d="M195,147.8a.7.7,0,0,1-.8.8.8.8,0,0,1-.8-.8.9.9,0,0,1,.8-.8A.8.8,0,0,1,195,147.8Z"/><path class="ah" d="M198.6,147.8a.7.7,0,0,1-.8.8.8.8,0,0,1-.8-.8.9.9,0,0,1,.8-.8A.8.8,0,0,1,198.6,147.8Z"/><path class="ah" d="M202.2,147.8a.7.7,0,0,1-.8.8.8.8,0,0,1-.8-.8.9.9,0,0,1,.8-.8A.8.8,0,0,1,202.2,147.8Z"/><path class="ah" d="M205.8,147.8a.8.8,0,0,1-1.6,0,.8.8,0,0,1,1.6,0Z"/><path class="ah" d="M173.5,150.8a.9.9,0,0,1-.8.8.8.8,0,0,1,0-1.6A.9.9,0,0,1,173.5,150.8Z"/><path class="ah" d="M177.1,150.8a.9.9,0,0,1-.8.8.8.8,0,1,1,0-1.6A.9.9,0,0,1,177.1,150.8Z"/><path class="ah" d="M180.7,150.8a.9.9,0,0,1-.8.8.8.8,0,1,1,0-1.6A.9.9,0,0,1,180.7,150.8Z"/><path class="ah" d="M184.2,150.8a.8.8,0,0,1-.8.8.8.8,0,1,1,0-1.6A.8.8,0,0,1,184.2,150.8Z"/><path class="ah" d="M187.8,150.8a.8.8,0,0,1-.8.8.8.8,0,1,1,0-1.6A.8.8,0,0,1,187.8,150.8Z"/><path class="ah" d="M191.4,150.8a.8.8,0,0,1-.8.8.8.8,0,0,1,0-1.6A.8.8,0,0,1,191.4,150.8Z"/><path class="ah" d="M195,150.8a.8.8,0,0,1-.8.8.8.8,0,0,1,0-1.6A.8.8,0,0,1,195,150.8Z"/><path class="ah" d="M198.6,150.8a.8.8,0,0,1-.8.8.8.8,0,1,1,0-1.6A.8.8,0,0,1,198.6,150.8Z"/><path class="ah" d="M202.2,150.8a.8.8,0,0,1-.8.8.8.8,0,1,1,0-1.6A.8.8,0,0,1,202.2,150.8Z"/><path class="ah" d="M205.8,150.8a.8.8,0,1,1-.8-.8A.9.9,0,0,1,205.8,150.8Z"/><path class="ad" d="M83.4,159.3c.3,7.6,15.7,5.6,23.3,4.3s29-7.5,29-7.5l.3-7s-17.7-.7-38.9-.2C89.7,149.1,83,151.7,83.4,159.3Z"/><path class="ad" d="M133.3,155.8c3.6,2.1,8.4,2.1,10.2,2.4s17.9-3.9,18-4.3.4-1.5-3.6-1.4c-6.7.1-10.3,1.6-12.2-.1s-3.9-3.6-7.3-4S131.3,154.7,133.3,155.8Z"/><path class="ad" d="M139.3,153.3s12-4.1,12.3-5.1.3-1.5-1.1-1.4-6.6,1.4-7.7,1.2-5.3-.1-6.4,1.1S139.3,153.3,139.3,153.3Z"/><path class="s" d="M85.4,69.6c1.4-6.1-7.4-2.2-2,3.3-1.6,5.3-12.6,4-7.8-9.1C78,56.4,82.3,53,89.1,55.4c3.4,1.7,3.5-1.9,2.7-5.8a19.2,19.2,0,0,1,13,7.2c6,7.6.5,15.6-14.1,6.1C90.4,69.2,89.1,72.5,85.4,69.6Z"/></svg>