<svg xmlns="http://www.w3.org/2000/svg" xmlns:xlink="http://www.w3.org/1999/xlink" viewBox="0 0 400 400"><defs><style>.a{fill:url(#a);}.b{fill:#e0e0e0;}.c{fill:url(#b);}.d{fill:url(#c);}.e{fill:url(#d);}.f{fill:url(#e);}.g{fill:url(#f);}.h{fill:url(#g);}.i{fill:url(#h);}.j{fill:url(#i);}.k{fill:#e8505b;}.l{fill:url(#j);}.m{fill:url(#k);}.n{fill:url(#l);}.o{fill:url(#m);}.p{fill:url(#n);}.q{fill:#37b5e8;opacity:0.2;}.r{fill:#263238;}.s{fill:#fafafa;}.t{fill:#0e71bb;}.u{fill:#ffe7cb;}.v{fill:#f0d2b9;}.w{fill:#1f364c;}.x{fill:#21e2e2;}.y{fill:#f59b6b;}.z{fill:#f5f5f5;}.aa{fill:#ebebeb;}.ab{fill:#375a64;}.ac{opacity:0.3;}.ad{fill:#288ed9;}.ae{fill:#152735;}.af{fill:red;}.ag{fill:#ffcf00;}.ah{fill:#333;}.ai{fill:#fff;}.aj{fill:#c0c2c1;}.ak{fill:#e6e6e6;}.al{fill:#000100;}.am{fill:#fe9a0f;}.an{fill:#e2810c;}.ao{fill:#dd7f10;}.ap{fill:#ae4e32;}.aq{fill:#9e402b;}.ar{fill:#fe9b0e;}</style><linearGradient id="a" x1="206.29" y1="343.85" x2="156.91" y2="63.85" gradientUnits="userSpaceOnUse"><stop offset="0" stop-color="#c6e6ff"/><stop offset="1" stop-color="#fff"/></linearGradient><linearGradient id="b" x1="29.49" y1="228.5" x2="33.77" y2="228.5" gradientUnits="userSpaceOnUse"><stop offset="0" stop-color="#419ee3"/><stop offset="1" stop-color="#0d79c9"/></linearGradient><linearGradient id="c" x1="34.2" y1="254.56" x2="44.64" y2="254.56" xlink:href="#b"/><linearGradient id="d" x1="31.97" y1="280.16" x2="38.28" y2="280.16" xlink:href="#b"/><linearGradient id="e" x1="38.03" y1="307.22" x2="44.84" y2="307.22" xlink:href="#b"/><linearGradient id="f" x1="15.92" y1="220.77" x2="25.74" y2="220.77" xlink:href="#b"/><linearGradient id="g" x1="25.46" y1="243.33" x2="36.07" y2="243.33" xlink:href="#b"/><linearGradient id="h" x1="25.9" y1="266.53" x2="30.38" y2="266.53" xlink:href="#b"/><linearGradient id="i" x1="26.71" y1="297.3" x2="37.11" y2="297.3" xlink:href="#b"/><linearGradient id="j" x1="48.67" y1="277.62" x2="52.42" y2="277.62" gradientUnits="userSpaceOnUse"><stop offset="0" stop-color="#44989f"/><stop offset="0.21" stop-color="#39b0b4"/><stop offset="0.52" stop-color="#2ccbcd"/><stop offset="0.8" stop-color="#24dcdd"/><stop offset="1" stop-color="#21e2e2"/></linearGradient><linearGradient id="k" x1="34.7" y1="301.87" x2="38.91" y2="301.87" xlink:href="#j"/><linearGradient id="l" x1="56.16" y1="266.27" x2="64.22" y2="266.27" xlink:href="#j"/><linearGradient id="m" x1="41.53" y1="294.88" x2="55.16" y2="294.88" xlink:href="#j"/><linearGradient id="n" x1="28.17" y1="330.2" x2="47.67" y2="330.2" gradientUnits="userSpaceOnUse"><stop offset="0" stop-color="#ffbc98"/><stop offset="0.45" stop-color="#ffbb96"/><stop offset="0.67" stop-color="#ffb68e"/><stop offset="0.84" stop-color="#ffad81"/><stop offset="0.98" stop-color="#ffa16f"/><stop offset="1" stop-color="#ff9f6c"/></linearGradient></defs><title>germany-advantage-linux-dedicated-servers</title><path class="a" d="M373,233.2c-6.4-19.7-16.5-25.7-26.1-38.3-11.7-15.4-19.6-26.6-16.5-46.4,4.9-32.5,7.1-113.3-70.7-102.7-27.9,3.8-49.9,27.3-65.9,50.9-13.7,20-38.2,21.7-57.9,26.4-24.3,5.7-49,14.4-71.4,27.1C18.3,176.3,4.5,213.9,6.4,262c.5,14.5,2.4,37.4,24.6,64.2,30,36.1,73.6,40.9,126.1,24.3,12-3.8,23.4-9.7,35.2-14.2a152.6,152.6,0,0,1,38-9.1c30.1-3.2,61.4,2.6,90.3-7.3A95,95,0,0,0,361,292.2,61.3,61.3,0,0,0,373,233.2Z"/><path class="b" d="M35.6,323a.4.4,0,0,0,.1-.3,5.9,5.9,0,0,0,.4-.8,15.6,15.6,0,0,0,1.1-3.3,27.7,27.7,0,0,0,0-12.6,85.7,85.7,0,0,0-2.4-8.5c-1-3-2.1-6.2-3.1-9.7a39.7,39.7,0,0,1-1.5-11.1c.1-4,1.3-7.9,2.6-11.8a55.1,55.1,0,0,0,3-11.6,18.5,18.5,0,0,0-2.1-10.7c-1.7-3.1-3.9-5.8-5.5-8.6a27.9,27.9,0,0,1-3.2-8.2,30.2,30.2,0,0,1-.2-12.7,21.8,21.8,0,0,1,1.3-4.5v.3a4.1,4.1,0,0,1-.3.8c-.2.8-.5,1.9-.8,3.4a31.9,31.9,0,0,0,.3,12.6,31.3,31.3,0,0,0,3.3,8.2c1.6,2.7,3.8,5.4,5.5,8.5a18.7,18.7,0,0,1,2.2,11c-.4,3.9-1.8,7.7-3,11.6s-2.5,7.8-2.6,11.7a35.7,35.7,0,0,0,1.5,11c.9,3.4,2,6.6,3,9.7a68.3,68.3,0,0,1,2.3,8.5,28.6,28.6,0,0,1,0,12.8,25,25,0,0,1-1.2,3.2l-.4.8Z"/><path class="c" d="M30.4,236.8s-3.2-10.4,2.6-16.5c.2-.2.5-.1.6.2S34.3,227.4,30.4,236.8Z"/><path class="b" d="M32.3,223.8c.1,0,0,.7-.2,1.9s-.4,2.9-.7,4.6-.5,3.2-.7,4.6a6.5,6.5,0,0,1-.4,1.8s0-.7.1-1.9.3-2.8.6-4.6.6-3.4.8-4.5Z"/><path class="d" d="M34.2,261.2s2-10.7,10-13.3c.2-.1.5.2.4.4S42,254.8,34.2,261.2Z"/><path class="b" d="M42,250.7l-1.1,1.6c-.8,1-1.7,2.3-2.8,3.6l-2.8,3.7a9,9,0,0,1-1.2,1.6,7.2,7.2,0,0,1,1-1.7,40.8,40.8,0,0,1,2.7-3.8l2.9-3.6C41.4,251.2,41.9,250.6,42,250.7Z"/><path class="e" d="M32,288s-1.2-10.8,5.7-15.6a.4.4,0,0,1,.6.3C38.3,274.4,37.6,279.6,32,288Z"/><path class="b" d="M36.4,275.6c.1.1-.1.8-.5,1.9s-1,2.7-1.6,4.3-1.2,3.1-1.6,4.4L32,288a6.1,6.1,0,0,1,.4-1.9,32.9,32.9,0,0,1,1.5-4.4c.6-1.7,1.2-3.2,1.7-4.3Z"/><path class="f" d="M38.1,315s-.9-10.9,6.2-15.5c.2-.1.6.1.5.3C44.8,301.6,44,306.8,38.1,315Z"/><path class="b" d="M42.9,302.8a14.4,14.4,0,0,1-.7,1.8l-1.7,4.3c-.7,1.6-1.3,3-1.8,4.3a17.8,17.8,0,0,1-.7,1.7c-.1,0,.1-.7.5-1.8a35.3,35.3,0,0,1,1.6-4.4c.7-1.7,1.4-3.2,1.9-4.2S42.8,302.7,42.9,302.8Z"/><path class="g" d="M25.7,227.7s-9.6-5.1-9.8-13.5c0-.3.3-.4.6-.3S21.9,218.3,25.7,227.7Z"/><path class="b" d="M17.9,217.1a10.8,10.8,0,0,1,1.2,1.5l2.7,3.8,2.8,3.7,1.1,1.6-1.4-1.4-2.8-3.7a37.5,37.5,0,0,1-2.6-3.8A7.2,7.2,0,0,1,17.9,217.1Z"/><path class="h" d="M36.1,249.9s-9.9-4.4-10.6-12.8c-.1-.3.2-.5.5-.3S31.7,240.8,36.1,249.9Z"/><path class="b" d="M27.6,239.9c.1-.1.6.5,1.3,1.4l3,3.6c1.1,1.3,2.1,2.5,2.9,3.6L36,250l-1.4-1.3-3.1-3.5-2.8-3.7Z"/><path class="i" d="M30.4,274.8s-6.8-8.5-3.6-16.3a.3.3,0,0,1,.6,0C28.3,259.9,30.6,264.7,30.4,274.8Z"/><path class="b" d="M27.4,262a4.8,4.8,0,0,1,.5,1.8l1,4.6c.4,1.6.7,3.2,1,4.5a15.2,15.2,0,0,1,.4,1.9,8.4,8.4,0,0,1-.7-1.8c-.3-1.2-.7-2.8-1.1-4.6s-.7-3.3-.9-4.5S27.4,262,27.4,262Z"/><path class="j" d="M37.1,304s-9.8-4.6-10.4-13a.4.4,0,0,1,.6-.3C28.7,291.6,32.8,294.8,37.1,304Z"/><path class="b" d="M28.8,293.8a5.3,5.3,0,0,1,1.3,1.5l2.9,3.6c1.1,1.3,2,2.6,2.9,3.6A7.9,7.9,0,0,1,37,304c0,.1-.5-.4-1.4-1.3s-1.8-2.1-2.9-3.6a45.2,45.2,0,0,1-2.8-3.7A15.2,15.2,0,0,1,28.8,293.8Z"/><path class="b" d="M56.7,261.3v.9c0,.7-.1,1.6-.1,2.7s-.3,5.5-.5,9.4h0a36.2,36.2,0,0,1-5.4,12.5c-2,3.1-4.1,5.9-5.8,8.6a49.9,49.9,0,0,0-4.4,7.2,33.3,33.3,0,0,0-2.1,5.3,13.1,13.1,0,0,0-.3,1.5l-.2.5a1.8,1.8,0,0,1,.1-.5,4.9,4.9,0,0,1,.3-1.5,27.3,27.3,0,0,1,1.9-5.4,76,76,0,0,1,4.3-7.3c1.8-2.7,3.9-5.5,5.8-8.6a35.8,35.8,0,0,0,5.4-12.4h0c.3-3.8.5-7,.7-9.4s.1-1.9.2-2.6.1-.5.1-.7Z"/><path class="k" d="M50.9,286s4.1-10-1.1-16.6a.4.4,0,0,0-.7.1C48.7,271.2,47.8,276.3,50.9,286Z"/><path class="l" d="M50.9,286s4.1-10-1.1-16.6a.4.4,0,0,0-.7.1C48.7,271.2,47.8,276.3,50.9,286Z"/><path class="b" d="M50.1,272.9a5.2,5.2,0,0,1,.3,1.9c.2,1.2.3,2.8.5,4.6s.2,3.5.2,4.6a5,5,0,0,1-.2,2,17.8,17.8,0,0,1-.1-2c-.1-1.3-.2-2.8-.3-4.6s-.3-3.3-.4-4.6A9.4,9.4,0,0,1,50.1,272.9Z"/><path class="k" d="M37.9,310.2s3.4-10.4-2.4-16.5c-.2-.2-.5-.1-.6.2S34.1,300.8,37.9,310.2Z"/><path class="m" d="M37.9,310.2s3.4-10.4-2.4-16.5c-.2-.2-.5-.1-.6.2S34.1,300.8,37.9,310.2Z"/><path class="b" d="M36.1,297.2a4.8,4.8,0,0,1,.5,1.8c.3,1.2.5,2.8.8,4.6s.5,3.4.6,4.6.1,1.9,0,1.9l-.3-1.9c-.2-1.3-.4-2.8-.7-4.5s-.5-3.3-.7-4.6S36.1,297.2,36.1,297.2Z"/><path class="k" d="M56.2,273.7s8.9-6.2,8-14.6c-.1-.2-.4-.4-.6-.2S58.8,264,56.2,273.7Z"/><path class="n" d="M56.2,273.7s8.9-6.2,8-14.6c-.1-.2-.4-.4-.6-.2S58.8,264,56.2,273.7Z"/><path class="b" d="M62.6,262.3l-.8,1.7c-.5,1.1-1.2,2.6-2.1,4.2l-2.3,4a9,9,0,0,1-1.2,1.6c0-.1.4-.7.9-1.8s1.4-2.5,2.2-4,1.6-2.9,2.3-4.1S62.5,262.2,62.6,262.3Z"/><path class="k" d="M41.5,299.9s10.8-1.7,13.6-9.6a.3.3,0,0,0-.4-.4C53,290.3,48.2,292.3,41.5,299.9Z"/><path class="o" d="M41.5,299.9s10.8-1.7,13.6-9.6a.3.3,0,0,0-.4-.4C53,290.3,48.2,292.3,41.5,299.9Z"/><path class="b" d="M52.3,292.4c.1.1-.5.6-1.4,1.3l-3.7,2.8-3.9,2.6-1.7.9a10.8,10.8,0,0,1,1.5-1.2l3.8-2.6,3.8-2.7Z"/><polygon class="p" points="31.3 319.7 28.2 340.7 47.7 340.7 45.1 319.7 31.3 319.7"/><rect class="q" x="60.3" y="50.9" width="201.5" height="133.65"/><rect class="q" x="274.3" y="40.2" width="117.3" height="134.11"/><path class="r" d="M372,340.4c0,.1-85.3.1-190.5.1s-190.6,0-190.6-.1,85.3-.2,190.6-.2S372,340.3,372,340.4Z"/><rect class="s" x="48.2" y="54.2" width="208.7" height="136.87"/><path class="r" d="M256.9,191.1c0-1.3-.1-53.4-.2-136.9l.2.2H48.2l.2-.2V191.1l-.2-.2,208.7.2-208.7.2H48V54H257C256.9,137.7,256.9,189.8,256.9,191.1Z"/><path class="q" d="M240.3,103.1c0,.1-20.4.2-45.5.2s-45.4-.1-45.4-.2,20.3-.2,45.4-.2S240.3,103,240.3,103.1Z"/><path class="q" d="M240.3,96.7c0,.1-20.4.2-45.5.2s-45.4-.1-45.4-.2,20.3-.2,45.4-.2S240.3,96.5,240.3,96.7Z"/><path class="q" d="M240.3,90.5c0,.1-20.4.2-45.5.2s-45.4-.1-45.4-.2,20.3-.2,45.4-.2S240.3,90.4,240.3,90.5Z"/><path class="q" d="M240.3,109.4c0,.1-20.4.2-45.5.2s-45.4-.1-45.4-.2,20.3-.2,45.4-.2S240.3,109.3,240.3,109.4Z"/><path class="q" d="M212.1,116.1c0,.1-13.9.2-31.2.2s-31.2-.1-31.2-.2,14-.2,31.2-.2S212.1,116,212.1,116.1Z"/><path class="q" d="M132.9,77.2c0,.2-11.7.3-26,.3s-26-.1-26-.3,11.6-.2,26-.2S132.9,77.1,132.9,77.2Z"/><path class="q" d="M101.8,81.4h0Z"/><rect class="s" x="267.1" y="44.3" width="119.9" height="136.87"/><path class="r" d="M387,181.1v-9.9c0-6.5-.1-15.9-.1-27.9,0-24,0-58.2-.1-99H267.1l.2-.2V181.1h-.4V44.1H387.2v.2c0,40.8-.1,75.1-.1,99.1v27.9c0,3.2-.1,5.7-.1,7.3v2.5Z"/><path class="q" d="M369.5,144.7c0,.1-20.5.2-45.8.2s-45.8-.1-45.8-.2,20.5-.2,45.8-.2S369.5,144.6,369.5,144.7Z"/><path class="q" d="M369.5,149.7c0,.1-20.5.2-45.8.2s-45.8-.1-45.8-.2,20.5-.2,45.8-.2S369.5,149.6,369.5,149.7Z"/><path class="q" d="M369.5,154.6c0,.1-20.5.2-45.8.2s-45.8-.1-45.8-.2,20.5-.2,45.8-.2S369.5,154.5,369.5,154.6Z"/><path class="q" d="M369.5,159.6c0,.1-20.5.2-45.8.2s-45.8-.1-45.8-.2,20.5-.2,45.8-.2S369.5,159.5,369.5,159.6Z"/><path class="t" d="M333.3,157.6c2.5-4.2,3.2-9.8,3.9-14.6.3-2.3.8-5.6-.8-7s-1.9-3.9-3.8-5.1a6.1,6.1,0,0,0-6.6.1"/><path class="u" d="M326.3,172.5h0a6.6,6.6,0,0,1-7.2-6.4c-.2-3.7-.3-7.4-.3-7.4s-5.6-.6-6-6.1-.2-18.2-.2-18.2h0a19,19,0,0,1,19.4,1.2l-.3,19.4v10.5C331.7,169,329.8,172.3,326.3,172.5Z"/><path class="t" d="M318.3,145.9a2.8,2.8,0,0,1,3.8-.8,3.1,3.1,0,0,1,1.1,4,4.3,4.3,0,0,1-2.7,2,2.1,2.1,0,0,0-1.7,2.3c.2,1.4,2.5,1.9,3.5,3s5.2,2.6,7.6,2.9,2,.3,3.4-1.7a6.9,6.9,0,0,0,1.3-4.4l.3-12.3a15.6,15.6,0,0,0-.3-4.3,6.1,6.1,0,0,0-2.3-3.7c-1.3-.8-3-.9-4.6-1.4s-3.5-1.9-5.3-2.8-4-1.5-5.8-.6-2.1,2-3.4,2.7-4.2.8-5,3.4a4.5,4.5,0,0,0,0,2.8c1.2,3.6,5.6,5,8.8,3.5.1.6-.5,1.9.1,3.8s.3,1.6,1.2,1.6"/><path class="v" d="M318.6,158.6l-1.2-.2a5.4,5.4,0,0,1-2.7-1.4,7.4,7.4,0,0,1-1.8-2.5,3.4,3.4,0,0,1-.3-1.2c.1-.1.2.4.6,1.1a9.5,9.5,0,0,0,1.7,2.3,10.1,10.1,0,0,0,2.6,1.5Z"/><polygon class="u" points="349.9 192.3 338.1 201.4 343 209.5 357.2 199.1 349.9 192.3"/><path class="u" d="M318.4,161.5s.1-1-2.5-1.2h-2.8a6.2,6.2,0,0,1-1.3-2.3,9.9,9.9,0,0,1,.6-2.5l2.6-.2-.7-1.8-1.9.2-5.1.6-2.1,9-14.1,26.3a6.8,6.8,0,0,0,2.7,9.9h0c3.7,1.8,8.6-1.9,9.9-5.8l7.8-29.2,2.7-2.2,4-.7"/><path class="w" d="M285.3,336.5l20.2-110.3h0a.7.7,0,0,1,.1-.5h0c3.2-13,8.3-17.1,8.3-17.1l29.3,1.8c2.5,4.5,2.9,15.3,2.9,15.3S340.3,334,340.3,334l-11.1-.3-4.5-101.2L298,336.9Z"/><path class="x" d="M286.1,337.5v-1l10.1.3v3.3h-.6c-2.8.1-14.1.2-16-.4S286.1,337.5,286.1,337.5Z"/><path class="y" d="M335.4,164.6a18.8,18.8,0,0,1,7.8,3c9.3,6,24.8,18.8,23.5,24.7s-13.2,11.1-13.2,11.1l-7.9-9.5,4.8-2.7-11.8-7.9Z"/><path class="y" d="M346.1,221.5H306.8c1.1-9.6,2.9-26.3,3.3-32.9l-8.9,9.3c-3.9,3.5-7.7,2.5-9.4,1-4.9-4.4.1-10,.1-10l18.6-21.2a9.4,9.4,0,0,1,4.8-3,31.9,31.9,0,0,1,4-.7h12.4a19.4,19.4,0,0,1,3.7.5s6.2,2.6,7.3,8S346.1,221.5,346.1,221.5Z"/><polygon class="x" points="339.9 334 342.6 340.3 330.3 340.2 330 333.7 339.9 334"/><rect class="r" x="139.8" y="246.4" width="46.5" height="2.26"/><polygon class="r" points="132.6 248.7 123.9 216 160.2 216 168.1 248.7 132.6 248.7"/><polygon class="z" points="165.9 246.2 133.5 246.2 125.9 217.5 158.6 217.5 165.9 246.2"/><path class="aa" d="M126.5,219.5h32.6l-.5-2H125.9Z"/><path class="s" d="M130,218.5a.4.4,0,0,0,.4.4c.2,0,.3-.2.3-.4a.3.3,0,0,0-.3-.3C130.2,218.2,130,218.3,130,218.5Z"/><path class="s" d="M128.8,218.5c0,.2.1.4.3.4a.4.4,0,0,0,.4-.4c0-.2-.2-.3-.4-.3A.3.3,0,0,0,128.8,218.5Z"/><path class="s" d="M127.6,218.5c0,.2.1.4.3.4a.4.4,0,0,0,.4-.4c0-.2-.2-.3-.4-.3A.3.3,0,0,0,127.6,218.5Z"/><polygon class="r" points="84.8 248.6 84.8 252.8 87.6 252.8 87.6 339.6 93.3 339.6 93.3 252.8 123.9 252.8 123.9 339.6 129.7 339.6 129.7 252.8 262.3 252.8 262.3 339.6 268.1 339.6 268.1 252.8 270.6 252.8 270.6 248.6 84.8 248.6"/><ellipse class="ab" cx="155.1" cy="281.7" rx="0.2" ry="0.1"/><path class="u" d="M191.8,204.5l-21.5-21.8-.5-2.4c-.1-.4-.1-.9-.2-1.5a6.1,6.1,0,0,1,0-1.9,6.9,6.9,0,0,1,.7-2.3c.3-.6-.3-1.4-.9-1.1s-1.6,2-1.8,4.3-2.3-.8-3-1.9-3.3-4.5-3.8-4.5-.9.7-.2,1.8,2.9,4.6,2.3,5h0a2.9,2.9,0,0,0-3,1.5c-.5,1-1.1,2.5-.6,3.2a32.4,32.4,0,0,0,3.4,3.6l.7.6s18.7,27,22.7,27.9,41.5,3.8,41.5,3.8l3-10.8Z"/><path class="u" d="M159.1,182.4l2,2,.8.5a.8.8,0,0,0,.8-.1.8.8,0,0,0,.1-.8,1,1,0,0,0-.4-.7l-1.9-2.4"/><path class="v" d="M160.5,180.9l.9,1a5.2,5.2,0,0,1,1,1.1l.6.7a1.3,1.3,0,0,1-.1,1.2,1.1,1.1,0,0,1-1.1.2c-.3-.1-.5-.4-.7-.5l-1.1-1.1a3.8,3.8,0,0,1-.9-1.1,3.8,3.8,0,0,1,1.1.9l1.1,1,.7.4c.2.1.5.1.6-.1a.9.9,0,0,0,0-.7l-.5-.7-.9-1.1C160.7,181.4,160.4,181,160.5,180.9Z"/><path class="u" d="M160.5,181l2,2,.8.5a.8.8,0,0,0,.8-.1.8.8,0,0,0,.2-.8,1.8,1.8,0,0,0-.5-.7l-1.9-2.4"/><path class="v" d="M161.9,179.5l1,1,.9,1.1a2.8,2.8,0,0,1,.6.8,1.1,1.1,0,0,1-.1,1.1,1.1,1.1,0,0,1-1.1.2,1.8,1.8,0,0,1-.7-.5l-1.1-1.1a3.8,3.8,0,0,1-.9-1.1,3.8,3.8,0,0,1,1.1.9l1.1,1a1,1,0,0,0,.7.4c.2.1.5.1.6-.1a.9.9,0,0,0,0-.7l-.5-.7-.9-1.1C162.1,180,161.8,179.6,161.9,179.5Z"/><path class="u" d="M162.1,179.9l2,1.9c.2.2.4.5.7.6a.8.8,0,0,0,.9-.2.8.8,0,0,0,.1-.8l-.4-.7-2-2.3"/><path class="v" d="M163.4,178.4c.1,0,.4.3,1,1l1,1.1a1.8,1.8,0,0,1,.5.7.9.9,0,0,1,0,1.1,1,1,0,0,1-1.1.3l-.8-.6-1-1c-.6-.7-1-1.1-.9-1.1l1.1.9,1.1.9.6.5a.8.8,0,0,0,.7-.1.9.9,0,0,0,0-.7,1.8,1.8,0,0,0-.5-.7l-.9-1.2Z"/><path class="v" d="M165.2,183.2c0-.1.5-.2,1.2.1l-.2.2a3.3,3.3,0,0,1,0-1.4,3.8,3.8,0,0,1,.7-1.7c.3-.3.6-.5.6-.4a9.1,9.1,0,0,0-.9,2.2,2.4,2.4,0,0,0,0,1.2v.3h-.3C165.7,183.3,165.2,183.3,165.2,183.2Z"/><path class="u" d="M220,171.7v30l-11.7.5-.5-7.1s-5.6.8-6.8-3.4c-.7-2.7-.5-23.6-.5-23.6Z"/><path class="t" d="M197.7,171c.8,1.8,5,5.1,5,5.1l1.8,5c1.6-1.3,3.8-1.2,4.2,1.6s-2.2,2.5-2.2,2.5a36.6,36.6,0,0,0,4.6,7c2.4,2.6,3.7,2.8,6.2,2.9h2.8s5.7-4.8,4.6-17.4-12.5-9-15.2-12.1C205.1,160.4,194.8,165,197.7,171Z"/><path class="x" d="M209.9,332.3l-3.8-4.9,9.1-7.2,5.7,7.1-.6.5c-2.4,2.1-12.4,10.7-14.5,11.5S209.9,332.3,209.9,332.3Z"/><g class="ac"><polygon points="218.5 324.4 209.2 331.5 208.4 330.4 218.1 323.8 218.5 324.4"/></g><path class="x" d="M167.9,337.3V331h11.7v9.1h-.7c-3.2.2-16.3.8-18.5.1S167.9,337.3,167.9,337.3Z"/><g class="ac"><polygon points="179.6 336.2 167.9 336.2 167.9 334.8 179.6 334.7 179.6 336.2"/></g><path class="u" d="M196.6,230.1l-4.6,14c-1.3,3.8-4.6,4.5-8.6,4.5H157.5v-5.9l23.7-3.3,5.6-14.4Z"/><path class="u" d="M154.7,241.5l-2.1-.9s-2.2-4.3-2.7-4.1-.7,1.4.2,3.4l-2.7-.8s-5.9,2.7-5.7,3.1a1.5,1.5,0,0,0,2.1.6l2.9-1.5,3.2.9-4.1.6-3.9,3.5a2,2,0,0,0,2.4-.1l10.1,2.2,3.1.2v-5.9Z"/><path class="v" d="M144.3,246.2l.6-.6.7-.6a3.5,3.5,0,0,1,1.1-.3,14.1,14.1,0,0,0,3-.5l-3,.2a2.4,2.4,0,0,0-1.2.3l-.8.7Z"/><path class="v" d="M145.9,246.6a.4.4,0,0,1,.3-.2l1.3-.2,1.7-.2a3.6,3.6,0,0,0-1.8-.1l-1.2.2a.5.5,0,0,0-.3.4C145.8,246.6,145.9,246.6,145.9,246.6Z"/><path class="ad" d="M198.8,227l-2,6.8-12.6-5.7c.4-1.4,2.5-7.7,6.5-17.7a17.3,17.3,0,0,1,13.1-10.6,79.7,79.7,0,0,1,12.1-1.2c7.1.1,17.6,4.5,19,11.5,1,5.3,0,14.6,0,26l-.9,21.8-36.3,1.2Z"/><g class="ac"><path d="M234.9,231.1c-4.4.9-9,0-13.5-.3-2.7-.1-5.7-.4-7.9,1.2s-2.4,3.6-2.9,5.7c-1.9,8.1-2.2,13.5-2.7,21.7l21.9,1.4Z"/></g><path class="ae" d="M178.8,260.8a12.8,12.8,0,0,0-5.3,17.3l31.6,54.3,14.6-8.8-24.5-49L213,262.9"/><path class="w" d="M217.3,258.1l-43.4,1.5a13,13,0,0,0-12.5,13.1l1.8,62h18.3l-.6-55.4A3.2,3.2,0,0,1,184,276l33.3-.9Z"/><path class="ab" d="M236.1,218.7H223a9.6,9.6,0,0,0-9.6,9.6v45.8H187.2a6.7,6.7,0,0,0-6.7,6.6h59.9a5.5,5.5,0,0,0,5.3-5.5V228.3A9.6,9.6,0,0,0,236.1,218.7Z"/><path class="ab" d="M215.6,328.8v-48h-4.3v48c-2.6,5.2-8.8,8.7-16.2,11.5h38C225.4,337.2,218.4,334.7,215.6,328.8Z"/><rect x="218.8" y="69.3" width="21.5" height="5.24"/><rect class="af" x="218.8" y="74.6" width="21.5" height="5.24"/><rect class="ag" x="218.8" y="79.8" width="21.5" height="5.24"/><path d="M305.4,61.2h43.3a13.7,13.7,0,0,1,13.7,13.7v3.5a0,0,0,0,1,0,0H291.8a0,0,0,0,1,0,0V74.9a13.7,13.7,0,0,1,13.7-13.7Z"/><rect class="af" x="291.8" y="78.4" width="70.6" height="17.16"/><path class="ag" d="M291.8,95.5h70.6a0,0,0,0,1,0,0V99a13.7,13.7,0,0,1-13.7,13.7H305.4A13.7,13.7,0,0,1,291.8,99V95.5A0,0,0,0,1,291.8,95.5Z"/><path class="q" d="M127.1,158.1c0-2.7,1.7-28.5-2-30.6s-16.8,18.8-25.6,18.8c-15.3,0-27.6,5.3-27.6,11.8s12.3,11.8,27.6,11.8S127.1,164.6,127.1,158.1Z"/><path class="ah" d="M121.7,128.7A15.5,15.5,0,0,1,117,115a16.4,16.4,0,0,0,.2-2.2,11.2,11.2,0,0,0-10.7-10.5,11,11,0,0,0-11.2,11,12.4,12.4,0,0,0,.3,2.7,15,15,0,0,1-3.5,13.9,21.2,21.2,0,0,0-5.8,14.3c0,12.8,5,19,12.1,20.9a17.5,17.5,0,0,1,6.7-1.2,17.1,17.1,0,0,1,6.4,1.1c8.7-1.8,12.9-6,15.8-15.9C129.6,141.2,126,132.6,121.7,128.7Z"/><path d="M121.7,128.7A15.5,15.5,0,0,1,117,115a16.4,16.4,0,0,0,.2-2.2,11.2,11.2,0,0,0-10.7-10.5h-1.4v61.5a16.8,16.8,0,0,1,7.1,1.4c8.3-1.2,12.3-6.6,15.1-16.2C129.6,141.2,126,132.6,121.7,128.7Z"/><path class="ai" d="M91,146.8c0-8.3,6.6-27.6,14.9-27.6s14.9,19.4,14.9,27.6a14.9,14.9,0,1,1-29.8,0Z"/><path class="aj" d="M105.9,119.2h-.8v42.4h.8a14.9,14.9,0,0,0,14.9-14.9C120.8,138.6,114.1,119.2,105.9,119.2Z"/><ellipse class="ak" cx="100.4" cy="115" rx="2.5" ry="3.3"/><ellipse class="al" cx="100.4" cy="115.8" rx="1.2" ry="2.2"/><ellipse class="ak" cx="109.1" cy="115" rx="2.5" ry="3.3"/><ellipse class="al" cx="109.1" cy="115.8" rx="1.2" ry="2.2"/><path class="am" d="M112.4,120.7c.8,1.7-5.3,5-7.4,5s-8.2-3.9-7.5-5,4.6-5,7.1-5S111.9,119.6,112.4,120.7Z"/><path class="an" d="M112.4,120.7c-.5-1-5.2-4.4-7.3-4.9v9.9C107.3,125.6,113.2,122.4,112.4,120.7Z"/><path class="ao" d="M121.7,147.4c1.1,2.1,2.7,4.1,4.7,4.5a3.6,3.6,0,0,1,2.9,3.2c0,.2.1.4.1.7a9.6,9.6,0,0,0,1.7,3.7,2.7,2.7,0,0,1-1.6,4.3l-15.6,2.9a4,4,0,0,1-4.2-6l8.6-13.5A2,2,0,0,1,121.7,147.4Z"/><path class="ap" d="M104.9,124.7c-2.2,0-4.4-1.1-6.7-3.2l.8-.8c2.2,2.1,4.4,3.1,6.5,2.9a7.4,7.4,0,0,0,4.7-2.8l.9.6a8.7,8.7,0,0,1-5.5,3.3Z"/><path class="aq" d="M105.5,123.6h-.4v1.1h.5a8.7,8.7,0,0,0,5.5-3.3l-.9-.6A7.4,7.4,0,0,1,105.5,123.6Z"/><circle cx="123.8" cy="149.8" r="5"/><path class="ah" d="M90,144.3s5.4,6.5,9.2,8-1.9,5.7-7,2.5S90,144.3,90,144.3Z"/><path class="ar" d="M87.1,147.4c-1,2.1-2.7,4.1-4.7,4.5a3.6,3.6,0,0,0-2.9,3.2,2,2,0,0,1-.1.7,9.6,9.6,0,0,1-1.7,3.7,2.7,2.7,0,0,0,1.6,4.3L95,166.7a4,4,0,0,0,4.1-6l-8.6-13.5A2,2,0,0,0,87.1,147.4Z"/></svg>