<svg xmlns="http://www.w3.org/2000/svg" xmlns:xlink="http://www.w3.org/1999/xlink" viewBox="0 0 720 525.9"><defs><style>.a{fill:url(#a);}.b{fill:#e1e1e1;}.c{fill:url(#b);}.d{fill:url(#c);}.e{fill:url(#d);}.f{fill:url(#e);}.g{fill:url(#f);}.h{fill:url(#g);}.i{fill:url(#h);}.j{fill:url(#i);}.k{fill:#e8505b;}.l{fill:url(#j);}.m{fill:url(#k);}.n{fill:url(#l);}.o{fill:url(#m);}.p{fill:url(#n);}.q{fill:#37b5e8;opacity:0.2;}.r{fill:#1a2e35;}.s{fill:#fafafa;}.t{fill:#0e71bb;}.u{fill:#ffe7cb;}.v{fill:#f0d2b9;}.w{fill:#1f364c;}.x{fill:#21e2e2;}.y{fill:#f59b6b;}.z{fill:#f5f5f5;}.aa{fill:#ececec;}.ab{fill:#375a64;}.ac{opacity:0.3;}.ad{fill:#288ed9;}.ae{fill:#152735;}.af{fill:red;}.ag{fill:#ffcf00;}.ah{fill:#333;}.ai{fill:#fff;}.aj{fill:#c0c2c1;}.ak{fill:#e6e6e6;}.al{fill:#000100;}.am{fill:#fe9a0f;}.an{fill:#e2810c;}.ao{fill:#dd7f10;}.ap{fill:#ae4e32;}.aq{fill:#9e402b;}.ar{fill:#fe9b0e;}</style><linearGradient id="a" x1="4361.88" y1="386.11" x2="4361.87" y2="386.86" gradientTransform="matrix(740.56, 0, 0, -612.51, -3229902.19, 237015.56)" gradientUnits="userSpaceOnUse"><stop offset="0" stop-color="#c6e6ff"/><stop offset="1" stop-color="#fff"/></linearGradient><linearGradient id="b" x1="148.8" y1="327.35" x2="154.28" y2="327.35" gradientUnits="userSpaceOnUse"><stop offset="0" stop-color="#419ee3"/><stop offset="1" stop-color="#0d79c9"/></linearGradient><linearGradient id="c" x1="154.84" y1="360.73" x2="168.21" y2="360.73" xlink:href="#b"/><linearGradient id="d" x1="151.97" y1="393.53" x2="160.06" y2="393.53" xlink:href="#b"/><linearGradient id="e" x1="159.74" y1="428.2" x2="168.46" y2="428.2" xlink:href="#b"/><linearGradient id="f" x1="131.41" y1="317.44" x2="143.99" y2="317.44" xlink:href="#b"/><linearGradient id="g" x1="143.64" y1="346.35" x2="157.24" y2="346.35" xlink:href="#b"/><linearGradient id="h" x1="144.2" y1="376.07" x2="149.94" y2="376.07" xlink:href="#b"/><linearGradient id="i" x1="145.24" y1="415.49" x2="158.57" y2="415.49" xlink:href="#b"/><linearGradient id="j" x1="173.37" y1="390.27" x2="178.18" y2="390.27" gradientUnits="userSpaceOnUse"><stop offset="0" stop-color="#44989f"/><stop offset="0.21" stop-color="#39b0b4"/><stop offset="0.52" stop-color="#2ccbcd"/><stop offset="0.8" stop-color="#24dcdd"/><stop offset="1" stop-color="#21e2e2"/></linearGradient><linearGradient id="k" x1="155.48" y1="421.35" x2="160.87" y2="421.35" xlink:href="#j"/><linearGradient id="l" x1="182.97" y1="375.74" x2="193.3" y2="375.74" xlink:href="#j"/><linearGradient id="m" x1="164.23" y1="412.39" x2="181.69" y2="412.39" xlink:href="#j"/><linearGradient id="n" x1="147.1" y1="457.64" x2="172.1" y2="457.64" gradientUnits="userSpaceOnUse"><stop offset="0" stop-color="#ffbc98"/><stop offset="0.45" stop-color="#ffbb96"/><stop offset="0.67" stop-color="#ffb68e"/><stop offset="0.84" stop-color="#ffad81"/><stop offset="0.98" stop-color="#ffa16f"/><stop offset="1" stop-color="#ff9f6c"/></linearGradient></defs><title>german linux dedicated server </title><path class="a" d="M350.6,124.1c72.1,46,154.6,66.7,154.6,66.7s90.9,13.8,57.5,117.3-37.8,140.5-90.2,143.2c-49.7,1.4-77.6-19.1-126.8-15.6-43.1,3.3-72.9,22.8-145-5.6C85,379,93.7-38,350.6,124.1Z"/><path class="b" d="M156.7,448.4c-.1,0,0-.1.1-.3l.5-1.1a20.2,20.2,0,0,0,1.4-4.2c1-3.7,1.3-9.4-.1-16.2a78.5,78.5,0,0,0-3-10.9c-1.3-3.8-2.7-7.9-3.9-12.4a46.9,46.9,0,0,1-2-14.2c.2-5.1,1.7-10.1,3.3-15.1a74.5,74.5,0,0,0,3.9-14.9,22.8,22.8,0,0,0-2.8-13.7c-2.1-4-4.9-7.4-6.9-10.9a38.3,38.3,0,0,1-4.2-10.6,40.9,40.9,0,0,1-.3-16.3,31.2,31.2,0,0,1,1.7-5.8c.1,0,0,.1-.1.4a9.7,9.7,0,0,1-.3,1.1c-.3,1-.7,2.4-1.1,4.3a41.1,41.1,0,0,0,.5,16.2,35,35,0,0,0,4.2,10.4c2,3.5,4.7,6.9,7,11a24.4,24.4,0,0,1,2.8,14c-.5,5-2.3,9.9-3.9,15s-3.1,9.9-3.3,14.9a46.7,46.7,0,0,0,1.9,14.1c1.2,4.4,2.7,8.5,3.9,12.4a95.5,95.5,0,0,1,3,10.9c1.4,6.9,1,12.6-.1,16.4a37.3,37.3,0,0,1-1.5,4.2l-.6,1Z"/><path class="c" d="M150,338s-4.2-13.3,3.3-21.1a.4.4,0,0,1,.7.2C154.4,319.3,154.9,326,150,338Z"/><path class="b" d="M152.4,321.3a9.3,9.3,0,0,1-.2,2.5c-.3,1.7-.6,3.6-1,5.8s-.6,4.2-.9,5.9-.4,2.4-.4,2.4a8.1,8.1,0,0,1,0-2.5c.2-1.5.4-3.6.8-5.9l1.1-5.8A22,22,0,0,1,152.4,321.3Z"/><path class="d" d="M154.8,369.3s2.6-13.7,12.8-17.1a.5.5,0,0,1,.6.6C167.5,354.9,164.8,361,154.8,369.3Z"/><path class="b" d="M164.8,355.7c.1.1-.5.9-1.4,2.1l-3.6,4.7-3.5,4.8-1.5,1.9A9.8,9.8,0,0,1,156,367c.8-1.2,2-3,3.4-4.8s2.8-3.5,3.7-4.7Z"/><path class="e" d="M152.1,403.6s-1.6-13.8,7.2-20a.5.5,0,0,1,.8.3C160,386.2,159.2,392.8,152.1,403.6Z"/><path class="b" d="M157.7,387.7a6.9,6.9,0,0,1-.8,2.4c-.5,1.6-1.2,3.5-2,5.6s-1.4,3.9-2,5.5-.8,2.4-.9,2.3a8.4,8.4,0,0,1,.5-2.4c.4-1.4,1.1-3.4,1.9-5.6s1.6-4.1,2.2-5.5A11.5,11.5,0,0,1,157.7,387.7Z"/><path class="f" d="M159.8,438.1s-1.1-13.9,7.9-19.7a.5.5,0,0,1,.8.4C168.4,421,167.3,427.6,159.8,438.1Z"/><path class="b" d="M166,422.5s-.3.9-.9,2.3-1.4,3.4-2.2,5.5l-2.2,5.5a16.9,16.9,0,0,1-1,2.3,6.3,6.3,0,0,1,.6-2.4c.5-1.5,1.2-3.5,2.1-5.6s1.7-4.1,2.4-5.4A7.4,7.4,0,0,1,166,422.5Z"/><path class="g" d="M144,326.3s-12.3-6.5-12.6-17.2a.4.4,0,0,1,.7-.4C134,309.9,139,314.3,144,326.3Z"/><path class="b" d="M134,312.8a15,15,0,0,1,1.5,1.9l3.5,4.8,3.5,4.8,1.4,2c-.1.1-.7-.6-1.7-1.8a46.6,46.6,0,0,1-3.6-4.7c-1.4-1.9-2.6-3.6-3.4-4.9A10.9,10.9,0,0,1,134,312.8Z"/><path class="h" d="M157.2,354.8s-12.7-5.7-13.6-16.4a.4.4,0,0,1,.7-.4C146.2,339.1,151.6,343.2,157.2,354.8Z"/><path class="b" d="M146.4,341.9a13.5,13.5,0,0,1,1.7,1.9l3.7,4.6,3.8,4.5c1,1.2,1.6,1.9,1.5,2l-1.8-1.7-3.9-4.5-3.6-4.7A12.6,12.6,0,0,1,146.4,341.9Z"/><path class="i" d="M149.9,386.6s-8.7-10.8-4.6-20.8a.5.5,0,0,1,.8-.1C147.3,367.6,150.2,373.7,149.9,386.6Z"/><path class="b" d="M146.2,370.2a22,22,0,0,1,.6,2.4l1.3,5.8c.4,2.2.9,4.1,1.2,5.8a8.4,8.4,0,0,1,.5,2.4,7.4,7.4,0,0,1-.8-2.3,59.2,59.2,0,0,1-1.5-5.8l-1.1-5.8A9.3,9.3,0,0,1,146.2,370.2Z"/><path class="j" d="M158.6,424.1s-12.6-5.9-13.4-16.7a.4.4,0,0,1,.7-.4C147.8,408.2,153.1,412.3,158.6,424.1Z"/><path class="b" d="M148,411l1.6,1.9,3.7,4.6,3.7,4.7,1.5,1.9c-.1.1-.8-.6-1.8-1.7a58.3,58.3,0,0,1-3.8-4.6c-1.5-1.8-2.7-3.5-3.6-4.7A9.3,9.3,0,0,1,148,411Z"/><path class="b" d="M183.7,369.4v1.1c-.1.9-.1,2-.2,3.4-.1,3-.4,7.1-.6,12.1h0c-.9,5-3.5,10.6-7,16s-5.1,7.7-7.4,11a71.5,71.5,0,0,0-5.6,9.3,30.2,30.2,0,0,0-2.6,6.8c-.2.8-.4,1.4-.5,1.9l-.2.7a2.6,2.6,0,0,1,.1-.7l.4-2a31.2,31.2,0,0,1,2.5-6.9,64,64,0,0,1,5.5-9.3c2.3-3.4,4.9-7.1,7.4-11,3.4-5.4,6-10.9,6.9-15.9h0c.4-4.9.7-9,.9-12,.1-1.4.2-2.5.2-3.4a2.5,2.5,0,0,0,.1-.8A.4.4,0,0,1,183.7,369.4Z"/><path class="k" d="M176.2,401s5.3-12.9-1.4-21.3a.5.5,0,0,0-.8.2C173.4,382,172.3,388.6,176.2,401Z"/><path class="l" d="M176.2,401s5.3-12.9-1.4-21.3a.5.5,0,0,0-.8.2C173.4,382,172.3,388.6,176.2,401Z"/><path class="b" d="M175.2,384.2a10.5,10.5,0,0,1,.4,2.4q.3,2.4.6,6c.2,2.3.2,4.4.2,5.9s-.1,2.5-.1,2.5a14.1,14.1,0,0,1-.2-2.5c-.2-1.7-.3-3.7-.4-5.9s-.3-4.2-.4-5.9A11.9,11.9,0,0,1,175.2,384.2Z"/><path class="k" d="M159.6,432s4.3-13.3-3.1-21.1a.5.5,0,0,0-.8.2C155.3,413.3,154.8,420,159.6,432Z"/><path class="m" d="M159.6,432s4.3-13.3-3.1-21.1a.5.5,0,0,0-.8.2C155.3,413.3,154.8,420,159.6,432Z"/><path class="b" d="M157.3,415.3a9.6,9.6,0,0,1,.6,2.4c.3,1.5.7,3.6,1.1,5.9s.6,4.3.7,5.9a7.5,7.5,0,0,1,0,2.4s-.2-.9-.4-2.4-.5-3.7-.8-5.9-.7-4.1-.9-5.8A7.7,7.7,0,0,1,157.3,415.3Z"/><path class="k" d="M183,385.3s11.4-8,10.2-18.7a.4.4,0,0,0-.7-.3C190.8,367.8,186.3,372.8,183,385.3Z"/><path class="n" d="M183,385.3s11.4-8,10.2-18.7a.4.4,0,0,0-.7-.3C190.8,367.8,186.3,372.8,183,385.3Z"/><path class="b" d="M191.2,370.6a19.6,19.6,0,0,1-1,2.3c-.6,1.4-1.6,3.2-2.7,5.3s-2.2,3.8-3,5.1a10.2,10.2,0,0,1-1.4,2,17.1,17.1,0,0,1,1.1-2.2l2.9-5.2,2.8-5.2A9.6,9.6,0,0,1,191.2,370.6Z"/><path class="k" d="M164.2,418.8s13.8-2.1,17.5-12.2a.5.5,0,0,0-.6-.6C179,406.6,172.8,409.1,164.2,418.8Z"/><path class="o" d="M164.2,418.8s13.8-2.1,17.5-12.2a.5.5,0,0,0-.6-.6C179,406.6,172.8,409.1,164.2,418.8Z"/><path class="b" d="M178,409.3l-1.8,1.6-4.8,3.6-4.9,3.3a7,7,0,0,1-2.2,1.1l2-1.4,4.8-3.5,4.9-3.4A7.9,7.9,0,0,1,178,409.3Z"/><polygon class="p" points="151.1 444.1 147.1 471.1 172.1 471.1 168.9 444.1 151.1 444.1"/><rect class="q" x="188.2" y="99.8" width="258.1" height="171.23"/><rect class="q" x="462.5" y="86.2" width="150.2" height="171.81"/><path class="r" d="M587.6,470.6c0,.2-109.3.3-244.1.3s-244.1-.1-244.1-.3,109.3-.2,244.1-.2S587.6,470.5,587.6,470.6Z"/><rect class="s" x="172.8" y="104.1" width="267.3" height="175.35"/><path class="r" d="M440.1,279.5c0-1.7-.1-68.4-.2-175.4l.2.2H172.8l.2-.3V279.5l-.2-.3,267.3.3-267.3.2h-.3V103.8H440.3v.2C440.2,211.1,440.1,277.8,440.1,279.5Z"/><path class="q" d="M418.9,166.6c0,.2-26.1.3-58.3.3s-58.2-.1-58.2-.3,26.1-.2,58.2-.2S418.9,166.5,418.9,166.6Z"/><path class="q" d="M418.9,158.4c0,.2-26.1.3-58.3.3s-58.2-.1-58.2-.3,26.1-.2,58.2-.2S418.9,158.3,418.9,158.4Z"/><path class="q" d="M418.9,150.5c0,.2-26.1.3-58.3.3s-58.2-.1-58.2-.3,26.1-.2,58.2-.2S418.9,150.4,418.9,150.5Z"/><path class="q" d="M418.9,174.8c0,.1-26.1.2-58.3.2s-58.2-.1-58.2-.2,26.1-.3,58.2-.3S418.9,174.6,418.9,174.8Z"/><path class="q" d="M382.8,183.3c0,.2-17.9.3-40,.3s-40-.1-40-.3,17.9-.2,40-.2S382.8,183.2,382.8,183.3Z"/><path class="q" d="M281.3,133.6c0,.1-15,.2-33.3.2s-33.3-.1-33.3-.2,14.9-.3,33.3-.3S281.3,133.4,281.3,133.6Z"/><path class="q" d="M241.4,138.9h0Z"/><rect class="s" x="453.2" y="91.3" width="153.6" height="175.35"/><path class="r" d="M606.8,266.7V253.9c0-8.2-.1-20.4-.1-35.7,0-30.8,0-74.6-.1-126.9l.2.2H453.2l.3-.3c-.1,64.7-.1,124.9-.1,175.4l-.2-.3,111.4.2H453v-.2c0-50.5,0-110.7-.1-175.4v-.2H607.1v.2c-.1,52.4-.1,96.2-.1,127-.1,15.4-.1,27.5-.1,35.7v11.9A4.5,4.5,0,0,0,606.8,266.7Z"/><path class="q" d="M584.3,220c0,.2-26.2.3-58.6.3s-58.7-.1-58.7-.3,26.3-.2,58.7-.2S584.3,219.9,584.3,220Z"/><path class="q" d="M584.3,226.4c0,.1-26.2.2-58.6.2s-58.7-.1-58.7-.2,26.3-.3,58.7-.3S584.3,226.2,584.3,226.4Z"/><path class="q" d="M584.3,232.7c0,.2-26.2.3-58.6.3s-58.7-.1-58.7-.3,26.3-.3,58.7-.3S584.3,232.6,584.3,232.7Z"/><path class="q" d="M584.3,239.1c0,.1-26.2.2-58.6.2s-58.7-.1-58.7-.2,26.3-.3,58.7-.3S584.3,238.9,584.3,239.1Z"/><path class="t" d="M538,236.6c3.2-5.4,4.2-12.6,5-18.8.4-3,1.1-7.1-1-9s-2.4-4.9-4.9-6.5a7.9,7.9,0,0,0-8.4.1"/><path class="u" d="M529.1,255.7h0a8.7,8.7,0,0,1-9.3-8.4c-.2-4.7-.3-9.4-.3-9.4s-7.2-.7-7.7-7.8-.3-23.4-.3-23.4h0a24.7,24.7,0,0,1,24.9,1.6l-.4,24.9v13.4C535.9,251.1,533.6,255.3,529.1,255.7Z"/><path class="t" d="M518.8,221.5a3.8,3.8,0,0,1,4.9-1.1,4.2,4.2,0,0,1,1.3,5.2,5.3,5.3,0,0,1-3.4,2.6,2.8,2.8,0,0,0-2.2,2.9c.2,1.8,3.2,2.5,4.5,3.9s6.7,3.3,9.7,3.7,2.7.3,4.4-2.1a9.2,9.2,0,0,0,1.7-5.8c.1-5.2.3-10.4.4-15.6a25.9,25.9,0,0,0-.4-5.6,7.5,7.5,0,0,0-3-4.7c-1.7-1.1-3.9-1.2-5.8-1.8s-4.5-2.4-6.8-3.6-5.1-1.9-7.4-.7-2.8,2.4-4.4,3.4-5.4,1-6.5,4.3a5.5,5.5,0,0,0,0,3.6c1.6,4.6,7.3,6.4,11.3,4.5.1.7-.7,2.5.2,4.9.2.8.3,2,1.5,2"/><path class="v" d="M519.2,237.8l-1.6-.2a7.8,7.8,0,0,1-3.4-1.9,7.2,7.2,0,0,1-2.3-3.2,4.1,4.1,0,0,1-.4-1.5c.1-.1.3.5.7,1.4a9.4,9.4,0,0,0,2.3,2.9,9.2,9.2,0,0,0,3.2,1.9A12.6,12.6,0,0,1,519.2,237.8Z"/><polygon class="u" points="559.2 280.9 544.2 292.7 550.5 303 568.6 289.7 559.2 280.9"/><path class="u" d="M519,241.5s0-1.3-3.3-1.5a21.6,21.6,0,0,0-3.6-.1,8.4,8.4,0,0,1-1.6-3.1,8.6,8.6,0,0,1,.7-3l3.3-.3-.9-2.3-2.3.2-6.6.8-2.6,11.5L484,277.4a8.7,8.7,0,0,0,3.5,12.7h0c4.6,2.3,10.9-2.5,12.6-7.4l10-37.5,3.5-2.7,5-1"/><path class="w" d="M476.6,465.7l25.8-141.3h-.1c.1-.2.1-.4.2-.6h0c4.2-16.6,10.6-21.9,10.6-21.9l37.7,2.4c3.2,5.7,3.6,19.5,3.6,19.5.4,1.7-7.4,138.8-7.4,138.8l-14.2-.4L527,332.4,492.7,466.2Z"/><path class="x" d="M477.5,467v-1.2l12.9.3v4.2h-.8c-3.6.1-18.1.2-20.5-.5S477.5,467,477.5,467Z"/><path class="y" d="M540.7,245.4a25.4,25.4,0,0,1,10,4c11.9,7.7,31.7,24,30.1,31.5s-16.9,14.3-16.9,14.3L553.8,283l6.2-3.5-15.2-10.1Z"/><path class="y" d="M554.4,318.4H504c1.5-12.3,3.8-33.8,4.4-42.2,0,0-10.1,10.6-11.5,11.9-5,4.6-9.8,3.3-12.1,1.3-6.2-5.6.2-12.7.2-12.7l23.8-27.3a11.8,11.8,0,0,1,6.2-3.8,49.3,49.3,0,0,1,5.1-.9l15.9.2a31.6,31.6,0,0,1,4.7.5s8,3.4,9.4,10.3S554.4,318.4,554.4,318.4Z"/><polygon class="x" points="546.5 462.5 549.9 470.6 534.2 470.4 533.8 462.1 546.5 462.5"/><rect class="r" x="290.2" y="350.3" width="59.6" height="2.9"/><polygon class="r" points="280.9 353.2 269.7 311.3 316.3 311.3 326.4 353.2 280.9 353.2"/><polygon class="z" points="323.6 350 282 350 272.4 313.2 314.1 313.2 323.6 350"/><path class="aa" d="M273.1,315.9h41.7l-.7-2.7H272.4Z"/><path class="s" d="M277.6,314.5a.5.5,0,0,0,.4.5.5.5,0,0,0,.5-.5.5.5,0,0,0-.5-.4A.4.4,0,0,0,277.6,314.5Z"/><path class="s" d="M276,314.5a.5.5,0,0,0,.5.5.5.5,0,0,0,.4-.5.4.4,0,0,0-.4-.4A.5.5,0,0,0,276,314.5Z"/><path class="s" d="M274.4,314.5a.5.5,0,0,0,.5.5.5.5,0,0,0,.4-.5.4.4,0,0,0-.4-.4A.5.5,0,0,0,274.4,314.5Z"/><polygon class="r" points="219.6 353 219.6 358.5 223.2 358.5 223.2 469.7 230.6 469.7 230.6 358.5 269.7 358.5 269.7 469.7 277.1 469.7 277.1 358.5 447.1 358.5 447.1 469.7 454.4 469.7 454.4 358.5 457.6 358.5 457.6 353 219.6 353"/><ellipse class="ab" cx="309.7" cy="395.5" rx="0.3" ry="0.1"/><path class="u" d="M356.8,296.6l-27.6-28-.6-3-.3-1.9a5.3,5.3,0,0,1,0-2.5,20.2,20.2,0,0,1,.8-2.9c.5-.8-.2-1.8-1-1.5s-2.1,2.6-2.4,5.6-2.9-1-3.8-2.4-4.2-5.8-4.8-5.9-1.3,1-.3,2.5,3.7,5.8,3,6.3h-.1a3.7,3.7,0,0,0-3.8,1.9c-.7,1.3-1.5,3.2-.8,4.1a45.6,45.6,0,0,0,4.4,4.7l.9.8s23.9,34.5,29.1,35.6c3.2.7,53.2,4.9,53.2,4.9l3.7-13.8Z"/><path class="u" d="M314.9,268.3l2.5,2.5,1,.7a1.1,1.1,0,0,0,1.1-.2.9.9,0,0,0,.1-1,2.6,2.6,0,0,0-.5-.9l-2.5-3"/><path class="v" d="M316.6,266.4l1.2,1.2,1.3,1.5a3.5,3.5,0,0,1,.7.9,1.2,1.2,0,0,1-.1,1.4,1.1,1.1,0,0,1-1.4.3,2.3,2.3,0,0,1-1-.7l-1.3-1.3c-.7-.8-1.2-1.3-1.1-1.4l1.4,1.1,1.4,1.3a2.4,2.4,0,0,0,.8.6.7.7,0,0,0,.8-.2.7.7,0,0,0,0-.9,1.6,1.6,0,0,0-.6-.8l-1.1-1.5C316.9,267,316.5,266.4,316.6,266.4Z"/><path class="u" d="M316.7,266.6l2.5,2.4a2.3,2.3,0,0,0,1,.7,1,1,0,0,0,1.3-1.2l-.6-.9-2.5-3"/><path class="v" d="M318.4,264.6l1.3,1.2,1.2,1.5a3.5,3.5,0,0,1,.7.9,1.2,1.2,0,0,1-.1,1.4,1.1,1.1,0,0,1-1.3.4,2.9,2.9,0,0,1-1-.7l-1.4-1.4c-.7-.8-1.2-1.3-1.1-1.3s.6.3,1.4,1l1.4,1.3a2.4,2.4,0,0,0,.8.6.7.7,0,0,0,.8-.2.9.9,0,0,0,.1-.9l-.7-.8-1.1-1.5C318.7,265.2,318.3,264.7,318.4,264.6Z"/><path class="u" d="M318.7,265.1l2.5,2.4a2.3,2.3,0,0,0,1,.7.9.9,0,0,0,1.1-.1,1.1,1.1,0,0,0,.1-1.1,4.1,4.1,0,0,0-.5-.9l-2.5-2.9"/><path class="v" d="M320.4,263.2l1.2,1.2,1.3,1.4a8.6,8.6,0,0,1,.7,1,1.2,1.2,0,0,1-.1,1.4,1.2,1.2,0,0,1-1.4.3l-1-.7-1.3-1.4c-.7-.7-1.2-1.3-1.1-1.3s.5.4,1.4,1.1l1.4,1.3.8.5c.3.1.7.1.8-.1a.8.8,0,0,0,0-.9,2.4,2.4,0,0,0-.6-.9l-1.1-1.5C320.7,263.8,320.3,263.2,320.4,263.2Z"/><path class="v" d="M322.7,269.3c0-.1.6-.2,1.6.1l-.3.3a3.6,3.6,0,0,1-.1-1.8,4.6,4.6,0,0,1,.9-2.1c.4-.5.8-.7.8-.6a10,10,0,0,0-1.2,2.8,4.3,4.3,0,0,0,0,1.6v.4l-.3-.2Z"/><path class="u" d="M392.9,254.6V293l-15,.7-.6-9.2s-7.2,1.1-8.7-4.3c-1-3.5-.7-30.3-.7-30.3Z"/><path class="t" d="M364.3,253.7c1.1,2.3,6.3,6.5,6.3,6.5l2.4,6.4c2.1-1.6,4.9-1.6,5.4,2.1s-2.9,3.2-2.9,3.2c1.9,3.2,3.2,5.8,6,8.9s4.7,3.7,7.9,3.7H393s7.3-6.1,5.9-22.3-16-11.4-19.4-15.5C373.8,240.2,360.6,246,364.3,253.7Z"/><path class="x" d="M379.9,460.4l-4.9-6.3,11.7-9.2L394,454l-.7.6c-3.1,2.7-15.9,13.6-18.6,14.7S379.9,460.4,379.9,460.4Z"/><g class="ac"><polygon points="390.9 450.3 379.1 459.3 378 457.9 390.4 449.4 390.9 450.3"/></g><path class="x" d="M326.1,466.7v-8h14.9v11.6h-1c-4.1.2-20.9.9-23.6.1S326.1,466.7,326.1,466.7Z"/><g class="ac"><polygon points="341.2 465.3 326.1 465.3 326.2 463.5 341.1 463.4 341.2 465.3"/></g><path class="u" d="M362.9,329.4l-5.9,18c-1.7,4.8-5.9,5.6-11,5.6H312.8v-7.4l30.3-4.3,7.3-18.5Z"/><path class="u" d="M309.2,344l-2.7-1.2s-2.8-5.5-3.5-5.3-.8,1.9.3,4.4l-3.5-1s-7.5,3.5-7.2,4a1.7,1.7,0,0,0,2.6.7l3.8-1.8,4.1,1.1-5.3.7-4.9,4.5a2.4,2.4,0,0,0,3-.1l12.9,2.8,4,.2v-7.4Z"/><path class="v" d="M295.9,350c.1.1.3-.3.8-.8a2.2,2.2,0,0,1,.9-.7l1.4-.4c2.1-.2,3.9-.5,3.9-.7a31.9,31.9,0,0,0-4,.3l-1.5.4-1,.9A3.6,3.6,0,0,0,295.9,350Z"/><path class="v" d="M297.9,350.6c.1,0,.1-.3.5-.4l1.5-.2,2.3-.2a4.8,4.8,0,0,0-2.3-.2l-1.6.3a.7.7,0,0,0-.4.5A.1.1,0,0,0,297.9,350.6Z"/><path class="ad" d="M365.7,325.5l-2.5,8.6L347,326.8c.6-1.8,3.2-9.9,8.4-22.7a21.8,21.8,0,0,1,16.8-13.5,88,88,0,0,1,15.5-1.5c9.1.1,22.4,5.7,24.2,14.6,1.4,6.8.1,18.8.1,33.4L410.8,365l-46.6,1.6Z"/><g class="ac"><path d="M411.9,330.7c-5.6,1.1-11.5,0-17.2-.4-3.5-.2-7.4-.6-10.2,1.6s-3.1,4.6-3.7,7.3c-2.4,10.3-2.8,17.2-3.4,27.8l28,1.7Z"/></g><path class="ae" d="M340.1,368.7a16.5,16.5,0,0,0-6.8,22.2l40.5,69.5,18.7-11.2L361,386.4l22.8-14.9"/><path class="w" d="M389.4,365.2l-55.6,2a16.5,16.5,0,0,0-16,16.8l2.3,79.5h23.4l-.8-71a4.2,4.2,0,0,1,4.1-4.2l42.6-1.1Z"/><path class="ab" d="M413.5,314.8H396.7a12.3,12.3,0,0,0-12.3,12.3v58.7H350.8a8.5,8.5,0,0,0-8.5,8.5H419a7,7,0,0,0,6.8-7V327.1A12.3,12.3,0,0,0,413.5,314.8Z"/><path class="ab" d="M387.2,455.9V394.3h-5.5v61.6c-3.3,6.6-11.2,11-20.8,14.7h48.8C399.8,466.5,390.9,463.5,387.2,455.9Z"/><rect x="393" y="123.4" width="27.6" height="6.71"/><rect class="af" x="393" y="130.1" width="27.6" height="6.71"/><rect class="ag" x="393" y="136.8" width="27.6" height="6.71"/><path class="q" d="M273.9,237.2c0-3.5,2.1-36.6-2.6-39.2-6.5-3.5-21.5,24.1-32.8,24.1-19.6,0-35.4,6.7-35.4,15.1s15.8,15.1,35.4,15.1S273.9,245.5,273.9,237.2Z"/><path class="ah" d="M266.9,199.5a19.5,19.5,0,0,1-5.9-17.6,13.1,13.1,0,0,0,.1-2.8,14,14,0,0,0-28,.6,13.4,13.4,0,0,0,.4,3.5,19.3,19.3,0,0,1-4.5,17.9,26.7,26.7,0,0,0-7.4,18.3c0,16.4,6.4,24.2,15.5,26.7a22.3,22.3,0,0,1,8.5-1.5,21.6,21.6,0,0,1,8.2,1.4c11.2-2.3,16.6-7.7,20.3-20.4C277.1,215.5,272.5,204.4,266.9,199.5Z"/><path d="M266.9,199.5a19.5,19.5,0,0,1-5.9-17.6,13.1,13.1,0,0,0,.1-2.8,14.1,14.1,0,0,0-13.6-13.4h-1.9v78.8a20.8,20.8,0,0,1,9.2,1.8c10.6-1.6,15.7-8.5,19.3-20.8C277.1,215.5,272.5,204.4,266.9,199.5Z"/><path class="ai" d="M227.6,222.7c0-10.6,8.5-35.3,19.1-35.3s19,24.8,19,35.3a19.1,19.1,0,1,1-38.1,0Z"/><path class="aj" d="M246.7,187.4h-1.1v54.3h1.1a19,19,0,0,0,19-19.1C265.7,212.2,257.2,187.4,246.7,187.4Z"/><ellipse class="ak" cx="239.6" cy="182" rx="3.1" ry="4.3"/><ellipse class="al" cx="239.6" cy="183" rx="1.6" ry="2.8"/><ellipse class="ak" cx="250.8" cy="182" rx="3.1" ry="4.3"/><ellipse class="al" cx="250.8" cy="183" rx="1.6" ry="2.8"/><path class="am" d="M255,189.3c1,2.2-6.8,6.3-9.5,6.3s-10.5-5-9.5-6.3,5.8-6.5,9-6.5S254.3,187.8,255,189.3Z"/><path class="an" d="M255,189.3c-.6-1.4-6.6-5.8-9.4-6.4v12.7C248.4,195.5,256,191.4,255,189.3Z"/><path class="ao" d="M266.9,223.4c1.4,2.7,3.5,5.2,6.1,5.8a4.8,4.8,0,0,1,3.7,4.1,2.8,2.8,0,0,0,.1.9,9.8,9.8,0,0,0,2.2,4.7,3.5,3.5,0,0,1-2.1,5.5l-20,3.8a5.1,5.1,0,0,1-5.3-7.7l11-17.3A2.5,2.5,0,0,1,266.9,223.4Z"/><path class="ap" d="M245.5,194.4q-4.4,0-8.7-4.2l1-1c2.9,2.8,5.7,4,8.4,3.7a8.7,8.7,0,0,0,6-3.6l1.2.8a10.3,10.3,0,0,1-7,4.2Z"/><path class="aq" d="M246.2,192.9h-.6v1.4h.8a10.3,10.3,0,0,0,7-4.2l-1.2-.8A8.7,8.7,0,0,1,246.2,192.9Z"/><circle cx="269.6" cy="226.5" r="6.4"/><path class="ah" d="M226.3,219.5s6.9,8.3,11.8,10.2-2.4,7.4-8.9,3.2S226.3,219.5,226.3,219.5Z"/><path class="ar" d="M222.7,223.4c-1.4,2.7-3.5,5.2-6.2,5.8a4.8,4.8,0,0,0-3.6,4.1,2.8,2.8,0,0,0-.1.9,10.8,10.8,0,0,1-2.2,4.7,3.4,3.4,0,0,0,2.1,5.5l20,3.8a5.1,5.1,0,0,0,5.3-7.7l-11-17.3A2.5,2.5,0,0,0,222.7,223.4Z"/><path class="ah" d="M547.8,143.2a19.3,19.3,0,0,1-5.9-17.5,13.8,13.8,0,0,0,.1-2.9,14,14,0,0,0-28,.7,12.7,12.7,0,0,0,.4,3.4,19.1,19.1,0,0,1-4.5,17.9,27,27,0,0,0-7.4,18.4c0,16.3,6.4,24.2,15.5,26.7a22.3,22.3,0,0,1,8.5-1.5,21.6,21.6,0,0,1,8.2,1.4c11.3-2.3,16.6-7.8,20.3-20.4C558,159.3,553.4,148.2,547.8,143.2Z"/><path d="M547.8,143.2a19.3,19.3,0,0,1-5.9-17.5,13.8,13.8,0,0,0,.1-2.9,14,14,0,0,0-13.6-13.3h-1.9v78.8a20.8,20.8,0,0,1,9.2,1.8c10.6-1.7,15.7-8.5,19.3-20.8C558,159.3,553.4,148.2,547.8,143.2Z"/><path class="ai" d="M508.5,166.5c0-10.7,8.5-35.4,19.1-35.4s19,24.9,19,35.4a19.1,19.1,0,1,1-38.1,0Z"/><path class="aj" d="M527.6,131.1h-1.1v54.3h1.1a19.1,19.1,0,0,0,19-19.1C546.6,156,538.1,131.1,527.6,131.1Z"/><ellipse class="ak" cx="520.5" cy="125.8" rx="3.1" ry="4.3"/><ellipse class="al" cx="520.5" cy="126.7" rx="1.6" ry="2.8"/><ellipse class="ak" cx="531.7" cy="125.8" rx="3.1" ry="4.3"/><ellipse class="al" cx="531.7" cy="126.7" rx="1.6" ry="2.8"/><path class="am" d="M535.9,133.1c1,2.1-6.8,6.3-9.5,6.3s-10.5-5-9.5-6.3,5.8-6.5,9-6.5S535.2,131.6,535.9,133.1Z"/><path class="an" d="M535.9,133.1c-.6-1.4-6.6-5.8-9.4-6.4v12.7C529.3,139.3,536.9,135.2,535.9,133.1Z"/><path class="ao" d="M547.8,167.2c1.4,2.7,3.5,5.2,6.1,5.8a4.7,4.7,0,0,1,3.7,4.1c0,.3.1.5.1.8a10.6,10.6,0,0,0,2.2,4.8,3.5,3.5,0,0,1-2.1,5.5l-20,3.8a5.1,5.1,0,0,1-5.3-7.7l11-17.3A2.5,2.5,0,0,1,547.8,167.2Z"/><path class="ap" d="M526.4,138.2q-4.4,0-8.7-4.2l1-1c2.9,2.7,5.7,4,8.4,3.7a9.5,9.5,0,0,0,6-3.6l1.2.8a10.3,10.3,0,0,1-7,4.2Z"/><path class="aq" d="M527.1,136.7h-.6v1.5h.8a10.3,10.3,0,0,0,7-4.2l-1.2-.8A9.5,9.5,0,0,1,527.1,136.7Z"/><circle cx="550.5" cy="170.3" r="6.4"/><path class="ah" d="M507.2,163.3s6.9,8.3,11.8,10.2-2.4,7.3-8.9,3.2S507.2,163.3,507.2,163.3Z"/><path class="ar" d="M503.6,167.2c-1.4,2.7-3.5,5.2-6.1,5.8a4.7,4.7,0,0,0-3.7,4.1c0,.3-.1.5-.1.8a11.7,11.7,0,0,1-2.2,4.8,3.4,3.4,0,0,0,2.1,5.5l20,3.8a5.1,5.1,0,0,0,5.3-7.7l-11-17.3A2.5,2.5,0,0,0,503.6,167.2Z"/></svg>