<svg xmlns="http://www.w3.org/2000/svg" xmlns:xlink="http://www.w3.org/1999/xlink" viewBox="0 0 720 525.9"><defs><style>.a{fill:url(#a);}.b{fill:url(#b);}.c{fill:url(#c);}.d{fill:url(#d);}.e{fill:#e1e1e1;}.f{fill:url(#e);}.g{fill:url(#f);}.h{fill:url(#g);}.i{fill:url(#h);}.j{fill:#1a2e35;}.k{fill:url(#i);}.l{fill:url(#j);}.m{fill:url(#k);}.n{fill:url(#l);}.o{fill:url(#m);}.p{fill:url(#n);}.q{fill:url(#o);}.r{fill:url(#p);}.s{fill:#e8505b;}.t{fill:url(#q);}.u{fill:url(#r);}.v{fill:url(#s);}.w{fill:url(#t);}.x{fill:url(#u);}.y{fill:#0e72c4;}.z{fill:#197bdd;}.aa{fill:#0c5591;}.ab{fill:#ececec;}.ac{fill:#fafafa;}.ad{fill:#375a64;}.ae{fill:#f5f5f5;}.af{fill:#ffe7cb;}.ag{fill:#f0d2b9;}.ah{fill:#21e2e2;}.ai{fill:#152735;}.aj{fill:#1f364c;}.ak{fill:#288ed9;}.al{fill:#0e71bb;}.am{fill:red;}.an{fill:#ffcf00;}.ao{fill:#00c1bc;}.ap{fill:#4987ce;}</style><linearGradient id="a" x1="3535.05" y1="386.13" x2="3535.04" y2="386.88" gradientTransform="matrix(740.56, 0, 0, -612.51, -2617542.82, 237015.56)" gradientUnits="userSpaceOnUse"><stop offset="0" stop-color="#c6e6ff"/><stop offset="1" stop-color="#fff"/></linearGradient><linearGradient id="b" x1="632.1" y1="363.16" x2="664.21" y2="363.16" gradientUnits="userSpaceOnUse"><stop offset="0" stop-color="#44989f"/><stop offset="0.21" stop-color="#39b0b4"/><stop offset="0.52" stop-color="#2ccbcd"/><stop offset="0.8" stop-color="#24dcdd"/><stop offset="1" stop-color="#21e2e2"/></linearGradient><linearGradient id="c" x1="623.79" y1="312.32" x2="647.01" y2="312.32" xlink:href="#b"/><linearGradient id="d" x1="583.23" y1="322.16" x2="621.51" y2="322.16" xlink:href="#b"/><linearGradient id="e" x1="604.44" y1="423.19" x2="647.1" y2="423.19" gradientUnits="userSpaceOnUse"><stop offset="0" stop-color="#ffbc98"/><stop offset="0.45" stop-color="#ffbb96"/><stop offset="0.67" stop-color="#ffb68e"/><stop offset="0.84" stop-color="#ffad81"/><stop offset="0.98" stop-color="#ffa16f"/><stop offset="1" stop-color="#ff9f6c"/></linearGradient><linearGradient id="f" x1="600.74" y1="402.41" x2="651.67" y2="402.41" xlink:href="#e"/><linearGradient id="g" x1="600.74" y1="438.59" x2="650.83" y2="438.59" xlink:href="#e"/><linearGradient id="h" x1="603.13" y1="442.73" x2="649" y2="442.73" xlink:href="#e"/><linearGradient id="i" x1="122.29" y1="309.95" x2="127.45" y2="309.95" gradientUnits="userSpaceOnUse"><stop offset="0" stop-color="#419ee3"/><stop offset="1" stop-color="#0d79c9"/></linearGradient><linearGradient id="j" x1="127.98" y1="341.42" x2="140.59" y2="341.42" xlink:href="#i"/><linearGradient id="k" x1="125.28" y1="372.34" x2="132.9" y2="372.34" xlink:href="#i"/><linearGradient id="l" x1="132.6" y1="405.02" x2="140.82" y2="405.02" xlink:href="#i"/><linearGradient id="m" x1="105.9" y1="300.61" x2="117.75" y2="300.61" xlink:href="#i"/><linearGradient id="n" x1="117.42" y1="327.86" x2="130.24" y2="327.86" xlink:href="#i"/><linearGradient id="o" x1="117.95" y1="355.88" x2="123.37" y2="355.88" xlink:href="#i"/><linearGradient id="p" x1="118.94" y1="393.04" x2="131.49" y2="393.04" xlink:href="#i"/><linearGradient id="q" x1="145.45" y1="369.27" x2="149.98" y2="369.27" xlink:href="#b"/><linearGradient id="r" x1="128.58" y1="398.56" x2="133.66" y2="398.56" xlink:href="#b"/><linearGradient id="s" x1="154.5" y1="355.57" x2="164.23" y2="355.57" xlink:href="#b"/><linearGradient id="t" x1="136.83" y1="390.12" x2="153.29" y2="390.12" xlink:href="#b"/><linearGradient id="u" x1="120.69" y1="432.77" x2="144.25" y2="432.77" xlink:href="#e"/></defs><title>german windows dedicated server</title><path class="a" d="M386.1,112.1c72.1,46,154.6,66.7,154.6,66.7s90.9,13.8,57.5,117.3S560.4,436.6,508,439.3c-49.7,1.4-77.6-19.1-126.7-15.6-43.2,3.3-73,22.8-145.1-5.6C120.6,367,129.2-50,386.1,112.1Z"/><path class="b" d="M638.1,355.6c5-2.6,10.8-3,16.4-2,2.9.5,6,1.3,8,3.6s2.4,6.1.1,8.1a7.5,7.5,0,0,1-5.1,1.2c-4.3,0-9.1-.8-12.6,1.8-1.9,1.5-3.3,4-5.6,4.7a5.5,5.5,0,0,1-6.1-2.7,9,9,0,0,1-.7-7A10.6,10.6,0,0,1,638.1,355.6Z"/><path class="c" d="M626.7,333.5c3,4.4,8.9,2.9,11.7.3s3.9-6.5,4.9-10.2c2.4-8.4,4.9-17.2,3.1-25.7a14.7,14.7,0,0,0-3.3-7,7.7,7.7,0,0,0-7.1-2.4c-3,.8-4.8,3.8-6.2,6.5a61.7,61.7,0,0,0-6,26.3c0,4.3.5,8.7,2.9,12.2"/><path class="d" d="M618.3,339.8c3.3-4,3.9-9.7,2.5-14.6s-4.8-9.1-8.7-12.5a46.2,46.2,0,0,0-15.4-9.1,16.7,16.7,0,0,0-7-1.2,7.2,7.2,0,0,0-5.8,3.5c-1.6,3.1-.1,6.9,1.6,9.9a115.2,115.2,0,0,0,10.2,15.5c3,3.9,6.5,7.8,11.1,9.6s9.5,1.5,11.9-1.7"/><path class="e" d="M626.5,399.1s.1-.7.2-1.9.3-3.3.6-5.4a52.5,52.5,0,0,1,1.2-7.9,62,62,0,0,1,2.8-9.4,39.4,39.4,0,0,1,4.8-8.4,16.8,16.8,0,0,1,6-5,18.9,18.9,0,0,1,5.1-1.6l2-.3h-2a14.4,14.4,0,0,0-5.3,1.3,19.4,19.4,0,0,0-6.4,5.1,35.7,35.7,0,0,0-4.9,8.6,56.5,56.5,0,0,0-2.9,9.5,69.6,69.6,0,0,0-1,8c-.2,2.3-.3,4.2-.3,5.4A6.3,6.3,0,0,0,626.5,399.1Z"/><path class="e" d="M626.8,395c.1,0,.1-.3.1-.9v-2.6c0-2.3,0-5.6.1-9.7.2-8.1.9-16.9,2.2-29.2s3-25.1,4.9-33.9c.4-2,.7-3.8,1.1-5.4s.7-2.9,1-4a26.1,26.1,0,0,1,.6-2.6c.1-.6.2-.9.1-.9l-.3.9c-.2.6-.4,1.5-.8,2.5l-1,4c-.4,1.6-.9,3.4-1.3,5.4a299.2,299.2,0,0,0-5.1,31.4c-1.3,12.4-1.9,23.6-2,31.8,0,4.1.1,7.4.2,9.7s.1,1.9.1,2.6A6.2,6.2,0,0,1,626.8,395Z"/><path class="e" d="M626.9,373.3v-2.8c-.1-1.7-.4-4.3-.9-7.4a83.3,83.3,0,0,0-2.4-10.8,97.2,97.2,0,0,0-4.5-12.8,69.8,69.8,0,0,0-13.3-20.7,39.8,39.8,0,0,0-3.1-2.9l-1.3-1.1-1.3-.9c-1.4-.9-2.2-1.5-2.3-1.4a69.2,69.2,0,0,1,7.6,6.7,71.7,71.7,0,0,1,12.9,20.6,96.7,96.7,0,0,1,4.6,12.7,108.6,108.6,0,0,1,2.6,10.7c.5,3.1.9,5.6,1,7.4A13,13,0,0,0,626.9,373.3Z"/><polygon class="f" points="604.4 408.3 606.6 438.1 644.9 438.1 647.1 408.3 604.4 408.3"/><rect class="g" x="600.7" y="396.5" width="50.9" height="11.75"/><polygon class="h" points="600.7 437 600.7 440.2 603.1 440.2 650.8 440.2 650.8 437 600.7 437"/><polygon class="i" points="605.5 445.6 603.1 439.9 649 439.9 646.3 445.6 605.5 445.6"/><path class="j" d="M661.2,446c0,.2-141.7.3-316.4.3s-316.5-.1-316.5-.3,141.7-.2,316.5-.2S661.2,445.9,661.2,446Z"/><path class="e" d="M129.7,424.1a1.6,1.6,0,0,1,.1-.4l.5-1a22.8,22.8,0,0,0,1.4-3.9,34.2,34.2,0,0,0-.2-15.3,78.9,78.9,0,0,0-2.8-10.2c-1.2-3.7-2.6-7.6-3.7-11.7a48.9,48.9,0,0,1-1.9-13.5c.2-4.7,1.6-9.5,3.2-14.2s3.1-9.3,3.6-14a21.7,21.7,0,0,0-2.6-12.9c-2-3.8-4.6-7-6.5-10.4a35.5,35.5,0,0,1-4-9.9,38,38,0,0,1-.2-15.4,23.1,23.1,0,0,1,1.6-5.4.8.8,0,0,1-.1.3,8.1,8.1,0,0,0-.3,1.1,28.7,28.7,0,0,0-1,4,36.4,36.4,0,0,0,.4,15.3,33.4,33.4,0,0,0,3.9,9.8c1.9,3.3,4.5,6.6,6.6,10.4a21.8,21.8,0,0,1,2.7,13.2c-.5,4.7-2.1,9.3-3.7,14.1s-2.9,9.4-3.1,14.1a43.9,43.9,0,0,0,1.8,13.2c1.1,4.2,2.5,8.1,3.7,11.7a84.7,84.7,0,0,1,2.8,10.3,33.8,33.8,0,0,1-.1,15.4,19.7,19.7,0,0,1-1.4,4,9.3,9.3,0,0,0-.5,1Z"/><path class="k" d="M123.4,319.9s-3.9-12.5,3.1-19.8a.4.4,0,0,1,.7.2C127.6,302.4,128.1,308.7,123.4,319.9Z"/><path class="e" d="M125.7,304.3a7.9,7.9,0,0,1-.2,2.3c-.3,1.6-.6,3.4-.9,5.5s-.7,3.9-.9,5.5a10.3,10.3,0,0,1-.4,2.3,7,7,0,0,1,0-2.3c.2-1.5.4-3.4.8-5.6s.7-4.1,1-5.5A17.1,17.1,0,0,1,125.7,304.3Z"/><path class="l" d="M128,349.5s2.4-12.9,12-16.1c.3-.1.7.2.6.5C139.9,335.9,137.4,341.7,128,349.5Z"/><path class="e" d="M137.4,336.7a15.3,15.3,0,0,1-1.3,1.9l-3.4,4.5-3.4,4.5a11.6,11.6,0,0,1-1.4,1.8,20.8,20.8,0,0,1,1.2-2,50.1,50.1,0,0,1,3.2-4.6l3.5-4.4A8.7,8.7,0,0,1,137.4,336.7Z"/><path class="m" d="M125.4,381.8s-1.5-13,6.8-18.9a.4.4,0,0,1,.7.4C132.9,365.4,132.1,371.7,125.4,381.8Z"/><path class="e" d="M130.7,366.9a17.2,17.2,0,0,1-.7,2.2c-.6,1.5-1.2,3.3-2,5.3s-1.3,3.7-1.9,5.2a14,14,0,0,1-.8,2.2,7.6,7.6,0,0,1,.5-2.3,55.8,55.8,0,0,1,1.8-5.3c.7-2.1,1.5-3.9,2-5.2A9.5,9.5,0,0,1,130.7,366.9Z"/><path class="n" d="M132.6,414.4s-1-13.1,7.5-18.7a.5.5,0,0,1,.7.4C140.7,398.2,139.8,404.5,132.6,414.4Z"/><path class="e" d="M138.5,399.6l-.8,2.2-2.1,5.2-2.1,5.2a13.4,13.4,0,0,1-1,2.1s.2-.9.6-2.2,1.2-3.3,2-5.3a52.7,52.7,0,0,1,2.3-5.1A9.5,9.5,0,0,1,138.5,399.6Z"/><path class="o" d="M117.8,308.9s-11.7-6-11.9-16.2a.4.4,0,0,1,.7-.3C108.3,293.5,113.1,297.7,117.8,308.9Z"/><path class="e" d="M108.3,296.2a16.6,16.6,0,0,1,1.5,1.8l3.2,4.6,3.3,4.5a11.6,11.6,0,0,1,1.4,1.9,8.7,8.7,0,0,1-1.6-1.7,55.7,55.7,0,0,1-3.5-4.5l-3.1-4.6A20.8,20.8,0,0,1,108.3,296.2Z"/><path class="p" d="M130.2,335.8s-11.9-5.3-12.8-15.4a.5.5,0,0,1,.7-.5C119.9,321,124.9,324.9,130.2,335.8Z"/><path class="e" d="M120,323.7a8.7,8.7,0,0,1,1.6,1.7l3.5,4.3,3.6,4.4c.9,1.1,1.5,1.7,1.4,1.8l-1.7-1.6-3.6-4.2-3.5-4.5Z"/><path class="q" d="M123.3,365.8s-8.2-10.2-4.3-19.6a.5.5,0,0,1,.8-.1C120.9,347.9,123.6,353.6,123.3,365.8Z"/><path class="e" d="M119.8,350.4a7.8,7.8,0,0,1,.6,2.2c.3,1.6.7,3.4,1.2,5.5s.8,3.9,1.2,5.4a9.3,9.3,0,0,1,.4,2.3s-.3-.8-.7-2.2-.9-3.3-1.4-5.4-.8-4.1-1-5.5A6.6,6.6,0,0,1,119.8,350.4Z"/><path class="r" d="M131.5,401.1s-11.9-5.5-12.6-15.7a.5.5,0,0,1,.7-.4C121.4,386.1,126.3,390,131.5,401.1Z"/><path class="e" d="M121.5,388.8a9.4,9.4,0,0,1,1.5,1.8l3.5,4.3,3.5,4.4a11.6,11.6,0,0,1,1.4,1.9,11,11,0,0,1-1.7-1.7c-.9-1-2.2-2.5-3.6-4.3l-3.3-4.4A7.9,7.9,0,0,1,121.5,388.8Z"/><path class="e" d="M155.2,349.5v1.2c-.1.8-.1,1.8-.2,3.2s-.4,6.6-.6,11.3h0c-.9,4.8-3.3,10-6.5,15.2s-4.9,7.1-7.1,10.3a73.4,73.4,0,0,0-5.2,8.7,35.2,35.2,0,0,0-2.5,6.4,10.1,10.1,0,0,0-.4,1.8,3.1,3.1,0,0,1-.2.7,3.2,3.2,0,0,1,.1-.7,8.2,8.2,0,0,1,.3-1.8,31.6,31.6,0,0,1,2.4-6.5,57.3,57.3,0,0,1,5.2-8.8c2.1-3.2,4.6-6.7,7-10.4s5.6-10.3,6.5-14.9h0c.3-4.7.6-8.6.8-11.4.1-1.3.2-2.4.2-3.1a3.1,3.1,0,0,0,.1-.9A.4.4,0,0,1,155.2,349.5Z"/><path class="s" d="M148.1,379.4s5-12.1-1.3-20.1a.5.5,0,0,0-.8.2C145.5,361.5,144.4,367.7,148.1,379.4Z"/><path class="t" d="M148.1,379.4s5-12.1-1.3-20.1a.5.5,0,0,0-.8.2C145.5,361.5,144.4,367.7,148.1,379.4Z"/><path class="e" d="M147.2,363.5s.2.9.4,2.3.3,3.4.5,5.6.2,4.2.2,5.6a8.2,8.2,0,0,1-.1,2.3,10.5,10.5,0,0,1-.2-2.3c-.1-1.6-.2-3.5-.4-5.5s-.3-4-.4-5.6A7.8,7.8,0,0,1,147.2,363.5Z"/><path class="s" d="M132.5,408.6s4-12.5-2.9-19.9a.4.4,0,0,0-.8.2C128.4,391,127.9,397.3,132.5,408.6Z"/><path class="u" d="M132.5,408.6s4-12.5-2.9-19.9a.4.4,0,0,0-.8.2C128.4,391,127.9,397.3,132.5,408.6Z"/><path class="e" d="M130.3,392.9a7.8,7.8,0,0,1,.6,2.2c.3,1.4.6,3.4,1,5.5s.5,4.2.7,5.6a7,7,0,0,1,0,2.3,8.9,8.9,0,0,1-.4-2.3c-.2-1.6-.5-3.4-.8-5.5s-.6-3.9-.9-5.5A7.9,7.9,0,0,1,130.3,392.9Z"/><path class="s" d="M154.5,364.6s10.7-7.6,9.7-17.6c-.1-.4-.5-.6-.8-.3S157.7,352.8,154.5,364.6Z"/><path class="v" d="M154.5,364.6s10.7-7.6,9.7-17.6c-.1-.4-.5-.6-.8-.3S157.7,352.8,154.5,364.6Z"/><path class="e" d="M162.2,350.7a8,8,0,0,1-.9,2.2l-2.5,5-2.8,4.8a10.1,10.1,0,0,1-1.4,1.9,13.7,13.7,0,0,1,1.1-2.1l2.6-4.9,2.7-4.9Z"/><path class="s" d="M136.8,396.2s13-2,16.5-11.6c.1-.3-.2-.6-.6-.5C150.7,384.6,144.9,387,136.8,396.2Z"/><path class="w" d="M136.8,396.2s13-2,16.5-11.6c.1-.3-.2-.6-.6-.5C150.7,384.6,144.9,387,136.8,396.2Z"/><path class="e" d="M149.9,387.2l-1.8,1.5-4.5,3.4-4.6,3.1-2.1,1.1a10.1,10.1,0,0,1,1.9-1.4l4.5-3.2,4.6-3.3C149.1,387.6,149.8,387.1,149.9,387.2Z"/><polygon class="x" points="124.5 420 120.7 445.5 144.2 445.5 141.2 420 124.5 420"/><rect class="y" x="366.1" y="189.6" width="112.8" height="74.61" rx="1.5"/><path class="z" d="M361.3,258.7H483.6a0,0,0,0,1,0,0v0a6.5,6.5,0,0,1-6.5,6.5H367.9a6.5,6.5,0,0,1-6.5-6.5v0A0,0,0,0,1,361.3,258.7Z"/><polygon class="aa" points="411.4 258.7 412.9 261.1 434.2 261.1 435.6 258.7 411.4 258.7"/><rect class="ab" x="371.3" y="194.7" width="102.3" height="60.67" rx="3.3"/><rect class="ac" x="371.3" y="199.1" width="102.3" height="56.22"/><path class="ad" d="M477.9,258.7h0Z"/><path class="z" d="M359,160.4H240a3.7,3.7,0,0,0-3.7,3.7v84.1a3.8,3.8,0,0,0,3.7,3.7h45.7s2.9,9-6.1,13.6h42.7s-10.2-3.5-7.5-13.6H359a3.7,3.7,0,0,0,3.7-3.7V164.1A3.6,3.6,0,0,0,359,160.4Z"/><path class="j" d="M301.1,243a2.3,2.3,0,0,1-3.2,3.3l-.2-.2a2.3,2.3,0,0,1,3.2-3.3Z"/><rect class="ab" x="241.5" y="165.6" width="115.2" height="68.35"/><rect class="ac" x="241.5" y="170.6" width="115.2" height="65.91"/><path class="ae" d="M250.9,168.2a.9.9,0,1,1-.9-.9A.9.9,0,0,1,250.9,168.2Z"/><path class="ae" d="M245.3,168.2a.9.9,0,1,1-.9-.9A.9.9,0,0,1,245.3,168.2Z"/><path class="ae" d="M248,168.2a.9.9,0,1,1-.9-.9A.9.9,0,0,1,248,168.2Z"/><rect class="z" x="190.6" y="205" width="42.2" height="60.62" rx="3.2"/><rect class="ac" x="191.9" y="209.2" width="39.6" height="50.62"/><path class="j" d="M212.9,261.4a1.7,1.7,0,0,1-2.4,2.4A1.7,1.7,0,0,1,212.9,261.4Z"/><rect class="j" x="205.3" y="206.8" width="12.7" height="0.67" rx="0.3"/><rect class="ad" x="476" y="275.7" width="10.4" height="170.18"/><rect class="ad" x="184.3" y="275.7" width="10.4" height="170.18"/><rect class="ad" x="140.5" y="265.2" width="403.7" height="10.45"/><rect class="ad" x="359.6" y="275.7" width="116.4" height="29.2"/><path class="j" d="M498.3,276.5c0,.1-80.1,0-178.9-.2s-178.9-.5-178.9-.6,80.1-.1,178.9.1S498.3,276.3,498.3,276.5Z"/><path class="j" d="M366.7,304.9c-.2,0-.3-6.5-.3-14.5s.1-14.5.3-14.5.2,6.5.2,14.5S366.8,304.9,366.7,304.9Z"/><path class="j" d="M468,299.4c0,.1-22.8.1-50.8-.1s-50.8-.3-50.8-.5,22.7-.1,50.8,0S468,299.2,468,299.4Z"/><path class="j" d="M468,304.9c-.2,0-.3-6.1-.3-13.7s.1-13.6.3-13.6.2,6.1.2,13.6S468.1,304.9,468,304.9Z"/><path class="j" d="M476.5,331.9c-.1,0-.2-12.3-.2-27.6s.1-27.6.2-27.6.3,12.4.3,27.6S476.7,331.9,476.5,331.9Z"/><path class="j" d="M422.5,284.6a3.8,3.8,0,0,1-7.6,0,3.8,3.8,0,0,1,7.6,0Z"/><path class="af" d="M556.8,194.6l1.3,10.8,16.4-14,9,2.2S574.3,213,567,220.7s-11.3,8.8-14,8.9-5.6-4.5-5.6-4.5l-1.6-26.7Z"/><path class="ag" d="M558.1,205.1a7.3,7.3,0,0,0-1.2,2.7,8.4,8.4,0,0,0-.4,2.9c.2,0,.4-1.3.8-2.8S558.2,205.1,558.1,205.1Z"/><path class="ad" d="M576.1,164.1h12.4a3.2,3.2,0,0,1,2.8,4l-12.4,24.2a2.8,2.8,0,0,1-2.5,1.5h-15a2.1,2.1,0,0,1-1.7-3.1l12-23.7A5,5,0,0,1,576.1,164.1Z"/><path class="j" d="M577,165.6h12.3a2.1,2.1,0,0,1,1.9,3L579,192.3a2.7,2.7,0,0,1-2.5,1.5H561.7a1.3,1.3,0,0,1-1.1-1.8l11.9-23.7A5.2,5.2,0,0,1,577,165.6Z"/><path class="af" d="M578,175.5l7.5,3,1.6,6.1-3.6,9-13.3,1.9,3.9-4-.5-3.4s-3.7-1.2-3.8-1.8.5-2.4,1.1-2.5a29.4,29.4,0,0,1,4.4,1.3s-4.6-3.6-4.5-4.2.7-2.1,1.6-2.2,8.3,3.3,8.3,3.3l1.2,2.7,1.1-4.4S576.4,178.5,578,175.5Z"/><path class="ag" d="M577.1,189.7a1.5,1.5,0,0,0,.2-.8,3.4,3.4,0,0,0-.2-1.9,3.7,3.7,0,0,0-1.1-1.5c-.3-.4-.6-.5-.6-.4a5.3,5.3,0,0,1,1.3,2.1A9.5,9.5,0,0,1,577.1,189.7Z"/><path class="ag" d="M580.6,188.4c.1,0-.2-.8-.3-2a6.1,6.1,0,0,0-.3-2.2,4.1,4.1,0,0,0-.7-1.1,3.5,3.5,0,0,0-1.3-.8l-4.6-1.6-1.9-.5,1.9.8,4.5,1.7a2.2,2.2,0,0,1,1.7,1.7,8.4,8.4,0,0,1,.5,2A5.1,5.1,0,0,0,580.6,188.4Z"/><path class="ag" d="M582.4,187a4.3,4.3,0,0,0-.1-1.5,2.8,2.8,0,0,0-.4-1.4,3.2,3.2,0,0,0,0,1.5A3.6,3.6,0,0,0,582.4,187Z"/><path class="ac" d="M582.6,170.2a1.6,1.6,0,0,1-3.2,0,1.6,1.6,0,1,1,3.2,0Z"/><path class="ah" d="M582.5,440.2l-2.9-10.1-19.1,1,2.9,14.9h1.2c5.3,0,27-.3,30.5-1.6S582.5,440.2,582.5,440.2Z"/><path class="ah" d="M576,413.5l4.9-9.1-16.8-9.3-7.3,13.2,1,.6c4.5,2.8,23.1,14,26.7,14.8S576,413.5,576,413.5Z"/><path class="ai" d="M546.9,232.5l52.9,73.4a39.2,39.2,0,0,1,4.9,37l-25.1,65.3L556.2,396l19.7-61.3a3.8,3.8,0,0,0-1-3.8l-38.3-34.5-6-63.9Z"/><path class="aj" d="M558.3,440.4l25.4-3.6L560.5,333.3l-16-100.8H498.3l-2.4,29.8c.2,9.3,1.4,19,5.2,26.5L522,330.6C521.9,333.3,558.3,440.4,558.3,440.4Z"/><path class="ak" d="M543.4,158.3s9,2.6,12.3,13.4,3.7,23.3,3.7,23.3l-10.8,2.4Z"/><path class="ak" d="M559.4,249l-63.5,8.6,2.9-62.5-2.9,8-20.6-13.4,4.2-10c1.8-4.4,4.2-9.5,7-12.8a27,27,0,0,1,15.4-9.2c4.3-1,8.5-1.5,8.5-1.5l18.7.2c4.3,0,14.4,1.9,14.4,1.9Z"/><path class="al" d="M535.8,99.3c2.3-2.4,6.3-2.6,9.2-.9a11.5,11.5,0,0,1,4.9,8.3c.3,2.1-.4,4.9.7,6.7s2.5,3.5,3,4.8,1.1,8.5-2.2,10.4-29,18.8-33.7,14.4"/><path class="af" d="M534.9,158.5V146.9s8.3-1.4,10-12.2c.9-5.4.6-14.2.1-21.4s-4.6-14.7-13.3-14.7c0,0-18.9-1.4-19.8,13.1l-.4,46.7a11.7,11.7,0,0,0,11.8,11.8h0A11.6,11.6,0,0,0,534.9,158.5Z"/><path class="ag" d="M534.9,146.9a27,27,0,0,1-14.5-3.9s3.5,7.5,14.3,6.4Z"/><path class="al" d="M519.7,131.5c0,1.4.1,2.7,0,3.7-.1,3.5-2.6-2.2-5.7-.5s-8,2.3-9.8-6.8c-.6-2.9-3.7-2.8-4.8-6.8a9.9,9.9,0,0,1,.7-7.9,5.7,5.7,0,0,1,3.2-2.6,8.5,8.5,0,0,0,3.8-3.9,39.3,39.3,0,0,1,2.6-5,7,7,0,0,1,3.2-2.7,8.9,8.9,0,0,1,2.2-1.6c3.6-2,7.9-1.9,12-1.7s13-3.6,13.6,6.9a3.3,3.3,0,0,0-5.3.4,6.1,6.1,0,0,0-.9,4.5c.3,1.8.5,3.8-.4,5.3a5.2,5.2,0,0,1-4.8,2,15,15,0,0,1-5.2-1.6s-1.4,6.8-5.9,8.5Z"/><path class="af" d="M540.3,204.6l-6.4-6.2a7.5,7.5,0,0,0-5.8-1.2,7.2,7.2,0,0,0-4.6,3l-7.1,10.1-27.5,4.8s5.4-12.5,5.5-13l.6.4-.6-.4h0l-17-11-7.5,18.3s-7,18.6,7.4,24.1S524.5,221,524.5,221h0l4.1-3.1,2-1.7a7.4,7.4,0,0,0,2.6-4.8l.7-7.1,5.6,2.9c1,.5,1.3,0,1.4-.6A2.1,2.1,0,0,0,540.3,204.6Z"/><path class="ag" d="M533.9,204.8c.1,0,0-.3-.4-.8a3.5,3.5,0,0,0-1.7-1.4,2.1,2.1,0,0,0-2.2.5c-.4.4-.4.8-.3.8a1.4,1.4,0,0,1,.5-.6,2.4,2.4,0,0,1,1.9-.3,5.2,5.2,0,0,1,1.6,1.2Z"/><path class="ag" d="M529.1,207.5l.6-.4a3.4,3.4,0,0,1,1.6-.4,3,3,0,0,1,1.5.4l.6.4c.1,0,0-.3-.4-.6a2.9,2.9,0,0,0-1.7-.6,2.4,2.4,0,0,0-1.7.6A1.4,1.4,0,0,0,529.1,207.5Z"/><path class="af" d="M537.8,115.8H539a6.3,6.3,0,0,1,6.3,6.3v0a6.3,6.3,0,0,1-6.3,6.3h-1.1a0,0,0,0,1,0,0V115.8A0,0,0,0,1,537.8,115.8Z" transform="translate(1083.1 244.2) rotate(180)"/><rect class="af" x="541.1" y="125.1" width="9.5" height="15.45"/><polygon points="646.4 417.8 605.1 417.8 604.4 408.3 647.1 408.3 646.4 417.8"/><polygon class="am" points="645.7 427.4 605.8 427.4 605.1 417.8 646.4 417.8 645.7 427.4"/><polygon class="an" points="645 437 606.5 437 605.8 427.4 645.7 427.4 645 437"/><path class="ah" d="M300,187.3c5.7-1,10.8-1.7,16.5-2.6a.2.2,0,0,1,.2.2h0v15c.1.1,0,.2-.2.2l-17.1.2a.2.2,0,0,1-.2-.2V187.6l.2-.2Z"/><path class="ah" d="M285.2,189.4l12.2-1.7c.2,0,.3.1.3.2v12.2c0,.2-.1.2-.2.3l-12.9.2-.2-.2V189.7l.2-.2Z"/><path class="ah" d="M284.7,201.9h12.9l.2.2v12.3a.3.3,0,0,1-.3.3l-12.9-1.7c-.1,0-.1-.1-.1-.2V202.1Z"/><path class="ah" d="M300.1,201.9h16.6c.1,0,.2,0,.2.2v14.9c0,.2-.1.3-.3.2l-17.1-2.3a.2.2,0,0,1-.2-.2V202.1a.2.2,0,0,1,.2-.2Z"/><path class="ao" d="M300.6,200.1V187.3a.1.1,0,0,1,.1-.1h-1.2l-.2.2v12.5a.2.2,0,0,0,.2.2h1.3A.2.2,0,0,1,300.6,200.1Z"/><path class="ao" d="M285.8,200.3v-11h-1.1l-.2.2v10.7l.2.2h1.2Z"/><path class="ap" d="M297.7,201.8h0Z"/><path class="ao" d="M285.9,213.1v-11a.2.2,0,0,1,.2-.2h-1.3l-.2.2v10.6c0,.1,0,.2.1.2l1.2.2Z"/><path class="ao" d="M300.7,214.9V202.1a.2.2,0,0,1,.2-.2h-1.3a.2.2,0,0,0-.2.2v12.5a.2.2,0,0,0,.2.2l1.1.2Z"/><path class="ah" d="M421.3,213.3c5.7-1,10.8-1.7,16.5-2.6l.2.2h0l.2,15c0,.1-.1.2-.3.2l-17.1.2a.2.2,0,0,1-.2-.2V213.6l.2-.2Z"/><path class="ah" d="M406.5,215.4l12.2-1.7c.2,0,.3.1.3.2v12.2a.2.2,0,0,1-.2.2l-12.9.2c-.1,0-.2,0-.2-.2V215.7l.2-.2Z"/><path class="ah" d="M406,227.9h12.9l.2.2v12.3c0,.2-.1.3-.3.2L406,238.9c-.1,0-.1-.1-.1-.2V228.1C405.8,227.9,405.9,227.9,406,227.9Z"/><path class="ah" d="M421.4,227.9l16.6-.2a.2.2,0,0,1,.2.2v15c0,.1-.1.2-.3.2-5.6-.9-11.4-1.5-17.1-2.3l-.2-.2V228.1a.2.2,0,0,1,.2-.2Z"/><path class="ao" d="M421.9,226.1V213.3a.1.1,0,0,1,.1-.1h-1.2l-.2.2v12.5a.2.2,0,0,0,.2.2h1.3A.2.2,0,0,1,421.9,226.1Z"/><path class="ao" d="M407.1,226.3V215.4h-1.1l-.2.2v10.6c0,.2.1.2.2.2h1.3A.2.2,0,0,1,407.1,226.3Z"/><path class="ap" d="M419,227.8h0Z"/><path class="ao" d="M407.2,239V228.1l.2-.3H406c-.1,0-.2,0-.2.2v10.6c0,.1,0,.2.1.2Z"/><path class="ao" d="M422,240.9V228.1c0-.2.1-.2.2-.2h-1.3a.2.2,0,0,0-.2.2v12.5l.2.2,1.1.2Z"/><path class="ah" d="M211,227.5l7.7-1.2h.1v6.9h-8.1v-5.9h.3Z"/><path class="ah" d="M204.2,228.5l5.6-.8c.1,0,.1,0,.1.1v5.7h-6.2v-5h.4Z"/><path class="ah" d="M203.9,234.3H210V240c0,.1,0,.2-.1.1l-6-.7h0v-4.9Z"/><path class="ah" d="M211.1,234.3h7.7a.1.1,0,0,1,.1.1v6.9c0,.1-.1.2-.1.1l-8-1h-.1v-5.8h.4Z"/><path class="ao" d="M211.3,233.4v-5.9h-.6v5.9h.6Z"/><path class="ao" d="M204.4,233.5v-5h-.6v5h.6Z"/><path class="ap" d="M209.9,234.2Z"/><path class="ao" d="M204.5,239.4v-5h-.6v4.9h.6Z"/><path class="ao" d="M211.4,240.3v-5.9h-.6v5.8h.7Z"/></svg>