<svg xmlns="http://www.w3.org/2000/svg" xmlns:xlink="http://www.w3.org/1999/xlink" viewBox="0 0 720 525.9"><defs><style>.a{fill:url(#a);}.b{fill:#137fcf;}.c{fill:#288ed9;}.d,.e,.f,.m,.t,.v{fill:none;}.e,.f{stroke:#288ed9;}.e{stroke-width:0.37px;}.f,.m{stroke-linecap:round;stroke-miterlimit:10;stroke-width:1.46px;}.g{fill:url(#b);}.h{fill:#024679;}.i,.o{fill:#005b9f;}.i{opacity:0.57;isolation:isolate;}.j{opacity:0.5;}.k{fill:#1f364c;}.l{fill:#043c67;}.m{stroke:#1f364c;}.n{fill:#166eaf;}.p{fill:#21e2e2;}.q{fill:#ffbc98;}.r{fill:#0e71bb;}.s{fill:#52acea;}.t{stroke:#ffbc98;}.t,.v{stroke-width:0.73px;}.u{fill:#80c9ff;}.v{stroke:#21e2e2;}.w{fill:#d6eeff;}.x{fill:#fff;}.y{fill:#375a64;}.z{fill:#ffe7cb;}.aa{fill:#1a2e35;}.ab{opacity:0.2;}.ac{fill:#f0d2b9;}.ad{fill:#152735;}.ae{fill:#173d7a;}.af{fill:url(#c);}</style><linearGradient id="a" x1="1055" y1="386.13" x2="1054.99" y2="386.88" gradientTransform="matrix(740.56, 0, 0, -612.51, -780954.51, 237015.56)" gradientUnits="userSpaceOnUse"><stop offset="0" stop-color="#c6e6ff"/><stop offset="1" stop-color="#fff"/></linearGradient><linearGradient id="b" x1="1054.19" y1="387.91" x2="1054.19" y2="387.18" gradientTransform="matrix(531, 0, 0, -95, -559528.46, 37189.44)" gradientUnits="userSpaceOnUse"><stop offset="0" stop-color="#288ed9"/><stop offset="1" stop-color="#137fcf" stop-opacity="0.05"/></linearGradient><linearGradient id="c" x1="518.43" y1="291.4" x2="546.1" y2="291.4" gradientUnits="userSpaceOnUse"><stop offset="0" stop-color="#ffbc98"/><stop offset="1" stop-color="#ff9f6c"/></linearGradient></defs><title>german dedicated server-cp</title><path class="a" d="M338.2,112.1c72.1,46,154.6,66.7,154.6,66.7s90.9,13.8,57.5,117.3-37.8,140.5-90.2,143.2c-49.7,1.4-77.6-19.1-126.8-15.6-43.2,3.3-72.9,22.8-145-5.6C72.6,367,81.2-50,338.2,112.1Z"/><rect class="b" x="128.6" y="349.6" width="12.1" height="12.09" rx="1.8"/><path class="c" d="M134.9,352.8a3,3,0,0,1,2.9,3,3,3,0,0,1-5.9,0A3,3,0,0,1,134.9,352.8Z"/><circle class="d" cx="134.9" cy="355.8" r="4"/><circle class="e" cx="134.9" cy="355.8" r="3.8"/><path class="f" d="M174.1,343.3H151.8c-3.1,0-4.5,1.7-4.4,4.7v15.5c0,2.9-1.7,3.8-4.8,3.8h-4.2a3.4,3.4,0,0,1-3.7-3.2v-5.5"/><ellipse class="g" cx="248.4" cy="390.3" rx="97.1" ry="17.4"/><rect class="h" x="172.5" y="261.4" width="68.8" height="128.74" rx="3.7"/><path class="i" d="M176.5,261.4h33V390.1h-33a3.6,3.6,0,0,1-3.6-3.6V265.1A3.6,3.6,0,0,1,176.5,261.4Z"/><g class="j"><rect class="k" x="191.5" y="269.5" width="31.1" height="1.1"/><rect class="k" x="191.5" y="272.4" width="31.1" height="1.1"/><rect class="k" x="191.5" y="275.3" width="31.1" height="1.1"/><rect class="k" x="191.5" y="278.2" width="31.1" height="1.1"/><rect class="k" x="191.5" y="281.2" width="31.1" height="1.1"/></g><g class="j"><rect class="k" x="191.2" y="372.6" width="31.1" height="1.1"/><rect class="k" x="191.2" y="375.5" width="31.1" height="1.1"/><rect class="k" x="191.2" y="378.4" width="31.1" height="1.1"/><rect class="k" x="191.2" y="381.4" width="31.1" height="1.1"/></g><rect class="l" x="191.2" y="290.7" width="36.6" height="67.66"/><path class="m" d="M209.4,297.2v8a2.2,2.2,0,0,0,2.4,2.4h2.4c1.5,0,2,1,2,2.6v47.2"/><path class="m" d="M206.9,299.5V303a2.2,2.2,0,0,0,2.4,2.4h2.4c1.5,0,2,1,2,2.7v49.3"/><path class="m" d="M213.9,295.9v6.4a1.9,1.9,0,0,0,2.1,2.1h3.8c1.3,0,1.7.8,1.7,2.3v2.5"/><path class="m" d="M227.6,295.4H211.8q-2.6,0-2.4,2.4v2.4"/><path class="m" d="M206.9,300.5v-2.4q.2-2.4-2.4-2.4H192.1"/><path class="m" d="M197.1,295.6v31.6c0,1.7.9,2.5,2.4,2.4h2.4c1.5,0,2,1,2,2.7v25h0"/><path class="m" d="M199.4,295.7v10.2c0,1.7.9,2.5,2.4,2.4h2.4c1.5,0,2,1,2,2.7v21.4"/><path class="m" d="M201.7,295.9V336c0,1.7.9,2.5,2.4,2.4h2.4c1.5,0,2,1,2,2.7v16.3"/><rect class="n" x="178.9" y="320.5" width="6.6" height="24.75" rx="3.3"/><path class="o" d="M181.7,337.4v-8.6a1.6,1.6,0,0,1,1.6-1.6h0a1.6,1.6,0,0,1,1.6,1.6v8.6a1.6,1.6,0,0,1-1.6,1.6h0A1.6,1.6,0,0,1,181.7,337.4Z"/><path class="p" d="M202.4,366.5h0a1.2,1.2,0,0,1,1.2,1.2h0a1.2,1.2,0,0,1-1.2,1.2h0a1.2,1.2,0,0,1-1.2-1.2h0A1.2,1.2,0,0,1,202.4,366.5Z"/><path class="q" d="M205.9,366.5h0a1.2,1.2,0,0,1,1.2,1.2h0a1.2,1.2,0,0,1-1.2,1.2h0a1.2,1.2,0,0,1-1.2-1.2h0A1.2,1.2,0,0,1,205.9,366.5Z"/><path class="c" d="M209.3,366.5h0a1.2,1.2,0,0,1,1.3,1.2h0a1.2,1.2,0,0,1-1.3,1.2h0a1.2,1.2,0,0,1-1.2-1.2h0A1.2,1.2,0,0,1,209.3,366.5Z"/><path class="b" d="M212.9,366.5h0a1.2,1.2,0,0,1,1.2,1.2h0a1.2,1.2,0,0,1-1.2,1.2h0a1.2,1.2,0,0,1-1.2-1.2h0A1.2,1.2,0,0,1,212.9,366.5Z"/><path class="c" d="M216.3,366.5h0a1.2,1.2,0,0,1,1.2,1.2h0a1.2,1.2,0,0,1-1.2,1.2h0a1.2,1.2,0,0,1-1.2-1.2h0A1.2,1.2,0,0,1,216.3,366.5Z"/><rect class="p" x="177.3" y="303.7" width="2.5" height="2.61" rx="1.3"/><rect class="q" x="181" y="303.7" width="2.5" height="2.61" rx="1.3"/><rect class="c" x="177.3" y="307.1" width="2.5" height="2.61" rx="1.3"/><rect class="b" x="181" y="307.1" width="2.5" height="2.61" rx="1.3"/><rect class="c" x="184.5" y="307.1" width="2.5" height="2.61" rx="1.3"/><rect class="c" x="184.5" y="303.7" width="2.5" height="2.61" rx="1.3"/><rect class="p" x="177.3" y="310.4" width="2.5" height="2.61" rx="1.3"/><rect class="c" x="181" y="310.4" width="2.5" height="2.61" rx="1.3"/><rect class="c" x="177.3" y="313.8" width="2.5" height="2.61" rx="1.3"/><rect class="b" x="181" y="313.8" width="2.5" height="2.61" rx="1.3"/><rect class="c" x="184.5" y="313.8" width="2.5" height="2.61" rx="1.3"/><rect class="c" x="184.5" y="310.4" width="2.5" height="2.61" rx="1.3"/><rect class="k" x="224.4" y="296.4" width="92.4" height="7.17"/><path class="r" d="M223.4,277.1h94.4c1.9,0,3.4,1.1,3.4,2.4v15.7c0,1.3-1.5,2.4-3.4,2.4H223.4c-1.8,0-3.3-1.1-3.3-2.4V279.5C220.1,278.2,221.6,277.1,223.4,277.1Z"/><path class="o" d="M221.5,277.1h32.7v20.5H221.5a1.4,1.4,0,0,1-1.4-1.4V278.5A1.4,1.4,0,0,1,221.5,277.1Z"/><path class="s" d="M283.8,284.4h0a1,1,0,0,1,1,1.1h0a1,1,0,0,1-1,1.1h0a1.1,1.1,0,0,1-1.1-1.1h0A1.1,1.1,0,0,1,283.8,284.4Z"/><path class="p" d="M286.3,288.7h0a1.1,1.1,0,0,1,1.1,1.1h0a1.1,1.1,0,0,1-1.1,1.1h0a1,1,0,0,1-1-1.1h0A1,1,0,0,1,286.3,288.7Z"/><path class="s" d="M288.1,284.4h0a1.1,1.1,0,0,1,1,1.1h0a1.1,1.1,0,0,1-1,1.1h0a1.1,1.1,0,0,1-1.1-1.1h0A1.1,1.1,0,0,1,288.1,284.4Z"/><path class="s" d="M290.6,288.7h0a1.1,1.1,0,0,1,1.1,1.1h0a1.1,1.1,0,0,1-1.1,1.1h0a1,1,0,0,1-1-1.1h0A1,1,0,0,1,290.6,288.7Z"/><path class="q" d="M292.3,284.4h0a1.1,1.1,0,0,1,1.1,1.1h0a1.1,1.1,0,0,1-1.1,1.1h0a1,1,0,0,1-1-1.1h0A1,1,0,0,1,292.3,284.4Z"/><path class="s" d="M294.9,288.7h0a1.1,1.1,0,0,1,1.1,1.1h0a1.1,1.1,0,0,1-1.1,1.1h0a1.1,1.1,0,0,1-1.1-1.1h0A1.1,1.1,0,0,1,294.9,288.7Z"/><path class="s" d="M296.6,284.4h0a1.1,1.1,0,0,1,1.1,1.1h0a1.1,1.1,0,0,1-1.1,1.1h0a1.1,1.1,0,0,1-1.1-1.1h0A1.1,1.1,0,0,1,296.6,284.4Z"/><path class="p" d="M299.2,288.7h0a1.1,1.1,0,0,1,1.1,1.1h0a1.1,1.1,0,0,1-1.1,1.1h0a1.1,1.1,0,0,1-1.1-1.1h0A1.1,1.1,0,0,1,299.2,288.7Z"/><path class="s" d="M300.9,284.4h0a1.1,1.1,0,0,1,1.1,1.1h0a1.1,1.1,0,0,1-1.1,1.1h0a1.1,1.1,0,0,1-1.1-1.1h0A1.1,1.1,0,0,1,300.9,284.4Z"/><path class="s" d="M303.5,288.7h0a1,1,0,0,1,1,1.1h0a1,1,0,0,1-1,1.1h0a1.1,1.1,0,0,1-1.1-1.1h0A1.1,1.1,0,0,1,303.5,288.7Z"/><circle class="d" cx="311" cy="287.5" r="1.8"/><circle class="t" cx="311" cy="287.5" r="1.5"/><path class="s" d="M278.8,283.6h0a.9.9,0,0,1,.8.8v6.1a.8.8,0,0,1-.8.8h0a.7.7,0,0,1-.8-.8v-6.1A.8.8,0,0,1,278.8,283.6Z"/><path class="s" d="M275.5,283.6h0a.8.8,0,0,1,.8.8v6.1a.7.7,0,0,1-.8.8h0a.8.8,0,0,1-.8-.8v-6.1A.9.9,0,0,1,275.5,283.6Z"/><rect class="o" x="259.3" y="283.6" width="13" height="3.24"/><rect class="o" x="259.3" y="288.1" width="13" height="3.24"/><path class="q" d="M278,285.2h1.6v5.3a.8.8,0,0,1-.8.8h0a.7.7,0,0,1-.8-.8v-5.3Z"/><path class="p" d="M274.7,288.3h1.6v2.2a.7.7,0,0,1-.8.8h0a.8.8,0,0,1-.8-.8h0v-2.2Z"/><rect class="u" x="259.3" y="283.6" width="3.2" height="3.24"/><rect class="u" x="259.3" y="288.1" width="3.2" height="3.24"/><rect class="c" x="264.2" y="284.8" width="6.5" height="0.81"/><rect class="c" x="264.2" y="289.3" width="6.5" height="0.81"/><circle class="d" cx="311" cy="287.5" r="3.8"/><circle class="v" cx="311" cy="287.5" r="3.5"/><path class="c" d="M245,290.2h0a1.3,1.3,0,0,1,1.3,1.4h0A1.3,1.3,0,0,1,245,293h0a1.3,1.3,0,0,1-1.4-1.3h0A1.4,1.4,0,0,1,245,290.2Z"/><path class="b" d="M245,282.4h0a.7.7,0,0,1,.7.6v5.3a.7.7,0,0,1-.7.6h0a.6.6,0,0,1-.6-.6V283A.6.6,0,0,1,245,282.4Z"/><path class="w" d="M240.9,290.2h0a1.4,1.4,0,0,1,1.4,1.4h0a1.3,1.3,0,0,1-1.4,1.3h0a1.3,1.3,0,0,1-1.3-1.3h0A1.3,1.3,0,0,1,240.9,290.2Z"/><path class="x" d="M241,284.8h0a.6.6,0,0,1,.6.6v2.9a.6.6,0,0,1-.6.6h0a.6.6,0,0,1-.6-.6v-2.9A.6.6,0,0,1,241,284.8Z"/><path class="c" d="M236.9,290.2h0a1.3,1.3,0,0,1,1.3,1.4h0a1.3,1.3,0,0,1-1.3,1.3h0a1.3,1.3,0,0,1-1.4-1.3h0A1.4,1.4,0,0,1,236.9,290.2Z"/><path class="b" d="M236.9,281.5h0a.7.7,0,0,1,.7.6v6.2a.7.7,0,0,1-.7.6h0a.6.6,0,0,1-.6-.6v-6.2A.6.6,0,0,1,236.9,281.5Z"/><path class="q" d="M232.8,290.2h0a1.4,1.4,0,0,1,1.4,1.4h0a1.3,1.3,0,0,1-1.4,1.3h0a1.3,1.3,0,0,1-1.3-1.3h0A1.3,1.3,0,0,1,232.8,290.2Z"/><path class="q" d="M232.9,283h0a.6.6,0,0,1,.6.6v4.7a.6.6,0,0,1-.6.6h0a.6.6,0,0,1-.6-.6v-4.7A.6.6,0,0,1,232.9,283Z"/><path class="p" d="M228.8,290.2h0a1.3,1.3,0,0,1,1.3,1.4h0a1.3,1.3,0,0,1-1.3,1.3h0a1.3,1.3,0,0,1-1.4-1.3h0A1.4,1.4,0,0,1,228.8,290.2Z"/><path class="p" d="M228.9,285.6h0a.7.7,0,0,1,.6.7v2a.6.6,0,0,1-.6.6h0a.7.7,0,0,1-.7-.6v-2A.7.7,0,0,1,228.9,285.6Z"/><rect class="k" x="224.4" y="321" width="92.4" height="7.17"/><path class="r" d="M223.4,301.6h94.4c1.9,0,3.4,1.1,3.4,2.4v15.7c0,1.3-1.5,2.4-3.4,2.4H223.4c-1.8,0-3.3-1.1-3.3-2.4V304C220.1,302.7,221.6,301.6,223.4,301.6Z"/><path class="o" d="M221.5,301.6h32.7v20.5H221.5a1.4,1.4,0,0,1-1.4-1.4V303A1.4,1.4,0,0,1,221.5,301.6Z"/><path class="s" d="M283.8,308.9h0a1,1,0,0,1,1,1.1h0a1,1,0,0,1-1,1.1h0a1.1,1.1,0,0,1-1.1-1.1h0A1.1,1.1,0,0,1,283.8,308.9Z"/><path class="p" d="M286.3,313.2h0a1.1,1.1,0,0,1,1.1,1.1h0a1.1,1.1,0,0,1-1.1,1.1h0a1,1,0,0,1-1-1.1h0A1,1,0,0,1,286.3,313.2Z"/><path class="s" d="M288.1,308.9h0a1.1,1.1,0,0,1,1,1.1h0a1.1,1.1,0,0,1-1,1.1h0A1.1,1.1,0,0,1,287,310h0A1.1,1.1,0,0,1,288.1,308.9Z"/><path class="s" d="M290.6,313.2h0a1.1,1.1,0,0,1,1.1,1.1h0a1.1,1.1,0,0,1-1.1,1.1h0a1,1,0,0,1-1-1.1h0A1,1,0,0,1,290.6,313.2Z"/><path class="q" d="M292.3,308.9h0a1.1,1.1,0,0,1,1.1,1.1h0a1.1,1.1,0,0,1-1.1,1.1h0a1,1,0,0,1-1-1.1h0A1,1,0,0,1,292.3,308.9Z"/><path class="s" d="M294.9,313.2h0a1.1,1.1,0,0,1,1.1,1.1h0a1.1,1.1,0,0,1-1.1,1.1h0a1.1,1.1,0,0,1-1.1-1.1h0A1.1,1.1,0,0,1,294.9,313.2Z"/><path class="s" d="M296.6,308.9h0a1.1,1.1,0,0,1,1.1,1.1h0a1.1,1.1,0,0,1-1.1,1.1h0a1.1,1.1,0,0,1-1.1-1.1h0A1.1,1.1,0,0,1,296.6,308.9Z"/><path class="p" d="M299.2,313.2h0a1.1,1.1,0,0,1,1.1,1.1h0a1.1,1.1,0,0,1-1.1,1.1h0a1.1,1.1,0,0,1-1.1-1.1h0A1.1,1.1,0,0,1,299.2,313.2Z"/><path class="s" d="M300.9,308.9h0A1.1,1.1,0,0,1,302,310h0a1.1,1.1,0,0,1-1.1,1.1h0a1.1,1.1,0,0,1-1.1-1.1h0A1.1,1.1,0,0,1,300.9,308.9Z"/><path class="s" d="M303.5,313.2h0a1,1,0,0,1,1,1.1h0a1,1,0,0,1-1,1.1h0a1.1,1.1,0,0,1-1.1-1.1h0A1.1,1.1,0,0,1,303.5,313.2Z"/><circle class="d" cx="311" cy="312" r="1.8"/><circle class="t" cx="311" cy="312" r="1.5"/><path class="s" d="M278.8,308.1h0a.9.9,0,0,1,.8.8V315a.8.8,0,0,1-.8.8h0a.7.7,0,0,1-.8-.8v-6.1A.8.8,0,0,1,278.8,308.1Z"/><path class="s" d="M275.5,308.1h0a.8.8,0,0,1,.8.8V315a.7.7,0,0,1-.8.8h0a.8.8,0,0,1-.8-.8v-6.1A.9.9,0,0,1,275.5,308.1Z"/><rect class="o" x="259.3" y="308.1" width="13" height="3.24"/><rect class="o" x="259.3" y="312.6" width="13" height="3.24"/><path class="q" d="M278,309.7h1.6V315a.8.8,0,0,1-.8.8h0a.7.7,0,0,1-.8-.8v-5.3Z"/><path class="p" d="M274.7,312.8h1.6V315a.7.7,0,0,1-.8.8h0a.8.8,0,0,1-.8-.8h0v-2.2Z"/><rect class="u" x="259.3" y="308.1" width="3.2" height="3.24"/><rect class="u" x="259.3" y="312.6" width="3.2" height="3.24"/><rect class="c" x="264.2" y="309.3" width="6.5" height="0.81"/><rect class="c" x="264.2" y="313.8" width="6.5" height="0.81"/><circle class="d" cx="311" cy="312" r="3.8"/><circle class="v" cx="311" cy="312" r="3.5"/><path class="c" d="M245,315.1h0a1.3,1.3,0,0,1,1.3,1.3h0a1.3,1.3,0,0,1-1.3,1.4h0a1.4,1.4,0,0,1-1.4-1.4h0A1.3,1.3,0,0,1,245,315.1Z"/><path class="b" d="M245,307.3h0c.4,0,.7.2.7.6v5.2a.7.7,0,0,1-.7.7h0a.7.7,0,0,1-.6-.7v-5.2A.6.6,0,0,1,245,307.3Z"/><path class="w" d="M240.9,315.1h0a1.3,1.3,0,0,1,1.4,1.3h0a1.4,1.4,0,0,1-1.4,1.4h0a1.3,1.3,0,0,1-1.3-1.4h0A1.3,1.3,0,0,1,240.9,315.1Z"/><path class="x" d="M241,309.7h0a.6.6,0,0,1,.6.6v2.8a.7.7,0,0,1-.6.7h0a.7.7,0,0,1-.6-.7v-2.8A.6.6,0,0,1,241,309.7Z"/><path class="c" d="M236.9,315.1h0a1.3,1.3,0,0,1,1.3,1.3h0a1.3,1.3,0,0,1-1.3,1.4h0a1.4,1.4,0,0,1-1.4-1.4h0A1.3,1.3,0,0,1,236.9,315.1Z"/><path class="b" d="M236.9,306.3h0a.7.7,0,0,1,.7.7v6.1a.7.7,0,0,1-.7.7h0a.7.7,0,0,1-.6-.7V307A.7.7,0,0,1,236.9,306.3Z"/><path class="q" d="M232.8,315.1h0a1.3,1.3,0,0,1,1.4,1.3h0a1.4,1.4,0,0,1-1.4,1.4h0a1.3,1.3,0,0,1-1.3-1.4h0A1.3,1.3,0,0,1,232.8,315.1Z"/><path class="q" d="M232.9,307.9h0a.6.6,0,0,1,.6.6v4.6a.7.7,0,0,1-.6.7h0a.7.7,0,0,1-.6-.7v-4.6A.6.6,0,0,1,232.9,307.9Z"/><path class="p" d="M228.8,315.1h0a1.3,1.3,0,0,1,1.3,1.3h0a1.3,1.3,0,0,1-1.3,1.4h0a1.4,1.4,0,0,1-1.4-1.4h0A1.3,1.3,0,0,1,228.8,315.1Z"/><path class="p" d="M228.9,310.5h0a.6.6,0,0,1,.6.6v2a.7.7,0,0,1-.6.7h0a.7.7,0,0,1-.7-.7v-2A.7.7,0,0,1,228.9,310.5Z"/><rect class="k" x="224.4" y="345.5" width="92.4" height="7.17"/><path class="r" d="M223.4,326.1h94.4c1.9,0,3.4,1.1,3.4,2.4v15.7c0,1.4-1.5,2.4-3.4,2.4H223.4c-1.8,0-3.3-1-3.3-2.4V328.5C220.1,327.2,221.6,326.1,223.4,326.1Z"/><path class="o" d="M221.5,326.1h32.7v20.5H221.5a1.4,1.4,0,0,1-1.4-1.4V327.5A1.4,1.4,0,0,1,221.5,326.1Z"/><path class="s" d="M283.8,333.4h0a1,1,0,0,1,1,1.1h0a1,1,0,0,1-1,1.1h0a1.1,1.1,0,0,1-1.1-1.1h0A1.1,1.1,0,0,1,283.8,333.4Z"/><path class="p" d="M286.3,337.7h0a1.1,1.1,0,0,1,1.1,1.1h0a1.1,1.1,0,0,1-1.1,1.1h0a1,1,0,0,1-1-1.1h0A1,1,0,0,1,286.3,337.7Z"/><path class="s" d="M288.1,333.4h0a1.1,1.1,0,0,1,1,1.1h0a1.1,1.1,0,0,1-1,1.1h0a1.1,1.1,0,0,1-1.1-1.1h0A1.1,1.1,0,0,1,288.1,333.4Z"/><path class="s" d="M290.6,337.7h0a1.1,1.1,0,0,1,1.1,1.1h0a1.1,1.1,0,0,1-1.1,1.1h0a1,1,0,0,1-1-1.1h0A1,1,0,0,1,290.6,337.7Z"/><path class="q" d="M292.3,333.4h0a1.1,1.1,0,0,1,1.1,1.1h0a1.1,1.1,0,0,1-1.1,1.1h0a1,1,0,0,1-1-1.1h0A1,1,0,0,1,292.3,333.4Z"/><path class="s" d="M294.9,337.7h0a1.1,1.1,0,0,1,1.1,1.1h0a1.1,1.1,0,0,1-1.1,1.1h0a1.1,1.1,0,0,1-1.1-1.1h0A1.1,1.1,0,0,1,294.9,337.7Z"/><path class="s" d="M296.6,333.4h0a1.1,1.1,0,0,1,1.1,1.1h0a1.1,1.1,0,0,1-1.1,1.1h0a1.1,1.1,0,0,1-1.1-1.1h0A1.1,1.1,0,0,1,296.6,333.4Z"/><path class="p" d="M299.2,337.7h0a1.1,1.1,0,0,1,1.1,1.1h0a1.1,1.1,0,0,1-1.1,1.1h0a1.1,1.1,0,0,1-1.1-1.1h0A1.1,1.1,0,0,1,299.2,337.7Z"/><path class="s" d="M300.9,333.4h0a1.1,1.1,0,0,1,1.1,1.1h0a1.1,1.1,0,0,1-1.1,1.1h0a1.1,1.1,0,0,1-1.1-1.1h0A1.1,1.1,0,0,1,300.9,333.4Z"/><path class="s" d="M303.5,337.7h0a1,1,0,0,1,1,1.1h0a1,1,0,0,1-1,1.1h0a1.1,1.1,0,0,1-1.1-1.1h0A1.1,1.1,0,0,1,303.5,337.7Z"/><circle class="d" cx="311" cy="336.5" r="1.8"/><circle class="t" cx="311" cy="336.5" r="1.5"/><path class="s" d="M278.8,332.6h0a.9.9,0,0,1,.8.8v6.1a.8.8,0,0,1-.8.8h0a.7.7,0,0,1-.8-.8v-6.1A.8.8,0,0,1,278.8,332.6Z"/><path class="s" d="M275.5,332.6h0a.8.8,0,0,1,.8.8v6.1a.7.7,0,0,1-.8.8h0a.8.8,0,0,1-.8-.8v-6.1A.9.9,0,0,1,275.5,332.6Z"/><rect class="o" x="259.3" y="332.6" width="13" height="3.24"/><rect class="o" x="259.3" y="337.1" width="13" height="3.24"/><path class="q" d="M278,334.2h1.6v5.3a.8.8,0,0,1-.8.8h0a.7.7,0,0,1-.8-.8v-5.3Z"/><path class="p" d="M274.7,337.3h1.6v2.2a.7.7,0,0,1-.8.8h0a.8.8,0,0,1-.8-.8h0v-2.2Z"/><rect class="u" x="259.3" y="332.6" width="3.2" height="3.24"/><rect class="u" x="259.3" y="337.1" width="3.2" height="3.24"/><rect class="c" x="264.2" y="333.8" width="6.5" height="0.81"/><rect class="c" x="264.2" y="338.3" width="6.5" height="0.81"/><circle class="d" cx="311" cy="336.5" r="3.8"/><circle class="v" cx="311" cy="336.5" r="3.5"/><path class="c" d="M245,339.6h0a1.3,1.3,0,0,1,1.3,1.3v.2a1.3,1.3,0,0,1-1.3,1.3h0a1.3,1.3,0,0,1-1.4-1.3v-.2A1.3,1.3,0,0,1,245,339.6Z"/><path class="b" d="M245,331.8h0a.7.7,0,0,1,.7.6v5.3a.7.7,0,0,1-.7.6h0a.6.6,0,0,1-.6-.6v-5.3A.6.6,0,0,1,245,331.8Z"/><path class="w" d="M240.9,339.6h0a1.3,1.3,0,0,1,1.4,1.3v.2a1.3,1.3,0,0,1-1.4,1.3h0a1.3,1.3,0,0,1-1.3-1.3v-.2A1.3,1.3,0,0,1,240.9,339.6Z"/><path class="x" d="M241,334.2h0a.6.6,0,0,1,.6.6v2.9a.6.6,0,0,1-.6.6h0a.6.6,0,0,1-.6-.6v-2.9A.6.6,0,0,1,241,334.2Z"/><path class="c" d="M236.9,339.6h0a1.3,1.3,0,0,1,1.3,1.3v.2a1.3,1.3,0,0,1-1.3,1.3h0a1.3,1.3,0,0,1-1.4-1.3v-.2A1.3,1.3,0,0,1,236.9,339.6Z"/><path class="b" d="M236.9,330.9h0c.4,0,.7.2.7.6v6.2a.7.7,0,0,1-.7.6h0a.6.6,0,0,1-.6-.6v-6.2A.6.6,0,0,1,236.9,330.9Z"/><path class="q" d="M232.8,339.6h0a1.3,1.3,0,0,1,1.4,1.3v.2a1.3,1.3,0,0,1-1.4,1.3h0a1.3,1.3,0,0,1-1.3-1.3v-.2A1.3,1.3,0,0,1,232.8,339.6Z"/><path class="q" d="M232.9,332.4h0a.6.6,0,0,1,.6.6v4.7a.6.6,0,0,1-.6.6h0a.6.6,0,0,1-.6-.6V333A.6.6,0,0,1,232.9,332.4Z"/><path class="p" d="M228.8,339.6h0a1.3,1.3,0,0,1,1.3,1.3v.2a1.3,1.3,0,0,1-1.3,1.3h0a1.3,1.3,0,0,1-1.4-1.3v-.2A1.3,1.3,0,0,1,228.8,339.6Z"/><path class="p" d="M228.9,335h0a.6.6,0,0,1,.6.6v2.1a.6.6,0,0,1-.6.6h0a.7.7,0,0,1-.7-.6v-2.1A.7.7,0,0,1,228.9,335Z"/><rect class="k" x="224.4" y="370" width="92.4" height="7.17"/><path class="r" d="M223.4,350.6h94.4c1.9,0,3.4,1.1,3.4,2.4v15.7c0,1.4-1.5,2.5-3.4,2.5H223.4c-1.8,0-3.3-1.1-3.3-2.5V353C220.1,351.7,221.6,350.6,223.4,350.6Z"/><path class="o" d="M221.5,350.6h32.7v20.6H221.5a1.5,1.5,0,0,1-1.4-1.5V352A1.4,1.4,0,0,1,221.5,350.6Z"/><path class="s" d="M283.8,357.9h0a1,1,0,0,1,1,1.1h0a1,1,0,0,1-1,1.1h0a1.1,1.1,0,0,1-1.1-1.1h0A1.1,1.1,0,0,1,283.8,357.9Z"/><path class="p" d="M286.3,362.2h0a1.1,1.1,0,0,1,1.1,1.1h0a1.1,1.1,0,0,1-1.1,1.1h0a1,1,0,0,1-1-1.1h0A1,1,0,0,1,286.3,362.2Z"/><path class="s" d="M288.1,357.9h0a1.1,1.1,0,0,1,1,1.1h0a1.1,1.1,0,0,1-1,1.1h0A1.1,1.1,0,0,1,287,359h0A1.1,1.1,0,0,1,288.1,357.9Z"/><path class="s" d="M290.6,362.2h0a1.1,1.1,0,0,1,1.1,1.1h0a1.1,1.1,0,0,1-1.1,1.1h0a1,1,0,0,1-1-1.1h0A1,1,0,0,1,290.6,362.2Z"/><path class="q" d="M292.3,357.9h0a1.1,1.1,0,0,1,1.1,1.1h0a1.1,1.1,0,0,1-1.1,1.1h0a1,1,0,0,1-1-1.1h0A1,1,0,0,1,292.3,357.9Z"/><path class="s" d="M294.9,362.2h0a1.1,1.1,0,0,1,1.1,1.1h0a1.1,1.1,0,0,1-1.1,1.1h0a1.1,1.1,0,0,1-1.1-1.1h0A1.1,1.1,0,0,1,294.9,362.2Z"/><path class="s" d="M296.6,357.9h0a1.1,1.1,0,0,1,1.1,1.1h0a1.1,1.1,0,0,1-1.1,1.1h0a1.1,1.1,0,0,1-1.1-1.1h0A1.1,1.1,0,0,1,296.6,357.9Z"/><path class="p" d="M299.2,362.2h0a1.1,1.1,0,0,1,1.1,1.1h0a1.1,1.1,0,0,1-1.1,1.1h0a1.1,1.1,0,0,1-1.1-1.1h0A1.1,1.1,0,0,1,299.2,362.2Z"/><path class="s" d="M300.9,357.9h0A1.1,1.1,0,0,1,302,359h0a1.1,1.1,0,0,1-1.1,1.1h0a1.1,1.1,0,0,1-1.1-1.1h0A1.1,1.1,0,0,1,300.9,357.9Z"/><path class="s" d="M303.5,362.2h0a1,1,0,0,1,1,1.1h0a1,1,0,0,1-1,1.1h0a1.1,1.1,0,0,1-1.1-1.1h0A1.1,1.1,0,0,1,303.5,362.2Z"/><circle class="d" cx="311" cy="361" r="1.8"/><circle class="t" cx="311" cy="361" r="1.5"/><path class="s" d="M278.8,357.1h0a.9.9,0,0,1,.8.8V364a.8.8,0,0,1-.8.8h0a.7.7,0,0,1-.8-.8v-6.1A.8.8,0,0,1,278.8,357.1Z"/><path class="s" d="M275.5,357.1h0a.8.8,0,0,1,.8.8V364a.7.7,0,0,1-.8.8h0a.8.8,0,0,1-.8-.8v-6.1A.9.9,0,0,1,275.5,357.1Z"/><rect class="o" x="259.3" y="357.1" width="13" height="3.24"/><rect class="o" x="259.3" y="361.6" width="13" height="3.24"/><path class="q" d="M278,358.8h1.6V364a.8.8,0,0,1-.8.8h0a.7.7,0,0,1-.8-.8v-5.2Z"/><path class="p" d="M274.7,361.8h1.6V364a.7.7,0,0,1-.8.8h0a.8.8,0,0,1-.8-.8h0v-2.2Z"/><rect class="u" x="259.3" y="357.1" width="3.2" height="3.24"/><rect class="u" x="259.3" y="361.6" width="3.2" height="3.24"/><rect class="c" x="264.2" y="358.3" width="6.5" height="0.81"/><rect class="c" x="264.2" y="362.8" width="6.5" height="0.81"/><circle class="d" cx="311" cy="361" r="3.8"/><circle class="v" cx="311" cy="361" r="3.5"/><path class="c" d="M245,364.1h0a1.3,1.3,0,0,1,1.3,1.3v.2a1.3,1.3,0,0,1-1.3,1.3h0a1.3,1.3,0,0,1-1.4-1.3v-.2A1.3,1.3,0,0,1,245,364.1Z"/><path class="b" d="M245,356.3h0a.7.7,0,0,1,.7.6v5.3a.7.7,0,0,1-.7.6h0a.6.6,0,0,1-.6-.6v-5.3A.6.6,0,0,1,245,356.3Z"/><path class="w" d="M240.9,364.1h0a1.3,1.3,0,0,1,1.4,1.3v.2a1.3,1.3,0,0,1-1.4,1.3h0a1.3,1.3,0,0,1-1.3-1.3v-.2A1.3,1.3,0,0,1,240.9,364.1Z"/><path class="x" d="M241,358.7h0a.6.6,0,0,1,.6.6v2.9a.6.6,0,0,1-.6.6h0a.6.6,0,0,1-.6-.6v-2.9A.6.6,0,0,1,241,358.7Z"/><path class="c" d="M236.9,364.1h0a1.3,1.3,0,0,1,1.3,1.3v.2a1.3,1.3,0,0,1-1.3,1.3h0a1.3,1.3,0,0,1-1.4-1.3v-.2A1.3,1.3,0,0,1,236.9,364.1Z"/><path class="b" d="M236.9,355.4h0c.4,0,.7.2.7.6v6.2a.7.7,0,0,1-.7.6h0a.6.6,0,0,1-.6-.6V356A.6.6,0,0,1,236.9,355.4Z"/><path class="q" d="M232.8,364.1h0a1.3,1.3,0,0,1,1.4,1.3v.2a1.3,1.3,0,0,1-1.4,1.3h0a1.3,1.3,0,0,1-1.3-1.3v-.2A1.3,1.3,0,0,1,232.8,364.1Z"/><path class="q" d="M232.9,356.9h0a.6.6,0,0,1,.6.6v4.7a.6.6,0,0,1-.6.6h0a.6.6,0,0,1-.6-.6v-4.7A.6.6,0,0,1,232.9,356.9Z"/><path class="p" d="M228.8,364.1h0a1.3,1.3,0,0,1,1.3,1.3v.2a1.3,1.3,0,0,1-1.3,1.3h0a1.3,1.3,0,0,1-1.4-1.3v-.2A1.3,1.3,0,0,1,228.8,364.1Z"/><path class="p" d="M228.9,359.5h0a.6.6,0,0,1,.6.6v2.1a.6.6,0,0,1-.6.6h0a.7.7,0,0,1-.7-.6v-2.1A.7.7,0,0,1,228.9,359.5Z"/><path class="r" d="M223.4,375.1h94.4c1.9,0,3.4,1.1,3.4,2.4v15.7c0,1.4-1.5,2.5-3.4,2.5H223.4c-1.8,0-3.3-1.1-3.3-2.5V377.5C220.1,376.2,221.6,375.1,223.4,375.1Z"/><path class="o" d="M221.5,375.1h32.7v20.6H221.5a1.5,1.5,0,0,1-1.4-1.5V376.5A1.4,1.4,0,0,1,221.5,375.1Z"/><path class="s" d="M283.8,382.4h0a1,1,0,0,1,1,1.1h0a1,1,0,0,1-1,1.1h0a1.1,1.1,0,0,1-1.1-1.1h0A1.1,1.1,0,0,1,283.8,382.4Z"/><path class="p" d="M286.3,386.7h0a1.1,1.1,0,0,1,1.1,1.1h0a1.1,1.1,0,0,1-1.1,1.1h0a1,1,0,0,1-1-1.1h0A1,1,0,0,1,286.3,386.7Z"/><path class="s" d="M288.1,382.4h0a1.1,1.1,0,0,1,1,1.1h0a1.1,1.1,0,0,1-1,1.1h0a1.1,1.1,0,0,1-1.1-1.1h0A1.1,1.1,0,0,1,288.1,382.4Z"/><path class="s" d="M290.6,386.7h0a1.1,1.1,0,0,1,1.1,1.1h0a1.1,1.1,0,0,1-1.1,1.1h0a1,1,0,0,1-1-1.1h0A1,1,0,0,1,290.6,386.7Z"/><path class="q" d="M292.3,382.4h0a1.1,1.1,0,0,1,1.1,1.1h0a1.1,1.1,0,0,1-1.1,1.1h0a1,1,0,0,1-1-1.1h0A1,1,0,0,1,292.3,382.4Z"/><path class="s" d="M294.9,386.7h0a1.1,1.1,0,0,1,1.1,1.1h0a1.1,1.1,0,0,1-1.1,1.1h0a1.1,1.1,0,0,1-1.1-1.1h0A1.1,1.1,0,0,1,294.9,386.7Z"/><path class="s" d="M296.6,382.4h0a1.1,1.1,0,0,1,1.1,1.1h0a1.1,1.1,0,0,1-1.1,1.1h0a1.1,1.1,0,0,1-1.1-1.1h0A1.1,1.1,0,0,1,296.6,382.4Z"/><path class="p" d="M299.2,386.7h0a1.1,1.1,0,0,1,1.1,1.1h0a1.1,1.1,0,0,1-1.1,1.1h0a1.1,1.1,0,0,1-1.1-1.1h0A1.1,1.1,0,0,1,299.2,386.7Z"/><path class="s" d="M300.9,382.4h0a1.1,1.1,0,0,1,1.1,1.1h0a1.1,1.1,0,0,1-1.1,1.1h0a1.1,1.1,0,0,1-1.1-1.1h0A1.1,1.1,0,0,1,300.9,382.4Z"/><path class="s" d="M303.5,386.7h0a1,1,0,0,1,1,1.1h0a1,1,0,0,1-1,1.1h0a1.1,1.1,0,0,1-1.1-1.1h0A1.1,1.1,0,0,1,303.5,386.7Z"/><circle class="d" cx="311" cy="385.5" r="1.8"/><circle class="t" cx="311" cy="385.5" r="1.5"/><path class="s" d="M278.8,381.6h0a.9.9,0,0,1,.8.8v6.1a.8.8,0,0,1-.8.8h0a.7.7,0,0,1-.8-.8v-6.1A.8.8,0,0,1,278.8,381.6Z"/><path class="s" d="M275.5,381.6h0a.8.8,0,0,1,.8.8v6.1a.7.7,0,0,1-.8.8h0a.8.8,0,0,1-.8-.8v-6.1A.9.9,0,0,1,275.5,381.6Z"/><rect class="o" x="259.3" y="381.6" width="13" height="3.24"/><rect class="o" x="259.3" y="386.1" width="13" height="3.24"/><path class="q" d="M278,383.3h1.6v5.2a.8.8,0,0,1-.8.8h0a.7.7,0,0,1-.8-.8v-5.2Z"/><path class="p" d="M274.7,386.3h1.6v2.2a.7.7,0,0,1-.8.8h0a.8.8,0,0,1-.8-.8h0v-2.2Z"/><rect class="u" x="259.3" y="381.6" width="3.2" height="3.24"/><rect class="u" x="259.3" y="386.1" width="3.2" height="3.24"/><rect class="c" x="264.2" y="382.9" width="6.5" height="0.81"/><rect class="c" x="264.2" y="387.3" width="6.5" height="0.81"/><circle class="d" cx="311" cy="385.5" r="3.8"/><circle class="v" cx="311" cy="385.5" r="3.5"/><path class="c" d="M245,388.2h0a1.3,1.3,0,0,1,1.3,1.4h0A1.3,1.3,0,0,1,245,391h0a1.3,1.3,0,0,1-1.4-1.3h0A1.4,1.4,0,0,1,245,388.2Z"/><path class="b" d="M245,380.4h0a.7.7,0,0,1,.7.6v5.3a.7.7,0,0,1-.7.6h0a.6.6,0,0,1-.6-.6V381A.6.6,0,0,1,245,380.4Z"/><path class="w" d="M240.9,388.2h0a1.4,1.4,0,0,1,1.4,1.4h0a1.3,1.3,0,0,1-1.4,1.3h0a1.3,1.3,0,0,1-1.3-1.3h0A1.3,1.3,0,0,1,240.9,388.2Z"/><path class="x" d="M241,382.9h0a.6.6,0,0,1,.6.6v2.8a.6.6,0,0,1-.6.6h0a.6.6,0,0,1-.6-.6v-2.8A.6.6,0,0,1,241,382.9Z"/><path class="c" d="M236.9,388.2h0a1.3,1.3,0,0,1,1.3,1.4h0a1.3,1.3,0,0,1-1.3,1.3h0a1.3,1.3,0,0,1-1.4-1.3h0A1.4,1.4,0,0,1,236.9,388.2Z"/><path class="b" d="M236.9,379.5h0a.7.7,0,0,1,.7.6v6.2a.7.7,0,0,1-.7.6h0a.6.6,0,0,1-.6-.6v-6.2A.6.6,0,0,1,236.9,379.5Z"/><path class="q" d="M232.8,388.2h0a1.4,1.4,0,0,1,1.4,1.4h0a1.3,1.3,0,0,1-1.4,1.3h0a1.3,1.3,0,0,1-1.3-1.3h0A1.3,1.3,0,0,1,232.8,388.2Z"/><path class="q" d="M232.9,381h0a.6.6,0,0,1,.6.6v4.7a.6.6,0,0,1-.6.6h0a.6.6,0,0,1-.6-.6v-4.7A.6.6,0,0,1,232.9,381Z"/><path class="p" d="M228.8,388.2h0a1.3,1.3,0,0,1,1.3,1.4h0a1.3,1.3,0,0,1-1.3,1.3h0a1.3,1.3,0,0,1-1.4-1.3h0A1.4,1.4,0,0,1,228.8,388.2Z"/><path class="p" d="M228.9,383.7h0a.6.6,0,0,1,.6.6v2a.6.6,0,0,1-.6.6h0a.7.7,0,0,1-.7-.6v-2C228.2,383.9,228.5,383.7,228.9,383.7Z"/><path class="r" d="M468.6,204.1a5,5,0,0,0-5.8-3.4,12.8,12.8,0,0,1-2.8.7,7.3,7.3,0,0,1-2.3-.9,7.5,7.5,0,0,0-9.5,4.2,6.8,6.8,0,0,0-7.5.6,7,7,0,0,0-2.4,7.2,5.9,5.9,0,0,0-4.8,5.2,6.2,6.2,0,0,0,3.6,6.2,7,7,0,0,0-.1,6.3,6.9,6.9,0,0,0,5.1,3.6c4.3,5.9,24.1,8.7,31.1-.5a6.3,6.3,0,0,0,7-2.4,6.6,6.6,0,0,0-.1-7.5,5.5,5.5,0,0,0,4.7-3.8,6.9,6.9,0,0,0-1.2-6.2,9.1,9.1,0,0,0-5.5-3.4,7.2,7.2,0,0,0-3.2-4.8,6.9,6.9,0,0,0-5.8-.8"/><polygon class="y" points="460.6 345.7 458.1 424.7 454.4 424.7 455.1 345.9 460.6 345.7"/><polygon class="y" points="474.2 344.7 492.7 428.1 496.8 427.9 481.4 344.7 474.2 344.7"/><polygon class="y" points="439.9 345.7 418.3 428.1 413.5 427.9 433.8 345.3 439.9 345.7"/><path class="y" d="M492.5,263.9s20.2-1.2,18.2,22.2-3.2,47-10.7,55.1-83.1,8.4-89.4,1.7,12.1-6.3,15.6-6.3,24.8,2,31.7-16.2S463.1,262.7,492.5,263.9Z"/><path class="y" d="M493.8,263.9s15.5,3.1,14,19.3-5.5,44.4-13,51.6-36.9,8.8-52.8,7.8c-18.4-1.1-30.1-4.6-30.1-4.6s-3.4,2.1-2.3,3.5,10,7,53.6,6.1,40.6-7.4,42.4-14.4,5.7-44.5,5.1-52.8S506.1,265.3,493.8,263.9Z"/><path class="p" d="M400.8,423.1v-9.2l17.2-.2.2,13.5h-1.1c-4.7.3-24.1,1.3-27.3.3S400.8,423.1,400.8,423.1Z"/><path class="p" d="M440,423.1v-9.2l17.2-.2.2,13.5h-1c-4.8.3-24.2,1.3-27.4.3S440,423.1,440,423.1Z"/><path class="z" d="M406.6,234c-1.2,12-4.3,48.4,12.3,47.1,19.6-1.5,24.1-17,24.1-17l-3.8-13.9s-19.4,16.8-19.9,14.7c-2.7-11.1-2-26.4-1.5-31.9"/><path class="c" d="M493.7,277.1,490.1,260c-2.5-13.7-21.8-14.7-21.8-14.7l-15.2-.2s-10.1-.4-18.1,6.3-13.6,11.7-13.6,11.7l12.7,14.7,7.6-5,3.4,41.9,45,.5-5.8-38Z"/><path class="aa" d="M434.1,277.8c-.1.1-2.9-3.2-6.3-7.3s-6-7.5-5.9-7.6,3,3.1,6.3,7.3S434.3,277.7,434.1,277.8Z"/><polygon class="ab" points="444.9 311.4 444.3 301.8 487.6 301.8 489.3 310.1 444.9 311.4"/><path class="ab" d="M471.4,260.5c.2,5.9,1.7,11.8,1.9,17.7,0,1.8.1,3.8-.8,5.5s-5.1,3.8-8.3,4.5l-19.3,3.9,34.5-1.7Z"/><path class="z" d="M495.5,290.4c-.9-8.1-2-13.3-2-13.3l-17.6.3s1.5,8.9,1.1,11.2-34.5,3.5-43.3,3.6c-.5-.4-1.3.3-2-.3a7,7,0,0,1-1.5-1.9,9,9,0,0,1-1.2-2.7.9.9,0,0,0-1.7-.4c-.3.8.1,3.3,1.7,5.7s-2.7,1.2-4.3.8-6.7-1.6-7.2-1.2-.3,1.6,1.3,2,6.4,1.9,6.2,2.8-8.5-1.5-8.5-1.5-1.6-.8-2,.2,8.3,3.6,9.2,3.7a.5.5,0,0,1-.3,1c-.7-.2-8.2-2.5-8.8-.7s7.3,1.5,8.6,2.9-5.9-.8-6.3.6,2.8.7,7.1,1.3a112.5,112.5,0,0,0,13.3.5c9.9.5,45.1,1.3,52.7.7S495.9,293.2,495.5,290.4Z"/><path class="z" d="M417.6,236a47.4,47.4,0,0,1,.5-5.2l3.9-8s-1-1.7-3.1,1.9c-.9,1.6-4.2.9-3.6-1.6a3.2,3.2,0,0,1,5.9-1.2s1.3.1,1.4-.9-2.8-3.6-5.3-2.9a7.2,7.2,0,0,0-2.8,1.6s.5-8.5-.2-8.5-1.6.4-2.1,9.7c0,0-.3-7.3-.5-8.3s-1.4-1.6-1.5.8c-.1.3-.5,7.5-.5,7.5s-.8-4.8-.9-5.2-1.3-.9-1.4.5-.2,5.2-.2,5.2l-.6,13.1v.6"/><path class="z" d="M451.9,249.5c-.1-4.4-.3-8.9-.3-8.9s-6.4-.8-6.7-7.3.4-21.6.4-21.6l11.8-5.7,10.3,11.7v31.6a7.8,7.8,0,0,1-7.8,7.8h0A7.8,7.8,0,0,1,451.9,249.5Z"/><path class="ac" d="M451.6,240.6a15.8,15.8,0,0,0,8.5-2.8s-2,4.8-8.4,4.4Z"/><path class="r" d="M444.8,210.1a4.5,4.5,0,0,0-2,4.7,4.4,4.4,0,0,0,4,3.1,4.2,4.2,0,0,0,4.1-2.9,3.5,3.5,0,0,0,.8,4.1,4,4,0,0,0,4.3.7,5.2,5.2,0,0,0,2.9-3.4,4.5,4.5,0,0,0,1.9,3.7,4.7,4.7,0,0,0,4.1.7,4.8,4.8,0,0,0-2.1,4.3,4.7,4.7,0,0,0,3,3.8,4.3,4.3,0,0,0-1.6,5.2,4.3,4.3,0,0,0,5,2.2c2-.6,3.2-2.6,4-4.5a21.2,21.2,0,0,0-.1-16.4,18,18,0,0,0-12.3-10.5,16.3,16.3,0,0,0-15.4,4.5"/><path class="ad" d="M415.2,314.2a264.4,264.4,0,0,1,45.6-.6l-19.3,27.7H424.1l-3.7,79.5h-23l2.2-89.3a17.9,17.9,0,0,1,15.6-17.4Z"/><path class="k" d="M457.5,343.5s34.5,2.3,33.6-28.6c0,0-55.2-9.4-58.8,6.7-1.1,5.2,2,99.9,2,99.9h24.1"/><polygon class="ae" points="383.6 257.1 396.6 298 469 299.3 468.5 297.1 442.1 296.3 429.9 257.1 383.6 257.1"/><path class="x" d="M412.9,277.5c.5,1.8-.3,3.5-1.6,3.8s-2.8-.7-3.2-2.5.3-3.4,1.6-3.7S412.5,275.8,412.9,277.5Z"/><path class="af" d="M544.6,286.3a5.8,5.8,0,0,0-4-1.2v-1.3H518.4s-.7,14.6,10.5,15.2c5,.2,7.9-2.1,9.5-4.9a14.3,14.3,0,0,0,2.6.3,5.4,5.4,0,0,0,3.4-1,4.7,4.7,0,0,0,.2-7.1Zm-1.5,5.4c-.9.7-2.6.6-3.7.4a25,25,0,0,0,1.1-4.8,3.9,3.9,0,0,1,2.7.6,2.1,2.1,0,0,1,.7,1.8A2.2,2.2,0,0,1,543.1,291.7Z"/><polygon class="aa" points="564.3 298.2 337.3 298.2 337.3 305.1 349.5 305.1 343 427.9 346.5 427.9 352.9 305.1 551.9 304 556.5 427.6 560.3 427.8 555.4 305.1 564.3 305.1 564.3 298.2"/></svg>