<svg xmlns="http://www.w3.org/2000/svg" xmlns:xlink="http://www.w3.org/1999/xlink" viewBox="0 0 400 400"><defs><style>.a{isolation:isolate;}.b{fill:url(#a);}.c{fill:#97c6db;}.d,.m{opacity:0.25;mix-blend-mode:overlay;}.e{fill:url(#b);}.f{fill:url(#c);}.g{fill:url(#d);}.h,.w{mix-blend-mode:multiply;}.i{fill:url(#e);}.j{fill:#f9fbfc;}.k{fill:#1d262d;}.l{fill:#ffe7cb;}.n{fill:#0a0a0a;}.o{fill:#111114;}.p{fill:#314656;}.q{fill:#0a2033;}.r{fill:#288ed9;}.s{fill:#0e71bb;}.t{fill:#112b46;}.u{fill:url(#f);}.v{fill:url(#g);}.w{fill:#00409e;opacity:0.4;}.x{fill:#333;}.y{fill:#fff;}.z{fill:#c0c2c1;}.aa{fill:#e6e6e6;}.ab{fill:#000100;}.ac{fill:#fe9a0f;}.ad{fill:#e2810c;}.ae{fill:#dd7f10;}.af{fill:#ae4e32;}.ag{fill:#9e402b;}.ah{fill:#fe9b0e;}</style><linearGradient id="a" x1="12.51" y1="190.28" x2="387.68" y2="190.28" gradientUnits="userSpaceOnUse"><stop offset="0" stop-color="#c6e6ff"/><stop offset="1" stop-color="#fff"/></linearGradient><linearGradient id="b" x1="77.82" y1="263.38" x2="77.82" y2="304.7" gradientUnits="userSpaceOnUse"><stop offset="0" stop-color="#ffbc98"/><stop offset="1" stop-color="#ff9f6c"/></linearGradient><linearGradient id="c" x1="31.05" y1="289.64" x2="31.05" y2="310.22" xlink:href="#b"/><linearGradient id="d" x1="43.79" y1="255.09" x2="43.79" y2="301.84" xlink:href="#b"/><linearGradient id="e" x1="34.98" y1="327.67" x2="79.33" y2="327.67" xlink:href="#b"/><linearGradient id="f" x1="313.63" y1="275.95" x2="321.16" y2="275.95" gradientUnits="userSpaceOnUse"><stop offset="0" stop-color="#006c9d"/><stop offset="0" stop-color="#016499"/><stop offset="0" stop-color="#024f8f"/><stop offset="0" stop-color="#042d7e"/><stop offset="0" stop-color="#061472"/></linearGradient><linearGradient id="g" x1="200.1" y1="275.95" x2="207.63" y2="275.95" xlink:href="#f"/></defs><title>iran-advantage-linux-dedicated-servers</title><g class="a"><path class="b" d="M21,347.9s-26.9-40.5,15-98.8S50.8,153.3,85,85.8s120.2-75.4,158.6,3.7c10.4,21.5,47.2,76.1,72.9,92.1,20.8,12.9,69.7,22.5,71.2,100,.3,18-9.2,50.3-21.7,66.3Z"/><rect class="c" x="10.6" y="343.4" width="376.1" height="5.22"/><g class="d"><path d="M65,300.7c0,.1-.6,1.9-1.3,4.1a40.2,40.2,0,0,0-1.4,6.9h1a41.4,41.4,0,0,1,1.5-6.7l.8-2.8a12.6,12.6,0,0,0,.4-1.2l-1-.4Z"/><path d="M55.3,301.6v.6c.1,1,.3,3.3.3,5.8s0,2.9-.1,4.1h1a29.5,29.5,0,0,0,.2-4.2c0-3.4-.3-6.5-.3-6.5Z"/><path d="M49.9,308.8h0c0,.1.3.3.5.7a8.6,8.6,0,0,1,.5,2.3H52a17.7,17.7,0,0,0-.7-2.9,4.5,4.5,0,0,0-.6-.8l-.8.7Z"/></g><path class="e" d="M63.7,301.9s-5.6-7.1,3-21.8,26.2-18.2,27-16.3-9,5.6-11.7,16.9-3.1,17.5-6.5,20.9S67.5,306.3,63.7,301.9Z"/><path class="f" d="M52.2,303.3s-.6-8-14.9-12.4-28,3.9-27.4,5.6,9.2-1.7,17.7,4,12.5,9.5,16.7,9.7S52.4,308.5,52.2,303.3Z"/><path class="g" d="M60.9,298.1s9.6-10.3-1.6-26.8S23.7,253.7,22.9,256s9.6,6.6,13.6,19.5S42.8,295,47,298.7,56.7,303.6,60.9,298.1Z"/><g class="d"><path class="h" d="M66,299.7h-.2a.6.6,0,0,1-.4-.7c.3-.9,6.2-22.1,17.3-30.1a.4.4,0,0,1,.7.1.5.5,0,0,1-.1.7c-10.7,7.9-16.8,29.4-16.8,29.6A.7.7,0,0,1,66,299.7Z"/></g><g class="d"><path class="h" d="M54.8,297a.7.7,0,0,1-.5-.4,2.1,2.1,0,0,0-.1-.6c-.5-7.4-3.6-32.1-23.5-37.3a.6.6,0,0,1-.4-.7.4.4,0,0,1,.6-.4c20.7,5.4,23.9,30.7,24.4,38.3,0,.2,0,.4.1.4a.7.7,0,0,1-.4.7Z"/></g><g class="d"><path d="M48.1,306.9c-.2,0-.4-.2-1.2-1-9-8-17.6-11.9-25.6-11.3a.6.6,0,0,1-.6-.6.5.5,0,0,1,.5-.5c8.4-.6,17.2,3.4,26.4,11.6l.8.7.3.4c.1.2-.1.5-.4.6Z"/></g><path class="i" d="M70.4,343.7h-28a1.5,1.5,0,0,1-1.5-1.2l-5.9-28a2.3,2.3,0,0,1,2.3-2.8H77a2.4,2.4,0,0,1,2.2,3l-7.4,27.8A1.4,1.4,0,0,1,70.4,343.7Z"/><rect class="j" x="181.8" y="65.5" width="1.1" height="1.14"/><path class="j" d="M182.9,107.2h-1.1v-2.3h1.1Zm0-5.8h-1.1V99.1h1.1Zm0-5.8h-1.1V93.3h1.1Zm0-5.8h-1.1V87.5h1.1Zm0-5.8h-1.1V81.7h1.1Zm0-5.8h-1.1V75.9h1.1Zm0-5.8h-1.1V70.1h1.1Z"/><rect class="j" x="181.8" y="110.7" width="1.1" height="1.14"/><polygon class="k" points="265.1 200.3 203.9 200.3 203.9 196.9 263.1 196.9 291.5 144.8 294.6 146.5 265.1 200.3"/><path class="l" d="M167.1,89.8a31.2,31.2,0,0,1-4.1,10.4c-3.3,5.1-10.6,12.5-12.7,13.1s-3.7-1.1-6.9-2.7l-3.2-1.7-6.8-4L128.5,98a57.2,57.2,0,0,1,10.9-24.5c5.4-7,17.4-2.8,21.8.6S168,82.8,167.1,89.8Z"/><path class="m" d="M140,90.6c-.1,4.4,2.8,6.1,3.4,6.9s-3.3,4.8-5.1,3S140,90.6,140,90.6Z"/><polygon class="l" points="250 314.2 252.2 324.6 237.9 327.1 234.6 315.1 250 314.2"/><path class="n" d="M279.7,329.5l1,5.2-45.5,8.1-1-5.2s40.4-7.6,44.8-8Z"/><path class="o" d="M279,329.6c-4.4.4-44.8,8-44.8,8l1.5-12a.8.8,0,0,1,1-.8c10.7,2.1,14.4-2.5,15.4-4.3S277.3,329.2,279,329.6Z"/><path class="p" d="M172.1,246.9l-38,1.8c-45.5,1.7-36.2-42.3-36.2-42.3l43.5-.6s64.6-1,78.2,7.7,35.2,107.1,35.2,107.1l-21.7,6.1s-19.2-44.4-29.5-64.5c-4.2-8.2-7.2-14.3-7.5-15S188.9,246,172.1,246.9Z"/><path class="q" d="M142.7,205.8h-1.3l-43.5.6s-5.2,24.7,11.3,36.3c16.4-3.9,26.2-20.6,34.8-35.5Z"/><polygon class="l" points="196.1 316.7 196.1 326.7 180.6 326.7 180.6 317.1 196.1 316.7"/><path class="q" d="M196.1,247.2c-.5-1.4-7.2-1.2-24-.3l4.2,76.5,4.3-.2,15.5-.3H200l3.6-60.6C199.4,254,196.4,247.9,196.1,247.2Z"/><path class="n" d="M222.4,336.4v5.3H176.2v-5.2s41.1-.5,45.5-.1Z"/><path class="o" d="M221.7,336.4c-4.4-.4-45.5.1-45.5.1l3.5-11.6a.9.9,0,0,1,1.2-.6c10.2,3.9,14.6,0,15.9-1.6a1.1,1.1,0,0,1,1.2-.2C198.4,322.8,220.1,335.8,221.7,336.4Z"/><path class="l" d="M221.4,193.6H195.7s-38.7-6.2-46.2-10.9c-2.8-1.7-7.6-6.9-12.6-12.9l17.5-14.5c3.1,4.8,5.8,8.8,7,9.2,3,1.1,31.8,17.2,35.2,17.2S215.8,181.4,221.4,193.6Z"/><path class="r" d="M155.6,154.9l-18.7,14.9c-8.4-10.1-17.3-22.3-17.3-22.3l26.5-15.9S152.9,147.7,155.6,154.9Z"/><path class="m" d="M155.6,154.9l-18.7,14.9c-8.4-10.1-17.3-22.3-17.3-22.3l26.5-15.9S152.9,147.7,155.6,154.9Z"/><path class="r" d="M139.6,118.2l-19.1-7.5s-22.8,2.7-24.4,57.6c-.3,10.6-.2,69.3,3,70.8,12.9,6,46.1-33.3,46.1-33.3s-.3-13.9,0-15.2l-2-.9c-3.4-2-9.7-10.4-15.9-19.5L147,154.9l2.3,3.6C149.8,129.2,139.6,118.2,139.6,118.2Z"/><path class="m" d="M145.2,190.6l-2-.9c-3.4-2-9.7-10.4-15.9-19.5l9.6-7.5-9.6-14.3L109.9,137v7.8s7.4,20.3,16.3,36.2c4.8,8.7,12.8,12.9,19.1,15C145.2,193.3,145.1,191.1,145.2,190.6Z"/><path class="l" d="M201.4,187.5s-40.5-16.5-43.2-17.1c-.9-.2-3.9-4.3-7.5-9.8-.8-1.2-3-4.5-3.7-5.7l-19.7,15.3c6.2,9.1,12.5,17.5,15.9,19.5l2,.9h0c11.8,4.4,54.1,6.4,54.9,6.7s5.1,1.3,8.3.4a10.6,10.6,0,0,0,4-1.9c2.8-2.1,7,.9,9,2.3s4.1,1,5,0C224.3,185.9,201.4,187.5,201.4,187.5Z"/><polygon class="l" points="144 109.4 143.4 110.6 142.2 113.1 142 113.5 139.6 118.2 120.5 110.7 128.5 98 141.2 107.3 144 109.4"/><path class="r" d="M109.9,144.8l19.9,30.7,22.8-13.1s-6.2-23.9-12.2-37c-3.8-8.2-14.5-12.3-25-5.8S106.5,138.7,109.9,144.8Z"/><path class="s" d="M147.5,89.7c-.8-3.3-3.8-6.4-6.5-1.9a9.4,9.4,0,0,0-1.1,3.7c-.5,4.6-5.9,6.6-9.9,6.9h-1.9s1-7.7,3.2-16.8,7.4-18.6,14.8-14.8c0,0,6.8-3.2,11,2,0,0,7-2.5,10.7,3.2,0,0,9.8,1.8,11.7,8,2.3,7.8-8.6,9.7-12.2,7.5s-6.4-6.4-8.9-6.4-2,4-2.4,6.4-4-.1-5.6,3.1-2.4,5-3.3,4.4S147.5,89.7,147.5,89.7Z"/><path class="m" d="M143.4,110.6l-1.2,2.5a9.4,9.4,0,0,1-3.9-7.3S139.5,108.3,143.4,110.6Z"/><path class="t" d="M71.1,154.9v.3c0,.2,0,.2.1.3s.1,1,.2,1.9c1.1,7,4.8,30.7,8.2,52.8l6.7,42.4,6.9-1.1s-.3-1.5-.7-4.1c-1.4-9.2-5-32.3-8.3-53.1-1.6-10.4-3.2-20.3-4.3-27.6-.6-3.7-1-6.7-1.4-8.8s-.3-1.9-.3-2.5a1.8,1.8,0,0,1-.1-.6v-.2h0l-2.1.2h2.1l-2.1.2h2.1l-3.3.2h3.3v-.2l-3.3.2H71.1Z"/><path class="q" d="M133.6,262h6.3a1.1,1.1,0,0,1,1.1,1.1v81.3a0,0,0,0,1,0,0h-8.4a0,0,0,0,1,0,0V263.1A1.1,1.1,0,0,1,133.6,262Z" transform="translate(273.6 606.3) rotate(180)"/><path class="q" d="M133.6,324.1h6.3a1.1,1.1,0,0,1,1.1,1.1v19.2a0,0,0,0,1,0,0h-8.4a0,0,0,0,1,0,0V325.2A1.1,1.1,0,0,1,133.6,324.1Z" transform="translate(273.6 668.4) rotate(180)"/><path class="t" d="M117.7,263.2h38.1a4.1,4.1,0,0,1,4.1,4.1v2.9a0,0,0,0,1,0,0H113.6a0,0,0,0,1,0,0v-2.9A4.1,4.1,0,0,1,117.7,263.2Z" transform="translate(273.6 533.4) rotate(180)"/><rect class="s" x="85.5" y="247" width="102.7" height="16.41" rx="4.8" transform="translate(273.6 510.3) rotate(180)"/><path class="q" d="M93.1,339.4a4.9,4.9,0,1,0,4.9-4.9A4.9,4.9,0,0,0,93.1,339.4Z"/><circle class="q" cx="175.6" cy="339.4" r="4.9"/><rect class="t" x="128.3" y="317.8" width="16.9" height="14.81" transform="translate(273.6 650.5) rotate(180)"/><path class="s" d="M93.1,329.2h87.4a0,0,0,0,1,0,0v3.2a3.7,3.7,0,0,1-3.7,3.7h-80a3.7,3.7,0,0,1-3.7-3.7v-3.2A0,0,0,0,1,93.1,329.2Z" transform="translate(273.6 665.3) rotate(180)"/><path class="s" d="M69,160.7l3.8,27.5a7,7,0,0,0,8,6.1,7.2,7.2,0,0,0,6.2-8l-3.8-27.5a7.1,7.1,0,0,0-8-6.2,7.3,7.3,0,0,0-6.2,8.1"/><rect class="u" x="313.6" y="208.5" width="7.5" height="134.85"/><rect class="v" x="200.1" y="208.5" width="7.5" height="134.85"/><rect class="s" x="194.4" y="200.1" width="134.3" height="9.42"/><path class="w" d="M300.2,353.3c0-1.2,13.7-6.9,14.9-16.5,2.1-16.7-1.6-40.1-1.5-44.2,13.3-7.9,14.2,56.1,24.1,56.1,17,0,24.4,4.4,24.2,9.7-.3,6.8-19.5,9-35.8,8.5C312.7,366.4,300.2,361.1,300.2,353.3Z"/><path class="x" d="M350,317.7a17.8,17.8,0,0,1-5.5-16.3,24.4,24.4,0,0,0,.1-2.7,13,13,0,0,0-26,.7,16.3,16.3,0,0,0,.3,3.1,17.8,17.8,0,0,1-4.1,16.7,24.7,24.7,0,0,0-6.9,17c0,15.2,5.9,22.5,14.4,24.8a19.6,19.6,0,0,1,7.9-1.4,20.4,20.4,0,0,1,7.6,1.3c10.4-2.1,15.4-7.2,18.9-18.9C359.4,332.6,355.1,322.3,350,317.7Z"/><path d="M350,317.7a17.8,17.8,0,0,1-5.5-16.3,24.4,24.4,0,0,0,.1-2.7A13.1,13.1,0,0,0,332,286.3h-1.8v73.2a19.3,19.3,0,0,1,8.5,1.7c9.9-1.5,14.6-7.9,18-19.3C359.4,332.6,355.1,322.3,350,317.7Z"/><path class="y" d="M313.4,339.3c0-9.9,8-32.9,17.8-32.9s17.7,23.1,17.7,32.9a17.8,17.8,0,0,1-35.5,0Z"/><path class="z" d="M331.2,306.4h-1V357h1a17.7,17.7,0,0,0,17.7-17.7C348.9,329.5,341,306.4,331.2,306.4Z"/><ellipse class="aa" cx="324.6" cy="301.4" rx="2.9" ry="4"/><ellipse class="ab" cx="324.6" cy="302.3" rx="1.4" ry="2.6"/><ellipse class="aa" cx="335" cy="301.4" rx="2.9" ry="4"/><ellipse class="ab" cx="335" cy="302.3" rx="1.4" ry="2.6"/><path class="ac" d="M338.9,308.2c1,2-6.3,5.9-8.8,5.9s-9.7-4.7-8.8-5.9,5.3-6,8.4-6S338.3,306.8,338.9,308.2Z"/><path class="ad" d="M338.9,308.2c-.6-1.3-6.2-5.3-8.7-5.9v11.8C332.8,314,339.9,310.2,338.9,308.2Z"/><path class="ae" d="M350,339.9c1.3,2.5,3.2,4.9,5.7,5.4a4.5,4.5,0,0,1,3.4,3.8,2.2,2.2,0,0,0,.1.8,9.4,9.4,0,0,0,2,4.4,3.2,3.2,0,0,1-1.9,5.1L340.7,363a4.8,4.8,0,0,1-5-7.2L346,339.7A2.3,2.3,0,0,1,350,339.9Z"/><path class="af" d="M330.1,312.9c-2.7,0-5.4-1.2-8.1-3.8l1-.9c2.6,2.5,5.3,3.7,7.8,3.4a8.8,8.8,0,0,0,5.5-3.3l1.1.7c-.1.1-2.5,3.5-6.5,3.9Z"/><path class="ag" d="M330.8,311.6h-.6v1.3h.7c4-.4,6.4-3.8,6.5-3.9l-1.1-.7A8.8,8.8,0,0,1,330.8,311.6Z"/><circle cx="352.5" cy="342.8" r="6"/><path class="x" d="M312.3,336.3s6.3,7.7,10.9,9.5-2.2,6.8-8.3,2.9S312.3,336.3,312.3,336.3Z"/><path class="ah" d="M308.9,339.9c-1.3,2.5-3.2,4.9-5.7,5.4a4.5,4.5,0,0,0-3.4,3.8c0,.3-.1.5-.1.8a9.4,9.4,0,0,1-2,4.4,3.1,3.1,0,0,0,1.9,5.1l18.6,3.6a4.8,4.8,0,0,0,4.9-7.2l-10.2-16.1A2.3,2.3,0,0,0,308.9,339.9Z"/></g></svg>