<svg xmlns="http://www.w3.org/2000/svg" xmlns:xlink="http://www.w3.org/1999/xlink" viewBox="0 0 400 400"><defs><style>.a{isolation:isolate;}.b{fill:url(#a);}.c{fill:#98cdf2;}.d{fill:#382632;}.e{font-size:38.64px;font-family:AdobeArabic-Regular, Adobe Arabic;}.ac,.e{fill:#fff;}.f{fill:#263238;}.g{fill:#fafafa;}.h,.k,.y{opacity:0.2;}.i,.k{fill:#37b5e8;}.j{opacity:0.4;}.l{fill:#ed1c24;}.m{fill:#c6c6c6;}.n{fill:#39b54a;}.o{fill:#288ed9;}.p{fill:#ffe7cb;}.q{fill:#f0d2b9;}.r{fill:#21e2e2;}.ad,.s{opacity:0.3;}.t{fill:#1f364c;}.u{fill:#152735;}.v{fill:#0e71bb;}.w{fill:#375a64;}.x{fill:#f59b6b;}.ae,.y{mix-blend-mode:overlay;}.z{fill:url(#b);}.aa{fill:url(#c);}.ab{fill:#e0e0e0;}.ae{opacity:0.25;}</style><linearGradient id="a" x1="214.52" y1="369.49" x2="166.63" y2="97.84" gradientUnits="userSpaceOnUse"><stop offset="0" stop-color="#c6e6ff"/><stop offset="1" stop-color="#fff"/></linearGradient><linearGradient id="b" x1="72.68" y1="208.71" x2="98.13" y2="208.71" gradientUnits="userSpaceOnUse"><stop offset="0" stop-color="#ffbc98"/><stop offset="1" stop-color="#ff9f6c"/></linearGradient><linearGradient id="c" x1="113.86" y1="285.06" x2="311.41" y2="285.06" gradientUnits="userSpaceOnUse"><stop offset="0.22" stop-color="#8ab4fd"/><stop offset="1" stop-color="#c7dbfd"/></linearGradient></defs><title>iran dedicated server</title><g class="a"><path class="b" d="M50.2,346.1S-.9,291.5,24.7,232.8c24.5-56.1,65.1,4,119.9-84.8s119.5-69,136.9,3c20.3,83.9,63,52.9,85.7,89.8,25.8,42.1-2.4,90.1-20.2,105.3Z"/><rect class="c" x="319.1" y="284.1" width="5.1" height="52.65"/><path class="c" d="M317.8,313.7h7.7a1.2,1.2,0,0,1,1.2,1.2v14.8a0,0,0,0,1,0,0H316.6a0,0,0,0,1,0,0V314.9A1.2,1.2,0,0,1,317.8,313.7Z"/><polygon class="c" points="321.6 329.7 321.6 335.2 292.6 339.4 292.6 336.7 316.6 329.7 321.6 329.7"/><path class="c" d="M295.8,342.3a2.8,2.8,0,1,1-2.8-2.8A2.7,2.7,0,0,1,295.8,342.3Z"/><polygon class="c" points="293.4 340.9 292.6 340.9 292.6 336.7 293.4 336.5 293.4 340.9"/><polygon class="c" points="321.6 329.7 321.6 335.2 350.6 339.4 350.6 336.7 326.7 329.7 321.6 329.7"/><path class="c" d="M347.5,342.3a2.8,2.8,0,0,0,5.5,0,2.8,2.8,0,1,0-5.5,0Z"/><path class="c" d="M318.9,342.3a2.8,2.8,0,0,0,5.5,0,2.8,2.8,0,1,0-5.5,0Z"/><polygon class="c" points="349.8 340.9 350.6 340.9 350.6 336.7 349.8 336.5 349.8 340.9"/><rect class="d" x="321.2" y="336.7" width="0.8" height="4.15"/><text class="e" transform="translate(143.4 -46.2)">ناریا یصاصتخا روس*</text><path class="f" d="M358.8,345.1c0,.1-71.6.2-159.8.2s-159.8-.1-159.8-.2,71.5-.2,159.8-.2S358.8,345,358.8,345.1Z"/><rect class="g" x="149.5" y="64.2" width="140" height="128.23"/><path class="f" d="M289.8,192.8H149.1V63.8H289.8Zm-140-.7H289.1V64.6H149.8Z"/><rect class="f" x="146.2" y="56.5" width="145.8" height="8.18"/><g class="h"><polygon class="i" points="149.8 64.7 289.2 78.4 289.1 64.7 149.8 64.7"/></g><g class="j"><rect class="i" x="220.7" y="119.3" width="4.7" height="99.78" transform="translate(53.9 392.2) rotate(-90)"/></g><g class="h"><rect class="i" x="229.6" y="119.1" width="4.7" height="81.96" transform="translate(71.9 392) rotate(-90)"/></g><g class="j"><rect class="i" x="224.1" y="104.2" width="4.7" height="93.52" transform="translate(75.4 377.4) rotate(-90)"/></g><rect class="k" x="221.7" y="93.1" width="4.7" height="97.75" transform="translate(82.1 366) rotate(-90)"/><g class="j"><rect class="i" x="230.1" y="92.4" width="4.7" height="80.89" transform="translate(99.6 365.4) rotate(-90)"/></g><g class="h"><rect class="i" x="233.4" y="86.6" width="4.7" height="74.31" transform="translate(112 359.6) rotate(-90)"/></g><g class="j"><rect class="i" x="223.4" y="67.5" width="4.7" height="94.39" transform="translate(111 340.5) rotate(-90)"/></g><g class="h"><rect class="i" x="227.6" y="62.7" width="4.7" height="85.9" transform="translate(124.3 335.6) rotate(-90)"/></g><rect class="l" x="180.2" y="94.2" width="92.7" height="4.7"/><rect class="m" x="194.7" y="85.2" width="78.2" height="4.7"/><rect class="n" x="188.8" y="76.1" width="84.1" height="4.7"/><g class="h"><path class="i" d="M276.6,176.7c0,.1-15,.2-33.4.2s-33.4-.1-33.4-.2,14.9-.2,33.4-.2S276.6,176.6,276.6,176.7Z"/></g><path class="k" d="M276.6,74.2c.1,0,.2,22.3.2,49.8s-.1,49.7-.2,49.7-.2-22.3-.2-49.7S276.5,74.2,276.6,74.2Z"/><path class="k" d="M280.7,164.8a30.7,30.7,0,0,1,0,7,30.7,30.7,0,0,1,0-7Z"/><path class="k" d="M280.9,153.2a23.5,23.5,0,0,1,.2,4.2,23.5,23.5,0,0,1-.2,4.2,23.5,23.5,0,0,1-.2-4.2A23.5,23.5,0,0,1,280.9,153.2Z"/><path class="k" d="M280.9,143.4a21.9,21.9,0,0,1,.2,4.1,23.5,23.5,0,0,1-.2,4.2,23.5,23.5,0,0,1-.2-4.2A21.9,21.9,0,0,1,280.9,143.4Z"/><path class="k" d="M280.9,133.5a23.5,23.5,0,0,1,.2,4.2,21.9,21.9,0,0,1-.2,4.1,21.9,21.9,0,0,1-.2-4.1A23.5,23.5,0,0,1,280.9,133.5Z"/><path class="k" d="M280.9,123.6a23.5,23.5,0,0,1,.2,4.2,23.5,23.5,0,0,1-.2,4.2,23.5,23.5,0,0,1-.2-4.2A23.5,23.5,0,0,1,280.9,123.6Z"/><path class="k" d="M280.9,113.8a21.9,21.9,0,0,1,.2,4.1,23.5,23.5,0,0,1-.2,4.2,23.5,23.5,0,0,1-.2-4.2A21.9,21.9,0,0,1,280.9,113.8Z"/><path class="k" d="M280.9,103.9a23.5,23.5,0,0,1,.2,4.2,21.9,21.9,0,0,1-.2,4.1,21.9,21.9,0,0,1-.2-4.1A23.5,23.5,0,0,1,280.9,103.9Z"/><g class="h"><path class="i" d="M280.9,94.1a21.9,21.9,0,0,1,.2,4.1,23.5,23.5,0,0,1-.2,4.2,23.5,23.5,0,0,1-.2-4.2A21.9,21.9,0,0,1,280.9,94.1Z"/></g><g class="h"><path class="i" d="M280.9,84.2a23.5,23.5,0,0,1,.2,4.2,21.9,21.9,0,0,1-.2,4.1,21.9,21.9,0,0,1-.2-4.1A23.5,23.5,0,0,1,280.9,84.2Z"/></g><g class="h"><path class="i" d="M280.9,74.3a23.5,23.5,0,0,1,.2,4.2,23.5,23.5,0,0,1-.2,4.2,23.5,23.5,0,0,1-.2-4.2A23.5,23.5,0,0,1,280.9,74.3Z"/></g><path class="f" d="M198.1,139.4c-.1,0,.1-.4.6-.6h1a1.2,1.2,0,0,1,.5.5,1.5,1.5,0,0,1-.1.7,1,1,0,0,1-1.1.6,1.3,1.3,0,0,1-.9-.4,1.1,1.1,0,0,1-.2-.7l.2-.2a.8.8,0,0,0,.2.7,1.1,1.1,0,0,0,.7.3.8.8,0,0,0,.7-.4.6.6,0,0,0-.1-.8h-.8A.8.8,0,0,0,198.1,139.4Z"/><g class="h"><path class="i" d="M198.5,59.8c.1,0,.2,7.7.2,17.2s-.1,17.3-.2,17.3-.2-7.8-.2-17.3S198.4,59.8,198.5,59.8Z"/></g><g class="h"><path class="i" d="M193.7,71.6c.1,0,.2,4.9.2,11.1s-.1,11-.2,11-.2-4.9-.2-11S193.6,71.6,193.7,71.6Z"/></g><rect class="c" x="319.1" y="274.2" width="5.1" height="30.72" transform="translate(643.3 579.1) rotate(180)"/><path class="c" d="M285.3,277h73.4a8,8,0,0,0-8-8H293.3a8,8,0,0,0-8,8Z"/><path class="c" d="M360.9,213.4v45.2a10.8,10.8,0,0,1-10.8,10.7H315.3l4.7-55.9a4.7,4.7,0,0,1,4.8-4.8h31.3A4.8,4.8,0,0,1,360.9,213.4Z"/><path class="o" d="M331.2,210.9h7.9l-2.8-14.2c-2.1-11.5-18.2-12.3-18.2-12.3l-12.8-.2s-9.4-1.3-15.2,5.3l-3.7,4.1L272.7,208l-1.5-18.1-11.8,1.9,1.6,22.7a9.4,9.4,0,0,0,6.3,8c2.5.9,5.1.1,7.7-1.2,6.9-3.4,19.8-14.3,20.8-15.1-.6,1.2-.7,43.1-.7,43.1l41.5-1.7C335.8,240.9,331.2,210.9,331.2,210.9Z"/><path class="p" d="M312.6,242.9c-2.3,1.5-5.1,3.3-6.7,4.1s-3.1,1.1-3.2.7,5.1-2.6,3.7-2.9-6.3,2.8-6.6,1.7,5.3-3,5.8-3.2.2-.8-.2-.6-6.9,2.8-7.3,1.5,1.2-1,1.2-1,6.1-2,5.9-2.6-3.8.4-5,.9-1.9,0-1.7-.7,3.8-1.9,5-2.3,4.5-1.4,2.4-2.2-3.4-2.2-3.5-2.8.8-.9,1.3-.4a5.6,5.6,0,0,0,1.9,1.1,4.9,4.9,0,0,0,1.7.6h1.4l4.4.3,2.2,5.9Z"/><path class="o" d="M332,189.6a16,16,0,0,1,5.2,7.9c1,3.2,3.8,14,5.9,22.1a10.5,10.5,0,0,1-6.8,12.4l-23.4,12.6-3.8-9.9,20.5-13.4-5-18.4a13.1,13.1,0,0,1-.1-8.3C325.5,191.8,327.7,189.1,332,189.6Z"/><path class="p" d="M260.2,192.4l-1.5-4.5c-.6-3.3,2-3.8,2.4-4.3a5.7,5.7,0,0,1,2.3-1.8l-.2-1.3a37.9,37.9,0,0,1-.8-4.3c.1-.8,1.5-.8,1.7-.1a36.1,36.1,0,0,0,1.7,5.7c.5,1.4,1.8,5.1,3.1,2.8a11.3,11.3,0,0,0,1.4-4.3c.3-.8,1.9-.9,1.6.7a26.7,26.7,0,0,1-.6,3.3c-.2.7-.6,1.6-.8,2.3s-.3,3.8-.4,4.4Z"/><path class="q" d="M260.9,184.5c.1,0,.1.5.4,1.3a3.9,3.9,0,0,0,.5,1.4l.3.9a1,1,0,0,1-.6,1,.9.9,0,0,1-1-.2,2.3,2.3,0,0,1-.7-.7,5.3,5.3,0,0,1-.6-1.4c-.1-.9-.1-1.4,0-1.4l.3,1.3a3.8,3.8,0,0,0,.6,1.3,3.4,3.4,0,0,0,.6.6l.7.2a.7.7,0,0,0,.3-.6,1.1,1.1,0,0,0-.3-.8c-.2-.6-.3-1.1-.4-1.5A3.8,3.8,0,0,1,260.9,184.5Z"/><path class="q" d="M262.9,183a6.3,6.3,0,0,1,.7,1.7l.6,1.9a4.2,4.2,0,0,1,.4,1.2v.7l-.6.6a1.5,1.5,0,0,1-1.3-.1,2.8,2.8,0,0,1-.9-1c-.3-.7-.4-1.4-.6-1.9a16.4,16.4,0,0,1-.4-1.8,6.3,6.3,0,0,1,.7,1.7,11.4,11.4,0,0,0,.7,1.9,1.6,1.6,0,0,0,.6.8,1.1,1.1,0,0,0,1.1,0c.3-.1.4-.5.3-.9l-.3-1.1a18,18,0,0,1-.5-1.9Z"/><path class="f" d="M270.9,212.2a7,7,0,0,1,.7-2.2,7.9,7.9,0,0,1,1.1-2.1,5,5,0,0,1-.8,2.2A7.5,7.5,0,0,1,270.9,212.2Z"/><path class="r" d="M248.2,302.6l3.1-6.4,12,5.7-4.4,9.3-.8-.3c-3.4-1.3-17.1-7.2-19-8.9S248.2,302.6,248.2,302.6Z"/><path class="r" d="M283.8,341.1v-7l13.2-.4.3,10.3h-.8c-3.6.3-18.5,1.3-21,.6S283.8,341.1,283.8,341.1Z"/><g class="s"><path d="M323.6,199.3c.5,7.9,5.1,21.5-11.2,32.8,1.2-.5,16.7-10.8,16.7-11.1S325.4,207.8,323.6,199.3Z"/></g><path class="t" d="M336.7,245.8s-54.3-11.4-59.5-8.9-29.5,62.4-29.5,62.4l16.3,6,22.2-49.7s40,15.1,46.6,13.7S336.7,245.8,336.7,245.8Z"/><path class="f" d="M293.7,276.2a6,6,0,0,1,2.2.8,8.3,8.3,0,0,1,2,1.1l-2.2-.8C294.5,276.8,293.6,276.3,293.7,276.2Z"/><path class="u" d="M292.3,257.8c-7.1,3.4-13.3,6.7-14.3,8.5-2.2,4.2,3.2,73,3.2,73h17.9L298,278.1l34.8-8.8S325.4,269,292.3,257.8Z"/><path class="f" d="M295.2,274.3c.2,0,.6,1,1.5,2s1.6,1.9,1.5,2a8.2,8.2,0,0,1-1.9-1.7A5,5,0,0,1,295.2,274.3Z"/><path class="p" d="M304,188c-.1-3.9-.3-8.1-.3-8.1s-5.9-.8-6.2-6.8-.3-16.7-.3-16.7l13-2.5L317,159l.2,28.8a6.7,6.7,0,0,1-6.6,6.6h0A6.6,6.6,0,0,1,304,188Z"/><path class="q" d="M303.7,179.9a14.6,14.6,0,0,0,7.9-2.6s-1.9,4.4-7.8,4.1Z"/><path class="r" d="M213.1,342.2v-7.3H199.5l-.2,10.6h.9c3.7.2,19.1,1,21.6.3S213.1,342.2,213.1,342.2Z"/><path class="r" d="M160.2,342.2v-7.3h13.6v10.6h-.8c-3.7.2-19.1,1-21.6.3S160.2,342.2,160.2,342.2Z"/><polyline class="t" points="222 203 217 339.4 195.8 339.9 199.4 221.7 175.5 340.8 155.4 340.8 181.3 203.3"/><path class="p" d="M192.7,146.3l13.1-1.1c.1-1.5,0-7.4,0-7.4s5.4-.8,5.5-6.3-.9-17.9-.9-17.9h0a18.9,18.9,0,0,0-19,2.4l-.8.6Z"/><path class="q" d="M205.8,137.7a12.4,12.4,0,0,1-7.1-2s1.7,3.9,7.1,3.4Z"/><path class="p" d="M191.3,122.2c-.1,0-3.8-1.1-3.7,2.6a2.9,2.9,0,0,0,3.9,2.8Z"/><path class="v" d="M213.1,110.1a2.2,2.2,0,0,0-.8-1.8,1.4,1.4,0,0,0-1.8.2,1.7,1.7,0,0,0-1.5-2c-.8-.1-1.6.6-2.5.8a4.3,4.3,0,0,1-2.5-.3l-2.4-1.1a7,7,0,0,0-5.3.3,7.1,7.1,0,0,0-3.6,3.8,3.3,3.3,0,0,0-3.3,1.3,4.8,4.8,0,0,0-.7,3.5,10.2,10.2,0,0,0,.6,2.5v.2c0,3,.4,6.5,1.7,6.5s1.7-4.1,1.7-4.1c2.7-1.1,1.7-5.2,2.3-5.8s2.2-2.1,7.9.9a11.1,11.1,0,0,0,6.8.7h.1a.1.1,0,0,0,.1-.1,4.7,4.7,0,0,0,1.5-.6,3.7,3.7,0,0,0,1.2-1.3,1.7,1.7,0,0,0-.3-1.7A4.6,4.6,0,0,0,213.1,110.1Z"/><path class="o" d="M186.4,144.2c1.9-.3,3.6-1,5.8-1.1h0a22.3,22.3,0,0,0,14,0l2.3.3c6.1.7,8.4,2,12.7,6.3l-.4,24.5s1.4,27.9,1.3,32.4H180.7v-24L167,187.5l1.3-7.2s6.1-23.7,7-26.9S180.6,145.3,186.4,144.2Z"/><path class="o" d="M173.3,180.8l20.4-2.9,3.9,6.9-19,8.6a9.8,9.8,0,0,1-3.4.7h0a8,8,0,0,1-7.5-5.1l-.7-1.5Z"/><path class="p" d="M212.1,174.5l-.5-.3a10.4,10.4,0,0,0-8-1.9h0a14.4,14.4,0,0,0-6.2,3l-3.5,2.8,3.7,6.7,2.5-3.5s2.4,3.2,2.8,2.8a5,5,0,0,0,.9-1.3l-1.7-2.4,4.1.9,5.9-2.7-2.5-3.2,2.5.8Z"/><path class="o" d="M215,145s5.8,1.9,8.2,7.5c1.6,3.6,3.9,21,3.9,21l2.9,5.7a9.3,9.3,0,0,1,1.1,4.4v.8a9.4,9.4,0,0,1-2.2,6h0a9.2,9.2,0,0,1-6.5,3.5c-2.9.3-6.5.4-7.2-.5a32.5,32.5,0,0,1-3.4-5.6l8.6-4.5-3.7-6.8Z"/><polygon class="f" points="205.8 173.9 192.9 189.6 193.9 190.7 214.9 187.5 225.4 171.8 224.4 170.9 205.8 173.9"/><path class="p" d="M219.6,178.1h0a2,2,0,0,0-1.8,1.2c-.4.8-.8,1.8-1.3,2.1s-2.6.9-3.4.5-4.3-3.5-4.9-3.2-1.1,1.1-.5,1.8,3.8,2.7,3.2,3.4-7.3-2.3-8.3-2-1.6.9-1,1.3,5.1,2.1,5.3,2.7-6.8-1.8-7-1.4-.7,1.1,0,1.4l7,2a10.2,10.2,0,0,0,2.7.8l2.7.9a6.7,6.7,0,0,0,4.2-.1l.7-.3a2.7,2.7,0,0,0,1.7-2.7v-2.3l.7-1.9Z"/><path class="w" d="M225.4,171.8H225l-1.1.2-4.2.7-6.1.9-3.7.6a7.6,7.6,0,0,0-3.5,1.4,37.3,37.3,0,0,0-2.6,3l-2.3,2.9-3.9,4.8-2.7,3.3-.7.8-.3.3.2-.3.7-.9,2.6-3.4,3.9-4.9,2.3-2.8a23.8,23.8,0,0,1,2.6-3.1,7.1,7.1,0,0,1,3.7-1.5l3.6-.5,6.2-.9,4.2-.5h1.5Z"/><path class="g" d="M215.6,175.3a1,1,0,0,0-.6.5.6.6,0,0,0-.1.7.7.7,0,0,0,.9,0,1,1,0,0,0,.4-.5,1.4,1.4,0,0,0-.2-.6h-.6"/><rect class="c" x="42.3" y="193.2" width="34" height="68.64"/><path class="c" d="M43.9,261.7h0a5.3,5.3,0,0,1-5.3-5.3V198.5a5.3,5.3,0,0,1,5.3-5.3h0a5.3,5.3,0,0,1,5.3,5.3v57.9A5.3,5.3,0,0,1,43.9,261.7Z"/><rect class="c" x="73.3" y="270.4" width="5.5" height="29.52"/><path class="c" d="M114.4,270.4H35.9a8.6,8.6,0,0,1,8.5-8.6h61.5a8.6,8.6,0,0,1,8.5,8.6Z"/><path class="p" d="M65.3,189.9h0c4.1,0,7.5-2.7,7.5-15.1,0-2.5-.1-4.6-.1-4.6s5.9-.6,6.4-6.3.1-18.9.1-18.9h0a20.4,20.4,0,0,0-20.4,1.3l-.9.6.3,28.1C58.2,178.9,61.3,189.9,65.3,189.9Z"/><path class="q" d="M72.8,170.1a13.6,13.6,0,0,1-7.5-2.6s1.5,4.2,7.4,4.1Z"/><path class="v" d="M79.4,143.8a8.4,8.4,0,0,0-.9-2.5,2.5,2.5,0,0,0-.3-2.5,2.6,2.6,0,0,0-3.5-.2h0a1.4,1.4,0,0,0-.4-1.6,3.1,3.1,0,0,0-2.1-.5c-1.3,0-4.4,1-6.8,1.9H65a11.5,11.5,0,0,0-5.4,2.4,11.3,11.3,0,0,0-3.4,6c-.7,2.2-.7,4.6-.2,8.5.7-.6,3.2-2.2,3.6-1.4a8.8,8.8,0,0,1,.2,1.6,1.3,1.3,0,0,0,.8,1.3,1,1,0,0,0,1.1-.5,1.7,1.7,0,0,0,.4-1.2c.1-1.8-.3-3.6,0-5.4a6.8,6.8,0,0,1,2.7-4.3,6.4,6.4,0,0,1,5-1,18,18,0,0,0,3.2.6c1.6-.1,3.2-1.2,4.6-.5l.8.4c.6.3.8.6,1,.4A8.4,8.4,0,0,0,79.4,143.8Z"/><path class="p" d="M59.4,153.2c-.1,0-3.7-.5-3.4,3.7s4.5,2.4,4.5,2.3Z"/><path class="r" d="M98.8,328l3.2-4.6-12.4-8.7-5.2,7,.8.6c3.2,2.7,16.4,13.5,19.1,14.5S98.8,328,98.8,328Z"/><path class="r" d="M159.2,342.3,158,337l-14.5,3.3,1.7,8.3h.9c4.1-.5,20.6-3.1,23.1-4.4S159.2,342.3,159.2,342.3Z"/><g class="s"><polygon points="144.2 343.6 158.8 340.4 158.6 339.6 143.7 341.3 144.2 343.6"/></g><path class="q" d="M121.5,213.6a15.2,15.2,0,0,1,2.9-2.7c.4-.2,7.7-3.2,7.8-2.9s1,2-.4,2.8l-1.2.4,4.2.3s4.6,3.5,4.5,4.2-.6,1.2-1,.9,1,2.3,1,2.3,0,1.2-.6,1a5.2,5.2,0,0,1-1.5-1.3s.9,1.4.6,1.7-1.6.3-1.7,0l-.4-1h-.8v1.1l-12.3.4Z"/><polygon class="x" points="73.9 179.7 77.6 184.1 92.7 210.4 121.9 213.3 122.6 221.8 88.9 225 70 190.9 73.9 179.7"/><g class="y"><polygon points="73.9 179.7 77.6 184.1 92.7 210.4 121.9 213.3 122.6 221.8 88.9 225 70 190.9 73.9 179.7"/></g><path class="x" d="M76.9,192.5l-3-11V178l-16.3-7.4-3.1,3.9.3.2c-1.2,1.3-10.7,11.6-10.2,19.1s14.9,49.8,14.9,49.8L92.2,234Z"/><path class="z" d="M73.6,181.7l-.9,4.5,2.4,4.5V194l17.1,40,5.1,1.7.8-3.4S83.9,208,81.4,201.1l-6.1-16.7Z"/><path class="x" d="M47.6,201.9c0,.3,19.8,19.5,27,26.5a6.9,6.9,0,0,0,6,1.8L117,223l-1.2-8.5-27.3.7a7.9,7.9,0,0,1-7.2-3.2c-5.8-7.6-18.5-24-18.8-24.5S47.6,201.9,47.6,201.9Z"/><path class="p" d="M132.9,214.5l-7.2-1.9-5.9,2.9h-3.3l-.6.2,1,6.4h.8a8.5,8.5,0,0,0,2.9,1.1c1.9.4,4.6-.8,4.6-.8l3.8-2.1,2.7-.7,2,1.1a7.5,7.5,0,0,1,.2,1.1c0,.3.7.6,1.1.6s.6-.9.6-.9l-.5-2,.9.8h2.4V219Z"/><polygon class="u" points="117 261.3 86.3 315.9 102.7 327.1 129.9 278.9 125.3 261.3 117 261.3"/><path class="t" d="M59.5,243.6s-3.5,14.8,6,17.9,59.3,4.5,59.3,4.5l18.5,76.4,15.8-2.3-13.6-81.8a13.8,13.8,0,0,0-11.2-11.2c-14.8-2.7-41.5-7.5-41.8-8a49,49,0,0,1-2.3-4.5Z"/><polygon class="aa" points="311.4 225.4 113.9 224.7 113.9 230.6 125.6 230.6 125.2 344.8 129.3 344.8 129.7 230.6 292.9 231.2 292.5 345.4 296.7 345.4 297.1 231.2 311.4 231.3 311.4 225.4"/><polygon class="ab" points="243.6 193 254.5 225 304.1 225 303.8 223.4 283.7 222.7 274.5 193 243.6 193"/><path class="ac" d="M265.5,208a2.3,2.3,0,0,1-1.2,2.9c-1,.3-2.1-.6-2.4-1.9a2.3,2.3,0,0,1,1.2-2.9A2.2,2.2,0,0,1,265.5,208Z"/><polygon class="ab" points="194.7 192.1 183.8 224.1 134.2 224.1 134.5 222.5 154.6 221.8 163.8 192.1 194.7 192.1"/><path class="ac" d="M172.8,207.1A2.3,2.3,0,0,0,174,210c1,.3,2.1-.6,2.5-1.9a2.4,2.4,0,0,0-1.3-2.9A2.2,2.2,0,0,0,172.8,207.1Z"/><circle class="w" cx="214.9" cy="212.9" r="6.1" transform="translate(-29.8 390.8) rotate(-80.8)"/><rect class="ab" x="195" y="210.5" width="39.7" height="14.5"/><path class="f" d="M210.3,214.5a55.5,55.5,0,0,1-6.5.2,53,53,0,0,1-6.4-.2,53,53,0,0,1,6.4-.2A55.5,55.5,0,0,1,210.3,214.5Z"/><path class="f" d="M210.3,216.6a55.5,55.5,0,0,1-6.5.2,53,53,0,0,1-6.4-.2,53,53,0,0,1,6.4-.2A55.5,55.5,0,0,1,210.3,216.6Z"/><path class="f" d="M210.3,218.7a55.5,55.5,0,0,1-6.5.2,53,53,0,0,1-6.4-.2,53,53,0,0,1,6.4-.2A55.5,55.5,0,0,1,210.3,218.7Z"/><path class="f" d="M210.3,220.7c0,.2-2.9.2-6.5.2s-6.4,0-6.4-.2h12.9Z"/><path class="ad" d="M179.6,179.8l2.7-8.7s-1.9,7.9-1.1,7.9l12.5-1.1Z"/><path class="ae" d="M52.9,207.3l20.6,23.8a7.1,7.1,0,0,0,9.2,1.4l6.6-4-8.5,1.7a7.3,7.3,0,0,1-6.4-2Z"/><path class="v" d="M317,165.9a1.6,1.6,0,0,0,.5,1.5,1.4,1.4,0,0,0,1.5.2,2.6,2.6,0,0,0,.9-2.8,5.5,5.5,0,0,1-.2-3.1,5.2,5.2,0,0,1,1.6-1.7,4.5,4.5,0,0,0,1.2-3.8,3.8,3.8,0,0,0-2.6-3c-1.4-.3-3.1.1-4.1-.9s-.8-1.9-1.4-2.7-2.7-1.5-4.3-1.3-3.2.8-4.7.4a23.7,23.7,0,0,1-3.6-1.7,7.1,7.1,0,0,0-7.9,1.6,7,7,0,0,0-1,8c.5.9,1.4,3.6,4.4,3.5"/><path class="v" d="M296.1,157.5a9.1,9.1,0,0,0,7.8-.5c3-1.4,6.3-2.1,7.1-1.5s.9,3.6,3.7,4.5c0,0-.2,5.7,2.1,5.5s1.6-11.6,1.6-11.6l-6.3-.2-6-1.2-5.8.7-4.4,1.2Z"/><path class="p" d="M316.6,163.1c.1,0,3.7-1.3,3.9,2.5s-3.8,3.1-3.8,3Z"/><rect class="n" x="196.9" y="212.2" width="14.7" height="3.57"/><rect class="m" x="196.9" y="215.7" width="14.7" height="3.57"/><rect class="l" x="196.9" y="219.3" width="14.7" height="3.57"/><rect class="c" x="73.5" y="284.1" width="5.1" height="52.65"/><path class="c" d="M72.2,313.7h7.7a1.2,1.2,0,0,1,1.2,1.2v14.8a0,0,0,0,1,0,0H71a0,0,0,0,1,0,0V314.9A1.2,1.2,0,0,1,72.2,313.7Z"/><polygon class="c" points="76.1 329.7 76.1 335.2 47.1 339.4 47.1 336.7 71 329.7 76.1 329.7"/><path class="c" d="M50.2,342.3a2.7,2.7,0,0,1-2.7,2.7,2.8,2.8,0,1,1,0-5.5A2.7,2.7,0,0,1,50.2,342.3Z"/><polygon class="c" points="47.9 340.9 47.1 340.9 47.1 336.7 47.9 336.5 47.9 340.9"/><polygon class="c" points="76.1 329.7 76.1 335.2 105.1 339.4 105.1 336.7 81.1 329.7 76.1 329.7"/><path class="c" d="M101.9,342.3a2.8,2.8,0,1,0,2.8-2.8A2.7,2.7,0,0,0,101.9,342.3Z"/><path class="c" d="M73.3,342.3a2.8,2.8,0,1,0,2.8-2.8A2.7,2.7,0,0,0,73.3,342.3Z"/><polygon class="c" points="104.3 340.9 105.1 340.9 105.1 336.7 104.3 336.5 104.3 340.9"/><rect class="d" x="75.7" y="336.7" width="0.8" height="4.15"/></g></svg>