<svg xmlns="http://www.w3.org/2000/svg" xmlns:xlink="http://www.w3.org/1999/xlink" viewBox="0 0 400 400"><defs><style>.a{isolation:isolate;}.b{font-size:38.64px;font-family:AdobeArabic-Regular, Adobe Arabic;}.b,.y{fill:#fff;}.c{fill:url(#a);}.d{fill:#263238;}.e{fill:#fafafa;}.f,.i,.v{opacity:0.2;}.g,.i{fill:#37b5e8;}.h{opacity:0.4;}.j{opacity:0.38;}.k{opacity:0.6;}.l{fill:#375a64;}.m{fill:#288ed9;}.n{fill:#ffe7cb;}.o{fill:#f0d2b9;}.p{fill:#21e2e2;}.q,.z{opacity:0.3;}.r{fill:#1f364c;}.s{fill:#152735;}.t{fill:#0e71bb;}.u{fill:#f59b6b;}.aa,.v{mix-blend-mode:overlay;}.w{fill:url(#b);}.x{fill:#e0e0e0;}.aa{opacity:0.25;}.ab{fill:#333;}.ac{fill:#c0c2c1;}.ad{fill:#e6e6e6;}.ae{fill:#000100;}.af{fill:#fe9a0f;}.ag{fill:#e2810c;}.ah{fill:#dd7f10;}.ai{fill:#ae4e32;}.aj{fill:#9e402b;}.ak{fill:#fe9b0e;}</style><linearGradient id="a" x1="213.15" y1="352.23" x2="164.75" y2="77.76" gradientUnits="userSpaceOnUse"><stop offset="0" stop-color="#c6e6ff"/><stop offset="1" stop-color="#fff"/></linearGradient><linearGradient id="b" x1="66.38" y1="202.91" x2="92.65" y2="202.91" gradientUnits="userSpaceOnUse"><stop offset="0" stop-color="#ffbc98"/><stop offset="1" stop-color="#ff9f6c"/></linearGradient></defs><title>linux dedicated server</title><g class="a"><text class="b" transform="translate(46.8 -46.2)">سکونیل یصاصتخا روس*</text><path class="c" d="M376.6,243.8c-6.3-19.3-16.2-25.2-25.6-37.6-11.5-15.1-19.2-26.1-16.2-45.5,4.8-31.8,6.9-111-69.3-100.7-27.3,3.8-48.9,26.9-64.6,49.9-13.4,19.6-37.4,21.4-56.8,25.9-23.7,5.7-48,14.2-70,26.6C28.8,188,15.3,224.9,17.2,272c.5,14.2,2.3,36.6,24.1,62.9,29.5,35.4,72.2,40.2,123.7,23.9,11.7-3.7,22.9-9.6,34.5-14a154.1,154.1,0,0,1,37.2-8.9c29.5-3.1,60.2,2.6,88.5-7.2a92.1,92.1,0,0,0,39.6-27.1A59.8,59.8,0,0,0,376.6,243.8Z"/><path class="d" d="M361.8,343.7c0,.2-73.9.2-165,.2s-165,0-165-.2,73.9-.2,165-.2S361.8,343.6,361.8,343.7Z"/><rect class="e" x="145.7" y="53.7" width="144.5" height="132.39"/><path class="d" d="M290.6,186.5H145.3V53.3H290.6ZM146,185.7H289.8V54.1H146Z"/><rect class="d" x="142.3" y="45.8" width="150.5" height="8.44"/><g class="f"><polygon class="g" points="146 54.2 289.9 68.3 289.8 54.2 146 54.2"/></g><g class="h"><rect class="g" x="219.2" y="110.6" width="4.9" height="103.01" transform="translate(59.5 383.7) rotate(-90)"/></g><g class="f"><rect class="g" x="228.4" y="110.4" width="4.9" height="84.61" transform="translate(78.1 383.5) rotate(-90)"/></g><g class="h"><rect class="g" x="222.7" y="95.1" width="4.9" height="96.55" transform="translate(81.8 368.4) rotate(-90)"/></g><rect class="i" x="220.2" y="83.5" width="4.9" height="100.92" transform="translate(88.7 356.6) rotate(-90)"/><g class="h"><rect class="g" x="228.9" y="82.9" width="4.9" height="83.51" transform="translate(106.7 356) rotate(-90)"/></g><g class="f"><rect class="g" x="232.3" y="76.9" width="4.9" height="76.71" transform="translate(119.5 350) rotate(-90)"/></g><g class="h"><rect class="g" x="215.9" y="79.7" width="4.1" height="82.77" transform="translate(96.9 339.1) rotate(-90)"/></g><g class="f"><rect class="g" x="219.6" y="75.5" width="4.1" height="75.32" transform="translate(108.6 334.8) rotate(-90)"/></g><g class="j"><rect class="g" x="216.7" y="64.5" width="4.1" height="81.27" transform="translate(113.6 323.9) rotate(-90)"/></g><g class="f"><rect class="g" x="223" y="62.9" width="4.1" height="68.59" transform="translate(127.8 322.3) rotate(-90)"/></g><g class="k"><rect class="g" x="185.6" y="87.2" width="73.7" height="4.12"/></g><g class="f"><path class="g" d="M276.9,169.8c0,.1-15.5.2-34.5.2s-34.5-.1-34.5-.2,15.4-.2,34.5-.2S276.9,169.7,276.9,169.8Z"/></g><path class="i" d="M276.9,64c.1,0,.2,23,.2,51.4s-.1,51.4-.2,51.4-.2-23-.2-51.4S276.8,64,276.9,64Z"/><path class="i" d="M281.1,157.6c.2,0,.2,1.6.2,3.6s0,3.6-.2,3.6a17.1,17.1,0,0,1-.2-3.6A17.1,17.1,0,0,1,281.1,157.6Z"/><path class="i" d="M281.4,145.6a25.2,25.2,0,0,1,.2,4.3,24.2,24.2,0,0,1-.2,4.3,24.2,24.2,0,0,1-.2-4.3A25.2,25.2,0,0,1,281.4,145.6Z"/><path class="i" d="M281.4,135.4a25.9,25.9,0,0,1,.2,4.4,25.2,25.2,0,0,1-.2,4.3,25.2,25.2,0,0,1-.2-4.3A25.9,25.9,0,0,1,281.4,135.4Z"/><path class="i" d="M281.4,125.3a24.2,24.2,0,0,1,.2,4.3,25.2,25.2,0,0,1-.2,4.3,25.2,25.2,0,0,1-.2-4.3A24.2,24.2,0,0,1,281.4,125.3Z"/><path class="i" d="M281.4,115.1a24.2,24.2,0,0,1,.2,4.3,24.2,24.2,0,0,1-.2,4.3,24.2,24.2,0,0,1-.2-4.3A24.2,24.2,0,0,1,281.4,115.1Z"/><path class="i" d="M281.4,104.9a24.2,24.2,0,0,1,.2,4.3,24.2,24.2,0,0,1-.2,4.3,24.2,24.2,0,0,1-.2-4.3A24.2,24.2,0,0,1,281.4,104.9Z"/><path class="i" d="M266.4,111.6a23,23,0,0,1,.1,3.6,23.9,23.9,0,0,1-.1,3.7,17.7,17.7,0,0,1-.2-3.7A17.1,17.1,0,0,1,266.4,111.6Z"/><g class="f"><path class="g" d="M266.4,102.9a24.8,24.8,0,0,1,.1,3.7,24.8,24.8,0,0,1-.1,3.7,18.5,18.5,0,0,1-.2-3.7A18.5,18.5,0,0,1,266.4,102.9Z"/></g><g class="f"><path class="g" d="M266.4,94.3a23.9,23.9,0,0,1,.1,3.7,23,23,0,0,1-.1,3.6,17.1,17.1,0,0,1-.2-3.6A17.7,17.7,0,0,1,266.4,94.3Z"/></g><g class="f"><path class="g" d="M266.4,85.7a23,23,0,0,1,.1,3.6,24.8,24.8,0,0,1-.1,3.7,18.5,18.5,0,0,1-.2-3.7A17.1,17.1,0,0,1,266.4,85.7Z"/></g><path class="d" d="M195.8,131.3a.8.8,0,0,1,.7-.5,1.2,1.2,0,0,1,1,.1,1.2,1.2,0,0,1,.5.5.9.9,0,0,1-.1.7,1,1,0,0,1-1.1.6,1.1,1.1,0,0,1-1-.5c-.1-.2-.2-.5-.1-.6s.1-.3.1-.2-.1.3.3.7a1.1,1.1,0,0,0,.7.3.8.8,0,0,0,.7-.5.5.5,0,0,0-.1-.7,1.3,1.3,0,0,0-.8-.2C196.1,131.1,195.9,131.4,195.8,131.3Z"/><g class="f"><path class="g" d="M194.1,72.9c.1,0,.2,6.8.2,15.1s-.1,15.1-.2,15.1S194,96.4,194,88,194,72.9,194.1,72.9Z"/></g><g class="f"><path class="g" d="M189.9,83.2c.1,0,.2,4.4.2,9.8s-.1,9.7-.2,9.7-.2-4.4-.2-9.7S189.8,83.2,189.9,83.2Z"/></g><rect class="l" x="320.7" y="270.5" width="5.3" height="63.44" transform="translate(646.8 604.5) rotate(180)"/><path class="l" d="M285.9,273.4h75.8a8.2,8.2,0,0,0-8.3-8.2H294.2a8.2,8.2,0,0,0-8.3,8.2Z"/><path class="l" d="M300.2,339.7h.8a22.5,22.5,0,0,1,45,0h.8a23.3,23.3,0,1,0-46.6,0Z"/><path class="d" d="M342.9,340.9a3.5,3.5,0,0,0,7,0,3.5,3.5,0,0,0-7,0Z"/><path class="d" d="M296.9,340.4a3.5,3.5,0,0,0,3.5,3.5,3.5,3.5,0,0,0,0-7A3.5,3.5,0,0,0,296.9,340.4Z"/><path class="l" d="M300.5,334c0,.1,10.1.2,22.6.2s22.6-.1,22.6-.2-10.1-.2-22.6-.2S300.5,333.8,300.5,334Z"/><path class="l" d="M363.9,207.7v46.7a11.1,11.1,0,0,1-11.1,11.1h-36l4.9-57.8a4.9,4.9,0,0,1,4.9-4.9h32.3A4.9,4.9,0,0,1,363.9,207.7Z"/><path class="m" d="M333.3,205.1h8.2l-2.9-14.6c-2.2-11.9-18.9-12.7-18.9-12.7l-13.1-.2s-9.7-1.3-15.7,5.4l-3.8,4.3-14.3,14.9-1.5-18.7-12.2,1.9,1.7,23.5a9.9,9.9,0,0,0,6.5,8.3c2.6.8,5.3.1,8-1.2,7.1-3.6,20.4-14.8,21.4-15.7-.6,1.3-.7,44.5-.7,44.5l42.8-1.7C338,236.2,333.3,205.1,333.3,205.1Z"/><path class="n" d="M314.1,238.2a80.5,80.5,0,0,1-6.9,4.2c-3.1,1.4-3.2,1.2-3.3.8s5.2-2.7,3.8-3.1-6.5,2.9-6.8,1.9,5.5-3.2,5.9-3.3.3-.9-.2-.7-7.1,2.9-7.5,1.5,1.2-1,1.2-1,6.3-2,6.1-2.6-3.9.4-5.2.8-1.9.1-1.7-.6,4-2,5.2-2.4,4.6-1.5,2.5-2.3-3.5-2.2-3.6-2.9.7-.9,1.2-.4a11.7,11.7,0,0,0,2,1.2l1.8.5H310l4.6.4,2.3,6Z"/><path class="m" d="M334.1,183.2a16.3,16.3,0,0,1,5.4,8.1c1,3.3,3.9,14.5,6,22.8a10.7,10.7,0,0,1-7,12.8L314.4,240l-3.9-10.2,21.1-13.9-5.1-19c-.8-2.8-1.2-5.8-.1-8.6S329.6,182.7,334.1,183.2Z"/><path class="n" d="M259.9,186.1l-1.4-4.7c-.7-3.3,1.9-3.9,2.4-4.4a8.4,8.4,0,0,1,2.3-1.9l-.2-1.3a27,27,0,0,1-.7-4.4c0-.8,1.4-.9,1.7-.1s1.3,4.7,1.7,5.9,1.9,5.2,3.3,2.9a12.4,12.4,0,0,0,1.4-4.5c.3-.8,2-.9,1.7.7s-.3,1.8-.7,3.4-.6,1.6-.8,2.3-.3,4-.4,4.6Z"/><path class="o" d="M260.7,177.9c.1,0,.1.6.4,1.4a12.1,12.1,0,0,0,.5,1.4,2.9,2.9,0,0,1,.3,1,1.1,1.1,0,0,1-.5,1,1.6,1.6,0,0,1-1.2-.2,2.1,2.1,0,0,1-.6-.8,3.2,3.2,0,0,1-.6-1.5c-.2-.9-.2-1.4-.1-1.4s.1.5.4,1.4a3.8,3.8,0,0,0,.6,1.3.9.9,0,0,0,.6.6.7.7,0,0,0,.7.2.7.7,0,0,0,.3-.6,1.9,1.9,0,0,0-.2-.8,6.5,6.5,0,0,1-.5-1.5A4.3,4.3,0,0,1,260.7,177.9Z"/><path class="o" d="M262.8,176.4a6.3,6.3,0,0,1,.7,1.7l.6,2a4.2,4.2,0,0,1,.4,1.2c0,.2.1.5,0,.7a.9.9,0,0,1-.6.6,1.2,1.2,0,0,1-1.4-.1,1.6,1.6,0,0,1-.8-1,11.4,11.4,0,0,1-.7-1.9c-.3-1.2-.4-1.9-.4-1.9a8.4,8.4,0,0,1,.7,1.8c.2.5.4,1.2.7,1.9a2.7,2.7,0,0,0,.7.8,1.1,1.1,0,0,0,1.1.1.8.8,0,0,0,.3-.9l-.3-1.2-.6-2A5.8,5.8,0,0,1,262.8,176.4Z"/><path class="d" d="M271,206.5a8,8,0,0,1,.7-2.3c.6-1.2,1.1-2.2,1.2-2.1a9.6,9.6,0,0,1-.8,2.3C271.6,205.6,271.1,206.6,271,206.5Z"/><path class="p" d="M247.6,299.8l3.2-6.6,12.3,5.9-4.5,9.7-.8-.4c-3.5-1.4-17.7-7.4-19.6-9.2S247.6,299.8,247.6,299.8Z"/><path class="p" d="M284.4,339.6l-.2-7.3,13.7-.3.3,10.6h-.8c-3.8.3-19.2,1.3-21.7.6S284.4,339.6,284.4,339.6Z"/><g class="q"><path d="M325.4,193.2c.5,8.1,5.3,22.2-11.5,33.9,1.2-.6,17.2-11.2,17.2-11.5S327.2,201.9,325.4,193.2Z"/></g><path class="r" d="M338.9,241.2s-56-11.8-61.4-9.2-30.4,64.4-30.4,64.4l16.8,6.2,22.9-51.3s41.3,15.6,48.1,14.1S338.9,241.2,338.9,241.2Z"/><path class="d" d="M294.5,272.6a5.7,5.7,0,0,1,2.3.8,7.9,7.9,0,0,1,2.1,1.1,5.7,5.7,0,0,1-2.3-.8A7.9,7.9,0,0,1,294.5,272.6Z"/><path class="s" d="M293.1,253.6c-7.3,3.5-13.8,6.9-14.7,8.8-2.3,4.2,3.3,75.4,3.3,75.4h18.4L299,274.6l35.9-9.2S327.3,265.2,293.1,253.6Z"/><path class="d" d="M296.2,270.6c.1,0,.6,1,1.4,2.1s1.7,1.9,1.6,2a6.1,6.1,0,0,1-1.9-1.7C296.4,271.8,296,270.7,296.2,270.6Z"/><path class="n" d="M305.2,181.5c-.1-4-.3-8.4-.3-8.4s-6.1-.7-6.4-7-.3-17.2-.3-17.2l13.4-2.6,7,5.3.2,29.7a6.9,6.9,0,0,1-6.8,6.9h0A6.8,6.8,0,0,1,305.2,181.5Z"/><path class="o" d="M304.9,173.1a14.3,14.3,0,0,0,8.1-2.6s-1.9,4.5-8,4.2Z"/><path class="p" d="M174.5,340.7v-7.5l-14.1-.2v11h.8c3.9.2,19.8,1,22.4.3S174.5,340.7,174.5,340.7Z"/><path class="p" d="M119.9,340.7v-7.5l14.1-.2.2,11h-.9c-3.9.2-19.7,1-22.3.3S119.9,340.7,119.9,340.7Z"/><polyline class="r" points="183.6 197.1 178.5 337.9 156.7 338.3 160.3 216.3 135.7 339.3 114.9 339.3 141.7 197.3"/><path class="n" d="M153.4,138.5l13.6-1.1c0-1.6-.1-7.7-.1-7.7s5.6-.9,5.7-6.5-.9-18.5-.9-18.5h0a19.3,19.3,0,0,0-19.6,2.5l-.8.6Z"/><path class="o" d="M166.9,129.6a12.9,12.9,0,0,1-7.3-2.1s1.7,4.1,7.4,3.6Z"/><path class="n" d="M151.9,113.6s-3.8-1.1-3.7,2.7,4,2.9,4,2.8Z"/><path class="t" d="M174.5,101.1a2.1,2.1,0,0,0-.8-1.8,1.5,1.5,0,0,0-1.9.1,1.8,1.8,0,0,0-1.5-2.1c-.9,0-1.7.7-2.6.9a3.4,3.4,0,0,1-2.6-.3l-2.5-1.1a7.7,7.7,0,0,0-5.4.2,7.2,7.2,0,0,0-3.7,4,3.4,3.4,0,0,0-3.4,1.3,4.9,4.9,0,0,0-.8,3.7,10.2,10.2,0,0,0,.6,2.5v.2c.1,3.1.4,6.8,1.7,6.8s1.8-4.3,1.8-4.3c2.8-1.1,1.8-5.3,2.5-6s2.1-2.1,8,.9a11.1,11.1,0,0,0,7,.8h.3a4.7,4.7,0,0,0,1.5-.6,3.2,3.2,0,0,0,1.2-1.4,1.5,1.5,0,0,0-.3-1.8A3.4,3.4,0,0,0,174.5,101.1Z"/><path class="m" d="M146.9,136.3a49.4,49.4,0,0,1,6-1.1h0a23.6,23.6,0,0,0,14.4,0l2.4.3c6.3.7,8.7,2,13.2,6.5l-.5,25.3s1.5,28.8,1.4,33.5H141V175.9L126.9,181l1.3-7.4s6.3-24.5,7.3-27.8S141,137.5,146.9,136.3Z"/><path class="m" d="M133.4,174l21.1-3,4,7.2-19.6,8.9a10.4,10.4,0,0,1-3.5.7h0a8.5,8.5,0,0,1-7.8-5.2l-.7-1.6Z"/><path class="n" d="M173.4,167.6l-.4-.3a10.8,10.8,0,0,0-8.3-2h0a14.5,14.5,0,0,0-6.5,3.1l-3.6,2.9,3.9,6.9,2.6-3.6s2.4,3.3,2.8,2.9a4.1,4.1,0,0,0,1-1.4l-1.7-2.4,4.1.9,6.1-2.8-2.6-3.3,2.6.8Z"/><path class="m" d="M176.4,137.1s6,2,8.5,7.8c1.6,3.7,4,21.7,4,21.7l3.1,5.8a10.3,10.3,0,0,1,1.1,4.5v.9a9.3,9.3,0,0,1-2.3,6.2h0a9.4,9.4,0,0,1-6.7,3.6c-3,.3-6.7.4-7.5-.5a45.8,45.8,0,0,1-3.4-5.8l8.8-4.7-3.8-7Z"/><polygon class="d" points="167 167 153.6 183.2 154.6 184.3 176.4 181 187.2 164.8 186.2 163.9 167 167"/><path class="n" d="M181.2,171.3h0a2.1,2.1,0,0,0-1.9,1.3,4.7,4.7,0,0,1-1.3,2.1c-1,.5-2.7.9-3.5.5s-4.4-3.6-5.1-3.2a1.2,1.2,0,0,0-.5,1.8c.6.7,3.9,2.8,3.3,3.5s-7.5-2.4-8.6-2.1-1.6.9-1,1.3,5.3,2.2,5.5,2.8-7-1.8-7.3-1.4-.7,1.2,0,1.4,6.8,1.9,7.3,2.2l2.7.7,2.9.9a5.8,5.8,0,0,0,4.3-.1l.8-.3a2.6,2.6,0,0,0,1.7-2.7v-2.4l.7-2Z"/><path class="l" d="M187.2,164.8h-.4l-1.2.2-4.2.7-6.4,1-3.8.6a6.8,6.8,0,0,0-3.6,1.5,26.1,26.1,0,0,0-2.7,3l-2.4,3-4,5c-1.1,1.4-2.1,2.5-2.8,3.3l-.7.9-.3.3.2-.3.7-.9,2.7-3.5,4-5,2.3-3a26.1,26.1,0,0,1,2.7-3.1,7.4,7.4,0,0,1,3.9-1.6l3.7-.5,6.4-.9,4.3-.6h1.6Z"/><path class="e" d="M177,168.4l-.6.5c-.1.2-.2.5,0,.7s.6.2.9,0a.5.5,0,0,0,.3-.5.7.7,0,0,0-.1-.6h-.6"/><rect class="l" x="35.1" y="186.9" width="35.1" height="70.86"/><path class="l" d="M36.7,257.6h0a5.5,5.5,0,0,1-5.5-5.5V192.4a5.5,5.5,0,0,1,5.5-5.5h0a5.5,5.5,0,0,1,5.5,5.5v59.7A5.5,5.5,0,0,1,36.7,257.6Z"/><rect class="l" x="67" y="266.5" width="5.7" height="67.86"/><path class="l" d="M109.4,266.5h-81a8.8,8.8,0,0,1,8.8-8.7h63.4a8.7,8.7,0,0,1,8.8,8.7Z"/><path class="l" d="M94.7,340.6h-.8a24.1,24.1,0,0,0-48.2,0h-.8a24.9,24.9,0,1,1,49.8,0Z"/><circle class="d" cx="45.3" cy="340.1" r="3.7"/><path class="d" d="M98.1,340.3a3.7,3.7,0,0,1-3.7,3.7,3.8,3.8,0,0,1,0-7.5A3.7,3.7,0,0,1,98.1,340.3Z"/><path class="l" d="M94.4,334.4c0,.1-10.8.2-24.2.2s-24.2-.1-24.2-.2,10.8-.2,24.2-.2S94.4,334.3,94.4,334.4Z"/><path class="n" d="M58.7,183.5h0c4.3,0,7.8-2.8,7.8-15.6,0-2.5-.1-4.8-.1-4.8s6.1-.5,6.6-6.4.1-19.6.1-19.6h0A21,21,0,0,0,52,138.5l-.9.6.3,29C51.4,172.2,54.6,183.5,58.7,183.5Z"/><path class="o" d="M66.5,163a14.4,14.4,0,0,1-7.8-2.6s1.6,4.3,7.7,4.2Z"/><path class="t" d="M73.3,135.9a6.8,6.8,0,0,0-.9-2.5,2.6,2.6,0,0,0-.4-2.7,2.5,2.5,0,0,0-3.5-.2h-.1a1.4,1.4,0,0,0-.4-1.7,3.8,3.8,0,0,0-2.1-.5,33.8,33.8,0,0,0-7,2.1h-.5a12.9,12.9,0,0,0-5.6,2.5,11.6,11.6,0,0,0-3.5,6.2c-.6,2.3-.6,4.8-.1,8.8.7-.7,3.3-2.3,3.7-1.4a8.8,8.8,0,0,1,.2,1.6,1.5,1.5,0,0,0,.8,1.4,1.2,1.2,0,0,0,1.2-.6,4.2,4.2,0,0,0,.4-1.2c.1-1.9-.4-3.7-.1-5.6a7.1,7.1,0,0,1,2.9-4.5,6.6,6.6,0,0,1,5.1-1,13.6,13.6,0,0,0,3.3.6c1.7,0,3.3-1.2,4.8-.5l.8.5c.6.3.8.6,1,.3A8.4,8.4,0,0,0,73.3,135.9Z"/><path class="n" d="M52.7,145.6c-.2,0-3.9-.5-3.5,3.8s4.6,2.5,4.6,2.4S52.7,145.6,52.7,145.6Z"/><path class="p" d="M93.3,326l3.4-4.6-12.9-9-5.3,7.2.8.6c3.3,2.8,16.9,13.9,19.7,15S93.3,326,93.3,326Z"/><path class="p" d="M155.7,340.8l-1.2-5.4-15,3.4,1.8,8.5h.9c4.2-.5,21.2-3.1,23.8-4.5S155.7,340.8,155.7,340.8Z"/><g class="q"><polygon points="140.2 342.2 155.3 338.9 155.1 338.1 139.7 339.8 140.2 342.2"/></g><path class="o" d="M116.8,208a16.6,16.6,0,0,1,3-2.9c.4-.1,7.9-3.2,8.1-2.9s1,2.1-.5,2.9l-1.2.4,4.3.3s4.8,3.6,4.7,4.3-.7,1.3-1.1.9,1.1,2.5,1.1,2.5,0,1.1-.6.9a6.1,6.1,0,0,1-1.6-1.3s.9,1.5.6,1.7-1.7.4-1.8,0l-.3-.9h-.9v1.2l-12.7.4Z"/><polygon class="u" points="67.6 172.9 71.5 177.5 87 204.7 117.2 207.7 117.9 216.4 83.1 219.7 63.6 184.5 67.6 172.9"/><g class="v"><polygon points="67.6 172.9 71.5 177.5 87 204.7 117.2 207.7 117.9 216.4 83.1 219.7 63.6 184.5 67.6 172.9"/></g><path class="u" d="M70.7,186.2l-3-11.3v-3.7l-16.8-7.7-3.2,4.1.4.2c-1.4,1.4-11.2,11.9-10.6,19.7s15.4,51.4,15.4,51.4L86.5,229Z"/><path class="w" d="M67.3,175l-.9,4.7,2.4,4.6v3.4L86.5,229l5.3,1.8.9-3.5S77.9,202.1,75.4,195l-6.3-17.2Z"/><path class="u" d="M40.5,195.8c0,.4,20.4,20.2,27.8,27.4a7,7,0,0,0,6.3,1.8l37.6-7.3-1.4-8.8-28.1.8a8.5,8.5,0,0,1-7.4-3.4c-6-7.8-19.1-24.8-19.4-25.3S40.5,195.8,40.5,195.8Z"/><path class="n" d="M128.5,208.9l-7.3-2-6.1,3h-3.5l-.6.3,1,6.6h.9a8.5,8.5,0,0,0,2.9,1.1c2,.4,4.8-.8,4.8-.8l3.9-2.2,2.8-.8,2,1.2a8.1,8.1,0,0,1,.3,1.1c0,.3.7.7,1.1.7s.6-1,.6-1l-.5-2.1,1,.9h2.4v-1.5Z"/><polygon class="s" points="112.2 257.2 80.5 313.6 97.4 325.1 125.4 275.4 120.7 257.2 112.2 257.2"/><path class="r" d="M52.8,238.9s-3.7,15.3,6.2,18.5,61.2,4.7,61.2,4.7l19.1,78.8,16.3-2.3-14.1-84.5A14.3,14.3,0,0,0,130,242.5c-15.2-2.7-42.8-7.7-43.2-8.3s-2.3-4.6-2.3-4.6Z"/><polygon class="l" points="312.8 220.1 108.9 219.4 108.9 225.5 121 225.5 120.6 343.4 124.9 343.4 125.3 225.5 293.8 226.1 293.3 344 297.6 344.1 298 226.1 312.8 226.2 312.8 220.1"/><polygon class="x" points="242.8 186.7 254.1 219.7 305.3 219.7 304.9 218 284.2 217.4 274.7 186.7 242.8 186.7"/><path class="y" d="M265.5,202.2c.3,1.4-.2,2.7-1.3,3a2.3,2.3,0,0,1-2.5-2c-.4-1.3.2-2.7,1.3-2.9A2.2,2.2,0,0,1,265.5,202.2Z"/><polygon class="x" points="192.4 185.7 181.1 218.8 129.9 218.8 130.2 217.1 151 216.5 160.5 185.7 192.4 185.7"/><path class="y" d="M169.7,201.3c-.3,1.3.2,2.7,1.3,2.9a2.2,2.2,0,0,0,2.5-1.9,2.3,2.3,0,0,0-1.3-3C171.2,199,170,199.9,169.7,201.3Z"/><path class="z" d="M176.8,173.1l2.8-9s-2,8.1-1.2,8.1l12.9-1.2Z"/><path class="aa" d="M45.9,201.4,67.2,226a7.4,7.4,0,0,0,9.5,1.5l6.8-4.2L74.8,225a7.5,7.5,0,0,1-6.7-1.9Z"/><path class="t" d="M318.6,158.7a1.8,1.8,0,0,0,.5,1.6,1.5,1.5,0,0,0,1.6.1c1-.5,1.1-1.8.9-2.8s-.6-2.2-.2-3.2a13.7,13.7,0,0,1,1.6-1.8,4.9,4.9,0,0,0,1.3-4,3.9,3.9,0,0,0-2.7-3c-1.4-.4-3.2.1-4.2-.9s-.8-1.9-1.4-2.8-2.9-1.6-4.5-1.3-3.3.7-4.9.4-2.4-1.3-3.7-1.8a7.2,7.2,0,0,0-8.1,1.7,7.1,7.1,0,0,0-1.1,8.2c.5,1,1.5,3.7,4.6,3.6"/><path class="t" d="M297,150a9.4,9.4,0,0,0,8.1-.5c3-1.5,6.5-2.2,7.3-1.6s.9,3.8,3.9,4.7c0,0-.3,5.9,2.1,5.7s1.7-12,1.7-12l-6.5-.2-6.3-1.3-5.9.8-4.6,1.2Z"/><path class="n" d="M318.2,155.9c.1-.1,3.9-1.5,4,2.5a2.9,2.9,0,0,1-3.9,3.1Z"/><path class="i" d="M235.8,217.5c0-2.2,1.3-22.5-1.6-24s-13.2,14.7-20.1,14.7c-12,0-21.7,4.2-21.7,9.3s9.7,9.3,21.7,9.3S235.8,222.6,235.8,217.5Z"/><path class="ab" d="M234,192.3a12.8,12.8,0,0,1-3.9-11.6,10.9,10.9,0,0,0,.1-1.8,9.2,9.2,0,0,0-18.4.4,9.1,9.1,0,0,0,.3,2.3,12.6,12.6,0,0,1-3,11.7,17.5,17.5,0,0,0-4.8,12c0,10.8,4.1,15.9,10.1,17.6a14.8,14.8,0,0,1,5.6-1,14.2,14.2,0,0,1,5.4.9c7.4-1.5,10.9-5.1,13.3-13.4C240.6,202.8,237.6,195.5,234,192.3Z"/><path d="M234,192.3a12.8,12.8,0,0,1-3.9-11.6,10.9,10.9,0,0,0,.1-1.8,9.2,9.2,0,0,0-8.9-8.8H220v51.7a12.5,12.5,0,0,1,6,1.2c7-1.1,10.3-5.6,12.7-13.7C240.6,202.8,237.6,195.5,234,192.3Z"/><path class="y" d="M208.2,207.5c0-7,5.6-23.2,12.5-23.2s12.5,16.3,12.5,23.2a12.5,12.5,0,0,1-25,0Z"/><path class="ac" d="M220.7,184.3H220V220h.7a12.5,12.5,0,0,0,12.5-12.5C233.2,200.6,227.6,184.3,220.7,184.3Z"/><ellipse class="ad" cx="216.1" cy="180.8" rx="2.1" ry="2.8"/><ellipse class="ae" cx="216.1" cy="181.4" rx="1" ry="1.8"/><ellipse class="ad" cx="223.4" cy="180.8" rx="2.1" ry="2.8"/><ellipse class="ae" cx="223.4" cy="181.4" rx="1" ry="1.8"/><path class="af" d="M226.2,185.6c.6,1.4-4.5,4.1-6.3,4.1s-6.8-3.3-6.2-4.1,3.8-4.3,5.9-4.3S225.7,184.6,226.2,185.6Z"/><path class="ag" d="M226.2,185.6a16.5,16.5,0,0,0-6.2-4.2v8.3C221.8,189.7,226.8,187,226.2,185.6Z"/><path class="ah" d="M234,208c.9,1.7,2.2,3.4,4,3.8a3.1,3.1,0,0,1,2.4,2.7.9.9,0,0,0,.1.5,6.3,6.3,0,0,0,1.4,3.1,2.3,2.3,0,0,1-1.4,3.7l-13.1,2.4a3.3,3.3,0,0,1-3.5-5l7.3-11.4A1.6,1.6,0,0,1,234,208Z"/><path class="ai" d="M219.9,188.9a8.4,8.4,0,0,1-5.7-2.7l.7-.7c1.9,1.8,3.7,2.6,5.5,2.5a6.3,6.3,0,0,0,3.9-2.4l.8.5a6.9,6.9,0,0,1-4.6,2.8Z"/><path class="aj" d="M220.4,188H220v.9h.5a6.9,6.9,0,0,0,4.6-2.8l-.8-.5A6.3,6.3,0,0,1,220.4,188Z"/><circle cx="235.8" cy="210" r="4.2"/><path class="ab" d="M207.3,205.4s4.5,5.5,7.7,6.7-1.5,4.8-5.8,2.1S207.3,205.4,207.3,205.4Z"/><path class="ak" d="M204.9,208c-.9,1.7-2.2,3.4-4,3.8a3.2,3.2,0,0,0-2.4,2.7.9.9,0,0,1-.1.5,6.3,6.3,0,0,1-1.4,3.1,2.4,2.4,0,0,0,1.4,3.7l13.1,2.4a3.3,3.3,0,0,0,3.5-5l-7.2-11.4A1.7,1.7,0,0,0,204.9,208Z"/></g></svg>