<svg xmlns="http://www.w3.org/2000/svg" xmlns:xlink="http://www.w3.org/1999/xlink" viewBox="0 0 720 525.9"><defs><style>.a{isolation:isolate;}.b{fill:url(#a);}.c{fill:url(#b);}.d{fill:#1b1b35;}.e{fill:url(#c);}.f{fill:url(#d);}.g,.h{fill:#d3c2be;}.ag,.g,.h{opacity:0.5;}.g{mix-blend-mode:screen;}.ag,.h{mix-blend-mode:multiply;}.i{fill:url(#e);}.j{fill:url(#f);}.k{fill:#f0dcc1;}.l{fill:#ceb699;}.m{fill:#fff;}.n{fill:#c8cbda;}.o{fill:#939cbb;}.p{fill:#382632;}.q{fill:#63b4f7;}.r{fill:#288ed9;}.s{fill:#005b9f;}.t{fill:#98cdf2;}.u{fill:#1f364c;}.v{fill:#152735;}.w{fill:#21e2e2;}.x{fill:#f0d2b9;}.y{fill:#ffe7cb;}.z{fill:#f59b6b;}.aa,.ac,.ad,.ae,.aj,.ak,.al{opacity:0.78;mix-blend-mode:overlay;}.aa{fill:url(#g);}.ab{fill:#0e71bb;}.ac{fill:url(#h);}.ad{fill:url(#i);}.ae{fill:url(#j);}.af{fill:url(#k);}.ag{fill:#175dcc;}.ah{fill:url(#l);}.ai{fill:#80a7ea;}.aj{fill:url(#m);}.ak{fill:url(#n);}.al{fill:url(#o);}.am{fill:url(#p);}.an{fill:url(#q);}.ao{fill:url(#r);}.ap{fill:#00c1bc;}.aq{fill:#4987ce;}.ar{fill:#333;}.as{fill:#c0c2c1;}.at{fill:#e6e6e6;}.au{fill:#000100;}.av{fill:#fe9a0f;}.aw{fill:#e2810c;}.ax{fill:#dd7f10;}.ay{fill:#ae4e32;}.az{fill:#9e402b;}.ba{fill:#fe9b0e;}</style><linearGradient id="a" x1="359.63" y1="494.59" x2="295.01" y2="128.07" gradientUnits="userSpaceOnUse"><stop offset="0" stop-color="#c6e6ff"/><stop offset="1" stop-color="#fff"/></linearGradient><linearGradient id="b" x1="505.18" y1="311.71" x2="566.63" y2="311.71" gradientUnits="userSpaceOnUse"><stop offset="0" stop-color="#ffbc98"/><stop offset="1" stop-color="#ff9f6c"/></linearGradient><linearGradient id="c" x1="560.19" y1="323.77" x2="612.01" y2="323.77" gradientUnits="userSpaceOnUse"><stop offset="0" stop-color="#44989f"/><stop offset="0.21" stop-color="#39b0b4"/><stop offset="0.52" stop-color="#2ccbcd"/><stop offset="0.8" stop-color="#24dcdd"/><stop offset="1" stop-color="#21e2e2"/></linearGradient><linearGradient id="d" x1="534.35" y1="418.9" x2="590.55" y2="418.9" xlink:href="#b"/><linearGradient id="e" x1="545.15" y1="460.26" x2="579.76" y2="460.26" xlink:href="#b"/><linearGradient id="f" x1="531.85" y1="383.64" x2="593.06" y2="383.64" xlink:href="#b"/><linearGradient id="g" x1="432.96" y1="300.81" x2="452.72" y2="300.81" gradientUnits="userSpaceOnUse"><stop offset="0"/><stop offset="1" stop-opacity="0"/></linearGradient><linearGradient id="h" x1="353.35" y1="303.87" x2="373.8" y2="303.87" xlink:href="#g"/><linearGradient id="i" x1="416.62" y1="294.91" x2="427.68" y2="294.91" xlink:href="#g"/><linearGradient id="j" x1="379.62" y1="294.92" x2="395.18" y2="294.92" xlink:href="#g"/><linearGradient id="k" x1="133.1" y1="332.57" x2="532.89" y2="332.57" gradientUnits="userSpaceOnUse"><stop offset="0.22" stop-color="#8ab4fd"/><stop offset="1" stop-color="#c7dbfd"/></linearGradient><linearGradient id="l" x1="152.38" y1="350.49" x2="513.61" y2="350.49" xlink:href="#k"/><linearGradient id="m" x1="231.89" y1="254.57" x2="253.2" y2="254.57" xlink:href="#g"/><linearGradient id="n" x1="174.33" y1="255.42" x2="223.08" y2="255.42" xlink:href="#g"/><linearGradient id="o" x1="166.08" y1="280.1" x2="184.39" y2="280.1" xlink:href="#g"/><linearGradient id="p" x1="331.51" y1="311.3" x2="343.58" y2="311.3" gradientTransform="translate(-91 146.3) rotate(-21.6)" xlink:href="#c"/><linearGradient id="q" x1="326.57" y1="325.98" x2="341.17" y2="325.98" xlink:href="#b"/><linearGradient id="r" x1="326.57" y1="309.15" x2="341.17" y2="309.15" xlink:href="#b"/></defs><title>linu-vs-windows-german dedicated server</title><g class="a"><path class="b" d="M138,463.1s-69-73.7-34.4-153c32.9-75.6,87.8,5.5,161.8-114.4s161.1-93,184.6,4.1C477.4,313,535,271.2,565.6,321c34.9,56.8-3.2,121.5-27.2,142.1Z"/><path class="c" d="M558.9,368.8s9.7-20.5,7.4-34-14.4-10.5-11.1-26.7.4-25.7-9.2-27.4-9.9-9.6-16.5-20.6-28.1-7.1-23.7,13.7c5.8,27.5,19.4,19.5,23.7,30.4s-4.1,23.4,2.5,34.9S550.8,345.2,558.9,368.8Z"/><path class="d" d="M559.2,388.8l-1.3-.2c0-.1,1.9-16.1-1.8-38.5-3.5-20.7-12.6-51.2-36.3-79.3l1-.8c23.9,28.3,33.1,59,36.6,79.9C561.1,372.5,559.2,388.6,559.2,388.8Z"/><path class="e" d="M566.8,371.9s-8.3-17.2-6.3-28.6,12.1-8.9,9.3-22.6-.3-21.7,7.8-23,8.3-8.2,13.9-17.4,23.7-6,20,11.5c-4.9,23.2-16.4,16.4-20,25.6s3.5,19.7-2.1,29.5S573.6,352,566.8,371.9Z"/><path class="d" d="M566.5,388.8c0-.2-1.7-13.8,1.5-32.8a139.6,139.6,0,0,1,30.9-67.4l.8.7c-20,23.6-27.7,49.4-30.6,66.8s-1.5,32.4-1.5,32.5Z"/><polygon class="f" points="582.4 457.7 542.5 457.7 534.4 380.1 590.6 380.1 582.4 457.7"/><polygon class="g" points="536.7 380.1 544.9 457.7 550.3 457.7 542.1 380.1 536.7 380.1"/><polygon class="h" points="590.6 380.1 582.4 457.7 571.6 457.7 579.8 380.1 590.6 380.1"/><polygon class="h" points="589.1 394 589.6 389.2 535.3 389.2 535.8 394 589.1 394"/><rect class="i" x="545.1" y="457.7" width="34.6" height="5.06"/><rect class="h" x="545.1" y="457.7" width="34.6" height="2.53"/><rect class="j" x="531.8" y="378" width="61.2" height="11.21"/><rect class="h" x="581.7" y="378" width="11.4" height="11.21"/><rect class="g" x="533.3" y="378" width="7.6" height="11.21"/><rect class="k" x="320" y="210.8" width="50.7" height="71.58" rx="4.1"/><polygon class="l" points="365.9 276.8 323.2 277.6 324 215.2 366.7 214.4 365.9 276.8"/><rect class="m" x="324.6" y="214.8" width="42.6" height="61.39" transform="matrix(1, -0.02, 0.02, 1, -4.73, 6.8)"/><rect class="n" x="330.5" y="253.7" width="31.3" height="1.68" transform="translate(-4.9 6.8) rotate(-1.1)"/><rect class="n" x="330.6" y="257.7" width="31.3" height="1.68" transform="translate(-5 6.8) rotate(-1.1)"/><rect class="n" x="330.7" y="261.8" width="31.3" height="1.68" transform="translate(-5.1 6.8) rotate(-1.1)"/><rect class="n" x="330.7" y="266" width="17.3" height="1.68" transform="translate(-5.1 6.7) rotate(-1.1)"/><rect class="o" x="329" y="215.3" width="32.6" height="1.01"/><path class="n" d="M350.4,208.7h0a.9.9,0,0,1-.8-1.3,5.3,5.3,0,0,0,.2-2.8,4.8,4.8,0,0,0-3.5-3.5,4.6,4.6,0,0,0-5.6,4.5,5.2,5.2,0,0,0,.3,1.8.9.9,0,0,1-.8,1.3h0a10.4,10.4,0,0,0-6.9,2.6l-4.3,4h32.6l-4.4-4A10,10,0,0,0,350.4,208.7Z"/><path class="p" d="M346.5,205.6a1.2,1.2,0,0,1-1.2,1.2,1.2,1.2,0,0,1-1.2-1.2,1.1,1.1,0,0,1,1.2-1.1A1.2,1.2,0,0,1,346.5,205.6Z"/><path class="q" d="M513.4,269.4l-8.2,55.4a.8.8,0,0,0,.8.9h4a.8.8,0,0,0,.8-.6l8.2-55.4a.8.8,0,0,0-.8-.9h-4A.8.8,0,0,0,513.4,269.4Z"/><path class="r" d="M513.4,269.2a.8.8,0,0,1,.8-.7h4a.8.8,0,0,1,.8.9l-1.4,9.3-1.1,1.3a.8.8,0,0,1-1.2.1l-3-3.3Z"/><path class="r" d="M466,229.3a7.4,7.4,0,0,0,6-2.1l3.5-3.4a1,1,0,0,1,1.6.1l6.1,6.2a1.1,1.1,0,0,1,.1,1.6l-3.4,3.4a7.6,7.6,0,0,0-2.3,6c.4,5.9-2.3,13-7.8,18.9a1.6,1.6,0,0,1-2.1-.2L447.2,239a1.5,1.5,0,0,1-.1-2.1C453,231.5,460.1,228.8,466,229.3Z"/><path class="q" d="M477.7,235.8l37,39.9a1.6,1.6,0,0,0,2.4-.1l1.5-1.9a1.4,1.4,0,0,0-.1-2l-37-40c-.3-.3-1.7.2-2.7,1.4S477.5,235.5,477.7,235.8Z"/><path class="s" d="M510.8,325.1a.8.8,0,0,1-.8.6h-4a.8.8,0,0,1-.8-.9l1.3-8.6h5.6Z"/><path class="s" d="M478.5,327h36.7a2.2,2.2,0,0,0-2.2-2.3H480.8a2.3,2.3,0,0,0-2.3,2.3Z"/><path class="s" d="M514.1,272.9a1.4,1.4,0,0,0,1.4,1.4,1.4,1.4,0,0,0,1.4-1.4,1.3,1.3,0,0,0-1.4-1.3A1.4,1.4,0,0,0,514.1,272.9Z"/><path class="r" d="M514.3,272.4a1.3,1.3,0,0,0,1.3,1.4,1.4,1.4,0,0,0,1.4-1.4,1.3,1.3,0,0,0-1.4-1.3A1.3,1.3,0,0,0,514.3,272.4Z"/><rect class="t" x="396.1" y="311.2" width="8.6" height="138.02"/><path class="t" d="M394.5,410.4h11.8A2.6,2.6,0,0,1,409,413v24.3a0,0,0,0,1,0,0H391.9a0,0,0,0,1,0,0V413A2.6,2.6,0,0,1,394.5,410.4Z"/><polygon class="t" points="400.4 437.3 400.4 446.6 351.7 453.6 351.7 449.2 391.9 437.3 400.4 437.3"/><path class="t" d="M357,458.4a4.7,4.7,0,1,1-4.6-4.6A4.7,4.7,0,0,1,357,458.4Z"/><polygon class="t" points="353.1 456.1 351.7 456.1 351.7 449.2 353.1 448.8 353.1 456.1"/><polygon class="t" points="400.4 437.3 400.4 446.6 449.2 453.6 449.2 449.2 409 437.3 400.4 437.3"/><path class="t" d="M443.9,458.4a4.7,4.7,0,1,0,4.6-4.6A4.7,4.7,0,0,0,443.9,458.4Z"/><path class="t" d="M395.8,458.4a4.7,4.7,0,1,0,4.6-4.6A4.7,4.7,0,0,0,395.8,458.4Z"/><polygon class="t" points="447.8 456.1 449.2 456.1 449.2 449.2 447.8 448.8 447.8 456.1"/><rect class="p" x="399.8" y="449.2" width="1.4" height="6.97"/><rect class="p" x="360.2" y="284.9" width="80.6" height="55.05" rx="14.8"/><rect class="r" x="362" y="284.9" width="76.8" height="52.49" rx="14.1"/><path class="t" d="M400.4,379.5c-34.3,0-44.5-3.7-46-8.6-1.6,6.3,5,11.6,46,11.6s47.7-5.3,46.1-11.6C445,375.8,434.8,379.5,400.4,379.5Z"/><path class="t" d="M444.7,363.8c4.6,8,5.6,15.7-44.3,15.7s-48.8-7.7-44.2-15.7c3.9-6.5,9.1-11,44.2-11S440.8,357.3,444.7,363.8Z"/><path class="u" d="M381.9,382.3c-.7-5.3,5.4-6,7.9-6.3,6.6-.8,10.3-1.6,10.3-1.6,1.1-2.2,1.9-33.2,1.9-33.2H387s-21.4,12.4-25,18-6.1,13.8,1,28.9Z"/><path class="u" d="M435.5,387.1c1.4-8.4,9.5-14.2,3.5-27.9s-16.6-18-16.6-18H402l-1.9,33.2s16.7,1.4,18.5,7.9S435.5,387.1,435.5,387.1Z"/><path class="v" d="M422.1,379.1c-9-4.7-21.2-12.6-21.2-12.6l-12.8,5.4c-5.3,2.2-9.7,4.4-12.1,10.8l-.4,1.5,6.3-1.9c-.7-5.3,5.4-6,7.9-6.3,6.6-.8,10.3-1.6,10.3-1.6s16.7,1.4,18.5,7.9c.7,2.6,3.5,3.9,6.7,4.5C425,383.2,426.4,381.2,422.1,379.1Z"/><polygon class="w" points="424.1 461.6 404.5 461.6 405.5 463.1 424.2 463.1 424.1 461.6"/><path class="w" d="M401.5,456.1c.6-.6-1.1-3.4,1.7-6.4s6.6-2.4,7.4-2.4,1.1-.8-.1-2.7c1.8,1.4,4.1,3.3,6.5,5.4,4.2,3.7,7,5.1,7.1,11.6H404.5a79.9,79.9,0,0,1-5.1-7.3C399.6,454.6,401,456.5,401.5,456.1Z"/><path class="x" d="M407.4,442.2l3.1,2.4c1.2,1.9.8,2.7.1,2.7s-4.7-.7-7.4,2.4-1.1,5.8-1.7,6.4-1.9-1.5-2.1-1.8a61.9,61.9,0,0,1-3.5-6.8C399.3,447.7,404.9,445.8,407.4,442.2Z"/><path class="u" d="M366.4,400.5c-2.1-13.4-10.2-21.5-1.1-33.6,2.5-3.2,10.2-2.5,14.3,3.3,2.7,3.8,1.8,6.3,1.9,8.5.1,8.9,7.2,13.7,13.2,33.5s12.6,29.9,12.6,29.9h.1c-2.5,3.6-8.1,5.5-11.5,5.3-.5-1.2-.9-2.4-1.3-3.6C392.5,435.6,368.9,416.9,366.4,400.5Z"/><path class="v" d="M394.6,443.9c.4,1.2.8,2.4,1.3,3.6,3.4.2,9-1.7,11.5-5.3h-.1s-5-7.6-10.2-22.6a97.9,97.9,0,0,1-5.5,18.9A19.1,19.1,0,0,1,394.6,443.9Z"/><polygon class="w" points="375.6 461.6 395.2 461.6 394.2 463.1 375.6 463.1 375.6 461.6"/><path class="w" d="M398.1,456.1c-.7-.6,1-3.4-1.8-6.4s-6.6-2.4-7.4-2.4-1.2-.8,0-2.7c-1.8,1.4-4.1,3.3-6.4,5.4-4.2,3.7-6.9,5.1-6.9,11.6h19.6a80.4,80.4,0,0,0,4.9-7.3C399.9,454.6,398.7,456.5,398.1,456.1Z"/><path class="y" d="M391.9,442.2l-3,2.4c-1.2,1.9-.8,2.7,0,2.7s4.6-.7,7.4,2.4,1.1,5.8,1.8,6.4,1.8-1.5,2-1.8a39.3,39.3,0,0,0,3.4-6.8C400.1,447.7,394.5,445.8,391.9,442.2Z"/><path class="u" d="M432.1,400.5c1.8-13.4,9.8-21.5.3-33.6-2.5-3.2-10.2-2.5-14.2,3.3-2.6,3.8-1.7,6.3-1.7,8.5,0,8.9-6.9,13.7-12.5,33.5s-12,29.9-12,29.9h-.1c2.6,3.6,8.2,5.5,11.6,5.3a25.3,25.3,0,0,0,1.2-3.6C406.7,435.6,429.9,416.9,432.1,400.5Z"/><path class="z" d="M404,251.5c-4.9,0-12.5,5.1-12.5,11s4.8,54.2-4.5,78.7h35.4s-6.8-43.4-6.8-60.8S420.6,251.5,404,251.5Z"/><path class="r" d="M440.9,271.2c2.3,3.3,9,31.7,12.4,40a50.5,50.5,0,0,1,2,5.8H437.8c-2.2,0-4.6-8.9-4.8-13.3s2.9-20.9,5.4-26.7Z"/><path class="aa" d="M444.1,312.1c-1.4-1.3-6-17.5-8.1-27.5-1.7,7.1-3.2,16.1-3,19.1s2.6,13.3,4.8,13.3h9.7l5.2-2.9C448,311.7,445.8,313.6,444.1,312.1Z"/><path class="r" d="M455.3,317c2,4.7,1.3,8.5-.9,10.4s-10.3.8-15.4,1.9v-1.4s3.1-7.3.5-10.9v-2.4s.6.5,2.1.1S452.5,310.4,455.3,317Z"/><path class="z" d="M439,327.9s3.1-7.3.5-10.9Z"/><path class="r" d="M421.6,263.1c12.6,4.3,19.5,6.6,19.3,8.1s-4.7,12-7.2,27.9-3.2,20.2-.5,29,9.3,23.8,10.6,31.1,2.3,14.5-.9,16.8a36.3,36.3,0,0,0-11.2-20.4c-9.9-9.1-15.2-9.8-15.2-28.8S421.6,263.1,421.6,263.1Z"/><path class="r" d="M385.4,263.1c-8.4,4.1-19.2,7.9-19.2,7.9a64.6,64.6,0,0,1,5.4,22.5c.3,11.9,5,18.9,4.2,29.5s-17.6,24-13.8,36.2c0,0,4.4-4.8,13.6-8.4s18.8-11.7,19.6-30.6S385.4,263.1,385.4,263.1Z"/><path class="y" d="M394.1,247.2s-.5,11.2,0,15.5,9.4,21.1,9.4,21.1,9.4-5.2,10.2-18.3.2-17.8.2-17.8Z"/><path class="x" d="M394.1,247.2s-.3,6-.2,10.9,5,10.7,10.1,10.7,7.8-3,9.9-6.9c.5-10.4,0-14.2,0-14.2Z"/><path class="x" d="M413.9,247.8c-.6,2.3-.3,4.3.6,4.6s2.2-1.5,2.8-3.8.2-4.3-.7-4.6S414.5,245.5,413.9,247.8Z"/><path class="x" d="M393.7,247.8c.6,2.3.3,4.3-.6,4.6s-2.2-1.5-2.7-3.8-.3-4.3.6-4.6S393.2,245.5,393.7,247.8Z"/><path class="ab" d="M417.3,242.2a4.6,4.6,0,0,1,1.6-2.1,4.1,4.1,0,0,0,1.6-2.1,1.7,1.7,0,0,0-.9-2.2,5,5,0,0,0,.4-5.9,4.7,4.7,0,0,0-5.5-1.9,4.9,4.9,0,0,0,.7-3.5c-.4-1.2-1.9-2-2.9-1.3a4.9,4.9,0,0,0-2.1-5.1,12.2,12.2,0,0,0-5.6-1.7c-3.1-.2-6.3.1-8.9,1.8s-4.2,5.1-3.1,7.9a3.2,3.2,0,0,1,.4,1.6c-.3.8-1.3,1.1-2.1,1.2a12.4,12.4,0,0,0-5.5,2.1,5.2,5.2,0,0,0-2.1,5.2,3.5,3.5,0,0,0,4.7,2.3c-1,1-1.3,3.3-1,4.6,1.7,5.8,6.4,4.5,7.1,4.1s1.2-2,2.1-2.7,2.6-.2,3.8.3c4.4,1.9,8.7,1.8,13.2,2.8,1,.2,2.7,1.1,3.7.3S416.8,243.8,417.3,242.2Z"/><path class="y" d="M393.7,240.3a2.4,2.4,0,0,0-2.2,2.6c.3,9.8,5.5,17.6,12.2,17.6s11.1-6.3,11.8-12.8a3.8,3.8,0,0,0-.8-2.7c-1-1.2-2.6-4.3-2.3-10.8C412.4,234.2,406.4,238.9,393.7,240.3Z"/><path class="r" d="M366.2,271c-3,1.1-4,13.7-11.2,29.6s-6.4,23.4-3.1,26.2c0,0,16.2-10.8,20.3-12.3,0,0,2.5-2.4,1.2-8.5S371.4,269.1,366.2,271Z"/><path class="ac" d="M373.4,306c-.6-2.9-1.1-12.3-2.1-20.6-1.1,7.4-4.2,16.7-7.3,24.4a1.9,1.9,0,0,1-1.4,1.2c-6.2,1.4-8.3,5.1-9.3,10.1,0,0,5.9.1,5.4,1.2,4.9-3.1,11.1-7,13.5-7.8C372.2,314.5,374.7,312.1,373.4,306Z"/><path class="r" d="M374.4,314.1c0-1-1.6-1.1-4.9-.8s-4.6-.5-6.8,0c-9.9,2.2-10,10.9-10.8,13.5,0,0,2.4,1.6,10.9,1.6,6.2,0,12.8,1.7,13.8-1.6,0,0-1.5,1.4-5,1.3s-6.7-3.8-5.7-8.6S374.4,314.1,374.4,314.1Z"/><path class="z" d="M376.6,326.8s-1.5,1.4-5,1.3-6.7-3.8-5.7-8.6,8.5-5.4,8.5-5.4h1a2.1,2.1,0,0,1,2.1,2.2Z"/><path class="x" d="M382.5,318.9c0,2.4-2.6,6-5.9,6a6,6,0,0,1-5.8-6c0-2.3,2.6-4.3,5.8-4.3S382.5,316.6,382.5,318.9Z"/><path class="ad" d="M427.6,273.9c.3-.5-.3-1-.9-.9l-3.3.8h-.1c.6-.6,3.8-4.4,2.5-7.5a9.7,9.7,0,0,0-1.9-2.5l-2.3-.7s-4.4,38.7-5,59.4c.1,1.5.1,3,.2,4.3C416.8,305.5,424.1,279.9,427.6,273.9Z"/><path class="r" d="M424.6,273l-2.7.8h-.1c.5-.6,3.1-4.4,2-7.5s-4.7-5.9-7.5-7.6l-.5-.2c1.2,5-.2,12.6-.2,21.9,0,12.6.6,35,.9,46.4,0-21.3,6-46.9,8.8-52.9A.6.6,0,0,0,424.6,273Z"/><path class="ae" d="M395.2,317.4c-.3-19.6-9.8-54.3-9.8-54.3l-2.7,1.3a5.4,5.4,0,0,0-1.3,1.9c-1.3,3.1,1.8,6.9,2.3,7.5h-.1l-3.1-.8c-.6-.1-1.1.4-.8.9,3.3,6,17,32.3,14.6,52.9A66.7,66.7,0,0,0,395.2,317.4Z"/><path class="r" d="M390.8,258.7a9.9,9.9,0,0,1,2.3-1,8.6,8.6,0,0,0-1.6,4.8c0,5.3,5.8,43.6,2.8,64.3,2.1-20.6-9.7-46.9-12.6-52.9a.7.7,0,0,1,.8-.9l2.6.8h.1c-.5-.6-3.1-4.4-2-7.5S388,260.4,390.8,258.7Z"/><path class="s" d="M437.5,331.5H378.4a1.5,1.5,0,0,1-1.5-1.3l-1.3-36.1a1.3,1.3,0,0,1,1.4-1.4h61.9a1.4,1.4,0,0,1,1.4,1.4L439,330.2A1.5,1.5,0,0,1,437.5,331.5Z"/><path class="af" d="M513.6,338.4H152.4a22.5,22.5,0,0,1-14.3-4.9l-5-4.2c0-1.4,1.4-2.5,3.2-2.5H529.7c1.8,0,3.2,1.1,3.2,2.5l-5,4.2A22.5,22.5,0,0,1,513.6,338.4Z"/><path class="ag" d="M152.4,338.4H513.6a22.5,22.5,0,0,0,14.3-4.9H138.1A22.5,22.5,0,0,0,152.4,338.4Z"/><rect class="ah" x="152.4" y="338.4" width="361.2" height="24.26"/><rect class="ag" x="152.4" y="338.4" width="361.2" height="10.21"/><path class="ai" d="M168.8,463.1h0a2.5,2.5,0,0,1-2.3-2.5l-3.2-122.2h11l-3.2,122.2A2.4,2.4,0,0,1,168.8,463.1Z"/><polygon class="ag" points="163.3 338.4 163.6 348.6 174 348.6 174.3 338.4 163.3 338.4"/><path class="ai" d="M497.2,463.1h0a2.5,2.5,0,0,0,2.3-2.5l3.2-122.2h-11l3.2,122.2A2.4,2.4,0,0,0,497.2,463.1Z"/><polygon class="ag" points="502.7 338.4 502.4 348.6 492 348.6 491.7 338.4 502.7 338.4"/><path class="w" d="M284.1,390.6c-4.5,6-5.6,5.2-5.6,8.8s6.3,8,8.9,19.8c1.9,8.8,6.2,11.7,10.9,9.9s2.7-9.1,1.3-13.2-2.3-11.9-2.3-11.9Z"/><path class="y" d="M284.1,390.6c-.2,4.7,2.1,8.3,6.5,9.6Z"/><path class="u" d="M237.6,288.8c22.9,12,60.3,26.3,64.8,31.9,11.9,15.2-5.4,65.7-5.1,83.3a7.5,7.5,0,0,1-8.1-3.6c-3.1-5.8-4.4-7.2-5.1-9.8,0,0,1.4-17.9-.3-29.6s-4.8-17.2-1.8-25c0,0-40.7-12.9-50.3-7.7l-13.4-30.8Z"/><path class="v" d="M284.9,331.1c-1.3-3.3-43.9-12.8-54.8-18.7l-3.1,5.1,4.7,10.8c9.6-5.2,50.3,7.7,50.3,7.7-3,7.8.2,13.3,1.8,25s.3,29.6.3,29.6a11.4,11.4,0,0,0,1.6,3.6c1-10,3.4-23.9-.8-38.4C279.4,337.3,286.2,334.3,284.9,331.1Z"/><path class="w" d="M253.3,449.6c1,4.8-2.2,6.3-1.1,12.6a1.1,1.1,0,0,0,1,.9h25.1a1.1,1.1,0,0,0,1-1.4,9.6,9.6,0,0,0-3-4.7c-1.7-1.4-9.2-3.3-10.5-7.3Z"/><path class="u" d="M184.3,299c-6.7,14.7-4.3,28.5,9.6,38.2s38.1,38.6,37.7,40-4.4,18.7,8.6,41.3,13.1,31.1,13.1,31.1h12.5s-6.7-38.8-8.4-52.6,1-21-2.8-27.4-19.7-31.3-19.7-40,2.5-24.8-6.5-33S184.3,299,184.3,299Z"/><path class="r" d="M235.1,216.8c7.4,8.3,12.4,27.6,9.5,46.4-.3,1.8,7.2,12.3,8.6,17.9l-15.6,7.7s-1.9-5.8-4.8-18S235.1,216.8,235.1,216.8Z"/><path class="aj" d="M242.5,282.1c-4.1-1-5.9-12.1-5.7-14.4.9-9.2,7-20.8,3-38.6a16,16,0,0,0-5.1-8.8c-1.2,10.4-4.3,40.4-1.9,50.5,2.9,12.2,4.8,18,4.8,18l15.6-7.7S246.6,283.2,242.5,282.1Z"/><path class="r" d="M237.6,288.8a11.6,11.6,0,0,0,4.8,6.3h.2l17.4-7.6a.4.4,0,0,0,.1-.3c-.2-1-1.4-5.9-4.4-8.7h-.3l-17.7,10A.4.4,0,0,0,237.6,288.8Z"/><path class="r" d="M237.6,283.6c-1.9-7.4-5.3-10.5-2.6-18.9,3.5-11.1,7.1-21.1,4.8-35.6s-13.9-25-23.1-25.1c-7.2,0-23.8,7.2-31.4,15.8-6.4,7.1-10.8,18.2-11,32.2-.2,22.3,6.1,28.1,4.3,42.3-.9,7.2,1.1,11.8,4.6,12.4s17.9-3.2,31.5-3.4C232.6,303.1,239.4,290.8,237.6,283.6Z"/><path class="ak" d="M197.7,222c6.2-7.3,16.1-10.1,25.4-13.8l-.3-2.8a17.4,17.4,0,0,0-6.1-1.4c-7.2,0-23.8,7.2-31.4,15.8-6.4,7.1-10.8,18.2-11,32.2-.2,22.3,6.1,28.1,4.3,42.3-.9,7.2,1.1,11.8,4.6,12.4s9.7-1.2,18.3-2.3h0c-5-1.8-2.2-4.2-3.5-8.9s-10.9-7.6-6.1-19.8c3.8-9.8,1.6-20.3,8.8-30.3C206.3,237.7,192.8,227.8,197.7,222Z"/><path class="y" d="M243.9,212.1l-3-.7-11.6,10.7s-9.7-10.9-12.6-18.1l22.2-20.8Z"/><path class="x" d="M238.9,183.2,216.7,204a22.4,22.4,0,0,0,3,5.5c9.8-2.2,15.7.8,21.2,1.9l3,.7Z"/><path class="ab" d="M254.7,183.5c-.9-.4-2-.4-2.8-1s-1.2-3.3-1.3-5.2a7.2,7.2,0,0,0-4.2-6.5c-2.5-1.1-5.9,0-6.9,2.6a4,4,0,0,0-.4-3.8,9,9,0,0,0-2.8-2.7,11,11,0,0,0-5.9-2.2,5.5,5.5,0,0,0-5.2,3.1c-.5,1.4-.2,3-.2,4.6s-.4,3.4-1.9,4-3.4-.4-5.1,0-3,2.9-3.3,4.9a12.2,12.2,0,0,0,.2,6.3,5.6,5.6,0,0,0,4.8,3.6,5.9,5.9,0,0,0-5.7,4.1,7.6,7.6,0,0,0,1.9,7,10.6,10.6,0,0,0,6.7,3.2,21.1,21.1,0,0,0,7.5-.7,10.5,10.5,0,0,0,3.2-1.5,3.8,3.8,0,0,0,1.6-3c-.1-.9-.5-1.6-.6-2.4s.1-1.9.9-2.1a4.4,4.4,0,0,0,.3,2.8,1.6,1.6,0,0,0,2.4.6,2.1,2.1,0,0,0,.4-1.4,12.9,12.9,0,0,0-.8-2.6,3.4,3.4,0,0,1-.1-2.6,1.7,1.7,0,0,1,2.2-1.1,2.6,2.6,0,0,1,1.1,1.7c.5,1.6,1.1,3.2,1.6,4.8a6.8,6.8,0,0,0,1.2,2.4,2.3,2.3,0,0,0,2.3,1c1.2-.2,1.8-1.5,2.3-2.7,1-2.9,1-7.4,4.3-8.6,1.5-.6,3.3-.7,3.9-2.5A3.3,3.3,0,0,0,254.7,183.5Z"/><path class="y" d="M242.7,194c.6-4-2.3-6-3.5-4.9s-1.3,10.1,1.7,9.9-2.7,10.1,3,13.1c0,0,2.8,1.4,5.7-5.7s1.9-18.7,1.9-18.7a1.6,1.6,0,0,0-2.4,1.4c-.4,2.4-2.8,9.1-4.1,9S242.5,195.2,242.7,194Z"/><path class="r" d="M184.4,279.1a38.8,38.8,0,0,1-.9-6s10.1-19.6,15.7-25.9,11.7-16.2,6.2-25.1-14.9-10.3-24.9,2.9-20.5,37.9-19.8,44.6,5.4,14.9,5.4,14.9Z"/><path class="y" d="M185.5,292h0c-2.9,1.2-8,2.4-15.1.4h0c3.6,6.9,13.9,19.3,19.8,24.8s5.3,11.1,10.4,11.1V312.6Z"/><path class="x" d="M197.3,324.6c-2-1.8-3.8-7.4-10.1-14.5s-5.8-13.8-.3-16.1l-1.4-2h0c-2.9,1.2-8,2.4-15.1.4h0c3.6,6.9,13.9,19.3,19.8,24.8s5.3,11.1,10.4,11.1V312.6l-1.7-2.3C198.9,315.8,198.7,325.8,197.3,324.6Z"/><polygon class="al" points="166.1 284.5 183.8 275.7 184.4 279.1 166.1 284.5"/><path class="r" d="M166.1,284.5l20.5-6.2,1.6,11.3a1.4,1.4,0,0,1-.7,1.4c-2.3,1.4-9.9,5-21.8-.2a1.6,1.6,0,0,1-.8-1.3C164.9,288.2,165,285.9,166.1,284.5Z"/><path class="y" d="M242.6,295.1c7.2,5.7,20.8,12.8,21.5,14.6s.3,4,.8,7.5-1.1,6.1,1.5,6.3,4-4.4,4-4.4,2,3,2.2,4.4-1.4,4.9-1.4,4.9-2.8,1.7-2.5,2.4,5.7-.1,7.7-2.4,2.7-5.3,3-6.4v-.8c-.3-2-1.6-10.8-3.1-12.7s-18.7-20-18.7-20Z"/><path class="x" d="M258.2,289.2l-.6-.7-15,6.6c7,5.5,19.7,12.3,21.4,14.3-2.3-3.7-12.6-9.7-13.3-13.1S253.4,290.9,258.2,289.2Z"/><rect class="k" x="260.3" y="210.8" width="50.7" height="71.58" rx="4.1"/><polygon class="l" points="306.3 276.8 263.6 277.6 264.4 215.2 307 214.4 306.3 276.8"/><rect class="m" x="265" y="214.8" width="42.6" height="61.39" transform="translate(-4.7 5.6) rotate(-1.1)"/><rect class="n" x="270.9" y="253.7" width="31.3" height="1.68" transform="translate(-4.9 5.6) rotate(-1.1)"/><rect class="n" x="270.9" y="257.7" width="31.3" height="1.68" transform="translate(-5 5.6) rotate(-1.1)"/><rect class="n" x="271" y="261.8" width="31.3" height="1.68" transform="translate(-5.1 5.6) rotate(-1.1)"/><rect class="n" x="271.1" y="266" width="17.3" height="1.68" transform="matrix(1, -0.02, 0.02, 1, -5.16, 5.52)"/><rect class="o" x="269.4" y="215.3" width="32.6" height="1.01"/><path class="n" d="M290.8,208.7h0a1,1,0,0,1-.9-1.3,4.5,4.5,0,0,0,.3-2.8,4.8,4.8,0,0,0-3.5-3.5,4.6,4.6,0,0,0-5.6,4.5,5.2,5.2,0,0,0,.3,1.8.9.9,0,0,1-.8,1.3h0a10.2,10.2,0,0,0-6.9,2.6l-4.3,4H302l-4.4-4A10.1,10.1,0,0,0,290.8,208.7Z"/><path class="p" d="M286.8,205.6a1.1,1.1,0,0,1-1.1,1.2,1.2,1.2,0,0,1-1.2-1.2,1.1,1.1,0,0,1,1.2-1.1A1.1,1.1,0,0,1,286.8,205.6Z"/><rect class="am" x="336.9" y="296.4" width="1.2" height="29.72" transform="translate(138.5 -102.5) rotate(21.6)"/><rect class="s" x="328.9" y="301.9" width="1.1" height="10.66" rx="0.2" transform="translate(-46.8 59.5) rotate(-9.6)"/><rect class="r" x="329.5" y="303.1" width="2.1" height="20.79" rx="0.3" transform="translate(-47.8 59.7) rotate(-9.6)"/><rect class="z" x="327" y="309" width="13.7" height="17.13"/><rect class="an" x="326.6" y="325" width="14.6" height="1.93" rx="0.5"/><rect class="ao" x="326.6" y="308.2" width="14.6" height="1.93" rx="0.5"/><path class="w" d="M345.3,225.7l10.6-1.6h.2v9.6c0,.1,0,.2-.1.2H344.8v-8.1h.5Z"/><path class="w" d="M335.8,227.1l7.8-1.1h.2V234h-.2l-8.3.2v-7c0-.1,0-.1.1-.1Z"/><path class="w" d="M335.5,235.1h8.2a.2.2,0,0,1,.2.2v7.9c0,.1,0,.2-.1.2l-8.3-1.1h-.1v-6.9Z"/><path class="w" d="M345.4,235.1H356c.1,0,.1.1.1.2v9.6h-.1L345,243.4h-.1v-8.1h.5Z"/><path class="ap" d="M345.7,234v-8.2c0-.1,0-.1.1-.1h-.9V234h.9Z"/><path class="ap" d="M336.2,234.1v-7h-.7c-.1,0-.1,0-.1.1v7h.9Z"/><path class="aq" d="M343.8,235.1h0Z"/><path class="ap" d="M336.2,242.3v-7.1h-.9v6.9h.8Z"/><path class="ap" d="M345.8,243.5v-8.3h-.8v8.1h.9Z"/><path class="ar" d="M291.8,232a5.9,5.9,0,0,1-1.7-5.2V226a4.1,4.1,0,0,0-4-3.9,4.1,4.1,0,0,0-4.2,4.1,3.1,3.1,0,0,0,.1,1,5.5,5.5,0,0,1-1.3,5.2,7.9,7.9,0,0,0-2.1,5.4c0,4.8,1.8,7.1,4.5,7.8a6,6,0,0,1,2.5-.4,5.7,5.7,0,0,1,2.4.4c3.3-.7,4.8-2.3,5.9-6A7.9,7.9,0,0,0,291.8,232Z"/><path d="M291.8,232a5.9,5.9,0,0,1-1.7-5.2V226a4.1,4.1,0,0,0-4-3.9h-.5v23.1a6,6,0,0,1,2.6.5c3.2-.5,4.6-2.5,5.7-6.1A7.9,7.9,0,0,0,291.8,232Z"/><path class="m" d="M280.3,238.8c0-3.1,2.5-10.4,5.6-10.4s5.6,7.3,5.6,10.4a5.6,5.6,0,0,1-11.2,0Z"/><path class="as" d="M285.9,228.4h-.3v15.9h.3a5.6,5.6,0,0,0,5.6-5.6C291.5,235.7,289,228.4,285.9,228.4Z"/><ellipse class="at" cx="283.8" cy="226.9" rx="0.9" ry="1.2"/><ellipse class="au" cx="283.8" cy="227.1" rx="0.5" ry="0.8"/><ellipse class="at" cx="287.1" cy="226.9" rx="0.9" ry="1.2"/><ellipse class="au" cx="287.1" cy="227.1" rx="0.5" ry="0.8"/><path class="av" d="M288.3,229c.3.6-2,1.9-2.8,1.9s-3-1.5-2.7-1.9,1.6-1.9,2.6-1.9A6.7,6.7,0,0,1,288.3,229Z"/><path class="aw" d="M288.3,229a7.2,7.2,0,0,0-2.7-1.9v3.7C286.4,230.8,288.6,229.6,288.3,229Z"/><path class="ax" d="M291.8,239a3,3,0,0,0,1.8,1.7,1.4,1.4,0,0,1,1.1,1.2v.2a3,3,0,0,0,.6,1.4,1,1,0,0,1-.6,1.6l-5.8,1.1a1.5,1.5,0,0,1-1.6-2.2l3.2-5.1A.8.8,0,0,1,291.8,239Z"/><path class="ay" d="M285.5,230.5a3.7,3.7,0,0,1-2.5-1.2l.3-.3a3.5,3.5,0,0,0,2.4,1.1,2.8,2.8,0,0,0,1.8-1.1l.3.2a2.8,2.8,0,0,1-2,1.3Z"/><path class="az" d="M285.7,230.1h-.1v.4h.2a2.8,2.8,0,0,0,2-1.3l-.3-.2A2.8,2.8,0,0,1,285.7,230.1Z"/><circle cx="292.6" cy="239.9" r="1.9"/><path class="ar" d="M279.9,237.8s2,2.5,3.5,3-.7,2.2-2.6,1S279.9,237.8,279.9,237.8Z"/><path class="ba" d="M278.9,239a3.6,3.6,0,0,1-1.8,1.7,1.4,1.4,0,0,0-1.1,1.2v.2a3.1,3.1,0,0,1-.7,1.4,1,1,0,0,0,.6,1.6l5.9,1.1a1.4,1.4,0,0,0,1.5-2.2l-3.2-5.1A.7.7,0,0,0,278.9,239Z"/></g></svg>