<svg xmlns="http://www.w3.org/2000/svg" xmlns:xlink="http://www.w3.org/1999/xlink" viewBox="0 0 400 400"><defs><style>.a{font-size:38.64px;font-family:AdobeArabic-Regular, Adobe Arabic;}.a,.p{fill:#fff;}.b{fill:url(#a);}.c{fill:#ffe7cb;}.d{fill:#362d70;}.e{fill:#c4af9b;}.f{fill:#30a2cf;}.g{fill:#18a9c0;}.h{fill:#516aae;}.i{fill:#263876;}.j{fill:#d1e8f8;}.k,.m,.n,.o,.s{fill:none;stroke-miterlimit:10;}.k{stroke:#30a2cf;stroke-width:0.91px;}.l{fill:#5c8aa3;}.l,.o{opacity:0.35;}.m{stroke:#53b748;}.m,.n,.s{stroke-linecap:round;}.m,.n{stroke-width:2.27px;}.n{stroke:#ec1c24;}.o{stroke:#5c8aa3;stroke-width:1.06px;}.q{fill:#28aae1;}.r{fill:#91a8b1;}.s{stroke:#fff;stroke-width:1.12px;}.t{fill:#c1c7d2;}</style><linearGradient id="a" x1="20.6" y1="284.53" x2="280.61" y2="284.53" gradientUnits="userSpaceOnUse"><stop offset="0" stop-color="#c6e6ff"/><stop offset="1" stop-color="#fff"/></linearGradient></defs><title>parspack dedicated server</title><text class="a" transform="translate(40.7 -46.2)"><tspan xml:space="preserve"> کپ سراپ یصاصتخا روس  یایازم*</tspan></text><path class="b" d="M35.2,356.6a3.3,3.3,0,0,1-2.7-1.5c-4.1-6.5-19.1-33.1-7.7-58.6,13-29.4,37.9-22.4,72.7-52.3,42.3-36.2,72-38.2,109.8-22.3,21.4,8.9,24.8,45.7,58.8,68.6,30.6,20.6,5.7,55.7-10.4,61.1s-27,5-27,5Z"/><path class="c" d="M117.1,222.7c-1.6,3.6-6.4,8.4-10.3,9-13.3,1.9-19.1-6.4-21.1-9.4l1-.3a8,8,0,0,0,4.8-6.5,70.6,70.6,0,0,0-.5-15.1l18.2,6.4c.2,1.3.4,2.7.5,4.1s.1,1.7.1,2.6a17,17,0,0,1,.1,2.2,6.1,6.1,0,0,0,3.6,5.4Z"/><path class="d" d="M113.4,186.9a10.3,10.3,0,0,0,2.5,7.1,6.5,6.5,0,0,0,4.4,3c1.9.3,2-23.2,1.1-24.4a6,6,0,0,0-5.7-2.2"/><path class="e" d="M109.8,213.5a25,25,0,0,1-4.3.3c-4.3-.7-6.7-3.2-7.6-5.7a27,27,0,0,0,11.8,2.8C109.7,211.8,109.8,212.6,109.8,213.5Z"/><path class="c" d="M114,168.9c8.7,7.5,12.4,38.8,8.3,40.6-7.7,3.4-22.2,3-29-2.3s-7.6-19-7.7-27.5,1.8-18,11.5-17.7A26.9,26.9,0,0,1,114,168.9Z"/><path class="d" d="M89.9,177.8a8.2,8.2,0,0,0,8.9.9c1-.5,1.9-1.3,3.1-1.8s3.8-.4,5.7-.3a24.9,24.9,0,0,0,8.2-.8,9.1,9.1,0,0,0,3.8-1.6,18,18,0,0,0,2-1.9,4.5,4.5,0,0,1,1-1.3l1-.6c2.4-1.5,2.8-5.7.5-7.5l-.9-.5a3.9,3.9,0,0,0-2.3.7,8.4,8.4,0,0,0-1.1-4.1,5.4,5.4,0,0,0-3.8-2.1,14,14,0,0,0-4.5.6l-4.3,1.7a7.3,7.3,0,0,1-2.3.9,12.7,12.7,0,0,1-2.8-.6,12.9,12.9,0,0,0-4.8.2c-2.8.5-5.8,1.3-8,3.1s-4,5.2-3,8.3"/><path class="d" d="M93.9,174.3a8.8,8.8,0,0,1,2.7,5.3,16.6,16.6,0,0,1,0,9.1c-.2.9.1,4.8-.7,4.7s-.8-2.9-1.5-4.4-4.7-2.6-5.8-.9,0,5.9.6,7.3,1.7,2.2,2.1,3.3,1.4,7.1.6,8.5-2.4-3.8-3.3-4.8c-6.9-6.7-11.5-28.5-4-32,1.4-.7,3.1-1.3,4.6-.7"/><path class="f" d="M134.8,341.4c-4.6,6.1-22.3,5.8-29.9,5.4-29.3-1.6-38.3-5.4-38.3-5.4-5.5-1.7.1-7.3.2-10,.8-23-3.9-59-3.9-59l9.7-46.9a110.6,110.6,0,0,1,13.8-3.6s5.8,9.6,16.6,9.7a12.2,12.2,0,0,0,12.7-9.7,68.3,68.3,0,0,1,16.2,5.2l3.1,43-.6,58.3a21.3,21.3,0,0,0,1.2,6.1C136.4,336.7,137,339.9,134.8,341.4Z"/><path class="c" d="M146.8,248.3s11.3,22.3,12.7,25.2c4.3,9.6-4.5,22.2-12.6,12.5-3.9-4.5-18.8-25.2-18.8-25.2"/><path class="e" d="M149,256.1s-3,18.1,0,27.7l5.6-22.6Z"/><path class="c" d="M70.8,262.6s-2.1,5.5-5.2,11.5a72.3,72.3,0,0,1-4.5,7.6,28.7,28.7,0,0,1-6.1,7c-8.1,5.9-15.7-2.6-15.2-4.9s7.3-23.1,7.3-23.1Z"/><path class="e" d="M65.6,274.1a72.3,72.3,0,0,1-4.5,7.6H54.7l-6.1-3.8A49.2,49.2,0,0,1,65.6,274.1Z"/><path class="f" d="M136.7,229.5a75.5,75.5,0,0,0-13.3-5.7l3.8,10.3-.9.2s-2.6,13-2.6,13.4,5.1,15.1,5.1,15.1l5.9,8.4a43,43,0,0,0,18.9-11.5S142.7,233.4,136.7,229.5Z"/><path class="f" d="M62.1,229.5a128.6,128.6,0,0,1,14.7-5.4l-2.9,10,1,.2s2.7,13.1,2.5,13.5a155,155,0,0,1-10.8,25.6S54.7,270.9,45.1,263C45.1,263,54.6,233.6,62.1,229.5Z"/><path class="g" d="M133.1,243.3c.8,5.9,1.3,11.9,1.7,17.9s.7,12,.6,18-.2,12.1-.2,18.1-.3,12-.6,18c-.2-6-.2-12-.3-18s0-12.1.2-18.1-.1-11.9-.3-17.9S133.5,249.3,133.1,243.3Z"/><path class="c" d="M175.6,226.4l-.8-2.4-5.6-2.7-4.6,2.4-1.6,7.1.3.8h-1.1a112,112,0,0,1-4.1,14.3c-2.4,6.6-6,13.5-7.2,17.2-.4,1.1-.8,2.5-1.3,4.2h0l-.3,1.2v.2h0c-1.2,4.6-4.3,18.3,2.5,20.7,12.2,4.4,15.4-19.9,15.4-19.9,1-9.5,1.6-20.3,2-27.9a16.8,16.8,0,0,1,2.2-7.3,13.1,13.1,0,0,1,3.2-2.5C177.2,230,175.6,226.4,175.6,226.4Z"/><path class="c" d="M162.2,231.9s.2-14.8,2.9-19.5a1.8,1.8,0,0,1,2.1,1.4c.6,1.8-.9,4.9-.3,6.6s1.6.9,2.8,0,8.5-10.6,9.7-10.6.6,1.5.2,2.4l-4.2,6.4s7-9.3,8.5-7.8-5.7,9.3-5.7,9.3,5.6-7.5,6.6-6.1-4.1,7-4.1,7,3-3.8,3.7-3.1-3.2,6.4-4.3,8.1-4.3,5.1-5.8,5.8-2.8,1-3.2,2.2"/><rect class="h" x="63.7" y="251.9" width="44.5" height="64.59" transform="translate(74.8 -12.5) rotate(14.7)"/><rect class="i" x="63.7" y="251.9" width="44.5" height="64.59" transform="translate(56.6 -11.3) rotate(11.2)"/><path class="c" d="M64.9,277.1H59.1c-4.8-.1-18.8.5-19.4,7.6-.5,5.5,9.3,8.3,20.8,8.5,15.5.1,34.3-3.7,34.6-3.8l-.7-8.5C84.4,280.6,68.8,277.3,64.9,277.1Z"/><path class="c" d="M111.7,281c-.1-.9-1.1-1.7-2.8-2.4h.1c1.4.2,1.9-.9,1.6-1.4s-3.7-2.5-4.7-2.3-6,2.9-8.1,3.7a12.4,12.4,0,0,1-5.6,2L91,290.1a17.6,17.6,0,0,1,6.1,0,33.5,33.5,0,0,0,10.1,1.1v.4a4.4,4.4,0,0,0,2.4-.7c.9-.8.2-2.3.2-2.3a1.6,1.6,0,0,0,.7-1.3,2.4,2.4,0,0,0-.2-1.4,4.9,4.9,0,0,0,1-1.6,6.1,6.1,0,0,0-.3-1.5S111.9,281.6,111.7,281Z"/><path class="i" d="M140.6,370.3H65.7c-.2-3.5-.8-8.3-1-13.2s0-11.6,1.9-15.7c9.7,2.1,28.6,3.6,41.4,3.1s23.9-2.2,26.8-3.1c.5,1.9,1.8,7.7,3.4,15.7C139,361,139.8,365.5,140.6,370.3Z"/><path class="j" d="M366.9,70.4H184.6c-10.6,0-19.2,8.1-19.2,18.1v40.3a90.5,90.5,0,0,1-24.3,61.7H141a450.2,450.2,0,0,1,85.1-8.1H366.9c10.6,0,19.2-8.1,19.2-18.1V88.5C386.1,78.5,377.5,70.4,366.9,70.4Z"/><rect class="k" x="353.5" y="98.4" width="9.9" height="9.93"/><rect class="k" x="353.5" y="113.8" width="9.9" height="9.93"/><rect class="k" x="353.5" y="129.3" width="9.9" height="9.93"/><rect class="k" x="353.5" y="144.7" width="9.9" height="9.93"/><rect class="l" x="291" y="101.2" width="56.6" height="4.35" rx="1.6"/><rect class="l" x="291" y="116.6" width="56.6" height="4.35" rx="1.6"/><rect class="l" x="291" y="132.1" width="56.6" height="4.35" rx="1.6"/><rect class="l" x="291" y="147.5" width="56.6" height="4.35" rx="1.6"/><polyline class="m" points="356.3 101.8 359.8 105.3 368 97.1"/><polyline class="m" points="356.3 117.2 359.8 120.7 368 112.5"/><polyline class="m" points="356.3 132.7 359.8 136.2 368 128"/><polyline class="m" points="356.3 148.1 359.8 151.6 368 143.5"/><rect class="k" x="248.5" y="98.4" width="9.9" height="9.93"/><rect class="k" x="248.5" y="113.8" width="9.9" height="9.93"/><rect class="k" x="248.5" y="129.3" width="9.9" height="9.93"/><rect class="k" x="248.5" y="144.7" width="9.9" height="9.93"/><rect class="l" x="186" y="101.2" width="56.6" height="4.35" rx="1.6"/><rect class="l" x="186" y="116.6" width="56.6" height="4.35" rx="1.6"/><rect class="l" x="186" y="132.1" width="56.6" height="4.35" rx="1.6"/><rect class="l" x="186" y="147.5" width="56.6" height="4.35" rx="1.6"/><polyline class="m" points="251.3 117.2 254.8 120.7 262.9 112.5"/><line class="n" x1="249.4" y1="107.4" x2="257.5" y2="99.3"/><line class="n" x1="257.5" y1="107.4" x2="249.4" y2="99.3"/><line class="n" x1="249.4" y1="138.3" x2="257.5" y2="130.2"/><line class="n" x1="257.5" y1="138.3" x2="249.4" y2="130.2"/><polyline class="m" points="251.3 148.1 254.8 151.6 262.9 143.5"/><line class="o" x1="275" y1="97.1" x2="275" y2="156"/><circle class="p" cx="289.9" cy="110.4" r="13.6"/><rect class="q" x="282.2" y="106.5" width="5.4" height="5.37" transform="translate(6.3 233.4) rotate(-45)"/><rect class="q" x="287.2" y="111.5" width="5.4" height="5.37" transform="translate(4.2 238.4) rotate(-45)"/><rect class="q" x="292.3" y="106.5" width="5.4" height="5.37" transform="translate(9.2 240.5) rotate(-45)"/><path class="q" d="M289.9,96.5a14.2,14.2,0,1,0,14.2,14.1A14.1,14.1,0,0,0,289.9,96.5Zm6.2,17.8-6.2,6.2-6.3-6.3-5.1-5.1,6.3-6.3,5.1,5.1,5.1-5.1,6.3,6.3Z"/><path class="r" d="M214.4,96.5a14.2,14.2,0,1,0,14.1,14.1A14.2,14.2,0,0,0,214.4,96.5Z"/><line class="s" x1="209" y1="110.6" x2="219.8" y2="110.6"/><rect class="t" x="11.5" y="357.1" width="298.3" height="14.24" rx="7.1"/></svg>