<svg xmlns="http://www.w3.org/2000/svg" xmlns:xlink="http://www.w3.org/1999/xlink" viewBox="0 0 400 400"><defs><style>.a{font-size:38.64px;fill:#fff;font-family:AdobeArabic-Regular, Adobe Arabic;}.b{fill:url(#a);}.c{fill:#164571;}.d{fill:#0e71bb;}.e{fill:#005b9f;}.f{fill:#21e2e2;}.g{fill:#ffbc98;}.h{fill:#52acea;}.i{fill:#eeac1f;}.j{fill:#fcda00;}.k{fill:#db9927;}.l{fill:#efaa1e;}</style><linearGradient id="a" x1="1.16" y1="-942.98" x2="1.16" y2="-942.44" gradientTransform="matrix(740.56, 0, 0, -612.51, -676.44, -577181.63)" gradientUnits="userSpaceOnUse"><stop offset="0" stop-color="#c6e6ff"/><stop offset="1" stop-color="#fff"/></linearGradient></defs><title>price dedicated server</title><text class="a" transform="translate(150 -46.2)"> یصاصتخا روس تمیق*</text><path class="b" d="M184.6,117.8c51.3,32.7,109.9,47.4,109.9,47.4s64.6,9.8,40.9,83.4-26.9,99.9-64.1,101.7c-35.3,1-55.2-13.5-90.1-11-30.7,2.3-51.9,16.2-103.1-4C-4.1,299,2,2.6,184.6,117.8Z"/><rect class="c" x="117.5" y="179.7" width="119.6" height="9.47" rx="1.3"/><rect class="d" x="113.5" y="146.6" width="127.3" height="35.66" rx="3.3"/><path class="e" d="M117.1,146.6h43.1v35.6H117.1a3.6,3.6,0,0,1-3.6-3.5V150.1a3.6,3.6,0,0,1,3.6-3.5Z"/><path class="f" d="M131.3,161.3h0A3.7,3.7,0,0,1,135,165v.3a3.8,3.8,0,0,1-3.7,3.7h0a3.8,3.8,0,0,1-3.8-3.7V165A3.7,3.7,0,0,1,131.3,161.3Z"/><path class="g" d="M142.1,161.3h0a3.7,3.7,0,0,1,3.7,3.7v.3a3.8,3.8,0,0,1-3.7,3.7h0a3.8,3.8,0,0,1-3.8-3.7V165A3.7,3.7,0,0,1,142.1,161.3Z"/><rect class="h" x="169.1" y="156.7" width="3.6" height="3.59" rx="1.8"/><rect class="h" x="173.4" y="163.8" width="3.6" height="3.59" rx="1.8"/><rect class="h" x="204.9" y="156.7" width="3.6" height="3.59" rx="1.8"/><rect class="h" x="209.3" y="163.8" width="3.6" height="3.59" rx="1.8"/><rect class="h" x="176.2" y="156.7" width="3.6" height="3.59" rx="1.8"/><rect class="h" x="180.5" y="163.8" width="3.6" height="3.59" rx="1.8"/><rect class="h" x="183.4" y="156.7" width="3.6" height="3.59" rx="1.8"/><rect class="h" x="187.7" y="163.8" width="3.6" height="3.59" rx="1.8"/><rect class="h" x="190.6" y="156.7" width="3.6" height="3.59" rx="1.8"/><rect class="h" x="194.9" y="163.8" width="3.6" height="3.59" rx="1.8"/><rect class="h" x="197.8" y="156.7" width="3.6" height="3.59" rx="1.8"/><rect class="h" x="202.1" y="163.8" width="3.6" height="3.59" rx="1.8"/><rect class="h" x="168.7" y="170.4" width="3.6" height="3.59" rx="1.8"/><rect class="h" x="204.6" y="170.4" width="3.6" height="3.59" rx="1.8"/><rect class="h" x="175.9" y="170.4" width="3.6" height="3.59" rx="1.8"/><rect class="h" x="183.1" y="170.4" width="3.6" height="3.59" rx="1.8"/><rect class="h" x="190.9" y="170.4" width="3.6" height="3.59" rx="1.8"/><rect class="h" x="198.1" y="170.4" width="3.6" height="3.59" rx="1.8"/><rect class="h" x="218.2" y="156.7" width="3.6" height="3.59" rx="1.8"/><rect class="h" x="222.5" y="163.8" width="3.6" height="3.59" rx="1.8"/><rect class="h" x="211" y="156.7" width="3.6" height="3.59" rx="1.8"/><rect class="h" x="216" y="163.8" width="3.6" height="3.59" rx="1.8"/><rect class="h" x="217.8" y="170.4" width="3.6" height="3.59" rx="1.8"/><rect class="h" x="211.3" y="170.4" width="3.6" height="3.59" rx="1.8"/><rect class="h" x="224.8" y="156.7" width="3.6" height="3.59" rx="1.8"/><rect class="h" x="229.1" y="163.8" width="3.6" height="3.59" rx="1.8"/><rect class="h" x="224.5" y="170.4" width="3.6" height="3.59" rx="1.8"/><rect class="c" x="117.5" y="222" width="119.6" height="9.47" rx="1.3"/><rect class="d" x="113.5" y="188.9" width="127.3" height="35.66" rx="3.3"/><path class="e" d="M117.1,188.9h43.1v35.6H117.1a3.6,3.6,0,0,1-3.6-3.5V192.4a3.6,3.6,0,0,1,3.6-3.5Z"/><path class="f" d="M131.3,203.6h0a3.7,3.7,0,0,1,3.7,3.7v.3a3.8,3.8,0,0,1-3.7,3.7h0a3.8,3.8,0,0,1-3.8-3.7v-.3A3.7,3.7,0,0,1,131.3,203.6Z"/><path class="g" d="M142.1,203.6h0a3.7,3.7,0,0,1,3.7,3.7v.3a3.8,3.8,0,0,1-3.7,3.7h0a3.8,3.8,0,0,1-3.8-3.7v-.3A3.7,3.7,0,0,1,142.1,203.6Z"/><rect class="h" x="169.1" y="199" width="3.6" height="3.59" rx="1.8"/><rect class="h" x="173.4" y="206.1" width="3.6" height="3.59" rx="1.8"/><rect class="h" x="204.9" y="199" width="3.6" height="3.59" rx="1.8"/><rect class="h" x="209.3" y="206.1" width="3.6" height="3.59" rx="1.8"/><rect class="h" x="176.2" y="199" width="3.6" height="3.59" rx="1.8"/><rect class="h" x="180.5" y="206.1" width="3.6" height="3.59" rx="1.8"/><rect class="h" x="183.4" y="199" width="3.6" height="3.59" rx="1.8"/><rect class="h" x="187.7" y="206.1" width="3.6" height="3.59" rx="1.8"/><rect class="h" x="190.6" y="199" width="3.6" height="3.59" rx="1.8"/><rect class="h" x="194.9" y="206.1" width="3.6" height="3.59" rx="1.8"/><rect class="h" x="197.8" y="199" width="3.6" height="3.59" rx="1.8"/><rect class="h" x="202.1" y="206.1" width="3.6" height="3.59" rx="1.8"/><rect class="h" x="168.7" y="212.7" width="3.6" height="3.59" rx="1.8"/><rect class="h" x="204.6" y="212.7" width="3.6" height="3.59" rx="1.8"/><rect class="h" x="175.9" y="212.7" width="3.6" height="3.59" rx="1.8"/><rect class="h" x="183.1" y="212.7" width="3.6" height="3.59" rx="1.8"/><rect class="h" x="190.9" y="212.7" width="3.6" height="3.59" rx="1.8"/><rect class="h" x="198.1" y="212.7" width="3.6" height="3.59" rx="1.8"/><rect class="h" x="218.2" y="199" width="3.6" height="3.59" rx="1.8"/><rect class="h" x="222.5" y="206.1" width="3.6" height="3.59" rx="1.8"/><rect class="h" x="211" y="199" width="3.6" height="3.59" rx="1.8"/><rect class="h" x="216" y="206.1" width="3.6" height="3.59" rx="1.8"/><rect class="h" x="217.8" y="212.7" width="3.6" height="3.59" rx="1.8"/><rect class="h" x="211.3" y="212.7" width="3.6" height="3.59" rx="1.8"/><rect class="h" x="224.8" y="199" width="3.6" height="3.59" rx="1.8"/><rect class="h" x="229.1" y="206.1" width="3.6" height="3.59" rx="1.8"/><rect class="h" x="224.5" y="212.7" width="3.6" height="3.59" rx="1.8"/><rect class="c" x="117.5" y="137.4" width="119.6" height="9.47" rx="1.3"/><rect class="d" x="113.5" y="104.3" width="127.3" height="35.66" rx="3.3"/><path class="e" d="M117.1,104.3h43.1v35.6H117.1a3.6,3.6,0,0,1-3.6-3.5V107.8a3.6,3.6,0,0,1,3.6-3.5Z"/><path class="f" d="M131.3,119h0a3.7,3.7,0,0,1,3.7,3.7v.3a3.8,3.8,0,0,1-3.7,3.7h0a3.8,3.8,0,0,1-3.8-3.7v-.3A3.7,3.7,0,0,1,131.3,119Z"/><path class="g" d="M142.1,119h0a3.7,3.7,0,0,1,3.7,3.7v.3a3.8,3.8,0,0,1-3.7,3.7h0a3.8,3.8,0,0,1-3.8-3.7v-.3A3.7,3.7,0,0,1,142.1,119Z"/><rect class="h" x="169.1" y="114.4" width="3.6" height="3.59" rx="1.8"/><rect class="h" x="173.4" y="121.5" width="3.6" height="3.59" rx="1.8"/><rect class="h" x="204.9" y="114.4" width="3.6" height="3.59" rx="1.8"/><rect class="h" x="209.3" y="121.5" width="3.6" height="3.59" rx="1.8"/><rect class="h" x="176.2" y="114.4" width="3.6" height="3.59" rx="1.8"/><rect class="h" x="180.5" y="121.5" width="3.6" height="3.59" rx="1.8"/><rect class="h" x="183.4" y="114.4" width="3.6" height="3.59" rx="1.8"/><rect class="h" x="187.7" y="121.5" width="3.6" height="3.59" rx="1.8"/><rect class="h" x="190.6" y="114.4" width="3.6" height="3.59" rx="1.8"/><rect class="h" x="194.9" y="121.5" width="3.6" height="3.59" rx="1.8"/><rect class="h" x="197.8" y="114.4" width="3.6" height="3.59" rx="1.8"/><rect class="h" x="202.1" y="121.5" width="3.6" height="3.59" rx="1.8"/><rect class="h" x="168.7" y="128.1" width="3.6" height="3.59" rx="1.8"/><rect class="h" x="204.6" y="128.1" width="3.6" height="3.59" rx="1.8"/><rect class="h" x="175.9" y="128.1" width="3.6" height="3.59" rx="1.8"/><rect class="h" x="183.1" y="128.1" width="3.6" height="3.59" rx="1.8"/><rect class="h" x="190.9" y="128.1" width="3.6" height="3.59" rx="1.8"/><rect class="h" x="198.1" y="128.1" width="3.6" height="3.59" rx="1.8"/><rect class="h" x="218.2" y="114.4" width="3.6" height="3.59" rx="1.8"/><rect class="h" x="222.5" y="121.5" width="3.6" height="3.59" rx="1.8"/><rect class="h" x="211" y="114.4" width="3.6" height="3.59" rx="1.8"/><rect class="h" x="216" y="121.5" width="3.6" height="3.59" rx="1.8"/><rect class="h" x="217.8" y="128.1" width="3.6" height="3.59" rx="1.8"/><rect class="h" x="211.3" y="128.1" width="3.6" height="3.59" rx="1.8"/><rect class="h" x="224.8" y="114.4" width="3.6" height="3.59" rx="1.8"/><rect class="h" x="229.1" y="121.5" width="3.6" height="3.59" rx="1.8"/><rect class="h" x="224.5" y="128.1" width="3.6" height="3.59" rx="1.8"/><rect class="c" x="117.5" y="264.3" width="119.6" height="9.47" rx="1.3"/><rect class="d" x="113.5" y="231.2" width="127.3" height="35.66" rx="3.3"/><path class="e" d="M117.1,231.2h43.1v35.6H117.1a3.6,3.6,0,0,1-3.6-3.5V234.7a3.6,3.6,0,0,1,3.6-3.5Z"/><path class="f" d="M131.3,245.9h0a3.7,3.7,0,0,1,3.7,3.7v.3a3.8,3.8,0,0,1-3.7,3.7h0a3.8,3.8,0,0,1-3.8-3.7v-.3A3.7,3.7,0,0,1,131.3,245.9Z"/><path class="g" d="M142.1,245.9h0a3.7,3.7,0,0,1,3.7,3.7v.3a3.8,3.8,0,0,1-3.7,3.7h0a3.8,3.8,0,0,1-3.8-3.7v-.3A3.7,3.7,0,0,1,142.1,245.9Z"/><rect class="h" x="169.1" y="241.3" width="3.6" height="3.59" rx="1.8"/><rect class="h" x="173.4" y="248.4" width="3.6" height="3.59" rx="1.8"/><rect class="h" x="204.9" y="241.3" width="3.6" height="3.59" rx="1.8"/><rect class="h" x="209.3" y="248.4" width="3.6" height="3.59" rx="1.8"/><rect class="h" x="176.2" y="241.3" width="3.6" height="3.59" rx="1.8"/><rect class="h" x="180.5" y="248.4" width="3.6" height="3.59" rx="1.8"/><rect class="h" x="183.4" y="241.3" width="3.6" height="3.59" rx="1.8"/><rect class="h" x="187.7" y="248.4" width="3.6" height="3.59" rx="1.8"/><rect class="h" x="190.6" y="241.3" width="3.6" height="3.59" rx="1.8"/><rect class="h" x="194.9" y="248.4" width="3.6" height="3.59" rx="1.8"/><rect class="h" x="197.8" y="241.3" width="3.6" height="3.59" rx="1.8"/><rect class="h" x="202.1" y="248.4" width="3.6" height="3.59" rx="1.8"/><rect class="h" x="168.7" y="255" width="3.6" height="3.59" rx="1.8"/><rect class="h" x="204.6" y="255" width="3.6" height="3.59" rx="1.8"/><rect class="h" x="175.9" y="255" width="3.6" height="3.59" rx="1.8"/><rect class="h" x="183.1" y="255" width="3.6" height="3.59" rx="1.8"/><rect class="h" x="190.9" y="255" width="3.6" height="3.59" rx="1.8"/><rect class="h" x="198.1" y="255" width="3.6" height="3.59" rx="1.8"/><rect class="h" x="218.2" y="241.3" width="3.6" height="3.59" rx="1.8"/><rect class="h" x="222.5" y="248.4" width="3.6" height="3.59" rx="1.8"/><rect class="h" x="211" y="241.3" width="3.6" height="3.59" rx="1.8"/><rect class="h" x="216" y="248.4" width="3.6" height="3.59" rx="1.8"/><rect class="h" x="217.8" y="255" width="3.6" height="3.59" rx="1.8"/><rect class="h" x="211.3" y="255" width="3.6" height="3.59" rx="1.8"/><rect class="h" x="224.8" y="241.3" width="3.6" height="3.59" rx="1.8"/><rect class="h" x="229.1" y="248.4" width="3.6" height="3.59" rx="1.8"/><rect class="h" x="224.5" y="255" width="3.6" height="3.59" rx="1.8"/><rect class="d" x="113.5" y="273.5" width="127.3" height="35.66" rx="3.3"/><path class="e" d="M117.1,273.5h43.1v35.6H117.1a3.6,3.6,0,0,1-3.6-3.5V277a3.6,3.6,0,0,1,3.6-3.5Z"/><path class="f" d="M131.3,288.2h0a3.8,3.8,0,0,1,3.7,3.7v.3a3.8,3.8,0,0,1-3.7,3.7h0a3.8,3.8,0,0,1-3.8-3.7v-.3A3.8,3.8,0,0,1,131.3,288.2Z"/><path class="g" d="M142.1,288.2h0a3.8,3.8,0,0,1,3.7,3.7v.3a3.8,3.8,0,0,1-3.7,3.7h0a3.8,3.8,0,0,1-3.8-3.7v-.3A3.8,3.8,0,0,1,142.1,288.2Z"/><rect class="h" x="169.1" y="283.6" width="3.6" height="3.59" rx="1.8"/><rect class="h" x="173.4" y="290.7" width="3.6" height="3.59" rx="1.8"/><rect class="h" x="204.9" y="283.6" width="3.6" height="3.59" rx="1.8"/><rect class="h" x="209.3" y="290.7" width="3.6" height="3.59" rx="1.8"/><rect class="h" x="176.2" y="283.6" width="3.6" height="3.59" rx="1.8"/><rect class="h" x="180.5" y="290.7" width="3.6" height="3.59" rx="1.8"/><rect class="h" x="183.4" y="283.6" width="3.6" height="3.59" rx="1.8"/><rect class="h" x="187.7" y="290.7" width="3.6" height="3.59" rx="1.8"/><rect class="h" x="190.6" y="283.6" width="3.6" height="3.59" rx="1.8"/><rect class="h" x="194.9" y="290.7" width="3.6" height="3.59" rx="1.8"/><rect class="h" x="197.8" y="283.6" width="3.6" height="3.59" rx="1.8"/><rect class="h" x="202.1" y="290.7" width="3.6" height="3.59" rx="1.8"/><rect class="h" x="168.7" y="297.3" width="3.6" height="3.59" rx="1.8"/><rect class="h" x="204.6" y="297.3" width="3.6" height="3.59" rx="1.8"/><rect class="h" x="175.9" y="297.3" width="3.6" height="3.59" rx="1.8"/><rect class="h" x="183.1" y="297.3" width="3.6" height="3.59" rx="1.8"/><rect class="h" x="190.9" y="297.3" width="3.6" height="3.59" rx="1.8"/><rect class="h" x="198.1" y="297.3" width="3.6" height="3.59" rx="1.8"/><rect class="h" x="218.2" y="283.6" width="3.6" height="3.59" rx="1.8"/><rect class="h" x="222.5" y="290.7" width="3.6" height="3.59" rx="1.8"/><rect class="h" x="211" y="283.6" width="3.6" height="3.59" rx="1.8"/><rect class="h" x="216" y="290.7" width="3.6" height="3.59" rx="1.8"/><rect class="h" x="217.8" y="297.3" width="3.6" height="3.59" rx="1.8"/><rect class="h" x="211.3" y="297.3" width="3.6" height="3.59" rx="1.8"/><rect class="h" x="224.8" y="283.6" width="3.6" height="3.59" rx="1.8"/><rect class="h" x="229.1" y="290.7" width="3.6" height="3.59" rx="1.8"/><rect class="h" x="224.5" y="297.3" width="3.6" height="3.59" rx="1.8"/><path class="i" d="M190.2,334.8c0,6.1,24.3,11,54.3,11s54.4-4.9,54.4-11v-9.9H190.2Z"/><path class="j" d="M298.9,324.9c0,6.1-24.3,11-54.4,11s-54.3-4.9-54.3-11,24.3-11.1,54.3-11.1S298.9,318.7,298.9,324.9Z"/><path class="k" d="M244.5,334.6h-.9a.1.1,0,0,1-.1-.1c0-.1,0-.2.1-.2h1.9a.2.2,0,0,1,.2.2h-1.2Zm-2.7,0h-1.9c-.1,0-.1-.1-.1-.2l.2-.2h2A.2.2,0,0,1,241.8,334.6Zm5.5,0a.2.2,0,0,1-.2-.2h2.1a.2.2,0,1,1,0,.4Zm-9.2-.1h-1.8a.2.2,0,0,1-.2-.2c0-.1.1-.2.2-.1h1.8l.2.2C238.3,334.5,238.2,334.5,238.1,334.5Zm12.9,0c-.1,0-.2,0-.2-.1l.2-.2h1.9c.1,0,.1,0,.1.1s0,.2-.1.2Zm-16.6-.1h-1.8c-.1,0-.2,0-.2-.1a.2.2,0,0,1,.2-.2h1.8a.2.2,0,0,1,.2.2Zm20.3,0h-.2a.2.2,0,0,1,.2-.2h1.8c.2,0,.2.1.2.2s0,.1-.1.1Zm-24-.2h-2a.2.2,0,0,1,.2-.2h1.9c.1,0,.1.1.1.2Zm27.7,0h-.2a.2.2,0,0,1,.2-.2h1.8a.2.2,0,0,1,.2.2h-2Zm-31.3-.2h-1.9a.2.2,0,0,1,0-.4l1.9.2c.1,0,.2.1.1.2A.1.1,0,0,1,227.1,334Zm35,0h-.2l.2-.2,1.8-.2a.2.2,0,0,1,0,.4Zm-38.7-.3h0l-1.9-.2c-.1,0-.1-.1-.1-.2h.2l1.8.2a.2.2,0,0,1,.2.2Zm42.3,0h-.1c0-.1,0-.2.1-.2l1.9-.2h.2l-.2.2-1.8.2Zm-46-.4h0l-1.8-.2a.2.2,0,0,1-.2-.2h.2l1.8.2a.2.2,0,0,1,.2.2C219.9,333.3,219.8,333.3,219.7,333.3Zm49.7,0c-.1,0-.2,0-.2-.1l.2-.2,1.8-.2h.2c0,.1,0,.2-.1.2l-1.9.2Zm-53.3-.4H216l-1.8-.3c-.1,0-.2-.1-.1-.2h.2l1.8.3h.1C216.2,332.8,216.2,332.9,216.1,332.9Zm57,0a.2.2,0,0,1-.2-.2h.1l1.9-.3h.2a.2.2,0,0,1-.2.2l-1.8.3Zm-60.7-.6h0l-1.8-.3a.2.2,0,0,1-.2-.2c0-.1.1-.1.2-.1l1.9.3c.1,0,.1.1.1.2S212.5,332.3,212.4,332.3Zm64.3,0c-.1,0-.2,0-.2-.1l.2-.2,1.8-.3c.1,0,.2,0,.2.1s0,.2-.1.2l-1.9.3Zm-67.9-.6h0l-1.8-.4-.2-.2h.3l1.7.4a.2.2,0,0,1,.2.2Zm71.5,0h-.2a.2.2,0,0,1,.2-.2l1.8-.4c.1,0,.2,0,.2.1s0,.2-.1.2l-1.8.4Zm-75.1-.8h0l-1.8-.5c-.1,0-.1-.1-.1-.2h.2l1.8.5c.1,0,.1.1.1.2Zm78.7,0h-.2a.2.2,0,0,1,.2-.2l1.7-.5h.2c.1.1,0,.2-.1.2l-1.7.5Zm-82.2-1h-.1l-1.7-.6v-.2c.1-.1.2-.2.3-.1l1.7.6c.1,0,.1.1.1.2Zm85.7,0h-.2a.2.2,0,0,1,.2-.2l1.7-.6a.1.1,0,0,1,.2,0,.4.4,0,0,1-.1.3l-1.7.6Zm-89.1-1.3h-.1l-1.5-.9a.4.4,0,0,1-.1-.3h.3l1.5.9c.1,0,.1.1.1.2Zm92.5,0h-.2a.4.4,0,0,1,.1-.3,5.3,5.3,0,0,0,1.5-.8h.3a.1.1,0,0,1,0,.2l-1.6.9A.1.1,0,0,0,290.8,328.6Zm-95.3-2h-.2a2.8,2.8,0,0,1-.7-1.6.2.2,0,0,1,.2-.2h0l.2.2a2.2,2.2,0,0,0,.6,1.4.1.1,0,0,1,0,.2Zm98.2-.1h-.2c0-.1-.1-.2,0-.2a2.4,2.4,0,0,0,.6-1.4h0a.2.2,0,0,1,.2-.2h0c.1,0,.1.1.1.2h0a2.9,2.9,0,0,1-.6,1.6Zm-98.3-3h-.1c-.1,0-.1-.1,0-.2a5.1,5.1,0,0,1,1.3-1.2c.1-.1.2,0,.3,0a.4.4,0,0,1-.1.3,4.3,4.3,0,0,0-1.2,1.1Zm98.2-.1h-.1a6.9,6.9,0,0,0-1.3-1.1v-.2h.3a5.1,5.1,0,0,1,1.3,1.2c.1.1.1.2,0,.2Zm-95.3-1.9c-.1,0-.2,0-.2-.1s0-.2.1-.2l1.6-.7c.1-.1.2,0,.3.1v.2l-1.7.7Zm92.4-.1h-.1l-1.6-.7c-.1,0-.2-.1-.1-.2s.1-.1.2-.1l1.7.7a.4.4,0,0,1,.1.3Zm-89.1-1.2h-.1c-.1-.1,0-.2.1-.2l1.7-.6h.2c.1.1,0,.2-.1.2l-1.7.6Zm85.7-.1h0l-1.8-.5c-.1,0-.1-.1-.1-.2s.1-.2.2-.1l1.8.5c.1,0,.1.1.1.2S287.4,320.1,287.3,320.1Zm-82.2-.9a.3.3,0,0,1-.1-.2c-.1,0,0-.1.1-.2l1.8-.4h.2c0,.1,0,.2-.1.2l-1.8.5Zm78.7-.1h0l-1.8-.4a.2.2,0,0,1-.2-.2h.3l1.8.4c.1,0,.1.1.1.2S283.9,319.1,283.8,319.1Zm-75.1-.7c-.1,0-.1-.1-.2-.2l.2-.2,1.8-.3c.1,0,.2,0,.2.1s0,.2-.1.2l-1.8.4Zm71.5-.1h0l-1.8-.3-.2-.2c.1-.1.2-.2.3-.1l1.8.3c.1,0,.1.1.1.2S280.3,318.3,280.2,318.3Zm-67.9-.6h-.1c-.1-.1,0-.2.1-.2l1.8-.3h.2c0,.1,0,.2-.1.2l-1.8.3Zm64.3,0h0l-1.8-.3a.2.2,0,0,1-.2-.2h.2l1.8.3c.2,0,.2.1.2.2Zm-60.6-.5a.2.2,0,0,1-.2-.2c0-.1,0-.2.1-.2l1.9-.2h.2a.2.2,0,0,1-.2.2l-1.8.3Zm57-.1h-.1l-1.8-.2c-.1,0-.1-.1-.1-.2h.2l1.8.2a.2.2,0,0,1,.2.2Zm-53.4-.4h-.2a.2.2,0,0,1,.2-.2l1.8-.2c.2,0,.2,0,.2.1s0,.2-.1.2l-1.8.2Zm49.7,0h0l-1.8-.2a.2.2,0,0,1-.2-.2c0-.1.1-.1.2-.1l1.8.2a.2.2,0,0,1,.2.2Zm-46-.4c-.1,0-.2,0-.2-.1a.2.2,0,0,1,.2-.2h1.8c.1-.1.2,0,.2.1a.2.2,0,0,1-.2.2Zm42.4,0h-1.9a.2.2,0,0,1,0-.4l1.9.2c.1,0,.1.1.1.2A.1.1,0,0,1,265.7,316.3ZM227,316c-.1,0-.2,0-.2-.1l.2-.2h2a.2.2,0,0,1-.2.2Zm35,0h-1.9c-.1,0-.2-.1-.1-.2h2a.2.2,0,0,1,.2.2C262.2,316,262.1,316,262,316Zm-31.4-.2v-.2a.1.1,0,0,1,.1-.1h1.9c.1,0,.2,0,.2.1a.2.2,0,0,1-.2.2h-1.9Zm27.7,0h-1.9c-.1,0-.1-.1-.1-.2s.1-.1.2-.1h1.8c.1,0,.2,0,.2.1Zm-24-.2h-.2a.2.2,0,0,1,.2-.2h1.9a.2.2,0,1,1,0,.4Zm20.3,0h-1.8a.2.2,0,1,1,0-.4h1.8a.2.2,0,0,1,.2.2C254.8,315.6,254.7,315.6,254.6,315.6Zm-16.6-.1a.2.2,0,0,1-.2-.2h2.1c.1,0,.1.1.1.2s0,.2-.1.2Zm12.9,0h-1.8a.2.2,0,1,1,0-.4h1.8c.1,0,.2,0,.2.1A.2.2,0,0,1,250.9,315.5Zm-9.2-.1h-.2a.2.2,0,0,1,.2-.2h1.9c.1,0,.1.1.1.2h-2Zm5.5,0h-2a.2.2,0,0,1,.2-.2h1.8a.2.2,0,0,1,.2.2Z"/><ellipse class="i" cx="244.5" cy="324.9" rx="45.7" ry="8"/><path class="k" d="M199.8,326.5c4.2-3.7,22.6-6.4,44.7-6.4s40.6,2.7,44.8,6.4c.6-.6,1-1.1,1-1.6,0-4.4-20.5-8-45.8-8s-45.7,3.6-45.7,8A2.2,2.2,0,0,0,199.8,326.5Z"/><path class="k" d="M229.8,329.1a8,8,0,0,1-3.9-1.6h-2.6l-2.6-.2c-.7-.2-1-.4-1-.6s.3-.4,1-.5a9.4,9.4,0,0,1,2.6-.2h2.4a6.2,6.2,0,0,1,3.4-2.1l1.3-.2h2a11.4,11.4,0,0,1,2.7.2c.8.1,1.2.2,1.2.4s-.1.2-.2.3l-.8.3a4.9,4.9,0,0,0-1.8.9c-.4.3-.6.5-.6.8s.4.7,1,.9a9.1,9.1,0,0,0,2.7.3l1.8-.2a3.4,3.4,0,0,0,1.2-.4l1-.8a12,12,0,0,1,2.1-1.3,14.6,14.6,0,0,1,3.2-.9,41.4,41.4,0,0,1,5.8-.4,39.5,39.5,0,0,1,7.4.6,9.6,9.6,0,0,1,4.1,1.6h2.6l2.6.2c.7.2,1,.4,1,.6s-.3.4-1,.5a9.4,9.4,0,0,1-2.6.2h-2.5q-.6.9-3.3,1.8l-1.4.2h-1.9a11.4,11.4,0,0,1-2.7-.2c-.8-.1-1.1-.3-1.1-.4s0-.2.2-.3l.8-.3.8-.3,1.1-.6c.2-.2.4-.4.4-.6s-.4-.6-1.1-.8a9.6,9.6,0,0,0-2.7-.3,7.7,7.7,0,0,0-2.5.3,6.2,6.2,0,0,0-1.7,1.1,10.7,10.7,0,0,1-1.9,1.3,12.7,12.7,0,0,1-3.2.9,44.7,44.7,0,0,1-6,.4A38.4,38.4,0,0,1,229.8,329.1Z"/><path class="k" d="M287.5,331.6v9.9l1.1-.2v-10Z"/><path class="k" d="M276.6,333.8v9.9l1.1-.2v-9.9Z"/><path class="k" d="M265.8,335v10h1v-10Z"/><path class="k" d="M254.9,335.7v9.9H256v-9.9Z"/><path class="k" d="M244.5,335.9H244v9.9h1.1v-9.9Z"/><path class="k" d="M233.1,335.7v9.9h1.1v-9.9Z"/><path class="k" d="M222.2,334.9v10h1.1V335Z"/><path class="k" d="M211.4,333.6v9.9l1,.2v-9.9Z"/><path class="k" d="M200.5,331.3v10l1.1.2v-9.9Z"/><path class="i" d="M198,324.8c0,6.1,24.4,11.1,54.4,11.1s54.4-5,54.4-11.1v-9.9H198Z"/><ellipse class="j" cx="252.4" cy="314.9" rx="54.4" ry="11.1"/><path class="k" d="M252.4,324.7h-.9a.2.2,0,0,1,0-.4h1.9c.1,0,.1.1.1.2s0,.2-.1.2Zm-2.7,0h-2.1a.2.2,0,0,1,.2-.2h1.9c.1,0,.1.1.1.2S249.8,324.7,249.7,324.7Zm5.5,0a.2.2,0,0,1,0-.4H257a.2.2,0,0,1,.2.2h-2Zm-9.2-.1h-1.9c-.1,0-.2,0-.2-.1l.2-.2h2.1A.2.2,0,0,1,246,324.6Zm12.9,0a.2.2,0,0,1-.2-.2h2a.2.2,0,0,1,.2.2c0,.1-.1.1-.2.1Zm-16.6-.1h-1.9c-.1,0-.1-.1-.1-.2h2a.2.2,0,0,1,0,.4Zm20.3,0a.2.2,0,1,1,0-.4h1.8c.1-.1.2,0,.2.1a.2.2,0,0,1-.2.2Zm-24-.2h-1.9c-.1,0-.1-.1-.1-.2s.1-.2.2-.1h1.8c.1,0,.2,0,.2.1Zm27.7,0a.2.2,0,0,1-.2-.2c0-.1,0-.1.1-.1l1.9-.2a.2.2,0,0,1,0,.4Zm-31.4-.2h0l-1.8-.2a.2.2,0,0,1-.2-.2h2l.2.2A.2.2,0,0,1,234.9,324.1Zm35,0c-.1,0-.1-.1-.1-.2s0-.2.1-.2H272a.2.2,0,0,1-.2.2l-1.8.2Zm-38.7-.3h0l-1.8-.2a.2.2,0,0,1-.2-.2l.2-.2,1.9.2c.1,0,.1.1.1.2A.2.2,0,0,1,231.2,323.8Zm42.4,0-.2-.2a.2.2,0,0,1,.2-.2l1.8-.2.2.2c0,.1,0,.2-.1.2l-1.9.2Zm-46-.4h0l-1.9-.2c-.1,0-.1-.1-.1-.2a.2.2,0,0,1,.2-.2l1.8.3h.2A.2.2,0,0,1,227.6,323.4Zm49.7,0a.2.2,0,0,1-.2-.2h.2l1.8-.3a.2.2,0,0,1,0,.4l-1.8.2Zm-53.4-.5h0l-1.8-.2a.2.2,0,0,1-.2-.2c0-.1.1-.2.2-.1l1.9.2c.1,0,.1.1.1.2Zm57,0h-.2a.2.2,0,0,1,.2-.2l1.8-.3a.2.2,0,0,1,.2.2c.1.1,0,.2-.1.2l-1.8.2Zm-60.6-.5h0l-1.9-.3c-.1,0-.1-.1-.1-.2s.1-.2.2-.1l1.8.3a.2.2,0,0,1,.2.2Zm64.3,0h-.2c0-.1,0-.2.1-.2l1.8-.4.3.2a.2.2,0,0,1-.2.2l-1.8.3Zm-67.9-.7h-.1l-1.8-.3a.3.3,0,0,1-.1-.2l.2-.2,1.8.4a.2.2,0,0,1,.2.2Zm71.5,0H288c0-.1,0-.2.1-.2l1.8-.4h.3a.2.2,0,0,1-.2.2l-1.8.4Zm-75.1-.8H213l-1.7-.4-.2-.2c.1-.1.2-.2.3-.1l1.7.4a.2.2,0,0,1,.2.2Zm78.7,0h-.2c0-.1,0-.2.1-.2l1.8-.5h.2a.4.4,0,0,1-.1.3l-1.8.4Zm-82.2-1h-.1l-1.7-.6c-.1,0-.2-.1-.1-.2s.1-.1.2-.1l1.7.6c.1.1.2.2.1.2Zm85.7,0h-.2c0-.1,0-.2.1-.2l1.7-.6h.3c0,.1,0,.2-.1.2l-1.8.6Zm-89.1-1.3h-.1l-1.6-.9c-.1,0-.1-.1,0-.2h.3l1.5.9a.3.3,0,0,1,.1.2Zm92.5,0c-.1,0-.2,0-.2-.1s0-.2.1-.2l1.5-.9h.3a.3.3,0,0,1-.1.2l-1.6.9Zm-95.4-2a.1.1,0,0,1-.1-.1,2.1,2.1,0,0,1-.7-1.6h.4a2,2,0,0,0,.6,1.4.4.4,0,0,1-.1.3Zm98.2,0a.1.1,0,0,1-.1-.1c-.1,0-.1-.1,0-.2a2.7,2.7,0,0,0,.5-1.4h0c0-.1.1-.1.2-.1h0c.1,0,.2,0,.2.1h0a2.7,2.7,0,0,1-.6,1.6Zm-98.2-3h-.1a.4.4,0,0,1-.1-.3,5.8,5.8,0,0,1,1.4-1.2h.2c.1,0,.1.2,0,.2a5,5,0,0,0-1.3,1.1A.1.1,0,0,1,203.3,313.6Zm98.2-.1h-.2a8.1,8.1,0,0,0-1.3-1.1c-.1,0-.1-.1,0-.2s.2-.1.2,0a4,4,0,0,1,1.4,1.1.2.2,0,0,1,0,.3Zm-95.4-1.9H206a.2.2,0,0,1,0-.3l1.7-.7c.1,0,.2,0,.2.1s0,.2-.1.2l-1.6.7Zm92.5-.1h-.1l-1.7-.7v-.2c.1-.1.2-.2.3-.1l1.7.7c.1,0,.1.1,0,.2A.1.1,0,0,1,298.6,311.5Zm-89.1-1.3h-.2c0-.1,0-.2.1-.2l1.8-.5c.1-.1.2,0,.2.1s0,.1-.1.2l-1.7.5Zm85.7,0h-.1l-1.7-.6c-.1,0-.2-.1-.1-.2h.2l1.8.6c.1,0,.1.1.1.2Zm-82.2-1h-.2a.2.2,0,0,1,.2-.2l1.7-.4c.1-.1.2,0,.3.1l-.2.2-1.7.4Zm78.7,0h-.1l-1.8-.4v-.2a.2.2,0,0,1,.2-.2l1.8.5a.2.2,0,0,1,.2.2Zm-75.1-.8h-.2c0-.1,0-.2.1-.2l1.8-.4c.2,0,.2.1.3.2s-.1.1-.2.2l-1.8.3Zm71.5,0h0l-1.8-.4a.2.2,0,0,1-.2-.2h.2l1.8.4a.2.2,0,0,1,.2.2Zm-67.9-.6-.2-.2a.2.2,0,0,1,.2-.2l1.8-.3a.2.2,0,1,1,0,.4l-1.8.3Zm64.3-.1h-.1l-1.8-.3h-.1a.2.2,0,0,1,.2-.2l1.8.3a.2.2,0,0,1,.2.2Zm-60.7-.5h-.1c-.1-.1,0-.2.1-.2l1.8-.3a.2.2,0,0,1,.2.2c.1.1,0,.2-.1.2l-1.8.2Zm57,0h0L279,307l-.2-.2a.2.2,0,0,1,.2-.2l1.9.3c.1,0,.1.1.1.2Zm-53.3-.4-.2-.2a.2.2,0,0,1,.2-.2l1.8-.2.2.2a.2.2,0,0,1-.2.2l-1.8.2Zm49.7-.1h0l-1.9-.2c-.1,0-.1,0-.1-.1l.2-.2,1.8.2a.2.2,0,0,1,.2.2Zm-46-.3a.2.2,0,0,1-.2-.2h.1l1.9-.2h.2a.2.2,0,0,1-.2.2l-1.8.2Zm42.3,0h0l-1.8-.2a.2.2,0,0,1-.2-.2c0-.1.1-.1.2-.1h1.8l.2.2A.2.2,0,0,1,273.5,306.4Zm-38.7-.3c-.1,0-.1-.1-.2-.2h.2l1.9-.2c.1,0,.1.1.2.2a.2.2,0,0,1-.2.2Zm35,0H268l-.2-.2a.2.2,0,0,1,.2-.2h1.9v.2A.2.2,0,0,1,269.8,306.1Zm-31.3-.3c-.1,0-.2,0-.2-.1a.2.2,0,0,1,.2-.2h1.8c.2,0,.2.1.2.2v.2Zm27.7,0h-2.1a.2.2,0,0,1,.2-.2h1.9c.1,0,.2.1.1.2S266.3,305.8,266.2,305.8Zm-24-.1a.2.2,0,0,1,0-.4h2a.2.2,0,0,1-.2.2Zm20.3,0h-1.9c-.1,0-.2-.1-.1-.2h2a.2.2,0,0,1,0,.4Zm-16.6-.1a.2.2,0,0,1-.2-.2l.2-.2h2a.2.2,0,0,1-.2.2Zm12.9-.1h-1.9c-.1,0-.1-.1-.1-.2a.1.1,0,0,1,.1-.1h1.9l.2.2C259,305.5,258.9,305.5,258.8,305.5Zm-9.2,0a.2.2,0,0,1-.2-.2c0-.1.1-.1.2-.1h1.8a.2.2,0,1,1,0,.4Zm5.5,0h-1.8a.2.2,0,0,1,0-.4h1.8c.1,0,.2,0,.2.1Z"/><ellipse class="i" cx="252.4" cy="314.9" rx="45.7" ry="8"/><path class="k" d="M207.6,316.5c4.3-3.6,22.7-6.3,44.8-6.3s40.5,2.7,44.8,6.3a2.1,2.1,0,0,0,.9-1.6c0-4.4-20.4-8-45.7-8s-45.7,3.6-45.7,8A2.1,2.1,0,0,0,207.6,316.5Z"/><path class="k" d="M237.7,319.1c-2-.4-3.3-.9-3.9-1.6h-2.6l-2.7-.2c-.6-.1-1-.3-1-.5s.4-.4,1-.6l2.7-.2h2.3a6,6,0,0,1,3.5-2l1.3-.3h1.9l2.8.2c.7.1,1.1.3,1.1.5l-.2.2-.8.4-1.8.8a1.4,1.4,0,0,0-.5.9q0,.6.9.9a9.9,9.9,0,0,0,2.8.3l1.8-.2a2.3,2.3,0,0,0,1.1-.5l1.1-.7a7.6,7.6,0,0,1,2-1.3,9.5,9.5,0,0,1,3.2-.9,32,32,0,0,1,5.9-.4,38.4,38.4,0,0,1,7.3.6c2.1.4,3.5.9,4.1,1.6h2.7a10.2,10.2,0,0,1,2.6.2c.7.1,1,.3,1,.5s-.3.4-1,.6l-2.6.2h-2.5a8.1,8.1,0,0,1-3.3,1.7l-1.4.3h-1.9l-2.7-.2c-.8-.2-1.2-.3-1.2-.5l.2-.2.8-.4.9-.3,1-.6a.6.6,0,0,0,.4-.6c0-.3-.3-.6-1-.8a10.4,10.4,0,0,0-2.8-.3,7.6,7.6,0,0,0-2.5.4,6.9,6.9,0,0,0-1.7,1.1l-1.9,1.3a11.1,11.1,0,0,1-3.2.8,31.3,31.3,0,0,1-5.9.4A37.7,37.7,0,0,1,237.7,319.1Z"/><path class="k" d="M295.4,321.7v9.9l1.1-.3v-9.9Z"/><path class="k" d="M284.5,323.8v9.9h1.1v-9.9Z"/><path class="k" d="M273.6,325.1V335h1.1V325Z"/><path class="k" d="M262.7,325.8v9.9h1.1v-9.9Z"/><path class="k" d="M252.4,326h-.5v9.9h1V326Z"/><path class="k" d="M241,325.7v9.9h1.1v-9.9Z"/><path class="k" d="M230.1,325v9.9h1.1v-9.9Z"/><path class="k" d="M219.2,323.7v9.9h1.1v-9.9Z"/><path class="k" d="M208.4,321.4v9.9l1,.3v-9.9Z"/><path class="l" d="M187.8,314c0,6.1,24.4,11,54.4,11s54.4-4.9,54.4-11v-9.9H187.8Z"/><ellipse class="j" cx="242.2" cy="304.1" rx="54.4" ry="11.1"/><path class="k" d="M242.2,313.8h-.9c-.1,0-.2,0-.2-.1a.2.2,0,0,1,.2-.2h1.9c.1,0,.1.1.1.2s0,.1-.1.1Zm-2.7,0h-1.9l-.2-.2c0-.1.1-.1.2-.1h1.9a.2.2,0,0,1,.2.2Zm5.5,0-.2-.2h2c.1,0,.2,0,.2.1s0,.2-.1.2Zm-9.2-.1h-1.9c-.1,0-.1-.1-.1-.2s0-.2.1-.1h1.9a.2.2,0,0,1,.2.2Zm12.9,0h-.2a.2.2,0,0,1,.2-.2h1.8c.1,0,.2,0,.2.1a.2.2,0,0,1-.2.2Zm-16.6-.1h-1.9c-.1,0-.1,0-.1-.1a.2.2,0,0,1,.2-.2h1.8a.2.2,0,0,1,.2.2C232.3,313.6,232.2,313.6,232.1,313.6Zm20.3,0c-.1,0-.2,0-.2-.1a.2.2,0,0,1,.2-.2h1.8a.2.2,0,0,1,.2.2c0,.1-.1.1-.2.1Zm-24-.1h0l-1.8-.2c-.1,0-.2,0-.2-.1a.2.2,0,0,1,.2-.2h1.8a.2.2,0,1,1,0,.4Zm27.7,0a.2.2,0,0,1,0-.4h1.8a.2.2,0,0,1,.2.2c0,.1-.1.1-.2.1h-1.8Zm-31.4-.3h-1.8a.2.2,0,0,1-.2-.2l.2-.2,1.8.2a.2.2,0,0,1,.2.2Zm35,0h-.1c0-.1,0-.2.1-.2l1.9-.2.2.2a.2.2,0,0,1-.2.2h-1.9Zm-38.6-.3H221l-1.8-.2H219a.2.2,0,0,1,.2-.2l1.9.2c.1,0,.2.1.1.2Zm42.3,0h-.2a.2.2,0,0,1,.2-.2l1.8-.2a.2.2,0,0,1,.2.2h-.1l-1.9.2Zm-46-.4h0l-1.9-.2c-.1,0-.1-.1-.1-.2h.2l1.8.2.2.2C217.6,312.5,217.5,312.5,217.4,312.5Zm49.7,0c-.1,0-.2,0-.2-.1l.2-.2,1.8-.2c.1,0,.2,0,.2.1l-.2.2-1.8.2Zm-53.4-.4h0l-1.8-.3-.2-.2h.2l1.9.3c.1,0,.1.1.1.2Zm57,0a.1.1,0,0,1-.1-.1c-.1-.1,0-.2.1-.2l1.8-.3h.2c.1.1,0,.2-.1.2l-1.8.3Zm-60.6-.5h0l-1.9-.4c-.1,0-.1-.1-.1-.2h.2l1.8.3.2.2A.2.2,0,0,1,210.1,311.6Zm64.3,0a.2.2,0,0,1-.2-.2c0-.1,0-.2.1-.2l1.9-.3h.2a.2.2,0,0,1-.2.2l-1.8.3Zm-67.9-.7h-.1l-1.8-.4c-.1,0-.1-.1-.1-.2s.1-.1.2-.1l1.8.4a.2.2,0,0,1,.2.2Zm71.5,0h-.2a.2.2,0,0,1,.2-.2l1.7-.4h.3l-.2.2-1.8.4Zm-75.1-.8h-.1l-1.7-.5c-.1,0-.2-.1-.1-.2h.2l1.7.5a.2.2,0,0,1,.2.2C203.1,310.1,203,310.1,202.9,310.1Zm78.7,0h-.2c0-.1,0-.2.1-.2l1.8-.5h.2c.1.1,0,.2-.1.2l-1.8.5Zm-82.2-1h-.1l-1.7-.6v-.2c0-.1.1-.2.2-.1l1.7.6a.2.2,0,0,1,.2.2Zm85.7,0c-.1,0-.2,0-.2-.1s0-.2.1-.2l1.7-.6c.1-.1.2,0,.3.1v.2l-1.7.6ZM196,307.8h-.1l-1.6-.9c0-.1-.1-.2,0-.3h.3l1.5.9c.1,0,.1.1.1.2Zm92.5,0h-.2c0-.1,0-.2.1-.2l1.5-.9a.2.2,0,0,1,.3,0c0,.1,0,.2-.1.2a7.5,7.5,0,0,1-1.5.9Zm-95.4-2H193a2.3,2.3,0,0,1-.7-1.6.2.2,0,0,1,.2-.2h0a.2.2,0,0,1,.2.2,2.2,2.2,0,0,0,.6,1.4c0,.1,0,.2-.1.2S193.2,305.8,193.1,305.8Zm98.2-.1h-.1c-.1,0-.1-.2,0-.2a2.4,2.4,0,0,0,.6-1.4h0c-.1-.1,0-.2.1-.2h0a.2.2,0,0,1,.2.2h0a2.9,2.9,0,0,1-.6,1.6Zm-98.2-2.9a.1.1,0,0,1-.1-.1c-.1,0-.1-.1-.1-.2a5.8,5.8,0,0,1,1.4-1.2h.2a.2.2,0,0,1,0,.3,3.6,3.6,0,0,0-1.3,1.1Zm98.2-.1h-.2a5,5,0,0,0-1.3-1.1c0-.1-.1-.2,0-.2h.3a7.7,7.7,0,0,1,1.3,1.2c.1.1.1.2,0,.2Zm-95.4-2h-.1c-.1,0-.1-.2,0-.2l1.7-.7c.1-.1.2,0,.3.1v.2l-1.7.7Zm92.5,0h-.1l-1.7-.7a.3.3,0,0,1-.1-.2h.3l1.7.7a.2.2,0,0,1,0,.3Zm-89.1-1.3h-.2c0-.1,0-.2.1-.2l1.8-.6c.1,0,.2,0,.2.1s0,.2-.1.2l-1.7.6Zm85.7-.1h-.1l-1.7-.5c-.1,0-.1-.1-.1-.2s.1-.1.2-.1l1.8.5c.1,0,.1.1.1.2S285.1,299.3,285,299.3Zm-82.2-.9h-.2a.2.2,0,0,1,.2-.2l1.8-.5h.2a.2.2,0,0,1-.2.2l-1.7.5Zm78.7-.1h-.1l-1.7-.4a.2.2,0,0,1-.2-.2h.2l1.8.4a.2.2,0,0,1,.2.2Zm-75.1-.7a.2.2,0,0,1-.2-.2.3.3,0,0,0,.1-.2l1.9-.3c.1,0,.2,0,.2.1a.2.2,0,0,1-.2.2l-1.8.4Zm71.5-.1h0l-1.8-.3a.2.2,0,0,1-.2-.2c0-.1.1-.1.2-.1l1.8.3.2.2C278.1,297.5,278,297.5,277.9,297.5Zm-67.9-.6h-.2a.2.2,0,0,1,.2-.2l1.8-.3h.2c0,.1,0,.2-.1.2l-1.9.3Zm64.3,0h0l-1.9-.3c-.1,0-.1-.1-.1-.2h.2l1.8.3a.2.2,0,0,1,.2.2Zm-60.7-.5a.3.3,0,0,1-.1-.2c-.1-.1,0-.1.1-.2l1.8-.2h.3a.2.2,0,0,1-.2.2l-1.8.3Zm57,0h0l-1.8-.3a.2.2,0,0,1-.2-.2h.2l1.9.2c.1,0,.1.1.1.2A.2.2,0,0,1,270.6,296.4Zm-53.3-.5h-.2a.2.2,0,0,1,.2-.2l1.8-.2h.2c0,.1,0,.2-.1.2l-1.9.2Zm49.7,0h0l-1.9-.2c-.1,0-.1-.1-.1-.2s.1-.1.2-.1l1.8.2a.2.2,0,0,1,.2.2Zm-46-.4c-.1,0-.2,0-.2-.1s0-.2.1-.2h1.9c.1-.1.2,0,.2.1a.2.2,0,0,1-.2.2Zm42.3,0h-1.8a.2.2,0,1,1,0-.4l1.8.2.2.2C263.5,295.5,263.4,295.5,263.3,295.5Zm-38.7-.3h-.1c-.1-.1,0-.2.1-.2h2.1a.2.2,0,0,1-.2.2h-1.9Zm35.1,0h-1.9a.2.2,0,0,1-.2-.2h2.1c.1,0,.1.1.1.2Zm-31.4-.2h-.2a.2.2,0,0,1,.2-.2h2c.1.1,0,.2-.1.2Zm27.7,0h-1.9a.2.2,0,0,1-.2-.2h2.3A.2.2,0,0,1,256,295Zm-24-.2c-.1,0-.2,0-.2-.1a.2.2,0,0,1,.2-.2h1.8a.2.2,0,0,1,.2.2c0,.1,0,.2-.1.2Zm20.3,0h-1.9c-.1,0-.1-.1-.1-.2s0-.2.1-.2h1.9a.2.2,0,0,1,.2.2C252.5,294.8,252.4,294.8,252.3,294.8Zm-16.6-.1h-.2a.2.2,0,0,1,.2-.2h1.8a.2.2,0,0,1,0,.4Zm12.9,0h-1.8a.2.2,0,0,1,0-.4h2A.2.2,0,0,1,248.6,294.7Zm-9.2-.1c-.1,0-.2,0-.2-.1a.2.2,0,0,1,.2-.2h1.8a.2.2,0,0,1,.2.2c0,.1-.1.1-.2.1Zm5.5,0h-1.8c-.1,0-.2,0-.2-.1a.2.2,0,0,1,.2-.2h1.8a.2.2,0,0,1,.2.2C245.1,294.6,245,294.6,244.9,294.6Z"/><ellipse class="l" cx="242.2" cy="304.1" rx="45.7" ry="8"/><path class="k" d="M197.4,305.7c4.3-3.7,22.7-6.4,44.8-6.4s40.5,2.7,44.8,6.4a2.2,2.2,0,0,0,.9-1.6c0-4.4-20.4-8-45.7-8s-45.7,3.6-45.7,8A2.2,2.2,0,0,0,197.4,305.7Z"/><path class="k" d="M227.5,308.3a8,8,0,0,1-3.9-1.6H221l-2.7-.2c-.6-.2-1-.3-1-.6s.4-.4,1-.5a10.6,10.6,0,0,1,2.7-.2h2.4c.4-.8,1.6-1.5,3.4-2.1l1.3-.2H230l2.8.2c.8.1,1.1.3,1.1.4s0,.2-.2.3l-.8.3-1.8.9a1.4,1.4,0,0,0-.5.9c0,.3.3.6.9.8a10.4,10.4,0,0,0,2.8.3,5,5,0,0,0,1.8-.2l1.2-.4,1-.8,2-1.3a19,19,0,0,1,3.2-.9,46.8,46.8,0,0,1,5.9-.3,38.4,38.4,0,0,1,7.3.6c2.1.4,3.5.9,4.1,1.5h2.7a9.8,9.8,0,0,1,2.6.3c.7.1,1,.3,1,.5s-.3.4-1,.5a9.8,9.8,0,0,1-2.6.2H261c-.4.6-1.6,1.2-3.3,1.8l-1.4.2h-1.9a11.4,11.4,0,0,1-2.7-.2c-.8-.1-1.2-.2-1.2-.4s.1-.2.2-.3l.8-.3.9-.3,1-.6a.7.7,0,0,0,.4-.6c0-.3-.3-.6-1-.8a10.1,10.1,0,0,0-2.7-.3,8.4,8.4,0,0,0-2.6.3,12,12,0,0,0-1.7,1.1,5.9,5.9,0,0,1-1.9,1.3,8.2,8.2,0,0,1-3.2.9,30.7,30.7,0,0,1-5.9.4A37.7,37.7,0,0,1,227.5,308.3Z"/><path class="k" d="M285.2,310.8v10l1.1-.3v-9.9Z"/><path class="k" d="M274.3,313v9.9l1.1-.2v-9.9Z"/><path class="k" d="M263.4,314.3v9.9h1.1v-9.9Z"/><path class="k" d="M252.6,314.9v9.9h1v-9.9Z"/><path class="k" d="M242.2,315.1h-.5V325h1.1v-9.9Z"/><path class="k" d="M230.8,314.9v9.9h1.1v-9.9Z"/><path class="k" d="M219.9,314.2v9.9H221v-9.9Z"/><path class="k" d="M209,312.8v9.9l1.1.2V313Z"/><path class="k" d="M198.2,310.6v9.9l1,.3v-10Z"/><path class="i" d="M197.5,304c0,6.1,24.4,11,54.4,11s54.4-4.9,54.4-11V294H197.5Z"/><ellipse class="j" cx="251.9" cy="294" rx="54.4" ry="11.1"/><path class="k" d="M251.9,303.8H251l-.2-.2c0-.1.1-.1.2-.1h1.8c.1,0,.2,0,.2.1l-.2.2Zm-2.7,0h-1.9a.2.2,0,0,1,0-.4h1.9c.1,0,.1,0,.1.1S249.3,303.8,249.2,303.8Zm5.5,0-.2-.2c0-.1.1-.1.2-.1h1.8a.2.2,0,0,1,0,.4Zm-9.2-.1h-1.9a.2.2,0,0,1,0-.4h1.9c.1,0,.2.1.1.2Zm12.9,0h-.2a.2.2,0,0,1,.2-.2h1.8a.2.2,0,0,1,0,.4Zm-16.6-.1h-1.9l-.2-.2H242A.2.2,0,0,1,241.8,303.6Zm20.3,0a.2.2,0,0,1-.2-.2h2.2a.2.2,0,0,1-.2.2Zm-24-.2h-1.9c-.1,0-.1-.1-.1-.2h2a.2.2,0,0,1,.2.2Zm27.6,0h-.1c0-.1,0-.2.1-.2h1.9c.1,0,.2,0,.2.1l-.2.2h-1.9Zm-31.3-.2h-1.8c-.1-.1-.2-.1-.2-.2l.2-.2,1.8.2h.2A.2.2,0,0,1,234.4,303.2Zm35,0a.2.2,0,0,1-.2-.2c0-.1.1-.1.2-.1l1.8-.2c.2,0,.2.1.2.2s0,.1-.1.1l-1.9.2Zm-38.7-.3h0l-1.8-.2a.2.2,0,0,1-.2-.2c0-.1.1-.1.2-.1l1.9.2h.1A.2.2,0,0,1,230.7,302.9Zm42.4,0a.2.2,0,0,1-.2-.2h.2l1.8-.2c.1,0,.2,0,.2.1s0,.2-.1.2l-1.9.2Zm-46-.4H227l-1.8-.2c-.1,0-.2-.1-.1-.2s.1-.1.2-.1l1.8.2.2.2Zm49.7,0c-.1,0-.2,0-.2-.1s0-.2.1-.2l1.9-.2c.1,0,.2,0,.2.1l-.2.2-1.8.2Zm-53.4-.4h0l-1.8-.3-.2-.2c0-.1.1-.1.2-.1l1.8.2.2.2A.2.2,0,0,1,223.4,302.1Zm57,0c-.1,0-.1-.1-.2-.2l.2-.2,1.8-.2c.1,0,.2,0,.2.1s0,.2-.1.2l-1.9.3Zm-60.6-.6h-.1l-1.8-.3c-.1,0-.1-.1-.1-.2s.1-.1.2-.1l1.8.3.2.2Zm64.3,0c-.1,0-.2,0-.2-.1s0-.2.1-.2l1.8-.3h.3a.2.2,0,0,1-.2.2l-1.8.3Zm-67.9-.6h-.1l-1.8-.4c-.1,0-.1-.1-.1-.2s.1-.1.2-.1l1.8.4c.1,0,.2.1.1.2Zm71.5,0a.2.2,0,0,1-.2-.2v-.2l1.8-.3c.1-.1.2,0,.3.1a.2.2,0,0,1-.2.2l-1.8.4Zm-75.1-.8h-.1l-1.7-.5a.2.2,0,0,1-.2-.2h.3l1.7.5a.2.2,0,0,1,.2.2Zm78.7,0a.2.2,0,0,1-.2-.2c-.1,0,0-.1.1-.2l1.8-.4c.1-.1.2,0,.2.1s0,.2-.1.2l-1.8.5Zm-82.2-1H209l-1.7-.6c-.1-.1-.2-.2-.1-.3h.2l1.7.6c.1,0,.2.1.1.2Zm85.7,0h-.2a.4.4,0,0,1,.1-.3l1.7-.6h.3c0,.1,0,.2-.1.2l-1.8.7Zm-89.1-1.3a.1.1,0,0,1-.1-.1l-1.6-.9c-.1,0-.1-.1,0-.2s.2-.1.2,0a8,8,0,0,0,1.6.8.4.4,0,0,1,.1.3Zm92.4-.1H298c-.1-.1,0-.2.1-.3l1.5-.8c.1-.1.2-.1.2,0s.1.2,0,.2l-1.6.9Zm-95.3-2h-.1a2.3,2.3,0,0,1-.7-1.6.2.2,0,0,1,.2-.2h0a.2.2,0,0,1,.2.2,2.4,2.4,0,0,0,.6,1.4c0,.1,0,.2-.1.2Zm98.2,0h-.1a.2.2,0,0,1,0-.3,2.4,2.4,0,0,0,.5-1.4h0a.2.2,0,0,1,.2-.2h0a.2.2,0,0,1,.2.2h0a2.5,2.5,0,0,1-.6,1.6Zm-98.2-3h-.2c0-.1-.1-.2,0-.2a7.7,7.7,0,0,1,1.3-1.2.2.2,0,0,1,.3,0,.1.1,0,0,1,0,.2,5.1,5.1,0,0,0-1.3,1.2Zm98.2-.1h-.2a3.6,3.6,0,0,0-1.3-1.1.2.2,0,0,1,0-.3h.2a5.8,5.8,0,0,1,1.4,1.2c.1,0,0,.1,0,.2Zm-95.4-1.9h-.2c0-.1,0-.2.1-.2l1.7-.7h.2c.1.1,0,.2-.1.3l-1.6.7Zm92.5-.1H298l-1.7-.7c-.1,0-.1-.1-.1-.2h.3l1.6.7c.1.1.2.2.1.2A.1.1,0,0,1,298.1,290.6ZM209,289.4a.2.2,0,0,1-.2-.2V289l1.8-.5c.1,0,.2,0,.2.1s0,.2-.1.2l-1.8.5Zm85.7-.1h-.1l-1.7-.5c-.1,0-.2-.1-.1-.2s.1-.2.2-.1l1.7.5a.2.2,0,0,1,.2.2Zm-82.2-.9a.2.2,0,0,1-.2-.2c0-.1,0-.2.1-.2l1.8-.4h.3a.2.2,0,0,1-.2.2l-1.8.4Zm78.7-.1h-.1l-1.8-.4c-.1,0-.1-.1-.1-.2h.2l1.8.4c.1,0,.2.1.1.2A.1.1,0,0,1,291.2,288.3Zm-75.1-.8c-.1,0-.2,0-.2-.1s0-.2.1-.2l1.8-.3h.3a.2.2,0,0,1-.2.2l-1.8.3Zm71.5,0h-.1l-1.8-.3c-.1,0-.1-.1-.1-.2s.1-.2.2-.1l1.8.3.2.2Zm-67.9-.6h-.2a.2.2,0,0,1,.2-.2l1.8-.3h.2a.2.2,0,0,1-.2.2l-1.8.3Zm64.3,0h-.1l-1.8-.3c-.1,0-.1-.1-.1-.2s.1-.2.2-.1l1.8.2.2.2C284.1,286.8,284.1,286.9,284,286.9Zm-60.7-.6h-.2a.2.2,0,0,1,.2-.2l1.8-.2h.2c0,.1,0,.2-.1.2l-1.8.2Zm57,0h0l-1.8-.2a.2.2,0,0,1-.2-.2h.2l1.9.2c.1,0,.1.1.1.2S280.4,286.3,280.3,286.3Zm-53.3-.4h-.2a.2.2,0,0,1,.2-.2l1.8-.2c.1,0,.2,0,.2.1a.2.2,0,0,1-.2.2l-1.8.2Zm49.7,0h0l-1.9-.2c-.1,0-.2-.1-.1-.2s0-.1.2-.1l1.8.2h.2C276.8,285.8,276.8,285.9,276.7,285.9Zm-46.1-.4a.1.1,0,0,1-.1-.1c0-.1,0-.2.1-.2l1.9-.2a.2.2,0,1,1,0,.4h-1.9Zm42.4,0h-1.8c-.1-.1-.2-.1-.2-.2l.2-.2,1.8.2a.2.2,0,0,1,.2.2Zm-38.7-.3h-.2a.2.2,0,0,1,.2-.2h1.8c.1-.1.2,0,.2.1s0,.2-.1.2Zm35,0h-1.8a.2.2,0,0,1-.2-.2c0-.1.1-.2.2-.1h1.8a.2.2,0,0,1,.2.2ZM238,285a.2.2,0,0,1-.2-.2c0-.1.1-.1.2-.1h1.8c.1-.1.2,0,.2.1s0,.2-.1.2Zm27.7,0h-1.9a.2.2,0,0,1-.2-.2h2.1c.1.1.1.1.1.2Zm-24-.2h-.2a.2.2,0,0,1,.2-.2h1.8a.2.2,0,0,1,.2.2h-2Zm20.3,0h-2.1a.2.2,0,0,1,.2-.2h2.1C262.1,284.7,262.1,284.8,262,284.8Zm-16.6-.1a.2.2,0,0,1-.2-.2c0-.1.1-.1.2-.1h1.8a.2.2,0,0,1,.2.2c0,.1-.1.1-.2.1Zm12.9,0h-1.9c-.1,0-.1,0-.1-.1s0-.2.1-.2h1.9c.1,0,.2,0,.2.1A.2.2,0,0,1,258.3,284.7Zm-9.2-.1h-.2a.2.2,0,0,1,.2-.2h2a.2.2,0,0,1-.2.2Zm5.5,0h-1.9c-.1,0-.1-.1-.1-.2h2a.2.2,0,0,1,.2.2Z"/><ellipse class="i" cx="251.9" cy="294" rx="45.7" ry="8"/><path class="k" d="M207.1,295.6c4.3-3.6,22.7-6.3,44.8-6.3s40.5,2.7,44.8,6.3a2.1,2.1,0,0,0,.9-1.6c0-4.4-20.5-7.9-45.7-7.9s-45.7,3.5-45.7,7.9A2.1,2.1,0,0,0,207.1,295.6Z"/><path class="k" d="M237.2,298.3a9,9,0,0,1-4-1.6h-2.5a10.1,10.1,0,0,1-2.7-.3c-.6-.1-1-.3-1-.5s.4-.4,1-.5a10.6,10.6,0,0,1,2.7-.2H233c.5-.8,1.7-1.5,3.5-2.1l1.3-.3h1.9a11.9,11.9,0,0,1,2.8.2c.7.1,1.1.2,1.1.4s-.1.2-.2.3l-.8.3-1.8.9a1,1,0,0,0-.5.8q0,.6.9.9a9.9,9.9,0,0,0,2.8.3l1.8-.2,1.1-.4,1.1-.8a11.3,11.3,0,0,1,2-1.3,12.7,12.7,0,0,1,3.2-.9,43,43,0,0,1,5.9-.4,39.1,39.1,0,0,1,7.3.6,8.5,8.5,0,0,1,4.1,1.6h2.7l2.6.2c.7.2,1,.3,1,.6s-.3.4-1,.5l-2.6.2h-2.5a7,7,0,0,1-3.3,1.7,3.5,3.5,0,0,1-1.4.3h-1.9l-2.7-.2c-.8-.1-1.2-.3-1.2-.4s.1-.2.2-.3l.8-.3.9-.4,1-.5a.7.7,0,0,0,.4-.6c0-.4-.3-.6-1-.8a10.4,10.4,0,0,0-2.8-.3,8.1,8.1,0,0,0-2.5.3,5.5,5.5,0,0,0-1.7,1.1,8,8,0,0,1-1.9,1.3,14.6,14.6,0,0,1-3.2.9,45.8,45.8,0,0,1-5.9.3A38.5,38.5,0,0,1,237.2,298.3Z"/><path class="k" d="M294.9,300.8v9.9l1-.3v-9.9Z"/><path class="k" d="M284,303v9.9l1.1-.2v-9.9Z"/><path class="k" d="M273.1,304.2v9.9h1.1v-9.9Z"/><path class="k" d="M262.2,304.9v9.9h1.1v-9.9Z"/><path class="k" d="M251.9,305.1h-.5V315h1v-9.9Z"/><path class="k" d="M240.5,304.9v9.9h1.1v-9.9Z"/><path class="k" d="M229.6,304.1V314h1.1v-9.9Z"/><path class="k" d="M218.7,302.8v9.9l1.1.2V303Z"/><path class="k" d="M207.8,300.5v9.9l1.1.3v-9.9Z"/><path class="i" d="M191.2,294c0,6.1,24.4,11.1,54.4,11.1s54.4-5,54.4-11.1v-9.9H191.2Z"/><path class="j" d="M300,284.1c0,6.1-24.4,11-54.4,11s-54.4-4.9-54.4-11S215.6,273,245.6,273,300,278,300,284.1Z"/><path class="k" d="M245.6,293.9h-.9c-.1,0-.2,0-.2-.1a.2.2,0,0,1,.2-.2h1.8a.2.2,0,0,1,.2.2c0,.1-.1.1-.2.1Zm-2.7-.1H241l-.2-.2h2.1c.1,0,.1.1.1.2S243,293.8,242.9,293.8Zm5.5,0c-.1,0-.2,0-.2-.1l.2-.2h1.8c.1,0,.2,0,.2.1a.2.2,0,0,1-.2.2Zm-9.2,0h-1.9a.2.2,0,0,1-.2-.2h2.1a.2.2,0,0,1,0,.4Zm12.9,0-.2-.2a.2.2,0,0,1,.2-.2h2a.2.2,0,0,1-.2.2Zm-16.6-.1h-1.9c-.1,0-.2-.1-.1-.2s0-.2.1-.2h1.9a.2.2,0,0,1,0,.4Zm20.3,0a.2.2,0,0,1,0-.4h1.8l.2.2a.2.2,0,0,1-.2.2Zm-24-.2h-1.9c-.1,0-.1-.1-.1-.2a.2.2,0,0,1,.2-.2h1.8c.1.1.2.1.2.2A.2.2,0,0,1,231.8,293.5Zm27.7,0a.2.2,0,0,1-.2-.2c0-.1,0-.2.1-.2h1.9l.2.2a.2.2,0,0,1-.2.2Zm-31.4-.3h-1.8a.2.2,0,0,1-.2-.2h2a.2.2,0,0,1,.2.2Zm35,0h-.2a.2.2,0,0,1,.2-.2h2.1a.2.2,0,0,1-.2.2Zm-38.7-.3h-1.8l-.2-.2a.2.2,0,0,1,.2-.2l1.9.2c.1,0,.1.1.1.2Zm42.4,0h-.2a.2.2,0,0,1,.2-.2l1.8-.2a.2.2,0,0,1,.2.2v.2Zm-46-.3h0l-1.9-.2c-.1-.1-.1-.1-.1-.2a.2.2,0,0,1,.2-.2l1.8.2.2.2C220.9,292.5,220.9,292.6,220.8,292.6Zm49.7,0a.2.2,0,0,1-.2-.2c0-.1,0-.2.1-.2l1.9-.2.2.2c0,.1-.1.1-.2.1l-1.8.3Zm-53.4-.5h0l-1.8-.2c-.1-.1-.2-.1-.2-.2a.2.2,0,0,1,.2-.2l1.8.3a.2.2,0,0,1,.2.2C217.3,292.1,217.2,292.1,217.1,292.1Zm57,0h-.2a.2.2,0,0,1,.2-.2l1.8-.3a.2.2,0,0,1,.2.2c0,.1,0,.1-.1.2l-1.8.2Zm-60.6-.5h-.1l-1.8-.3v-.2a.2.2,0,0,1,.2-.2l1.8.4h.2C213.6,291.5,213.6,291.6,213.5,291.6Zm64.3,0a.2.2,0,0,1-.2-.2v-.2l1.8-.3.3.2-.2.2-1.8.3Zm-67.9-.7h-.1l-1.8-.4c-.1,0-.1-.1-.1-.2h.2l1.8.4c.1,0,.2.1.1.2Zm71.5,0h-.2c0-.1,0-.2.1-.2l1.8-.4h.3a.2.2,0,0,1-.2.2l-1.8.4Zm-75.1-.8h-.1l-1.7-.4c-.1-.1-.2-.2-.2-.3h.3l1.7.5a.2.2,0,0,1,.2.2Zm78.7,0c-.1,0-.2,0-.2-.1s0-.2.1-.2l1.8-.5h.2c0,.1,0,.2-.1.2l-1.8.5Zm-82.2-1h-.1l-1.7-.6c-.1,0-.2-.1-.1-.2s.1-.1.2-.1l1.7.6c.1,0,.2.1.1.2A.1.1,0,0,1,202.8,289.1Zm85.7,0c-.1,0-.2,0-.2-.1s0-.2.1-.2l1.7-.6h.3c0,.1,0,.2-.1.2l-1.8.6Zm-89.1-1.3h-.1l-1.6-.9c-.1-.1-.1-.2,0-.2h.2l1.6.9c.1,0,.1.1.1.2Zm92.4,0a.1.1,0,0,1-.1-.1c-.1-.1,0-.2.1-.2l1.5-.9h.2a.2.2,0,0,1,0,.3l-1.6.9Zm-95.3-2a.1.1,0,0,1-.1-.1,2.1,2.1,0,0,1-.7-1.6c0-.1.1-.1.2-.1h0c.1,0,.2,0,.2.1a2,2,0,0,0,.6,1.4.4.4,0,0,1-.1.3Zm98.2,0h-.1c-.1,0-.1-.1,0-.2a2.7,2.7,0,0,0,.5-1.4h0a.2.2,0,0,1,.2-.2h0a.2.2,0,0,1,.2.2h0a2.7,2.7,0,0,1-.6,1.6Zm-98.2-3c-.1,0-.1,0-.1-.1s-.1-.1-.1-.2a7.7,7.7,0,0,1,1.3-1.2h.3c.1,0,.1.1,0,.2a5,5,0,0,0-1.3,1.1A.1.1,0,0,1,196.5,282.8Zm98.2-.1h-.2a5,5,0,0,0-1.3-1.1c-.1,0-.1-.1,0-.2s.2-.1.2,0a4,4,0,0,1,1.4,1.1c.1.1.1.2,0,.2Zm-95.4-2h-.1a.2.2,0,0,1,0-.3l1.7-.7c.1,0,.2,0,.2.1s0,.2-.1.2l-1.6.7Zm92.5,0h-.1L290,280a.4.4,0,0,1-.1-.3h.3l1.7.7a.1.1,0,0,1,0,.2Zm-89.1-1.3h-.2c0-.1,0-.2.1-.2l1.8-.6a.2.2,0,0,1,.2.2.3.3,0,0,1-.1.2l-1.8.5Zm85.7,0h-.1l-1.7-.6c-.1,0-.2-.1-.1-.2s.1-.1.2-.1l1.8.5a.4.4,0,0,1,.1.3Zm-82.2-1H206c0-.1,0-.2.1-.2l1.8-.5.3.2-.2.2-1.8.4Zm78.7,0h-.1l-1.8-.5c-.1,0-.1-.1-.1-.2h.2l1.8.4c.1.1.2.2.1.2S285,278.4,284.9,278.4Zm-75.1-.8h-.2c0-.1,0-.2.1-.2l1.8-.4.3.2h-.2l-1.8.4Zm71.5,0h-.1l-1.8-.4c-.1,0-.1-.1-.1-.2s.1-.1.2-.1l1.8.3.2.2A.2.2,0,0,1,281.3,277.6Zm-67.9-.7h-.2a.2.2,0,0,1,.2-.2l1.8-.3a.2.2,0,0,1,.2.2c0,.1-.1.1-.2.2l-1.8.2Zm64.3,0h-.1l-1.8-.3c-.1,0-.1-.1-.1-.2h.2l1.8.3a.2.2,0,0,1,.2.2Zm-60.7-.5h-.2a.2.2,0,0,1,.2-.2l1.8-.3a.2.2,0,0,1,.2.2c.1.1,0,.1-.1.2l-1.8.2Zm57,0h0l-1.8-.3H272a.2.2,0,0,1,.2-.2l1.9.2v.2A.2.2,0,0,1,274,276.4Zm-53.3-.5h-.2a.2.2,0,0,1,.2-.2l1.8-.2a.2.2,0,0,1,.2.2h-.2l-1.8.2Zm49.7,0h0l-1.9-.2h-.1c0-.1,0-.2.2-.2l1.8.2a.2.2,0,0,1,.2.2Zm-46-.3a.2.2,0,0,1-.2-.2v-.2h2.1a.2.2,0,0,1-.2.2l-1.8.2Zm42.3,0h0l-1.8-.2a.2.2,0,0,1-.2-.2h2a.2.2,0,0,1,0,.4Zm-38.7-.3-.2-.2a.2.2,0,0,1,.2-.2h1.9a.3.3,0,0,1,.1.2c.1.1,0,.1-.1.1l-1.9.2Zm35,0h0l-1.8-.2H261a.2.2,0,0,1,.2-.2h1.9c.1,0,.1.1.1.2A.2.2,0,0,1,263,275.3Zm-31.3-.3c-.1,0-.2,0-.2-.1l.2-.2h1.8a.2.2,0,0,1,.2.2h-2Zm27.7,0h-2.1a.2.2,0,0,1,.2-.2h1.9c.1,0,.1.1.1.2S259.5,275,259.4,275Zm-24-.1a.2.2,0,0,1-.2-.2l.2-.2h1.8c.1,0,.2,0,.2.1a.2.2,0,0,1-.2.2Zm20.3,0h-1.9a.2.2,0,0,1-.2-.2c0-.1.1-.1.2-.1h1.9a.2.2,0,1,1,0,.4Zm-16.6-.2h-.2a.2.2,0,0,1,.2-.2h1.8c.1,0,.2,0,.2.1a.2.2,0,0,1-.2.2Zm12.9,0h-1.9c-.1,0-.1-.1-.1-.2s0-.1.1-.1H252a.2.2,0,0,1,.2.2Zm-9.2,0a.2.2,0,0,1,0-.4h1.8a.2.2,0,1,1,0,.4Zm5.5,0h-1.8a.2.2,0,0,1,0-.4h1.8a.2.2,0,0,1,0,.4Z"/><path class="i" d="M291.3,284.1c0,4.4-20.5,7.9-45.7,7.9s-45.7-3.5-45.7-7.9,20.4-8,45.7-8S291.3,279.7,291.3,284.1Z"/><path class="k" d="M200.8,285.7c4.3-3.6,22.7-6.4,44.8-6.4s40.5,2.8,44.8,6.4a2.2,2.2,0,0,0,.9-1.6c0-4.4-20.5-8-45.7-8s-45.7,3.6-45.7,8A2.2,2.2,0,0,0,200.8,285.7Z"/><path class="k" d="M288.6,290.9v9.9l1-.3v-9.9Z"/><path class="k" d="M277.7,293v9.9h1.1v-9.9Z"/><path class="k" d="M266.8,294.3v9.9h1.1v-9.9Z"/><path class="k" d="M255.9,294.9v10H257v-9.9Z"/><path class="k" d="M245.6,295.1h-.5v10h1v-10Z"/><path class="k" d="M234.2,294.9v9.9h1.1v-10Z"/><path class="k" d="M223.3,294.2v9.9h1.1v-9.9Z"/><path class="k" d="M212.4,292.9v9.9h1.1V293Z"/><path class="k" d="M201.6,290.6v9.9l1,.3v-9.9Z"/><path class="l" d="M18.8,331.4c0,6.1,24.3,11.1,54.4,11.1s54.3-5,54.3-11.1v-9.9H18.8Z"/><ellipse class="j" cx="73.2" cy="321.5" rx="54.4" ry="11.1"/><path class="k" d="M73.2,331.3h-.9l-.2-.2a.2.2,0,0,1,.2-.2h1.8a.2.2,0,1,1,0,.4Zm-2.8,0h-2a.2.2,0,0,1,.2-.2h1.8a.2.2,0,0,1,.2.2Zm5.6,0c-.2,0-.2-.1-.2-.2s0-.2.1-.2h1.9a.2.2,0,0,1,.2.2H76Zm-9.3-.1H64.9c-.1,0-.2,0-.2-.1a.2.2,0,0,1,.2-.2h1.8c.1,0,.2,0,.2.1A.2.2,0,0,1,66.7,331.2Zm12.9,0c-.1,0-.1-.1-.1-.2s0-.1.1-.1h1.9a.2.2,0,0,1,.2.2c0,.1-.1.1-.2.1ZM63,331.1H61.2a.2.2,0,0,1-.2-.2c0-.1.1-.1.2-.1h1.9c.1,0,.1.1.1.2A.2.2,0,0,1,63,331.1Zm20.3,0a.2.2,0,0,1-.2-.2l.2-.2h1.9c.1-.1.1,0,.2.1l-.2.2Zm-23.9-.2H57.5l-.2-.2c0-.1.1-.2.2-.1h2C59.5,330.8,59.5,330.9,59.4,330.9Zm27.6,0a.2.2,0,0,1-.2-.2H87l1.8-.2a.2.2,0,0,1,.2.2c0,.1,0,.2-.1.2Zm-31.3-.2h0l-1.9-.2c-.1,0-.2-.1-.1-.2s0-.1.2-.1h1.8a.2.2,0,0,1,0,.4Zm35,0a.2.2,0,0,1,0-.4h1.8c.1,0,.2,0,.2.1l-.2.2-1.8.2ZM52,330.4h0l-1.9-.2c-.1,0-.1-.1-.1-.2a.2.2,0,0,1,.2-.2l1.8.2a.2.2,0,1,1,0,.4Zm42.4,0a.2.2,0,0,1-.2-.2c0-.1,0-.2.1-.2l1.9-.2a.2.2,0,1,1,0,.4l-1.8.2ZM48.3,330h0l-1.8-.2-.2-.2a.2.2,0,0,1,.2-.2l1.9.3a.1.1,0,0,1,.1.1A.2.2,0,0,1,48.3,330ZM98,330l-.2-.2c0-.1.1-.1.2-.1l1.8-.3a.2.2,0,0,1,.2.2c.1.1,0,.2-.1.2l-1.8.2Zm-53.3-.5h0l-1.9-.2c-.1,0-.1-.1-.1-.2s.1-.2.2-.1l1.8.2.2.2C44.9,329.5,44.8,329.5,44.7,329.5Zm57,0c-.1,0-.2,0-.2-.1a.2.2,0,0,1,.2-.2l1.8-.3a.2.2,0,0,1,.2.2l-.2.2-1.8.2ZM41,329h0l-1.8-.3a.2.2,0,0,1-.2-.2c.1-.1.2-.2.3-.1l1.8.3c.1,0,.1.1.1.2Zm64.3,0h-.2l.2-.2,1.8-.4a.2.2,0,0,1,.2.2c0,.1,0,.2-.1.2l-1.8.3Zm-67.9-.7h0l-1.8-.3c-.1-.1-.2-.2-.1-.2a.2.2,0,0,1,.2-.2l1.8.4c.1,0,.1.1.1.2S37.5,328.3,37.4,328.3Zm71.5,0a.1.1,0,0,1-.1-.1c-.1-.1,0-.2.1-.2l1.8-.4h.2c0,.1,0,.2-.1.2l-1.8.4Zm-75.1-.8h0l-1.8-.4a.3.3,0,0,1-.1-.2c0-.1.1-.2.2-.1l1.8.4c.1,0,.2.1.1.2S33.9,327.5,33.8,327.5Zm78.7,0h-.2l.2-.2,1.7-.5h.3l-.2.3-1.7.4Zm-82.2-1h0l-1.8-.6c-.1,0-.1-.1-.1-.2h.3l1.7.6v.2C30.5,326.5,30.4,326.5,30.3,326.5Zm85.7,0a.1.1,0,0,1-.1-.1c-.1-.1,0-.2.1-.2l1.7-.6h.2c.1.1,0,.2-.1.2l-1.7.6Zm-89-1.3h-.1l-1.6-.9c-.1,0-.1-.1-.1-.2h.3l1.5.9c.1.1.2.2.1.2Zm92.4,0h-.2c0-.1,0-.2.1-.2l1.6-.9h.2c.1,0,.1.1,0,.2l-1.6.9Zm-95.3-2h-.2a2.5,2.5,0,0,1-.6-1.6.1.1,0,0,1,.1-.1h0c.1,0,.2,0,.2.1a2,2,0,0,0,.6,1.4.2.2,0,0,1,0,.3Zm98.2,0h-.1c-.1,0-.1-.1-.1-.2a2.2,2.2,0,0,0,.6-1.4h.4a2.3,2.3,0,0,1-.7,1.6Zm-98.3-3h-.1a.2.2,0,0,1,0-.3,5.1,5.1,0,0,1,1.3-1.2h.3s0,.2-.1.2a6.5,6.5,0,0,0-1.2,1.1Zm98.2-.1a.1.1,0,0,1-.1-.1l-1.3-1.1c-.1,0-.1-.1-.1-.2h.3a5.3,5.3,0,0,1,1.4,1.1.4.4,0,0,1-.1.3Zm-95.3-1.9h-.2a.4.4,0,0,1,.1-.3l1.7-.7h.2c0,.1,0,.2-.1.2l-1.6.7Zm92.4-.1h-.1l-1.6-.7a.3.3,0,0,1-.1-.2c0-.1.1-.2.2-.1l1.7.7c.1,0,.1.1.1.2S119.4,318.1,119.3,318.1Zm-89.1-1.3a.1.1,0,0,1-.1-.1c-.1-.1,0-.2.1-.2l1.7-.5c.1-.1.2,0,.3.1l-.2.2-1.7.5Zm85.8,0h-.1l-1.8-.6a.3.3,0,0,1-.1-.2h.3l1.7.6c.1,0,.2.1.1.2Zm-82.2-1c-.1,0-.2,0-.2-.1s0-.2.1-.2l1.8-.4c.1-.1.2,0,.2.1s0,.2-.1.2l-1.8.4Zm78.6,0h0l-1.8-.4c-.1-.1-.2-.2-.1-.2a.2.2,0,0,1,.2-.2l1.8.5c.1,0,.1.1.1.2ZM37.3,315a.1.1,0,0,1-.1-.1c-.1-.1,0-.2.1-.2l1.8-.4a.2.2,0,0,1,.2.2c0,.1,0,.1-.1.2l-1.8.3Zm71.6,0h-.1l-1.8-.4c-.1,0-.2-.1-.1-.2h.2l1.8.4c.1,0,.2.1.1.2ZM41,314.4a.2.2,0,0,1-.2-.2c0-.1,0-.2.1-.2l1.8-.3.3.2a.2.2,0,0,1-.2.2l-1.8.3Zm64.2-.1h0l-1.8-.3h-.2c.1-.1.1-.2.2-.2l1.9.3c.1,0,.1.1.1.2S105.3,314.3,105.2,314.3Zm-60.6-.5c-.1,0-.2,0-.2-.1a.2.2,0,0,1,.2-.2l1.8-.3.2.2a.2.2,0,0,1-.2.2l-1.8.2Zm57,0h0l-1.9-.2c-.1-.1-.1-.1-.1-.2l.2-.2,1.8.3a.2.2,0,0,1,.2.2Zm-53.4-.4a.3.3,0,0,1-.1-.2c0-.1,0-.2.1-.2l1.9-.2a.2.2,0,0,1,0,.4l-1.8.2Zm49.7-.1h0l-1.8-.2c-.1,0-.2,0-.2-.1a.2.2,0,0,1,.2-.2l1.9.2c.1,0,.1.1.1.2S98,313.3,97.9,313.3Zm-46-.3a.2.2,0,0,1-.2-.2c0-.1.1-.1.2-.1l1.8-.2h.2c0,.1,0,.2-.1.2l-1.9.2Zm42.4,0h0l-1.9-.2c-.1,0-.2-.1-.1-.2s.1-.1.2-.1h1.8c.1.1.2.1.2.2S94.4,313,94.3,313Zm-38.7-.3a.2.2,0,0,1-.2-.2c0-.1.1-.1.2-.1l1.8-.2.2.2a.2.2,0,0,1-.2.2Zm35,0H88.7c-.1-.1-.1-.1-.1-.2l.2-.2h1.8c.1.1.2.1.2.2A.2.2,0,0,1,90.6,312.7Zm-31.3-.3h-.2a.2.2,0,0,1,.2-.2h1.8a.2.2,0,0,1,.2.2c0,.1-.1.1-.2.2Zm27.6,0H85.1c-.1,0-.2,0-.2-.1a.2.2,0,0,1,.2-.2h1.8a.2.2,0,0,1,.2.2ZM63,312.3l-.2-.2c0-.1,0-.2.1-.2h1.9c.1,0,.2,0,.2.1a.2.2,0,0,1-.2.2Zm20.2,0H81.4a.2.2,0,0,1-.2-.2c0-.1.1-.1.2-.1h1.8a.2.2,0,0,1,.2.2Zm-16.6-.1c-.1,0-.1-.1-.1-.2s0-.2.1-.2h2.1a.2.2,0,0,1-.2.2Zm12.9-.1H77.7a.2.2,0,0,1-.2-.2h2.1c.1,0,.1.1.1.2S79.6,312.1,79.5,312.1Zm-9.2,0a.2.2,0,0,1-.2-.2h2.1l.2.2a.2.2,0,0,1-.2.2Zm5.6,0H74a.2.2,0,0,1-.2-.2l.2-.2h2C76,312,76,312.1,75.9,312.1Z"/><ellipse class="l" cx="73.2" cy="321.5" rx="45.7" ry="8"/><path class="k" d="M28.4,323.1c4.2-3.6,22.7-6.3,44.8-6.3s40.5,2.7,44.7,6.3a1.9,1.9,0,0,0,1-1.6c0-4.4-20.5-8-45.7-8s-45.8,3.6-45.8,8A2.2,2.2,0,0,0,28.4,323.1Z"/><path class="k" d="M58.5,325.7c-2-.4-3.4-.9-4-1.6H51.9l-2.6-.2c-.7-.1-1-.3-1-.5s.3-.4,1-.6l2.6-.2h2.4a5.6,5.6,0,0,1,3.4-2l1.3-.3h2l2.7.2c.8.1,1.2.3,1.2.5l-.2.2-.8.4-1.8.8a1.1,1.1,0,0,0-.5.9q0,.6.9.9a9.4,9.4,0,0,0,2.8.3l1.8-.2,1.1-.5,1.1-.7a6.3,6.3,0,0,1,2-1.3,8.8,8.8,0,0,1,3.2-.9,31.3,31.3,0,0,1,5.9-.4,39.1,39.1,0,0,1,7.3.6c2.1.4,3.4.9,4.1,1.6h2.6a9.4,9.4,0,0,1,2.6.2c.7.1,1.1.3,1.1.5s-.4.4-1,.6l-2.7.2H92c-.5.6-1.6,1.1-3.4,1.7l-1.4.3H85.4l-2.8-.2c-.7-.2-1.1-.3-1.1-.5s0-.1.2-.2l.8-.4.8-.3,1.1-.6a.6.6,0,0,0,.4-.6c0-.3-.4-.6-1-.8a10.4,10.4,0,0,0-2.8-.3,7.2,7.2,0,0,0-2.5.4,4.5,4.5,0,0,0-1.7,1.1l-1.9,1.3a12.2,12.2,0,0,1-3.2.8,32.5,32.5,0,0,1-6,.4A37.3,37.3,0,0,1,58.5,325.7Z"/><path class="k" d="M116.1,328.3v9.9l1.1-.3V328Z"/><path class="k" d="M105.3,330.4v9.9h1v-9.9Z"/><path class="k" d="M94.4,331.7v9.9h1.1v-9.9Z"/><path class="k" d="M83.5,332.4v9.9h1.1v-9.9Z"/><path class="k" d="M73.2,332.6h-.6v9.9h1.1v-9.9Z"/><path class="k" d="M61.7,332.3v9.9h1.1v-9.9Z"/><path class="k" d="M50.9,331.6v9.9h1v-9.9Z"/><path class="k" d="M40,330.3v9.9h1.1v-9.9Z"/><path class="k" d="M29.1,328v9.9l1.1.3v-9.9Z"/><path class="l" d="M196.3,283.9c0,6.1,24.4,11.1,54.4,11.1s54.4-5,54.4-11.1V274H196.3Z"/><ellipse class="j" cx="250.7" cy="274" rx="54.4" ry="11.1"/><path class="k" d="M250.7,283.8h-1.1a.2.2,0,0,1,.2-.2h1.9a.2.2,0,0,1,.2.2h-1.2Zm-2.7-.1h-1.9c-.1,0-.2-.1-.1-.2a.1.1,0,0,1,.1-.1H248a.2.2,0,0,1,.2.2Zm5.5,0h-.2a.2.2,0,0,1,.2-.2h1.9c.1,0,.1,0,.1.1s0,.2-.1.2Zm-9.2,0h-1.9c-.1,0-.1-.1-.1-.2h2a.2.2,0,0,1,0,.4Zm12.9,0a.2.2,0,0,1,0-.4h2c0,.1,0,.2-.1.2Zm-16.6-.1h-1.8a.2.2,0,0,1,0-.4h1.8l.2.2A.2.2,0,0,1,240.6,283.6Zm20.3,0a.2.2,0,0,1-.2-.2l.2-.2h1.8a.2.2,0,0,1,0,.4Zm-24-.2h-1.8l-.2-.2a.2.2,0,0,1,.2-.2h1.8l.2.2A.2.2,0,0,1,236.9,283.4Zm27.7,0a.2.2,0,1,1,0-.4h1.8a.2.2,0,0,1,.2.2l-.2.2Zm-31.4-.3h-1.8l-.2-.2c0-.1.1-.1.2-.1h1.9c.1,0,.1.1.1.2S233.3,283.1,233.2,283.1Zm35.1,0c-.1,0-.2,0-.2-.1s0-.2.1-.2h1.9c.1,0,.2,0,.2.1l-.2.2Zm-38.7-.3h-1.9a.2.2,0,0,1-.2-.2c.1-.1.1-.2.3-.2l1.8.2.2.2Zm42.3,0h-.2l.2-.2,1.8-.2c.2,0,.2.1.2.2s0,.1-.1.2Zm-46-.3h0l-1.9-.2v-.2a.2.2,0,0,1,.2-.2l1.8.2c.1.1.2.1.2.2A.2.2,0,0,1,225.9,282.5Zm49.7,0a.2.2,0,0,1,0-.4l1.8-.2a.2.2,0,0,1,.2.2h-.2l-1.8.3Zm-53.4-.5h0l-1.8-.2-.2-.2c.1-.1.1-.2.3-.2l1.8.3c.1,0,.1.1.1.2S222.3,282,222.2,282Zm57,0a.1.1,0,0,1-.1-.1c0-.1,0-.2.1-.2l1.8-.3c.2,0,.2.1.3.2l-.2.2-1.8.2Zm-60.6-.5h0l-1.8-.3c-.1-.1-.2-.1-.2-.2a.2.2,0,0,1,.2-.2l1.8.4h.2Zm64.3,0-.2-.2c0-.1.1-.1.2-.2l1.8-.3a.2.2,0,0,1,.2.2c0,.1-.1.1-.2.2l-1.8.3Zm-67.9-.7h-.1l-1.8-.4c-.1,0-.1-.1-.1-.2h.2l1.8.4a.2.2,0,0,1,.2.2C215.2,280.8,215.1,280.8,215,280.8Zm71.5,0c-.1,0-.2,0-.2-.1a.2.2,0,0,1,.2-.2l1.8-.4h.2a.2.2,0,0,1-.2.2l-1.8.4Zm-75.1-.8h0l-1.8-.4c-.1-.1-.2-.2-.1-.3h.2l1.8.5c.1,0,.1.1.1.2S211.5,280,211.4,280Zm78.7,0c-.1,0-.2,0-.2-.1s0-.2.1-.2l1.8-.5c.1,0,.2,0,.2.1s0,.2-.1.2l-1.8.5Zm-82.2-1h-.1l-1.7-.6c-.1,0-.1-.1-.1-.2h.3l1.7.6c.1,0,.1.1.1.2Zm85.7,0h-.2c0-.1,0-.2.1-.2l1.7-.6h.3c0,.1,0,.2-.1.2l-1.7.6Zm-89.1-1.3h-.1l-1.6-.9c0-.1-.1-.2,0-.2h.3l1.5.9c.1,0,.1.1.1.2Zm92.5,0h-.2c0-.1,0-.2.1-.2l1.5-.9h.3a.4.4,0,0,1-.1.3l-1.5.9Zm-95.4-2h-.1a2.6,2.6,0,0,1-.7-1.6c0-.1.1-.1.2-.1h0c.1,0,.2,0,.2.1a2,2,0,0,0,.6,1.4.4.4,0,0,1-.1.3Zm98.2,0h-.1c-.1,0-.1-.1,0-.2a2.2,2.2,0,0,0,.6-1.4h0c0-.1,0-.2.1-.2h0l.2.2h0a2.7,2.7,0,0,1-.6,1.6Zm-98.2-3h-.1c-.1,0-.1-.1-.1-.2a8.7,8.7,0,0,1,1.4-1.2c.1,0,.2,0,.2.1s.1.1,0,.2a7.5,7.5,0,0,0-1.3,1.1Zm98.2-.1h-.2a5,5,0,0,0-1.3-1.1.1.1,0,0,1,0-.2h.3a4.7,4.7,0,0,1,1.3,1.1c.1.1.1.2,0,.2A.1.1,0,0,1,299.8,272.6Zm-95.4-2h-.1c-.1-.1,0-.2,0-.3l1.7-.7h.3c0,.1,0,.2-.1.2l-1.7.7Zm92.5,0h-.1l-1.6-.7c-.1-.1-.2-.2-.1-.3a.1.1,0,0,1,.2,0l1.7.7c.1,0,.1.1.1.2Zm-89.1-1.3h-.2c0-.1,0-.2.1-.2l1.8-.6a.2.2,0,0,1,.2.2c.1,0,0,.1-.1.2l-1.7.5Zm85.7,0h0l-1.8-.6c-.1,0-.1-.1-.1-.2s.1-.1.2-.1l1.8.5a.4.4,0,0,1,.1.3Zm-82.2-1h-.2a.2.2,0,0,1,.2-.2l1.8-.5.2.2c0,.1-.1.1-.2.2l-1.7.4Zm78.7,0h-.1l-1.7-.5-.2-.2h.3l1.7.4.2.2A.2.2,0,0,1,290,268.3Zm-75.1-.8h-.2l.2-.2,1.8-.4a.2.2,0,0,1,.2.2h-.2l-1.8.4Zm71.5,0h0l-1.8-.4a.2.2,0,0,1-.2-.2h.2l1.9.3a.3.3,0,0,1,.1.2A.2.2,0,0,1,286.4,267.5Zm-67.9-.7c-.1,0-.2,0-.2-.1a.2.2,0,0,1,.2-.2l1.8-.3.2.2c0,.1,0,.1-.1.2l-1.9.2Zm64.3,0h0l-1.8-.3a.2.2,0,0,1-.2-.2h.2l1.8.3.2.2C283,266.8,282.9,266.8,282.8,266.8Zm-60.6-.5H222c0-.1,0-.2.1-.2l1.9-.3.2.2c0,.1-.1.1-.2.2l-1.8.2Zm57,0h-.1l-1.8-.3h-.2c.1-.1.1-.2.3-.2l1.8.2c.1.1.2.1.1.2Zm-53.4-.5c-.1,0-.2,0-.2-.1a.2.2,0,0,1,.2-.2l1.8-.2a.2.2,0,0,1,.2.2c0,.1,0,.1-.1.1l-1.9.2Zm49.7,0h0l-1.8-.2c-.2,0-.2-.1-.2-.1a.2.2,0,0,1,.2-.2l1.8.2a.2.2,0,0,1,.2.2C275.7,265.8,275.6,265.8,275.5,265.8Zm-46-.3a.2.2,0,0,1-.2-.2c0-.1.1-.1.2-.2h1.8c.1,0,.2,0,.2.1l-.2.2-1.8.2Zm42.3,0h0l-1.8-.2a.2.2,0,0,1-.2-.2c0-.1.1-.1.2-.1h1.9c.1,0,.1.1.1.2Zm-38.7-.3a.3.3,0,0,1-.1-.2c0-.1,0-.2.1-.2H235l.2.2c0,.1-.1.1-.2.1l-1.8.2Zm35.1,0h-.1l-1.8-.2h-.2a.2.2,0,0,1,.2-.2h1.9c.1,0,.2.1.1.2S268.3,265.2,268.2,265.2Zm-31.4-.3h-.2a.2.2,0,0,1,.2-.2h1.9a.2.2,0,0,1,.2.2c0,.1-.1.1-.2.1Zm27.7,0h-1.9a.1.1,0,0,1-.1-.1c0-.1,0-.2.1-.2h1.9a.2.2,0,0,1,.2.2Zm-24-.1-.2-.2a.2.2,0,0,1,.2-.2h1.9a.1.1,0,0,1,.1.1c0,.1,0,.2-.1.2Zm20.3,0h-1.9c-.1,0-.1-.1-.1-.2s.1-.1.2-.1h1.8a.2.2,0,0,1,.2.2Zm-16.6-.2c-.1,0-.2,0-.2-.1a.2.2,0,0,1,.2-.2h2c0,.1,0,.2-.2.2Zm12.9,0h-1.8a.2.2,0,0,1-.2-.2h2a.2.2,0,0,1,.2.2C257.3,264.6,257.2,264.6,257.1,264.6Zm-9.2,0a.2.2,0,0,1-.2-.2l.2-.2h1.8a.2.2,0,1,1,0,.4Zm5.5,0h-1.8a.2.2,0,0,1-.2-.2l.2-.2h1.8l.2.2A.2.2,0,0,1,253.4,264.6Z"/><ellipse class="l" cx="250.7" cy="274" rx="45.7" ry="8"/><path class="k" d="M205.9,275.6c4.3-3.6,22.7-6.4,44.8-6.4s40.5,2.8,44.8,6.4a2.2,2.2,0,0,0,.9-1.6c0-4.4-20.4-8-45.7-8s-45.7,3.6-45.7,8A2.2,2.2,0,0,0,205.9,275.6Z"/><path class="k" d="M293.7,280.8v9.9l1.1-.3v-9.9Z"/><path class="k" d="M282.8,282.9v9.9h1.1v-9.9Z"/><path class="k" d="M271.9,284.2v9.9H273v-9.9Z"/><path class="k" d="M261.1,284.8v10h1v-9.9Z"/><path class="k" d="M250.7,285h-.5v10h1.1V285Z"/><path class="k" d="M239.3,284.8v9.9h1.1v-10Z"/><path class="k" d="M228.4,284.1V294h1.1v-9.9Z"/><path class="k" d="M217.6,282.8v9.9h1v-9.9Z"/><path class="k" d="M206.7,280.5v9.9l1.1.3v-9.9Z"/><path class="l" d="M34.7,320.9c0,6.1,24.3,11,54.3,11s54.4-4.9,54.4-11V311H34.7Z"/><ellipse class="j" cx="89" cy="311" rx="54.4" ry="11.1"/><path class="k" d="M89,320.7H88c0-.1,0-.2.1-.2H90a.2.2,0,0,1,.2.2H89Zm-2.7,0H84.4c-.1,0-.1-.1-.1-.2s0-.1.1-.1h2.1A.2.2,0,0,1,86.3,320.7Zm5.5,0a.2.2,0,0,1-.2-.2h2.1c.1,0,.2,0,.2.1a.2.2,0,0,1-.2.2Zm-9.2-.1H80.8a.2.2,0,0,1-.2-.2c0-.1.1-.2.2-.1h1.8a.2.2,0,0,1,.2.2C82.8,320.6,82.7,320.6,82.6,320.6Zm12.9,0c-.1,0-.2,0-.2-.1a.2.2,0,0,1,.2-.2h2c0,.1,0,.2-.1.2Zm-16.6-.1h-2a.2.2,0,0,1,.2-.2h1.8l.2.2C79.1,320.5,79,320.5,78.9,320.5Zm20.3,0c-.1,0-.2,0-.2-.1a.2.2,0,0,1,.2-.2H101c.2,0,.2.1.2.2h-2Zm-24-.2h-2a.2.2,0,0,1,.2-.2h1.8l.2.2C75.4,320.3,75.3,320.3,75.2,320.3Zm27.7,0c-.1,0-.2,0-.2-.1a.2.2,0,0,1,.2-.2h1.8a.2.2,0,0,1,.2.2h-2Zm-31.3-.2H69.7a.2.2,0,1,1,0-.4l1.9.2c.1,0,.1.1.1.2A.1.1,0,0,1,71.6,320.1Zm35,0h-.2a.2.2,0,0,1,.2-.2l1.8-.2a.2.2,0,1,1,0,.4Zm-38.7-.3h0l-1.9-.2a.1.1,0,0,1-.1-.1c0-.1,0-.2.2-.2l1.8.2a.2.2,0,0,1,.2.2Zm42.3,0a.1.1,0,0,1-.1-.1c-.1-.1,0-.2.1-.2l1.9-.2h.2a.2.2,0,0,1-.2.2l-1.8.2Zm-46-.4h0l-1.8-.2a.2.2,0,0,1-.2-.2h.2l1.8.2a.2.2,0,0,1,.2.2Zm49.7,0h-.2a.2.2,0,0,1,.2-.2l1.8-.2c.1,0,.2,0,.2.1s0,.2-.1.2l-1.9.2ZM60.6,319h-.1l-1.8-.3c-.1,0-.2-.1-.1-.2h.2l1.8.3c.1,0,.2.1.1.2Zm57,0a.2.2,0,0,1-.2-.2.1.1,0,0,1,.1-.1l1.9-.3c.1,0,.2,0,.2.1a.2.2,0,0,1-.2.2l-1.8.3Zm-60.7-.5h0l-1.8-.3a.2.2,0,0,1-.2-.2h.2l1.9.3c.1,0,.1.1.1.2A.2.2,0,0,1,56.9,318.5Zm64.3-.1H121a.2.2,0,0,1,.2-.2l1.8-.3h.2c0,.1,0,.2-.1.2l-1.9.3Zm-67.9-.6h0l-1.8-.4a.2.2,0,0,1-.2-.2h.3l1.7.4a.2.2,0,0,1,.2.2Zm71.5,0h-.2l.2-.2,1.8-.4h.2c0,.1,0,.2-.1.2l-1.8.4ZM49.7,317h0l-1.8-.5c-.1,0-.2-.1-.1-.2s.1-.1.2-.1l1.8.5c.1,0,.1.1.1.2S49.8,317,49.7,317Zm78.7,0h-.2v-.2l1.8-.5c.1,0,.2,0,.2.1s0,.2-.1.2l-1.8.5Zm-82.2-1h-.1l-1.7-.6a.3.3,0,0,1-.1-.2c.1-.1.2-.2.3-.1l1.7.6c.1,0,.1.1.1.2S46.3,316,46.2,316Zm85.7,0h-.2v-.2l1.8-.6c0-.1.2,0,.2,0a.4.4,0,0,1-.1.3l-1.7.6Zm-89.1-1.3h-.1l-1.5-.9a.4.4,0,0,1-.1-.3c.1,0,.2-.1.3,0l1.5.9c.1,0,.1.1.1.2Zm92.5,0h-.2a.4.4,0,0,1,.1-.3,5.3,5.3,0,0,0,1.5-.8.2.2,0,0,1,.3,0v.2l-1.6.9Zm-95.3-2h-.2a2.8,2.8,0,0,1-.7-1.6.2.2,0,0,1,.2-.2h0a.2.2,0,0,1,.2.2,2.2,2.2,0,0,0,.6,1.4.1.1,0,0,1,0,.2Zm98.2-.1H138c0-.1-.1-.2,0-.2a2.4,2.4,0,0,0,.6-1.4h0c0-.1,0-.2.2-.2h0c.1,0,.1.1.1.2h0a2.9,2.9,0,0,1-.6,1.6Zm-98.3-3h-.1c-.1,0-.1-.1-.1-.2a8.7,8.7,0,0,1,1.4-1.2h.2a.2.2,0,0,1,0,.3,4.7,4.7,0,0,0-1.3,1.1Zm98.2,0h-.2a6.5,6.5,0,0,0-1.2-1.1.3.3,0,0,1-.1-.2h.3a7.7,7.7,0,0,1,1.3,1.2c.1.1.1.2,0,.2Zm-95.3-2c-.1,0-.2,0-.2-.1s0-.2.1-.2l1.6-.7c.1-.1.2,0,.3.1a.3.3,0,0,1-.1.2l-1.7.7Zm92.4,0h-.1l-1.6-.7c-.1,0-.2-.1-.1-.2s.1-.1.2-.1l1.7.7a.4.4,0,0,1,.1.3Zm-89.1-1.3h-.2a.2.2,0,0,1,.2-.2l1.7-.6c.1,0,.2,0,.2.1s0,.2-.1.2l-1.7.6Zm85.7-.1h0l-1.8-.5c-.1,0-.1-.1-.1-.2s.1-.1.2-.1l1.8.5c.1,0,.1.1.1.2Zm-82.2-.9v-.2c-.1,0,0-.1.1-.2l1.8-.4h.2c0,.1,0,.2-.1.2l-1.8.5Zm78.7-.1h0l-1.8-.4-.2-.2h.3l1.8.4c.1,0,.1.1.1.2Zm-75.1-.7c-.1,0-.1-.1-.2-.2l.2-.2,1.8-.3h.2c0,.1,0,.2-.1.2l-1.8.4Zm71.5-.1h0l-1.8-.3a.2.2,0,0,1-.2-.2h.3l1.8.3c.1,0,.1.1.1.2Zm-67.9-.6h-.2l.2-.2,1.8-.3c.1,0,.2,0,.2.1s0,.2-.1.2l-1.8.3Zm64.3,0h0l-1.8-.3-.2-.2c0-.1.1-.1.2-.1l1.8.3a.2.2,0,0,1,.2.2Zm-60.6-.5-.2-.2c0-.1,0-.1.1-.2l1.9-.2h.2a.2.2,0,0,1-.2.2l-1.8.3Zm57,0h-.1l-1.8-.2c-.1,0-.2-.1-.1-.2s.1-.1.2-.1l1.8.2a.2.2,0,0,1,.2.2Zm-53.4-.5h-.2l.2-.2,1.8-.2h.2c.1.1,0,.2-.1.2l-1.9.2Zm49.7,0h0l-1.8-.2a.2.2,0,0,1-.2-.2h.2l1.8.2a.2.2,0,0,1,.2.2Zm-46-.4h-.2a.2.2,0,0,1,.2-.2h1.8c.1-.1.2,0,.2.1a.2.2,0,0,1-.2.2Zm42.4,0h-1.9l-.2-.2a.2.2,0,0,1,.2-.2l1.9.2c.1,0,.1.1.1.2Zm-38.7-.3c-.1,0-.2,0-.2-.1s0-.2.1-.2h1.9c.1,0,.2,0,.2.1a.2.2,0,0,1-.2.2Zm35,0h-1.9c-.1,0-.2-.1-.1-.2s.1-.1.2-.1h1.8a.2.2,0,0,1,.2.2C106.7,302.1,106.6,302.1,106.5,302.1Zm-31.4-.2H75c0-.1,0-.2.1-.2H77c.1,0,.2,0,.2.1l-.2.2H75.1Zm27.7,0h-1.9c-.1,0-.1-.1-.1-.2s.1-.1.2-.1h2A.2.2,0,0,1,102.8,301.9Zm-24-.2h-.2a.2.2,0,0,1,.2-.2h1.9s.2.1.2.2a.2.2,0,0,1-.2.2Zm20.3,0H97.3a.2.2,0,0,1,0-.4h1.8a.2.2,0,0,1,.2.2Zm-16.6-.1a.2.2,0,0,1-.2-.2h2.1c.1,0,.1.1.1.2s0,.2-.1.2Zm12.9,0H93.6a.2.2,0,0,1-.2-.2l.2-.2h2A.2.2,0,0,1,95.4,301.6Zm-9.2-.1c-.1,0-.2,0-.2-.1a.2.2,0,0,1,.2-.2H88c.2,0,.2.1.2.2s0,.1-.2.1Zm5.5,0H89.9c-.1,0-.2,0-.2-.1a.2.2,0,0,1,.2-.2h1.8l.2.2C91.9,301.5,91.8,301.5,91.7,301.5Z"/><ellipse class="l" cx="89" cy="311" rx="45.7" ry="8"/><path class="k" d="M44.2,312.6c4.3-3.7,22.7-6.4,44.8-6.4s40.6,2.7,44.8,6.4c.6-.6,1-1.1,1-1.6,0-4.4-20.5-8-45.8-8s-45.7,3.6-45.7,8A2.4,2.4,0,0,0,44.2,312.6Z"/><path class="k" d="M132,317.7v10l1.1-.3v-10Z"/><path class="k" d="M121.1,319.9v9.9l1.1-.2v-9.9Z"/><path class="k" d="M110.3,321.1v10h1v-9.9Z"/><path class="k" d="M99.4,321.8v9.9h1.1v-9.9Z"/><path class="k" d="M89,322h-.5v9.9h1.1V322Z"/><path class="k" d="M77.6,321.8v9.9h1.1v-9.9Z"/><path class="k" d="M66.7,321.1V331h1.1v-10Z"/><path class="k" d="M55.9,319.7v9.9l1,.2v-9.9Z"/><path class="k" d="M45,317.4v10l1.1.3v-10Z"/><path class="l" d="M272.8,270.2c-3.4,5.1,14.3,22.6,39.5,39s48.3,25.5,51.6,20.4l5.4-8.3-91.1-59.4Z"/><ellipse class="j" cx="323.8" cy="291.6" rx="11.1" ry="54.4" transform="translate(-97.3 403.7) rotate(-56.9)"/><path class="k" d="M318.4,299.8l-.7-.5a.4.4,0,0,1-.1-.3c.1,0,.2-.1.3,0h0l.7.5.8.5h0a.4.4,0,0,1,.1.3h-.3Zm-2.3-1.5h0l-1.5-1.1c-.1,0-.1-.1-.1-.2a.2.2,0,0,1,.3,0h0l1.5,1c.1,0,.1.2.1.2Zm4.7,3a.4.4,0,0,1-.1-.3h.3l1.5,1h0c.1,0,.1.2.1.2h-.3l-1.5-1Zm-7.7-5.1h0l-1.5-1.1c-.1,0-.1-.1-.1-.2h.3l1.5,1a.2.2,0,0,1,0,.3A.1.1,0,0,1,313.1,296.2Zm10.8,7c-.1,0-.1-.1-.1-.2a.2.2,0,0,1,.3,0l1.5.9h.1c0,.1.1.2,0,.3a.1.1,0,0,1-.2,0l-1.6-1Zm-13.8-9.1h0a9.7,9.7,0,0,1-1.5-1.1c-.1-.1-.2-.2-.1-.2h.2l1.5,1.1c.1.1.2.2.1.3Zm17,11.1c-.1-.1-.2-.2-.1-.3h.2l1.6.9a.3.3,0,0,1,.1.2h-.2l-1.6-.9Zm-20-13.3h0l-1.5-1.1c-.1,0-.1-.1-.1-.2a.2.2,0,0,1,.3,0l1.5,1.1a.1.1,0,0,1,0,.2C307.3,292,307.1,292,307.1,291.9ZM330.2,307a.1.1,0,0,1,0-.2c0-.1.1-.1.2-.1l1.6.9a.4.4,0,0,1,.1.3c-.1.1-.2.1-.2,0l-1.7-.9Zm-26.1-17.3h0l-1.5-1.1c0-.1-.1-.2,0-.3h.2l1.5,1.2c.1,0,.1.1.1.2A.2.2,0,0,1,304.1,289.7Zm29.4,19.1c-.1,0-.2-.1-.1-.2s.1-.1.2-.1l1.6.9c.1.1.2.2.1.3a.1.1,0,0,1-.2,0l-1.6-.9Zm-32.3-21.3h0l-1.5-1.2c0-.1-.1-.2,0-.2h.3l1.4,1.2c.1.1.1.2,0,.2S301.3,287.5,301.2,287.5Zm35.5,23.1a.3.3,0,0,1-.1-.2h.3l1.6.9c.1,0,.1.1.1.2a.2.2,0,0,1-.3,0l-1.6-.8Zm-38.4-25.4h0l-1.4-1.1a.2.2,0,0,1,0-.3h.2l1.4,1.2a.3.3,0,0,1,.1.2ZM340,312.3v-.2c0-.1.1-.2.2-.1l1.7.8a.3.3,0,0,1,.1.2h-.3l-1.6-.8Zm-44.5-29.5h0l-1.4-1.3c-.1,0-.1-.1,0-.2s.2-.1.2,0l1.4,1.2a.2.2,0,0,1,0,.3Zm47.8,31.1c-.1-.1-.1-.1-.1-.2h.2l1.7.8c.1,0,.1.1.1.2H345l-1.7-.8Zm-50.5-33.6h-.1l-1.3-1.2a.2.2,0,0,1,0-.3h.2l1.4,1.3v.2Zm53.8,35.1c-.1,0-.1-.1-.1-.2h.3l1.7.8c.1,0,.1.1.1.2h-.3l-1.6-.8Zm-56.5-37.6h0l-1.3-1.3a.4.4,0,0,1-.1-.3h.3l1.3,1.3c.1,0,.1.1,0,.2ZM350,316.9a.4.4,0,0,1-.1-.3c.1,0,.2-.1.3,0l1.7.6c.1,0,.1.2.1.2s-.1.2-.2.1l-1.8-.6Zm-62.5-41.7h0l-1.2-1.4c-.1-.1-.1-.2,0-.2s.1-.1.2,0l1.2,1.3a.2.2,0,0,1,0,.3Zm65.9,42.9a.1.1,0,0,1,0-.2h.2l1.7.6c.1,0,.2.1.1.2s-.1.2-.2.1l-1.7-.5Zm-68.3-45.7h0l-1.1-1.5c-.1,0-.1-.1,0-.2h.3l1,1.4c.1.1.1.2,0,.2S285.2,272.5,285.1,272.4Zm71.8,46.8a.3.3,0,0,1-.1-.2h.3l1.7.4c.1.1.2.1.2.2a.2.2,0,0,1-.2.2l-1.8-.5ZM283,269.5h0a8.9,8.9,0,0,1-.9-1.6c0-.1,0-.2.1-.2h.2c.3.5.5,1,.9,1.6s0,.2-.1.2Zm77.5,50.4h-.1a.2.2,0,0,1,.2-.2h1.7l.2.2c.1.1,0,.2-.1.2h-1.8C360.5,320,360.5,320,360.5,319.9Zm-78.8-53.7h-.1a2.3,2.3,0,0,1,.3-1.7h.3a.2.2,0,0,1,0,.3,2.4,2.4,0,0,0-.2,1.5l-.2.2ZM364,319.8a.1.1,0,0,1-.1-.1c0-.1,0-.2.1-.2a2.5,2.5,0,0,0,1.3-.9h0c0-.1.2-.1.2-.1h0c.1.1.2.2.1.3h0a2.4,2.4,0,0,1-1.4,1Zm-80.7-56.1h-.1c0-.1,0-.2.1-.2a4.8,4.8,0,0,1,1.8-.3.2.2,0,0,1,.2.2h-.2a6.5,6.5,0,0,0-1.6.3Zm82.3,53.5h-.1a5.9,5.9,0,0,0-.4-1.7c-.1,0,0-.1.1-.2h.2a7,7,0,0,1,.5,1.8h-.3Zm-78.8-53.7h-.1l.2-.2,1.8.3a.2.2,0,0,1,.2.2c-.1.1-.1.2-.2.1l-1.8-.2A.1.1,0,0,0,286.8,263.5Zm77.5,50.4h-.1a13,13,0,0,0-1-1.5c0-.1,0-.2.1-.2h.2l1,1.5a.2.2,0,0,1,0,.3Zm-73.9-49.7h-.1a.2.2,0,0,1,.2-.2l1.7.5.2.3c0,.1-.1.1-.2.1l-1.8-.5ZM362.2,311h-.1a7.6,7.6,0,0,0-1.1-1.4.2.2,0,0,1,0-.3h.2a5.3,5.3,0,0,1,1.2,1.4c.1,0,.1.1,0,.2Zm-68.3-45.7c-.1,0-.2-.1-.1-.2s.1-.1.2-.1l1.7.6c.1.1.2.2.1.3h-.2l-1.7-.7Zm65.9,42.9h-.1l-1.2-1.3a.2.2,0,0,1,0-.3h.2L360,308c.1.1.1.2,0,.2S359.9,308.3,359.8,308.2Zm-62.5-41.6c-.1,0-.1-.1-.1-.2h.2l1.7.7c.1,0,.2.1.1.2s-.1.2-.2.1l-1.7-.7Zm59.9,39h0l-1.3-1.3c-.1,0-.1-.2-.1-.2a.2.2,0,0,1,.3,0,8,8,0,0,1,1.3,1.3c.1,0,.1.1,0,.2ZM300.7,268c-.1,0-.1-.1-.1-.2s.1-.1.2-.1l1.7.8c.1,0,.1.1.1.2s-.1.1-.2.1l-1.7-.8Zm53.8,35.1h0l-1.3-1.2a.4.4,0,0,1-.1-.3.2.2,0,0,1,.3,0l1.4,1.2v.3ZM304,269.6a.4.4,0,0,1-.1-.3c.1,0,.2-.1.3,0l1.6.8c.1,0,.2.1.1.2h-.2l-1.7-.8Zm47.8,31.1h0l-1.4-1.2c-.1,0-.1-.1-.1-.2h.3l1.4,1.2c.1.1.1.2,0,.2Zm-44.5-29.5c0-.1-.1-.2,0-.3h.2l1.6.8c.1.1.2.2.1.3a.1.1,0,0,1-.2,0l-1.6-.8ZM349,298.3h0l-1.5-1.2c-.1-.1-.1-.2,0-.2h.2l1.5,1.1a.2.2,0,0,1,0,.3Zm-38.4-25.4a.4.4,0,0,1-.1-.3c.1,0,.2-.1.3,0l1.6.8a.4.4,0,0,1,.1.3.2.2,0,0,1-.3,0l-1.6-.8ZM346.1,296h0l-1.5-1.2a.1.1,0,0,1,0-.2c.1-.1.2-.1.2,0l1.5,1.1a.2.2,0,0,1,0,.3Zm-32.3-21.4a.1.1,0,0,1,0-.2h.2l1.6.9c.1.1.2.2.1.3a.1.1,0,0,1-.2,0l-1.6-.9Zm29.4,19.1h0l-1.5-1.1c-.1-.1-.1-.2,0-.2h.2l1.5,1.2c.1,0,.1.1,0,.2S343.3,293.8,343.2,293.7Zm-26.1-17.3c-.1,0-.2-.1-.1-.2h.2l1.6,1c.1,0,.2.1.1.2h-.2l-1.6-1Zm23.1,15.1h0l-1.5-1.1a.1.1,0,0,1,0-.2h.2l1.5,1a.4.4,0,0,1,.1.3A.2.2,0,0,1,340.2,291.5Zm-20-13.2c0-.1-.1-.2,0-.2s.1-.1.2-.1l1.6,1c.1,0,.1.1.1.2a.2.2,0,0,1-.3,0l-1.5-.9Zm17,11.1h0l-1.5-1.1a.2.2,0,0,1,0-.3h.2l1.5,1.1c.1,0,.1.2.1.2Zm-13.8-9.2a.3.3,0,0,1-.1-.2h.3l1.5,1h0c.1,0,.2.2.1.2H325l-1.6-1Zm10.8,7h0l-1.5-1a.3.3,0,0,1-.1-.2h.3l1.5,1.1c.1,0,.1.1.1.2A.2.2,0,0,1,334.2,287.2Zm-7.7-5a.2.2,0,0,1,0-.3h.2l1.6,1h0a.1.1,0,0,1,0,.2h-.2l-1.6-1Zm4.7,3h0l-1.6-1a.2.2,0,0,1,0-.3h.2l1.5,1c.1.1.2.2.1.2Z"/><ellipse class="l" cx="323.8" cy="291.6" rx="8" ry="45.7" transform="translate(-97.3 403.7) rotate(-56.9)"/><path class="k" d="M285.4,268.5c5.5-.7,22.4,7.1,40.9,19.1s32.5,24.4,34.1,29.8a2.5,2.5,0,0,0,1.7-.8c2.4-3.7-12.8-17.9-34-31.7s-40.2-21.9-42.6-18.3A2.1,2.1,0,0,0,285.4,268.5Z"/><path class="k" d="M356.1,320.7l-5.5,8.3,1.1.4,5.4-8.3Z"/><path class="k" d="M345.8,316.6l-5.4,8.3,1,.5,5.4-8.4Z"/><path class="k" d="M336,311.7l-5.4,8.3.9.5,5.4-8.3Z"/><path class="k" d="M326.5,306.3l-5.4,8.3.9.6,5.4-8.3Z"/><path class="k" d="M317.7,300.9l-.4-.3-5.4,8.3.4.3.5.3,5.4-8.3Z"/><path class="k" d="M308.3,294.4l-5.4,8.3.9.7,5.4-8.4Z"/><path class="k" d="M299.6,287.9l-5.4,8.3.8.7,5.4-8.4Z"/><path class="k" d="M291.2,280.8l-5.4,8.3.8.8,5.4-8.3A6,6,0,0,1,291.2,280.8Z"/><path class="k" d="M283.3,273l-5.4,8.3.7.8,5.5-8.3Z"/></svg>