<svg xmlns="http://www.w3.org/2000/svg" xmlns:xlink="http://www.w3.org/1999/xlink" viewBox="0 0 400 400"><defs><style>.a{font-size:38.64px;fill:#fff;font-family:AdobeArabic-Regular, Adobe Arabic;}.b{fill:url(#a);}.c{fill:#164571;}.d{fill:#0e71bb;}.e{fill:#005b9f;}.f{fill:#21e2e2;}.g{fill:#ffbc98;}.h{fill:#52acea;}.i{fill:#eeac1f;}.j{fill:#fcda00;}.k{fill:#db9927;}.l{fill:#efaa1e;}</style><linearGradient id="a" x1="1.18" y1="-942.91" x2="1.18" y2="-942.48" gradientTransform="matrix(740.56, 0, 0, -612.51, -676.44, -577181.63)" gradientUnits="userSpaceOnUse"><stop offset="0" stop-color="#c6e6ff"/><stop offset="1" stop-color="#fff"/></linearGradient></defs><title>price dedicated server</title><text class="a" transform="translate(150 -46.2)"> یصاصتخا روس تمیق*</text><path class="b" d="M197.8,135.7c41.3,26.3,88.5,38.2,88.5,38.2s52,7.9,32.9,67.1-21.6,80.5-51.6,82c-28.4.8-44.4-10.9-72.6-8.9-24.7,1.9-41.7,13-83-3.3C45.8,281.6,50.8,42.9,197.8,135.7Z"/><rect class="c" x="143.8" y="185.5" width="96.3" height="7.63" rx="1.1"/><rect class="d" x="140.6" y="158.9" width="102.5" height="28.71" rx="2.7"/><path class="e" d="M143.4,158.9h34.8v28.7H143.4a2.8,2.8,0,0,1-2.8-2.9v-23a2.8,2.8,0,0,1,2.8-2.8Z"/><path class="f" d="M154.8,170.7h0a3,3,0,0,1,3,3v.3a3,3,0,0,1-3,3h0a3,3,0,0,1-2.9-3v-.3A3,3,0,0,1,154.8,170.7Z"/><path class="g" d="M163.5,170.7h0a3,3,0,0,1,3,3v.3a3,3,0,0,1-3,3h0a3,3,0,0,1-2.9-3v-.3A3,3,0,0,1,163.5,170.7Z"/><rect class="h" x="185.3" y="167" width="2.9" height="2.89" rx="1.4"/><rect class="h" x="188.8" y="172.8" width="2.9" height="2.89" rx="1.4"/><rect class="h" x="214.2" y="167" width="2.9" height="2.89" rx="1.4"/><rect class="h" x="217.6" y="172.8" width="2.9" height="2.89" rx="1.4"/><rect class="h" x="191.1" y="167" width="2.9" height="2.89" rx="1.4"/><rect class="h" x="194.5" y="172.8" width="2.9" height="2.89" rx="1.4"/><rect class="h" x="196.8" y="167" width="2.9" height="2.89" rx="1.4"/><rect class="h" x="200.3" y="172.8" width="2.9" height="2.89" rx="1.4"/><rect class="h" x="202.6" y="167" width="2.9" height="2.89" rx="1.4"/><rect class="h" x="206.1" y="172.8" width="2.9" height="2.89" rx="1.4"/><rect class="h" x="208.4" y="167" width="2.9" height="2.89" rx="1.4"/><rect class="h" x="211.9" y="172.8" width="2.9" height="2.89" rx="1.4"/><rect class="h" x="185" y="178.1" width="2.9" height="2.89" rx="1.4"/><rect class="h" x="213.9" y="178.1" width="2.9" height="2.89" rx="1.4"/><rect class="h" x="190.8" y="178.1" width="2.9" height="2.89" rx="1.4"/><rect class="h" x="196.6" y="178.1" width="2.9" height="2.89" rx="1.4"/><rect class="h" x="202.9" y="178.1" width="2.9" height="2.89" rx="1.4"/><rect class="h" x="208.7" y="178.1" width="2.9" height="2.89" rx="1.4"/><rect class="h" x="224.8" y="167" width="2.9" height="2.89" rx="1.4"/><rect class="h" x="228.3" y="172.8" width="2.9" height="2.89" rx="1.4"/><rect class="h" x="219" y="167" width="2.9" height="2.89" rx="1.4"/><rect class="h" x="223" y="172.8" width="2.9" height="2.89" rx="1.4"/><rect class="h" x="224.6" y="178.1" width="2.9" height="2.89" rx="1.4"/><rect class="h" x="219.3" y="178.1" width="2.9" height="2.89" rx="1.4"/><rect class="h" x="230.1" y="167" width="2.9" height="2.89" rx="1.4"/><rect class="h" x="233.6" y="172.8" width="2.9" height="2.89" rx="1.4"/><rect class="h" x="229.9" y="178.1" width="2.9" height="2.89" rx="1.4"/><rect class="c" x="143.8" y="219.6" width="96.3" height="7.63" rx="1.1"/><rect class="d" x="140.6" y="193" width="102.5" height="28.71" rx="2.7"/><path class="e" d="M143.4,193h34.8v28.7H143.4a2.8,2.8,0,0,1-2.8-2.9v-23a2.7,2.7,0,0,1,2.8-2.8Z"/><path class="f" d="M154.8,204.8h0a2.9,2.9,0,0,1,3,3v.2a2.9,2.9,0,0,1-3,3h0a2.9,2.9,0,0,1-2.9-3v-.2A2.9,2.9,0,0,1,154.8,204.8Z"/><path class="g" d="M163.5,204.8h0a2.9,2.9,0,0,1,3,3v.2a2.9,2.9,0,0,1-3,3h0a2.9,2.9,0,0,1-2.9-3v-.2A2.9,2.9,0,0,1,163.5,204.8Z"/><rect class="h" x="185.3" y="201.1" width="2.9" height="2.89" rx="1.4"/><rect class="h" x="188.8" y="206.9" width="2.9" height="2.89" rx="1.4"/><rect class="h" x="214.2" y="201.1" width="2.9" height="2.89" rx="1.4"/><rect class="h" x="217.6" y="206.9" width="2.9" height="2.89" rx="1.4"/><rect class="h" x="191.1" y="201.1" width="2.9" height="2.89" rx="1.4"/><rect class="h" x="194.5" y="206.9" width="2.9" height="2.89" rx="1.4"/><rect class="h" x="196.8" y="201.1" width="2.9" height="2.89" rx="1.4"/><rect class="h" x="200.3" y="206.9" width="2.9" height="2.89" rx="1.4"/><rect class="h" x="202.6" y="201.1" width="2.9" height="2.89" rx="1.4"/><rect class="h" x="206.1" y="206.9" width="2.9" height="2.89" rx="1.4"/><rect class="h" x="208.4" y="201.1" width="2.9" height="2.89" rx="1.4"/><rect class="h" x="211.9" y="206.9" width="2.9" height="2.89" rx="1.4"/><rect class="h" x="185" y="212.2" width="2.9" height="2.89" rx="1.4"/><rect class="h" x="213.9" y="212.2" width="2.9" height="2.89" rx="1.4"/><rect class="h" x="190.8" y="212.2" width="2.9" height="2.89" rx="1.4"/><rect class="h" x="196.6" y="212.2" width="2.9" height="2.89" rx="1.4"/><rect class="h" x="202.9" y="212.2" width="2.9" height="2.89" rx="1.4"/><rect class="h" x="208.7" y="212.2" width="2.9" height="2.89" rx="1.4"/><rect class="h" x="224.8" y="201.1" width="2.9" height="2.89" rx="1.4"/><rect class="h" x="228.3" y="206.9" width="2.9" height="2.89" rx="1.4"/><rect class="h" x="219" y="201.1" width="2.9" height="2.89" rx="1.4"/><rect class="h" x="223" y="206.9" width="2.9" height="2.89" rx="1.4"/><rect class="h" x="224.6" y="212.2" width="2.9" height="2.89" rx="1.4"/><rect class="h" x="219.3" y="212.2" width="2.9" height="2.89" rx="1.4"/><rect class="h" x="230.1" y="201.1" width="2.9" height="2.89" rx="1.4"/><rect class="h" x="233.6" y="206.9" width="2.9" height="2.89" rx="1.4"/><rect class="h" x="229.9" y="212.2" width="2.9" height="2.89" rx="1.4"/><rect class="c" x="143.8" y="151.5" width="96.3" height="7.63" rx="1.1"/><rect class="d" x="140.6" y="124.8" width="102.5" height="28.71" rx="2.7"/><path class="e" d="M143.4,124.8h34.8v28.7H143.4a2.7,2.7,0,0,1-2.8-2.8v-23a2.8,2.8,0,0,1,2.8-2.9Z"/><path class="f" d="M154.8,136.7h0a2.9,2.9,0,0,1,3,3v.2a2.9,2.9,0,0,1-3,3h0a2.9,2.9,0,0,1-2.9-3v-.2A2.9,2.9,0,0,1,154.8,136.7Z"/><path class="g" d="M163.5,136.7h0a2.9,2.9,0,0,1,3,3v.2a2.9,2.9,0,0,1-3,3h0a2.9,2.9,0,0,1-2.9-3v-.2A2.9,2.9,0,0,1,163.5,136.7Z"/><rect class="h" x="185.3" y="133" width="2.9" height="2.89" rx="1.4"/><rect class="h" x="188.8" y="138.7" width="2.9" height="2.89" rx="1.4"/><rect class="h" x="214.2" y="133" width="2.9" height="2.89" rx="1.4"/><rect class="h" x="217.6" y="138.7" width="2.9" height="2.89" rx="1.4"/><rect class="h" x="191.1" y="133" width="2.9" height="2.89" rx="1.4"/><rect class="h" x="194.5" y="138.7" width="2.9" height="2.89" rx="1.4"/><rect class="h" x="196.8" y="133" width="2.9" height="2.89" rx="1.4"/><rect class="h" x="200.3" y="138.7" width="2.9" height="2.89" rx="1.4"/><rect class="h" x="202.6" y="133" width="2.9" height="2.89" rx="1.4"/><rect class="h" x="206.1" y="138.7" width="2.9" height="2.89" rx="1.4"/><rect class="h" x="208.4" y="133" width="2.9" height="2.89" rx="1.4"/><rect class="h" x="211.9" y="138.7" width="2.9" height="2.89" rx="1.4"/><rect class="h" x="185" y="144.1" width="2.9" height="2.89" rx="1.4"/><rect class="h" x="213.9" y="144.1" width="2.9" height="2.89" rx="1.4"/><rect class="h" x="190.8" y="144.1" width="2.9" height="2.89" rx="1.4"/><rect class="h" x="196.6" y="144.1" width="2.9" height="2.89" rx="1.4"/><rect class="h" x="202.9" y="144.1" width="2.9" height="2.89" rx="1.4"/><rect class="h" x="208.7" y="144.1" width="2.9" height="2.89" rx="1.4"/><rect class="h" x="224.8" y="133" width="2.9" height="2.89" rx="1.4"/><rect class="h" x="228.3" y="138.7" width="2.9" height="2.89" rx="1.4"/><rect class="h" x="219" y="133" width="2.9" height="2.89" rx="1.4"/><rect class="h" x="223" y="138.7" width="2.9" height="2.89" rx="1.4"/><rect class="h" x="224.6" y="144.1" width="2.9" height="2.89" rx="1.4"/><rect class="h" x="219.3" y="144.1" width="2.9" height="2.89" rx="1.4"/><rect class="h" x="230.1" y="133" width="2.9" height="2.89" rx="1.4"/><rect class="h" x="233.6" y="138.7" width="2.9" height="2.89" rx="1.4"/><rect class="h" x="229.9" y="144.1" width="2.9" height="2.89" rx="1.4"/><rect class="c" x="143.8" y="253.7" width="96.3" height="7.63" rx="1.1"/><rect class="d" x="140.6" y="227" width="102.5" height="28.71" rx="2.7"/><path class="e" d="M143.4,227h34.8v28.7H143.4a2.8,2.8,0,0,1-2.8-2.8v-23a2.8,2.8,0,0,1,2.8-2.9Z"/><path class="f" d="M154.8,238.9h0a2.9,2.9,0,0,1,3,3v.2a3,3,0,0,1-3,3h0a3,3,0,0,1-2.9-3v-.2A2.9,2.9,0,0,1,154.8,238.9Z"/><path class="g" d="M163.5,238.9h0a2.9,2.9,0,0,1,3,3v.2a3,3,0,0,1-3,3h0a3,3,0,0,1-2.9-3v-.2A2.9,2.9,0,0,1,163.5,238.9Z"/><rect class="h" x="185.3" y="235.1" width="2.9" height="2.89" rx="1.4"/><rect class="h" x="188.8" y="240.9" width="2.9" height="2.89" rx="1.4"/><rect class="h" x="214.2" y="235.1" width="2.9" height="2.89" rx="1.4"/><rect class="h" x="217.6" y="240.9" width="2.9" height="2.89" rx="1.4"/><rect class="h" x="191.1" y="235.1" width="2.9" height="2.89" rx="1.4"/><rect class="h" x="194.5" y="240.9" width="2.9" height="2.89" rx="1.4"/><rect class="h" x="196.8" y="235.1" width="2.9" height="2.89" rx="1.4"/><rect class="h" x="200.3" y="240.9" width="2.9" height="2.89" rx="1.4"/><rect class="h" x="202.6" y="235.1" width="2.9" height="2.89" rx="1.4"/><rect class="h" x="206.1" y="240.9" width="2.9" height="2.89" rx="1.4"/><rect class="h" x="208.4" y="235.1" width="2.9" height="2.89" rx="1.4"/><rect class="h" x="211.9" y="240.9" width="2.9" height="2.89" rx="1.4"/><rect class="h" x="185" y="246.2" width="2.9" height="2.89" rx="1.4"/><rect class="h" x="213.9" y="246.2" width="2.9" height="2.89" rx="1.4"/><rect class="h" x="190.8" y="246.2" width="2.9" height="2.89" rx="1.4"/><rect class="h" x="196.6" y="246.2" width="2.9" height="2.89" rx="1.4"/><rect class="h" x="202.9" y="246.2" width="2.9" height="2.89" rx="1.4"/><rect class="h" x="208.7" y="246.2" width="2.9" height="2.89" rx="1.4"/><rect class="h" x="224.8" y="235.1" width="2.9" height="2.89" rx="1.4"/><rect class="h" x="228.3" y="240.9" width="2.9" height="2.89" rx="1.4"/><rect class="h" x="219" y="235.1" width="2.9" height="2.89" rx="1.4"/><rect class="h" x="223" y="240.9" width="2.9" height="2.89" rx="1.4"/><rect class="h" x="224.6" y="246.2" width="2.9" height="2.89" rx="1.4"/><rect class="h" x="219.3" y="246.2" width="2.9" height="2.89" rx="1.4"/><rect class="h" x="230.1" y="235.1" width="2.9" height="2.89" rx="1.4"/><rect class="h" x="233.6" y="240.9" width="2.9" height="2.89" rx="1.4"/><rect class="h" x="229.9" y="246.2" width="2.9" height="2.89" rx="1.4"/><rect class="d" x="140.6" y="261.1" width="102.5" height="28.71" rx="2.7"/><path class="e" d="M143.4,261.1h34.8v28.7H143.4a2.8,2.8,0,0,1-2.8-2.9v-23a2.8,2.8,0,0,1,2.8-2.8Z"/><path class="f" d="M154.8,272.9h0a3,3,0,0,1,3,3v.3a2.9,2.9,0,0,1-3,2.9h0a2.9,2.9,0,0,1-2.9-2.9v-.3A3,3,0,0,1,154.8,272.9Z"/><path class="g" d="M163.5,272.9h0a3,3,0,0,1,3,3v.3a2.9,2.9,0,0,1-3,2.9h0a2.9,2.9,0,0,1-2.9-2.9v-.3A3,3,0,0,1,163.5,272.9Z"/><rect class="h" x="185.3" y="269.2" width="2.9" height="2.89" rx="1.4"/><rect class="h" x="188.8" y="275" width="2.9" height="2.89" rx="1.4"/><rect class="h" x="214.2" y="269.2" width="2.9" height="2.89" rx="1.4"/><rect class="h" x="217.6" y="275" width="2.9" height="2.89" rx="1.4"/><rect class="h" x="191.1" y="269.2" width="2.9" height="2.89" rx="1.4"/><rect class="h" x="194.5" y="275" width="2.9" height="2.89" rx="1.4"/><rect class="h" x="196.8" y="269.2" width="2.9" height="2.89" rx="1.4"/><rect class="h" x="200.3" y="275" width="2.9" height="2.89" rx="1.4"/><rect class="h" x="202.6" y="269.2" width="2.9" height="2.89" rx="1.4"/><rect class="h" x="206.1" y="275" width="2.9" height="2.89" rx="1.4"/><rect class="h" x="208.4" y="269.2" width="2.9" height="2.89" rx="1.4"/><rect class="h" x="211.9" y="275" width="2.9" height="2.89" rx="1.4"/><rect class="h" x="185" y="280.3" width="2.9" height="2.89" rx="1.4"/><rect class="h" x="213.9" y="280.3" width="2.9" height="2.89" rx="1.4"/><rect class="h" x="190.8" y="280.3" width="2.9" height="2.89" rx="1.4"/><rect class="h" x="196.6" y="280.3" width="2.9" height="2.89" rx="1.4"/><rect class="h" x="202.9" y="280.3" width="2.9" height="2.89" rx="1.4"/><rect class="h" x="208.7" y="280.3" width="2.9" height="2.89" rx="1.4"/><rect class="h" x="224.8" y="269.2" width="2.9" height="2.89" rx="1.4"/><rect class="h" x="228.3" y="275" width="2.9" height="2.89" rx="1.4"/><rect class="h" x="219" y="269.2" width="2.9" height="2.89" rx="1.4"/><rect class="h" x="223" y="275" width="2.9" height="2.89" rx="1.4"/><rect class="h" x="224.6" y="280.3" width="2.9" height="2.89" rx="1.4"/><rect class="h" x="219.3" y="280.3" width="2.9" height="2.89" rx="1.4"/><rect class="h" x="230.1" y="269.2" width="2.9" height="2.89" rx="1.4"/><rect class="h" x="233.6" y="275" width="2.9" height="2.89" rx="1.4"/><rect class="h" x="229.9" y="280.3" width="2.9" height="2.89" rx="1.4"/><path class="i" d="M202.3,310.4c0,5,19.6,8.9,43.8,8.9s43.8-3.9,43.8-8.9v-7.9H202.3Z"/><path class="j" d="M289.9,302.5c0,4.9-19.6,8.9-43.8,8.9s-43.8-4-43.8-8.9,19.6-9,43.8-9S289.9,297.5,289.9,302.5Z"/><path class="k" d="M246.1,310.3h-.8a.1.1,0,0,1-.1-.1h1.6a.2.2,0,0,1,.2.2c0,.1-.1.1-.2.1Zm-2.2,0h-1.5l-.2-.2h1.7v.2Zm4.4,0a.1.1,0,0,1-.1-.1c0-.1,0-.2.1-.2h1.5a.1.1,0,0,1,.1.1c0,.1,0,.2-.1.2Zm-7.4,0h-1.6c0-.1,0-.2.1-.2h1.5a.1.1,0,0,1,.1.1C241,310.2,241,310.3,240.9,310.3Zm10.4,0a.2.2,0,0,1-.2-.2h1.7a.3.3,0,0,1,.1.2h-1.6Zm-13.4-.1h-1.5a.1.1,0,0,1-.1-.1.3.3,0,0,1,.1-.2h1.7A.2.2,0,0,1,237.9,310.2Zm16.4,0a.2.2,0,0,1-.2-.2h1.6a.2.2,0,0,1,.2.2h-1.6ZM235,310h-1.7c0-.1.1-.2.2-.1h1.6A.1.1,0,0,1,235,310Zm22.2,0c-.1,0-.1,0-.1-.1v-.2h1.5c.1-.1.1,0,.1.1s0,.1-.1.1Zm-25.2-.2h-1.6c0-.1,0-.2.1-.2l1.5.2h.1C232.1,309.8,232.1,309.8,232,309.8Zm28.2,0c-.1,0-.2,0-.2-.1h.2l1.4-.2a.2.2,0,0,1,.2.2h-1.6Zm-31.2-.2h0l-1.5-.2h-.1c0-.1.1-.1.2-.1H229a.2.2,0,0,1,.2.2Zm34.1,0H263c0-.1,0-.2.1-.2h1.5c.1,0,.2,0,.2.1h-.2l-1.4.2Zm-37-.3h0l-1.5-.2c-.1,0-.2-.1-.1-.1s0-.2.1-.1h1.5c.1,0,.1.1.1.2A.1.1,0,0,1,226.1,309.3Zm40,0h-.2a.2.2,0,0,1,.2-.2l1.4-.2a.2.2,0,0,1,.2.2.1.1,0,0,1-.1.1l-1.5.2Zm-43-.4h0l-1.5-.2h-.1c0-.1.1-.2.2-.1l1.5.2a.1.1,0,0,1,.1.1Zm45.9,0h-.1c0-.1,0-.1.1-.1l1.5-.3c.1,0,.1.1.2.2h-.2l-1.4.2Zm-48.8-.4h0l-1.5-.3h-.1c0-.1.1-.1.2-.1l1.4.2c.1,0,.2.1.1.2A.1.1,0,0,1,220.2,308.5Zm51.8,0h-.2v-.2l1.5-.2c.1,0,.2,0,.2.1h-.1l-1.5.3Zm-54.7-.5h0l-1.5-.3c-.1-.1-.1-.1-.1-.2s.1-.1.2-.1l1.4.3c.1,0,.2.1.1.2A.1.1,0,0,1,217.3,308Zm57.6,0h-.2v-.2l1.5-.3h.2a.1.1,0,0,1-.1.1l-1.5.4Zm-60.5-.7h0l-1.5-.4h.1l1.4.4h0Zm63.4,0c-.1,0-.2,0-.2-.1h.1l1.4-.4c.1-.1.2,0,.2.1h-.1l-1.4.4Zm-66.2-.8h-.1l-1.4-.5a.1.1,0,1,1,.2-.2l1.3.5h.1A.1.1,0,0,1,211.6,306.5Zm69,0c-.1,0-.1,0-.1-.1s0-.1,0-.2l1.4-.4a.1.1,0,0,1,.2,0c0,.1,0,.2-.1.2l-1.4.5Zm-71.7-1a.1.1,0,0,1-.1-.1l-1.3-.7c-.1,0-.1-.1,0-.2h.2l1.2.7c.1,0,.1.1.1.2Zm74.4-.1h-.1a.1.1,0,0,1,0-.2l1.3-.7c0-.1.1-.1.2,0s0,.2-.1.2l-1.2.7Zm-76.8-1.6h-.1a2.4,2.4,0,0,1-.5-1.3c0-.1,0-.1.1-.1h0c.1,0,.2,0,.2.1a1.4,1.4,0,0,0,.5,1.1c0,.1,0,.2-.1.2Zm79.1,0h-.1c0-.1-.1-.2,0-.2a2.1,2.1,0,0,0,.5-1.1h.3a1.7,1.7,0,0,1-.6,1.2C285.7,303.8,285.7,303.8,285.6,303.8Zm-79.1-2.4h-.1c-.1-.1-.1-.1,0-.2a3.6,3.6,0,0,1,1.1-1h.1l-1,.9Zm79.1-.1h-.1l-1.1-.9c-.1-.1-.1-.1,0-.2h.2l1.1.9v.2Zm-76.8-1.5a.1.1,0,0,1-.1-.1.1.1,0,0,1,0-.2l1.4-.6h.2c0,.1,0,.1-.1.2l-1.3.5Zm74.4-.1h0l-1.4-.6s-.1-.1,0-.1.1-.1.2-.1l1.3.6a.1.1,0,0,1,.1.1Zm-71.7-1h-.1c-.1-.1,0-.1.1-.2l1.4-.4h.1l-1.4.5Zm69,0h0l-1.4-.4H279c0-.1.1-.2.2-.1l1.4.4c.1,0,.1.1.1.2Zm-66.2-.8h-.1c0-.1,0-.2.1-.2l1.4-.3h.2a.1.1,0,0,1-.1.1l-1.4.4Zm63.4-.1h-.1l-1.4-.3c-.1,0-.1-.1-.1-.2h.2l1.4.4c.1,0,.2.1.1.2Zm-60.5-.6h-.1a.1.1,0,0,1,.1-.1l1.4-.3c.1,0,.2,0,.2.1h-.1l-1.4.3Zm57.6,0h0l-1.5-.3h-.1c0-.1.1-.1.2-.1l1.4.2c.1.1.2.1.2.2Zm-54.7-.5H220c0-.1,0-.2.1-.2l1.5-.2c.1,0,.1,0,.1.1s0,.2-.1.2l-1.4.2Zm51.8,0h0l-1.5-.2v-.2c0-.1.1-.1.2-.1l1.4.2c.1,0,.2.1.1.2Zm-48.8-.4-.2-.2h.1l1.5-.2h.2a.3.3,0,0,1-.1.2l-1.5.2Zm45.9-.1h-1.5c-.1-.1-.2-.1-.2-.2h.2l1.5.2a.1.1,0,0,1,.1.1Zm-43-.3h-.1c-.1-.1,0-.2.1-.2h1.5c.1,0,.1,0,.1.1h-.1l-1.5.2Zm40,0h0l-1.5-.2h-.1c0-.1.1-.1.2-.1H266a.2.2,0,0,1,.2.2Zm-37-.3h-.2a.3.3,0,0,1,.1-.2h1.7a.2.2,0,0,1-.2.2Zm34.1,0h-1.5a.2.2,0,0,1-.2-.2c0-.1.1-.1.2-.1h1.5c.1,0,.1.1.1.2Zm-31.2-.2c-.1,0-.1-.1-.1-.2h1.6c.1,0,.1,0,.1.1s0,.1-.1.2Zm28.2-.1h-1.6a.1.1,0,0,1,.1-.1h1.7C260.3,295.3,260.2,295.3,260.1,295.3Zm-25.2-.1a.2.2,0,0,1-.2-.2h1.8c0,.1,0,.2-.1.2Zm22.2,0h-1.4a.2.2,0,0,1-.2-.2h1.8A.2.2,0,0,1,257.1,295.2Zm-19.3-.2a.1.1,0,0,1-.1-.1h1.8a.2.2,0,0,1-.2.2h-1.5Zm16.4,0h-1.5a.2.2,0,0,1-.2-.2h1.8C254.3,295,254.3,295,254.2,295Zm-13.4-.1h-.1c0-.1,0-.1.1-.1h1.5c.1,0,.1.1.1.2h-1.6Zm10.4,0h-1.6c0-.1,0-.2.1-.2h1.5c.1,0,.2,0,.2.1Zm-7.4,0a.2.2,0,0,1-.2-.2h1.8c0,.1,0,.2-.1.2Zm4.4,0h-1.4a.2.2,0,0,1-.2-.2h1.8A.2.2,0,0,1,248.2,294.9Z"/><ellipse class="i" cx="246.1" cy="302.5" rx="36.8" ry="6.4"/><path class="k" d="M210,303.7c3.4-2.9,18.3-5.1,36.1-5.1s32.6,2.2,36,5.1a1.7,1.7,0,0,0,.8-1.2c0-3.6-16.5-6.4-36.8-6.4s-36.8,2.8-36.8,6.4A1.5,1.5,0,0,0,210,303.7Z"/><path class="k" d="M234.2,305.8a7.1,7.1,0,0,1-3.2-1.2h-2l-2.2-.2c-.5-.1-.8-.3-.8-.4s.3-.4.8-.5h4.1a4.8,4.8,0,0,1,2.7-1.7l1.1-.2h1.6l2.2.2q.9.1.9.3a.2.2,0,0,1-.2.2l-.6.3a5.8,5.8,0,0,0-1.4.7,1,1,0,0,0-.5.7c0,.3.3.6.8.7a6.1,6.1,0,0,0,2.2.3l1.5-.2.9-.3.8-.7,1.7-1a8.5,8.5,0,0,1,2.5-.7,30.5,30.5,0,0,1,4.8-.3,34.9,34.9,0,0,1,5.9.4,8.9,8.9,0,0,1,3.3,1.3h2.1l2.1.2c.5.1.8.3.8.4s-.3.3-.8.5h-4.1a5.5,5.5,0,0,1-2.7,1.4l-1.1.2h-3.7c-.6-.2-.9-.3-.9-.4v-.2l.7-.3.7-.3a2,2,0,0,0,.8-.4c.2-.2.3-.3.3-.5s-.2-.5-.8-.6a6.5,6.5,0,0,0-2.2-.3,5.8,5.8,0,0,0-2.1.3,5.1,5.1,0,0,0-1.3.9,6.5,6.5,0,0,1-1.5,1,9.4,9.4,0,0,1-2.6.7,30.5,30.5,0,0,1-4.8.3A25.4,25.4,0,0,1,234.2,305.8Z"/><path class="k" d="M280.7,307.9v8l.8-.2v-8Z"/><path class="k" d="M271.9,309.6v8h.9v-8Z"/><path class="k" d="M263.1,310.7v7.9h.9v-8Z"/><path class="k" d="M254.4,311.2v8h.9v-7.9Z"/><path class="k" d="M246.1,311.4h-.5v7.9h.9v-7.9Z"/><path class="k" d="M236.9,311.2v7.9h.8v-8Z"/><path class="k" d="M228.1,310.6v8h.9v-7.9Z"/><path class="k" d="M219.4,309.5v8h.8v-8Z"/><path class="k" d="M210.6,307.7v8l.9.2v-8Z"/><path class="i" d="M208.6,302.4c0,4.9,19.6,8.9,43.8,8.9s43.8-4,43.8-8.9v-8H208.6Z"/><ellipse class="j" cx="252.4" cy="294.4" rx="43.8" ry="8.9"/><path class="k" d="M252.4,302.3h-.9a.2.2,0,0,1,.2-.2h1.5v.2h-.9Zm-2.2,0h-1.5c-.1,0-.1-.1-.1-.2a.1.1,0,0,1,.1-.1h1.5c.1,0,.1.1.1.2A.1.1,0,0,1,250.2,302.3Zm4.4,0h-.1V302h1.7l-.2.2Zm-7.4-.1h-1.6c0-.1,0-.2.1-.2h1.5c.1,0,.2,0,.2.1Zm10.4,0h-.1c0-.1,0-.1.1-.1h1.5c.1,0,.1.1.1.2s0,.1-.1.1Zm-13.3-.1h-1.5a.2.2,0,0,1-.2-.2h1.7a.1.1,0,0,1,0,.2Zm16.3,0c-.1,0-.2,0-.2-.1s.1-.1.2-.1h1.6c0,.1,0,.2-.1.2Zm-19.3-.1h-1.6c0-.1,0-.2.1-.2h1.5c.1,0,.1.1.1.2A.1.1,0,0,1,241.3,302Zm22.3,0h-.2v-.2H265a.2.2,0,0,1,.2.2h-1.6Zm-25.3-.2h-1.6a.2.2,0,0,1,.2-.2h1.4l.2.2C238.5,301.8,238.4,301.8,238.3,301.8Zm28.2,0c-.1,0-.1,0-.1-.1v-.2H268c.1,0,.1.1.1.2h-1.6Zm-31.1-.2h-.1l-1.4-.2h-.2c0-.1.1-.1.2-.1h1.5c.1,0,.1.1.1.2Zm34.1,0a.2.2,0,0,1-.2-.2h1.6c.1-.1.2,0,.2.1H271l-1.5.2Zm-37.1-.3h0l-1.5-.2c-.1,0-.1-.1-.1-.2h.2l1.4.2a.2.2,0,0,1,.2.2Zm40,0h-.1c0-.1,0-.2.1-.2l1.5-.2h.1c.1.1,0,.2-.1.2l-1.5.2Zm-42.9-.4h-.1l-1.4-.2c-.1,0-.2-.1-.1-.2a.1.1,0,0,1,.1-.1l1.5.2c.1.1.1.1.1.2Zm45.9,0h-.2c0-.1.1-.1.1-.2l1.5-.2h.2a.3.3,0,0,1-.1.2l-1.5.2Zm-48.9-.4h0l-1.5-.3h-.1c0-.1.1-.2.2-.1l1.5.2v.2Zm51.8,0a.1.1,0,0,1-.1-.1c-.1-.1,0-.2.1-.2l1.4-.2c.1-.1.2,0,.2.1h-.1l-1.5.3Zm-54.7-.6h0l-1.5-.3a.1.1,0,0,1-.1-.1h.2l1.5.3h-.1Zm57.6,0h-.1c-.1,0,0-.1.1-.1l1.4-.3c.1,0,.2,0,.2.1a.1.1,0,0,1-.1.1l-1.5.3Zm-60.5-.6h0l-1.4-.4h-.1c0-.1.1-.2.2-.1l1.4.3v.2C220.9,299.3,220.8,299.3,220.7,299.3Zm63.4,0c-.1,0-.1,0-.1-.1s0-.1.1-.2l1.4-.3h.2a.3.3,0,0,1-.1.2l-1.5.4Zm-66.2-.8h0l-1.4-.5c-.1,0-.1-.1-.1-.2a.1.1,0,0,1,.2,0l1.4.4c0,.1.1.1,0,.2S218,298.5,217.9,298.5Zm69,0a.1.1,0,0,1-.1-.1v-.2l1.3-.5c.1,0,.2,0,.2.1a.1.1,0,0,1,0,.2l-1.4.5Zm-71.7-1.1h-.1l-1.3-.7v-.2c.1,0,.2-.1.2,0l1.3.7a.1.1,0,0,1,0,.2Zm74.4,0h-.1a.1.1,0,0,1,.1-.1l1.2-.7c.1-.1.2-.1.2,0s0,.1,0,.2l-1.3.7Zm-76.7-1.6h-.1a2.2,2.2,0,0,1-.6-1.3.2.2,0,0,1,.2-.2h0a.3.3,0,0,1,.1.2,2.1,2.1,0,0,0,.5,1.1v.2Zm79,0h0v-.2a2.1,2.1,0,0,0,.5-1.2h0c0-.1,0-.2.1-.2h0l.2.2h0a2.1,2.1,0,0,1-.5,1.3Zm-79.1-2.4h-.1v-.2a5.5,5.5,0,0,1,1.1-1h.2v.2a3,3,0,0,0-1,.9Zm79.1-.1h-.1a5.3,5.3,0,0,0-1.1-.9v-.2h.2a3.5,3.5,0,0,1,1.1.9c.1.1.1.1,0,.2Zm-76.8-1.6H215c0-.1,0-.2.1-.2l1.3-.6c.1,0,.2,0,.2.1a.3.3,0,0,1-.1.2l-1.3.5Zm74.5,0h-.1l-1.3-.6c-.1,0-.1-.1-.1-.2h.2l1.3.5a.3.3,0,0,1,.1.2Zm-71.8-1h-.1c0-.1,0-.2.1-.2l1.4-.4c.1,0,.2,0,.2.1h-.1l-1.4.5Zm69.1-.1h-.1l-1.4-.4c-.1,0-.1-.1-.1-.2a.1.1,0,0,1,.2,0l1.4.4a.1.1,0,0,1,0,.2Zm-66.2-.7h-.2a.3.3,0,0,1,.1-.2l1.5-.3c.1-.1.1,0,.2.1h-.2l-1.4.4Zm63.3-.1h0l-1.5-.3v-.2h.2l1.5.4H284Zm-60.4-.6h-.2c0-.1,0-.1.1-.1l1.5-.3h0l-1.4.3Zm57.5,0h0l-1.4-.3h-.2c.1-.1.1-.2.2-.1l1.5.2c.1,0,.1.1.1.2Zm-54.6-.5h-.2a.3.3,0,0,1,.1-.2l1.5-.2c.1,0,.2,0,.2.1s-.1.1-.1.2l-1.5.2Zm51.7,0h0l-1.5-.3h-.1c0-.1.1-.1.2-.1l1.5.2a.3.3,0,0,1,.1.2Zm-48.8-.5h0l1.4-.2h.2c0,.1,0,.1-.1.2Zm45.9,0h0l-1.5-.2c-.1,0-.1,0-.1-.1h.1l1.5.2c.1,0,.2,0,.1.1Zm-43-.3h-.1c0-.1,0-.2.1-.2h1.5c.1,0,.2,0,.2.1h-.2l-1.4.2Zm40.1,0h-.1l-1.4-.2h-.2c0-.1.1-.2.2-.1h1.5c.1,0,.1.1.1.2Zm-37.1-.3h-.2a.2.2,0,0,1,.2-.2h1.5a.1.1,0,0,1,.1.1v.2Zm34.1,0h0l-1.5-.2h-.1a.1.1,0,0,1,.1-.1h1.5c.1,0,.2.1.1.2A.1.1,0,0,1,269.4,287.6Zm-31.2-.3a.1.1,0,0,1-.1-.1h1.6c.1,0,.2,0,.2.1h-1.7Zm28.2,0h-1.6c0-.1.1-.1.2-.1h1.6C266.6,287.3,266.5,287.3,266.4,287.3Zm-25.2-.1c-.1,0-.1-.1-.1-.2a.1.1,0,0,1,.1-.1h1.6c0,.1,0,.2-.1.2Zm22.3-.1H262a.2.2,0,0,1-.2-.2h1.7c.1,0,.1,0,.1.1S263.6,287.1,263.5,287.1Zm-19.3-.1c-.1,0-.2,0-.2-.1l.2-.2h1.5a.1.1,0,0,1,.1.1v.2Zm16.3,0H259v-.2c0-.1,0-.1.1-.1h1.5a.2.2,0,0,1,.2.2Zm-13.4-.1H247a.3.3,0,0,1,.1-.2h1.7a.2.2,0,0,1-.2.2h-1.5Zm10.4,0h-1.4a.2.2,0,0,1-.2-.2h1.6a.2.2,0,0,1,.2.2Zm-7.4,0c-.1,0-.1-.1-.1-.2h1.8c0,.1-.1.1-.2.1Zm4.5,0h-1.5c-.1,0-.2,0-.2-.1h1.8C254.7,286.8,254.7,286.9,254.6,286.9Z"/><ellipse class="i" cx="252.4" cy="294.4" rx="36.8" ry="6.4"/><path class="k" d="M216.3,295.7c3.5-2.9,18.3-5.1,36.1-5.1s32.6,2.2,36.1,5.1a1.6,1.6,0,0,0,.7-1.3c0-3.5-16.5-6.4-36.8-6.4s-36.8,2.9-36.8,6.4A1.6,1.6,0,0,0,216.3,295.7Z"/><path class="k" d="M240.6,297.8c-1.7-.3-2.7-.7-3.2-1.3h-4.2c-.6-.1-.8-.3-.8-.5s.2-.3.8-.4l2.1-.2h1.9a5.4,5.4,0,0,1,2.8-1.6l1-.2h1.6l2.2.2q.9.1.9.3c0,.1,0,.2-.1.2l-.7.3-1.4.7a.9.9,0,0,0-.4.7c0,.3.2.5.7.7a6.5,6.5,0,0,0,2.2.2h1.5a1.9,1.9,0,0,0,.9-.4l.9-.6a5.4,5.4,0,0,1,1.6-1,8,8,0,0,1,2.6-.8,28.3,28.3,0,0,1,4.7-.3,33.3,33.3,0,0,1,5.9.5,7.6,7.6,0,0,1,3.3,1.3h2.1l2.1.2c.6.1.9.2.9.4s-.3.3-.9.4a6.2,6.2,0,0,1-2.1.2h-2a4.6,4.6,0,0,1-2.6,1.4l-1.2.2h-1.5L260,298q-.9-.2-.9-.3c0-.1,0-.2.2-.2l.6-.3.7-.3a2.9,2.9,0,0,0,.8-.4c.3-.2.4-.3.4-.5s-.3-.5-.9-.6a6.5,6.5,0,0,0-2.2-.3,4.9,4.9,0,0,0-2,.3,5.5,5.5,0,0,0-1.4.9l-1.5,1a8.4,8.4,0,0,1-2.6.7,30.5,30.5,0,0,1-4.8.3A24.5,24.5,0,0,1,240.6,297.8Z"/><path class="k" d="M287,299.9v8l.9-.3v-7.9Z"/><path class="k" d="M278.2,301.6v8h.9v-8Z"/><path class="k" d="M269.5,302.6v8h.8v-8Z"/><path class="k" d="M260.7,303.2v8h.9v-7.9Z"/><path class="k" d="M252.4,303.3H252v8h.8v-8Z"/><path class="k" d="M243.2,303.2v7.9h.9v-8Z"/><path class="k" d="M234.4,302.6v8h.9v-8Z"/><path class="k" d="M225.7,301.5v8h.9v-8Z"/><path class="k" d="M216.9,299.7v7.9l.9.3v-8Z"/><path class="l" d="M200.4,293.7c0,4.9,19.6,8.9,43.8,8.9s43.8-4,43.8-8.9v-8H200.4Z"/><ellipse class="j" cx="244.2" cy="285.7" rx="43.8" ry="8.9"/><path class="k" d="M244.2,293.6h-.7a.2.2,0,0,1-.2-.2h1.8a.3.3,0,0,1-.1.2Zm-2.2,0h-1.5c-.1,0-.2,0-.2-.1h1.8C242.1,293.5,242.1,293.6,242,293.6Zm4.4,0a.3.3,0,0,1-.1-.2h1.8c0,.1-.1.1-.2.1Zm-7.4-.1h-1.5c-.1,0-.1-.1-.1-.2a.1.1,0,0,1,.1-.1H239l.2.2C239.2,293.5,239.1,293.5,239,293.5Zm10.4,0c-.1,0-.1,0-.1-.1s0-.2.1-.2h1.5a.1.1,0,0,1,.1.1c0,.1,0,.2-.1.2Zm-13.4-.1h-1.4c-.1-.1-.2-.1-.2-.2h1.7a.1.1,0,0,1,.1.1Zm16.4,0h-.2c0-.1.1-.1.2-.2H254c0,.1,0,.1-.1.2Zm-19.3-.1h-1.5a.2.2,0,0,1-.2-.2h1.7c.1,0,.1.1.1.2A.1.1,0,0,1,233.1,293.3Zm22.2,0v-.2H257a.2.2,0,0,1-.2.2h-1.5Zm-25.2-.2h-1.5c-.1,0-.1-.1-.1-.2h1.6a.2.2,0,0,1,.2.2Zm28.2,0a.1.1,0,0,1-.1-.1c0-.1,0-.2.1-.2h1.5a.1.1,0,0,1,.1.1c0,.1,0,.2-.1.2Zm-31.1-.3h-1.7a.2.2,0,0,1,.2-.2l1.5.2h.1A.1.1,0,0,1,227.2,292.8Zm34.1,0c-.1,0-.2,0-.2-.1h.2l1.4-.2a.2.2,0,0,1,.2.2h-1.6Zm-37.1-.3h-1.5c-.1,0-.1-.1-.1-.2h.2l1.4.2h0Zm40,0c-.1,0-.1,0-.1-.1h.1l1.5-.2h.1c.1.1,0,.2-.1.2Zm-42.9-.3h-.1l-1.4-.2a.2.2,0,0,1-.2-.2h.2l1.5.2c.1,0,.1.1.1.2Zm45.9,0H267a.3.3,0,0,1,.1-.2l1.5-.2c.1,0,.2,0,.2.1v.2l-1.5.2Zm-48.9-.5h0l-1.5-.2v-.2h.2l1.5.3h-.1Zm51.8,0h0l1.4-.3h.2c0,.1,0,.2-.1.2l-1.5.2Zm-54.7-.5h0l-1.5-.3h-.1c0-.1.1-.2.2-.1l1.5.3a.1.1,0,0,1,.1.1Zm57.6,0h-.1c-.1-.1,0-.1.1-.1l1.4-.4h.2c0,.1,0,.2-.1.2l-1.5.3Zm-60.5-.6h0l-1.4-.4c-.1,0-.2-.1-.1-.2h.2l1.4.4c.1,0,.1.1.1.2Zm63.4,0h-.2a.3.3,0,0,1,.1-.2l1.5-.4h.2a.3.3,0,0,1-.1.2l-1.5.4Zm-66.2-.8h0l-1.4-.5v-.2c0-.1.1-.1.2-.1l1.4.5a.1.1,0,0,1,0,.2A.1.1,0,0,1,209.7,289.8Zm69,0h-.1c0-.1,0-.2.1-.2l1.3-.5c.1,0,.2,0,.2.1s0,.1,0,.2l-1.4.5ZM207,288.7h-.1l-1.3-.7v-.2c.1-.1.2-.1.2,0l1.3.7s.1.1,0,.1Zm74.4,0h-.1a.3.3,0,0,1,.1-.2l1.2-.7c.1,0,.2,0,.2.1s0,.1,0,.2l-1.3.7Zm-76.7-1.6h-.2a2.1,2.1,0,0,1-.5-1.3h.3a2.1,2.1,0,0,0,.5,1.2v.2Zm79,0h0c-.1,0-.1-.1-.1-.2a1.6,1.6,0,0,0,.5-1.1h0c0-.1,0-.2.1-.2h.2a2.4,2.4,0,0,1-.5,1.3Zm-79.1-2.4h-.1v-.2a5.3,5.3,0,0,1,1.1-.9c0-.1.1,0,.2,0v.2a5.3,5.3,0,0,0-1.1.9Zm79.1-.1a.1.1,0,0,1-.1-.1,5.3,5.3,0,0,0-1.1-.9h.2a5.5,5.5,0,0,1,1.1,1c.1,0,.1.1,0,.2ZM206.9,283a.1.1,0,0,1-.1-.1h0l1.4-.6h.2c0,.1,0,.2-.1.2l-1.3.6Zm74.5,0h-.1l-1.3-.6c-.1,0-.1-.1-.1-.2h.2l1.3.6v.2Zm-71.8-1.1h-.1c0-.1,0-.2.1-.2l1.4-.4a.1.1,0,0,1,.2,0c0,.1,0,.2-.1.2l-1.4.4Zm69,0h0l-1.4-.4c-.1,0-.1-.1-.1-.2s.1-.1.2-.1l1.4.5a.1.1,0,0,1,.1.1Zm-66.1-.8c-.1,0-.2,0-.2-.1a.1.1,0,0,1,.1-.1l1.5-.4h.1c.1.1,0,.2-.1.2l-1.4.3Zm63.3,0h0l-1.5-.3c0-.1-.1-.1-.1-.2h.2l1.5.3c0,.1.1.1.1.2Zm-60.5-.6h-.1c0-.1,0-.2.1-.2l1.5-.3c.1,0,.1.1.1.2h-.1l-1.4.3Zm57.6,0h0l-1.4-.3a.2.2,0,0,1-.2-.2h.2l1.5.3v.2Zm-54.6-.5h-.2c0-.1,0-.2.1-.2l1.5-.2c.1,0,.2,0,.2.1h-.2l-1.4.3Zm51.7-.1h0l-1.5-.2h-.1a.2.2,0,0,1,.2-.2l1.4.3h0Zm-48.8-.4h0l1.4-.2h.2c0,.1,0,.1-.1.1l-1.5.2Zm45.9,0h0l-1.5-.2a.1.1,0,0,1-.1-.1c0-.1,0-.2.1-.1h1.5v.2C267.2,279.5,267.2,279.5,267.1,279.5Zm-43-.3a.3.3,0,0,1-.1-.2.1.1,0,0,1,.1-.1l1.5-.2.2.2h-.2l-1.4.2Zm40-.1h-1.4l-.2-.2h.2l1.5.2h.1C264.3,279.1,264.2,279.1,264.1,279.1Zm-37-.2a.2.2,0,0,1-.2-.2h1.6c.1,0,.2,0,.2.1h-.1l-1.5.2Zm34.1-.1h-1.6c0-.1.1-.2.1-.1h1.6C261.3,278.8,261.3,278.8,261.2,278.8Zm-31.2-.2a.1.1,0,0,1-.1-.1c0-.1,0-.1.1-.1l1.5-.2.2.2H230Zm28.2,0h-1.6a.2.2,0,0,1,.2-.2h1.4a.2.2,0,0,1,.2.2C258.4,278.6,258.3,278.6,258.2,278.6Zm-25.2-.2h-.1c0-.1,0-.1.1-.1h1.6c0,.1,0,.1-.1.1Zm22.3,0h-1.5c-.1,0-.2,0-.2-.1h1.7c.1,0,.1,0,.1.1Zm-19.3-.1h-.2a.2.2,0,0,1,.2-.2h1.5a.1.1,0,0,1,.1.1H236Zm16.3,0h-1.6c0-.1,0-.1.1-.1h1.5a.2.2,0,0,1,.2.2Zm-13.4-.1h-.1a.3.3,0,0,1,.1-.2h1.5c.1,0,.2,0,.2.1a.2.2,0,0,1-.2.2Zm10.4,0h-1.5c0-.1-.1-.1-.1-.2s.1-.1.2-.1h1.4a.2.2,0,0,1,.2.2Zm-7.4-.1c-.1,0-.1,0-.1-.1s0-.1.1-.1h1.5c.1,0,.1,0,.1.1s0,.1-.1.1Zm4.5,0h-1.5c-.1,0-.2,0-.2-.1s.1-.1.2-.1h1.5c.1,0,.1,0,.1.1A.1.1,0,0,1,246.4,278.1Z"/><ellipse class="l" cx="244.2" cy="285.7" rx="36.8" ry="6.4"/><path class="k" d="M208.1,287c3.5-2.9,18.3-5.1,36.1-5.1s32.6,2.2,36.1,5.1a1.9,1.9,0,0,0,.7-1.3c0-3.5-16.5-6.4-36.8-6.4s-36.8,2.9-36.8,6.4A1.6,1.6,0,0,0,208.1,287Z"/><path class="k" d="M232.4,289.1c-1.7-.3-2.7-.7-3.2-1.3H225c-.6-.2-.8-.3-.8-.5s.2-.3.8-.4l2.1-.2H229a4.8,4.8,0,0,1,2.8-1.6l1-.2h3.8c.6.1.9.3.9.4s0,.1-.1.2l-.7.3a4.5,4.5,0,0,0-1.4.7.8.8,0,0,0-.4.7c0,.3.2.5.7.7l2.2.2h1.5a1.9,1.9,0,0,0,.9-.4l.8-.6,1.7-1.1a12.8,12.8,0,0,1,2.6-.7,28.3,28.3,0,0,1,4.7-.3,33.3,33.3,0,0,1,5.9.5c1.7.3,2.8.7,3.3,1.3h2.1a6.2,6.2,0,0,1,2.1.2c.6.1.8.2.8.4s-.2.3-.8.4l-2.1.2h-2c-.3.5-1.2.9-2.6,1.4l-1.2.2H254l-2.2-.2c-.6-.1-.9-.2-.9-.4h.2l.6-.3.7-.3.8-.4c.3-.2.4-.4.4-.5s-.3-.5-.9-.7l-2.2-.2a4.9,4.9,0,0,0-2,.3,3.4,3.4,0,0,0-1.4.8,7.2,7.2,0,0,1-1.5,1.1,9.4,9.4,0,0,1-2.6.7,30.5,30.5,0,0,1-4.8.3A31.3,31.3,0,0,1,232.4,289.1Z"/><path class="k" d="M278.8,291.2v8l.9-.3v-8Z"/><path class="k" d="M270,292.9v8h.9v-8Z"/><path class="k" d="M261.3,293.9v8h.8v-8Z"/><path class="k" d="M252.5,294.5v7.9h.9v-8Z"/><path class="k" d="M244.2,294.6h-.4v8h.8v-8Z"/><path class="k" d="M235,294.4v8h.9v-7.9Z"/><path class="k" d="M226.2,293.8v8h.9v-8Z"/><path class="k" d="M217.5,292.8v8h.8v-8Z"/><path class="k" d="M208.7,290.9v8l.9.3v-8Z"/><path class="i" d="M208.2,285.6c0,4.9,19.6,8.9,43.8,8.9s43.8-4,43.8-8.9v-8H208.2Z"/><ellipse class="j" cx="252" cy="277.6" rx="43.8" ry="8.9"/><path class="k" d="M252,285.5h-.9a.2.2,0,0,1,.2-.2h1.4a.2.2,0,0,1,.2.2H252Zm-2.2,0h-1.5a.2.2,0,0,1-.2-.2h1.7c.1,0,.1.1.1.2A.1.1,0,0,1,249.8,285.5Zm4.4,0h-.1c0-.1,0-.2.1-.2h1.7a.2.2,0,0,1-.2.2Zm-7.4-.1h-1.6c0-.1,0-.2.1-.2h1.5c.1,0,.2,0,.2.1Zm10.4,0h-.1c0-.1,0-.1.1-.1h1.5c.1,0,.1.1.1.2h-1.6Zm-13.4-.1h-1.5v-.2H244C244,285.3,243.9,285.3,243.8,285.3Zm16.4,0c-.1,0-.2,0-.2-.1h1.8v.2Zm-19.3-.1h-1.7a.2.2,0,0,1,.2-.2h1.5c.1,0,.1.1.1.2Zm22.2,0H263c0-.1,0-.2.1-.2h1.5a.2.2,0,0,1,.2.2h-1.7Zm-25.2-.2h-1.6c0-.1,0-.2.1-.2h1.5l.2.2C238.1,285,238,285,237.9,285Zm28.2,0c-.1,0-.1,0-.1-.1s0-.1.1-.2h1.5c.1,0,.1.1.1.2h-1.6Zm-31.1-.2h-.1l-1.4-.2c-.1,0-.2,0-.2-.1s.1-.1.2-.1H235v.2Zm34.1,0-.2-.2h1.6c.1,0,.2,0,.2.1a.1.1,0,0,1-.1.1l-1.5.2Zm-37.1-.3h0l-1.5-.2a.1.1,0,0,1-.1-.1V284l1.5.2c.1,0,.2.1.1.2A.1.1,0,0,1,232,284.5Zm40,0a.1.1,0,0,1-.1-.1c0-.1,0-.2.1-.2l1.5-.2h.1c0,.1,0,.2-.1.2l-1.5.2Zm-42.9-.4H229l-1.4-.2a.2.2,0,0,1-.2-.2h.2l1.5.2c.1.1.1.1.1.2A.1.1,0,0,1,229.1,284.1Zm45.9,0c-.1,0-.2,0-.2-.1s.1-.1.1-.2l1.5-.2h.2a.2.2,0,0,1-.2.2l-1.4.2Zm-48.9-.4h0l-1.5-.3h-.1c0-.1.1-.2.2-.1l1.5.2a.3.3,0,0,1,.1.2Zm51.8,0h-.2a.2.2,0,0,1,.2-.2l1.4-.2c.1-.1.2,0,.2.1h-.1l-1.5.3Zm-54.7-.6h0l-1.5-.3a.1.1,0,0,1-.1-.1h.2l1.4.3h0Zm57.6,0c-.1,0-.1,0-.1-.1s0-.1.1-.1l1.4-.3h.2a.1.1,0,0,1-.1.1l-1.5.3Zm-60.5-.6h0l-1.4-.4c-.1,0-.2-.1-.1-.1s.1-.2.1-.1l1.5.3c0,.1.1.1.1.2S220.4,282.5,220.3,282.5Zm63.4,0h-.2c0-.1.1-.1.1-.2l1.5-.3h.1a.1.1,0,0,1,0,.2l-1.5.4Zm-66.2-.8h-.1l-1.3-.5c-.1,0-.2-.1-.1-.2a.1.1,0,0,1,.2,0l1.3.4c.1.1.2.1.1.2Zm69,0h-.1c-.1-.1,0-.1.1-.2l1.3-.5c.1,0,.2,0,.2.1a.1.1,0,0,1,0,.2l-1.4.5Zm-71.7-1.1h-.1l-1.3-.7v-.2h.2l1.3.7a.1.1,0,0,1,0,.2Zm74.4,0a.1.1,0,0,1,0-.2l1.2-.7h.2v.2l-1.3.7ZM212.5,279h-.2a2.7,2.7,0,0,1-.5-1.3v-.2h0a.2.2,0,0,1,.2.2,2.1,2.1,0,0,0,.5,1.1v.2Zm79,0h-.1v-.2a2.1,2.1,0,0,0,.5-1.2h0c0-.1,0-.1.1-.2h0a.2.2,0,0,1,.2.2h0a2.1,2.1,0,0,1-.5,1.3Zm-79.1-2.4h-.1c0-.1-.1-.2,0-.2a5.5,5.5,0,0,1,1.1-1h.2v.2a5.3,5.3,0,0,0-1.1.9C212.5,276.6,212.5,276.6,212.4,276.6Zm79.1-.1h-.1a5.3,5.3,0,0,0-1.1-.9v-.2h.2a5.3,5.3,0,0,1,1.1.9c.1.1,0,.1,0,.2Zm-76.8-1.6h-.1a.1.1,0,0,1,0-.2l1.4-.6h.2a.3.3,0,0,1-.1.2l-1.3.5Zm74.5,0h-.1l-1.3-.6c-.1,0-.1-.1-.1-.2a.1.1,0,0,1,.2,0l1.3.5a.3.3,0,0,1,.1.2Zm-71.8-1h-.1c0-.1,0-.2.1-.2l1.4-.4c.1,0,.2,0,.2.1h-.1l-1.4.5Zm69-.1h0l-1.4-.4c-.1,0-.1-.1-.1-.2h.2l1.4.4h.1C286.6,273.8,286.5,273.8,286.4,273.8Zm-66.1-.7h-.2c0-.1,0-.2.1-.2l1.5-.3c0-.1.1,0,.1.1h-.1l-1.4.4Zm63.3-.1h0l-1.5-.3a.3.3,0,0,1-.1-.2h.2l1.5.4h-.1Zm-60.5-.6H223c0-.1,0-.1.1-.1l1.5-.3a.1.1,0,0,1,.1.1c.1.1,0,.1-.1.1l-1.4.3Zm57.6,0h0l-1.5-.3h-.1c0-.1.1-.2.2-.1l1.5.2a.3.3,0,0,1,.1.2Zm-54.6-.5h-.2c0-.1,0-.2.1-.2l1.5-.2h.2c0,.1-.1.1-.2.2l-1.4.2Zm51.7,0h0l-1.5-.3c-.1,0-.1,0-.1-.1s.1-.1.2-.1l1.4.2a.2.2,0,0,1,.2.2Zm-48.8-.5h0l1.4-.2c.1,0,.2,0,.2.1v.2Zm45.9,0h0l-1.5-.2h-.1c0-.1,0-.1.1-.1l1.5.2c.1,0,.1,0,.1.1Zm-43-.3h-.1c0-.1,0-.2.1-.2h1.5c.1,0,.1,0,.1.1s0,.1-.1.1l-1.5.2Zm40,0h0l-1.5-.2h-.1c0-.1.1-.2.2-.1H272a.3.3,0,0,1,.1.2Zm-37-.3h-.2l.2-.2h1.4c.1,0,.2,0,.2.1s0,.2-.1.2Zm34.1,0h0l-1.5-.2c-.1,0-.1,0-.1-.1s0-.1.1-.1H269c.1,0,.1.1.1.2A.1.1,0,0,1,269,270.8Zm-31.2-.3a.1.1,0,0,1-.1-.1h1.6c.1,0,.2,0,.2.1h-1.7Zm28.2,0h-1.6c0-.1.1-.1.2-.1h1.6C266.2,270.5,266.1,270.5,266,270.5Zm-25.2-.1c-.1,0-.1-.1-.1-.2h1.6a.1.1,0,0,1,.1.1c0,.1,0,.2-.1.2Zm22.3-.1h-1.5l-.2-.2h1.8A.1.1,0,0,1,263.1,270.3Zm-19.3-.1h-.2a.2.2,0,0,1,.2-.2h1.4c.1,0,.2,0,.2.1a.3.3,0,0,1-.1.2Zm16.3,0h-1.5c-.1-.1-.1-.1-.1-.2s0-.1.1-.1h1.5c.1,0,.2.1.1.2Zm-13.4-.1a.1.1,0,0,1-.1-.1c0-.1,0-.2.1-.2h1.7a.2.2,0,0,1-.2.2Zm10.4,0h-1.5a.3.3,0,0,1-.1-.2h1.6a.2.2,0,0,1,.2.2C257.3,270.1,257.2,270.1,257.1,270.1Zm-7.4,0c-.1,0-.1-.1-.1-.2h1.7c0,.1,0,.1-.1.1Zm4.5,0h-1.5c-.1,0-.2,0-.2-.1h1.8A.3.3,0,0,1,254.2,270.1Z"/><ellipse class="i" cx="252" cy="277.6" rx="36.8" ry="6.4"/><path class="k" d="M215.9,278.9c3.5-2.9,18.3-5.1,36.1-5.1s32.6,2.2,36.1,5.1a1.9,1.9,0,0,0,.7-1.3c0-3.5-16.5-6.4-36.8-6.4s-36.8,2.9-36.8,6.4A1.6,1.6,0,0,0,215.9,278.9Z"/><path class="k" d="M240.1,281a5.3,5.3,0,0,1-3.1-1.3h-4.2c-.6-.1-.8-.3-.8-.5s.2-.3.8-.4l2.1-.2h1.9a5.4,5.4,0,0,1,2.8-1.6l1-.2h1.6l2.2.2q.9.1.9.3c0,.1,0,.2-.1.2l-.7.3-1.4.7a1,1,0,0,0-.5.7c0,.3.3.5.8.7a6.5,6.5,0,0,0,2.2.2h1.5a1.9,1.9,0,0,0,.9-.4l.8-.6a7.5,7.5,0,0,1,1.7-1,11.6,11.6,0,0,1,2.6-.8,28.3,28.3,0,0,1,4.7-.3,33.3,33.3,0,0,1,5.9.5,7.6,7.6,0,0,1,3.3,1.3h2.1l2.1.2c.6.1.8.2.8.4s-.2.3-.8.4a6.2,6.2,0,0,1-2.1.2h-2a4.6,4.6,0,0,1-2.7,1.4l-1.1.2h-1.5l-2.2-.2q-.9-.1-.9-.3c0-.1,0-.2.1-.2l.7-.3.7-.3.8-.4c.2-.2.4-.3.4-.5s-.3-.5-.9-.6a6.5,6.5,0,0,0-2.2-.3,4.9,4.9,0,0,0-2,.3,5.5,5.5,0,0,0-1.4.9l-1.5,1a9.4,9.4,0,0,1-2.6.7,30.5,30.5,0,0,1-4.8.3A26,26,0,0,1,240.1,281Z"/><path class="k" d="M286.6,283.1v8l.9-.3v-7.9Z"/><path class="k" d="M277.8,284.8v8h.9v-8Z"/><path class="k" d="M269.1,285.8v8h.8v-8Z"/><path class="k" d="M260.3,286.4v8h.9v-7.9Z"/><path class="k" d="M252,286.5h-.4v8h.8v-8Z"/><path class="k" d="M242.8,286.4v7.9h.9v-8Z"/><path class="k" d="M234,285.8v8h.9v-8Z"/><path class="k" d="M225.3,284.7v8h.8v-8Z"/><path class="k" d="M216.5,282.9v7.9l.9.3v-8Z"/><path class="i" d="M203.1,277.6c0,4.9,19.6,8.9,43.8,8.9s43.8-4,43.8-8.9v-8H203.1Z"/><path class="j" d="M290.7,269.6c0,4.9-19.6,8.9-43.8,8.9s-43.8-4-43.8-8.9,19.6-8.9,43.8-8.9S290.7,264.7,290.7,269.6Z"/><path class="k" d="M246.9,277.5H246l.2-.2h1.5c.1,0,.1.1.1.2a.1.1,0,0,1-.1.1Zm-2.2,0h-1.5c-.1,0-.1-.1-.1-.2s0-.1.1-.1h1.7A.2.2,0,0,1,244.7,277.5Zm4.5,0a.2.2,0,0,1-.2-.2h1.7a.1.1,0,0,1,.1.1v.2Zm-7.5-.1h-1.5a.3.3,0,0,1-.1-.2h1.6c.1,0,.2,0,.2.1Zm10.4,0H252c0-.1,0-.1.1-.1h1.7a.2.2,0,0,1-.2.2Zm-13.3-.1h-1.5a.2.2,0,0,1-.2-.2h1.8A.1.1,0,0,1,238.8,277.3Zm16.3,0c-.1,0-.1,0-.1-.1h1.6a.1.1,0,0,1,.1.1c0,.1,0,.2-.1.2Zm-19.3-.1h-1.5a.1.1,0,0,1-.1-.1c0-.1,0-.2.1-.2h1.5a.2.2,0,0,1,.2.2Zm22.3,0h-.2a.2.2,0,0,1,.2-.2h1.4a.2.2,0,0,1,.2.2h-1.6Zm-25.3-.2h-1.5a.3.3,0,0,1-.1-.2h1.7v.2Zm28.2,0h-.1c0-.1,0-.2.1-.2h1.7a.2.2,0,0,1-.2.2Zm-31.1-.2h0l-1.5-.2c-.1,0-.2-.1-.1-.1s0-.2.1-.2l1.5.2a.1.1,0,0,1,.1.1C230,276.7,230,276.8,229.9,276.8Zm34.1,0c-.1,0-.1-.1-.2-.2h.2l1.5-.2a.3.3,0,0,1,.1.2.1.1,0,0,1-.1.1l-1.5.2Zm-37.1-.3h0l-1.5-.2v-.2h.2l1.4.2h.2A.2.2,0,0,1,226.9,276.5Zm40,0v-.2a.1.1,0,0,1,.1-.1l1.5-.2h.2l-.2.2-1.4.2Zm-42.9-.4h0l-1.5-.2c-.1,0-.1-.1-.1-.2h.1l1.5.2c.1,0,.1.1.1.2S224.1,276.1,224,276.1Zm45.9,0h-.2a.2.2,0,0,1,.2-.2l1.4-.2h.2c0,.1,0,.2-.1.2l-1.5.2Zm-48.8-.4H221l-1.4-.3h-.1c0-.1,0-.2.1-.2l1.5.3c.1,0,.1.1.1.2Zm51.7,0c-.1,0-.1-.1-.1-.2a.1.1,0,0,1,.1-.1l1.4-.3h.2c0,.1,0,.2-.1.2l-1.5.3Zm-54.7-.6h0l-1.4-.3c-.1,0-.2-.1-.1-.1h.1l1.5.3a.1.1,0,0,1,.1.1C218.3,275.1,218.2,275.1,218.1,275.1Zm57.6,0a.1.1,0,0,1,0-.2l1.4-.3c.1-.1.2,0,.2.1a.1.1,0,0,1-.1.1l-1.4.3Zm-60.4-.6h-.1l-1.4-.4c-.1,0-.1-.1-.1-.2h.2l1.4.3v.2A.1.1,0,0,1,215.3,274.5Zm63.3,0a.1.1,0,0,1-.1-.1c-.1-.1,0-.2.1-.2l1.4-.4h.2c0,.1,0,.2-.1.2l-1.4.4Zm-66.2-.8h0l-1.4-.5c-.1,0-.1-.1-.1-.2s.1-.1.2-.1l1.4.5c.1.1.1.1.1.2Zm69,0h-.1c0-.1,0-.2.1-.2l1.4-.5h.2c0,.1,0,.1-.1.2l-1.4.5Zm-71.7-1.1h-.1l-1.2-.7c-.1-.1-.1-.1-.1-.2h.2l1.3.7c.1,0,.1.1,0,.2Zm74.5,0H284a.1.1,0,0,1,.1-.1l1.2-.7h.2c.1,0,.1.1,0,.2l-1.3.7ZM207.4,271c-.1,0-.1,0-.1-.1a1.7,1.7,0,0,1-.6-1.2l.2-.2h0c.1,0,.1.1.1.2a2.1,2.1,0,0,0,.5,1.1c.1,0,0,.1,0,.2Zm79.1,0c-.1,0-.1,0-.1-.1h-.1a1.6,1.6,0,0,0,.5-1.2h0a.3.3,0,0,1,.1-.2h.1a.3.3,0,0,1,.1.2h0a2.1,2.1,0,0,1-.5,1.3A.1.1,0,0,1,286.5,271Zm-79.2-2.4h0a.1.1,0,0,1-.1-.1,5.2,5.2,0,0,1,1.1-1h.2c.1.1.1.2,0,.2a4.5,4.5,0,0,0-1,.9Zm79.1-.1a.1.1,0,0,1-.1-.1,4.4,4.4,0,0,0-1-.8.3.3,0,0,1-.1-.2h.2a5.7,5.7,0,0,1,1.1,1c.1,0,.1.1,0,.2Zm-76.8-1.6h-.1c0-.1,0-.2.1-.2l1.3-.6h.2c.1,0,0,.1-.1.1l-1.3.6Zm74.5,0H284l-1.3-.6c-.1,0-.1-.1-.1-.2s.1-.1.2,0l1.4.5c0,.1.1.2,0,.2Zm-71.7-1h-.2c0-.1,0-.2.1-.2l1.4-.4c.1-.1.2,0,.2.1h-.1l-1.4.4Zm69-.1h-.1l-1.4-.4c-.1,0-.1-.1-.1-.2h.2l1.4.5h.1A.1.1,0,0,1,281.4,265.8Zm-66.2-.8h-.1l1.5-.4h.2a.3.3,0,0,1-.1.2l-1.5.3Zm63.3,0h0l-1.4-.3c-.1,0-.2-.1-.1-.2a.1.1,0,0,1,.1-.1l1.5.4h.1C278.7,265,278.6,265,278.5,265Zm-60.4-.6h-.2c0-.1.1-.1.1-.2l1.5-.2c.1-.1.2,0,.2.1h-.1l-1.5.3Zm57.6,0h-.1l-1.4-.3c-.1,0-.2-.1-.1-.2h.1l1.5.3c.1,0,.1.1.1.2Zm-54.7-.5h-.2a.2.2,0,0,1,.2-.2l1.4-.2c.1,0,.2,0,.2.1s0,.1-.1.1l-1.5.3Zm51.7,0h0l-1.4-.3h0l1.5.2h.1A.2.2,0,0,1,272.7,263.9Zm-48.8-.5h-.1c0-.1,0-.1.1-.1l1.5-.2a.1.1,0,0,1,.1.1h-.1l-1.5.2Zm45.9,0h0l-1.5-.2h-.1c0-.1.1-.1.2-.1l1.4.2c.1,0,.2,0,.2.1Zm-42.9-.3h-.2a.3.3,0,0,1,.1-.2l1.5-.2a.2.2,0,0,1,.2.2h-.2l-1.4.2Zm40,0h0l-1.5-.2h-.2l.2-.2,1.5.2h.1A.3.3,0,0,1,266.9,263.1Zm-37.1-.3a.1.1,0,0,1-.1-.1c0-.1,0-.2.1-.2h1.5c.1,0,.1,0,.1.1s0,.1-.1.1l-1.5.2Zm34.1,0h0l-1.5-.2c-.1,0-.1,0-.1-.1s.1-.1.2-.1h1.6Zm-31.1-.3c-.1,0-.2,0-.2-.1h1.6c.1-.1.2,0,.2.1h-1.6Zm28.2,0h-1.7c0-.1.1-.2.2-.1h1.6A.1.1,0,0,1,261,262.5Zm-25.3-.2a.1.1,0,0,1-.1-.1h1.6c.1,0,.2,0,.2.1a.2.2,0,0,1-.2.2Zm22.3,0h-1.5c-.1,0-.1-.1-.1-.2s0-.1.1-.1H258c.1,0,.2,0,.1.1S258.1,262.3,258,262.3Zm-19.3-.1h-.2a.2.2,0,0,1,.2-.2h1.5a.1.1,0,0,1,.1.1c0,.1,0,.1-.1.1Zm16.3,0h-1.5a.1.1,0,1,1,0-.2H255a.2.2,0,0,1,.2.2Zm-13.3-.1h-.2a.2.2,0,0,1,.2-.2h1.6a.3.3,0,0,1-.1.2Zm10.4,0h-1.5a.2.2,0,0,1-.2-.2h1.7a.3.3,0,0,1,.1.2Zm-7.5-.1a.1.1,0,0,1-.1-.1h1.8c0,.1-.1.1-.2.1Zm4.5,0h-1.5c-.1,0-.1,0-.1-.1h1.7C249.2,262,249.2,262,249.1,262Z"/><path class="i" d="M283.7,269.6c0,3.6-16.4,6.4-36.8,6.4s-36.8-2.8-36.8-6.4,16.5-6.4,36.8-6.4S283.7,266.1,283.7,269.6Z"/><path class="k" d="M210.9,270.9c3.4-2.9,18.2-5.1,36-5.1s32.6,2.2,36.1,5.1a1.6,1.6,0,0,0,.7-1.3c0-3.5-16.4-6.4-36.8-6.4s-36.8,2.9-36.8,6.4A1.7,1.7,0,0,0,210.9,270.9Z"/><path class="k" d="M281.5,275.1v8l.9-.3v-7.9Z"/><path class="k" d="M272.8,276.8v8h.8v-8Z"/><path class="k" d="M264,277.8v8h.9v-7.9Z"/><path class="k" d="M255.2,278.4v8h.9v-8Z"/><path class="k" d="M246.9,278.5h-.4v8h.9v-8Z"/><path class="k" d="M237.7,278.3v8h.9v-8Z"/><path class="k" d="M229,277.8v7.9h.8v-8Z"/><path class="k" d="M220.2,276.7v8h.9v-8Z"/><path class="k" d="M211.4,274.9v7.9l.9.3v-8Z"/><path class="l" d="M64.3,307.7c0,5,19.6,8.9,43.8,8.9s43.8-3.9,43.8-8.9v-7.9H64.3Z"/><ellipse class="j" cx="108.1" cy="299.8" rx="43.8" ry="8.9"/><path class="k" d="M108.1,307.6h-.8a.1.1,0,0,1,0-.2h1.5a.2.2,0,0,1,.2.2c0,.1-.1.1-.2.1Zm-2.2,0h-1.5a.2.2,0,0,1-.2-.2h1.7a.3.3,0,0,1,.1.2Zm4.4,0a.1.1,0,0,1-.1-.1c0-.1,0-.2.1-.2h1.6c0,.1,0,.2-.1.2Zm-7.4,0h-1.5c-.1,0-.2-.1-.1-.1s0-.2.1-.2H103C103,307.5,103,307.6,102.9,307.6Zm10.4,0a.2.2,0,0,1-.2-.2h1.7v.2a.1.1,0,0,1-.1.1Zm-13.4-.1H98.3a.3.3,0,0,1,.1-.2h1.7A.2.2,0,0,1,99.9,307.5Zm16.4,0-.2-.2h1.6a.2.2,0,0,1,.2.2h-1.6ZM97,307.3H95.3c0-.1.1-.2.2-.1h1.6A.1.1,0,0,1,97,307.3Zm22.2,0c-.1,0-.1,0-.1-.1V307h1.5c.1-.1.1,0,.1.1s0,.1-.1.1ZM94,307.1H92.5a.1.1,0,0,1-.1-.1c0-.1,0-.2.1-.2l1.5.2c.1,0,.1,0,.1.1S94.1,307.1,94,307.1Zm28.2,0c-.1,0-.2,0-.2-.1s.1-.1.2-.1l1.4-.2a.2.2,0,0,1,.2.2.1.1,0,0,1-.1.1ZM91,306.9h0l-1.5-.2h-.1c0-.1.1-.1.2-.1H91a.2.2,0,0,1,.2.2Zm34.1,0H125c0-.1,0-.2.1-.2h1.5c.1,0,.2,0,.2.1h-.2l-1.4.2Zm-37-.3h0l-1.5-.2h-.1c0-.1,0-.2.1-.1h1.5c.1,0,.1.1.1.2A.1.1,0,0,1,88.1,306.6Zm40,0h-.2a.2.2,0,0,1,.2-.2l1.4-.2a.2.2,0,0,1,.2.2h-.1l-1.5.2Zm-43-.4h0l-1.5-.2h-.1c0-.1.1-.2.2-.1l1.5.2a.1.1,0,0,1,.1.1Zm45.9,0h-.1c0-.1,0-.1.1-.1l1.5-.3c.1,0,.1.1.1.2s0,.1-.1.1l-1.4.2Zm-48.8-.4h0l-1.5-.3c-.1,0-.1,0-.1-.1h.2l1.4.2c.1,0,.2.1.1.2A.1.1,0,0,1,82.2,305.8Zm51.8,0h-.2v-.2l1.5-.2h.1l-1.5.3Zm-54.7-.5h0l-1.5-.3v-.2c0-.1.1-.1.2-.1l1.4.3c.1,0,.2.1.1.2A.1.1,0,0,1,79.3,305.3Zm57.6,0h-.2V305l1.5-.3h.1l-1.5.4Zm-60.5-.7h0l-1.5-.4H75l1.4.4h0Zm63.4,0c-.1,0-.2,0-.2-.1s0-.1.1-.1l1.4-.4c.1-.1.2,0,.2.1h-.1l-1.4.4Zm-66.2-.8h-.1l-1.4-.5a.1.1,0,0,1,.2-.2l1.3.5h.1A.1.1,0,0,1,73.6,303.8Zm69,0c-.1,0-.1,0-.1-.1s0-.1,0-.2l1.4-.4a.1.1,0,0,1,.2,0c0,.1,0,.2-.1.2l-1.4.5Zm-71.7-1a.1.1,0,0,1-.1-.1l-1.3-.7c-.1,0-.1-.1,0-.2h.2l1.2.7c.1,0,.1.1.1.2Zm74.4-.1h-.1a.1.1,0,0,1,0-.2l1.3-.7c0-.1.1,0,.2,0s0,.2-.1.2l-1.2.7Zm-76.8-1.6h-.1a2.4,2.4,0,0,1-.5-1.3c0-.1,0-.1.1-.1h0c.1,0,.2,0,.2.1a1.4,1.4,0,0,0,.5,1.1c0,.1,0,.2-.1.2Zm79.1,0h-.1c0-.1-.1-.2,0-.2a2.1,2.1,0,0,0,.5-1.1h.3a1.7,1.7,0,0,1-.6,1.2C147.7,301.1,147.7,301.1,147.6,301.1Zm-79.1-2.4h-.1c-.1-.1-.1-.1,0-.2a3.6,3.6,0,0,1,1.1-1h.1l-1,.9Zm79.1-.1h-.2a4.5,4.5,0,0,0-1-.9c-.1-.1-.1-.1,0-.2s.1-.1.2,0l1.1.9v.2Zm-76.8-1.5a.1.1,0,0,1-.1-.1c-.1-.1-.1-.2,0-.2l1.4-.6h.2v.2l-1.3.5Zm74.4-.1h0l-1.4-.6s-.1-.1,0-.1.1-.1.2-.1l1.3.6h-.1Zm-71.7-1c-.1,0-.1,0-.1-.1s0-.1.1-.2l1.4-.4h.2a.1.1,0,0,1-.1.1l-1.4.5Zm69,0h0l-1.4-.4c-.1,0-.2-.1-.1-.1s.1-.2.2-.1l1.4.4c.1,0,.1.1.1.2Zm-66.2-.8h-.1c0-.1,0-.2.1-.2l1.4-.3h.2a.1.1,0,0,1-.1.1l-1.4.4Zm63.4-.1h-.1l-1.4-.3c-.1,0-.1-.1-.1-.2h.2l1.4.4c.1,0,.2.1.1.2Zm-60.5-.6c-.1,0-.1,0-.1-.1h.1l1.4-.3c.1,0,.2,0,.2.1h-.1l-1.4.3Zm57.6,0h0l-1.5-.3h-.1c0-.1.1-.1.2-.1l1.4.2c.1.1.2.1.1.2S136.9,294.5,136.8,294.5ZM82.1,294a.1.1,0,0,1-.1-.1c0-.1,0-.2.1-.2l1.5-.2a.1.1,0,0,1,.1.1c.1.1,0,.2-.1.2l-1.4.2Zm51.8,0h0l-1.5-.2v-.2c0-.1.1-.1.2-.1l1.4.2c.1,0,.2.1.1.2A.1.1,0,0,1,133.9,294Zm-48.8-.4a.2.2,0,0,1-.2-.2H85l1.5-.2h.2a.3.3,0,0,1-.1.2l-1.5.2Zm45.9-.1h-1.5c-.1-.1-.2-.1-.2-.2h.2l1.5.2h.1A.1.1,0,0,1,131,293.5Zm-43-.3h-.1c-.1-.1,0-.2.1-.2h1.6c0,.1,0,.1-.1.1l-1.5.2Zm40,0h0l-1.5-.2c-.1,0-.1,0-.1-.1H128a.2.2,0,0,1,.2.2Zm-37-.3h-.2a.3.3,0,0,1,.1-.2h1.7l-.2.2Zm34.1,0h-1.5l-.2-.2c0-.1.1-.1.2-.1h1.5c.1,0,.1.1.1.2Zm-31.2-.2c-.1,0-.1-.1-.1-.2a.1.1,0,0,1,.1-.1h1.6c0,.1,0,.1-.1.2Zm28.2-.1h-1.5c-.1,0-.1,0-.1-.1h1.6Zm-25.2-.1a.2.2,0,0,1-.2-.2h1.8c0,.1,0,.2-.1.2Zm22.2,0h-1.4a.2.2,0,0,1-.2-.2h1.8A.2.2,0,0,1,119.1,292.5Zm-19.3-.2a.1.1,0,0,1-.1-.1h1.8a.2.2,0,0,1-.2.2Zm16.4,0h-1.5a.2.2,0,0,1-.2-.2h1.8C116.3,292.3,116.3,292.3,116.2,292.3Zm-13.4-.1h-.1c0-.1,0-.1.1-.1h1.5c.1,0,.1.1.1.2h-1.6Zm10.4,0h-1.6c0-.1,0-.2.1-.2h1.5c.1,0,.2,0,.2.1Zm-7.4,0a.2.2,0,0,1-.2-.2h1.7a.1.1,0,0,1,.1.1c0,.1,0,.2-.1.2Zm4.4,0h-1.4a.2.2,0,0,1-.2-.2h1.8A.2.2,0,0,1,110.2,292.2Z"/><ellipse class="l" cx="108.1" cy="299.8" rx="36.8" ry="6.4"/><path class="k" d="M72,301c3.4-2.9,18.3-5.1,36.1-5.1s32.6,2.2,36,5.1a1.7,1.7,0,0,0,.8-1.2c0-3.6-16.5-6.4-36.8-6.4s-36.9,2.8-36.9,6.4A1.7,1.7,0,0,0,72,301Z"/><path class="k" d="M96.2,303.1a7.1,7.1,0,0,1-3.2-1.2H91l-2.2-.2c-.5-.1-.8-.3-.8-.4s.3-.4.8-.5h4.1a4.8,4.8,0,0,1,2.7-1.7l1.1-.2h1.6l2.2.2.9.3a.2.2,0,0,1-.2.2l-.6.3-1.4.7a1,1,0,0,0-.5.7c0,.3.3.6.8.7a6.1,6.1,0,0,0,2.2.3l1.5-.2.9-.3.8-.7,1.7-1a8.5,8.5,0,0,1,2.5-.7,30.5,30.5,0,0,1,4.8-.3,34.9,34.9,0,0,1,5.9.4,8.9,8.9,0,0,1,3.3,1.3h2.1l2.1.2c.5.1.8.3.8.4s-.3.3-.8.5h-4.1a5.5,5.5,0,0,1-2.7,1.4l-1.1.2h-3.7c-.6-.2-.9-.3-.9-.4s0-.1.1-.2l.7-.3.7-.3a2,2,0,0,0,.8-.4c.2-.2.3-.3.3-.5s-.2-.5-.8-.6a6.5,6.5,0,0,0-2.2-.3,5.8,5.8,0,0,0-2.1.3,5.1,5.1,0,0,0-1.3.9,6.5,6.5,0,0,1-1.5,1,9.4,9.4,0,0,1-2.6.7,30.5,30.5,0,0,1-4.8.3A25.4,25.4,0,0,1,96.2,303.1Z"/><path class="k" d="M142.7,305.2v8l.8-.2v-8Z"/><path class="k" d="M133.9,306.9v8h.9v-8Z"/><path class="k" d="M125.1,308v7.9h.9v-8Z"/><path class="k" d="M116.4,308.5v8h.9v-7.9Z"/><path class="k" d="M108.1,308.7h-.5v7.9h.9v-7.9Z"/><path class="k" d="M98.9,308.5v7.9h.8v-8Z"/><path class="k" d="M90.1,307.9v8H91V308Z"/><path class="k" d="M81.4,306.8v8h.8v-8Z"/><path class="k" d="M72.6,305v8l.9.2v-8Z"/><path class="l" d="M207.2,269.5c0,4.9,19.7,8.9,43.8,8.9s43.8-4,43.8-8.9v-8H207.2Z"/><ellipse class="j" cx="251" cy="261.5" rx="43.8" ry="8.9"/><path class="k" d="M251,269.4h-.7c-.1,0-.1-.1-.1-.2H252a.2.2,0,0,1-.2.2Zm-2.2-.1h-1.5a.1.1,0,0,1-.1-.1H249C249,269.3,248.9,269.3,248.8,269.3Zm4.5,0c-.1,0-.2,0-.2-.1h1.8c0,.1,0,.1-.1.1Zm-7.4,0h-1.5l-.2-.2c0-.1.1-.1.2-.1h1.5c.1,0,.1.1.1.2Zm10.4,0h-.2a.2.2,0,0,1,.2-.2h1.4c.1,0,.2,0,.2.1h-1.6Zm-13.4-.1h-1.5c-.1,0-.1,0-.1-.1s0-.1.1-.1h1.5c.1,0,.1.1.1.2Zm16.3,0h-.1c0-.1,0-.2.1-.2h1.5c.1,0,.2,0,.2.1s-.1.1-.2.1Zm-19.3-.1h-1.5v-.2h1.8A.2.2,0,0,1,239.9,269.1Zm22.3,0c-.1,0-.1-.1-.2-.2h1.7c.1,0,.1,0,.1.1s0,.2-.1.2Zm-25.2-.2h-1.5l-.2-.2c0-.1.1-.1.2-.1h1.6A.3.3,0,0,1,237,268.9Zm28.2,0a.2.2,0,0,1-.2-.2h1.6c.1,0,.2,0,.2.1h-.1l-1.5.2Zm-31.2-.3h-1.5c-.1,0-.1-.1-.1-.2h.1l1.5.2c.1,0,.2,0,.2.1Zm34.1,0c-.1,0-.1,0-.1-.1s0-.1.1-.1l1.5-.2a.1.1,0,0,1,.1.1c.1.1,0,.2-.1.2Zm-37-.3h-1.5c-.1-.1-.2-.1-.2-.2s.1-.1.2-.1l1.5.2h.1A.1.1,0,0,1,231.1,268.3Zm40,0c-.1,0-.2,0-.2-.1h.2l1.4-.2c.1,0,.2,0,.2.1a.1.1,0,0,1-.1.1l-1.5.2Zm-43-.3h0l-1.5-.2v-.2c0-.1.1-.1.2-.1l1.4.2.2.2Zm45.9,0c-.1,0-.1-.1-.1-.2a.1.1,0,0,1,.1-.1l1.5-.2a.1.1,0,0,1,.1.1h-.1l-1.5.3Zm-48.8-.5h0l-1.5-.2c-.1,0-.1-.1-.1-.2s.1-.1.2-.1l1.4.3h.1C225.3,267.5,225.3,267.5,225.2,267.5Zm51.7,0a.1.1,0,0,1-.1-.1h.1l1.5-.3c.1,0,.1,0,.1.1s0,.2-.1.2l-1.4.2Zm-54.6-.5h-.1l-1.4-.3c-.1,0-.1-.1-.1-.2h.2l1.4.3v.2A.1.1,0,0,1,222.3,267Zm57.6,0c-.1,0-.2,0-.2-.1s0-.2.1-.2l1.5-.3h.1c.1.1,0,.2-.1.2l-1.4.3Zm-60.5-.6h-.1l-1.4-.4c-.1,0-.1-.1-.1-.2s.1-.1.2-.1l1.4.4c.1,0,.2.1.1.2Zm63.3,0h-.1c0-.1,0-.2.1-.2l1.4-.4c.1,0,.2,0,.2.1v.2l-1.4.3Zm-66.1-.8c-.1,0-.1,0-.1-.1l-1.4-.4a.3.3,0,0,1-.1-.2h.2l1.4.5c.1,0,.1.1.1.2Zm69-.1h-.2c0-.1,0-.2.1-.2l1.4-.5h.2a.1.1,0,0,1-.1.1l-1.4.5Zm-71.8-1h0l-1.3-.7c-.1-.1-.1-.2,0-.2s.1-.1.2-.1a3.5,3.5,0,0,0,1.2.7v.2Zm74.5,0a.1.1,0,0,1-.1-.1c-.1-.1-.1-.1,0-.2a3.5,3.5,0,0,0,1.2-.7h.3c0,.1,0,.2-.1.2a12.5,12.5,0,0,1-1.2.8Zm-76.8-1.6h-.1a1.7,1.7,0,0,1-.5-1.3.1.1,0,0,1,.1-.1h0c.1,0,.2,0,.2.1a1.9,1.9,0,0,0,.4,1.2c.1,0,.1.1,0,.1Zm79.1-.1h-.1c-.1,0-.1-.1,0-.2a1.5,1.5,0,0,0,.4-1.1h.3a1.8,1.8,0,0,1-.5,1.3Zm-79.1-2.4h-.1c-.1,0-.1-.1,0-.2a4.5,4.5,0,0,1,1-.9c.1-.1.2-.1.2,0s.1.1,0,.2a4.5,4.5,0,0,0-1,.9Zm79,0h-.1a4.5,4.5,0,0,0-1-.9c-.1,0-.1-.1,0-.2h.2l1.1.9c0,.1,0,.2-.1.2Zm-76.7-1.6h-.2v-.2l1.3-.5a.1.1,0,0,1,.2.2l-1.4.6Zm74.4,0a.1.1,0,0,0-.1-.1l-1.3-.5c-.1-.1-.1-.1-.1-.2h.2l1.4.6c.1,0,.1.1.1.2Zm-71.7-1.1h-.1l1.4-.5c.1,0,.2,0,.2.1s0,.2-.1.2l-1.4.4Zm69,0h0l-1.5-.4c0-.1-.1-.1,0-.2a.1.1,0,0,1,.1-.1l1.5.4c0,.1.1.1,0,.2Zm-66.2-.8h-.1c-.1-.1,0-.1.1-.1l1.4-.4h.2c0,.1,0,.2-.1.2l-1.4.3Zm63.4,0h-.1l-1.4-.4c-.1,0-.1,0-.1-.1h.2l1.4.3c.1,0,.1.1.1.2Zm-60.5-.6a.1.1,0,0,1-.1-.1c-.1-.1,0-.2.1-.2l1.4-.3h.2c0,.1,0,.2-.1.2l-1.5.3Zm57.6-.1h0l-1.5-.2c-.1,0-.1-.1-.1-.2s.1-.1.2-.1l1.4.3a.1.1,0,0,1,.1.1Zm-54.7-.5h0l1.4-.3a.2.2,0,0,1,.2.2h-.1l-1.5.2Zm51.8,0h-.1l-1.4-.2c-.1,0-.2-.1-.1-.2h.1l1.5.3h0Zm-48.9-.4a.1.1,0,0,1-.1-.1c0-.1,0-.2.1-.2l1.5-.2.2.2h-.2l-1.4.2Zm45.9,0h0l-1.4-.2a.2.2,0,0,1-.2-.2h.2l1.5.2v.2Zm-42.9-.4h-.2c0-.1.1-.1.2-.1l1.4-.2h.2c0,.1,0,.2-.1.2Zm40,0h-1.5c-.1,0-.1-.1-.1-.2h.1l1.5.2c.1,0,.2,0,.1.1Zm-37.1-.3h0l1.5-.2a.2.2,0,0,1,.2.2h-1.7Zm34.1,0h-1.6a.2.2,0,0,1,.2-.2l1.5.2H268Zm-31.1-.2h-.2a.2.2,0,0,1,.2-.2h1.5v.2a.1.1,0,0,1-.1.1Zm28.2,0h-1.5c-.1,0-.1-.1-.1-.2h1.6c.1,0,.1.1.1.2Zm-25.2-.2h-.2v-.2h.1Zm22.2,0h0l.2.2Zm-19.3-.1c-.1,0-.1-.1-.1-.2h1.6a.2.2,0,0,1,.2.2h-1.7Zm16.4,0h-1.7l.2-.2h1.6Zm-13.4-.1a.2.2,0,0,1-.2-.2h1.7c.1,0,.1,0,.1.1h-1.6Zm10.4,0h-1.6c0-.1,0-.1.1-.1h1.5a.1.1,0,0,1,.1.1C256.3,253.9,256.3,254,256.2,254Zm-7.4-.1h-.2a.2.2,0,0,1,.2-.2h1.4a.2.2,0,0,1,.2.2h-1.6Zm4.4,0h-1.6a.3.3,0,0,1,.1-.2h1.5a.2.2,0,0,1,.2.2Z"/><ellipse class="l" cx="251" cy="261.5" rx="36.8" ry="6.4"/><path class="k" d="M215,262.8c3.4-2.9,18.3-5.1,36-5.1s32.7,2.2,36.1,5.1a1.9,1.9,0,0,0,.8-1.3c0-3.5-16.5-6.4-36.9-6.4s-36.8,2.9-36.8,6.4A1.9,1.9,0,0,0,215,262.8Z"/><path class="k" d="M285.6,267v7.9l.9-.2v-8Z"/><path class="k" d="M276.9,268.7v8l.9-.2v-7.9Z"/><path class="k" d="M268.1,269.7v8h.9v-8Z"/><path class="k" d="M259.4,270.2v8h.8v-8Z"/><path class="k" d="M251,270.4h-.4v8h.9v-8Z"/><path class="k" d="M241.9,270.2v8h.8v-8Z"/><path class="k" d="M233.1,269.6v8h.9v-8Z"/><path class="k" d="M224.3,268.6v7.9l.9.2v-8Z"/><path class="k" d="M215.6,266.7v8l.8.2V267Z"/><path class="l" d="M77.1,299.2c0,5,19.6,9,43.7,9s43.8-4,43.8-9v-7.9H77.1Z"/><ellipse class="j" cx="120.8" cy="291.3" rx="43.8" ry="8.9"/><path class="k" d="M120.8,299.1h-.7c-.1,0-.1,0-.1-.1s0-.1.1-.1h1.5c.1,0,.2,0,.2.1s-.1.1-.2.1Zm-2.2,0H117a.2.2,0,0,1,.2-.2h1.4c.1,0,.2,0,.2.1S118.7,299.1,118.6,299.1Zm4.5,0c-.1,0-.2,0-.2-.1s.1-.1.2-.2h1.5c.1,0,.1.1.1.2a.1.1,0,0,1-.1.1Zm-7.4,0h-1.5c-.1,0-.2,0-.2-.1s.1-.2.2-.1h1.6C115.8,299,115.8,299.1,115.7,299.1Zm10.4,0a.2.2,0,0,1-.2-.2h1.8a.1.1,0,0,1-.1.1Zm-13.4-.1h-1.6c0-.1,0-.2.1-.2h1.7Zm16.3,0v-.2a.1.1,0,0,1,.1-.1h1.5a.2.2,0,0,1,.2.2H129Zm-19.3-.2h-1.6c0-.1.1-.1.2-.1h1.6C109.9,298.8,109.8,298.8,109.7,298.8Zm22.3,0c-.1,0-.1,0-.1-.1s0-.1.1-.1h1.5c.1,0,.1,0,.1.1H132Zm-25.2-.2h-1.5c-.1,0-.2,0-.2-.1s.1-.2.2-.1h1.5c.1,0,.1,0,.1.1A.1.1,0,0,1,106.8,298.6Zm28.2,0c-.1,0-.2,0-.2-.1s.1-.1.2-.1h0Zm-31.2-.2h-1.5v-.2c0-.1.1-.1.2-.1h1.4a.2.2,0,0,1,.2.2Zm34.1,0h-.1c0-.1,0-.2.1-.2h1.5c.1,0,.1,0,.1.1s0,.1-.1.1l-1.5.2Zm-37-.3h-.1l-1.4-.2h1.5c.1,0,.1.1.1.2Zm40,0h-.2a.2.2,0,0,1,.2-.2h1.4c.1-.1.2,0,.2.1h-.1l-1.5.2Zm-43-.4h0l-1.5-.2a.1.1,0,0,1-.1-.1h.2l1.4.2h0Zm45.9,0h-.1c0-.1,0-.1.1-.1l1.5-.2c.1-.1.1,0,.1.1a.1.1,0,0,1-.1.1l-1.5.2ZM95,297.3h0l-1.5-.3c-.1,0-.1,0-.1-.1h.2l1.4.2c.1,0,.1.1.1.2S95.1,297.3,95,297.3Zm51.7,0h-.1c0-.1,0-.2.1-.2l1.5-.2h.2c0,.1-.1.1-.2.1l-1.4.3Zm-54.6-.5H92l-1.4-.3v-.2c0-.1.1-.1.2-.1l1.4.3c.1,0,.1.1.1.2Zm57.6,0h-.2c0-.1,0-.2.1-.2l1.5-.3h.2l-.2.2-1.4.3Zm-60.5-.7h0l-1.5-.4h-.1c0-.1.1-.1.2-.1l1.4.4c.1,0,.2.1.1.1S89.3,296.1,89.2,296.1Zm63.3,0a.1.1,0,0,1,0-.2l1.4-.4c.1,0,.2,0,.2.1H154l-1.4.4Zm-66.1-.8h-.1l-1.4-.5a.1.1,0,0,1-.1-.1H85l1.4.5h.1A.1.1,0,0,1,86.4,295.3Zm69,0h-.1l1.4-.5a.1.1,0,0,1,.2,0c0,.1,0,.2-.1.2l-1.4.5Zm-71.8-1h0l-1.3-.7c-.1,0-.1-.1,0-.2h.2l1.2.7c.1,0,.1.1.1.2Zm74.5-.1H158c-.1-.1-.1-.2,0-.2l1.3-.7h.2c0,.1,0,.2-.1.2l-1.2.7Zm-76.8-1.6h-.1a2.4,2.4,0,0,1-.5-1.3c0-.1,0-.1.1-.1h0c.1,0,.2,0,.2.1a1.5,1.5,0,0,0,.4,1.1c.1.1.1.2,0,.2Zm79.1,0h-.1c-.1-.1-.1-.1,0-.2a1.9,1.9,0,0,0,.4-1.1h.3a2,2,0,0,1-.5,1.3Zm-79.1-2.4h-.1c-.1-.1-.1-.1,0-.2a9.3,9.3,0,0,1,1-1c.1,0,.2,0,.2.1s.1.1,0,.2a4.5,4.5,0,0,0-1,.9Zm79.1-.1h-.2a4.5,4.5,0,0,0-1-.9c-.1,0-.1-.1,0-.2a.1.1,0,0,1,.2,0l1.1.9c0,.1,0,.2-.1.2Zm-76.8-1.5h-.2c0-.1,0-.1.1-.2l1.4-.6a.1.1,0,0,1,.1.1c.1.1,0,.1,0,.2l-1.4.6Zm74.4-.1h0l-1.4-.6h.1l1.4.6c.1,0,.1.1.1.2Zm-71.7-1c-.1,0-.1,0-.1-.1s0-.1,0-.2l1.5-.4h.1c.1.1,0,.1-.1.2l-1.4.4Zm69,0h0l-1.4-.5c-.1,0-.2-.1-.1-.1h.1l1.5.4a.1.1,0,0,1,0,.2A.1.1,0,0,1,155.3,287.5Zm-66.2-.8H89c0-.1,0-.2.1-.2l1.4-.3h.2c0,.1,0,.1-.1.1l-1.4.4Zm63.4,0h-.1l-1.4-.4a.1.1,0,0,1-.1-.1c0-.1.1-.2.2-.1l1.4.3c.1,0,.1.1.1.2ZM92,286c-.1,0-.1,0-.1-.1H92l1.4-.3c.1,0,.2,0,.2.1v.2L92,286Zm57.6,0h0l-1.5-.3H148c0-.1.1-.1.2-.1l1.4.3c.1,0,.2,0,.1.1S149.7,286,149.6,286Zm-54.7-.5c-.1,0-.1,0-.1-.1v-.2l1.5-.2h.1c0,.1,0,.2-.1.2l-1.5.2Zm51.8,0h0l-1.5-.2c-.1,0-.1-.1-.1-.2a.1.1,0,0,1,.1-.1l1.5.2c.1,0,.1.1.1.2Zm-48.9-.4h-.1c0-.1,0-.2.1-.2l1.5-.2h.2a.2.2,0,0,1-.2.2l-1.4.2Zm45.9,0h0l-1.4-.2a.2.2,0,0,1-.2-.2h.2l1.5.2h.1A.2.2,0,0,1,143.7,285.1Zm-42.9-.4h-.2c0-.1.1-.1.2-.2h1.6c0,.1,0,.1-.1.2Zm40,0h0l-1.5-.2c-.1,0-.1,0-.1-.1h1.6a.2.2,0,0,1,.2.2Zm-37.1-.3h-.1c0-.1,0-.1.1-.2h1.7l-.2.2h-1.5Zm34.2,0h-1.5l-.2-.2h1.7a.3.3,0,0,1,.1.2Zm-31.2-.2c-.1,0-.1-.1-.2-.2h1.8c0,.1,0,.2-.1.2Zm28.2,0h-1.5c-.1,0-.1-.1-.1-.2h1.6a.1.1,0,0,1,.1.1C135,284.1,135,284.2,134.9,284.2Zm-25.2-.2h-.2a.2.2,0,0,1,.2-.2h1.4a.2.2,0,0,1,.2.2h-1.6Zm22.2,0h-1.6a.3.3,0,0,1,.1-.2h1.7A.2.2,0,0,1,131.9,284Zm-19.3-.2c-.1,0-.1,0-.1-.1h1.8a.2.2,0,0,1-.2.2Zm16.4,0h-1.5l-.2-.2h1.8A.1.1,0,0,1,129,283.8Zm-13.4-.1h-.2c0-.1.1-.1.2-.1h1.5c.1,0,.1.1.1.2h-1.6Zm10.4,0h-1.6c0-.1,0-.2.1-.2H126c.1,0,.1,0,.1.1Zm-7.4,0h-.2a.2.2,0,0,1,.2-.2h1.6a.3.3,0,0,1-.1.2Zm4.4,0h-1.5a.3.3,0,0,1-.1-.2h1.8A.2.2,0,0,1,123,283.7Z"/><ellipse class="l" cx="120.8" cy="291.3" rx="36.8" ry="6.4"/><path class="k" d="M84.8,292.6c3.4-3,18.3-5.2,36-5.2s32.7,2.2,36.1,5.2c.5-.5.8-.9.8-1.3,0-3.6-16.5-6.4-36.9-6.4S84,287.7,84,291.3C84,291.7,84.3,292.1,84.8,292.6Z"/><path class="k" d="M155.5,296.7v8l.8-.2v-8Z"/><path class="k" d="M146.7,298.5v7.9h.9v-8Z"/><path class="k" d="M137.9,299.5v8h.9v-8Z"/><path class="k" d="M129.2,300v8h.8v-8Z"/><path class="k" d="M120.8,300.2h-.4v8h.9v-8Z"/><path class="k" d="M111.7,300v8h.8v-8Z"/><path class="k" d="M102.9,299.4v8h.9v-8Z"/><path class="k" d="M94.1,298.3v8H95v-7.9Z"/><path class="k" d="M85.4,296.5v8l.8.2v-8Z"/><path class="l" d="M268.8,258.5c-2.7,4.1,11.6,18.1,31.8,31.3s38.9,20.6,41.6,16.5l4.3-6.7-73.3-47.8Z"/><ellipse class="j" cx="309.9" cy="275.7" rx="8.9" ry="43.8" transform="translate(-90.3 384.8) rotate(-56.9)"/><path class="k" d="M305.6,282.3l-.6-.4a.3.3,0,0,1-.1-.2h.2l.6.4.6.5h0a.1.1,0,0,1,.1.1h-.2Zm-1.9-1.3h0l-1.2-.8c-.1,0-.1-.1-.1-.2s.2-.1.2,0h0l1.3.8c0,.1.1.2,0,.2S303.8,281.1,303.7,281Zm3.8,2.5v-.2c0-.1.1-.1.2,0l1.3.7h0v.2c0,.1-.1.1-.2.1l-1.2-.8Zm-6.2-4.1h0l-1.3-.9a.1.1,0,0,1,0-.2h.2l1.2.9c.1,0,.1.1.1.2Zm8.7,5.7a.3.3,0,0,1-.1-.2h.2l1.3.8h0a.1.1,0,0,1,0,.2h-.2l-1.2-.7Zm-11.2-7.4h0l-1.2-.9c-.1,0-.1-.1,0-.2a.1.1,0,0,1,.2,0h0l1.2.9a.1.1,0,0,1,0,.2Zm13.7,8.9c-.1,0-.1-.1,0-.2h.1l1.3.7c.1.1.1.1.1.2h-.2l-1.3-.8Zm-16.1-10.7h0l-1.2-.9c-.1,0-.1-.1,0-.1h.2l1.2.9c0,.1.1.2,0,.2S296.5,276,296.4,275.9Zm18.7,12.2c-.1,0-.1-.1-.1-.2h.2l1.3.7c.1,0,.1.1.1.2h-.2l-1.3-.7ZM294,274.2h0l-1.2-.9v-.2h.2l1.2.9c.1.1.1.2,0,.2Zm23.7,15.4a.3.3,0,0,1-.1-.2h.2l1.3.7v.2H319l-1.3-.7Zm-26-17.3h0l-1.2-.9a.1.1,0,0,1,0-.2h.2l1.1.9a.3.3,0,0,1,.1.2ZM320.3,291v-.2c0-.1.1-.1.2-.1l1.3.7c.1.1.1.1.1.2h-.2l-1.3-.7Zm-30.9-20.5h0l-1.2-1a.1.1,0,0,1,0-.2h.2l1.1,1c.1,0,.1.1.1.2Zm33.5,21.8c-.1,0-.1-.1-.1-.2h.2l1.4.7s.1.1,0,.1a.1.1,0,0,1-.1.1l-1.4-.7Zm-35.8-23.7h0l-1.1-1c-.1-.1-.1-.2,0-.2h.2l1.1,1v.2Zm38.5,25a.1.1,0,0,1-.1-.1c0-.1.1-.1.2-.1l1.3.6v.2c0,.1-.1.1-.2.1l-1.3-.7Zm-40.7-27h0l-1.1-1c-.1-.1-.1-.2,0-.2h.2l1.1,1v.2Zm43.4,28.3c-.1-.1-.1-.1-.1-.2h.2l1.3.6c.1,0,.2.1.1.2a.1.1,0,0,1-.1.1l-1.4-.6Zm-45.6-30.3h0l-1-1.1c-.1,0-.1-.1,0-.2h.2l1,1.1c.1,0,.1.1,0,.2ZM331,296c-.1,0-.1-.1-.1-.2s.1-.1.2,0l1.4.5c.1,0,.1.1.1.2s-.1.1-.2.1L331,296Zm-50.3-33.5a.1.1,0,0,0-.1-.1l-.9-1.1c-.1,0-.1-.1,0-.2h.2l1,1.1v.2ZM333.8,297a.1.1,0,0,1-.1-.1h.2l1.4.5h.1c0,.1-.1.1-.2.1l-1.4-.4Zm-55.1-36.8h0l-.9-1.2h.2l.9,1.2c.1,0,.1.1,0,.1S278.8,260.3,278.7,260.2Zm57.9,37.7h-.1c0-.1.1-.2.2-.1l1.4.3c.1,0,.1.1.1.2h-.1l-1.5-.4Zm-59.6-40h0a8.3,8.3,0,0,1-.7-1.3c0-.1,0-.1.1-.2h.2l.6,1.3c.1.1.1.1,0,.2Zm62.4,40.6h0c0-.1,0-.2.1-.2h1.4a.2.2,0,0,1,.2.2h-1.7ZM276,255.2h-.1a1.8,1.8,0,0,1,.3-1.3c0-.1.1-.1.2-.1h0c0,.1.1.2,0,.2a1.6,1.6,0,0,0-.2,1.2c0,.1,0,.2-.1.2S276,255.3,276,255.2Zm66.3,43.2h-.1c0-.1,0-.1.1-.2a1.4,1.4,0,0,0,1-.7h.2c.1,0,.1.1.1.2h-.1a1.9,1.9,0,0,1-1.1.8Zm-65-45.2h-.1v-.2l1.4-.2a.2.2,0,0,1,.2.2h-.1l-1.4.2Zm66.3,43.1a.1.1,0,0,1-.1-.1,3.8,3.8,0,0,0-.4-1.3c0-.1,0-.2.1-.2h.2a10.3,10.3,0,0,1,.4,1.4.1.1,0,0,1-.1.1Zm-63.5-43.2v-.2h.2l1.4.3h0l-1.4-.2Zm62.4,40.6h-.1a8.3,8.3,0,0,0-.8-1.2v-.2h.2a8.3,8.3,0,0,1,.8,1.2c0,.1,0,.1-.1.2ZM283,253.6h.1l1.4.4c.1,0,.1.1.1.2h-.2l-1.4-.4Zm57.8,37.7h0l-1-1.2v-.2c.1,0,.2,0,.2.1l1,1.1v.2Zm-55-36.8h-.1c0-.1.1-.2.2-.1l1.4.5c.1,0,.1.1.1.2h-.2l-1.4-.5Zm53.1,34.6h-.1a5.2,5.2,0,0,0-1-1.1v-.2a.1.1,0,0,1,.2,0l1,1.1c.1,0,.1.1,0,.2Zm-50.4-33.6h.2l1.3.6c.1,0,.1.1.1.2h-.2l-1.3-.5ZM336.8,287h0l-1.1-1c-.1,0-.1-.1,0-.2h.2l1.1,1.1v.2Zm-45.5-30.3c-.1,0-.1-.1-.1-.2a.1.1,0,0,1,.2,0l1.3.6h.1c0,.1-.1.1-.2.1l-1.3-.6Zm43.3,28.2h0l-1.1-1v-.2h.2l1.1,1c.1.1.1.2,0,.2S334.7,285,334.6,284.9Zm-40.6-27c-.1,0-.1-.1-.1-.2h.2l1.3.6a.3.3,0,0,1,.1.2c0,.1-.1.1-.2.1l-1.3-.7ZM332.4,283h0l-1.1-1c-.1-.1-.1-.1,0-.2s.1-.1.2,0l1.1,1c.1,0,.1.1,0,.2Zm-35.8-23.8a.1.1,0,0,1,0-.2h.2l1.3.7c.1,0,.1.1.1.2H298l-1.4-.7Zm33.6,21.9h-.1a5.2,5.2,0,0,0-1.1-1c-.1,0-.1-.1,0-.2h.2l1.1.9c.1.1.1.2,0,.2A.1.1,0,0,1,330.2,281.1Zm-30.9-20.5c-.1-.1-.1-.1-.1-.2h.2l1.3.7h-.1l-1.3-.7Zm28.5,18.6h0l-1.1-.9v-.2c.1-.1.2-.1.2,0l1.2.9c.1,0,.1.1,0,.2ZM301.9,262c-.1,0-.1-.1-.1-.2s.1-.1.2,0l1.3.7c.1,0,.1.1.1.2s-.1.1-.2,0l-1.3-.7Zm23.6,15.4h0l-1.2-.9c-.1-.1-.1-.2,0-.2s.1-.1.2,0l1.2.9v.2Zm-21-13.9v-.2c0-.1.1-.1.2-.1l1.3.8c.1,0,.1.1,0,.2h-.1l-1.3-.7Zm18.6,12.1h0l-1.2-.9c-.1,0-.1-.1,0-.2h.2l1.2.9a.1.1,0,0,1,0,.2ZM307,265c0-.1-.1-.2,0-.2s.1-.1.2-.1l1.2.8c.1,0,.1.1.1.2s-.1.1-.2,0L307,265Zm13.7,8.9h0l-1.2-.9c-.1,0-.1-.1-.1-.2s.2-.1.2,0h0l1.3.9h-.2Zm-11.1-7.4c-.1,0-.1-.1-.1-.2s.1-.1.2,0l1.3.8h0s.1.1,0,.1-.1.1-.2.1l-1.2-.8Zm8.7,5.7h0l-1.3-.9v-.2h.2l1.2.8a.3.3,0,0,1,.1.2Zm-6.2-4.1a.3.3,0,0,1-.1-.2h.2l1.3.9h0s.1.1,0,.1h-.2l-1.2-.8Zm3.7,2.4h0l-1.2-.8c-.1-.1-.1-.1-.1-.2s.2-.1.2,0h0l1.3.8a.1.1,0,0,1,0,.2Z"/><ellipse class="l" cx="309.9" cy="275.7" rx="6.4" ry="36.8" transform="matrix(0.55, -0.84, 0.84, 0.55, -90.27, 384.78)"/><path class="k" d="M278.9,257.1c4.5-.6,18.1,5.7,33,15.4s26.2,19.6,27.5,23.9a1.6,1.6,0,0,0,1.3-.6c1.9-3-10.3-14.4-27.3-25.5s-32.5-17.7-34.4-14.7A1.8,1.8,0,0,0,278.9,257.1Z"/><path class="k" d="M335.9,299.1l-4.4,6.7.9.3,4.3-6.7Z"/><path class="k" d="M327.6,295.8l-4.4,6.7a2,2,0,0,1,.8.4l4.4-6.7Z"/><path class="k" d="M319.7,291.9l-4.4,6.7.8.4,4.4-6.7Z"/><path class="k" d="M312.1,287.5l-4.4,6.7.7.5,4.4-6.7Z"/><path class="k" d="M305,283.1l-.4-.2-4.3,6.7.3.2.4.3,4.4-6.7Z"/><path class="k" d="M297.4,278l-4.4,6.6.7.5,4.4-6.6Z"/><path class="k" d="M290.4,272.7l-4.4,6.7.7.5,4.4-6.7Z"/><path class="k" d="M283.6,267l-4.3,6.7.6.6,4.4-6.7Z"/><path class="k" d="M277.3,260.7l-4.4,6.7.6.6,4.4-6.6Z"/></svg>