<svg xmlns="http://www.w3.org/2000/svg" xmlns:xlink="http://www.w3.org/1999/xlink" viewBox="0 0 400 400"><defs><style>.a{isolation:isolate;}.b{font-size:38.64px;font-family:AdobeArabic-Regular, Adobe Arabic;}.b,.n{fill:#fff;}.c{fill:url(#a);}.d{fill:url(#b);}.e{fill:#1b1b35;}.f{fill:url(#c);}.g{fill:url(#d);}.h,.i{fill:#d3c2be;}.ah,.h,.i{opacity:0.5;}.h{mix-blend-mode:screen;}.ah,.i{mix-blend-mode:multiply;}.j{fill:url(#e);}.k{fill:url(#f);}.l{fill:#f0dcc1;}.m{fill:#ceb699;}.o{fill:#c8cbda;}.p{fill:#939cbb;}.q{fill:#382632;}.r{fill:#63b4f7;}.s{fill:#288ed9;}.t{fill:#005b9f;}.u{fill:#98cdf2;}.v{fill:#1f364c;}.w{fill:#152735;}.x{fill:#21e2e2;}.y{fill:#f0d2b9;}.z{fill:#ffe7cb;}.aa{fill:#f59b6b;}.ab,.ad,.ae,.af,.aj,.ak,.al{opacity:0.78;mix-blend-mode:overlay;}.ab{fill:url(#g);}.ac{fill:#0e71bb;}.ad{fill:url(#h);}.ae{fill:url(#i);}.af{fill:url(#j);}.ag{fill:url(#k);}.ah{fill:#175dcc;}.ai{fill:#80a7ea;}.aj{fill:url(#l);}.ak{fill:url(#m);}.al{fill:url(#n);}.am{fill:url(#o);}.an{fill:url(#p);}.ao{fill:url(#q);}.ap{fill:#333;}.aq{fill:#c0c2c1;}.ar{fill:#e6e6e6;}.as{fill:#000100;}.at{fill:#fe9a0f;}.au{fill:#e2810c;}.av{fill:#dd7f10;}.aw{fill:#ae4e32;}.ax{fill:#9e402b;}.ay{fill:#fe9b0e;}.az{fill:#00c1bc;}.ba{fill:#4987ce;}.bb{fill:#28aae1;}.bc{fill:red;}.bd{fill:#ffcf00;}</style><linearGradient id="a" x1="221.77" y1="368.08" x2="167.77" y2="61.81" gradientUnits="userSpaceOnUse"><stop offset="0" stop-color="#c6e6ff"/><stop offset="1" stop-color="#fff"/></linearGradient><linearGradient id="b" x1="316.47" y1="223.65" x2="366.64" y2="223.65" gradientUnits="userSpaceOnUse"><stop offset="0" stop-color="#ffbc98"/><stop offset="1" stop-color="#ff9f6c"/></linearGradient><linearGradient id="c" x1="361.38" y1="233.5" x2="403.69" y2="233.5" gradientUnits="userSpaceOnUse"><stop offset="0" stop-color="#44989f"/><stop offset="0.21" stop-color="#39b0b4"/><stop offset="0.52" stop-color="#2ccbcd"/><stop offset="0.8" stop-color="#24dcdd"/><stop offset="1" stop-color="#21e2e2"/></linearGradient><linearGradient id="d" x1="340.28" y1="311.17" x2="386.17" y2="311.17" xlink:href="#b"/><linearGradient id="e" x1="349.1" y1="344.94" x2="377.36" y2="344.94" xlink:href="#b"/><linearGradient id="f" x1="338.24" y1="282.38" x2="388.22" y2="282.38" xlink:href="#b"/><linearGradient id="g" x1="278.37" y1="214.75" x2="294.51" y2="214.75" gradientUnits="userSpaceOnUse"><stop offset="0"/><stop offset="1" stop-opacity="0"/></linearGradient><linearGradient id="h" x1="213.36" y1="217.24" x2="230.06" y2="217.24" xlink:href="#g"/><linearGradient id="i" x1="265.03" y1="209.94" x2="274.06" y2="209.94" xlink:href="#g"/><linearGradient id="j" x1="234.81" y1="209.94" x2="247.52" y2="209.94" xlink:href="#g"/><linearGradient id="k" x1="12.66" y1="240.68" x2="339.09" y2="240.68" gradientUnits="userSpaceOnUse"><stop offset="0.22" stop-color="#8ab4fd"/><stop offset="1" stop-color="#c7dbfd"/></linearGradient><linearGradient id="l" x1="65.44" y1="176.99" x2="82.85" y2="176.99" xlink:href="#g"/><linearGradient id="m" x1="18.45" y1="177.69" x2="58.25" y2="177.69" xlink:href="#g"/><linearGradient id="n" x1="11.71" y1="197.84" x2="26.66" y2="197.84" xlink:href="#g"/><linearGradient id="o" x1="203.69" y1="223.31" x2="213.55" y2="223.31" gradientTransform="translate(-67.6 92.6) rotate(-21.6)" xlink:href="#c"/><linearGradient id="p" x1="199.66" y1="235.3" x2="211.58" y2="235.3" xlink:href="#b"/><linearGradient id="q" x1="199.66" y1="221.56" x2="211.58" y2="221.56" xlink:href="#b"/></defs><title>type of dedicated server</title><g class="a"><text class="b" transform="translate(151.3 -46.2)"> یصاصتخا روس عاونا*</text><path class="c" d="M108,348.6a61,61,0,0,1-27.8-6.7c-26-13.4-73.6-47.7-50.6-111.6,9.7-27.2,43.4-33.5,93.7-125.5s168.5-32.7,184.5,41.8c18.7,86.8,51.2,73.6,72,111.8.4.7.7,1.4,1.1,2,20.8,40.2-8.9,88.2-54.2,88.2Z"/><path class="d" d="M360.3,270.3s7.9-16.7,6-27.8-11.7-8.6-9-21.8.3-21-7.5-22.3-8.1-7.9-13.5-16.9-23-5.8-19.4,11.2c4.8,22.5,15.9,15.9,19.4,24.8s-3.3,19.1,2,28.5S353.7,251,360.3,270.3Z"/><path class="e" d="M360.6,286.6l-1.1-.2c0-.1,1.6-13.1-1.5-31.4a134.1,134.1,0,0,0-29.6-64.7l.8-.7c19.5,23.1,27,48.2,29.9,65.2C362.1,273.3,360.6,286.4,360.6,286.6Z"/><path class="f" d="M366.7,272.8s-6.7-14.1-5.1-23.4,9.9-7.3,7.6-18.4-.2-17.7,6.4-18.8,6.8-6.7,11.3-14.2,19.4-4.9,16.4,9.4c-4,18.9-13.4,13.4-16.4,20.9s2.9,16.1-1.7,24.1S372.3,256.6,366.7,272.8Z"/><path class="e" d="M366.5,286.6a105.8,105.8,0,0,1,1.3-26.8,113.8,113.8,0,0,1,25.2-55l.7.6a112.2,112.2,0,0,0-25,54.5,104.3,104.3,0,0,0-1.3,26.6Z"/><polygon class="g" points="379.5 342.9 346.9 342.9 340.3 279.5 386.2 279.5 379.5 342.9"/><polygon class="h" points="342.2 279.5 348.9 342.9 353.3 342.9 346.6 279.5 342.2 279.5"/><polygon class="i" points="386.2 279.5 379.5 342.9 370.7 342.9 377.4 279.5 386.2 279.5"/><polygon class="i" points="385 290.9 385.4 287 341.1 287 341.5 290.9 385 290.9"/><rect class="j" x="349.1" y="342.9" width="28.3" height="4.13"/><rect class="i" x="349.1" y="342.9" width="28.3" height="2.06"/><rect class="k" x="338.2" y="277.8" width="50" height="9.16"/><rect class="i" x="378.9" y="277.8" width="9.3" height="9.16"/><rect class="h" x="339.4" y="277.8" width="6.2" height="9.16"/><rect class="l" x="136.7" y="141.3" width="41.4" height="58.44" rx="2.6"/><polygon class="m" points="174.2 195.1 139.4 195.8 140.1 144.9 174.9 144.2 174.2 195.1"/><rect class="n" x="140.6" y="144.5" width="34.8" height="50.13" transform="translate(-3.3 3.1) rotate(-1.1)"/><rect class="o" x="145.3" y="176.3" width="25.5" height="1.37" transform="translate(-3.4 3.1) rotate(-1.1)"/><rect class="o" x="145.4" y="179.6" width="25.5" height="1.37" transform="translate(-3.5 3.1) rotate(-1.1)"/><rect class="o" x="145.5" y="182.9" width="25.5" height="1.37" transform="translate(-3.6 3.1) rotate(-1.1)"/><rect class="o" x="145.5" y="186.3" width="14.1" height="1.37" transform="translate(-3.6 3) rotate(-1.1)"/><rect class="p" x="144.1" y="144.9" width="26.6" height="0.83"/><path class="o" d="M161.6,139.5h0a.7.7,0,0,1-.7-1,3.6,3.6,0,0,0,.2-2.3,3.7,3.7,0,0,0-2.8-2.8,3.7,3.7,0,0,0-4.6,3.6,4,4,0,0,0,.3,1.5.7.7,0,0,1-.7,1h0a8.2,8.2,0,0,0-5.6,2.2l-3.6,3.2h26.6l-3.5-3.2A8.2,8.2,0,0,0,161.6,139.5Z"/><path class="q" d="M158.4,137a.9.9,0,0,1-1,1,.9.9,0,0,1-.9-1,.9.9,0,0,1,.9-.9A.9.9,0,0,1,158.4,137Z"/><rect class="l" x="184.9" y="141.3" width="41.4" height="58.44" rx="2.6"/><polygon class="m" points="222.4 195.1 187.6 195.8 188.3 144.9 223.1 144.2 222.4 195.1"/><rect class="n" x="188.7" y="144.5" width="34.8" height="50.13" transform="matrix(1, -0.02, 0.02, 1, -3.27, 4.06)"/><rect class="o" x="193.5" y="176.3" width="25.5" height="1.37" transform="translate(-3.4 4.1) rotate(-1.1)"/><rect class="o" x="193.6" y="179.6" width="25.5" height="1.37" transform="translate(-3.5 4.1) rotate(-1.1)"/><rect class="o" x="193.7" y="182.9" width="25.5" height="1.37" transform="translate(-3.5 4.1) rotate(-1.1)"/><rect class="o" x="193.7" y="186.3" width="14.1" height="1.37" transform="matrix(1, -0.02, 0.02, 1, -3.61, 3.96)"/><rect class="p" x="192.3" y="144.9" width="26.6" height="0.83"/><path class="o" d="M209.8,139.5h0a.7.7,0,0,1-.7-1,3.6,3.6,0,0,0,.2-2.3,3.7,3.7,0,0,0-2.8-2.8,3.7,3.7,0,0,0-4.6,3.6,7.7,7.7,0,0,0,.2,1.5.7.7,0,0,1-.6,1h0a8.2,8.2,0,0,0-5.6,2.2l-3.6,3.2h26.6l-3.5-3.2A8.6,8.6,0,0,0,209.8,139.5Z"/><path class="q" d="M206.6,137a1,1,0,0,1-1,1,.9.9,0,0,1-.9-1,.9.9,0,0,1,.9-.9A1,1,0,0,1,206.6,137Z"/><path class="r" d="M323.2,189.1l-6.7,45.2a.6.6,0,0,0,.6.8h3.3a.6.6,0,0,0,.6-.6l6.7-45.2a.6.6,0,0,0-.6-.7h-3.3A.6.6,0,0,0,323.2,189.1Z"/><path class="s" d="M323.2,188.9a.6.6,0,0,1,.6-.5h3.3a.6.6,0,0,1,.6.7l-1.1,7.6-.9,1.1a.7.7,0,0,1-1,0l-2.4-2.7Z"/><path class="s" d="M284.5,156.4a5.9,5.9,0,0,0,4.9-1.8l2.8-2.8a1.1,1.1,0,0,1,1.3.1l5,5.1c.4.4.5,1,.1,1.3l-2.8,2.8A5.8,5.8,0,0,0,294,166c.3,4.8-1.9,10.6-6.4,15.4a1.2,1.2,0,0,1-1.7-.1l-16.8-17a1.2,1.2,0,0,1-.1-1.7C273.8,158.2,279.7,156,284.5,156.4Z"/><path class="r" d="M294,161.6l30.2,32.6a1.3,1.3,0,0,0,2,0l1.2-1.6a1.4,1.4,0,0,0,0-1.7l-30.2-32.5c-.3-.3-1.5.1-2.2,1.1S293.8,161.4,294,161.6Z"/><path class="t" d="M321,234.5a.6.6,0,0,1-.6.6h-3.3a.6.6,0,0,1-.6-.8l1-7h4.6Z"/><path class="t" d="M294.7,236.1h30a1.9,1.9,0,0,0-1.9-1.8H296.5a1.8,1.8,0,0,0-1.8,1.8Z"/><path class="t" d="M323.8,192a1.1,1.1,0,1,0,1.1-1.1A1.1,1.1,0,0,0,323.8,192Z"/><path class="s" d="M323.9,191.6a1.1,1.1,0,1,0,1.1-1.1A1.1,1.1,0,0,0,323.9,191.6Z"/><rect class="u" x="248.3" y="223.2" width="7.1" height="112.69"/><path class="u" d="M246.5,304.2h10.6a1.7,1.7,0,0,1,1.7,1.7v20.3a0,0,0,0,1,0,0H244.9a0,0,0,0,1,0,0V305.9A1.7,1.7,0,0,1,246.5,304.2Z"/><polygon class="u" points="251.8 326.2 251.8 333.8 212 339.5 212 335.9 244.9 326.2 251.8 326.2"/><path class="u" d="M216.4,343.4a3.8,3.8,0,1,1-3.8-3.7A3.8,3.8,0,0,1,216.4,343.4Z"/><polygon class="u" points="213.1 341.6 212 341.6 212 335.9 213.1 335.6 213.1 341.6"/><polygon class="u" points="251.8 326.2 251.8 333.8 291.6 339.5 291.6 335.9 258.8 326.2 251.8 326.2"/><path class="u" d="M287.3,343.4a3.8,3.8,0,1,0,3.8-3.7A3.8,3.8,0,0,0,287.3,343.4Z"/><path class="u" d="M248,343.4a3.8,3.8,0,1,0,3.8-3.7A3.8,3.8,0,0,0,248,343.4Z"/><polygon class="u" points="290.5 341.6 291.7 341.6 291.7 335.9 290.5 335.6 290.5 341.6"/><rect class="q" x="251.3" y="335.9" width="1.1" height="5.69"/><rect class="q" x="218.9" y="201.8" width="65.8" height="44.95" rx="9.5"/><rect class="s" x="220.5" y="201.8" width="62.7" height="42.86" rx="9.1"/><path class="u" d="M251.8,279c-28.1,0-36.4-3-37.6-7-1.3,5.1,4.1,9.4,37.6,9.4s38.9-4.3,37.6-9.4C288.2,276,279.9,279,251.8,279Z"/><path class="u" d="M287.9,266.2c3.8,6.5,4.6,12.8-36.1,12.8s-39.9-6.3-36.1-12.8,7.4-9,36.1-9S284.8,260.9,287.9,266.2Z"/><path class="v" d="M236.7,281.3c-.6-4.3,4.4-4.9,6.5-5.2,5.3-.6,8.4-1.3,8.4-1.3.8-1.7,1.5-27,1.5-27H240.9s-17.5,10-20.5,14.7-5,11.2.9,23.6Z"/><path class="v" d="M280.4,285.2c1.2-6.9,7.8-11.6,2.9-22.7s-13.6-14.7-13.6-14.7H253.1l-1.5,27s13.6,1.2,15,6.5S280.4,285.2,280.4,285.2Z"/><path class="w" d="M269.5,278.6c-7.4-3.8-17.3-10.3-17.3-10.3l-10.5,4.5c-4.3,1.8-7.9,3.6-9.8,8.8l-.3,1.3,5.1-1.6c-.6-4.3,4.4-4.9,6.5-5.2,5.3-.6,8.4-1.3,8.4-1.3s13.6,1.2,15,6.5c.6,2.1,2.9,3.1,5.5,3.6C271.8,282,273,280.4,269.5,278.6Z"/><polygon class="x" points="271.2 346 255.2 346 256 347.2 271.2 347.2 271.2 346"/><path class="x" d="M252.7,341.5c.5-.4-.9-2.7,1.3-5.2s5.4-1.9,6.1-1.9.9-.7-.1-2.2c1.5,1.1,3.4,2.7,5.3,4.4,3.5,3,5.7,4.1,5.9,9.4h-16a55.6,55.6,0,0,1-4.2-5.9C251.2,340.3,252.2,341.9,252.7,341.5Z"/><path class="y" d="M257.5,330.2l2.5,2c1,1.5.7,2.2.1,2.2s-3.8-.6-6.1,1.9-.8,4.8-1.3,5.2-1.5-1.2-1.7-1.4a36,36,0,0,1-2.9-5.5C250.9,334.7,255.5,333.2,257.5,330.2Z"/><path class="v" d="M224,296.1c-1.7-10.9-8.3-17.5-.9-27.3,2-2.7,8.4-2.1,11.7,2.6,2.2,3.1,1.5,5.2,1.5,6.9.2,7.3,5.9,11.2,10.8,27.4s10.3,24.4,10.3,24.4h.1c-2,3-6.6,4.5-9.4,4.4a17.6,17.6,0,0,1-1-3C245.3,324.8,226.1,309.5,224,296.1Z"/><path class="w" d="M247.1,331.6a17.6,17.6,0,0,0,1,3c2.8.1,7.4-1.4,9.4-4.4h-.1s-4-6.2-8.3-18.4a81.3,81.3,0,0,1-4.5,15.4A13.9,13.9,0,0,1,247.1,331.6Z"/><polygon class="x" points="231.5 346 247.5 346 246.7 347.2 231.5 347.2 231.5 346"/><path class="x" d="M249.9,341.5c-.5-.4.8-2.7-1.5-5.2s-5.4-1.9-6-1.9-1-.7,0-2.2c-1.5,1.1-3.4,2.7-5.3,4.4s-5.6,4.1-5.6,9.4h16a66,66,0,0,0,4.1-5.9C251.4,340.3,250.4,341.9,249.9,341.5Z"/><path class="z" d="M244.9,330.2a22.2,22.2,0,0,0-2.5,2c-1,1.5-.7,2.2,0,2.2s3.7-.6,6,1.9,1,4.8,1.5,5.2,1.5-1.2,1.7-1.4a35.1,35.1,0,0,0,2.7-5.5C251.5,334.7,246.9,333.2,244.9,330.2Z"/><path class="v" d="M277.7,296.1c1.4-10.9,7.9-17.5.2-27.3-2-2.7-8.3-2.1-11.6,2.6-2.1,3.1-1.3,5.2-1.3,6.9,0,7.3-5.7,11.2-10.3,27.4s-9.7,24.4-9.7,24.4h-.1c2,3,6.6,4.5,9.4,4.4a17.6,17.6,0,0,0,1-3C256.9,324.8,275.8,309.5,277.7,296.1Z"/><path class="aa" d="M254.7,174.5c-4,0-10.2,4.1-10.2,9s3.9,44.3-3.6,64.3h28.8s-5.5-35.5-5.5-49.7S268.3,174.5,254.7,174.5Z"/><path class="s" d="M284.9,190.6c1.8,2.6,7.3,25.9,10.1,32.6a44.9,44.9,0,0,1,1.6,4.8H282.3c-1.8.1-3.7-7.2-3.9-10.8s2.3-17,4.4-21.8Z"/><path class="ab" d="M287.5,224c-1.2-1.1-4.9-14.3-6.6-22.5-1.5,5.8-2.7,13.1-2.5,15.6s2.1,10.9,3.9,10.8h8l4.2-2.4C290.7,223.6,288.8,225.2,287.5,224Z"/><path class="s" d="M296.6,228c1.7,3.8,1,6.9-.7,8.4s-8.4.7-12.6,1.6v-1.2s2.6-5.9.4-8.9V226a2,2,0,0,0,1.7.1C286.2,225.9,294.3,222.6,296.6,228Z"/><path class="aa" d="M283.3,236.8s2.6-5.9.4-8.9Z"/><path class="s" d="M269.1,183.9c10.3,3.6,15.9,5.5,15.8,6.7a128.3,128.3,0,0,0-5.9,22.7c-2.1,13-2.7,16.5-.5,23.7s7.7,19.4,8.7,25.5,1.9,11.7-.7,13.6a30,30,0,0,0-9.1-16.6c-8.1-7.5-12.4-8-12.4-23.6S269.1,183.9,269.1,183.9Z"/><path class="s" d="M239.5,183.9a169.8,169.8,0,0,1-15.7,6.5,52.6,52.6,0,0,1,4.4,18.4c.3,9.7,4.1,15.4,3.5,24.1s-14.3,19.6-11.3,29.6a31.9,31.9,0,0,1,11.1-6.9c7.5-3,15.4-9.6,16-25S239.5,183.9,239.5,183.9Z"/><path class="z" d="M246.6,171s-.4,9.1,0,12.6,7.7,17.2,7.7,17.2,7.7-4.2,8.4-14.9.1-14.5.1-14.5Z"/><path class="y" d="M246.6,171s-.2,4.9-.1,8.9,4,8.7,8.2,8.7,6.4-2.4,8.1-5.6a78.4,78.4,0,0,0,0-11.6Z"/><path class="y" d="M262.8,171.5c-.5,1.8-.2,3.5.5,3.7s1.8-1.2,2.2-3.1.3-3.5-.5-3.7S263.3,169.6,262.8,171.5Z"/><path class="y" d="M246.3,171.5c.5,1.8.3,3.5-.5,3.7s-1.7-1.2-2.2-3.1-.3-3.5.5-3.7S245.9,169.6,246.3,171.5Z"/><path class="ac" d="M265.6,166.9a3.6,3.6,0,0,1,1.3-1.7,4.3,4.3,0,0,0,1.3-1.7,1.5,1.5,0,0,0-.7-1.9,4,4,0,0,0,.3-4.8,3.9,3.9,0,0,0-4.5-1.5,4.3,4.3,0,0,0,.6-2.9c-.3-.9-1.6-1.6-2.4-1a4.1,4.1,0,0,0-1.7-4.2,9.4,9.4,0,0,0-4.6-1.3,11.2,11.2,0,0,0-7.2,1.4c-2.1,1.4-3.5,4.1-2.6,6.5a1.9,1.9,0,0,1,.3,1.3c-.2.6-1,.8-1.7,1a9.1,9.1,0,0,0-4.5,1.6,4.5,4.5,0,0,0-1.7,4.3,2.8,2.8,0,0,0,3.8,1.8,5.3,5.3,0,0,0-.7,3.9c1.3,4.7,5.2,3.6,5.7,3.3s1-1.7,1.8-2.2,2.1-.2,3.1.3c3.5,1.4,7,1.4,10.7,2.2.9.1,2.2.9,3,.3S265.2,168.2,265.6,166.9Z"/><path class="z" d="M246.4,165.3a2.1,2.1,0,0,0-1.9,2.2c.3,8,4.5,14.3,10,14.3s9.1-5.1,9.7-10.4a3.4,3.4,0,0,0-.7-2.2c-.9-1-2.2-3.5-2-8.9C261.5,160.3,256.7,164.2,246.4,165.3Z"/><path class="s" d="M223.8,190.4c-2.4.9-3.2,11.2-9.1,24.2s-5.2,19.1-2.5,21.3c0,0,13.2-8.8,16.5-10,0,0,2.1-1.9,1.1-6.9S228.1,188.8,223.8,190.4Z"/><path class="ad" d="M229.8,219c-.5-2.4-.9-10-1.8-16.8-.9,6-3.4,13.6-5.9,19.9a1.7,1.7,0,0,1-1.2,1c-5,1.1-6.8,4.2-7.5,8.2,0,0,4.8.1,4.4,1,4-2.6,9-5.7,10.9-6.4C228.7,225.9,230.8,224,229.8,219Z"/><path class="s" d="M230.6,225.6c0-.8-1.4-.9-4-.6s-3.8-.5-5.6-.1c-8.1,1.8-8.2,9-8.8,11,0,0,2,1.4,8.9,1.4,5,0,10.4,1.4,11.3-1.4a5.4,5.4,0,0,1-4.1,1.1c-3.1-.1-5.5-3-4.6-7S230.6,225.6,230.6,225.6Z"/><path class="aa" d="M232.4,235.9a5.4,5.4,0,0,1-4.1,1.1c-3.1-.1-5.5-3-4.6-7s6.9-4.4,6.9-4.4h.8a1.7,1.7,0,0,1,1.7,1.8Z"/><path class="y" d="M237.1,229.6c0,1.9-2.1,4.8-4.7,4.8a4.9,4.9,0,0,1-4.8-4.8c0-2,2.2-3.6,4.8-3.6S237.1,227.6,237.1,229.6Z"/><path class="ae" d="M274,192.8a.5.5,0,0,0-.7-.7l-2.8.6h0c.5-.5,3.1-3.6,2-6.1a6.5,6.5,0,0,0-1.5-2l-1.9-.7s-3.6,31.6-4.1,48.5c.1,1.3.1,2.5.2,3.5C265.2,218.6,271.1,197.7,274,192.8Z"/><path class="s" d="M271.5,192.1l-2.2.6h0c.4-.5,2.5-3.6,1.6-6.1s-3.9-4.8-6.2-6.2l-.3-.2c.9,4.1-.2,10.3-.2,17.9,0,10.3.5,28.6.8,37.8,0-17.3,4.8-38.2,7.1-43.1C272.3,192.4,271.9,191.9,271.5,192.1Z"/><path class="af" d="M247.5,228.3c-.2-16-8-44.4-8-44.4l-2.2,1.1a4.7,4.7,0,0,0-1,1.6c-1.1,2.5,1.4,5.6,1.8,6.1h0l-2.5-.6a.5.5,0,0,0-.7.7c2.7,4.9,13.8,26.4,11.9,43.2A61.2,61.2,0,0,0,247.5,228.3Z"/><path class="s" d="M243.9,180.4a4.5,4.5,0,0,1,1.9-.8,7,7,0,0,0-1.3,3.9c0,4.3,4.8,35.6,2.3,52.5,1.7-16.8-7.9-38.3-10.3-43.2-.2-.4.2-.9.6-.7l2.2.6h.1c-.4-.5-2.6-3.6-1.7-6.1S241.6,181.8,243.9,180.4Z"/><path class="t" d="M282.1,239.8H233.8a1.2,1.2,0,0,1-1.2-1.1l-1.1-29.4a1.2,1.2,0,0,1,1.2-1.2h50.5a1.2,1.2,0,0,1,1.2,1.2l-1.1,29.4A1.3,1.3,0,0,1,282.1,239.8Z"/><path class="ag" d="M323.4,245.4H28.4a18.2,18.2,0,0,1-11.7-4l-4-3.4a2.4,2.4,0,0,1,2.5-2.1H336.5a2.5,2.5,0,0,1,2.6,2.1l-4.1,3.4A17.8,17.8,0,0,1,323.4,245.4Z"/><path class="ah" d="M28.4,245.4h295a17.8,17.8,0,0,0,11.6-4H16.7A18.2,18.2,0,0,0,28.4,245.4Z"/><path class="ai" d="M41.8,347.2h0a2.1,2.1,0,0,1-1.9-2l-2.6-99.8h9l-2.6,99.8A2.1,2.1,0,0,1,41.8,347.2Z"/><polygon class="ah" points="37.3 245.4 37.6 253.7 46.1 253.7 46.3 245.4 37.3 245.4"/><path class="ai" d="M309.9,347.2h0a2,2,0,0,0,1.9-2l2.6-99.8h-8.9l2.6,99.8A1.9,1.9,0,0,0,309.9,347.2Z"/><polygon class="ah" points="314.4 245.4 314.2 253.7 305.7 253.7 305.5 245.4 314.4 245.4"/><path class="x" d="M108.1,288.1c-3.7,4.9-4.6,4.2-4.6,7.1s5.1,6.6,7.3,16.2c1.5,7.2,5.1,9.6,8.9,8.1s2.2-7.4,1-10.8a68.2,68.2,0,0,1-1.9-9.7Z"/><path class="z" d="M108.1,288.1c-.2,3.8,1.7,6.8,5.2,7.8Z"/><path class="v" d="M70.1,204.9c18.7,9.9,49.3,21.5,52.9,26.1,9.8,12.4-4.4,53.6-4.2,68a5.9,5.9,0,0,1-6.5-3c-2.6-4.7-3.7-5.8-4.2-7.9,0,0,1.1-14.6-.2-24.2s-4-14.1-1.5-20.4c0,0-33.3-10.6-41.1-6.3L54.3,212Z"/><path class="w" d="M108.7,239.5c-1-2.7-35.8-10.5-44.8-15.3l-2.4,4.2,3.8,8.8c7.8-4.3,41.1,6.3,41.1,6.3-2.5,6.3.1,10.9,1.5,20.4s.2,24.2.2,24.2a8.1,8.1,0,0,0,1.3,2.9c.8-8.2,2.8-19.5-.7-31.3C104.3,244.5,109.8,242.1,108.7,239.5Z"/><path class="x" d="M82.9,336.3c.8,3.9-1.8,5.1-.9,10.2a.9.9,0,0,0,.9.7h20.5a.9.9,0,0,0,.8-1.1,8.3,8.3,0,0,0-2.5-3.8c-1.4-1.1-7.5-2.7-8.5-6Z"/><path class="v" d="M26.6,213.3c-5.5,12-3.5,23.3,7.8,31.1S65.5,276,65.2,277.1s-3.6,15.3,7,33.8,10.7,25.4,10.7,25.4H93.2s-5.6-31.6-7-43,.9-17.1-2.2-22.3-16.1-25.5-16.1-32.7,2-20.2-5.3-26.9S26.6,213.3,26.6,213.3Z"/><path class="aa" d="M68.1,146.1c6,6.8,10.1,22.6,7.7,38-.2,1.4,5.9,10,7.1,14.5l-12.8,6.3s-1.6-4.7-3.9-14.7S68.1,146.1,68.1,146.1Z"/><path class="aj" d="M74.1,199.5c-3.3-.9-4.8-9.9-4.7-11.8.8-7.5,5.8-17,2.5-31.5a12.6,12.6,0,0,0-4.2-7.2c-.9,8.5-3.5,33-1.5,41.2,2.3,10,3.9,14.7,3.9,14.7l12.8-6.3S77.5,200.4,74.1,199.5Z"/><path class="aa" d="M70.1,204.9a10,10,0,0,0,3.9,5.2h.2l14.2-6.2a.3.3,0,0,0,.1-.2c-.2-.8-1.1-4.8-3.6-7.1h-.2l-14.5,8.2Z"/><path class="aa" d="M70.1,200.7c-1.6-6.1-4.3-8.6-2.1-15.5,2.8-9,5.8-17.2,3.9-29S60.6,135.8,53,135.7c-5.8,0-19.4,5.9-25.6,12.9s-8.8,14.9-8.9,26.3c-.2,18.2,4.9,22.9,3.4,34.6-.7,5.8.9,9.5,3.8,10.1s14.6-2.7,25.7-2.8C66,216.7,71.6,206.6,70.1,200.7Z"/><path class="ak" d="M37.5,150.4c5.1-6,13.2-8.3,20.8-11.3l-.3-2.2a13.5,13.5,0,0,0-5-1.2c-5.8,0-19.4,5.9-25.6,12.9s-8.8,14.9-8.9,26.3c-.2,18.2,4.9,22.9,3.4,34.6-.7,5.8.9,9.5,3.8,10.1s7.9-1,15-1.9h0c-4.2-1.5-1.9-3.4-2.9-7.3s-8.9-6.2-5-16.2c3.1-8,1.3-16.5,7.2-24.7C44.5,163.2,33.6,155.2,37.5,150.4Z"/><path class="z" d="M75.2,142.3l-2.4-.5-9.5,8.7s-7.9-9-10.3-14.8l18.2-17Z"/><path class="y" d="M71.2,118.7,53,135.7a16.6,16.6,0,0,0,2.5,4.5c8-1.8,12.8.7,17.3,1.6l2.4.5Z"/><path class="ac" d="M84.1,119c-.8-.4-1.7-.4-2.3-.8s-1-2.8-1.1-4.3a5.7,5.7,0,0,0-3.4-5.3,4.3,4.3,0,0,0-5.6,2.1,3.4,3.4,0,0,0-.4-3.1,6.9,6.9,0,0,0-2.3-2.2,8.6,8.6,0,0,0-4.8-1.8,4.5,4.5,0,0,0-4.2,2.5,12,12,0,0,0-.2,3.8,3.2,3.2,0,0,1-1.5,3.3c-1.3.5-2.8-.3-4.2,0s-2.4,2.3-2.7,4a9.8,9.8,0,0,0,.2,5.1,4.4,4.4,0,0,0,3.9,2.9,4.8,4.8,0,0,0-4.6,3.4,6,6,0,0,0,1.5,5.7,8.6,8.6,0,0,0,5.4,2.6,14.5,14.5,0,0,0,6.2-.6,6.2,6.2,0,0,0,2.6-1.2,3.1,3.1,0,0,0,1.3-2.4c-.1-.7-.4-1.3-.5-2a1.4,1.4,0,0,1,.8-1.7,3.6,3.6,0,0,0,.2,2.3,1.3,1.3,0,0,0,2,.5,2,2,0,0,0,.3-1.1,8.1,8.1,0,0,0-.7-2.2,3.8,3.8,0,0,1-.1-2.1,1.5,1.5,0,0,1,1.8-.9,1.9,1.9,0,0,1,.9,1.4l1.4,3.9a5.2,5.2,0,0,0,.9,2,2.2,2.2,0,0,0,1.9.8c1-.2,1.5-1.3,1.8-2.2s.9-6,3.6-7.1,2.7-.5,3.2-2A2.6,2.6,0,0,0,84.1,119Z"/><path class="z" d="M74.3,127.6c.5-3.3-1.9-5-2.9-4s-1,8.2,1.4,8.1-2.2,8.2,2.4,10.6c0,0,2.4,1.1,4.7-4.6s1.5-15.3,1.5-15.3a1.3,1.3,0,0,0-1.9,1.2c-.3,1.9-2.3,7.4-3.4,7.3S74.1,128.5,74.3,127.6Z"/><path class="aa" d="M26.7,197.1a32.8,32.8,0,0,1-.8-5s8.3-16,12.8-21.1,9.6-13.3,5.2-20.6-12.3-8.3-20.4,2.5S6.8,183.8,7.3,189.3s4.4,12.2,4.4,12.2Z"/><path class="z" d="M27.6,207.6h0c-2.4,1-6.6,1.9-12.4.3h0c2.9,5.6,11.4,15.8,16.2,20.2s4.3,9.1,8.5,9.1V224.4Z"/><path class="y" d="M37.2,234.2c-1.6-1.5-3.1-6.1-8.3-11.8s-4.7-11.4-.2-13.2l-1.1-1.6h0c-2.4,1-6.6,1.9-12.4.3h0c2.9,5.6,11.4,15.8,16.2,20.2s4.3,9.1,8.5,9.1V224.4l-1.4-1.9C38.5,227,38.4,235.2,37.2,234.2Z"/><polygon class="al" points="11.7 201.5 26.2 194.2 26.7 197.1 11.7 201.5"/><path class="aa" d="M11.7,201.5l16.7-5.1,1.4,9.2a1.3,1.3,0,0,1-.6,1.1c-1.9,1.2-8.1,4.1-17.8-.1a1.2,1.2,0,0,1-.7-1.1A6.8,6.8,0,0,1,11.7,201.5Z"/><path class="z" d="M74.2,210.1c5.9,4.7,16.9,10.5,17.5,11.9s.3,3.3.7,6.1-.9,5,1.2,5.2,3.3-3.7,3.3-3.7a15.7,15.7,0,0,1,1.8,3.7,23.5,23.5,0,0,1-1.1,4s-2.4,1.4-2.1,1.9,4.7-.1,6.3-1.9a12.7,12.7,0,0,0,2.4-5.3.6.6,0,0,0,0-.6c-.2-1.6-1.3-8.8-2.5-10.4s-15.3-16.3-15.3-16.3Z"/><path class="y" d="M87,205.3l-.6-.6-12.2,5.4c5.7,4.5,16.1,10,17.4,11.7-1.8-3-10.3-7.9-10.8-10.7S83,206.6,87,205.3Z"/><rect class="l" x="89" y="141.3" width="41.4" height="58.44" rx="2.6"/><polygon class="m" points="126.5 195.1 91.7 195.8 92.3 144.9 127.2 144.2 126.5 195.1"/><rect class="n" x="92.8" y="144.5" width="34.8" height="50.13" transform="translate(-3.3 2.2) rotate(-1.1)"/><rect class="o" x="97.6" y="176.3" width="25.5" height="1.37" transform="translate(-3.4 2.2) rotate(-1.1)"/><rect class="o" x="97.7" y="179.6" width="25.5" height="1.37" transform="translate(-3.5 2.2) rotate(-1.1)"/><rect class="o" x="97.8" y="182.9" width="25.5" height="1.37" transform="translate(-3.6 2.2) rotate(-1.1)"/><rect class="o" x="97.8" y="186.3" width="14.1" height="1.37" transform="translate(-3.6 2.1) rotate(-1.1)"/><rect class="p" x="96.4" y="144.9" width="26.6" height="0.83"/><path class="o" d="M113.9,139.5h0a.7.7,0,0,1-.7-1,3.6,3.6,0,0,0,.2-2.3,3.7,3.7,0,0,0-2.8-2.8,3.8,3.8,0,0,0-4.7,3.6,4,4,0,0,0,.3,1.5.7.7,0,0,1-.6,1h0a8.7,8.7,0,0,0-5.7,2.2l-3.5,3.2H123l-3.5-3.2A8.6,8.6,0,0,0,113.9,139.5Z"/><path class="q" d="M110.7,137a1,1,0,0,1-2,0,1,1,0,0,1,2,0Z"/><rect class="am" x="208.1" y="211.2" width="1" height="24.27" transform="translate(97 -61.2) rotate(21.6)"/><rect class="t" x="201.6" y="215.6" width="0.9" height="8.7" rx="0.1" transform="translate(-34 36.9) rotate(-9.6)"/><rect class="s" x="202" y="216.6" width="1.7" height="16.98" rx="0.2" transform="translate(-34.8 37.1) rotate(-9.6)"/><rect class="aa" x="200" y="221.5" width="11.2" height="13.98"/><rect class="an" x="199.7" y="234.5" width="11.9" height="1.57" rx="0.3"/><rect class="ao" x="199.7" y="220.8" width="11.9" height="1.57" rx="0.3"/><path class="ap" d="M164.2,159a5.7,5.7,0,0,1-1.8-5.2,2.2,2.2,0,0,0,.1-.8,4.2,4.2,0,0,0-8.3.2,3.4,3.4,0,0,0,.1,1,5.7,5.7,0,0,1-1.3,5.3,8,8,0,0,0-2.2,5.4c0,4.8,1.9,7.1,4.6,7.8a8.2,8.2,0,0,1,2.5-.4,5.7,5.7,0,0,1,2.4.4c3.3-.7,4.9-2.3,6-6A8,8,0,0,0,164.2,159Z"/><path d="M164.2,159a5.7,5.7,0,0,1-1.8-5.2,2.2,2.2,0,0,0,.1-.8,4.2,4.2,0,0,0-4-4h-.6v23.2a6.5,6.5,0,0,1,2.7.5c3.1-.5,4.6-2.5,5.7-6.1A8,8,0,0,0,164.2,159Z"/><path class="n" d="M152.6,165.8c0-3.1,2.5-10.4,5.6-10.4s5.6,7.3,5.6,10.4a5.6,5.6,0,1,1-11.2,0Z"/><path class="aq" d="M158.2,155.4h-.3v16h.3a5.7,5.7,0,0,0,5.6-5.7C163.8,162.7,161.3,155.4,158.2,155.4Z"/><ellipse class="ar" cx="156.1" cy="153.8" rx="0.9" ry="1.3"/><ellipse class="as" cx="156.1" cy="154.1" rx="0.5" ry="0.8"/><ellipse class="ar" cx="159.4" cy="153.8" rx="0.9" ry="1.3"/><ellipse class="as" cx="159.4" cy="154.1" rx="0.5" ry="0.8"/><path class="at" d="M160.7,156c.3.6-2,1.8-2.8,1.8s-3.1-1.4-2.8-1.8,1.7-1.9,2.6-1.9A6.2,6.2,0,0,1,160.7,156Z"/><path class="au" d="M160.7,156a7.6,7.6,0,0,0-2.8-1.9v3.7C158.7,157.8,161,156.6,160.7,156Z"/><path class="av" d="M164.2,166c.4.8,1,1.6,1.8,1.7a1.5,1.5,0,0,1,1,1.3c.1,0,.1.1.1.2a3.5,3.5,0,0,0,.6,1.4,1,1,0,0,1-.6,1.6l-5.9,1.1a1.5,1.5,0,0,1-1.6-2.2l3.3-5.1A.8.8,0,0,1,164.2,166Z"/><path class="aw" d="M157.9,157.5a3.9,3.9,0,0,1-2.6-1.2l.3-.3a3.5,3.5,0,0,0,2.5,1.1,2.8,2.8,0,0,0,1.7-1.1l.4.2a3.5,3.5,0,0,1-2.1,1.3Z"/><path class="ax" d="M158.1,157.1h-.2v.4h.2a3.5,3.5,0,0,0,2.1-1.3l-.4-.2A2.8,2.8,0,0,1,158.1,157.1Z"/><circle cx="165" cy="167" r="1.9"/><path class="ap" d="M152.2,164.9s2,2.4,3.5,3-.7,2.2-2.7.9S152.2,164.9,152.2,164.9Z"/><path class="ay" d="M151.1,166c-.4.8-1,1.6-1.8,1.7a1.8,1.8,0,0,0-1.1,1.3v.2a3.5,3.5,0,0,1-.6,1.4,1,1,0,0,0,.6,1.6l5.9,1.1a1.5,1.5,0,0,0,1.6-2.2l-3.3-5.1A.8.8,0,0,0,151.1,166Z"/><path class="x" d="M108.9,154.8l8.9-1.4h.2v8.1h-9.3c-.1,0-.2,0-.2-.1v-6.8h.4Z"/><path class="x" d="M100.9,155.9l6.6-.9h.2v6.6c0,.1,0,.1-.1.1l-7,.2v-5.9h.4Z"/><path class="x" d="M100.7,162.7h7v6.7h-.2l-6.9-.9h-.1v-5.7C100.5,162.7,100.6,162.7,100.7,162.7Z"/><path class="x" d="M109,162.7h9v8.1H118l-9.3-1.2h-.1v-6.8c0-.1,0-.1.1-.1Z"/><path class="az" d="M109.2,161.7v-6.9h-.7v6.8c0,.1.1.1.2.1h.6A.1.1,0,0,1,109.2,161.7Z"/><path class="az" d="M101.2,161.8V156h-.7V162h.6Z"/><path class="ba" d="M107.7,162.6h0Z"/><path class="az" d="M101.3,168.7v-5.9a.1.1,0,0,1,.1-.1h-.6c-.1,0-.2,0-.2.1v5.7h.7Z"/><path class="az" d="M109.3,169.7v-6.9c0-.1,0-.1.1-.1h-.7c-.1,0-.1,0-.1.1v6.8h.7Z"/><path class="bb" d="M261.4,223.5a3.9,3.9,0,0,1-7.8,0,3.7,3.7,0,0,1,3.9-4A3.8,3.8,0,0,1,261.4,223.5Z"/><path class="n" d="M260.6,223.1l-1.7-1.6-1.4,1.3h0l-1.5-1.3-1.7,1.6,1.5,1.3h0l1.7,1.5,1.7-1.5h0Zm-1.7-1,1,1-1,1-1.1-1Zm-2.8,0,1,1-1,1-1.1-1Zm1.4,3.2-1-.9,1-.9,1,.9Z"/><rect x="196.1" y="151.9" width="20.6" height="5.01"/><rect class="bc" x="196.1" y="156.9" width="20.6" height="5.01"/><rect class="bd" x="196.1" y="161.9" width="20.6" height="5.01"/></g></svg>