<svg xmlns="http://www.w3.org/2000/svg" xmlns:xlink="http://www.w3.org/1999/xlink" viewBox="0 0 400 400"><defs><style>.a{fill:url(#a);}.b{font-size:35.56px;font-family:YekanBakh-Bold, YekanBakh Bold;font-weight:700;}.b,.i{fill:#fff;}.c{fill:#b2d3ea;}.d{fill:#0050af;}.e{fill:#5793ce;}.f{fill:#197bdd;}.g{fill:#d4ecff;}.h{fill:#4ea4f9;}.j{fill:#fafdff;}.k{fill:#173d7a;}.l{fill:#396caa;}.m{fill:#f59b6b;}.n{fill:#21e2e2;}</style><linearGradient id="a" x1="227.78" y1="356.68" x2="175.83" y2="62.08" gradientUnits="userSpaceOnUse"><stop offset="0" stop-color="#c6e6ff"/><stop offset="1" stop-color="#fff"/></linearGradient></defs><title>usage vps</title><path class="a" d="M99.6,293C41.5,269,4.9,210.1,10.8,147.5c2.3-23.8,10.4-45.1,29.3-56.1,59.2-34.5,105.4,18.9,145,59.3s154.4,4.7,192.2,52.3,4.1,133.6-80.7,141.1C246.2,348.5,160.7,318.3,99.6,293Z"/><text class="b" transform="translate(198.6 -34.6)"> یزاجم روس دربراک*</text><path class="c" d="M310.7,231.3a4.5,4.5,0,0,1-2.5-.7l-14.7-8.8.9-1.5,14.7,8.8a2.9,2.9,0,0,0,3.1,0l24-14a1.1,1.1,0,0,0,.6-1.1,1.1,1.1,0,0,0-.6-1l-32-17.1.8-1.6,32,17.2a3,3,0,0,1,.1,5.1l-24,14A4.4,4.4,0,0,1,310.7,231.3Z"/><path class="c" d="M251,364.1a5.4,5.4,0,0,1-3-.8l-58.9-32.7a2.8,2.8,0,0,1,0-4.8l26.7-15a.8.8,0,0,0,.4-.8,1,1,0,0,0-.4-.8l-29.7-17a2.6,2.6,0,0,1-1.3-2.3,2.7,2.7,0,0,1,1.2-2.3l12.1-7.6,1,1.4L187,289.1a1.2,1.2,0,0,0-.5.8.9.9,0,0,0,.5.8l29.6,17A2.7,2.7,0,0,1,218,310a2.4,2.4,0,0,1-1.4,2.3L190,327.4a.8.8,0,0,0-.5.8.9.9,0,0,0,.5.9l58.8,32.7a4.3,4.3,0,0,0,4.5-.1L275.7,348a.4.4,0,0,0,.2-.4c0-.1,0-.2-.2-.4l-16.2-9.8.9-1.5,16.2,9.9a2,2,0,0,1,1.1,1.8,2.1,2.1,0,0,1-1.1,1.9l-22.4,13.7A6.2,6.2,0,0,1,251,364.1Z"/><path class="c" d="M276.4,232.2l-28.3-16.4c-1.8-1-1.6-2.8.4-3.9L275.9,196c2.1-1.1,5.1-1.2,6.8-.2l28.4,16.4c1.8,1,1.5,2.7-.5,3.9l-27.4,15.8A7.5,7.5,0,0,1,276.4,232.2Z"/><path class="d" d="M320.5,199.5h0V187.2H293l-9.5-5.5c-2.1-1.3-6-1.1-8.5.4l-8.8,5.1H238.6v12.6a2.7,2.7,0,0,0,1.5,2.2l35.5,20.6a9.5,9.5,0,0,0,8.5-.4l34.4-19.8C319.9,201.6,320.6,200.5,320.5,199.5Z"/><path class="d" d="M279.6,181.1a9,9,0,0,0-4.6,1.2l-8.8,5.1H238.6V200a2.8,2.8,0,0,0,1.5,2.3l35.5,20.5a7.4,7.4,0,0,0,4,.8Z"/><path class="e" d="M241.8,187.4h-3.2V200a2.8,2.8,0,0,0,1.5,2.3l1.7.9Z"/><path class="f" d="M276.2,223a9.9,9.9,0,0,0,6.8,0V208.6h-6.8Z"/><path class="g" d="M275.6,210.2l-35.5-20.5c-2.2-1.3-1.9-3.5.6-4.9L275,165c2.5-1.5,6.4-1.6,8.5-.4l35.6,20.5c2.2,1.3,1.9,3.5-.6,4.9l-34.4,19.9C281.6,211.3,277.8,211.5,275.6,210.2Z"/><path class="f" d="M276.3,206.5l-29.8-17.2c-1.8-1-1.6-2.9.5-4.1l28.8-16.6a8.1,8.1,0,0,1,7.1-.3l29.8,17.2c1.8,1.1,1.6,2.9-.5,4.1l-28.8,16.6C281.3,207.4,278.1,207.6,276.3,206.5Z"/><path class="g" d="M307.5,202.9a3.3,3.3,0,0,1-1.5,2.5c-.8.5-1.4.1-1.4-.8a3.1,3.1,0,0,1,1.4-2.5C306.8,201.6,307.5,202,307.5,202.9Z"/><path class="g" d="M312.1,200.2a3,3,0,0,1-1.5,2.5c-.7.5-1.4.1-1.4-.8a3.5,3.5,0,0,1,1.4-2.5C311.4,199,312.1,199.3,312.1,200.2Z"/><path class="g" d="M316.7,197.6a3.2,3.2,0,0,1-1.4,2.5,1,1,0,0,1-1.5-.9,3.3,3.3,0,0,1,1.5-2.5C316.1,196.3,316.7,196.7,316.7,197.6Z"/><path class="d" d="M320.5,179.9h0V167.6H293l-9.5-5.5c-2.1-1.3-6-1.1-8.5.4l-8.8,5.1H238.6v12.6a2.7,2.7,0,0,0,1.5,2.2L275.6,203a9.5,9.5,0,0,0,8.5-.4l34.4-19.8C319.9,182,320.6,180.9,320.5,179.9Z"/><path class="d" d="M279.6,161.5a9,9,0,0,0-4.6,1.2l-8.8,5.1H238.6v12.6a2.8,2.8,0,0,0,1.5,2.3l35.5,20.5a7.4,7.4,0,0,0,4,.8Z"/><path class="e" d="M241.8,167.8h-3.2v12.6a2.8,2.8,0,0,0,1.5,2.3l1.7.9Z"/><path class="f" d="M276.2,203.4a9.4,9.4,0,0,0,6.8,0V189.1h-6.8Z"/><path class="g" d="M275.6,190.6l-35.5-20.5c-2.2-1.3-1.9-3.5.6-4.9L275,145.4c2.5-1.5,6.4-1.6,8.5-.4l35.6,20.5c2.2,1.3,1.9,3.5-.6,5l-34.4,19.8C281.6,191.7,277.8,191.9,275.6,190.6Z"/><path class="f" d="M276.3,186.9l-29.8-17.2c-1.8-1-1.6-2.9.5-4.1L275.8,149a8.1,8.1,0,0,1,7.1-.3l29.8,17.2c1.8,1.1,1.6,2.9-.5,4.1l-28.8,16.6C281.3,187.8,278.1,188,276.3,186.9Z"/><path class="g" d="M307.5,183.3a3.3,3.3,0,0,1-1.5,2.5c-.8.5-1.4.1-1.4-.8a3.1,3.1,0,0,1,1.4-2.5C306.8,182,307.5,182.4,307.5,183.3Z"/><path class="g" d="M312.1,180.6a3,3,0,0,1-1.5,2.5c-.7.5-1.4.1-1.4-.8a3.5,3.5,0,0,1,1.4-2.5C311.4,179.4,312.1,179.7,312.1,180.6Z"/><path class="g" d="M316.7,178a3.2,3.2,0,0,1-1.4,2.5c-.8.4-1.5.1-1.5-.9a3,3,0,0,1,1.5-2.4C316.1,176.7,316.7,177.1,316.7,178Z"/><path class="d" d="M320.5,160.3h0V148H293l-9.5-5.5c-2.1-1.3-6-1.1-8.5.4l-8.8,5.1H238.6v12.6a2.8,2.8,0,0,0,1.5,2.3l35.5,20.5a9.5,9.5,0,0,0,8.5-.4l34.4-19.8C319.9,162.4,320.6,161.3,320.5,160.3Z"/><path class="d" d="M279.6,141.9a9,9,0,0,0-4.6,1.2l-8.8,5.1H238.6v12.6a2.8,2.8,0,0,0,1.5,2.3l35.5,20.5a7.4,7.4,0,0,0,4,.8Z"/><path class="e" d="M241.8,148.2h-3.2v12.6a2.8,2.8,0,0,0,1.5,2.3l1.7.9Z"/><path class="f" d="M276.2,183.9a10,10,0,0,0,6.8-.1V169.5h-6.8Z"/><path class="h" d="M275.6,171l-35.5-20.5c-2.2-1.3-1.9-3.5.6-4.9L275,125.8c2.5-1.5,6.4-1.6,8.5-.4l35.6,20.5c2.2,1.3,1.9,3.5-.6,5l-34.4,19.8C281.6,172.1,277.8,172.3,275.6,171Z"/><path class="i" d="M318.5,148.4l-34.4,19.9c-2.5,1.4-6.3,1.6-8.5.3l-35.5-20.5a3.6,3.6,0,0,1-1.1-1c-.7,1.2-.4,2.5,1.1,3.4L275.6,171c2.2,1.3,6,1.1,8.5-.3l34.4-19.8c1.9-1.2,2.5-2.8,1.7-4A4.2,4.2,0,0,1,318.5,148.4Z"/><path class="g" d="M307.5,163.7a3.3,3.3,0,0,1-1.5,2.5c-.8.5-1.4.1-1.4-.8a3.1,3.1,0,0,1,1.4-2.5C306.8,162.4,307.5,162.8,307.5,163.7Z"/><path class="g" d="M312.1,161.1a3,3,0,0,1-1.5,2.4c-.7.5-1.4.1-1.4-.8a3.5,3.5,0,0,1,1.4-2.5C311.4,159.8,312.1,160.1,312.1,161.1Z"/><path class="g" d="M316.7,158.4a3.2,3.2,0,0,1-1.4,2.5c-.8.4-1.5.1-1.5-.9a3,3,0,0,1,1.5-2.4C316.1,157.1,316.7,157.5,316.7,158.4Z"/><path class="f" d="M277.7,158.3l-16.6-9.6c-1-.6-.9-1.6.3-2.3l16.1-9.3a4.2,4.2,0,0,1,3.9-.1l16.7,9.6c1,.6.9,1.6-.3,2.3l-16.1,9.2A4.4,4.4,0,0,1,277.7,158.3Z"/><path class="g" d="M279.3,150.3l-2.3-1.4c-.1,0-.1-.2.1-.3l2.2-1.3a.4.4,0,0,1,.5,0l2.3,1.3a.2.2,0,0,1,0,.4l-2.2,1.2Z"/><path class="d" d="M261.1,148.7h.3l16.1-9.3a4.2,4.2,0,0,1,3.9-.2l16.6,9.6c1-.7,1-1.6.1-2.1L281.4,137a4.2,4.2,0,0,0-3.9.1l-16.1,9.3C260.2,147.1,260.1,148.1,261.1,148.7Z"/><path class="c" d="M212.5,291l-61.3-35c-2.3-1.3-2-3.6.6-5.1l35.3-20.3c2.6-1.5,6.5-1.7,8.7-.4l61.4,35c2.2,1.3,1.9,3.5-.6,5l-35.3,20.4C218.7,292.1,214.8,292.3,212.5,291Z"/><path class="d" d="M262.6,253.2h0V110L205.7,95.1l-10.5-6c-2.4-1.4-6.6-1.3-9.3.3l-9.8,5.7H145.7l9,138.2a2.7,2.7,0,0,0,1.6,2.5l56.8,42.9c2.4,1.4,6.6,1.2,9.4-.4l37.9-21.9C262,255.5,262.7,254.3,262.6,253.2Z"/><path class="h" d="M190.9,88.3a10.4,10.4,0,0,0-5,1.4l-9.8,5.6H145.7V238.9a2.8,2.8,0,0,0,1.6,2.5l65.8,37.5a7.7,7.7,0,0,0,4.4.9l.7-144.4Z"/><path class="f" d="M213.7,279.2a10.8,10.8,0,0,0,7.5-.1V133.6h-7.5Z"/><path class="h" d="M213.1,135.4,147.3,97.9c-2.4-1.4-2.1-3.9.7-5.5l37.9-21.8c2.7-1.6,6.9-1.8,9.3-.4L261,107.7c2.4,1.4,2.1,3.8-.6,5.4L222.5,135C219.7,136.6,215.5,136.8,213.1,135.4Z"/><path class="j" d="M260.4,110.5l-37.9,21.8c-2.8,1.6-7,1.8-9.4.4L147.3,95.2a4.3,4.3,0,0,1-1.2-1.1c-.8,1.4-.4,2.8,1.2,3.8l65.8,37.5c2.4,1.4,6.6,1.2,9.4-.4l37.9-21.9c2.1-1.2,2.8-3,1.8-4.3A5,5,0,0,1,260.4,110.5Z"/><path class="f" d="M215,120.2,171.2,94.8c-1.2-.7-1-1.8.3-2.6L189.2,82a5.2,5.2,0,0,1,4.4-.2l43.8,25.4c1.1.7,1,1.8-.3,2.6L219.4,120A5.2,5.2,0,0,1,215,120.2Z"/><path class="g" d="M191.3,95.9l-2.5-1.5c-.2,0-.1-.2,0-.3l2.5-1.4a.6.6,0,0,1,.6,0l2.5,1.4a.2.2,0,0,1,0,.4l-2.5,1.4Z"/><path class="g" d="M199.8,100.8l-2.5-1.5q-.3-.1,0-.3l2.5-1.4a.6.6,0,0,1,.6-.1l2.5,1.5c.2.1.1.2,0,.3l-2.5,1.5A.6.6,0,0,1,199.8,100.8Z"/><path class="g" d="M208.3,105.7l-2.5-1.5c-.2-.1-.2-.2,0-.4l2.4-1.4a.9.9,0,0,1,.7,0l2.5,1.5c.1.1.1.2-.1.3l-2.4,1.4C208.7,105.7,208.4,105.8,208.3,105.7Z"/><path class="g" d="M216.8,110.5l-2.6-1.4a.2.2,0,0,1,.1-.4l2.4-1.4h.6l2.6,1.5c.1,0,.1.2-.1.3l-2.4,1.4Z"/><path class="d" d="M171.2,94.8h0l.3-.2,17.7-10.2a4.9,4.9,0,0,1,4.4-.2l43.8,25.4c1-.8,1-1.8,0-2.4L193.6,81.8a5.2,5.2,0,0,0-4.4.2L171.5,92.2C170.2,93,170,94.1,171.2,94.8Z"/><path class="k" d="M229.9,163.7l24.9-14.2a6.1,6.1,0,0,0,2.5-4.9v-8.9c0-1.8-1.1-2.7-2.5-1.9l-24.9,14.3a5.9,5.9,0,0,0-2.5,4.8v8.9C227.4,163.7,228.5,164.5,229.9,163.7Z"/><path class="i" d="M256,133.5a2.6,2.6,0,0,1,.7,1.9v8.9a6,6,0,0,1-2.6,4.8l-24.9,14.3a1.8,1.8,0,0,1-1.2.3,1.5,1.5,0,0,0,1.9,0l24.9-14.2a6.1,6.1,0,0,0,2.5-4.9v-8.9C257.3,134.5,256.8,133.7,256,133.5Z"/><path class="l" d="M237.4,154.1l2.3-1.4c.3-.1.5-.6.5-1v-2.5c0-.4-.2-.5-.5-.4l-2.3,1.3a1.5,1.5,0,0,0-.6,1.1v2.4C236.8,154.1,237.1,154.2,237.4,154.1Z"/><path class="i" d="M245,149.7l2.3-1.4a1.2,1.2,0,0,0,.6-1v-2.5c0-.4-.3-.6-.6-.4l-2.3,1.3a1.4,1.4,0,0,0-.5,1.1v2.4C244.5,149.6,244.7,149.8,245,149.7Z"/><path class="k" d="M229.9,228.1l24.9-14.3a5.9,5.9,0,0,0,2.5-4.8v-8.9c0-1.9-1.1-2.7-2.5-1.9l-24.9,14.2a6.1,6.1,0,0,0-2.5,4.9v8.9C227.4,228.1,228.5,228.9,229.9,228.1Z"/><path class="i" d="M256,197.9a2.6,2.6,0,0,1,.7,1.9v8.9a6.1,6.1,0,0,1-2.6,4.8l-24.9,14.3a1.7,1.7,0,0,1-1.2.2c.5.5,1.1.5,1.9.1l24.9-14.3a5.9,5.9,0,0,0,2.5-4.8v-8.9C257.3,198.8,256.8,198,256,197.9Z"/><path class="l" d="M237.4,218.4l2.3-1.3a1.2,1.2,0,0,0,.5-1v-2.5c0-.4-.2-.6-.5-.4l-2.3,1.3a1.5,1.5,0,0,0-.6,1.1V218C236.8,218.4,237.1,218.6,237.4,218.4Z"/><path class="l" d="M245,214l2.3-1.3a1.5,1.5,0,0,0,.6-1.1v-2.4c0-.4-.3-.6-.6-.4l-2.3,1.3a1.4,1.4,0,0,0-.5,1.1v2.4C244.5,214,244.7,214.2,245,214Z"/><path class="k" d="M229.9,260.3,254.8,246a6,6,0,0,0,2.5-4.8v-8.9c0-1.9-1.1-2.8-2.5-2l-24.9,14.3a6.1,6.1,0,0,0-2.5,4.9v8.9C227.4,260.2,228.5,261.1,229.9,260.3Z"/><path class="i" d="M256,230.1a2.5,2.5,0,0,1,.7,1.8v8.9a6.2,6.2,0,0,1-2.6,4.9L229.2,260a1.7,1.7,0,0,1-1.2.2c.5.5,1.1.5,1.9.1L254.8,246a6,6,0,0,0,2.5-4.8v-8.9C257.3,231,256.8,230.2,256,230.1Z"/><path class="i" d="M237.4,250.6l2.3-1.3a1.4,1.4,0,0,0,.5-1.1v-2.4c0-.4-.2-.6-.5-.4l-2.3,1.3a1.3,1.3,0,0,0-.6,1v2.5C236.8,250.6,237.1,250.8,237.4,250.6Z"/><path class="l" d="M245,246.2l2.3-1.3a1.5,1.5,0,0,0,.6-1.1v-2.4c0-.4-.3-.6-.6-.4l-2.3,1.3a1.2,1.2,0,0,0-.5,1v2.5C244.5,246.2,244.7,246.4,245,246.2Z"/><path class="k" d="M229.9,195.9l24.9-14.2a6.1,6.1,0,0,0,2.5-4.9v-8.9c0-1.9-1.1-2.7-2.5-1.9l-24.9,14.2a6.2,6.2,0,0,0-2.5,4.9V194C227.4,195.9,228.5,196.7,229.9,195.9Z"/><path class="i" d="M256,165.7a2.6,2.6,0,0,1,.7,1.9v8.9a6.1,6.1,0,0,1-2.6,4.8l-24.9,14.3a2.7,2.7,0,0,1-1.2.3,1.5,1.5,0,0,0,1.9,0l24.9-14.2a6.1,6.1,0,0,0,2.5-4.9v-8.9C257.3,166.6,256.8,165.8,256,165.7Z"/><path class="i" d="M237.4,186.2l2.3-1.3c.3-.1.5-.6.5-1v-2.5c0-.4-.2-.6-.5-.4l-2.3,1.3a1.5,1.5,0,0,0-.6,1.1v2.4C236.8,186.2,237.1,186.4,237.4,186.2Z"/><path class="i" d="M245,181.8l2.3-1.3a1.3,1.3,0,0,0,.6-1V177c0-.4-.3-.6-.6-.4l-2.3,1.3a1.4,1.4,0,0,0-.5,1.1v2.4C244.5,181.8,244.7,182,245,181.8Z"/><path class="d" d="M208.3,154.6l-57.4-33.2a5.5,5.5,0,0,1-2.4-4.4V106c0-1.7,1.1-2.5,2.4-1.7l57.4,33.2a5.5,5.5,0,0,1,2.4,4.4v11C210.7,154.6,209.6,155.4,208.3,154.6Z"/><path class="h" d="M206.7,150.8l-54.2-31.3a3,3,0,0,1-1.2-2.2V109c0-.9.6-1.3,1.2-.9l54.2,31.3a3,3,0,0,1,1.2,2.2v8.3C207.9,150.8,207.3,151.2,206.7,150.8Z"/><path class="m" d="M163.8,121.9l-8.1-4.7a3,3,0,0,1-1.1-2.2h0c0-.8.5-1.2,1.1-.9l8.1,4.7a2.8,2.8,0,0,1,1.1,2.2h0C164.9,121.8,164.4,122.2,163.8,121.9Z"/><path class="n" d="M170.7,124.3c0,.9-.6,1.2-1.3.8a2.9,2.9,0,0,1-1.4-2.3c0-.9.6-1.2,1.4-.8A3,3,0,0,1,170.7,124.3Z"/><path class="n" d="M175.4,127c0,.9-.6,1.2-1.4.8a3.2,3.2,0,0,1-1.3-2.3c0-.9.6-1.2,1.3-.8A2.9,2.9,0,0,1,175.4,127Z"/><path class="m" d="M180,129.7c0,.9-.6,1.2-1.3.8a3.2,3.2,0,0,1-1.3-2.3c0-.9.6-1.2,1.3-.8A3,3,0,0,1,180,129.7Z"/><path class="n" d="M184.7,132.4c0,.8-.6,1.2-1.3.8a3.2,3.2,0,0,1-1.3-2.3c0-.9.6-1.2,1.3-.8A3,3,0,0,1,184.7,132.4Z"/><path class="n" d="M204.4,146.2l-2.7-1.6a1.7,1.7,0,0,1-.8-1.4v-2.9c0-.5.4-.8.8-.5l2.7,1.5a2,2,0,0,1,.7,1.5v2.8C205.1,146.2,204.8,146.4,204.4,146.2Z"/><path class="d" d="M208.3,173.9l-57.4-33.1a5.8,5.8,0,0,1-2.4-4.5V125.4c0-1.8,1.1-2.5,2.4-1.8l57.4,33.2a5.5,5.5,0,0,1,2.4,4.4v11C210.7,173.9,209.6,174.7,208.3,173.9Z"/><path class="h" d="M206.7,170.1l-54.2-31.3a2.9,2.9,0,0,1-1.2-2.2v-8.3c0-.8.6-1.2,1.2-.9l54.2,31.3a3.1,3.1,0,0,1,1.2,2.3v8.2C207.9,170.1,207.3,170.5,206.7,170.1Z"/><path class="m" d="M163.8,141.2l-8.1-4.7a2.6,2.6,0,0,1-1.1-2.2h0c0-.8.5-1.2,1.1-.8l8.1,4.6a3,3,0,0,1,1.1,2.2h0C164.9,141.2,164.4,141.5,163.8,141.2Z"/><path class="m" d="M170.7,143.6c0,.9-.6,1.2-1.3.8a2.9,2.9,0,0,1-1.4-2.3c0-.8.6-1.2,1.4-.8A3.2,3.2,0,0,1,170.7,143.6Z"/><path class="n" d="M175.4,146.3c0,.9-.6,1.2-1.4.8a3,3,0,0,1-1.3-2.3c0-.8.6-1.2,1.3-.8A3,3,0,0,1,175.4,146.3Z"/><path class="m" d="M180,149c0,.9-.6,1.2-1.3.8a3,3,0,0,1-1.3-2.3c0-.8.6-1.2,1.3-.8A3.2,3.2,0,0,1,180,149Z"/><path class="n" d="M184.7,151.7c0,.9-.6,1.2-1.3.8a3,3,0,0,1-1.3-2.3c0-.8.6-1.2,1.3-.8A3.2,3.2,0,0,1,184.7,151.7Z"/><path class="n" d="M204.4,165.5l-2.7-1.6a1.7,1.7,0,0,1-.8-1.4v-2.8c0-.6.4-.8.8-.6l2.7,1.6a1.6,1.6,0,0,1,.7,1.4V165C205.1,165.5,204.8,165.7,204.4,165.5Z"/><path class="d" d="M208.3,193.3l-57.4-33.2a5.7,5.7,0,0,1-2.4-4.5V144.7c0-1.7,1.1-2.5,2.4-1.8l57.4,33.2a5.5,5.5,0,0,1,2.4,4.4v11C210.7,193.2,209.6,194,208.3,193.3Z"/><path class="h" d="M206.7,189.4l-54.2-31.2a3.1,3.1,0,0,1-1.2-2.3v-8.2c0-.9.6-1.3,1.2-.9L206.7,178a3.1,3.1,0,0,1,1.2,2.3v8.2C207.9,189.4,207.3,189.8,206.7,189.4Z"/><path class="m" d="M163.8,160.5l-8.1-4.7a2.6,2.6,0,0,1-1.1-2.2h0c0-.8.5-1.2,1.1-.8l8.1,4.6a3,3,0,0,1,1.1,2.2h0C164.9,160.5,164.4,160.9,163.8,160.5Z"/><path class="m" d="M170.7,163c0,.8-.6,1.1-1.3.7a2.7,2.7,0,0,1-1.4-2.3c0-.8.6-1.2,1.4-.7A2.9,2.9,0,0,1,170.7,163Z"/><path class="n" d="M175.4,165.7c0,.8-.6,1.1-1.4.7a2.9,2.9,0,0,1-1.3-2.3c0-.8.6-1.2,1.3-.7A2.7,2.7,0,0,1,175.4,165.7Z"/><path class="m" d="M180,168.3c0,.9-.6,1.2-1.3.8a2.9,2.9,0,0,1-1.3-2.3c0-.8.6-1.2,1.3-.7A2.9,2.9,0,0,1,180,168.3Z"/><path class="n" d="M184.7,171c0,.9-.6,1.2-1.3.8a2.9,2.9,0,0,1-1.3-2.3c0-.8.6-1.2,1.3-.7A2.9,2.9,0,0,1,184.7,171Z"/><path class="n" d="M204.4,184.8l-2.7-1.5a2,2,0,0,1-.8-1.4V179c0-.6.4-.8.8-.6l2.7,1.6a1.7,1.7,0,0,1,.7,1.4v2.9C205.1,184.8,204.8,185.1,204.4,184.8Z"/><path class="d" d="M208.3,212.6l-57.4-33.2a5.5,5.5,0,0,1-2.4-4.4V164c0-1.7,1.1-2.5,2.4-1.8l57.4,33.2a5.8,5.8,0,0,1,2.4,4.5v10.9C210.7,212.5,209.6,213.3,208.3,212.6Z"/><path class="h" d="M206.7,208.7l-54.2-31.2a3.1,3.1,0,0,1-1.2-2.3V167c0-.9.6-1.3,1.2-.9l54.2,31.3a2.7,2.7,0,0,1,1.2,2.2v8.3C207.9,208.7,207.3,209.1,206.7,208.7Z"/><path class="m" d="M163.8,179.8l-8.1-4.6a3,3,0,0,1-1.1-2.2h0c0-.9.5-1.3,1.1-.9l8.1,4.7a2.6,2.6,0,0,1,1.1,2.2h0C164.9,179.8,164.4,180.2,163.8,179.8Z"/><path class="n" d="M170.7,182.3c0,.8-.6,1.2-1.3.7a2.7,2.7,0,0,1-1.4-2.3c0-.8.6-1.1,1.4-.7A2.9,2.9,0,0,1,170.7,182.3Z"/><path class="n" d="M175.4,185c0,.8-.6,1.2-1.4.7a2.9,2.9,0,0,1-1.3-2.3c0-.8.6-1.1,1.3-.7A2.7,2.7,0,0,1,175.4,185Z"/><path class="m" d="M180,187.7c0,.8-.6,1.2-1.3.7a2.9,2.9,0,0,1-1.3-2.3c0-.8.6-1.1,1.3-.7A2.9,2.9,0,0,1,180,187.7Z"/><path class="n" d="M184.7,190.4c0,.8-.6,1.2-1.3.7a2.9,2.9,0,0,1-1.3-2.3c0-.8.6-1.1,1.3-.7A2.9,2.9,0,0,1,184.7,190.4Z"/><path class="m" d="M204.4,204.2l-2.7-1.6a1.8,1.8,0,0,1-.8-1.4v-2.9c0-.5.4-.8.8-.6l2.7,1.6a1.7,1.7,0,0,1,.7,1.4v2.9C205.1,204.1,204.8,204.4,204.4,204.2Z"/><path class="d" d="M208.3,231.9l-57.4-33.2a5.5,5.5,0,0,1-2.4-4.4v-11c0-1.7,1.1-2.5,2.4-1.7l57.4,33.1a5.8,5.8,0,0,1,2.4,4.5v10.9C210.7,231.9,209.6,232.7,208.3,231.9Z"/><path class="h" d="M206.7,228.1l-54.2-31.3a3.1,3.1,0,0,1-1.2-2.3v-8.2c0-.9.6-1.3,1.2-.9l54.2,31.3a3,3,0,0,1,1.2,2.2v8.3C207.9,228,207.3,228.4,206.7,228.1Z"/><path class="m" d="M163.8,199.1l-8.1-4.6a3,3,0,0,1-1.1-2.2h0c0-.9.5-1.2,1.1-.9l8.1,4.7a2.8,2.8,0,0,1,1.1,2.2h0C164.9,199.1,164.4,199.5,163.8,199.1Z"/><path class="n" d="M170.7,201.6c0,.8-.6,1.2-1.3.8a3,3,0,0,1-1.4-2.3c0-.9.6-1.2,1.4-.8A3,3,0,0,1,170.7,201.6Z"/><path class="m" d="M175.4,204.3c0,.8-.6,1.2-1.4.8a3.2,3.2,0,0,1-1.3-2.3c0-.9.6-1.2,1.3-.8A2.7,2.7,0,0,1,175.4,204.3Z"/><path class="m" d="M180,207c0,.8-.6,1.2-1.3.8a3.2,3.2,0,0,1-1.3-2.3c0-.9.6-1.2,1.3-.8A2.9,2.9,0,0,1,180,207Z"/><path class="m" d="M184.7,209.7c0,.8-.6,1.2-1.3.8a3.2,3.2,0,0,1-1.3-2.3c0-.9.6-1.2,1.3-.8A2.9,2.9,0,0,1,184.7,209.7Z"/><path class="m" d="M204.4,223.5l-2.7-1.6a1.8,1.8,0,0,1-.8-1.4v-2.9c0-.5.4-.8.8-.5l2.7,1.5a1.9,1.9,0,0,1,.7,1.4v2.9C205.1,223.5,204.8,223.7,204.4,223.5Z"/><path class="d" d="M208.3,251.2l-57.4-33.1a5.8,5.8,0,0,1-2.4-4.5v-11c0-1.7,1.1-2.5,2.4-1.7l57.4,33.2a5.5,5.5,0,0,1,2.4,4.4v11C210.7,251.2,209.6,252,208.3,251.2Z"/><path class="h" d="M206.7,247.4l-54.2-31.3a3,3,0,0,1-1.2-2.2v-8.3c0-.8.6-1.2,1.2-.9L206.7,236a3.1,3.1,0,0,1,1.2,2.3v8.2C207.9,247.4,207.3,247.8,206.7,247.4Z"/><path class="m" d="M163.8,218.5l-8.1-4.7a2.8,2.8,0,0,1-1.1-2.2h0c0-.8.5-1.2,1.1-.9l8.1,4.7a3,3,0,0,1,1.1,2.2h0C164.9,218.4,164.4,218.8,163.8,218.5Z"/><path class="n" d="M170.7,220.9c0,.9-.6,1.2-1.3.8a2.9,2.9,0,0,1-1.4-2.3c0-.9.6-1.2,1.4-.8A3,3,0,0,1,170.7,220.9Z"/><path class="n" d="M175.4,223.6c0,.9-.6,1.2-1.4.8a3,3,0,0,1-1.3-2.3c0-.9.6-1.2,1.3-.8A2.9,2.9,0,0,1,175.4,223.6Z"/><path class="m" d="M180,226.3c0,.9-.6,1.2-1.3.8a3,3,0,0,1-1.3-2.3c0-.9.6-1.2,1.3-.8A3,3,0,0,1,180,226.3Z"/><path class="n" d="M184.7,229c0,.9-.6,1.2-1.3.8a3,3,0,0,1-1.3-2.3c0-.9.6-1.2,1.3-.8A3,3,0,0,1,184.7,229Z"/><path class="n" d="M204.4,242.8l-2.7-1.6a1.7,1.7,0,0,1-.8-1.4v-2.9a.5.5,0,0,1,.8-.5l2.7,1.6a1.6,1.6,0,0,1,.7,1.4v2.8C205.1,242.8,204.8,243,204.4,242.8Z"/><path class="d" d="M208.3,270.6l-57.4-33.2a5.8,5.8,0,0,1-2.4-4.5V222c0-1.7,1.1-2.5,2.4-1.8l57.4,33.2a5.5,5.5,0,0,1,2.4,4.4v11C210.7,270.5,209.6,271.3,208.3,270.6Z"/><path class="h" d="M206.7,266.7l-54.2-31.3a2.7,2.7,0,0,1-1.2-2.2v-8.3c0-.8.6-1.2,1.2-.8l54.2,31.2a3.1,3.1,0,0,1,1.2,2.3v8.2C207.9,266.7,207.3,267.1,206.7,266.7Z"/><path class="m" d="M163.8,237.8l-8.1-4.7a2.6,2.6,0,0,1-1.1-2.2h0c0-.8.5-1.2,1.1-.8l8.1,4.6a3,3,0,0,1,1.1,2.2h0C164.9,237.8,164.4,238.2,163.8,237.8Z"/><path class="m" d="M170.7,240.2c0,.9-.6,1.2-1.3.8a2.7,2.7,0,0,1-1.4-2.3c0-.8.6-1.2,1.4-.8A3.2,3.2,0,0,1,170.7,240.2Z"/><path class="n" d="M175.4,242.9c0,.9-.6,1.2-1.4.8a2.9,2.9,0,0,1-1.3-2.3c0-.8.6-1.2,1.3-.8A3,3,0,0,1,175.4,242.9Z"/><path class="m" d="M180,245.6c0,.9-.6,1.2-1.3.8a2.9,2.9,0,0,1-1.3-2.3c0-.8.6-1.2,1.3-.8A3.2,3.2,0,0,1,180,245.6Z"/><path class="n" d="M184.7,248.3c0,.9-.6,1.2-1.3.8a3,3,0,0,1-1.3-2.3c0-.8.6-1.2,1.3-.8A3.2,3.2,0,0,1,184.7,248.3Z"/><path class="m" d="M204.4,262.1l-2.7-1.5a2,2,0,0,1-.8-1.5v-2.8c0-.6.4-.8.8-.6l2.7,1.6a1.6,1.6,0,0,1,.7,1.4v2.9C205.1,262.1,204.8,262.4,204.4,262.1Z"/><polygon class="i" points="239.1 248 238 248 238 183.3 245.6 178.9 245.6 147 246.8 147 246.8 179.6 239.1 184 239.1 248"/><path class="c" d="M55.5,262a3.6,3.6,0,0,1-2-.6L32.4,249.5a1.9,1.9,0,0,1-1-1.8,1.8,1.8,0,0,1,1-1.7L85,215.5a10.1,10.1,0,0,1,9.8,0L155,250.3l-.9,1.5L93.9,217a8.1,8.1,0,0,0-8,0L33.2,247.5v.2a.4.4,0,0,0,.1.3l21.1,11.9a2.3,2.3,0,0,0,2.4,0l8.9-5.8.9,1.5-8.9,5.7A3.5,3.5,0,0,1,55.5,262Z"/><path class="c" d="M82.9,266.6,54.6,250.2c-1.8-1-1.6-2.8.4-3.9l27.5-15.8a7.3,7.3,0,0,1,6.7-.3l28.4,16.4c1.8,1,1.5,2.7-.5,3.9L89.7,266.3A7.5,7.5,0,0,1,82.9,266.6Z"/><path class="d" d="M127,234.1h0V221.8H99.5L90,216.3c-2.1-1.2-6-1.1-8.5.4l-8.8,5.1H45.1v12.6a2.8,2.8,0,0,0,1.5,2.3l35.5,20.5a9.7,9.7,0,0,0,8.6-.4L125,237C126.4,236.2,127.1,235.1,127,234.1Z"/><path class="d" d="M86.1,215.5a9,9,0,0,0-4.6,1.2l-8.8,5.1H45.1v12.6a2.8,2.8,0,0,0,1.5,2.3l35.5,20.5a7.4,7.4,0,0,0,4,.8Z"/><path class="f" d="M48.3,221.8H45.1v12.6a2.8,2.8,0,0,0,1.5,2.3l1.7.9Z"/><path class="f" d="M82.7,257.5a10,10,0,0,0,6.8-.1V243.1H82.7Z"/><path class="g" d="M82.1,244.6,46.6,224.1c-2.2-1.3-1.9-3.5.6-4.9l34.3-19.8c2.5-1.5,6.4-1.6,8.5-.4l35.6,20.5c2.2,1.3,1.9,3.5-.6,5L90.7,244.3C88.1,245.7,84.3,245.9,82.1,244.6Z"/><path class="f" d="M82.8,240.9,53,223.7c-1.8-1-1.6-2.9.5-4.1L82.3,203a8.1,8.1,0,0,1,7.1-.3l29.8,17.2c1.8,1.1,1.6,2.9-.5,4.1L89.9,240.6C87.8,241.8,84.6,242,82.8,240.9Z"/><path class="n" d="M114,237.3a3.3,3.3,0,0,1-1.5,2.5c-.8.5-1.4.1-1.4-.8a3.1,3.1,0,0,1,1.4-2.5C113.3,236,114,236.4,114,237.3Z"/><path class="n" d="M118.6,234.7a3,3,0,0,1-1.5,2.4c-.7.5-1.4.1-1.4-.8a3.5,3.5,0,0,1,1.4-2.5C117.9,233.4,118.6,233.7,118.6,234.7Z"/><path class="g" d="M123.2,232a3.2,3.2,0,0,1-1.4,2.5c-.8.4-1.5.1-1.5-.9a3,3,0,0,1,1.5-2.4C122.6,230.7,123.2,231.1,123.2,232Z"/><path class="d" d="M127,214.5h0V202.2H99.5L90,196.7c-2.1-1.2-6-1.1-8.5.4l-8.8,5.1H45.1v12.6a2.8,2.8,0,0,0,1.5,2.3l35.5,20.5a9.7,9.7,0,0,0,8.6-.4L125,217.4C126.4,216.6,127.1,215.5,127,214.5Z"/><path class="d" d="M86.1,195.9a9,9,0,0,0-4.6,1.2l-8.8,5.1H45.1v12.6a2.8,2.8,0,0,0,1.5,2.3l35.5,20.5a7.4,7.4,0,0,0,4,.8Z"/><path class="f" d="M48.3,202.2H45.1v12.6a2.8,2.8,0,0,0,1.5,2.3l1.7.9Z"/><path class="f" d="M82.7,237.9a10,10,0,0,0,6.8-.1V223.5H82.7Z"/><path class="g" d="M82.1,225,46.6,204.5c-2.2-1.3-1.9-3.5.6-4.9l34.3-19.8c2.5-1.5,6.4-1.6,8.5-.4l35.6,20.5c2.2,1.3,1.9,3.5-.6,5L90.7,224.7C88.1,226.1,84.3,226.3,82.1,225Z"/><path class="f" d="M82.8,221.3,53,204.1c-1.8-1-1.6-2.9.5-4.1l28.8-16.6a8.1,8.1,0,0,1,7.1-.3l29.8,17.2c1.8,1.1,1.6,2.9-.5,4.1L89.9,221A7.5,7.5,0,0,1,82.8,221.3Z"/><path class="g" d="M114,217.7a3.2,3.2,0,0,1-1.5,2.5c-.8.5-1.4.1-1.4-.8a3.2,3.2,0,0,1,1.4-2.5C113.3,216.4,114,216.8,114,217.7Z"/><path class="m" d="M118.6,215.1a3,3,0,0,1-1.5,2.4c-.7.5-1.4.1-1.4-.8a3.5,3.5,0,0,1,1.4-2.5C117.9,213.8,118.6,214.1,118.6,215.1Z"/><path class="n" d="M123.2,212.4a3.2,3.2,0,0,1-1.4,2.5c-.8.4-1.5.1-1.5-.9a3,3,0,0,1,1.5-2.4C122.6,211.1,123.2,211.5,123.2,212.4Z"/><path class="d" d="M127,194.9h0V182.6H99.5L90,177.1c-2.1-1.2-6-1.1-8.5.4l-8.8,5.1H45.1v12.6a2.8,2.8,0,0,0,1.5,2.3L82.1,218c2.2,1.3,6,1.1,8.6-.4L125,197.8C126.4,197,127.1,195.9,127,194.9Z"/><path class="d" d="M86.1,176.3a9,9,0,0,0-4.6,1.2l-8.8,5.1H45.1v12.6a2.8,2.8,0,0,0,1.5,2.3L82.1,218a7.4,7.4,0,0,0,4,.8Z"/><path class="f" d="M48.3,182.6H45.1v12.6a2.8,2.8,0,0,0,1.5,2.3l1.7.9Z"/><path class="f" d="M82.7,218.3a10,10,0,0,0,6.8-.1V203.9H82.7Z"/><path class="h" d="M82.1,205.4,46.6,184.9c-2.2-1.2-1.9-3.4.6-4.9l34.3-19.8c2.5-1.5,6.4-1.6,8.5-.4l35.6,20.6c2.2,1.2,1.9,3.4-.6,4.9L90.7,205.1C88.1,206.5,84.3,206.7,82.1,205.4Z"/><path class="i" d="M125,182.9,90.7,202.7c-2.6,1.4-6.4,1.6-8.6.3L46.6,182.5a3.6,3.6,0,0,1-1.1-1c-.7,1.2-.4,2.5,1.1,3.4l35.5,20.5c2.2,1.3,6,1.1,8.6-.3L125,185.3c1.9-1.2,2.5-2.7,1.7-4A5.3,5.3,0,0,1,125,182.9Z"/><path class="m" d="M114,198.1a3.2,3.2,0,0,1-1.5,2.5c-.8.5-1.4.1-1.4-.8a3.2,3.2,0,0,1,1.4-2.5C113.3,196.8,114,197.2,114,198.1Z"/><path class="g" d="M118.6,195.5a3,3,0,0,1-1.5,2.4c-.7.5-1.4.1-1.4-.8a3.5,3.5,0,0,1,1.4-2.5C117.9,194.2,118.6,194.5,118.6,195.5Z"/><path class="g" d="M123.2,192.8a3.2,3.2,0,0,1-1.4,2.5c-.8.4-1.5.1-1.5-.8a3,3,0,0,1,1.5-2.5C122.6,191.5,123.2,191.9,123.2,192.8Z"/><path class="f" d="M84.2,192.7l-16.6-9.6c-1-.6-.9-1.6.3-2.3L84,171.5a4.5,4.5,0,0,1,3.9-.1l16.7,9.6c1,.6.9,1.6-.3,2.3l-16.1,9.2A4.4,4.4,0,0,1,84.2,192.7Z"/><path class="g" d="M85.8,184.7l-2.3-1.4c-.1,0-.1-.2.1-.3l2.2-1.3h.5l2.3,1.3a.2.2,0,0,1,0,.4l-2.2,1.2A.7.7,0,0,1,85.8,184.7Z"/><path class="d" d="M67.6,183.1h.3L84,173.7a4.2,4.2,0,0,1,3.9-.2l16.6,9.6c1-.7,1-1.6.1-2.1l-16.7-9.6a4.5,4.5,0,0,0-3.9.1l-16.1,9.3C66.7,181.5,66.6,182.5,67.6,183.1Z"/><path class="m" d="M79.9,209a.6.6,0,0,1-1,.6,2.3,2.3,0,0,1-1-1.7.6.6,0,0,1,1-.6A2.3,2.3,0,0,1,79.9,209Z"/><path class="n" d="M76.9,207.3a.6.6,0,0,1-1,.6,2.5,2.5,0,0,1-1-1.7.6.6,0,0,1,1-.6A2.3,2.3,0,0,1,76.9,207.3Z"/><path class="n" d="M79.9,212.6a.6.6,0,0,1-1,.6,2.3,2.3,0,0,1-1-1.7c0-.6.5-.9,1-.5A2.1,2.1,0,0,1,79.9,212.6Z"/><path class="n" d="M76.9,210.9a.6.6,0,0,1-1,.6,2.3,2.3,0,0,1-1-1.7.6.6,0,0,1,1-.6A2.3,2.3,0,0,1,76.9,210.9Z"/><path class="g" d="M79.9,228.5a.6.6,0,0,1-1,.6,2.3,2.3,0,0,1-1-1.7.6.6,0,0,1,1-.6A2.3,2.3,0,0,1,79.9,228.5Z"/><path class="g" d="M76.9,226.8c0,.6-.5.9-1,.5a2.1,2.1,0,0,1-1-1.6.6.6,0,0,1,1-.6A2.3,2.3,0,0,1,76.9,226.8Z"/><path class="n" d="M79.9,232.1a.6.6,0,0,1-1,.6,2.3,2.3,0,0,1-1-1.7c0-.6.5-.9,1-.5A2.1,2.1,0,0,1,79.9,232.1Z"/><path class="m" d="M76.9,230.4a.6.6,0,0,1-1,.6,2.3,2.3,0,0,1-1-1.7.6.6,0,0,1,1-.6A2.3,2.3,0,0,1,76.9,230.4Z"/><path class="g" d="M79.9,248a.6.6,0,0,1-1,.6,2.3,2.3,0,0,1-1-1.7.6.6,0,0,1,1-.6A2.3,2.3,0,0,1,79.9,248Z"/><path class="n" d="M76.9,246.3c0,.6-.5.9-1,.5a2.1,2.1,0,0,1-1-1.6.6.6,0,0,1,1-.6A2.3,2.3,0,0,1,76.9,246.3Z"/><path class="m" d="M79.9,251.6a.6.6,0,0,1-1,.6,2.3,2.3,0,0,1-1-1.7.6.6,0,0,1,1-.6A2.5,2.5,0,0,1,79.9,251.6Z"/><path class="g" d="M76.9,249.9a.6.6,0,0,1-1,.6,2.3,2.3,0,0,1-1-1.7.6.6,0,0,1,1-.6A2.3,2.3,0,0,1,76.9,249.9Z"/><path class="c" d="M86.6,281.2a6.1,6.1,0,0,1-3-.8L65.7,270a1.9,1.9,0,0,1,0-3.4l11.8-6.8.9,1.5-11.8,6.8c-.1.1-.1.1-.1.2v.2l17.9,10.4a4.3,4.3,0,0,0,4.1,0l35.1-20a6,6,0,0,1,5.8,0l29.4,17a4.3,4.3,0,0,0,4.1,0l14.2-8.2.9,1.5-14.2,8.2a5.7,5.7,0,0,1-5.9,0l-29.4-17a4.3,4.3,0,0,0-4.1,0l-35,20A6,6,0,0,1,86.6,281.2Z"/><path class="c" d="M242.1,347.3l-28.4-16.4c-1.7-1-1.5-2.8.5-3.9l27.4-15.8a7.5,7.5,0,0,1,6.8-.3l28.4,16.4c1.7,1,1.5,2.7-.5,3.9L248.9,347A7.5,7.5,0,0,1,242.1,347.3Z"/><path class="d" d="M286.2,314.6h0V302.3H258.7l-9.5-5.5c-2.2-1.3-6-1.1-8.5.4l-8.9,5.1H204.3v12.6a2.7,2.7,0,0,0,1.5,2.3l35.5,20.5a9.5,9.5,0,0,0,8.5-.4l34.3-19.8C285.6,316.7,286.3,315.6,286.2,314.6Z"/><path class="d" d="M245.3,296.2a9,9,0,0,0-4.6,1.2l-8.9,5.1H204.3v12.6a2.6,2.6,0,0,0,1.5,2.3l35.5,20.5a7.4,7.4,0,0,0,4,.8Z"/><path class="f" d="M207.4,302.5h-3.1v12.6a2.6,2.6,0,0,0,1.5,2.3l1.6.9Z"/><path class="f" d="M241.9,338.1a9.4,9.4,0,0,0,6.8,0V323.8h-6.8Z"/><path class="g" d="M241.3,325.3l-35.5-20.5c-2.2-1.3-1.9-3.5.6-4.9l34.3-19.8a9.5,9.5,0,0,1,8.5-.4l35.6,20.5c2.1,1.3,1.9,3.5-.7,5L249.8,325C247.3,326.4,243.5,326.6,241.3,325.3Z"/><path class="f" d="M242,321.6l-29.8-17.2c-1.9-1-1.6-2.9.5-4.1l28.7-16.6a8.3,8.3,0,0,1,7.2-.3l29.8,17.2c1.8,1.1,1.6,2.9-.6,4.1l-28.7,16.6C247,322.5,243.8,322.7,242,321.6Z"/><path class="m" d="M273.1,318a3.2,3.2,0,0,1-1.4,2.5c-.8.5-1.4.1-1.4-.8a3.1,3.1,0,0,1,1.4-2.5C272.5,316.7,273.1,317.1,273.1,318Z"/><path class="n" d="M277.8,315.3a3,3,0,0,1-1.5,2.5c-.8.5-1.4.1-1.4-.8a3.2,3.2,0,0,1,1.4-2.5C277.1,314.1,277.8,314.4,277.8,315.3Z"/><path class="n" d="M282.4,312.7a3.3,3.3,0,0,1-1.5,2.5c-.8.4-1.4.1-1.4-.9a2.9,2.9,0,0,1,1.4-2.4C281.7,311.4,282.4,311.8,282.4,312.7Z"/><path class="d" d="M286.2,295h0V282.7H258.7l-9.5-5.5a9.5,9.5,0,0,0-8.5.4l-8.9,5.1H204.3v12.6a2.6,2.6,0,0,0,1.5,2.3l35.5,20.5a9.5,9.5,0,0,0,8.5-.4l34.3-19.8C285.6,297.1,286.3,296,286.2,295Z"/><path class="d" d="M245.3,276.6a9,9,0,0,0-4.6,1.2l-8.9,5.1H204.3v12.6a2.6,2.6,0,0,0,1.5,2.3l35.5,20.5a7.4,7.4,0,0,0,4,.8Z"/><path class="f" d="M207.4,282.9h-3.1v12.6a2.6,2.6,0,0,0,1.5,2.3l1.6.9Z"/><path class="f" d="M241.9,318.6a10,10,0,0,0,6.8-.1V304.2h-6.8Z"/><path class="g" d="M241.3,305.7l-35.5-20.5c-2.2-1.3-1.9-3.5.6-4.9l34.3-19.8a9.5,9.5,0,0,1,8.5-.4l35.6,20.5c2.1,1.3,1.9,3.5-.7,5l-34.3,19.8C247.3,306.8,243.5,307,241.3,305.7Z"/><path class="f" d="M242,302l-29.8-17.2c-1.9-1-1.6-2.9.5-4.1l28.7-16.6a8.3,8.3,0,0,1,7.2-.3L278.4,281c1.8,1.1,1.6,2.9-.6,4.1l-28.7,16.6A7.5,7.5,0,0,1,242,302Z"/><path class="m" d="M273.1,298.4a3.2,3.2,0,0,1-1.4,2.5c-.8.5-1.4.1-1.4-.8a3.2,3.2,0,0,1,1.4-2.5C272.5,297.1,273.1,297.5,273.1,298.4Z"/><path class="n" d="M277.8,295.8a3,3,0,0,1-1.5,2.4c-.8.5-1.4.1-1.4-.8a3.2,3.2,0,0,1,1.4-2.5C277.1,294.5,277.8,294.8,277.8,295.8Z"/><path class="m" d="M282.4,293.1a3.3,3.3,0,0,1-1.5,2.5c-.8.4-1.4.1-1.4-.9a2.9,2.9,0,0,1,1.4-2.4C281.7,291.8,282.4,292.2,282.4,293.1Z"/><path class="d" d="M286.2,275.4h0V263.1H258.7l-9.5-5.5a9.5,9.5,0,0,0-8.5.4l-8.9,5.1H204.3v12.6a2.6,2.6,0,0,0,1.5,2.3l35.5,20.5a9.5,9.5,0,0,0,8.5-.4l34.3-19.8C285.6,277.5,286.3,276.4,286.2,275.4Z"/><path class="d" d="M245.3,257a9,9,0,0,0-4.6,1.2l-8.9,5.1H204.3v12.6a2.6,2.6,0,0,0,1.5,2.3l35.5,20.5a7.4,7.4,0,0,0,4,.8Z"/><path class="f" d="M207.4,263.3h-3.1v12.6a2.6,2.6,0,0,0,1.5,2.3l1.6.9Z"/><path class="f" d="M241.9,299a10,10,0,0,0,6.8-.1V284.6h-6.8Z"/><path class="h" d="M241.3,286.1l-35.5-20.5c-2.2-1.3-1.9-3.4.6-4.9l34.3-19.8a9.5,9.5,0,0,1,8.5-.4L284.8,261c2.1,1.3,1.9,3.5-.7,5l-34.3,19.8C247.3,287.2,243.5,287.4,241.3,286.1Z"/><path class="i" d="M284.1,263.5l-34.3,19.9c-2.5,1.4-6.3,1.6-8.5.3l-35.5-20.5a2.7,2.7,0,0,1-1.1-1c-.8,1.2-.4,2.5,1.1,3.4l35.5,20.5c2.2,1.3,6,1.1,8.5-.3L284.1,266c2-1.2,2.6-2.7,1.7-4A3.6,3.6,0,0,1,284.1,263.5Z"/><path class="n" d="M273.1,278.8a3.1,3.1,0,0,1-1.4,2.5c-.8.5-1.4.1-1.4-.8a3.2,3.2,0,0,1,1.4-2.5C272.5,277.5,273.1,277.9,273.1,278.8Z"/><path class="g" d="M277.8,276.2a3,3,0,0,1-1.5,2.4c-.8.5-1.4.1-1.4-.8a3.2,3.2,0,0,1,1.4-2.5C277.1,274.9,277.8,275.2,277.8,276.2Z"/><path class="m" d="M282.4,273.5a3.3,3.3,0,0,1-1.5,2.5c-.8.4-1.4.1-1.4-.8a2.9,2.9,0,0,1,1.4-2.5C281.7,272.2,282.4,272.6,282.4,273.5Z"/><path class="f" d="M243.4,273.4l-16.6-9.6c-1-.6-.9-1.6.3-2.3l16-9.3a4.7,4.7,0,0,1,4-.1l16.6,9.6c1.1.6.9,1.6-.2,2.3l-16.1,9.2A4.4,4.4,0,0,1,243.4,273.4Z"/><path class="g" d="M245,265.4l-2.3-1.4c-.1,0-.1-.2,0-.3l2.3-1.3h.5l2.3,1.3c.2.1.1.3,0,.4l-2.2,1.2Z"/><path class="d" d="M226.8,263.8h.3l16-9.3a4.4,4.4,0,0,1,4-.2l16.6,9.6c.9-.7,1-1.6,0-2.1l-16.6-9.6a4.7,4.7,0,0,0-4,.1l-16,9.3C225.9,262.2,225.8,263.2,226.8,263.8Z"/></svg>