<svg xmlns="http://www.w3.org/2000/svg" xmlns:xlink="http://www.w3.org/1999/xlink" viewBox="0 0 400 400"><defs><style>.a,.b{isolation:isolate;}.b{opacity:0.58;fill:url(#a);}.c{font-size:38.64px;font-family:AdobeArabic-Regular, Adobe Arabic;}.c,.e{fill:#fff;}.d{fill:#c8cbda;}.f{fill:#88b9d3;}.g{fill:#98cdf2;}.h{fill:#793b36;}.i{fill:#0e71bb;}.j{fill:#382632;}.k{fill:#f59b6b;}.l{fill:#d6684b;}.m{fill:#f0d2b9;}.n{fill:#1f364c;}.o{fill:#152735;}.p{fill:#0a5487;opacity:0.15;}.ag,.p{mix-blend-mode:multiply;}.q{fill:#ffe7cb;}.r{fill:#ddb99e;}.s{fill:#288ed9;}.t,.u{opacity:0.78;mix-blend-mode:overlay;}.t{fill:url(#b);}.u{fill:url(#c);}.v{fill:#f18a71;}.w{fill:#d9dde6;}.x{fill:#939cbb;}.y{fill:#737fa0;}.z{fill:#da6249;}.aa{fill:#514450;}.ab{fill:url(#d);}.ac{fill:#1b1b35;}.ad{fill:url(#e);}.ae{fill:url(#f);}.af,.ag{fill:#d3c2be;opacity:0.5;}.af{mix-blend-mode:screen;}.ah{fill:url(#g);}.ai{fill:url(#h);}.aj{fill:#21e2e2;}.ak{fill:#28aae1;}</style><linearGradient id="a" x1="220.56" y1="362.93" x2="170.63" y2="79.78" gradientUnits="userSpaceOnUse"><stop offset="0" stop-color="#c6e6ff"/><stop offset="1" stop-color="#fff"/></linearGradient><linearGradient id="b" x1="323.97" y1="195.39" x2="329.13" y2="195.39" gradientUnits="userSpaceOnUse"><stop offset="0"/><stop offset="1" stop-opacity="0"/></linearGradient><linearGradient id="c" x1="271.89" y1="198.62" x2="278.82" y2="198.62" xlink:href="#b"/><linearGradient id="d" x1="11" y1="226.45" x2="57.78" y2="226.45" gradientUnits="userSpaceOnUse"><stop offset="0" stop-color="#ffbc98"/><stop offset="1" stop-color="#ff9f6c"/></linearGradient><linearGradient id="e" x1="52.88" y1="235.63" x2="92.33" y2="235.63" gradientUnits="userSpaceOnUse"><stop offset="0" stop-color="#44989f"/><stop offset="0.21" stop-color="#39b0b4"/><stop offset="0.52" stop-color="#2ccbcd"/><stop offset="0.8" stop-color="#24dcdd"/><stop offset="1" stop-color="#21e2e2"/></linearGradient><linearGradient id="f" x1="33.21" y1="308.06" x2="76" y2="308.06" xlink:href="#d"/><linearGradient id="g" x1="41.43" y1="339.55" x2="67.78" y2="339.55" xlink:href="#d"/><linearGradient id="h" x1="31.3" y1="281.21" x2="77.91" y2="281.21" xlink:href="#d"/></defs><title>usage dedicated server</title><g class="a"><path class="b" d="M353.5,339.1a22.6,22.6,0,0,0,20-11.6c22.3-41,14.6-101.3-15.5-117.5-37.7-20.2,15.6-79.3-34.4-109.3s-90.4,38.3-158.2,1S45.1,121,53,161.7c5.5,28.3,19.9,53-17.7,89.3-25.9,25-4.5,60.2,11.4,79.8a22.9,22.9,0,0,0,17.8,8.3Z"/><text class="c" transform="translate(122.2 -46.2)"> یصاصتخا روس دربراک*</text><rect class="d" x="180.1" y="130.5" width="109.3" height="75.35"/><rect class="e" x="185.2" y="135.6" width="99.1" height="65.16"/><path class="f" d="M80.7,175.6l6.8,46.2a.7.7,0,0,1-.7.8H83.5a.6.6,0,0,1-.6-.6L76,175.8c-.1-.4.3-.7.7-.7H80A.8.8,0,0,1,80.7,175.6Z"/><path class="g" d="M120.2,142.2a6.7,6.7,0,0,1-5-1.8l-2.9-2.9a.9.9,0,0,0-1.3.1l-5.2,5.2a.9.9,0,0,0-.1,1.3l2.9,2.9a6.3,6.3,0,0,1,1.9,5c-.3,4.9,1.9,10.8,6.5,15.7a1.3,1.3,0,0,0,1.8-.1l17.1-17.4a1.2,1.2,0,0,0,.1-1.7C131.1,144,125.1,141.8,120.2,142.2Z"/><path class="f" d="M110.4,147.5,79.6,180.8a1.3,1.3,0,0,1-2,0l-1.3-1.6a1.2,1.2,0,0,1,.1-1.7l30.8-33.3c.3-.3,1.5.1,2.3,1.1S110.6,147.3,110.4,147.5Z"/><path class="h" d="M82.9,222a.6.6,0,0,0,.6.6h3.3a.7.7,0,0,0,.7-.8l-1.1-7.2H81.8Z"/><path class="h" d="M109.8,223.6H79.1a2,2,0,0,1,1.9-1.9h26.9a2,2,0,0,1,1.9,1.9Z"/><path class="i" d="M79.9,178.1a1.1,1.1,0,1,1-1.1-1.1A1.1,1.1,0,0,1,79.9,178.1Z"/><rect class="g" x="163.1" y="212.6" width="7.2" height="113.11" transform="translate(333.5 538.4) rotate(180)"/><path class="g" d="M159.6,293.4h14.2a0,0,0,0,1,0,0v20.9a1.6,1.6,0,0,1-1.6,1.6H161.2a1.6,1.6,0,0,1-1.6-1.6V293.4A0,0,0,0,1,159.6,293.4Z" transform="translate(333.5 609.2) rotate(180)"/><polygon class="g" points="166.7 315.8 166.7 323.6 207.4 329.4 207.4 325.7 173.9 315.8 166.7 315.8"/><path class="g" d="M203,333.5a3.9,3.9,0,0,0,7.7,0,3.9,3.9,0,1,0-7.7,0Z"/><polygon class="g" points="206.3 331.6 207.4 331.6 207.4 325.7 206.3 325.4 206.3 331.6"/><polygon class="g" points="166.7 315.8 166.7 323.6 126.1 329.4 126.1 325.7 159.6 315.8 166.7 315.8"/><path class="g" d="M130.5,333.5a3.9,3.9,0,1,1-3.9-3.9A3.8,3.8,0,0,1,130.5,333.5Z"/><path class="g" d="M170.6,333.5a3.9,3.9,0,1,1-3.9-3.9A3.8,3.8,0,0,1,170.6,333.5Z"/><polygon class="g" points="127.2 331.6 126 331.6 126 325.7 127.2 325.4 127.2 331.6"/><rect class="j" x="166.2" y="325.7" width="1.2" height="5.82"/><rect class="g" x="133.1" y="190.7" width="67.2" height="45.93" rx="9" transform="translate(333.5 427.4) rotate(180)"/><rect class="g" x="134.7" y="190.7" width="64.1" height="43.8" rx="8.5" transform="translate(333.5 425.3) rotate(180)"/><path class="g" d="M166.7,269.7c28.7,0,37.2-3.1,38.5-7.2,1.3,5.2-4.2,9.6-38.5,9.6s-39.7-4.4-38.4-9.6C129.5,266.6,138.1,269.7,166.7,269.7Z"/><path class="g" d="M129.9,256.6c-3.9,6.6-4.7,13.1,36.8,13.1s40.8-6.5,36.9-13.1-7.5-9.3-36.9-9.3S133.1,251.1,129.9,256.6Z"/><path class="k" d="M190.1,177.1c6.2,2.5,16.3,42.6,12.1,47.4H191.9s.8-11.9-3.8-27.7C184,183.1,190.1,177.1,190.1,177.1Z"/><path class="l" d="M188.1,196.8c-3.2-10.7.5-17.6,2-19.7l.6.4.9.8c-1.6,4.6-2.4,12.5-.7,20.4s2.4,14.8,4.3,15.2,7.4,1.9,7.4,7.9H191.9A90.7,90.7,0,0,0,188.1,196.8Z"/><path class="k" d="M175.1,174s14.4,1.8,15,3.1-.2,3.6-1.2,12.3,2.5,12-.2,18.4-7.3,7.6-3.6,16.7c.6,3.9,11.7,29.1,11.7,29.1H139.6s-3.1-15.2,3.5-25.1c5.3-7.9,5.1-5.2,2.1-18.5-3-10.1-6.3-29.8-2.8-32.4S157.2,172.4,175.1,174Z"/><path class="m" d="M176,170v4s-.5,4.7-6.7,6c0,0-4.5.5-7-5V164.2Z"/><path class="k" d="M132,224.5c-3.3-14,6.9-44.9,10.4-46.9,1.8-1,5.9,9.2,3.3,17.7s-4.8,21.1-4.8,21.1Z"/><path class="l" d="M139.9,208.3c1.5-7.9,6.6-19.2,6-24.6h0a22.9,22.9,0,0,1-.2,11.6c-2.6,8.7-4.8,21.1-4.8,21.1l-8.6,4.9C133.8,216.6,138,217.6,139.9,208.3Z"/><path class="k" d="M132,224.5h27.8v-4.4s-1.2-4.3-3.5-3.2c-5.7,2.6-8.4,2-12.8.2C136.4,214.3,131.2,219.8,132,224.5Z"/><path class="k" d="M202.2,224.5H175.9s-1-5.9,2.3-6.7,5.6.6,6.9.6,5.8-2.9,10.5-3,8.4,5,6.6,9.1"/><rect class="g" x="291.1" y="212.6" width="7.2" height="113.11" transform="translate(589.4 538.4) rotate(180)"/><path class="g" d="M287.6,293.4h14.2a0,0,0,0,1,0,0v20.9a1.6,1.6,0,0,1-1.6,1.6H289.2a1.6,1.6,0,0,1-1.6-1.6V293.4A0,0,0,0,1,287.6,293.4Z" transform="translate(589.4 609.2) rotate(180)"/><polygon class="g" points="294.7 315.8 294.7 323.6 335.4 329.4 335.4 325.7 301.8 315.8 294.7 315.8"/><path class="g" d="M331,333.5a3.9,3.9,0,0,0,7.7,0,3.9,3.9,0,1,0-7.7,0Z"/><polygon class="g" points="334.3 331.6 335.4 331.6 335.4 325.7 334.3 325.4 334.3 331.6"/><polygon class="g" points="294.7 315.8 294.7 323.6 254 329.4 254 325.7 287.6 315.8 294.7 315.8"/><path class="g" d="M258.5,333.5a3.8,3.8,0,0,1-3.9,3.8,3.9,3.9,0,1,1,0-7.7A3.8,3.8,0,0,1,258.5,333.5Z"/><path class="g" d="M298.6,333.5a3.9,3.9,0,1,1-3.9-3.9A3.8,3.8,0,0,1,298.6,333.5Z"/><polygon class="g" points="255.2 331.6 254 331.6 254 325.7 255.2 325.4 255.2 331.6"/><rect class="j" x="294.1" y="325.7" width="1.2" height="5.82"/><rect class="g" x="261.1" y="190.7" width="67.2" height="45.93" rx="9" transform="translate(589.4 427.4) rotate(180)"/><rect class="g" x="262.7" y="190.7" width="64.1" height="43.8" rx="8.5" transform="translate(589.4 425.3) rotate(180)"/><path class="g" d="M294.7,269.7c28.7,0,37.2-3.1,38.5-7.2,1.3,5.2-4.3,9.6-38.5,9.6s-39.7-4.4-38.4-9.6C257.5,266.6,266,269.7,294.7,269.7Z"/><path class="g" d="M257.8,256.6c-3.9,6.6-4.6,13.1,36.9,13.1s40.8-6.5,36.9-13.1-7.6-9.3-36.9-9.3S261,251.1,257.8,256.6Z"/><ellipse class="n" cx="295.2" cy="247.5" rx="16.1" ry="12.1"/><path class="o" d="M267.4,287.2c-2.2-11.9-1.7-18.1,1.3-20.9,5.6-5.3,25.4-16,34.2-21s22.2,3.5,22.2,3.5c2.1,8,1.2,16.2-12,20.1s-30.9,5.4-30.4,10.1,1.1,13.4-1.7,27.9c-.6,2.6-1.3,13.9-1.6,15.7h-9.8C269.3,314.4,268.7,294.4,267.4,287.2Z"/><path class="p" d="M267.9,290.7c-.1-1.2-.3-2.4-.5-3.5-2.2-11.9-1.7-18.1,1.3-20.9,4.6-4.4,19.1-12.6,28.9-18-2.4,8.1-3.2,20.1-3.4,25-6.7,1.5-11.8,3.1-11.5,5.7.4,4.8,1.1,13.4-1.7,27.9a12.9,12.9,0,0,0-.4,1.9C278.6,307.6,272.3,300.1,267.9,290.7Z"/><path class="q" d="M279.2,322.5h-9.4a10.6,10.6,0,0,1-.3,1.8,11.4,11.4,0,0,1-3.1,4.1c5.4.1,10.2,3.6,9.2,7.9h2.8a14.8,14.8,0,0,1,2.6-5.9q-.3-1.8-.9-4.2C279.7,324.7,279.4,323.7,279.2,322.5Z"/><path class="k" d="M280.3,327.2l-.4.3a3.9,3.9,0,0,1-5-.4,9.5,9.5,0,0,0-5.5-2.5c-2.5,3.9-7.1,7.2-8.1,7.9a7.9,7.9,0,0,0-2.5,3.8h21.5C281.6,335.1,281.5,330.8,280.3,327.2Z"/><path class="n" d="M274,232.9s7.8,1.4,15.1,9,.8,6.9,2.1,16.4c.9,6.1-1.1,41.2,3.8,52.6H284.9c-2.2-5.4-10.8-30.3-11.2-36.2-.8-11,.2-12.5-2.4-14.5S258.7,244.3,274,232.9Z"/><path class="q" d="M294.9,310.9h-9.2c1.3,5.9,1.3,11.6,1.5,15.3,2.9-2.9,7.6-3.6,10.6-3.7a10.4,10.4,0,0,1-1.1-3.8A19.7,19.7,0,0,0,294.9,310.9Z"/><path class="k" d="M295.4,311.9c1.5,3.2,6.4,16.8,5.6,19.1s-4,5.6-5.9,5.2-6.7-3.4-7.6-6.5c-.2-.7-.8-12.7-1-14.3C289.4,312.4,292.3,312,295.4,311.9Z"/><path class="m" d="M338.9,221.5c-3.6-6.1-4.3-17.7-4.3-17.7l-10.6,4,1.2,11.9Z"/><path class="r" d="M329.1,205.9c1.5,7.2,1.1,11.5,6,13h-9.9L324,207.8Z"/><path class="s" d="M328.2,178.7c4.2,2.5,7.4,14.5,9,24.2L324,207.8l1.6-27.9Z"/><path class="t" d="M329.1,205.9l-5.1,1.9,1.4-24.8C325.4,183.5,328.2,200.1,329.1,205.9Z"/><path class="m" d="M262.1,221.5c3.6-6.1,5.5-16.8,5.5-16.8l7.6,8.2-2.3,8.6Z"/><path class="r" d="M271.9,209.3s-.6,2.6-1.7,6.3-1.6,1.8-5.3,3.3l-1.2,4.8h8.2l3.3-10.8Z"/><path class="s" d="M275.2,212.9l-11.5-12.3s6.8-17.7,11.5-22.5c0,0,5,10.3,3.2,19.3S275.2,212.9,275.2,212.9Z"/><path class="u" d="M275.3,184.4h2.2c1,3.7,1.8,8.5.9,13-1.7,9.1-3.2,15.5-3.2,15.5l-3.3-3.6C273.3,203.4,276.4,188.8,275.3,184.4Z"/><path class="s" d="M316.1,175c-10.8,0-9.3,3.3-23.3,1s-18.1,1.8-18.8,3.7,5.3,9.2,1.9,22-1.9,31.2-1.9,31.2a55.6,55.6,0,0,1,18.2,12.4c7.7,8.2,13.3-6.6,32.9,3.5,0,0,2.9-8.3-1-19.6s1.8-18.1,2.9-31.8-1.6-14.2,1.2-18.7C328.2,178.7,324.7,175,316.1,175Z"/><path class="m" d="M286.5,165.9l2.2,13a2.9,2.9,0,0,0,3,2.5h8.6c1.2,0,7,.1,7.9-3.6a10.1,10.1,0,0,1-4.2-5.8c-.8-3.8-1.5-9.5-1.5-9.5Z"/><path class="r" d="M298,177.1c-1.7-2.7-6.2-2.8-9.8-1.1l-1.7-10.1,16-3.3s.7,5.7,1.5,9.5a10.1,10.1,0,0,0,4.2,5.8c-.9,3.7-6.7,3.6-7.9,3.6A36.6,36.6,0,0,0,298,177.1Z"/><path class="j" d="M277.5,151c-1.3-1.4.1-3.4.1-5.3s2.4-4.6,2.9-5.2a13.5,13.5,0,0,1,6.7-3.6c4.9-1.3,5-.4,7.8.5s4.5-1.8,8.8,1.2,4.8,6,5.9,9.5c2.6,8.8-1.8,7.5-4.1,14.9s-4.6,6.6-6.2,5.2,1.9-6.2-2-4-13.7-6.2-13.7-6.2Z"/><path class="m" d="M281,148.1c-3.1,6.2-1,26.3,5.6,24.6s7.4-5.5,8.2-6.6.7,1.7,2.8,1.4,4.6-6.7,2.8-8.3-3.8,1.6-4.2,2.8c-1,2.8-3.4-.5-4.4-6.3-.4-2.7-6.5,1.8-6.3-2.9S281,148.1,281,148.1Z"/><path class="m" d="M335.1,218.9c-4.4-1.8-9.1.3-14.4-.9l2.1,5.7h17.3S339.4,220.6,335.1,218.9Z"/><path class="v" d="M325.9,223.7l-3.3-5.4c-.9-1.3-9.4-2-10.8-1.9s-2.3,7.3-2.3,7.3Z"/><path class="m" d="M264.9,218.9c3.2-1.8,6.6.3,10.5-.9l-1.6,5.7H261.3A6.9,6.9,0,0,1,264.9,218.9Z"/><path class="m" d="M266.3,223.7s2.4-4.1,3.3-5.4,9.4-2,10.8-1.9,2.3,7.3,2.3,7.3Z"/><path class="w" d="M80,233.3H381.4a18.7,18.7,0,0,0,11.9-4.1l4.2-3.5a2.5,2.5,0,0,0-2.7-2.1H66.6a2.5,2.5,0,0,0-2.7,2.1l4.2,3.5A18.7,18.7,0,0,0,80,233.3Z"/><path class="d" d="M381.4,233.3H80a18.7,18.7,0,0,1-11.9-4.1H393.3A18.7,18.7,0,0,1,381.4,233.3Z"/><path class="g" d="M367.7,337.3h0a2,2,0,0,0,1.9-2.1l2.6-101.9h-9.1l2.7,101.9A2,2,0,0,0,367.7,337.3Z"/><polygon class="g" points="372.3 233.3 372 241.8 363.3 241.8 363.1 233.3 372.3 233.3"/><path class="g" d="M93.7,337.3h0a2,2,0,0,1-1.9-2.1L89.1,233.3h9.2L95.6,335.2A2,2,0,0,1,93.7,337.3Z"/><polygon class="g" points="89.1 233.3 89.4 241.8 98.1 241.8 98.3 233.3 89.1 233.3"/><path class="e" d="M324.8,223.7H275.4a1.2,1.2,0,0,1-1.2-1.1l-1.1-30.1a1.2,1.2,0,0,1,1.2-1.2h51.6a1.2,1.2,0,0,1,1.2,1.2L326,222.6A1.2,1.2,0,0,1,324.8,223.7Z"/><path class="e" d="M195.9,223.7H146.5a1.2,1.2,0,0,1-1.2-1.1l-1.1-30.1a1.1,1.1,0,0,1,1.1-1.2H197a1.2,1.2,0,0,1,1.2,1.2L197,222.6A1.1,1.1,0,0,1,195.9,223.7Z"/><path class="x" d="M354.9,223.6h-7.1a1.7,1.7,0,0,1-1.7-1.3l-2.5-13a1.7,1.7,0,0,1,1.6-2h12.3a1.7,1.7,0,0,1,1.6,2l-2.5,13A1.7,1.7,0,0,1,354.9,223.6Z"/><path class="y" d="M356.6,222.3l2.5-13a1.7,1.7,0,0,0-1.6-2h-1.3l-2.3,16.3h1A1.7,1.7,0,0,0,356.6,222.3Z"/><path class="x" d="M356.3,221.5h-1.5a1.3,1.3,0,0,1-1.3-1.3,1.3,1.3,0,0,1,1.3-1.3h1.5a1.4,1.4,0,0,0,1.3-1l.8-4.3a1.7,1.7,0,0,0-.2-1.1,1.9,1.9,0,0,0-1-.4h-1.5a1.4,1.4,0,0,1-1.4-1.4,1.3,1.3,0,0,1,1.4-1.3h1.5a3.7,3.7,0,0,1,3,1.4,3.6,3.6,0,0,1,.8,3.3l-.8,4.3A4,4,0,0,1,356.3,221.5Z"/><rect class="z" x="221.5" y="198.4" width="1" height="24.79" transform="translate(93.3 -67) rotate(21.6)"/><rect class="aa" x="220" y="198.4" width="1" height="24.79" transform="translate(45.3 -39) rotate(11.2)"/><rect class="y" x="214.8" y="198.2" width="1" height="24.79" transform="matrix(0.98, -0.22, 0.22, 0.98, -40.51, 51.61)"/><rect class="h" x="213.2" y="208.9" width="11.5" height="14.29"/><rect class="l" x="212.8" y="222.3" width="12.2" height="1.61" rx="0.3"/><rect class="l" x="212.8" y="208.2" width="12.2" height="1.61" rx="0.3"/><path class="m" d="M177,164.2c-.4,1.8-.2,3.3.5,3.5s1.7-1.1,2.1-2.8.2-3.4-.5-3.5S177.5,162.5,177,164.2Z"/><path class="m" d="M161.7,164.2c.4,1.8.2,3.3-.5,3.5s-1.6-1.1-2.1-2.8-.2-3.4.5-3.5S161.2,162.5,161.7,164.2Z"/><path class="i" d="M179.6,160a3.8,3.8,0,0,1,1.2-1.6,4.8,4.8,0,0,0,1.3-1.6,1.3,1.3,0,0,0-.7-1.7,3.8,3.8,0,0,0,.3-4.5,3.9,3.9,0,0,0-4.2-1.5,3.4,3.4,0,0,0,.5-2.6,1.6,1.6,0,0,0-2.2-1,3.9,3.9,0,0,0-1.6-3.9,8.9,8.9,0,0,0-4.2-1.2,10.6,10.6,0,0,0-6.8,1.3c-1.9,1.3-3.2,3.8-2.4,6a1.9,1.9,0,0,1,.3,1.3c-.2.6-.9.8-1.6.9a9.3,9.3,0,0,0-4.2,1.5,4.1,4.1,0,0,0-1.5,4c.4,1.5,2.2,2.5,3.5,1.7a4.6,4.6,0,0,0-.7,3.6c1.2,4.4,4.9,3.4,5.4,3.1s.9-1.5,1.6-2.1,1.9-.1,2.9.3c3.3,1.4,6.6,1.3,10,2,.8.2,2,.9,2.8.3S179.2,161.2,179.6,160Z"/><path class="q" d="M161.7,158.5a1.9,1.9,0,0,0-1.7,2c.2,7.5,4.2,13.4,9.3,13.4s8.5-4.8,9-9.8a3,3,0,0,0-.6-2c-.8-.9-2-3.2-1.8-8.2C175.9,153.9,171.3,157.4,161.7,158.5Z"/><path class="ab" d="M51.9,269.9s7.4-15.6,5.6-25.9-10.9-8-8.4-20.3.3-19.6-7-20.8-7.6-7.4-12.6-15.7-21.4-5.4-18.1,10.4c4.5,20.9,14.9,14.8,18.1,23.1s-3.1,17.8,1.9,26.6S45.7,252,51.9,269.9Z"/><path class="ac" d="M52.1,285.1h-1c0-.1,1.5-12.3-1.4-29.4a125.2,125.2,0,0,0-27.6-60.3l.8-.6a125.8,125.8,0,0,1,27.8,60.8C53.6,272.7,52.1,285,52.1,285.1Z"/><path class="ad" d="M57.9,272.3s-6.3-13.1-4.8-21.8,9.2-6.8,7.1-17.2-.2-16.5,5.9-17.6,6.4-6.2,10.6-13.2S94.8,198,92,211.3c-3.8,17.7-12.5,12.5-15.3,19.5s2.7,15-1.6,22.4S63.1,257.1,57.9,272.3Z"/><path class="ac" d="M57.7,285.1a96.5,96.5,0,0,1,1.1-25,108.6,108.6,0,0,1,23.5-51.3l.7.6a105.1,105.1,0,0,0-23.3,50.9A97.4,97.4,0,0,0,58.5,285Z"/><polygon class="ae" points="69.8 337.6 39.4 337.6 33.2 278.5 76 278.5 69.8 337.6"/><polygon class="af" points="35 278.5 41.2 337.6 45.3 337.6 39.1 278.5 35 278.5"/><polygon class="ag" points="76 278.5 69.8 337.6 61.6 337.6 67.8 278.5 76 278.5"/><polygon class="ag" points="74.9 289.1 75.3 285.5 33.9 285.5 34.3 289.1 74.9 289.1"/><rect class="ah" x="41.4" y="337.6" width="26.3" height="3.85"/><rect class="ag" x="41.4" y="337.6" width="26.3" height="1.92"/><rect class="ai" x="31.3" y="276.9" width="46.6" height="8.54"/><rect class="ag" x="69.3" y="276.9" width="8.6" height="8.54"/><rect class="af" x="32.4" y="276.9" width="5.8" height="8.54"/><path class="n" d="M190.9,240l-26.2,1.5c.1,3.8,1.4,12,2.6,18.2s5.8,6.6,9.5,9h.1c2,.3,6.8.9,6.2,4.9l14.7,4.6c5.6-11.8,3.6-18.1.8-22.5C198.2,255.1,191.8,240.8,190.9,240Z"/><path class="n" d="M138.9,242.5c-.3.7,0,12.5-.3,13.2-4.7,10.6,1.6,15.1,2.7,21.7,0,0,11.8,1.3,13.2-3.8s13.9-10.3,13.9-10.3l-3.7-21.8Z"/><path class="o" d="M151.7,271.1c7.1-3.6,16.1-14,16.1-14s6.4,6.6,10.5,8.4,7.5,3.5,9.4,8.5l.3,1.1-4.9-1.5c.6-4-4.5-3.8-6.2-4.9l-8.5-5.4s-12.5,5.3-13.9,10.3c-.5,2.1-2.7,3.1-5.2,3.5C149.5,274.3,148.4,272.8,151.7,271.1Z"/><polygon class="aj" points="150.2 335.4 165.5 335.4 164.7 336.6 150.2 336.6 150.2 335.4"/><path class="aj" d="M167.8,331.1c-.5-.4.9-2.5-1.3-4.9s-5.1-1.9-5.7-1.9-.9-.6,0-2.1l-5.1,4.2c-3.2,2.9-5.4,4-5.5,9h15.3s1.9-2.4,4-5.6C169.3,330,168.3,331.5,167.8,331.1Z"/><path class="m" d="M163.2,320.3l-2.4,1.9c-.9,1.5-.6,2.1,0,2.1s3.6-.5,5.7,1.9.8,4.5,1.3,4.9,1.5-1.1,1.7-1.3,1.9-3.5,2.7-5.3C169.5,324.6,165.2,323.2,163.2,320.3Z"/><path class="n" d="M195.2,287.8c1.7-10.4,8-16.7.8-26.1-1.9-2.5-7.9-2-11.1,2.5s-1.4,5-1.4,6.6c-.2,7-5.7,10.7-10.4,26.2s-9.8,23.3-9.8,23.3h-.1c2,2.9,6.3,4.3,9,4.2.4-1,.7-1.9,1-2.8C174.9,315.2,193.2,300.6,195.2,287.8Z"/><path class="o" d="M173.2,321.7c-.3.9-.6,1.8-1,2.8-2.7.1-7-1.3-9-4.2h.1s3.9-6,8-17.6a76.1,76.1,0,0,0,4.3,14.7A13.6,13.6,0,0,0,173.2,321.7Z"/><polygon class="aj" points="188 335.4 172.8 335.4 173.5 336.6 188 336.6 188 335.4"/><path class="aj" d="M170.5,331.1c.5-.4-.8-2.5,1.4-4.9a6.8,6.8,0,0,1,5.8-1.9c.6,0,.9-.6,0-2.1l5,4.2c3.2,2.9,5.3,4,5.3,9H172.8a48.1,48.1,0,0,1-3.9-5.6C169.1,330,170.1,331.5,170.5,331.1Z"/><path class="q" d="M175.3,320.3l2.4,1.9c.9,1.5.6,2.1,0,2.1a6.8,6.8,0,0,0-5.8,1.9c-2.2,2.4-.9,4.5-1.4,4.9s-1.4-1.1-1.6-1.3a37.1,37.1,0,0,1-2.6-5.3C168.9,324.6,173.3,323.2,175.3,320.3Z"/><path class="n" d="M144,287.8c-1.4-10.4-7.6-16.7-.3-26.1,2-2.5,8-2,11.1,2.5s1.3,5,1.3,6.6c0,7,5.4,10.7,9.8,26.2s9.3,23.3,9.3,23.3h.1c-2,2.9-6.4,4.3-9,4.2-.4-1-.7-1.9-1-2.8C163.8,315.2,145.7,300.6,144,287.8Z"/><circle class="ak" cx="170.8" cy="208.2" r="4.4"/><path class="e" d="M174.3,207.8l-1.9-1.9-1.6,1.5h0l-1.5-1.5-2,1.9,1.6,1.6h0l1.9,1.9,1.9-1.9h0Zm-1.9-1.1,1.1,1.1-1.1,1.2-1.2-1.2Zm-3.1,0,1.1,1.1-1.1,1.2-1.2-1.2Zm1.5,3.8-1.1-1.1,1.1-1.2,1.2,1.2Z"/><circle class="ak" cx="300.1" cy="208.2" r="4.4"/><path class="e" d="M303.6,207.8l-2-1.9-1.5,1.5h0l-1.5-1.5-2,1.9,1.6,1.6h0l1.9,1.9,1.9-1.9h0Zm-2-1.1,1.2,1.1-1.2,1.2-1.1-1.2Zm-3,0,1.1,1.1-1.1,1.2-1.2-1.2Zm1.5,3.8-1.2-1.1,1.2-1.2,1.2,1.2Z"/></g></svg>