<svg xmlns="http://www.w3.org/2000/svg" xmlns:xlink="http://www.w3.org/1999/xlink" viewBox="0 0 720 525.9"><defs><style>.a{fill:url(#a);}.b{fill:#137fcf;}.c{fill:#288ed9;}.d,.e,.g,.i{fill:none;}.e,.g{stroke:#288ed9;}.e{stroke-width:0.53px;}.f{fill:url(#b);}.g,.i{stroke-linecap:round;stroke-miterlimit:10;stroke-width:2.12px;}.h{fill:#005b9f;}.i{stroke:#014374;}.j{fill:#003c69;}.k{fill:url(#c);}.l,.v{fill:#004b83;}.m,.y{fill:#0e71bb;}.m{opacity:0.19;}.m,.r,.s,.t,.v{isolation:isolate;}.n{fill:#ffbc98;}.o{fill:#d6eeff;}.p{fill:#21e2e2;}.q{fill:#ffb68f;}.r{opacity:0.03;fill:url(#d);}.s{opacity:0.05;fill:url(#e);}.t{opacity:0.1;fill:url(#f);}.u{fill:url(#g);}.v{opacity:0.86;}.w{fill:#375a64;}.x{fill:#1a2e35;}.z{fill:#ffe7cb;}.aa{fill:#f0d2b9;}.ab{fill:#1f364c;}.ac{fill:#e8505b;}.ad{fill:#37b5e8;opacity:0.2;}.ae{fill:url(#h);}.af{fill:url(#i);}.ag{fill:#e1e1e1;}.ah{fill:url(#j);}</style><linearGradient id="a" x1="1897.19" y1="386.14" x2="1897.18" y2="386.82" gradientTransform="matrix(740.56, 0, 0, -612.51, -1404656.12, 237015.56)" gradientUnits="userSpaceOnUse"><stop offset="0" stop-color="#c6e6ff"/><stop offset="1" stop-color="#fff"/></linearGradient><linearGradient id="b" x1="1895.41" y1="389.13" x2="1895.41" y2="388.07" gradientTransform="matrix(447, 0, 0, -64, -846916.94, 25240.08)" gradientUnits="userSpaceOnUse"><stop offset="0" stop-color="#288ed9"/><stop offset="1" stop-color="#137fcf" stop-opacity="0.05"/></linearGradient><linearGradient id="c" x1="1861.1" y1="386.51" x2="1861.63" y2="386.51" gradientTransform="matrix(53, 0, 0, -441, -98277.39, 170718.22)" gradientUnits="userSpaceOnUse"><stop offset="0" stop-color="#0563a8"/><stop offset="1" stop-color="#0061aa"/></linearGradient><linearGradient id="d" x1="1890.04" y1="386.69" x2="1890.04" y2="386.15" gradientTransform="matrix(204.44, 0, 0, -293.33, -386052.2, 113582.29)" gradientUnits="userSpaceOnUse"><stop offset="0" stop-color="#f7f7f7"/><stop offset="1" stop-color="#fff" stop-opacity="0"/></linearGradient><linearGradient id="e" x1="1890.89" y1="386.67" x2="1890.89" y2="386.14" gradientTransform="matrix(223.06, 0, 0, -277.34, -421439.5, 107394.88)" xlink:href="#d"/><linearGradient id="f" x1="1889.37" y1="386.54" x2="1889.37" y2="386.01" gradientTransform="matrix(191.43, 0, 0, -198.45, -361340.37, 76863.66)" xlink:href="#d"/><linearGradient id="g" x1="1891.29" y1="386.76" x2="1891.29" y2="386.23" gradientTransform="matrix(233.23, 0, 0, -502, -440779.76, 194282.95)" gradientUnits="userSpaceOnUse"><stop offset="0" stop-color="#1882d1"/><stop offset="1" stop-color="#0d70b9"/></linearGradient><linearGradient id="h" x1="153.59" y1="309.65" x2="200.53" y2="309.65" gradientUnits="userSpaceOnUse"><stop offset="0" stop-color="#419ee3"/><stop offset="1" stop-color="#0d79c9"/></linearGradient><linearGradient id="i" x1="133.68" y1="339.7" x2="173.91" y2="339.7" gradientUnits="userSpaceOnUse"><stop offset="0" stop-color="#44989f"/><stop offset="0.21" stop-color="#39b0b4"/><stop offset="0.52" stop-color="#2ccbcd"/><stop offset="0.8" stop-color="#24dcdd"/><stop offset="1" stop-color="#21e2e2"/></linearGradient><linearGradient id="j" x1="165.82" y1="392.97" x2="194.5" y2="392.97" gradientUnits="userSpaceOnUse"><stop offset="0" stop-color="#ffbc98"/><stop offset="1" stop-color="#ff9f6c"/></linearGradient></defs><title>usage german dedicated server</title><path class="a" d="M331,144.6c64.3,41,137.9,59.5,137.9,59.5s81.1,12.3,51.3,104.6-33.7,125.4-80.5,127.8c-44.3,1.2-69.2-17.1-113-13.9-38.6,2.9-65.1,20.3-129.5-5.1C94.1,372,101.8,0,331,144.6Z"/><rect class="b" x="216.8" y="337.2" width="17.5" height="17.55" rx="2.7"/><path class="c" d="M225.8,342a4.3,4.3,0,1,1-4.2,4.2A4.2,4.2,0,0,1,225.8,342Z"/><circle class="d" cx="225.8" cy="346.2" r="5.8"/><circle class="e" cx="225.8" cy="346.2" r="5.6"/><ellipse class="f" cx="330.1" cy="386.6" rx="118.6" ry="17"/><path class="g" d="M282.8,328.2H250.4c-4.4,0-6.4,2.4-6.4,6.7,0,1.1.1,19.1.1,22.5s-2.6,5.5-7,5.5H231c-3.3,0-5.3-2.2-5.3-4.6v-8"/><rect class="h" x="257.7" y="128.6" width="136.4" height="266.47" rx="10.6"/><path class="i" d="M327.2,144.6v18.1c0,3.9-2,5.6-5.5,5.6h-5.3c-3.5,0-4.6,2.3-4.6,6.1V176"/><path class="i" d="M332.9,149.9v7.8c0,3.8-2,5.6-5.5,5.5H322c-3.4,0-4.5,2.3-4.5,6.1V176"/><path class="i" d="M317.8,144.3v13.5c0,3.8-2,5.6-5.6,5.5h-5.3c-3.5,0-4.6,2.3-4.6,6.1V176"/><path class="i" d="M285.9,142.1h35.8c3.9,0,5.7,2,5.6,5.5,0,.9-.1,2.6-.1,5.4"/><path class="i" d="M333,152c0-2.8,0-4.4-.1-5.4-.2-3.5,1.6-5.5,5.5-5.5H368"/><path class="i" d="M355.2,141.1v71.7c0,3.9-2,5.6-5.5,5.6h-5.4c-3.5,0-4.5,2.3-4.5,6.1v1.7"/><path class="i" d="M349.9,141.1v23.3c0,3.8-2,5.6-5.5,5.5H339c-3.5,0-4.6,2.3-4.6,6.1v6.7"/><path class="i" d="M344.7,143.5v89.4c0,3.8-2,5.6-5.4,5.5h-5.4c-3.5,0-4.6,2.3-4.6,6.1v38.9"/><rect class="j" x="285.8" y="188.6" width="74.8" height="168.8"/><rect class="k" x="360.7" y="150.4" width="28.1" height="234.09"/><path class="l" d="M292.5,275.9h73.6a1.9,1.9,0,0,1,1.9,1.9v14.8a2,2,0,0,1-1.9,1.9H292.5a2,2,0,0,1-1.9-1.9V277.8A1.9,1.9,0,0,1,292.5,275.9Z"/><path class="m" d="M292.7,275.9h21.8v18.6H292.7a2.7,2.7,0,0,1-2.6-2.7V278.5A2.6,2.6,0,0,1,292.7,275.9Z"/><rect class="n" x="297" y="282.3" width="5.8" height="6.07" rx="2.9"/><path class="o" d="M323,282.3h0a1.1,1.1,0,0,1,1,1h0a1,1,0,0,1-1,.9h0a.9.9,0,0,1-.9-.9h0A1,1,0,0,1,323,282.3Z"/><path class="o" d="M325.3,286.1h0a1,1,0,0,1,.9,1h0a.9.9,0,0,1-.9.9h0a1,1,0,0,1-1-.9h0A1.1,1.1,0,0,1,325.3,286.1Z"/><path class="c" d="M342,282.3h0a1,1,0,0,1,.9,1h0a.9.9,0,0,1-.9.9h0a1,1,0,0,1-1-.9h0A1.1,1.1,0,0,1,342,282.3Z"/><path class="c" d="M344.3,286.1h0a1,1,0,0,1,.9,1h0a.9.9,0,0,1-.9.9h0a.9.9,0,0,1-1-.9h0A1,1,0,0,1,344.3,286.1Z"/><path class="c" d="M326.8,282.3h0a1.1,1.1,0,0,1,1,1h0a1,1,0,0,1-1,.9h0a.9.9,0,0,1-.9-.9h0A1,1,0,0,1,326.8,282.3Z"/><path class="c" d="M329.1,286.1h0a1,1,0,0,1,.9,1h0a.9.9,0,0,1-.9.9h0a1,1,0,0,1-1-.9h0A1.1,1.1,0,0,1,329.1,286.1Z"/><path class="c" d="M345.8,282.3h0a1,1,0,0,1,.9,1h0a.9.9,0,0,1-.9.9h0a.9.9,0,0,1-1-.9h0A1,1,0,0,1,345.8,282.3Z"/><path class="c" d="M348,286.1h0a1,1,0,0,1,1,1h0a.9.9,0,0,1-1,.9h0a.9.9,0,0,1-.9-.9h0A1,1,0,0,1,348,286.1Z"/><path class="c" d="M330.6,282.3h0a1.1,1.1,0,0,1,1,1h0a1,1,0,0,1-1,.9h0a.9.9,0,0,1-.9-.9h0A1,1,0,0,1,330.6,282.3Z"/><path class="c" d="M332.9,286.1h0a1,1,0,0,1,.9,1h0a.9.9,0,0,1-.9.9h0a1,1,0,0,1-1-.9h0A1.1,1.1,0,0,1,332.9,286.1Z"/><path class="o" d="M349.6,282.3h0a1,1,0,0,1,.9,1h0a.9.9,0,0,1-.9.9h0a.9.9,0,0,1-1-.9h0A1,1,0,0,1,349.6,282.3Z"/><path class="o" d="M351.8,286.1h0a1,1,0,0,1,1,1h0a.9.9,0,0,1-1,.9h0a.9.9,0,0,1-.9-.9h0A1,1,0,0,1,351.8,286.1Z"/><path class="c" d="M334.4,282.3h0a1,1,0,0,1,.9,1h0a.9.9,0,0,1-.9.9h0a1,1,0,0,1-1-.9h0A1.1,1.1,0,0,1,334.4,282.3Z"/><path class="o" d="M336.7,286.1h0a1,1,0,0,1,.9,1h0a.9.9,0,0,1-.9.9h0a.9.9,0,0,1-1-.9h0A1,1,0,0,1,336.7,286.1Z"/><path class="c" d="M353.4,282.3h0a1,1,0,0,1,.9,1h0a.9.9,0,0,1-.9.9h0a.9.9,0,0,1-1-.9h0A1,1,0,0,1,353.4,282.3Z"/><path class="c" d="M355.6,286.1h0a1,1,0,0,1,1,1h0a.9.9,0,0,1-1,.9h0a.9.9,0,0,1-.9-.9h0A1,1,0,0,1,355.6,286.1Z"/><path class="c" d="M338.2,282.3h0a1,1,0,0,1,.9,1h0a.9.9,0,0,1-.9.9h0a1,1,0,0,1-1-.9h0A1.1,1.1,0,0,1,338.2,282.3Z"/><path class="c" d="M340.5,286.1h0a1,1,0,0,1,.9,1h0a.9.9,0,0,1-.9.9h0a.9.9,0,0,1-1-.9h0A1,1,0,0,1,340.5,286.1Z"/><path class="c" d="M357.1,282.3h0a1,1,0,0,1,1,1h0a.9.9,0,0,1-1,.9h0a.9.9,0,0,1-.9-.9h0A1,1,0,0,1,357.1,282.3Z"/><path class="c" d="M359.4,286.1h0a1.1,1.1,0,0,1,1,1h0a1,1,0,0,1-1,.9h0a.9.9,0,0,1-.9-.9h0A1,1,0,0,1,359.4,286.1Z"/><rect class="p" x="305.5" y="282.3" width="5.8" height="6.07" rx="2.9"/><path class="l" d="M292.5,174.4h73.6a2,2,0,0,1,1.9,1.9v14.8a1.9,1.9,0,0,1-1.9,1.9H292.5a1.9,1.9,0,0,1-1.9-1.9V176.3A2,2,0,0,1,292.5,174.4Z"/><path class="m" d="M292.7,174.4h21.8V193H292.7a2.7,2.7,0,0,1-2.6-2.7V177.1A2.7,2.7,0,0,1,292.7,174.4Z"/><rect class="n" x="297" y="180.9" width="5.8" height="6.07" rx="2.9"/><path class="c" d="M323,180.9h0a1,1,0,0,1,1,.9h0a1.1,1.1,0,0,1-1,1h0a1,1,0,0,1-.9-1h0A.9.9,0,0,1,323,180.9Z"/><path class="c" d="M325.3,184.7h0a.9.9,0,0,1,.9.9h0a1,1,0,0,1-.9,1h0a1.1,1.1,0,0,1-1-1h0A1,1,0,0,1,325.3,184.7Z"/><path class="c" d="M342,180.9h0a.9.9,0,0,1,.9.9h0a1,1,0,0,1-.9,1h0a1.1,1.1,0,0,1-1-1h0A1,1,0,0,1,342,180.9Z"/><path class="o" d="M344.3,184.7h0a.9.9,0,0,1,.9.9h0a1,1,0,0,1-.9,1h0a1,1,0,0,1-1-1h0A.9.9,0,0,1,344.3,184.7Z"/><path class="o" d="M326.8,180.9h0a1,1,0,0,1,1,.9h0a1.1,1.1,0,0,1-1,1h0a1,1,0,0,1-.9-1h0A.9.9,0,0,1,326.8,180.9Z"/><path class="c" d="M329.1,184.7h0a.9.9,0,0,1,.9.9h0a1,1,0,0,1-.9,1h0a1.1,1.1,0,0,1-1-1h0A1,1,0,0,1,329.1,184.7Z"/><path class="c" d="M345.8,180.9h0a.9.9,0,0,1,.9.9h0a1,1,0,0,1-.9,1h0a1,1,0,0,1-1-1h0A.9.9,0,0,1,345.8,180.9Z"/><path class="o" d="M348,184.7h0a.9.9,0,0,1,1,.9h0a1,1,0,0,1-1,1h0a1,1,0,0,1-.9-1h0A.9.9,0,0,1,348,184.7Z"/><path class="c" d="M330.6,180.9h0a1,1,0,0,1,1,.9h0a1.1,1.1,0,0,1-1,1h0a1,1,0,0,1-.9-1h0A.9.9,0,0,1,330.6,180.9Z"/><path class="c" d="M332.9,184.7h0a.9.9,0,0,1,.9.9h0a1,1,0,0,1-.9,1h0a1.1,1.1,0,0,1-1-1h0A1,1,0,0,1,332.9,184.7Z"/><path class="c" d="M349.6,180.9h0a.9.9,0,0,1,.9.9h0a1,1,0,0,1-.9,1h0a1,1,0,0,1-1-1h0A.9.9,0,0,1,349.6,180.9Z"/><path class="c" d="M351.8,184.7h0a.9.9,0,0,1,1,.9h0a1,1,0,0,1-1,1h0a1,1,0,0,1-.9-1h0A.9.9,0,0,1,351.8,184.7Z"/><path class="c" d="M334.4,180.9h0a.9.9,0,0,1,.9.9h0a1,1,0,0,1-.9,1h0a1.1,1.1,0,0,1-1-1h0A1,1,0,0,1,334.4,180.9Z"/><path class="c" d="M336.7,184.7h0a.9.9,0,0,1,.9.9h0a1,1,0,0,1-.9,1h0a1,1,0,0,1-1-1h0A.9.9,0,0,1,336.7,184.7Z"/><path class="c" d="M353.4,180.9h0a.9.9,0,0,1,.9.9h0a1,1,0,0,1-.9,1h0a1,1,0,0,1-1-1h0A.9.9,0,0,1,353.4,180.9Z"/><path class="o" d="M355.6,184.7h0a.9.9,0,0,1,1,.9h0a1,1,0,0,1-1,1h0a1,1,0,0,1-.9-1h0A.9.9,0,0,1,355.6,184.7Z"/><path class="o" d="M338.2,180.9h0a.9.9,0,0,1,.9.9h0a1,1,0,0,1-.9,1h0a1.1,1.1,0,0,1-1-1h0A1,1,0,0,1,338.2,180.9Z"/><path class="c" d="M340.5,184.7h0a.9.9,0,0,1,.9.9h0a1,1,0,0,1-.9,1h0a1,1,0,0,1-1-1h0A.9.9,0,0,1,340.5,184.7Z"/><path class="c" d="M357.1,180.9h0a.9.9,0,0,1,1,.9h0a1,1,0,0,1-1,1h0a1,1,0,0,1-.9-1h0A.9.9,0,0,1,357.1,180.9Z"/><path class="c" d="M359.4,184.7h0a1,1,0,0,1,1,.9h0a1.1,1.1,0,0,1-1,1h0a1,1,0,0,1-.9-1h0A.9.9,0,0,1,359.4,184.7Z"/><rect class="p" x="305.5" y="180.9" width="5.8" height="6.07" rx="2.9"/><path class="l" d="M292.5,301.3h73.6a1.9,1.9,0,0,1,1.9,1.9v14.7a1.9,1.9,0,0,1-1.9,1.9H292.5a1.9,1.9,0,0,1-1.9-1.9V303.2A1.9,1.9,0,0,1,292.5,301.3Z"/><path class="m" d="M292.7,301.2h21.8v18.6H292.7a2.6,2.6,0,0,1-2.6-2.6V303.9A2.7,2.7,0,0,1,292.7,301.2Z"/><rect class="n" x="297" y="307.7" width="5.8" height="6.07" rx="2.9"/><path class="o" d="M323,307.7h0a1,1,0,0,1,1,1h0a1,1,0,0,1-1,.9h0a.9.9,0,0,1-.9-.9h0A.9.9,0,0,1,323,307.7Z"/><path class="c" d="M325.3,311.5h0a.9.9,0,0,1,.9.9h0a.9.9,0,0,1-.9,1h0a1,1,0,0,1-1-1h0A1,1,0,0,1,325.3,311.5Z"/><path class="c" d="M342,307.7h0a.9.9,0,0,1,.9,1h0a.9.9,0,0,1-.9.9h0a1,1,0,0,1-1-.9h0A1,1,0,0,1,342,307.7Z"/><path class="c" d="M344.3,311.5h0a.9.9,0,0,1,.9.9h0a.9.9,0,0,1-.9,1h0a.9.9,0,0,1-1-1h0A.9.9,0,0,1,344.3,311.5Z"/><path class="c" d="M326.8,307.7h0a1,1,0,0,1,1,1h0a1,1,0,0,1-1,.9h0a.9.9,0,0,1-.9-.9h0A.9.9,0,0,1,326.8,307.7Z"/><path class="c" d="M329.1,311.5h0a.9.9,0,0,1,.9.9h0a.9.9,0,0,1-.9,1h0a1,1,0,0,1-1-1h0A1,1,0,0,1,329.1,311.5Z"/><path class="o" d="M345.8,307.7h0a.9.9,0,0,1,.9,1h0a.9.9,0,0,1-.9.9h0a.9.9,0,0,1-1-.9h0A.9.9,0,0,1,345.8,307.7Z"/><path class="c" d="M348,311.5h0a.9.9,0,0,1,1,.9h0a.9.9,0,0,1-1,1h0a.9.9,0,0,1-.9-1h0A.9.9,0,0,1,348,311.5Z"/><path class="c" d="M330.6,307.7h0a1,1,0,0,1,1,1h0a1,1,0,0,1-1,.9h0a.9.9,0,0,1-.9-.9h0A.9.9,0,0,1,330.6,307.7Z"/><path class="c" d="M332.9,311.5h0a.9.9,0,0,1,.9.9h0a.9.9,0,0,1-.9,1h0a1,1,0,0,1-1-1h0A1,1,0,0,1,332.9,311.5Z"/><path class="c" d="M349.6,307.7h0a.9.9,0,0,1,.9,1h0a.9.9,0,0,1-.9.9h0a.9.9,0,0,1-1-.9h0A.9.9,0,0,1,349.6,307.7Z"/><path class="c" d="M351.8,311.5h0a.9.9,0,0,1,1,.9h0a.9.9,0,0,1-1,1h0a.9.9,0,0,1-.9-1h0A.9.9,0,0,1,351.8,311.5Z"/><path class="o" d="M334.4,307.7h0a.9.9,0,0,1,.9,1h0a.9.9,0,0,1-.9.9h0a1,1,0,0,1-1-.9h0A1,1,0,0,1,334.4,307.7Z"/><path class="c" d="M336.7,311.5h0a.9.9,0,0,1,.9.9h0a.9.9,0,0,1-.9,1h0a.9.9,0,0,1-1-1h0A.9.9,0,0,1,336.7,311.5Z"/><path class="c" d="M353.4,307.7h0a.9.9,0,0,1,.9,1h0a.9.9,0,0,1-.9.9h0a.9.9,0,0,1-1-.9h0A.9.9,0,0,1,353.4,307.7Z"/><path class="o" d="M355.6,311.5h0a.9.9,0,0,1,1,.9h0a.9.9,0,0,1-1,1h0a.9.9,0,0,1-.9-1h0A.9.9,0,0,1,355.6,311.5Z"/><path class="c" d="M338.2,307.7h0a.9.9,0,0,1,.9,1h0a.9.9,0,0,1-.9.9h0a1,1,0,0,1-1-.9h0A1,1,0,0,1,338.2,307.7Z"/><path class="c" d="M340.5,311.5h0a.9.9,0,0,1,.9.9h0a.9.9,0,0,1-.9,1h0a.9.9,0,0,1-1-1h0A.9.9,0,0,1,340.5,311.5Z"/><path class="c" d="M357.1,307.7h0a.9.9,0,0,1,1,1h0a.9.9,0,0,1-1,.9h0a.9.9,0,0,1-.9-.9h0A.9.9,0,0,1,357.1,307.7Z"/><path class="o" d="M359.4,311.5h0a1,1,0,0,1,1,.9h0a1,1,0,0,1-1,1h0a.9.9,0,0,1-.9-1h0A.9.9,0,0,1,359.4,311.5Z"/><rect class="p" x="305.5" y="307.7" width="5.8" height="6.07" rx="2.9"/><path class="l" d="M292.5,199.8h73.6a1.9,1.9,0,0,1,1.9,1.9v14.8a2,2,0,0,1-1.9,1.9H292.5a2,2,0,0,1-1.9-1.9V201.7A1.9,1.9,0,0,1,292.5,199.8Z"/><path class="m" d="M292.7,199.8h21.8v18.5H292.7a2.6,2.6,0,0,1-2.6-2.6V202.4A2.6,2.6,0,0,1,292.7,199.8Z"/><rect class="n" x="297" y="206.2" width="5.8" height="6.07" rx="2.9"/><path class="c" d="M323,206.2h0a1.1,1.1,0,0,1,1,1h0a1,1,0,0,1-1,.9h0a.9.9,0,0,1-.9-.9h0A1,1,0,0,1,323,206.2Z"/><path class="o" d="M325.3,210h0a1,1,0,0,1,.9,1h0a.9.9,0,0,1-.9.9h0a1,1,0,0,1-1-.9h0A1.1,1.1,0,0,1,325.3,210Z"/><path class="c" d="M342,206.2h0a1,1,0,0,1,.9,1h0a.9.9,0,0,1-.9.9h0a1,1,0,0,1-1-.9h0A1.1,1.1,0,0,1,342,206.2Z"/><path class="c" d="M344.3,210h0a1,1,0,0,1,.9,1h0a.9.9,0,0,1-.9.9h0a.9.9,0,0,1-1-.9h0A1,1,0,0,1,344.3,210Z"/><path class="c" d="M326.8,206.2h0a1.1,1.1,0,0,1,1,1h0a1,1,0,0,1-1,.9h0a.9.9,0,0,1-.9-.9h0A1,1,0,0,1,326.8,206.2Z"/><path class="c" d="M329.1,210h0a1,1,0,0,1,.9,1h0a.9.9,0,0,1-.9.9h0a1,1,0,0,1-1-.9h0A1.1,1.1,0,0,1,329.1,210Z"/><path class="c" d="M345.8,206.2h0a1,1,0,0,1,.9,1h0a.9.9,0,0,1-.9.9h0a.9.9,0,0,1-1-.9h0A1,1,0,0,1,345.8,206.2Z"/><path class="c" d="M348,210h0a1,1,0,0,1,1,1h0a.9.9,0,0,1-1,.9h0a.9.9,0,0,1-.9-.9h0A1,1,0,0,1,348,210Z"/><path class="c" d="M330.6,206.2h0a1.1,1.1,0,0,1,1,1h0a1,1,0,0,1-1,.9h0a.9.9,0,0,1-.9-.9h0A1,1,0,0,1,330.6,206.2Z"/><path class="o" d="M332.9,210h0a1,1,0,0,1,.9,1h0a.9.9,0,0,1-.9.9h0a1,1,0,0,1-1-.9h0A1.1,1.1,0,0,1,332.9,210Z"/><path class="c" d="M349.6,206.2h0a1,1,0,0,1,.9,1h0a.9.9,0,0,1-.9.9h0a.9.9,0,0,1-1-.9h0A1,1,0,0,1,349.6,206.2Z"/><path class="c" d="M351.8,210h0a1,1,0,0,1,1,1h0a.9.9,0,0,1-1,.9h0a.9.9,0,0,1-.9-.9h0A1,1,0,0,1,351.8,210Z"/><path class="c" d="M334.4,206.2h0a1,1,0,0,1,.9,1h0a.9.9,0,0,1-.9.9h0a1,1,0,0,1-1-.9h0A1.1,1.1,0,0,1,334.4,206.2Z"/><path class="c" d="M336.7,210h0a1,1,0,0,1,.9,1h0a.9.9,0,0,1-.9.9h0a.9.9,0,0,1-1-.9h0A1,1,0,0,1,336.7,210Z"/><path class="o" d="M353.4,206.2h0a1,1,0,0,1,.9,1h0a.9.9,0,0,1-.9.9h0a.9.9,0,0,1-1-.9h0A1,1,0,0,1,353.4,206.2Z"/><path class="c" d="M355.6,210h0a1,1,0,0,1,1,1h0a.9.9,0,0,1-1,.9h0a.9.9,0,0,1-.9-.9h0A1,1,0,0,1,355.6,210Z"/><path class="o" d="M338.2,206.2h0a1,1,0,0,1,.9,1h0a.9.9,0,0,1-.9.9h0a1,1,0,0,1-1-.9h0A1.1,1.1,0,0,1,338.2,206.2Z"/><path class="c" d="M340.5,210h0a1,1,0,0,1,.9,1h0a.9.9,0,0,1-.9.9h0a.9.9,0,0,1-1-.9h0A1,1,0,0,1,340.5,210Z"/><path class="o" d="M357.1,206.2h0a1,1,0,0,1,1,1h0a.9.9,0,0,1-1,.9h0a.9.9,0,0,1-.9-.9h0A1,1,0,0,1,357.1,206.2Z"/><path class="c" d="M359.4,210h0a1.1,1.1,0,0,1,1,1h0a1,1,0,0,1-1,.9h0a.9.9,0,0,1-.9-.9h0A1,1,0,0,1,359.4,210Z"/><rect class="p" x="305.5" y="206.2" width="5.8" height="6.07" rx="2.9"/><path class="l" d="M292.5,326.6h73.6a2,2,0,0,1,1.9,1.9v14.8a1.9,1.9,0,0,1-1.9,1.9H292.5a1.9,1.9,0,0,1-1.9-1.9V328.5A2,2,0,0,1,292.5,326.6Z"/><path class="m" d="M292.7,326.6h21.8v18.6H292.7a2.7,2.7,0,0,1-2.6-2.7V329.3A2.7,2.7,0,0,1,292.7,326.6Z"/><rect class="q" x="297" y="333.1" width="5.8" height="6.07" rx="2.9"/><path class="c" d="M323,333.1h0a1,1,0,0,1,1,.9h0a1.1,1.1,0,0,1-1,1h0a1,1,0,0,1-.9-1h0A.9.9,0,0,1,323,333.1Z"/><path class="c" d="M325.3,336.9h0a.9.9,0,0,1,.9.9h0a1,1,0,0,1-.9,1h0a1.1,1.1,0,0,1-1-1h0A1,1,0,0,1,325.3,336.9Z"/><path class="c" d="M342,333.1h0a.9.9,0,0,1,.9.9h0a1,1,0,0,1-.9,1h0a1.1,1.1,0,0,1-1-1h0A1,1,0,0,1,342,333.1Z"/><path class="c" d="M344.3,336.9h0a.9.9,0,0,1,.9.9h0a1,1,0,0,1-.9,1h0a1,1,0,0,1-1-1h0A.9.9,0,0,1,344.3,336.9Z"/><path class="c" d="M326.8,333.1h0a1,1,0,0,1,1,.9h0a1.1,1.1,0,0,1-1,1h0a1,1,0,0,1-.9-1h0A.9.9,0,0,1,326.8,333.1Z"/><path class="o" d="M329.1,336.9h0a.9.9,0,0,1,.9.9h0a1,1,0,0,1-.9,1h0a1.1,1.1,0,0,1-1-1h0A1,1,0,0,1,329.1,336.9Z"/><path class="c" d="M345.8,333.1h0a.9.9,0,0,1,.9.9h0a1,1,0,0,1-.9,1h0a1,1,0,0,1-1-1h0A.9.9,0,0,1,345.8,333.1Z"/><path class="c" d="M348,336.9h0a.9.9,0,0,1,1,.9h0a1,1,0,0,1-1,1h0a1,1,0,0,1-.9-1h0A.9.9,0,0,1,348,336.9Z"/><path class="c" d="M330.6,333.1h0a1,1,0,0,1,1,.9h0a1.1,1.1,0,0,1-1,1h0a1,1,0,0,1-.9-1h0A.9.9,0,0,1,330.6,333.1Z"/><path class="o" d="M332.9,336.9h0a.9.9,0,0,1,.9.9h0a1,1,0,0,1-.9,1h0a1.1,1.1,0,0,1-1-1h0A1,1,0,0,1,332.9,336.9Z"/><path class="c" d="M349.6,333.1h0a.9.9,0,0,1,.9.9h0a1,1,0,0,1-.9,1h0a1,1,0,0,1-1-1h0A.9.9,0,0,1,349.6,333.1Z"/><path class="o" d="M351.8,336.9h0a.9.9,0,0,1,1,.9h0a1,1,0,0,1-1,1h0a1,1,0,0,1-.9-1h0A.9.9,0,0,1,351.8,336.9Z"/><path class="c" d="M334.4,333.1h0a.9.9,0,0,1,.9.9h0a1,1,0,0,1-.9,1h0a1.1,1.1,0,0,1-1-1h0A1,1,0,0,1,334.4,333.1Z"/><path class="c" d="M336.7,336.9h0a.9.9,0,0,1,.9.9h0a1,1,0,0,1-.9,1h0a1,1,0,0,1-1-1h0A.9.9,0,0,1,336.7,336.9Z"/><path class="o" d="M353.4,333.1h0a.9.9,0,0,1,.9.9h0a1,1,0,0,1-.9,1h0a1,1,0,0,1-1-1h0A.9.9,0,0,1,353.4,333.1Z"/><path class="c" d="M355.6,336.9h0a.9.9,0,0,1,1,.9h0a1,1,0,0,1-1,1h0a1,1,0,0,1-.9-1h0A.9.9,0,0,1,355.6,336.9Z"/><path class="c" d="M338.2,333.1h0a.9.9,0,0,1,.9.9h0a1,1,0,0,1-.9,1h0a1.1,1.1,0,0,1-1-1h0A1,1,0,0,1,338.2,333.1Z"/><path class="o" d="M340.5,336.9h0a.9.9,0,0,1,.9.9h0a1,1,0,0,1-.9,1h0a1,1,0,0,1-1-1h0A.9.9,0,0,1,340.5,336.9Z"/><path class="c" d="M357.1,333.1h0a.9.9,0,0,1,1,.9h0a1,1,0,0,1-1,1h0a1,1,0,0,1-.9-1h0A.9.9,0,0,1,357.1,333.1Z"/><path class="c" d="M359.4,336.9h0a1,1,0,0,1,1,.9h0a1.1,1.1,0,0,1-1,1h0a1,1,0,0,1-.9-1h0A.9.9,0,0,1,359.4,336.9Z"/><rect class="p" x="305.5" y="333.1" width="5.8" height="6.07" rx="2.9"/><path class="l" d="M292.5,225.2h73.6a1.9,1.9,0,0,1,1.9,1.9v14.7a1.9,1.9,0,0,1-1.9,1.9H292.5a1.9,1.9,0,0,1-1.9-1.9V227.1A1.9,1.9,0,0,1,292.5,225.2Z"/><path class="m" d="M292.7,225.1h21.8v18.6H292.7a2.6,2.6,0,0,1-2.6-2.6V227.8A2.7,2.7,0,0,1,292.7,225.1Z"/><rect class="n" x="297" y="231.6" width="5.8" height="6.07" rx="2.9"/><path class="c" d="M323,231.6h0a1,1,0,0,1,1,1h0a1,1,0,0,1-1,.9h0a.9.9,0,0,1-.9-.9h0A.9.9,0,0,1,323,231.6Z"/><path class="c" d="M325.3,235.4h0a.9.9,0,0,1,.9.9h0a.9.9,0,0,1-.9,1h0a1,1,0,0,1-1-1h0A1,1,0,0,1,325.3,235.4Z"/><path class="c" d="M342,231.6h0a.9.9,0,0,1,.9,1h0a.9.9,0,0,1-.9.9h0a1,1,0,0,1-1-.9h0A1,1,0,0,1,342,231.6Z"/><path class="o" d="M344.3,235.4h0a.9.9,0,0,1,.9.9h0a.9.9,0,0,1-.9,1h0a.9.9,0,0,1-1-1h0A.9.9,0,0,1,344.3,235.4Z"/><path class="c" d="M326.8,231.6h0a1,1,0,0,1,1,1h0a1,1,0,0,1-1,.9h0a.9.9,0,0,1-.9-.9h0A.9.9,0,0,1,326.8,231.6Z"/><path class="c" d="M329.1,235.4h0a.9.9,0,0,1,.9.9h0a.9.9,0,0,1-.9,1h0a1,1,0,0,1-1-1h0A1,1,0,0,1,329.1,235.4Z"/><path class="c" d="M345.8,231.6h0a.9.9,0,0,1,.9,1h0a.9.9,0,0,1-.9.9h0a.9.9,0,0,1-1-.9h0A.9.9,0,0,1,345.8,231.6Z"/><path class="c" d="M348,235.4h0a.9.9,0,0,1,1,.9h0a.9.9,0,0,1-1,1h0a.9.9,0,0,1-.9-1h0A.9.9,0,0,1,348,235.4Z"/><path class="o" d="M330.6,231.6h0a1,1,0,0,1,1,1h0a1,1,0,0,1-1,.9h0a.9.9,0,0,1-.9-.9h0A.9.9,0,0,1,330.6,231.6Z"/><path class="c" d="M332.9,235.4h0a.9.9,0,0,1,.9.9h0a.9.9,0,0,1-.9,1h0a1,1,0,0,1-1-1h0A1,1,0,0,1,332.9,235.4Z"/><path class="c" d="M349.6,231.6h0a.9.9,0,0,1,.9,1h0a.9.9,0,0,1-.9.9h0a.9.9,0,0,1-1-.9h0A.9.9,0,0,1,349.6,231.6Z"/><path class="o" d="M351.8,235.4h0a.9.9,0,0,1,1,.9h0a.9.9,0,0,1-1,1h0a.9.9,0,0,1-.9-1h0A.9.9,0,0,1,351.8,235.4Z"/><path class="c" d="M334.4,231.6h0a.9.9,0,0,1,.9,1h0a.9.9,0,0,1-.9.9h0a1,1,0,0,1-1-.9h0A1,1,0,0,1,334.4,231.6Z"/><path class="o" d="M336.7,235.4h0a.9.9,0,0,1,.9.9h0a.9.9,0,0,1-.9,1h0a.9.9,0,0,1-1-1h0A.9.9,0,0,1,336.7,235.4Z"/><path class="c" d="M353.4,231.6h0a.9.9,0,0,1,.9,1h0a.9.9,0,0,1-.9.9h0a.9.9,0,0,1-1-.9h0A.9.9,0,0,1,353.4,231.6Z"/><path class="c" d="M355.6,235.4h0a.9.9,0,0,1,1,.9h0a.9.9,0,0,1-1,1h0a.9.9,0,0,1-.9-1h0A.9.9,0,0,1,355.6,235.4Z"/><path class="c" d="M338.2,231.6h0a.9.9,0,0,1,.9,1h0a.9.9,0,0,1-.9.9h0a1,1,0,0,1-1-.9h0A1,1,0,0,1,338.2,231.6Z"/><path class="c" d="M340.5,235.4h0a.9.9,0,0,1,.9.9h0a.9.9,0,0,1-.9,1h0a.9.9,0,0,1-1-1h0A.9.9,0,0,1,340.5,235.4Z"/><path class="c" d="M357.1,231.6h0a.9.9,0,0,1,1,1h0a.9.9,0,0,1-1,.9h0a.9.9,0,0,1-.9-.9h0A.9.9,0,0,1,357.1,231.6Z"/><path class="c" d="M359.4,235.4h0a1,1,0,0,1,1,.9h0a1,1,0,0,1-1,1h0a.9.9,0,0,1-.9-1h0A.9.9,0,0,1,359.4,235.4Z"/><rect class="p" x="305.5" y="231.6" width="5.8" height="6.07" rx="2.9"/><path class="l" d="M292.5,352h73.6a1.9,1.9,0,0,1,1.9,1.9v14.8a2,2,0,0,1-1.9,1.9H292.5a2,2,0,0,1-1.9-1.9V353.9A1.9,1.9,0,0,1,292.5,352Z"/><path class="m" d="M292.7,352h21.8v18.6H292.7a2.7,2.7,0,0,1-2.6-2.7V354.6A2.6,2.6,0,0,1,292.7,352Z"/><rect class="n" x="297" y="358.4" width="5.8" height="6.07" rx="2.9"/><path class="c" d="M323,358.4h0a1.1,1.1,0,0,1,1,1h0a1,1,0,0,1-1,.9h0a.9.9,0,0,1-.9-.9h0A1,1,0,0,1,323,358.4Z"/><path class="c" d="M325.3,362.2h0a1,1,0,0,1,.9,1h0a.9.9,0,0,1-.9.9h0a1,1,0,0,1-1-.9h0A1.1,1.1,0,0,1,325.3,362.2Z"/><path class="o" d="M342,358.4h0a1,1,0,0,1,.9,1h0a.9.9,0,0,1-.9.9h0a1,1,0,0,1-1-.9h0A1.1,1.1,0,0,1,342,358.4Z"/><path class="o" d="M344.3,362.2h0a1,1,0,0,1,.9,1h0a.9.9,0,0,1-.9.9h0a.9.9,0,0,1-1-.9h0A1,1,0,0,1,344.3,362.2Z"/><path class="c" d="M326.8,358.4h0a1.1,1.1,0,0,1,1,1h0a1,1,0,0,1-1,.9h0a.9.9,0,0,1-.9-.9h0A1,1,0,0,1,326.8,358.4Z"/><path class="o" d="M329.1,362.2h0a1,1,0,0,1,.9,1h0a.9.9,0,0,1-.9.9h0a1,1,0,0,1-1-.9h0A1.1,1.1,0,0,1,329.1,362.2Z"/><path class="o" d="M345.8,358.4h0a1,1,0,0,1,.9,1h0a.9.9,0,0,1-.9.9h0a.9.9,0,0,1-1-.9h0A1,1,0,0,1,345.8,358.4Z"/><path class="c" d="M348,362.2h0a1,1,0,0,1,1,1h0a.9.9,0,0,1-1,.9h0a.9.9,0,0,1-.9-.9h0A1,1,0,0,1,348,362.2Z"/><path class="c" d="M330.6,358.4h0a1.1,1.1,0,0,1,1,1h0a1,1,0,0,1-1,.9h0a.9.9,0,0,1-.9-.9h0A1,1,0,0,1,330.6,358.4Z"/><path class="c" d="M332.9,362.2h0a1,1,0,0,1,.9,1h0a.9.9,0,0,1-.9.9h0a1,1,0,0,1-1-.9h0A1.1,1.1,0,0,1,332.9,362.2Z"/><path class="c" d="M349.6,358.4h0a1,1,0,0,1,.9,1h0a.9.9,0,0,1-.9.9h0a.9.9,0,0,1-1-.9h0A1,1,0,0,1,349.6,358.4Z"/><path class="o" d="M351.8,362.2h0a1,1,0,0,1,1,1h0a.9.9,0,0,1-1,.9h0a.9.9,0,0,1-.9-.9h0A1,1,0,0,1,351.8,362.2Z"/><path class="c" d="M334.4,358.4h0a1,1,0,0,1,.9,1h0a.9.9,0,0,1-.9.9h0a1,1,0,0,1-1-.9h0A1.1,1.1,0,0,1,334.4,358.4Z"/><path class="c" d="M336.7,362.2h0a1,1,0,0,1,.9,1h0a.9.9,0,0,1-.9.9h0a.9.9,0,0,1-1-.9h0A1,1,0,0,1,336.7,362.2Z"/><path class="c" d="M353.4,358.4h0a1,1,0,0,1,.9,1h0a.9.9,0,0,1-.9.9h0a.9.9,0,0,1-1-.9h0A1,1,0,0,1,353.4,358.4Z"/><path class="c" d="M355.6,362.2h0a1,1,0,0,1,1,1h0a.9.9,0,0,1-1,.9h0a.9.9,0,0,1-.9-.9h0A1,1,0,0,1,355.6,362.2Z"/><path class="c" d="M338.2,358.4h0a1,1,0,0,1,.9,1h0a.9.9,0,0,1-.9.9h0a1,1,0,0,1-1-.9h0A1.1,1.1,0,0,1,338.2,358.4Z"/><path class="c" d="M340.5,362.2h0a1,1,0,0,1,.9,1h0a.9.9,0,0,1-.9.9h0a.9.9,0,0,1-1-.9h0A1,1,0,0,1,340.5,362.2Z"/><path class="c" d="M357.1,358.4h0a1,1,0,0,1,1,1h0a.9.9,0,0,1-1,.9h0a.9.9,0,0,1-.9-.9h0A1,1,0,0,1,357.1,358.4Z"/><path class="c" d="M359.4,362.2h0a1.1,1.1,0,0,1,1,1h0a1,1,0,0,1-1,.9h0a.9.9,0,0,1-.9-.9h0A1,1,0,0,1,359.4,362.2Z"/><rect class="p" x="305.5" y="358.4" width="5.8" height="6.07" rx="2.9"/><path class="l" d="M292.5,250.5h73.6a2,2,0,0,1,1.9,1.9v14.8a1.9,1.9,0,0,1-1.9,1.9H292.5a1.9,1.9,0,0,1-1.9-1.9V252.4A2,2,0,0,1,292.5,250.5Z"/><path class="m" d="M292.7,250.5h21.8v18.6H292.7a2.7,2.7,0,0,1-2.6-2.7V253.2A2.7,2.7,0,0,1,292.7,250.5Z"/><rect class="n" x="297" y="257" width="5.8" height="6.07" rx="2.9"/><path class="c" d="M323,257h0a1,1,0,0,1,1,.9h0a1.1,1.1,0,0,1-1,1h0a1,1,0,0,1-.9-1h0A.9.9,0,0,1,323,257Z"/><path class="c" d="M325.3,260.8h0a.9.9,0,0,1,.9.9h0a1,1,0,0,1-.9,1h0a1.1,1.1,0,0,1-1-1h0A1,1,0,0,1,325.3,260.8Z"/><path class="c" d="M342,257h0a.9.9,0,0,1,.9.9h0a1,1,0,0,1-.9,1h0a1.1,1.1,0,0,1-1-1h0A1,1,0,0,1,342,257Z"/><path class="c" d="M344.3,260.8h0a.9.9,0,0,1,.9.9h0a1,1,0,0,1-.9,1h0a1,1,0,0,1-1-1h0A.9.9,0,0,1,344.3,260.8Z"/><path class="o" d="M326.8,257h0a1,1,0,0,1,1,.9h0a1.1,1.1,0,0,1-1,1h0a1,1,0,0,1-.9-1h0A.9.9,0,0,1,326.8,257Z"/><path class="c" d="M329.1,260.8h0a.9.9,0,0,1,.9.9h0a1,1,0,0,1-.9,1h0a1.1,1.1,0,0,1-1-1h0A1,1,0,0,1,329.1,260.8Z"/><path class="o" d="M345.8,257h0a.9.9,0,0,1,.9.9h0a1,1,0,0,1-.9,1h0a1,1,0,0,1-1-1h0A.9.9,0,0,1,345.8,257Z"/><path class="c" d="M348,260.8h0a.9.9,0,0,1,1,.9h0a1,1,0,0,1-1,1h0a1,1,0,0,1-.9-1h0A.9.9,0,0,1,348,260.8Z"/><path class="o" d="M330.6,257h0a1,1,0,0,1,1,.9h0a1.1,1.1,0,0,1-1,1h0a1,1,0,0,1-.9-1h0A.9.9,0,0,1,330.6,257Z"/><path class="c" d="M332.9,260.8h0a.9.9,0,0,1,.9.9h0a1,1,0,0,1-.9,1h0a1.1,1.1,0,0,1-1-1h0A1,1,0,0,1,332.9,260.8Z"/><path class="c" d="M349.6,257h0a.9.9,0,0,1,.9.9h0a1,1,0,0,1-.9,1h0a1,1,0,0,1-1-1h0A.9.9,0,0,1,349.6,257Z"/><path class="c" d="M351.8,260.8h0a.9.9,0,0,1,1,.9h0a1,1,0,0,1-1,1h0a1,1,0,0,1-.9-1h0A.9.9,0,0,1,351.8,260.8Z"/><path class="c" d="M334.4,257h0a.9.9,0,0,1,.9.9h0a1,1,0,0,1-.9,1h0a1.1,1.1,0,0,1-1-1h0A1,1,0,0,1,334.4,257Z"/><path class="c" d="M336.7,260.8h0a.9.9,0,0,1,.9.9h0a1,1,0,0,1-.9,1h0a1,1,0,0,1-1-1h0A.9.9,0,0,1,336.7,260.8Z"/><path class="c" d="M353.4,257h0a.9.9,0,0,1,.9.9h0a1,1,0,0,1-.9,1h0a1,1,0,0,1-1-1h0A.9.9,0,0,1,353.4,257Z"/><path class="c" d="M355.6,260.8h0a.9.9,0,0,1,1,.9h0a1,1,0,0,1-1,1h0a1,1,0,0,1-.9-1h0A.9.9,0,0,1,355.6,260.8Z"/><path class="c" d="M338.2,257h0a.9.9,0,0,1,.9.9h0a1,1,0,0,1-.9,1h0a1.1,1.1,0,0,1-1-1h0A1,1,0,0,1,338.2,257Z"/><path class="o" d="M340.5,260.8h0a.9.9,0,0,1,.9.9h0a1,1,0,0,1-.9,1h0a1,1,0,0,1-1-1h0A.9.9,0,0,1,340.5,260.8Z"/><path class="o" d="M357.1,257h0a.9.9,0,0,1,1,.9h0a1,1,0,0,1-1,1h0a1,1,0,0,1-.9-1h0A.9.9,0,0,1,357.1,257Z"/><path class="o" d="M359.4,260.8h0a1,1,0,0,1,1,.9h0a1.1,1.1,0,0,1-1,1h0a1,1,0,0,1-.9-1h0A.9.9,0,0,1,359.4,260.8Z"/><rect class="p" x="305.5" y="257" width="5.8" height="6.07" rx="2.9"/><path class="r" d="M295,154.7h95.2c-.5,10.3,0,15.1,0,18.6,0,25.2,13.7,19.9-.9,34.3C360.5,236,334.2,263.5,289,310.4c-3.3,0,0-26.6,0-149.3A6.2,6.2,0,0,1,295,154.7Z"/><path class="s" d="M286.8,154.7h102c10.7,0,1.9,6.8,1.8,12.3-.2,7.4,4.7,14.9,0,19.4-36.6,35-58.3,57.7-114.1,115.5-3.3,0,4.3-18.1,4.3-140.8A6.2,6.2,0,0,1,286.8,154.7Z"/><path class="t" d="M296.5,154.6H389a4.2,4.2,0,0,1,4,4.4c-37.9,37.6-54.6,53.3-100.6,101-2.2,0,0-18,0-101A4.2,4.2,0,0,1,296.5,154.6Z"/><path class="u" d="M394.2,385a10.1,10.1,0,0,1-10,10.1H281a10.7,10.7,0,0,1-10.6-10.6h0V139.2A10.7,10.7,0,0,1,281,128.6H384.5a10,10,0,0,1,3.8.8,11.9,11.9,0,0,1,3.1,2.3,12,12,0,0,1,2.1,3.4,11.4,11.4,0,0,1,.7,4.1ZM300.9,157.3a7.9,7.9,0,0,0-8,7.9h0V358.5a7.9,7.9,0,0,0,8,7.9h78.4a7.9,7.9,0,0,0,8-7.9V165.2a7.9,7.9,0,0,0-8-7.9H300.9Z"/><path class="v" d="M277.4,289.7V259.3a5.2,5.2,0,0,1,5.2-5.2h0a5.2,5.2,0,0,1,5.2,5.2v30.4a5.2,5.2,0,0,1-5.2,5.3h0A5.3,5.3,0,0,1,277.4,289.7Z"/><path class="h" d="M276.9,289.7V259.3a5.2,5.2,0,0,1,5.2-5.2h0a5.2,5.2,0,0,1,5.3,5.2v30.4a5.3,5.3,0,0,1-5.3,5.3h0A5.3,5.3,0,0,1,276.9,289.7Z"/><rect class="b" x="282.2" y="266.9" width="3" height="14.33" rx="1.5"/><path class="w" d="M438.9,147.1c.2.4,2.3,31.2,2.3,31.2L424.1,177l-2.5-25.3Z"/><polygon class="x" points="441.2 178.3 442.9 177.8 440.5 146.6 438.7 147.1 441.2 178.3"/><path class="x" d="M430.3,153.3a.7.7,0,1,1-.7-.7A.7.7,0,0,1,430.3,153.3Z"/><path class="y" d="M483.6,160.9a1.4,1.4,0,0,0,1.8,1.7c.9-.4,1.1-1.6,1-2.6s-.4-2.1.1-3,1-1.1,1.6-1.6a4.3,4.3,0,0,0,1.4-3.6,4,4,0,0,0-2.3-3c-1.3-.4-3-.1-3.9-1.1s-.6-1.8-1.1-2.7-2.6-1.6-4.1-1.5-3.1.6-4.6.1a21.7,21.7,0,0,1-3.3-1.9,6.8,6.8,0,0,0-7.7,1.1,6.6,6.6,0,0,0-1.5,7.6,4.1,4.1,0,0,0,1.9,2.2"/><path class="z" d="M482.1,186.9l-14.4-1.2c-.1-1.7,0-8.2,0-8.2s-6-.9-6.1-6.9,1-19.8,1-19.8h0a20.7,20.7,0,0,1,20.9,2.6l.9.7Z"/><path class="aa" d="M467.7,177.4a14,14,0,0,0,7.8-2.2s-1.8,4.3-7.8,3.8Z"/><path class="y" d="M462.5,152.3a9.6,9.6,0,0,0,8.4,0c3.2-1.3,6.9-1.8,7.7-1.1s.6,3.9,3.6,5.1c0,0-.6,6.1,1.8,6s1.7-9.6,1.7-9.6l-5.8-3.3-6.4-1.7-6.2.4-4.8.9Z"/><path class="z" d="M483.7,160.3c.1,0,4.1-1.2,4,2.9a3,3,0,0,1-4.2,3Z"/><path class="y" d="M486.5,147.6c0,.2-.7.1-1.3.3s-1.2.6-1.3.5.3-.7,1.1-.9A1.5,1.5,0,0,1,486.5,147.6Z"/><path class="y" d="M484.2,145a3.2,3.2,0,0,1,.1,2c-.2,1.1-.9,1.8-1,1.7s.3-.8.5-1.8S484,145.1,484.2,145Z"/><path class="p" d="M509.7,411.2l1.4,6s9.9,12.7,12.9,12.1-.5-3.7-4.2-13.4l-.8-4Z"/><path class="p" d="M460.9,414.2v-8l15-.2.2,11.7h-.9c-4.1.3-21.1,1.1-23.8.3S460.9,414.2,460.9,414.2Z"/><polyline class="ab" points="450.7 255.2 457.7 410.8 481 411.3 477.1 281 503.4 412.3 525.6 412.3 496 255.2"/><path class="z" d="M444.6,190l-21.8,5.6,3.5-25.8h0l.4-1.2,8-1.2-.9-5.9a4.8,4.8,0,0,0-6-3.8l-2.6.7a6.6,6.6,0,0,0-4.3,3.5c-1.5,2.9-3,6.2-2.9,5.9h0l-11.6,31.7a11.9,11.9,0,0,0,1.3,12.7c3.7,4.9,12.8,1.5,17.1.7l27.9-6.2Z"/><path class="z" d="M524.9,240.5a14.6,14.6,0,0,0,0-19.2l-23.3-26.4-6.3,17.4c.5.3,18.2,19.3,18.2,19.3l-15.2,18.9a10.7,10.7,0,0,0-1.8,10.4l2.6,10.6,12.6-5.6-.9-1.3h-8.3l-.5-2h0Z"/><path class="c" d="M445.7,260.7l50.3-3.4-.6-24.8V214.6l5.6,8.3,14.9-15.7-16.7-16h0a26.1,26.1,0,0,0-10.2-6.6,20.7,20.7,0,0,0-6.3-1.2h0a25.3,25.3,0,0,1-15.4,0,80.8,80.8,0,0,0-14,2.6l-19.5,5.3,6.4,23.9,11.8-4S445.6,255.7,445.7,260.7Z"/><polygon class="ac" points="501 222.9 504.4 221.8 503.2 220.5 501 222.9"/><polygon class="ac" points="440.3 215.4 436.4 210.3 438.8 209.8 440.3 215.4"/><polygon class="x" points="440.3 215.4 436.4 210.3 438.8 209.8 440.3 215.4"/><polygon class="x" points="501 222.9 504.4 221.8 503.2 220.5 501 222.9"/><path class="ad" d="M209.5,408.1c0,3.9-13.9,7.1-31,7.1s-31-3.2-31-7.1,13.9-7.1,31-7.1S209.5,404.2,209.5,408.1Z"/><path class="ae" d="M168.5,251.1c-6.8,1.1-9.8,9.4-9.2,16.2s3.4,13.6,2.6,20.4c-.9,8.7-7.5,16.1-8.2,24.8-.9,10.2,6.3,19.3,8.5,29.4,1,4.9.9,10.1,2.7,14.7,3.1,7.9,12.1,13,20.4,11.5s15.1-9.4,15.2-17.8-4.7-15.3-4.1-23.2c.4-5.8,3.8-11.3,3.1-17.1s-7.2-11.7-9.5-18.3-.1-13.8-.8-20.7c-1.4-12.3-8.3-20.9-20.7-19.9"/><path class="ac" d="M133.8,310.9c-1.1,11.4,4,24.9,9.8,34.8a54.5,54.5,0,0,0,25.7,22.2c1.2.6,2.7,1,3.7.2a3.9,3.9,0,0,0,.9-3,56.1,56.1,0,0,0-40.1-54.2"/><path class="af" d="M133.8,310.9c-1.1,11.4,4,24.9,9.8,34.8a54.5,54.5,0,0,0,25.7,22.2c1.2.6,2.7,1,3.7.2a3.9,3.9,0,0,0,.9-3,56.1,56.1,0,0,0-40.1-54.2"/><path class="ag" d="M183.7,391.9l-.3-.6-.8-1.9-3-6.9c-2.7-5.8-6.5-13.7-11.4-22s-9.9-15.6-13.6-20.7l-4.5-6-1.2-1.7c-.3-.3-.5-.5-.4-.6l.5.6,1.3,1.5,4.7,5.9a245.5,245.5,0,0,1,13.8,20.7A220.1,220.1,0,0,1,180,382.3c1.2,2.9,2.2,5.3,2.8,7l.7,1.9A1.7,1.7,0,0,1,183.7,391.9Z"/><path class="ag" d="M176.4,282.7a8.7,8.7,0,0,0,.1,1.1c0,.8.1,1.9.2,3.2.2,2.8.4,6.7.8,11.6.6,9.8,1.4,23.3,2.5,38.3s2.1,28.4,2.8,38.2c.4,4.9.7,8.8.9,11.6s.2,2.4.2,3.2a8.7,8.7,0,0,1,.1,1.1s-.1-.4-.2-1.1-.2-1.9-.3-3.2-.7-6.7-1.1-11.5c-.9-9.8-2-23.3-3.1-38.3s-1.8-28.5-2.3-38.3c-.2-4.8-.4-8.8-.5-11.6-.1-1.3-.1-2.4-.2-3.2S176.3,282.7,176.4,282.7Z"/><path class="ah" d="M165.8,375.6h28.7v21a13.8,13.8,0,0,1-13.8,13.8h0A13.7,13.7,0,0,1,167,397.3Z"/></svg>