<svg xmlns="http://www.w3.org/2000/svg" xmlns:xlink="http://www.w3.org/1999/xlink" viewBox="0 0 400 400"><defs><style>.a{isolation:isolate;}.b,.f,.v{fill:#37b5e8;}.b,.g{opacity:0.2;}.c{fill:#0e71bb;}.d{fill:#f1f1f1;}.ah,.e{opacity:0.25;mix-blend-mode:overlay;}.h{fill:#fc9a80;}.i{fill:none;stroke:#463840;stroke-miterlimit:10;stroke-width:0.65px;}.j{fill:#e8e0e4;}.k{fill:#78cfd8;}.l{fill:#ff6a66;}.m{fill:#ffd994;}.n{fill:#314656;}.o{fill:#1f2848;}.p{fill:#288ed9;}.q{fill:#d67363;}.r{fill:#2f3767;}.s{fill:#ffe7cb;}.t{fill:#5fbeed;}.u{fill:#4ba6dd;}.v{opacity:0.86;}.w{fill:#21e2e2;}.x{fill:url(#a);}.y{fill:url(#b);}.z{fill:url(#c);}.aa{fill:url(#d);}.ab{fill:url(#e);}.ac{fill:url(#f);}.ad{fill:url(#g);}.ae{fill:url(#h);}.af{fill:url(#i);}.ag{fill:url(#j);}.ai{fill:url(#k);}.aj{fill:#00409e;opacity:0.4;mix-blend-mode:multiply;}.ak{fill:#333;}.al{fill:#fff;}.am{fill:#c0c2c1;}.an{fill:#e6e6e6;}.ao{fill:#000100;}.ap{fill:#fe9a0f;}.aq{fill:#e2810c;}.ar{fill:#dd7f10;}.as{fill:#ae4e32;}.at{fill:#9e402b;}.au{fill:#fe9b0e;}</style><linearGradient id="a" x1="76.22" y1="76.25" x2="107.6" y2="76.25" gradientUnits="userSpaceOnUse"><stop offset="0" stop-color="#ffbc98"/><stop offset="1" stop-color="#ff9f6c"/></linearGradient><linearGradient id="b" x1="53.6" y1="95.3" x2="70.48" y2="95.3" xlink:href="#a"/><linearGradient id="c" x1="69.38" y1="106.33" x2="115.87" y2="106.33" xlink:href="#a"/><linearGradient id="d" x1="37.92" y1="120.51" x2="67.16" y2="120.51" xlink:href="#a"/><linearGradient id="e" x1="4.95" y1="147.27" x2="72.38" y2="147.27" xlink:href="#a"/><linearGradient id="f" x1="78.77" y1="153.41" x2="105.55" y2="153.41" xlink:href="#a"/><linearGradient id="g" x1="89.01" y1="188.87" x2="105.59" y2="188.87" xlink:href="#a"/><linearGradient id="h" x1="98.88" y1="212.69" x2="126.76" y2="212.69" xlink:href="#a"/><linearGradient id="i" x1="21.74" y1="215.99" x2="97.03" y2="215.99" xlink:href="#a"/><linearGradient id="j" x1="18.87" y1="181.39" x2="85.08" y2="181.39" xlink:href="#a"/><linearGradient id="k" x1="60" y1="335.9" x2="135.46" y2="335.9" xlink:href="#a"/></defs><title>usage-advantage-linux-dedicated-servers</title><g class="a"><rect class="b" x="209.5" y="34" width="54.1" height="35.73"/><rect class="b" x="209.5" y="34" width="54.1" height="23.82"/><rect class="b" x="209.5" y="34" width="54.1" height="11.91"/><rect class="b" x="251.7" y="59.5" width="5" height="8.73"/><rect class="b" x="251.7" y="47.5" width="5" height="8.73"/><rect class="b" x="251.7" y="35.6" width="5" height="8.73"/><rect class="c" x="107.1" y="69.8" width="223.4" height="7.82"/><rect class="b" x="269.4" y="23.3" width="47.5" height="46.47"/><path class="d" d="M277.8,63.8a2.5,2.5,0,1,1-2.5-2.4A2.5,2.5,0,0,1,277.8,63.8Z"/><rect class="b" x="281.2" y="23.3" width="35.6" height="46.47"/><circle class="d" cx="287.2" cy="63.8" r="2.5"/><rect class="b" x="293.1" y="23.3" width="23.7" height="46.47"/><path class="d" d="M301.5,63.8a2.5,2.5,0,1,1-4.9,0,2.5,2.5,0,0,1,4.9,0Z"/><rect class="b" x="305" y="23.3" width="11.9" height="46.47"/><path class="d" d="M313.4,63.8a2.5,2.5,0,1,1-2.5-2.4A2.5,2.5,0,0,1,313.4,63.8Z"/><path class="c" d="M267.3,137.2l3.7,49.2a5.6,5.6,0,0,1-5.5,6h25a5.4,5.4,0,0,0,5.2-6.7l-12.6-48.5Z"/><path class="e" d="M266.5,137.2l3.6,49.2a5.6,5.6,0,0,1-5.5,6h25a5.4,5.4,0,0,0,5.2-6.7l-12.6-48.5Z"/><path class="c" d="M294.7,188.6H254.9a3.1,3.1,0,0,0-3.1,3.1v.7h37.3C294.2,192.4,294.7,188.6,294.7,188.6Z"/><rect class="c" x="220.6" y="100.1" width="98" height="78.95" rx="3.1"/><rect class="f" x="223.3" y="104.6" width="92.7" height="69.85" transform="translate(539.3 279.1) rotate(180)"/><g class="g"><rect class="h" x="231.2" y="116.5" width="37.8" height="19.93"/><rect class="d" x="270.3" y="116.5" width="37.8" height="19.93"/><rect class="h" x="231.2" y="139.2" width="76.9" height="22.82"/><rect class="h" x="231.2" y="110.3" width="76.9" height="2.29"/><rect class="h" x="231.2" y="164.2" width="4.6" height="4.62" rx="0.7"/><rect class="h" x="238.4" y="164.2" width="4.6" height="4.62" rx="0.7"/><rect class="h" x="245.6" y="164.2" width="4.6" height="4.62" rx="0.7"/><rect class="h" x="252.9" y="164.2" width="4.6" height="4.62" rx="0.7"/><rect class="h" x="260.1" y="164.2" width="4.6" height="4.62" rx="0.7"/><rect class="h" x="267.3" y="164.2" width="4.6" height="4.62" rx="0.7"/><rect class="h" x="274.5" y="164.2" width="4.6" height="4.62" rx="0.7"/><rect class="h" x="281.8" y="164.2" width="4.6" height="4.62" rx="0.7"/><rect class="h" x="289" y="164.2" width="4.6" height="4.62" rx="0.7"/><rect class="h" x="296.2" y="164.2" width="4.6" height="4.62" rx="0.7"/><rect class="h" x="303.5" y="164.2" width="4.6" height="4.62" rx="0.7"/><line class="i" x1="270.3" y1="116.5" x2="308.1" y2="136.5"/><line class="i" x1="308.1" y1="116.5" x2="270.3" y2="136.5"/></g><path class="d" d="M170.3,137.2l-3.6,49.2a5.5,5.5,0,0,0,5.5,6H147.1a5.3,5.3,0,0,1-5.1-6.7l12.6-48.5Z"/><path class="j" d="M171.2,137.2l-3.7,49.2a5.6,5.6,0,0,0,5.6,6H148a5.3,5.3,0,0,1-5.1-6.7l12.6-48.5Z"/><path class="d" d="M142.9,188.6h39.8a3.1,3.1,0,0,1,3.2,3.1v.7H148.6C143.5,192.4,142.9,188.6,142.9,188.6Z"/><rect class="c" x="119" y="100.1" width="98" height="78.95" rx="3.1" transform="translate(336.1 279.1) rotate(180)"/><rect class="f" x="121.7" y="104.6" width="92.7" height="69.85"/><g class="g"><rect class="k" x="130.7" y="112.5" width="5.6" height="2.19"/><rect class="l" x="138.2" y="112.5" width="11.9" height="2.19"/><rect class="l" x="138.2" y="148.4" width="11.9" height="2.19"/><rect class="l" x="138.2" y="164.4" width="11.9" height="2.19"/><rect class="l" x="138.2" y="144.4" width="11.9" height="2.19"/><rect class="m" x="141.4" y="116.5" width="20.4" height="2.19"/><rect class="m" x="145.9" y="128.5" width="37.7" height="2.19"/><rect class="m" x="175.8" y="120.5" width="29.5" height="2.19"/><rect class="k" x="163.2" y="116.5" width="20.4" height="2.19"/><rect class="k" x="141.4" y="120.5" width="33.1" height="2.19"/><rect class="k" x="145.9" y="136.5" width="59.4" height="2.19"/><rect class="h" x="185" y="116.5" width="20.4" height="2.19"/><rect class="m" x="145.9" y="132.5" width="15.9" height="2.19"/><rect class="k" x="163.2" y="132.5" width="20.4" height="2.19"/><rect class="h" x="185" y="132.5" width="20.4" height="2.19"/><rect class="k" x="185" y="128.5" width="20.4" height="2.19"/><rect class="h" x="141.4" y="124.5" width="63.9" height="2.19"/><rect class="m" x="141.4" y="152.4" width="20.4" height="2.19"/><rect class="m" x="175.8" y="156.4" width="29.5" height="2.19"/><rect class="k" x="163.2" y="152.4" width="20.4" height="2.19"/><rect class="k" x="141.4" y="156.4" width="33.1" height="2.19"/><rect class="h" x="185" y="152.4" width="20.4" height="2.19"/><rect class="h" x="141.4" y="160.4" width="63.9" height="2.19"/><rect class="h" x="141.4" y="140.4" width="63.9" height="2.19"/><rect class="k" x="130.7" y="116.5" width="5.6" height="2.19"/><rect class="k" x="130.7" y="120.5" width="5.6" height="2.19"/><rect class="k" x="130.7" y="124.5" width="5.6" height="2.19"/><rect class="k" x="130.7" y="128.5" width="5.6" height="2.19"/><rect class="k" x="130.7" y="132.5" width="5.6" height="2.19"/><rect class="k" x="130.7" y="136.5" width="5.6" height="2.19"/><rect class="k" x="130.7" y="140.4" width="5.6" height="2.19"/><rect class="k" x="130.7" y="144.4" width="5.6" height="2.19"/><rect class="k" x="130.7" y="148.4" width="5.6" height="2.19"/><rect class="k" x="130.7" y="152.4" width="5.6" height="2.19"/><rect class="k" x="130.7" y="156.4" width="5.6" height="2.19"/><rect class="k" x="130.7" y="160.4" width="5.6" height="2.19"/><rect class="k" x="130.7" y="164.4" width="5.6" height="2.19"/></g><polygon class="c" points="357 231.9 80.7 231.9 79.3 208.1 357 208.1 357 231.9"/><polygon class="e" points="357 220 80.7 220 78.9 208.1 357 208.1 357 220"/><rect class="c" x="44.3" y="192.4" width="349" height="15.72"/><rect class="e" x="44.3" y="200.2" width="349" height="7.86"/><path class="c" d="M80.7,231.9v162h0a6.2,6.2,0,0,0,6.1-5.5l17.1-156.5Z"/><path class="c" d="M357,231.9v162h0a6.2,6.2,0,0,1-6.1-5.5L333.7,231.9Z"/><path class="h" d="M179,362.4c-.8,4.2-1.8,8.2-1.8,8.2s-16.1,6.8-14.3,1.8a78.1,78.1,0,0,0,3-10c.9-3.4,5.2-10.4,10.1-8.9C178.3,354.1,179,362.4,179,362.4Z"/><path class="n" d="M175,245.6c-3,12.4-6.2,21.6-5.3,47.6,1.2,34.8.8,53.7-5.4,75.6a10.9,10.9,0,0,1,3.4-2.9c3.8-1.9,9,.3,10.1,3.8,0,0,5.6-28.5,8.4-41.5,5.1-23.3,16.3-34.2,11.1-63.4Z"/><path class="o" d="M169.7,393.9c5.5,0,7.2-3.7,7.2-5.9s-1.5-4.6-1.1-7.2,2.3-5.8,2.2-9.7c-.1-1.9-1.3-7.9-6.5-7-3.7.6-6.6,4.2-8.6,8.3a43.3,43.3,0,0,0-3.6,16.1C159.5,393,161.7,393.9,169.7,393.9Z"/><path class="h" d="M253.5,356.6c.4,4.1,2.6,7.8,3.2,11.1,0,0,13.8,3.1,12.3,0s-1.5-6.2-1.9-11.1-9.7-6.2-11.8-3.9S253.5,356.6,253.5,356.6Z"/><path class="n" d="M264.4,258.5c2.6,15.7,2.5,92.6,4.6,109.2,0,0-8.9-6.4-13.1-.8,0,0-9.5-40.9-14.9-61.8s-6.9-27-5.4-40.8Z"/><path class="o" d="M260.4,379.5c-2.2-2.8-3.7-4.7-4-7.4s-.4-2.9-.6-4.4,1.3-5.3,5-5.3,7.7,4.3,9.5,7.3,9.7,10,10.6,16.8-2,7.4-11.2,7.4S262.4,382,260.4,379.5Z"/><path class="n" d="M187.9,231.2c-15.5,7.3-17.1,26.4-10.9,32.6s30.1,4.7,45.4,4.7h28.8c9.4,0,21.5-6.2,20.4-17.4s-12-14.1-12-14.1Z"/><path class="p" d="M258.5,135.3c8.6,8,12.3,29.5,13.5,44.6s-.6,24.6-4.7,26.5-17.6,1.3-21.8-10.1v-8.1c7.2-1.5,10.1,0,10.1,0s-2.6-18.4-4.2-24.6S258.5,135.3,258.5,135.3Z"/><path class="o" d="M256.7,197c-.3-3.2-1.1-8.8-1.1-8.8s-2.9-1.5-10.1,0v1.9C253.1,192.2,257,199.6,256.7,197Z"/><path class="e" d="M256.8,146c-2.5,6.9-6.6,13.2-5.4,17.6s7.8,19,8.7,25c-.3-8.3,2.3-24.3-1-44.7A9.9,9.9,0,0,1,256.8,146Z"/><path class="q" d="M187.9,189.7c6.2-.7,12.3,2.8,12.3,8.2H189.6Z"/><path class="r" d="M174.6,208.3c7.2,0,17.4-8.9,19-10.4s1-11.5-7.6-9.3Z"/><path class="o" d="M186,188.6l-1.9,3.2a22.8,22.8,0,0,1-.4,5.7s3.7-6.5,8.7-7.6h0C191.1,188.5,189.1,187.8,186,188.6Z"/><path class="s" d="M199.4,95.6c-2.2-2.2-2.7,1.4-1.3,5.3s2.9,6.6,4.4,6.9c3.4.9,4.2,2.5,4.2,6.1s-.4,8.4-1.3,10.6-9,9.1-9,9.1h44.8s-10.1-6-11.3-10.1-1.1-9.9-.4-12.1,2.6-1.7,3.4-6.7c.6-.8,2.2,2.9,4.2-3.9s0-8.7-2.9-6.1C229.3,96.9,199.4,95.6,199.4,95.6Z"/><path class="c" d="M200.1,75.2a27.2,27.2,0,0,0-2.4,19.2c2.3,10.1,10.4,19.9,20.1,19.9,7.9,0,15.3-9.4,18.7-17a25.5,25.5,0,0,0-2-23.8c-3.8-5.8-9.3-8.7-16.7-8.7C206.1,64.8,201.8,72.1,200.1,75.2Z"/><path class="p" d="M181.8,133.3c10.6-5.7,22.4-8,37.1-8s26.6-.6,39.6,10a260.8,260.8,0,0,1,.4,36.6c-1.4,19.3-1.9,24.7,1.9,33.8s5.2,30.1,6.5,39.5c0,0-5.9,13.3-42.7,13.3s-42.6-10.2-41.2-17.7,2.3-26.8,3.8-37.1-.3-11.2-.3-21.3S186.7,148,181.8,133.3Z"/><path class="e" d="M183.4,240.8c3.6-12.5,1.2-27.1.2-41.5s4.3-40.6,4.1-50.4l.3.6c.9,10.3.2,8.8,2,22.5,1.5,11.6.3,59.9,4.3,33.5C192.7,215.8,184.7,233.3,183.4,240.8Z"/><path class="p" d="M186,188.6l1.9-29.9s.8-28.1-6.1-25.4c-12.3,4.7-15.4,56.2-15.7,65.7-.1,5.9,4.3,9.3,8.5,9.3C180.4,208.3,185.5,196.4,186,188.6Z"/><path class="t" d="M166.7,175.7H271a4.9,4.9,0,0,1,4.9,4.9v23.2a25.7,25.7,0,0,1-25.7,25.7H187.5a25.7,25.7,0,0,1-25.7-25.7V180.7a4.9,4.9,0,0,1,4.9-4.9Z"/><path class="t" d="M169.9,279.3,155.4,393.9h0a8.9,8.9,0,0,0,8.8-7.1l21.7-88.6h32.9V279.3Z"/><path class="u" d="M267.7,279.3l14.5,114.6h0a9,9,0,0,1-8.8-7.1l-21.6-88.6h-33V279.3Z"/><path class="c" d="M271.3,279.3H166.4a4.6,4.6,0,0,1-4.6-4.6h0a7.4,7.4,0,0,1,7.3-7.4h99.4a7.4,7.4,0,0,1,7.4,7.4h0A4.7,4.7,0,0,1,271.3,279.3Z"/><path class="u" d="M184.3,210.7l11.4,87.5h-6.5l-13.3-95.5h0C180.1,202.7,183.7,206,184.3,210.7Z"/><path class="t" d="M189.2,298.2h-5.5l-10.6-91.9a3,3,0,0,1,2.8-3.6h0Z"/><path class="t" d="M253.3,210.7l-11.4,87.5h6.6l13.3-95.5h0C257.6,202.7,254,206,253.3,210.7Z"/><path class="u" d="M248.5,298.2h5.4l10.7-91.9a3.1,3.1,0,0,0-2.8-3.6h0Z"/><path class="b" d="M94.8,192.4h29.1a2.3,2.3,0,0,0,2.3-2.8L118,150.3a3.9,3.9,0,0,0-3.8-3.1H85.1a2.3,2.3,0,0,0-2.3,2.8L91,189.3A3.9,3.9,0,0,0,94.8,192.4Z"/><path class="b" d="M95.6,192.4h29.1a2.3,2.3,0,0,0,2.2-2.8l-8.1-39.3a3.9,3.9,0,0,0-3.8-3.1H85.9a2.3,2.3,0,0,0-2.3,2.8l8.2,39.3A3.8,3.8,0,0,0,95.6,192.4Z"/><polygon class="b" points="118 150.3 126.2 189.6 93.3 189.3 85.2 150 118 150.3"/><g class="g"><polygon class="v" points="120.7 180 95.1 180 92.6 168 118.2 168 120.7 180"/><polygon class="v" points="115.2 153.6 89.6 153.6 89.3 152 114.8 152 115.2 153.6"/><polygon class="v" points="118.1 167.4 92.5 167.4 90 155.5 115.6 155.5 118.1 167.4"/><path class="v" d="M100.2,187.6H97.8a1.3,1.3,0,0,1-1.3-1l-.5-2.5a.8.8,0,0,1,.8-1.1h2.5a1.4,1.4,0,0,1,1.3,1.1l.5,2.5A.8.8,0,0,1,100.2,187.6Z"/><path class="v" d="M107.2,187.6h-2.4a1.3,1.3,0,0,1-1.3-1l-.6-2.5a.9.9,0,0,1,.9-1.1h2.5a1.5,1.5,0,0,1,1.3,1.1l.5,2.5A.8.8,0,0,1,107.2,187.6Z"/><path class="v" d="M114.2,187.6h-2.5a1.4,1.4,0,0,1-1.3-1l-.5-2.5a.9.9,0,0,1,.9-1.1h2.4a1.4,1.4,0,0,1,1.3,1.1l.6,2.5A.8.8,0,0,1,114.2,187.6Z"/><path class="v" d="M121.2,187.6h-2.5a1.3,1.3,0,0,1-1.3-1l-.5-2.5a.9.9,0,0,1,.9-1.1h2.4a1.4,1.4,0,0,1,1.3,1.1l.5,2.5C122.2,187.2,121.8,187.6,121.2,187.6Z"/></g><path class="w" d="M325.7,108.9,298,91.2a.9.9,0,0,1-.2-1.5l23-26.5a1.1,1.1,0,0,1,1.4-.2l18.9,12.1a1.1,1.1,0,0,1,.4,1.3l-14.3,32.1A1,1,0,0,1,325.7,108.9Z"/><rect class="c" x="336.7" y="47.4" width="2.6" height="23.54" transform="translate(84.9 -172.5) rotate(32.5)"/><path class="c" d="M375.2,88.9c0,1.3-.8,2.4-1.8,2.4a2.2,2.2,0,0,1-1.9-2.4c0-1.4.8-2.5,1.9-2.5S375.2,87.5,375.2,88.9Z"/><path class="p" d="M369.3,86.4c-1,0-1.8,1.1-1.8,2.5s.8,2.4,1.8,2.4h4.1a2.2,2.2,0,0,1-1.9-2.4c0-1.4.8-2.5,1.9-2.5Z"/><path class="c" d="M372.1,86.4l-33-28.6-2.3,2.6,32.9,28.5s.7.4,1.1-.7S372.1,86.4,372.1,86.4Z"/><path class="c" d="M368.6,91.3l-16.7,96.1,3.4.6,16.8-96.7s-.4-1.1-2.4-.9A1.1,1.1,0,0,0,368.6,91.3Z"/><rect class="w" x="331.3" y="187.4" width="46.9" height="4.98"/><path class="x" d="M107.6,58c-.1,12.1-25,19.5-31.4,37.6,2-5.5,6.9-29.2,21.1-37C100.6,56.8,104.4,56.1,107.6,58Z"/><path class="y" d="M54.1,73.2c3.6-.9,6.8,1,9.2,3.7,10.9,12.2,6.3,35.5,5.8,40.7C70.7,98.2,50.3,84.7,54.1,73.2Z"/><path class="z" d="M115.9,78.9c-1.5,18.8-39.2,27-46.5,57.1,1.6-6.7,6.8-45.3,30.7-57C105.2,76.4,111.2,75.6,115.9,78.9Z"/><path class="aa" d="M37.9,105.2c2.7-2.2,6.2-2,9.4-.7,13.4,5.5,17.1,22.9,19.9,33C62.4,119.8,39.7,116.1,37.9,105.2Z"/><path class="ab" d="M4.9,136c3.9-12.5,23.4-12,37.5-4.2,16.8,9.1,23.5,23.6,30,36.5-4.7-9.4-16.5-19.3-35.2-22.8C23.6,142.8,12.3,144.3,4.9,136Z"/><path class="ac" d="M105.4,123.8c2.4,16-27.9,32.6-24.8,60-.8-6.8-7.6-40.5,11.2-56.5C95.6,123.9,100.6,121.8,105.4,123.8Z"/><path class="ad" d="M105.2,166.9c3.5,11.4-16.8,24.8-14.2,44.2-.6-4.5-6.4-28.2,4.9-40.6C98.4,167.8,101.6,166,105.2,166.9Z"/><path class="ae" d="M126.6,186.3c2.8,15-25.5,28.8-27.7,53.4.7-7.4-.3-37.1,15.3-50.2C117.8,186.5,122.2,184.6,126.6,186.3Z"/><path class="af" d="M21.7,198.7c2.5-11.3,17.9-13.7,31.4-9.1,33.1,11.2,40,44,43.9,55C83.2,205.5,38.7,214.8,21.7,198.7Z"/><path class="ag" d="M18.9,170.9c4.4-12.3,23.5-10.1,35.8-3.5,16.6,8.8,24.1,23.2,30.4,33.3-7.1-11.4-21.8-17.8-35.2-20.2S25.5,179.1,18.9,170.9Z"/><g class="ah"><path d="M100.2,245.3v2.5h0a1.4,1.4,0,0,1-.5,1,51.9,51.9,0,0,1,1.2,7.9h0a1.1,1.1,0,0,1-1.1,1.2h0a1.1,1.1,0,0,1-.8-.3c.1,1.9.2,3.9.2,5.8a143.1,143.1,0,0,1-6.1,40.3,1.2,1.2,0,0,0,.8,1.5h.3a1.1,1.1,0,0,0,1.1-.8h0a144.4,144.4,0,0,0,6.2-41,131.8,131.8,0,0,0-1.3-18.1M87.1,206.7h0a173.7,173.7,0,0,1,10,33.4l.9,2.5c.1-2.4.2-4.7.5-7a170.8,170.8,0,0,0-5.1-18.4,1,1,0,0,1-.8,1h-.3a1.2,1.2,0,0,1-1.1-.9,49.8,49.8,0,0,1-1.4-6.7h-.1a1,1,0,0,1-1-.7c-.5-1.1-1-2.3-1.6-3.4M83,190.8c.2.6.4,1.2.7,1.9h0a1.1,1.1,0,0,1-.7,1.4h-.4a.9.9,0,0,1-.7-.3c0,.2.1.3.1.4a65.2,65.2,0,0,1,7.2,11.5c-2-5.2-4.1-10.2-6.2-15M67.2,143.6a101.8,101.8,0,0,0,2.6,17.3c.1.6.3,1.2.4,1.8a80.3,80.3,0,0,1,7.3,15h0a1.2,1.2,0,0,1-.7,1.5h-.4a1.1,1.1,0,0,1-.7-.3c1.6,4.1,3.4,8.3,5.2,12.6a45.1,45.1,0,0,1-2-10.7A149.8,149.8,0,0,1,72,160.4a99,99,0,0,1-2.3-14.3,1.3,1.3,0,0,1-1.1.8h0a1.1,1.1,0,0,1-1.2-1.1V144a.8.8,0,0,1-.2-.4m.6-21.1a94.5,94.5,0,0,0-.8,10.6c.4,1.1.7,2.3,1.1,3.5a55.9,55.9,0,0,1,1.2-5.6c.1-2.2.3-4.5.6-6.7a1.1,1.1,0,0,1-1.1.7h-.1a1.1,1.1,0,0,1-1-1.2,5.7,5.7,0,0,1,.1-1.3M84.7,77c-.2,0-.4.2-.6.4a104.8,104.8,0,0,0-13.8,31.8c.1,1.6.1,3.2.1,4.9a83.8,83.8,0,0,1-.4,8.6,111.6,111.6,0,0,1,4.7-20.4,1.3,1.3,0,0,1-1.1.8h-.4a1.2,1.2,0,0,1-.7-1.5A103.4,103.4,0,0,1,83.3,79.1,19.1,19.1,0,0,1,84.7,77"/><path d="M101.1,61.1a1,1,0,0,0-.7.2A68.8,68.8,0,0,0,84.7,77h.4l.6.2a1.1,1.1,0,0,1,.3,1.6,98.6,98.6,0,0,0-11.3,23.6h0a97.4,97.4,0,0,1,10.5-22,65.8,65.8,0,0,1,16.6-17.2,1.1,1.1,0,0,0,.2-1.6,1,1,0,0,0-.9-.4"/><path d="M85.1,76.9h-.4a19.1,19.1,0,0,0-1.4,2.1,103.4,103.4,0,0,0-10.8,22.4,1.2,1.2,0,0,0,.7,1.5h.4a1.3,1.3,0,0,0,1.1-.8A98.6,98.6,0,0,1,86,78.7a1.1,1.1,0,0,0-.3-1.6l-.6-.2"/><path d="M70,122.7c0,.6-.1,1.1-.1,1.6V124a5.3,5.3,0,0,0,.1-1.3M58.7,77.8l-.6.2a1.1,1.1,0,0,0-.3,1.6c7.7,11,10.3,21.9,10.3,34.5q0,4.1-.3,8.4a100.5,100.5,0,0,1,2.5-13.3A58.6,58.6,0,0,0,59.7,78.3a1.4,1.4,0,0,0-1-.5"/><path d="M70.3,109.2a100.5,100.5,0,0,0-2.5,13.3,5.7,5.7,0,0,0-.1,1.3,1.1,1.1,0,0,0,1,1.2h.1a1.1,1.1,0,0,0,1.1-.7c0-.5.1-1,.1-1.6a83.8,83.8,0,0,0,.4-8.6c0-1.7,0-3.3-.1-4.9"/><path d="M105.6,83.5a.7.7,0,0,0-.6.2c-9.7,6.1-19.1,15.7-26,26.5A76.9,76.9,0,0,0,69.3,131c-.1,1.7-.1,3.5-.1,5.3a81.5,81.5,0,0,0,.5,9.8v-.4h0v-1.4c0-10.6,4.4-22.4,11.2-32.9s16-19.9,25.3-25.8a1.1,1.1,0,0,0,.3-1.6,1.1,1.1,0,0,0-.9-.5"/><path d="M69.3,131a55.9,55.9,0,0,0-1.2,5.6,45.3,45.3,0,0,1,1.3,6.6h0a1.2,1.2,0,0,1-1,1.3h-.1a1.1,1.1,0,0,1-.9-.5v1.8a1.1,1.1,0,0,0,1.2,1.1h0a1.3,1.3,0,0,0,1.1-.8,81.5,81.5,0,0,1-.5-9.8c0-1.8,0-3.6.1-5.3"/><path d="M44.3,107a1.1,1.1,0,0,0-.6,2.1,46.5,46.5,0,0,1,23.4,34.4h.1c-.2-2.5-.3-4.9-.3-7.3s0-2.1.1-3.2a49.7,49.7,0,0,0-22.2-26h-.5"/><path d="M67,133.1c-.1,1.1-.1,2.1-.1,3.2s.1,4.8.3,7.3a.8.8,0,0,0,.2.4,37.8,37.8,0,0,1,.7-7.4c-.4-1.2-.7-2.4-1.1-3.5"/><path d="M68.1,136.6a37.8,37.8,0,0,0-.7,7.4,1.1,1.1,0,0,0,.9.5h.1a1.2,1.2,0,0,0,1-1.3h0a45.3,45.3,0,0,0-1.3-6.6"/><path d="M18.1,133.5h-.8a1.1,1.1,0,0,0,0,2.2h.8a57.6,57.6,0,0,1,34,10.6c9.9,7.1,18,17.8,23.3,32.2a.5.5,0,0,0,.3.5,136,136,0,0,1-5.5-16.3,64.1,64.1,0,0,0-16.8-18.2,59.8,59.8,0,0,0-35.3-11"/><path d="M70.2,162.7A136,136,0,0,0,75.7,179a1.1,1.1,0,0,0,.7.3h.4a1.2,1.2,0,0,0,.7-1.5h0a80.3,80.3,0,0,0-7.3-15"/><path d="M80.9,191.6l.6,1.9a.8.8,0,0,0,.4.4,22.9,22.9,0,0,1-1-2.3m16.8-61.8a1.1,1.1,0,0,0-.8.3C85.1,142.8,78.8,161.2,78.8,177c0,1.4,0,2.7.1,3.9,1.3,3.3,2.7,6.5,4.1,9.9A46.1,46.1,0,0,1,81.1,177c0-15.2,6.1-33.2,17.5-45.3a1.1,1.1,0,0,0-.1-1.6,1.1,1.1,0,0,0-.8-.3"/><path d="M78.9,180.9a45.1,45.1,0,0,0,2,10.7,22.9,22.9,0,0,0,1,2.3.9.9,0,0,0,.7.3H83a1.1,1.1,0,0,0,.7-1.4h0c-.3-.7-.5-1.3-.7-1.9-1.4-3.4-2.8-6.6-4.1-9.9"/><path d="M100.5,171.4a1.4,1.4,0,0,0-1,.5,56,56,0,0,0-10.1,32v2.4c.5,1,1,1.9,1.4,2.9a1.1,1.1,0,0,1,0,.8c.9,2.4,1.8,4.8,2.6,7.3v-.4a47.4,47.4,0,0,1-1.7-13,53.3,53.3,0,0,1,9.7-30.7,1,1,0,0,0-.3-1.5l-.6-.3"/><path d="M90.8,210a1.1,1.1,0,0,1-.6.7h-.4a49.8,49.8,0,0,0,1.4,6.7,1.2,1.2,0,0,0,1.1.9h.3a1,1,0,0,0,.8-1c-.8-2.5-1.7-4.9-2.6-7.3"/><path d="M119.7,191.7a1.2,1.2,0,0,0-.9.4,76.8,76.8,0,0,0-20.3,43.6c.7,3.1,1.2,6.3,1.7,9.6a74.7,74.7,0,0,1,20.3-51.7,1.1,1.1,0,0,0-.1-1.6,1.1,1.1,0,0,0-.7-.3"/><path d="M98.5,235.7c-.3,2.3-.4,4.6-.5,7a60.9,60.9,0,0,1,1.7,6.1,1.4,1.4,0,0,0,.5-1h0v-2.5c-.5-3.3-1-6.5-1.7-9.6"/><path d="M36.5,195.9a1.1,1.1,0,0,0-1.1,1.1,1.1,1.1,0,0,0,1.1,1.2c16.5.9,31.6,8.5,42.7,19.4s18.4,25.2,19.4,39.2a.9.9,0,0,0,.4.8,86.6,86.6,0,0,0-.7-8.9,1.3,1.3,0,0,1-.4-.9v-2.4c-.2-1.7-.5-3.5-.8-5.2A70.4,70.4,0,0,0,80.8,216c-11.5-11.3-27-19.1-44.2-20.1h-.1"/><path d="M98.3,248.7a86.6,86.6,0,0,1,.7,8.9,1.1,1.1,0,0,0,.8.3h0a1.1,1.1,0,0,0,1.1-1.2h0a51.9,51.9,0,0,0-1.2-7.9h-.6l-.8-.2m-1.2-8.5c.3,1.7.6,3.5.8,5.2a24.4,24.4,0,0,1,.1-2.7l-.9-2.5"/><path d="M97.9,245.4v2.4a1.3,1.3,0,0,0,.4.9c-.1-1.1-.2-2.2-.4-3.3"/><path d="M98,242.7a24.4,24.4,0,0,0-.1,2.7c.2,1.1.3,2.2.4,3.3l.8.2h.6a60.9,60.9,0,0,0-1.7-6.1"/><path d="M89.2,205.8h.1a.8.8,0,0,0,.2.5h-.1c0-.2-.1-.3-.2-.5m-58.5-37a1.1,1.1,0,0,0-1.1,1.1,1.1,1.1,0,0,0,1.1,1.2,64,64,0,0,1,56.4,35.6c-1.6-4.2-3.4-8.4-5.1-12.4a66.1,66.1,0,0,0-51.3-25.5h0"/><path d="M82,194.3c1.7,4,3.5,8.2,5.1,12.4.6,1.1,1.1,2.3,1.6,3.4a1,1,0,0,0,1,.7h.1a31.5,31.5,0,0,1-.3-4.4.8.8,0,0,1-.2-.5h-.1A65.2,65.2,0,0,0,82,194.3"/><path d="M89.4,206.3h.1l1.3,3.6a1.1,1.1,0,0,0,0-.8c-.4-1-.9-1.9-1.4-2.9"/><path d="M89.5,206.4a31.5,31.5,0,0,0,.3,4.4h.4a1.1,1.1,0,0,0,.6-.7l-1.3-3.6"/></g><path class="ai" d="M114.6,393.9H80.8a15.9,15.9,0,0,1-15.8-15l-5-93a7.6,7.6,0,0,1,7.6-8h60.3a7.5,7.5,0,0,1,7.5,8l-5,93A15.8,15.8,0,0,1,114.6,393.9Z"/><path class="aj" d="M123.6,63.2c0-.9,11.3-5.7,12.2-13.4,1.7-13.7,10.4,9.7,18.5,9.7,13.9,0,20,3.6,19.8,7.9s-16,7.4-29.3,6.9C133.9,73.9,123.6,69.6,123.6,63.2Z"/><path class="ak" d="M164.6,35.2a14.7,14.7,0,0,1-4.5-13.3,16.2,16.2,0,0,0,.1-2.2,10.7,10.7,0,0,0-21.3.5,10.9,10.9,0,0,0,.3,2.6,14.6,14.6,0,0,1-3.4,13.6,20.7,20.7,0,0,0-5.6,14c0,12.4,4.8,18.4,11.7,20.3a16.7,16.7,0,0,1,6.5-1.2,15.3,15.3,0,0,1,6.2,1.1c8.6-1.7,12.6-5.9,15.5-15.5C172.3,47.4,168.8,39,164.6,35.2Z"/><path d="M164.6,35.2a14.7,14.7,0,0,1-4.5-13.3,16.2,16.2,0,0,0,.1-2.2A10.7,10.7,0,0,0,149.9,9.6h-1.5V69.5a16.3,16.3,0,0,1,7,1.4c8-1.3,11.9-6.5,14.7-15.8C172.3,47.4,168.8,39,164.6,35.2Z"/><path class="al" d="M134.7,52.9c0-8.1,6.5-26.9,14.5-26.9s14.5,18.9,14.5,26.9a14.5,14.5,0,1,1-29,0Z"/><path class="am" d="M149.2,26h-.8V67.4h.8a14.5,14.5,0,0,0,14.5-14.5C163.7,44.9,157.2,26,149.2,26Z"/><ellipse class="an" cx="143.9" cy="21.9" rx="2.4" ry="3.2"/><ellipse class="ao" cx="143.9" cy="22.7" rx="1.2" ry="2.1"/><ellipse class="an" cx="152.4" cy="21.9" rx="2.4" ry="3.2"/><ellipse class="ao" cx="152.4" cy="22.7" rx="1.2" ry="2.1"/><path class="ap" d="M155.6,27.5c.7,1.6-5.2,4.8-7.3,4.8s-7.9-3.8-7.2-4.8,4.4-4.9,6.9-4.9S155,26.3,155.6,27.5Z"/><path class="aq" d="M155.6,27.5c-.5-1.1-5.1-4.4-7.2-4.9v9.7C150.5,32.2,156.3,29.1,155.6,27.5Z"/><path class="ar" d="M164.6,53.4c1,2.1,2.6,4,4.6,4.4a3.6,3.6,0,0,1,2.8,3.1c0,.3.1.5.1.7a9.2,9.2,0,0,0,1.7,3.6,2.7,2.7,0,0,1-1.6,4.2L157,72.3a4,4,0,0,1-4.1-5.9l8.4-13.1A1.9,1.9,0,0,1,164.6,53.4Z"/><path class="as" d="M148.3,31.3c-2.2,0-4.4-1-6.6-3.1l.8-.8c2.2,2.1,4.3,3.1,6.4,2.8a6.6,6.6,0,0,0,4.5-2.7l.9.6a7.9,7.9,0,0,1-5.3,3.2Z"/><path class="at" d="M148.9,30.2h-.5v1h.6a7.9,7.9,0,0,0,5.3-3.2l-.9-.6A6.6,6.6,0,0,1,148.9,30.2Z"/><circle cx="166.7" cy="55.8" r="4.9"/><path class="ak" d="M133.8,50.4s5.2,6.4,8.9,7.8-1.8,5.6-6.8,2.4S133.8,50.4,133.8,50.4Z"/><path class="au" d="M131,53.4c-1.1,2.1-2.7,4-4.7,4.4a3.7,3.7,0,0,0-2.8,3.1,1.5,1.5,0,0,1-.1.7,7.8,7.8,0,0,1-1.6,3.6,2.6,2.6,0,0,0,1.6,4.2l15.2,2.9a3.9,3.9,0,0,0,4-5.9l-8.4-13.1A1.8,1.8,0,0,0,131,53.4Z"/></g></svg>