<svg xmlns="http://www.w3.org/2000/svg" xmlns:xlink="http://www.w3.org/1999/xlink" viewBox="0 0 400 400"><defs><style>.a{isolation:isolate;}.b{fill:url(#a);}.c{font-size:35.56px;font-family:YekanBakh-Bold, YekanBakh Bold;font-weight:700;}.c,.g,.s,.u{fill:#fff;}.d,.n,.p{fill:#37b5e8;}.d{opacity:0.2;}.e{fill:#27debf;}.f{fill:url(#b);}.h{fill:url(#c);}.i{fill:#0e71bb;}.j{fill:#2793d6;}.k{fill:#56bbed;}.l{fill:#fafafa;}.m{fill:#005284;}.n{opacity:0.3;}.o{fill:#455a64;}.ae,.ai,.p{opacity:0.5;}.q{fill:#21e2e2;}.r{fill:#f5f5f5;}.s,.t{opacity:0.6;}.u{opacity:0.8;}.v{fill:#ffe7cb;}.w{fill:#f59b6b;}.x{fill:#263238;}.y{fill:url(#d);}.z{fill:#1f364c;}.aa{fill:#152735;}.ab{fill:url(#e);}.ac{fill:#2b454e;}.ad{opacity:0.25;}.ad,.ae{mix-blend-mode:overlay;}.af{fill:#ebebeb;}.ag{fill:#e0e0e0;}.ah{fill:#e6e6e6;}.ai{mix-blend-mode:multiply;}.aj{fill:#b2d3ea;}.ak{fill:#0050af;}.al{fill:#197bdd;}.am{fill:#d4ecff;}.an{fill:#4ea4f9;}</style><linearGradient id="a" x1="1.19" y1="400.48" x2="1.19" y2="400.91" gradientTransform="matrix(740.56, 0, 0, -612.51, -676.44, 245617.49)" gradientUnits="userSpaceOnUse"><stop offset="0" stop-color="#c6e6ff"/><stop offset="1" stop-color="#fff"/></linearGradient><linearGradient id="b" x1="277.95" y1="170.81" x2="307.17" y2="170.81" gradientUnits="userSpaceOnUse"><stop offset="0" stop-color="#44989f"/><stop offset="0.21" stop-color="#39b0b4"/><stop offset="0.52" stop-color="#2ccbcd"/><stop offset="0.8" stop-color="#24dcdd"/><stop offset="1" stop-color="#21e2e2"/></linearGradient><linearGradient id="c" x1="286.82" y1="181.83" x2="315.92" y2="181.83" gradientUnits="userSpaceOnUse"><stop offset="0" stop-color="#ffbc98"/><stop offset="1" stop-color="#ff9f6c"/></linearGradient><linearGradient id="d" x1="244.83" y1="258.96" x2="257.86" y2="258.96" gradientUnits="userSpaceOnUse"><stop offset="0" stop-color="#030947"/><stop offset="0.16" stop-color="#020637"/><stop offset="0.39" stop-color="#010327"/><stop offset="0.65" stop-color="#00011d"/><stop offset="1" stop-color="#00001a"/></linearGradient><linearGradient id="e" x1="254.64" y1="253.21" x2="267.67" y2="253.21" xlink:href="#d"/></defs><title>vps-org</title><g class="a"><path class="b" d="M205.3,91.7c41.3,26.3,88.5,38.2,88.5,38.2s52.1,7.9,32.9,67.1-21.6,80.4-51.6,82c-28.4.8-44.4-11-72.5-8.9-24.8,1.9-41.8,13-83.1-3.3C53.3,237.6,58.3-1.1,205.3,91.7Z"/><text class="c" transform="translate(63.9 -40.6)">)یزاجم روس( هحفص یلصا ریوصت</text><path class="d" d="M297.2,206.5l-72.7-42a1.1,1.1,0,0,0-1.1,0l-81.3,46.9L120,198.8a1.1,1.1,0,0,0-1.1,0L79,221.8c-.3.1-.3.4,0,.6l28.1,16.3,10.3-5.9,67.1,38.8h1.1l111.6-64.5C297.5,206.9,297.5,206.6,297.2,206.5Z"/><ellipse class="d" cx="256" cy="258.7" rx="18.6" ry="10.7"/><path class="e" d="M287.1,200.1l-8.9-4.8a205.4,205.4,0,0,1,.3-24.5c1.5-15.2,12.9-32.9,24.6-28.6s-5.4,19.8-9.2,32.7S287.1,200.1,287.1,200.1Z"/><path class="f" d="M287.1,200.1l-8.9-4.8a205.4,205.4,0,0,1,.3-24.5c1.5-15.2,12.9-32.9,24.6-28.6s-5.4,19.8-9.2,32.7S287.1,200.1,287.1,200.1Z"/><path class="g" d="M282.7,198.5h.1c.2,0,.3-.2.3-.4C282,164.2,298.8,147.2,299,147a.4.4,0,0,0-.5-.5c-.2.1-17.3,17.4-16.2,51.6A.4.4,0,0,0,282.7,198.5Z"/><path class="h" d="M291.7,202.8l-4.6-2.7a52.1,52.1,0,0,1,2.8-22.6c4.4-11.7,15.5-18.1,20.6-16.3s6.3,8.1,4,12S295.1,189.6,291.7,202.8Z"/><path class="g" d="M289.3,201.8h0c.2,0,.3-.2.3-.4,0-21.4,20.1-35.9,20.3-36.1a.4.4,0,0,0,.1-.5.5.5,0,0,0-.6-.1c-.2.1-20.6,14.9-20.5,36.7A.4.4,0,0,0,289.3,201.8Z"/><path class="i" d="M226,175.4s-1.5,0-1.6-2.1C223.7,174.5,224.6,176,226,175.4Z"/><path class="e" d="M123.5,228.8a5.6,5.6,0,0,0,2.7,4.4l58.2,33.6a5.5,5.5,0,0,0,5.3,0l102.5-59.1a5.9,5.9,0,0,0,2.7-4.5,5.6,5.6,0,0,0-2.7-4.4L234,165.2a5.5,5.5,0,0,0-5.3,0L126.2,224.3A5.9,5.9,0,0,0,123.5,228.8Z"/><path class="j" d="M294.9,203.2a5.9,5.9,0,0,1-2.7,4.5L189.7,266.8a5.6,5.6,0,0,1-2.6.7v-5.8a4.6,4.6,0,0,0,2.6-.7l102.5-59.1c1.3-.8,1.5-1.9.5-2.8A6,6,0,0,1,294.9,203.2Z"/><path class="k" d="M126.2,227.4,184.4,261a5.5,5.5,0,0,0,5.3,0l102.5-59.1c1.5-.9,1.5-2.3,0-3.1L234,165.2a5.5,5.5,0,0,0-5.3,0L126.2,224.3C124.7,225.2,124.7,226.6,126.2,227.4Z"/><path class="i" d="M187.1,261.7v5.8a5.7,5.7,0,0,1-2.7-.7l-58.2-33.6a5.6,5.6,0,0,1-2.7-4.4,5.9,5.9,0,0,1,2.4-4.3c-1.2.9-1.1,2.1.3,2.9L184.4,261A4.7,4.7,0,0,0,187.1,261.7Z"/><path class="e" d="M121,224.4c-1.3-.8-1.3-2.1-1.3-3.8V140.2a5.7,5.7,0,0,1,2.7-4.6L224.9,76.4a5.7,5.7,0,0,1,5.1-.1c1.4.8,1.3,2.2,1.3,3.9v80.4a5.8,5.8,0,0,1-2.6,4.6L126.2,224.3A5.6,5.6,0,0,1,121,224.4Z"/><path class="k" d="M231.3,80.2c0-1.7-1.1-2.4-2.6-1.6L126.2,137.8a6.1,6.1,0,0,0-1.9,2l-3.8-2.2h0a5.3,5.3,0,0,1,1.9-2L224.9,76.4a5.7,5.7,0,0,1,5.1-.1C231.4,77.1,231.3,78.5,231.3,80.2Z"/><path class="j" d="M123.5,142.4v80.4c0,1.7,1.2,2.4,2.7,1.5l102.5-59.1a5.8,5.8,0,0,0,2.6-4.6V80.2c0-1.7-1.1-2.4-2.6-1.6L126.2,137.8A5.9,5.9,0,0,0,123.5,142.4Z"/><path class="i" d="M125.9,224.5a5.6,5.6,0,0,1-4.9-.1c-1.3-.8-1.3-2.1-1.3-3.8V140.2a5.2,5.2,0,0,1,.8-2.6l3.8,2.2h0a5.2,5.2,0,0,0-.8,2.6v80.4C123.5,224.4,124.6,225.1,125.9,224.5Z"/><path class="l" d="M127.7,140.9l98.7-57c.9-.5,1.6-.1,1.6.9V155a3.4,3.4,0,0,1-1.6,2.7l-98.7,57c-.9.6-1.6.1-1.6-.9V143.7A3.4,3.4,0,0,1,127.7,140.9Z"/><path class="k" d="M133.6,224.5l95.1-54.9a3.2,3.2,0,0,1,2.7,0l1.6.9a.8.8,0,0,1,0,1.5l-95.1,54.9a3.2,3.2,0,0,1-2.7,0l-1.6-.9A.8.8,0,0,1,133.6,224.5Z"/><path class="i" d="M141.1,228.9,236.2,174a2.6,2.6,0,0,1,2.4-.1l24.8,14.3c.6.3.5,1-.3,1.4l-95,54.8a2.6,2.6,0,0,1-2.4.2l-24.9-14.3C140.2,230,140.3,229.4,141.1,228.9Z"/><path class="e" d="M223.5,197.1l3-1.7a.2.2,0,0,0,0-.3l-2.9-1.6h-.4l-3,1.7a.2.2,0,0,0,0,.3l2.8,1.6Zm-4.4-6-2.9,1.8c-.2,0-.2.1-.1.2l2.9,1.7h.4l3-1.7c.1,0,.1-.2,0-.2l-2.8-1.7Zm-9.6,5.6-5,2.9c-.2.1-.2.2-.1.3l2.9,1.6h.4l5.1-2.9a.2.2,0,0,0,0-.3l-2.9-1.6Zm5.3-3-3,1.7c-.1,0-.1.2,0,.2l2.8,1.7h.5l2.9-1.8c.2,0,.2-.1.1-.2l-2.9-1.7Zm-11.7,6.7-3,1.7a.2.2,0,0,0,0,.3l2.8,1.6h.5l3-1.7a.2.2,0,0,0,0-.3l-2.9-1.6Zm-4.4,2.5-2.9,1.7c-.2.1-.2.2-.1.3l2.9,1.6h.4l3-1.7a.2.2,0,0,0,0-.3l-2.8-1.6Zm11.2,6.7,3-1.7c.1-.1.1-.2,0-.2l-2.8-1.7h-.5l-2.9,1.7c-.2.1-.2.2-.1.3l2.9,1.6Zm-4.3,2.5,2.9-1.7c.2-.1.2-.2.1-.2l-2.9-1.7h-.4l-3,1.8c-.1,0-.1.1,0,.2l2.8,1.7Zm-4.4,2.5,3-1.7c.1,0,.1-.2,0-.2l-2.8-1.7h-.5l-2.9,1.7c-.2,0-.2.2-.1.2l2.9,1.7Zm-4.3,2.6,2.9-1.8c.2,0,.2-.1.1-.2l-2.9-1.7h-.4l-3,1.7c-.1.1-.1.2,0,.2l2.8,1.7Zm22.2-17.6,3-1.7a.2.2,0,0,0,0-.3l-2.8-1.6h-.5l-2.9,1.7c-.2.1-.2.2-.1.3l2.9,1.6Zm-4.8,7.5,6.6-3.8a.2.2,0,0,0,0-.3l-6.9-4h-.4l-3.5,2a.2.2,0,0,0,0,.3l3.7,2.1c.1.1.1.2,0,.2l-2.8,1.6a.2.2,0,0,0,0,.3l2.8,1.6Zm-19.9-1.7-3,1.7a.2.2,0,0,0,0,.3l2.8,1.6h.5l2.9-1.7c.2-.1.2-.2.1-.2l-2.9-1.7Zm-4.4,2.5-2.9,1.8c-.2,0-.2.1-.1.2l2.9,1.7h.4l3-1.7c.1-.1.1-.2,0-.2l-2.8-1.7Zm-24,26.9h.4l3-1.8c.1,0,.1-.2,0-.2l-2.9-1.7h-.4l-3,1.7c-.1,0-.1.2,0,.2ZM155.2,228l-3,1.8c-.1,0-.1.1,0,.2l2.9,1.7h.4l3-1.7c.1-.1.1-.2,0-.2l-2.8-1.7Zm5.5,5.1h.5l3-1.8c.1,0,.1-.1,0-.2l-2.9-1.7h-.4l-3,1.7c-.1.1-.1.2,0,.2Zm12.1,2.7,2.9-1.7c.2-.1.2-.2.1-.3l-2.9-1.6h-.4l-3,1.7c-.1.1-.1.2,0,.2l2.8,1.7Zm-4.8,2.5h.4l3-1.7a.2.2,0,0,0,0-.3l-2.8-1.6h-.5l-3,1.7a.2.2,0,0,0,0,.3Zm-8.4-12.8-3,1.7a.2.2,0,0,0,0,.3l2.8,1.6h.5l2.9-1.7c.2-.1.2-.2.1-.2l-2.9-1.7ZM181.3,213l-2.9,1.7c-.2.1-.2.2-.1.2l2.9,1.7h.4l3-1.8c.1,0,.1-.1,0-.2l-2.8-1.7Zm-17.4,10-2.9,1.7c-.2.1-.2.2-.1.3l2.9,1.6h.4l3-1.7a.2.2,0,0,0,0-.3l-2.8-1.6Zm21.8-12.5-3,1.7c-.1,0-.1.2,0,.2l2.8,1.7h.5l2.9-1.8c.2,0,.2-.2.1-.2l-2.9-1.7Zm-8.7,5-3,1.7c-.1.1-.1.2,0,.2l2.8,1.7h.5l2.9-1.7c.2-.1.2-.2.1-.3l-2.9-1.6Zm-4.4,2.5-2.9,1.7c-.2.1-.2.2-.1.3l2.9,1.6h.4l3-1.7a.2.2,0,0,0,0-.3l-2.8-1.6Zm-4.3,2.5-3,1.7a.2.2,0,0,0,0,.3l2.8,1.6h.5l2.9-1.7c.2-.1.2-.2.1-.3l-2.9-1.6Zm19.9,1.7,2.9-1.7c.2-.1.2-.2.1-.3l-2.9-1.6h-.4l-3,1.7a.2.2,0,0,0,0,.3l2.8,1.6A.4.4,0,0,0,188.2,222.2Zm40.6-36.6-3,1.7c-.2.1-.2.2-.1.3l2.9,1.6a.3.3,0,0,0,.4,0l3-1.7a.2.2,0,0,0,0-.3l-2.8-1.6Zm-5.3,3-3,1.8c-.1,0-.1.1,0,.2l2.8,1.6a.4.4,0,0,0,.5,0l2.9-1.7c.2-.1.2-.2.1-.2l-2.9-1.7Zm9.6-5.5-3,1.7c-.1.1-.1.2,0,.2l2.8,1.7c.2.1.4,0,.5,0l3-1.7a.2.2,0,0,0,0-.3l-2.9-1.6ZM209,205.4l3-1.7c.2-.1.2-.2.1-.2l-2.9-1.7c-.1-.1-.3,0-.4,0l-3,1.7a.2.2,0,0,0,0,.3l2.8,1.6Zm28.9-24.9h-.4l-3,1.7c-.1.1-.2.2,0,.2l2.8,1.7h.4l3-1.8c.1,0,.2-.1,0-.2Zm-45.4,39.2,3-1.7a.2.2,0,0,0,0-.3l-2.8-1.6h-.5l-3,1.7c-.1.1-.1.2,0,.2l2.9,1.7C192.2,219.8,192.4,219.7,192.5,219.7Zm53.4-30.8,3-1.8c.1,0,.1-.1,0-.2l-2.9-1.7h-.4l-3,1.7c-.1.1-.1.2,0,.2l2.8,1.7Zm-8.4.1,2.9-1.7c.2-.1.2-.2.1-.2l-2.9-1.7h-.4l-3,1.7a.2.2,0,0,0,0,.3L237,189Zm4.5-6.1h-.5l-3,1.7a.2.2,0,0,0,0,.3l2.9,1.6h.4l3-1.7a.2.2,0,0,0,0-.3Zm.9-.5,6.9,4h.4l3-1.7c.1,0,.1-.2,0-.2l-6.9-4h-.4l-3,1.7A.2.2,0,0,0,242.9,182.4Zm-10.1,5.5-3,1.8c-.1,0-.1.1,0,.2l2.9,1.7h.4l3-1.7c.1-.1.1-.2,0-.2l-2.8-1.7Zm-32.7,18.9-3,1.8c-.1,0-.1.2,0,.2l2.8,1.7h.4l3-1.7c.1,0,.2-.2,0-.2l-2.8-1.7Zm41-15.4h.4l3-1.7a.2.2,0,0,0,0-.3l-2.8-1.6a.4.4,0,0,0-.5,0l-2.9,1.7c-.2.1-.2.2-.1.2Zm-36.7,12.9-3,1.8c-.1,0-.1.1,0,.2l2.9,1.7h.4l3-1.7c.1-.1.1-.2,0-.2l-2.8-1.7Zm-34.1,28h.4l3-1.7c.1-.1.2-.2,0-.2l-2.8-1.7h-.4l-3,1.8c-.1,0-.1.1,0,.2Zm-5-5.3-3,1.7c-.2,0-.2.2-.1.2l2.9,1.7h.4l3-1.7c.1,0,.1-.2,0-.2l-2.8-1.7Zm9.8,2.7,3-1.7c.1-.1.1-.2,0-.2l-2.8-1.7h-.5l-3,1.7a.2.2,0,0,0,0,.3l2.9,1.6A.3.3,0,0,0,175.1,229.7Zm4.3-2.5,3-1.7c.2-.1.2-.2.1-.3l-2.9-1.6h-.4l-3,1.7a.2.2,0,0,0,0,.3l2.8,1.6A.3.3,0,0,0,179.4,227.2Zm4.4-2.5,3-1.7a.2.2,0,0,0,0-.3l-2.8-1.6h-.5l-3,1.7a.2.2,0,0,0,0,.3l2.9,1.6A.3.3,0,0,0,183.8,224.7Zm-14.2-.3-3,1.8c-.1,0-.1.1,0,.2l2.8,1.7h.5l3-1.7c.1-.1.1-.2,0-.2l-2.9-1.7Zm4.4-2.5-3,1.7c-.1.1-.2.2,0,.3l2.8,1.6h.4l3-1.7c.1-.1.1-.2,0-.2l-2.8-1.7Zm17.4-10-3,1.7c-.1.1-.2.2,0,.2l2.8,1.7h.4l3-1.7c.1-.1.2-.2,0-.3l-2.8-1.6Zm-4.4,2.5-3,1.7a.2.2,0,0,0,0,.3l2.9,1.6h.4l3-1.7a.2.2,0,0,0,0-.3l-2.9-1.6Zm8.7-5-3,1.7c-.1.1-.1.2,0,.2l2.9,1.7h.4l3-1.8c.1,0,.1-.1,0-.2l-2.9-1.7Zm-17.4,10-3,1.7a.2.2,0,0,0,0,.3l2.9,1.6h.4l3-1.7a.2.2,0,0,0,0-.3l-2.9-1.6Zm4.4-2.5-3,1.7c-.1.1-.2.2,0,.3l2.8,1.6h.4l3-1.7c.1-.1.2-.2,0-.3l-2.8-1.6Zm-5.6,16.4,3-1.8c.1,0,.1-.1,0-.2l-2.8-1.6h-.5l-3,1.7c-.1.1-.1.2,0,.2l2.9,1.7Zm-22.9-1.1-2.9-1.7h-.4l-3,1.7c-.1,0-.1.2,0,.2l2.8,1.7h.5l2.9-1.8C154.3,232.4,154.3,232.2,154.2,232.2Zm5.6,1.4L157,232h-.5l-4.5,2.6c-.2.1-.2.2-.1.3l2.9,1.6h.4l4.6-2.6A.2.2,0,0,0,159.8,233.6Zm-9.9-4.7-2.8-1.6a.4.4,0,0,0-.5,0l-3.6,2.1c-.2.1-.2.2-.1.3l2.9,1.6h.4l3.7-2.1A.2.2,0,0,0,149.9,228.9Zm2.8-1.6h.4l3-1.7c.1-.1.2-.2,0-.3l-2.8-1.6h-.4l-3,1.7a.2.2,0,0,0,0,.3Zm12.3,8-2.8-1.7h-.4L156,237c-.1,0-.1.2,0,.2l2.9,1.7h.4l5.7-3.4C165.1,235.5,165.2,235.4,165,235.3Zm2.1,3.5-2.9-1.6h-.4l-3.7,2.1a.2.2,0,0,0,0,.3l2.8,1.6a.4.4,0,0,0,.5,0l3.6-2.1C167.2,239,167.2,238.9,167.1,238.8Zm18-30.2h.4l3-1.7a.2.2,0,0,0,0-.3l-2.8-1.6h-.5l-3,1.7a.2.2,0,0,0,0,.3Zm-8.7,5.1h.4l3-1.7c.1-.1.1-.2,0-.2L177,210h-.5l-3,1.8c-.1,0-.1.1,0,.2Zm-19.3,11.1h.4l3-1.7a.2.2,0,0,0,0-.3l-2.8-1.6h-.5l-3,1.7a.2.2,0,0,0,0,.3Zm23.6-13.7h.5l2.9-1.7c.2-.1.2-.2.1-.2l-2.9-1.7h-.4l-3,1.7a.2.2,0,0,0,0,.3Zm-8.7,5.1h.4l3-1.8c.2,0,.2-.2.1-.2l-2.9-1.7h-.4l-3,1.7c-.1,0-.1.2,0,.2ZM169.2,239h-.4l-4.6,2.7c-.2,0-.2.2-.1.2l2.9,1.7h.4l4.6-2.6c.1-.1.1-.2,0-.2Zm-3.4-19.2h.4l3-1.8c.1,0,.1-.1,0-.2l-2.8-1.7h-.5l-3,1.7c-.1.1-.1.2,0,.2Zm-4.4,2.5h.4l3-1.7c.2-.1.2-.2.1-.3l-2.9-1.6h-.4l-3,1.7c-.1.1-.1.2,0,.2Zm88.4-29.8h-.4l-7.3,4.2c-.2.1-.2.2-.1.3l2.9,1.6h.4l7.3-4.2c.2-.1.2-.2.1-.3Zm-9.6,5.5h-.4l-3,1.7c-.1.1-.2.2,0,.3l2.8,1.6h.4l3-1.7c.1-.1.2-.2,0-.2Zm-58.7,32.8,2.9-1.8c.2,0,.2-.2.1-.2l-2.9-1.7h-.4l-3,1.7c-.1,0-.1.2,0,.2l2.8,1.7Zm50-27.8h-.4l-3,1.7c-.1,0-.2.2,0,.2l2.8,1.7h.4l3-1.8c.1,0,.2-.2,0-.2Zm22.7-13.1h-.5l-2.9,1.7c-.2.1-.2.2-.1.2l2.9,1.7h.4l3-1.8c.1,0,.1-.1,0-.2Zm7.2-.8-7-4H254l-3,1.7a.2.2,0,0,0,0,.3l6.9,4h.5l2.9-1.7C261.5,189.3,261.5,189.1,261.4,189.1Zm-46.2,23.3h-.4l-3.7,2.2c-.1,0-.1.1,0,.2l2.9,1.7h.4l3.7-2.1c.1,0,.1-.2,0-.2Zm11-6.3h-.4l-4.6,2.6a.2.2,0,0,0,0,.3l2.8,1.6h.5L229,208c.2-.1.2-.2.1-.3Zm-21,12.1h-.5l-24.5,14.1a.2.2,0,0,0,0,.3l2.8,1.6h.5L208,220.1c.1,0,.1-.1,0-.2Zm-25.9,15h-.5l-3.6,2.1c-.2.1-.2.2-.1.3l2.9,1.6a.3.3,0,0,0,.4,0l3.7-2.1a.2.2,0,0,0,0-.3Zm30.9-17.9h-.4l-3.7,2.1c-.1,0-.1.2,0,.2l2.8,1.7h.4l3.7-2.1c.1,0,.2-.2,0-.2Zm-36,20.8h-.4l-3.7,2.1a.2.2,0,0,0,0,.3l2.9,1.6h.4l3.7-2.1a.2.2,0,0,0,0-.3Zm46.1-26.6h-.5l-3.6,2.2c-.2,0-.2.1-.1.2l2.9,1.6h.4l3.7-2.1c.1-.1.1-.2,0-.2Zm15.5-9h-.4l-3,1.8c-.1,0-.1.1,0,.2l2.9,1.7h.4l3-1.7c.1-.1.1-.2,0-.2Zm9.8-6.8,3-1.7c.1-.1.1-.2,0-.2l-2.9-1.7h-.4l-3,1.7a.2.2,0,0,0,0,.3l2.9,1.6A.3.3,0,0,0,245.6,193.7Zm-17.8.9,3-1.7a.2.2,0,0,0,0-.3L228,191h-.4l-3,1.7c-.2.1-.2.2,0,.2l2.8,1.7Zm-11.5,16.1,8.7-5.1c.1,0,.1-.2,0-.2l-2.8-1.7h-.5l-8.7,5.1c-.1,0-.1.2,0,.2l2.8,1.7Zm24.5-14.4h.4l3-1.7c.1-.1.2-.2,0-.2l-2.8-1.7H241l-3,1.8c-.1,0-.2.1,0,.2Zm-3.6-2.4,2.9-1.7c.2-.1.2-.2.1-.3l-2.9-1.6a.3.3,0,0,0-.4,0l-3,1.7a.2.2,0,0,0,0,.3l2.8,1.6Zm-25.3,19.3,3-1.8c.1,0,.1-.1,0-.2l-2.8-1.6h-.5l-2.9,1.7c-.2.1-.2.2-.1.2l2.9,1.7Zm19.3-11.4h.4l3-1.7a.2.2,0,0,0,0-.3l-2.8-1.6h-.5l-2.9,1.7c-.2.1-.2.2-.1.3Zm-41,23.9,2.9-1.7c.2-.1.2-.2.1-.2l-2.9-1.7h-.4l-3,1.7a.2.2,0,0,0,0,.3l2.8,1.6A.4.4,0,0,0,190.2,225.7Zm4.3-2.5,3-1.7a.2.2,0,0,0,0-.3l-2.8-1.6h-.5l-2.9,1.7c-.2.1-.2.2-.1.3l2.9,1.6A.3.3,0,0,0,194.5,223.2Zm-8.7,5,3-1.7c.1-.1.1-.2,0-.2l-2.8-1.7h-.5l-2.9,1.8c-.2,0-.2.1-.1.2l2.9,1.7Zm17.4-10,3-1.7a.2.2,0,0,0,0-.3l-2.8-1.6h-.5l-2.9,1.7c-.2.1-.2.2-.1.3l2.9,1.6A.3.3,0,0,0,203.2,218.2Zm-4.3,2.5,2.9-1.7c.2-.1.2-.2.1-.3l-2.9-1.6h-.4l-3,1.7a.2.2,0,0,0,0,.3l2.8,1.6A.4.4,0,0,0,198.9,220.7Zm8.7-5,2.9-1.7c.2-.1.2-.2.1-.3l-2.9-1.6h-.4l-3,1.7c-.1.1-.1.2,0,.2l2.8,1.7A.4.4,0,0,0,207.6,215.7Zm23.7-35a.3.3,0,0,0,.4,0l3-1.7c.2-.1.2-.2.1-.3l-.8-.4a.3.3,0,0,0-.4,0l-3,1.7c-.1.1-.2.2,0,.3Zm-21.6,13.7h.4l3-1.7a.2.2,0,0,0,0-.3l-2.8-1.6a.4.4,0,0,0-.5,0l-2.9,1.7c-.2.1-.2.2-.1.3Zm8.7-5h.4l3-1.7a.2.2,0,0,0,0-.3l-2.8-1.6a.4.4,0,0,0-.5,0l-2.9,1.7c-.2.1-.2.2-.1.2Zm-14,8.1h.4l3-1.7a.2.2,0,0,0,0-.3l-2.8-1.6h-.5l-3,1.7c-.1.1-.1.2,0,.2Zm9.6-5.6h.5l2.9-1.7c.2-.1.2-.2.1-.3l-2.9-1.6a.3.3,0,0,0-.4,0l-3,1.7a.2.2,0,0,0,0,.3Zm-18.3,10.6h.4l3-1.7a.2.2,0,0,0,0-.3l-2.8-1.6h-.5l-3,1.7a.2.2,0,0,0,0,.3ZM200,200h.5l2.9-1.7c.2-.1.2-.2.1-.3l-2.9-1.6h-.4l-3,1.7a.2.2,0,0,0,0,.3Zm22.6-14.3a.3.3,0,0,0,.4,0l3-1.7c.2-.1.2-.2,0-.2l-.7-.5h-.4l-3,1.8c-.1,0-.2.1,0,.2Zm13.1-7.5a.3.3,0,0,0,.4,0l3-1.7a.2.2,0,0,0,0-.3l-.8-.4a.3.3,0,0,0-.4,0l-3,1.7a.2.2,0,0,0,0,.3Zm6,3.5h.4l3-1.8c.1,0,.1-.2,0-.2l-2.9-1.7h-.4l-3,1.7c-.1,0-.1.2,0,.2Zm8.2,9.5,3-1.7c.1-.1.2-.2,0-.3l-2.8-1.6h-.4l-3,1.7c-.1.1-.2.2,0,.3l2.8,1.6A.3.3,0,0,0,249.9,191.2Zm-22.9-8a.3.3,0,0,0,.4,0l3-1.7c.1-.1.1-.2,0-.2l-.8-.5c-.1-.1-.3,0-.4,0l-3,1.7a.2.2,0,0,0,0,.3ZM191.3,205h.4l3-1.7c.2-.1.2-.2.1-.3l-2.9-1.6h-.4l-3,1.7a.2.2,0,0,0,0,.3Z"/><path class="m" d="M223.5,197.1l3-1.7a.2.2,0,0,0,0-.3l-2.9-1.6h-.4l-3,1.7a.2.2,0,0,0,0,.3l2.8,1.6Zm-4.4-6-2.9,1.8c-.2,0-.2.1-.1.2l2.9,1.7h.4l3-1.7c.1,0,.1-.2,0-.2l-2.8-1.7Zm-9.6,5.6-5,2.9c-.2.1-.2.2-.1.3l2.9,1.6h.4l5.1-2.9a.2.2,0,0,0,0-.3l-2.9-1.6Zm5.3-3-3,1.7c-.1,0-.1.2,0,.2l2.8,1.7h.5l2.9-1.8c.2,0,.2-.1.1-.2l-2.9-1.7Zm-11.7,6.7-3,1.7a.2.2,0,0,0,0,.3l2.8,1.6h.5l3-1.7a.2.2,0,0,0,0-.3l-2.9-1.6Zm-4.4,2.5-2.9,1.7c-.2.1-.2.2-.1.3l2.9,1.6h.4l3-1.7a.2.2,0,0,0,0-.3l-2.8-1.6Zm11.2,6.7,3-1.7c.1-.1.1-.2,0-.2l-2.8-1.7h-.5l-2.9,1.7c-.2.1-.2.2-.1.3l2.9,1.6Zm-4.3,2.5,2.9-1.7c.2-.1.2-.2.1-.2l-2.9-1.7h-.4l-3,1.8c-.1,0-.1.1,0,.2l2.8,1.7Zm-4.4,2.5,3-1.7c.1,0,.1-.2,0-.2l-2.8-1.7h-.5l-2.9,1.7c-.2,0-.2.2-.1.2l2.9,1.7Zm-4.3,2.6,2.9-1.8c.2,0,.2-.1.1-.2l-2.9-1.7h-.4l-3,1.7c-.1.1-.1.2,0,.2l2.8,1.7Zm22.2-17.6,3-1.7a.2.2,0,0,0,0-.3l-2.8-1.6h-.5l-2.9,1.7c-.2.1-.2.2-.1.3l2.9,1.6Zm-4.8,7.5,6.6-3.8a.2.2,0,0,0,0-.3l-6.9-4h-.4l-3.5,2a.2.2,0,0,0,0,.3l3.7,2.1c.1.1.1.2,0,.2l-2.8,1.6a.2.2,0,0,0,0,.3l2.8,1.6Zm-19.9-1.7-3,1.7a.2.2,0,0,0,0,.3l2.8,1.6h.5l2.9-1.7c.2-.1.2-.2.1-.2l-2.9-1.7Zm-4.4,2.5-2.9,1.8c-.2,0-.2.1-.1.2l2.9,1.7h.4l3-1.7c.1-.1.1-.2,0-.2l-2.8-1.7Zm-24,26.9h.4l3-1.8c.1,0,.1-.2,0-.2l-2.9-1.7h-.4l-3,1.7c-.1,0-.1.2,0,.2ZM155.2,228l-3,1.8c-.1,0-.1.1,0,.2l2.9,1.7h.4l3-1.7c.1-.1.1-.2,0-.2l-2.8-1.7Zm5.5,5.1h.5l3-1.8c.1,0,.1-.1,0-.2l-2.9-1.7h-.4l-3,1.7c-.1.1-.1.2,0,.2Zm12.1,2.7,2.9-1.7c.2-.1.2-.2.1-.3l-2.9-1.6h-.4l-3,1.7c-.1.1-.1.2,0,.2l2.8,1.7Zm-4.8,2.5h.4l3-1.7a.2.2,0,0,0,0-.3l-2.8-1.6h-.5l-3,1.7a.2.2,0,0,0,0,.3Zm-8.4-12.8-3,1.7a.2.2,0,0,0,0,.3l2.8,1.6h.5l2.9-1.7c.2-.1.2-.2.1-.2l-2.9-1.7ZM181.3,213l-2.9,1.7c-.2.1-.2.2-.1.2l2.9,1.7h.4l3-1.8c.1,0,.1-.1,0-.2l-2.8-1.7Zm-17.4,10-2.9,1.7c-.2.1-.2.2-.1.3l2.9,1.6h.4l3-1.7a.2.2,0,0,0,0-.3l-2.8-1.6Zm21.8-12.5-3,1.7c-.1,0-.1.2,0,.2l2.8,1.7h.5l2.9-1.8c.2,0,.2-.2.1-.2l-2.9-1.7Zm-8.7,5-3,1.7c-.1.1-.1.2,0,.2l2.8,1.7h.5l2.9-1.7c.2-.1.2-.2.1-.3l-2.9-1.6Zm-4.4,2.5-2.9,1.7c-.2.1-.2.2-.1.3l2.9,1.6h.4l3-1.7a.2.2,0,0,0,0-.3l-2.8-1.6Zm-4.3,2.5-3,1.7a.2.2,0,0,0,0,.3l2.8,1.6h.5l2.9-1.7c.2-.1.2-.2.1-.3l-2.9-1.6Zm19.9,1.7,2.9-1.7c.2-.1.2-.2.1-.3l-2.9-1.6h-.4l-3,1.7a.2.2,0,0,0,0,.3l2.8,1.6A.4.4,0,0,0,188.2,222.2Zm40.6-36.6-3,1.7c-.2.1-.2.2-.1.3l2.9,1.6a.3.3,0,0,0,.4,0l3-1.7a.2.2,0,0,0,0-.3l-2.8-1.6Zm-5.3,3-3,1.8c-.1,0-.1.1,0,.2l2.8,1.6a.4.4,0,0,0,.5,0l2.9-1.7c.2-.1.2-.2.1-.2l-2.9-1.7Zm9.6-5.5-3,1.7c-.1.1-.1.2,0,.2l2.8,1.7c.2.1.4,0,.5,0l3-1.7a.2.2,0,0,0,0-.3l-2.9-1.6ZM209,205.4l3-1.7c.2-.1.2-.2.1-.2l-2.9-1.7c-.1-.1-.3,0-.4,0l-3,1.7a.2.2,0,0,0,0,.3l2.8,1.6Zm28.9-24.9h-.4l-3,1.7c-.1.1-.2.2,0,.2l2.8,1.7h.4l3-1.8c.1,0,.2-.1,0-.2Zm-45.4,39.2,3-1.7a.2.2,0,0,0,0-.3l-2.8-1.6h-.5l-3,1.7c-.1.1-.1.2,0,.2l2.9,1.7C192.2,219.8,192.4,219.7,192.5,219.7Zm53.4-30.8,3-1.8c.1,0,.1-.1,0-.2l-2.9-1.7h-.4l-3,1.7c-.1.1-.1.2,0,.2l2.8,1.7Zm-8.4.1,2.9-1.7c.2-.1.2-.2.1-.2l-2.9-1.7h-.4l-3,1.7a.2.2,0,0,0,0,.3L237,189Zm4.5-6.1h-.5l-3,1.7a.2.2,0,0,0,0,.3l2.9,1.6h.4l3-1.7a.2.2,0,0,0,0-.3Zm.9-.5,6.9,4h.4l3-1.7c.1,0,.1-.2,0-.2l-6.9-4h-.4l-3,1.7A.2.2,0,0,0,242.9,182.4Zm-10.1,5.5-3,1.8c-.1,0-.1.1,0,.2l2.9,1.7h.4l3-1.7c.1-.1.1-.2,0-.2l-2.8-1.7Zm-32.7,18.9-3,1.8c-.1,0-.1.2,0,.2l2.8,1.7h.4l3-1.7c.1,0,.2-.2,0-.2l-2.8-1.7Zm41-15.4h.4l3-1.7a.2.2,0,0,0,0-.3l-2.8-1.6a.4.4,0,0,0-.5,0l-2.9,1.7c-.2.1-.2.2-.1.2Zm-36.7,12.9-3,1.8c-.1,0-.1.1,0,.2l2.9,1.7h.4l3-1.7c.1-.1.1-.2,0-.2l-2.8-1.7Zm-34.1,28h.4l3-1.7c.1-.1.2-.2,0-.2l-2.8-1.7h-.4l-3,1.8c-.1,0-.1.1,0,.2Zm-5-5.3-3,1.7c-.2,0-.2.2-.1.2l2.9,1.7h.4l3-1.7c.1,0,.1-.2,0-.2l-2.8-1.7Zm9.8,2.7,3-1.7c.1-.1.1-.2,0-.2l-2.8-1.7h-.5l-3,1.7a.2.2,0,0,0,0,.3l2.9,1.6A.3.3,0,0,0,175.1,229.7Zm4.3-2.5,3-1.7c.2-.1.2-.2.1-.3l-2.9-1.6h-.4l-3,1.7a.2.2,0,0,0,0,.3l2.8,1.6A.3.3,0,0,0,179.4,227.2Zm4.4-2.5,3-1.7a.2.2,0,0,0,0-.3l-2.8-1.6h-.5l-3,1.7a.2.2,0,0,0,0,.3l2.9,1.6A.3.3,0,0,0,183.8,224.7Zm-14.2-.3-3,1.8c-.1,0-.1.1,0,.2l2.8,1.7h.5l3-1.7c.1-.1.1-.2,0-.2l-2.9-1.7Zm4.4-2.5-3,1.7c-.1.1-.2.2,0,.3l2.8,1.6h.4l3-1.7c.1-.1.1-.2,0-.2l-2.8-1.7Zm17.4-10-3,1.7c-.1.1-.2.2,0,.2l2.8,1.7h.4l3-1.7c.1-.1.2-.2,0-.3l-2.8-1.6Zm-4.4,2.5-3,1.7a.2.2,0,0,0,0,.3l2.9,1.6h.4l3-1.7a.2.2,0,0,0,0-.3l-2.9-1.6Zm8.7-5-3,1.7c-.1.1-.1.2,0,.2l2.9,1.7h.4l3-1.8c.1,0,.1-.1,0-.2l-2.9-1.7Zm-17.4,10-3,1.7a.2.2,0,0,0,0,.3l2.9,1.6h.4l3-1.7a.2.2,0,0,0,0-.3l-2.9-1.6Zm4.4-2.5-3,1.7c-.1.1-.2.2,0,.3l2.8,1.6h.4l3-1.7c.1-.1.2-.2,0-.3l-2.8-1.6Zm-5.6,16.4,3-1.8c.1,0,.1-.1,0-.2l-2.8-1.6h-.5l-3,1.7c-.1.1-.1.2,0,.2l2.9,1.7Zm-22.9-1.1-2.9-1.7h-.4l-3,1.7c-.1,0-.1.2,0,.2l2.8,1.7h.5l2.9-1.8C154.3,232.4,154.3,232.2,154.2,232.2Zm5.6,1.4L157,232h-.5l-4.5,2.6c-.2.1-.2.2-.1.3l2.9,1.6h.4l4.6-2.6A.2.2,0,0,0,159.8,233.6Zm-9.9-4.7-2.8-1.6a.4.4,0,0,0-.5,0l-3.6,2.1c-.2.1-.2.2-.1.3l2.9,1.6h.4l3.7-2.1A.2.2,0,0,0,149.9,228.9Zm2.8-1.6h.4l3-1.7c.1-.1.2-.2,0-.3l-2.8-1.6h-.4l-3,1.7a.2.2,0,0,0,0,.3Zm12.3,8-2.8-1.7h-.4L156,237c-.1,0-.1.2,0,.2l2.9,1.7h.4l5.7-3.4C165.1,235.5,165.2,235.4,165,235.3Zm2.1,3.5-2.9-1.6h-.4l-3.7,2.1a.2.2,0,0,0,0,.3l2.8,1.6a.4.4,0,0,0,.5,0l3.6-2.1C167.2,239,167.2,238.9,167.1,238.8Zm18-30.2h.4l3-1.7a.2.2,0,0,0,0-.3l-2.8-1.6h-.5l-3,1.7a.2.2,0,0,0,0,.3Zm-8.7,5.1h.4l3-1.7c.1-.1.1-.2,0-.2L177,210h-.5l-3,1.8c-.1,0-.1.1,0,.2Zm-19.3,11.1h.4l3-1.7a.2.2,0,0,0,0-.3l-2.8-1.6h-.5l-3,1.7a.2.2,0,0,0,0,.3Zm23.6-13.7h.5l2.9-1.7c.2-.1.2-.2.1-.2l-2.9-1.7h-.4l-3,1.7a.2.2,0,0,0,0,.3Zm-8.7,5.1h.4l3-1.8c.2,0,.2-.2.1-.2l-2.9-1.7h-.4l-3,1.7c-.1,0-.1.2,0,.2ZM169.2,239h-.4l-4.6,2.7c-.2,0-.2.2-.1.2l2.9,1.7h.4l4.6-2.6c.1-.1.1-.2,0-.2Zm-3.4-19.2h.4l3-1.8c.1,0,.1-.1,0-.2l-2.8-1.7h-.5l-3,1.7c-.1.1-.1.2,0,.2Zm-4.4,2.5h.4l3-1.7c.2-.1.2-.2.1-.3l-2.9-1.6h-.4l-3,1.7c-.1.1-.1.2,0,.2Zm88.4-29.8h-.4l-7.3,4.2c-.2.1-.2.2-.1.3l2.9,1.6h.4l7.3-4.2c.2-.1.2-.2.1-.3Zm-9.6,5.5h-.4l-3,1.7c-.1.1-.2.2,0,.3l2.8,1.6h.4l3-1.7c.1-.1.2-.2,0-.2Zm-58.7,32.8,2.9-1.8c.2,0,.2-.2.1-.2l-2.9-1.7h-.4l-3,1.7c-.1,0-.1.2,0,.2l2.8,1.7Zm50-27.8h-.4l-3,1.7c-.1,0-.2.2,0,.2l2.8,1.7h.4l3-1.8c.1,0,.2-.2,0-.2Zm22.7-13.1h-.5l-2.9,1.7c-.2.1-.2.2-.1.2l2.9,1.7h.4l3-1.8c.1,0,.1-.1,0-.2Zm7.2-.8-7-4H254l-3,1.7a.2.2,0,0,0,0,.3l6.9,4h.5l2.9-1.7C261.5,189.3,261.5,189.1,261.4,189.1Zm-46.2,23.3h-.4l-3.7,2.2c-.1,0-.1.1,0,.2l2.9,1.7h.4l3.7-2.1c.1,0,.1-.2,0-.2Zm11-6.3h-.4l-4.6,2.6a.2.2,0,0,0,0,.3l2.8,1.6h.5L229,208c.2-.1.2-.2.1-.3Zm-21,12.1h-.5l-24.5,14.1a.2.2,0,0,0,0,.3l2.8,1.6h.5L208,220.1c.1,0,.1-.1,0-.2Zm-25.9,15h-.5l-3.6,2.1c-.2.1-.2.2-.1.3l2.9,1.6a.3.3,0,0,0,.4,0l3.7-2.1a.2.2,0,0,0,0-.3Zm30.9-17.9h-.4l-3.7,2.1c-.1,0-.1.2,0,.2l2.8,1.7h.4l3.7-2.1c.1,0,.2-.2,0-.2Zm-36,20.8h-.4l-3.7,2.1a.2.2,0,0,0,0,.3l2.9,1.6h.4l3.7-2.1a.2.2,0,0,0,0-.3Zm46.1-26.6h-.5l-3.6,2.2c-.2,0-.2.1-.1.2l2.9,1.6h.4l3.7-2.1c.1-.1.1-.2,0-.2Zm15.5-9h-.4l-3,1.8c-.1,0-.1.1,0,.2l2.9,1.7h.4l3-1.7c.1-.1.1-.2,0-.2Zm9.8-6.8,3-1.7c.1-.1.1-.2,0-.2l-2.9-1.7h-.4l-3,1.7a.2.2,0,0,0,0,.3l2.9,1.6A.3.3,0,0,0,245.6,193.7Zm-17.8.9,3-1.7a.2.2,0,0,0,0-.3L228,191h-.4l-3,1.7c-.2.1-.2.2,0,.2l2.8,1.7Zm-11.5,16.1,8.7-5.1c.1,0,.1-.2,0-.2l-2.8-1.7h-.5l-8.7,5.1c-.1,0-.1.2,0,.2l2.8,1.7Zm24.5-14.4h.4l3-1.7c.1-.1.2-.2,0-.2l-2.8-1.7H241l-3,1.8c-.1,0-.2.1,0,.2Zm-3.6-2.4,2.9-1.7c.2-.1.2-.2.1-.3l-2.9-1.6a.3.3,0,0,0-.4,0l-3,1.7a.2.2,0,0,0,0,.3l2.8,1.6Zm-25.3,19.3,3-1.8c.1,0,.1-.1,0-.2l-2.8-1.6h-.5l-2.9,1.7c-.2.1-.2.2-.1.2l2.9,1.7Zm19.3-11.4h.4l3-1.7a.2.2,0,0,0,0-.3l-2.8-1.6h-.5l-2.9,1.7c-.2.1-.2.2-.1.3Zm-41,23.9,2.9-1.7c.2-.1.2-.2.1-.2l-2.9-1.7h-.4l-3,1.7a.2.2,0,0,0,0,.3l2.8,1.6A.4.4,0,0,0,190.2,225.7Zm4.3-2.5,3-1.7a.2.2,0,0,0,0-.3l-2.8-1.6h-.5l-2.9,1.7c-.2.1-.2.2-.1.3l2.9,1.6A.3.3,0,0,0,194.5,223.2Zm-8.7,5,3-1.7c.1-.1.1-.2,0-.2l-2.8-1.7h-.5l-2.9,1.8c-.2,0-.2.1-.1.2l2.9,1.7Zm17.4-10,3-1.7a.2.2,0,0,0,0-.3l-2.8-1.6h-.5l-2.9,1.7c-.2.1-.2.2-.1.3l2.9,1.6A.3.3,0,0,0,203.2,218.2Zm-4.3,2.5,2.9-1.7c.2-.1.2-.2.1-.3l-2.9-1.6h-.4l-3,1.7a.2.2,0,0,0,0,.3l2.8,1.6A.4.4,0,0,0,198.9,220.7Zm8.7-5,2.9-1.7c.2-.1.2-.2.1-.3l-2.9-1.6h-.4l-3,1.7c-.1.1-.1.2,0,.2l2.8,1.7A.4.4,0,0,0,207.6,215.7Zm23.7-35a.3.3,0,0,0,.4,0l3-1.7c.2-.1.2-.2.1-.3l-.8-.4a.3.3,0,0,0-.4,0l-3,1.7c-.1.1-.2.2,0,.3Zm-21.6,13.7h.4l3-1.7a.2.2,0,0,0,0-.3l-2.8-1.6a.4.4,0,0,0-.5,0l-2.9,1.7c-.2.1-.2.2-.1.3Zm8.7-5h.4l3-1.7a.2.2,0,0,0,0-.3l-2.8-1.6a.4.4,0,0,0-.5,0l-2.9,1.7c-.2.1-.2.2-.1.2Zm-14,8.1h.4l3-1.7a.2.2,0,0,0,0-.3l-2.8-1.6h-.5l-3,1.7c-.1.1-.1.2,0,.2Zm9.6-5.6h.5l2.9-1.7c.2-.1.2-.2.1-.3l-2.9-1.6a.3.3,0,0,0-.4,0l-3,1.7a.2.2,0,0,0,0,.3Zm-18.3,10.6h.4l3-1.7a.2.2,0,0,0,0-.3l-2.8-1.6h-.5l-3,1.7a.2.2,0,0,0,0,.3ZM200,200h.5l2.9-1.7c.2-.1.2-.2.1-.3l-2.9-1.6h-.4l-3,1.7a.2.2,0,0,0,0,.3Zm22.6-14.3a.3.3,0,0,0,.4,0l3-1.7c.2-.1.2-.2,0-.2l-.7-.5h-.4l-3,1.8c-.1,0-.2.1,0,.2Zm13.1-7.5a.3.3,0,0,0,.4,0l3-1.7a.2.2,0,0,0,0-.3l-.8-.4a.3.3,0,0,0-.4,0l-3,1.7a.2.2,0,0,0,0,.3Zm6,3.5h.4l3-1.8c.1,0,.1-.2,0-.2l-2.9-1.7h-.4l-3,1.7c-.1,0-.1.2,0,.2Zm8.2,9.5,3-1.7c.1-.1.2-.2,0-.3l-2.8-1.6h-.4l-3,1.7c-.1.1-.2.2,0,.3l2.8,1.6A.3.3,0,0,0,249.9,191.2Zm-22.9-8a.3.3,0,0,0,.4,0l3-1.7c.1-.1.1-.2,0-.2l-.8-.5c-.1-.1-.3,0-.4,0l-3,1.7a.2.2,0,0,0,0,.3ZM191.3,205h.4l3-1.7c.2-.1.2-.2.1-.3l-2.9-1.6h-.4l-3,1.7a.2.2,0,0,0,0,.3Z"/><path class="k" d="M223.5,196.4l3-1.8c.1,0,.1-.1,0-.2l-2.8-1.6a.3.3,0,0,0-.4,0l-3,1.7c-.2.1-.2.2,0,.2l2.8,1.7Zm-4.3-6-3,1.7a.2.2,0,0,0,0,.3L219,194h.5l2.9-1.7c.2-.1.2-.2.1-.3l-2.9-1.6Zm-9.6,5.6-5.1,2.9c-.1.1-.1.2,0,.2l2.8,1.7h.5l5-2.9c.1-.1.2-.2,0-.3L210,196Zm5.2-3.1-2.9,1.8c-.2,0-.2.1-.1.2l2.9,1.6h.4l3-1.7c.1-.1.1-.2,0-.2l-2.8-1.7Zm-11.7,6.8-2.9,1.7c-.2.1-.2.2-.1.2l2.9,1.7h.4l3-1.7a.2.2,0,0,0,0-.3l-2.8-1.6Zm-4.3,2.5-3,1.7a.2.2,0,0,0,0,.3l2.8,1.6h.5l3-1.7a.2.2,0,0,0,0-.3l-2.9-1.6Zm11.2,6.7,2.9-1.7c.2-.1.2-.2.1-.3l-2.9-1.6a.3.3,0,0,0-.4,0l-3,1.7a.2.2,0,0,0,0,.3l2.8,1.6Zm-4.4,2.5,3-1.7a.2.2,0,0,0,0-.3l-2.8-1.6a.4.4,0,0,0-.5,0l-2.9,1.7c-.2.1-.2.2-.1.3l2.9,1.6Zm-4.3,2.5,2.9-1.7c.2-.1.2-.2.1-.2l-2.9-1.7c-.1-.1-.3,0-.4,0l-3,1.7a.2.2,0,0,0,0,.3l2.8,1.6Zm-4.4,2.5,3-1.7c.1-.1.1-.2,0-.2l-2.8-1.7h-.5l-2.9,1.8c-.2,0-.2.1-.1.2l2.9,1.7Zm22.3-17.5,3-1.7a.2.2,0,0,0,0-.3l-2.9-1.6a.3.3,0,0,0-.4,0l-3,1.7c-.1.1-.1.2,0,.2l2.8,1.7Zm-4.9,7.5,6.7-3.8a.2.2,0,0,0,0-.3l-6.9-4a.4.4,0,0,0-.5,0l-3.4,2a.2.2,0,0,0,0,.3l3.6,2.1c.1,0,.1.1,0,.2l-2.7,1.6c-.2.1-.2.2-.1.3l2.9,1.6Zm-19.9-1.7-2.9,1.7c-.2.1-.2.2-.1.3l2.9,1.6h.4l3-1.7a.2.2,0,0,0,0-.3l-2.8-1.6Zm-4.3,2.5-3,1.7a.2.2,0,0,0,0,.3l2.8,1.6h.5l2.9-1.7c.2-.1.2-.2.1-.3l-2.9-1.6ZM166,234h.4l3-1.7c.1-.1.2-.2,0-.2l-2.8-1.7h-.4l-3,1.7a.2.2,0,0,0,0,.3Zm-10.7-6.7-3,1.7a.2.2,0,0,0,0,.3l2.8,1.6h.5l2.9-1.7c.2-.1.2-.2.1-.3l-2.9-1.6A.3.3,0,0,0,155.3,227.3Zm5.5,5.1h.4l3-1.7c.1-.1.1-.2,0-.2l-2.8-1.7H161l-3,1.8c-.2,0-.2.1-.1.2Zm12,2.7,3-1.8c.1,0,.1-.2,0-.2l-2.8-1.7h-.5l-3,1.7c-.1,0-.1.2,0,.2l2.9,1.7Zm-4.8,2.5h.5l2.9-1.8c.2,0,.2-.1.1-.2l-2.9-1.6h-.4l-3,1.7c-.1.1-.1.2,0,.2Zm-8.4-12.8-2.9,1.7c-.2.1-.2.2-.1.3l2.9,1.6h.4l3-1.7a.2.2,0,0,0,0-.3l-2.8-1.6A.5.5,0,0,0,159.6,224.8Zm21.8-12.6-3,1.8c-.1,0-.1.1,0,.2l2.8,1.7h.5l2.9-1.7c.2-.1.2-.2.1-.2l-2.9-1.7ZM164,222.3l-3,1.7a.2.2,0,0,0,0,.3l2.8,1.6h.5l2.9-1.7c.2-.1.2-.2.1-.3l-2.9-1.6A.3.3,0,0,0,164,222.3Zm21.7-12.6-2.9,1.7c-.2.1-.2.2-.1.3l2.9,1.6h.4l3-1.7c.1-.1.1-.2,0-.2l-2.8-1.7Zm-8.7,5.1-2.9,1.7c-.2,0-.2.2-.1.2l2.9,1.7h.4l3-1.8c.1,0,.1-.2,0-.2l-2.8-1.7Zm-4.3,2.5-3,1.7c-.1.1-.1.2,0,.2l2.8,1.7h.5l2.9-1.8c.2,0,.2-.1.1-.2l-2.9-1.7Zm-4.4,2.5-2.9,1.7c-.2.1-.2.2-.1.2l2.9,1.7h.4l3-1.7a.2.2,0,0,0,0-.3l-2.8-1.6A.4.4,0,0,0,168.3,219.8Zm19.9,1.7,3-1.8c.1,0,.1-.1,0-.2l-2.8-1.7h-.5l-3,1.7c-.1.1-.1.2,0,.2l2.9,1.7Zm40.6-36.6-3,1.7c-.1.1-.1.2,0,.2l2.8,1.7h.5l3-1.8c.1,0,.1-.1,0-.2l-2.9-1.7Zm-5.3,3-2.9,1.7c-.2.1-.2.2-.1.3l2.9,1.6h.4l3-1.7a.2.2,0,0,0,0-.3l-2.8-1.6Zm9.7-5.5-3,1.7c-.1,0-.2.2,0,.2L233,186h.4l3-1.8c.1,0,.1-.2,0-.2l-2.8-1.7Zm-24.1,22.3,3-1.7a.2.2,0,0,0,0-.3l-2.8-1.6h-.5l-3,1.7a.2.2,0,0,0,0,.3l2.9,1.6A.3.3,0,0,0,209.1,204.7Zm28.8-24.9h-.4l-3,1.8c-.1,0-.1.1,0,.2l2.9,1.7h.4l3-1.7c.1-.1.1-.2,0-.2ZM192.6,219l2.9-1.8c.2,0,.2-.2.1-.2l-2.9-1.7h-.4l-3,1.7c-.1,0-.1.2,0,.2l2.8,1.7Zm53.3-30.9,3-1.7c.1-.1.1-.2,0-.2l-2.8-1.7h-.5l-2.9,1.8c-.2,0-.2.1-.1.2l2.9,1.7Zm-8.4.2,3-1.7a.2.2,0,0,0,0-.3l-2.8-1.6h-.5l-3,1.7a.2.2,0,0,0,0,.3l2.9,1.6Zm4.5-6.1h-.4l-3,1.7a.2.2,0,0,0,0,.3l2.8,1.6h.5l2.9-1.7c.2-.1.2-.2.1-.3Zm.9-.6,6.9,4h.5l3-1.7c.1-.1.1-.2,0-.2l-6.9-4h-.5l-2.9,1.7C242.8,181.5,242.8,181.6,242.9,181.6Zm-10,5.6-3,1.7a.2.2,0,0,0,0,.3l2.8,1.6h.5l2.9-1.7c.2-.1.2-.2.1-.3l-2.9-1.6Zm-32.8,18.9-3,1.7a.2.2,0,0,0,0,.3l2.9,1.6a.3.3,0,0,0,.4,0l3-1.7c.1-.1.1-.2,0-.2l-2.8-1.7Zm41-15.4h.5l3-1.7c.1,0,.1-.2,0-.2l-2.9-1.7h-.4l-3,1.7c-.1,0-.1.2,0,.2Zm-36.6,12.9-3,1.7a.2.2,0,0,0,0,.3l2.8,1.6a.3.3,0,0,0,.4,0l3-1.7c.2-.1.2-.2.1-.3l-2.9-1.6Zm-34.1,27.9h.4l3-1.7a.2.2,0,0,0,0-.3l-2.8-1.6h-.5l-3,1.7a.2.2,0,0,0,0,.3Zm-5.1-5.3-3,1.7a.2.2,0,0,0,0,.3l2.8,1.6h.5l3-1.7c.1-.1.1-.2,0-.2l-2.9-1.7Zm9.8,2.8,3-1.7c.2-.1.2-.2.1-.3l-2.9-1.6h-.4l-3,1.7a.2.2,0,0,0,0,.3l2.8,1.6Zm4.4-2.5,3-1.7a.2.2,0,0,0,0-.3l-2.8-1.6h-.5l-3,1.7a.2.2,0,0,0,0,.3l2.9,1.6Zm4.4-2.5,2.9-1.7c.2-.1.2-.2.1-.3l-2.9-1.6h-.4l-3,1.7c-.1.1-.1.2,0,.2l2.8,1.7Zm-14.2-.3-3,1.7c-.1.1-.2.2,0,.3l2.8,1.6h.4l3-1.7a.2.2,0,0,0,0-.3l-2.8-1.6Zm4.3-2.5-3,1.7a.2.2,0,0,0,0,.3l2.9,1.6h.4l3-1.7a.2.2,0,0,0,0-.3l-2.9-1.6Zm17.4-10-3,1.7c-.1,0-.1.2,0,.2l2.9,1.7h.4l3-1.7c.1,0,.1-.2,0-.2l-2.9-1.7Zm-4.3,2.5-3,1.7c-.1.1-.2.2,0,.2l2.8,1.7h.4l3-1.8c.1,0,.2-.1,0-.2l-2.8-1.7Zm8.7-5.1-3,1.8c-.1,0-.1.1,0,.2l2.8,1.7h.4l3-1.7c.1-.1.2-.2,0-.2l-2.8-1.7Zm-17.4,10.1-3,1.7c-.1.1-.2.2,0,.3l2.8,1.6h.4l3-1.7c.1-.1.2-.2,0-.3l-2.8-1.6Zm4.3-2.5-3,1.7c-.1.1-.1.2,0,.2l2.9,1.7h.4l3-1.7a.2.2,0,0,0,0-.3l-2.9-1.6Zm-5.5,16.3,2.9-1.7c.2-.1.2-.2.1-.2l-2.9-1.7h-.4l-3,1.8c-.1,0-.1.1,0,.2l2.8,1.7Zm-23-1-2.8-1.7c-.2-.1-.3,0-.5,0l-3,1.7a.2.2,0,0,0,0,.3l2.9,1.6h.4l3-1.7C154.3,231.6,154.3,231.5,154.2,231.5Zm5.7,1.4-2.9-1.7h-.4l-4.6,2.6c-.1.1-.1.2,0,.2l2.8,1.7h.5l4.6-2.7C160,233.1,160,232.9,159.9,232.9Zm-9.9-4.7-2.9-1.6h-.4l-3.7,2.1c-.1.1-.1.2,0,.2l2.8,1.7h.5l3.6-2.1C150.1,228.4,150.1,228.3,150,228.2Zm2.8-1.6h.4l3-1.7a.2.2,0,0,0,0-.3l-2.8-1.6h-.5l-3,1.7c-.1.1-.1.2,0,.2Zm12.3,8-2.9-1.7h-.4l-5.7,3.3c-.1.1-.2.2,0,.3l2.8,1.6h.4l5.8-3.3C165.2,234.7,165.2,234.6,165.1,234.6Zm2,3.5-2.8-1.6h-.5l-3.6,2.1c-.2.1-.2.2-.1.2l2.9,1.7h.4l3.7-2.1A.2.2,0,0,0,167.1,238.1Zm18-30.2h.5l2.9-1.7c.2-.1.2-.2.1-.3l-2.9-1.6a.3.3,0,0,0-.4,0l-3,1.7a.2.2,0,0,0,0,.3Zm-8.7,5h.5l2.9-1.7c.2-.1.2-.2.1-.3l-2.9-1.6a.3.3,0,0,0-.4,0l-3,1.7a.2.2,0,0,0,0,.3Zm-19.3,11.2h.4l3-1.8c.2,0,.2-.1.1-.2l-2.9-1.7h-.4l-3,1.7c-.1.1-.1.2,0,.2Zm23.7-13.7h.4l3-1.7a.2.2,0,0,0,0-.3l-2.8-1.6a.5.5,0,0,0-.5,0l-3,1.7a.2.2,0,0,0,0,.3Zm-8.7,5h.4l3-1.7c.1-.1.1-.2,0-.2l-2.8-1.7c-.2-.1-.4,0-.5,0l-3,1.7a.2.2,0,0,0,0,.3Zm-2.9,22.9a.3.3,0,0,0-.4,0l-4.6,2.6a.2.2,0,0,0,0,.3l2.8,1.6h.5l4.6-2.6a.2.2,0,0,0,0-.3ZM165.8,219h.5l2.9-1.7c.2-.1.2-.2.1-.2l-2.9-1.7H166l-3,1.8c-.1,0-.1.1,0,.2Zm-4.3,2.6h.4l3-1.7c.1,0,.1-.2,0-.2l-2.8-1.7h-.5l-3,1.8c-.1,0-.1.2,0,.2Zm88.4-29.9h-.5l-7.3,4.2c-.1.1-.1.2,0,.2l2.8,1.7h.5l7.3-4.3c.1,0,.1-.2,0-.2Zm-9.7,5.6a.3.3,0,0,0-.4,0l-3,1.7a.2.2,0,0,0,0,.3l2.9,1.6h.4l3-1.7a.2.2,0,0,0,0-.3ZM181.5,230l3-1.7c.1-.1.1-.2,0-.2l-2.8-1.7h-.5l-2.9,1.7c-.2.1-.2.2-.1.3l2.9,1.6Zm50-27.7h-.4l-3,1.7a.2.2,0,0,0,0,.3l2.9,1.6h.4l3-1.7c.1-.1.1-.2,0-.2Zm22.7-13.1h-.4l-3,1.8c-.1,0-.1.1,0,.2l2.8,1.7h.5l2.9-1.7c.2-.1.2-.2.1-.2Zm7.2-.8-6.9-4h-.4l-3,1.7c-.1.1-.1.2,0,.2l6.9,4h.4l3-1.7C261.5,188.5,261.5,188.4,261.4,188.4Zm-46.1,23.3h-.5l-3.6,2.1c-.1.1-.2.2,0,.3l2.8,1.6a.3.3,0,0,0,.4,0l3.7-2.1a.2.2,0,0,0,0-.3Zm11-6.3h-.5l-4.5,2.6c-.2.1-.2.2-.1.3l2.9,1.6h.4l4.6-2.6a.2.2,0,0,0,0-.3Zm-21.1,12.1h-.4l-24.5,14.2c-.2.1-.2.2-.1.2l2.9,1.7h.4L208,219.4c.2-.1.2-.2.1-.2Zm-25.9,15h-.4l-3.7,2.1c-.1.1-.1.2,0,.2l2.8,1.7h.5l3.6-2.1c.2-.1.2-.2.1-.3Zm30.9-17.9h-.4l-3.7,2.1a.2.2,0,0,0,0,.3l2.9,1.6h.4l3.7-2.1c.1-.1.1-.2,0-.2Zm-35.9,20.8h-.5l-3.6,2.1c-.1.1-.2.2,0,.3l2.8,1.6h.4l3.7-2.1a.2.2,0,0,0,0-.3Zm46-26.6a.3.3,0,0,0-.4,0l-3.7,2.1a.2.2,0,0,0,0,.3l2.8,1.6h.5l3.6-2.1c.2-.1.2-.2.1-.3Zm15.6-9a.3.3,0,0,0-.4,0l-3,1.7c-.1.1-.2.2,0,.3l2.8,1.6h.4l3-1.7c.1-.1.2-.2,0-.3Zm9.7-6.8,3-1.7c.1-.1.2-.2,0-.3l-2.8-1.6h-.4l-3,1.7c-.1.1-.2.2,0,.3l2.8,1.6Zm-17.7.9,3-1.8c.1,0,.1-.1,0-.2l-2.9-1.7h-.4l-3,1.7c-.1,0-.1.2,0,.2l2.9,1.7Zm-11.6,16,8.7-5c.2-.1.2-.2.1-.2l-2.9-1.7h-.4l-8.7,5c-.2.1-.2.2-.1.3l2.9,1.6Zm24.6-14.4h.4l3-1.7a.2.2,0,0,0,0-.3l-2.9-1.6H241l-3,1.7a.2.2,0,0,0,0,.3Zm-3.7-2.3,3-1.8c.1,0,.1-.1,0-.2l-2.8-1.7h-.5l-2.9,1.7c-.2.1-.2.2-.1.2l2.9,1.7ZM212,212.4l2.9-1.7c.2-.1.2-.2.1-.2l-2.9-1.7h-.4l-3,1.8c-.1,0-.1.1,0,.2l2.8,1.7Zm19.2-11.3h.5l2.9-1.8c.2,0,.2-.1.1-.2l-2.9-1.6h-.4l-3,1.7c-.1.1-.1.2,0,.2Zm-41,23.9,3-1.7a.2.2,0,0,0,0-.3l-2.8-1.6h-.5l-2.9,1.7c-.2.1-.2.2-.1.3l2.9,1.6Zm4.4-2.5,2.9-1.7c.2-.1.2-.2.1-.3l-2.9-1.6h-.4l-3,1.7a.2.2,0,0,0,0,.3l2.8,1.6Zm-8.7,5,2.9-1.7c.2-.1.2-.2.1-.3l-2.9-1.6h-.4l-3,1.7a.2.2,0,0,0,0,.3l2.8,1.6Zm17.4-10,2.9-1.8c.2,0,.2-.1.1-.2l-2.9-1.6H203l-3,1.7c-.1.1-.1.2,0,.2l2.8,1.7Zm-4.4,2.5,3-1.7a.2.2,0,0,0,0-.3l-2.8-1.6h-.5l-2.9,1.7c-.2.1-.2.2-.1.2l2.9,1.7Zm8.7-5,3-1.8c.1,0,.1-.2,0-.2l-2.8-1.7h-.5l-2.9,1.7c-.2,0-.2.2-.1.2l2.9,1.7Zm23.8-35h.4l3-1.7a.2.2,0,0,0,0-.3l-.8-.4h-.4l-3,1.7a.2.2,0,0,0,0,.3Zm-21.7,13.7a.5.5,0,0,0,.5,0l2.9-1.7c.2-.1.2-.2.1-.3l-2.9-1.6h-.4l-3,1.7c-.1.1-.1.2,0,.2Zm8.7-5h.5l3-1.8c.1,0,.1-.2,0-.2L219,185h-.4l-3,1.7c-.1,0-.1.2,0,.2Zm-14,8.1h.5l2.9-1.7c.2,0,.2-.2.1-.2l-2.9-1.7h-.4l-3,1.8c-.1,0-.1.2,0,.2Zm9.7-5.6h.4l3-1.8c.1,0,.1-.1,0-.2l-2.8-1.6h-.5l-2.9,1.7c-.2.1-.2.2-.1.2Zm-18.4,10.6h.5l2.9-1.7c.2-.1.2-.2.1-.3l-2.9-1.6h-.4l-3,1.7c-.1.1-.1.2,0,.2Zm4.4-2.5h.4l3-1.8c.1,0,.1-.1,0-.2l-2.8-1.7h-.5l-3,1.7c-.1.1-.1.2,0,.2ZM222.7,185h.4l3-1.7a.2.2,0,0,0,0-.3l-.8-.4h-.4l-3,1.7a.2.2,0,0,0,0,.3Zm13-7.5h.5l2.9-1.7c.2-.1.2-.2.1-.3l-.8-.4H238l-3,1.7c-.1.1-.1.2,0,.2Zm6,3.4h.4l3-1.7c.1-.1.2-.2,0-.2l-2.8-1.7c-.1-.1-.3,0-.4,0l-3,1.7c-.1.1-.2.2,0,.3Zm8.3,9.6,3-1.7a.2.2,0,0,0,0-.3l-2.9-1.6h-.4l-3,1.7a.2.2,0,0,0,0,.3l2.9,1.6Zm-23-8h.4l3-1.7c.2-.1.2-.2.1-.3l-.8-.4h-.4l-3,1.7c-.1.1-.2.2,0,.3Zm-35.6,21.8h.4l3-1.7a.2.2,0,0,0,0-.3l-2.8-1.6h-.5l-3,1.7a.2.2,0,0,0,0,.3Z"/><polygon class="m" points="204.2 227.5 204.8 227.8 221 237.2 249.9 220.5 250.5 220.2 233.6 210.5 204.2 227.5"/><polygon class="e" points="204.8 227.8 221 237.2 249.9 220.5 233.6 211.2 204.8 227.8"/><polygon class="i" points="204.8 227.8 221 237.2 249.9 220.5 233.6 211.2 204.8 227.8"/><path class="e" d="M121,224.4l.9.4-.9-.4h0Z"/><path class="e" d="M125.7,224.7h0Z"/><path class="n" d="M241.9,86.4h0v-.2h-.4c-.3-.2-.6-.1-1,.1l-103,59.4a3.4,3.4,0,0,0-1.6,2.7v74.6h0v.3a1.2,1.2,0,0,0,.6,1h1l1.5-.9,101.5-58.6a3.6,3.6,0,0,0,1.5-2.7V86.4Z"/><path class="e" d="M241.4,85.6c-.3-.2-.6-.1-1,.1l-103,59.4a3.4,3.4,0,0,0-1.6,2.7v5.1l-2-1.1v-5.1a3.4,3.4,0,0,1,1.6-2.7l103-59.4a.9.9,0,0,1,1.1-.1Z"/><path class="j" d="M241.9,86.6c0-1-.7-1.4-1.5-.9l-103,59.4a3.4,3.4,0,0,0-1.6,2.7v5.1L241.9,91.7Z"/><path class="k" d="M240.4,85.7l-103,59.4a4.3,4.3,0,0,0-1.1,1.2l-2-1.2a3.8,3.8,0,0,1,1.1-1.1l103-59.4a.9.9,0,0,1,1.1-.1l1.9,1.1C241.1,85.4,240.8,85.5,240.4,85.7Z"/><path class="i" d="M133.8,151.8v-5.1a3.3,3.3,0,0,1,.5-1.6l2,1.2a3,3,0,0,0-.5,1.5v5.1Z"/><path class="o" d="M232.6,92.4a2.3,2.3,0,0,0-.9,1.8c0,.8.4,1.2.9.9a2.6,2.6,0,0,0,.8-1.9C233.4,92.5,233,92.1,232.6,92.4Z"/><path class="o" d="M235.7,90.5a2.5,2.5,0,0,0-.9,1.9c0,.8.4,1.1.9.9a2.5,2.5,0,0,0,.9-1.9C236.6,90.6,236.2,90.3,235.7,90.5Z"/><path class="o" d="M238.9,88.7a2.3,2.3,0,0,0-.9,1.9c0,.7.4,1.1.9.8a2.3,2.3,0,0,0,.9-1.8C239.8,88.8,239.4,88.4,238.9,88.7Z"/><path class="p" d="M136.4,223.7h-.1l-1.6-.9a1.8,1.8,0,0,1-.9-1.2V151.8l2,1.1v69.8a1.1,1.1,0,0,0,.5.9h.1Z"/><path class="q" d="M166.4,141.7v-.3l1.1-2.3h.2v1.1a.3.3,0,0,1-.1.2l-.6,1.2.6.5h.1v1.2h-.2l-1.1-1v-.8Z"/><path class="q" d="M170.5,135.9c0-.1.1-.1.1-.2a.2.2,0,0,1,.2-.2l.4-.2c0-.1.1-.1.1,0h0l-1.9,8.1v.3h-.2l-.4.3h-.1Z"/><path class="q" d="M173.5,138.2a.4.4,0,0,1-.1.3l-1.1,2.3h-.2v-1c0-.1,0-.2.1-.2l.6-1.3-.6-.5a.1.1,0,0,1-.1-.1v-1.2h.2l1.1,1v.8Z"/><path class="q" d="M176.6,137.7h.1v1.1h-.1l-.5.3H176a.1.1,0,0,1-.1-.1v-.9c0-.1,0-.1.1-.2h.1Z"/><path class="q" d="M178.4,136.7h.1v.9h0v.2l-.6.3h-.1v-1.2h.1Z"/><path class="q" d="M180.1,135.6h.1c.1.1.1.1.1.2v.8c0,.1,0,.2-.1.2v.2l-.5.3h-.1c0-.1-.1-.1-.1-.2v-.8a.3.3,0,0,1,.1-.2v-.2Z"/><path class="q" d="M166.9,148l21.7-12.6c.3-.2.6-.1.6.3a1.3,1.3,0,0,1-.6.9l-21.7,12.5c-.3.2-.6.1-.6-.2A1,1,0,0,1,166.9,148Z"/><path class="r" d="M175.2,157.5l59-34.1a.4.4,0,0,1,.6.3,1.3,1.3,0,0,1-.6.9l-59,34.1c-.3.2-.6.1-.6-.2A1.3,1.3,0,0,1,175.2,157.5Z"/><path class="r" d="M175.2,162.3l8.2-4.7c.3-.2.6-.1.6.2a1.3,1.3,0,0,1-.6,1l-8.2,4.7c-.3.2-.6.1-.6-.3A1.3,1.3,0,0,1,175.2,162.3Z"/><path class="r" d="M175.2,167.1l8.2-4.8c.3-.1.6,0,.6.3a1,1,0,0,1-.6.9l-8.2,4.8c-.3.2-.6.1-.6-.3A1.3,1.3,0,0,1,175.2,167.1Z"/><path class="q" d="M190.8,134.2l47.6-27.6c.3-.2.5,0,.5.3a1.2,1.2,0,0,1-.5.9l-47.6,27.6q-.6.2-.6-.3A.9.9,0,0,1,190.8,134.2Z"/><path class="q" d="M175.4,195.7l13.2-7.6c.3-.2.6-.1.6.3a1.3,1.3,0,0,1-.6.9l-13.2,7.6c-.3.2-.6.1-.6-.3A1.3,1.3,0,0,1,175.4,195.7Z"/><path class="q" d="M190.8,186.8l47.6-27.5c.3-.2.5,0,.5.3a1.2,1.2,0,0,1-.5.9L190.8,188c-.4.2-.6.1-.6-.2A1.1,1.1,0,0,1,190.8,186.8Z"/><path class="q" d="M190.8,172.5,238.4,145c.3-.2.5-.1.5.2a1.2,1.2,0,0,1-.5,1l-47.6,27.5c-.4.2-.6,0-.6-.3A1.1,1.1,0,0,1,190.8,172.5Z"/><path class="q" d="M190.8,177.3l47.6-27.5c.3-.2.5-.1.5.2a1.2,1.2,0,0,1-.5,1l-47.6,27.5c-.4.2-.6,0-.6-.3A1.1,1.1,0,0,1,190.8,177.3Z"/><path class="g" d="M175.4,190.9l13.2-7.6c.3-.2.6-.1.6.3a1.3,1.3,0,0,1-.6.9l-13.2,7.6c-.3.2-.6.1-.6-.3A1.3,1.3,0,0,1,175.4,190.9Z"/><path class="q" d="M186.1,175.2l1.7-1c.3-.2.5,0,.5.3a1.2,1.2,0,0,1-.5.9l-1.7,1c-.3.2-.5,0-.5-.3A1.2,1.2,0,0,1,186.1,175.2Z"/><path class="e" d="M166.9,152.8l10.9-6.4a.4.4,0,0,1,.6.3,1.3,1.3,0,0,1-.6.9L166.9,154c-.3.1-.6,0-.6-.3A1,1,0,0,1,166.9,152.8Z"/><path class="s" d="M166.9,152.8l10.9-6.4a.4.4,0,0,1,.6.3,1.3,1.3,0,0,1-.6.9L166.9,154c-.3.1-.6,0-.6-.3A1,1,0,0,1,166.9,152.8Z"/><path class="e" d="M166.9,157.5l5.1-2.9c.3-.2.6-.1.6.3a1.3,1.3,0,0,1-.6.9l-5.1,2.9c-.3.2-.6.1-.6-.2A1.3,1.3,0,0,1,166.9,157.5Z"/><path class="s" d="M166.9,157.5l5.1-2.9c.3-.2.6-.1.6.3a1.3,1.3,0,0,1-.6.9l-5.1,2.9c-.3.2-.6.1-.6-.2A1.3,1.3,0,0,1,166.9,157.5Z"/><path class="e" d="M166.9,162.3l5.1-2.9c.3-.2.6-.1.6.2a1.3,1.3,0,0,1-.6,1l-5.1,2.9c-.3.2-.6.1-.6-.3A1.3,1.3,0,0,1,166.9,162.3Z"/><path class="s" d="M166.9,162.3l5.1-2.9c.3-.2.6-.1.6.2a1.3,1.3,0,0,1-.6,1l-5.1,2.9c-.3.2-.6.1-.6-.3A1.3,1.3,0,0,1,166.9,162.3Z"/><path class="e" d="M166.9,167.1l5.1-2.9c.3-.2.6-.1.6.2a1.3,1.3,0,0,1-.6,1l-5.1,2.9c-.3.2-.6.1-.6-.3A1.3,1.3,0,0,1,166.9,167.1Z"/><path class="s" d="M166.9,167.1l5.1-2.9c.3-.2.6-.1.6.2a1.3,1.3,0,0,1-.6,1l-5.1,2.9c-.3.2-.6.1-.6-.3A1.3,1.3,0,0,1,166.9,167.1Z"/><path class="e" d="M166.9,171.9l5.1-3c.3-.1.6,0,.6.3a1,1,0,0,1-.6.9l-5.1,3c-.3.2-.6.1-.6-.3A1.3,1.3,0,0,1,166.9,171.9Z"/><path class="s" d="M166.9,171.9l5.1-3c.3-.1.6,0,.6.3a1,1,0,0,1-.6.9l-5.1,3c-.3.2-.6.1-.6-.3A1.3,1.3,0,0,1,166.9,171.9Z"/><path class="e" d="M180,145.2l6.5-3.8c.3-.2.6-.1.6.3a1.3,1.3,0,0,1-.6.9l-6.5,3.8c-.3.1-.6,0-.6-.3A1.1,1.1,0,0,1,180,145.2Z"/><path class="s" d="M180,145.2l6.5-3.8c.3-.2.6-.1.6.3a1.3,1.3,0,0,1-.6.9l-6.5,3.8c-.3.1-.6,0-.6-.3A1.1,1.1,0,0,1,180,145.2Z"/><path class="g" d="M190.1,168.1l48.3-27.9c.3-.2.5-.1.5.3a1.2,1.2,0,0,1-.5.9l-48.3,27.9c-.3.2-.5,0-.5-.3A1.2,1.2,0,0,1,190.1,168.1Z"/><path class="g" d="M231.8,139.2l6.6-3.8c.3-.2.5-.1.5.3a1.2,1.2,0,0,1-.5.9l-6.6,3.8c-.3.1-.5,0-.5-.3A.9.9,0,0,1,231.8,139.2Z"/><path class="g" d="M181.4,168.3l48.3-27.9c.3-.2.5-.1.5.3a1.2,1.2,0,0,1-.5.9l-48.3,27.9c-.3.2-.5.1-.5-.3A1.2,1.2,0,0,1,181.4,168.3Z"/><path class="e" d="M175.2,152.7l10.9-6.3c.3-.2.6-.1.6.3a1.3,1.3,0,0,1-.6.9l-10.9,6.3c-.3.2-.6.1-.6-.2A1.3,1.3,0,0,1,175.2,152.7Z"/><path class="s" d="M175.2,152.7l10.9-6.3c.3-.2.6-.1.6.3a1.3,1.3,0,0,1-.6.9l-10.9,6.3c-.3.2-.6.1-.6-.2A1.3,1.3,0,0,1,175.2,152.7Z"/><path class="e" d="M188.3,145.2l43.9-25.4c.3-.2.5,0,.5.3a1.2,1.2,0,0,1-.5.9l-43.9,25.4c-.3.1-.6,0-.6-.3A1,1,0,0,1,188.3,145.2Z"/><path class="s" d="M188.3,145.2l43.9-25.4c.3-.2.5,0,.5.3a1.2,1.2,0,0,1-.5.9l-43.9,25.4c-.3.1-.6,0-.6-.3A1,1,0,0,1,188.3,145.2Z"/><g class="t"><path class="g" d="M158.9,151.6l3-1.8c.3-.1.6,0,.6.3v1.1a1.3,1.3,0,0,1-.6,1l-3,1.7c-.3.2-.5.1-.5-.3v-1.1A1.1,1.1,0,0,1,158.9,151.6Z"/><path class="g" d="M158.9,156.4l3-1.7c.3-.2.6-.1.6.3v1.1a1.1,1.1,0,0,1-.6.9l-3,1.8c-.3.1-.5,0-.5-.4v-1.1A1.2,1.2,0,0,1,158.9,156.4Z"/><path class="g" d="M158.9,161.2l3-1.7a.4.4,0,0,1,.6.3v1.1a1.3,1.3,0,0,1-.6,1l-3,1.7c-.3.2-.5,0-.5-.3v-1.1A1.2,1.2,0,0,1,158.9,161.2Z"/><path class="g" d="M158.9,166.1l3-1.8c.3-.1.6,0,.6.3v1.2a1.3,1.3,0,0,1-.6.9l-3,1.7c-.3.2-.5.1-.5-.3V167A1.1,1.1,0,0,1,158.9,166.1Z"/><path class="g" d="M158.9,170.9l3-1.7c.3-.2.6-.1.6.3v1.1a1.1,1.1,0,0,1-.6.9l-3,1.8c-.3.1-.5,0-.5-.3v-1.1A1.2,1.2,0,0,1,158.9,170.9Z"/><path class="g" d="M158.9,175.7l3-1.7a.4.4,0,0,1,.6.3v1.1a1.3,1.3,0,0,1-.6,1l-3,1.7c-.3.2-.5,0-.5-.3v-1.1A1.2,1.2,0,0,1,158.9,175.7Z"/><path class="g" d="M158.9,180.6l3-1.8c.3-.1.6,0,.6.4v1.1a1.3,1.3,0,0,1-.6.9l-3,1.7c-.3.2-.5.1-.5-.3v-1.1A1.1,1.1,0,0,1,158.9,180.6Z"/><path class="g" d="M158.9,185.4l3-1.7c.3-.2.6-.1.6.3v1.1a1.1,1.1,0,0,1-.6.9l-3,1.8c-.3.2-.5,0-.5-.3v-1.1A1.2,1.2,0,0,1,158.9,185.4Z"/><path class="g" d="M158.9,190.2l3-1.7a.4.4,0,0,1,.6.3v1.1a1.3,1.3,0,0,1-.6,1l-3,1.7c-.3.2-.5,0-.5-.3v-1.1A1.2,1.2,0,0,1,158.9,190.2Z"/><path class="g" d="M158.9,195.1l3-1.8c.3-.1.6,0,.6.4v1.1a1.3,1.3,0,0,1-.6.9l-3,1.7c-.3.2-.5.1-.5-.3V196A1.2,1.2,0,0,1,158.9,195.1Z"/><path class="g" d="M158.9,199.9l3-1.7c.3-.2.6-.1.6.3v1.1a1,1,0,0,1-.6.9l-3,1.8c-.3.2-.5,0-.5-.3v-1.1A1.2,1.2,0,0,1,158.9,199.9Z"/><path class="g" d="M158.9,204.8l3-1.8a.4.4,0,0,1,.6.3v1.1a1.3,1.3,0,0,1-.6,1l-3,1.7c-.3.2-.5.1-.5-.3v-1.1A1.1,1.1,0,0,1,158.9,204.8Z"/></g><path class="n" d="M139,154.1l16.2-9.4c.6-.3,1.1,0,1.1.7v18.7a2.4,2.4,0,0,1-1.1,1.9L139,175.4c-.6.4-1.1.1-1.1-.6V156A2.5,2.5,0,0,1,139,154.1Z"/><path class="e" d="M140.5,171l1.5-.9c.3-.2.5,0,.5.3a1.2,1.2,0,0,1-.5.9l-1.5.9a.4.4,0,0,1-.6-.3A1.3,1.3,0,0,1,140.5,171Z"/><path class="s" d="M140.5,171l1.5-.9c.3-.2.5,0,.5.3a1.2,1.2,0,0,1-.5.9l-1.5.9a.4.4,0,0,1-.6-.3A1.3,1.3,0,0,1,140.5,171Z"/><path class="e" d="M140.5,155.6l1.5-.9c.3-.1.5,0,.5.3a.9.9,0,0,1-.5.9l-1.5.9c-.3.2-.6.1-.6-.3A1.3,1.3,0,0,1,140.5,155.6Z"/><path class="s" d="M140.5,155.6l1.5-.9c.3-.1.5,0,.5.3a.9.9,0,0,1-.5.9l-1.5.9c-.3.2-.6.1-.6-.3A1.3,1.3,0,0,1,140.5,155.6Z"/><path class="e" d="M142.6,157.5l1.5-.9c.3-.2.5-.1.5.3a1.2,1.2,0,0,1-.5.9l-1.5.9c-.3.1-.6,0-.6-.3A1,1,0,0,1,142.6,157.5Z"/><path class="s" d="M142.6,157.5l1.5-.9c.3-.2.5-.1.5.3a1.2,1.2,0,0,1-.5.9l-1.5.9c-.3.1-.6,0-.6-.3A1,1,0,0,1,142.6,157.5Z"/><path class="e" d="M142.6,160.5l1.5-.8c.3-.2.5-.1.5.2a1.2,1.2,0,0,1-.5,1l-1.5.8c-.3.2-.6.1-.6-.3A1.3,1.3,0,0,1,142.6,160.5Z"/><path class="s" d="M142.6,160.5l1.5-.8c.3-.2.5-.1.5.2a1.2,1.2,0,0,1-.5,1l-1.5.8c-.3.2-.6.1-.6-.3A1.3,1.3,0,0,1,142.6,160.5Z"/><path class="e" d="M140.5,164.8l1.5-.8c.3-.2.5-.1.5.3a1.2,1.2,0,0,1-.5.9l-1.5.8c-.3.2-.6.1-.6-.2A1.3,1.3,0,0,1,140.5,164.8Z"/><path class="s" d="M140.5,164.8l1.5-.8c.3-.2.5-.1.5.3a1.2,1.2,0,0,1-.5.9l-1.5.8c-.3.2-.6.1-.6-.2A1.3,1.3,0,0,1,140.5,164.8Z"/><path class="e" d="M142.6,166.7l1.5-.9c.3-.1.5,0,.5.3a1.2,1.2,0,0,1-.5.9l-1.5.9a.4.4,0,0,1-.6-.3A1.3,1.3,0,0,1,142.6,166.7Z"/><path class="s" d="M142.6,166.7l1.5-.9c.3-.1.5,0,.5.3a1.2,1.2,0,0,1-.5.9l-1.5.9a.4.4,0,0,1-.6-.3A1.3,1.3,0,0,1,142.6,166.7Z"/><path class="e" d="M144.6,153.2l9.1-5.2c.3-.2.6-.1.6.2a1.3,1.3,0,0,1-.6,1l-9.1,5.2c-.3.2-.6.1-.6-.2A1.3,1.3,0,0,1,144.6,153.2Z"/><path class="u" d="M144.6,153.2l9.1-5.2c.3-.2.6-.1.6.2a1.3,1.3,0,0,1-.6,1l-9.1,5.2c-.3.2-.6.1-.6-.2A1.3,1.3,0,0,1,144.6,153.2Z"/><path class="e" d="M144.6,168.6l9.1-5.3c.3-.1.6,0,.6.3a1,1,0,0,1-.6.9l-9.1,5.3c-.3.2-.6.1-.6-.3A1.3,1.3,0,0,1,144.6,168.6Z"/><path class="u" d="M144.6,168.6l9.1-5.3c.3-.1.6,0,.6.3a1,1,0,0,1-.6.9l-9.1,5.3c-.3.2-.6.1-.6-.3A1.3,1.3,0,0,1,144.6,168.6Z"/><path class="e" d="M146.7,155.1l7-4.1c.3-.1.6,0,.6.3a1.1,1.1,0,0,1-.6.9l-7,4.1a.4.4,0,0,1-.6-.3A1.3,1.3,0,0,1,146.7,155.1Z"/><path class="u" d="M146.7,155.1l7-4.1c.3-.1.6,0,.6.3a1.1,1.1,0,0,1-.6.9l-7,4.1a.4.4,0,0,1-.6-.3A1.3,1.3,0,0,1,146.7,155.1Z"/><path class="e" d="M146.7,158.2l7-4.1a.4.4,0,0,1,.6.3,1.3,1.3,0,0,1-.6.9l-7,4.1c-.3.1-.6,0-.6-.3A1.1,1.1,0,0,1,146.7,158.2Z"/><path class="u" d="M146.7,158.2l7-4.1a.4.4,0,0,1,.6.3,1.3,1.3,0,0,1-.6.9l-7,4.1c-.3.1-.6,0-.6-.3A1.1,1.1,0,0,1,146.7,158.2Z"/><path class="e" d="M144.6,162.5l9.1-5.3c.3-.2.6-.1.6.3a1.3,1.3,0,0,1-.6.9l-9.1,5.3c-.3.1-.6,0-.6-.3A1.1,1.1,0,0,1,144.6,162.5Z"/><path class="u" d="M144.6,162.5l9.1-5.3c.3-.2.6-.1.6.3a1.3,1.3,0,0,1-.6.9l-9.1,5.3c-.3.1-.6,0-.6-.3A1.1,1.1,0,0,1,144.6,162.5Z"/><path class="e" d="M146.7,164.3l7-4c.3-.2.6-.1.6.2a1.3,1.3,0,0,1-.6,1l-7,4c-.3.2-.6.1-.6-.3A1.3,1.3,0,0,1,146.7,164.3Z"/><path class="u" d="M146.7,164.3l7-4c.3-.2.6-.1.6.2a1.3,1.3,0,0,1-.6,1l-7,4c-.3.2-.6.1-.6-.3A1.3,1.3,0,0,1,146.7,164.3Z"/><path class="n" d="M139,179l16.2-9.4c.6-.4,1.1-.1,1.1.6v37.1a2.5,2.5,0,0,1-1.1,1.9L139,218.6c-.6.3-1.1.1-1.1-.6V180.8A2.2,2.2,0,0,1,139,179Z"/><path class="e" d="M140.5,180.4l1.5-.8c.3-.2.5-.1.5.3a1.2,1.2,0,0,1-.5.9l-1.5.8c-.3.2-.6.1-.6-.2A1.3,1.3,0,0,1,140.5,180.4Z"/><path class="s" d="M140.5,180.4l1.5-.8c.3-.2.5-.1.5.3a1.2,1.2,0,0,1-.5.9l-1.5.8c-.3.2-.6.1-.6-.2A1.3,1.3,0,0,1,140.5,180.4Z"/><path class="e" d="M142.6,182.3l1.5-.9c.3-.1.5,0,.5.3a1.1,1.1,0,0,1-.5.9l-1.5.9a.4.4,0,0,1-.6-.3A1.3,1.3,0,0,1,142.6,182.3Z"/><path class="s" d="M142.6,182.3l1.5-.9c.3-.1.5,0,.5.3a1.1,1.1,0,0,1-.5.9l-1.5.9a.4.4,0,0,1-.6-.3A1.3,1.3,0,0,1,142.6,182.3Z"/><path class="e" d="M142.6,185.4l1.5-.9c.3-.2.5,0,.5.3a1.2,1.2,0,0,1-.5.9l-1.5.9c-.3.1-.6,0-.6-.3A1.1,1.1,0,0,1,142.6,185.4Z"/><path class="s" d="M142.6,185.4l1.5-.9c.3-.2.5,0,.5.3a1.2,1.2,0,0,1-.5.9l-1.5.9c-.3.1-.6,0-.6-.3A1.1,1.1,0,0,1,142.6,185.4Z"/><path class="e" d="M140.5,189.7l1.5-.9c.3-.2.5,0,.5.3a1.2,1.2,0,0,1-.5.9l-1.5.9c-.3.1-.6,0-.6-.3A1.1,1.1,0,0,1,140.5,189.7Z"/><path class="s" d="M140.5,189.7l1.5-.9c.3-.2.5,0,.5.3a1.2,1.2,0,0,1-.5.9l-1.5.9c-.3.1-.6,0-.6-.3A1.1,1.1,0,0,1,140.5,189.7Z"/><path class="e" d="M144.6,178.1l9.1-5.3a.4.4,0,0,1,.6.3,1.3,1.3,0,0,1-.6.9l-9.1,5.3a.4.4,0,0,1-.6-.3A1.3,1.3,0,0,1,144.6,178.1Z"/><path class="u" d="M144.6,178.1l9.1-5.3a.4.4,0,0,1,.6.3,1.3,1.3,0,0,1-.6.9l-9.1,5.3a.4.4,0,0,1-.6-.3A1.3,1.3,0,0,1,144.6,178.1Z"/><path class="e" d="M146.7,179.9l7-4c.3-.2.6-.1.6.3a1.3,1.3,0,0,1-.6.9l-7,4c-.3.2-.6.1-.6-.2A1.3,1.3,0,0,1,146.7,179.9Z"/><path class="u" d="M146.7,179.9l7-4c.3-.2.6-.1.6.3a1.3,1.3,0,0,1-.6.9l-7,4c-.3.2-.6.1-.6-.2A1.3,1.3,0,0,1,146.7,179.9Z"/><path class="e" d="M146.7,183l7-4c.3-.2.6-.1.6.2a1.3,1.3,0,0,1-.6,1l-7,4c-.3.2-.6.1-.6-.3A1.3,1.3,0,0,1,146.7,183Z"/><path class="u" d="M146.7,183l7-4c.3-.2.6-.1.6.2a1.3,1.3,0,0,1-.6,1l-7,4c-.3.2-.6.1-.6-.3A1.3,1.3,0,0,1,146.7,183Z"/><path class="e" d="M144.6,187.3l9.1-5.3c.3-.1.6,0,.6.3a1.1,1.1,0,0,1-.6.9l-9.1,5.3c-.3.2-.6.1-.6-.3A1.3,1.3,0,0,1,144.6,187.3Z"/><path class="u" d="M144.6,187.3l9.1-5.3c.3-.1.6,0,.6.3a1.1,1.1,0,0,1-.6.9l-9.1,5.3c-.3.2-.6.1-.6-.3A1.3,1.3,0,0,1,144.6,187.3Z"/><path class="e" d="M142.6,191.5l1.5-.8c.3-.2.5-.1.5.3a1.2,1.2,0,0,1-.5.9l-1.5.8c-.3.2-.6.1-.6-.2A1.3,1.3,0,0,1,142.6,191.5Z"/><path class="s" d="M142.6,191.5l1.5-.8c.3-.2.5-.1.5.3a1.2,1.2,0,0,1-.5.9l-1.5.8c-.3.2-.6.1-.6-.2A1.3,1.3,0,0,1,142.6,191.5Z"/><path class="e" d="M142.6,194.6l1.5-.8c.3-.2.5-.1.5.2a1.2,1.2,0,0,1-.5,1l-1.5.8c-.3.2-.6.1-.6-.3A1.3,1.3,0,0,1,142.6,194.6Z"/><path class="s" d="M142.6,194.6l1.5-.8c.3-.2.5-.1.5.2a1.2,1.2,0,0,1-.5,1l-1.5.8c-.3.2-.6.1-.6-.3A1.3,1.3,0,0,1,142.6,194.6Z"/><path class="e" d="M146.7,189.2l7-4.1a.4.4,0,0,1,.6.3,1.3,1.3,0,0,1-.6.9l-7,4.1a.4.4,0,0,1-.6-.3A1.3,1.3,0,0,1,146.7,189.2Z"/><path class="u" d="M146.7,189.2l7-4.1a.4.4,0,0,1,.6.3,1.3,1.3,0,0,1-.6.9l-7,4.1a.4.4,0,0,1-.6-.3A1.3,1.3,0,0,1,146.7,189.2Z"/><path class="e" d="M146.7,192.3l7-4.1c.3-.2.6-.1.6.3a1.3,1.3,0,0,1-.6.9l-7,4.1c-.3.1-.6,0-.6-.3A1,1,0,0,1,146.7,192.3Z"/><path class="u" d="M146.7,192.3l7-4.1c.3-.2.6-.1.6.3a1.3,1.3,0,0,1-.6.9l-7,4.1c-.3.1-.6,0-.6-.3A1,1,0,0,1,146.7,192.3Z"/><path class="e" d="M140.5,205.1l1.5-.9c.3-.1.5,0,.5.3a1.2,1.2,0,0,1-.5.9l-1.5.9a.4.4,0,0,1-.6-.3A1.3,1.3,0,0,1,140.5,205.1Z"/><path class="s" d="M140.5,205.1l1.5-.9c.3-.1.5,0,.5.3a1.2,1.2,0,0,1-.5.9l-1.5.9a.4.4,0,0,1-.6-.3A1.3,1.3,0,0,1,140.5,205.1Z"/><path class="e" d="M144.6,202.7l9.1-5.3c.3-.1.6,0,.6.3a1,1,0,0,1-.6.9l-9.1,5.3c-.3.2-.6.1-.6-.3A1.3,1.3,0,0,1,144.6,202.7Z"/><path class="u" d="M144.6,202.7l9.1-5.3c.3-.1.6,0,.6.3a1,1,0,0,1-.6.9l-9.1,5.3c-.3.2-.6.1-.6-.3A1.3,1.3,0,0,1,144.6,202.7Z"/><path class="e" d="M142.6,207l1.5-.9c.3-.2.5,0,.5.3a1.2,1.2,0,0,1-.5.9l-1.5.9c-.3.1-.6,0-.6-.3A1.1,1.1,0,0,1,142.6,207Z"/><path class="s" d="M142.6,207l1.5-.9c.3-.2.5,0,.5.3a1.2,1.2,0,0,1-.5.9l-1.5.9c-.3.1-.6,0-.6-.3A1.1,1.1,0,0,1,142.6,207Z"/><path class="e" d="M142.6,210l1.5-.8c.3-.2.5-.1.5.2a1.2,1.2,0,0,1-.5,1l-1.5.8c-.3.2-.6.1-.6-.2A1.3,1.3,0,0,1,142.6,210Z"/><path class="s" d="M142.6,210l1.5-.8c.3-.2.5-.1.5.2a1.2,1.2,0,0,1-.5,1l-1.5.8c-.3.2-.6.1-.6-.2A1.3,1.3,0,0,1,142.6,210Z"/><path class="e" d="M146.7,204.6l7-4.1c.3-.1.6,0,.6.3a1,1,0,0,1-.6.9l-7,4.1a.4.4,0,0,1-.6-.3A1.3,1.3,0,0,1,146.7,204.6Z"/><path class="u" d="M146.7,204.6l7-4.1c.3-.1.6,0,.6.3a1,1,0,0,1-.6.9l-7,4.1a.4.4,0,0,1-.6-.3A1.3,1.3,0,0,1,146.7,204.6Z"/><path class="e" d="M146.7,207.7l7-4.1a.4.4,0,0,1,.6.3,1.3,1.3,0,0,1-.6.9l-7,4.1c-.3.1-.6,0-.6-.3A1.3,1.3,0,0,1,146.7,207.7Z"/><path class="u" d="M146.7,207.7l7-4.1a.4.4,0,0,1,.6.3,1.3,1.3,0,0,1-.6.9l-7,4.1c-.3.1-.6,0-.6-.3A1.3,1.3,0,0,1,146.7,207.7Z"/><path class="e" d="M142.6,197.7l1.5-.9c.3-.2.5,0,.5.3a1.2,1.2,0,0,1-.5.9l-1.5.9c-.3.1-.6,0-.6-.3A1.1,1.1,0,0,1,142.6,197.7Z"/><path class="s" d="M142.6,197.7l1.5-.9c.3-.2.5,0,.5.3a1.2,1.2,0,0,1-.5.9l-1.5.9c-.3.1-.6,0-.6-.3A1.1,1.1,0,0,1,142.6,197.7Z"/><path class="e" d="M140.5,202l1.5-.9c.3-.2.5,0,.5.3a1.2,1.2,0,0,1-.5.9l-1.5.9c-.3.1-.6,0-.6-.3A1.1,1.1,0,0,1,140.5,202Z"/><path class="s" d="M140.5,202l1.5-.9c.3-.2.5,0,.5.3a1.2,1.2,0,0,1-.5.9l-1.5.9c-.3.1-.6,0-.6-.3A1.1,1.1,0,0,1,140.5,202Z"/><path class="e" d="M146.7,195.3l7-4c.3-.2.6-.1.6.2a1,1,0,0,1-.6.9l-7,4.1c-.3.2-.6.1-.6-.3A1.3,1.3,0,0,1,146.7,195.3Z"/><path class="u" d="M146.7,195.3l7-4c.3-.2.6-.1.6.2a1,1,0,0,1-.6.9l-7,4.1c-.3.2-.6.1-.6-.3A1.3,1.3,0,0,1,146.7,195.3Z"/><path class="e" d="M144.6,199.6l9.1-5.3c.3-.1.6,0,.6.3a1.3,1.3,0,0,1-.6.9l-9.1,5.3c-.3.2-.6.1-.6-.3A1.3,1.3,0,0,1,144.6,199.6Z"/><path class="u" d="M144.6,199.6l9.1-5.3c.3-.1.6,0,.6.3a1.3,1.3,0,0,1-.6.9l-9.1,5.3c-.3.2-.6.1-.6-.3A1.3,1.3,0,0,1,144.6,199.6Z"/><path class="e" d="M140.5,214.4l1.5-.9c.3-.2.5,0,.5.3a1.2,1.2,0,0,1-.5.9l-1.5.9a.4.4,0,0,1-.6-.3A1.3,1.3,0,0,1,140.5,214.4Z"/><path class="s" d="M140.5,214.4l1.5-.9c.3-.2.5,0,.5.3a1.2,1.2,0,0,1-.5.9l-1.5.9a.4.4,0,0,1-.6-.3A1.3,1.3,0,0,1,140.5,214.4Z"/><path class="e" d="M144.6,212l9.1-5.3c.3-.1.6,0,.6.3a1.1,1.1,0,0,1-.6.9l-9.1,5.3c-.3.2-.6.1-.6-.3A1.3,1.3,0,0,1,144.6,212Z"/><path class="u" d="M144.6,212l9.1-5.3c.3-.1.6,0,.6.3a1.1,1.1,0,0,1-.6.9l-9.1,5.3c-.3.2-.6.1-.6-.3A1.3,1.3,0,0,1,144.6,212Z"/><path class="v" d="M231.7,191.1c2.7.4,4.3,1.9,4.3,4s-3.2,10.1-3.2,10.1c3.7,3.3,6.2,5.5,8,6.8s5.2,5.6,5.1,6.5-1.7-.9-2.7-1.9-2.9-1.1-5.1-2.2-9.2-4.6-10.2-5.9S231.7,191.1,231.7,191.1Z"/><path class="w" d="M231.5,191.1a5.9,5.9,0,0,1,2.2.5,4.2,4.2,0,0,1,2.4,2.8c.2,1.2-.3,3.1-1.1,5.3s-2,4.4-2,4.4l-1.5-1.2Z"/><path class="v" d="M248.6,250.2s.7,4.7,2,6.4,2.1,3.5,3.6,5.2l1.3,1.2a.6.6,0,0,1-.1.9c-.6.6-3.3.8-4.8-.3s-3-3.2-4-4.1a13.6,13.6,0,0,0-1.2-1.2,1.1,1.1,0,0,1-.3-1.1.6.6,0,0,0,.1-.4c.2-.9-1-4.4-1-4.4Z"/><path class="x" d="M245.3,259.3a1.7,1.7,0,0,0,.2.8,3.2,3.2,0,0,0,1.4,1,3.8,3.8,0,0,1,1.6,1.7,5.7,5.7,0,0,0,2.6,2.5,8,8,0,0,0,4.8.4c1.9-.4,2.1-1.6,2.1-1.6s.1-1.1-.4-1.2Z"/><path class="y" d="M244.8,254.4a10.5,10.5,0,0,1,.2,2.9,2.9,2.9,0,0,0,.3,2c.6.8,1.9,1,2.7,2.1a7.5,7.5,0,0,0,4.7,3.5c2.6.5,4.5-.4,5-1.1s0-1.5-1.7-2.3a19.8,19.8,0,0,1-4.1-3.8,8.3,8.3,0,0,1-1.7-2.7l-.7-2.1C249.4,252.5,245.2,254.2,244.8,254.4Z"/><path class="z" d="M218.3,213.3c-.5,2.9-.7,4.6.4,7.5s4.4,5.4,8.5,7.7,8.5,4.7,9.5,5.1,1.1,1,1,3,.6,5,2.8,8.9a62.2,62.2,0,0,1,3.8,7.9,18.9,18.9,0,0,1,4.7-1.6s-4.3-19.6-5.2-22.1-10.5-10.5-10.5-10.5l1.7-6.9Z"/><path class="v" d="M258.2,245.1a46.6,46.6,0,0,0,2.3,5.7A31.6,31.6,0,0,0,264,256l1.3,1.3a.5.5,0,0,1,0,.8c-.7.6-3.3.8-4.9-.3a35.8,35.8,0,0,1-3.9-4.1,6.8,6.8,0,0,1-1.2-1.2,1.1,1.1,0,0,1-.3-1.1.6.6,0,0,1,.1-.4c.2-.9-1.1-4.4-1.1-4.4Z"/><path class="aa" d="M228.2,207.5a12.4,12.4,0,0,0,.3,7.6c1,2.9,3.4,7.6,7.6,9.9a92.3,92.3,0,0,0,9.5,4.3c.8.4,1.1,1.2,1.4,3.3s1.3,4,3.5,7.9,3.8,7.3,3.8,7.3a11.9,11.9,0,0,1,4.5-1.3s-5.2-19.2-6.1-21.7-7.4-6.1-10.2-7.8-4.4-2.6-7.5-4.7Z"/><path class="x" d="M255.2,253.4a4.4,4.4,0,0,0,.1.9,3.9,3.9,0,0,0,1.4,1,4,4,0,0,1,1.6,1.6,5.5,5.5,0,0,0,2.6,2.6,8,8,0,0,0,4.8.4c1.9-.4,2.1-1.6,2.1-1.6s.1-1.1-.4-1.2Z"/><path class="ab" d="M254.6,248.6a10.5,10.5,0,0,1,.2,2.9,2.2,2.2,0,0,0,.4,1.9c.6.8,1.8,1.1,2.6,2.2a7.5,7.5,0,0,0,4.7,3.5c2.6.5,4.5-.4,5-1.1s0-1.5-1.7-2.3a19.8,19.8,0,0,1-4.1-3.8,7.8,7.8,0,0,1-1.7-2.8l-.5-1.9C259.3,246.9,254.6,248.6,254.6,248.6Z"/><path class="ac" d="M235.4,216.6a22.4,22.4,0,0,1-2.1,2.6l.6.5A8.3,8.3,0,0,0,235.4,216.6Z"/><path class="w" d="M224.3,191.3a16.7,16.7,0,0,0-3.4.5s2.1,2.4.7,6.8-1.6,3.1-3.4,3.7c1.2,5.2-.1,12.3-.1,12.3s3.4,2.7,10.5,2,6.4-4.3,6.4-4.3,0-8.7-.1-12.5-3.3-8.7-3.3-8.7a7.9,7.9,0,0,0-2.2-.1Z"/><path class="ad" d="M233.5,214.9c-3.3.6-7.9-.1-9.5-1.8a9,9,0,0,1-1.7-7.8,23.2,23.2,0,0,0,.1-9.1h-.3a8.5,8.5,0,0,1-.5,2.5c-.9,3-1.6,3.1-3.4,3.7,1.1,5.1-.1,12.3-.1,12.3s3.4,2.7,10.5,2a9,9,0,0,0,4.9-1.7Z"/><path class="i" d="M230.3,172.7c-2.6-.4-4.8.6-4.9,2.7-3-.1-4.3,1.7-4.3,3.9,0,4,2,8.5,6,9.1l2.1.4c4,.6,5.3-3.7,6.3-7.6.5-2.2.7-3.6-.5-5.3a3.2,3.2,0,0,0,1.1-2.9C233.1,175,232,173,230.3,172.7Z"/><path class="v" d="M234.6,176.3c.9.7,2,4.3,1.1,9.1s-2.2,4.8-2.9,5a7.1,7.1,0,0,1-3.2-.6l-.3,1.7s1.6,3.8,1,5.7-2.7-.6-4.1-2a14.2,14.2,0,0,1-2.5-3.6l1-5.7s-.4.5-1.5-.8-.8-2.7-.2-3.2a1.7,1.7,0,0,1,2.5,1.1s.6-3.9,3.7-4.4S233.4,178.2,234.6,176.3Z"/><path class="i" d="M227.1,179.7c-1.1,1.3-1,3.2-1.2,4.1a.8.8,0,0,1-.9.7h0s.3-2.1-.1-2.4S225.7,179.2,227.1,179.7Z"/><g class="ae"><path d="M229.6,189.8c-1.3-.4-3.8-1.6-4.1-2.7a2.5,2.5,0,0,0,.7,1.5,14.9,14.9,0,0,0,3.3,2Z"/></g><path class="af" d="M224,223.8v.4a1.2,1.2,0,0,0,.5.9l9.9,5.6.5.2.5-.2,18.1-10.4a1.1,1.1,0,0,0,.5-.9v-.3l-19.1,11.1Z"/><path class="l" d="M254,219.1,243.3,213h-.7l-18.5,10.7c-.1,0-.1.2,0,.2l10.8,6.3Z"/><path class="v" d="M238.1,214.4a11.2,11.2,0,0,1,1.6,1,3.2,3.2,0,0,0,2.2.6,10.6,10.6,0,0,0,1.3,1.1,3.3,3.3,0,0,0,3,.7c1.3-.4.4-1.6,0-2.2a24.6,24.6,0,0,0-2.8-2.8c-.4-.4-2.1-.7-3.7-1.1Z"/><polygon class="ag" points="234.8 229.3 229 225.9 245.9 216.2 251.7 219.5 234.8 229.3"/><polygon class="ag" points="231.9 220 232 220.1 234.9 221.7 239.9 218.8 240 218.7 237.1 217 231.9 220"/><polygon class="ah" points="232 220.1 234.9 221.7 239.9 218.8 237.1 217.2 232 220.1"/><path class="af" d="M234.9,230.2v.7l.5-.2,18.1-10.4a1.1,1.1,0,0,0,.5-.9v-.3Z"/><g class="ai"><path class="ag" d="M234.9,230.2v.7l.5-.2,18.1-10.4a1.1,1.1,0,0,0,.5-.9v-.3Z"/></g><path class="af" d="M235.2,230.3a.9.9,0,0,0,1-.1l18-10.3a1.5,1.5,0,0,0,.6-.9l2-11.7v-.2a1,1,0,0,0-.4-.9L237.7,217a.8.8,0,0,0-.4.6Z"/><path class="l" d="M234.9,230.2h.3l2.1-12.7a.8.8,0,0,1,.4-.6l18.7-10.8-.2-.2-18.8,10.8a2.1,2.1,0,0,0-.4.6Z"/><path class="ag" d="M245.3,219.5a3.6,3.6,0,0,1,1.8-2.3c.9-.5,1.5-.3,1.3.5a3.6,3.6,0,0,1-1.8,2.3C245.8,220.5,245.2,220.3,245.3,219.5Z"/><path class="v" d="M224.9,219.5c-2.1-1.1-9.7-4.1-12-5.3s-2.5-1.5-2.2-2.9,3.8-13.1,5.1-15.7,2.8-3.1,5.3-3.7c1.8,2,.5,8.1-1.2,10.3s-3.5,7.7-3.5,7.7,3.9,2.7,7.1,4.6a22,22,0,0,0,4.9,2.4,11.7,11.7,0,0,1,3.2,1.8,24.2,24.2,0,0,1,1.9,3.6c.3.7.9,2.1-.4,2.2a3.3,3.3,0,0,1-2.9-1.3l-1-1.2a5.1,5.1,0,0,1-2.6-1.1Z"/><path class="w" d="M221.3,191.7a8.2,8.2,0,0,0-4.3,1.9c-1.6,1.6-1.7,2.6-2.5,4.7s-2.4,7.1-2.4,7.1a6,6,0,0,0,6,2.2l2.1-5a12.7,12.7,0,0,0,2.1-5.1C222.8,194.5,222.6,192.7,221.3,191.7Z"/><path class="aj" d="M86.9,241.8l-19.1-11c-1.2-.7-1-1.9.3-2.7l18.4-10.6a5,5,0,0,1,4.6-.2l19.1,11c1.2.7,1,1.9-.3,2.7L91.4,241.6A4.8,4.8,0,0,1,86.9,241.8Z"/><path class="ak" d="M116.5,219.9h0v-8.2H98L91.6,208c-1.4-.9-4-.7-5.7.2L80,211.7H61.5v8.4a1.6,1.6,0,0,0,.9,1.6l23.9,13.8a6.6,6.6,0,0,0,5.8-.3l23-13.3C116.1,221.3,116.6,220.6,116.5,219.9Z"/><path class="ak" d="M89,207.4a7.9,7.9,0,0,0-3.1.8L80,211.7H61.5v8.4a1.6,1.6,0,0,0,.9,1.6l23.9,13.8a4.7,4.7,0,0,0,2.7.5Z"/><path class="al" d="M63.6,211.7H61.5v8.4a1.6,1.6,0,0,0,.9,1.6l1.2.6Z"/><path class="al" d="M86.7,235.6a6.1,6.1,0,0,0,4.6,0V226H86.7Z"/><path class="am" d="M86.3,227,62.4,213.2c-1.4-.8-1.2-2.3.5-3.3l23-13.3a6.1,6.1,0,0,1,5.7-.2l23.9,13.8c1.5.8,1.3,2.3-.4,3.3l-23,13.3A6.3,6.3,0,0,1,86.3,227Z"/><path class="al" d="M86.8,224.5,66.7,213c-1.2-.7-1-2,.4-2.8L86.4,199a5.1,5.1,0,0,1,4.8-.1l20,11.5c1.3.7,1.1,2-.3,2.8L91.6,224.3A5.1,5.1,0,0,1,86.8,224.5Z"/><path class="q" d="M107.7,222.1a2.2,2.2,0,0,1-.9,1.7c-.6.3-1,0-1-.6a1.9,1.9,0,0,1,1-1.6C107.3,221.2,107.7,221.5,107.7,222.1Z"/><path class="q" d="M110.8,220.3a2.2,2.2,0,0,1-.9,1.7c-.6.3-1,0-1-.6a1.9,1.9,0,0,1,1-1.6C110.4,219.5,110.8,219.7,110.8,220.3Z"/><path class="am" d="M113.9,218.5a2.2,2.2,0,0,1-.9,1.7c-.6.3-1,.1-1-.6a1.9,1.9,0,0,1,1-1.6C113.5,217.7,113.9,217.9,113.9,218.5Z"/><path class="ak" d="M116.5,206.8h0v-8.3H98l-6.4-3.7a6.4,6.4,0,0,0-5.7.3L80,198.5H61.5V207a1.5,1.5,0,0,0,.9,1.5l23.9,13.8a6.9,6.9,0,0,0,5.8-.2l23-13.4C116.1,208.2,116.6,207.4,116.5,206.8Z"/><path class="ak" d="M89,194.3a6.5,6.5,0,0,0-3.1.8L80,198.5H61.5V207a1.5,1.5,0,0,0,.9,1.5l23.9,13.8a5.7,5.7,0,0,0,2.7.6Z"/><path class="al" d="M63.6,198.5H61.5V207a1.5,1.5,0,0,0,.9,1.5l1.2.6Z"/><path class="al" d="M86.7,222.5a6.6,6.6,0,0,0,4.6-.1v-9.6H86.7Z"/><path class="am" d="M86.3,213.8,62.4,200.1c-1.4-.9-1.2-2.4.5-3.3l23-13.4a6.7,6.7,0,0,1,5.7-.2L115.5,197c1.5.8,1.3,2.3-.4,3.3l-23,13.3A6.3,6.3,0,0,1,86.3,213.8Z"/><path class="al" d="M86.8,211.4,66.7,199.8c-1.2-.7-1-1.9.4-2.8l19.3-11.1a5.4,5.4,0,0,1,4.8-.2l20,11.5c1.3.7,1.1,2-.3,2.8L91.6,211.2A5.4,5.4,0,0,1,86.8,211.4Z"/><path class="am" d="M107.7,208.9a2.1,2.1,0,0,1-.9,1.7c-.6.3-1,.1-1-.5a1.9,1.9,0,0,1,1-1.7C107.3,208.1,107.7,208.3,107.7,208.9Z"/><path class="w" d="M110.8,207.1a2.1,2.1,0,0,1-.9,1.7c-.6.3-1,.1-1-.5a1.9,1.9,0,0,1,1-1.7C110.4,206.3,110.8,206.5,110.8,207.1Z"/><path class="q" d="M113.9,205.4a2,2,0,0,1-.9,1.6c-.6.3-1,.1-1-.5a2.1,2.1,0,0,1,1-1.7C113.5,204.5,113.9,204.7,113.9,205.4Z"/><path class="ak" d="M116.5,193.6h0v-8.3H98l-6.4-3.6a6.1,6.1,0,0,0-5.7.2L80,185.3H61.5v8.5a1.4,1.4,0,0,0,.9,1.5l23.9,13.8a6.3,6.3,0,0,0,5.8-.2l23-13.3C116.1,195,116.6,194.3,116.5,193.6Z"/><path class="ak" d="M89,181.1a6.5,6.5,0,0,0-3.1.8L80,185.3H61.5v8.5a1.4,1.4,0,0,0,.9,1.5l23.9,13.8a5.7,5.7,0,0,0,2.7.6Z"/><path class="al" d="M63.6,185.3H61.5v8.5a1.4,1.4,0,0,0,.9,1.5l1.2.7Z"/><path class="al" d="M86.7,209.3a6.6,6.6,0,0,0,4.6-.1v-9.6H86.7Z"/><path class="an" d="M86.3,200.7,62.4,186.9c-1.4-.9-1.2-2.3.5-3.3l23-13.3a6.4,6.4,0,0,1,5.7-.3l23.9,13.8c1.5.9,1.3,2.3-.4,3.3l-23,13.3A6.6,6.6,0,0,1,86.3,200.7Z"/><path class="g" d="M115.1,185.5l-23,13.3a6.6,6.6,0,0,1-5.8.3L62.4,185.3a2.3,2.3,0,0,1-.7-.7,1.6,1.6,0,0,0,.7,2.3l23.9,13.8a6.6,6.6,0,0,0,5.8-.3l23-13.3c1.3-.7,1.7-1.8,1.2-2.6A6.3,6.3,0,0,1,115.1,185.5Z"/><path class="w" d="M107.7,195.8a2,2,0,0,1-.9,1.6c-.6.3-1,.1-1-.5a2.1,2.1,0,0,1,1-1.7C107.3,194.9,107.7,195.2,107.7,195.8Z"/><path class="am" d="M110.8,194a2,2,0,0,1-.9,1.6c-.6.4-1,.1-1-.5a2.1,2.1,0,0,1,1-1.7C110.4,193.1,110.8,193.4,110.8,194Z"/><path class="am" d="M113.9,192.2a2.4,2.4,0,0,1-.9,1.7c-.6.3-1,0-1-.6a2.1,2.1,0,0,1,1-1.7C113.5,191.3,113.9,191.6,113.9,192.2Z"/><path class="al" d="M87.7,192.1l-11.1-6.4c-.7-.4-.6-1.1.2-1.6l10.8-6.2a2.7,2.7,0,0,1,2.6-.1l11.2,6.4c.7.4.6,1.1-.2,1.6L90.4,192A2.9,2.9,0,0,1,87.7,192.1Z"/><path class="am" d="M88.8,186.7l-1.5-.9c-.1,0-.1-.1,0-.2l1.5-.8h.4l1.5.9c.1.1.1.2,0,.2l-1.5.9A.3.3,0,0,1,88.8,186.7Z"/><path class="ak" d="M76.6,185.7h.2l10.8-6.3a3,3,0,0,1,2.6-.1l11.2,6.5c.6-.5.6-1.1,0-1.5l-11.2-6.4a2.7,2.7,0,0,0-2.6.1l-10.8,6.2C76,184.6,75.9,185.3,76.6,185.7Z"/><path class="w" d="M84.8,203.1c0,.4-.3.6-.7.4a2,2,0,0,1-.6-1.2c0-.4.3-.6.6-.3A1.4,1.4,0,0,1,84.8,203.1Z"/><path class="q" d="M82.8,201.9c0,.4-.3.6-.7.4a1.5,1.5,0,0,1-.6-1.1c0-.4.3-.6.6-.4A1.4,1.4,0,0,1,82.8,201.9Z"/><path class="q" d="M84.8,205.5c0,.4-.3.6-.7.4a1.5,1.5,0,0,1-.6-1.1c0-.5.3-.6.6-.4A1.4,1.4,0,0,1,84.8,205.5Z"/><path class="q" d="M82.8,204.4c0,.4-.3.5-.7.3a1.5,1.5,0,0,1-.6-1.1c0-.4.3-.6.6-.4A1.4,1.4,0,0,1,82.8,204.4Z"/><path class="am" d="M84.8,216.2c0,.4-.3.6-.7.4a1.6,1.6,0,0,1-.6-1.2c0-.4.3-.5.6-.3A1.4,1.4,0,0,1,84.8,216.2Z"/><path class="am" d="M82.8,215c0,.4-.3.6-.7.4a1.5,1.5,0,0,1-.6-1.1c0-.4.3-.6.6-.4A1.4,1.4,0,0,1,82.8,215Z"/><path class="q" d="M84.8,218.6c0,.4-.3.6-.7.4a1.5,1.5,0,0,1-.6-1.1c0-.4.3-.6.6-.4A1.4,1.4,0,0,1,84.8,218.6Z"/><path class="w" d="M82.8,217.5c0,.4-.3.5-.7.3a1.5,1.5,0,0,1-.6-1.1c0-.4.3-.6.6-.4A1.4,1.4,0,0,1,82.8,217.5Z"/><path class="am" d="M84.8,229.3c0,.4-.3.6-.7.4a1.6,1.6,0,0,1-.6-1.2c0-.4.3-.5.6-.3A1.4,1.4,0,0,1,84.8,229.3Z"/><path class="q" d="M82.8,228.1c0,.5-.3.6-.7.4a1.5,1.5,0,0,1-.6-1.1c0-.4.3-.6.6-.4A1.4,1.4,0,0,1,82.8,228.1Z"/><path class="w" d="M84.8,231.7c0,.4-.3.6-.7.4a1.5,1.5,0,0,1-.6-1.1c0-.4.3-.6.6-.4A1.4,1.4,0,0,1,84.8,231.7Z"/><path class="am" d="M82.8,230.6c0,.4-.3.5-.7.3a1.5,1.5,0,0,1-.6-1.1c0-.4.3-.6.6-.4A1.7,1.7,0,0,1,82.8,230.6Z"/></g></svg>