<svg xmlns="http://www.w3.org/2000/svg" xmlns:xlink="http://www.w3.org/1999/xlink" viewBox="0 0 720 525.9"><defs><style>.a{fill:url(#a);}.b{fill:#173d7a;}.c{fill:red;}.d{fill:#0050af;}.e{fill:#f59b6b;}.f{fill:#263238;}.g{fill:#f5f5f5;}.h{fill:#21e2e2;}.i{fill:#ffcf00;}.j{fill:#0e71bb;}.k{fill:url(#b);}.l{fill:#e1e1e1;}.m{fill:#1f364c;}.n{fill:#ffe7cb;}.o{fill:#4ea4f9;}.p{fill:#fff;}.q{fill:#f0d2b9;}</style><linearGradient id="a" x1="374.64" y1="471.79" x2="316.9" y2="144.32" gradientUnits="userSpaceOnUse"><stop offset="0" stop-color="#c6e6ff"/><stop offset="1" stop-color="#fff"/></linearGradient><linearGradient id="b" x1="241.19" y1="224.17" x2="334.44" y2="224.17" gradientUnits="userSpaceOnUse"><stop offset="0" stop-color="#44989f"/><stop offset="0.21" stop-color="#39b0b4"/><stop offset="0.52" stop-color="#2ccbcd"/><stop offset="0.8" stop-color="#24dcdd"/><stop offset="1" stop-color="#21e2e2"/></linearGradient></defs><title>what is german dedicated server</title><path class="a" d="M232.2,401c-64.6-26.7-105.3-92.1-98.7-161.7,2.5-26.5,11.5-50.1,32.5-62.4,65.8-38.3,117.2,21.1,161.1,66s171.7,5.1,213.7,58,4.6,148.6-89.7,156.9C395.1,462.7,300.1,429.1,232.2,401Z"/><rect class="b" x="282" y="312.2" width="137.8" height="113.48"/><rect class="c" x="261.9" y="342.5" width="150.7" height="37.39"/><rect class="d" x="268.6" y="350.2" width="29.7" height="4.56" rx="1.4"/><rect class="d" x="268.6" y="358" width="29.7" height="4.56"/><rect class="d" x="268.6" y="366.2" width="29.7" height="4.56"/><path class="e" d="M310,352.9a1.6,1.6,0,0,1-1.7,1.7,1.7,1.7,0,0,1-1.7-1.7,1.8,1.8,0,0,1,1.7-1.7A1.7,1.7,0,0,1,310,352.9Z"/><path class="f" d="M317.5,352.9a1.6,1.6,0,0,1-1.7,1.7,1.7,1.7,0,0,1-1.7-1.7,1.8,1.8,0,0,1,1.7-1.7A1.7,1.7,0,0,1,317.5,352.9Z"/><path class="f" d="M325,352.9a1.6,1.6,0,0,1-1.7,1.7,1.7,1.7,0,0,1-1.7-1.7,1.8,1.8,0,0,1,1.7-1.7A1.7,1.7,0,0,1,325,352.9Z"/><path class="f" d="M332.5,352.9a1.6,1.6,0,0,1-1.7,1.7,1.7,1.7,0,0,1-1.7-1.7,1.8,1.8,0,0,1,1.7-1.7A1.7,1.7,0,0,1,332.5,352.9Z"/><path class="f" d="M390.7,352.9a1.6,1.6,0,0,1-1.7,1.7,1.7,1.7,0,0,1-1.7-1.7,1.8,1.8,0,0,1,1.7-1.7A1.7,1.7,0,0,1,390.7,352.9Z"/><path class="f" d="M398.4,352.9a1.7,1.7,0,0,1-3.4,0,1.7,1.7,0,1,1,3.4,0Z"/><path class="f" d="M340.1,352.9a1.7,1.7,0,0,1-1.7,1.7,1.6,1.6,0,0,1-1.7-1.7,1.7,1.7,0,0,1,1.7-1.7A1.8,1.8,0,0,1,340.1,352.9Z"/><path class="e" d="M376.9,352.9a1.6,1.6,0,0,1-1.7,1.7,1.7,1.7,0,0,1-1.7-1.7,1.8,1.8,0,0,1,1.7-1.7A1.7,1.7,0,0,1,376.9,352.9Z"/><path class="g" d="M347.6,352.9a1.7,1.7,0,0,1-1.7,1.7,1.6,1.6,0,0,1-1.7-1.7,1.7,1.7,0,0,1,1.7-1.7A1.8,1.8,0,0,1,347.6,352.9Z"/><path class="g" d="M355.1,352.9a1.7,1.7,0,0,1-1.7,1.7,1.6,1.6,0,0,1-1.7-1.7,1.7,1.7,0,0,1,1.7-1.7A1.8,1.8,0,0,1,355.1,352.9Z"/><path class="g" d="M370.3,352.9a1.6,1.6,0,0,1-1.7,1.7,1.7,1.7,0,0,1-1.7-1.7,1.8,1.8,0,0,1,1.7-1.7A1.7,1.7,0,0,1,370.3,352.9Z"/><path class="g" d="M404.6,352.9a1.6,1.6,0,0,1-1.7,1.7,1.7,1.7,0,0,1-1.7-1.7,1.8,1.8,0,0,1,1.7-1.7A1.7,1.7,0,0,1,404.6,352.9Z"/><path class="h" d="M362.6,352.9a1.7,1.7,0,0,1-1.7,1.7,1.6,1.6,0,0,1-1.7-1.7,1.7,1.7,0,0,1,1.7-1.7A1.8,1.8,0,0,1,362.6,352.9Z"/><path class="h" d="M384.1,352.9a1.7,1.7,0,0,1-3.4,0,1.7,1.7,0,0,1,3.4,0Z"/><path class="e" d="M401.2,361.1a1.8,1.8,0,0,1,1.7-1.7,1.7,1.7,0,0,1,1.7,1.7,1.6,1.6,0,0,1-1.7,1.7A1.7,1.7,0,0,1,401.2,361.1Z"/><circle class="e" cx="395.4" cy="361.1" r="1.7"/><path class="e" d="M386.2,361.1a1.8,1.8,0,0,1,1.7-1.7,1.7,1.7,0,0,1,1.7,1.7,1.6,1.6,0,0,1-1.7,1.7A1.7,1.7,0,0,1,386.2,361.1Z"/><circle class="f" cx="380.4" cy="361.1" r="1.7"/><circle class="e" cx="322.2" cy="361.1" r="1.7"/><path class="e" d="M312.8,361.1a1.8,1.8,0,0,1,1.7-1.7,1.7,1.7,0,0,1,1.7,1.7,1.6,1.6,0,0,1-1.7,1.7A1.7,1.7,0,0,1,312.8,361.1Z"/><path class="e" d="M371.2,361.1a1.7,1.7,0,1,1,3.4,0,1.7,1.7,0,1,1-3.4,0Z"/><path class="e" d="M334.3,361.1a1.7,1.7,0,1,1,3.4,0,1.7,1.7,0,0,1-3.4,0Z"/><path class="g" d="M363.7,361.1a1.7,1.7,0,0,1,1.7-1.7,1.8,1.8,0,0,1,1.7,1.7,1.7,1.7,0,0,1-1.7,1.7A1.6,1.6,0,0,1,363.7,361.1Z"/><path class="g" d="M356.2,361.1a1.7,1.7,0,0,1,1.7-1.7,1.8,1.8,0,0,1,1.7,1.7,1.7,1.7,0,0,1-1.7,1.7A1.6,1.6,0,0,1,356.2,361.1Z"/><path class="g" d="M340.9,361.1a1.8,1.8,0,0,1,1.7-1.7,1.7,1.7,0,0,1,1.7,1.7,1.6,1.6,0,0,1-1.7,1.7A1.7,1.7,0,0,1,340.9,361.1Z"/><circle class="g" cx="308.3" cy="361.1" r="1.7"/><path class="h" d="M348.7,361.1a1.7,1.7,0,0,1,1.7-1.7,1.8,1.8,0,0,1,1.7,1.7,1.7,1.7,0,0,1-1.7,1.7A1.6,1.6,0,0,1,348.7,361.1Z"/><circle class="h" cx="328.9" cy="361.1" r="1.7"/><circle class="f" cx="308.3" cy="368.4" r="1.7"/><path class="f" d="M317.5,368.4a1.6,1.6,0,0,1-1.7,1.7,1.7,1.7,0,0,1-1.7-1.7,1.8,1.8,0,0,1,1.7-1.7A1.7,1.7,0,0,1,317.5,368.4Z"/><circle class="f" cx="323.3" cy="368.4" r="1.7"/><path class="f" d="M332.5,368.4a1.6,1.6,0,0,1-1.7,1.7,1.7,1.7,0,0,1-1.7-1.7,1.8,1.8,0,0,1,1.7-1.7A1.7,1.7,0,0,1,332.5,368.4Z"/><path class="e" d="M390.7,368.4a1.6,1.6,0,0,1-1.7,1.7,1.7,1.7,0,0,1-1.7-1.7,1.8,1.8,0,0,1,1.7-1.7A1.7,1.7,0,0,1,390.7,368.4Z"/><circle class="f" cx="396.7" cy="368.4" r="1.7"/><circle class="f" cx="338.4" cy="368.4" r="1.7"/><circle class="f" cx="375.2" cy="368.4" r="1.7"/><path class="e" d="M347.6,368.4a1.7,1.7,0,0,1-1.7,1.7,1.6,1.6,0,0,1-1.7-1.7,1.7,1.7,0,0,1,1.7-1.7A1.8,1.8,0,0,1,347.6,368.4Z"/><path class="g" d="M355.1,368.4a1.7,1.7,0,0,1-1.7,1.7,1.6,1.6,0,0,1-1.7-1.7,1.7,1.7,0,0,1,1.7-1.7A1.8,1.8,0,0,1,355.1,368.4Z"/><circle class="g" cx="368.6" cy="368.4" r="1.7"/><path class="g" d="M404.6,368.4a1.6,1.6,0,0,1-1.7,1.7,1.7,1.7,0,0,1-1.7-1.7,1.8,1.8,0,0,1,1.7-1.7A1.7,1.7,0,0,1,404.6,368.4Z"/><circle class="h" cx="360.9" cy="368.4" r="1.7"/><path class="h" d="M384.1,368.4a1.7,1.7,0,0,1-3.4,0,1.7,1.7,0,0,1,3.4,0Z"/><rect class="i" x="261.9" y="388.6" width="150.7" height="37.39"/><circle class="f" cx="307.9" cy="398.7" r="1.7"/><path class="f" d="M317.2,398.7a1.8,1.8,0,0,1-1.8,1.7,1.7,1.7,0,1,1,0-3.4A1.8,1.8,0,0,1,317.2,398.7Z"/><circle class="f" cx="323" cy="398.7" r="1.7"/><path class="f" d="M332.2,398.7a1.8,1.8,0,0,1-1.7,1.7,1.7,1.7,0,1,1,0-3.4A1.8,1.8,0,0,1,332.2,398.7Z"/><path class="e" d="M390.4,398.7a1.8,1.8,0,0,1-1.7,1.7,1.7,1.7,0,0,1,0-3.4A1.8,1.8,0,0,1,390.4,398.7Z"/><circle class="e" cx="396.3" cy="398.7" r="1.7"/><circle class="f" cx="338" cy="398.7" r="1.7"/><circle class="e" cx="374.9" cy="398.7" r="1.7"/><path class="g" d="M347.2,398.7a1.7,1.7,0,1,1-1.7-1.7A1.8,1.8,0,0,1,347.2,398.7Z"/><circle class="g" cx="353" cy="398.7" r="1.7"/><circle class="g" cx="368.2" cy="398.7" r="1.7"/><path class="g" d="M404.3,398.7a1.8,1.8,0,0,1-1.7,1.7,1.7,1.7,0,0,1,0-3.4A1.8,1.8,0,0,1,404.3,398.7Z"/><path class="h" d="M362.2,398.7a1.7,1.7,0,0,1-1.7,1.7,1.7,1.7,0,1,1,0-3.4A1.7,1.7,0,0,1,362.2,398.7Z"/><path class="h" d="M383.7,398.7a1.7,1.7,0,0,1-1.7,1.7,1.7,1.7,0,1,1,0-3.4A1.7,1.7,0,0,1,383.7,398.7Z"/><path class="f" d="M400.9,406.9a1.7,1.7,0,0,1,1.7-1.7,1.7,1.7,0,1,1,0,3.4A1.7,1.7,0,0,1,400.9,406.9Z"/><path class="f" d="M393.4,406.9a1.7,1.7,0,0,1,1.7-1.7,1.7,1.7,0,1,1,0,3.4A1.7,1.7,0,0,1,393.4,406.9Z"/><path class="e" d="M385.8,406.9a1.8,1.8,0,0,1,1.7-1.7,1.7,1.7,0,0,1,0,3.4A1.8,1.8,0,0,1,385.8,406.9Z"/><path class="f" d="M378.3,406.9a1.8,1.8,0,0,1,1.7-1.7,1.7,1.7,0,0,1,0,3.4A1.8,1.8,0,0,1,378.3,406.9Z"/><path class="e" d="M320.1,406.9a1.8,1.8,0,0,1,1.7-1.7,1.7,1.7,0,0,1,0,3.4A1.8,1.8,0,0,1,320.1,406.9Z"/><path class="e" d="M312.5,406.9a1.7,1.7,0,0,1,1.7-1.7,1.7,1.7,0,0,1,0,3.4A1.7,1.7,0,0,1,312.5,406.9Z"/><path class="e" d="M370.8,406.9a1.8,1.8,0,0,1,1.7-1.7,1.7,1.7,0,1,1,0,3.4A1.8,1.8,0,0,1,370.8,406.9Z"/><path class="f" d="M333.9,406.9a1.8,1.8,0,0,1,1.7-1.7,1.7,1.7,0,0,1,0,3.4A1.8,1.8,0,0,1,333.9,406.9Z"/><path class="g" d="M363.3,406.9a1.8,1.8,0,0,1,1.7-1.7,1.7,1.7,0,1,1,0,3.4A1.8,1.8,0,0,1,363.3,406.9Z"/><path class="g" d="M355.8,406.9a1.7,1.7,0,1,1,1.7,1.7A1.8,1.8,0,0,1,355.8,406.9Z"/><path class="g" d="M340.6,406.9a1.7,1.7,0,0,1,1.7-1.7,1.7,1.7,0,0,1,0,3.4A1.7,1.7,0,0,1,340.6,406.9Z"/><path class="g" d="M306.2,406.9a1.8,1.8,0,0,1,1.7-1.7,1.7,1.7,0,1,1,0,3.4A1.8,1.8,0,0,1,306.2,406.9Z"/><path class="h" d="M348.3,406.9a1.7,1.7,0,0,1,1.7-1.7,1.7,1.7,0,1,1,0,3.4A1.7,1.7,0,0,1,348.3,406.9Z"/><path class="h" d="M326.8,406.9a1.7,1.7,0,0,1,1.7-1.7,1.7,1.7,0,0,1,0,3.4A1.7,1.7,0,0,1,326.8,406.9Z"/><path class="e" d="M309.6,414.2a1.7,1.7,0,0,1-1.7,1.7,1.7,1.7,0,1,1,0-3.4A1.7,1.7,0,0,1,309.6,414.2Z"/><path class="f" d="M317.2,414.2a1.8,1.8,0,0,1-1.8,1.7,1.7,1.7,0,1,1,0-3.4A1.8,1.8,0,0,1,317.2,414.2Z"/><path class="f" d="M324.7,414.2a1.8,1.8,0,0,1-1.7,1.7,1.7,1.7,0,1,1,0-3.4A1.8,1.8,0,0,1,324.7,414.2Z"/><path class="f" d="M332.2,414.2a1.8,1.8,0,0,1-1.7,1.7,1.7,1.7,0,1,1,0-3.4A1.8,1.8,0,0,1,332.2,414.2Z"/><path class="f" d="M390.4,414.2a1.8,1.8,0,0,1-1.7,1.7,1.7,1.7,0,0,1,0-3.4A1.8,1.8,0,0,1,390.4,414.2Z"/><path class="f" d="M398,414.2a1.7,1.7,0,0,1-1.7,1.7,1.7,1.7,0,0,1,0-3.4A1.7,1.7,0,0,1,398,414.2Z"/><path class="e" d="M339.7,414.2a1.8,1.8,0,0,1-1.7,1.7,1.7,1.7,0,1,1,0-3.4A1.8,1.8,0,0,1,339.7,414.2Z"/><path class="f" d="M376.6,414.2a1.8,1.8,0,0,1-1.7,1.7,1.7,1.7,0,1,1,0-3.4A1.8,1.8,0,0,1,376.6,414.2Z"/><path class="g" d="M347.2,414.2a1.7,1.7,0,1,1-1.7-1.7A1.8,1.8,0,0,1,347.2,414.2Z"/><path class="g" d="M354.7,414.2a1.7,1.7,0,1,1-1.7-1.7A1.8,1.8,0,0,1,354.7,414.2Z"/><path class="g" d="M369.9,414.2a1.7,1.7,0,0,1-1.7,1.7,1.7,1.7,0,0,1,0-3.4A1.7,1.7,0,0,1,369.9,414.2Z"/><path class="g" d="M404.3,414.2a1.8,1.8,0,0,1-1.7,1.7,1.7,1.7,0,0,1,0-3.4A1.8,1.8,0,0,1,404.3,414.2Z"/><path class="h" d="M362.2,414.2a1.7,1.7,0,0,1-1.7,1.7,1.7,1.7,0,1,1,0-3.4A1.7,1.7,0,0,1,362.2,414.2Z"/><path class="h" d="M383.7,414.2a1.7,1.7,0,0,1-1.7,1.7,1.7,1.7,0,1,1,0-3.4A1.7,1.7,0,0,1,383.7,414.2Z"/><rect class="d" x="268.6" y="396.3" width="29.7" height="4.56"/><rect class="d" x="268.6" y="404.2" width="29.7" height="4.56"/><rect class="d" x="268.6" y="412.3" width="29.7" height="4.56"/><polygon class="b" points="435.3 379.8 412.6 379.9 412.6 342.5 435.3 342.4 435.3 379.8"/><polygon class="b" points="435.3 334.4 412.6 334.4 412.6 297 435.3 297 435.3 334.4"/><polygon class="b" points="435.3 425.7 412.6 425.7 412.6 388.3 435.3 388.3 435.3 425.7"/><rect x="263" y="296.7" width="150.7" height="37.39"/><rect class="d" x="269.7" y="304.4" width="29.7" height="4.56"/><rect class="d" x="269.7" y="312.2" width="29.7" height="4.56"/><rect class="d" x="269.7" y="320.4" width="29.7" height="4.56"/><path class="f" d="M311.1,307.1a1.7,1.7,0,0,1-3.4,0,1.7,1.7,0,0,1,3.4,0Z"/><circle class="f" cx="316.9" cy="307.1" r="1.7"/><path class="e" d="M326.1,307.1a1.6,1.6,0,0,1-1.7,1.7,1.7,1.7,0,0,1-1.7-1.7,1.8,1.8,0,0,1,1.7-1.7A1.7,1.7,0,0,1,326.1,307.1Z"/><circle class="f" cx="331.9" cy="307.1" r="1.7"/><path class="e" d="M391.8,307.1a1.6,1.6,0,0,1-1.7,1.7,1.7,1.7,0,0,1-1.7-1.7,1.8,1.8,0,0,1,1.7-1.7A1.7,1.7,0,0,1,391.8,307.1Z"/><circle class="f" cx="397.8" cy="307.1" r="1.7"/><path class="f" d="M341.1,307.1a1.6,1.6,0,0,1-1.7,1.7,1.7,1.7,0,0,1-1.7-1.7,1.8,1.8,0,0,1,1.7-1.7A1.7,1.7,0,0,1,341.1,307.1Z"/><circle class="f" cx="376.3" cy="307.1" r="1.7"/><path class="g" d="M348.7,307.1a1.7,1.7,0,0,1-1.7,1.7,1.6,1.6,0,0,1-1.7-1.7,1.7,1.7,0,0,1,1.7-1.7A1.8,1.8,0,0,1,348.7,307.1Z"/><path class="g" d="M356.2,307.1a1.7,1.7,0,0,1-1.7,1.7,1.6,1.6,0,0,1-1.7-1.7,1.7,1.7,0,0,1,1.7-1.7A1.8,1.8,0,0,1,356.2,307.1Z"/><path class="g" d="M371.4,307.1a1.7,1.7,0,1,1-3.4,0,1.7,1.7,0,1,1,3.4,0Z"/><path class="g" d="M405.7,307.1a1.6,1.6,0,0,1-1.7,1.7,1.7,1.7,0,0,1-1.7-1.7,1.8,1.8,0,0,1,1.7-1.7A1.7,1.7,0,0,1,405.7,307.1Z"/><path class="h" d="M363.7,307.1a1.7,1.7,0,0,1-1.7,1.7,1.6,1.6,0,0,1-1.7-1.7,1.7,1.7,0,0,1,1.7-1.7A1.8,1.8,0,0,1,363.7,307.1Z"/><circle class="h" cx="383.5" cy="307.1" r="1.7"/><path class="e" d="M402.3,315.3a1.8,1.8,0,0,1,1.7-1.7,1.7,1.7,0,0,1,1.7,1.7A1.6,1.6,0,0,1,404,317,1.7,1.7,0,0,1,402.3,315.3Z"/><path class="f" d="M394.8,315.3a1.8,1.8,0,0,1,1.7-1.7,1.7,1.7,0,0,1,1.7,1.7,1.6,1.6,0,0,1-1.7,1.7A1.7,1.7,0,0,1,394.8,315.3Z"/><path class="f" d="M387.3,315.3a1.7,1.7,0,0,1,3.4,0,1.7,1.7,0,0,1-3.4,0Z"/><path class="f" d="M379.8,315.3a1.7,1.7,0,0,1,3.4,0,1.7,1.7,0,0,1-3.4,0Z"/><path class="e" d="M321.6,315.3a1.7,1.7,0,0,1,3.4,0,1.7,1.7,0,0,1-3.4,0Z"/><path class="f" d="M313.9,315.3a1.8,1.8,0,0,1,1.7-1.7,1.7,1.7,0,0,1,1.7,1.7,1.6,1.6,0,0,1-1.7,1.7A1.7,1.7,0,0,1,313.9,315.3Z"/><path class="e" d="M372.3,315.3a1.7,1.7,0,0,1,1.7-1.7,1.8,1.8,0,0,1,1.7,1.7A1.7,1.7,0,0,1,374,317,1.6,1.6,0,0,1,372.3,315.3Z"/><path class="f" d="M335.4,315.3a1.7,1.7,0,1,1,3.4,0,1.7,1.7,0,1,1-3.4,0Z"/><path class="e" d="M364.8,315.3a1.7,1.7,0,0,1,1.7-1.7,1.8,1.8,0,0,1,1.7,1.7,1.7,1.7,0,0,1-1.7,1.7A1.6,1.6,0,0,1,364.8,315.3Z"/><path class="g" d="M357.3,315.3a1.7,1.7,0,0,1,1.7-1.7,1.8,1.8,0,0,1,1.7,1.7A1.7,1.7,0,0,1,359,317,1.6,1.6,0,0,1,357.3,315.3Z"/><path class="g" d="M342,315.3a1.8,1.8,0,0,1,1.7-1.7,1.7,1.7,0,0,1,1.7,1.7,1.6,1.6,0,0,1-1.7,1.7A1.7,1.7,0,0,1,342,315.3Z"/><path class="g" d="M307.7,315.3a1.7,1.7,0,0,1,3.4,0,1.7,1.7,0,0,1-3.4,0Z"/><path class="h" d="M349.8,315.3a1.7,1.7,0,0,1,1.7-1.7,1.8,1.8,0,0,1,1.7,1.7,1.7,1.7,0,0,1-1.7,1.7A1.6,1.6,0,0,1,349.8,315.3Z"/><path class="h" d="M328.2,315.3a1.8,1.8,0,0,1,1.7-1.7,1.7,1.7,0,0,1,1.7,1.7,1.6,1.6,0,0,1-1.7,1.7A1.7,1.7,0,0,1,328.2,315.3Z"/><path class="f" d="M311.1,322.6a1.7,1.7,0,0,1-3.4,0,1.7,1.7,0,1,1,3.4,0Z"/><path class="f" d="M318.6,322.6a1.6,1.6,0,0,1-1.7,1.7,1.7,1.7,0,0,1-1.7-1.7,1.8,1.8,0,0,1,1.7-1.7A1.7,1.7,0,0,1,318.6,322.6Z"/><path class="f" d="M326.1,322.6a1.6,1.6,0,0,1-1.7,1.7,1.7,1.7,0,0,1-1.7-1.7,1.8,1.8,0,0,1,1.7-1.7A1.7,1.7,0,0,1,326.1,322.6Z"/><path class="e" d="M333.6,322.6a1.6,1.6,0,0,1-1.7,1.7,1.7,1.7,0,0,1-1.7-1.7,1.8,1.8,0,0,1,1.7-1.7A1.7,1.7,0,0,1,333.6,322.6Z"/><path class="e" d="M391.8,322.6a1.6,1.6,0,0,1-1.7,1.7,1.7,1.7,0,0,1-1.7-1.7,1.8,1.8,0,0,1,1.7-1.7A1.7,1.7,0,0,1,391.8,322.6Z"/><path class="f" d="M399.5,322.6a1.7,1.7,0,1,1-3.4,0,1.7,1.7,0,1,1,3.4,0Z"/><path class="e" d="M341.1,322.6a1.6,1.6,0,0,1-1.7,1.7,1.7,1.7,0,0,1-1.7-1.7,1.8,1.8,0,0,1,1.7-1.7A1.7,1.7,0,0,1,341.1,322.6Z"/><path class="f" d="M378,322.6a1.6,1.6,0,0,1-1.7,1.7,1.7,1.7,0,0,1-1.7-1.7,1.8,1.8,0,0,1,1.7-1.7A1.7,1.7,0,0,1,378,322.6Z"/><path class="g" d="M348.7,322.6a1.7,1.7,0,0,1-1.7,1.7,1.6,1.6,0,0,1-1.7-1.7,1.7,1.7,0,0,1,1.7-1.7A1.8,1.8,0,0,1,348.7,322.6Z"/><path class="g" d="M356.2,322.6a1.7,1.7,0,0,1-1.7,1.7,1.6,1.6,0,0,1-1.7-1.7,1.7,1.7,0,0,1,1.7-1.7A1.8,1.8,0,0,1,356.2,322.6Z"/><path class="g" d="M371.4,322.6a1.7,1.7,0,1,1-3.4,0,1.7,1.7,0,1,1,3.4,0Z"/><path class="g" d="M405.7,322.6a1.6,1.6,0,0,1-1.7,1.7,1.7,1.7,0,0,1-1.7-1.7,1.8,1.8,0,0,1,1.7-1.7A1.7,1.7,0,0,1,405.7,322.6Z"/><path class="h" d="M363.7,322.6a1.7,1.7,0,0,1-1.7,1.7,1.6,1.6,0,0,1-1.7-1.7,1.7,1.7,0,0,1,1.7-1.7A1.8,1.8,0,0,1,363.7,322.6Z"/><path class="h" d="M385.2,322.6a1.7,1.7,0,0,1-1.7,1.7,1.6,1.6,0,0,1-1.7-1.7,1.7,1.7,0,0,1,1.7-1.7A1.8,1.8,0,0,1,385.2,322.6Z"/><path class="j" d="M368.4,144.2c0,1-1,3.4-.2,3.9a1.9,1.9,0,0,0,2.5-.2c1.4-1.2,2.4-4.8,2-7s-1.5-3.9-1.1-5.9,1.3-2.7,2-4a10.3,10.3,0,0,0,.8-7.9,6.8,6.8,0,0,0-5.2-4.8c-2.3-.2-4.9,1.3-6.9-.3s-1.9-3.4-3.1-4.8-4.9-1.9-7.4-.9-5,2.6-7.6,2.4-4.3-1.5-6.4-2.1c-4.7-1.4-9.9,1.2-12.5,6a16.6,16.6,0,0,0,.8,16c1,1.6,3.5,6.4,8.3,5.2"/><path class="k" d="M313.8,282.8c17.3-12.1,21.3-34.6,20.6-54.9-.1-3.3.2-6.9-1.4-9.9s-5.3-5-8.4-3.5-3.6,4.1-5,6.5a19,19,0,0,1-7.9,7.5c-2.1,1.2-4.8,1.8-6.9.7s-3.3-5.7-3.3-9c.1-6.3.1-12.5.2-18.8,0-3.4,0-6.8-1-10s-3.4-6.1-6.6-7-7.1.9-7.8,4.2a29.5,29.5,0,0,0-.1,4.2c-.1,1.4-.8,2.9-2.1,3.3s-2.7-.5-3.7-1.5c-3.4-3.4-5.8-7.8-8-12.1s-4.3-8.8-7.5-12.5-7.5-6.6-12.3-6.9-9.9,2.7-11.1,7.4,1.5,9.5,4.5,13.4a78.6,78.6,0,0,0,15.6,14.9,6.1,6.1,0,0,1,2.7,2.8c.7,2.2-1.4,4.4-3.7,5.2s-5.2.5-7.8.8-5.4,1.5-6.4,4,1.5,7,4.3,9.4a63.1,63.1,0,0,0,19,10.9c2.5.9,5.1,1.7,7.1,3.5s3.1,4.7,1.9,7.1-4.2,3.1-6.8,2.6-4.9-1.8-7.4-2.8c-4.6-1.7-10.6-1.4-13.5,2.6s-2.2,6.3-1.2,9.4a25.5,25.5,0,0,0,5.1,8.3A65.3,65.3,0,0,0,282.5,282c10.7,3.7,20.6,4.7,31.3.8"/><path class="l" d="M314,297.8a145.1,145.1,0,0,0-5.5-27.7,282.7,282.7,0,0,0-11.9-32.4l-3.6-8.3c-1.2-2.8-2.3-5.5-3.6-8A139.9,139.9,0,0,0,281,207c-2.9-4.5-5.7-8.6-8.5-12.4s-5.3-7.4-7.9-10.5a120.5,120.5,0,0,0-13-13.7c-1.6-1.5-3-2.6-3.9-3.4l-1-.8-.4-.3.4.3,1,.9,3.8,3.5a135.3,135.3,0,0,1,12.8,13.8q3.8,4.7,7.8,10.5c2.7,3.8,5.6,7.9,8.5,12.4a148.9,148.9,0,0,1,8.2,14.3c1.3,2.6,2.5,5.3,3.7,8s2.3,5.5,3.5,8.4a295.5,295.5,0,0,1,12,32.3,150.8,150.8,0,0,1,5.6,27.5"/><path class="l" d="M289.2,221.3a5.9,5.9,0,0,0,.3-1.4c.2-.9.4-2.3.7-4,.4-3.3.9-7.9,1.5-13.1s1-9.7,1.6-13c.2-1.7.5-3,.6-4a7.2,7.2,0,0,0,.2-1.4,10,10,0,0,0-.4,1.4c-.3.9-.5,2.2-.9,3.9-.6,3.3-1.2,8-1.8,13.1s-.9,9.6-1.3,13.1c-.2,1.6-.3,2.9-.4,4S289.2,221.3,289.2,221.3Z"/><path class="l" d="M246,213.3l1.7.2,4.7.4c4,.5,9.4,1.2,15.4,2.4s11.3,2.4,15.2,3.4l4.5,1.2,1.7.4-1.6-.6-4.5-1.5c-3.8-1.1-9.2-2.4-15.2-3.6a152.7,152.7,0,0,0-15.4-2.1l-4.7-.3C246.6,213.2,246,213.2,246,213.3Z"/><path class="l" d="M308,269.3l.3-.5.7-1.6c.7-1.3,1.5-3.3,2.6-5.8,2.1-4.9,4.7-11.9,7.6-19.6s5.4-14.6,7.4-19.6c.9-2.4,1.7-4.4,2.3-5.8l.7-1.7c.1-.3.2-.5.1-.5a1.2,1.2,0,0,0-.2.5l-.8,1.6c-.6,1.3-1.5,3.3-2.5,5.8-2.1,4.9-4.8,11.8-7.6,19.5s-5.4,14.6-7.4,19.6l-2.4,5.9a9.1,9.1,0,0,1-.6,1.6A3.2,3.2,0,0,1,308,269.3Z"/><path class="l" d="M250.6,250.8l.6.3,1.7.5,6.1,2,20.2,6.8c7.9,2.6,15.1,5,20.3,6.5l6.2,1.9,1.7.4h.6l-.6-.2-1.6-.6-6.2-2-20.2-6.7c-7.9-2.7-15-5-20.3-6.6l-6.2-1.8-1.7-.5Z"/><path class="m" d="M433,266.4l-68-4-.7-1.6-18.5.5-6-.4-.2.5-61.9,1.4c-12.3,0-25.3,7.6-25.3,17.2s4.4,19.1,15.4,18.8l84.3-.5h84.4c11,.2,13.9-6.5,13.9-14.4C451.7,269.3,442.4,266.5,433,266.4Z"/><polygon class="n" points="354.5 282.8 367.2 284.5 367.3 298.3 355.6 298.1 354.5 282.8"/><path class="h" d="M367.2,284.5h5.7a6.2,6.2,0,0,1,3.2.9l3,1.7a51.2,51.2,0,0,0,5.3,2.5c3.5,1.1,9.3,2.6,10.5,3.5,3.6,2.7,2.5,5.9.6,6.3s-28.2-1.1-28.2-1.1Z"/><path class="n" d="M390.9,191.5,412.5,229a15.9,15.9,0,0,1,.5,15.1h0a16,16,0,0,1-14.7,8.8l-33.1-.9-.9-12,29.1-5.6-19.7-34Z"/><path class="n" d="M310.7,255.9l30.5,8,.6-9.1-28.1-16.2,20.4-38.1-17.2-8.8-21.4,37.6h0a17.5,17.5,0,0,0,10.2,25Z"/><path class="e" d="M381.8,215.6l20.7-11a98.5,98.5,0,0,0-8.9-14.8,45.6,45.6,0,0,0-27.8-17.4h0l-23.9.3a36.4,36.4,0,0,0-8.6,2h.1c-13,2.9-27.3,31.3-27.3,31.3l18.9,9.9.4,2.9c.6,4-.4,46.9-.4,46.9l61.4,1.1Z"/><polygon class="o" points="321.9 274.4 318.3 233.9 393.1 233.7 388.2 274.7 321.9 274.4"/><path class="p" d="M360.5,255.4a4.8,4.8,0,1,1-4.8-4.8A4.8,4.8,0,0,1,360.5,255.4Z"/><path class="n" d="M356.6,183.3c6.3-.2,11.7-1.8,11.8-8.1l.5-46.5h0a3.6,3.6,0,0,0-3.3-3.7L346,120c-6.3-.7-10.5,7.1-10.9,13.4s-.7,15.6.2,20.8c1.6,10.5,9.7,11.8,9.7,11.8v9.1c0,6.5,5,8.3,11.6,8.2Z"/><path class="q" d="M345,166a26.5,26.5,0,0,0,14.1-3.7s-3.5,7.2-14,6.2Z"/><path class="n" d="M363.1,136.3c.1-.1,5.6-3.3,6.9,2.8s-5,6.1-5.1,6S363.1,136.3,363.1,136.3Z"/><path class="j" d="M331.7,135.2s6.2,2.1,12.9-3.8c4.4-3.8,9.7-6.1,11.2-5.5s.4,5.5,4.9,7.1a3.8,3.8,0,0,1,2.7,3.7c0,3.7.2,9.1,2.2,7v-7.5c.7-.7,2.4-.6,3.4.5a48.9,48.9,0,0,0,1.2-11.7l-13-3.1L347,118.8l-9,.8-7.5,9.6Z"/></svg>