<svg xmlns="http://www.w3.org/2000/svg" xmlns:xlink="http://www.w3.org/1999/xlink" viewBox="0 0 400 400"><defs><style>.a{fill:url(#a);}.b{font-size:35.56px;font-family:YekanBakh-Bold, YekanBakh Bold;font-weight:700;}.b,.j{fill:#fff;}.c{fill:#b2d3ea;}.d{fill:#0050af;}.e{fill:#4ea4f9;}.f{fill:#197bdd;}.g{fill:#fafdff;}.h{fill:#d4ecff;}.i{fill:#173d7a;}.k{fill:#396caa;}.l{fill:#f59b6b;}.m{fill:#21e2e2;}</style><linearGradient id="a" x1="-457.24" y1="400.29" x2="-457.24" y2="400.96" gradientTransform="matrix(740.56, 0, 0, -612.51, 338816.59, 245617.49)" gradientUnits="userSpaceOnUse"><stop offset="0" stop-color="#c6e6ff"/><stop offset="1" stop-color="#fff"/></linearGradient></defs><title>what-is-vps</title><path class="a" d="M201.7,85.3C265.2,125.8,337.8,144,337.8,144s80,12.2,50.6,103.3S355.1,371,309,373.3c-43.7,1.2-68.3-16.8-111.6-13.7-38,2.9-64.1,20.1-127.6-5C-32,309.7-24.4-57.3,201.7,85.3Z"/><text class="b" transform="translate(195.8 -40.6)">تسیچ یزاجم روس*</text><path class="c" d="M181.5,333.8l-71.4-40.7c-2.6-1.5-2.3-4.1.7-5.9l41.1-23.7c3-1.7,7.6-1.9,10.2-.4l71.4,40.7c2.6,1.5,2.2,4.2-.8,5.9l-41.1,23.7C188.6,335.1,184.1,335.3,181.5,333.8Z"/><path class="d" d="M239.8,289.9h0V123.2l-66.2-17.3-12.2-7.1c-2.8-1.6-7.7-1.4-11,.5l-11.3,6.6H103.7l10.5,160.9a3,3,0,0,0,1.9,2.9l66.1,49.9c2.8,1.6,7.7,1.4,10.9-.4l44.1-25.5C239,292.6,239.9,291.2,239.8,289.9Z"/><path class="e" d="M156.3,98a12.9,12.9,0,0,0-5.9,1.5l-11.3,6.6H103.7V273.2c-.1,1.1.5,2.1,1.9,2.9l76.6,43.7a9.7,9.7,0,0,0,5,1.1l.8-168.2Z"/><path class="f" d="M182.9,320.1a11.9,11.9,0,0,0,8.7-.1V150.7h-8.7Z"/><path class="e" d="M182.2,152.7l-76.6-43.6c-2.8-1.6-2.5-4.5.8-6.3l44-25.5c3.3-1.8,8.2-2,11-.4l76.5,43.6c2.8,1.7,2.5,4.5-.7,6.3l-44.1,25.5C189.9,154.1,185,154.4,182.2,152.7Z"/><path class="g" d="M237.2,123.7l-44.1,25.5c-3.2,1.9-8.1,2.1-10.9.4L105.6,106a4.4,4.4,0,0,1-1.4-1.3c-1,1.6-.5,3.3,1.4,4.4l76.6,43.6c2.8,1.7,7.7,1.4,10.9-.4l44.1-25.5c2.5-1.4,3.2-3.4,2.1-5A4.9,4.9,0,0,1,237.2,123.7Z"/><path class="f" d="M184.3,135l-50.9-29.5c-1.4-.8-1.2-2.1.3-3l20.6-11.9a6.1,6.1,0,0,1,5.1-.2l51,29.6c1.3.7,1.2,2-.3,2.9l-20.7,11.9A5.4,5.4,0,0,1,184.3,135Z"/><path class="h" d="M156.8,106.8l-2.9-1.7a.2.2,0,0,1,0-.4l2.9-1.6a.6.6,0,0,1,.7-.1l2.9,1.7a.2.2,0,0,1,0,.4l-2.9,1.7A.9.9,0,0,1,156.8,106.8Z"/><path class="h" d="M166.7,112.5l-3-1.7c-.2-.1-.1-.3.1-.4l2.8-1.7a.8.8,0,0,1,.7,0l3,1.7c.2.1.1.3-.1.4l-2.8,1.7Z"/><path class="h" d="M176.5,118.2l-2.9-1.7c-.2-.1-.2-.3,0-.5l2.9-1.6a.9.9,0,0,1,.7,0l3,1.7a.2.2,0,0,1-.1.4l-2.8,1.6A.8.8,0,0,1,176.5,118.2Z"/><path class="h" d="M186.4,123.8l-2.9-1.7a.2.2,0,0,1,0-.4l2.9-1.6a.9.9,0,0,1,.7-.1l2.9,1.8c.2.1.2.2,0,.4l-2.9,1.6A.9.9,0,0,1,186.4,123.8Z"/><path class="d" d="M133.4,105.5h0l.3-.2,20.6-11.9a5.4,5.4,0,0,1,5.1-.2l51,29.5c1.2-.9,1.2-2,0-2.7l-51-29.6a6.1,6.1,0,0,0-5.1.2l-20.6,11.9C132.2,103.4,132,104.7,133.4,105.5Z"/><path class="i" d="M201.7,185.8l29-16.6a7.3,7.3,0,0,0,2.9-5.7V153.1c0-2.1-1.3-3.1-2.9-2.2l-29,16.6a7.4,7.4,0,0,0-3,5.7v10.3C198.7,185.7,200.1,186.7,201.7,185.8Z"/><path class="j" d="M232.1,150.6a2.8,2.8,0,0,1,.8,2.2v10.3a7.4,7.4,0,0,1-3,5.7l-29,16.6a2.5,2.5,0,0,1-1.4.3,1.8,1.8,0,0,0,2.2.1l29-16.6a7.3,7.3,0,0,0,2.9-5.7V153.1C233.6,151.7,233,150.8,232.1,150.6Z"/><path class="k" d="M210.4,174.5l2.7-1.5a2,2,0,0,0,.6-1.3v-2.8c0-.5-.3-.7-.6-.5l-2.7,1.5a1.8,1.8,0,0,0-.6,1.3V174C209.8,174.5,210.1,174.7,210.4,174.5Z"/><path class="j" d="M219.3,169.4l2.7-1.6a1.6,1.6,0,0,0,.6-1.2v-2.8c0-.5-.3-.7-.6-.5l-2.7,1.5a1.7,1.7,0,0,0-.6,1.2v2.9C218.7,169.3,219,169.6,219.3,169.4Z"/><path class="i" d="M201.7,260.7l29-16.6a7.3,7.3,0,0,0,2.9-5.7V228.1c0-2.2-1.3-3.2-2.9-2.3l-29,16.6a7.4,7.4,0,0,0-3,5.7v10.3C198.7,260.6,200.1,261.6,201.7,260.7Z"/><path class="j" d="M232.1,225.5a2.8,2.8,0,0,1,.8,2.2V238a7.4,7.4,0,0,1-3,5.7l-29,16.6a1.9,1.9,0,0,1-1.4.3,1.8,1.8,0,0,0,2.2.1l29-16.6a7.3,7.3,0,0,0,2.9-5.7V228.1C233.6,226.6,233,225.7,232.1,225.5Z"/><path class="k" d="M210.4,249.4l2.7-1.5a1.8,1.8,0,0,0,.6-1.3v-2.8c0-.5-.3-.7-.6-.5l-2.7,1.5a1.8,1.8,0,0,0-.6,1.3v2.8C209.8,249.4,210.1,249.6,210.4,249.4Z"/><path class="k" d="M219.3,244.3l2.7-1.6a1.6,1.6,0,0,0,.6-1.2v-2.8c0-.5-.3-.7-.6-.5l-2.7,1.5a1.7,1.7,0,0,0-.6,1.2v2.9C218.7,244.3,219,244.5,219.3,244.3Z"/><path class="i" d="M201.7,298.1l29-16.6c1.6-.9,2.9-3.5,2.9-5.6V265.5c0-2.2-1.3-3.2-2.9-2.2l-29,16.6a7,7,0,0,0-3,5.6v10.4C198.7,298.1,200.1,299.1,201.7,298.1Z"/><path class="j" d="M232.1,263a2.6,2.6,0,0,1,.8,2.1v10.4a7,7,0,0,1-3,5.6l-29,16.6a1.9,1.9,0,0,1-1.4.3,1.8,1.8,0,0,0,2.2.1l29-16.6c1.6-.9,2.9-3.5,2.9-5.6V265.5C233.6,264,233,263.1,232.1,263Z"/><path class="j" d="M210.4,286.9l2.7-1.6a1.6,1.6,0,0,0,.6-1.2v-2.9c0-.4-.3-.6-.6-.4l-2.7,1.5a1.7,1.7,0,0,0-.6,1.2v2.9C209.8,286.8,210.1,287.1,210.4,286.9Z"/><path class="k" d="M219.3,281.7l2.7-1.5a1.7,1.7,0,0,0,.6-1.2v-2.9c0-.5-.3-.7-.6-.5l-2.7,1.6a1.6,1.6,0,0,0-.6,1.2v2.8C218.7,281.7,219,281.9,219.3,281.7Z"/><path class="i" d="M201.7,223.2l29-16.6c1.6-.9,2.9-3.5,2.9-5.6V190.6c0-2.2-1.3-3.2-2.9-2.2l-29,16.6a7,7,0,0,0-3,5.6V221C198.7,223.1,200.1,224.1,201.7,223.2Z"/><path class="j" d="M232.1,188.1a2.6,2.6,0,0,1,.8,2.1v10.4a7,7,0,0,1-3,5.6l-29,16.6a1.9,1.9,0,0,1-1.4.3,1.8,1.8,0,0,0,2.2.1l29-16.6c1.6-.9,2.9-3.5,2.9-5.6V190.6C233.6,189.1,233,188.2,232.1,188.1Z"/><path class="j" d="M210.4,211.9l2.7-1.5a1.6,1.6,0,0,0,.6-1.2v-2.9c0-.4-.3-.7-.6-.4l-2.7,1.5a1.6,1.6,0,0,0-.6,1.2v2.9C209.8,211.9,210.1,212.2,210.4,211.9Z"/><path class="j" d="M219.3,206.8l2.7-1.5a1.8,1.8,0,0,0,.6-1.3v-2.8c0-.5-.3-.7-.6-.5l-2.7,1.6a1.6,1.6,0,0,0-.6,1.2v2.8C218.7,206.8,219,207,219.3,206.8Z"/><path class="d" d="M176.6,175.1l-66.9-38.6c-1.5-.8-2.7-3.2-2.7-5.2V118.6c0-2,1.2-2.9,2.7-2.1l66.9,38.7a6.2,6.2,0,0,1,2.7,5.1v12.8C179.3,175.1,178.1,176,176.6,175.1Z"/><path class="e" d="M174.7,170.7l-63.1-36.4a3.5,3.5,0,0,1-1.3-2.7v-9.5c0-1.1.6-1.5,1.3-1.1l63.1,36.4A3.5,3.5,0,0,1,176,160v9.6C176,170.6,175.4,171.1,174.7,170.7Z"/><path class="l" d="M124.8,137l-9.4-5.4A3.1,3.1,0,0,1,114,129h0c0-1,.6-1.4,1.4-1l9.4,5.5a3.1,3.1,0,0,1,1.3,2.5h0C126.1,137,125.5,137.4,124.8,137Z"/><path class="m" d="M132.8,139.9c0,.9-.7,1.3-1.6.9a3.6,3.6,0,0,1-1.5-2.7c0-1,.7-1.4,1.5-.9A3.4,3.4,0,0,1,132.8,139.9Z"/><path class="m" d="M138.2,143c0,1-.7,1.4-1.5.9a3.4,3.4,0,0,1-1.6-2.7c0-1,.7-1.4,1.6-.9A3.6,3.6,0,0,1,138.2,143Z"/><path class="l" d="M143.7,146.1c0,1-.7,1.4-1.6.9a3.5,3.5,0,0,1-1.5-2.6c0-1,.7-1.4,1.5-.9A3.4,3.4,0,0,1,143.7,146.1Z"/><path class="m" d="M149.1,149.3c0,1-.7,1.4-1.5.9a3.4,3.4,0,0,1-1.6-2.7c0-1,.7-1.4,1.6-.9A3.6,3.6,0,0,1,149.1,149.3Z"/><path class="m" d="M172,165.3l-3.1-1.8a2,2,0,0,1-.9-1.6v-3.4c0-.6.4-.9.9-.6l3.1,1.8a2,2,0,0,1,.9,1.6v3.4C172.9,165.3,172.5,165.6,172,165.3Z"/><path class="d" d="M176.6,197.6,109.7,159c-1.5-.8-2.7-3.2-2.7-5.2V141.1c0-2,1.2-2.9,2.7-2.1l66.9,38.6a6.6,6.6,0,0,1,2.7,5.2v12.8C179.3,197.6,178.1,198.5,176.6,197.6Z"/><path class="e" d="M174.7,193.2l-63.1-36.4a3.7,3.7,0,0,1-1.3-2.7v-9.6c0-1,.6-1.4,1.3-1l63.1,36.4a3.3,3.3,0,0,1,1.3,2.6v9.6C176,193.1,175.4,193.6,174.7,193.2Z"/><path class="l" d="M124.8,159.5l-9.4-5.4a3.3,3.3,0,0,1-1.4-2.6h0c0-1,.6-1.4,1.4-1l9.4,5.4a3.5,3.5,0,0,1,1.3,2.6h0C126.1,159.5,125.5,159.9,124.8,159.5Z"/><path class="l" d="M132.8,162.3c0,1-.7,1.4-1.6.9a3.4,3.4,0,0,1-1.5-2.6c0-1,.7-1.4,1.5-.9A3.4,3.4,0,0,1,132.8,162.3Z"/><path class="m" d="M138.2,165.5c0,1-.7,1.4-1.5.9a3.4,3.4,0,0,1-1.6-2.7c0-1,.7-1.4,1.6-.9A3.6,3.6,0,0,1,138.2,165.5Z"/><path class="l" d="M143.7,168.6c0,1-.7,1.4-1.6.9a3.6,3.6,0,0,1-1.5-2.7c0-.9.7-1.3,1.5-.8A3.1,3.1,0,0,1,143.7,168.6Z"/><path class="m" d="M149.1,171.8c0,1-.7,1.4-1.5.9A3.4,3.4,0,0,1,146,170c0-1,.7-1.4,1.6-.9A3.6,3.6,0,0,1,149.1,171.8Z"/><path class="m" d="M172,187.8l-3.1-1.8a2,2,0,0,1-.9-1.6V181c0-.6.4-.9.9-.7l3.1,1.9a2,2,0,0,1,.9,1.6v3.4C172.9,187.8,172.5,188.1,172,187.8Z"/><path class="d" d="M176.6,220.1l-66.9-38.6a6.6,6.6,0,0,1-2.7-5.2V163.6c0-2,1.2-2.9,2.7-2.1l66.9,38.6a6.6,6.6,0,0,1,2.7,5.2v12.8C179.3,220.1,178.1,221,176.6,220.1Z"/><path class="e" d="M174.7,215.6l-63.1-36.4a3.3,3.3,0,0,1-1.3-2.6V167c0-1,.6-1.4,1.3-1l63.1,36.4A3.3,3.3,0,0,1,176,205v9.6C176,215.6,175.4,216.1,174.7,215.6Z"/><path class="l" d="M124.8,182l-9.4-5.4A3.3,3.3,0,0,1,114,174h0c0-1,.6-1.4,1.4-1l9.4,5.4a3.5,3.5,0,0,1,1.3,2.6h0C126.1,182,125.5,182.4,124.8,182Z"/><path class="l" d="M132.8,184.8c0,1-.7,1.4-1.6.9a3.5,3.5,0,0,1-1.5-2.6c0-1,.7-1.4,1.5-.9A3.4,3.4,0,0,1,132.8,184.8Z"/><path class="m" d="M138.2,188c0,1-.7,1.4-1.5.9a3.4,3.4,0,0,1-1.6-2.7c0-1,.7-1.4,1.6-.9A3.6,3.6,0,0,1,138.2,188Z"/><path class="l" d="M143.7,191.1c0,1-.7,1.4-1.6.9a3.6,3.6,0,0,1-1.5-2.7,1,1,0,0,1,1.5-.9A3.4,3.4,0,0,1,143.7,191.1Z"/><path class="m" d="M149.1,194.3c0,.9-.7,1.3-1.5.8a3.1,3.1,0,0,1-1.6-2.6c0-1,.7-1.4,1.6-.9A3.6,3.6,0,0,1,149.1,194.3Z"/><path class="m" d="M172,210.3l-3.1-1.8a2.1,2.1,0,0,1-.9-1.7v-3.3c0-.6.4-.9.9-.7l3.1,1.9a1.9,1.9,0,0,1,.9,1.6v3.4C172.9,210.3,172.5,210.6,172,210.3Z"/><path class="d" d="M176.6,242.6,109.7,204a6.6,6.6,0,0,1-2.7-5.2V186.1c0-2,1.2-3,2.7-2.1l66.9,38.6a6.6,6.6,0,0,1,2.7,5.2v12.8C179.3,242.5,178.1,243.5,176.6,242.6Z"/><path class="e" d="M174.7,238.1l-63.1-36.4a3.3,3.3,0,0,1-1.3-2.6v-9.6c0-1,.6-1.5,1.3-1l63.1,36.4a3.3,3.3,0,0,1,1.3,2.6v9.6C176,238.1,175.4,238.6,174.7,238.1Z"/><path class="l" d="M124.8,204.5l-9.4-5.5a2.9,2.9,0,0,1-1.4-2.5h0c0-1,.6-1.4,1.4-1l9.4,5.4a3.3,3.3,0,0,1,1.3,2.6h0C126.1,204.4,125.5,204.9,124.8,204.5Z"/><path class="m" d="M132.8,207.3c0,1-.7,1.4-1.6.9a3.6,3.6,0,0,1-1.5-2.7c0-.9.7-1.3,1.5-.8A3.1,3.1,0,0,1,132.8,207.3Z"/><path class="m" d="M138.2,210.5a1,1,0,0,1-1.5.9,3.4,3.4,0,0,1-1.6-2.7c0-1,.7-1.4,1.6-.9A3.6,3.6,0,0,1,138.2,210.5Z"/><path class="l" d="M143.7,213.6c0,1-.7,1.4-1.6.9a3.6,3.6,0,0,1-1.5-2.7c0-1,.7-1.4,1.5-.9A3.4,3.4,0,0,1,143.7,213.6Z"/><path class="m" d="M149.1,216.7c0,1-.7,1.4-1.5.9A3.4,3.4,0,0,1,146,215c0-1,.7-1.4,1.6-.9A3.5,3.5,0,0,1,149.1,216.7Z"/><path class="l" d="M172,232.8l-3.1-1.8a2.1,2.1,0,0,1-.9-1.7V226c0-.7.4-.9.9-.7l3.1,1.9a1.9,1.9,0,0,1,.9,1.6v3.3C172.9,232.8,172.5,233.1,172,232.8Z"/><path class="d" d="M176.6,265.1l-66.9-38.6a6.6,6.6,0,0,1-2.7-5.2V208.5c0-1.9,1.2-2.9,2.7-2l66.9,38.6a6.6,6.6,0,0,1,2.7,5.2V263C179.3,265,178.1,266,176.6,265.1Z"/><path class="e" d="M174.7,260.6l-63.1-36.4a3.3,3.3,0,0,1-1.3-2.6V212c0-1,.6-1.5,1.3-1l63.1,36.4A3.3,3.3,0,0,1,176,250v9.6C176,260.6,175.4,261.1,174.7,260.6Z"/><path class="l" d="M124.8,227l-9.4-5.5A2.9,2.9,0,0,1,114,219h0c0-1,.6-1.5,1.4-1l9.4,5.4a3.3,3.3,0,0,1,1.3,2.6h0C126.1,226.9,125.5,227.4,124.8,227Z"/><path class="m" d="M132.8,229.8c0,1-.7,1.4-1.6.9a3.6,3.6,0,0,1-1.5-2.7c0-1,.7-1.4,1.5-.9A3.4,3.4,0,0,1,132.8,229.8Z"/><path class="l" d="M138.2,233c0,.9-.7,1.3-1.5.8a3.2,3.2,0,0,1-1.6-2.6c0-1,.7-1.4,1.6-.9A3.6,3.6,0,0,1,138.2,233Z"/><path class="l" d="M143.7,236.1c0,1-.7,1.4-1.6.9a3.6,3.6,0,0,1-1.5-2.7c0-1,.7-1.4,1.5-.9A3.4,3.4,0,0,1,143.7,236.1Z"/><path class="l" d="M149.1,239.2c0,1-.7,1.4-1.5.9a3.4,3.4,0,0,1-1.6-2.6c0-1,.7-1.4,1.6-.9A3.4,3.4,0,0,1,149.1,239.2Z"/><path class="l" d="M172,255.3l-3.1-1.8a2.2,2.2,0,0,1-.9-1.7v-3.3c0-.7.4-1,.9-.7l3.1,1.8a2.1,2.1,0,0,1,.9,1.7v3.3C172.9,255.3,172.5,255.6,172,255.3Z"/><path class="d" d="M176.6,287.6,109.7,249a6.6,6.6,0,0,1-2.7-5.2V231c0-2,1.2-2.9,2.7-2l66.9,38.6a6.6,6.6,0,0,1,2.7,5.2v12.7C179.3,287.5,178.1,288.4,176.6,287.6Z"/><path class="e" d="M174.7,283.1l-63.1-36.4a3.3,3.3,0,0,1-1.3-2.6v-9.6c0-1,.6-1.5,1.3-1l63.1,36.4a3.3,3.3,0,0,1,1.3,2.6v9.6C176,283.1,175.4,283.5,174.7,283.1Z"/><path class="l" d="M124.8,249.4l-9.4-5.4a2.9,2.9,0,0,1-1.4-2.5h0c0-1,.6-1.5,1.4-1l9.4,5.4a3.3,3.3,0,0,1,1.3,2.5h0C126.1,249.4,125.5,249.9,124.8,249.4Z"/><path class="m" d="M132.8,252.3c0,1-.7,1.4-1.6.9a3.6,3.6,0,0,1-1.5-2.7c0-1,.7-1.4,1.5-.9A3.4,3.4,0,0,1,132.8,252.3Z"/><path class="m" d="M138.2,255.4c0,1-.7,1.4-1.5.9a3.4,3.4,0,0,1-1.6-2.6c0-1,.7-1.4,1.6-.9A3.5,3.5,0,0,1,138.2,255.4Z"/><path class="l" d="M143.7,258.6c0,1-.7,1.4-1.6.9a3.6,3.6,0,0,1-1.5-2.7c0-1,.7-1.4,1.5-.9A3.4,3.4,0,0,1,143.7,258.6Z"/><path class="m" d="M149.1,261.7c0,1-.7,1.4-1.5.9a3.4,3.4,0,0,1-1.6-2.7c0-.9.7-1.3,1.6-.9A3.6,3.6,0,0,1,149.1,261.7Z"/><path class="m" d="M172,277.8l-3.1-1.9a1.9,1.9,0,0,1-.9-1.6v-3.4c0-.6.4-.9.9-.6l3.1,1.8a2.1,2.1,0,0,1,.9,1.7v3.3C172.9,277.8,172.5,278,172,277.8Z"/><path class="d" d="M176.6,310.1l-66.9-38.6a6.6,6.6,0,0,1-2.7-5.2V253.5c0-2,1.2-2.9,2.7-2l66.9,38.6a6.6,6.6,0,0,1,2.7,5.2V308C179.3,310,178.1,310.9,176.6,310.1Z"/><path class="e" d="M174.7,305.6l-63.1-36.4a3.3,3.3,0,0,1-1.3-2.6V257c0-1,.6-1.5,1.3-1.1l63.1,36.4A3.7,3.7,0,0,1,176,295v9.6C176,305.6,175.4,306,174.7,305.6Z"/><path class="l" d="M124.8,271.9l-9.4-5.4A3.1,3.1,0,0,1,114,264h0c0-1,.6-1.5,1.4-1.1l9.4,5.5a3.1,3.1,0,0,1,1.3,2.5h0C126.1,271.9,125.5,272.4,124.8,271.9Z"/><path class="l" d="M132.8,274.8c0,1-.7,1.4-1.6.9a3.6,3.6,0,0,1-1.5-2.7c0-1,.7-1.4,1.5-.9A3.4,3.4,0,0,1,132.8,274.8Z"/><path class="m" d="M138.2,277.9c0,1-.7,1.4-1.5.9a3.4,3.4,0,0,1-1.6-2.7c0-.9.7-1.3,1.6-.8A3.2,3.2,0,0,1,138.2,277.9Z"/><path class="l" d="M143.7,281.1c0,.9-.7,1.3-1.6.9a3.6,3.6,0,0,1-1.5-2.7c0-1,.7-1.4,1.5-.9A3.4,3.4,0,0,1,143.7,281.1Z"/><path class="m" d="M149.1,284.2c0,1-.7,1.4-1.5.9a3.4,3.4,0,0,1-1.6-2.7c0-1,.7-1.4,1.6-.9A3.6,3.6,0,0,1,149.1,284.2Z"/><path class="l" d="M172,300.3l-3.1-1.9a1.9,1.9,0,0,1-.9-1.6v-3.4c0-.6.4-.9.9-.6l3.1,1.8a2.1,2.1,0,0,1,.9,1.7v3.3C172.9,300.2,172.5,300.5,172,300.3Z"/></svg>