<svg xmlns="http://www.w3.org/2000/svg" xmlns:xlink="http://www.w3.org/1999/xlink" viewBox="0 0 400 400"><defs><style>.a,.o{fill:none;}.b{isolation:isolate;}.c{fill:url(#a);}.d{clip-path:url(#b);}.e{fill:#314656;}.f{fill:#152735;}.g{fill:#0e71bb;}.h{fill:#ffe7cb;}.i{opacity:0.25;mix-blend-mode:overlay;}.j{fill:#f59b6b;}.k{fill:#f5b39a;opacity:0.5;}.k,.p{mix-blend-mode:multiply;}.l{fill:#288ed9;}.m{fill:#fe9393;}.n{fill:#78cdef;}.o{stroke:#52a5e8;stroke-linecap:round;stroke-miterlimit:10;stroke-width:0.71px;}.p{fill:#00409e;opacity:0.4;}.q{fill:#333;}.r{fill:#fff;}.s{fill:#c0c2c1;}.t{fill:#e6e6e6;}.u{fill:#000100;}.v{fill:#fe9a0f;}.w{fill:#e2810c;}.x{fill:#dd7f10;}.y{fill:#ae4e32;}.z{fill:#9e402b;}.aa{fill:#fe9b0e;}.ab{fill:#28aae1;}</style><linearGradient id="a" x1="19.64" y1="195.12" x2="396.1" y2="195.12" gradientUnits="userSpaceOnUse"><stop offset="0" stop-color="#c6e6ff"/><stop offset="1" stop-color="#fff"/></linearGradient><clipPath id="b"><polyline class="a" points="384.8 80.1 384.8 320.7 17.9 320.7 17.9 80.1"/></clipPath></defs><title>what-is-advantage-linux-dedicated-servers</title><g class="b"><path class="c" d="M28.2,321s-27-32.3,15-78.9,14.9-76.5,49.2-130.4S213,51.4,251.5,114.6c10.5,17.2,47.4,60.8,73.2,73.6,20.9,10.3,69.9,17.9,71.4,79.9.3,14.3-9.2,40.1-21.8,52.9Z"/><g class="d"><path class="e" d="M148.3,332.8h-26l-.9-2.1h0l-4.9-11.7V285.1h25.1S146.5,311.9,148.3,332.8Z"/><path class="f" d="M121.4,330.6l-4.9-7.2V311.5l4.1-7S121.4,321.2,121.4,330.6Z"/><path class="e" d="M87,282.5a52.6,52.6,0,0,0-4.4,15.3c-.8,6.6.7,33.3.7,33.3l26.3,4.6s8.8-17.4,14.7-45.9c2.6-12.9-22.7-6.9-22.7-6.9"/><path class="g" d="M139.3,134.3s.1,5.8-1.8,9.8-4.2-8.5-4.2-8.5l1.2-4.5"/><path class="h" d="M124.3,161.8s-.2.8-.6,2a18.3,18.3,0,0,0-1,6.2c.1,3.6.1,6.3.3,9,0,0-15.9,2.8-20.9-.4,0,0,6.7-13.9,2.3-25.9Z"/><path class="i" d="M123.7,163.8a21,21,0,0,0-1,5.8c-8.8-2.9-14.4-11-14.4-11Z"/><path class="h" d="M106,158.6c4,4.7,26.6,14.1,29.7,2.9s1.6-24.4,0-32.5c-1-5-3.7-14.5-17-13S88.4,138.2,106,158.6Z"/><path class="g" d="M135.9,123s-2.1,12.3,3.3,12.6c0,0,1.7-13-5.6-18.3-10-7.2-21.4-3.4-21.4-3.4"/><path class="h" d="M106.3,174a4,4,0,0,1-1.9,2.8,74.9,74.9,0,0,1-9.7,4.5s21.2,15.2,36.9-1c0,0-5.7-1.8-7.3-2.9-3.8-2.8-3-4.1-3-4.1"/><path class="h" d="M133,213.6s3.7,11.3,6.8,19.8a37.6,37.6,0,0,0,4.1,8.6c1.6,2,3.7,4.5,7.5,2.5s4.4-3.8,3.8-7.7-7.2-26.9-7.2-26.9"/><path class="h" d="M139.8,233.4s5.2,17.8,12.8,16.2c3.9-1.1,10.7-16,13.8-21.9,9.7-18.7,10.4-22.9,10.4-22.9l-4.9-2.3s-19.3,24.9-20.9,27.3"/><path class="j" d="M141.6,285.1c-23.8,5.3-45.8,2-55.8.3-1.1-3.3.5-8.7,1.8-13.7,3.9-15.4,2-33.2.7-43.8-.6-4.2-1-7.3-1-8.6s-.1-2.3-.2-3.8c-.7-9.1-3.1-25.5-3.3-27.7s18.1-9.8,18.1-9.8,17.9,8.5,22.3-.8a152.9,152.9,0,0,1,14.8,6.1c1.1,7.5,1.7,23.9,1.9,32.4.1,3.2-2.7,9.3-2.7,9.3s.4,25.5,1.7,44.2C140.3,275.9,142,282.5,141.6,285.1Z"/><path class="k" d="M94.5,207.2s-.3,13.1-2,20a11.4,11.4,0,0,1-4.2.7c-.6-4.2-1-7.3-1-8.6s-.1-2.3-.2-3.8Z"/><polygon class="l" points="122.3 278.2 79.8 273.9 86.4 216.1 129 220.3 122.3 278.2"/><polygon class="i" points="122.3 278.5 118.6 278.1 125.1 220.2 129 220.7 122.3 278.5"/><path class="h" d="M76.3,212.5s-1.4,11.8-2.2,20.7a41.1,41.1,0,0,0,.2,9.6c.6,2.5,1.5,5.6,5.8,5.4s5.6-1.6,6.6-5.4,4.7-27.4,4.7-27.4"/><path class="h" d="M74.1,233.7s-1.6,13.2,2.8,17.4c2.8,1.8,9.3,2.1,15.9,3,4.7.5,22.5.8,22.5.8l2.8-7-32.9-7.3"/><path class="h" d="M111.1,246.4a12.7,12.7,0,0,0,6.1-.3l4.5-1.6c.8-.3,5.6.6,6.3.9s-.1,1.3-.8,1.5a15.9,15.9,0,0,1-2.7.2l-1.7,1.5-.4,8.5a11.7,11.7,0,0,1-3.6.4c-2.5-.1-4.6-2.4-9.7-2.7"/><path class="h" d="M124.3,246.9s1.7,1.2,1.8,1.8-.5,7.1-1.6,7.8-3.6.9-3.6.9l-1.1-2.6s-.1-4.8,0-4.9l2.2-1.8,2.2-.7"/><path class="i" d="M110.3,143.4s-.6-4.9-5.1-3.3-1.1,7.8.2,10,3.9,1.7,4.3,0"/><path class="j" d="M152.6,223.2s-7-37.1-13.6-39.9c.6,4.2-5.4,14.5-5,22.1a105.3,105.3,0,0,0,3.5,20.7C147.2,225.7,152.6,223.2,152.6,223.2Z"/><path class="j" d="M88,184.2s-10.4,4.3-13.4,19.7-3.2,20.3-3.2,20.3,12.1,3.9,19.5,1.8c1.4-4.7,3.8-20,3.8-20"/><path class="k" d="M138.7,196.4s-.4,7.1-.5,12.5,0,17.2,0,17.2,1.1-8.7,1.2-16.1A107.6,107.6,0,0,0,138.7,196.4Z"/><path class="m" d="M170.2,204.8a11.8,11.8,0,0,0,1.2-2.7c.2-2.6.2-9.8,1.6-12.4a1.1,1.1,0,0,1,1.4.9c.5,1.2-.5,3.3-.1,4.4s1.1.6,1.9,0a24.3,24.3,0,0,0,3.5-5.1c.4-1.4,1.1-2.9,1.4-2.9s.7,1.1.6,2.1a10.6,10.6,0,0,1-.5,1.9,16.1,16.1,0,0,1-1.2,2.7,27,27,0,0,1,1.7-2.2,21.7,21.7,0,0,0,1.2-2.6c.4-1.4,1.1-1.6,1.4-1.3s.1,1.3-.4,3a8.2,8.2,0,0,1-1.2,2.5,14.2,14.2,0,0,1-1.4,2L183,193a8.7,8.7,0,0,0,1.5-2.5c.2-1.8,1.1-2.4,1.4-2.1a7.5,7.5,0,0,1-.2,2.8,7.3,7.3,0,0,1-.9,2.5c-.9,1.3-1.9,2.5-1.9,2.5s2.7-3.6,3.2-3.1-2.1,4.3-2.8,5.5a16.3,16.3,0,0,1-3.8,4c-1,.4-3.3,4.2-3.6,5"/><path class="m" d="M184.6,194.2a15.7,15.7,0,0,1,1.2-2.1c.2-.3.7-.7,1-.4s-1.2,3.1-1.2,3.1"/><path class="e" d="M301.2,330.4a67.1,67.1,0,0,1-.9,7.9c-.7,4.6-2.7,11.9-5,20.1-4,14-9.3,30.5-12.3,40.1,11.4,23.4-4.9,100.8-6.9,107.3a23.7,23.7,0,0,1-12.1-.7c-2.4-35.7-6.6-108.2-6.6-110,1-36.7,5.5-70.5,5.8-75.9s1-35.6,3.6-36.7c5.7-2.1,20.5-7,27.2,2.7S302,316.7,301.2,330.4Z"/><path class="f" d="M299.7,329.2c-.2,3.2-.5,5.9-.8,8-.8,4.6-2.7,11.9-5.1,20.1-.7-11.6-2-43.7-2-43.7Z"/><path class="e" d="M324,510.4a17.2,17.2,0,0,1-12.6.9c.7,1.6-15.3-80.6-17.2-96.9-.1-1.1-.5-5.4-.6-6.9-.8-8.5.3-50.8,0-67.5l.5-53.3s-15.7-1.4-4.6.5c14.1,2.4,33-.6,33-.6,18.6,25.2,15.5,48.4,11.9,59.5a93,93,0,0,0-3.5,13.8c-3.1,17.1-11.2,39.2-13.2,50.7C334.9,451,325.5,497.6,324,510.4Z"/><path class="h" d="M206.4,239.5l-8.2-2a18.9,18.9,0,0,1-4.5-4.1c-2.8-3.2-6.8-2.8-7.6-2.8s-1,1.1.5,2.2,2.8.3,3.4,2.7-2.7,1.1-4.2.5-6.7-2.9-8-3.5-2.5.3,1,2.8a40.2,40.2,0,0,0,5.5,3.6,13.5,13.5,0,0,0,1.2,2.1c.1.2.4.3.6.4a10.6,10.6,0,0,0,1.2,2l.2.3c.3.6.6,1.3.9,1.8,1.1,2.2,5.2,1.6,7,1.3s9.6,1.6,9.6,1.6Z"/><path class="m" d="M186.5,238.8a21.3,21.3,0,0,1-5.2-1.1c-3.1-1-7-3.2-7.8-3.3s-.9,1,0,1.8a35.3,35.3,0,0,0,4.9,2.9c1.6.9,9.1,2.8,9.1,2.8"/><path class="h" d="M187.6,241a24.9,24.9,0,0,1-5.3-.5c-3.2-.7-7.3-2.4-8.1-2.4s-.8,1,.2,1.7a24.3,24.3,0,0,0,5.1,2.4c1.8.6,9.4,2.5,9.4,2.5"/><path class="h" d="M190.1,244.1a18.9,18.9,0,0,1-5.3-.5c-3.1-.6-7.3-2.4-8.1-2.4s-.7,1.1.2,1.8a52,52,0,0,0,5.2,2.4c1.8.6,9.3,1.7,9.3,1.7"/><path class="l" d="M280.3,214.1c-5,12.4-17.2,32.3-17.2,32.3-7.9.7-18.6-3.1-18.6-3.1,1.4-15,14.9-55.5,14.9-55.5s.8-6.4,18.2-11"/><path class="l" d="M252.1,242.6l-48.4-4.3-1.8,10.1s36.6,14,50.3,14c11.2,0,20-31.8,20-31.8Z"/><path class="i" d="M262.9,198.5s-2.5,36.8-3.6,59.7a45.1,45.1,0,0,0,5.3-8Z"/><path class="l" d="M328.2,238.8c-.8,4.3-2.2,11.5-3.5,18.6-.5,2.7-.9,5.3-1.4,7.8-.9,5.7-1,10.2-.6,12.7,1,5.7,2.1,8.2.7,9.8-3.2,3.8-25.2,5.3-35.6,5.3s-24.8-2.4-25.6-5.4.3-4.3.7-8.9-2.2-90.2,1.4-94.3,11-7,17.8-9.3c4.9-.8,13.1-.4,21.7,1.8s21.6,4.8,23.4,8.6S330.6,226.1,328.2,238.8Z"/><path class="i" d="M324.7,257.4c-.5,2.7-.9,5.3-1.4,7.8-17.2-6.9-47.8-21.1-48.7-21.6Z"/><path class="i" d="M326.4,249.1l-4.7-25.4-5.1-9.3s.5,9.8,1.4,21.3c-12.2-1.7-37.1-5.5-37.1-5.5s23.1,8.7,24,8.9l13.5,1.6.6,8.4Z"/><path class="h" d="M262.9,228.7s-7.7,1.8-8.1,2.3,0,1.7,2.6,1.8a11.5,11.5,0,0,0,5-1.2"/><path class="h" d="M261.6,233.1l-4.7,3.3s-2.9,3.8-2.8,4.1a1.6,1.6,0,0,0,2-.3l2.6-2.4,4.5-1.7"/><path class="h" d="M263.6,234.4l-4.7,3.3s-3,3.8-2.8,4a1.4,1.4,0,0,0,1.9-.2l2.6-2.5,4.6-1.7"/><path class="h" d="M265.6,235.6l-4.7,3.3s-2.9,3.8-2.8,4.1a1.6,1.6,0,0,0,2-.3l2.6-2.4,4.5-1.7"/><path class="h" d="M281.7,232l-8.2-2.1-3-.5-7.4-.7c-1.2,0-7.1,4.2-7.9,4.6s-4.3,6.7-4.3,6.7a1,1,0,0,0,1,.6c.9,0,4.7-4.6,4.7-4.6l4.5-2.4a13.7,13.7,0,0,0,2.5,5.4c1.5,1.9,5.6,1.2,8.6.9s3.8,2.3,3.8,2.3"/><path class="l" d="M348.1,255.8a10.3,10.3,0,0,0,.1-1.7c0-12.8-1.5-46.9-14.9-64.5-5.2-6.8-17.2-9.5-17.2-9.5l.3,31.7c.3,11.9,8.3,44,8.3,44Z"/><path class="l" d="M275.7,235.6c-1.1,3-1.1,8-1.1,8s51.2,20.4,65.7,21.9h0l-.2-24.8-61.4-10.9A30.8,30.8,0,0,0,275.7,235.6Z"/><path class="l" d="M340.3,265.5s8.6,1.7,7.9-12.8c-.5-12.7-11.9-9.4-11.9-9.4l-2.6,10.6Z"/><path class="h" d="M303.8,176.9h0s-9.7,7.4-21.7-1.8c0,0,1.6-2.8,1.8-3.4a23.6,23.6,0,0,0,2.8-7.1c.1-.3.1-.5.2-.8s.4-2.2.5-3.4a28.6,28.6,0,0,0-.2-7.1l1.1-.9,19.1-15,2.1-1.7-1.5,9c-.4,3-1,6.6-1.6,10.3C305.3,162.6,304.2,170.9,303.8,176.9Z"/><path class="i" d="M300.8,155.4h0c-2.7,3.9-8.9,11.8-16.9,16.2a23.6,23.6,0,0,0,2.8-7.1l-3.5.6a24.2,24.2,0,0,0,0-2.7l1.3-.7,2.9-1.4,15-7.4A15.8,15.8,0,0,1,300.8,155.4Z"/><path class="g" d="M270.8,124.4s-3.3,9,2.6,14.2l2.8-13.8Z"/><path class="h" d="M303.9,151.6a36.8,36.8,0,0,1-3.1,3.8h0a31.6,31.6,0,0,1-6.2,5.3,26.8,26.8,0,0,1-7.9,3.8l-3.5.6c-5.1.5-8-1.5-8-1.5-4.8-7-4.6-18.4-3.5-27.1.4-3.5,1-6.5,1.4-8.7l.8-3.1v-.2c2.1-11.2,17-11.6,27.3-5.3l1.8,1.2a20.6,20.6,0,0,1,6.6,7.8c2.4,5.3.9,11.3-1.6,16.4l-.4.8A35.2,35.2,0,0,1,303.9,151.6Z"/><path class="g" d="M304.5,118.5s-12.1,18.8-32.6,8.9c-5.9-2.9-7.3-23.2-2-19.2,10.7,8.4,19.2-7.5,29.5-2.1C302.7,107.8,306,112,304.5,118.5Z"/><path class="g" d="M300.5,120.9s-7.1,36.8.4,19.9c0,0,1.9-4.7,5.3-4.3s.7,13.1.2,18.5c0,0,7.9-5.6,10.8-22.3s-8.4-23.6-14.6-16.4Z"/><path class="n" d="M248.2,243.3h-79a1.8,1.8,0,0,1-1.9-1.5L156.7,185a2.6,2.6,0,0,1,2.6-3.1h75.2a2.6,2.6,0,0,1,2.6,2.1Z"/><path class="g" d="M272.4,243.3H248.2l-.6-3.2h23.3a2.4,2.4,0,0,1,2,1.2l.4.6A1,1,0,0,1,272.4,243.3Z"/></g><line class="o" x1="15.3" y1="320.7" x2="384.8" y2="320.7"/><path class="g" d="M107.5,126.7s14.9,16.7,33.6,3.8c5.4-3.7,3.7-24-.9-19.2-9.4,9.9-20.1-4.5-29.5,2.3C107.7,115.8,105.1,120.5,107.5,126.7Z"/><path class="g" d="M112.1,124.3s7.1,36.8-.4,19.9c0,0-1.9-4.7-5.3-4.3s-.7,13.1-.2,18.5c0,0-7.9-5.6-10.8-22.3s8.4-23.6,14.6-16.4Z"/><path class="p" d="M293.6,318.3c0-1.2,13.8-7,15-16.5,2.1-16.8-1.6-40.3-1.5-44.4,13.3-8,14.3,56.3,24.2,56.3,17,0,24.5,4.4,24.3,9.7-.4,6.8-19.6,9.1-36,8.5C306.2,331.4,293.6,326.1,293.6,318.3Z"/><path class="q" d="M343.6,282.5a18,18,0,0,1-5.5-16.3,12.2,12.2,0,0,0,.1-2.7,13.1,13.1,0,0,0-26.1.7,11.7,11.7,0,0,0,.4,3.2,17.7,17.7,0,0,1-4.2,16.6,25.1,25.1,0,0,0-6.9,17.1c0,15.3,5.9,22.6,14.4,24.9a22.1,22.1,0,0,1,8-1.4,20.4,20.4,0,0,1,7.6,1.3c10.5-2.1,15.4-7.2,18.9-19C353.1,297.5,348.8,287.2,343.6,282.5Z"/><path d="M343.6,282.5a18,18,0,0,1-5.5-16.3,12.2,12.2,0,0,0,.1-2.7,13.1,13.1,0,0,0-12.7-12.4h-1.7v73.4a19.7,19.7,0,0,1,8.5,1.7c9.9-1.5,14.6-7.9,18-19.4C353.1,297.5,348.8,287.2,343.6,282.5Z"/><path class="r" d="M306.9,304.2c0-9.9,8-32.9,17.8-32.9s17.8,23.1,17.8,32.9a17.8,17.8,0,0,1-35.6,0Z"/><path class="s" d="M324.7,271.3h-.9V322h.9a17.8,17.8,0,0,0,17.8-17.8C342.5,294.4,334.6,271.3,324.7,271.3Z"/><ellipse class="t" cx="318.2" cy="266.3" rx="2.9" ry="4"/><ellipse class="u" cx="318.2" cy="267.2" rx="1.5" ry="2.6"/><ellipse class="t" cx="328.6" cy="266.3" rx="2.9" ry="4"/><ellipse class="u" cx="328.6" cy="267.2" rx="1.5" ry="2.6"/><path class="v" d="M332.5,273.1c1,2-6.3,5.9-8.8,5.9s-9.8-4.7-8.9-5.9,5.4-6.1,8.4-6.1S331.9,271.7,332.5,273.1Z"/><path class="w" d="M332.5,273.1c-.6-1.3-6.2-5.4-8.7-6V279C326.4,278.9,333.5,275.1,332.5,273.1Z"/><path class="x" d="M343.6,304.9c1.3,2.5,3.2,4.8,5.7,5.4a4.4,4.4,0,0,1,3.4,3.8c0,.3.1.5.1.8a10.6,10.6,0,0,0,2.1,4.4,3.3,3.3,0,0,1-2,5.2L334.3,328a4.8,4.8,0,0,1-5-7.2l10.3-16.1A2.3,2.3,0,0,1,343.6,304.9Z"/><path class="y" d="M323.6,277.8c-2.6,0-5.3-1.3-8-3.9l.9-.9c2.7,2.6,5.3,3.7,7.8,3.5a8.8,8.8,0,0,0,5.6-3.4l1.1.7a10,10,0,0,1-6.5,4Z"/><path class="z" d="M324.3,276.5h-.5v1.3h.7a10,10,0,0,0,6.5-4l-1.1-.7A8.8,8.8,0,0,1,324.3,276.5Z"/><circle cx="346.1" cy="307.8" r="6"/><path class="q" d="M305.8,301.2s6.4,7.8,10.9,9.5-2.1,6.9-8.3,3S305.8,301.2,305.8,301.2Z"/><path class="aa" d="M302.4,304.9c-1.3,2.5-3.3,4.8-5.7,5.4a4.2,4.2,0,0,0-3.4,3.8c-.1.3-.1.5-.2.8a9.4,9.4,0,0,1-2,4.4,3.3,3.3,0,0,0,2,5.2l18.6,3.5a4.8,4.8,0,0,0,5-7.2l-10.3-16.1A2.3,2.3,0,0,0,302.4,304.9Z"/><circle class="r" cx="104.7" cy="235.5" r="5"/><path class="ab" d="M108.7,235.5l-2-2.4-1.9,1.5h0l-1.6-1.9-2.4,1.9,1.6,2h0l1.9,2.4,2.4-2h0Zm-2.1-1.6,1.2,1.5-1.5,1.1-1.1-1.4Zm-3.5-.4,1.2,1.5-1.5,1.2-1.1-1.5Zm1.3,4.6-1.2-1.5,1.5-1.1,1.1,1.4Z"/></g></svg>