<svg xmlns="http://www.w3.org/2000/svg" xmlns:xlink="http://www.w3.org/1999/xlink" viewBox="0 0 400 400"><defs><style>.a{fill:url(#a);}.b{fill:#137fcf;}.c{fill:#288ed9;}.ab,.ac,.d,.e,.h,.j{fill:none;}.e,.h{stroke:#288ed9;}.ab,.ac,.e{stroke-width:0.34px;}.f{fill:url(#b);}.g{opacity:0.64;fill:url(#c);}.ab,.ac,.g,.n,.s,.t,.u,.w{isolation:isolate;}.h,.j{stroke-linecap:round;stroke-miterlimit:10;stroke-width:1.36px;}.i{fill:#005b9f;}.j{stroke:#014374;}.k{fill:#003c69;}.l{fill:url(#d);}.m,.w{fill:#004b83;}.an,.n{fill:#0e71bb;}.n{opacity:0.19;}.o{fill:#ffbc98;}.p{fill:#d6eeff;}.q{fill:#21e2e2;}.r{fill:#ffb68f;}.s{opacity:0.03;fill:url(#e);}.t{opacity:0.05;fill:url(#f);}.u{opacity:0.1;fill:url(#g);}.v{fill:url(#h);}.w{opacity:0.86;}.x{fill:url(#i);}.y{fill:url(#j);}.z{fill:#fff;}.aa{fill:url(#k);}.ab{stroke:#f7f7f7;}.ab,.ac{opacity:0.23;}.ac{stroke:#fff;}.ad{fill:#f9c7a5;}.ae{fill:#0876ba;}.af{fill:#ffe7cb;}.ag{fill:#152735;}.ah{fill:#1f364c;}.ai{fill:#3b1b1d;}.aj{fill:#722c1d;}.ak{fill:#00233f;}.al{fill:#b8d1ff;}.am{fill:#565656;}</style><linearGradient id="a" x1="-493.19" y1="400.28" x2="-493.2" y2="400.94" gradientTransform="matrix(740.56, 0, 0, -612.51, 365444.58, 245617.49)" gradientUnits="userSpaceOnUse"><stop offset="0" stop-color="#c6e6ff"/><stop offset="1" stop-color="#fff"/></linearGradient><linearGradient id="b" x1="-492.96" y1="404.21" x2="-492.96" y2="403.19" gradientTransform="matrix(447, 0, 0, -64, 220555.82, 26151.44)" gradientUnits="userSpaceOnUse"><stop offset="0" stop-color="#288ed9"/><stop offset="1" stop-color="#137fcf" stop-opacity="0.05"/></linearGradient><linearGradient id="c" x1="-491.37" y1="412.58" x2="-491.37" y2="413.09" gradientTransform="matrix(90.46, 0, 0, -16.56, 44715.39, 7185.08)" gradientUnits="userSpaceOnUse"><stop offset="0" stop-color="#288ed9" stop-opacity="0"/><stop offset="1" stop-color="#005b9f"/></linearGradient><linearGradient id="d" x1="-489.65" y1="400.68" x2="-489.13" y2="400.68" gradientTransform="matrix(53, 0, 0, -441, 26181.32, 176915.44)" gradientUnits="userSpaceOnUse"><stop offset="0" stop-color="#0563a8"/><stop offset="1" stop-color="#0061aa"/></linearGradient><linearGradient id="e" x1="-492.32" y1="400.91" x2="-492.32" y2="400.4" gradientTransform="matrix(204.44, 0, 0, -293.33, 100860.79, 117709.09)" gradientUnits="userSpaceOnUse"><stop offset="0" stop-color="#f7f7f7"/><stop offset="1" stop-color="#fff" stop-opacity="0"/></linearGradient><linearGradient id="f" x1="-492.4" y1="400.91" x2="-492.4" y2="400.4" gradientTransform="matrix(223.06, 0, 0, -277.34, 110037.29, 111297.5)" xlink:href="#e"/><linearGradient id="g" x1="-492.24" y1="400.87" x2="-492.24" y2="400.36" gradientTransform="matrix(191.43, 0, 0, -198.45, 94442.2, 79660.09)" xlink:href="#e"/><linearGradient id="h" x1="-492.44" y1="400.9" x2="-492.44" y2="400.39" gradientTransform="matrix(233.23, 0, 0, -502, 115055.37, 201335.44)" gradientUnits="userSpaceOnUse"><stop offset="0" stop-color="#1882d1"/><stop offset="1" stop-color="#0d70b9"/></linearGradient><linearGradient id="i" x1="-494.01" y1="401.48" x2="-493.74" y2="400.93" gradientTransform="matrix(71.35, 13.87, 33.23, -170.93, 21971.08, 75701.17)" gradientUnits="userSpaceOnUse"><stop offset="0" stop-color="#50abef"/><stop offset="1" stop-color="#1175bf"/></linearGradient><linearGradient id="j" x1="-493.63" y1="401.69" x2="-494.11" y2="401.24" gradientTransform="matrix(83.03, 0, 0, -162.7, 41090.39, 65611.05)" gradientUnits="userSpaceOnUse"><stop offset="0" stop-color="#ffbc98"/><stop offset="1" stop-color="#ff945a"/></linearGradient><linearGradient id="k" x1="-493.84" y1="403.2" x2="-493.38" y2="403.19" gradientTransform="matrix(67.91, 0, 0, -69.54, 33590.07, 28369.64)" gradientUnits="userSpaceOnUse"><stop offset="0" stop-color="#21e2e2"/><stop offset="1" stop-color="#19dbdb"/></linearGradient></defs><title>what-dedicated server</title><path class="a" d="M201.5,98c62,39.5,132.9,57.3,132.9,57.3s78.1,11.9,49.4,100.8-32.5,120.8-77.5,123c-42.7,1.2-66.7-16.4-109-13.3-37.1,2.8-62.6,19.5-124.6-4.9C-26.7,317-19.3-41.3,201.5,98Z"/><rect class="b" x="91.5" y="283.5" width="16.9" height="16.9" rx="2.6"/><path class="c" d="M100.2,288.1a4.1,4.1,0,0,1,4.1,4.1,4.1,4.1,0,0,1-4.1,4.1,4.1,4.1,0,0,1-4.1-4.1A4.2,4.2,0,0,1,100.2,288.1Z"/><circle class="d" cx="100.2" cy="292.2" r="5.6"/><circle class="e" cx="100.2" cy="292.2" r="5.4"/><ellipse class="f" cx="200.7" cy="331.1" rx="114.3" ry="16.4"/><ellipse class="g" cx="268" cy="347.7" rx="23.1" ry="4.2"/><path class="h" d="M155.1,274.8H123.9c-4.3,0-6.2,2.4-6.1,6.5V303c0,4-2.5,5.3-6.7,5.3h-5.9c-3.2,0-5.1-2.1-5.1-4.4V296"/><rect class="i" x="130.9" y="82.6" width="131.4" height="256.67" rx="10.2"/><path class="j" d="M197.9,98v17.5c0,3.6-1.9,5.3-5.4,5.3h-5.1c-3.3,0-4.4,2.2-4.4,5.9v1.6"/><path class="j" d="M203.3,103.1v7.5c0,3.7-1.9,5.4-5.3,5.3h-5.1c-3.4,0-4.4,2.2-4.4,5.9v6.4"/><path class="j" d="M188.8,97.7v13c0,3.7-1.9,5.4-5.3,5.3h-5.2c-3.4,0-4.4,2.2-4.4,5.9v6.4"/><path class="j" d="M158,95.6h34.6c3.7,0,5.4,1.9,5.3,5.3v5.2"/><path class="j" d="M203.4,105.1c0-2.7,0-4.2-.1-5.2-.1-3.4,1.6-5.3,5.4-5.3h28.5"/><path class="j" d="M224.8,94.6v69.1c0,3.7-1.9,5.4-5.3,5.3h-5.2c-3.3,0-4.3,2.2-4.3,5.8v1.7"/><path class="j" d="M219.7,94.6V117c0,3.7-1.9,5.4-5.3,5.4h-5.2c-3.3,0-4.4,2.2-4.4,5.9v6.4"/><path class="j" d="M214.7,96.9V183c0,3.7-1.9,5.4-5.2,5.4h-5.2c-3.4,0-4.4,2.2-4.4,5.9v37.4"/><rect class="k" x="158" y="140.4" width="72.1" height="162.59"/><rect class="l" x="230.1" y="103.6" width="27.1" height="225.49"/><path class="m" d="M164.4,224.5h70.9a1.8,1.8,0,0,1,1.8,1.8v14.2a1.9,1.9,0,0,1-1.8,1.9H164.4a1.9,1.9,0,0,1-1.8-1.9V226.3A1.8,1.8,0,0,1,164.4,224.5Z"/><path class="n" d="M164.6,224.4h21v17.9h-21a2.5,2.5,0,0,1-2.5-2.5V227A2.6,2.6,0,0,1,164.6,224.4Z"/><rect class="o" x="168.8" y="230.7" width="5.6" height="5.84" rx="2.8"/><path class="p" d="M193.8,230.7h0a.9.9,0,0,1,.9.9h0a.9.9,0,0,1-.9.9h0a.9.9,0,0,1-.9-.9h0A.9.9,0,0,1,193.8,230.7Z"/><path class="p" d="M196,234.3h0a.9.9,0,0,1,.9.9h0a.9.9,0,0,1-.9.9h0a.9.9,0,0,1-.9-.9h0A.9.9,0,0,1,196,234.3Z"/><path class="c" d="M212.1,230.7h0a.9.9,0,0,1,.9.9h0a.9.9,0,0,1-.9.9h0a.9.9,0,0,1-.9-.9h0A.9.9,0,0,1,212.1,230.7Z"/><path class="c" d="M214.3,234.3h0a.9.9,0,0,1,.9.9h0a.9.9,0,0,1-.9.9h0a.9.9,0,0,1-.9-.9h0A.9.9,0,0,1,214.3,234.3Z"/><path class="c" d="M197.5,230.7h0a.9.9,0,0,1,.9.9h0a.9.9,0,0,1-.9.9h0a.9.9,0,0,1-.9-.9h0A.9.9,0,0,1,197.5,230.7Z"/><path class="c" d="M199.7,234.3h0a.9.9,0,0,1,.9.9h0a.9.9,0,0,1-.9.9h0a.9.9,0,0,1-.9-.9h0A.9.9,0,0,1,199.7,234.3Z"/><path class="c" d="M215.7,230.7h0a1,1,0,0,1,1,.9h0a1,1,0,0,1-1,.9h0a.9.9,0,0,1-.9-.9h0A.9.9,0,0,1,215.7,230.7Z"/><path class="c" d="M217.9,234.3h0a.9.9,0,0,1,.9.9h0a.9.9,0,0,1-.9.9h0a.9.9,0,0,1-.9-.9h0A.9.9,0,0,1,217.9,234.3Z"/><path class="c" d="M201.1,230.7h0a.9.9,0,0,1,.9.9h0a.9.9,0,0,1-.9.9h0a.9.9,0,0,1-.9-.9h0A.9.9,0,0,1,201.1,230.7Z"/><path class="c" d="M203.3,234.3h0a.9.9,0,0,1,.9.9h0a.9.9,0,0,1-.9.9h0a.9.9,0,0,1-.9-.9h0A.9.9,0,0,1,203.3,234.3Z"/><path class="p" d="M219.4,230.7h0a.9.9,0,0,1,.9.9h0a.9.9,0,0,1-.9.9h0a.9.9,0,0,1-.9-.9h0A.9.9,0,0,1,219.4,230.7Z"/><path class="p" d="M221.6,234.3h0a.9.9,0,0,1,.9.9h0a.9.9,0,0,1-.9.9h0a.9.9,0,0,1-.9-.9h0A.9.9,0,0,1,221.6,234.3Z"/><path class="c" d="M204.8,230.7h0a.9.9,0,0,1,.9.9h0a.9.9,0,0,1-.9.9h0a.9.9,0,0,1-.9-.9h0A.9.9,0,0,1,204.8,230.7Z"/><path class="p" d="M207,234.3h0a.9.9,0,0,1,.9.9h0a.9.9,0,0,1-.9.9h0a.9.9,0,0,1-.9-.9h0A.9.9,0,0,1,207,234.3Z"/><path class="c" d="M223,230.7h0a.9.9,0,0,1,1,.9h0a.9.9,0,0,1-1,.9h0a.9.9,0,0,1-.9-.9h0A.9.9,0,0,1,223,230.7Z"/><path class="c" d="M225.2,234.3h0a1,1,0,0,1,1,.9h0a1,1,0,0,1-1,.9h0a.9.9,0,0,1-.9-.9h0A.9.9,0,0,1,225.2,234.3Z"/><path class="c" d="M208.4,230.7h0a1,1,0,0,1,1,.9h0a1,1,0,0,1-1,.9h0a.9.9,0,0,1-.9-.9h0A.9.9,0,0,1,208.4,230.7Z"/><path class="c" d="M210.6,234.3h0a.9.9,0,0,1,.9.9h0a.9.9,0,0,1-.9.9h0a.9.9,0,0,1-.9-.9h0A.9.9,0,0,1,210.6,234.3Z"/><path class="c" d="M226.7,230.7h0a.9.9,0,0,1,.9.9h0a.9.9,0,0,1-.9.9h0a.9.9,0,0,1-.9-.9h0A.9.9,0,0,1,226.7,230.7Z"/><path class="c" d="M228.9,234.3h0a.9.9,0,0,1,.9.9h0a.9.9,0,0,1-.9.9h0a.9.9,0,0,1-.9-.9h0A.9.9,0,0,1,228.9,234.3Z"/><rect class="q" x="177" y="230.7" width="5.6" height="5.84" rx="2.8"/><path class="m" d="M164.4,126.7h70.9a1.8,1.8,0,0,1,1.8,1.8v14.3a1.8,1.8,0,0,1-1.8,1.8H164.4a1.8,1.8,0,0,1-1.8-1.8V128.5A1.8,1.8,0,0,1,164.4,126.7Z"/><path class="n" d="M164.6,126.7h21v17.9h-21a2.5,2.5,0,0,1-2.5-2.6V129.3A2.5,2.5,0,0,1,164.6,126.7Z"/><rect class="o" x="168.8" y="132.9" width="5.6" height="5.84" rx="2.8"/><path class="c" d="M193.8,132.9h0a.9.9,0,0,1,.9.9h0a1,1,0,0,1-.9,1h0a1,1,0,0,1-.9-1h0A.9.9,0,0,1,193.8,132.9Z"/><path class="c" d="M196,136.6h0a.9.9,0,0,1,.9.9h0a.9.9,0,0,1-.9.9h0a.9.9,0,0,1-.9-.9h0A.9.9,0,0,1,196,136.6Z"/><path class="c" d="M212.1,132.9h0a.9.9,0,0,1,.9.9h0a1,1,0,0,1-.9,1h0a1,1,0,0,1-.9-1h0A.9.9,0,0,1,212.1,132.9Z"/><path class="p" d="M214.3,136.6h0a.9.9,0,0,1,.9.9h0a.9.9,0,0,1-.9.9h0a.9.9,0,0,1-.9-.9h0A.9.9,0,0,1,214.3,136.6Z"/><path class="p" d="M197.5,132.9h0a.9.9,0,0,1,.9.9h0a1,1,0,0,1-.9,1h0a1,1,0,0,1-.9-1h0A.9.9,0,0,1,197.5,132.9Z"/><path class="c" d="M199.7,136.6h0a.9.9,0,0,1,.9.9h0a.9.9,0,0,1-.9.9h0a.9.9,0,0,1-.9-.9h0A.9.9,0,0,1,199.7,136.6Z"/><path class="c" d="M215.7,132.9h0a1,1,0,0,1,1,.9h0a1.1,1.1,0,0,1-1,1h0a1,1,0,0,1-.9-1h0A.9.9,0,0,1,215.7,132.9Z"/><path class="p" d="M217.9,136.6h0a.9.9,0,0,1,.9.9h0a.9.9,0,0,1-.9.9h0a.9.9,0,0,1-.9-.9h0A.9.9,0,0,1,217.9,136.6Z"/><path class="c" d="M201.1,132.9h0a.9.9,0,0,1,.9.9h0a1,1,0,0,1-.9,1h0a1,1,0,0,1-.9-1h0A.9.9,0,0,1,201.1,132.9Z"/><path class="c" d="M203.3,136.6h0a.9.9,0,0,1,.9.9h0a.9.9,0,0,1-.9.9h0a.9.9,0,0,1-.9-.9h0A.9.9,0,0,1,203.3,136.6Z"/><path class="c" d="M219.4,132.9h0a.9.9,0,0,1,.9.9h0a1,1,0,0,1-.9,1h0a1,1,0,0,1-.9-1h0A.9.9,0,0,1,219.4,132.9Z"/><path class="c" d="M221.6,136.6h0a.9.9,0,0,1,.9.9h0a.9.9,0,0,1-.9.9h0a.9.9,0,0,1-.9-.9h0A.9.9,0,0,1,221.6,136.6Z"/><path class="c" d="M204.8,132.9h0a.9.9,0,0,1,.9.9h0a1,1,0,0,1-.9,1h0a1,1,0,0,1-.9-1h0A.9.9,0,0,1,204.8,132.9Z"/><path class="c" d="M207,136.6h0a.9.9,0,0,1,.9.9h0a.9.9,0,0,1-.9.9h0a.9.9,0,0,1-.9-.9h0A.9.9,0,0,1,207,136.6Z"/><path class="c" d="M223,132.9h0a.9.9,0,0,1,1,.9h0a1,1,0,0,1-1,1h0a1,1,0,0,1-.9-1h0A.9.9,0,0,1,223,132.9Z"/><path class="p" d="M225.2,136.6h0a1,1,0,0,1,1,.9h0a1,1,0,0,1-1,.9h0a.9.9,0,0,1-.9-.9h0A.9.9,0,0,1,225.2,136.6Z"/><path class="p" d="M208.4,132.9h0a1,1,0,0,1,1,.9h0a1.1,1.1,0,0,1-1,1h0a1,1,0,0,1-.9-1h0A.9.9,0,0,1,208.4,132.9Z"/><path class="c" d="M210.6,136.6h0a.9.9,0,0,1,.9.9h0a.9.9,0,0,1-.9.9h0a.9.9,0,0,1-.9-.9h0A.9.9,0,0,1,210.6,136.6Z"/><path class="c" d="M226.7,132.9h0a.9.9,0,0,1,.9.9h0a1,1,0,0,1-.9,1h0a1,1,0,0,1-.9-1h0A.9.9,0,0,1,226.7,132.9Z"/><path class="c" d="M228.9,136.6h0a.9.9,0,0,1,.9.9h0a.9.9,0,0,1-.9.9h0a.9.9,0,0,1-.9-.9h0A.9.9,0,0,1,228.9,136.6Z"/><rect class="q" x="177" y="132.9" width="5.6" height="5.84" rx="2.8"/><path class="m" d="M164.4,248.9h70.9a1.8,1.8,0,0,1,1.8,1.8V265a1.8,1.8,0,0,1-1.8,1.8H164.4a1.8,1.8,0,0,1-1.8-1.8V250.7A1.8,1.8,0,0,1,164.4,248.9Z"/><path class="n" d="M164.6,248.9h21v17.9h-21a2.6,2.6,0,0,1-2.5-2.6V251.4A2.5,2.5,0,0,1,164.6,248.9Z"/><rect class="o" x="168.8" y="255.1" width="5.6" height="5.84" rx="2.8"/><path class="p" d="M193.8,255.1h0a.9.9,0,0,1,.9.9h0a.9.9,0,0,1-.9.9h0a.9.9,0,0,1-.9-.9h0A.9.9,0,0,1,193.8,255.1Z"/><path class="c" d="M196,258.8h0a.9.9,0,0,1,.9.9h0a.9.9,0,0,1-.9.9h0a.9.9,0,0,1-.9-.9h0A.9.9,0,0,1,196,258.8Z"/><path class="c" d="M212.1,255.1h0a.9.9,0,0,1,.9.9h0a.9.9,0,0,1-.9.9h0a.9.9,0,0,1-.9-.9h0A.9.9,0,0,1,212.1,255.1Z"/><path class="c" d="M214.3,258.8h0a.9.9,0,0,1,.9.9h0a.9.9,0,0,1-.9.9h0a.9.9,0,0,1-.9-.9h0A.9.9,0,0,1,214.3,258.8Z"/><path class="c" d="M197.5,255.1h0a.9.9,0,0,1,.9.9h0a.9.9,0,0,1-.9.9h0a.9.9,0,0,1-.9-.9h0A.9.9,0,0,1,197.5,255.1Z"/><path class="c" d="M199.7,258.8h0a.9.9,0,0,1,.9.9h0a.9.9,0,0,1-.9.9h0a.9.9,0,0,1-.9-.9h0A.9.9,0,0,1,199.7,258.8Z"/><path class="p" d="M215.7,255.1h0a1,1,0,0,1,1,.9h0a1,1,0,0,1-1,.9h0a.9.9,0,0,1-.9-.9h0A.9.9,0,0,1,215.7,255.1Z"/><path class="c" d="M217.9,258.8h0a.9.9,0,0,1,.9.9h0a.9.9,0,0,1-.9.9h0a.9.9,0,0,1-.9-.9h0A.9.9,0,0,1,217.9,258.8Z"/><path class="c" d="M201.1,255.1h0a.9.9,0,0,1,.9.9h0a.9.9,0,0,1-.9.9h0a.9.9,0,0,1-.9-.9h0A.9.9,0,0,1,201.1,255.1Z"/><path class="c" d="M203.3,258.8h0a.9.9,0,0,1,.9.9h0a.9.9,0,0,1-.9.9h0a.9.9,0,0,1-.9-.9h0A.9.9,0,0,1,203.3,258.8Z"/><path class="c" d="M219.4,255.1h0a.9.9,0,0,1,.9.9h0a.9.9,0,0,1-.9.9h0a.9.9,0,0,1-.9-.9h0A.9.9,0,0,1,219.4,255.1Z"/><path class="c" d="M221.6,258.8h0a.9.9,0,0,1,.9.9h0a.9.9,0,0,1-.9.9h0a.9.9,0,0,1-.9-.9h0A.9.9,0,0,1,221.6,258.8Z"/><path class="p" d="M204.8,255.1h0a.9.9,0,0,1,.9.9h0a.9.9,0,0,1-.9.9h0a.9.9,0,0,1-.9-.9h0A.9.9,0,0,1,204.8,255.1Z"/><path class="c" d="M207,258.8h0a.9.9,0,0,1,.9.9h0a.9.9,0,0,1-.9.9h0a.9.9,0,0,1-.9-.9h0A.9.9,0,0,1,207,258.8Z"/><path class="c" d="M223,255.1h0a.9.9,0,0,1,1,.9h0a.9.9,0,0,1-1,.9h0a.9.9,0,0,1-.9-.9h0A.9.9,0,0,1,223,255.1Z"/><path class="p" d="M225.2,258.8h0a1,1,0,0,1,1,.9h0a1,1,0,0,1-1,.9h0a.9.9,0,0,1-.9-.9h0A.9.9,0,0,1,225.2,258.8Z"/><path class="c" d="M208.4,255.1h0a1,1,0,0,1,1,.9h0a1,1,0,0,1-1,.9h0a.9.9,0,0,1-.9-.9h0A.9.9,0,0,1,208.4,255.1Z"/><path class="c" d="M210.6,258.8h0a.9.9,0,0,1,.9.9h0a.9.9,0,0,1-.9.9h0a.9.9,0,0,1-.9-.9h0A.9.9,0,0,1,210.6,258.8Z"/><path class="c" d="M226.7,255.1h0a.9.9,0,0,1,.9.9h0a.9.9,0,0,1-.9.9h0a.9.9,0,0,1-.9-.9h0A.9.9,0,0,1,226.7,255.1Z"/><path class="p" d="M228.9,258.8h0a.9.9,0,0,1,.9.9h0a.9.9,0,0,1-.9.9h0a.9.9,0,0,1-.9-.9h0A.9.9,0,0,1,228.9,258.8Z"/><rect class="q" x="177" y="255.1" width="5.6" height="5.84" rx="2.8"/><path class="m" d="M164.4,151.2h70.9a1.8,1.8,0,0,1,1.8,1.8v14.2a1.9,1.9,0,0,1-1.8,1.9H164.4a1.9,1.9,0,0,1-1.8-1.9V153A1.8,1.8,0,0,1,164.4,151.2Z"/><path class="n" d="M164.6,151.1h21V169h-21a2.5,2.5,0,0,1-2.5-2.5V153.7A2.6,2.6,0,0,1,164.6,151.1Z"/><rect class="o" x="168.8" y="157.4" width="5.6" height="5.84" rx="2.8"/><path class="c" d="M193.8,157.4h0a.9.9,0,0,1,.9.9h0a.9.9,0,0,1-.9.9h0a.9.9,0,0,1-.9-.9h0A.9.9,0,0,1,193.8,157.4Z"/><path class="p" d="M196,161h0a.9.9,0,0,1,.9.9h0a.9.9,0,0,1-.9.9h0a.9.9,0,0,1-.9-.9h0A.9.9,0,0,1,196,161Z"/><path class="c" d="M212.1,157.4h0a.9.9,0,0,1,.9.9h0a.9.9,0,0,1-.9.9h0a.9.9,0,0,1-.9-.9h0A.9.9,0,0,1,212.1,157.4Z"/><path class="c" d="M214.3,161h0a.9.9,0,0,1,.9.9h0a.9.9,0,0,1-.9.9h0a.9.9,0,0,1-.9-.9h0A.9.9,0,0,1,214.3,161Z"/><path class="c" d="M197.5,157.4h0a.9.9,0,0,1,.9.9h0a.9.9,0,0,1-.9.9h0a.9.9,0,0,1-.9-.9h0A.9.9,0,0,1,197.5,157.4Z"/><path class="c" d="M199.7,161h0a.9.9,0,0,1,.9.9h0a.9.9,0,0,1-.9.9h0a.9.9,0,0,1-.9-.9h0A.9.9,0,0,1,199.7,161Z"/><path class="c" d="M215.7,157.4h0a1,1,0,0,1,1,.9h0a1,1,0,0,1-1,.9h0a.9.9,0,0,1-.9-.9h0A.9.9,0,0,1,215.7,157.4Z"/><path class="c" d="M217.9,161h0a.9.9,0,0,1,.9.9h0a.9.9,0,0,1-.9.9h0a.9.9,0,0,1-.9-.9h0A.9.9,0,0,1,217.9,161Z"/><path class="c" d="M201.1,157.4h0a.9.9,0,0,1,.9.9h0a.9.9,0,0,1-.9.9h0a.9.9,0,0,1-.9-.9h0A.9.9,0,0,1,201.1,157.4Z"/><path class="p" d="M203.3,161h0a.9.9,0,0,1,.9.9h0a.9.9,0,0,1-.9.9h0a.9.9,0,0,1-.9-.9h0A.9.9,0,0,1,203.3,161Z"/><path class="c" d="M219.4,157.4h0a.9.9,0,0,1,.9.9h0a.9.9,0,0,1-.9.9h0a.9.9,0,0,1-.9-.9h0A.9.9,0,0,1,219.4,157.4Z"/><path class="c" d="M221.6,161h0a.9.9,0,0,1,.9.9h0a.9.9,0,0,1-.9.9h0a.9.9,0,0,1-.9-.9h0A.9.9,0,0,1,221.6,161Z"/><path class="c" d="M204.8,157.4h0a.9.9,0,0,1,.9.9h0a.9.9,0,0,1-.9.9h0a.9.9,0,0,1-.9-.9h0A.9.9,0,0,1,204.8,157.4Z"/><path class="c" d="M207,161h0a.9.9,0,0,1,.9.9h0a.9.9,0,0,1-.9.9h0a.9.9,0,0,1-.9-.9h0A.9.9,0,0,1,207,161Z"/><path class="p" d="M223,157.4h0a.9.9,0,0,1,1,.9h0a.9.9,0,0,1-1,.9h0a.9.9,0,0,1-.9-.9h0A.9.9,0,0,1,223,157.4Z"/><path class="c" d="M225.2,161h0a1,1,0,0,1,1,.9h0a1,1,0,0,1-1,.9h0a.9.9,0,0,1-.9-.9h0A.9.9,0,0,1,225.2,161Z"/><path class="p" d="M208.4,157.4h0a1,1,0,0,1,1,.9h0a1,1,0,0,1-1,.9h0a.9.9,0,0,1-.9-.9h0A.9.9,0,0,1,208.4,157.4Z"/><path class="c" d="M210.6,161h0a.9.9,0,0,1,.9.9h0a.9.9,0,0,1-.9.9h0a.9.9,0,0,1-.9-.9h0A.9.9,0,0,1,210.6,161Z"/><path class="p" d="M226.7,157.4h0a.9.9,0,0,1,.9.9h0a.9.9,0,0,1-.9.9h0a.9.9,0,0,1-.9-.9h0A.9.9,0,0,1,226.7,157.4Z"/><path class="c" d="M228.9,161h0a.9.9,0,0,1,.9.9h0a.9.9,0,0,1-.9.9h0a.9.9,0,0,1-.9-.9h0A.9.9,0,0,1,228.9,161Z"/><rect class="q" x="177" y="157.4" width="5.6" height="5.84" rx="2.8"/><path class="m" d="M164.4,273.3h70.9a1.8,1.8,0,0,1,1.8,1.9v14.2a1.8,1.8,0,0,1-1.8,1.8H164.4a1.8,1.8,0,0,1-1.8-1.8V275.2A1.8,1.8,0,0,1,164.4,273.3Z"/><path class="n" d="M164.6,273.3h21v17.9h-21a2.5,2.5,0,0,1-2.5-2.5V275.9A2.6,2.6,0,0,1,164.6,273.3Z"/><rect class="r" x="168.8" y="279.5" width="5.6" height="5.84" rx="2.8"/><path class="c" d="M193.8,279.5h0a.9.9,0,0,1,.9,1h0a.9.9,0,0,1-.9.9h0a.9.9,0,0,1-.9-.9h0A.9.9,0,0,1,193.8,279.5Z"/><path class="c" d="M196,283.2h0a.9.9,0,0,1,.9.9h0a.9.9,0,0,1-.9.9h0a.9.9,0,0,1-.9-.9h0A.9.9,0,0,1,196,283.2Z"/><path class="c" d="M212.1,279.5h0a.9.9,0,0,1,.9,1h0a.9.9,0,0,1-.9.9h0a.9.9,0,0,1-.9-.9h0A.9.9,0,0,1,212.1,279.5Z"/><path class="c" d="M214.3,283.2h0a.9.9,0,0,1,.9.9h0a.9.9,0,0,1-.9.9h0a.9.9,0,0,1-.9-.9h0A.9.9,0,0,1,214.3,283.2Z"/><path class="c" d="M197.5,279.5h0a.9.9,0,0,1,.9,1h0a.9.9,0,0,1-.9.9h0a.9.9,0,0,1-.9-.9h0A.9.9,0,0,1,197.5,279.5Z"/><path class="p" d="M199.7,283.2h0a.9.9,0,0,1,.9.9h0a.9.9,0,0,1-.9.9h0a.9.9,0,0,1-.9-.9h0A.9.9,0,0,1,199.7,283.2Z"/><path class="c" d="M215.7,279.5h0a1,1,0,0,1,1,1h0a1,1,0,0,1-1,.9h0a.9.9,0,0,1-.9-.9h0A.9.9,0,0,1,215.7,279.5Z"/><path class="c" d="M217.9,283.2h0a.9.9,0,0,1,.9.9h0a.9.9,0,0,1-.9.9h0a.9.9,0,0,1-.9-.9h0A.9.9,0,0,1,217.9,283.2Z"/><path class="c" d="M201.1,279.5h0a.9.9,0,0,1,.9,1h0a.9.9,0,0,1-.9.9h0a.9.9,0,0,1-.9-.9h0A.9.9,0,0,1,201.1,279.5Z"/><path class="p" d="M203.3,283.2h0a.9.9,0,0,1,.9.9h0a.9.9,0,0,1-.9.9h0a.9.9,0,0,1-.9-.9h0A.9.9,0,0,1,203.3,283.2Z"/><path class="c" d="M219.4,279.5h0a.9.9,0,0,1,.9,1h0a.9.9,0,0,1-.9.9h0a.9.9,0,0,1-.9-.9h0A.9.9,0,0,1,219.4,279.5Z"/><path class="p" d="M221.6,283.2h0a.9.9,0,0,1,.9.9h0a.9.9,0,0,1-.9.9h0a.9.9,0,0,1-.9-.9h0A.9.9,0,0,1,221.6,283.2Z"/><path class="c" d="M204.8,279.5h0a.9.9,0,0,1,.9,1h0a.9.9,0,0,1-.9.9h0a.9.9,0,0,1-.9-.9h0A.9.9,0,0,1,204.8,279.5Z"/><path class="c" d="M207,283.2h0a.9.9,0,0,1,.9.9h0a.9.9,0,0,1-.9.9h0a.9.9,0,0,1-.9-.9h0A.9.9,0,0,1,207,283.2Z"/><path class="p" d="M223,279.5h0a.9.9,0,0,1,1,1h0a.9.9,0,0,1-1,.9h0a.9.9,0,0,1-.9-.9h0A.9.9,0,0,1,223,279.5Z"/><path class="c" d="M225.2,283.2h0a1,1,0,0,1,1,.9h0a1,1,0,0,1-1,.9h0a.9.9,0,0,1-.9-.9h0A.9.9,0,0,1,225.2,283.2Z"/><path class="c" d="M208.4,279.5h0a1,1,0,0,1,1,1h0a1,1,0,0,1-1,.9h0a.9.9,0,0,1-.9-.9h0A.9.9,0,0,1,208.4,279.5Z"/><path class="p" d="M210.6,283.2h0a.9.9,0,0,1,.9.9h0a.9.9,0,0,1-.9.9h0a.9.9,0,0,1-.9-.9h0A.9.9,0,0,1,210.6,283.2Z"/><path class="c" d="M226.7,279.5h0a.9.9,0,0,1,.9,1h0a.9.9,0,0,1-.9.9h0a.9.9,0,0,1-.9-.9h0A.9.9,0,0,1,226.7,279.5Z"/><path class="c" d="M228.9,283.2h0a.9.9,0,0,1,.9.9h0a.9.9,0,0,1-.9.9h0a.9.9,0,0,1-.9-.9h0A.9.9,0,0,1,228.9,283.2Z"/><rect class="q" x="177" y="279.5" width="5.6" height="5.84" rx="2.8"/><path class="m" d="M164.4,175.6h70.9a1.8,1.8,0,0,1,1.8,1.8v14.3a1.8,1.8,0,0,1-1.8,1.8H164.4a1.8,1.8,0,0,1-1.8-1.8V177.4A1.8,1.8,0,0,1,164.4,175.6Z"/><path class="n" d="M164.6,175.6h21v17.9h-21a2.6,2.6,0,0,1-2.5-2.6V178.1A2.5,2.5,0,0,1,164.6,175.6Z"/><rect class="o" x="168.8" y="181.8" width="5.6" height="5.84" rx="2.8"/><path class="c" d="M193.8,181.8h0a.9.9,0,0,1,.9.9h0a.9.9,0,0,1-.9.9h0a.9.9,0,0,1-.9-.9h0A.9.9,0,0,1,193.8,181.8Z"/><path class="c" d="M196,185.5h0a.9.9,0,0,1,.9.9h0a.9.9,0,0,1-.9.9h0a.9.9,0,0,1-.9-.9h0A.9.9,0,0,1,196,185.5Z"/><path class="c" d="M212.1,181.8h0a.9.9,0,0,1,.9.9h0a.9.9,0,0,1-.9.9h0a.9.9,0,0,1-.9-.9h0A.9.9,0,0,1,212.1,181.8Z"/><path class="p" d="M214.3,185.5h0a.9.9,0,0,1,.9.9h0a.9.9,0,0,1-.9.9h0a.9.9,0,0,1-.9-.9h0A.9.9,0,0,1,214.3,185.5Z"/><path class="c" d="M197.5,181.8h0a.9.9,0,0,1,.9.9h0a.9.9,0,0,1-.9.9h0a.9.9,0,0,1-.9-.9h0A.9.9,0,0,1,197.5,181.8Z"/><path class="c" d="M199.7,185.5h0a.9.9,0,0,1,.9.9h0a.9.9,0,0,1-.9.9h0a.9.9,0,0,1-.9-.9h0A.9.9,0,0,1,199.7,185.5Z"/><path class="c" d="M215.7,181.8h0a1,1,0,0,1,1,.9h0a1,1,0,0,1-1,.9h0a.9.9,0,0,1-.9-.9h0A.9.9,0,0,1,215.7,181.8Z"/><path class="c" d="M217.9,185.5h0a.9.9,0,0,1,.9.9h0a.9.9,0,0,1-.9.9h0a.9.9,0,0,1-.9-.9h0A.9.9,0,0,1,217.9,185.5Z"/><path class="p" d="M201.1,181.8h0a.9.9,0,0,1,.9.9h0a.9.9,0,0,1-.9.9h0a.9.9,0,0,1-.9-.9h0A.9.9,0,0,1,201.1,181.8Z"/><path class="c" d="M203.3,185.5h0a.9.9,0,0,1,.9.9h0a.9.9,0,0,1-.9.9h0a.9.9,0,0,1-.9-.9h0A.9.9,0,0,1,203.3,185.5Z"/><path class="c" d="M219.4,181.8h0a.9.9,0,0,1,.9.9h0a.9.9,0,0,1-.9.9h0a.9.9,0,0,1-.9-.9h0A.9.9,0,0,1,219.4,181.8Z"/><path class="p" d="M221.6,185.5h0a.9.9,0,0,1,.9.9h0a.9.9,0,0,1-.9.9h0a.9.9,0,0,1-.9-.9h0A.9.9,0,0,1,221.6,185.5Z"/><path class="c" d="M204.8,181.8h0a.9.9,0,0,1,.9.9h0a.9.9,0,0,1-.9.9h0a.9.9,0,0,1-.9-.9h0A.9.9,0,0,1,204.8,181.8Z"/><path class="p" d="M207,185.5h0a.9.9,0,0,1,.9.9h0a.9.9,0,0,1-.9.9h0a.9.9,0,0,1-.9-.9h0A.9.9,0,0,1,207,185.5Z"/><path class="c" d="M223,181.8h0a.9.9,0,0,1,1,.9h0a.9.9,0,0,1-1,.9h0a.9.9,0,0,1-.9-.9h0A.9.9,0,0,1,223,181.8Z"/><path class="c" d="M225.2,185.5h0a1,1,0,0,1,1,.9h0a1,1,0,0,1-1,.9h0a.9.9,0,0,1-.9-.9h0A.9.9,0,0,1,225.2,185.5Z"/><path class="c" d="M208.4,181.8h0a1,1,0,0,1,1,.9h0a1,1,0,0,1-1,.9h0a.9.9,0,0,1-.9-.9h0A.9.9,0,0,1,208.4,181.8Z"/><path class="c" d="M210.6,185.5h0a.9.9,0,0,1,.9.9h0a.9.9,0,0,1-.9.9h0a.9.9,0,0,1-.9-.9h0A.9.9,0,0,1,210.6,185.5Z"/><path class="c" d="M226.7,181.8h0a.9.9,0,0,1,.9.9h0a.9.9,0,0,1-.9.9h0a.9.9,0,0,1-.9-.9h0A.9.9,0,0,1,226.7,181.8Z"/><path class="c" d="M228.9,185.5h0a.9.9,0,0,1,.9.9h0a.9.9,0,0,1-.9.9h0a.9.9,0,0,1-.9-.9h0A.9.9,0,0,1,228.9,185.5Z"/><rect class="q" x="177" y="181.8" width="5.6" height="5.84" rx="2.8"/><path class="m" d="M164.4,297.8h70.9a1.8,1.8,0,0,1,1.8,1.8v14.2a1.9,1.9,0,0,1-1.8,1.9H164.4a1.9,1.9,0,0,1-1.8-1.9V299.6A1.8,1.8,0,0,1,164.4,297.8Z"/><path class="n" d="M164.6,297.7h21v17.9h-21a2.5,2.5,0,0,1-2.5-2.5V300.3A2.6,2.6,0,0,1,164.6,297.7Z"/><rect class="o" x="168.8" y="304" width="5.6" height="5.84" rx="2.8"/><path class="c" d="M193.8,304h0a.9.9,0,0,1,.9.9h0a.9.9,0,0,1-.9.9h0a.9.9,0,0,1-.9-.9h0A.9.9,0,0,1,193.8,304Z"/><path class="c" d="M196,307.6h0a.9.9,0,0,1,.9.9h0a1,1,0,0,1-.9,1h0a1,1,0,0,1-.9-1h0A.9.9,0,0,1,196,307.6Z"/><path class="p" d="M212.1,304h0a.9.9,0,0,1,.9.9h0a.9.9,0,0,1-.9.9h0a.9.9,0,0,1-.9-.9h0A.9.9,0,0,1,212.1,304Z"/><path class="p" d="M214.3,307.6h0a.9.9,0,0,1,.9.9h0a1,1,0,0,1-.9,1h0a1,1,0,0,1-.9-1h0A.9.9,0,0,1,214.3,307.6Z"/><path class="c" d="M197.5,304h0a.9.9,0,0,1,.9.9h0a.9.9,0,0,1-.9.9h0a.9.9,0,0,1-.9-.9h0A.9.9,0,0,1,197.5,304Z"/><path class="p" d="M199.7,307.6h0a.9.9,0,0,1,.9.9h0a1,1,0,0,1-.9,1h0a1,1,0,0,1-.9-1h0A.9.9,0,0,1,199.7,307.6Z"/><path class="p" d="M215.7,304h0a1,1,0,0,1,1,.9h0a1,1,0,0,1-1,.9h0a.9.9,0,0,1-.9-.9h0A.9.9,0,0,1,215.7,304Z"/><path class="c" d="M217.9,307.6h0a.9.9,0,0,1,.9.9h0a1,1,0,0,1-.9,1h0a1,1,0,0,1-.9-1h0A.9.9,0,0,1,217.9,307.6Z"/><path class="c" d="M201.1,304h0a.9.9,0,0,1,.9.9h0a.9.9,0,0,1-.9.9h0a.9.9,0,0,1-.9-.9h0A.9.9,0,0,1,201.1,304Z"/><path class="c" d="M203.3,307.6h0a.9.9,0,0,1,.9.9h0a1,1,0,0,1-.9,1h0a1,1,0,0,1-.9-1h0A.9.9,0,0,1,203.3,307.6Z"/><path class="c" d="M219.4,304h0a.9.9,0,0,1,.9.9h0a.9.9,0,0,1-.9.9h0a.9.9,0,0,1-.9-.9h0A.9.9,0,0,1,219.4,304Z"/><path class="p" d="M221.6,307.6h0a.9.9,0,0,1,.9.9h0a1,1,0,0,1-.9,1h0a1,1,0,0,1-.9-1h0A.9.9,0,0,1,221.6,307.6Z"/><path class="c" d="M204.8,304h0a.9.9,0,0,1,.9.9h0a.9.9,0,0,1-.9.9h0a.9.9,0,0,1-.9-.9h0A.9.9,0,0,1,204.8,304Z"/><path class="c" d="M207,307.6h0a.9.9,0,0,1,.9.9h0a1,1,0,0,1-.9,1h0a1,1,0,0,1-.9-1h0A.9.9,0,0,1,207,307.6Z"/><path class="c" d="M223,304h0a.9.9,0,0,1,1,.9h0a.9.9,0,0,1-1,.9h0a.9.9,0,0,1-.9-.9h0A.9.9,0,0,1,223,304Z"/><path class="c" d="M225.2,307.6h0a1,1,0,0,1,1,.9h0a1.1,1.1,0,0,1-1,1h0a1,1,0,0,1-.9-1h0A.9.9,0,0,1,225.2,307.6Z"/><path class="c" d="M208.4,304h0a1,1,0,0,1,1,.9h0a1,1,0,0,1-1,.9h0a.9.9,0,0,1-.9-.9h0A.9.9,0,0,1,208.4,304Z"/><path class="c" d="M210.6,307.6h0a.9.9,0,0,1,.9.9h0a1,1,0,0,1-.9,1h0a1,1,0,0,1-.9-1h0A.9.9,0,0,1,210.6,307.6Z"/><path class="c" d="M226.7,304h0a.9.9,0,0,1,.9.9h0a.9.9,0,0,1-.9.9h0a.9.9,0,0,1-.9-.9h0A.9.9,0,0,1,226.7,304Z"/><path class="c" d="M228.9,307.6h0a.9.9,0,0,1,.9.9h0a1,1,0,0,1-.9,1h0a1,1,0,0,1-.9-1h0A.9.9,0,0,1,228.9,307.6Z"/><rect class="q" x="177" y="304" width="5.6" height="5.84" rx="2.8"/><path class="m" d="M164.4,200h70.9a1.8,1.8,0,0,1,1.8,1.9v14.2a1.8,1.8,0,0,1-1.8,1.8H164.4a1.8,1.8,0,0,1-1.8-1.8V201.9A1.8,1.8,0,0,1,164.4,200Z"/><path class="n" d="M164.6,200h21v17.9h-21a2.5,2.5,0,0,1-2.5-2.6V202.6A2.6,2.6,0,0,1,164.6,200Z"/><rect class="o" x="168.8" y="206.2" width="5.6" height="5.84" rx="2.8"/><path class="c" d="M193.8,206.2h0a.9.9,0,0,1,.9.9h0a.9.9,0,0,1-.9,1h0a.9.9,0,0,1-.9-1h0A.9.9,0,0,1,193.8,206.2Z"/><path class="c" d="M196,209.9h0a.9.9,0,0,1,.9.9h0a.9.9,0,0,1-.9.9h0a.9.9,0,0,1-.9-.9h0A.9.9,0,0,1,196,209.9Z"/><path class="c" d="M212.1,206.2h0a.9.9,0,0,1,.9.9h0a.9.9,0,0,1-.9,1h0a.9.9,0,0,1-.9-1h0A.9.9,0,0,1,212.1,206.2Z"/><path class="c" d="M214.3,209.9h0a.9.9,0,0,1,.9.9h0a.9.9,0,0,1-.9.9h0a.9.9,0,0,1-.9-.9h0A.9.9,0,0,1,214.3,209.9Z"/><path class="p" d="M197.5,206.2h0a.9.9,0,0,1,.9.9h0a.9.9,0,0,1-.9,1h0a.9.9,0,0,1-.9-1h0A.9.9,0,0,1,197.5,206.2Z"/><path class="c" d="M199.7,209.9h0a.9.9,0,0,1,.9.9h0a.9.9,0,0,1-.9.9h0a.9.9,0,0,1-.9-.9h0A.9.9,0,0,1,199.7,209.9Z"/><path class="p" d="M215.7,206.2h0a1,1,0,0,1,1,.9h0a1,1,0,0,1-1,1h0a.9.9,0,0,1-.9-1h0A.9.9,0,0,1,215.7,206.2Z"/><path class="c" d="M217.9,209.9h0a.9.9,0,0,1,.9.9h0a.9.9,0,0,1-.9.9h0a.9.9,0,0,1-.9-.9h0A.9.9,0,0,1,217.9,209.9Z"/><path class="p" d="M201.1,206.2h0a.9.9,0,0,1,.9.9h0a.9.9,0,0,1-.9,1h0a.9.9,0,0,1-.9-1h0A.9.9,0,0,1,201.1,206.2Z"/><path class="c" d="M203.3,209.9h0a.9.9,0,0,1,.9.9h0a.9.9,0,0,1-.9.9h0a.9.9,0,0,1-.9-.9h0A.9.9,0,0,1,203.3,209.9Z"/><path class="c" d="M219.4,206.2h0a.9.9,0,0,1,.9.9h0a.9.9,0,0,1-.9,1h0a.9.9,0,0,1-.9-1h0A.9.9,0,0,1,219.4,206.2Z"/><path class="c" d="M221.6,209.9h0a.9.9,0,0,1,.9.9h0a.9.9,0,0,1-.9.9h0a.9.9,0,0,1-.9-.9h0A.9.9,0,0,1,221.6,209.9Z"/><path class="c" d="M204.8,206.2h0a.9.9,0,0,1,.9.9h0a.9.9,0,0,1-.9,1h0a.9.9,0,0,1-.9-1h0A.9.9,0,0,1,204.8,206.2Z"/><path class="c" d="M207,209.9h0a.9.9,0,0,1,.9.9h0a.9.9,0,0,1-.9.9h0a.9.9,0,0,1-.9-.9h0A.9.9,0,0,1,207,209.9Z"/><path class="c" d="M223,206.2h0a.9.9,0,0,1,1,.9h0a.9.9,0,0,1-1,1h0a.9.9,0,0,1-.9-1h0A.9.9,0,0,1,223,206.2Z"/><path class="c" d="M225.2,209.9h0a1,1,0,0,1,1,.9h0a1,1,0,0,1-1,.9h0a.9.9,0,0,1-.9-.9h0A.9.9,0,0,1,225.2,209.9Z"/><path class="c" d="M208.4,206.2h0a1,1,0,0,1,1,.9h0a1,1,0,0,1-1,1h0a.9.9,0,0,1-.9-1h0A.9.9,0,0,1,208.4,206.2Z"/><path class="p" d="M210.6,209.9h0a.9.9,0,0,1,.9.9h0a.9.9,0,0,1-.9.9h0a.9.9,0,0,1-.9-.9h0A.9.9,0,0,1,210.6,209.9Z"/><path class="p" d="M226.7,206.2h0a.9.9,0,0,1,.9.9h0a.9.9,0,0,1-.9,1h0a.9.9,0,0,1-.9-1h0A.9.9,0,0,1,226.7,206.2Z"/><path class="p" d="M228.9,209.9h0a.9.9,0,0,1,.9.9h0a.9.9,0,0,1-.9.9h0a.9.9,0,0,1-.9-.9h0A.9.9,0,0,1,228.9,209.9Z"/><rect class="q" x="177" y="206.2" width="5.6" height="5.84" rx="2.8"/><path class="s" d="M166.8,107.7h91.7c-.5,9.9,0,14.6,0,18,0,24.2,13.3,19.1-.8,32.9-27.7,27.4-53.1,53.9-96.6,99.1-3.2,0,0-25.6,0-143.8A6,6,0,0,1,166.8,107.7Z"/><path class="t" d="M159,107.7h98.2c10.3,0,1.8,6.5,1.7,11.9-.1,7.1,4.6,14.4,0,18.7-35.2,33.7-56.2,55.5-109.8,111.2-3.2,0,4.1-17.4,4.1-135.6A6,6,0,0,1,159,107.7Z"/><path class="u" d="M168.3,107.6h89.1a4.2,4.2,0,0,1,3.9,4.2c-36.6,36.3-52.7,51.4-97,97.3-2.1,0,0-17.3,0-97.3A4.2,4.2,0,0,1,168.3,107.6Z"/><path class="v" d="M262.4,331.6a7.6,7.6,0,0,1-7.6,7.7H153.4a10.2,10.2,0,0,1-10.2-10.2h0V92.8a10.2,10.2,0,0,1,10.2-10.2h99.7a9,9,0,0,1,3.6.8,9.3,9.3,0,0,1,3,2.2,9.6,9.6,0,0,1,2,3.2,11.2,11.2,0,0,1,.7,4ZM172.5,110.2a7.7,7.7,0,0,0-7.7,7.7h0V304a7.8,7.8,0,0,0,7.7,7.7h75.6a7.7,7.7,0,0,0,7.6-7.7V117.9a7.6,7.6,0,0,0-7.6-7.7H172.5Z"/><path class="w" d="M149.9,237.8V208.5a5,5,0,0,1,5-5h0a5,5,0,0,1,5,5v29.3a5,5,0,0,1-5,5h0A5,5,0,0,1,149.9,237.8Z"/><path class="i" d="M149.4,237.8V208.5a5,5,0,0,1,5-5h0a5,5,0,0,1,5.1,5v29.3a5,5,0,0,1-5.1,5h0A5,5,0,0,1,149.4,237.8Z"/><rect class="b" x="154.5" y="215.8" width="2.9" height="13.81" rx="1.4"/><path class="x" d="M68.3,312.4s-3.6-23.8-18.2-41,14-21.6,16.4-42,29.2,31.8,7.5,63S68.3,312.4,68.3,312.4Z"/><path class="y" d="M67.9,331.4S66.6,303.1,93,293.2s10.1-28.4,13.5-37.9-42.3,10-40.5,53.2S67.9,331.4,67.9,331.4Z"/><path class="z" d="M69.9,336s1.1-23.3-20.6-31.4S41,281.2,38.2,273.4s34.8,8.2,33.3,43.8S69.9,336,69.9,336Z"/><path class="aa" d="M49.8,312.4H84.5L81.7,348H52.6Z"/><path class="ab" d="M67.9,285.5s12.8-30.3,2.8-50.1"/><path class="ab" d="M72.5,304.6s6.8-32.9,27.6-43.9"/><path class="ac" d="M79.8,292.7s2.5-3.8,9.8-4.2"/><path class="ac" d="M67.4,272.3s-.7-3.8-6.4-6.5"/><path class="ac" d="M84.7,282.7s5.5-6.4,11.5-7.1"/><path class="ac" d="M66.9,262.9s-2.2-6.9-6.7-9.5"/><path class="ad" d="M304.6,175.4c-3.8,6.6-16.9-2.5-23-7.3s-22.7-20.4-22.7-20.4l4.8-7a207.4,207.4,0,0,1,36.9,20C302.5,161.9,308.5,168.6,304.6,175.4Z"/><path class="q" d="M357.9,364.7s-4.8,8.9-4,10.8,4,4.6,9,3.8,9.1-5.3,10-5.6-.4-12.5-.4-12.5Z"/><path class="ad" d="M314.5,119.9c7,.8,8.4,6.9,7.1,13.7s-15,40.4-17,41.4-11.9-1.4-12.5-4.6,6.7-33.5,8.8-38.9S306.3,118.9,314.5,119.9Z"/><path class="ae" d="M310.8,118.3c-2.5,1-8.1,4.3-11.7,14.6-2.4,6.8-6.7,20-6.7,20a24.8,24.8,0,0,0,10,5.7c7.1,2.2,12.1.6,12.1.6s9.6-27.3,8.6-33.1C322.8,124.3,317.8,115.5,310.8,118.3Z"/><path class="af" d="M334.3,91.4s4.7,19,5.9,20c3.7,3,17,5.6,19.5,10.9s-13.5,35.5-15.6,45.1,2.4,24.5,3.8,33.9-28.1,20.9-29.2,20.9-10.6-8.9-12.4-12-.1-27.2-.1-33.3-1.5-27.8-1.8-29.2a41.4,41.4,0,0,1,.9-18.8c.4-2,.2-5.3,1.2-6.6s13.1-5.9,13.3-7.2,1.6-18.9,1.6-18.9Z"/><path class="c" d="M340.2,111.4l-11.5,6.8a6.1,6.1,0,0,1-8.9-3.1h0s-11.7,3.7-13.2,6.2-2.3,9-2.8,11.1-.8,11.4.1,19.6c.4,4.8.3,11.1,1.1,19.2s-.1,24.4-.1,24.4,6.6.2,17-.3c11.9-.6,23.9-2.5,24.5-2.9,2.3-1.9-.9-20.4-.5-22.4s15-37.6,15.2-42.2-1.6-7.9-5.1-9.6S340.2,111.4,340.2,111.4Z"/><path class="ae" d="M353.7,117.5s11.6,6.4.1,15.4c-5,3.8-28.8,9.9-33.3,11.2-16,5,8.8,40.5,10.7,43.1a12.6,12.6,0,0,1,1.9,6.4l15.4-1.8c4.8.9-2.6-22-.8-27s13.4-33.3,13.4-37A10.5,10.5,0,0,0,353.7,117.5Z"/><polygon class="ad" points="320.6 107.3 334.8 93.1 339.3 108 333.7 111.4 320.6 107.3"/><path class="af" d="M305.9,76.2c3-5.4,14.5-13.2,23.5-6.9s8.9,15.4,7.3,21.6-3.2,7.9-7.5,11.8c-.8.9-9.6,5.6-11.7,5.5s-5.5-9-5.9-8.8a1.6,1.6,0,0,1-1.8-.8c-.5-1.1-1.5-8.1-2-8.7S302.4,82.3,305.9,76.2Z"/><rect class="q" x="319.4" y="365.3" width="11.5" height="2.16" transform="translate(650.3 732.8) rotate(180)"/><path class="q" d="M330.5,350.1a20.1,20.1,0,0,1,2.6,8.1c.2,2.3-1.1,7.1-2.6,7.1a112.1,112.1,0,0,0-14.1.8c-4.5.6-6.2,3.2-17.7,3.2-3.4,0-9.3-.2-9.3-1.6,0-6,11-3.9,14.5-7.1,8.9-8.2,14.8-10.1,14.8-10.1S330.1,349.7,330.5,350.1Z"/><path class="ag" d="M325,192.8s15.4,15.4,16.1,22.1-5.8,28.1-8.1,45-3.7,20.3-3.1,24.3,5,20.1,4.9,30.8c-.2,12.6.5,38.3.5,38.3s-3.4,2.6-12,2.5c-5.6,0-10.4-3.9-10.4-3.9s-3.4-63-4.1-69.7c-.5-4.2-4-33.8-5.1-57.9-.3-7.8,1.5-29.9,1.5-33.1Z"/><path class="ah" d="M348.9,191.7s6.2,15.1,8.6,25.2,5.4,62.2,6.2,67.1,4,19.9,6.4,34.7,3.7,44.6,3.7,44.6l-18.9,2.9s-11.3-62.4-13.1-72.2-20.6-79.3-20.6-79.3l-2.3-22.4Z"/><path class="ag" d="M348.3,234.3c1.6,6.7,6.3,52.1,6.6,54.6s12.2,72.1,12.7,75.3l6.2-.9s-1.4-29.8-3.7-44.6-5.5-29.8-6.4-34.7-3.7-57.1-6.2-67.1-8.6-25.2-8.6-25.2l-16.6.5S346.7,227.7,348.3,234.3Z"/><path class="ai" d="M349.4,191.7l-31,.5c-1.7.1-13.2-1-13.2-1l-.3,4.6s11.2.9,16.5.9,29-1.2,29-1.2Z"/><rect class="aj" x="314.2" y="192" width="7.4" height="5.33" rx="0.4" transform="translate(635.9 389.3) rotate(180)"/><path class="af" d="M348,120.6c5.2-4.8,10.6-2.1,14.9,3.1s23.7,40.9,23.2,43.1-8.7,8.1-11.5,6.6-23.9-30.3-26.6-35.2S342,126.3,348,120.6Z"/><path class="c" d="M344.5,125.6c-.6,2.6-1,8.9,2.2,12.9,4.6,5.5,15.7,21,15.7,21a24.1,24.1,0,0,0,10.4-4.8c5.8-4.7,7.4-9.7,7.4-9.7s-17.1-22.9-22.2-26S346.2,118.3,344.5,125.6Z"/><path class="af" d="M384.8,164.9c5.7,5.2-5.9,16-11.9,21s-24.8,17.8-24.8,17.8l-5.8-6.1a207,207,0,0,1,27.3-31.9C371.2,164.2,379,159.7,384.8,164.9Z"/><path class="af" d="M338.4,215.1h0a1.5,1.5,0,0,1-.3-2.1l3.7-5.1a1.5,1.5,0,0,1,2.1-.3h0a1.3,1.3,0,0,1,.3,2l-3.7,5.2A1.6,1.6,0,0,1,338.4,215.1Z"/><path class="af" d="M336,213.7h0a1.6,1.6,0,0,1-.4-2.1l3.8-5.2a1.6,1.6,0,0,1,2.1-.3h0a1.5,1.5,0,0,1,.3,2.1l-3.7,5.1A1.6,1.6,0,0,1,336,213.7Z"/><path class="af" d="M333.7,212.1h0a1.6,1.6,0,0,1-.3-2.1l3.8-5.1a1.3,1.3,0,0,1,2-.3h0a1.6,1.6,0,0,1,.4,2.1l-3.8,5.1A1.5,1.5,0,0,1,333.7,212.1Z"/><path class="af" d="M331.7,210.4h0a1.5,1.5,0,0,1-.3-2.1l3.7-5.1a1.5,1.5,0,0,1,2.1-.3h0a1.5,1.5,0,0,1,.3,2.1l-3.7,5.1A1.5,1.5,0,0,1,331.7,210.4Z"/><path class="af" d="M346.5,193.4s-9.1,5.3-10.5,6.8-4.9,8.8-4.9,8.8,3.6-.4,4.9.9,4.5,4.9,4.5,4.9,5.4-4.4,7.2-7.1a36.5,36.5,0,0,0,2.8-5.9Z"/><polygon class="ak" points="232.3 119 247 112.6 267.5 154.4 254.7 161.8 232.3 119"/><polygon class="al" points="234.7 120.1 247.4 114.6 264.7 150.1 253.7 156.4 234.7 120.1"/><rect class="am" x="237.3" y="114.6" width="7.7" height="3.87" rx="0.2" transform="translate(-26.3 102.3) rotate(-22.7)"/><rect class="am" x="239.1" y="113.7" width="2.8" height="2.69" rx="0.1" transform="translate(-25.8 101.8) rotate(-22.7)"/><path class="ad" d="M263.7,140.7a34.2,34.2,0,0,0-2.4-6.3c-1.2-1.8-4-2.9-4.4-3.1a4.8,4.8,0,0,1-2.3-1.7c-.3-.6-1.4-1.4-1.6-.2s.9,3.4,2.1,4.1,2.8,1.4,3.5,2.9,3.4,6.9,3.4,6.9Z"/><path class="an" d="M321.7,75.6c-16.4,13.2-24.1,3.1-17.7-7.2,4.1-6.1,9.2-9.2,14.8-10.1-.4,5.2.1,9.9,4,7.5,7.9-3.6,13.5.7,17.3,10.2,7.5,16.8-5.7,19.1-8.3,12.3,5.9-7.5-5.2-12.1-2.8-4.1C324.9,88.1,322.8,83.8,321.7,75.6Z"/></svg>