<svg xmlns="http://www.w3.org/2000/svg" xmlns:xlink="http://www.w3.org/1999/xlink" viewBox="0 0 400 400"><defs><style>.a{fill:none;}.b{isolation:isolate;}.c{fill:url(#a);}.d{font-size:35.56px;font-family:YekanBakh-Bold, YekanBakh Bold;font-weight:700;}.d,.k{fill:#fff;}.e{mix-blend-mode:lighten;}.f{fill:#21e2e2;}.g{fill:#4ea4f9;}.h{fill:url(#b);}.i{fill:#0050af;}.j{fill:#267cd1;}.l{fill:#2842a2;}.m{fill:#63b4f7;}.n{fill:#2ba0ef;}.o{opacity:0.11;}.p{clip-path:url(#c);}.q{fill:url(#d);}.r{fill:url(#e);}.s{fill:#9198db;}.t{fill:#adb1f2;}.u{fill:#24126a;}.v{fill:#00c1bc;}.w{fill:#4987ce;}</style><linearGradient id="a" x1="-2764.35" y1="400.34" x2="-2764.35" y2="401.01" gradientTransform="matrix(740.56, 0, 0, -612.51, 2047381.34, 245617.49)" gradientUnits="userSpaceOnUse"><stop offset="0" stop-color="#c6e6ff"/><stop offset="1" stop-color="#fff"/></linearGradient><linearGradient id="b" x1="-5753.21" y1="196.63" x2="-5729.68" y2="196.63" gradientTransform="matrix(-1, 0, 0, 1, -5452.19, 0)" gradientUnits="userSpaceOnUse"><stop offset="0" stop-color="#5761d7"/><stop offset="0.18" stop-color="#5c66d9"/><stop offset="0.39" stop-color="#6a73df"/><stop offset="0.61" stop-color="#8289e8"/><stop offset="0.85" stop-color="#a3a7f5"/><stop offset="1" stop-color="#bcbeff"/></linearGradient><clipPath id="c"><polygon class="a" points="180.5 87.3 294.9 153.3 280.7 236.9 166.4 170.9 180.5 87.3"/></clipPath><linearGradient id="d" x1="-5743.81" y1="186.76" x2="-5550.15" y2="186.76" gradientTransform="matrix(-1, 0, 0, 1, -5452.19, 0)" gradientUnits="userSpaceOnUse"><stop offset="0" stop-color="#c0bff6"/><stop offset="0.29" stop-color="#c5c4f7"/><stop offset="0.64" stop-color="#d3d2f9"/><stop offset="1" stop-color="#e9e9fd"/></linearGradient><linearGradient id="e" x1="-5756.55" y1="172.54" x2="-5706.98" y2="172.54" xlink:href="#d"/></defs><title>windows vps</title><g class="b"><path class="c" d="M202.5,54.4c63.7,40.6,136.7,58.9,136.7,58.9S419.5,125.5,390,217s-33.4,124.2-79.7,126.5c-44,1.3-68.6-16.8-112.1-13.7-38.1,2.9-64.4,20.1-128.2-5C-32.2,279.6-24.6-88.9,202.5,54.4Z"/><text class="d" transform="translate(182.8 -40.6)">زودنیو یزاجم روس*</text><g class="e"><path class="f" d="M207.1,309.4a11,11,0,0,1-5.3-1.4h0L95.2,246.5a3.2,3.2,0,0,1,0-5.4L162,202.6h.6L274.2,267a3.2,3.2,0,0,1,0,5.4L212.5,308A11.1,11.1,0,0,1,207.1,309.4Zm-4.7-2.4a10,10,0,0,0,9.5,0l61.7-35.7a1.9,1.9,0,0,0,0-3.2L162.3,203.9h-.2L95.8,242.2a1.9,1.9,0,0,0,0,3.2Z"/></g><path class="g" d="M164,170l14.9-88.1-1.2-.5,1.8-1h-.1a1.4,1.4,0,0,1,1.4.1L299.5,149a3.4,3.4,0,0,1,1.5,3l-15,88.8a1,1,0,0,1-.6.9h0l-1.7,1-.3-1.6h.1L165.5,173A3.3,3.3,0,0,1,164,170Z"/><path class="h" d="M298.8,151.4l2-.8a2.4,2.4,0,0,1,.2,1.4l-15,88.8a1,1,0,0,1-.6.9h0l-1.7,1-.3-1.6h.1l-6-3.4Z"/><path class="i" d="M163.7,174.1l118.6,68.5c.9.5,1.7.2,1.9-.7l14.9-88.8a3.1,3.1,0,0,0-1.5-3L179,81.6c-.9-.5-1.7-.2-1.9.7l-15,88.8A3.5,3.5,0,0,0,163.7,174.1Z"/><polygon class="i" points="180.5 87.3 294.9 153.3 280.7 236.9 166.4 170.9 180.5 87.3"/><path class="j" d="M89.1,216.1l6.5,3.4L160.5,182a4.8,4.8,0,0,1,4.2.2l112,64.6,6-2.9-2.4,6.2h0a1.3,1.3,0,0,1-.7.8l-68.3,39.5a5,5,0,0,1-4.3-.2L92.4,223.9a1.7,1.7,0,0,1-.9-1h0Z"/><path class="g" d="M90.1,217.2,207.5,285a5.2,5.2,0,0,0,4.4.2L282,244.7c1.1-.6.9-1.8-.4-2.5L164.2,174.4a5,5,0,0,0-4.3-.2L89.8,214.7C88.7,215.3,88.8,216.4,90.1,217.2Z"/><path class="k" d="M90.1,216.5l117.4,67.8a5.2,5.2,0,0,0,4.4.2L282,244a1.9,1.9,0,0,0,.6-.7,1.1,1.1,0,0,1-.6,1.4l-70.1,40.5a5.2,5.2,0,0,1-4.4-.2L90.1,217.2c-.8-.5-1.2-1.2-1-1.8A2.6,2.6,0,0,0,90.1,216.5Z"/><path class="l" d="M243,270.3V269c0-.1-.1-.2-.2-.1l-4.5,2.6c-.1.1-.2.2-.2.3v1.3c0,.1.1.2.2.1l4.5-2.6C242.9,270.6,243,270.4,243,270.3Z"/><path class="l" d="M236.2,274.2v-1.3H236l-4.5,2.6a.5.5,0,0,0-.2.4V277c0,.2.1.2.2.2l4.5-2.7C236.1,274.5,236.2,274.3,236.2,274.2Z"/><path class="m" d="M263.7,240.9l-97.6-56.3a2,2,0,0,0-2.1,0l-34.7,20.1a.8.8,0,0,0,0,1.3l97.5,56.3a2,2,0,0,0,2.1,0l34.8-20.1A.8.8,0,0,0,263.7,240.9Z"/><path class="n" d="M263.7,242.2l-.4.2-97.2-56.1a2,2,0,0,0-2.1,0l-34.4,19.9-.3-.2a.8.8,0,0,1,0-1.3L164,184.6a2,2,0,0,1,2.1,0l97.6,56.3A.8.8,0,0,1,263.7,242.2Z"/><polygon class="i" points="161.4 189.7 246.1 238.6 249.9 236.4 165.2 187.5 161.4 189.7"/><polygon class="i" points="152.1 195 231.6 240.9 235.4 238.7 155.9 192.8 152.1 195"/><polygon class="i" points="146.1 198.5 239.7 252.5 243.5 250.3 149.9 196.3 146.1 198.5"/><polygon class="i" points="140.1 201.9 233.7 256 237.5 253.8 143.9 199.8 140.1 201.9"/><polygon class="i" points="134.1 205.4 227.7 259.5 231.5 257.3 137.9 203.2 134.1 205.4"/><polygon class="i" points="251.3 241.6 255 243.7 258.8 241.6 255 239.4 251.3 241.6"/><polygon class="i" points="238 244.5 245.8 249.1 249.6 246.9 241.7 242.4 238 244.5"/><path class="m" d="M162.4,254.5,136,239.3c-1-.5-1-1.5,0-2.1l18-10.4a4.2,4.2,0,0,1,3.8,0L184.1,242a1.2,1.2,0,0,1,0,2.2l-18,10.3A4,4,0,0,1,162.4,254.5Z"/><path class="n" d="M184.1,242.9l-26.3-15.2a4.2,4.2,0,0,0-3.8,0l-18,10.4-.6.6c-.3-.5-.1-1.1.6-1.5l18-10.4a4.2,4.2,0,0,1,3.8,0L184.1,242c.7.4.9,1,.6,1.5A1.7,1.7,0,0,0,184.1,242.9Z"/><g class="o"><g class="p"><path class="q" d="M164.1,174.3,281.5,242a4.6,4.6,0,0,0,4.4.2l70-40.4c1.2-.7,1-1.8-.3-2.5L238.2,131.5a4.4,4.4,0,0,0-4.3-.2l-70.1,40.4C162.7,172.4,162.8,173.5,164.1,174.3Z"/><path class="r" d="M281.9,186.4l-26.3-15.2c-1.1-.6-1.1-1.5,0-2.1l18-10.4a4,4,0,0,1,3.7,0l26.3,15.2c1,.6,1,1.5,0,2.1l-18,10.4A4,4,0,0,1,281.9,186.4Z"/><path class="s" d="M303.6,174.7l-26.3-15.1a4,4,0,0,0-3.7,0l-18,10.3a1.5,1.5,0,0,0-.7.7c-.3-.5,0-1.1.7-1.5l18-10.4a4,4,0,0,1,3.7,0l26.3,15.2c.7.4.9,1,.6,1.5A1.9,1.9,0,0,0,303.6,174.7Z"/><path class="t" d="M315.2,210.1l-97.6-56.3a2,2,0,0,0-2.1,0l-34.8,20.1a.8.8,0,0,0,0,1.3l97.6,56.3a2,2,0,0,0,2.1,0l34.8-20.1A.7.7,0,0,0,315.2,210.1Z"/><path class="s" d="M315.2,211.4l-.4.2-97.2-56.1a2,2,0,0,0-2.1,0l-34.4,19.9-.4-.2a.8.8,0,0,1,0-1.3l34.8-20.1a2,2,0,0,1,2.1,0l97.6,56.3A.7.7,0,0,1,315.2,211.4Z"/><polygon class="u" points="189.8 172.5 274.8 221.6 271.5 223.6 186.5 174.5 189.8 172.5"/><polygon class="u" points="198.8 167.4 279.6 214 276.2 216 195.4 169.3 198.8 167.4"/><polygon class="u" points="285.6 217.5 293.2 221.9 289.8 223.8 282.2 219.4 285.6 217.5"/><polygon class="u" points="278.9 224 284.2 227 280.8 229 275.6 225.9 278.9 224"/><polygon class="u" points="204.4 164.1 298.8 218.6 295.4 220.6 201 166.1 204.4 164.1"/><polygon class="u" points="210 160.9 304.4 215.4 301 217.3 206.6 162.8 210 160.9"/><polygon class="u" points="215.6 157.7 310 212.1 306.6 214.1 212.3 159.6 215.6 157.7"/></g></g><path class="f" d="M226.7,151.3l15.1,2.8.2.3h0l-4.7,13.5h-.2l-14.2-7.4v-.2l3-8.4.2-.7h.7Z"/><path class="f" d="M217.2,149.4l7.6,1.5c.1,0,.1.1.1.2l-3.1,8.8h-.1l-7.3-3.8c-.1,0-.1-.1-.1-.2l2.3-6.2v-.4h.5Z"/><path class="f" d="M214.1,157l7.2,4c.1,0,.1.1.1.2l-3.1,8.9h-.2l-6.5-6.1v-.2l2.4-6.7Z"/><path class="f" d="M222.9,162l13.6,7.4c.2.1.2.2.2.4L232.2,183l-.2.4h-.3c-4.7-4.7-8.9-8.7-12.5-12.2-.1,0-.1-.1-.1-.2l3.2-9.2c.1-.1.2-.1.2,0l.4.2Z"/><path class="v" d="M223.7,160.9l3-8.7.3-.8h-1l-.2.7-3,8.4v.2l.9.5Z"/><path class="v" d="M215,156.4l2.3-6.5v-.4h-.7v.4l-2.3,6.2c0,.1,0,.2.1.2l.6.3Z"/><path class="w" d="M221.4,161h0Z"/><path class="v" d="M212.1,164.4l2.5-6.9h.1l-.6-.4H214l-2.4,6.7v.2a1.2,1.2,0,0,1,.5.5Z"/><path class="v" d="M219.9,171.8l3.3-9.5h.2l-.5-.2-.4-.2c0-.1-.1-.1-.2,0l-3.2,9.2c0,.1,0,.2.1.2l.7.7Z"/></g></svg>