<svg xmlns="http://www.w3.org/2000/svg" xmlns:xlink="http://www.w3.org/1999/xlink" viewBox="0 0 400 400"><defs><style>.a{isolation:isolate;}.b{font-size:38.64px;font-family:AdobeArabic-Regular, Adobe Arabic;}.as,.b,.k{fill:#fff;}.c{fill:url(#a);}.d{opacity:0.2;}.e{fill:#37b5e8;}.f,.h{fill:#0e71bb;}.g{fill:#005b9f;}.h,.t{opacity:0.8;}.i{fill:#024589;}.j,.x{opacity:0.35;}.l{opacity:0.25;}.l,.o,.q,.v,.x{mix-blend-mode:multiply;}.m{fill:#fca70c;}.n{fill:#b1affd;}.o{opacity:0.15;}.p{opacity:0.26;}.q{opacity:0.62;}.r{fill:#d5dbda;}.s{fill:#efefef;}.t{fill:url(#b);}.u{fill:#cfcfff;}.v{fill:#c4c3fc;opacity:0.55;}.w{fill:url(#c);}.x{fill:#5851bc;}.y{fill:#ffe7cb;}.z{fill:#f59b6b;}.aa{fill:#21e2e2;}.ab{fill:#152735;}.ac{fill:#1f364c;}.ad{fill:#ea8f68;}.ae{fill:#a4a4f7;}.af{fill:#0050af;}.ag{fill:#5e5dbb;}.ah{fill:#288ed9;}.ai{fill:#2283bf;}.aj{fill:#f2a181;}.ak{fill:#e9e6ff;}.al{opacity:0.22;}.am{fill:#1cb5b1;}.an{fill:#ffbe9d;}.ao{fill:#f0d2b9;}.ap{fill:#00c1bc;}.aq{fill:#4987ce;}.ar{fill:url(#d);}.as{opacity:0.57;mix-blend-mode:overlay;}.at{fill:url(#e);}.au{fill:url(#f);}.av{fill:url(#g);}.aw{fill:url(#h);}.ax{fill:url(#i);}.ay{fill:#28aae1;}</style><linearGradient id="a" x1="19.18" y1="209.59" x2="386.17" y2="209.59" gradientUnits="userSpaceOnUse"><stop offset="0" stop-color="#c6e6ff"/><stop offset="1" stop-color="#fff"/></linearGradient><linearGradient id="b" x1="160.97" y1="170.72" x2="283.41" y2="170.72" gradientUnits="userSpaceOnUse"><stop offset="0" stop-color="#3d7ce6"/><stop offset="0.17" stop-color="#4989e8"/><stop offset="0.48" stop-color="#67aaef"/><stop offset="0.89" stop-color="#98dff9"/><stop offset="1" stop-color="#a6eefc"/></linearGradient><linearGradient id="c" x1="130.93" y1="185.72" x2="253.37" y2="185.72" gradientUnits="userSpaceOnUse"><stop offset="0" stop-color="#419ee3"/><stop offset="1" stop-color="#0d79c9"/></linearGradient><linearGradient id="d" x1="-6533.71" y1="-2219.51" x2="-6553.63" y2="-2254.02" gradientTransform="matrix(-1, 0.06, -0.06, -1, -6361.98, -1541.46)" gradientUnits="userSpaceOnUse"><stop offset="0" stop-color="#ffbc98"/><stop offset="1" stop-color="#ff9f6c"/></linearGradient><linearGradient id="e" x1="455.82" y1="-143.44" x2="470.36" y2="-134.67" gradientTransform="translate(-154.5 367.5) rotate(7.1)" xlink:href="#c"/><linearGradient id="f" x1="412.03" y1="-24.37" x2="385.71" y2="-69.97" gradientTransform="translate(-117.2 289.1) rotate(5.5)" xlink:href="#d"/><linearGradient id="g" x1="421.32" y1="-35.73" x2="390.81" y2="-88.57" gradientTransform="translate(-117.2 289.1) rotate(5.5)" xlink:href="#c"/><linearGradient id="h" x1="492.57" y1="-121.41" x2="469.62" y2="-161.14" gradientTransform="matrix(0.99, 0.16, -0.16, 0.99, -190.89, 338.23)" gradientUnits="userSpaceOnUse"><stop offset="0" stop-color="#44989f"/><stop offset="0.21" stop-color="#39b0b4"/><stop offset="0.52" stop-color="#2ccbcd"/><stop offset="0.8" stop-color="#24dcdd"/><stop offset="1" stop-color="#21e2e2"/></linearGradient><linearGradient id="i" x1="303" y1="303.95" x2="303" y2="387.61" gradientTransform="matrix(1, 0, 0, 1, 0, 0)" xlink:href="#d"/></defs><title>windows dedicated server</title><g class="a"><text class="b" transform="translate(83.8 -46.2)">زودنیو یصاصتخا روس *</text><path class="c" d="M383.2,237.4c-6.4-17.7-16.4-23-25.9-34.4-11.6-13.9-19.4-24-16.4-41.8,4.9-29.1,7-101.8-70.1-92.3-27.7,3.4-49.5,24.6-65.4,45.7-13.6,18-37.9,19.6-57.5,23.8-24.1,5.2-48.6,13-70.9,24.4-45.8,23.5-59.5,57.3-57.7,100.5.6,13.1,2.5,33.6,24.5,57.7,29.8,32.5,73.1,36.9,125.2,21.9,11.9-3.4,23.2-8.7,34.9-12.8a162.6,162.6,0,0,1,37.7-8.1c29.9-2.9,60.9,2.3,89.6-6.6a95.4,95.4,0,0,0,40.1-24.9C385,276.1,389.9,256.1,383.2,237.4Z"/><g class="d"><path class="e" d="M87.6,302.6c0,4.8,54.2,8.7,121.1,8.7s121-3.9,121-8.7-54.2-8.7-121-8.7S87.6,297.8,87.6,302.6Z"/></g><rect class="f" x="179.9" y="281.9" width="53.6" height="14.43"/><rect class="g" x="114" y="152.8" width="185.9" height="133.78" rx="7.8"/><rect class="h" x="119.2" y="157.7" width="175" height="116.06" rx="4.8"/><path class="i" d="M162.9,295h87.6a6.1,6.1,0,0,1,6.1,6.1v3a0,0,0,0,1,0,0H156.8a0,0,0,0,1,0,0v-3A6.1,6.1,0,0,1,162.9,295Z"/><g class="j"><rect class="k" x="161" y="165.7" width="122.4" height="82.3" rx="5.4"/></g><g class="l"><rect class="m" x="172.6" y="225.8" width="5.3" height="13.39"/><rect class="n" x="184.6" y="214.1" width="5.3" height="25.15"/><rect class="m" x="196.6" y="216.7" width="5.3" height="22.55"/><rect class="n" x="208.7" y="203.9" width="5.3" height="35.27"/><g class="o"><rect class="p" x="184.6" y="214.1" width="2.4" height="25.15"/></g><g class="o"><rect class="p" x="172.6" y="225.8" width="2.4" height="13.39"/></g><g class="q"><rect class="p" x="208.7" y="203.9" width="2.4" height="35.27"/></g><g class="o"><rect class="p" x="196.6" y="216.7" width="2.4" height="22.55"/></g><polygon class="r" points="216.8 242.9 169.1 242.9 169.1 192.1 169.8 192.1 169.8 242.2 216.8 242.2 216.8 242.9"/><polygon class="r" points="174 219.5 173.5 219 186 207.8 197.6 210.3 210.1 196.4 210.6 196.8 197.8 211.1 186.2 208.6 174 219.5"/><polygon class="r" points="211.6 198.9 208.1 195.5 212.6 194.3 211.6 198.9"/><rect class="n" x="221.3" y="224.9" width="3.7" height="3.66"/><rect class="m" x="221.3" y="231.3" width="3.7" height="3.66"/><rect class="s" x="226" y="232.9" width="11.6" height="2.08"/><rect class="s" x="226" y="226.4" width="11.6" height="2.08"/><rect class="n" x="242.9" y="224.9" width="3.7" height="3.66"/><rect class="m" x="242.9" y="231.3" width="3.7" height="3.66"/><rect class="s" x="247.6" y="232.9" width="11.6" height="2.08"/><rect class="s" x="247.6" y="226.4" width="11.6" height="2.08"/><rect class="s" x="266.9" y="232.9" width="7.6" height="2.08"/><rect class="s" x="266.9" y="226.4" width="7.6" height="2.08"/><rect class="s" x="222" y="189.9" width="52.6" height="0.96"/><rect class="s" x="169.1" y="178.1" width="105.5" height="2.19"/><rect class="s" x="221.9" y="192.8" width="52.7" height="0.96"/><rect class="s" x="221.9" y="186.9" width="52.7" height="0.96"/><rect class="s" x="221.9" y="195.8" width="52.7" height="0.96"/><rect class="s" x="221.9" y="198.8" width="52.7" height="0.96"/><rect class="s" x="221.9" y="201.8" width="52.7" height="0.96"/><rect class="s" x="221.9" y="204.7" width="52.7" height="0.96"/><rect class="s" x="221.9" y="207.7" width="52.7" height="0.96"/><rect class="s" x="221.9" y="210.7" width="52.7" height="0.96"/><rect class="s" x="228.3" y="213.6" width="46.3" height="0.96"/><path class="t" d="M278,165.7H166.3a5.4,5.4,0,0,0-5.3,5.4v4.6H283.4v-4.6A5.4,5.4,0,0,0,278,165.7Z"/><path class="u" d="M267.7,170.9a1.6,1.6,0,0,1-1.6,1.6,1.6,1.6,0,0,1-1.5-1.6,1.5,1.5,0,0,1,1.5-1.5A1.5,1.5,0,0,1,267.7,170.9Z"/><circle class="u" cx="272.4" cy="170.9" r="1.5"/><circle class="u" cx="278.7" cy="170.9" r="1.5"/></g><rect class="v" x="128.4" y="183.9" width="122.4" height="82.3" rx="5.4"/><rect class="k" x="130.9" y="180.7" width="122.4" height="82.3" rx="5.4"/><path class="w" d="M248,180.7H136.3a5.4,5.4,0,0,0-5.4,5.4v4.7H253.4v-4.7A5.4,5.4,0,0,0,248,180.7Z"/><path class="u" d="M237.6,185.9a1.6,1.6,0,0,1-1.5,1.6,1.6,1.6,0,0,1-1.6-1.6,1.5,1.5,0,0,1,1.6-1.5A1.5,1.5,0,0,1,237.6,185.9Z"/><path class="u" d="M243.9,185.9a1.6,1.6,0,0,1-1.5,1.6,1.6,1.6,0,0,1-1.6-1.6,1.5,1.5,0,0,1,1.6-1.5A1.5,1.5,0,0,1,243.9,185.9Z"/><path class="u" d="M250.2,185.9a1.6,1.6,0,0,1-1.5,1.6,1.6,1.6,0,0,1-1.6-1.6,1.5,1.5,0,0,1,1.6-1.5A1.5,1.5,0,0,1,250.2,185.9Z"/><path class="x" d="M289.3,152.9H260.7c.2,9.3.3,18.6.4,27.9a9.9,9.9,0,0,1-.5,4.2h0c-.4,0-.2.1-.4.8h0c-1.1,1.9-3.4,2.9-5.6,3.4v.3a.9.9,0,0,0-.2.9c.1.3,1.8.7,4,.5a10.3,10.3,0,0,0,2.5-.7l.9-.6.9-.2h.1l2.5-1.1s-.3-1.6-.5-2.4a.5.5,0,0,0-.2-.4,113.8,113.8,0,0,0,5.1-17.9c-.5,7.5-3.2,22.9-3.4,23.4a4,4,0,0,1-3.3,2.3c-.6,0-3.6-.1-3.2,1.2s1.6,1.1,3.8,1.2a11,11,0,0,0,2.6-.2,4.7,4.7,0,0,0,1.6-.9l.4.5,2.7-.7v-1.5a4.6,4.6,0,0,0-.6-1.7v-1.6h1.5s3-9.8,4.5-13.2a29,29,0,0,0,1.6-4.1,23.3,23.3,0,0,0,.6-5.3,51.9,51.9,0,0,1,1.8-9.4.8.8,0,0,1,.2-.5,2.1,2.1,0,0,1,1-.4c3.9-.3,5.7.3,8.1-.4s3.5-2.5,3.6-2.5A10.1,10.1,0,0,0,289.3,152.9Z"/><path class="y" d="M284.2,105.7c.1,1.7,0,4.6.4,5a4.9,4.9,0,0,0,2.1.4s-5.6,7-6.1,6.6-7-5.7-5.5-6,2.9-.2,2.8-1-.1-1.5-.1-2.3"/><path class="z" d="M290.2,143.1s-10.8,1.2-13.3,1.3-2.3-1.3-2.3-1.3a98,98,0,0,0-1.1-11.4c-.5-2-.7-2.8-1.1-4.7-1-4.3-.9-5.1-1.9-10.5l6.4-5.1a3.6,3.6,0,0,0,3.4,2,5.2,5.2,0,0,0,4.8-2.5l8.8,5.8.8,14.2-1.1,11.8"/><path class="y" d="M284.3,104.2a14.4,14.4,0,0,1-.8,2.5c-.5,1.4-1.3,1.8-2.9,2.2a5.4,5.4,0,0,1-2.8.3c-1.4-.1-2.4-1.5-2.8-1.9a5.4,5.4,0,0,1-1.4-2.7,11.1,11.1,0,0,1-.2-1.9,32.2,32.2,0,0,1-.3-6.2v-.9l.2-.3h.4a25.9,25.9,0,0,1,6.2-.4,6.6,6.6,0,0,1,4.2,1.1,7.8,7.8,0,0,1,2.3,3.8c.1.2.1.5-.1.6"/><path class="y" d="M260.1,181.6a18.6,18.6,0,0,0,.6,2.9c.3.7,2.7,0,2.9-.4a28.1,28.1,0,0,0-.8-4"/><path class="aa" d="M264.1,184.7a13.9,13.9,0,0,1,.5,2.3l-2.4,1-.4-.3a4.2,4.2,0,0,1-1.3,1,10.9,10.9,0,0,1-2.4.7c-2.1.2-3.6-.2-3.7-.5s2.2-1.5,2.8-1.7a3.4,3.4,0,0,0,2.6-2.6c.2-.7,0-.8.4-.7a.6.6,0,0,1,.6.2,1.4,1.4,0,0,0,1.7.4,1.3,1.3,0,0,0,.8-.7A1.1,1.1,0,0,1,264.1,184.7Z"/><path class="ab" d="M270.5,153.5a39.1,39.1,0,0,1-12.3.3c.5,1.5,1.8,3.5,2.3,5.6,1.6,7.1,2.2,16.7,2.6,22.6,0,0-.8,1.5-3.3.3-3.8-9.3-10.3-28.2-10.3-32.3s13.1-6.4,22.6-7.7"/><path class="ab" d="M287.1,143.1c3,2.2-16.6,10.4-16.6,10.4a28.6,28.6,0,0,1-6.5.6,4.3,4.3,0,0,1-.5-1.2c-.1-.5,0-1.1-.1-1.7a4.2,4.2,0,0,0-2-2.7,10.9,10.9,0,0,0-3.2-1,45.3,45.3,0,0,0-7.3-.1c5.9-4.4,18-4.9,23.6-5.3C275.6,143.9,286.7,142.8,287.1,143.1Z"/><path class="y" d="M266.3,186.6s0,2.1.1,2.9,2.7.5,2.9.1,0-4,0-4"/><path class="aa" d="M269.8,190.3v2.4l-2.5.6-.3-.4a5.7,5.7,0,0,1-1.5.8,7.1,7.1,0,0,1-2.5.2c-2.1-.1-3.5-.8-3.6-1.1s2.5-1.1,3.1-1.1a3.9,3.9,0,0,0,3-2.2c.3-.6.1-.7.5-.7a1.1,1.1,0,0,1,.5.4,1.5,1.5,0,0,0,1.6.7l1-.5A.9.9,0,0,1,269.8,190.3Z"/><path class="ac" d="M293.6,142.7s-6,.5-13.3.4c-1.7,0-14.5,2.4-15.7,4.6s1.3,24.5,1,39.4c0,0,1.5,1.3,4.2.1.7-7.3,5.1-24.7,2.1-32.8,7,.9,12.8,1.9,19.2-.3a5.1,5.1,0,0,0,3.3-3.5C295.1,148.7,294.7,144.4,293.6,142.7Z"/><path class="z" d="M276.9,111.4h-1.8a12.2,12.2,0,0,0-3.8.7c-1.8.6-3,2.3-4.4,3.5s-4.5,12.5-5.6,13.2-8.9,8.5-8.9,8.5l-2.9,2.8s8.6-4.5,12.4-4.5c1.8,0,7.7-10.2,10.9-12.3Z"/><path class="ad" d="M260.5,132.9c-2.6.2-10.4,7.3-11.8,6.2l-.5.6s8.5-4.5,12.3-4.5c1.5,0,6.5-4.9,10.2-10.5l1.1-.6-.7-4S263.3,132.8,260.5,132.9Z"/><path class="ae" d="M245.6,145h28.9l-5.2-16.9a2.4,2.4,0,0,0-2.1-1.6H241.9a1.5,1.5,0,0,0-1.4,1.9Z"/><path class="af" d="M245.2,145h28.5l-5.2-16.9a2.4,2.4,0,0,0-2.1-1.6H241.1a1.5,1.5,0,0,0-1.4,1.9l4.9,16.2A.7.7,0,0,0,245.2,145Z"/><path class="ad" d="M289.7,119.5a103.9,103.9,0,0,0-2.1,16.3c-5.1,1.9-7.1,4.8-12.1,7,0,0-3.9-.6-4.3.9s4.6,1.5,4.6,1.5c4.5,0,16.6-3.3,17.4-3.6s3.2-15.6,3.3-23.9a4.9,4.9,0,0,0-.7-3.4,5.3,5.3,0,0,0-1.5-1.1,20.9,20.9,0,0,0-9.2-2.3"/><path class="y" d="M276.5,143.8a3.4,3.4,0,0,0-2.4-.7h-2c-.3.1-.6.1-.6.5s1.4,0,2.1.2h-4.9a.5.5,0,0,0-.3.4.5.5,0,0,0,.2.4,2.8,2.8,0,0,0,1.5.6,12.1,12.1,0,0,0,6.8-.6"/><path class="z" d="M289.3,119.4c-.1,6.9-.6,10.1-.4,17.1-3.5.7-8.4,4.7-13.3,6.9a2.4,2.4,0,0,0,.2,1.8c.3.1,16.6-3.8,17.9-5s2.7-14.2,2.8-22.5a4.9,4.9,0,0,0-.7-3.4,5.3,5.3,0,0,0-1.5-1.1,20.9,20.9,0,0,0-9.2-2.3"/><path class="f" d="M286.5,97.9l-.3-1.7a5.6,5.6,0,0,0-2.7-3.5,9.1,9.1,0,0,0-6.1-.6c-1.1.3-1.5.9-2,.9a5.8,5.8,0,0,1-1.6-.5c-4.3-1.6-3.6,2.7-3.1,3.8s1.2.9,1.3,1.1.1,1.3.2,1.7a1,1,0,0,0,.5.7,9.7,9.7,0,0,1,.1-1.6,1.6,1.6,0,0,1,.6-1.2,4.3,4.3,0,0,1,1.6-.5,9,9,0,0,1,3.1.6c.9.6,1.1,2.2,1.3,3.2s.2.7.4.7.6-1.3,1.3-.9a2.1,2.1,0,0,1,.7,1.7,2,2,0,0,1-1.3,1.9c-.3.1.6,1.8,1,2.3l.5.4.5.2h.6a1.4,1.4,0,0,0,.9.1c.4-.1.7-.6.9-1s.7-1.4,1-2.2A13.4,13.4,0,0,0,286.5,97.9Z"/><path class="aa" d="M95.3,321.9a7.6,7.6,0,0,0,3.2,2.4c1.7.8,5.4,1.2,3.4,1.8a11.8,11.8,0,0,1-5.6.1,21.7,21.7,0,0,0-3.7-.2c-1.9,0-1.9-.1-1.7-2.2S94.5,320.3,95.3,321.9Z"/><path class="aa" d="M61.8,320.9c.1.5-.7,2.3.7,3.6s4.8,2.6,2.6,2.7a14.4,14.4,0,0,1-5.4-1c-1.2-.6-.3-1.5-1.7-1.9s-1.4-1.9-.5-2.8C58.8,318.8,61.4,319,61.8,320.9Z"/><path class="ac" d="M68.8,262.4s-4.4-13,8.1-23.7c0,0,6.8,2.7,12.1,3a27.9,27.9,0,0,0,6.4-.1s.4,11.5.4,17.7Z"/><path class="ac" d="M96.8,283.9c.2-5.8-6.1-5-8.4-.7-4.8,9,1.8,29.6,2.7,39.4a5.3,5.3,0,0,0,3.3.2,2.3,2.3,0,0,0,.9-1.1C95.2,309.7,96.5,290.1,96.8,283.9Z"/><path class="ac" d="M88.6,284.8c.8,2.4,8.8,4.9,8.1-3.8-.3-3.8-1-24.9-1.2-26.9s-.5-5-1.4-5.4c-5-1.9-13.7,4.6-12.4,12.2C82.6,266,87.1,279.9,88.6,284.8Z"/><path class="ac" d="M76,288.1c1.9-5.5-4.4-6.4-7.9-3.1-8.4,7.9-8.7,26.5-10.8,36.1a7.9,7.9,0,0,0,3.7,1.1,1.5,1.5,0,0,0,1-.5C65.4,310.2,73.9,293.9,76,288.1Z"/><path class="ac" d="M67.7,286.3c-.2,2.5,6.5,7.6,9.1-.7,1.2-3.6,6.2-25.2,6.8-27.1s.5-6-.3-6.7c-3.9-3.6-12.6-.4-14.2,7.1C67.9,264,68.2,281.2,67.7,286.3Z"/><path class="y" d="M101.9,191.8l-.6-.7c-1.6-2-1.9-3.8-3.3-6.2a15.2,15.2,0,0,0-1.1-2,7.9,7.9,0,0,0-2.4-2c-.7-.3-.1,1.2-.1,1.2s-.6-.9-1.1-.8-.3,1.3-.3,1.5a11,11,0,0,0,1.2,5.1,2.8,2.8,0,0,1,.4,1.2c-.5,0-.9-.4-1.4-.7a1.5,1.5,0,0,0-1.4-.4l.3.6a6.2,6.2,0,0,0,2.5,3,20.9,20.9,0,0,1,2.3.8c1.2.7,1.9,2.2,3.1,2.9"/><rect class="ag" x="91.9" y="181.8" width="5.5" height="10.09" rx="0.5" transform="translate(254 322.7) rotate(157.3)"/><rect class="ah" x="92.2" y="182.4" width="4.6" height="9.01" transform="translate(253.7 322.9) rotate(157.3)"/><path class="ah" d="M90.6,200a30,30,0,0,1,6.1,1.1c4.4,1.3,5.9,3.3,7.4,4.1-2.9-3.7-6.2-11.6-6.2-11.6s3.9-3.2,4.4-2.4,16.9,20.1,16.4,23.2c-.2,1.3-2.1,2.5-3.8,2.5-4.7-.2-10.1-1.9-15.8-3.7-2.5-.9-3.3.9-3.3.9"/><path class="ai" d="M104.1,205.2s2.1,4.2,2.7,4.5-1.5-.9-2.7-2.1a23.3,23.3,0,0,1-2.8-4.4C101.9,203.5,104.1,205.2,104.1,205.2Z"/><path class="y" d="M97.3,184.9a1.1,1.1,0,0,0-.3.7,5.3,5.3,0,0,0,.1,2.8,3.6,3.6,0,0,0,1.1,1.4l1.7,1.2"/><path class="f" d="M90.5,178c1.1.3,1.7,1.7,2.1,2.7a23.3,23.3,0,0,1,.8,3.6,5.7,5.7,0,0,1-.2,2.6,4.1,4.1,0,0,1-.7,1.1l-.5.6a1.1,1.1,0,0,1-.8.1c-.3-.1-.4-.5-.5-.9a25.5,25.5,0,0,0-2.7-6.6"/><path class="y" d="M91.5,185.3a.8.8,0,0,1,1.4-.5,5.4,5.4,0,0,1,.8,2.8c0,1-.8,1.2-1.5,1.4"/><path class="ah" d="M99.1,203.8c-1.4-1.5-5.7-4.1-11.5-3.9-3.9.1-14.8.8-16,3.4s-1.3,15.3-.4,20.1,2.5,12.6,2.5,14.7-1.2,3.1-.7,3.7,9.5,2,13.4,2,9.4-.9,9.7-2-.7-1.6-.8-3.3-.6-12.9,0-14.8,1.7-8.7,2.6-11.1S100.4,205.4,99.1,203.8Z"/><path class="ai" d="M74.3,215.1c-.4.9-3.2,5.4-3.2,5.4v.5a15.4,15.4,0,0,0,.2,2.4c.7,3.6,2.5,12.6,2.5,14.7s-1.1,3.1-.7,3.7,16.6,4.3,15.9.6c-.1-.3-13.2-10.2-13.2-10.6a66.2,66.2,0,0,1-1.4-7C73.7,219.8,74.7,214.2,74.3,215.1Z"/><path class="y" d="M90.5,194.9a38.6,38.6,0,0,0,.2,4.7l1.1.6s-.6,4-1.6,3.7-7.5-3.6-7.5-3.6.9-.4.9-.8-.9-7.4-.9-7.4"/><path class="y" d="M86,178.5c.9.2,3.4-.3,4.1.7a29.6,29.6,0,0,1,1.6,4.3c.5,1.3.8,2.8,1.2,4.2s1.3,5.2-.5,6.8a2.7,2.7,0,0,1-1.4.7l-2.6.5a9.5,9.5,0,0,1-4.1.1c-1.7-.6-2.7-3-3.1-4.7l-2.6-9.4Z"/><path class="aj" d="M89.6,242.4a6.1,6.1,0,0,1,3.9,2.2c.1.1.2.2.1.3s-.2.2-.3.3-1.1-.5-2-.8l-1.7-.8"/><path class="ak" d="M96.4,228l-7,22.5c-.2.6.1,1.1.7,1.1l14.6,1.3a1.3,1.3,0,0,0,1.2-1l7.6-22.1c.1-.6-.7-1.4-1.3-1.4l-14.6-1.3A1.3,1.3,0,0,0,96.4,228Z"/><g class="al"><path class="am" d="M96.8,228.6l-6.9,22.1a.8.8,0,0,0,.8,1.1l14.6,1.3a1.4,1.4,0,0,0,1.2-.9l6.9-22.1c.2-.6-.1-1.1-.7-1.1l-14.6-1.3A1.4,1.4,0,0,0,96.8,228.6Z"/></g><polygon class="k" points="108.5 227.9 108 229.8 101.2 229.2 101.7 227.3 108.5 227.9"/><path class="k" d="M106.1,224.2a2.3,2.3,0,0,0-2.1,1.6l-.7,2.2,3.2.3s.6-1.7.7-2.2A1.4,1.4,0,0,0,106.1,224.2Zm-.8,2.7a.7.7,0,0,1-.6-1,1.3,1.3,0,0,1,1.2-.9.8.8,0,0,1,.6,1.1A1.2,1.2,0,0,1,105.3,226.9Z"/><path class="an" d="M84.1,240.9c1.5.3,5.6,1.5,6,1.7a24.8,24.8,0,0,1,2.6,1.9c1.6,1.6.8,2.3,1.4,4.4v.3a.4.4,0,0,1-.6.2c-.1.3-.6.1-.8-.2s-.3.4-.8.1l-.8-.6a7.4,7.4,0,0,0-1.6-1.1l-1.7-.7c-.6-.4-1.7-.5-2.2-2.3a1.8,1.8,0,0,0-.9-.8l-2.5-1.6"/><path class="ah" d="M74.7,212.1c-.7,2.3-3.4,18.4-3.4,18.4l15.2,11-1.2,3.4s-18.2-6.2-19.7-10.3-1.4-23.1,3.7-29.7a11.7,11.7,0,0,1,4.8-3.2"/><path class="aj" d="M90.3,246.7a3,3,0,0,1,1.3.9l1,1.4a6,6,0,0,1-1.1-1.2A6,6,0,0,0,90.3,246.7Z"/><path class="aj" d="M91.1,245.6l.8.7.6.9.9,1.9a17.4,17.4,0,0,1-1.1-1.8,4.1,4.1,0,0,0-.5-.9Z"/><path class="aj" d="M92.1,244.8l.7.7a4.1,4.1,0,0,1,.5.9,6.6,6.6,0,0,1,.6,2c-.3-.7-.5-1.3-.7-1.9l-.5-.9Z"/><path class="f" d="M80.5,189.5c.5-.3,1-.7,1.4-.1s.3.7.7.8.7-.2.8-.6a1.2,1.2,0,0,0-.2-1,21.7,21.7,0,0,0-.7-2.4,3.6,3.6,0,0,1-.1-2.3,1.6,1.6,0,0,1,.7-.9,6.8,6.8,0,0,1,3.5-1.5c1.3-.3,2.6-.4,3.9-.8a3.9,3.9,0,0,0,1.4-.8,3.2,3.2,0,0,0,1.1-2.3,4.4,4.4,0,0,0-.8-2.5,3.6,3.6,0,0,1-.4.9,2.1,2.1,0,0,0-.7-1.1c-.3,2-9.1,1.3-11.1,2.3s-2.6,1-2.5,3.3l-.3.4c-1.3,1.1-1.8,2.5-2,4.6s1.3,5.3,2.8,7.4a4.1,4.1,0,0,0,1,1.3,3.8,3.8,0,0,0,2.1.4c.6-.1,1.8,0,1.9-.7s-1-1.3-1.3-1.6"/><path class="y" d="M82.5,191.9a1,1,0,0,1-.2.8c-.2.3-.7.2-1,.1a2.7,2.7,0,0,1-1.8-2.1c-.2-1.1.4-2.2,1.4-1.9a1.4,1.4,0,0,1,1,1.4"/><path class="ao" d="M90.8,195.3l-2.8.5a3.7,3.7,0,0,0,2.8,1.1"/><path class="aa" d="M188.5,205.4c9.4-1.6,17.7-2.8,27-4.2.2-.1.4.1.4.3h0l.2,24.5a.3.3,0,0,1-.3.3c-9.3.1-18.8.4-28.1.4a.3.3,0,0,1-.3-.3V205.9c-.1-.2.1-.3.2-.4Z"/><path class="aa" d="M164.4,208.8l20-2.7c.2-.1.3.1.3.3l.2,20c0,.2-.2.3-.4.3l-21,.4a.3.3,0,0,1-.3-.3l-.2-16.4v-1.1a.5.5,0,0,1,.3-.3Z"/><path class="aa" d="M163.5,229.2c7,0,13.9.1,21.1-.1a.3.3,0,0,1,.3.3v20.2c0,.2-.1.4-.3.4l-21.1-2.7a.3.3,0,0,1-.3-.3V229.6C163.2,229.4,163.3,229.2,163.5,229.2Z"/><path class="aa" d="M188.7,229.2l27.1-.2c.2,0,.3.2.3.4l.2,23.7v.8c0,.2-.2.3-.4.3-9.3-1.5-18.8-2.5-28-3.8a.3.3,0,0,1-.3-.3l-.2-20.5a.4.4,0,0,1,.4-.4Z"/><path class="ap" d="M189.5,226.4V205.5a.4.4,0,0,1,.1-.3l-1,.2h-1c-.1.1-.3.2-.2.4v20.5a.3.3,0,0,0,.3.3h2.1A.5.5,0,0,1,189.5,226.4Z"/><path class="ap" d="M165.3,226.7v-18h-.8l-1.1.2a.5.5,0,0,0-.3.3v1.1l.2,16.4a.3.3,0,0,0,.3.3h2.1C165.4,227,165.3,226.9,165.3,226.7Z"/><path class="aq" d="M184.7,229.1h0Z"/><path class="ap" d="M165.4,247.5V229.6c0-.2.1-.4.3-.4h-2.1c-.2,0-.3.2-.3.4V247a.3.3,0,0,0,.3.3l1.8.2Z"/><path class="ap" d="M189.7,250.5V229.6c-.1-.2.1-.4.3-.4h-2.1a.4.4,0,0,0-.4.4l.2,20.5a.3.3,0,0,0,.3.3l1.8.3Z"/><path class="ar" d="M314.3,289.8a14.1,14.1,0,0,0,3.6-4,26.8,26.8,0,0,0,1.3-3.4,25.2,25.2,0,0,0,1.6-7.1,32.5,32.5,0,0,1,0-5.4,22.3,22.3,0,0,1,1.6-4.3,18.8,18.8,0,0,0,1.5-6.2,29.8,29.8,0,0,0-.5-4.3,57.9,57.9,0,0,1-.8-11.2,16.5,16.5,0,0,0-.3-4.5,24.6,24.6,0,0,1-.9,3.9,26.2,26.2,0,0,1-2.9,5.8c-2.2,3.4-4.6,6.5-6.7,10.1a34,34,0,0,0-4.3,12.3c-.3,2-.3,4.1-.7,6.1-1.3,5.4-5.5,9-6.3,14.4a19.4,19.4,0,0,0-.2,3.4c.1,1.3-.4,6.4.7,6.1a12.5,12.5,0,0,0,2.1-2.4l2.2-2.1,4.5-3.7C311.1,292.2,313.1,291.3,314.3,289.8Z"/><path class="as" d="M305.8,291.6a35.2,35.2,0,0,0,5.7-10.7,62.9,62.9,0,0,0,1.7-6.2l1.2-6.4.6-3.3c.3-1.1.6-2.2,1-3.3s1.5-4.1,2.3-6,1.6-3.9,2.3-6a27.1,27.1,0,0,0,1.3-6.3,24.3,24.3,0,0,1-.9,6.5,64.5,64.5,0,0,1-2.1,6.2c-.7,2.1-1.5,4-2.2,6.1s-.6,2-.8,3l-.6,3.2c-.4,2.2-.8,4.3-1.3,6.5a43.2,43.2,0,0,1-1.9,6.4,44.3,44.3,0,0,1-2.7,5.8A27.3,27.3,0,0,1,305.8,291.6Z"/><path class="at" d="M323.8,270.9a10.9,10.9,0,0,0-4.3,1.8c-3.5,2.6-3.8,7.7-6.4,11.2s-5.1,4.2-6.9,6.8a16.4,16.4,0,0,0-2.3,4.8c-.6,1.7-1.2,3.4-1.9,5.2a109.6,109.6,0,0,0,21.8-8.1,11.8,11.8,0,0,0,3.5-2.3c1.9-1.9,2.5-4.8,2.5-7.6s-.3-4.6.5-6.8,4.5-4.9,7.1-7.3C333.5,267.8,327.6,269.9,323.8,270.9Z"/><path class="as" d="M332.4,270.3c-1.3.7-2.6,1.4-3.8,2.2a17,17,0,0,0-3.4,2.6,10.1,10.1,0,0,0-2.3,3.5,41.3,41.3,0,0,0-1.4,4.2,17.2,17.2,0,0,1-.7,2.1l-1.1,2a18.7,18.7,0,0,1-2.9,3.4,38.7,38.7,0,0,1-7.2,5l3.5-2.6c1.1-1,2.2-1.9,3.2-3a16.4,16.4,0,0,0,2.6-3.3,17.4,17.4,0,0,0,1-1.9,15.9,15.9,0,0,0,.7-2,35.2,35.2,0,0,1,1.5-4.2,10.8,10.8,0,0,1,2.6-3.7C326.9,272.5,329.7,271.4,332.4,270.3Z"/><path class="au" d="M296.2,275.9a17.1,17.1,0,0,0-8.1-7.4c-4.7-2-10.6-1.1-14.8-4-.9-.6-1.6-1.4-2.5-1.9s-4.5-1.3-6.9-1.3a1.5,1.5,0,0,0-.9.2c-.2.1-.3.4-.4.6s.3,3,1.3,4.1,2.4,1.8,3.5,2.8a13,13,0,0,1,3.6,6.6,47.9,47.9,0,0,1,1,7.6,13.7,13.7,0,0,0,.7,2.9,7.7,7.7,0,0,0,3.4,3.3,30.9,30.9,0,0,0,7.1,3.4c5.3,1.8,11.3,2.4,15.4,6.2a7.4,7.4,0,0,0,1.3,1.2,4.6,4.6,0,0,0,3.2.9,6.4,6.4,0,0,0-.8-4.3c-1.3-3.6-1.6-7.2-2.3-10.9A31.9,31.9,0,0,0,296.2,275.9Z"/><path class="av" d="M298,247.8a22.3,22.3,0,0,1,4.4,14.1c-.2,4.6-1.8,9.3-.5,13.7.7,2.1,2,4,2.3,6.3.7,5.2-4.3,9.7-4.5,15-1.1-.2-1.5-1.3-2.1-2.2s-4.1-3.8-6.4-5.7a18.9,18.9,0,0,1-6.8-12.9c-.5-6,1.9-12,1.3-18-.3-2-.9-4-1.2-6.1a24.3,24.3,0,0,1,0-8.5c.3-2.3,1-6.5,2.8-8C290.5,239.9,294.7,243.4,298,247.8Z"/><path class="aw" d="M306.7,259.2c-.9,1.1-2,2-2.8,3.2a14.5,14.5,0,0,0-1.2,3.5,22.2,22.2,0,0,0,0,6.3,15.5,15.5,0,0,1,.3,3.1c-.3,4-4.7,6.5-4.7,10.5a13.6,13.6,0,0,0,.8,3.9q1.8,5.7,3.9,11.1a25.7,25.7,0,0,1,1.5-4.7c.4-.9,1-1.7,1.4-2.7a13.6,13.6,0,0,0,.1-8.7,5.1,5.1,0,0,1-.4-2.7,3.8,3.8,0,0,1,.8-1.7c1.2-1.8,2.9-2.9,4.3-4.4a13.3,13.3,0,0,0,2.6-5.5,14.3,14.3,0,0,0,.9-5,18.5,18.5,0,0,0-.8-4.7c-1.1-3.8-1.8-8-3.4-11.7-.6,1.3-.2,3.2-.5,4.7A13.7,13.7,0,0,1,306.7,259.2Z"/><path class="as" d="M288,243.2c1.1,4.3,2.7,8.4,3.5,12.8a30.5,30.5,0,0,1,.7,6.7c.1,2.3,0,4.5.1,6.7s0,2.2.1,3.2l.3,3.3c.2,1,.4,2.1.7,3.1a28.1,28.1,0,0,0,1,3.1,109,109,0,0,0,5.2,12.2,62.7,62.7,0,0,1-6.3-11.7l-1.2-3.2c-.3-1.1-.6-2.2-.8-3.3a50.2,50.2,0,0,1-.4-6.7c0-2.3.1-4.5.1-6.7a28.4,28.4,0,0,0-.4-6.5C290,251.9,288.7,247.6,288,243.2Z"/><path class="as" d="M268.5,266.3a32.5,32.5,0,0,1,9.8,5.8,18.2,18.2,0,0,1,3.8,4.5c1,1.6,1.8,3.3,2.7,5a31.1,31.1,0,0,0,2.9,4.7,20,20,0,0,0,3.9,3.8c1.5,1.2,3.1,2.2,4.6,3.5a18.9,18.9,0,0,1,2,2,12.4,12.4,0,0,1,1.7,2.3l-1.9-2.1-2.3-1.7L291,291l-1.2-.8-1.1-.9a13.9,13.9,0,0,1-2.1-2.1,36.6,36.6,0,0,1-3.1-4.9,47.4,47.4,0,0,0-2.6-5,23,23,0,0,0-3.3-4.4A46,46,0,0,0,268.5,266.3Z"/><path class="as" d="M309.9,259.4a42.9,42.9,0,0,1-1.5,9.3c-.9,3-2,5.9-2.9,8.8s-1.8,6-2.5,9a70.6,70.6,0,0,0-1.5,9.2,48,48,0,0,1,.8-9.3,59,59,0,0,1,2.3-9.2c1-2.9,2.1-5.8,3.1-8.8A53.8,53.8,0,0,0,309.9,259.4Z"/><path class="ax" d="M314.4,335.5H291.6a2.7,2.7,0,0,1-2.7-2.7l-4.4-31.7a2.6,2.6,0,0,1,2.6-2.7h31.8a2.6,2.6,0,0,1,2.6,2.7l-4.4,31.7A2.7,2.7,0,0,1,314.4,335.5Z"/><path class="k" d="M259.3,136a2.8,2.8,0,0,1-2.8,3.7A4.8,4.8,0,0,1,252,136a2.8,2.8,0,0,1,2.8-3.7A5,5,0,0,1,259.3,136Z"/><path class="ay" d="M258.4,135.7l-2-1.7-.9,1.3h0l-1.6-1.3-1.2,1.7,1.5,1.3h0l2,1.6,1.3-1.6h0Zm-1.8-1,1.2,1-.7,1-1.2-1Zm-2.6,0,1.2,1-.7,1-1.2-1Zm2.1,3.3-1.2-1,.7-1,1.2,1Z"/></g></svg>