<?xml version="1.0" encoding="utf-8"?>
<!-- Generator: Adobe Illustrator 22.0.1, SVG Export Plug-In . SVG Version: 6.00 Build 0)  -->
<svg version="1.1" id="Layer_1" xmlns="http://www.w3.org/2000/svg" xmlns:xlink="http://www.w3.org/1999/xlink" x="0px" y="0px"
	 viewBox="0 0 180 150" style="enable-background:new 0 0 180 150;" xml:space="preserve">
<style type="text/css">
	.st0{opacity:0.3;fill:#C6E6FF;enable-background:new    ;}
	.st1{fill:#FFFFFF;}
	.st2{fill:none;stroke:#137FCF;stroke-width:2;}
	.st3{fill:#D6EEFF;}
	.st4{fill:#137FCF;}
	.st5{fill:none;}
</style>
<g id="Group_8035" transform="translate(-15375 -17863)">
	<g id="Group_8033">
		<path id="Path_5694" class="st0" d="M15502.3,17980.6c-32.1,2.7-84.5,37.3-111-16.5c-26.5-53.8,5.8-62.6,44.8-69.9
			c39-7.4,38-26,68-16.1C15534.1,17887.9,15588.5,17969.4,15502.3,17980.6z"/>
	</g>
	<g id="Group_6280" transform="translate(159 1533)">
		<g id="Group_5383" transform="translate(337 3220.578)">
			<g id="Group_5297" transform="translate(0 0)">
				<g id="Rectangle_2222" transform="translate(6.004 12.326)">
					<rect x="14932.6" y="13152.4" class="st1" width="59.9" height="41.1"/>
					<rect x="14933.6" y="13153.4" class="st2" width="57.9" height="39.1"/>
				</g>
				<g id="Rectangle_2216" transform="translate(0 0)">
					<path class="st1" d="M14934.6,13152.4h68c1.1,0,2,0.9,2,2v12.4c0,1.1-0.9,2-2,2h-68c-1.1,0-2-0.9-2-2v-12.4
						C14932.6,13153.3,14933.5,13152.4,14934.6,13152.4z"/>
					<path class="st2" d="M14934.6,13153.4h68c0.6,0,1,0.4,1,1v12.4c0,0.6-0.4,1-1,1h-68c-0.6,0-1-0.4-1-1v-12.4
						C14933.6,13153.8,14934,13153.4,14934.6,13153.4z"/>
				</g>
				<g id="Rectangle_2217" transform="translate(0 23.282)">
					<path class="st1" d="M14934.6,13152.4h68c1.1,0,2,0.9,2,2v12.4c0,1.1-0.9,2-2,2h-68c-1.1,0-2-0.9-2-2v-12.4
						C14932.6,13153.3,14933.5,13152.4,14934.6,13152.4z"/>
					<path class="st2" d="M14934.6,13153.4h68c0.6,0,1,0.4,1,1v12.4c0,0.6-0.4,1-1,1h-68c-0.6,0-1-0.4-1-1v-12.4
						C14933.6,13153.8,14934,13153.4,14934.6,13153.4z"/>
				</g>
				<g id="Rectangle_2218" transform="translate(0 46.564)">
					<path class="st1" d="M14934.6,13152.4h68c1.1,0,2,0.9,2,2v12.4c0,1.1-0.9,2-2,2h-68c-1.1,0-2-0.9-2-2v-12.4
						C14932.6,13153.3,14933.5,13152.4,14934.6,13152.4z"/>
					<path class="st2" d="M14934.6,13153.4h68c0.6,0,1,0.4,1,1v12.4c0,0.6-0.4,1-1,1h-68c-0.6,0-1-0.4-1-1v-12.4
						C14933.6,13153.8,14934,13153.4,14934.6,13153.4z"/>
				</g>
				<path id="Rectangle_2219" class="st3" d="M14934.6,13152.4h28.2l0,0v16.4l0,0h-28.2c-1.1,0-2-0.9-2-2v-12.4
					C14932.6,13153.3,14933.5,13152.4,14934.6,13152.4z"/>
				<path id="Rectangle_2220" class="st3" d="M14934.6,13175.7h28.2l0,0v16.4l0,0h-28.2c-1.1,0-2-0.9-2-2v-12.4
					C14932.6,13176.6,14933.5,13175.7,14934.6,13175.7z"/>
				<path id="Rectangle_2221" class="st3" d="M14934.6,13198.9h28.2l0,0v16.4l0,0h-28.2c-1.1,0-2-0.9-2-2v-12.4
					C14932.6,13199.8,14933.5,13198.9,14934.6,13198.9z"/>
				<circle id="Ellipse_1054" class="st4" cx="14996.6" cy="13207.2" r="2.1"/>
				<circle id="Ellipse_1057" class="st4" cx="14989.1" cy="13207.2" r="2.1"/>
				<g id="Rectangle_2225" transform="translate(0 0)">
					<path class="st5" d="M14934.6,13152.4h68c1.1,0,2,0.9,2,2v12.4c0,1.1-0.9,2-2,2h-68c-1.1,0-2-0.9-2-2v-12.4
						C14932.6,13153.3,14933.5,13152.4,14934.6,13152.4z"/>
					<path class="st2" d="M14934.6,13153.4h68c0.6,0,1,0.4,1,1v12.4c0,0.6-0.4,1-1,1h-68c-0.6,0-1-0.4-1-1v-12.4
						C14933.6,13153.8,14934,13153.4,14934.6,13153.4z"/>
				</g>
				<g id="Rectangle_2226" transform="translate(0 23.282)">
					<path class="st5" d="M14934.6,13152.4h68c1.1,0,2,0.9,2,2v12.4c0,1.1-0.9,2-2,2h-68c-1.1,0-2-0.9-2-2v-12.4
						C14932.6,13153.3,14933.5,13152.4,14934.6,13152.4z"/>
					<path class="st2" d="M14934.6,13153.4h68c0.6,0,1,0.4,1,1v12.4c0,0.6-0.4,1-1,1h-68c-0.6,0-1-0.4-1-1v-12.4
						C14933.6,13153.8,14934,13153.4,14934.6,13153.4z"/>
				</g>
				<g id="Rectangle_2227" transform="translate(0 46.565)">
					<path class="st5" d="M14934.6,13152.4h68c1.1,0,2,0.9,2,2v12.4c0,1.1-0.9,2-2,2h-68c-1.1,0-2-0.9-2-2v-12.4
						C14932.6,13153.3,14933.5,13152.4,14934.6,13152.4z"/>
					<path class="st2" d="M14934.6,13153.4h68c0.6,0,1,0.4,1,1v12.4c0,0.6-0.4,1-1,1h-68c-0.6,0-1-0.4-1-1v-12.4
						C14933.6,13153.8,14934,13153.4,14934.6,13153.4z"/>
				</g>
				<circle id="Ellipse_1062" class="st4" cx="14996.6" cy="13183.9" r="2.1"/>
				<circle id="Ellipse_1063" class="st4" cx="14989.1" cy="13183.9" r="2.1"/>
				<path id="Path_5696" class="st4" d="M14996.6,13158.5c1.1,0,2.1,0.9,2.1,2.1c0,1.1-0.9,2.1-2.1,2.1c-1.1,0-2.1-0.9-2.1-2.1
					C14994.6,13159.5,14995.5,13158.5,14996.6,13158.5C14996.6,13158.5,14996.6,13158.5,14996.6,13158.5z"/>
				<circle id="Ellipse_1065" class="st4" cx="14989.1" cy="13160.6" r="2.1"/>
			</g>
		</g>
	</g>
</g>
</svg>
