<?xml version="1.0" encoding="utf-8"?>
<!-- Generator: Adobe Illustrator 22.0.1, SVG Export Plug-In . SVG Version: 6.00 Build 0)  -->
<svg version="1.1" id="Layer_1" xmlns="http://www.w3.org/2000/svg" xmlns:xlink="http://www.w3.org/1999/xlink" x="0px" y="0px"
	 viewBox="0 0 180 160" style="enable-background:new 0 0 180 160;" xml:space="preserve">
<style type="text/css">
	.st0{fill:#C6E6FF;}
	.st1{fill:none;stroke:#005B9F;stroke-width:5;}
	.st2{fill:#288ED9;}
	.st3{fill:#21E2E2;}
	.st4{fill:#0E71BB;}
	.st5{fill:none;stroke:#FFBC98;stroke-width:3;stroke-linecap:round;stroke-miterlimit:10;}
	.st6{fill:#30A3D1;stroke:#FFBC98;stroke-width:3;stroke-linecap:round;}
	.st7{fill:none;}
	.st8{fill:#80C9FF;}
	.st9{fill:none;stroke:#288ED9;stroke-width:2;}
	.st10{fill:none;stroke:#21E2E2;stroke-width:2;}
</style>
<g id="Group_7818" transform="translate(-22028 -17843)">
	<g id="Group_7705" transform="translate(0 2)">
		<g id="Group_7645" transform="translate(9 8)">
			<path id="Path_5522" class="st0" d="M22115.9,17958c-42.4,2.2-38.8,13.4-56.8-19.7s-13.6-55.1,15.1-57.3
				c28.7-2.2,29.2-14.7,52.8-4.3C22150.4,17887.2,22180.5,17951.7,22115.9,17958z"/>
		</g>
		<g id="Group_7704" transform="translate(-1 -3.004)">
			<g id="Group_7703" transform="translate(543.048 1586.801)">
				<g id="Group_7667" transform="translate(13.85 5.686)">
					<path id="Path_6177" class="st1" d="M21563.9,16279.5v110.8"/>
					<path id="Path_6189" class="st2" d="M21563.6,16264.7c5,0,9,4,9,9s-4,9-9,9s-9-4-9-9S21558.6,16264.7,21563.6,16264.7z"/>
					<path id="Path_6187" class="st1" d="M21623.7,16309l-116.8,66.5"/>
					<line id="Line_640" class="st1" x1="21609.8" y1="16369.7" x2="21516.8" y2="16316.7"/>
					<circle id="Ellipse_1442" class="st3" cx="21563.6" cy="16391.7" r="8"/>
					<circle id="Ellipse_1443" class="st3" cx="21623.6" cy="16308.7" r="8"/>
					<circle id="Ellipse_1444" class="st2" cx="21522.6" cy="16319.7" r="8"/>
					<path id="Ellipse_1445" class="st3" d="M21611.6,16362.7c4.4,0,8,3.6,8,8c0,4.4-3.6,8-8,8s-8-3.6-8-8
						C21603.6,16366.3,21607.2,16362.7,21611.6,16362.7z"/>
					<circle id="Ellipse_1446" class="st3" cx="21501.6" cy="16378.7" r="9"/>
				</g>
			</g>
			<path id="Path_6176" class="st4" d="M22120.7,17901.5c17.5,0,31.7,14.2,31.7,31.7s-14.2,31.7-31.7,31.7s-31.7-14.2-31.7-31.7
				S22103.2,17901.5,22120.7,17901.5L22120.7,17901.5z"/>
			<g id="Group_7676" transform="translate(609.493 1644.461)">
				<g id="Group_7677" transform="translate(0 10.723)">
					<line id="Line_4" class="st5" x1="21517.1" y1="16280.7" x2="21511.7" y2="16286.2"/>
					<line id="Line_5" class="st5" x1="21511.7" y1="16286.2" x2="21506.2" y2="16280.7"/>
				</g>
				<path id="Path_6175" class="st6" d="M21511.7,16295.8v-15.1"/>
			</g>
		</g>
	</g>
	<g id="Path_6190" transform="translate(587.773 1625.773)">
		<path class="st7" d="M21532.4,16280.7c14.5,0,26.2,11.7,26.2,26.2s-11.7,26.2-26.2,26.2s-26.2-11.7-26.2-26.2
			C21506.2,16292.4,21517.9,16280.7,21532.4,16280.7L21532.4,16280.7z"/>
		<path class="st8" d="M21532.4,16331.1c3.3,0,6.4-0.6,9.4-1.9c2.9-1.2,5.5-3,7.7-5.2s4-4.8,5.2-7.7c1.3-3,1.9-6.2,1.9-9.4
			s-0.6-6.4-1.9-9.4c-1.2-2.9-3-5.5-5.2-7.7s-4.8-4-7.7-5.2c-3-1.3-6.2-1.9-9.4-1.9s-6.4,0.6-9.4,1.9c-2.9,1.2-5.5,3-7.7,5.2
			s-4,4.8-5.2,7.7c-1.3,3-1.9,6.2-1.9,9.4s0.6,6.4,1.9,9.4c1.2,2.9,3,5.5,5.2,7.7s4.8,4,7.7,5.2
			C21526,16330.5,21529.1,16331.1,21532.4,16331.1 M21532.4,16333.1c-14.5,0-26.2-11.7-26.2-26.2s11.7-26.2,26.2-26.2
			s26.2,11.7,26.2,26.2S21546.9,16333.1,21532.4,16333.1z"/>
	</g>
	<g id="Ellipse_1456" transform="translate(593.316 1631.316)">
		<circle class="st7" cx="21526.9" cy="16301.3" r="20.7"/>
		<circle class="st9" cx="21526.9" cy="16301.3" r="19.7"/>
	</g>
	<g id="Ellipse_1457" transform="translate(598.582 1636.582)">
		<circle class="st7" cx="21521.6" cy="16296.1" r="15.4"/>
		<circle class="st10" cx="21521.6" cy="16296.1" r="14.4"/>
	</g>
</g>
</svg>
