<svg xmlns="http://www.w3.org/2000/svg" xmlns:xlink="http://www.w3.org/1999/xlink" viewBox="3865.269 -16277.002 525.369 530.002">
  <defs>
    <style>
      .cls-1 {
        opacity: 0.661;
      }

      .cls-2 {
        fill: url(#linear-gradient);
      }

      .cls-3 {
        fill: #005b9f;
      }

      .cls-4 {
        fill: #ffbc98;
      }

      .cls-5 {
        fill: url(#linear-gradient-2);
      }

      .cls-6 {
        fill: none;
        stroke: #fff;
        stroke-miterlimit: 10;
        stroke-width: 3px;
      }

      .cls-7 {
        fill: #152735;
      }

      .cls-8 {
        fill: #1f364c;
      }

      .cls-9 {
        fill: #30a3d1;
      }

      .cls-10 {
        fill: #edd7c0;
      }

      .cls-11 {
        fill: #ffe7cb;
      }

      .cls-12 {
        fill: #ff9c76;
      }

      .cls-13 {
        fill: #db7070;
      }

      .cls-14 {
        fill: #137fcf;
      }

      .cls-15 {
        fill: #98cdf2;
      }

      .cls-16 {
        fill: #031b4d;
      }

      .cls-17 {
        fill: #21e2e2;
      }
    </style>
    <linearGradient id="linear-gradient" x1="0.5" x2="0.5" y2="1" gradientUnits="objectBoundingBox">
      <stop offset="0" stop-color="#137fcf"/>
      <stop offset="1" stop-color="#80c9ff"/>
    </linearGradient>
    <linearGradient id="linear-gradient-2" x1="0.864" y1="1.473" x2="-1.02" y2="-3.435" gradientUnits="objectBoundingBox">
      <stop offset="0" stop-color="#1d8ab6"/>
      <stop offset="0.253" stop-color="#21e2e2"/>
      <stop offset="1" stop-color="#21e2e2"/>
    </linearGradient>
  </defs>
  <g id="Group_7210" data-name="Group 7210" transform="translate(3681.323 -18784.006)">
    <g id="Group_7206" data-name="Group 7206" class="cls-1" transform="translate(183.946 2860.118)">
      <path id="Path_5481" data-name="Path 5481" class="cls-2" d="M473.043,102.87c-1.662.4-250.645,67.814-361.7,40.654-29.8-4.391-52.718-6.922-89.708-29.161S-9.087,15.854,73.169,5.378,158.81,6.589,226.891,14.7s89.358-3.253,126.56-10.548,107.575-6.48,134.242,14.655S546.595,84.713,473.043,102.87Z" transform="translate(517.52 176.887) rotate(-177)"/>
    </g>
    <g id="Group_7205" data-name="Group 7205" transform="translate(283.09 2507.005)">
      <g id="Group_7204" data-name="Group 7204" transform="translate(0 0)">
        <g id="Group_6313" data-name="Group 6313" transform="translate(103.229 310.407)">
          <path id="Path_5708" data-name="Path 5708" class="cls-3" d="M109.988,234.171l-29.73-27.986L27.6,231.881l27.715-54.445,25.7,24.042,28.974-13.993,28.723,14.5L165.418,176.8l2.52,2.8-25.7,24.169,49.131,24.806-1.638,3.435-50.39-25.442ZM83.911,204.531l26.077,24.424,25.7-24.3-25.7-12.848ZM56.323,183.8,36.166,223.485l41.068-19.972Z" transform="translate(-27.6 -176.8)"/>
        </g>
        <path id="Path_5701" data-name="Path 5701" class="cls-4" d="M84,159.716l9.826,140.31a1.642,1.642,0,0,0,3.275,0L108.061,155.9Z" transform="translate(90.28 127.92)"/>
        <path id="Path_5703" data-name="Path 5703" class="cls-4" d="M64.336,153.8,4.624,296.782a1.271,1.271,0,0,0,2.268,1.145L85.752,157.743Z" transform="translate(69.631 127.349)"/>
        <path id="Path_5702" data-name="Path 5702" class="cls-4" d="M196.247,303.076,116,155.26l22.676-6.36,60.468,152.777A1.611,1.611,0,0,1,196.247,303.076Z" transform="translate(98.592 126.016)"/>
        <path id="Path_5698" data-name="Path 5698" class="cls-5" d="M62.809,77.373c28.563.611,29.793-12.955,56.9-33C148.155,22.988,179.138-5.487,199.592,1.6c18.759,5.5,36.672,29.331,36.309,58.662.605,9.166-4.357,17.476-18.154,17.11-9.44,49.741-29.531,88.36-70.2,105.1C96.113,203.864.5,192.865.5,192.865s3.246-6.573,2.761-36.515C6.771,104.042,17.908,74.318,62.809,77.373Z" transform="translate(106.559 94.816)"/>
        <path id="Path_5704" data-name="Path 5704" class="cls-6" d="M94,221.9" transform="translate(92.877 161.454)"/>
        <path id="Path_5705" data-name="Path 5705" class="cls-6" d="M135,179.9" transform="translate(103.527 150.027)"/>
        <path id="Path_5706" data-name="Path 5706" class="cls-6" d="M94,221.9" transform="translate(92.877 161.454)"/>
        <path id="Path_5707" data-name="Path 5707" class="cls-6" d="M54,183.9" transform="translate(82.487 151.115)"/>
        <path id="Path_5816" data-name="Path 5816" class="cls-7" d="M151.98,261.57s-33.752,2.519-33.929,37.352S106.8,444.255,106.8,444.255l29.19,1.6,31.088-145.73,26.305-2.406s38.066-12.579,60.784-20.4,30.088-10.884,30.088-10.884c0-1.2,40.054-9.434,7.174-20.455S151.98,261.57,151.98,261.57Z" transform="translate(-59.358 -18.069)"/>
        <path id="Path_5817" data-name="Path 5817" class="cls-8" d="M245.069,255.126V245.5s-49.322-.3-87.286,4.813-51.822,8.837-51.822,8.837-46.8,1.8-38.768,44.949,7.488,136.083,7.488,136.083h35.067l6.718-131.98s42.659-.013,78.335-4.1C223.208,300.844,248.29,292.4,245.069,255.126Z" transform="translate(21.507 -17.589)"/>
        <g id="Group_6384" data-name="Group 6384" transform="translate(0 414.951)">
          <path id="Path_4212" data-name="Path 4212" class="cls-9" d="M236.591,405a7.881,7.881,0,0,0-7.055,4.332c-4.185,7.941-14.348,24.425-27.979,25.869-18.055,2.045-13.99,2.045-16.022,16.123s86.09-14.078,86.09-14.078S269.592,405,255.6,405Z" transform="translate(-183.82 -405)"/>
          <path id="Path_4213" data-name="Path 4213" class="cls-8" d="M187.355,454.392l84.3-16.243a2.408,2.408,0,0,0,1.913-2.767l-.6-3.249a2.4,2.4,0,0,0-2.75-1.925l-84.3,16.243a2.408,2.408,0,0,0-1.913,2.767l.6,3.249A2.335,2.335,0,0,0,187.355,454.392Z" transform="translate(-183.966 -399.886)"/>
          <g id="Group_5134" data-name="Group 5134" transform="translate(22.665 18.048)">
            <path id="Path_4214" data-name="Path 4214" class="cls-3" d="M205.6,436.484c6.935,1.685,16.74,2.166,21.881-6.858,2.87-4.452,6.218-7.1,9.924-7.58,5.022-.722,9.207,2.647,9.207,2.647a.973.973,0,0,0,1.435-.12.957.957,0,0,0-.12-1.324c-.239-.12-4.9-3.971-10.761-3.128-4.3.6-8.131,3.489-11.359,8.423-7.413,13.235-25.947,3.85-26.784,3.489a.959.959,0,0,0-1.315.361,1.015,1.015,0,0,0,.478,1.324A32.127,32.127,0,0,0,205.6,436.484Z" transform="translate(-197.619 -420)"/>
          </g>
          <path id="Path_4215" data-name="Path 4215" class="cls-3" d="M196.482,430.532h0a6.015,6.015,0,0,0,5.978-6.016h0a6.015,6.015,0,0,0-5.978-6.016h0a6.015,6.015,0,0,0-5.978,6.016h0A5.939,5.939,0,0,0,196.482,430.532Z" transform="translate(-120.635 -402.257)"/>
        </g>
        <g id="Group_6385" data-name="Group 6385" transform="translate(42.567 415.197)">
          <path id="Path_4218" data-name="Path 4218" class="cls-9" d="M193.734,403.2a8.479,8.479,0,0,0-7.772,3.971c-5.022,8.062-16.979,24.546-31.327,25.147-19.131.722-14.946,1.083-18.055,15.762-3.228,14.679,91.71-8.3,91.71-8.3s.359-34.051-14.468-35.134Z" transform="translate(-134.417 -403.18)"/>
          <path id="Path_4219" data-name="Path 4219" class="cls-8" d="M138.21,450.953l90.275-10.709a2.423,2.423,0,0,0,2.152-2.647l-.478-3.73a2.416,2.416,0,0,0-2.631-2.166L137.254,442.41a2.423,2.423,0,0,0-2.152,2.647l.478,3.73A2.263,2.263,0,0,0,138.21,450.953Z" transform="translate(-135.092 -397.386)"/>
          <g id="Group_5136" data-name="Group 5136" transform="translate(25 19.735)">
            <path id="Path_4220" data-name="Path 4220" class="cls-3" d="M157.345,434.4c7.174,2.407,17.457,3.61,23.436-5.535,3.348-4.452,7.055-6.979,11-7.219,5.381-.361,9.446,3.489,9.446,3.489a1.083,1.083,0,0,0,1.435,0,1.1,1.1,0,0,0,0-1.444,16.025,16.025,0,0,0-11.12-4.091c-4.663.241-8.848,3.008-12.555,8.062-8.729,13.356-27.62,2.045-28.457,1.564a1.077,1.077,0,0,0-1.435.241,1.153,1.153,0,0,0,.359,1.444A44.217,44.217,0,0,0,157.345,434.4Z" transform="translate(-148.975 -419.582)"/>
          </g>
          <path id="Path_4221" data-name="Path 4221" class="cls-3" d="M146.822,431.477h.717A6.048,6.048,0,0,0,154,425.822V425.1a6.061,6.061,0,0,0-5.62-6.5h-.717a6.048,6.048,0,0,0-6.457,5.655v.722A6.061,6.061,0,0,0,146.822,431.477Z" transform="translate(-65.744 -400.049)"/>
        </g>
        <path id="Union_44" data-name="Union 44" class="cls-10" d="M105.748.861l-2.607,12.422c-7.034-4.645-14.906-3.442-21.17,1.484a18.926,18.926,0,0,0-2.522.77c-11.02,4.17-55.289,28.684-55.289,28.684s-1.758,9.3-8.587,21.863S0,103.317,0,103.317L2.411,131l7.3,4.334,17.54-17.987,6.933-61.324c4.994-3.927,27.294-14,42.807-22,17.175.531,31.621-9.118,31.658-17.662L107.926.793A.888.888,0,0,0,106.949,0,1.192,1.192,0,0,0,105.748.861Z" transform="translate(245.42 245.156) rotate(180)"/>
        <path id="Path_4646" data-name="Path 4646" class="cls-11" d="M86.844,22.269,91.587.668C57.181-1.347,17.029.558,1.748,15.377-1.224,60.989-1.281,96.02,8.622,114.8c5.659,10.7,21.394,9.853,25.61-1.49a53.475,53.475,0,0,0,2.482-9.6,3.626,3.626,0,0,0,0-1.528c-.77-6.767-2.262-45.617-2.272-52.82C34.32,41.619,86.844,22.269,86.844,22.269Z" transform="translate(291.338 250.705) rotate(-166)"/>
        <g id="Group_6380" data-name="Group 6380" transform="matrix(-0.996, -0.087, 0.087, -0.996, 305.121, 248.051)">
          <path id="Path_5813" data-name="Path 5813" class="cls-12" d="M40.122,160.172c-16.127-8.465-32.087-12.2-34.3-31.695L.038,94.068a5.788,5.788,0,0,1,2.319-5.238c7.084-5.357,19.3-6.8,28.585-6.79C34.99,48.008,42.144,22.751,48.852.946,49.34-.637,25.77,3.191,27.358,2.827c29.322-5.345,59.626-3.379,84.8,8.209,1.589.732-9.321.823-8.953,2.529,2.448,19.4,10.973,48.732,3.784,86.011-7.683,27.409-11.425,49.388-36.659,62.76A36.684,36.684,0,0,1,40.122,160.172Z" transform="translate(0 0)"/>
          <path id="Path_5815" data-name="Path 5815" class="cls-13" d="M0,4.38C50.947-7.2,10.844,38.559,10.6,38.558c.122.122-4.534,41.991-4.534,41.991s7.312,33.37-.623,45.549c6.594-6.941,18.49-26.764,10.755-52.412C37.237,21.2,44.423,15.655,12.094,0,9.162.364,6.23.85,3.3,1.335A4.377,4.377,0,0,0,0,4.38Z" transform="translate(24.061 1.491)"/>
        </g>
        <g id="Group_6387" data-name="Group 6387" transform="translate(225.967 270.014) rotate(-169)">
          <path id="Path_5091" data-name="Path 5091" class="cls-8" d="M38.96,95.476l1.984.18L73.577,92.8,3.733,0,0,4.542Z" transform="translate(112.572 0.103)"/>
          <path id="Path_5092" data-name="Path 5092" class="cls-9" d="M85.123,87.682l-28.663,3.48L0,24.106,17.808,0Z" transform="translate(94.678 4.439)"/>
          <path id="Path_5093" data-name="Path 5093" class="cls-14" d="M0,23.566,112.572,0,94.6,23.6,13.844,37.508Z" transform="translate(0.078 4.947)"/>
          <path id="Path_5094" data-name="Path 5094" class="cls-3" d="M83.189,0c-8.652,15.423-8.765,15.509-8.765,15.509L7.037,27.36,0,17.029Z" transform="translate(16.505 11.054)"/>
          <path id="Path_5095" data-name="Path 5095" class="cls-15" d="M116.419,0,0,24.605l0,3.961L112.582,5.094Z" transform="translate(0 0)"/>
        </g>
        <path id="Union_43" data-name="Union 43" class="cls-11" d="M85.52.648l-7.234,13.81c-8-11.023-21.325-10.187-31.852-1.264C29.38,6.284,0,2.612,0,2.612L7.213,30.29l9.336-1.528S34.3,31.879,46.662,30.517c17.093,4.945,33.677-.835,36.519-10.255L87.914,1.406A1.193,1.193,0,0,0,86.643,0,1.25,1.25,0,0,0,85.52.648Z" transform="translate(259.612 239.448) rotate(180)"/>
        <g id="Group_6383" data-name="Group 6383" transform="translate(277.361 98.18) rotate(178)">
          <g id="Group_6382" data-name="Group 6382" transform="translate(3.488 0)">
            <path id="Path_4638" data-name="Path 4638" class="cls-11" d="M56.728,72.912c2.278.218.547-20.087.33-20.852-.325-1.2,3.365-7.206,2.823-9.608-.325-1.856-6.726-.544-6.726-.544,1.2-15.5-5.094-20.741-20.068-13.642l-2.6-11.681C41.011,4.684,28.972-8.522,8.247,7.2L0,16.156,2.381,44.867,10.727,76.2l21.37,12,19.1-6.227Z" transform="translate(0 0)"/>
          </g>
          <path id="Path_4639" data-name="Path 4639" class="cls-10" d="M18.822,9.394C11.661,12.016,5.27,16.989,2.556,25.723-4.06,16.663,2.7,8.191,16.7,0Z" transform="translate(17.74 18.813)"/>
          <path id="Path_4641" data-name="Path 4641" class="cls-16" d="M35.262,36.582c35.7-18.13,44.154,5.012,27.878,15.933-7.6,4.368-22.783,1.1-33.741,2.082C13.125,57.985,4.557,47.943,1.306,28.511-5.955-5.876,19.323-4.789,21.49,8.965,7.6,20.54,26.366,33.528,25.176,17.917,34.182,12.019,36.35,20.862,35.262,36.582Z" transform="translate(0 42.994)"/>
        </g>
        <path id="Path_5699" data-name="Path 5699" class="cls-17" d="M179.8,61.9c-26.626,0-34.977,17.843-35.1,40.33,1.21,15.888-5.083,28.6-16.944,42.775-14.523,16.621-27.352,28.353-41.392,32.509-1.694.489-12.95,2.566-26.263,4.4,31.83.611,73.706-1.222,102.148-13.077,40.666-16.743,60.635-55.24,70.2-104.859Z" transform="translate(91.86 108.456)"/>
      </g>
    </g>
  </g>
</svg>
