<?xml version="1.0" encoding="utf-8"?>
<!-- Generator: Adobe Illustrator 22.0.1, SVG Export Plug-In . SVG Version: 6.00 Build 0)  -->
<svg version="1.1" id="Layer_1" xmlns="http://www.w3.org/2000/svg" xmlns:xlink="http://www.w3.org/1999/xlink" x="0px" y="0px"
	 viewBox="0 0 180 150" style="enable-background:new 0 0 180 150;" xml:space="preserve">
<style type="text/css">
	.st0{opacity:0.3;fill:#C6E6FF;enable-background:new    ;}
	.st1{fill:#FFFFFF;}
	.st2{fill:none;stroke:#137FCF;stroke-width:2;}
	.st3{fill:#D6EEFF;}
	.st4{fill:none;}
	.st5{fill:#288ED9;}
	.st6{fill:#137FCF;}
	.st7{fill:#D6EEFF;stroke:#137FCF;stroke-width:2;}
	.st8{fill:#FFFFFF;stroke:#137FCF;stroke-width:2;}
	.st9{fill:#137FCF;stroke:#137FCF;stroke-width:0.5;}
</style>
<g id="Group_8037" transform="translate(-7187 -17863)">
	<g id="Group_8036">
		<path id="Path_5644" class="st0" d="M7314.3,17984c-32.1,2.7-84.5,37.3-111-16.5c-26.5-53.8,5.8-62.6,44.8-69.9
			c39-7.4,38-25.9,68-16.1C7346.1,17891.3,7400.5,17972.8,7314.3,17984z"/>
		<g id="Group_6143" transform="translate(0 235)">
			<g id="Group_6130" transform="translate(1001 2031.915)">
				<g id="Group_6131" transform="translate(54.19 44.295)">
					<g id="Group_6129" transform="translate(12.966 0)">
						<g id="Group_6127" transform="translate(2.093 59.432) rotate(-59)">
							<g id="Rectangle_2848" transform="matrix(0.819, 0.574, -0.574, 0.819, 21.806, 0)">
								<path class="st1" d="M-688.2,16731h50.6c1.1,0,2,0.9,2,2v34c0,1.1-0.9,2-2,2h-50.6c-1.1,0-2-0.9-2-2v-34
									C-690.2,16731.9-689.3,16731-688.2,16731z"/>
								<path class="st2" d="M-688.2,16732h50.6c0.6,0,1,0.4,1,1v34c0,0.6-0.4,1-1,1h-50.6c-0.6,0-1-0.4-1-1v-34
									C-689.2,16732.5-688.7,16732-688.2,16732z"/>
							</g>
							<g id="Group_6128" transform="translate(13.375 7.552)">
								
									<rect id="Rectangle_2849" x="-10169.5" y="13318.5" transform="matrix(-0.8189 -0.5739 0.5739 -0.8189 -26095.7598 18410.0469)" class="st3" width="52.2" height="7.3"/>
								<line id="Line_310" class="st2" x1="-10125.2" y1="13343.2" x2="-10143.2" y2="13330.7"/>
							</g>
							<g id="Rectangle_2854" transform="matrix(0.819, 0.574, -0.574, 0.819, 21.806, 0)">
								<path class="st4" d="M-688.2,16731h50.6c1.1,0,2,0.9,2,2v34c0,1.1-0.9,2-2,2h-50.6c-1.1,0-2-0.9-2-2v-34
									C-690.2,16731.9-689.3,16731-688.2,16731z"/>
								<path class="st2" d="M-688.2,16732h50.6c0.6,0,1,0.4,1,1v34c0,0.6-0.4,1-1,1h-50.6c-0.6,0-1-0.4-1-1v-34
									C-689.2,16732.5-688.7,16732-688.2,16732z"/>
							</g>
						</g>
						<path id="Path_5630" class="st5" d="M6237.2,15633.5c1.6,0,2.8,1.3,2.8,2.8s-1.3,2.8-2.8,2.8s-2.8-1.3-2.8-2.8
							S6235.6,15633.5,6237.2,15633.5C6237.2,15633.5,6237.2,15633.5,6237.2,15633.5z"/>
					</g>
				</g>
			</g>
			<g id="Group_6133" transform="translate(1001 2031.915)">
				<g id="Group_6131-2" transform="translate(54.19 44.295)">
					<g id="Group_6129-2" transform="translate(12.966 0)">
						<g id="Rectangle_2846" transform="translate(4.358 40.326)">
							<path class="st1" d="M6170.6,15569.8h75.1c1.1,0,2,0.9,2,2v48c0,1.1-0.9,2-2,2h-75.1c-1.1,0-2-0.9-2-2v-48
								C6168.6,15570.7,6169.5,15569.8,6170.6,15569.8z"/>
							<path class="st2" d="M6170.6,15570.8h75.1c0.6,0,1,0.4,1,1v48c0,0.6-0.4,1-1,1h-75.1c-0.6,0-1-0.4-1-1v-48
								C6169.6,15571.2,6170,15570.8,6170.6,15570.8z"/>
						</g>
						<g id="Rectangle_2847" transform="translate(59.724 56.096)">
							<path class="st3" d="M6170.6,15569.8h24.9c1.1,0,2,0.9,2,2v16c0,1.1-0.9,2-2,2h-24.9c-1.1,0-2-0.9-2-2v-16
								C6168.6,15570.7,6169.5,15569.8,6170.6,15569.8z"/>
							<path class="st2" d="M6170.6,15570.8h24.9c0.6,0,1,0.4,1,1v16c0,0.6-0.4,1-1,1h-24.9c-0.6,0-1-0.4-1-1v-16
								C6169.6,15571.2,6170,15570.8,6170.6,15570.8z"/>
						</g>
						<path id="Path_5630-2" class="st6" d="M6236.9,15633.5c1.4,0,2.5,1.1,2.5,2.5s-1.1,2.5-2.5,2.5c-1.4,0-2.5-1.1-2.5-2.5
							S6235.5,15633.5,6236.9,15633.5z"/>
					</g>
					<g id="man-user" transform="translate(-1 51.778)">
						<path id="Path_5632" d="M6168.6,15608.3C6168.6,15607.9,6168.6,15608.2,6168.6,15608.3z"/>
						<path id="Path_5633" d="M6206.1,15608.7C6206.1,15608.5,6206.1,15607.9,6206.1,15608.7z"/>
						<path id="Path_5634" class="st7" d="M6206.1,15609.4c-0.2-11.6-1.7-16.5-13.3-18.5c0,0-1.6,2.1-5.4,2.1
							c-3.8,0-5.4-2.1-5.4-2.1c-11.5,2.1-13.1,6.9-13.3,18.3c0,0.2,0,0.3,0,0.5c0,0,2.8,5.6,18.8,5.6s18.8-5.6,18.8-5.6
							C6206.1,15609.1,6206.1,15610.1,6206.1,15609.4z"/>
						<path id="Path_5631" class="st8" d="M6187.4,15593.9c2.5,0,4.9-1.1,6.5-3c2.3-2.5,3.5-5.7,3.4-9.1c0-6.7-1.5-12.1-9.9-12.1
							s-9.9,5.4-9.9,12.1S6181.9,15593.9,6187.4,15593.9z"/>
					</g>
					<path id="Path_5636" class="st2" d="M6232.9,15609.2"/>
				</g>
			</g>
		</g>
	</g>
	<path id="Path_5646" class="st9" d="M7280.9,17952.3c0-0.9-0.3-1.7-1-2.2c-1-0.8-2.2-1.3-3.5-1.6c-1.6-0.3-3.1-1.1-4.4-2.1
		c-0.8-0.8-1.3-1.9-1.3-3.1c0-1.2,0.5-2.4,1.4-3.3c1-0.9,2.4-1.4,3.7-1.4v-2.5h1.4v2.5c1.4,0,2.7,0.6,3.7,1.6
		c0.9,1.1,1.4,2.5,1.3,3.9h-1.6c0.1-1.1-0.3-2.2-1.1-3.1c-0.8-0.8-1.9-1.2-3-1.1c-1.1-0.1-2.2,0.3-3,0.9c-0.7,0.6-1.1,1.5-1.1,2.4
		c0,0.9,0.3,1.7,1,2.3c1,0.7,2.2,1.3,3.4,1.6c1.2,0.3,2.4,0.8,3.5,1.4c0.7,0.4,1.2,0.9,1.6,1.6c0.4,0.7,0.6,1.4,0.5,2.2
		c0,1.2-0.5,2.4-1.4,3.3c-1.1,0.9-2.5,1.4-3.9,1.4v2.3h-1.4v-2.3c-1.6,0-3.1-0.6-4.3-1.6c-1-1-1.6-2.4-1.5-3.8h1.6
		c-0.1,1.1,0.4,2.2,1.2,3c1,0.8,2.2,1.2,3.5,1.1c1.1,0.1,2.3-0.3,3.2-0.9C7280.4,17954.1,7280.9,17953.2,7280.9,17952.3z"/>
</g>
</svg>
