<svg xmlns="http://www.w3.org/2000/svg" xmlns:xlink="http://www.w3.org/1999/xlink" viewBox="1613.257 -17653.439 790.287 612.51">
  <defs>
    <style>
      .cls-1 {
        fill: url(#linear-gradient);
      }

      .cls-2, .cls-3 {
        fill: #c6e6ff;
      }

      .cls-2 {
        opacity: 0.576;
      }

      .cls-3 {
        opacity: 0.435;
      }

      .cls-4 {
        fill: url(#linear-gradient-2);
      }

      .cls-5 {
        fill: #137fcf;
      }

      .cls-6 {
        fill: #288ed9;
      }

      .cls-10, .cls-11, .cls-15, .cls-20, .cls-24, .cls-7, .cls-8 {
        fill: none;
      }

      .cls-7, .cls-8 {
        stroke: #288ed9;
      }

      .cls-8 {
        stroke-linecap: round;
        stroke-width: 4px;
      }

      .cls-11, .cls-12, .cls-8 {
        stroke-miterlimit: 10;
      }

      .cls-9 {
        opacity: 0.642;
        fill: url(#linear-gradient-3);
      }

      .cls-10, .cls-11, .cls-12, .cls-15 {
        stroke: #fff;
      }

      .cls-10 {
        opacity: 0.3;
      }

      .cls-12 {
        fill: #fff;
      }

      .cls-13 {
        fill: url(#linear-gradient-4);
      }

      .cls-14 {
        fill: url(#linear-gradient-5);
      }

      .cls-15 {
        opacity: 0.23;
      }

      .cls-16 {
        fill: #164571;
      }

      .cls-17 {
        fill: #0e71bb;
      }

      .cls-18 {
        fill: #005b9f;
      }

      .cls-19 {
        fill: #52acea;
      }

      .cls-20 {
        stroke: #ffbc98;
        stroke-width: 2px;
      }

      .cls-21 {
        fill: #21e2e2;
      }

      .cls-22 {
        fill: #ffbc98;
      }

      .cls-23 {
        stroke: none;
      }

      .cls-25 {
        filter: url(#Path_5786);
      }

      .cls-26 {
        filter: url(#Path_5785);
      }

      .cls-27 {
        filter: url(#Path_5781);
      }

      .cls-28 {
        filter: url(#Path_5631);
      }
    </style>
    <linearGradient id="linear-gradient" x1="0.5" y1="1.192" x2="0.487" y2="-0.081" gradientUnits="objectBoundingBox">
      <stop offset="0" stop-color="#c6e6ff"/>
      <stop offset="1" stop-color="#fff"/>
    </linearGradient>
    <linearGradient id="linear-gradient-2" x1="0.5" y1="-1.004" x2="0.5" y2="1" gradientUnits="objectBoundingBox">
      <stop offset="0" stop-color="#288ed9"/>
      <stop offset="1" stop-color="#137fcf" stop-opacity="0.051"/>
    </linearGradient>
    <filter id="Path_5631" x="1751" y="-17257" width="34" height="34" filterUnits="userSpaceOnUse">
      <feOffset dy="3" input="SourceAlpha"/>
      <feGaussianBlur stdDeviation="3" result="blur"/>
      <feFlood flood-opacity="0.161"/>
      <feComposite operator="in" in2="blur"/>
      <feComposite in="SourceGraphic"/>
    </filter>
    <linearGradient id="linear-gradient-3" x1="0.5" y1="1" x2="0.5" gradientUnits="objectBoundingBox">
      <stop offset="0" stop-color="#288ed9" stop-opacity="0"/>
      <stop offset="1" stop-color="#005b9f"/>
    </linearGradient>
    <filter id="Path_5781" x="2091.99" y="-17333.771" width="105.391" height="117.281" filterUnits="userSpaceOnUse">
      <feOffset dx="2" input="SourceAlpha"/>
      <feGaussianBlur stdDeviation="2.5" result="blur-2"/>
      <feFlood flood-opacity="0.051"/>
      <feComposite operator="in" in2="blur-2"/>
      <feComposite in="SourceGraphic"/>
    </filter>
    <linearGradient id="linear-gradient-4" x1="0.5" x2="0.175" y2="1.103" gradientUnits="objectBoundingBox">
      <stop offset="0" stop-color="#ffbc98"/>
      <stop offset="1" stop-color="#ff9f6c"/>
    </linearGradient>
    <filter id="Path_5785" x="2168.268" y="-17348.443" width="114.317" height="144.346" filterUnits="userSpaceOnUse">
      <feOffset dy="3" input="SourceAlpha"/>
      <feGaussianBlur stdDeviation="2.5" result="blur-3"/>
      <feFlood flood-opacity="0.051"/>
      <feComposite operator="in" in2="blur-3"/>
      <feComposite in="SourceGraphic"/>
    </filter>
    <linearGradient id="linear-gradient-5" x1="0.056" y1="0.531" x2="0.957" y2="0.539" gradientUnits="objectBoundingBox">
      <stop offset="0" stop-color="#21e2e2"/>
      <stop offset="1" stop-color="#19dbdb"/>
    </linearGradient>
    <filter id="Path_5786" x="2132.992" y="-17213.543" width="97.913" height="99.543" filterUnits="userSpaceOnUse">
      <feOffset dx="5" input="SourceAlpha"/>
      <feGaussianBlur stdDeviation="5" result="blur-4"/>
      <feFlood flood-opacity="0.051"/>
      <feComposite operator="in" in2="blur-4"/>
      <feComposite in="SourceGraphic"/>
    </filter>
  </defs>
  <g id="Group_8043" data-name="Group 8043" transform="translate(1501 -17863)">
    <path id="Path_5630" data-name="Path 5630" class="cls-1" d="M338.563,59.823C459.7,137.122,598.4,171.906,598.4,171.906S751.141,195.1,694.96,369.017s-63.509,236.2-151.566,240.649c-83.51,2.38-130.416-32.083-213.041-26.146-72.578,5.588-122.557,38.288-243.83-9.484C-107.812,488.157-93.327-212.654,338.563,59.823Z" transform="translate(170.574 212.287)"/>
    <path id="Path_5632" data-name="Path 5632" class="cls-2" d="M43.772,214.013c-18.744-22.543,11.979-77.161-29.688-110.461S36.833,47.052,33.131-1.512,131.346,61.157,95,143.393c-9.451,21.381,13.08,80.243,7.4,90.751C86.865,262.884,62.516,236.556,43.772,214.013Z" transform="translate(645.039 446.529) rotate(-83)"/>
    <path id="Path_5633" data-name="Path 5633" class="cls-3" d="M47.836.011C27.352,24.646,60.928,84.337,15.392,120.729S40.253,182.476,36.207,235.55,161.521,177.731,121.8,87.859C111.469,64.492,112.319,11.495,106.112.011,89.138-31.4,68.321-24.625,47.836.011Z" transform="translate(361.607 378.613) rotate(90)"/>
    <ellipse id="Ellipse_1271" data-name="Ellipse 1271" class="cls-4" cx="222" cy="29" rx="222" ry="29" transform="translate(234 660)"/>
    <rect id="Rectangle_2841" data-name="Rectangle 2841" class="cls-5" width="33.053" height="33.053" rx="5" transform="translate(250 603)"/>
    <g class="cls-28" transform="matrix(1, 0, 0, 1, -1501, 17863)">
      <path id="Path_5631-2" data-name="Path 5631" class="cls-6" d="M8,0A8,8,0,1,1,0,8,8,8,0,0,1,8,0Z" transform="translate(1760 -17251)"/>
    </g>
    <g id="Ellipse_1270" data-name="Ellipse 1270" class="cls-7" transform="translate(256 609)">
      <circle class="cls-23" cx="11" cy="11" r="11"/>
      <circle class="cls-24" cx="11" cy="11" r="10.5"/>
    </g>
    <path id="Path_5634" data-name="Path 5634" class="cls-8" d="M65.408,122.6V61.553c0-8.283-4.548-12.117-12.669-11.964-2.111,0-35.847.153-42.344.153C2.436,49.742,0,44.834,0,36.551c0,0,.139-5.43.139-11.558S4.295,15,8.866,15H24.042" transform="translate(251.697 651.406) rotate(-90)"/>
    <g id="Group_7171" data-name="Group 7171" transform="translate(-361 -79)">
      <ellipse id="Ellipse_1308" data-name="Ellipse 1308" class="cls-9" cx="48.937" cy="10.873" rx="48.937" ry="10.873" transform="translate(986.602 800.1)"/>
      <g id="Group_6364" data-name="Group 6364" transform="translate(988.69 623.028)">
        <path id="Path_5763" data-name="Path 5763" class="cls-10" d="M0,18.732S5.009,8.644,17.034,0" transform="translate(44.399 45.107) rotate(-9)"/>
        <path id="Path_5761" data-name="Path 5761" class="cls-10" d="M0,0S21.069.46,36.592,10.994" transform="matrix(0.996, 0.087, -0.087, 0.996, 0.958, 27.531)"/>
        <path id="Path_5762" data-name="Path 5762" class="cls-10" d="M0,24.234S2.3,9.282,13,0" transform="translate(30.729 2.033) rotate(-9)"/>
      </g>
      <g id="Group_6371" data-name="Group 6371" transform="translate(957.999 598.057)">
        <path id="Path_5783" data-name="Path 5783" class="cls-6" d="M93.048,70.52c.478-17.7.12-33.962-13.154-26.308-4.783,3.588-9.567,2.392-9.567-3.588l1.2-13.154s0-20.329-16.742-3.588C44.019,35.841,44.019,47.8,46.411,58.562L57.173,82.479l14.35,13.154,21.525-7.175Z" transform="translate(8.251 2.733)"/>
        <path id="Path_5784" data-name="Path 5784" class="cls-11" d="M78.2,107.8" transform="translate(24.295 9.7)"/>
        <g class="cls-27" transform="matrix(1, 0, 0, 1, -2098, 17343.94)">
          <path id="Path_5781-2" data-name="Path 5781" class="cls-12" d="M71.893,75.594c-1.2,9.567,8.371,10.763,8.371,10.763l9.567-8.371-1.2,33.483c5.979,5.979-29.537,6.816-37.071,3.588-5.979-1.2-9.567-8.371-3.587-10.763l3.587-2.392c3.587-2.392,1.794-5.74-3.587-5.979-14.709.837-28.7-2.87-40.658-20.329-2.392-3.588-1.555-7.175,3.587-7.175,5.86-1.076,8.371-3.588,1.2-10.763-29.9-22.721,5.979-50.225,17.937-39.463,6.1,5.023,8.371,23.917,8.371,23.917S40.8,61.244,55.151,51.678c.359-.239.6-.478.957-.718C65.436,44.024,75.361,55.863,71.893,75.594Z" transform="translate(2097.51 -17341.5)"/>
        </g>
        <g class="cls-26" transform="matrix(1, 0, 0, 1, -2098, 17343.94)">
          <path id="Path_5785-2" data-name="Path 5785" class="cls-13" d="M78.291,128.8c-10.4-12.317-17.937-33.483-8.371-47.833,7.175-11,14.35-18.416,21.525-7.175,3.587,3.707,9.567,3.588,9.567-3.588C98.5,43.781,98.979,21.658,120.145,30.746c5.5,2.75,8.371.478,8.371-7.175-7.175-29.9,37.071-31.092,27.5-1.2-9.088,13.633-9.447,18.3-5.979,19.133,22.96.478,16.981,15.785-2.75,37.19a4.8,4.8,0,0,0,.957,7.295c8.61,5.262,21.464,14.36-15.487,34.929C116.616,129.772,98.142,131.316,78.291,128.8Z" transform="translate(2110.25 -17344.49)"/>
        </g>
        <path id="Path_5807" data-name="Path 5807" class="cls-5" d="M2.409,0H0C2.288,14.333,12.406,26.5,24.691,34.326c26.015,15.9,38.18,34.206,27.1,62.028h9.635c1.566-8.551,8.31-16.982,21.68-25.293,28.906-20.475,32.038-32.519,32.519-56.608l-2.409-2.409c.6,15.9-2.409,30.11-16.862,43.359L61.425,81.9c1.2-36.133-32.519-49.381-32.519-49.381S7.829,23.486,2.409,0Z" transform="translate(20.001 50.589)"/>
      </g>
      <g class="cls-25" transform="matrix(1, 0, 0, 1, -1140, 17942)">
        <path id="Path_5786-2" data-name="Path 5786" class="cls-14" d="M-10,0H57.913L52.48,69.543H-4.567Z" transform="translate(2152.99 -17198.54)"/>
      </g>
      <path id="Path_5787" data-name="Path 5787" class="cls-15" d="M0,7.441S4.255.629,16.541,0" transform="translate(1077.338 705.017) rotate(20)"/>
      <path id="Path_5790" data-name="Path 5790" class="cls-15" d="M0,7.441S4.254.628,16.541,0" transform="matrix(0.899, 0.438, -0.438, 0.899, 1087.602, 697.198)"/>
      <path id="Path_5791" data-name="Path 5791" class="cls-15" d="M0,7.442S4.254.629,16.54,0" transform="translate(1095.407 688.348) rotate(31)"/>
      <path id="Path_5792" data-name="Path 5792" class="cls-15" d="M0,7.442S4.254.629,16.54,0" transform="translate(1097.049 679.363) rotate(25)"/>
      <path id="Path_5793" data-name="Path 5793" class="cls-15" d="M0,7.442S4.255.629,16.541,0" transform="translate(1098.977 670.226) rotate(21)"/>
      <path id="Path_5794" data-name="Path 5794" class="cls-15" d="M0,7.442S4.255.629,16.541,0" transform="translate(1098.978 661.855) rotate(21)"/>
      <path id="Path_5795" data-name="Path 5795" class="cls-15" d="M0,7.441S4.254.628,16.541,0" transform="matrix(1, 0.017, -0.017, 1, 1097.161, 654.861)"/>
      <path id="Path_5797" data-name="Path 5797" class="cls-15" d="M0,7.442S4.254.629,16.54,0" transform="translate(1059.493 691.391) rotate(81)"/>
      <path id="Path_5798" data-name="Path 5798" class="cls-15" d="M0,7.441S4.254.629,16.541,0" transform="translate(1065.601 685.025) rotate(87)"/>
      <path id="Path_5799" data-name="Path 5799" class="cls-15" d="M0,7.442S4.254.629,16.541,0" transform="translate(1072.575 678.466) rotate(91)"/>
      <path id="Path_5800" data-name="Path 5800" class="cls-15" d="M0,7.441S4.253.628,16.539,0" transform="translate(1081.918 675.411) rotate(98)"/>
      <path id="Path_5801" data-name="Path 5801" class="cls-15" d="M0,7.442S4.253.629,16.54,0" transform="translate(1085.442 661.594) rotate(89)"/>
      <path id="Path_5802" data-name="Path 5802" class="cls-15" d="M0,7.442S4.254.629,16.541,0" transform="translate(1089.461 648.639) rotate(92)"/>
      <path id="Path_5803" data-name="Path 5803" class="cls-15" d="M0,7.442S4.255.629,16.541,0" transform="translate(1101.887 643.675) rotate(115)"/>
      <path id="Path_5804" data-name="Path 5804" class="cls-15" d="M0,4.623S2.556.391,9.934,0" transform="translate(1027.538 625.87) rotate(61)"/>
      <path id="Path_5805" data-name="Path 5805" class="cls-15" d="M0,4.623S2.556.391,9.934,0" transform="translate(1025.703 631.561) rotate(61)"/>
      <path id="Path_5806" data-name="Path 5806" class="cls-15" d="M0,4.623S2.556.391,9.934,0" transform="translate(1023.869 637.251) rotate(61)"/>
    </g>
    <g id="Group_7373" data-name="Group 7373" transform="translate(-53 -22.576)">
      <g id="Group_7372" data-name="Group 7372" transform="translate(407.977 383.801)">
        <g id="Group_5581" data-name="Group 5581" transform="translate(0)">
          <rect id="Rectangle_1565" data-name="Rectangle 1565" class="cls-16" width="178.274" height="17.509" transform="translate(11.883 53.873)"/>
          <path id="Path_3764" data-name="Path 3764" class="cls-17" d="M6.734,0H195.289a6.734,6.734,0,0,1,6.734,6.734v43.1a6.734,6.734,0,0,1-6.734,6.734H6.734A6.734,6.734,0,0,1,0,49.832V6.734A6.734,6.734,0,0,1,6.734,0Z" transform="translate(0)"/>
          <path id="Rectangle_1631" data-name="Rectangle 1631" class="cls-18" d="M4,0H74.075a0,0,0,0,1,0,0V56.566a0,0,0,0,1,0,0H4a4,4,0,0,1-4-4V4A4,4,0,0,1,4,0Z" transform="translate(0)"/>
        </g>
        <g id="Group_5710" data-name="Group 5710" transform="translate(109.973 16.597)">
          <g id="Group_5584" data-name="Group 5584" transform="translate(0 0)">
            <rect id="Rectangle_1405" data-name="Rectangle 1405" class="cls-19" width="7.964" height="7.964" rx="3.982"/>
            <rect id="Rectangle_1424" data-name="Rectangle 1424" class="cls-19" width="7.964" height="7.964" rx="3.982" transform="translate(9.557 15.929)"/>
            <rect id="Rectangle_1406" data-name="Rectangle 1406" class="cls-19" width="7.964" height="7.964" rx="3.982" transform="translate(15.929)"/>
            <rect id="Rectangle_1423" data-name="Rectangle 1423" class="cls-19" width="7.964" height="7.964" rx="3.982" transform="translate(25.486 15.929)"/>
            <rect id="Rectangle_1407" data-name="Rectangle 1407" class="cls-19" width="7.964" height="7.964" rx="3.982" transform="translate(31.857)"/>
            <rect id="Rectangle_1422" data-name="Rectangle 1422" class="cls-19" width="7.964" height="7.964" rx="3.982" transform="translate(41.414 15.929)"/>
          </g>
        </g>
        <g id="Ellipse_1404" data-name="Ellipse 1404" class="cls-20" transform="translate(174.249 23.149)">
          <circle class="cls-23" cx="5.44" cy="5.44" r="5.44"/>
          <circle class="cls-24" cx="5.44" cy="5.44" r="4.44"/>
        </g>
        <g id="Group_7371" data-name="Group 7371" transform="translate(90.06 14.279)">
          <rect id="Rectangle_3143" data-name="Rectangle 3143" class="cls-19" width="4.835" height="30.074" rx="2.418"/>
          <path id="Rectangle_3144" data-name="Rectangle 3144" class="cls-21" d="M0,0H4.835a0,0,0,0,1,0,0V9.274a2.418,2.418,0,0,1-2.418,2.418h0A2.418,2.418,0,0,1,0,9.274V0A0,0,0,0,1,0,0Z" transform="translate(0 18.381)"/>
        </g>
        <g id="Group_7370" data-name="Group 7370" transform="translate(19.837 14.279)">
          <g id="Group_7361" data-name="Group 7361" transform="translate(24.177 0)">
            <rect id="Rectangle_1425" data-name="Rectangle 1425" class="cls-6" width="7.988" height="8.306" rx="3.994" transform="translate(0 21.768)"/>
            <rect id="Rectangle_3140" data-name="Rectangle 3140" class="cls-5" width="3.627" height="17.742" rx="1.813" transform="translate(2.417)"/>
          </g>
          <g id="Group_7362" data-name="Group 7362" transform="translate(12.089 2.418)">
            <rect id="Rectangle_1442" data-name="Rectangle 1442" class="cls-22" width="7.988" height="8.306" rx="3.994" transform="translate(0 19.35)"/>
            <rect id="Rectangle_3141" data-name="Rectangle 3141" class="cls-22" width="3.627" height="15.324" rx="1.813" transform="translate(2.417)"/>
          </g>
          <g id="Group_7363" data-name="Group 7363" transform="translate(0 8.071)">
            <rect id="Rectangle_1425-2" data-name="Rectangle 1425" class="cls-21" width="7.988" height="8.306" rx="3.994" transform="translate(0 13.696)"/>
            <rect id="Rectangle_3142" data-name="Rectangle 3142" class="cls-21" width="3.627" height="9.671" rx="1.813" transform="translate(2.418)"/>
          </g>
        </g>
      </g>
      <g id="Group_7372-2" data-name="Group 7372" transform="translate(407.977 451.503)">
        <g id="Group_5581-2" data-name="Group 5581" transform="translate(0 0)">
          <rect id="Rectangle_1565-2" data-name="Rectangle 1565" class="cls-16" width="178.274" height="17.509" transform="translate(11.883 53.873)"/>
          <path id="Path_3764-2" data-name="Path 3764" class="cls-17" d="M6.734,0H195.289a6.734,6.734,0,0,1,6.734,6.734v43.1a6.734,6.734,0,0,1-6.734,6.734H6.734A6.734,6.734,0,0,1,0,49.832V6.734A6.734,6.734,0,0,1,6.734,0Z" transform="translate(0)"/>
          <path id="Rectangle_1631-2" data-name="Rectangle 1631" class="cls-18" d="M4,0H74.075a0,0,0,0,1,0,0V56.566a0,0,0,0,1,0,0H4a4,4,0,0,1-4-4V4A4,4,0,0,1,4,0Z" transform="translate(0)"/>
        </g>
        <g id="Group_5710-2" data-name="Group 5710" transform="translate(109.973 16.597)">
          <g id="Group_5584-2" data-name="Group 5584" transform="translate(0 0)">
            <rect id="Rectangle_1405-2" data-name="Rectangle 1405" class="cls-19" width="7.964" height="7.964" rx="3.982"/>
            <rect id="Rectangle_1424-2" data-name="Rectangle 1424" class="cls-19" width="7.964" height="7.964" rx="3.982" transform="translate(9.557 15.929)"/>
            <rect id="Rectangle_1406-2" data-name="Rectangle 1406" class="cls-19" width="7.964" height="7.964" rx="3.982" transform="translate(15.929)"/>
            <rect id="Rectangle_1423-2" data-name="Rectangle 1423" class="cls-19" width="7.964" height="7.964" rx="3.982" transform="translate(25.486 15.929)"/>
            <rect id="Rectangle_1407-2" data-name="Rectangle 1407" class="cls-19" width="7.964" height="7.964" rx="3.982" transform="translate(31.857)"/>
            <rect id="Rectangle_1422-2" data-name="Rectangle 1422" class="cls-19" width="7.964" height="7.964" rx="3.982" transform="translate(41.414 15.929)"/>
          </g>
        </g>
        <g id="Ellipse_1404-2" data-name="Ellipse 1404" class="cls-20" transform="translate(174.249 23.149)">
          <circle class="cls-23" cx="5.44" cy="5.44" r="5.44"/>
          <circle class="cls-24" cx="5.44" cy="5.44" r="4.44"/>
        </g>
        <g id="Group_7371-2" data-name="Group 7371" transform="translate(90.06 14.279)">
          <rect id="Rectangle_3143-2" data-name="Rectangle 3143" class="cls-19" width="4.835" height="30.074" rx="2.418"/>
          <path id="Rectangle_3144-2" data-name="Rectangle 3144" class="cls-21" d="M0,0H4.835a0,0,0,0,1,0,0V9.274a2.418,2.418,0,0,1-2.418,2.418h0A2.418,2.418,0,0,1,0,9.274V0A0,0,0,0,1,0,0Z" transform="translate(0 18.381)"/>
        </g>
        <g id="Group_7370-2" data-name="Group 7370" transform="translate(19.837 14.279)">
          <g id="Group_7361-2" data-name="Group 7361" transform="translate(24.177 0)">
            <rect id="Rectangle_1425-3" data-name="Rectangle 1425" class="cls-6" width="7.988" height="8.306" rx="3.994" transform="translate(0 21.768)"/>
            <rect id="Rectangle_3140-2" data-name="Rectangle 3140" class="cls-5" width="3.627" height="17.742" rx="1.813" transform="translate(2.417)"/>
          </g>
          <g id="Group_7362-2" data-name="Group 7362" transform="translate(12.089 2.418)">
            <rect id="Rectangle_1442-2" data-name="Rectangle 1442" class="cls-22" width="7.988" height="8.306" rx="3.994" transform="translate(0 19.35)"/>
            <rect id="Rectangle_3141-2" data-name="Rectangle 3141" class="cls-22" width="3.627" height="15.324" rx="1.813" transform="translate(2.417)"/>
          </g>
          <g id="Group_7363-2" data-name="Group 7363" transform="translate(0 8.071)">
            <rect id="Rectangle_1425-4" data-name="Rectangle 1425" class="cls-21" width="7.988" height="8.306" rx="3.994" transform="translate(0 13.696)"/>
            <rect id="Rectangle_3142-2" data-name="Rectangle 3142" class="cls-21" width="3.627" height="9.671" rx="1.813" transform="translate(2.418)"/>
          </g>
        </g>
      </g>
      <g id="Group_7372-3" data-name="Group 7372" transform="translate(407.977 519.206)">
        <g id="Group_5581-3" data-name="Group 5581" transform="translate(0)">
          <rect id="Rectangle_1565-3" data-name="Rectangle 1565" class="cls-16" width="178.274" height="17.509" transform="translate(11.883 53.873)"/>
          <path id="Path_3764-3" data-name="Path 3764" class="cls-17" d="M6.734,0H195.289a6.734,6.734,0,0,1,6.734,6.734v43.1a6.734,6.734,0,0,1-6.734,6.734H6.734A6.734,6.734,0,0,1,0,49.832V6.734A6.734,6.734,0,0,1,6.734,0Z" transform="translate(0)"/>
          <path id="Rectangle_1631-3" data-name="Rectangle 1631" class="cls-18" d="M4,0H74.075a0,0,0,0,1,0,0V56.566a0,0,0,0,1,0,0H4a4,4,0,0,1-4-4V4A4,4,0,0,1,4,0Z" transform="translate(0)"/>
        </g>
        <g id="Group_5710-3" data-name="Group 5710" transform="translate(109.973 16.597)">
          <g id="Group_5584-3" data-name="Group 5584" transform="translate(0 0)">
            <rect id="Rectangle_1405-3" data-name="Rectangle 1405" class="cls-19" width="7.964" height="7.964" rx="3.982"/>
            <rect id="Rectangle_1424-3" data-name="Rectangle 1424" class="cls-19" width="7.964" height="7.964" rx="3.982" transform="translate(9.557 15.929)"/>
            <rect id="Rectangle_1406-3" data-name="Rectangle 1406" class="cls-19" width="7.964" height="7.964" rx="3.982" transform="translate(15.929)"/>
            <rect id="Rectangle_1423-3" data-name="Rectangle 1423" class="cls-19" width="7.964" height="7.964" rx="3.982" transform="translate(25.486 15.929)"/>
            <rect id="Rectangle_1407-3" data-name="Rectangle 1407" class="cls-19" width="7.964" height="7.964" rx="3.982" transform="translate(31.857)"/>
            <rect id="Rectangle_1422-3" data-name="Rectangle 1422" class="cls-19" width="7.964" height="7.964" rx="3.982" transform="translate(41.414 15.929)"/>
          </g>
        </g>
        <g id="Ellipse_1404-3" data-name="Ellipse 1404" class="cls-20" transform="translate(174.249 23.149)">
          <circle class="cls-23" cx="5.44" cy="5.44" r="5.44"/>
          <circle class="cls-24" cx="5.44" cy="5.44" r="4.44"/>
        </g>
        <g id="Group_7371-3" data-name="Group 7371" transform="translate(90.06 14.279)">
          <rect id="Rectangle_3143-3" data-name="Rectangle 3143" class="cls-19" width="4.835" height="30.074" rx="2.418"/>
          <path id="Rectangle_3144-3" data-name="Rectangle 3144" class="cls-21" d="M0,0H4.835a0,0,0,0,1,0,0V9.274a2.418,2.418,0,0,1-2.418,2.418h0A2.418,2.418,0,0,1,0,9.274V0A0,0,0,0,1,0,0Z" transform="translate(0 18.381)"/>
        </g>
        <g id="Group_7370-3" data-name="Group 7370" transform="translate(19.837 14.279)">
          <g id="Group_7361-3" data-name="Group 7361" transform="translate(24.177 0)">
            <rect id="Rectangle_1425-5" data-name="Rectangle 1425" class="cls-6" width="7.988" height="8.306" rx="3.994" transform="translate(0 21.768)"/>
            <rect id="Rectangle_3140-3" data-name="Rectangle 3140" class="cls-5" width="3.627" height="17.742" rx="1.813" transform="translate(2.417)"/>
          </g>
          <g id="Group_7362-3" data-name="Group 7362" transform="translate(12.089 2.418)">
            <rect id="Rectangle_1442-3" data-name="Rectangle 1442" class="cls-22" width="7.988" height="8.306" rx="3.994" transform="translate(0 19.35)"/>
            <rect id="Rectangle_3141-3" data-name="Rectangle 3141" class="cls-22" width="3.627" height="15.324" rx="1.813" transform="translate(2.417)"/>
          </g>
          <g id="Group_7363-3" data-name="Group 7363" transform="translate(0 8.071)">
            <rect id="Rectangle_1425-6" data-name="Rectangle 1425" class="cls-21" width="7.988" height="8.306" rx="3.994" transform="translate(0 13.696)"/>
            <rect id="Rectangle_3142-3" data-name="Rectangle 3142" class="cls-21" width="3.627" height="9.671" rx="1.813" transform="translate(2.418)"/>
          </g>
        </g>
      </g>
      <g id="Group_7372-4" data-name="Group 7372" transform="translate(407.977 586.909)">
        <g id="Group_5581-4" data-name="Group 5581" transform="translate(0 0)">
          <rect id="Rectangle_1565-4" data-name="Rectangle 1565" class="cls-16" width="178.274" height="17.509" transform="translate(11.883 53.873)"/>
          <path id="Path_3764-4" data-name="Path 3764" class="cls-17" d="M6.734,0H195.289a6.734,6.734,0,0,1,6.734,6.734v43.1a6.734,6.734,0,0,1-6.734,6.734H6.734A6.734,6.734,0,0,1,0,49.832V6.734A6.734,6.734,0,0,1,6.734,0Z" transform="translate(0)"/>
          <path id="Rectangle_1631-4" data-name="Rectangle 1631" class="cls-18" d="M4,0H74.075a0,0,0,0,1,0,0V56.566a0,0,0,0,1,0,0H4a4,4,0,0,1-4-4V4A4,4,0,0,1,4,0Z" transform="translate(0)"/>
        </g>
        <g id="Group_5710-4" data-name="Group 5710" transform="translate(109.973 16.597)">
          <g id="Group_5584-4" data-name="Group 5584" transform="translate(0 0)">
            <rect id="Rectangle_1405-4" data-name="Rectangle 1405" class="cls-19" width="7.964" height="7.964" rx="3.982"/>
            <rect id="Rectangle_1424-4" data-name="Rectangle 1424" class="cls-19" width="7.964" height="7.964" rx="3.982" transform="translate(9.557 15.929)"/>
            <rect id="Rectangle_1406-4" data-name="Rectangle 1406" class="cls-19" width="7.964" height="7.964" rx="3.982" transform="translate(15.929)"/>
            <rect id="Rectangle_1423-4" data-name="Rectangle 1423" class="cls-19" width="7.964" height="7.964" rx="3.982" transform="translate(25.486 15.929)"/>
            <rect id="Rectangle_1407-4" data-name="Rectangle 1407" class="cls-19" width="7.964" height="7.964" rx="3.982" transform="translate(31.857)"/>
            <rect id="Rectangle_1422-4" data-name="Rectangle 1422" class="cls-19" width="7.964" height="7.964" rx="3.982" transform="translate(41.414 15.929)"/>
          </g>
        </g>
        <g id="Ellipse_1404-4" data-name="Ellipse 1404" class="cls-20" transform="translate(174.249 23.149)">
          <circle class="cls-23" cx="5.44" cy="5.44" r="5.44"/>
          <circle class="cls-24" cx="5.44" cy="5.44" r="4.44"/>
        </g>
        <g id="Group_7371-4" data-name="Group 7371" transform="translate(90.06 14.279)">
          <rect id="Rectangle_3143-4" data-name="Rectangle 3143" class="cls-19" width="4.835" height="30.074" rx="2.418"/>
          <path id="Rectangle_3144-4" data-name="Rectangle 3144" class="cls-21" d="M0,0H4.835a0,0,0,0,1,0,0V9.274a2.418,2.418,0,0,1-2.418,2.418h0A2.418,2.418,0,0,1,0,9.274V0A0,0,0,0,1,0,0Z" transform="translate(0 18.381)"/>
        </g>
        <g id="Group_7370-4" data-name="Group 7370" transform="translate(19.837 14.279)">
          <g id="Group_7361-4" data-name="Group 7361" transform="translate(24.177 0)">
            <rect id="Rectangle_1425-7" data-name="Rectangle 1425" class="cls-6" width="7.988" height="8.306" rx="3.994" transform="translate(0 21.768)"/>
            <rect id="Rectangle_3140-4" data-name="Rectangle 3140" class="cls-5" width="3.627" height="17.742" rx="1.813" transform="translate(2.417)"/>
          </g>
          <g id="Group_7362-4" data-name="Group 7362" transform="translate(12.089 2.418)">
            <rect id="Rectangle_1442-4" data-name="Rectangle 1442" class="cls-22" width="7.988" height="8.306" rx="3.994" transform="translate(0 19.35)"/>
            <rect id="Rectangle_3141-4" data-name="Rectangle 3141" class="cls-22" width="3.627" height="15.324" rx="1.813" transform="translate(2.417)"/>
          </g>
          <g id="Group_7363-4" data-name="Group 7363" transform="translate(0 8.071)">
            <rect id="Rectangle_1425-8" data-name="Rectangle 1425" class="cls-21" width="7.988" height="8.306" rx="3.994" transform="translate(0 13.696)"/>
            <rect id="Rectangle_3142-4" data-name="Rectangle 3142" class="cls-21" width="3.627" height="9.671" rx="1.813" transform="translate(2.418)"/>
          </g>
        </g>
      </g>
      <g id="Group_7372-5" data-name="Group 7372" transform="translate(407.977 654.612)">
        <g id="Group_5581-5" data-name="Group 5581" transform="translate(0)">
          <path id="Path_3764-5" data-name="Path 3764" class="cls-17" d="M6.734,0H195.289a6.734,6.734,0,0,1,6.734,6.734v43.1a6.734,6.734,0,0,1-6.734,6.734H6.734A6.734,6.734,0,0,1,0,49.832V6.734A6.734,6.734,0,0,1,6.734,0Z" transform="translate(0)"/>
          <path id="Rectangle_1631-5" data-name="Rectangle 1631" class="cls-18" d="M4,0H74.075a0,0,0,0,1,0,0V56.566a0,0,0,0,1,0,0H4a4,4,0,0,1-4-4V4A4,4,0,0,1,4,0Z" transform="translate(0)"/>
        </g>
        <g id="Group_5710-5" data-name="Group 5710" transform="translate(109.973 16.597)">
          <g id="Group_5584-5" data-name="Group 5584" transform="translate(0 0)">
            <rect id="Rectangle_1405-5" data-name="Rectangle 1405" class="cls-19" width="7.964" height="7.964" rx="3.982"/>
            <rect id="Rectangle_1424-5" data-name="Rectangle 1424" class="cls-19" width="7.964" height="7.964" rx="3.982" transform="translate(9.557 15.929)"/>
            <rect id="Rectangle_1406-5" data-name="Rectangle 1406" class="cls-19" width="7.964" height="7.964" rx="3.982" transform="translate(15.929)"/>
            <rect id="Rectangle_1423-5" data-name="Rectangle 1423" class="cls-19" width="7.964" height="7.964" rx="3.982" transform="translate(25.486 15.929)"/>
            <rect id="Rectangle_1407-5" data-name="Rectangle 1407" class="cls-19" width="7.964" height="7.964" rx="3.982" transform="translate(31.857)"/>
            <rect id="Rectangle_1422-5" data-name="Rectangle 1422" class="cls-19" width="7.964" height="7.964" rx="3.982" transform="translate(41.414 15.929)"/>
          </g>
        </g>
        <g id="Ellipse_1404-5" data-name="Ellipse 1404" class="cls-20" transform="translate(174.249 23.149)">
          <circle class="cls-23" cx="5.44" cy="5.44" r="5.44"/>
          <circle class="cls-24" cx="5.44" cy="5.44" r="4.44"/>
        </g>
        <g id="Group_7371-5" data-name="Group 7371" transform="translate(90.06 14.279)">
          <rect id="Rectangle_3143-5" data-name="Rectangle 3143" class="cls-19" width="4.835" height="30.074" rx="2.418"/>
          <path id="Rectangle_3144-5" data-name="Rectangle 3144" class="cls-21" d="M0,0H4.835a0,0,0,0,1,0,0V9.274a2.418,2.418,0,0,1-2.418,2.418h0A2.418,2.418,0,0,1,0,9.274V0A0,0,0,0,1,0,0Z" transform="translate(0 18.381)"/>
        </g>
        <g id="Group_7370-5" data-name="Group 7370" transform="translate(19.837 14.279)">
          <g id="Group_7361-5" data-name="Group 7361" transform="translate(24.177 0)">
            <rect id="Rectangle_1425-9" data-name="Rectangle 1425" class="cls-6" width="7.988" height="8.306" rx="3.994" transform="translate(0 21.768)"/>
            <rect id="Rectangle_3140-5" data-name="Rectangle 3140" class="cls-5" width="3.627" height="17.742" rx="1.813" transform="translate(2.417)"/>
          </g>
          <g id="Group_7362-5" data-name="Group 7362" transform="translate(12.089 2.418)">
            <rect id="Rectangle_1442-5" data-name="Rectangle 1442" class="cls-22" width="7.988" height="8.306" rx="3.994" transform="translate(0 19.35)"/>
            <rect id="Rectangle_3141-5" data-name="Rectangle 3141" class="cls-22" width="3.627" height="15.324" rx="1.813" transform="translate(2.417)"/>
          </g>
          <g id="Group_7363-5" data-name="Group 7363" transform="translate(0 8.071)">
            <rect id="Rectangle_1425-10" data-name="Rectangle 1425" class="cls-21" width="7.988" height="8.306" rx="3.994" transform="translate(0 13.696)"/>
            <rect id="Rectangle_3142-5" data-name="Rectangle 3142" class="cls-21" width="3.627" height="9.671" rx="1.813" transform="translate(2.418)"/>
          </g>
        </g>
      </g>
    </g>
  </g>
</svg>
