<?xml version="1.0" encoding="utf-8"?>
<!-- Generator: Adobe Illustrator 22.0.1, SVG Export Plug-In . SVG Version: 6.00 Build 0)  -->
<svg version="1.1" id="Layer_1" xmlns="http://www.w3.org/2000/svg" xmlns:xlink="http://www.w3.org/1999/xlink" x="0px" y="0px"
	 viewBox="0 0 180 150" style="enable-background:new 0 0 180 150;" xml:space="preserve">
<style type="text/css">
	.st0{opacity:0.3;fill:url(#Path_5639_1_);enable-background:new    ;}
	.st1{fill:#FFFFFF;}
	.st2{fill:none;stroke:#137FCF;stroke-width:2;}
	.st3{fill:#D6EEFF;}
	.st4{fill:#137FCF;}
	.st5{fill:none;}
	.st6{fill:#FFFFFF;stroke:#137FCF;stroke-width:2;}
</style>
<g id="Group_8038" transform="translate(-7187 -17863)">
	
		<linearGradient id="Path_5639_1_" gradientUnits="userSpaceOnUse" x1="6299.4287" y1="19423.7246" x2="6299.4287" y2="19422.7246" gradientTransform="matrix(-104.8145 104.8145 102.7151 102.7151 -1327514.375 -2637388.25)">
		<stop  offset="0" style="stop-color:#98CDF2"/>
		<stop  offset="1" style="stop-color:#D6EEFF"/>
	</linearGradient>
	<path id="Path_5639" class="st0" d="M7292,17988.1c-33.1,4.5-68.8,23.5-92.3-17.4c-23.5-40.9,18.1-102.9,84.8-94.2
		C7351.2,17885.2,7410.6,17978.6,7292,17988.1z"/>
	<g id="Group_6140" transform="translate(686.582 2339.973)">
		<g id="Group_5383" transform="translate(0 0)">
			<g id="Group_5297">
				<g id="Rectangle_2222" transform="translate(9.346 12.799)">
					<rect x="6553.2" y="15565.4" class="st1" width="56.1" height="42.7"/>
					<rect x="6554.2" y="15566.4" class="st2" width="54.1" height="40.7"/>
				</g>
				<g id="Rectangle_2216">
					<path class="st1" d="M6555.2,15565.4h70.8c1.1,0,2,0.9,2,2v13.1c0,1.1-0.9,2-2,2h-70.8c-1.1,0-2-0.9-2-2v-13.1
						C6553.2,15566.3,6554.1,15565.4,6555.2,15565.4z"/>
					<path class="st2" d="M6555.2,15566.4h70.8c0.6,0,1,0.4,1,1v13.1c0,0.6-0.4,1-1,1h-70.8c-0.6,0-1-0.4-1-1v-13.1
						C6554.2,15566.9,6554.7,15566.4,6555.2,15566.4z"/>
				</g>
				<g id="Rectangle_2217" transform="translate(0 24.177)">
					<path class="st1" d="M6555.2,15565.4h70.8c1.1,0,2,0.9,2,2v13.1c0,1.1-0.9,2-2,2h-70.8c-1.1,0-2-0.9-2-2v-13.1
						C6553.2,15566.3,6554.1,15565.4,6555.2,15565.4z"/>
					<path class="st2" d="M6555.2,15566.4h70.8c0.6,0,1,0.4,1,1v13.1c0,0.6-0.4,1-1,1h-70.8c-0.6,0-1-0.4-1-1v-13.1
						C6554.2,15566.9,6554.7,15566.4,6555.2,15566.4z"/>
				</g>
				<g id="Rectangle_2218" transform="translate(0 48.353)">
					<path class="st1" d="M6555.2,15565.4h70.8c1.1,0,2,0.9,2,2v13.1c0,1.1-0.9,2-2,2h-70.8c-1.1,0-2-0.9-2-2v-13.1
						C6553.2,15566.3,6554.1,15565.4,6555.2,15565.4z"/>
					<path class="st2" d="M6555.2,15566.4h70.8c0.6,0,1,0.4,1,1v13.1c0,0.6-0.4,1-1,1h-70.8c-0.6,0-1-0.4-1-1v-13.1
						C6554.2,15566.9,6554.7,15566.4,6555.2,15566.4z"/>
				</g>
				<path id="Rectangle_2219" class="st3" d="M6592.6,15565.4h32.4c1.1,0,2,0.9,2,2v13.1c0,1.1-0.9,2-2,2h-32.4l0,0V15565.4
					L6592.6,15565.4z"/>
				<path id="Rectangle_2220" class="st3" d="M6592.6,15589.6h32c1.1,0,2,0.9,2,2v13.1c0,1.1-0.9,2-2,2h-32l0,0V15589.6
					L6592.6,15589.6z"/>
				<path id="Rectangle_2221" class="st3" d="M6592.6,15613.8h32.4c1.1,0,2,0.9,2,2v13.1c0,1.1-0.9,2-2,2h-32.4l0,0V15613.8
					L6592.6,15613.8z"/>
				<circle id="Ellipse_1054" class="st4" cx="6617.6" cy="15622.3" r="2.1"/>
				<circle id="Ellipse_1057" class="st4" cx="6609.9" cy="15622.3" r="2.1"/>
				<g id="Rectangle_2225">
					<path class="st5" d="M6555.2,15565.4h70.8c1.1,0,2,0.9,2,2v13.1c0,1.1-0.9,2-2,2h-70.8c-1.1,0-2-0.9-2-2v-13.1
						C6553.2,15566.3,6554.1,15565.4,6555.2,15565.4z"/>
					<path class="st2" d="M6555.2,15566.4h70.8c0.6,0,1,0.4,1,1v13.1c0,0.6-0.4,1-1,1h-70.8c-0.6,0-1-0.4-1-1v-13.1
						C6554.2,15566.9,6554.7,15566.4,6555.2,15566.4z"/>
				</g>
				<g id="Rectangle_2226" transform="translate(0 24.177)">
					<path class="st5" d="M6555.2,15565.4h70.8c1.1,0,2,0.9,2,2v13.1c0,1.1-0.9,2-2,2h-70.8c-1.1,0-2-0.9-2-2v-13.1
						C6553.2,15566.3,6554.1,15565.4,6555.2,15565.4z"/>
					<path class="st2" d="M6555.2,15566.4h70.8c0.6,0,1,0.4,1,1v13.1c0,0.6-0.4,1-1,1h-70.8c-0.6,0-1-0.4-1-1v-13.1
						C6554.2,15566.9,6554.7,15566.4,6555.2,15566.4z"/>
				</g>
				<g id="Rectangle_2227" transform="translate(0 48.353)">
					<path class="st5" d="M6555.2,15565.4h70.8c1.1,0,2,0.9,2,2v13.1c0,1.1-0.9,2-2,2h-70.8c-1.1,0-2-0.9-2-2v-13.1
						C6553.2,15566.3,6554.1,15565.4,6555.2,15565.4z"/>
					<path class="st2" d="M6555.2,15566.4h70.8c0.6,0,1,0.4,1,1v13.1c0,0.6-0.4,1-1,1h-70.8c-0.6,0-1-0.4-1-1v-13.1
						C6554.2,15566.9,6554.7,15566.4,6555.2,15566.4z"/>
				</g>
				<circle id="Ellipse_1062" class="st4" cx="6617.6" cy="15598.1" r="2.1"/>
				<circle id="Ellipse_1063" class="st4" cx="6609.9" cy="15598.1" r="2.1"/>
				<circle id="Ellipse_1064" class="st4" cx="6617.6" cy="15574" r="2.1"/>
				<circle id="Ellipse_1065" class="st4" cx="6609.9" cy="15574" r="2.1"/>
			</g>
		</g>
	</g>
	<g id="Group_6141" transform="translate(663.432 2353.527)">
		<g id="ic_settings_black_24px">
			<path id="Path_4748" class="st6" d="M6600.1,15595.4c0.1-0.9,0.2-1.8,0.2-2.7c0-0.9-0.1-1.8-0.2-2.7l5.8-4.5
				c0.5-0.4,0.7-1.2,0.3-1.7l-5.5-9.5c-0.3-0.6-1-0.8-1.7-0.6l-6.8,2.7c-1.4-1.1-3-2-4.6-2.7l-1-7.2c-0.1-0.7-0.7-1.2-1.3-1.1h-10.9
				c-0.7,0-1.2,0.5-1.3,1.1l-1,7.2c-1.6,0.7-3.2,1.6-4.6,2.7l-6.8-2.7c-0.6-0.3-1.3,0-1.7,0.6l-5.5,9.5c-0.3,0.6-0.2,1.3,0.3,1.7
				l5.8,4.5c-0.1,0.9-0.2,1.8-0.2,2.7c0,0.9,0.1,1.8,0.2,2.7l-5.8,4.5c-0.5,0.4-0.7,1.2-0.3,1.7l5.5,9.5c0.3,0.6,1,0.8,1.7,0.6
				l6.8-2.7c1.4,1.1,3,2,4.6,2.7l1,7.2c0.1,0.7,0.7,1.2,1.3,1.1h10.9c0.7,0,1.2-0.5,1.3-1.1l1-7.2c1.6-0.7,3.2-1.6,4.6-2.7l6.8,2.7
				c0.6,0.3,1.3,0,1.7-0.6l5.5-9.5c0.3-0.6,0.2-1.3-0.3-1.7L6600.1,15595.4z"/>
		</g>
		<g id="Path_5643" transform="translate(14.329 15.282)">
			<path class="st3" d="M6565.4,15588.9c-3,0-5.8-1.2-7.9-3.3s-3.3-4.9-3.3-7.9s1.2-5.8,3.3-7.9s4.9-3.3,7.9-3.3s5.8,1.2,7.9,3.3
				s3.3,4.9,3.3,7.9s-1.2,5.8-3.3,7.9S6568.4,15588.9,6565.4,15588.9z"/>
			<path class="st4" d="M6565.4,15587.9c5.6,0,10.2-4.6,10.2-10.2s-4.6-10.2-10.2-10.2s-10.2,4.6-10.2,10.2
				S6559.8,15587.9,6565.4,15587.9 M6565.4,15589.9c-6.8,0-12.2-5.5-12.2-12.2c0-6.8,5.5-12.2,12.2-12.2c6.8,0,12.2,5.5,12.2,12.2
				C6577.7,15584.4,6572.2,15589.9,6565.4,15589.9z"/>
		</g>
	</g>
</g>
</svg>
