<?xml version="1.0" encoding="utf-8"?>
<!-- Generator: Adobe Illustrator 22.0.1, SVG Export Plug-In . SVG Version: 6.00 Build 0)  -->
<svg version="1.1" id="Layer_1" xmlns="http://www.w3.org/2000/svg" xmlns:xlink="http://www.w3.org/1999/xlink" x="0px" y="0px"
	 viewBox="0 0 180 150" style="enable-background:new 0 0 180 150;" xml:space="preserve">
<style type="text/css">
	.st0{opacity:0.3;fill:#C6E6FF;enable-background:new    ;}
	.st1{fill:#D6EEFF;stroke:#137FCF;stroke-width:2;}
	.st2{fill:#FFFFFF;stroke:#137FCF;stroke-width:2;}
	.st3{fill:#D6EEFF;}
	.st4{fill:#137FCF;}
	.st5{fill:none;stroke:#137FCF;stroke-width:2;}
</style>
<g id="Group_8031" transform="translate(-15375 -17863)">
	<path id="Path_5693" class="st0" d="M15465.7,17888.1c29.6,11.7,86.7,4.6,81.8,44.8c-4.9,40.2-13,68.9-51.2,58s-38.7,3.6-83.4,2.3
		C15368.2,17991.8,15360.2,17847,15465.7,17888.1z"/>
	<g id="Group_6173" transform="translate(-7.545 53)">
		<g id="Group_6171" transform="translate(1120 4701)">
			<g id="Group_6169" transform="translate(0 0)">
				<g id="briefcase">
					<path id="Rectangle_2858" class="st1" d="M14317,13164.7h69.8c0.6,0,1,0.4,1,1v51.2c0,0.6-0.4,1-1,1h-69.8c-0.6,0-1-0.4-1-1
						v-51.2C14316,13165.1,14316.4,13164.7,14317,13164.7z"/>
					<path id="Rectangle_2859" class="st2" d="M14313.5,13164.7h76.7c0.6,0,1,0.4,1,1v30.4c0,0.6-0.4,1-1,1h-76.7c-0.6,0-1-0.4-1-1
						v-30.4C14312.5,13165.1,14312.9,13164.7,14313.5,13164.7z"/>
					<g id="Group_6167" transform="translate(36.278 39.021)">
						<path id="Path_5655" class="st2" d="M14317.3,13163.2h-2.4c-1.3,0-2.4-1.1-2.4-2.4v-4.8c0-1.3,1.1-2.4,2.4-2.4h2.4
							c1.3,0,2.4,1.1,2.4,2.4v4.8C14319.8,13162.1,14318.7,13163.2,14317.3,13163.2z"/>
					</g>
					<g id="Group_6170" transform="translate(25.324)">
						<g id="Group_6168">
							<g id="Path_5656" transform="translate(-151.996 -28)">
								<path class="st3" d="M14466.7,13188.5c-1.4,0-2.6-0.9-3-2.3c-0.2-0.8-0.2-1.7,0.2-2.4s1.1-1.3,1.9-1.5
									c3.8-1.1,8.2-1.7,12.9-1.7c4.7,0,9.1,0.6,12.9,1.7c1.7,0.5,2.6,2.3,2.1,4c-0.4,1.3-1.7,2.3-3,2.3c-0.3,0-0.6,0-0.9-0.1
									c-3.2-1-7-1.5-11-1.5s-7.9,0.5-11,1.5C14467.3,13188.4,14467,13188.5,14466.7,13188.5z"/>
								<path class="st4" d="M14466.7,13187.5c0.2,0,0.4,0,0.6-0.1c3.3-1,7.2-1.5,11.3-1.5s8.1,0.5,11.3,1.5
									c0.2,0.1,0.4,0.1,0.6,0.1c0.9,0,1.8-0.6,2.1-1.5c0.3-1.2-0.3-2.4-1.5-2.7c-3.7-1.1-8-1.7-12.6-1.7c-4.6,0-8.9,0.6-12.6,1.7
									c-1.2,0.3-1.8,1.6-1.5,2.7C14464.9,13186.9,14465.7,13187.5,14466.7,13187.5 M14466.7,13189.5L14466.7,13189.5
									c-0.9,0-1.8-0.3-2.5-0.8c-0.7-0.5-1.3-1.3-1.5-2.2c-0.3-1.1-0.2-2.2,0.3-3.2s1.4-1.7,2.5-2c3.9-1.2,8.4-1.8,13.2-1.8
									c4.8,0,9.3,0.6,13.2,1.8c2.2,0.7,3.5,3,2.8,5.2c-0.3,0.9-0.8,1.6-1.5,2.2c-0.7,0.5-1.6,0.8-2.5,0.8c-0.4,0-0.8-0.1-1.2-0.2
									c-3.1-0.9-6.8-1.4-10.8-1.4s-7.7,0.5-10.8,1.4C14467.5,13189.4,14467.1,13189.5,14466.7,13189.5z"/>
							</g>
						</g>
						<line id="Line_318" class="st5" x1="14320.2" y1="13159.5" x2="14320.2" y2="13165.3"/>
						<line id="Line_319" class="st5" x1="14334" y1="13159.5" x2="14334" y2="13165.3"/>
					</g>
				</g>
			</g>
		</g>
	</g>
</g>
</svg>
