<svg xmlns="http://www.w3.org/2000/svg" xmlns:xlink="http://www.w3.org/1999/xlink" viewBox="6760.296 -16361 536.105 460.529">
  <defs>
    <style>
      .cls-1 {
        fill: url(#linear-gradient);
      }

      .cls-2, .cls-5 {
        fill: #005b9f;
      }

      .cls-3 {
        fill: #063867;
      }

      .cls-4 {
        fill: #024679;
      }

      .cls-5 {
        opacity: 0.573;
      }

      .cls-6 {
        opacity: 0.5;
      }

      .cls-19, .cls-7 {
        fill: #1f364c;
      }

      .cls-8 {
        fill: #043c67;
      }

      .cls-9 {
        fill: none;
        stroke: #1f364c;
        stroke-linecap: round;
        stroke-miterlimit: 10;
        stroke-width: 4px;
      }

      .cls-10 {
        fill: #166eaf;
      }

      .cls-11 {
        fill: #21e2e2;
      }

      .cls-12 {
        fill: #ffbc98;
      }

      .cls-13 {
        fill: #288ed9;
      }

      .cls-14 {
        fill: #137fcf;
      }

      .cls-15 {
        fill: #164571;
      }

      .cls-16 {
        fill: #0e71bb;
      }

      .cls-17 {
        fill: #52acea;
      }

      .cls-18 {
        opacity: 0.623;
      }

      .cls-19 {
        opacity: 0.7;
      }

      .cls-20 {
        fill: #30a3d1;
      }

      .cls-21 {
        fill: #ffe7cb;
      }

      .cls-22 {
        fill: url(#linear-gradient-2);
      }

      .cls-23 {
        fill: #fca576;
      }

      .cls-24 {
        fill: #80c9ff;
      }
    </style>
    <linearGradient id="linear-gradient" x1="0.578" y1="-0.092" x2="0.568" y2="1.227" gradientUnits="objectBoundingBox">
      <stop offset="0" stop-color="#c6e6ff"/>
      <stop offset="1" stop-color="#d6eeff" stop-opacity="0"/>
    </linearGradient>
    <linearGradient id="linear-gradient-2" x1="0.5" y1="0.5" x2="0.5" y2="-0.369" gradientUnits="objectBoundingBox">
      <stop offset="0" stop-color="#005b9f" stop-opacity="0.29"/>
      <stop offset="1" stop-color="#002e50" stop-opacity="0.29"/>
    </linearGradient>
  </defs>
  <g id="Group_8047" data-name="Group 8047" transform="translate(6615 -17863)">
    <g id="Group_7335" data-name="Group 7335" transform="translate(0 12)">
      <g id="Group_7323" data-name="Group 7323">
        <path id="Path_5960" data-name="Path 5960" class="cls-1" d="M91.556,336S29.449,281.313,5.419,232.411,32,103.931,32,103.931h0c48.456-74.325.575-84.573,110.36-119.047S418.783,12.833,423.926,13.8c66.967,12.807,69.249,63.693,83.736,97.74s49.3,65.77,7.49,131.444-52.724,118.3-126.287,114.354-148.826,25.635-204.613,18.412C128.465,368.621,113.021,352.854,91.556,336Z" transform="translate(680.348 1883.461) rotate(180)"/>
      </g>
      <rect id="Rectangle_3122" data-name="Rectangle 3122" class="cls-2" width="241" height="372" rx="5" transform="translate(340 1490)"/>
      <g id="Group_7297_2_" transform="translate(488.063 2992.049)">
        <path id="Rectangle_3103_2_" class="cls-3" d="M-133-1484.8H75a.945.945,0,0,1,1,1v349.2a1,1,0,0,1-1,1H-133a.945.945,0,0,1-1-1v-349.2A1,1,0,0,1-133-1484.8Z"/>
      </g>
      <g id="Group_7322_2_" transform="translate(-4515.906 22326.309)">
        <g id="Group_7321_2_" transform="translate(5033 -19267)">
          <path id="Rectangle_3110_2_" class="cls-4" d="M-123-1504.4H-2a10.029,10.029,0,0,1,10,10v244a10.029,10.029,0,0,1-10,10H-123a10.029,10.029,0,0,1-10-10v-244A10.029,10.029,0,0,1-123-1504.4Z"/>
          <path id="Rectangle_3111_2_" class="cls-5" d="M-133-1494.4a10.029,10.029,0,0,1,10-10h65v264h-65a10.029,10.029,0,0,1-10-10Z"/>
          <g id="Group_7306_2_" class="cls-6" transform="translate(38.943 16.476)">
            <rect id="Rectangle_3077_2_" class="cls-7" width="64" height="2" transform="translate(-133.9 -1503.9)"/>
            <rect id="Rectangle_3078_2_" class="cls-7" width="64" height="2" transform="translate(-133.9 -1497.9)"/>
            <rect id="Rectangle_3079_2_" class="cls-7" width="64" height="2" transform="translate(-133.9 -1491.9)"/>
            <rect id="Rectangle_3080_2_" class="cls-7" width="64" height="2" transform="translate(-133.9 -1485.9)"/>
            <rect id="Rectangle_3090_2_" class="cls-7" width="64" height="2" transform="translate(-133.9 -1479.9)"/>
          </g>
          <g id="Group_7307_2_" class="cls-6" transform="translate(38.194 227.665)">
            <rect id="Rectangle_3077-2_2_" class="cls-7" width="64" height="2" transform="translate(-133.2 -1504.1)"/>
            <rect id="Rectangle_3078-2_2_" class="cls-7" width="64" height="2" transform="translate(-133.2 -1498.1)"/>
            <rect id="Rectangle_3079-2_2_" class="cls-7" width="64" height="2" transform="translate(-133.2 -1492.1)"/>
            <rect id="Rectangle_3080-2_2_" class="cls-7" width="64" height="2" transform="translate(-133.2 -1486.1)"/>
          </g>
          <rect id="Rectangle_3112_2_" class="cls-8" width="75" height="139" transform="translate(-95 -1444.4)"/>
          <g id="Group_7308_2_" transform="translate(40.075 69.526)">
            <path id="Path_3440_2_" class="cls-9" d="M-98.1-1500.9v16.7c0,3.5,1.8,5.1,5,5,.8-.1,2.3-.1,4.8-.1,3.2,0,4.1,2.1,4.1,5.5v1.5l.1,96.3"/>
            <path id="Path_3441_2_" class="cls-9" d="M-103.1-1494.9v7c0,3.4,1.8,5,5,5h4.8c3.2,0,4.1,2,4.1,5.5l.1,101.5"/>
            <path id="Path_3442_2_" class="cls-9" d="M-89.1-1501.9v12.8c0,2.9,1.6,4.3,4.4,4.2.7,0,5.8-.1,8.1-.1,2.7,0,3.6,1.7,3.6,4.7v5.4"/>
            <path id="Path_3444_2_" class="cls-9" d="M-61.1-1503.9H-93c-3.4,0-5,1.8-5,5,0,.8.1,2.3.1,4.9"/>
            <path id="Path_3445_2_" class="cls-9" d="M-103-1493.1c0-2.6,0-4,.1-4.9.1-3.2-1.5-5-5-5H-133"/>
            <path id="Path_3448_2_" class="cls-9" d="M-123.1-1503.9v65.3c0,3.5,1.8,5.1,5,5,.8,0,2.3-.1,4.9-.1,3.1,0,4.1,2.1,4.1,5.5v51.5h0"/>
            <path id="Path_3449_2_" class="cls-9" d="M-118.1-1503.9v21.6c0,3.5,1.8,5.1,5,5,.8,0,2.3-.1,4.9-.1,3.1,0,4.1,2.1,4.1,5.5v44"/>
            <path id="Path_3450_2_" class="cls-9" d="M-114.1-1502.9v82.5c0,3.5,1.8,5.1,5,5,.8,0,2.3-.1,4.9-.1,3.2,0,4.1,2.1,4.1,5.5v34"/>
          </g>
          <g id="Group_7318_2_" transform="translate(22.634 125.343)">
            <path id="Rectangle_3083_2_" class="cls-10" d="M-133.6-1474.9v-25a4.481,4.481,0,0,1,4.5-4.5h0a4.481,4.481,0,0,1,4.5,4.5v25a4.481,4.481,0,0,1-4.5,4.5h0A4.481,4.481,0,0,1-133.6-1474.9Z"/>
            <path id="Rectangle_3084_2_" class="cls-2" d="M-129.6-1481.5v-10.9a2.006,2.006,0,0,1,2-2h0a2.006,2.006,0,0,1,2,2v10.9a2.006,2.006,0,0,1-2,2h0A2.006,2.006,0,0,1-129.6-1481.5Z"/>
          </g>
          <g id="Group_7319_2_" transform="translate(58.692 215.181)">
            <g id="Group_7153_2_">
              <path id="Rectangle_1425_2_" class="cls-11" d="M-131.2-1503.9h0a2.476,2.476,0,0,1,2.5,2.5v.3a2.476,2.476,0,0,1-2.5,2.5h-.1a2.476,2.476,0,0,1-2.5-2.5v-.3A2.7,2.7,0,0,1-131.2-1503.9Z"/>
              <path id="Rectangle_1442_2_" class="cls-12" d="M-123.2-1503.9h0a2.476,2.476,0,0,1,2.5,2.5v.3a2.476,2.476,0,0,1-2.5,2.5h-.1a2.476,2.476,0,0,1-2.5-2.5v-.3A2.7,2.7,0,0,1-123.2-1503.9Z"/>
            </g>
            <g id="Group_7154_2_" transform="translate(14.234)">
              <path id="Rectangle_1425-2_2_" class="cls-13" d="M-130.5-1503.9h0a2.476,2.476,0,0,1,2.5,2.5v.3a2.476,2.476,0,0,1-2.5,2.5h-.1a2.476,2.476,0,0,1-2.5-2.5v-.3A2.869,2.869,0,0,1-130.5-1503.9Z"/>
              <path id="Rectangle_1442-2_2_" class="cls-14" d="M-123.5-1503.9h0a2.476,2.476,0,0,1,2.5,2.5v.3a2.476,2.476,0,0,1-2.5,2.5h-.1a2.476,2.476,0,0,1-2.5-2.5v-.3A2.869,2.869,0,0,1-123.5-1503.9Z"/>
              <path id="Rectangle_3070_2_" class="cls-13" d="M-116.5-1503.9h0a2.476,2.476,0,0,1,2.5,2.5v.3a2.476,2.476,0,0,1-2.5,2.5h-.1a2.476,2.476,0,0,1-2.5-2.5v-.3A2.869,2.869,0,0,1-116.5-1503.9Z"/>
            </g>
          </g>
          <g id="Group_7320_2_" transform="translate(20.498 102.972)">
            <g id="Group_7153-2_2_">
              <path id="Rectangle_1425-3_2_" class="cls-11" d="M-131.6-1503.8h0c.9,0,1.7.7,1.1,1.7v.1a1.133,1.133,0,0,1-1.1,1.7h0a2.012,2.012,0,0,1-1.9-1.7v-.1A1.934,1.934,0,0,1-131.6-1503.8Z"/>
              <path id="Rectangle_1442-3_2_" class="cls-12" d="M-126.8-1503.8h0c.9,0,1.7.7,1.3,1.7v.1a1.262,1.262,0,0,1-1.3,1.7h0a1.685,1.685,0,0,1-1.7-1.7v-.1A1.75,1.75,0,0,1-126.8-1503.8Z"/>
            </g>
            <g id="Group_7154-2_2_" transform="translate(0.003)">
              <path id="Rectangle_1425-4_2_" class="cls-13" d="M-131.6-1499.3h0c.9,0,1.7.7,1.1,1.7v.1a1.133,1.133,0,0,1-1.1,1.7h0a2.012,2.012,0,0,1-1.9-1.7v-.1A2.025,2.025,0,0,1-131.6-1499.3Z"/>
              <path id="Rectangle_1442-4_2_" class="cls-14" d="M-126.8-1499.3h0c.9,0,1.7.7,1.3,1.7v.1c.4.9-.3,1.7-1.3,1.7h0a1.685,1.685,0,0,1-1.7-1.7v-.1A1.828,1.828,0,0,1-126.8-1499.3Z"/>
              <path id="Rectangle_3070-2_2_" class="cls-13" d="M-122-1499.3h0a1.431,1.431,0,0,1,1.5,1.7v.1a1.526,1.526,0,0,1-1.5,1.7h0a1.431,1.431,0,0,1-1.5-1.7v-.1A1.425,1.425,0,0,1-122-1499.3Z"/>
              <path id="Rectangle_3085_2_" class="cls-13" d="M-122-1503.8h0a1.431,1.431,0,0,1,1.5,1.7v.1a1.526,1.526,0,0,1-1.5,1.7h0a1.431,1.431,0,0,1-1.5-1.7v-.1A1.39,1.39,0,0,1-122-1503.8Z"/>
            </g>
            <g id="Group_7201_2_" transform="translate(0 8.987)">
              <path id="Rectangle_1425-5_2_" class="cls-11" d="M-131.6-1503.8h0c.9,0,1.7.7,1.1,1.7v.1a1.133,1.133,0,0,1-1.1,1.7h0a2.012,2.012,0,0,1-1.9-1.7v-.1A1.934,1.934,0,0,1-131.6-1503.8Z"/>
              <path id="Rectangle_1442-5_2_" class="cls-13" d="M-126.8-1503.8h0c.9,0,1.7.7,1.3,1.7v.1a1.262,1.262,0,0,1-1.3,1.7h0a1.685,1.685,0,0,1-1.7-1.7v-.1A1.75,1.75,0,0,1-126.8-1503.8Z"/>
            </g>
            <g id="Group_7202_2_" transform="translate(0.003 8.987)">
              <path id="Rectangle_1425-6_2_" class="cls-13" d="M-131.6-1499.3h0c.9,0,1.7.7,1.1,1.7v.1a1.133,1.133,0,0,1-1.1,1.7h0a2.012,2.012,0,0,1-1.9-1.7v-.1A2.025,2.025,0,0,1-131.6-1499.3Z"/>
              <path id="Rectangle_1442-6_2_" class="cls-14" d="M-126.8-1499.3h0c.9,0,1.7.7,1.3,1.7v.1c.4.9-.3,1.7-1.3,1.7h0a1.685,1.685,0,0,1-1.7-1.7v-.1A1.828,1.828,0,0,1-126.8-1499.3Z"/>
              <path id="Rectangle_3070-3_2_" class="cls-13" d="M-122-1499.3h0a1.431,1.431,0,0,1,1.5,1.7v.1a1.526,1.526,0,0,1-1.5,1.7h0a1.431,1.431,0,0,1-1.5-1.7v-.1A1.425,1.425,0,0,1-122-1499.3Z"/>
              <path id="Rectangle_3085-2_2_" class="cls-13" d="M-122-1503.8h0a1.431,1.431,0,0,1,1.5,1.7v.1a1.526,1.526,0,0,1-1.5,1.7h0a1.431,1.431,0,0,1-1.5-1.7v-.1A1.39,1.39,0,0,1-122-1503.8Z"/>
            </g>
          </g>
        </g>
      </g>
      <g id="Group_7324" data-name="Group 7324" transform="translate(153.094 1497.922)">
        <rect id="Rectangle_3113" data-name="Rectangle 3113" class="cls-15" width="83" height="7" transform="translate(328 57)"/>
        <path id="Path_6085" data-name="Path 6085" class="cls-16" d="M411,33H328a2.946,2.946,0,0,0-3,3V56a2.946,2.946,0,0,0,3,3h83Z"/>
        <path id="Path_5065-9_20_" class="cls-2" d="M327.6,33H359V59H327.6a2.582,2.582,0,0,1-2.6-2.6V35.6a2.647,2.647,0,0,1,2.6-2.6Z"/>
        <g id="Group_115-9_20_" transform="translate(10.111 10.604)">
          <path id="Rectangle_1425-15_20_" class="cls-11" d="M327.4,33.7h0a2.476,2.476,0,0,1,2.5,2.5v.2a2.476,2.476,0,0,1-2.5,2.5h0a2.476,2.476,0,0,1-2.5-2.5v-.2A2.476,2.476,0,0,1,327.4,33.7Z"/>
          <path id="Rectangle_1442-15_20_" class="cls-12" d="M335.4,33.7h0a2.476,2.476,0,0,1,2.5,2.5v.2a2.476,2.476,0,0,1-2.5,2.5h0a2.476,2.476,0,0,1-2.5-2.5v-.2A2.476,2.476,0,0,1,335.4,33.7Z"/>
        </g>
        <g id="Group_5709-9_20_" transform="translate(40.013 7.51)">
          <g id="Group_5584-9_20_">
            <path id="Rectangle_1405-9_20_" class="cls-17" d="M326.8,33.5h0a1.793,1.793,0,0,1,1.8,1.8h0a1.793,1.793,0,0,1-1.8,1.8h0a1.793,1.793,0,0,1-1.8-1.8h0A1.733,1.733,0,0,1,326.8,33.5Z"/>
            <path id="Rectangle_1424-9_20_" class="cls-17" d="M331.1,40.8h0a1.793,1.793,0,0,1,1.8,1.8h0a1.793,1.793,0,0,1-1.8,1.8h0a1.793,1.793,0,0,1-1.8-1.8h0A1.792,1.792,0,0,1,331.1,40.8Z"/>
            <path id="Rectangle_1410-9_20_" class="cls-17" d="M362.9,33.5h0a1.793,1.793,0,0,1,1.8,1.8h0a1.793,1.793,0,0,1-1.8,1.8h0a1.793,1.793,0,0,1-1.8-1.8h0A1.793,1.793,0,0,1,362.9,33.5Z"/>
            <path id="Rectangle_1419-9_20_" class="cls-17" d="M367.3,40.8h0a1.793,1.793,0,0,1,1.8,1.8h0a1.793,1.793,0,0,1-1.8,1.8h0a1.793,1.793,0,0,1-1.8-1.8h0A1.733,1.733,0,0,1,367.3,40.8Z"/>
            <path id="Rectangle_1406-9_20_" class="cls-17" d="M334,33.5h0a1.793,1.793,0,0,1,1.8,1.8h0a1.793,1.793,0,0,1-1.8,1.8h0a1.793,1.793,0,0,1-1.8-1.8h0A1.793,1.793,0,0,1,334,33.5Z"/>
            <path id="Rectangle_1423-9_20_" class="cls-17" d="M338.3,40.8h0a1.793,1.793,0,0,1,1.8,1.8h0a1.793,1.793,0,0,1-1.8,1.8h0a1.793,1.793,0,0,1-1.8-1.8h0A1.793,1.793,0,0,1,338.3,40.8Z"/>
            <path id="Rectangle_1407-9_20_" class="cls-17" d="M341.2,33.5h0a1.793,1.793,0,0,1,1.8,1.8h0a1.793,1.793,0,0,1-1.8,1.8h0a1.793,1.793,0,0,1-1.8-1.8h0A1.792,1.792,0,0,1,341.2,33.5Z"/>
            <path id="Rectangle_1422-9_20_" class="cls-17" d="M345.6,40.8h0a1.793,1.793,0,0,1,1.8,1.8h0a1.793,1.793,0,0,1-1.8,1.8h0a1.793,1.793,0,0,1-1.8-1.8h0A1.733,1.733,0,0,1,345.6,40.8Z"/>
            <path id="Rectangle_1408-9_20_" class="cls-17" d="M348.4,33.5h0a1.793,1.793,0,0,1,1.8,1.8h0a1.793,1.793,0,0,1-1.8,1.8h0a1.793,1.793,0,0,1-1.8-1.8h0A1.859,1.859,0,0,1,348.4,33.5Z"/>
            <path id="Rectangle_1421-9_20_" class="cls-17" d="M352.8,40.8h0a1.793,1.793,0,0,1,1.8,1.8h0a1.793,1.793,0,0,1-1.8,1.8h0a1.793,1.793,0,0,1-1.8-1.8h0A1.793,1.793,0,0,1,352.8,40.8Z"/>
            <path id="Rectangle_1409-9_20_" class="cls-17" d="M355.7,33.5h0a1.793,1.793,0,0,1,1.8,1.8h0a1.793,1.793,0,0,1-1.8,1.8h0a1.793,1.793,0,0,1-1.8-1.8h0A1.792,1.792,0,0,1,355.7,33.5Z"/>
            <path id="Rectangle_1420-9_20_" class="cls-17" d="M360,40.8h0a1.793,1.793,0,0,1,1.8,1.8h0a1.793,1.793,0,0,1-1.8,1.8h0a1.793,1.793,0,0,1-1.8-1.8h0A1.793,1.793,0,0,1,360,40.8Z"/>
          </g>
        </g>
      </g>
      <g id="Group_7296_2_" transform="translate(-226.906 1466.922)">
        <rect id="Rectangle_3107_2_" class="cls-2" width="30" height="36" transform="translate(437 189)"/>
        <g id="Group_7285_2_" transform="translate(187 1274.74)">
          <g id="Group_7153-3_2_" transform="translate(419.371 439.758)">
            <path id="Rectangle_1425-17_2_" class="cls-11" d="M-161.1-1518.8h0a1.629,1.629,0,0,1,1.7,2.2v.2a1.629,1.629,0,0,1-1.7,2.2h0a2.38,2.38,0,0,1-2.3-2.2v-.2A2.38,2.38,0,0,1-161.1-1518.8Z"/>
            <path id="Rectangle_1442-17_2_" class="cls-12" d="M-154.6-1518.8h0a2.22,2.22,0,0,1,2.2,2.2v.2a2.22,2.22,0,0,1-2.2,2.2h0a1.722,1.722,0,0,1-1.8-2.2v-.2A1.722,1.722,0,0,1-154.6-1518.8Z"/>
          </g>
          <g id="Group_7154-3_2_" transform="translate(419.375 439.758)">
            <path id="Rectangle_1425-18_2_" class="cls-13" d="M-161.1-1512.8h0a1.629,1.629,0,0,1,1.7,2.2v.2a1.629,1.629,0,0,1-1.7,2.2h0a2.38,2.38,0,0,1-2.3-2.2v-.2A2.38,2.38,0,0,1-161.1-1512.8Z"/>
            <path id="Rectangle_1442-18_2_" class="cls-14" d="M-154.6-1512.8h0a2.22,2.22,0,0,1,2.2,2.2v.2a2.22,2.22,0,0,1-2.2,2.2h0a1.722,1.722,0,0,1-1.8-2.2v-.2A1.722,1.722,0,0,1-154.6-1512.8Z"/>
            <path id="Rectangle_3070-4_2_" class="cls-13" d="M-148.3-1512.8h0a1.827,1.827,0,0,1,1.9,2.2v.2a1.827,1.827,0,0,1-1.9,2.2h0a2.075,2.075,0,0,1-2.1-2.2v-.2A2.075,2.075,0,0,1-148.3-1512.8Z"/>
            <path id="Rectangle_3085-3_2_" class="cls-13" d="M-148.3-1518.8h0a1.827,1.827,0,0,1,1.9,2.2v.2a1.827,1.827,0,0,1-1.9,2.2h0a2.075,2.075,0,0,1-2.1-2.2v-.2A2.075,2.075,0,0,1-148.3-1518.8Z"/>
          </g>
          <g id="Group_7201-2_2_" transform="translate(419.371 451.758)">
            <path id="Rectangle_1425-19_2_" class="cls-11" d="M-161.1-1518.8h0a1.629,1.629,0,0,1,1.7,2.2v.2a1.629,1.629,0,0,1-1.7,2.2h0a2.38,2.38,0,0,1-2.3-2.2v-.2A2.38,2.38,0,0,1-161.1-1518.8Z"/>
            <path id="Rectangle_1442-19_2_" class="cls-13" d="M-154.6-1518.8h0a2.22,2.22,0,0,1,2.2,2.2v.2a2.22,2.22,0,0,1-2.2,2.2h0a1.722,1.722,0,0,1-1.8-2.2v-.2A1.722,1.722,0,0,1-154.6-1518.8Z"/>
          </g>
          <g id="Group_7202-2_2_" transform="translate(419.375 451.758)">
            <path id="Rectangle_1425-20_2_" class="cls-13" d="M-161.1-1512.8h0a1.629,1.629,0,0,1,1.7,2.2v.2a1.629,1.629,0,0,1-1.7,2.2h0a2.38,2.38,0,0,1-2.3-2.2v-.2A2.38,2.38,0,0,1-161.1-1512.8Z"/>
            <path id="Rectangle_1442-20_2_" class="cls-14" d="M-154.6-1512.8h0a2.22,2.22,0,0,1,2.2,2.2v.2a2.22,2.22,0,0,1-2.2,2.2h0a1.722,1.722,0,0,1-1.8-2.2v-.2A1.722,1.722,0,0,1-154.6-1512.8Z"/>
            <path id="Rectangle_3070-5_2_" class="cls-13" d="M-148.3-1512.8h0a1.827,1.827,0,0,1,1.9,2.2v.2a1.827,1.827,0,0,1-1.9,2.2h0a2.075,2.075,0,0,1-2.1-2.2v-.2A2.075,2.075,0,0,1-148.3-1512.8Z"/>
            <path id="Rectangle_3085-4_2_" class="cls-13" d="M-148.3-1518.8h0a1.827,1.827,0,0,1,1.9,2.2v.2a1.827,1.827,0,0,1-1.9,2.2h0a2.075,2.075,0,0,1-2.1-2.2v-.2A2.075,2.075,0,0,1-148.3-1518.8Z"/>
          </g>
        </g>
        <rect id="Rectangle_3108_2_" class="cls-2" width="30" height="7" transform="translate(437 227)"/>
        <rect id="Rectangle_3109_2_" class="cls-11" width="20" height="1" transform="translate(442 230)"/>
      </g>
      <g id="Group_7325" data-name="Group 7325" transform="translate(153.094 1497.922)">
        <rect id="Rectangle_3114" data-name="Rectangle 3114" class="cls-15" width="83" height="7" transform="translate(328 88)"/>
        <path id="Path_6087" data-name="Path 6087" class="cls-16" d="M411,64H328a2.946,2.946,0,0,0-3,3V87a2.946,2.946,0,0,0,3,3h83Z"/>
        <path id="Path_5065-9_19_" class="cls-2" d="M327.6,64H359V90H327.6a2.582,2.582,0,0,1-2.6-2.6V66.6a2.647,2.647,0,0,1,2.6-2.6Z"/>
        <g id="Group_115-9_19_" transform="translate(10.111 10.604)">
          <path id="Rectangle_1425-15_19_" class="cls-11" d="M327.4,64.7h0a2.476,2.476,0,0,1,2.5,2.5v.2a2.476,2.476,0,0,1-2.5,2.5h0a2.476,2.476,0,0,1-2.5-2.5v-.2A2.476,2.476,0,0,1,327.4,64.7Z"/>
          <path id="Rectangle_1442-15_19_" class="cls-12" d="M335.4,64.7h0a2.476,2.476,0,0,1,2.5,2.5v.2a2.476,2.476,0,0,1-2.5,2.5h0a2.476,2.476,0,0,1-2.5-2.5v-.2A2.476,2.476,0,0,1,335.4,64.7Z"/>
        </g>
        <g id="Group_5709-9_19_" transform="translate(40.013 7.51)">
          <g id="Group_5584-9_19_">
            <path id="Rectangle_1405-9_19_" class="cls-17" d="M326.8,64.5h0a1.793,1.793,0,0,1,1.8,1.8h0a1.793,1.793,0,0,1-1.8,1.8h0a1.793,1.793,0,0,1-1.8-1.8h0A1.733,1.733,0,0,1,326.8,64.5Z"/>
            <path id="Rectangle_1424-9_19_" class="cls-17" d="M331.1,71.8h0a1.793,1.793,0,0,1,1.8,1.8h0a1.793,1.793,0,0,1-1.8,1.8h0a1.793,1.793,0,0,1-1.8-1.8h0A1.792,1.792,0,0,1,331.1,71.8Z"/>
            <path id="Rectangle_1410-9_19_" class="cls-17" d="M362.9,64.5h0a1.793,1.793,0,0,1,1.8,1.8h0a1.793,1.793,0,0,1-1.8,1.8h0a1.793,1.793,0,0,1-1.8-1.8h0A1.793,1.793,0,0,1,362.9,64.5Z"/>
            <path id="Rectangle_1419-9_19_" class="cls-17" d="M367.3,71.8h0a1.793,1.793,0,0,1,1.8,1.8h0a1.793,1.793,0,0,1-1.8,1.8h0a1.793,1.793,0,0,1-1.8-1.8h0A1.733,1.733,0,0,1,367.3,71.8Z"/>
            <path id="Rectangle_1406-9_19_" class="cls-17" d="M334,64.5h0a1.793,1.793,0,0,1,1.8,1.8h0a1.793,1.793,0,0,1-1.8,1.8h0a1.793,1.793,0,0,1-1.8-1.8h0A1.793,1.793,0,0,1,334,64.5Z"/>
            <path id="Rectangle_1423-9_19_" class="cls-17" d="M338.3,71.8h0a1.793,1.793,0,0,1,1.8,1.8h0a1.793,1.793,0,0,1-1.8,1.8h0a1.793,1.793,0,0,1-1.8-1.8h0A1.793,1.793,0,0,1,338.3,71.8Z"/>
            <path id="Rectangle_1407-9_19_" class="cls-17" d="M341.2,64.5h0a1.793,1.793,0,0,1,1.8,1.8h0a1.793,1.793,0,0,1-1.8,1.8h0a1.793,1.793,0,0,1-1.8-1.8h0A1.792,1.792,0,0,1,341.2,64.5Z"/>
            <path id="Rectangle_1422-9_19_" class="cls-17" d="M345.6,71.8h0a1.793,1.793,0,0,1,1.8,1.8h0a1.793,1.793,0,0,1-1.8,1.8h0a1.793,1.793,0,0,1-1.8-1.8h0A1.733,1.733,0,0,1,345.6,71.8Z"/>
            <path id="Rectangle_1408-9_19_" class="cls-17" d="M348.4,64.5h0a1.793,1.793,0,0,1,1.8,1.8h0a1.793,1.793,0,0,1-1.8,1.8h0a1.793,1.793,0,0,1-1.8-1.8h0A1.859,1.859,0,0,1,348.4,64.5Z"/>
            <path id="Rectangle_1421-9_19_" class="cls-17" d="M352.8,71.8h0a1.793,1.793,0,0,1,1.8,1.8h0a1.793,1.793,0,0,1-1.8,1.8h0a1.793,1.793,0,0,1-1.8-1.8h0A1.793,1.793,0,0,1,352.8,71.8Z"/>
            <path id="Rectangle_1409-9_19_" class="cls-17" d="M355.7,64.5h0a1.793,1.793,0,0,1,1.8,1.8h0a1.793,1.793,0,0,1-1.8,1.8h0a1.793,1.793,0,0,1-1.8-1.8h0A1.792,1.792,0,0,1,355.7,64.5Z"/>
            <path id="Rectangle_1420-9_19_" class="cls-17" d="M360,71.8h0a1.793,1.793,0,0,1,1.8,1.8h0a1.793,1.793,0,0,1-1.8,1.8h0a1.793,1.793,0,0,1-1.8-1.8h0A1.793,1.793,0,0,1,360,71.8Z"/>
          </g>
        </g>
      </g>
      <g id="Group_7326" data-name="Group 7326" transform="translate(153.094 1497.922)">
        <rect id="Rectangle_3115" data-name="Rectangle 3115" class="cls-15" width="83" height="7" transform="translate(328 119)"/>
        <path id="Path_6088" data-name="Path 6088" class="cls-16" d="M411,95H328a2.946,2.946,0,0,0-3,3v20a2.946,2.946,0,0,0,3,3h83Z"/>
        <path id="Path_5065-9_18_" class="cls-2" d="M327.6,95H359v26H327.6a2.582,2.582,0,0,1-2.6-2.6V97.6a2.647,2.647,0,0,1,2.6-2.6Z"/>
        <g id="Group_115-9_18_" transform="translate(10.111 10.604)">
          <path id="Rectangle_1425-15_18_" class="cls-11" d="M327.4,95.7h0a2.476,2.476,0,0,1,2.5,2.5v.2a2.476,2.476,0,0,1-2.5,2.5h0a2.476,2.476,0,0,1-2.5-2.5v-.2A2.476,2.476,0,0,1,327.4,95.7Z"/>
          <path id="Rectangle_1442-15_18_" class="cls-12" d="M335.4,95.7h0a2.476,2.476,0,0,1,2.5,2.5v.2a2.476,2.476,0,0,1-2.5,2.5h0a2.476,2.476,0,0,1-2.5-2.5v-.2A2.476,2.476,0,0,1,335.4,95.7Z"/>
        </g>
        <g id="Group_5709-9_18_" transform="translate(40.013 7.51)">
          <g id="Group_5584-9_18_">
            <path id="Rectangle_1405-9_18_" class="cls-17" d="M326.8,95.5h0a1.793,1.793,0,0,1,1.8,1.8h0a1.793,1.793,0,0,1-1.8,1.8h0a1.793,1.793,0,0,1-1.8-1.8h0A1.733,1.733,0,0,1,326.8,95.5Z"/>
            <path id="Rectangle_1424-9_18_" class="cls-17" d="M331.1,102.8h0a1.793,1.793,0,0,1,1.8,1.8h0a1.793,1.793,0,0,1-1.8,1.8h0a1.793,1.793,0,0,1-1.8-1.8h0A1.792,1.792,0,0,1,331.1,102.8Z"/>
            <path id="Rectangle_1410-9_18_" class="cls-17" d="M362.9,95.5h0a1.793,1.793,0,0,1,1.8,1.8h0a1.793,1.793,0,0,1-1.8,1.8h0a1.793,1.793,0,0,1-1.8-1.8h0A1.793,1.793,0,0,1,362.9,95.5Z"/>
            <path id="Rectangle_1419-9_18_" class="cls-17" d="M367.3,102.8h0a1.793,1.793,0,0,1,1.8,1.8h0a1.793,1.793,0,0,1-1.8,1.8h0a1.793,1.793,0,0,1-1.8-1.8h0A1.733,1.733,0,0,1,367.3,102.8Z"/>
            <path id="Rectangle_1406-9_18_" class="cls-17" d="M334,95.5h0a1.793,1.793,0,0,1,1.8,1.8h0a1.793,1.793,0,0,1-1.8,1.8h0a1.793,1.793,0,0,1-1.8-1.8h0A1.793,1.793,0,0,1,334,95.5Z"/>
            <path id="Rectangle_1423-9_18_" class="cls-17" d="M338.3,102.8h0a1.793,1.793,0,0,1,1.8,1.8h0a1.793,1.793,0,0,1-1.8,1.8h0a1.793,1.793,0,0,1-1.8-1.8h0A1.793,1.793,0,0,1,338.3,102.8Z"/>
            <path id="Rectangle_1407-9_18_" class="cls-17" d="M341.2,95.5h0a1.793,1.793,0,0,1,1.8,1.8h0a1.793,1.793,0,0,1-1.8,1.8h0a1.793,1.793,0,0,1-1.8-1.8h0A1.792,1.792,0,0,1,341.2,95.5Z"/>
            <path id="Rectangle_1422-9_18_" class="cls-17" d="M345.6,102.8h0a1.793,1.793,0,0,1,1.8,1.8h0a1.793,1.793,0,0,1-1.8,1.8h0a1.793,1.793,0,0,1-1.8-1.8h0A1.733,1.733,0,0,1,345.6,102.8Z"/>
            <path id="Rectangle_1408-9_18_" class="cls-17" d="M348.4,95.5h0a1.793,1.793,0,0,1,1.8,1.8h0a1.793,1.793,0,0,1-1.8,1.8h0a1.793,1.793,0,0,1-1.8-1.8h0A1.859,1.859,0,0,1,348.4,95.5Z"/>
            <path id="Rectangle_1421-9_18_" class="cls-17" d="M352.8,102.8h0a1.793,1.793,0,0,1,1.8,1.8h0a1.793,1.793,0,0,1-1.8,1.8h0a1.793,1.793,0,0,1-1.8-1.8h0A1.793,1.793,0,0,1,352.8,102.8Z"/>
            <path id="Rectangle_1409-9_18_" class="cls-17" d="M355.7,95.5h0a1.793,1.793,0,0,1,1.8,1.8h0a1.793,1.793,0,0,1-1.8,1.8h0a1.793,1.793,0,0,1-1.8-1.8h0A1.792,1.792,0,0,1,355.7,95.5Z"/>
            <path id="Rectangle_1420-9_18_" class="cls-17" d="M360,102.8h0a1.793,1.793,0,0,1,1.8,1.8h0a1.793,1.793,0,0,1-1.8,1.8h0a1.793,1.793,0,0,1-1.8-1.8h0A1.793,1.793,0,0,1,360,102.8Z"/>
          </g>
        </g>
      </g>
      <g id="Group_7327" data-name="Group 7327" transform="translate(153.094 1497.922)">
        <rect id="Rectangle_3116" data-name="Rectangle 3116" class="cls-15" width="83" height="7" transform="translate(328 150)"/>
        <path id="Path_6089" data-name="Path 6089" class="cls-16" d="M411,126H328a2.946,2.946,0,0,0-3,3v20a2.946,2.946,0,0,0,3,3h83Z"/>
        <path id="Path_5065-9_17_" class="cls-2" d="M327.6,126H359v26H327.6a2.582,2.582,0,0,1-2.6-2.6V128.5a2.63,2.63,0,0,1,2.6-2.5Z"/>
        <g id="Group_115-9_17_" transform="translate(10.111 10.604)">
          <path id="Rectangle_1425-15_17_" class="cls-11" d="M327.4,126.7h0a2.476,2.476,0,0,1,2.5,2.5v.2a2.476,2.476,0,0,1-2.5,2.5h0a2.476,2.476,0,0,1-2.5-2.5v-.2A2.476,2.476,0,0,1,327.4,126.7Z"/>
          <path id="Rectangle_1442-15_17_" class="cls-12" d="M335.4,126.7h0a2.476,2.476,0,0,1,2.5,2.5v.2a2.476,2.476,0,0,1-2.5,2.5h0a2.476,2.476,0,0,1-2.5-2.5v-.2A2.476,2.476,0,0,1,335.4,126.7Z"/>
        </g>
        <g id="Group_5709-9_17_" transform="translate(40.013 7.51)">
          <g id="Group_5584-9_17_">
            <path id="Rectangle_1405-9_17_" class="cls-17" d="M326.8,126.5h0a1.793,1.793,0,0,1,1.8,1.8h0a1.793,1.793,0,0,1-1.8,1.8h0a1.793,1.793,0,0,1-1.8-1.8h0A1.733,1.733,0,0,1,326.8,126.5Z"/>
            <path id="Rectangle_1424-9_17_" class="cls-17" d="M331.1,133.8h0a1.793,1.793,0,0,1,1.8,1.8h0a1.793,1.793,0,0,1-1.8,1.8h0a1.793,1.793,0,0,1-1.8-1.8h0A1.792,1.792,0,0,1,331.1,133.8Z"/>
            <path id="Rectangle_1410-9_17_" class="cls-17" d="M362.9,126.5h0a1.793,1.793,0,0,1,1.8,1.8h0a1.793,1.793,0,0,1-1.8,1.8h0a1.793,1.793,0,0,1-1.8-1.8h0A1.793,1.793,0,0,1,362.9,126.5Z"/>
            <path id="Rectangle_1419-9_17_" class="cls-17" d="M367.3,133.8h0a1.793,1.793,0,0,1,1.8,1.8h0a1.793,1.793,0,0,1-1.8,1.8h0a1.793,1.793,0,0,1-1.8-1.8h0A1.733,1.733,0,0,1,367.3,133.8Z"/>
            <path id="Rectangle_1406-9_17_" class="cls-17" d="M334,126.5h0a1.793,1.793,0,0,1,1.8,1.8h0a1.793,1.793,0,0,1-1.8,1.8h0a1.793,1.793,0,0,1-1.8-1.8h0A1.793,1.793,0,0,1,334,126.5Z"/>
            <path id="Rectangle_1423-9_17_" class="cls-17" d="M338.3,133.8h0a1.793,1.793,0,0,1,1.8,1.8h0a1.793,1.793,0,0,1-1.8,1.8h0a1.793,1.793,0,0,1-1.8-1.8h0A1.793,1.793,0,0,1,338.3,133.8Z"/>
            <path id="Rectangle_1407-9_17_" class="cls-17" d="M341.2,126.5h0a1.793,1.793,0,0,1,1.8,1.8h0a1.793,1.793,0,0,1-1.8,1.8h0a1.793,1.793,0,0,1-1.8-1.8h0A1.792,1.792,0,0,1,341.2,126.5Z"/>
            <path id="Rectangle_1422-9_17_" class="cls-17" d="M345.6,133.8h0a1.793,1.793,0,0,1,1.8,1.8h0a1.793,1.793,0,0,1-1.8,1.8h0a1.793,1.793,0,0,1-1.8-1.8h0A1.733,1.733,0,0,1,345.6,133.8Z"/>
            <path id="Rectangle_1408-9_17_" class="cls-17" d="M348.4,126.5h0a1.793,1.793,0,0,1,1.8,1.8h0a1.793,1.793,0,0,1-1.8,1.8h0a1.793,1.793,0,0,1-1.8-1.8h0A1.859,1.859,0,0,1,348.4,126.5Z"/>
            <path id="Rectangle_1421-9_17_" class="cls-17" d="M352.8,133.8h0a1.793,1.793,0,0,1,1.8,1.8h0a1.793,1.793,0,0,1-1.8,1.8h0a1.793,1.793,0,0,1-1.8-1.8h0A1.793,1.793,0,0,1,352.8,133.8Z"/>
            <path id="Rectangle_1409-9_17_" class="cls-17" d="M355.7,126.5h0a1.793,1.793,0,0,1,1.8,1.8h0a1.793,1.793,0,0,1-1.8,1.8h0a1.793,1.793,0,0,1-1.8-1.8h0A1.792,1.792,0,0,1,355.7,126.5Z"/>
            <path id="Rectangle_1420-9_17_" class="cls-17" d="M360,133.8h0a1.793,1.793,0,0,1,1.8,1.8h0a1.793,1.793,0,0,1-1.8,1.8h0a1.793,1.793,0,0,1-1.8-1.8h0A1.793,1.793,0,0,1,360,133.8Z"/>
          </g>
        </g>
      </g>
      <g id="Group_7328" data-name="Group 7328" transform="translate(153.094 1497.922)">
        <rect id="Rectangle_3117" data-name="Rectangle 3117" class="cls-15" width="83" height="7" transform="translate(328 181)"/>
        <path id="Path_6090" data-name="Path 6090" class="cls-16" d="M411,157H328a2.946,2.946,0,0,0-3,3v20a2.946,2.946,0,0,0,3,3h83Z"/>
        <path id="Path_5065-9_16_" class="cls-2" d="M327.6,157H359v26H327.6a2.582,2.582,0,0,1-2.6-2.6V159.5a2.63,2.63,0,0,1,2.6-2.5Z"/>
        <g id="Group_115-9_16_" transform="translate(10.111 10.604)">
          <path id="Rectangle_1425-15_16_" class="cls-11" d="M327.4,157.7h0a2.476,2.476,0,0,1,2.5,2.5v.2a2.476,2.476,0,0,1-2.5,2.5h0a2.476,2.476,0,0,1-2.5-2.5v-.2A2.476,2.476,0,0,1,327.4,157.7Z"/>
          <path id="Rectangle_1442-15_16_" class="cls-12" d="M335.4,157.7h0a2.476,2.476,0,0,1,2.5,2.5v.2a2.476,2.476,0,0,1-2.5,2.5h0a2.476,2.476,0,0,1-2.5-2.5v-.2A2.476,2.476,0,0,1,335.4,157.7Z"/>
        </g>
        <g id="Group_5709-9_16_" transform="translate(40.013 7.51)">
          <g id="Group_5584-9_16_">
            <path id="Rectangle_1405-9_16_" class="cls-17" d="M326.8,157.5h0a1.793,1.793,0,0,1,1.8,1.8h0a1.793,1.793,0,0,1-1.8,1.8h0a1.793,1.793,0,0,1-1.8-1.8h0A1.733,1.733,0,0,1,326.8,157.5Z"/>
            <path id="Rectangle_1424-9_16_" class="cls-17" d="M331.1,164.8h0a1.793,1.793,0,0,1,1.8,1.8h0a1.793,1.793,0,0,1-1.8,1.8h0a1.793,1.793,0,0,1-1.8-1.8h0A1.792,1.792,0,0,1,331.1,164.8Z"/>
            <path id="Rectangle_1410-9_16_" class="cls-17" d="M362.9,157.5h0a1.793,1.793,0,0,1,1.8,1.8h0a1.793,1.793,0,0,1-1.8,1.8h0a1.793,1.793,0,0,1-1.8-1.8h0A1.793,1.793,0,0,1,362.9,157.5Z"/>
            <path id="Rectangle_1419-9_16_" class="cls-17" d="M367.3,164.8h0a1.793,1.793,0,0,1,1.8,1.8h0a1.793,1.793,0,0,1-1.8,1.8h0a1.793,1.793,0,0,1-1.8-1.8h0A1.733,1.733,0,0,1,367.3,164.8Z"/>
            <path id="Rectangle_1406-9_16_" class="cls-17" d="M334,157.5h0a1.793,1.793,0,0,1,1.8,1.8h0a1.793,1.793,0,0,1-1.8,1.8h0a1.793,1.793,0,0,1-1.8-1.8h0A1.793,1.793,0,0,1,334,157.5Z"/>
            <path id="Rectangle_1423-9_16_" class="cls-17" d="M338.3,164.8h0a1.793,1.793,0,0,1,1.8,1.8h0a1.793,1.793,0,0,1-1.8,1.8h0a1.793,1.793,0,0,1-1.8-1.8h0A1.793,1.793,0,0,1,338.3,164.8Z"/>
            <path id="Rectangle_1407-9_16_" class="cls-17" d="M341.2,157.5h0a1.793,1.793,0,0,1,1.8,1.8h0a1.793,1.793,0,0,1-1.8,1.8h0a1.793,1.793,0,0,1-1.8-1.8h0A1.792,1.792,0,0,1,341.2,157.5Z"/>
            <path id="Rectangle_1422-9_16_" class="cls-17" d="M345.6,164.8h0a1.793,1.793,0,0,1,1.8,1.8h0a1.793,1.793,0,0,1-1.8,1.8h0a1.793,1.793,0,0,1-1.8-1.8h0A1.733,1.733,0,0,1,345.6,164.8Z"/>
            <path id="Rectangle_1408-9_16_" class="cls-17" d="M348.4,157.5h0a1.793,1.793,0,0,1,1.8,1.8h0a1.793,1.793,0,0,1-1.8,1.8h0a1.793,1.793,0,0,1-1.8-1.8h0A1.859,1.859,0,0,1,348.4,157.5Z"/>
            <path id="Rectangle_1421-9_16_" class="cls-17" d="M352.8,164.8h0a1.793,1.793,0,0,1,1.8,1.8h0a1.793,1.793,0,0,1-1.8,1.8h0a1.793,1.793,0,0,1-1.8-1.8h0A1.793,1.793,0,0,1,352.8,164.8Z"/>
            <path id="Rectangle_1409-9_16_" class="cls-17" d="M355.7,157.5h0a1.793,1.793,0,0,1,1.8,1.8h0a1.793,1.793,0,0,1-1.8,1.8h0a1.793,1.793,0,0,1-1.8-1.8h0A1.792,1.792,0,0,1,355.7,157.5Z"/>
            <path id="Rectangle_1420-9_16_" class="cls-17" d="M360,164.8h0a1.793,1.793,0,0,1,1.8,1.8h0a1.793,1.793,0,0,1-1.8,1.8h0a1.793,1.793,0,0,1-1.8-1.8h0A1.793,1.793,0,0,1,360,164.8Z"/>
          </g>
        </g>
      </g>
      <g id="Group_7329" data-name="Group 7329" transform="translate(153.094 1497.922)">
        <rect id="Rectangle_3118" data-name="Rectangle 3118" class="cls-15" width="83" height="7" transform="translate(328 212)"/>
        <path id="Path_6091" data-name="Path 6091" class="cls-16" d="M411,188H328a2.946,2.946,0,0,0-3,3v20a2.946,2.946,0,0,0,3,3h83Z"/>
        <path id="Path_5065-9_15_" class="cls-2" d="M327.6,188H359v26H327.6a2.582,2.582,0,0,1-2.6-2.6V190.5a2.63,2.63,0,0,1,2.6-2.5Z"/>
        <g id="Group_115-9_15_" transform="translate(10.111 10.604)">
          <path id="Rectangle_1425-15_15_" class="cls-11" d="M327.4,188.7h0a2.476,2.476,0,0,1,2.5,2.5v.2a2.476,2.476,0,0,1-2.5,2.5h0a2.476,2.476,0,0,1-2.5-2.5v-.2A2.476,2.476,0,0,1,327.4,188.7Z"/>
          <path id="Rectangle_1442-15_15_" class="cls-12" d="M335.4,188.7h0a2.476,2.476,0,0,1,2.5,2.5v.2a2.476,2.476,0,0,1-2.5,2.5h0a2.476,2.476,0,0,1-2.5-2.5v-.2A2.476,2.476,0,0,1,335.4,188.7Z"/>
        </g>
        <g id="Group_5709-9_15_" transform="translate(40.013 7.51)">
          <g id="Group_5584-9_15_">
            <path id="Rectangle_1405-9_15_" class="cls-17" d="M326.8,188.5h0a1.793,1.793,0,0,1,1.8,1.8h0a1.793,1.793,0,0,1-1.8,1.8h0a1.793,1.793,0,0,1-1.8-1.8h0A1.733,1.733,0,0,1,326.8,188.5Z"/>
            <path id="Rectangle_1424-9_15_" class="cls-17" d="M331.1,195.8h0a1.793,1.793,0,0,1,1.8,1.8h0a1.793,1.793,0,0,1-1.8,1.8h0a1.793,1.793,0,0,1-1.8-1.8h0A1.792,1.792,0,0,1,331.1,195.8Z"/>
            <path id="Rectangle_1410-9_15_" class="cls-17" d="M362.9,188.5h0a1.793,1.793,0,0,1,1.8,1.8h0a1.793,1.793,0,0,1-1.8,1.8h0a1.793,1.793,0,0,1-1.8-1.8h0A1.793,1.793,0,0,1,362.9,188.5Z"/>
            <path id="Rectangle_1419-9_15_" class="cls-17" d="M367.3,195.8h0a1.793,1.793,0,0,1,1.8,1.8h0a1.793,1.793,0,0,1-1.8,1.8h0a1.793,1.793,0,0,1-1.8-1.8h0A1.733,1.733,0,0,1,367.3,195.8Z"/>
            <path id="Rectangle_1406-9_15_" class="cls-17" d="M334,188.5h0a1.793,1.793,0,0,1,1.8,1.8h0a1.793,1.793,0,0,1-1.8,1.8h0a1.793,1.793,0,0,1-1.8-1.8h0A1.793,1.793,0,0,1,334,188.5Z"/>
            <path id="Rectangle_1423-9_15_" class="cls-17" d="M338.3,195.8h0a1.793,1.793,0,0,1,1.8,1.8h0a1.793,1.793,0,0,1-1.8,1.8h0a1.793,1.793,0,0,1-1.8-1.8h0A1.793,1.793,0,0,1,338.3,195.8Z"/>
            <path id="Rectangle_1407-9_15_" class="cls-17" d="M341.2,188.5h0a1.793,1.793,0,0,1,1.8,1.8h0a1.793,1.793,0,0,1-1.8,1.8h0a1.793,1.793,0,0,1-1.8-1.8h0A1.792,1.792,0,0,1,341.2,188.5Z"/>
            <path id="Rectangle_1422-9_15_" class="cls-17" d="M345.6,195.8h0a1.793,1.793,0,0,1,1.8,1.8h0a1.793,1.793,0,0,1-1.8,1.8h0a1.793,1.793,0,0,1-1.8-1.8h0A1.733,1.733,0,0,1,345.6,195.8Z"/>
            <path id="Rectangle_1408-9_15_" class="cls-17" d="M348.4,188.5h0a1.793,1.793,0,0,1,1.8,1.8h0a1.793,1.793,0,0,1-1.8,1.8h0a1.793,1.793,0,0,1-1.8-1.8h0A1.859,1.859,0,0,1,348.4,188.5Z"/>
            <path id="Rectangle_1421-9_15_" class="cls-17" d="M352.8,195.8h0a1.793,1.793,0,0,1,1.8,1.8h0a1.793,1.793,0,0,1-1.8,1.8h0a1.793,1.793,0,0,1-1.8-1.8h0A1.793,1.793,0,0,1,352.8,195.8Z"/>
            <path id="Rectangle_1409-9_15_" class="cls-17" d="M355.7,188.5h0a1.793,1.793,0,0,1,1.8,1.8h0a1.793,1.793,0,0,1-1.8,1.8h0a1.793,1.793,0,0,1-1.8-1.8h0A1.792,1.792,0,0,1,355.7,188.5Z"/>
            <path id="Rectangle_1420-9_15_" class="cls-17" d="M360,195.8h0a1.793,1.793,0,0,1,1.8,1.8h0a1.793,1.793,0,0,1-1.8,1.8h0a1.793,1.793,0,0,1-1.8-1.8h0A1.793,1.793,0,0,1,360,195.8Z"/>
          </g>
        </g>
      </g>
      <g id="Group_7330" data-name="Group 7330" transform="translate(153.094 1497.922)">
        <rect id="Rectangle_3119" data-name="Rectangle 3119" class="cls-15" width="83" height="7" transform="translate(328 243)"/>
        <path id="Path_6092" data-name="Path 6092" class="cls-16" d="M411,219H328a2.946,2.946,0,0,0-3,3v20a2.946,2.946,0,0,0,3,3h83Z"/>
        <path id="Path_5065-9_14_" class="cls-2" d="M327.6,219H359v26H327.6a2.582,2.582,0,0,1-2.6-2.6V221.5a2.63,2.63,0,0,1,2.6-2.5Z"/>
        <g id="Group_115-9_14_" transform="translate(10.111 10.604)">
          <path id="Rectangle_1425-15_14_" class="cls-11" d="M327.4,219.7h0a2.476,2.476,0,0,1,2.5,2.5v.2a2.476,2.476,0,0,1-2.5,2.5h0a2.476,2.476,0,0,1-2.5-2.5v-.2A2.476,2.476,0,0,1,327.4,219.7Z"/>
          <path id="Rectangle_1442-15_14_" class="cls-12" d="M335.4,219.7h0a2.476,2.476,0,0,1,2.5,2.5v.2a2.476,2.476,0,0,1-2.5,2.5h0a2.476,2.476,0,0,1-2.5-2.5v-.2A2.476,2.476,0,0,1,335.4,219.7Z"/>
        </g>
        <g id="Group_5709-9_14_" transform="translate(40.013 7.51)">
          <g id="Group_5584-9_14_">
            <path id="Rectangle_1405-9_14_" class="cls-17" d="M326.8,219.5h0a1.793,1.793,0,0,1,1.8,1.8h0a1.793,1.793,0,0,1-1.8,1.8h0a1.793,1.793,0,0,1-1.8-1.8h0A1.733,1.733,0,0,1,326.8,219.5Z"/>
            <path id="Rectangle_1424-9_14_" class="cls-17" d="M331.1,226.8h0a1.793,1.793,0,0,1,1.8,1.8h0a1.793,1.793,0,0,1-1.8,1.8h0a1.793,1.793,0,0,1-1.8-1.8h0A1.792,1.792,0,0,1,331.1,226.8Z"/>
            <path id="Rectangle_1410-9_14_" class="cls-17" d="M362.9,219.5h0a1.793,1.793,0,0,1,1.8,1.8h0a1.793,1.793,0,0,1-1.8,1.8h0a1.793,1.793,0,0,1-1.8-1.8h0A1.793,1.793,0,0,1,362.9,219.5Z"/>
            <path id="Rectangle_1419-9_14_" class="cls-17" d="M367.3,226.8h0a1.793,1.793,0,0,1,1.8,1.8h0a1.793,1.793,0,0,1-1.8,1.8h0a1.793,1.793,0,0,1-1.8-1.8h0A1.733,1.733,0,0,1,367.3,226.8Z"/>
            <path id="Rectangle_1406-9_14_" class="cls-17" d="M334,219.5h0a1.793,1.793,0,0,1,1.8,1.8h0a1.793,1.793,0,0,1-1.8,1.8h0a1.793,1.793,0,0,1-1.8-1.8h0A1.793,1.793,0,0,1,334,219.5Z"/>
            <path id="Rectangle_1423-9_14_" class="cls-17" d="M338.3,226.8h0a1.793,1.793,0,0,1,1.8,1.8h0a1.793,1.793,0,0,1-1.8,1.8h0a1.793,1.793,0,0,1-1.8-1.8h0A1.793,1.793,0,0,1,338.3,226.8Z"/>
            <path id="Rectangle_1407-9_14_" class="cls-17" d="M341.2,219.5h0a1.793,1.793,0,0,1,1.8,1.8h0a1.793,1.793,0,0,1-1.8,1.8h0a1.793,1.793,0,0,1-1.8-1.8h0A1.792,1.792,0,0,1,341.2,219.5Z"/>
            <path id="Rectangle_1422-9_14_" class="cls-17" d="M345.6,226.8h0a1.793,1.793,0,0,1,1.8,1.8h0a1.793,1.793,0,0,1-1.8,1.8h0a1.793,1.793,0,0,1-1.8-1.8h0A1.733,1.733,0,0,1,345.6,226.8Z"/>
            <path id="Rectangle_1408-9_14_" class="cls-17" d="M348.4,219.5h0a1.793,1.793,0,0,1,1.8,1.8h0a1.793,1.793,0,0,1-1.8,1.8h0a1.793,1.793,0,0,1-1.8-1.8h0A1.859,1.859,0,0,1,348.4,219.5Z"/>
            <path id="Rectangle_1421-9_14_" class="cls-17" d="M352.8,226.8h0a1.793,1.793,0,0,1,1.8,1.8h0a1.793,1.793,0,0,1-1.8,1.8h0a1.793,1.793,0,0,1-1.8-1.8h0A1.793,1.793,0,0,1,352.8,226.8Z"/>
            <path id="Rectangle_1409-9_14_" class="cls-17" d="M355.7,219.5h0a1.793,1.793,0,0,1,1.8,1.8h0a1.793,1.793,0,0,1-1.8,1.8h0a1.793,1.793,0,0,1-1.8-1.8h0A1.792,1.792,0,0,1,355.7,219.5Z"/>
            <path id="Rectangle_1420-9_14_" class="cls-17" d="M360,226.8h0a1.793,1.793,0,0,1,1.8,1.8h0a1.793,1.793,0,0,1-1.8,1.8h0a1.793,1.793,0,0,1-1.8-1.8h0A1.793,1.793,0,0,1,360,226.8Z"/>
          </g>
        </g>
      </g>
      <g id="Group_7331" data-name="Group 7331" transform="translate(153.094 1497.922)">
        <rect id="Rectangle_3120" data-name="Rectangle 3120" class="cls-15" width="83" height="7" transform="translate(328 274)"/>
        <path id="Path_6093" data-name="Path 6093" class="cls-16" d="M411,250H328a2.946,2.946,0,0,0-3,3v20a2.946,2.946,0,0,0,3,3h83Z"/>
        <path id="Path_5065-9_13_" class="cls-2" d="M327.6,250H359v26H327.6a2.582,2.582,0,0,1-2.6-2.6V252.5a2.63,2.63,0,0,1,2.6-2.5Z"/>
        <g id="Group_115-9_13_" transform="translate(10.111 10.604)">
          <path id="Rectangle_1425-15_13_" class="cls-11" d="M327.4,250.7h0a2.476,2.476,0,0,1,2.5,2.5v.2a2.476,2.476,0,0,1-2.5,2.5h0a2.476,2.476,0,0,1-2.5-2.5v-.2A2.476,2.476,0,0,1,327.4,250.7Z"/>
          <path id="Rectangle_1442-15_13_" class="cls-12" d="M335.4,250.7h0a2.476,2.476,0,0,1,2.5,2.5v.2a2.476,2.476,0,0,1-2.5,2.5h0a2.476,2.476,0,0,1-2.5-2.5v-.2A2.476,2.476,0,0,1,335.4,250.7Z"/>
        </g>
        <g id="Group_5709-9_13_" transform="translate(40.013 7.51)">
          <g id="Group_5584-9_13_">
            <path id="Rectangle_1405-9_13_" class="cls-17" d="M326.8,250.5h0a1.793,1.793,0,0,1,1.8,1.8h0a1.793,1.793,0,0,1-1.8,1.8h0a1.793,1.793,0,0,1-1.8-1.8h0A1.733,1.733,0,0,1,326.8,250.5Z"/>
            <path id="Rectangle_1424-9_13_" class="cls-17" d="M331.1,257.8h0a1.792,1.792,0,0,1,1.8,1.8h0a1.792,1.792,0,0,1-1.8,1.8h0a1.792,1.792,0,0,1-1.8-1.8h0A1.792,1.792,0,0,1,331.1,257.8Z"/>
            <path id="Rectangle_1410-9_13_" class="cls-17" d="M362.9,250.5h0a1.793,1.793,0,0,1,1.8,1.8h0a1.793,1.793,0,0,1-1.8,1.8h0a1.793,1.793,0,0,1-1.8-1.8h0A1.793,1.793,0,0,1,362.9,250.5Z"/>
            <path id="Rectangle_1419-9_13_" class="cls-17" d="M367.3,257.8h0a1.792,1.792,0,0,1,1.8,1.8h0a1.792,1.792,0,0,1-1.8,1.8h0a1.792,1.792,0,0,1-1.8-1.8h0A1.733,1.733,0,0,1,367.3,257.8Z"/>
            <path id="Rectangle_1406-9_13_" class="cls-17" d="M334,250.5h0a1.793,1.793,0,0,1,1.8,1.8h0a1.793,1.793,0,0,1-1.8,1.8h0a1.793,1.793,0,0,1-1.8-1.8h0A1.793,1.793,0,0,1,334,250.5Z"/>
            <path id="Rectangle_1423-9_13_" class="cls-17" d="M338.3,257.8h0a1.792,1.792,0,0,1,1.8,1.8h0a1.792,1.792,0,0,1-1.8,1.8h0a1.792,1.792,0,0,1-1.8-1.8h0A1.793,1.793,0,0,1,338.3,257.8Z"/>
            <path id="Rectangle_1407-9_13_" class="cls-17" d="M341.2,250.5h0a1.793,1.793,0,0,1,1.8,1.8h0a1.793,1.793,0,0,1-1.8,1.8h0a1.793,1.793,0,0,1-1.8-1.8h0A1.792,1.792,0,0,1,341.2,250.5Z"/>
            <path id="Rectangle_1422-9_13_" class="cls-17" d="M345.6,257.8h0a1.792,1.792,0,0,1,1.8,1.8h0a1.792,1.792,0,0,1-1.8,1.8h0a1.792,1.792,0,0,1-1.8-1.8h0A1.733,1.733,0,0,1,345.6,257.8Z"/>
            <path id="Rectangle_1408-9_13_" class="cls-17" d="M348.4,250.5h0a1.793,1.793,0,0,1,1.8,1.8h0a1.793,1.793,0,0,1-1.8,1.8h0a1.793,1.793,0,0,1-1.8-1.8h0A1.859,1.859,0,0,1,348.4,250.5Z"/>
            <path id="Rectangle_1421-9_13_" class="cls-17" d="M352.8,257.8h0a1.792,1.792,0,0,1,1.8,1.8h0a1.792,1.792,0,0,1-1.8,1.8h0a1.792,1.792,0,0,1-1.8-1.8h0A1.793,1.793,0,0,1,352.8,257.8Z"/>
            <path id="Rectangle_1409-9_13_" class="cls-17" d="M355.7,250.5h0a1.793,1.793,0,0,1,1.8,1.8h0a1.793,1.793,0,0,1-1.8,1.8h0a1.793,1.793,0,0,1-1.8-1.8h0A1.792,1.792,0,0,1,355.7,250.5Z"/>
            <path id="Rectangle_1420-9_13_" class="cls-17" d="M360,257.8h0a1.792,1.792,0,0,1,1.8,1.8h0a1.792,1.792,0,0,1-1.8,1.8h0a1.792,1.792,0,0,1-1.8-1.8h0A1.793,1.793,0,0,1,360,257.8Z"/>
          </g>
        </g>
      </g>
      <g id="Group_7332" data-name="Group 7332" transform="translate(153.094 1497.922)">
        <rect id="Rectangle_3121" data-name="Rectangle 3121" class="cls-15" width="83" height="7" transform="translate(328 305)"/>
        <path id="Path_6094" data-name="Path 6094" class="cls-16" d="M411,281H328a2.946,2.946,0,0,0-3,3v20a2.946,2.946,0,0,0,3,3h83Z"/>
        <path id="Path_5065-9_12_" class="cls-2" d="M327.6,281H359v26H327.6a2.582,2.582,0,0,1-2.6-2.6V283.5a2.63,2.63,0,0,1,2.6-2.5Z"/>
        <g id="Group_115-9_12_" transform="translate(10.111 10.604)">
          <path id="Rectangle_1425-15_12_" class="cls-11" d="M327.4,281.7h0a2.476,2.476,0,0,1,2.5,2.5v.2a2.476,2.476,0,0,1-2.5,2.5h0a2.476,2.476,0,0,1-2.5-2.5v-.2A2.476,2.476,0,0,1,327.4,281.7Z"/>
          <path id="Rectangle_1442-15_12_" class="cls-12" d="M335.4,281.7h0a2.476,2.476,0,0,1,2.5,2.5v.2a2.476,2.476,0,0,1-2.5,2.5h0a2.476,2.476,0,0,1-2.5-2.5v-.2A2.476,2.476,0,0,1,335.4,281.7Z"/>
        </g>
        <g id="Group_5709-9_12_" transform="translate(40.013 7.51)">
          <g id="Group_5584-9_12_">
            <path id="Rectangle_1405-9_12_" class="cls-17" d="M326.8,281.5h0a1.792,1.792,0,0,1,1.8,1.8h0a1.792,1.792,0,0,1-1.8,1.8h0a1.792,1.792,0,0,1-1.8-1.8h0A1.733,1.733,0,0,1,326.8,281.5Z"/>
            <path id="Rectangle_1424-9_12_" class="cls-17" d="M331.1,288.8h0a1.792,1.792,0,0,1,1.8,1.8h0a1.792,1.792,0,0,1-1.8,1.8h0a1.792,1.792,0,0,1-1.8-1.8h0A1.792,1.792,0,0,1,331.1,288.8Z"/>
            <path id="Rectangle_1410-9_12_" class="cls-17" d="M362.9,281.5h0a1.792,1.792,0,0,1,1.8,1.8h0a1.792,1.792,0,0,1-1.8,1.8h0a1.792,1.792,0,0,1-1.8-1.8h0A1.792,1.792,0,0,1,362.9,281.5Z"/>
            <path id="Rectangle_1419-9_12_" class="cls-17" d="M367.3,288.8h0a1.792,1.792,0,0,1,1.8,1.8h0a1.792,1.792,0,0,1-1.8,1.8h0a1.792,1.792,0,0,1-1.8-1.8h0A1.733,1.733,0,0,1,367.3,288.8Z"/>
            <path id="Rectangle_1406-9_12_" class="cls-17" d="M334,281.5h0a1.792,1.792,0,0,1,1.8,1.8h0a1.792,1.792,0,0,1-1.8,1.8h0a1.792,1.792,0,0,1-1.8-1.8h0A1.792,1.792,0,0,1,334,281.5Z"/>
            <path id="Rectangle_1423-9_12_" class="cls-17" d="M338.3,288.8h0a1.792,1.792,0,0,1,1.8,1.8h0a1.792,1.792,0,0,1-1.8,1.8h0a1.792,1.792,0,0,1-1.8-1.8h0A1.793,1.793,0,0,1,338.3,288.8Z"/>
            <path id="Rectangle_1407-9_12_" class="cls-17" d="M341.2,281.5h0a1.792,1.792,0,0,1,1.8,1.8h0a1.792,1.792,0,0,1-1.8,1.8h0a1.792,1.792,0,0,1-1.8-1.8h0A1.792,1.792,0,0,1,341.2,281.5Z"/>
            <path id="Rectangle_1422-9_12_" class="cls-17" d="M345.6,288.8h0a1.792,1.792,0,0,1,1.8,1.8h0a1.792,1.792,0,0,1-1.8,1.8h0a1.792,1.792,0,0,1-1.8-1.8h0A1.733,1.733,0,0,1,345.6,288.8Z"/>
            <path id="Rectangle_1408-9_12_" class="cls-17" d="M348.4,281.5h0a1.792,1.792,0,0,1,1.8,1.8h0a1.792,1.792,0,0,1-1.8,1.8h0a1.792,1.792,0,0,1-1.8-1.8h0A1.859,1.859,0,0,1,348.4,281.5Z"/>
            <path id="Rectangle_1421-9_12_" class="cls-17" d="M352.8,288.8h0a1.792,1.792,0,0,1,1.8,1.8h0a1.792,1.792,0,0,1-1.8,1.8h0a1.792,1.792,0,0,1-1.8-1.8h0A1.793,1.793,0,0,1,352.8,288.8Z"/>
            <path id="Rectangle_1409-9_12_" class="cls-17" d="M355.7,281.5h0a1.792,1.792,0,0,1,1.8,1.8h0a1.792,1.792,0,0,1-1.8,1.8h0a1.792,1.792,0,0,1-1.8-1.8h0A1.792,1.792,0,0,1,355.7,281.5Z"/>
            <path id="Rectangle_1420-9_12_" class="cls-17" d="M360,288.8h0a1.792,1.792,0,0,1,1.8,1.8h0a1.792,1.792,0,0,1-1.8,1.8h0a1.792,1.792,0,0,1-1.8-1.8h0A1.793,1.793,0,0,1,360,288.8Z"/>
          </g>
        </g>
      </g>
      <g id="Group_7333" data-name="Group 7333" transform="translate(153.094 1497.922)">
        <path id="Path_6095" data-name="Path 6095" class="cls-16" d="M411,312H328a2.946,2.946,0,0,0-3,3v20a2.946,2.946,0,0,0,3,3h83Z"/>
        <path id="Path_5065-9_9_" class="cls-2" d="M327.6,312H359v26H327.6a2.582,2.582,0,0,1-2.6-2.6V314.5a2.63,2.63,0,0,1,2.6-2.5Z"/>
        <g id="Group_115-9_9_" transform="translate(10.111 10.604)">
          <path id="Rectangle_1425-15_9_" class="cls-11" d="M327.4,312.7h0a2.476,2.476,0,0,1,2.5,2.5v.2a2.476,2.476,0,0,1-2.5,2.5h0a2.476,2.476,0,0,1-2.5-2.5v-.2A2.476,2.476,0,0,1,327.4,312.7Z"/>
          <path id="Rectangle_1442-15_9_" class="cls-12" d="M335.4,312.7h0a2.476,2.476,0,0,1,2.5,2.5v.2a2.476,2.476,0,0,1-2.5,2.5h0a2.476,2.476,0,0,1-2.5-2.5v-.2A2.476,2.476,0,0,1,335.4,312.7Z"/>
        </g>
        <g id="Group_5709-9_9_" transform="translate(40.013 7.51)">
          <g id="Group_5584-9_9_">
            <path id="Rectangle_1405-9_9_" class="cls-17" d="M326.8,312.5h0a1.792,1.792,0,0,1,1.8,1.8h0a1.792,1.792,0,0,1-1.8,1.8h0a1.792,1.792,0,0,1-1.8-1.8h0A1.733,1.733,0,0,1,326.8,312.5Z"/>
            <path id="Rectangle_1424-9_9_" class="cls-17" d="M331.1,319.8h0a1.792,1.792,0,0,1,1.8,1.8h0a1.792,1.792,0,0,1-1.8,1.8h0a1.792,1.792,0,0,1-1.8-1.8h0A1.792,1.792,0,0,1,331.1,319.8Z"/>
            <path id="Rectangle_1410-9_9_" class="cls-17" d="M362.9,312.5h0a1.792,1.792,0,0,1,1.8,1.8h0a1.792,1.792,0,0,1-1.8,1.8h0a1.792,1.792,0,0,1-1.8-1.8h0A1.792,1.792,0,0,1,362.9,312.5Z"/>
            <path id="Rectangle_1419-9_9_" class="cls-17" d="M367.3,319.8h0a1.792,1.792,0,0,1,1.8,1.8h0a1.792,1.792,0,0,1-1.8,1.8h0a1.792,1.792,0,0,1-1.8-1.8h0A1.733,1.733,0,0,1,367.3,319.8Z"/>
            <path id="Rectangle_1406-9_9_" class="cls-17" d="M334,312.5h0a1.792,1.792,0,0,1,1.8,1.8h0a1.792,1.792,0,0,1-1.8,1.8h0a1.792,1.792,0,0,1-1.8-1.8h0A1.792,1.792,0,0,1,334,312.5Z"/>
            <path id="Rectangle_1423-9_9_" class="cls-17" d="M338.3,319.8h0a1.792,1.792,0,0,1,1.8,1.8h0a1.792,1.792,0,0,1-1.8,1.8h0a1.792,1.792,0,0,1-1.8-1.8h0A1.793,1.793,0,0,1,338.3,319.8Z"/>
            <path id="Rectangle_1407-9_9_" class="cls-17" d="M341.2,312.5h0a1.792,1.792,0,0,1,1.8,1.8h0a1.792,1.792,0,0,1-1.8,1.8h0a1.792,1.792,0,0,1-1.8-1.8h0A1.792,1.792,0,0,1,341.2,312.5Z"/>
            <path id="Rectangle_1422-9_9_" class="cls-17" d="M345.6,319.8h0a1.792,1.792,0,0,1,1.8,1.8h0a1.792,1.792,0,0,1-1.8,1.8h0a1.792,1.792,0,0,1-1.8-1.8h0A1.733,1.733,0,0,1,345.6,319.8Z"/>
            <path id="Rectangle_1408-9_9_" class="cls-17" d="M348.4,312.5h0a1.792,1.792,0,0,1,1.8,1.8h0a1.792,1.792,0,0,1-1.8,1.8h0a1.792,1.792,0,0,1-1.8-1.8h0A1.859,1.859,0,0,1,348.4,312.5Z"/>
            <path id="Rectangle_1421-9_9_" class="cls-17" d="M352.8,319.8h0a1.792,1.792,0,0,1,1.8,1.8h0a1.792,1.792,0,0,1-1.8,1.8h0a1.792,1.792,0,0,1-1.8-1.8h0A1.793,1.793,0,0,1,352.8,319.8Z"/>
            <path id="Rectangle_1409-9_9_" class="cls-17" d="M355.7,312.5h0a1.792,1.792,0,0,1,1.8,1.8h0a1.792,1.792,0,0,1-1.8,1.8h0a1.792,1.792,0,0,1-1.8-1.8h0A1.792,1.792,0,0,1,355.7,312.5Z"/>
            <path id="Rectangle_1420-9_9_" class="cls-17" d="M360,319.8h0a1.792,1.792,0,0,1,1.8,1.8h0a1.792,1.792,0,0,1-1.8,1.8h0a1.792,1.792,0,0,1-1.8-1.8h0A1.793,1.793,0,0,1,360,319.8Z"/>
          </g>
        </g>
      </g>
      <g id="Group_7297_2_2" data-name="Group_7297_2_" class="cls-18" transform="translate(488.063 2992.049)">
        <path id="Rectangle_3103_2_2" data-name="Rectangle_3103_2_" class="cls-19" d="M-133-1484.8H75a.945.945,0,0,1,1,1v349.2a1,1,0,0,1-1,1H-133a.945.945,0,0,1-1-1v-349.2A1,1,0,0,1-133-1484.8Z"/>
      </g>
      <path id="Path_5961_2_" class="cls-14" d="M85.524,360.231c1.786-.186,271.025-15.955,386.686-2.267,26.7,3.632,36.887,8.027,48.331,18.407s17.72,43.956-36.709,61.137-78.1,16.7-148.1,8.682c-70.115-8.019-92.668-1.119-131.522,2.424s-96.437,1.831-122.9-13.368C54.848,419.954,8.486,369.743,85.524,360.231Z" transform="translate(128.094 1498.974)"/>
      <g id="Path_6084_2_" transform="translate(487.063 2988.6)">
        <path id="Path_6086" data-name="Path 6086" class="cls-20" d="M-215.9-1112.7l82.9-18.2v-350.2l-82.9-9.5Z"/>
      </g>
      <g id="Group_7303_2_" transform="translate(-659.22 810.477)">
        <path id="Path_5439_2_" class="cls-21" d="M1078,842l1.7,19.6c.1,1.6.3,11-.9,12.7l-33.1,7.5c-2.4,8.1,4.2,35.9,1,31.3l2.2-48.5,16.7-1.4-4.8-25Z"/>
        <g id="Group_5728_2_" transform="translate(1063.314 2244.756)">
          <ellipse id="Ellipse_1094_2_" class="cls-22" cx="82.5" cy="26.7" rx="82.5" ry="26.7" transform="translate(-106.3 -1186.3)"/>
          <g id="Group_5373_2_" transform="translate(21.682)">
            <path id="Path_4787_2_" class="cls-7" d="M-61.8-1172l.3,9.2a4.743,4.743,0,0,1-3.2,4.7,17.083,17.083,0,0,1-8.1.5,7.278,7.278,0,0,1-5.3-4.3l-9-18.8a6.808,6.808,0,0,1,.3-6.5c2.5-3.9,7.8-5.2,11.6-1.5Z"/>
            <path id="Path_4775_2_" class="cls-11" d="M-61-1175l.3,8.9a4.618,4.618,0,0,1-3.1,4.6,15.863,15.863,0,0,1-7.8.5,7.363,7.363,0,0,1-5.2-4.2l-8.7-18.2a6.434,6.434,0,0,1,.3-6.3c2.4-3.7,7.6-5.1,11.2-1.4Z"/>
            <path id="Path_4769_2_" class="cls-21" d="M-104.1-1397.1l-1.7,19.6a19.326,19.326,0,0,0,.2,4.8l15.9,42.8c2.4,8.1,13.8,8.5,17,3.9L-83-1336.8l-9.5-34.9,5.7-29.2Z"/>
            <path id="Path_4773_2_" class="cls-2" d="M-22.2-1329.3s4.6,45.9-3.1,102.3c-5.5,41.1-6.6,57.3-6.7,63.1a3.655,3.655,0,0,1-3,3.6c-4.8,1.1-13.5,2.5-14.2-1.7-1.9-25.8,0-91.8,0-91.8l-5.7-41.1-4.8,42.1-1,78.4c0,4.3-14.3,6.7-16.3-1.9l-2.9-83.2-5.7-58.3,29.6-11.5Z"/>
            <path id="Path_4771_2_" class="cls-21" d="M-55.8-1461.7l-16.3,26.8,26.8-5.7,6.7-9.6s5.7,4.3,8.6,0c3.1-4.8,6.1-9.5,6.7-19.1,1.9-2.9,3.5-6,1.9-12.4-1.1-8.8-7.2-7.3-13.4-5.7Z"/>
            <path id="Path_4768_2_" class="cls-12" d="M-29.9-1441.1c-12.1-5-27.2-6.2-42.2-6A22.819,22.819,0,0,0-91-1436.9c-7.6,11.8-12.8,29.5-15.2,36.2a2.865,2.865,0,0,0,1.7,3.6c4.2,1.5,12.3,4.1,16.5,2.9,3.9,15.4,1.9,44,1.9,44s-3.5,19.9-3.8,34a3.667,3.667,0,0,0,2.1,3.4c22.4,11.3,45.7-3.1,45.7-3.1l18.4-12.5a5.777,5.777,0,0,0,2.5-5l-2.7-57,2.4,7.9a1.915,1.915,0,0,0,2.2,1.3c7-1.4,11.4-5.3,15.3-12.7a1.063,1.063,0,0,0,.1-.8c-5.4-16.3-9.8-30.1-18.8-41.1A18.542,18.542,0,0,0-29.9-1441.1Z"/>
            <path id="Path_4781_2_" class="cls-16" d="M-24.7-1473.3c1.3-1.6,9.6-12.1,8.5-18.3-2.7-9.4-10.9-12.6-18.1-12.2,1.9,6.3-5.5,7.7-11,5.7-10.8-2.2-17.7,9.2-19.9,22-2.3,11,5.6,21.2,12.1,21.2s18-1.3,18.8-6c-9.2-7.6,3-19.8,2.2-9.6C-30.2-1468.5-30.2-1467.3-24.7-1473.3Z"/>
            <g id="Group_5368_2_" transform="translate(55.083 337.896)">
              <path id="Path_4776_2_" class="cls-11" d="M-86.6-1503.9l-16.4,1.5a1.863,1.863,0,0,0-1.7,1.9v15.4a2.9,2.9,0,0,0,2.9,2.9h0l42-.9c6.7,0,6.7-11.5,0-13.4Z"/>
              <path id="Rectangle_2230_2_" class="cls-7" d="M-104.9-1486.2h48.8a2.006,2.006,0,0,1,2,2h0a2.006,2.006,0,0,1-2,2h-48.8a2.006,2.006,0,0,1-2-2h0A2.006,2.006,0,0,1-104.9-1486.2Z"/>
              <g id="Group_5322_2_" transform="translate(6.662 4.99) rotate(4.992)">
                <g id="Group_5321_2_" transform="matrix(0.999, 0.035, -0.035, 0.999, 5.255, -0.13)">
                  <path id="Path_4220_2_" class="cls-2" d="M-261.5-1480.4c-4.4-1.3-10.6-1.9-14.2,3-2,2.4-4.3,3.8-6.7,3.9a8.375,8.375,0,0,1-5.7-1.9.75.75,0,0,0-.9,0,.608.608,0,0,0,0,.8h0a10.293,10.293,0,0,0,6.8,2.2c2.8-.1,5.4-1.6,7.6-4.3,5.3-7.2,16.8-1.1,17.3-.8a.761.761,0,0,0,.9-.1.54.54,0,0,0-.2-.8A38.942,38.942,0,0,0-261.5-1480.4Z"/>
                </g>
                <path id="Path_4786_2_" class="cls-2" d="M-233.1-1486.9h-.4a3.257,3.257,0,0,0-3.5,3h0v.4a3.257,3.257,0,0,0,3,3.5h.4a3.257,3.257,0,0,0,3.5-3h0v-.4a3.247,3.247,0,0,0-3-3.5Z"/>
              </g>
            </g>
            <g id="Group_5323_2_" transform="translate(27.039 337.657) rotate(-108)">
              <g id="Group_5321-2_2_" transform="translate(1.853 -0.207) rotate(8)">
                <path id="Path_4220-2_2_" class="cls-2" d="M1517.9,156.1c-2.9-.9-7.1-1.3-9.5,2a6.377,6.377,0,0,1-4.5,2.6,5.846,5.846,0,0,1-3.8-1.3.637.637,0,0,0-.6,0,.454.454,0,0,0,0,.5h0a7.383,7.383,0,0,0,4.5,1.5,7.07,7.07,0,0,0,5.1-2.9c3.5-4.8,11.2-.7,11.5-.6a.471.471,0,0,0,.6-.1.44.44,0,0,0-.1-.5C1520,156.9,1519,156.5,1517.9,156.1Z"/>
              </g>
              <path id="Path_4786-2_2_" class="cls-2" d="M1465.4,365.5h-.3a2.138,2.138,0,0,0-2.3,2h0v.3a2.138,2.138,0,0,0,2,2.3h.3a2.138,2.138,0,0,0,2.3-2h0v-.3a2.083,2.083,0,0,0-2-2.3Z"/>
            </g>
            <path id="Intersection_3_2_" class="cls-23" d="M-80.5-1381.5c-.9-13.6-8.6-44.5-8.6-44.5l-4,30.9v1a13.037,13.037,0,0,0,5.2-.2c3.9,15.4,1.9,44,1.9,44s-.6,3.4-1.3,8.4C-84.1-1354.4-79.9-1373-80.5-1381.5Z"/>
          </g>
          <path id="Intersection_4_2_" class="cls-23" d="M.5-1333.3l-2.6-55.8c-.9-3.6-2.7-10.7-3.6-15.5-1.7-9.2-1.8-14.1-2.8-9.3-1.8,8.5-1.6,39.1,0,61.1,1,13,4.9,19.6,8,22.9A5.235,5.235,0,0,0,.5-1333.3Z"/>
        </g>
      </g>
      <g id="Group_7304_2_" transform="translate(371.094 730.021) rotate(180)">
        <path id="Rectangle_3083-2_2_" class="cls-24" d="M80-931.8v-33.3a6.018,6.018,0,0,1,6-6h0a6.018,6.018,0,0,1,6,6v33.3a6.018,6.018,0,0,1-6,6h0A6.018,6.018,0,0,1,80-931.8Z"/>
        <path id="Rectangle_3084-2_2_" class="cls-14" d="M85-939.8v-16.3a2.946,2.946,0,0,1,3-3h0a2.946,2.946,0,0,1,3,3v16.3a2.946,2.946,0,0,1-3,3h0A3.009,3.009,0,0,1,85-939.8Z"/>
      </g>
    </g>
  </g>
</svg>
