<?xml version="1.0" encoding="utf-8"?>
<!-- Generator: Adobe Illustrator 21.0.0, SVG Export Plug-In . SVG Version: 6.00 Build 0)  -->
<svg version="1.1" id="Layer_1" xmlns="http://www.w3.org/2000/svg" xmlns:xlink="http://www.w3.org/1999/xlink" x="0px" y="0px"
	 viewBox="0 0 1160 695" enable-background="new 0 0 1160 695" xml:space="preserve">
<linearGradient id="Path_5033_1_" gradientUnits="userSpaceOnUse" x1="283.6568" y1="714.5864" x2="283.6438" y2="715.8594" gradientTransform="matrix(798.0305 97.9858 73.3011 -596.9894 -278217.3125 399567.4063)">
	<stop  offset="0" style="stop-color:#C6E6FF"/>
	<stop  offset="1" style="stop-color:#FFFFFF"/>
</linearGradient>
<path id="Path_5033" fill="url(#Path_5033_1_)" d="M550.4,96.4C446.5,133.9,340,133.8,340,133.8s-196.1,31-160,219
	s43.5,249.8,134.3,265.7c86.4,13.1,116.7-16.7,201.8,0c74.7,15.1,193.6,21.6,325.6-12.6C1054.5,541.3,1052.2-82.6,550.4,96.4z"/>
<path id="Path_5398" opacity="0.435" fill="#C6E6FF" enable-background="new    " d="M267.2,87.9c-23.8-12.5-67,25.5-104.9-5.6
	s-46.4,31.2-90.8,37.2s69.5,92.9,136.4,44.6c17.4-12.6,61.1-21.2,69.5-28.3C300.3,116.3,291.1,100.4,267.2,87.9z"/>
<path id="Path_5399" opacity="0.369" fill="#C6E6FF" enable-background="new    " d="M1035.4,204.4c-28,18-85.3-24.2-128.6,18.2
	s-60.5-33.4-115.7-36c-55.2-2.5,84.2-102,171.8-49.7c22.8,13.6,92.2-3.6,103.3,4.2C1096.4,162.6,1063.4,186.4,1035.4,204.4z"/>
<g id="Group_6214" transform="translate(11)">
	
		<linearGradient id="Ellipse_1216_1_" gradientUnits="userSpaceOnUse" x1="279.8022" y1="422.3758" x2="279.8022" y2="420.3718" gradientTransform="matrix(321 0 0 -55 -89667 23638)">
		<stop  offset="0" style="stop-color:#288ED9"/>
		<stop  offset="1" style="stop-color:#137FCF;stop-opacity:5.100000e-02"/>
	</linearGradient>
	<ellipse id="Ellipse_1216" fill="url(#Ellipse_1216_1_)" cx="149.5" cy="490.1" rx="160.5" ry="27.5"/>
	<g id="Group_5596" transform="translate(248.714 454.972)">
		<g id="Group_5583" transform="translate(0 0)">
			<g id="Group_5582" transform="translate(0 0)">
				<g id="Group_5581" transform="translate(0)">
					<rect id="Rectangle_1567" x="-131.3" y="-125.6" fill="#005B9F" width="140" height="15.7"/>
					<g id="Group_104" transform="translate(65.162 16.739)">
						<path id="Rectangle_1405" fill="#288ED9" d="M-138.1-166.4L-138.1-166.4c1,0,1.9,0.8,1.9,1.9l0,0c0,1-0.8,1.9-1.9,1.9l0,0
							c-1,0-1.9-0.8-1.9-1.9l0,0C-140-165.6-139.2-166.4-138.1-166.4z"/>
						<path id="Rectangle_1424" fill="#288ED9" d="M-133.6-159L-133.6-159c1,0,1.9,0.8,1.9,1.9l0,0c0,1-0.8,1.9-1.9,1.9l0,0
							c-1,0-1.9-0.8-1.9-1.9l0,0C-135.5-158.1-134.7-159-133.6-159z"/>
						<path id="Rectangle_1410" fill="#288ED9" d="M-100.8-166.4L-100.8-166.4c1,0,1.9,0.8,1.9,1.9l0,0c0,1-0.8,1.9-1.9,1.9l0,0
							c-1,0-1.9-0.8-1.9-1.9l0,0C-102.6-165.6-101.8-166.4-100.8-166.4z"/>
						<path id="Rectangle_1419" fill="#288ED9" d="M-96.3-159L-96.3-159c1,0,1.9,0.8,1.9,1.9l0,0c0,1-0.8,1.9-1.9,1.9l0,0
							c-1,0-1.9-0.8-1.9-1.9l0,0C-98.2-158.1-97.3-159-96.3-159z"/>
						<path id="Rectangle_1406" fill="#288ED9" d="M-130.7-166.4L-130.7-166.4c1,0,1.9,0.8,1.9,1.9l0,0c0,1-0.8,1.9-1.9,1.9l0,0
							c-1,0-1.9-0.8-1.9-1.9l0,0C-132.5-165.6-131.7-166.4-130.7-166.4z"/>
						<path id="Rectangle_1423" fill="#288ED9" d="M-126.2-159L-126.2-159c1,0,1.9,0.8,1.9,1.9l0,0c0,1-0.8,1.9-1.9,1.9l0,0
							c-1,0-1.9-0.8-1.9-1.9l0,0C-128-158.1-127.2-159-126.2-159z"/>
						<path id="Rectangle_1411" fill="#288ED9" d="M-93.3-166.4L-93.3-166.4c1,0,1.9,0.8,1.9,1.9l0,0c0,1-0.8,1.9-1.9,1.9l0,0
							c-1,0-1.9-0.8-1.9-1.9l0,0C-95.2-165.6-94.3-166.4-93.3-166.4z"/>
						<path id="Rectangle_1418" fill="#288ED9" d="M-88.8-159L-88.8-159c1,0,1.9,0.8,1.9,1.9l0,0c0,1-0.8,1.9-1.9,1.9l0,0
							c-1,0-1.9-0.8-1.9-1.9l0,0C-90.7-158.1-89.8-159-88.8-159z"/>
						<path id="Rectangle_1407" fill="#288ED9" d="M-123.2-166.4L-123.2-166.4c1,0,1.9,0.8,1.9,1.9l0,0c0,1-0.8,1.9-1.9,1.9l0,0
							c-1,0-1.9-0.8-1.9-1.9l0,0C-125.1-165.6-124.2-166.4-123.2-166.4z"/>
						<path id="Rectangle_1422" fill="#288ED9" d="M-118.7-159L-118.7-159c1,0,1.9,0.8,1.9,1.9l0,0c0,1-0.8,1.9-1.9,1.9l0,0
							c-1,0-1.9-0.8-1.9-1.9l0,0C-120.6-158.1-119.7-159-118.7-159z"/>
						<path id="Rectangle_1412" fill="#288ED9" d="M-85.8-166.4L-85.8-166.4c1,0,1.9,0.8,1.9,1.9l0,0c0,1-0.8,1.9-1.9,1.9l0,0
							c-1,0-1.9-0.8-1.9-1.9l0,0C-87.7-165.6-86.9-166.4-85.8-166.4z"/>
						<path id="Rectangle_1417" fill="#288ED9" d="M-81.3-159L-81.3-159c1,0,1.9,0.8,1.9,1.9l0,0c0,1-0.8,1.9-1.9,1.9l0,0
							c-1,0-1.9-0.8-1.9-1.9l0,0C-83.2-158.1-82.4-159-81.3-159z"/>
						<path id="Rectangle_1408" fill="#288ED9" d="M-115.7-166.4L-115.7-166.4c1,0,1.9,0.8,1.9,1.9l0,0c0,1-0.8,1.9-1.9,1.9l0,0
							c-1,0-1.9-0.8-1.9-1.9l0,0C-117.6-165.6-116.7-166.4-115.7-166.4z"/>
						<path id="Rectangle_1421" fill="#288ED9" d="M-111.2-159L-111.2-159c1,0,1.9,0.8,1.9,1.9l0,0c0,1-0.8,1.9-1.9,1.9l0,0
							c-1,0-1.9-0.8-1.9-1.9l0,0C-113.1-158.1-112.3-159-111.2-159z"/>
						<path id="Rectangle_1413" fill="#288ED9" d="M-78.3-166.4L-78.3-166.4c1,0,1.9,0.8,1.9,1.9l0,0c0,1-0.8,1.9-1.9,1.9l0,0
							c-1,0-1.9-0.8-1.9-1.9l0,0C-80.2-165.6-79.4-166.4-78.3-166.4z"/>
						<path id="Rectangle_1416" fill="#288ED9" d="M-73.9-159L-73.9-159c1,0,1.9,0.8,1.9,1.9l0,0c0,1-0.8,1.9-1.9,1.9l0,0
							c-1,0-1.9-0.8-1.9-1.9l0,0C-75.7-158.1-74.9-159-73.9-159z"/>
						<path id="Rectangle_1409" fill="#288ED9" d="M-108.2-166.4L-108.2-166.4c1,0,1.9,0.8,1.9,1.9l0,0c0,1-0.8,1.9-1.9,1.9l0,0
							c-1,0-1.9-0.8-1.9-1.9l0,0C-110.1-165.6-109.3-166.4-108.2-166.4z"/>
						<path id="Rectangle_1420" fill="#288ED9" d="M-103.8-159L-103.8-159c1,0,1.9,0.8,1.9,1.9l0,0c0,1-0.8,1.9-1.9,1.9l0,0
							c-1,0-1.9-0.8-1.9-1.9l0,0C-105.6-158.1-104.8-159-103.8-159z"/>
						<path id="Rectangle_1414" fill="#288ED9" d="M-70.9-166.4L-70.9-166.4c1,0,1.9,0.8,1.9,1.9l0,0c0,1-0.8,1.9-1.9,1.9l0,0
							c-1,0-1.9-0.8-1.9-1.9l0,0C-72.7-165.6-71.9-166.4-70.9-166.4z"/>
						<path id="Rectangle_1415" fill="#288ED9" d="M-66.4-159L-66.4-159c1,0,1.9,0.8,1.9,1.9l0,0c0,1-0.8,1.9-1.9,1.9l0,0
							c-1,0-1.9-0.8-1.9-1.9l0,0C-68.3-158.1-67.4-159-66.4-159z"/>
					</g>
					<path id="Rectangle_1634" fill="#2086D1" d="M-135-166.4H11.9c2.8,0,5,2.2,5,5v33.9c0,2.8-2.2,5-5,5H-135c-2.8,0-5-2.2-5-5
						v-33.9C-140-164.2-137.8-166.4-135-166.4z"/>
					<g id="Group_113" transform="translate(15.842 16.739)">
						<g id="Rectangle_1635" transform="translate(0 0)">
							<path fill="#21E2E2" d="M-134.3-166.4L-134.3-166.4c3.2,0,5.7,2.6,5.7,5.7v0.5c0,3.2-2.6,5.7-5.7,5.7l0,0
								c-3.2,0-5.7-2.6-5.7-5.7v-0.5C-140-163.9-137.4-166.4-134.3-166.4z"/>
							<path fill="none" stroke="#137FCF" stroke-width="2" d="M-134.3-165.4L-134.3-165.4c2.6,0,4.7,2.1,4.7,4.7v0.5
								c0,2.6-2.1,4.7-4.7,4.7l0,0c-2.6,0-4.7-2.1-4.7-4.7v-0.5C-139-163.3-136.9-165.4-134.3-165.4z"/>
						</g>
						<g id="Rectangle_1636" transform="translate(16.739 0)">
							<path fill="#FFBC98" d="M-134.3-166.4L-134.3-166.4c3.2,0,5.7,2.6,5.7,5.7v0.5c0,3.2-2.6,5.7-5.7,5.7l0,0
								c-3.2,0-5.7-2.6-5.7-5.7v-0.5C-140-163.9-137.4-166.4-134.3-166.4z"/>
							<path fill="none" stroke="#137FCF" stroke-width="2" d="M-134.3-165.4L-134.3-165.4c2.6,0,4.7,2.1,4.7,4.7v0.5
								c0,2.6-2.1,4.7-4.7,4.7l0,0c-2.6,0-4.7-2.1-4.7-4.7v-0.5C-139-163.3-136.9-165.4-134.3-165.4z"/>
						</g>
					</g>
					<path id="Rectangle_1640" fill="#1266A5" d="M-137-166.4h54.5l0,0v43.9l0,0H-137c-1.7,0-3-1.3-3-3v-37.9
						C-140-165.1-138.7-166.4-137-166.4z"/>
				</g>
			</g>
		</g>
		<g id="Group_5586" transform="translate(68.46 12.848)">
			<g id="Group_5584" transform="translate(0 0)">
				<path id="Rectangle_1405-2" fill="#379CE6" d="M-136.9-166.4L-136.9-166.4c1.7,0,3.1,1.4,3.1,3.1l0,0c0,1.7-1.4,3.1-3.1,3.1l0,0
					c-1.7,0-3.1-1.4-3.1-3.1l0,0C-140-165.1-138.6-166.4-136.9-166.4z"/>
				<path id="Rectangle_1424-2" fill="#379CE6" d="M-129.5-154.1L-129.5-154.1c1.7,0,3.1,1.4,3.1,3.1l0,0c0,1.7-1.4,3.1-3.1,3.1l0,0
					c-1.7,0-3.1-1.4-3.1-3.1l0,0C-132.6-152.7-131.2-154.1-129.5-154.1z"/>
				<path id="Rectangle_1410-2" fill="#379CE6" d="M-75-166.4L-75-166.4c1.7,0,3.1,1.4,3.1,3.1l0,0c0,1.7-1.4,3.1-3.1,3.1l0,0
					c-1.7,0-3.1-1.4-3.1-3.1l0,0C-78.1-165.1-76.8-166.4-75-166.4z"/>
				<path id="Rectangle_1419-2" fill="#379CE6" d="M-67.6-154.1L-67.6-154.1c1.7,0,3.1,1.4,3.1,3.1l0,0c0,1.7-1.4,3.1-3.1,3.1l0,0
					c-1.7,0-3.1-1.4-3.1-3.1l0,0C-70.7-152.7-69.3-154.1-67.6-154.1z"/>
				<path id="Rectangle_1406-2" fill="#379CE6" d="M-124.5-166.4L-124.5-166.4c1.7,0,3.1,1.4,3.1,3.1l0,0c0,1.7-1.4,3.1-3.1,3.1l0,0
					c-1.7,0-3.1-1.4-3.1-3.1l0,0C-127.6-165.1-126.2-166.4-124.5-166.4z"/>
				<path id="Rectangle_1423-2" fill="#379CE6" d="M-117.1-154.1L-117.1-154.1c1.7,0,3.1,1.4,3.1,3.1l0,0c0,1.7-1.4,3.1-3.1,3.1l0,0
					c-1.7,0-3.1-1.4-3.1-3.1l0,0C-120.2-152.7-118.8-154.1-117.1-154.1z"/>
				<path id="Rectangle_1407-2" fill="#379CE6" d="M-112.2-166.4L-112.2-166.4c1.7,0,3.1,1.4,3.1,3.1l0,0c0,1.7-1.4,3.1-3.1,3.1l0,0
					c-1.7,0-3.1-1.4-3.1-3.1l0,0C-115.3-165.1-113.9-166.4-112.2-166.4z"/>
				<path id="Rectangle_1422-2" fill="#379CE6" d="M-104.7-154.1L-104.7-154.1c1.7,0,3.1,1.4,3.1,3.1l0,0c0,1.7-1.4,3.1-3.1,3.1l0,0
					c-1.7,0-3.1-1.4-3.1-3.1l0,0C-107.8-152.7-106.4-154.1-104.7-154.1z"/>
				<path id="Rectangle_1408-2" fill="#379CE6" d="M-99.8-166.4L-99.8-166.4c1.7,0,3.1,1.4,3.1,3.1l0,0c0,1.7-1.4,3.1-3.1,3.1l0,0
					c-1.7,0-3.1-1.4-3.1-3.1l0,0C-102.9-165.1-101.5-166.4-99.8-166.4z"/>
				<path id="Rectangle_1421-2" fill="#379CE6" d="M-92.4-154.1L-92.4-154.1c1.7,0,3.1,1.4,3.1,3.1l0,0c0,1.7-1.4,3.1-3.1,3.1l0,0
					c-1.7,0-3.1-1.4-3.1-3.1l0,0C-95.5-152.7-94.1-154.1-92.4-154.1z"/>
				<path id="Rectangle_1409-2" fill="#379CE6" d="M-87.4-166.4L-87.4-166.4c1.7,0,3.1,1.4,3.1,3.1l0,0c0,1.7-1.4,3.1-3.1,3.1l0,0
					c-1.7,0-3.1-1.4-3.1-3.1l0,0C-90.5-165.1-89.1-166.4-87.4-166.4z"/>
				<path id="Rectangle_1420-2" fill="#379CE6" d="M-80-154.1L-80-154.1c1.7,0,3.1,1.4,3.1,3.1l0,0c0,1.7-1.4,3.1-3.1,3.1l0,0
					c-1.7,0-3.1-1.4-3.1-3.1l0,0C-83.1-152.7-81.7-154.1-80-154.1z"/>
			</g>
		</g>
	</g>
	<g id="Group_5595" transform="translate(248.714 473.693)">
		<g id="Group_5583-2" transform="translate(0 0)">
			<g id="Group_5582-2" transform="translate(0)">
				<g id="Group_5581-2" transform="translate(0)">
					<rect id="Rectangle_1565" x="-131.3" y="-89.9" fill="#005B9F" width="140" height="13.6"/>
					<path id="Path_3764" fill="#2086D1" d="M-134.8-131.8H11.7c2.9,0,5.2,2.3,5.2,5.2c0,0,0,0,0,0v33.5c0,2.9-2.3,5.2-5.2,5.2l0,0
						h-146.5c-2.9,0-5.2-2.3-5.2-5.2v-33.5C-140-129.4-137.7-131.8-134.8-131.8z"/>
					<path id="Path_5064" fill="#005B9F" d="M-131.3-38.7h140V-23h-140V-38.7z"/>
					<g id="Group_104-2" transform="translate(65.162 103.737)">
						<path id="Rectangle_1405-3" fill="#288ED9" d="M-138.1-166.4L-138.1-166.4c1,0,1.9,0.8,1.9,1.9l0,0c0,1-0.8,1.9-1.9,1.9l0,0
							c-1,0-1.9-0.8-1.9-1.9l0,0C-140-165.6-139.2-166.4-138.1-166.4z"/>
						<path id="Rectangle_1424-3" fill="#288ED9" d="M-133.6-159L-133.6-159c1,0,1.9,0.8,1.9,1.9l0,0c0,1-0.8,1.9-1.9,1.9l0,0
							c-1,0-1.9-0.8-1.9-1.9l0,0C-135.5-158.1-134.7-159-133.6-159z"/>
						<path id="Rectangle_1410-3" fill="#288ED9" d="M-100.8-166.4L-100.8-166.4c1,0,1.9,0.8,1.9,1.9l0,0c0,1-0.8,1.9-1.9,1.9l0,0
							c-1,0-1.9-0.8-1.9-1.9l0,0C-102.6-165.6-101.8-166.4-100.8-166.4z"/>
						<path id="Rectangle_1419-3" fill="#288ED9" d="M-96.3-159L-96.3-159c1,0,1.9,0.8,1.9,1.9l0,0c0,1-0.8,1.9-1.9,1.9l0,0
							c-1,0-1.9-0.8-1.9-1.9l0,0C-98.2-158.1-97.3-159-96.3-159z"/>
						<path id="Rectangle_1406-3" fill="#288ED9" d="M-130.7-166.4L-130.7-166.4c1,0,1.9,0.8,1.9,1.9l0,0c0,1-0.8,1.9-1.9,1.9l0,0
							c-1,0-1.9-0.8-1.9-1.9l0,0C-132.5-165.6-131.7-166.4-130.7-166.4z"/>
						<path id="Rectangle_1423-3" fill="#288ED9" d="M-126.2-159L-126.2-159c1,0,1.9,0.8,1.9,1.9l0,0c0,1-0.8,1.9-1.9,1.9l0,0
							c-1,0-1.9-0.8-1.9-1.9l0,0C-128-158.1-127.2-159-126.2-159z"/>
						<path id="Rectangle_1411-2" fill="#288ED9" d="M-93.3-166.4L-93.3-166.4c1,0,1.9,0.8,1.9,1.9l0,0c0,1-0.8,1.9-1.9,1.9l0,0
							c-1,0-1.9-0.8-1.9-1.9l0,0C-95.2-165.6-94.3-166.4-93.3-166.4z"/>
						<path id="Rectangle_1418-2" fill="#288ED9" d="M-88.8-159L-88.8-159c1,0,1.9,0.8,1.9,1.9l0,0c0,1-0.8,1.9-1.9,1.9l0,0
							c-1,0-1.9-0.8-1.9-1.9l0,0C-90.7-158.1-89.8-159-88.8-159z"/>
						<path id="Rectangle_1407-3" fill="#288ED9" d="M-123.2-166.4L-123.2-166.4c1,0,1.9,0.8,1.9,1.9l0,0c0,1-0.8,1.9-1.9,1.9l0,0
							c-1,0-1.9-0.8-1.9-1.9l0,0C-125.1-165.6-124.2-166.4-123.2-166.4z"/>
						<path id="Rectangle_1422-3" fill="#288ED9" d="M-118.7-159L-118.7-159c1,0,1.9,0.8,1.9,1.9l0,0c0,1-0.8,1.9-1.9,1.9l0,0
							c-1,0-1.9-0.8-1.9-1.9l0,0C-120.6-158.1-119.7-159-118.7-159z"/>
						<path id="Rectangle_1412-2" fill="#288ED9" d="M-85.8-166.4L-85.8-166.4c1,0,1.9,0.8,1.9,1.9l0,0c0,1-0.8,1.9-1.9,1.9l0,0
							c-1,0-1.9-0.8-1.9-1.9l0,0C-87.7-165.6-86.9-166.4-85.8-166.4z"/>
						<path id="Rectangle_1417-2" fill="#288ED9" d="M-81.3-159L-81.3-159c1,0,1.9,0.8,1.9,1.9l0,0c0,1-0.8,1.9-1.9,1.9l0,0
							c-1,0-1.9-0.8-1.9-1.9l0,0C-83.2-158.1-82.4-159-81.3-159z"/>
						<path id="Rectangle_1408-3" fill="#288ED9" d="M-115.7-166.4L-115.7-166.4c1,0,1.9,0.8,1.9,1.9l0,0c0,1-0.8,1.9-1.9,1.9l0,0
							c-1,0-1.9-0.8-1.9-1.9l0,0C-117.6-165.6-116.7-166.4-115.7-166.4z"/>
						<path id="Rectangle_1421-3" fill="#288ED9" d="M-111.2-159L-111.2-159c1,0,1.9,0.8,1.9,1.9l0,0c0,1-0.8,1.9-1.9,1.9l0,0
							c-1,0-1.9-0.8-1.9-1.9l0,0C-113.1-158.1-112.3-159-111.2-159z"/>
						<path id="Rectangle_1413-2" fill="#288ED9" d="M-78.3-166.4L-78.3-166.4c1,0,1.9,0.8,1.9,1.9l0,0c0,1-0.8,1.9-1.9,1.9l0,0
							c-1,0-1.9-0.8-1.9-1.9l0,0C-80.2-165.6-79.4-166.4-78.3-166.4z"/>
						<path id="Rectangle_1416-2" fill="#288ED9" d="M-73.9-159L-73.9-159c1,0,1.9,0.8,1.9,1.9l0,0c0,1-0.8,1.9-1.9,1.9l0,0
							c-1,0-1.9-0.8-1.9-1.9l0,0C-75.7-158.1-74.9-159-73.9-159z"/>
						<path id="Rectangle_1409-3" fill="#288ED9" d="M-108.2-166.4L-108.2-166.4c1,0,1.9,0.8,1.9,1.9l0,0c0,1-0.8,1.9-1.9,1.9l0,0
							c-1,0-1.9-0.8-1.9-1.9l0,0C-110.1-165.6-109.3-166.4-108.2-166.4z"/>
						<path id="Rectangle_1420-3" fill="#288ED9" d="M-103.8-159L-103.8-159c1,0,1.9,0.8,1.9,1.9l0,0c0,1-0.8,1.9-1.9,1.9l0,0
							c-1,0-1.9-0.8-1.9-1.9l0,0C-105.6-158.1-104.8-159-103.8-159z"/>
						<path id="Rectangle_1414-2" fill="#288ED9" d="M-70.9-166.4L-70.9-166.4c1,0,1.9,0.8,1.9,1.9l0,0c0,1-0.8,1.9-1.9,1.9l0,0
							c-1,0-1.9-0.8-1.9-1.9l0,0C-72.7-165.6-71.9-166.4-70.9-166.4z"/>
						<path id="Rectangle_1415-2" fill="#288ED9" d="M-66.4-159L-66.4-159c1,0,1.9,0.8,1.9,1.9l0,0c0,1-0.8,1.9-1.9,1.9l0,0
							c-1,0-1.9-0.8-1.9-1.9l0,0C-68.3-158.1-67.4-159-66.4-159z"/>
					</g>
					<path id="Rectangle_1639" fill="#0E71BB" d="M-137-131.8h54.5l0,0v43.9l0,0H-137c-1.7,0-3-1.3-3-3v-37.9
						C-140-130.4-138.7-131.8-137-131.8z"/>
					<path id="Path_5062" fill="#2086D1" d="M-132.1-79.5H9c4.4,0,7.9,3.5,7.9,7.9v28.2c0,4.4-3.5,7.9-7.9,7.9h-141.1
						c-4.4,0-7.9-3.5-7.9-7.9v-28.2C-140-75.9-136.5-79.5-132.1-79.5z"/>
					<g id="Group_113-2" transform="translate(15.842 103.737)">
						<g id="Rectangle_1635-2" transform="translate(0 0)">
							<path fill="#21E2E2" d="M-134.3-166.4L-134.3-166.4c3.2,0,5.7,2.6,5.7,5.7v0.5c0,3.2-2.6,5.7-5.7,5.7l0,0
								c-3.2,0-5.7-2.6-5.7-5.7v-0.5C-140-163.9-137.4-166.4-134.3-166.4z"/>
							<path fill="none" stroke="#137FCF" stroke-width="2" d="M-134.3-165.4L-134.3-165.4c2.6,0,4.7,2.1,4.7,4.7v0.5
								c0,2.6-2.1,4.7-4.7,4.7l0,0c-2.6,0-4.7-2.1-4.7-4.7v-0.5C-139-163.3-136.9-165.4-134.3-165.4z"/>
						</g>
						<g id="Rectangle_1636-2" transform="translate(16.739 0)">
							<path fill="#FFBC98" d="M-134.3-166.4L-134.3-166.4c3.2,0,5.7,2.6,5.7,5.7v0.5c0,3.2-2.6,5.7-5.7,5.7l0,0
								c-3.2,0-5.7-2.6-5.7-5.7v-0.5C-140-163.9-137.4-166.4-134.3-166.4z"/>
							<path fill="none" stroke="#137FCF" stroke-width="2" d="M-134.3-165.4L-134.3-165.4c2.6,0,4.7,2.1,4.7,4.7v0.5
								c0,2.6-2.1,4.7-4.7,4.7l0,0c-2.6,0-4.7-2.1-4.7-4.7v-0.5C-139-163.3-136.9-165.4-134.3-165.4z"/>
						</g>
					</g>
					<path id="Path_5063" fill="#2086D1" d="M-132.1-27.1H9c4.4,0,7.9,3.5,7.9,7.9V8.9c0,4.4-3.5,7.9-7.9,7.9h-141.1
						c-4.4,0-7.9-3.5-7.9-7.9v-28.2C-140-23.6-136.5-27.1-132.1-27.1z"/>
					<path id="Path_5068" fill="#0E71BB" d="M-135.3-79.5h52.8v43.9h-52.8c-2.6,0-4.7-2.1-4.7-4.7v-34.5
						C-140-77.3-137.9-79.5-135.3-79.5C-135.3-79.5-135.3-79.5-135.3-79.5z"/>
					<path id="Rectangle_1425" fill="#21E2E2" d="M-116.8-114.4L-116.8-114.4c2.3,0,4.2,1.9,4.2,4.2v0.3c0,2.3-1.9,4.2-4.2,4.2l0,0
						c-2.3,0-4.2-1.9-4.2-4.2v-0.3C-121-112.5-119.1-114.4-116.8-114.4z"/>
					<path id="Rectangle_1442" fill="#FFBC98" d="M-104.8-114.4h0.4c2.2,0,4,1.8,4,4v0.7c0,2.2-1.8,4-4,4h-0.4c-2.2,0-4-1.8-4-4
						v-0.7C-108.8-112.6-107-114.4-104.8-114.4z"/>
					<path id="Rectangle_2387" fill="#21E2E2" d="M-116.8-60.7L-116.8-60.7c2.3,0,4.2,1.9,4.2,4.2v0.3c0,2.3-1.9,4.2-4.2,4.2l0,0
						c-2.3,0-4.2-1.9-4.2-4.2v-0.3C-121-58.9-119.1-60.7-116.8-60.7z"/>
					<path id="Rectangle_2388" fill="#FFBC98" d="M-104.8-60.7h0.4c2.2,0,4,1.8,4,4v0.7c0,2.2-1.8,4-4,4h-0.4c-2.2,0-4-1.8-4-4v-0.7
						C-108.8-58.9-107-60.7-104.8-60.7z"/>
					<path id="Rectangle_2389" fill="#21E2E2" d="M-116.8-166.4L-116.8-166.4c2.3,0,4.2,1.9,4.2,4.2v0.3c0,2.3-1.9,4.2-4.2,4.2l0,0
						c-2.3,0-4.2-1.9-4.2-4.2v-0.3C-121-164.6-119.1-166.4-116.8-166.4z"/>
					<path id="Rectangle_2390" fill="#FFBC98" d="M-104.8-166.4h0.4c2.2,0,4,1.8,4,4v0.7c0,2.2-1.8,4-4,4h-0.4c-2.2,0-4-1.8-4-4
						v-0.7C-108.8-164.7-107-166.4-104.8-166.4z"/>
					<path id="Path_5397" fill="#0E71BB" d="M-135.3-27.1h52.8v43.9h-52.8c-2.6,0-4.7-2.1-4.7-4.7v-34.5
						C-140-25-137.9-27.1-135.3-27.1C-135.3-27.1-135.3-27.1-135.3-27.1z"/>
					<path id="Rectangle_2491" fill="#21E2E2" d="M-116.8-8.9L-116.8-8.9c2.3,0,4.2,1.9,4.2,4.2v0.3c0,2.3-1.9,4.2-4.2,4.2l0,0
						c-2.3,0-4.2-1.9-4.2-4.2v-0.3C-121-7-119.1-8.9-116.8-8.9z"/>
					<path id="Rectangle_2492" fill="#FFBC98" d="M-104.8-8.9h0.4c2.2,0,4,1.8,4,4v0.7c0,2.2-1.8,4-4,4h-0.4c-2.2,0-4-1.8-4-4v-0.7
						C-108.8-7.1-107-8.9-104.8-8.9z"/>
				</g>
			</g>
		</g>
	</g>
	<g id="Group_6207" transform="translate(317.174 626.82)">
		<g id="Group_5584-2" transform="translate(0 0)">
			<path id="Rectangle_1405-4" fill="#379CE6" d="M-136.9-166.4L-136.9-166.4c1.7,0,3.1,1.4,3.1,3.1l0,0c0,1.7-1.4,3.1-3.1,3.1l0,0
				c-1.7,0-3.1-1.4-3.1-3.1l0,0C-140-165.1-138.6-166.4-136.9-166.4z"/>
			<path id="Rectangle_1424-4" fill="#379CE6" d="M-129.5-154.1L-129.5-154.1c1.7,0,3.1,1.4,3.1,3.1l0,0c0,1.7-1.4,3.1-3.1,3.1l0,0
				c-1.7,0-3.1-1.4-3.1-3.1l0,0C-132.6-152.7-131.2-154.1-129.5-154.1z"/>
			<path id="Rectangle_1410-4" fill="#379CE6" d="M-75-166.4L-75-166.4c1.7,0,3.1,1.4,3.1,3.1l0,0c0,1.7-1.4,3.1-3.1,3.1l0,0
				c-1.7,0-3.1-1.4-3.1-3.1l0,0C-78.1-165.1-76.8-166.4-75-166.4z"/>
			<path id="Rectangle_1419-4" fill="#379CE6" d="M-67.6-154.1L-67.6-154.1c1.7,0,3.1,1.4,3.1,3.1l0,0c0,1.7-1.4,3.1-3.1,3.1l0,0
				c-1.7,0-3.1-1.4-3.1-3.1l0,0C-70.7-152.7-69.3-154.1-67.6-154.1z"/>
			<path id="Rectangle_1406-4" fill="#379CE6" d="M-124.5-166.4L-124.5-166.4c1.7,0,3.1,1.4,3.1,3.1l0,0c0,1.7-1.4,3.1-3.1,3.1l0,0
				c-1.7,0-3.1-1.4-3.1-3.1l0,0C-127.6-165.1-126.2-166.4-124.5-166.4z"/>
			<path id="Rectangle_1423-4" fill="#379CE6" d="M-117.1-154.1L-117.1-154.1c1.7,0,3.1,1.4,3.1,3.1l0,0c0,1.7-1.4,3.1-3.1,3.1l0,0
				c-1.7,0-3.1-1.4-3.1-3.1l0,0C-120.2-152.7-118.8-154.1-117.1-154.1z"/>
			<path id="Rectangle_1407-4" fill="#379CE6" d="M-112.2-166.4L-112.2-166.4c1.7,0,3.1,1.4,3.1,3.1l0,0c0,1.7-1.4,3.1-3.1,3.1l0,0
				c-1.7,0-3.1-1.4-3.1-3.1l0,0C-115.3-165.1-113.9-166.4-112.2-166.4z"/>
			<path id="Rectangle_1422-4" fill="#379CE6" d="M-104.7-154.1L-104.7-154.1c1.7,0,3.1,1.4,3.1,3.1l0,0c0,1.7-1.4,3.1-3.1,3.1l0,0
				c-1.7,0-3.1-1.4-3.1-3.1l0,0C-107.8-152.7-106.4-154.1-104.7-154.1z"/>
			<path id="Rectangle_1408-4" fill="#379CE6" d="M-99.8-166.4L-99.8-166.4c1.7,0,3.1,1.4,3.1,3.1l0,0c0,1.7-1.4,3.1-3.1,3.1l0,0
				c-1.7,0-3.1-1.4-3.1-3.1l0,0C-102.9-165.1-101.5-166.4-99.8-166.4z"/>
			<path id="Rectangle_1421-4" fill="#379CE6" d="M-92.4-154.1L-92.4-154.1c1.7,0,3.1,1.4,3.1,3.1l0,0c0,1.7-1.4,3.1-3.1,3.1l0,0
				c-1.7,0-3.1-1.4-3.1-3.1l0,0C-95.5-152.7-94.1-154.1-92.4-154.1z"/>
			<path id="Rectangle_1409-4" fill="#379CE6" d="M-87.4-166.4L-87.4-166.4c1.7,0,3.1,1.4,3.1,3.1l0,0c0,1.7-1.4,3.1-3.1,3.1l0,0
				c-1.7,0-3.1-1.4-3.1-3.1l0,0C-90.5-165.1-89.1-166.4-87.4-166.4z"/>
			<path id="Rectangle_1420-4" fill="#379CE6" d="M-80-154.1L-80-154.1c1.7,0,3.1,1.4,3.1,3.1l0,0c0,1.7-1.4,3.1-3.1,3.1l0,0
				c-1.7,0-3.1-1.4-3.1-3.1l0,0C-83.1-152.7-81.7-154.1-80-154.1z"/>
		</g>
	</g>
	<g id="Group_6206" transform="translate(317.174 573.82)">
		<g id="Group_5584-3" transform="translate(0 0)">
			<path id="Rectangle_1405-5" fill="#379CE6" d="M-136.9-166.4L-136.9-166.4c1.7,0,3.1,1.4,3.1,3.1l0,0c0,1.7-1.4,3.1-3.1,3.1l0,0
				c-1.7,0-3.1-1.4-3.1-3.1l0,0C-140-165.1-138.6-166.4-136.9-166.4z"/>
			<path id="Rectangle_1424-5" fill="#379CE6" d="M-129.5-154.1L-129.5-154.1c1.7,0,3.1,1.4,3.1,3.1l0,0c0,1.7-1.4,3.1-3.1,3.1l0,0
				c-1.7,0-3.1-1.4-3.1-3.1l0,0C-132.6-152.7-131.2-154.1-129.5-154.1z"/>
			<path id="Rectangle_1410-5" fill="#379CE6" d="M-75-166.4L-75-166.4c1.7,0,3.1,1.4,3.1,3.1l0,0c0,1.7-1.4,3.1-3.1,3.1l0,0
				c-1.7,0-3.1-1.4-3.1-3.1l0,0C-78.1-165.1-76.8-166.4-75-166.4z"/>
			<path id="Rectangle_1419-5" fill="#379CE6" d="M-67.6-154.1L-67.6-154.1c1.7,0,3.1,1.4,3.1,3.1l0,0c0,1.7-1.4,3.1-3.1,3.1l0,0
				c-1.7,0-3.1-1.4-3.1-3.1l0,0C-70.7-152.7-69.3-154.1-67.6-154.1z"/>
			<path id="Rectangle_1406-5" fill="#379CE6" d="M-124.5-166.4L-124.5-166.4c1.7,0,3.1,1.4,3.1,3.1l0,0c0,1.7-1.4,3.1-3.1,3.1l0,0
				c-1.7,0-3.1-1.4-3.1-3.1l0,0C-127.6-165.1-126.2-166.4-124.5-166.4z"/>
			<path id="Rectangle_1423-5" fill="#379CE6" d="M-117.1-154.1L-117.1-154.1c1.7,0,3.1,1.4,3.1,3.1l0,0c0,1.7-1.4,3.1-3.1,3.1l0,0
				c-1.7,0-3.1-1.4-3.1-3.1l0,0C-120.2-152.7-118.8-154.1-117.1-154.1z"/>
			<path id="Rectangle_1407-5" fill="#379CE6" d="M-112.2-166.4L-112.2-166.4c1.7,0,3.1,1.4,3.1,3.1l0,0c0,1.7-1.4,3.1-3.1,3.1l0,0
				c-1.7,0-3.1-1.4-3.1-3.1l0,0C-115.3-165.1-113.9-166.4-112.2-166.4z"/>
			<path id="Rectangle_1422-5" fill="#379CE6" d="M-104.7-154.1L-104.7-154.1c1.7,0,3.1,1.4,3.1,3.1l0,0c0,1.7-1.4,3.1-3.1,3.1l0,0
				c-1.7,0-3.1-1.4-3.1-3.1l0,0C-107.8-152.7-106.4-154.1-104.7-154.1z"/>
			<path id="Rectangle_1408-5" fill="#379CE6" d="M-99.8-166.4L-99.8-166.4c1.7,0,3.1,1.4,3.1,3.1l0,0c0,1.7-1.4,3.1-3.1,3.1l0,0
				c-1.7,0-3.1-1.4-3.1-3.1l0,0C-102.9-165.1-101.5-166.4-99.8-166.4z"/>
			<path id="Rectangle_1421-5" fill="#379CE6" d="M-92.4-154.1L-92.4-154.1c1.7,0,3.1,1.4,3.1,3.1l0,0c0,1.7-1.4,3.1-3.1,3.1l0,0
				c-1.7,0-3.1-1.4-3.1-3.1l0,0C-95.5-152.7-94.1-154.1-92.4-154.1z"/>
			<path id="Rectangle_1409-5" fill="#379CE6" d="M-87.4-166.4L-87.4-166.4c1.7,0,3.1,1.4,3.1,3.1l0,0c0,1.7-1.4,3.1-3.1,3.1l0,0
				c-1.7,0-3.1-1.4-3.1-3.1l0,0C-90.5-165.1-89.1-166.4-87.4-166.4z"/>
			<path id="Rectangle_1420-5" fill="#379CE6" d="M-80-154.1L-80-154.1c1.7,0,3.1,1.4,3.1,3.1l0,0c0,1.7-1.4,3.1-3.1,3.1l0,0
				c-1.7,0-3.1-1.4-3.1-3.1l0,0C-83.1-152.7-81.7-154.1-80-154.1z"/>
		</g>
	</g>
	<g id="Group_6205" transform="translate(317.174 519.82)">
		<g id="Group_5584-4" transform="translate(0 0)">
			<path id="Rectangle_1405-6" fill="#379CE6" d="M-136.9-166.4L-136.9-166.4c1.7,0,3.1,1.4,3.1,3.1l0,0c0,1.7-1.4,3.1-3.1,3.1l0,0
				c-1.7,0-3.1-1.4-3.1-3.1l0,0C-140-165.1-138.6-166.4-136.9-166.4z"/>
			<path id="Rectangle_1424-6" fill="#379CE6" d="M-129.5-154.1L-129.5-154.1c1.7,0,3.1,1.4,3.1,3.1l0,0c0,1.7-1.4,3.1-3.1,3.1l0,0
				c-1.7,0-3.1-1.4-3.1-3.1l0,0C-132.6-152.7-131.2-154.1-129.5-154.1z"/>
			<path id="Rectangle_1410-6" fill="#379CE6" d="M-75-166.4L-75-166.4c1.7,0,3.1,1.4,3.1,3.1l0,0c0,1.7-1.4,3.1-3.1,3.1l0,0
				c-1.7,0-3.1-1.4-3.1-3.1l0,0C-78.1-165.1-76.8-166.4-75-166.4z"/>
			<path id="Rectangle_1419-6" fill="#379CE6" d="M-67.6-154.1L-67.6-154.1c1.7,0,3.1,1.4,3.1,3.1l0,0c0,1.7-1.4,3.1-3.1,3.1l0,0
				c-1.7,0-3.1-1.4-3.1-3.1l0,0C-70.7-152.7-69.3-154.1-67.6-154.1z"/>
			<path id="Rectangle_1406-6" fill="#379CE6" d="M-124.5-166.4L-124.5-166.4c1.7,0,3.1,1.4,3.1,3.1l0,0c0,1.7-1.4,3.1-3.1,3.1l0,0
				c-1.7,0-3.1-1.4-3.1-3.1l0,0C-127.6-165.1-126.2-166.4-124.5-166.4z"/>
			<path id="Rectangle_1423-6" fill="#379CE6" d="M-117.1-154.1L-117.1-154.1c1.7,0,3.1,1.4,3.1,3.1l0,0c0,1.7-1.4,3.1-3.1,3.1l0,0
				c-1.7,0-3.1-1.4-3.1-3.1l0,0C-120.2-152.7-118.8-154.1-117.1-154.1z"/>
			<path id="Rectangle_1407-6" fill="#379CE6" d="M-112.2-166.4L-112.2-166.4c1.7,0,3.1,1.4,3.1,3.1l0,0c0,1.7-1.4,3.1-3.1,3.1l0,0
				c-1.7,0-3.1-1.4-3.1-3.1l0,0C-115.3-165.1-113.9-166.4-112.2-166.4z"/>
			<path id="Rectangle_1422-6" fill="#379CE6" d="M-104.7-154.1L-104.7-154.1c1.7,0,3.1,1.4,3.1,3.1l0,0c0,1.7-1.4,3.1-3.1,3.1l0,0
				c-1.7,0-3.1-1.4-3.1-3.1l0,0C-107.8-152.7-106.4-154.1-104.7-154.1z"/>
			<path id="Rectangle_1408-6" fill="#379CE6" d="M-99.8-166.4L-99.8-166.4c1.7,0,3.1,1.4,3.1,3.1l0,0c0,1.7-1.4,3.1-3.1,3.1l0,0
				c-1.7,0-3.1-1.4-3.1-3.1l0,0C-102.9-165.1-101.5-166.4-99.8-166.4z"/>
			<path id="Rectangle_1421-6" fill="#379CE6" d="M-92.4-154.1L-92.4-154.1c1.7,0,3.1,1.4,3.1,3.1l0,0c0,1.7-1.4,3.1-3.1,3.1l0,0
				c-1.7,0-3.1-1.4-3.1-3.1l0,0C-95.5-152.7-94.1-154.1-92.4-154.1z"/>
			<path id="Rectangle_1409-6" fill="#379CE6" d="M-87.4-166.4L-87.4-166.4c1.7,0,3.1,1.4,3.1,3.1l0,0c0,1.7-1.4,3.1-3.1,3.1l0,0
				c-1.7,0-3.1-1.4-3.1-3.1l0,0C-90.5-165.1-89.1-166.4-87.4-166.4z"/>
			<path id="Rectangle_1420-6" fill="#379CE6" d="M-80-154.1L-80-154.1c1.7,0,3.1,1.4,3.1,3.1l0,0c0,1.7-1.4,3.1-3.1,3.1l0,0
				c-1.7,0-3.1-1.4-3.1-3.1l0,0C-83.1-152.7-81.7-154.1-80-154.1z"/>
		</g>
	</g>
	<g id="Group_5592" transform="translate(172.8 498.024)">
		<g id="Group_5583-3" transform="translate(0)">
			<g id="Group_5582-3" transform="translate(0)">
				<g id="Group_5581-3" transform="translate(0)">
					<rect id="Rectangle_1565-2" x="-130" y="-121.1" fill="#164571" width="150" height="14.7"/>
					<path id="Path_3764-2" fill="#0E71BB" d="M-134.3-166.4H24.3c3.1,0,5.7,2.5,5.7,5.7l0,0v36.3c0,3.1-2.5,5.7-5.7,5.7l0,0h-158.6
						c-3.1,0-5.7-2.5-5.7-5.7c0,0,0,0,0,0v-36.3C-140-163.9-137.5-166.4-134.3-166.4C-134.3-166.4-134.3-166.4-134.3-166.4z"/>
					<rect id="Rectangle_1567-2" x="-130" y="-65.6" fill="#164571" width="150" height="17"/>
					<path id="Rectangle_1631" fill="#005B9F" d="M-136-166.4h58.3l0,0v47.6l0,0H-136c-2.2,0-4-1.8-4-4v-39.6
						C-140-164.7-138.2-166.4-136-166.4z"/>
					<g id="Group_104-3" transform="translate(70.584 74.792)">
						<path id="Rectangle_1405-7" fill="#288ED9" d="M-138-166.4L-138-166.4c1.1,0,2,0.9,2,2l0,0c0,1.1-0.9,2-2,2l0,0
							c-1.1,0-2-0.9-2-2l0,0C-140-165.5-139.1-166.4-138-166.4z"/>
						<path id="Rectangle_1424-7" fill="#288ED9" d="M-133.1-158.4L-133.1-158.4c1.1,0,2,0.9,2,2l0,0c0,1.1-0.9,2-2,2l0,0
							c-1.1,0-2-0.9-2-2l0,0C-135.1-157.4-134.2-158.4-133.1-158.4z"/>
						<path id="Rectangle_1410-7" fill="#288ED9" d="M-97.5-166.4L-97.5-166.4c1.1,0,2,0.9,2,2l0,0c0,1.1-0.9,2-2,2l0,0
							c-1.1,0-2-0.9-2-2l0,0C-99.5-165.5-98.6-166.4-97.5-166.4z"/>
						<path id="Rectangle_1419-7" fill="#288ED9" d="M-92.6-158.4L-92.6-158.4c1.1,0,2,0.9,2,2l0,0c0,1.1-0.9,2-2,2l0,0
							c-1.1,0-2-0.9-2-2l0,0C-94.7-157.4-93.8-158.4-92.6-158.4z"/>
						<path id="Rectangle_1406-7" fill="#288ED9" d="M-129.9-166.4L-129.9-166.4c1.1,0,2,0.9,2,2l0,0c0,1.1-0.9,2-2,2l0,0
							c-1.1,0-2-0.9-2-2l0,0C-131.9-165.5-131-166.4-129.9-166.4z"/>
						<path id="Rectangle_1423-7" fill="#288ED9" d="M-125-158.4L-125-158.4c1.1,0,2,0.9,2,2l0,0c0,1.1-0.9,2-2,2l0,0
							c-1.1,0-2-0.9-2-2l0,0C-127-157.4-126.1-158.4-125-158.4z"/>
						<path id="Rectangle_1411-3" fill="#288ED9" d="M-89.4-166.4L-89.4-166.4c1.1,0,2,0.9,2,2l0,0c0,1.1-0.9,2-2,2l0,0
							c-1.1,0-2-0.9-2-2l0,0C-91.4-165.5-90.5-166.4-89.4-166.4z"/>
						<path id="Rectangle_1418-3" fill="#288ED9" d="M-84.6-158.4L-84.6-158.4c1.1,0,2,0.9,2,2l0,0c0,1.1-0.9,2-2,2l0,0
							c-1.1,0-2-0.9-2-2l0,0C-86.6-157.4-85.7-158.4-84.6-158.4z"/>
						<path id="Rectangle_1407-7" fill="#288ED9" d="M-121.8-166.4L-121.8-166.4c1.1,0,2,0.9,2,2l0,0c0,1.1-0.9,2-2,2l0,0
							c-1.1,0-2-0.9-2-2l0,0C-123.8-165.5-122.9-166.4-121.8-166.4z"/>
						<path id="Rectangle_1422-7" fill="#288ED9" d="M-116.9-158.4L-116.9-158.4c1.1,0,2,0.9,2,2l0,0c0,1.1-0.9,2-2,2l0,0
							c-1.1,0-2-0.9-2-2l0,0C-119-157.4-118-158.4-116.9-158.4z"/>
						<path id="Rectangle_1412-3" fill="#288ED9" d="M-81.3-166.4L-81.3-166.4c1.1,0,2,0.9,2,2l0,0c0,1.1-0.9,2-2,2l0,0
							c-1.1,0-2-0.9-2-2l0,0C-83.3-165.5-82.4-166.4-81.3-166.4z"/>
						<path id="Rectangle_1417-3" fill="#288ED9" d="M-76.5-158.4L-76.5-158.4c1.1,0,2,0.9,2,2l0,0c0,1.1-0.9,2-2,2l0,0
							c-1.1,0-2-0.9-2-2l0,0C-78.5-157.4-77.6-158.4-76.5-158.4z"/>
						<path id="Rectangle_1408-7" fill="#288ED9" d="M-113.7-166.4L-113.7-166.4c1.1,0,2,0.9,2,2l0,0c0,1.1-0.9,2-2,2l0,0
							c-1.1,0-2-0.9-2-2l0,0C-115.7-165.5-114.8-166.4-113.7-166.4z"/>
						<path id="Rectangle_1421-7" fill="#288ED9" d="M-108.8-158.4L-108.8-158.4c1.1,0,2,0.9,2,2l0,0c0,1.1-0.9,2-2,2l0,0
							c-1.1,0-2-0.9-2-2l0,0C-110.9-157.4-110-158.4-108.8-158.4z"/>
						<path id="Rectangle_1413-3" fill="#288ED9" d="M-73.2-166.4L-73.2-166.4c1.1,0,2,0.9,2,2l0,0c0,1.1-0.9,2-2,2l0,0
							c-1.1,0-2-0.9-2-2l0,0C-75.2-165.5-74.3-166.4-73.2-166.4z"/>
						<path id="Rectangle_1416-3" fill="#288ED9" d="M-68.4-158.4L-68.4-158.4c1.1,0,2,0.9,2,2l0,0c0,1.1-0.9,2-2,2l0,0
							c-1.1,0-2-0.9-2-2l0,0C-70.4-157.4-69.5-158.4-68.4-158.4z"/>
						<path id="Rectangle_1409-7" fill="#288ED9" d="M-105.6-166.4L-105.6-166.4c1.1,0,2,0.9,2,2l0,0c0,1.1-0.9,2-2,2l0,0
							c-1.1,0-2-0.9-2-2l0,0C-107.6-165.5-106.7-166.4-105.6-166.4z"/>
						<path id="Rectangle_1420-7" fill="#288ED9" d="M-100.7-158.4L-100.7-158.4c1.1,0,2,0.9,2,2l0,0c0,1.1-0.9,2-2,2l0,0
							c-1.1,0-2-0.9-2-2l0,0C-102.8-157.4-101.9-158.4-100.7-158.4z"/>
						<path id="Rectangle_1414-3" fill="#288ED9" d="M-65.1-166.4L-65.1-166.4c1.1,0,2,0.9,2,2l0,0c0,1.1-0.9,2-2,2l0,0
							c-1.1,0-2-0.9-2-2l0,0C-67.2-165.5-66.2-166.4-65.1-166.4z"/>
						<path id="Rectangle_1415-3" fill="#288ED9" d="M-60.3-158.4L-60.3-158.4c1.1,0,2,0.9,2,2l0,0c0,1.1-0.9,2-2,2l0,0
							c-1.1,0-2-0.9-2-2l0,0C-62.3-157.4-61.4-158.4-60.3-158.4z"/>
					</g>
					<path id="Rectangle_1634-2" fill="#0E71BB" d="M-135-109.8H25c2.8,0,5,2.2,5,5v37.6c0,2.8-2.2,5-5,5h-160c-2.8,0-5-2.2-5-5
						v-37.6C-140-107.5-137.8-109.8-135-109.8z"/>
					<g id="Group_113-3" transform="translate(17.161 74.792)">
						<g id="Rectangle_1635-3" transform="translate(0 0)">
							<path fill="#21E2E2" d="M-133.8-166.4L-133.8-166.4c3.4,0,6.2,2.8,6.2,6.2v0.5c0,3.4-2.8,6.2-6.2,6.2l0,0
								c-3.4,0-6.2-2.8-6.2-6.2v-0.5C-140-163.7-137.2-166.4-133.8-166.4z"/>
							<path fill="none" stroke="#137FCF" stroke-width="2" d="M-133.8-165.4L-133.8-165.4c2.9,0,5.2,2.3,5.2,5.2v0.5
								c0,2.9-2.3,5.2-5.2,5.2l0,0c-2.9,0-5.2-2.3-5.2-5.2v-0.5C-139-163.1-136.7-165.4-133.8-165.4z"/>
						</g>
						<g id="Rectangle_1636-3" transform="translate(18.131 0)">
							<path fill="#FFBC98" d="M-133.8-166.4L-133.8-166.4c3.4,0,6.2,2.8,6.2,6.2v0.5c0,3.4-2.8,6.2-6.2,6.2l0,0
								c-3.4,0-6.2-2.8-6.2-6.2v-0.5C-140-163.7-137.2-166.4-133.8-166.4z"/>
							<path fill="none" stroke="#137FCF" stroke-width="2" d="M-133.8-165.4L-133.8-165.4c2.9,0,5.2,2.3,5.2,5.2v0.5
								c0,2.9-2.3,5.2-5.2,5.2l0,0c-2.9,0-5.2-2.3-5.2-5.2v-0.5C-139-163.1-136.7-165.4-133.8-165.4z"/>
						</g>
					</g>
					<path id="Rectangle_1638" fill="#0E71BB" d="M-135-53.1H25c2.8,0,5,2.2,5,5v37.6c0,2.8-2.2,5-5,5h-160c-2.8,0-5-2.2-5-5v-37.6
						C-140-50.9-137.8-53.1-135-53.1z"/>
					<path id="Path_5065" fill="#005B9F" d="M-135.3-109.8h57.6v47.6h-57.6c-2.6,0-4.7-2.1-4.7-4.7c0,0,0,0,0,0v-38.1
						C-140-107.7-137.9-109.8-135.3-109.8C-135.3-109.8-135.3-109.8-135.3-109.8z"/>
					<g id="Group_115" transform="translate(18.739 76.313)">
						<path id="Rectangle_1425-2" fill="#21E2E2" d="M-135-166.4L-135-166.4c2.7,0,5,2.2,5,5v0.4c0,2.7-2.2,5-5,5h0
							c-2.7,0-5-2.2-5-5v-0.4C-140-164.2-137.8-166.4-135-166.4z"/>
						<path id="Rectangle_1442-2" fill="#FFBC98" d="M-120.6-166.4L-120.6-166.4c2.7,0,5,2.2,5,5v0.4c0,2.7-2.2,5-5,5h0
							c-2.7,0-5-2.2-5-5v-0.4C-125.6-164.2-123.4-166.4-120.6-166.4z"/>
					</g>
					<g id="Group_5597" transform="translate(18.738 21.087)">
						<path id="Rectangle_1425-3" fill="#21E2E2" d="M-135-166.4L-135-166.4c2.7,0,5,2.2,5,5v0.4c0,2.7-2.2,5-5,5h0
							c-2.7,0-5-2.2-5-5v-0.4C-140-164.2-137.8-166.4-135-166.4z"/>
						<path id="Rectangle_1442-3" fill="#FFBC98" d="M-120.6-166.4L-120.6-166.4c2.7,0,5,2.2,5,5v0.4c0,2.7-2.2,5-5,5h0
							c-2.7,0-5-2.2-5-5v-0.4C-125.6-164.2-123.4-166.4-120.6-166.4z"/>
					</g>
					<path id="Path_5396" fill="#005B9F" d="M-135.3-53.4h57.6v47.6h-57.6c-2.6,0-4.7-2.1-4.7-4.7c0,0,0,0,0,0v-38.1
						C-140-51.3-137.9-53.4-135.3-53.4C-135.3-53.4-135.3-53.4-135.3-53.4z"/>
					<g id="Group_5703" transform="translate(18.738 132.676)">
						<path id="Rectangle_1425-4" fill="#21E2E2" d="M-135-166.4L-135-166.4c2.7,0,5,2.2,5,5v0.4c0,2.7-2.2,5-5,5h0
							c-2.7,0-5-2.2-5-5v-0.4C-140-164.2-137.8-166.4-135-166.4z"/>
						<path id="Rectangle_1442-4" fill="#FFBC98" d="M-120.6-166.4L-120.6-166.4c2.7,0,5,2.2,5,5v0.4c0,2.7-2.2,5-5,5h0
							c-2.7,0-5-2.2-5-5v-0.4C-125.6-164.2-123.4-166.4-120.6-166.4z"/>
					</g>
				</g>
			</g>
		</g>
		<g id="Group_5702" transform="translate(74.156 128.068)">
			<g id="Group_5584-5" transform="translate(0 0)">
				<path id="Rectangle_1405-8" fill="#52ACEA" d="M-136.6-166.4L-136.6-166.4c1.9,0,3.4,1.5,3.4,3.4l0,0c0,1.9-1.5,3.4-3.4,3.4l0,0
					c-1.9,0-3.4-1.5-3.4-3.4l0,0C-140-164.9-138.5-166.4-136.6-166.4z"/>
				<path id="Rectangle_1424-8" fill="#52ACEA" d="M-128.6-153L-128.6-153c1.9,0,3.4,1.5,3.4,3.4l0,0c0,1.9-1.5,3.4-3.4,3.4l0,0
					c-1.9,0-3.4-1.5-3.4-3.4l0,0C-132-151.5-130.5-153-128.6-153z"/>
				<path id="Rectangle_1410-8" fill="#52ACEA" d="M-69.6-166.4L-69.6-166.4c1.9,0,3.4,1.5,3.4,3.4l0,0c0,1.9-1.5,3.4-3.4,3.4l0,0
					c-1.9,0-3.4-1.5-3.4-3.4l0,0C-73-164.9-71.5-166.4-69.6-166.4z"/>
				<path id="Rectangle_1419-8" fill="#52ACEA" d="M-61.6-153L-61.6-153c1.9,0,3.4,1.5,3.4,3.4l0,0c0,1.9-1.5,3.4-3.4,3.4l0,0
					c-1.9,0-3.4-1.5-3.4-3.4l0,0C-64.9-151.5-63.4-153-61.6-153z"/>
				<path id="Rectangle_1406-8" fill="#52ACEA" d="M-123.2-166.4L-123.2-166.4c1.9,0,3.4,1.5,3.4,3.4l0,0c0,1.9-1.5,3.4-3.4,3.4l0,0
					c-1.9,0-3.4-1.5-3.4-3.4l0,0C-126.6-164.9-125.1-166.4-123.2-166.4z"/>
				<path id="Rectangle_1423-8" fill="#52ACEA" d="M-115.2-153L-115.2-153c1.9,0,3.4,1.5,3.4,3.4l0,0c0,1.9-1.5,3.4-3.4,3.4l0,0
					c-1.9,0-3.4-1.5-3.4-3.4l0,0C-118.6-151.5-117.1-153-115.2-153z"/>
				<path id="Rectangle_1407-8" fill="#52ACEA" d="M-109.8-166.4L-109.8-166.4c1.9,0,3.4,1.5,3.4,3.4l0,0c0,1.9-1.5,3.4-3.4,3.4l0,0
					c-1.9,0-3.4-1.5-3.4-3.4l0,0C-113.2-164.9-111.7-166.4-109.8-166.4z"/>
				<path id="Rectangle_1422-8" fill="#52ACEA" d="M-101.8-153L-101.8-153c1.9,0,3.4,1.5,3.4,3.4l0,0c0,1.9-1.5,3.4-3.4,3.4l0,0
					c-1.9,0-3.4-1.5-3.4-3.4l0,0C-105.2-151.5-103.7-153-101.8-153z"/>
				<path id="Rectangle_1408-8" fill="#52ACEA" d="M-96.4-166.4L-96.4-166.4c1.9,0,3.4,1.5,3.4,3.4l0,0c0,1.9-1.5,3.4-3.4,3.4l0,0
					c-1.9,0-3.4-1.5-3.4-3.4l0,0C-99.8-164.9-98.3-166.4-96.4-166.4z"/>
				<path id="Rectangle_1421-8" fill="#52ACEA" d="M-88.4-153L-88.4-153c1.9,0,3.4,1.5,3.4,3.4l0,0c0,1.9-1.5,3.4-3.4,3.4l0,0
					c-1.9,0-3.4-1.5-3.4-3.4l0,0C-91.8-151.5-90.3-153-88.4-153z"/>
				<path id="Rectangle_1409-8" fill="#52ACEA" d="M-83-166.4L-83-166.4c1.9,0,3.4,1.5,3.4,3.4l0,0c0,1.9-1.5,3.4-3.4,3.4l0,0
					c-1.9,0-3.4-1.5-3.4-3.4l0,0C-86.4-164.9-84.9-166.4-83-166.4z"/>
				<path id="Rectangle_1420-8" fill="#52ACEA" d="M-75-153L-75-153c1.9,0,3.4,1.5,3.4,3.4l0,0c0,1.9-1.5,3.4-3.4,3.4l0,0
					c-1.9,0-3.4-1.5-3.4-3.4l0,0C-78.3-151.5-76.8-153-75-153z"/>
			</g>
		</g>
		<g id="Group_5709" transform="translate(74.156 70.578)">
			<g id="Group_5584-6" transform="translate(0 0)">
				<path id="Rectangle_1405-9" fill="#52ACEA" d="M-136.6-166.4L-136.6-166.4c1.9,0,3.4,1.5,3.4,3.4l0,0c0,1.9-1.5,3.4-3.4,3.4l0,0
					c-1.9,0-3.4-1.5-3.4-3.4l0,0C-140-164.9-138.5-166.4-136.6-166.4z"/>
				<path id="Rectangle_1424-9" fill="#52ACEA" d="M-128.6-153L-128.6-153c1.9,0,3.4,1.5,3.4,3.4l0,0c0,1.9-1.5,3.4-3.4,3.4l0,0
					c-1.9,0-3.4-1.5-3.4-3.4l0,0C-132-151.5-130.5-153-128.6-153z"/>
				<path id="Rectangle_1410-9" fill="#52ACEA" d="M-69.6-166.4L-69.6-166.4c1.9,0,3.4,1.5,3.4,3.4l0,0c0,1.9-1.5,3.4-3.4,3.4l0,0
					c-1.9,0-3.4-1.5-3.4-3.4l0,0C-73-164.9-71.5-166.4-69.6-166.4z"/>
				<path id="Rectangle_1419-9" fill="#52ACEA" d="M-61.6-153L-61.6-153c1.9,0,3.4,1.5,3.4,3.4l0,0c0,1.9-1.5,3.4-3.4,3.4l0,0
					c-1.9,0-3.4-1.5-3.4-3.4l0,0C-64.9-151.5-63.4-153-61.6-153z"/>
				<path id="Rectangle_1406-9" fill="#52ACEA" d="M-123.2-166.4L-123.2-166.4c1.9,0,3.4,1.5,3.4,3.4l0,0c0,1.9-1.5,3.4-3.4,3.4l0,0
					c-1.9,0-3.4-1.5-3.4-3.4l0,0C-126.6-164.9-125.1-166.4-123.2-166.4z"/>
				<path id="Rectangle_1423-9" fill="#52ACEA" d="M-115.2-153L-115.2-153c1.9,0,3.4,1.5,3.4,3.4l0,0c0,1.9-1.5,3.4-3.4,3.4l0,0
					c-1.9,0-3.4-1.5-3.4-3.4l0,0C-118.6-151.5-117.1-153-115.2-153z"/>
				<path id="Rectangle_1407-9" fill="#52ACEA" d="M-109.8-166.4L-109.8-166.4c1.9,0,3.4,1.5,3.4,3.4l0,0c0,1.9-1.5,3.4-3.4,3.4l0,0
					c-1.9,0-3.4-1.5-3.4-3.4l0,0C-113.2-164.9-111.7-166.4-109.8-166.4z"/>
				<path id="Rectangle_1422-9" fill="#52ACEA" d="M-101.8-153L-101.8-153c1.9,0,3.4,1.5,3.4,3.4l0,0c0,1.9-1.5,3.4-3.4,3.4l0,0
					c-1.9,0-3.4-1.5-3.4-3.4l0,0C-105.2-151.5-103.7-153-101.8-153z"/>
				<path id="Rectangle_1408-9" fill="#52ACEA" d="M-96.4-166.4L-96.4-166.4c1.9,0,3.4,1.5,3.4,3.4l0,0c0,1.9-1.5,3.4-3.4,3.4l0,0
					c-1.9,0-3.4-1.5-3.4-3.4l0,0C-99.8-164.9-98.3-166.4-96.4-166.4z"/>
				<path id="Rectangle_1421-9" fill="#52ACEA" d="M-88.4-153L-88.4-153c1.9,0,3.4,1.5,3.4,3.4l0,0c0,1.9-1.5,3.4-3.4,3.4l0,0
					c-1.9,0-3.4-1.5-3.4-3.4l0,0C-91.8-151.5-90.3-153-88.4-153z"/>
				<path id="Rectangle_1409-9" fill="#52ACEA" d="M-83-166.4L-83-166.4c1.9,0,3.4,1.5,3.4,3.4l0,0c0,1.9-1.5,3.4-3.4,3.4l0,0
					c-1.9,0-3.4-1.5-3.4-3.4l0,0C-86.4-164.9-84.9-166.4-83-166.4z"/>
				<path id="Rectangle_1420-9" fill="#52ACEA" d="M-75-153L-75-153c1.9,0,3.4,1.5,3.4,3.4l0,0c0,1.9-1.5,3.4-3.4,3.4l0,0
					c-1.9,0-3.4-1.5-3.4-3.4l0,0C-78.3-151.5-76.8-153-75-153z"/>
			</g>
		</g>
		<g id="Group_5710" transform="translate(74.156 14.216)">
			<g id="Group_5584-7" transform="translate(0 0)">
				<path id="Rectangle_1405-10" fill="#52ACEA" d="M-136.6-166.4L-136.6-166.4c1.9,0,3.4,1.5,3.4,3.4l0,0c0,1.9-1.5,3.4-3.4,3.4
					l0,0c-1.9,0-3.4-1.5-3.4-3.4l0,0C-140-164.9-138.5-166.4-136.6-166.4z"/>
				<path id="Rectangle_1424-10" fill="#52ACEA" d="M-128.6-153L-128.6-153c1.9,0,3.4,1.5,3.4,3.4l0,0c0,1.9-1.5,3.4-3.4,3.4l0,0
					c-1.9,0-3.4-1.5-3.4-3.4l0,0C-132-151.5-130.5-153-128.6-153z"/>
				<path id="Rectangle_1410-10" fill="#52ACEA" d="M-69.6-166.4L-69.6-166.4c1.9,0,3.4,1.5,3.4,3.4l0,0c0,1.9-1.5,3.4-3.4,3.4l0,0
					c-1.9,0-3.4-1.5-3.4-3.4l0,0C-73-164.9-71.5-166.4-69.6-166.4z"/>
				<path id="Rectangle_1419-10" fill="#52ACEA" d="M-61.6-153L-61.6-153c1.9,0,3.4,1.5,3.4,3.4l0,0c0,1.9-1.5,3.4-3.4,3.4l0,0
					c-1.9,0-3.4-1.5-3.4-3.4l0,0C-64.9-151.5-63.4-153-61.6-153z"/>
				<path id="Rectangle_1406-10" fill="#52ACEA" d="M-123.2-166.4L-123.2-166.4c1.9,0,3.4,1.5,3.4,3.4l0,0c0,1.9-1.5,3.4-3.4,3.4
					l0,0c-1.9,0-3.4-1.5-3.4-3.4l0,0C-126.6-164.9-125.1-166.4-123.2-166.4z"/>
				<path id="Rectangle_1423-10" fill="#52ACEA" d="M-115.2-153L-115.2-153c1.9,0,3.4,1.5,3.4,3.4l0,0c0,1.9-1.5,3.4-3.4,3.4l0,0
					c-1.9,0-3.4-1.5-3.4-3.4l0,0C-118.6-151.5-117.1-153-115.2-153z"/>
				<path id="Rectangle_1407-10" fill="#52ACEA" d="M-109.8-166.4L-109.8-166.4c1.9,0,3.4,1.5,3.4,3.4l0,0c0,1.9-1.5,3.4-3.4,3.4
					l0,0c-1.9,0-3.4-1.5-3.4-3.4l0,0C-113.2-164.9-111.7-166.4-109.8-166.4z"/>
				<path id="Rectangle_1422-10" fill="#52ACEA" d="M-101.8-153L-101.8-153c1.9,0,3.4,1.5,3.4,3.4l0,0c0,1.9-1.5,3.4-3.4,3.4l0,0
					c-1.9,0-3.4-1.5-3.4-3.4l0,0C-105.2-151.5-103.7-153-101.8-153z"/>
				<path id="Rectangle_1408-10" fill="#52ACEA" d="M-96.4-166.4L-96.4-166.4c1.9,0,3.4,1.5,3.4,3.4l0,0c0,1.9-1.5,3.4-3.4,3.4l0,0
					c-1.9,0-3.4-1.5-3.4-3.4l0,0C-99.8-164.9-98.3-166.4-96.4-166.4z"/>
				<path id="Rectangle_1421-10" fill="#52ACEA" d="M-88.4-153L-88.4-153c1.9,0,3.4,1.5,3.4,3.4l0,0c0,1.9-1.5,3.4-3.4,3.4l0,0
					c-1.9,0-3.4-1.5-3.4-3.4l0,0C-91.8-151.5-90.3-153-88.4-153z"/>
				<path id="Rectangle_1409-10" fill="#52ACEA" d="M-83-166.4L-83-166.4c1.9,0,3.4,1.5,3.4,3.4l0,0c0,1.9-1.5,3.4-3.4,3.4l0,0
					c-1.9,0-3.4-1.5-3.4-3.4l0,0C-86.4-164.9-84.9-166.4-83-166.4z"/>
				<path id="Rectangle_1420-10" fill="#52ACEA" d="M-75-153L-75-153c1.9,0,3.4,1.5,3.4,3.4l0,0c0,1.9-1.5,3.4-3.4,3.4l0,0
					c-1.9,0-3.4-1.5-3.4-3.4l0,0C-78.3-151.5-76.8-153-75-153z"/>
			</g>
		</g>
	</g>
</g>
<g id="Group_5953" transform="translate(875.444 -1369.5)">
	<g id="Group_5949" transform="translate(332.882 1794)">
		<g id="Group_5942" transform="translate(0)">
			<g id="Group_5940" transform="translate(0.148)">
				<rect id="Rectangle_2794" x="-140" y="-166.4" fill="#288ED9" width="67.8" height="45.2"/>
			</g>
			<g id="picture" transform="translate(0 7.458)">
				<path id="Path_5691" fill="#D6EEFF" d="M-127.6-166.4c3.7,0,6.7,2.9,6.7,6.6c0,3.7-3,6.7-6.7,6.6c-3.7,0-6.7-2.9-6.7-6.6
					C-134.3-163.5-131.3-166.5-127.6-166.4z"/>
				<g id="Group_5941" transform="translate(0 7.195)">
					<path id="Path_5561" fill="#005B9F" d="M-72.1-148.8l-1.5-1.6l-17.7-16l-15.5,16.7l8.1,8l5.9,5.8h20.7V-148.8z"/>
					<path id="Path_5562" fill="#164571" d="M-98.7-141.8l-16.2-15.9l-25.1,21.8h47.2L-98.7-141.8z"/>
				</g>
			</g>
		</g>
	</g>
</g>
<g id="Group_6208" transform="translate(14129 21245)">
	
		<linearGradient id="Ellipse_1275_1_" gradientUnits="userSpaceOnUse" x1="-13838.1982" y1="-20822.625" x2="-13838.1982" y2="-20824.6289" gradientTransform="matrix(321 0 0 -55 4428932 -1166082)">
		<stop  offset="0" style="stop-color:#288ED9"/>
		<stop  offset="1" style="stop-color:#137FCF;stop-opacity:5.100000e-02"/>
	</linearGradient>
	<ellipse id="Ellipse_1275" fill="url(#Ellipse_1275_1_)" cx="-13129.5" cy="-20754.9" rx="160.5" ry="27.5"/>
	<g id="Group_6208-2" transform="translate(-13110.286 -20790.027)">
		<g id="Group_5583-4" transform="translate(0 0)">
			<g id="Group_5582-4" transform="translate(0 0)">
				<g id="Group_5581-4" transform="translate(0)">
					<rect id="Rectangle_1567-3" x="-131.3" y="-125.6" fill="#005B9F" width="140" height="15.7"/>
					<g id="Group_104-4" transform="translate(65.162 16.739)">
						<path id="Rectangle_1405-11" fill="#288ED9" d="M-138.1-166.4L-138.1-166.4c1,0,1.9,0.8,1.9,1.9l0,0c0,1-0.8,1.9-1.9,1.9l0,0
							c-1,0-1.9-0.8-1.9-1.9l0,0C-140-165.6-139.2-166.4-138.1-166.4z"/>
						<path id="Rectangle_1424-11" fill="#288ED9" d="M-133.6-159L-133.6-159c1,0,1.9,0.8,1.9,1.9l0,0c0,1-0.8,1.9-1.9,1.9l0,0
							c-1,0-1.9-0.8-1.9-1.9l0,0C-135.5-158.1-134.7-159-133.6-159z"/>
						<path id="Rectangle_1410-11" fill="#288ED9" d="M-100.8-166.4L-100.8-166.4c1,0,1.9,0.8,1.9,1.9l0,0c0,1-0.8,1.9-1.9,1.9l0,0
							c-1,0-1.9-0.8-1.9-1.9l0,0C-102.6-165.6-101.8-166.4-100.8-166.4z"/>
						<path id="Rectangle_1419-11" fill="#288ED9" d="M-96.3-159L-96.3-159c1,0,1.9,0.8,1.9,1.9l0,0c0,1-0.8,1.9-1.9,1.9l0,0
							c-1,0-1.9-0.8-1.9-1.9l0,0C-98.2-158.1-97.3-159-96.3-159z"/>
						<path id="Rectangle_1406-11" fill="#288ED9" d="M-130.7-166.4L-130.7-166.4c1,0,1.9,0.8,1.9,1.9l0,0c0,1-0.8,1.9-1.9,1.9l0,0
							c-1,0-1.9-0.8-1.9-1.9l0,0C-132.5-165.6-131.7-166.4-130.7-166.4z"/>
						<path id="Rectangle_1423-11" fill="#288ED9" d="M-126.2-159L-126.2-159c1,0,1.9,0.8,1.9,1.9l0,0c0,1-0.8,1.9-1.9,1.9l0,0
							c-1,0-1.9-0.8-1.9-1.9l0,0C-128-158.1-127.2-159-126.2-159z"/>
						<path id="Rectangle_1411-4" fill="#288ED9" d="M-93.3-166.4L-93.3-166.4c1,0,1.9,0.8,1.9,1.9l0,0c0,1-0.8,1.9-1.9,1.9l0,0
							c-1,0-1.9-0.8-1.9-1.9l0,0C-95.2-165.6-94.3-166.4-93.3-166.4z"/>
						<path id="Rectangle_1418-4" fill="#288ED9" d="M-88.8-159L-88.8-159c1,0,1.9,0.8,1.9,1.9l0,0c0,1-0.8,1.9-1.9,1.9l0,0
							c-1,0-1.9-0.8-1.9-1.9l0,0C-90.7-158.1-89.8-159-88.8-159z"/>
						<path id="Rectangle_1407-11" fill="#288ED9" d="M-123.2-166.4L-123.2-166.4c1,0,1.9,0.8,1.9,1.9l0,0c0,1-0.8,1.9-1.9,1.9l0,0
							c-1,0-1.9-0.8-1.9-1.9l0,0C-125.1-165.6-124.2-166.4-123.2-166.4z"/>
						<path id="Rectangle_1422-11" fill="#288ED9" d="M-118.7-159L-118.7-159c1,0,1.9,0.8,1.9,1.9l0,0c0,1-0.8,1.9-1.9,1.9l0,0
							c-1,0-1.9-0.8-1.9-1.9l0,0C-120.6-158.1-119.7-159-118.7-159z"/>
						<path id="Rectangle_1412-4" fill="#288ED9" d="M-85.8-166.4L-85.8-166.4c1,0,1.9,0.8,1.9,1.9l0,0c0,1-0.8,1.9-1.9,1.9l0,0
							c-1,0-1.9-0.8-1.9-1.9l0,0C-87.7-165.6-86.9-166.4-85.8-166.4z"/>
						<path id="Rectangle_1417-4" fill="#288ED9" d="M-81.3-159L-81.3-159c1,0,1.9,0.8,1.9,1.9l0,0c0,1-0.8,1.9-1.9,1.9l0,0
							c-1,0-1.9-0.8-1.9-1.9l0,0C-83.2-158.1-82.4-159-81.3-159z"/>
						<path id="Rectangle_1408-11" fill="#288ED9" d="M-115.7-166.4L-115.7-166.4c1,0,1.9,0.8,1.9,1.9l0,0c0,1-0.8,1.9-1.9,1.9l0,0
							c-1,0-1.9-0.8-1.9-1.9l0,0C-117.6-165.6-116.7-166.4-115.7-166.4z"/>
						<path id="Rectangle_1421-11" fill="#288ED9" d="M-111.2-159L-111.2-159c1,0,1.9,0.8,1.9,1.9l0,0c0,1-0.8,1.9-1.9,1.9l0,0
							c-1,0-1.9-0.8-1.9-1.9l0,0C-113.1-158.1-112.3-159-111.2-159z"/>
						<path id="Rectangle_1413-4" fill="#288ED9" d="M-78.3-166.4L-78.3-166.4c1,0,1.9,0.8,1.9,1.9l0,0c0,1-0.8,1.9-1.9,1.9l0,0
							c-1,0-1.9-0.8-1.9-1.9l0,0C-80.2-165.6-79.4-166.4-78.3-166.4z"/>
						<path id="Rectangle_1416-4" fill="#288ED9" d="M-73.9-159L-73.9-159c1,0,1.9,0.8,1.9,1.9l0,0c0,1-0.8,1.9-1.9,1.9l0,0
							c-1,0-1.9-0.8-1.9-1.9l0,0C-75.7-158.1-74.9-159-73.9-159z"/>
						<path id="Rectangle_1409-11" fill="#288ED9" d="M-108.2-166.4L-108.2-166.4c1,0,1.9,0.8,1.9,1.9l0,0c0,1-0.8,1.9-1.9,1.9l0,0
							c-1,0-1.9-0.8-1.9-1.9l0,0C-110.1-165.6-109.3-166.4-108.2-166.4z"/>
						<path id="Rectangle_1420-11" fill="#288ED9" d="M-103.8-159L-103.8-159c1,0,1.9,0.8,1.9,1.9l0,0c0,1-0.8,1.9-1.9,1.9l0,0
							c-1,0-1.9-0.8-1.9-1.9l0,0C-105.6-158.1-104.8-159-103.8-159z"/>
						<path id="Rectangle_1414-4" fill="#288ED9" d="M-70.9-166.4L-70.9-166.4c1,0,1.9,0.8,1.9,1.9l0,0c0,1-0.8,1.9-1.9,1.9l0,0
							c-1,0-1.9-0.8-1.9-1.9l0,0C-72.7-165.6-71.9-166.4-70.9-166.4z"/>
						<path id="Rectangle_1415-4" fill="#288ED9" d="M-66.4-159L-66.4-159c1,0,1.9,0.8,1.9,1.9l0,0c0,1-0.8,1.9-1.9,1.9l0,0
							c-1,0-1.9-0.8-1.9-1.9l0,0C-68.3-158.1-67.4-159-66.4-159z"/>
					</g>
					<path id="Rectangle_1634-3" fill="#2086D1" d="M-135-166.4H11.9c2.8,0,5,2.2,5,5v33.9c0,2.8-2.2,5-5,5H-135c-2.8,0-5-2.2-5-5
						v-33.9C-140-164.2-137.8-166.4-135-166.4z"/>
					<g id="Group_113-4" transform="translate(15.842 16.739)">
						<g id="Rectangle_1635-4" transform="translate(0 0)">
							<path fill="#21E2E2" d="M-134.3-166.4L-134.3-166.4c3.2,0,5.7,2.6,5.7,5.7v0.5c0,3.2-2.6,5.7-5.7,5.7l0,0
								c-3.2,0-5.7-2.6-5.7-5.7v-0.5C-140-163.9-137.4-166.4-134.3-166.4z"/>
							<path fill="none" stroke="#137FCF" stroke-width="2" d="M-134.3-165.4L-134.3-165.4c2.6,0,4.7,2.1,4.7,4.7v0.5
								c0,2.6-2.1,4.7-4.7,4.7l0,0c-2.6,0-4.7-2.1-4.7-4.7v-0.5C-139-163.3-136.9-165.4-134.3-165.4z"/>
						</g>
						<g id="Rectangle_1636-4" transform="translate(16.739 0)">
							<path fill="#FFBC98" d="M-134.3-166.4L-134.3-166.4c3.2,0,5.7,2.6,5.7,5.7v0.5c0,3.2-2.6,5.7-5.7,5.7l0,0
								c-3.2,0-5.7-2.6-5.7-5.7v-0.5C-140-163.9-137.4-166.4-134.3-166.4z"/>
							<path fill="none" stroke="#137FCF" stroke-width="2" d="M-134.3-165.4L-134.3-165.4c2.6,0,4.7,2.1,4.7,4.7v0.5
								c0,2.6-2.1,4.7-4.7,4.7l0,0c-2.6,0-4.7-2.1-4.7-4.7v-0.5C-139-163.3-136.9-165.4-134.3-165.4z"/>
						</g>
					</g>
					<path id="Rectangle_1640-2" fill="#1266A5" d="M-137-166.4h54.5l0,0v43.9l0,0H-137c-1.7,0-3-1.3-3-3v-37.9
						C-140-165.1-138.7-166.4-137-166.4z"/>
				</g>
			</g>
		</g>
		<g id="Group_5586-2" transform="translate(68.46 12.848)">
			<g id="Group_5584-8" transform="translate(0 0)">
				<path id="Rectangle_1405-12" fill="#379CE6" d="M-136.9-166.4L-136.9-166.4c1.7,0,3.1,1.4,3.1,3.1l0,0c0,1.7-1.4,3.1-3.1,3.1
					l0,0c-1.7,0-3.1-1.4-3.1-3.1l0,0C-140-165.1-138.6-166.4-136.9-166.4z"/>
				<path id="Rectangle_1424-12" fill="#379CE6" d="M-129.5-154.1L-129.5-154.1c1.7,0,3.1,1.4,3.1,3.1l0,0c0,1.7-1.4,3.1-3.1,3.1
					l0,0c-1.7,0-3.1-1.4-3.1-3.1l0,0C-132.6-152.7-131.2-154.1-129.5-154.1z"/>
				<path id="Rectangle_1410-12" fill="#379CE6" d="M-75-166.4L-75-166.4c1.7,0,3.1,1.4,3.1,3.1l0,0c0,1.7-1.4,3.1-3.1,3.1l0,0
					c-1.7,0-3.1-1.4-3.1-3.1l0,0C-78.1-165.1-76.8-166.4-75-166.4z"/>
				<path id="Rectangle_1419-12" fill="#379CE6" d="M-67.6-154.1L-67.6-154.1c1.7,0,3.1,1.4,3.1,3.1l0,0c0,1.7-1.4,3.1-3.1,3.1l0,0
					c-1.7,0-3.1-1.4-3.1-3.1l0,0C-70.7-152.7-69.3-154.1-67.6-154.1z"/>
				<path id="Rectangle_1406-12" fill="#379CE6" d="M-124.5-166.4L-124.5-166.4c1.7,0,3.1,1.4,3.1,3.1l0,0c0,1.7-1.4,3.1-3.1,3.1
					l0,0c-1.7,0-3.1-1.4-3.1-3.1l0,0C-127.6-165.1-126.2-166.4-124.5-166.4z"/>
				<path id="Rectangle_1423-12" fill="#379CE6" d="M-117.1-154.1L-117.1-154.1c1.7,0,3.1,1.4,3.1,3.1l0,0c0,1.7-1.4,3.1-3.1,3.1
					l0,0c-1.7,0-3.1-1.4-3.1-3.1l0,0C-120.2-152.7-118.8-154.1-117.1-154.1z"/>
				<path id="Rectangle_1407-12" fill="#379CE6" d="M-112.2-166.4L-112.2-166.4c1.7,0,3.1,1.4,3.1,3.1l0,0c0,1.7-1.4,3.1-3.1,3.1
					l0,0c-1.7,0-3.1-1.4-3.1-3.1l0,0C-115.3-165.1-113.9-166.4-112.2-166.4z"/>
				<path id="Rectangle_1422-12" fill="#379CE6" d="M-104.7-154.1L-104.7-154.1c1.7,0,3.1,1.4,3.1,3.1l0,0c0,1.7-1.4,3.1-3.1,3.1
					l0,0c-1.7,0-3.1-1.4-3.1-3.1l0,0C-107.8-152.7-106.4-154.1-104.7-154.1z"/>
				<path id="Rectangle_1408-12" fill="#379CE6" d="M-99.8-166.4L-99.8-166.4c1.7,0,3.1,1.4,3.1,3.1l0,0c0,1.7-1.4,3.1-3.1,3.1l0,0
					c-1.7,0-3.1-1.4-3.1-3.1l0,0C-102.9-165.1-101.5-166.4-99.8-166.4z"/>
				<path id="Rectangle_1421-12" fill="#379CE6" d="M-92.4-154.1L-92.4-154.1c1.7,0,3.1,1.4,3.1,3.1l0,0c0,1.7-1.4,3.1-3.1,3.1l0,0
					c-1.7,0-3.1-1.4-3.1-3.1l0,0C-95.5-152.7-94.1-154.1-92.4-154.1z"/>
				<path id="Rectangle_1409-12" fill="#379CE6" d="M-87.4-166.4L-87.4-166.4c1.7,0,3.1,1.4,3.1,3.1l0,0c0,1.7-1.4,3.1-3.1,3.1l0,0
					c-1.7,0-3.1-1.4-3.1-3.1l0,0C-90.5-165.1-89.1-166.4-87.4-166.4z"/>
				<path id="Rectangle_1420-12" fill="#379CE6" d="M-80-154.1L-80-154.1c1.7,0,3.1,1.4,3.1,3.1l0,0c0,1.7-1.4,3.1-3.1,3.1l0,0
					c-1.7,0-3.1-1.4-3.1-3.1l0,0C-83.1-152.7-81.7-154.1-80-154.1z"/>
			</g>
		</g>
	</g>
	<g id="Group_6209" transform="translate(-13110.286 -20771.307)">
		<g id="Group_5583-5" transform="translate(0 0)">
			<g id="Group_5582-5" transform="translate(0)">
				<g id="Group_5581-5" transform="translate(0)">
					<rect id="Rectangle_1565-3" x="-131.3" y="-89.9" fill="#005B9F" width="140" height="13.6"/>
					<path id="Path_3764-3" fill="#2086D1" d="M-134.8-131.8H11.7c2.9,0,5.2,2.3,5.2,5.2c0,0,0,0,0,0v33.5c0,2.9-2.3,5.2-5.2,5.2
						l0,0h-146.5c-2.9,0-5.2-2.3-5.2-5.2v-33.5C-140-129.4-137.7-131.8-134.8-131.8z"/>
					<path id="Path_5064-2" fill="#005B9F" d="M-131.3-38.7h140V-23h-140V-38.7z"/>
					<g id="Group_104-5" transform="translate(65.162 103.737)">
						<path id="Rectangle_1405-13" fill="#288ED9" d="M-138.1-166.4L-138.1-166.4c1,0,1.9,0.8,1.9,1.9l0,0c0,1-0.8,1.9-1.9,1.9l0,0
							c-1,0-1.9-0.8-1.9-1.9l0,0C-140-165.6-139.2-166.4-138.1-166.4z"/>
						<path id="Rectangle_1424-13" fill="#288ED9" d="M-133.6-159L-133.6-159c1,0,1.9,0.8,1.9,1.9l0,0c0,1-0.8,1.9-1.9,1.9l0,0
							c-1,0-1.9-0.8-1.9-1.9l0,0C-135.5-158.1-134.7-159-133.6-159z"/>
						<path id="Rectangle_1410-13" fill="#288ED9" d="M-100.8-166.4L-100.8-166.4c1,0,1.9,0.8,1.9,1.9l0,0c0,1-0.8,1.9-1.9,1.9l0,0
							c-1,0-1.9-0.8-1.9-1.9l0,0C-102.6-165.6-101.8-166.4-100.8-166.4z"/>
						<path id="Rectangle_1419-13" fill="#288ED9" d="M-96.3-159L-96.3-159c1,0,1.9,0.8,1.9,1.9l0,0c0,1-0.8,1.9-1.9,1.9l0,0
							c-1,0-1.9-0.8-1.9-1.9l0,0C-98.2-158.1-97.3-159-96.3-159z"/>
						<path id="Rectangle_1406-13" fill="#288ED9" d="M-130.7-166.4L-130.7-166.4c1,0,1.9,0.8,1.9,1.9l0,0c0,1-0.8,1.9-1.9,1.9l0,0
							c-1,0-1.9-0.8-1.9-1.9l0,0C-132.5-165.6-131.7-166.4-130.7-166.4z"/>
						<path id="Rectangle_1423-13" fill="#288ED9" d="M-126.2-159L-126.2-159c1,0,1.9,0.8,1.9,1.9l0,0c0,1-0.8,1.9-1.9,1.9l0,0
							c-1,0-1.9-0.8-1.9-1.9l0,0C-128-158.1-127.2-159-126.2-159z"/>
						<path id="Rectangle_1411-5" fill="#288ED9" d="M-93.3-166.4L-93.3-166.4c1,0,1.9,0.8,1.9,1.9l0,0c0,1-0.8,1.9-1.9,1.9l0,0
							c-1,0-1.9-0.8-1.9-1.9l0,0C-95.2-165.6-94.3-166.4-93.3-166.4z"/>
						<path id="Rectangle_1418-5" fill="#288ED9" d="M-88.8-159L-88.8-159c1,0,1.9,0.8,1.9,1.9l0,0c0,1-0.8,1.9-1.9,1.9l0,0
							c-1,0-1.9-0.8-1.9-1.9l0,0C-90.7-158.1-89.8-159-88.8-159z"/>
						<path id="Rectangle_1407-13" fill="#288ED9" d="M-123.2-166.4L-123.2-166.4c1,0,1.9,0.8,1.9,1.9l0,0c0,1-0.8,1.9-1.9,1.9l0,0
							c-1,0-1.9-0.8-1.9-1.9l0,0C-125.1-165.6-124.2-166.4-123.2-166.4z"/>
						<path id="Rectangle_1422-13" fill="#288ED9" d="M-118.7-159L-118.7-159c1,0,1.9,0.8,1.9,1.9l0,0c0,1-0.8,1.9-1.9,1.9l0,0
							c-1,0-1.9-0.8-1.9-1.9l0,0C-120.6-158.1-119.7-159-118.7-159z"/>
						<path id="Rectangle_1412-5" fill="#288ED9" d="M-85.8-166.4L-85.8-166.4c1,0,1.9,0.8,1.9,1.9l0,0c0,1-0.8,1.9-1.9,1.9l0,0
							c-1,0-1.9-0.8-1.9-1.9l0,0C-87.7-165.6-86.9-166.4-85.8-166.4z"/>
						<path id="Rectangle_1417-5" fill="#288ED9" d="M-81.3-159L-81.3-159c1,0,1.9,0.8,1.9,1.9l0,0c0,1-0.8,1.9-1.9,1.9l0,0
							c-1,0-1.9-0.8-1.9-1.9l0,0C-83.2-158.1-82.4-159-81.3-159z"/>
						<path id="Rectangle_1408-13" fill="#288ED9" d="M-115.7-166.4L-115.7-166.4c1,0,1.9,0.8,1.9,1.9l0,0c0,1-0.8,1.9-1.9,1.9l0,0
							c-1,0-1.9-0.8-1.9-1.9l0,0C-117.6-165.6-116.7-166.4-115.7-166.4z"/>
						<path id="Rectangle_1421-13" fill="#288ED9" d="M-111.2-159L-111.2-159c1,0,1.9,0.8,1.9,1.9l0,0c0,1-0.8,1.9-1.9,1.9l0,0
							c-1,0-1.9-0.8-1.9-1.9l0,0C-113.1-158.1-112.3-159-111.2-159z"/>
						<path id="Rectangle_1413-5" fill="#288ED9" d="M-78.3-166.4L-78.3-166.4c1,0,1.9,0.8,1.9,1.9l0,0c0,1-0.8,1.9-1.9,1.9l0,0
							c-1,0-1.9-0.8-1.9-1.9l0,0C-80.2-165.6-79.4-166.4-78.3-166.4z"/>
						<path id="Rectangle_1416-5" fill="#288ED9" d="M-73.9-159L-73.9-159c1,0,1.9,0.8,1.9,1.9l0,0c0,1-0.8,1.9-1.9,1.9l0,0
							c-1,0-1.9-0.8-1.9-1.9l0,0C-75.7-158.1-74.9-159-73.9-159z"/>
						<path id="Rectangle_1409-13" fill="#288ED9" d="M-108.2-166.4L-108.2-166.4c1,0,1.9,0.8,1.9,1.9l0,0c0,1-0.8,1.9-1.9,1.9l0,0
							c-1,0-1.9-0.8-1.9-1.9l0,0C-110.1-165.6-109.3-166.4-108.2-166.4z"/>
						<path id="Rectangle_1420-13" fill="#288ED9" d="M-103.8-159L-103.8-159c1,0,1.9,0.8,1.9,1.9l0,0c0,1-0.8,1.9-1.9,1.9l0,0
							c-1,0-1.9-0.8-1.9-1.9l0,0C-105.6-158.1-104.8-159-103.8-159z"/>
						<path id="Rectangle_1414-5" fill="#288ED9" d="M-70.9-166.4L-70.9-166.4c1,0,1.9,0.8,1.9,1.9l0,0c0,1-0.8,1.9-1.9,1.9l0,0
							c-1,0-1.9-0.8-1.9-1.9l0,0C-72.7-165.6-71.9-166.4-70.9-166.4z"/>
						<path id="Rectangle_1415-5" fill="#288ED9" d="M-66.4-159L-66.4-159c1,0,1.9,0.8,1.9,1.9l0,0c0,1-0.8,1.9-1.9,1.9l0,0
							c-1,0-1.9-0.8-1.9-1.9l0,0C-68.3-158.1-67.4-159-66.4-159z"/>
					</g>
					<path id="Rectangle_1639-2" fill="#0E71BB" d="M-137-131.8h54.5l0,0v43.9l0,0H-137c-1.7,0-3-1.3-3-3v-37.9
						C-140-130.4-138.7-131.8-137-131.8z"/>
					<path id="Path_5062-2" fill="#2086D1" d="M-132.1-79.5H9c4.4,0,7.9,3.5,7.9,7.9v28.2c0,4.4-3.5,7.9-7.9,7.9h-141.1
						c-4.4,0-7.9-3.5-7.9-7.9v-28.2C-140-75.9-136.5-79.5-132.1-79.5z"/>
					<g id="Group_113-5" transform="translate(15.842 103.737)">
						<g id="Rectangle_1635-5" transform="translate(0 0)">
							<path fill="#21E2E2" d="M-134.3-166.4L-134.3-166.4c3.2,0,5.7,2.6,5.7,5.7v0.5c0,3.2-2.6,5.7-5.7,5.7l0,0
								c-3.2,0-5.7-2.6-5.7-5.7v-0.5C-140-163.9-137.4-166.4-134.3-166.4z"/>
							<path fill="none" stroke="#137FCF" stroke-width="2" d="M-134.3-165.4L-134.3-165.4c2.6,0,4.7,2.1,4.7,4.7v0.5
								c0,2.6-2.1,4.7-4.7,4.7l0,0c-2.6,0-4.7-2.1-4.7-4.7v-0.5C-139-163.3-136.9-165.4-134.3-165.4z"/>
						</g>
						<g id="Rectangle_1636-5" transform="translate(16.739 0)">
							<path fill="#FFBC98" d="M-134.3-166.4L-134.3-166.4c3.2,0,5.7,2.6,5.7,5.7v0.5c0,3.2-2.6,5.7-5.7,5.7l0,0
								c-3.2,0-5.7-2.6-5.7-5.7v-0.5C-140-163.9-137.4-166.4-134.3-166.4z"/>
							<path fill="none" stroke="#137FCF" stroke-width="2" d="M-134.3-165.4L-134.3-165.4c2.6,0,4.7,2.1,4.7,4.7v0.5
								c0,2.6-2.1,4.7-4.7,4.7l0,0c-2.6,0-4.7-2.1-4.7-4.7v-0.5C-139-163.3-136.9-165.4-134.3-165.4z"/>
						</g>
					</g>
					<path id="Path_5063-2" fill="#2086D1" d="M-132.1-27.1H9c4.4,0,7.9,3.5,7.9,7.9V8.9c0,4.4-3.5,7.9-7.9,7.9h-141.1
						c-4.4,0-7.9-3.5-7.9-7.9v-28.2C-140-23.6-136.5-27.1-132.1-27.1z"/>
					<path id="Path_5068-2" fill="#0E71BB" d="M-135.3-79.5h52.8v43.9h-52.8c-2.6,0-4.7-2.1-4.7-4.7v-34.5
						C-140-77.3-137.9-79.5-135.3-79.5C-135.3-79.5-135.3-79.5-135.3-79.5z"/>
					<path id="Rectangle_1425-5" fill="#21E2E2" d="M-116.8-114.4L-116.8-114.4c2.3,0,4.2,1.9,4.2,4.2v0.3c0,2.3-1.9,4.2-4.2,4.2
						l0,0c-2.3,0-4.2-1.9-4.2-4.2v-0.3C-121-112.5-119.1-114.4-116.8-114.4z"/>
					<path id="Rectangle_1442-5" fill="#FFBC98" d="M-104.8-114.4h0.4c2.2,0,4,1.8,4,4v0.7c0,2.2-1.8,4-4,4h-0.4c-2.2,0-4-1.8-4-4
						v-0.7C-108.8-112.6-107-114.4-104.8-114.4z"/>
					<path id="Rectangle_2387-2" fill="#21E2E2" d="M-116.8-60.7L-116.8-60.7c2.3,0,4.2,1.9,4.2,4.2v0.3c0,2.3-1.9,4.2-4.2,4.2l0,0
						c-2.3,0-4.2-1.9-4.2-4.2v-0.3C-121-58.9-119.1-60.7-116.8-60.7z"/>
					<path id="Rectangle_2388-2" fill="#FFBC98" d="M-104.8-60.7h0.4c2.2,0,4,1.8,4,4v0.7c0,2.2-1.8,4-4,4h-0.4c-2.2,0-4-1.8-4-4
						v-0.7C-108.8-58.9-107-60.7-104.8-60.7z"/>
					<path id="Rectangle_2389-2" fill="#21E2E2" d="M-116.8-166.4L-116.8-166.4c2.3,0,4.2,1.9,4.2,4.2v0.3c0,2.3-1.9,4.2-4.2,4.2
						l0,0c-2.3,0-4.2-1.9-4.2-4.2v-0.3C-121-164.6-119.1-166.4-116.8-166.4z"/>
					<path id="Rectangle_2390-2" fill="#FFBC98" d="M-104.8-166.4h0.4c2.2,0,4,1.8,4,4v0.7c0,2.2-1.8,4-4,4h-0.4c-2.2,0-4-1.8-4-4
						v-0.7C-108.8-164.7-107-166.4-104.8-166.4z"/>
					<path id="Path_5397-2" fill="#0E71BB" d="M-135.3-27.1h52.8v43.9h-52.8c-2.6,0-4.7-2.1-4.7-4.7v-34.5
						C-140-25-137.9-27.1-135.3-27.1C-135.3-27.1-135.3-27.1-135.3-27.1z"/>
					<path id="Rectangle_2491-2" fill="#21E2E2" d="M-116.8-8.9L-116.8-8.9c2.3,0,4.2,1.9,4.2,4.2v0.3c0,2.3-1.9,4.2-4.2,4.2l0,0
						c-2.3,0-4.2-1.9-4.2-4.2v-0.3C-121-7-119.1-8.9-116.8-8.9z"/>
					<path id="Rectangle_2492-2" fill="#FFBC98" d="M-104.8-8.9h0.4c2.2,0,4,1.8,4,4v0.7c0,2.2-1.8,4-4,4h-0.4c-2.2,0-4-1.8-4-4
						v-0.7C-108.8-7.1-107-8.9-104.8-8.9z"/>
				</g>
			</g>
		</g>
	</g>
	<g id="Group_6210" transform="translate(-13041.826 -20618.18)">
		<g id="Group_5584-9" transform="translate(0 0)">
			<path id="Rectangle_1405-14" fill="#379CE6" d="M-136.9-166.4L-136.9-166.4c1.7,0,3.1,1.4,3.1,3.1l0,0c0,1.7-1.4,3.1-3.1,3.1l0,0
				c-1.7,0-3.1-1.4-3.1-3.1l0,0C-140-165.1-138.6-166.4-136.9-166.4z"/>
			<path id="Rectangle_1424-14" fill="#379CE6" d="M-129.5-154.1L-129.5-154.1c1.7,0,3.1,1.4,3.1,3.1l0,0c0,1.7-1.4,3.1-3.1,3.1l0,0
				c-1.7,0-3.1-1.4-3.1-3.1l0,0C-132.6-152.7-131.2-154.1-129.5-154.1z"/>
			<path id="Rectangle_1410-14" fill="#379CE6" d="M-75-166.4L-75-166.4c1.7,0,3.1,1.4,3.1,3.1l0,0c0,1.7-1.4,3.1-3.1,3.1l0,0
				c-1.7,0-3.1-1.4-3.1-3.1l0,0C-78.1-165.1-76.8-166.4-75-166.4z"/>
			<path id="Rectangle_1419-14" fill="#379CE6" d="M-67.6-154.1L-67.6-154.1c1.7,0,3.1,1.4,3.1,3.1l0,0c0,1.7-1.4,3.1-3.1,3.1l0,0
				c-1.7,0-3.1-1.4-3.1-3.1l0,0C-70.7-152.7-69.3-154.1-67.6-154.1z"/>
			<path id="Rectangle_1406-14" fill="#379CE6" d="M-124.5-166.4L-124.5-166.4c1.7,0,3.1,1.4,3.1,3.1l0,0c0,1.7-1.4,3.1-3.1,3.1l0,0
				c-1.7,0-3.1-1.4-3.1-3.1l0,0C-127.6-165.1-126.2-166.4-124.5-166.4z"/>
			<path id="Rectangle_1423-14" fill="#379CE6" d="M-117.1-154.1L-117.1-154.1c1.7,0,3.1,1.4,3.1,3.1l0,0c0,1.7-1.4,3.1-3.1,3.1l0,0
				c-1.7,0-3.1-1.4-3.1-3.1l0,0C-120.2-152.7-118.8-154.1-117.1-154.1z"/>
			<path id="Rectangle_1407-14" fill="#379CE6" d="M-112.2-166.4L-112.2-166.4c1.7,0,3.1,1.4,3.1,3.1l0,0c0,1.7-1.4,3.1-3.1,3.1l0,0
				c-1.7,0-3.1-1.4-3.1-3.1l0,0C-115.3-165.1-113.9-166.4-112.2-166.4z"/>
			<path id="Rectangle_1422-14" fill="#379CE6" d="M-104.7-154.1L-104.7-154.1c1.7,0,3.1,1.4,3.1,3.1l0,0c0,1.7-1.4,3.1-3.1,3.1l0,0
				c-1.7,0-3.1-1.4-3.1-3.1l0,0C-107.8-152.7-106.4-154.1-104.7-154.1z"/>
			<path id="Rectangle_1408-14" fill="#379CE6" d="M-99.8-166.4L-99.8-166.4c1.7,0,3.1,1.4,3.1,3.1l0,0c0,1.7-1.4,3.1-3.1,3.1l0,0
				c-1.7,0-3.1-1.4-3.1-3.1l0,0C-102.9-165.1-101.5-166.4-99.8-166.4z"/>
			<path id="Rectangle_1421-14" fill="#379CE6" d="M-92.4-154.1L-92.4-154.1c1.7,0,3.1,1.4,3.1,3.1l0,0c0,1.7-1.4,3.1-3.1,3.1l0,0
				c-1.7,0-3.1-1.4-3.1-3.1l0,0C-95.5-152.7-94.1-154.1-92.4-154.1z"/>
			<path id="Rectangle_1409-14" fill="#379CE6" d="M-87.4-166.4L-87.4-166.4c1.7,0,3.1,1.4,3.1,3.1l0,0c0,1.7-1.4,3.1-3.1,3.1l0,0
				c-1.7,0-3.1-1.4-3.1-3.1l0,0C-90.5-165.1-89.1-166.4-87.4-166.4z"/>
			<path id="Rectangle_1420-14" fill="#379CE6" d="M-80-154.1L-80-154.1c1.7,0,3.1,1.4,3.1,3.1l0,0c0,1.7-1.4,3.1-3.1,3.1l0,0
				c-1.7,0-3.1-1.4-3.1-3.1l0,0C-83.1-152.7-81.7-154.1-80-154.1z"/>
		</g>
	</g>
	<g id="Group_6211" transform="translate(-13041.826 -20671.18)">
		<g id="Group_5584-10" transform="translate(0 0)">
			<path id="Rectangle_1405-15" fill="#379CE6" d="M-136.9-166.4L-136.9-166.4c1.7,0,3.1,1.4,3.1,3.1l0,0c0,1.7-1.4,3.1-3.1,3.1l0,0
				c-1.7,0-3.1-1.4-3.1-3.1l0,0C-140-165.1-138.6-166.4-136.9-166.4z"/>
			<path id="Rectangle_1424-15" fill="#379CE6" d="M-129.5-154.1L-129.5-154.1c1.7,0,3.1,1.4,3.1,3.1l0,0c0,1.7-1.4,3.1-3.1,3.1l0,0
				c-1.7,0-3.1-1.4-3.1-3.1l0,0C-132.6-152.7-131.2-154.1-129.5-154.1z"/>
			<path id="Rectangle_1410-15" fill="#379CE6" d="M-75-166.4L-75-166.4c1.7,0,3.1,1.4,3.1,3.1l0,0c0,1.7-1.4,3.1-3.1,3.1l0,0
				c-1.7,0-3.1-1.4-3.1-3.1l0,0C-78.1-165.1-76.8-166.4-75-166.4z"/>
			<path id="Rectangle_1419-15" fill="#379CE6" d="M-67.6-154.1L-67.6-154.1c1.7,0,3.1,1.4,3.1,3.1l0,0c0,1.7-1.4,3.1-3.1,3.1l0,0
				c-1.7,0-3.1-1.4-3.1-3.1l0,0C-70.7-152.7-69.3-154.1-67.6-154.1z"/>
			<path id="Rectangle_1406-15" fill="#379CE6" d="M-124.5-166.4L-124.5-166.4c1.7,0,3.1,1.4,3.1,3.1l0,0c0,1.7-1.4,3.1-3.1,3.1l0,0
				c-1.7,0-3.1-1.4-3.1-3.1l0,0C-127.6-165.1-126.2-166.4-124.5-166.4z"/>
			<path id="Rectangle_1423-15" fill="#379CE6" d="M-117.1-154.1L-117.1-154.1c1.7,0,3.1,1.4,3.1,3.1l0,0c0,1.7-1.4,3.1-3.1,3.1l0,0
				c-1.7,0-3.1-1.4-3.1-3.1l0,0C-120.2-152.7-118.8-154.1-117.1-154.1z"/>
			<path id="Rectangle_1407-15" fill="#379CE6" d="M-112.2-166.4L-112.2-166.4c1.7,0,3.1,1.4,3.1,3.1l0,0c0,1.7-1.4,3.1-3.1,3.1l0,0
				c-1.7,0-3.1-1.4-3.1-3.1l0,0C-115.3-165.1-113.9-166.4-112.2-166.4z"/>
			<path id="Rectangle_1422-15" fill="#379CE6" d="M-104.7-154.1L-104.7-154.1c1.7,0,3.1,1.4,3.1,3.1l0,0c0,1.7-1.4,3.1-3.1,3.1l0,0
				c-1.7,0-3.1-1.4-3.1-3.1l0,0C-107.8-152.7-106.4-154.1-104.7-154.1z"/>
			<path id="Rectangle_1408-15" fill="#379CE6" d="M-99.8-166.4L-99.8-166.4c1.7,0,3.1,1.4,3.1,3.1l0,0c0,1.7-1.4,3.1-3.1,3.1l0,0
				c-1.7,0-3.1-1.4-3.1-3.1l0,0C-102.9-165.1-101.5-166.4-99.8-166.4z"/>
			<path id="Rectangle_1421-15" fill="#379CE6" d="M-92.4-154.1L-92.4-154.1c1.7,0,3.1,1.4,3.1,3.1l0,0c0,1.7-1.4,3.1-3.1,3.1l0,0
				c-1.7,0-3.1-1.4-3.1-3.1l0,0C-95.5-152.7-94.1-154.1-92.4-154.1z"/>
			<path id="Rectangle_1409-15" fill="#379CE6" d="M-87.4-166.4L-87.4-166.4c1.7,0,3.1,1.4,3.1,3.1l0,0c0,1.7-1.4,3.1-3.1,3.1l0,0
				c-1.7,0-3.1-1.4-3.1-3.1l0,0C-90.5-165.1-89.1-166.4-87.4-166.4z"/>
			<path id="Rectangle_1420-15" fill="#379CE6" d="M-80-154.1L-80-154.1c1.7,0,3.1,1.4,3.1,3.1l0,0c0,1.7-1.4,3.1-3.1,3.1l0,0
				c-1.7,0-3.1-1.4-3.1-3.1l0,0C-83.1-152.7-81.7-154.1-80-154.1z"/>
		</g>
	</g>
	<g id="Group_6212" transform="translate(-13041.826 -20725.18)">
		<g id="Group_5584-11" transform="translate(0 0)">
			<path id="Rectangle_1405-16" fill="#379CE6" d="M-136.9-166.4L-136.9-166.4c1.7,0,3.1,1.4,3.1,3.1l0,0c0,1.7-1.4,3.1-3.1,3.1l0,0
				c-1.7,0-3.1-1.4-3.1-3.1l0,0C-140-165.1-138.6-166.4-136.9-166.4z"/>
			<path id="Rectangle_1424-16" fill="#379CE6" d="M-129.5-154.1L-129.5-154.1c1.7,0,3.1,1.4,3.1,3.1l0,0c0,1.7-1.4,3.1-3.1,3.1l0,0
				c-1.7,0-3.1-1.4-3.1-3.1l0,0C-132.6-152.7-131.2-154.1-129.5-154.1z"/>
			<path id="Rectangle_1410-16" fill="#379CE6" d="M-75-166.4L-75-166.4c1.7,0,3.1,1.4,3.1,3.1l0,0c0,1.7-1.4,3.1-3.1,3.1l0,0
				c-1.7,0-3.1-1.4-3.1-3.1l0,0C-78.1-165.1-76.8-166.4-75-166.4z"/>
			<path id="Rectangle_1419-16" fill="#379CE6" d="M-67.6-154.1L-67.6-154.1c1.7,0,3.1,1.4,3.1,3.1l0,0c0,1.7-1.4,3.1-3.1,3.1l0,0
				c-1.7,0-3.1-1.4-3.1-3.1l0,0C-70.7-152.7-69.3-154.1-67.6-154.1z"/>
			<path id="Rectangle_1406-16" fill="#379CE6" d="M-124.5-166.4L-124.5-166.4c1.7,0,3.1,1.4,3.1,3.1l0,0c0,1.7-1.4,3.1-3.1,3.1l0,0
				c-1.7,0-3.1-1.4-3.1-3.1l0,0C-127.6-165.1-126.2-166.4-124.5-166.4z"/>
			<path id="Rectangle_1423-16" fill="#379CE6" d="M-117.1-154.1L-117.1-154.1c1.7,0,3.1,1.4,3.1,3.1l0,0c0,1.7-1.4,3.1-3.1,3.1l0,0
				c-1.7,0-3.1-1.4-3.1-3.1l0,0C-120.2-152.7-118.8-154.1-117.1-154.1z"/>
			<path id="Rectangle_1407-16" fill="#379CE6" d="M-112.2-166.4L-112.2-166.4c1.7,0,3.1,1.4,3.1,3.1l0,0c0,1.7-1.4,3.1-3.1,3.1l0,0
				c-1.7,0-3.1-1.4-3.1-3.1l0,0C-115.3-165.1-113.9-166.4-112.2-166.4z"/>
			<path id="Rectangle_1422-16" fill="#379CE6" d="M-104.7-154.1L-104.7-154.1c1.7,0,3.1,1.4,3.1,3.1l0,0c0,1.7-1.4,3.1-3.1,3.1l0,0
				c-1.7,0-3.1-1.4-3.1-3.1l0,0C-107.8-152.7-106.4-154.1-104.7-154.1z"/>
			<path id="Rectangle_1408-16" fill="#379CE6" d="M-99.8-166.4L-99.8-166.4c1.7,0,3.1,1.4,3.1,3.1l0,0c0,1.7-1.4,3.1-3.1,3.1l0,0
				c-1.7,0-3.1-1.4-3.1-3.1l0,0C-102.9-165.1-101.5-166.4-99.8-166.4z"/>
			<path id="Rectangle_1421-16" fill="#379CE6" d="M-92.4-154.1L-92.4-154.1c1.7,0,3.1,1.4,3.1,3.1l0,0c0,1.7-1.4,3.1-3.1,3.1l0,0
				c-1.7,0-3.1-1.4-3.1-3.1l0,0C-95.5-152.7-94.1-154.1-92.4-154.1z"/>
			<path id="Rectangle_1409-16" fill="#379CE6" d="M-87.4-166.4L-87.4-166.4c1.7,0,3.1,1.4,3.1,3.1l0,0c0,1.7-1.4,3.1-3.1,3.1l0,0
				c-1.7,0-3.1-1.4-3.1-3.1l0,0C-90.5-165.1-89.1-166.4-87.4-166.4z"/>
			<path id="Rectangle_1420-16" fill="#379CE6" d="M-80-154.1L-80-154.1c1.7,0,3.1,1.4,3.1,3.1l0,0c0,1.7-1.4,3.1-3.1,3.1l0,0
				c-1.7,0-3.1-1.4-3.1-3.1l0,0C-83.1-152.7-81.7-154.1-80-154.1z"/>
		</g>
	</g>
	<g id="Group_6213" transform="translate(-13042.2 -20746.977)">
		<g id="Group_5583-6" transform="translate(0)">
			<g id="Group_5582-6" transform="translate(0)">
				<g id="Group_5581-6" transform="translate(0)">
					<rect id="Rectangle_1565-4" x="-130" y="-121.1" fill="#164571" width="150" height="14.7"/>
					<path id="Path_3764-4" fill="#0E71BB" d="M-134.3-166.4H24.3c3.1,0,5.7,2.5,5.7,5.7l0,0v36.3c0,3.1-2.5,5.7-5.7,5.7l0,0h-158.6
						c-3.1,0-5.7-2.5-5.7-5.7c0,0,0,0,0,0v-36.3C-140-163.9-137.5-166.4-134.3-166.4C-134.3-166.4-134.3-166.4-134.3-166.4z"/>
					<rect id="Rectangle_1567-4" x="-130" y="-65.6" fill="#164571" width="150" height="17"/>
					<path id="Rectangle_1631-2" fill="#005B9F" d="M-136-166.4h58.3l0,0v47.6l0,0H-136c-2.2,0-4-1.8-4-4v-39.6
						C-140-164.7-138.2-166.4-136-166.4z"/>
					<g id="Group_104-6" transform="translate(70.584 74.792)">
						<path id="Rectangle_1405-17" fill="#288ED9" d="M-138-166.4L-138-166.4c1.1,0,2,0.9,2,2l0,0c0,1.1-0.9,2-2,2l0,0
							c-1.1,0-2-0.9-2-2l0,0C-140-165.5-139.1-166.4-138-166.4z"/>
						<path id="Rectangle_1424-17" fill="#288ED9" d="M-133.1-158.4L-133.1-158.4c1.1,0,2,0.9,2,2l0,0c0,1.1-0.9,2-2,2l0,0
							c-1.1,0-2-0.9-2-2l0,0C-135.1-157.4-134.2-158.4-133.1-158.4z"/>
						<path id="Rectangle_1410-17" fill="#288ED9" d="M-97.5-166.4L-97.5-166.4c1.1,0,2,0.9,2,2l0,0c0,1.1-0.9,2-2,2l0,0
							c-1.1,0-2-0.9-2-2l0,0C-99.5-165.5-98.6-166.4-97.5-166.4z"/>
						<path id="Rectangle_1419-17" fill="#288ED9" d="M-92.6-158.4L-92.6-158.4c1.1,0,2,0.9,2,2l0,0c0,1.1-0.9,2-2,2l0,0
							c-1.1,0-2-0.9-2-2l0,0C-94.7-157.4-93.8-158.4-92.6-158.4z"/>
						<path id="Rectangle_1406-17" fill="#288ED9" d="M-129.9-166.4L-129.9-166.4c1.1,0,2,0.9,2,2l0,0c0,1.1-0.9,2-2,2l0,0
							c-1.1,0-2-0.9-2-2l0,0C-131.9-165.5-131-166.4-129.9-166.4z"/>
						<path id="Rectangle_1423-17" fill="#288ED9" d="M-125-158.4L-125-158.4c1.1,0,2,0.9,2,2l0,0c0,1.1-0.9,2-2,2l0,0
							c-1.1,0-2-0.9-2-2l0,0C-127-157.4-126.1-158.4-125-158.4z"/>
						<path id="Rectangle_1411-6" fill="#288ED9" d="M-89.4-166.4L-89.4-166.4c1.1,0,2,0.9,2,2l0,0c0,1.1-0.9,2-2,2l0,0
							c-1.1,0-2-0.9-2-2l0,0C-91.4-165.5-90.5-166.4-89.4-166.4z"/>
						<path id="Rectangle_1418-6" fill="#288ED9" d="M-84.6-158.4L-84.6-158.4c1.1,0,2,0.9,2,2l0,0c0,1.1-0.9,2-2,2l0,0
							c-1.1,0-2-0.9-2-2l0,0C-86.6-157.4-85.7-158.4-84.6-158.4z"/>
						<path id="Rectangle_1407-17" fill="#288ED9" d="M-121.8-166.4L-121.8-166.4c1.1,0,2,0.9,2,2l0,0c0,1.1-0.9,2-2,2l0,0
							c-1.1,0-2-0.9-2-2l0,0C-123.8-165.5-122.9-166.4-121.8-166.4z"/>
						<path id="Rectangle_1422-17" fill="#288ED9" d="M-116.9-158.4L-116.9-158.4c1.1,0,2,0.9,2,2l0,0c0,1.1-0.9,2-2,2l0,0
							c-1.1,0-2-0.9-2-2l0,0C-119-157.4-118-158.4-116.9-158.4z"/>
						<path id="Rectangle_1412-6" fill="#288ED9" d="M-81.3-166.4L-81.3-166.4c1.1,0,2,0.9,2,2l0,0c0,1.1-0.9,2-2,2l0,0
							c-1.1,0-2-0.9-2-2l0,0C-83.3-165.5-82.4-166.4-81.3-166.4z"/>
						<path id="Rectangle_1417-6" fill="#288ED9" d="M-76.5-158.4L-76.5-158.4c1.1,0,2,0.9,2,2l0,0c0,1.1-0.9,2-2,2l0,0
							c-1.1,0-2-0.9-2-2l0,0C-78.5-157.4-77.6-158.4-76.5-158.4z"/>
						<path id="Rectangle_1408-17" fill="#288ED9" d="M-113.7-166.4L-113.7-166.4c1.1,0,2,0.9,2,2l0,0c0,1.1-0.9,2-2,2l0,0
							c-1.1,0-2-0.9-2-2l0,0C-115.7-165.5-114.8-166.4-113.7-166.4z"/>
						<path id="Rectangle_1421-17" fill="#288ED9" d="M-108.8-158.4L-108.8-158.4c1.1,0,2,0.9,2,2l0,0c0,1.1-0.9,2-2,2l0,0
							c-1.1,0-2-0.9-2-2l0,0C-110.9-157.4-110-158.4-108.8-158.4z"/>
						<path id="Rectangle_1413-6" fill="#288ED9" d="M-73.2-166.4L-73.2-166.4c1.1,0,2,0.9,2,2l0,0c0,1.1-0.9,2-2,2l0,0
							c-1.1,0-2-0.9-2-2l0,0C-75.2-165.5-74.3-166.4-73.2-166.4z"/>
						<path id="Rectangle_1416-6" fill="#288ED9" d="M-68.4-158.4L-68.4-158.4c1.1,0,2,0.9,2,2l0,0c0,1.1-0.9,2-2,2l0,0
							c-1.1,0-2-0.9-2-2l0,0C-70.4-157.4-69.5-158.4-68.4-158.4z"/>
						<path id="Rectangle_1409-17" fill="#288ED9" d="M-105.6-166.4L-105.6-166.4c1.1,0,2,0.9,2,2l0,0c0,1.1-0.9,2-2,2l0,0
							c-1.1,0-2-0.9-2-2l0,0C-107.6-165.5-106.7-166.4-105.6-166.4z"/>
						<path id="Rectangle_1420-17" fill="#288ED9" d="M-100.7-158.4L-100.7-158.4c1.1,0,2,0.9,2,2l0,0c0,1.1-0.9,2-2,2l0,0
							c-1.1,0-2-0.9-2-2l0,0C-102.8-157.4-101.9-158.4-100.7-158.4z"/>
						<path id="Rectangle_1414-6" fill="#288ED9" d="M-65.1-166.4L-65.1-166.4c1.1,0,2,0.9,2,2l0,0c0,1.1-0.9,2-2,2l0,0
							c-1.1,0-2-0.9-2-2l0,0C-67.2-165.5-66.2-166.4-65.1-166.4z"/>
						<path id="Rectangle_1415-6" fill="#288ED9" d="M-60.3-158.4L-60.3-158.4c1.1,0,2,0.9,2,2l0,0c0,1.1-0.9,2-2,2l0,0
							c-1.1,0-2-0.9-2-2l0,0C-62.3-157.4-61.4-158.4-60.3-158.4z"/>
					</g>
					<path id="Rectangle_1634-4" fill="#0E71BB" d="M-135-109.8H25c2.8,0,5,2.2,5,5v37.6c0,2.8-2.2,5-5,5h-160c-2.8,0-5-2.2-5-5
						v-37.6C-140-107.5-137.8-109.8-135-109.8z"/>
					<g id="Group_113-6" transform="translate(17.161 74.792)">
						<g id="Rectangle_1635-6" transform="translate(0 0)">
							<path fill="#21E2E2" d="M-133.8-166.4L-133.8-166.4c3.4,0,6.2,2.8,6.2,6.2v0.5c0,3.4-2.8,6.2-6.2,6.2l0,0
								c-3.4,0-6.2-2.8-6.2-6.2v-0.5C-140-163.7-137.2-166.4-133.8-166.4z"/>
							<path fill="none" stroke="#137FCF" stroke-width="2" d="M-133.8-165.4L-133.8-165.4c2.9,0,5.2,2.3,5.2,5.2v0.5
								c0,2.9-2.3,5.2-5.2,5.2l0,0c-2.9,0-5.2-2.3-5.2-5.2v-0.5C-139-163.1-136.7-165.4-133.8-165.4z"/>
						</g>
						<g id="Rectangle_1636-6" transform="translate(18.131 0)">
							<path fill="#FFBC98" d="M-133.8-166.4L-133.8-166.4c3.4,0,6.2,2.8,6.2,6.2v0.5c0,3.4-2.8,6.2-6.2,6.2l0,0
								c-3.4,0-6.2-2.8-6.2-6.2v-0.5C-140-163.7-137.2-166.4-133.8-166.4z"/>
							<path fill="none" stroke="#137FCF" stroke-width="2" d="M-133.8-165.4L-133.8-165.4c2.9,0,5.2,2.3,5.2,5.2v0.5
								c0,2.9-2.3,5.2-5.2,5.2l0,0c-2.9,0-5.2-2.3-5.2-5.2v-0.5C-139-163.1-136.7-165.4-133.8-165.4z"/>
						</g>
					</g>
					<path id="Rectangle_1638-2" fill="#0E71BB" d="M-135-53.1H25c2.8,0,5,2.2,5,5v37.6c0,2.8-2.2,5-5,5h-160c-2.8,0-5-2.2-5-5
						v-37.6C-140-50.9-137.8-53.1-135-53.1z"/>
					<path id="Path_5065-2" fill="#005B9F" d="M-135.3-109.8h57.6v47.6h-57.6c-2.6,0-4.7-2.1-4.7-4.7c0,0,0,0,0,0v-38.1
						C-140-107.7-137.9-109.8-135.3-109.8C-135.3-109.8-135.3-109.8-135.3-109.8z"/>
					<g id="Group_115-2" transform="translate(18.739 76.313)">
						<path id="Rectangle_1425-6" fill="#21E2E2" d="M-135-166.4L-135-166.4c2.7,0,5,2.2,5,5v0.4c0,2.7-2.2,5-5,5h0
							c-2.7,0-5-2.2-5-5v-0.4C-140-164.2-137.8-166.4-135-166.4z"/>
						<path id="Rectangle_1442-6" fill="#FFBC98" d="M-120.6-166.4L-120.6-166.4c2.7,0,5,2.2,5,5v0.4c0,2.7-2.2,5-5,5h0
							c-2.7,0-5-2.2-5-5v-0.4C-125.6-164.2-123.4-166.4-120.6-166.4z"/>
					</g>
					<g id="Group_5597-2" transform="translate(18.738 21.087)">
						<path id="Rectangle_1425-7" fill="#21E2E2" d="M-135-166.4L-135-166.4c2.7,0,5,2.2,5,5v0.4c0,2.7-2.2,5-5,5h0
							c-2.7,0-5-2.2-5-5v-0.4C-140-164.2-137.8-166.4-135-166.4z"/>
						<path id="Rectangle_1442-7" fill="#FFBC98" d="M-120.6-166.4L-120.6-166.4c2.7,0,5,2.2,5,5v0.4c0,2.7-2.2,5-5,5h0
							c-2.7,0-5-2.2-5-5v-0.4C-125.6-164.2-123.4-166.4-120.6-166.4z"/>
					</g>
					<path id="Path_5396-2" fill="#005B9F" d="M-135.3-53.4h57.6v47.6h-57.6c-2.6,0-4.7-2.1-4.7-4.7c0,0,0,0,0,0v-38.1
						C-140-51.3-137.9-53.4-135.3-53.4C-135.3-53.4-135.3-53.4-135.3-53.4z"/>
					<g id="Group_5703-2" transform="translate(18.738 132.676)">
						<path id="Rectangle_1425-8" fill="#21E2E2" d="M-135-166.4L-135-166.4c2.7,0,5,2.2,5,5v0.4c0,2.7-2.2,5-5,5h0
							c-2.7,0-5-2.2-5-5v-0.4C-140-164.2-137.8-166.4-135-166.4z"/>
						<path id="Rectangle_1442-8" fill="#FFBC98" d="M-120.6-166.4L-120.6-166.4c2.7,0,5,2.2,5,5v0.4c0,2.7-2.2,5-5,5h0
							c-2.7,0-5-2.2-5-5v-0.4C-125.6-164.2-123.4-166.4-120.6-166.4z"/>
					</g>
				</g>
			</g>
		</g>
		<g id="Group_5702-2" transform="translate(74.156 128.068)">
			<g id="Group_5584-12" transform="translate(0 0)">
				<path id="Rectangle_1405-18" fill="#52ACEA" d="M-136.6-166.4L-136.6-166.4c1.9,0,3.4,1.5,3.4,3.4l0,0c0,1.9-1.5,3.4-3.4,3.4
					l0,0c-1.9,0-3.4-1.5-3.4-3.4l0,0C-140-164.9-138.5-166.4-136.6-166.4z"/>
				<path id="Rectangle_1424-18" fill="#52ACEA" d="M-128.6-153L-128.6-153c1.9,0,3.4,1.5,3.4,3.4l0,0c0,1.9-1.5,3.4-3.4,3.4l0,0
					c-1.9,0-3.4-1.5-3.4-3.4l0,0C-132-151.5-130.5-153-128.6-153z"/>
				<path id="Rectangle_1410-18" fill="#52ACEA" d="M-69.6-166.4L-69.6-166.4c1.9,0,3.4,1.5,3.4,3.4l0,0c0,1.9-1.5,3.4-3.4,3.4l0,0
					c-1.9,0-3.4-1.5-3.4-3.4l0,0C-73-164.9-71.5-166.4-69.6-166.4z"/>
				<path id="Rectangle_1419-18" fill="#52ACEA" d="M-61.6-153L-61.6-153c1.9,0,3.4,1.5,3.4,3.4l0,0c0,1.9-1.5,3.4-3.4,3.4l0,0
					c-1.9,0-3.4-1.5-3.4-3.4l0,0C-64.9-151.5-63.4-153-61.6-153z"/>
				<path id="Rectangle_1406-18" fill="#52ACEA" d="M-123.2-166.4L-123.2-166.4c1.9,0,3.4,1.5,3.4,3.4l0,0c0,1.9-1.5,3.4-3.4,3.4
					l0,0c-1.9,0-3.4-1.5-3.4-3.4l0,0C-126.6-164.9-125.1-166.4-123.2-166.4z"/>
				<path id="Rectangle_1423-18" fill="#52ACEA" d="M-115.2-153L-115.2-153c1.9,0,3.4,1.5,3.4,3.4l0,0c0,1.9-1.5,3.4-3.4,3.4l0,0
					c-1.9,0-3.4-1.5-3.4-3.4l0,0C-118.6-151.5-117.1-153-115.2-153z"/>
				<path id="Rectangle_1407-18" fill="#52ACEA" d="M-109.8-166.4L-109.8-166.4c1.9,0,3.4,1.5,3.4,3.4l0,0c0,1.9-1.5,3.4-3.4,3.4
					l0,0c-1.9,0-3.4-1.5-3.4-3.4l0,0C-113.2-164.9-111.7-166.4-109.8-166.4z"/>
				<path id="Rectangle_1422-18" fill="#52ACEA" d="M-101.8-153L-101.8-153c1.9,0,3.4,1.5,3.4,3.4l0,0c0,1.9-1.5,3.4-3.4,3.4l0,0
					c-1.9,0-3.4-1.5-3.4-3.4l0,0C-105.2-151.5-103.7-153-101.8-153z"/>
				<path id="Rectangle_1408-18" fill="#52ACEA" d="M-96.4-166.4L-96.4-166.4c1.9,0,3.4,1.5,3.4,3.4l0,0c0,1.9-1.5,3.4-3.4,3.4l0,0
					c-1.9,0-3.4-1.5-3.4-3.4l0,0C-99.8-164.9-98.3-166.4-96.4-166.4z"/>
				<path id="Rectangle_1421-18" fill="#52ACEA" d="M-88.4-153L-88.4-153c1.9,0,3.4,1.5,3.4,3.4l0,0c0,1.9-1.5,3.4-3.4,3.4l0,0
					c-1.9,0-3.4-1.5-3.4-3.4l0,0C-91.8-151.5-90.3-153-88.4-153z"/>
				<path id="Rectangle_1409-18" fill="#52ACEA" d="M-83-166.4L-83-166.4c1.9,0,3.4,1.5,3.4,3.4l0,0c0,1.9-1.5,3.4-3.4,3.4l0,0
					c-1.9,0-3.4-1.5-3.4-3.4l0,0C-86.4-164.9-84.9-166.4-83-166.4z"/>
				<path id="Rectangle_1420-18" fill="#52ACEA" d="M-75-153L-75-153c1.9,0,3.4,1.5,3.4,3.4l0,0c0,1.9-1.5,3.4-3.4,3.4l0,0
					c-1.9,0-3.4-1.5-3.4-3.4l0,0C-78.3-151.5-76.8-153-75-153z"/>
			</g>
		</g>
		<g id="Group_5709-2" transform="translate(74.156 70.578)">
			<g id="Group_5584-13" transform="translate(0 0)">
				<path id="Rectangle_1405-19" fill="#52ACEA" d="M-136.6-166.4L-136.6-166.4c1.9,0,3.4,1.5,3.4,3.4l0,0c0,1.9-1.5,3.4-3.4,3.4
					l0,0c-1.9,0-3.4-1.5-3.4-3.4l0,0C-140-164.9-138.5-166.4-136.6-166.4z"/>
				<path id="Rectangle_1424-19" fill="#52ACEA" d="M-128.6-153L-128.6-153c1.9,0,3.4,1.5,3.4,3.4l0,0c0,1.9-1.5,3.4-3.4,3.4l0,0
					c-1.9,0-3.4-1.5-3.4-3.4l0,0C-132-151.5-130.5-153-128.6-153z"/>
				<path id="Rectangle_1410-19" fill="#52ACEA" d="M-69.6-166.4L-69.6-166.4c1.9,0,3.4,1.5,3.4,3.4l0,0c0,1.9-1.5,3.4-3.4,3.4l0,0
					c-1.9,0-3.4-1.5-3.4-3.4l0,0C-73-164.9-71.5-166.4-69.6-166.4z"/>
				<path id="Rectangle_1419-19" fill="#52ACEA" d="M-61.6-153L-61.6-153c1.9,0,3.4,1.5,3.4,3.4l0,0c0,1.9-1.5,3.4-3.4,3.4l0,0
					c-1.9,0-3.4-1.5-3.4-3.4l0,0C-64.9-151.5-63.4-153-61.6-153z"/>
				<path id="Rectangle_1406-19" fill="#52ACEA" d="M-123.2-166.4L-123.2-166.4c1.9,0,3.4,1.5,3.4,3.4l0,0c0,1.9-1.5,3.4-3.4,3.4
					l0,0c-1.9,0-3.4-1.5-3.4-3.4l0,0C-126.6-164.9-125.1-166.4-123.2-166.4z"/>
				<path id="Rectangle_1423-19" fill="#52ACEA" d="M-115.2-153L-115.2-153c1.9,0,3.4,1.5,3.4,3.4l0,0c0,1.9-1.5,3.4-3.4,3.4l0,0
					c-1.9,0-3.4-1.5-3.4-3.4l0,0C-118.6-151.5-117.1-153-115.2-153z"/>
				<path id="Rectangle_1407-19" fill="#52ACEA" d="M-109.8-166.4L-109.8-166.4c1.9,0,3.4,1.5,3.4,3.4l0,0c0,1.9-1.5,3.4-3.4,3.4
					l0,0c-1.9,0-3.4-1.5-3.4-3.4l0,0C-113.2-164.9-111.7-166.4-109.8-166.4z"/>
				<path id="Rectangle_1422-19" fill="#52ACEA" d="M-101.8-153L-101.8-153c1.9,0,3.4,1.5,3.4,3.4l0,0c0,1.9-1.5,3.4-3.4,3.4l0,0
					c-1.9,0-3.4-1.5-3.4-3.4l0,0C-105.2-151.5-103.7-153-101.8-153z"/>
				<path id="Rectangle_1408-19" fill="#52ACEA" d="M-96.4-166.4L-96.4-166.4c1.9,0,3.4,1.5,3.4,3.4l0,0c0,1.9-1.5,3.4-3.4,3.4l0,0
					c-1.9,0-3.4-1.5-3.4-3.4l0,0C-99.8-164.9-98.3-166.4-96.4-166.4z"/>
				<path id="Rectangle_1421-19" fill="#52ACEA" d="M-88.4-153L-88.4-153c1.9,0,3.4,1.5,3.4,3.4l0,0c0,1.9-1.5,3.4-3.4,3.4l0,0
					c-1.9,0-3.4-1.5-3.4-3.4l0,0C-91.8-151.5-90.3-153-88.4-153z"/>
				<path id="Rectangle_1409-19" fill="#52ACEA" d="M-83-166.4L-83-166.4c1.9,0,3.4,1.5,3.4,3.4l0,0c0,1.9-1.5,3.4-3.4,3.4l0,0
					c-1.9,0-3.4-1.5-3.4-3.4l0,0C-86.4-164.9-84.9-166.4-83-166.4z"/>
				<path id="Rectangle_1420-19" fill="#52ACEA" d="M-75-153L-75-153c1.9,0,3.4,1.5,3.4,3.4l0,0c0,1.9-1.5,3.4-3.4,3.4l0,0
					c-1.9,0-3.4-1.5-3.4-3.4l0,0C-78.3-151.5-76.8-153-75-153z"/>
			</g>
		</g>
		<g id="Group_5710-2" transform="translate(74.156 14.216)">
			<g id="Group_5584-14" transform="translate(0 0)">
				<path id="Rectangle_1405-20" fill="#52ACEA" d="M-136.6-166.4L-136.6-166.4c1.9,0,3.4,1.5,3.4,3.4l0,0c0,1.9-1.5,3.4-3.4,3.4
					l0,0c-1.9,0-3.4-1.5-3.4-3.4l0,0C-140-164.9-138.5-166.4-136.6-166.4z"/>
				<path id="Rectangle_1424-20" fill="#52ACEA" d="M-128.6-153L-128.6-153c1.9,0,3.4,1.5,3.4,3.4l0,0c0,1.9-1.5,3.4-3.4,3.4l0,0
					c-1.9,0-3.4-1.5-3.4-3.4l0,0C-132-151.5-130.5-153-128.6-153z"/>
				<path id="Rectangle_1410-20" fill="#52ACEA" d="M-69.6-166.4L-69.6-166.4c1.9,0,3.4,1.5,3.4,3.4l0,0c0,1.9-1.5,3.4-3.4,3.4l0,0
					c-1.9,0-3.4-1.5-3.4-3.4l0,0C-73-164.9-71.5-166.4-69.6-166.4z"/>
				<path id="Rectangle_1419-20" fill="#52ACEA" d="M-61.6-153L-61.6-153c1.9,0,3.4,1.5,3.4,3.4l0,0c0,1.9-1.5,3.4-3.4,3.4l0,0
					c-1.9,0-3.4-1.5-3.4-3.4l0,0C-64.9-151.5-63.4-153-61.6-153z"/>
				<path id="Rectangle_1406-20" fill="#52ACEA" d="M-123.2-166.4L-123.2-166.4c1.9,0,3.4,1.5,3.4,3.4l0,0c0,1.9-1.5,3.4-3.4,3.4
					l0,0c-1.9,0-3.4-1.5-3.4-3.4l0,0C-126.6-164.9-125.1-166.4-123.2-166.4z"/>
				<path id="Rectangle_1423-20" fill="#52ACEA" d="M-115.2-153L-115.2-153c1.9,0,3.4,1.5,3.4,3.4l0,0c0,1.9-1.5,3.4-3.4,3.4l0,0
					c-1.9,0-3.4-1.5-3.4-3.4l0,0C-118.6-151.5-117.1-153-115.2-153z"/>
				<path id="Rectangle_1407-20" fill="#52ACEA" d="M-109.8-166.4L-109.8-166.4c1.9,0,3.4,1.5,3.4,3.4l0,0c0,1.9-1.5,3.4-3.4,3.4
					l0,0c-1.9,0-3.4-1.5-3.4-3.4l0,0C-113.2-164.9-111.7-166.4-109.8-166.4z"/>
				<path id="Rectangle_1422-20" fill="#52ACEA" d="M-101.8-153L-101.8-153c1.9,0,3.4,1.5,3.4,3.4l0,0c0,1.9-1.5,3.4-3.4,3.4l0,0
					c-1.9,0-3.4-1.5-3.4-3.4l0,0C-105.2-151.5-103.7-153-101.8-153z"/>
				<path id="Rectangle_1408-20" fill="#52ACEA" d="M-96.4-166.4L-96.4-166.4c1.9,0,3.4,1.5,3.4,3.4l0,0c0,1.9-1.5,3.4-3.4,3.4l0,0
					c-1.9,0-3.4-1.5-3.4-3.4l0,0C-99.8-164.9-98.3-166.4-96.4-166.4z"/>
				<path id="Rectangle_1421-20" fill="#52ACEA" d="M-88.4-153L-88.4-153c1.9,0,3.4,1.5,3.4,3.4l0,0c0,1.9-1.5,3.4-3.4,3.4l0,0
					c-1.9,0-3.4-1.5-3.4-3.4l0,0C-91.8-151.5-90.3-153-88.4-153z"/>
				<path id="Rectangle_1409-20" fill="#52ACEA" d="M-83-166.4L-83-166.4c1.9,0,3.4,1.5,3.4,3.4l0,0c0,1.9-1.5,3.4-3.4,3.4l0,0
					c-1.9,0-3.4-1.5-3.4-3.4l0,0C-86.4-164.9-84.9-166.4-83-166.4z"/>
				<path id="Rectangle_1420-20" fill="#52ACEA" d="M-75-153L-75-153c1.9,0,3.4,1.5,3.4,3.4l0,0c0,1.9-1.5,3.4-3.4,3.4l0,0
					c-1.9,0-3.4-1.5-3.4-3.4l0,0C-78.3-151.5-76.8-153-75-153z"/>
			</g>
		</g>
	</g>
</g>
<g id="Group_6252" transform="translate(688.865 -1385.387)">
	<path id="Subtraction_82" fill="#164571" d="M347.7,1635.1h-53.5V1574h35.1l18.4,18.4V1635.1z"/>
	<g id="Group_5944" transform="translate(434.22 1740.425)">
		<path id="Subtraction_81" fill="#288ED9" d="M-86.5-105.3H-140v-61.1h35.1v18.3h18.3V-105.3z"/>
		<path id="Path_5568" fill="#FFFFFF" d="M-125.3-126.6v4.5h-2.1v-12.2h4.6c1.2-0.1,2.3,0.3,3.2,1.1c0.8,0.7,1.2,1.7,1.2,2.8
			c0.1,1.1-0.4,2.1-1.2,2.8c-0.9,0.7-2.1,1.1-3.3,1H-125.3z M-125.3-128.3h2.5c0.6,0,1.2-0.1,1.7-0.5c0.4-0.4,0.6-1,0.6-1.5
			c0-0.6-0.2-1.2-0.6-1.6c-0.4-0.4-1-0.6-1.7-0.6h-2.6L-125.3-128.3z M-116.5-122.1v-12.2h3.6c1,0,2,0.2,2.9,0.7
			c0.8,0.5,1.5,1.2,1.9,2c0.5,0.9,0.7,2,0.7,3v0.6c0,1.1-0.2,2.1-0.7,3c-0.4,0.9-1.1,1.6-2,2c-0.9,0.5-1.9,0.7-2.9,0.7H-116.5z
			 M-114.4-132.6v8.8h1.4c1,0.1,1.9-0.3,2.6-1c0.6-0.9,1-1.9,0.9-3v-0.7c0.1-1.1-0.2-2.1-0.9-3c-0.6-0.7-1.5-1.1-2.5-1L-114.4-132.6
			z M-98.3-127.3h-4.9v5.1h-2.1v-12.2h7.7v1.7h-5.6v3.6h4.9V-127.3z"/>
	</g>
</g>
<g id="Group_6254" transform="translate(477.194 -1415.195)">
	<g id="Group_5938" transform="translate(563.096 1796.096)">
		<rect id="Rectangle_2794-2" x="-140" y="-166.4" fill="#1780CF" width="52.3" height="54.9"/>
		<path id="music-player" fill="#D6EEFF" d="M-99.4-155.9c-0.1-0.1-0.3-0.2-0.5-0.1l-19.1,2.5c-0.3,0-0.5,0.3-0.5,0.6v22.4
			c-1.2-1.3-2.9-2-4.6-2c-3.2,0-5.9,2.3-5.9,5.2s2.6,5.2,5.9,5.2c3.2,0,5.9-2.3,5.9-5.2c0-0.2,0-0.4,0-0.6c0-0.1,0-0.1,0-0.2v-17.9
			l17.9-2.3v11.7c-1.2-1.3-2.9-2-4.6-2c-3.2,0-5.9,2.3-5.9,5.2s2.6,5.2,5.9,5.2c3.2,0,5.9-2.3,5.9-5.2c0-0.1,0-0.1,0-0.2
			c0,0,0,0,0,0v-21.7C-99.2-155.6-99.3-155.7-99.4-155.9z"/>
	</g>
</g>
<g id="Group_6255" transform="translate(24.952 -1331.371)">
	<path id="Subtraction_83" fill="#005B9F" d="M247,1600.3h-51.5v-59.8h33.8l17.7,18V1600.3L247,1600.3z"/>
	<g id="Group_5946" transform="translate(335.563 1706.892)">
		<g id="Group_5947">
			<path id="Subtraction_81-2" fill="#288ED9" d="M-88.5-106.6H-140v-59.8h33.8v17.9h17.6V-106.6z"/>
			<rect id="Rectangle_2799" x="-131.2" y="-138" fill="#D6EEFF" width="32.4" height="3"/>
			<rect id="Rectangle_2800" x="-131.2" y="-130.6" fill="#D6EEFF" width="32.4" height="3"/>
			<rect id="Rectangle_2801" x="-131.2" y="-123.1" fill="#D6EEFF" width="32.4" height="3"/>
		</g>
	</g>
</g>
<g id="Group_6256" transform="translate(-308 -1371.529)">
	<g id="Group_5943" transform="translate(542.703 1726.066)">
		<g id="video-player" transform="translate(0 0)">
			
				<rect id="Rectangle_2785" x="-135.5" y="-164.5" fill="#288ED9" stroke="#005B9F" stroke-width="7" stroke-miterlimit="10" width="58.3" height="47.4"/>
			<path id="Path_5563" fill="#D6EEFF" d="M-111.8-132.6v-16.5l12.9,8.2L-111.8-132.6z"/>
			
				<rect id="Rectangle_2786" x="-140" y="-166.4" fill="#005B9F" stroke="#288ED9" stroke-width="3" stroke-miterlimit="10" width="11.8" height="12.8"/>
			
				<rect id="Rectangle_2787" x="-140" y="-153.7" fill="#005B9F" stroke="#288ED9" stroke-width="3" stroke-miterlimit="10" width="11.8" height="12.8"/>
			
				<rect id="Rectangle_2788" x="-140" y="-140.9" fill="#005B9F" stroke="#288ED9" stroke-width="3" stroke-miterlimit="10" width="11.8" height="12.8"/>
			
				<rect id="Rectangle_2789" x="-140" y="-128.1" fill="#005B9F" stroke="#288ED9" stroke-width="3" stroke-miterlimit="10" width="11.8" height="12.8"/>
			
				<rect id="Rectangle_2790" x="-85.9" y="-166.4" fill="#005B9F" stroke="#288ED9" stroke-width="3" stroke-miterlimit="10" width="11.8" height="12.8"/>
			
				<rect id="Rectangle_2791" x="-85.9" y="-153.7" fill="#005B9F" stroke="#288ED9" stroke-width="3" stroke-miterlimit="10" width="11.8" height="12.8"/>
			
				<rect id="Rectangle_2792" x="-85.9" y="-140.9" fill="#005B9F" stroke="#288ED9" stroke-width="3" stroke-miterlimit="10" width="11.8" height="12.8"/>
			
				<rect id="Rectangle_2793" x="-85.9" y="-128.1" fill="#005B9F" stroke="#288ED9" stroke-width="3" stroke-miterlimit="10" width="11.8" height="12.8"/>
		</g>
	</g>
</g>
<g id="Group_6257" transform="translate(-282.554 -1324.422)">
	<path id="Subtraction_82-2" fill="#005B9F" d="M346.6,1633.8h-52.4V1574h34.4l18,18V1633.8L346.6,1633.8z"/>
	<g id="Group_5944-2" transform="translate(434.22 1740.425)">
		<g id="Group_6246">
			<path id="Subtraction_81-3" fill="#288ED9" d="M-87.6-106.6H-140v-59.9h34.4v18h18V-106.6z"/>
			<path id="Path_5690" fill="#FFFFFF" d="M-129.4-120.4v-12h3.5c1,0,2,0.2,2.8,0.7c0.8,0.5,1.5,1.2,1.9,2c0.5,0.9,0.7,1.9,0.7,3
				v0.6c0,1-0.2,2.1-0.7,3c-0.4,0.8-1.1,1.5-1.9,2c-0.9,0.5-1.9,0.7-2.9,0.7L-129.4-120.4z M-127.3-130.7v8.7h1.4
				c1,0.1,1.9-0.3,2.5-1c0.6-0.8,1-1.9,0.9-3v-0.7c0.1-1.1-0.2-2.1-0.9-3c-0.6-0.7-1.5-1.1-2.5-1H-127.3z M-108.8-126.1
				c0,1.1-0.2,2.1-0.6,3.1c-0.4,0.8-1,1.5-1.7,2c-0.8,0.5-1.7,0.7-2.6,0.7c-0.9,0-1.8-0.2-2.6-0.7c-0.8-0.5-1.4-1.2-1.8-2
				c-0.4-1-0.6-2-0.6-3v-0.7c0-1.1,0.2-2.1,0.6-3.1c0.4-0.8,1-1.6,1.8-2.1c0.8-0.5,1.7-0.7,2.6-0.7c0.9,0,1.8,0.2,2.6,0.7
				c0.8,0.5,1.4,1.2,1.7,2c0.4,1,0.6,2,0.6,3.1L-108.8-126.1z M-110.9-126.7c0.1-1.1-0.2-2.1-0.8-3.1c-0.5-0.7-1.3-1.1-2.1-1.1
				c-0.8,0-1.6,0.4-2.1,1.1c-0.6,0.9-0.8,1.9-0.8,3v0.7c-0.1,1.1,0.2,2.1,0.8,3.1c0.5,0.7,1.3,1.1,2.1,1.1c0.8,0,1.6-0.4,2.1-1.1
				c0.6-0.9,0.8-2,0.7-3.1L-110.9-126.7z M-102.6-128.1l2.5-4.3h2.4l-3.6,6l3.7,6h-2.4l-2.6-4.4l-2.6,4.4h-2.4l3.7-6l-3.6-6h2.4
				L-102.6-128.1z"/>
		</g>
	</g>
</g>
</svg>
