<?xml version="1.0" encoding="utf-8"?>
<!-- Generator: Adobe Illustrator 21.0.0, SVG Export Plug-In . SVG Version: 6.00 Build 0)  -->
<svg version="1.1" id="Layer_1" xmlns="http://www.w3.org/2000/svg" xmlns:xlink="http://www.w3.org/1999/xlink" x="0px" y="0px"
	 viewBox="0 0 310.5 247.7" enable-background="new 0 0 310.5 247.7" xml:space="preserve">
<g id="Group_8118" transform="translate(-8621 -2596)">
	
		<linearGradient id="Path_6241_1_" gradientUnits="userSpaceOnUse" x1="8502.9971" y1="3107.8049" x2="8502.9844" y2="3109.0779" gradientTransform="matrix(284.3767 34.9171 26.1209 -212.7378 -2490472.75 367115.0938)">
		<stop  offset="0" style="stop-color:#C6E6FF"/>
		<stop  offset="1" style="stop-color:#FFFFFF"/>
	</linearGradient>
	<path id="Path_6241" fill="url(#Path_6241_1_)" d="M8767.7,2630.3c-37,13.4-75,13.3-75,13.3s-69.9,11-57,78s15.5,89,47.9,94.7
		c30.8,4.7,41.6-6,71.9,0c26.6,5.4,69,7.7,116-4.5C8947.3,2788.9,8946.5,2566.6,8767.7,2630.3z"/>
	<g id="Group_8089" transform="translate(3.743 -297)">
		<g id="Group_8048" transform="translate(-76 145.645)">
			<path id="Path_4233" opacity="0.576" fill="#C6E6FF" enable-background="new    " d="M8985.6,2796.9c-9,5.8-27.3-7.7-41.2,5.8
				c-13.9,13.6-19.4-10.7-37.1-11.5c-17.7-0.8,27-32.7,55.1-15.9c7.3,4.4,29.6-1.2,33.1,1.4
				C9005.2,2783.5,8994.6,2791.2,8985.6,2796.9z"/>
			<path id="Path_4234" opacity="0.435" fill="#C6E6FF" enable-background="new    " d="M8787,2890.7c-9-7.5-30.7,4.8-43.9-11.8
				c-13.2-16.6-22.5,9-41.8,7.6c-19.3-1.5,21,45.6,53.7,31.1c8.5-3.8,27.8-3.4,32-5.7C8798.4,2905.7,8795.9,2898.1,8787,2890.7z"/>
		</g>
	</g>
	
		<linearGradient id="Ellipse_1407_1_" gradientUnits="userSpaceOnUse" x1="8511.3193" y1="3033.8213" x2="8511.3193" y2="3031.8174" gradientTransform="matrix(219.644 0 0 -33.286 -1860684.25 103716.6563)">
		<stop  offset="0" style="stop-color:#288ED9"/>
		<stop  offset="1" style="stop-color:#137FCF;stop-opacity:5.100000e-02"/>
	</linearGradient>
	<ellipse id="Ellipse_1407" fill="url(#Ellipse_1407_1_)" cx="8775.8" cy="2782.9" rx="109.8" ry="16.6"/>
	<g id="Group_8110" transform="translate(13233.885 20920.955)">
		<g id="Group_6208" transform="translate(-13125.885 -20790.027)">
			<g id="Group_5583" transform="translate(0 0)">
				<g id="Group_5582" transform="translate(0 0)">
					<g id="Group_5581">
						<rect id="Rectangle_1567" x="8601.3" y="2555.9" fill="#005B9F" width="85" height="9.5"/>
						<g id="Group_104" transform="translate(39.568 10.164)">
							<path id="Rectangle_1405" fill="#288ED9" d="M8597.1,2531.1L8597.1,2531.1c0.6,0,1.1,0.5,1.1,1.1v0c0,0.6-0.5,1.1-1.1,1.1h0
								c-0.6,0-1.1-0.5-1.1-1.1v0C8596,2531.6,8596.5,2531.1,8597.1,2531.1z"/>
							<path id="Rectangle_1424" fill="#288ED9" d="M8599.9,2535.6L8599.9,2535.6c0.6,0,1.1,0.5,1.1,1.1v0c0,0.6-0.5,1.1-1.1,1.1h0
								c-0.6,0-1.1-0.5-1.1-1.1v0C8598.7,2536.2,8599.2,2535.6,8599.9,2535.6z"/>
							<path id="Rectangle_1410" fill="#288ED9" d="M8619.8,2531.1L8619.8,2531.1c0.6,0,1.1,0.5,1.1,1.1v0c0,0.6-0.5,1.1-1.1,1.1h0
								c-0.6,0-1.1-0.5-1.1-1.1v0C8618.7,2531.6,8619.2,2531.1,8619.8,2531.1z"/>
							<path id="Rectangle_1419" fill="#288ED9" d="M8622.5,2535.6L8622.5,2535.6c0.6,0,1.1,0.5,1.1,1.1v0c0,0.6-0.5,1.1-1.1,1.1h0
								c-0.6,0-1.1-0.5-1.1-1.1v0C8621.4,2536.2,8621.9,2535.6,8622.5,2535.6z"/>
							<path id="Rectangle_1406" fill="#288ED9" d="M8601.7,2531.1L8601.7,2531.1c0.6,0,1.1,0.5,1.1,1.1v0c0,0.6-0.5,1.1-1.1,1.1h0
								c-0.6,0-1.1-0.5-1.1-1.1v0C8600.5,2531.6,8601,2531.1,8601.7,2531.1z"/>
							<path id="Rectangle_1423" fill="#288ED9" d="M8604.4,2535.6L8604.4,2535.6c0.6,0,1.1,0.5,1.1,1.1v0c0,0.6-0.5,1.1-1.1,1.1h0
								c-0.6,0-1.1-0.5-1.1-1.1v0C8603.3,2536.2,8603.8,2535.6,8604.4,2535.6z"/>
							<path id="Rectangle_1411" fill="#288ED9" d="M8624.4,2531.1L8624.4,2531.1c0.6,0,1.1,0.5,1.1,1.1v0c0,0.6-0.5,1.1-1.1,1.1h0
								c-0.6,0-1.1-0.5-1.1-1.1v0C8623.2,2531.6,8623.7,2531.1,8624.4,2531.1z"/>
							<path id="Rectangle_1418" fill="#288ED9" d="M8627.1,2535.6L8627.1,2535.6c0.6,0,1.1,0.5,1.1,1.1v0c0,0.6-0.5,1.1-1.1,1.1h0
								c-0.6,0-1.1-0.5-1.1-1.1v0C8625.9,2536.2,8626.5,2535.6,8627.1,2535.6z"/>
							<path id="Rectangle_1407" fill="#288ED9" d="M8606.2,2531.1L8606.2,2531.1c0.6,0,1.1,0.5,1.1,1.1v0c0,0.6-0.5,1.1-1.1,1.1h0
								c-0.6,0-1.1-0.5-1.1-1.1v0C8605.1,2531.6,8605.6,2531.1,8606.2,2531.1z"/>
							<path id="Rectangle_1422" fill="#288ED9" d="M8608.9,2535.6L8608.9,2535.6c0.6,0,1.1,0.5,1.1,1.1v0c0,0.6-0.5,1.1-1.1,1.1h0
								c-0.6,0-1.1-0.5-1.1-1.1v0C8607.8,2536.2,8608.3,2535.6,8608.9,2535.6z"/>
							<path id="Rectangle_1412" fill="#288ED9" d="M8628.9,2531.1L8628.9,2531.1c0.6,0,1.1,0.5,1.1,1.1v0c0,0.6-0.5,1.1-1.1,1.1h0
								c-0.6,0-1.1-0.5-1.1-1.1v0C8627.8,2531.6,8628.3,2531.1,8628.9,2531.1z"/>
							<path id="Rectangle_1417" fill="#288ED9" d="M8631.6,2535.6L8631.6,2535.6c0.6,0,1.1,0.5,1.1,1.1v0c0,0.6-0.5,1.1-1.1,1.1h0
								c-0.6,0-1.1-0.5-1.1-1.1v0C8630.5,2536.2,8631,2535.6,8631.6,2535.6z"/>
							<path id="Rectangle_1408" fill="#288ED9" d="M8610.7,2531.1L8610.7,2531.1c0.6,0,1.1,0.5,1.1,1.1v0c0,0.6-0.5,1.1-1.1,1.1h0
								c-0.6,0-1.1-0.5-1.1-1.1v0C8609.6,2531.6,8610.1,2531.1,8610.7,2531.1z"/>
							<path id="Rectangle_1421" fill="#288ED9" d="M8613.5,2535.6L8613.5,2535.6c0.6,0,1.1,0.5,1.1,1.1v0c0,0.6-0.5,1.1-1.1,1.1h0
								c-0.6,0-1.1-0.5-1.1-1.1v0C8612.3,2536.2,8612.8,2535.6,8613.5,2535.6z"/>
							<path id="Rectangle_1413" fill="#288ED9" d="M8633.4,2531.1L8633.4,2531.1c0.6,0,1.1,0.5,1.1,1.1v0c0,0.6-0.5,1.1-1.1,1.1h0
								c-0.6,0-1.1-0.5-1.1-1.1v0C8632.3,2531.6,8632.8,2531.1,8633.4,2531.1z"/>
							<path id="Rectangle_1416" fill="#288ED9" d="M8636.2,2535.6L8636.2,2535.6c0.6,0,1.1,0.5,1.1,1.1v0c0,0.6-0.5,1.1-1.1,1.1h0
								c-0.6,0-1.1-0.5-1.1-1.1v0C8635,2536.2,8635.5,2535.6,8636.2,2535.6z"/>
							<path id="Rectangle_1409" fill="#288ED9" d="M8615.3,2531.1L8615.3,2531.1c0.6,0,1.1,0.5,1.1,1.1v0c0,0.6-0.5,1.1-1.1,1.1h0
								c-0.6,0-1.1-0.5-1.1-1.1v0C8614.2,2531.6,8614.7,2531.1,8615.3,2531.1z"/>
							<path id="Rectangle_1420" fill="#288ED9" d="M8618,2535.6L8618,2535.6c0.6,0,1.1,0.5,1.1,1.1v0c0,0.6-0.5,1.1-1.1,1.1h0
								c-0.6,0-1.1-0.5-1.1-1.1v0C8616.9,2536.2,8617.4,2535.6,8618,2535.6z"/>
							<path id="Rectangle_1414" fill="#288ED9" d="M8638,2531.1L8638,2531.1c0.6,0,1.1,0.5,1.1,1.1v0c0,0.6-0.5,1.1-1.1,1.1h0
								c-0.6,0-1.1-0.5-1.1-1.1v0C8636.8,2531.6,8637.3,2531.1,8638,2531.1z"/>
							<path id="Rectangle_1415" fill="#288ED9" d="M8640.7,2535.6L8640.7,2535.6c0.6,0,1.1,0.5,1.1,1.1v0c0,0.6-0.5,1.1-1.1,1.1h0
								c-0.6,0-1.1-0.5-1.1-1.1v0C8639.6,2536.2,8640.1,2535.6,8640.7,2535.6z"/>
						</g>
						<path id="Rectangle_1634" fill="#2086D1" d="M8601,2531.1h85.3c2.8,0,5,2.2,5,5v16.7c0,2.8-2.2,5-5,5H8601c-2.8,0-5-2.2-5-5
							v-16.7C8596,2533.3,8598.2,2531.1,8601,2531.1z"/>
						<g id="Group_113" transform="translate(9.62 10.164)">
							<g id="Rectangle_1635" transform="translate(0 0)">
								<path fill="#21E2E2" d="M8599.5,2531.1L8599.5,2531.1c1.9,0,3.5,1.6,3.5,3.5v0.3c0,1.9-1.6,3.5-3.5,3.5l0,0
									c-1.9,0-3.5-1.6-3.5-3.5v-0.3C8596,2532.7,8597.6,2531.1,8599.5,2531.1z"/>
								<path fill="none" stroke="#137FCF" stroke-width="2" d="M8599.5,2532.1L8599.5,2532.1c1.4,0,2.5,1.1,2.5,2.5v0.3
									c0,1.4-1.1,2.5-2.5,2.5l0,0c-1.4,0-2.5-1.1-2.5-2.5v-0.3C8597,2533.2,8598.1,2532.1,8599.5,2532.1z"/>
							</g>
							<g id="Rectangle_1636" transform="translate(10.164 0)">
								<path fill="#FFBC98" d="M8599.5,2531.1L8599.5,2531.1c1.9,0,3.5,1.6,3.5,3.5v0.3c0,1.9-1.6,3.5-3.5,3.5l0,0
									c-1.9,0-3.5-1.6-3.5-3.5v-0.3C8596,2532.7,8597.6,2531.1,8599.5,2531.1z"/>
								<path fill="none" stroke="#137FCF" stroke-width="2" d="M8599.5,2532.1L8599.5,2532.1c1.4,0,2.5,1.1,2.5,2.5v0.3
									c0,1.4-1.1,2.5-2.5,2.5l0,0c-1.4,0-2.5-1.1-2.5-2.5v-0.3C8597,2533.2,8598.1,2532.1,8599.5,2532.1z"/>
							</g>
						</g>
						<path id="Rectangle_1640" fill="#1266A5" d="M8599,2531.1h31.9l0,0v26.7l0,0H8599c-1.7,0-3-1.3-3-3v-20.7
							C8596,2532.4,8597.3,2531.1,8599,2531.1z"/>
					</g>
				</g>
			</g>
			<g id="Group_5586" transform="translate(41.571 7.802)">
				<g id="Group_5584" transform="translate(0 0)">
					<path id="Rectangle_1405-2" fill="#379CE6" d="M8597.9,2531.1L8597.9,2531.1c1,0,1.9,0.8,1.9,1.9v0c0,1-0.8,1.9-1.9,1.9h0
						c-1,0-1.9-0.8-1.9-1.9v0C8596,2531.9,8596.8,2531.1,8597.9,2531.1z"/>
					<path id="Rectangle_1424-2" fill="#379CE6" d="M8602.4,2538.6L8602.4,2538.6c1,0,1.9,0.8,1.9,1.9v0c0,1-0.8,1.9-1.9,1.9h0
						c-1,0-1.9-0.8-1.9-1.9v0C8600.5,2539.5,8601.3,2538.6,8602.4,2538.6z"/>
					<path id="Rectangle_1410-2" fill="#379CE6" d="M8635.4,2531.1L8635.4,2531.1c1,0,1.9,0.8,1.9,1.9v0c0,1-0.8,1.9-1.9,1.9h0
						c-1,0-1.9-0.8-1.9-1.9v0C8633.6,2531.9,8634.4,2531.1,8635.4,2531.1z"/>
					<path id="Rectangle_1419-2" fill="#379CE6" d="M8640,2538.6L8640,2538.6c1,0,1.9,0.8,1.9,1.9v0c0,1-0.8,1.9-1.9,1.9h0
						c-1,0-1.9-0.8-1.9-1.9v0C8638.1,2539.5,8638.9,2538.6,8640,2538.6z"/>
					<path id="Rectangle_1406-2" fill="#379CE6" d="M8605.4,2531.1L8605.4,2531.1c1,0,1.9,0.8,1.9,1.9v0c0,1-0.8,1.9-1.9,1.9h0
						c-1,0-1.9-0.8-1.9-1.9v0C8603.5,2531.9,8604.4,2531.1,8605.4,2531.1z"/>
					<path id="Rectangle_1423-2" fill="#379CE6" d="M8609.9,2538.6L8609.9,2538.6c1,0,1.9,0.8,1.9,1.9v0c0,1-0.8,1.9-1.9,1.9h0
						c-1,0-1.9-0.8-1.9-1.9v0C8608,2539.5,8608.9,2538.6,8609.9,2538.6z"/>
					<path id="Rectangle_1407-2" fill="#379CE6" d="M8612.9,2531.1L8612.9,2531.1c1,0,1.9,0.8,1.9,1.9v0c0,1-0.8,1.9-1.9,1.9h0
						c-1,0-1.9-0.8-1.9-1.9v0C8611,2531.9,8611.9,2531.1,8612.9,2531.1z"/>
					<path id="Rectangle_1422-2" fill="#379CE6" d="M8617.4,2538.6L8617.4,2538.6c1,0,1.9,0.8,1.9,1.9v0c0,1-0.8,1.9-1.9,1.9h0
						c-1,0-1.9-0.8-1.9-1.9v0C8615.5,2539.5,8616.4,2538.6,8617.4,2538.6z"/>
					<path id="Rectangle_1408-2" fill="#379CE6" d="M8620.4,2531.1L8620.4,2531.1c1,0,1.9,0.8,1.9,1.9v0c0,1-0.8,1.9-1.9,1.9h0
						c-1,0-1.9-0.8-1.9-1.9v0C8618.5,2531.9,8619.4,2531.1,8620.4,2531.1z"/>
					<path id="Rectangle_1421-2" fill="#379CE6" d="M8624.9,2538.6L8624.9,2538.6c1,0,1.9,0.8,1.9,1.9v0c0,1-0.8,1.9-1.9,1.9h0
						c-1,0-1.9-0.8-1.9-1.9v0C8623,2539.5,8623.9,2538.6,8624.9,2538.6z"/>
					<path id="Rectangle_1409-2" fill="#379CE6" d="M8627.9,2531.1L8627.9,2531.1c1,0,1.9,0.8,1.9,1.9v0c0,1-0.8,1.9-1.9,1.9h0
						c-1,0-1.9-0.8-1.9-1.9v0C8626.1,2531.9,8626.9,2531.1,8627.9,2531.1z"/>
					<path id="Rectangle_1420-2" fill="#379CE6" d="M8632.4,2538.6L8632.4,2538.6c1,0,1.9,0.8,1.9,1.9v0c0,1-0.8,1.9-1.9,1.9h0
						c-1,0-1.9-0.8-1.9-1.9v0C8630.6,2539.5,8631.4,2538.6,8632.4,2538.6z"/>
				</g>
			</g>
		</g>
		<g id="Group_6209" transform="translate(-13125.885 -20778.66)">
			<g id="Group_5583-2" transform="translate(0 0)">
				<g id="Group_5582-2" transform="translate(0)">
					<g id="Group_5581-2">
						<rect id="Rectangle_1565" x="8601.3" y="2577.6" fill="#005B9F" width="85" height="8.3"/>
						<path id="Path_3764" fill="#2086D1" d="M8599.2,2552.2h88.9c1.8,0,3.2,1.4,3.2,3.2c0,0,0,0,0,0v20.3c0,1.8-1.4,3.2-3.2,3.2
							l0,0h-88.9c-1.8,0-3.2-1.4-3.2-3.2c0,0,0,0,0,0v-20.3C8596,2553.6,8597.4,2552.2,8599.2,2552.2z"/>
						<path id="Path_5064" fill="#005B9F" d="M8601.3,2608.7h85v9.5h-85V2608.7z"/>
						<g id="Group_104-2" transform="translate(39.568 62.992)">
							<path id="Rectangle_1405-3" fill="#288ED9" d="M8597.1,2531.1L8597.1,2531.1c0.6,0,1.1,0.5,1.1,1.1v0c0,0.6-0.5,1.1-1.1,1.1
								h0c-0.6,0-1.1-0.5-1.1-1.1v0C8596,2531.6,8596.5,2531.1,8597.1,2531.1z"/>
							<path id="Rectangle_1424-3" fill="#288ED9" d="M8599.9,2535.6L8599.9,2535.6c0.6,0,1.1,0.5,1.1,1.1v0c0,0.6-0.5,1.1-1.1,1.1
								h0c-0.6,0-1.1-0.5-1.1-1.1v0C8598.7,2536.2,8599.2,2535.6,8599.9,2535.6z"/>
							<path id="Rectangle_1410-3" fill="#288ED9" d="M8619.8,2531.1L8619.8,2531.1c0.6,0,1.1,0.5,1.1,1.1v0c0,0.6-0.5,1.1-1.1,1.1
								h0c-0.6,0-1.1-0.5-1.1-1.1v0C8618.7,2531.6,8619.2,2531.1,8619.8,2531.1z"/>
							<path id="Rectangle_1419-3" fill="#288ED9" d="M8622.5,2535.6L8622.5,2535.6c0.6,0,1.1,0.5,1.1,1.1v0c0,0.6-0.5,1.1-1.1,1.1
								h0c-0.6,0-1.1-0.5-1.1-1.1v0C8621.4,2536.2,8621.9,2535.6,8622.5,2535.6z"/>
							<path id="Rectangle_1406-3" fill="#288ED9" d="M8601.7,2531.1L8601.7,2531.1c0.6,0,1.1,0.5,1.1,1.1v0c0,0.6-0.5,1.1-1.1,1.1
								h0c-0.6,0-1.1-0.5-1.1-1.1v0C8600.5,2531.6,8601,2531.1,8601.7,2531.1z"/>
							<path id="Rectangle_1423-3" fill="#288ED9" d="M8604.4,2535.6L8604.4,2535.6c0.6,0,1.1,0.5,1.1,1.1v0c0,0.6-0.5,1.1-1.1,1.1
								h0c-0.6,0-1.1-0.5-1.1-1.1v0C8603.3,2536.2,8603.8,2535.6,8604.4,2535.6z"/>
							<path id="Rectangle_1411-2" fill="#288ED9" d="M8624.4,2531.1L8624.4,2531.1c0.6,0,1.1,0.5,1.1,1.1v0c0,0.6-0.5,1.1-1.1,1.1
								h0c-0.6,0-1.1-0.5-1.1-1.1v0C8623.2,2531.6,8623.7,2531.1,8624.4,2531.1z"/>
							<path id="Rectangle_1418-2" fill="#288ED9" d="M8627.1,2535.6L8627.1,2535.6c0.6,0,1.1,0.5,1.1,1.1v0c0,0.6-0.5,1.1-1.1,1.1
								h0c-0.6,0-1.1-0.5-1.1-1.1v0C8625.9,2536.2,8626.5,2535.6,8627.1,2535.6z"/>
							<path id="Rectangle_1407-3" fill="#288ED9" d="M8606.2,2531.1L8606.2,2531.1c0.6,0,1.1,0.5,1.1,1.1v0c0,0.6-0.5,1.1-1.1,1.1
								h0c-0.6,0-1.1-0.5-1.1-1.1v0C8605.1,2531.6,8605.6,2531.1,8606.2,2531.1z"/>
							<path id="Rectangle_1422-3" fill="#288ED9" d="M8608.9,2535.6L8608.9,2535.6c0.6,0,1.1,0.5,1.1,1.1v0c0,0.6-0.5,1.1-1.1,1.1
								h0c-0.6,0-1.1-0.5-1.1-1.1v0C8607.8,2536.2,8608.3,2535.6,8608.9,2535.6z"/>
							<path id="Rectangle_1412-2" fill="#288ED9" d="M8628.9,2531.1L8628.9,2531.1c0.6,0,1.1,0.5,1.1,1.1v0c0,0.6-0.5,1.1-1.1,1.1
								h0c-0.6,0-1.1-0.5-1.1-1.1v0C8627.8,2531.6,8628.3,2531.1,8628.9,2531.1z"/>
							<path id="Rectangle_1417-2" fill="#288ED9" d="M8631.6,2535.6L8631.6,2535.6c0.6,0,1.1,0.5,1.1,1.1v0c0,0.6-0.5,1.1-1.1,1.1
								h0c-0.6,0-1.1-0.5-1.1-1.1v0C8630.5,2536.2,8631,2535.6,8631.6,2535.6z"/>
							<path id="Rectangle_1408-3" fill="#288ED9" d="M8610.7,2531.1L8610.7,2531.1c0.6,0,1.1,0.5,1.1,1.1v0c0,0.6-0.5,1.1-1.1,1.1
								h0c-0.6,0-1.1-0.5-1.1-1.1v0C8609.6,2531.6,8610.1,2531.1,8610.7,2531.1z"/>
							<path id="Rectangle_1421-3" fill="#288ED9" d="M8613.5,2535.6L8613.5,2535.6c0.6,0,1.1,0.5,1.1,1.1v0c0,0.6-0.5,1.1-1.1,1.1
								h0c-0.6,0-1.1-0.5-1.1-1.1v0C8612.3,2536.2,8612.8,2535.6,8613.5,2535.6z"/>
							<path id="Rectangle_1413-2" fill="#288ED9" d="M8633.4,2531.1L8633.4,2531.1c0.6,0,1.1,0.5,1.1,1.1v0c0,0.6-0.5,1.1-1.1,1.1
								h0c-0.6,0-1.1-0.5-1.1-1.1v0C8632.3,2531.6,8632.8,2531.1,8633.4,2531.1z"/>
							<path id="Rectangle_1416-2" fill="#288ED9" d="M8636.2,2535.6L8636.2,2535.6c0.6,0,1.1,0.5,1.1,1.1v0c0,0.6-0.5,1.1-1.1,1.1
								h0c-0.6,0-1.1-0.5-1.1-1.1v0C8635,2536.2,8635.5,2535.6,8636.2,2535.6z"/>
							<path id="Rectangle_1409-3" fill="#288ED9" d="M8615.3,2531.1L8615.3,2531.1c0.6,0,1.1,0.5,1.1,1.1v0c0,0.6-0.5,1.1-1.1,1.1
								h0c-0.6,0-1.1-0.5-1.1-1.1v0C8614.2,2531.6,8614.7,2531.1,8615.3,2531.1z"/>
							<path id="Rectangle_1420-3" fill="#288ED9" d="M8618,2535.6L8618,2535.6c0.6,0,1.1,0.5,1.1,1.1v0c0,0.6-0.5,1.1-1.1,1.1h0
								c-0.6,0-1.1-0.5-1.1-1.1v0C8616.9,2536.2,8617.4,2535.6,8618,2535.6z"/>
							<path id="Rectangle_1414-2" fill="#288ED9" d="M8638,2531.1L8638,2531.1c0.6,0,1.1,0.5,1.1,1.1v0c0,0.6-0.5,1.1-1.1,1.1h0
								c-0.6,0-1.1-0.5-1.1-1.1v0C8636.8,2531.6,8637.3,2531.1,8638,2531.1z"/>
							<path id="Rectangle_1415-2" fill="#288ED9" d="M8640.7,2535.6L8640.7,2535.6c0.6,0,1.1,0.5,1.1,1.1v0c0,0.6-0.5,1.1-1.1,1.1
								h0c-0.6,0-1.1-0.5-1.1-1.1v0C8639.6,2536.2,8640.1,2535.6,8640.7,2535.6z"/>
						</g>
						<path id="Rectangle_1639" fill="#0E71BB" d="M8599,2552.2h31.9l0,0v26.7l0,0H8599c-1.7,0-3-1.3-3-3v-20.7
							C8596,2553.5,8597.3,2552.2,8599,2552.2z"/>
						<path id="Path_5062" fill="#2086D1" d="M8600.8,2583.9h85.7c2.6,0,4.8,2.1,4.8,4.8v17.1c0,2.6-2.1,4.8-4.8,4.8h-85.7
							c-2.6,0-4.8-2.1-4.8-4.8v-17.1C8596,2586.1,8598.1,2583.9,8600.8,2583.9z"/>
						<g id="Group_113-2" transform="translate(9.62 62.992)">
							<g id="Rectangle_1635-2" transform="translate(0 0)">
								<path fill="#21E2E2" d="M8599.5,2531.1L8599.5,2531.1c1.9,0,3.5,1.6,3.5,3.5v0.3c0,1.9-1.6,3.5-3.5,3.5l0,0
									c-1.9,0-3.5-1.6-3.5-3.5v-0.3C8596,2532.7,8597.6,2531.1,8599.5,2531.1z"/>
								<path fill="none" stroke="#137FCF" stroke-width="2" d="M8599.5,2532.1L8599.5,2532.1c1.4,0,2.5,1.1,2.5,2.5v0.3
									c0,1.4-1.1,2.5-2.5,2.5l0,0c-1.4,0-2.5-1.1-2.5-2.5v-0.3C8597,2533.2,8598.1,2532.1,8599.5,2532.1z"/>
							</g>
							<g id="Rectangle_1636-2" transform="translate(10.164 0)">
								<path fill="#FFBC98" d="M8599.5,2531.1L8599.5,2531.1c1.9,0,3.5,1.6,3.5,3.5v0.3c0,1.9-1.6,3.5-3.5,3.5l0,0
									c-1.9,0-3.5-1.6-3.5-3.5v-0.3C8596,2532.7,8597.6,2531.1,8599.5,2531.1z"/>
								<path fill="none" stroke="#137FCF" stroke-width="2" d="M8599.5,2532.1L8599.5,2532.1c1.4,0,2.5,1.1,2.5,2.5v0.3
									c0,1.4-1.1,2.5-2.5,2.5l0,0c-1.4,0-2.5-1.1-2.5-2.5v-0.3C8597,2533.2,8598.1,2532.1,8599.5,2532.1z"/>
							</g>
						</g>
						<path id="Path_5063" fill="#2086D1" d="M8600.8,2615.7h85.7c2.6,0,4.8,2.1,4.8,4.8v17.1c0,2.6-2.1,4.8-4.8,4.8h-85.7
							c-2.6,0-4.8-2.1-4.8-4.8v-17.1C8596,2617.8,8598.1,2615.7,8600.8,2615.7z"/>
						<path id="Path_5068" fill="#0E71BB" d="M8598.9,2583.9h32.1v26.7h-32.1c-1.6,0-2.9-1.3-2.9-2.9c0,0,0,0,0,0v-20.9
							C8596,2585.2,8597.3,2583.9,8598.9,2583.9C8598.9,2583.9,8598.9,2583.9,8598.9,2583.9z"/>
						<path id="Rectangle_1425" fill="#21E2E2" d="M8610.1,2562.7L8610.1,2562.7c1.4,0,2.5,1.1,2.5,2.5v0.2c0,1.4-1.1,2.5-2.5,2.5h0
							c-1.4,0-2.5-1.1-2.5-2.5v-0.2C8607.5,2563.9,8608.7,2562.7,8610.1,2562.7z"/>
						<path id="Rectangle_1442" fill="#FFBC98" d="M8617.5,2562.7L8617.5,2562.7c1.4,0,2.5,1.1,2.5,2.5v0.2c0,1.4-1.1,2.5-2.5,2.5h0
							c-1.4,0-2.5-1.1-2.5-2.5v-0.2C8614.9,2563.9,8616.1,2562.7,8617.5,2562.7z"/>
						<path id="Rectangle_2387" fill="#21E2E2" d="M8610.1,2595.3L8610.1,2595.3c1.4,0,2.5,1.1,2.5,2.5v0.2c0,1.4-1.1,2.5-2.5,2.5h0
							c-1.4,0-2.5-1.1-2.5-2.5v-0.2C8607.5,2596.4,8608.7,2595.3,8610.1,2595.3z"/>
						<path id="Rectangle_2388" fill="#FFBC98" d="M8617.5,2595.3L8617.5,2595.3c1.4,0,2.5,1.1,2.5,2.5v0.2c0,1.4-1.1,2.5-2.5,2.5h0
							c-1.4,0-2.5-1.1-2.5-2.5v-0.2C8614.9,2596.4,8616.1,2595.3,8617.5,2595.3z"/>
						<path id="Rectangle_2389" fill="#21E2E2" d="M8610.1,2531.1L8610.1,2531.1c1.4,0,2.5,1.1,2.5,2.5v0.2c0,1.4-1.1,2.5-2.5,2.5h0
							c-1.4,0-2.5-1.1-2.5-2.5v-0.2C8607.5,2532.2,8608.7,2531.1,8610.1,2531.1z"/>
						<path id="Rectangle_2390" fill="#FFBC98" d="M8617.5,2531.1L8617.5,2531.1c1.4,0,2.5,1.1,2.5,2.5v0.2c0,1.4-1.1,2.5-2.5,2.5h0
							c-1.4,0-2.5-1.1-2.5-2.5v-0.2C8614.9,2532.2,8616.1,2531.1,8617.5,2531.1z"/>
						<path id="Path_5397" fill="#0E71BB" d="M8598.9,2615.7h32.1v26.7h-32.1c-1.6,0-2.9-1.3-2.9-2.9c0,0,0,0,0,0v-20.9
							C8596,2617,8597.3,2615.7,8598.9,2615.7C8598.9,2615.7,8598.9,2615.7,8598.9,2615.7z"/>
						<path id="Rectangle_2491" fill="#21E2E2" d="M8610.1,2626.8L8610.1,2626.8c1.4,0,2.5,1.1,2.5,2.5v0.2c0,1.4-1.1,2.5-2.5,2.5h0
							c-1.4,0-2.5-1.1-2.5-2.5v-0.2C8607.5,2627.9,8608.7,2626.8,8610.1,2626.8z"/>
						<path id="Rectangle_2492" fill="#FFBC98" d="M8617.5,2626.8L8617.5,2626.8c1.4,0,2.5,1.1,2.5,2.5v0.2c0,1.4-1.1,2.5-2.5,2.5h0
							c-1.4,0-2.5-1.1-2.5-2.5v-0.2C8614.9,2627.9,8616.1,2626.8,8617.5,2626.8z"/>
					</g>
				</g>
			</g>
		</g>
		<g id="Group_6210" transform="translate(-13084.313 -20685.678)">
			<g id="Group_5584-2" transform="translate(0 0)">
				<path id="Rectangle_1405-4" fill="#379CE6" d="M8597.9,2531.1L8597.9,2531.1c1,0,1.9,0.8,1.9,1.9v0c0,1-0.8,1.9-1.9,1.9h0
					c-1,0-1.9-0.8-1.9-1.9v0C8596,2531.9,8596.8,2531.1,8597.9,2531.1z"/>
				<path id="Rectangle_1424-4" fill="#379CE6" d="M8602.4,2538.6L8602.4,2538.6c1,0,1.9,0.8,1.9,1.9v0c0,1-0.8,1.9-1.9,1.9h0
					c-1,0-1.9-0.8-1.9-1.9v0C8600.5,2539.5,8601.3,2538.6,8602.4,2538.6z"/>
				<path id="Rectangle_1410-4" fill="#379CE6" d="M8635.4,2531.1L8635.4,2531.1c1,0,1.9,0.8,1.9,1.9v0c0,1-0.8,1.9-1.9,1.9h0
					c-1,0-1.9-0.8-1.9-1.9v0C8633.6,2531.9,8634.4,2531.1,8635.4,2531.1z"/>
				<path id="Rectangle_1419-4" fill="#379CE6" d="M8640,2538.6L8640,2538.6c1,0,1.9,0.8,1.9,1.9v0c0,1-0.8,1.9-1.9,1.9h0
					c-1,0-1.9-0.8-1.9-1.9v0C8638.1,2539.5,8638.9,2538.6,8640,2538.6z"/>
				<path id="Rectangle_1406-4" fill="#379CE6" d="M8605.4,2531.1L8605.4,2531.1c1,0,1.9,0.8,1.9,1.9v0c0,1-0.8,1.9-1.9,1.9h0
					c-1,0-1.9-0.8-1.9-1.9v0C8603.5,2531.9,8604.4,2531.1,8605.4,2531.1z"/>
				<path id="Rectangle_1423-4" fill="#379CE6" d="M8609.9,2538.6L8609.9,2538.6c1,0,1.9,0.8,1.9,1.9v0c0,1-0.8,1.9-1.9,1.9h0
					c-1,0-1.9-0.8-1.9-1.9v0C8608,2539.5,8608.9,2538.6,8609.9,2538.6z"/>
				<path id="Rectangle_1407-4" fill="#379CE6" d="M8612.9,2531.1L8612.9,2531.1c1,0,1.9,0.8,1.9,1.9v0c0,1-0.8,1.9-1.9,1.9h0
					c-1,0-1.9-0.8-1.9-1.9v0C8611,2531.9,8611.9,2531.1,8612.9,2531.1z"/>
				<path id="Rectangle_1422-4" fill="#379CE6" d="M8617.4,2538.6L8617.4,2538.6c1,0,1.9,0.8,1.9,1.9v0c0,1-0.8,1.9-1.9,1.9h0
					c-1,0-1.9-0.8-1.9-1.9v0C8615.5,2539.5,8616.4,2538.6,8617.4,2538.6z"/>
				<path id="Rectangle_1408-4" fill="#379CE6" d="M8620.4,2531.1L8620.4,2531.1c1,0,1.9,0.8,1.9,1.9v0c0,1-0.8,1.9-1.9,1.9h0
					c-1,0-1.9-0.8-1.9-1.9v0C8618.5,2531.9,8619.4,2531.1,8620.4,2531.1z"/>
				<path id="Rectangle_1421-4" fill="#379CE6" d="M8624.9,2538.6L8624.9,2538.6c1,0,1.9,0.8,1.9,1.9v0c0,1-0.8,1.9-1.9,1.9h0
					c-1,0-1.9-0.8-1.9-1.9v0C8623,2539.5,8623.9,2538.6,8624.9,2538.6z"/>
				<path id="Rectangle_1409-4" fill="#379CE6" d="M8627.9,2531.1L8627.9,2531.1c1,0,1.9,0.8,1.9,1.9v0c0,1-0.8,1.9-1.9,1.9h0
					c-1,0-1.9-0.8-1.9-1.9v0C8626.1,2531.9,8626.9,2531.1,8627.9,2531.1z"/>
				<path id="Rectangle_1420-4" fill="#379CE6" d="M8632.4,2538.6L8632.4,2538.6c1,0,1.9,0.8,1.9,1.9v0c0,1-0.8,1.9-1.9,1.9h0
					c-1,0-1.9-0.8-1.9-1.9v0C8630.6,2539.5,8631.4,2538.6,8632.4,2538.6z"/>
			</g>
		</g>
		<g id="Group_6211" transform="translate(-13084.313 -20717.859)">
			<g id="Group_5584-3" transform="translate(0 0)">
				<path id="Rectangle_1405-5" fill="#379CE6" d="M8597.9,2531.1L8597.9,2531.1c1,0,1.9,0.8,1.9,1.9v0c0,1-0.8,1.9-1.9,1.9h0
					c-1,0-1.9-0.8-1.9-1.9v0C8596,2531.9,8596.8,2531.1,8597.9,2531.1z"/>
				<path id="Rectangle_1424-5" fill="#379CE6" d="M8602.4,2538.6L8602.4,2538.6c1,0,1.9,0.8,1.9,1.9v0c0,1-0.8,1.9-1.9,1.9h0
					c-1,0-1.9-0.8-1.9-1.9v0C8600.5,2539.5,8601.3,2538.6,8602.4,2538.6z"/>
				<path id="Rectangle_1410-5" fill="#379CE6" d="M8635.4,2531.1L8635.4,2531.1c1,0,1.9,0.8,1.9,1.9v0c0,1-0.8,1.9-1.9,1.9h0
					c-1,0-1.9-0.8-1.9-1.9v0C8633.6,2531.9,8634.4,2531.1,8635.4,2531.1z"/>
				<path id="Rectangle_1419-5" fill="#379CE6" d="M8640,2538.6L8640,2538.6c1,0,1.9,0.8,1.9,1.9v0c0,1-0.8,1.9-1.9,1.9h0
					c-1,0-1.9-0.8-1.9-1.9v0C8638.1,2539.5,8638.9,2538.6,8640,2538.6z"/>
				<path id="Rectangle_1406-5" fill="#379CE6" d="M8605.4,2531.1L8605.4,2531.1c1,0,1.9,0.8,1.9,1.9v0c0,1-0.8,1.9-1.9,1.9h0
					c-1,0-1.9-0.8-1.9-1.9v0C8603.5,2531.9,8604.4,2531.1,8605.4,2531.1z"/>
				<path id="Rectangle_1423-5" fill="#379CE6" d="M8609.9,2538.6L8609.9,2538.6c1,0,1.9,0.8,1.9,1.9v0c0,1-0.8,1.9-1.9,1.9h0
					c-1,0-1.9-0.8-1.9-1.9v0C8608,2539.5,8608.9,2538.6,8609.9,2538.6z"/>
				<path id="Rectangle_1407-5" fill="#379CE6" d="M8612.9,2531.1L8612.9,2531.1c1,0,1.9,0.8,1.9,1.9v0c0,1-0.8,1.9-1.9,1.9h0
					c-1,0-1.9-0.8-1.9-1.9v0C8611,2531.9,8611.9,2531.1,8612.9,2531.1z"/>
				<path id="Rectangle_1422-5" fill="#379CE6" d="M8617.4,2538.6L8617.4,2538.6c1,0,1.9,0.8,1.9,1.9v0c0,1-0.8,1.9-1.9,1.9h0
					c-1,0-1.9-0.8-1.9-1.9v0C8615.5,2539.5,8616.4,2538.6,8617.4,2538.6z"/>
				<path id="Rectangle_1408-5" fill="#379CE6" d="M8620.4,2531.1L8620.4,2531.1c1,0,1.9,0.8,1.9,1.9v0c0,1-0.8,1.9-1.9,1.9h0
					c-1,0-1.9-0.8-1.9-1.9v0C8618.5,2531.9,8619.4,2531.1,8620.4,2531.1z"/>
				<path id="Rectangle_1421-5" fill="#379CE6" d="M8624.9,2538.6L8624.9,2538.6c1,0,1.9,0.8,1.9,1.9v0c0,1-0.8,1.9-1.9,1.9h0
					c-1,0-1.9-0.8-1.9-1.9v0C8623,2539.5,8623.9,2538.6,8624.9,2538.6z"/>
				<path id="Rectangle_1409-5" fill="#379CE6" d="M8627.9,2531.1L8627.9,2531.1c1,0,1.9,0.8,1.9,1.9v0c0,1-0.8,1.9-1.9,1.9h0
					c-1,0-1.9-0.8-1.9-1.9v0C8626.1,2531.9,8626.9,2531.1,8627.9,2531.1z"/>
				<path id="Rectangle_1420-5" fill="#379CE6" d="M8632.4,2538.6L8632.4,2538.6c1,0,1.9,0.8,1.9,1.9v0c0,1-0.8,1.9-1.9,1.9h0
					c-1,0-1.9-0.8-1.9-1.9v0C8630.6,2539.5,8631.4,2538.6,8632.4,2538.6z"/>
			</g>
		</g>
		<g id="Group_6212" transform="translate(-13084.313 -20750.65)">
			<g id="Group_5584-4" transform="translate(0 0)">
				<path id="Rectangle_1405-6" fill="#379CE6" d="M8597.9,2531.1L8597.9,2531.1c1,0,1.9,0.8,1.9,1.9v0c0,1-0.8,1.9-1.9,1.9h0
					c-1,0-1.9-0.8-1.9-1.9v0C8596,2531.9,8596.8,2531.1,8597.9,2531.1z"/>
				<path id="Rectangle_1424-6" fill="#379CE6" d="M8602.4,2538.6L8602.4,2538.6c1,0,1.9,0.8,1.9,1.9v0c0,1-0.8,1.9-1.9,1.9h0
					c-1,0-1.9-0.8-1.9-1.9v0C8600.5,2539.5,8601.3,2538.6,8602.4,2538.6z"/>
				<path id="Rectangle_1410-6" fill="#379CE6" d="M8635.4,2531.1L8635.4,2531.1c1,0,1.9,0.8,1.9,1.9v0c0,1-0.8,1.9-1.9,1.9h0
					c-1,0-1.9-0.8-1.9-1.9v0C8633.6,2531.9,8634.4,2531.1,8635.4,2531.1z"/>
				<path id="Rectangle_1419-6" fill="#379CE6" d="M8640,2538.6L8640,2538.6c1,0,1.9,0.8,1.9,1.9v0c0,1-0.8,1.9-1.9,1.9h0
					c-1,0-1.9-0.8-1.9-1.9v0C8638.1,2539.5,8638.9,2538.6,8640,2538.6z"/>
				<path id="Rectangle_1406-6" fill="#379CE6" d="M8605.4,2531.1L8605.4,2531.1c1,0,1.9,0.8,1.9,1.9v0c0,1-0.8,1.9-1.9,1.9h0
					c-1,0-1.9-0.8-1.9-1.9v0C8603.5,2531.9,8604.4,2531.1,8605.4,2531.1z"/>
				<path id="Rectangle_1423-6" fill="#379CE6" d="M8609.9,2538.6L8609.9,2538.6c1,0,1.9,0.8,1.9,1.9v0c0,1-0.8,1.9-1.9,1.9h0
					c-1,0-1.9-0.8-1.9-1.9v0C8608,2539.5,8608.9,2538.6,8609.9,2538.6z"/>
				<path id="Rectangle_1407-6" fill="#379CE6" d="M8612.9,2531.1L8612.9,2531.1c1,0,1.9,0.8,1.9,1.9v0c0,1-0.8,1.9-1.9,1.9h0
					c-1,0-1.9-0.8-1.9-1.9v0C8611,2531.9,8611.9,2531.1,8612.9,2531.1z"/>
				<path id="Rectangle_1422-6" fill="#379CE6" d="M8617.4,2538.6L8617.4,2538.6c1,0,1.9,0.8,1.9,1.9v0c0,1-0.8,1.9-1.9,1.9h0
					c-1,0-1.9-0.8-1.9-1.9v0C8615.5,2539.5,8616.4,2538.6,8617.4,2538.6z"/>
				<path id="Rectangle_1408-6" fill="#379CE6" d="M8620.4,2531.1L8620.4,2531.1c1,0,1.9,0.8,1.9,1.9v0c0,1-0.8,1.9-1.9,1.9h0
					c-1,0-1.9-0.8-1.9-1.9v0C8618.5,2531.9,8619.4,2531.1,8620.4,2531.1z"/>
				<path id="Rectangle_1421-6" fill="#379CE6" d="M8624.9,2538.6L8624.9,2538.6c1,0,1.9,0.8,1.9,1.9v0c0,1-0.8,1.9-1.9,1.9h0
					c-1,0-1.9-0.8-1.9-1.9v0C8623,2539.5,8623.9,2538.6,8624.9,2538.6z"/>
				<path id="Rectangle_1409-6" fill="#379CE6" d="M8627.9,2531.1L8627.9,2531.1c1,0,1.9,0.8,1.9,1.9v0c0,1-0.8,1.9-1.9,1.9h0
					c-1,0-1.9-0.8-1.9-1.9v0C8626.1,2531.9,8626.9,2531.1,8627.9,2531.1z"/>
				<path id="Rectangle_1420-6" fill="#379CE6" d="M8632.4,2538.6L8632.4,2538.6c1,0,1.9,0.8,1.9,1.9v0c0,1-0.8,1.9-1.9,1.9h0
					c-1,0-1.9-0.8-1.9-1.9v0C8630.6,2539.5,8631.4,2538.6,8632.4,2538.6z"/>
			</g>
		</g>
		<g id="Group_6213" transform="translate(-13084.541 -20763.887)">
			<g id="Group_5583-3" transform="translate(0)">
				<g id="Group_5582-3" transform="translate(0)">
					<g id="Group_5581-3" transform="translate(0)">
						<rect id="Rectangle_1565-2" x="8602.1" y="2558.6" fill="#164571" width="91.1" height="8.9"/>
						<path id="Path_3764-2" fill="#0E71BB" d="M8599.4,2531.1h96.3c1.9,0,3.4,1.5,3.4,3.4c0,0,0,0,0,0v22c0,1.9-1.5,3.4-3.4,3.4
							h-96.3c-1.9,0-3.4-1.5-3.4-3.4v-22C8596,2532.6,8597.5,2531.1,8599.4,2531.1C8599.4,2531.1,8599.4,2531.1,8599.4,2531.1z"/>
						<rect id="Rectangle_1567-2" x="8602.1" y="2592.3" fill="#164571" width="91.1" height="10.3"/>
						<path id="Rectangle_1631" fill="#005B9F" d="M8600,2531.1h33.8l0,0v28.9l0,0H8600c-2.2,0-4-1.8-4-4v-20.9
							C8596,2532.9,8597.8,2531.1,8600,2531.1z"/>
						<g id="Group_104-3" transform="translate(42.86 45.416)">
							<path id="Rectangle_1405-7" fill="#288ED9" d="M8597.2,2531.1L8597.2,2531.1c0.7,0,1.2,0.6,1.2,1.2l0,0
								c0,0.7-0.5,1.2-1.2,1.2l0,0c-0.7,0-1.2-0.6-1.2-1.2l0,0C8596,2531.7,8596.5,2531.1,8597.2,2531.1z"/>
							<path id="Rectangle_1424-7" fill="#288ED9" d="M8600.2,2536L8600.2,2536c0.7,0,1.2,0.6,1.2,1.2l0,0c0,0.7-0.6,1.2-1.2,1.2
								l0,0c-0.7,0-1.2-0.6-1.2-1.2l0,0C8598.9,2536.6,8599.5,2536,8600.2,2536z"/>
							<path id="Rectangle_1410-7" fill="#288ED9" d="M8621.8,2531.1L8621.8,2531.1c0.7,0,1.2,0.6,1.2,1.2l0,0
								c0,0.7-0.6,1.2-1.2,1.2l0,0c-0.7,0-1.2-0.6-1.2-1.2l0,0C8620.6,2531.7,8621.1,2531.1,8621.8,2531.1z"/>
							<path id="Rectangle_1419-7" fill="#288ED9" d="M8624.8,2536L8624.8,2536c0.7,0,1.2,0.6,1.2,1.2l0,0c0,0.7-0.6,1.2-1.2,1.2
								l0,0c-0.7,0-1.2-0.6-1.2-1.2l0,0C8623.5,2536.6,8624.1,2536,8624.8,2536z"/>
							<path id="Rectangle_1406-7" fill="#288ED9" d="M8602.1,2531.1L8602.1,2531.1c0.7,0,1.2,0.6,1.2,1.2l0,0
								c0,0.7-0.5,1.2-1.2,1.2l0,0c-0.7,0-1.2-0.6-1.2-1.2l0,0C8600.9,2531.7,8601.5,2531.1,8602.1,2531.1z"/>
							<path id="Rectangle_1423-7" fill="#288ED9" d="M8605.1,2536L8605.1,2536c0.7,0,1.2,0.6,1.2,1.2l0,0c0,0.7-0.6,1.2-1.2,1.2
								l0,0c-0.7,0-1.2-0.6-1.2-1.2l0,0C8603.9,2536.6,8604.4,2536,8605.1,2536z"/>
							<path id="Rectangle_1411-3" fill="#288ED9" d="M8626.7,2531.1L8626.7,2531.1c0.7,0,1.2,0.6,1.2,1.2l0,0
								c0,0.7-0.6,1.2-1.2,1.2l0,0c-0.7,0-1.2-0.6-1.2-1.2l0,0C8625.5,2531.7,8626,2531.1,8626.7,2531.1z"/>
							<path id="Rectangle_1418-3" fill="#288ED9" d="M8629.7,2536L8629.7,2536c0.7,0,1.2,0.6,1.2,1.2l0,0c0,0.7-0.6,1.2-1.2,1.2
								l0,0c-0.7,0-1.2-0.6-1.2-1.2l0,0C8628.4,2536.6,8629,2536,8629.7,2536z"/>
							<path id="Rectangle_1407-7" fill="#288ED9" d="M8607.1,2531.1L8607.1,2531.1c0.7,0,1.2,0.6,1.2,1.2l0,0
								c0,0.7-0.6,1.2-1.2,1.2l0,0c-0.7,0-1.2-0.6-1.2-1.2l0,0C8605.8,2531.7,8606.4,2531.1,8607.1,2531.1z"/>
							<path id="Rectangle_1422-7" fill="#288ED9" d="M8610,2536L8610,2536c0.7,0,1.2,0.6,1.2,1.2l0,0c0,0.7-0.6,1.2-1.2,1.2l0,0
								c-0.7,0-1.2-0.6-1.2-1.2l0,0C8608.8,2536.6,8609.3,2536,8610,2536z"/>
							<path id="Rectangle_1412-3" fill="#288ED9" d="M8631.6,2531.1L8631.6,2531.1c0.7,0,1.2,0.6,1.2,1.2l0,0
								c0,0.7-0.6,1.2-1.2,1.2l0,0c-0.7,0-1.2-0.6-1.2-1.2l0,0C8630.4,2531.7,8631,2531.1,8631.6,2531.1z"/>
							<path id="Rectangle_1417-3" fill="#288ED9" d="M8634.6,2536L8634.6,2536c0.7,0,1.2,0.6,1.2,1.2l0,0c0,0.7-0.6,1.2-1.2,1.2
								l0,0c-0.7,0-1.2-0.6-1.2-1.2l0,0C8633.4,2536.6,8633.9,2536,8634.6,2536z"/>
							<path id="Rectangle_1408-7" fill="#288ED9" d="M8612,2531.1L8612,2531.1c0.7,0,1.2,0.6,1.2,1.2l0,0c0,0.7-0.6,1.2-1.2,1.2
								l0,0c-0.7,0-1.2-0.6-1.2-1.2l0,0C8610.7,2531.7,8611.3,2531.1,8612,2531.1z"/>
							<path id="Rectangle_1421-7" fill="#288ED9" d="M8614.9,2536L8614.9,2536c0.7,0,1.2,0.6,1.2,1.2l0,0c0,0.7-0.6,1.2-1.2,1.2
								l0,0c-0.7,0-1.2-0.6-1.2-1.2l0,0C8613.7,2536.6,8614.2,2536,8614.9,2536z"/>
							<path id="Rectangle_1413-3" fill="#288ED9" d="M8636.5,2531.1L8636.5,2531.1c0.7,0,1.2,0.6,1.2,1.2l0,0
								c0,0.7-0.6,1.2-1.2,1.2l0,0c-0.7,0-1.2-0.6-1.2-1.2l0,0C8635.3,2531.7,8635.9,2531.1,8636.5,2531.1z"/>
							<path id="Rectangle_1416-3" fill="#288ED9" d="M8639.5,2536L8639.5,2536c0.7,0,1.2,0.6,1.2,1.2l0,0c0,0.7-0.5,1.2-1.2,1.2
								l0,0c-0.7,0-1.2-0.6-1.2-1.2l0,0C8638.3,2536.6,8638.8,2536,8639.5,2536z"/>
							<path id="Rectangle_1409-7" fill="#288ED9" d="M8616.9,2531.1L8616.9,2531.1c0.7,0,1.2,0.6,1.2,1.2l0,0
								c0,0.7-0.6,1.2-1.2,1.2l0,0c-0.7,0-1.2-0.6-1.2-1.2l0,0C8615.7,2531.7,8616.2,2531.1,8616.9,2531.1z"/>
							<path id="Rectangle_1420-7" fill="#288ED9" d="M8619.8,2536L8619.8,2536c0.7,0,1.2,0.6,1.2,1.2l0,0c0,0.7-0.6,1.2-1.2,1.2
								l0,0c-0.7,0-1.2-0.6-1.2-1.2l0,0C8618.6,2536.6,8619.2,2536,8619.8,2536z"/>
							<path id="Rectangle_1414-3" fill="#288ED9" d="M8641.5,2531.1L8641.5,2531.1c0.7,0,1.2,0.6,1.2,1.2l0,0
								c0,0.7-0.6,1.2-1.2,1.2l0,0c-0.7,0-1.2-0.6-1.2-1.2l0,0C8640.2,2531.7,8640.8,2531.1,8641.5,2531.1z"/>
							<path id="Rectangle_1415-3" fill="#288ED9" d="M8644.4,2536L8644.4,2536c0.7,0,1.2,0.6,1.2,1.2l0,0c0,0.7-0.5,1.2-1.2,1.2
								l0,0c-0.7,0-1.2-0.6-1.2-1.2l0,0C8643.2,2536.6,8643.7,2536,8644.4,2536z"/>
						</g>
						<path id="Rectangle_1634-2" fill="#0E71BB" d="M8601,2565.5h93.2c2.8,0,5,2.2,5,5v18.9c0,2.8-2.2,5-5,5H8601c-2.8,0-5-2.2-5-5
							v-18.9C8596,2567.8,8598.2,2565.5,8601,2565.5z"/>
						<g id="Group_113-3" transform="translate(10.42 45.416)">
							<g id="Rectangle_1635-3" transform="translate(0 0)">
								<path fill="#21E2E2" d="M8599.8,2531.1L8599.8,2531.1c2.1,0,3.8,1.7,3.8,3.8v0.3c0,2.1-1.7,3.8-3.8,3.8l0,0
									c-2.1,0-3.8-1.7-3.8-3.8v-0.3C8596,2532.8,8597.7,2531.1,8599.8,2531.1z"/>
								<path fill="none" stroke="#137FCF" stroke-width="2" d="M8599.8,2532.1L8599.8,2532.1c1.5,0,2.8,1.2,2.8,2.8v0.3
									c0,1.5-1.2,2.8-2.8,2.8l0,0c-1.5,0-2.8-1.2-2.8-2.8v-0.3C8597,2533.4,8598.2,2532.1,8599.8,2532.1z"/>
							</g>
							<g id="Rectangle_1636-3" transform="translate(11.01 0)">
								<path fill="#FFBC98" d="M8599.8,2531.1L8599.8,2531.1c2.1,0,3.8,1.7,3.8,3.8v0.3c0,2.1-1.7,3.8-3.8,3.8l0,0
									c-2.1,0-3.8-1.7-3.8-3.8v-0.3C8596,2532.8,8597.7,2531.1,8599.8,2531.1z"/>
								<path fill="none" stroke="#137FCF" stroke-width="2" d="M8599.8,2532.1L8599.8,2532.1c1.5,0,2.8,1.2,2.8,2.8v0.3
									c0,1.5-1.2,2.8-2.8,2.8l0,0c-1.5,0-2.8-1.2-2.8-2.8v-0.3C8597,2533.4,8598.2,2532.1,8599.8,2532.1z"/>
							</g>
						</g>
						<path id="Rectangle_1638" fill="#0E71BB" d="M8601,2599.9h93.2c2.8,0,5,2.2,5,5v18.9c0,2.8-2.2,5-5,5H8601c-2.8,0-5-2.2-5-5
							v-18.9C8596,2602.2,8598.2,2599.9,8601,2599.9z"/>
						<path id="Path_5065" fill="#005B9F" d="M8598.9,2565.5h35v28.9h-35c-1.6,0-2.9-1.3-2.9-2.9v-23.2
							C8596,2566.8,8597.3,2565.5,8598.9,2565.5C8598.9,2565.5,8598.9,2565.5,8598.9,2565.5z"/>
						<g id="Group_115" transform="translate(11.379 46.339)">
							<path id="Rectangle_1425-2" fill="#21E2E2" d="M8599,2531.1L8599,2531.1c1.7,0,3,1.3,3,3v0.2c0,1.7-1.3,3-3,3l0,0
								c-1.7,0-3-1.3-3-3v-0.2C8596,2532.5,8597.3,2531.1,8599,2531.1z"/>
							<path id="Rectangle_1442-2" fill="#FFBC98" d="M8607.8,2531.1L8607.8,2531.1c1.7,0,3,1.3,3,3v0.2c0,1.7-1.3,3-3,3l0,0
								c-1.7,0-3-1.3-3-3v-0.2C8604.8,2532.5,8606.1,2531.1,8607.8,2531.1z"/>
						</g>
						<g id="Group_5597" transform="translate(11.378 12.804)">
							<path id="Rectangle_1425-3" fill="#21E2E2" d="M8599,2531.1L8599,2531.1c1.7,0,3,1.3,3,3v0.2c0,1.7-1.3,3-3,3l0,0
								c-1.7,0-3-1.3-3-3v-0.2C8596,2532.5,8597.3,2531.1,8599,2531.1z"/>
							<path id="Rectangle_1442-3" fill="#FFBC98" d="M8607.8,2531.1L8607.8,2531.1c1.7,0,3,1.3,3,3v0.2c0,1.7-1.3,3-3,3l0,0
								c-1.7,0-3-1.3-3-3v-0.2C8604.8,2532.5,8606.1,2531.1,8607.8,2531.1z"/>
						</g>
						<path id="Path_5396" fill="#005B9F" d="M8598.9,2599.7h35v28.9h-35c-1.6,0-2.9-1.3-2.9-2.9v-23.2
							C8596,2601,8597.3,2599.7,8598.9,2599.7C8598.9,2599.7,8598.9,2599.7,8598.9,2599.7z"/>
						<g id="Group_5703" transform="translate(11.378 80.565)">
							<path id="Rectangle_1425-4" fill="#21E2E2" d="M8599,2531.1L8599,2531.1c1.7,0,3,1.3,3,3v0.2c0,1.7-1.3,3-3,3l0,0
								c-1.7,0-3-1.3-3-3v-0.2C8596,2532.5,8597.3,2531.1,8599,2531.1z"/>
							<path id="Rectangle_1442-4" fill="#FFBC98" d="M8607.8,2531.1L8607.8,2531.1c1.7,0,3,1.3,3,3v0.2c0,1.7-1.3,3-3,3l0,0
								c-1.7,0-3-1.3-3-3v-0.2C8604.8,2532.5,8606.1,2531.1,8607.8,2531.1z"/>
						</g>
					</g>
				</g>
			</g>
			<g id="Group_5702" transform="translate(45.03 77.767)">
				<g id="Group_5584-5" transform="translate(0 0)">
					<path id="Rectangle_1405-8" fill="#52ACEA" d="M8598,2531.1L8598,2531.1c1.1,0,2,0.9,2,2l0,0c0,1.1-0.9,2-2,2l0,0
						c-1.1,0-2-0.9-2-2l0,0C8596,2532,8596.9,2531.1,8598,2531.1z"/>
					<path id="Rectangle_1424-8" fill="#52ACEA" d="M8602.9,2539.2L8602.9,2539.2c1.1,0,2,0.9,2,2l0,0c0,1.1-0.9,2-2,2l0,0
						c-1.1,0-2-0.9-2-2l0,0C8600.9,2540.2,8601.8,2539.2,8602.9,2539.2z"/>
					<path id="Rectangle_1410-8" fill="#52ACEA" d="M8638.7,2531.1L8638.7,2531.1c1.1,0,2,0.9,2,2l0,0c0,1.1-0.9,2-2,2l0,0
						c-1.1,0-2-0.9-2-2l0,0C8636.7,2532,8637.6,2531.1,8638.7,2531.1z"/>
					<path id="Rectangle_1419-8" fill="#52ACEA" d="M8643.6,2539.2L8643.6,2539.2c1.1,0,2,0.9,2,2l0,0c0,1.1-0.9,2-2,2l0,0
						c-1.1,0-2-0.9-2-2l0,0C8641.6,2540.2,8642.5,2539.2,8643.6,2539.2z"/>
					<path id="Rectangle_1406-8" fill="#52ACEA" d="M8606.2,2531.1L8606.2,2531.1c1.1,0,2,0.9,2,2l0,0c0,1.1-0.9,2-2,2l0,0
						c-1.1,0-2-0.9-2-2l0,0C8604.1,2532,8605,2531.1,8606.2,2531.1z"/>
					<path id="Rectangle_1423-8" fill="#52ACEA" d="M8611.1,2539.2L8611.1,2539.2c1.1,0,2,0.9,2,2l0,0c0,1.1-0.9,2-2,2l0,0
						c-1.1,0-2-0.9-2-2l0,0C8609,2540.2,8609.9,2539.2,8611.1,2539.2z"/>
					<path id="Rectangle_1407-8" fill="#52ACEA" d="M8614.3,2531.1L8614.3,2531.1c1.1,0,2,0.9,2,2l0,0c0,1.1-0.9,2-2,2l0,0
						c-1.1,0-2-0.9-2-2l0,0C8612.3,2532,8613.2,2531.1,8614.3,2531.1z"/>
					<path id="Rectangle_1422-8" fill="#52ACEA" d="M8619.2,2539.2L8619.2,2539.2c1.1,0,2,0.9,2,2l0,0c0,1.1-0.9,2-2,2l0,0
						c-1.1,0-2-0.9-2-2l0,0C8617.2,2540.2,8618.1,2539.2,8619.2,2539.2z"/>
					<path id="Rectangle_1408-8" fill="#52ACEA" d="M8622.4,2531.1L8622.4,2531.1c1.1,0,2,0.9,2,2l0,0c0,1.1-0.9,2-2,2l0,0
						c-1.1,0-2-0.9-2-2l0,0C8620.4,2532,8621.3,2531.1,8622.4,2531.1z"/>
					<path id="Rectangle_1421-8" fill="#52ACEA" d="M8627.3,2539.2L8627.3,2539.2c1.1,0,2,0.9,2,2l0,0c0,1.1-0.9,2-2,2l0,0
						c-1.1,0-2-0.9-2-2l0,0C8625.3,2540.2,8626.2,2539.2,8627.3,2539.2z"/>
					<path id="Rectangle_1409-8" fill="#52ACEA" d="M8630.6,2531.1L8630.6,2531.1c1.1,0,2,0.9,2,2l0,0c0,1.1-0.9,2-2,2l0,0
						c-1.1,0-2-0.9-2-2l0,0C8628.6,2532,8629.5,2531.1,8630.6,2531.1z"/>
					<path id="Rectangle_1420-8" fill="#52ACEA" d="M8635.5,2539.2L8635.5,2539.2c1.1,0,2,0.9,2,2l0,0c0,1.1-0.9,2-2,2l0,0
						c-1.1,0-2-0.9-2-2l0,0C8633.4,2540.2,8634.3,2539.2,8635.5,2539.2z"/>
				</g>
			</g>
			<g id="Group_5709" transform="translate(45.03 42.857)">
				<g id="Group_5584-6" transform="translate(0 0)">
					<path id="Rectangle_1405-9" fill="#52ACEA" d="M8598,2531.1L8598,2531.1c1.1,0,2,0.9,2,2l0,0c0,1.1-0.9,2-2,2l0,0
						c-1.1,0-2-0.9-2-2l0,0C8596,2532,8596.9,2531.1,8598,2531.1z"/>
					<path id="Rectangle_1424-9" fill="#52ACEA" d="M8602.9,2539.2L8602.9,2539.2c1.1,0,2,0.9,2,2l0,0c0,1.1-0.9,2-2,2l0,0
						c-1.1,0-2-0.9-2-2l0,0C8600.9,2540.2,8601.8,2539.2,8602.9,2539.2z"/>
					<path id="Rectangle_1410-9" fill="#52ACEA" d="M8638.7,2531.1L8638.7,2531.1c1.1,0,2,0.9,2,2l0,0c0,1.1-0.9,2-2,2l0,0
						c-1.1,0-2-0.9-2-2l0,0C8636.7,2532,8637.6,2531.1,8638.7,2531.1z"/>
					<path id="Rectangle_1419-9" fill="#52ACEA" d="M8643.6,2539.2L8643.6,2539.2c1.1,0,2,0.9,2,2l0,0c0,1.1-0.9,2-2,2l0,0
						c-1.1,0-2-0.9-2-2l0,0C8641.6,2540.2,8642.5,2539.2,8643.6,2539.2z"/>
					<path id="Rectangle_1406-9" fill="#52ACEA" d="M8606.2,2531.1L8606.2,2531.1c1.1,0,2,0.9,2,2l0,0c0,1.1-0.9,2-2,2l0,0
						c-1.1,0-2-0.9-2-2l0,0C8604.1,2532,8605,2531.1,8606.2,2531.1z"/>
					<path id="Rectangle_1423-9" fill="#52ACEA" d="M8611.1,2539.2L8611.1,2539.2c1.1,0,2,0.9,2,2l0,0c0,1.1-0.9,2-2,2l0,0
						c-1.1,0-2-0.9-2-2l0,0C8609,2540.2,8609.9,2539.2,8611.1,2539.2z"/>
					<path id="Rectangle_1407-9" fill="#52ACEA" d="M8614.3,2531.1L8614.3,2531.1c1.1,0,2,0.9,2,2l0,0c0,1.1-0.9,2-2,2l0,0
						c-1.1,0-2-0.9-2-2l0,0C8612.3,2532,8613.2,2531.1,8614.3,2531.1z"/>
					<path id="Rectangle_1422-9" fill="#52ACEA" d="M8619.2,2539.2L8619.2,2539.2c1.1,0,2,0.9,2,2l0,0c0,1.1-0.9,2-2,2l0,0
						c-1.1,0-2-0.9-2-2l0,0C8617.2,2540.2,8618.1,2539.2,8619.2,2539.2z"/>
					<path id="Rectangle_1408-9" fill="#52ACEA" d="M8622.4,2531.1L8622.4,2531.1c1.1,0,2,0.9,2,2l0,0c0,1.1-0.9,2-2,2l0,0
						c-1.1,0-2-0.9-2-2l0,0C8620.4,2532,8621.3,2531.1,8622.4,2531.1z"/>
					<path id="Rectangle_1421-9" fill="#52ACEA" d="M8627.3,2539.2L8627.3,2539.2c1.1,0,2,0.9,2,2l0,0c0,1.1-0.9,2-2,2l0,0
						c-1.1,0-2-0.9-2-2l0,0C8625.3,2540.2,8626.2,2539.2,8627.3,2539.2z"/>
					<path id="Rectangle_1409-9" fill="#52ACEA" d="M8630.6,2531.1L8630.6,2531.1c1.1,0,2,0.9,2,2l0,0c0,1.1-0.9,2-2,2l0,0
						c-1.1,0-2-0.9-2-2l0,0C8628.6,2532,8629.5,2531.1,8630.6,2531.1z"/>
					<path id="Rectangle_1420-9" fill="#52ACEA" d="M8635.5,2539.2L8635.5,2539.2c1.1,0,2,0.9,2,2l0,0c0,1.1-0.9,2-2,2l0,0
						c-1.1,0-2-0.9-2-2l0,0C8633.4,2540.2,8634.3,2539.2,8635.5,2539.2z"/>
				</g>
			</g>
			<g id="Group_5710" transform="translate(45.03 8.632)">
				<g id="Group_5584-7" transform="translate(0 0)">
					<path id="Rectangle_1405-10" fill="#52ACEA" d="M8598,2531.1L8598,2531.1c1.1,0,2,0.9,2,2l0,0c0,1.1-0.9,2-2,2l0,0
						c-1.1,0-2-0.9-2-2l0,0C8596,2532,8596.9,2531.1,8598,2531.1z"/>
					<path id="Rectangle_1424-10" fill="#52ACEA" d="M8602.9,2539.2L8602.9,2539.2c1.1,0,2,0.9,2,2l0,0c0,1.1-0.9,2-2,2l0,0
						c-1.1,0-2-0.9-2-2l0,0C8600.9,2540.2,8601.8,2539.2,8602.9,2539.2z"/>
					<path id="Rectangle_1410-10" fill="#52ACEA" d="M8638.7,2531.1L8638.7,2531.1c1.1,0,2,0.9,2,2l0,0c0,1.1-0.9,2-2,2l0,0
						c-1.1,0-2-0.9-2-2l0,0C8636.7,2532,8637.6,2531.1,8638.7,2531.1z"/>
					<path id="Rectangle_1419-10" fill="#52ACEA" d="M8643.6,2539.2L8643.6,2539.2c1.1,0,2,0.9,2,2l0,0c0,1.1-0.9,2-2,2l0,0
						c-1.1,0-2-0.9-2-2l0,0C8641.6,2540.2,8642.5,2539.2,8643.6,2539.2z"/>
					<path id="Rectangle_1406-10" fill="#52ACEA" d="M8606.2,2531.1L8606.2,2531.1c1.1,0,2,0.9,2,2l0,0c0,1.1-0.9,2-2,2l0,0
						c-1.1,0-2-0.9-2-2l0,0C8604.1,2532,8605,2531.1,8606.2,2531.1z"/>
					<path id="Rectangle_1423-10" fill="#52ACEA" d="M8611.1,2539.2L8611.1,2539.2c1.1,0,2,0.9,2,2l0,0c0,1.1-0.9,2-2,2l0,0
						c-1.1,0-2-0.9-2-2l0,0C8609,2540.2,8609.9,2539.2,8611.1,2539.2z"/>
					<path id="Rectangle_1407-10" fill="#52ACEA" d="M8614.3,2531.1L8614.3,2531.1c1.1,0,2,0.9,2,2l0,0c0,1.1-0.9,2-2,2l0,0
						c-1.1,0-2-0.9-2-2l0,0C8612.3,2532,8613.2,2531.1,8614.3,2531.1z"/>
					<path id="Rectangle_1422-10" fill="#52ACEA" d="M8619.2,2539.2L8619.2,2539.2c1.1,0,2,0.9,2,2l0,0c0,1.1-0.9,2-2,2l0,0
						c-1.1,0-2-0.9-2-2l0,0C8617.2,2540.2,8618.1,2539.2,8619.2,2539.2z"/>
					<path id="Rectangle_1408-10" fill="#52ACEA" d="M8622.4,2531.1L8622.4,2531.1c1.1,0,2,0.9,2,2l0,0c0,1.1-0.9,2-2,2l0,0
						c-1.1,0-2-0.9-2-2l0,0C8620.4,2532,8621.3,2531.1,8622.4,2531.1z"/>
					<path id="Rectangle_1421-10" fill="#52ACEA" d="M8627.3,2539.2L8627.3,2539.2c1.1,0,2,0.9,2,2l0,0c0,1.1-0.9,2-2,2l0,0
						c-1.1,0-2-0.9-2-2l0,0C8625.3,2540.2,8626.2,2539.2,8627.3,2539.2z"/>
					<path id="Rectangle_1409-10" fill="#52ACEA" d="M8630.6,2531.1L8630.6,2531.1c1.1,0,2,0.9,2,2l0,0c0,1.1-0.9,2-2,2l0,0
						c-1.1,0-2-0.9-2-2l0,0C8628.6,2532,8629.5,2531.1,8630.6,2531.1z"/>
					<path id="Rectangle_1420-10" fill="#52ACEA" d="M8635.5,2539.2L8635.5,2539.2c1.1,0,2,0.9,2,2l0,0c0,1.1-0.9,2-2,2l0,0
						c-1.1,0-2-0.9-2-2l0,0C8633.4,2540.2,8634.3,2539.2,8635.5,2539.2z"/>
				</g>
			</g>
		</g>
	</g>
	<g id="Group_8113" transform="translate(278.408 163.164)">
		<path id="Subtraction_83" fill="#005B9F" d="M8625.1,2565H8596v-33.9h19.1l10,10.2V2565L8625.1,2565z"/>
		<g id="Group_5946" transform="translate(0.002 0.003)">
			<g id="Group_5947">
				<path id="Subtraction_81" fill="#288ED9" d="M8625.1,2565H8596v-33.9h19.1v10.2h10V2565L8625.1,2565z"/>
				<rect id="Rectangle_2799" x="8601" y="2547.2" fill="#D6EEFF" width="18.3" height="1.7"/>
				<rect id="Rectangle_2800" x="8601" y="2551.4" fill="#D6EEFF" width="18.3" height="1.7"/>
				<rect id="Rectangle_2801" x="8601" y="2555.7" fill="#D6EEFF" width="18.3" height="1.7"/>
			</g>
		</g>
	</g>
	<g id="Group_8109" transform="translate(211.511 103.385)">
		<g id="Group_5949" transform="translate(0 0)">
			<g id="Group_5942" transform="translate(0)">
				<g id="Group_5940" transform="translate(0.076)">
					<rect id="Rectangle_2794" x="8596" y="2531.1" fill="#288ED9" width="34.8" height="23.2"/>
				</g>
				<g id="picture" transform="translate(0 3.832)">
					<path id="Path_5691" fill="#D6EEFF" d="M8602.4,2531.1c1.9,0,3.4,1.5,3.5,3.4c0,1.9-1.6,3.4-3.5,3.4c-1.9,0-3.4-1.5-3.5-3.4
						C8598.9,2532.6,8600.5,2531.1,8602.4,2531.1z"/>
					<g id="Group_5941" transform="translate(0 3.697)">
						<path id="Path_5561" fill="#005B9F" d="M8630.9,2540.1l-0.8-0.8l-9.1-8.2l-8,8.6l4.2,4.1l3,3h10.6V2540.1z"/>
						<path id="Path_5562" fill="#164571" d="M8617.2,2543.8l-8.3-8.2l-12.9,11.2h24.3L8617.2,2543.8z"/>
					</g>
				</g>
			</g>
		</g>
	</g>
	<g id="Group_8112" transform="translate(56.3 178.309)">
		<g id="Group_5938" transform="translate(0 0)">
			<rect id="Rectangle_2794-2" x="8596" y="2531.1" fill="#1780CF" width="30.9" height="32.5"/>
			<path id="music-player" fill="#D6EEFF" d="M8620,2537.4c-0.1-0.1-0.2-0.1-0.3-0.1l-11.3,1.5c-0.2,0-0.3,0.2-0.3,0.4v13.2
				c-0.7-0.8-1.7-1.2-2.7-1.2c-1.8-0.1-3.4,1.3-3.5,3.1c0.1,1.8,1.7,3.2,3.5,3.1c1.8,0.1,3.4-1.3,3.5-3.1c0-0.1,0-0.2,0-0.4
				c0,0,0-0.1,0-0.1v-10.6l10.6-1.4v6.9c-0.7-0.8-1.7-1.2-2.7-1.2c-1.8-0.1-3.4,1.3-3.5,3.1c0.1,1.8,1.7,3.2,3.5,3.1
				c1.8,0.1,3.4-1.3,3.5-3.1c0,0,0-0.1,0-0.1c0,0,0,0,0,0v-12.8C8620.1,2537.5,8620.1,2537.4,8620,2537.4z"/>
		</g>
	</g>
	<g id="Group_8114" transform="translate(48.004 118.75)">
		<g id="Group_5943" transform="translate(0 0)">
			<g id="video-player" transform="translate(0)">
				<g id="Rectangle_2785" transform="translate(3.168 -0.079)">
					<rect x="8596" y="2531.1" fill="#288ED9" width="28" height="25"/>
					<rect x="8597" y="2532.1" fill="none" stroke="#005B9F" stroke-width="2" stroke-miterlimit="10" width="26" height="23"/>
				</g>
				<path id="Path_5563" fill="#D6EEFF" d="M8609.6,2547.4v-7.9l6.2,4L8609.6,2547.4z"/>
				<g id="Group_8116" transform="translate(0 0.412)">
					
						<rect id="Rectangle_2786" x="8596" y="2531.1" fill="#005B9F" stroke="#288ED9" stroke-miterlimit="10" width="5.6" height="6"/>
					
						<rect id="Rectangle_2787" x="8596" y="2537.1" fill="#005B9F" stroke="#288ED9" stroke-miterlimit="10" width="5.6" height="6"/>
					
						<rect id="Rectangle_2788" x="8596" y="2543.1" fill="#005B9F" stroke="#288ED9" stroke-miterlimit="10" width="5.6" height="6"/>
					
						<rect id="Rectangle_2789" x="8596" y="2549.1" fill="#005B9F" stroke="#288ED9" stroke-miterlimit="10" width="5.6" height="6"/>
				</g>
				
					<rect id="Rectangle_2790" x="8622" y="2531.5" fill="#005B9F" stroke="#288ED9" stroke-miterlimit="10" width="5.6" height="6"/>
				
					<rect id="Rectangle_2791" x="8622" y="2537.5" fill="#005B9F" stroke="#288ED9" stroke-miterlimit="10" width="5.6" height="6"/>
				
					<rect id="Rectangle_2792" x="8622" y="2543.5" fill="#005B9F" stroke="#288ED9" stroke-miterlimit="10" width="5.6" height="6"/>
				
					<rect id="Rectangle_2793" x="8622" y="2549.5" fill="#005B9F" stroke="#288ED9" stroke-miterlimit="10" width="5.6" height="6"/>
			</g>
		</g>
	</g>
	<g id="Group_8111" transform="translate(133.582 82.906)">
		<path id="Subtraction_82" fill="#164571" d="M8623.1,2562.1H8596v-31h17.8l9.3,9.3V2562.1L8623.1,2562.1z"/>
		<g id="Group_5944" transform="translate(0.001 0.002)">
			<path id="Subtraction_81-2" fill="#288ED9" d="M8623.1,2562.1H8596v-31h17.8v9.3h9.3L8623.1,2562.1L8623.1,2562.1z"/>
			<path id="Path_5568" fill="#FFFFFF" d="M8603.4,2551.3v2.3h-1.1v-6.2h2.4c0.6,0,1.2,0.2,1.6,0.5c0.4,0.4,0.6,0.9,0.6,1.4
				c0,0.5-0.2,1.1-0.6,1.4c-0.5,0.4-1.1,0.5-1.7,0.5L8603.4,2551.3z M8603.4,2550.4h1.3c0.3,0,0.6-0.1,0.9-0.3
				c0.2-0.2,0.3-0.5,0.3-0.8c0-0.3-0.1-0.6-0.3-0.8c-0.2-0.2-0.5-0.3-0.8-0.3h-1.3V2550.4z M8607.9,2553.5v-6.2h1.8
				c0.5,0,1,0.1,1.4,0.4c0.4,0.2,0.8,0.6,1,1c0.2,0.5,0.4,1,0.3,1.5v0.3c0,0.5-0.1,1.1-0.4,1.5c-0.2,0.4-0.6,0.8-1,1
				c-0.5,0.2-1,0.4-1.5,0.4L8607.9,2553.5z M8609,2548.3v4.4h0.7c0.5,0,1-0.2,1.3-0.5c0.3-0.4,0.5-1,0.5-1.5v-0.3
				c0-0.5-0.1-1.1-0.4-1.5c-0.3-0.4-0.8-0.6-1.3-0.5L8609,2548.3z M8617.1,2550.9h-2.5v2.6h-1.1v-6.2h3.9v0.9h-2.8v1.8h2.5V2550.9z"
				/>
		</g>
	</g>
</g>
</svg>
