<?xml version="1.0" encoding="utf-8"?>
<!-- Generator: Adobe Illustrator 21.0.0, SVG Export Plug-In . SVG Version: 6.00 Build 0)  -->
<svg version="1.1" id="Layer_1" xmlns="http://www.w3.org/2000/svg" xmlns:xlink="http://www.w3.org/1999/xlink" x="0px" y="0px"
	 viewBox="0 0 299.995 299.07" enable-background="new 0 0 299.995 299.07" xml:space="preserve">
<g id="Group_7441" transform="translate(10985 -17870)">
	<g id="Ellipse_1411">
		<ellipse fill="#288ED9" cx="-10835.464" cy="18019.535" rx="149.536" ry="149.535"/>
	</g>
	<g id="Path_6111">
		<path fill="none" d="M-10827.094,17967.197l-16.011,32.834h-104.512v118.41c54.66,61.926,149.172,67.816,211.099,13.158
			c47.783-42.176,63.589-109.998,39.373-168.953h-122.717C-10822.947,17962.645-10825.761,17964.414-10827.094,17967.197z"/>
	</g>
	<g transform="matrix(1, 0, 0, 1, -10985, 17870)">
		<g id="Path_6112-2">
			<path fill="#005B9F" d="M37.38,248.445c54.633,61.936,149.131,67.857,211.068,13.224C300,216.195,313.91,141.433,282.163,80.461
				H37.38V248.445z"/>
		</g>
	</g>
	<g id="Path_6113">
		<path fill="#288ED9" d="M-10819.779,17962.646c-3.101,0.018-5.929,1.777-7.313,4.551l-16.01,32.834h-104.514v56.076h257.136
			c3.007-11.959,4.535-24.24,4.552-36.572c0.026-19.514-3.784-38.844-11.216-56.889H-10819.779z"/>
		<path fill="#0D7BCC" d="M-10690.285,18056.357h-257.581v-56.576h104.606l15.942-32.693c1.436-2.877,4.323-4.674,7.537-4.691
			h122.803l0.064,0.154c7.481,18.166,11.261,37.338,11.234,56.986c-0.017,12.34-1.551,24.666-4.56,36.631L-10690.285,18056.357z
			 M-10947.366,18055.857h256.69c2.968-11.867,4.48-24.088,4.497-36.322c0.026-19.523-3.72-38.58-11.134-56.639h-122.467
			c-3.023,0.018-5.739,1.709-7.09,4.412l-16.078,32.973h-104.419V18055.857z"/>
	</g>
	<g id="Path_6114">
		<path fill="#FFBC98" d="M-10919.578,17983.371L-10919.578,17983.371c-4.482-0.014-8.113-3.645-8.127-8.127l0,0
			c0.014-4.482,3.645-8.113,8.127-8.127l0,0c4.483,0.014,8.114,3.645,8.127,8.127l0,0
			C-10911.464,17979.727-10915.095,17983.357-10919.578,17983.371z"/>
	</g>
	<g id="Path_6115">
		<path fill="#288ED9" d="M-10891.946,17983.371L-10891.946,17983.371c-4.482-0.014-8.113-3.645-8.127-8.127l0,0
			c0.014-4.482,3.645-8.113,8.127-8.127l0,0c4.483,0.014,8.114,3.645,8.127,8.127l0,0
			C-10883.832,17979.727-10887.463,17983.357-10891.946,17983.371z"/>
	</g>
	<g id="Path_6116">
		<path fill="#21E2E2" d="M-10864.315,17983.371L-10864.315,17983.371c-4.482-0.014-8.113-3.645-8.127-8.127l0,0
			c0.014-4.482,3.645-8.113,8.127-8.127l0,0c4.483,0.014,8.114,3.645,8.127,8.127l0,0
			C-10856.201,17979.727-10859.832,17983.357-10864.315,17983.371z"/>
	</g>
	<g id="Group_7438" transform="translate(1051.466 1122.673) rotate(90)">
		<g id="Line_4">
			<path fill="#FFFFFF" d="M16915.074,11974.839c0,0.258-0.1,0.515-0.297,0.71l-6.037,5.985c-0.393,0.39-1.025,0.387-1.414-0.006
				c-0.387-0.392-0.385-1.025,0.006-1.414l6.037-5.985c0.393-0.389,1.025-0.386,1.414,0.006
				C16914.977,11974.33,16915.074,11974.585,16915.074,11974.839z"/>
		</g>
		<g id="Line_5">
			<path fill="#FFFFFF" d="M16909.037,11980.824c0,0.255-0.098,0.51-0.291,0.704c-0.389,0.393-1.021,0.396-1.414,0.006l-6.037-5.985
				c-0.393-0.388-0.395-1.021-0.006-1.414c0.389-0.392,1.023-0.395,1.414-0.006l6.037,5.985
				C16908.938,11980.31,16909.037,11980.567,16909.037,11980.824z"/>
		</g>
		<g id="Line_10">
			<path fill="#FFFFFF" d="M16908.994,11979.987c0,0.548-0.441,0.994-0.99,1c-0.551,0.005-1.004-0.438-1.01-0.99l-0.172-16.986
				c0-0.004,0-0.007,0-0.011c0-0.548,0.441-0.994,0.99-1c0.551-0.005,1.004,0.438,1.01,0.99l0.172,16.986
				C16908.994,11979.98,16908.994,11979.983,16908.994,11979.987z"/>
		</g>
	</g>
	<g id="Group_7439" transform="translate(1071.251 1106.158)">
		<g id="Path_6119">
			<path fill="#FFFFFF" d="M-11963,16942.635h203.9c1.898-9.637,2.852-19.436,2.844-29.256c0-3.82-0.163-7.641-0.406-11.379H-11963
				V16942.635z"/>
		</g>
		<g id="Path_6120">
			<path fill="#DDFFB6" d="M-11891.516,16906.877h-65.046c-0.921,0-1.644,1.787-1.644,4.063v22.754c0,2.277,0.723,4.064,1.644,4.064
				h65.046c0.92,0,1.643-1.789,1.643-4.064v-22.754C-11889.874,16908.664-11890.597,16906.877-11891.516,16906.877z"/>
		</g>
		<g enable-background="new    ">
			<path fill="#24B77E" d="M-11921.597,16926.721h-1.121v-4.033c0-1.457-0.543-2.188-1.627-2.188c-0.547,0-1.008,0.211-1.381,0.633
				c-0.374,0.422-0.561,0.963-0.561,1.623v3.965h-1.121v-10.363h1.121v4.525h0.027c0.537-0.883,1.303-1.326,2.297-1.326
				c1.576,0,2.365,0.951,2.365,2.852V16926.721z"/>
			<path fill="#24B77E" d="M-11916.237,16926.652c-0.265,0.146-0.613,0.219-1.046,0.219c-1.227,0-1.839-0.684-1.839-2.051v-4.143
				h-1.203v-0.957h1.203v-1.709l1.121-0.361v2.07h1.764v0.957h-1.764v3.945c0,0.469,0.079,0.805,0.239,1.004
				c0.159,0.201,0.424,0.301,0.793,0.301c0.282,0,0.526-0.076,0.731-0.232V16926.652z"/>
			<path fill="#24B77E" d="M-11911.493,16926.652c-0.265,0.146-0.613,0.219-1.046,0.219c-1.227,0-1.839-0.684-1.839-2.051v-4.143
				h-1.203v-0.957h1.203v-1.709l1.121-0.361v2.07h1.764v0.957h-1.764v3.945c0,0.469,0.079,0.805,0.239,1.004
				c0.159,0.201,0.424,0.301,0.793,0.301c0.282,0,0.526-0.076,0.731-0.232V16926.652z"/>
			<path fill="#24B77E" d="M-11908.848,16925.709h-0.027v4.232h-1.121v-10.221h1.121v1.23h0.027c0.551-0.93,1.357-1.395,2.42-1.395
				c0.902,0,1.606,0.314,2.112,0.939c0.506,0.627,0.759,1.467,0.759,2.52c0,1.172-0.285,2.109-0.854,2.813
				c-0.57,0.705-1.35,1.057-2.338,1.057C-11907.656,16926.885-11908.355,16926.494-11908.848,16925.709z M-11908.875,16922.887
				v0.977c0,0.58,0.188,1.07,0.563,1.473c0.376,0.404,0.854,0.605,1.433,0.605c0.679,0,1.211-0.26,1.596-0.779
				c0.386-0.52,0.578-1.242,0.578-2.166c0-0.779-0.181-1.391-0.54-1.832c-0.36-0.443-0.848-0.664-1.463-0.664
				c-0.652,0-1.176,0.227-1.572,0.68C-11908.677,16921.635-11908.875,16922.203-11908.875,16922.887z"/>
			<path fill="#24B77E" d="M-11902.189,16926.469v-1.203c0.61,0.451,1.282,0.676,2.017,0.676c0.984,0,1.477-0.328,1.477-0.984
				c0-0.186-0.042-0.346-0.127-0.475c-0.084-0.131-0.197-0.244-0.342-0.346c-0.143-0.1-0.312-0.189-0.506-0.27
				c-0.193-0.08-0.402-0.162-0.625-0.25c-0.311-0.123-0.582-0.246-0.816-0.373c-0.235-0.125-0.432-0.266-0.589-0.424
				c-0.157-0.156-0.275-0.336-0.355-0.535c-0.079-0.201-0.119-0.436-0.119-0.705c0-0.328,0.075-0.619,0.226-0.871
				c0.15-0.254,0.351-0.465,0.602-0.637c0.25-0.17,0.537-0.299,0.857-0.385c0.322-0.088,0.653-0.131,0.995-0.131
				c0.606,0,1.148,0.105,1.627,0.314v1.135c-0.515-0.336-1.107-0.506-1.777-0.506c-0.21,0-0.399,0.023-0.567,0.072
				c-0.168,0.047-0.313,0.115-0.434,0.201c-0.121,0.088-0.215,0.191-0.281,0.311c-0.065,0.121-0.099,0.256-0.099,0.4
				c0,0.184,0.033,0.336,0.099,0.459c0.066,0.123,0.164,0.232,0.291,0.328s0.283,0.182,0.465,0.26
				c0.182,0.076,0.39,0.162,0.622,0.252c0.31,0.119,0.588,0.24,0.834,0.365c0.246,0.127,0.456,0.268,0.629,0.424
				c0.173,0.158,0.307,0.34,0.399,0.545c0.094,0.205,0.141,0.449,0.141,0.73c0,0.348-0.076,0.648-0.229,0.902
				c-0.153,0.256-0.357,0.467-0.612,0.637c-0.255,0.168-0.55,0.293-0.882,0.375s-0.682,0.123-1.046,0.123
				C-11901.036,16926.885-11901.661,16926.746-11902.189,16926.469z"/>
		</g>
		<g enable-background="new    ">
			<path fill="#999999" d="M-11883.008,16921.088c-0.21,0-0.389-0.074-0.536-0.225c-0.148-0.15-0.223-0.33-0.223-0.541
				c0-0.209,0.074-0.387,0.223-0.533c0.147-0.145,0.326-0.219,0.536-0.219c0.214,0,0.396,0.074,0.547,0.219
				c0.15,0.146,0.226,0.324,0.226,0.533c0,0.211-0.075,0.391-0.226,0.541S-11882.794,16921.088-11883.008,16921.088z
				 M-11883.008,16926.871c-0.21,0-0.389-0.074-0.536-0.225c-0.148-0.15-0.223-0.33-0.223-0.541c0-0.209,0.074-0.391,0.223-0.543
				c0.147-0.152,0.326-0.229,0.536-0.229c0.214,0,0.396,0.076,0.547,0.229s0.226,0.334,0.226,0.543c0,0.211-0.075,0.391-0.226,0.541
				S-11882.794,16926.871-11883.008,16926.871z"/>
			<path fill="#999999" d="M-11875.939,16916.918l-4.703,11.43h-1.046l4.689-11.43H-11875.939z"/>
			<path fill="#999999" d="M-11870.484,16916.918l-4.703,11.43h-1.046l4.689-11.43H-11870.484z"/>
			<path fill="#999999" d="M-11860.634,16919.721l-2.099,7h-1.162l-1.442-5.01c-0.055-0.191-0.092-0.408-0.109-0.65h-0.027
				c-0.014,0.164-0.062,0.377-0.144,0.637l-1.565,5.023h-1.121l-2.119-7h1.176l1.449,5.264c0.045,0.16,0.078,0.369,0.096,0.629
				h0.055c0.014-0.199,0.055-0.414,0.123-0.643l1.613-5.25h1.025l1.449,5.277c0.045,0.17,0.08,0.379,0.103,0.629h0.055
				c0.009-0.178,0.048-0.387,0.116-0.629l1.422-5.277H-11860.634z"/>
			<path fill="#999999" d="M-11850.517,16919.721l-2.099,7h-1.162l-1.442-5.01c-0.055-0.191-0.092-0.408-0.109-0.65h-0.027
				c-0.014,0.164-0.062,0.377-0.144,0.637l-1.565,5.023h-1.121l-2.119-7h1.176l1.449,5.264c0.045,0.16,0.078,0.369,0.096,0.629
				h0.055c0.014-0.199,0.055-0.414,0.123-0.643l1.613-5.25h1.025l1.449,5.277c0.045,0.17,0.08,0.379,0.103,0.629h0.055
				c0.009-0.178,0.048-0.387,0.116-0.629l1.422-5.277H-11850.517z"/>
			<path fill="#999999" d="M-11840.399,16919.721l-2.099,7h-1.162l-1.442-5.01c-0.055-0.191-0.092-0.408-0.109-0.65h-0.027
				c-0.014,0.164-0.062,0.377-0.144,0.637l-1.565,5.023h-1.121l-2.119-7h1.176l1.449,5.264c0.045,0.16,0.078,0.369,0.096,0.629
				h0.055c0.014-0.199,0.055-0.414,0.123-0.643l1.613-5.25h1.025l1.449,5.277c0.045,0.17,0.08,0.379,0.103,0.629h0.055
				c0.009-0.178,0.048-0.387,0.116-0.629l1.422-5.277H-11840.399z"/>
			<path fill="#999999" d="M-11838.711,16926.871c-0.21,0-0.389-0.074-0.536-0.225c-0.148-0.15-0.223-0.33-0.223-0.541
				c0-0.209,0.074-0.391,0.223-0.543c0.147-0.152,0.326-0.229,0.536-0.229c0.214,0,0.396,0.076,0.547,0.229s0.226,0.334,0.226,0.543
				c0,0.211-0.075,0.391-0.226,0.541S-11838.497,16926.871-11838.711,16926.871z"/>
			<path fill="#999999" d="M-11834.917,16925.709h-0.027v4.232h-1.121v-10.221h1.121v1.23h0.027c0.551-0.93,1.357-1.395,2.42-1.395
				c0.902,0,1.606,0.314,2.112,0.939c0.506,0.627,0.759,1.467,0.759,2.52c0,1.172-0.285,2.109-0.854,2.813
				c-0.569,0.705-1.349,1.057-2.338,1.057C-11833.726,16926.885-11834.425,16926.494-11834.917,16925.709z M-11834.944,16922.887
				v0.977c0,0.58,0.188,1.07,0.564,1.473c0.375,0.404,0.854,0.605,1.432,0.605c0.68,0,1.211-0.26,1.596-0.779
				c0.386-0.52,0.578-1.242,0.578-2.166c0-0.779-0.18-1.391-0.54-1.832c-0.36-0.443-0.848-0.664-1.463-0.664
				c-0.651,0-1.176,0.227-1.572,0.68C-11834.746,16921.635-11834.944,16922.203-11834.944,16922.887z"/>
			<path fill="#999999" d="M-11822.824,16926.721h-1.121v-1.094h-0.027c-0.487,0.84-1.206,1.258-2.153,1.258
				c-0.697,0-1.243-0.184-1.637-0.553c-0.395-0.369-0.592-0.859-0.592-1.471c0-1.307,0.77-2.068,2.311-2.283l2.099-0.293
				c0-1.189-0.481-1.785-1.442-1.785c-0.844,0-1.604,0.287-2.283,0.861v-1.148c0.688-0.438,1.48-0.656,2.379-0.656
				c1.645,0,2.468,0.871,2.468,2.611V16926.721z M-11823.945,16923.18l-1.688,0.232c-0.52,0.074-0.912,0.201-1.176,0.387
				c-0.264,0.184-0.396,0.512-0.396,0.98c0,0.342,0.122,0.621,0.365,0.838c0.244,0.217,0.568,0.324,0.975,0.324
				c0.557,0,1.016-0.195,1.377-0.584c0.363-0.391,0.544-0.883,0.544-1.48V16923.18z"/>
			<path fill="#999999" d="M-11817.062,16920.855c-0.195-0.15-0.479-0.225-0.848-0.225c-0.479,0-0.879,0.225-1.199,0.676
				c-0.322,0.451-0.482,1.066-0.482,1.846v3.568h-1.121v-7h1.121v1.443h0.027c0.16-0.492,0.403-0.877,0.731-1.152
				s0.694-0.414,1.101-0.414c0.291,0,0.516,0.033,0.67,0.096V16920.855z"/>
			<path fill="#999999" d="M-11816.269,16926.469v-1.203c0.611,0.451,1.283,0.676,2.017,0.676c0.984,0,1.477-0.328,1.477-0.984
				c0-0.186-0.042-0.346-0.126-0.475c-0.085-0.131-0.199-0.244-0.342-0.346c-0.145-0.1-0.313-0.189-0.506-0.27
				c-0.194-0.08-0.402-0.162-0.626-0.25c-0.31-0.123-0.582-0.246-0.817-0.373c-0.234-0.125-0.43-0.266-0.588-0.424
				c-0.156-0.156-0.275-0.336-0.355-0.535c-0.079-0.201-0.119-0.436-0.119-0.705c0-0.328,0.075-0.619,0.226-0.871
				c0.15-0.254,0.351-0.465,0.602-0.637c0.251-0.17,0.536-0.299,0.858-0.385c0.32-0.088,0.652-0.131,0.994-0.131
				c0.605,0,1.148,0.105,1.627,0.314v1.135c-0.516-0.336-1.107-0.506-1.777-0.506c-0.209,0-0.398,0.023-0.567,0.072
				c-0.169,0.047-0.313,0.115-0.435,0.201c-0.12,0.088-0.214,0.191-0.279,0.311c-0.066,0.121-0.1,0.256-0.1,0.4
				c0,0.184,0.033,0.336,0.1,0.459c0.065,0.123,0.162,0.232,0.29,0.328s0.282,0.182,0.465,0.26c0.183,0.076,0.39,0.162,0.622,0.252
				c0.311,0.119,0.588,0.24,0.834,0.365c0.246,0.127,0.455,0.268,0.629,0.424c0.174,0.158,0.307,0.34,0.4,0.545
				c0.093,0.205,0.14,0.449,0.14,0.73c0,0.348-0.076,0.648-0.229,0.902c-0.152,0.256-0.355,0.467-0.611,0.637
				c-0.256,0.168-0.549,0.293-0.882,0.375s-0.681,0.123-1.046,0.123C-11815.116,16926.885-11815.739,16926.746-11816.269,16926.469z
				"/>
			<path fill="#999999" d="M-11808.756,16925.709h-0.027v4.232h-1.121v-10.221h1.121v1.23h0.027c0.552-0.93,1.358-1.395,2.42-1.395
				c0.902,0,1.606,0.314,2.112,0.939c0.506,0.627,0.759,1.467,0.759,2.52c0,1.172-0.284,2.109-0.854,2.813
				c-0.57,0.705-1.35,1.057-2.338,1.057C-11807.563,16926.885-11808.264,16926.494-11808.756,16925.709z M-11808.783,16922.887
				v0.977c0,0.58,0.188,1.07,0.563,1.473c0.377,0.404,0.854,0.605,1.433,0.605c0.679,0,1.211-0.26,1.597-0.779
				c0.385-0.52,0.577-1.242,0.577-2.166c0-0.779-0.181-1.391-0.54-1.832c-0.359-0.443-0.848-0.664-1.463-0.664
				c-0.652,0-1.176,0.227-1.572,0.68C-11808.585,16921.635-11808.783,16922.203-11808.783,16922.887z"/>
			<path fill="#999999" d="M-11796.663,16926.721h-1.121v-1.094h-0.027c-0.488,0.84-1.205,1.258-2.153,1.258
				c-0.697,0-1.243-0.184-1.638-0.553c-0.394-0.369-0.591-0.859-0.591-1.471c0-1.307,0.771-2.068,2.311-2.283l2.099-0.293
				c0-1.189-0.48-1.785-1.442-1.785c-0.843,0-1.604,0.287-2.283,0.861v-1.148c0.688-0.438,1.481-0.656,2.379-0.656
				c1.646,0,2.468,0.871,2.468,2.611V16926.721z M-11797.784,16923.18l-1.688,0.232c-0.52,0.074-0.911,0.201-1.176,0.387
				c-0.265,0.184-0.396,0.512-0.396,0.98c0,0.342,0.122,0.621,0.366,0.838c0.243,0.217,0.568,0.324,0.974,0.324
				c0.556,0,1.015-0.195,1.378-0.584c0.361-0.391,0.543-0.883,0.543-1.48V16923.18z"/>
			<path fill="#999999" d="M-11788.74,16926.721h-1.572l-3.09-3.363h-0.027v3.363h-1.121v-10.363h1.121v6.57h0.027l2.939-3.207h1.47
				l-3.247,3.377L-11788.74,16926.721z"/>
			<path fill="#999999" d="M-11787.202,16926.871c-0.209,0-0.389-0.074-0.537-0.225c-0.147-0.15-0.222-0.33-0.222-0.541
				c0-0.209,0.074-0.391,0.222-0.543c0.148-0.152,0.328-0.229,0.537-0.229c0.215,0,0.396,0.076,0.547,0.229s0.226,0.334,0.226,0.543
				c0,0.211-0.075,0.391-0.226,0.541S-11786.987,16926.871-11787.202,16926.871z"/>
			<path fill="#999999" d="M-11779.785,16926.4c-0.538,0.322-1.176,0.484-1.914,0.484c-0.998,0-1.804-0.324-2.417-0.975
				c-0.612-0.648-0.919-1.49-0.919-2.525c0-1.152,0.331-2.078,0.991-2.779c0.66-0.699,1.543-1.049,2.646-1.049
				c0.615,0,1.157,0.115,1.627,0.342v1.148c-0.52-0.363-1.075-0.547-1.668-0.547c-0.716,0-1.302,0.256-1.761,0.77
				c-0.457,0.512-0.687,1.186-0.687,2.02c0,0.82,0.216,1.469,0.646,1.941c0.432,0.475,1.009,0.711,1.733,0.711
				c0.61,0,1.185-0.203,1.723-0.607v1.066H-11779.785z"/>
			<path fill="#999999" d="M-11775.164,16926.885c-1.034,0-1.86-0.326-2.478-0.98c-0.618-0.654-0.927-1.521-0.927-2.602
				c0-1.176,0.321-2.094,0.964-2.754c0.643-0.662,1.511-0.992,2.604-0.992c1.044,0,1.858,0.322,2.444,0.965
				c0.585,0.643,0.878,1.533,0.878,2.672c0,1.117-0.315,2.012-0.946,2.684S-11774.103,16926.885-11775.164,16926.885z
				 M-11775.082,16920.5c-0.72,0-1.29,0.246-1.709,0.734c-0.419,0.49-0.629,1.166-0.629,2.027c0,0.83,0.212,1.484,0.636,1.963
				s0.991,0.717,1.702,0.717c0.725,0,1.282-0.234,1.671-0.703c0.391-0.471,0.585-1.137,0.585-2.004c0-0.875-0.194-1.549-0.585-2.023
				C-11773.8,16920.738-11774.357,16920.5-11775.082,16920.5z"/>
		</g>
		<g id="lock" transform="translate(14.489 10.449)">
			<g id="XMLID_510_">
				<path fill="#24B77E" d="M-11962.141,16920.9h11.455c0.474,0,0.858-0.385,0.858-0.859l0,0v-9.74c0-0.475-0.385-0.859-0.858-0.859
					l0,0h-0.859v-2.574c0-2.688-2.18-4.867-4.868-4.867c-2.689,0-4.869,2.18-4.869,4.867v2.578h-0.858
					c-0.473,0-0.856,0.383-0.859,0.855v9.736c-0.002,0.475,0.381,0.861,0.855,0.863
					C-11962.144,16920.9-11962.143,16920.9-11962.141,16920.9z M-11955.554,16915.457v1.143c0,0.475-0.384,0.859-0.858,0.861
					c-0.475,0-0.859-0.385-0.86-0.859c0,0,0,0,0-0.002v-1.141c-0.632-0.475-0.761-1.371-0.286-2.004s1.372-0.762,2.005-0.287
					s0.761,1.371,0.286,2.004c-0.081,0.109-0.178,0.205-0.286,0.287V16915.457z M-11959.563,16906.867
					c0.001-1.738,1.412-3.148,3.152-3.146c1.738,0,3.147,1.408,3.148,3.146v2.578h-6.301V16906.867z"/>
			</g>
		</g>
	</g>
</g>
</svg>
