<?xml version="1.0" encoding="utf-8"?>
<!-- Generator: Adobe Illustrator 21.0.0, SVG Export Plug-In . SVG Version: 6.00 Build 0)  -->
<svg version="1.1" id="Layer_1" xmlns="http://www.w3.org/2000/svg" xmlns:xlink="http://www.w3.org/1999/xlink" x="0px" y="0px"
	 viewBox="0 0 300.5 300.02" enable-background="new 0 0 300.5 300.02" xml:space="preserve">
<path id="Path_6121" fill="#288ED9" d="M150,0c82.843,0,150,67.157,150,150s-67.157,150-150,150S0,232.843,0,150S67.157,0,150,0z"/>
<path id="Path_6111" fill="none" d="M158.4,97.5l-16.063,32.935H37.5v118.777c54.828,62.12,149.634,68.03,211.753,13.202
	c47.932-42.306,63.788-110.341,39.497-169.479h-123.1C162.556,92.935,159.737,94.71,158.4,97.5z"/>
<g transform="matrix(1, 0, 0, 1, -10959, 17845)">
	<path id="Path_6112-2" fill="#005B9F" d="M10996.5-17595.783c54.785,62.141,149.573,68.104,211.714,13.316
		c51.743-45.617,65.703-120.646,33.83-181.822H10996.5V-17595.783z"/>
</g>
<path id="Path_6113" fill="#288ED9" stroke="#0D7BCC" stroke-width="0.5" stroke-miterlimit="10" d="M165.734,92.935
	c-3.111,0.017-5.947,1.782-7.337,4.565l-16.06,32.935H37.5v56.25h257.935c3.016-11.996,4.549-24.316,4.565-36.685
	c0.027-19.575-3.796-38.965-11.25-57.065H165.734z"/>
<path id="Path_6114" fill="#FFBC98" d="M65.625,113.718L65.625,113.718c-4.495-0.013-8.137-3.653-8.152-8.148l0,0
	c0.013-4.497,3.655-8.139,8.152-8.152l0,0c4.497,0.013,8.139,3.655,8.152,8.152l0,0C73.762,110.065,70.12,113.705,65.625,113.718z"
	/>
<path id="Path_6115" fill="#288ED9" d="M93.342,113.718L93.342,113.718c-4.495-0.013-8.137-3.653-8.152-8.148l0,0
	c0.013-4.497,3.655-8.139,8.152-8.152l0,0c4.497,0.013,8.139,3.655,8.152,8.152l0,0C101.479,110.065,97.837,113.705,93.342,113.718z
	"/>
<path id="Path_6116" fill="#21E2E2" d="M121.06,113.718L121.06,113.718c-4.495-0.013-8.137-3.653-8.152-8.148l0,0
	c0.013-4.497,3.655-8.139,8.152-8.152l0,0c4.497,0.013,8.139,3.655,8.152,8.152l0,0C129.197,110.065,125.555,113.705,121.06,113.718
	z"/>
<path id="Path_6117" fill="#FFFFFF" stroke="#FFFFFF" stroke-miterlimit="10" d="M92.609,179.348h204.538
	c1.905-9.666,2.861-19.496,2.853-29.348c0-3.832-0.163-7.663-0.408-11.413H92.609V179.348z"/>
<path id="Path_6118" fill="#DDFFB6" d="M290.003,143.478H102.161c-2.656,0-4.743,1.793-4.743,4.076v22.824
	c0,2.283,2.087,4.076,4.743,4.076h187.842c2.656,0,4.743-1.793,4.743-4.076v-22.824
	C294.747,145.271,292.659,143.478,290.003,143.478z"/>
<g enable-background="new    ">
	<path fill="#24B77E" d="M126.607,159.627v3.705h-1.148v-9.803h2.693c1.048,0,1.86,0.255,2.437,0.766s0.865,1.23,0.865,2.16
		s-0.32,1.69-0.96,2.283s-1.505,0.889-2.594,0.889H126.607z M126.607,154.568v4.02h1.203c0.793,0,1.398-0.182,1.815-0.543
		c0.417-0.363,0.625-0.874,0.625-1.535c0-1.294-0.766-1.941-2.297-1.941H126.607z"/>
	<path fill="#24B77E" d="M137.682,163.332h-1.121v-1.094h-0.027c-0.488,0.839-1.206,1.258-2.153,1.258
		c-0.697,0-1.243-0.185-1.637-0.554s-0.591-0.859-0.591-1.47c0-1.308,0.77-2.069,2.311-2.283l2.099-0.294
		c0-1.189-0.481-1.784-1.442-1.784c-0.843,0-1.604,0.287-2.283,0.861v-1.148c0.688-0.438,1.481-0.656,2.379-0.656
		c1.645,0,2.468,0.87,2.468,2.611V163.332z M136.561,159.791l-1.688,0.232c-0.52,0.073-0.912,0.201-1.176,0.387
		c-0.264,0.184-0.396,0.511-0.396,0.98c0,0.342,0.122,0.621,0.366,0.838c0.244,0.216,0.568,0.324,0.974,0.324
		c0.556,0,1.015-0.195,1.377-0.584c0.362-0.391,0.543-0.884,0.543-1.48V159.791z"/>
	<path fill="#24B77E" d="M143.444,157.467c-0.196-0.15-0.479-0.226-0.848-0.226c-0.479,0-0.878,0.226-1.2,0.677
		s-0.482,1.066-0.482,1.846v3.568h-1.121v-7h1.121v1.442h0.027c0.16-0.492,0.403-0.876,0.731-1.151
		c0.328-0.276,0.695-0.414,1.101-0.414c0.292,0,0.515,0.032,0.67,0.096V157.467z"/>
	<path fill="#24B77E" d="M144.237,163.079v-1.203c0.611,0.451,1.283,0.677,2.017,0.677c0.984,0,1.477-0.328,1.477-0.984
		c0-0.187-0.042-0.346-0.126-0.475c-0.084-0.131-0.198-0.245-0.342-0.346s-0.312-0.19-0.506-0.27
		c-0.194-0.08-0.402-0.163-0.625-0.25c-0.31-0.123-0.582-0.247-0.817-0.373c-0.235-0.125-0.431-0.266-0.588-0.424
		c-0.157-0.156-0.276-0.336-0.355-0.536s-0.12-0.436-0.12-0.704c0-0.328,0.075-0.619,0.226-0.871
		c0.15-0.254,0.351-0.465,0.602-0.637c0.25-0.17,0.537-0.299,0.858-0.386s0.653-0.13,0.995-0.13c0.606,0,1.148,0.104,1.627,0.314
		v1.135c-0.515-0.337-1.107-0.506-1.777-0.506c-0.209,0-0.399,0.023-0.567,0.072c-0.168,0.047-0.313,0.114-0.434,0.201
		s-0.214,0.19-0.28,0.311c-0.066,0.121-0.099,0.255-0.099,0.4c0,0.183,0.033,0.335,0.099,0.458s0.163,0.232,0.291,0.328
		s0.283,0.183,0.465,0.26s0.39,0.162,0.622,0.253c0.31,0.118,0.588,0.24,0.834,0.365c0.246,0.126,0.456,0.268,0.629,0.424
		c0.173,0.158,0.307,0.339,0.4,0.544s0.14,0.449,0.14,0.731c0,0.347-0.076,0.647-0.229,0.902s-0.356,0.467-0.612,0.636
		s-0.549,0.294-0.882,0.376s-0.681,0.123-1.046,0.123C145.39,163.496,144.766,163.357,144.237,163.079z"/>
	<path fill="#24B77E" d="M151.9,159.627v3.705h-1.148v-9.803h2.693c1.048,0,1.86,0.255,2.438,0.766
		c0.576,0.511,0.864,1.23,0.864,2.16s-0.32,1.69-0.96,2.283c-0.641,0.593-1.505,0.889-2.595,0.889H151.9z M151.9,154.568v4.02h1.203
		c0.793,0,1.398-0.182,1.815-0.543c0.417-0.363,0.625-0.874,0.625-1.535c0-1.294-0.766-1.941-2.297-1.941H151.9z"/>
	<path fill="#24B77E" d="M162.975,163.332h-1.121v-1.094h-0.027c-0.488,0.839-1.205,1.258-2.153,1.258
		c-0.697,0-1.243-0.185-1.638-0.554c-0.394-0.369-0.591-0.859-0.591-1.47c0-1.308,0.771-2.069,2.311-2.283l2.099-0.294
		c0-1.189-0.48-1.784-1.442-1.784c-0.843,0-1.604,0.287-2.283,0.861v-1.148c0.688-0.438,1.481-0.656,2.379-0.656
		c1.646,0,2.468,0.87,2.468,2.611V163.332z M161.854,159.791l-1.688,0.232c-0.52,0.073-0.911,0.201-1.176,0.387
		c-0.265,0.184-0.396,0.511-0.396,0.98c0,0.342,0.122,0.621,0.366,0.838c0.243,0.216,0.568,0.324,0.974,0.324
		c0.556,0,1.015-0.195,1.378-0.584c0.361-0.391,0.543-0.884,0.543-1.48V159.791z"/>
	<path fill="#24B77E" d="M168.737,157.467c-0.196-0.15-0.479-0.226-0.848-0.226c-0.479,0-0.878,0.226-1.2,0.677
		c-0.32,0.451-0.481,1.066-0.481,1.846v3.568h-1.121v-7h1.121v1.442h0.027c0.159-0.492,0.403-0.876,0.731-1.151
		c0.328-0.276,0.695-0.414,1.101-0.414c0.292,0,0.515,0.032,0.67,0.096V157.467z"/>
	<path fill="#24B77E" d="M175.457,156.332l-2.789,7h-1.101l-2.652-7h1.23l1.777,5.086c0.132,0.374,0.214,0.699,0.246,0.978h0.027
		c0.046-0.351,0.118-0.668,0.219-0.95l1.859-5.113H175.457z"/>
	<path fill="#24B77E" d="M181.671,163.332h-1.121v-1.094h-0.027c-0.487,0.839-1.206,1.258-2.153,1.258
		c-0.697,0-1.243-0.185-1.637-0.554c-0.395-0.369-0.592-0.859-0.592-1.47c0-1.308,0.77-2.069,2.311-2.283l2.099-0.294
		c0-1.189-0.481-1.784-1.442-1.784c-0.844,0-1.604,0.287-2.283,0.861v-1.148c0.688-0.438,1.48-0.656,2.379-0.656
		c1.645,0,2.468,0.87,2.468,2.611V163.332z M180.55,159.791l-1.688,0.232c-0.52,0.073-0.912,0.201-1.176,0.387
		c-0.264,0.184-0.396,0.511-0.396,0.98c0,0.342,0.122,0.621,0.365,0.838c0.244,0.216,0.568,0.324,0.975,0.324
		c0.557,0,1.016-0.195,1.377-0.584c0.363-0.391,0.544-0.884,0.544-1.48V159.791z"/>
	<path fill="#24B77E" d="M183.476,162.936v-1.354c0.155,0.137,0.341,0.26,0.558,0.369c0.216,0.109,0.443,0.201,0.684,0.277
		c0.238,0.074,0.479,0.133,0.721,0.174s0.465,0.062,0.67,0.062c0.707,0,1.234-0.131,1.582-0.394c0.35-0.262,0.523-0.639,0.523-1.131
		c0-0.265-0.059-0.494-0.174-0.69c-0.117-0.196-0.277-0.375-0.482-0.536c-0.205-0.162-0.447-0.317-0.729-0.465
		c-0.279-0.148-0.582-0.305-0.905-0.469c-0.342-0.173-0.661-0.349-0.957-0.526s-0.554-0.374-0.772-0.588s-0.391-0.457-0.516-0.728
		c-0.126-0.271-0.188-0.59-0.188-0.954c0-0.446,0.099-0.835,0.294-1.165c0.195-0.331,0.453-0.604,0.772-0.817
		s0.683-0.374,1.091-0.479c0.407-0.104,0.823-0.157,1.247-0.157c0.966,0,1.671,0.116,2.112,0.349v1.292
		c-0.578-0.401-1.322-0.602-2.229-0.602c-0.25,0-0.502,0.026-0.752,0.078c-0.25,0.053-0.475,0.139-0.67,0.257
		s-0.355,0.271-0.479,0.458s-0.185,0.415-0.185,0.684c0,0.251,0.047,0.467,0.14,0.649c0.094,0.183,0.232,0.349,0.414,0.499
		s0.404,0.296,0.666,0.438c0.263,0.142,0.564,0.296,0.906,0.465c0.352,0.173,0.684,0.355,0.998,0.547s0.59,0.403,0.827,0.636
		s0.425,0.49,0.563,0.772c0.14,0.282,0.209,0.606,0.209,0.971c0,0.483-0.095,0.893-0.283,1.227
		c-0.189,0.336-0.445,0.607-0.766,0.817c-0.322,0.21-0.691,0.361-1.111,0.454c-0.42,0.094-0.861,0.141-1.326,0.141
		c-0.154,0-0.346-0.013-0.574-0.037c-0.229-0.025-0.461-0.063-0.697-0.109c-0.236-0.049-0.461-0.107-0.674-0.178
		C183.773,163.101,183.604,163.022,183.476,162.936z"/>
	<path fill="#24B77E" d="M196.382,156.332l-3.22,8.121c-0.574,1.449-1.381,2.174-2.42,2.174c-0.291,0-0.535-0.029-0.731-0.089
		v-1.005c0.241,0.082,0.462,0.123,0.663,0.123c0.564,0,0.988-0.337,1.271-1.012l0.561-1.326l-2.734-6.986h1.244l1.894,5.387
		c0.022,0.068,0.071,0.246,0.144,0.533h0.041c0.023-0.109,0.068-0.282,0.137-0.52l1.989-5.4H196.382z"/>
	<path fill="#24B77E" d="M205.686,163.264c-0.27,0.146-0.617,0.219-1.046,0.219c-1.226,0-1.839-0.684-1.839-2.051v-4.143h-3.097
		c-0.21,0-0.399,0.015-0.567,0.045c-0.168,0.029-0.313,0.076-0.434,0.14c-0.121,0.063-0.215,0.147-0.281,0.249
		c-0.065,0.104-0.099,0.228-0.099,0.373c0,0.183,0.033,0.335,0.099,0.458c0.066,0.123,0.164,0.232,0.291,0.328
		s0.283,0.183,0.465,0.26s0.39,0.162,0.622,0.253c0.31,0.118,0.588,0.24,0.834,0.365c0.246,0.126,0.456,0.268,0.629,0.424
		c0.173,0.158,0.307,0.34,0.399,0.547c0.094,0.208,0.141,0.45,0.141,0.729c0,0.347-0.076,0.647-0.229,0.902
		c-0.153,0.255-0.357,0.467-0.612,0.636s-0.55,0.294-0.886,0.376c-0.334,0.082-0.682,0.123-1.042,0.123
		c-0.725,0-1.349-0.139-1.873-0.417v-1.203c0.606,0.451,1.278,0.677,2.017,0.677c0.984,0,1.477-0.328,1.477-0.984
		c0-0.178-0.042-0.33-0.127-0.458c-0.084-0.128-0.197-0.243-0.342-0.345c-0.143-0.104-0.312-0.196-0.506-0.281
		c-0.193-0.084-0.402-0.169-0.625-0.256c-0.311-0.123-0.582-0.247-0.816-0.373c-0.235-0.125-0.432-0.266-0.588-0.424
		c-0.158-0.156-0.276-0.336-0.355-0.536c-0.08-0.2-0.12-0.436-0.12-0.704c0-0.328,0.069-0.609,0.208-0.844
		c0.14-0.235,0.322-0.428,0.547-0.578c0.227-0.15,0.482-0.261,0.77-0.332c0.287-0.07,0.576-0.105,0.868-0.105h3.233v-1.709
		l1.121-0.362v2.071h1.764v0.957h-1.764v3.944c0,0.47,0.08,0.805,0.239,1.005s0.424,0.301,0.793,0.301
		c0.287,0,0.53-0.077,0.731-0.232V163.264z"/>
	<path fill="#24B77E" d="M212.809,160.112h-4.942c0.019,0.779,0.228,1.381,0.629,1.805s0.952,0.636,1.654,0.636
		c0.788,0,1.513-0.26,2.174-0.779v1.053c-0.615,0.446-1.429,0.67-2.44,0.67c-0.988,0-1.766-0.318-2.331-0.953
		c-0.565-0.637-0.848-1.53-0.848-2.684c0-1.089,0.309-1.977,0.927-2.662c0.617-0.687,1.384-1.029,2.3-1.029s1.624,0.296,2.126,0.889
		s0.752,1.415,0.752,2.468V160.112z M211.66,159.162c-0.004-0.647-0.16-1.15-0.469-1.511c-0.307-0.36-0.734-0.54-1.281-0.54
		c-0.529,0-0.978,0.189-1.347,0.567s-0.597,0.873-0.684,1.483H211.66z"/>
	<path fill="#24B77E" d="M224.443,163.332h-1.121v-4.02c0-0.774-0.119-1.335-0.359-1.682c-0.238-0.347-0.641-0.52-1.206-0.52
		c-0.479,0-0.886,0.219-1.22,0.656c-0.336,0.438-0.503,0.962-0.503,1.572v3.992h-1.121v-4.156c0-1.376-0.53-2.064-1.593-2.064
		c-0.492,0-0.898,0.206-1.217,0.619c-0.318,0.412-0.479,0.948-0.479,1.609v3.992h-1.121v-7h1.121v1.107h0.027
		c0.496-0.848,1.221-1.271,2.174-1.271c0.479,0,0.896,0.133,1.251,0.4c0.355,0.266,0.599,0.616,0.731,1.049
		c0.52-0.966,1.295-1.449,2.324-1.449c1.541,0,2.311,0.95,2.311,2.851V163.332z"/>
</g>
<g enable-background="new    ">
</g>
<g enable-background="new    ">
	<path fill="#24B77E" d="M234.827,165.561h-2.516v-12.031h2.516v0.813h-1.518v10.404h1.518V165.561z"/>
	<path fill="#24B77E" d="M237.603,163.332h-1.148v-9.803h1.148V163.332z"/>
	<path fill="#24B77E" d="M247.207,163.332h-1.367l-1.641-2.748c-0.15-0.255-0.297-0.473-0.438-0.652
		c-0.141-0.181-0.286-0.327-0.434-0.441c-0.148-0.114-0.309-0.197-0.479-0.25c-0.172-0.052-0.363-0.078-0.578-0.078h-0.943v4.17
		h-1.148v-9.803h2.926c0.428,0,0.824,0.054,1.186,0.16c0.363,0.107,0.678,0.271,0.943,0.489c0.268,0.219,0.476,0.491,0.626,0.817
		c0.15,0.325,0.226,0.707,0.226,1.145c0,0.342-0.051,0.655-0.154,0.939c-0.102,0.285-0.248,0.539-0.438,0.763
		c-0.188,0.224-0.416,0.413-0.684,0.571c-0.266,0.156-0.566,0.278-0.898,0.365v0.027c0.164,0.073,0.307,0.156,0.428,0.25
		c0.12,0.093,0.235,0.203,0.345,0.331s0.218,0.272,0.325,0.435c0.106,0.161,0.227,0.35,0.358,0.563L247.207,163.332z
		 M241.328,154.568v3.555h1.559c0.287,0,0.553-0.043,0.797-0.13c0.243-0.087,0.454-0.211,0.632-0.372
		c0.178-0.162,0.317-0.36,0.417-0.596c0.1-0.234,0.15-0.497,0.15-0.789c0-0.524-0.17-0.934-0.51-1.227
		c-0.339-0.295-0.83-0.441-1.473-0.441H241.328z"/>
	<path fill="#24B77E" d="M250.14,165.561h-2.509v-0.813h1.511v-10.404h-1.511v-0.813h2.509V165.561z"/>
</g>
<g enable-background="new    ">
</g>
<g enable-background="new    ">
	<path fill="#24B77E" d="M262.867,163.332h-1.121v-4.033c0-1.458-0.543-2.188-1.627-2.188c-0.547,0-1.008,0.211-1.381,0.633
		c-0.373,0.421-0.561,0.962-0.561,1.623v3.965h-1.121v-10.363h1.121v4.525h0.027c0.537-0.884,1.303-1.326,2.297-1.326
		c1.576,0,2.365,0.95,2.365,2.851V163.332z"/>
	<path fill="#24B77E" d="M268.227,163.264c-0.264,0.146-0.613,0.219-1.046,0.219c-1.226,0-1.839-0.684-1.839-2.051v-4.143h-1.203
		v-0.957h1.203v-1.709l1.121-0.362v2.071h1.764v0.957h-1.764v3.944c0,0.47,0.08,0.805,0.239,1.005s0.424,0.301,0.793,0.301
		c0.282,0,0.526-0.077,0.731-0.232V163.264z"/>
	<path fill="#24B77E" d="M272.971,163.264c-0.264,0.146-0.613,0.219-1.046,0.219c-1.226,0-1.839-0.684-1.839-2.051v-4.143h-1.203
		v-0.957h1.203v-1.709l1.121-0.362v2.071h1.764v0.957h-1.764v3.944c0,0.47,0.08,0.805,0.239,1.005s0.424,0.301,0.793,0.301
		c0.282,0,0.526-0.077,0.731-0.232V163.264z"/>
	<path fill="#24B77E" d="M275.616,162.32h-0.027v4.231h-1.121v-10.22h1.121v1.23h0.027c0.552-0.93,1.358-1.395,2.42-1.395
		c0.902,0,1.606,0.313,2.112,0.939c0.506,0.627,0.759,1.467,0.759,2.52c0,1.171-0.284,2.109-0.854,2.813
		c-0.57,0.705-1.35,1.057-2.338,1.057C276.809,163.496,276.108,163.104,275.616,162.32z M275.589,159.497v0.978
		c0,0.579,0.188,1.07,0.563,1.473c0.377,0.404,0.854,0.605,1.433,0.605c0.679,0,1.211-0.26,1.597-0.779
		c0.385-0.52,0.577-1.242,0.577-2.167c0-0.779-0.181-1.39-0.54-1.832s-0.848-0.663-1.463-0.663c-0.652,0-1.176,0.227-1.572,0.68
		C275.787,158.245,275.589,158.813,275.589,159.497z"/>
</g>
<g id="lock" transform="translate(284.143 1092.069)">
	<path id="XMLID_510_" fill="#24B77E" d="M-178.138-924.041h11.49c0.476,0,0.862-0.386,0.862-0.862v-9.766
		c0-0.476-0.386-0.862-0.862-0.862h-0.862v-2.586c0-2.697-2.186-4.883-4.883-4.883s-4.883,2.186-4.883,4.883v2.586h-0.862
		c-0.476,0.001-0.861,0.386-0.861,0.862v9.769C-178.998-924.425-178.613-924.041-178.138-924.041z M-171.531-929.5v1.15
		c0,0.476-0.385,0.862-0.861,0.863c-0.476,0-0.862-0.385-0.863-0.861c0-0.001,0-0.001,0-0.002v-1.15
		c-0.634-0.476-0.763-1.376-0.286-2.01c0.476-0.634,1.376-0.763,2.01-0.286c0.634,0.476,0.763,1.376,0.286,2.01
		C-171.326-929.678-171.422-929.581-171.531-929.5z M-175.553-938.117c0.001-1.745,1.416-3.159,3.161-3.159
		c1.744,0.001,3.158,1.415,3.159,3.159v2.586h-6.32V-938.117z"/>
</g>
<g id="Group_7438" transform="translate(252.694 1098.153) rotate(90)">
	
		<line id="Line_4" fill="none" stroke="#FFFFFF" stroke-width="2" stroke-linecap="round" stroke-miterlimit="10" x1="-930.888" y1="190.875" x2="-936.944" y2="196.879"/>
	
		<line id="Line_5" fill="none" stroke="#FFFFFF" stroke-width="2" stroke-linecap="round" stroke-miterlimit="10" x1="-936.944" y1="196.879" x2="-943" y2="190.875"/>
	
		<line id="Line_10" fill="none" stroke="#FFFFFF" stroke-width="2" stroke-linecap="round" stroke-miterlimit="10" x1="-936.986" y1="196.039" x2="-937.16" y2="179"/>
</g>
</svg>
