<?xml version="1.0" encoding="utf-8"?>
<!-- Generator: Adobe Illustrator 22.0.1, SVG Export Plug-In . SVG Version: 6.00 Build 0)  -->
<svg version="1.1" id="Layer_1" xmlns="http://www.w3.org/2000/svg" xmlns:xlink="http://www.w3.org/1999/xlink" x="0px" y="0px"
	 viewBox="0 0 169 150" style="enable-background:new 0 0 169 150;" xml:space="preserve">
<style type="text/css">
	.st0{fill:#C6E6FF;}
	.st1{fill:#164571;}
	.st2{fill:#0E71BB;}
	.st3{fill:#005B9F;}
	.st4{fill:#21E2E2;}
	.st5{fill:#FFBC98;}
	.st6{fill:#52ACEA;}
	.st7{fill:#1D8AB6;}
</style>
<g id="Group_8505" transform="translate(-590.726 -2685.409)">
	<path id="Path_6215" class="st0" d="M687,2699.5c-27,7.8-54.5,6.4-54.5,6.4s-36.1-2.8-36.8,39.1c-0.7,41.9,8.8,60.7,52.8,59.1
		c44-1.6,47,11.5,78.3,4.1C758.2,2800.7,783,2672.2,687,2699.5z"/>
	<g id="Group_8436" transform="translate(-155)">
		<rect id="Rectangle_3498" x="778.7" y="2749.4" class="st1" width="101.4" height="53.3"/>
		<g id="Group_8435" transform="translate(560 -407)">
			<g id="Group_5865_1_" transform="translate(237 3263.773) rotate(-90)">
				<g id="Group_5793_1_" transform="translate(0 0)">
					<g id="Group_5744_1_" transform="translate(41.774 0) rotate(90)">
						<path id="Path_3764_1_" class="st2" d="M-20.7-55.9H84.5c2.1,0,3.7,1.6,3.8,3.7v23.6c0,2.1-1.7,3.7-3.8,3.7H-20.7
							c-2.1,0-3.7-1.6-3.8-3.7v-23.6C-24.4-54.3-22.7-56-20.7-55.9z"/>
						<path id="Rectangle_1631_1_" class="st3" d="M-22-55.9H9.9l0,0V-25l0,0H-22c-1.6,0-3-1.3-3-3v-25C-25-54.6-23.6-55.9-22-55.9z
							"/>
						<g id="Group_5597_1_" transform="translate(11.511 15.776)">
							<path id="Rectangle_1425_1_" class="st4" d="M-24.4-60L-24.4-60c2,0,3.6,1.6,3.6,3.6v0.3c0,2-1.6,3.6-3.6,3.6l0,0
								c-2,0-3.6-1.6-3.6-3.6v-0.3C-28-58.4-26.4-60-24.4-60z"/>
							<path id="Rectangle_1442_1_" class="st5" d="M-13.9-60L-13.9-60c2,0,3.6,1.6,3.6,3.6v0.3c0,2-1.6,3.6-3.6,3.6l0,0
								c-2,0-3.6-1.6-3.6-3.6v-0.3C-17.5-58.4-15.9-60-13.9-60z"/>
						</g>
						<g id="Group_5710_1_" transform="translate(58.996 11.001)">
							<g id="Group_5584_1_" transform="translate(0 0)">
								<path id="Rectangle_1405_1_" class="st6" d="M-37.9-58.8L-37.9-58.8c1.3,0,2.4,1.1,2.4,2.4l0,0c0,1.3-1.1,2.4-2.4,2.4l0,0
									c-1.3,0-2.4-1.1-2.4-2.4l0,0C-40.3-57.7-39.2-58.8-37.9-58.8z"/>
								<path id="Rectangle_1424_1_" class="st6" d="M-32-49.1L-32-49.1c1.3,0,2.4,1.1,2.4,2.4l0,0c0,1.3-1.1,2.4-2.4,2.4l0,0
									c-1.3,0-2.4-1.1-2.4-2.4l0,0C-34.5-48-33.4-49.1-32-49.1z"/>
								<path id="Rectangle_1410_1_" class="st6" d="M10.8-58.8L10.8-58.8c1.3,0,2.4,1.1,2.4,2.4l0,0c0,1.3-1.1,2.4-2.4,2.4l0,0
									c-1.3,0-2.4-1.1-2.4-2.4l0,0C8.3-57.7,9.4-58.8,10.8-58.8z"/>
								<path id="Rectangle_1419_1_" class="st6" d="M16.6-49.1L16.6-49.1c1.3,0,2.4,1.1,2.4,2.4l0,0c0,1.3-1.1,2.4-2.4,2.4l0,0
									c-1.3,0-2.4-1.1-2.4-2.4l0,0C14.2-48,15.3-49.1,16.6-49.1z"/>
								<path id="Rectangle_1406_1_" class="st6" d="M-28.1-58.8L-28.1-58.8c1.3,0,2.4,1.1,2.4,2.4l0,0c0,1.3-1.1,2.4-2.4,2.4l0,0
									c-1.3,0-2.4-1.1-2.4-2.4l0,0C-30.6-57.7-29.5-58.8-28.1-58.8z"/>
								<path id="Rectangle_1423_1_" class="st6" d="M-22.3-49.1L-22.3-49.1c1.3,0,2.4,1.1,2.4,2.4l0,0c0,1.3-1.1,2.4-2.4,2.4l0,0
									c-1.3,0-2.4-1.1-2.4-2.4l0,0C-24.7-48-23.7-49.1-22.3-49.1z"/>
								<path id="Rectangle_1407_1_" class="st6" d="M-18.4-58.8L-18.4-58.8c1.3,0,2.4,1.1,2.4,2.4l0,0c0,1.3-1.1,2.4-2.4,2.4l0,0
									c-1.3,0-2.4-1.1-2.4-2.4l0,0C-20.9-57.7-19.8-58.8-18.4-58.8z"/>
								<path id="Rectangle_1422_1_" class="st6" d="M-12.6-49.1L-12.6-49.1c1.3,0,2.4,1.1,2.4,2.4l0,0c0,1.3-1.1,2.4-2.4,2.4l0,0
									c-1.3,0-2.4-1.1-2.4-2.4l0,0C-15-48-13.9-49.1-12.6-49.1z"/>
								<path id="Rectangle_1408_1_" class="st6" d="M-8.7-58.8L-8.7-58.8c1.3,0,2.4,1.1,2.4,2.4l0,0c0,1.3-1.1,2.4-2.4,2.4l0,0
									c-1.3,0-2.4-1.1-2.4-2.4l0,0C-11.1-57.7-10-58.8-8.7-58.8z"/>
								<path id="Rectangle_1421_1_" class="st6" d="M-2.9-49.1L-2.9-49.1c1.3,0,2.4,1.1,2.4,2.4l0,0c0,1.3-1.1,2.4-2.4,2.4l0,0
									c-1.3,0-2.4-1.1-2.4-2.4l0,0C-5.3-48-4.2-49.1-2.9-49.1z"/>
								<path id="Rectangle_1409_1_" class="st6" d="M1-58.8L1-58.8c1.3,0,2.4,1.1,2.4,2.4l0,0c0,1.3-1.1,2.4-2.4,2.4l0,0
									c-1.3,0-2.4-1.1-2.4-2.4l0,0C-1.4-57.7-0.3-58.8,1-58.8z"/>
								<path id="Rectangle_1420_1_" class="st6" d="M6.9-49.1L6.9-49.1c1.3,0,2.4,1.1,2.4,2.4l0,0c0,1.3-1.1,2.4-2.4,2.4l0,0
									c-1.3,0-2.4-1.1-2.4-2.4l0,0C4.4-48,5.5-49.1,6.9-49.1z"/>
							</g>
						</g>
					</g>
				</g>
			</g>
			<g id="Group_5866_1_" transform="translate(237 3311.043) rotate(-90)">
				<g id="Group_5793-2_1_" transform="translate(0 0)">
					<g id="Group_5744-2_1_" transform="translate(41.774 0) rotate(90)">
						<path id="Path_3764-2_1_" class="st2" d="M-20.7-68.2H84.5c2.1,0,3.7,1.6,3.8,3.7V-41c0,2.1-1.7,3.7-3.8,3.7H-20.7
							c-2.1,0-3.7-1.6-3.8-3.7v-23.6C-24.4-66.6-22.7-68.3-20.7-68.2z"/>
						<path id="Rectangle_1631-2_1_" class="st3" d="M-22-68.2H9.9l0,0v30.9l0,0H-22c-1.6,0-3-1.3-3-3v-25
							C-25-66.9-23.6-68.2-22-68.2z"/>
						<g id="Group_5597-2_1_" transform="translate(11.511 15.776)">
							<path id="Rectangle_1425-2_1_" class="st4" d="M-24.4-72.3L-24.4-72.3c2,0,3.6,1.6,3.6,3.6v0.3c0,2-1.6,3.6-3.6,3.6l0,0
								c-2,0-3.6-1.6-3.6-3.6v-0.3C-28-70.7-26.4-72.3-24.4-72.3z"/>
							<path id="Rectangle_1442-2_1_" class="st5" d="M-13.9-72.3L-13.9-72.3c2,0,3.6,1.6,3.6,3.6v0.3c0,2-1.6,3.6-3.6,3.6l0,0
								c-2,0-3.6-1.6-3.6-3.6v-0.3C-17.5-70.7-15.9-72.3-13.9-72.3z"/>
						</g>
						<g id="Group_5710-2_1_" transform="translate(58.996 11.001)">
							<g id="Group_5584-2_1_" transform="translate(0 0)">
								<path id="Rectangle_1405-2_1_" class="st6" d="M-37.9-71.1L-37.9-71.1c1.3,0,2.4,1.1,2.4,2.4l0,0c0,1.3-1.1,2.4-2.4,2.4l0,0
									c-1.3,0-2.4-1.1-2.4-2.4l0,0C-40.3-70-39.2-71.1-37.9-71.1z"/>
								<path id="Rectangle_1424-2_1_" class="st6" d="M-32-61.4L-32-61.4c1.3,0,2.4,1.1,2.4,2.4l0,0c0,1.3-1.1,2.4-2.4,2.4l0,0
									c-1.3,0-2.4-1.1-2.4-2.4l0,0C-34.5-60.3-33.4-61.4-32-61.4z"/>
								<path id="Rectangle_1410-2_1_" class="st6" d="M10.8-71.1L10.8-71.1c1.3,0,2.4,1.1,2.4,2.4l0,0c0,1.3-1.1,2.4-2.4,2.4l0,0
									c-1.3,0-2.4-1.1-2.4-2.4l0,0C8.3-70,9.4-71.1,10.8-71.1z"/>
								<path id="Rectangle_1419-2_1_" class="st6" d="M16.6-61.4L16.6-61.4c1.3,0,2.4,1.1,2.4,2.4l0,0c0,1.3-1.1,2.4-2.4,2.4l0,0
									c-1.3,0-2.4-1.1-2.4-2.4l0,0C14.2-60.3,15.3-61.4,16.6-61.4z"/>
								<path id="Rectangle_1406-2_1_" class="st6" d="M-28.1-71.1L-28.1-71.1c1.3,0,2.4,1.1,2.4,2.4l0,0c0,1.3-1.1,2.4-2.4,2.4l0,0
									c-1.3,0-2.4-1.1-2.4-2.4l0,0C-30.6-70-29.5-71.1-28.1-71.1z"/>
								<path id="Rectangle_1423-2_1_" class="st6" d="M-22.3-61.4L-22.3-61.4c1.3,0,2.4,1.1,2.4,2.4l0,0c0,1.3-1.1,2.4-2.4,2.4l0,0
									c-1.3,0-2.4-1.1-2.4-2.4l0,0C-24.7-60.3-23.7-61.4-22.3-61.4z"/>
								<path id="Rectangle_1407-2_1_" class="st6" d="M-18.4-71.1L-18.4-71.1c1.3,0,2.4,1.1,2.4,2.4l0,0c0,1.3-1.1,2.4-2.4,2.4l0,0
									c-1.3,0-2.4-1.1-2.4-2.4l0,0C-20.9-70-19.8-71.1-18.4-71.1z"/>
								<path id="Rectangle_1422-2_1_" class="st6" d="M-12.6-61.4L-12.6-61.4c1.3,0,2.4,1.1,2.4,2.4l0,0c0,1.3-1.1,2.4-2.4,2.4l0,0
									c-1.3,0-2.4-1.1-2.4-2.4l0,0C-15-60.3-13.9-61.4-12.6-61.4z"/>
								<path id="Rectangle_1408-2_1_" class="st6" d="M-8.7-71.1L-8.7-71.1c1.3,0,2.4,1.1,2.4,2.4l0,0c0,1.3-1.1,2.4-2.4,2.4l0,0
									c-1.3,0-2.4-1.1-2.4-2.4l0,0C-11.1-70-10-71.1-8.7-71.1z"/>
								<path id="Rectangle_1421-2_1_" class="st6" d="M-2.9-61.4L-2.9-61.4c1.3,0,2.4,1.1,2.4,2.4l0,0c0,1.3-1.1,2.4-2.4,2.4l0,0
									c-1.3,0-2.4-1.1-2.4-2.4l0,0C-5.3-60.3-4.2-61.4-2.9-61.4z"/>
								<path id="Rectangle_1409-2_1_" class="st6" d="M1-71.1L1-71.1c1.3,0,2.4,1.1,2.4,2.4l0,0c0,1.3-1.1,2.4-2.4,2.4l0,0
									c-1.3,0-2.4-1.1-2.4-2.4l0,0C-1.4-70-0.3-71.1,1-71.1z"/>
								<path id="Rectangle_1420-2_1_" class="st6" d="M6.9-61.4L6.9-61.4c1.3,0,2.4,1.1,2.4,2.4l0,0c0,1.3-1.1,2.4-2.4,2.4l0,0
									c-1.3,0-2.4-1.1-2.4-2.4l0,0C4.4-60.3,5.5-61.4,6.9-61.4z"/>
							</g>
						</g>
					</g>
				</g>
			</g>
			<g id="Group_5894_1_" transform="translate(237 3216.773) rotate(-90)">
				<g id="Group_5793-3_1_" transform="translate(0 0)">
					<g id="Group_5744-3_1_" transform="translate(41.774 0) rotate(90)">
						<path id="Path_3764-3_1_" class="st2" d="M-20.7-43.7H84.5c2.1,0,3.7,1.6,3.8,3.7v23.6c0,2.1-1.7,3.7-3.8,3.7H-20.7
							c-2.1,0-3.7-1.6-3.8-3.7V-40C-24.4-42.1-22.7-43.7-20.7-43.7z"/>
						<path id="Rectangle_1631-3_1_" class="st3" d="M-22-43.7H9.9l0,0v30.9l0,0H-22c-1.6,0-3-1.3-3-3v-25
							C-25-42.4-23.6-43.7-22-43.7z"/>
						<g id="Group_5597-3_1_" transform="translate(11.511 15.776)">
							<path id="Rectangle_1425-3_1_" class="st4" d="M-24.4-47.8L-24.4-47.8c2,0,3.6,1.6,3.6,3.6v0.3c0,2-1.6,3.6-3.6,3.6l0,0
								c-2,0-3.6-1.6-3.6-3.6v-0.3C-28-46.2-26.4-47.8-24.4-47.8z"/>
							<path id="Rectangle_1442-3_1_" class="st5" d="M-13.9-47.8L-13.9-47.8c2,0,3.6,1.6,3.6,3.6v0.3c0,2-1.6,3.6-3.6,3.6l0,0
								c-2,0-3.6-1.6-3.6-3.6v-0.3C-17.5-46.2-15.9-47.8-13.9-47.8z"/>
						</g>
						<g id="Group_5710-3_1_" transform="translate(58.996 11.001)">
							<g id="Group_5584-3_1_" transform="translate(0 0)">
								<path id="Rectangle_1405-3_1_" class="st6" d="M-37.9-46.6L-37.9-46.6c1.3,0,2.4,1.1,2.4,2.4l0,0c0,1.3-1.1,2.4-2.4,2.4l0,0
									c-1.3,0-2.4-1.1-2.4-2.4l0,0C-40.3-45.5-39.2-46.6-37.9-46.6z"/>
								<path id="Rectangle_1424-3_1_" class="st6" d="M-32-36.9L-32-36.9c1.3,0,2.4,1.1,2.4,2.4l0,0c0,1.3-1.1,2.4-2.4,2.4l0,0
									c-1.3,0-2.4-1.1-2.4-2.4l0,0C-34.5-35.8-33.4-36.9-32-36.9z"/>
								<path id="Rectangle_1410-3_1_" class="st6" d="M10.8-46.6L10.8-46.6c1.3,0,2.4,1.1,2.4,2.4l0,0c0,1.3-1.1,2.4-2.4,2.4l0,0
									c-1.3,0-2.4-1.1-2.4-2.4l0,0C8.3-45.5,9.4-46.6,10.8-46.6z"/>
								<path id="Rectangle_1419-3_1_" class="st6" d="M16.6-36.9L16.6-36.9c1.3,0,2.4,1.1,2.4,2.4l0,0c0,1.3-1.1,2.4-2.4,2.4l0,0
									c-1.3,0-2.4-1.1-2.4-2.4l0,0C14.2-35.8,15.3-36.9,16.6-36.9z"/>
								<path id="Rectangle_1406-3_1_" class="st6" d="M-28.1-46.6L-28.1-46.6c1.3,0,2.4,1.1,2.4,2.4l0,0c0,1.3-1.1,2.4-2.4,2.4l0,0
									c-1.3,0-2.4-1.1-2.4-2.4l0,0C-30.6-45.5-29.5-46.6-28.1-46.6z"/>
								<path id="Rectangle_1423-3_1_" class="st6" d="M-22.3-36.9L-22.3-36.9c1.3,0,2.4,1.1,2.4,2.4l0,0c0,1.3-1.1,2.4-2.4,2.4l0,0
									c-1.3,0-2.4-1.1-2.4-2.4l0,0C-24.7-35.8-23.7-36.9-22.3-36.9z"/>
								<path id="Rectangle_1407-3_1_" class="st6" d="M-18.4-46.6L-18.4-46.6c1.3,0,2.4,1.1,2.4,2.4l0,0c0,1.3-1.1,2.4-2.4,2.4l0,0
									c-1.3,0-2.4-1.1-2.4-2.4l0,0C-20.9-45.5-19.8-46.6-18.4-46.6z"/>
								<path id="Rectangle_1422-3_1_" class="st6" d="M-12.6-36.9L-12.6-36.9c1.3,0,2.4,1.1,2.4,2.4l0,0c0,1.3-1.1,2.4-2.4,2.4l0,0
									c-1.3,0-2.4-1.1-2.4-2.4l0,0C-15-35.8-13.9-36.9-12.6-36.9z"/>
								<path id="Rectangle_1408-3_1_" class="st6" d="M-8.7-46.6L-8.7-46.6c1.3,0,2.4,1.1,2.4,2.4l0,0c0,1.3-1.1,2.4-2.4,2.4l0,0
									c-1.3,0-2.4-1.1-2.4-2.4l0,0C-11.1-45.5-10-46.6-8.7-46.6z"/>
								<path id="Rectangle_1421-3_1_" class="st6" d="M-2.9-36.9L-2.9-36.9c1.3,0,2.4,1.1,2.4,2.4l0,0c0,1.3-1.1,2.4-2.4,2.4l0,0
									c-1.3,0-2.4-1.1-2.4-2.4l0,0C-5.3-35.8-4.2-36.9-2.9-36.9z"/>
								<path id="Rectangle_1409-3_1_" class="st6" d="M1-46.6L1-46.6c1.3,0,2.4,1.1,2.4,2.4l0,0c0,1.3-1.1,2.4-2.4,2.4l0,0
									c-1.3,0-2.4-1.1-2.4-2.4l0,0C-1.4-45.5-0.3-46.6,1-46.6z"/>
								<path id="Rectangle_1420-3_1_" class="st6" d="M6.9-36.9L6.9-36.9c1.3,0,2.4,1.1,2.4,2.4l0,0c0,1.3-1.1,2.4-2.4,2.4l0,0
									c-1.3,0-2.4-1.1-2.4-2.4l0,0C4.4-35.8,5.5-36.9,6.9-36.9z"/>
							</g>
						</g>
					</g>
				</g>
			</g>
		</g>
	</g>
	<g id="file" transform="translate(408.952 1108.195)">
		<path id="Subtraction_83" class="st7" d="M341.6,1716.9h-57.7v-66h37.9l19.8,19.8V1716.9L341.6,1716.9z"/>
		<g id="Group_5946" transform="translate(335.565 1706.895)">
			<g id="Group_5947">
				<path id="Subtraction_81" class="st4" d="M6.1,10h-57.7v-66h37.9v19.8H6.1V10z"/>
				<rect id="Rectangle_2799" x="-41.7" y="-24.6" class="st7" width="36.3" height="3"/>
				<rect id="Rectangle_2800" x="-41.7" y="-16.4" class="st7" width="36.3" height="3"/>
				<rect id="Rectangle_2801" x="-41.7" y="-8.2" class="st7" width="36.3" height="3"/>
			</g>
		</g>
	</g>
</g>
</svg>
