<?xml version="1.0" encoding="utf-8"?>
<!-- Generator: Adobe Illustrator 21.0.0, SVG Export Plug-In . SVG Version: 6.00 Build 0)  -->
<svg version="1.1" id="Layer_1" xmlns="http://www.w3.org/2000/svg" xmlns:xlink="http://www.w3.org/1999/xlink" x="0px" y="0px"
	 viewBox="0 0 310.5 247.7" enable-background="new 0 0 310.5 247.7" xml:space="preserve">
<g id="Group_8117" transform="translate(-9481 -2596)">
	
		<linearGradient id="Path_6241_1_" gradientUnits="userSpaceOnUse" x1="9365.9766" y1="3108.2939" x2="9365.9639" y2="3109.5669" gradientTransform="matrix(284.3767 34.9171 26.1209 -212.7378 -2735036.75 337086.4375)">
		<stop  offset="0" style="stop-color:#C6E6FF"/>
		<stop  offset="1" style="stop-color:#FFFFFF"/>
	</linearGradient>
	<path id="Path_6241" fill="url(#Path_6241_1_)" d="M9627.7,2630.3c-37,13.4-75,13.3-75,13.3s-69.9,11-57,78s15.5,89,47.9,94.7
		c30.8,4.7,41.6-6,71.9,0c26.6,5.4,69,7.7,116-4.5C9807.3,2788.9,9806.5,2566.6,9627.7,2630.3z"/>
	<g id="Group_8089" transform="translate(1.743 -297)">
		<g id="Group_8048" transform="translate(-76 145.645)">
			<path id="Path_4233" opacity="0.576" fill="#C6E6FF" enable-background="new    " d="M9847.6,2822.9c-9,5.8-27.3-7.7-41.2,5.8
				c-13.9,13.6-19.4-10.7-37.1-11.5c-17.7-0.8,27-32.7,55.1-15.9c7.3,4.4,29.6-1.2,33.1,1.4
				C9867.2,2809.5,9856.6,2817.2,9847.6,2822.9z"/>
			<path id="Path_4234" opacity="0.435" fill="#C6E6FF" enable-background="new    " d="M9650,2864.7c-9-7.5-30.7,4.8-43.9-11.8
				c-13.2-16.6-22.5,9-41.8,7.6c-19.3-1.5,21,45.6,53.7,31.1c8.5-3.8,27.8-3.4,32-5.7C9661.4,2879.7,9658.9,2872.1,9650,2864.7z"/>
		</g>
	</g>
	
		<linearGradient id="Ellipse_1407_1_" gradientUnits="userSpaceOnUse" x1="9375.2344" y1="3033.8213" x2="9375.2344" y2="3031.8174" gradientTransform="matrix(219.644 0 0 -33.286 -2049578.125 103716.6563)">
		<stop  offset="0" style="stop-color:#288ED9"/>
		<stop  offset="1" style="stop-color:#137FCF;stop-opacity:5.100000e-02"/>
	</linearGradient>
	<ellipse id="Ellipse_1407" fill="url(#Ellipse_1407_1_)" cx="9635.8" cy="2782.9" rx="109.8" ry="16.6"/>
	<g id="gift-box_1_" transform="translate(626.384 126.962)">
		<g id="Group_8104" transform="translate(-533 -1.827)">
			<path id="Path_5290" fill="#288ED9" d="M9545.6,2531.2h-78.9c-1.6,0-3,1.2-3,2.9v113c0,1.6,1.4,2.9,3,2.9h78.9c1.6,0,3-1.2,3-2.9
				v-113C9548.6,2532.5,9547.2,2531.2,9545.6,2531.2z"/>
			<path id="Path_5291" fill="#137FCF" d="M9468.9,2647.2v-113c0-1.6,1.4-2.9,3-2.9h-5.3c-1.6,0-3,1.2-3,2.9v113
				c0,1.6,1.4,2.9,3,2.9h5.3C9470.3,2650.1,9469,2648.8,9468.9,2647.2z"/>
			<rect id="Rectangle_2431" x="9463.6" y="2604.2" fill="#52ACEA" width="85" height="10.9"/>
			<rect id="Rectangle_2433" x="9488.1" y="2531.1" fill="#52ACEA" width="10.9" height="118.9"/>
			<path id="Path_5459" fill="#52ACEA" d="M9493.8,2650L9493.8,2650z"/>
			<g id="Group_5687" transform="translate(0 61.464)">
				<path id="Path_5297" fill="#21E2E2" d="M9519.8,2570.6c-2.7-4.4-8.4-12.9-14.6-18.2l-2.6-1.3c-0.7,1.6-2.2,2.6-4,2.6h-4.7
					c4.5,7.5,7.9,15.5,10.2,23.9l0,0c0.7,2.3,2.3,2.8,3.5,2.2l10.2-4.7c3.3-1.5,2.2-3.8,1.9-4.4L9519.8,2570.6z"/>
				<g id="Group_5666" transform="translate(0 0.001)">
					<path id="Path_5292" fill="#21E2E2" d="M9484.1,2544c0-0.6,0.1-1.2,0.4-1.7l-20.8-10.2c-1.1-0.5-7.7-3.4-7.7,3.9v22.1
						c0,7.3,6.6,4.4,7.7,3.9l20.8-10.2C9484,2550.7,9484.1,2550.6,9484.1,2544z"/>
					<path id="Path_5293" fill="#1BD0D0" d="M9523.4,2532.1l-20.8,10.2c0.2,0.5,0.4,1.1,0.4,1.7c0,6.5,0.1,6.7-0.4,7.7l20.8,10.2
						c1.1,0.5,7.7,3.4,7.7-3.9V2536C9531.1,2528.7,9524.5,2531.6,9523.4,2532.1z"/>
				</g>
				<path id="Path_5294" fill="#1BD0D0" d="M9461.7,2558.1V2536c0-2.2,0.6-3.4,1.4-4.1c-1.9-0.8-7.2-2.4-7.2,4.1v22.1
					c0,6.5,5.3,4.9,7.2,4.1C9462.3,2561.5,9461.7,2560.2,9461.7,2558.1z"/>
				<path id="Path_5295" fill="#21E2E2" d="M9488.4,2553.8c-1.7,0-3.3-1-4-2.6l-2.6,1.3c-6,5.1-11.5,13.2-14.3,17.7l0,0
					c-2.1,3.2,0.8,4.6,0.8,4.6l10,4.6c3.7,1.7,4.5-1.7,4.5-1.7l0,0c2.3-8.4,5.8-16.4,10.2-23.9H9488.4L9488.4,2553.8z"/>
				<path id="Path_5296" fill="#1BD0D0" d="M9472.6,2575.1L9472.6,2575.1c2.7-5.4,7.9-14.8,14-21.7c-1-0.4-1.8-1.2-2.2-2.2l-2.6,1.3
					c-6,5.1-11.5,13.2-14.3,17.7l0,0c-2.1,3.2,0.8,4.6,0.8,4.6l3.7,1.7C9472.2,2576,9472.4,2575.5,9472.6,2575.1z"/>
				<g id="Group_5667" transform="translate(27.968 8.455)">
					<path id="Path_5298" fill="#1BD0D0" d="M9472.7,2544.8c-1.2,0.6-1.6,0.5-6.6,0.5c4.5,7.5,7.9,15.5,10.2,23.9l0,0
						c0.7,2.3,2.3,2.8,3.5,2.2l3.2-1.5C9480.5,2561.2,9477,2552.8,9472.7,2544.8z"/>
					<path id="Path_5299" fill="#21E2E2" d="M9470.7,2531.1h-10.2c-2.5,0-4.5,2-4.5,4.5v6c0,2.5,2,4.5,4.5,4.5h10.2
						c2.5,0,4.5-2,4.5-4.5v-6C9475.2,2533.1,9473.2,2531.1,9470.7,2531.1z"/>
				</g>
				<g id="Path_5300" transform="translate(-153.392 -304.231)">
					<path fill="#1BD0D0" d="M9644.6,2858.2h-2.7c-2.2,0-4-1.8-4-4v-6c0-2.2,1.8-4,4-4h2.7c-1.2,0.9-2,2.3-2,4v6
						C9642.6,2855.9,9643.4,2857.3,9644.6,2858.2z"/>
					<path fill="#1BD0D0" d="M9643.3,2857.7c-0.8-0.9-1.2-2.1-1.2-3.5v-6c0-1.3,0.5-2.5,1.2-3.5h-1.5c-1.9,0-3.5,1.6-3.5,3.5v6
						c0,1.9,1.6,3.5,3.5,3.5H9643.3 M9647.5,2858.7h-5.7c-2.5,0-4.5-2-4.5-4.5v-6c0-2.5,2-4.5,4.5-4.5h5.7c-2.5,0-4.5,2-4.5,4.5v6
						C9643.1,2856.7,9645.1,2858.7,9647.5,2858.7z"/>
				</g>
			</g>
		</g>
	</g>
	<g id="Group_8103" transform="translate(8816 2585.98)">
		<g id="Group_8098" transform="translate(-8671.2 -2435.056)">
			<g id="Group_5583" transform="translate(0)">
				<g id="Group_5582" transform="translate(0)">
					<g id="Group_5581">
						<rect id="Rectangle_1565" x="9462.4" y="2559.9" fill="#164571" width="95.3" height="9.4"/>
						<path id="Path_3764" fill="#0E71BB" d="M9459.6,2531.1h100.8c2,0,3.6,1.6,3.6,3.6v23c0,2-1.6,3.6-3.6,3.6h-100.8
							c-2,0-3.6-1.6-3.6-3.6c0,0,0,0,0,0v-23C9456,2532.7,9457.6,2531.1,9459.6,2531.1C9459.6,2531.1,9459.6,2531.1,9459.6,2531.1z"
							/>
						<rect id="Rectangle_1567" x="9462.4" y="2595.2" fill="#164571" width="95.3" height="10.8"/>
						<path id="Rectangle_1631" fill="#005B9F" d="M9460,2531.1h35.6l0,0v30.2l0,0H9460c-2.2,0-4-1.8-4-4v-22.2
							C9456,2532.9,9457.8,2531.1,9460,2531.1z"/>
						<g id="Group_104" transform="translate(44.844 47.517)">
							<path id="Rectangle_1405" fill="#288ED9" d="M9457.3,2531.1L9457.3,2531.1c0.7,0,1.3,0.6,1.3,1.3l0,0c0,0.7-0.6,1.3-1.3,1.3
								l0,0c-0.7,0-1.3-0.6-1.3-1.3l0,0C9456,2531.7,9456.6,2531.1,9457.3,2531.1z"/>
							<path id="Rectangle_1424" fill="#288ED9" d="M9460.4,2536.2L9460.4,2536.2c0.7,0,1.3,0.6,1.3,1.3l0,0c0,0.7-0.6,1.3-1.3,1.3
								l0,0c-0.7,0-1.3-0.6-1.3-1.3l0,0C9459.1,2536.8,9459.7,2536.2,9460.4,2536.2z"/>
							<path id="Rectangle_1410" fill="#288ED9" d="M9483,2531.1L9483,2531.1c0.7,0,1.3,0.6,1.3,1.3l0,0c0,0.7-0.6,1.3-1.3,1.3l0,0
								c-0.7,0-1.3-0.6-1.3-1.3l0,0C9481.7,2531.7,9482.3,2531.1,9483,2531.1z"/>
							<path id="Rectangle_1419" fill="#288ED9" d="M9486.1,2536.2L9486.1,2536.2c0.7,0,1.3,0.6,1.3,1.3l0,0c0,0.7-0.6,1.3-1.3,1.3
								l0,0c-0.7,0-1.3-0.6-1.3-1.3l0,0C9484.8,2536.8,9485.4,2536.2,9486.1,2536.2z"/>
							<path id="Rectangle_1406" fill="#288ED9" d="M9462.4,2531.1L9462.4,2531.1c0.7,0,1.3,0.6,1.3,1.3l0,0c0,0.7-0.6,1.3-1.3,1.3
								l0,0c-0.7,0-1.3-0.6-1.3-1.3l0,0C9461.1,2531.7,9461.7,2531.1,9462.4,2531.1z"/>
							<path id="Rectangle_1423" fill="#288ED9" d="M9465.5,2536.2L9465.5,2536.2c0.7,0,1.3,0.6,1.3,1.3l0,0c0,0.7-0.6,1.3-1.3,1.3
								l0,0c-0.7,0-1.3-0.6-1.3-1.3l0,0C9464.2,2536.8,9464.8,2536.2,9465.5,2536.2z"/>
							<path id="Rectangle_1411" fill="#288ED9" d="M9488.1,2531.1L9488.1,2531.1c0.7,0,1.3,0.6,1.3,1.3l0,0c0,0.7-0.6,1.3-1.3,1.3
								l0,0c-0.7,0-1.3-0.6-1.3-1.3l0,0C9486.9,2531.7,9487.4,2531.1,9488.1,2531.1z"/>
							<path id="Rectangle_1418" fill="#288ED9" d="M9491.2,2536.2L9491.2,2536.2c0.7,0,1.3,0.6,1.3,1.3l0,0c0,0.7-0.6,1.3-1.3,1.3
								l0,0c-0.7,0-1.3-0.6-1.3-1.3l0,0C9489.9,2536.8,9490.5,2536.2,9491.2,2536.2z"/>
							<path id="Rectangle_1407" fill="#288ED9" d="M9467.6,2531.1L9467.6,2531.1c0.7,0,1.3,0.6,1.3,1.3l0,0c0,0.7-0.6,1.3-1.3,1.3
								l0,0c-0.7,0-1.3-0.6-1.3-1.3l0,0C9466.3,2531.7,9466.9,2531.1,9467.6,2531.1z"/>
							<path id="Rectangle_1422" fill="#288ED9" d="M9470.7,2536.2L9470.7,2536.2c0.7,0,1.3,0.6,1.3,1.3l0,0c0,0.7-0.6,1.3-1.3,1.3
								l0,0c-0.7,0-1.3-0.6-1.3-1.3l0,0C9469.4,2536.8,9469.9,2536.2,9470.7,2536.2z"/>
							<path id="Rectangle_1412" fill="#288ED9" d="M9493.3,2531.1L9493.3,2531.1c0.7,0,1.3,0.6,1.3,1.3l0,0c0,0.7-0.6,1.3-1.3,1.3
								l0,0c-0.7,0-1.3-0.6-1.3-1.3l0,0C9492,2531.7,9492.6,2531.1,9493.3,2531.1z"/>
							<path id="Rectangle_1417" fill="#288ED9" d="M9496.4,2536.2L9496.4,2536.2c0.7,0,1.3,0.6,1.3,1.3l0,0c0,0.7-0.6,1.3-1.3,1.3
								l0,0c-0.7,0-1.3-0.6-1.3-1.3l0,0C9495.1,2536.8,9495.7,2536.2,9496.4,2536.2z"/>
							<path id="Rectangle_1408" fill="#288ED9" d="M9472.7,2531.1L9472.7,2531.1c0.7,0,1.3,0.6,1.3,1.3l0,0c0,0.7-0.6,1.3-1.3,1.3
								l0,0c-0.7,0-1.3-0.6-1.3-1.3l0,0C9471.4,2531.7,9472,2531.1,9472.7,2531.1z"/>
							<path id="Rectangle_1421" fill="#288ED9" d="M9475.8,2536.2L9475.8,2536.2c0.7,0,1.3,0.6,1.3,1.3l0,0c0,0.7-0.6,1.3-1.3,1.3
								l0,0c-0.7,0-1.3-0.6-1.3-1.3l0,0C9474.5,2536.8,9475.1,2536.2,9475.8,2536.2z"/>
							<path id="Rectangle_1413" fill="#288ED9" d="M9498.4,2531.1L9498.4,2531.1c0.7,0,1.3,0.6,1.3,1.3l0,0c0,0.7-0.6,1.3-1.3,1.3
								l0,0c-0.7,0-1.3-0.6-1.3-1.3l0,0C9497.1,2531.7,9497.7,2531.1,9498.4,2531.1z"/>
							<path id="Rectangle_1416" fill="#288ED9" d="M9501.5,2536.2L9501.5,2536.2c0.7,0,1.3,0.6,1.3,1.3l0,0c0,0.7-0.6,1.3-1.3,1.3
								l0,0c-0.7,0-1.3-0.6-1.3-1.3l0,0C9500.2,2536.8,9500.8,2536.2,9501.5,2536.2z"/>
							<path id="Rectangle_1409" fill="#288ED9" d="M9477.9,2531.1L9477.9,2531.1c0.7,0,1.3,0.6,1.3,1.3l0,0c0,0.7-0.6,1.3-1.3,1.3
								l0,0c-0.7,0-1.3-0.6-1.3-1.3l0,0C9476.6,2531.7,9477.1,2531.1,9477.9,2531.1z"/>
							<path id="Rectangle_1420" fill="#288ED9" d="M9480.9,2536.2L9480.9,2536.2c0.7,0,1.3,0.6,1.3,1.3l0,0c0,0.7-0.6,1.3-1.3,1.3
								l0,0c-0.7,0-1.3-0.6-1.3-1.3l0,0C9479.7,2536.8,9480.2,2536.2,9480.9,2536.2z"/>
							<path id="Rectangle_1414" fill="#288ED9" d="M9503.6,2531.1L9503.6,2531.1c0.7,0,1.3,0.6,1.3,1.3l0,0c0,0.7-0.6,1.3-1.3,1.3
								l0,0c-0.7,0-1.3-0.6-1.3-1.3l0,0C9502.3,2531.7,9502.9,2531.1,9503.6,2531.1z"/>
							<path id="Rectangle_1415" fill="#288ED9" d="M9506.7,2536.2L9506.7,2536.2c0.7,0,1.3,0.6,1.3,1.3l0,0c0,0.7-0.6,1.3-1.3,1.3
								l0,0c-0.7,0-1.3-0.6-1.3-1.3l0,0C9505.4,2536.8,9505.9,2536.2,9506.7,2536.2z"/>
						</g>
						<path id="Rectangle_1634" fill="#0E71BB" d="M9461,2567.1h98c2.8,0,5,2.2,5,5v20.2c0,2.8-2.2,5-5,5h-98c-2.8,0-5-2.2-5-5
							v-20.2C9456,2569.3,9458.2,2567.1,9461,2567.1z"/>
						<g id="Group_113" transform="translate(10.903 47.517)">
							<g id="Rectangle_1635" transform="translate(0 0)">
								<path fill="#21E2E2" d="M9460,2531.1L9460,2531.1c2.2,0,4,1.8,4,4v0.3c0,2.2-1.8,4-4,4h0c-2.2,0-4-1.8-4-4v-0.3
									C9456,2532.9,9457.8,2531.1,9460,2531.1z"/>
								<path fill="none" stroke="#137FCF" stroke-width="2" d="M9460,2532.1L9460,2532.1c1.6,0,3,1.3,3,3v0.3c0,1.6-1.3,3-3,3h0
									c-1.6,0-3-1.3-3-3v-0.3C9457,2533.4,9458.3,2532.1,9460,2532.1z"/>
							</g>
							<g id="Rectangle_1636" transform="translate(11.519 0)">
								<path fill="#FFBC98" d="M9460,2531.1L9460,2531.1c2.2,0,4,1.8,4,4v0.3c0,2.2-1.8,4-4,4h0c-2.2,0-4-1.8-4-4v-0.3
									C9456,2532.9,9457.8,2531.1,9460,2531.1z"/>
								<path fill="none" stroke="#137FCF" stroke-width="2" d="M9460,2532.1L9460,2532.1c1.6,0,3,1.3,3,3v0.3c0,1.6-1.3,3-3,3h0
									c-1.6,0-3-1.3-3-3v-0.3C9457,2533.4,9458.3,2532.1,9460,2532.1z"/>
							</g>
						</g>
						<path id="Rectangle_1638" fill="#0E71BB" d="M9461,2603.1h98c2.8,0,5,2.2,5,5v20.2c0,2.8-2.2,5-5,5h-98c-2.8,0-5-2.2-5-5
							v-20.2C9456,2605.3,9458.2,2603.1,9461,2603.1z"/>
						<path id="Path_5065" fill="#005B9F" d="M9459,2567.1h36.6v30.2H9459c-1.7,0-3-1.3-3-3c0,0,0,0,0,0v-24.2
							C9456,2568.5,9457.3,2567.1,9459,2567.1C9459,2567.1,9459,2567.1,9459,2567.1z"/>
						<g id="Group_115" transform="translate(11.905 48.484)">
							<path id="Rectangle_1425" fill="#21E2E2" d="M9459.1,2531.1L9459.1,2531.1c1.7,0,3.1,1.4,3.1,3.1v0.3c0,1.7-1.4,3.1-3.1,3.1
								l0,0c-1.7,0-3.1-1.4-3.1-3.1v-0.3C9456,2532.5,9457.4,2531.1,9459.1,2531.1z"/>
							<path id="Rectangle_1442" fill="#FFBC98" d="M9468.3,2531.1L9468.3,2531.1c1.7,0,3.1,1.4,3.1,3.1v0.3c0,1.7-1.4,3.1-3.1,3.1
								l0,0c-1.7,0-3.1-1.4-3.1-3.1v-0.3C9465.2,2532.5,9466.6,2531.1,9468.3,2531.1z"/>
						</g>
						<g id="Group_5597" transform="translate(11.905 13.397)">
							<path id="Rectangle_1425-2" fill="#21E2E2" d="M9459.1,2531.1L9459.1,2531.1c1.7,0,3.1,1.4,3.1,3.1v0.3
								c0,1.7-1.4,3.1-3.1,3.1l0,0c-1.7,0-3.1-1.4-3.1-3.1v-0.3C9456,2532.5,9457.4,2531.1,9459.1,2531.1z"/>
							<path id="Rectangle_1442-2" fill="#FFBC98" d="M9468.3,2531.1L9468.3,2531.1c1.7,0,3.1,1.4,3.1,3.1v0.3
								c0,1.7-1.4,3.1-3.1,3.1l0,0c-1.7,0-3.1-1.4-3.1-3.1v-0.3C9465.2,2532.5,9466.6,2531.1,9468.3,2531.1z"/>
						</g>
						<path id="Path_5396" fill="#005B9F" d="M9459,2602.9h36.6v30.2H9459c-1.7,0-3-1.3-3-3c0,0,0,0,0,0v-24.2
							C9456,2604.3,9457.3,2602.9,9459,2602.9C9459,2602.9,9459,2602.9,9459,2602.9z"/>
						<g id="Group_5703" transform="translate(11.905 84.293)">
							<path id="Rectangle_1425-3" fill="#21E2E2" d="M9459.1,2531.1L9459.1,2531.1c1.7,0,3.1,1.4,3.1,3.1v0.3
								c0,1.7-1.4,3.1-3.1,3.1l0,0c-1.7,0-3.1-1.4-3.1-3.1v-0.3C9456,2532.5,9457.4,2531.1,9459.1,2531.1z"/>
							<path id="Rectangle_1442-3" fill="#FFBC98" d="M9468.3,2531.1L9468.3,2531.1c1.7,0,3.1,1.4,3.1,3.1v0.3
								c0,1.7-1.4,3.1-3.1,3.1l0,0c-1.7,0-3.1-1.4-3.1-3.1v-0.3C9465.2,2532.5,9466.6,2531.1,9468.3,2531.1z"/>
						</g>
					</g>
				</g>
			</g>
			<g id="Group_5702" transform="translate(47.113 81.365)">
				<g id="Group_5584" transform="translate(0 0)">
					<path id="Rectangle_1405-2" fill="#52ACEA" d="M9458.1,2531.1L9458.1,2531.1c1.2,0,2.1,1,2.1,2.1l0,0c0,1.2-1,2.1-2.1,2.1l0,0
						c-1.2,0-2.1-1-2.1-2.1l0,0C9456,2532.1,9457,2531.1,9458.1,2531.1z"/>
					<path id="Rectangle_1424-2" fill="#52ACEA" d="M9463.2,2539.6L9463.2,2539.6c1.2,0,2.1,1,2.1,2.1l0,0c0,1.2-1,2.1-2.1,2.1l0,0
						c-1.2,0-2.1-1-2.1-2.1l0,0C9461.1,2540.6,9462.1,2539.6,9463.2,2539.6z"/>
					<path id="Rectangle_1410-2" fill="#52ACEA" d="M9500.7,2531.1L9500.7,2531.1c1.2,0,2.1,1,2.1,2.1l0,0c0,1.2-1,2.1-2.1,2.1l0,0
						c-1.2,0-2.1-1-2.1-2.1l0,0C9498.6,2532.1,9499.5,2531.1,9500.7,2531.1z"/>
					<path id="Rectangle_1419-2" fill="#52ACEA" d="M9505.8,2539.6L9505.8,2539.6c1.2,0,2.1,1,2.1,2.1l0,0c0,1.2-1,2.1-2.1,2.1l0,0
						c-1.2,0-2.1-1-2.1-2.1l0,0C9503.7,2540.6,9504.6,2539.6,9505.8,2539.6z"/>
					<path id="Rectangle_1406-2" fill="#52ACEA" d="M9466.6,2531.1L9466.6,2531.1c1.2,0,2.1,1,2.1,2.1l0,0c0,1.2-1,2.1-2.1,2.1l0,0
						c-1.2,0-2.1-1-2.1-2.1l0,0C9464.5,2532.1,9465.5,2531.1,9466.6,2531.1z"/>
					<path id="Rectangle_1423-2" fill="#52ACEA" d="M9471.8,2539.6L9471.8,2539.6c1.2,0,2.1,1,2.1,2.1l0,0c0,1.2-1,2.1-2.1,2.1l0,0
						c-1.2,0-2.1-1-2.1-2.1l0,0C9469.6,2540.6,9470.6,2539.6,9471.8,2539.6z"/>
					<path id="Rectangle_1407-2" fill="#52ACEA" d="M9475.2,2531.1L9475.2,2531.1c1.2,0,2.1,1,2.1,2.1l0,0c0,1.2-1,2.1-2.1,2.1l0,0
						c-1.2,0-2.1-1-2.1-2.1l0,0C9473,2532.1,9474,2531.1,9475.2,2531.1z"/>
					<path id="Rectangle_1422-2" fill="#52ACEA" d="M9480.3,2539.6L9480.3,2539.6c1.2,0,2.1,1,2.1,2.1l0,0c0,1.2-1,2.1-2.1,2.1l0,0
						c-1.2,0-2.1-1-2.1-2.1l0,0C9478.1,2540.6,9479.1,2539.6,9480.3,2539.6z"/>
					<path id="Rectangle_1408-2" fill="#52ACEA" d="M9483.7,2531.1L9483.7,2531.1c1.2,0,2.1,1,2.1,2.1l0,0c0,1.2-1,2.1-2.1,2.1l0,0
						c-1.2,0-2.1-1-2.1-2.1l0,0C9481.5,2532.1,9482.5,2531.1,9483.7,2531.1z"/>
					<path id="Rectangle_1421-2" fill="#52ACEA" d="M9488.8,2539.6L9488.8,2539.6c1.2,0,2.1,1,2.1,2.1l0,0c0,1.2-1,2.1-2.1,2.1l0,0
						c-1.2,0-2.1-1-2.1-2.1l0,0C9486.7,2540.6,9487.6,2539.6,9488.8,2539.6z"/>
					<path id="Rectangle_1409-2" fill="#52ACEA" d="M9492.2,2531.1L9492.2,2531.1c1.2,0,2.1,1,2.1,2.1l0,0c0,1.2-1,2.1-2.1,2.1l0,0
						c-1.2,0-2.1-1-2.1-2.1l0,0C9490.1,2532.1,9491,2531.1,9492.2,2531.1z"/>
					<path id="Rectangle_1420-2" fill="#52ACEA" d="M9497.3,2539.6L9497.3,2539.6c1.2,0,2.1,1,2.1,2.1l0,0c0,1.2-1,2.1-2.1,2.1l0,0
						c-1.2,0-2.1-1-2.1-2.1l0,0C9495.2,2540.6,9496.1,2539.6,9497.3,2539.6z"/>
				</g>
			</g>
			<g id="Group_5709" transform="translate(47.113 44.84)">
				<g id="Group_5584-2" transform="translate(0 0)">
					<path id="Rectangle_1405-3" fill="#52ACEA" d="M9458.1,2531.1L9458.1,2531.1c1.2,0,2.1,1,2.1,2.1l0,0c0,1.2-1,2.1-2.1,2.1l0,0
						c-1.2,0-2.1-1-2.1-2.1l0,0C9456,2532.1,9457,2531.1,9458.1,2531.1z"/>
					<path id="Rectangle_1424-3" fill="#52ACEA" d="M9463.2,2539.6L9463.2,2539.6c1.2,0,2.1,1,2.1,2.1l0,0c0,1.2-1,2.1-2.1,2.1l0,0
						c-1.2,0-2.1-1-2.1-2.1l0,0C9461.1,2540.6,9462.1,2539.6,9463.2,2539.6z"/>
					<path id="Rectangle_1410-3" fill="#52ACEA" d="M9500.7,2531.1L9500.7,2531.1c1.2,0,2.1,1,2.1,2.1l0,0c0,1.2-1,2.1-2.1,2.1l0,0
						c-1.2,0-2.1-1-2.1-2.1l0,0C9498.6,2532.1,9499.5,2531.1,9500.7,2531.1z"/>
					<path id="Rectangle_1419-3" fill="#52ACEA" d="M9505.8,2539.6L9505.8,2539.6c1.2,0,2.1,1,2.1,2.1l0,0c0,1.2-1,2.1-2.1,2.1l0,0
						c-1.2,0-2.1-1-2.1-2.1l0,0C9503.7,2540.6,9504.6,2539.6,9505.8,2539.6z"/>
					<path id="Rectangle_1406-3" fill="#52ACEA" d="M9466.6,2531.1L9466.6,2531.1c1.2,0,2.1,1,2.1,2.1l0,0c0,1.2-1,2.1-2.1,2.1l0,0
						c-1.2,0-2.1-1-2.1-2.1l0,0C9464.5,2532.1,9465.5,2531.1,9466.6,2531.1z"/>
					<path id="Rectangle_1423-3" fill="#52ACEA" d="M9471.8,2539.6L9471.8,2539.6c1.2,0,2.1,1,2.1,2.1l0,0c0,1.2-1,2.1-2.1,2.1l0,0
						c-1.2,0-2.1-1-2.1-2.1l0,0C9469.6,2540.6,9470.6,2539.6,9471.8,2539.6z"/>
					<path id="Rectangle_1407-3" fill="#52ACEA" d="M9475.2,2531.1L9475.2,2531.1c1.2,0,2.1,1,2.1,2.1l0,0c0,1.2-1,2.1-2.1,2.1l0,0
						c-1.2,0-2.1-1-2.1-2.1l0,0C9473,2532.1,9474,2531.1,9475.2,2531.1z"/>
					<path id="Rectangle_1422-3" fill="#52ACEA" d="M9480.3,2539.6L9480.3,2539.6c1.2,0,2.1,1,2.1,2.1l0,0c0,1.2-1,2.1-2.1,2.1l0,0
						c-1.2,0-2.1-1-2.1-2.1l0,0C9478.1,2540.6,9479.1,2539.6,9480.3,2539.6z"/>
					<path id="Rectangle_1408-3" fill="#52ACEA" d="M9483.7,2531.1L9483.7,2531.1c1.2,0,2.1,1,2.1,2.1l0,0c0,1.2-1,2.1-2.1,2.1l0,0
						c-1.2,0-2.1-1-2.1-2.1l0,0C9481.5,2532.1,9482.5,2531.1,9483.7,2531.1z"/>
					<path id="Rectangle_1421-3" fill="#52ACEA" d="M9488.8,2539.6L9488.8,2539.6c1.2,0,2.1,1,2.1,2.1l0,0c0,1.2-1,2.1-2.1,2.1l0,0
						c-1.2,0-2.1-1-2.1-2.1l0,0C9486.7,2540.6,9487.6,2539.6,9488.8,2539.6z"/>
					<path id="Rectangle_1409-3" fill="#52ACEA" d="M9492.2,2531.1L9492.2,2531.1c1.2,0,2.1,1,2.1,2.1l0,0c0,1.2-1,2.1-2.1,2.1l0,0
						c-1.2,0-2.1-1-2.1-2.1l0,0C9490.1,2532.1,9491,2531.1,9492.2,2531.1z"/>
					<path id="Rectangle_1420-3" fill="#52ACEA" d="M9497.3,2539.6L9497.3,2539.6c1.2,0,2.1,1,2.1,2.1l0,0c0,1.2-1,2.1-2.1,2.1l0,0
						c-1.2,0-2.1-1-2.1-2.1l0,0C9495.2,2540.6,9496.1,2539.6,9497.3,2539.6z"/>
				</g>
			</g>
			<g id="Group_5710" transform="translate(47.113 9.032)">
				<g id="Group_5584-3" transform="translate(0 0)">
					<path id="Rectangle_1405-4" fill="#52ACEA" d="M9458.1,2531.1L9458.1,2531.1c1.2,0,2.1,1,2.1,2.1l0,0c0,1.2-1,2.1-2.1,2.1l0,0
						c-1.2,0-2.1-1-2.1-2.1l0,0C9456,2532.1,9457,2531.1,9458.1,2531.1z"/>
					<path id="Rectangle_1424-4" fill="#52ACEA" d="M9463.2,2539.6L9463.2,2539.6c1.2,0,2.1,1,2.1,2.1l0,0c0,1.2-1,2.1-2.1,2.1l0,0
						c-1.2,0-2.1-1-2.1-2.1l0,0C9461.1,2540.6,9462.1,2539.6,9463.2,2539.6z"/>
					<path id="Rectangle_1410-4" fill="#52ACEA" d="M9500.7,2531.1L9500.7,2531.1c1.2,0,2.1,1,2.1,2.1l0,0c0,1.2-1,2.1-2.1,2.1l0,0
						c-1.2,0-2.1-1-2.1-2.1l0,0C9498.6,2532.1,9499.5,2531.1,9500.7,2531.1z"/>
					<path id="Rectangle_1419-4" fill="#52ACEA" d="M9505.8,2539.6L9505.8,2539.6c1.2,0,2.1,1,2.1,2.1l0,0c0,1.2-1,2.1-2.1,2.1l0,0
						c-1.2,0-2.1-1-2.1-2.1l0,0C9503.7,2540.6,9504.6,2539.6,9505.8,2539.6z"/>
					<path id="Rectangle_1406-4" fill="#52ACEA" d="M9466.6,2531.1L9466.6,2531.1c1.2,0,2.1,1,2.1,2.1l0,0c0,1.2-1,2.1-2.1,2.1l0,0
						c-1.2,0-2.1-1-2.1-2.1l0,0C9464.5,2532.1,9465.5,2531.1,9466.6,2531.1z"/>
					<path id="Rectangle_1423-4" fill="#52ACEA" d="M9471.8,2539.6L9471.8,2539.6c1.2,0,2.1,1,2.1,2.1l0,0c0,1.2-1,2.1-2.1,2.1l0,0
						c-1.2,0-2.1-1-2.1-2.1l0,0C9469.6,2540.6,9470.6,2539.6,9471.8,2539.6z"/>
					<path id="Rectangle_1407-4" fill="#52ACEA" d="M9475.2,2531.1L9475.2,2531.1c1.2,0,2.1,1,2.1,2.1l0,0c0,1.2-1,2.1-2.1,2.1l0,0
						c-1.2,0-2.1-1-2.1-2.1l0,0C9473,2532.1,9474,2531.1,9475.2,2531.1z"/>
					<path id="Rectangle_1422-4" fill="#52ACEA" d="M9480.3,2539.6L9480.3,2539.6c1.2,0,2.1,1,2.1,2.1l0,0c0,1.2-1,2.1-2.1,2.1l0,0
						c-1.2,0-2.1-1-2.1-2.1l0,0C9478.1,2540.6,9479.1,2539.6,9480.3,2539.6z"/>
					<path id="Rectangle_1408-4" fill="#52ACEA" d="M9483.7,2531.1L9483.7,2531.1c1.2,0,2.1,1,2.1,2.1l0,0c0,1.2-1,2.1-2.1,2.1l0,0
						c-1.2,0-2.1-1-2.1-2.1l0,0C9481.5,2532.1,9482.5,2531.1,9483.7,2531.1z"/>
					<path id="Rectangle_1421-4" fill="#52ACEA" d="M9488.8,2539.6L9488.8,2539.6c1.2,0,2.1,1,2.1,2.1l0,0c0,1.2-1,2.1-2.1,2.1l0,0
						c-1.2,0-2.1-1-2.1-2.1l0,0C9486.7,2540.6,9487.6,2539.6,9488.8,2539.6z"/>
					<path id="Rectangle_1409-4" fill="#52ACEA" d="M9492.2,2531.1L9492.2,2531.1c1.2,0,2.1,1,2.1,2.1l0,0c0,1.2-1,2.1-2.1,2.1l0,0
						c-1.2,0-2.1-1-2.1-2.1l0,0C9490.1,2532.1,9491,2531.1,9492.2,2531.1z"/>
					<path id="Rectangle_1420-4" fill="#52ACEA" d="M9497.3,2539.6L9497.3,2539.6c1.2,0,2.1,1,2.1,2.1l0,0c0,1.2-1,2.1-2.1,2.1l0,0
						c-1.2,0-2.1-1-2.1-2.1l0,0C9495.2,2540.6,9496.1,2539.6,9497.3,2539.6z"/>
				</g>
			</g>
		</g>
		<g id="Group_8099" transform="translate(-8671.077 -2435.145)">
			<path id="Path_5365" fill="#288ED9" d="M9530.4,2531.1h9.5v102.3h-9.5V2531.1z"/>
			<rect id="Rectangle_2456" x="9456" y="2577.6" fill="#288ED9" width="109" height="9.5"/>
		</g>
		<g id="Group_8100" transform="translate(-8567.815 -2363.106)">
			<path id="Union_23" fill="#21E2E2" d="M9470.7,2567.1L9470.7,2567.1c-8.1,0-14.7-6.6-14.7-14.7c0,0,0,0,0,0c0,0,0,0,0,0
				c0-0.4,0-0.7,0-1.1c0.2-3.2,1.5-6.2,3.6-8.6l0,0l0.1-0.1l0.1-0.1l0,0c2-2.1,4.5-3.6,7.3-4.3l0.1,0l0.1,0l0.1,0v-3.7
				c0-1.5,1.2-2.7,2.7-2.7c0,0,0,0,0,0h1.5h0.1h0c1.4,0.1,2.6,1.3,2.6,2.7v3.8c6.2,1.6,10.7,7,11.1,13.4c0,0,0,0,0,0l0,0.2v0.1v0.1
				c0,0,0,0.1,0,0.1c0,0,0,0,0,0.1c0,0.1,0,0.1,0,0.2c0,0,0,0,0,0c0,0.1,0,0.1,0,0.2c0,0.1,0,0.1,0,0.2c0,0,0,0,0,0.1
				c0,0,0,0.1,0,0.1c0,0,0,0,0,0.1c0,0,0,0.1,0,0.1c0,0,0,0.1,0,0.1c0,0,0,0,0,0c-0.4,7.7-6.6,13.9-14.4,14H9470.7z"/>
			<g id="gift-box" transform="translate(0.001 0)">
				<path id="Path_5372" fill="#14B1B1" d="M9460.2,2552.4c0-7.3,5.4-13.5,12.6-14.6c-8-1.2-15.5,4.4-16.6,12.5
					c-1.2,8,4.4,15.5,12.5,16.6c1.4,0.2,2.8,0.2,4.2,0C9465.6,2565.9,9460.2,2559.7,9460.2,2552.4z"/>
				<path id="Path_5373" fill="#FFBC98" d="M9485,2549l-5.4-2.7c-1-0.5-2.1-0.5-3.1,0l-5.6,2.8l-5.6-2.8c-1-0.5-2.1-0.5-3.1,0
					l-5.6,2.8l0,0c-0.6,2.5-0.5,5.1,0.2,7.5c1-0.1,0.9-0.1,7-3.1l5.6,2.8c1,0.5,2.1,0.5,3.1,0l5.6-2.8l5.6,2.8
					c0.4,0.2,0.7,0.3,1.1,0.3C9485.5,2554.1,9485.6,2551.5,9485,2549L9485,2549z"/>
				<path id="Path_5374" fill="#F4A77E" d="M9456.6,2556.6c0.9-0.1,1.2-0.3,3.8-1.6c-0.5-2.8-0.2-5.7,0.9-8.4l-5,2.5l0,0
					C9455.8,2551.6,9455.9,2554.2,9456.6,2556.6z"/>
				<g id="Group_6232" transform="translate(11.477 0)">
					<path id="Path_5366" fill="#3E9BE1" d="M9462.8,2538.3v-4.4c0-1.5-1.2-2.7-2.7-2.7h-1.4c-1.5,0-2.7,1.2-2.7,2.7v4.4
						C9458.3,2537.7,9460.6,2537.7,9462.8,2538.3z"/>
					<path id="Path_5367" fill="#137FCF" d="M9459.4,2533.8c0-1.1,0.7-2.1,1.7-2.5c-0.3-0.1-0.7-0.2-1-0.2h-1.4
						c-1.5,0-2.7,1.2-2.7,2.7v4.4c1.1-0.3,2.3-0.4,3.4-0.4L9459.4,2533.8L9459.4,2533.8z"/>
				</g>
			</g>
		</g>
		<g id="Group_8101" transform="translate(-8624.098 -2398.975)">
			<g id="Group_5754" transform="translate(0 0)">
				<path id="Path_5297-2" fill="#21E2E2" d="M9511.8,2565.7c-2.4-3.9-7.3-11.3-12.8-15.9l-2.3-1.1c-0.6,1.4-2,2.3-3.5,2.3h-4.1
					c3.9,6.5,6.9,13.6,8.9,20.9l0,0c0.6,2,2,2.5,3.1,1.9l8.9-4.1c2.9-1.3,2-3.4,1.7-3.9L9511.8,2565.7z"/>
				<g id="Group_5666-2" transform="translate(0 0.001)">
					<path id="Path_5292-2" fill="#21E2E2" d="M9480.6,2542.4c0-0.5,0.1-1,0.3-1.5l-18.2-8.9c-0.9-0.4-6.7-2.9-6.7,3.4v19.3
						c0,6.4,5.8,3.9,6.7,3.4l18.2-8.9C9480.5,2548.2,9480.6,2548.1,9480.6,2542.4z"/>
					<path id="Path_5293-2" fill="#1BD0D0" d="M9515,2532l-18.2,8.9c0.2,0.5,0.3,1,0.3,1.5c0,5.7,0.1,5.8-0.3,6.8l18.2,8.9
						c0.9,0.4,6.7,2.9,6.7-3.4v-19.3C9521.7,2529,9515.9,2531.5,9515,2532z"/>
				</g>
				<path id="Path_5294-2" fill="#1BD0D0" d="M9461,2554.7v-19.3c0-1.9,0.5-3,1.3-3.6c-1.6-0.7-6.3-2.1-6.3,3.6v19.3
					c0,5.7,4.6,4.3,6.3,3.6C9461.5,2557.7,9461,2556.6,9461,2554.7z"/>
				<path id="Path_5295-2" fill="#21E2E2" d="M9484.4,2550.9c-1.5,0-2.9-0.9-3.5-2.3l-2.3,1.1c-5.3,4.5-10.1,11.5-12.5,15.5l0,0
					c-1.8,2.8,0.7,4,0.7,4.1l8.8,4c3.2,1.5,3.9-1.5,3.9-1.5l0,0c2-7.3,5.1-14.4,9-20.9L9484.4,2550.9L9484.4,2550.9z"/>
				<path id="Path_5296-2" fill="#1BD0D0" d="M9470.6,2569.6L9470.6,2569.6c2.4-4.7,6.9-12.9,12.3-19c-0.9-0.4-1.5-1.1-1.9-1.9
					l-2.3,1.1c-5.3,4.5-10.1,11.5-12.5,15.5l0,0c-1.8,2.8,0.7,4,0.7,4.1l3.3,1.5C9470.2,2570.4,9470.3,2570,9470.6,2569.6z"/>
				<g id="Group_5667-2" transform="translate(24.468 7.397)">
					<path id="Path_5298-2" fill="#1BD0D0" d="M9470.6,2543.1c-1,0.5-1.4,0.4-5.8,0.4c3.9,6.5,6.9,13.6,8.9,20.9l0,0
						c0.6,2,2,2.5,3.1,1.9l2.8-1.3C9477.4,2557.5,9474.4,2550.1,9470.6,2543.1z"/>
					<path id="Path_5299-2" fill="#21E2E2" d="M9468.9,2531.1h-9c-2.2,0-3.9,1.7-3.9,3.9v5.3c0,2.2,1.7,3.9,3.9,3.9h9
						c2.2,0,3.9-1.7,3.9-3.9v-5.3C9472.8,2532.9,9471,2531.1,9468.9,2531.1z"/>
				</g>
				<g id="Path_5300-2" transform="translate(-156.892 -305.289)">
					<path fill="#1BD0D0" d="M9643.5,2856.3h-2.2c-1.9,0-3.4-1.5-3.4-3.4v-5.3c0-1.9,1.5-3.4,3.4-3.4h2.2c-1,0.8-1.6,2-1.6,3.4v5.3
						C9641.9,2854.3,9642.5,2855.5,9643.5,2856.3z"/>
					<path fill="#1BD0D0" d="M9642.3,2855.8c-0.6-0.8-1-1.8-1-2.9v-5.3c0-1.1,0.4-2.1,1-2.9h-1.1c-1.6,0-2.9,1.3-2.9,2.9v5.3
						c0,1.6,1.3,2.9,2.9,2.9H9642.3 M9646.3,2856.8h-5c-2.2,0-3.9-1.7-3.9-3.9v-5.3c0-2.2,1.7-3.9,3.9-3.9h5c-2.2,0-3.9,1.8-3.9,3.9
						v5.3C9642.4,2855.1,9644.1,2856.8,9646.3,2856.8z"/>
				</g>
			</g>
		</g>
	</g>
</g>
</svg>
