<?xml version="1.0" encoding="utf-8"?>
<!-- Generator: Adobe Illustrator 21.0.0, SVG Export Plug-In . SVG Version: 6.00 Build 0)  -->
<svg version="1.1" id="Layer_1" xmlns="http://www.w3.org/2000/svg" xmlns:xlink="http://www.w3.org/1999/xlink" x="0px" y="0px"
	 viewBox="0 0 1143.9 695" enable-background="new 0 0 1143.9 695" xml:space="preserve">
<linearGradient id="Path_5075_1_" gradientUnits="userSpaceOnUse" x1="279.4589" y1="715.1837" x2="279.4459" y2="716.4567" gradientTransform="matrix(798.0305 97.9858 73.3011 -596.9894 -274904.0625 400335.3125)">
	<stop  offset="0" style="stop-color:#C6E6FF"/>
	<stop  offset="1" style="stop-color:#FFFFFF"/>
</linearGradient>
<path id="Path_5075" fill="url(#Path_5075_1_)" d="M557.4,96.4C453.5,133.9,347,133.8,347,133.8s-196.1,31-160,219
	s43.5,249.8,134.3,265.7c86.4,13.1,116.7-16.7,201.8,0c74.7,15.1,193.6,21.6,325.6-12.6C1061.5,541.3,1059.2-82.6,557.4,96.4z"/>
<path id="Path_5076" opacity="0.435" fill="#C6E6FF" enable-background="new    " d="M257.2,197.9c-23.8-12.5-67,25.5-104.9-5.6
	s-46.4,31.2-90.8,37.2c-44.3,6,69.5,92.9,136.4,44.6c17.4-12.6,61.1-21.2,69.5-28.3C290.3,226.3,281.1,210.4,257.2,197.9z"/>
<path id="Path_5077" opacity="0.369" fill="#C6E6FF" enable-background="new    " d="M1025.4,220.4c-28,18-85.3-24.2-128.6,18.2
	s-60.5-33.4-115.7-36c-55.2-2.5,84.2-102,171.8-49.7c22.8,13.6,92.2-3.6,103.3,4.2C1086.4,178.6,1053.4,202.4,1025.4,220.4z"/>
<linearGradient id="Ellipse_1198_1_" gradientUnits="userSpaceOnUse" x1="292.391" y1="422.0849" x2="292.391" y2="420.0809" gradientTransform="matrix(321 0 0 -55 -93697 23638)">
	<stop  offset="0" style="stop-color:#288ED9"/>
	<stop  offset="1" style="stop-color:#137FCF;stop-opacity:5.100000e-02"/>
</linearGradient>
<ellipse id="Ellipse_1198" fill="url(#Ellipse_1198_1_)" cx="160.5" cy="506.1" rx="160.5" ry="27.5"/>
<g id="Group_6367" transform="translate(187.8 459.023)">
	<g id="Group_5583" transform="translate(0)">
		<g id="Group_5582" transform="translate(0)">
			<g id="Group_5581" transform="translate(0)">
				<rect id="Rectangle_1565" x="-138" y="-96.1" fill="#164571" width="180" height="17.7"/>
				<path id="Path_3764" fill="#0E71BB" d="M-143.2-150.4H47.1c3.8,0,6.8,3,6.8,6.8c0,0,0,0,0,0v43.5c0,3.8-3,6.8-6.8,6.8l0,0
					h-190.3c-3.8,0-6.8-3-6.8-6.8v-43.5C-150-147.4-147-150.4-143.2-150.4C-143.2-150.4-143.2-150.4-143.2-150.4z"/>
				<rect id="Rectangle_1567" x="-138" y="-29.5" fill="#164571" width="180" height="20.4"/>
				<path id="Rectangle_1631" fill="#005B9F" d="M-146-150.4h70.8l0,0v57.1l0,0H-146c-2.2,0-4-1.8-4-4v-49.1
					C-150-148.7-148.2-150.4-146-150.4z"/>
				<g id="Group_104" transform="translate(84.672 89.721)">
					<path id="Rectangle_1405" fill="#288ED9" d="M-147.6-150.4L-147.6-150.4c1.3,0,2.4,1.1,2.4,2.4l0,0c0,1.3-1.1,2.4-2.4,2.4l0,0
						c-1.3,0-2.4-1.1-2.4-2.4l0,0C-150-149.4-148.9-150.4-147.6-150.4z"/>
					<path id="Rectangle_1424" fill="#288ED9" d="M-141.7-140.7L-141.7-140.7c1.3,0,2.4,1.1,2.4,2.4l0,0c0,1.3-1.1,2.4-2.4,2.4l0,0
						c-1.3,0-2.4-1.1-2.4-2.4l0,0C-144.2-139.7-143.1-140.7-141.7-140.7z"/>
					<path id="Rectangle_1410" fill="#288ED9" d="M-99-150.4L-99-150.4c1.3,0,2.4,1.1,2.4,2.4l0,0c0,1.3-1.1,2.4-2.4,2.4l0,0
						c-1.3,0-2.4-1.1-2.4-2.4l0,0C-101.4-149.4-100.4-150.4-99-150.4z"/>
					<path id="Rectangle_1419" fill="#288ED9" d="M-93.2-140.7L-93.2-140.7c1.3,0,2.4,1.1,2.4,2.4l0,0c0,1.3-1.1,2.4-2.4,2.4l0,0
						c-1.3,0-2.4-1.1-2.4-2.4l0,0C-95.6-139.7-94.5-140.7-93.2-140.7z"/>
					<path id="Rectangle_1406" fill="#288ED9" d="M-137.9-150.4L-137.9-150.4c1.3,0,2.4,1.1,2.4,2.4l0,0c0,1.3-1.1,2.4-2.4,2.4l0,0
						c-1.3,0-2.4-1.1-2.4-2.4l0,0C-140.3-149.4-139.2-150.4-137.9-150.4z"/>
					<path id="Rectangle_1423" fill="#288ED9" d="M-132-140.7L-132-140.7c1.3,0,2.4,1.1,2.4,2.4l0,0c0,1.3-1.1,2.4-2.4,2.4l0,0
						c-1.3,0-2.4-1.1-2.4-2.4l0,0C-134.5-139.7-133.4-140.7-132-140.7z"/>
					<path id="Rectangle_1411" fill="#288ED9" d="M-89.3-150.4L-89.3-150.4c1.3,0,2.4,1.1,2.4,2.4l0,0c0,1.3-1.1,2.4-2.4,2.4l0,0
						c-1.3,0-2.4-1.1-2.4-2.4l0,0C-91.7-149.4-90.7-150.4-89.3-150.4z"/>
					<path id="Rectangle_1418" fill="#288ED9" d="M-83.5-140.7L-83.5-140.7c1.3,0,2.4,1.1,2.4,2.4l0,0c0,1.3-1.1,2.4-2.4,2.4l0,0
						c-1.3,0-2.4-1.1-2.4-2.4l0,0C-85.9-139.7-84.8-140.7-83.5-140.7z"/>
					<path id="Rectangle_1407" fill="#288ED9" d="M-128.2-150.4L-128.2-150.4c1.3,0,2.4,1.1,2.4,2.4l0,0c0,1.3-1.1,2.4-2.4,2.4l0,0
						c-1.3,0-2.4-1.1-2.4-2.4l0,0C-130.6-149.4-129.5-150.4-128.2-150.4z"/>
					<path id="Rectangle_1422" fill="#288ED9" d="M-122.3-140.7L-122.3-140.7c1.3,0,2.4,1.1,2.4,2.4l0,0c0,1.3-1.1,2.4-2.4,2.4l0,0
						c-1.3,0-2.4-1.1-2.4-2.4l0,0C-124.8-139.7-123.7-140.7-122.3-140.7z"/>
					<path id="Rectangle_1412" fill="#288ED9" d="M-79.6-150.4L-79.6-150.4c1.3,0,2.4,1.1,2.4,2.4l0,0c0,1.3-1.1,2.4-2.4,2.4l0,0
						c-1.3,0-2.4-1.1-2.4-2.4l0,0C-82-149.4-80.9-150.4-79.6-150.4z"/>
					<path id="Rectangle_1417" fill="#288ED9" d="M-73.8-140.7L-73.8-140.7c1.3,0,2.4,1.1,2.4,2.4l0,0c0,1.3-1.1,2.4-2.4,2.4l0,0
						c-1.3,0-2.4-1.1-2.4-2.4l0,0C-76.2-139.7-75.1-140.7-73.8-140.7z"/>
					<path id="Rectangle_1408" fill="#288ED9" d="M-118.4-150.4L-118.4-150.4c1.3,0,2.4,1.1,2.4,2.4l0,0c0,1.3-1.1,2.4-2.4,2.4l0,0
						c-1.3,0-2.4-1.1-2.4-2.4l0,0C-120.9-149.4-119.8-150.4-118.4-150.4z"/>
					<path id="Rectangle_1421" fill="#288ED9" d="M-112.6-140.7L-112.6-140.7c1.3,0,2.4,1.1,2.4,2.4l0,0c0,1.3-1.1,2.4-2.4,2.4l0,0
						c-1.3,0-2.4-1.1-2.4-2.4l0,0C-115-139.7-114-140.7-112.6-140.7z"/>
					<path id="Rectangle_1413" fill="#288ED9" d="M-69.9-150.4L-69.9-150.4c1.3,0,2.4,1.1,2.4,2.4l0,0c0,1.3-1.1,2.4-2.4,2.4l0,0
						c-1.3,0-2.4-1.1-2.4-2.4l0,0C-72.3-149.4-71.2-150.4-69.9-150.4z"/>
					<path id="Rectangle_1416" fill="#288ED9" d="M-64.1-140.7L-64.1-140.7c1.3,0,2.4,1.1,2.4,2.4l0,0c0,1.3-1.1,2.4-2.4,2.4l0,0
						c-1.3,0-2.4-1.1-2.4-2.4l0,0C-66.5-139.7-65.4-140.7-64.1-140.7z"/>
					<path id="Rectangle_1409" fill="#288ED9" d="M-108.7-150.4L-108.7-150.4c1.3,0,2.4,1.1,2.4,2.4l0,0c0,1.3-1.1,2.4-2.4,2.4l0,0
						c-1.3,0-2.4-1.1-2.4-2.4l0,0C-111.2-149.4-110.1-150.4-108.7-150.4z"/>
					<path id="Rectangle_1420" fill="#288ED9" d="M-102.9-140.7L-102.9-140.7c1.3,0,2.4,1.1,2.4,2.4l0,0c0,1.3-1.1,2.4-2.4,2.4l0,0
						c-1.3,0-2.4-1.1-2.4-2.4l0,0C-105.3-139.7-104.2-140.7-102.9-140.7z"/>
					<path id="Rectangle_1414" fill="#288ED9" d="M-60.2-150.4L-60.2-150.4c1.3,0,2.4,1.1,2.4,2.4l0,0c0,1.3-1.1,2.4-2.4,2.4l0,0
						c-1.3,0-2.4-1.1-2.4-2.4l0,0C-62.6-149.4-61.5-150.4-60.2-150.4z"/>
					<path id="Rectangle_1415" fill="#288ED9" d="M-54.4-140.7L-54.4-140.7c1.3,0,2.4,1.1,2.4,2.4l0,0c0,1.3-1.1,2.4-2.4,2.4l0,0
						c-1.3,0-2.4-1.1-2.4-2.4l0,0C-56.8-139.7-55.7-140.7-54.4-140.7z"/>
				</g>
				<path id="Rectangle_1634" fill="#0E71BB" d="M-145-82.5H48.9c2.8,0,5,2.2,5,5v47.1c0,2.8-2.2,5-5,5H-145c-2.8,0-5-2.2-5-5v-47.1
					C-150-80.2-147.8-82.5-145-82.5z"/>
				<g id="Group_113" transform="translate(20.586 89.721)">
					<g id="Rectangle_1635" transform="translate(0 0)">
						<path fill="#21E2E2" d="M-142.5-150.4L-142.5-150.4c4.1,0,7.5,3.3,7.5,7.5v0.6c0,4.1-3.3,7.5-7.5,7.5h0
							c-4.1,0-7.5-3.3-7.5-7.5v-0.6C-150-147.1-146.7-150.4-142.5-150.4z"/>
						<path fill="none" stroke="#137FCF" stroke-width="2" d="M-142.5-149.4L-142.5-149.4c3.6,0,6.5,2.9,6.5,6.5v0.6
							c0,3.6-2.9,6.5-6.5,6.5h0c-3.6,0-6.5-2.9-6.5-6.5v-0.6C-149-146.6-146.1-149.4-142.5-149.4z"/>
					</g>
					<g id="Rectangle_1636" transform="translate(21.75 0)">
						<path fill="#FFBC98" d="M-142.5-150.4L-142.5-150.4c4.1,0,7.5,3.3,7.5,7.5v0.6c0,4.1-3.3,7.5-7.5,7.5h0
							c-4.1,0-7.5-3.3-7.5-7.5v-0.6C-150-147.1-146.7-150.4-142.5-150.4z"/>
						<path fill="none" stroke="#137FCF" stroke-width="2" d="M-142.5-149.4L-142.5-149.4c3.6,0,6.5,2.9,6.5,6.5v0.6
							c0,3.6-2.9,6.5-6.5,6.5h0c-3.6,0-6.5-2.9-6.5-6.5v-0.6C-149-146.6-146.1-149.4-142.5-149.4z"/>
					</g>
				</g>
				<path id="Rectangle_1638" fill="#0E71BB" d="M-145-14.5H48.9c2.8,0,5,2.2,5,5v47.1c0,2.8-2.2,5-5,5H-145c-2.8,0-5-2.2-5-5V-9.5
					C-150-12.3-147.8-14.5-145-14.5z"/>
				<path id="Path_5065" fill="#005B9F" d="M-144.3-82.5h69.1v57.1h-69.1c-3.1,0-5.7-2.5-5.7-5.7c0,0,0,0,0,0v-45.7
					C-150-79.9-147.5-82.5-144.3-82.5z"/>
				<g id="Group_115" transform="translate(22.479 91.545)">
					<path id="Rectangle_1425" fill="#21E2E2" d="M-144.1-150.4L-144.1-150.4c3.3,0,5.9,2.7,5.9,5.9v0.5c0,3.3-2.7,5.9-5.9,5.9l0,0
						c-3.3,0-5.9-2.7-5.9-5.9v-0.5C-150-147.8-147.3-150.4-144.1-150.4z"/>
					<path id="Rectangle_1442" fill="#FFBC98" d="M-126.8-150.4L-126.8-150.4c3.3,0,5.9,2.7,5.9,5.9v0.5c0,3.3-2.7,5.9-5.9,5.9l0,0
						c-3.3,0-5.9-2.7-5.9-5.9v-0.5C-132.7-147.8-130-150.4-126.8-150.4z"/>
				</g>
				<g id="Group_5597" transform="translate(22.479 25.296)">
					<path id="Rectangle_1425-2" fill="#21E2E2" d="M-144.1-150.4L-144.1-150.4c3.3,0,5.9,2.7,5.9,5.9v0.5c0,3.3-2.7,5.9-5.9,5.9
						l0,0c-3.3,0-5.9-2.7-5.9-5.9v-0.5C-150-147.8-147.3-150.4-144.1-150.4z"/>
					<path id="Rectangle_1442-2" fill="#FFBC98" d="M-126.8-150.4L-126.8-150.4c3.3,0,5.9,2.7,5.9,5.9v0.5c0,3.3-2.7,5.9-5.9,5.9
						l0,0c-3.3,0-5.9-2.7-5.9-5.9v-0.5C-132.7-147.8-130-150.4-126.8-150.4z"/>
				</g>
				<path id="Path_5396" fill="#005B9F" d="M-144.3-14.9h69.1v57.1h-69.1c-3.1,0-5.7-2.5-5.7-5.7c0,0,0,0,0,0V-9.2
					C-150-12.3-147.5-14.9-144.3-14.9z"/>
				<g id="Group_5703" transform="translate(22.478 159.158)">
					<path id="Rectangle_1425-3" fill="#21E2E2" d="M-144.1-150.4L-144.1-150.4c3.3,0,5.9,2.7,5.9,5.9v0.5c0,3.3-2.7,5.9-5.9,5.9
						l0,0c-3.3,0-5.9-2.7-5.9-5.9v-0.5C-150-147.8-147.3-150.4-144.1-150.4z"/>
					<path id="Rectangle_1442-3" fill="#FFBC98" d="M-126.8-150.4L-126.8-150.4c3.3,0,5.9,2.7,5.9,5.9v0.5c0,3.3-2.7,5.9-5.9,5.9
						l0,0c-3.3,0-5.9-2.7-5.9-5.9v-0.5C-132.7-147.8-130-150.4-126.8-150.4z"/>
				</g>
			</g>
		</g>
	</g>
	<g id="Group_5702" transform="translate(88.958 153.63)">
		<g id="Group_5584" transform="translate(0 0)">
			<path id="Rectangle_1405-2" fill="#52ACEA" d="M-146-150.4L-146-150.4c2.2,0,4,1.8,4,4v0c0,2.2-1.8,4-4,4h0c-2.2,0-4-1.8-4-4v0
				C-150-148.6-148.2-150.4-146-150.4z"/>
			<path id="Rectangle_1424-2" fill="#52ACEA" d="M-136.3-134.4L-136.3-134.4c2.2,0,4,1.8,4,4v0c0,2.2-1.8,4-4,4h0c-2.2,0-4-1.8-4-4
				v0C-140.4-132.6-138.6-134.4-136.3-134.4z"/>
			<path id="Rectangle_1410-2" fill="#52ACEA" d="M-65.6-150.4L-65.6-150.4c2.2,0,4,1.8,4,4v0c0,2.2-1.8,4-4,4h0c-2.2,0-4-1.8-4-4v0
				C-69.6-148.6-67.8-150.4-65.6-150.4z"/>
			<path id="Rectangle_1419-2" fill="#52ACEA" d="M-55.9-134.4L-55.9-134.4c2.2,0,4,1.8,4,4v0c0,2.2-1.8,4-4,4h0c-2.2,0-4-1.8-4-4v0
				C-60-132.6-58.2-134.4-55.9-134.4z"/>
			<path id="Rectangle_1406-2" fill="#52ACEA" d="M-129.9-150.4L-129.9-150.4c2.2,0,4,1.8,4,4v0c0,2.2-1.8,4-4,4h0c-2.2,0-4-1.8-4-4
				v0C-133.9-148.6-132.1-150.4-129.9-150.4z"/>
			<path id="Rectangle_1423-2" fill="#52ACEA" d="M-120.3-134.4L-120.3-134.4c2.2,0,4,1.8,4,4v0c0,2.2-1.8,4-4,4h0c-2.2,0-4-1.8-4-4
				v0C-124.3-132.6-122.5-134.4-120.3-134.4z"/>
			<path id="Rectangle_1407-2" fill="#52ACEA" d="M-113.8-150.4L-113.8-150.4c2.2,0,4,1.8,4,4v0c0,2.2-1.8,4-4,4h0c-2.2,0-4-1.8-4-4
				v0C-117.8-148.6-116-150.4-113.8-150.4z"/>
			<path id="Rectangle_1422-2" fill="#52ACEA" d="M-104.2-134.4L-104.2-134.4c2.2,0,4,1.8,4,4v0c0,2.2-1.8,4-4,4h0c-2.2,0-4-1.8-4-4
				v0C-108.2-132.6-106.4-134.4-104.2-134.4z"/>
			<path id="Rectangle_1408-2" fill="#52ACEA" d="M-97.7-150.4L-97.7-150.4c2.2,0,4,1.8,4,4v0c0,2.2-1.8,4-4,4h0c-2.2,0-4-1.8-4-4v0
				C-101.8-148.6-100-150.4-97.7-150.4z"/>
			<path id="Rectangle_1421-2" fill="#52ACEA" d="M-88.1-134.4L-88.1-134.4c2.2,0,4,1.8,4,4v0c0,2.2-1.8,4-4,4h0c-2.2,0-4-1.8-4-4v0
				C-92.1-132.6-90.3-134.4-88.1-134.4z"/>
			<path id="Rectangle_1409-2" fill="#52ACEA" d="M-81.7-150.4L-81.7-150.4c2.2,0,4,1.8,4,4v0c0,2.2-1.8,4-4,4h0c-2.2,0-4-1.8-4-4v0
				C-85.7-148.6-83.9-150.4-81.7-150.4z"/>
			<path id="Rectangle_1420-2" fill="#52ACEA" d="M-72-134.4L-72-134.4c2.2,0,4,1.8,4,4v0c0,2.2-1.8,4-4,4h0c-2.2,0-4-1.8-4-4v0
				C-76-132.6-74.2-134.4-72-134.4z"/>
		</g>
	</g>
	<g id="Group_5709" transform="translate(88.958 84.666)">
		<g id="Group_5584-2" transform="translate(0 0)">
			<path id="Rectangle_1405-3" fill="#52ACEA" d="M-146-150.4L-146-150.4c2.2,0,4,1.8,4,4v0c0,2.2-1.8,4-4,4h0c-2.2,0-4-1.8-4-4v0
				C-150-148.6-148.2-150.4-146-150.4z"/>
			<path id="Rectangle_1424-3" fill="#52ACEA" d="M-136.3-134.4L-136.3-134.4c2.2,0,4,1.8,4,4v0c0,2.2-1.8,4-4,4h0c-2.2,0-4-1.8-4-4
				v0C-140.4-132.6-138.6-134.4-136.3-134.4z"/>
			<path id="Rectangle_1410-3" fill="#52ACEA" d="M-65.6-150.4L-65.6-150.4c2.2,0,4,1.8,4,4v0c0,2.2-1.8,4-4,4h0c-2.2,0-4-1.8-4-4v0
				C-69.6-148.6-67.8-150.4-65.6-150.4z"/>
			<path id="Rectangle_1419-3" fill="#52ACEA" d="M-55.9-134.4L-55.9-134.4c2.2,0,4,1.8,4,4v0c0,2.2-1.8,4-4,4h0c-2.2,0-4-1.8-4-4v0
				C-60-132.6-58.2-134.4-55.9-134.4z"/>
			<path id="Rectangle_1406-3" fill="#52ACEA" d="M-129.9-150.4L-129.9-150.4c2.2,0,4,1.8,4,4v0c0,2.2-1.8,4-4,4h0c-2.2,0-4-1.8-4-4
				v0C-133.9-148.6-132.1-150.4-129.9-150.4z"/>
			<path id="Rectangle_1423-3" fill="#52ACEA" d="M-120.3-134.4L-120.3-134.4c2.2,0,4,1.8,4,4v0c0,2.2-1.8,4-4,4h0c-2.2,0-4-1.8-4-4
				v0C-124.3-132.6-122.5-134.4-120.3-134.4z"/>
			<path id="Rectangle_1407-3" fill="#52ACEA" d="M-113.8-150.4L-113.8-150.4c2.2,0,4,1.8,4,4v0c0,2.2-1.8,4-4,4h0c-2.2,0-4-1.8-4-4
				v0C-117.8-148.6-116-150.4-113.8-150.4z"/>
			<path id="Rectangle_1422-3" fill="#52ACEA" d="M-104.2-134.4L-104.2-134.4c2.2,0,4,1.8,4,4v0c0,2.2-1.8,4-4,4h0c-2.2,0-4-1.8-4-4
				v0C-108.2-132.6-106.4-134.4-104.2-134.4z"/>
			<path id="Rectangle_1408-3" fill="#52ACEA" d="M-97.7-150.4L-97.7-150.4c2.2,0,4,1.8,4,4v0c0,2.2-1.8,4-4,4h0c-2.2,0-4-1.8-4-4v0
				C-101.8-148.6-100-150.4-97.7-150.4z"/>
			<path id="Rectangle_1421-3" fill="#52ACEA" d="M-88.1-134.4L-88.1-134.4c2.2,0,4,1.8,4,4v0c0,2.2-1.8,4-4,4h0c-2.2,0-4-1.8-4-4v0
				C-92.1-132.6-90.3-134.4-88.1-134.4z"/>
			<path id="Rectangle_1409-3" fill="#52ACEA" d="M-81.7-150.4L-81.7-150.4c2.2,0,4,1.8,4,4v0c0,2.2-1.8,4-4,4h0c-2.2,0-4-1.8-4-4v0
				C-85.7-148.6-83.9-150.4-81.7-150.4z"/>
			<path id="Rectangle_1420-3" fill="#52ACEA" d="M-72-134.4L-72-134.4c2.2,0,4,1.8,4,4v0c0,2.2-1.8,4-4,4h0c-2.2,0-4-1.8-4-4v0
				C-76-132.6-74.2-134.4-72-134.4z"/>
		</g>
	</g>
	<g id="Group_5710" transform="translate(88.958 17.053)">
		<g id="Group_5584-3" transform="translate(0 0)">
			<path id="Rectangle_1405-4" fill="#52ACEA" d="M-146-150.4L-146-150.4c2.2,0,4,1.8,4,4v0c0,2.2-1.8,4-4,4h0c-2.2,0-4-1.8-4-4v0
				C-150-148.6-148.2-150.4-146-150.4z"/>
			<path id="Rectangle_1424-4" fill="#52ACEA" d="M-136.3-134.4L-136.3-134.4c2.2,0,4,1.8,4,4v0c0,2.2-1.8,4-4,4h0c-2.2,0-4-1.8-4-4
				v0C-140.4-132.6-138.6-134.4-136.3-134.4z"/>
			<path id="Rectangle_1410-4" fill="#52ACEA" d="M-65.6-150.4L-65.6-150.4c2.2,0,4,1.8,4,4v0c0,2.2-1.8,4-4,4h0c-2.2,0-4-1.8-4-4v0
				C-69.6-148.6-67.8-150.4-65.6-150.4z"/>
			<path id="Rectangle_1419-4" fill="#52ACEA" d="M-55.9-134.4L-55.9-134.4c2.2,0,4,1.8,4,4v0c0,2.2-1.8,4-4,4h0c-2.2,0-4-1.8-4-4v0
				C-60-132.6-58.2-134.4-55.9-134.4z"/>
			<path id="Rectangle_1406-4" fill="#52ACEA" d="M-129.9-150.4L-129.9-150.4c2.2,0,4,1.8,4,4v0c0,2.2-1.8,4-4,4h0c-2.2,0-4-1.8-4-4
				v0C-133.9-148.6-132.1-150.4-129.9-150.4z"/>
			<path id="Rectangle_1423-4" fill="#52ACEA" d="M-120.3-134.4L-120.3-134.4c2.2,0,4,1.8,4,4v0c0,2.2-1.8,4-4,4h0c-2.2,0-4-1.8-4-4
				v0C-124.3-132.6-122.5-134.4-120.3-134.4z"/>
			<path id="Rectangle_1407-4" fill="#52ACEA" d="M-113.8-150.4L-113.8-150.4c2.2,0,4,1.8,4,4v0c0,2.2-1.8,4-4,4h0c-2.2,0-4-1.8-4-4
				v0C-117.8-148.6-116-150.4-113.8-150.4z"/>
			<path id="Rectangle_1422-4" fill="#52ACEA" d="M-104.2-134.4L-104.2-134.4c2.2,0,4,1.8,4,4v0c0,2.2-1.8,4-4,4h0c-2.2,0-4-1.8-4-4
				v0C-108.2-132.6-106.4-134.4-104.2-134.4z"/>
			<path id="Rectangle_1408-4" fill="#52ACEA" d="M-97.7-150.4L-97.7-150.4c2.2,0,4,1.8,4,4v0c0,2.2-1.8,4-4,4h0c-2.2,0-4-1.8-4-4v0
				C-101.8-148.6-100-150.4-97.7-150.4z"/>
			<path id="Rectangle_1421-4" fill="#52ACEA" d="M-88.1-134.4L-88.1-134.4c2.2,0,4,1.8,4,4v0c0,2.2-1.8,4-4,4h0c-2.2,0-4-1.8-4-4v0
				C-92.1-132.6-90.3-134.4-88.1-134.4z"/>
			<path id="Rectangle_1409-4" fill="#52ACEA" d="M-81.7-150.4L-81.7-150.4c2.2,0,4,1.8,4,4v0c0,2.2-1.8,4-4,4h0c-2.2,0-4-1.8-4-4v0
				C-85.7-148.6-83.9-150.4-81.7-150.4z"/>
			<path id="Rectangle_1420-4" fill="#52ACEA" d="M-72-134.4L-72-134.4c2.2,0,4,1.8,4,4v0c0,2.2-1.8,4-4,4h0c-2.2,0-4-1.8-4-4v0
				C-76-132.6-74.2-134.4-72-134.4z"/>
		</g>
	</g>
</g>
<linearGradient id="Ellipse_1200_1_" gradientUnits="userSpaceOnUse" x1="296.6805" y1="362.4479" x2="296.6805" y2="360.4438" gradientTransform="matrix(275.376 0 0 -46.426 -80707.0156 17259.5176)">
	<stop  offset="0" style="stop-color:#288ED9"/>
	<stop  offset="1" style="stop-color:#137FCF;stop-opacity:5.100000e-02"/>
</linearGradient>
<ellipse id="Ellipse_1200" fill="url(#Ellipse_1200_1_)" cx="991.7" cy="502.3" rx="137.7" ry="23.2"/>
<g id="Group_5688" transform="translate(-0.641 -18.146)">
	<path id="Path_5365" fill="#288ED9" d="M179.2,326.6h18v193.2h-18V326.6z"/>
	<rect id="Rectangle_2456" x="38.7" y="414.3" fill="#288ED9" width="205.9" height="18"/>
</g>
<g id="gift-box_1_" transform="translate(1018.736 445.145)">
	<path id="Path_5290" fill="#288ED9" d="M-2-138.8h-130.4c-2.7-0.1-4.9,2-5,4.7V52.7c0.1,2.7,2.3,4.8,5,4.7H-2c2.7,0.1,4.9-2,5-4.7
		V-134C2.9-136.7,0.7-138.8-2-138.8z"/>
	<path id="Path_5291" fill="#137FCF" d="M-128.6,52.7V-134c0.1-2.7,2.3-4.8,5-4.7h-8.8c-2.7-0.1-4.9,2-5,4.7V52.7
		c0.1,2.7,2.3,4.8,5,4.7h8.8C-126.3,57.5-128.5,55.4-128.6,52.7z"/>
	<rect id="Rectangle_2431" x="-137.4" y="-18.2" fill="#FFFFFF" width="140.4" height="18"/>
	<rect id="Rectangle_2433" x="-97" y="-139" fill="#52ACEA" width="18" height="196.4"/>
	<path id="Path_5459" fill="#52ACEA" d="M-87.6,57.5L-87.6,57.5z"/>
	<g id="Group_5687">
		<path id="Path_5297" fill="#21E2E2" d="M-44.6,27.8c-4.5-7.3-13.9-21.3-24.1-30L-73-4.3C-74.1-1.7-76.7,0-79.5,0h-7.7
			c7.4,12.3,13,25.6,16.9,39.4l0,0c1.1,3.8,3.8,4.6,5.9,3.7l16.9-7.8c5.5-2.5,3.7-6.3,3.2-7.3L-44.6,27.8z"/>
		<g id="Group_5666" transform="translate(0 113.006)">
			<path id="Path_5292" fill="#21E2E2" d="M-103.6-129.1c0-1,0.2-2,0.6-2.9l-34.4-16.9c-1.8-0.8-12.7-5.6-12.7,6.5v36.4
				c0,12,10.9,7.3,12.7,6.5l34.4-16.9C-103.7-118.1-103.6-118.3-103.6-129.1z"/>
			<path id="Path_5293" fill="#1BD0D0" d="M-38.6-148.8L-73-132c0.4,0.9,0.6,1.9,0.6,2.9c0,10.8,0.2,11-0.6,12.8l34.4,16.9
				c1.8,0.8,12.7,5.6,12.7-6.5v-36.4C-25.9-154.4-36.9-149.7-38.6-148.8z"/>
		</g>
		<path id="Path_5294" fill="#1BD0D0" d="M-140.5,7.1v-36.4c0-3.6,1-5.7,2.4-6.8c-3.1-1.3-11.8-3.9-11.8,6.8V7.1
			c0,10.8,8.7,8.1,11.8,6.8C-139.6,12.7-140.5,10.7-140.5,7.1z"/>
		<path id="Path_5295" fill="#21E2E2" d="M-96.4,0c-2.8,0-5.4-1.7-6.5-4.3l-4.3,2.1c-9.9,8.5-19,21.8-23.6,29.3l0,0
			c-3.4,5.3,1.3,7.6,1.3,7.7l16.6,7.6c6,2.8,7.4-2.9,7.4-2.9l0,0c3.9-13.9,9.5-27.2,16.9-39.5L-96.4,0L-96.4,0z"/>
		<path id="Path_5296" fill="#1BD0D0" d="M-122.5,35.2L-122.5,35.2c4.5-8.9,13-24.4,23.1-35.8c-1.6-0.7-2.9-2-3.6-3.6l-4.3,2.1
			c-9.9,8.5-19,21.8-23.6,29.3l0,0c-3.4,5.3,1.3,7.6,1.3,7.7l6.2,2.8C-123.2,36.7-122.9,35.9-122.5,35.2z"/>
		<g id="Group_5667" transform="translate(46.199 126.97)">
			<path id="Path_5298" fill="#1BD0D0" d="M-122.5-127.8c-1.9,1-2.6,0.8-11,0.8c7.4,12.3,13,25.6,16.9,39.4l0,0
				c1.1,3.8,3.8,4.6,5.9,3.7l5.3-2.5C-109.6-100.7-115.3-114.6-122.5-127.8z"/>
			<path id="Path_5299" fill="#21E2E2" d="M-125.7-150.4h-16.9c-4.1,0-7.4,3.3-7.4,7.4v9.9c0,4.1,3.3,7.4,7.4,7.4h16.9
				c4.1,0,7.4-3.3,7.4-7.4v-9.9C-118.3-147.1-121.6-150.4-125.7-150.4z"/>
		</g>
		<g id="Path_5300" transform="translate(-135.161 -185.715)">
			<path fill="#1BD0D0" d="M44.3,186.4h-5.6c-3.8,0-6.9-3.1-6.9-6.9v-9.9c0-3.8,3.1-6.9,6.9-6.9h5.6c-2.4,1.3-4,3.9-4,6.9v9.9
				C40.3,182.5,41.9,185,44.3,186.4z"/>
			<path fill="#1BD0D0" d="M42.8,185.9c-1.8-1.5-2.9-3.8-2.9-6.4v-9.9c0-2.5,1.1-4.8,2.9-6.4h-4c-3.5,0-6.4,2.9-6.4,6.4v9.9
				c0,3.5,2.9,6.4,6.4,6.4H42.8 M48.2,186.9h-9.4c-4.1,0-7.4-3.3-7.4-7.4v-9.9c0-4.1,3.3-7.4,7.4-7.4h9.4c-4.1,0-7.4,3.3-7.4,7.4
				v9.9C40.8,183.6,44.1,186.9,48.2,186.9z"/>
		</g>
	</g>
</g>
<g id="gift-box" transform="translate(1098.506 528.896)">
	<path id="Union_20" fill="#288ED9" d="M-131.4-27.5c-2.8,0-5.1-2.1-5.4-4.9c0-0.4,0,2.7,0-46.6v-43.8h-7.7c-3,0-5.4-2.4-5.4-5.4
		l0,0V-145c0-3,2.4-5.4,5.4-5.4H17.4c3,0,5.4,2.4,5.4,5.4v16.8c0,3-2.4,5.4-5.4,5.4H9.7v89.8c0,3-2.4,5.4-5.4,5.4l0,0H-131.4z"/>
	<path id="Path_5305" fill="#137FCF" d="M-136.8-123.2v45.3c0,49.3,0,46.1,0,46.6c0.3,2.8,2.6,4.9,5.4,4.9H4.2c3,0,5.4-2.4,5.4-5.4
		v-91.3H-136.8z"/>
	<path id="Path_5306" fill="#005B9F" d="M-128.7-31.9v-91.3h-8.2v45.3c0,49.3,0,46.1,0,46.6c0.3,2.8,2.6,4.9,5.4,4.9h8.2
		C-126.2-26.5-128.7-28.9-128.7-31.9L-128.7-31.9z"/>
	<rect id="Rectangle_2436" x="-72.6" y="-125.2" fill="#FFBC98" width="18" height="98.7"/>
	<path id="Path_5314" fill="#137FCF" d="M22.8-128.2c0,3-2.4,5.4-5.4,5.4h-161.9c-3,0-5.4-2.4-5.4-5.4V-145c0-3,2.4-5.4,5.4-5.4
		H17.4c3,0,5.4,2.4,5.4,5.4V-128.2z"/>
	<path id="Path_5315" fill="#005B9F" d="M17.4-131.2h-161.9c-3,0-5.4-2.4-5.4-5.4v8.4c0,3,2.4,5.4,5.4,5.4H17.4c3,0,5.4-2.4,5.4-5.4
		v-8.4C22.8-133.6,20.4-131.2,17.4-131.2z"/>
</g>
<path id="Path_5361" fill="#D6EEFF" d="M1138.4,267.7"/>
<path id="Path_5360" fill="#164571" d="M1143.9,328"/>
<g id="Group_5690" transform="translate(0 0.344)">
	<path id="Union_23" fill="#21E2E2" d="M260.8,512.1L260.8,512.1c-15.3,0-27.7-12.4-27.8-27.7c0,0,0,0,0,0c0,0,0,0,0,0
		c0-0.7,0-1.4,0.1-2.1c0.4-6,2.9-11.8,6.9-16.3l0,0l0.1-0.2c0,0,0.1-0.1,0.1-0.1l0.1-0.1c3.7-4,8.5-6.9,13.9-8.2l0.2,0l0.1,0
		c0.1,0,0.1,0,0.2,0v-7c0-2.8,2.3-5.1,5.1-5.1c0,0,0,0,0,0h2.6c0,0,0.1,0,0.1,0s0.1,0,0.1,0h0c2.7,0.1,4.9,2.4,4.9,5.1v7.2
		c11.7,3,20.2,13.2,20.9,25.3c0,0,0,0,0,0c0,0.1,0,0.2,0,0.3l0,0.1l0,0.1c0,0.1,0,0.2,0,0.3c0,0,0,0.1,0,0.1c0,0.1,0,0.2,0,0.3
		c0,0,0,0,0,0.1c0,0.1,0,0.2,0,0.3c0,0.1,0,0.2,0,0.3c0,0,0,0.1,0,0.1c0,0.1,0,0.1,0,0.2c0,0,0,0.1,0,0.1c0,0.1,0,0.2,0,0.3
		c0,0.1,0,0.1,0,0.2c0,0,0,0,0,0.1c-0.7,14.6-12.5,26.1-27.1,26.5h-0.2c0,0-0.1,0-0.1,0C261,512.1,260.9,512.1,260.8,512.1
		L260.8,512.1z"/>
	<g id="gift-box-2" transform="translate(383.01 595.533)">
		<path id="Path_5372" fill="#14B1B1" d="M-142.1-111.2c0-13.8,10.1-25.5,23.8-27.5c-15.2-2.2-29.3,8.3-31.4,23.5
			c-2.2,15.2,8.3,29.3,23.5,31.4c2.6,0.4,5.3,0.4,7.9,0C-131.9-85.7-142.1-97.4-142.1-111.2z"/>
		<path id="Path_5373" fill="#FFBC98" d="M-95.2-117.7l-10.2-5c-1.9-0.9-4.1-0.9-5.9,0l-10.7,5.2l-10.7-5.2c-1.9-0.9-4.1-0.9-5.9,0
			l-10.7,5.2l0,0c-1.1,4.7-0.9,9.6,0.4,14.2c1.8-0.1,1.6-0.2,13.2-5.9l10.7,5.2c1.9,0.9,4.1,0.9,5.9,0l10.7-5.2l10.7,5.2
			c0.7,0.3,1.4,0.5,2.1,0.6C-94.2-108-94.1-112.9-95.2-117.7L-95.2-117.7z"/>
		<path id="Path_5374" fill="#F4A77E" d="M-148.9-103.3c1.7-0.1,2.2-0.5,7.2-3c-1-5.3-0.3-10.8,1.8-15.8l-9.4,4.6l0,0l0,0
			C-150.4-112.8-150.2-107.9-148.9-103.3z"/>
		<g id="Group_6232" transform="translate(0 -1)">
			<path id="Path_5366" fill="#3E9BE1" d="M-115.4-136.9v-8.4c0-2.8-2.3-5.1-5.1-5.1h-2.6c-2.8,0-5.1,2.3-5.1,5.1v8.2
				C-124.1-138-119.6-138-115.4-136.9z"/>
			<path id="Path_5367" fill="#137FCF" d="M-121.9-145.3c0-2.1,1.3-4,3.2-4.8c-0.6-0.2-1.3-0.4-1.9-0.4h-2.6c-2.8,0-5.1,2.3-5.1,5.1
				v8.2c2.1-0.5,4.3-0.7,6.5-0.7L-121.9-145.3L-121.9-145.3z"/>
		</g>
	</g>
</g>
<g id="Group_5755" transform="translate(-819 -20)">
	<g id="Group_5754" transform="translate(1095.736 434.145)">
		<path id="Path_5297-2" fill="#21E2E2" d="M-44.6,27.8c-4.5-7.3-13.9-21.3-24.1-30L-73-4.3C-74.1-1.7-76.7,0-79.5,0h-7.7
			c7.4,12.3,13,25.6,16.9,39.4l0,0c1.1,3.8,3.8,4.6,5.9,3.7l16.9-7.8c5.5-2.5,3.7-6.3,3.2-7.3L-44.6,27.8z"/>
		<g id="Group_5666-2" transform="translate(0 113.006)">
			<path id="Path_5292-2" fill="#21E2E2" d="M-103.6-129.1c0-1,0.2-2,0.6-2.9l-34.4-16.9c-1.8-0.8-12.7-5.6-12.7,6.5v36.4
				c0,12,10.9,7.3,12.7,6.5l34.4-16.9C-103.7-118.1-103.6-118.3-103.6-129.1z"/>
			<path id="Path_5293-2" fill="#1BD0D0" d="M-38.6-148.8L-73-132c0.4,0.9,0.6,1.9,0.6,2.9c0,10.8,0.2,11-0.6,12.8l34.4,16.9
				c1.8,0.8,12.7,5.6,12.7-6.5v-36.4C-25.9-154.4-36.9-149.7-38.6-148.8z"/>
		</g>
		<path id="Path_5294-2" fill="#1BD0D0" d="M-140.5,7.1v-36.4c0-3.6,1-5.7,2.4-6.8c-3.1-1.3-11.8-3.9-11.8,6.8V7.1
			c0,10.8,8.7,8.1,11.8,6.8C-139.6,12.7-140.5,10.7-140.5,7.1z"/>
		<path id="Path_5295-2" fill="#21E2E2" d="M-96.4,0c-2.8,0-5.4-1.7-6.5-4.3l-4.3,2.1c-9.9,8.5-19,21.8-23.6,29.3l0,0
			c-3.4,5.3,1.3,7.6,1.3,7.7l16.6,7.6c6,2.8,7.4-2.9,7.4-2.9l0,0c3.9-13.9,9.5-27.2,16.9-39.5L-96.4,0L-96.4,0z"/>
		<path id="Path_5296-2" fill="#1BD0D0" d="M-122.5,35.2L-122.5,35.2c4.5-8.9,13-24.4,23.1-35.8c-1.6-0.7-2.9-2-3.6-3.6l-4.3,2.1
			c-9.9,8.5-19,21.8-23.6,29.3l0,0c-3.4,5.3,1.3,7.6,1.3,7.7l6.2,2.8C-123.2,36.7-122.9,35.9-122.5,35.2z"/>
		<g id="Group_5667-2" transform="translate(46.199 126.97)">
			<path id="Path_5298-2" fill="#1BD0D0" d="M-122.5-127.8c-1.9,1-2.6,0.8-11,0.8c7.4,12.3,13,25.6,16.9,39.4l0,0
				c1.1,3.8,3.8,4.6,5.9,3.7l5.3-2.5C-109.6-100.7-115.3-114.6-122.5-127.8z"/>
			<path id="Path_5299-2" fill="#21E2E2" d="M-125.7-150.4h-16.9c-4.1,0-7.4,3.3-7.4,7.4v9.9c0,4.1,3.3,7.4,7.4,7.4h16.9
				c4.1,0,7.4-3.3,7.4-7.4v-9.9C-118.3-147.1-121.6-150.4-125.7-150.4z"/>
		</g>
		<g id="Path_5300-2" transform="translate(-135.161 -185.715)">
			<path fill="#1BD0D0" d="M44.3,186.4h-5.6c-3.8,0-6.9-3.1-6.9-6.9v-9.9c0-3.8,3.1-6.9,6.9-6.9h5.6c-2.4,1.3-4,3.9-4,6.9v9.9
				C40.3,182.5,41.9,185,44.3,186.4z"/>
			<path fill="#1BD0D0" d="M42.8,185.9c-1.8-1.5-2.9-3.8-2.9-6.4v-9.9c0-2.5,1.1-4.8,2.9-6.4h-4c-3.5,0-6.4,2.9-6.4,6.4v9.9
				c0,3.5,2.9,6.4,6.4,6.4H42.8 M48.2,186.9h-9.4c-4.1,0-7.4-3.3-7.4-7.4v-9.9c0-4.1,3.3-7.4,7.4-7.4h9.4c-4.1,0-7.4,3.3-7.4,7.4
				v9.9C40.8,183.6,44.1,186.9,48.2,186.9z"/>
		</g>
	</g>
</g>
<g id="Group_6368" transform="translate(-115 -295)">
	<g id="Group_5583-2" transform="translate(1230.8 777.023)">
		<g id="Group_5582-2" transform="translate(0)">
			<g id="Group_5581-2" transform="translate(0)">
				<path id="Path_3764-2" fill="#0E71BB" d="M-144.3-150.4H14.3c3.1,0,5.7,2.5,5.7,5.7l0,0v36.3c0,3.1-2.5,5.7-5.7,5.7l0,0h-158.6
					c-3.1,0-5.7-2.5-5.7-5.7c0,0,0,0,0,0v-36.3C-150-147.9-147.5-150.4-144.3-150.4C-144.3-150.4-144.3-150.4-144.3-150.4z"/>
				<path id="Rectangle_1631-2" fill="#005B9F" d="M-146-150.4h58.3l0,0v47.6l0,0H-146c-2.2,0-4-1.8-4-4v-39.6
					C-150-148.7-148.2-150.4-146-150.4z"/>
				<g id="Group_5597-2" transform="translate(18.738 21.087)">
					<path id="Rectangle_1425-4" fill="#21E2E2" d="M-145-150.4L-145-150.4c2.7,0,5,2.2,5,5v0.4c0,2.7-2.2,5-5,5h0c-2.7,0-5-2.2-5-5
						v-0.4C-150-148.2-147.8-150.4-145-150.4z"/>
					<path id="Rectangle_1442-4" fill="#FFBC98" d="M-130.6-150.4L-130.6-150.4c2.7,0,5,2.2,5,5v0.4c0,2.7-2.2,5-5,5h0
						c-2.7,0-5-2.2-5-5v-0.4C-135.6-148.2-133.4-150.4-130.6-150.4z"/>
				</g>
			</g>
		</g>
	</g>
	<g id="Group_5710-2" transform="translate(1304.956 791.239)">
		<g id="Group_5584-4" transform="translate(0 0)">
			<path id="Rectangle_1405-5" fill="#52ACEA" d="M-146.6-150.4L-146.6-150.4c1.9,0,3.4,1.5,3.4,3.4l0,0c0,1.9-1.5,3.4-3.4,3.4l0,0
				c-1.9,0-3.4-1.5-3.4-3.4l0,0C-150-148.9-148.5-150.4-146.6-150.4z"/>
			<path id="Rectangle_1424-5" fill="#52ACEA" d="M-138.6-137L-138.6-137c1.9,0,3.4,1.5,3.4,3.4l0,0c0,1.9-1.5,3.4-3.4,3.4l0,0
				c-1.9,0-3.4-1.5-3.4-3.4l0,0C-142-135.5-140.5-137-138.6-137z"/>
			<path id="Rectangle_1410-5" fill="#52ACEA" d="M-79.6-150.4L-79.6-150.4c1.9,0,3.4,1.5,3.4,3.4l0,0c0,1.9-1.5,3.4-3.4,3.4l0,0
				c-1.9,0-3.4-1.5-3.4-3.4l0,0C-83-148.9-81.5-150.4-79.6-150.4z"/>
			<path id="Rectangle_1419-5" fill="#52ACEA" d="M-71.6-137L-71.6-137c1.9,0,3.4,1.5,3.4,3.4l0,0c0,1.9-1.5,3.4-3.4,3.4l0,0
				c-1.9,0-3.4-1.5-3.4-3.4l0,0C-74.9-135.5-73.4-137-71.6-137z"/>
			<path id="Rectangle_1406-5" fill="#52ACEA" d="M-133.2-150.4L-133.2-150.4c1.9,0,3.4,1.5,3.4,3.4l0,0c0,1.9-1.5,3.4-3.4,3.4l0,0
				c-1.9,0-3.4-1.5-3.4-3.4l0,0C-136.6-148.9-135.1-150.4-133.2-150.4z"/>
			<path id="Rectangle_1423-5" fill="#52ACEA" d="M-125.2-137L-125.2-137c1.9,0,3.4,1.5,3.4,3.4l0,0c0,1.9-1.5,3.4-3.4,3.4l0,0
				c-1.9,0-3.4-1.5-3.4-3.4l0,0C-128.6-135.5-127.1-137-125.2-137z"/>
			<path id="Rectangle_1407-5" fill="#52ACEA" d="M-119.8-150.4L-119.8-150.4c1.9,0,3.4,1.5,3.4,3.4l0,0c0,1.9-1.5,3.4-3.4,3.4l0,0
				c-1.9,0-3.4-1.5-3.4-3.4l0,0C-123.2-148.9-121.7-150.4-119.8-150.4z"/>
			<path id="Rectangle_1422-5" fill="#52ACEA" d="M-111.8-137L-111.8-137c1.9,0,3.4,1.5,3.4,3.4l0,0c0,1.9-1.5,3.4-3.4,3.4l0,0
				c-1.9,0-3.4-1.5-3.4-3.4l0,0C-115.2-135.5-113.7-137-111.8-137z"/>
			<path id="Rectangle_1408-5" fill="#52ACEA" d="M-106.4-150.4L-106.4-150.4c1.9,0,3.4,1.5,3.4,3.4l0,0c0,1.9-1.5,3.4-3.4,3.4l0,0
				c-1.9,0-3.4-1.5-3.4-3.4l0,0C-109.8-148.9-108.3-150.4-106.4-150.4z"/>
			<path id="Rectangle_1421-5" fill="#52ACEA" d="M-98.4-137L-98.4-137c1.9,0,3.4,1.5,3.4,3.4l0,0c0,1.9-1.5,3.4-3.4,3.4l0,0
				c-1.9,0-3.4-1.5-3.4-3.4l0,0C-101.8-135.5-100.3-137-98.4-137z"/>
			<path id="Rectangle_1409-5" fill="#52ACEA" d="M-93-150.4L-93-150.4c1.9,0,3.4,1.5,3.4,3.4l0,0c0,1.9-1.5,3.4-3.4,3.4l0,0
				c-1.9,0-3.4-1.5-3.4-3.4l0,0C-96.4-148.9-94.9-150.4-93-150.4z"/>
			<path id="Rectangle_1420-5" fill="#52ACEA" d="M-85-137L-85-137c1.9,0,3.4,1.5,3.4,3.4l0,0c0,1.9-1.5,3.4-3.4,3.4l0,0
				c-1.9,0-3.4-1.5-3.4-3.4l0,0C-88.3-135.5-86.8-137-85-137z"/>
		</g>
	</g>
</g>
</svg>
