<?xml version="1.0" encoding="utf-8"?>
<!-- Generator: Adobe Illustrator 22.0.1, SVG Export Plug-In . SVG Version: 6.00 Build 0)  -->
<svg version="1.1" id="Layer_1" xmlns="http://www.w3.org/2000/svg" xmlns:xlink="http://www.w3.org/1999/xlink" x="0px" y="0px"
	 viewBox="0 0 230 200" style="enable-background:new 0 0 230 200;" xml:space="preserve">
<style type="text/css">
	.st0{fill:#C6E6FF;}
	.st1{fill:#005B9F;}
	.st2{fill:#137FCF;}
	.st3{fill:#288ED9;}
	.st4{fill:#52ACEA;}
	.st5{fill:#164571;}
	.st6{fill:#198DE3;}
	.st7{fill:#21E2E2;}
	.st8{fill:#0E71BB;}
	.st9{fill:#FFBC98;}
</style>
<g id="Group_7678" transform="translate(-15772.05 -17900.162)">
	<g id="Group_5816" transform="translate(966.757 3134.06)">
		<path id="Path_3781" class="st0" d="M14962.1,14917.3c-43.7,9.1-69.8,26.4-69.8,26.4s-57.3,30.8-69.5-22.5s-33.9-91.8,18.7-108.5
			c52.6-16.7,97-33.4,139.4-25c23.7,4.7,45.4,38.8,48.7,70.3C15032,14882,15030.3,14902.7,14962.1,14917.3z"/>
	</g>
	<g id="Group_5896" transform="translate(1078.888 3197.923)">
		<path id="Path_5497" class="st1" d="M14840.5,14731.1h-73.9v131.8h73.9V14731.1z"/>
		<path id="Rectangle_2726" class="st2" d="M14807.3,14763.7h12.1c0.6,0,1,0.4,1,1v14.8c0,0.6-0.4,1-1,1h-12.1c-0.6,0-1-0.4-1-1
			v-14.8C14806.3,14764.2,14806.8,14763.7,14807.3,14763.7z"/>
		<path id="Rectangle_2727" class="st2" d="M14807.5,14785.6h11.9c0.6,0,1,0.4,1,1v14.8c0,0.6-0.4,1-1,1h-11.9c-0.6,0-1-0.4-1-1
			v-14.8C14806.5,14786,14807,14785.6,14807.5,14785.6z"/>
		<path id="Rectangle_2728" class="st2" d="M14807.5,14807.5h11.9c0.6,0,1,0.4,1,1v14.8c0,0.6-0.4,1-1,1h-11.9c-0.6,0-1-0.4-1-1
			v-14.8C14806.5,14807.9,14807,14807.5,14807.5,14807.5z"/>
		<g id="Group_5883" transform="translate(23.841 110.487)">
			<rect id="Rectangle_2738" x="14766.6" y="14719.9" class="st3" width="25.3" height="32.4"/>
			<ellipse id="Ellipse_1240" class="st4" cx="14786.6" cy="14736.2" rx="2.1" ry="2.1"/>
		</g>
		<path id="Rectangle_2759" class="st3" d="M14766.6,14719.9h77.1c1.1,0,2,0.9,2,2v8.8c0,1.1-0.9,2-2,2h-77.1l0,0V14719.9
			L14766.6,14719.9z"/>
		<path id="Rectangle_2756" class="st2" d="M14787,14763.7h12.1c0.6,0,1,0.4,1,1v14.8c0,0.6-0.4,1-1,1h-12.1c-0.6,0-1-0.4-1-1v-14.8
			C14786,14764.2,14786.5,14763.7,14787,14763.7z"/>
		<path id="Rectangle_2757" class="st2" d="M14787.3,14785.6h11.9c0.6,0,1,0.4,1,1v14.8c0,0.6-0.4,1-1,1h-11.9c-0.6,0-1-0.4-1-1
			v-14.8C14786.3,14786,14786.8,14785.6,14787.3,14785.6z"/>
		<path id="Rectangle_2758" class="st2" d="M14787.3,14807.5h11.9c0.6,0,1,0.4,1,1v14.8c0,0.6-0.4,1-1,1h-11.9c-0.6,0-1-0.4-1-1
			v-14.8C14786.3,14807.9,14786.8,14807.5,14787.3,14807.5z"/>
		<path id="Rectangle_2767" class="st2" d="M14807.3,14741.3h12.1c0.6,0,1,0.4,1,1v14.8c0,0.6-0.4,1-1,1h-12.1c-0.6,0-1-0.4-1-1
			v-14.8C14806.3,14741.8,14806.8,14741.3,14807.3,14741.3z"/>
		<path id="Rectangle_2768" class="st2" d="M14787,14741.3h12.1c0.6,0,1,0.4,1,1v14.8c0,0.6-0.4,1-1,1h-12.1c-0.6,0-1-0.4-1-1v-14.8
			C14786,14741.8,14786.5,14741.3,14787,14741.3z"/>
	</g>
	<g id="Group_5897" transform="translate(1152.405 3225.625)">
		<path id="Rectangle_2766" class="st5" d="M14766.6,14725.2h44.7l0,0v104.7c0,2.8-2.2,5-5,5h-39.7l0,0V14725.2L14766.6,14725.2z"/>
		<path id="Rectangle_2760" class="st3" d="M14766.6,14719.9h47c1.1,0,2,0.9,2,2v4.5c0,1.1-0.9,2-2,2h-47l0,0V14719.9
			L14766.6,14719.9z"/>
		<path id="Rectangle_2761" class="st6" d="M14792.8,14770.7h9.5c0.6,0,1,0.4,1,1v11.8c0,0.6-0.4,1-1,1h-9.5c-0.6,0-1-0.4-1-1v-11.8
			C14791.8,14771.2,14792.1,14770.7,14792.8,14770.7z"/>
		<path id="Rectangle_2762" class="st6" d="M14798.3,14788.6h9.3c0.6,0,1,0.4,1,1v11.8c0,0.6-0.4,1-1,1h-9.3c-0.6,0-1-0.4-1-1v-11.8
			C14797.3,14789.1,14797.6,14788.6,14798.3,14788.6z"/>
		<path id="Rectangle_2763" class="st6" d="M14776.1,14770.7h9.5c0.6,0,1,0.4,1,1v11.8c0,0.6-0.4,1-1,1h-9.5c-0.6,0-1-0.4-1-1v-11.8
			C14775.1,14771.2,14775.6,14770.7,14776.1,14770.7z"/>
		<path id="Rectangle_2764" class="st6" d="M14776.3,14788.6h9.3c0.6,0,1,0.4,1,1v11.8c0,0.6-0.4,1-1,1h-9.3c-0.6,0-1-0.4-1-1v-11.8
			C14775.3,14789.1,14775.8,14788.6,14776.3,14788.6z"/>
		<path id="Rectangle_2769" class="st6" d="M14792.8,14752.6h9.5c0.6,0,1,0.4,1,1v11.8c0,0.6-0.4,1-1,1h-9.5c-0.6,0-1-0.4-1-1v-11.8
			C14791.8,14753.1,14792.1,14752.6,14792.8,14752.6z"/>
		<path id="Rectangle_2770" class="st6" d="M14776.1,14752.6h9.5c0.6,0,1,0.4,1,1v11.8c0,0.6-0.4,1-1,1h-9.5c-0.6,0-1-0.4-1-1v-11.8
			C14775.1,14753.1,14775.6,14752.6,14776.1,14752.6z"/>
		<path id="Rectangle_2771" class="st6" d="M14792.8,14734.5h9.5c0.6,0,1,0.4,1,1v11.8c0,0.6-0.4,1-1,1h-9.5c-0.6,0-1-0.4-1-1v-11.8
			C14791.8,14735,14792.1,14734.5,14792.8,14734.5z"/>
		<path id="Rectangle_2772" class="st6" d="M14776.1,14734.5h9.5c0.6,0,1,0.4,1,1v11.8c0,0.6-0.4,1-1,1h-9.5c-0.6,0-1-0.4-1-1v-11.8
			C14775.1,14735,14775.6,14734.5,14776.1,14734.5z"/>
	</g>
	<path id="Subtraction_79" class="st7" d="M15983.5,18060.8h-81.8c-0.2-1.1-0.2-2.3-0.2-3.5c0-13.4,10.9-24.2,24.3-24.2
		c1.4,0,2.8,0.1,4.1,0.4c3.6-16.8,20.2-27.5,37-23.9s27.5,20.2,23.9,37C15989.5,18051.8,15987,18056.7,15983.5,18060.8
		L15983.5,18060.8L15983.5,18060.8z"/>
	<path id="Rectangle_2917" class="st1" d="M15809.1,17907.2h34.5c1.7,0,3,1.3,3,3v48.1l0,0h-40.5l0,0v-48.1
		C15806.1,17908.5,15807.5,17907.2,15809.1,17907.2z"/>
	<g id="Group_6336" transform="translate(1039.467 3200.401)">
		<path id="Rectangle_2916" class="st8" d="M14766.6,14754.7h40.5l0,0v105.5l0,0h-37.5c-1.7,0-3-1.3-3-3V14754.7L14766.6,14754.7z"
			/>
		<g id="Group_5819" transform="translate(10.27 0)">
			<g id="Group_5744" transform="translate(19.68 0) rotate(90)">
				<g id="Group_5597" transform="translate(0 4.767)">
					<path id="Rectangle_1425" class="st7" d="M14724.8-14766.6L14724.8-14766.6c2.7,0,4.8,2.2,4.8,4.8v0.4c0,2.7-2.2,4.8-4.8,4.8
						l0,0c-2.7,0-4.8-2.2-4.8-4.8v-0.4C14719.9-14764.5,14722.1-14766.6,14724.8-14766.6z"/>
					<path id="Rectangle_1442" class="st9" d="M14738.9-14766.6L14738.9-14766.6c2.7,0,4.8,2.2,4.8,4.8v0.4c0,2.7-2.2,4.8-4.8,4.8
						l0,0c-2.7,0-4.8-2.2-4.8-4.8v-0.4C14734-14764.5,14736.2-14766.6,14738.9-14766.6z"/>
				</g>
				<g id="Group_5710" transform="translate(47.399 0)">
					<g id="Group_5584" transform="translate(0 0)">
						<path id="Rectangle_1405" class="st4" d="M14723.2-14766.6L14723.2-14766.6c1.8,0,3.3,1.5,3.3,3.3l0,0c0,1.8-1.5,3.3-3.3,3.3
							l0,0c-1.8,0-3.3-1.5-3.3-3.3l0,0C14719.9-14765.1,14721.4-14766.6,14723.2-14766.6z"/>
						<path id="Rectangle_1424" class="st4" d="M14731.1-14753.5L14731.1-14753.5c1.8,0,3.3,1.5,3.3,3.3l0,0c0,1.8-1.5,3.3-3.3,3.3
							l0,0c-1.8,0-3.3-1.5-3.3-3.3l0,0C14727.8-14752,14729.2-14753.5,14731.1-14753.5z"/>
						<path id="Rectangle_1410" class="st4" d="M14788.8-14766.6L14788.8-14766.6c1.8,0,3.3,1.5,3.3,3.3l0,0c0,1.8-1.5,3.3-3.3,3.3
							l0,0c-1.8,0-3.3-1.5-3.3-3.3l0,0C14785.5-14765.1,14787-14766.6,14788.8-14766.6z"/>
						<path id="Rectangle_1419" class="st4" d="M14796.7-14753.5L14796.7-14753.5c1.8,0,3.3,1.5,3.3,3.3l0,0c0,1.8-1.5,3.3-3.3,3.3
							l0,0c-1.8,0-3.3-1.5-3.3-3.3l0,0C14793.4-14752,14794.8-14753.5,14796.7-14753.5z"/>
						<path id="Rectangle_1406" class="st4" d="M14736.3-14766.6L14736.3-14766.6c1.8,0,3.3,1.5,3.3,3.3l0,0c0,1.8-1.5,3.3-3.3,3.3
							l0,0c-1.8,0-3.3-1.5-3.3-3.3l0,0C14733-14765.1,14734.5-14766.6,14736.3-14766.6z"/>
						<path id="Rectangle_1423" class="st4" d="M14744.2-14753.5L14744.2-14753.5c1.8,0,3.3,1.5,3.3,3.3l0,0c0,1.8-1.5,3.3-3.3,3.3
							l0,0c-1.8,0-3.3-1.5-3.3-3.3l0,0C14740.9-14752,14742.4-14753.5,14744.2-14753.5z"/>
						<path id="Rectangle_1407" class="st4" d="M14749.4-14766.6L14749.4-14766.6c1.8,0,3.3,1.5,3.3,3.3l0,0c0,1.8-1.5,3.3-3.3,3.3
							l0,0c-1.8,0-3.3-1.5-3.3-3.3l0,0C14746.1-14765.1,14747.6-14766.6,14749.4-14766.6z"/>
						<path id="Rectangle_1422" class="st4" d="M14757.3-14753.5L14757.3-14753.5c1.8,0,3.3,1.5,3.3,3.3l0,0c0,1.8-1.5,3.3-3.3,3.3
							l0,0c-1.8,0-3.3-1.5-3.3-3.3l0,0C14754-14752,14755.5-14753.5,14757.3-14753.5z"/>
						<path id="Rectangle_1408" class="st4" d="M14762.5-14766.6L14762.5-14766.6c1.8,0,3.3,1.5,3.3,3.3l0,0c0,1.8-1.5,3.3-3.3,3.3
							l0,0c-1.8,0-3.3-1.5-3.3-3.3l0,0C14759.3-14765.1,14760.7-14766.6,14762.5-14766.6z"/>
						<path id="Rectangle_1421" class="st4" d="M14770.4-14753.5L14770.4-14753.5c1.8,0,3.3,1.5,3.3,3.3l0,0c0,1.8-1.5,3.3-3.3,3.3
							l0,0c-1.8,0-3.3-1.5-3.3-3.3l0,0C14767.1-14752,14768.6-14753.5,14770.4-14753.5z"/>
						<path id="Rectangle_1420" class="st4" d="M14783.5-14753.5L14783.5-14753.5c1.8,0,3.3,1.5,3.3,3.3l0,0c0,1.8-1.5,3.3-3.3,3.3
							l0,0c-1.8,0-3.3-1.5-3.3-3.3l0,0C14780.3-14752,14781.7-14753.5,14783.5-14753.5z"/>
						<path id="Rectangle_2773" class="st4" d="M14776.1-14766.3L14776.1-14766.3c1.8,0,3.3,1.5,3.3,3.3l0,0c0,1.8-1.5,3.3-3.3,3.3
							l0,0c-1.8,0-3.3-1.5-3.3-3.3l0,0C14772.8-14764.8,14774.3-14766.3,14776.1-14766.3z"/>
					</g>
				</g>
			</g>
		</g>
	</g>
</g>
</svg>
