<?xml version="1.0" encoding="utf-8"?>
<!-- Generator: Adobe Illustrator 22.0.1, SVG Export Plug-In . SVG Version: 6.00 Build 0)  -->
<svg version="1.1" id="Layer_1" xmlns="http://www.w3.org/2000/svg" xmlns:xlink="http://www.w3.org/1999/xlink" x="0px" y="0px"
	 viewBox="0 0 180 160" style="enable-background:new 0 0 180 160;" xml:space="preserve">
<style type="text/css">
	.st0{fill:#C6E6FF;}
	.st1{fill:#0E71BB;}
	.st2{fill:#005B9F;}
	.st3{fill:#FFBC98;}
	.st4{fill:#80C9FF;}
	.st5{fill:#21E2E2;}
	.st6{fill:#52ACEA;}
	.st7{fill:#288ED9;}
	.st8{fill:#137FCF;}
	.st9{fill:#D6EEFF;}
	.st10{fill:#FFFFFF;}
</style>
<g id="Group_8031" transform="translate(-22023 -17860)">
	<path id="Path_6191" class="st0" d="M22145.7,17964.3c-23.8,8.1-42.6,23.2-42.6,23.2s-18.3,18.4-40.3-8.5s-26.7-46,1.4-58.9
		s39-35.5,63.5-33.7S22208.8,17939.6,22145.7,17964.3z"/>
	<g id="Group_7817" transform="translate(-169 23.5)">
		<path id="Rectangle_3014" class="st1" d="M22232.6,17876.4h108c1.7,0,3,1.3,3,3v76.9c0,1.7-1.3,3-3,3h-108c-1.7,0-3-1.3-3-3v-76.9
			C22229.6,17877.8,22230.9,17876.4,22232.6,17876.4z"/>
		<path id="Rectangle_3247" class="st2" d="M22343.6,17896h-114l0,0v-16.6c0-1.7,1.3-3,3-3h108c1.7,0,3,1.3,3,3V17896L22343.6,17896
			z"/>
		<g id="Group_7050" transform="translate(1309.858 1598.848)">
			<g id="Group_7052" transform="translate(0)">
				<path id="Rectangle_2327" class="st3" d="M20929.9,16304.4h16c1,0,1.8,0.8,1.8,1.8l0,0c0,1-0.8,1.8-1.8,1.8h-16
					c-1,0-1.8-0.8-1.8-1.8l0,0C20928.1,16305.2,20928.9,16304.4,20929.9,16304.4z"/>
				<circle id="Ellipse_1153" class="st3" cx="20929.5" cy="16287.4" r="2"/>
				<circle id="Ellipse_1154" class="st4" cx="20935.4" cy="16287.4" r="2"/>
				<circle id="Ellipse_1155" class="st5" cx="20941.2" cy="16287.4" r="2"/>
				<path id="Rectangle_2328" class="st6" d="M20956,16304.4h65.6c0.6,0,1,0.4,1,1v10.4c0,0.6-0.4,1-1,1h-65.6c-0.6,0-1-0.4-1-1
					v-10.4C20955,16304.8,20955.5,16304.4,20956,16304.4z"/>
				<path id="Rectangle_3248" class="st6" d="M20929.9,16311.5h16c1,0,1.8,0.8,1.8,1.8l0,0c0,1-0.8,1.8-1.8,1.8h-16
					c-1,0-1.8-0.8-1.8-1.8l0,0C20928.1,16312.3,20928.9,16311.5,20929.9,16311.5z"/>
				<path id="Rectangle_3249" class="st6" d="M20929.9,16318.6h16c1,0,1.8,0.8,1.8,1.8l0,0c0,1-0.8,1.8-1.8,1.8h-16
					c-1,0-1.8-0.8-1.8-1.8l0,0C20928.1,16319.4,20928.9,16318.6,20929.9,16318.6z"/>
				<path id="Rectangle_3250" class="st6" d="M20929.9,16325.7h16c1,0,1.8,0.8,1.8,1.8l0,0c0,1-0.8,1.8-1.8,1.8h-16
					c-1,0-1.8-0.8-1.8-1.8l0,0C20928.1,16326.5,20928.9,16325.7,20929.9,16325.7z"/>
				<path id="Rectangle_3251" class="st6" d="M20929.9,16332.9h16c1,0,1.8,0.8,1.8,1.8l0,0c0,1-0.8,1.8-1.8,1.8h-16
					c-1,0-1.8-0.8-1.8-1.8l0,0C20928.1,16333.7,20928.9,16332.9,20929.9,16332.9z"/>
				<path id="Rectangle_3252" class="st6" d="M20929.9,16340h16c1,0,1.8,0.8,1.8,1.8l0,0c0,1-0.8,1.8-1.8,1.8h-16
					c-1,0-1.8-0.8-1.8-1.8l0,0C20928.1,16340.8,20928.9,16340,20929.9,16340z"/>
				<path id="Rectangle_3253" class="st6" d="M20929.9,16347.1h16c1,0,1.8,0.8,1.8,1.8l0,0c0,1-0.8,1.8-1.8,1.8h-16
					c-1,0-1.8-0.8-1.8-1.8l0,0C20928.1,16347.9,20928.9,16347.1,20929.9,16347.1z"/>
			</g>
		</g>
		<g id="Group_7674" transform="translate(1336.886 1633.724)">
			<g id="Group_7359" transform="translate(31.459 1.801)">
				<path id="Rectangle_3070" class="st7" d="M20930.2,16300.6L20930.2,16300.6c1.4,0,2.6,1.2,2.6,2.6v0.2c0,1.4-1.2,2.6-2.6,2.6
					l0,0c-1.4,0-2.6-1.2-2.6-2.6v-0.2C20927.6,16301.8,20928.7,16300.6,20930.2,16300.6z"/>
				<path id="Rectangle_3138" class="st8" d="M20930.3,16285.4L20930.3,16285.4c0.7,0,1.2,0.5,1.2,1.2v10.2c0,0.7-0.5,1.2-1.2,1.2
					l0,0c-0.7,0-1.2-0.5-1.2-1.2v-10.2C20929.1,16286,20929.7,16285.4,20930.3,16285.4z"/>
			</g>
			<g id="Group_7360" transform="translate(23.595 6.52)">
				<path id="Rectangle_1442" class="st9" d="M20930.2,16295.9L20930.2,16295.9c1.4,0,2.6,1.2,2.6,2.6v0.2c0,1.4-1.2,2.6-2.6,2.6
					l0,0c-1.4,0-2.6-1.2-2.6-2.6v-0.2C20927.6,16297.1,20928.7,16295.9,20930.2,16295.9z"/>
				<path id="Rectangle_3139" class="st10" d="M20930.3,16285.4L20930.3,16285.4c0.7,0,1.2,0.5,1.2,1.2v5.5c0,0.7-0.5,1.2-1.2,1.2
					l0,0c-0.7,0-1.2-0.5-1.2-1.2v-5.5C20929.1,16286,20929.7,16285.4,20930.3,16285.4z"/>
			</g>
			<g id="Group_7361" transform="translate(15.73 0)">
				<path id="Rectangle_1425" class="st7" d="M20930.2,16302.4L20930.2,16302.4c1.4,0,2.6,1.2,2.6,2.6v0.2c0,1.4-1.2,2.6-2.6,2.6
					l0,0c-1.4,0-2.6-1.2-2.6-2.6v-0.2C20927.6,16303.6,20928.7,16302.4,20930.2,16302.4z"/>
				<path id="Rectangle_3140" class="st8" d="M20930.3,16285.4L20930.3,16285.4c0.7,0,1.2,0.5,1.2,1.2v12c0,0.7-0.5,1.2-1.2,1.2l0,0
					c-0.7,0-1.2-0.5-1.2-1.2v-12C20929.1,16286,20929.7,16285.4,20930.3,16285.4z"/>
			</g>
			<g id="Group_7362" transform="translate(7.865 2.994)">
				<path id="Rectangle_1442-2" class="st3" d="M20930.2,16299.4L20930.2,16299.4c1.4,0,2.6,1.2,2.6,2.6v0.2c0,1.4-1.2,2.6-2.6,2.6
					l0,0c-1.4,0-2.6-1.2-2.6-2.6v-0.2C20927.6,16300.6,20928.7,16299.4,20930.2,16299.4z"/>
				<path id="Rectangle_3141" class="st3" d="M20930.3,16285.4L20930.3,16285.4c0.7,0,1.2,0.5,1.2,1.2v9c0,0.7-0.5,1.2-1.2,1.2l0,0
					c-0.7,0-1.2-0.5-1.2-1.2v-9C20929.1,16286,20929.7,16285.4,20930.3,16285.4z"/>
			</g>
			<g id="Group_7363" transform="translate(0 8.093)">
				<path id="Rectangle_1425-2" class="st5" d="M20930.2,16294.3L20930.2,16294.3c1.4,0,2.6,1.2,2.6,2.6v0.2c0,1.4-1.2,2.6-2.6,2.6
					l0,0c-1.4,0-2.6-1.2-2.6-2.6v-0.2C20927.6,16295.5,20928.7,16294.3,20930.2,16294.3z"/>
				<path id="Rectangle_3142" class="st5" d="M20930.3,16285.4L20930.3,16285.4c0.7,0,1.2,0.5,1.2,1.2v3.9c0,0.7-0.5,1.2-1.2,1.2
					l0,0c-0.7,0-1.2-0.5-1.2-1.2v-3.9C20929.1,16286,20929.7,16285.4,20930.3,16285.4z"/>
			</g>
		</g>
		<g id="Group_7051" transform="translate(1357.961 1636.625)">
			<g id="mobileme-logo-of-black-cloud" transform="translate(0 0)">
				<path id="MobileMe" class="st5" d="M20997.4,16318.9c0,7.6-6.1,13.8-13.7,13.8h-42.4c-7.6-0.1-13.7-6.3-13.7-13.9
					c0.1-6.7,4.9-12.4,11.5-13.5c-0.8-4.8,2.4-9.3,7.1-10.1c0.5-0.1,1-0.1,1.4-0.1c2.1,0,4.1,0.7,5.6,2.1
					c2.7-6.1,6.2-11.7,15.9-11.7c11.8,0,17.3,9.1,17.3,18.8c0,0.4,0,0.8,0,1.2C20992.8,16306.7,20997.4,16312.4,20997.4,16318.9z"/>
			</g>
		</g>
	</g>
</g>
</svg>
