<?xml version="1.0" encoding="utf-8"?>
<!-- Generator: Adobe Illustrator 22.0.1, SVG Export Plug-In . SVG Version: 6.00 Build 0)  -->
<svg version="1.1" id="Layer_1" xmlns="http://www.w3.org/2000/svg" xmlns:xlink="http://www.w3.org/1999/xlink" x="0px" y="0px"
	 viewBox="0 0 230 200" style="enable-background:new 0 0 230 200;" xml:space="preserve">
<style type="text/css">
	.st0{fill:#C6E6FF;}
	.st1{fill:#164571;}
	.st2{fill:#0E71BB;}
	.st3{fill:#005B9F;}
	.st4{fill:#21E2E2;}
	.st5{fill:#FFBC98;}
	.st6{fill:#52ACEA;}
	.st7{fill:none;stroke:#D6EEFF;stroke-width:4;}
</style>
<g id="Group_6335" transform="translate(-15377 -18282)">
	<g id="Group_5895" transform="translate(-374.17 2339.131) rotate(-3)">
		<path id="Path_3781" class="st0" d="M15042.3,16902.8c-37.5,7.8-60,22.7-60,22.7s-49.3,26.5-59.7-19.3
			c-10.4-45.9-29.1-78.9,16.1-93.3c45.2-14.4,83.4-28.7,119.8-21.5c20.4,4,39.1,33.4,41.8,60.4
			C15102.3,16872.4,15100.8,16890.3,15042.3,16902.8z"/>
	</g>
	<g id="Group_6328" transform="translate(7)">
		<rect id="Rectangle_2914" x="15418.5" y="18343.6" class="st1" width="131.1" height="68.9"/>
		<g id="Group_5863" transform="translate(240.204 3656.999)">
			<g id="Group_5890">
				<g id="Group_5889">
					<g id="Group_5825" transform="translate(0 41.774) rotate(-90)">
						<g id="Group_5793" transform="translate(0 0)">
							<g id="Group_5744" transform="translate(41.774 0) rotate(90)">
								<path id="Path_3764" class="st2" d="M15176.4,14698.9h136c2.7,0,4.8,2.1,4.9,4.8v30.4c0,2.7-2.2,4.8-4.9,4.8h-136
									c-2.7,0-4.8-2.1-4.9-4.8v-30.4C15171.5,14701,15173.7,14698.9,15176.4,14698.9z"/>
								<path id="Rectangle_1631" class="st3" d="M15174.7,14698.9h41.3l0,0v40l0,0h-41.3c-2.1,0-3.8-1.7-3.8-3.8v-32.4
									C15170.8,14700.6,15172.5,14698.9,15174.7,14698.9z"/>
								<g id="Group_5597" transform="translate(11.511 15.776)">
									<path id="Rectangle_1425" class="st4" d="M15174.9,14698.2L15174.9,14698.2c2.6,0,4.7,2.1,4.7,4.7v0.4
										c0,2.6-2.1,4.7-4.7,4.7l0,0c-2.6,0-4.7-2.1-4.7-4.7v-0.4C15170.3,14700.3,15172.3,14698.2,15174.9,14698.2z"/>
									<path id="Rectangle_1442" class="st5" d="M15188.4,14698.2L15188.4,14698.2c2.6,0,4.7,2.1,4.7,4.7v0.4
										c0,2.6-2.1,4.7-4.7,4.7l0,0c-2.6,0-4.7-2.1-4.7-4.7v-0.4C15183.8,14700.3,15185.9,14698.2,15188.4,14698.2z"/>
								</g>
								<g id="Group_5710" transform="translate(58.996 11.001)">
									<g id="Group_5584" transform="translate(0 0)">
										<path id="Rectangle_1405" class="st6" d="M15171.4,14698.4L15171.4,14698.4c1.7,0,3.2,1.4,3.2,3.2l0,0
											c0,1.7-1.4,3.2-3.2,3.2l0,0c-1.7,0-3.2-1.4-3.2-3.2l0,0C15168.3,14699.9,15169.6,14698.4,15171.4,14698.4z"/>
										<path id="Rectangle_1424" class="st6" d="M15178.9,14711.1L15178.9,14711.1c1.7,0,3.2,1.4,3.2,3.2l0,0
											c0,1.7-1.4,3.2-3.2,3.2l0,0c-1.7,0-3.2-1.4-3.2-3.2l0,0C15175.8,14712.5,15177.2,14711.1,15178.9,14711.1z"/>
										<path id="Rectangle_1410" class="st6" d="M15234.4,14698.4L15234.4,14698.4c1.7,0,3.2,1.4,3.2,3.2l0,0
											c0,1.7-1.4,3.2-3.2,3.2l0,0c-1.7,0-3.2-1.4-3.2-3.2l0,0C15231.2,14699.9,15232.5,14698.4,15234.4,14698.4z"/>
										<path id="Rectangle_1419" class="st6" d="M15241.8,14711.1L15241.8,14711.1c1.7,0,3.2,1.4,3.2,3.2l0,0
											c0,1.7-1.4,3.2-3.2,3.2l0,0c-1.7,0-3.2-1.4-3.2-3.2l0,0C15238.8,14712.5,15240.1,14711.1,15241.8,14711.1z"/>
										<path id="Rectangle_1406" class="st6" d="M15184,14698.4L15184,14698.4c1.7,0,3.2,1.4,3.2,3.2l0,0c0,1.7-1.4,3.2-3.2,3.2
											l0,0c-1.7,0-3.2-1.4-3.2-3.2l0,0C15180.8,14699.9,15182.3,14698.4,15184,14698.4z"/>
										<path id="Rectangle_1423" class="st6" d="M15191.6,14711.1L15191.6,14711.1c1.7,0,3.2,1.4,3.2,3.2l0,0
											c0,1.7-1.4,3.2-3.2,3.2l0,0c-1.7,0-3.2-1.4-3.2-3.2l0,0C15188.4,14712.5,15189.8,14711.1,15191.6,14711.1z"/>
										<path id="Rectangle_1407" class="st6" d="M15196.5,14698.4L15196.5,14698.4c1.7,0,3.2,1.4,3.2,3.2l0,0
											c0,1.7-1.4,3.2-3.2,3.2l0,0c-1.7,0-3.2-1.4-3.2-3.2l0,0C15193.4,14699.9,15194.8,14698.4,15196.5,14698.4z"/>
										<path id="Rectangle_1422" class="st6" d="M15204.1,14711.1L15204.1,14711.1c1.7,0,3.2,1.4,3.2,3.2l0,0
											c0,1.7-1.4,3.2-3.2,3.2l0,0c-1.7,0-3.2-1.4-3.2-3.2l0,0C15200.9,14712.5,15202.4,14711.1,15204.1,14711.1z"/>
										<path id="Rectangle_1408" class="st6" d="M15209.2,14698.4L15209.2,14698.4c1.7,0,3.2,1.4,3.2,3.2l0,0
											c0,1.7-1.4,3.2-3.2,3.2l0,0c-1.7,0-3.2-1.4-3.2-3.2l0,0C15206,14699.9,15207.5,14698.4,15209.2,14698.4z"/>
										<path id="Rectangle_1421" class="st6" d="M15216.7,14711.1L15216.7,14711.1c1.7,0,3.2,1.4,3.2,3.2l0,0
											c0,1.7-1.4,3.2-3.2,3.2l0,0c-1.7,0-3.2-1.4-3.2-3.2l0,0C15213.6,14712.5,15214.9,14711.1,15216.7,14711.1z"/>
										<path id="Rectangle_1409" class="st6" d="M15221.7,14698.4L15221.7,14698.4c1.7,0,3.2,1.4,3.2,3.2l0,0
											c0,1.7-1.4,3.2-3.2,3.2l0,0c-1.7,0-3.2-1.4-3.2-3.2l0,0C15218.6,14699.9,15220,14698.4,15221.7,14698.4z"/>
										<path id="Rectangle_1420" class="st6" d="M15229.3,14711.1L15229.3,14711.1c1.7,0,3.2,1.4,3.2,3.2l0,0
											c0,1.7-1.4,3.2-3.2,3.2l0,0c-1.7,0-3.2-1.4-3.2-3.2l0,0C15226.1,14712.5,15227.6,14711.1,15229.3,14711.1z"/>
									</g>
								</g>
							</g>
						</g>
					</g>
					<g id="Group_5857" transform="translate(0.001 89.045) rotate(-90)">
						<g id="Group_5793-2" transform="translate(0 0)">
							<g id="Group_5744-2" transform="translate(41.774 0) rotate(90)">
								<path id="Path_3764-2" class="st2" d="M15176.4,14696.9h136c2.7,0,4.8,2.1,4.9,4.8v30.4c0,2.7-2.2,4.8-4.9,4.8h-136
									c-2.7,0-4.8-2.1-4.9-4.8v-30.4C15171.5,14699,15173.7,14696.9,15176.4,14696.9z"/>
								<path id="Rectangle_1631-2" class="st3" d="M15174.7,14696.9h41.3l0,0v40l0,0h-41.3c-2.1,0-3.8-1.7-3.8-3.8v-32.4
									C15170.8,14698.6,15172.5,14696.9,15174.7,14696.9z"/>
								<g id="Group_5597-2" transform="translate(11.511 15.776)">
									<path id="Rectangle_1425-2" class="st4" d="M15174.9,14696.2L15174.9,14696.2c2.6,0,4.7,2.1,4.7,4.7v0.4
										c0,2.6-2.1,4.7-4.7,4.7l0,0c-2.6,0-4.7-2.1-4.7-4.7v-0.4C15170.3,14698.3,15172.3,14696.2,15174.9,14696.2z"/>
									<path id="Rectangle_1442-2" class="st5" d="M15188.4,14696.2L15188.4,14696.2c2.6,0,4.7,2.1,4.7,4.7v0.4
										c0,2.6-2.1,4.7-4.7,4.7l0,0c-2.6,0-4.7-2.1-4.7-4.7v-0.4C15183.8,14698.3,15185.9,14696.2,15188.4,14696.2z"/>
								</g>
								<g id="Group_5710-2" transform="translate(58.996 11.001)">
									<g id="Group_5584-2" transform="translate(0 0)">
										<path id="Rectangle_1405-2" class="st6" d="M15171.4,14696.4L15171.4,14696.4c1.7,0,3.2,1.4,3.2,3.2l0,0
											c0,1.7-1.4,3.2-3.2,3.2l0,0c-1.7,0-3.2-1.4-3.2-3.2l0,0C15168.3,14697.8,15169.6,14696.4,15171.4,14696.4z"/>
										<path id="Rectangle_1424-2" class="st6" d="M15178.9,14709L15178.9,14709c1.7,0,3.2,1.4,3.2,3.2l0,0
											c0,1.7-1.4,3.2-3.2,3.2l0,0c-1.7,0-3.2-1.4-3.2-3.2l0,0C15175.8,14710.5,15177.2,14709,15178.9,14709z"/>
										<path id="Rectangle_1410-2" class="st6" d="M15234.4,14696.4L15234.4,14696.4c1.7,0,3.2,1.4,3.2,3.2l0,0
											c0,1.7-1.4,3.2-3.2,3.2l0,0c-1.7,0-3.2-1.4-3.2-3.2l0,0C15231.2,14697.8,15232.5,14696.4,15234.4,14696.4z"/>
										<path id="Rectangle_1419-2" class="st6" d="M15241.8,14709L15241.8,14709c1.7,0,3.2,1.4,3.2,3.2l0,0
											c0,1.7-1.4,3.2-3.2,3.2l0,0c-1.7,0-3.2-1.4-3.2-3.2l0,0C15238.8,14710.5,15240.1,14709,15241.8,14709z"/>
										<path id="Rectangle_1406-2" class="st6" d="M15184,14696.4L15184,14696.4c1.7,0,3.2,1.4,3.2,3.2l0,0
											c0,1.7-1.4,3.2-3.2,3.2l0,0c-1.7,0-3.2-1.4-3.2-3.2l0,0C15180.8,14697.8,15182.3,14696.4,15184,14696.4z"/>
										<path id="Rectangle_1423-2" class="st6" d="M15191.6,14709L15191.6,14709c1.7,0,3.2,1.4,3.2,3.2l0,0
											c0,1.7-1.4,3.2-3.2,3.2l0,0c-1.7,0-3.2-1.4-3.2-3.2l0,0C15188.4,14710.5,15189.8,14709,15191.6,14709z"/>
										<path id="Rectangle_1407-2" class="st6" d="M15196.5,14696.4L15196.5,14696.4c1.7,0,3.2,1.4,3.2,3.2l0,0
											c0,1.7-1.4,3.2-3.2,3.2l0,0c-1.7,0-3.2-1.4-3.2-3.2l0,0C15193.4,14697.8,15194.8,14696.4,15196.5,14696.4z"/>
										<path id="Rectangle_1422-2" class="st6" d="M15204.1,14709L15204.1,14709c1.7,0,3.2,1.4,3.2,3.2l0,0
											c0,1.7-1.4,3.2-3.2,3.2l0,0c-1.7,0-3.2-1.4-3.2-3.2l0,0C15200.9,14710.5,15202.4,14709,15204.1,14709z"/>
										<path id="Rectangle_1408-2" class="st6" d="M15209.2,14696.4L15209.2,14696.4c1.7,0,3.2,1.4,3.2,3.2l0,0
											c0,1.7-1.4,3.2-3.2,3.2l0,0c-1.7,0-3.2-1.4-3.2-3.2l0,0C15206,14697.8,15207.5,14696.4,15209.2,14696.4z"/>
										<path id="Rectangle_1421-2" class="st6" d="M15216.7,14709L15216.7,14709c1.7,0,3.2,1.4,3.2,3.2l0,0
											c0,1.7-1.4,3.2-3.2,3.2l0,0c-1.7,0-3.2-1.4-3.2-3.2l0,0C15213.6,14710.5,15214.9,14709,15216.7,14709z"/>
										<path id="Rectangle_1409-2" class="st6" d="M15221.7,14696.4L15221.7,14696.4c1.7,0,3.2,1.4,3.2,3.2l0,0
											c0,1.7-1.4,3.2-3.2,3.2l0,0c-1.7,0-3.2-1.4-3.2-3.2l0,0C15218.6,14697.8,15220,14696.4,15221.7,14696.4z"/>
										<path id="Rectangle_1420-2" class="st6" d="M15229.3,14709L15229.3,14709c1.7,0,3.2,1.4,3.2,3.2l0,0
											c0,1.7-1.4,3.2-3.2,3.2l0,0c-1.7,0-3.2-1.4-3.2-3.2l0,0C15226.1,14710.5,15227.6,14709,15229.3,14709z"/>
									</g>
								</g>
							</g>
						</g>
					</g>
					<g id="Group_5892" transform="translate(-0.001 -5.225) rotate(-90)">
						<g id="Group_5793-3" transform="translate(0 0)">
							<g id="Group_5744-3" transform="translate(41.774 0) rotate(90)">
								<path id="Path_3764-3" class="st2" d="M15176.4,14700.9h136c2.7,0,4.8,2.1,4.9,4.8v30.4c0,2.7-2.2,4.8-4.9,4.8h-136
									c-2.7,0-4.8-2.1-4.9-4.8v-30.4C15171.5,14703,15173.7,14700.9,15176.4,14700.9z"/>
								<path id="Rectangle_1631-3" class="st3" d="M15174.7,14700.9h41.3l0,0v40l0,0h-41.3c-2.1,0-3.8-1.7-3.8-3.8v-32.4
									C15170.8,14702.6,15172.5,14700.9,15174.7,14700.9z"/>
								<g id="Group_5597-3" transform="translate(11.511 15.776)">
									<path id="Rectangle_1425-3" class="st4" d="M15174.9,14700.2L15174.9,14700.2c2.6,0,4.7,2.1,4.7,4.7v0.4
										c0,2.6-2.1,4.7-4.7,4.7l0,0c-2.6,0-4.7-2.1-4.7-4.7v-0.4C15170.3,14702.3,15172.3,14700.2,15174.9,14700.2z"/>
									<path id="Rectangle_1442-3" class="st5" d="M15188.4,14700.2L15188.4,14700.2c2.6,0,4.7,2.1,4.7,4.7v0.4
										c0,2.6-2.1,4.7-4.7,4.7l0,0c-2.6,0-4.7-2.1-4.7-4.7v-0.4C15183.8,14702.3,15185.9,14700.2,15188.4,14700.2z"/>
								</g>
								<g id="Group_5710-3" transform="translate(58.996 11.001)">
									<g id="Group_5584-3" transform="translate(0 0)">
										<path id="Rectangle_1405-3" class="st6" d="M15171.4,14700.4L15171.4,14700.4c1.7,0,3.2,1.4,3.2,3.2l0,0
											c0,1.7-1.4,3.2-3.2,3.2l0,0c-1.7,0-3.2-1.4-3.2-3.2l0,0C15168.3,14701.9,15169.6,14700.4,15171.4,14700.4z"/>
										<path id="Rectangle_1424-3" class="st6" d="M15178.9,14713.1L15178.9,14713.1c1.7,0,3.2,1.4,3.2,3.2l0,0
											c0,1.7-1.4,3.2-3.2,3.2l0,0c-1.7,0-3.2-1.4-3.2-3.2l0,0C15175.8,14714.5,15177.2,14713.1,15178.9,14713.1z"/>
										<path id="Rectangle_1410-3" class="st6" d="M15234.4,14700.4L15234.4,14700.4c1.7,0,3.2,1.4,3.2,3.2l0,0
											c0,1.7-1.4,3.2-3.2,3.2l0,0c-1.7,0-3.2-1.4-3.2-3.2l0,0C15231.2,14701.9,15232.5,14700.4,15234.4,14700.4z"/>
										<path id="Rectangle_1419-3" class="st6" d="M15241.8,14713.1L15241.8,14713.1c1.7,0,3.2,1.4,3.2,3.2l0,0
											c0,1.7-1.4,3.2-3.2,3.2l0,0c-1.7,0-3.2-1.4-3.2-3.2l0,0C15238.8,14714.5,15240.1,14713.1,15241.8,14713.1z"/>
										<path id="Rectangle_1406-3" class="st6" d="M15184,14700.4L15184,14700.4c1.7,0,3.2,1.4,3.2,3.2l0,0
											c0,1.7-1.4,3.2-3.2,3.2l0,0c-1.7,0-3.2-1.4-3.2-3.2l0,0C15180.8,14701.9,15182.3,14700.4,15184,14700.4z"/>
										<path id="Rectangle_1423-3" class="st6" d="M15191.6,14713.1L15191.6,14713.1c1.7,0,3.2,1.4,3.2,3.2l0,0
											c0,1.7-1.4,3.2-3.2,3.2l0,0c-1.7,0-3.2-1.4-3.2-3.2l0,0C15188.4,14714.5,15189.8,14713.1,15191.6,14713.1z"/>
										<path id="Rectangle_1407-3" class="st6" d="M15196.5,14700.4L15196.5,14700.4c1.7,0,3.2,1.4,3.2,3.2l0,0
											c0,1.7-1.4,3.2-3.2,3.2l0,0c-1.7,0-3.2-1.4-3.2-3.2l0,0C15193.4,14701.9,15194.8,14700.4,15196.5,14700.4z"/>
										<path id="Rectangle_1422-3" class="st6" d="M15204.1,14713.1L15204.1,14713.1c1.7,0,3.2,1.4,3.2,3.2l0,0
											c0,1.7-1.4,3.2-3.2,3.2l0,0c-1.7,0-3.2-1.4-3.2-3.2l0,0C15200.9,14714.5,15202.4,14713.1,15204.1,14713.1z"/>
										<path id="Rectangle_1408-3" class="st6" d="M15209.2,14700.4L15209.2,14700.4c1.7,0,3.2,1.4,3.2,3.2l0,0
											c0,1.7-1.4,3.2-3.2,3.2l0,0c-1.7,0-3.2-1.4-3.2-3.2l0,0C15206,14701.9,15207.5,14700.4,15209.2,14700.4z"/>
										<path id="Rectangle_1421-3" class="st6" d="M15216.7,14713.1L15216.7,14713.1c1.7,0,3.2,1.4,3.2,3.2l0,0
											c0,1.7-1.4,3.2-3.2,3.2l0,0c-1.7,0-3.2-1.4-3.2-3.2l0,0C15213.6,14714.5,15214.9,14713.1,15216.7,14713.1z"/>
										<path id="Rectangle_1409-3" class="st6" d="M15221.7,14700.4L15221.7,14700.4c1.7,0,3.2,1.4,3.2,3.2l0,0
											c0,1.7-1.4,3.2-3.2,3.2l0,0c-1.7,0-3.2-1.4-3.2-3.2l0,0C15218.6,14701.9,15220,14700.4,15221.7,14700.4z"/>
										<path id="Rectangle_1420-3" class="st6" d="M15229.3,14713.1L15229.3,14713.1c1.7,0,3.2,1.4,3.2,3.2l0,0
											c0,1.7-1.4,3.2-3.2,3.2l0,0c-1.7,0-3.2-1.4-3.2-3.2l0,0C15226.1,14714.5,15227.6,14713.1,15229.3,14713.1z"/>
									</g>
								</g>
							</g>
						</g>
					</g>
				</g>
			</g>
		</g>
	</g>
	<path id="Subtraction_87" class="st4" d="M15569.2,18441.3h-90.4c-0.2-1.2-0.3-2.6-0.3-3.8c0-14.7,12-26.8,26.8-26.7
		c1.5,0,3.1,0.1,4.5,0.4c4-18.6,22.3-30.3,40.9-26.4c18.6,4,30.3,22.3,26.4,40.9C15575.9,18431.4,15573.1,18436.9,15569.2,18441.3
		L15569.2,18441.3L15569.2,18441.3z"/>
	<g id="Group_5891" transform="translate(367.858 3698.545)">
		<g id="Group_5888" transform="translate(0 0)">
			<g id="Group_5856" transform="translate(0 0)">
				<g id="Group_5805" transform="translate(0 0)">
					<g id="Group_5886" transform="translate(0)">
						<path id="Path_5489" class="st7" d="M15165.7,14718.4l11.2,11.2l11.6-11.2"/>
						<path id="Path_5490" class="st7" d="M15176.8,14729.5v-28.5"/>
					</g>
				</g>
			</g>
		</g>
	</g>
</g>
</svg>
