<?xml version="1.0" encoding="utf-8"?>
<!-- Generator: Adobe Illustrator 22.0.1, SVG Export Plug-In . SVG Version: 6.00 Build 0)  -->
<svg version="1.1" id="Layer_1" xmlns="http://www.w3.org/2000/svg" xmlns:xlink="http://www.w3.org/1999/xlink" x="0px" y="0px"
	 viewBox="0 0 230 200" style="enable-background:new 0 0 230 200;" xml:space="preserve">
<style type="text/css">
	.st0{fill:#C6E6FF;}
	.st1{fill:#30A3D1;}
	.st2{fill:#005B9F;}
	.st3{fill:#21E2E2;}
	.st4{fill:#0E71BB;}
	.st5{fill:#52ACEA;}
	.st6{fill:none;}
	.st7{fill:none;stroke:#FFBC98;stroke-width:2;}
	.st8{fill:#288ED9;}
	.st9{fill:#137FCF;}
	.st10{fill:#FFBC98;}
</style>
<g id="Group_7960" transform="translate(-15589.117 -8221.313)">
	<path id="Path_6215" class="st0" d="M15699.6,8251.4c-31.8,20.8-67.9,29.8-67.9,29.8s-47.7,10.7-32.1,65.1
		c15.6,54.4,35.4,75,91.6,55.4c56.3-19.6,65.2-3.7,102.9-25.7C15831.8,8353.9,15812.9,8178.1,15699.6,8251.4z"/>
	<g id="Group_7950" transform="translate(7505.5 -6044.905)">
		<g id="Group_7920" transform="translate(23.713 56.473)">
			<g id="Group_5848" transform="translate(0 72.362) rotate(-90)">
				<path id="Path_5507" class="st1" d="M-14280.6,8227.4"/>
				<path id="Rectangle_2754" class="st2" d="M-14284.3,8121.6h0.6c1.7,0,3,1.3,3,3v99.8c0,1.7-1.3,3-3,3h-0.6c-1.7,0-3-1.3-3-3
					v-99.8C-14287.3,8123-14285.9,8121.6-14284.3,8121.6z"/>
			</g>
			<g id="Group_7393" transform="translate(37.03 0)">
				<g id="Group_5847" transform="translate(11.903)">
					<path id="Rectangle_2754-2" class="st2" d="M8124.6,14287.3h0.6c1.7,0,3,1.3,3,3v55.3c0,1.7-1.3,3-3,3h-0.6c-1.7,0-3-1.3-3-3
						v-55.3C8121.6,14288.6,8123,14287.3,8124.6,14287.3z"/>
				</g>
				<circle id="Ellipse_1241" class="st3" cx="8137.5" cy="14354.3" r="15.9"/>
			</g>
		</g>
		<g id="Group_7917" transform="translate(0)">
			<g id="Group_7901" transform="translate(0)">
				<g id="Group_5581">
					<path id="Path_3764" class="st4" d="M8126.8,14287.3h143.7c2.8,0,5.1,2.3,5.1,5.1l0,0v32.9c0,2.8-2.3,5.1-5.1,5.1h-143.7
						c-2.8,0-5.1-2.3-5.1-5.1v-32.9C8121.6,14289.6,8123.9,14287.3,8126.8,14287.3z"/>
					<path id="Rectangle_1631" class="st2" d="M8125.6,14287.3h52.5l0,0v43.1l0,0h-52.5c-2.2,0-4-1.8-4-4v-35.1
						C8121.6,14289,8123.4,14287.3,8125.6,14287.3z"/>
				</g>
				<g id="Group_5710" transform="translate(83.829 12.651)">
					<g id="Group_5584" transform="translate(0 0)">
						<path id="Rectangle_1405" class="st5" d="M8124.7,14287.3L8124.7,14287.3c1.7,0,3,1.4,3,3l0,0c0,1.7-1.4,3-3,3l0,0
							c-1.7,0-3-1.4-3-3l0,0C8121.6,14288.6,8123,14287.3,8124.7,14287.3z"/>
						<path id="Rectangle_1424" class="st5" d="M8131.9,14299.4L8131.9,14299.4c1.7,0,3,1.4,3,3l0,0c0,1.7-1.4,3-3,3l0,0
							c-1.7,0-3-1.4-3-3l0,0C8128.9,14300.8,8130.3,14299.4,8131.9,14299.4z"/>
						<path id="Rectangle_1406" class="st5" d="M8136.8,14287.3L8136.8,14287.3c1.7,0,3,1.4,3,3l0,0c0,1.7-1.4,3-3,3l0,0
							c-1.7,0-3-1.4-3-3l0,0C8133.8,14288.6,8135.1,14287.3,8136.8,14287.3z"/>
						<path id="Rectangle_1423" class="st5" d="M8144.1,14299.4L8144.1,14299.4c1.7,0,3,1.4,3,3l0,0c0,1.7-1.4,3-3,3l0,0
							c-1.7,0-3-1.4-3-3l0,0C8141.1,14300.8,8142.4,14299.4,8144.1,14299.4z"/>
						<path id="Rectangle_1407" class="st5" d="M8148.9,14287.3L8148.9,14287.3c1.7,0,3,1.4,3,3l0,0c0,1.7-1.4,3-3,3l0,0
							c-1.7,0-3-1.4-3-3l0,0C8145.9,14288.6,8147.3,14287.3,8148.9,14287.3z"/>
						<path id="Rectangle_1422" class="st5" d="M8156.2,14299.4L8156.2,14299.4c1.7,0,3,1.4,3,3l0,0c0,1.7-1.4,3-3,3l0,0
							c-1.7,0-3-1.4-3-3l0,0C8153.2,14300.8,8154.6,14299.4,8156.2,14299.4z"/>
					</g>
				</g>
				<g id="Ellipse_1404" transform="translate(132.825 17.646)">
					<ellipse class="st6" cx="8125.8" cy="14291.4" rx="4.1" ry="4.1"/>
					<ellipse class="st7" cx="8125.8" cy="14291.4" rx="3.1" ry="3.1"/>
				</g>
				<g id="Group_7371" transform="translate(68.651 10.884)">
					<path id="Rectangle_3143" class="st5" d="M8123.5,14287.3L8123.5,14287.3c1,0,1.8,0.8,1.8,1.8v19.2c0,1-0.8,1.8-1.8,1.8l0,0
						c-1,0-1.8-0.8-1.8-1.8v-19.2C8121.6,14288.1,8122.5,14287.3,8123.5,14287.3z"/>
					<path id="Rectangle_3144" class="st3" d="M8121.6,14301.3h3.7l0,0v7.1c0,1-0.8,1.8-1.8,1.8l0,0c-1,0-1.8-0.8-1.8-1.8v-7.1
						H8121.6z"/>
				</g>
				<g id="Group_7370" transform="translate(15.121 10.884)">
					<g id="Group_7361" transform="translate(18.43 0)">
						<path id="Rectangle_1425" class="st8" d="M8124.7,14303.9L8124.7,14303.9c1.7,0,3,1.4,3,3v0.2c0,1.7-1.4,3-3,3l0,0
							c-1.7,0-3-1.4-3-3v-0.2C8121.6,14305.2,8123,14303.9,8124.7,14303.9z"/>
						<path id="Rectangle_3140" class="st9" d="M8124.9,14287.3L8124.9,14287.3c0.8,0,1.4,0.6,1.4,1.4v10.8c0,0.8-0.6,1.4-1.4,1.4
							l0,0c-0.8,0-1.4-0.6-1.4-1.4v-10.8C8123.5,14287.9,8124.1,14287.3,8124.9,14287.3z"/>
					</g>
					<g id="Group_7362" transform="translate(9.215 1.843)">
						<path id="Rectangle_1442" class="st10" d="M8124.7,14302L8124.7,14302c1.7,0,3,1.4,3,3v0.2c0,1.7-1.4,3-3,3l0,0
							c-1.7,0-3-1.4-3-3v-0.2C8121.6,14303.4,8123,14302,8124.7,14302z"/>
						<path id="Rectangle_3141" class="st10" d="M8124.9,14287.3L8124.9,14287.3c0.8,0,1.4,0.6,1.4,1.4v8.9c0,0.8-0.6,1.4-1.4,1.4
							l0,0c-0.8,0-1.4-0.6-1.4-1.4v-8.9C8123.5,14287.9,8124.1,14287.3,8124.9,14287.3z"/>
					</g>
					<g id="Group_7363" transform="translate(0 6.152)">
						<path id="Rectangle_1425-2" class="st3" d="M8124.7,14297.7L8124.7,14297.7c1.7,0,3,1.4,3,3v0.2c0,1.7-1.4,3-3,3l0,0
							c-1.7,0-3-1.4-3-3v-0.2C8121.6,14299.1,8123,14297.7,8124.7,14297.7z"/>
						<path id="Rectangle_3142" class="st3" d="M8124.9,14287.3L8124.9,14287.3c0.8,0,1.4,0.6,1.4,1.4v4.6c0,0.8-0.6,1.4-1.4,1.4
							l0,0c-0.8,0-1.4-0.6-1.4-1.4v-4.6C8123.5,14287.9,8124.1,14287.3,8124.9,14287.3z"/>
					</g>
				</g>
			</g>
			<g id="Group_7902" transform="translate(0 47.073)">
				<g id="Group_5581-2">
					<path id="Path_3764-2" class="st4" d="M8126.8,14287.3h143.7c2.8,0,5.1,2.3,5.1,5.1l0,0v32.9c0,2.8-2.3,5.1-5.1,5.1h-143.7
						c-2.8,0-5.1-2.3-5.1-5.1v-32.9C8121.6,14289.6,8123.9,14287.3,8126.8,14287.3z"/>
					<path id="Rectangle_1631-2" class="st2" d="M8125.6,14287.3h52.5l0,0v43.1l0,0h-52.5c-2.2,0-4-1.8-4-4v-35.1
						C8121.6,14289,8123.4,14287.3,8125.6,14287.3z"/>
				</g>
				<g id="Group_5710-2" transform="translate(83.829 12.651)">
					<g id="Group_5584-2" transform="translate(0 0)">
						<path id="Rectangle_1405-2" class="st5" d="M8124.7,14287.3L8124.7,14287.3c1.7,0,3,1.4,3,3l0,0c0,1.7-1.4,3-3,3l0,0
							c-1.7,0-3-1.4-3-3l0,0C8121.6,14288.6,8123,14287.3,8124.7,14287.3z"/>
						<path id="Rectangle_1424-2" class="st5" d="M8131.9,14299.4L8131.9,14299.4c1.7,0,3,1.4,3,3l0,0c0,1.7-1.4,3-3,3l0,0
							c-1.7,0-3-1.4-3-3l0,0C8128.9,14300.8,8130.3,14299.4,8131.9,14299.4z"/>
						<path id="Rectangle_1406-2" class="st5" d="M8136.8,14287.3L8136.8,14287.3c1.7,0,3,1.4,3,3l0,0c0,1.7-1.4,3-3,3l0,0
							c-1.7,0-3-1.4-3-3l0,0C8133.8,14288.6,8135.1,14287.3,8136.8,14287.3z"/>
						<path id="Rectangle_1423-2" class="st5" d="M8144.1,14299.4L8144.1,14299.4c1.7,0,3,1.4,3,3l0,0c0,1.7-1.4,3-3,3l0,0
							c-1.7,0-3-1.4-3-3l0,0C8141.1,14300.8,8142.4,14299.4,8144.1,14299.4z"/>
						<path id="Rectangle_1407-2" class="st5" d="M8148.9,14287.3L8148.9,14287.3c1.7,0,3,1.4,3,3l0,0c0,1.7-1.4,3-3,3l0,0
							c-1.7,0-3-1.4-3-3l0,0C8145.9,14288.6,8147.3,14287.3,8148.9,14287.3z"/>
						<path id="Rectangle_1422-2" class="st5" d="M8156.2,14299.4L8156.2,14299.4c1.7,0,3,1.4,3,3l0,0c0,1.7-1.4,3-3,3l0,0
							c-1.7,0-3-1.4-3-3l0,0C8153.2,14300.8,8154.6,14299.4,8156.2,14299.4z"/>
					</g>
				</g>
				<g id="Ellipse_1404-2" transform="translate(132.825 17.646)">
					<ellipse class="st6" cx="8125.8" cy="14291.4" rx="4.1" ry="4.1"/>
					<ellipse class="st7" cx="8125.8" cy="14291.4" rx="3.1" ry="3.1"/>
				</g>
				<g id="Group_7371-2" transform="translate(68.651 10.884)">
					<path id="Rectangle_3143-2" class="st5" d="M8123.5,14287.3L8123.5,14287.3c1,0,1.8,0.8,1.8,1.8v19.2c0,1-0.8,1.8-1.8,1.8l0,0
						c-1,0-1.8-0.8-1.8-1.8v-19.2C8121.6,14288.1,8122.5,14287.3,8123.5,14287.3z"/>
					<path id="Rectangle_3144-2" class="st3" d="M8121.6,14301.3h3.7l0,0v7.1c0,1-0.8,1.8-1.8,1.8l0,0c-1,0-1.8-0.8-1.8-1.8v-7.1
						H8121.6z"/>
				</g>
				<g id="Group_7370-2" transform="translate(15.121 10.884)">
					<g id="Group_7361-2" transform="translate(18.43 0)">
						<path id="Rectangle_1425-3" class="st8" d="M8124.7,14303.9L8124.7,14303.9c1.7,0,3,1.4,3,3v0.2c0,1.7-1.4,3-3,3l0,0
							c-1.7,0-3-1.4-3-3v-0.2C8121.6,14305.2,8123,14303.9,8124.7,14303.9z"/>
						<path id="Rectangle_3140-2" class="st9" d="M8124.9,14287.3L8124.9,14287.3c0.8,0,1.4,0.6,1.4,1.4v10.8c0,0.8-0.6,1.4-1.4,1.4
							l0,0c-0.8,0-1.4-0.6-1.4-1.4v-10.8C8123.5,14287.9,8124.1,14287.3,8124.9,14287.3z"/>
					</g>
					<g id="Group_7362-2" transform="translate(9.215 1.843)">
						<path id="Rectangle_1442-2" class="st10" d="M8124.7,14302L8124.7,14302c1.7,0,3,1.4,3,3v0.2c0,1.7-1.4,3-3,3l0,0
							c-1.7,0-3-1.4-3-3v-0.2C8121.6,14303.4,8123,14302,8124.7,14302z"/>
						<path id="Rectangle_3141-2" class="st10" d="M8124.9,14287.3L8124.9,14287.3c0.8,0,1.4,0.6,1.4,1.4v8.9c0,0.8-0.6,1.4-1.4,1.4
							l0,0c-0.8,0-1.4-0.6-1.4-1.4v-8.9C8123.5,14287.9,8124.1,14287.3,8124.9,14287.3z"/>
					</g>
					<g id="Group_7363-2" transform="translate(0 6.152)">
						<path id="Rectangle_1425-4" class="st3" d="M8124.7,14297.7L8124.7,14297.7c1.7,0,3,1.4,3,3v0.2c0,1.7-1.4,3-3,3l0,0
							c-1.7,0-3-1.4-3-3v-0.2C8121.6,14299.1,8123,14297.7,8124.7,14297.7z"/>
						<path id="Rectangle_3142-2" class="st3" d="M8124.9,14287.3L8124.9,14287.3c0.8,0,1.4,0.6,1.4,1.4v4.6c0,0.8-0.6,1.4-1.4,1.4
							l0,0c-0.8,0-1.4-0.6-1.4-1.4v-4.6C8123.5,14287.9,8124.1,14287.3,8124.9,14287.3z"/>
					</g>
				</g>
			</g>
		</g>
	</g>
</g>
</svg>
