<svg xmlns="http://www.w3.org/2000/svg" xmlns:xlink="http://www.w3.org/1999/xlink" viewBox="3121.257 -17652.439 829.287 612.51">
  <defs>
    <style>
      .cls-1 {
        fill: url(#linear-gradient);
      }

      .cls-2, .cls-3 {
        fill: #c6e6ff;
      }

      .cls-2 {
        opacity: 0.576;
      }

      .cls-3 {
        opacity: 0.435;
      }

      .cls-4 {
        fill: url(#linear-gradient-2);
      }

      .cls-5 {
        fill: #137fcf;
      }

      .cls-6 {
        fill: #288ed9;
      }

      .cls-15, .cls-19, .cls-24, .cls-25, .cls-27, .cls-7, .cls-8 {
        fill: none;
      }

      .cls-7, .cls-8 {
        stroke: #288ed9;
      }

      .cls-8 {
        stroke-linecap: round;
        stroke-miterlimit: 10;
        stroke-width: 4px;
      }

      .cls-9 {
        fill: #1f364c;
      }

      .cls-10 {
        fill: #0e71bb;
      }

      .cls-11 {
        fill: #005b9f;
      }

      .cls-12 {
        fill: #52acea;
      }

      .cls-13 {
        fill: #21e2e2;
      }

      .cls-14 {
        fill: #ffbc98;
      }

      .cls-15 {
        stroke: #ffbc98;
      }

      .cls-15, .cls-19 {
        stroke-width: 2px;
      }

      .cls-16 {
        fill: #80c9ff;
      }

      .cls-17 {
        fill: #d6eeff;
      }

      .cls-18 {
        fill: #fff;
      }

      .cls-19 {
        stroke: #21e2e2;
      }

      .cls-20 {
        opacity: 0.642;
        fill: url(#linear-gradient-3);
      }

      .cls-21 {
        fill: url(#linear-gradient-4);
      }

      .cls-22 {
        fill: url(#linear-gradient-5);
      }

      .cls-23 {
        fill: url(#linear-gradient-6);
      }

      .cls-24 {
        stroke: #f7f7f7;
      }

      .cls-24, .cls-25 {
        opacity: 0.23;
      }

      .cls-25 {
        stroke: #fff;
      }

      .cls-26 {
        stroke: none;
      }

      .cls-28 {
        filter: url(#Path_3434);
      }

      .cls-29 {
        filter: url(#Path_3436);
      }

      .cls-30 {
        filter: url(#Path_3435);
      }

      .cls-31 {
        filter: url(#Path_5631);
      }
    </style>
    <linearGradient id="linear-gradient" x1="0.5" y1="1.192" x2="0.487" y2="-0.081" gradientUnits="objectBoundingBox">
      <stop offset="0" stop-color="#c6e6ff"/>
      <stop offset="1" stop-color="#fff"/>
    </linearGradient>
    <linearGradient id="linear-gradient-2" x1="0.5" y1="-1.004" x2="0.5" y2="1" gradientUnits="objectBoundingBox">
      <stop offset="0" stop-color="#288ed9"/>
      <stop offset="1" stop-color="#137fcf" stop-opacity="0.051"/>
    </linearGradient>
    <filter id="Path_5631" x="3277" y="-17262" width="34" height="34" filterUnits="userSpaceOnUse">
      <feOffset dy="3" input="SourceAlpha"/>
      <feGaussianBlur stdDeviation="3" result="blur"/>
      <feFlood flood-opacity="0.161"/>
      <feComposite operator="in" in2="blur"/>
      <feComposite in="SourceGraphic"/>
    </filter>
    <linearGradient id="linear-gradient-3" x1="0.5" y1="1" x2="0.5" gradientUnits="objectBoundingBox">
      <stop offset="0" stop-color="#288ed9" stop-opacity="0"/>
      <stop offset="1" stop-color="#005b9f"/>
    </linearGradient>
    <linearGradient id="linear-gradient-4" x1="0.35" y1="-0.028" x2="0.88" y2="1.036" gradientUnits="objectBoundingBox">
      <stop offset="0" stop-color="#50abef"/>
      <stop offset="1" stop-color="#1175bf"/>
    </linearGradient>
    <linearGradient id="linear-gradient-5" x1="0.875" y1="-0.028" x2="-0.067" y2="0.864" gradientUnits="objectBoundingBox">
      <stop offset="0" stop-color="#ffbc98"/>
      <stop offset="1" stop-color="#ff945a"/>
    </linearGradient>
    <filter id="Path_3435" x="3746.134" y="-17320.285" width="98.031" height="177.705" filterUnits="userSpaceOnUse">
      <feOffset dy="3" input="SourceAlpha"/>
      <feGaussianBlur stdDeviation="2.5" result="blur-2"/>
      <feFlood flood-opacity="0.051"/>
      <feComposite operator="in" in2="blur-2"/>
      <feComposite in="SourceGraphic"/>
    </filter>
    <filter id="Path_3436" x="3690.678" y="-17287.111" width="83.354" height="148.945" filterUnits="userSpaceOnUse">
      <feOffset dx="2" input="SourceAlpha"/>
      <feGaussianBlur stdDeviation="2.5" result="blur-3"/>
      <feFlood flood-opacity="0.051"/>
      <feComposite operator="in" in2="blur-3"/>
      <feComposite in="SourceGraphic"/>
    </filter>
    <linearGradient id="linear-gradient-6" x1="0.056" y1="0.531" x2="0.957" y2="0.539" gradientUnits="objectBoundingBox">
      <stop offset="0" stop-color="#21e2e2"/>
      <stop offset="1" stop-color="#19dbdb"/>
    </linearGradient>
    <filter id="Path_3434" x="3711.992" y="-17214.543" width="97.913" height="99.543" filterUnits="userSpaceOnUse">
      <feOffset dx="5" input="SourceAlpha"/>
      <feGaussianBlur stdDeviation="5" result="blur-4"/>
      <feFlood flood-opacity="0.051"/>
      <feComposite operator="in" in2="blur-4"/>
      <feComposite in="SourceGraphic"/>
    </filter>
  </defs>
  <g id="Group_8044" data-name="Group 8044" transform="translate(3041 -17863)">
    <path id="Path_5630" data-name="Path 5630" class="cls-1" d="M338.563,59.823C459.7,137.122,598.4,171.906,598.4,171.906S751.141,195.1,694.96,369.017s-63.509,236.2-151.566,240.649c-83.51,2.38-130.416-32.083-213.041-26.146-72.578,5.588-122.557,38.288-243.83-9.484C-107.812,488.157-93.327-212.654,338.563,59.823Z" transform="translate(171.574 213.287)"/>
    <path id="Path_5632" data-name="Path 5632" class="cls-2" d="M43.772,214.013c-18.744-22.543,11.979-77.161-29.688-110.461S36.833,47.052,33.131-1.512,131.346,61.157,95,143.393c-9.451,21.381,13.08,80.243,7.4,90.751C86.865,262.884,62.516,236.556,43.772,214.013Z" transform="translate(652.039 523.529) rotate(-83)"/>
    <path id="Path_5633" data-name="Path 5633" class="cls-3" d="M47.836.011C27.352,24.646,60.928,84.337,15.392,120.729S40.253,182.476,36.207,235.55,161.521,177.731,121.8,87.859C111.469,64.492,112.319,11.495,106.112.011,89.138-31.4,68.321-24.625,47.836.011Z" transform="translate(329.607 347.613) rotate(90)"/>
    <ellipse id="Ellipse_1271" data-name="Ellipse 1271" class="cls-4" cx="223.5" cy="32" rx="223.5" ry="32" transform="translate(257 651)"/>
    <g id="Group_7369" data-name="Group 7369" transform="translate(-23 -18)">
      <rect id="Rectangle_2841" data-name="Rectangle 2841" class="cls-5" width="33.053" height="33.053" rx="5" transform="translate(259 616)"/>
      <g class="cls-31" transform="matrix(1, 0, 0, 1, -3018, 17881)">
        <path id="Path_5631-2" data-name="Path 5631" class="cls-6" d="M8,0A8,8,0,1,1,0,8,8,8,0,0,1,8,0Z" transform="translate(3286 -17256)"/>
      </g>
      <g id="Ellipse_1270" data-name="Ellipse 1270" class="cls-7" transform="translate(265 622)">
        <circle class="cls-26" cx="11" cy="11" r="11"/>
        <circle class="cls-27" cx="11" cy="11" r="10.5"/>
      </g>
      <path id="Path_5634" data-name="Path 5634" class="cls-8" d="M65.408,122.6V61.553c0-8.283-4.548-12.117-12.669-11.964-2.111,0-35.847.153-42.344.153C2.436,49.742,0,44.834,0,36.551c0,0,.139-5.43.139-11.558S4.295,15,8.866,15H24.042" transform="translate(260.697 664.406) rotate(-90)"/>
    </g>
    <g id="Group_7368" data-name="Group 7368" transform="translate(-102 -6)">
      <g id="Group_7365" data-name="Group 7365" transform="translate(21 -4)">
        <g id="Group_7180" data-name="Group 7180" transform="translate(427.977 368.801)">
          <g id="Group_5583" data-name="Group 5583" transform="translate(0 0)">
            <g id="Group_5582" data-name="Group 5582" transform="translate(0)">
              <g id="Group_5581" data-name="Group 5581">
                <rect id="Rectangle_1565" data-name="Rectangle 1565" class="cls-9" width="252.533" height="19.611" transform="translate(11.851 53.003)"/>
                <path id="Path_3764" data-name="Path 3764" class="cls-10" d="M9.219,0H267.365c5.092,0,9.219,3,9.219,6.7V49.565c0,3.7-4.128,6.7-9.219,6.7H9.219c-5.092,0-9.219-3-9.219-6.7V6.7C0,3,4.128,0,9.219,0Z"/>
                <path id="Rectangle_1631" data-name="Rectangle 1631" class="cls-11" d="M4,0H93.322a0,0,0,0,1,0,0V56.263a0,0,0,0,1,0,0H4a4,4,0,0,1-4-4V4A4,4,0,0,1,4,0Z"/>
              </g>
            </g>
          </g>
        </g>
        <g id="Group_7183" data-name="Group 7183" transform="translate(599.245 388.947)">
          <g id="Group_5584" data-name="Group 5584" transform="translate(0 0)">
            <rect id="Rectangle_1405" data-name="Rectangle 1405" class="cls-12" width="5.857" height="5.857" rx="2.929"/>
            <rect id="Rectangle_1424" data-name="Rectangle 1424" class="cls-13" width="5.857" height="5.857" rx="2.929" transform="translate(7.029 11.715)"/>
            <rect id="Rectangle_1406" data-name="Rectangle 1406" class="cls-12" width="5.857" height="5.857" rx="2.929" transform="translate(11.715)"/>
            <rect id="Rectangle_1423" data-name="Rectangle 1423" class="cls-12" width="5.857" height="5.857" rx="2.929" transform="translate(18.744 11.715)"/>
            <rect id="Rectangle_1407" data-name="Rectangle 1407" class="cls-14" width="5.857" height="5.857" rx="2.929" transform="translate(23.429)"/>
            <rect id="Rectangle_1422" data-name="Rectangle 1422" class="cls-12" width="5.857" height="5.857" rx="2.929" transform="translate(30.458 11.715)"/>
            <rect id="Rectangle_1408" data-name="Rectangle 1408" class="cls-12" width="5.857" height="5.857" rx="2.929" transform="translate(35.144)"/>
            <rect id="Rectangle_1421" data-name="Rectangle 1421" class="cls-13" width="5.857" height="5.857" rx="2.929" transform="translate(42.173 11.715)"/>
            <rect id="Rectangle_1409" data-name="Rectangle 1409" class="cls-12" width="5.857" height="5.857" rx="2.929" transform="translate(46.859)"/>
            <rect id="Rectangle_1420" data-name="Rectangle 1420" class="cls-12" width="5.857" height="5.857" rx="2.929" transform="translate(53.887 11.715)"/>
          </g>
        </g>
        <g id="Ellipse_1402" data-name="Ellipse 1402" class="cls-15" transform="translate(671.549 392.269)">
          <circle class="cls-26" cx="4.982" cy="4.982" r="4.982"/>
          <circle class="cls-27" cx="4.982" cy="4.982" r="3.982"/>
        </g>
        <rect id="Rectangle_3126" data-name="Rectangle 3126" class="cls-12" width="4.428" height="21.034" rx="2.214" transform="translate(586.308 386.734)"/>
        <rect id="Rectangle_3127" data-name="Rectangle 3127" class="cls-12" width="4.428" height="21.034" rx="2.214" transform="translate(577.451 386.734)"/>
        <rect id="Rectangle_3128" data-name="Rectangle 3128" class="cls-11" width="35.425" height="8.856" transform="translate(535.384 386.734)"/>
        <rect id="Rectangle_3129" data-name="Rectangle 3129" class="cls-11" width="35.425" height="8.856" transform="translate(535.384 398.911)"/>
        <path id="Rectangle_3130" data-name="Rectangle 3130" class="cls-14" d="M0,0H4.428a0,0,0,0,1,0,0V14.391a2.214,2.214,0,0,1-2.214,2.214h0A2.214,2.214,0,0,1,0,14.391V0A0,0,0,0,1,0,0Z" transform="translate(586.308 391.162)"/>
        <path id="Rectangle_3131" data-name="Rectangle 3131" class="cls-13" d="M0,0H4.428a0,0,0,0,1,0,0V5.963A2.214,2.214,0,0,1,2.214,8.177h0A2.214,2.214,0,0,1,0,5.963V0A0,0,0,0,1,0,0Z" transform="translate(577.451 399.59)"/>
        <rect id="Rectangle_3132" data-name="Rectangle 3132" class="cls-16" width="8.856" height="8.856" transform="translate(535.384 386.734)"/>
        <rect id="Rectangle_3133" data-name="Rectangle 3133" class="cls-16" width="8.856" height="8.856" transform="translate(535.384 398.911)"/>
        <rect id="Rectangle_3136" data-name="Rectangle 3136" class="cls-6" width="17.712" height="2.214" transform="translate(548.669 390.055)"/>
        <rect id="Rectangle_3137" data-name="Rectangle 3137" class="cls-6" width="17.712" height="2.214" transform="translate(548.669 402.232)"/>
        <g id="Group_7364" data-name="Group 7364" transform="translate(448.143 377.878)">
          <g id="Group_7359" data-name="Group 7359" transform="translate(44.281 5.535)">
            <rect id="Rectangle_3070" data-name="Rectangle 3070" class="cls-6" width="7.315" height="7.606" rx="3.658" transform="translate(0 21.399)"/>
            <rect id="Rectangle_3138" data-name="Rectangle 3138" class="cls-5" width="3.321" height="17.712" rx="1.661" transform="translate(2.214)"/>
          </g>
          <g id="Group_7360" data-name="Group 7360" transform="translate(33.211 12.177)">
            <rect id="Rectangle_1442" data-name="Rectangle 1442" class="cls-17" width="7.315" height="7.606" rx="3.658" transform="translate(0 14.757)"/>
            <rect id="Rectangle_3139" data-name="Rectangle 3139" class="cls-18" width="3.321" height="11.07" rx="1.661" transform="translate(2.214)"/>
          </g>
          <g id="Group_7361" data-name="Group 7361" transform="translate(22.141)">
            <rect id="Rectangle_1425" data-name="Rectangle 1425" class="cls-6" width="7.315" height="7.606" rx="3.658" transform="translate(0 26.934)"/>
            <rect id="Rectangle_3140" data-name="Rectangle 3140" class="cls-5" width="3.321" height="20.248" rx="1.661" transform="translate(2.214 3)"/>
          </g>
          <g id="Group_7362" data-name="Group 7362" transform="translate(11.07 2.214)">
            <rect id="Rectangle_1442-2" data-name="Rectangle 1442" class="cls-14" width="7.315" height="7.606" rx="3.658" transform="translate(0 24.72)"/>
            <rect id="Rectangle_3141" data-name="Rectangle 3141" class="cls-14" width="3.321" height="16.034" rx="1.661" transform="translate(2.214 5)"/>
          </g>
          <g id="Group_7363" data-name="Group 7363" transform="translate(0 14.391)">
            <rect id="Rectangle_1425-2" data-name="Rectangle 1425" class="cls-13" width="7.315" height="7.606" rx="3.658" transform="translate(0 12.543)"/>
            <rect id="Rectangle_3142" data-name="Rectangle 3142" class="cls-13" width="3.321" height="8.856" rx="1.661" transform="translate(2.214)"/>
          </g>
        </g>
        <g id="Ellipse_1403" data-name="Ellipse 1403" class="cls-19" transform="translate(666.014 386.734)">
          <circle class="cls-26" cx="10.517" cy="10.517" r="10.517"/>
          <circle class="cls-27" cx="10.517" cy="10.517" r="9.517"/>
        </g>
      </g>
      <g id="Group_7365-2" data-name="Group 7365" transform="translate(21 63)">
        <g id="Group_7180-2" data-name="Group 7180" transform="translate(427.977 368.801)">
          <g id="Group_5583-2" data-name="Group 5583" transform="translate(0 0)">
            <g id="Group_5582-2" data-name="Group 5582" transform="translate(0)">
              <g id="Group_5581-2" data-name="Group 5581">
                <rect id="Rectangle_1565-2" data-name="Rectangle 1565" class="cls-9" width="252.533" height="19.611" transform="translate(11.851 53.003)"/>
                <path id="Path_3764-2" data-name="Path 3764" class="cls-10" d="M9.219,0H267.365c5.092,0,9.219,3,9.219,6.7V49.565c0,3.7-4.128,6.7-9.219,6.7H9.219c-5.092,0-9.219-3-9.219-6.7V6.7C0,3,4.128,0,9.219,0Z"/>
                <path id="Rectangle_1631-2" data-name="Rectangle 1631" class="cls-11" d="M4,0H93.322a0,0,0,0,1,0,0V56.263a0,0,0,0,1,0,0H4a4,4,0,0,1-4-4V4A4,4,0,0,1,4,0Z"/>
              </g>
            </g>
          </g>
        </g>
        <g id="Group_7183-2" data-name="Group 7183" transform="translate(599.245 388.947)">
          <g id="Group_5584-2" data-name="Group 5584" transform="translate(0 0)">
            <rect id="Rectangle_1405-2" data-name="Rectangle 1405" class="cls-12" width="5.857" height="5.857" rx="2.929"/>
            <rect id="Rectangle_1424-2" data-name="Rectangle 1424" class="cls-13" width="5.857" height="5.857" rx="2.929" transform="translate(7.029 11.715)"/>
            <rect id="Rectangle_1406-2" data-name="Rectangle 1406" class="cls-12" width="5.857" height="5.857" rx="2.929" transform="translate(11.715)"/>
            <rect id="Rectangle_1423-2" data-name="Rectangle 1423" class="cls-12" width="5.857" height="5.857" rx="2.929" transform="translate(18.744 11.715)"/>
            <rect id="Rectangle_1407-2" data-name="Rectangle 1407" class="cls-14" width="5.857" height="5.857" rx="2.929" transform="translate(23.429)"/>
            <rect id="Rectangle_1422-2" data-name="Rectangle 1422" class="cls-12" width="5.857" height="5.857" rx="2.929" transform="translate(30.458 11.715)"/>
            <rect id="Rectangle_1408-2" data-name="Rectangle 1408" class="cls-12" width="5.857" height="5.857" rx="2.929" transform="translate(35.144)"/>
            <rect id="Rectangle_1421-2" data-name="Rectangle 1421" class="cls-13" width="5.857" height="5.857" rx="2.929" transform="translate(42.173 11.715)"/>
            <rect id="Rectangle_1409-2" data-name="Rectangle 1409" class="cls-12" width="5.857" height="5.857" rx="2.929" transform="translate(46.859)"/>
            <rect id="Rectangle_1420-2" data-name="Rectangle 1420" class="cls-12" width="5.857" height="5.857" rx="2.929" transform="translate(53.887 11.715)"/>
          </g>
        </g>
        <g id="Ellipse_1402-2" data-name="Ellipse 1402" class="cls-15" transform="translate(671.549 392.269)">
          <circle class="cls-26" cx="4.982" cy="4.982" r="4.982"/>
          <circle class="cls-27" cx="4.982" cy="4.982" r="3.982"/>
        </g>
        <rect id="Rectangle_3126-2" data-name="Rectangle 3126" class="cls-12" width="4.428" height="21.034" rx="2.214" transform="translate(586.308 386.734)"/>
        <rect id="Rectangle_3127-2" data-name="Rectangle 3127" class="cls-12" width="4.428" height="21.034" rx="2.214" transform="translate(577.451 386.734)"/>
        <rect id="Rectangle_3128-2" data-name="Rectangle 3128" class="cls-11" width="35.425" height="8.856" transform="translate(535.384 386.734)"/>
        <rect id="Rectangle_3129-2" data-name="Rectangle 3129" class="cls-11" width="35.425" height="8.856" transform="translate(535.384 398.911)"/>
        <path id="Rectangle_3130-2" data-name="Rectangle 3130" class="cls-14" d="M0,0H4.428a0,0,0,0,1,0,0V14.391a2.214,2.214,0,0,1-2.214,2.214h0A2.214,2.214,0,0,1,0,14.391V0A0,0,0,0,1,0,0Z" transform="translate(586.308 391.162)"/>
        <path id="Rectangle_3131-2" data-name="Rectangle 3131" class="cls-13" d="M0,0H4.428a0,0,0,0,1,0,0V5.963A2.214,2.214,0,0,1,2.214,8.177h0A2.214,2.214,0,0,1,0,5.963V0A0,0,0,0,1,0,0Z" transform="translate(577.451 399.59)"/>
        <rect id="Rectangle_3132-2" data-name="Rectangle 3132" class="cls-16" width="8.856" height="8.856" transform="translate(535.384 386.734)"/>
        <rect id="Rectangle_3133-2" data-name="Rectangle 3133" class="cls-16" width="8.856" height="8.856" transform="translate(535.384 398.911)"/>
        <rect id="Rectangle_3136-2" data-name="Rectangle 3136" class="cls-6" width="17.712" height="2.214" transform="translate(548.669 390.055)"/>
        <rect id="Rectangle_3137-2" data-name="Rectangle 3137" class="cls-6" width="17.712" height="2.214" transform="translate(548.669 402.232)"/>
        <g id="Ellipse_1403-2" data-name="Ellipse 1403" class="cls-19" transform="translate(666.014 386.734)">
          <circle class="cls-26" cx="10.517" cy="10.517" r="10.517"/>
          <circle class="cls-27" cx="10.517" cy="10.517" r="9.517"/>
        </g>
        <g id="Group_7374" data-name="Group 7374" transform="translate(448.143 378.877)">
          <g id="Group_7359-2" data-name="Group 7359" transform="translate(44.281 5.535)">
            <rect id="Rectangle_3070-2" data-name="Rectangle 3070" class="cls-6" width="7.315" height="7.606" rx="3.658" transform="translate(0 21.399)"/>
            <rect id="Rectangle_3138-2" data-name="Rectangle 3138" class="cls-5" width="3.321" height="17.712" rx="1.661" transform="translate(2.214)"/>
          </g>
          <g id="Group_7360-2" data-name="Group 7360" transform="translate(33.211 12.177)">
            <rect id="Rectangle_1442-3" data-name="Rectangle 1442" class="cls-17" width="7.315" height="7.606" rx="3.658" transform="translate(0 14.757)"/>
            <rect id="Rectangle_3139-2" data-name="Rectangle 3139" class="cls-18" width="3.321" height="11.07" rx="1.661" transform="translate(2.214)"/>
          </g>
          <g id="Group_7361-2" data-name="Group 7361" transform="translate(22.141)">
            <rect id="Rectangle_1425-3" data-name="Rectangle 1425" class="cls-6" width="7.315" height="7.606" rx="3.658" transform="translate(0 26.934)"/>
            <rect id="Rectangle_3140-2" data-name="Rectangle 3140" class="cls-5" width="3.321" height="20.248" rx="1.661" transform="translate(2.214 3)"/>
          </g>
          <g id="Group_7362-2" data-name="Group 7362" transform="translate(11.07 2.214)">
            <rect id="Rectangle_1442-4" data-name="Rectangle 1442" class="cls-14" width="7.315" height="7.606" rx="3.658" transform="translate(0 24.72)"/>
            <rect id="Rectangle_3141-2" data-name="Rectangle 3141" class="cls-14" width="3.321" height="16.034" rx="1.661" transform="translate(2.214 5)"/>
          </g>
          <g id="Group_7363-2" data-name="Group 7363" transform="translate(0 14.391)">
            <rect id="Rectangle_1425-4" data-name="Rectangle 1425" class="cls-13" width="7.315" height="7.606" rx="3.658" transform="translate(0 12.543)"/>
            <rect id="Rectangle_3142-2" data-name="Rectangle 3142" class="cls-13" width="3.321" height="8.856" rx="1.661" transform="translate(2.214)"/>
          </g>
        </g>
      </g>
      <g id="Group_7365-3" data-name="Group 7365" transform="translate(21 130)">
        <g id="Group_7180-3" data-name="Group 7180" transform="translate(427.977 368.801)">
          <g id="Group_5583-3" data-name="Group 5583" transform="translate(0 0)">
            <g id="Group_5582-3" data-name="Group 5582" transform="translate(0)">
              <g id="Group_5581-3" data-name="Group 5581">
                <rect id="Rectangle_1565-3" data-name="Rectangle 1565" class="cls-9" width="252.533" height="19.611" transform="translate(11.851 53.003)"/>
                <path id="Path_3764-3" data-name="Path 3764" class="cls-10" d="M9.219,0H267.365c5.092,0,9.219,3,9.219,6.7V49.565c0,3.7-4.128,6.7-9.219,6.7H9.219c-5.092,0-9.219-3-9.219-6.7V6.7C0,3,4.128,0,9.219,0Z"/>
                <path id="Rectangle_1631-3" data-name="Rectangle 1631" class="cls-11" d="M4,0H93.322a0,0,0,0,1,0,0V56.263a0,0,0,0,1,0,0H4a4,4,0,0,1-4-4V4A4,4,0,0,1,4,0Z"/>
              </g>
            </g>
          </g>
        </g>
        <g id="Group_7183-3" data-name="Group 7183" transform="translate(599.245 388.947)">
          <g id="Group_5584-3" data-name="Group 5584" transform="translate(0 0)">
            <rect id="Rectangle_1405-3" data-name="Rectangle 1405" class="cls-12" width="5.857" height="5.857" rx="2.929"/>
            <rect id="Rectangle_1424-3" data-name="Rectangle 1424" class="cls-13" width="5.857" height="5.857" rx="2.929" transform="translate(7.029 11.715)"/>
            <rect id="Rectangle_1406-3" data-name="Rectangle 1406" class="cls-12" width="5.857" height="5.857" rx="2.929" transform="translate(11.715)"/>
            <rect id="Rectangle_1423-3" data-name="Rectangle 1423" class="cls-12" width="5.857" height="5.857" rx="2.929" transform="translate(18.744 11.715)"/>
            <rect id="Rectangle_1407-3" data-name="Rectangle 1407" class="cls-14" width="5.857" height="5.857" rx="2.929" transform="translate(23.429)"/>
            <rect id="Rectangle_1422-3" data-name="Rectangle 1422" class="cls-12" width="5.857" height="5.857" rx="2.929" transform="translate(30.458 11.715)"/>
            <rect id="Rectangle_1408-3" data-name="Rectangle 1408" class="cls-12" width="5.857" height="5.857" rx="2.929" transform="translate(35.144)"/>
            <rect id="Rectangle_1421-3" data-name="Rectangle 1421" class="cls-13" width="5.857" height="5.857" rx="2.929" transform="translate(42.173 11.715)"/>
            <rect id="Rectangle_1409-3" data-name="Rectangle 1409" class="cls-12" width="5.857" height="5.857" rx="2.929" transform="translate(46.859)"/>
            <rect id="Rectangle_1420-3" data-name="Rectangle 1420" class="cls-12" width="5.857" height="5.857" rx="2.929" transform="translate(53.887 11.715)"/>
          </g>
        </g>
        <g id="Ellipse_1402-3" data-name="Ellipse 1402" class="cls-15" transform="translate(671.549 392.269)">
          <circle class="cls-26" cx="4.982" cy="4.982" r="4.982"/>
          <circle class="cls-27" cx="4.982" cy="4.982" r="3.982"/>
        </g>
        <rect id="Rectangle_3126-3" data-name="Rectangle 3126" class="cls-12" width="4.428" height="21.034" rx="2.214" transform="translate(586.308 386.734)"/>
        <rect id="Rectangle_3127-3" data-name="Rectangle 3127" class="cls-12" width="4.428" height="21.034" rx="2.214" transform="translate(577.451 386.734)"/>
        <rect id="Rectangle_3128-3" data-name="Rectangle 3128" class="cls-11" width="35.425" height="8.856" transform="translate(535.384 386.734)"/>
        <rect id="Rectangle_3129-3" data-name="Rectangle 3129" class="cls-11" width="35.425" height="8.856" transform="translate(535.384 398.911)"/>
        <path id="Rectangle_3130-3" data-name="Rectangle 3130" class="cls-14" d="M0,0H4.428a0,0,0,0,1,0,0V14.391a2.214,2.214,0,0,1-2.214,2.214h0A2.214,2.214,0,0,1,0,14.391V0A0,0,0,0,1,0,0Z" transform="translate(586.308 391.162)"/>
        <path id="Rectangle_3131-3" data-name="Rectangle 3131" class="cls-13" d="M0,0H4.428a0,0,0,0,1,0,0V5.963A2.214,2.214,0,0,1,2.214,8.177h0A2.214,2.214,0,0,1,0,5.963V0A0,0,0,0,1,0,0Z" transform="translate(577.451 399.59)"/>
        <rect id="Rectangle_3132-3" data-name="Rectangle 3132" class="cls-16" width="8.856" height="8.856" transform="translate(535.384 386.734)"/>
        <rect id="Rectangle_3133-3" data-name="Rectangle 3133" class="cls-16" width="8.856" height="8.856" transform="translate(535.384 398.911)"/>
        <rect id="Rectangle_3136-3" data-name="Rectangle 3136" class="cls-6" width="17.712" height="2.214" transform="translate(548.669 390.055)"/>
        <rect id="Rectangle_3137-3" data-name="Rectangle 3137" class="cls-6" width="17.712" height="2.214" transform="translate(548.669 402.232)"/>
        <g id="Ellipse_1403-3" data-name="Ellipse 1403" class="cls-19" transform="translate(666.014 386.734)">
          <circle class="cls-26" cx="10.517" cy="10.517" r="10.517"/>
          <circle class="cls-27" cx="10.517" cy="10.517" r="9.517"/>
        </g>
        <g id="Group_7375" data-name="Group 7375" transform="translate(448.143 378.877)">
          <g id="Group_7359-3" data-name="Group 7359" transform="translate(44.281 5.535)">
            <rect id="Rectangle_3070-3" data-name="Rectangle 3070" class="cls-6" width="7.315" height="7.606" rx="3.658" transform="translate(0 21.399)"/>
            <rect id="Rectangle_3138-3" data-name="Rectangle 3138" class="cls-5" width="3.321" height="17.712" rx="1.661" transform="translate(2.214)"/>
          </g>
          <g id="Group_7360-3" data-name="Group 7360" transform="translate(33.211 12.177)">
            <rect id="Rectangle_1442-5" data-name="Rectangle 1442" class="cls-17" width="7.315" height="7.606" rx="3.658" transform="translate(0 14.757)"/>
            <rect id="Rectangle_3139-3" data-name="Rectangle 3139" class="cls-18" width="3.321" height="11.07" rx="1.661" transform="translate(2.214)"/>
          </g>
          <g id="Group_7361-3" data-name="Group 7361" transform="translate(22.141)">
            <rect id="Rectangle_1425-5" data-name="Rectangle 1425" class="cls-6" width="7.315" height="7.606" rx="3.658" transform="translate(0 26.934)"/>
            <rect id="Rectangle_3140-3" data-name="Rectangle 3140" class="cls-5" width="3.321" height="20.248" rx="1.661" transform="translate(2.214 3)"/>
          </g>
          <g id="Group_7362-3" data-name="Group 7362" transform="translate(11.07 2.214)">
            <rect id="Rectangle_1442-6" data-name="Rectangle 1442" class="cls-14" width="7.315" height="7.606" rx="3.658" transform="translate(0 24.72)"/>
            <rect id="Rectangle_3141-3" data-name="Rectangle 3141" class="cls-14" width="3.321" height="16.034" rx="1.661" transform="translate(2.214 5)"/>
          </g>
          <g id="Group_7363-3" data-name="Group 7363" transform="translate(0 14.391)">
            <rect id="Rectangle_1425-6" data-name="Rectangle 1425" class="cls-13" width="7.315" height="7.606" rx="3.658" transform="translate(0 12.543)"/>
            <rect id="Rectangle_3142-3" data-name="Rectangle 3142" class="cls-13" width="3.321" height="8.856" rx="1.661" transform="translate(2.214)"/>
          </g>
        </g>
      </g>
      <g id="Group_7365-4" data-name="Group 7365" transform="translate(21 197)">
        <g id="Group_7180-4" data-name="Group 7180" transform="translate(427.977 368.801)">
          <g id="Group_5583-4" data-name="Group 5583" transform="translate(0 0)">
            <g id="Group_5582-4" data-name="Group 5582" transform="translate(0)">
              <g id="Group_5581-4" data-name="Group 5581">
                <rect id="Rectangle_1565-4" data-name="Rectangle 1565" class="cls-9" width="252.533" height="19.611" transform="translate(11.851 53.003)"/>
                <path id="Path_3764-4" data-name="Path 3764" class="cls-10" d="M9.219,0H267.365c5.092,0,9.219,3,9.219,6.7V49.565c0,3.7-4.128,6.7-9.219,6.7H9.219c-5.092,0-9.219-3-9.219-6.7V6.7C0,3,4.128,0,9.219,0Z"/>
                <path id="Rectangle_1631-4" data-name="Rectangle 1631" class="cls-11" d="M4,0H93.322a0,0,0,0,1,0,0V56.263a0,0,0,0,1,0,0H4a4,4,0,0,1-4-4V4A4,4,0,0,1,4,0Z"/>
              </g>
            </g>
          </g>
        </g>
        <g id="Group_7183-4" data-name="Group 7183" transform="translate(599.245 388.947)">
          <g id="Group_5584-4" data-name="Group 5584" transform="translate(0 0)">
            <rect id="Rectangle_1405-4" data-name="Rectangle 1405" class="cls-12" width="5.857" height="5.857" rx="2.929"/>
            <rect id="Rectangle_1424-4" data-name="Rectangle 1424" class="cls-13" width="5.857" height="5.857" rx="2.929" transform="translate(7.029 11.715)"/>
            <rect id="Rectangle_1406-4" data-name="Rectangle 1406" class="cls-12" width="5.857" height="5.857" rx="2.929" transform="translate(11.715)"/>
            <rect id="Rectangle_1423-4" data-name="Rectangle 1423" class="cls-12" width="5.857" height="5.857" rx="2.929" transform="translate(18.744 11.715)"/>
            <rect id="Rectangle_1407-4" data-name="Rectangle 1407" class="cls-14" width="5.857" height="5.857" rx="2.929" transform="translate(23.429)"/>
            <rect id="Rectangle_1422-4" data-name="Rectangle 1422" class="cls-12" width="5.857" height="5.857" rx="2.929" transform="translate(30.458 11.715)"/>
            <rect id="Rectangle_1408-4" data-name="Rectangle 1408" class="cls-12" width="5.857" height="5.857" rx="2.929" transform="translate(35.144)"/>
            <rect id="Rectangle_1421-4" data-name="Rectangle 1421" class="cls-13" width="5.857" height="5.857" rx="2.929" transform="translate(42.173 11.715)"/>
            <rect id="Rectangle_1409-4" data-name="Rectangle 1409" class="cls-12" width="5.857" height="5.857" rx="2.929" transform="translate(46.859)"/>
            <rect id="Rectangle_1420-4" data-name="Rectangle 1420" class="cls-12" width="5.857" height="5.857" rx="2.929" transform="translate(53.887 11.715)"/>
          </g>
        </g>
        <g id="Ellipse_1402-4" data-name="Ellipse 1402" class="cls-15" transform="translate(671.549 392.269)">
          <circle class="cls-26" cx="4.982" cy="4.982" r="4.982"/>
          <circle class="cls-27" cx="4.982" cy="4.982" r="3.982"/>
        </g>
        <rect id="Rectangle_3126-4" data-name="Rectangle 3126" class="cls-12" width="4.428" height="21.034" rx="2.214" transform="translate(586.308 386.734)"/>
        <rect id="Rectangle_3127-4" data-name="Rectangle 3127" class="cls-12" width="4.428" height="21.034" rx="2.214" transform="translate(577.451 386.734)"/>
        <rect id="Rectangle_3128-4" data-name="Rectangle 3128" class="cls-11" width="35.425" height="8.856" transform="translate(535.384 386.734)"/>
        <rect id="Rectangle_3129-4" data-name="Rectangle 3129" class="cls-11" width="35.425" height="8.856" transform="translate(535.384 398.911)"/>
        <path id="Rectangle_3130-4" data-name="Rectangle 3130" class="cls-14" d="M0,0H4.428a0,0,0,0,1,0,0V14.391a2.214,2.214,0,0,1-2.214,2.214h0A2.214,2.214,0,0,1,0,14.391V0A0,0,0,0,1,0,0Z" transform="translate(586.308 391.162)"/>
        <path id="Rectangle_3131-4" data-name="Rectangle 3131" class="cls-13" d="M0,0H4.428a0,0,0,0,1,0,0V5.963A2.214,2.214,0,0,1,2.214,8.177h0A2.214,2.214,0,0,1,0,5.963V0A0,0,0,0,1,0,0Z" transform="translate(577.451 399.59)"/>
        <rect id="Rectangle_3132-4" data-name="Rectangle 3132" class="cls-16" width="8.856" height="8.856" transform="translate(535.384 386.734)"/>
        <rect id="Rectangle_3133-4" data-name="Rectangle 3133" class="cls-16" width="8.856" height="8.856" transform="translate(535.384 398.911)"/>
        <rect id="Rectangle_3136-4" data-name="Rectangle 3136" class="cls-6" width="17.712" height="2.214" transform="translate(548.669 390.055)"/>
        <rect id="Rectangle_3137-4" data-name="Rectangle 3137" class="cls-6" width="17.712" height="2.214" transform="translate(548.669 402.232)"/>
        <g id="Ellipse_1403-4" data-name="Ellipse 1403" class="cls-19" transform="translate(666.014 386.734)">
          <circle class="cls-26" cx="10.517" cy="10.517" r="10.517"/>
          <circle class="cls-27" cx="10.517" cy="10.517" r="9.517"/>
        </g>
        <g id="Group_7376" data-name="Group 7376" transform="translate(448.143 378.877)">
          <g id="Group_7359-4" data-name="Group 7359" transform="translate(44.281 5.535)">
            <rect id="Rectangle_3070-4" data-name="Rectangle 3070" class="cls-6" width="7.315" height="7.606" rx="3.658" transform="translate(0 21.399)"/>
            <rect id="Rectangle_3138-4" data-name="Rectangle 3138" class="cls-5" width="3.321" height="17.712" rx="1.661" transform="translate(2.214)"/>
          </g>
          <g id="Group_7360-4" data-name="Group 7360" transform="translate(33.211 12.177)">
            <rect id="Rectangle_1442-7" data-name="Rectangle 1442" class="cls-17" width="7.315" height="7.606" rx="3.658" transform="translate(0 14.757)"/>
            <rect id="Rectangle_3139-4" data-name="Rectangle 3139" class="cls-18" width="3.321" height="11.07" rx="1.661" transform="translate(2.214)"/>
          </g>
          <g id="Group_7361-4" data-name="Group 7361" transform="translate(22.141)">
            <rect id="Rectangle_1425-7" data-name="Rectangle 1425" class="cls-6" width="7.315" height="7.606" rx="3.658" transform="translate(0 26.934)"/>
            <rect id="Rectangle_3140-4" data-name="Rectangle 3140" class="cls-5" width="3.321" height="20.248" rx="1.661" transform="translate(2.214 3)"/>
          </g>
          <g id="Group_7362-4" data-name="Group 7362" transform="translate(11.07 2.214)">
            <rect id="Rectangle_1442-8" data-name="Rectangle 1442" class="cls-14" width="7.315" height="7.606" rx="3.658" transform="translate(0 24.72)"/>
            <rect id="Rectangle_3141-4" data-name="Rectangle 3141" class="cls-14" width="3.321" height="16.034" rx="1.661" transform="translate(2.214 5)"/>
          </g>
          <g id="Group_7363-4" data-name="Group 7363" transform="translate(0 14.391)">
            <rect id="Rectangle_1425-8" data-name="Rectangle 1425" class="cls-13" width="7.315" height="7.606" rx="3.658" transform="translate(0 12.543)"/>
            <rect id="Rectangle_3142-4" data-name="Rectangle 3142" class="cls-13" width="3.321" height="8.856" rx="1.661" transform="translate(2.214)"/>
          </g>
        </g>
      </g>
      <g id="Group_7365-5" data-name="Group 7365" transform="translate(21 264)">
        <g id="Group_7180-5" data-name="Group 7180" transform="translate(427.977 368.801)">
          <g id="Group_5583-5" data-name="Group 5583" transform="translate(0 0)">
            <g id="Group_5582-5" data-name="Group 5582" transform="translate(0)">
              <g id="Group_5581-5" data-name="Group 5581">
                <path id="Path_3764-5" data-name="Path 3764" class="cls-10" d="M9.219,0H267.365c5.092,0,9.219,3,9.219,6.7V49.565c0,3.7-4.128,6.7-9.219,6.7H9.219c-5.092,0-9.219-3-9.219-6.7V6.7C0,3,4.128,0,9.219,0Z"/>
                <path id="Rectangle_1631-5" data-name="Rectangle 1631" class="cls-11" d="M4,0H93.322a0,0,0,0,1,0,0V56.263a0,0,0,0,1,0,0H4a4,4,0,0,1-4-4V4A4,4,0,0,1,4,0Z"/>
              </g>
            </g>
          </g>
        </g>
        <g id="Group_7183-5" data-name="Group 7183" transform="translate(599.245 388.947)">
          <g id="Group_5584-5" data-name="Group 5584" transform="translate(0 0)">
            <rect id="Rectangle_1405-5" data-name="Rectangle 1405" class="cls-12" width="5.857" height="5.857" rx="2.929"/>
            <rect id="Rectangle_1424-5" data-name="Rectangle 1424" class="cls-13" width="5.857" height="5.857" rx="2.929" transform="translate(7.029 11.715)"/>
            <rect id="Rectangle_1406-5" data-name="Rectangle 1406" class="cls-12" width="5.857" height="5.857" rx="2.929" transform="translate(11.715)"/>
            <rect id="Rectangle_1423-5" data-name="Rectangle 1423" class="cls-12" width="5.857" height="5.857" rx="2.929" transform="translate(18.744 11.715)"/>
            <rect id="Rectangle_1407-5" data-name="Rectangle 1407" class="cls-14" width="5.857" height="5.857" rx="2.929" transform="translate(23.429)"/>
            <rect id="Rectangle_1422-5" data-name="Rectangle 1422" class="cls-12" width="5.857" height="5.857" rx="2.929" transform="translate(30.458 11.715)"/>
            <rect id="Rectangle_1408-5" data-name="Rectangle 1408" class="cls-12" width="5.857" height="5.857" rx="2.929" transform="translate(35.144)"/>
            <rect id="Rectangle_1421-5" data-name="Rectangle 1421" class="cls-13" width="5.857" height="5.857" rx="2.929" transform="translate(42.173 11.715)"/>
            <rect id="Rectangle_1409-5" data-name="Rectangle 1409" class="cls-12" width="5.857" height="5.857" rx="2.929" transform="translate(46.859)"/>
            <rect id="Rectangle_1420-5" data-name="Rectangle 1420" class="cls-12" width="5.857" height="5.857" rx="2.929" transform="translate(53.887 11.715)"/>
          </g>
        </g>
        <g id="Ellipse_1402-5" data-name="Ellipse 1402" class="cls-15" transform="translate(671.549 392.269)">
          <circle class="cls-26" cx="4.982" cy="4.982" r="4.982"/>
          <circle class="cls-27" cx="4.982" cy="4.982" r="3.982"/>
        </g>
        <rect id="Rectangle_3126-5" data-name="Rectangle 3126" class="cls-12" width="4.428" height="21.034" rx="2.214" transform="translate(586.308 386.734)"/>
        <rect id="Rectangle_3127-5" data-name="Rectangle 3127" class="cls-12" width="4.428" height="21.034" rx="2.214" transform="translate(577.451 386.734)"/>
        <rect id="Rectangle_3128-5" data-name="Rectangle 3128" class="cls-11" width="35.425" height="8.856" transform="translate(535.384 386.734)"/>
        <rect id="Rectangle_3129-5" data-name="Rectangle 3129" class="cls-11" width="35.425" height="8.856" transform="translate(535.384 398.911)"/>
        <path id="Rectangle_3130-5" data-name="Rectangle 3130" class="cls-14" d="M0,0H4.428a0,0,0,0,1,0,0V14.391a2.214,2.214,0,0,1-2.214,2.214h0A2.214,2.214,0,0,1,0,14.391V0A0,0,0,0,1,0,0Z" transform="translate(586.308 391.162)"/>
        <path id="Rectangle_3131-5" data-name="Rectangle 3131" class="cls-13" d="M0,0H4.428a0,0,0,0,1,0,0V5.963A2.214,2.214,0,0,1,2.214,8.177h0A2.214,2.214,0,0,1,0,5.963V0A0,0,0,0,1,0,0Z" transform="translate(577.451 399.59)"/>
        <rect id="Rectangle_3132-5" data-name="Rectangle 3132" class="cls-16" width="8.856" height="8.856" transform="translate(535.384 386.734)"/>
        <rect id="Rectangle_3133-5" data-name="Rectangle 3133" class="cls-16" width="8.856" height="8.856" transform="translate(535.384 398.911)"/>
        <rect id="Rectangle_3136-5" data-name="Rectangle 3136" class="cls-6" width="17.712" height="2.214" transform="translate(548.669 390.055)"/>
        <rect id="Rectangle_3137-5" data-name="Rectangle 3137" class="cls-6" width="17.712" height="2.214" transform="translate(548.669 402.232)"/>
        <g id="Ellipse_1403-5" data-name="Ellipse 1403" class="cls-19" transform="translate(666.014 386.734)">
          <circle class="cls-26" cx="10.517" cy="10.517" r="10.517"/>
          <circle class="cls-27" cx="10.517" cy="10.517" r="9.517"/>
        </g>
        <g id="Group_7377" data-name="Group 7377" transform="translate(448.143 377.877)">
          <g id="Group_7359-5" data-name="Group 7359" transform="translate(44.281 5.535)">
            <rect id="Rectangle_3070-5" data-name="Rectangle 3070" class="cls-6" width="7.315" height="7.606" rx="3.658" transform="translate(0 21.399)"/>
            <rect id="Rectangle_3138-5" data-name="Rectangle 3138" class="cls-5" width="3.321" height="17.712" rx="1.661" transform="translate(2.214)"/>
          </g>
          <g id="Group_7360-5" data-name="Group 7360" transform="translate(33.211 12.177)">
            <rect id="Rectangle_1442-9" data-name="Rectangle 1442" class="cls-17" width="7.315" height="7.606" rx="3.658" transform="translate(0 14.757)"/>
            <rect id="Rectangle_3139-5" data-name="Rectangle 3139" class="cls-18" width="3.321" height="11.07" rx="1.661" transform="translate(2.214)"/>
          </g>
          <g id="Group_7361-5" data-name="Group 7361" transform="translate(22.141)">
            <rect id="Rectangle_1425-9" data-name="Rectangle 1425" class="cls-6" width="7.315" height="7.606" rx="3.658" transform="translate(0 26.934)"/>
            <rect id="Rectangle_3140-5" data-name="Rectangle 3140" class="cls-5" width="3.321" height="20.248" rx="1.661" transform="translate(2.214 3)"/>
          </g>
          <g id="Group_7362-5" data-name="Group 7362" transform="translate(11.07 2.214)">
            <rect id="Rectangle_1442-10" data-name="Rectangle 1442" class="cls-14" width="7.315" height="7.606" rx="3.658" transform="translate(0 24.72)"/>
            <rect id="Rectangle_3141-5" data-name="Rectangle 3141" class="cls-14" width="3.321" height="16.034" rx="1.661" transform="translate(2.214 5)"/>
          </g>
          <g id="Group_7363-5" data-name="Group 7363" transform="translate(0 14.391)">
            <rect id="Rectangle_1425-10" data-name="Rectangle 1425" class="cls-13" width="7.315" height="7.606" rx="3.658" transform="translate(0 12.543)"/>
            <rect id="Rectangle_3142-5" data-name="Rectangle 3142" class="cls-13" width="3.321" height="8.856" rx="1.661" transform="translate(2.214)"/>
          </g>
        </g>
      </g>
    </g>
    <g id="Group_7167" data-name="Group 7167" transform="translate(75 -28)">
      <ellipse id="Ellipse_1272" data-name="Ellipse 1272" class="cls-20" cx="45.228" cy="8.281" rx="45.228" ry="8.281" transform="translate(593.957 752.283)"/>
      <g id="Group_6083" data-name="Group 6083" transform="translate(431 139.961)">
        <path id="Path_3437" data-name="Path 3437" class="cls-21" d="M61.856,168.644s-15.747-44.29-50.207-71.83S30.462,50.085,27.4,9.92,95.307,60.1,65.245,128.11,61.856,168.644,61.856,168.644Z" transform="translate(182.7 374.106) rotate(11)"/>
        <g class="cls-30" transform="matrix(1, 0, 0, 1, -3547, 17751.04)">
          <path id="Path_3435-2" data-name="Path 3435" class="cls-22" d="M11466.94,1767.534s-2.578-55.423,49.043-74.778,19.785-55.541,26.379-74.055-82.745,19.553-79.172,104S11466.94,1767.534,11466.94,1767.534Z" transform="translate(-7709.45 -18929.9)"/>
        </g>
        <g class="cls-29" transform="matrix(1, 0, 0, 1, -3547, 17751.04)">
          <path id="Path_3436-2" data-name="Path 3436" class="cls-18" d="M11528.269,1740.416s2.123-45.626-40.374-61.56-16.287-45.724-21.717-60.965,68.119,16.1,65.178,85.619S11528.269,1740.416,11528.269,1740.416Z" transform="translate(-7766.91 -18893.73)"/>
        </g>
        <g class="cls-28" transform="matrix(1, 0, 0, 1, -3547, 17751.04)">
          <path id="Path_3434-2" data-name="Path 3434" class="cls-23" d="M-10,0H57.913L52.48,69.543H-4.567Z" transform="translate(3731.99 -17199.54)"/>
        </g>
        <path id="Path_3456" data-name="Path 3456" class="cls-24" d="M50.3,84.136S37.916,21.07,0,0" transform="translate(215.817 400.925) rotate(34)"/>
        <path id="Path_3457" data-name="Path 3457" class="cls-24" d="M11487.033,1813.483s13.264-64.324,53.883-85.815" transform="translate(-11267.612 -1277.198)"/>
        <path id="Path_3458" data-name="Path 3458" class="cls-25" d="M11504.818,1803.761s4.95-7.453,19.242-8.14" transform="translate(-11271.177 -1290.82)"/>
        <path id="Path_3459" data-name="Path 3459" class="cls-25" d="M16.414,6.944S12.191.587,0,0" transform="matrix(0.921, 0.391, -0.391, 0.921, 196.991, 460.332)"/>
        <path id="Path_3460" data-name="Path 3460" class="cls-25" d="M11516.852,1777.852s10.774-12.565,22.576-13.885" transform="translate(-11273.589 -1284.474)"/>
        <path id="Path_3461" data-name="Path 3461" class="cls-25" d="M19.257,11.844S10.067,1.126,0,0" transform="matrix(0.921, 0.391, -0.391, 0.921, 195.254, 436.143)"/>
      </g>
    </g>
  </g>
</svg>
