<svg xmlns="http://www.w3.org/2000/svg" xmlns:xlink="http://www.w3.org/1999/xlink" viewBox="4656.257 -17679.439 853.287 612.51">
  <defs>
    <style>
      .cls-1 {
        fill: url(#linear-gradient);
      }

      .cls-2 {
        fill: #137fcf;
      }

      .cls-3 {
        fill: #288ed9;
      }

      .cls-13, .cls-21, .cls-23, .cls-27, .cls-4, .cls-5 {
        fill: none;
      }

      .cls-4, .cls-5 {
        stroke: #288ed9;
      }

      .cls-13, .cls-5 {
        stroke-linecap: round;
        stroke-miterlimit: 10;
        stroke-width: 4px;
      }

      .cls-14, .cls-6 {
        fill: #c6e6ff;
      }

      .cls-6 {
        opacity: 0.435;
      }

      .cls-7 {
        fill: url(#linear-gradient-2);
      }

      .cls-8 {
        fill: #024679;
      }

      .cls-16, .cls-9 {
        fill: #005b9f;
      }

      .cls-9 {
        opacity: 0.573;
      }

      .cls-10 {
        opacity: 0.5;
      }

      .cls-11 {
        fill: #1f364c;
      }

      .cls-12 {
        fill: #043c67;
      }

      .cls-13 {
        stroke: #1f364c;
      }

      .cls-14 {
        opacity: 0.576;
      }

      .cls-15 {
        fill: #166eaf;
      }

      .cls-17 {
        fill: #21e2e2;
      }

      .cls-18 {
        fill: #ffbc98;
      }

      .cls-19 {
        fill: #0e71bb;
      }

      .cls-20 {
        fill: #52acea;
      }

      .cls-21 {
        stroke: #ffbc98;
      }

      .cls-21, .cls-23 {
        stroke-width: 2px;
      }

      .cls-22 {
        fill: #80c9ff;
      }

      .cls-23 {
        stroke: #21e2e2;
      }

      .cls-24 {
        fill: #d6eeff;
      }

      .cls-25 {
        fill: #fff;
      }

      .cls-26 {
        stroke: none;
      }

      .cls-28 {
        filter: url(#Path_6020);
      }
    </style>
    <linearGradient id="linear-gradient" x1="0.5" y1="1.192" x2="0.487" y2="-0.081" gradientUnits="objectBoundingBox">
      <stop offset="0" stop-color="#c6e6ff"/>
      <stop offset="1" stop-color="#fff"/>
    </linearGradient>
    <filter id="Path_6020" x="4772" y="-17301" width="34" height="34" filterUnits="userSpaceOnUse">
      <feOffset dy="3" input="SourceAlpha"/>
      <feGaussianBlur stdDeviation="3" result="blur"/>
      <feFlood flood-opacity="0.161"/>
      <feComposite operator="in" in2="blur"/>
      <feComposite in="SourceGraphic"/>
    </filter>
    <linearGradient id="linear-gradient-2" x1="0.5" y1="-1.004" x2="0.5" y2="1" gradientUnits="objectBoundingBox">
      <stop offset="0" stop-color="#288ed9"/>
      <stop offset="1" stop-color="#137fcf" stop-opacity="0.051"/>
    </linearGradient>
  </defs>
  <g id="Group_8045" data-name="Group 8045" transform="translate(4581 -17863)">
    <path id="Path_5630" data-name="Path 5630" class="cls-1" d="M338.563,59.823C459.7,137.122,598.4,171.906,598.4,171.906S751.141,195.1,694.96,369.017s-63.509,236.2-151.566,240.649c-83.51,2.38-130.416-32.083-213.041-26.146-72.578,5.588-122.557,38.288-243.83-9.484C-107.812,488.157-93.327-212.654,338.563,59.823Z" transform="translate(170.574 186.287)"/>
    <g id="Group_7192" data-name="Group 7192" transform="translate(-118 -58)">
      <rect id="Rectangle_3071" data-name="Rectangle 3071" class="cls-2" width="33.053" height="33.053" rx="5" transform="translate(309 617)"/>
      <g class="cls-28" transform="matrix(1, 0, 0, 1, -4463, 17921)">
        <path id="Path_6020-2" data-name="Path 6020" class="cls-3" d="M8,0A8,8,0,1,1,0,8,8,8,0,0,1,8,0Z" transform="translate(4781 -17295)"/>
      </g>
      <g id="Ellipse_1370" data-name="Ellipse 1370" class="cls-4" transform="translate(315 623)">
        <circle class="cls-26" cx="11" cy="11" r="11"/>
        <circle class="cls-27" cx="11" cy="11" r="10.5"/>
      </g>
      <path id="Path_6021" data-name="Path 6021" class="cls-5" d="M65.408,122.6V61.553c0-8.283-4.548-12.117-12.669-11.964-2.111,0-35.847.153-42.344.153C2.436,49.742,0,44.834,0,36.551c0,0,.139-5.43.139-11.558S4.295,15,8.866,15H24.042" transform="translate(310.697 665.406) rotate(-90)"/>
    </g>
    <path id="Path_5633" data-name="Path 5633" class="cls-6" d="M47.836.011C27.352,24.646,60.928,84.337,15.392,120.729S40.253,182.476,36.207,235.55,161.521,177.731,121.8,87.859C111.469,64.492,112.319,11.495,106.112.011,89.138-31.4,68.321-24.625,47.836.011Z" transform="translate(324.607 236.613) rotate(90)"/>
    <ellipse id="Ellipse_1369" data-name="Ellipse 1369" class="cls-7" cx="265.5" cy="47.5" rx="265.5" ry="47.5" transform="translate(253 623)"/>
    <rect id="Rectangle_3072" data-name="Rectangle 3072" class="cls-8" width="188" height="352" rx="10" transform="translate(311 318)"/>
    <path id="Rectangle_3082" data-name="Rectangle 3082" class="cls-9" d="M10,0h90a0,0,0,0,1,0,0V352a0,0,0,0,1,0,0H10A10,10,0,0,1,0,342V10A10,10,0,0,1,10,0Z" transform="translate(312 318)"/>
    <g id="Group_7222" data-name="Group 7222" class="cls-10" transform="translate(-4.216 -320)">
      <rect id="Rectangle_3077" data-name="Rectangle 3077" class="cls-11" width="85" height="3" transform="translate(367.216 660)"/>
      <rect id="Rectangle_3078" data-name="Rectangle 3078" class="cls-11" width="85" height="3" transform="translate(367.216 668)"/>
      <rect id="Rectangle_3079" data-name="Rectangle 3079" class="cls-11" width="85" height="3" transform="translate(367.216 676)"/>
      <rect id="Rectangle_3080" data-name="Rectangle 3080" class="cls-11" width="85" height="3" transform="translate(367.216 684)"/>
      <rect id="Rectangle_3090" data-name="Rectangle 3090" class="cls-11" width="85" height="3" transform="translate(367.216 692)"/>
    </g>
    <g id="Group_7199" data-name="Group 7199" class="cls-10" transform="translate(-5.216 -38)">
      <rect id="Rectangle_3077-2" data-name="Rectangle 3077" class="cls-11" width="85" height="3" transform="translate(367.216 660)"/>
      <rect id="Rectangle_3078-2" data-name="Rectangle 3078" class="cls-11" width="85" height="3" transform="translate(367.216 668)"/>
      <rect id="Rectangle_3079-2" data-name="Rectangle 3079" class="cls-11" width="85" height="3" transform="translate(367.216 676)"/>
      <rect id="Rectangle_3080-2" data-name="Rectangle 3080" class="cls-11" width="85" height="3" transform="translate(367.216 684)"/>
    </g>
    <rect id="Rectangle_3081" data-name="Rectangle 3081" class="cls-12" width="100" height="185" transform="translate(362 398)"/>
    <g id="Group_6080" data-name="Group 6080" transform="translate(362.795 411.668)">
      <path id="Path_3440" data-name="Path 3440" class="cls-13" d="M37.6,39.469V61.3c0,4.6,2.387,6.734,6.649,6.649,1.023-.085,2.983-.085,6.393-.085,4.177,0,5.455,2.728,5.455,7.331v2.046l.116,126.891" transform="translate(11.425 -35.329)"/>
      <path id="Path_3441" data-name="Path 3441" class="cls-13" d="M45.6,32.2v9.376c0,4.6,2.387,6.734,6.649,6.649h6.393c4.177,0,5.455,2.728,5.455,7.331l.092,134.886" transform="translate(-3.394 -21.654)"/>
      <path id="Path_3442" data-name="Path 3442" class="cls-13" d="M24.2,19.92V37.444c0,3.92,2.033,5.735,5.663,5.663.944,0,7.614-.073,10.518-.073,3.557,0,4.646,2.323,4.646,6.244V56.1" transform="translate(37.162 -19.188)"/>
      <path id="Path_3444" data-name="Path 3444" class="cls-13" d="M50.782,21.2H7.651C3.048,21.2.917,23.587,1,27.849c0,1.108.085,3.069.085,6.478" transform="translate(47.938 -22.031)"/>
      <path id="Path_3445" data-name="Path 3445" class="cls-13" d="M109.41,32.927c0-3.41,0-5.285.085-6.478.17-4.262-1.961-6.649-6.649-6.649H69.005" transform="translate(-67.289 -19.824)"/>
      <path id="Path_3448" data-name="Path 3448" class="cls-13" d="M29.1,69.9v86.263c0,4.6,2.387,6.734,6.649,6.649,1.108,0,3.069-.085,6.478-.085,4.177,0,5.455,2.728,5.455,7.331v68.412h0" transform="translate(-13.748 -69.967)"/>
      <path id="Path_3449" data-name="Path 3449" class="cls-13" d="M23.1,113.4v27.959c0,4.6,2.387,6.734,6.649,6.649,1.108,0,3.069-.085,6.478-.085,4.177,0,5.455,2.728,5.455,7.331v58.62" transform="translate(-1.357 -113.393)"/>
      <path id="Path_3450" data-name="Path 3450" class="cls-13" d="M15.9,114.507V224.188c0,4.6,2.387,6.734,6.563,6.649,1.108,0,3.069-.085,6.478-.085,4.177,0,5.455,2.728,5.455,7.331v44.507" transform="translate(12.065 -113.88)"/>
    </g>
    <path id="Path_5632" data-name="Path 5632" class="cls-14" d="M43.772,214.013c-18.744-22.543,11.979-77.161-29.688-110.461S36.833,47.052,33.131-1.512,131.346,61.157,95,143.393c-9.451,21.381,13.08,80.243,7.4,90.751C86.865,262.884,62.516,236.556,43.772,214.013Z" transform="translate(671.039 591.529) rotate(-83)"/>
    <g id="Group_7196" data-name="Group 7196" transform="translate(328.46 479.447)">
      <rect id="Rectangle_3083" data-name="Rectangle 3083" class="cls-15" width="67.683" height="17.923" rx="8.961" transform="translate(0 67.683) rotate(-90)"/>
      <rect id="Rectangle_3084" data-name="Rectangle 3084" class="cls-16" width="32.303" height="8.693" rx="4.347" transform="translate(7.691 50.763) rotate(-90)"/>
    </g>
    <g id="Group_7198" data-name="Group 7198" transform="translate(-30 165.572)">
      <g id="Group_7153" data-name="Group 7153" transform="translate(419.371 439.758)">
        <rect id="Rectangle_1425" data-name="Rectangle 1425" class="cls-17" width="6.608" height="6.871" rx="3.304"/>
        <rect id="Rectangle_1442" data-name="Rectangle 1442" class="cls-18" width="6.608" height="6.871" rx="3.304" transform="translate(9.62)"/>
      </g>
      <g id="Group_7154" data-name="Group 7154" transform="translate(438.377 439.758)">
        <rect id="Rectangle_1425-2" data-name="Rectangle 1425" class="cls-3" width="6.608" height="6.871" rx="3.304"/>
        <rect id="Rectangle_1442-2" data-name="Rectangle 1442" class="cls-2" width="6.608" height="6.871" rx="3.304" transform="translate(9.62)"/>
        <rect id="Rectangle_3070" data-name="Rectangle 3070" class="cls-3" width="6.608" height="6.871" rx="3.304" transform="translate(19)"/>
      </g>
    </g>
    <g id="Group_7200" data-name="Group 7200" transform="translate(324.073 433.498)">
      <g id="Group_7153-2" data-name="Group 7153" transform="translate(0 0)">
        <rect id="Rectangle_1425-3" data-name="Rectangle 1425" class="cls-17" width="6.855" height="7.128" rx="3.427"/>
        <rect id="Rectangle_1442-3" data-name="Rectangle 1442" class="cls-18" width="6.855" height="7.128" rx="3.427" transform="translate(9.979)"/>
      </g>
      <g id="Group_7154-2" data-name="Group 7154" transform="translate(0.006 0)">
        <rect id="Rectangle_1425-4" data-name="Rectangle 1425" class="cls-3" width="6.855" height="7.128" rx="3.427" transform="translate(0 9.336)"/>
        <rect id="Rectangle_1442-4" data-name="Rectangle 1442" class="cls-2" width="6.855" height="7.128" rx="3.427" transform="translate(9.979 9.336)"/>
        <rect id="Rectangle_3070-2" data-name="Rectangle 3070" class="cls-3" width="6.855" height="7.128" rx="3.427" transform="translate(19.71 9.336)"/>
        <rect id="Rectangle_3085" data-name="Rectangle 3085" class="cls-3" width="6.855" height="7.128" rx="3.427" transform="translate(19.71 0)"/>
      </g>
      <g id="Group_7201" data-name="Group 7201" transform="translate(0 18.459)">
        <rect id="Rectangle_1425-5" data-name="Rectangle 1425" class="cls-17" width="6.855" height="7.128" rx="3.427"/>
        <rect id="Rectangle_1442-5" data-name="Rectangle 1442" class="cls-3" width="6.855" height="7.128" rx="3.427" transform="translate(9.979)"/>
      </g>
      <g id="Group_7202" data-name="Group 7202" transform="translate(0.006 18.459)">
        <rect id="Rectangle_1425-6" data-name="Rectangle 1425" class="cls-3" width="6.855" height="7.128" rx="3.427" transform="translate(0 9.336)"/>
        <rect id="Rectangle_1442-6" data-name="Rectangle 1442" class="cls-2" width="6.855" height="7.128" rx="3.427" transform="translate(9.979 9.336)"/>
        <rect id="Rectangle_3070-3" data-name="Rectangle 3070" class="cls-3" width="6.855" height="7.128" rx="3.427" transform="translate(19.71 9.336)"/>
        <rect id="Rectangle_3085-2" data-name="Rectangle 3085" class="cls-3" width="6.855" height="7.128" rx="3.427" transform="translate(19.71 0)"/>
      </g>
    </g>
    <g id="Group_7367" data-name="Group 7367" transform="translate(-8 -4)">
      <g id="Group_7365" data-name="Group 7365" transform="translate(21 -4)">
        <g id="Group_7180" data-name="Group 7180" transform="translate(427.977 368.801)">
          <g id="Group_5583" data-name="Group 5583" transform="translate(0 0)">
            <g id="Group_5582" data-name="Group 5582" transform="translate(0)">
              <g id="Group_5581" data-name="Group 5581">
                <rect id="Rectangle_1565" data-name="Rectangle 1565" class="cls-11" width="252.533" height="19.611" transform="translate(11.851 53.003)"/>
                <path id="Path_3764" data-name="Path 3764" class="cls-19" d="M9.219,0H267.365c5.092,0,9.219,3,9.219,6.7V49.565c0,3.7-4.128,6.7-9.219,6.7H9.219c-5.092,0-9.219-3-9.219-6.7V6.7C0,3,4.128,0,9.219,0Z"/>
                <path id="Rectangle_1631" data-name="Rectangle 1631" class="cls-16" d="M4,0H93.322a0,0,0,0,1,0,0V56.263a0,0,0,0,1,0,0H4a4,4,0,0,1-4-4V4A4,4,0,0,1,4,0Z"/>
              </g>
            </g>
          </g>
        </g>
        <g id="Group_7183" data-name="Group 7183" transform="translate(599.245 388.947)">
          <g id="Group_5584" data-name="Group 5584" transform="translate(0 0)">
            <rect id="Rectangle_1405" data-name="Rectangle 1405" class="cls-20" width="5.857" height="5.857" rx="2.929"/>
            <rect id="Rectangle_1424" data-name="Rectangle 1424" class="cls-17" width="5.857" height="5.857" rx="2.929" transform="translate(7.029 11.715)"/>
            <rect id="Rectangle_1406" data-name="Rectangle 1406" class="cls-20" width="5.857" height="5.857" rx="2.929" transform="translate(11.715)"/>
            <rect id="Rectangle_1423" data-name="Rectangle 1423" class="cls-20" width="5.857" height="5.857" rx="2.929" transform="translate(18.744 11.715)"/>
            <rect id="Rectangle_1407" data-name="Rectangle 1407" class="cls-18" width="5.857" height="5.857" rx="2.929" transform="translate(23.429)"/>
            <rect id="Rectangle_1422" data-name="Rectangle 1422" class="cls-20" width="5.857" height="5.857" rx="2.929" transform="translate(30.458 11.715)"/>
            <rect id="Rectangle_1408" data-name="Rectangle 1408" class="cls-20" width="5.857" height="5.857" rx="2.929" transform="translate(35.144)"/>
            <rect id="Rectangle_1421" data-name="Rectangle 1421" class="cls-17" width="5.857" height="5.857" rx="2.929" transform="translate(42.173 11.715)"/>
            <rect id="Rectangle_1409" data-name="Rectangle 1409" class="cls-20" width="5.857" height="5.857" rx="2.929" transform="translate(46.859)"/>
            <rect id="Rectangle_1420" data-name="Rectangle 1420" class="cls-20" width="5.857" height="5.857" rx="2.929" transform="translate(53.887 11.715)"/>
          </g>
        </g>
        <g id="Ellipse_1402" data-name="Ellipse 1402" class="cls-21" transform="translate(671.549 392.269)">
          <circle class="cls-26" cx="4.982" cy="4.982" r="4.982"/>
          <circle class="cls-27" cx="4.982" cy="4.982" r="3.982"/>
        </g>
        <rect id="Rectangle_3126" data-name="Rectangle 3126" class="cls-20" width="4.428" height="21.034" rx="2.214" transform="translate(586.308 386.734)"/>
        <rect id="Rectangle_3127" data-name="Rectangle 3127" class="cls-20" width="4.428" height="21.034" rx="2.214" transform="translate(577.451 386.734)"/>
        <rect id="Rectangle_3128" data-name="Rectangle 3128" class="cls-16" width="35.425" height="8.856" transform="translate(535.384 386.734)"/>
        <rect id="Rectangle_3129" data-name="Rectangle 3129" class="cls-16" width="35.425" height="8.856" transform="translate(535.384 398.911)"/>
        <path id="Rectangle_3130" data-name="Rectangle 3130" class="cls-18" d="M0,0H4.428a0,0,0,0,1,0,0V14.391a2.214,2.214,0,0,1-2.214,2.214h0A2.214,2.214,0,0,1,0,14.391V0A0,0,0,0,1,0,0Z" transform="translate(586.308 391.162)"/>
        <path id="Rectangle_3131" data-name="Rectangle 3131" class="cls-17" d="M0,0H4.428a0,0,0,0,1,0,0V5.963A2.214,2.214,0,0,1,2.214,8.177h0A2.214,2.214,0,0,1,0,5.963V0A0,0,0,0,1,0,0Z" transform="translate(577.451 399.59)"/>
        <rect id="Rectangle_3132" data-name="Rectangle 3132" class="cls-22" width="8.856" height="8.856" transform="translate(535.384 386.734)"/>
        <rect id="Rectangle_3133" data-name="Rectangle 3133" class="cls-22" width="8.856" height="8.856" transform="translate(535.384 398.911)"/>
        <rect id="Rectangle_3136" data-name="Rectangle 3136" class="cls-3" width="17.712" height="2.214" transform="translate(548.669 390.055)"/>
        <rect id="Rectangle_3137" data-name="Rectangle 3137" class="cls-3" width="17.712" height="2.214" transform="translate(548.669 402.232)"/>
        <g id="Ellipse_1403" data-name="Ellipse 1403" class="cls-23" transform="translate(666.014 386.734)">
          <circle class="cls-26" cx="10.517" cy="10.517" r="10.517"/>
          <circle class="cls-27" cx="10.517" cy="10.517" r="9.517"/>
        </g>
        <g id="Group_7378" data-name="Group 7378" transform="translate(448.143 377.877)">
          <g id="Group_7359" data-name="Group 7359" transform="translate(44.281 5.535)">
            <rect id="Rectangle_3070-4" data-name="Rectangle 3070" class="cls-3" width="7.315" height="7.606" rx="3.658" transform="translate(0 21.399)"/>
            <rect id="Rectangle_3138" data-name="Rectangle 3138" class="cls-2" width="3.321" height="17.712" rx="1.661" transform="translate(2.214)"/>
          </g>
          <g id="Group_7360" data-name="Group 7360" transform="translate(33.211 12.177)">
            <rect id="Rectangle_1442-7" data-name="Rectangle 1442" class="cls-24" width="7.315" height="7.606" rx="3.658" transform="translate(0 14.757)"/>
            <rect id="Rectangle_3139" data-name="Rectangle 3139" class="cls-25" width="3.321" height="11.07" rx="1.661" transform="translate(2.214)"/>
          </g>
          <g id="Group_7361" data-name="Group 7361" transform="translate(22.141)">
            <rect id="Rectangle_1425-7" data-name="Rectangle 1425" class="cls-3" width="7.315" height="7.606" rx="3.658" transform="translate(0 26.934)"/>
            <rect id="Rectangle_3140" data-name="Rectangle 3140" class="cls-2" width="3.321" height="20.248" rx="1.661" transform="translate(2.214 3)"/>
          </g>
          <g id="Group_7362" data-name="Group 7362" transform="translate(11.07 2.214)">
            <rect id="Rectangle_1442-8" data-name="Rectangle 1442" class="cls-18" width="7.315" height="7.606" rx="3.658" transform="translate(0 24.72)"/>
            <rect id="Rectangle_3141" data-name="Rectangle 3141" class="cls-18" width="3.321" height="16.034" rx="1.661" transform="translate(2.214 5)"/>
          </g>
          <g id="Group_7363" data-name="Group 7363" transform="translate(0 14.391)">
            <rect id="Rectangle_1425-8" data-name="Rectangle 1425" class="cls-17" width="7.315" height="7.606" rx="3.658" transform="translate(0 12.543)"/>
            <rect id="Rectangle_3142" data-name="Rectangle 3142" class="cls-17" width="3.321" height="8.856" rx="1.661" transform="translate(2.214)"/>
          </g>
        </g>
      </g>
      <g id="Group_7365-2" data-name="Group 7365" transform="translate(21 63)">
        <g id="Group_7180-2" data-name="Group 7180" transform="translate(427.977 368.801)">
          <g id="Group_5583-2" data-name="Group 5583" transform="translate(0 0)">
            <g id="Group_5582-2" data-name="Group 5582" transform="translate(0)">
              <g id="Group_5581-2" data-name="Group 5581">
                <rect id="Rectangle_1565-2" data-name="Rectangle 1565" class="cls-11" width="252.533" height="19.611" transform="translate(11.851 53.003)"/>
                <path id="Path_3764-2" data-name="Path 3764" class="cls-19" d="M9.219,0H267.365c5.092,0,9.219,3,9.219,6.7V49.565c0,3.7-4.128,6.7-9.219,6.7H9.219c-5.092,0-9.219-3-9.219-6.7V6.7C0,3,4.128,0,9.219,0Z"/>
                <path id="Rectangle_1631-2" data-name="Rectangle 1631" class="cls-16" d="M4,0H93.322a0,0,0,0,1,0,0V56.263a0,0,0,0,1,0,0H4a4,4,0,0,1-4-4V4A4,4,0,0,1,4,0Z"/>
              </g>
            </g>
          </g>
        </g>
        <g id="Group_7183-2" data-name="Group 7183" transform="translate(599.245 388.947)">
          <g id="Group_5584-2" data-name="Group 5584" transform="translate(0 0)">
            <rect id="Rectangle_1405-2" data-name="Rectangle 1405" class="cls-20" width="5.857" height="5.857" rx="2.929"/>
            <rect id="Rectangle_1424-2" data-name="Rectangle 1424" class="cls-17" width="5.857" height="5.857" rx="2.929" transform="translate(7.029 11.715)"/>
            <rect id="Rectangle_1406-2" data-name="Rectangle 1406" class="cls-20" width="5.857" height="5.857" rx="2.929" transform="translate(11.715)"/>
            <rect id="Rectangle_1423-2" data-name="Rectangle 1423" class="cls-20" width="5.857" height="5.857" rx="2.929" transform="translate(18.744 11.715)"/>
            <rect id="Rectangle_1407-2" data-name="Rectangle 1407" class="cls-18" width="5.857" height="5.857" rx="2.929" transform="translate(23.429)"/>
            <rect id="Rectangle_1422-2" data-name="Rectangle 1422" class="cls-20" width="5.857" height="5.857" rx="2.929" transform="translate(30.458 11.715)"/>
            <rect id="Rectangle_1408-2" data-name="Rectangle 1408" class="cls-20" width="5.857" height="5.857" rx="2.929" transform="translate(35.144)"/>
            <rect id="Rectangle_1421-2" data-name="Rectangle 1421" class="cls-17" width="5.857" height="5.857" rx="2.929" transform="translate(42.173 11.715)"/>
            <rect id="Rectangle_1409-2" data-name="Rectangle 1409" class="cls-20" width="5.857" height="5.857" rx="2.929" transform="translate(46.859)"/>
            <rect id="Rectangle_1420-2" data-name="Rectangle 1420" class="cls-20" width="5.857" height="5.857" rx="2.929" transform="translate(53.887 11.715)"/>
          </g>
        </g>
        <g id="Ellipse_1402-2" data-name="Ellipse 1402" class="cls-21" transform="translate(671.549 392.269)">
          <circle class="cls-26" cx="4.982" cy="4.982" r="4.982"/>
          <circle class="cls-27" cx="4.982" cy="4.982" r="3.982"/>
        </g>
        <rect id="Rectangle_3126-2" data-name="Rectangle 3126" class="cls-20" width="4.428" height="21.034" rx="2.214" transform="translate(586.308 386.734)"/>
        <rect id="Rectangle_3127-2" data-name="Rectangle 3127" class="cls-20" width="4.428" height="21.034" rx="2.214" transform="translate(577.451 386.734)"/>
        <rect id="Rectangle_3128-2" data-name="Rectangle 3128" class="cls-16" width="35.425" height="8.856" transform="translate(535.384 386.734)"/>
        <rect id="Rectangle_3129-2" data-name="Rectangle 3129" class="cls-16" width="35.425" height="8.856" transform="translate(535.384 398.911)"/>
        <path id="Rectangle_3130-2" data-name="Rectangle 3130" class="cls-18" d="M0,0H4.428a0,0,0,0,1,0,0V14.391a2.214,2.214,0,0,1-2.214,2.214h0A2.214,2.214,0,0,1,0,14.391V0A0,0,0,0,1,0,0Z" transform="translate(586.308 391.162)"/>
        <path id="Rectangle_3131-2" data-name="Rectangle 3131" class="cls-17" d="M0,0H4.428a0,0,0,0,1,0,0V5.963A2.214,2.214,0,0,1,2.214,8.177h0A2.214,2.214,0,0,1,0,5.963V0A0,0,0,0,1,0,0Z" transform="translate(577.451 399.59)"/>
        <rect id="Rectangle_3132-2" data-name="Rectangle 3132" class="cls-22" width="8.856" height="8.856" transform="translate(535.384 386.734)"/>
        <rect id="Rectangle_3133-2" data-name="Rectangle 3133" class="cls-22" width="8.856" height="8.856" transform="translate(535.384 398.911)"/>
        <rect id="Rectangle_3136-2" data-name="Rectangle 3136" class="cls-3" width="17.712" height="2.214" transform="translate(548.669 390.055)"/>
        <rect id="Rectangle_3137-2" data-name="Rectangle 3137" class="cls-3" width="17.712" height="2.214" transform="translate(548.669 402.232)"/>
        <g id="Ellipse_1403-2" data-name="Ellipse 1403" class="cls-23" transform="translate(666.014 386.734)">
          <circle class="cls-26" cx="10.517" cy="10.517" r="10.517"/>
          <circle class="cls-27" cx="10.517" cy="10.517" r="9.517"/>
        </g>
        <g id="Group_7379" data-name="Group 7379" transform="translate(448.143 378.877)">
          <g id="Group_7359-2" data-name="Group 7359" transform="translate(44.281 5.535)">
            <rect id="Rectangle_3070-5" data-name="Rectangle 3070" class="cls-3" width="7.315" height="7.606" rx="3.658" transform="translate(0 21.399)"/>
            <rect id="Rectangle_3138-2" data-name="Rectangle 3138" class="cls-2" width="3.321" height="17.712" rx="1.661" transform="translate(2.214)"/>
          </g>
          <g id="Group_7360-2" data-name="Group 7360" transform="translate(33.211 12.177)">
            <rect id="Rectangle_1442-9" data-name="Rectangle 1442" class="cls-24" width="7.315" height="7.606" rx="3.658" transform="translate(0 14.757)"/>
            <rect id="Rectangle_3139-2" data-name="Rectangle 3139" class="cls-25" width="3.321" height="11.07" rx="1.661" transform="translate(2.214)"/>
          </g>
          <g id="Group_7361-2" data-name="Group 7361" transform="translate(22.141)">
            <rect id="Rectangle_1425-9" data-name="Rectangle 1425" class="cls-3" width="7.315" height="7.606" rx="3.658" transform="translate(0 26.934)"/>
            <rect id="Rectangle_3140-2" data-name="Rectangle 3140" class="cls-2" width="3.321" height="20.248" rx="1.661" transform="translate(2.214 3)"/>
          </g>
          <g id="Group_7362-2" data-name="Group 7362" transform="translate(11.07 2.214)">
            <rect id="Rectangle_1442-10" data-name="Rectangle 1442" class="cls-18" width="7.315" height="7.606" rx="3.658" transform="translate(0 24.72)"/>
            <rect id="Rectangle_3141-2" data-name="Rectangle 3141" class="cls-18" width="3.321" height="16.034" rx="1.661" transform="translate(2.214 5)"/>
          </g>
          <g id="Group_7363-2" data-name="Group 7363" transform="translate(0 14.391)">
            <rect id="Rectangle_1425-10" data-name="Rectangle 1425" class="cls-17" width="7.315" height="7.606" rx="3.658" transform="translate(0 12.543)"/>
            <rect id="Rectangle_3142-2" data-name="Rectangle 3142" class="cls-17" width="3.321" height="8.856" rx="1.661" transform="translate(2.214)"/>
          </g>
        </g>
      </g>
      <g id="Group_7365-3" data-name="Group 7365" transform="translate(21 130)">
        <g id="Group_7180-3" data-name="Group 7180" transform="translate(427.977 368.801)">
          <g id="Group_5583-3" data-name="Group 5583" transform="translate(0 0)">
            <g id="Group_5582-3" data-name="Group 5582" transform="translate(0)">
              <g id="Group_5581-3" data-name="Group 5581">
                <rect id="Rectangle_1565-3" data-name="Rectangle 1565" class="cls-11" width="252.533" height="19.611" transform="translate(11.851 53.003)"/>
                <path id="Path_3764-3" data-name="Path 3764" class="cls-19" d="M9.219,0H267.365c5.092,0,9.219,3,9.219,6.7V49.565c0,3.7-4.128,6.7-9.219,6.7H9.219c-5.092,0-9.219-3-9.219-6.7V6.7C0,3,4.128,0,9.219,0Z"/>
                <path id="Rectangle_1631-3" data-name="Rectangle 1631" class="cls-16" d="M4,0H93.322a0,0,0,0,1,0,0V56.263a0,0,0,0,1,0,0H4a4,4,0,0,1-4-4V4A4,4,0,0,1,4,0Z"/>
              </g>
            </g>
          </g>
        </g>
        <g id="Group_7183-3" data-name="Group 7183" transform="translate(599.245 388.947)">
          <g id="Group_5584-3" data-name="Group 5584" transform="translate(0 0)">
            <rect id="Rectangle_1405-3" data-name="Rectangle 1405" class="cls-20" width="5.857" height="5.857" rx="2.929"/>
            <rect id="Rectangle_1424-3" data-name="Rectangle 1424" class="cls-17" width="5.857" height="5.857" rx="2.929" transform="translate(7.029 11.715)"/>
            <rect id="Rectangle_1406-3" data-name="Rectangle 1406" class="cls-20" width="5.857" height="5.857" rx="2.929" transform="translate(11.715)"/>
            <rect id="Rectangle_1423-3" data-name="Rectangle 1423" class="cls-20" width="5.857" height="5.857" rx="2.929" transform="translate(18.744 11.715)"/>
            <rect id="Rectangle_1407-3" data-name="Rectangle 1407" class="cls-18" width="5.857" height="5.857" rx="2.929" transform="translate(23.429)"/>
            <rect id="Rectangle_1422-3" data-name="Rectangle 1422" class="cls-20" width="5.857" height="5.857" rx="2.929" transform="translate(30.458 11.715)"/>
            <rect id="Rectangle_1408-3" data-name="Rectangle 1408" class="cls-20" width="5.857" height="5.857" rx="2.929" transform="translate(35.144)"/>
            <rect id="Rectangle_1421-3" data-name="Rectangle 1421" class="cls-17" width="5.857" height="5.857" rx="2.929" transform="translate(42.173 11.715)"/>
            <rect id="Rectangle_1409-3" data-name="Rectangle 1409" class="cls-20" width="5.857" height="5.857" rx="2.929" transform="translate(46.859)"/>
            <rect id="Rectangle_1420-3" data-name="Rectangle 1420" class="cls-20" width="5.857" height="5.857" rx="2.929" transform="translate(53.887 11.715)"/>
          </g>
        </g>
        <g id="Ellipse_1402-3" data-name="Ellipse 1402" class="cls-21" transform="translate(671.549 392.269)">
          <circle class="cls-26" cx="4.982" cy="4.982" r="4.982"/>
          <circle class="cls-27" cx="4.982" cy="4.982" r="3.982"/>
        </g>
        <rect id="Rectangle_3126-3" data-name="Rectangle 3126" class="cls-20" width="4.428" height="21.034" rx="2.214" transform="translate(586.308 386.734)"/>
        <rect id="Rectangle_3127-3" data-name="Rectangle 3127" class="cls-20" width="4.428" height="21.034" rx="2.214" transform="translate(577.451 386.734)"/>
        <rect id="Rectangle_3128-3" data-name="Rectangle 3128" class="cls-16" width="35.425" height="8.856" transform="translate(535.384 386.734)"/>
        <rect id="Rectangle_3129-3" data-name="Rectangle 3129" class="cls-16" width="35.425" height="8.856" transform="translate(535.384 398.911)"/>
        <path id="Rectangle_3130-3" data-name="Rectangle 3130" class="cls-18" d="M0,0H4.428a0,0,0,0,1,0,0V14.391a2.214,2.214,0,0,1-2.214,2.214h0A2.214,2.214,0,0,1,0,14.391V0A0,0,0,0,1,0,0Z" transform="translate(586.308 391.162)"/>
        <path id="Rectangle_3131-3" data-name="Rectangle 3131" class="cls-17" d="M0,0H4.428a0,0,0,0,1,0,0V5.963A2.214,2.214,0,0,1,2.214,8.177h0A2.214,2.214,0,0,1,0,5.963V0A0,0,0,0,1,0,0Z" transform="translate(577.451 399.59)"/>
        <rect id="Rectangle_3132-3" data-name="Rectangle 3132" class="cls-22" width="8.856" height="8.856" transform="translate(535.384 386.734)"/>
        <rect id="Rectangle_3133-3" data-name="Rectangle 3133" class="cls-22" width="8.856" height="8.856" transform="translate(535.384 398.911)"/>
        <rect id="Rectangle_3136-3" data-name="Rectangle 3136" class="cls-3" width="17.712" height="2.214" transform="translate(548.669 390.055)"/>
        <rect id="Rectangle_3137-3" data-name="Rectangle 3137" class="cls-3" width="17.712" height="2.214" transform="translate(548.669 402.232)"/>
        <g id="Ellipse_1403-3" data-name="Ellipse 1403" class="cls-23" transform="translate(666.014 386.734)">
          <circle class="cls-26" cx="10.517" cy="10.517" r="10.517"/>
          <circle class="cls-27" cx="10.517" cy="10.517" r="9.517"/>
        </g>
        <g id="Group_7380" data-name="Group 7380" transform="translate(448.143 378.877)">
          <g id="Group_7359-3" data-name="Group 7359" transform="translate(44.281 5.535)">
            <rect id="Rectangle_3070-6" data-name="Rectangle 3070" class="cls-3" width="7.315" height="7.606" rx="3.658" transform="translate(0 21.399)"/>
            <rect id="Rectangle_3138-3" data-name="Rectangle 3138" class="cls-2" width="3.321" height="17.712" rx="1.661" transform="translate(2.214)"/>
          </g>
          <g id="Group_7360-3" data-name="Group 7360" transform="translate(33.211 12.177)">
            <rect id="Rectangle_1442-11" data-name="Rectangle 1442" class="cls-24" width="7.315" height="7.606" rx="3.658" transform="translate(0 14.757)"/>
            <rect id="Rectangle_3139-3" data-name="Rectangle 3139" class="cls-25" width="3.321" height="11.07" rx="1.661" transform="translate(2.214)"/>
          </g>
          <g id="Group_7361-3" data-name="Group 7361" transform="translate(22.141)">
            <rect id="Rectangle_1425-11" data-name="Rectangle 1425" class="cls-3" width="7.315" height="7.606" rx="3.658" transform="translate(0 26.934)"/>
            <rect id="Rectangle_3140-3" data-name="Rectangle 3140" class="cls-2" width="3.321" height="20.248" rx="1.661" transform="translate(2.214 3)"/>
          </g>
          <g id="Group_7362-3" data-name="Group 7362" transform="translate(11.07 2.214)">
            <rect id="Rectangle_1442-12" data-name="Rectangle 1442" class="cls-18" width="7.315" height="7.606" rx="3.658" transform="translate(0 24.72)"/>
            <rect id="Rectangle_3141-3" data-name="Rectangle 3141" class="cls-18" width="3.321" height="16.034" rx="1.661" transform="translate(2.214 5)"/>
          </g>
          <g id="Group_7363-3" data-name="Group 7363" transform="translate(0 14.391)">
            <rect id="Rectangle_1425-12" data-name="Rectangle 1425" class="cls-17" width="7.315" height="7.606" rx="3.658" transform="translate(0 12.543)"/>
            <rect id="Rectangle_3142-3" data-name="Rectangle 3142" class="cls-17" width="3.321" height="8.856" rx="1.661" transform="translate(2.214)"/>
          </g>
        </g>
      </g>
      <g id="Group_7365-4" data-name="Group 7365" transform="translate(21 197)">
        <g id="Group_7180-4" data-name="Group 7180" transform="translate(427.977 368.801)">
          <g id="Group_5583-4" data-name="Group 5583" transform="translate(0 0)">
            <g id="Group_5582-4" data-name="Group 5582" transform="translate(0)">
              <g id="Group_5581-4" data-name="Group 5581">
                <rect id="Rectangle_1565-4" data-name="Rectangle 1565" class="cls-11" width="252.533" height="19.611" transform="translate(11.851 53.003)"/>
                <path id="Path_3764-4" data-name="Path 3764" class="cls-19" d="M9.219,0H267.365c5.092,0,9.219,3,9.219,6.7V49.565c0,3.7-4.128,6.7-9.219,6.7H9.219c-5.092,0-9.219-3-9.219-6.7V6.7C0,3,4.128,0,9.219,0Z"/>
                <path id="Rectangle_1631-4" data-name="Rectangle 1631" class="cls-16" d="M4,0H93.322a0,0,0,0,1,0,0V56.263a0,0,0,0,1,0,0H4a4,4,0,0,1-4-4V4A4,4,0,0,1,4,0Z"/>
              </g>
            </g>
          </g>
        </g>
        <g id="Group_7183-4" data-name="Group 7183" transform="translate(599.245 388.947)">
          <g id="Group_5584-4" data-name="Group 5584" transform="translate(0 0)">
            <rect id="Rectangle_1405-4" data-name="Rectangle 1405" class="cls-20" width="5.857" height="5.857" rx="2.929"/>
            <rect id="Rectangle_1424-4" data-name="Rectangle 1424" class="cls-17" width="5.857" height="5.857" rx="2.929" transform="translate(7.029 11.715)"/>
            <rect id="Rectangle_1406-4" data-name="Rectangle 1406" class="cls-20" width="5.857" height="5.857" rx="2.929" transform="translate(11.715)"/>
            <rect id="Rectangle_1423-4" data-name="Rectangle 1423" class="cls-20" width="5.857" height="5.857" rx="2.929" transform="translate(18.744 11.715)"/>
            <rect id="Rectangle_1407-4" data-name="Rectangle 1407" class="cls-18" width="5.857" height="5.857" rx="2.929" transform="translate(23.429)"/>
            <rect id="Rectangle_1422-4" data-name="Rectangle 1422" class="cls-20" width="5.857" height="5.857" rx="2.929" transform="translate(30.458 11.715)"/>
            <rect id="Rectangle_1408-4" data-name="Rectangle 1408" class="cls-20" width="5.857" height="5.857" rx="2.929" transform="translate(35.144)"/>
            <rect id="Rectangle_1421-4" data-name="Rectangle 1421" class="cls-17" width="5.857" height="5.857" rx="2.929" transform="translate(42.173 11.715)"/>
            <rect id="Rectangle_1409-4" data-name="Rectangle 1409" class="cls-20" width="5.857" height="5.857" rx="2.929" transform="translate(46.859)"/>
            <rect id="Rectangle_1420-4" data-name="Rectangle 1420" class="cls-20" width="5.857" height="5.857" rx="2.929" transform="translate(53.887 11.715)"/>
          </g>
        </g>
        <g id="Ellipse_1402-4" data-name="Ellipse 1402" class="cls-21" transform="translate(671.549 392.269)">
          <circle class="cls-26" cx="4.982" cy="4.982" r="4.982"/>
          <circle class="cls-27" cx="4.982" cy="4.982" r="3.982"/>
        </g>
        <rect id="Rectangle_3126-4" data-name="Rectangle 3126" class="cls-20" width="4.428" height="21.034" rx="2.214" transform="translate(586.308 386.734)"/>
        <rect id="Rectangle_3127-4" data-name="Rectangle 3127" class="cls-20" width="4.428" height="21.034" rx="2.214" transform="translate(577.451 386.734)"/>
        <rect id="Rectangle_3128-4" data-name="Rectangle 3128" class="cls-16" width="35.425" height="8.856" transform="translate(535.384 386.734)"/>
        <rect id="Rectangle_3129-4" data-name="Rectangle 3129" class="cls-16" width="35.425" height="8.856" transform="translate(535.384 398.911)"/>
        <path id="Rectangle_3130-4" data-name="Rectangle 3130" class="cls-18" d="M0,0H4.428a0,0,0,0,1,0,0V14.391a2.214,2.214,0,0,1-2.214,2.214h0A2.214,2.214,0,0,1,0,14.391V0A0,0,0,0,1,0,0Z" transform="translate(586.308 391.162)"/>
        <path id="Rectangle_3131-4" data-name="Rectangle 3131" class="cls-17" d="M0,0H4.428a0,0,0,0,1,0,0V5.963A2.214,2.214,0,0,1,2.214,8.177h0A2.214,2.214,0,0,1,0,5.963V0A0,0,0,0,1,0,0Z" transform="translate(577.451 399.59)"/>
        <rect id="Rectangle_3132-4" data-name="Rectangle 3132" class="cls-22" width="8.856" height="8.856" transform="translate(535.384 386.734)"/>
        <rect id="Rectangle_3133-4" data-name="Rectangle 3133" class="cls-22" width="8.856" height="8.856" transform="translate(535.384 398.911)"/>
        <rect id="Rectangle_3136-4" data-name="Rectangle 3136" class="cls-3" width="17.712" height="2.214" transform="translate(548.669 390.055)"/>
        <rect id="Rectangle_3137-4" data-name="Rectangle 3137" class="cls-3" width="17.712" height="2.214" transform="translate(548.669 402.232)"/>
        <g id="Ellipse_1403-4" data-name="Ellipse 1403" class="cls-23" transform="translate(666.014 386.734)">
          <circle class="cls-26" cx="10.517" cy="10.517" r="10.517"/>
          <circle class="cls-27" cx="10.517" cy="10.517" r="9.517"/>
        </g>
        <g id="Group_7381" data-name="Group 7381" transform="translate(448.143 378.877)">
          <g id="Group_7359-4" data-name="Group 7359" transform="translate(44.281 5.535)">
            <rect id="Rectangle_3070-7" data-name="Rectangle 3070" class="cls-3" width="7.315" height="7.606" rx="3.658" transform="translate(0 21.399)"/>
            <rect id="Rectangle_3138-4" data-name="Rectangle 3138" class="cls-2" width="3.321" height="17.712" rx="1.661" transform="translate(2.214)"/>
          </g>
          <g id="Group_7360-4" data-name="Group 7360" transform="translate(33.211 12.177)">
            <rect id="Rectangle_1442-13" data-name="Rectangle 1442" class="cls-24" width="7.315" height="7.606" rx="3.658" transform="translate(0 14.757)"/>
            <rect id="Rectangle_3139-4" data-name="Rectangle 3139" class="cls-25" width="3.321" height="11.07" rx="1.661" transform="translate(2.214)"/>
          </g>
          <g id="Group_7361-4" data-name="Group 7361" transform="translate(22.141)">
            <rect id="Rectangle_1425-13" data-name="Rectangle 1425" class="cls-3" width="7.315" height="7.606" rx="3.658" transform="translate(0 26.934)"/>
            <rect id="Rectangle_3140-4" data-name="Rectangle 3140" class="cls-2" width="3.321" height="20.248" rx="1.661" transform="translate(2.214 3)"/>
          </g>
          <g id="Group_7362-4" data-name="Group 7362" transform="translate(11.07 2.214)">
            <rect id="Rectangle_1442-14" data-name="Rectangle 1442" class="cls-18" width="7.315" height="7.606" rx="3.658" transform="translate(0 24.72)"/>
            <rect id="Rectangle_3141-4" data-name="Rectangle 3141" class="cls-18" width="3.321" height="16.034" rx="1.661" transform="translate(2.214 5)"/>
          </g>
          <g id="Group_7363-4" data-name="Group 7363" transform="translate(0 14.391)">
            <rect id="Rectangle_1425-14" data-name="Rectangle 1425" class="cls-17" width="7.315" height="7.606" rx="3.658" transform="translate(0 12.543)"/>
            <rect id="Rectangle_3142-4" data-name="Rectangle 3142" class="cls-17" width="3.321" height="8.856" rx="1.661" transform="translate(2.214)"/>
          </g>
        </g>
      </g>
      <g id="Group_7365-5" data-name="Group 7365" transform="translate(21 264)">
        <g id="Group_7180-5" data-name="Group 7180" transform="translate(427.977 368.801)">
          <g id="Group_5583-5" data-name="Group 5583" transform="translate(0 0)">
            <g id="Group_5582-5" data-name="Group 5582" transform="translate(0)">
              <g id="Group_5581-5" data-name="Group 5581">
                <path id="Path_3764-5" data-name="Path 3764" class="cls-19" d="M9.219,0H267.365c5.092,0,9.219,3,9.219,6.7V49.565c0,3.7-4.128,6.7-9.219,6.7H9.219c-5.092,0-9.219-3-9.219-6.7V6.7C0,3,4.128,0,9.219,0Z"/>
                <path id="Rectangle_1631-5" data-name="Rectangle 1631" class="cls-16" d="M4,0H93.322a0,0,0,0,1,0,0V56.263a0,0,0,0,1,0,0H4a4,4,0,0,1-4-4V4A4,4,0,0,1,4,0Z"/>
              </g>
            </g>
          </g>
        </g>
        <g id="Group_7183-5" data-name="Group 7183" transform="translate(599.245 388.947)">
          <g id="Group_5584-5" data-name="Group 5584" transform="translate(0 0)">
            <rect id="Rectangle_1405-5" data-name="Rectangle 1405" class="cls-20" width="5.857" height="5.857" rx="2.929"/>
            <rect id="Rectangle_1424-5" data-name="Rectangle 1424" class="cls-17" width="5.857" height="5.857" rx="2.929" transform="translate(7.029 11.715)"/>
            <rect id="Rectangle_1406-5" data-name="Rectangle 1406" class="cls-20" width="5.857" height="5.857" rx="2.929" transform="translate(11.715)"/>
            <rect id="Rectangle_1423-5" data-name="Rectangle 1423" class="cls-20" width="5.857" height="5.857" rx="2.929" transform="translate(18.744 11.715)"/>
            <rect id="Rectangle_1407-5" data-name="Rectangle 1407" class="cls-18" width="5.857" height="5.857" rx="2.929" transform="translate(23.429)"/>
            <rect id="Rectangle_1422-5" data-name="Rectangle 1422" class="cls-20" width="5.857" height="5.857" rx="2.929" transform="translate(30.458 11.715)"/>
            <rect id="Rectangle_1408-5" data-name="Rectangle 1408" class="cls-20" width="5.857" height="5.857" rx="2.929" transform="translate(35.144)"/>
            <rect id="Rectangle_1421-5" data-name="Rectangle 1421" class="cls-17" width="5.857" height="5.857" rx="2.929" transform="translate(42.173 11.715)"/>
            <rect id="Rectangle_1409-5" data-name="Rectangle 1409" class="cls-20" width="5.857" height="5.857" rx="2.929" transform="translate(46.859)"/>
            <rect id="Rectangle_1420-5" data-name="Rectangle 1420" class="cls-20" width="5.857" height="5.857" rx="2.929" transform="translate(53.887 11.715)"/>
          </g>
        </g>
        <g id="Ellipse_1402-5" data-name="Ellipse 1402" class="cls-21" transform="translate(671.549 392.269)">
          <circle class="cls-26" cx="4.982" cy="4.982" r="4.982"/>
          <circle class="cls-27" cx="4.982" cy="4.982" r="3.982"/>
        </g>
        <rect id="Rectangle_3126-5" data-name="Rectangle 3126" class="cls-20" width="4.428" height="21.034" rx="2.214" transform="translate(586.308 386.734)"/>
        <rect id="Rectangle_3127-5" data-name="Rectangle 3127" class="cls-20" width="4.428" height="21.034" rx="2.214" transform="translate(577.451 386.734)"/>
        <rect id="Rectangle_3128-5" data-name="Rectangle 3128" class="cls-16" width="35.425" height="8.856" transform="translate(535.384 386.734)"/>
        <rect id="Rectangle_3129-5" data-name="Rectangle 3129" class="cls-16" width="35.425" height="8.856" transform="translate(535.384 398.911)"/>
        <path id="Rectangle_3130-5" data-name="Rectangle 3130" class="cls-18" d="M0,0H4.428a0,0,0,0,1,0,0V14.391a2.214,2.214,0,0,1-2.214,2.214h0A2.214,2.214,0,0,1,0,14.391V0A0,0,0,0,1,0,0Z" transform="translate(586.308 391.162)"/>
        <path id="Rectangle_3131-5" data-name="Rectangle 3131" class="cls-17" d="M0,0H4.428a0,0,0,0,1,0,0V5.963A2.214,2.214,0,0,1,2.214,8.177h0A2.214,2.214,0,0,1,0,5.963V0A0,0,0,0,1,0,0Z" transform="translate(577.451 399.59)"/>
        <rect id="Rectangle_3132-5" data-name="Rectangle 3132" class="cls-22" width="8.856" height="8.856" transform="translate(535.384 386.734)"/>
        <rect id="Rectangle_3133-5" data-name="Rectangle 3133" class="cls-22" width="8.856" height="8.856" transform="translate(535.384 398.911)"/>
        <rect id="Rectangle_3136-5" data-name="Rectangle 3136" class="cls-3" width="17.712" height="2.214" transform="translate(548.669 390.055)"/>
        <rect id="Rectangle_3137-5" data-name="Rectangle 3137" class="cls-3" width="17.712" height="2.214" transform="translate(548.669 402.232)"/>
        <g id="Ellipse_1403-5" data-name="Ellipse 1403" class="cls-23" transform="translate(666.014 386.734)">
          <circle class="cls-26" cx="10.517" cy="10.517" r="10.517"/>
          <circle class="cls-27" cx="10.517" cy="10.517" r="9.517"/>
        </g>
        <g id="Group_7382" data-name="Group 7382" transform="translate(448.143 377.877)">
          <g id="Group_7359-5" data-name="Group 7359" transform="translate(44.281 5.535)">
            <rect id="Rectangle_3070-8" data-name="Rectangle 3070" class="cls-3" width="7.315" height="7.606" rx="3.658" transform="translate(0 21.399)"/>
            <rect id="Rectangle_3138-5" data-name="Rectangle 3138" class="cls-2" width="3.321" height="17.712" rx="1.661" transform="translate(2.214)"/>
          </g>
          <g id="Group_7360-5" data-name="Group 7360" transform="translate(33.211 12.177)">
            <rect id="Rectangle_1442-15" data-name="Rectangle 1442" class="cls-24" width="7.315" height="7.606" rx="3.658" transform="translate(0 14.757)"/>
            <rect id="Rectangle_3139-5" data-name="Rectangle 3139" class="cls-25" width="3.321" height="11.07" rx="1.661" transform="translate(2.214)"/>
          </g>
          <g id="Group_7361-5" data-name="Group 7361" transform="translate(22.141)">
            <rect id="Rectangle_1425-15" data-name="Rectangle 1425" class="cls-3" width="7.315" height="7.606" rx="3.658" transform="translate(0 26.934)"/>
            <rect id="Rectangle_3140-5" data-name="Rectangle 3140" class="cls-2" width="3.321" height="20.248" rx="1.661" transform="translate(2.214 3)"/>
          </g>
          <g id="Group_7362-5" data-name="Group 7362" transform="translate(11.07 2.214)">
            <rect id="Rectangle_1442-16" data-name="Rectangle 1442" class="cls-18" width="7.315" height="7.606" rx="3.658" transform="translate(0 24.72)"/>
            <rect id="Rectangle_3141-5" data-name="Rectangle 3141" class="cls-18" width="3.321" height="16.034" rx="1.661" transform="translate(2.214 5)"/>
          </g>
          <g id="Group_7363-5" data-name="Group 7363" transform="translate(0 14.391)">
            <rect id="Rectangle_1425-16" data-name="Rectangle 1425" class="cls-17" width="7.315" height="7.606" rx="3.658" transform="translate(0 12.543)"/>
            <rect id="Rectangle_3142-5" data-name="Rectangle 3142" class="cls-17" width="3.321" height="8.856" rx="1.661" transform="translate(2.214)"/>
          </g>
        </g>
      </g>
    </g>
  </g>
</svg>
