<svg xmlns="http://www.w3.org/2000/svg" xmlns:xlink="http://www.w3.org/1999/xlink" viewBox="-7008.553 -16370.948 437.557 434.088">
  <defs>
    <style>
      .cls-1 {
        fill: url(#linear-gradient);
      }

      .cls-2 {
        fill: #137fcf;
      }

      .cls-3 {
        opacity: 0.373;
        fill: url(#linear-gradient-2);
      }

      .cls-4 {
        fill: #005b9f;
      }

      .cls-5 {
        fill: #ffbc98;
      }

      .cls-6 {
        fill: url(#linear-gradient-3);
      }

      .cls-7 {
        fill: none;
        stroke: #fff;
        stroke-miterlimit: 10;
        stroke-width: 3px;
      }

      .cls-8 {
        fill: #152735;
      }

      .cls-9 {
        fill: #1f364c;
      }

      .cls-10 {
        fill: #30a3d1;
      }

      .cls-11 {
        fill: #edd7c0;
      }

      .cls-12 {
        fill: #ffe7cb;
      }

      .cls-13 {
        fill: #288ed9;
      }

      .cls-14 {
        fill: #98cdf2;
      }

      .cls-15 {
        fill: #0e71bb;
      }

      .cls-16 {
        fill: url(#linear-gradient-4);
      }
    </style>
    <linearGradient id="linear-gradient" x1="0.569" y1="0.896" x2="0.529" y2="-0.097" gradientUnits="objectBoundingBox">
      <stop offset="0" stop-color="#c6e6ff"/>
      <stop offset="1" stop-color="#d6eeff" stop-opacity="0"/>
    </linearGradient>
    <linearGradient id="linear-gradient-2" x1="0.525" y1="1.212" x2="0.524" y2="0.189" gradientUnits="objectBoundingBox">
      <stop offset="0" stop-color="#288ed9"/>
      <stop offset="1" stop-color="#005b9f"/>
    </linearGradient>
    <linearGradient id="linear-gradient-3" x1="0.488" y1="0.87" x2="-1.02" y2="-3.435" gradientUnits="objectBoundingBox">
      <stop offset="0" stop-color="#1d8ab6"/>
      <stop offset="0.253" stop-color="#21e2e2"/>
      <stop offset="1" stop-color="#21e2e2"/>
    </linearGradient>
    <linearGradient id="linear-gradient-4" x1="0.957" y1="1.022" x2="0.011" y2="0.053" gradientUnits="objectBoundingBox">
      <stop offset="0" stop-color="#52acea"/>
      <stop offset="1" stop-color="#21e2e2"/>
    </linearGradient>
  </defs>
  <g id="Group_6388" data-name="Group 6388" transform="translate(-7187 -17867)">
    <g id="Group_6379" data-name="Group 6379" transform="translate(178.447 1580.482)">
      <path id="Path_5808" data-name="Path 5808" class="cls-1" d="M50.846,338.84S1.034,287.916-18.238,242.382,14.439,140.321,14.439,140.321h0C53.3,71.114,7,73.161,95.048,41.061s218.244-3.138,222.369-2.242c53.709,11.925,84.375,53.71,67.159,91.01s39.542,61.241,6.008,122.393-20.892,90.293-79.891,86.617-65.043,10.343-109.785,3.618C156.164,335.823,68.061,354.531,50.846,338.84Z" transform="translate(22.526 -25.973)"/>
      <path id="Path_5809" data-name="Path 5809" class="cls-2" d="M37.786,36.817c1.385-.289,225.991-51.449,318.3-32.68,37.724,5.766,45.551,8.431,62.789,22.2s19.805,70.045-48.709,77.846-71.277-.475-127.907-5.926-74.392,2.709-105.391,8.051S47.293,111.387,25.2,96.513-23.52,50.028,37.786,36.817Z" transform="translate(8.984 217.868) rotate(3)"/>
    </g>
    <ellipse id="Ellipse_1092" data-name="Ellipse 1092" class="cls-3" cx="147.158" cy="27.039" rx="147.158" ry="27.039" transform="translate(253.372 1836.76)"/>
    <g id="Group_6313" data-name="Group 6313" transform="translate(322.707 1755.116)">
      <path id="Path_5708" data-name="Path 5708" class="cls-4" d="M95.945,224.681l24.968-23.356,44.223,21.445-23.275-45.439L120.279,197.4,95.945,185.718l-24.122,12.1L49.394,176.8l-2.116,2.336,21.583,20.171L27.6,220.009l1.375,2.866,42.319-21.233Zm21.9-24.737-21.9,20.384L74.363,200.05l21.583-10.723Zm23.17-17.3,16.928,33.124-34.49-16.668Z" transform="translate(-27.6 -176.8)"/>
    </g>
    <path id="Path_5701" data-name="Path 5701" class="cls-5" d="M104.207,159.085l-8.252,117.1a1.379,1.379,0,0,1-2.751,0L84,155.9Z" transform="translate(296.367 1577.027)"/>
    <path id="Path_5703" data-name="Path 5703" class="cls-5" d="M22.495,153.8,72.643,273.13a1.067,1.067,0,0,1-1.9.956L4.509,157.091Z" transform="translate(411.935 1576.898)"/>
    <path id="Path_5702" data-name="Path 5702" class="cls-5" d="M118.546,277.572l67.393-123.364L166.9,148.9,116.112,276.4A1.351,1.351,0,0,0,118.546,277.572Z" transform="translate(180.78 1576.596)"/>
    <path id="Path_5698" data-name="Path 5698" class="cls-6" d="M145.908,64.656c-23.988.51-25.021-10.812-47.789-27.539C74.232,19.268,48.212-4.5,31.034,1.418,15.279,6.008.236,25.9.541,50.377.033,58.026,4.2,64.962,15.787,64.656c7.928,41.513,24.8,73.744,58.953,87.717,43.2,17.85,123.5,8.67,123.5,8.67s-2.726-5.486-2.319-30.475C192.97,86.914,183.617,62.106,145.908,64.656Z" transform="translate(258.792 1575.105)"/>
    <path id="Path_5704" data-name="Path 5704" class="cls-7" d="M94,221.9" transform="translate(295.995 1594.096)"/>
    <path id="Path_5705" data-name="Path 5705" class="cls-7" d="M135,179.9" transform="translate(211.617 1591.507)"/>
    <path id="Path_5706" data-name="Path 5706" class="cls-7" d="M94,221.9" transform="translate(295.995 1594.096)"/>
    <path id="Path_5707" data-name="Path 5707" class="cls-7" d="M54,183.9" transform="translate(378.314 1591.754)"/>
    <path id="Path_5816" data-name="Path 5816" class="cls-8" d="M234.791,258.549s28.346,2.1,28.495,31.173,9.452,121.292,9.452,121.292l-24.514,1.336L222.115,290.727l-22.092-2.008s-31.969-10.5-51.048-17.025-25.269-9.083-25.269-9.083c0-1-33.638-7.873-6.025-17.071S234.791,258.549,234.791,258.549Z" transform="translate(234.361 1440.728)"/>
    <path id="Path_5817" data-name="Path 5817" class="cls-9" d="M66.5,253.533V245.5s41.422-.251,73.3,4.017,43.521,7.375,43.521,7.375,39.3,1.5,32.559,37.514S209.6,407.978,209.6,407.978h-29.45l-5.642-110.148s-35.826-.011-65.788-3.424C84.86,291.689,63.8,284.644,66.5,253.533Z" transform="translate(256.561 1440.766)"/>
    <g id="Group_6384" data-name="Group 6384" transform="translate(471.658 1842.366)">
      <path id="Path_4212" data-name="Path 4212" class="cls-10" d="M214.922,405a6.624,6.624,0,0,1,5.925,3.615c3.515,6.628,12.05,20.385,23.5,21.59,15.163,1.707,11.749,1.707,13.456,13.456s-72.3-11.749-72.3-11.749S187.207,405,198.956,405Z" transform="translate(-183.96 -405)"/>
      <path id="Path_4213" data-name="Path 4213" class="cls-9" d="M256.4,450.384l-70.794-13.556a2.01,2.01,0,0,1-1.607-2.31l.5-2.711a2.01,2.01,0,0,1,2.31-1.607l70.794,13.556a2.01,2.01,0,0,1,1.607,2.31l-.5,2.711A1.96,1.96,0,0,1,256.4,450.384Z" transform="translate(-183.966 -404.895)"/>
      <g id="Group_5134" data-name="Group 5134" transform="translate(13.71 15.063)">
        <path id="Path_4214" data-name="Path 4214" class="cls-4" d="M233.449,433.757c-5.824,1.406-14.058,1.808-18.376-5.724-2.41-3.716-5.222-5.925-8.335-6.326a11.192,11.192,0,0,0-7.732,2.209.82.82,0,0,1-1.2-.1.8.8,0,0,1,.1-1.1c.2-.1,4.117-3.314,9.038-2.611,3.615.5,6.828,2.912,9.54,7.029,6.226,11.046,21.791,3.213,22.493,2.912a.808.808,0,0,1,1.1.3.844.844,0,0,1-.4,1.1A27.079,27.079,0,0,1,233.449,433.757Z" transform="translate(-197.619 -420)"/>
      </g>
      <path id="Path_4215" data-name="Path 4215" class="cls-4" d="M195.521,428.542h0a5.035,5.035,0,0,1-5.021-5.021h0a5.035,5.035,0,0,1,5.021-5.021h0a5.035,5.035,0,0,1,5.021,5.021h0A4.971,4.971,0,0,1,195.521,428.542Z" transform="translate(-183.939 -404.943)"/>
    </g>
    <g id="Group_6385" data-name="Group 6385" transform="translate(430.94 1842.572)">
      <path id="Path_4218" data-name="Path 4218" class="cls-10" d="M165.521,403.2a7.134,7.134,0,0,1,6.527,3.314c4.218,6.728,14.259,20.485,26.309,20.987,16.067.6,12.552.9,15.163,13.155,2.711,12.251-77.02-6.929-77.02-6.929s-.3-28.418,12.15-29.322Z" transform="translate(-135.086 -403.18)"/>
      <path id="Path_4219" data-name="Path 4219" class="cls-9" d="M212.723,447.767l-75.815-8.937a2.026,2.026,0,0,1-1.808-2.209l.4-3.113a2.026,2.026,0,0,1,2.209-1.808l75.815,8.937a2.026,2.026,0,0,1,1.808,2.209l-.4,3.113A1.9,1.9,0,0,1,212.723,447.767Z" transform="translate(-135.092 -403.061)"/>
      <g id="Group_5136" data-name="Group 5136" transform="translate(13.941 16.471)">
        <path id="Path_4220" data-name="Path 4220" class="cls-4" d="M187.259,431.951c-6.025,2.008-14.661,3.013-19.682-4.619-2.812-3.715-5.925-5.824-9.238-6.025a11.641,11.641,0,0,0-7.933,2.912.852.852,0,0,1-1.2-1.2,13.5,13.5,0,0,1,9.339-3.414c3.916.2,7.431,2.51,10.544,6.728,7.33,11.146,23.2,1.707,23.9,1.305a.908.908,0,0,1,1.205.2.958.958,0,0,1-.3,1.205A37.244,37.244,0,0,1,187.259,431.951Z" transform="translate(-148.975 -419.582)"/>
      </g>
      <path id="Path_4221" data-name="Path 4221" class="cls-4" d="M147.225,429.345h-.6a5.069,5.069,0,0,1-5.423-4.72v-.6a5.069,5.069,0,0,1,4.72-5.423h.6a5.069,5.069,0,0,1,5.423,4.72v.6A5.069,5.069,0,0,1,147.225,429.345Z" transform="translate(-135.066 -403.115)"/>
    </g>
    <path id="Union_44" data-name="Union 44" class="cls-11" d="M14156.71,20420.732l-2.188-10.367c-5.907,3.877-12.519,2.873-17.779-1.238a15.912,15.912,0,0,1-2.117-.643c-9.256-3.48-46.434-23.939-46.434-23.939s-1.477-7.766-7.211-18.246-13.08-31.074-13.08-31.074l2.024-23.1,6.135-3.617,14.73,15.012,5.821,51.18c4.194,3.277,22.923,11.682,35.95,18.357,14.424-.443,26.557,7.609,26.588,14.74l-.61,12.992a.745.745,0,0,1-.82.662A1,1,0,0,1,14156.71,20420.732Z" transform="translate(-13727.071 -18720.793)"/>
    <path id="Path_4646" data-name="Path 4646" class="cls-12" d="M72.954,83.638l4.009,18.04c-28.882,1.64-62.593,0-75.44-12.391C-1.029,51.2-1.12,21.956,7.171,6.284c4.738-8.929,17.949-8.2,21.5,1.276a44.544,44.544,0,0,1,2.1,8.018,3.011,3.011,0,0,1,0,1.276c-.638,5.649-1.843,38.083-1.843,44.1C28.835,67.418,72.954,83.638,72.954,83.638Z" transform="translate(277.488 1606.218) rotate(-14)"/>
    <g id="Group_6380" data-name="Group 6380" transform="matrix(0.996, -0.087, 0.087, 0.996, 278.842, 1568.136)">
      <path id="Path_5813" data-name="Path 5813" class="cls-13" d="M33.663,1.793C20.124,8.85,6.723,11.96,4.876,28.23L.031,56.946a4.824,4.824,0,0,0,1.95,4.373C7.932,65.793,18.19,67,25.989,67c3.416,28.406,9.435,49.489,15.079,67.691.41,1.322-19.385-1.884-18.051-1.579,24.627,4.474,50.074,2.847,71.212-6.813,1.334-.61-7.828-.691-7.52-2.115C88.755,107.994,95.9,83.514,89.847,52.4,83.383,29.518,80.23,11.172,59.033,0A30.978,30.978,0,0,0,33.663,1.793Z" transform="translate(0 0)"/>
      <path id="Path_5815" data-name="Path 5815" class="cls-4" d="M3.981,101.587c42.79,9.684,9.091-28.522,8.886-28.522.1-.1-3.827-35.049-3.827-35.049S15.165,10.169,8.5,0c5.541,5.8,15.54,22.346,9.055,43.749,17.693,43.812,23.73,48.448-3.412,61.5-2.463-.305-4.925-.712-7.388-1.119A3.673,3.673,0,0,1,3.981,101.587Z" transform="translate(16.265 28.981)"/>
    </g>
    <g id="Group_6387" data-name="Group 6387" transform="translate(341.918 1643.089) rotate(-11)">
      <path id="Path_5091" data-name="Path 5091" class="cls-9" d="M32.625.148,34.291,0l27.4,2.42L3.141,79.814,0,76.02Z" transform="translate(94.537 0)"/>
      <path id="Path_5092" data-name="Path 5092" class="cls-10" d="M71.41,2.933,47.341,0,0,55.921,14.976,76.061Z" transform="translate(79.491 0.13)"/>
      <path id="Path_5093" data-name="Path 5093" class="cls-2" d="M-.424,11.625,94.119,31.408,79.007,11.688,11.187,0Z" transform="translate(0.485 44.36)"/>
      <path id="Path_5094" data-name="Path 5094" class="cls-4" d="M69.867,22.914C62.588,10.031,62.492,9.959,62.492,9.959L5.9,0,0,8.617Z" transform="translate(13.853 47.743)"/>
      <path id="Path_5095" data-name="Path 5095" class="cls-14" d="M97.773,23.961,0,3.307V0L94.547,19.705Z" transform="translate(0 55.94)"/>
    </g>
    <path id="Union_43" data-name="Union 43" class="cls-12" d="M14133.82,20335.848l-6.074-11.525c-6.72,9.2-17.909,8.5-26.751,1.055-14.322,5.768-39,8.832-39,8.832l6.059-23.1,7.84,1.275s14.911-2.6,25.29-1.465c14.355-4.127,28.283.7,30.669,8.559l3.976,15.736a1,1,0,0,1-1.067,1.174A1.053,1.053,0,0,1,14133.82,20335.848Z" transform="translate(-13733.089 -18640.494)"/>
    <g id="Group_6383" data-name="Group 6383" transform="translate(316.876 1496.051) rotate(2)">
      <g id="Group_6382" data-name="Group 6382" transform="translate(2.921 8.376)">
        <path id="Path_4638" data-name="Path 4638" class="cls-12" d="M47.651,12.756c1.913-.182.456,16.765.273,17.4-.273,1,2.824,6.013,2.369,8.018-.273,1.549-5.649.456-5.649.456,1,12.938-4.282,17.311-16.856,11.389L25.6,59.769C34.44,69.7,24.327,80.725,6.924,67.6L0,60.134,2,36.171,9.02,10.022,26.969,0,43,5.193Z" transform="translate(0 0)"/>
      </g>
      <path id="Path_4639" data-name="Path 4639" class="cls-11" d="M15.779,13.625C9.765,11.438,4.4,7.289,2.121,0c-5.558,7.562.118,14.632,11.872,21.465Z" transform="translate(14.921 44.821)"/>
      <path id="Path_4641" data-name="Path 4641" class="cls-15" d="M29.617,15.574C59.593,30.7,66.7,11.383,53.033,2.272,46.655-1.373,33.9,1.361,24.7.541,11.03-2.284,3.833,6.1,1.1,22.317c-6.1,28.7,15.124,27.789,16.947,16.309-11.662-9.658,4.1-20.5,3.1-7.471C28.706,36.074,30.528,28.694,29.617,15.574Z" transform="translate(0 0)"/>
    </g>
    <path id="Path_5699" data-name="Path 5699" class="cls-16" d="M104.315,61.9c22.361,0,29.375,14.892,29.476,33.659-1.016,13.26,4.269,23.867,14.23,35.7,12.2,13.872,22.971,23.663,34.762,27.131,1.423.408,10.876,2.142,22.057,3.672-26.732.51-61.9-1.02-85.787-10.914C84.9,137.174,68.13,105.045,60.1,63.634Z" transform="translate(214.479 1576.332)"/>
  </g>
</svg>
