<?xml version="1.0" encoding="utf-8"?>
<!-- Generator: Adobe Illustrator 21.0.0, SVG Export Plug-In . SVG Version: 6.00 Build 0)  -->
<svg version="1.1" id="Layer_1" xmlns="http://www.w3.org/2000/svg" xmlns:xlink="http://www.w3.org/1999/xlink" x="0px" y="0px"
	 viewBox="0 0 299.995 299.072" enable-background="new 0 0 299.995 299.072" xml:space="preserve">
<ellipse id="Ellipse_1411" fill="#288ED9" cx="149.536" cy="149.536" rx="149.536" ry="149.536"/>
<path id="Path_6111" fill="none" d="M157.906,97.198l-16.01,32.833H37.384v118.41c54.66,61.927,149.172,67.818,211.099,13.158
	c47.782-42.175,63.588-109.998,39.373-168.952H165.139C162.053,92.645,159.24,94.415,157.906,97.198z"/>
<g transform="matrix(1, 0, 0, 1, -10572, 17870)">
	<path id="Path_6112-2" fill="#005B9F" d="M10609.38-17621.555c54.633,61.936,149.131,67.857,211.067,13.223
		c51.553-45.473,65.463-120.234,33.716-181.207h-244.783V-17621.555z"/>
</g>
<path id="Path_6113" fill="#288ED9" stroke="#0D7BCC" stroke-width="0.5" stroke-miterlimit="10" d="M165.221,92.647
	c-3.101,0.017-5.929,1.777-7.314,4.551l-16.01,32.833H37.384v56.076H294.52c3.007-11.958,4.535-24.24,4.551-36.571
	c0.027-19.515-3.784-38.844-11.215-56.889C287.856,92.647,165.221,92.647,165.221,92.647z"/>
<path id="Path_6114" fill="#FFBC98" d="M65.422,113.371L65.422,113.371c-4.483-0.013-8.114-3.644-8.127-8.127l0,0
	c0.013-4.483,3.644-8.114,8.127-8.127l0,0c4.483,0.013,8.114,3.644,8.127,8.127l0,0C73.536,109.727,69.905,113.358,65.422,113.371z"
	/>
<path id="Path_6115" fill="#288ED9" d="M93.054,113.371L93.054,113.371c-4.483-0.013-8.114-3.644-8.127-8.127l0,0
	c0.013-4.483,3.644-8.114,8.127-8.127l0,0c4.483,0.013,8.114,3.644,8.127,8.127l0,0C101.168,109.727,97.537,113.358,93.054,113.371z
	"/>
<path id="Path_6116" fill="#21E2E2" d="M120.685,113.371L120.685,113.371c-4.483-0.013-8.114-3.644-8.127-8.127l0,0
	c0.013-4.483,3.644-8.114,8.127-8.127l0,0c4.483,0.013,8.114,3.644,8.127,8.127l0,0
	C128.799,109.727,125.168,113.358,120.685,113.371z"/>
<g id="Group_7438" transform="translate(1051.466 1122.673) rotate(90)">
	
		<line id="Line_4" fill="none" stroke="#FFFFFF" stroke-width="2" stroke-linecap="round" stroke-miterlimit="10" x1="-955.926" y1="989.839" x2="-961.963" y2="995.824"/>
	
		<line id="Line_5" fill="none" stroke="#FFFFFF" stroke-width="2" stroke-linecap="round" stroke-miterlimit="10" x1="-961.963" y1="995.824" x2="-968" y2="989.839"/>
	
		<line id="Line_10" fill="none" stroke="#FFFFFF" stroke-width="2" stroke-linecap="round" stroke-miterlimit="10" x1="-962.005" y1="994.987" x2="-962.178" y2="978"/>
</g>
<g id="Group_7439" transform="translate(1071.251 1106.158)">
	<g id="Path_6119">
		<path fill="#FFFFFF" d="M-978-927.365h203.9c1.899-9.636,2.852-19.435,2.844-29.257c0-3.82-0.163-7.639-0.406-11.378H-978
			V-927.365z"/>
	</g>
	<g id="Path_6120">
		<path fill="#DDFFB6" d="M-906.516-963.124h-65.046c-0.92,0-1.643,1.788-1.643,4.063v22.755c0,2.276,0.723,4.063,1.643,4.063
			h65.046c0.92,0,1.643-1.788,1.643-4.063v-22.755C-904.874-961.336-905.597-963.124-906.516-963.124z"/>
	</g>
	<g enable-background="new    ">
		<path fill="#24B77E" d="M-936.597-943.279h-1.121v-4.033c0-1.458-0.542-2.188-1.627-2.188c-0.547,0-1.007,0.211-1.381,0.633
			c-0.374,0.421-0.561,0.962-0.561,1.623v3.965h-1.121v-10.363h1.121v4.525h0.027c0.538-0.884,1.303-1.326,2.297-1.326
			c1.577,0,2.365,0.95,2.365,2.851L-936.597-943.279L-936.597-943.279z"/>
		<path fill="#24B77E" d="M-931.237-943.347c-0.264,0.146-0.613,0.219-1.046,0.219c-1.226,0-1.839-0.684-1.839-2.051v-4.143h-1.203
			v-0.957h1.203v-1.709l1.121-0.362v2.071h1.764v0.957h-1.764v3.944c0,0.47,0.08,0.805,0.239,1.005s0.424,0.301,0.793,0.301
			c0.283,0,0.526-0.077,0.731-0.232L-931.237-943.347L-931.237-943.347z"/>
		<path fill="#24B77E" d="M-926.493-943.347c-0.264,0.146-0.613,0.219-1.046,0.219c-1.226,0-1.839-0.684-1.839-2.051v-4.143h-1.203
			v-0.957h1.203v-1.709l1.121-0.362v2.071h1.764v0.957h-1.764v3.944c0,0.47,0.08,0.805,0.239,1.005s0.424,0.301,0.793,0.301
			c0.283,0,0.526-0.077,0.731-0.232L-926.493-943.347L-926.493-943.347z"/>
		<path fill="#24B77E" d="M-923.848-944.291h-0.027v4.231h-1.121v-10.22h1.121v1.23h0.027c0.551-0.93,1.358-1.395,2.42-1.395
			c0.902,0,1.606,0.313,2.112,0.939c0.506,0.627,0.759,1.467,0.759,2.52c0,1.171-0.285,2.109-0.854,2.813
			c-0.57,0.705-1.349,1.057-2.338,1.057C-922.656-943.115-923.355-943.507-923.848-944.291z M-923.875-947.114v0.978
			c0,0.579,0.188,1.07,0.564,1.473c0.376,0.404,0.854,0.605,1.432,0.605c0.679,0,1.211-0.26,1.596-0.779s0.578-1.242,0.578-2.167
			c0-0.779-0.18-1.39-0.54-1.832s-0.848-0.663-1.463-0.663c-0.652,0-1.176,0.227-1.572,0.68
			C-923.677-948.366-923.875-947.798-923.875-947.114z"/>
		<path fill="#24B77E" d="M-917.189-943.532v-1.203c0.611,0.451,1.282,0.677,2.017,0.677c0.984,0,1.477-0.328,1.477-0.984
			c0-0.187-0.042-0.346-0.127-0.475c-0.084-0.131-0.197-0.245-0.342-0.346c-0.143-0.101-0.312-0.19-0.506-0.27
			c-0.193-0.08-0.402-0.163-0.625-0.25c-0.311-0.123-0.582-0.247-0.816-0.373c-0.235-0.125-0.431-0.266-0.588-0.424
			c-0.157-0.156-0.276-0.336-0.355-0.536s-0.12-0.436-0.12-0.704c0-0.328,0.075-0.619,0.226-0.871
			c0.15-0.254,0.351-0.465,0.602-0.637c0.25-0.17,0.537-0.299,0.857-0.386c0.322-0.087,0.653-0.13,0.995-0.13
			c0.606,0,1.148,0.104,1.627,0.314v1.135c-0.515-0.337-1.107-0.506-1.777-0.506c-0.21,0-0.399,0.023-0.567,0.072
			c-0.168,0.047-0.313,0.114-0.434,0.201c-0.121,0.087-0.215,0.19-0.281,0.311c-0.065,0.121-0.099,0.255-0.099,0.4
			c0,0.183,0.033,0.335,0.099,0.458s0.164,0.232,0.291,0.328s0.283,0.183,0.465,0.26s0.39,0.162,0.622,0.253
			c0.31,0.118,0.588,0.24,0.834,0.365c0.246,0.126,0.456,0.268,0.629,0.424c0.173,0.158,0.307,0.339,0.399,0.544
			c0.094,0.205,0.141,0.449,0.141,0.731c0,0.347-0.076,0.647-0.229,0.902s-0.357,0.467-0.612,0.636s-0.55,0.294-0.882,0.376
			s-0.682,0.123-1.046,0.123C-916.036-943.115-916.661-943.254-917.189-943.532z"/>
	</g>
	<g enable-background="new    ">
		<path fill="#999999" d="M-898.008-948.912c-0.21,0-0.389-0.075-0.536-0.226c-0.148-0.15-0.223-0.33-0.223-0.54
			s0.074-0.388,0.223-0.533c0.147-0.146,0.326-0.219,0.536-0.219c0.214,0,0.396,0.073,0.547,0.219s0.226,0.323,0.226,0.533
			s-0.075,0.39-0.226,0.54S-897.794-948.912-898.008-948.912z M-898.008-943.129c-0.21,0-0.389-0.075-0.536-0.226
			c-0.148-0.15-0.223-0.33-0.223-0.54s0.074-0.391,0.223-0.543c0.147-0.153,0.326-0.229,0.536-0.229
			c0.214,0,0.396,0.076,0.547,0.229c0.15,0.152,0.226,0.333,0.226,0.543s-0.075,0.39-0.226,0.54S-897.794-943.129-898.008-943.129z"
			/>
		<path fill="#999999" d="M-890.939-953.082l-4.703,11.43h-1.046l4.689-11.43H-890.939z"/>
		<path fill="#999999" d="M-885.484-953.082l-4.703,11.43h-1.046l4.689-11.43H-885.484z"/>
		<path fill="#999999" d="M-875.634-950.279l-2.099,7h-1.162l-1.442-5.011c-0.055-0.191-0.092-0.408-0.109-0.649h-0.027
			c-0.014,0.164-0.062,0.376-0.144,0.636l-1.565,5.024h-1.121l-2.119-7h1.176l1.449,5.264c0.045,0.159,0.078,0.369,0.096,0.629
			h0.055c0.014-0.2,0.055-0.415,0.123-0.643l1.613-5.25h1.025l1.449,5.277c0.045,0.169,0.08,0.378,0.103,0.629h0.055
			c0.009-0.178,0.048-0.388,0.116-0.629l1.422-5.277H-875.634z"/>
		<path fill="#999999" d="M-865.517-950.279l-2.099,7h-1.162l-1.442-5.011c-0.055-0.191-0.092-0.408-0.109-0.649h-0.027
			c-0.014,0.164-0.062,0.376-0.144,0.636l-1.565,5.024h-1.121l-2.119-7h1.176l1.449,5.264c0.045,0.159,0.078,0.369,0.096,0.629
			h0.055c0.014-0.2,0.055-0.415,0.123-0.643l1.613-5.25h1.025l1.449,5.277c0.045,0.169,0.08,0.378,0.103,0.629h0.055
			c0.009-0.178,0.048-0.388,0.116-0.629l1.422-5.277H-865.517z"/>
		<path fill="#999999" d="M-855.399-950.279l-2.099,7h-1.162l-1.442-5.011c-0.055-0.191-0.092-0.408-0.109-0.649h-0.027
			c-0.014,0.164-0.062,0.376-0.144,0.636l-1.565,5.024h-1.121l-2.119-7h1.176l1.449,5.264c0.045,0.159,0.078,0.369,0.096,0.629
			h0.055c0.014-0.2,0.055-0.415,0.123-0.643l1.613-5.25h1.025l1.449,5.277c0.045,0.169,0.08,0.378,0.103,0.629h0.055
			c0.009-0.178,0.048-0.388,0.116-0.629l1.422-5.277H-855.399z"/>
		<path fill="#999999" d="M-853.711-943.129c-0.21,0-0.389-0.075-0.536-0.226c-0.148-0.15-0.223-0.33-0.223-0.54
			s0.074-0.391,0.223-0.543c0.147-0.153,0.326-0.229,0.536-0.229c0.214,0,0.396,0.076,0.547,0.229
			c0.15,0.152,0.226,0.333,0.226,0.543s-0.075,0.39-0.226,0.54S-853.497-943.129-853.711-943.129z"/>
		<path fill="#999999" d="M-849.917-944.291h-0.027v4.231h-1.121v-10.22h1.121v1.23h0.027c0.551-0.93,1.357-1.395,2.42-1.395
			c0.902,0,1.606,0.313,2.112,0.939c0.506,0.627,0.759,1.467,0.759,2.52c0,1.171-0.285,2.109-0.854,2.813
			c-0.569,0.705-1.349,1.057-2.338,1.057C-848.726-943.115-849.425-943.507-849.917-944.291z M-849.944-947.114v0.978
			c0,0.579,0.188,1.07,0.564,1.473c0.375,0.404,0.854,0.605,1.432,0.605c0.68,0,1.211-0.26,1.596-0.779
			c0.386-0.52,0.578-1.242,0.578-2.167c0-0.779-0.18-1.39-0.54-1.832s-0.848-0.663-1.463-0.663c-0.651,0-1.176,0.227-1.572,0.68
			C-849.746-948.366-849.944-947.798-849.944-947.114z"/>
		<path fill="#999999" d="M-837.824-943.279h-1.121v-1.094h-0.027c-0.487,0.839-1.206,1.258-2.153,1.258
			c-0.697,0-1.243-0.185-1.637-0.554c-0.395-0.369-0.592-0.859-0.592-1.47c0-1.308,0.77-2.069,2.311-2.283l2.099-0.294
			c0-1.189-0.481-1.784-1.442-1.784c-0.844,0-1.604,0.287-2.283,0.861v-1.148c0.688-0.438,1.48-0.656,2.379-0.656
			c1.645,0,2.468,0.87,2.468,2.611v4.553H-837.824z M-838.945-946.82l-1.688,0.232c-0.52,0.073-0.912,0.201-1.176,0.387
			c-0.264,0.184-0.396,0.511-0.396,0.98c0,0.342,0.122,0.621,0.365,0.838c0.244,0.216,0.568,0.324,0.975,0.324
			c0.557,0,1.016-0.195,1.377-0.584c0.363-0.391,0.544-0.884,0.544-1.48L-838.945-946.82L-838.945-946.82z"/>
		<path fill="#999999" d="M-832.062-949.144c-0.195-0.15-0.479-0.226-0.848-0.226c-0.479,0-0.879,0.226-1.199,0.677
			c-0.322,0.451-0.482,1.066-0.482,1.846v3.568h-1.121v-7h1.121v1.442h0.027c0.16-0.492,0.403-0.876,0.731-1.151
			c0.328-0.276,0.694-0.414,1.101-0.414c0.291,0,0.516,0.032,0.67,0.096V-949.144z"/>
		<path fill="#999999" d="M-831.269-943.532v-1.203c0.611,0.451,1.283,0.677,2.017,0.677c0.984,0,1.477-0.328,1.477-0.984
			c0-0.187-0.042-0.346-0.126-0.475c-0.085-0.131-0.199-0.245-0.342-0.346c-0.145-0.101-0.313-0.19-0.506-0.27
			c-0.194-0.08-0.402-0.163-0.626-0.25c-0.31-0.123-0.582-0.247-0.817-0.373c-0.234-0.125-0.43-0.266-0.588-0.424
			c-0.156-0.156-0.275-0.336-0.355-0.536c-0.079-0.2-0.119-0.436-0.119-0.704c0-0.328,0.075-0.619,0.226-0.871
			c0.15-0.254,0.351-0.465,0.602-0.637c0.251-0.17,0.536-0.299,0.858-0.386c0.32-0.087,0.652-0.13,0.994-0.13
			c0.605,0,1.148,0.104,1.627,0.314v1.135c-0.516-0.337-1.107-0.506-1.777-0.506c-0.209,0-0.398,0.023-0.567,0.072
			c-0.169,0.047-0.313,0.114-0.435,0.201c-0.12,0.087-0.214,0.19-0.279,0.311c-0.066,0.121-0.1,0.255-0.1,0.4
			c0,0.183,0.033,0.335,0.1,0.458c0.065,0.123,0.162,0.232,0.29,0.328s0.282,0.183,0.465,0.26s0.39,0.162,0.622,0.253
			c0.311,0.118,0.588,0.24,0.834,0.365c0.246,0.126,0.455,0.268,0.629,0.424c0.174,0.158,0.307,0.339,0.4,0.544
			s0.14,0.449,0.14,0.731c0,0.347-0.076,0.647-0.229,0.902c-0.152,0.255-0.355,0.467-0.611,0.636s-0.549,0.294-0.882,0.376
			s-0.681,0.123-1.046,0.123C-830.116-943.115-830.739-943.254-831.269-943.532z"/>
		<path fill="#999999" d="M-823.756-944.291h-0.027v4.231h-1.121v-10.22h1.121v1.23h0.027c0.552-0.93,1.358-1.395,2.42-1.395
			c0.902,0,1.606,0.313,2.112,0.939c0.506,0.627,0.759,1.467,0.759,2.52c0,1.171-0.284,2.109-0.854,2.813
			c-0.57,0.705-1.35,1.057-2.338,1.057C-822.563-943.115-823.264-943.507-823.756-944.291z M-823.783-947.114v0.978
			c0,0.579,0.188,1.07,0.563,1.473c0.377,0.404,0.854,0.605,1.433,0.605c0.679,0,1.211-0.26,1.597-0.779
			c0.385-0.52,0.577-1.242,0.577-2.167c0-0.779-0.181-1.39-0.54-1.832s-0.848-0.663-1.463-0.663c-0.652,0-1.176,0.227-1.572,0.68
			C-823.585-948.366-823.783-947.798-823.783-947.114z"/>
		<path fill="#999999" d="M-811.663-943.279h-1.121v-1.094h-0.027c-0.488,0.839-1.205,1.258-2.153,1.258
			c-0.697,0-1.243-0.185-1.638-0.554c-0.394-0.369-0.591-0.859-0.591-1.47c0-1.308,0.771-2.069,2.311-2.283l2.099-0.294
			c0-1.189-0.48-1.784-1.442-1.784c-0.843,0-1.604,0.287-2.283,0.861v-1.148c0.688-0.438,1.481-0.656,2.379-0.656
			c1.646,0,2.468,0.87,2.468,2.611v4.553H-811.663z M-812.784-946.82l-1.688,0.232c-0.52,0.073-0.911,0.201-1.176,0.387
			c-0.265,0.184-0.396,0.511-0.396,0.98c0,0.342,0.122,0.621,0.366,0.838c0.243,0.216,0.568,0.324,0.974,0.324
			c0.556,0,1.015-0.195,1.378-0.584c0.361-0.391,0.543-0.884,0.543-1.48v-0.697H-812.784z"/>
		<path fill="#999999" d="M-803.74-943.279h-1.572l-3.09-3.363h-0.027v3.363h-1.121v-10.363h1.121v6.569h0.027l2.939-3.206h1.47
			l-3.247,3.377L-803.74-943.279z"/>
		<path fill="#999999" d="M-802.202-943.129c-0.209,0-0.389-0.075-0.537-0.226c-0.147-0.15-0.222-0.33-0.222-0.54
			s0.074-0.391,0.222-0.543c0.148-0.153,0.328-0.229,0.537-0.229c0.215,0,0.396,0.076,0.547,0.229
			c0.15,0.152,0.226,0.333,0.226,0.543s-0.075,0.39-0.226,0.54S-801.987-943.129-802.202-943.129z"/>
		<path fill="#999999" d="M-794.785-943.6c-0.538,0.323-1.176,0.485-1.914,0.485c-0.998,0-1.804-0.324-2.417-0.975
			c-0.612-0.648-0.919-1.491-0.919-2.525c0-1.153,0.331-2.079,0.991-2.779c0.66-0.699,1.543-1.049,2.646-1.049
			c0.615,0,1.157,0.114,1.627,0.342v1.148c-0.52-0.364-1.075-0.547-1.668-0.547c-0.716,0-1.302,0.256-1.761,0.77
			c-0.457,0.512-0.687,1.186-0.687,2.02c0,0.82,0.216,1.468,0.646,1.941c0.432,0.474,1.009,0.711,1.733,0.711
			c0.61,0,1.185-0.203,1.723-0.608V-943.6z"/>
		<path fill="#999999" d="M-790.164-943.115c-1.034,0-1.86-0.327-2.478-0.98c-0.618-0.654-0.927-1.521-0.927-2.602
			c0-1.176,0.321-2.094,0.964-2.755s1.511-0.991,2.604-0.991c1.044,0,1.858,0.321,2.444,0.964c0.585,0.643,0.878,1.533,0.878,2.673
			c0,1.116-0.315,2.011-0.946,2.684C-788.256-943.451-789.103-943.115-790.164-943.115z M-790.082-949.5
			c-0.72,0-1.29,0.245-1.709,0.734c-0.419,0.49-0.629,1.166-0.629,2.027c0,0.829,0.212,1.483,0.636,1.962s0.991,0.718,1.702,0.718
			c0.725,0,1.282-0.234,1.671-0.704c0.391-0.47,0.585-1.137,0.585-2.003c0-0.875-0.194-1.55-0.585-2.023
			C-788.8-949.262-789.357-949.5-790.082-949.5z"/>
	</g>
	<g id="lock" transform="translate(14.489 10.449)">
		<g id="XMLID_510_">
			<path fill="#24B77E" d="M-977.141-949.1h11.455c0.474,0,0.859-0.385,0.859-0.859l0,0v-9.741c0-0.474-0.385-0.859-0.859-0.859l0,0
				h-0.859v-2.573c0-2.689-2.18-4.868-4.869-4.868s-4.868,2.18-4.868,4.868v2.578h-0.859c-0.472,0-0.856,0.382-0.859,0.854v9.737
				c-0.002,0.474,0.381,0.861,0.855,0.863C-977.144-949.1-977.142-949.1-977.141-949.1z M-970.554-954.542v1.142
				c0.001,0.474-0.383,0.86-0.858,0.86c-0.474,0.001-0.859-0.383-0.86-0.858c0-0.001,0-0.002,0-0.002v-1.141
				c-0.633-0.474-0.761-1.372-0.287-2.005s1.372-0.761,2.005-0.287s0.761,1.372,0.287,2.005
				C-970.349-954.719-970.445-954.622-970.554-954.542L-970.554-954.542z M-974.563-963.132c0.001-1.74,1.412-3.149,3.152-3.148
				c1.738,0.001,3.147,1.41,3.148,3.148v2.578h-6.3V-963.132z"/>
		</g>
	</g>
</g>
</svg>
