<?xml version="1.0" encoding="utf-8"?>
<!-- Generator: Adobe Illustrator 22.0.1, SVG Export Plug-In . SVG Version: 6.00 Build 0)  -->
<svg version="1.1" id="Layer_1" xmlns="http://www.w3.org/2000/svg" xmlns:xlink="http://www.w3.org/1999/xlink" x="0px" y="0px"
	 viewBox="0 0 180 150" style="enable-background:new 0 0 180 150;" xml:space="preserve">
<style type="text/css">
	.st0{fill:#FFFFFF;stroke:#137FCF;stroke-width:2;}
	.st1{opacity:0.3;fill:#C6E6FF;enable-background:new    ;}
	.st2{fill:#D6EEFF;stroke:#137FCF;stroke-width:2;}
	.st3{fill:#137FCF;}
	.st4{fill:none;stroke:#137FCF;stroke-width:2;}
</style>
<g id="Group_8040" transform="translate(-7187 -17863)">
	<path id="Rectangle_2855" class="st0" d="M7239.7,17912.5h76c0.6,0,1,0.4,1,1v56c0,0.6-0.4,1-1,1h-76c-0.6,0-1-0.4-1-1v-56
		C7238.7,17912.9,7239.1,17912.5,7239.7,17912.5z"/>
	<g id="Group_8039">
		<path id="Path_5645" class="st1" d="M7273.8,17888.6c29.6,11.7,86.7,4.6,81.8,44.8s-13,68.9-51.2,58c-38.2-10.9-56.7,2.2-83.4,2.3
			C7194.3,17993.8,7168.4,17847.6,7273.8,17888.6z"/>
		<path id="Rectangle_2857" class="st2" d="M7267.7,17922.5h48c0.6,0,1,0.4,1,1v46c0,0.6-0.4,1-1,1h-48l0,0V17922.5L7267.7,17922.5z
			"/>
		<g id="Group_6136" transform="translate(308.68 2345.057)">
			<path id="Path_4734" class="st3" d="M6938.6,15572.9c0,0.8-0.7,1.5-1.5,1.5s-1.5-0.7-1.5-1.5c0-0.8,0.7-1.5,1.5-1.5c0,0,0,0,0,0
				C6937.9,15571.5,6938.6,15572.1,6938.6,15572.9"/>
			<path id="Path_4735" class="st3" d="M6943.3,15572.9c0,0.8-0.7,1.5-1.5,1.5c-0.8,0-1.5-0.7-1.5-1.5c0-0.8,0.7-1.5,1.5-1.5l0,0
				C6942.6,15571.5,6943.3,15572.1,6943.3,15572.9"/>
			<path id="Path_4736" class="st3" d="M6947.9,15572.9c0,0.8-0.7,1.5-1.5,1.5c-0.8,0-1.5-0.7-1.5-1.5c0-0.8,0.7-1.5,1.5-1.5l0,0
				C6947.3,15571.5,6947.9,15572.1,6947.9,15572.9"/>
		</g>
		<g id="Group_6134" transform="translate(287.957 2359.234)">
			<g id="man-user" transform="translate(0 0)">
				<path id="Path_5632" d="M6935.7,15610C6935.7,15609.6,6935.7,15609.9,6935.7,15610z"/>
				<path id="Path_5633" d="M6973.2,15610.3C6973.2,15610.2,6973.2,15609.6,6973.2,15610.3z"/>
				<path id="Path_5634" class="st2" d="M6974.1,15611.1c-0.2-11.6-1.7-16.5-13.3-18.5c0,0-1.6,2.1-5.4,2.1s-5.4-2.1-5.4-2.1
					c-11.5,2.1-13.1,6.9-13.3,18.3c0,0.2,0,0.3,0,0.5c0,0,2.8,5.6,18.8,5.6s18.8-5.6,18.8-5.6
					C6974.1,15610.8,6974.1,15611.8,6974.1,15611.1z"/>
				<path id="Path_5631" class="st0" d="M6955.3,15595.6c2.5-0.1,4.9-1.1,6.5-3c2.3-2.5,3.5-5.7,3.4-9.1c0-6.7-1.5-12.1-9.9-12.1
					s-9.9,5.4-9.9,12.1S6949.8,15595.6,6955.3,15595.6z"/>
			</g>
		</g>
		<path id="Rectangle_2856" class="st4" d="M7239.7,17912.5h76c0.6,0,1,0.4,1,1v9l0,0h-78l0,0v-9
			C7238.7,17912.9,7239.1,17912.5,7239.7,17912.5z"/>
	</g>
	<line id="Line_311" class="st4" x1="7275.2" y1="17933" x2="7308.2" y2="17933"/>
	<line id="Line_312" class="st4" x1="7280.2" y1="17940" x2="7310.2" y2="17940"/>
	<line id="Line_313" class="st4" x1="7278.2" y1="17953" x2="7305.2" y2="17953"/>
	<line id="Line_314" class="st4" x1="7279.2" y1="17960" x2="7304.2" y2="17960"/>
</g>
</svg>
