<?xml version="1.0" encoding="utf-8"?>
<!-- Generator: Adobe Illustrator 21.0.0, SVG Export Plug-In . SVG Version: 6.00 Build 0)  -->
<svg version="1.1" id="Layer_1" xmlns="http://www.w3.org/2000/svg" xmlns:xlink="http://www.w3.org/1999/xlink" x="0px" y="0px"
	 viewBox="0 0 1133 695" enable-background="new 0 0 1133 695" xml:space="preserve">
<linearGradient id="Path_5033_1_" gradientUnits="userSpaceOnUse" x1="272.5406" y1="714.8956" x2="272.5276" y2="716.1686" gradientTransform="matrix(798.0305 97.9858 73.3011 -596.9894 -269395.9375 400841.25)">
	<stop  offset="0" style="stop-color:#C6E6FF"/>
	<stop  offset="1" style="stop-color:#FFFFFF"/>
</linearGradient>
<path id="Path_5033" fill="url(#Path_5033_1_)" d="M523.4,96.4C419.5,133.9,313,133.8,313,133.8s-196.1,31-160,219
	s43.5,249.8,134.3,265.7c86.4,13.1,116.7-16.7,201.8,0c74.7,15.1,193.6,21.6,325.6-12.6C1027.5,541.3,1025.2-82.6,523.4,96.4z"/>
<path id="Path_5398" opacity="0.435" fill="#C6E6FF" enable-background="new    " d="M240.2,87.9c-23.8-12.5-67,25.5-104.9-5.6
	s-46.4,31.2-90.8,37.2s69.5,92.9,136.4,44.6c17.4-12.6,61.1-21.2,69.5-28.3C273.3,116.3,264.1,100.4,240.2,87.9z"/>
<path id="Path_5399" opacity="0.369" fill="#C6E6FF" enable-background="new    " d="M1008.4,204.4c-28,18-85.3-24.2-128.6,18.2
	s-60.5-33.4-115.7-36c-55.2-2.5,84.2-102,171.8-49.7c22.8,13.6,92.2-3.6,103.3,4.2C1069.4,162.6,1036.4,186.4,1008.4,204.4z"/>
<g id="Group_5749" transform="translate(49)">
	
		<linearGradient id="Ellipse_1206_1_" gradientUnits="userSpaceOnUse" x1="233.5561" y1="422.3758" x2="233.5561" y2="420.3718" gradientTransform="matrix(321 0 0 -55 -74860 23638)">
		<stop  offset="0" style="stop-color:#288ED9"/>
		<stop  offset="1" style="stop-color:#137FCF;stop-opacity:5.100000e-02"/>
	</linearGradient>
	<ellipse id="Ellipse_1206" fill="url(#Ellipse_1206_1_)" cx="111.5" cy="490.1" rx="160.5" ry="27.5"/>
	<path id="Rectangle_2583" fill="#005B9F" d="M60.7,275.9h160.9c2.2,0,4,1.8,4,4v14.9c0,2.2-1.8,4-4,4H60.7c-2.2,0-4-1.8-4-4v-14.9
		C56.7,277.7,58.4,275.9,60.7,275.9z"/>
	<path id="Rectangle_2585" fill="#164571" d="M185.2,275.9h36.3c2.2,0,4,1.8,4,4v14.9c0,2.2-1.8,4-4,4h-36.3l0,0V275.9L185.2,275.9z
		"/>
	<path id="Path_5458" fill="#137FCF" d="M8.3,319.8h64.3v169.9H8.3V319.8z"/>
	<path id="Path_5460" fill="#005B9F" d="M3.7,303.4h66.6v18H3.7c-2.2,0-4-1.8-4-4v-10C-0.3,305.2,1.5,303.4,3.7,303.4z"/>
	<rect id="Rectangle_2584" x="68.1" y="297.9" fill="#0E71BB" width="146" height="175.5"/>
	<rect id="Rectangle_2593" x="28.5" y="332.3" fill="#98CDF2" width="23.6" height="28.6"/>
	<rect id="Rectangle_2594" x="28.5" y="369.5" fill="#98CDF2" width="23.2" height="28.6"/>
	<rect id="Rectangle_2595" x="28.5" y="406.7" fill="#FFBC98" width="23.2" height="28.6"/>
	<rect id="Rectangle_2596" x="82.4" y="309.4" fill="#30A3D1" width="51.5" height="28.6"/>
	<rect id="Rectangle_2597" x="82.4" y="346.6" fill="#30A3D1" width="51.5" height="28.6"/>
	<rect id="Rectangle_2598" x="82.4" y="383.8" fill="#30A3D1" width="51.5" height="28.6"/>
	<rect id="Rectangle_2599" x="146.6" y="309.4" fill="#30A3D1" width="25.8" height="28.6"/>
	<rect id="Rectangle_2600" x="146.6" y="346.6" fill="#30A3D1" width="25.8" height="28.6"/>
	<rect id="Rectangle_2601" x="146.6" y="383.8" fill="#30A3D1" width="25.8" height="28.6"/>
	<rect id="Rectangle_2586" x="185.5" y="297.9" fill="#005B9F" width="28.6" height="175.5"/>
	<path id="Rectangle_2589" fill="#FFE7CB" d="M191.2,472.5h27.5c2.2,0,4,1.8,4,4v9.2c0,2.2-1.8,4-4,4h-27.5l0,0V472.5L191.2,472.5z"
		/>
	<path id="Path_5456" fill="#52ACEA" d="M63.5,472.5h155.2c2.2,0,4,1.8,4,4v9.2c0,2.2-1.8,4-4,4H63.5c-2.2,0-4-1.8-4-4v-9.2
		C59.5,474.3,61.3,472.5,63.5,472.5z"/>
	<path id="Subtraction_77" fill="#52ACEA" d="M65.5,489.7H-6.1c-0.1-1-0.2-2-0.2-3c0-11.7,9.5-21.2,21.2-21.2c1.2,0,2.4,0.1,3.6,0.3
		c3.2-14.7,17.7-24.1,32.4-20.9c14.7,3.2,24.1,17.7,20.9,32.4C70.8,481.9,68.6,486.2,65.5,489.7L65.5,489.7L65.5,489.7z"/>
	<rect id="Rectangle_2588" x="108.2" y="438.2" fill="#288ED9" width="40.1" height="51.5"/>
	<rect id="Rectangle_2605" x="121.4" y="309.4" fill="#2695C1" width="12.5" height="28.6"/>
	<rect id="Rectangle_2608" x="166.6" y="383.8" fill="#2695C1" width="5.8" height="28.6"/>
	<rect id="Rectangle_2609" x="121.4" y="346.6" fill="#2695C1" width="12.5" height="28.6"/>
	<rect id="Rectangle_2610" x="121.4" y="383.8" fill="#2695C1" width="12.5" height="28.6"/>
	<rect id="Rectangle_2611" x="166.6" y="346.6" fill="#2695C1" width="5.8" height="28.6"/>
	<rect id="Rectangle_2612" x="166.6" y="309.4" fill="#2695C1" width="5.8" height="28.6"/>
	<rect id="Rectangle_2613" x="46.5" y="369.5" fill="#3B96D9" width="5.2" height="28.6"/>
	<rect id="Rectangle_2614" x="46.3" y="332.3" fill="#3B96D9" width="5.7" height="28.6"/>
</g>
<circle id="Ellipse_1227" fill="#D6EEFF" cx="189" cy="461.6" r="4"/>
<g id="Group_6231" transform="translate(14129 21245)">
	
		<linearGradient id="Ellipse_1275_1_" gradientUnits="userSpaceOnUse" x1="-13846.4443" y1="-20822.625" x2="-13846.4443" y2="-20824.6289" gradientTransform="matrix(321 0 0 -55 4431552 -1166082)">
		<stop  offset="0" style="stop-color:#288ED9"/>
		<stop  offset="1" style="stop-color:#137FCF;stop-opacity:5.100000e-02"/>
	</linearGradient>
	<ellipse id="Ellipse_1275" fill="url(#Ellipse_1275_1_)" cx="-13156.5" cy="-20754.9" rx="160.5" ry="27.5"/>
	<g id="Group_6208" transform="translate(-13108.286 -20790.027)">
		<g id="Group_5583" transform="translate(0 0)">
			<g id="Group_5582" transform="translate(0 0)">
				<g id="Group_5581" transform="translate(0)">
					<rect id="Rectangle_1567" x="-158.3" y="-125.6" fill="#005B9F" width="140" height="15.7"/>
					<g id="Group_104" transform="translate(65.162 16.739)">
						<path id="Rectangle_1405" fill="#288ED9" d="M-165.1-166.4L-165.1-166.4c1,0,1.9,0.8,1.9,1.9l0,0c0,1-0.8,1.9-1.9,1.9l0,0
							c-1,0-1.9-0.8-1.9-1.9l0,0C-167-165.6-166.2-166.4-165.1-166.4z"/>
						<path id="Rectangle_1424" fill="#288ED9" d="M-160.6-159L-160.6-159c1,0,1.9,0.8,1.9,1.9l0,0c0,1-0.8,1.9-1.9,1.9l0,0
							c-1,0-1.9-0.8-1.9-1.9l0,0C-162.5-158.1-161.7-159-160.6-159z"/>
						<path id="Rectangle_1410" fill="#288ED9" d="M-127.8-166.4L-127.8-166.4c1,0,1.9,0.8,1.9,1.9l0,0c0,1-0.8,1.9-1.9,1.9l0,0
							c-1,0-1.9-0.8-1.9-1.9l0,0C-129.6-165.6-128.8-166.4-127.8-166.4z"/>
						<path id="Rectangle_1419" fill="#288ED9" d="M-123.3-159L-123.3-159c1,0,1.9,0.8,1.9,1.9l0,0c0,1-0.8,1.9-1.9,1.9l0,0
							c-1,0-1.9-0.8-1.9-1.9l0,0C-125.2-158.1-124.3-159-123.3-159z"/>
						<path id="Rectangle_1406" fill="#288ED9" d="M-157.7-166.4L-157.7-166.4c1,0,1.9,0.8,1.9,1.9l0,0c0,1-0.8,1.9-1.9,1.9l0,0
							c-1,0-1.9-0.8-1.9-1.9l0,0C-159.5-165.6-158.7-166.4-157.7-166.4z"/>
						<path id="Rectangle_1423" fill="#288ED9" d="M-153.2-159L-153.2-159c1,0,1.9,0.8,1.9,1.9l0,0c0,1-0.8,1.9-1.9,1.9l0,0
							c-1,0-1.9-0.8-1.9-1.9l0,0C-155-158.1-154.2-159-153.2-159z"/>
						<path id="Rectangle_1411" fill="#288ED9" d="M-120.3-166.4L-120.3-166.4c1,0,1.9,0.8,1.9,1.9l0,0c0,1-0.8,1.9-1.9,1.9l0,0
							c-1,0-1.9-0.8-1.9-1.9l0,0C-122.2-165.6-121.3-166.4-120.3-166.4z"/>
						<path id="Rectangle_1418" fill="#288ED9" d="M-115.8-159L-115.8-159c1,0,1.9,0.8,1.9,1.9l0,0c0,1-0.8,1.9-1.9,1.9l0,0
							c-1,0-1.9-0.8-1.9-1.9l0,0C-117.7-158.1-116.8-159-115.8-159z"/>
						<path id="Rectangle_1407" fill="#288ED9" d="M-150.2-166.4L-150.2-166.4c1,0,1.9,0.8,1.9,1.9l0,0c0,1-0.8,1.9-1.9,1.9l0,0
							c-1,0-1.9-0.8-1.9-1.9l0,0C-152.1-165.6-151.2-166.4-150.2-166.4z"/>
						<path id="Rectangle_1422" fill="#288ED9" d="M-145.7-159L-145.7-159c1,0,1.9,0.8,1.9,1.9l0,0c0,1-0.8,1.9-1.9,1.9l0,0
							c-1,0-1.9-0.8-1.9-1.9l0,0C-147.6-158.1-146.7-159-145.7-159z"/>
						<path id="Rectangle_1412" fill="#288ED9" d="M-112.8-166.4L-112.8-166.4c1,0,1.9,0.8,1.9,1.9l0,0c0,1-0.8,1.9-1.9,1.9l0,0
							c-1,0-1.9-0.8-1.9-1.9l0,0C-114.7-165.6-113.9-166.4-112.8-166.4z"/>
						<path id="Rectangle_1417" fill="#288ED9" d="M-108.3-159L-108.3-159c1,0,1.9,0.8,1.9,1.9l0,0c0,1-0.8,1.9-1.9,1.9l0,0
							c-1,0-1.9-0.8-1.9-1.9l0,0C-110.2-158.1-109.4-159-108.3-159z"/>
						<path id="Rectangle_1408" fill="#288ED9" d="M-142.7-166.4L-142.7-166.4c1,0,1.9,0.8,1.9,1.9l0,0c0,1-0.8,1.9-1.9,1.9l0,0
							c-1,0-1.9-0.8-1.9-1.9l0,0C-144.6-165.6-143.7-166.4-142.7-166.4z"/>
						<path id="Rectangle_1421" fill="#288ED9" d="M-138.2-159L-138.2-159c1,0,1.9,0.8,1.9,1.9l0,0c0,1-0.8,1.9-1.9,1.9l0,0
							c-1,0-1.9-0.8-1.9-1.9l0,0C-140.1-158.1-139.3-159-138.2-159z"/>
						<path id="Rectangle_1413" fill="#288ED9" d="M-105.3-166.4L-105.3-166.4c1,0,1.9,0.8,1.9,1.9l0,0c0,1-0.8,1.9-1.9,1.9l0,0
							c-1,0-1.9-0.8-1.9-1.9l0,0C-107.2-165.6-106.4-166.4-105.3-166.4z"/>
						<path id="Rectangle_1416" fill="#288ED9" d="M-100.9-159L-100.9-159c1,0,1.9,0.8,1.9,1.9l0,0c0,1-0.8,1.9-1.9,1.9l0,0
							c-1,0-1.9-0.8-1.9-1.9l0,0C-102.7-158.1-101.9-159-100.9-159z"/>
						<path id="Rectangle_1409" fill="#288ED9" d="M-135.2-166.4L-135.2-166.4c1,0,1.9,0.8,1.9,1.9l0,0c0,1-0.8,1.9-1.9,1.9l0,0
							c-1,0-1.9-0.8-1.9-1.9l0,0C-137.1-165.6-136.3-166.4-135.2-166.4z"/>
						<path id="Rectangle_1420" fill="#288ED9" d="M-130.8-159L-130.8-159c1,0,1.9,0.8,1.9,1.9l0,0c0,1-0.8,1.9-1.9,1.9l0,0
							c-1,0-1.9-0.8-1.9-1.9l0,0C-132.6-158.1-131.8-159-130.8-159z"/>
						<path id="Rectangle_1414" fill="#288ED9" d="M-97.9-166.4L-97.9-166.4c1,0,1.9,0.8,1.9,1.9l0,0c0,1-0.8,1.9-1.9,1.9l0,0
							c-1,0-1.9-0.8-1.9-1.9l0,0C-99.7-165.6-98.9-166.4-97.9-166.4z"/>
						<path id="Rectangle_1415" fill="#288ED9" d="M-93.4-159L-93.4-159c1,0,1.9,0.8,1.9,1.9l0,0c0,1-0.8,1.9-1.9,1.9l0,0
							c-1,0-1.9-0.8-1.9-1.9l0,0C-95.3-158.1-94.4-159-93.4-159z"/>
					</g>
					<path id="Rectangle_1634" fill="#2086D1" d="M-162-166.4h146.9c2.8,0,5,2.2,5,5v33.9c0,2.8-2.2,5-5,5H-162c-2.8,0-5-2.2-5-5
						v-33.9C-167-164.2-164.8-166.4-162-166.4z"/>
					<g id="Group_113" transform="translate(15.842 16.739)">
						<g id="Rectangle_1635" transform="translate(0 0)">
							<path fill="#21E2E2" d="M-161.3-166.4L-161.3-166.4c3.2,0,5.7,2.6,5.7,5.7v0.5c0,3.2-2.6,5.7-5.7,5.7l0,0
								c-3.2,0-5.7-2.6-5.7-5.7v-0.5C-167-163.9-164.4-166.4-161.3-166.4z"/>
							<path fill="none" stroke="#137FCF" stroke-width="2" d="M-161.3-165.4L-161.3-165.4c2.6,0,4.7,2.1,4.7,4.7v0.5
								c0,2.6-2.1,4.7-4.7,4.7l0,0c-2.6,0-4.7-2.1-4.7-4.7v-0.5C-166-163.3-163.9-165.4-161.3-165.4z"/>
						</g>
						<g id="Rectangle_1636" transform="translate(16.739 0)">
							<path fill="#FFBC98" d="M-161.3-166.4L-161.3-166.4c3.2,0,5.7,2.6,5.7,5.7v0.5c0,3.2-2.6,5.7-5.7,5.7l0,0
								c-3.2,0-5.7-2.6-5.7-5.7v-0.5C-167-163.9-164.4-166.4-161.3-166.4z"/>
							<path fill="none" stroke="#137FCF" stroke-width="2" d="M-161.3-165.4L-161.3-165.4c2.6,0,4.7,2.1,4.7,4.7v0.5
								c0,2.6-2.1,4.7-4.7,4.7l0,0c-2.6,0-4.7-2.1-4.7-4.7v-0.5C-166-163.3-163.9-165.4-161.3-165.4z"/>
						</g>
					</g>
					<path id="Rectangle_1640" fill="#1266A5" d="M-164-166.4h54.5l0,0v43.9l0,0H-164c-1.7,0-3-1.3-3-3v-37.9
						C-167-165.1-165.7-166.4-164-166.4z"/>
				</g>
			</g>
		</g>
		<g id="Group_5586" transform="translate(68.46 12.848)">
			<g id="Group_5584" transform="translate(0 0)">
				<path id="Rectangle_1405-2" fill="#379CE6" d="M-163.9-166.4L-163.9-166.4c1.7,0,3.1,1.4,3.1,3.1l0,0c0,1.7-1.4,3.1-3.1,3.1l0,0
					c-1.7,0-3.1-1.4-3.1-3.1l0,0C-167-165.1-165.6-166.4-163.9-166.4z"/>
				<path id="Rectangle_1424-2" fill="#379CE6" d="M-156.5-154.1L-156.5-154.1c1.7,0,3.1,1.4,3.1,3.1l0,0c0,1.7-1.4,3.1-3.1,3.1l0,0
					c-1.7,0-3.1-1.4-3.1-3.1l0,0C-159.6-152.7-158.2-154.1-156.5-154.1z"/>
				<path id="Rectangle_1410-2" fill="#379CE6" d="M-102-166.4L-102-166.4c1.7,0,3.1,1.4,3.1,3.1l0,0c0,1.7-1.4,3.1-3.1,3.1l0,0
					c-1.7,0-3.1-1.4-3.1-3.1l0,0C-105.1-165.1-103.8-166.4-102-166.4z"/>
				<path id="Rectangle_1419-2" fill="#379CE6" d="M-94.6-154.1L-94.6-154.1c1.7,0,3.1,1.4,3.1,3.1l0,0c0,1.7-1.4,3.1-3.1,3.1l0,0
					c-1.7,0-3.1-1.4-3.1-3.1l0,0C-97.7-152.7-96.3-154.1-94.6-154.1z"/>
				<path id="Rectangle_1406-2" fill="#379CE6" d="M-151.5-166.4L-151.5-166.4c1.7,0,3.1,1.4,3.1,3.1l0,0c0,1.7-1.4,3.1-3.1,3.1l0,0
					c-1.7,0-3.1-1.4-3.1-3.1l0,0C-154.6-165.1-153.2-166.4-151.5-166.4z"/>
				<path id="Rectangle_1423-2" fill="#379CE6" d="M-144.1-154.1L-144.1-154.1c1.7,0,3.1,1.4,3.1,3.1l0,0c0,1.7-1.4,3.1-3.1,3.1l0,0
					c-1.7,0-3.1-1.4-3.1-3.1l0,0C-147.2-152.7-145.8-154.1-144.1-154.1z"/>
				<path id="Rectangle_1407-2" fill="#379CE6" d="M-139.2-166.4L-139.2-166.4c1.7,0,3.1,1.4,3.1,3.1l0,0c0,1.7-1.4,3.1-3.1,3.1l0,0
					c-1.7,0-3.1-1.4-3.1-3.1l0,0C-142.3-165.1-140.9-166.4-139.2-166.4z"/>
				<path id="Rectangle_1422-2" fill="#379CE6" d="M-131.7-154.1L-131.7-154.1c1.7,0,3.1,1.4,3.1,3.1l0,0c0,1.7-1.4,3.1-3.1,3.1l0,0
					c-1.7,0-3.1-1.4-3.1-3.1l0,0C-134.8-152.7-133.4-154.1-131.7-154.1z"/>
				<path id="Rectangle_1408-2" fill="#379CE6" d="M-126.8-166.4L-126.8-166.4c1.7,0,3.1,1.4,3.1,3.1l0,0c0,1.7-1.4,3.1-3.1,3.1l0,0
					c-1.7,0-3.1-1.4-3.1-3.1l0,0C-129.9-165.1-128.5-166.4-126.8-166.4z"/>
				<path id="Rectangle_1421-2" fill="#379CE6" d="M-119.4-154.1L-119.4-154.1c1.7,0,3.1,1.4,3.1,3.1l0,0c0,1.7-1.4,3.1-3.1,3.1l0,0
					c-1.7,0-3.1-1.4-3.1-3.1l0,0C-122.5-152.7-121.1-154.1-119.4-154.1z"/>
				<path id="Rectangle_1409-2" fill="#379CE6" d="M-114.4-166.4L-114.4-166.4c1.7,0,3.1,1.4,3.1,3.1l0,0c0,1.7-1.4,3.1-3.1,3.1l0,0
					c-1.7,0-3.1-1.4-3.1-3.1l0,0C-117.5-165.1-116.1-166.4-114.4-166.4z"/>
				<path id="Rectangle_1420-2" fill="#379CE6" d="M-107-154.1L-107-154.1c1.7,0,3.1,1.4,3.1,3.1l0,0c0,1.7-1.4,3.1-3.1,3.1l0,0
					c-1.7,0-3.1-1.4-3.1-3.1l0,0C-110.1-152.7-108.7-154.1-107-154.1z"/>
			</g>
		</g>
	</g>
	<g id="Group_6209" transform="translate(-13108.286 -20771.307)">
		<g id="Group_5583-2" transform="translate(0 0)">
			<g id="Group_5582-2" transform="translate(0)">
				<g id="Group_5581-2" transform="translate(0)">
					<rect id="Rectangle_1565" x="-158.3" y="-89.9" fill="#005B9F" width="140" height="13.6"/>
					<path id="Path_3764" fill="#2086D1" d="M-161.8-131.8h146.5c2.9,0,5.2,2.3,5.2,5.2c0,0,0,0,0,0v33.5c0,2.9-2.3,5.2-5.2,5.2l0,0
						h-146.5c-2.9,0-5.2-2.3-5.2-5.2v-33.5C-167-129.4-164.7-131.8-161.8-131.8z"/>
					<path id="Path_5064" fill="#005B9F" d="M-158.3-38.7h140V-23h-140V-38.7z"/>
					<g id="Group_104-2" transform="translate(65.162 103.737)">
						<path id="Rectangle_1405-3" fill="#288ED9" d="M-165.1-166.4L-165.1-166.4c1,0,1.9,0.8,1.9,1.9l0,0c0,1-0.8,1.9-1.9,1.9l0,0
							c-1,0-1.9-0.8-1.9-1.9l0,0C-167-165.6-166.2-166.4-165.1-166.4z"/>
						<path id="Rectangle_1424-3" fill="#288ED9" d="M-160.6-159L-160.6-159c1,0,1.9,0.8,1.9,1.9l0,0c0,1-0.8,1.9-1.9,1.9l0,0
							c-1,0-1.9-0.8-1.9-1.9l0,0C-162.5-158.1-161.7-159-160.6-159z"/>
						<path id="Rectangle_1410-3" fill="#288ED9" d="M-127.8-166.4L-127.8-166.4c1,0,1.9,0.8,1.9,1.9l0,0c0,1-0.8,1.9-1.9,1.9l0,0
							c-1,0-1.9-0.8-1.9-1.9l0,0C-129.6-165.6-128.8-166.4-127.8-166.4z"/>
						<path id="Rectangle_1419-3" fill="#288ED9" d="M-123.3-159L-123.3-159c1,0,1.9,0.8,1.9,1.9l0,0c0,1-0.8,1.9-1.9,1.9l0,0
							c-1,0-1.9-0.8-1.9-1.9l0,0C-125.2-158.1-124.3-159-123.3-159z"/>
						<path id="Rectangle_1406-3" fill="#288ED9" d="M-157.7-166.4L-157.7-166.4c1,0,1.9,0.8,1.9,1.9l0,0c0,1-0.8,1.9-1.9,1.9l0,0
							c-1,0-1.9-0.8-1.9-1.9l0,0C-159.5-165.6-158.7-166.4-157.7-166.4z"/>
						<path id="Rectangle_1423-3" fill="#288ED9" d="M-153.2-159L-153.2-159c1,0,1.9,0.8,1.9,1.9l0,0c0,1-0.8,1.9-1.9,1.9l0,0
							c-1,0-1.9-0.8-1.9-1.9l0,0C-155-158.1-154.2-159-153.2-159z"/>
						<path id="Rectangle_1411-2" fill="#288ED9" d="M-120.3-166.4L-120.3-166.4c1,0,1.9,0.8,1.9,1.9l0,0c0,1-0.8,1.9-1.9,1.9l0,0
							c-1,0-1.9-0.8-1.9-1.9l0,0C-122.2-165.6-121.3-166.4-120.3-166.4z"/>
						<path id="Rectangle_1418-2" fill="#288ED9" d="M-115.8-159L-115.8-159c1,0,1.9,0.8,1.9,1.9l0,0c0,1-0.8,1.9-1.9,1.9l0,0
							c-1,0-1.9-0.8-1.9-1.9l0,0C-117.7-158.1-116.8-159-115.8-159z"/>
						<path id="Rectangle_1407-3" fill="#288ED9" d="M-150.2-166.4L-150.2-166.4c1,0,1.9,0.8,1.9,1.9l0,0c0,1-0.8,1.9-1.9,1.9l0,0
							c-1,0-1.9-0.8-1.9-1.9l0,0C-152.1-165.6-151.2-166.4-150.2-166.4z"/>
						<path id="Rectangle_1422-3" fill="#288ED9" d="M-145.7-159L-145.7-159c1,0,1.9,0.8,1.9,1.9l0,0c0,1-0.8,1.9-1.9,1.9l0,0
							c-1,0-1.9-0.8-1.9-1.9l0,0C-147.6-158.1-146.7-159-145.7-159z"/>
						<path id="Rectangle_1412-2" fill="#288ED9" d="M-112.8-166.4L-112.8-166.4c1,0,1.9,0.8,1.9,1.9l0,0c0,1-0.8,1.9-1.9,1.9l0,0
							c-1,0-1.9-0.8-1.9-1.9l0,0C-114.7-165.6-113.9-166.4-112.8-166.4z"/>
						<path id="Rectangle_1417-2" fill="#288ED9" d="M-108.3-159L-108.3-159c1,0,1.9,0.8,1.9,1.9l0,0c0,1-0.8,1.9-1.9,1.9l0,0
							c-1,0-1.9-0.8-1.9-1.9l0,0C-110.2-158.1-109.4-159-108.3-159z"/>
						<path id="Rectangle_1408-3" fill="#288ED9" d="M-142.7-166.4L-142.7-166.4c1,0,1.9,0.8,1.9,1.9l0,0c0,1-0.8,1.9-1.9,1.9l0,0
							c-1,0-1.9-0.8-1.9-1.9l0,0C-144.6-165.6-143.7-166.4-142.7-166.4z"/>
						<path id="Rectangle_1421-3" fill="#288ED9" d="M-138.2-159L-138.2-159c1,0,1.9,0.8,1.9,1.9l0,0c0,1-0.8,1.9-1.9,1.9l0,0
							c-1,0-1.9-0.8-1.9-1.9l0,0C-140.1-158.1-139.3-159-138.2-159z"/>
						<path id="Rectangle_1413-2" fill="#288ED9" d="M-105.3-166.4L-105.3-166.4c1,0,1.9,0.8,1.9,1.9l0,0c0,1-0.8,1.9-1.9,1.9l0,0
							c-1,0-1.9-0.8-1.9-1.9l0,0C-107.2-165.6-106.4-166.4-105.3-166.4z"/>
						<path id="Rectangle_1416-2" fill="#288ED9" d="M-100.9-159L-100.9-159c1,0,1.9,0.8,1.9,1.9l0,0c0,1-0.8,1.9-1.9,1.9l0,0
							c-1,0-1.9-0.8-1.9-1.9l0,0C-102.7-158.1-101.9-159-100.9-159z"/>
						<path id="Rectangle_1409-3" fill="#288ED9" d="M-135.2-166.4L-135.2-166.4c1,0,1.9,0.8,1.9,1.9l0,0c0,1-0.8,1.9-1.9,1.9l0,0
							c-1,0-1.9-0.8-1.9-1.9l0,0C-137.1-165.6-136.3-166.4-135.2-166.4z"/>
						<path id="Rectangle_1420-3" fill="#288ED9" d="M-130.8-159L-130.8-159c1,0,1.9,0.8,1.9,1.9l0,0c0,1-0.8,1.9-1.9,1.9l0,0
							c-1,0-1.9-0.8-1.9-1.9l0,0C-132.6-158.1-131.8-159-130.8-159z"/>
						<path id="Rectangle_1414-2" fill="#288ED9" d="M-97.9-166.4L-97.9-166.4c1,0,1.9,0.8,1.9,1.9l0,0c0,1-0.8,1.9-1.9,1.9l0,0
							c-1,0-1.9-0.8-1.9-1.9l0,0C-99.7-165.6-98.9-166.4-97.9-166.4z"/>
						<path id="Rectangle_1415-2" fill="#288ED9" d="M-93.4-159L-93.4-159c1,0,1.9,0.8,1.9,1.9l0,0c0,1-0.8,1.9-1.9,1.9l0,0
							c-1,0-1.9-0.8-1.9-1.9l0,0C-95.3-158.1-94.4-159-93.4-159z"/>
					</g>
					<path id="Rectangle_1639" fill="#0E71BB" d="M-164-131.8h54.5l0,0v43.9l0,0H-164c-1.7,0-3-1.3-3-3v-37.9
						C-167-130.4-165.7-131.8-164-131.8z"/>
					<path id="Path_5062" fill="#2086D1" d="M-159.1-79.5H-18c4.4,0,7.9,3.5,7.9,7.9v28.2c0,4.4-3.5,7.9-7.9,7.9h-141.1
						c-4.4,0-7.9-3.5-7.9-7.9v-28.2C-167-75.9-163.5-79.5-159.1-79.5z"/>
					<g id="Group_113-2" transform="translate(15.842 103.737)">
						<g id="Rectangle_1635-2" transform="translate(0 0)">
							<path fill="#21E2E2" d="M-161.3-166.4L-161.3-166.4c3.2,0,5.7,2.6,5.7,5.7v0.5c0,3.2-2.6,5.7-5.7,5.7l0,0
								c-3.2,0-5.7-2.6-5.7-5.7v-0.5C-167-163.9-164.4-166.4-161.3-166.4z"/>
							<path fill="none" stroke="#137FCF" stroke-width="2" d="M-161.3-165.4L-161.3-165.4c2.6,0,4.7,2.1,4.7,4.7v0.5
								c0,2.6-2.1,4.7-4.7,4.7l0,0c-2.6,0-4.7-2.1-4.7-4.7v-0.5C-166-163.3-163.9-165.4-161.3-165.4z"/>
						</g>
						<g id="Rectangle_1636-2" transform="translate(16.739 0)">
							<path fill="#FFBC98" d="M-161.3-166.4L-161.3-166.4c3.2,0,5.7,2.6,5.7,5.7v0.5c0,3.2-2.6,5.7-5.7,5.7l0,0
								c-3.2,0-5.7-2.6-5.7-5.7v-0.5C-167-163.9-164.4-166.4-161.3-166.4z"/>
							<path fill="none" stroke="#137FCF" stroke-width="2" d="M-161.3-165.4L-161.3-165.4c2.6,0,4.7,2.1,4.7,4.7v0.5
								c0,2.6-2.1,4.7-4.7,4.7l0,0c-2.6,0-4.7-2.1-4.7-4.7v-0.5C-166-163.3-163.9-165.4-161.3-165.4z"/>
						</g>
					</g>
					<path id="Path_5063" fill="#2086D1" d="M-159.1-27.1H-18c4.4,0,7.9,3.5,7.9,7.9V8.9c0,4.4-3.5,7.9-7.9,7.9h-141.1
						c-4.4,0-7.9-3.5-7.9-7.9v-28.2C-167-23.6-163.5-27.1-159.1-27.1z"/>
					<path id="Path_5068" fill="#0E71BB" d="M-162.3-79.5h52.8v43.9h-52.8c-2.6,0-4.7-2.1-4.7-4.7v-34.5
						C-167-77.3-164.9-79.5-162.3-79.5C-162.3-79.5-162.3-79.5-162.3-79.5z"/>
					<path id="Rectangle_1425" fill="#21E2E2" d="M-143.8-114.4L-143.8-114.4c2.3,0,4.2,1.9,4.2,4.2v0.3c0,2.3-1.9,4.2-4.2,4.2l0,0
						c-2.3,0-4.2-1.9-4.2-4.2v-0.3C-148-112.5-146.1-114.4-143.8-114.4z"/>
					<path id="Rectangle_1442" fill="#FFBC98" d="M-131.8-114.4h0.4c2.2,0,4,1.8,4,4v0.7c0,2.2-1.8,4-4,4h-0.4c-2.2,0-4-1.8-4-4
						v-0.7C-135.8-112.6-134-114.4-131.8-114.4z"/>
					<path id="Rectangle_2387" fill="#21E2E2" d="M-143.8-60.7L-143.8-60.7c2.3,0,4.2,1.9,4.2,4.2v0.3c0,2.3-1.9,4.2-4.2,4.2l0,0
						c-2.3,0-4.2-1.9-4.2-4.2v-0.3C-148-58.9-146.1-60.7-143.8-60.7z"/>
					<path id="Rectangle_2388" fill="#FFBC98" d="M-131.8-60.7h0.4c2.2,0,4,1.8,4,4v0.7c0,2.2-1.8,4-4,4h-0.4c-2.2,0-4-1.8-4-4v-0.7
						C-135.8-58.9-134-60.7-131.8-60.7z"/>
					<path id="Rectangle_2389" fill="#21E2E2" d="M-143.8-166.4L-143.8-166.4c2.3,0,4.2,1.9,4.2,4.2v0.3c0,2.3-1.9,4.2-4.2,4.2l0,0
						c-2.3,0-4.2-1.9-4.2-4.2v-0.3C-148-164.6-146.1-166.4-143.8-166.4z"/>
					<path id="Rectangle_2390" fill="#FFBC98" d="M-131.8-166.4h0.4c2.2,0,4,1.8,4,4v0.7c0,2.2-1.8,4-4,4h-0.4c-2.2,0-4-1.8-4-4
						v-0.7C-135.8-164.7-134-166.4-131.8-166.4z"/>
					<path id="Path_5397" fill="#0E71BB" d="M-162.3-27.1h52.8v43.9h-52.8c-2.6,0-4.7-2.1-4.7-4.7v-34.5
						C-167-25-164.9-27.1-162.3-27.1C-162.3-27.1-162.3-27.1-162.3-27.1z"/>
					<path id="Rectangle_2491" fill="#21E2E2" d="M-143.8-8.9L-143.8-8.9c2.3,0,4.2,1.9,4.2,4.2v0.3c0,2.3-1.9,4.2-4.2,4.2l0,0
						c-2.3,0-4.2-1.9-4.2-4.2v-0.3C-148-7-146.1-8.9-143.8-8.9z"/>
					<path id="Rectangle_2492" fill="#FFBC98" d="M-131.8-8.9h0.4c2.2,0,4,1.8,4,4v0.7c0,2.2-1.8,4-4,4h-0.4c-2.2,0-4-1.8-4-4v-0.7
						C-135.8-7.1-134-8.9-131.8-8.9z"/>
				</g>
			</g>
		</g>
	</g>
	<g id="Group_6210" transform="translate(-13041.826 -20618.18)">
		<g id="Group_5584-2" transform="translate(0 0)">
			<path id="Rectangle_1405-4" fill="#379CE6" d="M-163.9-166.4L-163.9-166.4c1.7,0,3.1,1.4,3.1,3.1l0,0c0,1.7-1.4,3.1-3.1,3.1l0,0
				c-1.7,0-3.1-1.4-3.1-3.1l0,0C-167-165.1-165.6-166.4-163.9-166.4z"/>
			<path id="Rectangle_1424-4" fill="#379CE6" d="M-156.5-154.1L-156.5-154.1c1.7,0,3.1,1.4,3.1,3.1l0,0c0,1.7-1.4,3.1-3.1,3.1l0,0
				c-1.7,0-3.1-1.4-3.1-3.1l0,0C-159.6-152.7-158.2-154.1-156.5-154.1z"/>
			<path id="Rectangle_1410-4" fill="#379CE6" d="M-102-166.4L-102-166.4c1.7,0,3.1,1.4,3.1,3.1l0,0c0,1.7-1.4,3.1-3.1,3.1l0,0
				c-1.7,0-3.1-1.4-3.1-3.1l0,0C-105.1-165.1-103.8-166.4-102-166.4z"/>
			<path id="Rectangle_1419-4" fill="#379CE6" d="M-94.6-154.1L-94.6-154.1c1.7,0,3.1,1.4,3.1,3.1l0,0c0,1.7-1.4,3.1-3.1,3.1l0,0
				c-1.7,0-3.1-1.4-3.1-3.1l0,0C-97.7-152.7-96.3-154.1-94.6-154.1z"/>
			<path id="Rectangle_1406-4" fill="#379CE6" d="M-151.5-166.4L-151.5-166.4c1.7,0,3.1,1.4,3.1,3.1l0,0c0,1.7-1.4,3.1-3.1,3.1l0,0
				c-1.7,0-3.1-1.4-3.1-3.1l0,0C-154.6-165.1-153.2-166.4-151.5-166.4z"/>
			<path id="Rectangle_1423-4" fill="#379CE6" d="M-144.1-154.1L-144.1-154.1c1.7,0,3.1,1.4,3.1,3.1l0,0c0,1.7-1.4,3.1-3.1,3.1l0,0
				c-1.7,0-3.1-1.4-3.1-3.1l0,0C-147.2-152.7-145.8-154.1-144.1-154.1z"/>
			<path id="Rectangle_1407-4" fill="#379CE6" d="M-139.2-166.4L-139.2-166.4c1.7,0,3.1,1.4,3.1,3.1l0,0c0,1.7-1.4,3.1-3.1,3.1l0,0
				c-1.7,0-3.1-1.4-3.1-3.1l0,0C-142.3-165.1-140.9-166.4-139.2-166.4z"/>
			<path id="Rectangle_1422-4" fill="#379CE6" d="M-131.7-154.1L-131.7-154.1c1.7,0,3.1,1.4,3.1,3.1l0,0c0,1.7-1.4,3.1-3.1,3.1l0,0
				c-1.7,0-3.1-1.4-3.1-3.1l0,0C-134.8-152.7-133.4-154.1-131.7-154.1z"/>
			<path id="Rectangle_1408-4" fill="#379CE6" d="M-126.8-166.4L-126.8-166.4c1.7,0,3.1,1.4,3.1,3.1l0,0c0,1.7-1.4,3.1-3.1,3.1l0,0
				c-1.7,0-3.1-1.4-3.1-3.1l0,0C-129.9-165.1-128.5-166.4-126.8-166.4z"/>
			<path id="Rectangle_1421-4" fill="#379CE6" d="M-119.4-154.1L-119.4-154.1c1.7,0,3.1,1.4,3.1,3.1l0,0c0,1.7-1.4,3.1-3.1,3.1l0,0
				c-1.7,0-3.1-1.4-3.1-3.1l0,0C-122.5-152.7-121.1-154.1-119.4-154.1z"/>
			<path id="Rectangle_1409-4" fill="#379CE6" d="M-114.4-166.4L-114.4-166.4c1.7,0,3.1,1.4,3.1,3.1l0,0c0,1.7-1.4,3.1-3.1,3.1l0,0
				c-1.7,0-3.1-1.4-3.1-3.1l0,0C-117.5-165.1-116.1-166.4-114.4-166.4z"/>
			<path id="Rectangle_1420-4" fill="#379CE6" d="M-107-154.1L-107-154.1c1.7,0,3.1,1.4,3.1,3.1l0,0c0,1.7-1.4,3.1-3.1,3.1l0,0
				c-1.7,0-3.1-1.4-3.1-3.1l0,0C-110.1-152.7-108.7-154.1-107-154.1z"/>
		</g>
	</g>
	<g id="Group_6211" transform="translate(-13041.826 -20671.18)">
		<g id="Group_5584-3" transform="translate(0 0)">
			<path id="Rectangle_1405-5" fill="#379CE6" d="M-163.9-166.4L-163.9-166.4c1.7,0,3.1,1.4,3.1,3.1l0,0c0,1.7-1.4,3.1-3.1,3.1l0,0
				c-1.7,0-3.1-1.4-3.1-3.1l0,0C-167-165.1-165.6-166.4-163.9-166.4z"/>
			<path id="Rectangle_1424-5" fill="#379CE6" d="M-156.5-154.1L-156.5-154.1c1.7,0,3.1,1.4,3.1,3.1l0,0c0,1.7-1.4,3.1-3.1,3.1l0,0
				c-1.7,0-3.1-1.4-3.1-3.1l0,0C-159.6-152.7-158.2-154.1-156.5-154.1z"/>
			<path id="Rectangle_1410-5" fill="#379CE6" d="M-102-166.4L-102-166.4c1.7,0,3.1,1.4,3.1,3.1l0,0c0,1.7-1.4,3.1-3.1,3.1l0,0
				c-1.7,0-3.1-1.4-3.1-3.1l0,0C-105.1-165.1-103.8-166.4-102-166.4z"/>
			<path id="Rectangle_1419-5" fill="#379CE6" d="M-94.6-154.1L-94.6-154.1c1.7,0,3.1,1.4,3.1,3.1l0,0c0,1.7-1.4,3.1-3.1,3.1l0,0
				c-1.7,0-3.1-1.4-3.1-3.1l0,0C-97.7-152.7-96.3-154.1-94.6-154.1z"/>
			<path id="Rectangle_1406-5" fill="#379CE6" d="M-151.5-166.4L-151.5-166.4c1.7,0,3.1,1.4,3.1,3.1l0,0c0,1.7-1.4,3.1-3.1,3.1l0,0
				c-1.7,0-3.1-1.4-3.1-3.1l0,0C-154.6-165.1-153.2-166.4-151.5-166.4z"/>
			<path id="Rectangle_1423-5" fill="#379CE6" d="M-144.1-154.1L-144.1-154.1c1.7,0,3.1,1.4,3.1,3.1l0,0c0,1.7-1.4,3.1-3.1,3.1l0,0
				c-1.7,0-3.1-1.4-3.1-3.1l0,0C-147.2-152.7-145.8-154.1-144.1-154.1z"/>
			<path id="Rectangle_1407-5" fill="#379CE6" d="M-139.2-166.4L-139.2-166.4c1.7,0,3.1,1.4,3.1,3.1l0,0c0,1.7-1.4,3.1-3.1,3.1l0,0
				c-1.7,0-3.1-1.4-3.1-3.1l0,0C-142.3-165.1-140.9-166.4-139.2-166.4z"/>
			<path id="Rectangle_1422-5" fill="#379CE6" d="M-131.7-154.1L-131.7-154.1c1.7,0,3.1,1.4,3.1,3.1l0,0c0,1.7-1.4,3.1-3.1,3.1l0,0
				c-1.7,0-3.1-1.4-3.1-3.1l0,0C-134.8-152.7-133.4-154.1-131.7-154.1z"/>
			<path id="Rectangle_1408-5" fill="#379CE6" d="M-126.8-166.4L-126.8-166.4c1.7,0,3.1,1.4,3.1,3.1l0,0c0,1.7-1.4,3.1-3.1,3.1l0,0
				c-1.7,0-3.1-1.4-3.1-3.1l0,0C-129.9-165.1-128.5-166.4-126.8-166.4z"/>
			<path id="Rectangle_1421-5" fill="#379CE6" d="M-119.4-154.1L-119.4-154.1c1.7,0,3.1,1.4,3.1,3.1l0,0c0,1.7-1.4,3.1-3.1,3.1l0,0
				c-1.7,0-3.1-1.4-3.1-3.1l0,0C-122.5-152.7-121.1-154.1-119.4-154.1z"/>
			<path id="Rectangle_1409-5" fill="#379CE6" d="M-114.4-166.4L-114.4-166.4c1.7,0,3.1,1.4,3.1,3.1l0,0c0,1.7-1.4,3.1-3.1,3.1l0,0
				c-1.7,0-3.1-1.4-3.1-3.1l0,0C-117.5-165.1-116.1-166.4-114.4-166.4z"/>
			<path id="Rectangle_1420-5" fill="#379CE6" d="M-107-154.1L-107-154.1c1.7,0,3.1,1.4,3.1,3.1l0,0c0,1.7-1.4,3.1-3.1,3.1l0,0
				c-1.7,0-3.1-1.4-3.1-3.1l0,0C-110.1-152.7-108.7-154.1-107-154.1z"/>
		</g>
	</g>
	<g id="Group_6212" transform="translate(-13041.826 -20725.18)">
		<g id="Group_5584-4" transform="translate(0 0)">
			<path id="Rectangle_1405-6" fill="#379CE6" d="M-163.9-166.4L-163.9-166.4c1.7,0,3.1,1.4,3.1,3.1l0,0c0,1.7-1.4,3.1-3.1,3.1l0,0
				c-1.7,0-3.1-1.4-3.1-3.1l0,0C-167-165.1-165.6-166.4-163.9-166.4z"/>
			<path id="Rectangle_1424-6" fill="#379CE6" d="M-156.5-154.1L-156.5-154.1c1.7,0,3.1,1.4,3.1,3.1l0,0c0,1.7-1.4,3.1-3.1,3.1l0,0
				c-1.7,0-3.1-1.4-3.1-3.1l0,0C-159.6-152.7-158.2-154.1-156.5-154.1z"/>
			<path id="Rectangle_1410-6" fill="#379CE6" d="M-102-166.4L-102-166.4c1.7,0,3.1,1.4,3.1,3.1l0,0c0,1.7-1.4,3.1-3.1,3.1l0,0
				c-1.7,0-3.1-1.4-3.1-3.1l0,0C-105.1-165.1-103.8-166.4-102-166.4z"/>
			<path id="Rectangle_1419-6" fill="#379CE6" d="M-94.6-154.1L-94.6-154.1c1.7,0,3.1,1.4,3.1,3.1l0,0c0,1.7-1.4,3.1-3.1,3.1l0,0
				c-1.7,0-3.1-1.4-3.1-3.1l0,0C-97.7-152.7-96.3-154.1-94.6-154.1z"/>
			<path id="Rectangle_1406-6" fill="#379CE6" d="M-151.5-166.4L-151.5-166.4c1.7,0,3.1,1.4,3.1,3.1l0,0c0,1.7-1.4,3.1-3.1,3.1l0,0
				c-1.7,0-3.1-1.4-3.1-3.1l0,0C-154.6-165.1-153.2-166.4-151.5-166.4z"/>
			<path id="Rectangle_1423-6" fill="#379CE6" d="M-144.1-154.1L-144.1-154.1c1.7,0,3.1,1.4,3.1,3.1l0,0c0,1.7-1.4,3.1-3.1,3.1l0,0
				c-1.7,0-3.1-1.4-3.1-3.1l0,0C-147.2-152.7-145.8-154.1-144.1-154.1z"/>
			<path id="Rectangle_1407-6" fill="#379CE6" d="M-139.2-166.4L-139.2-166.4c1.7,0,3.1,1.4,3.1,3.1l0,0c0,1.7-1.4,3.1-3.1,3.1l0,0
				c-1.7,0-3.1-1.4-3.1-3.1l0,0C-142.3-165.1-140.9-166.4-139.2-166.4z"/>
			<path id="Rectangle_1422-6" fill="#379CE6" d="M-131.7-154.1L-131.7-154.1c1.7,0,3.1,1.4,3.1,3.1l0,0c0,1.7-1.4,3.1-3.1,3.1l0,0
				c-1.7,0-3.1-1.4-3.1-3.1l0,0C-134.8-152.7-133.4-154.1-131.7-154.1z"/>
			<path id="Rectangle_1408-6" fill="#379CE6" d="M-126.8-166.4L-126.8-166.4c1.7,0,3.1,1.4,3.1,3.1l0,0c0,1.7-1.4,3.1-3.1,3.1l0,0
				c-1.7,0-3.1-1.4-3.1-3.1l0,0C-129.9-165.1-128.5-166.4-126.8-166.4z"/>
			<path id="Rectangle_1421-6" fill="#379CE6" d="M-119.4-154.1L-119.4-154.1c1.7,0,3.1,1.4,3.1,3.1l0,0c0,1.7-1.4,3.1-3.1,3.1l0,0
				c-1.7,0-3.1-1.4-3.1-3.1l0,0C-122.5-152.7-121.1-154.1-119.4-154.1z"/>
			<path id="Rectangle_1409-6" fill="#379CE6" d="M-114.4-166.4L-114.4-166.4c1.7,0,3.1,1.4,3.1,3.1l0,0c0,1.7-1.4,3.1-3.1,3.1l0,0
				c-1.7,0-3.1-1.4-3.1-3.1l0,0C-117.5-165.1-116.1-166.4-114.4-166.4z"/>
			<path id="Rectangle_1420-6" fill="#379CE6" d="M-107-154.1L-107-154.1c1.7,0,3.1,1.4,3.1,3.1l0,0c0,1.7-1.4,3.1-3.1,3.1l0,0
				c-1.7,0-3.1-1.4-3.1-3.1l0,0C-110.1-152.7-108.7-154.1-107-154.1z"/>
		</g>
	</g>
	<g id="Group_6213" transform="translate(-13040.2 -20746.977)">
		<g id="Group_5583-3" transform="translate(0)">
			<g id="Group_5582-3" transform="translate(0)">
				<g id="Group_5581-3" transform="translate(0)">
					<rect id="Rectangle_1565-2" x="-157" y="-121.1" fill="#164571" width="150" height="14.7"/>
					<path id="Path_3764-2" fill="#0E71BB" d="M-161.3-166.4H-2.7c3.1,0,5.7,2.5,5.7,5.7l0,0v36.3c0,3.1-2.5,5.7-5.7,5.7l0,0h-158.7
						c-3.1,0-5.7-2.5-5.7-5.7c0,0,0,0,0,0v-36.3C-167-163.9-164.5-166.4-161.3-166.4C-161.3-166.4-161.3-166.4-161.3-166.4z"/>
					<rect id="Rectangle_1567-2" x="-157" y="-65.6" fill="#164571" width="150" height="17"/>
					<path id="Rectangle_1631" fill="#005B9F" d="M-163-166.4h58.3l0,0v47.6l0,0H-163c-2.2,0-4-1.8-4-4v-39.6
						C-167-164.7-165.2-166.4-163-166.4z"/>
					<g id="Group_104-3" transform="translate(70.584 74.792)">
						<path id="Rectangle_1405-7" fill="#288ED9" d="M-165-166.4L-165-166.4c1.1,0,2,0.9,2,2l0,0c0,1.1-0.9,2-2,2l0,0
							c-1.1,0-2-0.9-2-2l0,0C-167-165.5-166.1-166.4-165-166.4z"/>
						<path id="Rectangle_1424-7" fill="#288ED9" d="M-160.1-158.4L-160.1-158.4c1.1,0,2,0.9,2,2l0,0c0,1.1-0.9,2-2,2l0,0
							c-1.1,0-2-0.9-2-2l0,0C-162.1-157.4-161.2-158.4-160.1-158.4z"/>
						<path id="Rectangle_1410-7" fill="#288ED9" d="M-124.5-166.4L-124.5-166.4c1.1,0,2,0.9,2,2l0,0c0,1.1-0.9,2-2,2l0,0
							c-1.1,0-2-0.9-2-2l0,0C-126.5-165.5-125.6-166.4-124.5-166.4z"/>
						<path id="Rectangle_1419-7" fill="#288ED9" d="M-119.6-158.4L-119.6-158.4c1.1,0,2,0.9,2,2l0,0c0,1.1-0.9,2-2,2l0,0
							c-1.1,0-2-0.9-2-2l0,0C-121.7-157.4-120.8-158.4-119.6-158.4z"/>
						<path id="Rectangle_1406-7" fill="#288ED9" d="M-156.9-166.4L-156.9-166.4c1.1,0,2,0.9,2,2l0,0c0,1.1-0.9,2-2,2l0,0
							c-1.1,0-2-0.9-2-2l0,0C-158.9-165.5-158-166.4-156.9-166.4z"/>
						<path id="Rectangle_1423-7" fill="#288ED9" d="M-152-158.4L-152-158.4c1.1,0,2,0.9,2,2l0,0c0,1.1-0.9,2-2,2l0,0
							c-1.1,0-2-0.9-2-2l0,0C-154-157.4-153.1-158.4-152-158.4z"/>
						<path id="Rectangle_1411-3" fill="#288ED9" d="M-116.4-166.4L-116.4-166.4c1.1,0,2,0.9,2,2l0,0c0,1.1-0.9,2-2,2l0,0
							c-1.1,0-2-0.9-2-2l0,0C-118.4-165.5-117.5-166.4-116.4-166.4z"/>
						<path id="Rectangle_1418-3" fill="#288ED9" d="M-111.6-158.4L-111.6-158.4c1.1,0,2,0.9,2,2l0,0c0,1.1-0.9,2-2,2l0,0
							c-1.1,0-2-0.9-2-2l0,0C-113.6-157.4-112.7-158.4-111.6-158.4z"/>
						<path id="Rectangle_1407-7" fill="#288ED9" d="M-148.8-166.4L-148.8-166.4c1.1,0,2,0.9,2,2l0,0c0,1.1-0.9,2-2,2l0,0
							c-1.1,0-2-0.9-2-2l0,0C-150.8-165.5-149.9-166.4-148.8-166.4z"/>
						<path id="Rectangle_1422-7" fill="#288ED9" d="M-143.9-158.4L-143.9-158.4c1.1,0,2,0.9,2,2l0,0c0,1.1-0.9,2-2,2l0,0
							c-1.1,0-2-0.9-2-2l0,0C-146-157.4-145-158.4-143.9-158.4z"/>
						<path id="Rectangle_1412-3" fill="#288ED9" d="M-108.3-166.4L-108.3-166.4c1.1,0,2,0.9,2,2l0,0c0,1.1-0.9,2-2,2l0,0
							c-1.1,0-2-0.9-2-2l0,0C-110.3-165.5-109.4-166.4-108.3-166.4z"/>
						<path id="Rectangle_1417-3" fill="#288ED9" d="M-103.5-158.4L-103.5-158.4c1.1,0,2,0.9,2,2l0,0c0,1.1-0.9,2-2,2l0,0
							c-1.1,0-2-0.9-2-2l0,0C-105.5-157.4-104.6-158.4-103.5-158.4z"/>
						<path id="Rectangle_1408-7" fill="#288ED9" d="M-140.7-166.4L-140.7-166.4c1.1,0,2,0.9,2,2l0,0c0,1.1-0.9,2-2,2l0,0
							c-1.1,0-2-0.9-2-2l0,0C-142.7-165.5-141.8-166.4-140.7-166.4z"/>
						<path id="Rectangle_1421-7" fill="#288ED9" d="M-135.8-158.4L-135.8-158.4c1.1,0,2,0.9,2,2l0,0c0,1.1-0.9,2-2,2l0,0
							c-1.1,0-2-0.9-2-2l0,0C-137.9-157.4-137-158.4-135.8-158.4z"/>
						<path id="Rectangle_1413-3" fill="#288ED9" d="M-100.2-166.4L-100.2-166.4c1.1,0,2,0.9,2,2l0,0c0,1.1-0.9,2-2,2l0,0
							c-1.1,0-2-0.9-2-2l0,0C-102.2-165.5-101.3-166.4-100.2-166.4z"/>
						<path id="Rectangle_1416-3" fill="#288ED9" d="M-95.4-158.4L-95.4-158.4c1.1,0,2,0.9,2,2l0,0c0,1.1-0.9,2-2,2l0,0
							c-1.1,0-2-0.9-2-2l0,0C-97.4-157.4-96.5-158.4-95.4-158.4z"/>
						<path id="Rectangle_1409-7" fill="#288ED9" d="M-132.6-166.4L-132.6-166.4c1.1,0,2,0.9,2,2l0,0c0,1.1-0.9,2-2,2l0,0
							c-1.1,0-2-0.9-2-2l0,0C-134.6-165.5-133.7-166.4-132.6-166.4z"/>
						<path id="Rectangle_1420-7" fill="#288ED9" d="M-127.7-158.4L-127.7-158.4c1.1,0,2,0.9,2,2l0,0c0,1.1-0.9,2-2,2l0,0
							c-1.1,0-2-0.9-2-2l0,0C-129.8-157.4-128.9-158.4-127.7-158.4z"/>
						<path id="Rectangle_1414-3" fill="#288ED9" d="M-92.1-166.4L-92.1-166.4c1.1,0,2,0.9,2,2l0,0c0,1.1-0.9,2-2,2l0,0
							c-1.1,0-2-0.9-2-2l0,0C-94.2-165.5-93.2-166.4-92.1-166.4z"/>
						<path id="Rectangle_1415-3" fill="#288ED9" d="M-87.3-158.4L-87.3-158.4c1.1,0,2,0.9,2,2l0,0c0,1.1-0.9,2-2,2l0,0
							c-1.1,0-2-0.9-2-2l0,0C-89.3-157.4-88.4-158.4-87.3-158.4z"/>
					</g>
					<path id="Rectangle_1634-2" fill="#0E71BB" d="M-162-109.8H-2c2.8,0,5,2.2,5,5v37.6c0,2.8-2.2,5-5,5h-160c-2.8,0-5-2.2-5-5
						v-37.6C-167-107.5-164.8-109.8-162-109.8z"/>
					<g id="Group_113-3" transform="translate(17.161 74.792)">
						<g id="Rectangle_1635-3" transform="translate(0 0)">
							<path fill="#21E2E2" d="M-160.8-166.4L-160.8-166.4c3.4,0,6.2,2.8,6.2,6.2v0.5c0,3.4-2.8,6.2-6.2,6.2l0,0
								c-3.4,0-6.2-2.8-6.2-6.2v-0.5C-167-163.7-164.2-166.4-160.8-166.4z"/>
							<path fill="none" stroke="#137FCF" stroke-width="2" d="M-160.8-165.4L-160.8-165.4c2.9,0,5.2,2.3,5.2,5.2v0.5
								c0,2.9-2.3,5.2-5.2,5.2l0,0c-2.9,0-5.2-2.3-5.2-5.2v-0.5C-166-163.1-163.7-165.4-160.8-165.4z"/>
						</g>
						<g id="Rectangle_1636-3" transform="translate(18.131 0)">
							<path fill="#FFBC98" d="M-160.8-166.4L-160.8-166.4c3.4,0,6.2,2.8,6.2,6.2v0.5c0,3.4-2.8,6.2-6.2,6.2l0,0
								c-3.4,0-6.2-2.8-6.2-6.2v-0.5C-167-163.7-164.2-166.4-160.8-166.4z"/>
							<path fill="none" stroke="#137FCF" stroke-width="2" d="M-160.8-165.4L-160.8-165.4c2.9,0,5.2,2.3,5.2,5.2v0.5
								c0,2.9-2.3,5.2-5.2,5.2l0,0c-2.9,0-5.2-2.3-5.2-5.2v-0.5C-166-163.1-163.7-165.4-160.8-165.4z"/>
						</g>
					</g>
					<path id="Rectangle_1638" fill="#0E71BB" d="M-162-53.1H-2c2.8,0,5,2.2,5,5v37.6c0,2.8-2.2,5-5,5h-160c-2.8,0-5-2.2-5-5v-37.6
						C-167-50.9-164.8-53.1-162-53.1z"/>
					<path id="Path_5065" fill="#005B9F" d="M-162.3-109.8h57.6v47.6h-57.6c-2.6,0-4.7-2.1-4.7-4.7c0,0,0,0,0,0v-38.1
						C-167-107.7-164.9-109.8-162.3-109.8C-162.3-109.8-162.3-109.8-162.3-109.8z"/>
					<g id="Group_115" transform="translate(18.739 76.313)">
						<path id="Rectangle_1425-2" fill="#21E2E2" d="M-162-166.4L-162-166.4c2.7,0,5,2.2,5,5v0.4c0,2.7-2.2,5-5,5h0
							c-2.7,0-5-2.2-5-5v-0.4C-167-164.2-164.8-166.4-162-166.4z"/>
						<path id="Rectangle_1442-2" fill="#FFBC98" d="M-147.6-166.4L-147.6-166.4c2.7,0,5,2.2,5,5v0.4c0,2.7-2.2,5-5,5h0
							c-2.7,0-5-2.2-5-5v-0.4C-152.6-164.2-150.4-166.4-147.6-166.4z"/>
					</g>
					<g id="Group_5597" transform="translate(18.738 21.087)">
						<path id="Rectangle_1425-3" fill="#21E2E2" d="M-162-166.4L-162-166.4c2.7,0,5,2.2,5,5v0.4c0,2.7-2.2,5-5,5h0
							c-2.7,0-5-2.2-5-5v-0.4C-167-164.2-164.8-166.4-162-166.4z"/>
						<path id="Rectangle_1442-3" fill="#FFBC98" d="M-147.6-166.4L-147.6-166.4c2.7,0,5,2.2,5,5v0.4c0,2.7-2.2,5-5,5h0
							c-2.7,0-5-2.2-5-5v-0.4C-152.6-164.2-150.4-166.4-147.6-166.4z"/>
					</g>
					<path id="Path_5396" fill="#005B9F" d="M-162.3-53.4h57.6v47.6h-57.6c-2.6,0-4.7-2.1-4.7-4.7c0,0,0,0,0,0v-38.1
						C-167-51.3-164.9-53.4-162.3-53.4C-162.3-53.4-162.3-53.4-162.3-53.4z"/>
					<g id="Group_5703" transform="translate(18.738 132.676)">
						<path id="Rectangle_1425-4" fill="#21E2E2" d="M-162-166.4L-162-166.4c2.7,0,5,2.2,5,5v0.4c0,2.7-2.2,5-5,5h0
							c-2.7,0-5-2.2-5-5v-0.4C-167-164.2-164.8-166.4-162-166.4z"/>
						<path id="Rectangle_1442-4" fill="#FFBC98" d="M-147.6-166.4L-147.6-166.4c2.7,0,5,2.2,5,5v0.4c0,2.7-2.2,5-5,5h0
							c-2.7,0-5-2.2-5-5v-0.4C-152.6-164.2-150.4-166.4-147.6-166.4z"/>
					</g>
				</g>
			</g>
		</g>
		<g id="Group_5702" transform="translate(74.156 128.068)">
			<g id="Group_5584-5" transform="translate(0 0)">
				<path id="Rectangle_1405-8" fill="#52ACEA" d="M-163.6-166.4L-163.6-166.4c1.9,0,3.4,1.5,3.4,3.4l0,0c0,1.9-1.5,3.4-3.4,3.4l0,0
					c-1.9,0-3.4-1.5-3.4-3.4l0,0C-167-164.9-165.5-166.4-163.6-166.4z"/>
				<path id="Rectangle_1424-8" fill="#52ACEA" d="M-155.6-153L-155.6-153c1.9,0,3.4,1.5,3.4,3.4l0,0c0,1.9-1.5,3.4-3.4,3.4l0,0
					c-1.9,0-3.4-1.5-3.4-3.4l0,0C-159-151.5-157.5-153-155.6-153z"/>
				<path id="Rectangle_1410-8" fill="#52ACEA" d="M-96.6-166.4L-96.6-166.4c1.9,0,3.4,1.5,3.4,3.4l0,0c0,1.9-1.5,3.4-3.4,3.4l0,0
					c-1.9,0-3.4-1.5-3.4-3.4l0,0C-100-164.9-98.5-166.4-96.6-166.4z"/>
				<path id="Rectangle_1419-8" fill="#52ACEA" d="M-88.6-153L-88.6-153c1.9,0,3.4,1.5,3.4,3.4l0,0c0,1.9-1.5,3.4-3.4,3.4l0,0
					c-1.9,0-3.4-1.5-3.4-3.4l0,0C-91.9-151.5-90.4-153-88.6-153z"/>
				<path id="Rectangle_1406-8" fill="#52ACEA" d="M-150.2-166.4L-150.2-166.4c1.9,0,3.4,1.5,3.4,3.4l0,0c0,1.9-1.5,3.4-3.4,3.4l0,0
					c-1.9,0-3.4-1.5-3.4-3.4l0,0C-153.6-164.9-152.1-166.4-150.2-166.4z"/>
				<path id="Rectangle_1423-8" fill="#52ACEA" d="M-142.2-153L-142.2-153c1.9,0,3.4,1.5,3.4,3.4l0,0c0,1.9-1.5,3.4-3.4,3.4l0,0
					c-1.9,0-3.4-1.5-3.4-3.4l0,0C-145.6-151.5-144.1-153-142.2-153z"/>
				<path id="Rectangle_1407-8" fill="#52ACEA" d="M-136.8-166.4L-136.8-166.4c1.9,0,3.4,1.5,3.4,3.4l0,0c0,1.9-1.5,3.4-3.4,3.4l0,0
					c-1.9,0-3.4-1.5-3.4-3.4l0,0C-140.2-164.9-138.7-166.4-136.8-166.4z"/>
				<path id="Rectangle_1422-8" fill="#52ACEA" d="M-128.8-153L-128.8-153c1.9,0,3.4,1.5,3.4,3.4l0,0c0,1.9-1.5,3.4-3.4,3.4l0,0
					c-1.9,0-3.4-1.5-3.4-3.4l0,0C-132.2-151.5-130.7-153-128.8-153z"/>
				<path id="Rectangle_1408-8" fill="#52ACEA" d="M-123.4-166.4L-123.4-166.4c1.9,0,3.4,1.5,3.4,3.4l0,0c0,1.9-1.5,3.4-3.4,3.4l0,0
					c-1.9,0-3.4-1.5-3.4-3.4l0,0C-126.8-164.9-125.3-166.4-123.4-166.4z"/>
				<path id="Rectangle_1421-8" fill="#52ACEA" d="M-115.4-153L-115.4-153c1.9,0,3.4,1.5,3.4,3.4l0,0c0,1.9-1.5,3.4-3.4,3.4l0,0
					c-1.9,0-3.4-1.5-3.4-3.4l0,0C-118.8-151.5-117.3-153-115.4-153z"/>
				<path id="Rectangle_1409-8" fill="#52ACEA" d="M-110-166.4L-110-166.4c1.9,0,3.4,1.5,3.4,3.4l0,0c0,1.9-1.5,3.4-3.4,3.4l0,0
					c-1.9,0-3.4-1.5-3.4-3.4l0,0C-113.4-164.9-111.9-166.4-110-166.4z"/>
				<path id="Rectangle_1420-8" fill="#52ACEA" d="M-102-153L-102-153c1.9,0,3.4,1.5,3.4,3.4l0,0c0,1.9-1.5,3.4-3.4,3.4l0,0
					c-1.9,0-3.4-1.5-3.4-3.4l0,0C-105.3-151.5-103.8-153-102-153z"/>
			</g>
		</g>
		<g id="Group_5709" transform="translate(74.156 70.578)">
			<g id="Group_5584-6" transform="translate(0 0)">
				<path id="Rectangle_1405-9" fill="#52ACEA" d="M-163.6-166.4L-163.6-166.4c1.9,0,3.4,1.5,3.4,3.4l0,0c0,1.9-1.5,3.4-3.4,3.4l0,0
					c-1.9,0-3.4-1.5-3.4-3.4l0,0C-167-164.9-165.5-166.4-163.6-166.4z"/>
				<path id="Rectangle_1424-9" fill="#52ACEA" d="M-155.6-153L-155.6-153c1.9,0,3.4,1.5,3.4,3.4l0,0c0,1.9-1.5,3.4-3.4,3.4l0,0
					c-1.9,0-3.4-1.5-3.4-3.4l0,0C-159-151.5-157.5-153-155.6-153z"/>
				<path id="Rectangle_1410-9" fill="#52ACEA" d="M-96.6-166.4L-96.6-166.4c1.9,0,3.4,1.5,3.4,3.4l0,0c0,1.9-1.5,3.4-3.4,3.4l0,0
					c-1.9,0-3.4-1.5-3.4-3.4l0,0C-100-164.9-98.5-166.4-96.6-166.4z"/>
				<path id="Rectangle_1419-9" fill="#52ACEA" d="M-88.6-153L-88.6-153c1.9,0,3.4,1.5,3.4,3.4l0,0c0,1.9-1.5,3.4-3.4,3.4l0,0
					c-1.9,0-3.4-1.5-3.4-3.4l0,0C-91.9-151.5-90.4-153-88.6-153z"/>
				<path id="Rectangle_1406-9" fill="#52ACEA" d="M-150.2-166.4L-150.2-166.4c1.9,0,3.4,1.5,3.4,3.4l0,0c0,1.9-1.5,3.4-3.4,3.4l0,0
					c-1.9,0-3.4-1.5-3.4-3.4l0,0C-153.6-164.9-152.1-166.4-150.2-166.4z"/>
				<path id="Rectangle_1423-9" fill="#52ACEA" d="M-142.2-153L-142.2-153c1.9,0,3.4,1.5,3.4,3.4l0,0c0,1.9-1.5,3.4-3.4,3.4l0,0
					c-1.9,0-3.4-1.5-3.4-3.4l0,0C-145.6-151.5-144.1-153-142.2-153z"/>
				<path id="Rectangle_1407-9" fill="#52ACEA" d="M-136.8-166.4L-136.8-166.4c1.9,0,3.4,1.5,3.4,3.4l0,0c0,1.9-1.5,3.4-3.4,3.4l0,0
					c-1.9,0-3.4-1.5-3.4-3.4l0,0C-140.2-164.9-138.7-166.4-136.8-166.4z"/>
				<path id="Rectangle_1422-9" fill="#52ACEA" d="M-128.8-153L-128.8-153c1.9,0,3.4,1.5,3.4,3.4l0,0c0,1.9-1.5,3.4-3.4,3.4l0,0
					c-1.9,0-3.4-1.5-3.4-3.4l0,0C-132.2-151.5-130.7-153-128.8-153z"/>
				<path id="Rectangle_1408-9" fill="#52ACEA" d="M-123.4-166.4L-123.4-166.4c1.9,0,3.4,1.5,3.4,3.4l0,0c0,1.9-1.5,3.4-3.4,3.4l0,0
					c-1.9,0-3.4-1.5-3.4-3.4l0,0C-126.8-164.9-125.3-166.4-123.4-166.4z"/>
				<path id="Rectangle_1421-9" fill="#52ACEA" d="M-115.4-153L-115.4-153c1.9,0,3.4,1.5,3.4,3.4l0,0c0,1.9-1.5,3.4-3.4,3.4l0,0
					c-1.9,0-3.4-1.5-3.4-3.4l0,0C-118.8-151.5-117.3-153-115.4-153z"/>
				<path id="Rectangle_1409-9" fill="#52ACEA" d="M-110-166.4L-110-166.4c1.9,0,3.4,1.5,3.4,3.4l0,0c0,1.9-1.5,3.4-3.4,3.4l0,0
					c-1.9,0-3.4-1.5-3.4-3.4l0,0C-113.4-164.9-111.9-166.4-110-166.4z"/>
				<path id="Rectangle_1420-9" fill="#52ACEA" d="M-102-153L-102-153c1.9,0,3.4,1.5,3.4,3.4l0,0c0,1.9-1.5,3.4-3.4,3.4l0,0
					c-1.9,0-3.4-1.5-3.4-3.4l0,0C-105.3-151.5-103.8-153-102-153z"/>
			</g>
		</g>
		<g id="Group_5710" transform="translate(74.156 14.216)">
			<g id="Group_5584-7" transform="translate(0 0)">
				<path id="Rectangle_1405-10" fill="#52ACEA" d="M-163.6-166.4L-163.6-166.4c1.9,0,3.4,1.5,3.4,3.4l0,0c0,1.9-1.5,3.4-3.4,3.4
					l0,0c-1.9,0-3.4-1.5-3.4-3.4l0,0C-167-164.9-165.5-166.4-163.6-166.4z"/>
				<path id="Rectangle_1424-10" fill="#52ACEA" d="M-155.6-153L-155.6-153c1.9,0,3.4,1.5,3.4,3.4l0,0c0,1.9-1.5,3.4-3.4,3.4l0,0
					c-1.9,0-3.4-1.5-3.4-3.4l0,0C-159-151.5-157.5-153-155.6-153z"/>
				<path id="Rectangle_1410-10" fill="#52ACEA" d="M-96.6-166.4L-96.6-166.4c1.9,0,3.4,1.5,3.4,3.4l0,0c0,1.9-1.5,3.4-3.4,3.4l0,0
					c-1.9,0-3.4-1.5-3.4-3.4l0,0C-100-164.9-98.5-166.4-96.6-166.4z"/>
				<path id="Rectangle_1419-10" fill="#52ACEA" d="M-88.6-153L-88.6-153c1.9,0,3.4,1.5,3.4,3.4l0,0c0,1.9-1.5,3.4-3.4,3.4l0,0
					c-1.9,0-3.4-1.5-3.4-3.4l0,0C-91.9-151.5-90.4-153-88.6-153z"/>
				<path id="Rectangle_1406-10" fill="#52ACEA" d="M-150.2-166.4L-150.2-166.4c1.9,0,3.4,1.5,3.4,3.4l0,0c0,1.9-1.5,3.4-3.4,3.4
					l0,0c-1.9,0-3.4-1.5-3.4-3.4l0,0C-153.6-164.9-152.1-166.4-150.2-166.4z"/>
				<path id="Rectangle_1423-10" fill="#52ACEA" d="M-142.2-153L-142.2-153c1.9,0,3.4,1.5,3.4,3.4l0,0c0,1.9-1.5,3.4-3.4,3.4l0,0
					c-1.9,0-3.4-1.5-3.4-3.4l0,0C-145.6-151.5-144.1-153-142.2-153z"/>
				<path id="Rectangle_1407-10" fill="#52ACEA" d="M-136.8-166.4L-136.8-166.4c1.9,0,3.4,1.5,3.4,3.4l0,0c0,1.9-1.5,3.4-3.4,3.4
					l0,0c-1.9,0-3.4-1.5-3.4-3.4l0,0C-140.2-164.9-138.7-166.4-136.8-166.4z"/>
				<path id="Rectangle_1422-10" fill="#52ACEA" d="M-128.8-153L-128.8-153c1.9,0,3.4,1.5,3.4,3.4l0,0c0,1.9-1.5,3.4-3.4,3.4l0,0
					c-1.9,0-3.4-1.5-3.4-3.4l0,0C-132.2-151.5-130.7-153-128.8-153z"/>
				<path id="Rectangle_1408-10" fill="#52ACEA" d="M-123.4-166.4L-123.4-166.4c1.9,0,3.4,1.5,3.4,3.4l0,0c0,1.9-1.5,3.4-3.4,3.4
					l0,0c-1.9,0-3.4-1.5-3.4-3.4l0,0C-126.8-164.9-125.3-166.4-123.4-166.4z"/>
				<path id="Rectangle_1421-10" fill="#52ACEA" d="M-115.4-153L-115.4-153c1.9,0,3.4,1.5,3.4,3.4l0,0c0,1.9-1.5,3.4-3.4,3.4l0,0
					c-1.9,0-3.4-1.5-3.4-3.4l0,0C-118.8-151.5-117.3-153-115.4-153z"/>
				<path id="Rectangle_1409-10" fill="#52ACEA" d="M-110-166.4L-110-166.4c1.9,0,3.4,1.5,3.4,3.4l0,0c0,1.9-1.5,3.4-3.4,3.4l0,0
					c-1.9,0-3.4-1.5-3.4-3.4l0,0C-113.4-164.9-111.9-166.4-110-166.4z"/>
				<path id="Rectangle_1420-10" fill="#52ACEA" d="M-102-153L-102-153c1.9,0,3.4,1.5,3.4,3.4l0,0c0,1.9-1.5,3.4-3.4,3.4l0,0
					c-1.9,0-3.4-1.5-3.4-3.4l0,0C-105.3-151.5-103.8-153-102-153z"/>
			</g>
		</g>
	</g>
</g>
</svg>
