<?xml version="1.0" encoding="utf-8"?>
<!-- Generator: Adobe Illustrator 21.0.0, SVG Export Plug-In . SVG Version: 6.00 Build 0)  -->
<svg version="1.1" id="Layer_1" xmlns="http://www.w3.org/2000/svg" xmlns:xlink="http://www.w3.org/1999/xlink" x="0px" y="0px"
	 viewBox="0 0 310.5 247.7" enable-background="new 0 0 310.5 247.7" xml:space="preserve">
<g id="Group_8117" transform="translate(-9051 -2596)">
	
		<linearGradient id="Path_6241_1_" gradientUnits="userSpaceOnUse" x1="8934.4873" y1="3108.0496" x2="8934.4736" y2="3109.3225" gradientTransform="matrix(284.3767 34.9171 26.1209 -212.7378 -2612754.75 352100.7813)">
		<stop  offset="0" style="stop-color:#C6E6FF"/>
		<stop  offset="1" style="stop-color:#FFFFFF"/>
	</linearGradient>
	<path id="Path_6241" fill="url(#Path_6241_1_)" d="M9197.7,2630.3c-37,13.4-75,13.3-75,13.3s-69.9,11-57,78s15.5,89,47.9,94.7
		c30.8,4.7,41.6-6,71.9,0c26.6,5.4,69,7.7,116-4.5C9377.3,2788.9,9376.5,2566.6,9197.7,2630.3z"/>
	<g id="Group_8089" transform="translate(3.743 -297)">
		<g id="Group_8048" transform="translate(-76 145.645)">
			<path id="Path_4233" opacity="0.576" fill="#C6E6FF" enable-background="new    " d="M9415.6,2796.9c-9,5.8-27.3-7.7-41.2,5.8
				c-13.9,13.6-19.4-10.7-37.1-11.5c-17.7-0.8,27-32.7,55.1-15.9c7.3,4.4,29.6-1.2,33.1,1.4
				C9435.2,2783.5,9424.6,2791.2,9415.6,2796.9z"/>
			<path id="Path_4234" opacity="0.435" fill="#C6E6FF" enable-background="new    " d="M9217,2890.7c-9-7.5-30.7,4.8-43.9-11.8
				c-13.2-16.6-22.5,9-41.8,7.6c-19.3-1.5,21,45.6,53.7,31.1c8.5-3.8,27.8-3.4,32-5.7C9228.4,2905.7,9225.9,2898.1,9217,2890.7z"/>
		</g>
	</g>
	
		<linearGradient id="Ellipse_1407_1_" gradientUnits="userSpaceOnUse" x1="8943.2764" y1="3033.8213" x2="8943.2764" y2="3031.8174" gradientTransform="matrix(219.644 0 0 -33.286 -1955131.25 103716.6563)">
		<stop  offset="0" style="stop-color:#288ED9"/>
		<stop  offset="1" style="stop-color:#137FCF;stop-opacity:5.100000e-02"/>
	</linearGradient>
	<ellipse id="Ellipse_1407" fill="url(#Ellipse_1407_1_)" cx="9205.8" cy="2782.9" rx="109.8" ry="16.6"/>
	<g id="Group_8106" transform="translate(89.714 126.903)">
		<g id="Group_6208" transform="translate(0 0)">
			<g id="Group_5583">
				<g id="Group_5582" transform="translate(0 0)">
					<g id="Group_5581">
						<rect id="Rectangle_1567" x="9031.4" y="2556.4" fill="#005B9F" width="86.7" height="9.7"/>
						<g id="Group_104" transform="translate(40.371 10.37)">
							<path id="Rectangle_1405" fill="#288ED9" d="M9027.2,2531.1L9027.2,2531.1c0.6,0,1.2,0.5,1.2,1.2v0c0,0.6-0.5,1.2-1.2,1.2h0
								c-0.6,0-1.2-0.5-1.2-1.2v0C9026,2531.6,9026.5,2531.1,9027.2,2531.1z"/>
							<path id="Rectangle_1424" fill="#288ED9" d="M9029.9,2535.7L9029.9,2535.7c0.6,0,1.2,0.5,1.2,1.2v0c0,0.6-0.5,1.2-1.2,1.2h0
								c-0.6,0-1.2-0.5-1.2-1.2v0C9028.8,2536.3,9029.3,2535.7,9029.9,2535.7z"/>
							<path id="Rectangle_1410" fill="#288ED9" d="M9050.3,2531.1L9050.3,2531.1c0.6,0,1.2,0.5,1.2,1.2v0c0,0.6-0.5,1.2-1.2,1.2h0
								c-0.6,0-1.2-0.5-1.2-1.2v0C9049.1,2531.6,9049.7,2531.1,9050.3,2531.1z"/>
							<path id="Rectangle_1419" fill="#288ED9" d="M9053.1,2535.7L9053.1,2535.7c0.6,0,1.2,0.5,1.2,1.2v0c0,0.6-0.5,1.2-1.2,1.2h0
								c-0.6,0-1.2-0.5-1.2-1.2v0C9051.9,2536.3,9052.4,2535.7,9053.1,2535.7z"/>
							<path id="Rectangle_1406" fill="#288ED9" d="M9031.8,2531.1L9031.8,2531.1c0.6,0,1.2,0.5,1.2,1.2v0c0,0.6-0.5,1.2-1.2,1.2h0
								c-0.6,0-1.2-0.5-1.2-1.2v0C9030.6,2531.6,9031.1,2531.1,9031.8,2531.1z"/>
							<path id="Rectangle_1423" fill="#288ED9" d="M9034.6,2535.7L9034.6,2535.7c0.6,0,1.2,0.5,1.2,1.2v0c0,0.6-0.5,1.2-1.2,1.2h0
								c-0.6,0-1.2-0.5-1.2-1.2v0C9033.4,2536.3,9033.9,2535.7,9034.6,2535.7z"/>
							<path id="Rectangle_1411" fill="#288ED9" d="M9054.9,2531.1L9054.9,2531.1c0.6,0,1.2,0.5,1.2,1.2v0c0,0.6-0.5,1.2-1.2,1.2h0
								c-0.6,0-1.2-0.5-1.2-1.2v0C9053.8,2531.6,9054.3,2531.1,9054.9,2531.1z"/>
							<path id="Rectangle_1418" fill="#288ED9" d="M9057.7,2535.7L9057.7,2535.7c0.6,0,1.2,0.5,1.2,1.2v0c0,0.6-0.5,1.2-1.2,1.2h0
								c-0.6,0-1.2-0.5-1.2-1.2v0C9056.6,2536.3,9057.1,2535.7,9057.7,2535.7z"/>
							<path id="Rectangle_1407" fill="#288ED9" d="M9036.4,2531.1L9036.4,2531.1c0.6,0,1.2,0.5,1.2,1.2v0c0,0.6-0.5,1.2-1.2,1.2h0
								c-0.6,0-1.2-0.5-1.2-1.2v0C9035.3,2531.6,9035.8,2531.1,9036.4,2531.1z"/>
							<path id="Rectangle_1422" fill="#288ED9" d="M9039.2,2535.7L9039.2,2535.7c0.6,0,1.2,0.5,1.2,1.2v0c0,0.6-0.5,1.2-1.2,1.2h0
								c-0.6,0-1.2-0.5-1.2-1.2v0C9038,2536.3,9038.6,2535.7,9039.2,2535.7z"/>
							<path id="Rectangle_1412" fill="#288ED9" d="M9059.6,2531.1L9059.6,2531.1c0.6,0,1.2,0.5,1.2,1.2v0c0,0.6-0.5,1.2-1.2,1.2h0
								c-0.6,0-1.2-0.5-1.2-1.2v0C9058.4,2531.6,9058.9,2531.1,9059.6,2531.1z"/>
							<path id="Rectangle_1417" fill="#288ED9" d="M9062.3,2535.7L9062.3,2535.7c0.6,0,1.2,0.5,1.2,1.2v0c0,0.6-0.5,1.2-1.2,1.2h0
								c-0.6,0-1.2-0.5-1.2-1.2v0C9061.2,2536.3,9061.7,2535.7,9062.3,2535.7z"/>
							<path id="Rectangle_1408" fill="#288ED9" d="M9041,2531.1L9041,2531.1c0.6,0,1.2,0.5,1.2,1.2v0c0,0.6-0.5,1.2-1.2,1.2h0
								c-0.6,0-1.2-0.5-1.2-1.2v0C9039.9,2531.6,9040.4,2531.1,9041,2531.1z"/>
							<path id="Rectangle_1421" fill="#288ED9" d="M9043.8,2535.7L9043.8,2535.7c0.6,0,1.2,0.5,1.2,1.2v0c0,0.6-0.5,1.2-1.2,1.2h0
								c-0.6,0-1.2-0.5-1.2-1.2v0C9042.7,2536.3,9043.2,2535.7,9043.8,2535.7z"/>
							<path id="Rectangle_1413" fill="#288ED9" d="M9064.2,2531.1L9064.2,2531.1c0.6,0,1.2,0.5,1.2,1.2v0c0,0.6-0.5,1.2-1.2,1.2h0
								c-0.6,0-1.2-0.5-1.2-1.2v0C9063,2531.6,9063.6,2531.1,9064.2,2531.1z"/>
							<path id="Rectangle_1416" fill="#288ED9" d="M9067,2535.7L9067,2535.7c0.6,0,1.2,0.5,1.2,1.2v0c0,0.6-0.5,1.2-1.2,1.2h0
								c-0.6,0-1.2-0.5-1.2-1.2v0C9065.8,2536.3,9066.3,2535.7,9067,2535.7z"/>
							<path id="Rectangle_1409" fill="#288ED9" d="M9045.7,2531.1L9045.7,2531.1c0.6,0,1.2,0.5,1.2,1.2v0c0,0.6-0.5,1.2-1.2,1.2h0
								c-0.6,0-1.2-0.5-1.2-1.2v0C9044.5,2531.6,9045,2531.1,9045.7,2531.1z"/>
							<path id="Rectangle_1420" fill="#288ED9" d="M9048.5,2535.7L9048.5,2535.7c0.6,0,1.2,0.5,1.2,1.2v0c0,0.6-0.5,1.2-1.2,1.2h0
								c-0.6,0-1.2-0.5-1.2-1.2v0C9047.3,2536.3,9047.8,2535.7,9048.5,2535.7z"/>
							<path id="Rectangle_1414" fill="#288ED9" d="M9068.8,2531.1L9068.8,2531.1c0.6,0,1.2,0.5,1.2,1.2v0c0,0.6-0.5,1.2-1.2,1.2h0
								c-0.6,0-1.2-0.5-1.2-1.2v0C9067.7,2531.6,9068.2,2531.1,9068.8,2531.1z"/>
							<path id="Rectangle_1415" fill="#288ED9" d="M9071.6,2535.7L9071.6,2535.7c0.6,0,1.2,0.5,1.2,1.2v0c0,0.6-0.5,1.2-1.2,1.2h0
								c-0.6,0-1.2-0.5-1.2-1.2v0C9070.4,2536.3,9071,2535.7,9071.6,2535.7z"/>
						</g>
						<path id="Rectangle_1634" fill="#2086D1" d="M9031,2531.1h87.2c2.8,0,5,2.2,5,5v17.2c0,2.8-2.2,5-5,5H9031c-2.8,0-5-2.2-5-5
							v-17.2C9026,2533.3,9028.2,2531.1,9031,2531.1z"/>
						<g id="Group_113" transform="translate(9.815 10.371)">
							<g id="Rectangle_1635" transform="translate(0 0)">
								<path fill="#21E2E2" d="M9029.6,2531.1L9029.6,2531.1c2,0,3.6,1.6,3.6,3.6v0.3c0,2-1.6,3.6-3.6,3.6l0,0
									c-2,0-3.6-1.6-3.6-3.6v-0.3C9026,2532.7,9027.6,2531.1,9029.6,2531.1z"/>
								<path fill="none" stroke="#137FCF" stroke-width="2" d="M9029.6,2532.1L9029.6,2532.1c1.4,0,2.6,1.1,2.6,2.6v0.3
									c0,1.4-1.1,2.6-2.6,2.6l0,0c-1.4,0-2.6-1.1-2.6-2.6v-0.3C9027,2533.3,9028.1,2532.1,9029.6,2532.1z"/>
							</g>
							<g id="Rectangle_1636" transform="translate(10.371 0)">
								<path fill="#FFBC98" d="M9029.6,2531.1L9029.6,2531.1c2,0,3.6,1.6,3.6,3.6v0.3c0,2-1.6,3.6-3.6,3.6l0,0
									c-2,0-3.6-1.6-3.6-3.6v-0.3C9026,2532.7,9027.6,2531.1,9029.6,2531.1z"/>
								<path fill="none" stroke="#137FCF" stroke-width="2" d="M9029.6,2532.1L9029.6,2532.1c1.4,0,2.6,1.1,2.6,2.6v0.3
									c0,1.4-1.1,2.6-2.6,2.6l0,0c-1.4,0-2.6-1.1-2.6-2.6v-0.3C9027,2533.3,9028.1,2532.1,9029.6,2532.1z"/>
							</g>
						</g>
						<path id="Rectangle_1640" fill="#1266A5" d="M9029,2531.1h32.6l0,0v27.2l0,0H9029c-1.7,0-3-1.3-3-3v-21.2
							C9026,2532.4,9027.3,2531.1,9029,2531.1z"/>
					</g>
				</g>
			</g>
			<g id="Group_5586" transform="translate(42.414 7.96)">
				<g id="Group_5584" transform="translate(0 0)">
					<path id="Rectangle_1405-2" fill="#379CE6" d="M9027.9,2531.1L9027.9,2531.1c1.1,0,1.9,0.9,1.9,1.9v0c0,1.1-0.9,1.9-1.9,1.9h0
						c-1.1,0-1.9-0.9-1.9-1.9v0C9026,2532,9026.9,2531.1,9027.9,2531.1z"/>
					<path id="Rectangle_1424-2" fill="#379CE6" d="M9032.5,2538.8L9032.5,2538.8c1.1,0,1.9,0.9,1.9,1.9v0c0,1.1-0.9,1.9-1.9,1.9h0
						c-1.1,0-1.9-0.9-1.9-1.9v0C9030.6,2539.6,9031.5,2538.8,9032.5,2538.8z"/>
					<path id="Rectangle_1410-2" fill="#379CE6" d="M9066.2,2531.1L9066.2,2531.1c1.1,0,1.9,0.9,1.9,1.9v0c0,1.1-0.9,1.9-1.9,1.9h0
						c-1.1,0-1.9-0.9-1.9-1.9v0C9064.3,2532,9065.2,2531.1,9066.2,2531.1z"/>
					<path id="Rectangle_1419-2" fill="#379CE6" d="M9070.8,2538.8L9070.8,2538.8c1.1,0,1.9,0.9,1.9,1.9v0c0,1.1-0.9,1.9-1.9,1.9h0
						c-1.1,0-1.9-0.9-1.9-1.9v0C9068.9,2539.6,9069.8,2538.8,9070.8,2538.8z"/>
					<path id="Rectangle_1406-2" fill="#379CE6" d="M9035.6,2531.1L9035.6,2531.1c1.1,0,1.9,0.9,1.9,1.9v0c0,1.1-0.9,1.9-1.9,1.9h0
						c-1.1,0-1.9-0.9-1.9-1.9v0C9033.7,2532,9034.5,2531.1,9035.6,2531.1z"/>
					<path id="Rectangle_1423-2" fill="#379CE6" d="M9040.2,2538.8L9040.2,2538.8c1.1,0,1.9,0.9,1.9,1.9v0c0,1.1-0.9,1.9-1.9,1.9h0
						c-1.1,0-1.9-0.9-1.9-1.9v0C9038.3,2539.6,9039.1,2538.8,9040.2,2538.8z"/>
					<path id="Rectangle_1407-2" fill="#379CE6" d="M9043.2,2531.1L9043.2,2531.1c1.1,0,1.9,0.9,1.9,1.9v0c0,1.1-0.9,1.9-1.9,1.9h0
						c-1.1,0-1.9-0.9-1.9-1.9v0C9041.3,2532,9042.2,2531.1,9043.2,2531.1z"/>
					<path id="Rectangle_1422-2" fill="#379CE6" d="M9047.8,2538.8L9047.8,2538.8c1.1,0,1.9,0.9,1.9,1.9v0c0,1.1-0.9,1.9-1.9,1.9h0
						c-1.1,0-1.9-0.9-1.9-1.9v0C9045.9,2539.6,9046.8,2538.8,9047.8,2538.8z"/>
					<path id="Rectangle_1408-2" fill="#379CE6" d="M9050.9,2531.1L9050.9,2531.1c1.1,0,1.9,0.9,1.9,1.9v0c0,1.1-0.9,1.9-1.9,1.9h0
						c-1.1,0-1.9-0.9-1.9-1.9v0C9049,2532,9049.9,2531.1,9050.9,2531.1z"/>
					<path id="Rectangle_1421-2" fill="#379CE6" d="M9055.5,2538.8L9055.5,2538.8c1.1,0,1.9,0.9,1.9,1.9v0c0,1.1-0.9,1.9-1.9,1.9h0
						c-1.1,0-1.9-0.9-1.9-1.9v0C9053.6,2539.6,9054.5,2538.8,9055.5,2538.8z"/>
					<path id="Rectangle_1409-2" fill="#379CE6" d="M9058.6,2531.1L9058.6,2531.1c1.1,0,1.9,0.9,1.9,1.9v0c0,1.1-0.9,1.9-1.9,1.9h0
						c-1.1,0-1.9-0.9-1.9-1.9v0C9056.7,2532,9057.5,2531.1,9058.6,2531.1z"/>
					<path id="Rectangle_1420-2" fill="#379CE6" d="M9063.2,2538.8L9063.2,2538.8c1.1,0,1.9,0.9,1.9,1.9v0c0,1.1-0.9,1.9-1.9,1.9h0
						c-1.1,0-1.9-0.9-1.9-1.9v0C9061.3,2539.6,9062.1,2538.8,9063.2,2538.8z"/>
				</g>
			</g>
		</g>
		<g id="Group_6209" transform="translate(0 11.598)">
			<g id="Group_5583-2" transform="translate(0 0)">
				<g id="Group_5582-2" transform="translate(0)">
					<g id="Group_5581-2">
						<rect id="Rectangle_1565" x="9031.4" y="2578.5" fill="#005B9F" width="86.7" height="8.4"/>
						<path id="Path_3764" fill="#2086D1" d="M9029.2,2552.6h90.7c1.8,0,3.2,1.5,3.2,3.2v20.7c0,1.8-1.5,3.2-3.2,3.2h-90.7
							c-1.8,0-3.2-1.5-3.2-3.2v-20.7C9026,2554,9027.5,2552.6,9029.2,2552.6z"/>
						<path id="Path_5064" fill="#005B9F" d="M9031.4,2610.3h86.7v9.7h-86.7V2610.3z"/>
						<g id="Group_104-2" transform="translate(40.371 64.27)">
							<path id="Rectangle_1405-3" fill="#288ED9" d="M9027.2,2531.1L9027.2,2531.1c0.6,0,1.2,0.5,1.2,1.2v0c0,0.6-0.5,1.2-1.2,1.2
								h0c-0.6,0-1.2-0.5-1.2-1.2v0C9026,2531.6,9026.5,2531.1,9027.2,2531.1z"/>
							<path id="Rectangle_1424-3" fill="#288ED9" d="M9029.9,2535.7L9029.9,2535.7c0.6,0,1.2,0.5,1.2,1.2v0c0,0.6-0.5,1.2-1.2,1.2
								h0c-0.6,0-1.2-0.5-1.2-1.2v0C9028.8,2536.3,9029.3,2535.7,9029.9,2535.7z"/>
							<path id="Rectangle_1410-3" fill="#288ED9" d="M9050.3,2531.1L9050.3,2531.1c0.6,0,1.2,0.5,1.2,1.2v0c0,0.6-0.5,1.2-1.2,1.2
								h0c-0.6,0-1.2-0.5-1.2-1.2v0C9049.1,2531.6,9049.7,2531.1,9050.3,2531.1z"/>
							<path id="Rectangle_1419-3" fill="#288ED9" d="M9053.1,2535.7L9053.1,2535.7c0.6,0,1.2,0.5,1.2,1.2v0c0,0.6-0.5,1.2-1.2,1.2
								h0c-0.6,0-1.2-0.5-1.2-1.2v0C9051.9,2536.3,9052.4,2535.7,9053.1,2535.7z"/>
							<path id="Rectangle_1406-3" fill="#288ED9" d="M9031.8,2531.1L9031.8,2531.1c0.6,0,1.2,0.5,1.2,1.2v0c0,0.6-0.5,1.2-1.2,1.2
								h0c-0.6,0-1.2-0.5-1.2-1.2v0C9030.6,2531.6,9031.1,2531.1,9031.8,2531.1z"/>
							<path id="Rectangle_1423-3" fill="#288ED9" d="M9034.6,2535.7L9034.6,2535.7c0.6,0,1.2,0.5,1.2,1.2v0c0,0.6-0.5,1.2-1.2,1.2
								h0c-0.6,0-1.2-0.5-1.2-1.2v0C9033.4,2536.3,9033.9,2535.7,9034.6,2535.7z"/>
							<path id="Rectangle_1411-2" fill="#288ED9" d="M9054.9,2531.1L9054.9,2531.1c0.6,0,1.2,0.5,1.2,1.2v0c0,0.6-0.5,1.2-1.2,1.2
								h0c-0.6,0-1.2-0.5-1.2-1.2v0C9053.8,2531.6,9054.3,2531.1,9054.9,2531.1z"/>
							<path id="Rectangle_1418-2" fill="#288ED9" d="M9057.7,2535.7L9057.7,2535.7c0.6,0,1.2,0.5,1.2,1.2v0c0,0.6-0.5,1.2-1.2,1.2
								h0c-0.6,0-1.2-0.5-1.2-1.2v0C9056.6,2536.3,9057.1,2535.7,9057.7,2535.7z"/>
							<path id="Rectangle_1407-3" fill="#288ED9" d="M9036.4,2531.1L9036.4,2531.1c0.6,0,1.2,0.5,1.2,1.2v0c0,0.6-0.5,1.2-1.2,1.2
								h0c-0.6,0-1.2-0.5-1.2-1.2v0C9035.3,2531.6,9035.8,2531.1,9036.4,2531.1z"/>
							<path id="Rectangle_1422-3" fill="#288ED9" d="M9039.2,2535.7L9039.2,2535.7c0.6,0,1.2,0.5,1.2,1.2v0c0,0.6-0.5,1.2-1.2,1.2
								h0c-0.6,0-1.2-0.5-1.2-1.2v0C9038,2536.3,9038.6,2535.7,9039.2,2535.7z"/>
							<path id="Rectangle_1412-2" fill="#288ED9" d="M9059.6,2531.1L9059.6,2531.1c0.6,0,1.2,0.5,1.2,1.2v0c0,0.6-0.5,1.2-1.2,1.2
								h0c-0.6,0-1.2-0.5-1.2-1.2v0C9058.4,2531.6,9058.9,2531.1,9059.6,2531.1z"/>
							<path id="Rectangle_1417-2" fill="#288ED9" d="M9062.3,2535.7L9062.3,2535.7c0.6,0,1.2,0.5,1.2,1.2v0c0,0.6-0.5,1.2-1.2,1.2
								h0c-0.6,0-1.2-0.5-1.2-1.2v0C9061.2,2536.3,9061.7,2535.7,9062.3,2535.7z"/>
							<path id="Rectangle_1408-3" fill="#288ED9" d="M9041,2531.1L9041,2531.1c0.6,0,1.2,0.5,1.2,1.2v0c0,0.6-0.5,1.2-1.2,1.2h0
								c-0.6,0-1.2-0.5-1.2-1.2v0C9039.9,2531.6,9040.4,2531.1,9041,2531.1z"/>
							<path id="Rectangle_1421-3" fill="#288ED9" d="M9043.8,2535.7L9043.8,2535.7c0.6,0,1.2,0.5,1.2,1.2v0c0,0.6-0.5,1.2-1.2,1.2
								h0c-0.6,0-1.2-0.5-1.2-1.2v0C9042.7,2536.3,9043.2,2535.7,9043.8,2535.7z"/>
							<path id="Rectangle_1413-2" fill="#288ED9" d="M9064.2,2531.1L9064.2,2531.1c0.6,0,1.2,0.5,1.2,1.2v0c0,0.6-0.5,1.2-1.2,1.2
								h0c-0.6,0-1.2-0.5-1.2-1.2v0C9063,2531.6,9063.6,2531.1,9064.2,2531.1z"/>
							<path id="Rectangle_1416-2" fill="#288ED9" d="M9067,2535.7L9067,2535.7c0.6,0,1.2,0.5,1.2,1.2v0c0,0.6-0.5,1.2-1.2,1.2h0
								c-0.6,0-1.2-0.5-1.2-1.2v0C9065.8,2536.3,9066.3,2535.7,9067,2535.7z"/>
							<path id="Rectangle_1409-3" fill="#288ED9" d="M9045.7,2531.1L9045.7,2531.1c0.6,0,1.2,0.5,1.2,1.2v0c0,0.6-0.5,1.2-1.2,1.2
								h0c-0.6,0-1.2-0.5-1.2-1.2v0C9044.5,2531.6,9045,2531.1,9045.7,2531.1z"/>
							<path id="Rectangle_1420-3" fill="#288ED9" d="M9048.5,2535.7L9048.5,2535.7c0.6,0,1.2,0.5,1.2,1.2v0c0,0.6-0.5,1.2-1.2,1.2
								h0c-0.6,0-1.2-0.5-1.2-1.2v0C9047.3,2536.3,9047.8,2535.7,9048.5,2535.7z"/>
							<path id="Rectangle_1414-2" fill="#288ED9" d="M9068.8,2531.1L9068.8,2531.1c0.6,0,1.2,0.5,1.2,1.2v0c0,0.6-0.5,1.2-1.2,1.2
								h0c-0.6,0-1.2-0.5-1.2-1.2v0C9067.7,2531.6,9068.2,2531.1,9068.8,2531.1z"/>
							<path id="Rectangle_1415-2" fill="#288ED9" d="M9071.6,2535.7L9071.6,2535.7c0.6,0,1.2,0.5,1.2,1.2v0c0,0.6-0.5,1.2-1.2,1.2
								h0c-0.6,0-1.2-0.5-1.2-1.2v0C9070.4,2536.3,9071,2535.7,9071.6,2535.7z"/>
						</g>
						<path id="Rectangle_1639" fill="#0E71BB" d="M9029,2552.6h32.6l0,0v27.2l0,0H9029c-1.7,0-3-1.3-3-3v-21.2
							C9026,2553.9,9027.3,2552.6,9029,2552.6z"/>
						<path id="Path_5062" fill="#2086D1" d="M9030.9,2585h87.4c2.7,0,4.9,2.2,4.9,4.9l0,0v17.4c0,2.7-2.2,4.9-4.9,4.9l0,0h-87.4
							c-2.7,0-4.9-2.2-4.9-4.9c0,0,0,0,0,0v-17.4C9026,2587.2,9028.2,2585,9030.9,2585C9030.9,2585,9030.9,2585,9030.9,2585z"/>
						<g id="Group_113-2" transform="translate(9.815 64.27)">
							<g id="Rectangle_1635-2" transform="translate(0 0)">
								<path fill="#21E2E2" d="M9029.6,2531.1L9029.6,2531.1c2,0,3.6,1.6,3.6,3.6v0.3c0,2-1.6,3.6-3.6,3.6l0,0
									c-2,0-3.6-1.6-3.6-3.6v-0.3C9026,2532.7,9027.6,2531.1,9029.6,2531.1z"/>
								<path fill="none" stroke="#137FCF" stroke-width="2" d="M9029.6,2532.1L9029.6,2532.1c1.4,0,2.6,1.1,2.6,2.6v0.3
									c0,1.4-1.1,2.6-2.6,2.6l0,0c-1.4,0-2.6-1.1-2.6-2.6v-0.3C9027,2533.3,9028.1,2532.1,9029.6,2532.1z"/>
							</g>
							<g id="Rectangle_1636-2" transform="translate(10.371 0)">
								<path fill="#FFBC98" d="M9029.6,2531.1L9029.6,2531.1c2,0,3.6,1.6,3.6,3.6v0.3c0,2-1.6,3.6-3.6,3.6l0,0
									c-2,0-3.6-1.6-3.6-3.6v-0.3C9026,2532.7,9027.6,2531.1,9029.6,2531.1z"/>
								<path fill="none" stroke="#137FCF" stroke-width="2" d="M9029.6,2532.1L9029.6,2532.1c1.4,0,2.6,1.1,2.6,2.6v0.3
									c0,1.4-1.1,2.6-2.6,2.6l0,0c-1.4,0-2.6-1.1-2.6-2.6v-0.3C9027,2533.3,9028.1,2532.1,9029.6,2532.1z"/>
							</g>
						</g>
						<path id="Path_5063" fill="#2086D1" d="M9030.9,2617.4h87.4c2.7,0,4.9,2.2,4.9,4.9l0,0v17.4c0,2.7-2.2,4.9-4.9,4.9l0,0h-87.4
							c-2.7,0-4.9-2.2-4.9-4.9c0,0,0,0,0,0v-17.4C9026,2619.6,9028.2,2617.4,9030.9,2617.4
							C9030.9,2617.4,9030.9,2617.4,9030.9,2617.4z"/>
						<path id="Path_5068" fill="#0E71BB" d="M9028.9,2585h32.7v27.2h-32.7c-1.6,0-2.9-1.3-2.9-2.9v-21.4
							C9026,2586.3,9027.3,2585,9028.9,2585C9028.9,2585,9028.9,2585,9028.9,2585z"/>
						<path id="Rectangle_1425" fill="#21E2E2" d="M9040.4,2563.4L9040.4,2563.4c1.4,0,2.6,1.2,2.6,2.6v0.2c0,1.4-1.2,2.6-2.6,2.6
							l0,0c-1.4,0-2.6-1.2-2.6-2.6v-0.2C9037.8,2564.5,9038.9,2563.4,9040.4,2563.4z"/>
						<path id="Rectangle_1442" fill="#FFBC98" d="M9047.9,2563.4L9047.9,2563.4c1.4,0,2.6,1.2,2.6,2.6v0.2c0,1.4-1.2,2.6-2.6,2.6
							l0,0c-1.4,0-2.6-1.2-2.6-2.6v-0.2C9045.3,2564.5,9046.5,2563.4,9047.9,2563.4z"/>
						<path id="Rectangle_2387" fill="#21E2E2" d="M9040.4,2596.6L9040.4,2596.6c1.4,0,2.6,1.2,2.6,2.6v0.2c0,1.4-1.2,2.6-2.6,2.6
							l0,0c-1.4,0-2.6-1.2-2.6-2.6v-0.2C9037.8,2597.8,9038.9,2596.6,9040.4,2596.6z"/>
						<path id="Rectangle_2388" fill="#FFBC98" d="M9047.9,2596.6L9047.9,2596.6c1.4,0,2.6,1.2,2.6,2.6v0.2c0,1.4-1.2,2.6-2.6,2.6
							l0,0c-1.4,0-2.6-1.2-2.6-2.6v-0.2C9045.3,2597.8,9046.5,2596.6,9047.9,2596.6z"/>
						<path id="Rectangle_2389" fill="#21E2E2" d="M9040.4,2531.1L9040.4,2531.1c1.4,0,2.6,1.2,2.6,2.6v0.2c0,1.4-1.2,2.6-2.6,2.6
							l0,0c-1.4,0-2.6-1.2-2.6-2.6v-0.2C9037.8,2532.3,9038.9,2531.1,9040.4,2531.1z"/>
						<path id="Rectangle_2390" fill="#FFBC98" d="M9047.9,2531.1L9047.9,2531.1c1.4,0,2.6,1.2,2.6,2.6v0.2c0,1.4-1.2,2.6-2.6,2.6
							l0,0c-1.4,0-2.6-1.2-2.6-2.6v-0.2C9045.3,2532.3,9046.5,2531.1,9047.9,2531.1z"/>
						<path id="Path_5397" fill="#0E71BB" d="M9028.9,2617.4h32.7v27.2h-32.7c-1.6,0-2.9-1.3-2.9-2.9v-21.4
							C9026,2618.7,9027.3,2617.4,9028.9,2617.4C9028.9,2617.4,9028.9,2617.4,9028.9,2617.4z"/>
						<path id="Rectangle_2491" fill="#21E2E2" d="M9040.4,2628.7L9040.4,2628.7c1.4,0,2.6,1.2,2.6,2.6v0.2c0,1.4-1.2,2.6-2.6,2.6
							l0,0c-1.4,0-2.6-1.2-2.6-2.6v-0.2C9037.8,2629.9,9038.9,2628.7,9040.4,2628.7z"/>
						<path id="Rectangle_2492" fill="#FFBC98" d="M9047.9,2628.7L9047.9,2628.7c1.4,0,2.6,1.2,2.6,2.6v0.2c0,1.4-1.2,2.6-2.6,2.6
							l0,0c-1.4,0-2.6-1.2-2.6-2.6v-0.2C9045.3,2629.9,9046.5,2628.7,9047.9,2628.7z"/>
					</g>
				</g>
			</g>
		</g>
		<g id="Group_6210" transform="translate(41.175 106.468)">
			<g id="Group_5584-2" transform="translate(0 0)">
				<path id="Rectangle_1405-4" fill="#379CE6" d="M9027.9,2531.1L9027.9,2531.1c1.1,0,1.9,0.9,1.9,1.9v0c0,1.1-0.9,1.9-1.9,1.9h0
					c-1.1,0-1.9-0.9-1.9-1.9v0C9026,2532,9026.9,2531.1,9027.9,2531.1z"/>
				<path id="Rectangle_1424-4" fill="#379CE6" d="M9032.5,2538.8L9032.5,2538.8c1.1,0,1.9,0.9,1.9,1.9v0c0,1.1-0.9,1.9-1.9,1.9h0
					c-1.1,0-1.9-0.9-1.9-1.9v0C9030.6,2539.6,9031.5,2538.8,9032.5,2538.8z"/>
				<path id="Rectangle_1410-4" fill="#379CE6" d="M9066.2,2531.1L9066.2,2531.1c1.1,0,1.9,0.9,1.9,1.9v0c0,1.1-0.9,1.9-1.9,1.9h0
					c-1.1,0-1.9-0.9-1.9-1.9v0C9064.3,2532,9065.2,2531.1,9066.2,2531.1z"/>
				<path id="Rectangle_1419-4" fill="#379CE6" d="M9070.8,2538.8L9070.8,2538.8c1.1,0,1.9,0.9,1.9,1.9v0c0,1.1-0.9,1.9-1.9,1.9h0
					c-1.1,0-1.9-0.9-1.9-1.9v0C9068.9,2539.6,9069.8,2538.8,9070.8,2538.8z"/>
				<path id="Rectangle_1406-4" fill="#379CE6" d="M9035.6,2531.1L9035.6,2531.1c1.1,0,1.9,0.9,1.9,1.9v0c0,1.1-0.9,1.9-1.9,1.9h0
					c-1.1,0-1.9-0.9-1.9-1.9v0C9033.7,2532,9034.5,2531.1,9035.6,2531.1z"/>
				<path id="Rectangle_1423-4" fill="#379CE6" d="M9040.2,2538.8L9040.2,2538.8c1.1,0,1.9,0.9,1.9,1.9v0c0,1.1-0.9,1.9-1.9,1.9h0
					c-1.1,0-1.9-0.9-1.9-1.9v0C9038.3,2539.6,9039.1,2538.8,9040.2,2538.8z"/>
				<path id="Rectangle_1407-4" fill="#379CE6" d="M9043.2,2531.1L9043.2,2531.1c1.1,0,1.9,0.9,1.9,1.9v0c0,1.1-0.9,1.9-1.9,1.9h0
					c-1.1,0-1.9-0.9-1.9-1.9v0C9041.3,2532,9042.2,2531.1,9043.2,2531.1z"/>
				<path id="Rectangle_1422-4" fill="#379CE6" d="M9047.8,2538.8L9047.8,2538.8c1.1,0,1.9,0.9,1.9,1.9v0c0,1.1-0.9,1.9-1.9,1.9h0
					c-1.1,0-1.9-0.9-1.9-1.9v0C9045.9,2539.6,9046.8,2538.8,9047.8,2538.8z"/>
				<path id="Rectangle_1408-4" fill="#379CE6" d="M9050.9,2531.1L9050.9,2531.1c1.1,0,1.9,0.9,1.9,1.9v0c0,1.1-0.9,1.9-1.9,1.9h0
					c-1.1,0-1.9-0.9-1.9-1.9v0C9049,2532,9049.9,2531.1,9050.9,2531.1z"/>
				<path id="Rectangle_1421-4" fill="#379CE6" d="M9055.5,2538.8L9055.5,2538.8c1.1,0,1.9,0.9,1.9,1.9v0c0,1.1-0.9,1.9-1.9,1.9h0
					c-1.1,0-1.9-0.9-1.9-1.9v0C9053.6,2539.6,9054.5,2538.8,9055.5,2538.8z"/>
				<path id="Rectangle_1409-4" fill="#379CE6" d="M9058.6,2531.1L9058.6,2531.1c1.1,0,1.9,0.9,1.9,1.9v0c0,1.1-0.9,1.9-1.9,1.9h0
					c-1.1,0-1.9-0.9-1.9-1.9v0C9056.7,2532,9057.5,2531.1,9058.6,2531.1z"/>
				<path id="Rectangle_1420-4" fill="#379CE6" d="M9063.2,2538.8L9063.2,2538.8c1.1,0,1.9,0.9,1.9,1.9v0c0,1.1-0.9,1.9-1.9,1.9h0
					c-1.1,0-1.9-0.9-1.9-1.9v0C9061.3,2539.6,9062.1,2538.8,9063.2,2538.8z"/>
			</g>
		</g>
		<g id="Group_6211" transform="translate(41.175 73.632)">
			<g id="Group_5584-3" transform="translate(0 0)">
				<path id="Rectangle_1405-5" fill="#379CE6" d="M9027.9,2531.1L9027.9,2531.1c1.1,0,1.9,0.9,1.9,1.9v0c0,1.1-0.9,1.9-1.9,1.9h0
					c-1.1,0-1.9-0.9-1.9-1.9v0C9026,2532,9026.9,2531.1,9027.9,2531.1z"/>
				<path id="Rectangle_1424-5" fill="#379CE6" d="M9032.5,2538.8L9032.5,2538.8c1.1,0,1.9,0.9,1.9,1.9v0c0,1.1-0.9,1.9-1.9,1.9h0
					c-1.1,0-1.9-0.9-1.9-1.9v0C9030.6,2539.6,9031.5,2538.8,9032.5,2538.8z"/>
				<path id="Rectangle_1410-5" fill="#379CE6" d="M9066.2,2531.1L9066.2,2531.1c1.1,0,1.9,0.9,1.9,1.9v0c0,1.1-0.9,1.9-1.9,1.9h0
					c-1.1,0-1.9-0.9-1.9-1.9v0C9064.3,2532,9065.2,2531.1,9066.2,2531.1z"/>
				<path id="Rectangle_1419-5" fill="#379CE6" d="M9070.8,2538.8L9070.8,2538.8c1.1,0,1.9,0.9,1.9,1.9v0c0,1.1-0.9,1.9-1.9,1.9h0
					c-1.1,0-1.9-0.9-1.9-1.9v0C9068.9,2539.6,9069.8,2538.8,9070.8,2538.8z"/>
				<path id="Rectangle_1406-5" fill="#379CE6" d="M9035.6,2531.1L9035.6,2531.1c1.1,0,1.9,0.9,1.9,1.9v0c0,1.1-0.9,1.9-1.9,1.9h0
					c-1.1,0-1.9-0.9-1.9-1.9v0C9033.7,2532,9034.5,2531.1,9035.6,2531.1z"/>
				<path id="Rectangle_1423-5" fill="#379CE6" d="M9040.2,2538.8L9040.2,2538.8c1.1,0,1.9,0.9,1.9,1.9v0c0,1.1-0.9,1.9-1.9,1.9h0
					c-1.1,0-1.9-0.9-1.9-1.9v0C9038.3,2539.6,9039.1,2538.8,9040.2,2538.8z"/>
				<path id="Rectangle_1407-5" fill="#379CE6" d="M9043.2,2531.1L9043.2,2531.1c1.1,0,1.9,0.9,1.9,1.9v0c0,1.1-0.9,1.9-1.9,1.9h0
					c-1.1,0-1.9-0.9-1.9-1.9v0C9041.3,2532,9042.2,2531.1,9043.2,2531.1z"/>
				<path id="Rectangle_1422-5" fill="#379CE6" d="M9047.8,2538.8L9047.8,2538.8c1.1,0,1.9,0.9,1.9,1.9v0c0,1.1-0.9,1.9-1.9,1.9h0
					c-1.1,0-1.9-0.9-1.9-1.9v0C9045.9,2539.6,9046.8,2538.8,9047.8,2538.8z"/>
				<path id="Rectangle_1408-5" fill="#379CE6" d="M9050.9,2531.1L9050.9,2531.1c1.1,0,1.9,0.9,1.9,1.9v0c0,1.1-0.9,1.9-1.9,1.9h0
					c-1.1,0-1.9-0.9-1.9-1.9v0C9049,2532,9049.9,2531.1,9050.9,2531.1z"/>
				<path id="Rectangle_1421-5" fill="#379CE6" d="M9055.5,2538.8L9055.5,2538.8c1.1,0,1.9,0.9,1.9,1.9v0c0,1.1-0.9,1.9-1.9,1.9h0
					c-1.1,0-1.9-0.9-1.9-1.9v0C9053.6,2539.6,9054.5,2538.8,9055.5,2538.8z"/>
				<path id="Rectangle_1409-5" fill="#379CE6" d="M9058.6,2531.1L9058.6,2531.1c1.1,0,1.9,0.9,1.9,1.9v0c0,1.1-0.9,1.9-1.9,1.9h0
					c-1.1,0-1.9-0.9-1.9-1.9v0C9056.7,2532,9057.5,2531.1,9058.6,2531.1z"/>
				<path id="Rectangle_1420-5" fill="#379CE6" d="M9063.2,2538.8L9063.2,2538.8c1.1,0,1.9,0.9,1.9,1.9v0c0,1.1-0.9,1.9-1.9,1.9h0
					c-1.1,0-1.9-0.9-1.9-1.9v0C9061.3,2539.6,9062.1,2538.8,9063.2,2538.8z"/>
			</g>
		</g>
		<g id="Group_6212" transform="translate(41.175 40.177)">
			<g id="Group_5584-4" transform="translate(0 0)">
				<path id="Rectangle_1405-6" fill="#379CE6" d="M9027.9,2531.1L9027.9,2531.1c1.1,0,1.9,0.9,1.9,1.9v0c0,1.1-0.9,1.9-1.9,1.9h0
					c-1.1,0-1.9-0.9-1.9-1.9v0C9026,2532,9026.9,2531.1,9027.9,2531.1z"/>
				<path id="Rectangle_1424-6" fill="#379CE6" d="M9032.5,2538.8L9032.5,2538.8c1.1,0,1.9,0.9,1.9,1.9v0c0,1.1-0.9,1.9-1.9,1.9h0
					c-1.1,0-1.9-0.9-1.9-1.9v0C9030.6,2539.6,9031.5,2538.8,9032.5,2538.8z"/>
				<path id="Rectangle_1410-6" fill="#379CE6" d="M9066.2,2531.1L9066.2,2531.1c1.1,0,1.9,0.9,1.9,1.9v0c0,1.1-0.9,1.9-1.9,1.9h0
					c-1.1,0-1.9-0.9-1.9-1.9v0C9064.3,2532,9065.2,2531.1,9066.2,2531.1z"/>
				<path id="Rectangle_1419-6" fill="#379CE6" d="M9070.8,2538.8L9070.8,2538.8c1.1,0,1.9,0.9,1.9,1.9v0c0,1.1-0.9,1.9-1.9,1.9h0
					c-1.1,0-1.9-0.9-1.9-1.9v0C9068.9,2539.6,9069.8,2538.8,9070.8,2538.8z"/>
				<path id="Rectangle_1406-6" fill="#379CE6" d="M9035.6,2531.1L9035.6,2531.1c1.1,0,1.9,0.9,1.9,1.9v0c0,1.1-0.9,1.9-1.9,1.9h0
					c-1.1,0-1.9-0.9-1.9-1.9v0C9033.7,2532,9034.5,2531.1,9035.6,2531.1z"/>
				<path id="Rectangle_1423-6" fill="#379CE6" d="M9040.2,2538.8L9040.2,2538.8c1.1,0,1.9,0.9,1.9,1.9v0c0,1.1-0.9,1.9-1.9,1.9h0
					c-1.1,0-1.9-0.9-1.9-1.9v0C9038.3,2539.6,9039.1,2538.8,9040.2,2538.8z"/>
				<path id="Rectangle_1407-6" fill="#379CE6" d="M9043.2,2531.1L9043.2,2531.1c1.1,0,1.9,0.9,1.9,1.9v0c0,1.1-0.9,1.9-1.9,1.9h0
					c-1.1,0-1.9-0.9-1.9-1.9v0C9041.3,2532,9042.2,2531.1,9043.2,2531.1z"/>
				<path id="Rectangle_1422-6" fill="#379CE6" d="M9047.8,2538.8L9047.8,2538.8c1.1,0,1.9,0.9,1.9,1.9v0c0,1.1-0.9,1.9-1.9,1.9h0
					c-1.1,0-1.9-0.9-1.9-1.9v0C9045.9,2539.6,9046.8,2538.8,9047.8,2538.8z"/>
				<path id="Rectangle_1408-6" fill="#379CE6" d="M9050.9,2531.1L9050.9,2531.1c1.1,0,1.9,0.9,1.9,1.9v0c0,1.1-0.9,1.9-1.9,1.9h0
					c-1.1,0-1.9-0.9-1.9-1.9v0C9049,2532,9049.9,2531.1,9050.9,2531.1z"/>
				<path id="Rectangle_1421-6" fill="#379CE6" d="M9055.5,2538.8L9055.5,2538.8c1.1,0,1.9,0.9,1.9,1.9v0c0,1.1-0.9,1.9-1.9,1.9h0
					c-1.1,0-1.9-0.9-1.9-1.9v0C9053.6,2539.6,9054.5,2538.8,9055.5,2538.8z"/>
				<path id="Rectangle_1409-6" fill="#379CE6" d="M9058.6,2531.1L9058.6,2531.1c1.1,0,1.9,0.9,1.9,1.9v0c0,1.1-0.9,1.9-1.9,1.9h0
					c-1.1,0-1.9-0.9-1.9-1.9v0C9056.7,2532,9057.5,2531.1,9058.6,2531.1z"/>
				<path id="Rectangle_1420-6" fill="#379CE6" d="M9063.2,2538.8L9063.2,2538.8c1.1,0,1.9,0.9,1.9,1.9v0c0,1.1-0.9,1.9-1.9,1.9h0
					c-1.1,0-1.9-0.9-1.9-1.9v0C9061.3,2539.6,9062.1,2538.8,9063.2,2538.8z"/>
			</g>
		</g>
	</g>
	<g id="Group_8105" transform="translate(142.121 133.382)">
		<path id="Rectangle_2583" fill="#005B9F" d="M9065,2531.1h85.8c2.2,0,4,1.8,4,4v4.7c0,2.2-1.8,4-4,4H9065c-2.2,0-4-1.8-4-4v-4.7
			C9061,2532.9,9062.8,2531.1,9065,2531.1z"/>
		<path id="Rectangle_2585" fill="#164571" d="M9132.4,2531.1h18.4c2.2,0,4,1.8,4,4v4.7c0,2.2-1.8,4-4,4h-18.4l0,0V2531.1
			L9132.4,2531.1z"/>
		<path id="Path_5458" fill="#137FCF" d="M9034.1,2555.5h35.7v94.4h-35.7V2555.5z"/>
		<path id="Path_5460" fill="#005B9F" d="M9031.6,2546.4h37v10h-37c-1.2,0-2.2-1-2.2-2.2c0,0,0,0,0,0v-5.6
			C9029.4,2547.4,9030.4,2546.4,9031.6,2546.4z"/>
		<rect id="Rectangle_2584" x="9067.3" y="2543.3" fill="#0E71BB" width="81.1" height="97.5"/>
		<rect id="Rectangle_2593" x="9045.3" y="2562.4" fill="#98CDF2" width="13.1" height="15.9"/>
		<rect id="Rectangle_2594" x="9045.3" y="2583.1" fill="#98CDF2" width="12.9" height="15.9"/>
		<rect id="Rectangle_2595" x="9045.3" y="2603.8" fill="#FFBC98" width="12.9" height="15.9"/>
		<rect id="Rectangle_2596" x="9075.3" y="2549.7" fill="#30A3D1" width="28.6" height="15.9"/>
		<rect id="Rectangle_2597" x="9075.3" y="2570.4" fill="#30A3D1" width="28.6" height="15.9"/>
		<rect id="Rectangle_2598" x="9075.3" y="2591" fill="#30A3D1" width="28.6" height="15.9"/>
		<rect id="Rectangle_2599" x="9111" y="2549.7" fill="#30A3D1" width="14.3" height="15.9"/>
		<rect id="Rectangle_2600" x="9111" y="2570.4" fill="#30A3D1" width="14.3" height="15.9"/>
		<rect id="Rectangle_2601" x="9111" y="2591" fill="#30A3D1" width="14.3" height="15.9"/>
		<rect id="Rectangle_2586" x="9132.5" y="2543.3" fill="#005B9F" width="15.9" height="97.5"/>
		<path id="Path_5456" fill="#52ACEA" d="M9064.8,2640.3h86.2c1.2,0,2.2,1,2.2,2.2l0,0v5.1c0,1.2-1,2.2-2.2,2.2h-86.2
			c-1.2,0-2.2-1-2.2-2.2v-5.1C9062.6,2641.3,9063.6,2640.3,9064.8,2640.3z"/>
		<path id="Subtraction_77" fill="#21E2E2" d="M9065.9,2649.9h-39.8c-0.1-0.6-0.1-1.1-0.1-1.7c0-6.5,5.3-11.8,11.8-11.8
			c0.7,0,1.3,0.1,2,0.2c1.8-8.2,9.8-13.4,18-11.6c8.2,1.8,13.4,9.8,11.6,18C9068.9,2645.5,9067.6,2647.9,9065.9,2649.9
			L9065.9,2649.9L9065.9,2649.9z"/>
		<rect id="Rectangle_2588" x="9089.6" y="2621.2" fill="#288ED9" width="22.3" height="28.6"/>
		<rect id="Rectangle_2605" x="9097" y="2549.7" fill="#2695C1" width="7" height="15.9"/>
		<rect id="Rectangle_2608" x="9122.1" y="2591" fill="#2695C1" width="3.2" height="15.9"/>
		<rect id="Rectangle_2609" x="9097" y="2570.4" fill="#2695C1" width="7" height="15.9"/>
		<rect id="Rectangle_2610" x="9097" y="2591" fill="#2695C1" width="7" height="15.9"/>
		<rect id="Rectangle_2611" x="9122.1" y="2570.4" fill="#2695C1" width="3.2" height="15.9"/>
		<rect id="Rectangle_2612" x="9122.1" y="2549.7" fill="#2695C1" width="3.2" height="15.9"/>
		<rect id="Rectangle_2613" x="9055.3" y="2583.1" fill="#3B96D9" width="2.9" height="15.9"/>
		<rect id="Rectangle_2614" x="9055.2" y="2562.4" fill="#3B96D9" width="3.2" height="15.9"/>
	</g>
</g>
</svg>
