<?xml version="1.0" encoding="utf-8"?>
<!-- Generator: Adobe Illustrator 22.0.1, SVG Export Plug-In . SVG Version: 6.00 Build 0)  -->
<svg version="1.1" id="Layer_1" xmlns="http://www.w3.org/2000/svg" xmlns:xlink="http://www.w3.org/1999/xlink" x="0px" y="0px"
	 viewBox="0 0 180 160" style="enable-background:new 0 0 180 160;" xml:space="preserve">
<style type="text/css">
	.st0{fill:#C6E6FF;}
	.st1{fill:#30A3D1;}
	.st2{fill:#005B9F;}
	.st3{fill:#21E2E2;}
	.st4{fill:#0E71BB;}
	.st5{fill:#52ACEA;}
	.st6{fill:#FFBC98;}
	.st7{fill:none;}
	.st8{fill:none;stroke:#FFBC98;stroke-width:2;}
	.st9{fill:#288ED9;}
	.st10{fill:#137FCF;}
	.st11{fill:#D6EEFF;}
	.st12{fill:#FFFFFF;}
	.st13{fill:none;stroke:#21E2E2;stroke-width:2;}
</style>
<g id="Group_7955" transform="translate(-29258.139 -10676.434)">
	<path id="Path_6216" class="st0" d="M29322.2,10706.4c29.2-5.5,27.1-21.1,55.8-18.6s34.8,43.2,47.3,67.9s13.2,45.4-15.9,62.3
		s-46,0.5-80-5.1s-53.8-4.7-60.2-22.2C29263,10773.2,29244.2,10724.9,29322.2,10706.4z"/>
	<g id="Group_7951" transform="translate(7887.416 -5989.306)">
		<g id="Group_5850" transform="translate(32.256 44.567)">
			<g id="Group_5848" transform="translate(0 54.202) rotate(-90)">
				<path id="Path_5507" class="st1" d="M-16683,21477.2"/>
				<path id="Rectangle_2754" class="st2" d="M-16685.4,21398L-16685.4,21398c1.4,0,2.5,1.1,2.5,2.5v74.3c0,1.4-1.1,2.5-2.5,2.5l0,0
					c-1.4,0-2.5-1.1-2.5-2.5v-74.3C-16687.9,21399.1-16686.8,21398-16685.4,21398z"/>
			</g>
			<g id="Group_7393" transform="translate(27.737 0)">
				<g id="Group_5847" transform="translate(8.915)">
					<path id="Rectangle_2754-2" class="st2" d="M21400.4,16687.9L21400.4,16687.9c1.4,0,2.5,1.1,2.5,2.5v40.9
						c0,1.4-1.1,2.5-2.5,2.5l0,0c-1.4,0-2.5-1.1-2.5-2.5v-40.9C21398,16689,21399.1,16687.9,21400.4,16687.9z"/>
				</g>
				<circle id="Ellipse_1241" class="st3" cx="21409.9" cy="16738.1" r="11.9"/>
			</g>
		</g>
		<g id="Group_7918" transform="translate(0)">
			<g id="Group_7914" transform="translate(0 36.258)">
				<path id="Path_3764" class="st4" d="M21402.8,16687.9h133.9c2.6,0,4.8,1.8,4.8,4v25.7c0,2.2-2.1,4-4.8,4h-133.9
					c-2.6,0-4.8-1.8-4.8-4v-25.7C21398,16689.7,21400.1,16687.9,21402.8,16687.9z"/>
				<path id="Rectangle_1631" class="st2" d="M21402,16687.9h51.9l0,0v33.7l0,0h-51.9c-2.2,0-4-1.8-4-4v-25.7
					C21398,16689.7,21399.8,16687.9,21402,16687.9z"/>
				<g id="Group_7183" transform="translate(79.258 12.078)">
					<g id="Group_5584" transform="translate(0 0)">
						<path id="Rectangle_1405" class="st5" d="M21399.7,16687.9L21399.7,16687.9c1,0,1.8,0.8,1.8,1.8l0,0c0,1-0.8,1.8-1.8,1.8l0,0
							c-1,0-1.8-0.8-1.8-1.8l0,0C21398,16688.7,21398.8,16687.9,21399.7,16687.9z"/>
						<path id="Rectangle_1424" class="st3" d="M21403.9,16694.9L21403.9,16694.9c1,0,1.8,0.8,1.8,1.8l0,0c0,1-0.8,1.8-1.8,1.8l0,0
							c-1,0-1.8-0.8-1.8-1.8l0,0C21402.2,16695.7,21403,16694.9,21403.9,16694.9z"/>
						<path id="Rectangle_1406" class="st5" d="M21406.8,16687.9L21406.8,16687.9c1,0,1.8,0.8,1.8,1.8l0,0c0,1-0.8,1.8-1.8,1.8l0,0
							c-1,0-1.8-0.8-1.8-1.8l0,0C21405,16688.7,21405.8,16687.9,21406.8,16687.9z"/>
						<path id="Rectangle_1423" class="st5" d="M21411,16694.9L21411,16694.9c1,0,1.8,0.8,1.8,1.8l0,0c0,1-0.8,1.8-1.8,1.8l0,0
							c-1,0-1.8-0.8-1.8-1.8l0,0C21409.2,16695.7,21410,16694.9,21411,16694.9z"/>
						<path id="Rectangle_1407" class="st6" d="M21413.8,16687.9L21413.8,16687.9c1,0,1.8,0.8,1.8,1.8l0,0c0,1-0.8,1.8-1.8,1.8l0,0
							c-1,0-1.8-0.8-1.8-1.8l0,0C21412,16688.7,21412.8,16687.9,21413.8,16687.9z"/>
						<path id="Rectangle_1422" class="st5" d="M21418,16694.9L21418,16694.9c1,0,1.8,0.8,1.8,1.8l0,0c0,1-0.8,1.8-1.8,1.8l0,0
							c-1,0-1.8-0.8-1.8-1.8l0,0C21416.2,16695.7,21417,16694.9,21418,16694.9z"/>
						<path id="Rectangle_1408" class="st5" d="M21420.8,16687.9L21420.8,16687.9c1,0,1.8,0.8,1.8,1.8l0,0c0,1-0.8,1.8-1.8,1.8l0,0
							c-1,0-1.8-0.8-1.8-1.8l0,0C21419,16688.7,21419.8,16687.9,21420.8,16687.9z"/>
						<path id="Rectangle_1421" class="st3" d="M21425,16694.9L21425,16694.9c1,0,1.8,0.8,1.8,1.8l0,0c0,1-0.8,1.8-1.8,1.8l0,0
							c-1,0-1.8-0.8-1.8-1.8l0,0C21423.3,16695.7,21424,16694.9,21425,16694.9z"/>
						<path id="Rectangle_1409" class="st5" d="M21427.8,16687.9L21427.8,16687.9c1,0,1.8,0.8,1.8,1.8l0,0c0,1-0.8,1.8-1.8,1.8l0,0
							c-1,0-1.8-0.8-1.8-1.8l0,0C21426.1,16688.7,21426.8,16687.9,21427.8,16687.9z"/>
						<path id="Rectangle_1420" class="st5" d="M21432,16694.9L21432,16694.9c1,0,1.8,0.8,1.8,1.8l0,0c0,1-0.8,1.8-1.8,1.8l0,0
							c-1,0-1.8-0.8-1.8-1.8l0,0C21430.3,16695.7,21431.1,16694.9,21432,16694.9z"/>
					</g>
				</g>
				<g id="Ellipse_1402" transform="translate(122.603 14.069)">
					<ellipse class="st7" cx="21401" cy="16690.9" rx="3" ry="3"/>
					<ellipse class="st8" cx="21401" cy="16690.9" rx="2" ry="2"/>
				</g>
				<path id="Rectangle_3126" class="st5" d="M21470.8,16698.7L21470.8,16698.7c0.7,0,1.3,0.6,1.3,1.3v10c0,0.7-0.6,1.3-1.3,1.3l0,0
					c-0.7,0-1.3-0.6-1.3-1.3v-10C21469.5,16699.3,21470.1,16698.7,21470.8,16698.7z"/>
				<path id="Rectangle_3127" class="st5" d="M21465.5,16698.7L21465.5,16698.7c0.7,0,1.3,0.6,1.3,1.3v10c0,0.7-0.6,1.3-1.3,1.3l0,0
					c-0.7,0-1.3-0.6-1.3-1.3v-10C21464.2,16699.3,21464.8,16698.7,21465.5,16698.7z"/>
				<path id="Rectangle_3130" class="st6" d="M21469.5,16701.3h2.7l0,0v8.6c0,0.7-0.6,1.3-1.3,1.3l0,0l0,0c-0.7,0-1.3-0.6-1.3-1.3
					L21469.5,16701.3L21469.5,16701.3z"/>
				<path id="Rectangle_3131" class="st3" d="M21464.2,16706.4h2.7l0,0v3.6c0,0.7-0.6,1.3-1.3,1.3l0,0c-0.7,0-1.3-0.6-1.3-1.3
					L21464.2,16706.4L21464.2,16706.4z"/>
				<g id="Group_7364" transform="translate(12.089 7.24)">
					<g id="Group_7359" transform="translate(26.546 1.52)">
						<path id="Rectangle_3070" class="st9" d="M21400.2,16700.7L21400.2,16700.7c1.2,0,2.2,1,2.2,2.2v0.2c0,1.2-1,2.2-2.2,2.2l0,0
							c-1.2,0-2.2-1-2.2-2.2v-0.2C21398,16701.7,21399,16700.7,21400.2,16700.7z"/>
						<path id="Rectangle_3138" class="st10" d="M21400.3,16687.9L21400.3,16687.9c0.6,0,1,0.4,1,1v8.6c0,0.6-0.4,1-1,1l0,0
							c-0.6,0-1-0.4-1-1v-8.6C21399.3,16688.3,21399.7,16687.9,21400.3,16687.9z"/>
					</g>
					<g id="Group_7360" transform="translate(19.91 5.502)">
						<path id="Rectangle_1442" class="st11" d="M21400.2,16696.8L21400.2,16696.8c1.2,0,2.2,1,2.2,2.2v0.2c0,1.2-1,2.2-2.2,2.2l0,0
							c-1.2,0-2.2-1-2.2-2.2v-0.2C21398,16697.7,21399,16696.8,21400.2,16696.8z"/>
						<path id="Rectangle_3139" class="st12" d="M21400.3,16687.9L21400.3,16687.9c0.6,0,1,0.4,1,1v4.6c0,0.5-0.4,1-1,1l0,0
							c-0.6,0-1-0.4-1-1v-4.6C21399.3,16688.3,21399.7,16687.9,21400.3,16687.9z"/>
					</g>
					<g id="Group_7361" transform="translate(13.273 0)">
						<path id="Rectangle_1425" class="st9" d="M21400.2,16702.3L21400.2,16702.3c1.2,0,2.2,1,2.2,2.2v0.2c0,1.2-1,2.2-2.2,2.2l0,0
							c-1.2,0-2.2-1-2.2-2.2v-0.2C21398,16703.2,21399,16702.3,21400.2,16702.3z"/>
						<path id="Rectangle_3140" class="st10" d="M21400.3,16687.9L21400.3,16687.9c0.6,0,1,0.4,1,1v10.1c0,0.5-0.4,1-1,1l0,0
							c-0.6,0-1-0.4-1-1v-10.1C21399.3,16688.3,21399.7,16687.9,21400.3,16687.9z"/>
					</g>
					<g id="Group_7362" transform="translate(6.637 2.526)">
						<path id="Rectangle_1442-2" class="st6" d="M21400.2,16699.7L21400.2,16699.7c1.2,0,2.2,1,2.2,2.2v0.2c0,1.2-1,2.2-2.2,2.2
							l0,0c-1.2,0-2.2-1-2.2-2.2v-0.2C21398,16700.7,21399,16699.7,21400.2,16699.7z"/>
						<path id="Rectangle_3141" class="st6" d="M21400.3,16687.9L21400.3,16687.9c0.6,0,1,0.4,1,1v7.6c0,0.5-0.4,1-1,1l0,0
							c-0.6,0-1-0.4-1-1v-7.6C21399.3,16688.3,21399.7,16687.9,21400.3,16687.9z"/>
					</g>
					<g id="Group_7363" transform="translate(0 6.829)">
						<path id="Rectangle_1425-2" class="st3" d="M21400.2,16695.4L21400.2,16695.4c1.2,0,2.2,1,2.2,2.2v0.2c0,1.2-1,2.2-2.2,2.2
							l0,0c-1.2,0-2.2-1-2.2-2.2v-0.2C21398,16696.4,21399,16695.4,21400.2,16695.4z"/>
						<path id="Rectangle_3142" class="st3" d="M21400.3,16687.9L21400.3,16687.9c0.6,0,1,0.4,1,1v3.3c0,0.5-0.4,1-1,1l0,0
							c-0.6,0-1-0.4-1-1v-3.3C21399.3,16688.3,21399.7,16687.9,21400.3,16687.9z"/>
					</g>
				</g>
				<g id="Ellipse_1403" transform="translate(119.285 10.751)">
					<ellipse class="st7" cx="21404.3" cy="16694.2" rx="6.3" ry="6.3"/>
					<ellipse class="st13" cx="21404.3" cy="16694.2" rx="5.3" ry="5.3"/>
				</g>
			</g>
			<g id="Group_7915">
				<path id="Path_3764-2" class="st4" d="M21402.8,16687.9h133.9c2.6,0,4.8,1.8,4.8,4v25.7c0,2.2-2.1,4-4.8,4h-133.9
					c-2.6,0-4.8-1.8-4.8-4v-25.7C21398,16689.7,21400.1,16687.9,21402.8,16687.9z"/>
				<path id="Rectangle_1631-2" class="st2" d="M21402,16687.9h51.9l0,0v33.7l0,0h-51.9c-2.2,0-4-1.8-4-4v-25.7
					C21398,16689.7,21399.8,16687.9,21402,16687.9z"/>
				<g id="Group_7183-2" transform="translate(79.258 12.078)">
					<g id="Group_5584-2" transform="translate(0 0)">
						<path id="Rectangle_1405-2" class="st5" d="M21399.7,16687.9L21399.7,16687.9c1,0,1.8,0.8,1.8,1.8l0,0c0,1-0.8,1.8-1.8,1.8
							l0,0c-1,0-1.8-0.8-1.8-1.8l0,0C21398,16688.7,21398.8,16687.9,21399.7,16687.9z"/>
						<path id="Rectangle_1424-2" class="st3" d="M21403.9,16694.9L21403.9,16694.9c1,0,1.8,0.8,1.8,1.8l0,0c0,1-0.8,1.8-1.8,1.8
							l0,0c-1,0-1.8-0.8-1.8-1.8l0,0C21402.2,16695.7,21403,16694.9,21403.9,16694.9z"/>
						<path id="Rectangle_1406-2" class="st5" d="M21406.8,16687.9L21406.8,16687.9c1,0,1.8,0.8,1.8,1.8l0,0c0,1-0.8,1.8-1.8,1.8
							l0,0c-1,0-1.8-0.8-1.8-1.8l0,0C21405,16688.7,21405.8,16687.9,21406.8,16687.9z"/>
						<path id="Rectangle_1423-2" class="st5" d="M21411,16694.9L21411,16694.9c1,0,1.8,0.8,1.8,1.8l0,0c0,1-0.8,1.8-1.8,1.8l0,0
							c-1,0-1.8-0.8-1.8-1.8l0,0C21409.2,16695.7,21410,16694.9,21411,16694.9z"/>
						<path id="Rectangle_1407-2" class="st6" d="M21413.8,16687.9L21413.8,16687.9c1,0,1.8,0.8,1.8,1.8l0,0c0,1-0.8,1.8-1.8,1.8
							l0,0c-1,0-1.8-0.8-1.8-1.8l0,0C21412,16688.7,21412.8,16687.9,21413.8,16687.9z"/>
						<path id="Rectangle_1422-2" class="st5" d="M21418,16694.9L21418,16694.9c1,0,1.8,0.8,1.8,1.8l0,0c0,1-0.8,1.8-1.8,1.8l0,0
							c-1,0-1.8-0.8-1.8-1.8l0,0C21416.2,16695.7,21417,16694.9,21418,16694.9z"/>
						<path id="Rectangle_1408-2" class="st5" d="M21420.8,16687.9L21420.8,16687.9c1,0,1.8,0.8,1.8,1.8l0,0c0,1-0.8,1.8-1.8,1.8
							l0,0c-1,0-1.8-0.8-1.8-1.8l0,0C21419,16688.7,21419.8,16687.9,21420.8,16687.9z"/>
						<path id="Rectangle_1421-2" class="st3" d="M21425,16694.9L21425,16694.9c1,0,1.8,0.8,1.8,1.8l0,0c0,1-0.8,1.8-1.8,1.8l0,0
							c-1,0-1.8-0.8-1.8-1.8l0,0C21423.3,16695.7,21424,16694.9,21425,16694.9z"/>
						<path id="Rectangle_1409-2" class="st5" d="M21427.8,16687.9L21427.8,16687.9c1,0,1.8,0.8,1.8,1.8l0,0c0,1-0.8,1.8-1.8,1.8
							l0,0c-1,0-1.8-0.8-1.8-1.8l0,0C21426.1,16688.7,21426.8,16687.9,21427.8,16687.9z"/>
						<path id="Rectangle_1420-2" class="st5" d="M21432,16694.9L21432,16694.9c1,0,1.8,0.8,1.8,1.8l0,0c0,1-0.8,1.8-1.8,1.8l0,0
							c-1,0-1.8-0.8-1.8-1.8l0,0C21430.3,16695.7,21431.1,16694.9,21432,16694.9z"/>
					</g>
				</g>
				<g id="Ellipse_1402-2" transform="translate(122.603 14.069)">
					<ellipse class="st7" cx="21401" cy="16690.9" rx="3" ry="3"/>
					<ellipse class="st8" cx="21401" cy="16690.9" rx="2" ry="2"/>
				</g>
				<path id="Rectangle_3126-2" class="st5" d="M21470.8,16698.7L21470.8,16698.7c0.7,0,1.3,0.6,1.3,1.3v10c0,0.7-0.6,1.3-1.3,1.3
					l0,0c-0.7,0-1.3-0.6-1.3-1.3v-10C21469.5,16699.3,21470.1,16698.7,21470.8,16698.7z"/>
				<path id="Rectangle_3127-2" class="st5" d="M21465.5,16698.7L21465.5,16698.7c0.7,0,1.3,0.6,1.3,1.3v10c0,0.7-0.6,1.3-1.3,1.3
					l0,0c-0.7,0-1.3-0.6-1.3-1.3v-10C21464.2,16699.3,21464.8,16698.7,21465.5,16698.7z"/>
				<path id="Rectangle_3130-2" class="st6" d="M21469.5,16701.3h2.7l0,0v8.6c0,0.7-0.6,1.3-1.3,1.3l0,0l0,0c-0.7,0-1.3-0.6-1.3-1.3
					L21469.5,16701.3L21469.5,16701.3z"/>
				<path id="Rectangle_3131-2" class="st3" d="M21464.2,16706.4h2.7l0,0v3.6c0,0.7-0.6,1.3-1.3,1.3l0,0c-0.7,0-1.3-0.6-1.3-1.3
					L21464.2,16706.4L21464.2,16706.4z"/>
				<g id="Group_7364-2" transform="translate(12.089 7.24)">
					<g id="Group_7359-2" transform="translate(26.546 1.52)">
						<path id="Rectangle_3070-2" class="st9" d="M21400.2,16700.7L21400.2,16700.7c1.2,0,2.2,1,2.2,2.2v0.2c0,1.2-1,2.2-2.2,2.2
							l0,0c-1.2,0-2.2-1-2.2-2.2v-0.2C21398,16701.7,21399,16700.7,21400.2,16700.7z"/>
						<path id="Rectangle_3138-2" class="st10" d="M21400.3,16687.9L21400.3,16687.9c0.6,0,1,0.4,1,1v8.6c0,0.6-0.4,1-1,1l0,0
							c-0.6,0-1-0.4-1-1v-8.6C21399.3,16688.3,21399.7,16687.9,21400.3,16687.9z"/>
					</g>
					<g id="Group_7360-2" transform="translate(19.91 5.502)">
						<path id="Rectangle_1442-3" class="st11" d="M21400.2,16696.8L21400.2,16696.8c1.2,0,2.2,1,2.2,2.2v0.2c0,1.2-1,2.2-2.2,2.2
							l0,0c-1.2,0-2.2-1-2.2-2.2v-0.2C21398,16697.7,21399,16696.8,21400.2,16696.8z"/>
						<path id="Rectangle_3139-2" class="st12" d="M21400.3,16687.9L21400.3,16687.9c0.6,0,1,0.4,1,1v4.6c0,0.5-0.4,1-1,1l0,0
							c-0.6,0-1-0.4-1-1v-4.6C21399.3,16688.3,21399.7,16687.9,21400.3,16687.9z"/>
					</g>
					<g id="Group_7361-2" transform="translate(13.273 0)">
						<path id="Rectangle_1425-3" class="st9" d="M21400.2,16702.3L21400.2,16702.3c1.2,0,2.2,1,2.2,2.2v0.2c0,1.2-1,2.2-2.2,2.2
							l0,0c-1.2,0-2.2-1-2.2-2.2v-0.2C21398,16703.2,21399,16702.3,21400.2,16702.3z"/>
						<path id="Rectangle_3140-2" class="st10" d="M21400.3,16687.9L21400.3,16687.9c0.6,0,1,0.4,1,1v10.1c0,0.5-0.4,1-1,1l0,0
							c-0.6,0-1-0.4-1-1v-10.1C21399.3,16688.3,21399.7,16687.9,21400.3,16687.9z"/>
					</g>
					<g id="Group_7362-2" transform="translate(6.637 2.526)">
						<path id="Rectangle_1442-4" class="st6" d="M21400.2,16699.7L21400.2,16699.7c1.2,0,2.2,1,2.2,2.2v0.2c0,1.2-1,2.2-2.2,2.2
							l0,0c-1.2,0-2.2-1-2.2-2.2v-0.2C21398,16700.7,21399,16699.7,21400.2,16699.7z"/>
						<path id="Rectangle_3141-2" class="st6" d="M21400.3,16687.9L21400.3,16687.9c0.6,0,1,0.4,1,1v7.6c0,0.5-0.4,1-1,1l0,0
							c-0.6,0-1-0.4-1-1v-7.6C21399.3,16688.3,21399.7,16687.9,21400.3,16687.9z"/>
					</g>
					<g id="Group_7363-2" transform="translate(0 6.829)">
						<path id="Rectangle_1425-4" class="st3" d="M21400.2,16695.4L21400.2,16695.4c1.2,0,2.2,1,2.2,2.2v0.2c0,1.2-1,2.2-2.2,2.2
							l0,0c-1.2,0-2.2-1-2.2-2.2v-0.2C21398,16696.4,21399,16695.4,21400.2,16695.4z"/>
						<path id="Rectangle_3142-2" class="st3" d="M21400.3,16687.9L21400.3,16687.9c0.6,0,1,0.4,1,1v3.3c0,0.5-0.4,1-1,1l0,0
							c-0.6,0-1-0.4-1-1v-3.3C21399.3,16688.3,21399.7,16687.9,21400.3,16687.9z"/>
					</g>
				</g>
				<g id="Ellipse_1403-2" transform="translate(119.285 10.751)">
					<ellipse class="st7" cx="21404.3" cy="16694.2" rx="6.3" ry="6.3"/>
					<ellipse class="st13" cx="21404.3" cy="16694.2" rx="5.3" ry="5.3"/>
				</g>
			</g>
		</g>
	</g>
</g>
</svg>
