<?xml version="1.0" encoding="utf-8"?>
<!-- Generator: Adobe Illustrator 21.0.0, SVG Export Plug-In . SVG Version: 6.00 Build 0)  -->
<svg version="1.1" id="Layer_1" xmlns="http://www.w3.org/2000/svg" xmlns:xlink="http://www.w3.org/1999/xlink" x="0px" y="0px"
	 viewBox="0 0 30 30" enable-background="new 0 0 30 30" xml:space="preserve">
<g id="Group_8661" transform="translate(-10199 -18243.184)">
	<g id="Group_8655" transform="translate(0 -1.5)">
		<path id="Rectangle_3609-3" fill="#FFFFFF" stroke="#288ED9" stroke-width="2" d="M10203.1,18264.3h21.8l0,0v7.9
			c0,0.5-0.4,0.9-0.9,0.9h-19.9c-0.5,0-0.9-0.4-0.9-0.9V18264.3L10203.1,18264.3z"/>
		<circle id="Ellipse_1581-3" fill="#288ED9" cx="10207.4" cy="18268.7" r="1.1"/>
		<circle id="Ellipse_1582-3" fill="#288ED9" cx="10210.7" cy="18268.7" r="1.1"/>
		<circle id="Ellipse_1583-3" fill="#288ED9" cx="10214" cy="18268.7" r="1.1"/>
	</g>
	<g id="Group_8656-2" transform="translate(0 -11)">
		
			<rect id="Rectangle_3609-4" x="10203.1" y="18264.7" fill="#FFFFFF" stroke="#288ED9" stroke-width="2" width="21.8" height="8.9"/>
		<circle id="Ellipse_1581-4" fill="#288ED9" cx="10207.4" cy="18269.2" r="1.1"/>
		<circle id="Ellipse_1582-4" fill="#288ED9" cx="10210.7" cy="18269.2" r="1.1"/>
		<circle id="Ellipse_1583-4" fill="#288ED9" cx="10214" cy="18269.2" r="1.1"/>
	</g>
	<g id="Group_8662" transform="translate(0 -20.5)">
		<path id="Rectangle_3609-5" fill="#FFFFFF" stroke="#288ED9" stroke-width="2" d="M10204,18265.2h19.9c0.5,0,0.9,0.4,0.9,0.9v7.9
			l0,0h-21.8l0,0v-7.9C10203.1,18265.6,10203.5,18265.2,10204,18265.2z"/>
		<circle id="Ellipse_1581-5" fill="#288ED9" cx="10207.4" cy="18269.7" r="1.1"/>
		<circle id="Ellipse_1582-5" fill="#288ED9" cx="10210.7" cy="18269.7" r="1.1"/>
		<circle id="Ellipse_1583-5" fill="#288ED9" cx="10214" cy="18269.7" r="1.1"/>
	</g>
</g>
</svg>
