<?xml version="1.0" encoding="utf-8"?>
<!-- Generator: Adobe Illustrator 22.0.1, SVG Export Plug-In . SVG Version: 6.00 Build 0)  -->
<svg version="1.1" id="Layer_1" xmlns="http://www.w3.org/2000/svg" xmlns:xlink="http://www.w3.org/1999/xlink" x="0px" y="0px"
	 viewBox="0 0 180 160" style="enable-background:new 0 0 180 160;" xml:space="preserve">
<style type="text/css">
	.st0{fill:#C6E6FF;}
	.st1{fill:#30A3D1;}
	.st2{fill:#005B9F;}
	.st3{fill:#21E2E2;}
	.st4{fill:#0E71BB;}
	.st5{fill:#52ACEA;}
	.st6{fill:none;}
	.st7{fill:none;stroke:#FFBC98;stroke-width:2;}
	.st8{fill:#288ED9;}
	.st9{fill:#137FCF;}
	.st10{fill:#FFBC98;}
</style>
<g id="Group_7956" transform="translate(-28470.879 -10617.778)">
	<path id="Path_6215" class="st0" d="M28557.5,10646.8c-23.8,15.6-50.9,22.3-50.9,22.3s-35.8,8-24.1,48.8
		c11.7,40.8,26.6,56.3,68.8,41.6s49-2.8,77.2-19.3S28642.5,10591.8,28557.5,10646.8z"/>
	<g id="Group_7950" transform="translate(7497.48 -6047.73)">
		<g id="Group_7920" transform="translate(17.793 42.376)">
			<g id="Group_5848" transform="translate(0 54.298) rotate(-90)">
				<path id="Path_5507" class="st1" d="M-16682.8,21085"/>
				<path id="Rectangle_2754" class="st2" d="M-16685.3,21005.6L-16685.3,21005.6c1.4,0,2.5,1.1,2.5,2.5v74.4c0,1.4-1.1,2.5-2.5,2.5
					l0,0c-1.4,0-2.5-1.1-2.5-2.5v-74.4C-16687.7,21006.8-16686.6,21005.6-16685.3,21005.6z"/>
			</g>
			<g id="Group_7393" transform="translate(27.786 0)">
				<g id="Group_5847" transform="translate(8.931)">
					<path id="Rectangle_2754-2" class="st2" d="M21008.1,16687.7L21008.1,16687.7c1.4,0,2.5,1.1,2.5,2.5v41c0,1.4-1.1,2.5-2.5,2.5
						l0,0c-1.4,0-2.5-1.1-2.5-2.5v-41C21005.6,16688.9,21006.8,16687.7,21008.1,16687.7z"/>
				</g>
				<circle id="Ellipse_1241" class="st3" cx="21017.6" cy="16738.1" r="11.9"/>
			</g>
		</g>
		<g id="Group_7917" transform="translate(0)">
			<g id="Group_7901" transform="translate(0)">
				<g id="Group_5581">
					<path id="Path_3764" class="st4" d="M21009.5,16687.7h107.8c2.1,0,3.9,1.7,3.9,3.9v24.6c0,2.1-1.7,3.9-3.9,3.9h-107.8
						c-2.1,0-3.9-1.7-3.9-3.9l0,0v-24.6C21005.6,16689.5,21007.4,16687.7,21009.5,16687.7L21009.5,16687.7z"/>
					<path id="Rectangle_1631" class="st2" d="M21009.6,16687.7h38.4l0,0v32.4l0,0h-38.4c-2.2,0-4-1.8-4-4v-24.4
						C21005.6,16689.5,21007.4,16687.7,21009.6,16687.7z"/>
				</g>
				<g id="Group_5710" transform="translate(62.903 9.493)">
					<g id="Group_5584" transform="translate(0 0)">
						<path id="Rectangle_1405" class="st5" d="M21007.9,16687.7L21007.9,16687.7c1.3,0,2.3,1,2.3,2.3l0,0c0,1.3-1,2.3-2.3,2.3l0,0
							c-1.3,0-2.3-1-2.3-2.3l0,0C21005.6,16688.8,21006.7,16687.7,21007.9,16687.7z"/>
						<path id="Rectangle_1424" class="st5" d="M21013.4,16696.9L21013.4,16696.9c1.3,0,2.3,1,2.3,2.3l0,0c0,1.3-1,2.3-2.3,2.3l0,0
							c-1.3,0-2.3-1-2.3-2.3l0,0C21011.1,16697.9,21012.1,16696.9,21013.4,16696.9z"/>
						<path id="Rectangle_1406" class="st5" d="M21017,16687.7L21017,16687.7c1.3,0,2.3,1,2.3,2.3l0,0c0,1.3-1,2.3-2.3,2.3l0,0
							c-1.3,0-2.3-1-2.3-2.3l0,0C21014.8,16688.8,21015.8,16687.7,21017,16687.7z"/>
						<path id="Rectangle_1423" class="st5" d="M21022.5,16696.9L21022.5,16696.9c1.3,0,2.3,1,2.3,2.3l0,0c0,1.3-1,2.3-2.3,2.3l0,0
							c-1.3,0-2.3-1-2.3-2.3l0,0C21020.2,16697.9,21021.2,16696.9,21022.5,16696.9z"/>
						<path id="Rectangle_1407" class="st5" d="M21026.1,16687.7L21026.1,16687.7c1.3,0,2.3,1,2.3,2.3l0,0c0,1.3-1,2.3-2.3,2.3l0,0
							c-1.3,0-2.3-1-2.3-2.3l0,0C21023.9,16688.8,21024.9,16687.7,21026.1,16687.7z"/>
						<path id="Rectangle_1422" class="st5" d="M21031.6,16696.9L21031.6,16696.9c1.3,0,2.3,1,2.3,2.3l0,0c0,1.3-1,2.3-2.3,2.3l0,0
							c-1.3,0-2.3-1-2.3-2.3l0,0C21029.3,16697.9,21030.4,16696.9,21031.6,16696.9z"/>
					</g>
				</g>
				<g id="Ellipse_1404" transform="translate(99.668 13.241)">
					<ellipse class="st6" cx="21008.8" cy="16690.9" rx="3.1" ry="3.1"/>
					<ellipse class="st7" cx="21008.8" cy="16690.9" rx="2.1" ry="2.1"/>
				</g>
				<g id="Group_7371" transform="translate(51.513 8.167)">
					<path id="Rectangle_3143" class="st5" d="M21007,16687.7L21007,16687.7c0.8,0,1.4,0.6,1.4,1.4v14.4c0,0.8-0.6,1.4-1.4,1.4l0,0
						c-0.8,0-1.4-0.6-1.4-1.4v-14.4C21005.6,16688.4,21006.3,16687.7,21007,16687.7z"/>
					<path id="Rectangle_3144" class="st3" d="M21005.6,16698.3h2.8l0,0v5.3c0,0.8-0.6,1.4-1.4,1.4l0,0l0,0c-0.8,0-1.4-0.6-1.4-1.4
						l0,0V16698.3L21005.6,16698.3z"/>
				</g>
				<g id="Group_7370" transform="translate(11.346 8.167)">
					<g id="Group_7361" transform="translate(13.829 0)">
						<path id="Rectangle_1425" class="st8" d="M21007.9,16700.2L21007.9,16700.2c1.3,0,2.3,1,2.3,2.3v0.2c0,1.3-1,2.3-2.3,2.3l0,0
							c-1.3,0-2.3-1-2.3-2.3v-0.2C21005.6,16701.2,21006.7,16700.2,21007.9,16700.2z"/>
						<path id="Rectangle_3140" class="st9" d="M21008.1,16687.7L21008.1,16687.7c0.6,0,1,0.5,1,1v8.1c0,0.6-0.5,1-1,1l0,0
							c-0.6,0-1-0.5-1-1v-8.1C21007,16688.2,21007.5,16687.7,21008.1,16687.7z"/>
					</g>
					<g id="Group_7362" transform="translate(6.915 1.383)">
						<path id="Rectangle_1442" class="st10" d="M21007.9,16698.8L21007.9,16698.8c1.3,0,2.3,1,2.3,2.3v0.2c0,1.3-1,2.3-2.3,2.3l0,0
							c-1.3,0-2.3-1-2.3-2.3v-0.2C21005.6,16699.8,21006.7,16698.8,21007.9,16698.8z"/>
						<path id="Rectangle_3141" class="st10" d="M21008.1,16687.7L21008.1,16687.7c0.6,0,1,0.5,1,1v6.7c0,0.6-0.5,1-1,1l0,0
							c-0.6,0-1-0.5-1-1v-6.7C21007,16688.2,21007.5,16687.7,21008.1,16687.7z"/>
					</g>
					<g id="Group_7363" transform="translate(0 4.617)">
						<path id="Rectangle_1425-2" class="st3" d="M21007.9,16695.6L21007.9,16695.6c1.3,0,2.3,1,2.3,2.3v0.2c0,1.3-1,2.3-2.3,2.3
							l0,0c-1.3,0-2.3-1-2.3-2.3v-0.2C21005.6,16696.6,21006.7,16695.6,21007.9,16695.6z"/>
						<path id="Rectangle_3142" class="st3" d="M21008.1,16687.7L21008.1,16687.7c0.6,0,1,0.5,1,1v3.5c0,0.6-0.5,1-1,1l0,0
							c-0.6,0-1-0.5-1-1v-3.5C21007,16688.2,21007.5,16687.7,21008.1,16687.7z"/>
					</g>
				</g>
			</g>
			<g id="Group_7902" transform="translate(0 35.322)">
				<g id="Group_5581-2">
					<path id="Path_3764-2" class="st4" d="M21009.5,16687.7h107.8c2.1,0,3.9,1.7,3.9,3.9v24.6c0,2.1-1.7,3.9-3.9,3.9h-107.8
						c-2.1,0-3.9-1.7-3.9-3.9l0,0v-24.6C21005.6,16689.5,21007.4,16687.7,21009.5,16687.7L21009.5,16687.7z"/>
					<path id="Rectangle_1631-2" class="st2" d="M21009.6,16687.7h38.4l0,0v32.4l0,0h-38.4c-2.2,0-4-1.8-4-4v-24.4
						C21005.6,16689.5,21007.4,16687.7,21009.6,16687.7z"/>
				</g>
				<g id="Group_5710-2" transform="translate(62.903 9.493)">
					<g id="Group_5584-2" transform="translate(0 0)">
						<path id="Rectangle_1405-2" class="st5" d="M21007.9,16687.7L21007.9,16687.7c1.3,0,2.3,1,2.3,2.3l0,0c0,1.3-1,2.3-2.3,2.3
							l0,0c-1.3,0-2.3-1-2.3-2.3l0,0C21005.6,16688.8,21006.7,16687.7,21007.9,16687.7z"/>
						<path id="Rectangle_1424-2" class="st5" d="M21013.4,16696.9L21013.4,16696.9c1.3,0,2.3,1,2.3,2.3l0,0c0,1.3-1,2.3-2.3,2.3
							l0,0c-1.3,0-2.3-1-2.3-2.3l0,0C21011.1,16697.9,21012.1,16696.9,21013.4,16696.9z"/>
						<path id="Rectangle_1406-2" class="st5" d="M21017,16687.7L21017,16687.7c1.3,0,2.3,1,2.3,2.3l0,0c0,1.3-1,2.3-2.3,2.3l0,0
							c-1.3,0-2.3-1-2.3-2.3l0,0C21014.8,16688.8,21015.8,16687.7,21017,16687.7z"/>
						<path id="Rectangle_1423-2" class="st5" d="M21022.5,16696.9L21022.5,16696.9c1.3,0,2.3,1,2.3,2.3l0,0c0,1.3-1,2.3-2.3,2.3
							l0,0c-1.3,0-2.3-1-2.3-2.3l0,0C21020.2,16697.9,21021.2,16696.9,21022.5,16696.9z"/>
						<path id="Rectangle_1407-2" class="st5" d="M21026.1,16687.7L21026.1,16687.7c1.3,0,2.3,1,2.3,2.3l0,0c0,1.3-1,2.3-2.3,2.3
							l0,0c-1.3,0-2.3-1-2.3-2.3l0,0C21023.9,16688.8,21024.9,16687.7,21026.1,16687.7z"/>
						<path id="Rectangle_1422-2" class="st5" d="M21031.6,16696.9L21031.6,16696.9c1.3,0,2.3,1,2.3,2.3l0,0c0,1.3-1,2.3-2.3,2.3
							l0,0c-1.3,0-2.3-1-2.3-2.3l0,0C21029.3,16697.9,21030.4,16696.9,21031.6,16696.9z"/>
					</g>
				</g>
				<g id="Ellipse_1404-2" transform="translate(99.668 13.241)">
					<ellipse class="st6" cx="21008.8" cy="16690.9" rx="3.1" ry="3.1"/>
					<ellipse class="st7" cx="21008.8" cy="16690.9" rx="2.1" ry="2.1"/>
				</g>
				<g id="Group_7371-2" transform="translate(51.513 8.167)">
					<path id="Rectangle_3143-2" class="st5" d="M21007,16687.7L21007,16687.7c0.8,0,1.4,0.6,1.4,1.4v14.4c0,0.8-0.6,1.4-1.4,1.4
						l0,0c-0.8,0-1.4-0.6-1.4-1.4v-14.4C21005.6,16688.4,21006.3,16687.7,21007,16687.7z"/>
					<path id="Rectangle_3144-2" class="st3" d="M21005.6,16698.3h2.8l0,0v5.3c0,0.8-0.6,1.4-1.4,1.4l0,0l0,0
						c-0.8,0-1.4-0.6-1.4-1.4l0,0V16698.3L21005.6,16698.3z"/>
				</g>
				<g id="Group_7370-2" transform="translate(11.346 8.167)">
					<g id="Group_7361-2" transform="translate(13.829 0)">
						<path id="Rectangle_1425-3" class="st8" d="M21007.9,16700.2L21007.9,16700.2c1.3,0,2.3,1,2.3,2.3v0.2c0,1.3-1,2.3-2.3,2.3
							l0,0c-1.3,0-2.3-1-2.3-2.3v-0.2C21005.6,16701.2,21006.7,16700.2,21007.9,16700.2z"/>
						<path id="Rectangle_3140-2" class="st9" d="M21008.1,16687.7L21008.1,16687.7c0.6,0,1,0.5,1,1v8.1c0,0.6-0.5,1-1,1l0,0
							c-0.6,0-1-0.5-1-1v-8.1C21007,16688.2,21007.5,16687.7,21008.1,16687.7z"/>
					</g>
					<g id="Group_7362-2" transform="translate(6.915 1.383)">
						<path id="Rectangle_1442-2" class="st10" d="M21007.9,16698.8L21007.9,16698.8c1.3,0,2.3,1,2.3,2.3v0.2c0,1.3-1,2.3-2.3,2.3
							l0,0c-1.3,0-2.3-1-2.3-2.3v-0.2C21005.6,16699.8,21006.7,16698.8,21007.9,16698.8z"/>
						<path id="Rectangle_3141-2" class="st10" d="M21008.1,16687.7L21008.1,16687.7c0.6,0,1,0.5,1,1v6.7c0,0.6-0.5,1-1,1l0,0
							c-0.6,0-1-0.5-1-1v-6.7C21007,16688.2,21007.5,16687.7,21008.1,16687.7z"/>
					</g>
					<g id="Group_7363-2" transform="translate(0 4.617)">
						<path id="Rectangle_1425-4" class="st3" d="M21007.9,16695.6L21007.9,16695.6c1.3,0,2.3,1,2.3,2.3v0.2c0,1.3-1,2.3-2.3,2.3
							l0,0c-1.3,0-2.3-1-2.3-2.3v-0.2C21005.6,16696.6,21006.7,16695.6,21007.9,16695.6z"/>
						<path id="Rectangle_3142-2" class="st3" d="M21008.1,16687.7L21008.1,16687.7c0.6,0,1,0.5,1,1v3.5c0,0.6-0.5,1-1,1l0,0
							c-0.6,0-1-0.5-1-1v-3.5C21007,16688.2,21007.5,16687.7,21008.1,16687.7z"/>
					</g>
				</g>
			</g>
		</g>
	</g>
</g>
</svg>
