<?xml version="1.0" encoding="utf-8"?>
<!-- Generator: Adobe Illustrator 22.0.1, SVG Export Plug-In . SVG Version: 6.00 Build 0)  -->
<svg version="1.1" id="Layer_1" xmlns="http://www.w3.org/2000/svg" xmlns:xlink="http://www.w3.org/1999/xlink" x="0px" y="0px"
	 viewBox="0 0 180 160" style="enable-background:new 0 0 180 160;" xml:space="preserve">
<style type="text/css">
	.st0{fill:#C6E6FF;}
	.st1{fill:#30A3D1;}
	.st2{fill:#005B9F;}
	.st3{fill:#21E2E2;}
	.st4{fill:#0E71BB;}
	.st5{fill:#52ACEA;}
	.st6{fill:#FFBC98;}
	.st7{fill:none;}
	.st8{fill:none;stroke:#FFBC98;stroke-width:2;}
	.st9{fill:#80C9FF;}
	.st10{fill:#288ED9;}
	.st11{fill:#137FCF;}
	.st12{fill:#D6EEFF;}
	.st13{fill:#FFFFFF;}
	.st14{fill:none;stroke:#21E2E2;stroke-width:2;}
</style>
<g id="Group_7954" transform="translate(-21995 -20031.217)">
	<g id="Group_7952" transform="translate(195.128 3345.227) rotate(-3)">
		<path id="Path_5504" class="st0" d="M20970.8,17942.1c-22.3-23.1-50.8-38.5-50.8-38.5s-32.2-13.8-10.2-46.5s35.8-60.7,66.4-34.5
			c30.5,26.2,56.3,14.8,81,26.4C21082,17860.7,21050.4,18023.9,20970.8,17942.1z"/>
	</g>
	<g id="Group_7953" transform="translate(217.712 3364.319)">
		<g id="Group_5850" transform="translate(42.305 61.448)">
			<g id="Group_5848" transform="translate(0 42.306) rotate(-90)">
				<path id="Path_5507" class="st1" d="M-16680.5,21866.8"/>
				<path id="Rectangle_2754" class="st2" d="M-16682.9,21789.9L-16682.9,21789.9c1.3,0,2.4,1.1,2.4,2.4v72.1c0,1.3-1.1,2.4-2.4,2.4
					l0,0c-1.3,0-2.4-1.1-2.4-2.4v-72.1C-16685.3,21790.9-16684.2,21789.9-16682.9,21789.9z"/>
			</g>
			<g id="Group_7393" transform="translate(26.922)">
				<g id="Group_5847" transform="translate(8.653)">
					<rect id="Rectangle_2754-2" x="21789.9" y="16685.3" class="st2" width="4.8" height="30.4"/>
				</g>
				<circle id="Ellipse_1241" class="st3" cx="21801.4" cy="16723.8" r="11.5"/>
			</g>
		</g>
		<g id="Group_7919" transform="translate(0 0)">
			<g id="Group_7392" transform="translate(0 39.503)">
				<g id="Group_7180" transform="translate(0 0)">
					<g id="Group_5583" transform="translate(0 0)">
						<g id="Group_5582">
							<g id="Group_5581">
								<path id="Path_3764" class="st4" d="M21795.2,16685.3h150.2c3,0,5.4,2,5.4,4.4v27.9c0,2.4-2.4,4.4-5.4,4.4h-150.2
									c-3,0-5.4-2-5.4-4.4v-27.9C21789.9,16687.3,21792.3,16685.3,21795.2,16685.3z"/>
								<path id="Rectangle_1631" class="st2" d="M21793.9,16685.3h50.3l0,0v36.6l0,0h-50.3c-2.2,0-4-1.8-4-4v-28.6
									C21789.9,16687.1,21791.7,16685.3,21793.9,16685.3z"/>
							</g>
						</g>
					</g>
				</g>
				<g id="Group_7183" transform="translate(99.656 12.691)">
					<g id="Group_5584" transform="translate(0 0)">
						<path id="Rectangle_1405" class="st5" d="M21791.6,16685.3L21791.6,16685.3c0.9,0,1.7,0.8,1.7,1.7l0,0c0,0.9-0.8,1.7-1.7,1.7
							l0,0c-0.9,0-1.7-0.8-1.7-1.7l0,0C21789.9,16686.1,21790.6,16685.3,21791.6,16685.3z"/>
						<path id="Rectangle_1424" class="st3" d="M21795.7,16692.1L21795.7,16692.1c0.9,0,1.7,0.8,1.7,1.7l0,0c0,0.9-0.8,1.7-1.7,1.7
							l0,0c-0.9,0-1.7-0.8-1.7-1.7l0,0C21794,16692.9,21794.7,16692.1,21795.7,16692.1z"/>
						<path id="Rectangle_1406" class="st5" d="M21798.4,16685.3L21798.4,16685.3c0.9,0,1.7,0.8,1.7,1.7l0,0c0,0.9-0.8,1.7-1.7,1.7
							l0,0c-0.9,0-1.7-0.8-1.7-1.7l0,0C21796.7,16686.1,21797.4,16685.3,21798.4,16685.3z"/>
						<path id="Rectangle_1423" class="st5" d="M21802.5,16692.1L21802.5,16692.1c0.9,0,1.7,0.8,1.7,1.7l0,0c0,0.9-0.8,1.7-1.7,1.7
							l0,0c-0.9,0-1.7-0.8-1.7-1.7l0,0C21800.8,16692.9,21801.5,16692.1,21802.5,16692.1z"/>
						<path id="Rectangle_1407" class="st6" d="M21805.2,16685.3L21805.2,16685.3c0.9,0,1.7,0.8,1.7,1.7l0,0c0,0.9-0.8,1.7-1.7,1.7
							l0,0c-0.9,0-1.7-0.8-1.7-1.7l0,0C21803.5,16686.1,21804.3,16685.3,21805.2,16685.3z"/>
						<path id="Rectangle_1422" class="st5" d="M21809.3,16692.1L21809.3,16692.1c0.9,0,1.7,0.8,1.7,1.7l0,0c0,0.9-0.8,1.7-1.7,1.7
							l0,0c-0.9,0-1.7-0.8-1.7-1.7l0,0C21807.6,16692.9,21808.4,16692.1,21809.3,16692.1z"/>
						<path id="Rectangle_1408" class="st5" d="M21812,16685.3L21812,16685.3c0.9,0,1.7,0.8,1.7,1.7l0,0c0,0.9-0.8,1.7-1.7,1.7l0,0
							c-0.9,0-1.7-0.8-1.7-1.7l0,0C21810.3,16686.1,21811.1,16685.3,21812,16685.3z"/>
						<path id="Rectangle_1421" class="st3" d="M21816.1,16692.1L21816.1,16692.1c0.9,0,1.7,0.8,1.7,1.7l0,0c0,0.9-0.8,1.7-1.7,1.7
							l0,0c-0.9,0-1.7-0.8-1.7-1.7l0,0C21814.4,16692.9,21815.2,16692.1,21816.1,16692.1z"/>
						<path id="Rectangle_1409" class="st5" d="M21818.8,16685.3L21818.8,16685.3c0.9,0,1.7,0.8,1.7,1.7l0,0c0,0.9-0.8,1.7-1.7,1.7
							l0,0c-0.9,0-1.7-0.8-1.7-1.7l0,0C21817.1,16686.1,21817.9,16685.3,21818.8,16685.3z"/>
						<path id="Rectangle_1420" class="st5" d="M21822.9,16692.1L21822.9,16692.1c0.9,0,1.7,0.8,1.7,1.7l0,0c0,0.9-0.8,1.7-1.7,1.7
							l0,0c-0.9,0-1.7-0.8-1.7-1.7l0,0C21821.2,16692.9,21822,16692.1,21822.9,16692.1z"/>
					</g>
				</g>
				<g id="Ellipse_1402" transform="translate(141.728 14.623)">
					<ellipse class="st7" cx="21792.8" cy="16688.2" rx="2.9" ry="2.9"/>
					<ellipse class="st8" cx="21792.8" cy="16688.2" rx="1.9" ry="1.9"/>
				</g>
				<path id="Rectangle_3126" class="st5" d="M21883.3,16696.7L21883.3,16696.7c0.7,0,1.3,0.6,1.3,1.3v9.7c0,0.7-0.6,1.3-1.3,1.3
					l0,0c-0.7,0-1.3-0.6-1.3-1.3v-9.7C21882,16697.3,21882.6,16696.7,21883.3,16696.7z"/>
				<path id="Rectangle_3127" class="st5" d="M21878.1,16696.7L21878.1,16696.7c0.7,0,1.3,0.6,1.3,1.3v9.7c0,0.7-0.6,1.3-1.3,1.3
					l0,0c-0.7,0-1.3-0.6-1.3-1.3v-9.7C21876.8,16697.3,21877.4,16696.7,21878.1,16696.7z"/>
				<rect id="Rectangle_3128" x="21852.4" y="16696.7" class="st2" width="20.6" height="5.2"/>
				<rect id="Rectangle_3129" x="21852.4" y="16703.8" class="st2" width="20.6" height="5.2"/>
				<path id="Rectangle_3130" class="st6" d="M21882,16699.3h2.6l0,0v8.4c0,0.7-0.6,1.3-1.3,1.3l0,0l0,0c-0.7,0-1.3-0.6-1.3-1.3l0,0
					L21882,16699.3L21882,16699.3z"/>
				<path id="Rectangle_3131" class="st3" d="M21876.8,16704.2h2.6l0,0v3.5c0,0.7-0.6,1.3-1.3,1.3l0,0l0,0c-0.7,0-1.3-0.6-1.3-1.3
					L21876.8,16704.2L21876.8,16704.2z"/>
				<rect id="Rectangle_3132" x="21852.4" y="16696.7" class="st9" width="5.2" height="5.2"/>
				<rect id="Rectangle_3133" x="21852.4" y="16703.8" class="st9" width="5.2" height="5.2"/>
				<rect id="Rectangle_3136" x="21860.1" y="16698.6" class="st10" width="10.3" height="1.3"/>
				<rect id="Rectangle_3137" x="21860.1" y="16705.7" class="st10" width="10.3" height="1.3"/>
				<g id="Group_7364" transform="translate(11.734 7.995)">
					<g id="Group_7359" transform="translate(25.766 1.475)">
						<path id="Rectangle_3070" class="st10" d="M21792,16697.8L21792,16697.8c1.2,0,2.1,1,2.1,2.1v0.2c0,1.2-1,2.1-2.1,2.1l0,0
							c-1.2,0-2.1-1-2.1-2.1v-0.2C21789.9,16698.7,21790.8,16697.8,21792,16697.8z"/>
						<path id="Rectangle_3138" class="st11" d="M21792.1,16685.3L21792.1,16685.3c0.5,0,1,0.4,1,1v8.4c0,0.5-0.4,1-1,1l0,0
							c-0.5,0-1-0.4-1-1v-8.4C21791.2,16685.7,21791.6,16685.3,21792.1,16685.3z"/>
					</g>
					<g id="Group_7360" transform="translate(19.325 5.34)">
						<path id="Rectangle_1442" class="st12" d="M21792,16693.9L21792,16693.9c1.2,0,2.1,1,2.1,2.1v0.2c0,1.2-1,2.1-2.1,2.1l0,0
							c-1.2,0-2.1-1-2.1-2.1v-0.2C21789.9,16694.8,21790.8,16693.9,21792,16693.9z"/>
						<path id="Rectangle_3139" class="st13" d="M21792.1,16685.3L21792.1,16685.3c0.5,0,1,0.4,1,1v4.5c0,0.5-0.4,1-1,1l0,0
							c-0.5,0-1-0.4-1-1v-4.5C21791.2,16685.7,21791.6,16685.3,21792.1,16685.3z"/>
					</g>
					<g id="Group_7361" transform="translate(12.883 0)">
						<path id="Rectangle_1425" class="st10" d="M21792,16699.2L21792,16699.2c1.2,0,2.1,1,2.1,2.1v0.2c0,1.2-1,2.1-2.1,2.1l0,0
							c-1.2,0-2.1-1-2.1-2.1v-0.2C21789.9,16700.2,21790.8,16699.2,21792,16699.2z"/>
						<path id="Rectangle_3140" class="st11" d="M21792.1,16685.3L21792.1,16685.3c0.5,0,1,0.4,1,1v9.8c0,0.5-0.4,1-1,1l0,0
							c-0.5,0-1-0.4-1-1v-9.8C21791.2,16685.7,21791.6,16685.3,21792.1,16685.3z"/>
					</g>
					<g id="Group_7362" transform="translate(6.442 2.452)">
						<path id="Rectangle_1442-2" class="st6" d="M21792,16696.8L21792,16696.8c1.2,0,2.1,1,2.1,2.1v0.2c0,1.2-1,2.1-2.1,2.1l0,0
							c-1.2,0-2.1-1-2.1-2.1v-0.2C21789.9,16697.7,21790.8,16696.8,21792,16696.8z"/>
						<path id="Rectangle_3141" class="st6" d="M21792.1,16685.3L21792.1,16685.3c0.5,0,1,0.4,1,1v7.4c0,0.5-0.4,1-1,1l0,0
							c-0.5,0-1-0.4-1-1v-7.4C21791.2,16685.7,21791.6,16685.3,21792.1,16685.3z"/>
					</g>
					<g id="Group_7363" transform="translate(0 6.628)">
						<path id="Rectangle_1425-2" class="st3" d="M21792,16692.6L21792,16692.6c1.2,0,2.1,1,2.1,2.1v0.2c0,1.2-1,2.1-2.1,2.1l0,0
							c-1.2,0-2.1-1-2.1-2.1v-0.2C21789.9,16693.6,21790.8,16692.6,21792,16692.6z"/>
						<path id="Rectangle_3142" class="st3" d="M21792.1,16685.3L21792.1,16685.3c0.5,0,1,0.4,1,1v3.2c0,0.5-0.4,1-1,1l0,0
							c-0.5,0-1-0.4-1-1v-3.2C21791.2,16685.7,21791.6,16685.3,21792.1,16685.3z"/>
					</g>
				</g>
				<g id="Ellipse_1403" transform="translate(138.507 11.403)">
					<ellipse class="st7" cx="21796" cy="16691.4" rx="6.1" ry="6.1"/>
					<ellipse class="st14" cx="21796" cy="16691.4" rx="5.1" ry="5.1"/>
				</g>
			</g>
			<g id="Group_7916" transform="translate(0)">
				<g id="Group_7180-2" transform="translate(0)">
					<g id="Group_5583-2" transform="translate(0 0)">
						<g id="Group_5582-2">
							<g id="Group_5581-2">
								<path id="Path_3764-2" class="st4" d="M21795.2,16685.3h150.2c3,0,5.4,2,5.4,4.4v27.9c0,2.4-2.4,4.4-5.4,4.4h-150.2
									c-3,0-5.4-2-5.4-4.4v-27.9C21789.9,16687.3,21792.3,16685.3,21795.2,16685.3z"/>
								<path id="Rectangle_1631-2" class="st2" d="M21793.9,16685.3h50.3l0,0v36.6l0,0h-50.3c-2.2,0-4-1.8-4-4v-28.6
									C21789.9,16687.1,21791.7,16685.3,21793.9,16685.3z"/>
							</g>
						</g>
					</g>
				</g>
				<g id="Group_7183-2" transform="translate(99.656 12.691)">
					<g id="Group_5584-2" transform="translate(0 0)">
						<path id="Rectangle_1405-2" class="st5" d="M21791.6,16685.3L21791.6,16685.3c0.9,0,1.7,0.8,1.7,1.7l0,0
							c0,0.9-0.8,1.7-1.7,1.7l0,0c-0.9,0-1.7-0.8-1.7-1.7l0,0C21789.9,16686.1,21790.6,16685.3,21791.6,16685.3z"/>
						<path id="Rectangle_1424-2" class="st3" d="M21795.7,16692.1L21795.7,16692.1c0.9,0,1.7,0.8,1.7,1.7l0,0
							c0,0.9-0.8,1.7-1.7,1.7l0,0c-0.9,0-1.7-0.8-1.7-1.7l0,0C21794,16692.9,21794.7,16692.1,21795.7,16692.1z"/>
						<path id="Rectangle_1406-2" class="st5" d="M21798.4,16685.3L21798.4,16685.3c0.9,0,1.7,0.8,1.7,1.7l0,0
							c0,0.9-0.8,1.7-1.7,1.7l0,0c-0.9,0-1.7-0.8-1.7-1.7l0,0C21796.7,16686.1,21797.4,16685.3,21798.4,16685.3z"/>
						<path id="Rectangle_1423-2" class="st5" d="M21802.5,16692.1L21802.5,16692.1c0.9,0,1.7,0.8,1.7,1.7l0,0
							c0,0.9-0.8,1.7-1.7,1.7l0,0c-0.9,0-1.7-0.8-1.7-1.7l0,0C21800.8,16692.9,21801.5,16692.1,21802.5,16692.1z"/>
						<path id="Rectangle_1407-2" class="st6" d="M21805.2,16685.3L21805.2,16685.3c0.9,0,1.7,0.8,1.7,1.7l0,0
							c0,0.9-0.8,1.7-1.7,1.7l0,0c-0.9,0-1.7-0.8-1.7-1.7l0,0C21803.5,16686.1,21804.3,16685.3,21805.2,16685.3z"/>
						<path id="Rectangle_1422-2" class="st5" d="M21809.3,16692.1L21809.3,16692.1c0.9,0,1.7,0.8,1.7,1.7l0,0
							c0,0.9-0.8,1.7-1.7,1.7l0,0c-0.9,0-1.7-0.8-1.7-1.7l0,0C21807.6,16692.9,21808.4,16692.1,21809.3,16692.1z"/>
						<path id="Rectangle_1408-2" class="st5" d="M21812,16685.3L21812,16685.3c0.9,0,1.7,0.8,1.7,1.7l0,0c0,0.9-0.8,1.7-1.7,1.7
							l0,0c-0.9,0-1.7-0.8-1.7-1.7l0,0C21810.3,16686.1,21811.1,16685.3,21812,16685.3z"/>
						<path id="Rectangle_1421-2" class="st3" d="M21816.1,16692.1L21816.1,16692.1c0.9,0,1.7,0.8,1.7,1.7l0,0
							c0,0.9-0.8,1.7-1.7,1.7l0,0c-0.9,0-1.7-0.8-1.7-1.7l0,0C21814.4,16692.9,21815.2,16692.1,21816.1,16692.1z"/>
						<path id="Rectangle_1409-2" class="st5" d="M21818.8,16685.3L21818.8,16685.3c0.9,0,1.7,0.8,1.7,1.7l0,0
							c0,0.9-0.8,1.7-1.7,1.7l0,0c-0.9,0-1.7-0.8-1.7-1.7l0,0C21817.1,16686.1,21817.9,16685.3,21818.8,16685.3z"/>
						<path id="Rectangle_1420-2" class="st5" d="M21822.9,16692.1L21822.9,16692.1c0.9,0,1.7,0.8,1.7,1.7l0,0
							c0,0.9-0.8,1.7-1.7,1.7l0,0c-0.9,0-1.7-0.8-1.7-1.7l0,0C21821.2,16692.9,21822,16692.1,21822.9,16692.1z"/>
					</g>
				</g>
				<g id="Ellipse_1402-2" transform="translate(141.728 14.623)">
					<ellipse class="st7" cx="21792.8" cy="16688.2" rx="2.9" ry="2.9"/>
					<ellipse class="st8" cx="21792.8" cy="16688.2" rx="1.9" ry="1.9"/>
				</g>
				<path id="Rectangle_3126-2" class="st5" d="M21883.3,16696.7L21883.3,16696.7c0.7,0,1.3,0.6,1.3,1.3v9.7c0,0.7-0.6,1.3-1.3,1.3
					l0,0c-0.7,0-1.3-0.6-1.3-1.3v-9.7C21882,16697.3,21882.6,16696.7,21883.3,16696.7z"/>
				<path id="Rectangle_3127-2" class="st5" d="M21878.1,16696.7L21878.1,16696.7c0.7,0,1.3,0.6,1.3,1.3v9.7c0,0.7-0.6,1.3-1.3,1.3
					l0,0c-0.7,0-1.3-0.6-1.3-1.3v-9.7C21876.8,16697.3,21877.4,16696.7,21878.1,16696.7z"/>
				<rect id="Rectangle_3128-2" x="21852.4" y="16696.7" class="st2" width="20.6" height="5.2"/>
				<rect id="Rectangle_3129-2" x="21852.4" y="16703.8" class="st2" width="20.6" height="5.2"/>
				<path id="Rectangle_3130-2" class="st6" d="M21882,16699.3h2.6l0,0v8.4c0,0.7-0.6,1.3-1.3,1.3l0,0l0,0c-0.7,0-1.3-0.6-1.3-1.3
					l0,0L21882,16699.3L21882,16699.3z"/>
				<path id="Rectangle_3131-2" class="st3" d="M21876.8,16704.2h2.6l0,0v3.5c0,0.7-0.6,1.3-1.3,1.3l0,0l0,0c-0.7,0-1.3-0.6-1.3-1.3
					L21876.8,16704.2L21876.8,16704.2z"/>
				<rect id="Rectangle_3132-2" x="21852.4" y="16696.7" class="st9" width="5.2" height="5.2"/>
				<rect id="Rectangle_3133-2" x="21852.4" y="16703.8" class="st9" width="5.2" height="5.2"/>
				<rect id="Rectangle_3136-2" x="21860.1" y="16698.6" class="st10" width="10.3" height="1.3"/>
				<rect id="Rectangle_3137-2" x="21860.1" y="16705.7" class="st10" width="10.3" height="1.3"/>
				<g id="Group_7364-2" transform="translate(11.734 7.995)">
					<g id="Group_7359-2" transform="translate(25.766 1.475)">
						<path id="Rectangle_3070-2" class="st10" d="M21792,16697.8L21792,16697.8c1.2,0,2.1,1,2.1,2.1v0.2c0,1.2-1,2.1-2.1,2.1l0,0
							c-1.2,0-2.1-1-2.1-2.1v-0.2C21789.9,16698.7,21790.8,16697.8,21792,16697.8z"/>
						<path id="Rectangle_3138-2" class="st11" d="M21792.1,16685.3L21792.1,16685.3c0.5,0,1,0.4,1,1v8.4c0,0.5-0.4,1-1,1l0,0
							c-0.5,0-1-0.4-1-1v-8.4C21791.2,16685.7,21791.6,16685.3,21792.1,16685.3z"/>
					</g>
					<g id="Group_7360-2" transform="translate(19.325 5.34)">
						<path id="Rectangle_1442-3" class="st12" d="M21792,16693.9L21792,16693.9c1.2,0,2.1,1,2.1,2.1v0.2c0,1.2-1,2.1-2.1,2.1l0,0
							c-1.2,0-2.1-1-2.1-2.1v-0.2C21789.9,16694.8,21790.8,16693.9,21792,16693.9z"/>
						<path id="Rectangle_3139-2" class="st13" d="M21792.1,16685.3L21792.1,16685.3c0.5,0,1,0.4,1,1v4.5c0,0.5-0.4,1-1,1l0,0
							c-0.5,0-1-0.4-1-1v-4.5C21791.2,16685.7,21791.6,16685.3,21792.1,16685.3z"/>
					</g>
					<g id="Group_7361-2" transform="translate(12.883 0)">
						<path id="Rectangle_1425-3" class="st10" d="M21792,16699.2L21792,16699.2c1.2,0,2.1,1,2.1,2.1v0.2c0,1.2-1,2.1-2.1,2.1l0,0
							c-1.2,0-2.1-1-2.1-2.1v-0.2C21789.9,16700.2,21790.8,16699.2,21792,16699.2z"/>
						<path id="Rectangle_3140-2" class="st11" d="M21792.1,16685.3L21792.1,16685.3c0.5,0,1,0.4,1,1v9.8c0,0.5-0.4,1-1,1l0,0
							c-0.5,0-1-0.4-1-1v-9.8C21791.2,16685.7,21791.6,16685.3,21792.1,16685.3z"/>
					</g>
					<g id="Group_7362-2" transform="translate(6.442 2.452)">
						<path id="Rectangle_1442-4" class="st6" d="M21792,16696.8L21792,16696.8c1.2,0,2.1,1,2.1,2.1v0.2c0,1.2-1,2.1-2.1,2.1l0,0
							c-1.2,0-2.1-1-2.1-2.1v-0.2C21789.9,16697.7,21790.8,16696.8,21792,16696.8z"/>
						<path id="Rectangle_3141-2" class="st6" d="M21792.1,16685.3L21792.1,16685.3c0.5,0,1,0.4,1,1v7.4c0,0.5-0.4,1-1,1l0,0
							c-0.5,0-1-0.4-1-1v-7.4C21791.2,16685.7,21791.6,16685.3,21792.1,16685.3z"/>
					</g>
					<g id="Group_7363-2" transform="translate(0 6.628)">
						<path id="Rectangle_1425-4" class="st3" d="M21792,16692.6L21792,16692.6c1.2,0,2.1,1,2.1,2.1v0.2c0,1.2-1,2.1-2.1,2.1l0,0
							c-1.2,0-2.1-1-2.1-2.1v-0.2C21789.9,16693.6,21790.8,16692.6,21792,16692.6z"/>
						<path id="Rectangle_3142-2" class="st3" d="M21792.1,16685.3L21792.1,16685.3c0.5,0,1,0.4,1,1v3.2c0,0.5-0.4,1-1,1l0,0
							c-0.5,0-1-0.4-1-1v-3.2C21791.2,16685.7,21791.6,16685.3,21792.1,16685.3z"/>
					</g>
				</g>
				<g id="Ellipse_1403-2" transform="translate(138.507 11.403)">
					<ellipse class="st7" cx="21796" cy="16691.4" rx="6.1" ry="6.1"/>
					<ellipse class="st14" cx="21796" cy="16691.4" rx="5.1" ry="5.1"/>
				</g>
			</g>
		</g>
	</g>
</g>
</svg>
