<svg xmlns="http://www.w3.org/2000/svg" xmlns:xlink="http://www.w3.org/1999/xlink" viewBox="-21922.744 -17650.439 854.287 612.51">
  <defs>
    <style>
      .cls-1 {
        fill: url(#linear-gradient);
      }

      .cls-2 {
        fill: #137fcf;
      }

      .cls-3 {
        fill: #288ed9;
      }

      .cls-11, .cls-29, .cls-30, .cls-32, .cls-4, .cls-9 {
        fill: none;
      }

      .cls-4, .cls-9 {
        stroke: #288ed9;
      }

      .cls-5, .cls-6 {
        fill: #c6e6ff;
      }

      .cls-5 {
        opacity: 0.576;
      }

      .cls-6 {
        opacity: 0.435;
      }

      .cls-7 {
        fill: url(#linear-gradient-2);
      }

      .cls-8 {
        opacity: 0.642;
        fill: url(#linear-gradient-3);
      }

      .cls-11, .cls-9 {
        stroke-linecap: round;
        stroke-miterlimit: 10;
        stroke-width: 4px;
      }

      .cls-10 {
        fill: #005b9f;
      }

      .cls-11 {
        stroke: #014374;
      }

      .cls-12 {
        fill: #003c69;
      }

      .cls-13 {
        fill: url(#linear-gradient-4);
      }

      .cls-14, .cls-24 {
        fill: #004b83;
      }

      .cls-15 {
        fill: #0e71bb;
        opacity: 0.195;
      }

      .cls-16 {
        fill: #ffbc98;
      }

      .cls-17 {
        fill: #d6eeff;
      }

      .cls-18 {
        fill: #21e2e2;
      }

      .cls-19 {
        fill: #ffb68f;
      }

      .cls-20 {
        opacity: 0.031;
      }

      .cls-20, .cls-21, .cls-22 {
        fill: url(#linear-gradient-5);
      }

      .cls-21 {
        opacity: 0.045;
      }

      .cls-22 {
        opacity: 0.1;
      }

      .cls-23 {
        fill: url(#linear-gradient-8);
      }

      .cls-24 {
        opacity: 0.862;
      }

      .cls-25 {
        fill: url(#linear-gradient-9);
      }

      .cls-26 {
        fill: url(#linear-gradient-10);
      }

      .cls-27 {
        fill: #fff;
      }

      .cls-28 {
        fill: url(#linear-gradient-11);
      }

      .cls-29 {
        stroke: #f7f7f7;
      }

      .cls-29, .cls-30 {
        opacity: 0.23;
      }

      .cls-30 {
        stroke: #fff;
      }

      .cls-31 {
        stroke: none;
      }

      .cls-33 {
        filter: url(#Path_3434);
      }

      .cls-34 {
        filter: url(#Path_3436);
      }

      .cls-35 {
        filter: url(#Path_3435);
      }

      .cls-36 {
        filter: url(#Rectangle_1443);
      }

      .cls-37 {
        filter: url(#Subtraction_66);
      }

      .cls-38 {
        filter: url(#Path_4232);
      }
    </style>
    <linearGradient id="linear-gradient" x1="0.5" y1="1.192" x2="0.487" y2="-0.081" gradientUnits="objectBoundingBox">
      <stop offset="0" stop-color="#c6e6ff"/>
      <stop offset="1" stop-color="#fff"/>
    </linearGradient>
    <filter id="Path_4232" x="-21703" y="-17222" width="34" height="34" filterUnits="userSpaceOnUse">
      <feOffset dy="3" input="SourceAlpha"/>
      <feGaussianBlur stdDeviation="3" result="blur"/>
      <feFlood flood-opacity="0.161"/>
      <feComposite operator="in" in2="blur"/>
      <feComposite in="SourceGraphic"/>
    </filter>
    <linearGradient id="linear-gradient-2" x1="0.5" y1="-1.004" x2="0.5" y2="1" gradientUnits="objectBoundingBox">
      <stop offset="0" stop-color="#288ed9"/>
      <stop offset="1" stop-color="#137fcf" stop-opacity="0.051"/>
    </linearGradient>
    <linearGradient id="linear-gradient-3" x1="0.5" y1="1" x2="0.5" gradientUnits="objectBoundingBox">
      <stop offset="0" stop-color="#288ed9" stop-opacity="0"/>
      <stop offset="1" stop-color="#005b9f"/>
    </linearGradient>
    <linearGradient id="linear-gradient-4" y1="0.479" x2="1" y2="0.479" gradientUnits="objectBoundingBox">
      <stop offset="0" stop-color="#0563a8"/>
      <stop offset="1" stop-color="#0061aa"/>
    </linearGradient>
    <linearGradient id="linear-gradient-5" x1="0.5" x2="0.5" y2="1" gradientUnits="objectBoundingBox">
      <stop offset="0" stop-color="#f7f7f7"/>
      <stop offset="1" stop-color="#fff" stop-opacity="0"/>
    </linearGradient>
    <linearGradient id="linear-gradient-8" x1="0.5" x2="0.5" y2="1" gradientUnits="objectBoundingBox">
      <stop offset="0" stop-color="#1882d1"/>
      <stop offset="1" stop-color="#0d70b9"/>
    </linearGradient>
    <filter id="Subtraction_66" x="-21637" y="-17648" width="293.236" height="562" filterUnits="userSpaceOnUse">
      <feOffset dx="-5" input="SourceAlpha"/>
      <feGaussianBlur stdDeviation="10" result="blur-2"/>
      <feFlood flood-opacity="0.102"/>
      <feComposite operator="in" in2="blur-2"/>
      <feComposite in="SourceGraphic"/>
    </filter>
    <filter id="Rectangle_1443" x="-21589.775" y="-17381.633" width="19.65" height="78" filterUnits="userSpaceOnUse">
      <feOffset dy="1" input="SourceAlpha"/>
      <feGaussianBlur result="blur-3"/>
      <feFlood flood-color="#fff" flood-opacity="0.102"/>
      <feComposite operator="in" in2="blur-3"/>
      <feComposite in="SourceGraphic"/>
    </filter>
    <linearGradient id="linear-gradient-9" x1="0.35" y1="-0.028" x2="0.88" y2="1.036" gradientUnits="objectBoundingBox">
      <stop offset="0" stop-color="#50abef"/>
      <stop offset="1" stop-color="#1175bf"/>
    </linearGradient>
    <linearGradient id="linear-gradient-10" x1="0.875" y1="-0.028" x2="-0.067" y2="0.864" gradientUnits="objectBoundingBox">
      <stop offset="0" stop-color="#ffbc98"/>
      <stop offset="1" stop-color="#ff945a"/>
    </linearGradient>
    <filter id="Path_3435" x="-21366.867" y="-17289.285" width="98.031" height="177.705" filterUnits="userSpaceOnUse">
      <feOffset dy="3" input="SourceAlpha"/>
      <feGaussianBlur stdDeviation="2.5" result="blur-4"/>
      <feFlood flood-opacity="0.051"/>
      <feComposite operator="in" in2="blur-4"/>
      <feComposite in="SourceGraphic"/>
    </filter>
    <filter id="Path_3436" x="-21422.322" y="-17256.111" width="83.354" height="148.945" filterUnits="userSpaceOnUse">
      <feOffset dx="2" input="SourceAlpha"/>
      <feGaussianBlur stdDeviation="2.5" result="blur-5"/>
      <feFlood flood-opacity="0.051"/>
      <feComposite operator="in" in2="blur-5"/>
      <feComposite in="SourceGraphic"/>
    </filter>
    <linearGradient id="linear-gradient-11" x1="0.056" y1="0.531" x2="0.957" y2="0.539" gradientUnits="objectBoundingBox">
      <stop offset="0" stop-color="#21e2e2"/>
      <stop offset="1" stop-color="#19dbdb"/>
    </linearGradient>
    <filter id="Path_3434" x="-21401.008" y="-17183.543" width="97.912" height="99.543" filterUnits="userSpaceOnUse">
      <feOffset dx="5" input="SourceAlpha"/>
      <feGaussianBlur stdDeviation="5" result="blur-6"/>
      <feFlood flood-opacity="0.051"/>
      <feComposite operator="in" in2="blur-6"/>
      <feComposite in="SourceGraphic"/>
    </filter>
  </defs>
  <g id="Group_8034" data-name="Group 8034" transform="translate(-22023 -17860)">
    <path id="Path_4231" data-name="Path 4231" class="cls-1" d="M338.563,59.823C459.7,137.122,598.4,171.906,598.4,171.906S751.141,195.1,694.96,369.017s-63.509,236.2-151.566,240.649c-83.51,2.38-130.416-32.083-213.041-26.146-72.578,5.588-122.557,38.288-243.83-9.484C-107.812,488.157-93.327-212.654,338.563,59.823Z" transform="translate(196.574 212.287)"/>
    <rect id="Rectangle_2123" data-name="Rectangle 2123" class="cls-2" width="33.053" height="33.053" rx="5" transform="translate(320 635)"/>
    <g class="cls-38" transform="matrix(1, 0, 0, 1, 22023, 17860)">
      <path id="Path_4232-2" data-name="Path 4232" class="cls-3" d="M8,0A8,8,0,1,1,0,8,8,8,0,0,1,8,0Z" transform="translate(-21694 -17216)"/>
    </g>
    <g id="Ellipse_616" data-name="Ellipse 616" class="cls-4" transform="translate(326 641)">
      <circle class="cls-31" cx="11" cy="11" r="11"/>
      <circle class="cls-32" cx="11" cy="11" r="10.5"/>
    </g>
    <path id="Path_4233" data-name="Path 4233" class="cls-5" d="M43.772,214.013c-18.744-22.543,11.979-77.161-29.688-110.461S36.833,47.052,33.131-1.512,131.346,61.157,95,143.393c-9.451,21.381,13.08,80.243,7.4,90.751C86.865,262.884,62.516,236.556,43.772,214.013Z" transform="translate(697.039 447.529) rotate(-83)"/>
    <path id="Path_4234" data-name="Path 4234" class="cls-6" d="M47.836.011C27.352,24.646,60.928,84.337,15.392,120.729S40.253,182.476,36.207,235.55,161.521,177.731,121.8,87.859C111.469,64.492,112.319,11.495,106.112.011,89.138-31.4,68.321-24.625,47.836.011Z" transform="translate(349.607 436.613) rotate(90)"/>
    <ellipse id="Ellipse_617" data-name="Ellipse 617" class="cls-7" cx="223.5" cy="32" rx="223.5" ry="32" transform="translate(310 696)"/>
    <ellipse id="Ellipse_618" data-name="Ellipse 618" class="cls-8" cx="45.228" cy="8.281" rx="45.228" ry="8.281" transform="translate(619.957 752.283)"/>
    <path id="Path_4235" data-name="Path 4235" class="cls-9" d="M65.408,122.6V61.553c0-8.283-4.548-12.117-12.669-11.964-2.111,0-35.847.153-42.344.153C2.436,49.742,0,44.834,0,36.551c0,0,.139-5.43.139-11.558S4.295,15,8.866,15H24.042" transform="translate(321.697 683.406) rotate(-90)"/>
    <rect id="Rectangle_2124" data-name="Rectangle 2124" class="cls-10" width="257" height="502" rx="20" transform="translate(397 242)"/>
    <g id="Group_979" data-name="Group 979" transform="translate(450.074 265.514)">
      <path id="Path_3440" data-name="Path 3440" class="cls-11" d="M66.591,39.469V73.691c0,7.214-3.741,10.554-10.421,10.421-1.6-.134-4.676-.134-10.02-.134-6.546,0-8.55,4.275-8.55,11.49v3.206" transform="translate(11.297 -32.943)"/>
      <path id="Path_3441" data-name="Path 3441" class="cls-11" d="M74.591,32.2V46.9c0,7.214-3.741,10.554-10.421,10.421H54.15c-6.546,0-8.55,4.275-8.55,11.49V81.365" transform="translate(13.985 -15.634)"/>
      <path id="Path_3442" data-name="Path 3442" class="cls-11" d="M53.325,24.3V49.684c0,7.214-3.741,10.554-10.421,10.421-1.737,0-4.81-.134-10.154-.134-6.546,0-8.55,4.275-8.55,11.49V84.019" transform="translate(6.795 -18.288)"/>
      <path id="Path_3444" data-name="Path 3444" class="cls-11" d="M1,21.2H68.6c7.214,0,10.554,3.741,10.421,10.421,0,1.737-.134,4.81-.134,10.154" transform="translate(-1 -19.33)"/>
      <path id="Path_3445" data-name="Path 3445" class="cls-11" d="M67.437,40.374c0-5.344,0-8.283-.134-10.154C67.037,23.541,70.377,19.8,77.725,19.8h55.731" transform="translate(21.273 -19.8)"/>
      <path id="Path_3448" data-name="Path 3448" class="cls-11" d="M58.225,69.9V205.1c0,7.214-3.741,10.554-10.421,10.421-1.737,0-4.81-.134-10.154-.134-6.546,0-8.55,4.275-8.55,11.49v3.206" transform="translate(72.442 -69.967)"/>
      <path id="Path_3449" data-name="Path 3449" class="cls-11" d="M52.225,113.4v43.821c0,7.214-3.741,10.554-10.421,10.421-1.737,0-4.81-.134-10.154-.134-6.546,0-8.55,4.275-8.55,11.49v12.558" transform="translate(68.426 -113.351)"/>
      <path id="Path_3450" data-name="Path 3450" class="cls-11" d="M44.891,116.7V285.169c0,7.214-3.741,10.554-10.287,10.421-1.737,0-4.81-.134-10.154-.134-6.546,0-8.55,4.275-8.55,11.49v73.193" transform="translate(66.006 -112.242)"/>
    </g>
    <g id="Group_5147" data-name="Group 5147" transform="translate(-118 -59.695)">
      <rect id="Rectangle_1704" data-name="Rectangle 1704" class="cls-12" width="141" height="318" transform="translate(568 414.694)"/>
      <rect id="Rectangle_1705" data-name="Rectangle 1705" class="cls-13" width="53" height="441" transform="translate(709 342.694)"/>
      <g id="Symbol_3_112" data-name="Symbol 3 – 112" transform="translate(0 11.157)">
        <path id="Path_3418" data-name="Path 3418" class="cls-14" d="M3.571,0H142.143a3.571,3.571,0,0,1,3.571,3.571V31.429A3.571,3.571,0,0,1,142.143,35H3.571A3.571,3.571,0,0,1,0,31.429V3.571A3.571,3.571,0,0,1,3.571,0Z" transform="translate(577 568)"/>
        <path id="Rectangle_1706" data-name="Rectangle 1706" class="cls-15" d="M5,0H46a0,0,0,0,1,0,0V35a0,0,0,0,1,0,0H5a5,5,0,0,1-5-5V5A5,5,0,0,1,5,0Z" transform="translate(576 567.959)"/>
        <rect id="Rectangle_1425" data-name="Rectangle 1425" class="cls-16" width="10.991" height="11.429" rx="5.495" transform="translate(589.143 580.143)"/>
        <rect id="Rectangle_1405" data-name="Rectangle 1405" class="cls-17" width="3.571" height="3.571" rx="1.786" transform="translate(636.286 580.143)"/>
        <rect id="Rectangle_1424" data-name="Rectangle 1424" class="cls-17" width="3.571" height="3.571" rx="1.786" transform="translate(640.571 587.286)"/>
        <rect id="Rectangle_1410" data-name="Rectangle 1410" class="cls-3" width="3.571" height="3.571" rx="1.786" transform="translate(672 580.143)"/>
        <rect id="Rectangle_1419" data-name="Rectangle 1419" class="cls-3" width="3.571" height="3.571" rx="1.786" transform="translate(676.286 587.286)"/>
        <rect id="Rectangle_1406" data-name="Rectangle 1406" class="cls-3" width="3.571" height="3.571" rx="1.786" transform="translate(643.429 580.143)"/>
        <rect id="Rectangle_1423" data-name="Rectangle 1423" class="cls-3" width="3.571" height="3.571" rx="1.786" transform="translate(647.714 587.286)"/>
        <rect id="Rectangle_1411" data-name="Rectangle 1411" class="cls-3" width="3.571" height="3.571" rx="1.786" transform="translate(679.143 580.143)"/>
        <rect id="Rectangle_1418" data-name="Rectangle 1418" class="cls-3" width="3.571" height="3.571" rx="1.786" transform="translate(683.429 587.286)"/>
        <rect id="Rectangle_1407" data-name="Rectangle 1407" class="cls-3" width="3.571" height="3.571" rx="1.786" transform="translate(650.571 580.143)"/>
        <rect id="Rectangle_1422" data-name="Rectangle 1422" class="cls-3" width="3.571" height="3.571" rx="1.786" transform="translate(654.857 587.286)"/>
        <rect id="Rectangle_1412" data-name="Rectangle 1412" class="cls-17" width="3.571" height="3.571" rx="1.786" transform="translate(686.286 580.143)"/>
        <rect id="Rectangle_1417" data-name="Rectangle 1417" class="cls-17" width="3.571" height="3.571" rx="1.786" transform="translate(690.571 587.286)"/>
        <rect id="Rectangle_1408" data-name="Rectangle 1408" class="cls-3" width="3.571" height="3.571" rx="1.786" transform="translate(657.714 580.143)"/>
        <rect id="Rectangle_1421" data-name="Rectangle 1421" class="cls-17" width="3.571" height="3.571" rx="1.786" transform="translate(662 587.286)"/>
        <rect id="Rectangle_1413" data-name="Rectangle 1413" class="cls-3" width="3.571" height="3.571" rx="1.786" transform="translate(693.429 580.143)"/>
        <rect id="Rectangle_1416" data-name="Rectangle 1416" class="cls-3" width="3.571" height="3.571" rx="1.786" transform="translate(697.714 587.286)"/>
        <rect id="Rectangle_1409" data-name="Rectangle 1409" class="cls-3" width="3.571" height="3.571" rx="1.786" transform="translate(664.857 580.143)"/>
        <rect id="Rectangle_1420" data-name="Rectangle 1420" class="cls-3" width="3.571" height="3.571" rx="1.786" transform="translate(669.143 587.286)"/>
        <rect id="Rectangle_1414" data-name="Rectangle 1414" class="cls-3" width="3.571" height="3.571" rx="1.786" transform="translate(700.571 580.143)"/>
        <rect id="Rectangle_1415" data-name="Rectangle 1415" class="cls-3" width="3.571" height="3.571" rx="1.786" transform="translate(704.857 587.286)"/>
        <rect id="Rectangle_1442" data-name="Rectangle 1442" class="cls-18" width="10.991" height="11.429" rx="5.495" transform="translate(605.143 580.143)"/>
      </g>
      <g id="Symbol_3_113" data-name="Symbol 3 – 113" transform="translate(0 -180)">
        <path id="Path_3418-2" data-name="Path 3418" class="cls-14" d="M3.571,0H142.143a3.571,3.571,0,0,1,3.571,3.571V31.429A3.571,3.571,0,0,1,142.143,35H3.571A3.571,3.571,0,0,1,0,31.429V3.571A3.571,3.571,0,0,1,3.571,0Z" transform="translate(577 568)"/>
        <path id="Rectangle_1706-2" data-name="Rectangle 1706" class="cls-15" d="M5,0H46a0,0,0,0,1,0,0V35a0,0,0,0,1,0,0H5a5,5,0,0,1-5-5V5A5,5,0,0,1,5,0Z" transform="translate(576 567.959)"/>
        <rect id="Rectangle_1425-2" data-name="Rectangle 1425" class="cls-16" width="10.991" height="11.429" rx="5.495" transform="translate(589.143 580.143)"/>
        <rect id="Rectangle_1405-2" data-name="Rectangle 1405" class="cls-3" width="3.571" height="3.571" rx="1.786" transform="translate(636.286 580.143)"/>
        <rect id="Rectangle_1424-2" data-name="Rectangle 1424" class="cls-3" width="3.571" height="3.571" rx="1.786" transform="translate(640.571 587.286)"/>
        <rect id="Rectangle_1410-2" data-name="Rectangle 1410" class="cls-3" width="3.571" height="3.571" rx="1.786" transform="translate(672 580.143)"/>
        <rect id="Rectangle_1419-2" data-name="Rectangle 1419" class="cls-17" width="3.571" height="3.571" rx="1.786" transform="translate(676.286 587.286)"/>
        <rect id="Rectangle_1406-2" data-name="Rectangle 1406" class="cls-17" width="3.571" height="3.571" rx="1.786" transform="translate(643.429 580.143)"/>
        <rect id="Rectangle_1423-2" data-name="Rectangle 1423" class="cls-3" width="3.571" height="3.571" rx="1.786" transform="translate(647.714 587.286)"/>
        <rect id="Rectangle_1411-2" data-name="Rectangle 1411" class="cls-3" width="3.571" height="3.571" rx="1.786" transform="translate(679.143 580.143)"/>
        <rect id="Rectangle_1418-2" data-name="Rectangle 1418" class="cls-17" width="3.571" height="3.571" rx="1.786" transform="translate(683.429 587.286)"/>
        <rect id="Rectangle_1407-2" data-name="Rectangle 1407" class="cls-3" width="3.571" height="3.571" rx="1.786" transform="translate(650.571 580.143)"/>
        <rect id="Rectangle_1422-2" data-name="Rectangle 1422" class="cls-3" width="3.571" height="3.571" rx="1.786" transform="translate(654.857 587.286)"/>
        <rect id="Rectangle_1412-2" data-name="Rectangle 1412" class="cls-3" width="3.571" height="3.571" rx="1.786" transform="translate(686.286 580.143)"/>
        <rect id="Rectangle_1417-2" data-name="Rectangle 1417" class="cls-3" width="3.571" height="3.571" rx="1.786" transform="translate(690.571 587.286)"/>
        <rect id="Rectangle_1408-2" data-name="Rectangle 1408" class="cls-3" width="3.571" height="3.571" rx="1.786" transform="translate(657.714 580.143)"/>
        <rect id="Rectangle_1421-2" data-name="Rectangle 1421" class="cls-3" width="3.571" height="3.571" rx="1.786" transform="translate(662 587.286)"/>
        <rect id="Rectangle_1413-2" data-name="Rectangle 1413" class="cls-3" width="3.571" height="3.571" rx="1.786" transform="translate(693.429 580.143)"/>
        <rect id="Rectangle_1416-2" data-name="Rectangle 1416" class="cls-17" width="3.571" height="3.571" rx="1.786" transform="translate(697.714 587.286)"/>
        <rect id="Rectangle_1409-2" data-name="Rectangle 1409" class="cls-17" width="3.571" height="3.571" rx="1.786" transform="translate(664.857 580.143)"/>
        <rect id="Rectangle_1420-2" data-name="Rectangle 1420" class="cls-3" width="3.571" height="3.571" rx="1.786" transform="translate(669.143 587.286)"/>
        <rect id="Rectangle_1414-2" data-name="Rectangle 1414" class="cls-3" width="3.571" height="3.571" rx="1.786" transform="translate(700.571 580.143)"/>
        <rect id="Rectangle_1415-2" data-name="Rectangle 1415" class="cls-3" width="3.571" height="3.571" rx="1.786" transform="translate(704.857 587.286)"/>
        <rect id="Rectangle_1442-2" data-name="Rectangle 1442" class="cls-18" width="10.991" height="11.429" rx="5.495" transform="translate(605.143 580.143)"/>
      </g>
      <g id="Symbol_3_114" data-name="Symbol 3 – 114" transform="translate(0 58.946)">
        <path id="Path_3418-3" data-name="Path 3418" class="cls-14" d="M3.571,0H142.143a3.571,3.571,0,0,1,3.571,3.571V31.429A3.571,3.571,0,0,1,142.143,35H3.571A3.571,3.571,0,0,1,0,31.429V3.571A3.571,3.571,0,0,1,3.571,0Z" transform="translate(577 568)"/>
        <path id="Rectangle_1706-3" data-name="Rectangle 1706" class="cls-15" d="M5,0H46a0,0,0,0,1,0,0V35a0,0,0,0,1,0,0H5a5,5,0,0,1-5-5V5A5,5,0,0,1,5,0Z" transform="translate(576 567.959)"/>
        <rect id="Rectangle_1425-3" data-name="Rectangle 1425" class="cls-16" width="10.991" height="11.429" rx="5.495" transform="translate(589.143 580.143)"/>
        <rect id="Rectangle_1405-3" data-name="Rectangle 1405" class="cls-17" width="3.571" height="3.571" rx="1.786" transform="translate(636.286 580.143)"/>
        <rect id="Rectangle_1424-3" data-name="Rectangle 1424" class="cls-3" width="3.571" height="3.571" rx="1.786" transform="translate(640.571 587.286)"/>
        <rect id="Rectangle_1410-3" data-name="Rectangle 1410" class="cls-3" width="3.571" height="3.571" rx="1.786" transform="translate(672 580.143)"/>
        <rect id="Rectangle_1419-3" data-name="Rectangle 1419" class="cls-3" width="3.571" height="3.571" rx="1.786" transform="translate(676.286 587.286)"/>
        <rect id="Rectangle_1406-3" data-name="Rectangle 1406" class="cls-3" width="3.571" height="3.571" rx="1.786" transform="translate(643.429 580.143)"/>
        <rect id="Rectangle_1423-3" data-name="Rectangle 1423" class="cls-3" width="3.571" height="3.571" rx="1.786" transform="translate(647.714 587.286)"/>
        <rect id="Rectangle_1411-3" data-name="Rectangle 1411" class="cls-17" width="3.571" height="3.571" rx="1.786" transform="translate(679.143 580.143)"/>
        <rect id="Rectangle_1418-3" data-name="Rectangle 1418" class="cls-3" width="3.571" height="3.571" rx="1.786" transform="translate(683.429 587.286)"/>
        <rect id="Rectangle_1407-3" data-name="Rectangle 1407" class="cls-3" width="3.571" height="3.571" rx="1.786" transform="translate(650.571 580.143)"/>
        <rect id="Rectangle_1422-3" data-name="Rectangle 1422" class="cls-3" width="3.571" height="3.571" rx="1.786" transform="translate(654.857 587.286)"/>
        <rect id="Rectangle_1412-3" data-name="Rectangle 1412" class="cls-3" width="3.571" height="3.571" rx="1.786" transform="translate(686.286 580.143)"/>
        <rect id="Rectangle_1417-3" data-name="Rectangle 1417" class="cls-3" width="3.571" height="3.571" rx="1.786" transform="translate(690.571 587.286)"/>
        <rect id="Rectangle_1408-3" data-name="Rectangle 1408" class="cls-17" width="3.571" height="3.571" rx="1.786" transform="translate(657.714 580.143)"/>
        <rect id="Rectangle_1421-3" data-name="Rectangle 1421" class="cls-3" width="3.571" height="3.571" rx="1.786" transform="translate(662 587.286)"/>
        <rect id="Rectangle_1413-3" data-name="Rectangle 1413" class="cls-3" width="3.571" height="3.571" rx="1.786" transform="translate(693.429 580.143)"/>
        <rect id="Rectangle_1416-3" data-name="Rectangle 1416" class="cls-17" width="3.571" height="3.571" rx="1.786" transform="translate(697.714 587.286)"/>
        <rect id="Rectangle_1409-3" data-name="Rectangle 1409" class="cls-3" width="3.571" height="3.571" rx="1.786" transform="translate(664.857 580.143)"/>
        <rect id="Rectangle_1420-3" data-name="Rectangle 1420" class="cls-3" width="3.571" height="3.571" rx="1.786" transform="translate(669.143 587.286)"/>
        <rect id="Rectangle_1414-3" data-name="Rectangle 1414" class="cls-3" width="3.571" height="3.571" rx="1.786" transform="translate(700.571 580.143)"/>
        <rect id="Rectangle_1415-3" data-name="Rectangle 1415" class="cls-17" width="3.571" height="3.571" rx="1.786" transform="translate(704.857 587.286)"/>
        <rect id="Rectangle_1442-3" data-name="Rectangle 1442" class="cls-18" width="10.991" height="11.429" rx="5.495" transform="translate(605.143 580.143)"/>
      </g>
      <g id="Symbol_3_115" data-name="Symbol 3 – 115" transform="translate(0 -132.211)">
        <path id="Path_3418-4" data-name="Path 3418" class="cls-14" d="M3.571,0H142.143a3.571,3.571,0,0,1,3.571,3.571V31.429A3.571,3.571,0,0,1,142.143,35H3.571A3.571,3.571,0,0,1,0,31.429V3.571A3.571,3.571,0,0,1,3.571,0Z" transform="translate(577 568)"/>
        <path id="Rectangle_1706-4" data-name="Rectangle 1706" class="cls-15" d="M5,0H46a0,0,0,0,1,0,0V35a0,0,0,0,1,0,0H5a5,5,0,0,1-5-5V5A5,5,0,0,1,5,0Z" transform="translate(576 567.959)"/>
        <rect id="Rectangle_1425-4" data-name="Rectangle 1425" class="cls-16" width="10.991" height="11.429" rx="5.495" transform="translate(589.143 580.143)"/>
        <rect id="Rectangle_1405-4" data-name="Rectangle 1405" class="cls-3" width="3.571" height="3.571" rx="1.786" transform="translate(636.286 580.143)"/>
        <rect id="Rectangle_1424-4" data-name="Rectangle 1424" class="cls-17" width="3.571" height="3.571" rx="1.786" transform="translate(640.571 587.286)"/>
        <rect id="Rectangle_1410-4" data-name="Rectangle 1410" class="cls-3" width="3.571" height="3.571" rx="1.786" transform="translate(672 580.143)"/>
        <rect id="Rectangle_1419-4" data-name="Rectangle 1419" class="cls-3" width="3.571" height="3.571" rx="1.786" transform="translate(676.286 587.286)"/>
        <rect id="Rectangle_1406-4" data-name="Rectangle 1406" class="cls-3" width="3.571" height="3.571" rx="1.786" transform="translate(643.429 580.143)"/>
        <rect id="Rectangle_1423-4" data-name="Rectangle 1423" class="cls-3" width="3.571" height="3.571" rx="1.786" transform="translate(647.714 587.286)"/>
        <rect id="Rectangle_1411-4" data-name="Rectangle 1411" class="cls-3" width="3.571" height="3.571" rx="1.786" transform="translate(679.143 580.143)"/>
        <rect id="Rectangle_1418-4" data-name="Rectangle 1418" class="cls-3" width="3.571" height="3.571" rx="1.786" transform="translate(683.429 587.286)"/>
        <rect id="Rectangle_1407-4" data-name="Rectangle 1407" class="cls-3" width="3.571" height="3.571" rx="1.786" transform="translate(650.571 580.143)"/>
        <rect id="Rectangle_1422-4" data-name="Rectangle 1422" class="cls-17" width="3.571" height="3.571" rx="1.786" transform="translate(654.857 587.286)"/>
        <rect id="Rectangle_1412-4" data-name="Rectangle 1412" class="cls-3" width="3.571" height="3.571" rx="1.786" transform="translate(686.286 580.143)"/>
        <rect id="Rectangle_1417-4" data-name="Rectangle 1417" class="cls-3" width="3.571" height="3.571" rx="1.786" transform="translate(690.571 587.286)"/>
        <rect id="Rectangle_1408-4" data-name="Rectangle 1408" class="cls-3" width="3.571" height="3.571" rx="1.786" transform="translate(657.714 580.143)"/>
        <rect id="Rectangle_1421-4" data-name="Rectangle 1421" class="cls-3" width="3.571" height="3.571" rx="1.786" transform="translate(662 587.286)"/>
        <rect id="Rectangle_1413-4" data-name="Rectangle 1413" class="cls-17" width="3.571" height="3.571" rx="1.786" transform="translate(693.429 580.143)"/>
        <rect id="Rectangle_1416-4" data-name="Rectangle 1416" class="cls-3" width="3.571" height="3.571" rx="1.786" transform="translate(697.714 587.286)"/>
        <rect id="Rectangle_1409-4" data-name="Rectangle 1409" class="cls-17" width="3.571" height="3.571" rx="1.786" transform="translate(664.857 580.143)"/>
        <rect id="Rectangle_1420-4" data-name="Rectangle 1420" class="cls-3" width="3.571" height="3.571" rx="1.786" transform="translate(669.143 587.286)"/>
        <rect id="Rectangle_1414-4" data-name="Rectangle 1414" class="cls-17" width="3.571" height="3.571" rx="1.786" transform="translate(700.571 580.143)"/>
        <rect id="Rectangle_1415-4" data-name="Rectangle 1415" class="cls-3" width="3.571" height="3.571" rx="1.786" transform="translate(704.857 587.286)"/>
        <rect id="Rectangle_1442-4" data-name="Rectangle 1442" class="cls-18" width="10.991" height="11.429" rx="5.495" transform="translate(605.143 580.143)"/>
      </g>
      <g id="Symbol_3_116" data-name="Symbol 3 – 116" transform="translate(0 106.736)">
        <path id="Path_3418-5" data-name="Path 3418" class="cls-14" d="M3.571,0H142.143a3.571,3.571,0,0,1,3.571,3.571V31.429A3.571,3.571,0,0,1,142.143,35H3.571A3.571,3.571,0,0,1,0,31.429V3.571A3.571,3.571,0,0,1,3.571,0Z" transform="translate(577 568)"/>
        <path id="Rectangle_1706-5" data-name="Rectangle 1706" class="cls-15" d="M5,0H46a0,0,0,0,1,0,0V35a0,0,0,0,1,0,0H5a5,5,0,0,1-5-5V5A5,5,0,0,1,5,0Z" transform="translate(576 567.959)"/>
        <rect id="Rectangle_1425-5" data-name="Rectangle 1425" class="cls-19" width="10.991" height="11.429" rx="5.495" transform="translate(589.143 580.143)"/>
        <rect id="Rectangle_1405-5" data-name="Rectangle 1405" class="cls-3" width="3.571" height="3.571" rx="1.786" transform="translate(636.286 580.143)"/>
        <rect id="Rectangle_1424-5" data-name="Rectangle 1424" class="cls-3" width="3.571" height="3.571" rx="1.786" transform="translate(640.571 587.286)"/>
        <rect id="Rectangle_1410-5" data-name="Rectangle 1410" class="cls-3" width="3.571" height="3.571" rx="1.786" transform="translate(672 580.143)"/>
        <rect id="Rectangle_1419-5" data-name="Rectangle 1419" class="cls-3" width="3.571" height="3.571" rx="1.786" transform="translate(676.286 587.286)"/>
        <rect id="Rectangle_1406-5" data-name="Rectangle 1406" class="cls-3" width="3.571" height="3.571" rx="1.786" transform="translate(643.429 580.143)"/>
        <rect id="Rectangle_1423-5" data-name="Rectangle 1423" class="cls-17" width="3.571" height="3.571" rx="1.786" transform="translate(647.714 587.286)"/>
        <rect id="Rectangle_1411-5" data-name="Rectangle 1411" class="cls-3" width="3.571" height="3.571" rx="1.786" transform="translate(679.143 580.143)"/>
        <rect id="Rectangle_1418-5" data-name="Rectangle 1418" class="cls-3" width="3.571" height="3.571" rx="1.786" transform="translate(683.429 587.286)"/>
        <rect id="Rectangle_1407-5" data-name="Rectangle 1407" class="cls-3" width="3.571" height="3.571" rx="1.786" transform="translate(650.571 580.143)"/>
        <rect id="Rectangle_1422-5" data-name="Rectangle 1422" class="cls-17" width="3.571" height="3.571" rx="1.786" transform="translate(654.857 587.286)"/>
        <rect id="Rectangle_1412-5" data-name="Rectangle 1412" class="cls-3" width="3.571" height="3.571" rx="1.786" transform="translate(686.286 580.143)"/>
        <rect id="Rectangle_1417-5" data-name="Rectangle 1417" class="cls-17" width="3.571" height="3.571" rx="1.786" transform="translate(690.571 587.286)"/>
        <rect id="Rectangle_1408-5" data-name="Rectangle 1408" class="cls-3" width="3.571" height="3.571" rx="1.786" transform="translate(657.714 580.143)"/>
        <rect id="Rectangle_1421-5" data-name="Rectangle 1421" class="cls-3" width="3.571" height="3.571" rx="1.786" transform="translate(662 587.286)"/>
        <rect id="Rectangle_1413-5" data-name="Rectangle 1413" class="cls-17" width="3.571" height="3.571" rx="1.786" transform="translate(693.429 580.143)"/>
        <rect id="Rectangle_1416-5" data-name="Rectangle 1416" class="cls-3" width="3.571" height="3.571" rx="1.786" transform="translate(697.714 587.286)"/>
        <rect id="Rectangle_1409-5" data-name="Rectangle 1409" class="cls-3" width="3.571" height="3.571" rx="1.786" transform="translate(664.857 580.143)"/>
        <rect id="Rectangle_1420-5" data-name="Rectangle 1420" class="cls-17" width="3.571" height="3.571" rx="1.786" transform="translate(669.143 587.286)"/>
        <rect id="Rectangle_1414-5" data-name="Rectangle 1414" class="cls-3" width="3.571" height="3.571" rx="1.786" transform="translate(700.571 580.143)"/>
        <rect id="Rectangle_1415-5" data-name="Rectangle 1415" class="cls-3" width="3.571" height="3.571" rx="1.786" transform="translate(704.857 587.286)"/>
        <rect id="Rectangle_1442-5" data-name="Rectangle 1442" class="cls-18" width="10.991" height="11.429" rx="5.495" transform="translate(605.143 580.143)"/>
      </g>
      <g id="Symbol_3_117" data-name="Symbol 3 – 117" transform="translate(0 -84.421)">
        <path id="Path_3418-6" data-name="Path 3418" class="cls-14" d="M3.571,0H142.143a3.571,3.571,0,0,1,3.571,3.571V31.429A3.571,3.571,0,0,1,142.143,35H3.571A3.571,3.571,0,0,1,0,31.429V3.571A3.571,3.571,0,0,1,3.571,0Z" transform="translate(577 568)"/>
        <path id="Rectangle_1706-6" data-name="Rectangle 1706" class="cls-15" d="M5,0H46a0,0,0,0,1,0,0V35a0,0,0,0,1,0,0H5a5,5,0,0,1-5-5V5A5,5,0,0,1,5,0Z" transform="translate(576 567.959)"/>
        <rect id="Rectangle_1425-6" data-name="Rectangle 1425" class="cls-16" width="10.991" height="11.429" rx="5.495" transform="translate(589.143 580.143)"/>
        <rect id="Rectangle_1405-6" data-name="Rectangle 1405" class="cls-3" width="3.571" height="3.571" rx="1.786" transform="translate(636.286 580.143)"/>
        <rect id="Rectangle_1424-6" data-name="Rectangle 1424" class="cls-3" width="3.571" height="3.571" rx="1.786" transform="translate(640.571 587.286)"/>
        <rect id="Rectangle_1410-6" data-name="Rectangle 1410" class="cls-3" width="3.571" height="3.571" rx="1.786" transform="translate(672 580.143)"/>
        <rect id="Rectangle_1419-6" data-name="Rectangle 1419" class="cls-17" width="3.571" height="3.571" rx="1.786" transform="translate(676.286 587.286)"/>
        <rect id="Rectangle_1406-6" data-name="Rectangle 1406" class="cls-3" width="3.571" height="3.571" rx="1.786" transform="translate(643.429 580.143)"/>
        <rect id="Rectangle_1423-6" data-name="Rectangle 1423" class="cls-3" width="3.571" height="3.571" rx="1.786" transform="translate(647.714 587.286)"/>
        <rect id="Rectangle_1411-6" data-name="Rectangle 1411" class="cls-3" width="3.571" height="3.571" rx="1.786" transform="translate(679.143 580.143)"/>
        <rect id="Rectangle_1418-6" data-name="Rectangle 1418" class="cls-3" width="3.571" height="3.571" rx="1.786" transform="translate(683.429 587.286)"/>
        <rect id="Rectangle_1407-6" data-name="Rectangle 1407" class="cls-17" width="3.571" height="3.571" rx="1.786" transform="translate(650.571 580.143)"/>
        <rect id="Rectangle_1422-6" data-name="Rectangle 1422" class="cls-3" width="3.571" height="3.571" rx="1.786" transform="translate(654.857 587.286)"/>
        <rect id="Rectangle_1412-6" data-name="Rectangle 1412" class="cls-3" width="3.571" height="3.571" rx="1.786" transform="translate(686.286 580.143)"/>
        <rect id="Rectangle_1417-6" data-name="Rectangle 1417" class="cls-17" width="3.571" height="3.571" rx="1.786" transform="translate(690.571 587.286)"/>
        <rect id="Rectangle_1408-6" data-name="Rectangle 1408" class="cls-3" width="3.571" height="3.571" rx="1.786" transform="translate(657.714 580.143)"/>
        <rect id="Rectangle_1421-6" data-name="Rectangle 1421" class="cls-17" width="3.571" height="3.571" rx="1.786" transform="translate(662 587.286)"/>
        <rect id="Rectangle_1413-6" data-name="Rectangle 1413" class="cls-3" width="3.571" height="3.571" rx="1.786" transform="translate(693.429 580.143)"/>
        <rect id="Rectangle_1416-6" data-name="Rectangle 1416" class="cls-3" width="3.571" height="3.571" rx="1.786" transform="translate(697.714 587.286)"/>
        <rect id="Rectangle_1409-6" data-name="Rectangle 1409" class="cls-3" width="3.571" height="3.571" rx="1.786" transform="translate(664.857 580.143)"/>
        <rect id="Rectangle_1420-6" data-name="Rectangle 1420" class="cls-3" width="3.571" height="3.571" rx="1.786" transform="translate(669.143 587.286)"/>
        <rect id="Rectangle_1414-6" data-name="Rectangle 1414" class="cls-3" width="3.571" height="3.571" rx="1.786" transform="translate(700.571 580.143)"/>
        <rect id="Rectangle_1415-6" data-name="Rectangle 1415" class="cls-3" width="3.571" height="3.571" rx="1.786" transform="translate(704.857 587.286)"/>
        <rect id="Rectangle_1442-6" data-name="Rectangle 1442" class="cls-18" width="10.991" height="11.429" rx="5.495" transform="translate(605.143 580.143)"/>
      </g>
      <g id="Symbol_3_118" data-name="Symbol 3 – 118" transform="translate(0 154.525)">
        <path id="Path_3418-7" data-name="Path 3418" class="cls-14" d="M3.571,0H142.143a3.571,3.571,0,0,1,3.571,3.571V31.429A3.571,3.571,0,0,1,142.143,35H3.571A3.571,3.571,0,0,1,0,31.429V3.571A3.571,3.571,0,0,1,3.571,0Z" transform="translate(577 568)"/>
        <path id="Rectangle_1706-7" data-name="Rectangle 1706" class="cls-15" d="M5,0H46a0,0,0,0,1,0,0V35a0,0,0,0,1,0,0H5a5,5,0,0,1-5-5V5A5,5,0,0,1,5,0Z" transform="translate(576 567.959)"/>
        <rect id="Rectangle_1425-7" data-name="Rectangle 1425" class="cls-16" width="10.991" height="11.429" rx="5.495" transform="translate(589.143 580.143)"/>
        <rect id="Rectangle_1405-7" data-name="Rectangle 1405" class="cls-3" width="3.571" height="3.571" rx="1.786" transform="translate(636.286 580.143)"/>
        <rect id="Rectangle_1424-7" data-name="Rectangle 1424" class="cls-3" width="3.571" height="3.571" rx="1.786" transform="translate(640.571 587.286)"/>
        <rect id="Rectangle_1410-7" data-name="Rectangle 1410" class="cls-17" width="3.571" height="3.571" rx="1.786" transform="translate(672 580.143)"/>
        <rect id="Rectangle_1419-7" data-name="Rectangle 1419" class="cls-17" width="3.571" height="3.571" rx="1.786" transform="translate(676.286 587.286)"/>
        <rect id="Rectangle_1406-7" data-name="Rectangle 1406" class="cls-3" width="3.571" height="3.571" rx="1.786" transform="translate(643.429 580.143)"/>
        <rect id="Rectangle_1423-7" data-name="Rectangle 1423" class="cls-17" width="3.571" height="3.571" rx="1.786" transform="translate(647.714 587.286)"/>
        <rect id="Rectangle_1411-7" data-name="Rectangle 1411" class="cls-17" width="3.571" height="3.571" rx="1.786" transform="translate(679.143 580.143)"/>
        <rect id="Rectangle_1418-7" data-name="Rectangle 1418" class="cls-3" width="3.571" height="3.571" rx="1.786" transform="translate(683.429 587.286)"/>
        <rect id="Rectangle_1407-7" data-name="Rectangle 1407" class="cls-3" width="3.571" height="3.571" rx="1.786" transform="translate(650.571 580.143)"/>
        <rect id="Rectangle_1422-7" data-name="Rectangle 1422" class="cls-3" width="3.571" height="3.571" rx="1.786" transform="translate(654.857 587.286)"/>
        <rect id="Rectangle_1412-7" data-name="Rectangle 1412" class="cls-3" width="3.571" height="3.571" rx="1.786" transform="translate(686.286 580.143)"/>
        <rect id="Rectangle_1417-7" data-name="Rectangle 1417" class="cls-17" width="3.571" height="3.571" rx="1.786" transform="translate(690.571 587.286)"/>
        <rect id="Rectangle_1408-7" data-name="Rectangle 1408" class="cls-3" width="3.571" height="3.571" rx="1.786" transform="translate(657.714 580.143)"/>
        <rect id="Rectangle_1421-7" data-name="Rectangle 1421" class="cls-3" width="3.571" height="3.571" rx="1.786" transform="translate(662 587.286)"/>
        <rect id="Rectangle_1413-7" data-name="Rectangle 1413" class="cls-3" width="3.571" height="3.571" rx="1.786" transform="translate(693.429 580.143)"/>
        <rect id="Rectangle_1416-7" data-name="Rectangle 1416" class="cls-3" width="3.571" height="3.571" rx="1.786" transform="translate(697.714 587.286)"/>
        <rect id="Rectangle_1409-7" data-name="Rectangle 1409" class="cls-3" width="3.571" height="3.571" rx="1.786" transform="translate(664.857 580.143)"/>
        <rect id="Rectangle_1420-7" data-name="Rectangle 1420" class="cls-3" width="3.571" height="3.571" rx="1.786" transform="translate(669.143 587.286)"/>
        <rect id="Rectangle_1414-7" data-name="Rectangle 1414" class="cls-3" width="3.571" height="3.571" rx="1.786" transform="translate(700.571 580.143)"/>
        <rect id="Rectangle_1415-7" data-name="Rectangle 1415" class="cls-3" width="3.571" height="3.571" rx="1.786" transform="translate(704.857 587.286)"/>
        <rect id="Rectangle_1442-7" data-name="Rectangle 1442" class="cls-18" width="10.991" height="11.429" rx="5.495" transform="translate(605.143 580.143)"/>
      </g>
      <g id="Symbol_3_119" data-name="Symbol 3 – 119" transform="translate(0 -36.632)">
        <path id="Path_3418-8" data-name="Path 3418" class="cls-14" d="M3.571,0H142.143a3.571,3.571,0,0,1,3.571,3.571V31.429A3.571,3.571,0,0,1,142.143,35H3.571A3.571,3.571,0,0,1,0,31.429V3.571A3.571,3.571,0,0,1,3.571,0Z" transform="translate(577 568)"/>
        <path id="Rectangle_1706-8" data-name="Rectangle 1706" class="cls-15" d="M5,0H46a0,0,0,0,1,0,0V35a0,0,0,0,1,0,0H5a5,5,0,0,1-5-5V5A5,5,0,0,1,5,0Z" transform="translate(576 567.959)"/>
        <rect id="Rectangle_1425-8" data-name="Rectangle 1425" class="cls-16" width="10.991" height="11.429" rx="5.495" transform="translate(589.143 580.143)"/>
        <rect id="Rectangle_1405-8" data-name="Rectangle 1405" class="cls-3" width="3.571" height="3.571" rx="1.786" transform="translate(636.286 580.143)"/>
        <rect id="Rectangle_1424-8" data-name="Rectangle 1424" class="cls-3" width="3.571" height="3.571" rx="1.786" transform="translate(640.571 587.286)"/>
        <rect id="Rectangle_1410-8" data-name="Rectangle 1410" class="cls-3" width="3.571" height="3.571" rx="1.786" transform="translate(672 580.143)"/>
        <rect id="Rectangle_1419-8" data-name="Rectangle 1419" class="cls-3" width="3.571" height="3.571" rx="1.786" transform="translate(676.286 587.286)"/>
        <rect id="Rectangle_1406-8" data-name="Rectangle 1406" class="cls-17" width="3.571" height="3.571" rx="1.786" transform="translate(643.429 580.143)"/>
        <rect id="Rectangle_1423-8" data-name="Rectangle 1423" class="cls-3" width="3.571" height="3.571" rx="1.786" transform="translate(647.714 587.286)"/>
        <rect id="Rectangle_1411-8" data-name="Rectangle 1411" class="cls-17" width="3.571" height="3.571" rx="1.786" transform="translate(679.143 580.143)"/>
        <rect id="Rectangle_1418-8" data-name="Rectangle 1418" class="cls-3" width="3.571" height="3.571" rx="1.786" transform="translate(683.429 587.286)"/>
        <rect id="Rectangle_1407-8" data-name="Rectangle 1407" class="cls-17" width="3.571" height="3.571" rx="1.786" transform="translate(650.571 580.143)"/>
        <rect id="Rectangle_1422-8" data-name="Rectangle 1422" class="cls-3" width="3.571" height="3.571" rx="1.786" transform="translate(654.857 587.286)"/>
        <rect id="Rectangle_1412-8" data-name="Rectangle 1412" class="cls-3" width="3.571" height="3.571" rx="1.786" transform="translate(686.286 580.143)"/>
        <rect id="Rectangle_1417-8" data-name="Rectangle 1417" class="cls-3" width="3.571" height="3.571" rx="1.786" transform="translate(690.571 587.286)"/>
        <rect id="Rectangle_1408-8" data-name="Rectangle 1408" class="cls-3" width="3.571" height="3.571" rx="1.786" transform="translate(657.714 580.143)"/>
        <rect id="Rectangle_1421-8" data-name="Rectangle 1421" class="cls-3" width="3.571" height="3.571" rx="1.786" transform="translate(662 587.286)"/>
        <rect id="Rectangle_1413-8" data-name="Rectangle 1413" class="cls-3" width="3.571" height="3.571" rx="1.786" transform="translate(693.429 580.143)"/>
        <rect id="Rectangle_1416-8" data-name="Rectangle 1416" class="cls-3" width="3.571" height="3.571" rx="1.786" transform="translate(697.714 587.286)"/>
        <rect id="Rectangle_1409-8" data-name="Rectangle 1409" class="cls-3" width="3.571" height="3.571" rx="1.786" transform="translate(664.857 580.143)"/>
        <rect id="Rectangle_1420-8" data-name="Rectangle 1420" class="cls-17" width="3.571" height="3.571" rx="1.786" transform="translate(669.143 587.286)"/>
        <rect id="Rectangle_1414-8" data-name="Rectangle 1414" class="cls-17" width="3.571" height="3.571" rx="1.786" transform="translate(700.571 580.143)"/>
        <rect id="Rectangle_1415-8" data-name="Rectangle 1415" class="cls-17" width="3.571" height="3.571" rx="1.786" transform="translate(704.857 587.286)"/>
        <rect id="Rectangle_1442-8" data-name="Rectangle 1442" class="cls-18" width="10.991" height="11.429" rx="5.495" transform="translate(605.143 580.143)"/>
      </g>
    </g>
    <g id="Group_5173" data-name="Group 5173" transform="translate(-457.836 -4)">
      <g id="Group_95" data-name="Group 95" transform="translate(879.999 216.001)">
        <path id="Path_3464" data-name="Path 3464" class="cls-20" d="M12.066,0H191.325c-.885,19.365,0,28.452,0,35.12,0,47.407,25.985,37.353-1.536,64.507C135.507,153.186,85.924,205,.768,293.333c-6.239,0,0-50.035,0-281.26C.768,5.405,5.826,0,12.066,0Z" transform="translate(33.06 79.114)"/>
        <path id="Path_3463" data-name="Path 3463" class="cls-21" d="M36.107,0H228.3c20.111,0,3.5,12.753,3.3,23.167-.267,14.046,8.9,28.167,0,36.677-68.931,65.936-109.841,108.582-214.845,217.5-6.239,0,8.058-34.05,8.058-265.276C24.81,5.405,29.868,0,36.107,0Z" transform="translate(-6.41 79.114)"/>
        <path id="Path_3462" data-name="Path 3462" class="cls-22" d="M7.514,0H181.778a7.918,7.918,0,0,1,7.643,8.168C118,79.076,86.5,108.583-.129,198.448c-4.221,0,0-33.85,0-190.28A7.918,7.918,0,0,1,7.514,0Z" transform="translate(40.368 78.999)"/>
        <g class="cls-37" transform="matrix(1, 0, 0, 1, 21600.84, 17648)">
          <path id="Subtraction_66-2" data-name="Subtraction 66" class="cls-23" d="M232.071,532H18.838a19.986,19.986,0,0,1-20-20V50a19.985,19.985,0,0,1,20-20H213.791a16.823,16.823,0,0,1,7.114,1.572,18.226,18.226,0,0,1,5.811,4.287,20.138,20.138,0,0,1,3.918,6.358A21.5,21.5,0,0,1,232.071,50V532ZM56.175,84a15,15,0,0,0-15,15V463a15,15,0,0,0,15,15h147.8a15,15,0,0,0,15-15V99a15,15,0,0,0-15-15Z" transform="translate(-21600.84 -17648)"/>
        </g>
        <rect id="Rectangle_1500" data-name="Rectangle 1500" class="cls-24" width="77" height="19.651" rx="9.826" transform="translate(11.996 343.367) rotate(-90)"/>
        <g class="cls-36" transform="matrix(1, 0, 0, 1, 21600.84, 17648)">
          <rect id="Rectangle_1443-2" data-name="Rectangle 1443" class="cls-10" width="77" height="19.651" rx="9.826" transform="translate(-21589.78 -17304.63) rotate(-90)"/>
        </g>
      </g>
      <rect id="Rectangle_1553" data-name="Rectangle 1553" class="cls-2" width="27" height="5.615" rx="2.807" transform="translate(906.563 506.542) rotate(90)"/>
    </g>
    <g id="Group_5149" data-name="Group 5149" transform="translate(457 139.961)">
      <path id="Path_3437" data-name="Path 3437" class="cls-25" d="M61.856,168.644s-15.747-44.29-50.207-71.83S30.462,50.085,27.4,9.92,95.307,60.1,65.245,128.11,61.856,168.644,61.856,168.644Z" transform="translate(182.7 374.106) rotate(11)"/>
      <g class="cls-35" transform="matrix(1, 0, 0, 1, 21566, 17720.04)">
        <path id="Path_3435-2" data-name="Path 3435" class="cls-26" d="M11466.94,1767.534s-2.578-55.423,49.043-74.778,19.785-55.541,26.379-74.055-82.745,19.553-79.172,104S11466.94,1767.534,11466.94,1767.534Z" transform="translate(-32822.45 -18898.9)"/>
      </g>
      <g class="cls-34" transform="matrix(1, 0, 0, 1, 21566, 17720.04)">
        <path id="Path_3436-2" data-name="Path 3436" class="cls-27" d="M11528.269,1740.416s2.123-45.626-40.374-61.56-16.287-45.724-21.717-60.965,68.119,16.1,65.178,85.619S11528.269,1740.416,11528.269,1740.416Z" transform="translate(-32879.91 -18862.73)"/>
      </g>
      <g class="cls-33" transform="matrix(1, 0, 0, 1, 21566, 17720.04)">
        <path id="Path_3434-2" data-name="Path 3434" class="cls-28" d="M-10,0H57.913L52.48,69.543H-4.567Z" transform="translate(-21381.01 -17168.54)"/>
      </g>
      <path id="Path_3456" data-name="Path 3456" class="cls-29" d="M50.3,84.136S37.916,21.07,0,0" transform="translate(215.817 400.925) rotate(34)"/>
      <path id="Path_3457" data-name="Path 3457" class="cls-29" d="M11487.033,1813.483s13.264-64.324,53.883-85.815" transform="translate(-11267.612 -1277.198)"/>
      <path id="Path_3458" data-name="Path 3458" class="cls-30" d="M11504.818,1803.761s4.95-7.453,19.242-8.14" transform="translate(-11271.177 -1290.82)"/>
      <path id="Path_3459" data-name="Path 3459" class="cls-30" d="M16.414,6.944S12.191.587,0,0" transform="matrix(0.921, 0.391, -0.391, 0.921, 196.991, 460.332)"/>
      <path id="Path_3460" data-name="Path 3460" class="cls-30" d="M11516.852,1777.852s10.774-12.565,22.576-13.885" transform="translate(-11273.589 -1284.474)"/>
      <path id="Path_3461" data-name="Path 3461" class="cls-30" d="M19.257,11.844S10.067,1.126,0,0" transform="matrix(0.921, 0.391, -0.391, 0.921, 195.254, 436.143)"/>
    </g>
  </g>
</svg>
