<?xml version="1.0" encoding="utf-8"?>
<!-- Generator: Adobe Illustrator 22.0.1, SVG Export Plug-In . SVG Version: 6.00 Build 0)  -->
<svg version="1.1" id="Layer_1" xmlns="http://www.w3.org/2000/svg" xmlns:xlink="http://www.w3.org/1999/xlink" x="0px" y="0px"
	 viewBox="0 0 169 150" style="enable-background:new 0 0 169 150;" xml:space="preserve">
<style type="text/css">
	.st0{fill:#C6E6FF;}
	.st1{fill:#164571;}
	.st2{fill:#0E71BB;}
	.st3{fill:#005B9F;}
	.st4{fill:#21E2E2;}
	.st5{fill:#FFBC98;}
	.st6{fill:#52ACEA;}
	.st7{fill:none;stroke:#21E2E2;stroke-width:2;}
	.st8{fill:none;stroke:#288ED9;stroke-width:2;}
	.st9{fill:#D6EEFF;}
	.st10{fill:#1D8AB6;}
</style>
<g id="Group_8504" transform="translate(-1010.002 -2710.104)">
	<g id="Group_5817" transform="translate(957.484 2820.645) rotate(-45)">
		<path id="Path_3492" class="st0" d="M90.4,114.2C82.1,82.4,64,56.5,64,56.5S41.7,30.9,78.7,4.7s62.4-30.7,76.7,7.2
			c14.3,37.8,42.8,54,38.2,85.9C189.1,129.7,116.9,198.7,90.4,114.2z"/>
	</g>
	<rect id="Rectangle_2915" x="1039.5" y="2774.8" class="st1" width="109.1" height="57.3"/>
	<g id="Group_5882" transform="translate(803 -407)">
		<g id="Group_5865" transform="translate(237 3263.773) rotate(-90)">
			<g id="Group_5793" transform="translate(0 0)">
				<g id="Group_5744" transform="translate(41.774 0) rotate(90)">
					<path id="Path_3764" class="st2" d="M-3-29.9h113.1c2.2,0,4,1.8,4,4v25.3c0,2.2-1.8,4-4,4H-3c-2.2,0-4-1.8-4-4v-25.3
						C-7-28.1-5.2-29.9-3-29.9z"/>
					<path id="Rectangle_1631" class="st3" d="M-4.5-29.9h34.3l0,0V3.4l0,0H-4.5c-1.8,0-3.2-1.4-3.2-3.2v-26.9
						C-7.6-28.5-6.2-29.9-4.5-29.9z"/>
					<g id="Group_5597" transform="translate(11.511 15.776)">
						<path id="Rectangle_1425" class="st4" d="M-6.1-33.1L-6.1-33.1c2.1,0,3.9,1.7,3.9,3.9v0.3c0,2.1-1.7,3.9-3.9,3.9l0,0
							c-2.1,0-3.9-1.7-3.9-3.9v-0.3C-10-31.4-8.3-33.1-6.1-33.1z"/>
						<path id="Rectangle_1442" class="st5" d="M5.1-33.1L5.1-33.1c2.1,0,3.9,1.7,3.9,3.9v0.3c0,2.1-1.7,3.9-3.9,3.9l0,0
							c-2.1,0-3.9-1.7-3.9-3.9v-0.3C1.3-31.4,3-33.1,5.1-33.1z"/>
					</g>
					<g id="Group_5710" transform="translate(58.996 11.001)">
						<g id="Group_5584" transform="translate(0 0)">
							<path id="Rectangle_1405" class="st6" d="M-17.1-32.1L-17.1-32.1c1.4,0,2.6,1.2,2.6,2.6l0,0c0,1.4-1.2,2.6-2.6,2.6l0,0
								c-1.4,0-2.6-1.2-2.6-2.6l0,0C-19.7-30.9-18.5-32.1-17.1-32.1z"/>
							<path id="Rectangle_1424" class="st6" d="M-10.8-21.7L-10.8-21.7c1.4,0,2.6,1.2,2.6,2.6l0,0c0,1.4-1.2,2.6-2.6,2.6l0,0
								c-1.4,0-2.6-1.2-2.6-2.6l0,0C-13.4-20.5-12.2-21.7-10.8-21.7z"/>
							<path id="Rectangle_1410" class="st6" d="M35.3-32.1L35.3-32.1c1.4,0,2.6,1.2,2.6,2.6l0,0c0,1.4-1.2,2.6-2.6,2.6l0,0
								c-1.4,0-2.6-1.2-2.6-2.6l0,0C32.7-30.9,33.8-32.1,35.3-32.1z"/>
							<path id="Rectangle_1419" class="st6" d="M41.5-21.7L41.5-21.7c1.4,0,2.6,1.2,2.6,2.6l0,0c0,1.4-1.2,2.6-2.6,2.6l0,0
								c-1.4,0-2.6-1.2-2.6-2.6l0,0C38.9-20.5,40.1-21.7,41.5-21.7z"/>
							<path id="Rectangle_1406" class="st6" d="M-6.6-32.1L-6.6-32.1c1.4,0,2.6,1.2,2.6,2.6l0,0c0,1.4-1.2,2.6-2.6,2.6l0,0
								c-1.4,0-2.6-1.2-2.6-2.6l0,0C-9.2-30.9-8-32.1-6.6-32.1z"/>
							<path id="Rectangle_1423" class="st6" d="M-0.3-21.7L-0.3-21.7c1.4,0,2.6,1.2,2.6,2.6l0,0c0,1.4-1.2,2.6-2.6,2.6l0,0
								c-1.4,0-2.6-1.2-2.6-2.6l0,0C-2.9-20.5-1.8-21.7-0.3-21.7z"/>
							<path id="Rectangle_1407" class="st6" d="M3.9-32.1L3.9-32.1c1.4,0,2.6,1.2,2.6,2.6l0,0c0,1.4-1.2,2.6-2.6,2.6l0,0
								c-1.4,0-2.6-1.2-2.6-2.6l0,0C1.3-30.9,2.4-32.1,3.9-32.1z"/>
							<path id="Rectangle_1422" class="st6" d="M10.2-21.7L10.2-21.7c1.4,0,2.6,1.2,2.6,2.6l0,0c0,1.4-1.2,2.6-2.6,2.6l0,0
								c-1.4,0-2.6-1.2-2.6-2.6l0,0C7.5-20.5,8.7-21.7,10.2-21.7z"/>
							<path id="Rectangle_1408" class="st6" d="M14.3-32.1L14.3-32.1c1.4,0,2.6,1.2,2.6,2.6l0,0c0,1.4-1.2,2.6-2.6,2.6l0,0
								c-1.4,0-2.6-1.2-2.6-2.6l0,0C11.7-30.9,12.9-32.1,14.3-32.1z"/>
							<path id="Rectangle_1421" class="st6" d="M20.6-21.7L20.6-21.7c1.4,0,2.6,1.2,2.6,2.6l0,0c0,1.4-1.2,2.6-2.6,2.6l0,0
								c-1.4,0-2.6-1.2-2.6-2.6l0,0C18-20.5,19.2-21.7,20.6-21.7z"/>
							<path id="Rectangle_1409" class="st6" d="M24.8-32.1L24.8-32.1c1.4,0,2.6,1.2,2.6,2.6l0,0c0,1.4-1.2,2.6-2.6,2.6l0,0
								c-1.4,0-2.6-1.2-2.6-2.6l0,0C22.2-30.9,23.4-32.1,24.8-32.1z"/>
							<path id="Rectangle_1420" class="st6" d="M31.1-21.7L31.1-21.7c1.4,0,2.6,1.2,2.6,2.6l0,0c0,1.4-1.2,2.6-2.6,2.6l0,0
								c-1.4,0-2.6-1.2-2.6-2.6l0,0C28.5-20.5,29.6-21.7,31.1-21.7z"/>
						</g>
					</g>
				</g>
			</g>
		</g>
		<g id="Group_5866" transform="translate(237 3311.043) rotate(-90)">
			<g id="Group_5793-2" transform="translate(0 0)">
				<g id="Group_5744-2" transform="translate(41.774 0) rotate(90)">
					<path id="Path_3764-2" class="st2" d="M-3-39.5h113.1c2.2,0,4,1.8,4,4v25.3c0,2.2-1.8,4-4,4H-3c-2.2,0-4-1.8-4-4v-25.3
						C-7-37.8-5.2-39.5-3-39.5z"/>
					<path id="Rectangle_1631-2" class="st3" d="M-4.5-39.5h34.3l0,0v33.3l0,0H-4.5c-1.8,0-3.2-1.4-3.2-3.2v-26.9
						C-7.6-38.1-6.2-39.5-4.5-39.5z"/>
					<g id="Group_5597-2" transform="translate(11.511 15.776)">
						<path id="Rectangle_1425-2" class="st4" d="M-6.1-42.7L-6.1-42.7c2.1,0,3.9,1.7,3.9,3.9v0.3c0,2.1-1.7,3.9-3.9,3.9l0,0
							c-2.1,0-3.9-1.7-3.9-3.9v-0.3C-10-41-8.3-42.7-6.1-42.7z"/>
						<path id="Rectangle_1442-2" class="st5" d="M5.1-42.7L5.1-42.7C7.3-42.7,9-41,9-38.9v0.3c0,2.1-1.7,3.9-3.9,3.9l0,0
							c-2.1,0-3.9-1.7-3.9-3.9v-0.3C1.3-41,3-42.7,5.1-42.7z"/>
					</g>
					<g id="Group_5710-2" transform="translate(58.996 11.001)">
						<g id="Group_5584-2" transform="translate(0 0)">
							<path id="Rectangle_1405-2" class="st6" d="M-17.1-41.8L-17.1-41.8c1.4,0,2.6,1.2,2.6,2.6l0,0c0,1.4-1.2,2.6-2.6,2.6l0,0
								c-1.4,0-2.6-1.2-2.6-2.6l0,0C-19.7-40.6-18.5-41.8-17.1-41.8z"/>
							<path id="Rectangle_1424-2" class="st6" d="M-10.8-31.3L-10.8-31.3c1.4,0,2.6,1.2,2.6,2.6l0,0c0,1.4-1.2,2.6-2.6,2.6l0,0
								c-1.4,0-2.6-1.2-2.6-2.6l0,0C-13.4-30.1-12.2-31.3-10.8-31.3z"/>
							<path id="Rectangle_1410-2" class="st6" d="M35.3-41.8L35.3-41.8c1.4,0,2.6,1.2,2.6,2.6l0,0c0,1.4-1.2,2.6-2.6,2.6l0,0
								c-1.4,0-2.6-1.2-2.6-2.6l0,0C32.7-40.6,33.8-41.8,35.3-41.8z"/>
							<path id="Rectangle_1419-2" class="st6" d="M41.5-31.3L41.5-31.3c1.4,0,2.6,1.2,2.6,2.6l0,0c0,1.4-1.2,2.6-2.6,2.6l0,0
								c-1.4,0-2.6-1.2-2.6-2.6l0,0C38.9-30.1,40.1-31.3,41.5-31.3z"/>
							<path id="Rectangle_1406-2" class="st6" d="M-6.6-41.8L-6.6-41.8c1.4,0,2.6,1.2,2.6,2.6l0,0c0,1.4-1.2,2.6-2.6,2.6l0,0
								c-1.4,0-2.6-1.2-2.6-2.6l0,0C-9.2-40.6-8-41.8-6.6-41.8z"/>
							<path id="Rectangle_1423-2" class="st6" d="M-0.3-31.3L-0.3-31.3c1.4,0,2.6,1.2,2.6,2.6l0,0c0,1.4-1.2,2.6-2.6,2.6l0,0
								c-1.4,0-2.6-1.2-2.6-2.6l0,0C-2.9-30.1-1.8-31.3-0.3-31.3z"/>
							<path id="Rectangle_1407-2" class="st6" d="M3.9-41.8L3.9-41.8c1.4,0,2.6,1.2,2.6,2.6l0,0c0,1.4-1.2,2.6-2.6,2.6l0,0
								c-1.4,0-2.6-1.2-2.6-2.6l0,0C1.3-40.6,2.4-41.8,3.9-41.8z"/>
							<path id="Rectangle_1422-2" class="st6" d="M10.2-31.3L10.2-31.3c1.4,0,2.6,1.2,2.6,2.6l0,0c0,1.4-1.2,2.6-2.6,2.6l0,0
								c-1.4,0-2.6-1.2-2.6-2.6l0,0C7.5-30.1,8.7-31.3,10.2-31.3z"/>
							<path id="Rectangle_1408-2" class="st6" d="M14.3-41.8L14.3-41.8c1.4,0,2.6,1.2,2.6,2.6l0,0c0,1.4-1.2,2.6-2.6,2.6l0,0
								c-1.4,0-2.6-1.2-2.6-2.6l0,0C11.7-40.6,12.9-41.8,14.3-41.8z"/>
							<path id="Rectangle_1421-2" class="st6" d="M20.6-31.3L20.6-31.3c1.4,0,2.6,1.2,2.6,2.6l0,0c0,1.4-1.2,2.6-2.6,2.6l0,0
								c-1.4,0-2.6-1.2-2.6-2.6l0,0C18-30.1,19.2-31.3,20.6-31.3z"/>
							<path id="Rectangle_1409-2" class="st6" d="M24.8-41.8L24.8-41.8c1.4,0,2.6,1.2,2.6,2.6l0,0c0,1.4-1.2,2.6-2.6,2.6l0,0
								c-1.4,0-2.6-1.2-2.6-2.6l0,0C22.2-40.6,23.4-41.8,24.8-41.8z"/>
							<path id="Rectangle_1420-2" class="st6" d="M31.1-31.3L31.1-31.3c1.4,0,2.6,1.2,2.6,2.6l0,0c0,1.4-1.2,2.6-2.6,2.6l0,0
								c-1.4,0-2.6-1.2-2.6-2.6l0,0C28.5-30.1,29.6-31.3,31.1-31.3z"/>
						</g>
					</g>
				</g>
			</g>
		</g>
		<g id="Group_5894" transform="translate(237 3216.773) rotate(-90)">
			<g id="Group_5793-3" transform="translate(0 0)">
				<g id="Group_5744-3" transform="translate(41.774 0) rotate(90)">
					<path id="Path_3764-3" class="st2" d="M-3-20.3h113.1c2.2,0,4,1.8,4,4V9c0,2.2-1.8,4-4,4H-3c-2.2,0-4-1.8-4-4v-25.3
						C-7-18.5-5.2-20.3-3-20.3z"/>
					<path id="Rectangle_1631-3" class="st3" d="M-4.5-20.3h34.3l0,0V13l0,0H-4.5c-1.8,0-3.2-1.4-3.2-3.2v-26.9
						C-7.6-18.9-6.2-20.3-4.5-20.3z"/>
					<g id="Group_5597-3" transform="translate(11.511 15.776)">
						<path id="Rectangle_1425-3" class="st4" d="M-6.1-23.5L-6.1-23.5c2.1,0,3.9,1.7,3.9,3.9v0.3c0,2.1-1.7,3.9-3.9,3.9l0,0
							c-2.1,0-3.9-1.7-3.9-3.9v-0.3C-10-21.8-8.3-23.5-6.1-23.5z"/>
						<path id="Rectangle_1442-3" class="st5" d="M5.1-23.5L5.1-23.5c2.1,0,3.9,1.7,3.9,3.9v0.3c0,2.1-1.7,3.9-3.9,3.9l0,0
							c-2.1,0-3.9-1.7-3.9-3.9v-0.3C1.3-21.8,3-23.5,5.1-23.5z"/>
					</g>
					<g id="Group_5710-3" transform="translate(58.996 11.001)">
						<g id="Group_5584-3" transform="translate(0 0)">
							<path id="Rectangle_1405-3" class="st6" d="M-17.1-22.5L-17.1-22.5c1.4,0,2.6,1.2,2.6,2.6l0,0c0,1.4-1.2,2.6-2.6,2.6l0,0
								c-1.4,0-2.6-1.2-2.6-2.6l0,0C-19.7-21.4-18.5-22.5-17.1-22.5z"/>
							<path id="Rectangle_1424-3" class="st6" d="M-10.8-12.1L-10.8-12.1c1.4,0,2.6,1.2,2.6,2.6l0,0c0,1.4-1.2,2.6-2.6,2.6l0,0
								c-1.4,0-2.6-1.2-2.6-2.6l0,0C-13.4-10.9-12.2-12.1-10.8-12.1z"/>
							<path id="Rectangle_1410-3" class="st6" d="M35.3-22.5L35.3-22.5c1.4,0,2.6,1.2,2.6,2.6l0,0c0,1.4-1.2,2.6-2.6,2.6l0,0
								c-1.4,0-2.6-1.2-2.6-2.6l0,0C32.7-21.4,33.8-22.5,35.3-22.5z"/>
							<path id="Rectangle_1419-3" class="st6" d="M41.5-12.1L41.5-12.1c1.4,0,2.6,1.2,2.6,2.6l0,0c0,1.4-1.2,2.6-2.6,2.6l0,0
								c-1.4,0-2.6-1.2-2.6-2.6l0,0C38.9-10.9,40.1-12.1,41.5-12.1z"/>
							<path id="Rectangle_1406-3" class="st6" d="M-6.6-22.5L-6.6-22.5c1.4,0,2.6,1.2,2.6,2.6l0,0c0,1.4-1.2,2.6-2.6,2.6l0,0
								c-1.4,0-2.6-1.2-2.6-2.6l0,0C-9.2-21.4-8-22.5-6.6-22.5z"/>
							<path id="Rectangle_1423-3" class="st6" d="M-0.3-12.1L-0.3-12.1c1.4,0,2.6,1.2,2.6,2.6l0,0c0,1.4-1.2,2.6-2.6,2.6l0,0
								c-1.4,0-2.6-1.2-2.6-2.6l0,0C-2.9-10.9-1.8-12.1-0.3-12.1z"/>
							<path id="Rectangle_1407-3" class="st6" d="M3.9-22.5L3.9-22.5c1.4,0,2.6,1.2,2.6,2.6l0,0c0,1.4-1.2,2.6-2.6,2.6l0,0
								c-1.4,0-2.6-1.2-2.6-2.6l0,0C1.3-21.4,2.4-22.5,3.9-22.5z"/>
							<path id="Rectangle_1422-3" class="st6" d="M10.2-12.1L10.2-12.1c1.4,0,2.6,1.2,2.6,2.6l0,0c0,1.4-1.2,2.6-2.6,2.6l0,0
								C8.7-6.8,7.5-8,7.5-9.5l0,0C7.5-10.9,8.7-12.1,10.2-12.1z"/>
							<path id="Rectangle_1408-3" class="st6" d="M14.3-22.5L14.3-22.5c1.4,0,2.6,1.2,2.6,2.6l0,0c0,1.4-1.2,2.6-2.6,2.6l0,0
								c-1.4,0-2.6-1.2-2.6-2.6l0,0C11.7-21.4,12.9-22.5,14.3-22.5z"/>
							<path id="Rectangle_1421-3" class="st6" d="M20.6-12.1L20.6-12.1c1.4,0,2.6,1.2,2.6,2.6l0,0c0,1.4-1.2,2.6-2.6,2.6l0,0
								C19.2-6.8,18-8,18-9.5l0,0C18-10.9,19.2-12.1,20.6-12.1z"/>
							<path id="Rectangle_1409-3" class="st6" d="M24.8-22.5L24.8-22.5c1.4,0,2.6,1.2,2.6,2.6l0,0c0,1.4-1.2,2.6-2.6,2.6l0,0
								c-1.4,0-2.6-1.2-2.6-2.6l0,0C22.2-21.4,23.4-22.5,24.8-22.5z"/>
							<path id="Rectangle_1420-3" class="st6" d="M31.1-12.1L31.1-12.1c1.4,0,2.6,1.2,2.6,2.6l0,0c0,1.4-1.2,2.6-2.6,2.6l0,0
								c-1.4,0-2.6-1.2-2.6-2.6l0,0C28.5-10.9,29.6-12.1,31.1-12.1z"/>
						</g>
					</g>
				</g>
			</g>
		</g>
	</g>
	<g id="hi" transform="translate(273 1676.77)">
		<g id="Rectangle_3014" transform="translate(823.995 1146.995)">
			<path class="st4" d="M-16.9-31.7h84.4c1.3,0,2.4,1.1,2.4,2.4v59.9c0,1.3-1.1,2.4-2.4,2.4h-84.4c-1.3,0-2.4-1.1-2.4-2.4v-59.9
				C-19.3-30.6-18.2-31.7-16.9-31.7z"/>
			<path class="st7" d="M-16.9-30.9h84.4c0.9,0,1.6,0.7,1.6,1.6v59.9c0,0.9-0.7,1.6-1.6,1.6h-84.4c-0.9,0-1.6-0.7-1.6-1.6v-59.9
				C-18.5-30.2-17.8-30.9-16.9-30.9z"/>
		</g>
		<path id="Rectangle_3422" class="st1" d="M807.1,1115.3h84.4c1.3,0,2.4,1.1,2.4,2.4v11.3l0,0h-89.1l0,0v-11.3
			C804.7,1116.4,805.8,1115.3,807.1,1115.3z"/>
		<path id="Path_4920" class="st8" d="M892.3,1129.1"/>
		<circle id="Ellipse_1153" class="st5" cx="812.4" cy="1122.3" r="1.6"/>
		<circle id="Ellipse_1154" class="st9" cx="817" cy="1122.3" r="1.6"/>
		<circle id="Ellipse_1155" class="st4" cx="821.5" cy="1122.3" r="1.6"/>
		<rect id="Rectangle_2328" x="825.7" y="1120.4" class="st6" width="62.3" height="4.1"/>
		<rect id="Rectangle_2329" x="816.1" y="1147.1" class="st10" width="41.9" height="3.2"/>
		<rect id="Rectangle_3420" x="816.1" y="1156.6" class="st10" width="66.2" height="3.2"/>
		<rect id="Rectangle_3421" x="816.1" y="1165.9" class="st10" width="59.4" height="3.2"/>
		<rect id="Rectangle_3496" x="816.1" y="1137.5" class="st10" width="41.9" height="3.2"/>
	</g>
</g>
</svg>
