<?xml version="1.0" encoding="utf-8"?>
<!-- Generator: Adobe Illustrator 22.0.1, SVG Export Plug-In . SVG Version: 6.00 Build 0)  -->
<svg version="1.1" id="Layer_1" xmlns="http://www.w3.org/2000/svg" xmlns:xlink="http://www.w3.org/1999/xlink" x="0px" y="0px"
	 viewBox="0 0 180 150" style="enable-background:new 0 0 180 150;" xml:space="preserve">
<style type="text/css">
	.st0{opacity:0.3;fill:url(#Path_5695_1_);enable-background:new    ;}
	.st1{fill:#FFFFFF;stroke:#137FCF;stroke-width:2;}
	.st2{fill:#D6EEFF;}
	.st3{fill:#137FCF;}
	.st4{fill:#D6EEFF;stroke:#137FCF;stroke-width:2;}
</style>
<g id="Group_8032" transform="translate(-15375 -17863)">
	
		<linearGradient id="Path_5695_1_" gradientUnits="userSpaceOnUse" x1="14437.4395" y1="19451.2461" x2="14437.4395" y2="19450.2461" gradientTransform="matrix(-104.8145 104.8145 102.7151 102.7151 -469170.875 -3493196.75)">
		<stop  offset="0" style="stop-color:#98CDF2"/>
		<stop  offset="1" style="stop-color:#D6EEFF"/>
	</linearGradient>
	<path id="Path_5695" class="st0" d="M15480.5,17988.5c-33.1,4.5-68.8,23.5-92.3-17.4c-23.5-40.9,18.1-102.9,84.8-94.2
		S15599.1,17978.9,15480.5,17988.5z"/>
	<g id="Group_6279" transform="translate(250.607 3650)">
		<g id="Group_5533" transform="translate(559 1104)">
			<g id="diskette">
				<path id="Path_4913" class="st1" d="M14682.8,13163.5l-9.8-9.8c-0.6-0.6-1.4-0.9-2.2-0.9h-47.9c-1.8,0-3.2,1.4-3.2,3.2
					c0,0,0,0,0,0v57.7c0,1.8,1.4,3.2,3.2,3.2c0,0,0,0,0,0h57.7c1.8,0,3.2-1.4,3.2-3.2c0,0,0,0,0,0v-47.9
					C14683.7,13164.9,14683.4,13164.1,14682.8,13163.5z"/>
				<path id="Path_4914" class="st2" d="M14672.6,13181.5h-41.8c-1.5,0-2.7,1.2-2.7,2.7v21.9c0,1.5,1.2,2.7,2.7,2.7h41.8
					c1.5,0,2.7-1.2,2.7-2.7v-21.9C14675.3,13182.8,14674.1,13181.5,14672.6,13181.5
					C14672.6,13181.5,14672.6,13181.5,14672.6,13181.5z"/>
				<g id="Group_5508" transform="translate(13.167 0)">
					<rect id="Rectangle_2313" x="14619.7" y="13186.8" class="st3" width="37.7" height="1.9"/>
					<rect id="Rectangle_2314" x="14619.7" y="13194.1" class="st3" width="37.7" height="1.9"/>
					<rect id="Rectangle_2315" x="14619.7" y="13201.4" class="st3" width="37.7" height="1.9"/>
					<path id="Path_4915" class="st4" d="M14620.2,13152.8v14.7c0,1.4,1.2,2.5,2.6,2.5h31.6c1.4,0,2.6-1.1,2.6-2.5v-14.7H14620.2z"
						/>
				</g>
				<rect id="Rectangle_2316" x="14662.5" y="13158" class="st3" width="2" height="7.4"/>
			</g>
		</g>
	</g>
</g>
</svg>
