<?xml version="1.0" encoding="utf-8"?>
<!-- Generator: Adobe Illustrator 22.0.1, SVG Export Plug-In . SVG Version: 6.00 Build 0)  -->
<svg version="1.1" id="Layer_1" xmlns="http://www.w3.org/2000/svg" xmlns:xlink="http://www.w3.org/1999/xlink" x="0px" y="0px"
	 viewBox="0 0 180 150" style="enable-background:new 0 0 180 150;" xml:space="preserve">
<style type="text/css">
	.st0{opacity:0.3;fill:#C6E6FF;enable-background:new    ;}
	.st1{fill:#FFFFFF;}
	.st2{fill:#137FCF;}
	.st3{fill:none;stroke:#137FCF;stroke-width:2;}
	.st4{fill:#D6EEFF;}
	.st5{fill:none;stroke:#137FCF;stroke-width:2;stroke-linecap:round;}
	.st6{fill:none;stroke:#137FCF;stroke-width:2;stroke-linecap:round;stroke-dasharray:3.8,3.8;}
</style>
<g id="Group_8034" transform="translate(-15375 -17863)">
	<path id="Path_5697" class="st0" d="M15449.3,17992.5c31.1-6.4,77.4,10.3,79.6-30.1c2.2-40.5,7.3-56.8-16.8-75.4
		c-24.1-18.5-37.4,13.7-81.6,7.3S15363.4,18005.5,15449.3,17992.5z"/>
	<g id="Group_6312" transform="translate(-3166.039 1367.367) rotate(-42)">
		<g id="Group_6310" transform="translate(194.551 4786.001)">
			<g id="Subtraction_86" transform="translate(0 0)">
				<path class="st1" d="M2573.3,20018.6h-45.8l0-14.7c3.5-0.5,6.2-3.5,6.2-7.2c0-3.7-2.7-6.7-6.2-7.2v-14.7h45.8V20018.6
					L2573.3,20018.6z"/>
				<path class="st2" d="M2572.3,20017.6v-41.7h-43.8v12.9c3.6,0.9,6.2,4.1,6.2,8c0,3.8-2.7,7.1-6.2,8v12.9H2572.3 M2573.3,20019.6
					h-45.8c-0.6,0-1-0.4-1-1v-15.6c3.4,0,6.2-2.8,6.2-6.2c0-3.4-2.8-6.2-6.2-6.2v-15.6c0-0.6,0.4-1,1-1h45.8c0.6,0,1,0.4,1,1v43.7
					C2574.3,20019.2,2573.8,20019.6,2573.3,20019.6z"/>
			</g>
			<g id="Rectangle_2905" transform="translate(37.422 0)">
				<path class="st1" d="M2527.5,19973.9h8.4c0.6,0,1,0.4,1,1v43.7c0,0.6-0.4,1-1,1h-8.4c-0.6,0-1-0.4-1-1v-43.7
					C2526.5,19974.4,2526.9,19973.9,2527.5,19973.9z"/>
				
					<rect x="2527.5" y="19974.9" transform="matrix(-1 2.382270e-06 -2.382270e-06 -1 5063.356 39993.5469)" class="st3" width="8.4" height="43.7"/>
			</g>
			<g id="Subtraction_85" transform="translate(45.739 0)">
				<path class="st4" d="M2548.3,20018.6h-20.9l0-43.7h20.9v14.7c-3.5,0.5-6.2,3.5-6.2,7.2s2.7,6.7,6.2,7.2V20018.6L2548.3,20018.6z
					"/>
				<path class="st2" d="M2547.3,20017.6v-12.9c-3.6-0.9-6.2-4.1-6.2-8s2.7-7.1,6.2-8v-12.9h-18.9v41.7H2547.3 M2548.3,20019.6
					h-20.9c-0.6,0-1-0.4-1-1v-43.7c0-0.6,0.4-1,1-1h20.9c0.6,0,1,0.4,1,1v15.6c-3.4,0-6.2,2.8-6.2,6.2c0,3.4,2.8,6.2,6.2,6.2v15.6
					C2549.3,20019.2,2548.9,20019.6,2548.3,20019.6z"/>
			</g>
			<g id="Group_6309" transform="translate(29.722 5.274) rotate(45)">
				<g id="Group_6306">
					<line id="Line_603" class="st5" x1="15910.2" y1="12337.2" x2="15912.5" y2="12339.5"/>
					<line id="Line_604" class="st6" x1="15915.5" y1="12342.6" x2="15931.1" y2="12358.2"/>
					<line id="Line_605" class="st5" x1="15932.6" y1="12359.8" x2="15934.9" y2="12362.1"/>
				</g>
			</g>
		</g>
	</g>
</g>
</svg>
