<svg xmlns="http://www.w3.org/2000/svg" xmlns:xlink="http://www.w3.org/1999/xlink" viewBox="17467.256 -17653.439 785.287 612.51">
  <defs>
    <style>
      .cls-1 {
        fill: url(#linear-gradient);
      }

      .cls-2 {
        fill: url(#linear-gradient-2);
      }

      .cls-3, .cls-31 {
        fill: #c6e6ff;
      }

      .cls-3 {
        opacity: 0.435;
      }

      .cls-4 {
        opacity: 0.363;
      }

      .cls-16, .cls-18, .cls-4 {
        fill: url(#linear-gradient-3);
      }

      .cls-5 {
        fill: #0e71bb;
      }

      .cls-6 {
        fill: #152735;
      }

      .cls-7 {
        fill: #f0d2b9;
      }

      .cls-8 {
        fill: #30a3d1;
      }

      .cls-9 {
        fill: #1f364c;
      }

      .cls-10 {
        opacity: 0.356;
        fill: url(#linear-gradient-4);
      }

      .cls-11 {
        fill: #004f89;
      }

      .cls-12 {
        fill: #137fcf;
      }

      .cls-13 {
        fill: #005b9f;
      }

      .cls-14 {
        fill: #ffe7cb;
      }

      .cls-15 {
        fill: #f1d2b7;
      }

      .cls-16 {
        opacity: 0.36;
      }

      .cls-17 {
        fill: #288ed9;
      }

      .cls-18 {
        opacity: 0.359;
      }

      .cls-19, .cls-25, .cls-26, .cls-27, .cls-30 {
        fill: none;
      }

      .cls-19 {
        stroke: #005b9f;
      }

      .cls-19, .cls-25, .cls-26, .cls-27 {
        stroke-width: 2px;
      }

      .cls-20, .cls-29 {
        fill: #fff;
      }

      .cls-21 {
        fill: #d6eeff;
      }

      .cls-22 {
        fill: #21e2e2;
      }

      .cls-23 {
        fill: #ffbc98;
      }

      .cls-24 {
        opacity: 0.45;
        fill: url(#linear-gradient-7);
      }

      .cls-25 {
        stroke: #ffbc98;
      }

      .cls-25, .cls-26, .cls-27, .cls-29 {
        stroke-miterlimit: 10;
      }

      .cls-26, .cls-29, .cls-30 {
        stroke: #fff;
      }

      .cls-27 {
        stroke: #52acea;
      }

      .cls-28 {
        fill: #52acea;
      }

      .cls-30 {
        opacity: 0.2;
      }

      .cls-31 {
        opacity: 0.576;
      }

      .cls-32 {
        filter: url(#Union_11);
      }
    </style>
    <linearGradient id="linear-gradient" x1="0.5" y1="1.192" x2="0.487" y2="-0.081" gradientUnits="objectBoundingBox">
      <stop offset="0" stop-color="#c6e6ff"/>
      <stop offset="1" stop-color="#fff"/>
    </linearGradient>
    <linearGradient id="linear-gradient-2" x1="0.5" y1="-1.004" x2="0.5" y2="1" gradientUnits="objectBoundingBox">
      <stop offset="0" stop-color="#288ed9"/>
      <stop offset="1" stop-color="#137fcf" stop-opacity="0.051"/>
    </linearGradient>
    <linearGradient id="linear-gradient-3" x1="0.5" y1="1.566" x2="0.5" gradientUnits="objectBoundingBox">
      <stop offset="0" stop-color="#288ed9" stop-opacity="0"/>
      <stop offset="1" stop-color="#005b9f"/>
    </linearGradient>
    <linearGradient id="linear-gradient-4" x1="0.5" y1="1.809" x2="0.5" xlink:href="#linear-gradient-3"/>
    <filter id="Union_11" x="17837.719" y="-17537.572" width="111.49" height="90.738" filterUnits="userSpaceOnUse">
      <feOffset dx="3" dy="5" input="SourceAlpha"/>
      <feGaussianBlur result="blur"/>
      <feFlood flood-color="#288ed9" flood-opacity="0.173"/>
      <feComposite operator="in" in2="blur"/>
      <feComposite in="SourceGraphic"/>
    </filter>
    <linearGradient id="linear-gradient-7" x1="0.5" y1="1.34" x2="0.5" xlink:href="#linear-gradient-3"/>
  </defs>
  <g id="Group_6826" data-name="Group 6826" transform="translate(17367 -17863)">
    <path id="Path_5938" data-name="Path 5938" class="cls-1" d="M338.563,59.823C459.7,137.122,598.4,171.906,598.4,171.906S751.141,195.1,694.96,369.017s-63.509,236.2-151.566,240.649c-83.51,2.38-130.416-32.083-213.041-26.146-72.578,5.588-122.557,38.288-243.83-9.484C-107.812,488.157-93.327-212.654,338.563,59.823Z" transform="translate(133.574 212.287)"/>
    <ellipse id="Ellipse_1348" data-name="Ellipse 1348" class="cls-2" cx="263" cy="39.5" rx="263" ry="39.5" transform="translate(202 687)"/>
    <path id="Path_5939" data-name="Path 5939" class="cls-3" d="M47.836.011C27.352,24.646,60.928,84.337,15.392,120.729S40.253,182.476,36.207,235.55,161.521,177.731,121.8,87.859C111.469,64.492,112.319,11.495,106.112.011,89.138-31.4,68.321-24.625,47.836.011Z" transform="translate(349.607 236.613) rotate(90)"/>
    <g id="Group_6811" data-name="Group 6811" transform="translate(-543 -757.639)">
      <g id="Group_6441" data-name="Group 6441" transform="translate(767.508 1042)">
        <ellipse id="Ellipse_619" data-name="Ellipse 619" class="cls-4" cx="15.23" cy="4.641" rx="15.23" ry="4.641" transform="translate(80.09 424.059)"/>
        <path id="Path_4202" data-name="Path 4202" class="cls-5" d="M78.5,314.5,94.6,418.7h8.526L88.92,314.5Z" transform="translate(-4.136 10.255)"/>
        <path id="Path_4201" data-name="Path 4201" class="cls-6" d="M186.654,245.5l54,11.368s25.577,2.842,14.21,30.314-42.629,111.782-42.629,111.782H190.443L216.02,288.129l-20.841-1.895s-72-23.683-72-24.63-5.684-16.1-5.684-16.1Z" transform="translate(-6.191 13.892)"/>
        <path id="Path_4203" data-name="Path 4203" class="cls-5" d="M183.972,418.177h9.473L174.5,304.5l-18,2.842,3.789,1.895Z" transform="translate(-7.453 10.783)"/>
        <path id="Path_4207" data-name="Path 4207" class="cls-7" d="M157.5,135.361l21.788,56.925,54-8.526s28.419-4.737,29.367,4.737-11.368,18.946-11.368,18.946-12.315-3.789-13.262-9.473-61.575,13.262-61.575,13.262-11.368,0-18.946-11.368-18-34.1-18-34.1V139.237l6.631-4.737Z" transform="translate(-7.35 19.742)"/>
        <path id="Path_4204" data-name="Path 4204" class="cls-8" d="M55.275,140.5s-24.63,0-21.788,42.629,5.684,84.311,5.684,84.311,2.842,41.682,52.1,41.682,74.837-3.789,74.837-3.789l11.368-25.577L87.484,260.808Z" transform="translate(-1.752 19.425)"/>
        <path id="Path_4206" data-name="Path 4206" class="cls-9" d="M66.488,253.078V245.5h56.839l12.315,3.789L186.8,261.6s31.261,2.842,18,35.05-42.629,102.309-42.629,102.309H140.378L166.9,290.024S60.8,318.443,66.488,253.078Z" transform="translate(-3.491 13.892)"/>
        <path id="Path_4208" data-name="Path 4208" class="cls-5" d="M367.968,407.1h-5.779L358.4,247h13.357Z" transform="translate(-18.884 13.812)"/>
        <ellipse id="Ellipse_620" data-name="Ellipse 620" class="cls-10" cx="70.604" cy="11.76" rx="70.604" ry="11.76" transform="translate(115.759 439.361)"/>
        <g id="Group_5141" data-name="Group 5141" transform="translate(39.222 118.847)">
          <path id="Path_4205" data-name="Path 4205" class="cls-11" d="M128.5,101.5c22.357,2.907,28.714,18.478,34.522,37.891l-29.591,9.343Z" transform="translate(-50.673 -101.5)"/>
          <path id="Path_4209" data-name="Path 4209" class="cls-12" d="M123.905,100.9s16.41,10.482,16.41,66.657,0,64.606-1.421,64.606H60.268L56.1,154.954s9.852-9.852,8.431-22.451,5.589-32.3,5.589-32.3l23.872,16.862,16.862-1.421Z" transform="translate(-42.176 -97.301)"/>
          <path id="Path_4217" data-name="Path 4217" class="cls-13" d="M69.44,99s-26.051,12.41-27.472,28.419c-.947,10.42-.947,10.42,1.895,27.472l30.314-13.262C69.44,130.261,67.641,118.7,69.44,99Z" transform="translate(-41.402 -97.237)"/>
        </g>
        <g id="Group_5135" data-name="Group 5135" transform="translate(174.273 410.488)">
          <path id="Path_4212" data-name="Path 4212" class="cls-8" d="M213.256,405a6.248,6.248,0,0,1,5.589,3.41c3.316,6.252,11.368,19.23,22.167,20.367,14.3,1.61,11.084,1.61,12.694,12.694S185.5,430.388,185.5,430.388,187.11,405,198.194,405Z" transform="translate(-184.047 -405)"/>
          <path id="Path_4213" data-name="Path 4213" class="cls-9" d="M252.3,449.239,185.514,436.45A1.9,1.9,0,0,1,184,434.272l.474-2.558a1.9,1.9,0,0,1,2.179-1.516l66.785,12.789a1.9,1.9,0,0,1,1.516,2.179l-.474,2.558A1.849,1.849,0,0,1,252.3,449.239Z" transform="translate(-183.966 -406.326)"/>
          <g id="Group_5134" data-name="Group 5134" transform="translate(12.934 14.21)">
            <path id="Path_4214" data-name="Path 4214" class="cls-13" d="M231.42,432.978c-5.494,1.326-13.262,1.705-17.336-5.4-2.273-3.505-4.926-5.589-7.863-5.968a10.558,10.558,0,0,0-7.294,2.084.774.774,0,0,1-1.137-.095.75.75,0,0,1,.095-1.042c.189-.095,3.884-3.126,8.526-2.463,3.41.474,6.442,2.747,9,6.631,5.873,10.42,20.557,3.031,21.22,2.747a.762.762,0,0,1,1.042.284.8.8,0,0,1-.379,1.042A25.547,25.547,0,0,1,231.42,432.978Z" transform="translate(-197.619 -420)"/>
          </g>
          <path id="Path_4215" data-name="Path 4215" class="cls-13" d="M195.237,427.973h0a4.75,4.75,0,0,1-4.737-4.737h0a4.75,4.75,0,0,1,4.737-4.737h0a4.75,4.75,0,0,1,4.737,4.737h0A4.69,4.69,0,0,1,195.237,427.973Z" transform="translate(-184.31 -405.711)"/>
        </g>
        <rect id="Rectangle_2114" data-name="Rectangle 2114" class="cls-13" width="63.47" height="6.631" transform="translate(150.622 228.606)"/>
        <path id="Path_4216" data-name="Path 4216" class="cls-14" d="M45.063,157.107C51.694,149.434,57.8,136.369,70.4,139.4c10.61,13.736,21.758,36.7,26.874,54.128l54-6.631c14.02-5.779,24.251-3.126,30.314,8.526l3.031,16.01a.948.948,0,0,1-1.8.568L177.8,200.16c-6.726,9.757-14.02,9.568-21.788,0L92.444,216.548A8.611,8.611,0,0,1,84.3,214.37C69.141,199.4,54.536,181.642,45.063,157.107Z" transform="translate(-2.544 18.97)"/>
        <path id="Path_4211" data-name="Path 4211" class="cls-8" d="M355.623,136H247.63L223,215.574H330.993Z" transform="translate(-11.748 19.662)"/>
        <g id="Group_5137" data-name="Group 5137" transform="translate(127.974 408.763)">
          <path id="Path_4218" data-name="Path 4218" class="cls-8" d="M163.877,403.2a6.73,6.73,0,0,1,6.157,3.126c3.979,6.347,13.452,19.325,24.82,19.8,15.157.568,11.841.853,14.3,12.41C211.716,450.091,136.5,432,136.5,432s-.284-26.809,11.462-27.661Z" transform="translate(-135.166 -403.18)"/>
          <path id="Path_4219" data-name="Path 4219" class="cls-9" d="M208.326,446.856,136.8,438.425a1.911,1.911,0,0,1-1.705-2.084l.379-2.937a1.911,1.911,0,0,1,2.084-1.705l71.522,8.431a1.911,1.911,0,0,1,1.705,2.084l-.379,2.937A1.79,1.79,0,0,1,208.326,446.856Z" transform="translate(-135.092 -404.682)"/>
          <g id="Group_5136" data-name="Group 5136" transform="translate(13.152 15.538)">
            <path id="Path_4220" data-name="Path 4220" class="cls-13" d="M185.091,431.251c-5.684,1.895-13.831,2.842-18.567-4.358-2.652-3.505-5.589-5.494-8.715-5.684a10.982,10.982,0,0,0-7.484,2.747.8.8,0,0,1-1.137-1.137A12.736,12.736,0,0,1,158,419.6c3.695.189,7.01,2.368,9.947,6.347,6.915,10.515,21.883,1.61,22.546,1.231a.857.857,0,0,1,1.137.19.9.9,0,0,1-.284,1.137A35.134,35.134,0,0,1,185.091,431.251Z" transform="translate(-148.975 -419.582)"/>
          </g>
          <path id="Path_4221" data-name="Path 4221" class="cls-13" d="M146.883,428.736h-.568a4.782,4.782,0,0,1-5.115-4.452v-.568a4.782,4.782,0,0,1,4.452-5.115h.568a4.782,4.782,0,0,1,5.115,4.452v.568A4.782,4.782,0,0,1,146.883,428.736Z" transform="translate(-135.413 -403.992)"/>
        </g>
        <path id="Path_4222" data-name="Path 4222" class="cls-13" d="M80.742,89.8c-5.779,0-6.631,2.274-9.852,8.431-2.842,7.01,28.04,33.724,28.04,33.724l7.01-12.6,5.589,12.6c14.02-20.083,20.462-37.04,4.168-39.313Z" transform="translate(-3.724 22.096)"/>
        <path id="Path_4224" data-name="Path 4224" class="cls-14" d="M125.5,21.368c3.316,36.092-.095,55.986-9.852,60.344v7.01l-1.516,3.41-8.336,19.041L82.017,91.564c-1.989-2.558-1.421-5.589-1.421-7.01V70.533L76.428,62.1c-6.158-3.695-8.9-8.052-8.431-14.02l5.589-22.451L87.606,17.2Z" transform="translate(-3.578 25.921)"/>
        <path id="Path_4225" data-name="Path 4225" class="cls-15" d="M94.6,83.9c8.621,4.737,22.451,1.421,22.451,1.421v7.01C111.462,99.341,97.442,97.92,94.6,83.9Z" transform="translate(-4.984 22.407)"/>
        <ellipse id="Ellipse_609" data-name="Ellipse 609" class="cls-16" cx="15.23" cy="4.641" rx="15.23" ry="4.641" transform="translate(35.482 445.791)"/>
        <path id="Path_4226" data-name="Path 4226" class="cls-15" d="M111.952,46.528,111.1,57.9a1.368,1.368,0,0,0,1.421,1.516H120a1.356,1.356,0,0,0,1.232-1.989L114.6,46.055A1.391,1.391,0,0,0,111.952,46.528Z" transform="translate(-5.853 24.443)"/>
        <path id="Path_4210" data-name="Path 4210" class="cls-5" d="M56.568,437.207H50.789L47,248H60.357Z" transform="translate(-2.475 13.76)"/>
        <rect id="Rectangle_2115" data-name="Rectangle 2115" class="cls-17" width="401.659" height="13.262" transform="translate(0 234.762)"/>
        <rect id="Rectangle_2117" data-name="Rectangle 2117" class="cls-13" width="367.068" height="7.247" transform="translate(17.599 248.023)"/>
        <rect id="Rectangle_2118" data-name="Rectangle 2118" class="cls-17" width="377.848" height="13.262" transform="translate(10.354 252.361)"/>
        <path id="Path_4228" data-name="Path 4228" class="cls-5" d="M35.171,38.866C76.757,59.849,88.639,34.442,70.311,15.1,58.555,3.726,46.041-.572,33.528.06c3.413,11,4.55,21.362-5.183,17.949C9.385,14.091-1.722,28.988.219,48.763,2.105,66.1,16.73,80.9,19.244,70.972c-16.179-13.4,5.688-28.441,4.3-10.365C33.907,67.306,36.435,57.194,35.171,38.866Z" transform="translate(52.773 11.805)"/>
        <path id="Path_4229" data-name="Path 4229" class="cls-13" d="M19727.051,3813.011l-3.99-3.831-107.5-.113-24.988,77.146h5.836l23.211-73.141Z" transform="translate(-19383.145 -3657.296)"/>
        <circle id="Ellipse_612" data-name="Ellipse 612" class="cls-9" cx="7.507" cy="7.507" r="7.507" transform="translate(65.245 63.603)"/>
        <ellipse id="Ellipse_1296" data-name="Ellipse 1296" class="cls-18" cx="15.23" cy="4.641" rx="15.23" ry="4.641" transform="translate(331.722 416.052)"/>
        <path id="Path_4230" data-name="Path 4230" class="cls-19" d="M19481,3732.309s11.768,31.639,31.688,25.081" transform="translate(-19408.248 -3659.559)"/>
        <circle id="Ellipse_613" data-name="Ellipse 613" class="cls-9" cx="5.63" cy="5.63" r="5.63" transform="translate(99.027 92.381)"/>
        <g id="Group_6824" data-name="Group 6824" transform="translate(182.491 0)">
          <g class="cls-32" transform="matrix(1, 0, 0, 1, -17774, 17578.64)">
            <path id="Union_11-2" data-name="Union 11" class="cls-20" d="M16.451,68.225H0V0H108.49V68.225H42.564L16.451,85.738Z" transform="translate(17837.72 -17537.57)"/>
          </g>
          <g id="Group_5172" data-name="Group 5172" transform="translate(77.728 63.911)">
            <rect id="Rectangle_2132" data-name="Rectangle 2132" class="cls-21" width="79.581" height="2.947" transform="translate(0)"/>
            <rect id="Rectangle_2133" data-name="Rectangle 2133" class="cls-21" width="79.581" height="2.947" transform="translate(0 11.79)"/>
            <rect id="Rectangle_2134" data-name="Rectangle 2134" class="cls-21" width="39.791" height="2.947" transform="translate(0 23.58)"/>
          </g>
          <path id="Union_10" data-name="Union 10" class="cls-17" d="M16.451,68.225H0V0H108.49V68.225H42.564L16.451,85.738Z"/>
          <rect id="Rectangle_2128" data-name="Rectangle 2128" class="cls-20" width="79.581" height="2.947" transform="translate(14.005 21.37)"/>
          <rect id="Rectangle_2129" data-name="Rectangle 2129" class="cls-22" width="79.581" height="2.947" transform="translate(14.005 33.161)"/>
          <rect id="Rectangle_2130" data-name="Rectangle 2130" class="cls-23" width="39.791" height="2.947" transform="translate(14.005 44.952)"/>
        </g>
      </g>
      <g id="Group_6442" data-name="Group 6442" transform="translate(1092.846 1274.142)">
        <ellipse id="Ellipse_1307" data-name="Ellipse 1307" class="cls-24" cx="42.219" cy="8.961" rx="42.219" ry="8.961" transform="translate(64.646 203.025)"/>
        <g id="Group_6361" data-name="Group 6361">
          <path id="Path_5736" data-name="Path 5736" class="cls-22" d="M133.243,170.5H86.9l4.827,47.309h36.689Z" transform="translate(-3.537 -7.299)"/>
          <path id="Path_5737" data-name="Path 5737" class="cls-23" d="M164.9,106.166c-18.8-19.815-31.806-7.723-31.5,6.1a1.044,1.044,0,0,0,1.118,1.016c17.986-2.439,18.291-.813,3.557,4.878a1.125,1.125,0,0,0-.711.915c-.1,3.76,1.118,6.808,4.37,8.638a2.94,2.94,0,0,0,3.15,0c13.007-7.52,14.023-6.2,3.049,5.386a1.182,1.182,0,0,0-.2,1.016,6.065,6.065,0,0,0,4.471,4.471.844.844,0,0,0,.813-.2c9.959-6.5,11.076-5.284,4.471,2.439a2.045,2.045,0,0,0-.3,2.134,7.156,7.156,0,0,0,1.524,2.439,2.057,2.057,0,0,0,3.252-.2c4.268-6.2,4.776-5.894,1.219,1.829a1.153,1.153,0,0,0,.406,1.321c3.15,2.134,5.386,4.37,6.1,6.91a1.006,1.006,0,0,0,1.626.508l4.573-3.861a1.892,1.892,0,0,0,.508-2.337s-4.979-8.231-3.455-7.723,5.589,8.333,5.589,8.333a2.125,2.125,0,0,0,1.727.915,4.869,4.869,0,0,0,2.642-.915,1.926,1.926,0,0,0,.508-2.54s-7.926-11.381-6.4-11.889,7.52,10.365,7.52,10.365a2,2,0,0,0,2.032.813,4.6,4.6,0,0,0,2.54-1.728,2.142,2.142,0,0,0,.2-2.642c-11.076-14.735-9.755-15.852.3-5.386a2.057,2.057,0,0,0,3.455-.813,7.071,7.071,0,0,0-.406-4.471,9.262,9.262,0,0,0-3.557-4.573c-8.942-6-8.129-7.52-1.321-3.76a1,1,0,0,0,1.321-1.321C181.262,104.54,170.8,96.919,164.9,106.166Z" transform="translate(-6.107 -6.76)"/>
          <path id="Path_5738" data-name="Path 5738" class="cls-25" d="M109.6,156.7c-.29-38.62,23.654-50.5,23.654-50.5" transform="translate(-4.32 -5.08)"/>
          <path id="Path_5739" data-name="Path 5739" class="cls-26" d="M80.9,71.5s52.812,43.447,25.875,84" transform="translate(-3.33 -3.883)"/>
          <path id="Path_5740" data-name="Path 5740" class="cls-27" d="M9.385,0s-26.068,75.031,8.689,108.491c5.214,5.07,9.848,8.923,13.806,12.167" transform="matrix(0.999, 0.035, -0.035, 0.999, 64.508, 30.438)"/>
          <path id="Path_5741" data-name="Path 5741" class="cls-28" d="M75.55,47.132C64.737,30.236,73.426.016,118.225,14.016c-5.31-18.634,22.3-18.344,46.826,2.7a1,1,0,0,1-.772,1.738c-2.6-.33-10.435.208-8.5,2.36,1.535,1.724,12.971,5.074,16.129,5.074a8.831,8.831,0,0,1,6.952,3.379l4.634,6.083a2.88,2.88,0,0,1-3.09,4.538c-6.758-1.931-8.014,4.827,2.8,5.021a.928.928,0,0,1,.869.579c2.607,5.31.676,8.4-2.124,11.1a2.034,2.034,0,0,1-2.317.29c-14.579-9.365-15.544-7.917-1.738,2.8a3.743,3.743,0,0,1,1.448,2.51,4.771,4.771,0,0,1-1.834,4.827,3.786,3.786,0,0,1-4.248.1l-8.014-4.924c-.29-.193-.579.193-.386.483l5.5,4.924a2.932,2.932,0,0,1,.579,3.572c-2.414,4.248-3.765,8.014-3.959,11.2a1.019,1.019,0,0,1-1.641.676c-2.8-2.607-7.724-4.538-14.869-5.889a1.949,1.949,0,0,1-1.545-1.834c-.579-11.972-2.221-12.069-3.862.676-3.283,2.8-6.855,2.124-10.62-1.931-1.182-2.423,1.4-18.372,0-19.593-.352-.537-3.537,10.253-6.758,16.7-4.055,1.834-7.82.869-11.489-1.448a3.028,3.028,0,0,1-1.159-3.572c11.3-27.71-5.7-3.669-10.524-1.738A23.793,23.793,0,0,1,89.55,59.1a4.955,4.955,0,0,1-.772-6.758c16.124-20.275,14.1-22.689-10.427-4.731A1.914,1.914,0,0,1,75.55,47.132Z" transform="translate(-1.069 -0.466)"/>
          <path id="Path_5742" data-name="Path 5742" class="cls-29" d="M36.128,69.859a.965.965,0,0,0,1.545.29c17.862-16.124,28.1-15.351,36.689-5.889a20.46,20.46,0,0,1,4.924,14.386.912.912,0,0,1-1.062.869C53.8,76.134,52.831,79.32,70.21,85.4a3.933,3.933,0,0,1,2.51,4.731,23.355,23.355,0,0,1-4.827,8.4,3.868,3.868,0,0,1-4.924.869c-18.441-11.007-19.793-9.269-5.117,5.5a3.811,3.811,0,0,1,.483,4.827,8.733,8.733,0,0,1-4.538,3.379,2.918,2.918,0,0,1-2.8-.483c-10.62-8.689-11.779-7.627-4.345,2.9a3.035,3.035,0,0,1,.483,2.028,7,7,0,0,1-5.021,6.372.971.971,0,0,1-1.062-.483c-4.345-7.531-5.117-7.241-1.931,2.221a1.832,1.832,0,0,1-.676,2.124c-3.959,2.993-6.179,5.889-7.145,8.689a.908.908,0,0,1-1.641.29,28.575,28.575,0,0,0-9.172-7.434c-.29-.193-.1-.676.1-.965,1.159-1.545,4.827-6.952,4.731-9.751-.193-2.8-5.021,6.372-6.469,9.365a2.015,2.015,0,0,1-1.545,1.062,4,4,0,0,1-4.441-2.9,1.8,1.8,0,0,1,.386-1.834c2.317-2.7,10.041-11.682,10.91-16.606.965-5.793-12.165,15.544-12.165,15.544a2.776,2.776,0,0,1-3.669.869,9.677,9.677,0,0,1-4.731-5.407,3.778,3.778,0,0,1,.772-3.862s11.489-10.427,12.551-14c1.448-4.634-2.221-2.028-2.414-1.738L2.916,112.63a.932.932,0,0,1-1.545-.386,15.691,15.691,0,0,1-.483-8.3,9.078,9.078,0,0,1,3.765-5.793c11.972-7.917,11.2-9.365,2.124-5.7A.981.981,0,0,1,5.523,91.2C11.7,73.914,29.177,55.28,36.128,69.859Z" transform="translate(-0.557 -3.4)"/>
          <path id="Path_5743" data-name="Path 5743" class="cls-8" d="M87.472,175.648l-.728-5.14h46.543Z" transform="translate(-3.531 -7.299)"/>
          <rect id="Rectangle_2922" data-name="Rectangle 2922" class="cls-22" width="54.067" height="11.586" transform="translate(79.501 151.615)"/>
        </g>
        <path id="Path_5744" data-name="Path 5744" class="cls-30" d="M-18081.51-17488.6s33.518,21.213,43.117,61.158" transform="translate(18200.738 17503.469)"/>
        <path id="Path_5745" data-name="Path 5745" class="cls-30" d="M-18040.131-17398.771s5.777,19.363,5.334,39.188" transform="translate(18199.311 17500.367)"/>
        <path id="Path_5746" data-name="Path 5746" class="cls-30" d="M-18072.037-17476.049s3.951,15.807-3.262,27.975" transform="translate(18200.523 17503.035)"/>
        <path id="Path_5747" data-name="Path 5747" class="cls-30" d="M0,0S9.223,2.972,15.8,3.559c9.794.875,19.1-.46,21.083-.454" transform="translate(135.806 24.719) rotate(8)"/>
        <path id="Path_5748" data-name="Path 5748" class="cls-30" d="M-18058.24-17460.713s1.627,12.213-2.283,21.768" transform="translate(18200.01 17502.504)"/>
        <path id="Path_5749" data-name="Path 5749" class="cls-30" d="M-18082.092-17482.193s-6.705,17.041-16.334,23.922" transform="translate(18201.318 17503.248)"/>
        <path id="Path_5750" data-name="Path 5750" class="cls-30" d="M-18075.3-17489.867s13.189-4.789,25.818,0" transform="translate(18200.523 17503.586)"/>
        <path id="Path_5751" data-name="Path 5751" class="cls-30" d="M-18093.684-17486.1s-17.266,1.363-28.559,16.133" transform="translate(18202.143 17503.381)"/>
        <path id="Path_5752" data-name="Path 5752" class="cls-30" d="M-18040.373-17386.791s1.461,4.5-6.789,9.389" transform="translate(18199.553 17499.953)"/>
        <path id="Path_5753" data-name="Path 5753" class="cls-30" d="M-18034.582-17389.57c.637.779,3.453,4.3,6.439,5.844" transform="translate(18199.119 17494.334)"/>
        <path id="Path_5754" data-name="Path 5754" class="cls-30" d="M-18033.926-17381.336a17.758,17.758,0,0,0,5.586,6.4" transform="translate(18200.238 17496.334)"/>
        <path id="Path_5755" data-name="Path 5755" class="cls-30" d="M-18042.717-17396.039a15.051,15.051,0,0,1-10.518,6.141" transform="translate(18199.762 17500.271)"/>
      </g>
    </g>
    <path id="Path_5940" data-name="Path 5940" class="cls-31" d="M43.772,214.013c-18.744-22.543,11.979-77.161-29.688-110.461S36.833,47.052,33.131-1.512,131.346,61.157,95,143.393c-9.451,21.381,13.08,80.243,7.4,90.751C86.865,262.884,62.516,236.556,43.772,214.013Z" transform="translate(628.039 444.529) rotate(-83)"/>
  </g>
</svg>
