<?xml version="1.0" encoding="utf-8"?>
<!-- Generator: Adobe Illustrator 22.0.1, SVG Export Plug-In . SVG Version: 6.00 Build 0)  -->
<svg version="1.1" id="Layer_1" xmlns="http://www.w3.org/2000/svg" xmlns:xlink="http://www.w3.org/1999/xlink" x="0px" y="0px"
	 viewBox="0 0 169 150" style="enable-background:new 0 0 169 150;" xml:space="preserve">
<style type="text/css">
	.st0{fill:#C6E6FF;}
	.st1{fill:#164571;}
	.st2{fill:#0E71BB;}
	.st3{fill:#005B9F;}
	.st4{fill:#21E2E2;}
	.st5{fill:#FFBC98;}
	.st6{fill:#52ACEA;}
	.st7{fill:none;stroke:#21E2E2;stroke-width:2;}
	.st8{fill:none;stroke:#288ED9;stroke-width:2;}
	.st9{fill:#D6EEFF;}
	.st10{fill:#1D8AB6;}
</style>
<g id="Group_8506" transform="translate(-187.355 -2710.551)">
	<g id="Group_5816" transform="translate(-332 1454)">
		<path id="Path_3781" class="st0" d="M597.4,1273c29.1,10.7,50.8,17.4,50.8,17.4s45.1,2.9,32.6,38.8
			c-12.4,35.8-30.4,75.6-67.5,66.1s-61.2-15.7-83-36.2c-12.2-11.5-4.1-49,5.6-68.7C543.2,1275.4,552,1256.6,597.4,1273z"/>
	</g>
	<g id="Group_8437" transform="translate(-555)">
		<rect id="Rectangle_3498_1_" x="777" y="2761.3" class="st1" width="101.3" height="53.2"/>
		<g id="Group_8435_1_" transform="translate(560 -407)">
			<g id="Group_5865" transform="translate(237 3263.773) rotate(-90)">
				<g id="Group_5793" transform="translate(0 0)">
					<g id="Group_5744" transform="translate(41.774 0) rotate(90)">
						<path id="Path_3764" class="st2" d="M-22.3-44.1H82.8c2.1,0,3.7,1.6,3.8,3.7v23.5c0,2.1-1.7,3.7-3.8,3.7H-22.3
							c-2.1,0-3.7-1.6-3.8-3.7v-23.5C-26-42.5-24.4-44.1-22.3-44.1z"/>
						<path id="Rectangle_1631" class="st3" d="M-23.7-44.1H8.2l0,0v30.9l0,0h-31.9c-1.6,0-3-1.3-3-3v-25
							C-26.6-42.8-25.3-44.1-23.7-44.1z"/>
						<g id="Group_5597" transform="translate(11.511 15.776)">
							<path id="Rectangle_1425" class="st4" d="M-26-48.2L-26-48.2c2,0,3.6,1.6,3.6,3.6v0.3c0,2-1.6,3.6-3.6,3.6l0,0
								c-2,0-3.6-1.6-3.6-3.6v-0.3C-29.6-46.6-28-48.2-26-48.2z"/>
							<path id="Rectangle_1442" class="st5" d="M-15.6-48.2L-15.6-48.2c2,0,3.6,1.6,3.6,3.6v0.3c0,2-1.6,3.6-3.6,3.6l0,0
								c-2,0-3.6-1.6-3.6-3.6v-0.3C-19.2-46.6-17.5-48.2-15.6-48.2z"/>
						</g>
						<g id="Group_5710" transform="translate(58.996 11.001)">
							<g id="Group_5584" transform="translate(0 0)">
								<path id="Rectangle_1405" class="st6" d="M-39.5-47L-39.5-47c1.3,0,2.4,1.1,2.4,2.4l0,0c0,1.3-1.1,2.4-2.4,2.4l0,0
									c-1.3,0-2.4-1.1-2.4-2.4l0,0C-42-45.9-40.9-47-39.5-47z"/>
								<path id="Rectangle_1424" class="st6" d="M-33.7-37.2L-33.7-37.2c1.3,0,2.4,1.1,2.4,2.4l0,0c0,1.3-1.1,2.4-2.4,2.4l0,0
									c-1.3,0-2.4-1.1-2.4-2.4l0,0C-36.1-36.2-35.1-37.2-33.7-37.2z"/>
								<path id="Rectangle_1410" class="st6" d="M9.1-47L9.1-47c1.3,0,2.4,1.1,2.4,2.4l0,0c0,1.3-1.1,2.4-2.4,2.4l0,0
									c-1.3,0-2.4-1.1-2.4-2.4l0,0C6.6-45.9,7.7-47,9.1-47z"/>
								<path id="Rectangle_1419" class="st6" d="M14.9-37.2L14.9-37.2c1.3,0,2.4,1.1,2.4,2.4l0,0c0,1.3-1.1,2.4-2.4,2.4l0,0
									c-1.3,0-2.4-1.1-2.4-2.4l0,0C12.5-36.2,13.5-37.2,14.9-37.2z"/>
								<path id="Rectangle_1406" class="st6" d="M-29.8-47L-29.8-47c1.3,0,2.4,1.1,2.4,2.4l0,0c0,1.3-1.1,2.4-2.4,2.4l0,0
									c-1.3,0-2.4-1.1-2.4-2.4l0,0C-32.3-45.9-31.2-47-29.8-47z"/>
								<path id="Rectangle_1423" class="st6" d="M-24-37.2L-24-37.2c1.3,0,2.4,1.1,2.4,2.4l0,0c0,1.3-1.1,2.4-2.4,2.4l0,0
									c-1.3,0-2.4-1.1-2.4-2.4l0,0C-26.4-36.2-25.3-37.2-24-37.2z"/>
								<path id="Rectangle_1407" class="st6" d="M-20.1-47L-20.1-47c1.3,0,2.4,1.1,2.4,2.4l0,0c0,1.3-1.1,2.4-2.4,2.4l0,0
									c-1.3,0-2.4-1.1-2.4-2.4l0,0C-22.5-45.9-21.4-47-20.1-47z"/>
								<path id="Rectangle_1422" class="st6" d="M-14.3-37.2L-14.3-37.2c1.3,0,2.4,1.1,2.4,2.4l0,0c0,1.3-1.1,2.4-2.4,2.4l0,0
									c-1.3,0-2.4-1.1-2.4-2.4l0,0C-16.7-36.2-15.6-37.2-14.3-37.2z"/>
								<path id="Rectangle_1408" class="st6" d="M-10.4-47L-10.4-47C-9-47-8-45.9-8-44.5l0,0c0,1.3-1.1,2.4-2.4,2.4l0,0
									c-1.3,0-2.4-1.1-2.4-2.4l0,0C-12.8-45.9-11.7-47-10.4-47z"/>
								<path id="Rectangle_1421" class="st6" d="M-4.6-37.2L-4.6-37.2c1.3,0,2.4,1.1,2.4,2.4l0,0c0,1.3-1.1,2.4-2.4,2.4l0,0
									c-1.3,0-2.4-1.1-2.4-2.4l0,0C-7-36.2-5.9-37.2-4.6-37.2z"/>
								<path id="Rectangle_1409" class="st6" d="M-0.7-47L-0.7-47c1.3,0,2.4,1.1,2.4,2.4l0,0c0,1.3-1.1,2.4-2.4,2.4l0,0
									c-1.3,0-2.4-1.1-2.4-2.4l0,0C-3.1-45.9-2-47-0.7-47z"/>
								<path id="Rectangle_1420" class="st6" d="M5.2-37.2L5.2-37.2c1.3,0,2.4,1.1,2.4,2.4l0,0c0,1.3-1.1,2.4-2.4,2.4l0,0
									c-1.3,0-2.4-1.1-2.4-2.4l0,0C2.7-36.2,3.8-37.2,5.2-37.2z"/>
							</g>
						</g>
					</g>
				</g>
			</g>
			<g id="Group_5866" transform="translate(237 3311.043) rotate(-90)">
				<g id="Group_5793-2" transform="translate(0 0)">
					<g id="Group_5744-2" transform="translate(41.774 0) rotate(90)">
						<path id="Path_3764-2" class="st2" d="M-22.3-56.4H82.8c2.1,0,3.7,1.6,3.8,3.7v23.5c0,2.1-1.7,3.7-3.8,3.7H-22.3
							c-2.1,0-3.7-1.6-3.8-3.7v-23.5C-26-54.8-24.4-56.4-22.3-56.4z"/>
						<path id="Rectangle_1631-2" class="st3" d="M-23.7-56.4H8.2l0,0v30.9l0,0h-31.9c-1.6,0-3-1.3-3-3v-25
							C-26.6-55.1-25.3-56.4-23.7-56.4z"/>
						<g id="Group_5597-2" transform="translate(11.511 15.776)">
							<path id="Rectangle_1425-2" class="st4" d="M-26-60.5L-26-60.5c2,0,3.6,1.6,3.6,3.6v0.3c0,2-1.6,3.6-3.6,3.6l0,0
								c-2,0-3.6-1.6-3.6-3.6v-0.3C-29.6-58.9-28-60.5-26-60.5z"/>
							<path id="Rectangle_1442-2" class="st5" d="M-15.6-60.5L-15.6-60.5c2,0,3.6,1.6,3.6,3.6v0.3c0,2-1.6,3.6-3.6,3.6l0,0
								c-2,0-3.6-1.6-3.6-3.6v-0.3C-19.2-58.9-17.5-60.5-15.6-60.5z"/>
						</g>
						<g id="Group_5710-2" transform="translate(58.996 11.001)">
							<g id="Group_5584-2" transform="translate(0 0)">
								<path id="Rectangle_1405-2" class="st6" d="M-39.5-59.3L-39.5-59.3c1.3,0,2.4,1.1,2.4,2.4l0,0c0,1.3-1.1,2.4-2.4,2.4l0,0
									c-1.3,0-2.4-1.1-2.4-2.4l0,0C-42-58.2-40.9-59.3-39.5-59.3z"/>
								<path id="Rectangle_1424-2" class="st6" d="M-33.7-49.6L-33.7-49.6c1.3,0,2.4,1.1,2.4,2.4l0,0c0,1.3-1.1,2.4-2.4,2.4l0,0
									c-1.3,0-2.4-1.1-2.4-2.4l0,0C-36.1-48.5-35.1-49.6-33.7-49.6z"/>
								<path id="Rectangle_1410-2" class="st6" d="M9.1-59.3L9.1-59.3c1.3,0,2.4,1.1,2.4,2.4l0,0c0,1.3-1.1,2.4-2.4,2.4l0,0
									c-1.3,0-2.4-1.1-2.4-2.4l0,0C6.6-58.2,7.7-59.3,9.1-59.3z"/>
								<path id="Rectangle_1419-2" class="st6" d="M14.9-49.6L14.9-49.6c1.3,0,2.4,1.1,2.4,2.4l0,0c0,1.3-1.1,2.4-2.4,2.4l0,0
									c-1.3,0-2.4-1.1-2.4-2.4l0,0C12.5-48.5,13.5-49.6,14.9-49.6z"/>
								<path id="Rectangle_1406-2" class="st6" d="M-29.8-59.3L-29.8-59.3c1.3,0,2.4,1.1,2.4,2.4l0,0c0,1.3-1.1,2.4-2.4,2.4l0,0
									c-1.3,0-2.4-1.1-2.4-2.4l0,0C-32.3-58.2-31.2-59.3-29.8-59.3z"/>
								<path id="Rectangle_1423-2" class="st6" d="M-24-49.6L-24-49.6c1.3,0,2.4,1.1,2.4,2.4l0,0c0,1.3-1.1,2.4-2.4,2.4l0,0
									c-1.3,0-2.4-1.1-2.4-2.4l0,0C-26.4-48.5-25.3-49.6-24-49.6z"/>
								<path id="Rectangle_1407-2" class="st6" d="M-20.1-59.3L-20.1-59.3c1.3,0,2.4,1.1,2.4,2.4l0,0c0,1.3-1.1,2.4-2.4,2.4l0,0
									c-1.3,0-2.4-1.1-2.4-2.4l0,0C-22.5-58.2-21.4-59.3-20.1-59.3z"/>
								<path id="Rectangle_1422-2" class="st6" d="M-14.3-49.6L-14.3-49.6c1.3,0,2.4,1.1,2.4,2.4l0,0c0,1.3-1.1,2.4-2.4,2.4l0,0
									c-1.3,0-2.4-1.1-2.4-2.4l0,0C-16.7-48.5-15.6-49.6-14.3-49.6z"/>
								<path id="Rectangle_1408-2" class="st6" d="M-10.4-59.3L-10.4-59.3c1.3,0,2.4,1.1,2.4,2.4l0,0c0,1.3-1.1,2.4-2.4,2.4l0,0
									c-1.3,0-2.4-1.1-2.4-2.4l0,0C-12.8-58.2-11.7-59.3-10.4-59.3z"/>
								<path id="Rectangle_1421-2" class="st6" d="M-4.6-49.6L-4.6-49.6c1.3,0,2.4,1.1,2.4,2.4l0,0c0,1.3-1.1,2.4-2.4,2.4l0,0
									c-1.3,0-2.4-1.1-2.4-2.4l0,0C-7-48.5-5.9-49.6-4.6-49.6z"/>
								<path id="Rectangle_1409-2" class="st6" d="M-0.7-59.3L-0.7-59.3c1.3,0,2.4,1.1,2.4,2.4l0,0c0,1.3-1.1,2.4-2.4,2.4l0,0
									c-1.3,0-2.4-1.1-2.4-2.4l0,0C-3.1-58.2-2-59.3-0.7-59.3z"/>
								<path id="Rectangle_1420-2" class="st6" d="M5.2-49.6L5.2-49.6c1.3,0,2.4,1.1,2.4,2.4l0,0c0,1.3-1.1,2.4-2.4,2.4l0,0
									c-1.3,0-2.4-1.1-2.4-2.4l0,0C2.7-48.5,3.8-49.6,5.2-49.6z"/>
							</g>
						</g>
					</g>
				</g>
			</g>
			<g id="Group_5894" transform="translate(237 3216.773) rotate(-90)">
				<g id="Group_5793-3" transform="translate(0 0)">
					<g id="Group_5744-3" transform="translate(41.774 0) rotate(90)">
						<path id="Path_3764-3" class="st2" d="M-22.3-31.9H82.8c2.1,0,3.7,1.6,3.8,3.7v23.5c0,2.1-1.7,3.7-3.8,3.7H-22.3
							c-2.1,0-3.7-1.6-3.8-3.7v-23.5C-26-30.2-24.4-31.9-22.3-31.9z"/>
						<path id="Rectangle_1631-3" class="st3" d="M-23.7-31.9H8.2l0,0V-1l0,0h-31.9c-1.6,0-3-1.3-3-3v-25
							C-26.6-30.5-25.3-31.9-23.7-31.9z"/>
						<g id="Group_5597-3" transform="translate(11.511 15.776)">
							<path id="Rectangle_1425-3" class="st4" d="M-26-36L-26-36c2,0,3.6,1.6,3.6,3.6v0.3c0,2-1.6,3.6-3.6,3.6l0,0
								c-2,0-3.6-1.6-3.6-3.6v-0.3C-29.6-34.4-28-36-26-36z"/>
							<path id="Rectangle_1442-3" class="st5" d="M-15.6-36L-15.6-36c2,0,3.6,1.6,3.6,3.6v0.3c0,2-1.6,3.6-3.6,3.6l0,0
								c-2,0-3.6-1.6-3.6-3.6v-0.3C-19.2-34.4-17.5-36-15.6-36z"/>
						</g>
						<g id="Group_5710-3" transform="translate(58.996 11.001)">
							<g id="Group_5584-3" transform="translate(0 0)">
								<path id="Rectangle_1405-3" class="st6" d="M-39.5-34.7L-39.5-34.7c1.3,0,2.4,1.1,2.4,2.4l0,0c0,1.3-1.1,2.4-2.4,2.4l0,0
									c-1.3,0-2.4-1.1-2.4-2.4l0,0C-42-33.6-40.9-34.7-39.5-34.7z"/>
								<path id="Rectangle_1424-3" class="st6" d="M-33.7-25L-33.7-25c1.3,0,2.4,1.1,2.4,2.4l0,0c0,1.3-1.1,2.4-2.4,2.4l0,0
									c-1.3,0-2.4-1.1-2.4-2.4l0,0C-36.1-23.9-35.1-25-33.7-25z"/>
								<path id="Rectangle_1410-3" class="st6" d="M9.1-34.7L9.1-34.7c1.3,0,2.4,1.1,2.4,2.4l0,0c0,1.3-1.1,2.4-2.4,2.4l0,0
									c-1.3,0-2.4-1.1-2.4-2.4l0,0C6.6-33.6,7.7-34.7,9.1-34.7z"/>
								<path id="Rectangle_1419-3" class="st6" d="M14.9-25L14.9-25c1.3,0,2.4,1.1,2.4,2.4l0,0c0,1.3-1.1,2.4-2.4,2.4l0,0
									c-1.3,0-2.4-1.1-2.4-2.4l0,0C12.5-23.9,13.5-25,14.9-25z"/>
								<path id="Rectangle_1406-3" class="st6" d="M-29.8-34.7L-29.8-34.7c1.3,0,2.4,1.1,2.4,2.4l0,0c0,1.3-1.1,2.4-2.4,2.4l0,0
									c-1.3,0-2.4-1.1-2.4-2.4l0,0C-32.3-33.6-31.2-34.7-29.8-34.7z"/>
								<path id="Rectangle_1423-3" class="st6" d="M-24-25L-24-25c1.3,0,2.4,1.1,2.4,2.4l0,0c0,1.3-1.1,2.4-2.4,2.4l0,0
									c-1.3,0-2.4-1.1-2.4-2.4l0,0C-26.4-23.9-25.3-25-24-25z"/>
								<path id="Rectangle_1407-3" class="st6" d="M-20.1-34.7L-20.1-34.7c1.3,0,2.4,1.1,2.4,2.4l0,0c0,1.3-1.1,2.4-2.4,2.4l0,0
									c-1.3,0-2.4-1.1-2.4-2.4l0,0C-22.5-33.6-21.4-34.7-20.1-34.7z"/>
								<path id="Rectangle_1422-3" class="st6" d="M-14.3-25L-14.3-25c1.3,0,2.4,1.1,2.4,2.4l0,0c0,1.3-1.1,2.4-2.4,2.4l0,0
									c-1.3,0-2.4-1.1-2.4-2.4l0,0C-16.7-23.9-15.6-25-14.3-25z"/>
								<path id="Rectangle_1408-3" class="st6" d="M-10.4-34.7L-10.4-34.7c1.3,0,2.4,1.1,2.4,2.4l0,0c0,1.3-1.1,2.4-2.4,2.4l0,0
									c-1.3,0-2.4-1.1-2.4-2.4l0,0C-12.8-33.6-11.7-34.7-10.4-34.7z"/>
								<path id="Rectangle_1421-3" class="st6" d="M-4.6-25L-4.6-25c1.3,0,2.4,1.1,2.4,2.4l0,0c0,1.3-1.1,2.4-2.4,2.4l0,0
									c-1.3,0-2.4-1.1-2.4-2.4l0,0C-7-23.9-5.9-25-4.6-25z"/>
								<path id="Rectangle_1409-3" class="st6" d="M-0.7-34.7L-0.7-34.7c1.3,0,2.4,1.1,2.4,2.4l0,0c0,1.3-1.1,2.4-2.4,2.4l0,0
									c-1.3,0-2.4-1.1-2.4-2.4l0,0C-3.1-33.6-2-34.7-0.7-34.7z"/>
								<path id="Rectangle_1420-3" class="st6" d="M5.2-25L5.2-25c1.3,0,2.4,1.1,2.4,2.4l0,0c0,1.3-1.1,2.4-2.4,2.4l0,0
									c-1.3,0-2.4-1.1-2.4-2.4l0,0C2.7-23.9,3.8-25,5.2-25z"/>
							</g>
						</g>
					</g>
				</g>
			</g>
		</g>
	</g>
	<g id="video" transform="translate(-527 1676.77)">
		<g id="Rectangle_3014" transform="translate(823.995 1146.995)">
			<path class="st4" d="M-38.7-46.4h78.4c1.2,0,2.2,1,2.2,2.2v55.6c0,1.2-1,2.2-2.2,2.2h-78.4c-1.2,0-2.2-1-2.2-2.2v-55.6
				C-40.9-45.4-39.9-46.4-38.7-46.4z"/>
			<path class="st7" d="M-38.7-45.6h78.4c0.8,0,1.5,0.7,1.5,1.5v55.6c0,0.8-0.7,1.5-1.5,1.5h-78.4c-0.8,0-1.5-0.7-1.5-1.5v-55.6
				C-40.2-45-39.5-45.6-38.7-45.6z"/>
		</g>
		<path id="Rectangle_3422" class="st1" d="M785.3,1100.6h78.4c1.2,0,2.2,1,2.2,2.2v10.5l0,0H783l0,0v-10.5
			C783,1101.6,784,1100.6,785.3,1100.6z"/>
		<path id="Path_4920" class="st8" d="M864.4,1113.4"/>
		<circle id="Ellipse_1153" class="st5" cx="790.2" cy="1107.1" r="1.4"/>
		<circle id="Ellipse_1154" class="st9" cx="794.4" cy="1107.1" r="1.4"/>
		<circle id="Ellipse_1155" class="st4" cx="798.7" cy="1107.1" r="1.4"/>
		<rect id="Rectangle_3421" x="793.7" y="1147.5" class="st10" width="61.9" height="3"/>
	</g>
	<g id="Group_8445" transform="translate(58 1716.838)">
		<path id="Path_6310" class="st10" d="M246.1,1090.9l-12.5-7.2c-0.5-0.3-1.1-0.1-1.4,0.4c-0.1,0.2-0.1,0.3-0.1,0.5v14.4
			c0,0.6,0.5,1,1,1c0.2,0,0.4-0.1,0.5-0.1l12.5-7.2c0.5-0.3,0.6-0.9,0.4-1.3C246.4,1091.1,246.3,1091,246.1,1090.9z"/>
	</g>
	<circle id="Ellipse_1515" class="st10" cx="277.9" cy="2825.4" r="4.2"/>
</g>
</svg>
