<svg xmlns="http://www.w3.org/2000/svg" xmlns:xlink="http://www.w3.org/1999/xlink" viewBox="0 0 1080 1080"><defs><style>.cls-1,.cls-15,.cls-20,.cls-21,.cls-22,.cls-24,.cls-29,.cls-30{isolation:isolate;}.cls-2{fill:url(#linear-gradient);}.cls-3{fill:#137fcf;}.cls-4{fill:#288ed9;}.cls-11,.cls-29,.cls-30,.cls-37,.cls-39,.cls-5,.cls-6,.cls-9{fill:none;}.cls-6,.cls-9{stroke:#288ed9;}.cls-29,.cls-30,.cls-6{stroke-width:1.45px;}.cls-7{fill:url(#linear-gradient-2);}.cls-8{fill:url(#linear-gradient-3);}.cls-11,.cls-9{stroke-linecap:round;stroke-miterlimit:10;stroke-width:5.82px;}.cls-10{fill:#005b9f;}.cls-11{stroke:#014374;}.cls-12{fill:#003c69;}.cls-13{fill:url(#linear-gradient-4);}.cls-14,.cls-24{fill:#004b83;}.cls-15,.cls-35{fill:#0e71bb;}.cls-15{opacity:0.19;}.cls-16{fill:#ffbc98;}.cls-17{fill:#d6eeff;}.cls-18{fill:#21e2e2;}.cls-19{fill:#ffb68f;}.cls-20{opacity:0.03;fill:url(#linear-gradient-5);}.cls-21{opacity:0.05;fill:url(#linear-gradient-6);}.cls-22{opacity:0.1;fill:url(#linear-gradient-7);}.cls-23{fill:url(#linear-gradient-8);}.cls-24{opacity:0.86;}.cls-25{fill:url(#linear-gradient-9);}.cls-26{fill:url(#linear-gradient-10);}.cls-27{fill:#fff;}.cls-28{fill:url(#linear-gradient-11);}.cls-29{stroke:#f7f7f7;}.cls-29,.cls-30{opacity:0.23;}.cls-30{stroke:#fff;}.cls-31{opacity:0.5;mix-blend-mode:multiply;}.cls-32{fill:#606060;}.cls-33{fill:#1f364c;}.cls-34{fill:#ff6c2c;}.cls-36{fill:#52acea;}.cls-37{stroke:#ffbc98;}.cls-37,.cls-39{stroke-width:1.94px;}.cls-38{fill:#80c9ff;}.cls-39{stroke:#21e2e2;}</style><linearGradient id="linear-gradient" x1="4028.67" y1="3089.79" x2="4028.65" y2="3091.64" gradientTransform="matrix(740.56, 0, 0, -612.51, -2982942.85, 1893776.45)" gradientUnits="userSpaceOnUse"><stop offset="0" stop-color="#c6e6ff"/><stop offset="1" stop-color="#fff"/></linearGradient><linearGradient id="linear-gradient-2" x1="4025.18" y1="3124.49" x2="4025.18" y2="3121.58" gradientTransform="matrix(447, 0, 0, -64, -1798714.83, 200770.18)" gradientUnits="userSpaceOnUse"><stop offset="0" stop-color="#288ed9"/><stop offset="1" stop-color="#137fcf" stop-opacity="0.05"/></linearGradient><linearGradient id="linear-gradient-3" x1="4025.57" y1="3122.99" x2="4025.57" y2="3121.08" xlink:href="#linear-gradient-2"/><linearGradient id="linear-gradient-4" x1="3959.85" y1="3092.31" x2="3961.31" y2="3092.31" gradientTransform="matrix(53, 0, 0, -441, -209249.34, 1364322.85)" gradientUnits="userSpaceOnUse"><stop offset="0" stop-color="#0563a8"/><stop offset="1" stop-color="#0061aa"/></linearGradient><linearGradient id="linear-gradient-5" x1="4014.8" y1="3095.83" x2="4014.8" y2="3094.38" gradientTransform="matrix(204.44, 0, 0, -293.33, -820201.68, 908417.68)" gradientUnits="userSpaceOnUse"><stop offset="0" stop-color="#f7f7f7"/><stop offset="1" stop-color="#fff" stop-opacity="0"/></linearGradient><linearGradient id="linear-gradient-6" x1="4016.37" y1="3096.32" x2="4016.37" y2="3094.86" gradientTransform="matrix(223.06, 0, 0, -277.34, -895323.71, 859052.52)" xlink:href="#linear-gradient-5"/><linearGradient id="linear-gradient-7" x1="4013.5" y1="3099.85" x2="4013.5" y2="3098.39" gradientTransform="matrix(191.43, 0, 0, -198.45, -767732.83, 615465.59)" xlink:href="#linear-gradient-5"/><linearGradient id="linear-gradient-8" x1="4017.13" y1="3092.43" x2="4017.13" y2="3090.94" gradientTransform="matrix(233.23, 0, 0, -502, -936382.76, 1552615.82)" gradientUnits="userSpaceOnUse"><stop offset="0" stop-color="#1882d1"/><stop offset="1" stop-color="#0d70b9"/></linearGradient><linearGradient id="linear-gradient-9" x1="3967.55" y1="3095.86" x2="3968.32" y2="3094.31" gradientTransform="matrix(71.35, 13.87, 33.23, -170.93, -385788.28, 474797.49)" gradientUnits="userSpaceOnUse"><stop offset="0" stop-color="#50abef"/><stop offset="1" stop-color="#1175bf"/></linearGradient><linearGradient id="linear-gradient-10" x1="3981.3" y1="3101.77" x2="3979.93" y2="3100.47" gradientTransform="matrix(83.03, 0, 0, -162.7, -330302.71, 505392.96)" gradientUnits="userSpaceOnUse"><stop offset="0" stop-color="#ffbc98"/><stop offset="1" stop-color="#ff945a"/></linearGradient><linearGradient id="linear-gradient-11" x1="3967.95" y1="3119.51" x2="3969.26" y2="3119.5" gradientTransform="matrix(67.91, 0, 0, -69.54, -269359.35, 217879.33)" gradientUnits="userSpaceOnUse"><stop offset="0" stop-color="#21e2e2"/><stop offset="1" stop-color="#19dbdb"/></linearGradient></defs><g class="cls-1"><g id="Layer_1" data-name="Layer 1"><g id="Group_9296" data-name="Group 9296"><path id="Path_5630" data-name="Path 5630" class="cls-2" d="M541.59,279.61c176.13,112.39,377.8,163,377.8,163s222.08,33.72,140.39,286.59-92.34,343.43-220.37,349.9c-121.42,3.46-189.62-46.65-309.75-38-105.53,8.13-178.2,55.67-354.52-13.79C-107.42,902.39-86.36-116.56,541.59,279.61Z"/><rect id="Rectangle_2841" data-name="Rectangle 2841" class="cls-3" x="228.79" y="807.23" width="48.06" height="48.06" rx="7.27"/><path id="Path_5631-2" data-name="Path 5631-2" class="cls-4" d="M253.51,820.32A11.63,11.63,0,1,1,241.88,832,11.63,11.63,0,0,1,253.51,820.32Z"/><g id="Ellipse_1270" data-name="Ellipse 1270"><circle class="cls-5" cx="253.51" cy="831.95" r="15.99"/><circle class="cls-6" cx="253.51" cy="831.95" r="15.27"/></g><ellipse id="Ellipse_1271" data-name="Ellipse 1271" class="cls-7" cx="539.21" cy="942.45" rx="324.96" ry="46.53"/><ellipse id="Ellipse_1271-2" data-name="Ellipse 1271" class="cls-8" cx="714.42" cy="990.49" rx="213.45" ry="30.56"/><path id="Path_5634" data-name="Path 5634" class="cls-9" d="M409.52,782.51H320.76c-12.05,0-17.62,6.62-17.4,18.42,0,3.07.22,52.13.22,61.57,0,11.57-7.13,15.12-19.18,15.12,0,0-7.89-.21-16.8-.21s-14.53-6-14.53-12.69V842.66"/><rect id="Rectangle_2842" data-name="Rectangle 2842" class="cls-10" x="340.75" y="217.18" width="373.67" height="748.53" rx="29.08"/><g id="Group_6080" data-name="Group 6080"><path id="Path_3440" data-name="Path 3440" class="cls-11" d="M531.16,279.5v49.76c0,10.49-5.44,15.35-15.15,15.15-2.33-.19-6.8-.19-14.57-.19-9.52,0-12.43,6.21-12.43,16.71v4.66"/><path id="Path_3441" data-name="Path 3441" class="cls-11" d="M546.7,294.1v21.38c0,10.48-5.44,15.34-15.15,15.15H517c-9.52,0-12.43,6.21-12.43,16.7v18.26"/><path id="Path_3442" data-name="Path 3442" class="cls-11" d="M505.33,278.76v36.9c0,10.49-5.44,15.35-15.15,15.16-2.53,0-7-.2-14.77-.2-9.52,0-12.43,6.22-12.43,16.71v18.26"/><path id="Path_3444" data-name="Path 3444" class="cls-11" d="M417.91,272.74H516.2c10.49,0,15.35,5.43,15.15,15.15,0,2.52-.19,7-.19,14.76"/><path id="Path_3445" data-name="Path 3445" class="cls-11" d="M546.9,299.93c0-7.77,0-12-.2-14.76-.39-9.71,4.47-15.15,15.15-15.15h81"/><path id="Path_3448" data-name="Path 3448" class="cls-11" d="M607.9,269.92V466.49c0,10.49-5.44,15.35-15.15,15.16-2.53,0-7-.2-14.77-.2-9.51,0-12.43,6.22-12.43,16.71v4.66"/><path id="Path_3449" data-name="Path 3449" class="cls-11" d="M593.34,270.09V333.8c0,10.49-5.44,15.35-15.16,15.15-2.52,0-7-.19-14.76-.19-9.52,0-12.43,6.21-12.43,16.7v18.26"/><path id="Path_3450" data-name="Path 3450" class="cls-11" d="M579.15,276.5v245c0,10.48-5.43,15.34-14.95,15.15-2.53,0-7-.2-14.77-.2-9.51,0-12.43,6.22-12.43,16.71V659.53"/></g><g id="Group_6081" data-name="Group 6081"><rect id="Rectangle_1704" data-name="Rectangle 1704" class="cls-12" x="417.81" y="400.12" width="205.01" height="462.36"/><rect id="Rectangle_1705" data-name="Rectangle 1705" class="cls-13" x="622.82" y="295.44" width="77.06" height="641.2"/><g id="Symbol_3_112" data-name="Symbol 3 112"><path id="Path_3418" data-name="Path 3418" class="cls-14" d="M436.08,639.25H637.56a5.19,5.19,0,0,1,5.2,5.19v40.5a5.2,5.2,0,0,1-5.2,5.2H436.08a5.2,5.2,0,0,1-5.19-5.2v-40.5A5.19,5.19,0,0,1,436.08,639.25Z"/><path id="Rectangle_1706" data-name="Rectangle 1706" class="cls-15" d="M436.71,639.19h59.61v50.89H436.71a7.27,7.27,0,0,1-7.27-7.27V646.46A7.26,7.26,0,0,1,436.71,639.19Z"/><rect id="Rectangle_1425" data-name="Rectangle 1425" class="cls-16" x="448.55" y="656.9" width="15.98" height="16.62" rx="7.99"/><path id="Rectangle_1405" data-name="Rectangle 1405" class="cls-17" d="M519.69,656.9h0a2.59,2.59,0,0,1,2.59,2.6h0a2.59,2.59,0,0,1-2.59,2.59h0a2.59,2.59,0,0,1-2.6-2.59h0A2.59,2.59,0,0,1,519.69,656.9Z"/><path id="Rectangle_1424" data-name="Rectangle 1424" class="cls-17" d="M525.92,667.29h0a2.59,2.59,0,0,1,2.59,2.59h0a2.59,2.59,0,0,1-2.59,2.6h0a2.59,2.59,0,0,1-2.6-2.6h0A2.59,2.59,0,0,1,525.92,667.29Z"/><path id="Rectangle_1410" data-name="Rectangle 1410" class="cls-4" d="M571.62,656.9h0a2.59,2.59,0,0,1,2.59,2.6h0a2.59,2.59,0,0,1-2.59,2.59h0a2.59,2.59,0,0,1-2.6-2.59h0A2.59,2.59,0,0,1,571.62,656.9Z"/><path id="Rectangle_1419" data-name="Rectangle 1419" class="cls-4" d="M577.85,667.29h0a2.59,2.59,0,0,1,2.59,2.59h0a2.59,2.59,0,0,1-2.59,2.6h0a2.59,2.59,0,0,1-2.6-2.6h0A2.59,2.59,0,0,1,577.85,667.29Z"/><path id="Rectangle_1406" data-name="Rectangle 1406" class="cls-4" d="M530.07,656.9h0a2.59,2.59,0,0,1,2.6,2.6h0a2.59,2.59,0,0,1-2.6,2.59h0a2.59,2.59,0,0,1-2.59-2.59h0A2.59,2.59,0,0,1,530.07,656.9Z"/><path id="Rectangle_1423" data-name="Rectangle 1423" class="cls-4" d="M536.3,667.29h0a2.59,2.59,0,0,1,2.6,2.59h0a2.59,2.59,0,0,1-2.6,2.6h0a2.59,2.59,0,0,1-2.59-2.6h0A2.59,2.59,0,0,1,536.3,667.29Z"/><path id="Rectangle_1411" data-name="Rectangle 1411" class="cls-4" d="M582,656.9h0a2.6,2.6,0,0,1,2.6,2.6h0a2.6,2.6,0,0,1-2.6,2.59h0a2.6,2.6,0,0,1-2.6-2.59h0A2.6,2.6,0,0,1,582,656.9Z"/><path id="Rectangle_1418" data-name="Rectangle 1418" class="cls-4" d="M588.23,667.29h0a2.59,2.59,0,0,1,2.6,2.59h0a2.59,2.59,0,0,1-2.6,2.6h0a2.59,2.59,0,0,1-2.59-2.6h0A2.59,2.59,0,0,1,588.23,667.29Z"/><path id="Rectangle_1407" data-name="Rectangle 1407" class="cls-4" d="M540.46,656.9h0a2.59,2.59,0,0,1,2.59,2.6h0a2.59,2.59,0,0,1-2.59,2.59h0a2.59,2.59,0,0,1-2.6-2.59h0A2.59,2.59,0,0,1,540.46,656.9Z"/><path id="Rectangle_1422" data-name="Rectangle 1422" class="cls-4" d="M546.69,667.29h0a2.6,2.6,0,0,1,2.6,2.59h0a2.6,2.6,0,0,1-2.6,2.6h0a2.6,2.6,0,0,1-2.6-2.6h0A2.6,2.6,0,0,1,546.69,667.29Z"/><path id="Rectangle_1412" data-name="Rectangle 1412" class="cls-17" d="M592.39,656.9h0a2.59,2.59,0,0,1,2.59,2.6h0a2.59,2.59,0,0,1-2.59,2.59h0a2.59,2.59,0,0,1-2.6-2.59h0A2.59,2.59,0,0,1,592.39,656.9Z"/><path id="Rectangle_1417" data-name="Rectangle 1417" class="cls-17" d="M598.62,667.29h0a2.59,2.59,0,0,1,2.59,2.59h0a2.59,2.59,0,0,1-2.59,2.6h0a2.59,2.59,0,0,1-2.6-2.6h0A2.59,2.59,0,0,1,598.62,667.29Z"/><path id="Rectangle_1408" data-name="Rectangle 1408" class="cls-4" d="M550.84,656.9h0a2.59,2.59,0,0,1,2.6,2.6h0a2.59,2.59,0,0,1-2.6,2.59h0a2.59,2.59,0,0,1-2.59-2.59h0A2.59,2.59,0,0,1,550.84,656.9Z"/><path id="Rectangle_1421" data-name="Rectangle 1421" class="cls-17" d="M557.08,667.29h0a2.59,2.59,0,0,1,2.59,2.59h0a2.59,2.59,0,0,1-2.59,2.6h0a2.59,2.59,0,0,1-2.6-2.6h0A2.59,2.59,0,0,1,557.08,667.29Z"/><path id="Rectangle_1413" data-name="Rectangle 1413" class="cls-4" d="M602.77,656.9h0a2.59,2.59,0,0,1,2.6,2.6h0a2.59,2.59,0,0,1-2.6,2.59h0a2.59,2.59,0,0,1-2.59-2.59h0A2.59,2.59,0,0,1,602.77,656.9Z"/><path id="Rectangle_1416" data-name="Rectangle 1416" class="cls-4" d="M609,667.29h0a2.59,2.59,0,0,1,2.6,2.59h0a2.59,2.59,0,0,1-2.6,2.6h0a2.59,2.59,0,0,1-2.59-2.6h0A2.59,2.59,0,0,1,609,667.29Z"/><path id="Rectangle_1409" data-name="Rectangle 1409" class="cls-4" d="M561.23,656.9h0a2.6,2.6,0,0,1,2.6,2.6h0a2.6,2.6,0,0,1-2.6,2.59h0a2.6,2.6,0,0,1-2.6-2.59h0A2.6,2.6,0,0,1,561.23,656.9Z"/><path id="Rectangle_1420" data-name="Rectangle 1420" class="cls-4" d="M567.46,667.29h0a2.6,2.6,0,0,1,2.6,2.59h0a2.6,2.6,0,0,1-2.6,2.6h0a2.59,2.59,0,0,1-2.59-2.6h0A2.59,2.59,0,0,1,567.46,667.29Z"/><path id="Rectangle_1414" data-name="Rectangle 1414" class="cls-4" d="M613.16,656.9h0a2.59,2.59,0,0,1,2.59,2.6h0a2.59,2.59,0,0,1-2.59,2.59h0a2.59,2.59,0,0,1-2.6-2.59h0A2.59,2.59,0,0,1,613.16,656.9Z"/><path id="Rectangle_1415" data-name="Rectangle 1415" class="cls-4" d="M619.39,667.29h0a2.59,2.59,0,0,1,2.59,2.59h0a2.59,2.59,0,0,1-2.59,2.6h0a2.59,2.59,0,0,1-2.6-2.6h0A2.59,2.59,0,0,1,619.39,667.29Z"/><rect id="Rectangle_1442" data-name="Rectangle 1442" class="cls-18" x="471.81" y="656.9" width="15.98" height="16.62" rx="7.99"/></g><g id="Symbol_3_113" data-name="Symbol 3 113"><path id="Path_3418-2" data-name="Path 3418-2" class="cls-14" d="M436.08,361.31H637.56a5.2,5.2,0,0,1,5.2,5.19V407a5.19,5.19,0,0,1-5.2,5.19H436.08a5.19,5.19,0,0,1-5.19-5.19V366.5A5.2,5.2,0,0,1,436.08,361.31Z"/><path id="Rectangle_1706-2" data-name="Rectangle 1706-2" class="cls-15" d="M436.71,361.25h59.61v50.89H436.71a7.26,7.26,0,0,1-7.27-7.27V368.52A7.27,7.27,0,0,1,436.71,361.25Z"/><rect id="Rectangle_1425-2" data-name="Rectangle 1425-2" class="cls-16" x="448.55" y="378.97" width="15.98" height="16.62" rx="7.99"/><path id="Rectangle_1405-2" data-name="Rectangle 1405-2" class="cls-4" d="M519.69,379h0a2.59,2.59,0,0,1,2.59,2.59h0a2.59,2.59,0,0,1-2.59,2.6h0a2.59,2.59,0,0,1-2.6-2.6h0A2.59,2.59,0,0,1,519.69,379Z"/><path id="Rectangle_1424-2" data-name="Rectangle 1424-2" class="cls-4" d="M525.92,389.35h0a2.6,2.6,0,0,1,2.59,2.6h0a2.6,2.6,0,0,1-2.59,2.6h0a2.6,2.6,0,0,1-2.6-2.6h0A2.6,2.6,0,0,1,525.92,389.35Z"/><path id="Rectangle_1410-2" data-name="Rectangle 1410-2" class="cls-4" d="M571.62,379h0a2.59,2.59,0,0,1,2.59,2.59h0a2.59,2.59,0,0,1-2.59,2.6h0a2.59,2.59,0,0,1-2.6-2.6h0A2.59,2.59,0,0,1,571.62,379Z"/><path id="Rectangle_1419-2" data-name="Rectangle 1419-2" class="cls-17" d="M577.85,389.35h0a2.6,2.6,0,0,1,2.59,2.6h0a2.6,2.6,0,0,1-2.59,2.6h0a2.6,2.6,0,0,1-2.6-2.6h0A2.6,2.6,0,0,1,577.85,389.35Z"/><path id="Rectangle_1406-2" data-name="Rectangle 1406-2" class="cls-17" d="M530.07,379h0a2.59,2.59,0,0,1,2.6,2.59h0a2.59,2.59,0,0,1-2.6,2.6h0a2.59,2.59,0,0,1-2.59-2.6h0A2.59,2.59,0,0,1,530.07,379Z"/><path id="Rectangle_1423-2" data-name="Rectangle 1423-2" class="cls-4" d="M536.3,389.35h0a2.6,2.6,0,0,1,2.6,2.6h0a2.6,2.6,0,0,1-2.6,2.6h0a2.6,2.6,0,0,1-2.59-2.6h0A2.6,2.6,0,0,1,536.3,389.35Z"/><path id="Rectangle_1411-2" data-name="Rectangle 1411-2" class="cls-4" d="M582,379h0a2.6,2.6,0,0,1,2.6,2.59h0a2.6,2.6,0,0,1-2.6,2.6h0a2.6,2.6,0,0,1-2.6-2.6h0A2.6,2.6,0,0,1,582,379Z"/><path id="Rectangle_1418-2" data-name="Rectangle 1418-2" class="cls-17" d="M588.23,389.35h0a2.6,2.6,0,0,1,2.6,2.6h0a2.6,2.6,0,0,1-2.6,2.6h0a2.6,2.6,0,0,1-2.59-2.6h0A2.6,2.6,0,0,1,588.23,389.35Z"/><path id="Rectangle_1407-2" data-name="Rectangle 1407-2" class="cls-4" d="M540.46,379h0a2.59,2.59,0,0,1,2.59,2.59h0a2.59,2.59,0,0,1-2.59,2.6h0a2.59,2.59,0,0,1-2.6-2.6h0A2.59,2.59,0,0,1,540.46,379Z"/><path id="Rectangle_1422-2" data-name="Rectangle 1422-2" class="cls-4" d="M546.69,389.35h0a2.61,2.61,0,0,1,2.6,2.6h0a2.61,2.61,0,0,1-2.6,2.6h0a2.61,2.61,0,0,1-2.6-2.6h0A2.61,2.61,0,0,1,546.69,389.35Z"/><path id="Rectangle_1412-2" data-name="Rectangle 1412-2" class="cls-4" d="M592.39,379h0a2.59,2.59,0,0,1,2.59,2.59h0a2.59,2.59,0,0,1-2.59,2.6h0a2.59,2.59,0,0,1-2.6-2.6h0A2.59,2.59,0,0,1,592.39,379Z"/><path id="Rectangle_1417-2" data-name="Rectangle 1417-2" class="cls-4" d="M598.62,389.35h0a2.6,2.6,0,0,1,2.59,2.6h0a2.6,2.6,0,0,1-2.59,2.6h0A2.6,2.6,0,0,1,596,392h0A2.6,2.6,0,0,1,598.62,389.35Z"/><path id="Rectangle_1408-2" data-name="Rectangle 1408-2" class="cls-4" d="M550.84,379h0a2.59,2.59,0,0,1,2.6,2.59h0a2.59,2.59,0,0,1-2.6,2.6h0a2.59,2.59,0,0,1-2.59-2.6h0A2.59,2.59,0,0,1,550.84,379Z"/><path id="Rectangle_1421-2" data-name="Rectangle 1421-2" class="cls-4" d="M557.08,389.35h0a2.6,2.6,0,0,1,2.59,2.6h0a2.6,2.6,0,0,1-2.59,2.6h0a2.6,2.6,0,0,1-2.6-2.6h0A2.6,2.6,0,0,1,557.08,389.35Z"/><path id="Rectangle_1413-2" data-name="Rectangle 1413-2" class="cls-4" d="M602.77,379h0a2.59,2.59,0,0,1,2.6,2.59h0a2.59,2.59,0,0,1-2.6,2.6h0a2.59,2.59,0,0,1-2.59-2.6h0A2.59,2.59,0,0,1,602.77,379Z"/><path id="Rectangle_1416-2" data-name="Rectangle 1416-2" class="cls-17" d="M609,389.35h0a2.6,2.6,0,0,1,2.6,2.6h0a2.6,2.6,0,0,1-2.6,2.6h0a2.6,2.6,0,0,1-2.59-2.6h0A2.6,2.6,0,0,1,609,389.35Z"/><path id="Rectangle_1409-2" data-name="Rectangle 1409-2" class="cls-17" d="M561.23,379h0a2.6,2.6,0,0,1,2.6,2.59h0a2.6,2.6,0,0,1-2.6,2.6h0a2.6,2.6,0,0,1-2.6-2.6h0A2.6,2.6,0,0,1,561.23,379Z"/><path id="Rectangle_1420-2" data-name="Rectangle 1420-2" class="cls-4" d="M567.46,389.35h0a2.61,2.61,0,0,1,2.6,2.6h0a2.61,2.61,0,0,1-2.6,2.6h0a2.6,2.6,0,0,1-2.59-2.6h0A2.6,2.6,0,0,1,567.46,389.35Z"/><path id="Rectangle_1414-2" data-name="Rectangle 1414-2" class="cls-4" d="M613.16,379h0a2.59,2.59,0,0,1,2.59,2.59h0a2.59,2.59,0,0,1-2.59,2.6h0a2.59,2.59,0,0,1-2.6-2.6h0A2.59,2.59,0,0,1,613.16,379Z"/><path id="Rectangle_1415-2" data-name="Rectangle 1415-2" class="cls-4" d="M619.39,389.35h0A2.6,2.6,0,0,1,622,392h0a2.6,2.6,0,0,1-2.59,2.6h0a2.6,2.6,0,0,1-2.6-2.6h0A2.6,2.6,0,0,1,619.39,389.35Z"/><rect id="Rectangle_1442-2" data-name="Rectangle 1442-2" class="cls-18" x="471.81" y="378.97" width="15.98" height="16.62" rx="7.99"/></g><g id="Symbol_3_114" data-name="Symbol 3 114"><path id="Path_3418-3" data-name="Path 3418-3" class="cls-14" d="M436.08,708.73H637.56a5.2,5.2,0,0,1,5.2,5.19v40.51a5.2,5.2,0,0,1-5.2,5.19H436.08a5.2,5.2,0,0,1-5.19-5.19V713.92A5.2,5.2,0,0,1,436.08,708.73Z"/><path id="Rectangle_1706-3" data-name="Rectangle 1706-3" class="cls-15" d="M436.71,708.67h59.61v50.89H436.71a7.27,7.27,0,0,1-7.27-7.27V715.94A7.27,7.27,0,0,1,436.71,708.67Z"/><rect id="Rectangle_1425-3" data-name="Rectangle 1425-3" class="cls-16" x="448.55" y="726.39" width="15.98" height="16.62" rx="7.99"/><path id="Rectangle_1405-3" data-name="Rectangle 1405-3" class="cls-17" d="M519.69,726.39h0a2.59,2.59,0,0,1,2.59,2.59h0a2.59,2.59,0,0,1-2.59,2.6h0a2.59,2.59,0,0,1-2.6-2.6h0A2.59,2.59,0,0,1,519.69,726.39Z"/><path id="Rectangle_1424-3" data-name="Rectangle 1424-3" class="cls-4" d="M525.92,736.77h0a2.59,2.59,0,0,1,2.59,2.6h0a2.59,2.59,0,0,1-2.59,2.59h0a2.59,2.59,0,0,1-2.6-2.59h0A2.59,2.59,0,0,1,525.92,736.77Z"/><path id="Rectangle_1410-3" data-name="Rectangle 1410-3" class="cls-4" d="M571.62,726.39h0a2.59,2.59,0,0,1,2.59,2.59h0a2.59,2.59,0,0,1-2.59,2.6h0A2.59,2.59,0,0,1,569,729h0A2.59,2.59,0,0,1,571.62,726.39Z"/><path id="Rectangle_1419-3" data-name="Rectangle 1419-3" class="cls-4" d="M577.85,736.77h0a2.59,2.59,0,0,1,2.59,2.6h0a2.59,2.59,0,0,1-2.59,2.59h0a2.59,2.59,0,0,1-2.6-2.59h0A2.59,2.59,0,0,1,577.85,736.77Z"/><path id="Rectangle_1406-3" data-name="Rectangle 1406-3" class="cls-4" d="M530.07,726.39h0a2.59,2.59,0,0,1,2.6,2.59h0a2.59,2.59,0,0,1-2.6,2.6h0a2.59,2.59,0,0,1-2.59-2.6h0A2.59,2.59,0,0,1,530.07,726.39Z"/><path id="Rectangle_1423-3" data-name="Rectangle 1423-3" class="cls-4" d="M536.3,736.77h0a2.59,2.59,0,0,1,2.6,2.6h0a2.59,2.59,0,0,1-2.6,2.59h0a2.59,2.59,0,0,1-2.59-2.59h0A2.59,2.59,0,0,1,536.3,736.77Z"/><path id="Rectangle_1411-3" data-name="Rectangle 1411-3" class="cls-17" d="M582,726.39h0a2.6,2.6,0,0,1,2.6,2.59h0a2.6,2.6,0,0,1-2.6,2.6h0a2.6,2.6,0,0,1-2.6-2.6h0A2.6,2.6,0,0,1,582,726.39Z"/><path id="Rectangle_1418-3" data-name="Rectangle 1418-3" class="cls-4" d="M588.23,736.77h0a2.59,2.59,0,0,1,2.6,2.6h0a2.59,2.59,0,0,1-2.6,2.59h0a2.59,2.59,0,0,1-2.59-2.59h0A2.59,2.59,0,0,1,588.23,736.77Z"/><path id="Rectangle_1407-3" data-name="Rectangle 1407-3" class="cls-4" d="M540.46,726.39h0a2.59,2.59,0,0,1,2.59,2.59h0a2.59,2.59,0,0,1-2.59,2.6h0a2.59,2.59,0,0,1-2.6-2.6h0A2.59,2.59,0,0,1,540.46,726.39Z"/><path id="Rectangle_1422-3" data-name="Rectangle 1422-3" class="cls-4" d="M546.69,736.77h0a2.6,2.6,0,0,1,2.6,2.6h0a2.6,2.6,0,0,1-2.6,2.59h0a2.6,2.6,0,0,1-2.6-2.59h0A2.6,2.6,0,0,1,546.69,736.77Z"/><path id="Rectangle_1412-3" data-name="Rectangle 1412-3" class="cls-4" d="M592.39,726.39h0A2.59,2.59,0,0,1,595,729h0a2.59,2.59,0,0,1-2.59,2.6h0a2.59,2.59,0,0,1-2.6-2.6h0A2.59,2.59,0,0,1,592.39,726.39Z"/><path id="Rectangle_1417-3" data-name="Rectangle 1417-3" class="cls-4" d="M598.62,736.77h0a2.59,2.59,0,0,1,2.59,2.6h0a2.59,2.59,0,0,1-2.59,2.59h0a2.59,2.59,0,0,1-2.6-2.59h0A2.59,2.59,0,0,1,598.62,736.77Z"/><path id="Rectangle_1408-3" data-name="Rectangle 1408-3" class="cls-17" d="M550.84,726.39h0a2.59,2.59,0,0,1,2.6,2.59h0a2.59,2.59,0,0,1-2.6,2.6h0a2.59,2.59,0,0,1-2.59-2.6h0A2.59,2.59,0,0,1,550.84,726.39Z"/><path id="Rectangle_1421-3" data-name="Rectangle 1421-3" class="cls-4" d="M557.08,736.77h0a2.59,2.59,0,0,1,2.59,2.6h0a2.59,2.59,0,0,1-2.59,2.59h0a2.59,2.59,0,0,1-2.6-2.59h0A2.59,2.59,0,0,1,557.08,736.77Z"/><path id="Rectangle_1413-3" data-name="Rectangle 1413-3" class="cls-4" d="M602.77,726.39h0a2.59,2.59,0,0,1,2.6,2.59h0a2.59,2.59,0,0,1-2.6,2.6h0a2.59,2.59,0,0,1-2.59-2.6h0A2.59,2.59,0,0,1,602.77,726.39Z"/><path id="Rectangle_1416-3" data-name="Rectangle 1416-3" class="cls-17" d="M609,736.77h0a2.59,2.59,0,0,1,2.6,2.6h0A2.59,2.59,0,0,1,609,742h0a2.59,2.59,0,0,1-2.59-2.59h0A2.59,2.59,0,0,1,609,736.77Z"/><path id="Rectangle_1409-3" data-name="Rectangle 1409-3" class="cls-4" d="M561.23,726.39h0a2.6,2.6,0,0,1,2.6,2.59h0a2.6,2.6,0,0,1-2.6,2.6h0a2.6,2.6,0,0,1-2.6-2.6h0A2.6,2.6,0,0,1,561.23,726.39Z"/><path id="Rectangle_1420-3" data-name="Rectangle 1420-3" class="cls-4" d="M567.46,736.77h0a2.6,2.6,0,0,1,2.6,2.6h0a2.6,2.6,0,0,1-2.6,2.59h0a2.59,2.59,0,0,1-2.59-2.59h0A2.59,2.59,0,0,1,567.46,736.77Z"/><path id="Rectangle_1414-3" data-name="Rectangle 1414-3" class="cls-4" d="M613.16,726.39h0a2.59,2.59,0,0,1,2.59,2.59h0a2.59,2.59,0,0,1-2.59,2.6h0a2.59,2.59,0,0,1-2.6-2.6h0A2.59,2.59,0,0,1,613.16,726.39Z"/><path id="Rectangle_1415-3" data-name="Rectangle 1415-3" class="cls-17" d="M619.39,736.77h0a2.59,2.59,0,0,1,2.59,2.6h0a2.59,2.59,0,0,1-2.59,2.59h0a2.59,2.59,0,0,1-2.6-2.59h0A2.59,2.59,0,0,1,619.39,736.77Z"/><rect id="Rectangle_1442-3" data-name="Rectangle 1442-3" class="cls-18" x="471.81" y="726.39" width="15.98" height="16.62" rx="7.99"/></g><g id="Symbol_3_115" data-name="Symbol 3 115"><path id="Path_3418-4" data-name="Path 3418-4" class="cls-14" d="M436.08,430.8H637.56a5.19,5.19,0,0,1,5.2,5.19v40.5a5.19,5.19,0,0,1-5.2,5.19H436.08a5.19,5.19,0,0,1-5.19-5.19V436A5.19,5.19,0,0,1,436.08,430.8Z"/><path id="Rectangle_1706-4" data-name="Rectangle 1706-4" class="cls-15" d="M436.71,430.74h59.61v50.88H436.71a7.26,7.26,0,0,1-7.27-7.27V438A7.26,7.26,0,0,1,436.71,430.74Z"/><rect id="Rectangle_1425-4" data-name="Rectangle 1425-4" class="cls-16" x="448.55" y="448.45" width="15.98" height="16.62" rx="7.99"/><path id="Rectangle_1405-4" data-name="Rectangle 1405-4" class="cls-4" d="M519.69,448.45h0a2.59,2.59,0,0,1,2.59,2.6h0a2.59,2.59,0,0,1-2.59,2.59h0a2.59,2.59,0,0,1-2.6-2.59h0A2.59,2.59,0,0,1,519.69,448.45Z"/><path id="Rectangle_1424-4" data-name="Rectangle 1424-4" class="cls-17" d="M525.92,458.84h0a2.59,2.59,0,0,1,2.59,2.59h0a2.59,2.59,0,0,1-2.59,2.6h0a2.59,2.59,0,0,1-2.6-2.6h0A2.59,2.59,0,0,1,525.92,458.84Z"/><path id="Rectangle_1410-4" data-name="Rectangle 1410-4" class="cls-4" d="M571.62,448.45h0a2.59,2.59,0,0,1,2.59,2.6h0a2.59,2.59,0,0,1-2.59,2.59h0a2.59,2.59,0,0,1-2.6-2.59h0A2.59,2.59,0,0,1,571.62,448.45Z"/><path id="Rectangle_1419-4" data-name="Rectangle 1419-4" class="cls-4" d="M577.85,458.84h0a2.59,2.59,0,0,1,2.59,2.59h0a2.59,2.59,0,0,1-2.59,2.6h0a2.59,2.59,0,0,1-2.6-2.6h0A2.59,2.59,0,0,1,577.85,458.84Z"/><path id="Rectangle_1406-4" data-name="Rectangle 1406-4" class="cls-4" d="M530.07,448.45h0a2.59,2.59,0,0,1,2.6,2.6h0a2.59,2.59,0,0,1-2.6,2.59h0a2.59,2.59,0,0,1-2.59-2.59h0A2.59,2.59,0,0,1,530.07,448.45Z"/><path id="Rectangle_1423-4" data-name="Rectangle 1423-4" class="cls-4" d="M536.3,458.84h0a2.59,2.59,0,0,1,2.6,2.59h0a2.59,2.59,0,0,1-2.6,2.6h0a2.59,2.59,0,0,1-2.59-2.6h0A2.59,2.59,0,0,1,536.3,458.84Z"/><path id="Rectangle_1411-4" data-name="Rectangle 1411-4" class="cls-4" d="M582,448.45h0a2.6,2.6,0,0,1,2.6,2.6h0a2.6,2.6,0,0,1-2.6,2.59h0a2.6,2.6,0,0,1-2.6-2.59h0A2.6,2.6,0,0,1,582,448.45Z"/><path id="Rectangle_1418-4" data-name="Rectangle 1418-4" class="cls-4" d="M588.23,458.84h0a2.59,2.59,0,0,1,2.6,2.59h0a2.59,2.59,0,0,1-2.6,2.6h0a2.59,2.59,0,0,1-2.59-2.6h0A2.59,2.59,0,0,1,588.23,458.84Z"/><path id="Rectangle_1407-4" data-name="Rectangle 1407-4" class="cls-4" d="M540.46,448.45h0a2.59,2.59,0,0,1,2.59,2.6h0a2.59,2.59,0,0,1-2.59,2.59h0a2.59,2.59,0,0,1-2.6-2.59h0A2.59,2.59,0,0,1,540.46,448.45Z"/><path id="Rectangle_1422-4" data-name="Rectangle 1422-4" class="cls-17" d="M546.69,458.84h0a2.6,2.6,0,0,1,2.6,2.59h0a2.6,2.6,0,0,1-2.6,2.6h0a2.6,2.6,0,0,1-2.6-2.6h0A2.6,2.6,0,0,1,546.69,458.84Z"/><path id="Rectangle_1412-4" data-name="Rectangle 1412-4" class="cls-4" d="M592.39,448.45h0a2.59,2.59,0,0,1,2.59,2.6h0a2.59,2.59,0,0,1-2.59,2.59h0a2.59,2.59,0,0,1-2.6-2.59h0A2.59,2.59,0,0,1,592.39,448.45Z"/><path id="Rectangle_1417-4" data-name="Rectangle 1417-4" class="cls-4" d="M598.62,458.84h0a2.59,2.59,0,0,1,2.59,2.59h0a2.59,2.59,0,0,1-2.59,2.6h0a2.59,2.59,0,0,1-2.6-2.6h0A2.59,2.59,0,0,1,598.62,458.84Z"/><path id="Rectangle_1408-4" data-name="Rectangle 1408-4" class="cls-4" d="M550.84,448.45h0a2.59,2.59,0,0,1,2.6,2.6h0a2.59,2.59,0,0,1-2.6,2.59h0a2.59,2.59,0,0,1-2.59-2.59h0A2.59,2.59,0,0,1,550.84,448.45Z"/><path id="Rectangle_1421-4" data-name="Rectangle 1421-4" class="cls-4" d="M557.08,458.84h0a2.59,2.59,0,0,1,2.59,2.59h0a2.59,2.59,0,0,1-2.59,2.6h0a2.59,2.59,0,0,1-2.6-2.6h0A2.59,2.59,0,0,1,557.08,458.84Z"/><path id="Rectangle_1413-4" data-name="Rectangle 1413-4" class="cls-17" d="M602.77,448.45h0a2.59,2.59,0,0,1,2.6,2.6h0a2.59,2.59,0,0,1-2.6,2.59h0a2.59,2.59,0,0,1-2.59-2.59h0A2.59,2.59,0,0,1,602.77,448.45Z"/><path id="Rectangle_1416-4" data-name="Rectangle 1416-4" class="cls-4" d="M609,458.84h0a2.59,2.59,0,0,1,2.6,2.59h0A2.59,2.59,0,0,1,609,464h0a2.59,2.59,0,0,1-2.59-2.6h0A2.59,2.59,0,0,1,609,458.84Z"/><path id="Rectangle_1409-4" data-name="Rectangle 1409-4" class="cls-17" d="M561.23,448.45h0a2.6,2.6,0,0,1,2.6,2.6h0a2.6,2.6,0,0,1-2.6,2.59h0a2.6,2.6,0,0,1-2.6-2.59h0A2.6,2.6,0,0,1,561.23,448.45Z"/><path id="Rectangle_1420-4" data-name="Rectangle 1420-4" class="cls-4" d="M567.46,458.84h0a2.6,2.6,0,0,1,2.6,2.59h0a2.6,2.6,0,0,1-2.6,2.6h0a2.59,2.59,0,0,1-2.59-2.6h0A2.59,2.59,0,0,1,567.46,458.84Z"/><path id="Rectangle_1414-4" data-name="Rectangle 1414-4" class="cls-17" d="M613.16,448.45h0a2.59,2.59,0,0,1,2.59,2.6h0a2.59,2.59,0,0,1-2.59,2.59h0a2.59,2.59,0,0,1-2.6-2.59h0A2.59,2.59,0,0,1,613.16,448.45Z"/><path id="Rectangle_1415-4" data-name="Rectangle 1415-4" class="cls-4" d="M619.39,458.84h0a2.59,2.59,0,0,1,2.59,2.59h0a2.59,2.59,0,0,1-2.59,2.6h0a2.59,2.59,0,0,1-2.6-2.6h0A2.59,2.59,0,0,1,619.39,458.84Z"/><rect id="Rectangle_1442-4" data-name="Rectangle 1442-4" class="cls-18" x="471.81" y="448.45" width="15.98" height="16.62" rx="7.99"/></g><g id="Symbol_3_116" data-name="Symbol 3 116"><path id="Path_3418-5" data-name="Path 3418-5" class="cls-14" d="M436.08,778.22H637.56a5.19,5.19,0,0,1,5.2,5.19v40.5a5.19,5.19,0,0,1-5.2,5.19H436.08a5.19,5.19,0,0,1-5.19-5.19v-40.5A5.19,5.19,0,0,1,436.08,778.22Z"/><path id="Rectangle_1706-5" data-name="Rectangle 1706-5" class="cls-15" d="M436.71,778.16h59.61V829H436.71a7.26,7.26,0,0,1-7.27-7.27V785.43A7.26,7.26,0,0,1,436.71,778.16Z"/><rect id="Rectangle_1425-5" data-name="Rectangle 1425-5" class="cls-19" x="448.55" y="795.87" width="15.98" height="16.62" rx="7.99"/><path id="Rectangle_1405-5" data-name="Rectangle 1405-5" class="cls-4" d="M519.69,795.87h0a2.59,2.59,0,0,1,2.59,2.6h0a2.59,2.59,0,0,1-2.59,2.59h0a2.59,2.59,0,0,1-2.6-2.59h0A2.59,2.59,0,0,1,519.69,795.87Z"/><path id="Rectangle_1424-5" data-name="Rectangle 1424-5" class="cls-4" d="M525.92,806.26h0a2.59,2.59,0,0,1,2.59,2.59h0a2.59,2.59,0,0,1-2.59,2.6h0a2.59,2.59,0,0,1-2.6-2.6h0A2.59,2.59,0,0,1,525.92,806.26Z"/><path id="Rectangle_1410-5" data-name="Rectangle 1410-5" class="cls-4" d="M571.62,795.87h0a2.59,2.59,0,0,1,2.59,2.6h0a2.59,2.59,0,0,1-2.59,2.59h0a2.59,2.59,0,0,1-2.6-2.59h0A2.59,2.59,0,0,1,571.62,795.87Z"/><path id="Rectangle_1419-5" data-name="Rectangle 1419-5" class="cls-4" d="M577.85,806.26h0a2.59,2.59,0,0,1,2.59,2.59h0a2.59,2.59,0,0,1-2.59,2.6h0a2.59,2.59,0,0,1-2.6-2.6h0A2.59,2.59,0,0,1,577.85,806.26Z"/><path id="Rectangle_1406-5" data-name="Rectangle 1406-5" class="cls-4" d="M530.07,795.87h0a2.59,2.59,0,0,1,2.6,2.6h0a2.59,2.59,0,0,1-2.6,2.59h0a2.59,2.59,0,0,1-2.59-2.59h0A2.59,2.59,0,0,1,530.07,795.87Z"/><path id="Rectangle_1423-5" data-name="Rectangle 1423-5" class="cls-17" d="M536.3,806.26h0a2.59,2.59,0,0,1,2.6,2.59h0a2.59,2.59,0,0,1-2.6,2.6h0a2.59,2.59,0,0,1-2.59-2.6h0A2.59,2.59,0,0,1,536.3,806.26Z"/><path id="Rectangle_1411-5" data-name="Rectangle 1411-5" class="cls-4" d="M582,795.87h0a2.6,2.6,0,0,1,2.6,2.6h0a2.6,2.6,0,0,1-2.6,2.59h0a2.6,2.6,0,0,1-2.6-2.59h0A2.6,2.6,0,0,1,582,795.87Z"/><path id="Rectangle_1418-5" data-name="Rectangle 1418-5" class="cls-4" d="M588.23,806.26h0a2.59,2.59,0,0,1,2.6,2.59h0a2.59,2.59,0,0,1-2.6,2.6h0a2.59,2.59,0,0,1-2.59-2.6h0A2.59,2.59,0,0,1,588.23,806.26Z"/><path id="Rectangle_1407-5" data-name="Rectangle 1407-5" class="cls-4" d="M540.46,795.87h0a2.59,2.59,0,0,1,2.59,2.6h0a2.59,2.59,0,0,1-2.59,2.59h0a2.59,2.59,0,0,1-2.6-2.59h0A2.59,2.59,0,0,1,540.46,795.87Z"/><path id="Rectangle_1422-5" data-name="Rectangle 1422-5" class="cls-17" d="M546.69,806.26h0a2.6,2.6,0,0,1,2.6,2.59h0a2.6,2.6,0,0,1-2.6,2.6h0a2.6,2.6,0,0,1-2.6-2.6h0A2.6,2.6,0,0,1,546.69,806.26Z"/><path id="Rectangle_1412-5" data-name="Rectangle 1412-5" class="cls-4" d="M592.39,795.87h0a2.59,2.59,0,0,1,2.59,2.6h0a2.59,2.59,0,0,1-2.59,2.59h0a2.59,2.59,0,0,1-2.6-2.59h0A2.59,2.59,0,0,1,592.39,795.87Z"/><path id="Rectangle_1417-5" data-name="Rectangle 1417-5" class="cls-17" d="M598.62,806.26h0a2.59,2.59,0,0,1,2.59,2.59h0a2.59,2.59,0,0,1-2.59,2.6h0a2.59,2.59,0,0,1-2.6-2.6h0A2.59,2.59,0,0,1,598.62,806.26Z"/><path id="Rectangle_1408-5" data-name="Rectangle 1408-5" class="cls-4" d="M550.84,795.87h0a2.59,2.59,0,0,1,2.6,2.6h0a2.59,2.59,0,0,1-2.6,2.59h0a2.59,2.59,0,0,1-2.59-2.59h0A2.59,2.59,0,0,1,550.84,795.87Z"/><path id="Rectangle_1421-5" data-name="Rectangle 1421-5" class="cls-4" d="M557.08,806.26h0a2.59,2.59,0,0,1,2.59,2.59h0a2.59,2.59,0,0,1-2.59,2.6h0a2.59,2.59,0,0,1-2.6-2.6h0A2.59,2.59,0,0,1,557.08,806.26Z"/><path id="Rectangle_1413-5" data-name="Rectangle 1413-5" class="cls-17" d="M602.77,795.87h0a2.59,2.59,0,0,1,2.6,2.6h0a2.59,2.59,0,0,1-2.6,2.59h0a2.59,2.59,0,0,1-2.59-2.59h0A2.59,2.59,0,0,1,602.77,795.87Z"/><path id="Rectangle_1416-5" data-name="Rectangle 1416-5" class="cls-4" d="M609,806.26h0a2.59,2.59,0,0,1,2.6,2.59h0a2.59,2.59,0,0,1-2.6,2.6h0a2.59,2.59,0,0,1-2.59-2.6h0A2.59,2.59,0,0,1,609,806.26Z"/><path id="Rectangle_1409-5" data-name="Rectangle 1409-5" class="cls-4" d="M561.23,795.87h0a2.6,2.6,0,0,1,2.6,2.6h0a2.6,2.6,0,0,1-2.6,2.59h0a2.6,2.6,0,0,1-2.6-2.59h0A2.6,2.6,0,0,1,561.23,795.87Z"/><path id="Rectangle_1420-5" data-name="Rectangle 1420-5" class="cls-17" d="M567.46,806.26h0a2.6,2.6,0,0,1,2.6,2.59h0a2.6,2.6,0,0,1-2.6,2.6h0a2.59,2.59,0,0,1-2.59-2.6h0A2.59,2.59,0,0,1,567.46,806.26Z"/><path id="Rectangle_1414-5" data-name="Rectangle 1414-5" class="cls-4" d="M613.16,795.87h0a2.59,2.59,0,0,1,2.59,2.6h0a2.59,2.59,0,0,1-2.59,2.59h0a2.59,2.59,0,0,1-2.6-2.59h0A2.59,2.59,0,0,1,613.16,795.87Z"/><path id="Rectangle_1415-5" data-name="Rectangle 1415-5" class="cls-4" d="M619.39,806.26h0a2.59,2.59,0,0,1,2.59,2.59h0a2.59,2.59,0,0,1-2.59,2.6h0a2.59,2.59,0,0,1-2.6-2.6h0A2.59,2.59,0,0,1,619.39,806.26Z"/><rect id="Rectangle_1442-5" data-name="Rectangle 1442-5" class="cls-18" x="471.81" y="795.87" width="15.98" height="16.62" rx="7.99"/></g><g id="Symbol_3_117" data-name="Symbol 3 117"><path id="Path_3418-6" data-name="Path 3418-6" class="cls-14" d="M436.08,500.28H637.56a5.19,5.19,0,0,1,5.2,5.19V546a5.2,5.2,0,0,1-5.2,5.19H436.08a5.2,5.2,0,0,1-5.19-5.19V505.47A5.19,5.19,0,0,1,436.08,500.28Z"/><path id="Rectangle_1706-6" data-name="Rectangle 1706-6" class="cls-15" d="M436.71,500.22h59.61v50.89H436.71a7.27,7.27,0,0,1-7.27-7.27V507.49A7.27,7.27,0,0,1,436.71,500.22Z"/><rect id="Rectangle_1425-6" data-name="Rectangle 1425-6" class="cls-16" x="448.55" y="517.94" width="15.98" height="16.62" rx="7.99"/><path id="Rectangle_1405-6" data-name="Rectangle 1405-6" class="cls-4" d="M519.69,517.94h0a2.59,2.59,0,0,1,2.59,2.59h0a2.59,2.59,0,0,1-2.59,2.6h0a2.59,2.59,0,0,1-2.6-2.6h0A2.59,2.59,0,0,1,519.69,517.94Z"/><path id="Rectangle_1424-6" data-name="Rectangle 1424-6" class="cls-4" d="M525.92,528.32h0a2.59,2.59,0,0,1,2.59,2.6h0a2.59,2.59,0,0,1-2.59,2.59h0a2.59,2.59,0,0,1-2.6-2.59h0A2.59,2.59,0,0,1,525.92,528.32Z"/><path id="Rectangle_1410-6" data-name="Rectangle 1410-6" class="cls-4" d="M571.62,517.94h0a2.59,2.59,0,0,1,2.59,2.59h0a2.59,2.59,0,0,1-2.59,2.6h0a2.59,2.59,0,0,1-2.6-2.6h0A2.59,2.59,0,0,1,571.62,517.94Z"/><path id="Rectangle_1419-6" data-name="Rectangle 1419-6" class="cls-17" d="M577.85,528.32h0a2.59,2.59,0,0,1,2.59,2.6h0a2.59,2.59,0,0,1-2.59,2.59h0a2.59,2.59,0,0,1-2.6-2.59h0A2.59,2.59,0,0,1,577.85,528.32Z"/><path id="Rectangle_1406-6" data-name="Rectangle 1406-6" class="cls-4" d="M530.07,517.94h0a2.59,2.59,0,0,1,2.6,2.59h0a2.59,2.59,0,0,1-2.6,2.6h0a2.59,2.59,0,0,1-2.59-2.6h0A2.59,2.59,0,0,1,530.07,517.94Z"/><path id="Rectangle_1423-6" data-name="Rectangle 1423-6" class="cls-4" d="M536.3,528.32h0a2.59,2.59,0,0,1,2.6,2.6h0a2.59,2.59,0,0,1-2.6,2.59h0a2.59,2.59,0,0,1-2.59-2.59h0A2.59,2.59,0,0,1,536.3,528.32Z"/><path id="Rectangle_1411-6" data-name="Rectangle 1411-6" class="cls-4" d="M582,517.94h0a2.6,2.6,0,0,1,2.6,2.59h0a2.6,2.6,0,0,1-2.6,2.6h0a2.6,2.6,0,0,1-2.6-2.6h0A2.6,2.6,0,0,1,582,517.94Z"/><path id="Rectangle_1418-6" data-name="Rectangle 1418-6" class="cls-4" d="M588.23,528.32h0a2.59,2.59,0,0,1,2.6,2.6h0a2.59,2.59,0,0,1-2.6,2.59h0a2.59,2.59,0,0,1-2.59-2.59h0A2.59,2.59,0,0,1,588.23,528.32Z"/><path id="Rectangle_1407-6" data-name="Rectangle 1407-6" class="cls-17" d="M540.46,517.94h0a2.59,2.59,0,0,1,2.59,2.59h0a2.59,2.59,0,0,1-2.59,2.6h0a2.59,2.59,0,0,1-2.6-2.6h0A2.59,2.59,0,0,1,540.46,517.94Z"/><path id="Rectangle_1422-6" data-name="Rectangle 1422-6" class="cls-4" d="M546.69,528.32h0a2.6,2.6,0,0,1,2.6,2.6h0a2.6,2.6,0,0,1-2.6,2.59h0a2.6,2.6,0,0,1-2.6-2.59h0A2.6,2.6,0,0,1,546.69,528.32Z"/><path id="Rectangle_1412-6" data-name="Rectangle 1412-6" class="cls-4" d="M592.39,517.94h0a2.59,2.59,0,0,1,2.59,2.59h0a2.59,2.59,0,0,1-2.59,2.6h0a2.59,2.59,0,0,1-2.6-2.6h0A2.59,2.59,0,0,1,592.39,517.94Z"/><path id="Rectangle_1417-6" data-name="Rectangle 1417-6" class="cls-17" d="M598.62,528.32h0a2.59,2.59,0,0,1,2.59,2.6h0a2.59,2.59,0,0,1-2.59,2.59h0a2.59,2.59,0,0,1-2.6-2.59h0A2.59,2.59,0,0,1,598.62,528.32Z"/><path id="Rectangle_1408-6" data-name="Rectangle 1408-6" class="cls-4" d="M550.84,517.94h0a2.59,2.59,0,0,1,2.6,2.59h0a2.59,2.59,0,0,1-2.6,2.6h0a2.59,2.59,0,0,1-2.59-2.6h0A2.59,2.59,0,0,1,550.84,517.94Z"/><path id="Rectangle_1421-6" data-name="Rectangle 1421-6" class="cls-17" d="M557.08,528.32h0a2.59,2.59,0,0,1,2.59,2.6h0a2.59,2.59,0,0,1-2.59,2.59h0a2.59,2.59,0,0,1-2.6-2.59h0A2.59,2.59,0,0,1,557.08,528.32Z"/><path id="Rectangle_1413-6" data-name="Rectangle 1413-6" class="cls-4" d="M602.77,517.94h0a2.59,2.59,0,0,1,2.6,2.59h0a2.59,2.59,0,0,1-2.6,2.6h0a2.59,2.59,0,0,1-2.59-2.6h0A2.59,2.59,0,0,1,602.77,517.94Z"/><path id="Rectangle_1416-6" data-name="Rectangle 1416-6" class="cls-4" d="M609,528.32h0a2.59,2.59,0,0,1,2.6,2.6h0a2.59,2.59,0,0,1-2.6,2.59h0a2.59,2.59,0,0,1-2.59-2.59h0A2.59,2.59,0,0,1,609,528.32Z"/><path id="Rectangle_1409-6" data-name="Rectangle 1409-6" class="cls-4" d="M561.23,517.94h0a2.6,2.6,0,0,1,2.6,2.59h0a2.6,2.6,0,0,1-2.6,2.6h0a2.6,2.6,0,0,1-2.6-2.6h0A2.6,2.6,0,0,1,561.23,517.94Z"/><path id="Rectangle_1420-6" data-name="Rectangle 1420-6" class="cls-4" d="M567.46,528.32h0a2.6,2.6,0,0,1,2.6,2.6h0a2.6,2.6,0,0,1-2.6,2.59h0a2.59,2.59,0,0,1-2.59-2.59h0A2.59,2.59,0,0,1,567.46,528.32Z"/><path id="Rectangle_1414-6" data-name="Rectangle 1414-6" class="cls-4" d="M613.16,517.94h0a2.59,2.59,0,0,1,2.59,2.59h0a2.59,2.59,0,0,1-2.59,2.6h0a2.59,2.59,0,0,1-2.6-2.6h0A2.59,2.59,0,0,1,613.16,517.94Z"/><path id="Rectangle_1415-6" data-name="Rectangle 1415-6" class="cls-4" d="M619.39,528.32h0a2.59,2.59,0,0,1,2.59,2.6h0a2.59,2.59,0,0,1-2.59,2.59h0a2.59,2.59,0,0,1-2.6-2.59h0A2.59,2.59,0,0,1,619.39,528.32Z"/><rect id="Rectangle_1442-6" data-name="Rectangle 1442-6" class="cls-18" x="471.81" y="517.94" width="15.98" height="16.62" rx="7.99"/></g><g id="Symbol_3_118" data-name="Symbol 3 118"><path id="Path_3418-7" data-name="Path 3418-7" class="cls-14" d="M436.08,847.7H637.56a5.19,5.19,0,0,1,5.2,5.19V893.4a5.2,5.2,0,0,1-5.2,5.19H436.08a5.2,5.2,0,0,1-5.19-5.19V852.89A5.19,5.19,0,0,1,436.08,847.7Z"/><path id="Rectangle_1706-7" data-name="Rectangle 1706-7" class="cls-15" d="M436.71,847.64h59.61v50.89H436.71a7.27,7.27,0,0,1-7.27-7.27V854.91A7.26,7.26,0,0,1,436.71,847.64Z"/><rect id="Rectangle_1425-7" data-name="Rectangle 1425-7" class="cls-16" x="448.55" y="865.35" width="15.98" height="16.62" rx="7.99"/><path id="Rectangle_1405-7" data-name="Rectangle 1405-7" class="cls-4" d="M519.69,865.35h0a2.6,2.6,0,0,1,2.59,2.6h0a2.6,2.6,0,0,1-2.59,2.6h0a2.6,2.6,0,0,1-2.6-2.6h0A2.6,2.6,0,0,1,519.69,865.35Z"/><path id="Rectangle_1424-7" data-name="Rectangle 1424-7" class="cls-4" d="M525.92,875.74h0a2.59,2.59,0,0,1,2.59,2.6h0a2.59,2.59,0,0,1-2.59,2.59h0a2.59,2.59,0,0,1-2.6-2.59h0A2.59,2.59,0,0,1,525.92,875.74Z"/><path id="Rectangle_1410-7" data-name="Rectangle 1410-7" class="cls-17" d="M571.62,865.35h0a2.6,2.6,0,0,1,2.59,2.6h0a2.6,2.6,0,0,1-2.59,2.6h0A2.6,2.6,0,0,1,569,868h0A2.6,2.6,0,0,1,571.62,865.35Z"/><path id="Rectangle_1419-7" data-name="Rectangle 1419-7" class="cls-17" d="M577.85,875.74h0a2.59,2.59,0,0,1,2.59,2.6h0a2.59,2.59,0,0,1-2.59,2.59h0a2.59,2.59,0,0,1-2.6-2.59h0A2.59,2.59,0,0,1,577.85,875.74Z"/><path id="Rectangle_1406-7" data-name="Rectangle 1406-7" class="cls-4" d="M530.07,865.35h0a2.6,2.6,0,0,1,2.6,2.6h0a2.6,2.6,0,0,1-2.6,2.6h0a2.6,2.6,0,0,1-2.59-2.6h0A2.6,2.6,0,0,1,530.07,865.35Z"/><path id="Rectangle_1423-7" data-name="Rectangle 1423-7" class="cls-17" d="M536.3,875.74h0a2.59,2.59,0,0,1,2.6,2.6h0a2.59,2.59,0,0,1-2.6,2.59h0a2.59,2.59,0,0,1-2.59-2.59h0A2.59,2.59,0,0,1,536.3,875.74Z"/><path id="Rectangle_1411-7" data-name="Rectangle 1411-7" class="cls-17" d="M582,865.35h0a2.61,2.61,0,0,1,2.6,2.6h0a2.61,2.61,0,0,1-2.6,2.6h0a2.61,2.61,0,0,1-2.6-2.6h0A2.61,2.61,0,0,1,582,865.35Z"/><path id="Rectangle_1418-7" data-name="Rectangle 1418-7" class="cls-4" d="M588.23,875.74h0a2.59,2.59,0,0,1,2.6,2.6h0a2.59,2.59,0,0,1-2.6,2.59h0a2.59,2.59,0,0,1-2.59-2.59h0A2.59,2.59,0,0,1,588.23,875.74Z"/><path id="Rectangle_1407-7" data-name="Rectangle 1407-7" class="cls-4" d="M540.46,865.35h0a2.6,2.6,0,0,1,2.59,2.6h0a2.6,2.6,0,0,1-2.59,2.6h0a2.6,2.6,0,0,1-2.6-2.6h0A2.6,2.6,0,0,1,540.46,865.35Z"/><path id="Rectangle_1422-7" data-name="Rectangle 1422-7" class="cls-4" d="M546.69,875.74h0a2.6,2.6,0,0,1,2.6,2.6h0a2.6,2.6,0,0,1-2.6,2.59h0a2.6,2.6,0,0,1-2.6-2.59h0A2.6,2.6,0,0,1,546.69,875.74Z"/><path id="Rectangle_1412-7" data-name="Rectangle 1412-7" class="cls-4" d="M592.39,865.35h0A2.6,2.6,0,0,1,595,868h0a2.6,2.6,0,0,1-2.59,2.6h0a2.6,2.6,0,0,1-2.6-2.6h0A2.6,2.6,0,0,1,592.39,865.35Z"/><path id="Rectangle_1417-7" data-name="Rectangle 1417-7" class="cls-17" d="M598.62,875.74h0a2.59,2.59,0,0,1,2.59,2.6h0a2.59,2.59,0,0,1-2.59,2.59h0a2.59,2.59,0,0,1-2.6-2.59h0A2.59,2.59,0,0,1,598.62,875.74Z"/><path id="Rectangle_1408-7" data-name="Rectangle 1408-7" class="cls-4" d="M550.84,865.35h0a2.6,2.6,0,0,1,2.6,2.6h0a2.6,2.6,0,0,1-2.6,2.6h0a2.6,2.6,0,0,1-2.59-2.6h0A2.6,2.6,0,0,1,550.84,865.35Z"/><path id="Rectangle_1421-7" data-name="Rectangle 1421-7" class="cls-4" d="M557.08,875.74h0a2.59,2.59,0,0,1,2.59,2.6h0a2.59,2.59,0,0,1-2.59,2.59h0a2.59,2.59,0,0,1-2.6-2.59h0A2.59,2.59,0,0,1,557.08,875.74Z"/><path id="Rectangle_1413-7" data-name="Rectangle 1413-7" class="cls-4" d="M602.77,865.35h0a2.6,2.6,0,0,1,2.6,2.6h0a2.6,2.6,0,0,1-2.6,2.6h0a2.6,2.6,0,0,1-2.59-2.6h0A2.6,2.6,0,0,1,602.77,865.35Z"/><path id="Rectangle_1416-7" data-name="Rectangle 1416-7" class="cls-4" d="M609,875.74h0a2.59,2.59,0,0,1,2.6,2.6h0a2.59,2.59,0,0,1-2.6,2.59h0a2.59,2.59,0,0,1-2.59-2.59h0A2.59,2.59,0,0,1,609,875.74Z"/><path id="Rectangle_1409-7" data-name="Rectangle 1409-7" class="cls-4" d="M561.23,865.35h0a2.61,2.61,0,0,1,2.6,2.6h0a2.61,2.61,0,0,1-2.6,2.6h0a2.61,2.61,0,0,1-2.6-2.6h0A2.61,2.61,0,0,1,561.23,865.35Z"/><path id="Rectangle_1420-7" data-name="Rectangle 1420-7" class="cls-4" d="M567.46,875.74h0a2.6,2.6,0,0,1,2.6,2.6h0a2.6,2.6,0,0,1-2.6,2.59h0a2.59,2.59,0,0,1-2.59-2.59h0A2.59,2.59,0,0,1,567.46,875.74Z"/><path id="Rectangle_1414-7" data-name="Rectangle 1414-7" class="cls-4" d="M613.16,865.35h0a2.6,2.6,0,0,1,2.59,2.6h0a2.6,2.6,0,0,1-2.59,2.6h0a2.6,2.6,0,0,1-2.6-2.6h0A2.6,2.6,0,0,1,613.16,865.35Z"/><path id="Rectangle_1415-7" data-name="Rectangle 1415-7" class="cls-4" d="M619.39,875.74h0a2.59,2.59,0,0,1,2.59,2.6h0a2.59,2.59,0,0,1-2.59,2.59h0a2.59,2.59,0,0,1-2.6-2.59h0A2.59,2.59,0,0,1,619.39,875.74Z"/><rect id="Rectangle_1442-7" data-name="Rectangle 1442-7" class="cls-18" x="471.81" y="865.35" width="15.98" height="16.62" rx="7.99"/></g><g id="Symbol_3_119" data-name="Symbol 3 119"><path id="Path_3418-8" data-name="Path 3418-8" class="cls-14" d="M436.08,569.76H637.56a5.2,5.2,0,0,1,5.2,5.2v40.5a5.19,5.19,0,0,1-5.2,5.19H436.08a5.19,5.19,0,0,1-5.19-5.19V575A5.2,5.2,0,0,1,436.08,569.76Z"/><path id="Rectangle_1706-8" data-name="Rectangle 1706-8" class="cls-15" d="M436.71,569.7h59.61v50.89H436.71a7.26,7.26,0,0,1-7.27-7.27V577A7.27,7.27,0,0,1,436.71,569.7Z"/><rect id="Rectangle_1425-8" data-name="Rectangle 1425-8" class="cls-16" x="448.55" y="587.42" width="15.98" height="16.62" rx="7.99"/><path id="Rectangle_1405-8" data-name="Rectangle 1405-8" class="cls-4" d="M519.69,587.42h0a2.59,2.59,0,0,1,2.59,2.6h0a2.59,2.59,0,0,1-2.59,2.59h0a2.59,2.59,0,0,1-2.6-2.59h0A2.59,2.59,0,0,1,519.69,587.42Z"/><path id="Rectangle_1424-8" data-name="Rectangle 1424-8" class="cls-4" d="M525.92,597.8h0a2.6,2.6,0,0,1,2.59,2.6h0a2.6,2.6,0,0,1-2.59,2.6h0a2.6,2.6,0,0,1-2.6-2.6h0A2.6,2.6,0,0,1,525.92,597.8Z"/><path id="Rectangle_1410-8" data-name="Rectangle 1410-8" class="cls-4" d="M571.62,587.42h0a2.59,2.59,0,0,1,2.59,2.6h0a2.59,2.59,0,0,1-2.59,2.59h0A2.59,2.59,0,0,1,569,590h0A2.59,2.59,0,0,1,571.62,587.42Z"/><path id="Rectangle_1419-8" data-name="Rectangle 1419-8" class="cls-4" d="M577.85,597.8h0a2.6,2.6,0,0,1,2.59,2.6h0a2.6,2.6,0,0,1-2.59,2.6h0a2.6,2.6,0,0,1-2.6-2.6h0A2.6,2.6,0,0,1,577.85,597.8Z"/><path id="Rectangle_1406-8" data-name="Rectangle 1406-8" class="cls-17" d="M530.07,587.42h0a2.59,2.59,0,0,1,2.6,2.6h0a2.59,2.59,0,0,1-2.6,2.59h0a2.59,2.59,0,0,1-2.59-2.59h0A2.59,2.59,0,0,1,530.07,587.42Z"/><path id="Rectangle_1423-8" data-name="Rectangle 1423-8" class="cls-4" d="M536.3,597.8h0a2.6,2.6,0,0,1,2.6,2.6h0a2.6,2.6,0,0,1-2.6,2.6h0a2.6,2.6,0,0,1-2.59-2.6h0A2.6,2.6,0,0,1,536.3,597.8Z"/><path id="Rectangle_1411-8" data-name="Rectangle 1411-8" class="cls-17" d="M582,587.42h0a2.6,2.6,0,0,1,2.6,2.6h0a2.6,2.6,0,0,1-2.6,2.59h0a2.6,2.6,0,0,1-2.6-2.59h0A2.6,2.6,0,0,1,582,587.42Z"/><path id="Rectangle_1418-8" data-name="Rectangle 1418-8" class="cls-4" d="M588.23,597.8h0a2.6,2.6,0,0,1,2.6,2.6h0a2.6,2.6,0,0,1-2.6,2.6h0a2.6,2.6,0,0,1-2.59-2.6h0A2.6,2.6,0,0,1,588.23,597.8Z"/><path id="Rectangle_1407-8" data-name="Rectangle 1407-8" class="cls-17" d="M540.46,587.42h0a2.59,2.59,0,0,1,2.59,2.6h0a2.59,2.59,0,0,1-2.59,2.59h0a2.59,2.59,0,0,1-2.6-2.59h0A2.59,2.59,0,0,1,540.46,587.42Z"/><path id="Rectangle_1422-8" data-name="Rectangle 1422-8" class="cls-4" d="M546.69,597.8h0a2.61,2.61,0,0,1,2.6,2.6h0a2.61,2.61,0,0,1-2.6,2.6h0a2.61,2.61,0,0,1-2.6-2.6h0A2.61,2.61,0,0,1,546.69,597.8Z"/><path id="Rectangle_1412-8" data-name="Rectangle 1412-8" class="cls-4" d="M592.39,587.42h0A2.59,2.59,0,0,1,595,590h0a2.59,2.59,0,0,1-2.59,2.59h0a2.59,2.59,0,0,1-2.6-2.59h0A2.59,2.59,0,0,1,592.39,587.42Z"/><path id="Rectangle_1417-8" data-name="Rectangle 1417-8" class="cls-4" d="M598.62,597.8h0a2.6,2.6,0,0,1,2.59,2.6h0a2.6,2.6,0,0,1-2.59,2.6h0a2.6,2.6,0,0,1-2.6-2.6h0A2.6,2.6,0,0,1,598.62,597.8Z"/><path id="Rectangle_1408-8" data-name="Rectangle 1408-8" class="cls-4" d="M550.84,587.42h0a2.59,2.59,0,0,1,2.6,2.6h0a2.59,2.59,0,0,1-2.6,2.59h0a2.59,2.59,0,0,1-2.59-2.59h0A2.59,2.59,0,0,1,550.84,587.42Z"/><path id="Rectangle_1421-8" data-name="Rectangle 1421-8" class="cls-4" d="M557.08,597.8h0a2.6,2.6,0,0,1,2.59,2.6h0a2.6,2.6,0,0,1-2.59,2.6h0a2.6,2.6,0,0,1-2.6-2.6h0A2.6,2.6,0,0,1,557.08,597.8Z"/><path id="Rectangle_1413-8" data-name="Rectangle 1413-8" class="cls-4" d="M602.77,587.42h0a2.59,2.59,0,0,1,2.6,2.6h0a2.59,2.59,0,0,1-2.6,2.59h0a2.59,2.59,0,0,1-2.59-2.59h0A2.59,2.59,0,0,1,602.77,587.42Z"/><path id="Rectangle_1416-8" data-name="Rectangle 1416-8" class="cls-4" d="M609,597.8h0a2.6,2.6,0,0,1,2.6,2.6h0A2.6,2.6,0,0,1,609,603h0a2.6,2.6,0,0,1-2.59-2.6h0A2.6,2.6,0,0,1,609,597.8Z"/><path id="Rectangle_1409-8" data-name="Rectangle 1409-8" class="cls-4" d="M561.23,587.42h0a2.6,2.6,0,0,1,2.6,2.6h0a2.6,2.6,0,0,1-2.6,2.59h0a2.6,2.6,0,0,1-2.6-2.59h0A2.6,2.6,0,0,1,561.23,587.42Z"/><path id="Rectangle_1420-8" data-name="Rectangle 1420-8" class="cls-17" d="M567.46,597.8h0a2.61,2.61,0,0,1,2.6,2.6h0a2.61,2.61,0,0,1-2.6,2.6h0a2.6,2.6,0,0,1-2.59-2.6h0A2.6,2.6,0,0,1,567.46,597.8Z"/><path id="Rectangle_1414-8" data-name="Rectangle 1414-8" class="cls-17" d="M613.16,587.42h0a2.59,2.59,0,0,1,2.59,2.6h0a2.59,2.59,0,0,1-2.59,2.59h0a2.59,2.59,0,0,1-2.6-2.59h0A2.59,2.59,0,0,1,613.16,587.42Z"/><path id="Rectangle_1415-8" data-name="Rectangle 1415-8" class="cls-17" d="M619.39,597.8h0a2.6,2.6,0,0,1,2.59,2.6h0a2.6,2.6,0,0,1-2.59,2.6h0a2.6,2.6,0,0,1-2.6-2.6h0A2.6,2.6,0,0,1,619.39,597.8Z"/><rect id="Rectangle_1442-8" data-name="Rectangle 1442-8" class="cls-18" x="471.81" y="587.42" width="15.98" height="16.62" rx="7.99"/></g></g><g id="Group_6082" data-name="Group 6082"><g id="Group_95" data-name="Group 95"><path id="Path_3464" data-name="Path 3464" class="cls-20" d="M442.94,307.24H703.58c-1.29,28.16,0,41.37,0,51.06,0,68.93,37.78,54.31-2.23,93.79C622.42,530,550.33,605.3,426.52,733.73c-9.07,0,0-72.74,0-408.94C426.52,315.1,433.87,307.24,442.94,307.24Z"/><path id="Path_3463" data-name="Path 3463" class="cls-21" d="M420.51,307.24H700c29.24,0,5.09,18.54,4.8,33.68-.39,20.43,12.94,41,0,53.33-100.22,95.87-159.7,157.87-312.38,316.24-9.07,0,11.72-49.51,11.72-385.7C404.09,315.1,411.44,307.24,420.51,307.24Z"/><path id="Path_3462" data-name="Path 3462" class="cls-22" d="M447,307.07H700.32A11.52,11.52,0,0,1,711.44,319c-103.85,103.1-149.65,146-275.6,276.66-6.14,0,0-49.22,0-276.66A11.51,11.51,0,0,1,447,307.07Z"/><path id="Subtraction_66-2" data-name="Subtraction 66-2" class="cls-23" d="M714.76,944a21.7,21.7,0,0,1-21.69,21.69H404.72a29.06,29.06,0,0,1-29.08-29V246.26a29.07,29.07,0,0,1,29-29.08h283.5a24.48,24.48,0,0,1,10.34,2.29A26.47,26.47,0,0,1,707,225.7a29.37,29.37,0,0,1,5.7,9.25,31.23,31.23,0,0,1,2.09,11.31ZM459,314.34a21.81,21.81,0,0,0-21.81,21.81h0V865.39A21.8,21.8,0,0,0,459,887.2h214.9a21.8,21.8,0,0,0,21.8-21.81V336.15a21.81,21.81,0,0,0-21.8-21.81H459Z"/><path id="Rectangle_1500" data-name="Rectangle 1500" class="cls-24" d="M394.77,677.17V593.78a14.28,14.28,0,0,1,14.29-14.28h0a14.28,14.28,0,0,1,14.29,14.28v83.39a14.28,14.28,0,0,1-14.29,14.28h0A14.28,14.28,0,0,1,394.77,677.17Z"/><path id="Rectangle_1443-2" data-name="Rectangle 1443-2" class="cls-10" d="M393.41,677.17V593.79A14.29,14.29,0,0,1,407.7,579.5h0A14.29,14.29,0,0,1,422,593.79v83.38a14.29,14.29,0,0,1-14.29,14.29h0A14.29,14.29,0,0,1,393.41,677.17Z"/></g><rect id="Rectangle_1553" data-name="Rectangle 1553" class="cls-3" x="407.79" y="614.65" width="8.16" height="39.26" rx="4.08"/></g><g id="Group_6083" data-name="Group 6083"><path id="Path_3437" data-name="Path 3437" class="cls-25" d="M162.82,889.26s-10.19-67.58-51.73-116.45,39.82-61.47,46.59-119.65,83,90.46,21.22,179.19S162.82,889.26,162.82,889.26Z"/><path id="Path_3435-2" data-name="Path 3435-2" class="cls-26" d="M161.73,943.38S158,862.79,233,834.65,261.8,753.9,271.39,727,151.08,755.41,156.28,878.19,161.73,943.38,161.73,943.38Z"/><path id="Path_3436-2" data-name="Path 3436-2" class="cls-27" d="M167.35,956.54s3.09-66.34-58.7-89.51S85,800.55,77.08,778.39s99,23.41,94.76,124.49S167.35,956.54,167.35,956.54Z"/><path id="Path_3434-2" data-name="Path 3434-2" class="cls-28" d="M110.13,889.33h98.74L201,990.44H118Z"/><path id="Path_3456" data-name="Path 3456" class="cls-29" d="M161.7,812.71s36.35-86.09,7.77-142.31"/><path id="Path_3457" data-name="Path 3457" class="cls-29" d="M174.71,867.21S194,773.68,253.06,742.43"/><path id="Path_3458" data-name="Path 3458" class="cls-30" d="M195.39,833.26s7.2-10.83,28-11.83"/><path id="Path_3459" data-name="Path 3459" class="cls-30" d="M160.13,775.4s-2-10.91-18-18.63"/><path id="Path_3460" data-name="Path 3460" class="cls-30" d="M209.38,804.82s15.67-18.27,32.82-20.19"/><path id="Path_3461" data-name="Path 3461" class="cls-30" d="M158.63,748.41s-6.21-19.58-19-26.81"/></g></g><g id="Group_7367" data-name="Group 7367" class="cls-31"><g id="Group_7365-5" data-name="Group 7365-5"><g id="Group_7382" data-name="Group 7382"><g id="Group_7363-5" data-name="Group 7363-5"><path class="cls-32" d="M818.78,730.39V740.8h2.89c4.94,0,9,2.92,9,6.51v41.6c0,3.59-4,6.5-9,6.5h-2.89v10.42h2.89c4.94,0,9,2.91,9,6.5v41.6c0,3.59-4,6.51-9,6.51h-2.89v10.41h2.89c4.94,0,9,2.92,9,6.51V919c0,3.59-4,6.5-9,6.5h-2.89v10.42h2.89c4.94,0,9,2.91,9,6.5V984c0,3.59-4,6.51-9,6.51L660.74,946.88c-.1,0,17.62-28.41,17.52-28.42l-35.5,18.18c-2.15,0-21.36,12.39-21.36,10.24l-59.21,20.63V939.76a3.88,3.88,0,0,1,3.88-3.88h7.62V925.46h-7.62a3.88,3.88,0,0,1-3.88-3.88V874.74a3.88,3.88,0,0,1,3.88-3.89h7.62V860.44h-7.62a3.87,3.87,0,0,1-3.88-3.88V809.71a3.88,3.88,0,0,1,3.88-3.88h7.62V795.41h-7.62a3.88,3.88,0,0,1-3.88-3.88V744.69a3.88,3.88,0,0,1,3.88-3.89h7.62V730.39h-2.56c-4.94,0-8.94-2.92-8.94-6.51v-41.6c0-3.59,4-6.5,8.94-6.5H714.76L712.51,786.4c4.94,0-30.08-25.49-30.08-21.9l148.19-40.62c0,3.59-4,6.51-9,6.51Z"/></g></g></g></g><g id="Group_7367-2" data-name="Group 7367"><g id="Group_7365" data-name="Group 7365"><g id="Group_7180" data-name="Group 7180"><g id="Group_5583" data-name="Group 5583"><g id="Group_5582" data-name="Group 5582"><g id="Group_5581" data-name="Group 5581"><rect id="Rectangle_1565" data-name="Rectangle 1565" class="cls-33" x="589.69" y="738.22" width="245.09" height="19.03"/><path id="Path_3764" data-name="Path 3764" class="cls-34" d="M587.14,686.78H837.67c5,0,9,2.91,9,6.5v41.61c0,3.59-4,6.5-9,6.5H587.14c-4.94,0-8.95-2.91-8.95-6.5V693.28C578.19,689.69,582.2,686.78,587.14,686.78Z"/></g></g></g></g></g><g id="Group_7365-2" data-name="Group 7365-2"><g id="Group_7180-2" data-name="Group 7180-2"><g id="Group_5583-2" data-name="Group 5583-2"><g id="Group_5582-2" data-name="Group 5582-2"><g id="Group_5581-2" data-name="Group 5581-2"><rect id="Rectangle_1565-2" data-name="Rectangle 1565-2" class="cls-33" x="589.69" y="803.25" width="245.09" height="19.03"/><path id="Path_3764-2" data-name="Path 3764-2" class="cls-35" d="M587.14,751.81H837.67c5,0,9,2.91,9,6.5v41.6c0,3.59-4,6.5-9,6.5H587.14c-4.94,0-8.95-2.91-8.95-6.5v-41.6C578.19,754.72,582.2,751.81,587.14,751.81Z"/><path id="Rectangle_1631-2" data-name="Rectangle 1631-2" class="cls-10" d="M582.07,751.81h86.69v54.6H582.07a3.88,3.88,0,0,1-3.88-3.88V755.69A3.88,3.88,0,0,1,582.07,751.81Z"/></g></g></g></g><g id="Group_7183-2" data-name="Group 7183-2"><g id="Group_5584-2" data-name="Group 5584-2"><path id="Rectangle_1405-2-2" data-name="Rectangle 1405-2" class="cls-36" d="M747.25,771.36h0a2.84,2.84,0,0,1,2.84,2.84h0a2.84,2.84,0,0,1-2.84,2.84h0a2.84,2.84,0,0,1-2.84-2.84h0A2.84,2.84,0,0,1,747.25,771.36Z"/><path id="Rectangle_1424-2-2" data-name="Rectangle 1424-2" class="cls-18" d="M754.07,782.73h0a2.85,2.85,0,0,1,2.85,2.84h0a2.85,2.85,0,0,1-2.85,2.84h0a2.84,2.84,0,0,1-2.84-2.84h0A2.84,2.84,0,0,1,754.07,782.73Z"/><path id="Rectangle_1406-2-2" data-name="Rectangle 1406-2" class="cls-36" d="M758.62,771.36h0a2.84,2.84,0,0,1,2.84,2.84h0a2.84,2.84,0,0,1-2.84,2.84h0a2.84,2.84,0,0,1-2.84-2.84h0A2.84,2.84,0,0,1,758.62,771.36Z"/><path id="Rectangle_1423-2-2" data-name="Rectangle 1423-2" class="cls-36" d="M765.44,782.73h0a2.85,2.85,0,0,1,2.85,2.84h0a2.85,2.85,0,0,1-2.85,2.84h0a2.84,2.84,0,0,1-2.84-2.84h0A2.84,2.84,0,0,1,765.44,782.73Z"/><path id="Rectangle_1407-2-2" data-name="Rectangle 1407-2" class="cls-16" d="M770,771.36h0a2.84,2.84,0,0,1,2.84,2.84h0A2.84,2.84,0,0,1,770,777h0a2.84,2.84,0,0,1-2.84-2.84h0A2.84,2.84,0,0,1,770,771.36Z"/><path id="Rectangle_1422-2-2" data-name="Rectangle 1422-2" class="cls-36" d="M776.81,782.73h0a2.84,2.84,0,0,1,2.84,2.84h0a2.84,2.84,0,0,1-2.84,2.84h0a2.84,2.84,0,0,1-2.84-2.84h0A2.84,2.84,0,0,1,776.81,782.73Z"/><path id="Rectangle_1408-2-2" data-name="Rectangle 1408-2" class="cls-36" d="M781.36,771.36h0a2.84,2.84,0,0,1,2.84,2.84h0a2.84,2.84,0,0,1-2.84,2.84h0a2.84,2.84,0,0,1-2.84-2.84h0A2.84,2.84,0,0,1,781.36,771.36Z"/><path id="Rectangle_1421-2-2" data-name="Rectangle 1421-2" class="cls-18" d="M788.18,782.73h0a2.84,2.84,0,0,1,2.84,2.84h0a2.84,2.84,0,0,1-2.84,2.84h0a2.84,2.84,0,0,1-2.84-2.84h0A2.84,2.84,0,0,1,788.18,782.73Z"/><path id="Rectangle_1409-2-2" data-name="Rectangle 1409-2" class="cls-36" d="M792.73,771.36h0a2.84,2.84,0,0,1,2.84,2.84h0a2.84,2.84,0,0,1-2.84,2.84h0a2.84,2.84,0,0,1-2.84-2.84h0A2.84,2.84,0,0,1,792.73,771.36Z"/><path id="Rectangle_1420-2-2" data-name="Rectangle 1420-2" class="cls-36" d="M799.55,782.73h0a2.84,2.84,0,0,1,2.84,2.84h0a2.84,2.84,0,0,1-2.84,2.84h0a2.84,2.84,0,0,1-2.84-2.84h0A2.84,2.84,0,0,1,799.55,782.73Z"/></g></g><g id="Ellipse_1402-2" data-name="Ellipse 1402-2"><circle class="cls-5" cx="819.42" cy="779.42" r="4.84"/><circle class="cls-37" cx="819.42" cy="779.42" r="3.86"/></g><path id="Rectangle_3126-2" data-name="Rectangle 3126-2" class="cls-36" d="M734,769.21h0a2.15,2.15,0,0,1,2.15,2.15v16.12a2.15,2.15,0,0,1-2.15,2.15h0a2.16,2.16,0,0,1-2.15-2.15V771.36A2.15,2.15,0,0,1,734,769.21Z"/><path id="Rectangle_3127-2" data-name="Rectangle 3127-2" class="cls-36" d="M725.41,769.21h0a2.15,2.15,0,0,1,2.15,2.15v16.12a2.16,2.16,0,0,1-2.15,2.15h0a2.15,2.15,0,0,1-2.15-2.15V771.36A2.15,2.15,0,0,1,725.41,769.21Z"/><rect id="Rectangle_3128-2" data-name="Rectangle 3128-2" class="cls-10" x="682.43" y="769.21" width="34.38" height="8.59"/><rect id="Rectangle_3129-2" data-name="Rectangle 3129-2" class="cls-10" x="682.43" y="781.03" width="34.38" height="8.59"/><path id="Rectangle_3130-2" data-name="Rectangle 3130-2" class="cls-16" d="M731.85,773.51h4.3v14a2.14,2.14,0,0,1-2.15,2.14h0a2.15,2.15,0,0,1-2.15-2.14v-14Z"/><path id="Rectangle_3131-2" data-name="Rectangle 3131-2" class="cls-18" d="M723.26,781.69h4.3v5.79a2.15,2.15,0,0,1-2.15,2.14h0a2.14,2.14,0,0,1-2.15-2.14h0v-5.79Z"/><rect id="Rectangle_3132-2" data-name="Rectangle 3132-2" class="cls-38" x="682.43" y="769.21" width="8.59" height="8.59"/><rect id="Rectangle_3133-2" data-name="Rectangle 3133-2" class="cls-38" x="682.43" y="781.03" width="8.59" height="8.59"/><rect id="Rectangle_3136-2" data-name="Rectangle 3136-2" class="cls-4" x="695.32" y="772.43" width="17.19" height="2.15"/><rect id="Rectangle_3137-2" data-name="Rectangle 3137-2" class="cls-4" x="695.32" y="784.25" width="17.19" height="2.15"/><g id="Ellipse_1403-2" data-name="Ellipse 1403-2"><circle class="cls-5" cx="819.42" cy="779.42" r="10.21"/><circle class="cls-39" cx="819.42" cy="779.42" r="9.24"/></g><g id="Group_7379" data-name="Group 7379"><g id="Group_7359-2" data-name="Group 7359-2"><path id="Rectangle_3070-5" data-name="Rectangle 3070-5" class="cls-4" d="M644.29,787.73h0a3.55,3.55,0,0,1,3.55,3.55v.28a3.55,3.55,0,0,1-3.55,3.55h0a3.55,3.55,0,0,1-3.55-3.55v-.28A3.55,3.55,0,0,1,644.29,787.73Z"/><path id="Rectangle_3138-2" data-name="Rectangle 3138-2" class="cls-3" d="M644.5,767h0a1.61,1.61,0,0,1,1.61,1.61v14a1.61,1.61,0,0,1-1.61,1.61h0a1.61,1.61,0,0,1-1.61-1.61v-14A1.61,1.61,0,0,1,644.5,767Z"/></g><g id="Group_7360-2" data-name="Group 7360-2"><path id="Rectangle_1442-9" data-name="Rectangle 1442-9" class="cls-17" d="M633.54,787.73h0a3.55,3.55,0,0,1,3.55,3.55v.28a3.55,3.55,0,0,1-3.55,3.55h0a3.55,3.55,0,0,1-3.55-3.55v-.28A3.55,3.55,0,0,1,633.54,787.73Z"/><path id="Rectangle_3139-2" data-name="Rectangle 3139-2" class="cls-27" d="M633.75,773.4h0a1.63,1.63,0,0,1,1.62,1.62v7.52a1.62,1.62,0,0,1-1.62,1.61h0a1.61,1.61,0,0,1-1.61-1.61V775A1.62,1.62,0,0,1,633.75,773.4Z"/></g><g id="Group_7361-2" data-name="Group 7361-2"><path id="Rectangle_1425-9" data-name="Rectangle 1425-9" class="cls-4" d="M622.8,787.73h0a3.55,3.55,0,0,1,3.55,3.55v.28a3.55,3.55,0,0,1-3.55,3.55h0a3.55,3.55,0,0,1-3.55-3.55v-.28A3.55,3.55,0,0,1,622.8,787.73Z"/><path id="Rectangle_3140-2" data-name="Rectangle 3140-2" class="cls-3" d="M623,764.5h0a1.61,1.61,0,0,1,1.61,1.61v16.43a1.61,1.61,0,0,1-1.61,1.61h0a1.61,1.61,0,0,1-1.61-1.61V766.11A1.61,1.61,0,0,1,623,764.5Z"/></g><g id="Group_7362-2" data-name="Group 7362-2"><path id="Rectangle_1442-10" data-name="Rectangle 1442-10" class="cls-16" d="M612.05,787.73h0a3.54,3.54,0,0,1,3.55,3.55v.28a3.54,3.54,0,0,1-3.55,3.55h0a3.54,3.54,0,0,1-3.54-3.55v-.28A3.54,3.54,0,0,1,612.05,787.73Z"/><path id="Rectangle_3141-2" data-name="Rectangle 3141-2" class="cls-16" d="M612.27,768.59h0a1.61,1.61,0,0,1,1.61,1.61v12.34a1.61,1.61,0,0,1-1.61,1.61h0a1.62,1.62,0,0,1-1.62-1.61V770.2A1.62,1.62,0,0,1,612.27,768.59Z"/></g><g id="Group_7363-2" data-name="Group 7363-2"><path id="Rectangle_1425-10" data-name="Rectangle 1425-10" class="cls-18" d="M601.31,787.73h0a3.55,3.55,0,0,1,3.55,3.55v.28a3.55,3.55,0,0,1-3.55,3.55h0a3.55,3.55,0,0,1-3.55-3.55v-.28A3.55,3.55,0,0,1,601.31,787.73Z"/><path id="Rectangle_3142-2" data-name="Rectangle 3142-2" class="cls-18" d="M601.52,775.55h0a1.61,1.61,0,0,1,1.61,1.61v5.38a1.61,1.61,0,0,1-1.61,1.61h0a1.61,1.61,0,0,1-1.61-1.61v-5.38A1.61,1.61,0,0,1,601.52,775.55Z"/></g></g></g><g id="Group_7365-3" data-name="Group 7365-3"><g id="Group_7180-3" data-name="Group 7180-3"><g id="Group_5583-3" data-name="Group 5583-3"><g id="Group_5582-3" data-name="Group 5582-3"><g id="Group_5581-3" data-name="Group 5581-3"><rect id="Rectangle_1565-3" data-name="Rectangle 1565-3" class="cls-33" x="589.69" y="868.27" width="245.09" height="19.03"/><path id="Path_3764-3" data-name="Path 3764-3" class="cls-35" d="M587.14,816.83H837.67c5,0,9,2.91,9,6.5v41.61c0,3.59-4,6.5-9,6.5H587.14c-4.94,0-8.95-2.91-8.95-6.5V823.33C578.19,819.74,582.2,816.83,587.14,816.83Z"/><path id="Rectangle_1631-3" data-name="Rectangle 1631-3" class="cls-10" d="M582.07,816.83h86.69v54.61H582.07a3.89,3.89,0,0,1-3.88-3.89V820.71A3.88,3.88,0,0,1,582.07,816.83Z"/></g></g></g></g><g id="Group_7183-3" data-name="Group 7183-3"><g id="Group_5584-3" data-name="Group 5584-3"><path id="Rectangle_1405-3-2" data-name="Rectangle 1405-3" class="cls-36" d="M747.25,836.38h0a2.85,2.85,0,0,1,2.84,2.85h0a2.84,2.84,0,0,1-2.84,2.84h0a2.84,2.84,0,0,1-2.84-2.84h0A2.85,2.85,0,0,1,747.25,836.38Z"/><path id="Rectangle_1424-3-2" data-name="Rectangle 1424-3" class="cls-18" d="M754.07,847.75h0a2.86,2.86,0,0,1,2.85,2.85h0a2.85,2.85,0,0,1-2.85,2.84h0a2.84,2.84,0,0,1-2.84-2.84h0A2.85,2.85,0,0,1,754.07,847.75Z"/><path id="Rectangle_1406-3-2" data-name="Rectangle 1406-3" class="cls-36" d="M758.62,836.38h0a2.85,2.85,0,0,1,2.84,2.85h0a2.84,2.84,0,0,1-2.84,2.84h0a2.84,2.84,0,0,1-2.84-2.84h0A2.85,2.85,0,0,1,758.62,836.38Z"/><path id="Rectangle_1423-3-2" data-name="Rectangle 1423-3" class="cls-36" d="M765.44,847.75h0a2.86,2.86,0,0,1,2.85,2.85h0a2.85,2.85,0,0,1-2.85,2.84h0a2.84,2.84,0,0,1-2.84-2.84h0A2.85,2.85,0,0,1,765.44,847.75Z"/><path id="Rectangle_1407-3-2" data-name="Rectangle 1407-3" class="cls-16" d="M770,836.38h0a2.85,2.85,0,0,1,2.84,2.85h0a2.84,2.84,0,0,1-2.84,2.84h0a2.84,2.84,0,0,1-2.84-2.84h0A2.85,2.85,0,0,1,770,836.38Z"/><path id="Rectangle_1422-3-2" data-name="Rectangle 1422-3" class="cls-36" d="M776.81,847.75h0a2.85,2.85,0,0,1,2.84,2.85h0a2.84,2.84,0,0,1-2.84,2.84h0A2.84,2.84,0,0,1,774,850.6h0A2.85,2.85,0,0,1,776.81,847.75Z"/><path id="Rectangle_1408-3-2" data-name="Rectangle 1408-3" class="cls-36" d="M781.36,836.38h0a2.85,2.85,0,0,1,2.84,2.85h0a2.84,2.84,0,0,1-2.84,2.84h0a2.84,2.84,0,0,1-2.84-2.84h0A2.85,2.85,0,0,1,781.36,836.38Z"/><path id="Rectangle_1421-3-2" data-name="Rectangle 1421-3" class="cls-18" d="M788.18,847.75h0A2.85,2.85,0,0,1,791,850.6h0a2.84,2.84,0,0,1-2.84,2.84h0a2.84,2.84,0,0,1-2.84-2.84h0A2.85,2.85,0,0,1,788.18,847.75Z"/><path id="Rectangle_1409-3-2" data-name="Rectangle 1409-3" class="cls-36" d="M792.73,836.38h0a2.85,2.85,0,0,1,2.84,2.85h0a2.84,2.84,0,0,1-2.84,2.84h0a2.84,2.84,0,0,1-2.84-2.84h0A2.85,2.85,0,0,1,792.73,836.38Z"/><path id="Rectangle_1420-3-2" data-name="Rectangle 1420-3" class="cls-36" d="M799.55,847.75h0a2.85,2.85,0,0,1,2.84,2.85h0a2.84,2.84,0,0,1-2.84,2.84h0a2.84,2.84,0,0,1-2.84-2.84h0A2.85,2.85,0,0,1,799.55,847.75Z"/></g></g><g id="Ellipse_1402-3" data-name="Ellipse 1402-3"><circle class="cls-5" cx="819.42" cy="844.44" r="4.84"/><circle class="cls-37" cx="819.42" cy="844.44" r="3.86"/></g><path id="Rectangle_3126-3" data-name="Rectangle 3126-3" class="cls-36" d="M734,834.24h0a2.14,2.14,0,0,1,2.15,2.14V852.5a2.15,2.15,0,0,1-2.15,2.15h0a2.15,2.15,0,0,1-2.15-2.15V836.38A2.15,2.15,0,0,1,734,834.24Z"/><path id="Rectangle_3127-3" data-name="Rectangle 3127-3" class="cls-36" d="M725.41,834.24h0a2.15,2.15,0,0,1,2.15,2.14V852.5a2.15,2.15,0,0,1-2.15,2.15h0a2.15,2.15,0,0,1-2.15-2.15V836.38A2.14,2.14,0,0,1,725.41,834.24Z"/><rect id="Rectangle_3128-3" data-name="Rectangle 3128-3" class="cls-10" x="682.43" y="834.24" width="34.38" height="8.59"/><rect id="Rectangle_3129-3" data-name="Rectangle 3129-3" class="cls-10" x="682.43" y="846.05" width="34.38" height="8.59"/><path id="Rectangle_3130-3" data-name="Rectangle 3130-3" class="cls-16" d="M731.85,838.53h4.3v14a2.15,2.15,0,0,1-2.15,2.15h0a2.15,2.15,0,0,1-2.15-2.15v-14Z"/><path id="Rectangle_3131-3" data-name="Rectangle 3131-3" class="cls-18" d="M723.26,846.71h4.3v5.79a2.15,2.15,0,0,1-2.15,2.15h0a2.15,2.15,0,0,1-2.15-2.15h0v-5.79Z"/><rect id="Rectangle_3132-3" data-name="Rectangle 3132-3" class="cls-38" x="682.43" y="834.24" width="8.59" height="8.59"/><rect id="Rectangle_3133-3" data-name="Rectangle 3133-3" class="cls-38" x="682.43" y="846.05" width="8.59" height="8.59"/><rect id="Rectangle_3136-3" data-name="Rectangle 3136-3" class="cls-4" x="695.32" y="837.46" width="17.19" height="2.15"/><rect id="Rectangle_3137-3" data-name="Rectangle 3137-3" class="cls-4" x="695.32" y="849.28" width="17.19" height="2.15"/><g id="Ellipse_1403-3" data-name="Ellipse 1403-3"><circle class="cls-5" cx="819.42" cy="844.44" r="10.21"/><circle class="cls-39" cx="819.42" cy="844.44" r="9.24"/></g><g id="Group_7380" data-name="Group 7380"><g id="Group_7359-3" data-name="Group 7359-3"><path id="Rectangle_3070-6" data-name="Rectangle 3070-6" class="cls-4" d="M644.29,852.75h0a3.55,3.55,0,0,1,3.55,3.55v.28a3.55,3.55,0,0,1-3.55,3.55h0a3.55,3.55,0,0,1-3.55-3.55v-.28A3.55,3.55,0,0,1,644.29,852.75Z"/><path id="Rectangle_3138-3" data-name="Rectangle 3138-3" class="cls-3" d="M644.5,832h0a1.61,1.61,0,0,1,1.61,1.61v14a1.61,1.61,0,0,1-1.61,1.61h0a1.61,1.61,0,0,1-1.61-1.61v-14A1.61,1.61,0,0,1,644.5,832Z"/></g><g id="Group_7360-3" data-name="Group 7360-3"><path id="Rectangle_1442-11" data-name="Rectangle 1442-11" class="cls-17" d="M633.54,852.75h0a3.55,3.55,0,0,1,3.55,3.55v.28a3.55,3.55,0,0,1-3.55,3.55h0a3.55,3.55,0,0,1-3.55-3.55v-.28A3.55,3.55,0,0,1,633.54,852.75Z"/><path id="Rectangle_3139-3" data-name="Rectangle 3139-3" class="cls-27" d="M633.75,838.43h0a1.62,1.62,0,0,1,1.62,1.61v7.52a1.62,1.62,0,0,1-1.62,1.61h0a1.61,1.61,0,0,1-1.61-1.61V840A1.61,1.61,0,0,1,633.75,838.43Z"/></g><g id="Group_7361-3" data-name="Group 7361-3"><path id="Rectangle_1425-11" data-name="Rectangle 1425-11" class="cls-4" d="M622.8,852.75h0a3.55,3.55,0,0,1,3.55,3.55v.28a3.55,3.55,0,0,1-3.55,3.55h0a3.55,3.55,0,0,1-3.55-3.55v-.28A3.55,3.55,0,0,1,622.8,852.75Z"/><path id="Rectangle_3140-3" data-name="Rectangle 3140-3" class="cls-3" d="M623,829.52h0a1.61,1.61,0,0,1,1.61,1.61v16.43a1.61,1.61,0,0,1-1.61,1.61h0a1.61,1.61,0,0,1-1.61-1.61V831.13A1.61,1.61,0,0,1,623,829.52Z"/></g><g id="Group_7362-3" data-name="Group 7362-3"><path id="Rectangle_1442-12" data-name="Rectangle 1442-12" class="cls-16" d="M612.05,852.75h0a3.54,3.54,0,0,1,3.55,3.55v.28a3.54,3.54,0,0,1-3.55,3.55h0a3.54,3.54,0,0,1-3.54-3.55v-.28A3.54,3.54,0,0,1,612.05,852.75Z"/><path id="Rectangle_3141-3" data-name="Rectangle 3141-3" class="cls-16" d="M612.27,833.61h0a1.61,1.61,0,0,1,1.61,1.61v12.34a1.61,1.61,0,0,1-1.61,1.61h0a1.62,1.62,0,0,1-1.62-1.61V835.22A1.62,1.62,0,0,1,612.27,833.61Z"/></g><g id="Group_7363-3" data-name="Group 7363-3"><path id="Rectangle_1425-12" data-name="Rectangle 1425-12" class="cls-18" d="M601.31,852.75h0a3.55,3.55,0,0,1,3.55,3.55v.28a3.55,3.55,0,0,1-3.55,3.55h0a3.55,3.55,0,0,1-3.55-3.55v-.28A3.55,3.55,0,0,1,601.31,852.75Z"/><path id="Rectangle_3142-3" data-name="Rectangle 3142-3" class="cls-18" d="M601.52,840.58h0a1.61,1.61,0,0,1,1.61,1.61v5.37a1.61,1.61,0,0,1-1.61,1.61h0a1.61,1.61,0,0,1-1.61-1.61v-5.37A1.61,1.61,0,0,1,601.52,840.58Z"/></g></g></g><g id="Group_7365-4" data-name="Group 7365-4"><g id="Group_7180-4" data-name="Group 7180-4"><g id="Group_5583-4" data-name="Group 5583-4"><g id="Group_5582-4" data-name="Group 5582-4"><g id="Group_5581-4" data-name="Group 5581-4"><rect id="Rectangle_1565-4" data-name="Rectangle 1565-4" class="cls-33" x="589.69" y="933.3" width="245.09" height="19.03"/><path id="Path_3764-4" data-name="Path 3764-4" class="cls-35" d="M587.14,881.86H837.67c5,0,9,2.91,9,6.5V930c0,3.59-4,6.5-9,6.5H587.14c-4.94,0-8.95-2.91-8.95-6.5v-41.6C578.19,884.77,582.2,881.86,587.14,881.86Z"/><path id="Rectangle_1631-4" data-name="Rectangle 1631-4" class="cls-10" d="M582.07,881.86h86.69v54.6H582.07a3.88,3.88,0,0,1-3.88-3.88V885.74A3.88,3.88,0,0,1,582.07,881.86Z"/></g></g></g></g><g id="Group_7183-4" data-name="Group 7183-4"><g id="Group_5584-4" data-name="Group 5584-4"><path id="Rectangle_1405-4-2" data-name="Rectangle 1405-4" class="cls-36" d="M747.25,901.41h0a2.84,2.84,0,0,1,2.84,2.84h0a2.84,2.84,0,0,1-2.84,2.84h0a2.84,2.84,0,0,1-2.84-2.84h0A2.84,2.84,0,0,1,747.25,901.41Z"/><path id="Rectangle_1424-4-2" data-name="Rectangle 1424-4" class="cls-18" d="M754.07,912.78h0a2.85,2.85,0,0,1,2.85,2.84h0a2.85,2.85,0,0,1-2.85,2.84h0a2.84,2.84,0,0,1-2.84-2.84h0A2.84,2.84,0,0,1,754.07,912.78Z"/><path id="Rectangle_1406-4-2" data-name="Rectangle 1406-4" class="cls-36" d="M758.62,901.41h0a2.84,2.84,0,0,1,2.84,2.84h0a2.84,2.84,0,0,1-2.84,2.84h0a2.84,2.84,0,0,1-2.84-2.84h0A2.84,2.84,0,0,1,758.62,901.41Z"/><path id="Rectangle_1423-4-2" data-name="Rectangle 1423-4" class="cls-36" d="M765.44,912.78h0a2.85,2.85,0,0,1,2.85,2.84h0a2.85,2.85,0,0,1-2.85,2.84h0a2.84,2.84,0,0,1-2.84-2.84h0A2.84,2.84,0,0,1,765.44,912.78Z"/><path id="Rectangle_1407-4-2" data-name="Rectangle 1407-4" class="cls-16" d="M770,901.41h0a2.84,2.84,0,0,1,2.84,2.84h0a2.84,2.84,0,0,1-2.84,2.84h0a2.84,2.84,0,0,1-2.84-2.84h0A2.84,2.84,0,0,1,770,901.41Z"/><path id="Rectangle_1422-4-2" data-name="Rectangle 1422-4" class="cls-36" d="M776.81,912.78h0a2.84,2.84,0,0,1,2.84,2.84h0a2.84,2.84,0,0,1-2.84,2.84h0a2.84,2.84,0,0,1-2.84-2.84h0A2.84,2.84,0,0,1,776.81,912.78Z"/><path id="Rectangle_1408-4-2" data-name="Rectangle 1408-4" class="cls-36" d="M781.36,901.41h0a2.84,2.84,0,0,1,2.84,2.84h0a2.84,2.84,0,0,1-2.84,2.84h0a2.84,2.84,0,0,1-2.84-2.84h0A2.84,2.84,0,0,1,781.36,901.41Z"/><path id="Rectangle_1421-4-2" data-name="Rectangle 1421-4" class="cls-18" d="M788.18,912.78h0a2.84,2.84,0,0,1,2.84,2.84h0a2.84,2.84,0,0,1-2.84,2.84h0a2.84,2.84,0,0,1-2.84-2.84h0A2.84,2.84,0,0,1,788.18,912.78Z"/><path id="Rectangle_1409-4-2" data-name="Rectangle 1409-4" class="cls-36" d="M792.73,901.41h0a2.84,2.84,0,0,1,2.84,2.84h0a2.84,2.84,0,0,1-2.84,2.84h0a2.84,2.84,0,0,1-2.84-2.84h0A2.84,2.84,0,0,1,792.73,901.41Z"/><path id="Rectangle_1420-4-2" data-name="Rectangle 1420-4" class="cls-36" d="M799.55,912.78h0a2.84,2.84,0,0,1,2.84,2.84h0a2.84,2.84,0,0,1-2.84,2.84h0a2.84,2.84,0,0,1-2.84-2.84h0A2.84,2.84,0,0,1,799.55,912.78Z"/></g></g><g id="Ellipse_1402-4" data-name="Ellipse 1402-4"><circle class="cls-5" cx="819.42" cy="909.47" r="4.84"/><circle class="cls-37" cx="819.42" cy="909.47" r="3.86"/></g><path id="Rectangle_3126-4" data-name="Rectangle 3126-4" class="cls-36" d="M734,899.26h0a2.15,2.15,0,0,1,2.15,2.15v16.12a2.15,2.15,0,0,1-2.15,2.15h0a2.16,2.16,0,0,1-2.15-2.15V901.41A2.15,2.15,0,0,1,734,899.26Z"/><path id="Rectangle_3127-4" data-name="Rectangle 3127-4" class="cls-36" d="M725.41,899.26h0a2.15,2.15,0,0,1,2.15,2.15v16.12a2.16,2.16,0,0,1-2.15,2.15h0a2.15,2.15,0,0,1-2.15-2.15V901.41A2.15,2.15,0,0,1,725.41,899.26Z"/><rect id="Rectangle_3128-4" data-name="Rectangle 3128-4" class="cls-10" x="682.43" y="899.26" width="34.38" height="8.59"/><rect id="Rectangle_3129-4" data-name="Rectangle 3129-4" class="cls-10" x="682.43" y="911.08" width="34.38" height="8.59"/><path id="Rectangle_3130-4" data-name="Rectangle 3130-4" class="cls-16" d="M731.85,903.56h4.3v14a2.14,2.14,0,0,1-2.15,2.14h0a2.15,2.15,0,0,1-2.15-2.14v-14Z"/><path id="Rectangle_3131-4" data-name="Rectangle 3131-4" class="cls-18" d="M723.26,911.74h4.3v5.79a2.15,2.15,0,0,1-2.15,2.14h0a2.14,2.14,0,0,1-2.15-2.14h0v-5.79Z"/><rect id="Rectangle_3132-4" data-name="Rectangle 3132-4" class="cls-38" x="682.43" y="899.26" width="8.59" height="8.59"/><rect id="Rectangle_3133-4" data-name="Rectangle 3133-4" class="cls-38" x="682.43" y="911.08" width="8.59" height="8.59"/><rect id="Rectangle_3136-4" data-name="Rectangle 3136-4" class="cls-4" x="695.32" y="902.48" width="17.19" height="2.15"/><rect id="Rectangle_3137-4" data-name="Rectangle 3137-4" class="cls-4" x="695.32" y="914.3" width="17.19" height="2.15"/><g id="Ellipse_1403-4" data-name="Ellipse 1403-4"><circle class="cls-5" cx="819.42" cy="909.47" r="10.21"/><circle class="cls-39" cx="819.42" cy="909.47" r="9.24"/></g><g id="Group_7381" data-name="Group 7381"><g id="Group_7359-4" data-name="Group 7359-4"><path id="Rectangle_3070-7" data-name="Rectangle 3070-7" class="cls-4" d="M644.29,917.78h0a3.55,3.55,0,0,1,3.55,3.55v.28a3.55,3.55,0,0,1-3.55,3.55h0a3.55,3.55,0,0,1-3.55-3.55v-.28A3.55,3.55,0,0,1,644.29,917.78Z"/><path id="Rectangle_3138-4" data-name="Rectangle 3138-4" class="cls-3" d="M644.5,897h0a1.61,1.61,0,0,1,1.61,1.61v14a1.61,1.61,0,0,1-1.61,1.61h0a1.61,1.61,0,0,1-1.61-1.61v-14A1.61,1.61,0,0,1,644.5,897Z"/></g><g id="Group_7360-4" data-name="Group 7360-4"><path id="Rectangle_1442-13" data-name="Rectangle 1442-13" class="cls-17" d="M633.54,917.78h0a3.55,3.55,0,0,1,3.55,3.55v.28a3.55,3.55,0,0,1-3.55,3.55h0a3.55,3.55,0,0,1-3.55-3.55v-.28A3.55,3.55,0,0,1,633.54,917.78Z"/><path id="Rectangle_3139-4" data-name="Rectangle 3139-4" class="cls-27" d="M633.75,903.45h0a1.63,1.63,0,0,1,1.62,1.62v7.52a1.62,1.62,0,0,1-1.62,1.61h0a1.61,1.61,0,0,1-1.61-1.61v-7.52A1.62,1.62,0,0,1,633.75,903.45Z"/></g><g id="Group_7361-4" data-name="Group 7361-4"><path id="Rectangle_1425-13" data-name="Rectangle 1425-13" class="cls-4" d="M622.8,917.78h0a3.55,3.55,0,0,1,3.55,3.55v.28a3.55,3.55,0,0,1-3.55,3.55h0a3.55,3.55,0,0,1-3.55-3.55v-.28A3.55,3.55,0,0,1,622.8,917.78Z"/><path id="Rectangle_3140-4" data-name="Rectangle 3140-4" class="cls-3" d="M623,894.55h0a1.61,1.61,0,0,1,1.61,1.61v16.43A1.61,1.61,0,0,1,623,914.2h0a1.61,1.61,0,0,1-1.61-1.61V896.16A1.61,1.61,0,0,1,623,894.55Z"/></g><g id="Group_7362-4" data-name="Group 7362-4"><path id="Rectangle_1442-14" data-name="Rectangle 1442-14" class="cls-16" d="M612.05,917.78h0a3.54,3.54,0,0,1,3.55,3.55v.28a3.54,3.54,0,0,1-3.55,3.55h0a3.54,3.54,0,0,1-3.54-3.55v-.28A3.54,3.54,0,0,1,612.05,917.78Z"/><path id="Rectangle_3141-4" data-name="Rectangle 3141-4" class="cls-16" d="M612.27,898.64h0a1.61,1.61,0,0,1,1.61,1.61v12.34a1.61,1.61,0,0,1-1.61,1.61h0a1.62,1.62,0,0,1-1.62-1.61V900.25A1.62,1.62,0,0,1,612.27,898.64Z"/></g><g id="Group_7363-4" data-name="Group 7363-4"><path id="Rectangle_1425-14" data-name="Rectangle 1425-14" class="cls-18" d="M601.31,917.78h0a3.55,3.55,0,0,1,3.55,3.55v.28a3.55,3.55,0,0,1-3.55,3.55h0a3.55,3.55,0,0,1-3.55-3.55v-.28A3.55,3.55,0,0,1,601.31,917.78Z"/><path id="Rectangle_3142-4" data-name="Rectangle 3142-4" class="cls-18" d="M601.52,905.6h0a1.61,1.61,0,0,1,1.61,1.61v5.38a1.61,1.61,0,0,1-1.61,1.61h0a1.61,1.61,0,0,1-1.61-1.61v-5.38A1.61,1.61,0,0,1,601.52,905.6Z"/></g></g></g><g id="Group_7365-5-2" data-name="Group 7365-5"><g id="Group_7180-5" data-name="Group 7180-5"><g id="Group_5583-5" data-name="Group 5583-5"><g id="Group_5582-5" data-name="Group 5582-5"><g id="Group_5581-5" data-name="Group 5581-5"><path id="Path_3764-5" data-name="Path 3764-5" class="cls-35" d="M587.14,946.88H837.67c5,0,9,2.91,9,6.5V995c0,3.59-4,6.5-9,6.5H587.14c-4.94,0-8.95-2.91-8.95-6.5V953.38C578.19,949.79,582.2,946.88,587.14,946.88Z"/><path id="Rectangle_1631-5" data-name="Rectangle 1631-5" class="cls-10" d="M582.07,946.88h86.69v54.61H582.07a3.89,3.89,0,0,1-3.88-3.89V950.76A3.88,3.88,0,0,1,582.07,946.88Z"/></g></g></g></g><g id="Group_7183-5" data-name="Group 7183-5"><g id="Group_5584-5" data-name="Group 5584-5"><path id="Rectangle_1405-5-2" data-name="Rectangle 1405-5" class="cls-36" d="M747.25,966.43h0a2.85,2.85,0,0,1,2.84,2.85h0a2.84,2.84,0,0,1-2.84,2.84h0a2.84,2.84,0,0,1-2.84-2.84h0A2.85,2.85,0,0,1,747.25,966.43Z"/><path id="Rectangle_1424-5-2" data-name="Rectangle 1424-5" class="cls-18" d="M754.07,977.8h0a2.86,2.86,0,0,1,2.85,2.85h0a2.85,2.85,0,0,1-2.85,2.84h0a2.84,2.84,0,0,1-2.84-2.84h0A2.85,2.85,0,0,1,754.07,977.8Z"/><path id="Rectangle_1406-5-2" data-name="Rectangle 1406-5" class="cls-36" d="M758.62,966.43h0a2.85,2.85,0,0,1,2.84,2.85h0a2.84,2.84,0,0,1-2.84,2.84h0a2.84,2.84,0,0,1-2.84-2.84h0A2.85,2.85,0,0,1,758.62,966.43Z"/><path id="Rectangle_1423-5-2" data-name="Rectangle 1423-5" class="cls-36" d="M765.44,977.8h0a2.86,2.86,0,0,1,2.85,2.85h0a2.85,2.85,0,0,1-2.85,2.84h0a2.84,2.84,0,0,1-2.84-2.84h0A2.85,2.85,0,0,1,765.44,977.8Z"/><path id="Rectangle_1407-5-2" data-name="Rectangle 1407-5" class="cls-16" d="M770,966.43h0a2.85,2.85,0,0,1,2.84,2.85h0a2.84,2.84,0,0,1-2.84,2.84h0a2.84,2.84,0,0,1-2.84-2.84h0A2.85,2.85,0,0,1,770,966.43Z"/><path id="Rectangle_1422-5-2" data-name="Rectangle 1422-5" class="cls-36" d="M776.81,977.8h0a2.85,2.85,0,0,1,2.84,2.85h0a2.84,2.84,0,0,1-2.84,2.84h0a2.84,2.84,0,0,1-2.84-2.84h0A2.85,2.85,0,0,1,776.81,977.8Z"/><path id="Rectangle_1408-5-2" data-name="Rectangle 1408-5" class="cls-36" d="M781.36,966.43h0a2.85,2.85,0,0,1,2.84,2.85h0a2.84,2.84,0,0,1-2.84,2.84h0a2.84,2.84,0,0,1-2.84-2.84h0A2.85,2.85,0,0,1,781.36,966.43Z"/><path id="Rectangle_1421-5-2" data-name="Rectangle 1421-5" class="cls-18" d="M788.18,977.8h0a2.85,2.85,0,0,1,2.84,2.85h0a2.84,2.84,0,0,1-2.84,2.84h0a2.84,2.84,0,0,1-2.84-2.84h0A2.85,2.85,0,0,1,788.18,977.8Z"/><path id="Rectangle_1409-5-2" data-name="Rectangle 1409-5" class="cls-36" d="M792.73,966.43h0a2.85,2.85,0,0,1,2.84,2.85h0a2.84,2.84,0,0,1-2.84,2.84h0a2.84,2.84,0,0,1-2.84-2.84h0A2.85,2.85,0,0,1,792.73,966.43Z"/><path id="Rectangle_1420-5-2" data-name="Rectangle 1420-5" class="cls-36" d="M799.55,977.8h0a2.85,2.85,0,0,1,2.84,2.85h0a2.84,2.84,0,0,1-2.84,2.84h0a2.84,2.84,0,0,1-2.84-2.84h0A2.85,2.85,0,0,1,799.55,977.8Z"/></g></g><g id="Ellipse_1402-5" data-name="Ellipse 1402-5"><circle class="cls-5" cx="819.42" cy="974.49" r="4.84"/><circle class="cls-37" cx="819.42" cy="974.49" r="3.86"/></g><path id="Rectangle_3126-5" data-name="Rectangle 3126-5" class="cls-36" d="M734,964.29h0a2.14,2.14,0,0,1,2.15,2.14v16.12A2.15,2.15,0,0,1,734,984.7h0a2.15,2.15,0,0,1-2.15-2.15V966.43A2.15,2.15,0,0,1,734,964.29Z"/><path id="Rectangle_3127-5" data-name="Rectangle 3127-5" class="cls-36" d="M725.41,964.29h0a2.15,2.15,0,0,1,2.15,2.14v16.12a2.15,2.15,0,0,1-2.15,2.15h0a2.15,2.15,0,0,1-2.15-2.15V966.43A2.14,2.14,0,0,1,725.41,964.29Z"/><rect id="Rectangle_3128-5" data-name="Rectangle 3128-5" class="cls-10" x="682.43" y="964.29" width="34.38" height="8.59"/><rect id="Rectangle_3129-5" data-name="Rectangle 3129-5" class="cls-10" x="682.43" y="976.1" width="34.38" height="8.59"/><path id="Rectangle_3130-5" data-name="Rectangle 3130-5" class="cls-16" d="M731.85,968.58h4.3v14A2.15,2.15,0,0,1,734,984.7h0a2.15,2.15,0,0,1-2.15-2.15v-14Z"/><path id="Rectangle_3131-5" data-name="Rectangle 3131-5" class="cls-18" d="M723.26,976.76h4.3v5.79a2.15,2.15,0,0,1-2.15,2.15h0a2.15,2.15,0,0,1-2.15-2.15h0v-5.79Z"/><rect id="Rectangle_3132-5" data-name="Rectangle 3132-5" class="cls-38" x="682.43" y="964.29" width="8.59" height="8.59"/><rect id="Rectangle_3133-5" data-name="Rectangle 3133-5" class="cls-38" x="682.43" y="976.1" width="8.59" height="8.59"/><rect id="Rectangle_3136-5" data-name="Rectangle 3136-5" class="cls-4" x="695.32" y="967.51" width="17.19" height="2.15"/><rect id="Rectangle_3137-5" data-name="Rectangle 3137-5" class="cls-4" x="695.32" y="979.33" width="17.19" height="2.15"/><g id="Ellipse_1403-5" data-name="Ellipse 1403-5"><circle class="cls-5" cx="819.42" cy="974.49" r="10.21"/><circle class="cls-39" cx="819.42" cy="974.49" r="9.24"/></g><g id="Group_7382-2" data-name="Group 7382"><g id="Group_7359-5" data-name="Group 7359-5"><path id="Rectangle_3070-8" data-name="Rectangle 3070-8" class="cls-4" d="M644.29,981.83h0a3.55,3.55,0,0,1,3.55,3.55v.28a3.55,3.55,0,0,1-3.55,3.55h0a3.55,3.55,0,0,1-3.55-3.55v-.28A3.55,3.55,0,0,1,644.29,981.83Z"/><path id="Rectangle_3138-5" data-name="Rectangle 3138-5" class="cls-3" d="M644.5,961.06h0a1.61,1.61,0,0,1,1.61,1.61v14a1.61,1.61,0,0,1-1.61,1.61h0a1.61,1.61,0,0,1-1.61-1.61v-14A1.61,1.61,0,0,1,644.5,961.06Z"/></g><g id="Group_7360-5" data-name="Group 7360-5"><path id="Rectangle_1442-15" data-name="Rectangle 1442-15" class="cls-17" d="M633.54,981.83h0a3.55,3.55,0,0,1,3.55,3.55v.28a3.55,3.55,0,0,1-3.55,3.55h0a3.55,3.55,0,0,1-3.55-3.55v-.28A3.55,3.55,0,0,1,633.54,981.83Z"/><path id="Rectangle_3139-5" data-name="Rectangle 3139-5" class="cls-27" d="M633.75,967.51h0a1.62,1.62,0,0,1,1.62,1.61v7.52a1.62,1.62,0,0,1-1.62,1.61h0a1.61,1.61,0,0,1-1.61-1.61v-7.52A1.61,1.61,0,0,1,633.75,967.51Z"/></g><g id="Group_7361-5" data-name="Group 7361-5"><path id="Rectangle_1425-15" data-name="Rectangle 1425-15" class="cls-4" d="M622.8,981.83h0a3.55,3.55,0,0,1,3.55,3.55v.28a3.55,3.55,0,0,1-3.55,3.55h0a3.55,3.55,0,0,1-3.55-3.55v-.28A3.55,3.55,0,0,1,622.8,981.83Z"/><path id="Rectangle_3140-5" data-name="Rectangle 3140-5" class="cls-3" d="M623,958.6h0a1.61,1.61,0,0,1,1.61,1.61v16.43a1.61,1.61,0,0,1-1.61,1.61h0a1.61,1.61,0,0,1-1.61-1.61V960.21A1.61,1.61,0,0,1,623,958.6Z"/></g><g id="Group_7362-5" data-name="Group 7362-5"><path id="Rectangle_1442-16" data-name="Rectangle 1442-16" class="cls-16" d="M612.05,981.83h0a3.54,3.54,0,0,1,3.55,3.55v.28a3.54,3.54,0,0,1-3.55,3.55h0a3.54,3.54,0,0,1-3.54-3.55v-.28A3.54,3.54,0,0,1,612.05,981.83Z"/><path id="Rectangle_3141-5" data-name="Rectangle 3141-5" class="cls-16" d="M612.27,962.69h0a1.61,1.61,0,0,1,1.61,1.61v12.34a1.61,1.61,0,0,1-1.61,1.61h0a1.62,1.62,0,0,1-1.62-1.61V964.3A1.62,1.62,0,0,1,612.27,962.69Z"/></g><g id="Group_7363-5-2" data-name="Group 7363-5"><path id="Rectangle_1425-16" data-name="Rectangle 1425-16" class="cls-18" d="M601.31,981.83h0a3.55,3.55,0,0,1,3.55,3.55v.28a3.55,3.55,0,0,1-3.55,3.55h0a3.55,3.55,0,0,1-3.55-3.55v-.28A3.55,3.55,0,0,1,601.31,981.83Z"/><path id="Rectangle_3142-5" data-name="Rectangle 3142-5" class="cls-18" d="M601.52,969.66h0a1.61,1.61,0,0,1,1.61,1.61v5.37a1.61,1.61,0,0,1-1.61,1.61h0a1.61,1.61,0,0,1-1.61-1.61v-5.37A1.61,1.61,0,0,1,601.52,969.66Z"/></g></g></g></g><g id="Layer_2" data-name="Layer 2"><g id="Layer_1-2" data-name="Layer 1-2"><path class="cls-27" d="M656.75,707h7.9l-1.22,4.68a3,3,0,0,1-1,1.58,2.87,2.87,0,0,1-1.78.59h-3.67a3.63,3.63,0,0,0-2.22.73,3.94,3.94,0,0,0-1.35,2,3.7,3.7,0,0,0-.05,1.78,3.89,3.89,0,0,0,.68,1.49,3.51,3.51,0,0,0,1.26,1,3.6,3.6,0,0,0,1.68.38h2.23a1.32,1.32,0,0,1,1,.51,1.23,1.23,0,0,1,.23,1.14l-1.4,5.17h-2.45A9.81,9.81,0,0,1,652,727a10.36,10.36,0,0,1-3.52-2.92,10.3,10.3,0,0,1-1.79-8.92l.14-.52a10.4,10.4,0,0,1,3.69-5.51,10.51,10.51,0,0,1,2.92-1.55A9.88,9.88,0,0,1,656.75,707Z"/><path class="cls-27" d="M660.74,728.07l6.89-25.81a3,3,0,0,1,1-1.57,2.85,2.85,0,0,1,1.78-.59h7.31a9.81,9.81,0,0,1,4.63,1.1,10.4,10.4,0,0,1,5.44,7.06,9.79,9.79,0,0,1-.14,4.78l-.14.53a10.39,10.39,0,0,1-1.4,3.09,10.2,10.2,0,0,1-8.53,4.56H671.3l1.26-4.72a2.87,2.87,0,0,1,1.05-1.53,2.82,2.82,0,0,1,1.78-.6h2a3.68,3.68,0,0,0,3.57-2.76,3.45,3.45,0,0,0,0-1.72,3.89,3.89,0,0,0-.68-1.49,3.66,3.66,0,0,0-1.26-1,3.58,3.58,0,0,0-1.67-.4H673.5l-5.1,19a3.05,3.05,0,0,1-1,1.54,2.78,2.78,0,0,1-1.75.59Z"/><path class="cls-27" d="M704.35,714.29l.1-.38a.51.51,0,0,0-.52-.66H692.56a2.8,2.8,0,0,1-1.33-.31,3.09,3.09,0,0,1-1-.82,2.77,2.77,0,0,1-.52-1.16,3,3,0,0,1,0-1.37l.7-2.66h15.39a5.57,5.57,0,0,1,2.62.63,6.09,6.09,0,0,1,2,1.65,6,6,0,0,1,1.08,2.33,5.78,5.78,0,0,1,0,2.71l-2.77,10.28a4.73,4.73,0,0,1-4.61,3.53l-11.37,0a6,6,0,0,1-4.83-2.39,6.44,6.44,0,0,1-1.12-2.45,5.81,5.81,0,0,1,.07-2.81l.14-.52a5.45,5.45,0,0,1,.82-1.82,6.37,6.37,0,0,1,1.35-1.44,6,6,0,0,1,1.71-.92,5.92,5.92,0,0,1,2-.34h9.54l-.7,2.63a2.94,2.94,0,0,1-1.05,1.54,2.73,2.73,0,0,1-1.74.59h-4.27a.79.79,0,0,0-.63,1.28.76.76,0,0,0,.63.29h6.89a1,1,0,0,0,.66-.21.84.84,0,0,0,.35-.56l.07-.28Z"/><path class="cls-27" d="M724.7,707a9.93,9.93,0,0,1,4.66,1.1,10.53,10.53,0,0,1,3.52,2.91,10.24,10.24,0,0,1,1.9,4.16,10,10,0,0,1-.15,4.79l-1.75,6.58a2,2,0,0,1-.75,1.12,2.21,2.21,0,0,1-1.29.42h-3.76a1.28,1.28,0,0,1-1.31-1.25,1.07,1.07,0,0,1,.05-.4l2.1-7.93a3.46,3.46,0,0,0,.05-1.72,3.85,3.85,0,0,0-.68-1.48,3.75,3.75,0,0,0-1.26-1,3.66,3.66,0,0,0-1.68-.41h-3.92L717,726.53a1.9,1.9,0,0,1-.75,1.12,2.13,2.13,0,0,1-1.31.42h-3.75a1.27,1.27,0,0,1-1-.5,1.24,1.24,0,0,1-.23-1.14L715.15,707Z"/><path class="cls-27" d="M745.3,713.65a1.82,1.82,0,0,0-.6.85l-1.57,6a1,1,0,0,0,.73,1.29.9.9,0,0,0,.28,0h14.48l-1.12,4.16a2.94,2.94,0,0,1-1,1.54,2.73,2.73,0,0,1-1.74.59H741.52a5.67,5.67,0,0,1-2.62-.61,5.75,5.75,0,0,1-2-1.64,6.15,6.15,0,0,1-1.08-2.35,5.3,5.3,0,0,1,.09-2.68l2.13-7.93a7.91,7.91,0,0,1,5.05-5.44,7.71,7.71,0,0,1,2.57-.44H755a5.57,5.57,0,0,1,2.62.63,6,6,0,0,1,2,1.64,5.66,5.66,0,0,1,1.07,2.35,6,6,0,0,1-.07,2.69l-.63,2.38a4.54,4.54,0,0,1-1.69,2.54,4.69,4.69,0,0,1-2.89,1H744.84l.7-2.59a2.83,2.83,0,0,1,1-1.54,2.87,2.87,0,0,1,1.78-.59h4.27a.75.75,0,0,0,.77-.6l.14-.52a.82.82,0,0,0-.58-1l-.19,0h-6.51A1.4,1.4,0,0,0,745.3,713.65Z"/><path class="cls-27" d="M758.58,728.07l7-26.4a2.06,2.06,0,0,1,.75-1.14,2.09,2.09,0,0,1,1.32-.43h3.74a1.28,1.28,0,0,1,1.07.5,1.24,1.24,0,0,1,.23,1.14l-5.25,19.48a8.48,8.48,0,0,1-1.24,2.8,9.21,9.21,0,0,1-2,2.15,9.62,9.62,0,0,1-2.6,1.4A8.86,8.86,0,0,1,758.58,728.07Z"/><path class="cls-27" d="M773.92,702.55a2.42,2.42,0,0,1,.32-1.2,2.37,2.37,0,0,1,2.09-1.2,2.31,2.31,0,0,1,1.2.31,2.42,2.42,0,0,1,.88.89,2.41,2.41,0,1,1-4.49,1.2Zm.33,0a2.11,2.11,0,0,0,1,1.8,2.07,2.07,0,0,0,2.07,0,2.3,2.3,0,0,0,.76-.76,2.05,2.05,0,0,0,0-2.07,2.18,2.18,0,0,0-.75-.76,2.09,2.09,0,0,0-2.08,0,2,2,0,0,0-.75.76A2,2,0,0,0,774.25,702.55Zm3-.58a.79.79,0,0,1-.13.45.75.75,0,0,1-.39.29l.77,1.27H777l-.66-1.13h-.44V704h-.47v-2.85h.83a1.21,1.21,0,0,1,.78.21.75.75,0,0,1,.25.63Zm-1.39.48h.35a.59.59,0,0,0,.41-.13.41.41,0,0,0,.16-.34.4.4,0,0,0-.14-.34.73.73,0,0,0-.43-.11h-.34Z"/></g></g><g id="Layer_2-2" data-name="Layer 2"><g id="Layer_1-2-2" data-name="Layer 1-2"><path class="cls-27" d="M463.55,253.63h11.79l-1.82,7A4.4,4.4,0,0,1,472,263a4.27,4.27,0,0,1-2.66.89h-5.47a5.27,5.27,0,0,0-3.31,1.09,5.69,5.69,0,0,0-2,3,5.45,5.45,0,0,0-.08,2.66,5.74,5.74,0,0,0,1,2.22,5.27,5.27,0,0,0,1.87,1.54,5.59,5.59,0,0,0,2.51.57h3.33a1.86,1.86,0,0,1,1.54.76,1.79,1.79,0,0,1,.35,1.69L467,285.07H463.3a14.77,14.77,0,0,1-6.9-1.64,15.73,15.73,0,0,1-5.26-4.36,15.53,15.53,0,0,1-2.84-6.17,15.21,15.21,0,0,1,.19-7.13l.21-.78a15.32,15.32,0,0,1,9.84-10.53A15,15,0,0,1,463.55,253.63Z"/><path class="cls-27" d="M469.5,285.07l10.27-38.48a4.37,4.37,0,0,1,1.57-2.35,4.24,4.24,0,0,1,2.65-.89h10.9A14.67,14.67,0,0,1,501.8,245a15.47,15.47,0,0,1,8.11,10.53,14.55,14.55,0,0,1-.21,7.12l-.21.79a15.6,15.6,0,0,1-2.08,4.61,15.24,15.24,0,0,1-12.72,6.81h-9.44l1.88-7a4.37,4.37,0,0,1,1.56-2.3,4.2,4.2,0,0,1,2.66-.88h3a5.49,5.49,0,0,0,5.32-4.12,5.09,5.09,0,0,0,.07-2.57,5.65,5.65,0,0,0-1-2.21,5.55,5.55,0,0,0-1.87-1.57,5.42,5.42,0,0,0-2.5-.6h-5.84l-7.61,28.32a4.44,4.44,0,0,1-1.56,2.29,4.21,4.21,0,0,1-2.61.89Z"/><path class="cls-27" d="M534.52,264.52l.16-.57a.75.75,0,0,0-.78-1H517a4.13,4.13,0,0,1-2-.47,4.3,4.3,0,0,1-1.46-1.22,4.16,4.16,0,0,1-.78-1.74,4.35,4.35,0,0,1,0-2l1-4h22.95a8.09,8.09,0,0,1,3.91.94,9,9,0,0,1,3,2.45,8.69,8.69,0,0,1,1.54,7.51l-4.12,15.33a7,7,0,0,1-6.88,5.27L517.22,285a8.93,8.93,0,0,1-7.2-3.56,9.42,9.42,0,0,1-1.67-3.65,8.5,8.5,0,0,1,.1-4.19l.21-.79a8.21,8.21,0,0,1,1.23-2.71,9.68,9.68,0,0,1,2-2.14,9.19,9.19,0,0,1,2.56-1.38,8.81,8.81,0,0,1,3-.49h14.24l-1,3.91a4.4,4.4,0,0,1-1.56,2.29,4.11,4.11,0,0,1-2.61.89h-6.36a1.11,1.11,0,0,0-1.15.89,1.06,1.06,0,0,0,.21,1,1.18,1.18,0,0,0,.94.45h10.27a1.65,1.65,0,0,0,1-.32,1.3,1.3,0,0,0,.52-.83L532,274Z"/><path class="cls-27" d="M564.87,253.63a14.73,14.73,0,0,1,7,1.64,15.27,15.27,0,0,1,8.08,10.55,14.75,14.75,0,0,1-.23,7.14l-2.61,9.8a2.85,2.85,0,0,1-1.12,1.67,3.19,3.19,0,0,1-1.91.63h-5.61a1.91,1.91,0,0,1-2-1.87,1.89,1.89,0,0,1,.08-.58l3.13-11.84a5,5,0,0,0,.07-2.55,5.68,5.68,0,0,0-1-2.22,5.46,5.46,0,0,0-1.88-1.56,5.3,5.3,0,0,0-2.5-.6h-5.84l-5.06,18.93a2.85,2.85,0,0,1-1.12,1.67,3.23,3.23,0,0,1-2,.63h-5.58a1.86,1.86,0,0,1-1.53-.76,1.79,1.79,0,0,1-.35-1.69l7.72-29Z"/><path class="cls-27" d="M595.58,263.56a2.62,2.62,0,0,0-.89,1.28l-2.34,8.86a1.57,1.57,0,0,0,1.09,1.93,1.93,1.93,0,0,0,.42.05h21.59l-1.67,6.21a4.44,4.44,0,0,1-1.56,2.29,4.21,4.21,0,0,1-2.61.89H590a8.54,8.54,0,0,1-3.91-.91,8.7,8.7,0,0,1-3-2.46,8.84,8.84,0,0,1-1.61-3.49,7.86,7.86,0,0,1,.13-4l3.18-11.83a11.52,11.52,0,0,1,1.61-3.55,11.73,11.73,0,0,1,5.91-4.56,11.15,11.15,0,0,1,3.84-.65h13.92a8.09,8.09,0,0,1,3.91.94,8.85,8.85,0,0,1,2.95,2.45,8.35,8.35,0,0,1,1.59,3.49,8.63,8.63,0,0,1-.1,4l-.94,3.55a6.82,6.82,0,0,1-2.52,3.8,6.94,6.94,0,0,1-4.3,1.42H594.9l1.05-3.86a4.15,4.15,0,0,1,1.51-2.29,4.27,4.27,0,0,1,2.66-.89h6.36a1.11,1.11,0,0,0,1.15-.88l.21-.78a1.21,1.21,0,0,0-.86-1.48,1.35,1.35,0,0,0-.29,0H597A2.21,2.21,0,0,0,595.58,263.56Z"/><path class="cls-27" d="M615.39,285.07l10.48-39.37A3,3,0,0,1,627,244a3.09,3.09,0,0,1,2-.66h5.58a1.94,1.94,0,0,1,1.59.76,1.79,1.79,0,0,1,.35,1.69l-7.82,29.05A13.24,13.24,0,0,1,626.8,279a13.79,13.79,0,0,1-3,3.21,14.38,14.38,0,0,1-3.88,2.08A13.55,13.55,0,0,1,615.39,285.07Z"/><path class="cls-27" d="M638.26,247a3.5,3.5,0,0,1,.48-1.78,3.6,3.6,0,0,1,4.9-1.33,3.5,3.5,0,0,1,1.31,1.31,3.59,3.59,0,1,1-6.23,3.57A3.44,3.44,0,0,1,638.26,247Zm.5,0a3.09,3.09,0,0,0,5.76,1.55,3.1,3.1,0,0,0,0-3.08,3.11,3.11,0,0,0-1.12-1.13,3.1,3.1,0,0,0-4.22,1.12A3,3,0,0,0,638.76,247Zm4.54-.87a1.09,1.09,0,0,1-.2.68,1.24,1.24,0,0,1-.57.44l1.14,1.88h-.81l-1-1.69h-.65v1.69h-.71v-4.25h1.24a1.8,1.8,0,0,1,1.17.31,1.16,1.16,0,0,1,.37,1Zm-2.07.72h.52a.92.92,0,0,0,.62-.19.66.66,0,0,0,.23-.51.6.6,0,0,0-.21-.51,1.11,1.11,0,0,0-.64-.16h-.51Z"/></g></g></g></g></svg>