<svg id="Layer_1" data-name="Layer 1" xmlns="http://www.w3.org/2000/svg" xmlns:xlink="http://www.w3.org/1999/xlink" viewBox="0 0 1080 1080"><defs><style>.cls-1{fill:none;}.cls-2{fill:url(#linear-gradient);}.cls-3{fill:#267cd1;}.cls-4{fill:#0050af;}.cls-5{fill:#4ea4f9;}.cls-6{fill:url(#Áåçûìÿííûé_ãðàäèåíò_24);}.cls-7{fill:#fff;}.cls-8{fill:#2842a2;}.cls-9{fill:#63b4f7;}.cls-10{fill:#2ba0ef;}.cls-11{opacity:0.11;}.cls-12{clip-path:url(#clip-path);}.cls-13{fill:url(#Áåçûìÿííûé_ãðàäèåíò_2);}.cls-14{fill:url(#Áåçûìÿííûé_ãðàäèåíò_2-2);}.cls-15{fill:#9198db;}.cls-16{fill:#adb1f2;}.cls-17{fill:#24126a;}.cls-18{fill:#21e2e2;}.cls-19{fill:#1f364c;}.cls-20{fill:#ffe7cb;}.cls-21{fill:#0e71bb;}.cls-22{fill:#288ed9;}.cls-23{fill:#2b454e;}.cls-24{fill:url(#Degradado_sin_nombre_80);}.cls-25{fill:#152735;}.cls-26{fill:#ff6c2c;}</style><linearGradient id="linear-gradient" x1="614.37" y1="999.04" x2="467.69" y2="167.14" gradientUnits="userSpaceOnUse"><stop offset="0" stop-color="#c6e6ff"/><stop offset="1" stop-color="#fff"/></linearGradient><linearGradient id="Áåçûìÿííûé_ãðàäèåíò_24" x1="-6789.97" y1="354.38" x2="-6759.01" y2="354.38" gradientTransform="matrix(-1, 0, 0, 1, -6072.88, 0)" gradientUnits="userSpaceOnUse"><stop offset="0" stop-color="#5761d7"/><stop offset="0.18" stop-color="#5c66d9"/><stop offset="0.39" stop-color="#6a73df"/><stop offset="0.61" stop-color="#8289e8"/><stop offset="0.85" stop-color="#a3a7f5"/><stop offset="1" stop-color="#bcbeff"/></linearGradient><clipPath id="clip-path"><polygon id="SVGID" class="cls-1" points="558.55 210.48 708.99 297.33 690.34 407.32 540 320.52 558.55 210.48"/></clipPath><linearGradient id="Áåçûìÿííûé_ãðàäèåíò_2" x1="-6777.59" y1="341.39" x2="-6522.82" y2="341.39" gradientTransform="matrix(-1, 0, 0, 1, -6072.88, 0)" gradientUnits="userSpaceOnUse"><stop offset="0" stop-color="#c0bff6"/><stop offset="0.29" stop-color="#c5c4f7"/><stop offset="0.64" stop-color="#d3d2f9"/><stop offset="1" stop-color="#e9e9fd"/></linearGradient><linearGradient id="Áåçûìÿííûé_ãðàäèåíò_2-2" x1="-6794.36" y1="322.69" x2="-6729.15" y2="322.69" xlink:href="#Áåçûìÿííûé_ãðàäèåíò_2"/><linearGradient id="Degradado_sin_nombre_80" x1="3152.66" y1="594.42" x2="3152.68" y2="594.42" gradientTransform="matrix(-1, 0, 0, 1, 3570.18, 0)" gradientUnits="userSpaceOnUse"><stop offset="0" stop-color="#f2d9ff"/><stop offset="1" stop-color="#8e74ff"/></linearGradient></defs><path class="cls-2" d="M252.53,819.25C88.44,751.41-15,585.24,1.77,408.47,8.15,341.11,31,281,84.42,249.92c167.21-97.39,297.69,53.48,409.31,167.55s436,13.06,542.79,147.52,11.59,377.36-227.82,398.39C666.39,975.88,425,890.53,252.53,819.25Z"/><polygon class="cls-3" points="596.75 837.08 596.75 515.07 761.95 419.69 761.95 741.71 596.75 837.08"/><polygon class="cls-4" points="431.55 419.69 596.75 515.07 596.75 837.08 431.55 741.71 431.55 419.69"/><polygon class="cls-5" points="596.75 324.32 761.95 419.69 596.75 515.07 431.55 419.69 596.75 324.32"/><path class="cls-5" d="M536.83,319.35l19.53-115.86-1.57-.66,2.36-1.35h0a1.72,1.72,0,0,1,1.82.13L715,291.73a4.4,4.4,0,0,1,2,4L697.38,412.47a1.49,1.49,0,0,1-.83,1.19h0L694.25,415l-.4-2.15.13,0L538.86,323.32A4.43,4.43,0,0,1,536.83,319.35Z"/><path class="cls-6" d="M714.16,294.9l2.57-1.14a3.5,3.5,0,0,1,.33,1.93L697.38,412.47a1.49,1.49,0,0,1-.83,1.19h0L694.25,415l-.4-2.15.13,0-7.85-4.53Z"/><path class="cls-4" d="M536.41,324.72l156.07,90.11c1.2.7,2.24.29,2.45-.95L714.61,297.1a4.39,4.39,0,0,0-2-4L556.51,203c-1.2-.7-2.23-.3-2.44.95L534.38,320.76A4.42,4.42,0,0,0,536.41,324.72Z"/><polygon class="cls-4" points="558.55 210.48 708.99 297.33 690.34 407.32 540 320.52 558.55 210.48"/><path class="cls-3" d="M438.3,380l8.52,4.45,85.41-49.31a6.18,6.18,0,0,1,5.57.23l147.3,85c1.41-.78,7.84-3.87,7.84-3.87l-3.12,8.12h0a1.89,1.89,0,0,1-.87,1l-90,51.93a6.23,6.23,0,0,1-5.58-.23l-150.73-87a2.68,2.68,0,0,1-1.27-1.34h0Z"/><path class="cls-5" d="M439.62,381.41,594.1,470.6a6.37,6.37,0,0,0,5.72.24L692,417.61c1.47-.84,1.28-2.32-.41-3.29L537.11,325.13a6.32,6.32,0,0,0-5.71-.24l-92.19,53.22C437.75,379,437.93,380.43,439.62,381.41Z"/><path class="cls-7" d="M439.62,380.52,594.1,469.71a6.37,6.37,0,0,0,5.72.24L692,416.72a1.88,1.88,0,0,0,.9-1,1.55,1.55,0,0,1-.9,1.88l-92.18,53.23a6.37,6.37,0,0,1-5.72-.24L439.62,381.41c-1.14-.66-1.57-1.54-1.31-2.3A2.75,2.75,0,0,0,439.62,380.52Z"/><path class="cls-8" d="M640.7,451.31v-1.7c0-.16-.1-.23-.22-.16l-6,3.45a.52.52,0,0,0-.22.42V455c0,.16.1.23.22.16l6-3.45A.51.51,0,0,0,640.7,451.31Z"/><path class="cls-8" d="M631.76,456.47v-1.7c0-.16-.09-.23-.21-.16l-6,3.45a.51.51,0,0,0-.22.41v1.7c0,.16.1.23.22.16l6-3.45A.51.51,0,0,0,631.76,456.47Z"/><path class="cls-9" d="M668,412.63,539.59,338.51a2.77,2.77,0,0,0-2.76,0L491.11,365a1,1,0,0,0,0,1.71l128.32,74.08a2.73,2.73,0,0,0,2.76,0L668,414.34A1,1,0,0,0,668,412.63Z"/><path class="cls-10" d="M668,414.34l-.46.26L539.59,340.75a2.77,2.77,0,0,0-2.76,0l-45.26,26.18-.46-.26a1,1,0,0,1,0-1.71l45.72-26.45a2.77,2.77,0,0,1,2.76,0L668,412.63A1,1,0,0,1,668,414.34Z"/><polygon class="cls-4" points="533.38 345.21 644.89 409.59 649.85 406.73 538.34 342.35 533.38 345.21"/><polygon class="cls-4" points="521.22 352.23 625.82 412.62 630.77 409.75 526.18 349.37 521.22 352.23"/><polygon class="cls-4" points="513.3 356.8 636.45 427.9 641.41 425.04 518.26 353.94 513.3 356.8"/><polygon class="cls-4" points="505.39 361.37 628.54 432.47 633.49 429.61 510.35 358.51 505.39 361.37"/><polygon class="cls-4" points="497.47 365.94 620.62 437.04 625.58 434.18 502.43 363.08 497.47 365.94"/><polygon class="cls-4" points="651.63 413.48 656.59 416.35 661.54 413.48 656.59 410.62 651.63 413.48"/><polygon class="cls-4" points="634.14 417.42 644.43 423.36 649.39 420.5 639.1 414.56 634.14 417.42"/><path class="cls-9" d="M534.65,430.57l-34.61-20c-1.36-.78-1.36-2.05,0-2.83l23.67-13.66a5.42,5.42,0,0,1,4.9,0l34.61,20c1.35.78,1.35,2.05,0,2.83l-23.67,13.67A5.42,5.42,0,0,1,534.65,430.57Z"/><path class="cls-10" d="M563.22,415.23l-34.61-20a5.42,5.42,0,0,0-4.9,0L500,408.91a2,2,0,0,0-.85.84c-.36-.69-.09-1.46.85-2l23.67-13.66a5.39,5.39,0,0,1,4.9,0l34.61,20c.94.54,1.21,1.31.85,2A2.12,2.12,0,0,0,563.22,415.23Z"/><g class="cls-11"><g class="cls-12"><path class="cls-13" d="M537,324.94l154.48,89.19a6.35,6.35,0,0,0,5.71.24l92.19-53.22c1.46-.85,1.28-2.33-.41-3.3L634.45,268.66a6.34,6.34,0,0,0-5.72-.24l-92.18,53.22C535.08,322.49,535.27,324,537,324.94Z"/><path class="cls-14" d="M691.9,340.93l-34.62-20c-1.35-.78-1.35-2.05,0-2.83L681,304.45a5.4,5.4,0,0,1,4.89,0l34.62,20c1.35.78,1.35,2,0,2.83L696.8,340.93A5.42,5.42,0,0,1,691.9,340.93Z"/><path class="cls-15" d="M720.47,325.59l-34.62-20a5.4,5.4,0,0,0-4.89,0l-23.68,13.67a2.19,2.19,0,0,0-.85.83c-.35-.68-.08-1.45.85-2L681,304.45a5.4,5.4,0,0,1,4.89,0l34.62,20c.93.54,1.21,1.31.85,2A2.2,2.2,0,0,0,720.47,325.59Z"/><path class="cls-16" d="M735.69,372.16,607.31,298.05a2.75,2.75,0,0,0-2.77,0L558.83,324.5a1,1,0,0,0,0,1.7l128.32,74.09a2.77,2.77,0,0,0,2.76,0l45.78-26.42A1,1,0,0,0,735.69,372.16Z"/><path class="cls-15" d="M735.69,373.87l-.46.27L607.31,300.28a2.77,2.77,0,0,0-2.77,0l-45.25,26.18-.46-.27a1,1,0,0,1,0-1.7l45.71-26.45a2.75,2.75,0,0,1,2.77,0l128.38,74.11A1,1,0,0,1,735.69,373.87Z"/><polygon class="cls-17" points="570.79 322.69 682.63 387.26 678.2 389.82 566.36 325.25 570.79 322.69"/><polygon class="cls-17" points="582.58 315.89 688.88 377.26 684.45 379.82 578.15 318.45 582.58 315.89"/><polygon class="cls-17" points="696.82 381.84 706.74 387.58 702.31 390.13 692.38 384.4 696.82 381.84"/><polygon class="cls-17" points="688.05 390.39 694.96 394.38 690.53 396.94 683.62 392.95 688.05 390.39"/><polygon class="cls-17" points="589.96 311.63 714.13 383.31 709.7 385.87 585.53 314.18 589.96 311.63"/><polygon class="cls-17" points="597.35 307.36 721.51 379.05 717.08 381.61 592.91 309.92 597.35 307.36"/><polygon class="cls-17" points="604.73 303.1 728.89 374.79 724.46 377.35 600.3 305.66 604.73 303.1"/></g></g><path class="cls-18" d="M362.14,853s-2.93,28.67-1.53,39,17.66,5.34,22.35,3,25.9-13.76,33.77-16.56c26.72-9.49,63.14-46.14-32-23.21C378.52,856.74,362.14,853,362.14,853Z"/><path class="cls-18" d="M450.31,892.18s-2.93,28.68-1.53,39,17.66,5.34,22.35,3,25.9-13.75,33.77-16.55c26.72-9.49,63.14-46.14-32-23.21C466.69,895.9,450.31,892.18,450.31,892.18Z"/><path class="cls-19" d="M493.9,539s-102.95,19.86-127-22.8c0,0-4.15,31.07.58,59.54a107.86,107.86,0,0,1,1.28,19.09c-1.33,97.26-6.91,251-6.91,265.32,0,8.34,31.79,10.9,34.5-6.81,5.4-35.17,16.15-85.14,19.62-146.87a66.65,66.65,0,0,1,.78-7c9.28-56.19,7.78-78.84,8.53-83.7.8,3.34.6,9.29,2.33,24.82C429.26,655.37,449,893.3,449,904s39.2,4.95,39-9.82c-.62-61.36-.56-75.42-2-121.89a218.71,218.71,0,0,1,1.7-36.54c2.45-17.65,2.13-31.09,3.21-43.78C496.76,604.89,493.9,539,493.9,539Z"/><path class="cls-20" d="M459.45,316.71s-3.86,28.81-10.43,35.36c-8.14,8.11-37.17,9.71-43.79,3.15,16.49-19.36,15.85-48,15.85-48Z"/><path class="cls-20" d="M434.57,230.66c22.22-7,43.64,3.82,49,9.5,6.38,6.71,12.44,17.94,9.77,46.39-.05.53-.12,1-.17,1.52-.29,2.6.38,3.15,4.06,12-.42,2-3.19,3.21-4.79,3.8a4.17,4.17,0,0,0-2.55,2.81c-4,14.92-9.83,19.82-12.72,21.17-5.87,2.73-25.83-2.05-32.32-6.83-8.12-6-23.42-20.89-27.4-39.25C412.79,260.17,418.79,235.62,434.57,230.66Z"/><path class="cls-21" d="M498.15,255.5c-3.23,6.1-10.73,12.84-25,20.87-2.43,1.37-4.08,12-8.89,10.54-1.56-4.72-1.9-9.08-6.66-11.82-4-2.3-9.25-1.49-9.5,4.88-.21,5.26,3.18,8.34,4.53,13.13,2.4,8.54,6.25,5.43,6.25,5.43s-1.33,19.19-13.61,25.26c0,0-14.73,6.71-28.18-1.87-6.05-3.86-13-20.59-16.65-34-7.63-28.43-6.27-50.19,11.8-54.61,3.8-11.92,9.92-15.75,21.29-16.5,24.48-1.61,40.29,16.5,60.64,16.5C504.81,233.28,502.48,247.34,498.15,255.5Z"/><path class="cls-22" d="M368.39,351.49a13.1,13.1,0,0,1,3.19-6.15c7.55-7.91,17.14-12.07,32.2-12.07,2.36,0,9.79-.38,12.14.11,7.62,7.2,16.42,9.61,38.5,9.56,4.86,1.37,8.6,2.48,10.64,3.08h0s-3.06,51.92,23.58,67.64l5.44,128.86s-7,4.57-17.23,11c-11,7-26.32,17.48-54,15.19C390,566,365.47,539,365.47,539a391.62,391.62,0,0,1,2.7-39.35,218.4,218.4,0,0,0,.75-41.46c-2.93-36.93-4.5-55.27-4.12-65.22C365.58,372.25,366.63,359.12,368.39,351.49Z"/><path class="cls-23" d="M489.33,426.47s-13.92-14.44-18.82-31.2c0,0,0,24.52,19.09,37.76Z"/><path class="cls-20" d="M465.07,346c14.55,4.36,23.4,5.15,39.47,29.87s51.27,73.76,54.76,79.65c4.85,8.2,6.94,18,2.75,25.49-3.91,7-15.29,4-31.23-10-15.42-13.53-46-51.8-46-51.8S468.91,384.32,465.07,346Z"/><path class="cls-22" d="M465.07,346s13,2.71,21,6.66c2.48,1.21,10.65,4.34,15.89,13.05C513.24,384.41,529.31,411,529.31,411s2.75,23.16-25.38,31.23L489,426.09a84,84,0,0,1-14.91-22.2C467.74,390,460.51,367.87,465.07,346Z"/><path class="cls-20" d="M557.15,484.49c13.46-1.63,43.61-42.95,53.66-56.08s16.05-17.55,23.58-24.24c7.74-6.87-20.9-24.92-21.46-23.41-3.49,9.36-5.71,11-9.2,16s-50.37,49.92-50.37,49.92Z"/><path class="cls-20" d="M611.94,415.34s9.51-.36,14.92-4.48a96.8,96.8,0,0,0,10.87-10.15s2.12,3.19,6.58-.24,7.89-7.81,8-10.18a5.33,5.33,0,0,0-1.39-3.79s3-3.8,0-6.72c0,0,2.31-1.82,2.23-6s-5.36-6.13-5.36-6.13,3.21-4,3.11-5.58-.24-1.59-.24-1.59-3.09-5.92-5.21-5.87-19.56,8.39-20.19,9.16-7.72,7.69-9.68,10.29-4.08,13.39-6.49,16.56-5.42,20.11-5.35,20.23S611.94,415.34,611.94,415.34Z"/><path class="cls-24" d="M417.51,594.53s0-.08,0-.1C417.5,594.23,417.5,594.3,417.51,594.53Z"/><path class="cls-25" d="M414.27,667.91c4-31,3.35-70.3,3.24-73.38.05,2.92,2.16,9.61,4.29,13.16a40.9,40.9,0,0,1,3.48,8c-.76,4.86.74,27.51-8.53,83.7a66.65,66.65,0,0,0-.78,7.05c-3.47,61.73-14.23,111.7-19.62,146.87A13.61,13.61,0,0,1,390,862.9l-4.33,1.21c15.58-12.79,20.53-86.49,22.54-120.93C410.33,706.26,410,701.24,414.27,667.91Z"/><g id="Layer_2" data-name="Layer 2"><g id="Layer_1-2" data-name="Layer 1-2"><path class="cls-26" d="M567.12,267.1l8.28,4.72L574.14,276a1.39,1.39,0,0,1-1.09,1,2.72,2.72,0,0,1-1.87-.44l-3.85-2.19a3.42,3.42,0,0,0-2.31-.56,1.84,1.84,0,0,0-1.41,1.28,3.71,3.71,0,0,0,0,1.83,7.06,7.06,0,0,0,.71,2,8.78,8.78,0,0,0,1.32,1.83,8.07,8.07,0,0,0,1.76,1.41l2.35,1.33a2.93,2.93,0,0,1,1.08,1.15,1.67,1.67,0,0,1,.25,1.33l-1.44,4.57L567,289a20.33,20.33,0,0,1-4.86-3.92,25.9,25.9,0,0,1-3.7-5.16,19.66,19.66,0,0,1-2-5.46,10.19,10.19,0,0,1,.11-4.92l.14-.47a4.9,4.9,0,0,1,3.84-3.55,7.39,7.39,0,0,1,3.05.11A13,13,0,0,1,567.12,267.1Z"/><path class="cls-26" d="M571.39,291.52l7.11-22.86a1.42,1.42,0,0,1,1.09-1,2.78,2.78,0,0,1,1.87.44l7.65,4.37a20.14,20.14,0,0,1,4.86,3.92A22.87,22.87,0,0,1,599.7,287a9.65,9.65,0,0,1-.13,4.91l-.14.46a5.52,5.52,0,0,1-1.45,2.4c-2,1.85-5.33,1.73-8.93-.33l-6.63-3.78,1.3-4.18a1.39,1.39,0,0,1,1.1-1,2.74,2.74,0,0,1,1.86.44l2.13,1.21c1.76,1,3.29.7,3.72-.75a3.37,3.37,0,0,0,0-1.77,7,7,0,0,0-.72-2,8.8,8.8,0,0,0-1.32-1.85,7.14,7.14,0,0,0-1.75-1.42l-4.11-2.34-5.27,16.8a1.4,1.4,0,0,1-1.09,1,2.69,2.69,0,0,1-1.83-.42Z"/><path class="cls-26" d="M617,303.17l.11-.34a.71.71,0,0,0-.1-.54,1.13,1.13,0,0,0-.46-.46L604.67,295a5.56,5.56,0,0,1-1.4-1.12,7.58,7.58,0,0,1-1-1.44,5.44,5.44,0,0,1-.55-1.53,3,3,0,0,1,0-1.41l.72-2.36,16.12,9.2a11.05,11.05,0,0,1,2.75,2.22,15.14,15.14,0,0,1,2.09,2.9,11.21,11.21,0,0,1,1.14,3.09,5.82,5.82,0,0,1,0,2.8l-2.85,9.1c-.57,1.86-2.56,2.24-4.83.93l-11.9-6.83a13.73,13.73,0,0,1-5.08-5.37,12.32,12.32,0,0,1-1.18-3.23,5.83,5.83,0,0,1,.06-2.9l.15-.47a2.84,2.84,0,0,1,2.26-2.1,4.37,4.37,0,0,1,1.79.05,7.67,7.67,0,0,1,2.09.85l10,5.7-.72,2.32a1.44,1.44,0,0,1-1.1,1,2.66,2.66,0,0,1-1.83-.43l-4.47-2.55c-.41-.23-.68-.18-.8.17a1,1,0,0,0,.15.79,1.76,1.76,0,0,0,.66.69l7.22,4.12a1.06,1.06,0,0,0,.69.17.45.45,0,0,0,.37-.37l.07-.25Z"/><path class="cls-26" d="M638.31,307.69a20.12,20.12,0,0,1,4.89,3.94,25.56,25.56,0,0,1,3.7,5.15,19.57,19.57,0,0,1,2,5.48,9.91,9.91,0,0,1-.14,4.92L647,333a.92.92,0,0,1-.78.72,2.1,2.1,0,0,1-1.34-.33l-4-2.25a2.78,2.78,0,0,1-1.38-2.09,1.13,1.13,0,0,1,0-.38l2.17-7a3.43,3.43,0,0,0,0-1.76,7.19,7.19,0,0,0-.72-2,9,9,0,0,0-1.33-1.85,7.28,7.28,0,0,0-1.76-1.43l-4.1-2.34-3.5,11.25a.91.91,0,0,1-.79.72,2.15,2.15,0,0,1-1.37-.34l-3.92-2.24a2.84,2.84,0,0,1-1.08-1.14,1.72,1.72,0,0,1-.25-1.33L628.3,302Z"/><path class="cls-26" d="M659.92,327a.85.85,0,0,0-.62.54l-1.63,5.28a1.94,1.94,0,0,0,.78,1.78,1.42,1.42,0,0,0,.29.21l15.17,8.65-1.15,3.68a1.42,1.42,0,0,1-1.1,1,2.63,2.63,0,0,1-1.82-.43L656,339.78a11.56,11.56,0,0,1-2.75-2.2,13.64,13.64,0,0,1-2.08-2.9,11.31,11.31,0,0,1-1.15-3.1,5.34,5.34,0,0,1,.08-2.75l2.2-7a4.08,4.08,0,0,1,1.13-1.84,4.42,4.42,0,0,1,4.14-.83,9.85,9.85,0,0,1,2.69,1.07l9.78,5.58a11.1,11.1,0,0,1,2.75,2.23,15.14,15.14,0,0,1,2.09,2.9A10.53,10.53,0,0,1,676,334a5.8,5.8,0,0,1-.06,2.77l-.65,2.11a2.17,2.17,0,0,1-1.76,1.65,4.5,4.5,0,0,1-3-.72l-11.07-6.31.72-2.29a1.33,1.33,0,0,1,1.06-1,2.78,2.78,0,0,1,1.87.44l4.47,2.55c.41.24.68.19.8-.16l.14-.46a1.52,1.52,0,0,0-.6-1.38l-.21-.14-6.81-3.89A1.37,1.37,0,0,0,659.92,327Z"/><path class="cls-26" d="M673.9,350l7.26-23.4a1,1,0,0,1,.78-.74,2,2,0,0,1,1.37.33l3.92,2.23a2.94,2.94,0,0,1,1.12,1.17,1.72,1.72,0,0,1,.25,1.33l-5.42,17.23a4.59,4.59,0,0,1-1.29,2.18,4.25,4.25,0,0,1-2.11,1,6.88,6.88,0,0,1-2.73-.1A11.07,11.07,0,0,1,673.9,350Z"/><path class="cls-26" d="M689.86,332.46a1.6,1.6,0,0,1,.33-1.06c.45-.52,1.28-.53,2.18,0a4.89,4.89,0,0,1,1.26,1.05,5.5,5.5,0,0,1,.93,1.45,2.47,2.47,0,0,1,0,2.5c-.68.82-2.22.37-3.43-1a5.78,5.78,0,0,1-1-1.5A3.6,3.6,0,0,1,689.86,332.46Zm.35.2a4.12,4.12,0,0,0,1.1,2.5,3.2,3.2,0,0,0,2.16,1.24,1,1,0,0,0,.79-.34,1.29,1.29,0,0,0,.29-.92,3.22,3.22,0,0,0-.29-1.25,5.35,5.35,0,0,0-.8-1.24,3.2,3.2,0,0,0-2.17-1.24,1,1,0,0,0-.79.34A1.36,1.36,0,0,0,690.21,332.66Zm3.19,1.22a.46.46,0,0,1-.14.39.45.45,0,0,1-.4.07l.81,1.78-.57-.32-.7-1.58L692,334v1.19l-.5-.29v-3l.87.5a2.75,2.75,0,0,1,.82.68,1.41,1.41,0,0,1,.26.82Zm-1.45-.33.37.21a.62.62,0,0,0,.43.11.24.24,0,0,0,.16-.26.67.67,0,0,0-.15-.44,1.19,1.19,0,0,0-.45-.37l-.36-.21Z"/></g></g></svg>