<svg id="Layer_1" data-name="Layer 1" xmlns="http://www.w3.org/2000/svg" xmlns:xlink="http://www.w3.org/1999/xlink" viewBox="0 0 1080 1080"><defs><style>.cls-1{fill:url(#linear-gradient);}.cls-2{fill:#d1ebff;}.cls-3{fill-rule:evenodd;opacity:0.61;fill:url(#linear-gradient-2);}.cls-4{fill:url(#linear-gradient-3);}.cls-5{fill:#1f364c;}.cls-6{fill:#ff6c2c;}.cls-7{fill:#0e71bb;}.cls-8{fill:#005b9f;}.cls-9{fill:#52acea;}.cls-10{fill:#21e2e2;}.cls-11{fill:#ffbc98;}.cls-12,.cls-13,.cls-16,.cls-20,.cls-21{fill:none;}.cls-13{stroke:#ffbc98;}.cls-13,.cls-16{stroke-width:2.05px;}.cls-14{fill:#80c9ff;}.cls-15{fill:#288ed9;}.cls-16{stroke:#21e2e2;}.cls-17{fill:#137fcf;}.cls-18{fill:#d6eeff;}.cls-19{fill:#fff;}.cls-20,.cls-21{stroke:#f7941d;stroke-miterlimit:10;stroke-width:3.41px;}.cls-21{stroke-dasharray:15.82 15.82;}</style><linearGradient id="linear-gradient" x1="-1638.77" y1="3089.81" x2="-1638.78" y2="3091.56" gradientTransform="matrix(740.56, 0, 0, -612.51, 1214170.06, 1893776.45)" gradientUnits="userSpaceOnUse"><stop offset="0" stop-color="#c6e6ff"/><stop offset="1" stop-color="#fff"/></linearGradient><linearGradient id="linear-gradient-2" x1="312.1" y1="220.35" x2="759" y2="220.35" gradientUnits="userSpaceOnUse"><stop offset="0" stop-color="#288ed9"/><stop offset="1" stop-color="#137fcf" stop-opacity="0.05"/></linearGradient><linearGradient id="linear-gradient-3" x1="-1637.89" y1="3111.27" x2="-1637.89" y2="3109.62" gradientTransform="matrix(531, 0, 0, -95, 870253.64, 296433.88)" xlink:href="#linear-gradient-2"/></defs><path id="Path_5630" data-name="Path 5630" class="cls-1" d="M552.23,320.59C718.88,426.93,909.7,474.79,909.7,474.79S1119.84,506.7,1042.54,746,955.17,1070.92,834,1077c-114.88,3.27-179.42-44.14-293.09-36-99.85,7.69-168.61,52.67-335.45-13C-61.88,909.87-41.95-54.28,552.23,320.59Z"/><circle class="cls-2" cx="535.55" cy="223.45" r="223.45" transform="translate(-1.15 444.14) rotate(-45)"/><path class="cls-3" d="M535.55,0a223.54,223.54,0,0,1,62.09,8.75,41.3,41.3,0,0,0-1.5,19.61c3.33,23.34-8.9,46.13-36.13,38.35s-20.57,24.46-62.82,20C461.56,83,423.56,63.8,423.87,29.87A222.5,222.5,0,0,1,535.55,0ZM635.3,23.46c10.83,24.94,19.17,64-20.82,84.94-61.7,32.24-109,31.13-102.28,71.7s3.9,47.81-3.33,56.7S513,260.43,535.27,254c0,0,5-3.61,6.11,1.12S528,276,541.66,292.67s38.91,7.22,52.25-1.67,41.69,12.23,47.53,29.74,1.67,35.29,29.46,34.74,17.51-39.47,17.23-57.81,2.22-56.14,28.35-55,18.07-11.39,30.29-15.29a23.22,23.22,0,0,1,12.19-.51c0-1.13,0-2.25,0-3.39a223.44,223.44,0,0,0-123.7-200ZM620.87,358s7.51-9.18,15.29-5,9.86,18.07,4,21.13-25-8.76-19.32-16.12ZM483.06,440.69c22.37-27-1-53.88-14.77-66.59-14.45-13.34,23.35-70-21.68-71.15s-69.48-32.24-35-36.13,21.13-23.35,24.46-38.91,15-1.67,37.24-9.45-10.56-55-32.79-53.92S424.93,198.45,412.15,194s-16.12-32.24,2.22-37.8,20-21.12,13.9-34.46S391,121.74,384.36,99c-3.34-11.39-12.08-16.67-20-19.1a222.55,222.55,0,0,0-52.26,143.6c0,4.84.17,9.64.47,14.4,30.52,20.52,61.55,66,57.33,90.11-5.55,31.69,23.35,48.36,36.13,57.81,6.74,5,9.15,16.59,9.93,26.47A222.44,222.44,0,0,0,483.06,440.69Z"/><ellipse id="Ellipse_1369" data-name="Ellipse 1369" class="cls-4" cx="535.55" cy="981.02" rx="212.45" ry="39.03"/><g id="Group_7367" data-name="Group 7367"><g id="Group_7365" data-name="Group 7365"><g id="Group_7180" data-name="Group 7180"><g id="Group_5583" data-name="Group 5583"><g id="Group_5582" data-name="Group 5582"><g id="Group_5581" data-name="Group 5581"><rect id="Rectangle_1565" data-name="Rectangle 1565" class="cls-5" x="405.7" y="715.44" width="259.33" height="20.14"/><path id="Path_3764" data-name="Path 3764" class="cls-6" d="M403,661H668.1c5.23,0,9.46,3.08,9.46,6.88v44c0,3.8-4.23,6.88-9.46,6.88H403c-5.23,0-9.47-3.08-9.47-6.88v-44C393.53,664.09,397.77,661,403,661Z"/></g></g></g></g></g><g id="Group_7365-2" data-name="Group 7365-2"><g id="Group_7180-2" data-name="Group 7180-2"><g id="Group_5583-2" data-name="Group 5583-2"><g id="Group_5582-2" data-name="Group 5582-2"><g id="Group_5581-2" data-name="Group 5581-2"><rect id="Rectangle_1565-2" data-name="Rectangle 1565-2" class="cls-5" x="405.7" y="784.25" width="259.33" height="20.14"/><path id="Path_3764-2" data-name="Path 3764-2" class="cls-7" d="M403,729.82H668.1c5.23,0,9.46,3.08,9.46,6.88v44c0,3.8-4.23,6.88-9.46,6.88H403c-5.23,0-9.47-3.08-9.47-6.88v-44C393.53,732.9,397.77,729.82,403,729.82Z"/><path id="Rectangle_1631-2" data-name="Rectangle 1631-2" class="cls-8" d="M397.64,729.82h91.73v57.77H397.64a4.1,4.1,0,0,1-4.11-4.1V733.92A4.11,4.11,0,0,1,397.64,729.82Z"/></g></g></g></g><g id="Group_7183-2" data-name="Group 7183-2"><g id="Group_5584-2" data-name="Group 5584-2"><path id="Rectangle_1405-2" data-name="Rectangle 1405-2" class="cls-9" d="M572.42,750.51h0a3,3,0,0,1,3,3h0a3,3,0,0,1-3,3h0a3,3,0,0,1-3-3h0A3,3,0,0,1,572.42,750.51Z"/><path id="Rectangle_1424-2" data-name="Rectangle 1424-2" class="cls-10" d="M579.64,762.54h0a3,3,0,0,1,3,3h0a3,3,0,0,1-3,3h0a3,3,0,0,1-3-3h0A3,3,0,0,1,579.64,762.54Z"/><path id="Rectangle_1406-2" data-name="Rectangle 1406-2" class="cls-9" d="M584.45,750.51h0a3,3,0,0,1,3,3h0a3,3,0,0,1-3,3h0a3,3,0,0,1-3-3h0A3,3,0,0,1,584.45,750.51Z"/><path id="Rectangle_1423-2" data-name="Rectangle 1423-2" class="cls-9" d="M591.67,762.54h0a3,3,0,0,1,3,3h0a3,3,0,0,1-3,3h0a3,3,0,0,1-3-3h0A3,3,0,0,1,591.67,762.54Z"/><path id="Rectangle_1407-2" data-name="Rectangle 1407-2" class="cls-11" d="M596.48,750.51h0a3,3,0,0,1,3,3h0a3,3,0,0,1-3,3h0a3,3,0,0,1-3-3h0A3,3,0,0,1,596.48,750.51Z"/><path id="Rectangle_1422-2" data-name="Rectangle 1422-2" class="cls-9" d="M603.7,762.54h0a3,3,0,0,1,3,3h0a3,3,0,0,1-3,3h0a3,3,0,0,1-3-3h0A3,3,0,0,1,603.7,762.54Z"/><path id="Rectangle_1408-2" data-name="Rectangle 1408-2" class="cls-9" d="M608.51,750.51h0a3,3,0,0,1,3,3h0a3,3,0,0,1-3,3h0a3,3,0,0,1-3-3h0A3,3,0,0,1,608.51,750.51Z"/><path id="Rectangle_1421-2" data-name="Rectangle 1421-2" class="cls-10" d="M615.73,762.54h0a3,3,0,0,1,3,3h0a3,3,0,0,1-3,3h0a3,3,0,0,1-3-3h0A3,3,0,0,1,615.73,762.54Z"/><path id="Rectangle_1409-2" data-name="Rectangle 1409-2" class="cls-9" d="M620.54,750.51h0a3,3,0,0,1,3,3h0a3,3,0,0,1-3,3h0a3,3,0,0,1-3-3h0A3,3,0,0,1,620.54,750.51Z"/><path id="Rectangle_1420-2" data-name="Rectangle 1420-2" class="cls-9" d="M627.76,762.54h0a3,3,0,0,1,3,3h0a3,3,0,0,1-3,3h0a3,3,0,0,1-3-3h0A3,3,0,0,1,627.76,762.54Z"/></g></g><g id="Ellipse_1402-2" data-name="Ellipse 1402-2"><circle class="cls-12" cx="648.78" cy="759.03" r="5.12"/><circle class="cls-13" cx="648.78" cy="759.03" r="4.09"/></g><path id="Rectangle_3126-2" data-name="Rectangle 3126-2" class="cls-9" d="M558.4,748.23h0a2.27,2.27,0,0,1,2.27,2.28v17a2.26,2.26,0,0,1-2.27,2.27h0a2.27,2.27,0,0,1-2.27-2.27v-17A2.28,2.28,0,0,1,558.4,748.23Z"/><path id="Rectangle_3127-2" data-name="Rectangle 3127-2" class="cls-9" d="M549.31,748.23h0a2.28,2.28,0,0,1,2.27,2.28v17a2.27,2.27,0,0,1-2.27,2.27h0a2.27,2.27,0,0,1-2.28-2.27v-17A2.28,2.28,0,0,1,549.31,748.23Z"/><rect id="Rectangle_3128-2" data-name="Rectangle 3128-2" class="cls-8" x="503.83" y="748.23" width="36.38" height="9.09"/><rect id="Rectangle_3129-2" data-name="Rectangle 3129-2" class="cls-8" x="503.83" y="760.74" width="36.38" height="9.09"/><path id="Rectangle_3130-2" data-name="Rectangle 3130-2" class="cls-11" d="M556.13,752.78h4.54v14.78a2.27,2.27,0,0,1-2.27,2.27h0a2.27,2.27,0,0,1-2.27-2.27V752.78Z"/><path id="Rectangle_3131-2" data-name="Rectangle 3131-2" class="cls-10" d="M547,761.44h4.55v6.12a2.27,2.27,0,0,1-2.27,2.27h0a2.28,2.28,0,0,1-2.28-2.27h0v-6.12Z"/><rect id="Rectangle_3132-2" data-name="Rectangle 3132-2" class="cls-14" x="503.83" y="748.23" width="9.09" height="9.09"/><rect id="Rectangle_3133-2" data-name="Rectangle 3133-2" class="cls-14" x="503.83" y="760.74" width="9.09" height="9.09"/><rect id="Rectangle_3136-2" data-name="Rectangle 3136-2" class="cls-15" x="517.48" y="751.64" width="18.19" height="2.27"/><rect id="Rectangle_3137-2" data-name="Rectangle 3137-2" class="cls-15" x="517.48" y="764.15" width="18.19" height="2.27"/><g id="Ellipse_1403-2" data-name="Ellipse 1403-2"><circle class="cls-12" cx="648.78" cy="759.03" r="10.8"/><circle class="cls-16" cx="648.78" cy="759.03" r="9.77"/></g><g id="Group_7379" data-name="Group 7379"><g id="Group_7359-2" data-name="Group 7359-2"><path id="Rectangle_3070-5" data-name="Rectangle 3070-5" class="cls-15" d="M463.47,767.82h0a3.76,3.76,0,0,1,3.76,3.76v.3a3.75,3.75,0,0,1-3.76,3.75h0a3.75,3.75,0,0,1-3.75-3.75v-.3A3.76,3.76,0,0,1,463.47,767.82Z"/><path id="Rectangle_3138-2" data-name="Rectangle 3138-2" class="cls-17" d="M463.69,745.85h0a1.7,1.7,0,0,1,1.71,1.7v14.78a1.71,1.71,0,0,1-1.71,1.71h0a1.71,1.71,0,0,1-1.7-1.71V747.55A1.7,1.7,0,0,1,463.69,745.85Z"/></g><g id="Group_7360-2" data-name="Group 7360-2"><path id="Rectangle_1442-9" data-name="Rectangle 1442-9" class="cls-18" d="M452.1,767.82h0a3.76,3.76,0,0,1,3.76,3.76v.3a3.75,3.75,0,0,1-3.76,3.75h0a3.75,3.75,0,0,1-3.75-3.75v-.3A3.76,3.76,0,0,1,452.1,767.82Z"/><path id="Rectangle_3139-2" data-name="Rectangle 3139-2" class="cls-19" d="M452.33,752.67h0a1.7,1.7,0,0,1,1.7,1.7v8a1.71,1.71,0,0,1-1.7,1.71h0a1.71,1.71,0,0,1-1.71-1.71v-8A1.7,1.7,0,0,1,452.33,752.67Z"/></g><g id="Group_7361-2" data-name="Group 7361-2"><path id="Rectangle_1425-9" data-name="Rectangle 1425-9" class="cls-15" d="M440.74,767.82h0a3.76,3.76,0,0,1,3.75,3.76v.3a3.75,3.75,0,0,1-3.75,3.75h0a3.75,3.75,0,0,1-3.76-3.75v-.3A3.76,3.76,0,0,1,440.74,767.82Z"/><path id="Rectangle_3140-2" data-name="Rectangle 3140-2" class="cls-17" d="M441,743.25h0a1.7,1.7,0,0,1,1.7,1.7v17.38A1.71,1.71,0,0,1,441,764h0a1.72,1.72,0,0,1-1.71-1.71V745A1.71,1.71,0,0,1,441,743.25Z"/></g><g id="Group_7362-2" data-name="Group 7362-2"><path id="Rectangle_1442-10" data-name="Rectangle 1442-10" class="cls-11" d="M429.37,767.82h0a3.76,3.76,0,0,1,3.75,3.76v.3a3.75,3.75,0,0,1-3.75,3.75h0a3.75,3.75,0,0,1-3.76-3.75v-.3A3.76,3.76,0,0,1,429.37,767.82Z"/><path id="Rectangle_3141-2" data-name="Rectangle 3141-2" class="cls-11" d="M429.59,747.57h0a1.71,1.71,0,0,1,1.7,1.71v13.05a1.71,1.71,0,0,1-1.7,1.71h0a1.72,1.72,0,0,1-1.71-1.71V749.28A1.72,1.72,0,0,1,429.59,747.57Z"/></g><g id="Group_7363-2" data-name="Group 7363-2"><path id="Rectangle_1425-10" data-name="Rectangle 1425-10" class="cls-10" d="M418,767.82h0a3.76,3.76,0,0,1,3.75,3.76v.3a3.75,3.75,0,0,1-3.75,3.75h0a3.75,3.75,0,0,1-3.76-3.75v-.3A3.76,3.76,0,0,1,418,767.82Z"/><path id="Rectangle_3142-2" data-name="Rectangle 3142-2" class="cls-10" d="M418.22,754.94h0a1.72,1.72,0,0,1,1.71,1.71v5.68a1.72,1.72,0,0,1-1.71,1.71h0a1.71,1.71,0,0,1-1.7-1.71v-5.68A1.71,1.71,0,0,1,418.22,754.94Z"/></g></g></g><g id="Group_7365-3" data-name="Group 7365-3"><g id="Group_7180-3" data-name="Group 7180-3"><g id="Group_5583-3" data-name="Group 5583-3"><g id="Group_5582-3" data-name="Group 5582-3"><g id="Group_5581-3" data-name="Group 5581-3"><rect id="Rectangle_1565-3" data-name="Rectangle 1565-3" class="cls-5" x="405.7" y="853.05" width="259.33" height="20.14"/><path id="Path_3764-3" data-name="Path 3764-3" class="cls-7" d="M403,798.62H668.1c5.23,0,9.46,3.08,9.46,6.88v44c0,3.8-4.23,6.88-9.46,6.88H403c-5.23,0-9.47-3.08-9.47-6.88v-44C393.53,801.7,397.77,798.62,403,798.62Z"/><path id="Rectangle_1631-3" data-name="Rectangle 1631-3" class="cls-8" d="M397.64,798.62h91.73V856.4H397.64a4.11,4.11,0,0,1-4.11-4.11V802.73A4.11,4.11,0,0,1,397.64,798.62Z"/></g></g></g></g><g id="Group_7183-3" data-name="Group 7183-3"><g id="Group_5584-3" data-name="Group 5584-3"><path id="Rectangle_1405-3" data-name="Rectangle 1405-3" class="cls-9" d="M572.42,819.31h0a3,3,0,0,1,3,3h0a3,3,0,0,1-3,3h0a3,3,0,0,1-3-3h0A3,3,0,0,1,572.42,819.31Z"/><path id="Rectangle_1424-3" data-name="Rectangle 1424-3" class="cls-10" d="M579.64,831.34h0a3,3,0,0,1,3,3h0a3,3,0,0,1-3,3h0a3,3,0,0,1-3-3h0A3,3,0,0,1,579.64,831.34Z"/><path id="Rectangle_1406-3" data-name="Rectangle 1406-3" class="cls-9" d="M584.45,819.31h0a3,3,0,0,1,3,3h0a3,3,0,0,1-3,3h0a3,3,0,0,1-3-3h0A3,3,0,0,1,584.45,819.31Z"/><path id="Rectangle_1423-3" data-name="Rectangle 1423-3" class="cls-9" d="M591.67,831.34h0a3,3,0,0,1,3,3h0a3,3,0,0,1-3,3h0a3,3,0,0,1-3-3h0A3,3,0,0,1,591.67,831.34Z"/><path id="Rectangle_1407-3" data-name="Rectangle 1407-3" class="cls-11" d="M596.48,819.31h0a3,3,0,0,1,3,3h0a3,3,0,0,1-3,3h0a3,3,0,0,1-3-3h0A3,3,0,0,1,596.48,819.31Z"/><path id="Rectangle_1422-3" data-name="Rectangle 1422-3" class="cls-9" d="M603.7,831.34h0a3,3,0,0,1,3,3h0a3,3,0,0,1-3,3h0a3,3,0,0,1-3-3h0A3,3,0,0,1,603.7,831.34Z"/><path id="Rectangle_1408-3" data-name="Rectangle 1408-3" class="cls-9" d="M608.51,819.31h0a3,3,0,0,1,3,3h0a3,3,0,0,1-3,3h0a3,3,0,0,1-3-3h0A3,3,0,0,1,608.51,819.31Z"/><path id="Rectangle_1421-3" data-name="Rectangle 1421-3" class="cls-10" d="M615.73,831.34h0a3,3,0,0,1,3,3h0a3,3,0,0,1-3,3h0a3,3,0,0,1-3-3h0A3,3,0,0,1,615.73,831.34Z"/><path id="Rectangle_1409-3" data-name="Rectangle 1409-3" class="cls-9" d="M620.54,819.31h0a3,3,0,0,1,3,3h0a3,3,0,0,1-3,3h0a3,3,0,0,1-3-3h0A3,3,0,0,1,620.54,819.31Z"/><path id="Rectangle_1420-3" data-name="Rectangle 1420-3" class="cls-9" d="M627.76,831.34h0a3,3,0,0,1,3,3h0a3,3,0,0,1-3,3h0a3,3,0,0,1-3-3h0A3,3,0,0,1,627.76,831.34Z"/></g></g><g id="Ellipse_1402-3" data-name="Ellipse 1402-3"><circle class="cls-12" cx="648.78" cy="827.84" r="5.12"/><circle class="cls-13" cx="648.78" cy="827.84" r="4.09"/></g><path id="Rectangle_3126-3" data-name="Rectangle 3126-3" class="cls-9" d="M558.4,817h0a2.26,2.26,0,0,1,2.27,2.27v17.05a2.27,2.27,0,0,1-2.27,2.28h0a2.28,2.28,0,0,1-2.27-2.28V819.31A2.27,2.27,0,0,1,558.4,817Z"/><path id="Rectangle_3127-3" data-name="Rectangle 3127-3" class="cls-9" d="M549.31,817h0a2.27,2.27,0,0,1,2.27,2.27v17.05a2.28,2.28,0,0,1-2.27,2.28h0a2.28,2.28,0,0,1-2.28-2.28V819.31A2.27,2.27,0,0,1,549.31,817Z"/><rect id="Rectangle_3128-3" data-name="Rectangle 3128-3" class="cls-8" x="503.83" y="817.04" width="36.38" height="9.09"/><rect id="Rectangle_3129-3" data-name="Rectangle 3129-3" class="cls-8" x="503.83" y="829.54" width="36.38" height="9.09"/><path id="Rectangle_3130-3" data-name="Rectangle 3130-3" class="cls-11" d="M556.13,821.58h4.54v14.78a2.27,2.27,0,0,1-2.27,2.28h0a2.28,2.28,0,0,1-2.27-2.28V821.58Z"/><path id="Rectangle_3131-3" data-name="Rectangle 3131-3" class="cls-10" d="M547,830.24h4.55v6.12a2.28,2.28,0,0,1-2.27,2.28h0a2.28,2.28,0,0,1-2.28-2.28h0v-6.12Z"/><rect id="Rectangle_3132-3" data-name="Rectangle 3132-3" class="cls-14" x="503.83" y="817.04" width="9.09" height="9.09"/><rect id="Rectangle_3133-3" data-name="Rectangle 3133-3" class="cls-14" x="503.83" y="829.54" width="9.09" height="9.09"/><rect id="Rectangle_3136-3" data-name="Rectangle 3136-3" class="cls-15" x="517.48" y="820.45" width="18.19" height="2.27"/><rect id="Rectangle_3137-3" data-name="Rectangle 3137-3" class="cls-15" x="517.48" y="832.95" width="18.19" height="2.27"/><g id="Ellipse_1403-3" data-name="Ellipse 1403-3"><circle class="cls-12" cx="648.78" cy="827.84" r="10.8"/><circle class="cls-16" cx="648.78" cy="827.84" r="9.77"/></g><g id="Group_7380" data-name="Group 7380"><g id="Group_7359-3" data-name="Group 7359-3"><path id="Rectangle_3070-6" data-name="Rectangle 3070-6" class="cls-15" d="M463.47,836.63h0a3.75,3.75,0,0,1,3.76,3.75v.3a3.76,3.76,0,0,1-3.76,3.76h0a3.75,3.75,0,0,1-3.75-3.76v-.3A3.75,3.75,0,0,1,463.47,836.63Z"/><path id="Rectangle_3138-3" data-name="Rectangle 3138-3" class="cls-17" d="M463.69,814.65h0a1.71,1.71,0,0,1,1.71,1.71v14.78a1.7,1.7,0,0,1-1.71,1.7h0a1.7,1.7,0,0,1-1.7-1.7V816.36A1.71,1.71,0,0,1,463.69,814.65Z"/></g><g id="Group_7360-3" data-name="Group 7360-3"><path id="Rectangle_1442-11" data-name="Rectangle 1442-11" class="cls-18" d="M452.1,836.63h0a3.75,3.75,0,0,1,3.76,3.75v.3a3.76,3.76,0,0,1-3.76,3.76h0a3.75,3.75,0,0,1-3.75-3.76v-.3A3.75,3.75,0,0,1,452.1,836.63Z"/><path id="Rectangle_3139-3" data-name="Rectangle 3139-3" class="cls-19" d="M452.33,821.47h0a1.71,1.71,0,0,1,1.7,1.71v8a1.7,1.7,0,0,1-1.7,1.7h0a1.7,1.7,0,0,1-1.71-1.7v-8A1.71,1.71,0,0,1,452.33,821.47Z"/></g><g id="Group_7361-3" data-name="Group 7361-3"><path id="Rectangle_1425-11" data-name="Rectangle 1425-11" class="cls-15" d="M440.74,836.63h0a3.75,3.75,0,0,1,3.75,3.75v.3a3.75,3.75,0,0,1-3.75,3.76h0a3.76,3.76,0,0,1-3.76-3.76v-.3A3.75,3.75,0,0,1,440.74,836.63Z"/><path id="Rectangle_3140-3" data-name="Rectangle 3140-3" class="cls-17" d="M441,812.05h0a1.7,1.7,0,0,1,1.7,1.7v17.39a1.7,1.7,0,0,1-1.7,1.7h0a1.71,1.71,0,0,1-1.71-1.7V813.75A1.71,1.71,0,0,1,441,812.05Z"/></g><g id="Group_7362-3" data-name="Group 7362-3"><path id="Rectangle_1442-12" data-name="Rectangle 1442-12" class="cls-11" d="M429.37,836.63h0a3.75,3.75,0,0,1,3.75,3.75v.3a3.75,3.75,0,0,1-3.75,3.76h0a3.76,3.76,0,0,1-3.76-3.76v-.3A3.75,3.75,0,0,1,429.37,836.63Z"/><path id="Rectangle_3141-3" data-name="Rectangle 3141-3" class="cls-11" d="M429.59,816.38h0a1.7,1.7,0,0,1,1.7,1.7v13.06a1.7,1.7,0,0,1-1.7,1.7h0a1.71,1.71,0,0,1-1.71-1.7V818.08A1.71,1.71,0,0,1,429.59,816.38Z"/></g><g id="Group_7363-3" data-name="Group 7363-3"><path id="Rectangle_1425-12" data-name="Rectangle 1425-12" class="cls-10" d="M418,836.63h0a3.75,3.75,0,0,1,3.75,3.75v.3a3.75,3.75,0,0,1-3.75,3.76h0a3.76,3.76,0,0,1-3.76-3.76v-.3A3.75,3.75,0,0,1,418,836.63Z"/><path id="Rectangle_3142-3" data-name="Rectangle 3142-3" class="cls-10" d="M418.22,823.75h0a1.71,1.71,0,0,1,1.71,1.7v5.69a1.71,1.71,0,0,1-1.71,1.7h0a1.7,1.7,0,0,1-1.7-1.7v-5.69A1.7,1.7,0,0,1,418.22,823.75Z"/></g></g></g><g id="Group_7365-4" data-name="Group 7365-4"><g id="Group_7180-4" data-name="Group 7180-4"><g id="Group_5583-4" data-name="Group 5583-4"><g id="Group_5582-4" data-name="Group 5582-4"><g id="Group_5581-4" data-name="Group 5581-4"><rect id="Rectangle_1565-4" data-name="Rectangle 1565-4" class="cls-5" x="405.7" y="921.86" width="259.33" height="20.14"/><path id="Path_3764-4" data-name="Path 3764-4" class="cls-7" d="M403,867.42H668.1c5.23,0,9.46,3.09,9.46,6.89v44c0,3.8-4.23,6.88-9.46,6.88H403c-5.23,0-9.47-3.08-9.47-6.88v-44C393.53,870.51,397.77,867.42,403,867.42Z"/><path id="Rectangle_1631-4" data-name="Rectangle 1631-4" class="cls-8" d="M397.64,867.42h91.73V925.2H397.64a4.11,4.11,0,0,1-4.11-4.1V871.53A4.11,4.11,0,0,1,397.64,867.42Z"/></g></g></g></g><g id="Group_7183-4" data-name="Group 7183-4"><g id="Group_5584-4" data-name="Group 5584-4"><path id="Rectangle_1405-4" data-name="Rectangle 1405-4" class="cls-9" d="M572.42,888.11h0a3,3,0,0,1,3,3h0a3,3,0,0,1-3,3h0a3,3,0,0,1-3-3h0A3,3,0,0,1,572.42,888.11Z"/><path id="Rectangle_1424-4" data-name="Rectangle 1424-4" class="cls-10" d="M579.64,900.14h0a3,3,0,0,1,3,3h0a3,3,0,0,1-3,3h0a3,3,0,0,1-3-3h0A3,3,0,0,1,579.64,900.14Z"/><path id="Rectangle_1406-4" data-name="Rectangle 1406-4" class="cls-9" d="M584.45,888.11h0a3,3,0,0,1,3,3h0a3,3,0,0,1-3,3h0a3,3,0,0,1-3-3h0A3,3,0,0,1,584.45,888.11Z"/><path id="Rectangle_1423-4" data-name="Rectangle 1423-4" class="cls-9" d="M591.67,900.14h0a3,3,0,0,1,3,3h0a3,3,0,0,1-3,3h0a3,3,0,0,1-3-3h0A3,3,0,0,1,591.67,900.14Z"/><path id="Rectangle_1407-4" data-name="Rectangle 1407-4" class="cls-11" d="M596.48,888.11h0a3,3,0,0,1,3,3h0a3,3,0,0,1-3,3h0a3,3,0,0,1-3-3h0A3,3,0,0,1,596.48,888.11Z"/><path id="Rectangle_1422-4" data-name="Rectangle 1422-4" class="cls-9" d="M603.7,900.14h0a3,3,0,0,1,3,3h0a3,3,0,0,1-3,3h0a3,3,0,0,1-3-3h0A3,3,0,0,1,603.7,900.14Z"/><path id="Rectangle_1408-4" data-name="Rectangle 1408-4" class="cls-9" d="M608.51,888.11h0a3,3,0,0,1,3,3h0a3,3,0,0,1-3,3h0a3,3,0,0,1-3-3h0A3,3,0,0,1,608.51,888.11Z"/><path id="Rectangle_1421-4" data-name="Rectangle 1421-4" class="cls-10" d="M615.73,900.14h0a3,3,0,0,1,3,3h0a3,3,0,0,1-3,3h0a3,3,0,0,1-3-3h0A3,3,0,0,1,615.73,900.14Z"/><path id="Rectangle_1409-4" data-name="Rectangle 1409-4" class="cls-9" d="M620.54,888.11h0a3,3,0,0,1,3,3h0a3,3,0,0,1-3,3h0a3,3,0,0,1-3-3h0A3,3,0,0,1,620.54,888.11Z"/><path id="Rectangle_1420-4" data-name="Rectangle 1420-4" class="cls-9" d="M627.76,900.14h0a3,3,0,0,1,3,3h0a3,3,0,0,1-3,3h0a3,3,0,0,1-3-3h0A3,3,0,0,1,627.76,900.14Z"/></g></g><g id="Ellipse_1402-4" data-name="Ellipse 1402-4"><circle class="cls-12" cx="648.78" cy="896.64" r="5.12"/><circle class="cls-13" cx="648.78" cy="896.64" r="4.09"/></g><path id="Rectangle_3126-4" data-name="Rectangle 3126-4" class="cls-9" d="M558.4,885.84h0a2.27,2.27,0,0,1,2.27,2.27v17.06a2.27,2.27,0,0,1-2.27,2.27h0a2.27,2.27,0,0,1-2.27-2.27V888.11A2.27,2.27,0,0,1,558.4,885.84Z"/><path id="Rectangle_3127-4" data-name="Rectangle 3127-4" class="cls-9" d="M549.31,885.84h0a2.27,2.27,0,0,1,2.27,2.27v17.06a2.27,2.27,0,0,1-2.27,2.27h0a2.28,2.28,0,0,1-2.28-2.27V888.11A2.28,2.28,0,0,1,549.31,885.84Z"/><rect id="Rectangle_3128-4" data-name="Rectangle 3128-4" class="cls-8" x="503.83" y="885.84" width="36.38" height="9.09"/><rect id="Rectangle_3129-4" data-name="Rectangle 3129-4" class="cls-8" x="503.83" y="898.35" width="36.38" height="9.09"/><path id="Rectangle_3130-4" data-name="Rectangle 3130-4" class="cls-11" d="M556.13,890.39h4.54v14.78a2.27,2.27,0,0,1-2.27,2.27h0a2.27,2.27,0,0,1-2.27-2.27V890.39Z"/><path id="Rectangle_3131-4" data-name="Rectangle 3131-4" class="cls-10" d="M547,899h4.55v6.13a2.27,2.27,0,0,1-2.27,2.27h0a2.28,2.28,0,0,1-2.28-2.27h0V899Z"/><rect id="Rectangle_3132-4" data-name="Rectangle 3132-4" class="cls-14" x="503.83" y="885.84" width="9.09" height="9.09"/><rect id="Rectangle_3133-4" data-name="Rectangle 3133-4" class="cls-14" x="503.83" y="898.35" width="9.09" height="9.09"/><rect id="Rectangle_3136-4" data-name="Rectangle 3136-4" class="cls-15" x="517.48" y="889.25" width="18.19" height="2.27"/><rect id="Rectangle_3137-4" data-name="Rectangle 3137-4" class="cls-15" x="517.48" y="901.76" width="18.19" height="2.27"/><g id="Ellipse_1403-4" data-name="Ellipse 1403-4"><circle class="cls-12" cx="648.78" cy="896.64" r="10.8"/><circle class="cls-16" cx="648.78" cy="896.64" r="9.77"/></g><g id="Group_7381" data-name="Group 7381"><g id="Group_7359-4" data-name="Group 7359-4"><path id="Rectangle_3070-7" data-name="Rectangle 3070-7" class="cls-15" d="M463.47,905.43h0a3.76,3.76,0,0,1,3.76,3.76v.3a3.75,3.75,0,0,1-3.76,3.75h0a3.75,3.75,0,0,1-3.75-3.75v-.3A3.75,3.75,0,0,1,463.47,905.43Z"/><path id="Rectangle_3138-4" data-name="Rectangle 3138-4" class="cls-17" d="M463.69,883.46h0a1.7,1.7,0,0,1,1.71,1.7v14.78a1.71,1.71,0,0,1-1.71,1.71h0a1.71,1.71,0,0,1-1.7-1.71V885.16A1.7,1.7,0,0,1,463.69,883.46Z"/></g><g id="Group_7360-4" data-name="Group 7360-4"><path id="Rectangle_1442-13" data-name="Rectangle 1442-13" class="cls-18" d="M452.1,905.43h0a3.76,3.76,0,0,1,3.76,3.76v.3a3.75,3.75,0,0,1-3.76,3.75h0a3.75,3.75,0,0,1-3.75-3.75v-.3A3.75,3.75,0,0,1,452.1,905.43Z"/><path id="Rectangle_3139-4" data-name="Rectangle 3139-4" class="cls-19" d="M452.33,890.28h0A1.7,1.7,0,0,1,454,892v8a1.71,1.71,0,0,1-1.7,1.71h0a1.71,1.71,0,0,1-1.71-1.71v-8A1.7,1.7,0,0,1,452.33,890.28Z"/></g><g id="Group_7361-4" data-name="Group 7361-4"><path id="Rectangle_1425-13" data-name="Rectangle 1425-13" class="cls-15" d="M440.74,905.43h0a3.75,3.75,0,0,1,3.75,3.76v.3a3.75,3.75,0,0,1-3.75,3.75h0a3.75,3.75,0,0,1-3.76-3.75v-.3A3.76,3.76,0,0,1,440.74,905.43Z"/><path id="Rectangle_3140-4" data-name="Rectangle 3140-4" class="cls-17" d="M441,880.85h0a1.71,1.71,0,0,1,1.7,1.71v17.38a1.71,1.71,0,0,1-1.7,1.71h0a1.72,1.72,0,0,1-1.71-1.71V882.56A1.72,1.72,0,0,1,441,880.85Z"/></g><g id="Group_7362-4" data-name="Group 7362-4"><path id="Rectangle_1442-14" data-name="Rectangle 1442-14" class="cls-11" d="M429.37,905.43h0a3.75,3.75,0,0,1,3.75,3.76v.3a3.75,3.75,0,0,1-3.75,3.75h0a3.75,3.75,0,0,1-3.76-3.75v-.3A3.76,3.76,0,0,1,429.37,905.43Z"/><path id="Rectangle_3141-4" data-name="Rectangle 3141-4" class="cls-11" d="M429.59,885.18h0a1.7,1.7,0,0,1,1.7,1.71v13.05a1.71,1.71,0,0,1-1.7,1.71h0a1.72,1.72,0,0,1-1.71-1.71V886.89A1.71,1.71,0,0,1,429.59,885.18Z"/></g><g id="Group_7363-4" data-name="Group 7363-4"><path id="Rectangle_1425-14" data-name="Rectangle 1425-14" class="cls-10" d="M418,905.43h0a3.75,3.75,0,0,1,3.75,3.76v.3a3.75,3.75,0,0,1-3.75,3.75h0a3.75,3.75,0,0,1-3.76-3.75v-.3A3.76,3.76,0,0,1,418,905.43Z"/><path id="Rectangle_3142-4" data-name="Rectangle 3142-4" class="cls-10" d="M418.22,892.55h0a1.71,1.71,0,0,1,1.71,1.71v5.68a1.72,1.72,0,0,1-1.71,1.71h0a1.71,1.71,0,0,1-1.7-1.71v-5.68A1.7,1.7,0,0,1,418.22,892.55Z"/></g></g></g><g id="Group_7365-5" data-name="Group 7365-5"><g id="Group_7180-5" data-name="Group 7180-5"><g id="Group_5583-5" data-name="Group 5583-5"><g id="Group_5582-5" data-name="Group 5582-5"><g id="Group_5581-5" data-name="Group 5581-5"><path id="Path_3764-5" data-name="Path 3764-5" class="cls-7" d="M403,936.23H668.1c5.23,0,9.46,3.08,9.46,6.88v44c0,3.8-4.23,6.88-9.46,6.88H403c-5.23,0-9.47-3.08-9.47-6.88v-44C393.53,939.31,397.77,936.23,403,936.23Z"/><path id="Rectangle_1631-5" data-name="Rectangle 1631-5" class="cls-8" d="M397.64,936.23h91.73V994H397.64a4.11,4.11,0,0,1-4.11-4.11V940.34A4.11,4.11,0,0,1,397.64,936.23Z"/></g></g></g></g><g id="Group_7183-5" data-name="Group 7183-5"><g id="Group_5584-5" data-name="Group 5584-5"><path id="Rectangle_1405-5" data-name="Rectangle 1405-5" class="cls-9" d="M572.42,956.92h0a3,3,0,0,1,3,3h0a3,3,0,0,1-3,3h0a3,3,0,0,1-3-3h0A3,3,0,0,1,572.42,956.92Z"/><path id="Rectangle_1424-5" data-name="Rectangle 1424-5" class="cls-10" d="M579.64,969h0a3,3,0,0,1,3,3h0a3,3,0,0,1-3,3h0a3,3,0,0,1-3-3h0A3,3,0,0,1,579.64,969Z"/><path id="Rectangle_1406-5" data-name="Rectangle 1406-5" class="cls-9" d="M584.45,956.92h0a3,3,0,0,1,3,3h0a3,3,0,0,1-3,3h0a3,3,0,0,1-3-3h0A3,3,0,0,1,584.45,956.92Z"/><path id="Rectangle_1423-5" data-name="Rectangle 1423-5" class="cls-9" d="M591.67,969h0a3,3,0,0,1,3,3h0a3,3,0,0,1-3,3h0a3,3,0,0,1-3-3h0A3,3,0,0,1,591.67,969Z"/><path id="Rectangle_1407-5" data-name="Rectangle 1407-5" class="cls-11" d="M596.48,956.92h0a3,3,0,0,1,3,3h0a3,3,0,0,1-3,3h0a3,3,0,0,1-3-3h0A3,3,0,0,1,596.48,956.92Z"/><path id="Rectangle_1422-5" data-name="Rectangle 1422-5" class="cls-9" d="M603.7,969h0a3,3,0,0,1,3,3h0a3,3,0,0,1-3,3h0a3,3,0,0,1-3-3h0A3,3,0,0,1,603.7,969Z"/><path id="Rectangle_1408-5" data-name="Rectangle 1408-5" class="cls-9" d="M608.51,956.92h0a3,3,0,0,1,3,3h0a3,3,0,0,1-3,3h0a3,3,0,0,1-3-3h0A3,3,0,0,1,608.51,956.92Z"/><path id="Rectangle_1421-5" data-name="Rectangle 1421-5" class="cls-10" d="M615.73,969h0a3,3,0,0,1,3,3h0a3,3,0,0,1-3,3h0a3,3,0,0,1-3-3h0A3,3,0,0,1,615.73,969Z"/><path id="Rectangle_1409-5" data-name="Rectangle 1409-5" class="cls-9" d="M620.54,956.92h0a3,3,0,0,1,3,3h0a3,3,0,0,1-3,3h0a3,3,0,0,1-3-3h0A3,3,0,0,1,620.54,956.92Z"/><path id="Rectangle_1420-5" data-name="Rectangle 1420-5" class="cls-9" d="M627.76,969h0a3,3,0,0,1,3,3h0a3,3,0,0,1-3,3h0a3,3,0,0,1-3-3h0A3,3,0,0,1,627.76,969Z"/></g></g><g id="Ellipse_1402-5" data-name="Ellipse 1402-5"><circle class="cls-12" cx="648.78" cy="965.44" r="5.12"/><circle class="cls-13" cx="648.78" cy="965.44" r="4.09"/></g><path id="Rectangle_3126-5" data-name="Rectangle 3126-5" class="cls-9" d="M558.4,954.64h0a2.27,2.27,0,0,1,2.27,2.28V974a2.27,2.27,0,0,1-2.27,2.28h0a2.28,2.28,0,0,1-2.27-2.28V956.92A2.28,2.28,0,0,1,558.4,954.64Z"/><path id="Rectangle_3127-5" data-name="Rectangle 3127-5" class="cls-9" d="M549.31,954.64h0a2.28,2.28,0,0,1,2.27,2.28V974a2.28,2.28,0,0,1-2.27,2.28h0A2.28,2.28,0,0,1,547,974V956.92A2.28,2.28,0,0,1,549.31,954.64Z"/><rect id="Rectangle_3128-5" data-name="Rectangle 3128-5" class="cls-8" x="503.83" y="954.64" width="36.38" height="9.09"/><rect id="Rectangle_3129-5" data-name="Rectangle 3129-5" class="cls-8" x="503.83" y="967.15" width="36.38" height="9.09"/><path id="Rectangle_3130-5" data-name="Rectangle 3130-5" class="cls-11" d="M556.13,959.19h4.54V974a2.26,2.26,0,0,1-2.27,2.27h0a2.27,2.27,0,0,1-2.27-2.27V959.19Z"/><path id="Rectangle_3131-5" data-name="Rectangle 3131-5" class="cls-10" d="M547,967.85h4.55V974a2.27,2.27,0,0,1-2.27,2.27h0A2.27,2.27,0,0,1,547,974h0v-6.12Z"/><rect id="Rectangle_3132-5" data-name="Rectangle 3132-5" class="cls-14" x="503.83" y="954.64" width="9.09" height="9.09"/><rect id="Rectangle_3133-5" data-name="Rectangle 3133-5" class="cls-14" x="503.83" y="967.15" width="9.09" height="9.09"/><rect id="Rectangle_3136-5" data-name="Rectangle 3136-5" class="cls-15" x="517.48" y="958.06" width="18.19" height="2.27"/><rect id="Rectangle_3137-5" data-name="Rectangle 3137-5" class="cls-15" x="517.48" y="970.56" width="18.19" height="2.27"/><g id="Ellipse_1403-5" data-name="Ellipse 1403-5"><circle class="cls-12" cx="648.78" cy="965.44" r="10.8"/><circle class="cls-16" cx="648.78" cy="965.44" r="9.77"/></g><g id="Group_7382" data-name="Group 7382"><g id="Group_7359-5" data-name="Group 7359-5"><path id="Rectangle_3070-8" data-name="Rectangle 3070-8" class="cls-15" d="M463.47,973.21h0a3.75,3.75,0,0,1,3.76,3.75v.3a3.76,3.76,0,0,1-3.76,3.76h0a3.75,3.75,0,0,1-3.75-3.76V977A3.75,3.75,0,0,1,463.47,973.21Z"/><path id="Rectangle_3138-5" data-name="Rectangle 3138-5" class="cls-17" d="M463.69,951.23h0a1.71,1.71,0,0,1,1.71,1.71v14.78a1.7,1.7,0,0,1-1.71,1.7h0a1.7,1.7,0,0,1-1.7-1.7V952.94A1.71,1.71,0,0,1,463.69,951.23Z"/></g><g id="Group_7360-5" data-name="Group 7360-5"><path id="Rectangle_1442-15" data-name="Rectangle 1442-15" class="cls-18" d="M452.1,973.21h0a3.75,3.75,0,0,1,3.76,3.75v.3A3.76,3.76,0,0,1,452.1,981h0a3.75,3.75,0,0,1-3.75-3.76V977A3.75,3.75,0,0,1,452.1,973.21Z"/><path id="Rectangle_3139-5" data-name="Rectangle 3139-5" class="cls-19" d="M452.33,958.05h0a1.71,1.71,0,0,1,1.7,1.71v8a1.7,1.7,0,0,1-1.7,1.7h0a1.7,1.7,0,0,1-1.71-1.7v-8A1.71,1.71,0,0,1,452.33,958.05Z"/></g><g id="Group_7361-5" data-name="Group 7361-5"><path id="Rectangle_1425-15" data-name="Rectangle 1425-15" class="cls-15" d="M440.74,973.21h0a3.75,3.75,0,0,1,3.75,3.75v.3a3.75,3.75,0,0,1-3.75,3.76h0a3.76,3.76,0,0,1-3.76-3.76V977A3.75,3.75,0,0,1,440.74,973.21Z"/><path id="Rectangle_3140-5" data-name="Rectangle 3140-5" class="cls-17" d="M441,948.63h0a1.7,1.7,0,0,1,1.7,1.71v17.38a1.7,1.7,0,0,1-1.7,1.7h0a1.71,1.71,0,0,1-1.71-1.7V950.34A1.71,1.71,0,0,1,441,948.63Z"/></g><g id="Group_7362-5" data-name="Group 7362-5"><path id="Rectangle_1442-16" data-name="Rectangle 1442-16" class="cls-11" d="M429.37,973.21h0a3.75,3.75,0,0,1,3.75,3.75v.3a3.75,3.75,0,0,1-3.75,3.76h0a3.76,3.76,0,0,1-3.76-3.76V977A3.75,3.75,0,0,1,429.37,973.21Z"/><path id="Rectangle_3141-5" data-name="Rectangle 3141-5" class="cls-11" d="M429.59,953h0a1.7,1.7,0,0,1,1.7,1.7v13.06a1.7,1.7,0,0,1-1.7,1.7h0a1.71,1.71,0,0,1-1.71-1.7V954.66A1.71,1.71,0,0,1,429.59,953Z"/></g><g id="Group_7363-5" data-name="Group 7363-5"><path id="Rectangle_1425-16" data-name="Rectangle 1425-16" class="cls-10" d="M418,973.21h0a3.75,3.75,0,0,1,3.75,3.75v.3A3.75,3.75,0,0,1,418,981h0a3.76,3.76,0,0,1-3.76-3.76V977A3.75,3.75,0,0,1,418,973.21Z"/><path id="Rectangle_3142-5" data-name="Rectangle 3142-5" class="cls-10" d="M418.22,960.33h0a1.71,1.71,0,0,1,1.71,1.7v5.69a1.71,1.71,0,0,1-1.71,1.7h0a1.7,1.7,0,0,1-1.7-1.7V962A1.7,1.7,0,0,1,418.22,960.33Z"/></g></g></g></g><line class="cls-20" x1="535.55" y1="472.94" x2="535.55" y2="481.48"/><line class="cls-21" x1="535.55" y1="497.29" x2="535.55" y2="615.91"/><line class="cls-20" x1="535.55" y1="623.82" x2="535.55" y2="632.36"/><g id="Layer_2" data-name="Layer 2"><g id="Layer_1-2" data-name="Layer 1-2"><path class="cls-19" d="M468.64,681h9.52l-1.47,5.65a3.56,3.56,0,0,1-1.27,1.89,3.39,3.39,0,0,1-2.14.72h-4.42a4.2,4.2,0,0,0-2.67.88,4.67,4.67,0,0,0-1.62,2.4,4.47,4.47,0,0,0-.07,2.15,4.71,4.71,0,0,0,.82,1.79,4.27,4.27,0,0,0,1.52,1.24,4.4,4.4,0,0,0,2,.46h2.69a1.51,1.51,0,0,1,1.24.61,1.45,1.45,0,0,1,.28,1.37l-1.68,6.23h-2.95a11.91,11.91,0,0,1-5.58-1.32,12.76,12.76,0,0,1-4.24-3.52,12.45,12.45,0,0,1-2.29-5,12.2,12.2,0,0,1,.15-5.76l.17-.63a12.44,12.44,0,0,1,12-9.18Z"/><path class="cls-19" d="M473.44,706.38l8.3-31.07a3.56,3.56,0,0,1,1.26-1.89,3.42,3.42,0,0,1,2.15-.72H494a11.92,11.92,0,0,1,5.58,1.33,12.5,12.5,0,0,1,6.54,8.5,11.71,11.71,0,0,1-.16,5.76l-.17.63a12.77,12.77,0,0,1-1.69,3.72,12.29,12.29,0,0,1-10.27,5.5h-7.62l1.52-5.69a3.59,3.59,0,0,1,1.26-1.85,3.39,3.39,0,0,1,2.15-.71h2.44a4.43,4.43,0,0,0,4.29-3.33,4,4,0,0,0,.06-2.07,4.57,4.57,0,0,0-.82-1.79,4.41,4.41,0,0,0-1.52-1.26,4.27,4.27,0,0,0-2-.49h-4.72l-6.14,22.86a3.59,3.59,0,0,1-1.27,1.86,3.33,3.33,0,0,1-2.1.71Z"/><path class="cls-19" d="M526,689.79l.12-.46a.63.63,0,0,0-.1-.56.64.64,0,0,0-.53-.23H511.76a3.28,3.28,0,0,1-1.6-.38,3.53,3.53,0,0,1-1.77-4l.84-3.2h18.53a6.63,6.63,0,0,1,3.15.76,7.27,7.27,0,0,1,2.39,2,7,7,0,0,1,1.24,6.07l-3.32,12.38a5.71,5.71,0,0,1-5.56,4.25l-13.68,0a7.25,7.25,0,0,1-5.82-2.87,7.55,7.55,0,0,1-1.35-3,7,7,0,0,1,.09-3.39l.16-.63a6.68,6.68,0,0,1,1-2.19,7.84,7.84,0,0,1,1.62-1.73,7.39,7.39,0,0,1,2.07-1.11,7,7,0,0,1,2.4-.4h11.49l-.84,3.15a3.64,3.64,0,0,1-1.26,1.86,3.36,3.36,0,0,1-2.11.71h-5.14a.89.89,0,0,0-.92.72.85.85,0,0,0,.17.82,1,1,0,0,0,.75.36h8.3a1.33,1.33,0,0,0,.8-.25,1.12,1.12,0,0,0,.42-.68l.08-.34Z"/><path class="cls-19" d="M550.45,681a12,12,0,0,1,5.61,1.33,12.4,12.4,0,0,1,6.53,8.52,12.11,12.11,0,0,1-.19,5.77l-2.11,7.91a2.33,2.33,0,0,1-.9,1.35,2.61,2.61,0,0,1-1.54.51h-4.54a1.55,1.55,0,0,1-1.58-1.51,1.49,1.49,0,0,1,.07-.47l2.52-9.56a4,4,0,0,0,.06-2.06,4.42,4.42,0,0,0-2.33-3.06,4.3,4.3,0,0,0-2-.48h-4.72l-4.08,15.29a2.33,2.33,0,0,1-.91,1.35,2.63,2.63,0,0,1-1.58.5h-4.5a1.51,1.51,0,0,1-1.24-.61,1.45,1.45,0,0,1-.28-1.37L539,681Z"/><path class="cls-19" d="M575.24,689a2.14,2.14,0,0,0-.71,1l-1.9,7.15a1.25,1.25,0,0,0,1.23,1.6h17.43l-1.35,5a3.58,3.58,0,0,1-1.26,1.86,3.34,3.34,0,0,1-2.11.71H570.7a6.79,6.79,0,0,1-3.16-.73,7.15,7.15,0,0,1-2.39-2,7.26,7.26,0,0,1-1.3-2.82,6.54,6.54,0,0,1,.1-3.23l2.57-9.56a9.64,9.64,0,0,1,1.31-2.86,9.44,9.44,0,0,1,4.77-3.69,9.28,9.28,0,0,1,3.09-.52h11.25a6.66,6.66,0,0,1,3.15.76,7.34,7.34,0,0,1,2.39,2,6.74,6.74,0,0,1,1.28,2.83,7,7,0,0,1-.08,3.24l-.76,2.86a5.46,5.46,0,0,1-2,3.07,5.65,5.65,0,0,1-3.47,1.15H574.7l.84-3.12a3.44,3.44,0,0,1,3.37-2.57h5.14a.89.89,0,0,0,.92-.71l.17-.63a1,1,0,0,0-.69-1.19.85.85,0,0,0-.23,0h-7.84A1.73,1.73,0,0,0,575.24,689Z"/><path class="cls-19" d="M591.24,706.38l8.47-31.78a2.38,2.38,0,0,1,.9-1.37,2.51,2.51,0,0,1,1.58-.53h4.51a1.57,1.57,0,0,1,1.28.61,1.48,1.48,0,0,1,.28,1.37l-6.32,23.45a10.5,10.5,0,0,1-1.49,3.37,11.12,11.12,0,0,1-2.44,2.59,11.32,11.32,0,0,1-3.14,1.68A10.65,10.65,0,0,1,591.24,706.38Z"/><path class="cls-19" d="M609.71,675.66a2.83,2.83,0,0,1,.38-1.45,2.9,2.9,0,0,1,2.51-1.45,2.9,2.9,0,0,1,2.53,4.32,2.91,2.91,0,0,1-5.06,0A2.8,2.8,0,0,1,609.71,675.66Zm.4,0a2.5,2.5,0,0,0,3.74,2.16,2.56,2.56,0,0,0,.91-.91,2.47,2.47,0,0,0,0-2.5,2.56,2.56,0,0,0-.91-.91,2.49,2.49,0,0,0-3.4.91A2.4,2.4,0,0,0,610.11,675.66Zm3.67-.71a1,1,0,0,1-.17.55,1,1,0,0,1-.46.35l.92,1.52h-.65l-.79-1.36h-.52v1.36h-.57v-3.43h1a1.48,1.48,0,0,1,.93.25.94.94,0,0,1,.31.77Zm-1.67.59h.42a.78.78,0,0,0,.49-.16.53.53,0,0,0,.19-.41.46.46,0,0,0-.17-.41.86.86,0,0,0-.52-.13h-.41Z"/></g></g></svg>