<svg id="Layer_1" data-name="Layer 1" xmlns="http://www.w3.org/2000/svg" xmlns:xlink="http://www.w3.org/1999/xlink" viewBox="0 0 1080 1080"><defs><style>.cls-1{opacity:0.39;}.cls-2{fill:url(#linear-gradient);}.cls-3{fill:url(#linear-gradient-2);}.cls-4{fill:#1f364c;}.cls-5{fill:#0e71bb;}.cls-6{fill:#005b9f;}.cls-7{fill:#52acea;}.cls-8{fill:#21e2e2;}.cls-9{fill:#ffbc98;}.cls-10,.cls-11,.cls-14{fill:none;}.cls-11{stroke:#ffbc98;}.cls-11,.cls-14{stroke-width:2.5px;}.cls-12{fill:#80c9ff;}.cls-13{fill:#288ed9;}.cls-14{stroke:#21e2e2;}.cls-15{fill:#137fcf;}.cls-16{fill:#d6eeff;}.cls-17{fill:#fff;}.cls-18{fill:#ff6c2c;}</style><linearGradient id="linear-gradient" y1="542.55" x2="1080" y2="542.55" gradientUnits="userSpaceOnUse"><stop offset="0" stop-color="#a9e3ff"/><stop offset="0.19" stop-color="#83d7ff"/><stop offset="0.58" stop-color="#3dc1ff"/><stop offset="0.86" stop-color="#11b3ff"/><stop offset="1" stop-color="#00aeff"/></linearGradient><linearGradient id="linear-gradient-2" x1="-222.3" y1="3110.66" x2="-222.3" y2="3109.37" gradientTransform="matrix(531, 0, 0, -95, 118300.8, 296433.88)" gradientUnits="userSpaceOnUse"><stop offset="0" stop-color="#288ed9"/><stop offset="1" stop-color="#137fcf" stop-opacity="0.05"/></linearGradient></defs><g class="cls-1"><path class="cls-2" d="M894.21,240.71C785,154.82,680.59,155,574.39,233.62c-109.32,80.86-305.34,17.09-327.77-113.45-10.15-59.39-26.7-52.09-60.14-27-46.92,35.25-90.41,49.68-131.4-7.54C43.82,70,31.35,72.75,16,83.92c-14.83,11-18.6,21.47-14.28,38.77C20.49,198.62,31.2,278.37,94.41,334.44c15.59,13.68,23.43,32.18,12.82,44.91-68.74,83,1.26,121.19,52.7,162.27,29.12,23.13,48.88,42.24,53,84.63,2.52,25.55,11.22,86.69,52.2,78.19,87.6-18.3,101.42,43.8,138.33,94.34C453,866.72,528.63,923,610.29,918.76c66.83-3.32,112.94-47.21,164.24,47.17,27.45,50.84,138.28,28.67,210.89,43.6,47,9.6,20-50.79,46.57-65.62,4.42-2.57,8.6-5.79,12.72-8.75,20.22-14.44,38.37-72.72,34.85-96.1-3.22-20.87-15.44-27.76-30.67-38.87-46.77-33.59-102.14-67.69-35.76-133.81,13-13,19.06-41-1.71-45.86-72.46-16.4-39.37-76.69-52-116.72C941,445.77,990.45,398.1,992.62,326,1005.89,264,930.26,269.07,894.21,240.71Z"/></g><ellipse id="Ellipse_1369" data-name="Ellipse 1369" class="cls-3" cx="257.21" cy="1013.52" rx="250.33" ry="30.61"/><g id="Group_7367" data-name="Group 7367"><g id="Group_7365-2" data-name="Group 7365-2"><g id="Group_7180-2" data-name="Group 7180-2"><g id="Group_5583-2" data-name="Group 5583-2"><g id="Group_5582-2" data-name="Group 5582-2"><g id="Group_5581-2" data-name="Group 5581-2"><rect id="Rectangle_1565-2" data-name="Rectangle 1565-2" class="cls-4" x="94.43" y="745.8" width="330.98" height="25.7"/><path id="Path_3764-2" data-name="Path 3764-2" class="cls-5" d="M91,676.34H429.32c6.67,0,12.08,3.93,12.08,8.78V741.3c0,4.85-5.41,8.78-12.08,8.78H91c-6.67,0-12.08-3.93-12.08-8.78V685.12C78.9,680.27,84.31,676.34,91,676.34Z"/><path id="Rectangle_1631-2" data-name="Rectangle 1631-2" class="cls-6" d="M84.14,676.34H201.21v73.74H84.14a5.25,5.25,0,0,1-5.24-5.25V681.58A5.24,5.24,0,0,1,84.14,676.34Z"/></g></g></g></g><g id="Group_7183-2" data-name="Group 7183-2"><g id="Group_5584-2" data-name="Group 5584-2"><path id="Rectangle_1405-2" data-name="Rectangle 1405-2" class="cls-7" d="M307.21,702.74h0a3.84,3.84,0,0,1,3.84,3.84h0a3.84,3.84,0,0,1-3.84,3.84h0a3.84,3.84,0,0,1-3.84-3.84h0A3.84,3.84,0,0,1,307.21,702.74Z"/><path id="Rectangle_1424-2" data-name="Rectangle 1424-2" class="cls-8" d="M316.42,718.09h0a3.84,3.84,0,0,1,3.84,3.84h0a3.84,3.84,0,0,1-3.84,3.84h0a3.84,3.84,0,0,1-3.84-3.84h0A3.84,3.84,0,0,1,316.42,718.09Z"/><path id="Rectangle_1406-2" data-name="Rectangle 1406-2" class="cls-7" d="M322.56,702.74h0a3.84,3.84,0,0,1,3.84,3.84h0a3.84,3.84,0,0,1-3.84,3.84h0a3.83,3.83,0,0,1-3.83-3.84h0A3.83,3.83,0,0,1,322.56,702.74Z"/><path id="Rectangle_1423-2" data-name="Rectangle 1423-2" class="cls-7" d="M331.78,718.09h0a3.83,3.83,0,0,1,3.83,3.84h0a3.83,3.83,0,0,1-3.83,3.84h0a3.84,3.84,0,0,1-3.84-3.84h0A3.84,3.84,0,0,1,331.78,718.09Z"/><path id="Rectangle_1407-2" data-name="Rectangle 1407-2" class="cls-9" d="M337.92,702.74h0a3.84,3.84,0,0,1,3.84,3.84h0a3.84,3.84,0,0,1-3.84,3.84h0a3.84,3.84,0,0,1-3.84-3.84h0A3.84,3.84,0,0,1,337.92,702.74Z"/><path id="Rectangle_1422-2" data-name="Rectangle 1422-2" class="cls-7" d="M347.13,718.09h0a3.84,3.84,0,0,1,3.84,3.84h0a3.84,3.84,0,0,1-3.84,3.84h0a3.84,3.84,0,0,1-3.84-3.84h0A3.84,3.84,0,0,1,347.13,718.09Z"/><path id="Rectangle_1408-2" data-name="Rectangle 1408-2" class="cls-7" d="M353.27,702.74h0a3.84,3.84,0,0,1,3.84,3.84h0a3.84,3.84,0,0,1-3.84,3.84h0a3.84,3.84,0,0,1-3.84-3.84h0A3.84,3.84,0,0,1,353.27,702.74Z"/><path id="Rectangle_1421-2" data-name="Rectangle 1421-2" class="cls-8" d="M362.48,718.09h0a3.84,3.84,0,0,1,3.84,3.84h0a3.84,3.84,0,0,1-3.84,3.84h0a3.83,3.83,0,0,1-3.83-3.84h0A3.83,3.83,0,0,1,362.48,718.09Z"/><path id="Rectangle_1409-2" data-name="Rectangle 1409-2" class="cls-7" d="M368.63,702.74h0a3.84,3.84,0,0,1,3.83,3.84h0a3.84,3.84,0,0,1-3.83,3.84h0a3.84,3.84,0,0,1-3.84-3.84h0A3.84,3.84,0,0,1,368.63,702.74Z"/><path id="Rectangle_1420-2" data-name="Rectangle 1420-2" class="cls-7" d="M377.84,718.09h0a3.83,3.83,0,0,1,3.83,3.84h0a3.83,3.83,0,0,1-3.83,3.84h0a3.84,3.84,0,0,1-3.84-3.84h0A3.84,3.84,0,0,1,377.84,718.09Z"/></g></g><g id="Ellipse_1402-2" data-name="Ellipse 1402-2"><circle class="cls-10" cx="404.67" cy="713.62" r="6.53"/><circle class="cls-11" cx="404.67" cy="713.62" r="5.22"/></g><path id="Rectangle_3126-2" data-name="Rectangle 3126-2" class="cls-7" d="M289.32,699.84h0a2.9,2.9,0,0,1,2.9,2.9v21.77a2.9,2.9,0,0,1-2.9,2.9h0a2.9,2.9,0,0,1-2.9-2.9V702.74A2.9,2.9,0,0,1,289.32,699.84Z"/><path id="Rectangle_3127-2" data-name="Rectangle 3127-2" class="cls-7" d="M277.71,699.84h0a2.9,2.9,0,0,1,2.9,2.9v21.77a2.9,2.9,0,0,1-2.9,2.9h0a2.9,2.9,0,0,1-2.9-2.9V702.74A2.9,2.9,0,0,1,277.71,699.84Z"/><rect id="Rectangle_3128-2" data-name="Rectangle 3128-2" class="cls-6" x="219.67" y="699.84" width="46.43" height="11.61"/><rect id="Rectangle_3129-2" data-name="Rectangle 3129-2" class="cls-6" x="219.67" y="715.8" width="46.43" height="11.61"/><path id="Rectangle_3130-2" data-name="Rectangle 3130-2" class="cls-9" d="M286.42,705.64h5.8V724.5a2.9,2.9,0,0,1-2.9,2.91h0a2.9,2.9,0,0,1-2.9-2.91V705.64Z"/><path id="Rectangle_3131-2" data-name="Rectangle 3131-2" class="cls-8" d="M274.81,716.69h5.8v7.81a2.9,2.9,0,0,1-2.9,2.91h0a2.9,2.9,0,0,1-2.9-2.91h0v-7.81Z"/><rect id="Rectangle_3132-2" data-name="Rectangle 3132-2" class="cls-12" x="219.67" y="699.84" width="11.61" height="11.61"/><rect id="Rectangle_3133-2" data-name="Rectangle 3133-2" class="cls-12" x="219.67" y="715.8" width="11.61" height="11.61"/><rect id="Rectangle_3136-2" data-name="Rectangle 3136-2" class="cls-13" x="237.08" y="704.19" width="23.21" height="2.9"/><rect id="Rectangle_3137-2" data-name="Rectangle 3137-2" class="cls-13" x="237.08" y="720.15" width="23.21" height="2.9"/><g id="Ellipse_1403-2" data-name="Ellipse 1403-2"><circle class="cls-10" cx="404.67" cy="713.62" r="13.78"/><circle class="cls-14" cx="404.67" cy="713.62" r="12.47"/></g><g id="Group_7379" data-name="Group 7379"><g id="Group_7359-2" data-name="Group 7359-2"><path id="Rectangle_3070-5" data-name="Rectangle 3070-5" class="cls-13" d="M168.16,724.84h0a4.79,4.79,0,0,1,4.79,4.8V730a4.78,4.78,0,0,1-4.79,4.79h0a4.78,4.78,0,0,1-4.79-4.79v-.38A4.79,4.79,0,0,1,168.16,724.84Z"/><path id="Rectangle_3138-2" data-name="Rectangle 3138-2" class="cls-15" d="M168.45,696.8h0a2.17,2.17,0,0,1,2.17,2.17v18.86a2.17,2.17,0,0,1-2.17,2.18h0a2.17,2.17,0,0,1-2.18-2.18V699A2.17,2.17,0,0,1,168.45,696.8Z"/></g><g id="Group_7360-2" data-name="Group 7360-2"><path id="Rectangle_1442-9" data-name="Rectangle 1442-9" class="cls-16" d="M153.65,724.84h0a4.8,4.8,0,0,1,4.8,4.8V730a4.79,4.79,0,0,1-4.8,4.79h0a4.78,4.78,0,0,1-4.79-4.79v-.38A4.79,4.79,0,0,1,153.65,724.84Z"/><path id="Rectangle_3139-2" data-name="Rectangle 3139-2" class="cls-17" d="M153.94,705.5h0a2.18,2.18,0,0,1,2.17,2.18v10.15a2.17,2.17,0,0,1-2.17,2.18h0a2.17,2.17,0,0,1-2.18-2.18V707.68A2.18,2.18,0,0,1,153.94,705.5Z"/></g><g id="Group_7361-2" data-name="Group 7361-2"><path id="Rectangle_1425-9" data-name="Rectangle 1425-9" class="cls-13" d="M139.14,724.84h0a4.8,4.8,0,0,1,4.8,4.8V730a4.79,4.79,0,0,1-4.8,4.79h0a4.79,4.79,0,0,1-4.79-4.79v-.38A4.8,4.8,0,0,1,139.14,724.84Z"/><path id="Rectangle_3140-2" data-name="Rectangle 3140-2" class="cls-15" d="M139.43,693.47h0a2.18,2.18,0,0,1,2.17,2.18v22.18a2.17,2.17,0,0,1-2.17,2.18h0a2.18,2.18,0,0,1-2.18-2.18V695.65A2.19,2.19,0,0,1,139.43,693.47Z"/></g><g id="Group_7362-2" data-name="Group 7362-2"><path id="Rectangle_1442-10" data-name="Rectangle 1442-10" class="cls-9" d="M124.63,724.84h0a4.8,4.8,0,0,1,4.8,4.8V730a4.79,4.79,0,0,1-4.8,4.79h0a4.79,4.79,0,0,1-4.79-4.79v-.38A4.8,4.8,0,0,1,124.63,724.84Z"/><path id="Rectangle_3141-2" data-name="Rectangle 3141-2" class="cls-9" d="M124.92,699h0a2.17,2.17,0,0,1,2.17,2.17v16.66a2.17,2.17,0,0,1-2.17,2.18h0a2.18,2.18,0,0,1-2.18-2.18V701.17A2.18,2.18,0,0,1,124.92,699Z"/></g><g id="Group_7363-2" data-name="Group 7363-2"><path id="Rectangle_1425-10" data-name="Rectangle 1425-10" class="cls-8" d="M110.12,724.84h0a4.8,4.8,0,0,1,4.8,4.8V730a4.79,4.79,0,0,1-4.8,4.79h0a4.79,4.79,0,0,1-4.79-4.79v-.38A4.8,4.8,0,0,1,110.12,724.84Z"/><path id="Rectangle_3142-2" data-name="Rectangle 3142-2" class="cls-8" d="M110.41,708.4h0a2.18,2.18,0,0,1,2.17,2.18v7.25a2.17,2.17,0,0,1-2.17,2.18h0a2.18,2.18,0,0,1-2.18-2.18v-7.25A2.19,2.19,0,0,1,110.41,708.4Z"/></g></g></g><g id="Group_7365-3" data-name="Group 7365-3"><g id="Group_7180-3" data-name="Group 7180-3"><g id="Group_5583-3" data-name="Group 5583-3"><g id="Group_5582-3" data-name="Group 5582-3"><g id="Group_5581-3" data-name="Group 5581-3"><rect id="Rectangle_1565-3" data-name="Rectangle 1565-3" class="cls-4" x="94.43" y="833.62" width="330.98" height="25.7"/><path id="Path_3764-3" data-name="Path 3764-3" class="cls-5" d="M91,764.15H429.32c6.67,0,12.08,3.93,12.08,8.78v56.18c0,4.85-5.41,8.78-12.08,8.78H91c-6.67,0-12.08-3.93-12.08-8.78V772.93C78.9,768.08,84.31,764.15,91,764.15Z"/><path id="Rectangle_1631-3" data-name="Rectangle 1631-3" class="cls-6" d="M84.14,764.15H201.21v73.74H84.14a5.25,5.25,0,0,1-5.24-5.24V769.39A5.25,5.25,0,0,1,84.14,764.15Z"/></g></g></g></g><g id="Group_7183-3" data-name="Group 7183-3"><g id="Group_5584-3" data-name="Group 5584-3"><path id="Rectangle_1405-3" data-name="Rectangle 1405-3" class="cls-7" d="M307.21,790.55h0a3.84,3.84,0,0,1,3.84,3.84h0a3.84,3.84,0,0,1-3.84,3.84h0a3.84,3.84,0,0,1-3.84-3.84h0A3.84,3.84,0,0,1,307.21,790.55Z"/><path id="Rectangle_1424-3" data-name="Rectangle 1424-3" class="cls-8" d="M316.42,805.91h0a3.84,3.84,0,0,1,3.84,3.84h0a3.83,3.83,0,0,1-3.84,3.83h0a3.83,3.83,0,0,1-3.84-3.83h0A3.84,3.84,0,0,1,316.42,805.91Z"/><path id="Rectangle_1406-3" data-name="Rectangle 1406-3" class="cls-7" d="M322.56,790.55h0a3.84,3.84,0,0,1,3.84,3.84h0a3.84,3.84,0,0,1-3.84,3.84h0a3.83,3.83,0,0,1-3.83-3.84h0A3.83,3.83,0,0,1,322.56,790.55Z"/><path id="Rectangle_1423-3" data-name="Rectangle 1423-3" class="cls-7" d="M331.78,805.91h0a3.83,3.83,0,0,1,3.83,3.84h0a3.82,3.82,0,0,1-3.83,3.83h0a3.83,3.83,0,0,1-3.84-3.83h0A3.84,3.84,0,0,1,331.78,805.91Z"/><path id="Rectangle_1407-3" data-name="Rectangle 1407-3" class="cls-9" d="M337.92,790.55h0a3.84,3.84,0,0,1,3.84,3.84h0a3.84,3.84,0,0,1-3.84,3.84h0a3.84,3.84,0,0,1-3.84-3.84h0A3.84,3.84,0,0,1,337.92,790.55Z"/><path id="Rectangle_1422-3" data-name="Rectangle 1422-3" class="cls-7" d="M347.13,805.91h0a3.84,3.84,0,0,1,3.84,3.84h0a3.83,3.83,0,0,1-3.84,3.83h0a3.83,3.83,0,0,1-3.84-3.83h0A3.84,3.84,0,0,1,347.13,805.91Z"/><path id="Rectangle_1408-3" data-name="Rectangle 1408-3" class="cls-7" d="M353.27,790.55h0a3.84,3.84,0,0,1,3.84,3.84h0a3.84,3.84,0,0,1-3.84,3.84h0a3.84,3.84,0,0,1-3.84-3.84h0A3.84,3.84,0,0,1,353.27,790.55Z"/><path id="Rectangle_1421-3" data-name="Rectangle 1421-3" class="cls-8" d="M362.48,805.91h0a3.84,3.84,0,0,1,3.84,3.84h0a3.83,3.83,0,0,1-3.84,3.83h0a3.82,3.82,0,0,1-3.83-3.83h0A3.83,3.83,0,0,1,362.48,805.91Z"/><path id="Rectangle_1409-3" data-name="Rectangle 1409-3" class="cls-7" d="M368.63,790.55h0a3.84,3.84,0,0,1,3.83,3.84h0a3.84,3.84,0,0,1-3.83,3.84h0a3.84,3.84,0,0,1-3.84-3.84h0A3.84,3.84,0,0,1,368.63,790.55Z"/><path id="Rectangle_1420-3" data-name="Rectangle 1420-3" class="cls-7" d="M377.84,805.91h0a3.83,3.83,0,0,1,3.83,3.84h0a3.82,3.82,0,0,1-3.83,3.83h0a3.83,3.83,0,0,1-3.84-3.83h0A3.84,3.84,0,0,1,377.84,805.91Z"/></g></g><g id="Ellipse_1402-3" data-name="Ellipse 1402-3"><circle class="cls-10" cx="404.67" cy="801.44" r="6.53"/><circle class="cls-11" cx="404.67" cy="801.44" r="5.22"/></g><path id="Rectangle_3126-3" data-name="Rectangle 3126-3" class="cls-7" d="M289.32,787.65h0a2.9,2.9,0,0,1,2.9,2.9v21.77a2.9,2.9,0,0,1-2.9,2.9h0a2.9,2.9,0,0,1-2.9-2.9V790.55A2.9,2.9,0,0,1,289.32,787.65Z"/><path id="Rectangle_3127-3" data-name="Rectangle 3127-3" class="cls-7" d="M277.71,787.65h0a2.9,2.9,0,0,1,2.9,2.9v21.77a2.9,2.9,0,0,1-2.9,2.9h0a2.9,2.9,0,0,1-2.9-2.9V790.55A2.9,2.9,0,0,1,277.71,787.65Z"/><rect id="Rectangle_3128-3" data-name="Rectangle 3128-3" class="cls-6" x="219.67" y="787.65" width="46.43" height="11.61"/><rect id="Rectangle_3129-3" data-name="Rectangle 3129-3" class="cls-6" x="219.67" y="803.61" width="46.43" height="11.61"/><path id="Rectangle_3130-3" data-name="Rectangle 3130-3" class="cls-9" d="M286.42,793.46h5.8v18.86a2.9,2.9,0,0,1-2.9,2.9h0a2.9,2.9,0,0,1-2.9-2.9V793.46Z"/><path id="Rectangle_3131-3" data-name="Rectangle 3131-3" class="cls-8" d="M274.81,804.5h5.8v7.82a2.9,2.9,0,0,1-2.9,2.9h0a2.9,2.9,0,0,1-2.9-2.9h0V804.5Z"/><rect id="Rectangle_3132-3" data-name="Rectangle 3132-3" class="cls-12" x="219.67" y="787.65" width="11.61" height="11.61"/><rect id="Rectangle_3133-3" data-name="Rectangle 3133-3" class="cls-12" x="219.67" y="803.61" width="11.61" height="11.61"/><rect id="Rectangle_3136-3" data-name="Rectangle 3136-3" class="cls-13" x="237.08" y="792.01" width="23.21" height="2.9"/><rect id="Rectangle_3137-3" data-name="Rectangle 3137-3" class="cls-13" x="237.08" y="807.97" width="23.21" height="2.9"/><g id="Ellipse_1403-3" data-name="Ellipse 1403-3"><circle class="cls-10" cx="404.67" cy="801.44" r="13.78"/><circle class="cls-14" cx="404.67" cy="801.44" r="12.47"/></g><g id="Group_7380" data-name="Group 7380"><g id="Group_7359-3" data-name="Group 7359-3"><path id="Rectangle_3070-6" data-name="Rectangle 3070-6" class="cls-13" d="M168.16,812.66h0a4.78,4.78,0,0,1,4.79,4.79v.38a4.78,4.78,0,0,1-4.79,4.79h0a4.78,4.78,0,0,1-4.79-4.79v-.38A4.78,4.78,0,0,1,168.16,812.66Z"/><path id="Rectangle_3138-3" data-name="Rectangle 3138-3" class="cls-15" d="M168.45,784.61h0a2.17,2.17,0,0,1,2.17,2.18v18.86a2.17,2.17,0,0,1-2.17,2.17h0a2.17,2.17,0,0,1-2.18-2.17V786.79A2.17,2.17,0,0,1,168.45,784.61Z"/></g><g id="Group_7360-3" data-name="Group 7360-3"><path id="Rectangle_1442-11" data-name="Rectangle 1442-11" class="cls-16" d="M153.65,812.66h0a4.79,4.79,0,0,1,4.8,4.79v.38a4.79,4.79,0,0,1-4.8,4.79h0a4.78,4.78,0,0,1-4.79-4.79v-.38A4.78,4.78,0,0,1,153.65,812.66Z"/><path id="Rectangle_3139-3" data-name="Rectangle 3139-3" class="cls-17" d="M153.94,793.32h0a2.17,2.17,0,0,1,2.17,2.17v10.16a2.17,2.17,0,0,1-2.17,2.17h0a2.17,2.17,0,0,1-2.18-2.17V795.49A2.17,2.17,0,0,1,153.94,793.32Z"/></g><g id="Group_7361-3" data-name="Group 7361-3"><path id="Rectangle_1425-11" data-name="Rectangle 1425-11" class="cls-13" d="M139.14,812.66h0a4.79,4.79,0,0,1,4.8,4.79v.38a4.79,4.79,0,0,1-4.8,4.79h0a4.79,4.79,0,0,1-4.79-4.79v-.38A4.79,4.79,0,0,1,139.14,812.66Z"/><path id="Rectangle_3140-3" data-name="Rectangle 3140-3" class="cls-15" d="M139.43,781.29h0a2.17,2.17,0,0,1,2.17,2.17v22.19a2.18,2.18,0,0,1-2.17,2.18h0a2.19,2.19,0,0,1-2.18-2.18V783.46A2.18,2.18,0,0,1,139.43,781.29Z"/></g><g id="Group_7362-3" data-name="Group 7362-3"><path id="Rectangle_1442-12" data-name="Rectangle 1442-12" class="cls-9" d="M124.63,812.66h0a4.79,4.79,0,0,1,4.8,4.79v.38a4.79,4.79,0,0,1-4.8,4.79h0a4.79,4.79,0,0,1-4.79-4.79v-.38A4.79,4.79,0,0,1,124.63,812.66Z"/><path id="Rectangle_3141-3" data-name="Rectangle 3141-3" class="cls-9" d="M124.92,786.81h0a2.17,2.17,0,0,1,2.17,2.18v16.66a2.18,2.18,0,0,1-2.17,2.18h0a2.19,2.19,0,0,1-2.18-2.18V789A2.18,2.18,0,0,1,124.92,786.81Z"/></g><g id="Group_7363-3" data-name="Group 7363-3"><path id="Rectangle_1425-12" data-name="Rectangle 1425-12" class="cls-8" d="M110.12,812.66h0a4.79,4.79,0,0,1,4.8,4.79v.38a4.79,4.79,0,0,1-4.8,4.79h0a4.79,4.79,0,0,1-4.79-4.79v-.38A4.79,4.79,0,0,1,110.12,812.66Z"/><path id="Rectangle_3142-3" data-name="Rectangle 3142-3" class="cls-8" d="M110.41,796.22h0a2.17,2.17,0,0,1,2.17,2.17v7.26a2.17,2.17,0,0,1-2.17,2.17h0a2.18,2.18,0,0,1-2.18-2.17v-7.26A2.18,2.18,0,0,1,110.41,796.22Z"/></g></g></g><g id="Group_7365-4" data-name="Group 7365-4"><g id="Group_7180-4" data-name="Group 7180-4"><g id="Group_5583-4" data-name="Group 5583-4"><g id="Group_5582-4" data-name="Group 5582-4"><g id="Group_5581-4" data-name="Group 5581-4"><rect id="Rectangle_1565-4" data-name="Rectangle 1565-4" class="cls-4" x="94.43" y="921.43" width="330.98" height="25.7"/><path id="Path_3764-4" data-name="Path 3764-4" class="cls-5" d="M91,852H429.32c6.67,0,12.08,3.93,12.08,8.78v56.18c0,4.85-5.41,8.79-12.08,8.79H91c-6.67,0-12.08-3.94-12.08-8.79V860.74C78.9,855.89,84.31,852,91,852Z"/><path id="Rectangle_1631-4" data-name="Rectangle 1631-4" class="cls-6" d="M84.14,852H201.21V925.7H84.14a5.24,5.24,0,0,1-5.24-5.24V857.21A5.25,5.25,0,0,1,84.14,852Z"/></g></g></g></g><g id="Group_7183-4" data-name="Group 7183-4"><g id="Group_5584-4" data-name="Group 5584-4"><path id="Rectangle_1405-4" data-name="Rectangle 1405-4" class="cls-7" d="M307.21,878.37h0a3.84,3.84,0,0,1,3.84,3.83h0a3.84,3.84,0,0,1-3.84,3.84h0a3.84,3.84,0,0,1-3.84-3.84h0A3.84,3.84,0,0,1,307.21,878.37Z"/><path id="Rectangle_1424-4" data-name="Rectangle 1424-4" class="cls-8" d="M316.42,893.72h0a3.84,3.84,0,0,1,3.84,3.84h0a3.84,3.84,0,0,1-3.84,3.84h0a3.84,3.84,0,0,1-3.84-3.84h0A3.84,3.84,0,0,1,316.42,893.72Z"/><path id="Rectangle_1406-4" data-name="Rectangle 1406-4" class="cls-7" d="M322.56,878.37h0a3.84,3.84,0,0,1,3.84,3.83h0a3.84,3.84,0,0,1-3.84,3.84h0a3.83,3.83,0,0,1-3.83-3.84h0A3.83,3.83,0,0,1,322.56,878.37Z"/><path id="Rectangle_1423-4" data-name="Rectangle 1423-4" class="cls-7" d="M331.78,893.72h0a3.83,3.83,0,0,1,3.83,3.84h0a3.83,3.83,0,0,1-3.83,3.84h0a3.84,3.84,0,0,1-3.84-3.84h0A3.84,3.84,0,0,1,331.78,893.72Z"/><path id="Rectangle_1407-4" data-name="Rectangle 1407-4" class="cls-9" d="M337.92,878.37h0a3.84,3.84,0,0,1,3.84,3.83h0a3.84,3.84,0,0,1-3.84,3.84h0a3.84,3.84,0,0,1-3.84-3.84h0A3.84,3.84,0,0,1,337.92,878.37Z"/><path id="Rectangle_1422-4" data-name="Rectangle 1422-4" class="cls-7" d="M347.13,893.72h0a3.84,3.84,0,0,1,3.84,3.84h0a3.84,3.84,0,0,1-3.84,3.84h0a3.84,3.84,0,0,1-3.84-3.84h0A3.84,3.84,0,0,1,347.13,893.72Z"/><path id="Rectangle_1408-4" data-name="Rectangle 1408-4" class="cls-7" d="M353.27,878.37h0a3.84,3.84,0,0,1,3.84,3.83h0a3.84,3.84,0,0,1-3.84,3.84h0a3.84,3.84,0,0,1-3.84-3.84h0A3.84,3.84,0,0,1,353.27,878.37Z"/><path id="Rectangle_1421-4" data-name="Rectangle 1421-4" class="cls-8" d="M362.48,893.72h0a3.84,3.84,0,0,1,3.84,3.84h0a3.84,3.84,0,0,1-3.84,3.84h0a3.83,3.83,0,0,1-3.83-3.84h0A3.83,3.83,0,0,1,362.48,893.72Z"/><path id="Rectangle_1409-4" data-name="Rectangle 1409-4" class="cls-7" d="M368.63,878.37h0a3.84,3.84,0,0,1,3.83,3.83h0a3.84,3.84,0,0,1-3.83,3.84h0a3.84,3.84,0,0,1-3.84-3.84h0A3.84,3.84,0,0,1,368.63,878.37Z"/><path id="Rectangle_1420-4" data-name="Rectangle 1420-4" class="cls-7" d="M377.84,893.72h0a3.83,3.83,0,0,1,3.83,3.84h0a3.83,3.83,0,0,1-3.83,3.84h0a3.84,3.84,0,0,1-3.84-3.84h0A3.84,3.84,0,0,1,377.84,893.72Z"/></g></g><g id="Ellipse_1402-4" data-name="Ellipse 1402-4"><circle class="cls-10" cx="404.67" cy="889.25" r="6.53"/><circle class="cls-11" cx="404.67" cy="889.25" r="5.22"/></g><path id="Rectangle_3126-4" data-name="Rectangle 3126-4" class="cls-7" d="M289.32,875.47h0a2.9,2.9,0,0,1,2.9,2.9v21.76a2.9,2.9,0,0,1-2.9,2.9h0a2.89,2.89,0,0,1-2.9-2.9V878.37A2.9,2.9,0,0,1,289.32,875.47Z"/><path id="Rectangle_3127-4" data-name="Rectangle 3127-4" class="cls-7" d="M277.71,875.47h0a2.9,2.9,0,0,1,2.9,2.9v21.76a2.9,2.9,0,0,1-2.9,2.9h0a2.9,2.9,0,0,1-2.9-2.9V878.37A2.9,2.9,0,0,1,277.71,875.47Z"/><rect id="Rectangle_3128-4" data-name="Rectangle 3128-4" class="cls-6" x="219.67" y="875.47" width="46.43" height="11.61"/><rect id="Rectangle_3129-4" data-name="Rectangle 3129-4" class="cls-6" x="219.67" y="891.43" width="46.43" height="11.61"/><path id="Rectangle_3130-4" data-name="Rectangle 3130-4" class="cls-9" d="M286.42,881.27h5.8v18.86a2.9,2.9,0,0,1-2.9,2.9h0a2.9,2.9,0,0,1-2.9-2.9V881.27Z"/><path id="Rectangle_3131-4" data-name="Rectangle 3131-4" class="cls-8" d="M274.81,892.32h5.8v7.81a2.9,2.9,0,0,1-2.9,2.9h0a2.9,2.9,0,0,1-2.9-2.9h0v-7.81Z"/><rect id="Rectangle_3132-4" data-name="Rectangle 3132-4" class="cls-12" x="219.67" y="875.47" width="11.61" height="11.61"/><rect id="Rectangle_3133-4" data-name="Rectangle 3133-4" class="cls-12" x="219.67" y="891.43" width="11.61" height="11.61"/><rect id="Rectangle_3136-4" data-name="Rectangle 3136-4" class="cls-13" x="237.08" y="879.82" width="23.21" height="2.9"/><rect id="Rectangle_3137-4" data-name="Rectangle 3137-4" class="cls-13" x="237.08" y="895.78" width="23.21" height="2.9"/><g id="Ellipse_1403-4" data-name="Ellipse 1403-4"><circle class="cls-10" cx="404.67" cy="889.25" r="13.78"/><circle class="cls-14" cx="404.67" cy="889.25" r="12.47"/></g><g id="Group_7381" data-name="Group 7381"><g id="Group_7359-4" data-name="Group 7359-4"><path id="Rectangle_3070-7" data-name="Rectangle 3070-7" class="cls-13" d="M168.16,900.47h0a4.79,4.79,0,0,1,4.79,4.79v.38a4.79,4.79,0,0,1-4.79,4.8h0a4.79,4.79,0,0,1-4.79-4.8v-.38A4.79,4.79,0,0,1,168.16,900.47Z"/><path id="Rectangle_3138-4" data-name="Rectangle 3138-4" class="cls-15" d="M168.45,872.42h0a2.18,2.18,0,0,1,2.17,2.18v18.86a2.18,2.18,0,0,1-2.17,2.18h0a2.18,2.18,0,0,1-2.18-2.18V874.6A2.18,2.18,0,0,1,168.45,872.42Z"/></g><g id="Group_7360-4" data-name="Group 7360-4"><path id="Rectangle_1442-13" data-name="Rectangle 1442-13" class="cls-16" d="M153.65,900.47h0a4.8,4.8,0,0,1,4.8,4.79v.38a4.8,4.8,0,0,1-4.8,4.8h0a4.79,4.79,0,0,1-4.79-4.8v-.38A4.79,4.79,0,0,1,153.65,900.47Z"/><path id="Rectangle_3139-4" data-name="Rectangle 3139-4" class="cls-17" d="M153.94,881.13h0a2.17,2.17,0,0,1,2.17,2.18v10.15a2.18,2.18,0,0,1-2.17,2.18h0a2.18,2.18,0,0,1-2.18-2.18V883.31A2.17,2.17,0,0,1,153.94,881.13Z"/></g><g id="Group_7361-4" data-name="Group 7361-4"><path id="Rectangle_1425-13" data-name="Rectangle 1425-13" class="cls-13" d="M139.14,900.47h0a4.8,4.8,0,0,1,4.8,4.79v.38a4.8,4.8,0,0,1-4.8,4.8h0a4.8,4.8,0,0,1-4.79-4.8v-.38A4.8,4.8,0,0,1,139.14,900.47Z"/><path id="Rectangle_3140-4" data-name="Rectangle 3140-4" class="cls-15" d="M139.43,869.1h0a2.18,2.18,0,0,1,2.17,2.18v22.18a2.18,2.18,0,0,1-2.17,2.18h0a2.19,2.19,0,0,1-2.18-2.18V871.28A2.19,2.19,0,0,1,139.43,869.1Z"/></g><g id="Group_7362-4" data-name="Group 7362-4"><path id="Rectangle_1442-14" data-name="Rectangle 1442-14" class="cls-9" d="M124.63,900.47h0a4.8,4.8,0,0,1,4.8,4.79v.38a4.8,4.8,0,0,1-4.8,4.8h0a4.8,4.8,0,0,1-4.79-4.8v-.38A4.8,4.8,0,0,1,124.63,900.47Z"/><path id="Rectangle_3141-4" data-name="Rectangle 3141-4" class="cls-9" d="M124.92,874.62h0a2.18,2.18,0,0,1,2.17,2.18v16.66a2.18,2.18,0,0,1-2.17,2.18h0a2.19,2.19,0,0,1-2.18-2.18V876.8A2.19,2.19,0,0,1,124.92,874.62Z"/></g><g id="Group_7363-4" data-name="Group 7363-4"><path id="Rectangle_1425-14" data-name="Rectangle 1425-14" class="cls-8" d="M110.12,900.47h0a4.8,4.8,0,0,1,4.8,4.79v.38a4.8,4.8,0,0,1-4.8,4.8h0a4.8,4.8,0,0,1-4.79-4.8v-.38A4.8,4.8,0,0,1,110.12,900.47Z"/><path id="Rectangle_3142-4" data-name="Rectangle 3142-4" class="cls-8" d="M110.41,884h0a2.17,2.17,0,0,1,2.17,2.18v7.25a2.18,2.18,0,0,1-2.17,2.18h0a2.19,2.19,0,0,1-2.18-2.18v-7.25A2.18,2.18,0,0,1,110.41,884Z"/></g></g></g><g id="Group_7365-5" data-name="Group 7365-5"><g id="Group_7180-5" data-name="Group 7180-5"><g id="Group_5583-5" data-name="Group 5583-5"><g id="Group_5582-5" data-name="Group 5582-5"><g id="Group_5581-5" data-name="Group 5581-5"><path id="Path_3764-5" data-name="Path 3764-5" class="cls-5" d="M91,939.78H429.32c6.67,0,12.08,3.93,12.08,8.78v56.18c0,4.85-5.41,8.78-12.08,8.78H91c-6.67,0-12.08-3.93-12.08-8.78V948.56C78.9,943.71,84.31,939.78,91,939.78Z"/><path id="Rectangle_1631-5" data-name="Rectangle 1631-5" class="cls-6" d="M84.14,939.78H201.21v73.74H84.14a5.25,5.25,0,0,1-5.24-5.25V945A5.24,5.24,0,0,1,84.14,939.78Z"/></g></g></g></g><g id="Group_7183-5" data-name="Group 7183-5"><g id="Group_5584-5" data-name="Group 5584-5"><path id="Rectangle_1405-5" data-name="Rectangle 1405-5" class="cls-7" d="M307.21,966.18h0a3.84,3.84,0,0,1,3.84,3.84h0a3.84,3.84,0,0,1-3.84,3.84h0a3.84,3.84,0,0,1-3.84-3.84h0A3.84,3.84,0,0,1,307.21,966.18Z"/><path id="Rectangle_1424-5" data-name="Rectangle 1424-5" class="cls-8" d="M316.42,981.53h0a3.84,3.84,0,0,1,3.84,3.84h0a3.84,3.84,0,0,1-3.84,3.84h0a3.84,3.84,0,0,1-3.84-3.84h0A3.84,3.84,0,0,1,316.42,981.53Z"/><path id="Rectangle_1406-5" data-name="Rectangle 1406-5" class="cls-7" d="M322.56,966.18h0A3.84,3.84,0,0,1,326.4,970h0a3.84,3.84,0,0,1-3.84,3.84h0a3.83,3.83,0,0,1-3.83-3.84h0A3.83,3.83,0,0,1,322.56,966.18Z"/><path id="Rectangle_1423-5" data-name="Rectangle 1423-5" class="cls-7" d="M331.78,981.53h0a3.83,3.83,0,0,1,3.83,3.84h0a3.83,3.83,0,0,1-3.83,3.84h0a3.84,3.84,0,0,1-3.84-3.84h0A3.84,3.84,0,0,1,331.78,981.53Z"/><path id="Rectangle_1407-5" data-name="Rectangle 1407-5" class="cls-9" d="M337.92,966.18h0a3.84,3.84,0,0,1,3.84,3.84h0a3.84,3.84,0,0,1-3.84,3.84h0a3.84,3.84,0,0,1-3.84-3.84h0A3.84,3.84,0,0,1,337.92,966.18Z"/><path id="Rectangle_1422-5" data-name="Rectangle 1422-5" class="cls-7" d="M347.13,981.53h0a3.84,3.84,0,0,1,3.84,3.84h0a3.84,3.84,0,0,1-3.84,3.84h0a3.84,3.84,0,0,1-3.84-3.84h0A3.84,3.84,0,0,1,347.13,981.53Z"/><path id="Rectangle_1408-5" data-name="Rectangle 1408-5" class="cls-7" d="M353.27,966.18h0a3.84,3.84,0,0,1,3.84,3.84h0a3.84,3.84,0,0,1-3.84,3.84h0a3.84,3.84,0,0,1-3.84-3.84h0A3.84,3.84,0,0,1,353.27,966.18Z"/><path id="Rectangle_1421-5" data-name="Rectangle 1421-5" class="cls-8" d="M362.48,981.53h0a3.84,3.84,0,0,1,3.84,3.84h0a3.84,3.84,0,0,1-3.84,3.84h0a3.83,3.83,0,0,1-3.83-3.84h0A3.83,3.83,0,0,1,362.48,981.53Z"/><path id="Rectangle_1409-5" data-name="Rectangle 1409-5" class="cls-7" d="M368.63,966.18h0a3.84,3.84,0,0,1,3.83,3.84h0a3.84,3.84,0,0,1-3.83,3.84h0a3.84,3.84,0,0,1-3.84-3.84h0A3.84,3.84,0,0,1,368.63,966.18Z"/><path id="Rectangle_1420-5" data-name="Rectangle 1420-5" class="cls-7" d="M377.84,981.53h0a3.83,3.83,0,0,1,3.83,3.84h0a3.83,3.83,0,0,1-3.83,3.84h0a3.84,3.84,0,0,1-3.84-3.84h0A3.84,3.84,0,0,1,377.84,981.53Z"/></g></g><g id="Ellipse_1402-5" data-name="Ellipse 1402-5"><circle class="cls-10" cx="404.67" cy="977.06" r="6.53"/><circle class="cls-11" cx="404.67" cy="977.06" r="5.22"/></g><path id="Rectangle_3126-5" data-name="Rectangle 3126-5" class="cls-7" d="M289.32,963.28h0a2.9,2.9,0,0,1,2.9,2.9V988a2.9,2.9,0,0,1-2.9,2.9h0a2.9,2.9,0,0,1-2.9-2.9V966.18A2.9,2.9,0,0,1,289.32,963.28Z"/><path id="Rectangle_3127-5" data-name="Rectangle 3127-5" class="cls-7" d="M277.71,963.28h0a2.9,2.9,0,0,1,2.9,2.9V988a2.9,2.9,0,0,1-2.9,2.9h0a2.9,2.9,0,0,1-2.9-2.9V966.18A2.9,2.9,0,0,1,277.71,963.28Z"/><rect id="Rectangle_3128-5" data-name="Rectangle 3128-5" class="cls-6" x="219.67" y="963.28" width="46.43" height="11.61"/><rect id="Rectangle_3129-5" data-name="Rectangle 3129-5" class="cls-6" x="219.67" y="979.24" width="46.43" height="11.61"/><path id="Rectangle_3130-5" data-name="Rectangle 3130-5" class="cls-9" d="M286.42,969.08h5.8v18.86a2.9,2.9,0,0,1-2.9,2.91h0a2.9,2.9,0,0,1-2.9-2.91V969.08Z"/><path id="Rectangle_3131-5" data-name="Rectangle 3131-5" class="cls-8" d="M274.81,980.13h5.8v7.81a2.9,2.9,0,0,1-2.9,2.91h0a2.9,2.9,0,0,1-2.9-2.91h0v-7.81Z"/><rect id="Rectangle_3132-5" data-name="Rectangle 3132-5" class="cls-12" x="219.67" y="963.28" width="11.61" height="11.61"/><rect id="Rectangle_3133-5" data-name="Rectangle 3133-5" class="cls-12" x="219.67" y="979.24" width="11.61" height="11.61"/><rect id="Rectangle_3136-5" data-name="Rectangle 3136-5" class="cls-13" x="237.08" y="967.63" width="23.21" height="2.9"/><rect id="Rectangle_3137-5" data-name="Rectangle 3137-5" class="cls-13" x="237.08" y="983.59" width="23.21" height="2.9"/><g id="Ellipse_1403-5" data-name="Ellipse 1403-5"><circle class="cls-10" cx="404.67" cy="977.06" r="13.78"/><circle class="cls-14" cx="404.67" cy="977.06" r="12.47"/></g><g id="Group_7382" data-name="Group 7382"><g id="Group_7359-5" data-name="Group 7359-5"><path id="Rectangle_3070-8" data-name="Rectangle 3070-8" class="cls-13" d="M168.16,987h0a4.79,4.79,0,0,1,4.79,4.8v.38a4.79,4.79,0,0,1-4.79,4.79h0a4.79,4.79,0,0,1-4.79-4.79v-.38A4.79,4.79,0,0,1,168.16,987Z"/><path id="Rectangle_3138-5" data-name="Rectangle 3138-5" class="cls-15" d="M168.45,958.93h0a2.17,2.17,0,0,1,2.17,2.17V980a2.18,2.18,0,0,1-2.17,2.18h0a2.18,2.18,0,0,1-2.18-2.18V961.1A2.17,2.17,0,0,1,168.45,958.93Z"/></g><g id="Group_7360-5" data-name="Group 7360-5"><path id="Rectangle_1442-15" data-name="Rectangle 1442-15" class="cls-16" d="M153.65,987h0a4.8,4.8,0,0,1,4.8,4.8v.38a4.8,4.8,0,0,1-4.8,4.79h0a4.79,4.79,0,0,1-4.79-4.79v-.38A4.79,4.79,0,0,1,153.65,987Z"/><path id="Rectangle_3139-5" data-name="Rectangle 3139-5" class="cls-17" d="M153.94,967.63h0a2.18,2.18,0,0,1,2.17,2.18V980a2.18,2.18,0,0,1-2.17,2.18h0a2.18,2.18,0,0,1-2.18-2.18V969.81A2.18,2.18,0,0,1,153.94,967.63Z"/></g><g id="Group_7361-5" data-name="Group 7361-5"><path id="Rectangle_1425-15" data-name="Rectangle 1425-15" class="cls-13" d="M139.14,987h0a4.8,4.8,0,0,1,4.8,4.8v.38a4.8,4.8,0,0,1-4.8,4.79h0a4.8,4.8,0,0,1-4.79-4.79v-.38A4.8,4.8,0,0,1,139.14,987Z"/><path id="Rectangle_3140-5" data-name="Rectangle 3140-5" class="cls-15" d="M139.43,955.6h0a2.18,2.18,0,0,1,2.17,2.18V980a2.17,2.17,0,0,1-2.17,2.18h0a2.18,2.18,0,0,1-2.18-2.18V957.78A2.19,2.19,0,0,1,139.43,955.6Z"/></g><g id="Group_7362-5" data-name="Group 7362-5"><path id="Rectangle_1442-16" data-name="Rectangle 1442-16" class="cls-9" d="M124.63,987h0a4.8,4.8,0,0,1,4.8,4.8v.38a4.8,4.8,0,0,1-4.8,4.79h0a4.8,4.8,0,0,1-4.79-4.79v-.38A4.8,4.8,0,0,1,124.63,987Z"/><path id="Rectangle_3141-5" data-name="Rectangle 3141-5" class="cls-9" d="M124.92,961.13h0a2.17,2.17,0,0,1,2.17,2.17V980a2.17,2.17,0,0,1-2.17,2.18h0a2.18,2.18,0,0,1-2.18-2.18V963.3A2.18,2.18,0,0,1,124.92,961.13Z"/></g><g id="Group_7363-5" data-name="Group 7363-5"><path id="Rectangle_1425-16" data-name="Rectangle 1425-16" class="cls-8" d="M110.12,987h0a4.8,4.8,0,0,1,4.8,4.8v.38a4.8,4.8,0,0,1-4.8,4.79h0a4.8,4.8,0,0,1-4.79-4.79v-.38A4.8,4.8,0,0,1,110.12,987Z"/><path id="Rectangle_3142-5" data-name="Rectangle 3142-5" class="cls-8" d="M110.41,970.53h0a2.18,2.18,0,0,1,2.17,2.18V980a2.18,2.18,0,0,1-2.17,2.18h0a2.19,2.19,0,0,1-2.18-2.18v-7.25A2.19,2.19,0,0,1,110.41,970.53Z"/></g></g></g></g><g id="Layer_2" data-name="Layer 2"><g id="Layer_1-2" data-name="Layer 1-2"><path class="cls-18" d="M283.37,484.54h41.78l-6.47,24.77a15.62,15.62,0,0,1-5.54,8.31,15,15,0,0,1-9.43,3.15H284.3a18.83,18.83,0,0,0-11.71,3.88,20.27,20.27,0,0,0-7.11,10.53,19.67,19.67,0,0,0-.28,9.43,20.39,20.39,0,0,0,3.58,7.85,18.62,18.62,0,0,0,6.65,5.46,19.65,19.65,0,0,0,8.87,2h11.83a6.65,6.65,0,0,1,5.46,2.68,6.44,6.44,0,0,1,1.23,6L295.42,596H282.49A52.12,52.12,0,0,1,258,590.17a55.35,55.35,0,0,1-18.62-15.43,54.52,54.52,0,0,1-10.07-21.87,53.93,53.93,0,0,1,.65-25.26l.74-2.78a54.26,54.26,0,0,1,34.9-37.33A53.7,53.7,0,0,1,283.37,484.54Z"/><path class="cls-18" d="M304.44,596l36.42-136.4a15.63,15.63,0,0,1,5.55-8.32,14.92,14.92,0,0,1,9.42-3.14h38.63A52.12,52.12,0,0,1,419,454a54.94,54.94,0,0,1,28.74,37.34,51.69,51.69,0,0,1-.73,25.26l-.74,2.77a55.44,55.44,0,0,1-7.4,16.36,54,54,0,0,1-45.1,24.12H360.27l6.65-25a15.7,15.7,0,0,1,5.55-8.13,14.94,14.94,0,0,1,9.42-3.14h10.73A19.44,19.44,0,0,0,411.47,509a18.07,18.07,0,0,0,.24-9.09,20.22,20.22,0,0,0-3.6-7.85,19.58,19.58,0,0,0-6.65-5.55,18.9,18.9,0,0,0-8.84-2.13H371.91l-27,100.37a15.66,15.66,0,0,1-5.55,8.13,14.66,14.66,0,0,1-9.24,3.14Z"/><path class="cls-18" d="M534.93,523.17l.56-2a2.74,2.74,0,0,0-.46-2.47,2.82,2.82,0,0,0-2.31-1H472.65a14.81,14.81,0,0,1-7-1.67,15.39,15.39,0,0,1-5.17-4.31,15,15,0,0,1-2.77-6.16,15.69,15.69,0,0,1,.18-7.21l3.7-14.05h81.32a29.24,29.24,0,0,1,13.87,3.33,32,32,0,0,1,10.47,8.69A31,31,0,0,1,573,508.6a30.67,30.67,0,0,1-.28,14.32l-14.6,54.34a25,25,0,0,1-24.4,18.67l-60.07-.18a31.8,31.8,0,0,1-25.54-12.6,33.58,33.58,0,0,1-5.91-12.94,30.47,30.47,0,0,1,.37-14.88l.74-2.77A29.3,29.3,0,0,1,447.6,543a33.08,33.08,0,0,1,7.12-7.58,31.91,31.91,0,0,1,19.59-6.66h50.46l-3.7,13.87a15.74,15.74,0,0,1-5.54,8.13,14.76,14.76,0,0,1-9.24,3.14H483.74a3.91,3.91,0,0,0-4.07,3.14,3.81,3.81,0,0,0,.74,3.61,4.1,4.1,0,0,0,3.33,1.57h36.41a5.69,5.69,0,0,0,3.51-1.11,4.75,4.75,0,0,0,1.85-3l.37-1.48Z"/><path class="cls-18" d="M642.5,484.54a52.47,52.47,0,0,1,24.64,5.82,55.49,55.49,0,0,1,18.59,15.4,54.49,54.49,0,0,1,10.06,22,52.79,52.79,0,0,1-.82,25.32l-9.24,34.75a10.15,10.15,0,0,1-4,5.91A11.17,11.17,0,0,1,675,596h-19.9a6.77,6.77,0,0,1-6.94-6.62,6.94,6.94,0,0,1,.28-2.07l11.08-41.95a18.07,18.07,0,0,0,.28-9.06,20.29,20.29,0,0,0-3.6-7.85,19.7,19.7,0,0,0-6.65-5.55,18.89,18.89,0,0,0-8.87-2.12H620L602,587.86a10.12,10.12,0,0,1-4,5.91,11.44,11.44,0,0,1-6.93,2.22H571.33a6.63,6.63,0,0,1-5.44-2.68,6.39,6.39,0,0,1-1.23-6L592,484.54Z"/><path class="cls-18" d="M751.36,519.75a9.42,9.42,0,0,0-3.14,4.53L739.9,555.7a5.53,5.53,0,0,0,3.87,6.82,5.35,5.35,0,0,0,1.49.2h76.52l-5.9,22a15.66,15.66,0,0,1-5.55,8.13,14.66,14.66,0,0,1-9.24,3.14H731.4a29.76,29.76,0,0,1-13.86-3.23,30.39,30.39,0,0,1-10.48-8.69,31.81,31.81,0,0,1-5.73-12.38,28.35,28.35,0,0,1,.46-14.17l11.28-42a42,42,0,0,1,26.68-28.74,40.5,40.5,0,0,1,13.58-2.31h49.35a29.06,29.06,0,0,1,13.86,3.33A32,32,0,0,1,827,496.52a29.93,29.93,0,0,1,5.63,12.39,30.83,30.83,0,0,1-.37,14.23L829,535.71A24.08,24.08,0,0,1,820,549.17a24.69,24.69,0,0,1-15.23,5.05H749l3.7-13.68a14.58,14.58,0,0,1,5.36-8.13,14.92,14.92,0,0,1,9.42-3.14H790a3.92,3.92,0,0,0,4.07-3.14l.74-2.78a4.26,4.26,0,0,0-3-5.21,4.58,4.58,0,0,0-1-.15H756.36A7.84,7.84,0,0,0,751.36,519.75Z"/><path class="cls-18" d="M821.6,596l37.15-139.54a10.49,10.49,0,0,1,4-6,11.18,11.18,0,0,1,6.95-2.31h19.78a6.83,6.83,0,0,1,5.64,2.68,6.42,6.42,0,0,1,1.23,6l-27.73,103A45.73,45.73,0,0,1,862,574.55a48.06,48.06,0,0,1-10.72,11.37,50.16,50.16,0,0,1-13.77,7.39A47.15,47.15,0,0,1,821.6,596Z"/><path class="cls-18" d="M902.64,461.1a12.72,12.72,0,0,1,23.74-6.37,12.74,12.74,0,1,1-23.74,6.37Zm1.78,0a10.95,10.95,0,0,0,20.41,5.5,10.9,10.9,0,0,0,0-11,11,11,0,0,0-18.94,0A10.53,10.53,0,0,0,904.42,461.1Zm16.1-3.08a4,4,0,0,1-.72,2.39,4.09,4.09,0,0,1-2,1.55l4,6.68H919l-3.51-6h-2.27v6h-2.51V453.58h4.39a6.36,6.36,0,0,1,4.12,1.1,4.11,4.11,0,0,1,1.33,3.35Zm-7.33,2.55H915a3.24,3.24,0,0,0,2.18-.7,2.26,2.26,0,0,0,.82-1.78,2.1,2.1,0,0,0-.73-1.82,3.79,3.79,0,0,0-2.3-.55h-1.79Z"/></g></g></svg>