<svg xmlns="http://www.w3.org/2000/svg" xmlns:xlink="http://www.w3.org/1999/xlink" viewBox="0 0 1080 1080"><defs><style>.cls-1,.cls-18{isolation:isolate;}.cls-2{fill:url(#linear-gradient);}.cls-3{fill:#137fcf;}.cls-4{fill:#288ed9;}.cls-13,.cls-23,.cls-25,.cls-5,.cls-6,.cls-7{fill:none;}.cls-6,.cls-7{stroke:#288ed9;}.cls-6{stroke-width:1.26px;}.cls-13,.cls-7{stroke-linecap:round;stroke-miterlimit:10;stroke-width:5.03px;}.cls-8{fill:url(#linear-gradient-2);}.cls-9{fill:#024679;}.cls-10{opacity:0.5;}.cls-11{fill:#1f364c;}.cls-12{fill:#043c67;}.cls-13{stroke:#1f364c;}.cls-14{fill:#21e2e2;}.cls-15{fill:#ffbc98;}.cls-16{opacity:0.4;mix-blend-mode:multiply;}.cls-17{fill:#606060;}.cls-18,.cls-21{fill:#005b9f;}.cls-18{opacity:0.57;}.cls-19{fill:#ff6c2c;}.cls-20{fill:#0e71bb;}.cls-22{fill:#52acea;}.cls-23{stroke:#ffbc98;}.cls-23,.cls-25{stroke-width:2.52px;}.cls-24{fill:#80c9ff;}.cls-25{stroke:#21e2e2;}.cls-26{fill:#d6eeff;}.cls-27{fill:#fff;}</style><linearGradient id="linear-gradient" x1="2593.64" y1="3090.02" x2="2593.63" y2="3091.75" gradientTransform="matrix(740.56, 0, 0, -612.51, -1920213.08, 1893776.45)" gradientUnits="userSpaceOnUse"><stop offset="0" stop-color="#c6e6ff"/><stop offset="1" stop-color="#fff"/></linearGradient><linearGradient id="linear-gradient-2" x1="2592.2" y1="3113.65" x2="2592.2" y2="3111.13" gradientTransform="matrix(531, 0, 0, -95, -1375964.47, 296433.88)" gradientUnits="userSpaceOnUse"><stop offset="0" stop-color="#288ed9"/><stop offset="1" stop-color="#137fcf" stop-opacity="0.05"/></linearGradient></defs><g class="cls-1"><g id="Layer_1" data-name="Layer 1"><path id="Path_5630" data-name="Path 5630" class="cls-2" d="M542,200.72c164.71,105.1,353.29,152.4,353.29,152.4s207.68,31.53,131.29,268S940.23,942.27,820.5,948.32C707,951.55,643.18,904.7,530.84,912.77c-98.68,7.6-166.64,52.06-331.53-12.9C-64.91,783.11-45.22-169.75,542,200.72Z"/><g id="Group_7192" data-name="Group 7192"><rect id="Rectangle_3071" data-name="Rectangle 3071" class="cls-3" x="344.46" y="676.41" width="41.57" height="41.57" rx="6.29"/><path id="Path_6020-2" data-name="Path 6020-2" class="cls-4" d="M365.84,687.73a10.06,10.06,0,1,1-10.06,10.06A10.05,10.05,0,0,1,365.84,687.73Z"/><g id="Ellipse_1370" data-name="Ellipse 1370"><circle class="cls-5" cx="365.84" cy="697.79" r="13.83"/><circle class="cls-6" cx="365.84" cy="697.79" r="13.21"/></g><path id="Path_6021" data-name="Path 6021" class="cls-7" d="M500.78,655H424c-10.42,0-15.24,5.72-15.05,15.94,0,2.65.19,45.08.19,53.25,0,10-6.17,13.07-16.59,13.07,0,0-6.82-.17-14.53-.17s-12.57-5.23-12.57-11V707.05"/></g><ellipse id="Ellipse_1369" data-name="Ellipse 1369" class="cls-8" cx="494.78" cy="816.63" rx="333.9" ry="59.74"/><rect id="Rectangle_3072" data-name="Rectangle 3072" class="cls-9" x="233.82" y="373.32" width="236.44" height="442.69" rx="12.58"/><g id="Group_7199" data-name="Group 7199" class="cls-10"><rect id="Rectangle_3077-2" data-name="Rectangle 3077-2" class="cls-11" x="297.96" y="755.64" width="106.9" height="3.77"/><rect id="Rectangle_3078-2" data-name="Rectangle 3078-2" class="cls-11" x="297.96" y="765.7" width="106.9" height="3.77"/><rect id="Rectangle_3079-2" data-name="Rectangle 3079-2" class="cls-11" x="297.96" y="775.76" width="106.9" height="3.77"/><rect id="Rectangle_3080-2" data-name="Rectangle 3080-2" class="cls-11" x="297.96" y="785.82" width="106.9" height="3.77"/></g><rect id="Rectangle_3081" data-name="Rectangle 3081" class="cls-12" x="297.96" y="473.93" width="125.76" height="232.66"/><g id="Group_6080" data-name="Group 6080"><path id="Path_3440" data-name="Path 3440" class="cls-13" d="M360.62,496.32v27.46c0,5.78,3,8.47,8.36,8.36,1.29-.11,3.75-.11,8-.11,5.25,0,6.86,3.43,6.86,9.22v2.58L384,703.41"/><path id="Path_3441" data-name="Path 3441" class="cls-13" d="M352,504.38v11.79c0,5.79,3,8.47,8.37,8.36h8c5.25,0,6.86,3.43,6.86,9.22l.11,169.64"/><path id="Path_3442" data-name="Path 3442" class="cls-13" d="M376.13,492v22c0,4.93,2.56,7.21,7.13,7.12,1.18,0,9.57-.09,13.22-.09,4.48,0,5.85,2.92,5.85,7.85v8.58"/><path id="Path_3444" data-name="Path 3444" class="cls-13" d="M423.12,490.07H368.87c-5.78,0-8.46,3-8.36,8.36,0,1.4.11,3.86.11,8.15"/><path id="Path_3445" data-name="Path 3445" class="cls-13" d="M351.94,507.6c0-4.29,0-6.65.1-8.15.22-5.36-2.46-8.36-8.36-8.36H301.12"/><path id="Path_3448" data-name="Path 3448" class="cls-13" d="M318.27,491V599.52c0,5.78,3,8.47,8.36,8.36,1.4,0,3.86-.11,8.15-.11,5.25,0,6.86,3.44,6.86,9.22v86h0"/><path id="Path_3449" data-name="Path 3449" class="cls-13" d="M326.31,491.13v35.16c0,5.78,3,8.47,8.36,8.36,1.39,0,3.86-.11,8.15-.11,5.25,0,6.86,3.43,6.86,9.22v73.73"/><path id="Path_3450" data-name="Path 3450" class="cls-13" d="M334.13,491.91V629.84c0,5.79,3,8.47,8.26,8.37,1.39,0,3.86-.11,8.14-.11,5.26,0,6.86,3.43,6.86,9.22v56"/></g><g id="Group_7198" data-name="Group 7198"><g id="Group_7153" data-name="Group 7153"><path id="Rectangle_1425" data-name="Rectangle 1425" class="cls-14" d="M336.54,734.67h0a4.16,4.16,0,0,1,4.16,4.16v.33a4.15,4.15,0,0,1-4.16,4.15h0a4.15,4.15,0,0,1-4.15-4.15v-.33A4.15,4.15,0,0,1,336.54,734.67Z"/><path id="Rectangle_1442" data-name="Rectangle 1442" class="cls-15" d="M348.64,734.67h0a4.16,4.16,0,0,1,4.16,4.16v.33a4.16,4.16,0,0,1-4.16,4.15h0a4.16,4.16,0,0,1-4.16-4.15v-.33A4.16,4.16,0,0,1,348.64,734.67Z"/></g><g id="Group_7154" data-name="Group 7154"><path id="Rectangle_1425-2" data-name="Rectangle 1425-2" class="cls-4" d="M360.44,734.67h0a4.16,4.16,0,0,1,4.16,4.16v.33a4.15,4.15,0,0,1-4.16,4.15h0a4.15,4.15,0,0,1-4.15-4.15v-.33A4.15,4.15,0,0,1,360.44,734.67Z"/><path id="Rectangle_1442-2" data-name="Rectangle 1442-2" class="cls-3" d="M372.54,734.67h0a4.16,4.16,0,0,1,4.16,4.16v.33a4.15,4.15,0,0,1-4.16,4.15h0a4.15,4.15,0,0,1-4.15-4.15v-.33A4.15,4.15,0,0,1,372.54,734.67Z"/><path id="Rectangle_3070" data-name="Rectangle 3070" class="cls-4" d="M384.34,734.67h0a4.15,4.15,0,0,1,4.15,4.16v.33a4.15,4.15,0,0,1-4.15,4.15h0a4.15,4.15,0,0,1-4.16-4.15v-.33A4.16,4.16,0,0,1,384.34,734.67Z"/></g></g><g id="Group_7367" data-name="Group 7367" class="cls-16"><g id="Group_7365-5" data-name="Group 7365-5"><g id="Group_7382" data-name="Group 7382"><g id="Group_7363-5" data-name="Group 7363-5"><path class="cls-17" d="M756.5,423.36V476c0,4.55-4.56,8.25-10.14,8.25h-3.27v13.16h3.27c5.58,0,10.14,3.7,10.14,8.25v52.63c0,4.52-4.56,8.22-10.14,8.22h-3.27L456.89,813.36a4.69,4.69,0,0,1-4.39-5V749.16a4.65,4.65,0,0,1,4.39-4.9h8.64v-13.2h-8.64a4.65,4.65,0,0,1-4.39-4.9V666.87a4.68,4.68,0,0,1,4.39-4.91h8.64V648.8h-8.64a4.68,4.68,0,0,1-4.39-4.94V584.61a4.65,4.65,0,0,1,4.39-4.91h8.64V566.51h-8.64a4.65,4.65,0,0,1-4.39-4.91V502.31a4.67,4.67,0,0,1,4.39-4.9h8.64V484.25H462.6a9.13,9.13,0,0,1-1,0h-4.67a4.65,4.65,0,0,1-4.39-4.9l52.82-24.91c0-2.72-19.65-35.6-20.33-39.25H746.36C751.94,415.15,756.5,418.81,756.5,423.36Z"/></g></g></g></g><path id="Rectangle_3082" data-name="Rectangle 3082" class="cls-18" d="M247.66,373.32H360.85V816H247.66a12.57,12.57,0,0,1-12.58-12.57V385.89A12.57,12.57,0,0,1,247.66,373.32Z"/><g id="Group_7367-2" data-name="Group 7367"><g id="Group_7365" data-name="Group 7365"><g id="Group_7180" data-name="Group 7180"><g id="Group_5583" data-name="Group 5583"><g id="Group_5582" data-name="Group 5582"><g id="Group_5581" data-name="Group 5581"><rect id="Rectangle_1565" data-name="Rectangle 1565" class="cls-11" x="412.19" y="493.8" width="317.59" height="24.66"/><path id="Path_3764" data-name="Path 3764" class="cls-19" d="M408.88,427.14H733.54c6.4,0,11.59,3.78,11.59,8.43v53.91c0,4.65-5.19,8.43-11.59,8.43H408.88c-6.4,0-11.59-3.78-11.59-8.43V435.57C397.29,430.92,402.48,427.14,408.88,427.14Z"/></g></g></g></g></g><g id="Group_7365-2" data-name="Group 7365-2"><g id="Group_7180-2" data-name="Group 7180-2"><g id="Group_5583-2" data-name="Group 5583-2"><g id="Group_5582-2" data-name="Group 5582-2"><g id="Group_5581-2" data-name="Group 5581-2"><rect id="Rectangle_1565-2" data-name="Rectangle 1565-2" class="cls-11" x="412.19" y="578.06" width="317.59" height="24.66"/><path id="Path_3764-2" data-name="Path 3764-2" class="cls-20" d="M408.88,511.41H733.54c6.4,0,11.59,3.77,11.59,8.42v53.91c0,4.65-5.19,8.43-11.59,8.43H408.88c-6.4,0-11.59-3.78-11.59-8.43V519.83C397.29,515.18,402.48,511.41,408.88,511.41Z"/><path id="Rectangle_1631-2" data-name="Rectangle 1631-2" class="cls-21" d="M402.32,511.41H514.65v70.75H402.32a5,5,0,0,1-5-5V516.44A5,5,0,0,1,402.32,511.41Z"/></g></g></g></g><g id="Group_7183-2" data-name="Group 7183-2"><g id="Group_5584-2" data-name="Group 5584-2"><path id="Rectangle_1405-2" data-name="Rectangle 1405-2" class="cls-22" d="M616.36,536.74h0a3.69,3.69,0,0,1,3.69,3.69h0a3.69,3.69,0,0,1-3.69,3.68h0a3.68,3.68,0,0,1-3.68-3.68h0A3.69,3.69,0,0,1,616.36,536.74Z"/><path id="Rectangle_1424-2" data-name="Rectangle 1424-2" class="cls-14" d="M625.2,551.48h0a3.68,3.68,0,0,1,3.69,3.68h0a3.69,3.69,0,0,1-3.69,3.68h0a3.68,3.68,0,0,1-3.68-3.68h0A3.68,3.68,0,0,1,625.2,551.48Z"/><path id="Rectangle_1406-2" data-name="Rectangle 1406-2" class="cls-22" d="M631.1,536.74h0a3.69,3.69,0,0,1,3.68,3.69h0a3.68,3.68,0,0,1-3.68,3.68h0a3.69,3.69,0,0,1-3.69-3.68h0A3.69,3.69,0,0,1,631.1,536.74Z"/><path id="Rectangle_1423-2" data-name="Rectangle 1423-2" class="cls-22" d="M639.94,551.48h0a3.68,3.68,0,0,1,3.68,3.68h0a3.68,3.68,0,0,1-3.68,3.68h0a3.69,3.69,0,0,1-3.69-3.68h0A3.68,3.68,0,0,1,639.94,551.48Z"/><path id="Rectangle_1407-2" data-name="Rectangle 1407-2" class="cls-15" d="M645.83,536.74h0a3.69,3.69,0,0,1,3.68,3.69h0a3.68,3.68,0,0,1-3.68,3.68h0a3.68,3.68,0,0,1-3.68-3.68h0A3.68,3.68,0,0,1,645.83,536.74Z"/><path id="Rectangle_1422-2" data-name="Rectangle 1422-2" class="cls-22" d="M654.67,551.48h0a3.68,3.68,0,0,1,3.68,3.68h0a3.68,3.68,0,0,1-3.68,3.68h0a3.68,3.68,0,0,1-3.68-3.68h0A3.67,3.67,0,0,1,654.67,551.48Z"/><path id="Rectangle_1408-2" data-name="Rectangle 1408-2" class="cls-22" d="M660.56,536.74h0a3.68,3.68,0,0,1,3.68,3.69h0a3.68,3.68,0,0,1-3.68,3.68h0a3.68,3.68,0,0,1-3.68-3.68h0A3.69,3.69,0,0,1,660.56,536.74Z"/><path id="Rectangle_1421-2" data-name="Rectangle 1421-2" class="cls-14" d="M669.4,551.48h0a3.67,3.67,0,0,1,3.68,3.68h0a3.68,3.68,0,0,1-3.68,3.68h0a3.68,3.68,0,0,1-3.68-3.68h0A3.68,3.68,0,0,1,669.4,551.48Z"/><path id="Rectangle_1409-2" data-name="Rectangle 1409-2" class="cls-22" d="M675.3,536.74h0a3.69,3.69,0,0,1,3.68,3.69h0a3.68,3.68,0,0,1-3.68,3.68h0a3.69,3.69,0,0,1-3.69-3.68h0A3.69,3.69,0,0,1,675.3,536.74Z"/><path id="Rectangle_1420-2" data-name="Rectangle 1420-2" class="cls-22" d="M684.13,551.48h0a3.68,3.68,0,0,1,3.69,3.68h0a3.69,3.69,0,0,1-3.69,3.68h0a3.68,3.68,0,0,1-3.68-3.68h0A3.68,3.68,0,0,1,684.13,551.48Z"/></g></g><g id="Ellipse_1402-2" data-name="Ellipse 1402-2"><circle class="cls-5" cx="709.88" cy="547.19" r="6.27"/><circle class="cls-23" cx="709.88" cy="547.19" r="5.01"/></g><path id="Rectangle_3126-2" data-name="Rectangle 3126-2" class="cls-22" d="M599.19,534h0a2.79,2.79,0,0,1,2.79,2.78v20.89a2.78,2.78,0,0,1-2.79,2.78h0a2.78,2.78,0,0,1-2.78-2.78V536.74A2.79,2.79,0,0,1,599.19,534Z"/><path id="Rectangle_3127-2" data-name="Rectangle 3127-2" class="cls-22" d="M588.06,534h0a2.79,2.79,0,0,1,2.78,2.78v20.89a2.78,2.78,0,0,1-2.78,2.78h0a2.78,2.78,0,0,1-2.79-2.78V536.74A2.79,2.79,0,0,1,588.06,534Z"/><rect id="Rectangle_3128-2" data-name="Rectangle 3128-2" class="cls-21" x="532.37" y="533.96" width="44.55" height="11.14"/><rect id="Rectangle_3129-2" data-name="Rectangle 3129-2" class="cls-21" x="532.37" y="549.27" width="44.55" height="11.14"/><path id="Rectangle_3130-2" data-name="Rectangle 3130-2" class="cls-15" d="M596.41,539.53H602v18.1a2.79,2.79,0,0,1-2.79,2.78h0a2.79,2.79,0,0,1-2.78-2.78v-18.1Z"/><path id="Rectangle_3131-2" data-name="Rectangle 3131-2" class="cls-14" d="M585.27,550.13h5.57v7.5a2.79,2.79,0,0,1-2.78,2.78h0a2.79,2.79,0,0,1-2.79-2.78h0v-7.5Z"/><rect id="Rectangle_3132-2" data-name="Rectangle 3132-2" class="cls-24" x="532.37" y="533.96" width="11.14" height="11.14"/><rect id="Rectangle_3133-2" data-name="Rectangle 3133-2" class="cls-24" x="532.37" y="549.27" width="11.14" height="11.14"/><rect id="Rectangle_3136-2" data-name="Rectangle 3136-2" class="cls-4" x="549.07" y="538.14" width="22.28" height="2.78"/><rect id="Rectangle_3137-2" data-name="Rectangle 3137-2" class="cls-4" x="549.07" y="553.45" width="22.28" height="2.78"/><g id="Ellipse_1403-2" data-name="Ellipse 1403-2"><circle class="cls-5" cx="709.88" cy="547.19" r="13.23"/><circle class="cls-25" cx="709.88" cy="547.19" r="11.97"/></g><g id="Group_7379" data-name="Group 7379"><g id="Group_7359-2" data-name="Group 7359-2"><path id="Rectangle_3070-5" data-name="Rectangle 3070-5" class="cls-4" d="M482.94,558h0a4.6,4.6,0,0,1,4.6,4.6v.37a4.6,4.6,0,0,1-4.6,4.6h0a4.6,4.6,0,0,1-4.6-4.6v-.37A4.6,4.6,0,0,1,482.94,558Z"/><path id="Rectangle_3138-2" data-name="Rectangle 3138-2" class="cls-3" d="M483.21,531h0a2.09,2.09,0,0,1,2.09,2.09v18.1a2.09,2.09,0,0,1-2.09,2.08h0a2.09,2.09,0,0,1-2.09-2.08v-18.1A2.09,2.09,0,0,1,483.21,531Z"/></g><g id="Group_7360-2" data-name="Group 7360-2"><path id="Rectangle_1442-9" data-name="Rectangle 1442-9" class="cls-26" d="M469,558h0a4.6,4.6,0,0,1,4.6,4.6v.37a4.6,4.6,0,0,1-4.6,4.6h0a4.6,4.6,0,0,1-4.6-4.6v-.37A4.6,4.6,0,0,1,469,558Z"/><path id="Rectangle_3139-2" data-name="Rectangle 3139-2" class="cls-27" d="M469.29,539.39h0a2.1,2.1,0,0,1,2.09,2.09v9.75a2.09,2.09,0,0,1-2.09,2.08h0a2.09,2.09,0,0,1-2.09-2.08v-9.75A2.1,2.1,0,0,1,469.29,539.39Z"/></g><g id="Group_7361-2" data-name="Group 7361-2"><path id="Rectangle_1425-9" data-name="Rectangle 1425-9" class="cls-4" d="M455.09,558h0a4.6,4.6,0,0,1,4.6,4.6v.37a4.6,4.6,0,0,1-4.6,4.6h0a4.6,4.6,0,0,1-4.6-4.6v-.37A4.6,4.6,0,0,1,455.09,558Z"/><path id="Rectangle_3140-2" data-name="Rectangle 3140-2" class="cls-3" d="M455.37,527.85h0a2.1,2.1,0,0,1,2.09,2.09v21.29a2.1,2.1,0,0,1-2.09,2.09h0a2.09,2.09,0,0,1-2.09-2.09V529.94A2.09,2.09,0,0,1,455.37,527.85Z"/></g><g id="Group_7362-2" data-name="Group 7362-2"><path id="Rectangle_1442-10" data-name="Rectangle 1442-10" class="cls-15" d="M441.17,558h0a4.6,4.6,0,0,1,4.6,4.6v.37a4.6,4.6,0,0,1-4.6,4.6h0a4.6,4.6,0,0,1-4.6-4.6v-.37A4.6,4.6,0,0,1,441.17,558Z"/><path id="Rectangle_3141-2" data-name="Rectangle 3141-2" class="cls-15" d="M441.44,533.15h0a2.09,2.09,0,0,1,2.09,2.09v16a2.09,2.09,0,0,1-2.09,2.09h0a2.09,2.09,0,0,1-2.08-2.09v-16A2.09,2.09,0,0,1,441.44,533.15Z"/></g><g id="Group_7363-2" data-name="Group 7363-2"><path id="Rectangle_1425-10" data-name="Rectangle 1425-10" class="cls-14" d="M427.25,558h0a4.6,4.6,0,0,1,4.6,4.6v.37a4.6,4.6,0,0,1-4.6,4.6h0a4.6,4.6,0,0,1-4.6-4.6v-.37A4.6,4.6,0,0,1,427.25,558Z"/><path id="Rectangle_3142-2" data-name="Rectangle 3142-2" class="cls-14" d="M427.52,542.18h0a2.08,2.08,0,0,1,2.09,2.09v7a2.08,2.08,0,0,1-2.09,2.08h0a2.09,2.09,0,0,1-2.09-2.08v-7A2.09,2.09,0,0,1,427.52,542.18Z"/></g></g></g><g id="Group_7365-3" data-name="Group 7365-3"><g id="Group_7180-3" data-name="Group 7180-3"><g id="Group_5583-3" data-name="Group 5583-3"><g id="Group_5582-3" data-name="Group 5582-3"><g id="Group_5581-3" data-name="Group 5581-3"><rect id="Rectangle_1565-3" data-name="Rectangle 1565-3" class="cls-11" x="412.19" y="662.33" width="317.59" height="24.66"/><path id="Path_3764-3" data-name="Path 3764-3" class="cls-20" d="M408.88,595.67H733.54c6.4,0,11.59,3.77,11.59,8.42V658c0,4.66-5.19,8.43-11.59,8.43H408.88c-6.4,0-11.59-3.77-11.59-8.43V604.09C397.29,599.44,402.48,595.67,408.88,595.67Z"/><path id="Rectangle_1631-3" data-name="Rectangle 1631-3" class="cls-21" d="M402.32,595.67H514.65v70.76H402.32a5,5,0,0,1-5-5V600.7A5,5,0,0,1,402.32,595.67Z"/></g></g></g></g><g id="Group_7183-3" data-name="Group 7183-3"><g id="Group_5584-3" data-name="Group 5584-3"><path id="Rectangle_1405-3" data-name="Rectangle 1405-3" class="cls-22" d="M616.36,621h0a3.69,3.69,0,0,1,3.69,3.69h0a3.69,3.69,0,0,1-3.69,3.68h0a3.68,3.68,0,0,1-3.68-3.68h0A3.69,3.69,0,0,1,616.36,621Z"/><path id="Rectangle_1424-3" data-name="Rectangle 1424-3" class="cls-14" d="M625.2,635.74h0a3.69,3.69,0,0,1,3.69,3.68h0a3.69,3.69,0,0,1-3.69,3.68h0a3.68,3.68,0,0,1-3.68-3.68h0A3.68,3.68,0,0,1,625.2,635.74Z"/><path id="Rectangle_1406-3" data-name="Rectangle 1406-3" class="cls-22" d="M631.1,621h0a3.69,3.69,0,0,1,3.68,3.69h0a3.68,3.68,0,0,1-3.68,3.68h0a3.69,3.69,0,0,1-3.69-3.68h0A3.69,3.69,0,0,1,631.1,621Z"/><path id="Rectangle_1423-3" data-name="Rectangle 1423-3" class="cls-22" d="M639.94,635.74h0a3.68,3.68,0,0,1,3.68,3.68h0a3.68,3.68,0,0,1-3.68,3.68h0a3.69,3.69,0,0,1-3.69-3.68h0A3.69,3.69,0,0,1,639.94,635.74Z"/><path id="Rectangle_1407-3" data-name="Rectangle 1407-3" class="cls-15" d="M645.83,621h0a3.69,3.69,0,0,1,3.68,3.69h0a3.68,3.68,0,0,1-3.68,3.68h0a3.68,3.68,0,0,1-3.68-3.68h0A3.68,3.68,0,0,1,645.83,621Z"/><path id="Rectangle_1422-3" data-name="Rectangle 1422-3" class="cls-22" d="M654.67,635.74h0a3.68,3.68,0,0,1,3.68,3.68h0a3.68,3.68,0,0,1-3.68,3.68h0a3.68,3.68,0,0,1-3.68-3.68h0A3.68,3.68,0,0,1,654.67,635.74Z"/><path id="Rectangle_1408-3" data-name="Rectangle 1408-3" class="cls-22" d="M660.56,621h0a3.68,3.68,0,0,1,3.68,3.69h0a3.68,3.68,0,0,1-3.68,3.68h0a3.68,3.68,0,0,1-3.68-3.68h0A3.69,3.69,0,0,1,660.56,621Z"/><path id="Rectangle_1421-3" data-name="Rectangle 1421-3" class="cls-14" d="M669.4,635.74h0a3.68,3.68,0,0,1,3.68,3.68h0a3.68,3.68,0,0,1-3.68,3.68h0a3.68,3.68,0,0,1-3.68-3.68h0A3.68,3.68,0,0,1,669.4,635.74Z"/><path id="Rectangle_1409-3" data-name="Rectangle 1409-3" class="cls-22" d="M675.3,621h0a3.69,3.69,0,0,1,3.68,3.69h0a3.68,3.68,0,0,1-3.68,3.68h0a3.69,3.69,0,0,1-3.69-3.68h0A3.69,3.69,0,0,1,675.3,621Z"/><path id="Rectangle_1420-3" data-name="Rectangle 1420-3" class="cls-22" d="M684.13,635.74h0a3.69,3.69,0,0,1,3.69,3.68h0a3.69,3.69,0,0,1-3.69,3.68h0a3.68,3.68,0,0,1-3.68-3.68h0A3.68,3.68,0,0,1,684.13,635.74Z"/></g></g><g id="Ellipse_1402-3" data-name="Ellipse 1402-3"><circle class="cls-5" cx="709.88" cy="631.45" r="6.27"/><circle class="cls-23" cx="709.88" cy="631.45" r="5.01"/></g><path id="Rectangle_3126-3" data-name="Rectangle 3126-3" class="cls-22" d="M599.19,618.22h0A2.79,2.79,0,0,1,602,621v20.88a2.78,2.78,0,0,1-2.79,2.78h0a2.78,2.78,0,0,1-2.78-2.78V621A2.79,2.79,0,0,1,599.19,618.22Z"/><path id="Rectangle_3127-3" data-name="Rectangle 3127-3" class="cls-22" d="M588.06,618.22h0a2.79,2.79,0,0,1,2.78,2.79v20.88a2.78,2.78,0,0,1-2.78,2.78h0a2.78,2.78,0,0,1-2.79-2.78V621A2.79,2.79,0,0,1,588.06,618.22Z"/><rect id="Rectangle_3128-3" data-name="Rectangle 3128-3" class="cls-21" x="532.37" y="618.22" width="44.55" height="11.14"/><rect id="Rectangle_3129-3" data-name="Rectangle 3129-3" class="cls-21" x="532.37" y="633.54" width="44.55" height="11.14"/><path id="Rectangle_3130-3" data-name="Rectangle 3130-3" class="cls-15" d="M596.41,623.79H602v18.1a2.78,2.78,0,0,1-2.79,2.78h0a2.78,2.78,0,0,1-2.78-2.78v-18.1Z"/><path id="Rectangle_3131-3" data-name="Rectangle 3131-3" class="cls-14" d="M585.27,634.39h5.57v7.5a2.78,2.78,0,0,1-2.78,2.78h0a2.78,2.78,0,0,1-2.79-2.78h0v-7.5Z"/><rect id="Rectangle_3132-3" data-name="Rectangle 3132-3" class="cls-24" x="532.37" y="618.22" width="11.14" height="11.14"/><rect id="Rectangle_3133-3" data-name="Rectangle 3133-3" class="cls-24" x="532.37" y="633.54" width="11.14" height="11.14"/><rect id="Rectangle_3136-3" data-name="Rectangle 3136-3" class="cls-4" x="549.07" y="622.4" width="22.28" height="2.78"/><rect id="Rectangle_3137-3" data-name="Rectangle 3137-3" class="cls-4" x="549.07" y="637.71" width="22.28" height="2.78"/><g id="Ellipse_1403-3" data-name="Ellipse 1403-3"><circle class="cls-5" cx="709.88" cy="631.45" r="13.23"/><circle class="cls-25" cx="709.88" cy="631.45" r="11.97"/></g><g id="Group_7380" data-name="Group 7380"><g id="Group_7359-3" data-name="Group 7359-3"><path id="Rectangle_3070-6" data-name="Rectangle 3070-6" class="cls-4" d="M482.94,642.21h0a4.6,4.6,0,0,1,4.6,4.6v.37a4.6,4.6,0,0,1-4.6,4.6h0a4.6,4.6,0,0,1-4.6-4.6v-.37A4.6,4.6,0,0,1,482.94,642.21Z"/><path id="Rectangle_3138-3" data-name="Rectangle 3138-3" class="cls-3" d="M483.21,615.3h0a2.1,2.1,0,0,1,2.09,2.09v18.1a2.1,2.1,0,0,1-2.09,2.09h0a2.1,2.1,0,0,1-2.09-2.09v-18.1A2.1,2.1,0,0,1,483.21,615.3Z"/></g><g id="Group_7360-3" data-name="Group 7360-3"><path id="Rectangle_1442-11" data-name="Rectangle 1442-11" class="cls-26" d="M469,642.21h0a4.6,4.6,0,0,1,4.6,4.6v.37a4.6,4.6,0,0,1-4.6,4.6h0a4.6,4.6,0,0,1-4.6-4.6v-.37A4.6,4.6,0,0,1,469,642.21Z"/><path id="Rectangle_3139-3" data-name="Rectangle 3139-3" class="cls-27" d="M469.29,623.65h0a2.1,2.1,0,0,1,2.09,2.09v9.75a2.1,2.1,0,0,1-2.09,2.09h0a2.1,2.1,0,0,1-2.09-2.09v-9.75A2.1,2.1,0,0,1,469.29,623.65Z"/></g><g id="Group_7361-3" data-name="Group 7361-3"><path id="Rectangle_1425-11" data-name="Rectangle 1425-11" class="cls-4" d="M455.09,642.21h0a4.6,4.6,0,0,1,4.6,4.6v.37a4.6,4.6,0,0,1-4.6,4.6h0a4.6,4.6,0,0,1-4.6-4.6v-.37A4.6,4.6,0,0,1,455.09,642.21Z"/><path id="Rectangle_3140-3" data-name="Rectangle 3140-3" class="cls-3" d="M455.37,612.11h0a2.1,2.1,0,0,1,2.09,2.09v21.29a2.1,2.1,0,0,1-2.09,2.09h0a2.09,2.09,0,0,1-2.09-2.09V614.2A2.09,2.09,0,0,1,455.37,612.11Z"/></g><g id="Group_7362-3" data-name="Group 7362-3"><path id="Rectangle_1442-12" data-name="Rectangle 1442-12" class="cls-15" d="M441.17,642.21h0a4.6,4.6,0,0,1,4.6,4.6v.37a4.6,4.6,0,0,1-4.6,4.6h0a4.6,4.6,0,0,1-4.6-4.6v-.37A4.6,4.6,0,0,1,441.17,642.21Z"/><path id="Rectangle_3141-3" data-name="Rectangle 3141-3" class="cls-15" d="M441.44,617.41h0a2.09,2.09,0,0,1,2.09,2.09v16a2.09,2.09,0,0,1-2.09,2.09h0a2.09,2.09,0,0,1-2.08-2.09v-16A2.09,2.09,0,0,1,441.44,617.41Z"/></g><g id="Group_7363-3" data-name="Group 7363-3"><path id="Rectangle_1425-12" data-name="Rectangle 1425-12" class="cls-14" d="M427.25,642.21h0a4.6,4.6,0,0,1,4.6,4.6v.37a4.6,4.6,0,0,1-4.6,4.6h0a4.6,4.6,0,0,1-4.6-4.6v-.37A4.6,4.6,0,0,1,427.25,642.21Z"/><path id="Rectangle_3142-3" data-name="Rectangle 3142-3" class="cls-14" d="M427.52,626.44h0a2.08,2.08,0,0,1,2.09,2.09v7a2.09,2.09,0,0,1-2.09,2.09h0a2.1,2.1,0,0,1-2.09-2.09v-7A2.09,2.09,0,0,1,427.52,626.44Z"/></g></g></g><g id="Group_7365-4" data-name="Group 7365-4"><g id="Group_7180-4" data-name="Group 7180-4"><g id="Group_5583-4" data-name="Group 5583-4"><g id="Group_5582-4" data-name="Group 5582-4"><g id="Group_5581-4" data-name="Group 5581-4"><rect id="Rectangle_1565-4" data-name="Rectangle 1565-4" class="cls-11" x="412.19" y="746.59" width="317.59" height="24.66"/><path id="Path_3764-4" data-name="Path 3764-4" class="cls-20" d="M408.88,679.93H733.54c6.4,0,11.59,3.77,11.59,8.43v53.9c0,4.66-5.19,8.43-11.59,8.43H408.88c-6.4,0-11.59-3.77-11.59-8.43v-53.9C397.29,683.7,402.48,679.93,408.88,679.93Z"/><path id="Rectangle_1631-4" data-name="Rectangle 1631-4" class="cls-21" d="M402.32,679.93H514.65v70.76H402.32a5,5,0,0,1-5-5V685A5,5,0,0,1,402.32,679.93Z"/></g></g></g></g><g id="Group_7183-4" data-name="Group 7183-4"><g id="Group_5584-4" data-name="Group 5584-4"><path id="Rectangle_1405-4" data-name="Rectangle 1405-4" class="cls-22" d="M616.36,705.27h0a3.68,3.68,0,0,1,3.69,3.68h0a3.69,3.69,0,0,1-3.69,3.68h0a3.68,3.68,0,0,1-3.68-3.68h0A3.68,3.68,0,0,1,616.36,705.27Z"/><path id="Rectangle_1424-4" data-name="Rectangle 1424-4" class="cls-14" d="M625.2,720h0a3.69,3.69,0,0,1,3.69,3.68h0a3.68,3.68,0,0,1-3.69,3.68h0a3.68,3.68,0,0,1-3.68-3.68h0A3.68,3.68,0,0,1,625.2,720Z"/><path id="Rectangle_1406-4" data-name="Rectangle 1406-4" class="cls-22" d="M631.1,705.27h0a3.68,3.68,0,0,1,3.68,3.68h0a3.68,3.68,0,0,1-3.68,3.68h0a3.69,3.69,0,0,1-3.69-3.68h0A3.68,3.68,0,0,1,631.1,705.27Z"/><path id="Rectangle_1423-4" data-name="Rectangle 1423-4" class="cls-22" d="M639.94,720h0a3.68,3.68,0,0,1,3.68,3.68h0a3.68,3.68,0,0,1-3.68,3.68h0a3.68,3.68,0,0,1-3.69-3.68h0A3.69,3.69,0,0,1,639.94,720Z"/><path id="Rectangle_1407-4" data-name="Rectangle 1407-4" class="cls-15" d="M645.83,705.27h0a3.68,3.68,0,0,1,3.68,3.68h0a3.68,3.68,0,0,1-3.68,3.68h0a3.68,3.68,0,0,1-3.68-3.68h0A3.67,3.67,0,0,1,645.83,705.27Z"/><path id="Rectangle_1422-4" data-name="Rectangle 1422-4" class="cls-22" d="M654.67,720h0a3.68,3.68,0,0,1,3.68,3.68h0a3.68,3.68,0,0,1-3.68,3.68h0a3.67,3.67,0,0,1-3.68-3.68h0A3.68,3.68,0,0,1,654.67,720Z"/><path id="Rectangle_1408-4" data-name="Rectangle 1408-4" class="cls-22" d="M660.56,705.27h0a3.67,3.67,0,0,1,3.68,3.68h0a3.68,3.68,0,0,1-3.68,3.68h0a3.68,3.68,0,0,1-3.68-3.68h0A3.68,3.68,0,0,1,660.56,705.27Z"/><path id="Rectangle_1421-4" data-name="Rectangle 1421-4" class="cls-14" d="M669.4,720h0a3.68,3.68,0,0,1,3.68,3.68h0a3.67,3.67,0,0,1-3.68,3.68h0a3.68,3.68,0,0,1-3.68-3.68h0A3.68,3.68,0,0,1,669.4,720Z"/><path id="Rectangle_1409-4" data-name="Rectangle 1409-4" class="cls-22" d="M675.3,705.27h0A3.68,3.68,0,0,1,679,709h0a3.68,3.68,0,0,1-3.68,3.68h0a3.69,3.69,0,0,1-3.69-3.68h0A3.68,3.68,0,0,1,675.3,705.27Z"/><path id="Rectangle_1420-4" data-name="Rectangle 1420-4" class="cls-22" d="M684.13,720h0a3.69,3.69,0,0,1,3.69,3.68h0a3.68,3.68,0,0,1-3.69,3.68h0a3.68,3.68,0,0,1-3.68-3.68h0A3.68,3.68,0,0,1,684.13,720Z"/></g></g><g id="Ellipse_1402-4" data-name="Ellipse 1402-4"><circle class="cls-5" cx="709.88" cy="715.71" r="6.27"/><circle class="cls-23" cx="709.88" cy="715.71" r="5.01"/></g><path id="Rectangle_3126-4" data-name="Rectangle 3126-4" class="cls-22" d="M599.19,702.48h0a2.79,2.79,0,0,1,2.79,2.79v20.88a2.79,2.79,0,0,1-2.79,2.79h0a2.79,2.79,0,0,1-2.78-2.79V705.27A2.79,2.79,0,0,1,599.19,702.48Z"/><path id="Rectangle_3127-4" data-name="Rectangle 3127-4" class="cls-22" d="M588.06,702.48h0a2.79,2.79,0,0,1,2.78,2.79v20.88a2.79,2.79,0,0,1-2.78,2.79h0a2.79,2.79,0,0,1-2.79-2.79V705.27A2.79,2.79,0,0,1,588.06,702.48Z"/><rect id="Rectangle_3128-4" data-name="Rectangle 3128-4" class="cls-21" x="532.37" y="702.48" width="44.55" height="11.14"/><rect id="Rectangle_3129-4" data-name="Rectangle 3129-4" class="cls-21" x="532.37" y="717.8" width="44.55" height="11.14"/><path id="Rectangle_3130-4" data-name="Rectangle 3130-4" class="cls-15" d="M596.41,708.05H602v18.1a2.78,2.78,0,0,1-2.79,2.78h0a2.78,2.78,0,0,1-2.78-2.78v-18.1Z"/><path id="Rectangle_3131-4" data-name="Rectangle 3131-4" class="cls-14" d="M585.27,718.65h5.57v7.5a2.78,2.78,0,0,1-2.78,2.78h0a2.78,2.78,0,0,1-2.79-2.78h0v-7.5Z"/><rect id="Rectangle_3132-4" data-name="Rectangle 3132-4" class="cls-24" x="532.37" y="702.48" width="11.14" height="11.14"/><rect id="Rectangle_3133-4" data-name="Rectangle 3133-4" class="cls-24" x="532.37" y="717.8" width="11.14" height="11.14"/><rect id="Rectangle_3136-4" data-name="Rectangle 3136-4" class="cls-4" x="549.07" y="706.66" width="22.28" height="2.78"/><rect id="Rectangle_3137-4" data-name="Rectangle 3137-4" class="cls-4" x="549.07" y="721.97" width="22.28" height="2.78"/><g id="Ellipse_1403-4" data-name="Ellipse 1403-4"><circle class="cls-5" cx="709.88" cy="715.71" r="13.23"/><circle class="cls-25" cx="709.88" cy="715.71" r="11.97"/></g><g id="Group_7381" data-name="Group 7381"><g id="Group_7359-4" data-name="Group 7359-4"><path id="Rectangle_3070-7" data-name="Rectangle 3070-7" class="cls-4" d="M482.94,726.47h0a4.6,4.6,0,0,1,4.6,4.6v.37a4.6,4.6,0,0,1-4.6,4.6h0a4.6,4.6,0,0,1-4.6-4.6v-.37A4.6,4.6,0,0,1,482.94,726.47Z"/><path id="Rectangle_3138-4" data-name="Rectangle 3138-4" class="cls-3" d="M483.21,699.56h0a2.1,2.1,0,0,1,2.09,2.09v18.1a2.1,2.1,0,0,1-2.09,2.09h0a2.1,2.1,0,0,1-2.09-2.09v-18.1A2.1,2.1,0,0,1,483.21,699.56Z"/></g><g id="Group_7360-4" data-name="Group 7360-4"><path id="Rectangle_1442-13" data-name="Rectangle 1442-13" class="cls-26" d="M469,726.47h0a4.6,4.6,0,0,1,4.6,4.6v.37A4.6,4.6,0,0,1,469,736h0a4.6,4.6,0,0,1-4.6-4.6v-.37A4.6,4.6,0,0,1,469,726.47Z"/><path id="Rectangle_3139-4" data-name="Rectangle 3139-4" class="cls-27" d="M469.29,707.92h0a2.09,2.09,0,0,1,2.09,2.08v9.75a2.1,2.1,0,0,1-2.09,2.09h0a2.1,2.1,0,0,1-2.09-2.09V710A2.09,2.09,0,0,1,469.29,707.92Z"/></g><g id="Group_7361-4" data-name="Group 7361-4"><path id="Rectangle_1425-13" data-name="Rectangle 1425-13" class="cls-4" d="M455.09,726.47h0a4.6,4.6,0,0,1,4.6,4.6v.37a4.6,4.6,0,0,1-4.6,4.6h0a4.6,4.6,0,0,1-4.6-4.6v-.37A4.6,4.6,0,0,1,455.09,726.47Z"/><path id="Rectangle_3140-4" data-name="Rectangle 3140-4" class="cls-3" d="M455.37,696.37h0a2.1,2.1,0,0,1,2.09,2.09v21.29a2.1,2.1,0,0,1-2.09,2.09h0a2.09,2.09,0,0,1-2.09-2.09V698.46A2.09,2.09,0,0,1,455.37,696.37Z"/></g><g id="Group_7362-4" data-name="Group 7362-4"><path id="Rectangle_1442-14" data-name="Rectangle 1442-14" class="cls-15" d="M441.17,726.47h0a4.6,4.6,0,0,1,4.6,4.6v.37a4.6,4.6,0,0,1-4.6,4.6h0a4.6,4.6,0,0,1-4.6-4.6v-.37A4.6,4.6,0,0,1,441.17,726.47Z"/><path id="Rectangle_3141-4" data-name="Rectangle 3141-4" class="cls-15" d="M441.44,701.67h0a2.09,2.09,0,0,1,2.09,2.09v16a2.09,2.09,0,0,1-2.09,2.09h0a2.09,2.09,0,0,1-2.08-2.09v-16A2.09,2.09,0,0,1,441.44,701.67Z"/></g><g id="Group_7363-4" data-name="Group 7363-4"><path id="Rectangle_1425-14" data-name="Rectangle 1425-14" class="cls-14" d="M427.25,726.47h0a4.6,4.6,0,0,1,4.6,4.6v.37a4.6,4.6,0,0,1-4.6,4.6h0a4.6,4.6,0,0,1-4.6-4.6v-.37A4.6,4.6,0,0,1,427.25,726.47Z"/><path id="Rectangle_3142-4" data-name="Rectangle 3142-4" class="cls-14" d="M427.52,710.7h0a2.09,2.09,0,0,1,2.09,2.09v7a2.09,2.09,0,0,1-2.09,2.09h0a2.1,2.1,0,0,1-2.09-2.09v-7A2.1,2.1,0,0,1,427.52,710.7Z"/></g></g></g><g id="Group_7365-5-2" data-name="Group 7365-5"><g id="Group_7180-5" data-name="Group 7180-5"><g id="Group_5583-5" data-name="Group 5583-5"><g id="Group_5582-5" data-name="Group 5582-5"><g id="Group_5581-5" data-name="Group 5581-5"><path id="Path_3764-5" data-name="Path 3764-5" class="cls-20" d="M408.88,764.19H733.54c6.4,0,11.59,3.77,11.59,8.43v53.91c0,4.65-5.19,8.42-11.59,8.42H408.88c-6.4,0-11.59-3.77-11.59-8.42V772.62C397.29,768,402.48,764.19,408.88,764.19Z"/><path id="Rectangle_1631-5" data-name="Rectangle 1631-5" class="cls-21" d="M402.32,764.19H514.65V835H402.32a5,5,0,0,1-5-5v-60.7A5,5,0,0,1,402.32,764.19Z"/></g></g></g></g><g id="Group_7183-5" data-name="Group 7183-5"><g id="Group_5584-5" data-name="Group 5584-5"><path id="Rectangle_1405-5" data-name="Rectangle 1405-5" class="cls-22" d="M616.36,789.53h0a3.69,3.69,0,0,1,3.69,3.68h0a3.69,3.69,0,0,1-3.69,3.68h0a3.68,3.68,0,0,1-3.68-3.68h0A3.68,3.68,0,0,1,616.36,789.53Z"/><path id="Rectangle_1424-5" data-name="Rectangle 1424-5" class="cls-14" d="M625.2,804.26h0a3.69,3.69,0,0,1,3.69,3.68h0a3.69,3.69,0,0,1-3.69,3.69h0a3.69,3.69,0,0,1-3.68-3.69h0A3.68,3.68,0,0,1,625.2,804.26Z"/><path id="Rectangle_1406-5" data-name="Rectangle 1406-5" class="cls-22" d="M631.1,789.53h0a3.68,3.68,0,0,1,3.68,3.68h0a3.68,3.68,0,0,1-3.68,3.68h0a3.69,3.69,0,0,1-3.69-3.68h0A3.69,3.69,0,0,1,631.1,789.53Z"/><path id="Rectangle_1423-5" data-name="Rectangle 1423-5" class="cls-22" d="M639.94,804.26h0a3.68,3.68,0,0,1,3.68,3.68h0a3.69,3.69,0,0,1-3.68,3.69h0a3.69,3.69,0,0,1-3.69-3.69h0A3.69,3.69,0,0,1,639.94,804.26Z"/><path id="Rectangle_1407-5" data-name="Rectangle 1407-5" class="cls-15" d="M645.83,789.53h0a3.68,3.68,0,0,1,3.68,3.68h0a3.68,3.68,0,0,1-3.68,3.68h0a3.68,3.68,0,0,1-3.68-3.68h0A3.68,3.68,0,0,1,645.83,789.53Z"/><path id="Rectangle_1422-5" data-name="Rectangle 1422-5" class="cls-22" d="M654.67,804.26h0a3.68,3.68,0,0,1,3.68,3.68h0a3.69,3.69,0,0,1-3.68,3.69h0a3.68,3.68,0,0,1-3.68-3.69h0A3.68,3.68,0,0,1,654.67,804.26Z"/><path id="Rectangle_1408-5" data-name="Rectangle 1408-5" class="cls-22" d="M660.56,789.53h0a3.68,3.68,0,0,1,3.68,3.68h0a3.68,3.68,0,0,1-3.68,3.68h0a3.68,3.68,0,0,1-3.68-3.68h0A3.68,3.68,0,0,1,660.56,789.53Z"/><path id="Rectangle_1421-5" data-name="Rectangle 1421-5" class="cls-14" d="M669.4,804.26h0a3.68,3.68,0,0,1,3.68,3.68h0a3.68,3.68,0,0,1-3.68,3.69h0a3.69,3.69,0,0,1-3.68-3.69h0A3.68,3.68,0,0,1,669.4,804.26Z"/><path id="Rectangle_1409-5" data-name="Rectangle 1409-5" class="cls-22" d="M675.3,789.53h0a3.68,3.68,0,0,1,3.68,3.68h0a3.68,3.68,0,0,1-3.68,3.68h0a3.69,3.69,0,0,1-3.69-3.68h0A3.69,3.69,0,0,1,675.3,789.53Z"/><path id="Rectangle_1420-5" data-name="Rectangle 1420-5" class="cls-22" d="M684.13,804.26h0a3.69,3.69,0,0,1,3.69,3.68h0a3.69,3.69,0,0,1-3.69,3.69h0a3.69,3.69,0,0,1-3.68-3.69h0A3.68,3.68,0,0,1,684.13,804.26Z"/></g></g><g id="Ellipse_1402-5" data-name="Ellipse 1402-5"><circle class="cls-5" cx="709.88" cy="799.97" r="6.27"/><circle class="cls-23" cx="709.88" cy="799.97" r="5.01"/></g><path id="Rectangle_3126-5" data-name="Rectangle 3126-5" class="cls-22" d="M599.19,786.74h0a2.79,2.79,0,0,1,2.79,2.79v20.88a2.79,2.79,0,0,1-2.79,2.79h0a2.79,2.79,0,0,1-2.78-2.79V789.53A2.79,2.79,0,0,1,599.19,786.74Z"/><path id="Rectangle_3127-5" data-name="Rectangle 3127-5" class="cls-22" d="M588.06,786.74h0a2.79,2.79,0,0,1,2.78,2.79v20.88a2.79,2.79,0,0,1-2.78,2.79h0a2.79,2.79,0,0,1-2.79-2.79V789.53A2.79,2.79,0,0,1,588.06,786.74Z"/><rect id="Rectangle_3128-5" data-name="Rectangle 3128-5" class="cls-21" x="532.37" y="786.74" width="44.55" height="11.14"/><rect id="Rectangle_3129-5" data-name="Rectangle 3129-5" class="cls-21" x="532.37" y="802.06" width="44.55" height="11.14"/><path id="Rectangle_3130-5" data-name="Rectangle 3130-5" class="cls-15" d="M596.41,792.31H602v18.1a2.79,2.79,0,0,1-2.79,2.79h0a2.79,2.79,0,0,1-2.78-2.79v-18.1Z"/><path id="Rectangle_3131-5" data-name="Rectangle 3131-5" class="cls-14" d="M585.27,802.91h5.57v7.5a2.79,2.79,0,0,1-2.78,2.79h0a2.79,2.79,0,0,1-2.79-2.79h0v-7.5Z"/><rect id="Rectangle_3132-5" data-name="Rectangle 3132-5" class="cls-24" x="532.37" y="786.74" width="11.14" height="11.14"/><rect id="Rectangle_3133-5" data-name="Rectangle 3133-5" class="cls-24" x="532.37" y="802.06" width="11.14" height="11.14"/><rect id="Rectangle_3136-5" data-name="Rectangle 3136-5" class="cls-4" x="549.07" y="790.92" width="22.28" height="2.78"/><rect id="Rectangle_3137-5" data-name="Rectangle 3137-5" class="cls-4" x="549.07" y="806.23" width="22.28" height="2.78"/><g id="Ellipse_1403-5" data-name="Ellipse 1403-5"><circle class="cls-5" cx="709.88" cy="799.97" r="13.23"/><circle class="cls-25" cx="709.88" cy="799.97" r="11.97"/></g><g id="Group_7382-2" data-name="Group 7382"><g id="Group_7359-5" data-name="Group 7359-5"><path id="Rectangle_3070-8" data-name="Rectangle 3070-8" class="cls-4" d="M482.94,809.48h0a4.6,4.6,0,0,1,4.6,4.6v.36a4.6,4.6,0,0,1-4.6,4.6h0a4.6,4.6,0,0,1-4.6-4.6v-.36A4.6,4.6,0,0,1,482.94,809.48Z"/><path id="Rectangle_3138-5" data-name="Rectangle 3138-5" class="cls-3" d="M483.21,782.57h0a2.09,2.09,0,0,1,2.09,2.09v18.09a2.09,2.09,0,0,1-2.09,2.09h0a2.09,2.09,0,0,1-2.09-2.09V784.66A2.09,2.09,0,0,1,483.21,782.57Z"/></g><g id="Group_7360-5" data-name="Group 7360-5"><path id="Rectangle_1442-15" data-name="Rectangle 1442-15" class="cls-26" d="M469,809.48h0a4.6,4.6,0,0,1,4.6,4.6v.36A4.6,4.6,0,0,1,469,819h0a4.6,4.6,0,0,1-4.6-4.6v-.36A4.6,4.6,0,0,1,469,809.48Z"/><path id="Rectangle_3139-5" data-name="Rectangle 3139-5" class="cls-27" d="M469.29,790.92h0a2.09,2.09,0,0,1,2.09,2.09v9.74a2.09,2.09,0,0,1-2.09,2.09h0a2.09,2.09,0,0,1-2.09-2.09V793A2.09,2.09,0,0,1,469.29,790.92Z"/></g><g id="Group_7361-5" data-name="Group 7361-5"><path id="Rectangle_1425-15" data-name="Rectangle 1425-15" class="cls-4" d="M455.09,809.48h0a4.6,4.6,0,0,1,4.6,4.6v.36a4.6,4.6,0,0,1-4.6,4.6h0a4.6,4.6,0,0,1-4.6-4.6v-.36A4.6,4.6,0,0,1,455.09,809.48Z"/><path id="Rectangle_3140-5" data-name="Rectangle 3140-5" class="cls-3" d="M455.37,779.38h0a2.09,2.09,0,0,1,2.09,2.09v21.28a2.09,2.09,0,0,1-2.09,2.09h0a2.08,2.08,0,0,1-2.09-2.09V781.47A2.08,2.08,0,0,1,455.37,779.38Z"/></g><g id="Group_7362-5" data-name="Group 7362-5"><path id="Rectangle_1442-16" data-name="Rectangle 1442-16" class="cls-15" d="M441.17,809.48h0a4.6,4.6,0,0,1,4.6,4.6v.36a4.6,4.6,0,0,1-4.6,4.6h0a4.6,4.6,0,0,1-4.6-4.6v-.36A4.6,4.6,0,0,1,441.17,809.48Z"/><path id="Rectangle_3141-5" data-name="Rectangle 3141-5" class="cls-15" d="M441.44,784.68h0a2.08,2.08,0,0,1,2.09,2.09v16a2.08,2.08,0,0,1-2.09,2.09h0a2.08,2.08,0,0,1-2.08-2.09v-16A2.08,2.08,0,0,1,441.44,784.68Z"/></g><g id="Group_7363-5-2" data-name="Group 7363-5"><path id="Rectangle_1425-16" data-name="Rectangle 1425-16" class="cls-14" d="M427.25,809.48h0a4.6,4.6,0,0,1,4.6,4.6v.36a4.6,4.6,0,0,1-4.6,4.6h0a4.6,4.6,0,0,1-4.6-4.6v-.36A4.6,4.6,0,0,1,427.25,809.48Z"/><path id="Rectangle_3142-5" data-name="Rectangle 3142-5" class="cls-14" d="M427.52,793.7h0a2.09,2.09,0,0,1,2.09,2.09v7a2.08,2.08,0,0,1-2.09,2.09h0a2.09,2.09,0,0,1-2.09-2.09v-7A2.1,2.1,0,0,1,427.52,793.7Z"/></g></g></g></g><g id="Layer_2" data-name="Layer 2"><g id="Layer_1-2" data-name="Layer 1-2"><path class="cls-27" d="M499.09,453.33h10.24l-1.58,6.07a3.9,3.9,0,0,1-1.36,2,3.72,3.72,0,0,1-2.31.77h-4.76a4.57,4.57,0,0,0-2.87,1,5,5,0,0,0-1.75,2.58,4.88,4.88,0,0,0,.81,4.24,4.61,4.61,0,0,0,1.63,1.34,4.83,4.83,0,0,0,2.18.49h2.9a1.65,1.65,0,0,1,1.33.66,1.57,1.57,0,0,1,.31,1.47L502,480.65h-3.17a12.76,12.76,0,0,1-6-1.43,13.69,13.69,0,0,1-4.57-3.78A13.34,13.34,0,0,1,486,463.88l.19-.68a13.38,13.38,0,0,1,4.77-7.13,13.64,13.64,0,0,1,3.78-2A13,13,0,0,1,499.09,453.33Z"/><path class="cls-27" d="M504.26,480.65l8.92-33.44a3.86,3.86,0,0,1,1.36-2,3.72,3.72,0,0,1,2.31-.77h9.48a12.79,12.79,0,0,1,6,1.43,13.49,13.49,0,0,1,7,9.15,12.71,12.71,0,0,1-.18,6.19l-.19.68a13.44,13.44,0,0,1-1.81,4,13.22,13.22,0,0,1-11.06,5.92h-8.2l1.63-6.12a3.89,3.89,0,0,1,1.36-2,3.66,3.66,0,0,1,2.31-.78h2.63a4.75,4.75,0,0,0,4.62-3.58,4.4,4.4,0,0,0,.07-2.22,5.08,5.08,0,0,0-.89-1.93A4.77,4.77,0,0,0,528,453.8a4.54,4.54,0,0,0-2.17-.52H520.8l-6.62,24.61a3.83,3.83,0,0,1-1.36,2,3.56,3.56,0,0,1-2.26.77Z"/><path class="cls-27" d="M560.77,462.8l.13-.5a.67.67,0,0,0-.11-.61.72.72,0,0,0-.57-.25H545.49a3.68,3.68,0,0,1-1.72-.4A3.94,3.94,0,0,1,542.5,460a3.83,3.83,0,0,1-.68-1.51,3.92,3.92,0,0,1,0-1.77l.91-3.44h19.94a7,7,0,0,1,3.39.81,7.91,7.91,0,0,1,2.57,2.13,7.57,7.57,0,0,1,1.34,6.54l-3.58,13.32a6.15,6.15,0,0,1-6,4.58l-14.73-.05a7.77,7.77,0,0,1-6.26-3.09,8.1,8.1,0,0,1-1.45-3.17,7.52,7.52,0,0,1,.09-3.65l.18-.68a7.23,7.23,0,0,1,1.06-2.35,7.93,7.93,0,0,1,1.75-1.86,7.81,7.81,0,0,1,4.8-1.63h12.37l-.9,3.4a3.89,3.89,0,0,1-1.36,2,3.6,3.6,0,0,1-2.27.77h-5.53a1,1,0,0,0-1,.77.91.91,0,0,0,.18.88,1,1,0,0,0,.81.39h8.93a1.4,1.4,0,0,0,.86-.27,1.22,1.22,0,0,0,.46-.73l.09-.36Z"/><path class="cls-27" d="M587.14,453.33a12.82,12.82,0,0,1,6,1.42,13.65,13.65,0,0,1,4.56,3.78,13.46,13.46,0,0,1,2.47,5.39,13,13,0,0,1-.21,6.21l-2.26,8.52a2.52,2.52,0,0,1-1,1.45,2.68,2.68,0,0,1-1.66.54h-4.88a1.65,1.65,0,0,1-1.7-1.62,1.79,1.79,0,0,1,.07-.51l2.72-10.28a4.52,4.52,0,0,0,.07-2.22,5.08,5.08,0,0,0-.89-1.93,4.77,4.77,0,0,0-1.63-1.36,4.57,4.57,0,0,0-2.17-.52h-5.08l-4.4,16.46a2.46,2.46,0,0,1-1,1.45,2.8,2.8,0,0,1-1.7.54h-4.85a1.6,1.6,0,0,1-1.33-.66,1.57,1.57,0,0,1-.31-1.47l6.71-25.19Z"/><path class="cls-27" d="M613.83,462a2.29,2.29,0,0,0-.77,1.11l-2,7.7a1.36,1.36,0,0,0,1,1.68,1.47,1.47,0,0,0,.36,0h18.76l-1.44,5.4a3.89,3.89,0,0,1-1.36,2,3.6,3.6,0,0,1-2.27.77H608.93a7.25,7.25,0,0,1-3.39-.79,7.48,7.48,0,0,1-2.57-2.13,8,8,0,0,1-1.41-3,7,7,0,0,1,.12-3.47l2.76-10.29a10,10,0,0,1,1.41-3.08,10.16,10.16,0,0,1,8.46-4.53h12.1a7.07,7.07,0,0,1,3.4.81,7.91,7.91,0,0,1,2.57,2.13,7.37,7.37,0,0,1,1.38,3,7.62,7.62,0,0,1-.09,3.49l-.82,3.08a5.83,5.83,0,0,1-2.19,3.3,6,6,0,0,1-3.73,1.24H613.24l.91-3.35a3.62,3.62,0,0,1,1.31-2,3.72,3.72,0,0,1,2.31-.77h5.53a1,1,0,0,0,1-.77l.18-.68a1,1,0,0,0-.74-1.28,1.09,1.09,0,0,0-.26,0h-8.42A1.9,1.9,0,0,0,613.83,462Z"/><path class="cls-27" d="M631.05,480.65l9.11-34.21a2.6,2.6,0,0,1,1-1.48,2.75,2.75,0,0,1,1.7-.56h4.85a1.66,1.66,0,0,1,1.38.66,1.54,1.54,0,0,1,.3,1.47l-6.79,25.24a11.22,11.22,0,0,1-1.61,3.62,11.82,11.82,0,0,1-2.63,2.79A12,12,0,0,1,635,480,11.26,11.26,0,0,1,631.05,480.65Z"/><path class="cls-27" d="M650.92,447.58a3,3,0,0,1,.42-1.55,3.1,3.1,0,0,1,2.7-1.57,3.16,3.16,0,0,1,2.7,1.56,3.12,3.12,0,1,1-5.42,3.09A3,3,0,0,1,650.92,447.58Zm.44,0a2.68,2.68,0,0,0,5,1.35,2.58,2.58,0,0,0,.36-1.35,2.55,2.55,0,0,0-.36-1.34,2.76,2.76,0,0,0-1-1,2.69,2.69,0,0,0-3.67,1A2.52,2.52,0,0,0,651.36,447.58Zm3.94-.76a1,1,0,0,1-.17.59,1,1,0,0,1-.5.38l1,1.64h-.7l-.86-1.47h-.55v1.47h-.62v-3.69H654a1.58,1.58,0,0,1,1,.26,1,1,0,0,1,.32.83Zm-1.79.63H654a.78.78,0,0,0,.53-.17.54.54,0,0,0,.2-.44.5.5,0,0,0-.18-.44.84.84,0,0,0-.56-.14h-.44Z"/></g></g></g></g></svg>