<svg xmlns="http://www.w3.org/2000/svg" xmlns:xlink="http://www.w3.org/1999/xlink" viewBox="0 0 923.88 655.35"><defs><style>.cls-1{isolation:isolate;}.cls-2{fill:url(#linear-gradient);}.cls-3{fill:url(#linear-gradient-2);}.cls-4{fill:url(#linear-gradient-3);}.cls-5{fill:none;stroke:#2069a2;stroke-linecap:round;stroke-miterlimit:10;stroke-width:7.78px;}.cls-6{fill:#32a3d1;}.cls-7{fill:#ffe7cb;}.cls-8{fill:#0a316d;}.cls-9{fill:#edd7c0;}.cls-10{fill:#17448b;}.cls-11{fill:#0e4696;}.cls-12{fill:#1e54b5;}.cls-13{fill:#ffa97d;}.cls-14{fill:#e79064;}.cls-15{fill:#1072c2;}.cls-16{fill:#fff;}.cls-17{fill:url(#linear-gradient-4);}.cls-18{fill:#1b1b35;}.cls-19{fill:url(#linear-gradient-5);}.cls-20{fill:url(#linear-gradient-6);}.cls-21,.cls-22{fill:#d3c2be;opacity:0.5;}.cls-21,.cls-41{mix-blend-mode:screen;}.cls-22{mix-blend-mode:multiply;}.cls-23{fill:url(#linear-gradient-7);}.cls-24{fill:url(#linear-gradient-8);}.cls-25{fill:#febd54;}.cls-26{fill:#fee0af;}.cls-27{fill:#c48c31;}.cls-27,.cls-29,.cls-30{opacity:0.36;}.cls-28{fill:#feb540;}.cls-29{fill:#d99b36;}.cls-30{fill:#6e4e1b;}.cls-31{fill:#f2aa43;}.cls-32{fill:#f8bb66;}.cls-33{fill:#eba02a;}.cls-34{fill:#f8c681;}.cls-35{fill:#f8f8f8;mix-blend-mode:soft-light;}.cls-36{fill:#26a587;}.cls-37{fill:#87decd;}.cls-38{fill:#f59905;}.cls-39{fill:#ffca00;}.cls-40{fill:#f59207;}.cls-41{opacity:0.3;}.cls-42{fill:#c4c4c4;}.cls-43{fill:#aad5e2;}.cls-44{fill:#2b75e0;}.cls-45{fill:#3b89d2;}.cls-46{fill:#97c3f2;}.cls-47{fill:url(#linear-gradient-9);}.cls-48{fill:#f7cebf;}</style><linearGradient id="linear-gradient" x1="1060.06" y1="-3750.17" x2="976.34" y2="-4224.95" gradientTransform="translate(1110.52 -3776.27) rotate(175.19)" gradientUnits="userSpaceOnUse"><stop offset="0" stop-color="#c6e6ff"/><stop offset="1" stop-color="#fff"/></linearGradient><linearGradient id="linear-gradient-2" x1="5499.14" y1="-2074.3" x2="5778.41" y2="-2074.3" gradientTransform="matrix(-0.02, 0.5, -1.66, -0.07, -2865.39, -2498.43)" gradientUnits="userSpaceOnUse"><stop offset="0" stop-color="#288ed9"/><stop offset="1" stop-color="#137fcf" stop-opacity="0.05"/></linearGradient><linearGradient id="linear-gradient-3" x1="315.55" y1="474.24" x2="562.91" y2="474.24" gradientTransform="matrix(-1, 0, 0, 1, 869.14, 0)" gradientUnits="userSpaceOnUse"><stop offset="0" stop-color="#233862"/><stop offset="1" stop-color="#137fcf" stop-opacity="0.05"/></linearGradient><linearGradient id="linear-gradient-4" x1="143.1" y1="305.41" x2="210.41" y2="305.41" gradientUnits="userSpaceOnUse"><stop offset="0" stop-color="#ffbc98"/><stop offset="1" stop-color="#ff9f6c"/></linearGradient><linearGradient id="linear-gradient-5" x1="203.36" y1="318.62" x2="260.12" y2="318.62" gradientUnits="userSpaceOnUse"><stop offset="0" stop-color="#44989f"/><stop offset="0.21" stop-color="#39b0b4"/><stop offset="0.52" stop-color="#2ccbcd"/><stop offset="0.8" stop-color="#24dcdd"/><stop offset="1" stop-color="#21e2e2"/></linearGradient><linearGradient id="linear-gradient-6" x1="175.05" y1="422.83" x2="236.62" y2="422.83" xlink:href="#linear-gradient-4"/><linearGradient id="linear-gradient-7" x1="186.88" y1="468.13" x2="224.79" y2="468.13" xlink:href="#linear-gradient-4"/><linearGradient id="linear-gradient-8" x1="172.31" y1="384.2" x2="239.36" y2="384.2" xlink:href="#linear-gradient-4"/><linearGradient id="linear-gradient-9" x1="481.94" y1="149.8" x2="561.06" y2="149.8" xlink:href="#linear-gradient-4"/></defs><g class="cls-1"><g id="Layer_1" data-name="Layer 1"><path class="cls-2" d="M251.1,447.09C206,298.91,151.44,326.67,109.68,263.31c-.75-1.13-1.48-2.26-2.18-3.38C65.34,193.1,110.09,105.32,188.83,98.7L569,66.73a106,106,0,0,1,49.39,7.68c47.1,19.47,134.92,72.11,104.26,186.64-13,48.59-70.66,64.48-144.7,231.73"/><path id="Path_5765" data-name="Path 5765" class="cls-3" d="M585.33,475.45c-21.26,8.68-29.44,20.1-32.08,29.91-6.32,23.56-80.08,37.52-157.4,29.24L390.2,534c-6.9-.79-13.65-1.75-20.12-2.89-148.2-26.19-224.4-79.5-129.83-107.35,161.31-47.51,634.61-16.08,370.27,44.08A163.82,163.82,0,0,0,585.33,475.45Z"/><ellipse id="_Path_" data-name="&lt;Path&gt;" class="cls-4" cx="429.91" cy="474.24" rx="123.68" ry="9.88"/><line class="cls-5" x1="348.25" y1="383.8" x2="315.37" y2="471.77"/><line class="cls-5" x1="426.06" y1="383.8" x2="393.18" y2="471.77"/><line class="cls-5" x1="360.12" y1="384.36" x2="374.94" y2="477.1"/><line class="cls-5" x1="436.23" y1="385.8" x2="459.65" y2="471.75"/><path class="cls-6" d="M424.72,398.54l-59.36,1.75c-.42,0-.84,0-1.26,0a57.37,57.37,0,0,1-15.8-1.8c-7.14-2-11.54-6.36-16.65-11.58A50.69,50.69,0,0,1,317.2,355l0-.43c-.82-13.24-4.14-67.87-4.77-78.24a13.48,13.48,0,0,1,.73-5.35,16.19,16.19,0,0,1,9.34-9.66,13.78,13.78,0,0,1,7-1c4.34.56,11.18,3.17,13.61,13.68,2.91,12.64,16.85,53.89,22.41,70.18a13.8,13.8,0,0,0,9.09,8.76l57.23,17.26a13.82,13.82,0,0,1,9.82,13.23h0a13.8,13.8,0,0,1-9,12.93l-3.53,1.33A13.85,13.85,0,0,1,424.72,398.54Z"/><path class="cls-7" d="M502.71,466.09s-2.9-18.52-2.9-18.52l-11,9.46s3.77,8.1,3.94,11.11c-.1,0-.56,0-.56,0,.17,1.68-.93,4.16-.16,7.06.82,3.12,19.7.4,26.5-1.67C521.79,472.51,514.76,470.06,502.71,466.09Z"/><path class="cls-8" d="M491.38,468.06l.67,9.45,33.08-.72s-3.29-4.38-17.74-10.27l-4.48-.84s-2.13,3.89-5.3,3.26a22.73,22.73,0,0,1-5-1.73.88.88,0,0,0-1.27.85Z"/><path class="cls-7" d="M485.32,469.35s-2.47-18.59-2.47-18.59L471.63,460s3.58,8.19,3.68,11.2a4.41,4.41,0,0,0-.56,0c.13,1.67-1,4.13-.32,7.05.75,3.13,19.69.84,26.54-1.07C504.26,476.19,497.28,473.58,485.32,469.35Z"/><path class="cls-8" d="M474,471.06l.46,9.46,33.08,0s-3.19-4.45-17.5-10.67l-4.46-.94s-2.22,3.83-5.37,3.13a22.64,22.64,0,0,1-4.93-1.84.87.87,0,0,0-1.28.83Z"/><path class="cls-7" d="M419.17,262.11c-3.62,2.8-5.91,12.88-11.75,14.55-21.88,6.24-33.63-19.74-37.47-32.42a19.09,19.09,0,0,1,7.38-2.69c1.59-.27,3.27-.48,4.66-.62,2.39-2,5.7-10,5.9-22.16L389,219l17.69,3.88s-.52,5.59-.64,10.85c-.09,4.12-.23,5.11.09,5.6,1.38.22,3,3.74,3,3.74a0,0,0,0,0,0,0A113,113,0,0,1,419.17,262.11Z"/><path class="cls-9" d="M406.38,222.22s-.52,5.59-.64,10.85c-9.94-.48-15-9.66-17.05-14.73Z"/><path class="cls-7" d="M409.34,227.64s-23.53-.46-23-15.15-2.18-24.63,12.86-25S417,192.92,418,197.86,415.48,227.39,409.34,227.64Z"/><path class="cls-10" d="M382.84,238.47c-3.68.51-1.48.18-5.24.57A40.33,40.33,0,0,0,366,242.86c-1.35.73-2.63,1.65-4.05,2.56.11-.76.17-1.48.34-2.17a8.25,8.25,0,0,1,3.4-4.87c1.12-.8,2.29-1.51,3.42-2.28,2.77-1.88,3.06-10.89,1.07-14-.73-1.16-1.45-2.35-2.07-3.59a9.59,9.59,0,0,1-1.06-4.23,7.8,7.8,0,0,1,3.3-6.47,18.46,18.46,0,0,1,5-2.68,15.63,15.63,0,0,0,2.62-1.31,4.38,4.38,0,0,0,2.05-4c0-2.06-.11-4.15.09-6.19.46-4.55,1.82-8.66,4.73-11.77a8.66,8.66,0,0,1,7.74-2.81,1.58,1.58,0,0,0,1.13-.29,15.62,15.62,0,0,1,7.82-2.71,17.62,17.62,0,0,1,11.23,3.37,29.38,29.38,0,0,1,7.12,6.72,19.92,19.92,0,0,1,3.82,13.33,54.85,54.85,0,0,1-2.52,12.77,14.17,14.17,0,0,0-.27,8.26c.6,2,1.31,3.95,2.06,5.88,1.3,3.35,2.67,6.68,4,10a23,23,0,0,1,1.18,12c-.25,1.76-.69,6.47-1.05,8.2h-.24c-.74-1.15-1.46-2.32-2.22-3.45-1.61-2.39-3.16-4.84-4.88-7.12a18.07,18.07,0,0,0-8.42-6,30.44,30.44,0,0,0-3.51-.86,16.37,16.37,0,0,1-1.68-.53.8.8,0,0,1-.34-.5c-.32-2.35-.6-7.7-.93-10.05-.08-.56.24-.58.51-.67a13.19,13.19,0,0,0,6.11-4.66,17.61,17.61,0,0,0,3.4-10.28c.1-3.05.17-6.09.25-9.14,0-.19,0-.37,0-.59a26.64,26.64,0,0,1-16.12-7c-.46,1.12-.88,2.24-1.36,3.32s-1.14,2.4-1.74,3.58a11.59,11.59,0,0,1-4.36,4.67c-3,1.83-3.32,5.39-2.92,8.11.71,4.83-1.54,17.74-.91,22.58"/><path class="cls-11" d="M473.83,344.83c-6.2-4.36-47.24-12.12-68.18-14.37l-23.14-20.09s-19.71,29.18-19.86,51.51c-.08,10.4,4.72,11.44,4.72,11.44s74.2.55,77.45.89c5.33.55,12.35,13.81,14.11,25.89s32.69,63.21,32.69,63.21,6.46,2.07,9.44,1.89a9.38,9.38,0,0,0,4.7-1.26S487.83,354.65,473.83,344.83Z"/><path class="cls-12" d="M454.47,344.83c-5.39-3.78-21.6-6.72-39.49-8.9a12,12,0,0,1-10.22-9h0L366.5,311.7a4.37,4.37,0,0,0-5.33,1.76c-5,8.08-17.76,30.46-17.89,48.42v.3a11.25,11.25,0,0,0,11.19,11.19c18.14.14,68.33.56,71,.84,5.33.55,12.35,13.81,14.1,25.89,1.58,10.87,26.78,53.34,31.83,61.76a4.34,4.34,0,0,0,2.55,1.95c2.12.6,5.74,1.51,7.76,1.39h.09a4.35,4.35,0,0,0,4-5.09C482.42,440.68,466.89,353.55,454.47,344.83Z"/><polygon class="cls-13" points="414.87 313.49 411.4 313.5 411.41 313.49 414.87 313.49"/><path class="cls-13" d="M387.63,237.62l12.13,13,4.06-8.25,2-3.86c4.57,1.34,6.53,1.66,10.33,3.18a12,12,0,0,1,6.07,5.39c6.66,12.17,28.27,51.42,30.48,52.33,2.06.86,9.85,2.42,18.09,3.92h0c11,2,22.86,3.93,22.86,3.93l2.17,6.41s-10.41.38-21.71.42h-4c-9.21,0-18.25-.36-22.1-1.35s-18.22-10.77-29.79-22.65h0c-.89,2.14-1.57,3.77-1.59,3.9a59.42,59.42,0,0,1-1.6,7.9c0,.18-.09.36-.13.54s-.05.28-.08.43-.06.27-.08.42c-1.24,7.61,2.55,19.17,3.65,25,.35,1.87.43,3.16,0,3.57-18.85,17.87-52.12,11.73-66.73,10.93-3.82-.21-6.41-.26-4.06-8.23,3.75-12.72,7.7-39.5,12.4-64.64.16-.89,8.51-29.94,8.51-29.94s11.51-1.75,19.13-2.36"/><path class="cls-14" d="M474.26,314.47h-4c-9.21,0-18.25-.36-22.1-1.36s-18.22-10.77-29.79-22.64h0s2.44-9.34,3.5-10.91,5.2,13.64,14.9,19.83,24.88,10.52,32.25,8.77C474,307,474.46,311.43,474.26,314.47Z"/><path class="cls-7" d="M446.84,305.51s10.09-.58,11.07-.06c1.59.86,7,4.35,7.86,5.37a56.36,56.36,0,0,1,3.08,5.08s-1,.27-1.4-.12-3.73-3.89-3.73-3.89L467.1,317a2.9,2.9,0,0,1-1.63-.57c-.46-.51-3.62-3.72-3.62-3.72l-1.08-.21a11.6,11.6,0,0,1,1.69,1.67,10.07,10.07,0,0,1,1,1.66,8.44,8.44,0,0,1-1.26-.31c-.3-.15-3.14-2.63-3.14-2.63l1.51,2.05a4,4,0,0,1-1.35-.27c-.33-.23-2.54-2.26-2.93-2.25a13.41,13.41,0,0,1-4.42-.76c-1.21-.64-5-2.11-5-2.11Z"/><path class="cls-14" d="M418.41,328.15c-5.34-2.06-23.24-9.31-30.43-16.07-8-7.57-24.72-34.79-24.72-34.79l29.19-7.13s12,17.56,15.45,20.9c2.63,2.57,8.76,2.76,8.76,2.76l-1.6,7.9c-.05.18-.1.36-.14.54s-.05.28-.08.43,0,.28-.07.42C413.52,310.73,417.31,322.28,418.41,328.15Z"/><path class="cls-7" d="M446.85,309.58s-24.76,2.16-38.45,1.55V297.68c9,2.48,38.44,7.83,38.44,7.83Z"/><path class="cls-13" d="M376.26,239.2s-14.17.33-18.55,5.06,4.35,31.49,4.35,31.49,26.4,32.34,39.61,34.62c0,0,5.77.78,8.46.83,0,0-2.64-7.69,2.27-12.52,0,0-5.65-1.58-5.88-2.28S376.26,239.2,376.26,239.2Z"/><path class="cls-7" d="M496.38,314s-13,.49-25.74.43c-3.16-5,.71-11.06.71-11.06h0c11,2.07,22.86,4,22.86,4Z"/><path class="cls-10" d="M497.61,320.5H449.5a3.84,3.84,0,0,1,3.84-3.83h44.27Z"/><polygon class="cls-10" points="571.85 268.11 554.01 320.5 479.15 320.5 497.48 268.11 571.85 268.11"/><polygon class="cls-6" points="571.85 268.11 554.18 320.02 554.01 320.5 480.25 320.5 498.57 268.11 571.85 268.11"/><polygon class="cls-6" points="571.85 268.11 554.18 320.02 520.28 320.02 561.61 268.11 571.85 268.11"/><path class="cls-15" d="M304,480.89h-.15c-.93,0-1.67-1.37-1.65-3l2.49-149.53a.85.85,0,0,1,.68-.83l5.6-1.18a.87.87,0,0,1,1,.87l-6.23,150.69C305.7,479.57,304.93,480.89,304,480.89Z"/><path class="cls-15" d="M599.33,481.42h.15c.93,0,1.67-1.37,1.65-3l-2.5-150.22-7.34-1.54,6.26,151.78C597.61,480.1,598.39,481.42,599.33,481.42Z"/><rect class="cls-16" x="526.54" y="293.07" width="1.4" height="1.4" transform="translate(-53.31 458.85) rotate(-45)"/><rect class="cls-16" x="529.18" y="293.07" width="1.4" height="1.4" transform="translate(-52.53 460.73) rotate(-45)"/><rect class="cls-16" x="527.86" y="294.39" width="1.4" height="1.4" transform="translate(-53.85 460.18) rotate(-45)"/><path class="cls-16" d="M528.56,290.37a3.74,3.74,0,1,0,3.73,3.73A3.74,3.74,0,0,0,528.56,290.37Zm1.65,4.72-1.65,1.65-1.65-1.65-1.32-1.32,1.65-1.65,1.32,1.32,1.32-1.32,1.65,1.65Z"/><path class="cls-17" d="M201.89,367.94s10.66-22.4,8.13-37.21-15.72-11.56-12.1-29.26.36-28.18-10.12-30S177,260.89,169.74,248.9c-6.54-10.84-30.83-7.76-26,15,6.37,30.12,21.31,21.31,26,33.23s-4.52,25.65,2.71,38.3S193,342.11,201.89,367.94Z"/><path class="cls-18" d="M202.24,389.83l-1.43-.18c0-.17,2.11-17.68-2-42.23-3.78-22.64-13.74-56.08-39.75-86.79l1.1-.93c26.24,31,36.28,64.7,40.08,87.53C204.38,372,202.27,389.65,202.24,389.83Z"/><path class="cls-19" d="M210.54,371.36s-9-18.89-6.85-31.38,13.25-9.75,10.2-24.68-.3-23.76,8.53-25.29,9.14-8.93,15.24-19c5.51-9.14,26-6.55,21.93,12.65-5.37,25.4-18,18-21.93,28s3.8,21.63-2.29,32.3S218,349.57,210.54,371.36Z"/><path class="cls-18" d="M210.24,389.81c0-.14-1.8-15.05,1.68-35.92,3.21-19.25,11.68-47.69,33.8-73.82l.93.79c-21.93,25.9-30.33,54.1-33.52,73.19-3.46,20.7-1.7,35.47-1.68,35.61Z"/><polygon class="cls-20" points="227.69 465.36 183.98 465.36 175.05 380.29 236.62 380.29 227.69 465.36"/><polygon class="cls-21" points="177.66 380.29 186.59 465.36 192.48 465.36 183.56 380.29 177.66 380.29"/><polygon class="cls-22" points="236.62 380.29 227.69 465.36 215.86 465.36 224.79 380.29 236.62 380.29"/><polygon class="cls-22" points="235.01 395.58 235.56 390.34 176.11 390.34 176.66 395.58 235.01 395.58"/><rect class="cls-23" x="186.88" y="465.36" width="37.91" height="5.54"/><rect class="cls-22" x="186.88" y="465.36" width="37.91" height="2.77"/><rect class="cls-24" x="172.31" y="378.06" width="67.06" height="12.28"/><rect class="cls-22" x="226.92" y="378.06" width="12.44" height="12.28"/><rect class="cls-21" x="173.86" y="378.06" width="8.32" height="12.28"/><rect class="cls-25" x="555.7" y="318.95" width="14.42" height="1.5" rx="0.22"/><path class="cls-26" d="M570.12,319.17H555.7a.21.21,0,0,1,.21-.22h14A.22.22,0,0,1,570.12,319.17Z"/><path class="cls-27" d="M563.27,319l-.89,1.5h-6.47a.21.21,0,0,1-.21-.22v-1.06a.21.21,0,0,1,.21-.22Z"/><rect class="cls-28" x="555.12" y="317.46" width="14.42" height="1.5" rx="0.22"/><path class="cls-26" d="M569.54,317.67H555.12a.21.21,0,0,1,.22-.21h14A.21.21,0,0,1,569.54,317.67Z"/><path class="cls-29" d="M562.7,317.46l-.9,1.49h-6.46a.22.22,0,0,1-.22-.22v-1.06a.21.21,0,0,1,.22-.21Z"/><path class="cls-30" d="M561,315.46H547.86a4.43,4.43,0,0,1,.65-4c1.84-2.61,6-3.54,9.28-2.07C560.55,310.58,561.81,313.12,561,315.46Z"/><rect class="cls-25" x="571.76" y="319.31" width="14.42" height="1.5" rx="0.22"/><path class="cls-26" d="M586.18,319.53H571.76a.22.22,0,0,1,.22-.22h14A.22.22,0,0,1,586.18,319.53Z"/><path class="cls-27" d="M579.33,319.31l-.89,1.5H572a.22.22,0,0,1-.22-.22v-1.06a.22.22,0,0,1,.22-.22Z"/><rect class="cls-28" x="571.18" y="317.81" width="14.42" height="1.5" rx="0.22"/><path class="cls-26" d="M585.6,318H571.18a.22.22,0,0,1,.22-.22h14A.22.22,0,0,1,585.6,318Z"/><path class="cls-29" d="M578.76,317.81l-.9,1.5H571.4a.22.22,0,0,1-.22-.22V318a.22.22,0,0,1,.22-.22Z"/><rect class="cls-25" x="556.31" y="315.96" width="14.42" height="1.5" rx="0.22"/><path class="cls-26" d="M570.73,316.18H556.31a.22.22,0,0,1,.22-.22h14A.22.22,0,0,1,570.73,316.18Z"/><path class="cls-27" d="M563.89,316l-.9,1.5h-6.46a.22.22,0,0,1-.22-.22v-1.06a.22.22,0,0,1,.22-.22Z"/><rect class="cls-28" x="555.12" y="314.46" width="14.42" height="1.5" rx="0.22"/><path class="cls-26" d="M569.54,314.68H555.12a.22.22,0,0,1,.22-.22h14A.22.22,0,0,1,569.54,314.68Z"/><path class="cls-29" d="M562.7,314.46l-.9,1.5h-6.46a.22.22,0,0,1-.22-.22v-1.06a.22.22,0,0,1,.22-.22Z"/><rect class="cls-25" x="556.31" y="312.97" width="14.42" height="1.5" rx="0.22"/><path class="cls-26" d="M570.73,313.18H556.31a.21.21,0,0,1,.22-.21h14A.21.21,0,0,1,570.73,313.18Z"/><path class="cls-27" d="M563.89,313l-.9,1.49h-6.46a.21.21,0,0,1-.22-.21v-1.07a.21.21,0,0,1,.22-.21Z"/><rect class="cls-25" x="555.7" y="309.97" width="14.42" height="1.5" rx="0.22"/><path class="cls-26" d="M570.12,310.19H555.7a.21.21,0,0,1,.21-.22h14A.22.22,0,0,1,570.12,310.19Z"/><path class="cls-27" d="M563.27,310l-.89,1.5h-6.47a.21.21,0,0,1-.21-.22v-1.06a.21.21,0,0,1,.21-.22Z"/><rect class="cls-28" x="555.26" y="311.47" width="14.42" height="1.5" rx="0.22"/><path class="cls-26" d="M569.68,311.69H555.26a.22.22,0,0,1,.22-.22h14A.22.22,0,0,1,569.68,311.69Z"/><path class="cls-29" d="M562.83,311.47l-.89,1.5h-6.46a.22.22,0,0,1-.22-.22v-1.06a.22.22,0,0,1,.22-.22Z"/><rect class="cls-28" x="554.83" y="308.48" width="14.42" height="1.5" rx="0.22"/><path class="cls-26" d="M569.25,308.7H554.83a.22.22,0,0,1,.22-.22h14A.22.22,0,0,1,569.25,308.7Z"/><path class="cls-29" d="M562.83,308.48l-.17.22-1,1.27h-6.6a.21.21,0,0,1-.22-.21V308.7a.22.22,0,0,1,.22-.22Z"/><path class="cls-31" d="M561.14,314.8v-.19c-.22-2.84-3.17-5.09-6.79-5.09s-6.43,2.12-6.78,4.85l0,0v.72h0c.07,2.94,3.08,5.31,6.8,5.32s6.59-2.24,6.81-5.08h0v0c0-.1,0-.2,0-.31Z"/><ellipse class="cls-32" cx="554.33" cy="314.22" rx="6.81" ry="5.43"/><path class="cls-32" d="M551.35,319.1l6.67-9.44c3,1.54,4,4.7,2.25,7.22S554.57,320.35,551.35,319.1Z"/><path class="cls-29" d="M548.39,311.56c1.57-2.22,4.79-3.22,7.73-2.58l-6.48,9.18A4.67,4.67,0,0,1,548.39,311.56Z"/><ellipse class="cls-33" cx="554.33" cy="314.22" rx="5.18" ry="4.12"/><path class="cls-34" d="M552.2,314.84a.56.56,0,0,0,.09.2,1.77,1.77,0,0,0,.19.23,2.05,2.05,0,0,0,.26.24,2,2,0,0,0,.34.22l.77-1.09-.11-.07a5.35,5.35,0,0,1-.54-.44,2,2,0,0,1-.34-.42.85.85,0,0,1-.09-.44,1,1,0,0,1,.19-.48,1.28,1.28,0,0,1,.46-.41,1.46,1.46,0,0,1,.58-.18,2.07,2.07,0,0,1,.65,0,3,3,0,0,1,.68.21l.39-.55.34.15-.39.56a3.6,3.6,0,0,1,.79.56,2.49,2.49,0,0,1,.54.69l-.69.35a.92.92,0,0,0-.11-.23,1.78,1.78,0,0,0-.23-.28,3.2,3.2,0,0,0-.32-.31,2.33,2.33,0,0,0-.4-.27l-.77,1.08.07.06.07.05c.2.16.36.3.5.43a1.23,1.23,0,0,1,.29.39.68.68,0,0,1,.07.39.84.84,0,0,1-.17.41,1.42,1.42,0,0,1-.44.41,1.5,1.5,0,0,1-.56.2,2,2,0,0,1-.64,0,2.83,2.83,0,0,1-.67-.16l-.38.53-.34-.16.38-.53a2.64,2.64,0,0,1-.7-.49,2.46,2.46,0,0,1-.44-.56Zm2.27.84a.38.38,0,0,0,0-.42,1.78,1.78,0,0,0-.46-.45l-.73,1a1.37,1.37,0,0,0,.7.12A.72.72,0,0,0,554.47,315.68Zm-.68-2.59a.38.38,0,0,0,0,.45,2.49,2.49,0,0,0,.49.5l.74-1a1.6,1.6,0,0,0-.74-.16A.58.58,0,0,0,553.79,313.09Z"/><path class="cls-35" d="M552.4,319.42c3,.71,6.28-.29,7.87-2.54a4.67,4.67,0,0,0-1.36-6.68Z"/><path class="cls-35" d="M549.64,318.16l6.48-9.18a8.52,8.52,0,0,1,1.55.51l.35.17-6.67,9.44L551,319A7.37,7.37,0,0,1,549.64,318.16Z"/><rect class="cls-25" x="572.37" y="316.32" width="14.42" height="1.5" rx="0.22"/><path class="cls-26" d="M586.79,316.53H572.37a.21.21,0,0,1,.22-.21h14A.21.21,0,0,1,586.79,316.53Z"/><path class="cls-27" d="M580,316.32l-.9,1.49h-6.46a.21.21,0,0,1-.22-.21v-1.07a.21.21,0,0,1,.22-.21Z"/><rect class="cls-28" x="571.18" y="314.82" width="14.42" height="1.5" rx="0.22"/><path class="cls-26" d="M585.6,315H571.18a.22.22,0,0,1,.22-.22h14A.22.22,0,0,1,585.6,315Z"/><path class="cls-29" d="M578.76,314.82l-.9,1.5H571.4a.22.22,0,0,1-.22-.22V315a.22.22,0,0,1,.22-.22Z"/><rect class="cls-25" x="572.37" y="313.33" width="14.42" height="1.5" rx="0.22"/><path class="cls-26" d="M586.79,313.54H572.37a.21.21,0,0,1,.22-.21h14A.21.21,0,0,1,586.79,313.54Z"/><path class="cls-27" d="M580,313.33l-.9,1.49h-6.46a.22.22,0,0,1-.22-.22v-1.06a.21.21,0,0,1,.22-.21Z"/><rect class="cls-25" x="571.76" y="310.33" width="14.42" height="1.5" rx="0.22"/><path class="cls-26" d="M586.18,310.55H571.76a.22.22,0,0,1,.22-.22h14A.22.22,0,0,1,586.18,310.55Z"/><path class="cls-27" d="M579.33,310.33l-.89,1.5H572a.22.22,0,0,1-.22-.22v-1.06a.22.22,0,0,1,.22-.22Z"/><rect class="cls-28" x="571.32" y="311.83" width="14.42" height="1.5" rx="0.22"/><path class="cls-26" d="M585.74,312.05H571.32a.22.22,0,0,1,.22-.22h14A.22.22,0,0,1,585.74,312.05Z"/><path class="cls-29" d="M578.9,311.83l-.9,1.5h-6.46a.22.22,0,0,1-.22-.22v-1.06a.22.22,0,0,1,.22-.22Z"/><rect class="cls-28" x="570.89" y="308.84" width="14.42" height="1.5" rx="0.22"/><path class="cls-26" d="M585.31,309.05H570.89a.21.21,0,0,1,.22-.21h14A.21.21,0,0,1,585.31,309.05Z"/><path class="cls-29" d="M578.9,308.84l-.18.21-1,1.28h-6.6a.22.22,0,0,1-.22-.21v-1.07a.21.21,0,0,1,.22-.21Z"/><rect class="cls-25" x="571.32" y="307.34" width="14.42" height="1.5" rx="0.22"/><path class="cls-26" d="M585.75,307.56H571.32a.23.23,0,0,1,.22-.22h14A.23.23,0,0,1,585.75,307.56Z"/><path class="cls-27" d="M578.9,307.34l-.9,1.5h-6.46a.22.22,0,0,1-.22-.22v-1.06a.23.23,0,0,1,.22-.22Z"/><rect class="cls-28" x="570.46" y="305.84" width="14.42" height="1.5" rx="0.22"/><path class="cls-26" d="M584.88,306.06H570.46a.22.22,0,0,1,.22-.22h14A.22.22,0,0,1,584.88,306.06Z"/><path class="cls-29" d="M578.46,305.84l-.17.22-1,1.28h-6.6a.22.22,0,0,1-.22-.22v-1.06a.22.22,0,0,1,.22-.22Z"/><rect class="cls-16" x="323.91" y="146.28" width="31.81" height="16.79" transform="translate(-33.28 140.69) rotate(-22.33)"/><path class="cls-36" d="M349.43,145.45l3.71,9L330.2,163.9l-3.71-9,22.94-9.42Zm1.27-3.07-27.27,11.2L328.92,167l27.27-11.2-5.49-13.38Z"/><path class="cls-36" d="M328,151.72a4.92,4.92,0,0,1-2.67,6.41l-1.87-4.55Z"/><path class="cls-36" d="M346.16,144.25a4.91,4.91,0,0,0,6.41,2.68l-1.87-4.55Z"/><path class="cls-36" d="M333.46,165.1a4.91,4.91,0,0,0-6.4-2.68l1.86,4.54Z"/><path class="cls-36" d="M351.65,157.63a4.91,4.91,0,0,1,2.68-6.41l1.86,4.54Z"/><path class="cls-36" d="M333.87,157.24a2.32,2.32,0,1,0-1.27,3A2.32,2.32,0,0,0,333.87,157.24Z"/><path class="cls-36" d="M343.83,153a4.33,4.33,0,1,0-2.36,5.65A4.34,4.34,0,0,0,343.83,153Z"/><path class="cls-36" d="M349.37,150.87a2.33,2.33,0,1,0-1.27,3A2.34,2.34,0,0,0,349.37,150.87Z"/><path class="cls-37" d="M337.63,154.15a1.31,1.31,0,0,1,.81-1.88l-.24-.59.65-.27.24.59a6.22,6.22,0,0,1,1.28-.28l.36.88c-.43.13-1.18.4-1.51.54s-.59.27-.43.65l.07.17c.12.29.29.36.65.22l.55-.23a1.32,1.32,0,0,1,1.8.87l.12.29a1.34,1.34,0,0,1-.79,2l.23.57-.65.27-.24-.58a3.56,3.56,0,0,1-1.28.29l-.36-.87c.28-.09,1-.32,1.61-.58.29-.12.5-.29.37-.58l-.08-.2c-.1-.25-.24-.36-.57-.23l-.53.22a1.35,1.35,0,0,1-1.89-.84Z"/><path class="cls-38" d="M334.88,140.81a7.33,7.33,0,0,0,4.17,9.49l5.31-13.66A7.32,7.32,0,0,0,334.88,140.81Z"/><path class="cls-39" d="M343,136.13a7.33,7.33,0,1,0,4.17,9.48A7.33,7.33,0,0,0,343,136.13Z"/><path class="cls-38" d="M334.7,140.74a6.09,6.09,0,0,0,3.47,7.89l4.42-11.35A6.09,6.09,0,0,0,334.7,140.74Z"/><path class="cls-40" d="M342.59,137.28l-4.42,11.35a6.09,6.09,0,1,0,4.42-11.35Z"/><path class="cls-39" d="M338.71,140.38a1.79,1.79,0,0,1,2.57-1.1l.31-.8.9.35-.32.81a7.52,7.52,0,0,1,1.53.92l-.47,1.21c-.55-.28-1.54-.72-2-.9s-.83-.28-1,.25l-.09.23c-.15.4-.05.64.45.83l.75.29a1.8,1.8,0,0,1,.95,2.56l-.15.39a1.83,1.83,0,0,1-2.65,1.23l-.31.77-.89-.34.3-.79a5.21,5.21,0,0,1-1.54-.93l.47-1.19c.36.17,1.27.6,2.14.94.4.15.76.18.91-.23l.11-.27c.13-.34.1-.58-.36-.76l-.73-.29a1.83,1.83,0,0,1-1.07-2.6Z"/><g class="cls-41"><path class="cls-39" d="M341.31,135.69l-6.92,3a7.41,7.41,0,0,0-.83,1.55l9.46-4.16A6.92,6.92,0,0,0,341.31,135.69Z"/><path class="cls-39" d="M345.25,137.48l-12.2,5.36a7.34,7.34,0,0,0,1,3.84l13.32-5.86A7.32,7.32,0,0,0,345.25,137.48Z"/></g><path class="cls-6" d="M337.92,142.52a5.6,5.6,0,0,0-5.73-5.44l-18.55,0-18.55,0a5.61,5.61,0,0,0-5.71,5.46l.12,43.91a5.6,5.6,0,0,0,5.73,5.44l18.54,0,18.56,0a5.59,5.59,0,0,0,5.7-5.46Z"/><path class="cls-42" d="M332.11,161.15h-4.22a4.08,4.08,0,0,0-4.08,4.08v18.06a4.08,4.08,0,0,0,4.08,4.08h4.22a4.08,4.08,0,0,0,4.08-4.08V165.23A4.08,4.08,0,0,0,332.11,161.15Z"/><rect class="cls-42" x="292.93" y="161.15" width="12.37" height="12.37" rx="4.08"/><path class="cls-42" d="M305.3,183.29a4.08,4.08,0,0,1-4.08,4.08H297a4.08,4.08,0,0,1-4.08-4.08v-4.21A4.08,4.08,0,0,1,297,175h4.21a4.08,4.08,0,0,1,4.08,4.08Z"/><rect class="cls-42" x="308.29" y="161.15" width="12.38" height="12.37" rx="4.08"/><path class="cls-42" d="M320.67,183.29a4.08,4.08,0,0,1-4.08,4.08h-4.22a4.08,4.08,0,0,1-4.08-4.08v-4.21a4.08,4.08,0,0,1,4.08-4.08h4.22a4.08,4.08,0,0,1,4.08,4.08Z"/><path class="cls-16" d="M330.53,161.15h-4.21a4.08,4.08,0,0,0-4.07,4.08v18.06a4.07,4.07,0,0,0,4.07,4.08h4.21a4.07,4.07,0,0,0,4.08-4.08V165.23A4.08,4.08,0,0,0,330.53,161.15Z"/><rect class="cls-16" x="291.36" y="161.15" width="12.37" height="12.37" rx="4.08"/><path class="cls-16" d="M303.73,183.29a4.08,4.08,0,0,1-4.08,4.08h-4.21a4.07,4.07,0,0,1-4.08-4.08v-4.21a4.08,4.08,0,0,1,4.08-4.08h4.21a4.08,4.08,0,0,1,4.08,4.08Z"/><rect class="cls-16" x="306.72" y="161.15" width="12.37" height="12.37" rx="4.08"/><rect class="cls-16" x="306.72" y="175" width="12.37" height="12.37" rx="4.08"/><path class="cls-10" d="M293.57,166.06h2.68v-2.69h2.55v2.69h2.72v2.56H298.8v2.69h-2.55v-2.69h-2.68Z"/><path class="cls-10" d="M293.84,183.08l1.89-1.89-1.91-1.9,1.81-1.81,1.91,1.91,1.91-1.92,1.81,1.81-1.92,1.91,1.91,1.91-1.81,1.81-1.9-1.9-1.89,1.88Z"/><path class="cls-10" d="M309.06,166.06h7.7v2.56h-7.7Z"/><path class="cls-14" d="M325,171.42h6.93v2.17H325Zm0,3.52h6.93v2.17H325Z"/><path class="cls-10" d="M309.06,179.91h7.7v2.56h-7.7Z"/><path class="cls-10" d="M314.1,177.8a1.19,1.19,0,1,0-1.19,1.19A1.19,1.19,0,0,0,314.1,177.8Z"/><path class="cls-10" d="M314.1,184.58a1.19,1.19,0,1,0-1.19,1.19A1.19,1.19,0,0,0,314.1,184.58Z"/><path class="cls-43" d="M335.35,150a4.14,4.14,0,0,1-4.14,4.14h-35a4.14,4.14,0,0,1-4.14-4.14v-5a4.14,4.14,0,0,1,4.14-4.14h35a4.14,4.14,0,0,1,4.14,4.14Z"/><path class="cls-43" d="M334.73,142.84a4.11,4.11,0,0,0-2.87-1.18h-35a4.15,4.15,0,0,0-4.15,4.14v5a4.16,4.16,0,0,0,.61,2.17,4.15,4.15,0,0,1-1.26-3v-5a4.15,4.15,0,0,1,4.14-4.14h35A4.11,4.11,0,0,1,334.73,142.84Z"/><path class="cls-43" d="M302,140.87l-9.87,9.87a4.16,4.16,0,0,0,1.5,2.52L306,140.87Z"/><polygon class="cls-43" points="310.78 140.87 297.47 154.18 313.82 154.18 327.12 140.87 310.78 140.87"/><path class="cls-16" d="M314.33,150.51h3c.71,0,.67-.38.67-.6v-.36c0-.37-.11-.6-.54-.6H317c-.36,0-.5.16-.5.51h-2.11l.25-5.29h5.27v2h-3.12l-.05,1.16a1.7,1.7,0,0,1,.74-.23,8.28,8.28,0,0,1,.87,0,2,2,0,0,1,1.91,2.23v1.07a2.11,2.11,0,0,1-2.31,2.17,17.2,17.2,0,0,1-3.58-.27Z"/><path class="cls-16" d="M323,144.16a11.62,11.62,0,0,1,3.78.23v1.69h-2.49c-1,0-1,.61-1,1.45a3.44,3.44,0,0,1,1.74-.24c1.66,0,2.06.91,2.06,2.15v1c0,1.48-.85,2-2.17,2h-1.57c-1.39,0-2.27-.79-2.27-4.38C321,145.11,322,144.31,323,144.16Zm1.16,6.37h.19c.38,0,.49-.1.49-.52v-.23c0-.49,0-.63-.43-.63h-1.16C323.22,150.36,323.39,150.53,324.13,150.53Z"/><path class="cls-16" d="M327.58,144.17h5.48l.54.88L331,152.5h-2.35l2.26-6.35h-3.32Z"/><rect class="cls-44" x="480.23" y="173.11" width="13.54" height="29.85" transform="translate(-0.35 0.92) rotate(-0.11)"/><rect class="cls-45" x="496.43" y="160.08" width="13.54" height="42.85" transform="translate(-0.38 1.05) rotate(-0.12)"/><rect class="cls-6" x="512.63" y="142.96" width="13.53" height="59.94" transform="translate(-0.36 1.09) rotate(-0.12)"/><rect class="cls-6" x="528.85" y="155.14" width="13.53" height="47.73" transform="translate(-0.35 1.05) rotate(-0.11)"/><rect class="cls-46" x="546" y="149.1" width="13.54" height="53.73" transform="translate(-0.35 1.1) rotate(-0.11)"/><path class="cls-47" d="M561.06,132.25,550,133.86l2.07,2.63a1.63,1.63,0,0,0-.52.19l-14.41,8.72-18.07-14.85a2.17,2.17,0,0,0-2.94.18l-33.57,35.15a2.17,2.17,0,0,0,1.57,3.66,2.22,2.22,0,0,0,1.56-.67l32.18-33.7,17.71,14.55a2.17,2.17,0,0,0,2.49.18l15.72-9.53a2,2,0,0,0,.73-.79l2.41,3.07Z"/><path class="cls-48" d="M569,213.82l-98.76.19a2.16,2.16,0,0,1-2.17-2.15L468,141.21a2.16,2.16,0,1,1,4.32,0l.13,68.47,96.6-.18a2.16,2.16,0,0,1,0,4.32Z"/><rect class="cls-25" x="588.24" y="318.7" width="14.42" height="1.5" rx="0.22"/><path class="cls-26" d="M602.66,318.92H588.24a.22.22,0,0,1,.22-.22h14A.21.21,0,0,1,602.66,318.92Z"/><path class="cls-27" d="M595.82,318.7l-.9,1.5h-6.46a.22.22,0,0,1-.22-.22v-1.06a.22.22,0,0,1,.22-.22Z"/><rect class="cls-28" x="587.05" y="317.21" width="14.42" height="1.5" rx="0.22"/><path class="cls-26" d="M601.47,317.42H587.05a.21.21,0,0,1,.22-.21h14A.21.21,0,0,1,601.47,317.42Z"/><path class="cls-29" d="M594.63,317.21l-.9,1.49h-6.46a.22.22,0,0,1-.22-.22v-1.06a.21.21,0,0,1,.22-.21Z"/><rect class="cls-25" x="588.24" y="315.71" width="14.42" height="1.5" rx="0.22"/><path class="cls-26" d="M602.66,315.93H588.24a.22.22,0,0,1,.22-.22h14A.21.21,0,0,1,602.66,315.93Z"/><path class="cls-27" d="M595.82,315.71l-.9,1.5h-6.46a.22.22,0,0,1-.22-.22v-1.06a.22.22,0,0,1,.22-.22Z"/><rect class="cls-25" x="587.63" y="312.72" width="14.42" height="1.5" rx="0.22"/><path class="cls-26" d="M602.05,312.93H587.63a.21.21,0,0,1,.22-.21h14A.21.21,0,0,1,602.05,312.93Z"/><path class="cls-27" d="M595.2,312.72l-.89,1.49h-6.46a.21.21,0,0,1-.22-.21v-1.07a.21.21,0,0,1,.22-.21Z"/><rect class="cls-28" x="587.19" y="314.21" width="14.42" height="1.5" rx="0.22"/><path class="cls-26" d="M601.61,314.43H587.19a.22.22,0,0,1,.22-.22h14A.22.22,0,0,1,601.61,314.43Z"/><path class="cls-29" d="M594.77,314.21l-.9,1.5h-6.46a.22.22,0,0,1-.22-.22v-1.06a.22.22,0,0,1,.22-.22Z"/><rect class="cls-28" x="586.76" y="311.22" width="14.42" height="1.5" rx="0.22"/><path class="cls-26" d="M601.18,311.44H586.76a.22.22,0,0,1,.22-.22h14A.22.22,0,0,1,601.18,311.44Z"/><path class="cls-29" d="M594.76,311.22l-.17.22-1,1.28H587a.22.22,0,0,1-.22-.22v-1.06a.22.22,0,0,1,.22-.22Z"/><rect class="cls-25" x="604.3" y="319.06" width="14.42" height="1.5" rx="0.22"/><path class="cls-26" d="M618.73,319.28H604.3a.23.23,0,0,1,.22-.22h14A.23.23,0,0,1,618.73,319.28Z"/><path class="cls-27" d="M611.88,319.06l-.9,1.5h-6.46a.22.22,0,0,1-.22-.22v-1.06a.23.23,0,0,1,.22-.22Z"/><rect class="cls-28" x="603.11" y="317.56" width="14.42" height="1.5" rx="0.22"/><path class="cls-26" d="M617.53,317.78H603.11a.22.22,0,0,1,.22-.22h14A.21.21,0,0,1,617.53,317.78Z"/><path class="cls-29" d="M610.69,317.56l-.9,1.5h-6.46a.22.22,0,0,1-.22-.22v-1.06a.22.22,0,0,1,.22-.22Z"/><rect class="cls-25" x="604.3" y="316.07" width="14.42" height="1.5" rx="0.22"/><path class="cls-26" d="M618.73,316.29H604.3a.22.22,0,0,1,.22-.22h14A.22.22,0,0,1,618.73,316.29Z"/><path class="cls-27" d="M611.88,316.07l-.9,1.49h-6.46a.21.21,0,0,1-.22-.21v-1.06a.22.22,0,0,1,.22-.22Z"/><rect class="cls-25" x="603.69" y="313.08" width="14.42" height="1.5" rx="0.22"/><path class="cls-26" d="M618.11,313.29H603.69a.21.21,0,0,1,.22-.21h14A.21.21,0,0,1,618.11,313.29Z"/><path class="cls-27" d="M611.27,313.08l-.9,1.49h-6.46a.22.22,0,0,1-.22-.22v-1.06a.21.21,0,0,1,.22-.21Z"/><rect class="cls-28" x="603.25" y="314.57" width="14.42" height="1.5" rx="0.22"/><path class="cls-26" d="M617.67,314.79H603.25a.22.22,0,0,1,.22-.22h14A.22.22,0,0,1,617.67,314.79Z"/><path class="cls-29" d="M610.83,314.57l-.9,1.5h-6.46a.22.22,0,0,1-.22-.22v-1.06a.22.22,0,0,1,.22-.22Z"/><rect class="cls-28" x="602.82" y="311.58" width="14.42" height="1.5" rx="0.22"/><path class="cls-26" d="M617.24,311.8H602.82a.22.22,0,0,1,.22-.22h14A.22.22,0,0,1,617.24,311.8Z"/><path class="cls-29" d="M610.83,311.58l-.17.22-1,1.28H603a.22.22,0,0,1-.22-.22V311.8a.22.22,0,0,1,.22-.22Z"/><rect class="cls-25" x="603.26" y="310.08" width="14.42" height="1.5" rx="0.22"/><path class="cls-26" d="M617.68,310.3H603.26a.21.21,0,0,1,.21-.22h14A.22.22,0,0,1,617.68,310.3Z"/><path class="cls-27" d="M610.83,310.08l-.89,1.5h-6.47a.21.21,0,0,1-.21-.22V310.3a.21.21,0,0,1,.21-.22Z"/><rect class="cls-28" x="602.39" y="308.59" width="14.42" height="1.5" rx="0.22"/><path class="cls-26" d="M616.81,308.8H602.39a.21.21,0,0,1,.22-.21h14A.21.21,0,0,1,616.81,308.8Z"/><path class="cls-29" d="M610.39,308.59l-.17.21-1,1.28h-6.6a.22.22,0,0,1-.22-.22V308.8a.21.21,0,0,1,.22-.21Z"/><rect class="cls-45" x="241.68" y="320.02" width="417.49" height="11.72"/></g></g></svg>