<?xml version="1.0"?>
<svg xmlns="http://www.w3.org/2000/svg" xmlns:xlink="http://www.w3.org/1999/xlink" xmlns:svgjs="http://svgjs.com/svgjs" version="1.1" width="512" height="512" x="0" y="0" viewBox="0 0 512 512" style="enable-background:new 0 0 512 512" xml:space="preserve"><g><path xmlns="http://www.w3.org/2000/svg" d="M336,303H473a6,6,0,0,0,6-6V263a6,6,0,0,0-6-6H336a6,6,0,0,0-6,6v34A6,6,0,0,0,336,303Zm6-34H466v22H342Z" fill="#288ed9" data-original="#000000" style=""/><path xmlns="http://www.w3.org/2000/svg" d="M388,378h32a6,6,0,0,0,6-6V343a6,6,0,0,0-6-6H388a6,6,0,0,0-6,6v29A6,6,0,0,0,388,378Zm6-29h20v17H394Z" fill="#288ed9" data-original="#000000" style=""/><path xmlns="http://www.w3.org/2000/svg" d="M388,429h32a6,6,0,0,0,6-6V394a6,6,0,0,0-6-6H388a6,6,0,0,0-6,6v29A6,6,0,0,0,388,429Zm6-29h20v18H394Z" fill="#288ed9" data-original="#000000" style=""/><path xmlns="http://www.w3.org/2000/svg" d="M388,481h32a6,6,0,0,0,6-6V446a6,6,0,0,0-6-6H388a6,6,0,0,0-6,6v29A6,6,0,0,0,388,481Zm6-29h20v17H394Z" fill="#288ed9" data-original="#000000" style=""/><path xmlns="http://www.w3.org/2000/svg" d="M338,378h32a6,6,0,0,0,6-6V343a6,6,0,0,0-6-6H338a6,6,0,0,0-6,6v29A6,6,0,0,0,338,378Zm6-29h19v17H344Z" fill="#288ed9" data-original="#000000" style=""/><path xmlns="http://www.w3.org/2000/svg" d="M338,429h32a6,6,0,0,0,6-6V394a6,6,0,0,0-6-6H338a6,6,0,0,0-6,6v29A6,6,0,0,0,338,429Zm6-29h19v18H344Z" fill="#288ed9" data-original="#000000" style=""/><path xmlns="http://www.w3.org/2000/svg" d="M338,481h32a6,6,0,0,0,6-6V446a6,6,0,0,0-6-6H338a6,6,0,0,0-6,6v29A6,6,0,0,0,338,481Zm6-29h19v17H344Z" fill="#288ed9" data-original="#000000" style=""/><path xmlns="http://www.w3.org/2000/svg" d="M439,378h32a6,6,0,0,0,6-6V343a6,6,0,0,0-6-6H439a6,6,0,0,0-6,6v29A6,6,0,0,0,439,378Zm6-29h19v17H445Z" fill="#288ed9" data-original="#000000" style=""/><path xmlns="http://www.w3.org/2000/svg" d="M439,429h32a6,6,0,0,0,6-6V394a6,6,0,0,0-6-6H439a6,6,0,0,0-6,6v29A6,6,0,0,0,439,429Zm6-29h19v18H445Z" fill="#288ed9" data-original="#000000" style=""/><path xmlns="http://www.w3.org/2000/svg" d="M439,481h32a6,6,0,0,0,6-6V446a6,6,0,0,0-6-6H439a6,6,0,0,0-6,6v29A6,6,0,0,0,439,481Zm6-29h19v17H445Z" fill="#288ed9" data-original="#000000" style=""/><path xmlns="http://www.w3.org/2000/svg" d="M11.98,472H302v4.676A26.4,26.4,0,0,0,328.324,503h151.7A25.98,25.98,0,0,0,506,477.02V258.285A26.362,26.362,0,0,0,479.715,232H359V15.29A6.462,6.462,0,0,0,352.76,9H78.785a6.146,6.146,0,0,0-4.331,1.992L7.659,80.75A6.165,6.165,0,0,0,6,84.975V466.131A5.873,5.873,0,0,0,11.98,472ZM480.02,244A13.98,13.98,0,0,1,494,257.98V311H314V258.285A14.327,14.327,0,0,1,328.285,244ZM73,30.218V79H25.922ZM18,91H78.785A6.1,6.1,0,0,0,85,85.1V21H347V232H328.324A26.4,26.4,0,0,0,302,258.324V353a6,6,0,0,0,12,0V323H494V476.71A14.331,14.331,0,0,1,479.71,491H328.324A14.366,14.366,0,0,1,314,476.676V395a6,6,0,0,0-12,0v65H18Z" fill="#288ed9" data-original="#000000" style=""/><path xmlns="http://www.w3.org/2000/svg" d="M84.531,397H82.185a6,6,0,0,0,0,12h2.346a6,6,0,0,0,0-12Z" fill="#288ed9" data-original="#000000" style=""/><path xmlns="http://www.w3.org/2000/svg" d="M125.676,397H107.947a6,6,0,0,0,0,12h17.729a6,6,0,0,0,0-12Z" fill="#288ed9" data-original="#000000" style=""/><path xmlns="http://www.w3.org/2000/svg" d="M276.556,397H149.471a6,6,0,0,0,0,12H276.556a6,6,0,1,0,0-12Z" fill="#288ed9" data-original="#000000" style=""/><path xmlns="http://www.w3.org/2000/svg" d="M84.531,347H82.185a6,6,0,0,0,0,12h2.346a6,6,0,0,0,0-12Z" fill="#288ed9" data-original="#000000" style=""/><path xmlns="http://www.w3.org/2000/svg" d="M125.676,347H107.947a6,6,0,0,0,0,12h17.729a6,6,0,0,0,0-12Z" fill="#288ed9" data-original="#000000" style=""/><path xmlns="http://www.w3.org/2000/svg" d="M276.556,347H149.471a6,6,0,0,0,0,12H276.556a6,6,0,1,0,0-12Z" fill="#288ed9" data-original="#000000" style=""/><path xmlns="http://www.w3.org/2000/svg" d="M39,109.66a6,6,0,0,0-6,6v7.08a6,6,0,1,0,12,0v-7.08A6,6,0,0,0,39,109.66Z" fill="#288ed9" data-original="#000000" style=""/><path xmlns="http://www.w3.org/2000/svg" d="M39,140.583a6,6,0,0,0-6,6v98.389a6,6,0,0,0,12,0V146.583A6,6,0,0,0,39,140.583Z" fill="#288ed9" data-original="#000000" style=""/><path xmlns="http://www.w3.org/2000/svg" d="M182.915,85.7A111.906,111.906,0,0,0,91.3,128.494a6,6,0,0,0,9.377,7.472,100.944,100.944,0,0,1,15.952-16.15l57.345,85.045c1.116,1.65,2.978,3.139,4.971,3.139H278.9A100.065,100.065,0,1,1,82.834,171.352a6.013,6.013,0,0,0-2.821-6.848L80,164.5a5.989,5.989,0,0,0-8.716,3.6,111.842,111.842,0,0,0-3.94,32.535c1.568,61.139,52.583,110.051,113.735,109.134a112.192,112.192,0,0,0,110.3-115.84C289.427,135.164,241.68,87.523,182.915,85.7Zm-56.692,27.257a99.727,99.727,0,0,1,119.54,10.036l-66.387,68.913ZM192.094,196l62.142-64.506A99.661,99.661,0,0,1,279.419,196Z" fill="#288ed9" data-original="#000000" style=""/></g></svg>
