<?xml version="1.0"?>
<svg xmlns="http://www.w3.org/2000/svg" xmlns:xlink="http://www.w3.org/1999/xlink" xmlns:svgjs="http://svgjs.com/svgjs" version="1.1" width="512" height="512" x="0" y="0" viewBox="0 0 512 512" style="enable-background:new 0 0 512 512" xml:space="preserve"><g><path xmlns="http://www.w3.org/2000/svg" d="m512 48c0-26.468-21.533-48-48-48h-416c-26.467 0-48 21.532-48 48v96c0 12.285 4.644 23.501 12.261 32-7.617 8.499-12.261 19.715-12.261 32v96c0 12.285 4.644 23.501 12.261 32-7.617 8.499-12.261 19.715-12.261 32v96c0 26.468 21.533 48 48 48h416c26.467 0 48-21.532 48-48v-96c0-12.285-4.644-23.501-12.261-32 7.618-8.499 12.261-19.715 12.261-32v-96c0-12.285-4.644-23.501-12.261-32 7.618-8.499 12.261-19.715 12.261-32zm-480 0c0-8.822 7.178-16 16-16h416c8.822 0 16 7.178 16 16v96c0 8.822-7.178 16-16 16h-416c-8.822 0-16-7.178-16-16zm448 160v96c0 8.822-7.178 16-16 16h-416c-8.822 0-16-7.178-16-16v-96c0-8.822 7.178-16 16-16h416c8.822 0 16 7.178 16 16zm0 256c0 8.822-7.178 16-16 16h-416c-8.822 0-16-7.178-16-16v-96c0-8.822 7.178-16 16-16h416c8.822 0 16 7.178 16 16z" fill="#288ed9" data-original="#000000" style=""/><path xmlns="http://www.w3.org/2000/svg" d="m432 128c8.836 0 16-7.163 16-16v-32c0-8.837-7.164-16-16-16s-16 7.163-16 16v32c0 8.837 7.164 16 16 16z" fill="#288ed9" data-original="#000000" style=""/><path xmlns="http://www.w3.org/2000/svg" d="m368 128c8.836 0 16-7.163 16-16v-32c0-8.837-7.164-16-16-16s-16 7.163-16 16v32c0 8.837 7.164 16 16 16z" fill="#288ed9" data-original="#000000" style=""/><path xmlns="http://www.w3.org/2000/svg" d="m176 112h128c8.836 0 16-7.163 16-16s-7.164-16-16-16h-128c-8.836 0-16 7.163-16 16s7.164 16 16 16z" fill="#288ed9" data-original="#000000" style=""/><path xmlns="http://www.w3.org/2000/svg" d="m96 288c17.645 0 32-14.355 32-32s-14.355-32-32-32-32 14.355-32 32 14.355 32 32 32z" fill="#288ed9" data-original="#000000" style=""/><path xmlns="http://www.w3.org/2000/svg" d="m96 384c-17.645 0-32 14.355-32 32s14.355 32 32 32 32-14.355 32-32-14.355-32-32-32z" fill="#288ed9" data-original="#000000" style=""/><path xmlns="http://www.w3.org/2000/svg" d="m96 128c17.645 0 32-14.355 32-32s-14.355-32-32-32-32 14.355-32 32 14.355 32 32 32z" fill="#288ed9" data-original="#000000" style=""/><path xmlns="http://www.w3.org/2000/svg" d="m432 288c8.836 0 16-7.163 16-16v-32c0-8.837-7.164-16-16-16s-16 7.163-16 16v32c0 8.837 7.164 16 16 16z" fill="#288ed9" data-original="#000000" style=""/><path xmlns="http://www.w3.org/2000/svg" d="m368 288c8.836 0 16-7.163 16-16v-32c0-8.837-7.164-16-16-16s-16 7.163-16 16v32c0 8.837 7.164 16 16 16z" fill="#288ed9" data-original="#000000" style=""/><path xmlns="http://www.w3.org/2000/svg" d="m176 272h128c8.836 0 16-7.163 16-16s-7.164-16-16-16h-128c-8.836 0-16 7.163-16 16s7.164 16 16 16z" fill="#288ed9" data-original="#000000" style=""/><path xmlns="http://www.w3.org/2000/svg" d="m432 384c-8.836 0-16 7.163-16 16v32c0 8.837 7.164 16 16 16s16-7.163 16-16v-32c0-8.837-7.164-16-16-16z" fill="#288ed9" data-original="#000000" style=""/><path xmlns="http://www.w3.org/2000/svg" d="m368 384c-8.836 0-16 7.163-16 16v32c0 8.837 7.164 16 16 16s16-7.163 16-16v-32c0-8.837-7.164-16-16-16z" fill="#288ed9" data-original="#000000" style=""/><path xmlns="http://www.w3.org/2000/svg" d="m304 400h-128c-8.836 0-16 7.163-16 16s7.164 16 16 16h128c8.836 0 16-7.163 16-16s-7.164-16-16-16z" fill="#288ed9" data-original="#000000" style=""/></g></svg>
