<svg xmlns="http://www.w3.org/2000/svg" xmlns:xlink="http://www.w3.org/1999/xlink" viewBox="0 0 926.97 652.24"><defs><style>.cls-1{isolation:isolate;}.cls-2{fill:url(#linear-gradient);}.cls-3{fill:#005984;}.cls-4{fill:#f7a38d;}.cls-5{fill:#1072c2;}.cls-6{fill:#3b89d2;}.cls-7{fill:url(#linear-gradient-2);}.cls-34,.cls-42,.cls-8{opacity:0.2;}.cls-9{fill:#37b5e8;}.cls-10{fill:#ffe7cb;}.cls-11{fill:#0a316d;}.cls-12{fill:#ae2924;}.cls-13{fill:#1d3865;}.cls-14{fill:#0e4696;}.cls-15{fill:#edd7c0;}.cls-16{fill:#1e54b5;}.cls-17{fill:#fabb94;}.cls-18{fill:#bfc4c9;}.cls-19{fill:#98a1a8;}.cls-20{fill:#005284;}.cls-21{fill:#56bbed;}.cls-22{fill:#2793d6;}.cls-23{fill:#ffa97d;}.cls-24{fill:#ffbc98;}.cls-25{fill:url(#linear-gradient-3);}.cls-26{fill:#1b1b35;}.cls-27{fill:url(#linear-gradient-4);}.cls-28{fill:url(#linear-gradient-5);}.cls-29,.cls-30{fill:#d3c2be;opacity:0.5;}.cls-29{mix-blend-mode:screen;}.cls-30,.cls-34,.cls-40{mix-blend-mode:multiply;}.cls-31{fill:url(#linear-gradient-6);}.cls-32{fill:url(#linear-gradient-7);}.cls-33{fill:#0053cc;}.cls-35{fill:#0f264c;}.cls-36{fill:#0050af;}.cls-37{fill:#4ea4f9;}.cls-38,.cls-40{fill:#0d6ab7;}.cls-39{fill:#197bdd;}.cls-40{opacity:0.6;}.cls-41{fill:#2b97ef;}.cls-42{fill:#fff;}.cls-43{fill:#21e2e2;}.cls-44{fill:#64b9ff;}</style><linearGradient id="linear-gradient" x1="4092.14" y1="-1370.43" x2="4371.41" y2="-1370.43" gradientTransform="matrix(-0.02, 0.5, -1.66, -0.07, -1703.98, -1748.41)" gradientUnits="userSpaceOnUse"><stop offset="0" stop-color="#288ed9"/><stop offset="1" stop-color="#137fcf" stop-opacity="0.05"/></linearGradient><linearGradient id="linear-gradient-2" x1="294.22" y1="470.27" x2="541.59" y2="470.27" gradientTransform="matrix(-1, 0, 0, 1, 875.31, 0)" gradientUnits="userSpaceOnUse"><stop offset="0" stop-color="#233862"/><stop offset="1" stop-color="#137fcf" stop-opacity="0.05"/></linearGradient><linearGradient id="linear-gradient-3" x1="703.74" y1="279.6" x2="780.76" y2="279.6" gradientUnits="userSpaceOnUse"><stop offset="0" stop-color="#ffbc98"/><stop offset="1" stop-color="#ff9f6c"/></linearGradient><linearGradient id="linear-gradient-4" x1="772.69" y1="294.72" x2="837.64" y2="294.72" gradientUnits="userSpaceOnUse"><stop offset="0" stop-color="#44989f"/><stop offset="0.21" stop-color="#39b0b4"/><stop offset="0.52" stop-color="#2ccbcd"/><stop offset="0.8" stop-color="#24dcdd"/><stop offset="1" stop-color="#21e2e2"/></linearGradient><linearGradient id="linear-gradient-5" x1="740.31" y1="413.95" x2="810.75" y2="413.95" xlink:href="#linear-gradient-3"/><linearGradient id="linear-gradient-6" x1="753.84" y1="465.79" x2="797.21" y2="465.79" xlink:href="#linear-gradient-3"/><linearGradient id="linear-gradient-7" x1="737.16" y1="369.75" x2="813.89" y2="369.75" xlink:href="#linear-gradient-3"/></defs><g class="cls-1"><g id="Layer_1" data-name="Layer 1"><path id="Path_5765" data-name="Path 5765" class="cls-2" d="M612.83,471.49c-21.25,8.67-29.44,20.09-32.08,29.91-6.32,23.55-80.08,37.52-157.4,29.24L417.7,530c-6.9-.78-13.65-1.74-20.12-2.89-148.2-26.19-224.4-79.49-129.83-107.34C429.06,372.27,902.36,403.69,638,463.86A163.82,163.82,0,0,0,612.83,471.49Z"/><path class="cls-3" d="M599.25,261.51c4.06-16.22,6.12-24.07,8.61-25.45,5.22-2.9,35.45-.85,38.88-.62a1.25,1.25,0,0,1,1.15,1.33,1.3,1.3,0,0,1-1.33,1.16c-13.18-.93-34-1.61-37.5.31-1.68,1-4.71,13.16-7.39,23.87-4.71,18.8-10.56,42.21-18.78,55.67-27.27,44.68-27.61,58.92-25.38,63.43a4.9,4.9,0,0,0,4.25,2.73c4.31.47,7.77-.53,10.27-2.93,5.46-5.24,4.89-15.55,4.88-15.66a1.24,1.24,0,0,1,1.17-1.32,1.34,1.34,0,0,1,1.32,1.17c0,.46.65,11.55-5.64,17.6a13.89,13.89,0,0,1-10,3.74,21.92,21.92,0,0,1-2.25-.12,7.4,7.4,0,0,1-6.22-4.11c-4.36-8.83,4.21-31,25.49-65.83C588.79,303.34,594.84,279.16,599.25,261.51Z"/><path class="cls-4" d="M571.73,316.44c4.17-9.84,8.33-20,12.36-29.86,12.6-30.83,19.91-48.38,23.77-50.52,5.22-2.9,35.45-.85,38.88-.62a1.25,1.25,0,0,1,1.15,1.33,1.3,1.3,0,0,1-1.33,1.16c-13.18-.93-34-1.61-37.5.31-3.27,1.81-13.13,25.95-22.67,49.29-4,9.85-8.19,20-12.37,29.88L570.36,326c-16,37.56-34.19,80.13-25.65,95.78,1.84,3.36,4.81,5.35,9.09,6.07,16.37,2.77,21.94-18.6,22.17-19.52a1.24,1.24,0,0,1,1.52-.9,1.26,1.26,0,0,1,.9,1.52c-.06.23-5.66,21.64-21.75,21.64a19.67,19.67,0,0,1-3.26-.28c-5-.85-8.66-3.32-10.85-7.33-9.12-16.71,8.5-58,25.54-98Z"/><path class="cls-5" d="M365.45,468.29h-.19c-1.11,0-2-2.05-2-4.56l3-226.5,8.86-2.32-7.55,228.85C367.52,466.3,366.58,468.29,365.45,468.29Z"/><path class="cls-5" d="M698.94,470.05h.19c1.11,0,2-2.07,2-4.58l-3-226.43a1.28,1.28,0,0,0-.82-1.26L690.55,236c-.66-.18-1.27.47-1.25,1.31l7.51,228.17C696.87,468.05,697.81,470.05,698.94,470.05Z"/><path class="cls-3" d="M581.08,316.14c17.16-13.08,26.32-51.38,27.42-69,.47-7.64-.6-8.9-.58-8.9h0C566.84,218.74,569.8,196,570,195a1.24,1.24,0,0,1,1.41-1,1.26,1.26,0,0,1,1,1.41c0,.22-2.68,22,36.58,40.61,1.09.52,1.7,1.89,2,4.45,1.39,13.34-7.86,62-28.38,77.65-36,27.41-42.62,56.34-38.32,69.09,1.78,5.27,5.43,8.3,10,8.3,17.18,0,21.54-12.83,21.72-13.38a1.24,1.24,0,0,1,2.36.76c0,.15-5,15.11-24.08,15.11-5.72,0-10.23-3.65-12.38-10C536.47,371.91,546.42,342.56,581.08,316.14Z"/><rect class="cls-6" x="331.6" y="226.95" width="398.07" height="14.12"/><ellipse id="_Path_" data-name="&lt;Path&gt;" class="cls-7" cx="457.41" cy="470.27" rx="123.68" ry="9.88"/><g class="cls-8"><path class="cls-9" d="M138.28,276.14c18,12,39.6,20,59.67,29.68,19.32,9.35,39.48,24.67,34.13,41.9-4.05,13-20.87,20.53-33.89,29.29-29.24,19.66-42,52.54-33.68,81.78,28.15-.57,56.31-1,84.48-.47,56.15.94,112.26,3.44,168.39,5.19,56.69,1.77,113.4,2.13,170.11,2.28q8.06,0,16.12,0a11.79,11.79,0,0,1-.55-3.53c.06-17,30.93-30.44,43.41-36.08,18.46-8.35,38.22-13.48,58.14-16.72,32.84-5.33,67.79-1.58,99.29-13.83,17.81-6.93,34-23,33.74-42.23-.28-18.52-15.07-33.15-27.81-44.67-4.34-3.92-8.69-7.58-12.64-11-20.75-17.78-40.57-39.7-48.35-66.65-8.78-30.38-6.31-63.15-14.05-93.84C715.18,59.49,633.14,19.1,559.56,13A219.18,219.18,0,0,0,436.65,38.9a193,193,0,0,0-48.93,37.87c-14.78,15.85-28.64,32.82-47.31,44.23-38.83,23.71-91.2,23.46-136.37,34.87-39,9.84-94,36-97,71.69,0,.37,0,.73-.08,1.1C106,247.08,120.3,264.18,138.28,276.14Z"/></g><path class="cls-10" d="M330,440.43s29.68,2.92,29.68,2.92L349.5,422.63s-14,2.58-18.69,1.64c.07-.14.27-.85.27-.85-2.65-.41-6-3.08-10.8-3.06-5.13,0-8.46,30.18-8,41.48C312.52,467.27,319.1,457.42,330,440.43Z"/><path class="cls-11" d="M333.05,422.6l-14.81-2.73L306.19,471.1s8.05-3.33,22.87-23.24l3.08-6.57s-5.14-4.82-2.91-9.45a36,36,0,0,1,4.64-7,1.39,1.39,0,0,0-.82-2.28Z"/><path class="cls-10" d="M483.65,461.6s-4.13-29.53-4.13-29.53l-17.76,14.76s5.8,13,6,17.78a8.75,8.75,0,0,0-.89-.06c.23,2.67-1.58,6.58-.44,11.22,1.23,5,31.32,1.12,42.2-2C513.85,472.29,502.72,468.21,483.65,461.6Z"/><path class="cls-11" d="M465.6,462.82l.82,15,52.64-.32s-5.13-7-28-16.77L484,459.32s-3.48,6.13-8.5,5a35.67,35.67,0,0,1-7.86-2.87,1.39,1.39,0,0,0-2,1.33Z"/><path class="cls-4" d="M147.57,444.94h0s56.25-.16,60.88.16a60.49,60.49,0,0,1,19.78,4.44c4,1.79,8.55,4.62,11.46,9.27,2.83,4.86,4.78,9.81,7.48,15.14a126.78,126.78,0,0,0,9.32,16.21A77.08,77.08,0,0,0,270,505.62c10.55,9.79,25.71,15.77,42.15,17,16.62.89,34.42,1.78,52.25-1,4.38-.73,8.92-2,12.21-4.61,3.61-2.6,2.41-7.53,0-11.23-5-7.66-12.36-14-19.13-20.72-3.44-3.36-6.87-6.77-10.06-10.48s-6.35-7.7-7.35-12.92a10.89,10.89,0,0,1,.07-4c.59-1.2.95-2.62,2-3.48.49-.52.79-.91,1.45-1.53l1.58-.91a30.06,30.06,0,0,1,3.67-1.33,106.72,106.72,0,0,1,14.56-2.3c19.48-1.74,39-1.83,58.18-1.94s38.08.26,56.35.61l99.85,2.43c14.61.32,28,.56,39.88.46,5.93-.09,11.49-.29,16.6-.77s10-.95,13.49-3.38a2.09,2.09,0,0,0,.6-2.68,7.13,7.13,0,0,0-1.92-2.16,28.72,28.72,0,0,0-4.52-2.81,80.89,80.89,0,0,0-7.68-3.41c-4.26-1.65-6.59-2.36-6.59-2.36s2.34.7,6.61,2.33a80.52,80.52,0,0,1,7.7,3.37,28.47,28.47,0,0,1,4.55,2.79,7.26,7.26,0,0,1,2,2.19,2.21,2.21,0,0,1-.62,2.84c-3.57,2.52-8.52,2.85-13.56,3.5s-10.68.74-16.62.86c-11.88.16-25.28,0-39.89-.24l-99.86-1.89c-18.27-.26-37.15-.42-56.32-.31s-38.68.41-58,2.25a105.08,105.08,0,0,0-14.27,2.32c-4.39.8-8.6,4.73-7.39,9.25.84,4.43,3.94,8.37,7,11.95s6.55,7,10,10.3c6.8,6.73,14.17,12.9,19.57,21,1.21,2.1,2.46,4.33,2.63,7a8.41,8.41,0,0,1-.56,3.94,9.63,9.63,0,0,1-2.4,3.1c-4,3.17-8.74,4.38-13.26,5.2-18.3,3-36.11,2.14-52.85,1.35-16.92-1.11-32.82-7.28-43.85-17.41a79.51,79.51,0,0,1-14.1-15.93,129.46,129.46,0,0,1-9.62-16.52c-2.68-5.26-5-10.64-7.3-14.66-2.61-4.15-6.51-6.48-10.21-8.16a57.3,57.3,0,0,0-18.68-4.06c-4.49-.29-60.53-.12-60.53-.12h0A1.69,1.69,0,0,1,146,446.2,1.73,1.73,0,0,1,147.57,444.94Z"/><path class="cls-12" d="M370.2,466.91s-.05,0,0,0S370.13,466.86,370.2,466.91Z"/><path class="cls-13" d="M146.77,439.2h0s56.6-.45,62-.71,13.39-.62,23.4,2.05c10,3,20.12,9.95,31.6,17.67s24.05,17.05,38.28,26.32c7.12,4.62,14.66,9.23,22.74,13.46s16.73,8.08,26.07,10.25a51.46,51.46,0,0,0,14.34,1.45c4.74-.39,9.87-1.52,14.87-2.34,10.06-1.8,20.33-3.77,30.66-6.2,5.16-1.21,10.33-2.56,15.44-4.18a75.11,75.11,0,0,0,7.52-2.78c2.39-1.06,4.89-2.33,6.39-4.08s-.49-3.48-2.82-4.71a40.75,40.75,0,0,0-7.49-3c-5.23-1.61-10.65-2.84-16.1-4-10.92-2.27-22-4-33.15-6.36a72.35,72.35,0,0,1-8.32-2.18,13.69,13.69,0,0,1-2.08-.89,5.65,5.65,0,0,1-1.07-.73,4.19,4.19,0,0,1-.52-.71,2,2,0,0,1-.07-1.14c.65-1.36,1.47-1.38,2.15-1.81a18.19,18.19,0,0,1,2.12-.71c5.63-1.42,11.16-2.35,16.82-3.24,22.51-3.46,45.27-4.63,67.62-5.14s44.37-.11,65.66.46c42.56,1.11,82.25,3.42,116.3,3.14,8.51-.11,16.67-.39,24.38-1.17a93.06,93.06,0,0,0,11.17-1.74c3.53-.85,7.06-1.89,9.69-4.1a5.4,5.4,0,0,0,2-4.36,6.21,6.21,0,0,0-2.12-4.19c-2.33-2.22-5.33-3.37-8.1-4.4a92.24,92.24,0,0,0-16-3.62c-9.83-1.43-17.63-1.85-22.94-2.14l-8.16-.31,8.16.27c5.31.27,13.12.65,23,2A92.75,92.75,0,0,1,676.21,439c2.79,1,5.82,2.15,8.21,4.42a6.53,6.53,0,0,1,2.23,4.37,5.69,5.69,0,0,1-2.08,4.6c-2.72,2.3-6.27,3.35-9.82,4.22a94,94,0,0,1-11.21,1.8c-7.73.82-15.9,1.14-24.41,1.28-34.08.44-73.79-1.68-116.34-2.59-21.28-.48-43.27-.72-65.6-.16s-45,1.89-67.39,5.43c-5.55.9-11.22,1.89-16.59,3.27a17.65,17.65,0,0,0-1.9.65,4.79,4.79,0,0,0-1.11.65c-.07-.05-.1-.07,0,0s0,0,0,0a2.32,2.32,0,0,0,.77.53,12.6,12.6,0,0,0,1.82.77,71.7,71.7,0,0,0,8.1,2.08c11,2.27,22.19,4,33.17,6.2,5.49,1.12,10.95,2.33,16.32,3.94a44,44,0,0,1,7.89,3.11,10.55,10.55,0,0,1,3.58,2.81,4.12,4.12,0,0,1,.89,2.57,4.74,4.74,0,0,1-.95,2.49c-2.11,2.44-4.71,3.6-7.22,4.78a78.48,78.48,0,0,1-7.72,2.9c-5.19,1.67-10.4,3.06-15.6,4.3-10.38,2.49-20.67,4.51-30.76,6.37-5.11.85-9.9,2-15.14,2.45a54.25,54.25,0,0,1-15.07-1.45c-9.7-2.21-18.53-6.16-26.75-10.36s-15.85-8.86-23-13.48c-14.36-9.27-27-18.44-38.46-26.18s-21.61-14.39-30.77-17.1c-9.27-2.44-17.17-2-22.35-1.82s-61.69.72-61.69.72h0a1.69,1.69,0,0,1-1.91-2A1.71,1.71,0,0,1,146.77,439.2Z"/><path class="cls-3" d="M514.32,434.72a2.24,2.24,0,0,0-.75,2.34c.34,1.13,1.48,2.31,7.46,3.32s17.53,1.69,28.19,1.69c11.42,0,21.84-.78,23.29-2.78a2.94,2.94,0,0,0,.54-2.35c-.44-2.19-3.24-4-6.59-6.07a54.67,54.67,0,0,0,7.35-11.32c4.61-1.47,9.82-3,14.8-4.2a1.38,1.38,0,0,0-.67-2.68c-4.08,1-8.38,2.18-12.43,3.41,1.56-3.33,2.62-6,2.91-6.74a1.38,1.38,0,0,0-2.57-1c-.81,2.08-2.23,5.39-4,8.88-8.52,2.79-15.15,5.87-14.92,8.62.16,2,2.19,3.67,4.9,5.42a4.16,4.16,0,0,1-.87.39c-2.69.9-9.91.63-17.56.35C531,431.53,518.23,431.05,514.32,434.72Zm49.77-5.3c-2.11-1.34-4.32-2.88-4.4-3.81.48-1.05,4.62-2.85,10.3-4.81A42.91,42.91,0,0,1,564.09,429.42Zm-47.5,7c3.8-2.55,17-2.05,26.72-1.69,8.25.31,15.37.58,18.54-.48a8.78,8.78,0,0,0,2.53-1.43h0c2.27,1.39,5.71,3.49,5.94,4.63C566.43,440.67,522.32,439.58,516.59,436.44Z"/><path class="cls-14" d="M407.14,334.68c4,2.73,41.05,98.53,44.63,113.79S446,467.35,433.2,465.15s-62.09-80.54-65-107.31S407.14,334.68,407.14,334.68Z"/><path class="cls-14" d="M416.5,430.06c21.19,5.42,37.1,21.57,36,27.6-3.33,18-30.27,9-59.58,1-25.63-7.07-54.31-12.37-54.31-12.37s-4.1-8.46-4.2-13,5-13.26,5-13.26S395.31,424.65,416.5,430.06Z"/><path class="cls-15" d="M442.2,248.11c11.43-3.37,18,6,22.21,13.29s21.9,48.58,21.74,53.24-13.57,10.61-16.63,9.57-30.69-45.46-34.14-54.87S432.44,251,442.2,248.11Z"/><path class="cls-16" d="M488.6,338.14c18.25,1.62,14.13,30.8,8.85,60.76-4.62,26.19-5,55.78-5,55.78a118.76,118.76,0,0,1-17.08,3.39c-4.52.4-13.89-2.48-13.89-2.48s-.39-57.4,3-79S482.49,337.59,488.6,338.14Z"/><path class="cls-17" d="M396.68,225.42c11.85-1.26,16.64,9.2,19.46,17.07S429,294.22,428,298.77,418,312.31,408.9,304c-2.38-2.19-21-49-22.75-58.88S386.56,226.5,396.68,225.42Z"/><path class="cls-15" d="M531.8,275.24c2,.37,9.44,5.22,10.55,5.85s2.1,2.2,1.68,2.7-5.13-1.06-9.15,3.22-6.82,8.21-9.93,10c-6.89,4-15.11-2-15.11-2l10.48-17.73S529.8,274.86,531.8,275.24Z"/><path class="cls-15" d="M528.12,281.94c1.15-.47,5.22-.09,6.88,0a30.54,30.54,0,0,1,5.4,1.13c1.14.3,3,1.25,2.44,2.36-.21.38-2.41.92-3.79.52a29.08,29.08,0,0,0-4.66-1.15c-1.4-.13-6.77,1.2-6.77,1.2S527,282.42,528.12,281.94Z"/><path class="cls-15" d="M527.43,282.51c1.15-.11,4.67,1.33,6.13,1.84a10.86,10.86,0,0,1,4.1,3.41c.65.89,1.93,2.5.84,2.93s-2.71-.53-3.65-1.47c-1.12-1.14-1.4-2-2.61-2.48s-6.36-.77-6.36-.77S526.27,282.62,527.43,282.51Z"/><path class="cls-15" d="M527,283.64c1,.08,3.66,1.79,4.79,2.44a9.25,9.25,0,0,1,2.89,3.44c.4.84,1.22,2.37.25,2.57s-2.16-.83-2.79-1.76c-.76-1.12-.87-1.87-1.8-2.46a31.94,31.94,0,0,0-5.14-1.57S526,283.56,527,283.64Z"/><path class="cls-13" d="M509.64,270.5c.94.2,23.24,4.9,29.17,15.48,2.23,4,3,13.8,4,26.23,1.69,20.63,4,48.89,14.34,65,6.13,9.57,20.11,6.83,20.25,6.81a1.35,1.35,0,0,1,1.63,1.07,1.38,1.38,0,0,1-1.07,1.62,28,28,0,0,1-5.35.48c-5.28,0-13.2-1.34-17.78-8.49-10.71-16.72-13.06-45.37-14.77-66.29-.94-11.62-1.76-21.65-3.7-25.11-5.31-9.48-27.1-14.07-27.32-14.12a1.38,1.38,0,0,1,.56-2.7Z"/><path class="cls-15" d="M520.18,287.73s6.4-6,7.87-5.37,10.28,2.48,11.28,2.67,2.34.43-.41,2.47-6.74.77-7.38,1.78-1.54,6.28-5.33,8.66-12.54,3.09-13.68,2.26S516.84,288.74,520.18,287.73Z"/><rect class="cls-18" x="506.22" y="267.85" width="3.62" height="6.63" transform="translate(75.69 651.56) rotate(-69.44)"/><path class="cls-11" d="M495.85,293.49a25,25,0,0,0,3.71-12.17,1.31,1.31,0,0,1,1.31-1.3h0a1.31,1.31,0,0,1,1.3,1.31A27.23,27.23,0,0,1,498,294.94c-4.06,6.12-11,9.54-11.26,9.68a1.37,1.37,0,0,1-.58.14,1.31,1.31,0,0,1-.57-2.49C485.68,302.24,492.19,299,495.85,293.49Z"/><polygon class="cls-19" points="505.31 276.19 502.34 281.52 498.55 281.86 503.24 274.8 505.31 276.19"/><polygon class="cls-19" points="505.48 273.11 508.03 267.58 508.74 268.06 507.28 275.34 504.58 277.29 502.5 275.91 503.62 274.22 505.48 273.11"/><path class="cls-11" d="M497.64,278.31a1.31,1.31,0,1,1,1,2.41,24.88,24.88,0,0,0-9.77,8.14c-3.66,5.52-4.11,12.77-4.11,12.84a1.31,1.31,0,0,1-1.31,1.24h-.07a1.29,1.29,0,0,1-1.23-1.37c0-.33.48-8,4.55-14.15A27.13,27.13,0,0,1,497.64,278.31Z"/><polygon class="cls-19" points="503.24 274.8 498.55 281.86 497.4 278.24 501.15 273.42 503.24 274.8"/><polygon class="cls-19" points="507.31 267.11 508.03 267.58 503.92 272.07 503.62 274.22 502.5 275.91 500.42 274.53 501.17 271.28 507.31 267.11"/><path class="cls-10" d="M496.29,281.54c2.45,1.16,6.24,9.09,5.9,10.24s-4.82,8.61-5.63,9.07-2.53,1.26-3,0,1.55-3.56.86-3.67-7.32-1.55-8.84-3.22a11.91,11.91,0,0,0-3.33-2.53l.68-10.29S493.84,280.39,496.29,281.54Z"/><rect class="cls-20" x="575.08" y="322.38" width="53.95" height="118.35" rx="6.43"/><rect class="cls-21" x="579.79" y="391.64" width="44.77" height="44.45"/><rect class="cls-21" x="581.51" y="328.93" width="41.33" height="4.96"/><rect class="cls-21" x="581.51" y="340.54" width="41.33" height="4.96"/><path class="cls-22" d="M583.29,334.66a1.61,1.61,0,1,1-1.61,1.61A1.61,1.61,0,0,1,583.29,334.66Z"/><path class="cls-22" d="M587.57,334.58a1.8,1.8,0,1,1-1.8,1.8A1.79,1.79,0,0,1,587.57,334.58Z"/><path class="cls-22" d="M582.66,430.45a1.61,1.61,0,1,1-1.61,1.61A1.61,1.61,0,0,1,582.66,430.45Z"/><path class="cls-22" d="M587.13,430.56a1.61,1.61,0,1,1-1.6,1.61A1.61,1.61,0,0,1,587.13,430.56Z"/><path class="cls-11" d="M422.88,367.4l15.35,42s-53-49.2-61.33-42S422.88,367.4,422.88,367.4Z"/><path class="cls-10" d="M453.48,254.33c-18,.54-41.69-21.29-41.69-21.29s18.68-7,25.47-30.65l9.33,13.7,6.33,9.3a110.23,110.23,0,0,1-4.59,10.91c-.86,1.8-1.84,3.8-3,6A38.47,38.47,0,0,1,453.48,254.33Z"/><path class="cls-15" d="M453.62,224.31a93.23,93.23,0,0,1-4.28,10c-8.81-4.13-14.78-21.14-14.78-21.14a32.64,32.64,0,0,1,12.73,2.48Z"/><path class="cls-10" d="M461.55,221.27a11,11,0,0,1-12,4.64c-8-2-20.89-7.07-19.13-18.27,2.52-16.08.65-27.35,18.44-25.87s20.26,8.1,20.82,13.66C470,199.45,466.43,213.23,461.55,221.27Z"/><path class="cls-15" d="M477.32,302.32c32.21-11.17,36.76-12.26,36.76-12.26l4.29,10.56s-12.83,13-22.22,18.21-25,12.72-28.14,2.79C464.78,311.51,474.46,303.32,477.32,302.32Z"/><path class="cls-23" d="M442.47,254.13c4-3.14,11.13-3.75,17.32.28s22.64,42.67,22.64,42.67a26.73,26.73,0,0,1-11.59,11c-8.21,4-17.46,1.95-17.46,1.95s-12-24-16-35S438.48,257.27,442.47,254.13Z"/><path class="cls-24" d="M384.49,234.65c2.18-6.34,6.17-10.32,11.81-10.77s28.05.45,28.05.45-1.79,20.73,14,22.4c4.78.5,8.22-6.92,8.22-6.92s13.19,12.5,13.86,16.7-1.33,12-1.76,15-5.12,15.77-10.59,26.27c-3.2,6.14-6.45,14.66-11.81,25.16-4.59,9-12.91,32.61-12.91,32.61s-9.05-3.22-22.57-9.45c-15.65-7.22-35.32-12.22-35.8-13.09-2.06-3.77,16.71-30.75,17.25-33.71S382.3,241,384.49,234.65Z"/><path class="cls-23" d="M384.39,236c1.87-5,16.85-10.72,16.85-10.72a33.92,33.92,0,0,0,0,16.28c2.23,8.81,23.08,39.08,29.06,42.23,19,10-5.78,37.58-5.78,37.58s-32.45,3-36.43,5.53,42.09,10.83,42.09,10.83-63.86.26-65.11-5.36,17.25-29.41,17.23-34.32C382.29,290.47,382.51,241.09,384.39,236Z"/><path class="cls-10" d="M422.79,286.46c33-2.72,60.1-5.32,60.1-5.32l1.85,10.9s-31,10.64-41.94,13.28-33.39,7-34.24-3C407.69,292.06,419.62,286.72,422.79,286.46Z"/><path class="cls-16" d="M430.21,337.77s1.1,2.32,3,2.13c21-2,47.23-6.42,54.29-3.79,14.69,5.47,12.36,13.66,3.45,23.09s-95.63,32.13-119.5,19.71S365.26,333,365.26,333C367.44,332.09,402.32,332.18,430.21,337.77Z"/><path class="cls-10" d="M394.48,225.42c11.85-1.26,16.64,9.2,19.46,17.07s12.81,51.73,11.82,56.28S413.1,314.5,406.7,304c-26.26-43.27-21-49-22.75-58.88S384.36,226.5,394.48,225.42Z"/><path class="cls-24" d="M388.57,227.19c4.31-2.67,13.59-2.84,19.3,1.85s20.85,57.3,20.85,57.3A26.74,26.74,0,0,1,416,296c-8.6,3.1-17.56,0-17.56,0s-14.5-37.18-17.26-48.55S384.25,229.87,388.57,227.19Z"/><path class="cls-25" d="M771,351.15s12.2-25.62,9.3-42.57-18-13.23-13.84-33.48.41-32.24-11.58-34.31-12.4-12.13-20.67-25.84c-7.48-12.41-35.27-8.88-29.76,17.16,7.3,34.47,24.39,24.39,29.76,38s-5.16,29.34,3.1,43.81S760.89,321.6,771,351.15Z"/><path class="cls-26" d="M771.42,376.19l-1.64-.2c0-.2,2.41-20.23-2.28-48.32-4.32-25.9-15.73-64.16-45.48-99.3l1.26-1.07c30,35.45,41.51,74,45.86,100.16C773.86,355.77,771.44,376,771.42,376.19Z"/><path class="cls-27" d="M780.91,355.06s-10.28-21.61-7.84-35.9,15.16-11.16,11.68-28.24-.35-27.19,9.76-28.93S805,251.76,811.94,240.2c6.31-10.46,29.74-7.49,25.09,14.47-6.15,29.07-20.56,20.57-25.09,32.07s4.35,24.75-2.62,36.95S789.45,330.14,780.91,355.06Z"/><path class="cls-26" d="M780.57,376.18c0-.17-2.06-17.23,1.92-41.1,3.67-22,13.36-54.57,38.67-84.46l1.07.9c-25.09,29.63-34.71,61.89-38.36,83.74-4,23.69-1.94,40.58-1.92,40.75Z"/><polygon class="cls-28" points="800.53 462.62 750.52 462.62 740.31 365.29 810.75 365.29 800.53 462.62"/><polygon class="cls-29" points="743.29 365.29 753.51 462.62 760.25 462.62 750.04 365.29 743.29 365.29"/><polygon class="cls-30" points="810.75 365.29 800.53 462.62 787 462.62 797.22 365.29 810.75 365.29"/><polygon class="cls-30" points="808.91 382.77 809.54 376.78 741.51 376.78 742.14 382.77 808.91 382.77"/><rect class="cls-31" x="753.84" y="462.62" width="43.38" height="6.34"/><rect class="cls-30" x="753.84" y="462.62" width="43.38" height="3.17"/><rect class="cls-32" x="737.16" y="362.73" width="76.72" height="14.05"/><rect class="cls-30" x="799.65" y="362.73" width="14.23" height="14.05"/><rect class="cls-29" x="738.94" y="362.73" width="9.52" height="14.05"/><rect class="cls-33" x="128.28" y="433.47" width="139.56" height="15.93"/><g class="cls-34"><rect class="cls-35" x="131.91" y="435.73" width="3.49" height="11.4"/><rect class="cls-35" x="138.05" y="435.73" width="3.49" height="11.4"/><rect class="cls-35" x="144.19" y="435.73" width="3.49" height="11.4"/><rect class="cls-35" x="150.33" y="435.73" width="3.49" height="11.4"/><rect class="cls-35" x="156.46" y="435.73" width="3.49" height="11.4"/><rect class="cls-35" x="162.6" y="435.73" width="3.49" height="11.4"/><rect class="cls-35" x="168.74" y="435.73" width="3.49" height="11.4"/><rect class="cls-35" x="174.88" y="435.73" width="3.49" height="11.4"/><rect class="cls-35" x="181.01" y="435.73" width="3.49" height="11.4"/><rect class="cls-35" x="187.15" y="435.73" width="3.49" height="11.4"/><rect class="cls-35" x="193.29" y="435.73" width="3.49" height="11.4"/><rect class="cls-35" x="199.42" y="435.73" width="3.49" height="11.4"/><rect class="cls-35" x="205.56" y="435.73" width="3.49" height="11.4"/><rect class="cls-35" x="211.7" y="435.73" width="3.49" height="11.4"/><rect class="cls-35" x="217.84" y="435.73" width="3.49" height="11.4"/><rect class="cls-35" x="223.97" y="435.73" width="3.49" height="11.4"/><rect class="cls-35" x="230.11" y="435.73" width="3.49" height="11.4"/><rect class="cls-35" x="236.25" y="435.73" width="3.49" height="11.4"/><rect class="cls-35" x="242.39" y="435.73" width="3.49" height="11.4"/><rect class="cls-35" x="248.52" y="435.73" width="3.49" height="11.4"/><rect class="cls-35" x="254.66" y="435.73" width="3.49" height="11.4"/><rect class="cls-35" x="260.8" y="435.73" width="3.49" height="11.4"/></g><rect class="cls-36" x="267.84" y="433.47" width="21.77" height="15.93" transform="translate(557.46 882.86) rotate(180)"/><rect class="cls-37" x="121.02" y="152.1" width="146.82" height="281.37"/><rect class="cls-38" x="130.65" y="149.69" width="156.61" height="2.41"/><rect class="cls-39" x="267.84" y="152.1" width="29.03" height="281.37" transform="translate(564.72 585.57) rotate(180)"/><rect class="cls-40" x="124.44" y="226.53" width="139.99" height="27.93" rx="3.9"/><path class="cls-39" d="M252.64,236.73,247,225.08v30.83h17.43V240.49h-5.79A6.67,6.67,0,0,1,252.64,236.73Z"/><rect class="cls-41" x="124.44" y="155.47" width="139.99" height="30.83"/><rect class="cls-41" x="124.44" y="399.09" width="139.99" height="30.83"/><rect class="cls-41" x="124.44" y="364.29" width="139.99" height="30.83"/><rect class="cls-41" x="124.44" y="329.49" width="139.99" height="30.83"/><rect class="cls-41" x="124.44" y="294.68" width="139.99" height="30.83"/><rect class="cls-41" x="124.44" y="259.88" width="139.99" height="30.83"/><rect class="cls-41" x="107.01" y="225.08" width="139.99" height="30.83"/><rect class="cls-41" x="124.44" y="190.27" width="139.99" height="30.83"/><rect class="cls-39" x="197.99" y="159.87" width="62.22" height="22.02" rx="4.5"/><rect class="cls-42" x="238.67" y="160.35" width="5.63" height="21.06" rx="1.91" transform="translate(412.37 -70.6) rotate(90)"/><rect class="cls-39" x="197.99" y="194.68" width="62.22" height="22.02" rx="4.5"/><rect class="cls-24" x="238.67" y="195.16" width="5.63" height="21.06" rx="1.91" transform="translate(447.17 -35.8) rotate(90)"/><rect class="cls-39" x="180.57" y="229.48" width="62.22" height="22.02" rx="4.5"/><rect class="cls-42" x="221.25" y="229.96" width="5.63" height="21.06" rx="1.91" transform="translate(464.55 16.43) rotate(90)"/><rect class="cls-39" x="197.99" y="264.28" width="62.22" height="22.02" rx="4.5"/><rect class="cls-42" x="238.67" y="264.76" width="5.63" height="21.06" rx="1.91" transform="translate(516.78 33.81) rotate(90)"/><rect class="cls-39" x="197.99" y="299.09" width="62.22" height="22.02" rx="4.5"/><rect class="cls-24" x="238.67" y="299.57" width="5.63" height="21.06" rx="1.91" transform="translate(551.58 68.61) rotate(90)"/><rect class="cls-39" x="197.99" y="333.89" width="62.22" height="22.02" rx="4.5"/><rect class="cls-24" x="238.67" y="334.37" width="5.63" height="21.06" rx="1.91" transform="translate(586.39 103.42) rotate(90)"/><rect class="cls-39" x="197.99" y="368.69" width="62.22" height="22.02" rx="4.5"/><rect class="cls-42" x="238.67" y="369.17" width="5.63" height="21.06" rx="1.91" transform="translate(621.19 138.22) rotate(90)"/><rect class="cls-39" x="197.99" y="403.5" width="62.22" height="22.02" rx="4.5"/><rect class="cls-42" x="238.67" y="403.98" width="5.63" height="21.06" rx="1.91" transform="translate(656 173.02) rotate(90)"/><circle class="cls-24" cx="187.17" cy="170.88" r="3.56"/><circle class="cls-24" cx="177.01" cy="170.88" r="3.56"/><circle class="cls-24" cx="166.84" cy="170.88" r="3.56"/><path class="cls-24" d="M160.23,170.88a3.56,3.56,0,1,1-3.56-3.55A3.56,3.56,0,0,1,160.23,170.88Z"/><circle class="cls-43" cx="187.17" cy="205.69" r="3.56"/><circle class="cls-39" cx="177.01" cy="205.69" r="3.56"/><circle class="cls-39" cx="166.84" cy="205.69" r="3.56"/><path class="cls-44" d="M160.23,205.69a3.56,3.56,0,1,1-3.56-3.56A3.56,3.56,0,0,1,160.23,205.69Z"/><circle class="cls-44" cx="169.75" cy="240.49" r="3.56"/><circle class="cls-39" cx="159.58" cy="240.49" r="3.56"/><circle class="cls-44" cx="149.42" cy="240.49" r="3.56"/><circle class="cls-39" cx="139.25" cy="240.49" r="3.56"/><circle class="cls-24" cx="187.17" cy="275.29" r="3.56"/><circle class="cls-24" cx="177.01" cy="275.29" r="3.56"/><circle class="cls-24" cx="166.84" cy="275.29" r="3.56"/><path class="cls-24" d="M160.23,275.29a3.56,3.56,0,1,1-3.56-3.55A3.56,3.56,0,0,1,160.23,275.29Z"/><circle class="cls-39" cx="187.17" cy="310.1" r="3.56"/><circle class="cls-44" cx="177.01" cy="310.1" r="3.56"/><circle class="cls-39" cx="166.84" cy="310.1" r="3.56"/><path class="cls-39" d="M160.23,310.1a3.56,3.56,0,1,1-3.56-3.56A3.56,3.56,0,0,1,160.23,310.1Z"/><circle class="cls-43" cx="187.17" cy="344.9" r="3.56"/><circle class="cls-43" cx="177.01" cy="344.9" r="3.56"/><circle class="cls-44" cx="166.84" cy="344.9" r="3.56"/><path class="cls-44" d="M160.23,344.9a3.56,3.56,0,1,1-3.56-3.56A3.56,3.56,0,0,1,160.23,344.9Z"/><path class="cls-44" d="M190.73,379.71a3.56,3.56,0,1,1-3.56-3.56A3.55,3.55,0,0,1,190.73,379.71Z"/><path class="cls-43" d="M180.57,379.71a3.56,3.56,0,1,1-3.56-3.56A3.56,3.56,0,0,1,180.57,379.71Z"/><path class="cls-39" d="M170.4,379.71a3.56,3.56,0,1,1-3.56-3.56A3.55,3.55,0,0,1,170.4,379.71Z"/><path class="cls-39" d="M160.23,379.71a3.56,3.56,0,1,1-3.56-3.56A3.55,3.55,0,0,1,160.23,379.71Z"/><circle class="cls-24" cx="187.17" cy="414.51" r="3.56"/><circle class="cls-24" cx="177.01" cy="414.51" r="3.56"/><circle class="cls-24" cx="166.84" cy="414.51" r="3.56"/><path class="cls-24" d="M160.23,414.51a3.56,3.56,0,1,1-3.56-3.56A3.56,3.56,0,0,1,160.23,414.51Z"/><path class="cls-24" d="M146,170.88a7.71,7.71,0,1,1-7.7-7.7A7.71,7.71,0,0,1,146,170.88Z"/><path class="cls-24" d="M146,205.69a7.71,7.71,0,1,1-7.7-7.71A7.7,7.7,0,0,1,146,205.69Z"/><path class="cls-24" d="M128.6,240.49a7.71,7.71,0,1,1-7.71-7.71A7.71,7.71,0,0,1,128.6,240.49Z"/><path class="cls-24" d="M146,275.29a7.71,7.71,0,1,1-7.7-7.7A7.71,7.71,0,0,1,146,275.29Z"/><path class="cls-24" d="M146,310.1a7.71,7.71,0,1,1-7.7-7.71A7.71,7.71,0,0,1,146,310.1Z"/><path class="cls-24" d="M146,344.9a7.71,7.71,0,1,1-7.7-7.71A7.71,7.71,0,0,1,146,344.9Z"/><path class="cls-24" d="M146,379.71a7.71,7.71,0,1,1-7.7-7.71A7.7,7.7,0,0,1,146,379.71Z"/><path class="cls-24" d="M146,414.51a7.71,7.71,0,1,1-7.7-7.71A7.71,7.71,0,0,1,146,414.51Z"/><rect class="cls-20" x="475.3" y="212.3" width="107.12" height="14.09" rx="4.25"/><rect class="cls-22" x="522.41" y="184.3" width="12.9" height="28.01"/><rect class="cls-21" x="475.3" y="131.16" width="107.12" height="68.96" rx="5.8"/><path class="cls-20" d="M479.65,131.16h98.42a4.35,4.35,0,0,1,4.35,4.35V188.8a0,0,0,0,1,0,0H475.3a0,0,0,0,1,0,0V135.51A4.35,4.35,0,0,1,479.65,131.16Z"/><path class="cls-22" d="M567,223.37H490.29a1.51,1.51,0,0,0-1.51,1.51h0a1.5,1.5,0,0,0,1.51,1.51H567a1.5,1.5,0,0,0,1.51-1.51h0A1.51,1.51,0,0,0,567,223.37Z"/><path class="cls-11" d="M430.84,206.15s2.84.35,3.54-3.26,2.18-8.15,4.93-6.44,2.17,4,3.85,3,3.51-6.54,12.65-4.37,11.86,6.15,16.61,5.61,6.91-6.39,6.91-6.39a7.71,7.71,0,0,1-3.91,1.94s9.91-7,3.8-15.38-15.67-6.76-20.44-7.83c-10.52-2.34-17.38-3.66-22.82,1.72S426.19,198.17,430.84,206.15Z"/></g></g></svg>