<svg id="Layer_1" data-name="Layer 1" xmlns="http://www.w3.org/2000/svg" xmlns:xlink="http://www.w3.org/1999/xlink" viewBox="0 0 838.29 614.87"><defs><style>.cls-1{fill:url(#linear-gradient);}.cls-11,.cls-2{fill:#c6e6ff;}.cls-2{opacity:0.58;}.cls-11,.cls-12,.cls-13,.cls-14,.cls-19,.cls-2,.cls-20,.cls-21,.cls-22,.cls-23,.cls-24,.cls-25,.cls-26,.cls-27,.cls-28,.cls-29,.cls-30{isolation:isolate;}.cls-3{fill:url(#linear-gradient-2);}.cls-4{fill:#fff;stroke-miterlimit:10;}.cls-13,.cls-14,.cls-19,.cls-20,.cls-21,.cls-22,.cls-23,.cls-24,.cls-25,.cls-26,.cls-27,.cls-28,.cls-29,.cls-30,.cls-4{stroke:#fff;}.cls-5{fill:#164571;}.cls-6{fill:#0e71bb;}.cls-7{fill:#005b9f;}.cls-8{fill:#21e2e2;}.cls-9{fill:#ffbc98;}.cls-10{fill:#52acea;}.cls-11{opacity:0.44;}.cls-12{opacity:0.64;fill:url(#linear-gradient-3);}.cls-13,.cls-14,.cls-19,.cls-20,.cls-21,.cls-22,.cls-23,.cls-24,.cls-25,.cls-26,.cls-27,.cls-28,.cls-29,.cls-30{fill:none;}.cls-13,.cls-14{opacity:0.3;}.cls-14{stroke-miterlimit:4;}.cls-15{fill:url(#linear-gradient-4);}.cls-16{fill:url(#linear-gradient-5);}.cls-17{fill:#137fcf;}.cls-18{fill:url(#linear-gradient-6);}.cls-19,.cls-20,.cls-21,.cls-22,.cls-23,.cls-24,.cls-25,.cls-26,.cls-27,.cls-28,.cls-29,.cls-30{opacity:0.23;}.cls-24{stroke-miterlimit:4;}</style><linearGradient id="linear-gradient" x1="-98.7" y1="1236.95" x2="-98.71" y2="1238.16" gradientTransform="matrix(740.56, 0, 0, -612.51, 73536.12, 758357.18)" gradientUnits="userSpaceOnUse"><stop offset="0" stop-color="#c6e6ff"/><stop offset="1" stop-color="#fff"/></linearGradient><linearGradient id="linear-gradient-2" x1="-92.05" y1="1040.16" x2="-92.05" y2="1038.15" gradientTransform="matrix(561, 0, 0, -80, 52078, 83600)" gradientUnits="userSpaceOnUse"><stop offset="0" stop-color="#288ed9"/><stop offset="1" stop-color="#137fcf" stop-opacity="0.05"/></linearGradient><linearGradient id="linear-gradient-3" x1="37.34" y1="424.73" x2="37.34" y2="425.63" gradientTransform="matrix(97.87, 0, 0, -21.75, -3074.52, 9767.03)" gradientUnits="userSpaceOnUse"><stop offset="0" stop-color="#288ed9" stop-opacity="0"/><stop offset="1" stop-color="#005b9f"/></linearGradient><linearGradient id="linear-gradient-4" x1="200.02" y1="1034.01" x2="200.02" y2="1033.11" gradientTransform="matrix(48.04, 0, 0, -78.36, -9029.52, 81375.31)" gradientUnits="userSpaceOnUse"><stop offset="0" stop-color="#419ee3"/><stop offset="1" stop-color="#0d79c9"/></linearGradient><linearGradient id="linear-gradient-5" x1="35.17" y1="1126.18" x2="34.87" y2="1125.19" gradientTransform="matrix(99.31, 0, 0, -129.35, -2852.7, 146003.26)" gradientUnits="userSpaceOnUse"><stop offset="0" stop-color="#ffbc98"/><stop offset="1" stop-color="#ff9f6c"/></linearGradient><linearGradient id="linear-gradient-6" x1="106.13" y1="1004.07" x2="106.94" y2="1004.06" gradientTransform="matrix(67.91, 0, 0, -69.54, -6653.45, 70316.98)" gradientUnits="userSpaceOnUse"><stop offset="0" stop-color="#21e2e2"/><stop offset="1" stop-color="#19dbdb"/></linearGradient></defs><title>Artboard 1</title><g id="Group_8035" data-name="Group 8035"><path id="Path_5765" data-name="Path 5765" class="cls-1" d="M439.81,77c115.12,73.45,246.93,106.51,246.93,106.51s145.15,22,91.76,187.32-60.35,224.47-144,228.7C555.1,601.81,510.53,569.06,432,574.7c-69,5.31-116.46,36.39-231.71-9C15.6,484.07,29.37-181.93,439.81,77Z"/><path id="Path_5766" data-name="Path 5766" class="cls-2" d="M763.73,313.9c-24.66,15.86-75.12-21.29-113.25,16s-53.31-29.47-102-31.71,74.17-89.85,151.36-43.75c20.07,12,81.24-3.21,91,3.71C817.49,277.08,788.39,298,763.73,313.9Z"/><ellipse id="Ellipse_1273" data-name="Ellipse 1273" class="cls-3" cx="438.24" cy="507.8" rx="280.5" ry="40"/><path class="cls-4" d="M243.4,359h6.19a15,15,0,0,1,15,15v17.2a4,4,0,0,1-4,4h-28.2a4,4,0,0,1-4-4V374a15,15,0,0,1,15-15Z"/><rect class="cls-4" x="237.37" y="339.89" width="18.24" height="18.24" rx="9.12"/><path class="cls-4" d="M291.42,388.64h6.19a15,15,0,0,1,15,15v17.2a4,4,0,0,1-4,4h-28.2a4,4,0,0,1-4-4v-17.2a15,15,0,0,1,15-15Z"/><rect class="cls-4" x="285.4" y="369.48" width="18.24" height="18.24" rx="9.12"/><path class="cls-4" d="M246.12,429.88h6.19a15,15,0,0,1,15,15v17.2a4,4,0,0,1-4,4h-28.2a4,4,0,0,1-4-4v-17.2a15,15,0,0,1,15-15Z"/><rect class="cls-4" x="240.09" y="410.73" width="18.24" height="18.24" rx="9.12"/><path class="cls-4" d="M302.52,319.81h6.19a15,15,0,0,1,15,15V352a4,4,0,0,1-4,4h-28.2a4,4,0,0,1-4-4V334.8a15,15,0,0,1,15-15Z"/><rect class="cls-4" x="296.5" y="300.66" width="18.24" height="18.24" rx="9.12"/><path class="cls-4" d="M241.26,213.76h6.19a15,15,0,0,1,15,15v17.2a4,4,0,0,1-4,4h-28.2a4,4,0,0,1-4-4v-17.2A15,15,0,0,1,241.26,213.76Z"/><rect class="cls-4" x="235.24" y="194.6" width="18.24" height="18.24" rx="9.12"/><path class="cls-4" d="M291.42,243.35h6.19a15,15,0,0,1,15,15v17.2a4,4,0,0,1-4,4h-28.2a4,4,0,0,1-4-4v-17.2A15,15,0,0,1,291.42,243.35Z"/><rect class="cls-4" x="285.4" y="224.2" width="18.24" height="18.24" rx="9.12"/><path class="cls-4" d="M562.95,264.65h6.19a15,15,0,0,1,15,15v17.2a4,4,0,0,1-4,4h-28.2a4,4,0,0,1-4-4v-17.2A15,15,0,0,1,562.95,264.65Z"/><rect class="cls-4" x="556.92" y="245.49" width="18.24" height="18.24" rx="9.12"/><path class="cls-4" d="M255.24,284.59h6.19a15,15,0,0,1,15,15v17.2a4,4,0,0,1-4,4h-28.2a4,4,0,0,1-4-4v-17.2A15,15,0,0,1,255.24,284.59Z"/><rect class="cls-4" x="249.22" y="265.44" width="18.24" height="18.24" rx="9.12"/><path class="cls-4" d="M282.3,174.52h6.19a15,15,0,0,1,15,15v17.2a4,4,0,0,1-4,4h-28.2a4,4,0,0,1-4-4v-17.2A15,15,0,0,1,282.3,174.52Z"/><rect class="cls-4" x="276.27" y="155.37" width="18.24" height="18.24" rx="9.12"/><path class="cls-4" d="M557.51,196.77h6.19a15,15,0,0,1,15,15V229a4,4,0,0,1-4,4h-28.2a4,4,0,0,1-4-4v-17.2a15,15,0,0,1,15-15Z"/><rect class="cls-4" x="551.49" y="177.62" width="18.24" height="18.24" rx="9.12"/><path class="cls-4" d="M575.6,340.15h6.19a15,15,0,0,1,15,15v17.2a4,4,0,0,1-4,4H564.6a4,4,0,0,1-4-4v-17.2A15,15,0,0,1,575.6,340.15Z"/><rect class="cls-4" x="569.58" y="321" width="18.24" height="18.24" rx="9.12"/><path class="cls-4" d="M581,411.34h6.19a15,15,0,0,1,15,15v17.2a4,4,0,0,1-4,4H570a4,4,0,0,1-4-4v-17.2a15,15,0,0,1,15-15Z"/><rect class="cls-4" x="575.01" y="392.18" width="18.24" height="18.24" rx="9.12"/><path class="cls-4" d="M613.1,223.38h6.19a15,15,0,0,1,15,15v17.2a4,4,0,0,1-4,4H602.1a4,4,0,0,1-4-4v-17.2a15,15,0,0,1,15-15Z"/><rect class="cls-4" x="607.08" y="204.23" width="18.24" height="18.24" rx="9.12"/><g id="Group_6201" data-name="Group 6201"><g id="Group_6242" data-name="Group 6242"><rect id="Rectangle_1567" data-name="Rectangle 1567" class="cls-5" x="323.3" y="272.85" width="230.85" height="18.29" rx="2.55"/><rect id="Rectangle_1634" data-name="Rectangle 1634" class="cls-6" x="315.5" y="208.94" width="245.81" height="68.83" rx="6.38"/><path id="Path_5065" data-name="Path 5065" class="cls-7" d="M322.35,208.94h83.28v68.83H322.35a6.85,6.85,0,0,1-6.85-6.85V215.79a6.85,6.85,0,0,1,6.85-6.85Z"/><g id="Group_115" data-name="Group 115"><path id="Rectangle_1425" data-name="Rectangle 1425" class="cls-8" d="M349.76,237.36h0a7.17,7.17,0,0,1,7.16,7.16v.57a7.16,7.16,0,0,1-7.16,7.16h0a7.16,7.16,0,0,1-7.16-7.16v-.57A7.17,7.17,0,0,1,349.76,237.36Z"/><path id="Rectangle_1442" data-name="Rectangle 1442" class="cls-9" d="M370.61,237.36h0a7.17,7.17,0,0,1,7.16,7.16v.57a7.16,7.16,0,0,1-7.16,7.16h0a7.15,7.15,0,0,1-7.16-7.16v-.57A7.16,7.16,0,0,1,370.61,237.36Z"/></g><g id="Group_5709" data-name="Group 5709"><g id="Group_5584" data-name="Group 5584"><rect id="Rectangle_1405" data-name="Rectangle 1405" class="cls-10" x="422.74" y="228.43" width="6.93" height="6.93" rx="3.46"/><rect id="Rectangle_1424" data-name="Rectangle 1424" class="cls-10" x="431.05" y="242.28" width="6.93" height="6.93" rx="3.46"/><rect id="Rectangle_1410" data-name="Rectangle 1410" class="cls-10" x="492" y="228.43" width="6.93" height="6.93" rx="3.46"/><rect id="Rectangle_1419" data-name="Rectangle 1419" class="cls-10" x="500.31" y="242.28" width="6.93" height="6.93" rx="3.46"/><rect id="Rectangle_1406" data-name="Rectangle 1406" class="cls-10" x="436.59" y="228.43" width="6.93" height="6.93" rx="3.46"/><rect id="Rectangle_1423" data-name="Rectangle 1423" class="cls-10" x="444.9" y="242.28" width="6.93" height="6.93" rx="3.46"/><rect id="Rectangle_1407" data-name="Rectangle 1407" class="cls-10" x="450.44" y="228.43" width="6.93" height="6.93" rx="3.46"/><rect id="Rectangle_1422" data-name="Rectangle 1422" class="cls-10" x="458.75" y="242.28" width="6.93" height="6.93" rx="3.46"/><rect id="Rectangle_1408" data-name="Rectangle 1408" class="cls-10" x="464.29" y="228.43" width="6.93" height="6.93" rx="3.46"/><rect id="Rectangle_1421" data-name="Rectangle 1421" class="cls-10" x="472.61" y="242.28" width="6.93" height="6.93" rx="3.46"/><rect id="Rectangle_1409" data-name="Rectangle 1409" class="cls-10" x="478.15" y="228.43" width="6.93" height="6.93" rx="3.46"/><rect id="Rectangle_1420" data-name="Rectangle 1420" class="cls-10" x="486.46" y="242.28" width="6.93" height="6.93" rx="3.46"/><rect id="Rectangle_2876" data-name="Rectangle 2876" class="cls-10" x="422.12" y="255.04" width="6.93" height="6.93" rx="3.46"/><rect id="Rectangle_2877" data-name="Rectangle 2877" class="cls-10" x="491.38" y="255.04" width="6.93" height="6.93" rx="3.46"/><rect id="Rectangle_2878" data-name="Rectangle 2878" class="cls-10" x="435.97" y="255.04" width="6.93" height="6.93" rx="3.46"/><rect id="Rectangle_2879" data-name="Rectangle 2879" class="cls-10" x="449.82" y="255.04" width="6.93" height="6.93" rx="3.46"/><rect id="Rectangle_2880" data-name="Rectangle 2880" class="cls-10" x="464.95" y="255.04" width="6.93" height="6.93" rx="3.46"/><rect id="Rectangle_2881" data-name="Rectangle 2881" class="cls-10" x="478.8" y="255.04" width="6.93" height="6.93" rx="3.46"/><rect id="Rectangle_2882" data-name="Rectangle 2882" class="cls-10" x="517.51" y="228.43" width="6.93" height="6.93" rx="3.46"/><rect id="Rectangle_2883" data-name="Rectangle 2883" class="cls-10" x="525.83" y="242.28" width="6.93" height="6.93" rx="3.46"/><rect id="Rectangle_2884" data-name="Rectangle 2884" class="cls-10" x="503.66" y="228.43" width="6.93" height="6.93" rx="3.46"/><rect id="Rectangle_2885" data-name="Rectangle 2885" class="cls-10" x="513.25" y="242.28" width="6.93" height="6.93" rx="3.46"/><rect id="Rectangle_2886" data-name="Rectangle 2886" class="cls-10" x="516.89" y="255.04" width="6.93" height="6.93" rx="3.46"/><rect id="Rectangle_2887" data-name="Rectangle 2887" class="cls-10" x="504.32" y="255.04" width="6.93" height="6.93" rx="3.46"/><rect id="Rectangle_2888" data-name="Rectangle 2888" class="cls-10" x="530.27" y="228.43" width="6.93" height="6.93" rx="3.46"/><rect id="Rectangle_2889" data-name="Rectangle 2889" class="cls-10" x="538.58" y="242.28" width="6.93" height="6.93" rx="3.46"/><rect id="Rectangle_2890" data-name="Rectangle 2890" class="cls-10" x="529.65" y="255.04" width="6.93" height="6.93" rx="3.46"/></g></g></g><g id="Group_6243" data-name="Group 6243"><rect id="Rectangle_1567-2" data-name="Rectangle 1567-2" class="cls-5" x="323.3" y="354.5" width="230.85" height="18.29" rx="2.55"/><rect id="Rectangle_1634-2" data-name="Rectangle 1634-2" class="cls-6" x="315.5" y="290.59" width="245.81" height="68.83" rx="6.38"/><path id="Path_5065-2" data-name="Path 5065-2" class="cls-7" d="M322.35,290.59h83.28v68.83H322.35a6.85,6.85,0,0,1-6.85-6.84V297.44a6.85,6.85,0,0,1,6.85-6.85Z"/><g id="Group_115-2" data-name="Group 115-2"><path id="Rectangle_1425-2" data-name="Rectangle 1425-2" class="cls-8" d="M349.76,319h0a7.17,7.17,0,0,1,7.16,7.16v.57a7.16,7.16,0,0,1-7.16,7.16h0a7.16,7.16,0,0,1-7.16-7.16v-.57A7.17,7.17,0,0,1,349.76,319Z"/><path id="Rectangle_1442-2" data-name="Rectangle 1442-2" class="cls-9" d="M370.61,319h0a7.17,7.17,0,0,1,7.16,7.16v.57a7.16,7.16,0,0,1-7.16,7.16h0a7.15,7.15,0,0,1-7.16-7.16v-.57A7.16,7.16,0,0,1,370.61,319Z"/></g><g id="Group_5709-2" data-name="Group 5709-2"><g id="Group_5584-2" data-name="Group 5584-2"><rect id="Rectangle_1405-2" data-name="Rectangle 1405-2" class="cls-10" x="422.74" y="310.08" width="6.93" height="6.93" rx="3.46"/><rect id="Rectangle_1424-2" data-name="Rectangle 1424-2" class="cls-10" x="431.05" y="323.93" width="6.93" height="6.93" rx="3.46"/><rect id="Rectangle_1410-2" data-name="Rectangle 1410-2" class="cls-10" x="492" y="310.08" width="6.93" height="6.93" rx="3.46"/><rect id="Rectangle_1419-2" data-name="Rectangle 1419-2" class="cls-10" x="500.31" y="323.93" width="6.93" height="6.93" rx="3.46"/><rect id="Rectangle_1406-2" data-name="Rectangle 1406-2" class="cls-10" x="436.59" y="310.08" width="6.93" height="6.93" rx="3.46"/><rect id="Rectangle_1423-2" data-name="Rectangle 1423-2" class="cls-10" x="444.9" y="323.93" width="6.93" height="6.93" rx="3.46"/><rect id="Rectangle_1407-2" data-name="Rectangle 1407-2" class="cls-10" x="450.44" y="310.08" width="6.93" height="6.93" rx="3.46"/><rect id="Rectangle_1422-2" data-name="Rectangle 1422-2" class="cls-10" x="458.75" y="323.93" width="6.93" height="6.93" rx="3.46"/><rect id="Rectangle_1408-2" data-name="Rectangle 1408-2" class="cls-10" x="464.29" y="310.08" width="6.93" height="6.93" rx="3.46"/><rect id="Rectangle_1421-2" data-name="Rectangle 1421-2" class="cls-10" x="472.61" y="323.93" width="6.93" height="6.93" rx="3.46"/><rect id="Rectangle_1409-2" data-name="Rectangle 1409-2" class="cls-10" x="478.15" y="310.08" width="6.93" height="6.93" rx="3.46"/><rect id="Rectangle_1420-2" data-name="Rectangle 1420-2" class="cls-10" x="486.46" y="323.93" width="6.93" height="6.93" rx="3.46"/><rect id="Rectangle_2876-2" data-name="Rectangle 2876-2" class="cls-10" x="422.12" y="336.69" width="6.93" height="6.93" rx="3.46"/><rect id="Rectangle_2877-2" data-name="Rectangle 2877-2" class="cls-10" x="491.38" y="336.69" width="6.93" height="6.93" rx="3.46"/><rect id="Rectangle_2878-2" data-name="Rectangle 2878-2" class="cls-10" x="435.97" y="336.69" width="6.93" height="6.93" rx="3.46"/><rect id="Rectangle_2879-2" data-name="Rectangle 2879-2" class="cls-10" x="449.82" y="336.69" width="6.93" height="6.93" rx="3.46"/><rect id="Rectangle_2880-2" data-name="Rectangle 2880-2" class="cls-10" x="464.95" y="336.69" width="6.93" height="6.93" rx="3.46"/><rect id="Rectangle_2881-2" data-name="Rectangle 2881-2" class="cls-10" x="478.8" y="336.69" width="6.93" height="6.93" rx="3.46"/><rect id="Rectangle_2882-2" data-name="Rectangle 2882-2" class="cls-10" x="517.51" y="310.08" width="6.93" height="6.93" rx="3.46"/><rect id="Rectangle_2883-2" data-name="Rectangle 2883-2" class="cls-10" x="525.83" y="323.93" width="6.93" height="6.93" rx="3.46"/><rect id="Rectangle_2884-2" data-name="Rectangle 2884-2" class="cls-10" x="503.66" y="310.08" width="6.93" height="6.93" rx="3.46"/><rect id="Rectangle_2885-2" data-name="Rectangle 2885-2" class="cls-10" x="513.25" y="323.93" width="6.93" height="6.93" rx="3.46"/><rect id="Rectangle_2886-2" data-name="Rectangle 2886-2" class="cls-10" x="516.89" y="336.69" width="6.93" height="6.93" rx="3.46"/><rect id="Rectangle_2887-2" data-name="Rectangle 2887-2" class="cls-10" x="504.32" y="336.69" width="6.93" height="6.93" rx="3.46"/><rect id="Rectangle_2888-2" data-name="Rectangle 2888-2" class="cls-10" x="530.27" y="310.08" width="6.93" height="6.93" rx="3.46"/><rect id="Rectangle_2889-2" data-name="Rectangle 2889-2" class="cls-10" x="538.58" y="323.93" width="6.93" height="6.93" rx="3.46"/><rect id="Rectangle_2890-2" data-name="Rectangle 2890-2" class="cls-10" x="529.65" y="336.69" width="6.93" height="6.93" rx="3.46"/></g></g></g><g id="Group_6244" data-name="Group 6244"><rect id="Rectangle_1567-3" data-name="Rectangle 1567-3" class="cls-5" x="323.3" y="191.2" width="230.85" height="18.29" rx="2.55"/><rect id="Rectangle_1634-3" data-name="Rectangle 1634-3" class="cls-6" x="315.5" y="127.29" width="245.81" height="68.83" rx="6.38"/><path id="Path_5065-3" data-name="Path 5065-3" class="cls-7" d="M322.35,127.29h83.28v68.83H322.35a6.85,6.85,0,0,1-6.85-6.85V134.13a6.85,6.85,0,0,1,6.85-6.84Z"/><g id="Group_115-3" data-name="Group 115-3"><path id="Rectangle_1425-3" data-name="Rectangle 1425-3" class="cls-8" d="M349.76,155.71h0a7.16,7.16,0,0,1,7.16,7.16v.57a7.17,7.17,0,0,1-7.16,7.16h0a7.17,7.17,0,0,1-7.16-7.16v-.57A7.16,7.16,0,0,1,349.76,155.71Z"/><path id="Rectangle_1442-3" data-name="Rectangle 1442-3" class="cls-9" d="M370.61,155.71h0a7.16,7.16,0,0,1,7.16,7.16v.57a7.17,7.17,0,0,1-7.16,7.16h0a7.16,7.16,0,0,1-7.16-7.16v-.57A7.15,7.15,0,0,1,370.61,155.71Z"/></g><g id="Group_5709-3" data-name="Group 5709-3"><g id="Group_5584-3" data-name="Group 5584-3"><rect id="Rectangle_1405-3" data-name="Rectangle 1405-3" class="cls-10" x="422.74" y="146.78" width="6.93" height="6.93" rx="3.46"/><rect id="Rectangle_1424-3" data-name="Rectangle 1424-3" class="cls-10" x="431.05" y="160.63" width="6.93" height="6.93" rx="3.46"/><rect id="Rectangle_1410-3" data-name="Rectangle 1410-3" class="cls-10" x="492" y="146.78" width="6.93" height="6.93" rx="3.46"/><rect id="Rectangle_1419-3" data-name="Rectangle 1419-3" class="cls-10" x="500.31" y="160.63" width="6.93" height="6.93" rx="3.46"/><rect id="Rectangle_1406-3" data-name="Rectangle 1406-3" class="cls-10" x="436.59" y="146.78" width="6.93" height="6.93" rx="3.46"/><rect id="Rectangle_1423-3" data-name="Rectangle 1423-3" class="cls-10" x="444.9" y="160.63" width="6.93" height="6.93" rx="3.46"/><rect id="Rectangle_1407-3" data-name="Rectangle 1407-3" class="cls-10" x="450.44" y="146.78" width="6.93" height="6.93" rx="3.46"/><rect id="Rectangle_1422-3" data-name="Rectangle 1422-3" class="cls-10" x="458.75" y="160.63" width="6.93" height="6.93" rx="3.46"/><rect id="Rectangle_1408-3" data-name="Rectangle 1408-3" class="cls-10" x="464.29" y="146.78" width="6.93" height="6.93" rx="3.46"/><rect id="Rectangle_1421-3" data-name="Rectangle 1421-3" class="cls-10" x="472.61" y="160.63" width="6.93" height="6.93" rx="3.46"/><rect id="Rectangle_1409-3" data-name="Rectangle 1409-3" class="cls-10" x="478.15" y="146.78" width="6.93" height="6.93" rx="3.46"/><rect id="Rectangle_1420-3" data-name="Rectangle 1420-3" class="cls-10" x="486.46" y="160.63" width="6.93" height="6.93" rx="3.46"/><rect id="Rectangle_2876-3" data-name="Rectangle 2876-3" class="cls-10" x="422.12" y="173.39" width="6.93" height="6.93" rx="3.46"/><rect id="Rectangle_2877-3" data-name="Rectangle 2877-3" class="cls-10" x="491.38" y="173.39" width="6.93" height="6.93" rx="3.46"/><rect id="Rectangle_2878-3" data-name="Rectangle 2878-3" class="cls-10" x="435.97" y="173.39" width="6.93" height="6.93" rx="3.46"/><rect id="Rectangle_2879-3" data-name="Rectangle 2879-3" class="cls-10" x="449.82" y="173.39" width="6.93" height="6.93" rx="3.46"/><rect id="Rectangle_2880-3" data-name="Rectangle 2880-3" class="cls-10" x="464.95" y="173.39" width="6.93" height="6.93" rx="3.46"/><rect id="Rectangle_2881-3" data-name="Rectangle 2881-3" class="cls-10" x="478.8" y="173.39" width="6.93" height="6.93" rx="3.46"/><rect id="Rectangle_2882-3" data-name="Rectangle 2882-3" class="cls-10" x="517.51" y="146.78" width="6.93" height="6.93" rx="3.46"/><rect id="Rectangle_2883-3" data-name="Rectangle 2883-3" class="cls-10" x="525.83" y="160.63" width="6.93" height="6.93" rx="3.46"/><rect id="Rectangle_2884-3" data-name="Rectangle 2884-3" class="cls-10" x="503.66" y="146.78" width="6.93" height="6.93" rx="3.46"/><rect id="Rectangle_2885-3" data-name="Rectangle 2885-3" class="cls-10" x="513.25" y="160.63" width="6.93" height="6.93" rx="3.46"/><rect id="Rectangle_2886-3" data-name="Rectangle 2886-3" class="cls-10" x="516.89" y="173.39" width="6.93" height="6.93" rx="3.46"/><rect id="Rectangle_2887-3" data-name="Rectangle 2887-3" class="cls-10" x="504.32" y="173.39" width="6.93" height="6.93" rx="3.46"/><rect id="Rectangle_2888-3" data-name="Rectangle 2888-3" class="cls-10" x="530.27" y="146.78" width="6.93" height="6.93" rx="3.46"/><rect id="Rectangle_2889-3" data-name="Rectangle 2889-3" class="cls-10" x="538.58" y="160.63" width="6.93" height="6.93" rx="3.46"/><rect id="Rectangle_2890-3" data-name="Rectangle 2890-3" class="cls-10" x="529.65" y="173.39" width="6.93" height="6.93" rx="3.46"/></g></g></g><g id="Group_6241" data-name="Group 6241"><rect id="Rectangle_1567-4" data-name="Rectangle 1567-4" class="cls-5" x="323.3" y="436.16" width="230.85" height="18.29" rx="2.55"/><rect id="Rectangle_1634-4" data-name="Rectangle 1634-4" class="cls-6" x="315.5" y="372.25" width="245.81" height="68.83" rx="6.38"/><path id="Path_5065-4" data-name="Path 5065-4" class="cls-7" d="M322.35,372.25h83.28v68.82H322.35a6.85,6.85,0,0,1-6.85-6.84V379.09a6.85,6.85,0,0,1,6.85-6.84Z"/><g id="Group_115-4" data-name="Group 115-4"><path id="Rectangle_1425-4" data-name="Rectangle 1425-4" class="cls-8" d="M349.76,400.67h0a7.16,7.16,0,0,1,7.16,7.16v.57a7.17,7.17,0,0,1-7.16,7.16h0a7.17,7.17,0,0,1-7.16-7.16v-.57A7.16,7.16,0,0,1,349.76,400.67Z"/><path id="Rectangle_1442-4" data-name="Rectangle 1442-4" class="cls-9" d="M370.61,400.67h0a7.16,7.16,0,0,1,7.16,7.16v.57a7.17,7.17,0,0,1-7.16,7.16h0a7.16,7.16,0,0,1-7.16-7.16v-.57A7.15,7.15,0,0,1,370.61,400.67Z"/></g><g id="Group_5709-4" data-name="Group 5709-4"><g id="Group_5584-4" data-name="Group 5584-4"><rect id="Rectangle_1405-4" data-name="Rectangle 1405-4" class="cls-10" x="422.74" y="391.74" width="6.93" height="6.93" rx="3.46"/><rect id="Rectangle_1424-4" data-name="Rectangle 1424-4" class="cls-10" x="431.05" y="405.59" width="6.93" height="6.93" rx="3.46"/><rect id="Rectangle_1410-4" data-name="Rectangle 1410-4" class="cls-10" x="492" y="391.74" width="6.93" height="6.93" rx="3.46"/><rect id="Rectangle_1419-4" data-name="Rectangle 1419-4" class="cls-10" x="500.31" y="405.59" width="6.93" height="6.93" rx="3.46"/><rect id="Rectangle_1406-4" data-name="Rectangle 1406-4" class="cls-10" x="436.59" y="391.74" width="6.93" height="6.93" rx="3.46"/><rect id="Rectangle_1423-4" data-name="Rectangle 1423-4" class="cls-10" x="444.9" y="405.59" width="6.93" height="6.93" rx="3.46"/><rect id="Rectangle_1407-4" data-name="Rectangle 1407-4" class="cls-10" x="450.44" y="391.74" width="6.93" height="6.93" rx="3.46"/><rect id="Rectangle_1422-4" data-name="Rectangle 1422-4" class="cls-10" x="458.75" y="405.59" width="6.93" height="6.93" rx="3.46"/><rect id="Rectangle_1408-4" data-name="Rectangle 1408-4" class="cls-10" x="464.29" y="391.74" width="6.93" height="6.93" rx="3.46"/><rect id="Rectangle_1421-4" data-name="Rectangle 1421-4" class="cls-10" x="472.61" y="405.59" width="6.93" height="6.93" rx="3.46"/><rect id="Rectangle_1409-4" data-name="Rectangle 1409-4" class="cls-10" x="478.15" y="391.74" width="6.93" height="6.93" rx="3.46"/><rect id="Rectangle_1420-4" data-name="Rectangle 1420-4" class="cls-10" x="486.46" y="405.59" width="6.93" height="6.93" rx="3.46"/><rect id="Rectangle_2876-4" data-name="Rectangle 2876-4" class="cls-10" x="422.12" y="418.34" width="6.93" height="6.93" rx="3.46"/><rect id="Rectangle_2877-4" data-name="Rectangle 2877-4" class="cls-10" x="491.38" y="418.34" width="6.93" height="6.93" rx="3.46"/><rect id="Rectangle_2878-4" data-name="Rectangle 2878-4" class="cls-10" x="435.97" y="418.34" width="6.93" height="6.93" rx="3.46"/><rect id="Rectangle_2879-4" data-name="Rectangle 2879-4" class="cls-10" x="449.82" y="418.34" width="6.93" height="6.93" rx="3.46"/><rect id="Rectangle_2880-4" data-name="Rectangle 2880-4" class="cls-10" x="464.95" y="418.34" width="6.93" height="6.93" rx="3.46"/><rect id="Rectangle_2881-4" data-name="Rectangle 2881-4" class="cls-10" x="478.8" y="418.34" width="6.93" height="6.93" rx="3.46"/><rect id="Rectangle_2882-4" data-name="Rectangle 2882-4" class="cls-10" x="517.51" y="391.74" width="6.93" height="6.93" rx="3.46"/><rect id="Rectangle_2883-4" data-name="Rectangle 2883-4" class="cls-10" x="525.83" y="405.59" width="6.93" height="6.93" rx="3.46"/><rect id="Rectangle_2884-4" data-name="Rectangle 2884-4" class="cls-10" x="503.66" y="391.74" width="6.93" height="6.93" rx="3.46"/><rect id="Rectangle_2885-4" data-name="Rectangle 2885-4" class="cls-10" x="513.25" y="405.59" width="6.93" height="6.93" rx="3.46"/><rect id="Rectangle_2886-4" data-name="Rectangle 2886-4" class="cls-10" x="516.89" y="418.34" width="6.93" height="6.93" rx="3.46"/><rect id="Rectangle_2887-4" data-name="Rectangle 2887-4" class="cls-10" x="504.32" y="418.34" width="6.93" height="6.93" rx="3.46"/><rect id="Rectangle_2888-4" data-name="Rectangle 2888-4" class="cls-10" x="530.27" y="391.74" width="6.93" height="6.93" rx="3.46"/><rect id="Rectangle_2889-4" data-name="Rectangle 2889-4" class="cls-10" x="538.58" y="405.59" width="6.93" height="6.93" rx="3.46"/><rect id="Rectangle_2890-4" data-name="Rectangle 2890-4" class="cls-10" x="529.65" y="418.34" width="6.93" height="6.93" rx="3.46"/></g></g></g><g id="Group_5964" data-name="Group 5964"><rect id="Rectangle_1634-5" data-name="Rectangle 1634-5" class="cls-6" x="315.5" y="453.9" width="245.81" height="68.83" rx="6.38"/><path id="Path_5065-5" data-name="Path 5065-5" class="cls-7" d="M322.35,453.9h83.28v68.83H322.35a6.85,6.85,0,0,1-6.85-6.85V460.74a6.85,6.85,0,0,1,6.85-6.84Z"/><g id="Group_115-5" data-name="Group 115-5"><path id="Rectangle_1425-5" data-name="Rectangle 1425-5" class="cls-8" d="M349.76,482.32h0a7.16,7.16,0,0,1,7.16,7.16v.57a7.17,7.17,0,0,1-7.16,7.16h0a7.16,7.16,0,0,1-7.16-7.16v-.57A7.15,7.15,0,0,1,349.76,482.32Z"/><path id="Rectangle_1442-5" data-name="Rectangle 1442-5" class="cls-9" d="M370.61,482.32h0a7.16,7.16,0,0,1,7.16,7.16v.57a7.17,7.17,0,0,1-7.16,7.16h0a7.16,7.16,0,0,1-7.16-7.16v-.57A7.15,7.15,0,0,1,370.61,482.32Z"/></g><g id="Group_5709-5" data-name="Group 5709-5"><g id="Group_5584-5" data-name="Group 5584-5"><rect id="Rectangle_1405-5" data-name="Rectangle 1405-5" class="cls-10" x="422.74" y="473.39" width="6.93" height="6.93" rx="3.46"/><rect id="Rectangle_1424-5" data-name="Rectangle 1424-5" class="cls-10" x="431.05" y="487.24" width="6.93" height="6.93" rx="3.46"/><rect id="Rectangle_1410-5" data-name="Rectangle 1410-5" class="cls-10" x="492" y="473.39" width="6.93" height="6.93" rx="3.46"/><rect id="Rectangle_1419-5" data-name="Rectangle 1419-5" class="cls-10" x="500.31" y="487.24" width="6.93" height="6.93" rx="3.46"/><rect id="Rectangle_1406-5" data-name="Rectangle 1406-5" class="cls-10" x="436.59" y="473.39" width="6.93" height="6.93" rx="3.46"/><rect id="Rectangle_1423-5" data-name="Rectangle 1423-5" class="cls-10" x="444.9" y="487.24" width="6.93" height="6.93" rx="3.46"/><rect id="Rectangle_1407-5" data-name="Rectangle 1407-5" class="cls-10" x="450.44" y="473.39" width="6.93" height="6.93" rx="3.46"/><rect id="Rectangle_1422-5" data-name="Rectangle 1422-5" class="cls-10" x="458.75" y="487.24" width="6.93" height="6.93" rx="3.46"/><rect id="Rectangle_1408-5" data-name="Rectangle 1408-5" class="cls-10" x="464.29" y="473.39" width="6.93" height="6.93" rx="3.46"/><rect id="Rectangle_1421-5" data-name="Rectangle 1421-5" class="cls-10" x="472.6" y="487.24" width="6.93" height="6.93" rx="3.46"/><rect id="Rectangle_1409-5" data-name="Rectangle 1409-5" class="cls-10" x="478.15" y="473.39" width="6.93" height="6.93" rx="3.46"/><rect id="Rectangle_1420-5" data-name="Rectangle 1420-5" class="cls-10" x="486.46" y="487.24" width="6.93" height="6.93" rx="3.46"/><rect id="Rectangle_2876-5" data-name="Rectangle 2876-5" class="cls-10" x="422.12" y="500" width="6.93" height="6.93" rx="3.46"/><rect id="Rectangle_2877-5" data-name="Rectangle 2877-5" class="cls-10" x="491.38" y="500" width="6.93" height="6.93" rx="3.46"/><rect id="Rectangle_2878-5" data-name="Rectangle 2878-5" class="cls-10" x="435.97" y="500" width="6.93" height="6.93" rx="3.46"/><rect id="Rectangle_2879-5" data-name="Rectangle 2879-5" class="cls-10" x="449.82" y="500" width="6.93" height="6.93" rx="3.46"/><rect id="Rectangle_2880-5" data-name="Rectangle 2880-5" class="cls-10" x="464.95" y="500" width="6.93" height="6.93" rx="3.46"/><rect id="Rectangle_2881-5" data-name="Rectangle 2881-5" class="cls-10" x="478.8" y="500" width="6.93" height="6.93" rx="3.46"/><rect id="Rectangle_2882-5" data-name="Rectangle 2882-5" class="cls-10" x="517.51" y="473.39" width="6.93" height="6.93" rx="3.46"/><rect id="Rectangle_2883-5" data-name="Rectangle 2883-5" class="cls-10" x="525.82" y="487.24" width="6.93" height="6.93" rx="3.46"/><rect id="Rectangle_2884-5" data-name="Rectangle 2884-5" class="cls-10" x="503.66" y="473.39" width="6.93" height="6.93" rx="3.46"/><rect id="Rectangle_2885-5" data-name="Rectangle 2885-5" class="cls-10" x="513.25" y="487.24" width="6.93" height="6.93" rx="3.46"/><rect id="Rectangle_2886-5" data-name="Rectangle 2886-5" class="cls-10" x="516.89" y="500" width="6.93" height="6.93" rx="3.46"/><rect id="Rectangle_2887-5" data-name="Rectangle 2887-5" class="cls-10" x="504.32" y="500" width="6.93" height="6.93" rx="3.46"/><rect id="Rectangle_2888-5" data-name="Rectangle 2888-5" class="cls-10" x="530.27" y="473.39" width="6.93" height="6.93" rx="3.46"/><rect id="Rectangle_2889-5" data-name="Rectangle 2889-5" class="cls-10" x="538.58" y="487.24" width="6.93" height="6.93" rx="3.46"/><rect id="Rectangle_2890-5" data-name="Rectangle 2890-5" class="cls-10" x="529.65" y="500" width="6.93" height="6.93" rx="3.46"/></g></g></g></g><path id="Path_5767" data-name="Path 5767" class="cls-11" d="M294.41,199.33c-24.64-20.49-84.33,13.09-120.72-32.45S111.94,191.74,58.87,187.7,116.69,313,206.56,273.29c23.37-10.33,76.36-9.48,87.85-15.69C325.82,240.63,319,219.81,294.41,199.33Z"/><g id="Group_6372" data-name="Group 6372"><ellipse id="Ellipse_1308" data-name="Ellipse 1308" class="cls-12" cx="579.98" cy="521.01" rx="44.14" ry="9.81"/><g id="Group_6364" data-name="Group 6364"><path id="Path_5763" data-name="Path 5763" class="cls-13" d="M580.41,408.86s3-9.7,12.54-19.1"/><path id="Path_5761" data-name="Path 5761" class="cls-14" d="M538.59,376.31s18.89,2.07,32,12.75"/><path id="Path_5762" data-name="Path 5762" class="cls-13" d="M568.86,374.9s-.06-13.64,8.16-23.42"/></g><g id="Group_6371" data-name="Group 6371"><path id="Path_5783" data-name="Path 5783" class="cls-15" d="M601.41,395c.43-16,.11-30.63-11.86-23.73-4.32,3.24-8.63,2.16-8.63-3.24L582,356.2s0-18.34-15.1-3.24c-9.71,10.79-9.71,21.58-7.56,31.28l9.71,21.58,13,11.86,19.41-6.47Z"/><path id="Path_5781-2" data-name="Path 5781-2" class="cls-4" d="M574.44,399.34c-1.08,8.63,7.56,9.71,7.56,9.71l8.62-7.55-1.08,30.2c5.4,5.4-26.64,6.15-33.44,3.24-5.39-1.08-8.63-7.55-3.23-9.71l3.23-2.16c3.24-2.15,1.62-5.17-3.23-5.39-13.27.76-25.89-2.59-36.68-18.34-2.15-3.23-1.4-6.47,3.24-6.47,5.28-1,7.55-3.24,1.08-9.71-27-20.49,5.39-45.3,16.18-35.59,5.5,4.53,7.55,21.57,7.55,21.57s2.16,17.26,15.1,8.63c.33-.21.54-.43.87-.65C568.62,370.87,577.57,381.55,574.44,399.34Z"/><path id="Path_5785-2" data-name="Path 5785-2" class="cls-16" d="M591.71,444.64c-9.38-11.11-16.18-30.2-7.55-43.15,6.47-9.92,12.94-16.61,19.41-6.47,3.24,3.34,8.63,3.24,8.63-3.24-2.26-23.83-1.83-43.79,17.26-35.59,5,2.48,7.55.43,7.55-6.47-6.47-27,33.44-28.05,24.81-1.08-8.2,12.29-8.52,16.5-5.4,17.26,20.71.43,15.32,14.23-2.48,33.54a4.34,4.34,0,0,0,.26,6.12,3.9,3.9,0,0,0,.61.46c7.76,4.75,19.36,13-14,31.51C626.28,445.52,609.61,446.91,591.71,444.64Z"/><path id="Path_5807" data-name="Path 5807" class="cls-17" d="M530.25,374.59h-2.17c2.06,12.93,11.19,23.9,22.27,31,23.47,14.34,34.44,30.86,24.45,55.95h8.69c1.41-7.71,7.49-15.32,19.55-22.81,26.08-18.47,28.9-29.34,29.34-51.07l-2.18-2.17c.54,14.34-2.17,27.16-15.21,39.11l-31.5,23.9c1.08-32.59-29.34-44.54-29.34-44.54S535.14,395.77,530.25,374.59Z"/></g><path id="Path_5786-2" data-name="Path 5786-2" class="cls-18" d="M550.62,460.11h61.26L607,522.84H555.52Z"/><path id="Path_5787" data-name="Path 5787" class="cls-19" d="M615.39,431.74s5.71-4.46,16.31-1.2"/><path id="Path_5790" data-name="Path 5790" class="cls-20" d="M624,424.42s6.14-3.85,16.36.5"/><path id="Path_5791" data-name="Path 5791" class="cls-21" d="M630.53,416.15s6.45-3.29,16.24,1.93"/><path id="Path_5792" data-name="Path 5792" class="cls-22" d="M632.63,408.38s6.07-3.95,16.36.22"/><path id="Path_5793" data-name="Path 5793" class="cls-23" d="M634.8,400.32s5.78-4.36,16.33-.92"/><path id="Path_5794" data-name="Path 5794" class="cls-23" d="M634.8,392.77s5.78-4.36,16.33-.92"/><path id="Path_5795" data-name="Path 5795" class="cls-24" d="M635.45,386.91s3.94-6.08,15-6.46"/><path id="Path_5797" data-name="Path 5797" class="cls-25" d="M595,414.2s6.67,2.82,9,13.68"/><path id="Path_5798" data-name="Path 5798" class="cls-26" d="M600.39,407.75s6.34,3.51,7.49,14.55"/><path id="Path_5799" data-name="Path 5799" class="cls-27" d="M606.68,401.37s6.07,3.94,6.45,15"/><path id="Path_5800" data-name="Path 5800" class="cls-28" d="M615.17,397.8s5.55,4.65,4.57,15.7"/><path id="Path_5801" data-name="Path 5801" class="cls-27" d="M618.28,386.38s6.21,3.73,7,14.8"/><path id="Path_5802" data-name="Path 5802" class="cls-29" d="M621.91,374.35s6,4,6.19,15.14"/><path id="Path_5803" data-name="Path 5803" class="cls-22" d="M633.74,367.27s4,6.07-.22,16.36"/><path id="Path_5804" data-name="Path 5804" class="cls-30" d="M569.12,356.06s4.45.17,8,5.82"/><path id="Path_5805" data-name="Path 5805" class="cls-30" d="M567.46,361.2s4.46.16,8,5.81"/><path id="Path_5806" data-name="Path 5806" class="cls-30" d="M565.81,366.33s4.45.17,8,5.82"/></g></g></svg>