<svg id="Layer_1" data-name="Layer 1" xmlns="http://www.w3.org/2000/svg" xmlns:xlink="http://www.w3.org/1999/xlink" viewBox="0 0 838.29 614.87"><defs><style>.cls-1{fill:url(#linear-gradient);}.cls-2,.cls-4{fill:#c6e6ff;}.cls-2{opacity:0.58;}.cls-11,.cls-12,.cls-13,.cls-14,.cls-2,.cls-20,.cls-21,.cls-22,.cls-23,.cls-24,.cls-25,.cls-26,.cls-27,.cls-28,.cls-29,.cls-30,.cls-31,.cls-4{isolation:isolate;}.cls-3{fill:url(#linear-gradient-2);}.cls-4{opacity:0.44;}.cls-5{fill:#164571;}.cls-6{fill:#0e71bb;}.cls-7{fill:#005b9f;}.cls-8{fill:#21e2e2;}.cls-9{fill:#ffbc98;}.cls-10{fill:#52acea;}.cls-11,.cls-12{opacity:0.64;}.cls-11{fill:url(#linear-gradient-3);}.cls-12{fill:url(#linear-gradient-4);}.cls-13,.cls-14,.cls-20,.cls-21,.cls-22,.cls-23,.cls-24,.cls-25,.cls-26,.cls-27,.cls-28,.cls-29,.cls-30,.cls-31{fill:none;}.cls-13,.cls-14,.cls-16,.cls-20,.cls-21,.cls-22,.cls-23,.cls-24,.cls-25,.cls-26,.cls-27,.cls-28,.cls-29,.cls-30,.cls-31{stroke:#fff;}.cls-13,.cls-14{opacity:0.3;}.cls-14{stroke-miterlimit:4;}.cls-15{fill:url(#linear-gradient-5);}.cls-16,.cls-35{fill:#fff;}.cls-16,.cls-32{stroke-miterlimit:10;}.cls-17{fill:url(#linear-gradient-6);}.cls-18{fill:#137fcf;}.cls-19{fill:url(#linear-gradient-7);}.cls-20,.cls-21,.cls-22,.cls-23,.cls-24,.cls-25,.cls-26,.cls-27,.cls-28,.cls-29,.cls-30,.cls-31{opacity:0.23;}.cls-25{stroke-miterlimit:4;}.cls-32{fill:#5fbeed;stroke:#0e71bb;stroke-width:3.6px;}.cls-33{fill:#156aa9;}.cls-34{fill:url(#linear-gradient-8);}.cls-36{fill:url(#linear-gradient-9);}.cls-37{fill:url(#linear-gradient-10);}.cls-38{fill:url(#linear-gradient-11);}</style><linearGradient id="linear-gradient" x1="-98.7" y1="561.2" x2="-98.71" y2="562.33" gradientTransform="translate(-72659.3 344424.08) rotate(180) scale(740.56 612.51)" gradientUnits="userSpaceOnUse"><stop offset="0" stop-color="#c6e6ff"/><stop offset="1" stop-color="#fff"/></linearGradient><linearGradient id="linear-gradient-2" x1="-92.05" y1="357.03" x2="-92.05" y2="355.02" gradientTransform="matrix(561, 0, 0, -80, 52078, 28949.57)" gradientUnits="userSpaceOnUse"><stop offset="0" stop-color="#288ed9"/><stop offset="1" stop-color="#137fcf" stop-opacity="0.05"/></linearGradient><linearGradient id="linear-gradient-3" x1="34.27" y1="-280.59" x2="34.27" y2="-279.78" gradientTransform="matrix(97.87, 0, 0, -21.75, -3074.52, -5579.62)" gradientUnits="userSpaceOnUse"><stop offset="0" stop-color="#288ed9" stop-opacity="0"/><stop offset="1" stop-color="#005b9f"/></linearGradient><linearGradient id="linear-gradient-4" x1="37.19" y1="-281.25" x2="37.19" y2="-279.75" xlink:href="#linear-gradient-3"/><linearGradient id="linear-gradient-5" x1="193.77" y1="350.57" x2="193.77" y2="349.76" gradientTransform="matrix(48.04, 0, 0, -78.36, -9029.52, 27829.38)" gradientUnits="userSpaceOnUse"><stop offset="0" stop-color="#419ee3"/><stop offset="1" stop-color="#0d79c9"/></linearGradient><linearGradient id="linear-gradient-6" x1="32.08" y1="446.18" x2="31.82" y2="445.29" gradientTransform="matrix(99.31, 0, 0, -129.35, -2852.7, 58058.46)" gradientUnits="userSpaceOnUse"><stop offset="0" stop-color="#ffbc98"/><stop offset="1" stop-color="#ff9f6c"/></linearGradient><linearGradient id="linear-gradient-7" x1="101.75" y1="319.73" x2="102.47" y2="319.73" gradientTransform="matrix(67.91, 0, 0, -69.54, -6653.45, 22721.86)" gradientUnits="userSpaceOnUse"><stop offset="0" stop-color="#21e2e2"/><stop offset="1" stop-color="#19dbdb"/></linearGradient><linearGradient id="linear-gradient-8" x1="543.75" y1="446.67" x2="600.75" y2="446.67" gradientTransform="matrix(1, 0, 0, 1, 0, 0)" xlink:href="#linear-gradient-6"/><linearGradient id="linear-gradient-9" x1="474.13" y1="314.4" x2="531.13" y2="314.4" gradientTransform="matrix(1, 0, 0, 1, 0, 0)" xlink:href="#linear-gradient-6"/><linearGradient id="linear-gradient-10" x1="531.39" y1="217.56" x2="588.39" y2="217.56" gradientTransform="matrix(1, 0, 0, 1, 0, 0)" xlink:href="#linear-gradient-6"/><linearGradient id="linear-gradient-11" x1="483.14" y1="99.59" x2="540.14" y2="99.59" gradientTransform="matrix(1, 0, 0, 1, 0, 0)" xlink:href="#linear-gradient-6"/></defs><title>Artboard 1 copy</title><g id="Group_8035" data-name="Group 8035"><path id="Path_5765" data-name="Path 5765" class="cls-1" d="M661.23,549.17c-107.85,42.48-152.29,13.4-216.83,8.43C370.92,552.32,329.21,583,255,580.85c-78.31-4-84.82-59.34-134.78-214S206,191.57,206,191.57,329.38,160.64,437.1,91.9C821.16-150.4,834,472.8,661.23,549.17Z"/><path id="Path_5766" data-name="Path 5766" class="cls-2" d="M405.55,195.6c-24.66,15.86-75.12-21.29-113.25,16s-53.31-29.47-102-31.71,74.17-89.85,151.36-43.75c20.07,12,81.24-3.2,91,3.72C459.31,158.79,430.21,179.75,405.55,195.6Z"/><ellipse id="Ellipse_1273" data-name="Ellipse 1273" class="cls-3" cx="438.24" cy="507.8" rx="280.5" ry="40"/><path id="Path_5767" data-name="Path 5767" class="cls-4" d="M732.23,305.38c-24.64-20.49-84.33,13.09-120.72-32.45s-61.75,24.87-114.82,20.82,57.82,125.31,147.69,85.59c23.37-10.33,76.36-9.48,87.85-15.69C763.64,346.68,756.86,325.86,732.23,305.38Z"/><g id="Group_6201" data-name="Group 6201"><g id="Group_6242" data-name="Group 6242"><rect id="Rectangle_1567" data-name="Rectangle 1567" class="cls-5" x="331.85" y="276.73" width="213.7" height="16.93" rx="2.36"/><rect id="Rectangle_1634" data-name="Rectangle 1634" class="cls-6" x="324.63" y="217.56" width="227.55" height="63.71" rx="5.91"/><path id="Path_5065" data-name="Path 5065" class="cls-7" d="M331,217.56h77.1v63.72H331a6.34,6.34,0,0,1-6.34-6.34v-51a6.34,6.34,0,0,1,6.34-6.34Z"/><g id="Group_115" data-name="Group 115"><path id="Rectangle_1425" data-name="Rectangle 1425" class="cls-8" d="M356.35,243.87h0A6.62,6.62,0,0,1,363,250.5V251a6.62,6.62,0,0,1-6.62,6.63h0a6.63,6.63,0,0,1-6.63-6.63v-.53A6.63,6.63,0,0,1,356.35,243.87Z"/><path id="Rectangle_1442" data-name="Rectangle 1442" class="cls-9" d="M375.64,243.87h0a6.63,6.63,0,0,1,6.63,6.63V251a6.63,6.63,0,0,1-6.63,6.63h0A6.62,6.62,0,0,1,369,251v-.53A6.62,6.62,0,0,1,375.64,243.87Z"/></g><g id="Group_5709" data-name="Group 5709"><g id="Group_5584" data-name="Group 5584"><rect id="Rectangle_1405" data-name="Rectangle 1405" class="cls-10" x="423.9" y="235.6" width="6.41" height="6.41" rx="3.21"/><rect id="Rectangle_1424" data-name="Rectangle 1424" class="cls-10" x="431.6" y="248.43" width="6.41" height="6.41" rx="3.21"/><rect id="Rectangle_1410" data-name="Rectangle 1410" class="cls-10" x="488.02" y="235.6" width="6.41" height="6.41" rx="3.21"/><rect id="Rectangle_1419" data-name="Rectangle 1419" class="cls-10" x="495.71" y="248.43" width="6.41" height="6.41" rx="3.21"/><rect id="Rectangle_1406" data-name="Rectangle 1406" class="cls-10" x="436.73" y="235.6" width="6.41" height="6.41" rx="3.21"/><rect id="Rectangle_1423" data-name="Rectangle 1423" class="cls-10" x="444.42" y="248.43" width="6.41" height="6.41" rx="3.21"/><rect id="Rectangle_1407" data-name="Rectangle 1407" class="cls-10" x="449.55" y="235.6" width="6.41" height="6.41" rx="3.21"/><rect id="Rectangle_1422" data-name="Rectangle 1422" class="cls-10" x="457.24" y="248.43" width="6.41" height="6.41" rx="3.21"/><rect id="Rectangle_1408" data-name="Rectangle 1408" class="cls-10" x="462.37" y="235.6" width="6.41" height="6.41" rx="3.21"/><rect id="Rectangle_1421" data-name="Rectangle 1421" class="cls-10" x="470.07" y="248.43" width="6.41" height="6.41" rx="3.21"/><rect id="Rectangle_1409" data-name="Rectangle 1409" class="cls-10" x="475.2" y="235.6" width="6.41" height="6.41" rx="3.21"/><rect id="Rectangle_1420" data-name="Rectangle 1420" class="cls-10" x="482.89" y="248.43" width="6.41" height="6.41" rx="3.21"/><rect id="Rectangle_2876" data-name="Rectangle 2876" class="cls-10" x="423.33" y="260.24" width="6.41" height="6.41" rx="3.21"/><rect id="Rectangle_2877" data-name="Rectangle 2877" class="cls-10" x="487.44" y="260.24" width="6.41" height="6.41" rx="3.21"/><rect id="Rectangle_2878" data-name="Rectangle 2878" class="cls-10" x="436.15" y="260.24" width="6.41" height="6.41" rx="3.21"/><rect id="Rectangle_2879" data-name="Rectangle 2879" class="cls-10" x="448.98" y="260.24" width="6.41" height="6.41" rx="3.21"/><rect id="Rectangle_2880" data-name="Rectangle 2880" class="cls-10" x="462.98" y="260.24" width="6.41" height="6.41" rx="3.21"/><rect id="Rectangle_2881" data-name="Rectangle 2881" class="cls-10" x="475.8" y="260.24" width="6.41" height="6.41" rx="3.21"/><rect id="Rectangle_2882" data-name="Rectangle 2882" class="cls-10" x="511.64" y="235.6" width="6.41" height="6.41" rx="3.21"/><rect id="Rectangle_2883" data-name="Rectangle 2883" class="cls-10" x="519.33" y="248.43" width="6.41" height="6.41" rx="3.21"/><rect id="Rectangle_2884" data-name="Rectangle 2884" class="cls-10" x="498.81" y="235.6" width="6.41" height="6.41" rx="3.21"/><rect id="Rectangle_2885" data-name="Rectangle 2885" class="cls-10" x="507.69" y="248.43" width="6.41" height="6.41" rx="3.21"/><rect id="Rectangle_2886" data-name="Rectangle 2886" class="cls-10" x="511.06" y="260.24" width="6.41" height="6.41" rx="3.21"/><rect id="Rectangle_2887" data-name="Rectangle 2887" class="cls-10" x="499.42" y="260.24" width="6.41" height="6.41" rx="3.21"/><rect id="Rectangle_2888" data-name="Rectangle 2888" class="cls-10" x="523.45" y="235.6" width="6.41" height="6.41" rx="3.21"/><rect id="Rectangle_2889" data-name="Rectangle 2889" class="cls-10" x="531.14" y="248.43" width="6.41" height="6.41" rx="3.21"/><rect id="Rectangle_2890" data-name="Rectangle 2890" class="cls-10" x="522.87" y="260.24" width="6.41" height="6.41" rx="3.21"/></g></g></g><g id="Group_6243" data-name="Group 6243"><rect id="Rectangle_1567-2" data-name="Rectangle 1567-2" class="cls-5" x="331.85" y="352.31" width="213.7" height="16.93" rx="2.36"/><rect id="Rectangle_1634-2" data-name="Rectangle 1634-2" class="cls-6" x="324.63" y="293.15" width="227.55" height="63.71" rx="5.91"/><path id="Path_5065-2" data-name="Path 5065-2" class="cls-7" d="M331,293.15h77.1v63.71H331a6.33,6.33,0,0,1-6.34-6.33v-51a6.34,6.34,0,0,1,6.34-6.34Z"/><g id="Group_115-2" data-name="Group 115-2"><path id="Rectangle_1425-2" data-name="Rectangle 1425-2" class="cls-8" d="M356.35,319.46h0a6.62,6.62,0,0,1,6.62,6.63v.52a6.62,6.62,0,0,1-6.62,6.63h0a6.62,6.62,0,0,1-6.63-6.63v-.52A6.63,6.63,0,0,1,356.35,319.46Z"/><path id="Rectangle_1442-2" data-name="Rectangle 1442-2" class="cls-9" d="M375.64,319.46h0a6.63,6.63,0,0,1,6.63,6.63v.52a6.63,6.63,0,0,1-6.63,6.63h0a6.62,6.62,0,0,1-6.62-6.63v-.52A6.62,6.62,0,0,1,375.64,319.46Z"/></g><g id="Group_5709-2" data-name="Group 5709-2"><g id="Group_5584-2" data-name="Group 5584-2"><rect id="Rectangle_1405-2" data-name="Rectangle 1405-2" class="cls-10" x="423.9" y="311.19" width="6.41" height="6.41" rx="3.21"/><rect id="Rectangle_1424-2" data-name="Rectangle 1424-2" class="cls-10" x="431.6" y="324.01" width="6.41" height="6.41" rx="3.21"/><rect id="Rectangle_1410-2" data-name="Rectangle 1410-2" class="cls-10" x="488.02" y="311.19" width="6.41" height="6.41" rx="3.21"/><rect id="Rectangle_1419-2" data-name="Rectangle 1419-2" class="cls-10" x="495.71" y="324.01" width="6.41" height="6.41" rx="3.21"/><rect id="Rectangle_1406-2" data-name="Rectangle 1406-2" class="cls-10" x="436.73" y="311.19" width="6.41" height="6.41" rx="3.21"/><rect id="Rectangle_1423-2" data-name="Rectangle 1423-2" class="cls-10" x="444.42" y="324.01" width="6.41" height="6.41" rx="3.21"/><rect id="Rectangle_1407-2" data-name="Rectangle 1407-2" class="cls-10" x="449.55" y="311.19" width="6.41" height="6.41" rx="3.21"/><rect id="Rectangle_1422-2" data-name="Rectangle 1422-2" class="cls-10" x="457.24" y="324.01" width="6.41" height="6.41" rx="3.21"/><rect id="Rectangle_1408-2" data-name="Rectangle 1408-2" class="cls-10" x="462.37" y="311.19" width="6.41" height="6.41" rx="3.21"/><rect id="Rectangle_1421-2" data-name="Rectangle 1421-2" class="cls-10" x="470.07" y="324.01" width="6.41" height="6.41" rx="3.21"/><rect id="Rectangle_1409-2" data-name="Rectangle 1409-2" class="cls-10" x="475.2" y="311.19" width="6.41" height="6.41" rx="3.21"/><rect id="Rectangle_1420-2" data-name="Rectangle 1420-2" class="cls-10" x="482.89" y="324.01" width="6.41" height="6.41" rx="3.21"/><rect id="Rectangle_2876-2" data-name="Rectangle 2876-2" class="cls-10" x="423.33" y="335.82" width="6.41" height="6.41" rx="3.21"/><rect id="Rectangle_2877-2" data-name="Rectangle 2877-2" class="cls-10" x="487.44" y="335.82" width="6.41" height="6.41" rx="3.21"/><rect id="Rectangle_2878-2" data-name="Rectangle 2878-2" class="cls-10" x="436.15" y="335.82" width="6.41" height="6.41" rx="3.21"/><rect id="Rectangle_2879-2" data-name="Rectangle 2879-2" class="cls-10" x="448.98" y="335.82" width="6.41" height="6.41" rx="3.21"/><rect id="Rectangle_2880-2" data-name="Rectangle 2880-2" class="cls-10" x="462.98" y="335.82" width="6.41" height="6.41" rx="3.21"/><rect id="Rectangle_2881-2" data-name="Rectangle 2881-2" class="cls-10" x="475.8" y="335.82" width="6.41" height="6.41" rx="3.21"/><rect id="Rectangle_2882-2" data-name="Rectangle 2882-2" class="cls-10" x="511.64" y="311.19" width="6.41" height="6.41" rx="3.21"/><rect id="Rectangle_2883-2" data-name="Rectangle 2883-2" class="cls-10" x="519.33" y="324.01" width="6.41" height="6.41" rx="3.21"/><rect id="Rectangle_2884-2" data-name="Rectangle 2884-2" class="cls-10" x="498.81" y="311.19" width="6.41" height="6.41" rx="3.21"/><rect id="Rectangle_2885-2" data-name="Rectangle 2885-2" class="cls-10" x="507.69" y="324.01" width="6.41" height="6.41" rx="3.21"/><rect id="Rectangle_2886-2" data-name="Rectangle 2886-2" class="cls-10" x="511.06" y="335.82" width="6.41" height="6.41" rx="3.21"/><rect id="Rectangle_2887-2" data-name="Rectangle 2887-2" class="cls-10" x="499.42" y="335.82" width="6.41" height="6.41" rx="3.21"/><rect id="Rectangle_2888-2" data-name="Rectangle 2888-2" class="cls-10" x="523.45" y="311.19" width="6.41" height="6.41" rx="3.21"/><rect id="Rectangle_2889-2" data-name="Rectangle 2889-2" class="cls-10" x="531.14" y="324.01" width="6.41" height="6.41" rx="3.21"/><rect id="Rectangle_2890-2" data-name="Rectangle 2890-2" class="cls-10" x="522.87" y="335.82" width="6.41" height="6.41" rx="3.21"/></g></g></g><g id="Group_6244" data-name="Group 6244"><rect id="Rectangle_1567-3" data-name="Rectangle 1567-3" class="cls-5" x="331.85" y="201.14" width="213.7" height="16.93" rx="2.36"/><rect id="Rectangle_1634-3" data-name="Rectangle 1634-3" class="cls-6" x="324.63" y="141.98" width="227.55" height="63.71" rx="5.91"/><path id="Path_5065-3" data-name="Path 5065-3" class="cls-7" d="M331,142h77.1v63.71H331a6.34,6.34,0,0,1-6.34-6.34v-51A6.33,6.33,0,0,1,331,142Z"/><g id="Group_115-3" data-name="Group 115-3"><path id="Rectangle_1425-3" data-name="Rectangle 1425-3" class="cls-8" d="M356.35,168.29h0a6.62,6.62,0,0,1,6.62,6.62v.53a6.62,6.62,0,0,1-6.62,6.63h0a6.63,6.63,0,0,1-6.63-6.63v-.53A6.62,6.62,0,0,1,356.35,168.29Z"/><path id="Rectangle_1442-3" data-name="Rectangle 1442-3" class="cls-9" d="M375.64,168.29h0a6.62,6.62,0,0,1,6.63,6.62v.53a6.63,6.63,0,0,1-6.63,6.63h0a6.62,6.62,0,0,1-6.62-6.63v-.53A6.62,6.62,0,0,1,375.64,168.29Z"/></g><g id="Group_5709-3" data-name="Group 5709-3"><g id="Group_5584-3" data-name="Group 5584-3"><rect id="Rectangle_1405-3" data-name="Rectangle 1405-3" class="cls-10" x="423.9" y="160.02" width="6.41" height="6.41" rx="3.21"/><rect id="Rectangle_1424-3" data-name="Rectangle 1424-3" class="cls-10" x="431.6" y="172.84" width="6.41" height="6.41" rx="3.21"/><rect id="Rectangle_1410-3" data-name="Rectangle 1410-3" class="cls-10" x="488.02" y="160.02" width="6.41" height="6.41" rx="3.21"/><rect id="Rectangle_1419-3" data-name="Rectangle 1419-3" class="cls-10" x="495.71" y="172.84" width="6.41" height="6.41" rx="3.21"/><rect id="Rectangle_1406-3" data-name="Rectangle 1406-3" class="cls-10" x="436.73" y="160.02" width="6.41" height="6.41" rx="3.21"/><rect id="Rectangle_1423-3" data-name="Rectangle 1423-3" class="cls-10" x="444.42" y="172.84" width="6.41" height="6.41" rx="3.21"/><rect id="Rectangle_1407-3" data-name="Rectangle 1407-3" class="cls-10" x="449.55" y="160.02" width="6.41" height="6.41" rx="3.21"/><rect id="Rectangle_1422-3" data-name="Rectangle 1422-3" class="cls-10" x="457.24" y="172.84" width="6.41" height="6.41" rx="3.21"/><rect id="Rectangle_1408-3" data-name="Rectangle 1408-3" class="cls-10" x="462.37" y="160.02" width="6.41" height="6.41" rx="3.21"/><rect id="Rectangle_1421-3" data-name="Rectangle 1421-3" class="cls-10" x="470.07" y="172.84" width="6.41" height="6.41" rx="3.21"/><rect id="Rectangle_1409-3" data-name="Rectangle 1409-3" class="cls-10" x="475.2" y="160.02" width="6.41" height="6.41" rx="3.21"/><rect id="Rectangle_1420-3" data-name="Rectangle 1420-3" class="cls-10" x="482.89" y="172.84" width="6.41" height="6.41" rx="3.21"/><rect id="Rectangle_2876-3" data-name="Rectangle 2876-3" class="cls-10" x="423.33" y="184.65" width="6.41" height="6.41" rx="3.21"/><rect id="Rectangle_2877-3" data-name="Rectangle 2877-3" class="cls-10" x="487.44" y="184.65" width="6.41" height="6.41" rx="3.21"/><rect id="Rectangle_2878-3" data-name="Rectangle 2878-3" class="cls-10" x="436.15" y="184.65" width="6.41" height="6.41" rx="3.21"/><rect id="Rectangle_2879-3" data-name="Rectangle 2879-3" class="cls-10" x="448.98" y="184.65" width="6.41" height="6.41" rx="3.21"/><rect id="Rectangle_2880-3" data-name="Rectangle 2880-3" class="cls-10" x="462.98" y="184.65" width="6.41" height="6.41" rx="3.21"/><rect id="Rectangle_2881-3" data-name="Rectangle 2881-3" class="cls-10" x="475.8" y="184.65" width="6.41" height="6.41" rx="3.21"/><rect id="Rectangle_2882-3" data-name="Rectangle 2882-3" class="cls-10" x="511.64" y="160.02" width="6.41" height="6.41" rx="3.21"/><rect id="Rectangle_2883-3" data-name="Rectangle 2883-3" class="cls-10" x="519.33" y="172.84" width="6.41" height="6.41" rx="3.21"/><rect id="Rectangle_2884-3" data-name="Rectangle 2884-3" class="cls-10" x="498.81" y="160.02" width="6.41" height="6.41" rx="3.21"/><rect id="Rectangle_2885-3" data-name="Rectangle 2885-3" class="cls-10" x="507.69" y="172.84" width="6.41" height="6.41" rx="3.21"/><rect id="Rectangle_2886-3" data-name="Rectangle 2886-3" class="cls-10" x="511.06" y="184.65" width="6.41" height="6.41" rx="3.21"/><rect id="Rectangle_2887-3" data-name="Rectangle 2887-3" class="cls-10" x="499.42" y="184.65" width="6.41" height="6.41" rx="3.21"/><rect id="Rectangle_2888-3" data-name="Rectangle 2888-3" class="cls-10" x="523.45" y="160.02" width="6.41" height="6.41" rx="3.21"/><rect id="Rectangle_2889-3" data-name="Rectangle 2889-3" class="cls-10" x="531.14" y="172.84" width="6.41" height="6.41" rx="3.21"/><rect id="Rectangle_2890-3" data-name="Rectangle 2890-3" class="cls-10" x="522.87" y="184.65" width="6.41" height="6.41" rx="3.21"/></g></g></g><g id="Group_6241" data-name="Group 6241"><rect id="Rectangle_1567-4" data-name="Rectangle 1567-4" class="cls-5" x="331.85" y="427.9" width="213.7" height="16.93" rx="2.36"/><rect id="Rectangle_1634-4" data-name="Rectangle 1634-4" class="cls-6" x="324.63" y="368.74" width="227.55" height="63.71" rx="5.91"/><path id="Path_5065-4" data-name="Path 5065-4" class="cls-7" d="M331,368.74h77.1v63.71H331a6.34,6.34,0,0,1-6.34-6.33V375.07a6.33,6.33,0,0,1,6.34-6.33Z"/><g id="Group_115-4" data-name="Group 115-4"><path id="Rectangle_1425-4" data-name="Rectangle 1425-4" class="cls-8" d="M356.35,395.05h0a6.62,6.62,0,0,1,6.62,6.62v.53a6.62,6.62,0,0,1-6.62,6.63h0a6.63,6.63,0,0,1-6.63-6.63v-.53A6.62,6.62,0,0,1,356.35,395.05Z"/><path id="Rectangle_1442-4" data-name="Rectangle 1442-4" class="cls-9" d="M375.64,395.05h0a6.62,6.62,0,0,1,6.63,6.62v.53a6.63,6.63,0,0,1-6.63,6.63h0A6.62,6.62,0,0,1,369,402.2v-.53A6.62,6.62,0,0,1,375.64,395.05Z"/></g><g id="Group_5709-4" data-name="Group 5709-4"><g id="Group_5584-4" data-name="Group 5584-4"><rect id="Rectangle_1405-4" data-name="Rectangle 1405-4" class="cls-10" x="423.9" y="386.78" width="6.41" height="6.41" rx="3.21"/><rect id="Rectangle_1424-4" data-name="Rectangle 1424-4" class="cls-10" x="431.6" y="399.6" width="6.41" height="6.41" rx="3.21"/><rect id="Rectangle_1410-4" data-name="Rectangle 1410-4" class="cls-10" x="488.02" y="386.78" width="6.41" height="6.41" rx="3.21"/><rect id="Rectangle_1419-4" data-name="Rectangle 1419-4" class="cls-10" x="495.71" y="399.6" width="6.41" height="6.41" rx="3.21"/><rect id="Rectangle_1406-4" data-name="Rectangle 1406-4" class="cls-10" x="436.73" y="386.78" width="6.41" height="6.41" rx="3.21"/><rect id="Rectangle_1423-4" data-name="Rectangle 1423-4" class="cls-10" x="444.42" y="399.6" width="6.41" height="6.41" rx="3.21"/><rect id="Rectangle_1407-4" data-name="Rectangle 1407-4" class="cls-10" x="449.55" y="386.78" width="6.41" height="6.41" rx="3.21"/><rect id="Rectangle_1422-4" data-name="Rectangle 1422-4" class="cls-10" x="457.24" y="399.6" width="6.41" height="6.41" rx="3.21"/><rect id="Rectangle_1408-4" data-name="Rectangle 1408-4" class="cls-10" x="462.37" y="386.78" width="6.41" height="6.41" rx="3.21"/><rect id="Rectangle_1421-4" data-name="Rectangle 1421-4" class="cls-10" x="470.07" y="399.6" width="6.41" height="6.41" rx="3.21"/><rect id="Rectangle_1409-4" data-name="Rectangle 1409-4" class="cls-10" x="475.2" y="386.78" width="6.41" height="6.41" rx="3.21"/><rect id="Rectangle_1420-4" data-name="Rectangle 1420-4" class="cls-10" x="482.89" y="399.6" width="6.41" height="6.41" rx="3.21"/><rect id="Rectangle_2876-4" data-name="Rectangle 2876-4" class="cls-10" x="423.33" y="411.41" width="6.41" height="6.41" rx="3.21"/><rect id="Rectangle_2877-4" data-name="Rectangle 2877-4" class="cls-10" x="487.44" y="411.41" width="6.41" height="6.41" rx="3.21"/><rect id="Rectangle_2878-4" data-name="Rectangle 2878-4" class="cls-10" x="436.15" y="411.41" width="6.41" height="6.41" rx="3.21"/><rect id="Rectangle_2879-4" data-name="Rectangle 2879-4" class="cls-10" x="448.98" y="411.41" width="6.41" height="6.41" rx="3.21"/><rect id="Rectangle_2880-4" data-name="Rectangle 2880-4" class="cls-10" x="462.98" y="411.41" width="6.41" height="6.41" rx="3.21"/><rect id="Rectangle_2881-4" data-name="Rectangle 2881-4" class="cls-10" x="475.8" y="411.41" width="6.41" height="6.41" rx="3.21"/><rect id="Rectangle_2882-4" data-name="Rectangle 2882-4" class="cls-10" x="511.64" y="386.78" width="6.41" height="6.41" rx="3.21"/><rect id="Rectangle_2883-4" data-name="Rectangle 2883-4" class="cls-10" x="519.33" y="399.6" width="6.41" height="6.41" rx="3.21"/><rect id="Rectangle_2884-4" data-name="Rectangle 2884-4" class="cls-10" x="498.81" y="386.78" width="6.41" height="6.41" rx="3.21"/><rect id="Rectangle_2885-4" data-name="Rectangle 2885-4" class="cls-10" x="507.69" y="399.6" width="6.41" height="6.41" rx="3.21"/><rect id="Rectangle_2886-4" data-name="Rectangle 2886-4" class="cls-10" x="511.06" y="411.41" width="6.41" height="6.41" rx="3.21"/><rect id="Rectangle_2887-4" data-name="Rectangle 2887-4" class="cls-10" x="499.42" y="411.41" width="6.41" height="6.41" rx="3.21"/><rect id="Rectangle_2888-4" data-name="Rectangle 2888-4" class="cls-10" x="523.45" y="386.78" width="6.41" height="6.41" rx="3.21"/><rect id="Rectangle_2889-4" data-name="Rectangle 2889-4" class="cls-10" x="531.14" y="399.6" width="6.41" height="6.41" rx="3.21"/><rect id="Rectangle_2890-4" data-name="Rectangle 2890-4" class="cls-10" x="522.87" y="411.41" width="6.41" height="6.41" rx="3.21"/></g></g></g><g id="Group_5964" data-name="Group 5964"><rect id="Rectangle_1634-5" data-name="Rectangle 1634-5" class="cls-6" x="324.63" y="444.32" width="227.55" height="63.71" rx="5.91"/><path id="Path_5065-5" data-name="Path 5065-5" class="cls-7" d="M331,444.32h77.1V508H331a6.34,6.34,0,0,1-6.34-6.34v-51a6.34,6.34,0,0,1,6.34-6.34Z"/><g id="Group_115-5" data-name="Group 115-5"><path id="Rectangle_1425-5" data-name="Rectangle 1425-5" class="cls-8" d="M356.34,470.63h0a6.63,6.63,0,0,1,6.63,6.63v.53a6.63,6.63,0,0,1-6.63,6.63h0a6.62,6.62,0,0,1-6.62-6.63v-.53A6.62,6.62,0,0,1,356.34,470.63Z"/><path id="Rectangle_1442-5" data-name="Rectangle 1442-5" class="cls-9" d="M375.64,470.63h0a6.63,6.63,0,0,1,6.63,6.63v.53a6.63,6.63,0,0,1-6.63,6.63h0a6.63,6.63,0,0,1-6.63-6.63v-.53A6.63,6.63,0,0,1,375.64,470.63Z"/></g><g id="Group_5709-5" data-name="Group 5709-5"><g id="Group_5584-5" data-name="Group 5584-5"><rect id="Rectangle_1405-5" data-name="Rectangle 1405-5" class="cls-10" x="423.9" y="462.37" width="6.41" height="6.41" rx="3.21"/><rect id="Rectangle_1424-5" data-name="Rectangle 1424-5" class="cls-10" x="431.6" y="475.19" width="6.41" height="6.41" rx="3.21"/><rect id="Rectangle_1410-5" data-name="Rectangle 1410-5" class="cls-10" x="488.02" y="462.37" width="6.41" height="6.41" rx="3.21"/><rect id="Rectangle_1419-5" data-name="Rectangle 1419-5" class="cls-10" x="495.71" y="475.19" width="6.41" height="6.41" rx="3.21"/><rect id="Rectangle_1406-5" data-name="Rectangle 1406-5" class="cls-10" x="436.72" y="462.37" width="6.41" height="6.41" rx="3.21"/><rect id="Rectangle_1423-5" data-name="Rectangle 1423-5" class="cls-10" x="444.42" y="475.19" width="6.41" height="6.41" rx="3.21"/><rect id="Rectangle_1407-5" data-name="Rectangle 1407-5" class="cls-10" x="449.55" y="462.37" width="6.41" height="6.41" rx="3.21"/><rect id="Rectangle_1422-5" data-name="Rectangle 1422-5" class="cls-10" x="457.24" y="475.19" width="6.41" height="6.41" rx="3.21"/><rect id="Rectangle_1408-5" data-name="Rectangle 1408-5" class="cls-10" x="462.37" y="462.37" width="6.41" height="6.41" rx="3.21"/><rect id="Rectangle_1421-5" data-name="Rectangle 1421-5" class="cls-10" x="470.06" y="475.19" width="6.41" height="6.41" rx="3.21"/><rect id="Rectangle_1409-5" data-name="Rectangle 1409-5" class="cls-10" x="475.19" y="462.37" width="6.41" height="6.41" rx="3.21"/><rect id="Rectangle_1420-5" data-name="Rectangle 1420-5" class="cls-10" x="482.89" y="475.19" width="6.41" height="6.41" rx="3.21"/><rect id="Rectangle_2876-5" data-name="Rectangle 2876-5" class="cls-10" x="423.33" y="487" width="6.41" height="6.41" rx="3.21"/><rect id="Rectangle_2877-5" data-name="Rectangle 2877-5" class="cls-10" x="487.44" y="487" width="6.41" height="6.41" rx="3.21"/><rect id="Rectangle_2878-5" data-name="Rectangle 2878-5" class="cls-10" x="436.15" y="487" width="6.41" height="6.41" rx="3.21"/><rect id="Rectangle_2879-5" data-name="Rectangle 2879-5" class="cls-10" x="448.97" y="487" width="6.41" height="6.41" rx="3.21"/><rect id="Rectangle_2880-5" data-name="Rectangle 2880-5" class="cls-10" x="462.98" y="487" width="6.41" height="6.41" rx="3.21"/><rect id="Rectangle_2881-5" data-name="Rectangle 2881-5" class="cls-10" x="475.8" y="487" width="6.41" height="6.41" rx="3.21"/><rect id="Rectangle_2882-5" data-name="Rectangle 2882-5" class="cls-10" x="511.64" y="462.37" width="6.41" height="6.41" rx="3.21"/><rect id="Rectangle_2883-5" data-name="Rectangle 2883-5" class="cls-10" x="519.33" y="475.19" width="6.41" height="6.41" rx="3.21"/><rect id="Rectangle_2884-5" data-name="Rectangle 2884-5" class="cls-10" x="498.81" y="462.37" width="6.41" height="6.41" rx="3.21"/><rect id="Rectangle_2885-5" data-name="Rectangle 2885-5" class="cls-10" x="507.69" y="475.19" width="6.41" height="6.41" rx="3.21"/><rect id="Rectangle_2886-5" data-name="Rectangle 2886-5" class="cls-10" x="511.06" y="487" width="6.41" height="6.41" rx="3.21"/><rect id="Rectangle_2887-5" data-name="Rectangle 2887-5" class="cls-10" x="499.42" y="487" width="6.41" height="6.41" rx="3.21"/><rect id="Rectangle_2888-5" data-name="Rectangle 2888-5" class="cls-10" x="523.45" y="462.37" width="6.41" height="6.41" rx="3.21"/><rect id="Rectangle_2889-5" data-name="Rectangle 2889-5" class="cls-10" x="531.14" y="475.19" width="6.41" height="6.41" rx="3.21"/><rect id="Rectangle_2890-5" data-name="Rectangle 2890-5" class="cls-10" x="522.87" y="487" width="6.41" height="6.41" rx="3.21"/></g></g></g></g><g id="Group_6372" data-name="Group 6372"><ellipse id="Ellipse_1308" data-name="Ellipse 1308" class="cls-11" cx="279.67" cy="513.24" rx="39.39" ry="8.75"/><ellipse id="Ellipse_1308-2" data-name="Ellipse 1308" class="cls-12" cx="565.4" cy="520.21" rx="134.14" ry="16.31"/><g id="Group_6364" data-name="Group 6364"><path id="Path_5763" data-name="Path 5763" class="cls-13" d="M280.05,413.16a46.11,46.11,0,0,1,11.19-17"/><path id="Path_5761" data-name="Path 5761" class="cls-14" d="M242.73,384.12s16.86,1.85,28.56,11.38"/><path id="Path_5762" data-name="Path 5762" class="cls-13" d="M269.74,382.87S269.69,370.69,277,362"/></g><g id="Group_6371" data-name="Group 6371"><path id="Path_5783" data-name="Path 5783" class="cls-15" d="M298.79,400.83c.38-14.25.1-27.34-10.59-21.18-3.85,2.89-7.7,1.93-7.7-2.89l1-10.58s0-16.37-13.48-2.89c-8.66,9.62-8.66,19.25-6.74,27.91l8.66,19.25L281.46,421l17.33-5.77Z"/><path id="Path_5781-2" data-name="Path 5781-2" class="cls-16" d="M274.73,404.67c-1,7.71,6.73,8.67,6.73,8.67l7.7-6.74-1,26.95c4.81,4.81-23.78,5.49-29.84,2.89-4.81-1-7.7-6.74-2.89-8.66l2.89-1.93c2.89-1.93,1.44-4.62-2.89-4.81-11.84.67-23.1-2.31-32.72-16.37-1.93-2.88-1.25-5.77,2.88-5.77,4.72-.87,6.74-2.89,1-8.66C202.53,372,231.41,349.81,241,358.47c4.91,4,6.74,19.25,6.74,19.25s1.92,15.4,13.47,7.7c.29-.19.48-.38.77-.57C269.53,379.26,277.52,388.79,274.73,404.67Z"/><path id="Path_5785-2" data-name="Path 5785-2" class="cls-17" d="M290.13,445.09c-8.37-9.91-14.44-26.95-6.74-38.5,5.78-8.85,11.55-14.82,17.33-5.77,2.89,3,7.7,2.89,7.7-2.89-2-21.27-1.64-39.08,15.4-31.76,4.43,2.21,6.74.38,6.74-5.78-5.78-24.06,29.84-25,22.13-1-7.31,11-7.6,14.73-4.81,15.4,18.48.38,13.67,12.7-2.21,29.93a3.86,3.86,0,0,0,.23,5.46,4.26,4.26,0,0,0,.54.41c6.93,4.24,17.27,11.56-12.47,28.12C321,445.88,306.11,447.12,290.13,445.09Z"/><path id="Path_5807" data-name="Path 5807" class="cls-18" d="M235.29,382.58h-1.94c1.84,11.54,10,21.33,19.88,27.63C274.17,423,284,437.75,275,460.14h7.76c1.26-6.88,6.68-13.67,17.45-20.36,23.26-16.48,25.78-26.17,26.17-45.56l-1.94-1.94c.48,12.8-1.94,24.23-13.57,34.9l-28.12,21.33c1-29.09-26.17-39.75-26.17-39.75S239.65,401.49,235.29,382.58Z"/></g><path id="Path_5786-2" data-name="Path 5786-2" class="cls-19" d="M253.47,458.9h54.66l-4.37,56H257.84Z"/><path id="Path_5787" data-name="Path 5787" class="cls-20" d="M311.26,433.59s5.1-4,14.56-1.08"/><path id="Path_5790" data-name="Path 5790" class="cls-21" d="M319,427.05s5.48-3.43,14.59.45"/><path id="Path_5791" data-name="Path 5791" class="cls-22" d="M324.77,419.68s5.76-2.94,14.5,1.72"/><path id="Path_5792" data-name="Path 5792" class="cls-23" d="M326.64,412.74s5.43-3.53,14.6.19"/><path id="Path_5793" data-name="Path 5793" class="cls-24" d="M328.58,405.55s5.16-3.9,14.58-.82"/><path id="Path_5794" data-name="Path 5794" class="cls-24" d="M328.58,398.81s5.16-3.89,14.58-.82"/><path id="Path_5795" data-name="Path 5795" class="cls-25" d="M329.16,393.58s3.52-5.43,13.42-5.77"/><path id="Path_5797" data-name="Path 5797" class="cls-26" d="M293,417.93s6,2.52,8,12.21"/><path id="Path_5798" data-name="Path 5798" class="cls-27" d="M297.88,412.18s5.66,3.13,6.68,13"/><path id="Path_5799" data-name="Path 5799" class="cls-28" d="M303.49,406.48s5.42,3.52,5.75,13.42"/><path id="Path_5800" data-name="Path 5800" class="cls-29" d="M311.07,403.29s4.95,4.16,4.07,14"/><path id="Path_5801" data-name="Path 5801" class="cls-28" d="M313.84,393.11s5.55,3.33,6.23,13.21"/><path id="Path_5802" data-name="Path 5802" class="cls-30" d="M317.08,382.37s5.36,3.61,5.52,13.51"/><path id="Path_5803" data-name="Path 5803" class="cls-23" d="M327.64,376.05s3.52,5.42-.2,14.6"/><path id="Path_5804" data-name="Path 5804" class="cls-31" d="M270,366.06s4,.14,7.13,5.19"/><path id="Path_5805" data-name="Path 5805" class="cls-31" d="M268.49,370.64s4,.14,7.14,5.19"/><path id="Path_5806" data-name="Path 5806" class="cls-31" d="M267,375.22s4,.14,7.13,5.19"/></g></g><rect class="cls-32" x="462.92" y="386.78" width="206.78" height="121.52" rx="4.59"/><path class="cls-33" d="M452.75,511.61H681.07v8a2.79,2.79,0,0,1-2.79,2.79H455.55a2.79,2.79,0,0,1-2.8-2.79v-8Z"/><path class="cls-34" d="M593.14,413.82H551.36a7.61,7.61,0,0,0-7.61,7.61v41.78a7.61,7.61,0,0,0,7.61,7.61H559a7.19,7.19,0,0,1,5,2.09l5.47,5.47a3.86,3.86,0,0,0,5.46,0l5.47-5.47a7.19,7.19,0,0,1,5-2.09h7.64a7.61,7.61,0,0,0,7.61-7.61V421.43A7.61,7.61,0,0,0,593.14,413.82Z"/><path class="cls-35" d="M570.13,436.75h4.23A10.24,10.24,0,0,1,584.61,447v11.75a2.73,2.73,0,0,1-2.73,2.73H562.62a2.73,2.73,0,0,1-2.73-2.73V447A10.24,10.24,0,0,1,570.13,436.75Z"/><rect class="cls-35" x="566.02" y="423.66" width="12.47" height="12.47" rx="6.23"/><path class="cls-36" d="M523.52,281.55H481.74a7.61,7.61,0,0,0-7.61,7.61v41.78a7.61,7.61,0,0,0,7.61,7.61h7.64a7.15,7.15,0,0,1,5.05,2.09l5.47,5.47a3.86,3.86,0,0,0,5.46,0l5.47-5.47a7.13,7.13,0,0,1,5.05-2.09h7.64a7.61,7.61,0,0,0,7.61-7.61V289.16A7.61,7.61,0,0,0,523.52,281.55Z"/><path class="cls-35" d="M500.51,304.48h4.23A10.24,10.24,0,0,1,515,314.72v11.75a2.73,2.73,0,0,1-2.73,2.73H493a2.73,2.73,0,0,1-2.73-2.73V314.72A10.24,10.24,0,0,1,500.51,304.48Z"/><rect class="cls-35" x="496.39" y="291.39" width="12.47" height="12.47" rx="6.23"/><path class="cls-37" d="M580.78,184.72H539a7.61,7.61,0,0,0-7.61,7.61v41.78a7.61,7.61,0,0,0,7.61,7.61h7.64a7.15,7.15,0,0,1,5.05,2.09l5.47,5.47a3.86,3.86,0,0,0,5.46,0l5.47-5.47a7.15,7.15,0,0,1,5-2.09h7.64a7.61,7.61,0,0,0,7.61-7.61V192.33A7.61,7.61,0,0,0,580.78,184.72Z"/><path class="cls-35" d="M557.77,207.64H562a10.24,10.24,0,0,1,10.24,10.24v11.75a2.73,2.73,0,0,1-2.73,2.73H550.25a2.73,2.73,0,0,1-2.73-2.73V217.89A10.24,10.24,0,0,1,557.77,207.64Z"/><rect class="cls-35" x="553.66" y="194.56" width="12.47" height="12.47" rx="6.23"/><path class="cls-38" d="M532.53,66.74H490.75a7.61,7.61,0,0,0-7.61,7.61v41.78a7.61,7.61,0,0,0,7.61,7.61h7.64a7.15,7.15,0,0,1,5.05,2.09l5.47,5.47a3.86,3.86,0,0,0,5.46,0l5.47-5.47a7.13,7.13,0,0,1,5-2.09h7.64a7.61,7.61,0,0,0,7.61-7.61V74.35A7.61,7.61,0,0,0,532.53,66.74Z"/><path class="cls-35" d="M509.52,89.67h4.23A10.24,10.24,0,0,1,524,99.91v11.75a2.73,2.73,0,0,1-2.73,2.73H502a2.73,2.73,0,0,1-2.73-2.73V99.91A10.24,10.24,0,0,1,509.52,89.67Z"/><rect class="cls-35" x="505.41" y="76.58" width="12.47" height="12.47" rx="6.23"/></svg>