<svg width="250" height="250" viewBox="0 0 250 250" fill="none" xmlns="http://www.w3.org/2000/svg">
<rect width="250" height="250" fill="white"/>
<path d="M134.625 122H49.375V140.462H134.625V122Z" fill="#B3E4FA"/>
<path d="M134.625 122H49.375V140.462H134.625V122Z" stroke="#24AAE2" stroke-miterlimit="10" stroke-linejoin="round"/>
<path d="M56.25 131.231H84.6667" stroke="#24AAE2" stroke-miterlimit="10"/>
<path d="M92 131.231H100.708" stroke="#24AAE2" stroke-miterlimit="10"/>
<path d="M87.4167 131.231H89.25" stroke="#24AAE2" stroke-miterlimit="10"/>
<path d="M120.417 130.769H128.667" stroke="#24AAE2" stroke-miterlimit="10"/>
<path d="M125.917 134L129.125 130.769L126.375 128" stroke="#24AAE2" stroke-miterlimit="10"/>
<path d="M200.625 150.615H115.375V169.077H200.625V150.615Z" fill="#B3E4FA"/>
<path d="M200.625 150.615H115.375V169.077H200.625V150.615Z" stroke="#24AAE2" stroke-miterlimit="10" stroke-linejoin="round"/>
<path d="M122.708 159.385H151.125" stroke="#24AAE2" stroke-miterlimit="10"/>
<path d="M158 159.385H167.167" stroke="#24AAE2" stroke-miterlimit="10"/>
<path d="M153.875 159.385H155.708" stroke="#24AAE2" stroke-miterlimit="10"/>
<path d="M186.875 159.385H195.125" stroke="#24AAE2" stroke-miterlimit="10"/>
<path d="M192.375 162.154L195.583 159.385L192.833 156.615" stroke="#24AAE2" stroke-miterlimit="10"/>
<path d="M200.625 81.3846H84.2083V106.308H200.625V81.3846Z" fill="white"/>
<path d="M200.625 81.3846H84.2083V106.308H200.625V81.3846Z" stroke="#24AAE2" stroke-miterlimit="10"/>
<path d="M94.2917 93.8462H133.25" stroke="#24AAE2" stroke-miterlimit="10"/>
<path d="M142.417 93.8462H154.792" stroke="#24AAE2" stroke-miterlimit="10"/>
<path d="M136.458 93.8462H139.208" stroke="#24AAE2" stroke-miterlimit="10"/>
<path d="M180.917 93.8462H191.917" stroke="#24AAE2" stroke-miterlimit="10"/>
<path d="M189.167 97.5384L193.292 93.3846L189.625 89.2307" stroke="#24AAE2" stroke-miterlimit="10"/>
<path d="M148.375 106.308V131.231H162.583V150.615" stroke="#24AAE2" stroke-miterlimit="10"/>
<path d="M134.625 131.231H148.375" stroke="#24AAE2" stroke-miterlimit="10"/>
</svg>
