<svg width="250" height="250" viewBox="0 0 250 250" fill="none" xmlns="http://www.w3.org/2000/svg">
<rect width="250" height="250" fill="white"/>
<path d="M112.847 151.152C86.3053 151.152 64.2947 129.843 64.2947 102.722C64.2947 76.2467 85.6579 54.2915 112.847 54.2915C139.389 54.2915 161.4 75.6009 161.4 102.722" fill="white"/>
<path d="M112.847 151.152C86.3053 151.152 64.2947 129.843 64.2947 102.722C64.2947 76.2467 85.6579 54.2915 112.847 54.2915C139.389 54.2915 161.4 75.6009 161.4 102.722" stroke="#24AAE2" stroke-miterlimit="10" stroke-linejoin="round"/>
<path d="M173.053 92.3901L161.4 104.659L149.1 92.3901" stroke="#24AAE2" stroke-miterlimit="10" stroke-linejoin="round"/>
<path d="M139.389 79.4753L112.847 104.659L81.7737 110.471" stroke="#24AAE2" stroke-miterlimit="10" stroke-linejoin="round"/>
<path d="M118.674 104.659C118.674 107.888 116.084 110.471 112.847 110.471C109.611 109.825 107.021 107.242 107.021 104.659C107.021 101.431 109.611 98.8477 112.847 98.8477C116.084 98.8477 118.674 101.431 118.674 104.659Z" fill="#B3E4FA"/>
<path d="M118.674 104.659C118.674 107.888 116.084 110.471 112.847 110.471C109.611 109.825 107.021 107.242 107.021 104.659C107.021 101.431 109.611 98.8477 112.847 98.8477C116.084 98.8477 118.674 101.431 118.674 104.659Z" stroke="#24AAE2" stroke-miterlimit="10" stroke-linejoin="round"/>
<path d="M112.847 56.2288V65.2691" stroke="#24AAE2" stroke-miterlimit="10" stroke-linejoin="round"/>
<path d="M64.2947 102.722H74.0053" stroke="#24AAE2" stroke-miterlimit="10" stroke-linejoin="round"/>
<path d="M184.705 157.61C184.705 181.502 150.395 195.063 150.395 195.063C150.395 195.063 116.084 181.502 116.084 157.61V122.094L150.395 112.408L184.705 122.094V157.61Z" fill="#B3E4FA"/>
<path d="M184.705 157.61C184.705 181.502 150.395 195.063 150.395 195.063C150.395 195.063 116.084 181.502 116.084 157.61V122.094L150.395 112.408L184.705 122.094V157.61Z" stroke="#24AAE2" stroke-miterlimit="10" stroke-linejoin="round"/>
</svg>
