<svg width="250" height="250" viewBox="0 0 250 250" fill="none" xmlns="http://www.w3.org/2000/svg">
<rect width="250" height="250" fill="white"/>
<path d="M188.324 72.7581H61.0925V167.108H188.324V72.7581Z" fill="#B3E4FA"/>
<path d="M188.324 72.7581H61.0925V167.108H188.324V72.7581Z" stroke="#24AAE2" stroke-miterlimit="10" stroke-linejoin="round"/>
<path d="M61.0925 91.5107H188.324" stroke="#24AAE2" stroke-miterlimit="10" stroke-linejoin="round"/>
<path d="M70.4306 82.1344H75.6833" stroke="#24AAE2" stroke-miterlimit="10" stroke-linejoin="round"/>
<path d="M81.5196 82.1344H87.3559" stroke="#24AAE2" stroke-miterlimit="10" stroke-linejoin="round"/>
<path d="M92.6085 82.1344H98.4448" stroke="#24AAE2" stroke-miterlimit="10" stroke-linejoin="round"/>
<path d="M153.306 104.403H44.7509V127.258H153.306V104.403Z" fill="white"/>
<path d="M153.306 104.403H44.7509V127.258H153.306V104.403Z" stroke="#24AAE2" stroke-miterlimit="10" stroke-linejoin="round"/>
<path d="M205.833 157.731C205.833 171.21 187.157 178.828 187.157 178.828C187.157 178.828 168.48 171.21 168.48 157.731V137.806L187.157 132.532L205.833 137.806V157.731Z" fill="white"/>
<path d="M205.833 157.731C205.833 171.21 187.157 178.828 187.157 178.828C187.157 178.828 168.48 171.21 168.48 157.731V137.806L187.157 132.532L205.833 137.806V157.731Z" stroke="#24AAE2" stroke-miterlimit="10" stroke-linejoin="round"/>
<path d="M180.737 155.387L186.573 161.247L198.246 146.597" fill="white"/>
<path d="M180.737 155.387L186.573 161.247L198.246 146.597" stroke="#24AAE2" stroke-miterlimit="10" stroke-linejoin="round"/>
<path d="M53.95 111.36H53.05V120H53.95V116.796C53.95 115.716 54.736 115.056 55.69 115.056C56.728 115.056 57.328 115.692 57.328 116.772V120H58.222V116.478C58.222 115.104 57.256 114.204 55.852 114.204C55.162 114.204 54.418 114.45 53.95 115.11V111.36ZM65.533 114.318H63.079V112.512H62.185V114.318H60.943V115.128H62.185V118.014C62.185 119.442 62.911 120.114 64.135 120.114C64.831 120.114 65.395 119.874 65.821 119.55L65.401 118.872C65.071 119.112 64.645 119.274 64.207 119.274C63.547 119.274 63.079 118.884 63.079 117.996V115.128H65.533V114.318ZM72.365 114.318H69.911V112.512H69.017V114.318H67.775V115.128H69.017V118.014C69.017 119.442 69.743 120.114 70.967 120.114C71.663 120.114 72.227 119.874 72.653 119.55L72.233 118.872C71.903 119.112 71.477 119.274 71.039 119.274C70.379 119.274 69.911 118.884 69.911 117.996V115.128H72.365V114.318ZM78.4145 114.204C77.4785 114.204 76.7945 114.582 76.3445 115.158V114.318H75.4445V122.4H76.3445V119.16C76.7945 119.736 77.4785 120.114 78.4145 120.114C80.0105 120.114 81.2525 118.866 81.2525 117.156C81.2525 115.452 80.0105 114.204 78.4145 114.204ZM78.3065 115.044C79.5125 115.044 80.3345 115.986 80.3345 117.156C80.3345 118.332 79.5245 119.274 78.3065 119.274C77.1185 119.274 76.2845 118.362 76.2845 117.156C76.2845 115.956 77.1185 115.044 78.3065 115.044ZM84.9431 114.204C84.5411 114.204 84.1931 114.546 84.1931 114.954C84.1931 115.356 84.5411 115.71 84.9431 115.71C85.3451 115.71 85.6931 115.356 85.6931 114.954C85.6931 114.546 85.3451 114.204 84.9431 114.204ZM84.9431 118.602C84.5411 118.602 84.1931 118.95 84.1931 119.352C84.1931 119.754 84.5411 120.108 84.9431 120.108C85.3451 120.108 85.6931 119.754 85.6931 119.352C85.6931 118.95 85.3451 118.602 84.9431 118.602ZM94.0417 110.76H93.0517L87.9577 121.2H88.9477L94.0417 110.76ZM99.5027 110.76H98.5127L93.4187 121.2H94.4087L99.5027 110.76Z" fill="#24AAE2"/>
</svg>
