<svg width="250" height="250" viewBox="0 0 250 250" fill="none" xmlns="http://www.w3.org/2000/svg">
<rect width="250" height="250" fill="white"/>
<path d="M52.7711 162.901H197.229V166C197.229 167.933 195.662 169.5 193.729 169.5H56.271C54.3381 169.5 52.7711 167.933 52.7711 166V162.901Z" fill="#C4E7F8" stroke="#36A9DC"/>
<rect x="58.1985" y="80.403" width="133.603" height="82.584" fill="#C4E7F8" stroke="#36A9DC"/>
<rect x="64.7116" y="86.916" width="119.491" height="70.6434" fill="white" stroke="#36A9DC"/>
<path d="M158.006 94.7681V83.8741L147.405 79.8091L152.063 69.4029L144.514 61.7608L134.235 66.3135C134.235 66.3135 134.235 66.3135 134.074 66.3135L130.058 55.7446H119.297L115.282 66.3135C115.282 66.3135 115.282 66.3135 115.121 66.3135L104.841 61.5982L97.2922 69.2403L101.95 79.6465L91.3493 83.7115V94.6055L101.95 98.6705L97.2922 109.077L104.841 116.719L115.121 112.004L119.136 122.735H129.898L133.913 112.004L144.193 116.719L151.742 109.077L147.084 98.6705L158.006 94.7681Z" fill="#B3E4FA"/>
<path d="M158.006 94.7681V83.8741L147.405 79.8091L152.063 69.4029L144.514 61.7608L134.235 66.3135C134.235 66.3135 134.235 66.3135 134.074 66.3135L130.058 55.7446H119.297L115.282 66.3135C115.282 66.3135 115.282 66.3135 115.121 66.3135L104.841 61.5982L97.2922 69.2403L101.95 79.6465L91.3493 83.7115V94.6055L101.95 98.6705L97.2922 109.077L104.841 116.719L115.121 112.004L119.136 122.735H129.898L133.913 112.004L144.193 116.719L151.742 109.077L147.084 98.6705L158.006 94.7681Z" stroke="#24AAE2" stroke-miterlimit="10" stroke-linejoin="round"/>
<path d="M136.465 89.2398C136.465 95.6359 131.222 100.935 124.919 100.935C118.615 100.935 113.372 95.6359 113.372 89.2398C113.372 82.8436 118.615 77.5449 124.919 77.5449C131.222 77.5449 136.465 82.8436 136.465 89.2398Z" fill="white" stroke="#36A9DC"/>
<path d="M110.584 134.88C109.552 134.16 108.264 133.656 106.56 133.656C104.216 133.656 102.32 134.848 102.32 136.976C102.32 138.832 103.712 139.72 105.624 139.936L106.752 140.064C108.528 140.264 109.464 140.808 109.464 141.896C109.464 143.232 108.096 143.936 106.36 143.936C104.904 143.936 103.448 143.344 102.672 142.688L101.968 143.712C103.024 144.576 104.744 145.152 106.368 145.152C108.784 145.152 110.8 144 110.8 141.784C110.8 139.848 109.152 139.064 107.304 138.84L106.24 138.712C104.496 138.504 103.656 137.936 103.656 136.896C103.656 135.632 104.864 134.872 106.552 134.872C107.896 134.872 109.024 135.304 109.928 135.92L110.584 134.88ZM116.588 137.272C114.26 137.272 112.668 138.968 112.668 141.208C112.668 143.456 114.26 145.152 116.588 145.152C117.708 145.152 118.708 144.736 119.396 143.96L118.652 143.144C118.116 143.664 117.38 144.032 116.556 144.032C115.036 144.032 113.884 142.848 113.884 141.208C113.884 139.576 115.036 138.392 116.556 138.392C117.38 138.392 118.06 138.72 118.628 139.272L119.396 138.464C118.716 137.688 117.708 137.272 116.588 137.272ZM124.863 137.272C123.935 137.272 123.135 137.712 122.615 138.488V137.424H121.431V145H122.623V140.76C122.623 139.328 123.471 138.4 124.655 138.4C125.095 138.4 125.599 138.504 125.967 138.704L126.255 137.528C125.855 137.344 125.407 137.272 124.863 137.272ZM129.272 137.424H128.072V145H129.272V137.424ZM128.672 133.888C128.192 133.888 127.832 134.256 127.832 134.736C127.832 135.216 128.192 135.576 128.672 135.576C129.144 135.576 129.52 135.216 129.52 134.736C129.52 134.256 129.144 133.888 128.672 133.888ZM136.032 137.272C134.784 137.272 133.872 137.776 133.272 138.544V137.424H132.072V148.2H133.272V143.88C133.872 144.648 134.784 145.152 136.032 145.152C138.16 145.152 139.816 143.488 139.816 141.208C139.816 138.936 138.16 137.272 136.032 137.272ZM135.888 138.392C137.496 138.392 138.592 139.648 138.592 141.208C138.592 142.776 137.512 144.032 135.888 144.032C134.304 144.032 133.192 142.816 133.192 141.208C133.192 139.608 134.304 138.392 135.888 138.392ZM147.107 137.424H143.835V135.016H142.643V137.424H140.987V138.504H142.643V142.352C142.643 144.256 143.611 145.152 145.243 145.152C146.171 145.152 146.923 144.832 147.491 144.4L146.931 143.496C146.491 143.816 145.923 144.032 145.339 144.032C144.459 144.032 143.835 143.512 143.835 142.328V138.504H147.107V137.424Z" fill="#24AAE2"/>
</svg>
