<svg width="250" height="250" viewBox="0 0 250 250" fill="none" xmlns="http://www.w3.org/2000/svg">
<g clip-path="url(#clip0_2_202)">
<rect width="250" height="250" fill="white"/>
<path d="M101.849 121.754C95.711 98.1762 97.1732 67.1793 124.88 34.5C149.223 61.9117 153.854 89.8813 149.916 113.5C168.716 132.3 164.392 164.333 159.88 178C157.661 166.333 150.59 143 140.052 143C135.379 152.137 129.878 159.666 124.88 165C124.88 165 114.791 154.394 107.182 137.049C108.221 139.528 109.17 141.582 109.88 143C99.3416 143 92.2703 166.333 90.0519 178C85.5396 164.333 81.215 132.3 100.015 113.5C100.457 116.219 101.096 119.01 101.849 121.754Z" fill="#C4E7F8"/>
<path d="M149.916 113.5C153.854 89.8813 149.223 61.9117 124.88 34.5C66.3795 103.5 124.88 165 124.88 165C129.878 159.666 135.379 152.137 140.052 143M149.916 113.5C168.716 132.3 164.392 164.333 159.88 178C157.661 166.333 150.59 143 140.052 143M149.916 113.5C148.095 124.426 144.439 134.422 140.052 143M90.0519 178C85.5396 164.333 81.215 132.3 100.015 113.5C101.901 125.1 107.377 138 109.88 143C99.3416 143 92.2703 166.333 90.0519 178Z" stroke="#36A9DC"/>
<rect x="108.658" y="150.5" width="33" height="7" fill="#C4E7F8" stroke="#36A9DC"/>
<rect x="114.658" y="157.5" width="21" height="11" fill="#C4E7F8" stroke="#36A9DC"/>
<circle cx="125.158" cy="92" r="13.5" fill="white" stroke="#36A9DC"/>
<rect x="113" y="175" width="1" height="15" fill="#36A9DC"/>
<rect x="125" y="175" width="1" height="15" fill="#36A9DC"/>
<rect x="137" y="175" width="1" height="15" fill="#36A9DC"/>
<rect x="119" y="175" width="1" height="26" fill="#36A9DC"/>
<rect x="131" y="175" width="1" height="26" fill="#36A9DC"/>
</g>
<defs>
<clipPath id="clip0_2_202">
<rect width="250" height="250" fill="white"/>
</clipPath>
</defs>
</svg>
