<svg width="250" height="250" viewBox="0 0 250 250" fill="none" xmlns="http://www.w3.org/2000/svg">
<rect width="250" height="250" fill="white"/>
<path d="M165.279 65.0001C149.661 65.0001 137 77.6609 137 93.2788C137 108.897 149.661 121.558 165.279 121.558C180.897 121.558 193.558 108.897 193.558 93.2788C193.558 77.6609 180.897 65.0001 165.279 65.0001Z" fill="white"/>
<path d="M165.279 65.0001C149.661 65.0001 137 77.6609 137 93.2788C137 108.897 149.661 121.558 165.279 121.558C180.897 121.558 193.558 108.897 193.558 93.2788C193.558 77.6609 180.897 65.0001 165.279 65.0001Z" stroke="#24AAE2" stroke-miterlimit="10" stroke-linejoin="round"/>
<path d="M165.279 121.558C165.279 121.558 132.841 93.2791 165.279 65.0003" stroke="#24AAE2" stroke-miterlimit="10" stroke-linejoin="round"/>
<path d="M165.279 121.558L165.279 65.0003C197.716 93.2791 165.279 121.558 165.279 121.558Z" stroke="#24AAE2" stroke-miterlimit="10" stroke-linejoin="round"/>
<path d="M189.399 107.419L141.159 107.419" stroke="#24AAE2" stroke-miterlimit="10" stroke-linejoin="round"/>
<path d="M189.399 79.1404L141.159 79.1404" stroke="#24AAE2" stroke-miterlimit="10" stroke-linejoin="round"/>
<path d="M193.558 93.2791L137 93.279" stroke="#24AAE2" stroke-miterlimit="10" stroke-linejoin="round"/>
<path d="M171.88 84.1227C171.88 87.5864 168.986 90.4316 165.463 90.4316C161.94 90.4316 159.046 87.5864 159.046 84.1227C159.046 80.6589 161.94 77.8137 165.463 77.8137C168.986 77.9374 171.88 80.6589 171.88 84.1227Z" fill="#B3E4FA"/>
<path d="M171.88 84.1227C171.88 87.5864 168.986 90.4316 165.463 90.4316C161.94 90.4316 159.046 87.5864 159.046 84.1227C159.046 80.6589 161.94 77.8137 165.463 77.8137C168.986 77.9374 171.88 80.6589 171.88 84.1227Z" stroke="#24AAE2" stroke-miterlimit="10" stroke-linejoin="round"/>
<path d="M179.429 104.287H151.496V102.184C151.496 96.6169 156.026 92.1636 161.688 92.1636H169.237C174.9 92.1636 179.429 96.6169 179.429 102.184V104.287Z" fill="#B3E4FA"/>
<path d="M179.429 104.287H151.496V102.184C151.496 96.6169 156.026 92.1636 161.688 92.1636H169.237C174.9 92.1636 179.429 96.6169 179.429 102.184V104.287Z" stroke="#24AAE2" stroke-miterlimit="10" stroke-linejoin="round"/>
<path d="M110.558 75.0001C80.4264 75.0001 56 99.4265 56 129.558C56 159.69 80.4264 184.116 110.558 184.116C140.689 184.116 165.116 159.69 165.116 129.558C165.116 99.4265 140.689 75.0001 110.558 75.0001Z" fill="#B4E4FA"/>
<path d="M110.558 75.0001C80.4264 75.0001 56 99.4265 56 129.558C56 159.69 80.4264 184.116 110.558 184.116C140.689 184.116 165.116 159.69 165.116 129.558C165.116 99.4265 140.689 75.0001 110.558 75.0001Z" stroke="#24AAE2" stroke-miterlimit="10" stroke-linejoin="round"/>
<path d="M110.559 184.116C110.559 184.116 47.9513 129.558 110.559 75.4473" stroke="#24AAE2" stroke-miterlimit="10" stroke-linejoin="round"/>
<path d="M110.559 184.116L110.559 75.4473C173.166 129.558 110.559 184.116 110.559 184.116Z" stroke="#24AAE2" stroke-miterlimit="10" stroke-linejoin="round"/>
<path d="M157.067 156.391L64.0499 156.391" stroke="#24AAE2" stroke-miterlimit="10" stroke-linejoin="round"/>
<path d="M157.067 102.279L64.0499 102.279" stroke="#24AAE2" stroke-miterlimit="10" stroke-linejoin="round"/>
<path d="M164.669 129.559L56 129.559" stroke="#24AAE2" stroke-miterlimit="10" stroke-linejoin="round"/>
<path d="M120.787 119.445C120.787 125.345 115.857 130.192 109.855 130.192C103.854 130.192 98.924 125.345 98.924 119.445C98.924 113.544 103.854 108.698 109.855 108.698C115.857 108.908 120.787 113.544 120.787 119.445Z" fill="white"/>
<path d="M120.787 119.445C120.787 125.345 115.857 130.192 109.855 130.192C103.854 130.192 98.924 125.345 98.924 119.445C98.924 113.544 103.854 108.698 109.855 108.698C115.857 108.908 120.787 113.544 120.787 119.445Z" stroke="#24AAE2" stroke-miterlimit="10" stroke-linejoin="round"/>
<path d="M133.647 153.793H86.0638V150.211C86.0638 140.728 93.78 133.142 103.425 133.142H116.286C125.931 133.142 133.647 140.728 133.647 150.211V153.793Z" fill="white"/>
<path d="M133.647 153.793H86.0638V150.211C86.0638 140.728 93.78 133.142 103.425 133.142H116.286C125.931 133.142 133.647 140.728 133.647 150.211V153.793Z" stroke="#24AAE2" stroke-miterlimit="10" stroke-linejoin="round"/>
</svg>
