<svg id="Layer_1" data-name="Layer 1" xmlns="http://www.w3.org/2000/svg" xmlns:xlink="http://www.w3.org/1999/xlink" viewBox="0 0 400 400"><defs><style>.cls-1{fill:url(#linear-gradient);}.cls-2{fill:#0070c4;}.cls-3{fill:#005c9f;}.cls-4{fill:#288ed9;}.cls-5,.cls-6{font-size:14.82px;font-family:Dubai-Light, Dubai;font-weight:300;}.cls-5,.cls-6,.cls-7{fill:#fff;}.cls-6{opacity:0.51;}.cls-8{opacity:0.31;isolation:isolate;fill:url(#linear-gradient-2);}.cls-9{fill:#277ec1;}.cls-10{fill:#5bc5ce;}.cls-11,.cls-12{fill:#faba97;stroke:#faba97;}.cls-11{stroke-width:0.91px;}.cls-12,.cls-13{stroke-width:0.45px;}.cls-13{fill:#348bcb;stroke:#348bcb;}.cls-14{fill:#005b9e;}</style><linearGradient id="linear-gradient" x1="4.79" y1="206.55" x2="385.37" y2="206.55" gradientUnits="userSpaceOnUse"><stop offset="0" stop-color="#a9e3ff"/><stop offset="0.4" stop-color="#a7e3ff"/><stop offset="0.55" stop-color="#a0e2ff"/><stop offset="0.65" stop-color="#95e0ff"/><stop offset="0.74" stop-color="#84ddff"/><stop offset="0.81" stop-color="#6ed9ff"/><stop offset="0.87" stop-color="#52d5ff"/><stop offset="0.93" stop-color="#32cfff"/><stop offset="0.98" stop-color="#0ec9ff"/><stop offset="1" stop-color="#00c7ff"/></linearGradient><linearGradient id="linear-gradient-2" x1="33.21" y1="86.22" x2="33.21" y2="87.13" gradientTransform="matrix(118.14, 0, 0, -17.04, -3793.49, 1865.11)" gradientUnits="userSpaceOnUse"><stop offset="0" stop-color="#348bcb" stop-opacity="0"/><stop offset="1" stop-color="#005b9e"/></linearGradient></defs><path class="cls-1" d="M319.9,85.67c-38.49-34.4-75.28-34.33-112.7-2.84C168.68,115.21,99.6,89.68,91.7,37.4c-3.58-23.78-9.41-20.86-21.2-10.81C54,40.7,38.64,46.48,24.2,23.57c-4-6.25-8.36-5.16-13.79-.69-5.22,4.39-6.55,8.6-5,15.53,6.63,30.4,10.4,62.34,32.68,84.8,5.49,5.48,8.26,12.89,4.52,18-24.23,33.23.44,48.53,18.57,65,10.26,9.26,17.22,16.91,18.67,33.89.89,10.23,4,34.72,18.4,31.31,30.87-7.33,35.74,17.54,48.75,37.78,17.43,27.21,44.1,49.76,72.88,48,23.55-1.33,39.8-18.91,57.88,18.89,9.67,20.36,48.73,11.48,74.32,17.46,16.55,3.85,7.05-20.34,16.41-26.28,1.55-1,3-2.32,4.48-3.5,7.12-5.78,13.52-29.12,12.28-38.49-1.14-8.36-5.44-11.11-10.81-15.57-16.48-13.45-36-27.1-12.6-53.58,4.59-5.22,6.72-16.43-.6-18.37-25.54-6.56-13.88-30.71-18.34-46.74-6.47-23.24,10.95-42.33,11.71-71.19C359.26,95,332.61,97,319.9,85.67Z"/><rect class="cls-2" x="138.62" y="126.76" width="205.88" height="26.1" rx="3.03"/><rect class="cls-3" x="303.07" y="115.61" width="92.79" height="95.28" rx="3.77"/><rect class="cls-4" x="303.07" y="147.39" width="92.79" height="31.72"/><text class="cls-5" transform="translate(318.88 135.6)">.co.ir</text><text class="cls-6" transform="translate(146.75 144.02)">Domain.ir</text><text class="cls-5" transform="translate(316.74 167.08)">.ac.ir</text><text class="cls-5" transform="translate(317.11 198.57)">.org.ir</text><path class="cls-7" d="M381.81,173.11l-22.33-8,8,22.33,4.56-6.69,4.8,4.79a2.18,2.18,0,0,0,3.1,0h0a2.18,2.18,0,0,0,0-3.1l-4.79-4.8Z"/><g id="Group_8049" data-name="Group 8049"><g id="Group_7638" data-name="Group 7638"><ellipse id="Ellipse_1309" data-name="Ellipse 1309" class="cls-8" cx="129.83" cy="388.28" rx="53.6" ry="7.73"/><g id="earth-globe"><path id="Path_5771-2" data-name="Path 5771-2" class="cls-9" d="M141.4,378.81l-8.1-29.22h-5.84l-8.09,29.22H100.32v9h60.12v-9Z"/><path id="Path_5779" data-name="Path 5779" class="cls-10" d="M130.38,209.3a61.77,61.77,0,1,1-61.76,61.76h0A61.76,61.76,0,0,1,130.38,209.3Z"/><path id="Path_5773" data-name="Path 5773" class="cls-11" d="M148.24,226.08a4.13,4.13,0,0,0-1,1.83,4.25,4.25,0,0,0,1.26,3.07c1.07,1.37,2.26,2.82,3.94,3.24,3.14.78,5.94-2.36,9.17-2.61,2.58-.21,5,1.47,7.58,1.56,2.94.11,4.46-2.69,5-5.58A62,62,0,0,0,158,215.79C155.61,218.85,150.6,223,148.24,226.08Z"/><path id="Path_5774" data-name="Path 5774" class="cls-12" d="M189.31,252.52c-1.14,3.48-4.35,2.56-8.51,2.88-5.34.41-8.59-2.22-13.52-3.2-4.58-.91-8.61,2.25-10.75,6-1.59,2.82-4.08,9.06-2,11.94a12.6,12.6,0,0,0,3.95,3.16,45.77,45.77,0,0,0,6.49,3.44c2.61,1.06,5.6,1.78,7.26,4.05,1.37,1.87,1.48,4.38,1.24,6.68-.64,6.26-6.09,11.82-1.11,17.51a9.48,9.48,0,0,0,7.25,3.32,61.87,61.87,0,0,0,9.69-55.82Z"/><path id="Path_5775" data-name="Path 5775" class="cls-11" d="M133.26,221.87a5.78,5.78,0,0,0,6.61-1.86c1.55-1.92,3-7.09,2.62-9.53a62.31,62.31,0,0,0-12.11-1.19c-1.1,0-2.19,0-3.28.09.74,2.27,2.06,4.24,2.45,6.59S131.06,220.87,133.26,221.87Z"/><path id="Path_5776" data-name="Path 5776" class="cls-13" d="M81.74,254.12a69.42,69.42,0,0,0,9.85,8.58A5.87,5.87,0,0,1,94,265.27c1.12,3.3-.81,6.85,1.16,10.61,1.86,3.55,6,5.76,7,9.63.83,3-.44,6.29.27,9.33.88,3.69,4.44,6.18,5.73,9.75.81,2.26.64,4.77,1.24,7.11s2.48,4.72,4.88,4.5c2.91-.26,4.1-3.84,4.33-6.75s.52-6.41,3.12-7.72c1.39-.7,3.2-.59,4.28-1.7,1.8-1.84,0-4.86,0-7.44.07-2.75,2.32-4.87,4.41-6.65l7.9-6.74a6.22,6.22,0,0,0,1.54-6.59,10.93,10.93,0,0,0-4.51-5.41c-2.14-1.43-4.9-2.39-7.28-1.4-1.81.75-3.2,2.56-5.16,2.67-1.8.11-3.36-1.33-4.22-2.91s-1.27-3.39-2.15-5c-2.52-4.54-6.59-4.26-11-4.94a23.92,23.92,0,0,1-12.25-5.79,4.14,4.14,0,0,1-1.27-1.71c-1.17-3.84,5.64-5.54,8-5.47,1.93.07,3.9.63,5.76.11s3.1-1.86,4.59-2.91c4.23-3,10.4,1.08,11.21-6.94.32-3.14-.89-6.21-2.08-9.13a99.32,99.32,0,0,1-4.42-12.62,61.92,61.92,0,0,0-40.07,32.3c2.11,2.27,1.5,1.21,2.38,4.19A16.77,16.77,0,0,0,81.74,254.12Z"/><path id="Path_5777-2" data-name="Path 5777-2" class="cls-14" d="M190.33,216.61l4.56-4.57-5.48-5.49L174.91,221l5.49,5.49,4.43-4.43A73.23,73.23,0,0,1,81.42,325.51l4.43-4.43-5.49-5.49L65.87,330.08l5.49,5.49L75.93,331a81,81,0,0,0,114.4-114.39Z"/></g></g></g></svg>