<svg id="Layer_1" data-name="Layer 1" xmlns="http://www.w3.org/2000/svg" xmlns:xlink="http://www.w3.org/1999/xlink" viewBox="0 0 400 400"><defs><style>.cls-1{fill:#c6e6ff;opacity:0.58;}.cls-1,.cls-11{isolation:isolate;}.cls-2{fill:url(#linear-gradient);}.cls-3{fill:url(#linear-gradient-2);}.cls-4{fill:none;stroke:#3b55ce;stroke-linecap:round;stroke-width:0.63px;}.cls-4,.cls-6{stroke-miterlimit:10;}.cls-5{fill:url(#linear-gradient-3);}.cls-13,.cls-14,.cls-6{fill:#fff;}.cls-6{stroke:#0e71bb;stroke-width:6.67px;}.cls-7{fill:#156aa9;}.cls-8{fill:#3581c3;}.cls-9{fill:#77c1eb;}.cls-10{fill:#2c72b8;}.cls-11{fill:#00a3b2;opacity:0.25;}.cls-12{fill:url(#linear-gradient-4);}.cls-13{font-size:5.41px;font-family:Dubai-Light, Dubai;font-weight:300;}.cls-14{font-size:4.83px;font-family:Dubai-Bold, Dubai;font-weight:700;}</style><linearGradient id="linear-gradient" y1="301.87" x2="152.7" y2="301.87" gradientUnits="userSpaceOnUse"><stop offset="0" stop-color="#44989f"/><stop offset="0.21" stop-color="#39b0b4"/><stop offset="0.52" stop-color="#2ccbcd"/><stop offset="0.8" stop-color="#24dcdd"/><stop offset="1" stop-color="#21e2e2"/></linearGradient><linearGradient id="linear-gradient-2" x1="53.55" y1="317.56" x2="87.16" y2="317.56" gradientUnits="userSpaceOnUse"><stop offset="0" stop-color="#ffbc98"/><stop offset="1" stop-color="#ff9f6c"/></linearGradient><linearGradient id="linear-gradient-3" x1="38.97" y1="329.56" x2="83.13" y2="329.56" xlink:href="#linear-gradient-2"/><linearGradient id="linear-gradient-4" x1="273.22" y1="279.77" x2="303.3" y2="279.77" gradientUnits="userSpaceOnUse"><stop offset="0" stop-color="#00a2b0"/><stop offset="1" stop-color="#00a3b2" stop-opacity="0.25"/></linearGradient></defs><path class="cls-1" d="M366.48,345.92c11.06,0,16-5.78,19.7-11.63,21.34-33.37,18.79-96-13.43-116.51-40.27-25.65,12.63-78.81-35.58-108.85s-100,30.6-155.6,1.09S59.81,107.34,67.14,168.11c5.11,42.39,16,54.76-18.26,90.37C25.34,283,41.1,314.81,60.62,337.24c5.25,6,8.76,8.48,17.9,8.51C173.69,346.07,271.52,345.69,366.48,345.92Z"/><path class="cls-2" d="M87.71,317.54V259.83a30.8,30.8,0,0,0-17.86,1.58C37,273.65,48.59,304,48.59,304s-8.6-3-13.66,3.55,0,13.66,0,13.66S0,323.9,0,344.59H148s6-13.1,4.44-27Z"/><path class="cls-3" d="M85.53,345.21a66,66,0,0,0,1.06-23.38c-1.75-12.8-13.07-32.58-23.93-31.91s-11.4,13.26-4.84,19.33,22.35,20.14,22.07,35.43Z"/><path class="cls-4" d="M62.29,297.21c6.33,4,23.46,19.65,20.84,47.77"/><path class="cls-5" d="M83.13,345a32.7,32.7,0,0,0-8.88-21.62c-9.18-9.58-24.17-11.43-31.26-6.8-6.53,4.26-5.62,14.09,6.55,14.45,18.64.54,26.93,3.3,30.35,13.67Z"/><path class="cls-4" d="M46.43,321.17C55.17,319.5,77.71,322,81.8,345"/><rect class="cls-6" x="89.52" y="170" width="264.97" height="155.65" rx="12.49"/><path class="cls-7" d="M76.35,328.89H368.81a0,0,0,0,1,0,0V334a12.56,12.56,0,0,1-12.56,12.56H88.91A12.56,12.56,0,0,1,76.35,334v-5.14A0,0,0,0,1,76.35,328.89Z"/><circle class="cls-8" cx="209.64" cy="337.74" r="2.88"/><circle class="cls-9" cx="221.42" cy="337.74" r="2.88"/><circle class="cls-10" cx="233.19" cy="337.74" r="2.88"/><rect class="cls-11" x="260.28" y="219.33" width="54.12" height="11.63" rx="5.25"/><rect class="cls-11" x="260.28" y="235.71" width="54.12" height="11.63" rx="5.25"/><rect class="cls-11" x="260.28" y="252.09" width="54.12" height="11.63" rx="5.25"/><rect class="cls-12" x="273.22" y="274.58" width="30.08" height="10.38" rx="4.68"/><text class="cls-13" transform="translate(265.13 226.88)">Name</text><text class="cls-13" transform="translate(265.12 243.1)">Mail</text><text class="cls-13" transform="translate(265.12 259.68)">Password</text><text class="cls-14" transform="translate(281.11 281.28)">LOGIN</text><image width="185" height="100" transform="translate(111.96 210.82) scale(0.69)" xlink:href="../../logo-irnic.fa.html"/></svg>