<svg id="Layer_1" data-name="Layer 1" xmlns="http://www.w3.org/2000/svg" xmlns:xlink="http://www.w3.org/1999/xlink" viewBox="0 0 400 400"><defs><style>.cls-1{fill:#c6e6ff;opacity:0.58;isolation:isolate;}.cls-2{fill:url(#linear-gradient);}.cls-3{fill:#e0e0e0;}.cls-4{fill:url(#linear-gradient-2);}.cls-5{fill:#1a2e35;}.cls-6{fill:#288ed9;}.cls-7{opacity:0.3;}.cls-8{fill:#fafafa;}.cls-9{fill:#0e71bb;}.cls-10{fill:#ffe7cb;}.cls-11{fill:#f0d2b9;}.cls-12{fill:#379ae3;}.cls-13{fill:none;stroke:#379ae3;stroke-miterlimit:10;stroke-width:0.34px;}.cls-14{fill:#fff;}.cls-15{opacity:0.28;}.cls-16{fill:#969696;}.cls-17{fill:#7a7a7a;}.cls-18{fill:#65251a;}.cls-19{fill:#4e4e4e;}.cls-20{fill:#303030;}.cls-21{fill:#461711;}</style><linearGradient id="linear-gradient" x1="16.62" y1="193.67" x2="132.94" y2="193.67" gradientUnits="userSpaceOnUse"><stop offset="0" stop-color="#ffbc98"/><stop offset="1" stop-color="#ff9f6c"/></linearGradient><linearGradient id="linear-gradient-2" x1="37.54" y1="265.16" x2="112.03" y2="265.16" gradientUnits="userSpaceOnUse"><stop offset="0" stop-color="#44989f"/><stop offset="0.21" stop-color="#39b0b4"/><stop offset="0.52" stop-color="#2ccbcd"/><stop offset="0.8" stop-color="#24dcdd"/><stop offset="1" stop-color="#21e2e2"/></linearGradient></defs><path class="cls-1" d="M363.77,348a25.08,25.08,0,0,0,22.08-12.84c24.58-45.15,16-111.53-17.12-129.34-41.46-22.27,17.18-87.36-37.91-120.48S231.3,127.61,156.66,86.5,24.08,107.79,32.76,152.56c6.06,31.24,22,58.41-19.46,98.38-28.53,27.5-4.9,66.35,12.62,87.92A25.24,25.24,0,0,0,45.5,348Z"/><path class="cls-2" d="M93.88,277.31c25-12.15,34.78-40.54,38.07-66.93.55-4.41,1.76-8.95.29-13.13s-5.92-7.58-10.13-6.35c-3.5,1-5.52,4.57-7.84,7.41a26,26,0,0,1-11.84,8.18c-3,1-6.61,1.34-9.13-.62-3.44-2.68-3.06-8-2.34-12.33q2-12.18,4-24.35c.72-4.35,1.44-8.8.75-13.15s-3.08-8.67-7-10.49-9.47-.25-11,3.88c-.65,1.72-.58,3.62-1,5.41s-1.57,3.65-3.36,3.88S70,157.44,68.85,156c-3.8-5.11-5.95-11.27-7.91-17.36s-3.8-12.3-7.12-17.75-8.36-10.15-14.54-11.5-13.45,1.45-16,7.32,0,12.7,3.14,18.29A98.37,98.37,0,0,0,43.6,157.49c1.22,1.2,2.54,2.49,2.81,4.19.48,3-2.73,5.5-5.75,6-3.42.56-6.89-.33-10.35-.48s-7.39.78-9.18,3.78c-2.5,4.17.49,9.44,3.66,13.08a84.54,84.54,0,0,0,22.4,18.16c3,1.68,6.23,3.25,8.46,5.91s3.16,6.83,1.11,9.65-6.22,3.17-9.47,2-6-3.46-9-5.18c-5.63-3.21-13.43-4-18.09.53-3.06,3-4,7.71-3.41,12s2.66,8.16,4.9,11.82c7.8,12.79,18.65,23.81,31.78,30.84s25.79,10.38,40.4,7.53"/><path class="cls-3" d="M90.33,278.71c.71-10.55,1.18-5.08-.61-18.94a394.7,394.7,0,0,0-8.81-44.51q-1.47-5.85-2.91-11.55c-1-3.78-1.91-7.54-3.08-11.16a197.39,197.39,0,0,0-7.86-20.4c-2.81-6.37-5.72-12.31-8.47-17.84s-5.45-10.64-8.09-15.19a156.47,156.47,0,0,0-14-20.52c-1.84-2.29-3.32-4-4.35-5.17l-1.17-1.31a2.53,2.53,0,0,0-.42-.42,3.24,3.24,0,0,0,.36.48L32,113.54c1,1.19,2.43,2.94,4.23,5.26A166.5,166.5,0,0,1,50,139.41c2.6,4.56,5.24,9.67,8,15.21s5.61,11.48,8.4,17.84a200.33,200.33,0,0,1,7.79,20.34c1.15,3.6,2.09,7.32,3,11.12l2.91,11.54A406.28,406.28,0,0,1,89,259.88c1.82,13.8,1.41,8.28.78,18.79"/><path class="cls-3" d="M74.7,192.48a8.69,8.69,0,0,0,.72-1.79c.42-1.17,1-2.87,1.63-5,1.3-4.24,2.91-10.16,4.65-16.69s3.43-12.41,4.8-16.62c.68-2.11,1.24-3.81,1.65-5a9.27,9.27,0,0,0,.55-1.85,8.24,8.24,0,0,0-.84,1.74c-.5,1.13-1.15,2.81-1.9,4.9-1.51,4.18-3.29,10.06-5,16.6s-3.25,12.28-4.42,16.74c-.55,2-1,3.71-1.38,5.07A9.2,9.2,0,0,0,74.7,192.48Z"/><path class="cls-3" d="M20.33,173.09a11.78,11.78,0,0,0,2.2.63c1.41.35,3.47.86,6,1.57,5.05,1.37,12,3.5,19.46,6.19s14.2,5.45,19,7.57c2.4,1,4.32,1.94,5.65,2.55a11.55,11.55,0,0,0,2.1.88,12.14,12.14,0,0,0-2-1.17c-1.29-.7-3.18-1.68-5.55-2.79-4.74-2.26-11.42-5.1-18.95-7.81a199.22,199.22,0,0,0-19.58-6c-2.54-.63-4.62-1.05-6.07-1.31A12.48,12.48,0,0,0,20.33,173.09Z"/><path class="cls-3" d="M89.2,258.63s.19-.19.49-.62.77-1.12,1.28-1.87c1.11-1.64,2.65-4,4.51-7,3.72-6,8.61-14.42,13.87-23.8s10.07-17.85,13.66-23.91l4.28-7.16,1.15-2a3,3,0,0,0,.36-.71,3.41,3.41,0,0,0-.49.62L127,194.06c-1.11,1.63-2.65,4-4.51,7-3.72,6-8.61,14.42-13.87,23.81S98.58,242.74,95,248.8L90.71,256l-1.16,2A3.36,3.36,0,0,0,89.2,258.63Z"/><path class="cls-3" d="M18.56,222.79a3.49,3.49,0,0,0,.69.42l2.05,1.07,7.56,3.85C35.24,231.39,44,236,53.69,241.07s18.5,9.62,25,12.74c3.22,1.56,5.84,2.8,7.68,3.62l2.11.93a2.52,2.52,0,0,0,.76.27,3.49,3.49,0,0,0-.69-.42l-2.05-1.07-7.56-3.85c-6.38-3.25-15.15-7.85-24.84-12.95s-18.49-9.61-25-12.73c-3.22-1.56-5.85-2.8-7.68-3.62l-2.11-.93A2.52,2.52,0,0,0,18.56,222.79Z"/><path class="cls-4" d="M40.34,209.94s5.79-3.91,13,10,10,21.89,10,21.89,1.9,2.9,3.89,1,4.69-7.37,8.11-6.43,4.74,4.91,4.12,10.72S78,265.64,77.91,266.79s.59,2.8,2.15,1.7,10.53-11.27,15.11-6.73.18,20.44-.26,22.18-.1,2.49.73,2.91,3.52-3.28,6.19-6.07,6.25-5.55,8.67-2.71,3.3,14.73-7.84,34.15l-5.74,8.66-10.43-.48C64.23,318,55.12,310.32,54.24,306.69s3.46-4.9,7.29-5.42,8.4-.53,8.55-1.45-.25-1.64-1.93-2.3S51,291.07,50.05,284.7s12.51-7.65,14.31-8.27.85-2.14-.11-2.75-11.84-7.39-16.9-10.3-7.55-6.19-6.26-9.63,7.23-2.31,10-2.79,1.5-3.72,1.5-3.72-4.86-7-11.85-21-.24-16.42-.24-16.42"/><path class="cls-5" d="M46.84,222.35a1.16,1.16,0,0,1,.15.25c.09.18.22.43.39.74l1.47,2.86,5.37,10.56c4.57,8.92,10.87,21.2,17.84,34.76s13.27,25.87,17.74,34.82L95.05,317l1.4,2.9.36.75c.08.18.11.27.11.27a1.16,1.16,0,0,1-.15-.25l-.39-.74c-.35-.67-.84-1.64-1.47-2.86l-5.37-10.56c-4.53-8.91-10.85-21.2-17.84-34.76S58.43,245.84,54,236.89l-5.25-10.62-1.4-2.89-.36-.76A1,1,0,0,1,46.84,222.35Z"/><path class="cls-5" d="M71.9,244.1a20.11,20.11,0,0,1-.57,2.74c-.41,1.79-.93,4.06-1.51,6.57S68.7,258.3,68.25,260c-.22.84-.42,1.51-.57,2a2.33,2.33,0,0,1-.28.7c-.05,0,.2-1.05.57-2.74s.9-4.06,1.46-6.58,1.16-4.89,1.62-6.55c.23-.83.43-1.5.58-2A3,3,0,0,1,71.9,244.1Z"/><path class="cls-5" d="M66.45,262.83c0,.11-4.8-1.12-10.65-2.74s-10.58-3-10.55-3.14,4.8,1.13,10.66,2.75S66.48,262.73,66.45,262.83Z"/><path class="cls-5" d="M79.92,286.18a2.54,2.54,0,0,1-.76.11c-.5,0-1.21.1-2.09.15-1.76.08-4.2.14-6.89.06s-5.13-.26-6.88-.45l-2.08-.26a2.85,2.85,0,0,1-.75-.16,23.73,23.73,0,0,1,2.85.13c1.76.12,4.18.26,6.87.34s5.11.06,6.87,0A21.92,21.92,0,0,1,79.92,286.18Z"/><path class="cls-5" d="M88.57,270.32a17,17,0,0,1-1.16,2.37c-.77,1.44-1.85,3.41-3.07,5.57s-2.34,4.12-3.17,5.52A17.59,17.59,0,0,1,79.75,286a16.52,16.52,0,0,1,1.17-2.37c.76-1.44,1.85-3.41,3.07-5.57s2.34-4.12,3.17-5.52A20.07,20.07,0,0,1,88.57,270.32Z"/><path class="cls-5" d="M103.08,289.42a3.9,3.9,0,0,1-.38.83c-.32.59-.72,1.31-1.18,2.17-1,1.83-2.43,4.34-4,7.1s-3,5.25-4.11,7l-1.29,2.11a4.64,4.64,0,0,1-.52.75,3.34,3.34,0,0,1,.38-.83l1.18-2.17c1-1.83,2.43-4.34,4-7.1s3-5.25,4.11-7l1.29-2.11A4.64,4.64,0,0,1,103.08,289.42Z"/><path class="cls-5" d="M91.72,308.86a4,4,0,0,1-1,.08c-.63,0-1.53.05-2.65.06-2.24,0-5.33,0-8.74-.23s-6.49-.48-8.71-.74c-1.11-.13-2-.25-2.63-.35a3.71,3.71,0,0,1-1-.19,5.45,5.45,0,0,1,1,0l2.64.21c2.22.19,5.3.44,8.7.63s6.49.28,8.72.34l2.65.08A4.48,4.48,0,0,1,91.72,308.86Z"/><path class="cls-6" d="M364.6,205.33l-28.09,27.34-25.88,49.4-29.1,55.84-35.76-16.76-38.66-19.79,24.73-47.23,15.36-52.89c-10.85,7.21-31,17-55.13,11.9C165.93,207.6,178.48,109,178.48,109l28.72-.74,2.86,69.49,32.46-14.33,0,.12c2-.88,3.67-1.65,4.57-2.15,18-9.79,29.74-11,49-4.1h0l27.79,9.23c7.14,3.37,33.46,16.33,40.67,38.77"/><path class="cls-5" d="M266.3,155.27s-.65.37-1.74,1.14a19.44,19.44,0,0,0-4,4,28.82,28.82,0,0,0-4,7.37,101.31,101.31,0,0,0-3,9.9c-1.92,7.06-3.66,13.46-4.94,18.15-.64,2.28-1.17,4.14-1.55,5.49-.18.6-.32,1.1-.44,1.48a2.32,2.32,0,0,1-.18.51,2.92,2.92,0,0,1,.1-.53c.09-.39.21-.89.36-1.51.35-1.36.83-3.23,1.41-5.52,1.25-4.7,2.94-11.11,4.82-18.19a96,96,0,0,1,3-9.92,28.18,28.18,0,0,1,4.1-7.42,18.33,18.33,0,0,1,4.17-3.91,11.29,11.29,0,0,1,1.34-.78A1.91,1.91,0,0,1,266.3,155.27Z"/><g class="cls-7"><path d="M255.83,169.19c-8,21.74-22.47,33.9-42.92,44.79a75.32,75.32,0,0,0,33.72-12.36"/></g><g class="cls-7"><path d="M281.41,153.72q5.1,81.72,10.21,163.43l-10.09,20.76Z"/></g><path class="cls-8" d="M265.58,227.12a15.69,15.69,0,0,1-2,1.46c-1.24.87-2.93,2.09-4.75,3.51s-3.41,2.78-4.55,3.78a18.45,18.45,0,0,1-1.88,1.57,11.76,11.76,0,0,1,1.67-1.8,58.75,58.75,0,0,1,4.49-3.89c1.83-1.43,3.56-2.62,4.85-3.43A11.64,11.64,0,0,1,265.58,227.12Z"/><path class="cls-8" d="M264.48,220.39c-.11.06-1.53-2.14-3.48-4.69s-3.68-4.51-3.59-4.6a6.16,6.16,0,0,1,1.27,1.17,39.06,39.06,0,0,1,2.67,3.16,40.36,40.36,0,0,1,2.34,3.43A7,7,0,0,1,264.48,220.39Z"/><path class="cls-8" d="M269.59,193.86a24.91,24.91,0,0,1-4,2.46,24.38,24.38,0,0,1-4.22,2.08,26.7,26.7,0,0,1,4-2.46A26.28,26.28,0,0,1,269.59,193.86Z"/><path class="cls-8" d="M264.53,182.28a6.54,6.54,0,0,1-1.44-1.13,31.93,31.93,0,0,1-5.59-6.81,6.5,6.5,0,0,1-.83-1.64c.12-.06,1.55,2.32,3.72,5S264.62,182.18,264.53,182.28Z"/><path class="cls-8" d="M273.24,182a17.81,17.81,0,0,1,1.54-3.67,18.17,18.17,0,0,1,1.94-3.48,18.31,18.31,0,0,1-1.54,3.67A18.32,18.32,0,0,1,273.24,182Z"/><path class="cls-8" d="M270.91,168.78c-.13,0,0-2.61-.48-5.75s-1.42-5.58-1.29-5.63a5.52,5.52,0,0,1,.71,1.56,22.42,22.42,0,0,1,1.27,8.12A5.13,5.13,0,0,1,270.91,168.78Z"/><path class="cls-8" d="M273.06,235.66a16.53,16.53,0,0,1,0-2.45c0-1.52.09-3.61,0-5.91s-.21-4.39-.34-5.9a14.68,14.68,0,0,1-.15-2.45,12.57,12.57,0,0,1,.46,2.42,56.81,56.81,0,0,1,.3,11.85A11.55,11.55,0,0,1,273.06,235.66Z"/><path class="cls-8" d="M271.79,256.51a37.77,37.77,0,0,0-3.73-3,39.19,39.19,0,0,0-4.28-2.12,12.29,12.29,0,0,1,8,5.11Z"/><path class="cls-8" d="M282.29,269.44a47.62,47.62,0,0,1-5.76,3.23,48.33,48.33,0,0,1-6,2.84,51.07,51.07,0,0,1,5.77-3.23A53.44,53.44,0,0,1,282.29,269.44Z"/><path class="cls-8" d="M252.73,275.17a54.17,54.17,0,0,1-4.24-5.4,52.45,52.45,0,0,1-3.89-5.66,57.2,57.2,0,0,1,4.24,5.4A53.62,53.62,0,0,1,252.73,275.17Z"/><path class="cls-8" d="M243.61,251.31a6.29,6.29,0,0,1-.19-1.72c0-1.07-.06-2.55,0-4.17s.22-3.1.37-4.16a6.16,6.16,0,0,1,.34-1.7c.13,0-.13,2.64-.28,5.88S243.73,251.31,243.61,251.31Z"/><path class="cls-8" d="M233.77,292.05a44.07,44.07,0,0,1-4.91-3.8,43.49,43.49,0,0,1-4.62-4.12,42.26,42.26,0,0,1,4.9,3.79A44.91,44.91,0,0,1,233.77,292.05Z"/><path class="cls-8" d="M239.67,290.8a51.29,51.29,0,0,1-.37-6.58,50.49,50.49,0,0,1,.07-6.59,51.29,51.29,0,0,1,.37,6.58A48.46,48.46,0,0,1,239.67,290.8Z"/><path class="cls-8" d="M251.34,316.07c0,.07-1-.35-2.73-.89A39.33,39.33,0,0,0,235,313.32c-1.77.07-2.86.19-2.87.12a2.72,2.72,0,0,1,.76-.17c.49-.1,1.21-.18,2.1-.26a33,33,0,0,1,13.73,1.88c.84.31,1.5.59,1.95.81A2.52,2.52,0,0,1,251.34,316.07Z"/><path class="cls-8" d="M261,320.68a9.9,9.9,0,0,1,1.89,1.31,46.29,46.29,0,0,1,7.83,7.83,9.34,9.34,0,0,1,1.31,1.89,13.8,13.8,0,0,1-1.54-1.7c-.93-1.06-2.24-2.51-3.76-4s-3-2.83-4-3.75A14.27,14.27,0,0,1,261,320.68Z"/><path class="cls-8" d="M265.14,277a32.34,32.34,0,0,1-2.18-4.89,33.45,33.45,0,0,1-1.77-5.06,32.34,32.34,0,0,1,2.18,4.89A33,33,0,0,1,265.14,277Z"/><path class="cls-8" d="M231.43,191.91a7,7,0,0,1-1.29,1.39,27.75,27.75,0,0,1-7.6,5.07,6.88,6.88,0,0,1-1.78.65c-.06-.12,2.6-1.26,5.55-3.24S231.33,191.81,231.43,191.91Z"/><path class="cls-8" d="M233.57,183a16.05,16.05,0,0,1,0-3.74,16.27,16.27,0,0,1,.4-3.73,16.16,16.16,0,0,1,0,3.75A16.12,16.12,0,0,1,233.57,183Z"/><path class="cls-8" d="M216.84,190.48a50.86,50.86,0,0,1-8.53-3.91,25.66,25.66,0,0,1,4.36,1.76A25.69,25.69,0,0,1,216.84,190.48Z"/><path class="cls-8" d="M246.71,179.1a24.59,24.59,0,0,1,.14-4.64,24.32,24.32,0,0,1,.57-4.61,24.59,24.59,0,0,1-.14,4.64A24.48,24.48,0,0,1,246.71,179.1Z"/><path class="cls-8" d="M208,208.27a15.62,15.62,0,0,1-4.79-2.1,15.39,15.39,0,0,1-4.1-3.24c.08-.1,1.87,1.4,4.32,2.87S208,208.15,208,208.27Z"/><path class="cls-8" d="M195.5,191.19a35.37,35.37,0,0,1-3.57,4.24,36.3,36.3,0,0,1-3.9,3.95,34.49,34.49,0,0,1,3.57-4.24A36.3,36.3,0,0,1,195.5,191.19Z"/><path class="cls-8" d="M194.43,175.9a17.07,17.07,0,0,1-7.11-5.34c.09-.09,1.5,1.33,3.46,2.79S194.49,175.78,194.43,175.9Z"/><path class="cls-8" d="M186.61,179.1a10.6,10.6,0,0,1-1.79,2.45,10.48,10.48,0,0,1-2.13,2.17,11.09,11.09,0,0,1,1.79-2.45A10.2,10.2,0,0,1,186.61,179.1Z"/><path class="cls-8" d="M203.4,150.7a34.27,34.27,0,0,1-3.28,4.35,34.52,34.52,0,0,1-3.62,4.08,34.75,34.75,0,0,1,3.28-4.36A34.94,34.94,0,0,1,203.4,150.7Z"/><path class="cls-8" d="M189,153.93a30.81,30.81,0,0,1-3.57-3.75,30.32,30.32,0,0,1-3.24-4,30.81,30.81,0,0,1,3.57,3.75A31.08,31.08,0,0,1,189,153.93Z"/><path class="cls-8" d="M196.2,135.71a25.18,25.18,0,0,1-2.51-4,26.51,26.51,0,0,1-2.12-4.2,25.31,25.31,0,0,1,2.5,4A26.1,26.1,0,0,1,196.2,135.71Z"/><path class="cls-8" d="M195.84,124c-.11-.08,1.15-1.68,2.15-3.93s1.37-4.25,1.5-4.23a13,13,0,0,1-3.65,8.16Z"/><path class="cls-8" d="M182,123.25a9.77,9.77,0,0,1,1-5.14,12.46,12.46,0,0,1,2.05-3.12,3.94,3.94,0,0,1,1.17-1,23.94,23.94,0,0,0-2.82,4.31A24.55,24.55,0,0,0,182,123.25Z"/><path class="cls-9" d="M363.63,106.86a11.58,11.58,0,0,1-7.83,1.58c-.4-.07-.79-.15-1.19-.24a15,15,0,0,1-5.72-2.3l-45.72-2.61H303c-.05-.55-.09-1.09-.13-1.64,0,0,0,0,0,0-.09-1.17-.16-2.35-.19-3.53.4-12.47,12.41-22.48,27.17-22.48a29.9,29.9,0,0,1,18.08,5.86,12.28,12.28,0,0,0,2.14,1.82,16.33,16.33,0,0,0,5.28,2.45h.09a9.82,9.82,0,0,1,6,4.24,6.47,6.47,0,0,1,.84,2.82A9.65,9.65,0,0,0,365,98.54a4.75,4.75,0,0,1,1.11,2.07A6.22,6.22,0,0,1,363.63,106.86Z"/><path class="cls-10" d="M301.15,182.34h0a18.12,18.12,0,0,0,22-12.91c1.42-5.38,2.57-9.88,2.57-9.88s14,2.4,18.67-10.87S357,104,357,104h0a48.85,48.85,0,0,0-48.51-9.77l-2.49.86L288.2,160A18.11,18.11,0,0,0,301.15,182.34Z"/><path class="cls-11" d="M325.83,159.37a32.77,32.77,0,0,1-15.72-10.78s.89,11,14.59,14.24Z"/><path class="cls-10" d="M303,109.46c-.19-.17-8.25-5.78-11,3.43s7.05,10.09,7.14,9.83S303,109.46,303,109.46Z"/><path class="cls-11" d="M297.39,118.39s-.2.06-.51.1a1.63,1.63,0,0,1-1.2-.33c-.87-.65-1.22-2.44-.77-4.12a5.51,5.51,0,0,1,1.14-2.16,1.93,1.93,0,0,1,1.58-.87.85.85,0,0,1,.81.73c.05.29-.07.46,0,.49s.24-.1.28-.5a1,1,0,0,0-.19-.68,1.25,1.25,0,0,0-.81-.51,2.37,2.37,0,0,0-2.11.93,5.78,5.78,0,0,0-1.33,2.4c-.5,1.87-.07,3.89,1.15,4.68a1.82,1.82,0,0,0,1.54.2C297.3,118.6,297.41,118.41,297.39,118.39Z"/><path class="cls-9" d="M356.3,108.34a33,33,0,0,1-19.11-7.52c-6-4.93-13.57-8.39-15.63-7.42-1.42.67-2.79,4.17-5.87,6.45a25.84,25.84,0,0,0-7.8,9.66c-1.28,2.66-3.05,4.82-5.33,4.08C297.34,111.9,305.37,92,305.37,92l14.47-3.41,14.83.54,13.33,3,11.52,6.61Z"/><rect class="cls-8" x="93.1" y="55.51" width="188.43" height="293.42" rx="16.59"/><rect class="cls-3" x="267.33" y="73.57" width="3.22" height="246.36" rx="1.61"/><rect class="cls-12" x="267.33" y="73.57" width="3.22" height="127.01" rx="1.61"/><rect class="cls-12" x="189.37" y="294.23" width="68.43" height="25.49" rx="12.75"/><rect class="cls-13" x="115.25" y="294.23" width="68.43" height="25.49" rx="12.75"/><path class="cls-14" d="M212.17,308.3H208.8l-.7,1.58h-.93l2.87-6.34h.89l2.88,6.34h-.95Zm-.32-.73-1.37-3.1-1.37,3.1Z"/><path class="cls-14" d="M214.14,307.48a2.39,2.39,0,0,1,2.53-2.44,2.14,2.14,0,0,1,2,1l-.67.43a1.48,1.48,0,0,0-1.3-.69,1.69,1.69,0,0,0,0,3.38,1.48,1.48,0,0,0,1.3-.69l.67.41a2.16,2.16,0,0,1-2,1A2.4,2.4,0,0,1,214.14,307.48Z"/><path class="cls-14" d="M219.23,307.48a2.39,2.39,0,0,1,2.53-2.44,2.14,2.14,0,0,1,2,1l-.66.43a1.5,1.5,0,0,0-1.3-.69,1.69,1.69,0,0,0,0,3.38,1.5,1.5,0,0,0,1.3-.69l.66.41a2.16,2.16,0,0,1-2,1A2.41,2.41,0,0,1,219.23,307.48Z"/><path class="cls-14" d="M229.09,307.77h-3.9a1.63,1.63,0,0,0,1.74,1.41,1.81,1.81,0,0,0,1.39-.58l.48.56a2.45,2.45,0,0,1-1.9.78,2.41,2.41,0,0,1-2.58-2.46,2.35,2.35,0,0,1,2.41-2.44,2.31,2.31,0,0,1,2.38,2.47A2.46,2.46,0,0,1,229.09,307.77Zm-3.9-.62h3.08a1.55,1.55,0,0,0-3.08,0Z"/><path class="cls-14" d="M235.28,307.48a2.34,2.34,0,0,1-2.43,2.46,2,2,0,0,1-1.67-.78v2.48h-.87v-6.56h.83v.76a2,2,0,0,1,1.71-.8A2.33,2.33,0,0,1,235.28,307.48Zm-.88,0a1.62,1.62,0,1,0-1.62,1.7A1.59,1.59,0,0,0,234.4,307.48Z"/><path class="cls-14" d="M239.17,309.6a1.62,1.62,0,0,1-1,.34,1.38,1.38,0,0,1-1.52-1.51V305.8h-.81v-.72h.81V304h.87v1.05h1.38v.72h-1.38v2.6a.7.7,0,0,0,.75.8,1.11,1.11,0,0,0,.68-.22Z"/><path class="cls-12" d="M131.9,303.25h2.67a3.18,3.18,0,1,1,0,6.34H131.9Zm2.61,5.55a2.39,2.39,0,1,0,0-4.76H132.8v4.76Z"/><path class="cls-12" d="M143.56,307.48h-3.89a1.63,1.63,0,0,0,1.74,1.4,1.78,1.78,0,0,0,1.38-.58l.48.56a2.61,2.61,0,0,1-4.47-1.67,2.35,2.35,0,0,1,2.41-2.45,2.32,2.32,0,0,1,2.37,2.47A2.65,2.65,0,0,1,143.56,307.48Zm-3.89-.63h3.08a1.55,1.55,0,0,0-3.08,0Z"/><path class="cls-12" d="M144.34,307.19a2.4,2.4,0,0,1,2.53-2.45,2.14,2.14,0,0,1,2,1l-.66.43a1.51,1.51,0,0,0-1.31-.69,1.69,1.69,0,0,0,0,3.38,1.51,1.51,0,0,0,1.31-.69l.66.42a2.15,2.15,0,0,1-2,1A2.4,2.4,0,0,1,144.34,307.19Z"/><path class="cls-12" d="M149.88,302.87h.87v6.72h-.87Z"/><path class="cls-12" d="M152.26,303.3a.57.57,0,0,1,.58-.57.57.57,0,1,1,0,1.13A.56.56,0,0,1,152.26,303.3Zm.15,1.49h.87v4.8h-.87Z"/><path class="cls-12" d="M159.49,306.82v2.77h-.87v-2.67c0-.94-.47-1.4-1.3-1.4a1.42,1.42,0,0,0-1.52,1.59v2.48h-.87v-4.8h.84v.72a2.05,2.05,0,0,1,1.73-.77A1.86,1.86,0,0,1,159.49,306.82Z"/><path class="cls-12" d="M165.44,307.48h-3.89a1.63,1.63,0,0,0,1.74,1.4,1.78,1.78,0,0,0,1.38-.58l.48.56a2.61,2.61,0,0,1-4.47-1.67,2.35,2.35,0,0,1,2.41-2.45,2.32,2.32,0,0,1,2.37,2.47A2.65,2.65,0,0,1,165.44,307.48Zm-3.89-.63h3.08a1.55,1.55,0,0,0-3.08,0Z"/><g class="cls-15"><rect class="cls-12" x="120.36" y="165.56" width="129.36" height="1.55" rx="0.77"/><rect class="cls-12" x="120.36" y="175.32" width="129.36" height="1.55" rx="0.77"/><rect class="cls-12" x="120.36" y="185.07" width="129.36" height="1.55" rx="0.77"/><rect class="cls-12" x="120.36" y="194.83" width="129.36" height="1.55" rx="0.77"/><rect class="cls-12" x="120.36" y="204.58" width="129.36" height="1.55" rx="0.77"/><rect class="cls-12" x="120.36" y="214.34" width="129.36" height="1.55" rx="0.77"/><rect class="cls-12" x="120.36" y="251.66" width="129.36" height="1.55" rx="0.77"/><rect class="cls-12" x="120.36" y="260.03" width="129.36" height="1.55" rx="0.77"/><rect class="cls-12" x="120.36" y="268.41" width="129.36" height="1.55" rx="0.77"/></g><path class="cls-10" d="M283.35,313.56l9.77-4.7L287.75,293,276,290.25c-1.1-.24-2.32-.54-3.69-.92a14.76,14.76,0,0,1-4.47-2.1,22.68,22.68,0,0,1-4.68-4c-1.12-1.52-3.49-1-3.48.73s3,5.95,8.27,9-4.07,4.46-7.46,5.05-13.82,2.92-14.44,4.1c-.9,1.74.83,3.06,4.21,2.39s13.67-2,13.94-.17l0,.05a7.37,7.37,0,0,0,.45,8.56c1.89,2.37,4.74,5.35,6.83,4.9C275.34,317,283.35,313.56,283.35,313.56Z"/><path class="cls-6" d="M282.75,285.62l9.16,31L363,295a28.49,28.49,0,0,0,18.78-36.16l-17.43-54.23L326.5,214l20.77,50.17Z"/><path class="cls-16" d="M182.51,77.38a3,3,0,0,0,3,3V74.34A3,3,0,0,0,182.51,77.38Z"/><path class="cls-17" d="M188.59,77.38a3,3,0,0,0-3-3v6.08A3,3,0,0,0,188.59,77.38Z"/><path class="cls-16" d="M183.31,122.57v0l0,0Z"/><path class="cls-16" d="M185.58,122.64h-2.21a.45.45,0,0,0-.06.08v-.11l0,0a16.76,16.76,0,0,0,0,18.21l.06.1h2.25Z"/><path class="cls-16" d="M183.37,122.64h2.18v-.07h-2.22l0,0v.11A.45.45,0,0,1,183.37,122.64Z"/><path class="cls-16" d="M187.8,122.61v0h0Z"/><rect class="cls-16" x="185.55" y="122.57" width="0.03" height="0.06"/><path class="cls-16" d="M187.68,141h-2.13v0h2.25v-.07l0,0Z"/><path class="cls-17" d="M187.9,122.76l-.1-.15v.21l-.12-.18h-2.1V141h2.1l.12-.2v.17l.1-.17A16.77,16.77,0,0,0,187.9,122.76Z"/><path class="cls-16" d="M185.65,122.57h-.07v.07h2.1l.12.18v-.21l0,0Z"/><path class="cls-16" d="M187.68,141h.1l0,0v-.17Z"/><polygon class="cls-16" points="185.46 122.57 185.55 122.57 185.55 119.17 183.31 119.17 183.31 122.57 183.33 122.57 185.46 122.57"/><polygon class="cls-17" points="185.55 122.57 185.58 122.57 185.65 122.57 187.78 122.57 187.8 122.57 187.8 119.17 185.55 119.17 185.55 122.57"/><path class="cls-16" d="M185.61,141H165.85a2,2,0,0,0-2,2v1.3h21.74Z"/><path class="cls-16" d="M166.24,145.29H164a1.88,1.88,0,0,0-1.76,2v1.79h23.39v-3.76Z"/><rect class="cls-16" x="163.87" y="144.74" width="21.74" height="0.55"/><rect class="cls-16" x="163.87" y="144.25" width="21.74" height="0.49"/><path class="cls-17" d="M207.23,144.25V143a2,2,0,0,0-2-2H185.61v3.28Z"/><path class="cls-17" d="M209,147.26a1.89,1.89,0,0,0-1.77-2H185.62v3.76H209Z"/><polygon class="cls-17" points="185.61 144.25 185.61 144.74 185.61 145.28 207.23 145.28 207.23 144.74 207.23 144.25 185.61 144.25"/><rect class="cls-17" x="185.55" y="90.68" width="2.25" height="28.5"/><polygon class="cls-16" points="185.53 90.68 185.53 85.96 185.53 81.62 183.32 81.62 181.28 90.68 183.31 90.68 183.31 119.17 185.55 119.17 185.55 90.68 185.53 90.68"/><path class="cls-16" d="M185.55,86h0l.52.06A2.24,2.24,0,0,0,185.55,86Z"/><path class="cls-16" d="M185.55,90.68V86h0v4.72Z"/><path class="cls-17" d="M187.8,81.62h-2.27V86h0a2.24,2.24,0,0,1,.52.06l-.52-.06v4.72h4.24Z"/><path class="cls-16" d="M184.57,86.15a1,1,0,0,0,1,1v-2A1,1,0,0,0,184.57,86.15Z"/><path class="cls-16" d="M184.57,86.15a1,1,0,0,1,1-1v-.9a1.88,1.88,0,0,0,0,3.76v-.9A1,1,0,0,1,184.57,86.15Z"/><path class="cls-17" d="M187.43,86.15a1.88,1.88,0,0,0-1.88-1.88h0v.9h0a1,1,0,1,1,0,2h0V88h0A1.88,1.88,0,0,0,187.43,86.15Z"/><path class="cls-16" d="M179.23,79.87a.88.88,0,0,0,0,1.75h6.32V79.87Z"/><path class="cls-16" d="M179.25,90.68a.88.88,0,0,0,0,1.75h6.3V90.68Z"/><path class="cls-17" d="M192.71,80.74a.87.87,0,0,0-.88-.87h-6.28v1.75h6.28A.87.87,0,0,0,192.71,80.74Z"/><path class="cls-17" d="M192.73,91.56a.87.87,0,0,0-.88-.88h-6.3v1.75h6.3A.87.87,0,0,0,192.73,91.56Z"/><path class="cls-17" d="M189.53,92.43s-1.66-.05-1.73,2.16V92.43Z"/><path class="cls-16" d="M181.59,92.43s1.65-.05,1.72,2.16V92.43Z"/><path class="cls-16" d="M185.55,92.9c-4.83,0-11.35,4-16.56,4.88-6,1-8.77-3.7-11.2-3.38h-.07a1.08,1.08,0,0,0,.09,2.14,5.77,5.77,0,0,1,3.57,1.75c3.87,3.71,8.66,2.93,15.35.63a22.65,22.65,0,0,1,8.82-1.39Z"/><path class="cls-18" d="M158.64,95.51a.52.52,0,1,1-.51-.51A.51.51,0,0,1,158.64,95.51Z"/><path class="cls-19" d="M151.3,125.94l6.83-27.64V95.16a.61.61,0,0,0-.59.46l-7.6,30.78a.61.61,0,0,0,.11.52.59.59,0,0,0,.48.23h7.6v-1.21Z"/><path class="cls-20" d="M166.21,126.92a.64.64,0,0,0,.11-.52l-7.6-30.78a.61.61,0,0,0-.59-.46V98.3L165,125.94h-6.82v1.21h7.6A.62.62,0,0,0,166.21,126.92Z"/><path class="cls-6" d="M148.79,125.94c-.52,0-.92.68-.83,1.43a10.39,10.39,0,0,0,10.17,9.18V125.94Z"/><path class="cls-9" d="M168.29,127.37c.1-.75-.3-1.43-.83-1.43h-9.33v10.61A10.37,10.37,0,0,0,168.29,127.37Z"/><path class="cls-18" d="M148.65,124.92a.51.51,0,1,0,0,1h9.48v-1Z"/><path class="cls-21" d="M168.12,125.43a.51.51,0,0,0-.51-.51h-9.48v1h9.48A.51.51,0,0,0,168.12,125.43Z"/><path class="cls-17" d="M185.63,92.9c4.83,0,11.34,4,16.56,4.88,6,1,8.77-3.7,11.2-3.38h.07a1.08,1.08,0,0,1-.09,2.14,5.77,5.77,0,0,0-3.57,1.75c-3.87,3.71-8.66,2.93-15.35.63a22.67,22.67,0,0,0-8.82-1.39Z"/><path class="cls-18" d="M212.54,95.51a.51.51,0,1,0,.51-.51A.51.51,0,0,0,212.54,95.51Z"/><path class="cls-19" d="M219.88,125.94,213.05,98.3V95.16a.61.61,0,0,1,.59.46l7.6,30.78a.64.64,0,0,1-.11.52.6.6,0,0,1-.48.23h-7.6v-1.21Z"/><path class="cls-20" d="M205,126.92a.64.64,0,0,1-.11-.52l7.6-30.78a.61.61,0,0,1,.59-.46V98.3l-6.83,27.64h6.83v1.21h-7.6A.6.6,0,0,1,205,126.92Z"/><path class="cls-9" d="M222.38,125.94c.53,0,.93.68.83,1.43a10.37,10.37,0,0,1-10.16,9.18V125.94Z"/><path class="cls-6" d="M202.88,127.37c-.09-.75.31-1.43.83-1.43h9.34v10.61A10.39,10.39,0,0,1,202.88,127.37Z"/><path class="cls-18" d="M222.53,124.92a.51.51,0,0,1,0,1h-9.48v-1Z"/><path class="cls-21" d="M203.06,125.43a.51.51,0,0,1,.51-.51h9.48v1h-9.48A.51.51,0,0,1,203.06,125.43Z"/><path class="cls-16" d="M185.53,104.17a5.42,5.42,0,0,1-5.42-5.42,5.27,5.27,0,0,1,.17-1.33H179a3,3,0,0,1-.52,0,6.85,6.85,0,0,0-.13,1.37,7.22,7.22,0,0,0,7.2,7.21h.05v-1.79Z"/><path class="cls-17" d="M192.74,98.75a7.23,7.23,0,0,0-.12-1.33h-1.83a5.27,5.27,0,0,1,.17,1.33,5.44,5.44,0,0,1-5.38,5.42V106A7.21,7.21,0,0,0,192.74,98.75Z"/></svg>