<svg id="Layer_1" data-name="Layer 1" xmlns="http://www.w3.org/2000/svg" xmlns:xlink="http://www.w3.org/1999/xlink" viewBox="0 0 400 400"><defs><style>.cls-1{fill:#c6e6ff;opacity:0.58;isolation:isolate;}.cls-2{fill:url(#linear-gradient);}.cls-17,.cls-18,.cls-3{fill:none;stroke-linecap:round;}.cls-3{stroke:#1dceb4;stroke-miterlimit:10;stroke-width:1.45px;}.cls-4{fill:url(#linear-gradient-2);}.cls-5{fill:url(#linear-gradient-3);}.cls-6{fill:url(#linear-gradient-4);}.cls-7{fill:url(#linear-gradient-5);}.cls-8{fill:url(#linear-gradient-6);}.cls-9{fill:url(#linear-gradient-7);}.cls-10{fill:url(#linear-gradient-8);}.cls-11{fill:#f59b6b;}.cls-12{fill:url(#Degradado_sin_nombre_14);}.cls-13{fill:url(#linear-gradient-9);}.cls-14{fill:url(#Degradado_sin_nombre_14-2);}.cls-15{fill:url(#Degradado_sin_nombre_11);}.cls-16{fill:url(#Degradado_sin_nombre_38);}.cls-17,.cls-18{stroke:#01004c;stroke-linejoin:round;}.cls-17{stroke-width:3px;}.cls-18{stroke-width:1.5px;}.cls-19{fill:#01004c;}.cls-20{fill:#62a5e7;}.cls-21{font-size:17.4px;fill:#fff;font-family:MyriadPro-Regular, Myriad Pro;}.cls-22{fill:#f9d8b7;}.cls-23{fill:#ebebeb;}.cls-24{fill:#164571;}.cls-25{fill:#21e2e2;}.cls-26{fill:#1a2e35;}.cls-27{fill:#288ed9;}.cls-28{fill:#0e71bb;}.cls-29{fill:#f0d2b9;}.cls-30{fill:#0072c6;}.cls-31{fill:#ffe7cb;}.cls-32{fill:#1f364c;}.cls-33{opacity:0.3;}.cls-34{fill:#379ae3;}</style><linearGradient id="linear-gradient" x1="70.2" y1="254.99" x2="42.32" y2="206.7" gradientUnits="userSpaceOnUse"><stop offset="0" stop-color="#419ee3"/><stop offset="1" stop-color="#0d79c9"/></linearGradient><linearGradient id="linear-gradient-2" x1="79.84" y1="237.39" x2="52.09" y2="189.32" xlink:href="#linear-gradient"/><linearGradient id="linear-gradient-3" x1="95.21" y1="221.28" x2="64.4" y2="167.9" xlink:href="#linear-gradient"/><linearGradient id="linear-gradient-4" x1="113.55" y1="210.91" x2="96.4" y2="181.21" xlink:href="#linear-gradient"/><linearGradient id="linear-gradient-5" x1="279.34" y1="261.23" x2="273.86" y2="230.15" gradientUnits="userSpaceOnUse"><stop offset="0" stop-color="#44989f"/><stop offset="0.21" stop-color="#39b0b4"/><stop offset="0.52" stop-color="#2ccbcd"/><stop offset="0.8" stop-color="#24dcdd"/><stop offset="1" stop-color="#21e2e2"/></linearGradient><linearGradient id="linear-gradient-6" x1="299.3" y1="259.11" x2="299.3" y2="213.84" xlink:href="#linear-gradient-5"/><linearGradient id="linear-gradient-7" x1="318.34" y1="262.72" x2="318.34" y2="201.14" xlink:href="#linear-gradient-5"/><linearGradient id="linear-gradient-8" x1="332.62" y1="265.41" x2="340.94" y2="218.23" xlink:href="#linear-gradient-5"/><linearGradient id="Degradado_sin_nombre_14" x1="224.78" y1="170.53" x2="283.07" y2="170.53" gradientUnits="userSpaceOnUse"><stop offset="0" stop-color="#0f3f84"/><stop offset="0.66" stop-color="#36dcf2"/><stop offset="1" stop-color="#0f3f84"/></linearGradient><linearGradient id="linear-gradient-9" x1="298.72" y1="147.71" x2="317.96" y2="147.71" gradientUnits="userSpaceOnUse"><stop offset="0" stop-color="#1d4b9e"/><stop offset="0.24" stop-color="#36dcf2"/><stop offset="0.48" stop-color="#1d4b9e"/><stop offset="0.62" stop-color="#36dcf2"/><stop offset="1" stop-color="#1d4b9e"/></linearGradient><linearGradient id="Degradado_sin_nombre_14-2" x1="283.07" y1="170.53" x2="309.56" y2="170.53" xlink:href="#Degradado_sin_nombre_14"/><linearGradient id="Degradado_sin_nombre_11" x1="245.46" y1="147.71" x2="315.67" y2="147.71" gradientUnits="userSpaceOnUse"><stop offset="0" stop-color="#1d4b9e"/><stop offset="1" stop-color="#36dcf2"/></linearGradient><linearGradient id="Degradado_sin_nombre_38" x1="247.96" y1="147.71" x2="313.16" y2="147.71" gradientUnits="userSpaceOnUse"><stop offset="0" stop-color="#1d4b9e"/><stop offset="1" stop-color="#033660"/></linearGradient></defs><path class="cls-1" d="M67.88,331.61C86.77,247.19,29,208.53,40.16,155.78s43.35-87.07,99.53-71.9,79.31,60.7,150.12,42.64,106.94-4.34,109.83,37.21-11.89,130.91-37,167.88Z"/><path class="cls-2" d="M60.57,260.55c-1.44-11,2.89-17.7-10.11-23.48S30.59,224.61,34.2,214.31s22.58-10.84,29.08-2.17,11,18.79,10.3,33.42Z"/><path class="cls-3" d="M43.89,218.77s22.4-.25,23.25,31.31"/><path class="cls-4" d="M72,242s-1.06-23.8-12.82-29.81-16.26-9-14.27-16.62S63.1,188.48,70,197s11.56,18.24,11.56,33.78Z"/><path class="cls-3" d="M50.52,196.61s22.28.31,26.25,36.71"/><path class="cls-5" d="M79.54,230.21a190.47,190.47,0,0,0-8.13-28.91c-5.6-15-5.06-38.11,5.42-40.1S84.06,178.54,89.66,189s9.75,19.15,5.42,32.33Z"/><path class="cls-3" d="M76.77,165.78c-4.21,22.88,9.15,24.93,10.48,57.68"/><path class="cls-6" d="M94.71,219.82s-4.78-15.73-.45-30,19-18.82,23.85-12.41-8.31,17.25-3.89,33.15Z"/><path class="cls-3" d="M112.42,179.63s-15.54,12.76-9,33.48"/><path class="cls-7" d="M277.53,257.06c-3-4.94-16.26-11.95-14.7-20.11s16.38-9.15,22.4,1.69a47.86,47.86,0,0,1,6.15,20.47Z"/><path class="cls-3" d="M270.48,236.48s12.53,2.94,12.59,19.38"/><path class="cls-8" d="M290.05,256.58c-3.73-7.59-8.07-24.45-3.49-34.8s18.42-11.08,17.58.84-3.49,25,9.88,36.49Z"/><path class="cls-3" d="M295.59,218.59s-8.85,8.06,1.81,35.94"/><path class="cls-9" d="M309.56,261.64c-6.14-7.95-12.21-15.66-10.26-27.58s7.61-15.9,17.12-22.76,18.55-13.73,21.08-8.07-15.42,18.31-17,29.14,9,30.35,9,30.35Z"/><path class="cls-3" d="M331.72,207.27s-36.84,17-18.87,51.84"/><path class="cls-10" d="M322.21,260.92c-1.69-9.88-6.44-27.22,5.93-37.58s30.19-1.8,27.91,6.75-15.81,6.24-19.15,16.84a27.77,27.77,0,0,0,1.17,19.44Z"/><path class="cls-3" d="M350.33,227.86s-31.19-4.16-22.19,29.44"/><path class="cls-11" d="M51.36,331.61H355.93s34.32-69-52.39-77.08-70.45-49.25-148.13-53.23S40.52,261,51.36,331.61Z"/><path class="cls-12" d="M283.07,172.16H226.4a1.63,1.63,0,0,1-1.62-1.63h0a1.63,1.63,0,0,1,1.62-1.62h56.67Z"/><path class="cls-13" d="M298.72,126.52v42.39h10.84l8.38-41a1.2,1.2,0,0,0-1.17-1.43Z"/><path class="cls-14" d="M283.07,168.91h26.49a0,0,0,0,1,0,0v.51a2.74,2.74,0,0,1-2.74,2.74H283.07a0,0,0,0,1,0,0v-3.25A0,0,0,0,1,283.07,168.91Z"/><path class="cls-15" d="M255.7,126.52h60L307,168.91H245.46l8.35-40.85A1.92,1.92,0,0,1,255.7,126.52Z"/><path class="cls-16" d="M248,165.65l7.43-36.35a1.2,1.2,0,0,1,1.17-1H312a1.2,1.2,0,0,1,1.17,1.43l-7.44,36.36a1.19,1.19,0,0,1-1.17,1H249.15A1.18,1.18,0,0,1,248,165.65Z"/><line class="cls-17" x1="227.19" y1="177.46" x2="219.51" y2="331.61"/><line class="cls-17" x1="320.46" y1="177.46" x2="328.14" y2="331.61"/><line class="cls-17" x1="224.63" y1="228.79" x2="323.1" y2="228.79"/><line class="cls-18" x1="257.53" y1="177.46" x2="255.85" y2="331.61"/><rect class="cls-19" x="226.89" y="179.75" width="93.75" height="4.21"/><path class="cls-20" d="M327.47,180.65H220.17a4.24,4.24,0,0,1-4.24-4.25h0a4.24,4.24,0,0,1,4.24-4.24h107.3a4.24,4.24,0,0,1,4.25,4.24h0A4.25,4.25,0,0,1,327.47,180.65Z"/><text class="cls-21" transform="translate(266.38 153.95)">IRR</text><path class="cls-22" d="M164.11,110c-6.93-1.83-12.63-.48-18.78,8.75-7.4,11.09-18.86,28.1-18.86,28.1s-19.94,19.69-26.81,22.95a31.7,31.7,0,0,1-6,1.91c-6.33,3-17.07,1.86-14.27,6.65,2.15,3.66,6.77,6.43,12.55,6.1,7.81-.44,12.25-3.17,17.77-6.76,6.86-4.46,31.49-21.65,31.49-21.65Z"/><path class="cls-23" d="M114.16,158l-3.62,3.14c2.63,1.5,7.65,8,7.76,10.87l4.32-2.95Z"/><path class="cls-24" d="M164.11,110s-6.33-3.32-12.11.68-26,35.83-26,35.83l-13.81,12.69c2.69,1.09,8.72,9,8.54,12l19.38-12.43Z"/><path class="cls-24" d="M203.14,186.2c0,10-.4,91.19-.4,91.19.25,2.86,3,7.95,3.21,18.25.32,14.95-2,50.15-2,50.15a13.71,13.71,0,0,1-11.59.23s-8.18-49.79-10-64.58c-1.63-12.91-6.16-70.81-6.16-70.81l-8,55.07a59.18,59.18,0,0,1,1.29,16.55c-.49,6.84-6.82,41.11-6.82,41.11s-4.9,3.32-12,.92c0,0-.62-53.8-.74-60.07-.14-7.16,1.5-80.16,1.5-80.16Z"/><path class="cls-25" d="M205.54,353.92a17.63,17.63,0,0,1-2,3.29,13.71,13.71,0,0,0-2.6,6.05c-.12,1-.05,1.95-.21,2.9a8.51,8.51,0,0,1-6.13,6.89c-4.23,1.24-10.2,1.16-14.12-1.45-1.08-.71-.85-3.84-.23-5a40.8,40.8,0,0,1,3.23-3.72c3.38-4.24,4.61-5.59,6.08-9.22a34.85,34.85,0,0,0,1.82-5.34,28.31,28.31,0,0,0,.61-2.94s0-.08,0-.12a13.42,13.42,0,0,0,6.23,1.34,13.16,13.16,0,0,0,6.36-1.42c.18.61.37,1.33.55,2C205.71,349.37,206.41,351.78,205.54,353.92Z"/><path class="cls-25" d="M163.79,336.05c-1.91,1.31-4.62,1.21-6.84,1.52a18.56,18.56,0,0,0-7,3,26.58,26.58,0,0,1-7.79,3.8,21.19,21.19,0,0,1-10.25-.31,11,11,0,0,1-4.11-1.75,4.11,4.11,0,0,1-1.64-3.93,2.25,2.25,0,0,1,.48-1,3.31,3.31,0,0,1,1.1-.73c3.93-1.77,6.9-2.87,10.18-4.67a66.78,66.78,0,0,0,8-5,39,39,0,0,0,3.59-2.77l1.34-1.23c.69,1.13,3.09,2,5.93,2,3.38,0,6.11-1.15,6.16-2.6a47.81,47.81,0,0,1,1.6,6.36C165.07,331.44,165.92,334.58,163.79,336.05Z"/><path class="cls-26" d="M176.17,210.63a38.64,38.64,0,0,1-14.5-8.32s2.8,5.24,11.12,10.12l-4,50.25Z"/><path class="cls-27" d="M185.09,109.93c3.54.85,10.68,2,12.28,9.08,1.93,8.47,2.55,26.93,2.55,26.93l.66,41.07c-7.17,5.22-35,8.06-50.08-3,0,0,3.33-49.31,3.33-57s4.27-16.9,16-17.58Z"/><path class="cls-24" d="M170,108.68a30.64,30.64,0,0,0-5.85,11.38c-1.43,6.21-2.77,76.71-2.77,76.71s-8.06-1-11.51-3.69c0,0-.7-57.6.73-66.57,2.54-15.82,2.3-17.4,19.39-18.84Z"/><path class="cls-24" d="M188.19,107.67s-9.81,6-9.92,30.05c-.09,20.77.22,62.07.22,62.07s16.29,1,26.58-5.13c0,0-2.17-26.23-2.29-40.9,4.29-20.82,8-41.12,2-42.77C198.62,109.3,188.19,107.67,188.19,107.67Z"/><path class="cls-28" d="M182.55,74a14.31,14.31,0,1,1-14.31-14.31A14.31,14.31,0,0,1,182.55,74Z"/><path class="cls-28" d="M193,84.12s-3.43,6.66-4.36,8.45-1.74,6.53-1.74,6.53l.17-7.66Z"/><path class="cls-28" d="M190.06,68.52s2,.57,1.51,3.31c-.52,3,.89,7.34-1.65,13.43l-1.31-.64Z"/><path class="cls-22" d="M187.3,84.63c.87.52,1.17-2,2.25-3.09s4.84-2.65,5.33,1.43c.45,3.72-2.25,7.71-3.77,9.49-3.25,3.81-4.07-1-4.07-1L186.68,111h0c-3.3,4.24-10.73,9.23-14.73,8.51-3.2-.56-3.89-6-.84-9.49v-7a30,30,0,0,1-6.45.33c-3.51-.55-5.74-3.32-6.79-7.13-1.61-5.82-2.13-12.34-.92-23.08,1.5-13.2,16.93-13.32,25.21-8.11S187.3,84.63,187.3,84.63Z"/><path class="cls-28" d="M187.3,86.1A4.14,4.14,0,0,0,189.6,83c-.06-2,.46-14.49.46-14.49a6,6,0,0,0-1-6.72c-2.07-2.28-4-7.37-13.38-6.26-4.47.53-9.09.5-13.79,1-5.9.64-8.26,8.11-3.66,11.84l.11.09s2.13,1.37,7.74,2,14.33-.13,15.52-.29c1.63-.22,2,1.35,2.85,5.65C185.18,79.67,185.82,86.07,187.3,86.1Z"/><path class="cls-29" d="M171.12,103s7.85-1.58,10.6-3a9.08,9.08,0,0,0,3.8-3.76,12.46,12.46,0,0,1-2.16,4.43c-2,2.57-12.24,4.62-12.24,4.62Z"/><path class="cls-30" d="M172,119.28c6.22-3.14,13.75-8.27,14.75-13.31l.06-2.81s2.45.78,3.08,4.89c-.53,6.17-4.81,12.51-10.39,15.69l-.88-1.56c-1.31-2.34-4.77-2.83-7.38-2.21Z"/><path class="cls-30" d="M171.13,104.93a5.81,5.81,0,0,0-2.5,2c-3.74,5-3.39,13.44-3.39,13.44l.78-.71a4.2,4.2,0,0,1,5.55-.08h0c-1.09-2-1.21-7.28-.46-9.56Z"/><path class="cls-22" d="M204.77,111c4.87,1.25,8.09,1.65,11.43,8,2.91,5.54,16.31,28.73,19.19,34.28,1.42,2.74,2.84,5.9-.93,9.71-3,3.05-22.9,21.71-26.14,24.9a13.64,13.64,0,0,1-8.89,4.28c-5.05.45-7.52-1.35-8.41-2.44-5.36-6.58,4.9-7.58,8.41-9.76a17.63,17.63,0,0,0,4.32-3.71l-.22-3.49s3.73,0,4.92-.95,11.75-14.75,11.75-14.75-15.17-20-17.11-24.14S198.93,114.2,204.77,111Z"/><path class="cls-23" d="M211.13,167.79c-.08.12-2.43,3.34-2.43,3.34a8.54,8.54,0,0,0,2,5.85,14.5,14.5,0,0,0,5.32,4.29l3.21-3.06Z"/><path class="cls-24" d="M209.73,169.07s.78,8.74,8.33,11.15c0,0,17.93-17.11,19.6-19.43s.52-4.75-3.09-11.08-17.8-32.16-20.12-34.85-6.15-3.17-11.61-4.36a23.07,23.07,0,0,0-2.26,16c2.13,8.74,4.07,11.07,4.07,11.07l13.93,19.73Z"/><g id="Characters"><g id="Character"><path class="cls-31" d="M54.43,196.64h0c-4.12-9.8-11.07-27.14-11.49-30.46-.64-5,0-31,.82-39.64s3.36-12.82,9-14.74a12.53,12.53,0,0,1,7.51,7.49c2,5.82.84,13.93.84,13.93l-2.52,32.91L65,190.56a11.73,11.73,0,0,0,3.9,6.11A42.62,42.62,0,0,1,73,200.05c1.88,2.09,2.94,4.09,4.93,5.88s1.35,2.12,0,2.65-3.62-.78-5.52-2.55a20.75,20.75,0,0,0-1.65-1.39,38.63,38.63,0,0,0,6.21,12c2.32,2.83,3,5.25-.37,6.31-4.2,1.32-8.54,1.32-12.14-1.27s-5.48-7.72-6.74-12S56.21,200.7,54.43,196.64Z"/><path class="cls-30" d="M59.28,166.07l.48-9.32s2.72-29.12,2.76-34.71c0-6.32-1.73-9.16-4.05-10.24s-4.62-1.57-9.87-2.44c-7.19,4.49-6.8,25.21-7,37.65s-.76,18.67,1.1,22.56,11.75,27.07,11.75,27.07a17.84,17.84,0,0,0,10.8-5.34Z"/><path class="cls-32" d="M7.59,188.14c-.22,10.9-2.53,85.79-2.53,85.79a161.53,161.53,0,0,0-1.43,17.76c-.3,14.41,2.72,48.61,2.72,48.61.67,3.11,12.28,4.37,13.82,1.56,0,0,6.34-49.6,8.14-63.86,1.57-12.45,6.43-51.69,6.43-51.69l4.33,38.5a124.87,124.87,0,0,0,.32,14c.46,6.59,3.78,45.51,3.78,45.51,0,2.42,12.12,4.43,14.16.85,0,0,3.82-56.81,3.93-62.86.14-6.9-.83-74.95-.83-74.95Z"/><path class="cls-25" d="M33.79,368.62c-4.38,2.93-11,3-15.75,1.63a9.05,9.05,0,0,1-6.83-7.68c-.77-4.3-1.17-6.94-3.35-10.19-.81-1.19-2.1-2.14-2.64-3.47-1-2.38-.2-5.07.42-7.46.18-.66.36-1.35.55-2A16.89,16.89,0,0,0,13.43,341a17,17,0,0,0,7.25-1.47v0a32.59,32.59,0,0,0,3,9.15c1.92,3.92,3,5.55,6.79,10.28.88,1.11,2.9,2.9,3.6,4.15S35,367.82,33.79,368.62Z"/><path class="cls-25" d="M82.09,343.11A11.74,11.74,0,0,1,77.66,345a22.82,22.82,0,0,1-11.1.33,31.44,31.44,0,0,1-8.9-4.11A19.85,19.85,0,0,0,50,337.94c-2.39-.35-5.33-.23-7.39-1.65-2.31-1.59-1.39-5-.74-7.9.43-2,.67-4.57,1.12-6.23A15.1,15.1,0,0,0,51,324.28a15.39,15.39,0,0,0,6.87-1.53c.24.24.52.51.82.78a43.34,43.34,0,0,0,3.87,3,73,73,0,0,0,8.61,5.41c3.56,1.95,6.78,3.14,11,5.06a3.43,3.43,0,0,1,1.18.8,2.27,2.27,0,0,1,.53,1.06A4.42,4.42,0,0,1,82.09,343.11Z"/><path class="cls-33" d="M36.3,209.6a36.5,36.5,0,0,0,12.25-7.87s-2,5.71-10,10.41l.52,49.75-4-35.58Z"/><path class="cls-34" d="M25.68,108.62c-2,.49-8.5,2.23-13.74,4.08a14.63,14.63,0,0,0-6.63,5.06c-3.8,5.57-.37,17.92,2.43,41.2-.21,15-.64,31-.64,31,6.91,5,39.16,8.46,53.7-2.17,0,0,.49-53.65-.48-61-1.84-14-7.33-17.79-18.68-18.45Z"/><path class="cls-28" d="M29.08,71.6c.2,8.12,6.93,18.91,15,18.71S58.66,79,58.46,70.9a14.69,14.69,0,0,0-29.38.7Z"/><path class="cls-28" d="M18.63,82.31s2.65,15.49,3.64,17.31a5.1,5.1,0,0,0,3,2.29L24.9,94Z"/><path class="cls-28" d="M21.23,66.21a5.49,5.49,0,0,0-4.52,1.72c-1.91,2-.67,8.29,1.92,14.38l4.49.4Z"/><path class="cls-31" d="M24.47,82.68c-.89.56-2.21-1.13-3.35-2.27s-4.79-2.63-6.51,1.22S16.42,95,19.29,95.79C24.24,97.21,24.9,94,24.9,94l.85,20.06h0c3.5,4.27,11,3.11,15,2.28,3.26-.66,4.1-1.57.88-5.13l-.15-5.74a21.7,21.7,0,0,0,4.65-.32c2.73-.5,6.72-3.09,7.71-7a79.67,79.67,0,0,0,1.44-28c-1.86-13.51-17.71-13.26-26.08-7.7S24.47,82.68,24.47,82.68Z"/><path class="cls-28" d="M24.51,84.2c-.46,0-2.24-2.8-3.39-3.79-1.58-1.37.11-14.2.11-14.2a6.2,6.2,0,0,1,.91-6.92c2.07-2.39,5-5.32,14.63-4.41,6.89.65,14.42,2.62,20.39-.5a10.27,10.27,0,0,1-3.32,11s-2.15,1.47-7.89,2.3-14.72.22-16,.08c-1.67-.19-2,1.44-2.78,5.88C26.52,77.54,26,84.13,24.51,84.2Z"/><path class="cls-28" d="M21.27,67.21l-5.51-2.79A3,3,0,0,1,19.84,63,3.25,3.25,0,0,1,21.27,67.21Z"/><path class="cls-29" d="M41.53,105.51s-8.1-1.43-11-2.86a9.32,9.32,0,0,1-4-3.77,12.86,12.86,0,0,0,2.32,4.5c2.13,2.58,12.68,4.44,12.68,4.44Z"/><path class="cls-30" d="M40.8,116.38c-4.49-.94-14.3-3.69-15.33-8.87l-.13-2.85c-1.74,0-2.54,1.94-3.4,4.73-.36,7.32,7.37,14,15.14,15.82,0,0-.2-3.81,1.11-5.79A13.44,13.44,0,0,1,40.8,116.38Z"/><path class="cls-30" d="M41.55,106.26a7.62,7.62,0,0,1,3.13,1.88c5.81,6,2.49,13.9,2.49,13.9s-.26-3.45-2-4.61a8.45,8.45,0,0,0-4.42-1.05c1.42-1.52,1.64-2.78.88-5.13Z"/></g><path class="cls-31" d="M83.9,181.77c-1.25-.2-3.54-.5-5.05-.62-4.33-.37-10-.7-10-.7l1.35-13.69,8.18,1.17a22.77,22.77,0,0,0,7.6-.18c3.3-.58,6.16-2.87,9.52-2.87,1.73,0,2.71,1.1,3.76,2.45a20.21,20.21,0,0,1,1.91,2.58c2.47,4.11,6.16,9.46,7.58,10.25a2.94,2.94,0,0,0,2.6.46c1.88,3.18-4.85,4.1-7.75,4.84a19.52,19.52,0,0,1-9.44-.17C91.86,184.55,85.16,182,83.9,181.77Z"/><path class="cls-30" d="M11.94,112.7a21.63,21.63,0,0,0-8.8,5.22c-3.63,3.64-3.84,9.82-2,16s17.78,33.81,20.14,38c3.07,5.47,4.87,5.45,10.09,6.08,6.51.78,45.54,3.33,45.54,3.33,2.28-.45,3.51-11.84,1.23-13.92L37,161,23.12,130.91S19.37,113.76,11.94,112.7Z"/><path class="cls-22" d="M112.55,166.33c-2.6.73-4.63-.1-7.52-1.05s-3.78-1.14-6.09-.4-4.65,1.17-5.54,2.45c-.27.39-1.15,3.09-1.82,5.08,0,1,2.41,1.34,3.45-.1.88-1.23,1.08-1.94,1.47-2.4a25.87,25.87,0,0,1,4.71,0L112,174.74Z"/><path class="cls-22" d="M83.37,181.69a3.83,3.83,0,0,1,3.15-1.6,22.18,22.18,0,0,1,4.07.22c1.22.14,2.45.23,3.67.38.62.08,1.24.17,1.85.28.4.08.94.36.89.86a5.18,5.18,0,0,1,1.59-.41,2.05,2.05,0,0,1,1.53.49c.91.83.28,2.11-.3,2.92a4.66,4.66,0,0,1-2.71,2,16.48,16.48,0,0,1-6.33-.31C88.69,186,81.43,183.68,83.37,181.69Z"/></g></svg>