<svg xmlns="http://www.w3.org/2000/svg" xmlns:xlink="http://www.w3.org/1999/xlink" viewBox="0 0 400 400"><defs><style>.cls-1{isolation:isolate;}.cls-2{fill:#fff;}.cls-3{fill:#106a9f;}.cls-4{fill:url(#linear-gradient);}.cls-5{fill:#97c6db;}.cls-14,.cls-6{opacity:0.25;mix-blend-mode:overlay;}.cls-7{fill:url(#linear-gradient-2);}.cls-8{fill:url(#linear-gradient-3);}.cls-9{fill:url(#linear-gradient-4);}.cls-10{mix-blend-mode:multiply;}.cls-11{fill:url(#linear-gradient-5);}.cls-12{fill:#1d262d;}.cls-13{fill:#ffe7cb;}.cls-15{fill:#0a0a0a;}.cls-16{fill:#111114;}.cls-17{fill:#314656;}.cls-18{fill:#0a2033;}.cls-19{fill:#288ed9;}.cls-20{fill:#0e71bb;}.cls-21{fill:#112b46;}.cls-22{fill:url(#linear-gradient-6);}.cls-23{fill:url(#linear-gradient-7);}.cls-24,.cls-25{fill:none;stroke:#f7941d;stroke-miterlimit:10;stroke-width:1.49px;}.cls-25{stroke-dasharray:7.94 7.94;}</style><linearGradient id="linear-gradient" x1="16.85" y1="248.94" x2="374.15" y2="248.94" gradientUnits="userSpaceOnUse"><stop offset="0" stop-color="#c6e6ff"/><stop offset="1" stop-color="#fff"/></linearGradient><linearGradient id="linear-gradient-2" x1="79.05" y1="318.55" x2="79.05" y2="357.9" gradientUnits="userSpaceOnUse"><stop offset="0" stop-color="#ffbc98"/><stop offset="1" stop-color="#ff9f6c"/></linearGradient><linearGradient id="linear-gradient-3" x1="34.5" y1="343.56" x2="34.5" y2="363.16" xlink:href="#linear-gradient-2"/><linearGradient id="linear-gradient-4" x1="46.64" y1="310.66" x2="46.64" y2="355.17" xlink:href="#linear-gradient-2"/><linearGradient id="linear-gradient-5" x1="38.24" y1="379.78" x2="80.48" y2="379.78" xlink:href="#linear-gradient-2"/><linearGradient id="linear-gradient-6" x1="303.62" y1="330.53" x2="310.8" y2="330.53" gradientUnits="userSpaceOnUse"><stop offset="0" stop-color="#006c9d"/><stop offset="0" stop-color="#016499"/><stop offset="0" stop-color="#024f8f"/><stop offset="0" stop-color="#042d7e"/><stop offset="0" stop-color="#061472"/></linearGradient><linearGradient id="linear-gradient-7" x1="195.5" y1="330.53" x2="202.67" y2="330.53" xlink:href="#linear-gradient-6"/></defs><g class="cls-1"><g id="Layer_1" data-name="Layer 1"><circle class="cls-2" cx="333.25" cy="93.11" r="66.85"/><path class="cls-3" d="M334.11,97.39,319.45,140a48.89,48.89,0,0,0,30-.78,4.71,4.71,0,0,1-.35-.67Z"/><path class="cls-3" d="M284.39,93.11a48.87,48.87,0,0,0,27.54,44L288.62,73.23A48.66,48.66,0,0,0,284.39,93.11Z"/><path class="cls-3" d="M366.24,90.65a25.76,25.76,0,0,0-4-13.48c-2.47-4-4.8-7.43-4.8-11.46,0-4.49,3.41-8.67,8.21-8.67.22,0,.42,0,.64,0a48.87,48.87,0,0,0-73.83,9.2c1.14,0,2.22.06,3.14.06,5.12,0,13-.62,13-.62a2,2,0,0,1,.31,4s-2.65.31-5.59.46l17.79,52.93L331.8,91.06,324.19,70.2c-2.63-.15-5.12-.47-5.12-.47-2.64-.15-2.33-4.17.3-4,0,0,8.08.62,12.87.62,5.11,0,13-.62,13-.62a2,2,0,0,1,.31,4s-2.65.32-5.59.47l17.66,52.53,4.87-16.29C364.64,99.69,366.24,94.83,366.24,90.65Z"/><path class="cls-3" d="M376.13,69.67a37.45,37.45,0,0,1,.33,5,46.09,46.09,0,0,1-3.71,17.51l-14.93,43.15a48.86,48.86,0,0,0,18.31-65.68Z"/><path class="cls-3" d="M333.25,31.11a62,62,0,1,0,62,62A62,62,0,0,0,333.25,31.11Zm0,116.35A54.35,54.35,0,1,1,387.6,93.11,54.41,54.41,0,0,1,333.26,147.46Z"/><path class="cls-4" d="M24.94,399.07S-.65,360.49,39.19,304.92s14.15-91.19,46.68-155.48,114.52-71.85,151,3.47c10,20.55,45,72.56,69.44,87.72,19.85,12.28,66.36,21.46,67.79,95.31.33,17.07-8.74,47.9-20.64,63.13Z"/><rect class="cls-5" x="15.03" y="394.74" width="358.2" height="4.97"/><g class="cls-6"><path d="M66.82,354.14s-.58,1.72-1.19,3.88a37.82,37.82,0,0,0-1.4,6.54l1,.08a37.92,37.92,0,0,1,1.36-6.34c.3-1.06.6-2,.82-2.72s.36-1.11.36-1.11l-1-.33Z"/><path d="M57.58,355s0,.18.05.49c.09.95.28,3.17.28,5.58,0,1.12,0,2.77-.15,3.86l1,.11c.11-1.15.15-2.82.15-4a60.33,60.33,0,0,0-.34-6.19l-1,.12Z"/><path d="M52.45,361.83h0a4.7,4.7,0,0,1,.44.65,7.3,7.3,0,0,1,.47,2.16h1a8.17,8.17,0,0,0-.66-2.75,4.12,4.12,0,0,0-.54-.76l-.76.7Z"/></g><path class="cls-7" d="M65.59,355.19s-5.3-6.72,2.84-20.68S93.38,317.19,94.15,319,85.62,324.3,83,335s-2.93,16.68-6.16,19.91S69.25,359.46,65.59,355.19Z"/><path class="cls-8" d="M54.68,356.54S54.1,349,40.41,344.78s-26.65,3.69-26.07,5.33,8.74-1.67,16.86,3.77,11.92,9.11,16,9.27S54.85,361.52,54.68,356.54Z"/><path class="cls-9" d="M62.91,351.59s9.13-9.8-1.46-25.48S27.52,309.33,26.76,311.5s9.13,6.28,13,18.61,6,18.52,10,22.05S59,356.86,62.91,351.59Z"/><g class="cls-6"><path class="cls-10" d="M67.74,353.12l-.14,0a.53.53,0,0,1-.36-.64c.24-.85,5.92-21,16.42-28.69a.52.52,0,1,1,.61.83c-10.21,7.48-16,27.93-16,28.14A.51.51,0,0,1,67.74,353.12Z"/></g><g class="cls-6"><path class="cls-10" d="M57.17,350.56a.57.57,0,0,1-.52-.38,2.44,2.44,0,0,1-.06-.56c-.47-7.09-3.49-30.6-22.46-35.56a.52.52,0,1,1,.26-1C54,318.2,57.14,342.29,57.62,349.55c0,.19,0,.32,0,.37a.48.48,0,0,1-.34.62A.32.32,0,0,1,57.17,350.56Z"/></g><g class="cls-6"><path d="M50.78,360c-.23,0-.46-.21-1.22-.89-8.5-7.7-16.7-11.35-24.37-10.85a.52.52,0,1,1-.07-1c8-.53,16.41,3.22,25.13,11.11L51,359a.49.49,0,0,1,.31.32.52.52,0,0,1-.33.65A.72.72,0,0,1,50.78,360Z"/></g><path class="cls-11" d="M71.94,395H45.28a1.44,1.44,0,0,1-1.41-1.11l-5.58-26.63a2.24,2.24,0,0,1,2.2-2.7H78.24a2.25,2.25,0,0,1,2.17,2.82l-7.07,26.51A1.43,1.43,0,0,1,71.94,395Z"/><polygon class="cls-12" points="257.42 258.51 199.09 258.51 199.09 255.2 255.45 255.2 282.58 205.62 285.49 207.21 257.42 258.51"/><path class="cls-13" d="M164,153.22a28.29,28.29,0,0,1-3.89,9.95C157,168,150,175,148.1,175.62c-.78.24-3.56-1-6.59-2.61-1-.51-2-1.08-3-1.62-3.49-1.94-6.56-3.8-6.56-3.8l-4.63-6.54a53.36,53.36,0,0,1,10.37-23.29c5.14-6.73,16.62-2.68,20.8.55S164.94,146.6,164,153.22Z"/><path class="cls-14" d="M138.29,154c-.14,4.23,2.65,5.82,3.21,6.54s-3.19,4.62-4.86,2.87S138.29,154,138.29,154Z"/><polygon class="cls-13" points="243.07 366.92 245.14 376.87 231.47 379.23 228.33 367.83 243.07 366.92"/><path class="cls-15" d="M271.33,381.47l.89,5-43.34,7.73-.88-4.94s38.42-7.29,42.6-7.67Z"/><path class="cls-16" d="M270.6,381.58c-4.18.38-42.6,7.67-42.6,7.67l1.37-11.46a.85.85,0,0,1,1-.72c10.18,2,13.71-2.44,14.67-4.15C245.25,372.55,269.06,381.27,270.6,381.58Z"/><path class="cls-17" d="M168.87,302.87c-8.88.45-20.74,1.08-36.22,1.68-43.33,1.65-34.5-40.3-34.5-40.3l41.4-.55s61.57-.91,74.53,7.37,33.51,102,33.51,102L227,378.83s-18.34-42.25-28.09-61.38c-4-7.87-6.91-13.65-7.16-14.28C191.19,301.76,184.85,302.05,168.87,302.87Z"/><path class="cls-18" d="M140.87,263.69h-1.32l-41.4.55s-5,23.53,10.76,34.65c15.64-3.78,25-19.65,33.17-33.9Z"/><polygon class="cls-13" points="191.72 369.37 191.72 378.81 176.95 378.81 176.95 369.74 191.72 369.37"/><path class="cls-18" d="M191.72,303.17c-.53-1.41-6.87-1.12-22.85-.3l4,72.79,4.07-.1,14.77-.36,3.73-.08,3.43-57.67C194.87,309.58,192,303.8,191.72,303.17Z"/><path class="cls-15" d="M216.77,388.09v5.06h-44v-5s39.1-.43,43.29-.07Z"/><path class="cls-16" d="M216,388.07c-4.19-.36-43.29.07-43.29.07l3.36-11a.86.86,0,0,1,1.13-.53c9.66,3.74,13.91,0,15.16-1.51a.82.82,0,0,1,1.08-.18C193.89,375.13,214.58,387.5,216,388.07Z"/><path class="cls-13" d="M215.74,252.11H191.31s-36.85-6-44-10.35c-2.67-1.64-7.24-6.66-12-12.32L152,215.57c2.92,4.62,5.57,8.38,6.63,8.8,2.9,1.09,30.36,16.41,33.54,16.41S210.49,240.52,215.74,252.11Z"/><path class="cls-19" d="M153.1,215.23l-17.77,14.21c-8.05-9.66-16.48-21.22-16.48-21.22l25.2-15.2S150.52,208.39,153.1,215.23Z"/><path class="cls-14" d="M153.1,215.23l-17.77,14.21c-8.05-9.66-16.48-21.22-16.48-21.22l25.2-15.2S150.52,208.39,153.1,215.23Z"/><path class="cls-19" d="M137.9,180.33l-18.22-7.17S98,175.68,96.45,228c-.29,10.1-.19,66,2.89,67.39,12.28,5.71,43.89-31.74,43.89-31.74.63-1.17-.27-13.24,0-14.44a12.24,12.24,0,0,1-1.89-.86c-3.23-1.9-9.26-9.9-15.19-18.55l18.75-14.6,2.21,3.42C147.6,190.73,137.9,180.33,137.9,180.33Z"/><path class="cls-14" d="M143.23,249.24a12.24,12.24,0,0,1-1.89-.86c-3.23-1.9-9.26-9.9-15.19-18.55l9.21-7.17L126.15,209l-16.58-10.84v7.47s7.1,19.31,15.55,34.46c4.59,8.23,12.18,12.26,18.17,14.24A47.77,47.77,0,0,1,143.23,249.24Z"/><path class="cls-13" d="M196.69,246.32S158.18,230.58,155.56,230c-.82-.18-3.65-4.09-7.14-9.36-.73-1.14-2.78-4.26-3.52-5.42l-18.75,14.6c5.93,8.65,12,16.65,15.19,18.55a12.24,12.24,0,0,0,1.89.86l0-.11a.43.43,0,0,1,0,.11c11.19,4.19,51.49,6.12,52.27,6.39,1.44,1.12,4.84,1.19,7.91.35a11.36,11.36,0,0,0,3.8-1.76c2.69-2,6.71.83,8.53,2.2,1.18.9,3.93.87,4.84,0C218.51,244.78,196.69,246.32,196.69,246.32Z"/><polygon class="cls-13" points="142.05 171.91 141.51 173.01 140.34 175.38 140.12 175.82 137.9 180.33 119.68 173.16 127.31 161.05 139.38 169.95 142.05 171.91"/><path class="cls-19" d="M109.57,205.65l19,29.18,21.72-12.47s-5.91-22.74-11.65-35.25c-3.57-7.78-13.83-11.63-23.76-5.45C106.13,187.11,106.39,199.83,109.57,205.65Z"/><path class="cls-20" d="M145.39,153.14c-.7-3.17-3.6-6.09-6.21-1.85a8.44,8.44,0,0,0-1,3.53c-.47,4.42-5.6,6.36-9.44,6.65a7.16,7.16,0,0,1-1.85-.07s1-7.26,3.12-16,7-17.68,14.08-14.1c0,0,6.49-3,10.44,2,0,0,6.69-2.4,10.16,3,0,0,9.4,1.78,11.16,7.62,2.23,7.42-8.16,9.23-11.63,7.13s-6.09-6.09-8.48-6-1.85,3.74-2.21,6-3.88-.07-5.37,3-2.24,4.76-3.14,4.22S145.39,153.14,145.39,153.14Z"/><path class="cls-14" d="M141.51,173l-1.17,2.37a8.66,8.66,0,0,1-3.68-6.88S137.77,170.86,141.51,173Z"/><path class="cls-21" d="M72.66,215.28c0,.15,0,.2,0,.25s0,.22,0,.32c0,.33.13.91.26,1.8,1,6.61,4.53,29.25,7.82,50.27l6.34,40.38,6.55-1s-.23-1.43-.62-3.94c-1.38-8.78-4.83-30.74-7.94-50.59-1.55-9.93-3-19.33-4.1-26.29-.53-3.48-1-6.35-1.28-8.37-.16-1-.28-1.81-.35-2.36l-.09-.62,0-.13h0l-2,.22,2-.17V215l-2,.22,2-.17-3.06.26h3.08a1.77,1.77,0,0,0,0-.26l-3.06.26H72.66Z"/><path class="cls-18" d="M132.77,317.24h4.87a1.58,1.58,0,0,1,1.58,1.58v76.81a0,0,0,0,1,0,0h-8a0,0,0,0,1,0,0V318.82A1.58,1.58,0,0,1,132.77,317.24Z" transform="translate(270.41 712.88) rotate(180)"/><path class="cls-18" d="M132.77,376.38h4.87a1.58,1.58,0,0,1,1.58,1.58v17.68a0,0,0,0,1,0,0h-8a0,0,0,0,1,0,0V378A1.58,1.58,0,0,1,132.77,376.38Z" transform="translate(270.41 772.01) rotate(180)"/><path class="cls-21" d="M119.29,318.34h31.83a6.14,6.14,0,0,1,6.14,6.14V325a0,0,0,0,1,0,0H113.14a0,0,0,0,1,0,0v-.55A6.14,6.14,0,0,1,119.29,318.34Z" transform="translate(270.41 643.38) rotate(180)"/><rect class="cls-20" x="86.32" y="302.92" width="97.76" height="15.63" rx="7.17" transform="translate(270.41 621.47) rotate(180)"/><path class="cls-18" d="M93.57,390.94a4.7,4.7,0,1,0,4.7-4.7A4.69,4.69,0,0,0,93.57,390.94Z"/><circle class="cls-18" cx="172.14" cy="390.94" r="4.7"/><rect class="cls-21" x="127.13" y="370.4" width="16.14" height="14.1" transform="translate(270.41 754.91) rotate(180)"/><path class="cls-20" d="M93.57,381.19h83.26a0,0,0,0,1,0,0v1.06a5.57,5.57,0,0,1-5.57,5.57H99.14a5.57,5.57,0,0,1-5.57-5.57v-1.06A0,0,0,0,1,93.57,381.19Z" transform="translate(270.41 769.01) rotate(180)"/><path class="cls-20" d="M70.69,220.74l3.53,26.2a6.83,6.83,0,0,0,13.53-1.82l-3.54-26.21a6.82,6.82,0,1,0-13.52,1.83"/><rect class="cls-22" x="303.62" y="266.31" width="7.18" height="128.43"/><rect class="cls-23" x="195.5" y="266.31" width="7.18" height="128.43"/><rect class="cls-20" x="190.12" y="258.31" width="127.87" height="8.97"/><line class="cls-24" x1="333.25" y1="163.87" x2="333.25" y2="167.6"/><path class="cls-25" d="M333.25,175.53v33.6A20.31,20.31,0,0,1,313,229.44H287.13"/><line class="cls-24" x1="283.16" y1="229.44" x2="279.44" y2="229.44"/></g></g></svg>