<svg xmlns="http://www.w3.org/2000/svg" xmlns:xlink="http://www.w3.org/1999/xlink" viewBox="0 0 400 400"><defs><style>.cls-1,.cls-22{isolation:isolate;}.cls-2{fill:url(#linear-gradient);}.cls-3{fill:#fff;}.cls-4{fill:#106a9f;}.cls-5{opacity:0.5;}.cls-6{fill:#1f364c;}.cls-7{fill:#21e2e2;}.cls-8{fill:#ffbc98;}.cls-9{fill:#288ed9;}.cls-10{fill:#137fcf;}.cls-11,.cls-12,.cls-13,.cls-17,.cls-25,.cls-27{fill:none;}.cls-12,.cls-13{stroke:#288ed9;}.cls-12{stroke-width:0.43px;}.cls-13,.cls-17{stroke-linecap:round;stroke-miterlimit:10;stroke-width:1.71px;}.cls-14{fill:url(#linear-gradient-2);}.cls-15{fill:#024679;}.cls-16{fill:#043c67;}.cls-17{stroke:#1f364c;}.cls-18{fill:#166eaf;}.cls-19,.cls-22{fill:#005b9f;}.cls-20{opacity:0.4;mix-blend-mode:multiply;}.cls-21{fill:#606060;}.cls-22{opacity:0.57;}.cls-23{fill:#0e71bb;}.cls-24{fill:#52acea;}.cls-25{stroke:#ffbc98;}.cls-25,.cls-27{stroke-width:0.86px;}.cls-26{fill:#80c9ff;}.cls-27{stroke:#21e2e2;}.cls-28{fill:#d6eeff;}</style><linearGradient id="linear-gradient" x1="1.19" y1="400.24" x2="1.18" y2="400.93" gradientTransform="matrix(740.56, 0, 0, -612.51, -677.44, 245617.49)" gradientUnits="userSpaceOnUse"><stop offset="0" stop-color="#c6e6ff"/><stop offset="1" stop-color="#fff"/></linearGradient><linearGradient id="linear-gradient-2" x1="0.95" y1="402.58" x2="0.95" y2="401.72" gradientTransform="matrix(531, 0, 0, -95, -352.26, 38535.44)" gradientUnits="userSpaceOnUse"><stop offset="0" stop-color="#288ed9"/><stop offset="1" stop-color="#137fcf" stop-opacity="0.05"/></linearGradient></defs><g class="cls-1"><g id="Layer_1" data-name="Layer 1"><path id="Path_5630" data-name="Path 5630" class="cls-2" d="M201.55,104.77c65.18,41.59,139.81,60.31,139.81,60.31s82.19,12.48,52,106.06-34.17,127.09-81.55,129.49c-44.94,1.28-70.18-17.27-114.63-14.07-39.06,3-65.95,20.6-131.2-5.11C-38.63,335.25-30.84-41.84,201.55,104.77Z"/><circle class="cls-3" cx="235.03" cy="169.07" r="97.95"/><path class="cls-4" d="M236.29,175.33l-21.48,62.42a71.58,71.58,0,0,0,44-1.14,6.15,6.15,0,0,1-.51-1Z"/><path class="cls-4" d="M163.43,169.06a71.61,71.61,0,0,0,40.36,64.44l-34.15-93.57A71.32,71.32,0,0,0,163.43,169.06Z"/><path class="cls-4" d="M283.37,165.45c0-8.85-3.18-15-5.9-19.75-3.63-5.89-7-10.89-7-16.79,0-6.58,5-12.7,12-12.7.32,0,.62,0,.93.05a71.59,71.59,0,0,0-108.17,13.48c1.67,0,3.25.09,4.6.09,7.49,0,19.09-.91,19.09-.91,3.86-.23,4.31,5.44.46,5.89,0,0-3.88.46-8.2.69l26.07,77.55,15.67-47-11.16-30.57c-3.85-.22-7.51-.68-7.51-.68-3.85-.22-3.4-6.12.46-5.89,0,0,11.82.91,18.85.91,7.49,0,19.09-.91,19.09-.91,3.86-.23,4.32,5.44.46,5.89,0,0-3.89.46-8.2.68l25.88,77,7.14-23.86C281,178.69,283.37,171.58,283.37,165.45Z"/><path class="cls-4" d="M297.86,134.71a54.64,54.64,0,0,1,.48,7.37c0,7.26-1.35,15.43-5.44,25.64L271,231a71.59,71.59,0,0,0,26.83-96.24Z"/><path class="cls-4" d="M235,78.22a90.85,90.85,0,1,0,90.85,90.85A90.85,90.85,0,0,0,235,78.22Zm0,170.48a79.64,79.64,0,1,1,79.63-79.64A79.72,79.72,0,0,1,235,248.7Z"/><g id="Group_7222" data-name="Group 7222" class="cls-5"><rect id="Rectangle_3077" data-name="Rectangle 3077" class="cls-6" x="85.6" y="210.38" width="36.36" height="1.28"/><rect id="Rectangle_3078" data-name="Rectangle 3078" class="cls-6" x="85.6" y="213.8" width="36.36" height="1.28"/><rect id="Rectangle_3079" data-name="Rectangle 3079" class="cls-6" x="85.6" y="217.22" width="36.36" height="1.28"/><rect id="Rectangle_3080" data-name="Rectangle 3080" class="cls-6" x="85.6" y="220.64" width="36.36" height="1.28"/><rect id="Rectangle_3090" data-name="Rectangle 3090" class="cls-6" x="85.6" y="224.06" width="36.36" height="1.28"/></g><g id="Group_7200" data-name="Group 7200"><g id="Group_7153-2" data-name="Group 7153-2"><rect id="Rectangle_1425-3" data-name="Rectangle 1425-3" class="cls-7" x="157.91" y="250.37" width="2.93" height="3.05" rx="1.47"/><rect id="Rectangle_1442-3" data-name="Rectangle 1442-3" class="cls-8" x="162.18" y="250.37" width="2.93" height="3.05" rx="1.47"/></g><g id="Group_7154-2" data-name="Group 7154-2"><rect id="Rectangle_1425-4" data-name="Rectangle 1425-4" class="cls-9" x="157.91" y="254.36" width="2.93" height="3.05" rx="1.47"/><rect id="Rectangle_1442-4" data-name="Rectangle 1442-4" class="cls-10" x="162.18" y="254.36" width="2.93" height="3.05" rx="1.47"/><rect id="Rectangle_3070-2" data-name="Rectangle 3070-2" class="cls-9" x="166.34" y="254.36" width="2.93" height="3.05" rx="1.47"/><rect id="Rectangle_3085" data-name="Rectangle 3085" class="cls-9" x="166.34" y="250.37" width="2.93" height="3.05" rx="1.47"/></g><g id="Group_7201" data-name="Group 7201"><rect id="Rectangle_1425-5" data-name="Rectangle 1425-5" class="cls-7" x="157.91" y="258.27" width="2.93" height="3.05" rx="1.47"/><rect id="Rectangle_1442-5" data-name="Rectangle 1442-5" class="cls-9" x="162.18" y="258.27" width="2.93" height="3.05" rx="1.47"/></g><g id="Group_7202" data-name="Group 7202"><rect id="Rectangle_1425-6" data-name="Rectangle 1425-6" class="cls-9" x="157.91" y="262.26" width="2.93" height="3.05" rx="1.47"/><rect id="Rectangle_1442-6" data-name="Rectangle 1442-6" class="cls-10" x="162.18" y="262.26" width="2.93" height="3.05" rx="1.47"/><rect id="Rectangle_3070-3" data-name="Rectangle 3070-3" class="cls-9" x="166.34" y="262.26" width="2.93" height="3.05" rx="1.47"/><rect id="Rectangle_3085-2" data-name="Rectangle 3085-2" class="cls-9" x="166.34" y="258.27" width="2.93" height="3.05" rx="1.47"/></g></g><g id="Group_7192" data-name="Group 7192"><rect id="Rectangle_3071" data-name="Rectangle 3071" class="cls-10" x="100.99" y="304.06" width="14.14" height="14.14" rx="2.14"/><path id="Path_6020-2" data-name="Path 6020-2" class="cls-9" d="M108.26,307.91a3.42,3.42,0,1,1-3.42,3.42A3.42,3.42,0,0,1,108.26,307.91Z"/><g id="Ellipse_1370" data-name="Ellipse 1370"><circle class="cls-11" cx="108.26" cy="311.33" r="4.71"/><circle class="cls-12" cx="108.26" cy="311.33" r="4.49"/></g><path id="Path_6021" data-name="Path 6021" class="cls-13" d="M154.16,296.78H128c-3.54,0-5.18,2-5.12,5.42,0,.91.07,15.34.07,18.12,0,3.4-2.1,4.44-5.64,4.44,0,0-2.33-.06-4.95-.06s-4.27-1.77-4.27-3.73v-6.49"/></g><ellipse id="Ellipse_1369" data-name="Ellipse 1369" class="cls-14" cx="152.12" cy="351.75" rx="113.57" ry="20.32"/><rect id="Rectangle_3072" data-name="Rectangle 3072" class="cls-15" x="63.35" y="200.96" width="80.42" height="150.58" rx="4.28"/><g id="Group_7199" data-name="Group 7199" class="cls-5"><rect id="Rectangle_3077-2" data-name="Rectangle 3077-2" class="cls-6" x="85.17" y="331.01" width="36.36" height="1.28"/><rect id="Rectangle_3078-2" data-name="Rectangle 3078-2" class="cls-6" x="85.17" y="334.43" width="36.36" height="1.28"/><rect id="Rectangle_3079-2" data-name="Rectangle 3079-2" class="cls-6" x="85.17" y="337.85" width="36.36" height="1.28"/><rect id="Rectangle_3080-2" data-name="Rectangle 3080-2" class="cls-6" x="85.17" y="341.27" width="36.36" height="1.28"/></g><rect id="Rectangle_3081" data-name="Rectangle 3081" class="cls-16" x="85.17" y="235.19" width="42.78" height="79.14"/><g id="Group_6080" data-name="Group 6080"><path id="Path_3440" data-name="Path 3440" class="cls-17" d="M106.48,242.8v9.34c0,2,1,2.88,2.85,2.85.43,0,1.27,0,2.73,0,1.79,0,2.33,1.17,2.33,3.14V259l0,54.28"/><path id="Path_3441" data-name="Path 3441" class="cls-17" d="M103.56,245.54v4c0,2,1,2.89,2.85,2.85h2.73c1.79,0,2.34,1.17,2.34,3.14l0,57.7"/><path id="Path_3442" data-name="Path 3442" class="cls-17" d="M111.76,241.35v7.49a2.12,2.12,0,0,0,2.42,2.42l4.5,0c1.52,0,2,1,2,2.67v2.92"/><path id="Path_3444" data-name="Path 3444" class="cls-17" d="M127.74,240.68H109.29c-2,0-2.88,1-2.85,2.84,0,.48,0,1.31,0,2.77"/><path id="Path_3445" data-name="Path 3445" class="cls-17" d="M103.53,246.64c0-1.46,0-2.26,0-2.77.08-1.83-.83-2.85-2.84-2.85H86.24"/><path id="Path_3448" data-name="Path 3448" class="cls-17" d="M92.08,241v36.9c0,2,1,2.89,2.84,2.85.48,0,1.31,0,2.77,0,1.79,0,2.34,1.17,2.34,3.14v29.26h0"/><path id="Path_3449" data-name="Path 3449" class="cls-17" d="M94.81,241v12c0,2,1,2.88,2.85,2.84.47,0,1.31,0,2.77,0,1.78,0,2.33,1.17,2.33,3.14V284"/><path id="Path_3450" data-name="Path 3450" class="cls-17" d="M97.47,241.3v46.92c0,2,1,2.88,2.81,2.84.47,0,1.31,0,2.77,0,1.79,0,2.33,1.16,2.33,3.13v19"/></g><g id="Group_7196" data-name="Group 7196"><rect id="Rectangle_3083" data-name="Rectangle 3083" class="cls-18" x="159.79" y="270.03" width="7.67" height="28.95" rx="3.83"/><path id="Rectangle_3084" data-name="Rectangle 3084" class="cls-19" d="M163.08,289.88v-10.1a1.86,1.86,0,0,1,1.86-1.86h0a1.87,1.87,0,0,1,1.86,1.86v10.1a1.86,1.86,0,0,1-1.86,1.86h0A1.86,1.86,0,0,1,163.08,289.88Z"/></g><g id="Group_7198" data-name="Group 7198"><g id="Group_7153" data-name="Group 7153"><path id="Rectangle_1425" data-name="Rectangle 1425" class="cls-7" d="M98.29,323.88h0a1.42,1.42,0,0,1,1.42,1.41v.11a1.42,1.42,0,0,1-1.42,1.41h0a1.41,1.41,0,0,1-1.41-1.41v-.11A1.41,1.41,0,0,1,98.29,323.88Z"/><path id="Rectangle_1442" data-name="Rectangle 1442" class="cls-8" d="M102.41,323.88h0a1.41,1.41,0,0,1,1.41,1.41v.11a1.41,1.41,0,0,1-1.41,1.41h0A1.42,1.42,0,0,1,101,325.4v-.11A1.42,1.42,0,0,1,102.41,323.88Z"/></g><g id="Group_7154" data-name="Group 7154"><path id="Rectangle_1425-2" data-name="Rectangle 1425-2" class="cls-9" d="M106.42,323.88h0a1.42,1.42,0,0,1,1.42,1.41v.11a1.42,1.42,0,0,1-1.42,1.41h0A1.41,1.41,0,0,1,105,325.4v-.11A1.41,1.41,0,0,1,106.42,323.88Z"/><path id="Rectangle_1442-2" data-name="Rectangle 1442-2" class="cls-10" d="M110.54,323.88h0a1.41,1.41,0,0,1,1.41,1.41v.11a1.41,1.41,0,0,1-1.41,1.41h0a1.42,1.42,0,0,1-1.42-1.41v-.11A1.42,1.42,0,0,1,110.54,323.88Z"/><path id="Rectangle_3070" data-name="Rectangle 3070" class="cls-9" d="M114.55,323.88h0a1.41,1.41,0,0,1,1.41,1.41v.11a1.41,1.41,0,0,1-1.41,1.41h0a1.41,1.41,0,0,1-1.41-1.41v-.11A1.41,1.41,0,0,1,114.55,323.88Z"/></g></g><g id="Group_7367" data-name="Group 7367" class="cls-20"><g id="Group_7365-5" data-name="Group 7365-5"><g id="Group_7382" data-name="Group 7382"><g id="Group_7363-5" data-name="Group 7363-5"><path class="cls-21" d="M241.14,218v17.9c0,1.55-1.56,2.81-3.45,2.81h-1.12v4.47h1.12c1.89,0,3.45,1.26,3.45,2.81v17.9c0,1.54-1.56,2.8-3.45,2.8h-1.12l-97.34,84a1.6,1.6,0,0,1-1.5-1.68V328.8a1.58,1.58,0,0,1,1.5-1.66h2.94v-4.49h-2.94a1.59,1.59,0,0,1-1.5-1.67V300.81a1.6,1.6,0,0,1,1.5-1.67h2.94v-4.47h-2.94a1.6,1.6,0,0,1-1.5-1.68V272.83a1.59,1.59,0,0,1,1.5-1.67h2.94v-4.48h-2.94a1.59,1.59,0,0,1-1.5-1.67V244.84a1.6,1.6,0,0,1,1.5-1.67h2.94V238.7h-1a2,2,0,0,1-.35,0h-1.59a1.58,1.58,0,0,1-1.5-1.66l18-8.48c0-.92-6.68-12.11-6.92-13.35h88.91C239.58,215.19,241.14,216.44,241.14,218Z"/></g></g></g></g><path id="Rectangle_3082" data-name="Rectangle 3082" class="cls-22" d="M68.06,201h38.5V351.54H68.06a4.28,4.28,0,0,1-4.28-4.28v-142A4.28,4.28,0,0,1,68.06,201Z"/><g id="Group_7367-2" data-name="Group 7367"><g id="Group_7365" data-name="Group 7365"><g id="Group_7180" data-name="Group 7180"><g id="Group_5583" data-name="Group 5583"><g id="Group_5582" data-name="Group 5582"><g id="Group_5581" data-name="Group 5581"><rect id="Rectangle_1565" data-name="Rectangle 1565" class="cls-6" x="124.02" y="241.95" width="108.03" height="8.39"/><path id="Path_3764" data-name="Path 3764" class="cls-23" d="M122.9,219.27H233.33c2.17,0,3.94,1.29,3.94,2.87v18.34c0,1.58-1.77,2.86-3.94,2.86H122.9c-2.18,0-4-1.28-4-2.86V222.14C119,220.56,120.72,219.27,122.9,219.27Z"/><path id="Rectangle_1631" data-name="Rectangle 1631" class="cls-19" d="M120.67,219.27h38.2v24.07h-38.2a1.72,1.72,0,0,1-1.72-1.71V221A1.72,1.72,0,0,1,120.67,219.27Z"/></g></g></g></g><g id="Group_7183" data-name="Group 7183"><g id="Group_5584" data-name="Group 5584"><path id="Rectangle_1405" data-name="Rectangle 1405" class="cls-24" d="M193.47,227.89h0a1.25,1.25,0,0,1,1.25,1.25h0a1.25,1.25,0,0,1-1.25,1.26h0a1.25,1.25,0,0,1-1.25-1.26h0A1.25,1.25,0,0,1,193.47,227.89Z"/><path id="Rectangle_1424" data-name="Rectangle 1424" class="cls-7" d="M196.48,232.9h0a1.25,1.25,0,0,1,1.25,1.26h0a1.25,1.25,0,0,1-1.25,1.25h0a1.26,1.26,0,0,1-1.26-1.25h0A1.26,1.26,0,0,1,196.48,232.9Z"/><path id="Rectangle_1406" data-name="Rectangle 1406" class="cls-24" d="M198.48,227.89h0a1.25,1.25,0,0,1,1.25,1.25h0a1.25,1.25,0,0,1-1.25,1.26h0a1.25,1.25,0,0,1-1.25-1.26h0A1.25,1.25,0,0,1,198.48,227.89Z"/><path id="Rectangle_1423" data-name="Rectangle 1423" class="cls-24" d="M201.49,232.9h0a1.25,1.25,0,0,1,1.25,1.26h0a1.25,1.25,0,0,1-1.25,1.25h0a1.25,1.25,0,0,1-1.25-1.25h0A1.25,1.25,0,0,1,201.49,232.9Z"/><path id="Rectangle_1407" data-name="Rectangle 1407" class="cls-8" d="M203.49,227.89h0a1.26,1.26,0,0,1,1.26,1.25h0a1.26,1.26,0,0,1-1.26,1.26h0a1.25,1.25,0,0,1-1.25-1.26h0A1.25,1.25,0,0,1,203.49,227.89Z"/><path id="Rectangle_1422" data-name="Rectangle 1422" class="cls-24" d="M206.5,232.9h0a1.25,1.25,0,0,1,1.25,1.26h0a1.25,1.25,0,0,1-1.25,1.25h0a1.25,1.25,0,0,1-1.25-1.25h0A1.25,1.25,0,0,1,206.5,232.9Z"/><path id="Rectangle_1408" data-name="Rectangle 1408" class="cls-24" d="M208.5,227.89h0a1.25,1.25,0,0,1,1.26,1.25h0a1.25,1.25,0,0,1-1.26,1.26h0a1.25,1.25,0,0,1-1.25-1.26h0A1.25,1.25,0,0,1,208.5,227.89Z"/><path id="Rectangle_1421" data-name="Rectangle 1421" class="cls-7" d="M211.51,232.9h0a1.25,1.25,0,0,1,1.25,1.26h0a1.25,1.25,0,0,1-1.25,1.25h0a1.25,1.25,0,0,1-1.25-1.25h0A1.25,1.25,0,0,1,211.51,232.9Z"/><path id="Rectangle_1409" data-name="Rectangle 1409" class="cls-24" d="M213.52,227.89h0a1.25,1.25,0,0,1,1.25,1.25h0a1.25,1.25,0,0,1-1.25,1.26h0a1.25,1.25,0,0,1-1.26-1.26h0A1.25,1.25,0,0,1,213.52,227.89Z"/><path id="Rectangle_1420" data-name="Rectangle 1420" class="cls-24" d="M216.52,232.9h0a1.25,1.25,0,0,1,1.25,1.26h0a1.25,1.25,0,0,1-1.25,1.25h0a1.25,1.25,0,0,1-1.25-1.25h0A1.25,1.25,0,0,1,216.52,232.9Z"/></g></g><g id="Ellipse_1402" data-name="Ellipse 1402"><circle class="cls-11" cx="225.28" cy="231.44" r="2.13"/><circle class="cls-25" cx="225.28" cy="231.44" r="1.7"/></g><path id="Rectangle_3126" data-name="Rectangle 3126" class="cls-24" d="M187.63,226.94h0a1,1,0,0,1,1,.95V235a1,1,0,0,1-1,.94h0a1,1,0,0,1-.95-.94v-7.11A1,1,0,0,1,187.63,226.94Z"/><path id="Rectangle_3127" data-name="Rectangle 3127" class="cls-24" d="M183.84,226.94h0a1,1,0,0,1,.95.95V235a1,1,0,0,1-.95.94h0a1,1,0,0,1-1-.94v-7.11A1,1,0,0,1,183.84,226.94Z"/><rect id="Rectangle_3128" data-name="Rectangle 3128" class="cls-19" x="164.9" y="226.94" width="15.15" height="3.79"/><rect id="Rectangle_3129" data-name="Rectangle 3129" class="cls-19" x="164.9" y="232.15" width="15.15" height="3.79"/><path id="Rectangle_3130" data-name="Rectangle 3130" class="cls-8" d="M186.68,228.84h1.9V235a1,1,0,0,1-1,.95h0a1,1,0,0,1-.95-.95v-6.15Z"/><path id="Rectangle_3131" data-name="Rectangle 3131" class="cls-7" d="M182.89,232.44h1.9V235a1,1,0,0,1-.95.95h0a1,1,0,0,1-1-.95h0v-2.55Z"/><rect id="Rectangle_3132" data-name="Rectangle 3132" class="cls-26" x="164.9" y="226.94" width="3.79" height="3.79"/><rect id="Rectangle_3133" data-name="Rectangle 3133" class="cls-26" x="164.9" y="232.15" width="3.79" height="3.79"/><rect id="Rectangle_3136" data-name="Rectangle 3136" class="cls-9" x="170.58" y="228.37" width="7.58" height="0.95"/><rect id="Rectangle_3137" data-name="Rectangle 3137" class="cls-9" x="170.58" y="233.57" width="7.58" height="0.95"/><g id="Ellipse_1403" data-name="Ellipse 1403"><circle class="cls-11" cx="225.28" cy="231.44" r="4.5"/><circle class="cls-27" cx="225.28" cy="231.44" r="4.07"/></g><g id="Group_7378" data-name="Group 7378"><g id="Group_7359" data-name="Group 7359"><path id="Rectangle_3070-4" data-name="Rectangle 3070-4" class="cls-9" d="M148.09,234.68h0a1.56,1.56,0,0,1,1.56,1.56v.13a1.56,1.56,0,0,1-1.56,1.56h0a1.56,1.56,0,0,1-1.57-1.56v-.13A1.56,1.56,0,0,1,148.09,234.68Z"/><path id="Rectangle_3138" data-name="Rectangle 3138" class="cls-10" d="M148.18,225.52h0a.71.71,0,0,1,.71.71v6.16a.71.71,0,0,1-.71.71h0a.71.71,0,0,1-.71-.71v-6.16A.71.71,0,0,1,148.18,225.52Z"/></g><g id="Group_7360" data-name="Group 7360"><path id="Rectangle_1442-7" data-name="Rectangle 1442-7" class="cls-28" d="M143.35,234.68h0a1.56,1.56,0,0,1,1.57,1.56v.13a1.56,1.56,0,0,1-1.57,1.56h0a1.56,1.56,0,0,1-1.56-1.56v-.13A1.56,1.56,0,0,1,143.35,234.68Z"/><path id="Rectangle_3139" data-name="Rectangle 3139" class="cls-3" d="M143.44,228.36h0a.71.71,0,0,1,.71.72v3.31a.71.71,0,0,1-.71.71h0a.71.71,0,0,1-.71-.71v-3.31A.71.71,0,0,1,143.44,228.36Z"/></g><g id="Group_7361" data-name="Group 7361"><path id="Rectangle_1425-7" data-name="Rectangle 1425-7" class="cls-9" d="M138.62,234.68h0a1.56,1.56,0,0,1,1.56,1.56v.13a1.56,1.56,0,0,1-1.56,1.56h0a1.56,1.56,0,0,1-1.57-1.56v-.13A1.56,1.56,0,0,1,138.62,234.68Z"/><path id="Rectangle_3140" data-name="Rectangle 3140" class="cls-10" d="M138.71,224.44h0a.71.71,0,0,1,.71.71v7.24a.71.71,0,0,1-.71.71h0a.71.71,0,0,1-.71-.71v-7.24A.71.71,0,0,1,138.71,224.44Z"/></g><g id="Group_7362" data-name="Group 7362"><path id="Rectangle_1442-8" data-name="Rectangle 1442-8" class="cls-8" d="M133.88,234.68h0a1.57,1.57,0,0,1,1.57,1.56v.13a1.57,1.57,0,0,1-1.57,1.56h0a1.56,1.56,0,0,1-1.56-1.56v-.13A1.56,1.56,0,0,1,133.88,234.68Z"/><path id="Rectangle_3141" data-name="Rectangle 3141" class="cls-8" d="M134,226.24h0a.71.71,0,0,1,.71.71v5.44a.71.71,0,0,1-.71.71h0a.71.71,0,0,1-.71-.71V227A.71.71,0,0,1,134,226.24Z"/></g><g id="Group_7363" data-name="Group 7363"><path id="Rectangle_1425-8" data-name="Rectangle 1425-8" class="cls-7" d="M129.15,234.68h0a1.56,1.56,0,0,1,1.56,1.56v.13a1.56,1.56,0,0,1-1.56,1.56h0a1.56,1.56,0,0,1-1.57-1.56v-.13A1.56,1.56,0,0,1,129.15,234.68Z"/><path id="Rectangle_3142" data-name="Rectangle 3142" class="cls-7" d="M129.24,229.31h0a.71.71,0,0,1,.71.71v2.37a.71.71,0,0,1-.71.71h0a.71.71,0,0,1-.71-.71V230A.71.71,0,0,1,129.24,229.31Z"/></g></g></g><g id="Group_7365-2" data-name="Group 7365-2"><g id="Group_7180-2" data-name="Group 7180-2"><g id="Group_5583-2" data-name="Group 5583-2"><g id="Group_5582-2" data-name="Group 5582-2"><g id="Group_5581-2" data-name="Group 5581-2"><rect id="Rectangle_1565-2" data-name="Rectangle 1565-2" class="cls-6" x="124.02" y="270.61" width="108.03" height="8.39"/><path id="Path_3764-2" data-name="Path 3764-2" class="cls-23" d="M122.9,247.93H233.33c2.17,0,3.94,1.29,3.94,2.87v18.34c0,1.58-1.77,2.86-3.94,2.86H122.9c-2.18,0-4-1.28-4-2.86V250.8C119,249.22,120.72,247.93,122.9,247.93Z"/><path id="Rectangle_1631-2" data-name="Rectangle 1631-2" class="cls-19" d="M120.67,247.93h38.2V272h-38.2a1.71,1.71,0,0,1-1.72-1.71V249.65A1.72,1.72,0,0,1,120.67,247.93Z"/></g></g></g></g><g id="Group_7183-2" data-name="Group 7183-2"><g id="Group_5584-2" data-name="Group 5584-2"><path id="Rectangle_1405-2" data-name="Rectangle 1405-2" class="cls-24" d="M193.47,256.55h0a1.25,1.25,0,0,1,1.25,1.25h0a1.25,1.25,0,0,1-1.25,1.26h0a1.25,1.25,0,0,1-1.25-1.26h0A1.25,1.25,0,0,1,193.47,256.55Z"/><path id="Rectangle_1424-2" data-name="Rectangle 1424-2" class="cls-7" d="M196.48,261.56h0a1.25,1.25,0,0,1,1.25,1.26h0a1.25,1.25,0,0,1-1.25,1.25h0a1.26,1.26,0,0,1-1.26-1.25h0A1.26,1.26,0,0,1,196.48,261.56Z"/><path id="Rectangle_1406-2" data-name="Rectangle 1406-2" class="cls-24" d="M198.48,256.55h0a1.25,1.25,0,0,1,1.25,1.25h0a1.25,1.25,0,0,1-1.25,1.26h0a1.25,1.25,0,0,1-1.25-1.26h0A1.25,1.25,0,0,1,198.48,256.55Z"/><path id="Rectangle_1423-2" data-name="Rectangle 1423-2" class="cls-24" d="M201.49,261.56h0a1.25,1.25,0,0,1,1.25,1.26h0a1.25,1.25,0,0,1-1.25,1.25h0a1.25,1.25,0,0,1-1.25-1.25h0A1.25,1.25,0,0,1,201.49,261.56Z"/><path id="Rectangle_1407-2" data-name="Rectangle 1407-2" class="cls-8" d="M203.49,256.55h0a1.26,1.26,0,0,1,1.26,1.25h0a1.26,1.26,0,0,1-1.26,1.26h0a1.25,1.25,0,0,1-1.25-1.26h0A1.25,1.25,0,0,1,203.49,256.55Z"/><path id="Rectangle_1422-2" data-name="Rectangle 1422-2" class="cls-24" d="M206.5,261.56h0a1.25,1.25,0,0,1,1.25,1.26h0a1.25,1.25,0,0,1-1.25,1.25h0a1.25,1.25,0,0,1-1.25-1.25h0A1.25,1.25,0,0,1,206.5,261.56Z"/><path id="Rectangle_1408-2" data-name="Rectangle 1408-2" class="cls-24" d="M208.5,256.55h0a1.25,1.25,0,0,1,1.26,1.25h0a1.25,1.25,0,0,1-1.26,1.26h0a1.25,1.25,0,0,1-1.25-1.26h0A1.25,1.25,0,0,1,208.5,256.55Z"/><path id="Rectangle_1421-2" data-name="Rectangle 1421-2" class="cls-7" d="M211.51,261.56h0a1.25,1.25,0,0,1,1.25,1.26h0a1.25,1.25,0,0,1-1.25,1.25h0a1.25,1.25,0,0,1-1.25-1.25h0A1.25,1.25,0,0,1,211.51,261.56Z"/><path id="Rectangle_1409-2" data-name="Rectangle 1409-2" class="cls-24" d="M213.52,256.55h0a1.25,1.25,0,0,1,1.25,1.25h0a1.25,1.25,0,0,1-1.25,1.26h0a1.25,1.25,0,0,1-1.26-1.26h0A1.25,1.25,0,0,1,213.52,256.55Z"/><path id="Rectangle_1420-2" data-name="Rectangle 1420-2" class="cls-24" d="M216.52,261.56h0a1.25,1.25,0,0,1,1.25,1.26h0a1.25,1.25,0,0,1-1.25,1.25h0a1.25,1.25,0,0,1-1.25-1.25h0A1.25,1.25,0,0,1,216.52,261.56Z"/></g></g><g id="Ellipse_1402-2" data-name="Ellipse 1402-2"><circle class="cls-11" cx="225.28" cy="260.1" r="2.13"/><circle class="cls-25" cx="225.28" cy="260.1" r="1.7"/></g><path id="Rectangle_3126-2" data-name="Rectangle 3126-2" class="cls-24" d="M187.63,255.61h0a1,1,0,0,1,1,.94v7.11a1,1,0,0,1-1,.94h0a1,1,0,0,1-.95-.94v-7.11A1,1,0,0,1,187.63,255.61Z"/><path id="Rectangle_3127-2" data-name="Rectangle 3127-2" class="cls-24" d="M183.84,255.61h0a1,1,0,0,1,.95.94v7.11a1,1,0,0,1-.95.94h0a1,1,0,0,1-1-.94v-7.11A1,1,0,0,1,183.84,255.61Z"/><rect id="Rectangle_3128-2" data-name="Rectangle 3128-2" class="cls-19" x="164.9" y="255.61" width="15.15" height="3.79"/><rect id="Rectangle_3129-2" data-name="Rectangle 3129-2" class="cls-19" x="164.9" y="260.81" width="15.15" height="3.79"/><path id="Rectangle_3130-2" data-name="Rectangle 3130-2" class="cls-8" d="M186.68,257.5h1.9v6.16a1,1,0,0,1-1,.94h0a1,1,0,0,1-.95-.94V257.5Z"/><path id="Rectangle_3131-2" data-name="Rectangle 3131-2" class="cls-7" d="M182.89,261.1h1.9v2.56a1,1,0,0,1-.95.94h0a1,1,0,0,1-1-.94h0V261.1Z"/><rect id="Rectangle_3132-2" data-name="Rectangle 3132-2" class="cls-26" x="164.9" y="255.61" width="3.79" height="3.79"/><rect id="Rectangle_3133-2" data-name="Rectangle 3133-2" class="cls-26" x="164.9" y="260.81" width="3.79" height="3.79"/><rect id="Rectangle_3136-2" data-name="Rectangle 3136-2" class="cls-9" x="170.58" y="257.03" width="7.58" height="0.95"/><rect id="Rectangle_3137-2" data-name="Rectangle 3137-2" class="cls-9" x="170.58" y="262.23" width="7.58" height="0.95"/><g id="Ellipse_1403-2" data-name="Ellipse 1403-2"><circle class="cls-11" cx="225.28" cy="260.1" r="4.5"/><circle class="cls-27" cx="225.28" cy="260.1" r="4.07"/></g><g id="Group_7379" data-name="Group 7379"><g id="Group_7359-2" data-name="Group 7359-2"><path id="Rectangle_3070-5" data-name="Rectangle 3070-5" class="cls-9" d="M148.09,263.77h0a1.56,1.56,0,0,1,1.56,1.56v.12a1.56,1.56,0,0,1-1.56,1.57h0a1.57,1.57,0,0,1-1.57-1.57v-.12A1.56,1.56,0,0,1,148.09,263.77Z"/><path id="Rectangle_3138-2" data-name="Rectangle 3138-2" class="cls-10" d="M148.18,254.61h0a.71.71,0,0,1,.71.71v6.16a.71.71,0,0,1-.71.71h0a.71.71,0,0,1-.71-.71v-6.16A.71.71,0,0,1,148.18,254.61Z"/></g><g id="Group_7360-2" data-name="Group 7360-2"><path id="Rectangle_1442-9" data-name="Rectangle 1442-9" class="cls-28" d="M143.35,263.77h0a1.56,1.56,0,0,1,1.57,1.56v.12a1.57,1.57,0,0,1-1.57,1.57h0a1.56,1.56,0,0,1-1.56-1.57v-.12A1.56,1.56,0,0,1,143.35,263.77Z"/><path id="Rectangle_3139-2" data-name="Rectangle 3139-2" class="cls-3" d="M143.44,257.45h0a.71.71,0,0,1,.71.71v3.32a.71.71,0,0,1-.71.71h0a.71.71,0,0,1-.71-.71v-3.32A.71.71,0,0,1,143.44,257.45Z"/></g><g id="Group_7361-2" data-name="Group 7361-2"><path id="Rectangle_1425-9" data-name="Rectangle 1425-9" class="cls-9" d="M138.62,263.77h0a1.56,1.56,0,0,1,1.56,1.56v.12a1.56,1.56,0,0,1-1.56,1.57h0a1.57,1.57,0,0,1-1.57-1.57v-.12A1.56,1.56,0,0,1,138.62,263.77Z"/><path id="Rectangle_3140-2" data-name="Rectangle 3140-2" class="cls-10" d="M138.71,253.53h0a.71.71,0,0,1,.71.71v7.24a.71.71,0,0,1-.71.71h0a.71.71,0,0,1-.71-.71v-7.24A.71.71,0,0,1,138.71,253.53Z"/></g><g id="Group_7362-2" data-name="Group 7362-2"><path id="Rectangle_1442-10" data-name="Rectangle 1442-10" class="cls-8" d="M133.88,263.77h0a1.57,1.57,0,0,1,1.57,1.56v.12a1.57,1.57,0,0,1-1.57,1.57h0a1.56,1.56,0,0,1-1.56-1.57v-.12A1.56,1.56,0,0,1,133.88,263.77Z"/><path id="Rectangle_3141-2" data-name="Rectangle 3141-2" class="cls-8" d="M134,255.33h0a.71.71,0,0,1,.71.71v5.44a.71.71,0,0,1-.71.71h0a.71.71,0,0,1-.71-.71V256A.71.71,0,0,1,134,255.33Z"/></g><g id="Group_7363-2" data-name="Group 7363-2"><path id="Rectangle_1425-10" data-name="Rectangle 1425-10" class="cls-7" d="M129.15,263.77h0a1.56,1.56,0,0,1,1.56,1.56v.12a1.56,1.56,0,0,1-1.56,1.57h0a1.57,1.57,0,0,1-1.57-1.57v-.12A1.56,1.56,0,0,1,129.15,263.77Z"/><path id="Rectangle_3142-2" data-name="Rectangle 3142-2" class="cls-7" d="M129.24,258.4h0a.71.71,0,0,1,.71.71v2.37a.71.71,0,0,1-.71.71h0a.71.71,0,0,1-.71-.71v-2.37A.71.71,0,0,1,129.24,258.4Z"/></g></g></g><g id="Group_7365-3" data-name="Group 7365-3"><g id="Group_7180-3" data-name="Group 7180-3"><g id="Group_5583-3" data-name="Group 5583-3"><g id="Group_5582-3" data-name="Group 5582-3"><g id="Group_5581-3" data-name="Group 5581-3"><rect id="Rectangle_1565-3" data-name="Rectangle 1565-3" class="cls-6" x="124.02" y="299.27" width="108.03" height="8.39"/><path id="Path_3764-3" data-name="Path 3764-3" class="cls-23" d="M122.9,276.59H233.33c2.17,0,3.94,1.29,3.94,2.87V297.8c0,1.58-1.77,2.86-3.94,2.86H122.9c-2.18,0-4-1.28-4-2.86V279.46C119,277.88,120.72,276.59,122.9,276.59Z"/><path id="Rectangle_1631-3" data-name="Rectangle 1631-3" class="cls-19" d="M120.67,276.59h38.2v24.07h-38.2A1.71,1.71,0,0,1,119,299V278.31A1.72,1.72,0,0,1,120.67,276.59Z"/></g></g></g></g><g id="Group_7183-3" data-name="Group 7183-3"><g id="Group_5584-3" data-name="Group 5584-3"><path id="Rectangle_1405-3" data-name="Rectangle 1405-3" class="cls-24" d="M193.47,285.21h0a1.25,1.25,0,0,1,1.25,1.26h0a1.25,1.25,0,0,1-1.25,1.25h0a1.25,1.25,0,0,1-1.25-1.25h0A1.25,1.25,0,0,1,193.47,285.21Z"/><path id="Rectangle_1424-3" data-name="Rectangle 1424-3" class="cls-7" d="M196.48,290.22h0a1.25,1.25,0,0,1,1.25,1.26h0a1.25,1.25,0,0,1-1.25,1.25h0a1.26,1.26,0,0,1-1.26-1.25h0A1.26,1.26,0,0,1,196.48,290.22Z"/><path id="Rectangle_1406-3" data-name="Rectangle 1406-3" class="cls-24" d="M198.48,285.21h0a1.25,1.25,0,0,1,1.25,1.26h0a1.25,1.25,0,0,1-1.25,1.25h0a1.25,1.25,0,0,1-1.25-1.25h0A1.25,1.25,0,0,1,198.48,285.21Z"/><path id="Rectangle_1423-3" data-name="Rectangle 1423-3" class="cls-24" d="M201.49,290.22h0a1.25,1.25,0,0,1,1.25,1.26h0a1.25,1.25,0,0,1-1.25,1.25h0a1.25,1.25,0,0,1-1.25-1.25h0A1.25,1.25,0,0,1,201.49,290.22Z"/><path id="Rectangle_1407-3" data-name="Rectangle 1407-3" class="cls-8" d="M203.49,285.21h0a1.26,1.26,0,0,1,1.26,1.26h0a1.26,1.26,0,0,1-1.26,1.25h0a1.25,1.25,0,0,1-1.25-1.25h0A1.25,1.25,0,0,1,203.49,285.21Z"/><path id="Rectangle_1422-3" data-name="Rectangle 1422-3" class="cls-24" d="M206.5,290.22h0a1.25,1.25,0,0,1,1.25,1.26h0a1.25,1.25,0,0,1-1.25,1.25h0a1.25,1.25,0,0,1-1.25-1.25h0A1.25,1.25,0,0,1,206.5,290.22Z"/><path id="Rectangle_1408-3" data-name="Rectangle 1408-3" class="cls-24" d="M208.5,285.21h0a1.25,1.25,0,0,1,1.26,1.26h0a1.25,1.25,0,0,1-1.26,1.25h0a1.25,1.25,0,0,1-1.25-1.25h0A1.25,1.25,0,0,1,208.5,285.21Z"/><path id="Rectangle_1421-3" data-name="Rectangle 1421-3" class="cls-7" d="M211.51,290.22h0a1.25,1.25,0,0,1,1.25,1.26h0a1.25,1.25,0,0,1-1.25,1.25h0a1.25,1.25,0,0,1-1.25-1.25h0A1.25,1.25,0,0,1,211.51,290.22Z"/><path id="Rectangle_1409-3" data-name="Rectangle 1409-3" class="cls-24" d="M213.52,285.21h0a1.25,1.25,0,0,1,1.25,1.26h0a1.25,1.25,0,0,1-1.25,1.25h0a1.25,1.25,0,0,1-1.26-1.25h0A1.25,1.25,0,0,1,213.52,285.21Z"/><path id="Rectangle_1420-3" data-name="Rectangle 1420-3" class="cls-24" d="M216.52,290.22h0a1.25,1.25,0,0,1,1.25,1.26h0a1.25,1.25,0,0,1-1.25,1.25h0a1.25,1.25,0,0,1-1.25-1.25h0A1.25,1.25,0,0,1,216.52,290.22Z"/></g></g><g id="Ellipse_1402-3" data-name="Ellipse 1402-3"><circle class="cls-11" cx="225.28" cy="288.76" r="2.13"/><circle class="cls-25" cx="225.28" cy="288.76" r="1.7"/></g><path id="Rectangle_3126-3" data-name="Rectangle 3126-3" class="cls-24" d="M187.63,284.27h0a1,1,0,0,1,1,.94v7.11a1,1,0,0,1-1,.94h0a1,1,0,0,1-.95-.94v-7.11A1,1,0,0,1,187.63,284.27Z"/><path id="Rectangle_3127-3" data-name="Rectangle 3127-3" class="cls-24" d="M183.84,284.27h0a1,1,0,0,1,.95.94v7.11a1,1,0,0,1-.95.94h0a1,1,0,0,1-1-.94v-7.11A1,1,0,0,1,183.84,284.27Z"/><rect id="Rectangle_3128-3" data-name="Rectangle 3128-3" class="cls-19" x="164.9" y="284.27" width="15.15" height="3.79"/><rect id="Rectangle_3129-3" data-name="Rectangle 3129-3" class="cls-19" x="164.9" y="289.47" width="15.15" height="3.79"/><path id="Rectangle_3130-3" data-name="Rectangle 3130-3" class="cls-8" d="M186.68,286.16h1.9v6.16a1,1,0,0,1-1,.94h0a1,1,0,0,1-.95-.94v-6.16Z"/><path id="Rectangle_3131-3" data-name="Rectangle 3131-3" class="cls-7" d="M182.89,289.77h1.9v2.55a1,1,0,0,1-.95.94h0a1,1,0,0,1-1-.94h0v-2.55Z"/><rect id="Rectangle_3132-3" data-name="Rectangle 3132-3" class="cls-26" x="164.9" y="284.27" width="3.79" height="3.79"/><rect id="Rectangle_3133-3" data-name="Rectangle 3133-3" class="cls-26" x="164.9" y="289.47" width="3.79" height="3.79"/><rect id="Rectangle_3136-3" data-name="Rectangle 3136-3" class="cls-9" x="170.58" y="285.69" width="7.58" height="0.95"/><rect id="Rectangle_3137-3" data-name="Rectangle 3137-3" class="cls-9" x="170.58" y="290.9" width="7.58" height="0.95"/><g id="Ellipse_1403-3" data-name="Ellipse 1403-3"><circle class="cls-11" cx="225.28" cy="288.76" r="4.5"/><circle class="cls-27" cx="225.28" cy="288.76" r="4.07"/></g><g id="Group_7380" data-name="Group 7380"><g id="Group_7359-3" data-name="Group 7359-3"><path id="Rectangle_3070-6" data-name="Rectangle 3070-6" class="cls-9" d="M148.09,292.43h0a1.56,1.56,0,0,1,1.56,1.56v.13a1.56,1.56,0,0,1-1.56,1.56h0a1.56,1.56,0,0,1-1.57-1.56V294A1.56,1.56,0,0,1,148.09,292.43Z"/><path id="Rectangle_3138-3" data-name="Rectangle 3138-3" class="cls-10" d="M148.18,283.27h0a.71.71,0,0,1,.71.71v6.16a.71.71,0,0,1-.71.71h0a.71.71,0,0,1-.71-.71V284A.71.71,0,0,1,148.18,283.27Z"/></g><g id="Group_7360-3" data-name="Group 7360-3"><path id="Rectangle_1442-11" data-name="Rectangle 1442-11" class="cls-28" d="M143.35,292.43h0a1.56,1.56,0,0,1,1.57,1.56v.13a1.56,1.56,0,0,1-1.57,1.56h0a1.56,1.56,0,0,1-1.56-1.56V294A1.56,1.56,0,0,1,143.35,292.43Z"/><path id="Rectangle_3139-3" data-name="Rectangle 3139-3" class="cls-3" d="M143.44,286.11h0a.71.71,0,0,1,.71.71v3.32a.71.71,0,0,1-.71.71h0a.71.71,0,0,1-.71-.71v-3.32A.71.71,0,0,1,143.44,286.11Z"/></g><g id="Group_7361-3" data-name="Group 7361-3"><path id="Rectangle_1425-11" data-name="Rectangle 1425-11" class="cls-9" d="M138.62,292.43h0a1.56,1.56,0,0,1,1.56,1.56v.13a1.56,1.56,0,0,1-1.56,1.56h0a1.56,1.56,0,0,1-1.57-1.56V294A1.56,1.56,0,0,1,138.62,292.43Z"/><path id="Rectangle_3140-3" data-name="Rectangle 3140-3" class="cls-10" d="M138.71,282.19h0a.71.71,0,0,1,.71.71v7.24a.71.71,0,0,1-.71.71h0a.71.71,0,0,1-.71-.71V282.9A.71.71,0,0,1,138.71,282.19Z"/></g><g id="Group_7362-3" data-name="Group 7362-3"><path id="Rectangle_1442-12" data-name="Rectangle 1442-12" class="cls-8" d="M133.88,292.43h0a1.57,1.57,0,0,1,1.57,1.56v.13a1.57,1.57,0,0,1-1.57,1.56h0a1.56,1.56,0,0,1-1.56-1.56V294A1.56,1.56,0,0,1,133.88,292.43Z"/><path id="Rectangle_3141-3" data-name="Rectangle 3141-3" class="cls-8" d="M134,284h0a.71.71,0,0,1,.71.71v5.44a.71.71,0,0,1-.71.71h0a.71.71,0,0,1-.71-.71V284.7A.71.71,0,0,1,134,284Z"/></g><g id="Group_7363-3" data-name="Group 7363-3"><path id="Rectangle_1425-12" data-name="Rectangle 1425-12" class="cls-7" d="M129.15,292.43h0a1.56,1.56,0,0,1,1.56,1.56v.13a1.56,1.56,0,0,1-1.56,1.56h0a1.56,1.56,0,0,1-1.57-1.56V294A1.56,1.56,0,0,1,129.15,292.43Z"/><path id="Rectangle_3142-3" data-name="Rectangle 3142-3" class="cls-7" d="M129.24,287.06h0a.71.71,0,0,1,.71.71v2.37a.71.71,0,0,1-.71.71h0a.71.71,0,0,1-.71-.71v-2.37A.71.71,0,0,1,129.24,287.06Z"/></g></g></g><g id="Group_7365-4" data-name="Group 7365-4"><g id="Group_7180-4" data-name="Group 7180-4"><g id="Group_5583-4" data-name="Group 5583-4"><g id="Group_5582-4" data-name="Group 5582-4"><g id="Group_5581-4" data-name="Group 5581-4"><rect id="Rectangle_1565-4" data-name="Rectangle 1565-4" class="cls-6" x="124.02" y="327.93" width="108.03" height="8.39"/><path id="Path_3764-4" data-name="Path 3764-4" class="cls-23" d="M122.9,305.26H233.33c2.17,0,3.94,1.28,3.94,2.86v18.34c0,1.58-1.77,2.86-3.94,2.86H122.9c-2.18,0-4-1.28-4-2.86V308.12C119,306.54,120.72,305.26,122.9,305.26Z"/><path id="Rectangle_1631-4" data-name="Rectangle 1631-4" class="cls-19" d="M120.67,305.26h38.2v24.06h-38.2a1.71,1.71,0,0,1-1.72-1.71V307A1.71,1.71,0,0,1,120.67,305.26Z"/></g></g></g></g><g id="Group_7183-4" data-name="Group 7183-4"><g id="Group_5584-4" data-name="Group 5584-4"><path id="Rectangle_1405-4" data-name="Rectangle 1405-4" class="cls-24" d="M193.47,313.87h0a1.25,1.25,0,0,1,1.25,1.26h0a1.25,1.25,0,0,1-1.25,1.25h0a1.25,1.25,0,0,1-1.25-1.25h0A1.25,1.25,0,0,1,193.47,313.87Z"/><path id="Rectangle_1424-4" data-name="Rectangle 1424-4" class="cls-7" d="M196.48,318.88h0a1.26,1.26,0,0,1,1.25,1.26h0a1.25,1.25,0,0,1-1.25,1.25h0a1.26,1.26,0,0,1-1.26-1.25h0A1.27,1.27,0,0,1,196.48,318.88Z"/><path id="Rectangle_1406-4" data-name="Rectangle 1406-4" class="cls-24" d="M198.48,313.87h0a1.25,1.25,0,0,1,1.25,1.26h0a1.25,1.25,0,0,1-1.25,1.25h0a1.25,1.25,0,0,1-1.25-1.25h0A1.25,1.25,0,0,1,198.48,313.87Z"/><path id="Rectangle_1423-4" data-name="Rectangle 1423-4" class="cls-24" d="M201.49,318.88h0a1.26,1.26,0,0,1,1.25,1.26h0a1.25,1.25,0,0,1-1.25,1.25h0a1.25,1.25,0,0,1-1.25-1.25h0A1.26,1.26,0,0,1,201.49,318.88Z"/><path id="Rectangle_1407-4" data-name="Rectangle 1407-4" class="cls-8" d="M203.49,313.87h0a1.26,1.26,0,0,1,1.26,1.26h0a1.26,1.26,0,0,1-1.26,1.25h0a1.25,1.25,0,0,1-1.25-1.25h0A1.25,1.25,0,0,1,203.49,313.87Z"/><path id="Rectangle_1422-4" data-name="Rectangle 1422-4" class="cls-24" d="M206.5,318.88h0a1.26,1.26,0,0,1,1.25,1.26h0a1.25,1.25,0,0,1-1.25,1.25h0a1.25,1.25,0,0,1-1.25-1.25h0A1.26,1.26,0,0,1,206.5,318.88Z"/><path id="Rectangle_1408-4" data-name="Rectangle 1408-4" class="cls-24" d="M208.5,313.87h0a1.25,1.25,0,0,1,1.26,1.26h0a1.25,1.25,0,0,1-1.26,1.25h0a1.25,1.25,0,0,1-1.25-1.25h0A1.25,1.25,0,0,1,208.5,313.87Z"/><path id="Rectangle_1421-4" data-name="Rectangle 1421-4" class="cls-7" d="M211.51,318.88h0a1.26,1.26,0,0,1,1.25,1.26h0a1.25,1.25,0,0,1-1.25,1.25h0a1.25,1.25,0,0,1-1.25-1.25h0A1.26,1.26,0,0,1,211.51,318.88Z"/><path id="Rectangle_1409-4" data-name="Rectangle 1409-4" class="cls-24" d="M213.52,313.87h0a1.25,1.25,0,0,1,1.25,1.26h0a1.25,1.25,0,0,1-1.25,1.25h0a1.25,1.25,0,0,1-1.26-1.25h0A1.25,1.25,0,0,1,213.52,313.87Z"/><path id="Rectangle_1420-4" data-name="Rectangle 1420-4" class="cls-24" d="M216.52,318.88h0a1.26,1.26,0,0,1,1.25,1.26h0a1.25,1.25,0,0,1-1.25,1.25h0a1.25,1.25,0,0,1-1.25-1.25h0A1.26,1.26,0,0,1,216.52,318.88Z"/></g></g><g id="Ellipse_1402-4" data-name="Ellipse 1402-4"><circle class="cls-11" cx="225.28" cy="317.43" r="2.13"/><circle class="cls-25" cx="225.28" cy="317.43" r="1.7"/></g><path id="Rectangle_3126-4" data-name="Rectangle 3126-4" class="cls-24" d="M187.63,312.93h0a1,1,0,0,1,1,.94V321a1,1,0,0,1-1,.94h0a1,1,0,0,1-.95-.94v-7.11A1,1,0,0,1,187.63,312.93Z"/><path id="Rectangle_3127-4" data-name="Rectangle 3127-4" class="cls-24" d="M183.84,312.93h0a1,1,0,0,1,.95.94V321a1,1,0,0,1-.95.94h0a1,1,0,0,1-1-.94v-7.11A1,1,0,0,1,183.84,312.93Z"/><rect id="Rectangle_3128-4" data-name="Rectangle 3128-4" class="cls-19" x="164.9" y="312.93" width="15.15" height="3.79"/><rect id="Rectangle_3129-4" data-name="Rectangle 3129-4" class="cls-19" x="164.9" y="318.14" width="15.15" height="3.79"/><path id="Rectangle_3130-4" data-name="Rectangle 3130-4" class="cls-8" d="M186.68,314.82h1.9V321a1,1,0,0,1-1,.94h0a1,1,0,0,1-.95-.94v-6.16Z"/><path id="Rectangle_3131-4" data-name="Rectangle 3131-4" class="cls-7" d="M182.89,318.43h1.9V321a1,1,0,0,1-.95.94h0a1,1,0,0,1-1-.94h0v-2.55Z"/><rect id="Rectangle_3132-4" data-name="Rectangle 3132-4" class="cls-26" x="164.9" y="312.93" width="3.79" height="3.79"/><rect id="Rectangle_3133-4" data-name="Rectangle 3133-4" class="cls-26" x="164.9" y="318.14" width="3.79" height="3.79"/><rect id="Rectangle_3136-4" data-name="Rectangle 3136-4" class="cls-9" x="170.58" y="314.35" width="7.58" height="0.95"/><rect id="Rectangle_3137-4" data-name="Rectangle 3137-4" class="cls-9" x="170.58" y="319.56" width="7.58" height="0.95"/><g id="Ellipse_1403-4" data-name="Ellipse 1403-4"><circle class="cls-11" cx="225.28" cy="317.43" r="4.5"/><circle class="cls-27" cx="225.28" cy="317.43" r="4.07"/></g><g id="Group_7381" data-name="Group 7381"><g id="Group_7359-4" data-name="Group 7359-4"><path id="Rectangle_3070-7" data-name="Rectangle 3070-7" class="cls-9" d="M148.09,321.09h0a1.56,1.56,0,0,1,1.56,1.56v.13a1.56,1.56,0,0,1-1.56,1.56h0a1.56,1.56,0,0,1-1.57-1.56v-.13A1.56,1.56,0,0,1,148.09,321.09Z"/><path id="Rectangle_3138-4" data-name="Rectangle 3138-4" class="cls-10" d="M148.18,311.93h0a.71.71,0,0,1,.71.71v6.16a.71.71,0,0,1-.71.71h0a.71.71,0,0,1-.71-.71v-6.16A.71.71,0,0,1,148.18,311.93Z"/></g><g id="Group_7360-4" data-name="Group 7360-4"><path id="Rectangle_1442-13" data-name="Rectangle 1442-13" class="cls-28" d="M143.35,321.09h0a1.56,1.56,0,0,1,1.57,1.56v.13a1.56,1.56,0,0,1-1.57,1.56h0a1.56,1.56,0,0,1-1.56-1.56v-.13A1.56,1.56,0,0,1,143.35,321.09Z"/><path id="Rectangle_3139-4" data-name="Rectangle 3139-4" class="cls-3" d="M143.44,314.77h0a.71.71,0,0,1,.71.71v3.32a.71.71,0,0,1-.71.71h0a.71.71,0,0,1-.71-.71v-3.32A.71.71,0,0,1,143.44,314.77Z"/></g><g id="Group_7361-4" data-name="Group 7361-4"><path id="Rectangle_1425-13" data-name="Rectangle 1425-13" class="cls-9" d="M138.62,321.09h0a1.56,1.56,0,0,1,1.56,1.56v.13a1.56,1.56,0,0,1-1.56,1.56h0a1.56,1.56,0,0,1-1.57-1.56v-.13A1.56,1.56,0,0,1,138.62,321.09Z"/><path id="Rectangle_3140-4" data-name="Rectangle 3140-4" class="cls-10" d="M138.71,310.85h0a.71.71,0,0,1,.71.71v7.24a.71.71,0,0,1-.71.71h0a.71.71,0,0,1-.71-.71v-7.24A.71.71,0,0,1,138.71,310.85Z"/></g><g id="Group_7362-4" data-name="Group 7362-4"><path id="Rectangle_1442-14" data-name="Rectangle 1442-14" class="cls-8" d="M133.88,321.09h0a1.57,1.57,0,0,1,1.57,1.56v.13a1.57,1.57,0,0,1-1.57,1.56h0a1.56,1.56,0,0,1-1.56-1.56v-.13A1.56,1.56,0,0,1,133.88,321.09Z"/><path id="Rectangle_3141-4" data-name="Rectangle 3141-4" class="cls-8" d="M134,312.65h0a.71.71,0,0,1,.71.71v5.44a.71.71,0,0,1-.71.71h0a.71.71,0,0,1-.71-.71v-5.44A.71.71,0,0,1,134,312.65Z"/></g><g id="Group_7363-4" data-name="Group 7363-4"><path id="Rectangle_1425-14" data-name="Rectangle 1425-14" class="cls-7" d="M129.15,321.09h0a1.56,1.56,0,0,1,1.56,1.56v.13a1.56,1.56,0,0,1-1.56,1.56h0a1.56,1.56,0,0,1-1.57-1.56v-.13A1.56,1.56,0,0,1,129.15,321.09Z"/><path id="Rectangle_3142-4" data-name="Rectangle 3142-4" class="cls-7" d="M129.24,315.72h0a.71.71,0,0,1,.71.71v2.37a.71.71,0,0,1-.71.71h0a.71.71,0,0,1-.71-.71v-2.37A.71.71,0,0,1,129.24,315.72Z"/></g></g></g><g id="Group_7365-5-2" data-name="Group 7365-5"><g id="Group_7180-5" data-name="Group 7180-5"><g id="Group_5583-5" data-name="Group 5583-5"><g id="Group_5582-5" data-name="Group 5582-5"><g id="Group_5581-5" data-name="Group 5581-5"><path id="Path_3764-5" data-name="Path 3764-5" class="cls-23" d="M122.9,333.92H233.33c2.17,0,3.94,1.28,3.94,2.86v18.34c0,1.58-1.77,2.86-3.94,2.86H122.9c-2.18,0-4-1.28-4-2.86V336.78C119,335.2,120.72,333.92,122.9,333.92Z"/><path id="Rectangle_1631-5" data-name="Rectangle 1631-5" class="cls-19" d="M120.67,333.92h38.2V358h-38.2a1.71,1.71,0,0,1-1.72-1.71V335.63A1.71,1.71,0,0,1,120.67,333.92Z"/></g></g></g></g><g id="Group_7183-5" data-name="Group 7183-5"><g id="Group_5584-5" data-name="Group 5584-5"><path id="Rectangle_1405-5" data-name="Rectangle 1405-5" class="cls-24" d="M193.47,342.53h0a1.25,1.25,0,0,1,1.25,1.26h0a1.25,1.25,0,0,1-1.25,1.25h0a1.25,1.25,0,0,1-1.25-1.25h0A1.25,1.25,0,0,1,193.47,342.53Z"/><path id="Rectangle_1424-5" data-name="Rectangle 1424-5" class="cls-7" d="M196.48,347.55h0a1.25,1.25,0,0,1,1.25,1.25h0a1.25,1.25,0,0,1-1.25,1.25h0a1.26,1.26,0,0,1-1.26-1.25h0A1.26,1.26,0,0,1,196.48,347.55Z"/><path id="Rectangle_1406-5" data-name="Rectangle 1406-5" class="cls-24" d="M198.48,342.53h0a1.25,1.25,0,0,1,1.25,1.26h0a1.25,1.25,0,0,1-1.25,1.25h0a1.25,1.25,0,0,1-1.25-1.25h0A1.25,1.25,0,0,1,198.48,342.53Z"/><path id="Rectangle_1423-5" data-name="Rectangle 1423-5" class="cls-24" d="M201.49,347.55h0a1.25,1.25,0,0,1,1.25,1.25h0a1.25,1.25,0,0,1-1.25,1.25h0a1.25,1.25,0,0,1-1.25-1.25h0A1.25,1.25,0,0,1,201.49,347.55Z"/><path id="Rectangle_1407-5" data-name="Rectangle 1407-5" class="cls-8" d="M203.49,342.53h0a1.26,1.26,0,0,1,1.26,1.26h0a1.26,1.26,0,0,1-1.26,1.25h0a1.25,1.25,0,0,1-1.25-1.25h0A1.25,1.25,0,0,1,203.49,342.53Z"/><path id="Rectangle_1422-5" data-name="Rectangle 1422-5" class="cls-24" d="M206.5,347.55h0a1.25,1.25,0,0,1,1.25,1.25h0a1.25,1.25,0,0,1-1.25,1.25h0a1.25,1.25,0,0,1-1.25-1.25h0A1.25,1.25,0,0,1,206.5,347.55Z"/><path id="Rectangle_1408-5" data-name="Rectangle 1408-5" class="cls-24" d="M208.5,342.53h0a1.25,1.25,0,0,1,1.26,1.26h0A1.25,1.25,0,0,1,208.5,345h0a1.25,1.25,0,0,1-1.25-1.25h0A1.25,1.25,0,0,1,208.5,342.53Z"/><path id="Rectangle_1421-5" data-name="Rectangle 1421-5" class="cls-7" d="M211.51,347.55h0a1.25,1.25,0,0,1,1.25,1.25h0a1.25,1.25,0,0,1-1.25,1.25h0a1.25,1.25,0,0,1-1.25-1.25h0A1.25,1.25,0,0,1,211.51,347.55Z"/><path id="Rectangle_1409-5" data-name="Rectangle 1409-5" class="cls-24" d="M213.52,342.53h0a1.25,1.25,0,0,1,1.25,1.26h0a1.25,1.25,0,0,1-1.25,1.25h0a1.25,1.25,0,0,1-1.26-1.25h0A1.25,1.25,0,0,1,213.52,342.53Z"/><path id="Rectangle_1420-5" data-name="Rectangle 1420-5" class="cls-24" d="M216.52,347.55h0a1.25,1.25,0,0,1,1.25,1.25h0a1.25,1.25,0,0,1-1.25,1.25h0a1.25,1.25,0,0,1-1.25-1.25h0A1.25,1.25,0,0,1,216.52,347.55Z"/></g></g><g id="Ellipse_1402-5" data-name="Ellipse 1402-5"><circle class="cls-11" cx="225.28" cy="346.09" r="2.13"/><circle class="cls-25" cx="225.28" cy="346.09" r="1.7"/></g><path id="Rectangle_3126-5" data-name="Rectangle 3126-5" class="cls-24" d="M187.63,341.59h0a1,1,0,0,1,1,.94v7.11a1,1,0,0,1-1,.94h0a1,1,0,0,1-.95-.94v-7.11A1,1,0,0,1,187.63,341.59Z"/><path id="Rectangle_3127-5" data-name="Rectangle 3127-5" class="cls-24" d="M183.84,341.59h0a1,1,0,0,1,.95.94v7.11a1,1,0,0,1-.95.94h0a1,1,0,0,1-1-.94v-7.11A1,1,0,0,1,183.84,341.59Z"/><rect id="Rectangle_3128-5" data-name="Rectangle 3128-5" class="cls-19" x="164.9" y="341.59" width="15.15" height="3.79"/><rect id="Rectangle_3129-5" data-name="Rectangle 3129-5" class="cls-19" x="164.9" y="346.8" width="15.15" height="3.79"/><path id="Rectangle_3130-5" data-name="Rectangle 3130-5" class="cls-8" d="M186.68,343.48h1.9v6.16a1,1,0,0,1-1,.94h0a1,1,0,0,1-.95-.94v-6.16Z"/><path id="Rectangle_3131-5" data-name="Rectangle 3131-5" class="cls-7" d="M182.89,347.09h1.9v2.55a1,1,0,0,1-.95.94h0a1,1,0,0,1-1-.94h0v-2.55Z"/><rect id="Rectangle_3132-5" data-name="Rectangle 3132-5" class="cls-26" x="164.9" y="341.59" width="3.79" height="3.79"/><rect id="Rectangle_3133-5" data-name="Rectangle 3133-5" class="cls-26" x="164.9" y="346.8" width="3.79" height="3.79"/><rect id="Rectangle_3136-5" data-name="Rectangle 3136-5" class="cls-9" x="170.58" y="343.01" width="7.58" height="0.95"/><rect id="Rectangle_3137-5" data-name="Rectangle 3137-5" class="cls-9" x="170.58" y="348.22" width="7.58" height="0.95"/><g id="Ellipse_1403-5" data-name="Ellipse 1403-5"><circle class="cls-11" cx="225.28" cy="346.09" r="4.5"/><circle class="cls-27" cx="225.28" cy="346.09" r="4.07"/></g><g id="Group_7382-2" data-name="Group 7382"><g id="Group_7359-5" data-name="Group 7359-5"><path id="Rectangle_3070-8" data-name="Rectangle 3070-8" class="cls-9" d="M148.09,349.32h0a1.56,1.56,0,0,1,1.56,1.56V351a1.56,1.56,0,0,1-1.56,1.56h0a1.56,1.56,0,0,1-1.57-1.56v-.13A1.56,1.56,0,0,1,148.09,349.32Z"/><path id="Rectangle_3138-5" data-name="Rectangle 3138-5" class="cls-10" d="M148.18,340.17h0a.71.71,0,0,1,.71.71V347a.71.71,0,0,1-.71.71h0a.71.71,0,0,1-.71-.71v-6.15A.71.71,0,0,1,148.18,340.17Z"/></g><g id="Group_7360-5" data-name="Group 7360-5"><path id="Rectangle_1442-15" data-name="Rectangle 1442-15" class="cls-28" d="M143.35,349.32h0a1.56,1.56,0,0,1,1.57,1.56V351a1.56,1.56,0,0,1-1.57,1.56h0a1.56,1.56,0,0,1-1.56-1.56v-.13A1.56,1.56,0,0,1,143.35,349.32Z"/><path id="Rectangle_3139-5" data-name="Rectangle 3139-5" class="cls-3" d="M143.44,343h0a.71.71,0,0,1,.71.71V347a.71.71,0,0,1-.71.71h0a.71.71,0,0,1-.71-.71v-3.31A.71.71,0,0,1,143.44,343Z"/></g><g id="Group_7361-5" data-name="Group 7361-5"><path id="Rectangle_1425-15" data-name="Rectangle 1425-15" class="cls-9" d="M138.62,349.32h0a1.56,1.56,0,0,1,1.56,1.56V351a1.56,1.56,0,0,1-1.56,1.56h0a1.56,1.56,0,0,1-1.57-1.56v-.13A1.56,1.56,0,0,1,138.62,349.32Z"/><path id="Rectangle_3140-5" data-name="Rectangle 3140-5" class="cls-10" d="M138.71,339.08h0a.71.71,0,0,1,.71.71V347a.71.71,0,0,1-.71.71h0A.71.71,0,0,1,138,347v-7.24A.71.71,0,0,1,138.71,339.08Z"/></g><g id="Group_7362-5" data-name="Group 7362-5"><path id="Rectangle_1442-16" data-name="Rectangle 1442-16" class="cls-8" d="M133.88,349.32h0a1.57,1.57,0,0,1,1.57,1.56V351a1.57,1.57,0,0,1-1.57,1.56h0a1.56,1.56,0,0,1-1.56-1.56v-.13A1.56,1.56,0,0,1,133.88,349.32Z"/><path id="Rectangle_3141-5" data-name="Rectangle 3141-5" class="cls-8" d="M134,340.88h0a.71.71,0,0,1,.71.71V347a.71.71,0,0,1-.71.71h0a.71.71,0,0,1-.71-.71v-5.44A.71.71,0,0,1,134,340.88Z"/></g><g id="Group_7363-5-2" data-name="Group 7363-5"><path id="Rectangle_1425-16" data-name="Rectangle 1425-16" class="cls-7" d="M129.15,349.32h0a1.56,1.56,0,0,1,1.56,1.56V351a1.56,1.56,0,0,1-1.56,1.56h0a1.56,1.56,0,0,1-1.57-1.56v-.13A1.56,1.56,0,0,1,129.15,349.32Z"/><path id="Rectangle_3142-5" data-name="Rectangle 3142-5" class="cls-7" d="M129.24,344h0a.71.71,0,0,1,.71.71V347a.71.71,0,0,1-.71.71h0a.71.71,0,0,1-.71-.71v-2.37A.71.71,0,0,1,129.24,344Z"/></g></g></g></g></g></g></svg>