<?xml version="1.0" encoding="utf-8"?>
<!-- Generator: Adobe Illustrator 24.3.0, SVG Export Plug-In . SVG Version: 6.00 Build 0)  -->
<svg version="1.1" id="Layer_1" xmlns="http://www.w3.org/2000/svg" xmlns:xlink="http://www.w3.org/1999/xlink" x="0px" y="0px"
	 viewBox="0 0 400 400" style="enable-background:new 0 0 400 400;" xml:space="preserve">
<style type="text/css">
	.st0{fill:url(#SVGID_1_);}
	.st1{fill:url(#SVGID_2_);}
	.st2{fill:url(#SVGID_3_);}
	.st3{fill:url(#SVGID_4_);}
	.st4{fill:#EEAC1F;}
	.st5{fill:#FCDA00;}
	.st6{fill:#DB9927;}
	.st7{fill:#EFAA1E;}
	.st8{fill:url(#SVGID_5_);}
	.st9{fill:url(#SVGID_6_);}
	.st10{fill:url(#SVGID_7_);}
	.st11{fill:url(#SVGID_8_);}
	.st12{fill:url(#SVGID_9_);}
	.st13{fill:url(#SVGID_10_);}
	.st14{fill:url(#SVGID_11_);}
	.st15{fill:url(#SVGID_12_);}
	.st16{fill:url(#SVGID_13_);}
	.st17{fill:url(#SVGID_14_);}
	.st18{fill:url(#SVGID_15_);}
	.st19{clip-path:url(#SVGID_17_);}
	.st20{fill:#314656;}
	.st21{fill:#152735;}
	.st22{fill:#0E71BB;}
	.st23{fill:#FFE7CB;}
	.st24{opacity:0.25;}
	.st25{fill:#F59B6B;}
	.st26{opacity:0.5;fill:#F5B39A;}
	.st27{fill:#288ED9;}
	.st28{fill:#FE9393;}
	.st29{fill:#2034AA;}
	.st30{fill:#78CDEF;}
	.st31{fill:none;stroke:#CFECFF;stroke-width:0.1944;stroke-linecap:round;stroke-miterlimit:10;}
	.st32{fill:none;stroke:#52A5E8;stroke-width:0.7102;stroke-linecap:round;stroke-miterlimit:10;}
	.st33{opacity:0.3;fill:#71B5D0;}
	.st34{fill:#3A7187;}
	.st35{fill:#71B5D0;}
	.st36{fill:#54ACD1;}
	.st37{fill:#9AD1E9;}
	.st38{fill:#B3E3F8;}
	.st39{fill:#67BCE0;}
	.st40{fill:#231F20;}
	.st41{opacity:0.3;}
	.st42{fill:#9DC7F4;}
	.st43{fill:url(#SVGID_18_);}
	.st44{opacity:0.2;fill:#37B5E8;}
	.st45{opacity:0.15;fill:#35396F;}
	.st46{fill:#DAE8F2;}
	.st47{fill:#ACB8C1;}
	.st48{fill:#F2F6F9;}
	.st49{fill:#A4D0FA;}
	.st50{opacity:0.2;}
	.st51{fill:#37B5E8;}
	.st52{enable-background:new    ;}
	.st53{clip-path:url(#SVGID_20_);enable-background:new    ;}
	.st54{fill:#70F9E8;}
	.st55{fill:#60F4E6;}
	.st56{fill:#4EF2E6;}
	.st57{fill:#45EDE5;}
	.st58{fill:#3BEAE5;}
	.st59{fill:#35E5E5;}
	.st60{fill:#33D5DD;}
	.st61{fill:#31CBDB;}
	.st62{fill:#2BBFD8;}
	.st63{fill:#2BB6D6;}
	.st64{fill:#27A6CC;}
	.st65{fill:#1F99C9;}
	.st66{fill:#1A8DC6;}
	.st67{fill:#1481C4;}
	.st68{clip-path:url(#SVGID_22_);enable-background:new    ;}
	.st69{fill:#8A999E;}
	.st70{clip-path:url(#SVGID_24_);}
	.st71{clip-path:url(#SVGID_26_);enable-background:new    ;}
	.st72{fill:#87ABBB;}
	.st73{fill:#84A7B7;}
	.st74{fill:#80A3B2;}
	.st75{fill:#7D9EAD;}
	.st76{fill:#7A9AA8;}
	.st77{fill:#7696A4;}
	.st78{fill:#73929F;}
	.st79{fill:#708D9A;}
	.st80{fill:#6C8996;}
	.st81{fill:#698591;}
	.st82{clip-path:url(#SVGID_28_);enable-background:new    ;}
	.st83{fill:#586F7A;}
	.st84{fill:#5B747E;}
	.st85{fill:#5F7883;}
	.st86{fill:#627C88;}
	.st87{fill:#65808C;}
	.st88{fill:#BFD4DB;}
	.st89{fill:#DEF6FF;}
	.st90{fill:#B2DDEA;}
	.st91{clip-path:url(#SVGID_30_);enable-background:new    ;}
	.st92{clip-path:url(#SVGID_32_);enable-background:new    ;}
	.st93{fill:#B2C5CC;}
	.st94{fill:#ADC0C7;}
	.st95{fill:#A9BBC2;}
	.st96{fill:#A4B6BD;}
	.st97{fill:#A0B1B8;}
	.st98{fill:#9BACB3;}
	.st99{fill:#97A7AD;}
	.st100{fill:#93A2A8;}
	.st101{fill:#8E9DA3;}
	.st102{clip-path:url(#SVGID_34_);enable-background:new    ;}
	.st103{fill:#738085;}
	.st104{fill:#78858A;}
	.st105{fill:#7C8A8F;}
	.st106{fill:#818F94;}
	.st107{fill:#859499;}
	.st108{clip-path:url(#SVGID_36_);enable-background:new    ;}
	.st109{clip-path:url(#SVGID_38_);enable-background:new    ;}
	.st110{clip-path:url(#SVGID_40_);enable-background:new    ;}
	.st111{clip-path:url(#SVGID_42_);enable-background:new    ;}
	.st112{clip-path:url(#SVGID_44_);enable-background:new    ;}
	.st113{clip-path:url(#SVGID_46_);enable-background:new    ;}
	.st114{clip-path:url(#SVGID_48_);enable-background:new    ;}
	.st115{clip-path:url(#SVGID_50_);enable-background:new    ;}
	.st116{clip-path:url(#SVGID_52_);enable-background:new    ;}
	.st117{fill:#A9D6EA;}
	.st118{fill:#5FB7DD;}
	.st119{fill:#95C4DE;}
	.st120{fill:#EF7F4D;}
	.st121{fill:#111114;}
	.st122{fill:#E2E6ED;}
	.st123{opacity:0.1;}
	.st124{fill:url(#SVGID_53_);}
	.st125{fill:#21E2E2;}
	.st126{fill:url(#SVGID_54_);}
	.st127{fill:url(#SVGID_55_);}
	.st128{fill:url(#SVGID_56_);}
	.st129{fill:url(#SVGID_57_);}
	.st130{fill:url(#SVGID_58_);}
	.st131{fill:url(#SVGID_59_);}
	.st132{fill:url(#SVGID_60_);}
	.st133{fill:#72B5D3;}
	.st134{fill:url(#SVGID_61_);}
	.st135{fill:#FFFFFE;}
	.st136{fill:url(#SVGID_62_);}
	.st137{fill:url(#SVGID_63_);}
	.st138{fill:#0A1014;}
	.st139{fill:#1D1D21;}
	.st140{fill:#161619;}
	.st141{fill:#FEFFFF;}
	.st142{fill:#0068FF;}
	.st143{fill:#F7FAFB;}
	.st144{opacity:0.3;fill:#F5B39A;}
	.st145{fill:url(#SVGID_64_);}
	.st146{opacity:0.5;fill:#EFA68D;}
	.st147{opacity:0.5;fill:#8ECBE1;}
	.st148{fill:url(#SVGID_65_);}
	.st149{fill:#E9A38E;}
	.st150{fill:#004CC0;}
	.st151{fill:url(#SVGID_66_);}
	.st152{fill:url(#SVGID_67_);}
	.st153{fill:url(#SVGID_68_);}
	.st154{fill:#97C6DB;}
	.st155{fill:url(#SVGID_69_);}
	.st156{fill:url(#SVGID_70_);}
	.st157{fill:url(#SVGID_71_);}
	.st158{fill:url(#SVGID_72_);}
	.st159{fill:#F9FBFC;}
	.st160{fill:#1D262D;}
	.st161{fill:#0A2033;}
	.st162{fill:#112B46;}
	.st163{fill:url(#SVGID_73_);}
	.st164{fill:url(#SVGID_74_);}
	.st165{opacity:0.3;fill:#9DC7F4;}
	.st166{fill:#333333;}
	.st167{fill:#FFFFFF;}
	.st168{fill:#C0C2C1;}
	.st169{fill:#E6E6E6;}
	.st170{fill:#000100;}
	.st171{fill:#FE9A0F;}
	.st172{fill:#E2810C;}
	.st173{fill:#DD7F10;}
	.st174{fill:#AE4E32;}
	.st175{fill:#9E402B;}
	.st176{fill:#FE9B0E;}
	.st177{opacity:0.2;fill:#152735;}
	.st178{fill:#005B9F;}
	.st179{opacity:0.4;}
	.st180{fill:#606060;}
	.st181{opacity:0.4;fill:#00409E;}
	.st182{fill:#F1F1F1;}
	.st183{fill:#FC9A80;}
	.st184{fill:none;stroke:#463840;stroke-width:0.6499;stroke-miterlimit:10;}
	.st185{fill:#E8E0E4;}
	.st186{fill:#78CFD8;}
	.st187{fill:#FF6A66;}
	.st188{fill:#FFD994;}
	.st189{fill:#1F2848;}
	.st190{fill:#D67363;}
	.st191{fill:#2F3767;}
	.st192{fill:#5FBEED;}
	.st193{fill:#4BA6DD;}
	.st194{opacity:0.86;fill:#37B5E8;}
	.st195{fill:url(#SVGID_75_);}
	.st196{fill:url(#SVGID_76_);}
	.st197{fill:url(#SVGID_77_);}
	.st198{fill:url(#SVGID_78_);}
	.st199{fill:url(#SVGID_79_);}
	.st200{fill:url(#SVGID_80_);}
	.st201{fill:url(#SVGID_81_);}
	.st202{fill:url(#SVGID_82_);}
	.st203{fill:url(#SVGID_83_);}
	.st204{fill:url(#SVGID_84_);}
	.st205{fill:url(#SVGID_85_);}
	.st206{fill:#E0E0E0;}
	.st207{fill:url(#SVGID_86_);}
	.st208{fill:url(#SVGID_87_);}
	.st209{fill:url(#SVGID_88_);}
	.st210{fill:url(#SVGID_89_);}
	.st211{fill:url(#SVGID_90_);}
	.st212{fill:url(#SVGID_91_);}
	.st213{fill:url(#SVGID_92_);}
	.st214{fill:url(#SVGID_93_);}
	.st215{fill:#E8505B;}
	.st216{fill:url(#SVGID_94_);}
	.st217{fill:url(#SVGID_95_);}
	.st218{fill:url(#SVGID_96_);}
	.st219{fill:url(#SVGID_97_);}
	.st220{fill:url(#SVGID_98_);}
	.st221{fill:#263238;}
	.st222{fill:#FAFAFA;}
	.st223{fill:#F0D2B9;}
	.st224{fill:#1F364C;}
	.st225{fill:none;stroke:#7A9198;stroke-width:3.249384e-02;stroke-miterlimit:10;}
	.st226{fill:#F5F5F5;}
	.st227{fill:#EBEBEB;}
	.st228{fill:#375A64;}
	.st229{fill:#FF0000;}
	.st230{fill:#FFCF00;}
	.st231{opacity:0.5;fill:#263238;}
	.st232{fill:#28AAE1;}
</style>
<g>
	<linearGradient id="SVGID_1_" gradientUnits="userSpaceOnUse" x1="214.5451" y1="328.4796" x2="171.7938" y2="86.0247">
		<stop  offset="0" style="stop-color:#C6E6FF"/>
		<stop  offset="1" style="stop-color:#FFFFFF"/>
	</linearGradient>
	<path class="st0" d="M358.9,232.7c-5.5-17-14.3-22.2-22.6-33.2c-10.1-13.4-17-23.1-14.3-40.2c4.3-28.1,6.1-98.1-61.2-88.9
		c-24.1,3.3-43.2,23.7-57.1,44.1c-11.8,17.3-33,18.9-50.1,22.9c-21,5-42.4,12.5-61.8,23.5c-40,22.6-52,55.2-50.3,96.8
		c0.5,12.6,2.1,32.4,21.4,55.6c26,31.3,63.7,35.5,109.2,21.1c10.4-3.3,20.2-8.4,30.5-12.3c10.6-4,21.7-6.7,32.9-7.9
		c26.1-2.8,53.2,2.3,78.2-6.3c13.2-4.5,25.4-12.9,35-23.9C360.5,269.9,364.7,250.7,358.9,232.7z"/>
</g>
<g>
	<g>
		<path class="st221" d="M335.2,321c0,0.1-38.8,0.2-119.3,0.2c-80.5,0-145.7-0.1-145.7-0.2s65.2-0.2,145.7-0.2
			C296.4,320.8,335.2,320.9,335.2,321z"/>
	</g>
</g>
<g>
	<g>
		<g>
			<g>
				<g>
					<g>
						
							<rect x="298.9" y="256.3" transform="matrix(-1 -1.224647e-16 1.224647e-16 -1 602.5468 577.1092)" class="st228" width="4.7" height="64.5"/>
					</g>
				</g>
				<g>
					<g>
						<g>
							<path class="st228" d="M268.2,258.8h66.9l0,0c0-4-3.3-7.3-7.3-7.3h-52.4C271.4,251.6,268.2,254.8,268.2,258.8L268.2,258.8z"
								/>
						</g>
					</g>
				</g>
			</g>
		</g>
	</g>
	<g>
		<g>
			<path class="st228" d="M337,200.8v41.3c0,5.4-4.4,9.8-9.8,9.8h-31.8l4.3-51c0-2.4,2-4.4,4.4-4.4h28.5
				C335.1,196.5,337,198.4,337,200.8z"/>
		</g>
	</g>
</g>
<g>
	<g>
		<g>
			<path class="st27" d="M310,198.5h7.2l-2.6-12.9c-1.9-10.5-16.7-11.3-16.7-11.3l-11.6-0.2c0,0-8.6-1.2-13.9,4.8
				c-1.1,1.2-2.2,2.5-3.4,3.7l-12.6,13.1l-1.3-16.5l-10.8,1.7l1.5,20.7c0.3,3.3,2.5,6.3,5.7,7.3c2.3,0.7,4.7,0.1,7.1-1.1
				c6.3-3.1,18-13.1,18.9-13.8c-0.5,1.1-0.6,39.3-0.6,39.3l37.8-1.5C314.1,226,310,198.5,310,198.5z"/>
		</g>
		<g>
			<g>
				<g>
					<path class="st23" d="M293.1,227.7c-2.1,1.4-4.7,3-6.1,3.7c-2.7,1.3-2.8,1-2.9,0.7c-0.3-0.9,4.6-2.4,3.4-2.7
						c-1.3-0.3-5.8,2.6-6,1.6c-0.3-1.2,4.8-2.7,5.3-2.9c0.4-0.2,0.2-0.8-0.2-0.6c-0.5,0.2-6.3,2.6-6.6,1.4c-0.2-0.7,1.1-0.9,1.1-0.9
						s5.6-1.8,5.4-2.4c-0.2-0.6-3.5,0.4-4.6,0.8c-1.1,0.4-1.7,0-1.5-0.6c0.1-0.4,3.5-1.7,4.5-2.1c1.1-0.4,4.1-1.3,2.2-2
						c-1.9-0.7-3.1-2-3.2-2.5c-0.1-0.6,0.7-0.9,1.1-0.4c0.4,0.4,1.1,0.8,1.7,1.1c0.5,0.2,1,0.4,1.6,0.5c0.5,0.1,0.9,0.1,1.3,0.1
						l4,0.3l2,5.3L293.1,227.7z"/>
				</g>
			</g>
			<g>
				<path class="st27" d="M310.7,179.2c0,0,3.3,2.3,4.8,7.1c0.9,2.9,3.5,12.8,5.3,20.2c1.2,4.8-1.5,9.7-6.2,11.3l-21.3,11.5l-3.5-9
					l18.7-12.3l-4.5-16.7c-0.7-2.5-1.1-5.1-0.1-7.6C304.8,181.1,306.8,178.7,310.7,179.2z"/>
			</g>
			<g>
				<g>
					<g>
						<path class="st23" d="M245.2,181.7l-1.3-4.1c-0.6-3,1.7-3.4,2.1-3.9c1.2-1.4,2.1-1.7,2.1-1.7l-0.2-1.2c0,0-0.7-3-0.7-3.9
							c0-0.7,1.3-0.8,1.5-0.1c0.4,1.6,1.2,4.2,1.5,5.2c0.5,1.3,1.7,4.6,2.9,2.6c1.2-2.1,1.1-3.3,1.3-4c0.2-0.7,1.7-0.8,1.4,0.6
							c-0.1,0.6-0.2,1.6-0.6,3.1c-0.2,0.6-0.5,1.4-0.7,2c-0.2,0.7-0.3,3.5-0.4,4L245.2,181.7z"/>
					</g>
				</g>
			</g>
			<g>
				<g>
					<path class="st223" d="M245.9,174.5c0.1,0,0.1,0.5,0.3,1.2c0.1,0.4,0.3,0.8,0.5,1.3c0.1,0.2,0.2,0.5,0.3,0.8
						c0,0.3-0.1,0.7-0.5,0.9c-0.4,0.1-0.7,0-1-0.2c-0.3-0.2-0.4-0.4-0.6-0.6c-0.3-0.5-0.4-0.9-0.5-1.3c-0.1-0.8-0.1-1.3-0.1-1.3
						c0.1,0,0.1,0.5,0.3,1.2c0.1,0.4,0.3,0.8,0.5,1.2c0.1,0.2,0.3,0.4,0.5,0.5c0.2,0.1,0.5,0.2,0.7,0.1c0.2-0.1,0.3-0.3,0.3-0.5
						c0-0.2-0.1-0.5-0.2-0.7c-0.2-0.5-0.3-0.9-0.4-1.3C245.8,175,245.8,174.5,245.9,174.5z"/>
				</g>
			</g>
			<g>
				<g>
					<path class="st223" d="M247.7,173.1c0,0,0.3,0.6,0.6,1.6c0.2,0.5,0.4,1.1,0.6,1.7c0.1,0.3,0.2,0.7,0.3,1.1c0,0.2,0,0.4,0,0.7
						c-0.1,0.2-0.3,0.4-0.5,0.5c-0.4,0.2-0.9,0.2-1.3-0.1c-0.4-0.2-0.6-0.6-0.7-0.9c-0.3-0.7-0.4-1.3-0.6-1.8
						c-0.3-1-0.4-1.6-0.4-1.6c0,0,0.3,0.6,0.6,1.6c0.2,0.5,0.3,1.1,0.6,1.7c0.1,0.3,0.4,0.6,0.6,0.7c0.3,0.2,0.6,0.2,0.9,0.1
						c0.3-0.2,0.4-0.5,0.3-0.8c-0.1-0.3-0.2-0.7-0.3-1c-0.2-0.6-0.3-1.2-0.5-1.8C247.8,173.8,247.7,173.1,247.7,173.1z"/>
				</g>
			</g>
			<g>
				<g>
					<path class="st221" d="M255,199.8c-0.1,0,0.2-0.9,0.7-2c0.5-1.1,0.9-1.9,1-1.9c0.1,0-0.2,0.9-0.7,2
						C255.5,199,255.1,199.8,255,199.8z"/>
				</g>
			</g>
		</g>
	</g>
	<g>
		<g>
			<g>
				<g>
					<g>
						<g>
							<path class="st125" d="M234.3,282.2l2.8-5.8l10.9,5.2l-4,8.5l-0.7-0.3c-3.1-1.3-15.6-6.6-17.3-8.2
								C224.1,279.9,234.3,282.2,234.3,282.2z"/>
						</g>
					</g>
				</g>
			</g>
		</g>
	</g>
	<g>
		<g>
			<g>
				<g>
					<g>
						<g>
							<path class="st125" d="M266.8,317.3l-0.1-6.4l12.1-0.3l0.3,9.4l-0.7,0.1c-3.3,0.3-16.9,1.2-19.2,0.5
								C256.6,319.9,266.8,317.3,266.8,317.3z"/>
						</g>
					</g>
				</g>
			</g>
		</g>
	</g>
	<g>
		<g class="st41">
			<g>
				<path d="M303,188c0.5,7.2,4.7,19.6-10.2,30c1.1-0.5,15.2-9.9,15.2-10.2C308.1,207.7,304.7,195.7,303,188z"/>
			</g>
		</g>
	</g>
	<g>
		<g>
			<g>
				<path class="st224" d="M315,230.4c0,0-49.5-10.4-54.3-8.1c-4.8,2.3-26.9,56.9-26.9,56.9l14.9,5.5l20.2-45.3
					c0,0,36.4,13.7,42.5,12.5C317.5,250.6,315,230.4,315,230.4z"/>
			</g>
			<g>
				<g>
					<path class="st221" d="M275.8,258.1c0-0.1,0.9,0.2,2,0.7c1.1,0.5,1.9,0.9,1.9,1c0,0.1-0.9-0.2-2-0.7
						C276.6,258.7,275.7,258.2,275.8,258.1z"/>
				</g>
			</g>
			<g>
				<path class="st21" d="M274.5,241.4c-6.4,3.1-12.1,6.1-13,7.7c-2,3.8,2.9,66.6,2.9,66.6h16.3l-1-55.8l31.8-8.1
					C311.5,251.8,304.7,251.6,274.5,241.4z"/>
			</g>
			<g>
				<g>
					<path class="st221" d="M277.2,256.4c0.1,0,0.6,0.9,1.3,1.8c0.7,1,1.5,1.7,1.4,1.7c-0.1,0.1-0.9-0.5-1.7-1.5
						C277.4,257.5,277.1,256.4,277.2,256.4z"/>
				</g>
			</g>
		</g>
	</g>
	<g>
		<g>
			<g>
				<g>
					<g>
						<path class="st23" d="M285.2,177.7c-0.1-3.6-0.2-7.4-0.2-7.4s-5.4-0.7-5.7-6.2c-0.2-5.5-0.3-15.2-0.3-15.2l11.8-2.3l6.2,4.7
							l0.2,26.3c0,3.3-2.7,6.1-6,6.1h0C287.9,183.5,285.2,180.9,285.2,177.7z"/>
					</g>
					<g>
						<path class="st223" d="M284.9,170.3c0,0,3.6,0.1,7.2-2.3c0,0-1.7,4-7.1,3.7L284.9,170.3z"/>
					</g>
				</g>
			</g>
		</g>
	</g>
</g>
<g>
	<g>
		<g>
			<g>
				<g>
					<g>
						<g>
							<g>
								<path class="st125" d="M196.1,318.3l0-6.6l-12.4-0.2l-0.2,9.7l0.8,0.1c3.4,0.2,17.4,0.9,19.7,0.3
									C206.7,320.8,196.1,318.3,196.1,318.3z"/>
							</g>
						</g>
					</g>
				</g>
			</g>
		</g>
	</g>
	<g>
		<g>
			<g>
				<g>
					<g>
						<g>
							<g>
								<path class="st125" d="M147.9,318.3l0-6.6l12.4-0.2l0.2,9.7l-0.8,0.1c-3.4,0.2-17.4,0.9-19.7,0.3
									C137.4,320.8,147.9,318.3,147.9,318.3z"/>
							</g>
						</g>
					</g>
				</g>
			</g>
		</g>
	</g>
	<g>
		<g>
			<g>
				<g>
					<polyline class="st224" points="204.3,191.4 197.5,315.8 182.8,316 183.6,208.4 161.9,317 143.5,317 167.2,191.7 					"/>
				</g>
			</g>
		</g>
	</g>
	<g>
		<g>
			<g>
				<g>
					<g>
						<g>
							<g>
								<g>
									<path class="st23" d="M177.6,139.6l11.9-1c0.1-1.4,0-6.8,0-6.8s5-0.8,5-5.7c0.1-5-0.8-16.4-0.8-16.4l0,0
										c-5.7-2.5-12.4-1.6-17.3,2.2l-0.7,0.6L177.6,139.6z"/>
								</g>
							</g>
						</g>
						<g>
							<g>
								<g>
									<path class="st223" d="M189.5,131.8c0,0-3.1,0.3-6.5-1.8c0,0,1.5,3.6,6.5,3.1L189.5,131.8z"/>
								</g>
							</g>
						</g>
					</g>
				</g>
			</g>
			<g>
				<g>
					<g>
						<g>
							<path class="st23" d="M176.3,117.7c-0.1,0-3.4-1-3.3,2.4c0.1,3.4,3.5,2.6,3.5,2.5C176.5,122.5,176.3,117.7,176.3,117.7z"/>
						</g>
					</g>
				</g>
			</g>
		</g>
		<g>
			<path class="st22" d="M196.1,106.7c0.1-0.6-0.2-1.3-0.7-1.6c-0.5-0.4-1.3-0.3-1.7,0.1c0.2-0.8-0.4-1.8-1.3-1.8
				c-0.8-0.1-1.5,0.6-2.3,0.8c-0.8,0.2-1.6,0-2.3-0.3c-0.7-0.3-1.4-0.7-2.2-1c-1.6-0.6-3.3-0.5-4.8,0.2c-1.5,0.7-2.7,2-3.3,3.5
				c-1.1-0.3-2.3,0.2-3,1.1c-0.7,0.9-0.8,2.1-0.7,3.3c0.1,0.8,0.3,1.5,0.6,2.2c0,0.1,0,0.1,0,0.2c0.1,2.7,0.4,5.9,1.5,6
				c2,0,1.5-3.8,1.5-3.8c2.5-1,1.6-4.7,2.2-5.3c0.6-0.6,1.9-1.9,7.1,0.8c2,1,4.7,1,6.2,0.7c0,0,0.1,0,0.1,0c0,0,0,0,0,0c0,0,0,0,0,0
				c0.5-0.1,0.9-0.3,1.3-0.6c0.5-0.3,0.9-0.7,1.1-1.2c0.2-0.5,0.1-1.2-0.3-1.6C195.8,107.9,196.1,107.3,196.1,106.7z"/>
		</g>
	</g>
	<g>
		<g>
			<g>
				<path class="st25" d="M171.9,137.8c1.7-0.3,3.3-0.9,5.3-1v0c4.2,1.3,8.5,1.3,12.7,0c0.5,0.1,1.2,0.1,2.1,0.2
					c5.5,0.7,7.6,1.8,11.6,5.7l-0.4,22.4c0,0,1.3,25.5,1.2,29.6h-37.8l0-17.3l0-4.7l-12.4,4.5l1.1-6.5c0,0,5.6-21.6,6.4-24.5
					C162.8,142.6,166.6,138.8,171.9,137.8z"/>
			</g>
			<g>
				<path class="st231" d="M171.1,169.1l7.4-1.1l3.5,5.8l-17.3,7.8c-1,0.4-2,0.7-3.1,0.7l0,0c-3,0,3.2-8.3,2.1-11.1l6.3-22.3
					l-3.6,15.2C165.8,166.9,168.2,169.5,171.1,169.1z"/>
			</g>
			<g>
				<path class="st25" d="M159.9,171.1l18.6-2.6l3.5,6.3l-17.3,7.8c-1,0.4-2,0.7-3.1,0.7l0,0c-3,0-5.8-1.8-6.9-4.6l-0.6-1.4
					L159.9,171.1z"/>
			</g>
			<g>
				<path class="st23" d="M195.3,165.4l-0.4-0.3c-2.1-1.6-4.8-2.2-7.3-1.7l0,0c-2.1,0.4-4.1,1.3-5.7,2.7l-3.2,2.6l3.4,6.1l2.3-3.2
					c0,0,2.2,2.9,2.5,2.6c0.4-0.3,0.8-1.2,0.8-1.2l-1.5-2.2l3.7,0.8l5.4-2.5l-2.3-2.9l2.3,0.8V165.4z"/>
			</g>
			<g>
				<path class="st25" d="M197.9,138.4c0,0,5.3,1.8,7.5,6.9c1.4,3.3,3.6,19.2,3.6,19.2l2.7,5.2c0.6,1.2,1,2.6,1,4v0.8
					c0,2-0.7,3.9-1.9,5.5l0,0c-1.5,1.8-3.6,3-6,3.2c-2.7,0.2-5.9,0.3-6.6-0.4c-1.2-1.4-3-5.1-3-5.1l7.8-4.1l-3.3-6.2L197.9,138.4z"
					/>
			</g>
			<g>
				<polygon class="st221" points="189.6,164.8 177.7,179.2 178.6,180.2 197.9,177.2 207.4,162.9 206.5,162.1 				"/>
			</g>
			<g>
				<path class="st23" d="M202.1,168.6L202.1,168.6c-0.8,0-1.4,0.5-1.7,1.2c-0.3,0.7-0.7,1.6-1.2,1.9c-0.9,0.5-2.3,0.8-3.1,0.5
					c-0.8-0.4-3.9-3.2-4.4-2.9c-0.5,0.3-1,1-0.5,1.6c0.5,0.6,3.4,2.5,2.9,3.1c-0.5,0.6-6.6-2.1-7.5-1.9c-0.9,0.2-1.5,0.8-0.9,1.2
					c0.5,0.4,4.7,1.9,4.9,2.5c0,0-6.2-1.6-6.4-1.2c-0.2,0.4-0.6,1,0,1.2s6,1.6,6.4,1.9c0.5,0.2,2.1,0.7,2.4,0.7
					c0.2,0,1.4,0.4,2.5,0.8c1.3,0.4,2.6,0.4,3.9-0.1l0.6-0.3c1-0.4,1.6-1.4,1.5-2.4l-0.1-2.1l0.7-1.7L202.1,168.6z"/>
			</g>
		</g>
		<g>
			<g>
				<path class="st228" d="M207.4,163c0,0-0.1,0-0.4,0.1c-0.3,0-0.6,0.1-1,0.2c-0.9,0.2-2.2,0.4-3.8,0.6c-1.6,0.2-3.5,0.5-5.6,0.9
					c-1.1,0.2-2.2,0.3-3.3,0.5c-1.1,0.2-2.3,0.5-3.2,1.3c-0.9,0.8-1.6,1.8-2.3,2.7c-0.7,0.9-1.4,1.8-2.1,2.6
					c-1.3,1.7-2.5,3.2-3.6,4.4c-1,1.2-1.8,2.2-2.4,3c-0.3,0.3-0.5,0.6-0.7,0.8c-0.2,0.2-0.2,0.3-0.3,0.3c0,0,0.1-0.1,0.2-0.3
					c0.2-0.2,0.4-0.5,0.6-0.8c0.6-0.8,1.4-1.8,2.3-3c1-1.3,2.2-2.8,3.5-4.5c0.7-0.8,1.4-1.7,2.1-2.6c0.7-0.9,1.4-1.9,2.4-2.7
					c1-0.9,2.2-1.2,3.4-1.4c1.2-0.2,2.3-0.3,3.3-0.5c2.1-0.3,4-0.6,5.6-0.8c1.6-0.2,2.9-0.4,3.8-0.5c0.4,0,0.8-0.1,1-0.1
					C207.3,162.9,207.4,162.9,207.4,163z"/>
			</g>
		</g>
		<g>
			<path class="st222" d="M198.4,166.1c-0.2,0.1-0.4,0.2-0.5,0.4c-0.1,0.2-0.2,0.5,0,0.6c0.2,0.2,0.6,0.2,0.8,0
				c0.2-0.1,0.3-0.3,0.3-0.5c0-0.2,0-0.4-0.2-0.5c-0.1-0.1-0.4-0.1-0.5,0"/>
		</g>
	</g>
</g>
<g>
	<g>
		<g>
			<rect x="73" y="182.4" class="st228" width="31" height="62.6"/>
		</g>
		<g>
			<path class="st228" d="M74.5,244.9L74.5,244.9c-2.7,0-4.8-2.2-4.8-4.8v-52.8c0-2.7,2.2-4.8,4.8-4.8l0,0c2.7,0,4.8,2.2,4.8,4.8
				V240C79.3,242.7,77.1,244.9,74.5,244.9z"/>
		</g>
		<g>
			<g>
				<g>
					<g>
						<g>
							<g>
								<rect x="101.3" y="252.8" class="st228" width="5" height="68.2"/>
							</g>
						</g>
						<g>
							<g>
								<g>
									<path class="st228" d="M138.7,252.8H67.1l0,0c0-4.3,3.5-7.8,7.8-7.8h56C135.2,245,138.7,248.5,138.7,252.8L138.7,252.8z"/>
								</g>
							</g>
						</g>
					</g>
				</g>
			</g>
		</g>
	</g>
	<g>
		<g>
			<g>
				<g>
					<g>
						<g>
							<g>
								<g>
									<g>
										<g>
											<g>
												<path class="st23" d="M93.9,179.4L93.9,179.4c3.7,0,6.8-2.4,6.9-13.8c0-2.3-0.1-4.2-0.1-4.2s5.4-0.5,5.8-5.7
													c0.4-5.2,0.1-17.3,0.1-17.3l0,0c-6-3-13-2.5-18.6,1.2l-0.8,0.5l0.3,25.6C87.5,169.4,90.3,179.4,93.9,179.4z"/>
											</g>
										</g>
									</g>
									<g>
										<g>
											<g>
												<path class="st223" d="M100.8,161.4c0,0-3.4,0.1-6.8-2.4c0,0,1.4,3.9,6.7,3.7L100.8,161.4z"/>
											</g>
										</g>
									</g>
								</g>
							</g>
						</g>
					</g>
				</g>
			</g>
			<g>
				<path class="st22" d="M106.8,137.4c-0.1-0.8-0.4-1.6-0.8-2.3c0.3-0.8,0.3-1.7-0.3-2.3c-0.8-0.9-2.3-0.9-3.1-0.2c0,0,0,0,0,0
					c0.3-0.5,0.1-1.1-0.4-1.5c-0.5-0.4-1.2-0.4-1.8-0.4c-1.2,0-4,1-6.2,1.8c-0.1,0-0.3,0-0.4,0.1c-1.7,0.3-3.6,1-5,2.1
					c-1.6,1.4-2.5,3.4-3.1,5.5c-0.6,2.1-0.6,4.2-0.1,7.8c0.7-0.6,2.9-2,3.3-1.2c0.2,0.5,0.1,1,0.2,1.5c0,0.5,0.3,1,0.7,1.2
					c0.4,0.1,0.8-0.1,1-0.5c0.2-0.3,0.3-0.7,0.3-1.1c0.1-1.6-0.3-3.3,0-4.9c0.3-1.6,1.2-3.1,2.5-4c1.3-0.9,3-1.3,4.6-1
					c1,0.2,1.9,0.6,2.9,0.6c1.4-0.1,2.9-1.1,4.2-0.5c0.3,0.1,0.5,0.2,0.8,0.4c0.5,0.3,0.7,0.6,0.8,0.3
					C106.9,138.6,106.8,137.9,106.8,137.4z"/>
			</g>
			<g>
				<g>
					<g>
						<g>
							<path class="st23" d="M88.6,146c-0.1,0-3.4-0.5-3.1,3.3c0.3,3.8,4.1,2.2,4.1,2.1C89.6,151.3,88.6,146,88.6,146z"/>
						</g>
					</g>
				</g>
			</g>
		</g>
		<g>
			<g>
				<g>
					<g>
						<g>
							<g>
								<g>
									<g>
										<path class="st125" d="M124.5,305.3l2.9-4.1l-11.3-7.9l-4.7,6.4l0.6,0.6c2.9,2.5,15,12.3,17.5,13.2
											C132.3,314.5,124.5,305.3,124.5,305.3z"/>
									</g>
								</g>
							</g>
						</g>
					</g>
				</g>
			</g>
		</g>
		<g>
			<g>
				<g>
					<g>
						<g>
							<g>
								<g>
									<g>
										<path class="st125" d="M179.5,318.4l-1.1-4.8l-13.2,3l1.5,7.6l0.8-0.1c3.7-0.5,18.7-2.8,21-4
											C191.3,318.7,179.5,318.4,179.5,318.4z"/>
									</g>
								</g>
							</g>
						</g>
					</g>
				</g>
			</g>
			<g class="st41">
				<polygon points="165.9,319.6 179.2,316.7 179,316 165.5,317.5 				"/>
			</g>
		</g>
		<g>
			<path class="st223" d="M145.2,201.1c0-0.2,2.3-2.4,2.6-2.5c0.4-0.1,7-2.9,7.1-2.6c0.1,0.3,0.9,1.8-0.4,2.5l-1,0.3l3.8,0.3
				c0,0,4.2,3.1,4.2,3.8c-0.1,0.7-0.6,1.1-1,0.8c-0.4-0.3,1,2.1,1,2.1s0,1-0.6,0.9c-0.6-0.2-1.4-1.2-1.4-1.2s0.8,1.3,0.6,1.5
				c-0.2,0.2-1.5,0.3-1.6,0c-0.1-0.3-0.3-0.9-0.3-0.9l-0.7,0.1v1l-11.2,0.3L145.2,201.1z"/>
		</g>
		<g>
			<g>
				<polygon class="st27" points="101.8,170.1 105.2,174.2 118.9,198.1 145.6,200.8 146.2,208.5 115.4,211.4 98.3,180.3 				"/>
			</g>
			<g class="st50">
				<polygon points="101.8,170.1 105.2,174.2 118.9,198.1 145.6,200.8 146.2,208.5 115.4,211.4 98.3,180.3 				"/>
			</g>
			<g>
				<path class="st27" d="M104.5,181.8l-2.6-10l-0.1-3.3l-14.9-6.7l-2.9,3.6l0.3,0.2c-1.2,1.2-9.8,10.6-9.3,17.5
					c0.5,6.2,13.6,45.4,13.6,45.4l29.8-8.7L104.5,181.8z"/>
			</g>
			<g>
				<path class="st27" d="M77.8,190.3c0,0.3,18.1,17.8,24.6,24.2c1.5,1.4,3.5,2,5.5,1.6l33.2-6.5l-1.2-7.8l-24.9,0.7
					c-2.7,0.1-4.9-0.8-6.5-3c-5.3-6.9-16.9-21.9-17.2-22.3C91,176.7,77.8,190.3,77.8,190.3z"/>
			</g>
		</g>
		<g>
			<path class="st23" d="M155.6,201.9l-6.5-1.8l-5.4,2.7h-3.1l-0.5,0.2l0.9,5.8l0.8,0.1c0,0,0.9,0.6,2.6,1c1.7,0.4,4.2-0.7,4.2-0.7
				l3.4-1.9l2.5-0.7l1.8,1.1c0,0,0.2,0.7,0.2,1c0,0.2,0.7,0.6,1,0.6c0.4,0,0.5-0.9,0.5-0.9l-0.4-1.8l0.9,0.8h2.1v-1.3L155.6,201.9z"
				/>
		</g>
		<g>
			<g>
				<polygon class="st21" points="141.1,244.5 113.1,294.4 128.1,304.5 152.8,260.6 148.7,244.5 				"/>
			</g>
			<g>
				<path class="st224" d="M88.7,228.4c0,0-3.2,13.5,5.5,16.3c8.7,2.8,54.1,4.2,54.1,4.2l17,70l14.3-2.4l-12.4-74.6
					c-0.9-5.2-5-9.3-10.2-10.2c-13.4-2.4-37.8-6.8-38.1-7.3c-0.5-0.7-2-4.1-2-4.1L88.7,228.4z"/>
			</g>
		</g>
	</g>
</g>
<g>
	<polygon class="st228" points="291.9,211.8 138.3,211.1 138.2,216.5 148.9,216.5 148.6,320.7 152.3,320.7 152.7,216.5 275.1,217.1 
		274.7,321.2 278.5,321.3 278.9,217.1 291.9,217.1 	"/>
</g>
<g>
	<g>
		<g>
			<path class="st206" d="M230.5,183.5l9.6,27.9h45.2l-0.3-1.5l-18.3-0.6l-8.2-26.5c-0.1-0.4-0.5-0.7-0.9-0.7l-26.1,0
				C230.8,182.2,230.3,182.9,230.5,183.5z"/>
		</g>
	</g>
</g>
<g>
	<g>
		<g>
			<path class="st206" d="M211.3,184l-9.3,27.2h-45.2l0.3-1.5l18.3-0.6l8.1-26.1c0.2-0.6,0.8-1.1,1.4-1.1l25,0
				C210.9,182,211.7,183,211.3,184z"/>
		</g>
	</g>
</g>
<path class="st24" d="M82.6,195.2l18.8,21.7c2.1,2.4,5.7,3,8.4,1.3l6-3.7l-7.7,1.6c-2.1,0.4-4.3-0.2-5.9-1.7L82.6,195.2z"/>
<path class="st22" d="M302.1,148.6c-0.2-1.2-1.2-2.3-2.4-2.7c-1.2-0.3-2.8,0.1-3.7-0.8c-0.7-0.6-0.7-1.7-1.3-2.5
	c-0.8-1.2-2.5-1.4-4-1.2c-1.4,0.2-2.9,0.7-4.3,0.4c-1.2-0.3-2.2-1.1-3.3-1.6c-2.4-1.1-5.4-0.4-7.2,1.5c-1.8,1.9-2.2,5-0.9,7.3
	c0.4,0.8,1.4,3.2,4,3.2l8.7-4.1l6.9-0.6c-0.1,0.5,2.5,11,2.8,11.3c0.4,0.3,1,0.4,1.4,0.1c0.8-0.4,0.9-1.6,0.8-2.5
	c-0.2-0.9-0.5-1.9-0.1-2.8c0.3-0.7,0.9-1.1,1.4-1.6C301.8,151.2,302.3,149.9,302.1,148.6z"/>
<g>
	<g>
		<g>
			<path class="st22" d="M278,149.9c0,0,3.1,1.5,7.2-0.5c2.7-1.3,5.8-1.9,6.4-1.4c0.7,0.5,0.8,3.3,3.4,4.1c0,0-0.2,5.2,1.9,5
				c2.1-0.2,1.5-10.6,1.5-10.6l-5.7-0.2l-5.5-1.1l-5.2,0.7l-4.1,1.1L278,149.9z"/>
		</g>
	</g>
</g>
<g>
	<g>
		<g>
			<g>
				<g>
					<path class="st23" d="M296.7,155c0.1,0,3.4-1.3,3.5,2.2c0.1,3.5-3.4,2.9-3.4,2.8C296.8,159.9,296.7,155,296.7,155z"/>
				</g>
			</g>
		</g>
	</g>
</g>
<g>
	<polygon class="st27" points="193.7,196.3 192.8,196.9 192.3,196.3 193.1,195.6 	"/>
	<polygon class="st27" points="193.8,196.5 194.3,197.2 193.5,197.9 193,197.2 	"/>
	<polygon class="st27" points="195.4,196.3 194.6,196.9 194.1,196.3 194.9,195.6 	"/>
	<path class="st27" d="M194.4,194.1c-1.4,0-2.8,1.1-3.1,2.5c-0.3,1.4,0.5,2.5,1.9,2.5s2.8-1.1,3.1-2.5
		C196.6,195.2,195.8,194.1,194.4,194.1z M194.7,197.2l-1.4,1.1l-0.8-1.1l-0.7-0.9l1.4-1.1l0.7,0.9l1.1-0.9l0.8,1.1L194.7,197.2z"/>
</g>
<g>
	<polygon class="st27" points="249,196.8 249.8,197.4 249.4,198.1 248.5,197.4 	"/>
	<polygon class="st27" points="249.2,198.3 248.7,199 247.9,198.3 248.4,197.7 	"/>
	<polygon class="st27" points="247.3,196.8 248.1,197.4 247.6,198.1 246.8,197.4 	"/>
	<path class="st27" d="M245.9,197.7c0.3,1.4,1.7,2.5,3.1,2.5s2.2-1.1,1.9-2.5c-0.3-1.4-1.7-2.5-3.1-2.5S245.6,196.3,245.9,197.7z
		 M246.3,197.4l0.8-1.1l1.1,0.9l0.7-0.9l1.4,1.1l-0.7,0.9l-0.8,1.1l-1.4-1.1L246.3,197.4z"/>
</g>
</svg>
