<svg xmlns="http://www.w3.org/2000/svg" xmlns:xlink="http://www.w3.org/1999/xlink" viewBox="0 0 1000 1000"><defs><style>.cls-1{isolation:isolate;}.cls-2{fill:#71939e;opacity:0.15;}.cls-3{fill:#29abe3;}.cls-4{fill:url(#linear-gradient);}.cls-5{fill:#6b6b6b;}.cls-6{fill:#313131;}.cls-7{fill:#1672b9;}.cls-8{fill:#fee6cb;}.cls-9{fill:#f8bc96;}.cls-10{fill:#f49b6c;}.cls-11{fill:#f9c7a5;}.cls-12{fill:#5ec1cd;}.cls-13{fill:#152735;}.cls-14{fill:#1f364c;}.cls-15{fill:#11406e;}.cls-16{fill:#b9b9bd;mix-blend-mode:multiply;}.cls-17{fill:#085ca0;}.cls-18{fill:#619ed6;}.cls-19{fill:#fff;}.cls-20{fill:#2caae1;}.cls-21,.cls-22{fill:none;stroke:#f49523;stroke-miterlimit:10;stroke-width:2.56px;}.cls-22{stroke-dasharray:12.8 12.8;}.cls-23{fill:url(#linear-gradient-2);}.cls-24{fill:url(#linear-gradient-3);}.cls-25{fill:url(#linear-gradient-4);}.cls-26{fill:url(#linear-gradient-5);}.cls-27{fill:url(#linear-gradient-6);}.cls-28{fill:url(#linear-gradient-7);}</style><linearGradient id="linear-gradient" x1="588.47" y1="1001.01" x2="464.21" y2="296.29" gradientUnits="userSpaceOnUse"><stop offset="0" stop-color="#c8e5f9"/><stop offset="1" stop-color="#fff"/></linearGradient><linearGradient id="linear-gradient-2" x1="126.23" y1="680.58" x2="298.03" y2="680.58" gradientUnits="userSpaceOnUse"><stop offset="0" stop-color="#4b9dd7"/><stop offset="1" stop-color="#1f77bd"/></linearGradient><linearGradient id="linear-gradient-3" x1="252.26" y1="776.44" x2="407.61" y2="776.44" gradientUnits="userSpaceOnUse"><stop offset="0" stop-color="#5dc2d8"/><stop offset="1" stop-color="#556db3"/></linearGradient><linearGradient id="linear-gradient-4" x1="265.53" y1="799.03" x2="382.14" y2="799.03" xlink:href="#linear-gradient-3"/><linearGradient id="linear-gradient-5" x1="223.43" y1="705.2" x2="359.22" y2="705.2" xlink:href="#linear-gradient-2"/><linearGradient id="linear-gradient-6" x1="192.27" y1="899.98" x2="317.58" y2="899.98" gradientUnits="userSpaceOnUse"><stop offset="0" stop-color="#f8bb99"/><stop offset="1" stop-color="#f49e6f"/></linearGradient><linearGradient id="linear-gradient-7" x1="281.31" y1="906.67" x2="187.32" y2="852.41" xlink:href="#linear-gradient-6"/></defs><g class="cls-1"><g id="Layer_1" data-name="Layer 1"><path class="cls-2" d="M407.61,191.58a40,40,0,0,0-17.27,3.94A63.87,63.87,0,0,0,303.4,140a72.45,72.45,0,0,0-139.79,24h-.07a54,54,0,0,0,0,108H407.61a40.19,40.19,0,0,0,0-80.37ZM271.44,231.77h-3.82c1-.49,2-1,2.95-1.52C270.85,230.76,271.15,231.26,271.44,231.77Z"/><path class="cls-3" d="M392.92,178.35a39.9,39.9,0,0,0-17.26,3.94,63.87,63.87,0,0,0-86.94-55.57,72.45,72.45,0,0,0-139.79,24h-.07a54,54,0,1,0,0,108H392.92a40.19,40.19,0,0,0,0-80.37ZM256.76,218.54h-3.83c1-.49,2-1,3-1.52C256.17,217.53,256.46,218,256.76,218.54Z"/><path class="cls-4" d="M282,848.71c-139-57.47-226.61-198.24-212.43-348,5.4-57.06,24.77-108,70-134.31,141.65-82.51,252.18,45.3,346.74,141.93s369.33,11.06,459.81,125,9.82,319.67-193,337.49C632.54,981.4,428,909.09,282,848.71Z"/><rect class="cls-5" x="435.45" y="751.24" width="15.27" height="190.1"/><rect class="cls-5" x="596.68" y="751.24" width="14.69" height="190.1"/><polygon class="cls-5" points="457.65 727.58 449.81 727.8 443.4 592.44 451.24 592.22 457.65 727.58"/><polygon class="cls-5" points="595.23 727.8 587.39 727.58 593.65 592.22 601.48 592.43 595.23 727.8"/><path class="cls-6" d="M608.73,751.24h-175A11.77,11.77,0,0,1,422,739.47h0a11.77,11.77,0,0,1,11.77-11.77h175a11.77,11.77,0,0,1,11.77,11.77h0A11.77,11.77,0,0,1,608.73,751.24Z"/><rect class="cls-7" x="431.46" y="560.36" width="182.84" height="70.14" rx="1.3"/><path class="cls-8" d="M499.77,505c4.43-10.92-4.64-24.78-25.1-32.7s-35.29-11.07-40.66-13c-5.55-2-36.81-15.89-45.75-18.25s-18.69.24-22.07,9c-2.82,7.3,6.76,21.21,20.24,29.72S487.88,534.36,499.77,505Z"/><path class="cls-8" d="M392.63,466.42c7-6.52,9.35-15.61-8.06-36.44S320.63,366,320.63,366l-11.37,10.54s25,49.27,33.92,61S374.24,483.48,392.63,466.42Z"/><path class="cls-8" d="M293.15,351.63h0a3.26,3.26,0,0,1,4.57.5L306.48,363a3.27,3.27,0,0,1-.5,4.59h0a3.26,3.26,0,0,1-4.57-.5l-8.75-10.84A3.27,3.27,0,0,1,293.15,351.63Z"/><path class="cls-8" d="M297.54,347.35h0a3.27,3.27,0,0,1,4.57.5l8.75,10.85a3.27,3.27,0,0,1-.51,4.59h0a3.27,3.27,0,0,1-4.57-.5L297,351.94A3.27,3.27,0,0,1,297.54,347.35Z"/><path class="cls-8" d="M302.06,343.45h0a3.27,3.27,0,0,1,4.57.5l8.75,10.85a3.27,3.27,0,0,1-.51,4.59h0a3.27,3.27,0,0,1-4.57-.5L301.56,348A3.27,3.27,0,0,1,302.06,343.45Z"/><path class="cls-8" d="M306.78,340.1h0a3.27,3.27,0,0,1,4.57.5l8.74,10.85a3.26,3.26,0,0,1-.5,4.59h0a3.27,3.27,0,0,1-4.57-.5l-8.75-10.85A3.27,3.27,0,0,1,306.78,340.1Z"/><path class="cls-8" d="M334.32,381s-5.94-22.28-8.31-26.1-15.8-15.18-15.8-15.18-1.23,7.83-4.69,9.89-12.88,6.59-12.88,6.59,6.2,14,11,19.22a70.9,70.9,0,0,0,10.72,9.32Z"/><path class="cls-8" d="M573.21,511.65c-4.54-10.87,4.39-24.82,24.78-32.94s35.18-11.42,40.53-13.4c5.52-2,36.65-16.24,45.56-18.69s18.7.06,22.16,8.75c2.9,7.27-6.55,21.28-19.94,29.91S585.39,540.86,573.21,511.65Z"/><path class="cls-8" d="M679,469c-6.91-6.64-9.09-15.77,8.67-36.31s65-62.86,65-62.86l11.19,10.73S738.05,429.42,728.9,441,697.07,486.37,679,469Z"/><path class="cls-9" d="M593,578.14c11.76-29.67,40.77-80.05,25.92-89.9-19.36-12.83-76.48-23.16-76.48-23.16l0,1s-58.27,1.56-78.9,12.23c-15.83,8.18,7.92,63.93,16.4,94.7,2,7.38,1.5,39.7-1,68.47-.62,7.1-6,39.76-5.71,53.33.08,4.05,41.87,31.47,55,32.83l.06-1c13.19.07,61.54-22.35,62.06-26.37,1.74-13.46-2.42-46.48-2.27-53.61C588.65,617.78,590.15,585.26,593,578.14Z"/><path class="cls-10" d="M576.9,488s12.35-10.78,25.29-13.4,45.63-15.86,45.63-15.86,12.9,3.51,18.64,19,6.37,22.87,6.37,22.87S604.57,527.5,600,527.68,583.5,506,576.9,488Z"/><path class="cls-8" d="M566.94,457.16c-1-6-2.7-35.46-2.7-35.46l-19.42-1.06-.05,1-19.42-1.05s-4.88,29.11-6.52,35-18.11,13.93-18.11,13.93l41.33,2.24.05-1L583.43,473S567.93,463.16,566.94,457.16Z"/><path class="cls-11" d="M566.07,448.83c-.74-9-1.52-21.89-1.76-25.89l-1.18-1.3-18.31-1-.05,1-19.42-1.05s-4.88,29.11-6.52,35-18.11,13.93-18.11,13.93l2,.11c18.71-3.92,37.31-7.83,39.82-8.4,5.24-1.2,23.57-12.35,23.57-12.35Z"/><path class="cls-8" d="M738.7,384.57s6.32-22.17,8.75-25.95,16-14.92,16-14.92,1.09,7.85,4.52,10,12.77,6.81,12.77,6.81-6.43,13.86-11.31,19a70.91,70.91,0,0,1-10.88,9.14Z"/><path class="cls-8" d="M780.35,355.9h0a3.27,3.27,0,0,0-4.58.42L766.84,367a3.26,3.26,0,0,0,.42,4.59h0a3.26,3.26,0,0,0,4.57-.42l8.93-10.7A3.26,3.26,0,0,0,780.35,355.9Z"/><path class="cls-8" d="M776,351.55h0a3.27,3.27,0,0,0-4.58.42l-8.92,10.7a3.26,3.26,0,0,0,.42,4.6h0a3.28,3.28,0,0,0,4.58-.43l8.92-10.7A3.25,3.25,0,0,0,776,351.55Z"/><path class="cls-8" d="M771.59,347.57h0A3.27,3.27,0,0,0,767,348l-8.93,10.69a3.27,3.27,0,0,0,.43,4.6h0a3.27,3.27,0,0,0,4.58-.42l8.92-10.7A3.28,3.28,0,0,0,771.59,347.57Z"/><path class="cls-8" d="M766.93,344.15l0,0a3.27,3.27,0,0,0-4.57.43l-8.93,10.7a3.26,3.26,0,0,0,.43,4.59h0a3.27,3.27,0,0,0,4.58-.42l8.92-10.7A3.26,3.26,0,0,0,766.93,344.15Z"/><path class="cls-10" d="M495.84,481.4s-12.45-10.66-25.41-13.15-45.79-15.4-45.79-15.4-12.86,3.63-18.45,19.17S400,495,400,495s68.53,26.23,73.08,26.37S489.42,499.52,495.84,481.4Z"/><path class="cls-8" d="M582.28,398.49c-1.46,25.69-22.33,50.18-38.82,49.24-15.74-.9-34.43-27.64-33-53.33s18.72-45.6,38.55-44.47S583.75,372.8,582.28,398.49Z"/><path class="cls-7" d="M510.2,399.55c-1.43-2.88-6.12-15.07-4.64-20.37s8.42-16.58,10.72-20,21.47-11.63,24.28-11.71,10.3-.35,16.07.92,15.81,5.81,17.87,10.6,7.54,10.48,9.21,14.32,4.4,13.58,3.85,14.95-3.77,12.87-4.06,13.79a22.6,22.6,0,0,1-2.11,3.48s-8.29-25.09-8.39-27.43-49-5.83-52.12-4.38S510.2,399.55,510.2,399.55Z"/><path class="cls-12" d="M491.67,926.65l-34.45-3.45s-19.24,13.55-29.3,23.57-7.81,21.48-7.81,21.48,29.23,7.65,41.59,0,30-15.29,30-15.29Z"/><polygon class="cls-13" points="472.88 659.04 443.99 707.48 442.15 731.17 527.75 731.17 591.78 729.16 603.55 709.39 587.11 659.04 472.88 659.04"/><path class="cls-14" d="M439,719.81l8.7,210.28h53.36l5-210.28s-7.93-26.87-35.54-26.87C446.82,692.94,439,719.81,439,719.81Z"/><path class="cls-13" d="M470.56,692.94h0c-23.7,0-31.51,26.87-31.51,26.87l8.7,210.28h22.85Z"/><path class="cls-12" d="M558.43,929.8l34.46-3.45s19.23,13.55,29.29,23.56S630,971.4,630,971.4s-29.24,7.65-41.62,0-30-15.29-30-15.29Z"/><path class="cls-14" d="M611.09,723,602.4,933.24H549L544,723s7.93-26.87,35.56-26.87C603.26,696.09,611.09,723,611.09,723Z"/><path class="cls-13" d="M577.54,696.33C551.66,697.69,544,723,544,723l5,210.28h28.56Z"/><path class="cls-10" d="M623.72,489.41c-1.71-4.76-16.18-8.79-28.86-13.49a228.89,228.89,0,0,1-21.1-9.15l-32.53,16.36-30.58-19.79a228.05,228.05,0,0,1-22,6.82c-13.11,3.29-27.69,5.86-30.14,10.29s15.82,94.33,18,102-8.78,62-3.06,78.09l57.89,2.89h.12l56.61-1.3c6.15-17.8,3.64-66.87,6.65-74.26S628.41,502.54,623.72,489.41Z"/><path class="cls-10" d="M544.55,657.68c-5.35-3.54-13.43-7.15-18.3-10.33s.19-13.61.27-19.06,15.42-15.26,25.72-18.74,28-1.68,32.21-8.72S578,586.72,573.24,586.6s-35.15-9.74-39.93-9.18-40.92,3.39-46.59-1.18-32.32-88.48-32.32-88.48c5.75,28.11,20.85,89.15,22.38,94,2.41,7.61-9.34,63.11-3.16,79.06L535,665h.13l53-2.87s-7.79-2.18-12.85-3.85S549.91,661.22,544.55,657.68Z"/><rect class="cls-15" x="194.33" y="790.17" width="338.5" height="20.83" transform="translate(-437.01 1164.16) rotate(-90)"/><rect class="cls-15" x="559.26" y="791.99" width="338.51" height="20.83" transform="translate(-73.89 1530.91) rotate(-90)"/><rect class="cls-15" x="357.33" y="631.33" width="377.09" height="55.22"/><polygon class="cls-16" points="738.92 668.71 353.09 674.21 353.09 655.88 738.92 656.08 738.92 668.71"/><rect class="cls-17" x="328.79" y="623.18" width="435.16" height="34.19"/><polygon class="cls-18" points="487.82 623.18 479.38 527.68 659 527.68 648.06 623.18 487.82 623.18"/><path class="cls-19" d="M585.27,579c-1,7.77-8.45,13.45-16.81,13.45s-15.84-5.68-16.81-13.45c-1.09-8.8,6.37-16.81,16.81-16.81S586.37,570.2,585.27,579Z"/><path class="cls-20" d="M582,577.67l-7.19-7.09-6.32,5.72h0l-6.31-5.72L555,577.67l6.29,5.18h0l7.21,5.95,7.22-5.95h0Zm-7.32-4.17,4.31,4.17-4.67,3.92L570,577.67Zm-12.37,0,4.68,4.17-4.33,3.92L558,577.67Zm6.18,13-4.33-3.63,4.33-3.85,4.33,3.85Z"/><line class="cls-21" x1="251.17" y1="281.67" x2="251.17" y2="288.08"/><line class="cls-22" x1="251.17" y1="300.89" x2="251.17" y2="550.58"/><line class="cls-21" x1="251.17" y1="556.98" x2="251.17" y2="563.39"/><path class="cls-23" d="M141.24,453.57c14.81-7.08,29.56,40.07,29.56,40.07,25.18,33.28,60.36-11,56.92,38.75-6,87,100.17,27.37,51.18,118.22S322.16,702,291.72,775.25s9,160.64-36.8,124.73c0,0-40.33-88.45-81.93-115.81s24.92-59.84,11.9-97c-18.9-54-64.44-51.87-31.61-109.89S90.89,477.65,141.24,453.57Z"/><path class="cls-19" d="M269.43,866.69c-19.86-14-43.1-111.28-44.49-169.24-.71-29.69-9.48-42.06-17.23-53-7.4-10.43-13.79-19.44-10.07-40.12,7.12-39.54-11.59-56.6-11.78-56.77l2.17-2.47c.83.73,20.31,18.33,12.85,59.82-3.48,19.33,2.25,27.41,9.51,37.65,7.62,10.73,17.1,24.1,17.84,54.79,1.48,62.21,25.24,154.09,43.09,166.64Z"/><path class="cls-24" d="M276.86,873.91a42.9,42.9,0,0,1-8.4-.91c-7.65-1.55-12.67-5.59-14.91-12-5.35-15.31,7.05-40.18,17.11-52.17.17-.2,17-20.79,15.22-49.33-.3-4.78-.8-9.21-1.24-13.12-1.26-11.29-2.18-19.45,2.67-24.9,4.28-4.81,12.53-6.89,27.6-7,26.43-.12,36.88-11.06,45.27-19.86,3.57-3.73,6.93-7.26,11-9.49h0c13.17-7.19,27.12-8.25,33.17-2.51,2.87,2.72,5.3,8.06.54,18-4.35,9.09-10,14.84-14.53,19.47-6.1,6.22-10.13,10.34-8,18.53.49,1.92,1.06,3.87,1.63,5.82,4.08,13.93,8.69,29.72-15.16,40.44-5.06,2.28-9.67,4.08-13.73,5.68-16.65,6.53-26.7,10.48-38,34.42-2.2,4.64-4.14,9-6,13.28C302.11,858.58,295.34,873.9,276.86,873.91Zm95.92-185.86c-3.64,2-6.69,5.18-10.22,8.88-8.83,9.24-19.81,20.75-47.63,20.87-13.86.07-21.62,1.88-25.16,5.86-3.88,4.35-3,11.91-1.86,22.36.44,3.94.94,8.41,1.25,13.27,1.88,29.89-15.25,50.78-16,51.65-10,11.87-21.25,35.48-16.53,49,1.83,5.25,6,8.57,12.46,9.87,22.46,4.54,28.66-9.51,38.93-32.8,1.88-4.26,3.83-8.68,6-13.35,11.9-25.12,23-29.48,39.8-36.08,4-1.58,8.61-3.37,13.6-5.62,21.24-9.54,17.4-22.65,13.35-36.52-.58-2-1.16-4-1.66-5.93-2.56-10,2.49-15.13,8.87-21.64,4.59-4.68,9.79-10,13.9-18.59,2.16-4.51,3.94-10.63.17-14.21-5-4.7-17.58-3.41-29.34,3Z"/><path class="cls-25" d="M268.82,892.87l-3.29-.18c.17-3.08,4.31-75.7,33.47-97,32-23.32,42.07-48.38,46.87-65.19,5.67-19.83,34.48-25.12,35.7-25.34l.57,3.23c-.28.05-28,5.16-33.1,23-5,17.28-15.3,43-48.11,66.95C273,818.73,268.85,892.13,268.82,892.87Z"/><path class="cls-26" d="M335.49,526.86c-20.73-7.1-16.42,32.84-25.18,62.4s-97.43,12.89-60.21,86.9S203,700.92,228.21,765.5s2.19,133.66,29.56,116.09S273.14,782.69,301.6,773s33.11-20.94,4.93-47.21,73.84-52.35,48.66-105.4S359.43,535.07,335.49,526.86Z"/><path class="cls-19" d="M270.46,878.5c-2.6-11.06-24.86-108.36-4.09-120.12,18.3-10.37,17.85-50.69,15-88.76-2.53-33.7,40.75-49.46,42.6-50.11l1.09,3.09c-.42.16-42.76,15.58-40.42,46.77,2.93,39.1,3.25,80.6-16.66,91.87-15.77,8.93-1.25,87.12,5.68,116.5Z"/><polygon class="cls-27" points="317.58 843.85 287.99 956.12 221.86 956.12 192.26 843.85 317.58 843.85"/><path class="cls-28" d="M317.58,843.85s-65.15,12.23-65.15,112.26H221.86L192.27,843.85Z"/></g></g></svg>