<svg id="Layer_1" data-name="Layer 1" xmlns="http://www.w3.org/2000/svg" xmlns:xlink="http://www.w3.org/1999/xlink" viewBox="0 0 1000 1000"><defs><style>.cls-1{fill:url(#linear-gradient);}.cls-2{fill:url(#linear-gradient-2);}.cls-3{fill:url(#linear-gradient-3);}.cls-4{fill:url(#linear-gradient-4);}.cls-5{fill:#e1e0e0;}.cls-6{fill:url(#linear-gradient-5);}.cls-7{fill:url(#linear-gradient-6);}.cls-8{fill:url(#linear-gradient-7);}.cls-9{fill:url(#linear-gradient-8);}.cls-10{fill:#263239;}.cls-11{fill:#385a65;}.cls-12{fill:#fee6cb;}.cls-13{fill:#29abe3;}.cls-14{opacity:0.2;}.cls-15{fill:#626161;}.cls-16{fill:#f1d3b9;}.cls-17{fill:#fbfbfb;}.cls-18{fill:#5ec1cd;}.cls-19{fill:#152735;}.cls-20{fill:#1f364c;}.cls-21{fill:#348ccc;}.cls-22{fill:#1672b9;}.cls-23{fill:#085ca0;}.cls-24{fill:#5aaadf;}.cls-25{fill:#f8bb99;}.cls-26,.cls-27,.cls-29{fill:none;}.cls-27{stroke:#f8bb99;}.cls-27,.cls-29{stroke-width:0.34px;}.cls-28{fill:#8ac5ed;}.cls-29{stroke:#5ec1cd;}.cls-30{fill:#247dc1;}.cls-31{fill:#d8effd;}.cls-32{fill:#fff;}</style><linearGradient id="linear-gradient" x1="-574.3" y1="1595.83" x2="-574.31" y2="1597.21" gradientTransform="matrix(740.56, 0, 0, -612.51, 425794.97, 978476.38)" gradientUnits="userSpaceOnUse"><stop offset="0" stop-color="#c8e5f9"/><stop offset="1" stop-color="#fff"/></linearGradient><linearGradient id="linear-gradient-2" x1="932.76" y1="746.24" x2="991.33" y2="746.24" gradientUnits="userSpaceOnUse"><stop offset="0" stop-color="#45989f"/><stop offset="0.36" stop-color="#52adb6"/><stop offset="0.72" stop-color="#5bbcc7"/><stop offset="1" stop-color="#5ec1cd"/></linearGradient><linearGradient id="linear-gradient-3" x1="917.59" y1="653.52" x2="959.94" y2="653.52" xlink:href="#linear-gradient-2"/><linearGradient id="linear-gradient-4" x1="843.61" y1="671.46" x2="913.45" y2="671.46" xlink:href="#linear-gradient-2"/><linearGradient id="linear-gradient-5" x1="882.3" y1="855.74" x2="960.11" y2="855.74" gradientUnits="userSpaceOnUse"><stop offset="0" stop-color="#f8bb99"/><stop offset="0.46" stop-color="#f8b997"/><stop offset="0.68" stop-color="#f7b48f"/><stop offset="0.85" stop-color="#f6ab82"/><stop offset="0.99" stop-color="#f49f70"/><stop offset="1" stop-color="#f49e6f"/></linearGradient><linearGradient id="linear-gradient-6" x1="875.55" y1="817.83" x2="968.44" y2="817.83" xlink:href="#linear-gradient-5"/><linearGradient id="linear-gradient-7" x1="875.55" y1="883.82" x2="966.91" y2="883.82" xlink:href="#linear-gradient-5"/><linearGradient id="linear-gradient-8" x1="879.91" y1="891.36" x2="963.58" y2="891.36" xlink:href="#linear-gradient-5"/></defs><path id="Path_5630" data-name="Path 5630" class="cls-1" d="M484.16,288.38c131.45,83.89,282,121.64,282,121.64s165.75,25.17,104.79,213.9S802,880.24,706.44,885.07c-90.63,2.58-141.53-34.81-231.19-28.37-78.76,6.06-133,41.55-264.61-10.29C-.25,753.21,15.47-7.31,484.16,288.38Z"/><path class="cls-2" d="M943.65,732.37c9.09-4.69,19.78-5.3,29.87-3.63,5.42.89,11.07,2.51,14.75,6.58s4.39,11.24.16,14.73c-2.52,2.08-6,2.4-9.31,2.36-7.89-.09-16.65-1.48-23,3.27-3.6,2.71-6,7.22-10.3,8.55s-9-1.18-11.19-5-2.3-8.55-1.26-12.83A19.56,19.56,0,0,1,943.65,732.37Z"/><path class="cls-3" d="M922.84,692.19c5.55,7.93,16.35,5.31,21.36.46s7.12-11.86,9-18.55c4.41-15.29,8.84-31.34,5.57-46.91-1-4.66-2.72-9.3-6-12.75s-8.3-5.51-12.9-4.3c-5.45,1.44-8.83,6.77-11.27,11.85a111.64,111.64,0,0,0-11,48c0,7.73.88,15.84,5.24,22.22"/><path class="cls-4" d="M907.59,703.57c6-7.16,7.17-17.6,4.49-26.56s-8.75-16.6-15.74-22.83a84.7,84.7,0,0,0-28.17-16.62c-4.08-1.43-8.37-2.56-12.67-2.15s-8.63,2.6-10.64,6.43c-3,5.65-.12,12.51,2.95,18.11a215.48,215.48,0,0,0,18.51,28.18c5.55,7.15,11.9,14.21,20.36,17.44s17.23,2.85,21.71-3"/><path class="cls-5" d="M922.46,811.87a16.57,16.57,0,0,0,.51-3.61c.25-2.62.57-5.92.95-9.84A143,143,0,0,1,926.14,784a111.1,111.1,0,0,1,5.24-17,62.88,62.88,0,0,1,8.7-15.41,32.41,32.41,0,0,1,11-9.14,30.72,30.72,0,0,1,9.26-2.89,16.33,16.33,0,0,0,3.59-.52,17.81,17.81,0,0,0-3.66,0,27.91,27.91,0,0,0-9.65,2.51,32.43,32.43,0,0,0-11.6,9.22,61.43,61.43,0,0,0-9,15.72,105.34,105.34,0,0,0-5.21,17.31,120.76,120.76,0,0,0-1.91,14.62c-.32,4.18-.43,7.56-.49,9.9A17.53,17.53,0,0,0,922.46,811.87Z"/><path class="cls-5" d="M923.14,804.3a6.86,6.86,0,0,0,.1-1.68c0-1.25,0-2.84,0-4.78,0-4.15,0-10.16.21-17.58.37-14.83,1.64-30.8,4.11-53.31,2.34-21.17,5.47-45.81,8.78-61.82.71-3.65,1.43-6.93,2.1-9.8s1.19-5.35,1.72-7.36.82-3.43,1.12-4.65a7,7,0,0,0,.29-1.65,7.09,7.09,0,0,0-.58,1.57c-.37,1.2-.83,2.72-1.39,4.58s-1.25,4.45-2,7.32-1.54,6.13-2.32,9.77a543.46,543.46,0,0,0-9.23,57.36c-2.47,22.56-3.58,43.1-3.68,58-.09,7.44.07,13.46.26,17.62.12,1.94.21,3.52.29,4.78A7.1,7.1,0,0,0,923.14,804.3Z"/><path class="cls-5" d="M923.24,764.68a31.89,31.89,0,0,0,0-5c-.19-3.21-.63-7.85-1.53-13.53a177.5,177.5,0,0,0-4.41-19.73A160.36,160.36,0,0,0,909,703.08c-6.84-16.23-16.13-29.5-24.22-37.72a60.4,60.4,0,0,0-5.7-5.29c-.87-.74-1.64-1.48-2.43-2.06l-2.21-1.53a30.49,30.49,0,0,0-4.21-2.69c-.24.32,6,4,13.79,12.3s16.83,21.49,23.62,37.58A184.86,184.86,0,0,1,916,726.8a199.34,199.34,0,0,1,4.69,19.53c1,5.62,1.63,10.22,2,13.4A33.36,33.36,0,0,0,923.24,764.68Z"/><polygon class="cls-6" points="882.3 828.55 886.27 882.93 956.14 882.93 960.11 828.55 882.3 828.55"/><rect class="cls-7" x="875.55" y="807.11" width="92.89" height="21.44"/><polygon class="cls-8" points="875.55 880.85 875.55 886.79 879.91 886.79 966.91 886.79 966.91 880.85 875.55 880.85"/><polygon class="cls-9" points="884.19 896.59 879.91 886.14 963.58 886.14 958.59 896.59 884.19 896.59"/><path class="cls-10" d="M985.81,898.46c0,.31-219.51.57-490.23.57s-490.29-.26-490.29-.57,219.47-.57,490.29-.57S985.81,898.15,985.81,898.46Z"/><rect class="cls-11" x="648.07" y="586.72" width="18.98" height="310.4"/><rect class="cls-11" x="115.92" y="586.72" width="18.98" height="310.4"/><rect class="cls-11" x="36.18" y="567.66" width="736.28" height="19.06"/><rect class="cls-11" x="435.75" y="586.72" width="212.32" height="53.26"/><path class="cls-10" d="M688.78,588.1c0,.27-146.1.17-326.29-.22S36.18,587,36.18,586.72s146.07-.17,326.32.21S688.78,587.84,688.78,588.1Z"/><path class="cls-10" d="M448.65,640c-.26,0-.47-11.83-.47-26.42s.21-26.43.47-26.43.48,11.83.48,26.43S448.91,640,448.65,640Z"/><path class="cls-10" d="M633.4,629.86c0,.27-41.47.26-92.62,0s-92.63-.71-92.63-1,41.46-.25,92.63,0S633.4,629.6,633.4,629.86Z"/><path class="cls-10" d="M633.41,640c-.27,0-.48-11.17-.48-24.93s.21-24.93.48-24.93.47,11.16.47,24.93S633.67,640,633.41,640Z"/><path class="cls-10" d="M649,689.29c-.26,0-.47-22.54-.47-50.34s.21-50.34.47-50.34.48,22.53.48,50.34S649.27,689.29,649,689.29Z"/><path class="cls-10" d="M550.39,602.88a6.91,6.91,0,1,1-6.91-6.9A6.91,6.91,0,0,1,550.39,602.88Z"/><path class="cls-12" d="M760.82,295h10.24a3.32,3.32,0,0,1,3.32,3.32v16.37a3.32,3.32,0,0,1-3.32,3.32H760.82a0,0,0,0,1,0,0V295A0,0,0,0,1,760.82,295Z" transform="translate(1535.18 613.05) rotate(180)"/><rect class="cls-12" x="766.7" y="312.04" width="17.24" height="28.17"/><path class="cls-13" d="M587.12,413.57a76.43,76.43,0,0,0-35.53,8.72,72.17,72.17,0,0,0-92.67-31.71,105.12,105.12,0,0,0-203.42,14A83.5,83.5,0,1,0,228.29,567H587.12a76.73,76.73,0,1,0,0-153.46Z"/><g class="cls-14"><path class="cls-15" d="M754.85,465.12l-11.64-11.26a13.64,13.64,0,0,0-19,3.26l-12.95,18.41-50.13,8.65s3-11.41,3.15-12.31l8-10.56-9.76-62.82s-23.2,31.95-23.22,32l3.94,2.49-16.74,40.83s-12.68,34,13.44,44,57.85-27.05,57.85-27.05L726,495l7.57-5.6,3.7-3.17a13.3,13.3,0,0,0,4.57-8.72l1.35-12.89s6.89,3.64,10.24,5.29c1.72.85,2.37,0,2.59-1.15A4,4,0,0,0,754.85,465.12Z"/><path class="cls-15" d="M743.31,465.53c.08,0-.16-.64-.74-1.47a6.57,6.57,0,0,0-3.13-2.53,4,4,0,0,0-4,.76c-.8.78-.77,1.54-.7,1.53s.29-.59,1-1.13a3.89,3.89,0,0,1,3.4-.46,7.67,7.67,0,0,1,3,2.15C742.82,465.11,743.22,465.59,743.31,465.53Z"/><path class="cls-15" d="M734.48,470.38c.09.07.46-.27,1.14-.64a5.86,5.86,0,0,1,2.83-.77,6,6,0,0,1,2.84.79c.67.38,1,.72,1.13.65s-.17-.54-.84-1.09a5.08,5.08,0,0,0-6.26,0C734.65,469.84,734.41,470.32,734.48,470.38Z"/></g><path class="cls-12" d="M795.38,438.83l2.49,19.62L827.79,433l16.36,4s-16.87,35.42-30.2,49.45-20.51,16-25.54,16.24c-6.91.3-10.07-8.12-10.07-8.12l-3-48.75Z"/><path class="cls-16" d="M797.76,457.93c-.17-.09-1.33,2-2.11,4.88s-.89,5.26-.7,5.28.6-2.3,1.38-5.09S797.94,458,797.76,457.93Z"/><path class="cls-11" d="M830.68,383.23h22.51c3.41,0,6.45,3.95,5.23,7.18l-22.65,44.11a5.12,5.12,0,0,1-4.56,2.78l-27.45-.06a3.93,3.93,0,0,1-3-5.81l21.85-43.18A9,9,0,0,1,830.68,383.23Z"/><path class="cls-10" d="M832.2,385.89h22.51a3.77,3.77,0,0,1,3.37,5.48L836,434.52a5.13,5.13,0,0,1-4.56,2.78H804.27a2.21,2.21,0,0,1-2-3.21l21.85-43.18A9,9,0,0,1,832.2,385.89Z"/><path class="cls-12" d="M834.11,404l13.7,5.48,2.94,11-6.6,16.44-24.22,3.52,7.09-7.25-.91-6.31s-6.75-2.12-6.92-3.15.84-4.5,1.87-4.67,8.12,2.47,8.12,2.47-8.38-6.64-8.15-7.71,1.14-3.79,2.81-4.09,15.21,6.07,15.21,6.07l2.19,5,1.92-8S831.14,409.42,834.11,404Z"/><path class="cls-16" d="M832.38,429.84c.08,0,.34-.47.47-1.36a7.46,7.46,0,0,0-2.35-6.36c-.68-.59-1.2-.8-1.24-.73s1.65,1.45,2.51,3.87S832.17,429.8,832.38,429.84Z"/><path class="cls-16" d="M838.9,427.45a29.68,29.68,0,0,1-.55-3.59,15.41,15.41,0,0,0-.69-4,5.82,5.82,0,0,0-1.26-2.12,6.31,6.31,0,0,0-2.24-1.41c-3.27-1.19-6.22-2.15-8.39-2.85a19.52,19.52,0,0,0-3.53-1,18,18,0,0,0,3.37,1.44c2.1.82,5.07,1.87,8.29,3a5.59,5.59,0,0,1,2,1.23,5.44,5.44,0,0,1,1.15,1.87,17.05,17.05,0,0,1,.81,3.81C838.12,426.19,838.8,427.51,838.9,427.45Z"/><path class="cls-16" d="M842,425c.19,0,.15-1.24-.09-2.7s-.59-2.62-.78-2.59-.16,1.24.08,2.71S841.85,425,842,425Z"/><path class="cls-17" d="M842.41,394.21a2.87,2.87,0,1,1-2.87-2.87A2.87,2.87,0,0,1,842.41,394.21Z"/><path class="cls-18" d="M842.25,886.78,837,868.31l-34.82,1.87,5.31,27.15,2.18,0c9.7,0,49.29-.59,55.65-2.89C872.36,891.89,842.25,886.78,842.25,886.78Z"/><path class="cls-18" d="M830.5,838l8.94-16.46-30.71-16.94L795.4,828.5l1.83,1.17c8.22,5.15,42.13,25.59,48.75,27C853.35,858.24,830.5,838,830.5,838Z"/><path class="cls-19" d="M777.44,508l96.47,133.76a71.52,71.52,0,0,1,8.78,67.49L837,828.32l-42.7-22.12,35.93-111.94a6.56,6.56,0,0,0-1.86-6.88l-69.87-63L747.66,508Z"/><path class="cls-20" d="M798.07,887.16l46.41-6.6L802.1,691.84,772.89,508H688.78l-4.42,54.2c.27,17.13,2.44,34.72,9.54,48.45L732,686.87C731.72,691.86,798.07,887.16,798.07,887.16Z"/><path class="cls-21" d="M771.06,372.67s16.32,4.71,22.31,24.41,6.87,42.37,6.87,42.37L780.4,444Z"/><path class="cls-21" d="M800.24,538,684.36,553.75l5.17-114.1-5.2,14.62L646.81,429.9l7.69-18.35c3.15-7.88,7.67-17.2,12.72-23.31a50.39,50.39,0,0,1,28.06-16.76c7.83-1.75,15.42-2.71,15.42-2.71l34.18.39c7.82-.05,26.3,3.4,26.3,3.4Z"/><path class="cls-22" d="M757.1,265c4.18-4.39,11.56-4.71,16.74-1.58s8.23,9.08,9,15.09c.47,3.76-.65,8.91,1.21,12.21,2,3.55,4.62,6.38,5.53,8.81,1.71,4.55,2,15.38-4,19-8.29,5-52.87,34.21-61.46,26.1"/><path class="cls-12" d="M755.52,372.89l-.09-21.11s15.13-2.51,18.27-22.26c1.56-9.82,1.06-25.93.23-39.09-.74-11.85-8.5-26.74-24.29-26.69,0,0-34.43-2.5-36.07,23.83l-.74,85.23a21.34,21.34,0,0,0,21.55,21.54h0A21.35,21.35,0,0,0,755.52,372.89Z"/><path class="cls-16" d="M755.43,351.78A50.18,50.18,0,0,1,729,344.72s6.41,13.57,26.18,11.72Z"/><path class="cls-22" d="M727.69,323.66c.14,2.6.16,4.88.1,6.87-.17,6.29-4.83-4-10.37-1-4.29,2.33-14.59,4.34-18-12.42-1.07-5.25-6.72-5-8.78-12.31-1.59-5.67-.9-10.73,1.37-14.37a10.91,10.91,0,0,1,5.76-4.73c3.17-1.29,5.4-4.2,7-7.22s2.8-6.28,4.72-9.11a13.11,13.11,0,0,1,5.81-4.94,21,21,0,0,1,4-2.95c6.54-3.61,14.43-3.37,21.89-3,7.22.32,23.75-6.54,24.8,12.58-2.16-2.44-7.33-3.22-9.65.84a11,11,0,0,0-1.62,8.21c.55,3.22,1,6.77-.78,9.53s-5.44,4-8.78,3.78-6.46-1.66-9.5-3.07c0,0-2.41,12.52-10.74,15.55Z"/><path class="cls-12" d="M765.25,457.05l-11.63-11.27a13.63,13.63,0,0,0-19,3.27l-13,18.41-50.12,8.65s10-22.65,10.13-23.54l1,.66-1-.66s0-.05,0,0l-31.1-20.2-13.62,33.37s-12.69,34,13.43,44S736.51,487,736.51,487l-.07-.1,7.58-5.6,3.69-3.18a13.24,13.24,0,0,0,4.57-8.71l1.35-12.9s6.89,3.65,10.24,5.3c1.73.85,2.38-.05,2.6-1.15A4,4,0,0,0,765.25,457.05Z"/><path class="cls-16" d="M753.72,457.45c.08-.05-.16-.63-.74-1.47a6.73,6.73,0,0,0-3.13-2.53,4.06,4.06,0,0,0-4,.77c-.81.77-.78,1.54-.7,1.53s.28-.59,1-1.13a3.93,3.93,0,0,1,3.4-.47,7.63,7.63,0,0,1,3,2.16C753.23,457,753.63,457.51,753.72,457.45Z"/><path class="cls-16" d="M744.89,462.3c.08.08.45-.26,1.13-.64a5.91,5.91,0,0,1,2.84-.76,6,6,0,0,1,2.83.78c.67.39,1,.73,1.13.65s-.17-.54-.83-1.08a5.08,5.08,0,0,0-3.13-1.09,5,5,0,0,0-3.13,1.07C745.06,461.76,744.82,462.25,744.89,462.3Z"/><g id="Group_7367" data-name="Group 7367"><g id="Group_7365-3" data-name="Group 7365-3"><g id="Group_7180-3" data-name="Group 7180-3"><g id="Group_5583-3" data-name="Group 5583-3"><g id="Group_5582-3" data-name="Group 5582-3"><g id="Group_5581-3" data-name="Group 5581-3"><rect id="Rectangle_1565-3" data-name="Rectangle 1565-3" class="cls-20" x="433.52" y="486.41" width="149.9" height="11.64"/><path id="Path_3764-3" data-name="Path 3764-3" class="cls-22" d="M432,454.94H585.19c3,0,5.47,1.78,5.47,4v25.44c0,2.2-2.45,4-5.47,4H432c-3,0-5.47-1.78-5.47-4V458.92C426.49,456.72,428.94,454.94,432,454.94Z"/><path id="Rectangle_1631-3" data-name="Rectangle 1631-3" class="cls-23" d="M428.86,454.94h53v33.4h-53a2.37,2.37,0,0,1-2.37-2.37V457.32A2.38,2.38,0,0,1,428.86,454.94Z"/></g></g></g></g><g id="Group_7183-3" data-name="Group 7183-3"><g id="Group_5584-3" data-name="Group 5584-3"><path id="Rectangle_1405-3" data-name="Rectangle 1405-3" class="cls-24" d="M529.89,466.9h0a1.74,1.74,0,0,1,1.74,1.74h0a1.74,1.74,0,0,1-1.74,1.74h0a1.74,1.74,0,0,1-1.74-1.74h0A1.74,1.74,0,0,1,529.89,466.9Z"/><path id="Rectangle_1424-3" data-name="Rectangle 1424-3" class="cls-18" d="M534.06,473.86h0a1.73,1.73,0,0,1,1.74,1.73h0a1.74,1.74,0,0,1-1.74,1.74h0a1.74,1.74,0,0,1-1.74-1.74h0A1.73,1.73,0,0,1,534.06,473.86Z"/><path id="Rectangle_1406-3" data-name="Rectangle 1406-3" class="cls-24" d="M536.84,466.9h0a1.74,1.74,0,0,1,1.74,1.74h0a1.74,1.74,0,0,1-1.74,1.74h0a1.74,1.74,0,0,1-1.74-1.74h0A1.74,1.74,0,0,1,536.84,466.9Z"/><path id="Rectangle_1423-3" data-name="Rectangle 1423-3" class="cls-24" d="M541,473.86h0a1.73,1.73,0,0,1,1.74,1.73h0a1.74,1.74,0,0,1-1.74,1.74h0a1.73,1.73,0,0,1-1.73-1.74h0A1.72,1.72,0,0,1,541,473.86Z"/><path id="Rectangle_1407-3" data-name="Rectangle 1407-3" class="cls-25" d="M543.8,466.9h0a1.73,1.73,0,0,1,1.73,1.74h0a1.73,1.73,0,0,1-1.73,1.74h0a1.74,1.74,0,0,1-1.74-1.74h0A1.74,1.74,0,0,1,543.8,466.9Z"/><path id="Rectangle_1422-3" data-name="Rectangle 1422-3" class="cls-24" d="M548,473.86h0a1.73,1.73,0,0,1,1.74,1.73h0a1.74,1.74,0,0,1-1.74,1.74h0a1.74,1.74,0,0,1-1.74-1.74h0A1.73,1.73,0,0,1,548,473.86Z"/><path id="Rectangle_1408-3" data-name="Rectangle 1408-3" class="cls-24" d="M550.75,466.9h0a1.74,1.74,0,0,1,1.74,1.74h0a1.74,1.74,0,0,1-1.74,1.74h0a1.74,1.74,0,0,1-1.74-1.74h0A1.74,1.74,0,0,1,550.75,466.9Z"/><path id="Rectangle_1421-3" data-name="Rectangle 1421-3" class="cls-18" d="M554.92,473.86h0a1.73,1.73,0,0,1,1.74,1.73h0a1.74,1.74,0,0,1-1.74,1.74h0a1.74,1.74,0,0,1-1.74-1.74h0A1.73,1.73,0,0,1,554.92,473.86Z"/><path id="Rectangle_1409-3" data-name="Rectangle 1409-3" class="cls-24" d="M557.7,466.9h0a1.74,1.74,0,0,1,1.74,1.74h0a1.74,1.74,0,0,1-1.74,1.74h0a1.74,1.74,0,0,1-1.74-1.74h0A1.74,1.74,0,0,1,557.7,466.9Z"/><path id="Rectangle_1420-3" data-name="Rectangle 1420-3" class="cls-24" d="M561.87,473.86h0a1.73,1.73,0,0,1,1.74,1.73h0a1.74,1.74,0,0,1-1.74,1.74h0a1.73,1.73,0,0,1-1.73-1.74h0A1.72,1.72,0,0,1,561.87,473.86Z"/></g></g><g id="Ellipse_1402-3" data-name="Ellipse 1402-3"><circle class="cls-26" cx="574.03" cy="471.83" r="2.96"/><circle class="cls-27" cx="574.03" cy="471.83" r="2.36"/></g><path id="Rectangle_3126-3" data-name="Rectangle 3126-3" class="cls-24" d="M521.78,465.59h0a1.32,1.32,0,0,1,1.32,1.31v9.86a1.31,1.31,0,0,1-1.32,1.31h0a1.31,1.31,0,0,1-1.31-1.31V466.9A1.31,1.31,0,0,1,521.78,465.59Z"/><path id="Rectangle_3127-3" data-name="Rectangle 3127-3" class="cls-24" d="M516.53,465.59h0a1.31,1.31,0,0,1,1.31,1.31v9.86a1.31,1.31,0,0,1-1.31,1.31h0a1.31,1.31,0,0,1-1.32-1.31V466.9A1.32,1.32,0,0,1,516.53,465.59Z"/><rect id="Rectangle_3128-3" data-name="Rectangle 3128-3" class="cls-23" x="490.24" y="465.59" width="21.03" height="5.26"/><rect id="Rectangle_3129-3" data-name="Rectangle 3129-3" class="cls-23" x="490.24" y="472.82" width="21.03" height="5.26"/><path id="Rectangle_3130-3" data-name="Rectangle 3130-3" class="cls-25" d="M520.47,468.22h2.63v8.54a1.32,1.32,0,0,1-1.32,1.31h0a1.31,1.31,0,0,1-1.31-1.31v-8.54Z"/><path id="Rectangle_3131-3" data-name="Rectangle 3131-3" class="cls-18" d="M515.21,473.22h2.63v3.54a1.31,1.31,0,0,1-1.31,1.31h0a1.32,1.32,0,0,1-1.32-1.31h0v-3.54Z"/><rect id="Rectangle_3132-3" data-name="Rectangle 3132-3" class="cls-28" x="490.24" y="465.59" width="5.26" height="5.26"/><rect id="Rectangle_3133-3" data-name="Rectangle 3133-3" class="cls-28" x="490.24" y="472.82" width="5.26" height="5.26"/><rect id="Rectangle_3136-3" data-name="Rectangle 3136-3" class="cls-21" x="498.13" y="467.56" width="10.51" height="1.31"/><rect id="Rectangle_3137-3" data-name="Rectangle 3137-3" class="cls-21" x="498.13" y="474.79" width="10.51" height="1.31"/><g id="Ellipse_1403-3" data-name="Ellipse 1403-3"><circle class="cls-26" cx="574.03" cy="471.83" r="6.24"/><circle class="cls-29" cx="574.03" cy="471.83" r="5.65"/></g><g id="Group_7380" data-name="Group 7380"><g id="Group_7359-3" data-name="Group 7359-3"><path id="Rectangle_3070-6" data-name="Rectangle 3070-6" class="cls-21" d="M466.91,476.91h0a2.17,2.17,0,0,1,2.17,2.17v.18a2.17,2.17,0,0,1-2.17,2.17h0a2.17,2.17,0,0,1-2.17-2.17v-.18A2.17,2.17,0,0,1,466.91,476.91Z"/><path id="Rectangle_3138-3" data-name="Rectangle 3138-3" class="cls-30" d="M467,464.21h0a1,1,0,0,1,1,1v8.54a1,1,0,0,1-1,1h0a1,1,0,0,1-1-1V465.2A1,1,0,0,1,467,464.21Z"/></g><g id="Group_7360-3" data-name="Group 7360-3"><path id="Rectangle_1442-11" data-name="Rectangle 1442-11" class="cls-31" d="M460.34,476.91h0a2.17,2.17,0,0,1,2.17,2.17v.18a2.17,2.17,0,0,1-2.17,2.17h0a2.17,2.17,0,0,1-2.17-2.17v-.18A2.17,2.17,0,0,1,460.34,476.91Z"/><path id="Rectangle_3139-3" data-name="Rectangle 3139-3" class="cls-32" d="M460.47,468.15h0a1,1,0,0,1,1,1v4.6a1,1,0,0,1-1,1h0a1,1,0,0,1-1-1v-4.6A1,1,0,0,1,460.47,468.15Z"/></g><g id="Group_7361-3" data-name="Group 7361-3"><path id="Rectangle_1425-11" data-name="Rectangle 1425-11" class="cls-21" d="M453.77,476.91h0a2.17,2.17,0,0,1,2.17,2.17v.18a2.17,2.17,0,0,1-2.17,2.17h0a2.17,2.17,0,0,1-2.17-2.17v-.18A2.17,2.17,0,0,1,453.77,476.91Z"/><path id="Rectangle_3140-3" data-name="Rectangle 3140-3" class="cls-30" d="M453.9,462.71h0a1,1,0,0,1,1,1v10.05a1,1,0,0,1-1,1h0a1,1,0,0,1-1-1V463.69A1,1,0,0,1,453.9,462.71Z"/></g><g id="Group_7362-3" data-name="Group 7362-3"><path id="Rectangle_1442-12" data-name="Rectangle 1442-12" class="cls-25" d="M447.2,476.91h0a2.17,2.17,0,0,1,2.17,2.17v.18a2.17,2.17,0,0,1-2.17,2.17h0a2.17,2.17,0,0,1-2.17-2.17v-.18A2.17,2.17,0,0,1,447.2,476.91Z"/><path id="Rectangle_3141-3" data-name="Rectangle 3141-3" class="cls-25" d="M447.33,465.21h0a1,1,0,0,1,1,1v7.55a1,1,0,0,1-1,1h0a1,1,0,0,1-1-1v-7.55A1,1,0,0,1,447.33,465.21Z"/></g><g id="Group_7363-3" data-name="Group 7363-3"><path id="Rectangle_1425-12" data-name="Rectangle 1425-12" class="cls-18" d="M440.63,476.91h0a2.17,2.17,0,0,1,2.17,2.17v.18a2.17,2.17,0,0,1-2.17,2.17h0a2.17,2.17,0,0,1-2.17-2.17v-.18A2.17,2.17,0,0,1,440.63,476.91Z"/><path id="Rectangle_3142-3" data-name="Rectangle 3142-3" class="cls-18" d="M440.76,469.47h0a1,1,0,0,1,1,1v3.29a1,1,0,0,1-1,1h0a1,1,0,0,1-1-1v-3.29A1,1,0,0,1,440.76,469.47Z"/></g></g></g><g id="Group_7365-4" data-name="Group 7365-4"><g id="Group_7180-4" data-name="Group 7180-4"><g id="Group_5583-4" data-name="Group 5583-4"><g id="Group_5582-4" data-name="Group 5582-4"><g id="Group_5581-4" data-name="Group 5581-4"><rect id="Rectangle_1565-4" data-name="Rectangle 1565-4" class="cls-20" x="433.52" y="526.18" width="149.9" height="11.64"/><path id="Path_3764-4" data-name="Path 3764-4" class="cls-22" d="M432,494.71H585.19c3,0,5.47,1.78,5.47,4v25.45c0,2.19-2.45,4-5.47,4H432c-3,0-5.47-1.78-5.47-4V498.69C426.49,496.49,428.94,494.71,432,494.71Z"/><path id="Rectangle_1631-4" data-name="Rectangle 1631-4" class="cls-23" d="M428.86,494.71h53v33.4h-53a2.37,2.37,0,0,1-2.37-2.37V497.09A2.38,2.38,0,0,1,428.86,494.71Z"/></g></g></g></g><g id="Group_7183-4" data-name="Group 7183-4"><g id="Group_5584-4" data-name="Group 5584-4"><path id="Rectangle_1405-4" data-name="Rectangle 1405-4" class="cls-24" d="M529.89,506.67h0a1.74,1.74,0,0,1,1.74,1.74h0a1.74,1.74,0,0,1-1.74,1.74h0a1.74,1.74,0,0,1-1.74-1.74h0A1.74,1.74,0,0,1,529.89,506.67Z"/><path id="Rectangle_1424-4" data-name="Rectangle 1424-4" class="cls-18" d="M534.06,513.63h0a1.73,1.73,0,0,1,1.74,1.73h0a1.74,1.74,0,0,1-1.74,1.74h0a1.74,1.74,0,0,1-1.74-1.74h0A1.73,1.73,0,0,1,534.06,513.63Z"/><path id="Rectangle_1406-4" data-name="Rectangle 1406-4" class="cls-24" d="M536.84,506.67h0a1.74,1.74,0,0,1,1.74,1.74h0a1.74,1.74,0,0,1-1.74,1.74h0a1.74,1.74,0,0,1-1.74-1.74h0A1.74,1.74,0,0,1,536.84,506.67Z"/><path id="Rectangle_1423-4" data-name="Rectangle 1423-4" class="cls-24" d="M541,513.63h0a1.73,1.73,0,0,1,1.74,1.73h0A1.74,1.74,0,0,1,541,517.1h0a1.73,1.73,0,0,1-1.73-1.74h0A1.72,1.72,0,0,1,541,513.63Z"/><path id="Rectangle_1407-4" data-name="Rectangle 1407-4" class="cls-25" d="M543.8,506.67h0a1.73,1.73,0,0,1,1.73,1.74h0a1.73,1.73,0,0,1-1.73,1.74h0a1.74,1.74,0,0,1-1.74-1.74h0A1.74,1.74,0,0,1,543.8,506.67Z"/><path id="Rectangle_1422-4" data-name="Rectangle 1422-4" class="cls-24" d="M548,513.63h0a1.73,1.73,0,0,1,1.74,1.73h0A1.74,1.74,0,0,1,548,517.1h0a1.74,1.74,0,0,1-1.74-1.74h0A1.73,1.73,0,0,1,548,513.63Z"/><path id="Rectangle_1408-4" data-name="Rectangle 1408-4" class="cls-24" d="M550.75,506.67h0a1.74,1.74,0,0,1,1.74,1.74h0a1.74,1.74,0,0,1-1.74,1.74h0a1.74,1.74,0,0,1-1.74-1.74h0A1.74,1.74,0,0,1,550.75,506.67Z"/><path id="Rectangle_1421-4" data-name="Rectangle 1421-4" class="cls-18" d="M554.92,513.63h0a1.73,1.73,0,0,1,1.74,1.73h0a1.74,1.74,0,0,1-1.74,1.74h0a1.74,1.74,0,0,1-1.74-1.74h0A1.73,1.73,0,0,1,554.92,513.63Z"/><path id="Rectangle_1409-4" data-name="Rectangle 1409-4" class="cls-24" d="M557.7,506.67h0a1.74,1.74,0,0,1,1.74,1.74h0a1.74,1.74,0,0,1-1.74,1.74h0a1.74,1.74,0,0,1-1.74-1.74h0A1.74,1.74,0,0,1,557.7,506.67Z"/><path id="Rectangle_1420-4" data-name="Rectangle 1420-4" class="cls-24" d="M561.87,513.63h0a1.73,1.73,0,0,1,1.74,1.73h0a1.74,1.74,0,0,1-1.74,1.74h0a1.73,1.73,0,0,1-1.73-1.74h0A1.72,1.72,0,0,1,561.87,513.63Z"/></g></g><g id="Ellipse_1402-4" data-name="Ellipse 1402-4"><circle class="cls-26" cx="574.03" cy="511.6" r="2.96"/><circle class="cls-27" cx="574.03" cy="511.6" r="2.36"/></g><path id="Rectangle_3126-4" data-name="Rectangle 3126-4" class="cls-24" d="M521.78,505.36h0a1.32,1.32,0,0,1,1.32,1.31v9.86a1.31,1.31,0,0,1-1.32,1.31h0a1.31,1.31,0,0,1-1.31-1.31v-9.86A1.31,1.31,0,0,1,521.78,505.36Z"/><path id="Rectangle_3127-4" data-name="Rectangle 3127-4" class="cls-24" d="M516.53,505.36h0a1.31,1.31,0,0,1,1.31,1.31v9.86a1.31,1.31,0,0,1-1.31,1.31h0a1.31,1.31,0,0,1-1.32-1.31v-9.86A1.32,1.32,0,0,1,516.53,505.36Z"/><rect id="Rectangle_3128-4" data-name="Rectangle 3128-4" class="cls-23" x="490.24" y="505.36" width="21.03" height="5.26"/><rect id="Rectangle_3129-4" data-name="Rectangle 3129-4" class="cls-23" x="490.24" y="512.59" width="21.03" height="5.26"/><path id="Rectangle_3130-4" data-name="Rectangle 3130-4" class="cls-25" d="M520.47,508h2.63v8.54a1.31,1.31,0,0,1-1.32,1.31h0a1.31,1.31,0,0,1-1.31-1.31V508Z"/><path id="Rectangle_3131-4" data-name="Rectangle 3131-4" class="cls-18" d="M515.21,513h2.63v3.54a1.31,1.31,0,0,1-1.31,1.31h0a1.31,1.31,0,0,1-1.32-1.31h0V513Z"/><rect id="Rectangle_3132-4" data-name="Rectangle 3132-4" class="cls-28" x="490.24" y="505.36" width="5.26" height="5.26"/><rect id="Rectangle_3133-4" data-name="Rectangle 3133-4" class="cls-28" x="490.24" y="512.59" width="5.26" height="5.26"/><rect id="Rectangle_3136-4" data-name="Rectangle 3136-4" class="cls-21" x="498.13" y="507.33" width="10.51" height="1.31"/><rect id="Rectangle_3137-4" data-name="Rectangle 3137-4" class="cls-21" x="498.13" y="514.56" width="10.51" height="1.31"/><g id="Ellipse_1403-4" data-name="Ellipse 1403-4"><circle class="cls-26" cx="574.03" cy="511.6" r="6.24"/><circle class="cls-29" cx="574.03" cy="511.6" r="5.65"/></g><g id="Group_7381" data-name="Group 7381"><g id="Group_7359-4" data-name="Group 7359-4"><path id="Rectangle_3070-7" data-name="Rectangle 3070-7" class="cls-21" d="M466.91,516.68h0a2.17,2.17,0,0,1,2.17,2.17V519a2.17,2.17,0,0,1-2.17,2.17h0a2.17,2.17,0,0,1-2.17-2.17v-.18A2.17,2.17,0,0,1,466.91,516.68Z"/><path id="Rectangle_3138-4" data-name="Rectangle 3138-4" class="cls-30" d="M467,504h0a1,1,0,0,1,1,1v8.54a1,1,0,0,1-1,1h0a1,1,0,0,1-1-1V505A1,1,0,0,1,467,504Z"/></g><g id="Group_7360-4" data-name="Group 7360-4"><path id="Rectangle_1442-13" data-name="Rectangle 1442-13" class="cls-31" d="M460.34,516.68h0a2.17,2.17,0,0,1,2.17,2.17V519a2.17,2.17,0,0,1-2.17,2.17h0a2.17,2.17,0,0,1-2.17-2.17v-.18A2.17,2.17,0,0,1,460.34,516.68Z"/><path id="Rectangle_3139-4" data-name="Rectangle 3139-4" class="cls-32" d="M460.47,507.92h0a1,1,0,0,1,1,1v4.6a1,1,0,0,1-1,1h0a1,1,0,0,1-1-1v-4.6A1,1,0,0,1,460.47,507.92Z"/></g><g id="Group_7361-4" data-name="Group 7361-4"><path id="Rectangle_1425-13" data-name="Rectangle 1425-13" class="cls-21" d="M453.77,516.68h0a2.17,2.17,0,0,1,2.17,2.17V519a2.17,2.17,0,0,1-2.17,2.17h0A2.17,2.17,0,0,1,451.6,519v-.18A2.17,2.17,0,0,1,453.77,516.68Z"/><path id="Rectangle_3140-4" data-name="Rectangle 3140-4" class="cls-30" d="M453.9,502.48h0a1,1,0,0,1,1,1v10.05a1,1,0,0,1-1,1h0a1,1,0,0,1-1-1V503.46A1,1,0,0,1,453.9,502.48Z"/></g><g id="Group_7362-4" data-name="Group 7362-4"><path id="Rectangle_1442-14" data-name="Rectangle 1442-14" class="cls-25" d="M447.2,516.68h0a2.17,2.17,0,0,1,2.17,2.17V519a2.17,2.17,0,0,1-2.17,2.17h0A2.17,2.17,0,0,1,445,519v-.18A2.17,2.17,0,0,1,447.2,516.68Z"/><path id="Rectangle_3141-4" data-name="Rectangle 3141-4" class="cls-25" d="M447.33,505h0a1,1,0,0,1,1,1v7.55a1,1,0,0,1-1,1h0a1,1,0,0,1-1-1V506A1,1,0,0,1,447.33,505Z"/></g><g id="Group_7363-4" data-name="Group 7363-4"><path id="Rectangle_1425-14" data-name="Rectangle 1425-14" class="cls-18" d="M440.63,516.68h0a2.17,2.17,0,0,1,2.17,2.17V519a2.17,2.17,0,0,1-2.17,2.17h0a2.17,2.17,0,0,1-2.17-2.17v-.18A2.17,2.17,0,0,1,440.63,516.68Z"/><path id="Rectangle_3142-4" data-name="Rectangle 3142-4" class="cls-18" d="M440.76,509.24h0a1,1,0,0,1,1,1v3.29a1,1,0,0,1-1,1h0a1,1,0,0,1-1-1v-3.29A1,1,0,0,1,440.76,509.24Z"/></g></g></g><g id="Group_7365-5" data-name="Group 7365-5"><g id="Group_7180-5" data-name="Group 7180-5"><g id="Group_5583-5" data-name="Group 5583-5"><g id="Group_5582-5" data-name="Group 5582-5"><g id="Group_5581-5" data-name="Group 5581-5"><path id="Path_3764-5" data-name="Path 3764-5" class="cls-22" d="M432,534.48H585.19c3,0,5.47,1.78,5.47,4v25.45c0,2.19-2.45,4-5.47,4H432c-3,0-5.47-1.78-5.47-4V538.46C426.49,536.26,428.94,534.48,432,534.48Z"/><path id="Rectangle_1631-5" data-name="Rectangle 1631-5" class="cls-23" d="M428.86,534.48h53v33.4h-53a2.37,2.37,0,0,1-2.37-2.37V536.86A2.38,2.38,0,0,1,428.86,534.48Z"/></g></g></g></g><g id="Group_7183-5" data-name="Group 7183-5"><g id="Group_5584-5" data-name="Group 5584-5"><path id="Rectangle_1405-5" data-name="Rectangle 1405-5" class="cls-24" d="M529.89,546.44h0a1.74,1.74,0,0,1,1.74,1.74h0a1.74,1.74,0,0,1-1.74,1.74h0a1.74,1.74,0,0,1-1.74-1.74h0A1.74,1.74,0,0,1,529.89,546.44Z"/><path id="Rectangle_1424-5" data-name="Rectangle 1424-5" class="cls-18" d="M534.06,553.4h0a1.73,1.73,0,0,1,1.74,1.73h0a1.74,1.74,0,0,1-1.74,1.74h0a1.74,1.74,0,0,1-1.74-1.74h0A1.73,1.73,0,0,1,534.06,553.4Z"/><path id="Rectangle_1406-5" data-name="Rectangle 1406-5" class="cls-24" d="M536.84,546.44h0a1.74,1.74,0,0,1,1.74,1.74h0a1.74,1.74,0,0,1-1.74,1.74h0a1.74,1.74,0,0,1-1.74-1.74h0A1.74,1.74,0,0,1,536.84,546.44Z"/><path id="Rectangle_1423-5" data-name="Rectangle 1423-5" class="cls-24" d="M541,553.4h0a1.73,1.73,0,0,1,1.74,1.73h0a1.74,1.74,0,0,1-1.74,1.74h0a1.73,1.73,0,0,1-1.73-1.74h0A1.72,1.72,0,0,1,541,553.4Z"/><path id="Rectangle_1407-5" data-name="Rectangle 1407-5" class="cls-25" d="M543.8,546.44h0a1.73,1.73,0,0,1,1.73,1.74h0a1.73,1.73,0,0,1-1.73,1.74h0a1.74,1.74,0,0,1-1.74-1.74h0A1.74,1.74,0,0,1,543.8,546.44Z"/><path id="Rectangle_1422-5" data-name="Rectangle 1422-5" class="cls-24" d="M548,553.4h0a1.73,1.73,0,0,1,1.74,1.73h0a1.74,1.74,0,0,1-1.74,1.74h0a1.74,1.74,0,0,1-1.74-1.74h0A1.73,1.73,0,0,1,548,553.4Z"/><path id="Rectangle_1408-5" data-name="Rectangle 1408-5" class="cls-24" d="M550.75,546.44h0a1.74,1.74,0,0,1,1.74,1.74h0a1.74,1.74,0,0,1-1.74,1.74h0a1.74,1.74,0,0,1-1.74-1.74h0A1.74,1.74,0,0,1,550.75,546.44Z"/><path id="Rectangle_1421-5" data-name="Rectangle 1421-5" class="cls-18" d="M554.92,553.4h0a1.73,1.73,0,0,1,1.74,1.73h0a1.74,1.74,0,0,1-1.74,1.74h0a1.74,1.74,0,0,1-1.74-1.74h0A1.73,1.73,0,0,1,554.92,553.4Z"/><path id="Rectangle_1409-5" data-name="Rectangle 1409-5" class="cls-24" d="M557.7,546.44h0a1.74,1.74,0,0,1,1.74,1.74h0a1.74,1.74,0,0,1-1.74,1.74h0a1.74,1.74,0,0,1-1.74-1.74h0A1.74,1.74,0,0,1,557.7,546.44Z"/><path id="Rectangle_1420-5" data-name="Rectangle 1420-5" class="cls-24" d="M561.87,553.4h0a1.73,1.73,0,0,1,1.74,1.73h0a1.74,1.74,0,0,1-1.74,1.74h0a1.73,1.73,0,0,1-1.73-1.74h0A1.72,1.72,0,0,1,561.87,553.4Z"/></g></g><g id="Ellipse_1402-5" data-name="Ellipse 1402-5"><circle class="cls-26" cx="574.03" cy="551.37" r="2.96"/><circle class="cls-27" cx="574.03" cy="551.37" r="2.36"/></g><path id="Rectangle_3126-5" data-name="Rectangle 3126-5" class="cls-24" d="M521.78,545.13h0a1.32,1.32,0,0,1,1.32,1.31v9.86a1.31,1.31,0,0,1-1.32,1.31h0a1.31,1.31,0,0,1-1.31-1.31v-9.86A1.31,1.31,0,0,1,521.78,545.13Z"/><path id="Rectangle_3127-5" data-name="Rectangle 3127-5" class="cls-24" d="M516.53,545.13h0a1.31,1.31,0,0,1,1.31,1.31v9.86a1.31,1.31,0,0,1-1.31,1.31h0a1.31,1.31,0,0,1-1.32-1.31v-9.86A1.32,1.32,0,0,1,516.53,545.13Z"/><rect id="Rectangle_3128-5" data-name="Rectangle 3128-5" class="cls-23" x="490.24" y="545.13" width="21.03" height="5.26"/><rect id="Rectangle_3129-5" data-name="Rectangle 3129-5" class="cls-23" x="490.24" y="552.36" width="21.03" height="5.26"/><path id="Rectangle_3130-5" data-name="Rectangle 3130-5" class="cls-25" d="M520.47,547.76h2.63v8.54a1.31,1.31,0,0,1-1.32,1.31h0a1.31,1.31,0,0,1-1.31-1.31v-8.54Z"/><path id="Rectangle_3131-5" data-name="Rectangle 3131-5" class="cls-18" d="M515.21,552.76h2.63v3.54a1.31,1.31,0,0,1-1.31,1.31h0a1.31,1.31,0,0,1-1.32-1.31h0v-3.54Z"/><rect id="Rectangle_3132-5" data-name="Rectangle 3132-5" class="cls-28" x="490.24" y="545.13" width="5.26" height="5.26"/><rect id="Rectangle_3133-5" data-name="Rectangle 3133-5" class="cls-28" x="490.24" y="552.36" width="5.26" height="5.26"/><rect id="Rectangle_3136-5" data-name="Rectangle 3136-5" class="cls-21" x="498.13" y="547.1" width="10.51" height="1.31"/><rect id="Rectangle_3137-5" data-name="Rectangle 3137-5" class="cls-21" x="498.13" y="554.33" width="10.51" height="1.31"/><g id="Ellipse_1403-5" data-name="Ellipse 1403-5"><circle class="cls-26" cx="574.03" cy="551.37" r="6.24"/><circle class="cls-29" cx="574.03" cy="551.37" r="5.65"/></g><g id="Group_7382" data-name="Group 7382"><g id="Group_7359-5" data-name="Group 7359-5"><path id="Rectangle_3070-8" data-name="Rectangle 3070-8" class="cls-21" d="M466.91,555.86h0a2.17,2.17,0,0,1,2.17,2.17v.17a2.17,2.17,0,0,1-2.17,2.17h0a2.17,2.17,0,0,1-2.17-2.17V558A2.17,2.17,0,0,1,466.91,555.86Z"/><path id="Rectangle_3138-5" data-name="Rectangle 3138-5" class="cls-30" d="M467,543.16h0a1,1,0,0,1,1,1v8.54a1,1,0,0,1-1,1h0a1,1,0,0,1-1-1v-8.54A1,1,0,0,1,467,543.16Z"/></g><g id="Group_7360-5" data-name="Group 7360-5"><path id="Rectangle_1442-15" data-name="Rectangle 1442-15" class="cls-31" d="M460.34,555.86h0a2.17,2.17,0,0,1,2.17,2.17v.17a2.17,2.17,0,0,1-2.17,2.17h0a2.17,2.17,0,0,1-2.17-2.17V558A2.17,2.17,0,0,1,460.34,555.86Z"/><path id="Rectangle_3139-5" data-name="Rectangle 3139-5" class="cls-32" d="M460.47,547.1h0a1,1,0,0,1,1,1v4.59a1,1,0,0,1-1,1h0a1,1,0,0,1-1-1v-4.59A1,1,0,0,1,460.47,547.1Z"/></g><g id="Group_7361-5" data-name="Group 7361-5"><path id="Rectangle_1425-15" data-name="Rectangle 1425-15" class="cls-21" d="M453.77,555.86h0a2.17,2.17,0,0,1,2.17,2.17v.17a2.17,2.17,0,0,1-2.17,2.17h0a2.17,2.17,0,0,1-2.17-2.17V558A2.17,2.17,0,0,1,453.77,555.86Z"/><path id="Rectangle_3140-5" data-name="Rectangle 3140-5" class="cls-30" d="M453.9,541.65h0a1,1,0,0,1,1,1v10.05a1,1,0,0,1-1,1h0a1,1,0,0,1-1-1V542.64A1,1,0,0,1,453.9,541.65Z"/></g><g id="Group_7362-5" data-name="Group 7362-5"><path id="Rectangle_1442-16" data-name="Rectangle 1442-16" class="cls-25" d="M447.2,555.86h0a2.17,2.17,0,0,1,2.17,2.17v.17a2.17,2.17,0,0,1-2.17,2.17h0A2.17,2.17,0,0,1,445,558.2V558A2.17,2.17,0,0,1,447.2,555.86Z"/><path id="Rectangle_3141-5" data-name="Rectangle 3141-5" class="cls-25" d="M447.33,544.15h0a1,1,0,0,1,1,1v7.55a1,1,0,0,1-1,1h0a1,1,0,0,1-1-1v-7.55A1,1,0,0,1,447.33,544.15Z"/></g><g id="Group_7363-5" data-name="Group 7363-5"><path id="Rectangle_1425-16" data-name="Rectangle 1425-16" class="cls-18" d="M440.63,555.86h0A2.17,2.17,0,0,1,442.8,558v.17a2.17,2.17,0,0,1-2.17,2.17h0a2.17,2.17,0,0,1-2.17-2.17V558A2.17,2.17,0,0,1,440.63,555.86Z"/><path id="Rectangle_3142-5" data-name="Rectangle 3142-5" class="cls-18" d="M440.76,548.41h0a1,1,0,0,1,1,1v3.28a1,1,0,0,1-1,1h0a1,1,0,0,1-1-1V549.4A1,1,0,0,1,440.76,548.41Z"/></g></g></g></g></svg>