<svg id="Layer_1" data-name="Layer 1" xmlns="http://www.w3.org/2000/svg" xmlns:xlink="http://www.w3.org/1999/xlink" viewBox="0 0 1000 1000"><defs><style>.cls-1{fill:url(#linear-gradient);}.cls-2{fill:#29abe3;}.cls-3,.cls-4,.cls-5{fill:none;stroke:#f49523;stroke-width:2.56px;}.cls-3,.cls-4,.cls-5,.cls-6{stroke-miterlimit:10;}.cls-4{stroke-dasharray:13.45 13.45;}.cls-5{stroke-dasharray:12.83 12.83;}.cls-6{fill:#63beec;stroke:#1672b9;stroke-width:3.6px;}.cls-7{fill:#186baa;}.cls-8{fill:#3782c4;}.cls-9{fill:#78c1eb;}.cls-10{fill:#2c73b9;}</style><linearGradient id="linear-gradient" x1="490.17" y1="826.73" x2="490.17" y2="176.93" gradientUnits="userSpaceOnUse"><stop offset="0" stop-color="#c8e5f9"/><stop offset="1" stop-color="#fff"/></linearGradient></defs><path class="cls-1" d="M956.29,475.66c-13.09,96.91-67.78,201.21-205.66,271.9-4.74,2.44-9.46,4.79-14.21,7.11q-9.75,4.74-19.53,9.15a727,727,0,0,1-93.73,34.79q-9.51,2.79-18.94,5.27t-18.63,4.65a685.89,685.89,0,0,1-78.48,13.75C355.81,839.79,218.62,804,129.56,741.76a315.77,315.77,0,0,1-44.22-37,248.44,248.44,0,0,1-29.95-36.57C-22.22,552,37.68,412.68,164.53,377.49c139.06-38.58,204.17-5.71,366.11-114.3s325.18-121.34,391.27.25c11,20.31,21.37,47.47,28.41,79A381.25,381.25,0,0,1,956.29,475.66Z"/><path class="cls-2" d="M685.69,218.54a84.69,84.69,0,0,0-33.12,6.6c-11.36-17.06-33.6-28.66-59.18-28.66a80.37,80.37,0,0,0-27.19,4.67c-12.79-31.87-49.66-54.9-93.18-54.9-48.2,0-88.25,28.27-96.43,65.49a94.33,94.33,0,0,0-25.37-3.45c-43,0-77.83,28.29-77.83,63.19s34.85,63.18,77.83,63.18H685.69c39.5,0,71.52-26,71.52-58.06S725.19,218.54,685.69,218.54Z"/><line class="cls-3" x1="515.3" y1="343.04" x2="515.3" y2="349.45"/><line class="cls-4" x1="515.3" y1="362.9" x2="515.3" y2="517.53"/><line class="cls-3" x1="515.3" y1="524.25" x2="515.3" y2="530.66"/><line class="cls-3" x1="406.43" y1="343.04" x2="406.43" y2="349.45"/><path class="cls-5" d="M406.43,362.28v42.09c0,17.94-17.92,32.48-40,32.48H243.92c-22.09,0-40,14.54-40,32.48v48.5"/><line class="cls-3" x1="203.91" y1="524.25" x2="203.91" y2="530.66"/><line class="cls-3" x1="620.83" y1="343.04" x2="620.83" y2="349.45"/><path class="cls-5" d="M620.83,362.28v42.09c0,17.94,17.92,32.48,40,32.48h122.5c22.09,0,40,14.54,40,32.48v48.5"/><line class="cls-3" x1="823.35" y1="524.25" x2="823.35" y2="530.66"/><rect class="cls-6" x="52.59" y="557.72" width="263.67" height="125.74" rx="2.28"/><path class="cls-7" d="M39.49,687h291a0,0,0,0,1,0,0v9.64a1.39,1.39,0,0,1-1.39,1.39H40.88a1.39,1.39,0,0,1-1.39-1.39V687a0,0,0,0,1,0,0Z"/><ellipse class="cls-8" cx="175.04" cy="692.49" rx="3.65" ry="2.97"/><ellipse class="cls-9" cx="184.43" cy="692.49" rx="3.65" ry="2.97"/><ellipse class="cls-10" cx="193.81" cy="692.49" rx="3.65" ry="2.97"/><rect class="cls-6" x="383.46" y="557.72" width="263.67" height="125.74" rx="2.28"/><path class="cls-7" d="M370.36,687h291a0,0,0,0,1,0,0v9.64A1.39,1.39,0,0,1,660,698H371.75a1.39,1.39,0,0,1-1.39-1.39V687A0,0,0,0,1,370.36,687Z"/><ellipse class="cls-8" cx="505.92" cy="692.49" rx="3.65" ry="2.97"/><ellipse class="cls-9" cx="515.3" cy="692.49" rx="3.65" ry="2.97"/><ellipse class="cls-10" cx="524.68" cy="692.49" rx="3.65" ry="2.97"/><rect class="cls-6" x="695.42" y="557.72" width="263.67" height="125.74" rx="2.28"/><path class="cls-7" d="M682.32,687h291a0,0,0,0,1,0,0v9.64a1.39,1.39,0,0,1-1.39,1.39H683.71a1.39,1.39,0,0,1-1.39-1.39V687A0,0,0,0,1,682.32,687Z"/><ellipse class="cls-8" cx="817.88" cy="692.49" rx="3.65" ry="2.97"/><ellipse class="cls-9" cx="827.26" cy="692.49" rx="3.65" ry="2.97"/><ellipse class="cls-10" cx="836.64" cy="692.49" rx="3.65" ry="2.97"/></svg>