<svg xmlns="http://www.w3.org/2000/svg" xmlns:xlink="http://www.w3.org/1999/xlink" viewBox="0 0 1000 1000"><defs><style>.cls-1{isolation:isolate;}.cls-2{fill:url(#linear-gradient);}.cls-3{fill:#97c6da;}.cls-14,.cls-4{opacity:0.25;mix-blend-mode:overlay;}.cls-14,.cls-5,.cls-9{fill:#010101;}.cls-6{fill:url(#linear-gradient-2);}.cls-7{fill:url(#linear-gradient-3);}.cls-8{fill:url(#linear-gradient-4);}.cls-9{mix-blend-mode:multiply;}.cls-10{fill:url(#linear-gradient-5);}.cls-11{fill:#fafcfc;}.cls-12{fill:#1e262d;}.cls-13{fill:#fee6cb;}.cls-15{fill:#0a0b0b;}.cls-16{fill:#111114;}.cls-17{fill:#324756;}.cls-18{fill:#102133;}.cls-19{fill:#348ccc;}.cls-20{fill:#1672b9;}.cls-21{fill:#132b45;}.cls-22{fill:url(#linear-gradient-6);}.cls-23{fill:url(#linear-gradient-7);}.cls-24{fill:#29abe3;}.cls-25,.cls-26{fill:none;stroke:#f49523;stroke-miterlimit:10;stroke-width:2.56px;}.cls-26{stroke-dasharray:13.41 13.41;}</style><linearGradient id="linear-gradient" x1="32.51" y1="550.9" x2="854.74" y2="550.9" gradientUnits="userSpaceOnUse"><stop offset="0" stop-color="#c8e5f9"/><stop offset="1" stop-color="#fff"/></linearGradient><linearGradient id="linear-gradient-2" x1="175.64" y1="711.09" x2="175.64" y2="801.66" gradientUnits="userSpaceOnUse"><stop offset="0" stop-color="#f8bb99"/><stop offset="1" stop-color="#f49e6f"/></linearGradient><linearGradient id="linear-gradient-3" x1="73.13" y1="768.65" x2="73.13" y2="813.76" xlink:href="#linear-gradient-2"/><linearGradient id="linear-gradient-4" x1="101.06" y1="692.93" x2="101.06" y2="795.38" xlink:href="#linear-gradient-2"/><linearGradient id="linear-gradient-5" x1="81.74" y1="852" x2="178.94" y2="852" xlink:href="#linear-gradient-2"/><linearGradient id="linear-gradient-6" x1="692.44" y1="738.66" x2="708.96" y2="738.66" gradientUnits="userSpaceOnUse"><stop offset="0" stop-color="#056d9e"/><stop offset="0" stop-color="#096597"/><stop offset="0" stop-color="#145082"/><stop offset="0" stop-color="#262e61"/></linearGradient><linearGradient id="linear-gradient-7" x1="443.63" y1="738.66" x2="460.14" y2="738.66" xlink:href="#linear-gradient-6"/></defs><g class="cls-1"><g id="Layer_1" data-name="Layer 1"><path class="cls-2" d="M51.12,896.39s-58.88-88.78,32.8-216.66,32.57-209.85,107.42-357.8,263.55-165.35,347.59,8c22.93,47.29,103.45,167,159.8,201.86,45.69,28.27,152.7,49.38,156,219.33.77,39.3-20.1,110.23-47.49,145.28Z"/><rect class="cls-3" x="28.32" y="886.43" width="824.32" height="11.43"/><g class="cls-4"><path class="cls-5" d="M147.5,793s-1.33,4-2.74,8.92-2.9,10.91-3.22,15.06l2.37.18c.28-3.78,1.74-9.69,3.14-14.59.69-2.45,1.37-4.65,1.87-6.25s.84-2.56.84-2.56L147.5,793Z"/><path class="cls-5" d="M126.23,795s0,.4.12,1.13c.21,2.19.65,7.29.65,12.83,0,2.59-.1,6.38-.35,8.9l2.37.24c.26-2.64.36-6.49.36-9.14a134.29,134.29,0,0,0-.79-14.24l-2.36.28Z"/><path class="cls-5" d="M114.44,810.7h0a8.73,8.73,0,0,1,1,1.48,17.62,17.62,0,0,1,1.09,5h2.38a19.3,19.3,0,0,0-1.5-6.33,10.17,10.17,0,0,0-1.25-1.74l-1.75,1.61Z"/></g><path class="cls-6" d="M144.67,795.42s-12.2-15.47,6.54-47.6,57.41-39.86,59.2-35.7-19.64,12.2-25.59,36.89-6.74,38.38-14.17,45.81S153.09,805.23,144.67,795.42Z"/><path class="cls-7" d="M119.56,798.53s-1.34-17.39-32.83-27.08-61.33,8.49-60,12.28,20.11-3.84,38.8,8.67,27.43,21,36.74,21.34S120,810,119.56,798.53Z"/><path class="cls-8" d="M138.5,787.14s21-22.56-3.35-58.65S57.07,689.87,55.3,694.88s21,14.44,29.87,42.83,13.68,42.61,22.93,50.73S129.41,799.25,138.5,787.14Z"/><g class="cls-4"><path class="cls-9" d="M149.62,790.65a1.12,1.12,0,0,1-.31,0,1.18,1.18,0,0,1-.83-1.46c.54-2,13.6-48.33,37.77-66a1.19,1.19,0,1,1,1.4,1.92c-23.49,17.22-36.75,64.28-36.88,64.75A1.19,1.19,0,0,1,149.62,790.65Z"/></g><g class="cls-4"><path class="cls-9" d="M125.29,784.77a1.29,1.29,0,0,1-1.19-.89,5.46,5.46,0,0,1-.14-1.29c-1.09-16.3-8-70.4-51.68-81.82a1.19,1.19,0,0,1,.6-2.3c45.19,11.82,52.34,67.26,53.46,84,0,.44,0,.73.06.85a1.12,1.12,0,0,1-.77,1.43A1.33,1.33,0,0,1,125.29,784.77Z"/></g><g class="cls-4"><path class="cls-5" d="M110.59,806.44c-.54,0-1.07-.49-2.81-2.06-19.57-17.71-38.43-26.1-56.08-25a1.19,1.19,0,0,1-.16-2.38c18.32-1.22,37.77,7.4,57.84,25.57.7.63,1.41,1.28,1.69,1.49a1.14,1.14,0,0,1,.71.74,1.19,1.19,0,0,1-.75,1.5A1.23,1.23,0,0,1,110.59,806.44Z"/></g><path class="cls-10" d="M159.28,887H97.92a3.33,3.33,0,0,1-3.23-2.57L81.85,823.2A5.17,5.17,0,0,1,86.91,817h86.86a5.17,5.17,0,0,1,5,6.5l-16.26,61A3.31,3.31,0,0,1,159.28,887Z"/><rect class="cls-11" x="403.43" y="277.32" width="2.49" height="2.49"/><path class="cls-11" d="M405.92,368.76h-2.49v-5.08h2.49Zm0-12.71h-2.49V351h2.49Zm0-12.7h-2.49v-5.09h2.49Zm0-12.71h-2.49v-5.08h2.49Zm0-12.71h-2.49v-5.08h2.49Zm0-12.7h-2.49v-5.09h2.49Zm0-12.71h-2.49v-5.09h2.49Z"/><rect class="cls-11" x="403.43" y="376.39" width="2.49" height="2.49"/><polygon class="cls-12" points="586.12 572.93 451.88 572.93 451.88 565.3 581.6 565.3 644.04 451.21 650.72 454.87 586.12 572.93"/><path class="cls-13" d="M371.22,330.63a64.9,64.9,0,0,1-8.93,22.89c-7.16,11.05-23.28,27.27-27.74,28.66-1.8.55-8.19-2.35-15.17-6-2.29-1.19-4.63-2.48-6.92-3.74-8-4.45-15.11-8.75-15.11-8.75l-10.65-15c4.32-21.79,12-38.13,23.87-53.59s38.25-6.18,47.87,1.25S373.31,315.38,371.22,330.63Z"/><path class="cls-14" d="M312,332.44c-.32,9.74,6.1,13.4,7.39,15.06s-7.34,10.64-11.19,6.6S312,332.44,312,332.44Z"/><polygon class="cls-13" points="553.1 822.41 557.86 845.32 526.42 850.73 519.17 824.51 553.1 822.41"/><path class="cls-15" d="M618.14,855.9l2.05,11.47-99.74,17.79-2-11.36s88.41-16.79,98-17.66Z"/><path class="cls-16" d="M616.46,856.14c-9.62.87-98,17.66-98,17.66l3.15-26.38a1.94,1.94,0,0,1,2.33-1.65c23.41,4.58,31.53-5.61,33.74-9.56C558.12,835.38,612.92,855.43,616.46,856.14Z"/><path class="cls-17" d="M382.34,675c-20.43,1-47.72,2.48-83.35,3.85-99.71,3.81-79.4-92.73-79.4-92.73l95.29-1.26s141.67-2.09,171.52,17,77.11,234.73,77.11,234.73l-47.46,13.25s-42.19-97.23-64.64-141.26c-9.23-18.1-15.9-31.4-16.47-32.85C433.72,672.47,419.12,673.12,382.34,675Z"/><path class="cls-18" d="M317.92,584.85l-3,0-95.29,1.26s-11.39,54.15,24.78,79.74c36-8.71,57.44-45.23,76.34-78Z"/><polygon class="cls-13" points="434.94 828.05 434.94 849.78 400.94 849.78 400.94 828.89 434.94 828.05"/><path class="cls-18" d="M434.94,675.71c-1.22-3.24-15.82-2.59-52.6-.69l9.23,167.51,9.37-.22,34-.84,8.58-.19,7.89-132.72C442.18,690.46,435.51,677.16,434.94,675.71Z"/><path class="cls-15" d="M492.59,871.14v11.65H391.28V871.25s90-1,99.61-.17Z"/><path class="cls-16" d="M490.89,871.08c-9.63-.83-99.61.17-99.61.17L399,845.83a1.94,1.94,0,0,1,2.58-1.21c22.24,8.62,32,0,34.9-3.48a1.89,1.89,0,0,1,2.47-.41C439.92,841.3,487.53,869.76,490.89,871.08Z"/><path class="cls-13" d="M490.21,558.2H434s-84.81-13.68-101.31-23.82c-6.14-3.77-16.66-15.32-27.52-28.36l38.31-31.9c6.7,10.63,12.8,19.29,15.24,20.24,6.67,2.52,69.87,37.77,77.18,37.77S478.13,531.52,490.21,558.2Z"/><path class="cls-19" d="M346.06,473.32,305.16,506c-18.52-22.22-37.92-48.82-37.92-48.82l58-35S340.12,457.6,346.06,473.32Z"/><path class="cls-14" d="M346.06,473.32,305.16,506c-18.52-22.22-37.92-48.82-37.92-48.82l58-35S340.12,457.6,346.06,473.32Z"/><path class="cls-19" d="M311.07,393l-41.93-16.5s-50,5.81-53.44,126.28c-.67,23.25-.44,151.78,6.64,155.08,28.26,13.15,101-73,101-73,1.44-2.68-.61-30.47,0-33.21a30.88,30.88,0,0,1-4.34-2c-7.44-4.39-21.31-22.8-34.95-42.69l43.14-33.62c1.72,2.71,3.43,5.34,5.07,7.89C333.4,417,311.07,393,311.07,393Z"/><path class="cls-14" d="M323.34,551.61a30.88,30.88,0,0,1-4.34-2c-7.44-4.39-21.31-22.8-34.95-42.69l21.17-16.5L284.05,459l-38.16-25v17.19s16.33,44.45,35.78,79.31c10.56,18.93,28,28.22,41.81,32.76C323.27,557.6,323.1,552.68,323.34,551.61Z"/><path class="cls-13" d="M446.37,544.87s-88.61-36.21-94.64-37.52c-1.91-.41-8.42-9.41-16.45-21.55-1.68-2.62-6.39-9.8-8.09-12.48l-43.14,33.62c13.64,19.89,27.52,38.3,34.95,42.69a30.88,30.88,0,0,0,4.34,2l.06-.26c0,.08,0,.16,0,.25,25.76,9.64,118.48,14.09,120.28,14.7,3.33,2.57,11.15,2.74,18.2.8a26.53,26.53,0,0,0,8.74-4c6.2-4.65,15.46,1.91,19.64,5.06,2.72,2,9,2,11.13-.11C496.57,541.34,446.37,544.87,446.37,544.87Z"/><polygon class="cls-13" points="320.63 373.64 319.38 376.18 316.68 381.63 316.2 382.63 311.07 393.01 269.14 376.51 286.7 348.65 314.5 369.12 320.63 373.64"/><path class="cls-19" d="M245.89,451.28l43.7,67.16,50-28.7s-13.6-52.33-26.81-81.13c-8.2-17.89-31.82-26.76-54.67-12.53C238,408.61,238.56,437.89,245.89,451.28Z"/><path class="cls-20" d="M328.31,330.43c-1.6-7.28-8.27-14-14.28-4.24a19,19,0,0,0-2.29,8.13c-1.07,10.15-12.89,14.62-21.73,15.29a16.82,16.82,0,0,1-4.25-.15S288,332.74,293,312.6s16.19-40.68,32.4-32.44c0,0,14.93-7,24,4.59,0,0,15.41-5.52,23.39,6.87,0,0,21.64,4.09,25.69,17.53,5.14,17.09-18.78,21.24-26.76,16.41s-14-14-19.52-13.85-4.26,8.62-5.09,13.85-8.93-.15-12.37,6.86-5.15,10.95-7.21,9.71S328.31,330.43,328.31,330.43Z"/><path class="cls-14" d="M319.38,376.18l-2.7,5.45a19.91,19.91,0,0,1-8.46-15.83S310.77,371.23,319.38,376.18Z"/><path class="cls-21" d="M160.94,473.44c0,.34,0,.47,0,.59,0,.4,0,.51.08.73.1.76.29,2.1.6,4.14,2.28,15.21,10.42,67.32,18,115.69s14.59,92.92,14.59,92.92l15.06-2.37-1.43-9.06c-3.18-20.21-11.12-70.74-18.26-116.43-3.58-22.85-6.95-44.48-9.43-60.5-1.24-8-2.26-14.62-3-19.27-.36-2.32-.63-4.16-.81-5.42-.1-.63-.17-1.11-.21-1.42l0-.3h0l-4.5.49,4.51-.38v-.11l-4.5.49,4.51-.38-7,.59h7.08c0-.41,0-.49,0-.59l-7,.59h-8.17Z"/><path class="cls-18" d="M298.35,708.09h13a2.71,2.71,0,0,1,2.71,2.71V888.49a0,0,0,0,1,0,0H295.64a0,0,0,0,1,0,0V710.8A2.71,2.71,0,0,1,298.35,708.09Z" transform="translate(609.74 1596.58) rotate(180)"/><path class="cls-18" d="M298.35,844.18h13a2.71,2.71,0,0,1,2.71,2.71v41.59a0,0,0,0,1,0,0H295.64a0,0,0,0,1,0,0V846.89A2.71,2.71,0,0,1,298.35,844.18Z" transform="translate(609.74 1732.67) rotate(180)"/><path class="cls-21" d="M264.67,710.63h80.4a10.57,10.57,0,0,1,10.57,10.57V726a0,0,0,0,1,0,0H254.1a0,0,0,0,1,0,0v-4.84A10.57,10.57,0,0,1,264.67,710.63Z" transform="translate(609.74 1436.66) rotate(180)"/><rect class="cls-20" x="192.38" y="675.13" width="224.98" height="35.97" rx="12.33" transform="translate(609.74 1386.23) rotate(180)"/><path class="cls-18" d="M209.06,877.68a10.81,10.81,0,1,0,10.81-10.8A10.81,10.81,0,0,0,209.06,877.68Z"/><circle class="cls-18" cx="389.87" cy="877.68" r="10.81"/><rect class="cls-21" x="286.3" y="830.43" width="37.14" height="32.46" transform="translate(609.74 1693.31) rotate(180)"/><path class="cls-20" d="M209.06,855.25H400.68a0,0,0,0,1,0,0v5.69a9.59,9.59,0,0,1-9.59,9.59H218.65a9.59,9.59,0,0,1-9.59-9.59v-5.69A0,0,0,0,1,209.06,855.25Z" transform="translate(609.74 1725.77) rotate(180)"/><path class="cls-20" d="M156.4,486l8.13,60.3a15.71,15.71,0,0,0,31.13-4.2l-8.13-60.3A15.71,15.71,0,1,0,156.4,486"/><rect class="cls-22" x="692.44" y="590.88" width="16.52" height="295.55"/><rect class="cls-23" x="443.63" y="590.88" width="16.52" height="295.55"/><rect class="cls-20" x="431.24" y="572.46" width="294.27" height="20.64"/><path class="cls-24" d="M925.9,194.53a46.53,46.53,0,0,0-20.13,4.59,74.49,74.49,0,0,0-101.36-64.8,84.47,84.47,0,0,0-163,28h-.08a63,63,0,0,0,0,126H925.9a46.85,46.85,0,1,0,0-93.69ZM767.15,241.37h-4.46c1.16-.56,2.31-1.15,3.44-1.76C766.46,240.2,766.81,240.79,767.15,241.37Z"/><line class="cls-25" x1="760.64" y1="315.39" x2="760.64" y2="321.8"/><path class="cls-26" d="M760.64,335.21V459.29A46.73,46.73,0,0,1,713.91,506h-64"/><line class="cls-25" x1="643.2" y1="506.02" x2="636.79" y2="506.02"/></g></g></svg>