<svg xmlns="http://www.w3.org/2000/svg" xmlns:xlink="http://www.w3.org/1999/xlink" viewBox="0 0 923.88 655.35"><defs><style>.cls-1{isolation:isolate;}.cls-2{fill:url(#linear-gradient);}.cls-3{fill:#c0d6ff;}.cls-4{fill:#f2f2f3;}.cls-5{fill:#97c3f2;}.cls-6{fill:#32a3d1;}.cls-7{fill:#005b9f;}.cls-8{fill:#789eea;}.cls-9{fill:#ffe7cb;}.cls-10{fill:url(#Degradado_sin_nombre_8);}.cls-11{opacity:0.25;mix-blend-mode:overlay;}.cls-12{fill:#fba47a;}.cls-13{fill:#ffa97d;}.cls-14{fill:#288ed9;}.cls-15{fill:#e79064;}.cls-16{fill:#17448b;}.cls-17{fill:#0e71bb;}.cls-18{fill:url(#linear-gradient-2);}.cls-19{fill:url(#linear-gradient-3);}.cls-20{fill:url(#linear-gradient-4);}.cls-21{fill:url(#linear-gradient-5);}.cls-22{fill:#f59b6b;}.cls-23{fill:url(#linear-gradient-6);}.cls-24{fill:none;stroke:#17448b;stroke-miterlimit:10;stroke-width:1.14px;stroke-dasharray:18.9;opacity:0.5;}.cls-25{fill:#3b89d2;}.cls-26{fill:#dde8fe;}.cls-27{fill:#b3baf4;}.cls-28{opacity:0.6;}</style><linearGradient id="linear-gradient" x1="1258.63" y1="-8312.51" x2="1147.38" y2="-8943.42" gradientTransform="matrix(-0.89, 0.07, -0.07, -0.88, 916.27, -7366.39)" gradientUnits="userSpaceOnUse"><stop offset="0" stop-color="#c6e6ff"/><stop offset="1" stop-color="#fff"/></linearGradient><linearGradient id="Degradado_sin_nombre_8" x1="451.2" y1="386.01" x2="414.44" y2="439.43" gradientUnits="userSpaceOnUse"><stop offset="0" stop-color="#2d3246"/><stop offset="1" stop-color="#2c3144" stop-opacity="0"/></linearGradient><linearGradient id="linear-gradient-2" x1="168.41" y1="433.03" x2="203.79" y2="433.03" gradientUnits="userSpaceOnUse"><stop offset="0" stop-color="#44989f"/><stop offset="0.21" stop-color="#39b0b4"/><stop offset="0.52" stop-color="#2ccbcd"/><stop offset="0.8" stop-color="#24dcdd"/><stop offset="1" stop-color="#21e2e2"/></linearGradient><linearGradient id="linear-gradient-3" x1="127.51" y1="420.34" x2="182.48" y2="420.34" xlink:href="#linear-gradient-2"/><linearGradient id="linear-gradient-4" x1="178.8" y1="447.25" x2="255.75" y2="447.25" xlink:href="#linear-gradient-2"/><linearGradient id="linear-gradient-5" x1="137.14" y1="512.5" x2="226.97" y2="512.5" gradientUnits="userSpaceOnUse"><stop offset="0" stop-color="#ffbc98"/><stop offset="1" stop-color="#ff9f6c"/></linearGradient><linearGradient id="linear-gradient-6" x1="128.98" y1="485.09" x2="232.4" y2="485.09" xlink:href="#linear-gradient-5"/></defs><g class="cls-1"><g id="Layer_1" data-name="Layer 1"><path class="cls-2" d="M273,525C219.65,350.75,154.86,383.45,105.36,309c-.89-1.32-1.75-2.65-2.59-4-50-78.55,3.22-181.82,96.66-189.67L650.55,77.4a126.73,126.73,0,0,1,58.6,9c55.87,22.86,160,84.68,123.54,219.39-15.47,57.14-83.9,75.88-171.9,272.63"/><path class="cls-3" d="M244.79,471.83h-11.6a1.18,1.18,0,0,1-1.19-1.18h0a1.19,1.19,0,0,1,1.19-1.19h11.6a1.18,1.18,0,0,1,1.18,1.19h0A1.18,1.18,0,0,1,244.79,471.83Z"/><path class="cls-3" d="M240.17,464.84v11.61a1.18,1.18,0,0,1-1.18,1.18h0a1.18,1.18,0,0,1-1.19-1.18V464.84a1.18,1.18,0,0,1,1.19-1.18h0A1.18,1.18,0,0,1,240.17,464.84Z"/><path class="cls-3" d="M273.2,512.11A1.19,1.19,0,0,1,272,513.3H241.37a1.19,1.19,0,1,1,0-2.37H272A1.18,1.18,0,0,1,273.2,512.11Z"/><path class="cls-3" d="M282,519.81h-18.9a1.19,1.19,0,0,1-1.19-1.19h0a1.18,1.18,0,0,1,1.19-1.18H282a1.19,1.19,0,0,1,1.19,1.18h0A1.19,1.19,0,0,1,282,519.81Z"/><rect class="cls-4" x="128.48" y="226.05" width="84.9" height="59.98"/><rect class="cls-5" x="128.48" y="226.05" width="84.9" height="6.25"/><rect class="cls-5" x="135.82" y="257.42" width="25.77" height="1.09"/><rect class="cls-5" x="135.82" y="259.52" width="23.35" height="1.09"/><rect class="cls-5" x="135.82" y="261.62" width="14.78" height="1.09"/><rect class="cls-5" x="135.82" y="263.72" width="24.15" height="1.09"/><rect class="cls-5" x="135.82" y="265.83" width="25.77" height="1.09"/><rect class="cls-5" x="169.95" y="238.31" width="31.87" height="1.09"/><rect class="cls-5" x="169.95" y="240.41" width="36.08" height="1.09"/><rect class="cls-5" x="169.95" y="242.51" width="34.99" height="1.09"/><rect class="cls-5" x="169.95" y="244.61" width="33.81" height="1.09"/><rect class="cls-5" x="169.95" y="246.72" width="36.08" height="1.09"/><rect class="cls-5" x="135.82" y="270.03" width="18.61" height="1.17"/><rect class="cls-5" x="135.82" y="272.13" width="25.77" height="1.09"/><rect class="cls-5" x="135.82" y="274.24" width="14.51" height="1.09"/><rect class="cls-5" x="135.82" y="276.34" width="25.77" height="1.09"/><rect class="cls-5" x="135.82" y="278.44" width="22.77" height="1.09"/><rect class="cls-5" x="169.95" y="251.11" width="36.08" height="1.17"/><rect class="cls-5" x="169.95" y="253.21" width="28.04" height="1.17"/><rect class="cls-5" x="169.95" y="255.31" width="32.12" height="1.09"/><rect class="cls-5" x="169.95" y="257.42" width="23.84" height="1.09"/><rect class="cls-5" x="169.95" y="259.52" width="31.88" height="1.09"/><rect class="cls-5" x="169.95" y="259.36" width="36.08" height="1.17"/><rect class="cls-5" x="169.95" y="261.46" width="28.04" height="1.17"/><rect class="cls-5" x="169.95" y="263.56" width="32.12" height="1.09"/><rect class="cls-5" x="169.95" y="265.66" width="23.84" height="1.09"/><rect class="cls-5" x="169.95" y="267.77" width="31.88" height="1.09"/><rect class="cls-5" x="169.95" y="267.6" width="36.08" height="1.17"/><rect class="cls-5" x="169.95" y="269.7" width="28.04" height="1.17"/><rect class="cls-5" x="169.95" y="271.81" width="32.12" height="1.09"/><rect class="cls-5" x="169.95" y="273.91" width="23.84" height="1.09"/><rect class="cls-5" x="169.95" y="276.01" width="31.88" height="1.09"/><rect class="cls-5" x="134.9" y="238.37" width="28.04" height="1.17"/><rect class="cls-5" x="134.9" y="240.47" width="32.12" height="1.09"/><rect class="cls-5" x="134.9" y="242.57" width="23.84" height="1.09"/><rect class="cls-5" x="134.9" y="244.67" width="31.88" height="1.09"/><path class="cls-6" d="M563.64,342.54c12.8-16.5,107.53-11.31,128.75,10.6s-33,113-32.17,191.63c.13,12.9-109.88,10.71-120.29-1.32C523.55,524.51,521.13,397.36,563.64,342.54Z"/><path class="cls-7" d="M416.42,523.14c.36,11-70.3,14.4-75.21,6s7.16-19.95,16.83-23.71C374.08,499.19,415.93,508.17,416.42,523.14Z"/><path class="cls-3" d="M385.43,496.89c-4.13-1.1-15.05-2.58-17.51-2.18-4.6.75-13.51,6.86-11.82,9.55s10-1.79,12.71-1.63S384.33,505,384.33,505Z"/><path class="cls-3" d="M479.92,478.47c5.6-1.37,21.28-41,32.69-55.26s33.42-8.55,34,8.2c.95,29.13-32.59,75.32-39.16,79.41C498,516.7,424.65,527,417.91,526S398.49,508,406,502.34,471.36,480.55,479.92,478.47Z"/><path class="cls-3" d="M414.89,499.16c-5.88,1.73-27.27-4.93-32.72-3.68s-18.64,7.43-19.06,10.79,16.82-1.48,19.64-1.31,19,7.82,19.82,12.35-12.66,10.05-14.8,14.41,3.9,4.42,7.74,3.09,13.31-6.46,15.85-6.54,12.11-2,12.11-2Z"/><path class="cls-8" d="M385.43,496.89c-4.13-1.1-15.05-2.58-17.51-2.18-4.6.75-13.51,6.86-11.82,9.55s10-1.79,12.71-1.63S384.33,505,384.33,505Z"/><path class="cls-9" d="M479.92,478.47c5.6-1.37,21.28-41,32.69-55.26s33.42-8.55,34,8.2c.95,29.13-32.59,75.32-39.16,79.41C498,516.7,424.65,527,417.91,526S398.49,508,406,502.34,471.36,480.55,479.92,478.47Z"/><path class="cls-8" d="M414.89,499.16c-5.88,1.73-27.27-4.93-32.72-3.68s-18.64,7.43-19.06,10.79,16.82-1.48,19.64-1.31,19,7.82,19.82,12.35-12.66,10.05-14.8,14.41,3.9,4.42,7.74,3.09,13.31-6.46,15.85-6.54,12.11-2,12.11-2Z"/><path class="cls-10" d="M385.43,496.89c-4.13-1.1-15.05-2.58-17.51-2.18-4.6.75-13.51,6.86-11.82,9.55s10-1.79,12.71-1.63S384.33,505,384.33,505Z"/><path class="cls-9" d="M414.89,499.16c-5.88,1.73-27.27-4.93-32.72-3.68s-18.64,7.43-19.06,10.79,16.82-1.48,19.64-1.31,19,7.82,19.82,12.35-12.66,10.05-14.8,14.41,3.9,4.42,7.74,3.09,13.31-6.46,15.85-6.54,12.11-2,12.11-2Z"/><path class="cls-11" d="M512.61,423.21c-11.41,14.26-27.09,53.89-32.69,55.26-7.37,1.79-51.22,14-68.08,21-8.17-.16-24.93-5.05-29.67-4-5.45,1.24-18.64,7.43-19.06,10.79s16.82-1.48,19.64-1.31,19,7.82,19.82,12.35-12.66,10.05-14.8,14.41,3.9,4.42,7.74,3.09,13.31-6.46,15.85-6.54,12.11-2,12.11-2l-.13-.43c18.71-1.35,75.81-9.89,84.08-15,6.57-4.09,40.11-50.28,39.16-79.41C546,414.66,524,409,512.61,423.21Z"/><path class="cls-12" d="M538.82,376.3c-14,5.7-26.21,23.26-32.87,36S492,443.82,492.9,445.81s19.6,19,50.87,19.13c5.45,0,17.8-41.6,19.17-55.72S563.07,366.43,538.82,376.3Z"/><path class="cls-13" d="M538.82,376.3c-14,5.7-26.21,23.26-32.87,36S492,443.82,492.9,445.81s19.6,19,50.87,19.13c5.45,0,17.8-41.6,19.17-55.72S563.07,366.43,538.82,376.3Z"/><path class="cls-14" d="M488.19,446.77c13.93,16.44,38.31,22.57,58.88,21.57,4.5-.22,4.29-7.23-.22-7-18.93.93-41.05-4.55-53.87-19.67-2.91-3.44-7.68,1.71-4.79,5.11Z"/><path class="cls-13" d="M579.82,362.37c-10.79,0-42.28,13.36-51.79,36.23S506.15,539,505.15,542,554,555.2,586.09,555.2s66.76-7.44,69.42-11.11S640.44,430.47,639.83,421.6,631.22,362.37,579.82,362.37Z"/><path class="cls-14" d="M565.91,363.46c-.49-1.81-3.68-2.83-6,0s-15.37,26-5.18,32,29-2.26,39.84-16.89c8.53-11.48,8.85-15.45,9.08-18s-5.24-3.5-6.9-.31C595.53,362.71,565.91,363.46,565.91,363.46Z"/><path class="cls-15" d="M565.91,363.46c-.49-1.81-3.68-2.83-6,0s-15.37,26-5.18,32,29-2.26,39.84-16.89c8.53-11.48,8.85-15.45,9.08-18s-5.24-3.5-6.9-.31C595.53,362.71,565.91,363.46,565.91,363.46Z"/><path class="cls-11" d="M521.8,422.74c-3.49,12.31-5.6,25.14-7.62,37.76-1.92,12-4.16,24.33-4.33,36.45,0,.8,1.29,1,1.44.19,2.19-12.26,3.08-24.79,5.08-37.1s4.87-24.53,7.07-36.85A.85.85,0,0,0,521.8,422.74Z"/><path class="cls-11" d="M523.65,417.12a.8.8,0,0,0-.89.9,1,1,0,1,0,.89-.9Z"/><path class="cls-9" d="M562.84,488.33c6.75-1.41,25.74-60,39.93-76.55s40.29-8.92,40.29,11.12c0,34.86-40.6,100.55-48.62,105.18-11.53,6.65-100.86,4.36-108.88,2.82s-22.51-22.21-13.26-28.69S552.52,490.49,562.84,488.33Z"/><path class="cls-13" d="M602.8,366c8.5,2.38,40,15.91,47.46,34.68s-7.1,68.25-9.22,69.59-38.32.42-62.07-18.93C573.91,447.18,602.8,366,602.8,366Z"/><path class="cls-11" d="M582.4,426.08a142.41,142.41,0,0,0-5,24.7c-.08.81,1.28,1,1.44.19,1.57-8.2,3-16.38,4.85-24.52A.69.69,0,0,0,582.4,426.08Z"/><path class="cls-11" d="M584.65,422.5a1,1,0,0,0-1.56.2l-.11.17a1,1,0,0,0,1.3,1.29l.17-.1A1,1,0,0,0,584.65,422.5Z"/><path class="cls-14" d="M574,451.31c16.25,18.05,43.89,24.3,67.07,22.43,4.46-.36,4.5-7.37,0-7-21.46,1.74-47-3.61-62.12-20.37-3-3.36-8,1.61-4.95,4.95Z"/><path class="cls-15" d="M516.87,457.24c-9.21-3.16-17.65-8.22-23.89-15.58-2.91-3.44-7.68,1.71-4.79,5.11,7.35,8.67,16.49,14.1,27.56,17.5Z"/><path class="cls-15" d="M574,451.31c16.25,18.05,43.89,24.3,67.07,22.43,4.46-.36,4.5-7.37,0-7-21.46,1.74-47-3.61-62.12-20.37-3-3.36-8,1.61-4.95,4.95Z"/><path class="cls-9" d="M596.46,330.79c-.05.95-.06,1.79,0,2.51,0,.09,0,.18,0,.25.51,8.63,1,26.05,0,28.64-7.25,18.13-28.77,31.1-35.84,27.65s3.75-18.51,5-23a14.46,14.46,0,0,0,.35-2.11c.56-5.39-.35-14.8-.35-14.8s-16.05,9.14-29.86,0c-8.24-5.46-10.2-26.71-8.87-45.19.09-1.11.17-2.21.28-3.28.31-3.33.73-6.52,1.25-9.47,1.19-6.91,2.85-12.49,4.75-15.21C548,255.57,591.6,270,597,283.69c2.78,7.12,2.5,17.54,1.59,27.21C597.84,318.71,596.7,326,596.46,330.79Z"/><path class="cls-16" d="M589.38,318c-2.2,5.3-7.1.37-8.3-14.06-.12-1.44-13.65,2.24-17.6-14,0,0-13.05,10.18-21.55-5.38,0,0-7.28,9.08-16.26,7.3-11.6-2.3-14.06-24.64-2.19-34.64,12.54-10.56,24.8,1.31,24.8,1.31s11.18-6.92,24.1-2.91c13.52,4.19,16.49,18,16.49,18a29.78,29.78,0,0,1,18.06,11.17c7.3,9.69-7.07,46-10.3,46.08S589.38,318,589.38,318Z"/><path class="cls-9" d="M588.87,319c1.31-2.92,4.23-8.55,11.17-8.15s10.36,7.75,9,14-9,12.37-18.51,5.84Z"/><polygon class="cls-7" points="514.89 538.3 388.55 538.3 388.55 529.36 514.89 533 514.89 538.3"/><path class="cls-17" d="M445.53,490.18H284.37a16,16,0,0,1-15.75-13.36l-19-114.08a16,16,0,0,1,15.76-18.59H426.59a16,16,0,0,1,15.75,13.36l19,114.08A16,16,0,0,1,445.53,490.18Z"/><path class="cls-6" d="M435.07,490.18H273.9a16,16,0,0,1-15.75-13.36L239.21,362.74A16,16,0,0,1,255,344.15H416.12a16,16,0,0,1,15.75,13.36l18.95,114.08A16,16,0,0,1,435.07,490.18Z"/><rect class="cls-7" x="279.03" y="532.63" width="133.05" height="5.67"/><polygon class="cls-17" points="370.11 532.63 305.23 532.63 317.36 439.63 382.23 439.63 370.11 532.63"/><polygon class="cls-6" points="361.45 532.63 296.57 532.63 308.7 439.63 373.57 439.63 361.45 532.63"/><path class="cls-7" d="M309.44,424.49h0a3,3,0,0,1-2.92-2.47l-4.13-24.58a3,3,0,0,1,2.92-3.45h0a3,3,0,0,1,2.92,2.47L312.36,421A3,3,0,0,1,309.44,424.49Z"/><path class="cls-7" d="M319.49,424.49h0a3,3,0,0,1-2.92-2.47l-4.13-24.58a3,3,0,0,1,2.92-3.45h0a3,3,0,0,1,2.92,2.47L322.4,421A3,3,0,0,1,319.49,424.49Z"/><path class="cls-7" d="M329.53,424.49h0a2.94,2.94,0,0,1-2.91-2.47l-4.13-24.58a3,3,0,0,1,2.92-3.45h0a3,3,0,0,1,2.91,2.47L332.45,421A3,3,0,0,1,329.53,424.49Z"/><path class="cls-7" d="M339.58,424.49h0a3,3,0,0,1-2.92-2.47l-4.12-24.58a3,3,0,0,1,2.91-3.45h0a3,3,0,0,1,2.92,2.47L342.5,421A3,3,0,0,1,339.58,424.49Z"/><path class="cls-7" d="M349.63,424.49h0a3,3,0,0,1-2.92-2.47l-4.13-24.58A3,3,0,0,1,345.5,394h0a3,3,0,0,1,2.92,2.47L352.55,421A3,3,0,0,1,349.63,424.49Z"/><path class="cls-7" d="M359.68,424.49h0a3,3,0,0,1-2.92-2.47l-4.13-24.58a3,3,0,0,1,2.92-3.45h0a3,3,0,0,1,2.92,2.47L362.6,421A3,3,0,0,1,359.68,424.49Z"/><path class="cls-7" d="M369.73,424.49h0a3,3,0,0,1-2.92-2.47l-4.13-24.58A3,3,0,0,1,365.6,394h0a3,3,0,0,1,2.92,2.47L372.65,421A3,3,0,0,1,369.73,424.49Z"/><path class="cls-7" d="M379.78,424.49h0a3,3,0,0,1-2.92-2.47l-4.13-24.58a3,3,0,0,1,2.92-3.45h0a3,3,0,0,1,2.92,2.47L382.7,421A3,3,0,0,1,379.78,424.49Z"/><path class="cls-18" d="M182.31,479.83c-3.1-.29-6.59-2-10.09-4a196.23,196.23,0,0,1-3.29-26.11A164.7,164.7,0,0,1,185.19,453c-3-.79-9.71-4.94-16.53-8.37-.16-3.77-.25-7.63-.25-11.57a224,224,0,0,1,3.64-41.94,77,77,0,0,1,13.48,5c-2.93-1.43-7.47-6.47-12.21-10.78,3.22-13.12,7.75-21.3,12.78-21.3,8.08,0,14.89,21.17,17,50.07-5.42,5-10.6,11.53-13.09,14.16,1.83-1.93,7.6-3.5,13.59-5.29.12,3.29.19,6.66.19,10.09a243.79,243.79,0,0,1-1.91,31.16c-6,3.77-11.69,8.34-14.8,9.22,4.64-1.32,9.31-2.54,14-3.69-3.13,19.42-8.67,32.34-15,32.34-5.25,0-10-8.93-13.2-23.09Z"/><path class="cls-19" d="M165.92,475c-3.08.45-7-.67-11-2.07a277.18,277.18,0,0,1-11.32-29.14,141.08,141.08,0,0,1,16.74-.34c-3.17-.15-10.93-3.23-18.6-5.47q-2-6.42-3.85-13.21a314.9,314.9,0,0,1-9.55-49.06,71.25,71.25,0,0,1,14.59,2.35c-3.29-.91-9.24-5.55-15.17-9.31-1-15.87.85-26.39,5.71-27.65,7.81-2,21,20.56,32.05,53.21-3.68,7.1-6.65,15.88-8.25,19.54,1.17-2.68,6.27-5.93,11.49-9.49,1.14,3.75,2.26,7.6,3.33,11.54A343.33,343.33,0,0,1,180,452.14c-4.59,5.83-8.7,12.5-11.43,14.3,4.08-2.68,8.21-5.25,12.38-7.75,3,23.08,1.71,39.3-4.39,40.89-5.08,1.31-12.42-7.76-20-23.21Z"/><path class="cls-20" d="M190,480.79c-2.45-1.88-4.46-5.08-6.36-8.48a166,166,0,0,1,10.69-21.63c4.1,3.58,8.11,7.26,11.89,11.24-2.11-2.22-5.56-9-9.48-15.27,1.8-2.95,3.71-5.94,5.74-8.93a191.91,191.91,0,0,1,24.62-29.94,80,80,0,0,1,8.68,11.07c-1.71-2.67-2.91-9-4.64-14.78,9.44-8.24,17.43-12,21.62-9.31,6.74,4.35,1.53,24.12-11.58,47.24-7.1.88-14.78,3.05-18.22,3.71,2.53-.48,8.15,1.44,14.06,3.3q-2.38,3.86-5,7.78a208,208,0,0,1-17.63,22.66c-6.92-.35-14,0-17.09-1,4.56,1.49,9.08,3.08,13.58,4.73-12.61,13.09-23.87,19.93-29.14,16.52-4.38-2.83-3.71-12.16.87-24.68Z"/><polygon class="cls-21" points="226.97 489.09 225.16 497.92 217.46 535.91 146.65 535.91 138.95 497.92 137.14 489.09 226.97 489.09"/><polygon class="cls-22" points="226.97 485.43 226.97 489.09 225.16 497.92 138.95 497.92 137.14 489.09 137.14 485.43 226.97 485.43"/><rect class="cls-23" x="128.98" y="477.5" width="103.42" height="15.17"/><path class="cls-24" d="M458.82,157.79c-31.93-14.59-65.21-9.18-78.47,9-17.55,24.08,2.09,67.57,27.79,84.7,20.1,13.39,38,6.73,45.47,20.68,8.64,16.22-4.21,46.53-18.85,47.84-11.05,1-24.6-14.41-21.8-22,3.51-9.53,34.64-11.22,54.82-2.71,44.73,18.88,80.45,106.75,40.73,168.6-40.9,63.67-138.34,63.28-177.79,28.88-29.59-25.81-11.66-57.8-48.4-107.6C260.71,356,213.54,311.5,177.59,326.1c-23.73,9.63-40.61,44.18-31.76,74,10.68,35.93,54.44,50.34,84.37,42.68,35.78-9.16,49.56-49.28,58.71-75.94,19-55.5,6-107.62,3.14-118.19-8.68-32.27-15.65-59.07-23.46-76.67"/><rect class="cls-25" x="137.72" y="538.3" width="569.93" height="16.9"/><path class="cls-11" d="M551.74,498.86a5.21,5.21,0,1,1,5.21,5.2A5.21,5.21,0,0,1,551.74,498.86Z"/><path class="cls-11" d="M680.53,525.06a5.2,5.2,0,1,1-5.2-5.2A5.2,5.2,0,0,1,680.53,525.06Z"/><path class="cls-7" d="M333.36,543.44H231.93a7.15,7.15,0,0,1-7-7.28v-4.32a7.15,7.15,0,0,1,7-7.28H333.36a14.38,14.38,0,0,0-.19,18.66Z"/><path class="cls-26" d="M331.79,526.72H275.53a7.15,7.15,0,0,0-7,7.28h0a7.15,7.15,0,0,0,7,7.28H331.8A14.44,14.44,0,0,1,331.79,526.72Z"/><path class="cls-6" d="M303.9,511.35H219.41a4.75,4.75,0,0,0-4.75,4.75v4a4.75,4.75,0,0,0,4.75,4.75H303.9l0,0A9.67,9.67,0,0,1,303.9,511.35Z"/><path class="cls-26" d="M302.41,513.34H257.24a4.76,4.76,0,0,0-4.75,4.76h0a4.75,4.75,0,0,0,4.75,4.75h45.17A9.7,9.7,0,0,1,302.41,513.34Z"/><path class="cls-27" d="M214.66,510.93H316.09a7.15,7.15,0,0,0,7-7.28v-4.33a7.14,7.14,0,0,0-7-7.27H214.66a14.38,14.38,0,0,1,.19,18.66Z"/><path class="cls-26" d="M216.23,494.21h56.26a7.15,7.15,0,0,1,7,7.28h0a7.15,7.15,0,0,1-7,7.27H216.22A14.43,14.43,0,0,0,216.23,494.21Z"/><path class="cls-7" d="M244.12,478.83h84.49a4.75,4.75,0,0,1,4.75,4.75v4a4.75,4.75,0,0,1-4.75,4.75H244.12l0-.05A9.67,9.67,0,0,0,244.12,478.83Z"/><path class="cls-26" d="M245.61,480.83h45.17a4.75,4.75,0,0,1,4.75,4.75h0a4.75,4.75,0,0,1-4.75,4.75H245.61A9.68,9.68,0,0,0,245.61,480.83Z"/><path class="cls-9" d="M482.08,500c-15.21-.63-27.51-1.64-36.23,0S413.18,511.89,412,514.78s6.59,1.43,6.59,1.43-7.61,4.67-6.51,7.54,17.86-2.58,17.86-2.58-10.26,6.16-8.48,9.37,12.7-.92,12.7-.92-4.1,2.75-2.19,5.09,21.3-6.19,28.17-5.71,12.36,4.46,23.1,2.53Z"/><circle class="cls-4" cx="498.79" cy="161.59" r="24.41"/><circle class="cls-4" cx="631.83" cy="129.73" r="13.41"/><circle class="cls-4" cx="585.69" cy="214.21" r="17.72"/><path class="cls-5" d="M488,174.73a15.16,15.16,0,0,1-5.46-11h0c-.38-8.7,6.88-16.11,16.19-16.52a17.36,17.36,0,0,1,12.11,4.07,15.19,15.19,0,0,1,5.47,11c.38,8.7-6.89,16.12-16.2,16.53h-.81A17.36,17.36,0,0,1,488,174.73Zm10.83-25.27c-8.08.36-14.39,6.73-14.07,14.2a13,13,0,0,0,4.69,9.37A15.17,15.17,0,0,0,500,176.57c8.09-.35,14.4-6.72,14.07-14.2a13,13,0,0,0-4.68-9.37,15.16,15.16,0,0,0-9.85-3.55Z"/><path class="cls-5" d="M496.12,155.36c.12-.64.27-1.27.44-1.89s.37-1.24.61-1.85a9.08,9.08,0,0,1,.9-1.72,3.21,3.21,0,0,1,.65-.73,1.91,1.91,0,0,1,.41-.26,1.13,1.13,0,0,1,.48-.11,1.1,1.1,0,0,1,.48.08,1.29,1.29,0,0,1,.42.26,2.85,2.85,0,0,1,.64.74,5.83,5.83,0,0,1,.46.85c.14.3.26.6.37.91q.31.92.54,1.86c.14.63.27,1.27.37,1.91a38.66,38.66,0,0,1,.45,3.86c.05.64.09,1.29.11,1.94s0,1.29,0,1.94c0,1.29-.06,2.59-.17,3.88a38.21,38.21,0,0,1-.49,3.85c-.12.64-.25,1.28-.41,1.9a17.4,17.4,0,0,1-.58,1.86,8.62,8.62,0,0,1-.86,1.75,3,3,0,0,1-.65.73,1.45,1.45,0,0,1-.43.26,1.33,1.33,0,0,1-.49.09,1.22,1.22,0,0,1-.49-.12,1.59,1.59,0,0,1-.41-.26,3.49,3.49,0,0,1-.64-.75,9.12,9.12,0,0,1-.85-1.75c-.22-.61-.41-1.24-.57-1.86s-.29-1.27-.41-1.91a44.47,44.47,0,0,1-.63-7.73A40.87,40.87,0,0,1,496.12,155.36Zm-.38,11.6c.1,1.28.25,2.57.46,3.84.11.63.24,1.26.4,1.89a18.77,18.77,0,0,0,.54,1.85,8.68,8.68,0,0,0,.83,1.74,3.24,3.24,0,0,0,.61.72,2,2,0,0,0,.39.26,1.36,1.36,0,0,0,.44.11,1.13,1.13,0,0,0,.45-.09,1.47,1.47,0,0,0,.4-.24,3,3,0,0,0,.62-.71,8.13,8.13,0,0,0,.84-1.73c.22-.61.4-1.23.56-1.85s.28-1.26.39-1.89a38.3,38.3,0,0,0,.46-3.84c.1-1.29.14-2.58.14-3.87s0-2.58-.11-3.87-.21-2.57-.4-3.85c-.1-.64-.22-1.27-.36-1.9a17.09,17.09,0,0,0-.52-1.86,7,7,0,0,0-.35-.9,6.2,6.2,0,0,0-.44-.85,3.12,3.12,0,0,0-.62-.73,1.5,1.5,0,0,0-.4-.25,1.18,1.18,0,0,0-.46-.09,1.16,1.16,0,0,0-.45.12,1.5,1.5,0,0,0-.4.25,3.58,3.58,0,0,0-.63.72,9,9,0,0,0-.87,1.72,17.06,17.06,0,0,0-.58,1.84q-.26.93-.42,1.89a37.87,37.87,0,0,0-.51,3.83q-.15,1.93-.15,3.87C495.6,164.38,495.64,165.67,495.74,167Z"/><path class="cls-5" d="M499.4,177.85a1.81,1.81,0,0,1-.63-.15,2.45,2.45,0,0,1-.51-.33,3.66,3.66,0,0,1-.7-.82,8.92,8.92,0,0,1-.89-1.83c-.21-.58-.4-1.2-.58-1.9s-.29-1.24-.42-1.93a45.85,45.85,0,0,1-.64-7.8h0a41.14,41.14,0,0,1,.72-7.8c.14-.69.28-1.32.45-1.92a16.72,16.72,0,0,1,.63-1.89,8.58,8.58,0,0,1,.93-1.8,3.82,3.82,0,0,1,.72-.8,2.33,2.33,0,0,1,.5-.32,1.69,1.69,0,0,1,.62-.14,1.53,1.53,0,0,1,.63.11,2.17,2.17,0,0,1,.52.31,3.55,3.55,0,0,1,.72.83,7.43,7.43,0,0,1,.49.9c.13.29.25.59.37.94a19.46,19.46,0,0,1,.55,1.91c.14.6.27,1.23.39,1.93.2,1.21.35,2.49.45,3.89,0,.64.08,1.3.11,1.95s0,1.27,0,2c0,1.33-.06,2.64-.16,3.91s-.28,2.67-.5,3.89c-.13.69-.26,1.32-.42,1.93a17.87,17.87,0,0,1-.59,1.9,8.56,8.56,0,0,1-.9,1.82,3.73,3.73,0,0,1-.73.82,1.88,1.88,0,0,1-.52.31,1.56,1.56,0,0,1-.59.12Zm.22-28.62a.75.75,0,0,0-.31.08,1.35,1.35,0,0,0-.31.2,3,3,0,0,0-.56.64,7.67,7.67,0,0,0-.82,1.65,17.4,17.4,0,0,0-.58,1.8c-.15.59-.29,1.19-.41,1.86a33.86,33.86,0,0,0-.5,3.79c-.11,1.25-.16,2.54-.15,3.84h0c0,1.3,0,2.6.14,3.84a37,37,0,0,0,.46,3.8c.11.67.24,1.28.38,1.87a18,18,0,0,0,.54,1.81,8.36,8.36,0,0,0,.78,1.66,3.05,3.05,0,0,0,.54.64,1.65,1.65,0,0,0,.3.21.92.92,0,0,0,.31.07.63.63,0,0,0,.29-.06,1.45,1.45,0,0,0,.31-.18,3.2,3.2,0,0,0,.54-.63,8.2,8.2,0,0,0,.8-1.65,18,18,0,0,0,.54-1.81c.15-.59.27-1.2.39-1.87a37.66,37.66,0,0,0,.46-3.8c.09-1.25.14-2.54.13-3.84s0-2.67-.1-3.85c-.09-1.37-.22-2.62-.41-3.81-.1-.67-.22-1.29-.35-1.88a18.71,18.71,0,0,0-.5-1.82,9.32,9.32,0,0,0-.34-.87,5.42,5.42,0,0,0-.42-.8,2.55,2.55,0,0,0-.54-.64,1,1,0,0,0-.3-.19.75.75,0,0,0-.29-.06Z"/><path class="cls-5" d="M489.57,158.15a16.09,16.09,0,0,1,2.07-4.54,12.62,12.62,0,0,1,1.57-1.93,10.79,10.79,0,0,1,1.94-1.56,9.35,9.35,0,0,1,2.25-1,8.24,8.24,0,0,1,2.46-.37,8.45,8.45,0,0,1,2.45.36,8.91,8.91,0,0,1,2.26,1,10.79,10.79,0,0,1,1.94,1.56,13.31,13.31,0,0,1,1.58,1.93,16,16,0,0,1,2.07,4.53,18.67,18.67,0,0,1,.5,2.45,18.39,18.39,0,0,1,0,5,18.81,18.81,0,0,1-.5,2.46,15.88,15.88,0,0,1-2.07,4.53,13.88,13.88,0,0,1-1.57,1.94,11.15,11.15,0,0,1-1.94,1.56,9.63,9.63,0,0,1-2.26,1,8.47,8.47,0,0,1-4.92,0,9.24,9.24,0,0,1-2.26-1,11.7,11.7,0,0,1-1.94-1.57,13.24,13.24,0,0,1-1.57-1.93,15.79,15.79,0,0,1-2.06-4.54,18.74,18.74,0,0,1-.67-4.94A19.1,19.1,0,0,1,489.57,158.15Zm.19,9.83a16.08,16.08,0,0,0,2,4.5,13,13,0,0,0,1.54,1.92,10.94,10.94,0,0,0,1.9,1.57,9.39,9.39,0,0,0,2.23,1,8.37,8.37,0,0,0,2.43.37,8.26,8.26,0,0,0,2.42-.37,9.07,9.07,0,0,0,2.23-1,10.52,10.52,0,0,0,1.9-1.56,13,13,0,0,0,1.54-1.93,16.06,16.06,0,0,0,2-4.5,19.54,19.54,0,0,0,.48-2.42,20.19,20.19,0,0,0,.16-2.46,18.86,18.86,0,0,0-.64-4.89,15.77,15.77,0,0,0-2-4.5,13,13,0,0,0-1.53-1.93,11.41,11.41,0,0,0-1.9-1.57,9.39,9.39,0,0,0-2.23-1,8.27,8.27,0,0,0-4.86,0,9.07,9.07,0,0,0-2.23,1,10.64,10.64,0,0,0-1.91,1.57,13,13,0,0,0-1.53,1.93,15.8,15.8,0,0,0-2,4.5,19,19,0,0,0,0,9.78Z"/><path class="cls-5" d="M497.29,177.46a9.53,9.53,0,0,1-2.35-1.07,11.73,11.73,0,0,1-2-1.62,13.26,13.26,0,0,1-1.62-2,16.28,16.28,0,0,1-2.11-4.65,19,19,0,0,1-.68-5h0a19.48,19.48,0,0,1,.68-5.05,16.34,16.34,0,0,1,2.11-4.64,14.38,14.38,0,0,1,1.62-2,11.7,11.7,0,0,1,2-1.62,9.6,9.6,0,0,1,2.35-1.08,8.87,8.87,0,0,1,2.56-.38,9,9,0,0,1,2.56.38,9.77,9.77,0,0,1,2.35,1.08,11.18,11.18,0,0,1,2,1.61,13.26,13.26,0,0,1,1.62,2,16.39,16.39,0,0,1,2.12,4.64,17.3,17.3,0,0,1,.51,2.5,19.14,19.14,0,0,1,0,5.09,17.44,17.44,0,0,1-.51,2.51,16.22,16.22,0,0,1-2.11,4.64,13.31,13.31,0,0,1-1.63,2,11.27,11.27,0,0,1-2,1.62,10,10,0,0,1-2.36,1.08,8.92,8.92,0,0,1-2.56.38A8.66,8.66,0,0,1,497.29,177.46Zm.25-27.93a8.28,8.28,0,0,0-2.14,1,10.69,10.69,0,0,0-1.84,1.51,13.15,13.15,0,0,0-1.49,1.87,15.67,15.67,0,0,0-1.95,4.4,18.39,18.39,0,0,0-.62,4.79,18,18,0,0,0,.63,4.79,15.21,15.21,0,0,0,1.95,4.39,13.15,13.15,0,0,0,1.49,1.87,10.55,10.55,0,0,0,1.83,1.51,9.19,9.19,0,0,0,2.14,1,8,8,0,0,0,2.32.35,7.89,7.89,0,0,0,2.31-.35,8.66,8.66,0,0,0,2.14-1,10.47,10.47,0,0,0,1.83-1.5,12.71,12.71,0,0,0,1.49-1.88,15.48,15.48,0,0,0,1.95-4.39,18.75,18.75,0,0,0,.47-2.37,18.55,18.55,0,0,0-.47-7.2,15.47,15.47,0,0,0-1.94-4.39,12.71,12.71,0,0,0-1.49-1.88,11,11,0,0,0-1.83-1.51,9,9,0,0,0-2.14-1,8.38,8.38,0,0,0-2.32-.36A8,8,0,0,0,497.54,149.53Z"/><path class="cls-5" d="M512.64,157.4l-3.29,0h-3.29l-6.58,0-6.58,0h-3.29l-3.29,0h0l3.29,0,3.29,0h13.16l3.29,0,3.29,0h0S512.65,157.4,512.64,157.4Z"/><polygon class="cls-5" points="499.48 157.86 509.35 157.83 512.8 157.8 513.03 157.57 513.03 157.4 513.02 157.03 512.64 157.02 506.06 156.98 499.48 156.97 489.61 157 485.94 157.03 485.94 157.79 486.32 157.8 492.9 157.84 499.48 157.86"/><path class="cls-5" d="M508.83,151.86l-2.34,0-2.34,0h-9.34l-2.34,0-2.33,0h0v0l2.34,0h2.34l4.67,0h4.67l2.34,0c.78,0,1.56,0,2.34,0h0Z"/><path class="cls-5" d="M499.48,152.33h4.68l3.11,0,1.56,0h.37l0-.77h-.39l-1.51,0-3.16,0h-4.68l-7.86,0-1.49,0h-.38l0,.76h.37l1.55,0,3.12,0Z"/><path class="cls-5" d="M513.79,162.93l-3.58,0H492.33l-3.58,0-3.57,0h0l3.57,0,3.58,0h14.3l3.58,0,3.58,0v0Z"/><polygon class="cls-5" points="499.48 163.39 510.21 163.36 514.16 163.33 514.18 162.57 513.79 162.55 506.63 162.51 499.48 162.5 488.75 162.53 485.02 162.56 484.79 162.79 484.81 163.32 485.18 163.33 492.33 163.38 499.48 163.39"/><path class="cls-5" d="M512.64,168.46l-3.29,0H492.9l-3.29,0-3.29,0h0v0l3.29,0,3.29,0h16.45l3.29,0h0Z"/><polygon class="cls-5" points="499.48 168.92 509.35 168.89 512.8 168.87 513.03 168.64 513.03 168.47 513.02 168.1 512.65 168.08 506.06 168.04 499.48 168.03 489.61 168.06 485.94 168.09 485.94 168.85 486.32 168.86 492.9 168.91 499.48 168.92"/><path class="cls-5" d="M489.67,174.06h18.68a.05.05,0,1,0,0-.1H489.67a0,0,0,1,0,0,.1Z"/><path class="cls-5" d="M489.67,174.44h18.68a.43.43,0,0,0,.43-.43.43.43,0,0,0-.43-.43H489.67a.43.43,0,0,0-.43.43A.43.43,0,0,0,489.67,174.44Z"/><path class="cls-4" d="M569.46,152.67l11.48,1a5.49,5.49,0,0,0,6-5.81L586,133.34a5.5,5.5,0,0,0-5.07-5.15l-11.48-.86a5.5,5.5,0,0,0-5.89,5.81l.88,14.39A5.49,5.49,0,0,0,569.46,152.67Z"/><path class="cls-4" d="M607,186.14l18.14,1.59a8.68,8.68,0,0,0,9.42-9.17l-1.4-23a8.66,8.66,0,0,0-8-8.12L607,146.1a8.67,8.67,0,0,0-9.31,9.18L599.07,178A8.68,8.68,0,0,0,607,186.14Z"/><path class="cls-4" d="M632.37,278.61l18.14,1.59a8.68,8.68,0,0,0,9.42-9.17l-1.4-23a8.67,8.67,0,0,0-8-8.12l-18.12-1.36a8.67,8.67,0,0,0-9.31,9.18l1.38,22.73A8.68,8.68,0,0,0,632.37,278.61Z"/><path class="cls-4" d="M677.35,188.11l15.86,1.39a7.59,7.59,0,0,0,8.23-8l-1.22-20.08a7.59,7.59,0,0,0-7-7.1l-15.84-1.19a7.59,7.59,0,0,0-8.14,8L670.44,181A7.6,7.6,0,0,0,677.35,188.11Z"/><path class="cls-4" d="M624.92,232.36l18.1,2a8.68,8.68,0,0,0,9.64-8.93l-.81-23a8.68,8.68,0,0,0-7.8-8.32L626,192.34a8.67,8.67,0,0,0-9.54,8.94l.81,22.76A8.68,8.68,0,0,0,624.92,232.36Z"/><path class="cls-5" d="M585.75,224.63l-5-.07a5.06,5.06,0,0,1-5.05-4.39,4.73,4.73,0,0,1,0-.84c0-3.36.08-6.73.12-10.09a5.06,5.06,0,0,1,4.38-5.09,4.52,4.52,0,0,1,.9,0l10.05.12a5.05,5.05,0,0,1,5.13,5.17q0,5.13-.13,10.24a5.05,5.05,0,0,1-5.25,5.05Zm9-10.13c0-1.7,0-3.4.06-5.1a3.62,3.62,0,0,0-3.61-3.73l-10.27-.12a3.6,3.6,0,0,0-3.7,3.64c0,3.4-.08,6.8-.13,10.2a3.66,3.66,0,0,0,3.62,3.73l10.26.13a3.16,3.16,0,0,0,.69-.06,3.63,3.63,0,0,0,3-3.58C594.67,217.9,594.68,216.2,594.7,214.5Z"/><path class="cls-5" d="M585.69,219.5a5.27,5.27,0,1,1,5.32-5.21A5.26,5.26,0,0,1,585.69,219.5Zm.1-9.14a3.87,3.87,0,1,0,3.83,3.91A3.87,3.87,0,0,0,585.79,210.36Z"/><path class="cls-5" d="M591.75,209.92a1.25,1.25,0,1,1,1.27-1.21A1.23,1.23,0,0,1,591.75,209.92Z"/><path class="cls-5" d="M583.59,138.67c-.58-1.72-3.26-1-4.7-1.43,1.17-2.08-.08-6.55-2.75-4.77.36,2.21-.92,4-2.17,5.61l-.84-.1h0l-.3,0h0c-1.27,0-2.83-.62-4-.19-.49,0-.88,7-1,7.36-.27,1.45,3.55.94,4.24,1.26.36.05.79.08.91-.35,1.91,0,6.3,1.18,8,.46C581.17,146.39,583.49,138.81,583.59,138.67Zm-15,6.54c.21-2.22.47-4.58.7-6.81,1.17.08,2.36.24,3.52.35,0,.35-.64,6.27-.7,6.83Z"/><path class="cls-5" d="M634.13,218.21c-2,.07-3.88.11-5.75.06a16.31,16.31,0,0,1-2.21-.16,2.87,2.87,0,0,1-2.53-2.47,24.45,24.45,0,0,1-.36-3.31c-.07-1.39-.09-2.77,0-4.16a10.6,10.6,0,0,1,.21-1.87,2.75,2.75,0,0,1,2.23-2.14,19.59,19.59,0,0,1,3-.36c1.49-.11,3-.17,4.48-.22,2.11-.06,4.22-.09,6.33,0a18.26,18.26,0,0,1,2,.14,2.67,2.67,0,0,1,2.49,2.31,25.79,25.79,0,0,1,.47,4,32.71,32.71,0,0,1-.06,4.2,7.37,7.37,0,0,1-.19,1.32,2.73,2.73,0,0,1-2.21,2.1A18,18,0,0,1,639,218C637.33,218.11,635.67,218.18,634.13,218.21Zm-2.24-4,5.2-3.41-5.39-3.1C631.77,209.88,631.83,212,631.89,214.21Z"/><path class="cls-5" d="M614.12,152.59l12.1,7.16a4.42,4.42,0,0,1,1.56,6.05l-3.35,5.66a4.42,4.42,0,0,1-6.06,1.56l-6.62-3.92-4.6.72a1.41,1.41,0,0,1-1.44-2.11l1-1.62-.4-.23a4.42,4.42,0,0,1-1.56-6.05l3.36-5.67A4.41,4.41,0,0,1,614.12,152.59Z"/><path class="cls-4" d="M620,163.76a1.13,1.13,0,1,0,.81,1.37A1.13,1.13,0,0,0,620,163.76Z"/><path class="cls-4" d="M616.53,161.71a1.13,1.13,0,1,0,.81,1.37A1.12,1.12,0,0,0,616.53,161.71Z"/><path class="cls-4" d="M613.08,159.66a1.13,1.13,0,0,0-.56,2.18,1.13,1.13,0,1,0,.56-2.18Z"/><circle class="cls-4" cx="554.13" cy="185.29" r="21.62"/><circle class="cls-4" cx="688.17" cy="234.22" r="17.26"/><path class="cls-5" d="M563.94,192.76v-7.15c0-.85.67-2,1.48-2h3.73c.82,0,1.36,1.12,1.36,2v7.15a1.46,1.46,0,0,1-1.36,1.58h-3.73A1.56,1.56,0,0,1,563.94,192.76Zm1.65,0h0"/><path class="cls-5" d="M557.37,192.76V181.54c0-.87.34-1.16,1.12-1.16H562c.79,0,.71.33.71,1.16v11.22c0,.83.08,1.58-.71,1.58h-3.5C557.71,194.34,557.37,193.63,557.37,192.76Z"/><path class="cls-5" d="M548.74,177.78a1.52,1.52,0,0,1,1.51-1.51h4.38a1.51,1.51,0,0,1,1.5,1.51v14.64a1.5,1.5,0,0,1-1.5,1.51h-4.38a1.51,1.51,0,0,1-1.51-1.51Zm7,13.28"/><path class="cls-5" d="M539.76,174.49a1.51,1.51,0,0,1,1.51-1.5h4.38a1.5,1.5,0,0,1,1.5,1.5v17.93a1.5,1.5,0,0,1-1.5,1.51h-4.38a1.51,1.51,0,0,1-1.51-1.51Zm7,.14,0,17.66-4.49,0"/><path class="cls-4" d="M523.86,196.84v14.42a3.22,3.22,0,0,1-3.06,3.21l-18,.84a3.2,3.2,0,0,1-3.36-3.2V196.84a3.21,3.21,0,0,1,3.2-3.21h18A3.21,3.21,0,0,1,523.86,196.84Z"/><path class="cls-5" d="M505.64,211.78h-.58a.53.53,0,0,1-.13-1.05,26.89,26.89,0,0,0,4-1.58c-5.3-.44-6.36-3.16-6.56-4.41-.52-3.14,2.21-6.69,6.08-7.92s7.94-.8,10.18,1.15c1.19,1,2.49,3,1.88,6.6C519.37,211.24,508.94,211.78,505.64,211.78Zm-.45-.14Zm-.11-.83Zm7.66-2.62-1.68.94a36.61,36.61,0,0,1-3.37,1.62c4.1-.25,11-1.4,11.87-6.36.43-2.51-.1-4.43-1.56-5.7-2.27-2-6.29-1.91-9.26-1-3.38,1.07-5.86,4.2-5.42,6.85.39,2.4,3.12,3.74,7.5,3.65Z"/><circle class="cls-5" cx="685.92" cy="171.95" r="7.25"/><path class="cls-4" d="M685.91,174.82a1.59,1.59,0,0,0,1.59-1.51v-5.39a1.53,1.53,0,0,0-1.58-1.46,1.55,1.55,0,0,0-1.6,1.49v5.44A1.49,1.49,0,0,0,685.91,174.82Z"/><path class="cls-4" d="M688.42,172.19a.25.25,0,0,0-.25.25v1a2.27,2.27,0,0,1-2.26,2.17,2.14,2.14,0,0,1-2.29-2.05v-1a.25.25,0,0,0-.26-.24.27.27,0,0,0-.26.25v1a2.59,2.59,0,0,0,2.56,2.51v1.55l-.86,0a.26.26,0,0,0-.25.25.24.24,0,0,0,.25.23l2.22-.09a.26.26,0,0,0,.25-.25.24.24,0,0,0-.25-.23l-.85,0v-1.55a2.75,2.75,0,0,0,2.5-2.63v-1A.24.24,0,0,0,688.42,172.19Z"/><g class="cls-28"><path class="cls-5" d="M694.2,179.2a.26.26,0,0,0,.21-.06,9.05,9.05,0,0,0,2.42-3,8.58,8.58,0,0,0,.91-3.85,8.94,8.94,0,0,0-.9-3.89,9.77,9.77,0,0,0-2.42-3.1.33.33,0,0,0-.42,0,.25.25,0,0,0,0,.37,8.68,8.68,0,0,1,3.12,6.6,8.26,8.26,0,0,1-3.13,6.45.25.25,0,0,0,0,.37A.3.3,0,0,0,694.2,179.2Z"/><path class="cls-5" d="M695.31,180.26a.35.35,0,0,0,.21-.06,10.41,10.41,0,0,0,2.81-3.43,9.77,9.77,0,0,0,1.06-4.43,10.13,10.13,0,0,0-1-4.48,11.16,11.16,0,0,0-2.8-3.56.35.35,0,0,0-.43,0,.25.25,0,0,0,0,.37,10,10,0,0,1,3.65,7.63,9.52,9.52,0,0,1-3.66,7.47.25.25,0,0,0,0,.38A.4.4,0,0,0,695.31,180.26Z"/><path class="cls-5" d="M693.11,178.16a.24.24,0,0,0,.2-.06,7.51,7.51,0,0,0,2.81-5.84,7.84,7.84,0,0,0-2.8-5.95.32.32,0,0,0-.41,0,.25.25,0,0,0,0,.37,7.39,7.39,0,0,1,2.61,5.57,7.08,7.08,0,0,1-2.62,5.46.24.24,0,0,0,0,.36A.29.29,0,0,0,693.11,178.16Z"/></g><g class="cls-28"><path class="cls-5" d="M677.81,179.2a.26.26,0,0,1-.21-.06,9.05,9.05,0,0,1-2.42-3,8.72,8.72,0,0,1-.91-3.85,8.81,8.81,0,0,1,.91-3.89,9.6,9.6,0,0,1,2.41-3.1.33.33,0,0,1,.42,0,.25.25,0,0,1,0,.37,8.68,8.68,0,0,0-3.12,6.6,8.26,8.26,0,0,0,3.13,6.45.25.25,0,0,1,0,.37A.29.29,0,0,1,677.81,179.2Z"/><path class="cls-5" d="M676.7,180.26a.37.37,0,0,1-.21-.06,10.41,10.41,0,0,1-2.81-3.43,9.77,9.77,0,0,1-1.06-4.43,10.13,10.13,0,0,1,1-4.48,11.16,11.16,0,0,1,2.8-3.56.35.35,0,0,1,.43,0,.25.25,0,0,1,0,.37,10,10,0,0,0-3.65,7.63,9.55,9.55,0,0,0,3.66,7.47.25.25,0,0,1,0,.38A.4.4,0,0,1,676.7,180.26Z"/><path class="cls-5" d="M678.9,178.16a.24.24,0,0,1-.2-.06,7.51,7.51,0,0,1-2.81-5.84,7.84,7.84,0,0,1,2.8-5.95.32.32,0,0,1,.41,0,.25.25,0,0,1,0,.37,7.34,7.34,0,0,0-2.6,5.57,7,7,0,0,0,2.61,5.46.24.24,0,0,1,0,.36A.29.29,0,0,1,678.9,178.16Z"/></g><path class="cls-5" d="M688.3,229.26c-.17-.19-.31-.36-.47-.53a4.5,4.5,0,0,0-3.9-1.59,4.76,4.76,0,0,0-4.19,3.66,4.49,4.49,0,0,0,1,4c1.47,1.77,3,3.51,4.51,5.26l2.27,2.64.11.15a.38.38,0,0,0,.18-.13l7.31-7.06a4.82,4.82,0,0,0,1.58-3.66,4.52,4.52,0,0,0-3.59-4.39,4.82,4.82,0,0,0-3.71.66,3.79,3.79,0,0,0-.58.48Z"/><path class="cls-5" d="M631.44,136.71l-.18-6.87-1.43,0c0-.78,0-1.54-.06-2.33l1.43,0c0-.44,0-.84,0-1.25a7.7,7.7,0,0,1,0-1.27,2.11,2.11,0,0,1,1.59-1.87,14.68,14.68,0,0,1,3.18-.25c0,.81,0,1.59.06,2.39l-1.09,0a4.9,4.9,0,0,0-.54,0c-.32,0-.46.17-.46.48,0,.53,0,1.06,0,1.61l2.11-.05c-.05.77-.09,1.52-.14,2.3l-1.92,0,.18,6.9Z"/><path class="cls-5" d="M631.63,267.41a9.76,9.76,0,0,0,6.6-3.3,4.87,4.87,0,0,1-5.05-2.47,4.92,4.92,0,0,0,1.09-.12,4.77,4.77,0,0,0,1-.36,4.83,4.83,0,0,1-3-1.17,4.75,4.75,0,0,1-1.63-2.84,4.8,4.8,0,0,0,2.26.19,4.86,4.86,0,0,1-2.67-6.06,13.8,13.8,0,0,0,10.74,3.11c-.07-.19-.14-.36-.19-.53a4.84,4.84,0,0,1,7.41-5.39.12.12,0,0,0,.13,0,9.59,9.59,0,0,0,2.69-1.66l0,0a4.63,4.63,0,0,1-.52,1.64,4.74,4.74,0,0,1-1,1.36,8.83,8.83,0,0,0,1.32-.52,11,11,0,0,0,1.23-.72c-.09.22-.18.42-.28.61a9.71,9.71,0,0,1-1.57,2.24.1.1,0,0,0,0,.12,12.11,12.11,0,0,1,.28,1.79,13.32,13.32,0,0,1,0,3,14.1,14.1,0,0,1-1.87,5.56,12.92,12.92,0,0,1-5.71,5.19,14.49,14.49,0,0,1-4.07,1.22,13.7,13.7,0,0,1-7-.81Z"/><rect class="cls-4" x="172.15" y="168.72" width="124.42" height="87.91"/><rect class="cls-5" x="172.15" y="168.72" width="124.42" height="9.16"/><rect class="cls-5" x="182.91" y="214.69" width="37.77" height="1.6"/><rect class="cls-5" x="182.91" y="217.77" width="34.22" height="1.6"/><rect class="cls-5" x="182.91" y="220.85" width="21.66" height="1.6"/><rect class="cls-5" x="182.91" y="223.94" width="35.4" height="1.6"/><rect class="cls-5" x="182.91" y="227.02" width="37.77" height="1.6"/><rect class="cls-5" x="232.93" y="186.68" width="46.7" height="1.6"/><rect class="cls-5" x="232.93" y="189.76" width="52.88" height="1.6"/><rect class="cls-5" x="232.93" y="192.85" width="51.28" height="1.6"/><rect class="cls-5" x="232.93" y="195.93" width="49.56" height="1.6"/><rect class="cls-5" x="232.93" y="199.01" width="52.88" height="1.6"/><rect class="cls-5" x="182.91" y="233.18" width="27.28" height="1.72"/><rect class="cls-5" x="182.91" y="236.26" width="37.77" height="1.6"/><rect class="cls-5" x="182.91" y="239.34" width="21.26" height="1.6"/><rect class="cls-5" x="182.91" y="242.42" width="37.77" height="1.6"/><rect class="cls-5" x="182.91" y="245.51" width="33.37" height="1.6"/><rect class="cls-5" x="232.93" y="205.45" width="52.88" height="1.72"/><rect class="cls-5" x="232.93" y="208.53" width="41.1" height="1.71"/><rect class="cls-5" x="232.93" y="211.61" width="47.08" height="1.6"/><rect class="cls-5" x="232.93" y="214.69" width="34.94" height="1.6"/><rect class="cls-5" x="232.93" y="217.77" width="46.73" height="1.6"/><rect class="cls-5" x="232.93" y="217.53" width="52.88" height="1.72"/><rect class="cls-5" x="232.93" y="220.61" width="41.1" height="1.71"/><rect class="cls-5" x="232.93" y="223.7" width="47.08" height="1.6"/><rect class="cls-5" x="232.93" y="226.78" width="34.94" height="1.6"/><rect class="cls-5" x="232.93" y="229.86" width="46.73" height="1.6"/><rect class="cls-5" x="232.93" y="229.62" width="52.88" height="1.72"/><rect class="cls-5" x="232.93" y="232.7" width="41.1" height="1.71"/><rect class="cls-5" x="232.93" y="235.78" width="47.08" height="1.6"/><rect class="cls-5" x="232.93" y="238.86" width="34.94" height="1.6"/><rect class="cls-5" x="232.93" y="241.95" width="46.73" height="1.6"/><rect class="cls-5" x="181.57" y="186.77" width="41.1" height="1.71"/><rect class="cls-5" x="181.57" y="189.85" width="47.08" height="1.6"/><rect class="cls-5" x="181.57" y="192.94" width="34.94" height="1.6"/><rect class="cls-5" x="181.57" y="196.02" width="46.73" height="1.6"/></g></g></svg>