<svg xmlns="http://www.w3.org/2000/svg" xmlns:xlink="http://www.w3.org/1999/xlink" viewBox="0 0 400 400"><defs><style>.a{fill:none;}.b{isolation:isolate;}.c{fill:url(#a);}.d,.u{fill:#42e8e0;}.e{fill:#21e2e2;}.f{fill:url(#b);}.g{fill:url(#c);}.h{fill:#4ea4f9;}.i{fill:url(#d);}.j{fill:url(#e);}.k,.q{fill:#0f054c;}.bt,.cc,.k{opacity:0.5;}.l{fill:#0050af;}.m{fill:#fff;}.n{clip-path:url(#f);}.o{fill:url(#g);}.p{fill:url(#h);}.q{opacity:0.6;}.r{fill:url(#i);}.s{fill:url(#j);}.t{fill:#251c72;}.u{opacity:0.7;}.v{fill:url(#k);}.w{fill:url(#l);}.x{fill:url(#m);}.y{fill:url(#n);}.z{fill:url(#o);}.aa{fill:url(#p);}.ab{fill:url(#q);}.ac{fill:url(#r);}.ad{fill:url(#s);}.ae{fill:url(#t);}.af{fill:url(#u);}.ag{fill:url(#v);}.ah{fill:url(#w);}.ai{fill:#f6d928;}.aj{fill:url(#x);}.ak{fill:url(#y);}.al{fill:url(#z);}.am{fill:#e1001f;}.an{fill:url(#aa);}.ao{fill:url(#ab);}.ap{fill:url(#ac);}.aq{fill:url(#ad);}.ar{fill:url(#ae);}.as{fill:url(#af);}.at{fill:url(#ag);}.au{fill:url(#ah);}.av{fill:url(#ai);}.aw{fill:url(#aj);}.ax{fill:url(#ak);}.ay{fill:url(#al);}.az{fill:url(#am);}.ba{fill:url(#an);}.bb{fill:url(#ao);}.bc{fill:url(#ap);}.bd{fill:url(#aq);}.be{fill:url(#ar);}.bf{fill:url(#as);}.bg{fill:url(#at);}.bh{fill:url(#au);}.bi{fill:#f59b6b;}.bj{fill:url(#av);}.bk{fill:#37b5e8;opacity:0.2;}.bl{fill:url(#aw);}.bm{fill:url(#ax);}.bn{fill:url(#ay);}.bo,.cg{fill:#160a5b;}.bo{opacity:0.3;}.bp{fill:#1f364c;}.bq{fill:#152735;}.br{fill:#379ae3;}.bs{fill:url(#az);}.bt,.cc{mix-blend-mode:overlay;}.bt{fill:url(#ba);}.bu{fill:url(#bb);}.bv{fill:url(#bc);}.bw{fill:#ffe7cb;}.bx,.ck{fill:#e2b1a6;}.bx{opacity:0.46;}.by{fill:#0e71bb;}.bz{fill:url(#bd);}.ca{fill:#f0f6ff;}.cb{fill:#c4ccd6;}.cc{fill:url(#be);}.cd{fill:url(#bf);}.ce{fill:#453c9e;}.cf{fill:#24126a;}.ch{fill:url(#bg);}.ci{fill:#722318;}.cj{fill:url(#bh);}.cl{fill:#4846a5;}.cm{fill:url(#bi);}</style><linearGradient id="a" x1="219.85" y1="352.86" x2="171.6" y2="79.24" gradientUnits="userSpaceOnUse"><stop offset="0" stop-color="#c6e6ff"/><stop offset="1" stop-color="#fff"/></linearGradient><linearGradient id="b" x1="-221.43" y1="357.75" x2="-48.45" y2="357.75" gradientTransform="matrix(0.87, -0.5, 0, 1.15, 259.51, -308.06)" gradientUnits="userSpaceOnUse"><stop offset="0" stop-color="#5778ff"/><stop offset="0.18" stop-color="#5c7dff"/><stop offset="0.39" stop-color="#6a8aff"/><stop offset="0.61" stop-color="#82a0ff"/><stop offset="0.85" stop-color="#a3beff"/><stop offset="1" stop-color="#bcd5ff"/></linearGradient><radialGradient id="c" cx="-206.27" cy="170.79" fx="-273.6545582255219" fy="147.01956564559413" r="71.46" gradientTransform="translate(309.2)" gradientUnits="userSpaceOnUse"><stop offset="0" stop-color="#2b3aa5"/><stop offset="1" stop-color="#182484"/></radialGradient><linearGradient id="d" x1="-187.9" y1="386.87" x2="-14.92" y2="386.87" gradientTransform="matrix(0.87, -0.5, 0, 1.15, 259.51, -308.06)" gradientUnits="userSpaceOnUse"><stop offset="0" stop-color="#706ec4"/><stop offset="0.02" stop-color="#6d6bc2"/><stop offset="0.25" stop-color="#5651ac"/><stop offset="0.49" stop-color="#463f9d"/><stop offset="0.73" stop-color="#3c3494"/><stop offset="1" stop-color="#393091"/></linearGradient><linearGradient id="e" x1="-653.68" y1="158.74" x2="-226.44" y2="343.93" gradientTransform="matrix(0.87, -0.5, 0, 1.15, 259.51, -308.06)" gradientUnits="userSpaceOnUse"><stop offset="0" stop-color="#bcbeff"/><stop offset="0.23" stop-color="#aaadf8"/><stop offset="0.68" stop-color="#7c83e5"/><stop offset="1" stop-color="#5761d7"/></linearGradient><clipPath id="f"><path class="a" d="M193.8,142.5c-4.4,0-9.4,1.5-14.6,4.5-12.2,7.1-23.6,21.4-29.7,37.3l-.6,1.6h-1.7a12.7,12.7,0,0,0-5.5,1.8c-7.8,4.5-14.3,15.9-14.3,24.8v3.1H125a16.8,16.8,0,0,0-6.9,2.4c-10.3,5.9-18.7,20.5-18.7,32.4,0,5.2,1.6,9,4.5,10.7s7.1,1.2,11.6-1.4l105.7-61c12.6-7.3,22.8-25,22.8-39.6,0-6.5-2-11.2-5.8-13.4s-8.8-1.5-14.5,1.7h0a39.9,39.9,0,0,0-9.9,8.4l-3,3.5-1.4-4.4c-1.7-5.7-5.1-9.6-9.6-11.4A16.8,16.8,0,0,0,193.8,142.5Z"/></clipPath><linearGradient id="g" x1="-1381.69" y1="3347.37" x2="-1345.87" y2="3347.37" gradientTransform="matrix(0.5, 0.87, 0.87, -0.5, -2023.86, 3036.17)" gradientUnits="userSpaceOnUse"><stop offset="0" stop-color="#bcbeff"/><stop offset="0.17" stop-color="#b6b8fc"/><stop offset="0.4" stop-color="#a4a8f5"/><stop offset="0.66" stop-color="#868dea"/><stop offset="0.96" stop-color="#5e67da"/><stop offset="1" stop-color="#5761d7"/></linearGradient><linearGradient id="h" x1="-1381.69" y1="3347.37" x2="-1345.87" y2="3347.37" gradientTransform="matrix(0.5, 0.87, 0.87, -0.5, -2023.86, 3036.17)" xlink:href="#d"/><linearGradient id="i" x1="-1391.23" y1="3349.07" x2="-1351.78" y2="3349.07" xlink:href="#g"/><linearGradient id="j" x1="-1396.67" y1="3349.07" x2="-1325.51" y2="3349.07" gradientTransform="matrix(0.5, 0.87, 0.87, -0.5, -2023.86, 3036.17)" xlink:href="#d"/><linearGradient id="k" x1="-1391.21" y1="3352.86" x2="-1355.39" y2="3352.86" xlink:href="#g"/><linearGradient id="l" x1="-1391.21" y1="3352.86" x2="-1355.39" y2="3352.86" gradientTransform="matrix(0.5, 0.87, 0.87, -0.5, -2023.86, 3036.17)" xlink:href="#d"/><linearGradient id="m" x1="-1400.75" y1="3354.55" x2="-1361.3" y2="3354.55" xlink:href="#g"/><linearGradient id="n" x1="-1406.19" y1="3354.55" x2="-1335.03" y2="3354.55" gradientTransform="matrix(0.5, 0.87, 0.87, -0.5, -2023.86, 3036.17)" xlink:href="#d"/><linearGradient id="o" x1="-1400.73" y1="3358.34" x2="-1364.91" y2="3358.34" xlink:href="#g"/><linearGradient id="p" x1="-1400.73" y1="3358.34" x2="-1364.91" y2="3358.34" gradientTransform="matrix(0.5, 0.87, 0.87, -0.5, -2023.86, 3036.17)" xlink:href="#d"/><linearGradient id="q" x1="-1410.27" y1="3360.03" x2="-1370.82" y2="3360.03" xlink:href="#g"/><linearGradient id="r" x1="-1415.71" y1="3360.03" x2="-1344.55" y2="3360.03" gradientTransform="matrix(0.5, 0.87, 0.87, -0.5, -2023.86, 3036.17)" xlink:href="#d"/><linearGradient id="s" x1="-1410.25" y1="3363.82" x2="-1374.43" y2="3363.82" xlink:href="#g"/><linearGradient id="t" x1="-1410.25" y1="3363.82" x2="-1374.43" y2="3363.82" gradientTransform="matrix(0.5, 0.87, 0.87, -0.5, -2023.86, 3036.17)" xlink:href="#d"/><linearGradient id="u" x1="-1419.78" y1="3365.52" x2="-1380.34" y2="3365.52" xlink:href="#g"/><linearGradient id="v" x1="-1425.23" y1="3365.52" x2="-1354.07" y2="3365.52" gradientTransform="matrix(0.5, 0.87, 0.87, -0.5, -2023.86, 3036.17)" xlink:href="#d"/><linearGradient id="w" x1="-1381.76" y1="3295.22" x2="-1345.94" y2="3295.22" xlink:href="#g"/><linearGradient id="x" x1="-1391.29" y1="3296.92" x2="-1351.85" y2="3296.92" xlink:href="#g"/><linearGradient id="y" x1="-1396.74" y1="3296.92" x2="-1325.58" y2="3296.92" gradientTransform="matrix(0.5, 0.87, 0.87, -0.5, -2023.86, 3036.17)" xlink:href="#d"/><linearGradient id="z" x1="-1391.28" y1="3300.7" x2="-1355.46" y2="3300.7" xlink:href="#g"/><linearGradient id="aa" x1="-1400.81" y1="3302.4" x2="-1361.37" y2="3302.4" xlink:href="#g"/><linearGradient id="ab" x1="-1406.26" y1="3302.4" x2="-1335.1" y2="3302.4" gradientTransform="matrix(0.5, 0.87, 0.87, -0.5, -2023.86, 3036.17)" xlink:href="#d"/><linearGradient id="ac" x1="-1401.83" y1="3306.78" x2="-1366" y2="3306.78" xlink:href="#g"/><linearGradient id="ad" x1="-1411.36" y1="3308.47" x2="-1371.92" y2="3308.47" xlink:href="#g"/><linearGradient id="ae" x1="-1416.81" y1="3308.47" x2="-1345.64" y2="3308.47" gradientTransform="matrix(0.5, 0.87, 0.87, -0.5, -2023.86, 3036.17)" xlink:href="#d"/><linearGradient id="af" x1="-1381.83" y1="3243.07" x2="-1346" y2="3243.07" xlink:href="#g"/><linearGradient id="ag" x1="-1381.83" y1="3243.07" x2="-1346" y2="3243.07" gradientTransform="matrix(0.5, 0.87, 0.87, -0.5, -2023.86, 3036.17)" xlink:href="#d"/><linearGradient id="ah" x1="-1391.36" y1="3244.76" x2="-1351.92" y2="3244.76" xlink:href="#g"/><linearGradient id="ai" x1="-1396.81" y1="3244.76" x2="-1325.65" y2="3244.76" gradientTransform="matrix(0.5, 0.87, 0.87, -0.5, -2023.86, 3036.17)" xlink:href="#d"/><linearGradient id="aj" x1="-1391.35" y1="3248.55" x2="-1355.52" y2="3248.55" xlink:href="#g"/><linearGradient id="ak" x1="-1391.35" y1="3248.55" x2="-1355.52" y2="3248.55" gradientTransform="matrix(0.5, 0.87, 0.87, -0.5, -2023.86, 3036.17)" xlink:href="#d"/><linearGradient id="al" x1="-1400.88" y1="3250.25" x2="-1361.44" y2="3250.25" xlink:href="#g"/><linearGradient id="am" x1="-1406.33" y1="3250.25" x2="-1335.17" y2="3250.25" gradientTransform="matrix(0.5, 0.87, 0.87, -0.5, -2023.86, 3036.17)" xlink:href="#d"/><linearGradient id="an" x1="-1400.87" y1="3254.03" x2="-1365.04" y2="3254.03" xlink:href="#g"/><linearGradient id="ao" x1="-1400.87" y1="3254.03" x2="-1365.04" y2="3254.03" gradientTransform="matrix(0.5, 0.87, 0.87, -0.5, -2023.86, 3036.17)" xlink:href="#d"/><linearGradient id="ap" x1="-1410.4" y1="3255.73" x2="-1370.96" y2="3255.73" xlink:href="#g"/><linearGradient id="aq" x1="-1415.85" y1="3255.73" x2="-1344.69" y2="3255.73" gradientTransform="matrix(0.5, 0.87, 0.87, -0.5, -2023.86, 3036.17)" xlink:href="#d"/><linearGradient id="ar" x1="-1410.39" y1="3259.52" x2="-1374.56" y2="3259.52" xlink:href="#g"/><linearGradient id="as" x1="-1410.39" y1="3259.52" x2="-1374.56" y2="3259.52" gradientTransform="matrix(0.5, 0.87, 0.87, -0.5, -2023.86, 3036.17)" xlink:href="#d"/><linearGradient id="at" x1="-1419.92" y1="3261.21" x2="-1380.48" y2="3261.21" xlink:href="#g"/><linearGradient id="au" x1="-1425.37" y1="3261.21" x2="-1354.21" y2="3261.21" gradientTransform="matrix(0.5, 0.87, 0.87, -0.5, -2023.86, 3036.17)" xlink:href="#d"/><linearGradient id="av" x1="-1731.22" y1="1204.89" x2="-1656.28" y2="1204.89" gradientTransform="matrix(0.87, 0.5, -0.87, 0.5, 2755.39, 562.69)" gradientUnits="userSpaceOnUse"><stop offset="0" stop-color="#c0bff6"/><stop offset="0.29" stop-color="#c5c4f7"/><stop offset="0.64" stop-color="#d3d2f9"/><stop offset="1" stop-color="#e9e9fd"/></linearGradient><linearGradient id="aw" x1="-2083.35" y1="317.38" x2="-2014.82" y2="317.38" gradientTransform="translate(2275.7)" gradientUnits="userSpaceOnUse"><stop offset="0.35" stop-color="#bcbeff"/><stop offset="0.44" stop-color="#b5b8fc"/><stop offset="0.57" stop-color="#a3a7f5"/><stop offset="0.72" stop-color="#848be9"/><stop offset="0.88" stop-color="#5a64d8"/><stop offset="0.89" stop-color="#5761d7"/></linearGradient><linearGradient id="ax" x1="-2104.52" y1="317.38" x2="-2015.83" y2="317.38" gradientTransform="translate(2275.7)" gradientUnits="userSpaceOnUse"><stop offset="0" stop-color="#0d79c9"/><stop offset="0.22" stop-color="#0f7ccb"/><stop offset="0.38" stop-color="#1785d0"/><stop offset="0.52" stop-color="#2595da"/><stop offset="0.64" stop-color="#37abe7"/><stop offset="0.76" stop-color="#4fc7f8"/><stop offset="0.8" stop-color="#59d3ff"/><stop offset="0.83" stop-color="#41b6ee"/><stop offset="0.87" stop-color="#2a9bde"/><stop offset="0.91" stop-color="#1a88d2"/><stop offset="0.96" stop-color="#107dcb"/><stop offset="1" stop-color="#0d79c9"/></linearGradient><linearGradient id="ay" x1="-1745.44" y1="1192.12" x2="-1667.61" y2="1192.12" gradientTransform="matrix(0.87, 0.5, -0.87, 0.5, 2755.39, 562.69)" gradientUnits="userSpaceOnUse"><stop offset="0" stop-color="#e9e9fd"/><stop offset="0.36" stop-color="#d3d2f9"/><stop offset="0.71" stop-color="#c5c4f7"/><stop offset="1" stop-color="#c0bff6"/></linearGradient><linearGradient id="az" x1="-11253.42" y1="-437.88" x2="-11251.91" y2="-437.88" gradientTransform="translate(11519.8 203.9) rotate(-2.2)" gradientUnits="userSpaceOnUse"><stop offset="0" stop-color="#5761d7"/><stop offset="0.07" stop-color="#5472d8"/><stop offset="0.28" stop-color="#4e9cdb"/><stop offset="0.48" stop-color="#49bddd"/><stop offset="0.67" stop-color="#45d5df"/><stop offset="0.85" stop-color="#43e3e0"/><stop offset="1" stop-color="#42e8e0"/></linearGradient><linearGradient id="ba" x1="8923.15" y1="452.42" x2="8936.28" y2="452.42" gradientTransform="matrix(-1, -0.05, -0.05, 1, 9187.52, 230.51)" gradientUnits="userSpaceOnUse"><stop offset="0.05" stop-opacity="0"/><stop offset="1"/></linearGradient><linearGradient id="bb" x1="-11276.18" y1="-383.99" x2="-11250.37" y2="-383.99" xlink:href="#az"/><linearGradient id="bc" x1="-11251.71" y1="-414.57" x2="-11245.6" y2="-414.57" xlink:href="#az"/><linearGradient id="bd" x1="8918.58" y1="402.46" x2="8934.39" y2="402.46" gradientTransform="matrix(-1, -0.05, -0.05, 1, 9187.52, 230.51)" gradientUnits="userSpaceOnUse"><stop offset="0" stop-color="#5095d0"/><stop offset="0.37" stop-color="#3285c6"/><stop offset="0.76" stop-color="#1876be"/><stop offset="1" stop-color="#0e71bb"/></linearGradient><linearGradient id="be" x1="8918.8" y1="420.71" x2="8938.42" y2="420.71" xlink:href="#ba"/><linearGradient id="bf" x1="-11289.82" y1="-359.85" x2="-11268.94" y2="-359.85" xlink:href="#az"/><linearGradient id="bg" x1="-11278.09" y1="-367.4" x2="-11275.43" y2="-367.4" xlink:href="#az"/><linearGradient id="bh" x1="-11283.12" y1="-372.44" x2="-11280.47" y2="-372.44" xlink:href="#az"/><linearGradient id="bi" x1="-11278.04" y1="-395.44" x2="-11258.28" y2="-395.44" xlink:href="#az"/></defs><title>access-germany-vps</title><g class="b"><path class="c" d="M382.7,244.7c-6.2-19.2-16.1-25-25.4-37.4-11.5-15-19.2-26-16.2-45.4C345.9,130.2,348,51.3,272,61.6c-27.2,3.7-48.7,26.7-64.4,49.7-13.3,19.6-37.3,21.3-56.5,25.8-23.7,5.7-47.9,14.1-69.8,26.5-45.2,25.6-58.7,62.3-56.8,109.3.5,14.2,2.4,36.5,24.1,62.7,29.3,35.3,71.9,40,123.2,23.8,11.8-3.7,22.9-9.5,34.4-13.9a145.5,145.5,0,0,1,37.1-8.9c29.5-3.2,60,2.5,88.3-7.2a91.9,91.9,0,0,0,39.4-27A59.8,59.8,0,0,0,382.7,244.7Z"/><path class="d" d="M229.4,282.1l-17.7-10.2c-7.5-4.4-13.6-15-13.6-23.7V199h.5v49.2c0,8.6,6,19,13.4,23.2l17.7,10.2Z"/><path class="d" d="M209.2,293.8l-17.7-10.3c-7.5-4.3-13.7-14.9-13.7-23.6V210.7h.5v49.2c0,8.5,6.1,18.9,13.4,23.2l17.7,10.2Z"/><path class="d" d="M188.9,305.4l-17.7-10.2c-7.5-4.3-13.6-14.9-13.6-23.6V222.4h.5v49.2c0,8.5,6,18.9,13.4,23.2L189.2,305Z"/><path class="e" d="M104.4,282.9a7.8,7.8,0,0,1-3.7-.9l-30-17.3a2.8,2.8,0,0,1-1.6-2.3,2.1,2.1,0,0,1,1.2-1.8l144.2-83.2a7.3,7.3,0,0,1,6.6.2L251,194.9a2.9,2.9,0,0,1,1.7,2.3,2.1,2.1,0,0,1-1.2,1.8L107.2,282.3A6.1,6.1,0,0,1,104.4,282.9Zm113-105.7a5.3,5.3,0,0,0-2.6.6L70.5,261.1a1.5,1.5,0,0,0-.9,1.3c0,.7.5,1.3,1.4,1.9l30,17.3a6.7,6.7,0,0,0,6,.2l144.2-83.3a1.6,1.6,0,0,0,1-1.3,2.3,2.3,0,0,0-1.4-1.8l-30-17.3A6.7,6.7,0,0,0,217.4,177.2Z"/><path class="f" d="M193.4,128.4a42.3,42.3,0,0,0-10.6,9c-4.4-14.3-17.9-18.7-33.9-9.5-13.2,7.7-24.8,22.7-30.9,38.6a14.4,14.4,0,0,0-6.6,2.1c-8.6,5-15.6,17.1-15.6,27.1v.6a20.3,20.3,0,0,0-8.1,2.7c-11,6.4-20,21.9-20,34.6s9,17.9,20,11.6l105.7-61c13.3-7.7,24.1-26.4,24.1-41.8S206.7,120.7,193.4,128.4Z"/><path class="g" d="M193.4,128.4a39.7,39.7,0,0,0-6.3,4.7l-11.8-6.8h0c-6.5-4.6-15.9-4.4-26.4,1.6-13.2,7.7-24.8,22.7-30.9,38.6a14.4,14.4,0,0,0-6.6,2.1c-8.6,5-15.6,17.1-15.6,27.1v.6a20.3,20.3,0,0,0-8.1,2.7c-11,6.4-20,21.9-20,34.6,0,6.4,2.3,10.8,5.8,12.9h.1l29,16.8,6.3-30.4,84.5-48.8c13.3-7.7,24.1-26.4,24.1-41.8S206.7,120.7,193.4,128.4Z"/><path class="h" d="M239.9,143.9l-29.3-17.1h0c-4.4-2.6-10.5-2.3-17.2,1.6a39.7,39.7,0,0,0-6.3,4.7l-11.8-6.8h0c-6.5-4.6-15.9-4.4-26.4,1.6-13.2,7.7-24.8,22.7-30.9,38.6a14.4,14.4,0,0,0-6.6,2.1c-8.6,5-15.6,17.1-15.6,27.1v.6a20.3,20.3,0,0,0-8.1,2.7c-11,6.4-20,21.9-20,34.6,0,6.4,2.3,10.8,5.8,12.9h.1l29,16.8,6.3-30.4,84.5-48.8c10.8-6.3,20-19.8,23-32.8Z"/><path class="i" d="M222.5,145.3a44,44,0,0,0-10.6,8.9c-4.4-14.2-18-18.6-34-9.4-13.2,7.6-24.7,22.7-30.8,38.6a13.6,13.6,0,0,0-6.7,2.1c-8.6,5-15.6,17.1-15.6,27v.7a17.3,17.3,0,0,0-8,2.7c-11.1,6.3-20,21.8-20,34.6s8.9,17.9,20,11.5l105.7-61c13.3-7.7,24.1-26.4,24.1-41.8S235.8,137.6,222.5,145.3Z"/><path class="j" d="M222.5,145.3a44,44,0,0,0-10.6,8.9c-4.4-14.2-18-18.6-34-9.4-13.2,7.6-24.7,22.7-30.8,38.6a13.6,13.6,0,0,0-6.7,2.1c-8.6,5-15.6,17.1-15.6,27v.7a17.3,17.3,0,0,0-8,2.7c-11.1,6.3-20,21.8-20,34.6s8.9,17.9,20,11.5l105.7-61c13.3-7.7,24.1-26.4,24.1-41.8S235.8,137.6,222.5,145.3Z"/><path class="k" d="M222.5,145.3a44,44,0,0,0-10.6,8.9c-4.4-14.2-18-18.6-34-9.4-13.2,7.6-24.7,22.7-30.8,38.6a13.6,13.6,0,0,0-6.7,2.1c-8.6,5-15.6,17.1-15.6,27v.7a17.3,17.3,0,0,0-8,2.7c-11.1,6.3-20,21.8-20,34.6s8.9,17.9,20,11.5l105.7-61c13.3-7.7,24.1-26.4,24.1-41.8S235.8,137.6,222.5,145.3Z"/><path class="l" d="M222.5,145.3a44,44,0,0,0-10.6,8.9c-4.4-14.2-18-18.6-34-9.4-13.2,7.6-24.7,22.7-30.8,38.6a13.6,13.6,0,0,0-6.7,2.1c-8.6,5-15.6,17.1-15.6,27v.7a17.3,17.3,0,0,0-8,2.7c-11.1,6.3-20,21.8-20,34.6s8.9,17.9,20,11.5l105.7-61c13.3-7.7,24.1-26.4,24.1-41.8S235.8,137.6,222.5,145.3Z"/><path class="m" d="M222.5,145.3a44,44,0,0,0-10.6,8.9l-.7-1.8a43.8,43.8,0,0,1,10.1-8.4c8.6-5,16.2-4.1,20.4,1.3C237.3,141.1,230.3,140.7,222.5,145.3Z"/><path class="m" d="M115.6,214.6a17.6,17.6,0,0,1,8-2.7v-.6c0-10,7-22.1,15.7-27.1a13,13,0,0,1,6.6-2.1c6.1-15.9,17.6-31,30.9-38.6s23.4-6.1,29.7,1.5c-6.5-6.4-16.8-7-28.6-.2s-24.7,22.7-30.8,38.6a13.6,13.6,0,0,0-6.7,2.1c-8.6,5-15.6,17.1-15.6,27v.7a17.3,17.3,0,0,0-8,2.7c-11.1,6.3-20,21.8-20,34.6,0,4.4,1.1,7.9,3,10.4-2.6-2.4-4.2-6.4-4.2-11.7C95.6,236.4,104.6,220.9,115.6,214.6Z"/><g class="n"><path class="o" d="M195.7,204.2l35.2-20.3a1.9,1.9,0,0,0,1.2-1.5h0V176l-1.2,1.1-1.1-.6a.4.4,0,0,0,.2-.3l-.5-.9-24.9-14.7-7.9-4.6-3-.9-36.2,20.8v.9l-1,.5-1.5-.7v6.3h0a1.5,1.5,0,0,0,.8,1.3L191,204.4A5.2,5.2,0,0,0,195.7,204.2ZM210,188.5l-15.9,8.7h-1.4L166,182.3l-7.3-3.8,34.7-20.1a1.4,1.4,0,0,1,1.1,0l33.8,19.5Z"/><path class="p" d="M195.7,204.2l35.2-20.3a1.9,1.9,0,0,0,1.2-1.5h0V176l-1.2,1.1-1.1-.6a.4.4,0,0,0,.2-.3l-.5-.9-24.9-14.7-7.9-4.6-3-.9-36.2,20.8v.9l-1,.5-1.5-.7v6.3h0a1.5,1.5,0,0,0,.8,1.3L191,204.4A5.2,5.2,0,0,0,195.7,204.2ZM210,188.5l-15.9,8.7h-1.4L166,182.3l-7.3-3.8,34.7-20.1a1.4,1.4,0,0,1,1.1,0l33.8,19.5Z"/><path class="q" d="M193.2,204.9v-7.7h.9l15.9-8.7,18.3-10.6-.6-.3c.6-.4,3.8-1.3,4.4-1.6v6.4h0a1.9,1.9,0,0,1-1.2,1.5l-35.2,20.3A5.2,5.2,0,0,1,193.2,204.9Z"/><path class="r" d="M195.7,197.8l35.2-20.3c1.4-.8,1.6-2,.4-2.7l-35.1-20.3a5.2,5.2,0,0,0-4.7.2L156.2,175c-1.4.8-1.5,2-.3,2.7L191,198A5.2,5.2,0,0,0,195.7,197.8Zm-1.9-1.2a1.1,1.1,0,0,1-1.1,0l-34.5-19.9c-.3-.1-.2-.4.1-.6l35.1-20.2a1.4,1.4,0,0,1,1.1-.1L229,175.7a.4.4,0,0,1-.1.7Z"/><path class="s" d="M195.7,197.8l35.2-20.3c1.4-.8,1.6-2,.4-2.7l-35.1-20.3a5.2,5.2,0,0,0-4.7.2L156.2,175c-1.4.8-1.5,2-.3,2.7L191,198A5.2,5.2,0,0,0,195.7,197.8Zm-1.9-1.2a1.1,1.1,0,0,1-1.1,0l-34.5-19.9c-.3-.1-.2-.4.1-.6l35.1-20.2a1.4,1.4,0,0,1,1.1-.1L229,175.7a.4.4,0,0,1-.1.7Z"/><path class="d" d="M229,175.4l-34.5-19.9a1.4,1.4,0,0,0-1.1,0l-35.1,20.3c-.3.1-.3.3-.2.5s.1-.1.2-.2l35.1-20.2a1.4,1.4,0,0,1,1.1-.1L229,175.7a.1.1,0,0,0,.1.1A.2.2,0,0,0,229,175.4Z"/><path class="d" d="M230.9,177.1l-35.2,20.3a5.2,5.2,0,0,1-4.7.2l-35.1-20.2a1.8,1.8,0,0,1-.8-1,1.2,1.2,0,0,0,.8,1.3L191,198a5.2,5.2,0,0,0,4.7-.2l35.2-20.3c.9-.5,1.3-1.1,1.2-1.7A1.9,1.9,0,0,1,230.9,177.1Z"/><path class="t" d="M194.5,158.4a1.4,1.4,0,0,0-1.1,0l-33.5,19.3-1.7-1c-.3-.1-.2-.4.1-.6l35.1-20.2a1.4,1.4,0,0,1,1.1-.1L229,175.7a.4.4,0,0,1-.1.7l-1.6.9Z"/><path class="u" d="M228.9,176.4a.4.4,0,0,0,.1-.7l-34.5-19.9a1.4,1.4,0,0,0-1.1.1l-35.1,20.2c-.3.2-.4.5-.1.6l34.5,19.9a1.1,1.1,0,0,0,1.1,0Z"/><path class="v" d="M195.7,193.2l35.2-20.3a1.9,1.9,0,0,0,1.2-1.5h0V165l-1.2,1.1-1.1-.6c.2-.1.2-.2.2-.3l-.5-.9-24.9-14.7-7.9-4.6-3-.8-36.2,20.7v.9l-1,.5-1.5-.7V172h0a1.4,1.4,0,0,0,.8,1.2L191,193.4A5.2,5.2,0,0,0,195.7,193.2ZM210,177.6l-15.9,8.7h-1.4L166,171.3l-7.3-3.8,34.7-20a1.4,1.4,0,0,1,1.1-.1l33.8,19.5Z"/><path class="w" d="M195.7,193.2l35.2-20.3a1.9,1.9,0,0,0,1.2-1.5h0V165l-1.2,1.1-1.1-.6c.2-.1.2-.2.2-.3l-.5-.9-24.9-14.7-7.9-4.6-3-.8-36.2,20.7v.9l-1,.5-1.5-.7V172h0a1.4,1.4,0,0,0,.8,1.2L191,193.4A5.2,5.2,0,0,0,195.7,193.2ZM210,177.6l-15.9,8.7h-1.4L166,171.3l-7.3-3.8,34.7-20a1.4,1.4,0,0,1,1.1-.1l33.8,19.5Z"/><path class="q" d="M193.2,193.9v-7.7h.9l15.9-8.7,18.3-10.7-.6-.3c.6-.3,3.8-1.2,4.4-1.6v6.4h0a1.9,1.9,0,0,1-1.2,1.5l-35.2,20.3A5.2,5.2,0,0,1,193.2,193.9Z"/><path class="x" d="M195.7,186.8l35.2-20.3c1.4-.8,1.6-2,.4-2.7l-35.1-20.3a5.2,5.2,0,0,0-4.7.2L156.2,164c-1.4.8-1.5,2-.3,2.7L191,187A5.2,5.2,0,0,0,195.7,186.8Zm-1.9-1.2a1.4,1.4,0,0,1-1.1.1l-34.5-19.9c-.3-.2-.2-.5.1-.7l35.1-20.2a1.1,1.1,0,0,1,1.1,0L229,164.8c.2.1.2.4-.1.6Z"/><path class="y" d="M195.7,186.8l35.2-20.3c1.4-.8,1.6-2,.4-2.7l-35.1-20.3a5.2,5.2,0,0,0-4.7.2L156.2,164c-1.4.8-1.5,2-.3,2.7L191,187A5.2,5.2,0,0,0,195.7,186.8Zm-1.9-1.2a1.4,1.4,0,0,1-1.1.1l-34.5-19.9c-.3-.2-.2-.5.1-.7l35.1-20.2a1.1,1.1,0,0,1,1.1,0L229,164.8c.2.1.2.4-.1.6Z"/><path class="d" d="M229,164.4l-34.5-19.9a1.4,1.4,0,0,0-1.1.1l-35.1,20.2a.3.3,0,0,0-.2.5l.2-.2,35.1-20.2a1.1,1.1,0,0,1,1.1,0L229,164.8h.1C229.2,164.7,229.2,164.5,229,164.4Z"/><path class="d" d="M230.9,166.2l-35.2,20.2a4.9,4.9,0,0,1-4.7.2l-35.1-20.2a1.5,1.5,0,0,1-.8-1,1.2,1.2,0,0,0,.8,1.3L191,187a5.2,5.2,0,0,0,4.7-.2l35.2-20.3c.9-.5,1.3-1.1,1.2-1.7A2.2,2.2,0,0,1,230.9,166.2Z"/><path class="t" d="M194.5,147.4a1.4,1.4,0,0,0-1.1.1l-33.5,19.2-1.7-.9c-.3-.2-.2-.5.1-.7l35.1-20.2a1.1,1.1,0,0,1,1.1,0L229,164.8c.2.1.2.4-.1.6l-1.6.9Z"/><path class="u" d="M228.9,165.4c.3-.2.3-.5.1-.6l-34.5-19.9a1.1,1.1,0,0,0-1.1,0l-35.1,20.2c-.3.2-.4.5-.1.7l34.5,19.9a1.4,1.4,0,0,0,1.1-.1Z"/><path class="z" d="M195.7,182.2,230.9,162a2.1,2.1,0,0,0,1.2-1.6h0V154l-1.2,1.1-1.1-.6c.2-.1.2-.2.2-.3l-.5-.9-24.9-14.6-7.9-4.6-3-.9L157.5,154v.8l-1,.5-1.5-.6V161h0a1.3,1.3,0,0,0,.8,1.2L191,182.4A5.2,5.2,0,0,0,195.7,182.2ZM210,166.6l-15.9,8.7h-1.4L166,160.3l-7.3-3.8,34.7-20a1.4,1.4,0,0,1,1.1-.1L228.3,156Z"/><path class="aa" d="M195.7,182.2,230.9,162a2.1,2.1,0,0,0,1.2-1.6h0V154l-1.2,1.1-1.1-.6c.2-.1.2-.2.2-.3l-.5-.9-24.9-14.6-7.9-4.6-3-.9L157.5,154v.8l-1,.5-1.5-.6V161h0a1.3,1.3,0,0,0,.8,1.2L191,182.4A5.2,5.2,0,0,0,195.7,182.2ZM210,166.6l-15.9,8.7h-1.4L166,160.3l-7.3-3.8,34.7-20a1.4,1.4,0,0,1,1.1-.1L228.3,156Z"/><path class="q" d="M193.2,182.9v-7.7h.9l15.9-8.7L228.3,156l-.6-.4c.6-.3,3.8-1.2,4.4-1.6v6.4h0a2.1,2.1,0,0,1-1.2,1.6l-35.2,20.2A4.3,4.3,0,0,1,193.2,182.9Z"/><path class="ab" d="M195.7,175.8l35.2-20.3c1.4-.8,1.6-2,.4-2.7l-35.1-20.3a5.2,5.2,0,0,0-4.7.2L156.2,153c-1.4.8-1.5,2.1-.3,2.8L191,176A5.2,5.2,0,0,0,195.7,175.8Zm-1.9-1.2a1.4,1.4,0,0,1-1.1.1l-34.5-19.9c-.3-.2-.2-.5.1-.6l35.1-20.3a1.1,1.1,0,0,1,1.1,0L229,153.8c.2.1.2.4-.1.6Z"/><path class="ac" d="M195.7,175.8l35.2-20.3c1.4-.8,1.6-2,.4-2.7l-35.1-20.3a5.2,5.2,0,0,0-4.7.2L156.2,153c-1.4.8-1.5,2.1-.3,2.8L191,176A5.2,5.2,0,0,0,195.7,175.8Zm-1.9-1.2a1.4,1.4,0,0,1-1.1.1l-34.5-19.9c-.3-.2-.2-.5.1-.6l35.1-20.3a1.1,1.1,0,0,1,1.1,0L229,153.8c.2.1.2.4-.1.6Z"/><path class="d" d="M229,153.4l-34.5-19.9a1.4,1.4,0,0,0-1.1.1l-35.1,20.2c-.3.2-.3.4-.2.5h.2l35.1-20.3a1.1,1.1,0,0,1,1.1,0L229,153.8h.1C229.2,153.7,229.2,153.5,229,153.4Z"/><path class="d" d="M230.9,155.2l-35.2,20.3a5.2,5.2,0,0,1-4.7.2l-35.1-20.3a1.5,1.5,0,0,1-.8-1,1.4,1.4,0,0,0,.8,1.4L191,176a5.2,5.2,0,0,0,4.7-.2l35.2-20.3c.9-.5,1.3-1.1,1.2-1.7A2.2,2.2,0,0,1,230.9,155.2Z"/><path class="t" d="M194.5,136.4a1.4,1.4,0,0,0-1.1.1l-33.5,19.3-1.7-1c-.3-.2-.2-.5.1-.6l35.1-20.3a1.1,1.1,0,0,1,1.1,0L229,153.8c.2.1.2.4-.1.6l-1.6.9Z"/><path class="u" d="M228.9,154.4c.3-.2.3-.5.1-.6l-34.5-19.9a1.1,1.1,0,0,0-1.1,0l-35.1,20.3c-.3.1-.4.4-.1.6l34.5,19.9a1.4,1.4,0,0,0,1.1-.1Z"/><path class="ad" d="M195.7,171.3,230.9,151a2.1,2.1,0,0,0,1.2-1.6h0v-6.3l-1.2,1-1.1-.6c.2-.1.2-.2.2-.3l-.5-.8-24.9-14.7-7.9-4.6-3-.9L157.5,143v.8l-1,.6-1.5-.7V150h0a1.3,1.3,0,0,0,.8,1.2L191,171.4A5.2,5.2,0,0,0,195.7,171.3ZM210,155.6l-15.9,8.7h-1.4L166,149.3l-7.3-3.8,34.7-20a1.4,1.4,0,0,1,1.1-.1L228.3,145Z"/><path class="ae" d="M195.7,171.3,230.9,151a2.1,2.1,0,0,0,1.2-1.6h0v-6.3l-1.2,1-1.1-.6c.2-.1.2-.2.2-.3l-.5-.8-24.9-14.7-7.9-4.6-3-.9L157.5,143v.8l-1,.6-1.5-.7V150h0a1.3,1.3,0,0,0,.8,1.2L191,171.4A5.2,5.2,0,0,0,195.7,171.3ZM210,155.6l-15.9,8.7h-1.4L166,149.3l-7.3-3.8,34.7-20a1.4,1.4,0,0,1,1.1-.1L228.3,145Z"/><path class="q" d="M193.2,171.9v-7.7h.9l15.9-8.7L228.3,145l-.6-.4,4.4-1.5v6.3h0a2.1,2.1,0,0,1-1.2,1.6l-35.2,20.3A5.1,5.1,0,0,1,193.2,171.9Z"/><path class="af" d="M195.7,164.8l35.2-20.3c1.4-.8,1.6-2,.4-2.7l-35.1-20.2a5.2,5.2,0,0,0-4.7.1L156.2,142c-1.4.8-1.5,2.1-.3,2.8L191,165A5.2,5.2,0,0,0,195.7,164.8Zm-1.9-1.2a1.4,1.4,0,0,1-1.1.1l-34.5-19.9c-.3-.2-.2-.4.1-.6l35.1-20.3a1.4,1.4,0,0,1,1.1,0L229,142.8c.2.1.2.4-.1.6Z"/><path class="ag" d="M195.7,164.8l35.2-20.3c1.4-.8,1.6-2,.4-2.7l-35.1-20.2a5.2,5.2,0,0,0-4.7.1L156.2,142c-1.4.8-1.5,2.1-.3,2.8L191,165A5.2,5.2,0,0,0,195.7,164.8Zm-1.9-1.2a1.4,1.4,0,0,1-1.1.1l-34.5-19.9c-.3-.2-.2-.4.1-.6l35.1-20.3a1.4,1.4,0,0,1,1.1,0L229,142.8c.2.1.2.4-.1.6Z"/><path class="d" d="M229,142.4l-34.5-19.9a1.4,1.4,0,0,0-1.1.1l-35.1,20.2c-.3.2-.3.4-.2.5h.2l35.1-20.3a1.4,1.4,0,0,1,1.1,0L229,142.8h.1C229.2,142.7,229.2,142.5,229,142.4Z"/><path class="d" d="M230.9,144.2l-35.2,20.3a5.2,5.2,0,0,1-4.7.2l-35.1-20.3a1.5,1.5,0,0,1-.8-1,1.4,1.4,0,0,0,.8,1.4L191,165a5.2,5.2,0,0,0,4.7-.2l35.2-20.3c.9-.5,1.3-1.1,1.2-1.7A2.2,2.2,0,0,1,230.9,144.2Z"/><path class="t" d="M194.5,125.4a1.4,1.4,0,0,0-1.1.1l-33.5,19.3-1.7-1c-.3-.2-.2-.4.1-.6l35.1-20.3a1.4,1.4,0,0,1,1.1,0L229,142.8c.2.1.2.4-.1.6l-1.6.9Z"/><path class="u" d="M228.9,143.4c.3-.2.3-.5.1-.6l-34.5-19.9a1.4,1.4,0,0,0-1.1,0l-35.1,20.3c-.3.2-.4.4-.1.6l34.5,19.9a1.4,1.4,0,0,0,1.1-.1Z"/><path class="ah" d="M150.5,230.2l35.2-20.3c.8-.5,1.2-1,1.2-1.6h0V202l-1.2,1.1-1.1-.6.2-.3-.5-.9-24.9-14.7-7.9-4.6-3.1-.9-36.1,20.8v.8l-1,.6-1.5-.7v6.3h0a1.2,1.2,0,0,0,.8,1.2l35.1,20.3A5.2,5.2,0,0,0,150.5,230.2Zm14.3-15.7-16,8.7h-1.3l-26.7-15-7.4-3.8,34.8-20a1.1,1.1,0,0,1,1.1,0l33.8,19.5Z"/><path class="ai" d="M150.5,230.2l35.2-20.3c.8-.5,1.2-1,1.2-1.6h0V202l-1.2,1.1-1.1-.6.2-.3-.5-.9-24.9-14.7-7.9-4.6-3.1-.9-36.1,20.8v.8l-1,.6-1.5-.7v6.3h0a1.2,1.2,0,0,0,.8,1.2l35.1,20.3A5.2,5.2,0,0,0,150.5,230.2Zm14.3-15.7-16,8.7h-1.3l-26.7-15-7.4-3.8,34.8-20a1.1,1.1,0,0,1,1.1,0l33.8,19.5Z"/><path class="ai" d="M147.9,230.8v-7.6h.9l16-8.7,18.3-10.6-.6-.4,4.4-1.5v6.3h0c0,.6-.4,1.1-1.2,1.6l-35.2,20.3A5.5,5.5,0,0,1,147.9,230.8Z"/><path class="aj" d="M150.5,223.7l35.2-20.2c1.4-.8,1.6-2.1.4-2.8L151,180.5a5.4,5.4,0,0,0-4.8.2L111,201c-1.4.8-1.5,2-.3,2.7l35.1,20.2A4.9,4.9,0,0,0,150.5,223.7Zm-2-1.1c-.3.1-.8.2-1,0L113,202.7c-.3-.1-.2-.4.1-.6l35.1-20.2a1.4,1.4,0,0,1,1.1-.1l34.4,19.9q.5.3,0,.6Z"/><path class="ak" d="M150.5,223.7l35.2-20.2c1.4-.8,1.6-2.1.4-2.8L151,180.5a5.4,5.4,0,0,0-4.8.2L111,201c-1.4.8-1.5,2-.3,2.7l35.1,20.2A4.9,4.9,0,0,0,150.5,223.7Zm-2-1.1c-.3.1-.8.2-1,0L113,202.7c-.3-.1-.2-.4.1-.6l35.1-20.2a1.4,1.4,0,0,1,1.1-.1l34.4,19.9q.5.3,0,.6Z"/><path class="d" d="M183.7,201.4l-34.4-19.9a1.1,1.1,0,0,0-1.1,0l-35.1,20.2c-.3.2-.4.4-.2.6a.2.2,0,0,1,.2-.2l35.1-20.2a1.4,1.4,0,0,1,1.1-.1l34.4,19.9h.2C184,201.7,183.9,201.5,183.7,201.4Z"/><path class="d" d="M185.7,203.1l-35.2,20.3a5.2,5.2,0,0,1-4.7.2l-35.1-20.3a1.1,1.1,0,0,1-.8-1,1.4,1.4,0,0,0,.8,1.4l35.1,20.2a4.9,4.9,0,0,0,4.7-.2l35.2-20.2a2.1,2.1,0,0,0,1.2-1.8A2.2,2.2,0,0,1,185.7,203.1Z"/><path class="t" d="M149.3,184.4a1.1,1.1,0,0,0-1.1,0l-33.5,19.3-1.7-1c-.3-.1-.2-.4.1-.6l35.1-20.2a1.4,1.4,0,0,1,1.1-.1l34.4,19.9q.5.3,0,.6l-1.7,1Z"/><path class="u" d="M183.7,202.3q.5-.3,0-.6l-34.4-19.9a1.4,1.4,0,0,0-1.1.1l-35.1,20.2c-.3.2-.4.5-.1.6l34.5,19.9c.2.2.7.1,1,0Z"/><path class="al" d="M150.5,219.2l35.2-20.3a1.9,1.9,0,0,0,1.2-1.6h0V191l-1.2,1.1-1.1-.6.2-.3-.5-.9-24.9-14.7-7.9-4.6-3.1-.9-36.1,20.8v.8l-1,.6-1.5-.7v6.3h0a1.2,1.2,0,0,0,.8,1.2l35.1,20.3A5.2,5.2,0,0,0,150.5,219.2Zm14.3-15.7-16,8.7h-1.3l-26.7-14.9-7.4-3.9,34.8-20a1.1,1.1,0,0,1,1.1,0l33.8,19.5Z"/><path class="am" d="M150.5,219.2l35.2-20.3a1.9,1.9,0,0,0,1.2-1.6h0V191l-1.2,1.1-1.1-.6.2-.3-.5-.9-24.9-14.7-7.9-4.6-3.1-.9-36.1,20.8v.8l-1,.6-1.5-.7v6.3h0a1.2,1.2,0,0,0,.8,1.2l35.1,20.3A5.2,5.2,0,0,0,150.5,219.2Zm14.3-15.7-16,8.7h-1.3l-26.7-14.9-7.4-3.9,34.8-20a1.1,1.1,0,0,1,1.1,0l33.8,19.5Z"/><path class="am" d="M147.9,219.9v-7.7h.9l16-8.7,18.3-10.6-.6-.3c.6-.4,3.8-1.3,4.4-1.6v6.4h0a1.9,1.9,0,0,1-1.2,1.6l-35.2,20.3A7.1,7.1,0,0,1,147.9,219.9Z"/><path class="an" d="M150.5,212.8l35.2-20.3c1.4-.8,1.6-2.1.4-2.8L151,169.5a5.4,5.4,0,0,0-4.8.2L111,190c-1.4.8-1.5,2-.3,2.7L145.8,213A5.2,5.2,0,0,0,150.5,212.8Zm-2-1.2a.9.9,0,0,1-1,0L113,191.7c-.3-.1-.2-.4.1-.6l35.1-20.2a1.4,1.4,0,0,1,1.1-.1l34.4,19.9c.3.2.3.5,0,.6Z"/><path class="ao" d="M150.5,212.8l35.2-20.3c1.4-.8,1.6-2.1.4-2.8L151,169.5a5.4,5.4,0,0,0-4.8.2L111,190c-1.4.8-1.5,2-.3,2.7L145.8,213A5.2,5.2,0,0,0,150.5,212.8Zm-2-1.2a.9.9,0,0,1-1,0L113,191.7c-.3-.1-.2-.4.1-.6l35.1-20.2a1.4,1.4,0,0,1,1.1-.1l34.4,19.9c.3.2.3.5,0,.6Z"/><path class="d" d="M183.7,190.4l-34.4-19.9a1.1,1.1,0,0,0-1.1,0l-35.1,20.3c-.3.1-.4.3-.2.5s.1-.1.2-.2l35.1-20.2a1.4,1.4,0,0,1,1.1-.1l34.4,19.9h.2C184,190.7,183.9,190.5,183.7,190.4Z"/><path class="d" d="M185.7,192.1l-35.2,20.3a5.2,5.2,0,0,1-4.7.2l-35.1-20.2a1.4,1.4,0,0,1-.8-1.1c-.1.6.2,1,.8,1.4L145.8,213a5.2,5.2,0,0,0,4.7-.2l35.2-20.3a2,2,0,0,0,1.2-1.7A2.4,2.4,0,0,1,185.7,192.1Z"/><path class="t" d="M149.3,173.4a1.1,1.1,0,0,0-1.1,0l-33.5,19.3-1.7-1c-.3-.1-.2-.4.1-.6l35.1-20.2a1.4,1.4,0,0,1,1.1-.1l34.4,19.9c.3.2.3.5,0,.6l-1.7,1Z"/><path class="u" d="M183.7,191.3c.3-.1.3-.4,0-.6l-34.4-19.9a1.4,1.4,0,0,0-1.1.1l-35.1,20.2c-.3.2-.4.5-.1.6l34.5,19.9a.9.9,0,0,0,1,0Z"/><path class="ap" d="M150.5,207l35.2-20.3a1.9,1.9,0,0,0,1.2-1.5h0v-6.4l-1.2,1.1-1.1-.6.2-.3-.5-.9-24.9-14.6-7.9-4.6-3.1-.9-36.1,20.7v.9l-1,.5-1.5-.7v6.4h0a1.4,1.4,0,0,0,.8,1.2l35.1,20.2A5.2,5.2,0,0,0,150.5,207Zm14.3-15.6-16,8.7h-1.3l-26.7-14.9-7.4-3.8,34.8-20a1.4,1.4,0,0,1,1.1-.1l33.8,19.5Z"/><path d="M150.5,207l35.2-20.3a1.9,1.9,0,0,0,1.2-1.5h0v-6.4l-1.2,1.1-1.1-.6.2-.3-.5-.9-24.9-14.6-7.9-4.6-3.1-.9-36.1,20.7v.9l-1,.5-1.5-.7v6.4h0a1.4,1.4,0,0,0,.8,1.2l35.1,20.2A5.2,5.2,0,0,0,150.5,207Zm14.3-15.6-16,8.7h-1.3l-26.7-14.9-7.4-3.8,34.8-20a1.4,1.4,0,0,1,1.1-.1l33.8,19.5Z"/><path d="M147.9,207.7V200h.9l16-8.7,18.3-10.7-.6-.3c.6-.3,3.8-1.2,4.4-1.6v6.4h0a1.9,1.9,0,0,1-1.2,1.5L150.5,207A5.6,5.6,0,0,1,147.9,207.7Z"/><path class="aq" d="M150.5,200.6l35.2-20.3c1.4-.8,1.6-2,.4-2.7L151,157.3a5.4,5.4,0,0,0-4.8.2L111,177.8c-1.4.8-1.5,2-.3,2.7l35.1,20.3A5.2,5.2,0,0,0,150.5,200.6Zm-2-1.2a1.2,1.2,0,0,1-1,.1L113,179.6c-.3-.2-.2-.5.1-.7l35.1-20.2a1.1,1.1,0,0,1,1.1,0l34.4,19.9c.3.1.3.4,0,.6Z"/><path class="ar" d="M150.5,200.6l35.2-20.3c1.4-.8,1.6-2,.4-2.7L151,157.3a5.4,5.4,0,0,0-4.8.2L111,177.8c-1.4.8-1.5,2-.3,2.7l35.1,20.3A5.2,5.2,0,0,0,150.5,200.6Zm-2-1.2a1.2,1.2,0,0,1-1,.1L113,179.6c-.3-.2-.2-.5.1-.7l35.1-20.2a1.1,1.1,0,0,1,1.1,0l34.4,19.9c.3.1.3.4,0,.6Z"/><path class="d" d="M183.7,178.2l-34.4-19.9a1.4,1.4,0,0,0-1.1.1l-35.1,20.2c-.3.1-.4.4-.2.5l.2-.2,35.1-20.2a1.1,1.1,0,0,1,1.1,0l34.4,19.9h.2A.4.4,0,0,0,183.7,178.2Z"/><path class="d" d="M185.7,180l-35.2,20.3a5.2,5.2,0,0,1-4.7.1l-35.1-20.2c-.5-.3-.8-.6-.8-1a1.2,1.2,0,0,0,.8,1.3l35.1,20.3a5.2,5.2,0,0,0,4.7-.2l35.2-20.3a1.9,1.9,0,0,0,1.2-1.7A2.2,2.2,0,0,1,185.7,180Z"/><path class="t" d="M149.3,161.2a1.4,1.4,0,0,0-1.1.1l-33.5,19.3-1.7-1c-.3-.2-.2-.5.1-.7l35.1-20.2a1.1,1.1,0,0,1,1.1,0l34.4,19.9c.3.1.3.4,0,.6l-1.7.9Z"/><path class="u" d="M183.7,179.2c.3-.2.3-.5,0-.6l-34.4-19.9a1.1,1.1,0,0,0-1.1,0l-35.1,20.2c-.3.2-.4.5-.1.7l34.5,19.9a1.2,1.2,0,0,0,1-.1Z"/><path class="as" d="M105.3,256.2l35.2-20.3a2,2,0,0,0,1.1-1.6h0V228l-1.2,1-1-.6.2-.3-.5-.9-24.9-14.6-7.9-4.6-3.1-.9L67,227.9l.2.8-1,.6-1.6-.7v6.3h0a1.5,1.5,0,0,0,.9,1.2l35,20.2A5.4,5.4,0,0,0,105.3,256.2Zm14.3-15.7-16,8.7h-1.4L75.6,234.2l-7.4-3.8,34.8-20a1.4,1.4,0,0,1,1.1-.1l33.8,19.6Z"/><path class="at" d="M105.3,256.2l35.2-20.3a2,2,0,0,0,1.1-1.6h0V228l-1.2,1-1-.6.2-.3-.5-.9-24.9-14.6-7.9-4.6-3.1-.9L67,227.9l.2.8-1,.6-1.6-.7v6.3h0a1.5,1.5,0,0,0,.9,1.2l35,20.2A5.4,5.4,0,0,0,105.3,256.2Zm14.3-15.7-16,8.7h-1.4L75.6,234.2l-7.4-3.8,34.8-20a1.4,1.4,0,0,1,1.1-.1l33.8,19.6Z"/><path class="q" d="M102.7,256.8v-7.7h.9l16-8.7,18.3-10.6-.6-.4c.5-.3,3.8-1.2,4.3-1.5v6.3h0a2,2,0,0,1-1.1,1.6l-35.2,20.3A5.8,5.8,0,0,1,102.7,256.8Z"/><path class="au" d="M105.3,249.7l35.2-20.3c1.4-.8,1.5-2,.3-2.7l-35.1-20.2a5.2,5.2,0,0,0-4.7.1L65.8,226.9c-1.4.8-1.6,2.1-.3,2.8l35,20.2A5.4,5.4,0,0,0,105.3,249.7Zm-2-1.2a1.4,1.4,0,0,1-1.1.1L67.8,228.7c-.3-.2-.3-.5,0-.6L103,207.8a1.1,1.1,0,0,1,1.1,0l34.4,19.9c.3.1.3.4-.1.6Z"/><path class="av" d="M105.3,249.7l35.2-20.3c1.4-.8,1.5-2,.3-2.7l-35.1-20.2a5.2,5.2,0,0,0-4.7.1L65.8,226.9c-1.4.8-1.6,2.1-.3,2.8l35,20.2A5.4,5.4,0,0,0,105.3,249.7Zm-2-1.2a1.4,1.4,0,0,1-1.1.1L67.8,228.7c-.3-.2-.3-.5,0-.6L103,207.8a1.1,1.1,0,0,1,1.1,0l34.4,19.9c.3.1.3.4-.1.6Z"/><path class="d" d="M138.5,227.3l-34.4-19.9a1.4,1.4,0,0,0-1.1.1L67.8,227.7c-.2.2-.3.4-.2.5h.2L103,207.8a1.1,1.1,0,0,1,1.1,0l34.4,19.9c.1,0,.1,0,.1.1S138.7,227.4,138.5,227.3Z"/><path class="d" d="M140.5,229.1l-35.2,20.3a5.4,5.4,0,0,1-4.8.2l-35-20.3c-.5-.3-.8-.6-.8-1a1.3,1.3,0,0,0,.8,1.4l35,20.2a5.4,5.4,0,0,0,4.8-.2l35.2-20.3c.8-.5,1.2-1.1,1.1-1.7S141.2,228.7,140.5,229.1Z"/><path class="t" d="M104.1,210.3a1.4,1.4,0,0,0-1.1.1L69.5,229.7l-1.7-1c-.3-.2-.3-.5,0-.6L103,207.8a1.1,1.1,0,0,1,1.1,0l34.4,19.9c.3.1.3.4-.1.6l-1.6.9Z"/><path class="u" d="M138.4,228.3c.4-.2.4-.5.1-.6l-34.4-19.9a1.1,1.1,0,0,0-1.1,0L67.8,228.1c-.3.1-.3.4,0,.6l34.4,19.9a1.4,1.4,0,0,0,1.1-.1Z"/><path class="aw" d="M105.3,245.2l35.2-20.3a1.9,1.9,0,0,0,1.1-1.6h0V217l-1.2,1-1-.6.2-.2-.5-.9-24.9-14.7-7.9-4.6-3.1-.9L67,216.9l.2.8-1,.6-1.6-.7v6.3h0a1.4,1.4,0,0,0,.9,1.2l35,20.3A5.4,5.4,0,0,0,105.3,245.2Zm14.3-15.7-16,8.7h-1.4L75.6,223.2l-7.4-3.8,34.8-20a1.1,1.1,0,0,1,1.1,0l33.8,19.5Z"/><path class="ax" d="M105.3,245.2l35.2-20.3a1.9,1.9,0,0,0,1.1-1.6h0V217l-1.2,1-1-.6.2-.2-.5-.9-24.9-14.7-7.9-4.6-3.1-.9L67,216.9l.2.8-1,.6-1.6-.7v6.3h0a1.4,1.4,0,0,0,.9,1.2l35,20.3A5.4,5.4,0,0,0,105.3,245.2Zm14.3-15.7-16,8.7h-1.4L75.6,223.2l-7.4-3.8,34.8-20a1.1,1.1,0,0,1,1.1,0l33.8,19.5Z"/><path class="q" d="M102.7,245.8v-7.6h.9l16-8.7,18.3-10.6-.6-.4c.5-.3,3.8-1.2,4.3-1.5v6.3h0a1.9,1.9,0,0,1-1.1,1.6l-35.2,20.3A5.8,5.8,0,0,1,102.7,245.8Z"/><path class="ay" d="M105.3,238.7l35.2-20.3c1.4-.8,1.5-2,.3-2.7l-35.1-20.2a5.2,5.2,0,0,0-4.7.2L65.8,216c-1.4.8-1.6,2-.3,2.7l35,20.2A5.4,5.4,0,0,0,105.3,238.7Zm-2-1.2a1.1,1.1,0,0,1-1.1.1L67.8,217.7q-.5-.3,0-.6L103,196.8a1.4,1.4,0,0,1,1.1,0l34.4,19.9c.3.2.3.4-.1.6Z"/><path class="az" d="M105.3,238.7l35.2-20.3c1.4-.8,1.5-2,.3-2.7l-35.1-20.2a5.2,5.2,0,0,0-4.7.2L65.8,216c-1.4.8-1.6,2-.3,2.7l35,20.2A5.4,5.4,0,0,0,105.3,238.7Zm-2-1.2a1.1,1.1,0,0,1-1.1.1L67.8,217.7q-.5-.3,0-.6L103,196.8a1.4,1.4,0,0,1,1.1,0l34.4,19.9c.3.2.3.4-.1.6Z"/><path class="d" d="M138.5,216.3l-34.4-19.8a1.1,1.1,0,0,0-1.1,0L67.8,216.7c-.2.2-.3.4-.2.6l.2-.2L103,196.8a1.4,1.4,0,0,1,1.1,0l34.4,19.9a.1.1,0,0,1,.1.1C138.8,216.6,138.7,216.5,138.5,216.3Z"/><path class="d" d="M140.5,218.1l-35.2,20.3a5.4,5.4,0,0,1-4.8.2l-35-20.3a1.1,1.1,0,0,1-.8-1,1.3,1.3,0,0,0,.8,1.4l35,20.2a5.4,5.4,0,0,0,4.8-.2l35.2-20.3a1.7,1.7,0,0,0,1.1-1.7C141.6,217.2,141.2,217.7,140.5,218.1Z"/><path class="t" d="M104.1,199.4a1.1,1.1,0,0,0-1.1,0L69.5,218.7l-1.7-1q-.5-.3,0-.6L103,196.8a1.4,1.4,0,0,1,1.1,0l34.4,19.9c.3.2.3.4-.1.6l-1.6,1Z"/><path class="u" d="M138.4,217.3c.4-.2.4-.4.1-.6l-34.4-19.9a1.4,1.4,0,0,0-1.1,0L67.8,217.1q-.5.3,0,.6l34.4,19.9a1.1,1.1,0,0,0,1.1-.1Z"/><path class="ba" d="M105.3,234.2l35.2-20.3a1.9,1.9,0,0,0,1.1-1.6h0V206l-1.2,1.1-1-.6.2-.3-.5-.9-24.9-14.7-7.9-4.6-3.1-.9L67,205.9l.2.8-1,.6-1.6-.7v6.3h0a1.4,1.4,0,0,0,.9,1.2l35,20.3A5.4,5.4,0,0,0,105.3,234.2Zm14.3-15.7-16,8.7h-1.4l-26.6-15-7.4-3.8,34.8-20a1.1,1.1,0,0,1,1.1,0l33.8,19.5Z"/><path class="bb" d="M105.3,234.2l35.2-20.3a1.9,1.9,0,0,0,1.1-1.6h0V206l-1.2,1.1-1-.6.2-.3-.5-.9-24.9-14.7-7.9-4.6-3.1-.9L67,205.9l.2.8-1,.6-1.6-.7v6.3h0a1.4,1.4,0,0,0,.9,1.2l35,20.3A5.4,5.4,0,0,0,105.3,234.2Zm14.3-15.7-16,8.7h-1.4l-26.6-15-7.4-3.8,34.8-20a1.1,1.1,0,0,1,1.1,0l33.8,19.5Z"/><path class="q" d="M102.7,234.8v-7.6h.9l16-8.7,18.3-10.6-.6-.4c.5-.3,3.8-1.2,4.3-1.5v6.3h0a1.9,1.9,0,0,1-1.1,1.6l-35.2,20.3A5.8,5.8,0,0,1,102.7,234.8Z"/><path class="bc" d="M105.3,227.7l35.2-20.2c1.4-.8,1.5-2.1.3-2.8l-35.1-20.2a5.2,5.2,0,0,0-4.7.2L65.8,205c-1.4.8-1.6,2-.3,2.7l35,20.2A5.1,5.1,0,0,0,105.3,227.7Zm-2-1.1a1.4,1.4,0,0,1-1.1,0L67.8,206.7c-.3-.1-.3-.4,0-.6L103,185.9a1.4,1.4,0,0,1,1.1-.1l34.4,19.9c.3.2.3.4-.1.6Z"/><path class="bd" d="M105.3,227.7l35.2-20.2c1.4-.8,1.5-2.1.3-2.8l-35.1-20.2a5.2,5.2,0,0,0-4.7.2L65.8,205c-1.4.8-1.6,2-.3,2.7l35,20.2A5.1,5.1,0,0,0,105.3,227.7Zm-2-1.1a1.4,1.4,0,0,1-1.1,0L67.8,206.7c-.3-.1-.3-.4,0-.6L103,185.9a1.4,1.4,0,0,1,1.1-.1l34.4,19.9c.3.2.3.4-.1.6Z"/><path class="d" d="M138.5,205.4l-34.4-19.9a1.1,1.1,0,0,0-1.1,0L67.8,205.7c-.2.2-.3.4-.2.6l.2-.2L103,185.9a1.4,1.4,0,0,1,1.1-.1l34.4,19.9a.1.1,0,0,1,.1.1C138.8,205.7,138.7,205.5,138.5,205.4Z"/><path class="d" d="M140.5,207.1l-35.2,20.3a5.4,5.4,0,0,1-4.8.2l-35-20.3a1.1,1.1,0,0,1-.8-1,1.3,1.3,0,0,0,.8,1.4l35,20.2a5.1,5.1,0,0,0,4.8-.2l35.2-20.2a1.9,1.9,0,0,0,1.1-1.8C141.6,206.2,141.2,206.7,140.5,207.1Z"/><path class="t" d="M104.1,188.4a1.1,1.1,0,0,0-1.1,0L69.5,207.7l-1.7-1c-.3-.1-.3-.4,0-.6L103,185.9a1.4,1.4,0,0,1,1.1-.1l34.4,19.9c.3.2.3.4-.1.6l-1.6,1Z"/><path class="u" d="M138.4,206.3c.4-.2.4-.4.1-.6l-34.4-19.9a1.4,1.4,0,0,0-1.1.1L67.8,206.1c-.3.2-.3.5,0,.6l34.4,19.9a1.4,1.4,0,0,0,1.1,0Z"/><path class="be" d="M105.3,223.2l35.2-20.3a1.8,1.8,0,0,0,1.1-1.6h0V195l-1.2,1.1-1-.6.2-.3-.5-.9-24.9-14.7-7.9-4.6-3.1-.9L67,194.9l.2.8-1,.6-1.6-.7v6.3h0a1.4,1.4,0,0,0,.9,1.2l35,20.3A5.4,5.4,0,0,0,105.3,223.2Zm14.3-15.7-16,8.7h-1.4L75.6,201.3l-7.4-3.9,34.8-20a1.1,1.1,0,0,1,1.1,0l33.8,19.5Z"/><path class="bf" d="M105.3,223.2l35.2-20.3a1.8,1.8,0,0,0,1.1-1.6h0V195l-1.2,1.1-1-.6.2-.3-.5-.9-24.9-14.7-7.9-4.6-3.1-.9L67,194.9l.2.8-1,.6-1.6-.7v6.3h0a1.4,1.4,0,0,0,.9,1.2l35,20.3A5.4,5.4,0,0,0,105.3,223.2Zm14.3-15.7-16,8.7h-1.4L75.6,201.3l-7.4-3.9,34.8-20a1.1,1.1,0,0,1,1.1,0l33.8,19.5Z"/><path class="q" d="M102.7,223.9v-7.7h.9l16-8.7,18.3-10.6-.6-.3c.5-.4,3.8-1.3,4.3-1.6v6.4h0a1.8,1.8,0,0,1-1.1,1.6l-35.2,20.3A7.7,7.7,0,0,1,102.7,223.9Z"/><path class="bg" d="M105.3,216.8l35.2-20.3c1.4-.8,1.5-2.1.3-2.8l-35.1-20.2a5.2,5.2,0,0,0-4.7.2L65.8,194c-1.4.8-1.6,2-.3,2.7l35,20.3A5.4,5.4,0,0,0,105.3,216.8Zm-2-1.2a1.1,1.1,0,0,1-1.1,0L67.8,195.7c-.3-.1-.3-.4,0-.6L103,174.9a1.4,1.4,0,0,1,1.1-.1l34.4,19.9c.3.2.3.5-.1.6Z"/><path class="bh" d="M105.3,216.8l35.2-20.3c1.4-.8,1.5-2.1.3-2.8l-35.1-20.2a5.2,5.2,0,0,0-4.7.2L65.8,194c-1.4.8-1.6,2-.3,2.7l35,20.3A5.4,5.4,0,0,0,105.3,216.8Zm-2-1.2a1.1,1.1,0,0,1-1.1,0L67.8,195.7c-.3-.1-.3-.4,0-.6L103,174.9a1.4,1.4,0,0,1,1.1-.1l34.4,19.9c.3.2.3.5-.1.6Z"/><path class="d" d="M138.5,194.4l-34.4-19.9a1.1,1.1,0,0,0-1.1,0L67.8,194.8a.4.4,0,0,0-.2.5l.2-.2L103,174.9a1.4,1.4,0,0,1,1.1-.1l34.4,19.9h.1C138.8,194.7,138.7,194.5,138.5,194.4Z"/><path class="d" d="M140.5,196.1l-35.2,20.3a5.4,5.4,0,0,1-4.8.2l-35-20.2a1.4,1.4,0,0,1-.8-1.1c-.1.6.1,1,.8,1.4l35,20.3a5.4,5.4,0,0,0,4.8-.2l35.2-20.3a1.9,1.9,0,0,0,1.1-1.7C141.6,195.2,141.2,195.7,140.5,196.1Z"/><path class="t" d="M104.1,177.4a1.1,1.1,0,0,0-1.1,0L69.5,196.7l-1.7-1c-.3-.1-.3-.4,0-.6L103,174.9a1.4,1.4,0,0,1,1.1-.1l34.4,19.9c.3.2.3.5-.1.6l-1.6,1Z"/><path class="u" d="M138.4,195.3c.4-.1.4-.4.1-.6l-34.4-19.9a1.4,1.4,0,0,0-1.1.1L67.8,195.1c-.3.2-.3.5,0,.6l34.4,19.9a1.1,1.1,0,0,0,1.1,0Z"/></g><path class="bi" d="M178.8,199.8a2,2,0,0,1-.6,1.2c-.4.2-.7,0-.7-.4a1.4,1.4,0,0,1,.7-1.2C178.5,199.1,178.8,199.3,178.8,199.8Z"/><path class="bi" d="M181.3,198.4a1.9,1.9,0,0,1-.7,1.2c-.4.2-.7,0-.7-.4a1.4,1.4,0,0,1,.7-1.2A.4.4,0,0,1,181.3,198.4Z"/><path class="bi" d="M183.7,197a1.5,1.5,0,0,1-.7,1.2c-.4.2-.7,0-.7-.4a1.4,1.4,0,0,1,.7-1.2C183.4,196.4,183.7,196.5,183.7,197Z"/><path class="bi" d="M223.7,163a1.4,1.4,0,0,1-.7,1.2.4.4,0,0,1-.7-.4,1.9,1.9,0,0,1,.7-1.2C223.4,162.4,223.7,162.6,223.7,163Z"/><path class="bi" d="M226.1,161.6a1.4,1.4,0,0,1-.7,1.2c-.3.2-.6.1-.6-.4a1.7,1.7,0,0,1,.6-1.2C225.8,161,226.1,161.2,226.1,161.6Z"/><path class="bi" d="M228.5,160.2a1.6,1.6,0,0,1-.6,1.2c-.4.3-.7.1-.7-.4a1.7,1.7,0,0,1,.7-1.2C228.2,159.6,228.5,159.8,228.5,160.2Z"/><path class="bi" d="M133.5,236.7a1.4,1.4,0,0,1-.7,1.2c-.4.2-.7.1-.7-.4a1.5,1.5,0,0,1,.7-1.2C133.2,236.1,133.5,236.3,133.5,236.7Z"/><path class="bi" d="M135.9,235.3a1.4,1.4,0,0,1-.7,1.2c-.4.3-.7.1-.7-.4a1.7,1.7,0,0,1,.7-1.2C135.6,234.7,135.9,234.9,135.9,235.3Z"/><path class="bi" d="M138.3,233.9a1.4,1.4,0,0,1-.7,1.2c-.4.3-.7.1-.7-.4a1.7,1.7,0,0,1,.7-1.2C138,233.3,138.3,233.5,138.3,233.9Z"/><path class="e" d="M244.4,369.6a5.6,5.6,0,0,1-2.3-.5h0l-62.5-36.3a1.9,1.9,0,0,1-1-1.5,2.3,2.3,0,0,1,1.4-1.9l62.9-36.3a5.9,5.9,0,0,1,5.3-.2l62.5,36.3a1.7,1.7,0,0,1,1,1.5,2.3,2.3,0,0,1-1.4,1.9l-62.9,36.3A5.8,5.8,0,0,1,244.4,369.6Zm-2-1a5.1,5.1,0,0,0,4.8-.2l62.9-36.3c.7-.4,1.1-.9,1.1-1.4a1.4,1.4,0,0,0-.8-1.1L248,293.3a5.6,5.6,0,0,0-4.9.2l-62.9,36.4c-.7.4-1.1.9-1.1,1.4a1.1,1.1,0,0,0,.8,1Z"/><path class="bj" d="M242.1,354.9l-60.2-35c-1.2-.7-1.1-2,.4-2.8l61-35.3a5.9,5.9,0,0,1,5-.2l60.1,35c1.3.7,1.1,2-.4,2.8l-61,35.3A5.7,5.7,0,0,1,242.1,354.9Z"/><path class="bk" d="M311.5,313.3,290,311.9l-41.9-24.4a5.4,5.4,0,0,0-5.1.2l-47.2,27.2-16.9-1.1v11.9h0a1.5,1.5,0,0,0,.9,1.2l62.4,36.3a5.4,5.4,0,0,0,5.1-.2l62.9-36.3c.8-.5,1.2-1,1.2-1.6h.1Z"/><path class="bl" d="M311.5,305.3,290,303.9l-41.9-24.4a5.7,5.7,0,0,0-5.1.2L195.8,307l-16.9-1.1v11.8h0c0,.5.3.9.9,1.3l62.4,36.3a6.1,6.1,0,0,0,5.1-.2l62.9-36.4a1.9,1.9,0,0,0,1.2-1.6h.1Z"/><path class="bm" d="M311.5,305.3,290,303.9l-41.9-24.4a5.7,5.7,0,0,0-5.1.2L195.8,307l-16.9-1.1v11.8h0c0,.5.3.9.9,1.3l62.4,36.3a6.1,6.1,0,0,0,5.1-.2l62.9-36.4a1.9,1.9,0,0,0,1.2-1.6h.1Z"/><path class="bn" d="M242.2,343.4l-62.4-36.3c-1.3-.8-1.2-2.1.3-3L243,267.8a5.7,5.7,0,0,1,5.1-.2l62.5,36.3c1.3.8,1.1,2.1-.4,2.9l-62.9,36.4A6.1,6.1,0,0,1,242.2,343.4Z"/><path class="h" d="M242.2,343.4l-62.4-36.3c-1.3-.8-1.2-2.1.3-3L243,267.8a5.7,5.7,0,0,1,5.1-.2l62.5,36.3c1.3.8,1.1,2.1-.4,2.9l-62.9,36.4A6.1,6.1,0,0,1,242.2,343.4Z"/><path class="m" d="M310.2,305.8l-62.9,36.3a6.1,6.1,0,0,1-5.1.2L179.8,306a1.5,1.5,0,0,1-.8-.8,1.4,1.4,0,0,0,.8,1.9l62.4,36.3a6.1,6.1,0,0,0,5.1-.2l62.9-36.4c1.1-.6,1.5-1.4,1.1-2.1A2.9,2.9,0,0,1,310.2,305.8Z"/><ellipse class="bo" cx="245.5" cy="304.9" rx="23.2" ry="13.4"/><path class="bi" d="M245.4,305.2a18.4,18.4,0,0,1-4.3.4c-2.1,0-7.9.9-7.9,3.1s2.9,5.4,6.7,6,8.6-.2,11.1,0a3.5,3.5,0,0,0,3.4-4.7C253.5,307.6,245.4,305.2,245.4,305.2Z"/><path class="bi" d="M258.4,300.1s.8,1.3.3,2.1-1.5,2.7-4.9.6-9.8-5.1-9.8-5.1-3.7-2.2-3.4-4.6,3.8-1.8,3.8-1.8Z"/><path class="bp" d="M237.7,265.2s.7,15.5,3.5,21.6,3.3,17,3.8,19.2,2.5,5.2,5.7,6,3.8-1.4,3.7-2.7-.9-3.5-.8-4.9a10.9,10.9,0,0,1,.5-2.8s3.6,1.3,4.3-1.5l-.3-1.3c0-.4.9-10.8,1-12a53.6,53.6,0,0,0-1-11.5c-.9-3.3-.2-10.4-.2-10.4L247.4,263Z"/><path class="bq" d="M254.7,265.9a11.4,11.4,0,0,1-1.2,4.4s-.4,8.2-1.5,12.4c0,0,1,8.4,1.7,11.1s.4,7.8.4,7.8l1,.3c.6,0,1.1-10.2.3-12.1s-1.1-9.8-.7-12.3.7-9.3,1.2-10.5a1.6,1.6,0,0,0-.5-1.9Z"/><path class="l" d="M248.6,209.6a7.6,7.6,0,0,0-3.2,5.9l2.3-.3S247.2,210.9,248.6,209.6Z"/><path class="bq" d="M246.9,268.9c7,.6,10.9-2.3,10.9-2.3a13.3,13.3,0,0,1,.1-1.7L247.4,263l-9.7,2.2s.1,3,.5,7c1.7.3,3.6-3.9,3.6-3.9l4.8.6S239.9,268.4,246.9,268.9Z"/><path class="br" d="M239,265.5s14.9,6.9,22.8-4.5a2.1,2.1,0,0,0,.4-1.1v-2.8a3.6,3.6,0,0,1,.2-1h0a3.3,3.3,0,0,0,.2-2.2l-1.8-13.8c-.3-2.8,1.8-14,4.5-18.8s-3.1-15.8-3.1-15.8a4.1,4.1,0,0,0-4.5-1.9s2.8,2.2,1.1,4.3-6.6,3.6-6.6,3.6-9.1,4.2-12.4,9.6a24.3,24.3,0,0,0-1.5,6.6c-.2,3.7-.3,12.6-.5,13.9s-1.1,9.7-1,10.1S239,265.5,239,265.5Z"/><path class="bs" d="M259,205.3a2,2,0,0,0,0-1.7h-1.3A6.2,6.2,0,0,1,259,205.3Z"/><path class="bt" d="M243.6,267s10.1-23.7,10.1-32.5-13.9,16.7-13.9,16.7l-.8,14.3A26.4,26.4,0,0,0,243.6,267Z"/><path class="bu" d="M262.3,253.8a1.6,1.6,0,0,0-.2,1v2.7a2,2,0,0,1-.3,1.1C253.8,269.9,239,263,239,263l-2.1-12.7c-.1.8-.2,1.3-.1,1.4s2.2,13.8,2.2,13.8,14.9,6.9,22.8-4.5a2.1,2.1,0,0,0,.4-1.1v-2.8a3.6,3.6,0,0,1,.2-1,3.3,3.3,0,0,0,.2-2.2,4.5,4.5,0,0,0-.1-1.1C262.4,253.1,262.4,253.4,262.3,253.8Z"/><path class="bv" d="M265.2,219.2c-2.7,4.7-4.8,15.9-4.5,18.7,0,.2.1.6.1,1,.2-4.1,2.1-13.3,4.5-17.6a7.7,7.7,0,0,0,.6-5.1A5.6,5.6,0,0,1,265.2,219.2Z"/><path class="br" d="M240.1,238.2a38.2,38.2,0,0,0,.9-5.9c.2-3.4,1.4-9,7.6-7.7,8.7,1.8,4.3,13.9,3.3,16s-5.4,11.7-5.7,12.2-6.8,12.4-9.1,15.2c-.3.2-.6.3-.8,0s-2.8-2.6-3-3.8,1.3-6.6,1.3-6.6,4-13,4.4-13.6S239.5,241.4,240.1,238.2Z"/><path class="bw" d="M248.7,209.9a2.9,2.9,0,0,0-2.2-1.8c-1.6-.3-2.5-.8-2.6-1.4a13.1,13.1,0,0,0-.5-2.2,23.1,23.1,0,0,1-.6-3.2c.1,0-1.2-.4-1.2-1s.7-2.4.6-2.6a5.8,5.8,0,0,1-.5-2.2,9.6,9.6,0,0,1,.9-3.4c.5-1.1,4.3-7.7,13-3.8s1.6,11.2,2.2,16.1c0,0,.8,1.1-.8,2.8S251.2,209,248.7,209.9Z"/><path class="bx" d="M257,207.2c1.6-1.7.8-2.8.8-2.8a7.6,7.6,0,0,1,.1-2.1l-3.5.5s-5-4.9-4.7-2.4-1,2.9-1,2.9l1,1.4c.2.3,0,.7-.2,1.1-1.6,2.5-5.2,1.5-5.2,1.5a5.1,5.1,0,0,0,2.2.8,2.9,2.9,0,0,1,2.2,1.8C251.2,209,255.5,208.9,257,207.2Z"/><path class="by" d="M242.3,189.5s-.7,1.8.3,2.6a21.8,21.8,0,0,0,1.8,1.6V196a3,3,0,0,0,.2,1l1.2,2a2.8,2.8,0,0,1,.3,1.3v.9c0,.3.2.6.4.6h.4a.6.6,0,0,0,.6-.5l.2-1.3s.7-1,2.1.3l1.3.6a1.6,1.6,0,0,1,.7.9c.3,1,1,3,1.6,3.4s3.9-1,4.4-1.7,1.7-5.3,2.4-7.5.7-7.6-5.9-9.4S243.3,187.6,242.3,189.5Z"/><path class="bz" d="M257.7,203.6c.4-.6,1.7-5.3,2.4-7.5a16.3,16.3,0,0,1-6,2c-3.3.3-9.7-3.8-9.7-3.8V196a3,3,0,0,0,.2,1l1.2,2a2.8,2.8,0,0,1,.3,1.3v.9c0,.3.2.6.4.6h.4a.6.6,0,0,0,.6-.5l.2-1.3s.7-1,2.1.3l1.8.9s1,3.5,1.8,4S257.2,204.3,257.7,203.6Z"/><path class="ca" d="M257.8,203.9s2.5,1.7,1.1,3.9-10.9,5.7-11.4,6.3-.2-3.4,1.1-4.5,7.2-1,8.4-2.8A3.5,3.5,0,0,0,257.8,203.9Z"/><path class="cb" d="M257.8,203.9a3.5,3.5,0,0,1-.8,2.9c-.9,1.4-5.3,2.3-7.3,2.7h0s.7.4,1.9,2.6c2.9-1.3,6.5-3,7.3-4.3S257.8,203.9,257.8,203.9Z"/><path class="cc" d="M259.2,211.1l-6.4,3.2c-2.1,1-4.3,2.3-4.3,2.3l-.8-.8-1,2a30.8,30.8,0,0,0-4.9,3.3,15.7,15.7,0,0,0-2.9,4s4.2-5,7.4-6.4l.9-.4.5-1.6.7.9S257.8,212.5,259.2,211.1Z"/><path class="cd" d="M245,281.1h0a1.6,1.6,0,0,0-.5-1L228.2,265c-.5-.4-.9-.2-1,.6l-2.9,16.6a2.9,2.9,0,0,0,.6,2.1l13.7,13.1-.7,4.8,4.4-1.7h0a.8.8,0,0,0,.4-.8l2.5-17.3A2.5,2.5,0,0,0,245,281.1Z"/><path class="ce" d="M223.4,266.4l4.1-1.6h.2a.6.6,0,0,1,.5.2l16.3,15.1a1.6,1.6,0,0,1,.5,1l-.6.2h0l-3.5,1.5-14.4-13.5h0Z"/><path class="cf" d="M220.6,286l16.7,16c.5.5,1,.2,1.1-.6l2.5-17.5a2.5,2.5,0,0,0-.6-2.1L224,266.6c-.4-.4-.9-.2-1,.6l-2.9,16.6A2.6,2.6,0,0,0,220.6,286Z"/><path class="cg" d="M240.6,300.5l2.5-17.4a3,3,0,0,0-.6-2.2l-16.4-15.2a.5.5,0,0,0-.4-.2.7.7,0,0,1,.6.2l16.3,15.2a2.2,2.2,0,0,1,.6,2.1l-2.4,17.4c-.1.6-.4.9-.7.9S240.5,300.9,240.6,300.5Z"/><path class="cg" d="M235.6,274.4l.9-.4h.6l.2.2v.2l-2.5,1.1v-.2c0-.1.1-.2.2-.4h.1Z"/><polygon class="cg" points="235.8 276.6 234.7 275.5 237.2 274 238.4 275.1 235.8 276.6"/><path class="ch" d="M236.8,275.5l.9-.4h.6a.4.4,0,0,1,.1.3h0l-2.6,1.2v-.2c.1-.1.1-.3.2-.4h.1Z"/><polygon class="ci" points="237.3 275.9 237.4 275.2 237.3 275.2 237.2 276 237.3 275.9"/><polygon class="ci" points="237.4 275.2 236.2 274.2 236.1 274.2 237.3 275.2 237.4 275.2"/><path class="cg" d="M230.4,269.6l.9-.4h.6c.1.1.2.2.1.3v.2l-2.6,1.1v-.2a.8.8,0,0,1,.2-.4h.1Z"/><polygon class="cg" points="230.6 271.7 229.4 270.7 232 269.2 233.1 270.2 230.6 271.7"/><path class="cj" d="M231.5,270.6l1-.3c.2-.1.3-.2.5-.1h.1c.1,0,.1.1.1.3h0l-2.6,1.1h0a.5.5,0,0,1,.2-.4h.1Z"/><polygon class="ci" points="232 271.1 232.2 270.4 232.1 270.4 232 271.1 232 271.1"/><polygon class="ci" points="232.2 270.4 231 269.3 230.9 269.4 232.1 270.4 232.2 270.4"/><path class="ce" d="M238,271.7l-.4,3.1-.8-.7.4-3a1.6,1.6,0,0,0-.4-1.3l-3.3-3.1c-.3-.2-.6-.1-.7.3l-.5,3-.7-.7.5-3.1c.1-.9.8-1.2,1.4-.6l3.6,3.3A3.2,3.2,0,0,1,238,271.7Z"/><path class="ce" d="M232.3,266.5h1.4l4,4.1v4.3l-1,.5v-4.2l-.8-1.3a19.2,19.2,0,0,1-1.5-1.4Z"/><polygon class="ce" points="231.4 270.4 232.3 270 232.7 267.8 231.8 267.8 231.5 267.9 231.4 270.4"/><path class="ce" d="M231.7,265.8l1-.5-.3.5h-.7Z"/><path class="cg" d="M237.1,272.2l-.5,3.1-.8-.8.5-3a1.6,1.6,0,0,0-.4-1.3l-3.4-3.1c-.2-.2-.5-.1-.6.3l-.5,3-.8-.7.5-3c.2-1,.8-1.3,1.5-.7l3.6,3.3A4,4,0,0,1,237.1,272.2Z"/><path class="bw" d="M233.6,264.1s-.8,3-.6,3.8a4.7,4.7,0,0,0,2.4,2.6c.8.3.5-.7.7-1.4a6.2,6.2,0,0,0,.3-2Z"/><path class="ck" d="M236.4,267.1l-2.8-3a8.1,8.1,0,0,0-.3,1.4,7.6,7.6,0,0,0,2.9,3.3A7.6,7.6,0,0,0,236.4,267.1Z"/><path class="cl" d="M233.3,264.3s.9,3.4,3.6,3.8l-.8-3.6-2.2-.8C233.8,263.7,233.3,264.3,233.3,264.3Z"/><path class="cm" d="M252.3,226.7c2.1,7.5-4.6,18.7-5.6,22.1s-11.1,18.6-11.1,18.6h0v.2l.6.4.4.2h0a.7.7,0,0,0,.6-.2c2.3-2.8,8.9-14.7,9.1-15.2s4.6-10.1,5.7-12.2S255.7,230.7,252.3,226.7Z"/></g></svg>