<svg xmlns="http://www.w3.org/2000/svg" xmlns:xlink="http://www.w3.org/1999/xlink" viewBox="0 0 400 400"><defs><style>.a{fill:none;}.b{isolation:isolate;}.c{fill:url(#a);}.d{fill:#d1ebff;}.e{fill-rule:evenodd;opacity:0.61;fill:url(#b);}.f{font-size:43.01px;font-family:AdobeArabic-Regular, Adobe Arabic;}.f,.p{fill:#fff;}.g,.x{fill:#42e8e0;}.h{fill:#21e2e2;}.i{fill:url(#c);}.j{fill:url(#d);}.k{fill:#4ea4f9;}.l{fill:url(#e);}.m{fill:url(#f);}.n,.t{fill:#0f054c;}.cb,.ck,.n{opacity:0.5;}.o{fill:#0050af;}.q{clip-path:url(#g);}.r{fill:url(#h);}.s{fill:url(#i);}.t{opacity:0.6;}.u{fill:url(#j);}.v{fill:url(#k);}.w{fill:#251c72;}.x{opacity:0.7;}.y{fill:url(#l);}.z{fill:url(#m);}.aa{fill:url(#n);}.ab{fill:url(#o);}.ac{fill:url(#p);}.ad{fill:url(#q);}.ae{fill:url(#r);}.af{fill:url(#s);}.ag{fill:url(#t);}.ah{fill:url(#u);}.ai{fill:url(#v);}.aj{fill:url(#w);}.ak{fill:url(#x);}.al{fill:url(#y);}.am{fill:url(#z);}.an{fill:url(#aa);}.ao{fill:url(#ab);}.ap{fill:url(#ac);}.aq{fill:url(#ad);}.ar{fill:url(#ae);}.as{fill:url(#af);}.at{fill:url(#ag);}.au{fill:url(#ah);}.av{fill:url(#ai);}.aw{fill:url(#aj);}.ax{fill:url(#ak);}.ay{fill:url(#al);}.az{fill:url(#am);}.ba{fill:url(#an);}.bb{fill:url(#ao);}.bc{fill:url(#ap);}.bd{fill:url(#aq);}.be{fill:url(#ar);}.bf{fill:url(#as);}.bg{fill:url(#at);}.bh{fill:url(#au);}.bi{fill:url(#av);}.bj{fill:url(#aw);}.bk{fill:url(#ax);}.bl{fill:url(#ay);}.bm{fill:url(#az);}.bn{fill:url(#ba);}.bo{fill:url(#bb);}.bp{fill:url(#bc);}.bq{fill:#f59b6b;}.br{fill:url(#bd);}.bs{fill:#37b5e8;opacity:0.2;}.bt{fill:url(#be);}.bu{fill:url(#bf);}.bv{fill:url(#bg);}.bw,.co{fill:#160a5b;}.bw{opacity:0.3;}.bx{fill:#1f364c;}.by{fill:#152735;}.bz{fill:#379ae3;}.ca{fill:url(#bh);}.cb,.ck{mix-blend-mode:overlay;}.cb{fill:url(#bi);}.cc{fill:url(#bj);}.cd{fill:url(#bk);}.ce{fill:#ffe7cb;}.cf,.cs{fill:#e2b1a6;}.cf{opacity:0.46;}.cg{fill:#0e71bb;}.ch{fill:url(#bl);}.ci{fill:#f0f6ff;}.cj{fill:#c4ccd6;}.ck{fill:url(#bm);}.cl{fill:url(#bn);}.cm{fill:#453c9e;}.cn{fill:#24126a;}.cp{fill:url(#bo);}.cq{fill:#722318;}.cr{fill:url(#bp);}.ct{fill:#4846a5;}.cu{fill:url(#bq);}</style><linearGradient id="a" x1="223.83" y1="367.91" x2="175.61" y2="94.46" gradientUnits="userSpaceOnUse"><stop offset="0" stop-color="#c6e6ff"/><stop offset="1" stop-color="#fff"/></linearGradient><linearGradient id="b" x1="179.47" y1="166.77" x2="383.44" y2="166.77" gradientUnits="userSpaceOnUse"><stop offset="0" stop-color="#288ed9"/><stop offset="1" stop-color="#137fcf" stop-opacity="0.05"/></linearGradient><linearGradient id="c" x1="-285.45" y1="-25.84" x2="-112.57" y2="-25.84" gradientTransform="matrix(0.87, -0.5, 0, 1.15, 319.02, 118)" gradientUnits="userSpaceOnUse"><stop offset="0" stop-color="#5778ff"/><stop offset="0.18" stop-color="#5c7dff"/><stop offset="0.39" stop-color="#6a8aff"/><stop offset="0.61" stop-color="#82a0ff"/><stop offset="0.85" stop-color="#a3beff"/><stop offset="1" stop-color="#bcd5ff"/></linearGradient><radialGradient id="d" cx="-202.21" cy="185.95" fx="-269.55972371101905" fy="162.19462587994676" r="71.41" gradientTransform="translate(309.2)" gradientUnits="userSpaceOnUse"><stop offset="0" stop-color="#2b3aa5"/><stop offset="1" stop-color="#182484"/></radialGradient><linearGradient id="e" x1="-251.94" y1="3.26" x2="-79.06" y2="3.26" gradientTransform="matrix(0.87, -0.5, 0, 1.15, 319.02, 118)" gradientUnits="userSpaceOnUse"><stop offset="0" stop-color="#706ec4"/><stop offset="0.02" stop-color="#6d6bc2"/><stop offset="0.25" stop-color="#5651ac"/><stop offset="0.49" stop-color="#463f9d"/><stop offset="0.73" stop-color="#3c3494"/><stop offset="1" stop-color="#393091"/></linearGradient><linearGradient id="f" x1="-717.44" y1="-224.73" x2="-290.45" y2="-39.65" gradientTransform="matrix(0.87, -0.5, 0, 1.15, 319.02, 118)" gradientUnits="userSpaceOnUse"><stop offset="0" stop-color="#bcbeff"/><stop offset="0.23" stop-color="#aaadf8"/><stop offset="0.68" stop-color="#7c83e5"/><stop offset="1" stop-color="#5761d7"/></linearGradient><clipPath id="g"><path class="a" d="M197.8,157.7c-4.4,0-9.4,1.5-14.6,4.5-12.2,7.1-23.6,21.3-29.7,37.2l-.6,1.6h-1.7a10.8,10.8,0,0,0-5.5,1.8c-7.7,4.4-14.3,15.8-14.3,24.8v3l-2.5.2a16,16,0,0,0-6.9,2.3c-10.3,6-18.7,20.5-18.7,32.4,0,5.2,1.6,9,4.6,10.7s7,1.2,11.5-1.4l105.7-61c12.5-7.2,22.8-25,22.8-39.5,0-6.5-2.1-11.2-5.8-13.4s-8.9-1.5-14.5,1.7h0a39.9,39.9,0,0,0-9.9,8.4l-3,3.4-1.4-4.4c-1.7-5.6-5.1-9.6-9.6-11.3A16.8,16.8,0,0,0,197.8,157.7Z"/></clipPath><linearGradient id="h" x1="-1.41" y1="981.57" x2="34.39" y2="981.57" gradientTransform="matrix(0.5, 0.87, 0.87, -0.5, -658.78, 674.54)" gradientUnits="userSpaceOnUse"><stop offset="0" stop-color="#bcbeff"/><stop offset="0.17" stop-color="#b6b8fc"/><stop offset="0.4" stop-color="#a4a8f5"/><stop offset="0.66" stop-color="#868dea"/><stop offset="0.96" stop-color="#5e67da"/><stop offset="1" stop-color="#5761d7"/></linearGradient><linearGradient id="i" x1="-1.41" y1="981.57" x2="34.39" y2="981.57" gradientTransform="matrix(0.5, 0.87, 0.87, -0.5, -658.78, 674.54)" xlink:href="#e"/><linearGradient id="j" x1="-10.94" y1="983.26" x2="28.48" y2="983.26" xlink:href="#h"/><linearGradient id="k" x1="-16.38" y1="983.26" x2="54.74" y2="983.26" gradientTransform="matrix(0.5, 0.87, 0.87, -0.5, -658.78, 674.54)" xlink:href="#e"/><linearGradient id="l" x1="-10.92" y1="987.05" x2="24.88" y2="987.05" xlink:href="#h"/><linearGradient id="m" x1="-10.92" y1="987.05" x2="24.88" y2="987.05" gradientTransform="matrix(0.5, 0.87, 0.87, -0.5, -658.78, 674.54)" xlink:href="#e"/><linearGradient id="n" x1="-20.45" y1="988.74" x2="18.97" y2="988.74" xlink:href="#h"/><linearGradient id="o" x1="-25.89" y1="988.74" x2="45.22" y2="988.74" gradientTransform="matrix(0.5, 0.87, 0.87, -0.5, -658.78, 674.54)" xlink:href="#e"/><linearGradient id="p" x1="-20.44" y1="992.53" x2="15.37" y2="992.53" xlink:href="#h"/><linearGradient id="q" x1="-20.44" y1="992.53" x2="15.37" y2="992.53" gradientTransform="matrix(0.5, 0.87, 0.87, -0.5, -658.78, 674.54)" xlink:href="#e"/><linearGradient id="r" x1="-29.96" y1="994.22" x2="9.46" y2="994.22" xlink:href="#h"/><linearGradient id="s" x1="-35.41" y1="994.22" x2="35.71" y2="994.22" gradientTransform="matrix(0.5, 0.87, 0.87, -0.5, -658.78, 674.54)" xlink:href="#e"/><linearGradient id="t" x1="-29.95" y1="998.01" x2="5.85" y2="998.01" xlink:href="#h"/><linearGradient id="u" x1="-29.95" y1="998.01" x2="5.85" y2="998.01" gradientTransform="matrix(0.5, 0.87, 0.87, -0.5, -658.78, 674.54)" xlink:href="#e"/><linearGradient id="v" x1="-39.48" y1="999.7" x2="-0.06" y2="999.7" xlink:href="#h"/><linearGradient id="w" x1="-44.92" y1="999.7" x2="26.2" y2="999.7" gradientTransform="matrix(0.5, 0.87, 0.87, -0.5, -658.78, 674.54)" xlink:href="#e"/><linearGradient id="x" x1="-1.48" y1="929.45" x2="34.33" y2="929.45" xlink:href="#h"/><linearGradient id="y" x1="-1.48" y1="929.45" x2="34.33" y2="929.45" gradientTransform="matrix(0.5, 0.87, 0.87, -0.5, -658.78, 674.54)" xlink:href="#e"/><linearGradient id="z" x1="-11" y1="931.14" x2="28.42" y2="931.14" xlink:href="#h"/><linearGradient id="aa" x1="-16.45" y1="931.14" x2="54.67" y2="931.14" gradientTransform="matrix(0.5, 0.87, 0.87, -0.5, -658.78, 674.54)" xlink:href="#e"/><linearGradient id="ab" x1="-10.99" y1="934.93" x2="24.81" y2="934.93" xlink:href="#h"/><linearGradient id="ac" x1="-10.99" y1="934.93" x2="24.81" y2="934.93" gradientTransform="matrix(0.5, 0.87, 0.87, -0.5, -658.78, 674.54)" xlink:href="#e"/><linearGradient id="ad" x1="-20.52" y1="936.62" x2="18.9" y2="936.62" xlink:href="#h"/><linearGradient id="ae" x1="-25.96" y1="936.62" x2="45.16" y2="936.62" gradientTransform="matrix(0.5, 0.87, 0.87, -0.5, -658.78, 674.54)" xlink:href="#e"/><linearGradient id="af" x1="-20.51" y1="940.41" x2="15.3" y2="940.41" xlink:href="#h"/><linearGradient id="ag" x1="-20.51" y1="940.41" x2="15.3" y2="940.41" gradientTransform="matrix(0.5, 0.87, 0.87, -0.5, -658.78, 674.54)" xlink:href="#e"/><linearGradient id="ah" x1="-30.03" y1="942.1" x2="9.39" y2="942.1" xlink:href="#h"/><linearGradient id="ai" x1="-35.48" y1="942.1" x2="35.64" y2="942.1" gradientTransform="matrix(0.5, 0.87, 0.87, -0.5, -658.78, 674.54)" xlink:href="#e"/><linearGradient id="aj" x1="-30.02" y1="945.89" x2="5.79" y2="945.89" xlink:href="#h"/><linearGradient id="ak" x1="-30.02" y1="945.89" x2="5.79" y2="945.89" gradientTransform="matrix(0.5, 0.87, 0.87, -0.5, -658.78, 674.54)" xlink:href="#e"/><linearGradient id="al" x1="-39.55" y1="947.58" x2="-0.13" y2="947.58" xlink:href="#h"/><linearGradient id="am" x1="-44.99" y1="947.58" x2="26.13" y2="947.58" gradientTransform="matrix(0.5, 0.87, 0.87, -0.5, -658.78, 674.54)" xlink:href="#e"/><linearGradient id="an" x1="-1.55" y1="877.32" x2="34.26" y2="877.32" xlink:href="#h"/><linearGradient id="ao" x1="-1.55" y1="877.32" x2="34.26" y2="877.32" gradientTransform="matrix(0.5, 0.87, 0.87, -0.5, -658.78, 674.54)" xlink:href="#e"/><linearGradient id="ap" x1="-11.07" y1="879.02" x2="28.35" y2="879.02" xlink:href="#h"/><linearGradient id="aq" x1="-16.52" y1="879.02" x2="54.6" y2="879.02" gradientTransform="matrix(0.5, 0.87, 0.87, -0.5, -658.78, 674.54)" xlink:href="#e"/><linearGradient id="ar" x1="-11.06" y1="882.8" x2="24.75" y2="882.8" xlink:href="#h"/><linearGradient id="as" x1="-11.06" y1="882.8" x2="24.75" y2="882.8" gradientTransform="matrix(0.5, 0.87, 0.87, -0.5, -658.78, 674.54)" xlink:href="#e"/><linearGradient id="at" x1="-20.59" y1="884.5" x2="18.83" y2="884.5" xlink:href="#h"/><linearGradient id="au" x1="-26.03" y1="884.5" x2="45.09" y2="884.5" gradientTransform="matrix(0.5, 0.87, 0.87, -0.5, -658.78, 674.54)" xlink:href="#e"/><linearGradient id="av" x1="-20.57" y1="888.28" x2="15.23" y2="888.28" xlink:href="#h"/><linearGradient id="aw" x1="-20.57" y1="888.28" x2="15.23" y2="888.28" gradientTransform="matrix(0.5, 0.87, 0.87, -0.5, -658.78, 674.54)" xlink:href="#e"/><linearGradient id="ax" x1="-30.1" y1="889.98" x2="9.32" y2="889.98" xlink:href="#h"/><linearGradient id="ay" x1="-35.54" y1="889.98" x2="35.58" y2="889.98" gradientTransform="matrix(0.5, 0.87, 0.87, -0.5, -658.78, 674.54)" xlink:href="#e"/><linearGradient id="az" x1="-30.09" y1="893.76" x2="5.72" y2="893.76" xlink:href="#h"/><linearGradient id="ba" x1="-30.09" y1="893.76" x2="5.72" y2="893.76" gradientTransform="matrix(0.5, 0.87, 0.87, -0.5, -658.78, 674.54)" xlink:href="#e"/><linearGradient id="bb" x1="-39.61" y1="895.46" x2="-0.19" y2="895.46" xlink:href="#h"/><linearGradient id="bc" x1="-45.06" y1="895.46" x2="26.06" y2="895.46" gradientTransform="matrix(0.5, 0.87, 0.87, -0.5, -658.78, 674.54)" xlink:href="#e"/><linearGradient id="bd" x1="-207.48" y1="1474.1" x2="-132.58" y2="1474.1" gradientTransform="matrix(0.87, 0.5, -0.87, 0.5, 1672.95, -318.7)" gradientUnits="userSpaceOnUse"><stop offset="0" stop-color="#c0bff6"/><stop offset="0.29" stop-color="#c5c4f7"/><stop offset="0.64" stop-color="#d3d2f9"/><stop offset="1" stop-color="#e9e9fd"/></linearGradient><linearGradient id="be" x1="-2079.35" y1="332.46" x2="-2010.86" y2="332.46" gradientTransform="translate(2275.7)" gradientUnits="userSpaceOnUse"><stop offset="0.35" stop-color="#bcbeff"/><stop offset="0.44" stop-color="#b5b8fc"/><stop offset="0.57" stop-color="#a3a7f5"/><stop offset="0.72" stop-color="#848be9"/><stop offset="0.88" stop-color="#5a64d8"/><stop offset="0.89" stop-color="#5761d7"/></linearGradient><linearGradient id="bf" x1="-2100.51" y1="332.46" x2="-2011.87" y2="332.46" gradientTransform="translate(2275.7)" gradientUnits="userSpaceOnUse"><stop offset="0" stop-color="#0d79c9"/><stop offset="0.22" stop-color="#0f7ccb"/><stop offset="0.38" stop-color="#1785d0"/><stop offset="0.52" stop-color="#2595da"/><stop offset="0.64" stop-color="#37abe7"/><stop offset="0.76" stop-color="#4fc7f8"/><stop offset="0.8" stop-color="#59d3ff"/><stop offset="0.83" stop-color="#41b6ee"/><stop offset="0.87" stop-color="#2a9bde"/><stop offset="0.91" stop-color="#1a88d2"/><stop offset="0.96" stop-color="#107dcb"/><stop offset="1" stop-color="#0d79c9"/></linearGradient><linearGradient id="bg" x1="-221.68" y1="1461.33" x2="-143.91" y2="1461.33" gradientTransform="matrix(0.87, 0.5, -0.87, 0.5, 1672.95, -318.7)" gradientUnits="userSpaceOnUse"><stop offset="0" stop-color="#e9e9fd"/><stop offset="0.36" stop-color="#d3d2f9"/><stop offset="0.71" stop-color="#c5c4f7"/><stop offset="1" stop-color="#c0bff6"/></linearGradient><linearGradient id="bh" x1="-11301.04" y1="-440.9" x2="-11299.53" y2="-440.9" gradientTransform="translate(11571.5 220.2) rotate(-2.2)" gradientUnits="userSpaceOnUse"><stop offset="0" stop-color="#5761d7"/><stop offset="0.07" stop-color="#5472d8"/><stop offset="0.28" stop-color="#4e9cdb"/><stop offset="0.48" stop-color="#49bddd"/><stop offset="0.67" stop-color="#45d5df"/><stop offset="0.85" stop-color="#43e3e0"/><stop offset="1" stop-color="#42e8e0"/></linearGradient><linearGradient id="bi" x1="9742.3" y1="487.3" x2="9755.43" y2="487.3" gradientTransform="matrix(-1, -0.05, -0.05, 1, 10011.36, 250.48)" gradientUnits="userSpaceOnUse"><stop offset="0.05" stop-opacity="0"/><stop offset="1"/></linearGradient><linearGradient id="bj" x1="-11323.79" y1="-387.05" x2="-11298" y2="-387.05" xlink:href="#bh"/><linearGradient id="bk" x1="-11299.33" y1="-417.61" x2="-11293.23" y2="-417.61" xlink:href="#bh"/><linearGradient id="bl" x1="9737.74" y1="437.36" x2="9753.53" y2="437.36" gradientTransform="matrix(-1, -0.05, -0.05, 1, 10011.36, 250.48)" gradientUnits="userSpaceOnUse"><stop offset="0" stop-color="#5095d0"/><stop offset="0.37" stop-color="#3285c6"/><stop offset="0.76" stop-color="#1876be"/><stop offset="1" stop-color="#0e71bb"/></linearGradient><linearGradient id="bm" x1="9737.96" y1="455.6" x2="9757.56" y2="455.6" xlink:href="#bi"/><linearGradient id="bn" x1="-11337.42" y1="-362.93" x2="-11316.55" y2="-362.93" xlink:href="#bh"/><linearGradient id="bo" x1="-11325.7" y1="-370.47" x2="-11323.04" y2="-370.47" xlink:href="#bh"/><linearGradient id="bp" x1="-11330.72" y1="-375.51" x2="-11328.07" y2="-375.51" xlink:href="#bh"/><linearGradient id="bq" x1="-11325.64" y1="-398.5" x2="-11305.9" y2="-398.5" xlink:href="#bh"/></defs><title>access-foreign-dedicatedservers</title><g class="b"><path class="c" d="M386.6,259.9c-6.2-19.3-16.1-25.1-25.4-37.4-11.5-15.1-19.2-26-16.2-45.4,4.9-31.7,6.9-110.6-69-100.3-27.2,3.7-48.7,26.7-64.4,49.7-13.3,19.5-37.2,21.3-56.5,25.8-23.7,5.6-47.8,14.1-69.8,26.5C40.2,204.3,26.7,241,28.6,288c.5,14.1,2.4,36.5,24.1,62.6,29.3,35.3,71.9,40,123.1,23.8,11.8-3.7,22.9-9.5,34.4-13.9a154.4,154.4,0,0,1,37.1-8.9c29.4-3.1,59.9,2.6,88.2-7.1a91.9,91.9,0,0,0,39.4-27A59.7,59.7,0,0,0,386.6,259.9Z"/><circle class="d" cx="281.5" cy="168.2" r="102" transform="translate(-36.5 248.3) rotate(-45)"/><path class="e" d="M281.5,66.2a101.9,101.9,0,0,1,28.3,4,18.9,18.9,0,0,0-.7,8.9c1.5,10.7-4.1,21.1-16.5,17.6s-9.4,11.1-28.7,9.1c-16.2-1.7-33.6-10.5-33.4-26a102.2,102.2,0,0,1,51-13.6ZM327,76.9c4.9,11.4,8.7,29.2-9.5,38.8-28.2,14.7-49.7,14.2-46.7,32.7s1.8,21.8-1.5,25.9,1.9,10.8,12,7.8c0,0,2.3-1.6,2.8.6s-6.1,9.5.1,17.1,17.8,3.3,23.9-.8,19,5.6,21.7,13.6.7,16.1,13.4,15.9,8-18.1,7.9-26.4,1-25.7,12.9-25.2,8.3-5.1,13.9-6.9a10.5,10.5,0,0,1,5.5-.3v-1.5A101.8,101.8,0,0,0,327,76.9Zm-6.6,152.7s3.4-4.2,7-2.3,4.5,8.3,1.8,9.6-11.4-3.9-8.8-7.3Zm-62.9,37.7c10.2-12.3-.5-24.5-6.7-30.4s10.6-31.9-9.9-32.4-31.8-14.7-16-16.5,9.6-10.7,11.1-17.8,6.9-.7,17-4.3-4.8-25.1-14.9-24.6-7.1,15.5-13,13.5-7.3-14.8,1-17.3,9.2-9.6,6.4-15.7-17,0-20.1-10.4c-1.5-5.2-5.5-7.6-9.1-8.8a101.7,101.7,0,0,0-23.8,65.6c0,2.2,0,4.4.2,6.6,13.9,9.3,28.1,30.1,26.2,41.1-2.6,14.5,10.6,22.1,16.4,26.4,3.1,2.2,4.2,7.5,4.6,12.1A100,100,0,0,0,257.5,267.3Z"/><text class="f" transform="translate(20.2 -34)">جراخ یزاجم روس یاه یستسد*</text><path class="g" d="M233.4,297.2,215.7,287c-7.5-4.4-13.6-15-13.6-23.7V214.2h.5v49.1c0,8.6,6,19,13.4,23.2l17.7,10.2Z"/><path class="g" d="M213.2,308.8l-17.7-10.2c-7.5-4.3-13.7-14.9-13.7-23.6V225.8h.6V275c0,8.5,6,18.9,13.3,23.2l17.7,10.2Z"/><path class="g" d="M192.9,320.5l-17.6-10.2c-7.6-4.3-13.7-14.9-13.7-23.6V237.5h.5v49.2c0,8.5,6,18.9,13.4,23.2l17.7,10.2Z"/><path class="h" d="M108.4,298a7.4,7.4,0,0,1-3.6-.9l-30-17.3a2.8,2.8,0,0,1-1.6-2.3,1.9,1.9,0,0,1,1.2-1.7l144.1-83.3a7.5,7.5,0,0,1,6.5.3l30,17.3a2.7,2.7,0,0,1,1.7,2.2,2.1,2.1,0,0,1-1.3,1.8L111.3,297.4A6.5,6.5,0,0,1,108.4,298Zm113-105.6a5.3,5.3,0,0,0-2.6.6L74.6,276.2c-.6.4-.9.8-.9,1.3s.5,1.3,1.4,1.9L105,296.7a6.7,6.7,0,0,0,6,.2l144.2-83.2a1.7,1.7,0,0,0,.9-1.4,2.3,2.3,0,0,0-1.4-1.8l-29.9-17.3A7.7,7.7,0,0,0,221.4,192.4Z"/><path class="i" d="M197.4,143.6a41.8,41.8,0,0,0-10.5,8.9c-4.5-14.2-18-18.6-34-9.4-13.2,7.7-24.7,22.7-30.8,38.6a13.6,13.6,0,0,0-6.7,2.1c-8.6,5-15.6,17.1-15.6,27v.7a18.7,18.7,0,0,0-8,2.6c-11,6.4-20,21.9-20,34.7s9,17.9,20,11.5l105.6-61c13.3-7.7,24.1-26.4,24.1-41.8S210.7,135.9,197.4,143.6Z"/><path class="j" d="M197.4,143.6a39.7,39.7,0,0,0-6.3,4.7l-11.8-6.9h0c-6.5-4.6-15.9-4.4-26.4,1.6-13.2,7.7-24.7,22.7-30.8,38.6a13.6,13.6,0,0,0-6.7,2.1c-8.6,5-15.6,17.1-15.6,27v.7a18.7,18.7,0,0,0-8,2.6c-11,6.4-20,21.9-20,34.7,0,6.3,2.2,10.7,5.8,12.8h.1l28.9,16.8,6.3-30.4,84.5-48.8c13.3-7.7,24.1-26.4,24.1-41.8S210.7,135.9,197.4,143.6Z"/><path class="k" d="M243.9,159l-29.3-17h0c-4.4-2.6-10.5-2.3-17.2,1.6a39.7,39.7,0,0,0-6.3,4.7l-11.8-6.9h0c-6.5-4.6-15.9-4.4-26.4,1.6-13.2,7.7-24.7,22.7-30.8,38.6a13.6,13.6,0,0,0-6.7,2.1c-8.6,5-15.6,17.1-15.6,27v.7a18.7,18.7,0,0,0-8,2.6c-11,6.4-20,21.9-20,34.7,0,6.3,2.2,10.7,5.8,12.8h.1l28.9,16.8,6.3-30.4,84.5-48.8c10.8-6.2,20-19.7,23-32.8Z"/><path class="l" d="M226.4,160.5a41.5,41.5,0,0,0-10.5,8.9c-4.5-14.2-18-18.7-33.9-9.4-13.3,7.6-24.8,22.6-30.9,38.5a14.1,14.1,0,0,0-6.6,2.1c-8.7,5-15.7,17.1-15.7,27.1,0,.2.1.4.1.6a18.9,18.9,0,0,0-8.1,2.7c-11,6.4-20,21.9-20,34.6s9,17.9,20,11.5l105.6-60.9c13.4-7.7,24.2-26.4,24.2-41.8S239.8,152.8,226.4,160.5Z"/><path class="m" d="M226.4,160.5a41.5,41.5,0,0,0-10.5,8.9c-4.5-14.2-18-18.7-33.9-9.4-13.3,7.6-24.8,22.6-30.9,38.5a14.1,14.1,0,0,0-6.6,2.1c-8.7,5-15.7,17.1-15.7,27.1,0,.2.1.4.1.6a18.9,18.9,0,0,0-8.1,2.7c-11,6.4-20,21.9-20,34.6s9,17.9,20,11.5l105.6-60.9c13.4-7.7,24.2-26.4,24.2-41.8S239.8,152.8,226.4,160.5Z"/><path class="n" d="M226.4,160.5a41.5,41.5,0,0,0-10.5,8.9c-4.5-14.2-18-18.7-33.9-9.4-13.3,7.6-24.8,22.6-30.9,38.5a14.1,14.1,0,0,0-6.6,2.1c-8.7,5-15.7,17.1-15.7,27.1,0,.2.1.4.1.6a18.9,18.9,0,0,0-8.1,2.7c-11,6.4-20,21.9-20,34.6s9,17.9,20,11.5l105.6-60.9c13.4-7.7,24.2-26.4,24.2-41.8S239.8,152.8,226.4,160.5Z"/><path class="o" d="M226.4,160.5a41.5,41.5,0,0,0-10.5,8.9c-4.5-14.2-18-18.7-33.9-9.4-13.3,7.6-24.8,22.6-30.9,38.5a14.1,14.1,0,0,0-6.6,2.1c-8.7,5-15.7,17.1-15.7,27.1,0,.2.1.4.1.6a18.9,18.9,0,0,0-8.1,2.7c-11,6.4-20,21.9-20,34.6s9,17.9,20,11.5l105.6-60.9c13.4-7.7,24.2-26.4,24.2-41.8S239.8,152.8,226.4,160.5Z"/><path class="p" d="M226.4,160.5a41.5,41.5,0,0,0-10.5,8.9c-.2-.7-.5-1.3-.7-1.9a43.3,43.3,0,0,1,10.1-8.3c8.6-5,16.1-4.1,20.4,1.3C241.3,156.3,234.3,155.9,226.4,160.5Z"/><path class="p" d="M119.7,229.7a19.5,19.5,0,0,1,8-2.7v-.6c0-10,7-22.1,15.6-27.1a15.7,15.7,0,0,1,6.6-2.1c6.1-15.9,17.7-30.9,30.9-38.5s23.4-6.1,29.7,1.5c-6.5-6.4-16.8-7-28.5-.2-13.3,7.6-24.8,22.6-30.9,38.5a14.1,14.1,0,0,0-6.6,2.1c-8.7,5-15.7,17.1-15.7,27.1,0,.2.1.4.1.6a18.9,18.9,0,0,0-8.1,2.7c-11,6.4-20,21.9-20,34.6,0,4.4,1.1,7.9,3,10.4-2.6-2.4-4.1-6.4-4.1-11.7C99.7,251.6,108.6,236.1,119.7,229.7Z"/><g class="q"><path class="r" d="M199.7,219.4l35.2-20.3c.8-.5,1.2-1,1.2-1.6h0v-6.3l-1.2,1-1.1-.6.2-.2-.5-.9-24.9-14.7-7.9-4.6-3-.9-36.2,20.8v.8l-.9.6-1.6-.7v6.3h0a1.5,1.5,0,0,0,.8,1.2L195,219.5A5.2,5.2,0,0,0,199.7,219.4ZM214,203.7l-15.9,8.7h-1.4l-26.6-14.9-7.4-3.8,34.7-20a1.1,1.1,0,0,1,1.1,0l33.8,19.5Z"/><path class="s" d="M199.7,219.4l35.2-20.3c.8-.5,1.2-1,1.2-1.6h0v-6.3l-1.2,1-1.1-.6.2-.2-.5-.9-24.9-14.7-7.9-4.6-3-.9-36.2,20.8v.8l-.9.6-1.6-.7v6.3h0a1.5,1.5,0,0,0,.8,1.2L195,219.5A5.2,5.2,0,0,0,199.7,219.4ZM214,203.7l-15.9,8.7h-1.4l-26.6-14.9-7.4-3.8,34.7-20a1.1,1.1,0,0,1,1.1,0l33.8,19.5Z"/><path class="t" d="M197.2,220v-7.6h.9l15.9-8.7,18.3-10.6-.6-.4,4.4-1.5v6.3h0c0,.6-.4,1.1-1.2,1.6l-35.2,20.3A5.1,5.1,0,0,1,197.2,220Z"/><path class="u" d="M199.7,212.9l35.2-20.3c1.4-.8,1.6-2,.4-2.7l-35.1-20.2a5.2,5.2,0,0,0-4.7.2l-35.2,20.3c-1.4.8-1.6,2-.4,2.7L195,213.1A5.2,5.2,0,0,0,199.7,212.9Zm-1.9-1.2a1.4,1.4,0,0,1-1.1.1l-34.5-19.9c-.2-.2-.2-.4.1-.6l35.1-20.2a1.4,1.4,0,0,1,1.1-.1l34.4,19.9q.4.3,0,.6Z"/><path class="v" d="M199.7,212.9l35.2-20.3c1.4-.8,1.6-2,.4-2.7l-35.1-20.2a5.2,5.2,0,0,0-4.7.2l-35.2,20.3c-1.4.8-1.6,2-.4,2.7L195,213.1A5.2,5.2,0,0,0,199.7,212.9Zm-1.9-1.2a1.4,1.4,0,0,1-1.1.1l-34.5-19.9c-.2-.2-.2-.4.1-.6l35.1-20.2a1.4,1.4,0,0,1,1.1-.1l34.4,19.9q.4.3,0,.6Z"/><path class="g" d="M232.9,190.5l-34.4-19.8a1.1,1.1,0,0,0-1.1,0l-35.1,20.2c-.2.2-.3.4-.2.6s.1-.2.2-.2l35.1-20.2a1.4,1.4,0,0,1,1.1-.1l34.4,19.9h.2C233.2,190.8,233.1,190.7,232.9,190.5Z"/><path class="g" d="M234.9,192.3l-35.2,20.3a5.2,5.2,0,0,1-4.7.2l-35.1-20.3a1.3,1.3,0,0,1-.8-1,1.4,1.4,0,0,0,.8,1.4L195,213.1a5.2,5.2,0,0,0,4.7-.2l35.2-20.3a1.8,1.8,0,0,0,1.2-1.7A2.2,2.2,0,0,1,234.9,192.3Z"/><path class="w" d="M198.5,173.6a1.1,1.1,0,0,0-1.1,0l-33.5,19.3-1.7-1c-.2-.2-.2-.4.1-.6l35.1-20.2a1.4,1.4,0,0,1,1.1-.1l34.4,19.9q.4.3,0,.6l-1.7,1Z"/><path class="x" d="M232.9,191.5q.4-.3,0-.6L198.5,171a1.4,1.4,0,0,0-1.1.1l-35.1,20.2c-.3.2-.3.4-.1.6l34.5,19.9a1.4,1.4,0,0,0,1.1-.1Z"/><path class="y" d="M199.7,208.4l35.2-20.3a1.9,1.9,0,0,0,1.2-1.6h0v-6.3l-1.2,1.1-1.1-.6.2-.3-.5-.9-24.9-14.7-7.9-4.6-3-.9-36.2,20.8v.8l-.9.6-1.6-.7v6.3h0a1.4,1.4,0,0,0,.8,1.2L195,208.6A5.2,5.2,0,0,0,199.7,208.4ZM214,192.7l-15.9,8.7h-1.4l-26.6-14.8-7.4-3.9,34.7-20a1.1,1.1,0,0,1,1.1,0l33.8,19.5Z"/><path class="z" d="M199.7,208.4l35.2-20.3a1.9,1.9,0,0,0,1.2-1.6h0v-6.3l-1.2,1.1-1.1-.6.2-.3-.5-.9-24.9-14.7-7.9-4.6-3-.9-36.2,20.8v.8l-.9.6-1.6-.7v6.3h0a1.4,1.4,0,0,0,.8,1.2L195,208.6A5.2,5.2,0,0,0,199.7,208.4ZM214,192.7l-15.9,8.7h-1.4l-26.6-14.8-7.4-3.9,34.7-20a1.1,1.1,0,0,1,1.1,0l33.8,19.5Z"/><path class="t" d="M197.2,209v-7.6h.9l15.9-8.7,18.3-10.6-.6-.4,4.4-1.5v6.3h0a1.9,1.9,0,0,1-1.2,1.6l-35.2,20.3A5.1,5.1,0,0,1,197.2,209Z"/><path class="aa" d="M199.7,201.9l35.2-20.2c1.4-.8,1.6-2.1.4-2.8l-35.1-20.2a5.2,5.2,0,0,0-4.7.2l-35.2,20.3c-1.4.8-1.6,2-.4,2.7L195,202.1A4.9,4.9,0,0,0,199.7,201.9Zm-1.9-1.1a1.4,1.4,0,0,1-1.1,0l-34.5-19.9c-.2-.1-.2-.4.1-.6l35.1-20.2a1.4,1.4,0,0,1,1.1-.1l34.4,19.9c.3.2.3.5,0,.6Z"/><path class="ab" d="M199.7,201.9l35.2-20.2c1.4-.8,1.6-2.1.4-2.8l-35.1-20.2a5.2,5.2,0,0,0-4.7.2l-35.2,20.3c-1.4.8-1.6,2-.4,2.7L195,202.1A4.9,4.9,0,0,0,199.7,201.9Zm-1.9-1.1a1.4,1.4,0,0,1-1.1,0l-34.5-19.9c-.2-.1-.2-.4.1-.6l35.1-20.2a1.4,1.4,0,0,1,1.1-.1l34.4,19.9c.3.2.3.5,0,.6Z"/><path class="g" d="M232.9,179.6l-34.4-19.9a1.4,1.4,0,0,0-1.1,0L162.3,180a.4.4,0,0,0-.2.5l.2-.2,35.1-20.2a1.4,1.4,0,0,1,1.1-.1l34.4,19.9h.2C233.2,179.9,233.1,179.7,232.9,179.6Z"/><path class="g" d="M234.9,181.3l-35.2,20.3a5.2,5.2,0,0,1-4.7.2l-35.1-20.2a1.7,1.7,0,0,1-.8-1.1,1.4,1.4,0,0,0,.8,1.4L195,202.1a4.9,4.9,0,0,0,4.7-.2l35.2-20.2a2,2,0,0,0,1.2-1.7A2.4,2.4,0,0,1,234.9,181.3Z"/><path class="w" d="M198.5,162.6a1.1,1.1,0,0,0-1.1,0l-33.5,19.3-1.7-1c-.2-.1-.2-.4.1-.6l35.1-20.2a1.4,1.4,0,0,1,1.1-.1l34.4,19.9c.3.2.3.5,0,.6l-1.7,1Z"/><path class="x" d="M232.9,180.5c.3-.1.3-.4,0-.6L198.5,160a1.4,1.4,0,0,0-1.1.1l-35.1,20.2c-.3.2-.3.5-.1.6l34.5,19.9a1.4,1.4,0,0,0,1.1,0Z"/><path class="ac" d="M199.7,197.4l35.2-20.3a1.9,1.9,0,0,0,1.2-1.5h0v-6.4l-1.2,1.1-1.1-.6.2-.3-.5-.9-24.9-14.7-7.9-4.6-3-.8-36.2,20.7v.9l-.9.5-1.6-.7v6.3h0a1.4,1.4,0,0,0,.8,1.2L195,197.6A5.2,5.2,0,0,0,199.7,197.4ZM214,181.7l-15.9,8.7h-1.4l-26.6-14.9-7.4-3.8,34.7-20a1.1,1.1,0,0,1,1.1-.1l33.8,19.5Z"/><path class="ad" d="M199.7,197.4l35.2-20.3a1.9,1.9,0,0,0,1.2-1.5h0v-6.4l-1.2,1.1-1.1-.6.2-.3-.5-.9-24.9-14.7-7.9-4.6-3-.8-36.2,20.7v.9l-.9.5-1.6-.7v6.3h0a1.4,1.4,0,0,0,.8,1.2L195,197.6A5.2,5.2,0,0,0,199.7,197.4ZM214,181.7l-15.9,8.7h-1.4l-26.6-14.9-7.4-3.8,34.7-20a1.1,1.1,0,0,1,1.1-.1l33.8,19.5Z"/><path class="t" d="M197.2,198.1v-7.7h.9l15.9-8.7,18.3-10.6-.6-.3c.6-.4,3.8-1.3,4.4-1.6v6.4h0a1.9,1.9,0,0,1-1.2,1.5l-35.2,20.3A6.6,6.6,0,0,1,197.2,198.1Z"/><path class="ae" d="M199.7,191l35.2-20.3c1.4-.8,1.6-2,.4-2.7l-35.1-20.3a5.2,5.2,0,0,0-4.7.2l-35.2,20.3c-1.4.8-1.6,2-.4,2.7L195,191.2A5.2,5.2,0,0,0,199.7,191Zm-1.9-1.2a1.1,1.1,0,0,1-1.1,0l-34.5-19.9c-.2-.1-.2-.4.1-.6l35.1-20.2a1.1,1.1,0,0,1,1.1,0l34.4,19.8a.4.4,0,0,1,0,.7Z"/><path class="af" d="M199.7,191l35.2-20.3c1.4-.8,1.6-2,.4-2.7l-35.1-20.3a5.2,5.2,0,0,0-4.7.2l-35.2,20.3c-1.4.8-1.6,2-.4,2.7L195,191.2A5.2,5.2,0,0,0,199.7,191Zm-1.9-1.2a1.1,1.1,0,0,1-1.1,0l-34.5-19.9c-.2-.1-.2-.4.1-.6l35.1-20.2a1.1,1.1,0,0,1,1.1,0l34.4,19.8a.4.4,0,0,1,0,.7Z"/><path class="g" d="M232.9,168.6l-34.4-19.9a1.4,1.4,0,0,0-1.1.1L162.3,169a.4.4,0,0,0-.2.5l.2-.2,35.1-20.2a1.1,1.1,0,0,1,1.1,0l34.4,19.8h.2C233.2,168.9,233.1,168.7,232.9,168.6Z"/><path class="g" d="M234.9,170.3l-35.2,20.3a5.2,5.2,0,0,1-4.7.2l-35.1-20.2a1.8,1.8,0,0,1-.8-1,1.2,1.2,0,0,0,.8,1.3L195,191.2a5.2,5.2,0,0,0,4.7-.2l35.2-20.3a1.9,1.9,0,0,0,1.2-1.7A1.9,1.9,0,0,1,234.9,170.3Z"/><path class="w" d="M198.5,151.6a1.1,1.1,0,0,0-1.1.1l-33.5,19.2-1.7-1c-.2-.1-.2-.4.1-.6l35.1-20.2a1.1,1.1,0,0,1,1.1,0l34.4,19.8a.4.4,0,0,1,0,.7l-1.7.9Z"/><path class="x" d="M232.9,169.6a.4.4,0,0,0,0-.7l-34.4-19.8a1.1,1.1,0,0,0-1.1,0l-35.1,20.2c-.3.2-.3.5-.1.6l34.5,19.9a1.1,1.1,0,0,0,1.1,0Z"/><path class="ag" d="M199.7,186.4l35.2-20.3a1.9,1.9,0,0,0,1.2-1.5h0v-6.4l-1.2,1.1-1.1-.6.2-.3-.5-.9-24.9-14.6-7.9-4.6-3-.9-36.2,20.7v.9l-.9.5-1.6-.7v6.4h0a1.7,1.7,0,0,0,.8,1.2L195,186.6A5.2,5.2,0,0,0,199.7,186.4ZM214,170.8l-15.9,8.7h-1.4l-26.6-14.9-7.4-3.8,34.7-20a1.4,1.4,0,0,1,1.1-.1l33.8,19.5Z"/><path class="ah" d="M199.7,186.4l35.2-20.3a1.9,1.9,0,0,0,1.2-1.5h0v-6.4l-1.2,1.1-1.1-.6.2-.3-.5-.9-24.9-14.6-7.9-4.6-3-.9-36.2,20.7v.9l-.9.5-1.6-.7v6.4h0a1.7,1.7,0,0,0,.8,1.2L195,186.6A5.2,5.2,0,0,0,199.7,186.4ZM214,170.8l-15.9,8.7h-1.4l-26.6-14.9-7.4-3.8,34.7-20a1.4,1.4,0,0,1,1.1-.1l33.8,19.5Z"/><path class="t" d="M197.2,187.1v-7.7h.9l15.9-8.7,18.3-10.7-.6-.3c.6-.3,3.8-1.2,4.4-1.6v6.4h0a1.9,1.9,0,0,1-1.2,1.5l-35.2,20.3A5.2,5.2,0,0,1,197.2,187.1Z"/><path class="ai" d="M199.7,180l35.2-20.3c1.4-.8,1.6-2,.4-2.7l-35.1-20.3a5.2,5.2,0,0,0-4.7.2l-35.2,20.3c-1.4.8-1.6,2-.4,2.7L195,180.2A5.2,5.2,0,0,0,199.7,180Zm-1.9-1.2a1.1,1.1,0,0,1-1.1,0L162.2,159a.4.4,0,0,1,.1-.7l35.1-20.2a1.1,1.1,0,0,1,1.1,0L232.9,158c.3.1.3.4,0,.6Z"/><path class="aj" d="M199.7,180l35.2-20.3c1.4-.8,1.6-2,.4-2.7l-35.1-20.3a5.2,5.2,0,0,0-4.7.2l-35.2,20.3c-1.4.8-1.6,2-.4,2.7L195,180.2A5.2,5.2,0,0,0,199.7,180Zm-1.9-1.2a1.1,1.1,0,0,1-1.1,0L162.2,159a.4.4,0,0,1,.1-.7l35.1-20.2a1.1,1.1,0,0,1,1.1,0L232.9,158c.3.1.3.4,0,.6Z"/><path class="g" d="M232.9,157.6l-34.4-19.9a1.4,1.4,0,0,0-1.1.1L162.3,158c-.2.1-.3.4-.2.5l.2-.2,35.1-20.2a1.1,1.1,0,0,1,1.1,0L232.9,158h.2A.4.4,0,0,0,232.9,157.6Z"/><path class="g" d="M234.9,159.4l-35.2,20.2a5.2,5.2,0,0,1-4.7.2l-35.1-20.2a1.5,1.5,0,0,1-.8-1,1.2,1.2,0,0,0,.8,1.3L195,180.2a5.2,5.2,0,0,0,4.7-.2l35.2-20.3a1.9,1.9,0,0,0,1.2-1.7A2.2,2.2,0,0,1,234.9,159.4Z"/><path class="w" d="M198.5,140.6a1.4,1.4,0,0,0-1.1.1L163.9,160l-1.7-1a.4.4,0,0,1,.1-.7l35.1-20.2a1.1,1.1,0,0,1,1.1,0L232.9,158c.3.1.3.4,0,.6l-1.7.9Z"/><path class="x" d="M232.9,158.6c.3-.2.3-.5,0-.6l-34.4-19.9a1.1,1.1,0,0,0-1.1,0l-35.1,20.2a.4.4,0,0,0-.1.7l34.5,19.8a1.1,1.1,0,0,0,1.1,0Z"/><path class="ak" d="M154.5,245.3,189.7,225a1.9,1.9,0,0,0,1.2-1.5h0v-6.4l-1.2,1.1-1.1-.6.2-.3-.5-.9-24.9-14.6-7.9-4.6-3-.9L116.3,217v.9l-.9.5-1.6-.7v6.4h0a1.7,1.7,0,0,0,.8,1.3l35.1,20.2A5.2,5.2,0,0,0,154.5,245.3Zm14.3-15.7-15.9,8.7h-1.4l-26.6-14.9-7.4-3.8,34.7-20a1.4,1.4,0,0,1,1.1-.1L187.1,219Z"/><path class="al" d="M154.5,245.3,189.7,225a1.9,1.9,0,0,0,1.2-1.5h0v-6.4l-1.2,1.1-1.1-.6.2-.3-.5-.9-24.9-14.6-7.9-4.6-3-.9L116.3,217v.9l-.9.5-1.6-.7v6.4h0a1.7,1.7,0,0,0,.8,1.3l35.1,20.2A5.2,5.2,0,0,0,154.5,245.3Zm14.3-15.7-15.9,8.7h-1.4l-26.6-14.9-7.4-3.8,34.7-20a1.4,1.4,0,0,1,1.1-.1L187.1,219Z"/><path class="t" d="M152,246v-7.7h.9l15.9-8.7L187.1,219l-.6-.3c.6-.3,3.8-1.2,4.4-1.6v6.4h0a1.9,1.9,0,0,1-1.2,1.5l-35.2,20.3A6.6,6.6,0,0,1,152,246Z"/><path class="am" d="M154.5,238.9l35.2-20.3c1.4-.8,1.6-2,.4-2.7L155,195.6a5.2,5.2,0,0,0-4.7.2l-35.2,20.3c-1.4.8-1.6,2-.4,2.7l35.1,20.3A5.2,5.2,0,0,0,154.5,238.9Zm-1.9-1.2a1.1,1.1,0,0,1-1.1,0L117,217.9a.4.4,0,0,1,.1-.7L152.2,197a1.1,1.1,0,0,1,1.1,0l34.4,19.8a.4.4,0,0,1,0,.7Z"/><path class="an" d="M154.5,238.9l35.2-20.3c1.4-.8,1.6-2,.4-2.7L155,195.6a5.2,5.2,0,0,0-4.7.2l-35.2,20.3c-1.4.8-1.6,2-.4,2.7l35.1,20.3A5.2,5.2,0,0,0,154.5,238.9Zm-1.9-1.2a1.1,1.1,0,0,1-1.1,0L117,217.9a.4.4,0,0,1,.1-.7L152.2,197a1.1,1.1,0,0,1,1.1,0l34.4,19.8a.4.4,0,0,1,0,.7Z"/><path class="g" d="M187.7,216.5l-34.4-19.9a1.4,1.4,0,0,0-1.1.1l-35.1,20.2c-.2.1-.3.4-.2.5l.2-.2L152.2,197a1.1,1.1,0,0,1,1.1,0l34.4,19.8.2.2A.4.4,0,0,0,187.7,216.5Z"/><path class="g" d="M189.7,218.3l-35.2,20.2a5.2,5.2,0,0,1-4.7.2l-35.1-20.2a1.9,1.9,0,0,1-.8-1,1.2,1.2,0,0,0,.8,1.3l35.1,20.3a5.2,5.2,0,0,0,4.7-.2l35.2-20.3c.9-.5,1.3-1.1,1.2-1.7A2.2,2.2,0,0,1,189.7,218.3Z"/><path class="w" d="M153.3,199.5a1.4,1.4,0,0,0-1.1.1l-33.5,19.2-1.7-.9a.4.4,0,0,1,.1-.7L152.2,197a1.1,1.1,0,0,1,1.1,0l34.4,19.8a.4.4,0,0,1,0,.7l-1.7.9Z"/><path class="x" d="M187.7,217.5a.4.4,0,0,0,0-.7L153.3,197a1.1,1.1,0,0,0-1.1,0l-35.1,20.2a.4.4,0,0,0-.1.7l34.5,19.8a1.1,1.1,0,0,0,1.1,0Z"/><path class="ao" d="M154.5,234.3,189.7,214a1.9,1.9,0,0,0,1.2-1.5h0v-6.4l-1.2,1.1-1.1-.6.2-.3-.5-.9-24.9-14.6-7.9-4.6-3-.9-36.2,20.8v.8l-.9.5-1.6-.6v6.3h0a1.5,1.5,0,0,0,.8,1.2l35.1,20.2A5.2,5.2,0,0,0,154.5,234.3Zm14.3-15.6-15.9,8.7h-1.4l-26.6-14.9-7.4-3.8,34.7-20a1.4,1.4,0,0,1,1.1-.1l33.8,19.6Z"/><path class="ap" d="M154.5,234.3,189.7,214a1.9,1.9,0,0,0,1.2-1.5h0v-6.4l-1.2,1.1-1.1-.6.2-.3-.5-.9-24.9-14.6-7.9-4.6-3-.9-36.2,20.8v.8l-.9.5-1.6-.6v6.3h0a1.5,1.5,0,0,0,.8,1.2l35.1,20.2A5.2,5.2,0,0,0,154.5,234.3Zm14.3-15.6-15.9,8.7h-1.4l-26.6-14.9-7.4-3.8,34.7-20a1.4,1.4,0,0,1,1.1-.1l33.8,19.6Z"/><path class="t" d="M152,235v-7.7h.9l15.9-8.7,18.3-10.6-.6-.4c.6-.3,3.8-1.2,4.4-1.6v6.4h0a1.9,1.9,0,0,1-1.2,1.5l-35.2,20.3A5.2,5.2,0,0,1,152,235Z"/><path class="aq" d="M154.5,227.9l35.2-20.3c1.4-.8,1.6-2,.4-2.7L155,184.7a4.9,4.9,0,0,0-4.7.2l-35.2,20.2c-1.4.8-1.6,2.1-.4,2.8l35.1,20.2A5.2,5.2,0,0,0,154.5,227.9Zm-1.9-1.2a1.4,1.4,0,0,1-1.1.1L117,206.9c-.2-.2-.2-.5.1-.6L152.2,186a1.4,1.4,0,0,1,1.1,0l34.4,19.9c.3.1.3.4,0,.6Z"/><path class="ar" d="M154.5,227.9l35.2-20.3c1.4-.8,1.6-2,.4-2.7L155,184.7a4.9,4.9,0,0,0-4.7.2l-35.2,20.2c-1.4.8-1.6,2.1-.4,2.8l35.1,20.2A5.2,5.2,0,0,0,154.5,227.9Zm-1.9-1.2a1.4,1.4,0,0,1-1.1.1L117,206.9c-.2-.2-.2-.5.1-.6L152.2,186a1.4,1.4,0,0,1,1.1,0l34.4,19.9c.3.1.3.4,0,.6Z"/><path class="g" d="M187.7,205.5l-34.4-19.9a1.4,1.4,0,0,0-1.1.1l-35.1,20.2c-.2.2-.3.4-.2.5h.2L152.2,186a1.4,1.4,0,0,1,1.1,0l34.4,19.9h.2A.4.4,0,0,0,187.7,205.5Z"/><path class="g" d="M189.7,207.3l-35.2,20.3a5.2,5.2,0,0,1-4.7.1l-35.1-20.2a1.9,1.9,0,0,1-.8-1,1.4,1.4,0,0,0,.8,1.4l35.1,20.2a5.2,5.2,0,0,0,4.7-.2l35.2-20.3c.9-.5,1.3-1.1,1.2-1.7A2.2,2.2,0,0,1,189.7,207.3Z"/><path class="w" d="M153.3,188.5a1.4,1.4,0,0,0-1.1.1l-33.5,19.3-1.7-1c-.2-.2-.2-.5.1-.6L152.2,186a1.4,1.4,0,0,1,1.1,0l34.4,19.9c.3.1.3.4,0,.6l-1.7.9Z"/><path class="x" d="M187.7,206.5c.3-.2.3-.5,0-.6L153.3,186a1.4,1.4,0,0,0-1.1,0l-35.1,20.3c-.3.1-.3.4-.1.6l34.5,19.9a1.4,1.4,0,0,0,1.1-.1Z"/><path class="as" d="M154.5,223.3l35.2-20.2c.8-.5,1.2-1,1.2-1.6h0v-6.3l-1.2,1-1.1-.6.2-.2-.5-.9-24.9-14.7-7.9-4.6-3-.9-36.2,20.8v.8l-.9.6-1.6-.7v6.3h0a1.5,1.5,0,0,0,.8,1.2l35.1,20.2A4.9,4.9,0,0,0,154.5,223.3Zm14.3-15.6-15.9,8.7h-1.4l-26.6-14.9-7.4-3.8,34.7-20a1.1,1.1,0,0,1,1.1,0l33.8,19.5Z"/><path class="at" d="M154.5,223.3l35.2-20.2c.8-.5,1.2-1,1.2-1.6h0v-6.3l-1.2,1-1.1-.6.2-.2-.5-.9-24.9-14.7-7.9-4.6-3-.9-36.2,20.8v.8l-.9.6-1.6-.7v6.3h0a1.5,1.5,0,0,0,.8,1.2l35.1,20.2A4.9,4.9,0,0,0,154.5,223.3Zm14.3-15.6-15.9,8.7h-1.4l-26.6-14.9-7.4-3.8,34.7-20a1.1,1.1,0,0,1,1.1,0l33.8,19.5Z"/><path class="t" d="M152,224v-7.7h.9l15.9-8.7,18.3-10.6-.6-.4,4.4-1.5v6.3h0c0,.6-.4,1.1-1.2,1.6l-35.2,20.2A4.3,4.3,0,0,1,152,224Z"/><path class="au" d="M154.5,216.9l35.2-20.3c1.4-.8,1.6-2,.4-2.7L155,173.7a5.2,5.2,0,0,0-4.7.2l-35.2,20.3c-1.4.8-1.6,2-.4,2.7l35.1,20.2A5.2,5.2,0,0,0,154.5,216.9Zm-1.9-1.2a1.4,1.4,0,0,1-1.1.1L117,195.9c-.2-.2-.2-.4.1-.6l35.1-20.2a1.4,1.4,0,0,1,1.1-.1l34.4,19.9q.5.3,0,.6Z"/><path class="av" d="M154.5,216.9l35.2-20.3c1.4-.8,1.6-2,.4-2.7L155,173.7a5.2,5.2,0,0,0-4.7.2l-35.2,20.3c-1.4.8-1.6,2-.4,2.7l35.1,20.2A5.2,5.2,0,0,0,154.5,216.9Zm-1.9-1.2a1.4,1.4,0,0,1-1.1.1L117,195.9c-.2-.2-.2-.4.1-.6l35.1-20.2a1.4,1.4,0,0,1,1.1-.1l34.4,19.9q.5.3,0,.6Z"/><path class="g" d="M187.7,194.5l-34.4-19.8a1.1,1.1,0,0,0-1.1,0l-35.1,20.2c-.2.2-.3.4-.2.6l.2-.2,35.1-20.2a1.4,1.4,0,0,1,1.1-.1l34.4,19.9h.2C188,194.8,187.9,194.7,187.7,194.5Z"/><path class="g" d="M189.7,196.3l-35.2,20.3a5.2,5.2,0,0,1-4.7.2l-35.1-20.3a1.6,1.6,0,0,1-.8-1,1.4,1.4,0,0,0,.8,1.4l35.1,20.2a5.2,5.2,0,0,0,4.7-.2l35.2-20.3a1.7,1.7,0,0,0,1.2-1.7A2.2,2.2,0,0,1,189.7,196.3Z"/><path class="w" d="M153.3,177.6a1.1,1.1,0,0,0-1.1,0l-33.5,19.3-1.7-1c-.2-.2-.2-.4.1-.6l35.1-20.2a1.4,1.4,0,0,1,1.1-.1l34.4,19.9q.5.3,0,.6l-1.7,1Z"/><path class="x" d="M187.7,195.5q.5-.3,0-.6L153.3,175a1.4,1.4,0,0,0-1.1.1l-35.1,20.2c-.3.2-.3.4-.1.6l34.5,19.9a1.4,1.4,0,0,0,1.1-.1Z"/><path class="aw" d="M154.5,212.4l35.2-20.3c.8-.5,1.2-1,1.2-1.6h0v-6.3l-1.2,1.1-1.1-.6.2-.3-.5-.9-24.9-14.7-7.9-4.6-3-.9-36.2,20.8v.8l-.9.6-1.6-.7v6.3h0a1.4,1.4,0,0,0,.8,1.2l35.1,20.3A5.2,5.2,0,0,0,154.5,212.4Zm14.3-15.7-15.9,8.7h-1.4l-26.6-14.9-7.4-3.8,34.7-20a1.1,1.1,0,0,1,1.1,0l33.8,19.5Z"/><path class="ax" d="M154.5,212.4l35.2-20.3c.8-.5,1.2-1,1.2-1.6h0v-6.3l-1.2,1.1-1.1-.6.2-.3-.5-.9-24.9-14.7-7.9-4.6-3-.9-36.2,20.8v.8l-.9.6-1.6-.7v6.3h0a1.4,1.4,0,0,0,.8,1.2l35.1,20.3A5.2,5.2,0,0,0,154.5,212.4Zm14.3-15.7-15.9,8.7h-1.4l-26.6-14.9-7.4-3.8,34.7-20a1.1,1.1,0,0,1,1.1,0l33.8,19.5Z"/><path class="t" d="M152,213v-7.6h.9l15.9-8.7,18.3-10.6-.6-.4,4.4-1.5v6.3h0c0,.6-.4,1.1-1.2,1.6l-35.2,20.3A5.1,5.1,0,0,1,152,213Z"/><path class="ay" d="M154.5,205.9l35.2-20.2c1.4-.8,1.6-2.1.4-2.8L155,162.7a5.2,5.2,0,0,0-4.7.2l-35.2,20.3c-1.4.8-1.6,2-.4,2.7l35.1,20.2A5.2,5.2,0,0,0,154.5,205.9Zm-1.9-1.1a1.4,1.4,0,0,1-1.1,0L117,184.9c-.2-.1-.2-.4.1-.6l35.1-20.2a1.4,1.4,0,0,1,1.1-.1l34.4,19.9c.3.2.3.5,0,.6Z"/><path class="az" d="M154.5,205.9l35.2-20.2c1.4-.8,1.6-2.1.4-2.8L155,162.7a5.2,5.2,0,0,0-4.7.2l-35.2,20.3c-1.4.8-1.6,2-.4,2.7l35.1,20.2A5.2,5.2,0,0,0,154.5,205.9Zm-1.9-1.1a1.4,1.4,0,0,1-1.1,0L117,184.9c-.2-.1-.2-.4.1-.6l35.1-20.2a1.4,1.4,0,0,1,1.1-.1l34.4,19.9c.3.2.3.5,0,.6Z"/><path class="g" d="M187.7,183.6l-34.4-19.9a1.4,1.4,0,0,0-1.1,0L117.1,184a.4.4,0,0,0-.2.5l.2-.2,35.1-20.2a1.4,1.4,0,0,1,1.1-.1l34.4,19.9h.2C188,183.9,187.9,183.7,187.7,183.6Z"/><path class="g" d="M189.7,185.3l-35.2,20.3a5.2,5.2,0,0,1-4.7.2l-35.1-20.2a2.1,2.1,0,0,1-.8-1.1,1.4,1.4,0,0,0,.8,1.4l35.1,20.2a5.2,5.2,0,0,0,4.7-.2l35.2-20.2c.9-.5,1.3-1.2,1.2-1.7A2.4,2.4,0,0,1,189.7,185.3Z"/><path class="w" d="M153.3,166.6a1.1,1.1,0,0,0-1.1,0l-33.5,19.3-1.7-1c-.2-.1-.2-.4.1-.6l35.1-20.2a1.4,1.4,0,0,1,1.1-.1l34.4,19.9c.3.2.3.5,0,.6l-1.7,1Z"/><path class="x" d="M187.7,184.5c.3-.1.3-.4,0-.6L153.3,164a1.4,1.4,0,0,0-1.1.1l-35.1,20.2c-.3.2-.3.5-.1.6l34.5,19.9a1.4,1.4,0,0,0,1.1,0Z"/><path class="ba" d="M109.3,271.3,144.5,251c.8-.5,1.2-1,1.2-1.6h0v-6.3l-1.2,1.1-1.1-.6.2-.3-.5-.9-24.9-14.7-7.8-4.6-3.1-.9L71.1,243v.8l-.9.6-1.6-.7V250h0a1.4,1.4,0,0,0,.8,1.2l35.1,20.3A5.2,5.2,0,0,0,109.3,271.3Zm14.3-15.7-15.9,8.7h-1.4L79.7,249.3l-7.4-3.8,34.7-20a1.1,1.1,0,0,1,1.1,0L141.9,245Z"/><path class="bb" d="M109.3,271.3,144.5,251c.8-.5,1.2-1,1.2-1.6h0v-6.3l-1.2,1.1-1.1-.6.2-.3-.5-.9-24.9-14.7-7.8-4.6-3.1-.9L71.1,243v.8l-.9.6-1.6-.7V250h0a1.4,1.4,0,0,0,.8,1.2l35.1,20.3A5.2,5.2,0,0,0,109.3,271.3Zm14.3-15.7-15.9,8.7h-1.4L79.7,249.3l-7.4-3.8,34.7-20a1.1,1.1,0,0,1,1.1,0L141.9,245Z"/><path class="t" d="M106.8,271.9v-7.6h.9l15.9-8.7L141.9,245l-.6-.4,4.4-1.5v6.3h0c0,.6-.4,1.1-1.2,1.6l-35.2,20.3A5.1,5.1,0,0,1,106.8,271.9Z"/><path class="bc" d="M109.3,264.8l35.2-20.2c1.4-.8,1.6-2.1.4-2.8l-35.1-20.2a5.2,5.2,0,0,0-4.7.2L69.9,242.1c-1.4.8-1.6,2-.4,2.7L104.6,265A5.2,5.2,0,0,0,109.3,264.8Zm-1.9-1.2a1.1,1.1,0,0,1-1.1.1L71.8,243.8c-.2-.1-.2-.4.1-.6L107,223a1.4,1.4,0,0,1,1.1-.1l34.4,19.9q.5.3,0,.6Z"/><path class="bd" d="M109.3,264.8l35.2-20.2c1.4-.8,1.6-2.1.4-2.8l-35.1-20.2a5.2,5.2,0,0,0-4.7.2L69.9,242.1c-1.4.8-1.6,2-.4,2.7L104.6,265A5.2,5.2,0,0,0,109.3,264.8Zm-1.9-1.2a1.1,1.1,0,0,1-1.1.1L71.8,243.8c-.2-.1-.2-.4.1-.6L107,223a1.4,1.4,0,0,1,1.1-.1l34.4,19.9q.5.3,0,.6Z"/><path class="g" d="M142.5,242.5l-34.4-19.9a1.1,1.1,0,0,0-1.1,0L71.9,242.8c-.2.2-.3.4-.2.6s.1-.2.2-.2L107,223a1.4,1.4,0,0,1,1.1-.1l34.4,19.9h.2C142.8,242.7,142.7,242.6,142.5,242.5Z"/><path class="g" d="M144.5,244.2l-35.2,20.3a5.2,5.2,0,0,1-4.7.2L69.5,244.4a1.6,1.6,0,0,1-.8-1,1.6,1.6,0,0,0,.8,1.4L104.6,265a5.2,5.2,0,0,0,4.7-.2l35.2-20.2c.9-.5,1.3-1.2,1.2-1.8A2.2,2.2,0,0,1,144.5,244.2Z"/><path class="w" d="M108.1,225.5a1.1,1.1,0,0,0-1.1,0L73.5,244.8l-1.7-1c-.2-.1-.2-.4.1-.6L107,223a1.4,1.4,0,0,1,1.1-.1l34.4,19.9q.5.3,0,.6l-1.7,1Z"/><path class="x" d="M142.5,243.4q.5-.3,0-.6l-34.4-19.9a1.4,1.4,0,0,0-1.1.1L71.9,243.2c-.3.2-.3.5-.1.6l34.5,19.9a1.1,1.1,0,0,0,1.1-.1Z"/><path class="be" d="M109.3,260.3,144.5,240a1.9,1.9,0,0,0,1.2-1.6h0v-6.4l-1.2,1.1-1.1-.6.2-.3-.5-.9-24.9-14.7-7.8-4.6-3.1-.9L71.1,232v.8l-.9.6-1.6-.7V239h0a1.4,1.4,0,0,0,.8,1.2l35.1,20.3A5.2,5.2,0,0,0,109.3,260.3Zm14.3-15.7-15.9,8.7h-1.4L79.7,238.4l-7.4-3.8L107,214.5a1.4,1.4,0,0,1,1.1,0L141.9,234Z"/><path class="bf" d="M109.3,260.3,144.5,240a1.9,1.9,0,0,0,1.2-1.6h0v-6.4l-1.2,1.1-1.1-.6.2-.3-.5-.9-24.9-14.7-7.8-4.6-3.1-.9L71.1,232v.8l-.9.6-1.6-.7V239h0a1.4,1.4,0,0,0,.8,1.2l35.1,20.3A5.2,5.2,0,0,0,109.3,260.3Zm14.3-15.7-15.9,8.7h-1.4L79.7,238.4l-7.4-3.8L107,214.5a1.4,1.4,0,0,1,1.1,0L141.9,234Z"/><path class="t" d="M106.8,260.9v-7.6h.9l15.9-8.7L141.9,234l-.6-.3c.6-.4,3.8-1.3,4.4-1.6v6.4h0a1.9,1.9,0,0,1-1.2,1.6l-35.2,20.3A5.1,5.1,0,0,1,106.8,260.9Z"/><path class="bg" d="M109.3,253.9l35.2-20.3c1.4-.8,1.6-2,.4-2.7l-35.1-20.3a5.2,5.2,0,0,0-4.7.2L69.9,231.1c-1.4.8-1.6,2-.4,2.7L104.6,254A5.2,5.2,0,0,0,109.3,253.9Zm-1.9-1.2a1.1,1.1,0,0,1-1.1,0L71.8,232.8c-.2-.1-.2-.4.1-.6L107,212a1.4,1.4,0,0,1,1.1-.1l34.4,19.9c.3.2.3.5,0,.6Z"/><path class="bh" d="M109.3,253.9l35.2-20.3c1.4-.8,1.6-2,.4-2.7l-35.1-20.3a5.2,5.2,0,0,0-4.7.2L69.9,231.1c-1.4.8-1.6,2-.4,2.7L104.6,254A5.2,5.2,0,0,0,109.3,253.9Zm-1.9-1.2a1.1,1.1,0,0,1-1.1,0L71.8,232.8c-.2-.1-.2-.4.1-.6L107,212a1.4,1.4,0,0,1,1.1-.1l34.4,19.9c.3.2.3.5,0,.6Z"/><path class="g" d="M142.5,231.5l-34.4-19.9a1.4,1.4,0,0,0-1.1,0L71.9,231.9a.4.4,0,0,0-.2.5l.2-.2L107,212a1.4,1.4,0,0,1,1.1-.1l34.4,19.9h.2C142.8,231.8,142.7,231.6,142.5,231.5Z"/><path class="g" d="M144.5,233.2l-35.2,20.3a5.2,5.2,0,0,1-4.7.2L69.5,233.5a2.1,2.1,0,0,1-.8-1.1,1.4,1.4,0,0,0,.8,1.4L104.6,254a5.2,5.2,0,0,0,4.7-.1l35.2-20.3c.9-.5,1.3-1.1,1.2-1.7A2.4,2.4,0,0,1,144.5,233.2Z"/><path class="w" d="M108.1,214.5a1.4,1.4,0,0,0-1.1,0L73.5,233.8l-1.7-1c-.2-.1-.2-.4.1-.6L107,212a1.4,1.4,0,0,1,1.1-.1l34.4,19.9c.3.2.3.5,0,.6l-1.7,1Z"/><path class="x" d="M142.5,232.4c.3-.1.3-.4,0-.6l-34.4-19.9a1.4,1.4,0,0,0-1.1.1L71.9,232.2c-.3.2-.3.5-.1.6l34.5,19.9a1.1,1.1,0,0,0,1.1,0Z"/><path class="bi" d="M109.3,249.3,144.5,229a1.9,1.9,0,0,0,1.2-1.5h0v-6.4l-1.2,1.1-1.1-.6.2-.3-.5-.9-24.9-14.6-7.8-4.6-3.1-.9L71.1,221v.9l-.9.5-1.6-.7v6.4h0a1.7,1.7,0,0,0,.8,1.3l35.1,20.2A5.2,5.2,0,0,0,109.3,249.3Zm14.3-15.7-15.9,8.7h-1.4L79.7,227.4l-7.4-3.8,34.7-20a1.4,1.4,0,0,1,1.1-.1L141.9,223Z"/><path class="bj" d="M109.3,249.3,144.5,229a1.9,1.9,0,0,0,1.2-1.5h0v-6.4l-1.2,1.1-1.1-.6.2-.3-.5-.9-24.9-14.6-7.8-4.6-3.1-.9L71.1,221v.9l-.9.5-1.6-.7v6.4h0a1.7,1.7,0,0,0,.8,1.3l35.1,20.2A5.2,5.2,0,0,0,109.3,249.3Zm14.3-15.7-15.9,8.7h-1.4L79.7,227.4l-7.4-3.8,34.7-20a1.4,1.4,0,0,1,1.1-.1L141.9,223Z"/><path class="t" d="M106.8,250v-7.7h.9l15.9-8.7L141.9,223l-.6-.3c.6-.3,3.8-1.2,4.4-1.6v6.4h0a1.9,1.9,0,0,1-1.2,1.5l-35.2,20.3A6.6,6.6,0,0,1,106.8,250Z"/><path class="bk" d="M109.3,242.9l35.2-20.3c1.4-.8,1.6-2,.4-2.7l-35.1-20.3a5.2,5.2,0,0,0-4.7.2L69.9,220.1c-1.4.8-1.6,2-.4,2.7l35.1,20.3A5.2,5.2,0,0,0,109.3,242.9Zm-1.9-1.2a1.1,1.1,0,0,1-1.1,0L71.8,221.9a.4.4,0,0,1,.1-.7L107,201a1.1,1.1,0,0,1,1.1,0l34.4,19.8a.4.4,0,0,1,0,.7Z"/><path class="bl" d="M109.3,242.9l35.2-20.3c1.4-.8,1.6-2,.4-2.7l-35.1-20.3a5.2,5.2,0,0,0-4.7.2L69.9,220.1c-1.4.8-1.6,2-.4,2.7l35.1,20.3A5.2,5.2,0,0,0,109.3,242.9Zm-1.9-1.2a1.1,1.1,0,0,1-1.1,0L71.8,221.9a.4.4,0,0,1,.1-.7L107,201a1.1,1.1,0,0,1,1.1,0l34.4,19.8a.4.4,0,0,1,0,.7Z"/><path class="g" d="M142.5,220.5l-34.4-19.9a1.4,1.4,0,0,0-1.1.1L71.9,220.9a.4.4,0,0,0-.2.5l.2-.2L107,201a1.1,1.1,0,0,1,1.1,0l34.4,19.8.2.2A.4.4,0,0,0,142.5,220.5Z"/><path class="g" d="M144.5,222.3l-35.2,20.2a5.2,5.2,0,0,1-4.7.2L69.5,222.5a1.9,1.9,0,0,1-.8-1,1.4,1.4,0,0,0,.8,1.3l35.1,20.3a5.2,5.2,0,0,0,4.7-.2l35.2-20.3c.9-.5,1.3-1.1,1.2-1.7A2.2,2.2,0,0,1,144.5,222.3Z"/><path class="w" d="M108.1,203.5a1.4,1.4,0,0,0-1.1.1L73.5,222.8l-1.7-.9a.4.4,0,0,1,.1-.7L107,201a1.1,1.1,0,0,1,1.1,0l34.4,19.8a.4.4,0,0,1,0,.7l-1.7.9Z"/><path class="x" d="M142.5,221.5a.4.4,0,0,0,0-.7L108.1,201a1.1,1.1,0,0,0-1.1,0L71.9,221.2a.4.4,0,0,0-.1.7l34.5,19.8a1.1,1.1,0,0,0,1.1,0Z"/><path class="bm" d="M109.3,238.3,144.5,218a1.9,1.9,0,0,0,1.2-1.5h0v-6.4l-1.2,1.1-1.1-.6.2-.3-.5-.9-24.9-14.6-7.8-4.6-3.1-.9L71.1,210.1v.8l-.9.5-1.6-.6v6.3h0a1.5,1.5,0,0,0,.8,1.2l35.1,20.2A5.2,5.2,0,0,0,109.3,238.3Zm14.3-15.6-15.9,8.7h-1.4L79.7,216.4l-7.4-3.8,34.7-20a1.4,1.4,0,0,1,1.1-.1l33.8,19.6Z"/><path class="bn" d="M109.3,238.3,144.5,218a1.9,1.9,0,0,0,1.2-1.5h0v-6.4l-1.2,1.1-1.1-.6.2-.3-.5-.9-24.9-14.6-7.8-4.6-3.1-.9L71.1,210.1v.8l-.9.5-1.6-.6v6.3h0a1.5,1.5,0,0,0,.8,1.2l35.1,20.2A5.2,5.2,0,0,0,109.3,238.3Zm14.3-15.6-15.9,8.7h-1.4L79.7,216.4l-7.4-3.8,34.7-20a1.4,1.4,0,0,1,1.1-.1l33.8,19.6Z"/><path class="t" d="M106.8,239v-7.7h.9l15.9-8.7,18.3-10.6-.6-.4c.6-.3,3.8-1.2,4.4-1.6v6.4h0a1.9,1.9,0,0,1-1.2,1.5l-35.2,20.3A5.2,5.2,0,0,1,106.8,239Z"/><path class="bo" d="M109.3,231.9l35.2-20.3c1.4-.8,1.6-2,.4-2.7l-35.1-20.2a5.2,5.2,0,0,0-4.7.1L69.9,209.1c-1.4.8-1.6,2.1-.4,2.8l35.1,20.2A5.2,5.2,0,0,0,109.3,231.9Zm-1.9-1.2a1.4,1.4,0,0,1-1.1.1L71.8,210.9c-.2-.2-.2-.5.1-.6L107,190a1.4,1.4,0,0,1,1.1,0l34.4,19.9c.3.1.3.4,0,.6Z"/><path class="bp" d="M109.3,231.9l35.2-20.3c1.4-.8,1.6-2,.4-2.7l-35.1-20.2a5.2,5.2,0,0,0-4.7.1L69.9,209.1c-1.4.8-1.6,2.1-.4,2.8l35.1,20.2A5.2,5.2,0,0,0,109.3,231.9Zm-1.9-1.2a1.4,1.4,0,0,1-1.1.1L71.8,210.9c-.2-.2-.2-.5.1-.6L107,190a1.4,1.4,0,0,1,1.1,0l34.4,19.9c.3.1.3.4,0,.6Z"/><path class="g" d="M142.5,209.5l-34.4-19.9a1.4,1.4,0,0,0-1.1.1L71.9,209.9c-.2.2-.3.4-.2.5h.2L107,190a1.4,1.4,0,0,1,1.1,0l34.4,19.9h.2A.4.4,0,0,0,142.5,209.5Z"/><path class="g" d="M144.5,211.3l-35.2,20.3a5.2,5.2,0,0,1-4.7.1L69.5,211.5a1.9,1.9,0,0,1-.8-1,1.6,1.6,0,0,0,.8,1.4l35.1,20.2a5.2,5.2,0,0,0,4.7-.2l35.2-20.3c.9-.5,1.3-1.1,1.2-1.7A2.2,2.2,0,0,1,144.5,211.3Z"/><path class="w" d="M108.1,192.5a1.4,1.4,0,0,0-1.1.1L73.5,211.9l-1.7-1c-.2-.2-.2-.5.1-.6L107,190a1.4,1.4,0,0,1,1.1,0l34.4,19.9c.3.1.3.4,0,.6l-1.7.9Z"/><path class="x" d="M142.5,210.5c.3-.2.3-.5,0-.6L108.1,190a1.4,1.4,0,0,0-1.1,0L71.9,210.3c-.3.1-.3.4-.1.6l34.5,19.9a1.4,1.4,0,0,0,1.1-.1Z"/></g><path class="bq" d="M182.9,192.8a1.6,1.6,0,0,1-.7,1.2c-.4.3-.7.1-.7-.4a1.7,1.7,0,0,1,.7-1.2A.4.4,0,0,1,182.9,192.8Z"/><path class="bq" d="M185.3,191.5a1.4,1.4,0,0,1-.7,1.1c-.4.3-.7.1-.7-.3a1.4,1.4,0,0,1,.7-1.2C185,190.8,185.3,191,185.3,191.5Z"/><path class="bq" d="M187.7,190.1a1.7,1.7,0,0,1-.7,1.2c-.4.2-.7,0-.7-.4a1.4,1.4,0,0,1,.7-1.2C187.4,189.4,187.7,189.6,187.7,190.1Z"/><path class="bq" d="M182.9,214.9a1.9,1.9,0,0,1-.7,1.2c-.4.2-.7,0-.7-.4a1.5,1.5,0,0,1,.7-1.2A.4.4,0,0,1,182.9,214.9Z"/><path class="bq" d="M185.3,213.5a1.4,1.4,0,0,1-.7,1.2c-.4.2-.7.1-.7-.4a1.5,1.5,0,0,1,.7-1.2C185,212.9,185.3,213.1,185.3,213.5Z"/><path class="bq" d="M187.7,212.1a1.4,1.4,0,0,1-.7,1.2c-.4.2-.7.1-.7-.4a1.5,1.5,0,0,1,.7-1.2C187.4,211.5,187.7,211.7,187.7,212.1Z"/><path class="bq" d="M227.7,178.2a1.5,1.5,0,0,1-.7,1.2c-.4.2-.7,0-.7-.4a1.4,1.4,0,0,1,.7-1.2C227.4,177.6,227.7,177.7,227.7,178.2Z"/><path class="bq" d="M230.1,176.8a1.5,1.5,0,0,1-.7,1.2c-.4.2-.7,0-.7-.4a1.4,1.4,0,0,1,.7-1.2C229.8,176.2,230.1,176.4,230.1,176.8Z"/><path class="bq" d="M232.5,175.4a1.5,1.5,0,0,1-.7,1.2.4.4,0,0,1-.7-.4,1.9,1.9,0,0,1,.7-1.2C232.2,174.8,232.5,175,232.5,175.4Z"/><path class="bq" d="M137.5,251.8a1.4,1.4,0,0,1-.7,1.2c-.3.3-.7.1-.7-.4a1.6,1.6,0,0,1,.7-1.1C137.2,251.2,137.5,251.4,137.5,251.8Z"/><path class="bq" d="M139.9,250.5a1.7,1.7,0,0,1-.7,1.2c-.3.2-.6,0-.6-.4a1.6,1.6,0,0,1,.6-1.2C139.6,249.8,139.9,250,139.9,250.5Z"/><path class="bq" d="M142.3,249.1a2,2,0,0,1-.6,1.2c-.4.2-.7,0-.7-.4a1.4,1.4,0,0,1,.7-1.2C142,248.4,142.3,248.6,142.3,249.1Z"/><path class="h" d="M248.4,384.7a4.1,4.1,0,0,1-2.3-.6h0l-62.5-36.3a1.8,1.8,0,0,1-1-1.5,2.3,2.3,0,0,1,1.4-1.8l62.9-36.3a5.8,5.8,0,0,1,5.3-.2l62.4,36.3a1.6,1.6,0,0,1,1,1.4,2.4,2.4,0,0,1-1.3,1.9l-62.9,36.3A5.8,5.8,0,0,1,248.4,384.7Zm-2.1-1a5.6,5.6,0,0,0,4.9-.2L314,347.2a1.9,1.9,0,0,0,1.1-1.5c0-.4-.2-.7-.7-1l-62.5-36.3a5.4,5.4,0,0,0-4.8.2l-62.8,36.3c-.8.4-1.2.9-1.2,1.4a1.4,1.4,0,0,0,.8,1.1Z"/><path class="br" d="M246,369.9,185.9,335c-1.2-.7-1.1-2,.4-2.8l61-35.3a5.7,5.7,0,0,1,4.9-.2l60.1,35c1.3.7,1.1,2-.3,2.8l-61,35.2A5.2,5.2,0,0,1,246,369.9Z"/><path class="bs" d="M315.4,328.4,293.9,327l-41.8-24.4a5.4,5.4,0,0,0-5.1.2L199.8,330l-16.9-1.1v11.8h0a1.5,1.5,0,0,0,.9,1.3l62.4,36.3a6.1,6.1,0,0,0,5.1-.2l62.8-36.3a2.6,2.6,0,0,0,1.3-1.6h0Z"/><path class="bt" d="M315.4,320.4,293.9,319l-41.8-24.4a5.4,5.4,0,0,0-5.1.2l-47.2,27.3L182.9,321v11.8h0a1.5,1.5,0,0,0,.9,1.2l62.4,36.3a5.4,5.4,0,0,0,5.1-.2l62.8-36.3a2.2,2.2,0,0,0,1.3-1.6h0Z"/><path class="bu" d="M315.4,320.4,293.9,319l-41.8-24.4a5.4,5.4,0,0,0-5.1.2l-47.2,27.3L182.9,321v11.8h0a1.5,1.5,0,0,0,.9,1.2l62.4,36.3a5.4,5.4,0,0,0,5.1-.2l62.8-36.3a2.2,2.2,0,0,0,1.3-1.6h0Z"/><path class="bv" d="M246.2,358.4l-62.4-36.3c-1.3-.7-1.2-2,.3-2.9L247,282.9a6.1,6.1,0,0,1,5.1-.2L314.5,319c1.3.7,1.1,2.1-.4,2.9l-62.8,36.3A5.4,5.4,0,0,1,246.2,358.4Z"/><path class="k" d="M246.2,358.4l-62.4-36.3c-1.3-.7-1.2-2,.3-2.9L247,282.9a6.1,6.1,0,0,1,5.1-.2L314.5,319c1.3.7,1.1,2.1-.4,2.9l-62.8,36.3A5.4,5.4,0,0,1,246.2,358.4Z"/><path class="p" d="M314.1,320.8l-62.8,36.3a5.8,5.8,0,0,1-5.1.3l-62.4-36.3a2,2,0,0,1-.8-.8,1.3,1.3,0,0,0,.8,1.8l62.4,36.3a5.4,5.4,0,0,0,5.1-.2l62.8-36.3c1.1-.6,1.5-1.4,1.2-2.1A3.2,3.2,0,0,1,314.1,320.8Z"/><ellipse class="bw" cx="249.5" cy="319.9" rx="23.2" ry="13.4"/><path class="bq" d="M249.4,320.3a27.8,27.8,0,0,1-4.3.4c-2.1,0-7.9.9-7.9,3s2.9,5.4,6.6,6.1,8.7-.2,11.1,0a3.5,3.5,0,0,0,3.5-4.7C257.5,322.6,249.4,320.3,249.4,320.3Z"/><path class="bq" d="M262.4,315.2s.7,1.3.3,2.1-1.6,2.7-4.9.6-9.9-5.1-9.9-5.1-3.7-2.2-3.3-4.6,3.8-1.8,3.8-1.8Z"/><path class="bx" d="M241.7,280.3s.7,15.5,3.5,21.5,3.2,17.1,3.8,19.2,2.4,5.3,5.6,6.1,3.9-1.4,3.8-2.7-.9-3.5-.9-5,.5-2,.5-2.7,3.7,1.3,4.4-1.5a6.3,6.3,0,0,1-.3-1.3c0-.4.8-10.8,1-12a55,55,0,0,0-1.1-11.5c-.8-3.3-.1-10.4-.1-10.4l-10.5-1.9Z"/><path class="by" d="M258.7,281a12.6,12.6,0,0,1-1.3,4.4,92.9,92.9,0,0,1-1.4,12.4s.9,8.4,1.7,11.1.3,7.8.3,7.8l1.1.3c.6,0,1.1-10.2.3-12.1s-1.2-9.8-.7-12.3.7-9.3,1.2-10.5a1.6,1.6,0,0,0-.5-1.9Z"/><path class="o" d="M252.5,224.8a7.6,7.6,0,0,0-3.2,5.9l2.3-.4S251.2,226,252.5,224.8Z"/><path class="by" d="M250.9,284c6.9.6,10.8-2.3,10.8-2.3s.2-1.7.2-1.7l-10.5-1.9-9.7,2.2s.1,3.1.5,7c1.7.3,3.6-3.9,3.6-3.9l4.8.6S243.9,283.5,250.9,284Z"/><path class="bz" d="M243,280.6s14.9,6.9,22.8-4.5a2,2,0,0,0,.3-1.1v-2.8a1.8,1.8,0,0,1,.2-1h0a5,5,0,0,0,.2-2.1l-1.8-13.8c-.3-2.9,1.7-14.1,4.5-18.8s-3.1-15.8-3.1-15.8a4.3,4.3,0,0,0-4.6-1.9s2.8,2.2,1.1,4.2-6.5,3.6-6.5,3.6-9.1,4.2-12.4,9.7a22.9,22.9,0,0,0-1.5,6.5c-.3,3.7-.3,12.7-.5,13.9s-1.1,9.7-1.1,10.1S243,280.6,243,280.6Z"/><path class="ca" d="M263,220.4a2.5,2.5,0,0,0,0-1.7h-1.4A6.1,6.1,0,0,1,263,220.4Z"/><path class="cb" d="M247.5,282.1s10.1-23.7,10.1-32.5-13.8,16.7-13.8,16.7l-.8,14.3A27.5,27.5,0,0,0,247.5,282.1Z"/><path class="cc" d="M266.2,268.9a3,3,0,0,0-.2,1v2.7a1.5,1.5,0,0,1-.4,1.1c-7.8,11.3-22.6,4.4-22.6,4.4s-1.7-9.5-2.2-12.6a10.9,10.9,0,0,1-.1,1.3c.1.4,2.3,13.8,2.3,13.8s14.9,6.9,22.8-4.5a2,2,0,0,0,.3-1.1v-2.8a1.8,1.8,0,0,1,.2-1,5,5,0,0,0,.2-2.1c0-.4-.1-.8-.1-1.2Z"/><path class="cd" d="M269.2,234.3c-2.8,4.8-4.8,15.9-4.5,18.7a3.8,3.8,0,0,0,.1,1c.2-4,2.1-13.3,4.5-17.5.8-1.3.8-3.2.6-5.1A8.2,8.2,0,0,1,269.2,234.3Z"/><path class="bz" d="M244.1,253.4a41.7,41.7,0,0,0,.8-5.9c.2-3.5,1.5-9.1,7.6-7.8,8.7,1.8,4.4,13.9,3.3,16s-5.4,11.7-5.6,12.2-6.9,12.4-9.2,15.2a.5.5,0,0,1-.8,0c-.8-.7-2.7-2.6-2.9-3.8s1.3-6.6,1.3-6.6,4-13,4.3-13.6S243.4,256.5,244.1,253.4Z"/><path class="ce" d="M252.7,225.1a3,3,0,0,0-2.2-1.9c-1.6-.2-2.5-.7-2.7-1.3a12.4,12.4,0,0,0-.4-2.3,14.3,14.3,0,0,1-.6-3.1c0-.1-1.2-.5-1.2-1s.7-2.5.6-2.6a7.2,7.2,0,0,1-.5-2.3,11.3,11.3,0,0,1,.8-3.3c.6-1.1,4.3-7.7,13-3.8s1.6,11.2,2.3,16.1c0,0,.7,1.1-.8,2.7S255.2,224.2,252.7,225.1Z"/><path class="cf" d="M261,222.3c1.5-1.6.8-2.7.8-2.7a8.3,8.3,0,0,1,.1-2.2l-3.5.5s-5-4.8-4.7-2.4-1.1,2.9-1.1,2.9l1,1.4c.3.4.1.8-.1,1.2-1.6,2.4-5.2,1.5-5.2,1.5a5.6,5.6,0,0,0,2.2.7,3,3,0,0,1,2.2,1.9C255.2,224.2,259.4,224,261,222.3Z"/><path class="cg" d="M246.3,204.7s-.7,1.8.2,2.6l1.9,1.6v2.3a1.5,1.5,0,0,0,.2.9l1.2,2a3.1,3.1,0,0,1,.3,1.3v1a.5.5,0,0,0,.5.5h.3a.6.6,0,0,0,.6-.5l.2-1.3s.8-1,2.2.3l1.2.6a1.4,1.4,0,0,1,.8.9c.3,1,1,3.1,1.6,3.4s3.9-.9,4.3-1.6,1.7-5.3,2.5-7.5.6-7.7-5.9-9.4S247.3,202.8,246.3,204.7Z"/><path class="ch" d="M261.6,218.8c.5-.7,1.7-5.3,2.5-7.5a16,16,0,0,1-6,1.9c-3.3.4-9.7-3.7-9.7-3.7v1.7a1.5,1.5,0,0,0,.2.9l1.2,2a3.1,3.1,0,0,1,.3,1.3v1a.5.5,0,0,0,.5.5h.3a.6.6,0,0,0,.6-.5l.2-1.3s.8-1,2.2.3l1.8.9s1,3.5,1.8,4S261.2,219.5,261.6,218.8Z"/><path class="ci" d="M261.7,219s2.5,1.7,1.1,3.9-10.9,5.8-11.3,6.3-.3-3.3,1-4.4,7.2-1.1,8.4-2.8A3.7,3.7,0,0,0,261.7,219Z"/><path class="cj" d="M261.7,219a3.7,3.7,0,0,1-.8,3c-.9,1.3-5.2,2.2-7.3,2.6h0a7,7,0,0,1,1.9,2.7c3-1.4,6.5-3.1,7.3-4.4S261.7,219,261.7,219Z"/><path class="ck" d="M263.1,226.3s-4.2,2.2-6.3,3.1l-4.4,2.3-.7-.8-1,2a30.8,30.8,0,0,0-4.9,3.3,17,17,0,0,0-3,4s4.3-5,7.5-6.4l.8-.4.6-1.6.7.9S261.8,227.6,263.1,226.3Z"/><path class="cl" d="M249,296.2h0a2.3,2.3,0,0,0-.5-1l-16.4-15.1c-.4-.4-.8-.1-1,.6l-2.8,16.6a2.9,2.9,0,0,0,.6,2.1l13.7,13.1-.7,4.8,4.4-1.8h0c.2-.1.3-.4.4-.8l2.4-17.3A2.4,2.4,0,0,0,249,296.2Z"/><path class="cm" d="M227.4,281.5l4.1-1.5h.2a.4.4,0,0,1,.4.2l16.4,15.1a2.3,2.3,0,0,1,.5,1l-.6.2h0l-3.6,1.5-14.3-13.5h0Z"/><path class="cn" d="M224.6,301.1l16.7,16c.5.5.9.2,1.1-.6l2.5-17.5a2.9,2.9,0,0,0-.6-2.1L228,281.7c-.5-.4-.9-.2-1,.6l-3,16.6A3,3,0,0,0,224.6,301.1Z"/><path class="co" d="M244.6,315.5l2.5-17.4a2.9,2.9,0,0,0-.6-2.1l-16.4-15.2-.4-.2c.2,0,.4,0,.5.2L246.6,296a2.9,2.9,0,0,1,.6,2.1l-2.5,17.4q-.1.9-.6.9A1.3,1.3,0,0,0,244.6,315.5Z"/><path class="co" d="M239.6,289.5l.9-.4h.6c.1,0,.1.1.1.2v.2l-2.6,1.1v-.2l.2-.4h.1Z"/><polygon class="co" points="239.8 291.7 238.6 290.6 241.2 289.1 242.3 290.2 239.8 291.7"/><path class="cp" d="M240.7,290.6l.9-.4h.7a.4.4,0,0,1,.1.3h0l-2.6,1.2v-.2a.8.8,0,0,1,.2-.4h.1Z"/><polygon class="cq" points="241.2 291 241.4 290.3 241.3 290.3 241.2 291.1 241.2 291"/><polygon class="cq" points="241.4 290.3 240.2 289.3 240.1 289.3 241.3 290.3 241.4 290.3"/><path class="co" d="M234.4,284.7l.9-.4h.6a.4.4,0,0,1,.1.3v.2l-2.6,1.1v-.2a.8.8,0,0,1,.2-.4h.1Z"/><polygon class="co" points="234.6 286.8 233.4 285.8 236 284.3 237.1 285.3 234.6 286.8"/><path class="cr" d="M235.5,285.7l.9-.3a.7.7,0,0,1,.6-.1h.1a.4.4,0,0,1,.1.3h-.1l-2.5,1.1h0a.5.5,0,0,1,.2-.4h.1Z"/><polygon class="cq" points="236 286.2 236.1 285.5 236.1 285.5 235.9 286.2 236 286.2"/><polygon class="cq" points="236.1 285.5 235 284.4 234.9 284.5 236.1 285.5 236.1 285.5"/><path class="cm" d="M242,286.8l-.5,3.1-.7-.7.4-3a1.6,1.6,0,0,0-.4-1.3l-3.3-3.1c-.3-.2-.6-.1-.7.3l-.5,3-.7-.7.5-3.1c.1-.9.8-1.2,1.4-.6l3.6,3.3A3.5,3.5,0,0,1,242,286.8Z"/><path class="cm" d="M236.3,281.6h1.4l3.9,4.1v2.3l-.2,2-.9.5v-4.2l-.8-1.3a19.2,19.2,0,0,1-1.5-1.4Z"/><polygon class="cm" points="235.4 285.5 236.3 285.1 236.7 282.9 235.8 282.9 235.5 283 235.4 285.5"/><path class="cm" d="M235.6,280.9l1.1-.5s-.3.6-.3.5h-.8Z"/><path class="co" d="M241.1,287.3l-.5,3.1-.8-.8.5-3a2,2,0,0,0-.4-1.3l-3.4-3c-.3-.3-.6-.2-.6.2l-.5,3-.8-.7.5-3c.2-1,.8-1.3,1.5-.7l3.5,3.3A3.7,3.7,0,0,1,241.1,287.3Z"/><path class="ce" d="M237.6,279.2s-.8,3-.6,3.8a4.9,4.9,0,0,0,2.3,2.6c.9.3.6-.7.8-1.4a11.9,11.9,0,0,0,.3-2Z"/><path class="cs" d="M240.4,282.2l-2.8-3a8.1,8.1,0,0,0-.3,1.4,6.9,6.9,0,0,0,2.9,3.3A7.6,7.6,0,0,0,240.4,282.2Z"/><path class="ct" d="M237.3,279.4s.9,3.4,3.5,3.8l-.7-3.6-2.2-.8Z"/><path class="cu" d="M256.3,241.8c2.1,7.5-4.6,18.8-5.6,22.1s-11.1,18.6-11.1,18.6h0v.2l.6.4.4.2h0c.2,0,.4,0,.5-.2,2.3-2.8,9-14.7,9.2-15.2s4.5-10.1,5.6-12.2S259.6,245.9,256.3,241.8Z"/></g></svg>