<svg xmlns="http://www.w3.org/2000/svg" xmlns:xlink="http://www.w3.org/1999/xlink" viewBox="0 0 400 400"><defs><style>.a{font-size:43.01px;font-family:AdobeArabic-Regular, Adobe Arabic;}.a,.m{fill:#fff;}.b{fill:url(#a);}.c{fill:#f59b6b;}.d{fill:#606060;opacity:0.25;}.e{fill:#d1ebff;}.f{fill-rule:evenodd;opacity:0.61;fill:url(#b);}.g{fill:#b2d3ea;}.h{fill:#0050af;}.i{fill:#197bdd;}.j{fill:#d4ecff;}.k{fill:#21e2e2;}.l{fill:#4ea4f9;}</style><linearGradient id="a" x1="1.2" y1="-920.52" x2="1.2" y2="-919.95" gradientTransform="matrix(740.56, 0, 0, -612.51, -676.44, -563389.02)" gradientUnits="userSpaceOnUse"><stop offset="0" stop-color="#c6e6ff"/><stop offset="1" stop-color="#fff"/></linearGradient><linearGradient id="b" x1="16.04" y1="185.45" x2="196.46" y2="185.45" gradientUnits="userSpaceOnUse"><stop offset="0" stop-color="#288ed9"/><stop offset="1" stop-color="#137fcf" stop-opacity="0.05"/></linearGradient></defs><title>advantage-foreign-dedicatedservers</title><text class="a" transform="translate(117 -34)">جراخ یزاجم روس ایازم*</text><path class="b" d="M213.9,141.7c53.5,34.2,114.8,49.5,114.8,49.5s67.5,10.3,42.7,87.1-28.1,104.3-67,106.3c-36.9,1.1-57.6-14.2-94.1-11.5-32.1,2.4-54.1,16.9-107.7-4.2C16.7,330.9,23.1,21.4,213.9,141.7Z"/><circle class="c" cx="362.3" cy="60.5" r="10.1"/><circle class="c" cx="362.3" cy="90.8" r="10.1"/><circle class="c" cx="362.3" cy="121.2" r="10.1"/><rect class="d" x="208" y="55.7" width="126.3" height="10.03" rx="2.4"/><rect class="d" x="208" y="85.8" width="126.3" height="10.03" rx="2.4"/><rect class="d" x="208" y="116" width="126.3" height="10.03" rx="2.4"/><circle class="e" cx="106.3" cy="186.7" r="90.2" transform="translate(-100.9 129.8) rotate(-45)"/><path class="f" d="M106.3,96.5a89.9,89.9,0,0,1,25,3.5,16.2,16.2,0,0,0-.6,7.9c1.4,9.5-3.6,18.7-14.6,15.5s-8.3,9.9-25.3,8.1C76.4,130,61,122.3,61.2,108.6a89.2,89.2,0,0,1,45.1-12.1Zm40.2,9.5c4.4,10,7.8,25.8-8.4,34.3-24.9,13-44,12.5-41.3,28.9s1.6,19.3-1.3,22.9,1.7,9.5,10.6,7c0,0,2.1-1.5,2.5.4s-5.4,8.4.1,15.1,15.7,3,21.1-.6,16.8,4.9,19.2,12,.7,14.2,11.9,14,7.1-15.9,6.9-23.3.9-22.7,11.5-22.2,7.3-4.6,12.2-6.2a9.2,9.2,0,0,1,4.9-.2c0-.5.1-.9.1-1.4a90.3,90.3,0,0,0-50-80.7Zm-5.8,135s3-3.7,6.2-2,3.9,7.3,1.6,8.5-10.1-3.5-7.8-6.5ZM85.1,274.4c9-10.9-.4-21.7-6-26.9s9.4-28.3-8.8-28.7-28-13-14.1-14.6,8.5-9.4,9.9-15.7,6-.7,15-3.8-4.2-22.2-13.2-21.8-6.3,13.7-11.5,11.9-6.5-13,.9-15.2,8.1-8.6,5.6-14-15,0-17.7-9.2c-1.3-4.5-4.9-6.7-8.1-7.7a90.3,90.3,0,0,0-21.1,58c0,2,.1,3.9.2,5.8,12.4,8.3,24.9,26.7,23.2,36.4-2.3,12.8,9.4,19.5,14.6,23.3,2.7,2,3.7,6.7,4,10.7A88.3,88.3,0,0,0,85.1,274.4Z"/><path class="g" d="M201.7,378.7l-56.5-32.6c-3.4-2-3-5.5,1-7.8l54.5-31.5c4-2.3,10.1-2.6,13.6-.6l56.5,32.6c3.4,2.1,3,5.5-1,7.9l-54.6,31.4C211.2,380.5,205.2,380.7,201.7,378.7Z"/><path class="h" d="M289.5,314h0V289.6H234.8l-18.9-10.9c-4.4-2.6-12-2.2-17,.7l-17.6,10.1H126.5v25.1c-.1,1.7.8,3.3,2.9,4.6L200.1,360c4.4,2.5,12,2.2,17-.7l68.3-39.4C288.3,318.2,289.7,316,289.5,314Z"/><path class="h" d="M208,277a19.9,19.9,0,0,0-9.1,2.4l-17.6,10.1H126.5v25.1c-.1,1.7.8,3.3,2.9,4.6L200.1,360a16.4,16.4,0,0,0,7.9,1.7Z"/><path class="i" d="M132.7,289.5h-6.2v25.1c-.1,1.7.8,3.3,2.9,4.6l3.3,1.8Z"/><path class="i" d="M201.2,360.5c3.8,1.6,9.2,1.5,13.6-.1V331.9H201.2Z"/><path class="j" d="M200.1,335l-70.7-40.9c-4.3-2.5-3.8-6.8,1.2-9.7l68.3-39.5c5-2.9,12.6-3.2,17-.7l70.7,40.9c4.3,2.5,3.8,6.9-1.2,9.7l-68.3,39.5C212.1,337.2,204.5,337.5,200.1,335Z"/><path class="i" d="M201.4,327.6l-59.3-34.2c-3.6-2.1-3.1-5.8,1.1-8.2l57.2-33c4.2-2.5,10.5-2.7,14.2-.6l59.3,34.2c3.6,2.1,3.1,5.8-1.1,8.2l-57.2,33C211.4,329.5,205,329.7,201.4,327.6Z"/><path class="k" d="M263.5,320.4a6.3,6.3,0,0,1-2.9,5c-1.6.9-2.8.2-2.8-1.7a6.1,6.1,0,0,1,2.8-4.9C262.2,317.9,263.5,318.6,263.5,320.4Z"/><path class="k" d="M272.7,315.1a6.3,6.3,0,0,1-2.9,5c-1.6.9-2.8.2-2.8-1.7a6.1,6.1,0,0,1,2.8-4.9C271.4,312.6,272.7,313.3,272.7,315.1Z"/><path class="j" d="M281.9,309.8a6.3,6.3,0,0,1-2.9,5c-1.6.9-2.9.2-2.9-1.7a6.2,6.2,0,0,1,2.9-4.9C280.6,307.3,281.9,308,281.9,309.8Z"/><path class="h" d="M289.5,275h0V250.6H234.8l-18.9-10.9c-4.4-2.6-12-2.2-17,.7l-17.6,10.1H126.5v25.1c-.1,1.7.8,3.3,2.9,4.5L200.1,321c4.4,2.5,12,2.2,17-.7l68.3-39.4C288.3,279.2,289.7,277,289.5,275Z"/><path class="h" d="M208,238a17.7,17.7,0,0,0-9.1,2.4l-17.6,10.1H126.5v25.1c-.1,1.7.8,3.3,2.9,4.5L200.1,321a16.4,16.4,0,0,0,7.9,1.7Z"/><path class="i" d="M132.7,250.5h-6.2v25.1c-.1,1.7.8,3.3,2.9,4.5l3.3,1.9Z"/><path class="i" d="M201.2,321.5c3.8,1.6,9.2,1.5,13.6-.1V292.9H201.2Z"/><path class="j" d="M200.1,296l-70.7-40.9c-4.3-2.5-3.8-6.8,1.2-9.7l68.3-39.5c5-2.9,12.6-3.2,17-.7l70.7,40.9c4.3,2.5,3.8,6.8-1.2,9.7l-68.3,39.5C212.1,298.2,204.5,298.5,200.1,296Z"/><path class="i" d="M201.4,288.6l-59.3-34.2c-3.6-2.1-3.1-5.8,1.1-8.2l57.2-33c4.2-2.5,10.5-2.7,14.2-.6l59.3,34.2c3.6,2.1,3.1,5.8-1.1,8.2l-57.2,33C211.4,290.5,205,290.7,201.4,288.6Z"/><path class="j" d="M263.5,281.4a6.3,6.3,0,0,1-2.9,5c-1.6.9-2.8.2-2.8-1.7a6.1,6.1,0,0,1,2.8-4.9C262.2,278.9,263.5,279.6,263.5,281.4Z"/><path class="c" d="M272.7,276.1a6.3,6.3,0,0,1-2.9,5c-1.6.9-2.8.2-2.8-1.7a6.1,6.1,0,0,1,2.8-4.9C271.4,273.6,272.7,274.3,272.7,276.1Z"/><path class="k" d="M281.9,270.8a6.3,6.3,0,0,1-2.9,5c-1.6.9-2.9.2-2.9-1.7a6.2,6.2,0,0,1,2.9-4.9C280.6,268.3,281.9,269,281.9,270.8Z"/><path class="h" d="M289.5,236h0V211.6H234.8l-18.9-11c-4.4-2.5-12-2.1-17,.8l-17.6,10.1H126.5v25.1c-.1,1.7.8,3.3,2.9,4.5L200.1,282c4.4,2.5,12,2.2,17-.7l68.3-39.4C288.3,240.2,289.7,238,289.5,236Z"/><path class="h" d="M208,199a17.7,17.7,0,0,0-9.1,2.4l-17.6,10.1H126.5v25.1c-.1,1.7.8,3.3,2.9,4.5L200.1,282a16.4,16.4,0,0,0,7.9,1.7Z"/><path class="i" d="M132.7,211.5h-6.2v25.1c-.1,1.7.8,3.3,2.9,4.5l3.3,1.9Z"/><path class="i" d="M201.2,282.5c3.8,1.6,9.2,1.5,13.6-.1V253.9H201.2Z"/><path class="l" d="M200.1,257l-70.7-40.9c-4.3-2.5-3.8-6.8,1.2-9.7l68.3-39.5c5-2.9,12.6-3.2,17-.7l70.7,40.9c4.3,2.5,3.8,6.8-1.2,9.7l-68.3,39.5C212.1,259.2,204.5,259.5,200.1,257Z"/><path class="m" d="M285.4,212l-68.3,39.5c-5,2.9-12.6,3.2-17,.7l-70.7-40.9a6,6,0,0,1-2.2-1.9c-1.5,2.4-.8,5,2.2,6.7L200.1,257c4.4,2.5,12,2.2,17-.7l68.3-39.5c3.9-2.2,5-5.3,3.4-7.8A10.2,10.2,0,0,1,285.4,212Z"/><path class="c" d="M263.5,242.4a6.3,6.3,0,0,1-2.9,5c-1.6.9-2.8.2-2.8-1.7a6.1,6.1,0,0,1,2.8-4.9C262.2,239.9,263.5,240.6,263.5,242.4Z"/><path class="j" d="M272.7,237.1a6.3,6.3,0,0,1-2.9,5c-1.6.9-2.8.2-2.8-1.7a6.1,6.1,0,0,1,2.8-4.9C271.4,234.6,272.7,235.3,272.7,237.1Z"/><path class="j" d="M281.9,231.8a6.3,6.3,0,0,1-2.9,5c-1.6.9-2.9.2-2.9-1.7a6.2,6.2,0,0,1,2.9-4.9C280.6,229.3,281.9,230,281.9,231.8Z"/><path class="i" d="M204.3,231.7l-33.1-19.2c-2-1.1-1.8-3.2.6-4.5l31.9-18.5c2.4-1.3,5.9-1.5,8-.3l33.1,19.1c2,1.2,1.7,3.2-.6,4.6l-32,18.4A8.8,8.8,0,0,1,204.3,231.7Z"/><path class="j" d="M207.5,215.7l-4.6-2.7c-.3-.1-.2-.4.1-.6l4.4-2.6a1.1,1.1,0,0,1,1.1,0l4.6,2.6c.3.2.2.5-.1.7l-4.4,2.5A1.4,1.4,0,0,1,207.5,215.7Z"/><path class="h" d="M171.2,212.5h.1l.5-.3,31.9-18.5c2.4-1.3,5.9-1.5,8-.3l33,19c1.9-1.3,2-3.1.1-4.2l-33.1-19.1c-2.1-1.2-5.6-1-8,.3L171.8,208C169.4,209.3,169.2,211.4,171.2,212.5Z"/><path class="c" d="M195.6,264.1a1.2,1.2,0,0,1-1.9,1.1,4.2,4.2,0,0,1-2-3.3c0-1.2.9-1.7,2-1.1A4.4,4.4,0,0,1,195.6,264.1Z"/><path class="k" d="M189.6,260.7c0,1.2-.8,1.7-1.9,1.1a4.1,4.1,0,0,1-1.9-3.3c0-1.3.8-1.8,1.9-1.1A4.1,4.1,0,0,1,189.6,260.7Z"/><path class="k" d="M195.6,271.3a1.2,1.2,0,0,1-1.9,1.1,4.2,4.2,0,0,1-2-3.3c0-1.2.9-1.7,2-1.1A4.4,4.4,0,0,1,195.6,271.3Z"/><path class="k" d="M189.6,267.9c0,1.2-.8,1.7-1.9,1.1a4.1,4.1,0,0,1-1.9-3.3c0-1.3.8-1.8,1.9-1.1A4.1,4.1,0,0,1,189.6,267.9Z"/><path class="j" d="M195.6,302.9a1.2,1.2,0,0,1-1.9,1.1,4.2,4.2,0,0,1-2-3.3c0-1.2.9-1.7,2-1.1A4.4,4.4,0,0,1,195.6,302.9Z"/><path class="j" d="M189.6,299.5c0,1.2-.8,1.7-1.9,1.1a4.1,4.1,0,0,1-1.9-3.3c0-1.3.8-1.7,1.9-1.1A4.1,4.1,0,0,1,189.6,299.5Z"/><path class="k" d="M195.6,310.1a1.2,1.2,0,0,1-1.9,1.1,4.2,4.2,0,0,1-2-3.3c0-1.2.9-1.7,2-1.1A4.4,4.4,0,0,1,195.6,310.1Z"/><path class="c" d="M189.6,306.7c0,1.2-.8,1.7-1.9,1.1a4.1,4.1,0,0,1-1.9-3.3c0-1.3.8-1.8,1.9-1.1A4.1,4.1,0,0,1,189.6,306.7Z"/><path class="j" d="M195.6,341.7a1.2,1.2,0,0,1-1.9,1.1,4.2,4.2,0,0,1-2-3.3c0-1.2.9-1.7,2-1.1A4.4,4.4,0,0,1,195.6,341.7Z"/><path class="k" d="M189.6,338.3c0,1.2-.8,1.7-1.9,1.1a4.1,4.1,0,0,1-1.9-3.3c0-1.2.8-1.7,1.9-1.1A4.1,4.1,0,0,1,189.6,338.3Z"/><path class="c" d="M195.6,348.9a1.2,1.2,0,0,1-1.9,1.1,4.2,4.2,0,0,1-2-3.3c0-1.2.9-1.7,2-1.1A4.4,4.4,0,0,1,195.6,348.9Z"/><path class="j" d="M189.6,345.5c0,1.2-.8,1.7-1.9,1.1a4.1,4.1,0,0,1-1.9-3.3c0-1.2.8-1.7,1.9-1.1A4.1,4.1,0,0,1,189.6,345.5Z"/></svg>