<svg xmlns="http://www.w3.org/2000/svg" xmlns:xlink="http://www.w3.org/1999/xlink" viewBox="0 0 400 400"><defs><style>.a{fill:#6de0f6;}.b{fill:none;}.c{isolation:isolate;}.d{fill:url(#a);}.e{fill:#d1ebff;}.f{fill-rule:evenodd;opacity:0.61;fill:url(#b);}.g{fill:#21e2e2;}.h{fill:url(#c);}.ad,.i{fill:#6ee8fc;}.j{fill:url(#d);}.k{fill:#fff;}.l{fill:url(#e);}.m{clip-path:url(#f);}.n{fill:#267fe5;}.ae,.o{fill:#25bfec;}.p{fill:#18d0f7;}.q{fill:url(#g);}.r{fill:url(#h);}.s{fill:url(#i);}.t{clip-path:url(#j);}.u{fill:url(#k);}.v{fill:url(#l);}.ah,.w,.x,.y{fill:#50deff;}.w{opacity:0.1;}.ai,.x{opacity:0.4;}.y{opacity:0.6;}.z{fill:#31dbf7;opacity:0.8;}.aa{fill:#31d8f4;}.ab{fill:#22215b;}.ac{clip-path:url(#m);}.ad,.ae{opacity:0.5;}.af{fill:url(#n);}.ag{fill:url(#o);}.ai{fill:#0c0f38;}.aj{mix-blend-mode:lighten;}.ak{fill:#4ea4f9;}.al{fill:url(#p);}.am{fill:#0050af;}.an{fill:#267cd1;}.ao{fill:#2842a2;}.ap{fill:#63b4f7;}.aq{fill:#2ba0ef;}.ar{opacity:0.11;}.as{clip-path:url(#q);}.at{fill:url(#r);}.au{fill:url(#s);}.av{fill:#9198db;}.aw{fill:#adb1f2;}.ax{fill:#24126a;}.ay{fill:#42e8e0;}.az{clip-path:url(#t);}.ba{fill:#e1001f;}.bb{fill:#f6d928;}</style><linearGradient id="a" x1="197.6" y1="357.42" x2="156.71" y2="125.55" gradientUnits="userSpaceOnUse"><stop offset="0" stop-color="#c6e6ff"/><stop offset="1" stop-color="#fff"/></linearGradient><linearGradient id="b" x1="201.21" y1="154.57" x2="391.04" y2="154.57" gradientUnits="userSpaceOnUse"><stop offset="0" stop-color="#288ed9"/><stop offset="1" stop-color="#137fcf" stop-opacity="0.05"/></linearGradient><linearGradient id="c" x1="91.82" y1="247.82" x2="152.84" y2="247.82" gradientUnits="userSpaceOnUse"><stop offset="0" stop-color="#4ba6f0"/><stop offset="1" stop-color="#0056ba"/></linearGradient><linearGradient id="d" x1="91.82" y1="216.1" x2="152.85" y2="216.1" xlink:href="#c"/><linearGradient id="e" x1="247.38" y1="227.1" x2="271.76" y2="205.99" gradientTransform="matrix(-0.87, 0.5, 1, 0.58, 131.02, -38.72)" gradientUnits="userSpaceOnUse"><stop offset="0" stop-color="#630692"/><stop offset="0.23" stop-color="#5b0e94"/><stop offset="0.59" stop-color="#432399"/><stop offset="1" stop-color="#2142a1"/></linearGradient><clipPath id="f"><path class="a" d="M111.5,221.4l20.1-11.6c1.5-.8,1.3-2.3-.4-3.2l7.6,4.4a6.2,6.2,0,0,0-5.6-.3L113,222.4c-1.4.8-1.2,2.3.4,3.2l-7.5-4.4A5.9,5.9,0,0,0,111.5,221.4Z"/></clipPath><linearGradient id="g" x1="340.99" y1="214.02" x2="415.35" y2="214.02" gradientTransform="matrix(-1, 0, 0, 1, 499.61, 0)" xlink:href="#c"/><linearGradient id="h" x1="91.82" y1="207.19" x2="152.85" y2="207.19" xlink:href="#c"/><linearGradient id="i" x1="238.48" y1="219.4" x2="262.86" y2="198.28" xlink:href="#e"/><clipPath id="j"><path class="a" d="M111.5,212.5l20.1-11.6c1.5-.8,1.3-2.3-.4-3.2l7.6,4.4a6.2,6.2,0,0,0-5.6-.3L113,213.5c-1.4.8-1.2,2.3.4,3.2l-7.5-4.4A5.9,5.9,0,0,0,111.5,212.5Z"/></clipPath><linearGradient id="k" x1="340.99" y1="206.43" x2="415.35" y2="206.43" gradientTransform="matrix(-1, 0, 0, 1, 499.61, 0)" xlink:href="#c"/><linearGradient id="l" x1="91.82" y1="199.61" x2="152.85" y2="199.61" xlink:href="#c"/><clipPath id="m"><path class="b" d="M73.5,296.1,99.8,279c.8.5,1.4,0,1.4-1V237.7a3.1,3.1,0,0,0-1.4-2.6l-1.5-.9c-.8-.4-1.4,0-1.4,1.1L72.1,246.6C72.1,247.6,72.8,295.7,73.5,296.1Z"/></clipPath><linearGradient id="n" x1="-11.3" y1="258.71" x2="28.52" y2="276.43" gradientTransform="matrix(-1, 0, 0, 1, 86.76, 0)" gradientUnits="userSpaceOnUse"><stop offset="0" stop-color="#2c75e4"/><stop offset="0.06" stop-color="#3168da"/><stop offset="0.37" stop-color="#4d22a3"/><stop offset="0.52" stop-color="#58068e"/><stop offset="0.66" stop-color="#5b078f"/><stop offset="0.76" stop-color="#640a92"/><stop offset="0.85" stop-color="#740f98"/><stop offset="0.93" stop-color="#8b17a0"/><stop offset="1" stop-color="#a31fa9"/></linearGradient><linearGradient id="o" x1="5.02" y1="266.28" x2="-47.76" y2="266.28" xlink:href="#n"/><linearGradient id="p" x1="-1937.74" y1="267.13" x2="-1924.31" y2="267.13" gradientTransform="matrix(-1, 0, 0, 1, -1674.98, 0)" gradientUnits="userSpaceOnUse"><stop offset="0" stop-color="#5761d7"/><stop offset="0.18" stop-color="#5c66d9"/><stop offset="0.39" stop-color="#6a73df"/><stop offset="0.61" stop-color="#8289e8"/><stop offset="0.85" stop-color="#a3a7f5"/><stop offset="1" stop-color="#bcbeff"/></linearGradient><clipPath id="q"><polygon class="b" points="194 204.7 259.2 242.4 251.2 290.1 185.9 252.4 194 204.7"/></clipPath><linearGradient id="r" x1="-1932.37" y1="261.5" x2="-1821.82" y2="261.5" gradientTransform="matrix(-1, 0, 0, 1, -1674.98, 0)" gradientUnits="userSpaceOnUse"><stop offset="0" stop-color="#c0bff6"/><stop offset="0.29" stop-color="#c5c4f7"/><stop offset="0.64" stop-color="#d3d2f9"/><stop offset="1" stop-color="#e9e9fd"/></linearGradient><linearGradient id="s" x1="-1939.65" y1="253.38" x2="-1911.35" y2="253.38" xlink:href="#r"/><clipPath id="t"><path class="b" d="M122.7,252l18.1-10.3c2-1.2,3.7-.5,3.7,1.6v7.5a7.5,7.5,0,0,1-3.7,5.8L122.7,267c-2.1,1.1-3.7.4-3.7-1.6v-7.5A7.6,7.6,0,0,1,122.7,252Z"/></clipPath></defs><title>advantage-germany-vps</title><g class="c"><path class="d" d="M226.7,343.8c-63.5,35.2-143.6,21-189.6-35.2-12.7-15.5-21.2-32.2-21-49,.7-63.7,62.6-57.8,111.5-56.4s74-100.6,127.7-93,103.9,89.8,70.8,152C310.4,291.8,267.5,321.2,226.7,343.8Z"/><circle class="e" cx="296.1" cy="155.9" r="94.9" transform="translate(-23.5 255.1) rotate(-45)"/><path class="f" d="M296.1,61a95.7,95.7,0,0,1,26.4,3.7,17.8,17.8,0,0,0-.6,8.3c1.4,9.9-3.8,19.6-15.4,16.3s-8.7,10.4-26.7,8.5c-15.1-1.6-31.2-9.7-31.1-24.1A93.8,93.8,0,0,1,296.1,61Zm42.4,9.9c4.6,10.6,8.1,27.2-8.8,36.1-26.3,13.7-46.3,13.2-43.5,30.5s1.7,20.3-1.4,24.1,1.8,10,11.2,7.3c0,0,2.1-1.6,2.6.5s-5.7,8.8.1,15.9,16.5,3.1,22.2-.7,17.7,5.2,20.2,12.6.7,15,12.5,14.8,7.5-16.8,7.3-24.6,1-23.8,12.1-23.4,7.7-4.8,12.8-6.4a9.5,9.5,0,0,1,5.2-.3v-1.4a95.1,95.1,0,0,0-52.5-85ZM332.4,213s3.2-3.9,6.5-2.1,4.2,7.7,1.7,9-10.7-3.7-8.2-6.9Zm-58.6,35.2c9.5-11.5-.4-22.9-6.2-28.3s9.9-29.8-9.3-30.2-29.5-13.7-14.8-15.4,8.9-9.9,10.4-16.5,6.3-.7,15.8-4-4.5-23.4-14-22.9-6.6,14.4-12,12.5-6.8-13.7,1-16.1,8.5-8.9,5.9-14.6-15.9,0-18.7-9.7a11.8,11.8,0,0,0-8.5-8.1,94.9,94.9,0,0,0-22.2,61c0,2,.1,4.1.2,6.1,13,8.7,26.2,28.1,24.4,38.3-2.4,13.4,9.9,20.5,15.3,24.5,2.9,2.2,3.9,7.1,4.2,11.3A96.1,96.1,0,0,0,273.8,248.2Z"/><path class="g" d="M109.2,302.5a12.1,12.1,0,0,1-6-1.5l-9-5.1c-1.7-1-2.7-2.3-2.7-3.7a3.3,3.3,0,0,1,2-2.8l37.3-21.6c2.8-1.6,7.5-1.4,10.7.4l9,5.2c1.7,1,2.7,2.3,2.7,3.6a3.3,3.3,0,0,1-2,2.9l-37.4,21.6A9.5,9.5,0,0,1,109.2,302.5Zm26.3-35.2a9.8,9.8,0,0,0-4.4,1L93.8,289.9a2.9,2.9,0,0,0-1.7,2.3c0,1.2.9,2.3,2.4,3.2l9,5.1c3,1.7,7.5,1.9,10,.4l37.4-21.5a2.7,2.7,0,0,0,1.6-2.4c0-1.1-.8-2.2-2.3-3.1l-9-5.1A11,11,0,0,0,135.5,267.3Z"/><path class="h" d="M91.8,223.9h18.5L131,212c2.6-1.6,7.3-1.4,10.3.4l-7-4.1h18.5v53.6h0a2.9,2.9,0,0,1-1.7,2.8l-37.4,21.6c-2.7,1.5-7.3,1.3-10.4-.4l-8.9-5.2a4.6,4.6,0,0,1-2.6-3.2h0Z"/><path class="i" d="M92.4,223.9v54.2h0a2.7,2.7,0,0,0,.6,1.6,4,4,0,0,1-1.2-2.2h0V223.9Z"/><path class="j" d="M113.7,232.7l37.4-21.6c2.6-1.5,2.3-4.2-.8-6l-9-5.1c-3-1.8-7.7-2-10.3-.5L93.6,221.1c-2.6,1.5-2.3,4.2.8,6l8.9,5.1C106.4,234,111,234.2,113.7,232.7Z"/><path class="k" d="M113,232.7l37.3-21.6c2.7-1.5,2.3-4.2-.7-6l-9-5.1a11.6,11.6,0,0,0-5.5-1.5,10.8,10.8,0,0,1,6.2,1.5l9,5.1c3.1,1.8,3.4,4.5.8,6l-37.4,21.6a10.7,10.7,0,0,1-4.9,1A10.8,10.8,0,0,0,113,232.7Z"/><path class="i" d="M93.6,221.1,131,199.5a9.6,9.6,0,0,1,4.9-1,9.3,9.3,0,0,0-4.2,1L94.4,221.1c-2.7,1.5-2.3,4.2.7,6l9,5.1a12.5,12.5,0,0,0,5.5,1.5,11.3,11.3,0,0,1-6.3-1.5l-8.9-5.1C91.3,225.3,91,222.6,93.6,221.1Z"/><path class="l" d="M112.5,226.4l27.8-16c2-1.2,1.7-3.2-.6-4.5l.2.2c-2.3-1.3-5.7-1.5-7.7-.4l-27.8,16.1c-2,1.2-1.7,3.1.5,4.5l-.2-.2C107,227.4,110.5,227.6,112.5,226.4Z"/><path class="a" d="M111.5,221.4l20.1-11.6c1.5-.8,1.3-2.3-.4-3.2l7.6,4.4a6.2,6.2,0,0,0-5.6-.3L113,222.4c-1.4.8-1.2,2.3.4,3.2l-7.5-4.4A5.9,5.9,0,0,0,111.5,221.4Z"/><g class="m"><path class="n" d="M131.2,208.2l7.6,4.3a6.5,6.5,0,0,0-5.6-.2L113,224c-.3.1-.5.4-.7.6a1.5,1.5,0,0,1,.7-2.2l20.2-11.7a6.2,6.2,0,0,1,5.6.3l-7.6-4.4c1.3.7,1.7,1.8,1.1,2.6A2.2,2.2,0,0,0,131.2,208.2Z"/><path class="o" d="M131.2,210.1l7.6,4.3a6.5,6.5,0,0,0-5.6-.2L113,225.9l-.6.4a1.5,1.5,0,0,1,.6-2.3l20.2-11.7a6.5,6.5,0,0,1,5.6.2l-7.6-4.3c1.4.7,1.7,1.9,1,2.7A2.1,2.1,0,0,0,131.2,210.1Z"/><path class="p" d="M132,213l-.8-.6,7.6,4.4a6.2,6.2,0,0,0-5.6-.3L113,228.2l-.4.3a1.6,1.6,0,0,1,.4-2.6l20.2-11.7a6.5,6.5,0,0,1,5.6.2l-7.6-4.3C132.7,210.9,133,212.2,132,213Z"/></g><path class="q" d="M91.8,215h18.5L131,203.1c2.6-1.6,7.3-1.4,10.3.4l-7-4.1h18.5v3.8h0a2.9,2.9,0,0,1-1.7,2.8l-37.4,21.6c-2.7,1.5-7.3,1.3-10.4-.4L94.4,222a4.6,4.6,0,0,1-2.6-3.2h0Z"/><path class="i" d="M92.4,215v4.4h0A2.7,2.7,0,0,0,93,221a3.7,3.7,0,0,1-1.2-2.2h0V215Z"/><path class="r" d="M113.7,223.8l37.4-21.6c2.6-1.5,2.3-4.2-.8-6l-9-5.1c-3-1.8-7.7-2-10.3-.5L93.6,212.2c-2.6,1.5-2.3,4.2.8,6l8.9,5.1C106.4,225.1,111,225.3,113.7,223.8Z"/><path class="k" d="M113,223.8l37.3-21.6c2.7-1.5,2.3-4.2-.7-6l-9-5.1a11.6,11.6,0,0,0-5.5-1.5,10.8,10.8,0,0,1,6.2,1.5l9,5.1c3.1,1.8,3.4,4.5.8,6l-37.4,21.6a10.7,10.7,0,0,1-4.9,1A10.8,10.8,0,0,0,113,223.8Z"/><path class="i" d="M93.6,212.2,131,190.6a9.6,9.6,0,0,1,4.9-1,9.3,9.3,0,0,0-4.2,1L94.4,212.2c-2.7,1.5-2.3,4.2.7,6l9,5.1a12.5,12.5,0,0,0,5.5,1.5,11.3,11.3,0,0,1-6.3-1.5l-8.9-5.1C91.3,216.4,91,213.7,93.6,212.2Z"/><path class="s" d="M112.5,217.5l27.8-16c2-1.2,1.7-3.2-.6-4.5l.2.2a8.4,8.4,0,0,0-7.7-.4l-27.8,16.1c-2,1.2-1.7,3.1.5,4.5l-.2-.2C107,218.5,110.5,218.7,112.5,217.5Z"/><path class="a" d="M111.5,212.5l20.1-11.6c1.5-.8,1.3-2.3-.4-3.2l7.6,4.4a6.2,6.2,0,0,0-5.6-.3L113,213.5c-1.4.8-1.2,2.3.4,3.2l-7.5-4.4A5.9,5.9,0,0,0,111.5,212.5Z"/><g class="t"><path class="n" d="M131.2,199.3l7.6,4.3a6.5,6.5,0,0,0-5.6-.2L113,215.1c-.3.1-.5.4-.7.6a1.5,1.5,0,0,1,.7-2.2l20.2-11.7a6.2,6.2,0,0,1,5.6.3l-7.6-4.4c1.3.7,1.7,1.8,1.1,2.6A2.2,2.2,0,0,0,131.2,199.3Z"/><path class="o" d="M131.2,201.2l7.6,4.3a6.5,6.5,0,0,0-5.6-.2L113,217l-.6.4a1.5,1.5,0,0,1,.6-2.3l20.2-11.7a6.5,6.5,0,0,1,5.6.2l-7.6-4.3c1.4.7,1.7,1.9,1,2.7A2.1,2.1,0,0,0,131.2,201.2Z"/><path class="p" d="M132,204.1a2.8,2.8,0,0,0-.8-.6l7.6,4.4a6.2,6.2,0,0,0-5.6-.3L113,219.3l-.4.3a1.6,1.6,0,0,1,.4-2.6l20.2-11.7a6.5,6.5,0,0,1,5.6.2l-7.6-4.3C132.7,202,133,203.2,132,204.1Z"/></g><path class="u" d="M91.8,207.4h18.5L131,195.5c2.6-1.6,7.3-1.4,10.3.4l-7-4.1h18.5v3.9h0a2.9,2.9,0,0,1-1.7,2.7L113.7,220c-2.7,1.5-7.3,1.3-10.4-.4l-8.9-5.2a4.6,4.6,0,0,1-2.6-3.2h0Z"/><path class="i" d="M92.4,207.4v4.4h0a2.5,2.5,0,0,0,.6,1.6,3.7,3.7,0,0,1-1.2-2.2h0v-3.8Z"/><path class="v" d="M113.7,216.2l37.4-21.6c2.6-1.5,2.3-4.2-.8-6l-9-5.1c-3-1.8-7.7-2-10.3-.5L93.6,204.6c-2.6,1.5-2.3,4.2.8,6l8.9,5.1C106.4,217.5,111,217.7,113.7,216.2Z"/><path class="i" d="M112.1,212.5l32.8-19c1.6-.9,1.4-2.5-.5-3.6l-5.3-3a6.8,6.8,0,0,0-6.2-.3l-32.8,19c-1.6.9-1.4,2.5.4,3.5l5.4,3.1A6.8,6.8,0,0,0,112.1,212.5Z"/><path class="n" d="M144.4,190.5l-5.3-3.1a7.1,7.1,0,0,0-6.2-.2l-32.8,18.9a2.2,2.2,0,0,0-1.1,1.3,1.6,1.6,0,0,1,1.1-1.8l32.8-19a6.8,6.8,0,0,1,6.2.3l5.3,3c1.2.7,1.7,1.6,1.5,2.4A2.6,2.6,0,0,0,144.4,190.5Z"/><path class="k" d="M113,216.2l37.3-21.6c2.7-1.5,2.3-4.2-.7-6l-9-5.1a12.9,12.9,0,0,0-5.5-1.5,11.6,11.6,0,0,1,6.2,1.5l9,5.1c3.1,1.8,3.4,4.5.8,6l-37.4,21.6a9.6,9.6,0,0,1-4.9,1A9.3,9.3,0,0,0,113,216.2Z"/><path class="i" d="M93.6,204.6,131,183a10.7,10.7,0,0,1,4.9-1,10.8,10.8,0,0,0-4.2,1L94.4,204.6c-2.7,1.5-2.3,4.2.7,6l9,5.1a11.3,11.3,0,0,0,5.5,1.5,11.3,11.3,0,0,1-6.3-1.5l-8.9-5.1C91.3,208.8,91,206.1,93.6,204.6Z"/><path class="a" d="M116.4,278.2l30.4-17.5a3.8,3.8,0,0,0,1.5-2.9V220.6c0-1.1-.7-1.6-1.5-1.1L116.4,237a3.6,3.6,0,0,0-1.5,2.8v37.3C114.9,278.2,115.6,278.7,116.4,278.2Z"/><path class="n" d="M115.9,278l30.3-17.6a3.2,3.2,0,0,0,1.5-2.8V220.4a1.6,1.6,0,0,0-.3-1.1c.5,0,.9.5.9,1.3v37.2a3.8,3.8,0,0,1-1.5,2.9l-30.4,17.5a.8.8,0,0,1-1.1-.1Z"/><path class="g" d="M143.8,337a4.6,4.6,0,0,1-2-.5l-51.9-30a2.2,2.2,0,0,1,0-3.8l8.6-5,.3.6-8.6,4.9a1.6,1.6,0,0,0,0,2.8l51.9,29.9a3.2,3.2,0,0,0,3.5,0l9.5-5.5.3.6-9.5,5.5A4.6,4.6,0,0,1,143.8,337Z"/><path class="w" d="M130.9,194.6a3.7,3.7,0,0,0,2.9,0c.8-.5.8-1.2,0-1.7a3,3,0,0,0-2.9,0C130.1,193.4,130.1,194.1,130.9,194.6Z"/><path class="x" d="M126.1,197.4a3.4,3.4,0,0,0,2.8,0c.8-.5.8-1.2,0-1.7a3.4,3.4,0,0,0-2.8,0C125.3,196.2,125.3,196.9,126.1,197.4Z"/><path class="y" d="M121.2,200.2a3,3,0,0,0,2.9,0c.8-.5.8-1.2,0-1.7a3.7,3.7,0,0,0-2.9,0C120.4,199,120.4,199.7,121.2,200.2Z"/><path class="z" d="M116.3,203a3,3,0,0,0,2.9,0c.8-.5.8-1.2,0-1.7a3.7,3.7,0,0,0-2.9,0C115.5,201.8,115.5,202.5,116.3,203Z"/><path class="aa" d="M111.4,205.8a3,3,0,0,0,2.9,0,.8.8,0,0,0,0-1.6,3,3,0,0,0-2.9,0A.8.8,0,0,0,111.4,205.8Z"/><path class="ab" d="M98.3,278.2l1.5.8c.8.5,1.4,0,1.4-1V237.7a3.1,3.1,0,0,0-1.4-2.6l-1.5-.9c-.8-.4-1.4,0-1.4,1.1v40.2A3.5,3.5,0,0,0,98.3,278.2Z"/><g class="ac"><polygon class="ad" points="80.2 285.6 105.4 271 105.4 231.4 80.2 246 80.2 285.6"/><polygon class="ae" points="82.4 286.8 107.6 272.3 107.6 232.7 82.4 247.2 82.4 286.8"/><polygon class="ad" points="105.4 231.4 107.6 232.7 82.4 247.2 80.2 246 105.4 231.4"/><polygon class="ad" points="105.4 271 107.6 272.3 82.4 286.8 80.2 285.6 105.4 271"/><path class="af" d="M79.6,243.8,81,243h0a1,1,0,0,1,.9.1l1.5.8a3.8,3.8,0,0,1,1.4,2.7v40.2c0,.6-.2,1-.5,1.1h0l-1.3.8.2-.9-1.3-.8a3.1,3.1,0,0,1-1.4-2.6V244.1h0Z"/><path class="a" d="M83.4,243.9l-1.5-.8a.8.8,0,0,0-.8-.1h.4l1.6.9a3.4,3.4,0,0,1,1.4,2.7v41h0a1.3,1.3,0,0,0,.3-1V246.6A3.8,3.8,0,0,0,83.4,243.9Z"/><path class="ag" d="M80.5,287.8l1.5.9c.8.4,1.4,0,1.4-1.1V247.4a3.5,3.5,0,0,0-1.4-2.7l-1.5-.8c-.8-.5-1.4,0-1.4,1v40.3A3.1,3.1,0,0,0,80.5,287.8Z"/><polygon class="ah" points="102.8 259.8 100.2 258.2 100.2 254.3 102.8 255.8 102.8 259.8"/><polygon class="ah" points="102.8 261.7 102.8 265.9 100.2 264.4 100.2 260.2 102.8 261.7"/><polygon class="ah" points="91.5 247.9 91.5 251.1 90.6 251.6 90.6 248.4 91.5 247.9"/><polygon class="ah" points="93.7 249.9 92.8 250.4 92.8 247.2 93.7 246.6 93.7 249.9"/><polygon class="ah" points="88.8 265.3 88.8 274.4 100 268 102.8 269.6 86.1 279.2 86.1 263.8 88.8 265.3"/><polygon class="ah" points="100.2 250.9 100.2 246.1 94.9 249.2 94.9 245.9 102.8 241.3 102.8 252.5 100.2 250.9"/><polygon class="ah" points="86.1 260 88.8 261.5 88.8 263.3 86.1 261.8 86.1 260"/><polygon class="ah" points="89.4 252.3 88.8 252.7 88.8 257.8 86.1 256.2 86.1 251 89.4 249.1 89.4 252.3"/><polygon class="ah" points="96.9 251.9 98.8 250.8 98.8 248.6 96.9 249.7 96.9 251.9"/><polygon class="ah" points="93.7 253.8 95.6 252.7 95.6 250.5 93.7 251.6 93.7 253.8"/><polygon class="ah" points="93.7 257.1 95.6 256 95.6 253.9 93.7 255 93.7 257.1"/><polygon class="ah" points="90.4 271.6 92.3 270.5 92.3 268.4 90.4 269.4 90.4 271.6"/><polygon class="ah" points="96.9 255.2 98.8 254.2 98.8 252 96.9 253.1 96.9 255.2"/><polygon class="ah" points="90.4 255.6 92.3 254.6 92.3 252.4 90.4 253.5 90.4 255.6"/><path class="ai" d="M97.6,235.9l2.2,1.3v39.6l1.4-.8,1.6-13.5V235.4l-2.9-.6h-.5Z"/></g><g class="aj"><path class="g" d="M210.2,327.1a6.4,6.4,0,0,1-3-.8h0l-60.8-35.1a1.6,1.6,0,0,1-.9-1.5,1.8,1.8,0,0,1,.9-1.6l38-22h.4l63.7,36.8a1.6,1.6,0,0,1,.9,1.5,1.7,1.7,0,0,1-.9,1.6l-35.2,20.3A6.5,6.5,0,0,1,210.2,327.1Zm-2.7-1.4a5.7,5.7,0,0,0,5.4,0l35.3-20.3a1.2,1.2,0,0,0,.5-1,1.2,1.2,0,0,0-.5-.9l-63.6-36.7h-.1l-37.8,21.8a1.2,1.2,0,0,0-.5,1,1.2,1.2,0,0,0,.5.9Z"/></g><path class="ak" d="M184.5,251.9l8.5-50.2-.7-.3,1.1-.6h0a.8.8,0,0,1,.7,0l67.8,39.1a2.2,2.2,0,0,1,.8,1.8l-8.5,50.6a.7.7,0,0,1-.4.6h.1l-1.1.5v-.9h0l-67.3-38.8A2.3,2.3,0,0,1,184.5,251.9Z"/><path class="al" d="M261.5,241.3l1.1-.5a1.4,1.4,0,0,1,.1.9l-8.5,50.6a.7.7,0,0,1-.4.6h.1l-1.1.5v-.9h0l-3.4-2Z"/><path class="am" d="M184.4,254.3l67.7,39.1c.5.3,1,.1,1-.5l8.6-50.6a1.8,1.8,0,0,0-.9-1.7l-67.7-39.1c-.5-.3-1-.2-1.1.4l-8.5,50.6A2,2,0,0,0,184.4,254.3Z"/><polygon class="am" points="194 204.7 259.2 242.4 251.2 290.1 185.9 252.4 194 204.7"/><path class="an" d="M141.8,278.3l3.7,1.9,37-21.4a2.8,2.8,0,0,1,2.5.1l63.9,36.9c.6-.4,3.4-1.7,3.4-1.7l-1.4,3.5h0c0,.2-.2.3-.4.4l-39,22.6a2.9,2.9,0,0,1-2.4-.1l-65.4-37.8a1.7,1.7,0,0,1-.6-.6h0Z"/><path class="ak" d="M142.4,278.9l67,38.7a3.1,3.1,0,0,0,2.5.1l40-23.1c.6-.4.5-1-.2-1.5l-67-38.7a3.1,3.1,0,0,0-2.5-.1l-40,23.1C141.5,277.8,141.6,278.4,142.4,278.9Z"/><path class="k" d="M142.4,278.5l67,38.7a3.1,3.1,0,0,0,2.5.1l40-23.1c.2-.1.3-.3.4-.4a.7.7,0,0,1-.4.8l-40,23.1a3.1,3.1,0,0,1-2.5-.1l-67-38.7c-.5-.3-.7-.7-.6-1A1.7,1.7,0,0,0,142.4,278.5Z"/><path class="ao" d="M229.6,309.2v-.7c0-.1,0-.1-.1-.1l-2.6,1.5a.3.3,0,0,0-.1.2v.7h.1l2.6-1.5C229.6,309.3,229.6,309.3,229.6,309.2Z"/><path class="ao" d="M225.7,311.4v-.7h-.1l-2.6,1.5v.9h0l2.6-1.5C225.7,311.6,225.7,311.5,225.7,311.4Z"/><path class="ap" d="M241.4,292.4l-55.7-32.2a1.3,1.3,0,0,0-1.2,0l-19.8,11.5a.5.5,0,0,0,0,.8l55.7,32.1a1.3,1.3,0,0,0,1.2,0l19.8-11.5C241.7,293,241.7,292.6,241.4,292.4Z"/><path class="aq" d="M241.4,293.1l-.2.2-55.5-32.1a1.3,1.3,0,0,0-1.2,0l-19.6,11.4h-.2a.5.5,0,0,1,0-.8l19.8-11.5a1.3,1.3,0,0,1,1.2,0l55.7,32.2C241.7,292.6,241.7,293,241.4,293.1Z"/><polygon class="am" points="183 263.2 231.4 291.1 233.6 289.8 185.2 261.9 183 263.2"/><polygon class="am" points="177.8 266.2 223.2 292.4 225.3 291.2 179.9 265 177.8 266.2"/><polygon class="am" points="174.3 268.2 227.8 299 229.9 297.8 176.5 266.9 174.3 268.2"/><polygon class="am" points="170.9 270.2 224.3 301 226.5 299.8 173.1 268.9 170.9 270.2"/><polygon class="am" points="167.5 272.1 220.9 303 223.1 301.8 169.6 270.9 167.5 272.1"/><polygon class="am" points="234.4 292.8 236.5 294 238.7 292.8 236.5 291.5 234.4 292.8"/><polygon class="am" points="226.8 294.5 231.2 297.1 233.4 295.8 228.9 293.2 226.8 294.5"/><path class="ap" d="M183.6,300.2l-15-8.7a.6.6,0,0,1,0-1.2l10.2-5.9a2.2,2.2,0,0,1,2.2,0l15,8.6c.6.4.6.9,0,1.3l-10.3,5.9A2.6,2.6,0,0,1,183.6,300.2Z"/><path class="aq" d="M196,293.5l-15-8.6a2.2,2.2,0,0,0-2.2,0l-10.2,5.9a.8.8,0,0,0-.4.4.7.7,0,0,1,.4-.9l10.2-5.9a2.2,2.2,0,0,1,2.2,0l15,8.6c.4.3.5.6.4.9Z"/><g class="ar"><g class="as"><path class="at" d="M184.6,254.4l67,38.7a3.1,3.1,0,0,0,2.5.1l40-23.1c.6-.4.6-1-.2-1.5l-67-38.7a3.1,3.1,0,0,0-2.5-.1l-40,23.1C183.8,253.3,183.9,253.9,184.6,254.4Z"/><path class="au" d="M251.8,261.3l-15-8.7a.6.6,0,0,1,0-1.2l10.3-5.9a2,2,0,0,1,2.1,0l15,8.6c.6.4.6.9,0,1.3L254,261.3A2.8,2.8,0,0,1,251.8,261.3Z"/><path class="av" d="M264.2,254.6l-15-8.6a2,2,0,0,0-2.1,0l-10.3,5.9a.8.8,0,0,0-.4.4.7.7,0,0,1,.4-.9l10.3-5.9a2,2,0,0,1,2.1,0l15,8.6c.4.3.6.6.4.9Z"/><path class="aw" d="M270.8,274.8l-55.7-32.1a1.3,1.3,0,0,0-1.2,0l-19.8,11.5c-.3.1-.3.5,0,.7l55.7,32.2a1.3,1.3,0,0,0,1.2,0l19.8-11.5A.5.5,0,0,0,270.8,274.8Z"/><path class="av" d="M270.8,275.6h-.2l-55.5-32a.9.9,0,0,0-1.2,0L194.3,255h-.2c-.3-.2-.3-.6,0-.7l19.8-11.5a1.3,1.3,0,0,1,1.2,0l55.7,32.1A.5.5,0,0,1,270.8,275.6Z"/><polygon class="ax" points="199.3 253.4 247.8 281.4 245.9 282.5 197.4 254.5 199.3 253.4"/><polygon class="ax" points="204.4 250.4 250.5 277.1 248.6 278.2 202.5 251.5 204.4 250.4"/><polygon class="ax" points="254 279 258.3 281.5 256.3 282.6 252 280.2 254 279"/><polygon class="ax" points="250.2 282.8 253.2 284.5 251.2 285.6 248.2 283.9 250.2 282.8"/><polygon class="ax" points="207.6 248.6 261.5 279.7 259.6 280.8 205.7 249.7 207.6 248.6"/><polygon class="ax" points="210.8 246.7 264.7 277.8 262.8 278.9 208.9 247.8 210.8 246.7"/><polygon class="ax" points="214 244.9 267.9 276 266 277.1 212.1 246 214 244.9"/></g></g><polygon class="ay" points="234.7 271.9 229.4 268.9 229.2 269.8 234.5 272.8 234.7 271.9"/><polygon class="ay" points="228.5 268.4 225.7 266.7 225.5 267.6 228.4 269.3 228.5 268.4"/><polygon class="ay" points="221.2 264.1 219.1 262.9 218.9 263.8 221 265 221.2 264.1"/><polygon class="ay" points="222.7 265 222 264.6 221.8 265.5 222.5 265.9 222.7 265"/><polygon class="ay" points="224.8 266.2 223.5 265.5 223.4 266.4 224.6 267.1 224.8 266.2"/><polygon class="ay" points="230.5 264.9 228.4 263.7 228.3 264.6 230.3 265.8 230.5 264.9"/><polygon class="ay" points="235.4 267.7 231.3 265.4 231.1 266.3 235.2 268.6 235.4 267.7"/><polygon class="ay" points="229.5 252.9 225.4 250.5 225.3 251.4 229.4 253.8 229.5 252.9"/><polygon class="ay" points="231.6 254.1 230.3 253.3 230.2 254.2 231.5 255 231.6 254.1"/><polygon class="ay" points="228.8 257.1 224.8 254.7 224.6 255.6 228.7 258 228.8 257.1"/><polygon class="ay" points="230.9 258.3 229.7 257.5 229.5 258.4 230.8 259.2 230.9 258.3"/><polygon class="ay" points="232.5 234.7 240.2 239.2 240.4 238.3 232.7 233.8 232.5 234.7"/><polygon class="ay" points="229.8 233.2 231.7 234.3 231.9 233.4 230 232.3 229.8 233.2"/><polygon class="ay" points="216.3 232.3 224 236.7 224.2 235.8 216.5 231.4 216.3 232.3"/><polygon class="ay" points="213.6 230.7 215.5 231.8 215.7 230.9 213.8 229.8 213.6 230.7"/><polygon class="ay" points="237.8 240.1 239.9 241.3 240 240.4 237.9 239.2 237.8 240.1"/><polygon class="ay" points="225.1 237.4 227.2 238.6 227.4 237.7 225.3 236.4 225.1 237.4"/><polygon class="ay" points="232.9 237.3 237 239.6 237.1 238.7 233.1 236.3 232.9 237.3"/><polygon class="ay" points="230.8 236 232.1 236.8 232.2 235.9 231 235.1 230.8 236"/><polygon class="ay" points="225.9 233.2 230 235.6 230.1 234.6 226 232.3 225.9 233.2"/><polygon class="ay" points="223.8 232 225.1 232.7 225.2 231.8 223.9 231.1 223.8 232"/><polygon class="ay" points="225.5 235.3 227.6 236.5 227.7 235.6 225.6 234.4 225.5 235.3"/><polygon class="ay" points="220.6 232.4 224.7 234.8 224.8 233.9 220.7 231.5 220.6 232.4"/><polygon class="ay" points="218.5 231.2 219.8 232 219.9 231.1 218.6 230.3 218.5 231.2"/><polygon class="ay" points="235.3 240.9 239.5 243.4 239.7 242.5 235.4 240 235.3 240.9"/><polygon class="ay" points="231.4 238.7 234.4 240.5 234.6 239.5 231.5 237.8 231.4 238.7"/><polygon class="ay" points="228.5 237 230.6 238.2 230.7 237.3 228.6 236.1 228.5 237"/><polygon class="ay" points="208.3 227.7 212.5 230.1 212.7 229.2 208.4 226.7 208.3 227.7"/><polygon class="ay" points="204.4 225.4 207.5 227.2 207.6 226.3 204.6 224.5 204.4 225.4"/><polygon class="ay" points="201.5 223.7 203.6 224.9 203.7 224 201.7 222.8 201.5 223.7"/><polygon class="ay" points="209.9 255.3 205.7 252.9 205.5 253.8 209.8 256.3 209.9 255.3"/><polygon class="ay" points="213.8 257.6 210.8 255.8 210.6 256.7 213.7 258.5 213.8 257.6"/><polygon class="ay" points="216.7 259.3 214.6 258 214.5 259 216.6 260.2 216.7 259.3"/><polygon class="ay" points="211.4 258.5 207.1 256 206.9 256.9 211.2 259.4 211.4 258.5"/><polygon class="ay" points="215.3 260.7 212.2 258.9 212 259.8 215.1 261.6 215.3 260.7"/><polygon class="ay" points="218.1 262.4 216.1 261.2 215.9 262.1 218 263.3 218.1 262.4"/><polygon class="ay" points="228.6 254.6 227.1 253.8 227 254.7 228.4 255.5 228.6 254.6"/><polygon class="ay" points="231.3 256.2 229.4 255.1 229.2 256 231.1 257.1 231.3 256.2"/><polygon class="ay" points="234.9 243 239.1 245.5 239.3 244.5 235 242.1 234.9 243"/><polygon class="ay" points="231 240.8 234.1 242.5 234.2 241.6 231.1 239.8 231 240.8"/><polygon class="ay" points="228.1 239.1 230.2 240.3 230.3 239.4 228.3 238.2 228.1 239.1"/><polygon class="ay" points="237.3 246.7 238.8 247.6 238.9 246.6 237.5 245.8 237.3 246.7"/><polygon class="ay" points="234.6 245.2 236.5 246.3 236.7 245.3 234.8 244.2 234.6 245.2"/><polygon class="ay" points="230.8 242.9 233.8 244.7 234 243.8 230.9 242 230.8 242.9"/><polygon class="ay" points="226.6 260.4 225.2 259.5 225 260.4 226.5 261.3 226.6 260.4"/><polygon class="ay" points="229.3 261.9 227.4 260.8 227.3 261.7 229.2 262.8 229.3 261.9"/><polygon class="ay" points="233.2 264.2 230.1 262.4 230 263.3 233 265.1 233.2 264.2"/><polygon class="ay" points="224.4 257 221.4 255.2 221.2 256.1 224.3 257.9 224.4 257"/><polygon class="ay" points="229.4 259.7 225.3 257.3 225.1 258.2 229.3 260.6 229.4 259.7"/><polygon class="ay" points="231.5 260.9 230.2 260.2 230.1 261.1 231.4 261.8 231.5 260.9"/><polygon class="ay" points="233.5 262.1 232.2 261.3 232.1 262.2 233.4 263 233.5 262.1"/><polygon class="ay" points="233.3 250.2 229.2 247.9 229 248.8 233.1 251.2 233.3 250.2"/><polygon class="ay" points="235.4 251.4 234.1 250.7 233.9 251.6 235.2 252.4 235.4 251.4"/><polygon class="ay" points="233 247.8 231.5 246.9 231.4 247.9 232.8 248.7 233 247.8"/><polygon class="ay" points="227.9 249.4 226.5 248.6 226.3 249.5 227.7 250.4 227.9 249.4"/><polygon class="ay" points="225.9 248.3 222.4 246.3 222.2 247.2 225.7 249.2 225.9 248.3"/><polygon class="ay" points="221.8 245.9 219.7 244.7 219.6 245.6 221.6 246.8 221.8 245.9"/><polygon class="ay" points="235.7 249.3 233.8 248.2 233.6 249.2 235.5 250.3 235.7 249.3"/><polygon class="ay" points="235.9 247.2 234.4 246.4 234.3 247.3 235.7 248.1 235.9 247.2"/><polygon class="ay" points="238.6 248.7 236.7 247.6 236.5 248.6 238.4 249.7 238.6 248.7"/><polygon class="ay" points="230 250.7 228.7 249.9 228.5 250.8 229.8 251.6 230 250.7"/><polygon class="ay" points="232 251.8 230.7 251.1 230.6 252 231.8 252.7 232 251.8"/><polygon class="ay" points="222.1 262.3 217.7 259.8 217.5 260.7 221.9 263.3 222.1 262.3"/><polygon class="ay" points="227 265.2 222.9 262.8 222.7 263.7 226.9 266.1 227 265.2"/><polygon class="ay" points="229.1 266.4 227.8 265.7 227.7 266.6 229 267.3 229.1 266.4"/><polygon class="ay" points="231.1 267.6 229.8 266.8 229.7 267.7 231 268.5 231.1 267.6"/><polygon class="ay" points="232.2 268.2 235 269.8 234.9 270.7 232.1 269.1 232.2 268.2"/><g class="az"><polygon points="119 259.1 144.5 244.6 144.5 239.6 119 254.1 119 259.1"/><polygon class="ba" points="119 264.1 144.5 249.5 144.5 244.6 119 259.1 119 264.1"/><polygon class="bb" points="119 269.1 144.5 254.5 144.5 249.5 119 264.1 119 269.1"/></g></g></svg>