<svg xmlns="http://www.w3.org/2000/svg" xmlns:xlink="http://www.w3.org/1999/xlink" viewBox="0 0 400 400"><defs><style>.a{font-size:39.99px;fill:#fff;font-family:AdobeArabic-Regular, Adobe Arabic;}.b{fill:url(#a);}.c{fill:#e1e1e1;}.d{fill:#375a64;}.e{fill:#ffe7cb;}.f{fill:#0e71bb;}.g{fill:#f0d2b9;}.h{fill:#288ed9;}.i{opacity:0.3;}.j{fill:#1a2e35;}.k{fill:url(#b);}.l{fill:#fafafa;}.m{fill:#ececec;}.n{fill:#173d7a;}.o{fill:#0050af;}</style><linearGradient id="a" x1="304.52" y1="221.22" x2="375.28" y2="221.22" gradientUnits="userSpaceOnUse"><stop offset="0" stop-color="#44989f"/><stop offset="0.21" stop-color="#39b0b4"/><stop offset="0.52" stop-color="#2ccbcd"/><stop offset="0.8" stop-color="#24dcdd"/><stop offset="1" stop-color="#21e2e2"/></linearGradient><linearGradient id="b" x1="322.31" y1="265.29" x2="395.81" y2="265.29" gradientUnits="userSpaceOnUse"><stop offset="0" stop-color="#ffbc98"/><stop offset="1" stop-color="#ff9f6c"/></linearGradient></defs><title>advantageforeigndedicatedserver</title><text class="a" transform="translate(103.8 -44.3)">جراخ یصاصتخا روس ایازم*</text><path class="b" d="M320.2,265.7c-13.2-9.2-16.1-26.3-15.6-41.6.1-2.6-.2-5.3,1-7.5s4.1-3.8,6.4-2.7,2.7,3.1,3.8,4.9a15,15,0,0,0,6,5.7c1.6.9,3.6,1.4,5.2.5s2.5-4.3,2.5-6.8c-.1-4.8-.1-9.5-.1-14.3a23.7,23.7,0,0,1,.8-7.5c.8-2.4,2.5-4.7,4.9-5.4a4.8,4.8,0,0,1,6,3.2,17.1,17.1,0,0,1,0,3.2,2.7,2.7,0,0,0,1.6,2.5c1,.3,2-.4,2.8-1.1a35.9,35.9,0,0,0,6.1-9.2c1.7-3.3,3.3-6.7,5.7-9.5a13.4,13.4,0,0,1,9.3-5.2c3.6-.2,7.5,2,8.5,5.6s-1.2,7.2-3.5,10.1a54.9,54.9,0,0,1-11.8,11.3,4.7,4.7,0,0,0-2,2.2c-.6,1.7,1,3.3,2.7,3.9s4,.4,6,.7,4.1,1.1,4.9,3-1.2,5.3-3.3,7.1a48.3,48.3,0,0,1-14.4,8.3,16.9,16.9,0,0,0-5.4,2.6c-1.5,1.3-2.4,3.6-1.5,5.4s3.2,2.4,5.2,2,3.7-1.4,5.6-2.1c3.5-1.3,8-1.1,10.3,1.9a8.3,8.3,0,0,1,.8,7.2,18.6,18.6,0,0,1-3.8,6.3,49,49,0,0,1-21,14.7c-8.1,2.8-15.6,3.6-23.7.6"/><path class="c" d="M320,277.1a112.7,112.7,0,0,1,4.2-21,212.9,212.9,0,0,1,9-24.6c1-2.1,1.9-4.3,2.7-6.3s1.8-4.2,2.8-6.1c2-3.9,4.2-7.6,6.3-10.9s4.4-6.5,6.5-9.4,4.1-5.6,6-8a86.1,86.1,0,0,1,9.9-10.4l2.9-2.6.8-.6.3-.2-.3.2-.7.7-2.9,2.6a98.3,98.3,0,0,0-9.8,10.5l-5.9,8c-2,2.9-4.2,6-6.4,9.4a124.8,124.8,0,0,0-6.3,10.9c-1,1.9-1.8,4-2.7,6.1l-2.7,6.3a220.1,220.1,0,0,0-9.1,24.5,114.4,114.4,0,0,0-4.3,20.9"/><path class="c" d="M338.8,219.1s-.1-.4-.2-1.1l-.5-3c-.3-2.6-.7-6.1-1.1-10s-.8-7.4-1.2-9.9-.4-2.3-.5-3a4.5,4.5,0,0,1-.2-1.1c.1,0,.2.4.3,1.1s.4,1.7.7,3,.9,6,1.3,9.9.8,7.3,1.1,9.9.2,2.2.3,3S338.9,219.1,338.8,219.1Z"/><path class="c" d="M371.6,212.9l-1.3.2-3.6.3c-3,.4-7.1,1-11.6,1.8s-8.6,1.8-11.5,2.6l-3.5.9-1.3.4,1.3-.5,3.4-1.1c2.9-.9,7-1.9,11.5-2.8s8.7-1.3,11.7-1.6l3.6-.2Z"/><path class="c" d="M324.6,255.5l-.3-.4-.5-1.2c-.5-1-1.2-2.6-1.9-4.4-1.6-3.8-3.6-9-5.8-14.9s-4.1-11.1-5.6-14.8c-.7-1.9-1.4-3.4-1.8-4.5l-.5-1.2a1.8,1.8,0,0,1-.1-.5l.2.4.6,1.2,1.9,4.4c1.6,3.8,3.6,9,5.7,14.9s4.2,11.1,5.7,14.8q1.1,2.8,1.8,4.5a8.3,8.3,0,0,0,.4,1.2Z"/><path class="c" d="M368.1,241.4l-.4.2-1.3.4-4.6,1.6c-4,1.2-9.4,3.1-15.4,5.1l-15.4,5-4.7,1.3-1.3.4h-.4l.4-.2,1.3-.4,4.6-1.5,15.4-5.2,15.4-5,4.7-1.3,1.3-.4Z"/><path class="d" d="M257.1,188.5h26.8a39.6,39.6,0,0,1,39.6,39.6V303a0,0,0,0,1,0,0h-106a0,0,0,0,1,0,0V228.1A39.6,39.6,0,0,1,257.1,188.5Z"/><path class="e" d="M136.3,273.2l-5.4,3.7L125,291.2a2.3,2.3,0,0,0,2.8-.1c1.3-1.1,6-9.4,6-9.4v4.9a4,4,0,0,0,3.4,3.9l8.8,2.7,10.8-3.1.9-12.8Z"/><path class="f" d="M237.9,179.2c-2.7-.8-4-3.8-4.2-6.5s-2.6-1.8-3.4-4.4-3.9-6.4-4.1-8.3,1-4.8,1-6.9-2.4-6.7-2.4-9.7.6-10.8,4.7-10.5,10.6,7.3,10.1,11.3"/><path class="e" d="M270.5,144.9v4l-.8,60.8c-.1,7.1-6.2,12.6-13.8,12.4h0c-7.6-.1-13.8-6-13.8-13.2s-.2-15.3-.2-15.3-9.7-1.6-11.7-14.2c-.9-6.2-.6-16.5-.1-24.9a13.4,13.4,0,0,1,14.6-12.4Z"/><path class="g" d="M241.8,193.6a32.4,32.4,0,0,0,16.8-4.5s-4.1,8.6-16.7,7.5Z"/><path class="f" d="M279.5,144.2a15.8,15.8,0,0,0-11.4-9.7,15.3,15.3,0,0,0-9.2,1.2,13.2,13.2,0,0,1-2.9-2.4,25.3,25.3,0,0,0-10.8-6.4,17.4,17.4,0,0,0-12.3,1,13.8,13.8,0,0,0-7.6,9.5,11.3,11.3,0,0,0,4.1,11.3c3.4,2.5,8.5,2.6,11.7-.1a3.9,3.9,0,0,0,3.2,3.9,6.8,6.8,0,0,0,5.3-1.5,36.8,36.8,0,0,0,4-3.9l1.5-1.4a15.2,15.2,0,0,0,10.6,8.5c-1.4,1.6-1.3,4.1-.7,6.1s1.6,4.1,1.5,6.3-.8,3.5-1.1,5.2a11.8,11.8,0,0,0,1,7.4l1.4,2.9c.9,1.5.9,1.5,2.1,1.9s7.1-8.6,8.3-12.3,1.3-8.7,2.4-11.8C282.6,154.4,281.4,149,279.5,144.2Z"/><path class="h" d="M221,278.3l-1.4,36.1h71.9l-3.2-9.7,8.9.4c13.8.7,25.1-11.6,22.4-25.1l-.3-1.2c-4.4-17.5-10.5-40.9-12.6-47.8-3.5-11.5-11.3-16.9-11.3-16.9h-.1c-10.8-8.8-25.5-9.6-25.5-9.6l-5.3,3.6a18.7,18.7,0,0,1-18.3,1.5,8,8,0,0,1-4.4-5.1h0a63.9,63.9,0,0,0-18.4,4.8,27.2,27.2,0,0,0-14.2,15.9l-18.8,55-32-4.3-6.8,18.7,32.4,7.7a26.4,26.4,0,0,0,30.8-12.7l6.2-11.3m59.8,4.4h0s3.1-11.8,4.9-18.1l4.6,17.8Z"/><g class="i"><path d="M281.1,243.2s-7.1,31.5-7,34.6a17.5,17.5,0,0,0,.7,4.8h6v-.6l5-17.9Z"/></g><path class="e" d="M218.9,283.8l-4.6-1.9s-5.5-9.2-6.6-8.7-1.2,3.2,1,7.5l-6.1-1.4s-12.8,6.7-12.2,7.5,1.8,2.7,4.6,1l6.4-3.5,7.2,1.6-9.1,1.7-8.1,8.2s3,2,5.3-.4l22.4,3.5h9.5l.5-12.6Z"/><path class="g" d="M196.7,295.4c.1.1.4-.6,1.2-1.5a10.3,10.3,0,0,1,1.5-1.4,6.1,6.1,0,0,1,2.4-.7c3.7-.7,6.6-1.3,6.6-1.5s-3.1.2-6.7.8a6.7,6.7,0,0,0-2.6.9,6,6,0,0,0-1.6,1.6C196.8,294.6,196.6,295.4,196.7,295.4Z"/><path class="g" d="M200.2,296.1c.1,0,.1-.5.7-.6l2.7-.5c2.1-.3,3.9-.4,3.9-.6s-1.8-.4-4-.1a14.2,14.2,0,0,0-2.8.7c-.3.2-.6.5-.6.8S200.1,296.1,200.2,296.1Z"/><path class="g" d="M218.3,283.6l-2.2-.7-5.4-1.5-5.5-1.3-2.2-.7,2.3.4,5.5,1.2,5.4,1.6A7.5,7.5,0,0,1,218.3,283.6Z"/><rect class="d" x="314.6" y="284.5" width="73.5" height="18.44"/><rect class="j" x="332.7" y="290.6" width="44.8" height="6.4"/><path class="j" d="M327.1,294.1a3.6,3.6,0,1,1-3.6-3.5A3.6,3.6,0,0,1,327.1,294.1Z"/><rect class="j" x="322.3" y="274.5" width="58.7" height="9.97"/><rect class="k" x="322.3" y="256.1" width="73.5" height="18.44"/><path class="l" d="M333.2,274c-.1,0-.2-4-.2-9s.1-8.9.2-8.9.3,4,.3,8.9S333.4,274,333.2,274Z"/><path class="l" d="M330,274c-.1,0-.2-4-.2-9s.1-8.9.2-8.9.3,4,.3,8.9S330.2,274,330,274Z"/><path class="l" d="M384.1,274c-.1,0-.2-4-.2-9s.1-8.9.2-8.9.2,4,.2,8.9S384.2,274,384.1,274Z"/><path class="l" d="M380.9,274c-.1,0-.2-4-.2-9s.1-8.9.2-8.9.2,4,.2,8.9S381,274,380.9,274Z"/><circle class="m" cx="330.9" cy="279.5" r="1.8"/><circle class="m" cx="375.5" cy="279.5" r="1.8"/><rect class="n" x="18.1" y="185.6" width="143.8" height="97.98" rx="7.6"/><polygon class="o" points="66 260.3 58 305.4 95.4 305.4 102.1 259.4 66 260.3"/><rect class="o" x="12.4" y="185.6" width="143.8" height="97.98" rx="7.6"/><polygon class="n" points="98.6 283.6 102.1 259.4 103.1 283.6 98.6 283.6"/><path class="n" d="M66.2,257.8c.1,0-.8,6-2.1,13.4s-2.3,13.3-2.4,13.3.8-6,2-13.4S66,257.8,66.2,257.8Z"/><path class="j" d="M84.3,235.9a4.7,4.7,0,1,1,4.7-4.7A4.7,4.7,0,0,1,84.3,235.9Z"/><rect class="n" x="128.7" y="297.2" width="81.8" height="5.76"/><path class="n" d="M107.5,295h7.4a4.9,4.9,0,0,1,4.9,4.9V303a0,0,0,0,1,0,0H102.6a0,0,0,0,1,0,0v-3.1A4.9,4.9,0,0,1,107.5,295Z"/><rect class="j" x="6.3" y="303" width="393.4" height="11.45"/><path class="e" d="M268.5,158h2.8a4.9,4.9,0,0,1,4.9,4.9v3.3a4.9,4.9,0,0,1-4.9,4.9h-2.8a0,0,0,0,1,0,0V158A0,0,0,0,1,268.5,158Z"/><rect class="e" x="264.2" y="165.4" width="5.7" height="20.06"/></svg>