<svg xmlns="http://www.w3.org/2000/svg" xmlns:xlink="http://www.w3.org/1999/xlink" viewBox="0 0 400 400"><defs><style>.a,.b{isolation:isolate;}.b{opacity:0.58;fill:url(#a);}.c{fill:#d1ebff;}.d{fill-rule:evenodd;opacity:0.61;fill:url(#b);}.e{font-size:39.99px;fill:#fff;font-family:AdobeArabic-Regular, Adobe Arabic;}.f,.g,.j,.k{fill:none;stroke-linecap:round;stroke-miterlimit:10;}.f,.g{stroke:#083872;}.f{stroke-width:3.03px;}.g{stroke-width:2.96px;}.h{fill:#001c45;}.i{fill:#85b8ed;}.j{stroke:#001c45;stroke-width:2.34px;}.k{stroke:#ea5e5d;stroke-width:5.31px;}.l{fill:url(#c);}.m{fill:url(#d);}.n{fill:url(#e);}.o{fill:url(#f);}.p{fill:url(#g);}.q{fill:url(#h);}.r{fill:url(#i);}.s{fill:url(#j);}.t{fill:url(#k);}.u{fill:url(#l);}.v{opacity:0.25;mix-blend-mode:overlay;}.w{fill:#375a64;}.x{fill:#1a2e35;}.y{fill:#0e71bb;}.z{fill:#ffe7cb;}.aa{fill:#f0d2b9;}.ab{fill:#21e2e2;}.ac{fill:#1f364c;}.ad{fill:#288ed9;}.ae{fill:#e8505b;}</style><linearGradient id="a" x1="226.66" y1="365.84" x2="175.92" y2="78.1" gradientUnits="userSpaceOnUse"><stop offset="0" stop-color="#c6e6ff"/><stop offset="1" stop-color="#fff"/></linearGradient><linearGradient id="b" x1="81.69" y1="227.32" x2="193.81" y2="227.32" gradientUnits="userSpaceOnUse"><stop offset="0" stop-color="#288ed9"/><stop offset="1" stop-color="#137fcf" stop-opacity="0.05"/></linearGradient><linearGradient id="c" x1="223.22" y1="258.03" x2="234.54" y2="258.03" gradientUnits="userSpaceOnUse"><stop offset="0" stop-color="#ffbc98"/><stop offset="1" stop-color="#ff9f6c"/></linearGradient><linearGradient id="d" x1="215.05" y1="264.9" x2="221.14" y2="264.9" xlink:href="#c"/><linearGradient id="e" x1="220.75" y1="268.88" x2="237.52" y2="268.88" xlink:href="#c"/><linearGradient id="f" x1="209.39" y1="274" x2="219.95" y2="274" xlink:href="#c"/><linearGradient id="g" x1="197.49" y1="283.65" x2="221.83" y2="283.65" xlink:href="#c"/><linearGradient id="h" x1="224.13" y1="285.87" x2="233.8" y2="285.87" xlink:href="#c"/><linearGradient id="i" x1="227.83" y1="298.66" x2="233.81" y2="298.66" xlink:href="#c"/><linearGradient id="j" x1="231.39" y1="307.26" x2="241.45" y2="307.26" xlink:href="#c"/><linearGradient id="k" x1="203.56" y1="308.45" x2="230.72" y2="308.45" xlink:href="#c"/><linearGradient id="l" x1="202.52" y1="295.97" x2="226.41" y2="295.97" xlink:href="#c"/></defs><title>but-foreigndedicatedserver</title><g class="a"><path class="b" d="M361.7,341.7a23.2,23.2,0,0,0,20.4-11.9c22.7-41.6,14.8-102.9-15.8-119.3-38.2-20.6,15.9-80.6-35-111.2s-91.8,39-160.6,1.1S48.3,120,56.3,161.3c5.6,28.8,20.3,53.9-17.9,90.8-26.3,25.4-4.5,61.2,11.6,81.1a23.2,23.2,0,0,0,18.1,8.5Z"/><circle class="c" cx="137.7" cy="228.1" r="56.1" transform="translate(-36.1 26.2) rotate(-9.6)"/><path class="d" d="M137.7,172a56.5,56.5,0,0,1,15.6,2.2,12.6,12.6,0,0,0-.4,5c.9,5.8-2.2,11.5-9,9.6s-5.2,6.1-15.8,5c-8.9-.9-18.4-5.8-18.4-14.3a56.6,56.6,0,0,1,28-7.5Zm25.1,5.9c2.7,6.3,4.8,16.1-5.2,21.3-15.5,8.1-27.4,7.8-25.7,18s1,12-.8,14.2,1,6,6.6,4.4c0,0,1.2-.9,1.5.2s-3.3,5.3.1,9.5,9.7,1.8,13.1-.5,10.5,3.1,11.9,7.5.4,8.9,7.4,8.7,4.4-9.9,4.3-14.5.6-14.1,7.1-13.8,4.6-2.8,7.6-3.8a6.8,6.8,0,0,1,3.1-.2v-.8a56,56,0,0,0-31-50.2Zm-3.6,83.9s1.8-2.3,3.8-1.2,2.5,4.5,1,5.3-6.3-2.2-4.8-4.1Zm-34.6,20.8c5.6-6.8-.3-13.5-3.7-16.7s5.8-17.6-5.5-17.9-17.4-8-8.7-9,5.3-5.9,6.1-9.8,3.8-.4,9.3-2.4-2.6-13.8-8.2-13.5-3.9,8.5-7.1,7.4-4.1-8.1.6-9.5,5-5.3,3.4-8.6-9.3,0-11-5.7a6.9,6.9,0,0,0-5-4.8,55.6,55.6,0,0,0-13.1,36c0,1.2,0,2.4.1,3.6,7.7,5.2,15.5,16.6,14.4,22.6-1.4,8,5.9,12.1,9.1,14.5,1.6,1.3,2.3,4.2,2.4,6.7A58.8,58.8,0,0,0,124.6,282.6Z"/><text class="e" transform="translate(94.1 -39.7)">جراخ یصاصتخا روس دیرخ*</text><path class="f" d="M225.1,199.4H216a9.8,9.8,0,0,0-9.3,6.7l-25.4,77.6a4.6,4.6,0,0,1-4.4,3.2H91.7a4.5,4.5,0,0,1-4.6-3.9L77,222.1H201.5"/><path class="g" d="M98,286.8h59.8a33.5,33.5,0,0,1,33.5,33.5H101.9"/><path class="h" d="M183.9,330.9a6.9,6.9,0,1,0-6.9,6.9A6.9,6.9,0,0,0,183.9,330.9Z"/><path class="i" d="M178,322.3a12.3,12.3,0,0,0,1.9,8.2c2,2.8-2.5,4.5-7,1.8s-6.8-10-6.8-10Z"/><path class="h" d="M178.4,330.9a1.5,1.5,0,0,0-1.4-1.5,1.5,1.5,0,0,0-1.5,1.5,1.5,1.5,0,0,0,1.5,1.4A1.4,1.4,0,0,0,178.4,330.9Z"/><path class="h" d="M135.7,330.9a6.9,6.9,0,1,0-6.9,6.9A6.9,6.9,0,0,0,135.7,330.9Z"/><path class="i" d="M129.7,322.3a13,13,0,0,0,2,8.2c1.9,2.8-2.5,4.5-7,1.8s-6.8-10-6.8-10Z"/><path class="h" d="M130.2,330.9a1.5,1.5,0,0,0-1.4-1.5,1.5,1.5,0,0,0-1.5,1.5,1.4,1.4,0,0,0,1.5,1.4A1.4,1.4,0,0,0,130.2,330.9Z"/><line class="j" x1="194.4" y1="243.8" x2="80.6" y2="243.8"/><line class="j" x1="187.3" y1="265.4" x2="84.2" y2="265.4"/><line class="k" x1="219.2" y1="199.4" x2="233.3" y2="199.4"/><path class="l" d="M234.5,251.4c0,4.4-9,7.1-11.3,13.6.7-2,2.5-10.5,7.6-13.3A3.6,3.6,0,0,1,234.5,251.4Z"/><path class="m" d="M215.2,256.9a3.6,3.6,0,0,1,3.4,1.4c3.9,4.3,2.2,12.8,2.1,14.7C221.2,265.9,213.8,261.1,215.2,256.9Z"/><path class="n" d="M237.5,259c-.5,6.8-14.1,9.7-16.8,20.6.6-2.4,2.5-16.4,11.1-20.6C233.7,258.1,235.8,257.8,237.5,259Z"/><path class="o" d="M209.4,268.5a3.2,3.2,0,0,1,3.4-.3c4.8,2,6.2,8.3,7.1,11.9C218.2,273.7,210,272.4,209.4,268.5Z"/><path class="p" d="M197.5,279.6c1.4-4.5,8.4-4.3,13.5-1.5s8.5,8.5,10.8,13.1c-1.7-3.4-5.9-6.9-12.7-8.2C204.2,282,200.2,282.6,197.5,279.6Z"/><path class="q" d="M233.7,275.2c.9,5.8-10,11.7-8.9,21.6-.3-2.4-2.7-14.6,4-20.4A4.8,4.8,0,0,1,233.7,275.2Z"/><path class="r" d="M233.7,290.7c1.2,4.1-6.1,9-5.1,16-.3-1.6-2.4-10.2,1.7-14.7A3.7,3.7,0,0,1,233.7,290.7Z"/><path class="s" d="M241.4,297.7c1,5.4-9.2,10.4-10,19.3.2-2.7-.1-13.4,5.5-18.1C238.2,297.8,239.8,297.1,241.4,297.7Z"/><path class="t" d="M203.6,302.2c.9-4.1,6.4-4.9,11.3-3.3,11.9,4.1,14.4,15.9,15.8,19.9C225.7,304.7,209.7,308,203.6,302.2Z"/><path class="u" d="M202.5,292.2c1.6-4.4,8.5-3.7,12.9-1.3,6,3.2,8.7,8.4,11,12-2.6-4.1-7.9-6.4-12.7-7.2S204.9,295.1,202.5,292.2Z"/><g class="v"><path d="M231.9,319v.9h0a.5.5,0,0,1-.2.4,27,27,0,0,1,.4,2.8h0c0,.3-.1.5-.4.5h-.3a14.8,14.8,0,0,1,.1,2.1,49.7,49.7,0,0,1-2.2,14.5c0,.2.1.5.3.5h.1c.2,0,.4-.1.4-.2h0a51.6,51.6,0,0,0,2.2-14.8,46.8,46.8,0,0,0-.4-6.6m-4.8-13.9h.1a68.7,68.7,0,0,1,3.5,12.1,3.6,3.6,0,0,1,.4.9,19.5,19.5,0,0,1,.2-2.5,65.5,65.5,0,0,0-1.9-6.7c0,.2-.1.4-.3.4H229c-.2,0-.3-.1-.4-.3a20.5,20.5,0,0,1-.5-2.4h0c-.2,0-.3-.1-.4-.3l-.6-1.2m-1.4-5.7a1.4,1.4,0,0,0,.2.6h0a.5.5,0,0,1-.2.6h-.2c-.1,0-.2,0-.2-.1h0a22.6,22.6,0,0,1,2.6,4.2c-.7-1.9-1.5-3.7-2.2-5.4m-5.8-17.1a45.8,45.8,0,0,0,1,6.3,1.4,1.4,0,0,0,.2.6,33.9,33.9,0,0,1,2.6,5.4h0a.5.5,0,0,1-.3.6H223c.6,1.5,1.2,3,1.9,4.5a14.3,14.3,0,0,1-.7-3.8,58.7,58.7,0,0,1-2.5-7.4,43.4,43.4,0,0,1-.9-5.2.3.3,0,0,1-.3.3h-.1a.4.4,0,0,1-.4-.4v-.5h0c0-.1,0-.1-.1-.2m.3-7.6a25.3,25.3,0,0,0-.3,3.8c.1.5.3.9.4,1.3a14.2,14.2,0,0,1,.4-2c.1-.8.1-1.6.2-2.4s-.2.2-.4.2h0a.4.4,0,0,1-.4-.4c0-.2.1-.3.1-.5m6.1-16.4h-.2a36.9,36.9,0,0,0-5,11.5v1.8c0,1,0,2-.1,3.1a46.4,46.4,0,0,1,1.6-7.4.3.3,0,0,1-.3.3h-.2a.4.4,0,0,1-.2-.6,38,38,0,0,1,3.9-8.1l.5-.7"/><path d="M232.2,252.5H232a23.7,23.7,0,0,0-5.7,5.7h.3c.2.2.3.4.2.6a33.7,33.7,0,0,0-4.2,8.5h.1a30.5,30.5,0,0,1,3.8-7.9,23,23,0,0,1,5.9-6.2.4.4,0,0,0,.1-.6l-.3-.2"/><path d="M226.4,258.3h-.1l-.5.7a38,38,0,0,0-3.9,8.1.4.4,0,0,0,.2.6h.2a.3.3,0,0,0,.3-.3,33.7,33.7,0,0,1,4.2-8.5c.1-.2,0-.4-.2-.6h-.2"/><path d="M221,274.8c0,.2-.1.4-.1.6h0a.9.9,0,0,0,.1-.5m-4.1-16.2h-.2c-.2.1-.3.4-.1.5a21.2,21.2,0,0,1,3.7,12.5c0,1,0,2-.1,3a40.5,40.5,0,0,1,.9-4.8,20.5,20.5,0,0,0-3.9-11.1c0-.1-.2-.2-.3-.2"/><path d="M221.1,269.9a40.5,40.5,0,0,0-.9,4.8c0,.2-.1.3-.1.5a.4.4,0,0,0,.4.4h0c.2,0,.4-.1.4-.2s.1-.4.1-.6.1-2.1.1-3.1v-1.8"/><path d="M233.8,260.6h-.2a31.9,31.9,0,0,0-9.4,9.6,28.4,28.4,0,0,0-3.5,7.5v1.9c0,1.2,0,2.3.1,3.5h.1v-.5c-.1-3.9,1.5-8.1,4-11.9a31.1,31.1,0,0,1,9.1-9.3.5.5,0,0,0,.2-.6l-.4-.2"/><path d="M220.7,277.8a14.2,14.2,0,0,0-.4,2,20.5,20.5,0,0,1,.5,2.4h0a.4.4,0,0,1-.4.4H220v.5a.4.4,0,0,0,.4.4h.1a.3.3,0,0,0,.3-.3c-.1-1.2-.1-2.3-.1-3.5v-1.9"/><path d="M211.7,269.1a.5.5,0,0,0-.4.2.5.5,0,0,0,.2.6,16.7,16.7,0,0,1,8.4,12.4h0v-3.8a18.2,18.2,0,0,0-8-9.3h-.2"/><path d="M219.9,278.5v3.8c.1.1.1.1.1.2a12.4,12.4,0,0,1,.3-2.7c-.1-.4-.3-.8-.4-1.3"/><path d="M220.3,279.8a12.4,12.4,0,0,0-.3,2.7h.4a.4.4,0,0,0,.4-.4h0a20.5,20.5,0,0,0-.5-2.4"/><path d="M202.2,278.7h-.3a.4.4,0,0,0-.4.4.5.5,0,0,0,.5.4h.2a21.3,21.3,0,0,1,12.3,3.8,24,24,0,0,1,8.4,11.6.3.3,0,0,0,.1.2,44.9,44.9,0,0,1-1.9-5.9,24.2,24.2,0,0,0-6.1-6.6,22,22,0,0,0-12.8-3.9"/><path d="M221.1,289.2a44.9,44.9,0,0,0,1.9,5.9h.4a.5.5,0,0,0,.3-.6h0a33.9,33.9,0,0,0-2.6-5.4"/><path d="M224.9,299.6a6.4,6.4,0,0,0,.2.7l.2.2a3.6,3.6,0,0,1-.4-.9m6.1-22.3-.3.2a25.5,25.5,0,0,0-6.6,16.9c0,.5.1.9.1,1.4l1.5,3.6a15.9,15.9,0,0,1-.7-5,25.2,25.2,0,0,1,6.3-16.4.5.5,0,0,0,0-.5l-.3-.2"/><path d="M224.2,295.8a14.3,14.3,0,0,0,.7,3.8,3.6,3.6,0,0,0,.4.9c0,.1.1.1.2.1h.2a.5.5,0,0,0,.2-.6h0a1.4,1.4,0,0,1-.2-.6l-1.5-3.6"/><path d="M232,292.4h-.4a20.9,20.9,0,0,0-3.6,11.6v.9l.5,1v.3l.9,2.6h0a18.4,18.4,0,0,1-.6-4.7,19,19,0,0,1,3.5-11.1c.1-.2.1-.4-.1-.5H232"/><path d="M228.5,306.3c-.1.1-.1.2-.3.3h-.1a20.5,20.5,0,0,0,.5,2.4c.1.2.2.3.4.3h.1c.2,0,.3-.2.3-.4l-.9-2.6"/><path d="M238.9,299.7h-.3a27.9,27.9,0,0,0-7.3,15.8l.6,3.4a26.4,26.4,0,0,1,7.3-18.6.6.6,0,0,0,0-.6h-.3"/><path d="M231.3,315.6a19.5,19.5,0,0,0-.2,2.5l.6,2.2a.5.5,0,0,0,.2-.4h0V319l-.6-3.4"/><path d="M208.9,301.2a.4.4,0,0,0-.4.4.4.4,0,0,0,.4.4,24.8,24.8,0,0,1,15.4,7,23.2,23.2,0,0,1,7,14.2c0,.1.1.2.1.3s-.1-2.2-.2-3.3-.2-.1-.2-.3v-.8a10.8,10.8,0,0,0-.3-1.9,23.8,23.8,0,0,0-5.8-8.7,25.4,25.4,0,0,0-16-7.3h0"/><path d="M231.2,320.2c.1,1.1.2,2.2.2,3.3h.3c.3,0,.4-.2.4-.5h0a27,27,0,0,0-.4-2.8h-.5m-.5-3a10.8,10.8,0,0,1,.3,1.9,3.1,3.1,0,0,1,.1-1,3.6,3.6,0,0,0-.4-.9"/><path d="M231,319.1v.8c0,.2.1.3.2.3s-.1-.7-.2-1.1"/><path d="M231.1,318.1a3.1,3.1,0,0,0-.1,1c.1.4.1.8.2,1.1h.5l-.6-2.2"/><path d="M227.9,304.8h0v.2h0a.3.3,0,0,0-.1-.2m-21.1-13.4a.4.4,0,0,0-.4.4c0,.3.2.4.4.5a22.8,22.8,0,0,1,20.3,12.8l-1.8-4.5a23.9,23.9,0,0,0-18.5-9.2h0"/><path d="M225.3,300.6l1.8,4.5.6,1.2c.1.2.2.3.4.3h0c0-.5-.1-1.1-.1-1.6v-.2h0a22.6,22.6,0,0,0-2.6-4.2"/><path d="M228,305h0c.2.4.3.9.5,1.3V306l-.5-1"/><path d="M228,305c0,.5.1,1.1.1,1.6h.1c.2-.1.2-.2.3-.3s-.3-.9-.5-1.3"/></g><path class="w" d="M245.1,104.8c.1.4,2,27.1,2,27.1l-14.8-1.1-2.3-22Z"/><polygon class="x" points="247.1 131.9 248.5 131.5 246.5 104.4 244.9 104.8 247.1 131.9"/><path class="x" d="M237.6,110.2a.6.6,0,0,1-.6.6.6.6,0,0,1-.6-.6c0-.4.2-.7.6-.7A.7.7,0,0,1,237.6,110.2Z"/><path class="y" d="M283.9,116.8a1,1,0,0,0,.3,1.2,1.1,1.1,0,0,0,1.2.2c.8-.3,1-1.4.9-2.2a4.6,4.6,0,0,1,0-2.6,10,10,0,0,1,1.5-1.4,3.9,3.9,0,0,0,1.2-3.1,3.5,3.5,0,0,0-2.1-2.6c-1.1-.4-2.5-.1-3.3-1s-.6-1.6-1-2.3a3.7,3.7,0,0,0-3.5-1.3c-1.4.1-2.7.5-4,.1a27.5,27.5,0,0,1-2.9-1.7,5.8,5.8,0,0,0-8,7.6,3.9,3.9,0,0,0,1.7,1.9"/><path class="z" d="M282.6,139.3l-12.6-1c0-1.4.1-7.1.1-7.1s-5.3-.8-5.3-6,.8-17.2.8-17.2h0a18.1,18.1,0,0,1,18.2,2.3l.8.6Z"/><path class="aa" d="M270.1,131.1a11.7,11.7,0,0,0,6.7-1.9s-1.6,3.8-6.8,3.3Z"/><path class="y" d="M265.5,109.3a8.7,8.7,0,0,0,7.3.1c2.8-1.2,6-1.6,6.7-1s.6,3.4,3.2,4.4c0,0-.6,5.3,1.5,5.2s1.5-8.3,1.5-8.3l-5-2.9-5.6-1.5-5.4.3-4.2.9Z"/><path class="z" d="M283.9,116.3c.1,0,3.6-1.1,3.5,2.5s-3.7,2.7-3.7,2.6S283.9,116.3,283.9,116.3Z"/><path class="y" d="M286.4,105.3l-1.2.2-1.1.5c-.1-.1.3-.6,1-.9A1.3,1.3,0,0,1,286.4,105.3Z"/><path class="y" d="M284.3,103a2.4,2.4,0,0,1,.1,1.7,2.3,2.3,0,0,1-.8,1.5c-.1-.1.3-.7.5-1.6A7.6,7.6,0,0,1,284.3,103Z"/><path class="ab" d="M306.5,334l1.3,5.2s8.5,11.1,11.1,10.6-.4-3.3-3.6-11.7l-.7-3.5Z"/><path class="ab" d="M264.1,336.6v-6.9l13-.2.2,10.2h-.8c-3.6.2-18.3,1-20.7.3S264.1,336.6,264.1,336.6Z"/><polyline class="ac" points="255.3 198.6 261.3 333.7 281.6 334.1 278.3 221 301.1 334.9 320.3 334.9 294.6 198.6"/><path class="z" d="M250,142l-18.9,4.9,3-22.4h0l.4-1,6.9-1.1-.8-5.1a4.2,4.2,0,0,0-5.2-3.3l-2.2.6a5.8,5.8,0,0,0-3.8,3c-1.3,2.6-2.6,5.4-2.5,5.2h0l-10.1,27.4a10.5,10.5,0,0,0,1.1,11.1c3.3,4.3,11.2,1.3,14.9.6l24.2-5.3Z"/><path class="z" d="M319.7,185.9a12.6,12.6,0,0,0,0-16.7l-20.2-22.9-5.4,15.1c.3.2,15.7,16.7,15.7,16.7l-13.2,16.5a9.4,9.4,0,0,0-1.6,9l2.3,9.2,10.9-4.9-.7-1.1h-7.3l-.4-1.8h0Z"/><path class="ad" d="M250.9,203.4l43.7-2.9-.5-21.6V163.4l4.8,7.2,13-13.6-14.5-13.9h0a22.3,22.3,0,0,0-8.8-5.7,19.2,19.2,0,0,0-5.6-1.1h0a21.6,21.6,0,0,1-13.3,0,59.7,59.7,0,0,0-12.1,2.3l-17,4.5,5.6,20.8,10.2-3.4S250.8,199.1,250.9,203.4Z"/><polygon class="ae" points="298.9 170.6 301.9 169.7 300.9 168.5 298.9 170.6"/><polygon class="ae" points="246.3 164.1 242.9 159.7 245 159.2 246.3 164.1"/><polygon class="x" points="246.3 164.1 242.9 159.7 245 159.2 246.3 164.1"/><polygon class="x" points="298.9 170.6 301.9 169.7 300.9 168.5 298.9 170.6"/></g></svg>