<svg xmlns="http://www.w3.org/2000/svg" xmlns:xlink="http://www.w3.org/1999/xlink" viewBox="0 0 400 400"><defs><style>.a{isolation:isolate;}.b{font-size:39.99px;fill:#fff;font-family:AdobeArabic-Regular, Adobe Arabic;}.c,.g,.w{fill:#37b5e8;}.c,.h{opacity:0.2;}.d{fill:#0e71bb;}.e{fill:#f1f1f1;}.ai,.f{opacity:0.25;mix-blend-mode:overlay;}.i{fill:#fc9a80;}.j{fill:none;stroke:#463840;stroke-miterlimit:10;stroke-width:0.65px;}.k{fill:#e8e0e4;}.l{fill:#78cfd8;}.m{fill:#ff6a66;}.n{fill:#ffd994;}.o{fill:#314656;}.p{fill:#1f2848;}.q{fill:#288ed9;}.r{fill:#d67363;}.s{fill:#2f3767;}.t{fill:#ffe7cb;}.u{fill:#5fbeed;}.v{fill:#4ba6dd;}.w{opacity:0.86;}.x{fill:#21e2e2;}.y{fill:url(#a);}.z{fill:url(#b);}.aa{fill:url(#c);}.ab{fill:url(#d);}.ac{fill:url(#e);}.ad{fill:url(#f);}.ae{fill:url(#g);}.af{fill:url(#h);}.ag{fill:url(#i);}.ah{fill:url(#j);}.aj{fill:url(#k);}</style><linearGradient id="a" x1="86.43" y1="89.87" x2="114.39" y2="89.87" gradientUnits="userSpaceOnUse"><stop offset="0" stop-color="#ffbc98"/><stop offset="1" stop-color="#ff9f6c"/></linearGradient><linearGradient id="b" x1="66.27" y1="106.85" x2="81.31" y2="106.85" xlink:href="#a"/><linearGradient id="c" x1="80.33" y1="116.68" x2="121.76" y2="116.68" xlink:href="#a"/><linearGradient id="d" x1="52.3" y1="129.31" x2="78.36" y2="129.31" xlink:href="#a"/><linearGradient id="e" x1="22.92" y1="153.16" x2="83.01" y2="153.16" xlink:href="#a"/><linearGradient id="f" x1="88.7" y1="158.63" x2="112.56" y2="158.63" xlink:href="#a"/><linearGradient id="g" x1="97.82" y1="190.23" x2="112.6" y2="190.23" xlink:href="#a"/><linearGradient id="h" x1="106.62" y1="211.46" x2="131.47" y2="211.46" xlink:href="#a"/><linearGradient id="i" x1="37.88" y1="214.4" x2="104.97" y2="214.4" xlink:href="#a"/><linearGradient id="j" x1="35.32" y1="183.57" x2="94.32" y2="183.57" xlink:href="#a"/><linearGradient id="k" x1="71.97" y1="321.26" x2="139.22" y2="321.26" xlink:href="#a"/></defs><title>cp-foreigndedicatedserver</title><g class="a"><text class="b" transform="translate(53 -39.7)">جراخ یصاصتخا روس لتنک لنپ*</text><rect class="c" x="205.2" y="52.2" width="48.3" height="31.84"/><rect class="c" x="205.2" y="52.2" width="48.3" height="21.23"/><rect class="c" x="205.2" y="52.2" width="48.3" height="10.61"/><rect class="c" x="242.8" y="74.9" width="4.5" height="7.78"/><rect class="c" x="242.8" y="64.3" width="4.5" height="7.78"/><rect class="c" x="242.8" y="53.6" width="4.5" height="7.78"/><rect class="d" x="114" y="84.1" width="199.1" height="6.97"/><rect class="c" x="258.6" y="42.7" width="42.3" height="41.41"/><path class="e" d="M266,78.8a2.2,2.2,0,0,1-2.2,2.2,2.2,2.2,0,1,1,0-4.4A2.2,2.2,0,0,1,266,78.8Z"/><rect class="c" x="269.1" y="42.7" width="31.7" height="41.41"/><circle class="e" cx="274.4" cy="78.8" r="2.2"/><rect class="c" x="279.7" y="42.7" width="21.1" height="41.41"/><path class="e" d="M287.2,78.8a2.2,2.2,0,1,1-2.2-2.2A2.2,2.2,0,0,1,287.2,78.8Z"/><rect class="c" x="290.3" y="42.7" width="10.6" height="41.41"/><path class="e" d="M297.8,78.8a2.2,2.2,0,0,1-2.2,2.2,2.2,2.2,0,0,1,0-4.4A2.2,2.2,0,0,1,297.8,78.8Z"/><path class="d" d="M256.7,144.1l3.3,44a5,5,0,0,1-4.9,5.3h22.3a4.8,4.8,0,0,0,4.6-6l-11.2-43.3Z"/><path class="f" d="M256,144.1l3.2,44a4.9,4.9,0,0,1-4.9,5.3h22.3a4.8,4.8,0,0,0,4.6-6L270,144.1Z"/><path class="d" d="M281.2,190H245.7a2.7,2.7,0,0,0-2.8,2.8v.6h33.2C280.7,193.4,281.2,190,281.2,190Z"/><rect class="d" x="215.1" y="111.1" width="87.4" height="70.36" rx="3.1"/><rect class="g" x="217.5" y="115.2" width="82.6" height="62.24" transform="translate(517.6 292.5) rotate(180)"/><g class="h"><rect class="i" x="224.5" y="125.8" width="33.7" height="17.76"/><rect class="e" x="259.4" y="125.8" width="33.7" height="17.76"/><rect class="i" x="224.5" y="146" width="68.5" height="20.33"/><rect class="i" x="224.5" y="120.2" width="68.5" height="2.04"/><rect class="i" x="224.5" y="168.3" width="4.1" height="4.12" rx="0.7"/><rect class="i" x="231" y="168.3" width="4.1" height="4.12" rx="0.7"/><rect class="i" x="237.4" y="168.3" width="4.1" height="4.12" rx="0.7"/><rect class="i" x="243.8" y="168.3" width="4.1" height="4.12" rx="0.7"/><rect class="i" x="250.3" y="168.3" width="4.1" height="4.12" rx="0.7"/><rect class="i" x="256.7" y="168.3" width="4.1" height="4.12" rx="0.7"/><rect class="i" x="263.2" y="168.3" width="4.1" height="4.12" rx="0.7"/><rect class="i" x="269.6" y="168.3" width="4.1" height="4.12" rx="0.7"/><rect class="i" x="276" y="168.3" width="4.1" height="4.12" rx="0.7"/><rect class="i" x="282.5" y="168.3" width="4.1" height="4.12" rx="0.7"/><rect class="i" x="288.9" y="168.3" width="4.1" height="4.12" rx="0.7"/><line class="j" x1="259.4" y1="125.8" x2="293.1" y2="143.5"/><line class="j" x1="293.1" y1="125.8" x2="259.4" y2="143.5"/></g><path class="e" d="M170.3,144.1l-3.3,44a5,5,0,0,0,4.9,5.3H149.6a4.8,4.8,0,0,1-4.6-6l11.2-43.3Z"/><path class="k" d="M171.1,144.1l-3.3,44a5,5,0,0,0,4.9,5.3H150.4a4.8,4.8,0,0,1-4.6-6L157,144.1Z"/><path class="e" d="M145.9,190h35.4a2.7,2.7,0,0,1,2.8,2.8v.6H150.9C146.4,193.4,145.9,190,145.9,190Z"/><rect class="d" x="124.6" y="111.1" width="87.4" height="70.36" rx="3.1" transform="translate(336.5 292.5) rotate(180)"/><rect class="g" x="126.9" y="115.2" width="82.6" height="62.24"/><g class="h"><rect class="l" x="135" y="122.2" width="5" height="1.95"/><rect class="m" x="141.7" y="122.2" width="10.6" height="1.95"/><rect class="m" x="141.7" y="154.2" width="10.6" height="1.95"/><rect class="m" x="141.7" y="168.4" width="10.6" height="1.95"/><rect class="m" x="141.7" y="150.6" width="10.6" height="1.95"/><rect class="n" x="144.5" y="125.8" width="18.2" height="1.95"/><rect class="n" x="148.5" y="136.4" width="33.6" height="1.95"/><rect class="n" x="175.2" y="129.3" width="26.3" height="1.95"/><rect class="l" x="163.9" y="125.8" width="18.2" height="1.95"/><rect class="l" x="144.5" y="129.3" width="29.5" height="1.95"/><rect class="l" x="148.5" y="143.5" width="53" height="1.95"/><rect class="i" x="183.3" y="125.8" width="18.2" height="1.95"/><rect class="n" x="148.5" y="140" width="14.2" height="1.95"/><rect class="l" x="163.9" y="140" width="18.2" height="1.95"/><rect class="i" x="183.3" y="140" width="18.2" height="1.95"/><rect class="l" x="183.3" y="136.4" width="18.2" height="1.95"/><rect class="i" x="144.5" y="132.9" width="57" height="1.95"/><rect class="n" x="144.6" y="157.7" width="18.2" height="1.95"/><rect class="n" x="175.2" y="161.3" width="26.3" height="1.95"/><rect class="l" x="163.9" y="157.7" width="18.2" height="1.95"/><rect class="l" x="144.6" y="161.3" width="29.5" height="1.95"/><rect class="i" x="183.3" y="157.7" width="18.2" height="1.95"/><rect class="i" x="144.6" y="164.8" width="57" height="1.95"/><rect class="i" x="144.5" y="147.1" width="57" height="1.95"/><rect class="l" x="135" y="125.8" width="5" height="1.95"/><rect class="l" x="135" y="129.3" width="5" height="1.95"/><rect class="l" x="135" y="132.9" width="5" height="1.95"/><rect class="l" x="135" y="136.4" width="5" height="1.95"/><rect class="l" x="135" y="140" width="5" height="1.95"/><rect class="l" x="135" y="143.5" width="5" height="1.95"/><rect class="l" x="135" y="147.1" width="5" height="1.95"/><rect class="l" x="135" y="150.6" width="5" height="1.95"/><rect class="l" x="135" y="154.2" width="5" height="1.95"/><rect class="l" x="135" y="157.7" width="5" height="1.95"/><rect class="l" x="135" y="161.3" width="5" height="1.95"/><rect class="l" x="135" y="164.8" width="5" height="1.95"/><rect class="l" x="135" y="168.4" width="5" height="1.95"/></g><polygon class="d" points="336.6 228.6 90.4 228.6 89.2 207.4 336.6 207.4 336.6 228.6"/><polygon class="f" points="336.6 218 90.4 218 88.8 207.4 336.6 207.4 336.6 218"/><rect class="d" x="58" y="193.4" width="311" height="14.01"/><rect class="f" x="58" y="200.4" width="311" height="7"/><path class="d" d="M90.4,228.6V372.9h0a5.4,5.4,0,0,0,5.4-4.9l15.3-139.4Z"/><path class="d" d="M336.6,228.6V372.9h0a5.4,5.4,0,0,1-5.4-4.9L315.9,228.6Z"/><path class="i" d="M178.1,344.9c-.8,3.7-1.7,7.3-1.7,7.3s-14.3,6-12.7,1.6a92,92,0,0,0,2.6-8.9c.9-3.1,4.7-9.3,9.1-8C177.4,337.5,178.1,344.9,178.1,344.9Z"/><path class="o" d="M174.5,240.8c-2.7,11.1-5.5,19.2-4.7,42.4,1,31,.6,47.9-4.9,67.4A10.3,10.3,0,0,1,168,348c3.4-1.7,8,.3,8.9,3.3,0,0,5-25.4,7.6-36.9,4.5-20.8,14.5-30.5,9.8-56.5Z"/><path class="p" d="M169.8,372.9c4.8,0,6.4-3.3,6.3-5.2s-1.3-4.1-1-6.5,2.1-5.1,2-8.5c-.1-1.8-1.1-7.1-5.8-6.3s-5.9,3.7-7.6,7.4a38.1,38.1,0,0,0-3.2,14.4C160.6,372.1,162.6,372.9,169.8,372.9Z"/><path class="i" d="M244.4,339.7c.4,3.6,2.3,7,2.8,9.9,0,0,12.4,2.7,11,0s-1.3-5.5-1.7-9.9-8.7-5.5-10.5-3.5S244.4,339.7,244.4,339.7Z"/><path class="o" d="M254.1,252.2c2.4,14.1,2.2,82.6,4.1,97.4,0,0-7.9-5.7-11.7-.7,0,0-8.4-36.5-13.3-55.1s-6-24-4.7-36.4Z"/><path class="p" d="M250.6,360.1c-2-2.5-3.3-4.2-3.6-6.6s-.3-2.6-.5-3.9a4.6,4.6,0,0,1,4.4-4.7c3.3,0,6.9,3.8,8.5,6.4s8.6,9,9.4,15.1-1.8,6.5-9.9,6.5S252.3,362.3,250.6,360.1Z"/><path class="o" d="M186,227.9c-13.9,6.6-15.3,23.6-9.7,29.1s26.8,4.1,40.4,4.1h25.6c8.5,0,19.2-5.4,18.2-15.4s-10.6-12.6-10.6-12.6Z"/><path class="q" d="M248.9,142.5c7.6,7.2,11,26.3,12,39.7s-.6,22-4.2,23.6-15.6,1.2-19.4-9v-7.1c6.4-1.4,9,0,9,0s-2.3-16.4-3.8-22S248.9,142.5,248.9,142.5Z"/><path class="p" d="M247.3,197.4c-.3-2.7-1-7.7-1-7.7s-2.6-1.4-9,0v1.7C244,193.2,247.5,199.7,247.3,197.4Z"/><path class="f" d="M247.3,152.1c-2.2,6.1-5.8,11.7-4.8,15.6s7,17,7.8,22.3c-.3-7.4,2-21.7-.9-39.8A10.9,10.9,0,0,1,247.3,152.1Z"/><path class="r" d="M186,191c5.4-.6,10.9,2.5,10.9,7.3h-9.5Z"/><path class="s" d="M174.1,207.5c6.4,0,15.5-7.9,16.9-9.2s.9-10.3-6.8-8.3Z"/><path class="p" d="M184.2,190l-1.6,2.8a30.8,30.8,0,0,1-.4,5.1s3.3-5.7,7.7-6.7h0C188.8,189.9,187,189.3,184.2,190Z"/><path class="t" d="M196.2,107.1c-1.9-2-2.4,1.2-1.2,4.7s2.6,5.9,3.9,6.2c3.1.7,3.8,2.2,3.8,5.4s-.4,7.5-1.2,9.5-8,8-8,8h40s-9.1-5.3-10.1-8.9-1-8.9-.3-10.8,2.2-1.6,3-5.9c.5-.8,1.9,2.5,3.7-3.5s0-7.8-2.6-5.5C222.9,108.2,196.2,107.1,196.2,107.1Z"/><path class="d" d="M196.9,88.9a25,25,0,0,0-2.3,17.2c2.1,8.9,9.3,17.7,18,17.7,7,0,13.7-8.4,16.7-15.1a23,23,0,0,0-1.8-21.3c-3.4-5.2-8.3-7.7-14.9-7.7C202.2,79.7,198.3,86.2,196.9,88.9Z"/><path class="q" d="M180.5,140.7c9.5-5,20-7.1,33.1-7.1s23.7-.6,35.3,8.9a247.9,247.9,0,0,1,.3,32.6c-1.2,17.2-1.7,22,1.7,30.1s4.7,26.8,5.8,35.3c0,0-5.3,11.7-38.1,11.7s-37.9-9-36.7-15.7,2.1-23.9,3.4-33-.3-10-.3-19S184.9,153.8,180.5,140.7Z"/><path class="f" d="M181.9,236.5c3.2-11.2,1.1-24.1.2-37s3.9-36.2,3.7-44.9l.3.5c.8,9.2.1,7.9,1.7,20.1,1.3,10.3.3,53.4,3.8,29.8C190.2,214.2,183.1,229.9,181.9,236.5Z"/><path class="q" d="M184.2,190l1.8-26.7s.7-25-5.5-22.6c-10.9,4.2-13.7,50.1-13.9,58.6a7.6,7.6,0,0,0,7.5,8.2C179.2,207.5,183.8,196.9,184.2,190Z"/><path class="u" d="M167.6,178.5h91.8a4.9,4.9,0,0,1,4.9,4.9v17.3a25.7,25.7,0,0,1-25.7,25.7H188.4a25.7,25.7,0,0,1-25.7-25.7V183.5a4.9,4.9,0,0,1,4.9-4.9Z"/><path class="u" d="M169.9,270.8,157,372.9h0a8.1,8.1,0,0,0,7.9-6.3l19.3-78.9h29.3V270.8Z"/><path class="v" d="M257.1,270.8,270,372.9h0a7.9,7.9,0,0,1-7.8-6.3l-19.3-78.9H213.5V270.8Z"/><path class="d" d="M260.3,270.8H166.8a4.1,4.1,0,0,1-4.1-4.1h0a6.6,6.6,0,0,1,6.5-6.6h88.6a6.7,6.7,0,0,1,6.6,6.6h0A4.1,4.1,0,0,1,260.3,270.8Z"/><path class="v" d="M182.8,209.6l10.1,78.1h-5.8l-11.9-85.2h0A7.9,7.9,0,0,1,182.8,209.6Z"/><path class="u" d="M187.1,287.7h-4.9l-9.5-82a2.7,2.7,0,0,1,2.5-3.2h0Z"/><path class="u" d="M244.3,209.6l-10.2,78.1h5.8l11.9-85.2h0C248,202.5,244.9,205.5,244.3,209.6Z"/><path class="v" d="M239.9,287.7h4.9l9.5-82a2.7,2.7,0,0,0-2.5-3.2h0Z"/><path class="c" d="M103,193.4h25.9a2.1,2.1,0,0,0,2-2.5l-7.2-35a3.6,3.6,0,0,0-3.4-2.8h-26a2,2,0,0,0-2,2.5l7.3,35A3.4,3.4,0,0,0,103,193.4Z"/><path class="c" d="M103.7,193.4h25.9a2.1,2.1,0,0,0,2-2.5l-7.2-35a3.6,3.6,0,0,0-3.4-2.8H95a2,2,0,0,0-2,2.5l7.3,35A3.4,3.4,0,0,0,103.7,193.4Z"/><polygon class="c" points="123.7 155.9 130.9 190.9 101.7 190.6 94.4 155.6 123.7 155.9"/><g class="h"><polygon class="w" points="126 182.3 103.3 182.3 101 171.6 123.8 171.6 126 182.3"/><polygon class="w" points="121.1 158.8 98.3 158.8 98.1 157.3 120.8 157.3 121.1 158.8"/><polygon class="w" points="123.7 171.1 100.9 171.1 98.7 160.5 121.5 160.5 123.7 171.1"/><path class="w" d="M107.8,189.1h-2.2a1.2,1.2,0,0,1-1.1-.9L104,186a.8.8,0,0,1,.8-1H107a1.3,1.3,0,0,1,1.1,1l.5,2.2A.7.7,0,0,1,107.8,189.1Z"/><path class="w" d="M114,189.1h-2.1a1.2,1.2,0,0,1-1.2-.9l-.5-2.2a.8.8,0,0,1,.8-1h2.2a1.5,1.5,0,0,1,1.2,1l.4,2.2A.7.7,0,0,1,114,189.1Z"/><path class="w" d="M120.3,189.1h-2.2a1.2,1.2,0,0,1-1.2-.9l-.4-2.2a.7.7,0,0,1,.7-1h2.2a1.4,1.4,0,0,1,1.2,1l.4,2.2A.7.7,0,0,1,120.3,189.1Z"/><path class="w" d="M126.5,189.1h-2.2a1.3,1.3,0,0,1-1.2-.9l-.4-2.2a.8.8,0,0,1,.7-1h2.2a1.3,1.3,0,0,1,1.2,1l.5,2.2A.8.8,0,0,1,126.5,189.1Z"/></g><path class="x" d="M308.8,119,284,103.2a1.1,1.1,0,0,1-.2-1.4l20.6-23.5a.8.8,0,0,1,1.2-.2l16.9,10.8a.8.8,0,0,1,.3,1.1l-12.7,28.6A.9.9,0,0,1,308.8,119Z"/><rect class="d" x="318.5" y="64.1" width="2.3" height="20.98" transform="translate(90.3 -160.2) rotate(32.5)"/><path class="d" d="M352.8,101.1c0,1.2-.7,2.2-1.6,2.2s-1.6-1-1.6-2.2.7-2.1,1.6-2.1S352.8,99.9,352.8,101.1Z"/><path class="q" d="M347.6,99c-.9,0-1.6.9-1.6,2.1s.7,2.2,1.6,2.2h3.6c-.9,0-1.6-1-1.6-2.2s.7-2.1,1.6-2.1Z"/><path class="d" d="M350.1,99,320.7,73.5l-2.1,2.3L348,101.1s.5.4.9-.6S350.1,99,350.1,99Z"/><path class="d" d="M347,103.3l-14.9,85.6,3,.5,15-86.1s-.4-1-2.1-.8A1,1,0,0,0,347,103.3Z"/><rect class="x" x="313.7" y="188.9" width="41.8" height="4.44"/><path class="y" d="M114.4,73.6c-.1,10.8-22.2,17.4-28,33.5,1.8-4.9,6.2-26,18.8-32.9C108.1,72.5,111.5,71.9,114.4,73.6Z"/><path class="z" d="M66.7,87.1c3.2-.7,6.1,1,8.2,3.4,9.7,10.8,5.6,31.6,5.2,36.3C81.5,109.4,63.3,97.4,66.7,87.1Z"/><path class="aa" d="M121.8,92.3c-1.4,16.7-35,24-41.5,50.8,1.5-6,6.1-40.4,27.4-50.8C112.3,90,117.6,89.3,121.8,92.3Z"/><path class="ab" d="M52.3,115.7c2.4-2,5.5-1.8,8.3-.6,12,4.8,15.3,20.4,17.8,29.4C74.1,128.7,53.9,125.4,52.3,115.7Z"/><path class="ac" d="M22.9,143.1c3.5-11.1,20.9-10.7,33.4-3.7,14.9,8.1,20.9,21,26.7,32.5-4.2-8.4-14.7-17.2-31.3-20.4C39.5,149.2,29.5,150.5,22.9,143.1Z"/><path class="ad" d="M112.4,132.3c2.2,14.2-24.8,29-22.1,53.4-.7-6.1-6.7-36.1,10-50.4C103.7,132.3,108.2,130.5,112.4,132.3Z"/><path class="ae" d="M112.2,170.6c3.1,10.2-14.9,22.1-12.6,39.4-.5-4-5.7-25.1,4.4-36.1C106.2,171.5,109.1,169.8,112.2,170.6Z"/><path class="af" d="M131.3,187.9c2.5,13.4-22.7,25.7-24.7,47.6.6-6.6-.2-33,13.7-44.7C123.4,188.1,127.4,186.5,131.3,187.9Z"/><path class="ag" d="M37.9,199c2.2-10.1,15.9-12.2,27.9-8.1,29.5,10,35.7,39.2,39.2,49C92.7,205.1,53,213.3,37.9,199Z"/><path class="ah" d="M35.3,174.2c4-10.9,21-9,31.9-3.1,14.8,7.8,21.5,20.7,27.1,29.7-6.3-10.2-19.4-15.9-31.3-18S41.2,181.5,35.3,174.2Z"/><g class="ai"><path d="M107.8,240.5v2.2h0a1.3,1.3,0,0,1-.4.9,55.2,55.2,0,0,1,1,7.1h0a.9.9,0,0,1-.9,1h-.1c-.2,0-.5,0-.6-.2,0,1.7.1,3.4.1,5.2a128.8,128.8,0,0,1-5.4,35.9,1,1,0,0,0,.7,1.3h.3a1,1,0,0,0,.9-.7h0a130,130,0,0,0,5.5-36.5,120.1,120.1,0,0,0-1.1-16.2M96.1,206.1h.1A162.2,162.2,0,0,1,105,236a14.3,14.3,0,0,1,.8,2.2c.1-2.1.2-4.2.5-6.2a150.5,150.5,0,0,0-4.5-16.4,1.2,1.2,0,0,1-.8.9h-.3a1,1,0,0,1-.9-.7,31.9,31.9,0,0,1-1.2-6h-.1a1.1,1.1,0,0,1-1-.6,29.2,29.2,0,0,0-1.4-3.1m-3.6-14.2.6,1.7h0a1,1,0,0,1-.6,1.3h-.4a.7.7,0,0,1-.6-.3c0,.2.1.3.1.4A56.4,56.4,0,0,1,98,205.3c-1.8-4.6-3.7-9-5.5-13.4m-14.1-42a89.5,89.5,0,0,0,2.3,15.4,12.4,12.4,0,0,0,.4,1.6,72.4,72.4,0,0,1,6.5,13.4h0a1,1,0,0,1-.6,1.3h-.4a.7.7,0,0,1-.6-.3c1.4,3.7,3,7.4,4.6,11.2a40,40,0,0,1-1.8-9.5,126.7,126.7,0,0,1-6.1-18.3,90.9,90.9,0,0,1-2.1-12.7,1,1,0,0,1-1,.7h0a1,1,0,0,1-1-.9v-1.6l-.2-.4m.5-18.8c-.4,3.1-.6,6.3-.7,9.4.3,1.1.7,2.1,1,3.1a28.8,28.8,0,0,1,1.1-4.9c.1-2,.2-4,.5-6a1.1,1.1,0,0,1-1,.6h-.1a1,1,0,0,1-.9-1.1c0-.3.1-.7.1-1.1M94,90.5a1,1,0,0,0-.5.4,93.1,93.1,0,0,0-12.4,28.3c.1,1.5.2,2.9.2,4.4s-.2,5.1-.4,7.7A102.1,102.1,0,0,1,85,113.1a1,1,0,0,1-.9.7h-.4a1,1,0,0,1-.6-1.3,92.7,92.7,0,0,1,9.6-20c.4-.7.9-1.3,1.3-1.9"/><path d="M108.6,76.3l-.6.2a60,60,0,0,0-14,14h.3l.6.2a1.1,1.1,0,0,1,.3,1.4A91.4,91.4,0,0,0,85,113.1h0a93.8,93.8,0,0,1,9.4-19.6,56.4,56.4,0,0,1,14.8-15.3.9.9,0,0,0,.2-1.4,1,1,0,0,0-.8-.5"/><path d="M94.3,90.4H94c-.4.6-.9,1.2-1.3,1.9a92.7,92.7,0,0,0-9.6,20,1,1,0,0,0,.6,1.3h.4a1,1,0,0,0,.9-.7A91.4,91.4,0,0,1,95.2,92a1.1,1.1,0,0,0-.3-1.4l-.6-.2"/><path d="M80.9,131.3c0,.5-.1.9-.1,1.4v-.3a4.1,4.1,0,0,0,.1-1.1m-10.1-40c-.2,0-.4,0-.5.2a1,1,0,0,0-.3,1.4c6.9,9.8,9.2,19.5,9.2,30.7q0,3.6-.3,7.5a95.8,95.8,0,0,1,2.2-11.9,50.6,50.6,0,0,0-9.4-27.5,1,1,0,0,0-.9-.4"/><path d="M81.1,119.2a95.8,95.8,0,0,0-2.2,11.9c0,.4-.1.8-.1,1.1a1,1,0,0,0,.9,1.1h.1a1.1,1.1,0,0,0,1-.6c0-.5.1-.9.1-1.4.2-2.6.4-5.2.4-7.7s-.1-2.9-.2-4.4"/><path d="M112.6,96.3l-.6.2c-8.6,5.5-16.9,14-23.1,23.6a66.5,66.5,0,0,0-8.6,18.6c-.1,1.5-.1,3.1-.1,4.6a85.1,85.1,0,0,0,.4,8.8v-.3h0v-1.3c0-9.5,3.9-19.9,10-29.3a77.3,77.3,0,0,1,22.5-23,1,1,0,0,0,.4-1.4,1.2,1.2,0,0,0-.9-.5"/><path d="M80.3,138.7a28.8,28.8,0,0,0-1.1,4.9,56,56,0,0,1,1.2,5.9h0a1.2,1.2,0,0,1-.9,1.2h-.2a.8.8,0,0,1-.7-.4v1.6a1,1,0,0,0,1,.9h0a1,1,0,0,0,1-.7,85.1,85.1,0,0,1-.4-8.8c0-1.5,0-3.1.1-4.6"/><path d="M58,117.2a1,1,0,0,0-.9.6.9.9,0,0,0,.4,1.3,41.7,41.7,0,0,1,20.8,30.7h.1q-.3-3.3-.3-6.6a27.2,27.2,0,0,1,.1-2.8,43.9,43.9,0,0,0-19.7-23.1l-.5-.2"/><path d="M78.2,140.5a27.2,27.2,0,0,0-.1,2.8q0,3.3.3,6.6l.2.4a38.8,38.8,0,0,1,.6-6.7c-.3-1-.7-2-1-3.1"/><path d="M79.2,143.6a38.8,38.8,0,0,0-.6,6.7.8.8,0,0,0,.7.4h.2a1.2,1.2,0,0,0,.9-1.2h0a56,56,0,0,0-1.2-5.9"/><path d="M34.6,140.8h-.7a1.1,1.1,0,0,0-1,1.1,1.1,1.1,0,0,0,1,1h.7a51.3,51.3,0,0,1,30.3,9.4c8.8,6.3,16.1,15.9,20.8,28.7,0,.2.1.3.3.4a107.7,107.7,0,0,1-4.9-14.5,57.2,57.2,0,0,0-15-16.2,53.3,53.3,0,0,0-31.5-9.9"/><path d="M81.1,166.9A107.7,107.7,0,0,0,86,181.4a.7.7,0,0,0,.6.3H87a1,1,0,0,0,.6-1.3h0a72.4,72.4,0,0,0-6.5-13.4"/><path d="M90.6,192.6l.6,1.7c0,.2.1.3.3.4l-.9-2.1m15-55a.9.9,0,0,0-.7.3c-10.6,11.3-16.2,27.7-16.2,41.8,0,1.2.1,2.3.1,3.4,1.2,2.9,2.4,5.9,3.7,8.8a36.4,36.4,0,0,1-1.7-12.2c-.1-13.6,5.4-29.6,15.5-40.4a1.1,1.1,0,0,0,0-1.5l-.7-.2"/><path d="M88.8,183.1a40,40,0,0,0,1.8,9.5l.9,2.1a.7.7,0,0,0,.6.3h.4a1,1,0,0,0,.6-1.3h0l-.6-1.7c-1.3-2.9-2.5-5.9-3.7-8.8"/><path d="M108,174.7a.9.9,0,0,0-.8.4,49.9,49.9,0,0,0-9,28.5v2.2l1.2,2.6a.6.6,0,0,1,0,.6l2.4,6.6a.8.8,0,0,0-.1-.4,44.5,44.5,0,0,1-1.5-11.6,47.4,47.4,0,0,1,8.7-27.3,1,1,0,0,0-.3-1.4l-.6-.2"/><path d="M99.4,209a.9.9,0,0,1-.6.7c0,.1-.1.1-.2.1a31.9,31.9,0,0,0,1.2,6,1,1,0,0,0,.9.7h.3a1.2,1.2,0,0,0,.8-.9L99.4,209"/><path d="M125.1,192.8a1.1,1.1,0,0,0-.7.3A68,68,0,0,0,106.3,232c.6,2.8,1.1,5.6,1.5,8.5.1-17.8,6.3-33.4,18.1-46a1.1,1.1,0,0,0-.1-1.5.8.8,0,0,0-.7-.2"/><path d="M106.3,232c-.3,2-.4,4.1-.5,6.2s1.1,3.6,1.6,5.4a1.3,1.3,0,0,0,.4-.9h0v-2.2c-.4-2.9-.9-5.7-1.5-8.5"/><path d="M51,196.5a1.1,1.1,0,0,0-1,1,1.2,1.2,0,0,0,1,1.1,59,59,0,0,1,38.1,17.3c9.9,9.7,16.4,22.4,17.3,34.9a1,1,0,0,0,.4.7c-.2-2.7-.4-5.4-.7-8a.9.9,0,0,1-.3-.7v-2.2c-.3-1.5-.5-3.1-.8-4.6a62.8,62.8,0,0,0-14.5-21.6,62,62,0,0,0-39.4-17.9H51"/><path d="M106.1,243.5c.3,2.6.5,5.3.7,8,.1.2.4.2.6.2h.1a.9.9,0,0,0,.9-1h0a55.2,55.2,0,0,0-1-7.1l-.6.2h0a.9.9,0,0,1-.7-.3M105,236c.3,1.5.5,3.1.8,4.6v-2.4a14.3,14.3,0,0,0-.8-2.2"/><path d="M105.8,240.6v2.2a.9.9,0,0,0,.3.7l-.3-2.9"/><path d="M105.8,238.2v2.4l.3,2.9a.9.9,0,0,0,.7.3h0l.6-.2c-.5-1.8-1-3.6-1.6-5.4"/><path d="M98,205.3h.1c0,.2.1.3.1.5h0l-.2-.5M45.9,172.4a.9.9,0,0,0-1,1,1,1,0,0,0,1,1,56.8,56.8,0,0,1,50.2,31.7c-1.4-3.7-3-7.4-4.5-11a58.8,58.8,0,0,0-45.7-22.7h0"/><path d="M91.6,195.1c1.5,3.6,3.1,7.3,4.5,11a29.2,29.2,0,0,1,1.4,3.1,1.1,1.1,0,0,0,1,.6h.1c-.2-1.3-.3-2.6-.4-3.9s-.1-.3-.1-.5H98a56.4,56.4,0,0,0-6.4-10.2"/><path d="M98.2,205.8h0l1.2,3.1a.6.6,0,0,0,0-.6l-1.2-2.6"/><path d="M98.2,205.9c.1,1.3.2,2.6.4,3.9s.2,0,.2-.1a.9.9,0,0,0,.6-.7l-1.2-3.1"/></g><path class="aj" d="M120.6,372.9h-30a14.1,14.1,0,0,1-14.1-13.3L72,276.7a6.7,6.7,0,0,1,6.7-7.1h53.7a6.8,6.8,0,0,1,6.8,7.1l-4.5,82.9A14.1,14.1,0,0,1,120.6,372.9Z"/></g></svg>