<svg xmlns="http://www.w3.org/2000/svg" xmlns:xlink="http://www.w3.org/1999/xlink" viewBox="0 0 400 400"><defs><style>.a{fill:none;}.b{font-size:41px;font-family:AdobeArabic-Regular, Adobe Arabic;}.b,.h{fill:#fff;}.c{fill:url(#a);}.d{fill:#267cd1;}.e{fill:#0050af;}.f{fill:#4ea4f9;}.g{fill:url(#b);}.i{fill:#2842a2;}.j{fill:#63b4f7;}.k{fill:#2ba0ef;}.l{opacity:0.11;}.m{clip-path:url(#c);}.n{fill:url(#d);}.o{fill:url(#e);}.p{fill:#9198db;}.q{fill:#adb1f2;}.r{fill:#24126a;}.s{clip-path:url(#f);}.t{fill:#e1001f;}.u{fill:#f6d928;}.v{fill:#21e2e2;}.w{fill:#1f364c;}.x{fill:#ffe7cb;}.y{fill:#0e71bb;}.z{fill:#288ed9;}.aa{fill:#2b454e;}.ab{fill:url(#g);}.ac{fill:#152735;}</style><linearGradient id="a" x1="223.02" y1="378.32" x2="173.05" y2="94.92" gradientUnits="userSpaceOnUse"><stop offset="0" stop-color="#c6e6ff"/><stop offset="1" stop-color="#fff"/></linearGradient><linearGradient id="b" x1="-2800.03" y1="158.7" x2="-2789.48" y2="158.7" gradientTransform="matrix(-1, 0, 0, 1, -2542.01, 0)" gradientUnits="userSpaceOnUse"><stop offset="0" stop-color="#5761d7"/><stop offset="0.18" stop-color="#5c66d9"/><stop offset="0.39" stop-color="#6a73df"/><stop offset="0.61" stop-color="#8289e8"/><stop offset="0.85" stop-color="#a3a7f5"/><stop offset="1" stop-color="#bcbeff"/></linearGradient><clipPath id="c"><polygon class="a" points="204 109.7 255.3 139.3 248.9 176.7 197.7 147.2 204 109.7"/></clipPath><linearGradient id="d" x1="-2795.81" y1="154.28" x2="-2709.02" y2="154.28" gradientTransform="matrix(-1, 0, 0, 1, -2542.01, 0)" gradientUnits="userSpaceOnUse"><stop offset="0" stop-color="#c0bff6"/><stop offset="0.29" stop-color="#c5c4f7"/><stop offset="0.64" stop-color="#d3d2f9"/><stop offset="1" stop-color="#e9e9fd"/></linearGradient><linearGradient id="e" x1="-2801.52" y1="147.91" x2="-2779.31" y2="147.91" xlink:href="#d"/><clipPath id="f"><path class="a" d="M231,223.7l28.4-16.2c3.2-1.9,5.8-.7,5.8,2.5v11.8c0,3.2-2.6,7.3-5.8,9.1L231,247.1c-3.2,1.9-5.8.7-5.8-2.5V232.8C225.2,229.6,227.8,225.5,231,223.7Z"/></clipPath><linearGradient id="g" x1="6960.98" y1="240.48" x2="6960.99" y2="240.48" gradientTransform="matrix(-1, 0, 0, 1, 7101.04, 0)" gradientUnits="userSpaceOnUse"><stop offset="0" stop-color="#f2d9ff"/><stop offset="1" stop-color="#8e74ff"/></linearGradient></defs><title>cp-germany-vps</title><text class="b" transform="translate(135 -54.3)"><tspan xml:space="preserve">نالآ  یزاجم روس لتنک</tspan></text><path class="c" d="M99.8,317.1C43.9,294,8.6,237.3,14.3,177.1c2.2-22.9,10-43.4,28.2-54,56.9-33.2,101.4,18.2,139.4,57.1s148.5,4.4,184.9,50.3,4,128.5-77.6,135.7C240.7,370.4,158.5,341.4,99.8,317.1Z"/><polygon class="d" points="217 323.1 217 213.4 273.3 181 273.3 290.7 217 323.1"/><polygon class="e" points="160.7 181 217 213.4 217 323.1 160.7 290.7 160.7 181"/><polygon class="f" points="217 148.5 273.3 181 217 213.4 160.7 181 217 148.5"/><path class="f" d="M196.6,146.8l6.7-39.5-.6-.2.8-.5h0a.5.5,0,0,1,.6.1l53.2,30.7a1.5,1.5,0,0,1,.7,1.3l-6.7,39.8c0,.2-.1.3-.3.4h0l-.8.5v-.8h0l-52.8-30.5A1.5,1.5,0,0,1,196.6,146.8Z"/><path class="g" d="M257,138.4l.9-.3a1.3,1.3,0,0,1,.1.6l-6.7,39.8c0,.2-.1.3-.3.4h0l-.8.5v-.8h0l-2.6-1.5Z"/><path class="e" d="M196.5,148.6l53.1,30.7c.4.2.8.1.9-.3l6.7-39.8a1.9,1.9,0,0,0-.7-1.4l-53.2-30.7c-.4-.2-.8-.1-.8.4l-6.7,39.7A1.4,1.4,0,0,0,196.5,148.6Z"/><polygon class="e" points="204 109.7 255.3 139.3 248.9 176.7 197.7 147.2 204 109.7"/><path class="d" d="M163,167.4l2.9,1.5L195,152.2a2.1,2.1,0,0,1,1.9,0l50.2,29,2.7-1.3-1.1,2.7h0c0,.2-.1.3-.3.4l-30.6,17.7a2.5,2.5,0,0,1-1.9-.1l-51.4-29.7-.4-.4h0Z"/><path class="f" d="M163.5,167.9l52.6,30.4a2.4,2.4,0,0,0,2,.1l31.4-18.2c.5-.2.4-.7-.2-1.1l-52.6-30.4a2.1,2.1,0,0,0-1.9,0l-31.5,18.1C162.8,167.1,162.9,167.6,163.5,167.9Z"/><path class="h" d="M163.5,167.6,216.1,198a2.4,2.4,0,0,0,2,.1l31.4-18.2.3-.3a.4.4,0,0,1-.3.6l-31.4,18.2a2.4,2.4,0,0,1-2-.1l-52.6-30.4a.8.8,0,0,1-.5-.8A.8.8,0,0,0,163.5,167.6Z"/><path class="i" d="M232,191.7v-.6h-.1l-2,1.2h-.1v.6h.1l2-1.1C232,191.8,232,191.8,232,191.7Z"/><path class="i" d="M228.9,193.5v-.6h0l-2.1,1.2v.7h0l2.1-1.2Z"/><path class="j" d="M241.3,178.5l-43.8-25.2a.7.7,0,0,0-.9,0l-15.6,9a.4.4,0,0,0,0,.6l43.7,25.2a.9.9,0,0,0,1,0l15.6-9C241.5,179,241.5,178.7,241.3,178.5Z"/><path class="k" d="M241.3,179.1h-.2l-43.6-25.1a.7.7,0,0,0-.9,0L181.2,163H181a.4.4,0,0,1,0-.6l15.6-9a.7.7,0,0,1,.9,0l43.8,25.2C241.5,178.7,241.5,179,241.3,179.1Z"/><polygon class="e" points="195.4 155.6 233.4 177.5 235.1 176.5 197.1 154.6 195.4 155.6"/><polygon class="e" points="191.3 158 226.9 178.5 228.6 177.6 193 157 191.3 158"/><polygon class="e" points="188.6 159.5 230.5 183.7 232.2 182.8 190.3 158.6 188.6 159.5"/><polygon class="e" points="185.9 161.1 227.8 185.3 229.5 184.3 187.6 160.1 185.9 161.1"/><polygon class="e" points="183.2 162.6 225.1 186.9 226.8 185.9 184.9 161.7 183.2 162.6"/><polygon class="e" points="235.7 178.8 237.4 179.8 239.1 178.8 237.4 177.9 235.7 178.8"/><polygon class="e" points="229.8 180.2 233.3 182.2 234.9 181.2 231.4 179.2 229.8 180.2"/><path class="j" d="M195.9,184.7l-11.8-6.9c-.5-.2-.5-.6,0-.9l8-4.7a2.5,2.5,0,0,1,1.7,0l11.8,6.8c.5.3.5.7,0,1l-8.1,4.7A2.2,2.2,0,0,1,195.9,184.7Z"/><path class="k" d="M205.6,179.4l-11.8-6.8a2.5,2.5,0,0,0-1.7,0l-8,4.7-.3.3c-.1-.3,0-.5.3-.7l8-4.7a2.5,2.5,0,0,1,1.7,0l11.8,6.8a.6.6,0,0,1,.3.7Z"/><g class="l"><g class="m"><path class="n" d="M196.6,148.7l52.7,30.4a2.1,2.1,0,0,0,1.9,0L282.6,161c.5-.3.5-.8-.1-1.1l-52.6-30.4a2.4,2.4,0,0,0-2-.1l-31.4,18.1C196,147.8,196.1,148.3,196.6,148.7Z"/><path class="o" d="M249.4,154.1l-11.8-6.8a.6.6,0,0,1,0-1l8.1-4.6a1.7,1.7,0,0,1,1.7,0l11.8,6.8a.6.6,0,0,1,0,1l-8.1,4.6A1.7,1.7,0,0,1,249.4,154.1Z"/><path class="p" d="M259.2,148.9l-11.8-6.8a1.7,1.7,0,0,0-1.7,0l-8.1,4.6-.2.3c-.2-.2-.1-.5.2-.7l8.1-4.6a1.7,1.7,0,0,1,1.7,0l11.8,6.8c.3.2.4.4.3.7Z"/><path class="q" d="M264.3,164.8l-43.7-25.3a.8.8,0,0,0-.9,0l-15.6,9c-.2.2-.2.5,0,.6l43.7,25.2a.9.9,0,0,0,1,0l15.5-9C264.6,165.2,264.6,164.9,264.3,164.8Z"/><path class="p" d="M264.3,165.3h-.1l-43.6-25.1a.8.8,0,0,0-.9,0l-15.4,8.9h-.2c-.2-.1-.2-.4,0-.6l15.6-9a.8.8,0,0,1,.9,0l43.7,25.3C264.6,164.9,264.6,165.2,264.3,165.3Z"/><polygon class="r" points="208.2 147.9 246.3 169.9 244.8 170.8 206.7 148.8 208.2 147.9"/><polygon class="r" points="212.2 145.6 248.4 166.5 246.9 167.4 210.7 146.5 212.2 145.6"/><polygon class="r" points="251.1 168.1 254.5 170 253 170.9 249.6 168.9 251.1 168.1"/><polygon class="r" points="248.1 171 250.5 172.3 249 173.2 246.6 171.8 248.1 171"/><polygon class="r" points="214.7 144.1 257 168.6 255.5 169.4 213.2 145 214.7 144.1"/><polygon class="r" points="217.2 142.7 259.5 167.1 258 168 215.7 143.6 217.2 142.7"/><polygon class="r" points="219.7 141.2 262 165.7 260.5 166.5 218.2 142.1 219.7 141.2"/></g></g><g class="s"><polygon points="225.2 234.8 265.2 212 265.2 204.1 225.2 227 225.2 234.8"/><polygon class="t" points="225.2 242.6 265.2 219.8 265.2 212 225.2 234.8 225.2 242.6"/><polygon class="u" points="225.2 250.5 265.2 227.6 265.2 219.8 225.2 242.6 225.2 250.5"/></g><path class="v" d="M121.2,328.6s-1,9.7-.5,13.3,6,1.8,7.6,1,8.8-4.7,11.5-5.7c9.1-3.2,21.5-15.7-10.9-7.9C126.8,329.8,121.2,328.6,121.2,328.6Z"/><path class="v" d="M151.2,341.9s-1,9.8-.5,13.3,6,1.8,7.6,1,8.8-4.7,11.5-5.6c9.1-3.3,21.5-15.7-10.9-7.9C156.8,343.2,151.2,341.9,151.2,341.9Z"/><path class="w" d="M166.1,221.6s-35.1,6.7-43.3-7.8a79.9,79.9,0,0,0,.2,20.3,28.1,28.1,0,0,1,.4,6.5c-.4,33.1-2.3,85.5-2.3,90.4,0,2.8,10.8,3.7,11.7-2.3,1.9-12,5.5-29,6.7-50.1l.3-2.4c3.2-19.1,2.6-26.8,2.9-28.5.3,1.2.2,3.2.8,8.5s7.3,86.1,7.3,89.7,13.3,1.7,13.3-3.3c-.2-20.9-.2-25.7-.7-41.5a74.3,74.3,0,0,1,.6-12.5c.8-6,.7-10.6,1.1-14.9A517.6,517.6,0,0,0,166.1,221.6Z"/><path class="x" d="M154.3,145.9s-1.3,9.8-3.5,12-12.7,3.3-14.9,1.1c5.6-6.6,5.4-16.3,5.4-16.3Z"/><path class="x" d="M145.9,116.6c7.5-2.4,14.8,1.3,16.7,3.2s4.2,6.1,3.3,15.8a.9.9,0,0,1-.1.5c-.1.9.2,1.1,1.4,4.1-.1.7-1.1,1.1-1.6,1.3a1.5,1.5,0,0,0-.9,1c-1.3,5-3.3,6.7-4.3,7.2s-8.8-.7-11-2.4-8-7.1-9.4-13.3S140.5,118.2,145.9,116.6Z"/><path class="y" d="M167.5,125c-1.1,2.1-3.6,4.4-8.5,7.1-.8.5-1.4,4.1-3,3.6s-.7-3.1-2.3-4-3.1-.5-3.2,1.7,1.1,2.8,1.5,4.4,2.2,1.9,2.2,1.9-.5,6.5-4.7,8.6c0,0-5,2.3-9.6-.7-2-1.3-4.4-7-5.6-11.5-2.6-9.7-2.2-17.1,4-18.7,1.3-4,3.4-5.3,7.2-5.6,8.4-.5,13.8,5.6,20.7,5.6C169.8,117.4,169,122.2,167.5,125Z"/><path class="z" d="M123.3,157.7a5.3,5.3,0,0,1,1.1-2.1c2.6-2.7,5.8-4.1,11-4.1h4.1c2.6,2.5,5.6,3.3,13.1,3.3l3.7,1.1h0s-1.1,17.6,8,23l1.8,43.9-5.8,3.8c-3.8,2.3-9,5.9-18.4,5.1-11.2-.9-19.6-10.1-19.6-10.1s0-5.2.9-13.4a66.6,66.6,0,0,0,.3-14.1c-1-12.6-1.5-18.9-1.4-22.3C122.4,164.8,122.7,160.3,123.3,157.7Z"/><path class="aa" d="M164.5,183.3s-4.7-5-6.4-10.7c0,0,0,8.4,6.5,12.9Z"/><path class="x" d="M156.3,155.9c4.9,1.4,7.9,1.7,13.4,10.1s17.5,25.2,18.7,27.2,2.3,6.1.9,8.6-5.2,1.4-10.6-3.4S163,180.8,163,180.8A90.3,90.3,0,0,1,156.3,155.9Z"/><path class="z" d="M156.3,155.9a38,38,0,0,1,7.1,2.2,10.7,10.7,0,0,1,5.4,4.5c3.9,6.3,9.3,15.4,9.3,15.4s1,7.9-8.6,10.6l-5.1-5.5a29.3,29.3,0,0,1-5.1-7.5C157.2,170.8,154.7,163.3,156.3,155.9Z"/><path class="x" d="M187.6,203c4.6-.5,14.9-14.6,18.3-19.1a44.7,44.7,0,0,1,8-8.2c2.7-2.4-7.1-8.5-7.3-8a19.1,19.1,0,0,1-3.1,5.5c-1.2,1.7-17.2,17-17.2,17Z"/><path class="x" d="M206.3,179.5a11.4,11.4,0,0,0,5.1-1.6,39.9,39.9,0,0,0,3.7-3.4s.7,1.1,2.2-.1,2.7-2.7,2.7-3.5a1.6,1.6,0,0,0-.4-1.3s1-1.3,0-2.2a2.6,2.6,0,0,0,.7-2.1c0-1.4-1.8-2.1-1.8-2.1s1.1-1.3,1.1-1.9v-.5s-1.1-2-1.8-2a39.9,39.9,0,0,0-6.9,3.1c-.2.3-2.6,2.6-3.3,3.5s-1.4,4.6-2.2,5.7-1.8,6.8-1.8,6.8Z"/><path class="ab" d="M140.1,240.5Z"/><path class="ac" d="M139,265.5a217,217,0,0,0,1.1-25,12.2,12.2,0,0,0,1.4,4.5,10.4,10.4,0,0,1,1.2,2.7c-.3,1.7.3,9.4-2.9,28.5l-.3,2.4c-1.2,21.1-4.8,38.1-6.7,50.1a4.3,4.3,0,0,1-2.1,3.2l-1.5.5c5.3-4.4,7-29.5,7.7-41.2S137.5,276.9,139,265.5Z"/></svg>