<svg xmlns="http://www.w3.org/2000/svg" xmlns:xlink="http://www.w3.org/1999/xlink" viewBox="0 0 400 400"><defs><style>.a{font-size:39.99px;fill:#fff;font-family:AdobeArabic-Regular, Adobe Arabic;}.b{fill:url(#a);}.c{fill:url(#b);}.d{fill:url(#c);}.e{fill:url(#d);}.f{fill:#e1e1e1;}.g{fill:url(#e);}.h{fill:url(#f);}.i{fill:url(#g);}.j{fill:url(#h);}.k{fill:#1a2e35;}.l{fill:url(#i);}.m{fill:url(#j);}.n{fill:url(#k);}.o{fill:url(#l);}.p{fill:url(#m);}.q{fill:url(#n);}.r{fill:url(#o);}.s{fill:url(#p);}.t{fill:#e8505b;}.u{fill:url(#q);}.v{fill:url(#r);}.w{fill:url(#s);}.x{fill:url(#t);}.y{fill:url(#u);}.z{fill:#0e72c4;}.aa{fill:#197bdd;}.ab{fill:#0c5591;}.ac{fill:#ececec;}.ad{fill:#fafafa;}.ae{fill:#375a64;}.af{fill:#f5f5f5;}.ag{fill:#ffe7cb;}.ah{fill:#f0d2b9;}.ai{fill:#21e2e2;}.aj{fill:#152735;}.ak{fill:#1f364c;}.al{fill:#288ed9;}.am{fill:#0e71bb;}.an{fill:#00c1bc;}.ao{fill:#4987ce;}</style><linearGradient id="a" x1="218.01" y1="358.42" x2="169.79" y2="84.95" gradientUnits="userSpaceOnUse"><stop offset="0" stop-color="#c6e6ff"/><stop offset="1" stop-color="#fff"/></linearGradient><linearGradient id="b" x1="343.17" y1="287.44" x2="362.02" y2="287.44" gradientUnits="userSpaceOnUse"><stop offset="0" stop-color="#44989f"/><stop offset="0.21" stop-color="#39b0b4"/><stop offset="0.52" stop-color="#2ccbcd"/><stop offset="0.8" stop-color="#24dcdd"/><stop offset="1" stop-color="#21e2e2"/></linearGradient><linearGradient id="c" x1="338.29" y1="257.6" x2="351.92" y2="257.6" xlink:href="#b"/><linearGradient id="d" x1="314.48" y1="263.37" x2="336.96" y2="263.37" xlink:href="#b"/><linearGradient id="e" x1="326.93" y1="322.68" x2="351.97" y2="322.68" gradientUnits="userSpaceOnUse"><stop offset="0" stop-color="#ffbc98"/><stop offset="0.45" stop-color="#ffbb96"/><stop offset="0.67" stop-color="#ffb68e"/><stop offset="0.84" stop-color="#ffad81"/><stop offset="0.98" stop-color="#ffa16f"/><stop offset="1" stop-color="#ff9f6c"/></linearGradient><linearGradient id="f" x1="324.76" y1="310.48" x2="354.66" y2="310.48" xlink:href="#e"/><linearGradient id="g" x1="324.76" y1="331.72" x2="354.16" y2="331.72" xlink:href="#e"/><linearGradient id="h" x1="326.17" y1="334.15" x2="353.09" y2="334.15" xlink:href="#e"/><linearGradient id="i" x1="43.92" y1="256.21" x2="46.95" y2="256.21" gradientUnits="userSpaceOnUse"><stop offset="0" stop-color="#419ee3"/><stop offset="1" stop-color="#0d79c9"/></linearGradient><linearGradient id="j" x1="47.25" y1="274.68" x2="54.66" y2="274.68" xlink:href="#i"/><linearGradient id="k" x1="45.67" y1="292.83" x2="50.14" y2="292.83" xlink:href="#i"/><linearGradient id="l" x1="49.97" y1="312.01" x2="54.79" y2="312.01" xlink:href="#i"/><linearGradient id="m" x1="34.29" y1="250.72" x2="41.25" y2="250.72" xlink:href="#i"/><linearGradient id="n" x1="41.06" y1="266.72" x2="48.58" y2="266.72" xlink:href="#i"/><linearGradient id="o" x1="41.37" y1="283.17" x2="44.55" y2="283.17" xlink:href="#i"/><linearGradient id="p" x1="41.95" y1="304.98" x2="49.32" y2="304.98" xlink:href="#i"/><linearGradient id="q" x1="57.51" y1="291.03" x2="60.17" y2="291.03" xlink:href="#b"/><linearGradient id="r" x1="47.61" y1="308.22" x2="50.59" y2="308.22" xlink:href="#b"/><linearGradient id="s" x1="62.82" y1="282.98" x2="68.54" y2="282.98" xlink:href="#b"/><linearGradient id="t" x1="52.45" y1="303.26" x2="62.11" y2="303.26" xlink:href="#b"/><linearGradient id="u" x1="42.97" y1="328.3" x2="56.8" y2="328.3" xlink:href="#e"/></defs><title>foreigndedicatedserver-windows</title><text class="a" transform="translate(77.5 -39.7)">جراخ زودنیو یصاصتخا روس*</text><path class="b" d="M52.6,334.9S1.1,280,27,220.8c24.6-56.4,65.5,4.1,120.7-85.4S267.9,66,285.5,138.5c20.4,84.4,63.3,53.2,86.2,90.4,26,42.4-2.4,90.7-20.3,106Z"/><path class="c" d="M346.7,283a15.7,15.7,0,0,1,9.6-1.2c1.7.3,3.6.8,4.7,2.1s1.5,3.6.1,4.8a5.1,5.1,0,0,1-3,.7c-2.5,0-5.4-.4-7.4,1.1s-1.9,2.3-3.3,2.7a3,3,0,0,1-3.6-1.6,5.3,5.3,0,0,1-.4-4.1A6.1,6.1,0,0,1,346.7,283Z"/><path class="d" d="M340,270c1.8,2.6,5.2,1.8,6.9.2s2.2-3.8,2.9-6c1.4-4.9,2.8-10.1,1.8-15.1a8.8,8.8,0,0,0-2-4.1,4.3,4.3,0,0,0-4.1-1.4c-1.8.5-2.9,2.2-3.7,3.9a35.4,35.4,0,0,0-3.5,15.4c0,2.5.3,5.1,1.7,7.1"/><path class="e" d="M335.1,273.7a9.2,9.2,0,0,0,1.4-8.5,16.3,16.3,0,0,0-5-7.4,27.9,27.9,0,0,0-9.1-5.3,8.3,8.3,0,0,0-4.1-.7,4.1,4.1,0,0,0-3.4,2c-1,1.9-.1,4.1.9,5.9a78.2,78.2,0,0,0,6,9c1.8,2.3,3.8,4.6,6.5,5.7s5.6.9,7-1"/><path class="f" d="M339.9,308.6a10.9,10.9,0,0,1,.1-1.2c.1-.8.2-1.9.3-3.2s.4-2.9.7-4.6a48.5,48.5,0,0,1,1.7-5.5,21.7,21.7,0,0,1,2.8-5,11.8,11.8,0,0,1,3.6-2.9,9.2,9.2,0,0,1,2.9-.9l1.2-.2H352a7.8,7.8,0,0,0-3.1.8,11.1,11.1,0,0,0-3.7,3,18.8,18.8,0,0,0-2.9,5,35.2,35.2,0,0,0-1.7,5.6c-.3,1.8-.5,3.4-.6,4.7s-.1,2.4-.2,3.2S339.8,308.6,339.9,308.6Z"/><path class="f" d="M340.1,306.1V304c0-1.3,0-3.2.1-5.6.1-4.8.5-9.9,1.3-17.2s1.8-14.7,2.8-19.9c.3-1.1.5-2.2.7-3.1s.4-1.7.6-2.4.2-1.1.3-1.5a1.8,1.8,0,0,0,.1-.5l-.2.5c-.1.4-.2.9-.4,1.5l-.7,2.3c-.2.9-.5,2-.7,3.2a160.6,160.6,0,0,0-3,18.4c-.8,7.3-1.1,13.9-1.2,18.7,0,2.4.1,4.3.1,5.7a8.6,8.6,0,0,1,.1,1.5A1.2,1.2,0,0,0,340.1,306.1Z"/><path class="f" d="M340.1,293.4v-1.6c-.1-1.1-.2-2.6-.5-4.4a49.1,49.1,0,0,0-1.4-6.3,48.5,48.5,0,0,0-2.7-7.5,40.1,40.1,0,0,0-7.8-12.2c-.6-.7-1.3-1.2-1.8-1.7l-.8-.7-.7-.4-1.3-.9c-.1.1,1.9,1.3,4.4,3.9a44.3,44.3,0,0,1,7.6,12.1,71.6,71.6,0,0,1,2.7,7.5c.7,2.3,1.1,4.5,1.5,6.3s.5,3.3.6,4.3S340.1,293.4,340.1,293.4Z"/><polygon class="g" points="326.9 313.9 328.2 331.4 350.7 331.4 352 313.9 326.9 313.9"/><rect class="h" x="324.8" y="307" width="29.9" height="6.9"/><polygon class="i" points="324.8 330.8 324.8 332.7 326.2 332.7 354.2 332.7 354.2 330.8 324.8 330.8"/><polygon class="j" points="327.5 335.8 326.2 332.5 353.1 332.5 351.5 335.8 327.5 335.8"/><path class="k" d="M360.2,336.1H-11.3c0-.1,83.2-.2,185.8-.2S360.2,336,360.2,336.1Z"/><path class="f" d="M48.3,323.2V323a1.6,1.6,0,0,0,.3-.6c.2-.5.5-1.3.8-2.3a20.9,20.9,0,0,0-.1-9,41.5,41.5,0,0,0-1.6-6c-.7-2.1-1.5-4.4-2.2-6.9a24.9,24.9,0,0,1-1.1-7.8,31.6,31.6,0,0,1,1.8-8.4,37.1,37.1,0,0,0,2.2-8.2,13,13,0,0,0-1.5-7.6c-1.2-2.2-2.8-4.1-3.9-6.1a20,20,0,0,1-2.3-5.8,19.4,19.4,0,0,1-.1-9,15.5,15.5,0,0,1,.9-3.2v.2a3.5,3.5,0,0,0-.1.6,13.6,13.6,0,0,0-.6,2.4,21.2,21.2,0,0,0,.2,9,24.3,24.3,0,0,0,2.3,5.7c1.2,2,2.7,3.8,3.9,6.1a12.7,12.7,0,0,1,1.6,7.7,42.5,42.5,0,0,1-2.2,8.3,30.9,30.9,0,0,0-1.8,8.3,28.8,28.8,0,0,0,1,7.8c.7,2.4,1.5,4.7,2.2,6.8a42.6,42.6,0,0,1,1.6,6.1,19.1,19.1,0,0,1,0,9,18.6,18.6,0,0,1-.8,2.3,1.5,1.5,0,0,0-.3.6Z"/><path class="l" d="M44.6,262.1s-2.3-7.4,1.8-11.7c.1-.1.4-.1.4.1S47.3,255.5,44.6,262.1Z"/><path class="f" d="M45.9,252.9c.1,0,0,.5-.1,1.3a28.8,28.8,0,0,0-.5,3.3c-.2,1.2-.4,2.3-.6,3.2s-.2,1.4-.2,1.4v-1.4c.1-.9.3-2,.5-3.3s.4-2.4.6-3.2Z"/><path class="m" d="M47.3,279.4s1.4-7.6,7-9.4a.2.2,0,0,1,.3.3C54.3,271.5,52.8,274.8,47.3,279.4Z"/><path class="f" d="M52.8,271.9,52,273l-2,2.7c-.7.9-1.4,1.8-1.9,2.6l-.9,1.1a4.1,4.1,0,0,1,.7-1.2,23.3,23.3,0,0,1,1.9-2.7l2-2.6C52.4,272.3,52.7,271.9,52.8,271.9Z"/><path class="n" d="M45.7,298.4s-.8-7.7,4-11.1c.2-.1.4,0,.4.2S49.7,292.4,45.7,298.4Z"/><path class="f" d="M48.8,289.6c.1,0-.1.5-.4,1.3L47.3,294l-1.1,3.1-.5,1.3c-.1,0,0-.6.3-1.4s.6-1.9,1-3.1l1.2-3Z"/><path class="o" d="M50,317.5s-.6-7.7,4.4-10.9c.2-.2.4,0,.4.2S54.2,311.7,50,317.5Z"/><path class="f" d="M53.4,308.8a3.5,3.5,0,0,1-.5,1.3c-.3.9-.7,1.9-1.2,3.1a31.1,31.1,0,0,0-1.2,3c-.3.8-.5,1.3-.6,1.3a8.3,8.3,0,0,1,.4-1.4c.2-.8.7-1.8,1.1-3a29.9,29.9,0,0,1,1.4-3A8.7,8.7,0,0,1,53.4,308.8Z"/><path class="p" d="M41.3,255.6s-6.9-3.5-7-9.5c0-.2.2-.3.4-.2S38.5,249,41.3,255.6Z"/><path class="f" d="M35.7,248.1l.9,1.1,1.9,2.7,1.9,2.6.8,1.1c0,.1-.4-.3-.9-1a15.8,15.8,0,0,1-2-2.6,23.3,23.3,0,0,1-1.9-2.7A4.1,4.1,0,0,1,35.7,248.1Z"/><path class="q" d="M48.6,271.4s-7-3.1-7.5-9.1c-.1-.2.2-.3.3-.2S45.4,265,48.6,271.4Z"/><path class="f" d="M42.6,264.3a4.9,4.9,0,0,1,.9,1l2.1,2.5,2.1,2.6c.5.6.9,1,.8,1s-.4-.3-1-.9-1.3-1.5-2.1-2.5l-2.1-2.6Z"/><path class="r" d="M44.5,289s-4.8-6-2.5-11.5a.2.2,0,0,1,.4,0C43.1,278.5,44.7,281.8,44.5,289Z"/><path class="f" d="M42.5,279.9l.3,1.4.7,3.2c.3,1.2.5,2.2.7,3.2l.3,1.3c-.1,0-.3-.5-.5-1.3s-.5-1.9-.8-3.2a28.5,28.5,0,0,1-.6-3.2C42.5,280.5,42.4,279.9,42.5,279.9Z"/><path class="s" d="M49.3,309.7s-7-3.2-7.4-9.2a.3.3,0,0,1,.4-.2C43.4,300.9,46.3,303.2,49.3,309.7Z"/><path class="f" d="M43.5,302.5l.8,1,2.1,2.6,2,2.6.9,1c-.1.1-.5-.3-1-.9s-1.3-1.5-2.1-2.5l-2-2.7C43.7,303,43.4,302.5,43.5,302.5Z"/><path class="f" d="M63.2,279.4v.7a14.2,14.2,0,0,1-.1,1.9l-.3,6.6h0a26.8,26.8,0,0,1-3.9,8.8c-1.4,2.2-2.8,4.2-4.1,6.1a53.8,53.8,0,0,0-3.1,5.1,23.5,23.5,0,0,0-1.4,3.8,2.6,2.6,0,0,0-.3,1.1v-.1a9.3,9.3,0,0,1,.3-1,19.5,19.5,0,0,1,1.3-3.9,43.6,43.6,0,0,1,3.1-5.1c1.2-1.9,2.7-3.9,4.1-6.1a25.5,25.5,0,0,0,3.8-8.8h0c.2-2.7.4-5,.5-6.6v-2.6Z"/><path class="t" d="M59.1,297s2.9-7.2-.8-11.8c-.1-.2-.4-.1-.5.1S56.9,290.1,59.1,297Z"/><path class="u" d="M59.1,297s2.9-7.2-.8-11.8c-.1-.2-.4-.1-.5.1S56.9,290.1,59.1,297Z"/><path class="f" d="M58.5,287.7c.1,0,.1.5.3,1.3s.2,2,.3,3.3.1,2.4.1,3.3,0,1.3-.1,1.3a7.3,7.3,0,0,1-.1-1.3c-.1-1-.1-2.1-.2-3.3s-.2-2.3-.2-3.3A11.6,11.6,0,0,1,58.5,287.7Z"/><path class="t" d="M49.9,314.1s2.4-7.3-1.7-11.7c-.1-.1-.4-.1-.4.1S47.2,307.5,49.9,314.1Z"/><path class="v" d="M49.9,314.1s2.4-7.3-1.7-11.7c-.1-.1-.4-.1-.4.1S47.2,307.5,49.9,314.1Z"/><path class="f" d="M48.6,304.9c.1,0,.2.5.4,1.3s.3,2,.5,3.2a26.3,26.3,0,0,1,.4,3.3,12.5,12.5,0,0,1,.1,1.4c-.1,0-.1-.5-.3-1.4s-.3-2-.4-3.2-.4-2.3-.5-3.3A5.9,5.9,0,0,1,48.6,304.9Z"/><path class="t" d="M62.8,288.3s6.3-4.4,5.7-10.4a.2.2,0,0,0-.4-.1C67.2,278.6,64.7,281.3,62.8,288.3Z"/><path class="w" d="M62.8,288.3s6.3-4.4,5.7-10.4a.2.2,0,0,0-.4-.1C67.2,278.6,64.7,281.3,62.8,288.3Z"/><path class="f" d="M67.3,280.1c.1.1-.1.5-.5,1.3a27.4,27.4,0,0,1-1.5,2.9c-.6,1.2-1.2,2.2-1.6,2.9l-.8,1.1c-.1,0,.2-.5.6-1.2l1.6-2.9,1.5-2.9A6.4,6.4,0,0,0,67.3,280.1Z"/><path class="t" d="M52.5,306.8s7.6-1.2,9.6-6.8c.1-.2-.1-.3-.3-.3S57.2,301.4,52.5,306.8Z"/><path class="x" d="M52.5,306.8s7.6-1.2,9.6-6.8c.1-.2-.1-.3-.3-.3S57.2,301.4,52.5,306.8Z"/><path class="f" d="M60.1,301.5c0,.1-.4.4-1,.9a23.7,23.7,0,0,1-2.7,2,20.9,20.9,0,0,1-2.7,1.8l-1.2.7c0-.1.4-.4,1.1-.8l2.7-1.9,2.7-1.9Z"/><polygon class="y" points="45.2 320.8 43 335.8 56.8 335.8 55 320.8 45.2 320.8"/><rect class="z" x="187" y="185.6" width="66.2" height="43.79" rx="0.7"/><path class="aa" d="M184.2,226.1H256a0,0,0,0,1,0,0v.7a3.2,3.2,0,0,1-3.2,3.2H187.4a3.2,3.2,0,0,1-3.2-3.2v-.7A0,0,0,0,1,184.2,226.1Z"/><polygon class="ab" points="213.6 226.1 214.5 227.5 227 227.5 227.8 226.1 213.6 226.1"/><rect class="ac" x="190.1" y="188.6" width="60" height="35.61" rx="1.6"/><rect class="ad" x="190.1" y="191.2" width="60" height="33"/><path class="ae" d="M252.7,226.1h0Z"/><path class="aa" d="M182.9,168.4H113a2.2,2.2,0,0,0-2.2,2.2v49.3a2.2,2.2,0,0,0,2.2,2.2h26.8a6.8,6.8,0,0,1-3.5,8h25s-5.9-2-4.4-8h26a2.2,2.2,0,0,0,2.2-2.2V170.6A2.2,2.2,0,0,0,182.9,168.4Z"/><path class="k" d="M148.9,216.9a1.3,1.3,0,0,1-1.9,1.9c-.1,0-.1,0-.1-.1s.5-2.8,1.9-1.9Z"/><rect class="ac" x="113.9" y="171.5" width="67.6" height="40.12"/><rect class="ad" x="113.9" y="174.4" width="67.6" height="38.69"/><path class="af" d="M119.4,173a.6.6,0,0,1-.5.6.6.6,0,0,1-.6-.6.6.6,0,0,1,.6-.5A.5.5,0,0,1,119.4,173Z"/><path class="af" d="M116.1,173a.5.5,0,1,1-1,0,.5.5,0,0,1,1,0Z"/><path class="af" d="M117.7,173a.6.6,0,0,1-.5.6.6.6,0,0,1-.6-.6.6.6,0,0,1,.6-.5A.5.5,0,0,1,117.7,173Z"/><rect class="aa" x="84" y="194.6" width="24.8" height="35.58" rx="1.6"/><rect class="ad" x="84.8" y="197.1" width="23.2" height="29.72"/><path class="k" d="M97.1,227.7a1,1,0,0,1-1.4,1.4A1,1,0,0,1,97.1,227.7Z"/><rect class="k" x="92.7" y="195.6" width="7.5" height="0.39" rx="0.2"/><rect class="ae" x="251.6" y="236.1" width="6.1" height="99.9"/><rect class="ae" x="80.3" y="236.1" width="6.1" height="99.9"/><rect class="ae" x="54.6" y="230" width="237" height="6.13"/><rect class="ae" x="183.2" y="236.1" width="68.3" height="17.14"/><path class="k" d="M264.7,236.5H159.6c-58-.1-105-.3-105-.4s47-.1,105,.1Z"/><path class="k" d="M187.4,253.2c-.1,0-.2-3.8-.2-8.5s.1-8.5.2-8.5.1,3.8.1,8.5S187.5,253.2,187.4,253.2Z"/><path class="k" d="M246.8,250H217c-16.4-.1-29.8-.2-29.8-.3H217Z"/><path class="k" d="M246.8,253.2c-.1,0-.1-3.6-.1-8s0-8,.1-8,.2,3.6.2,8S246.9,253.2,246.8,253.2Z"/><path class="k" d="M251.9,269.1c-.1,0-.2-7.2-.2-16.2s.1-16.2.2-16.2.1,7.3.1,16.2S251.9,269.1,251.9,269.1Z"/><path class="k" d="M220.1,241.3a2.2,2.2,0,1,1-2.2-2.2A2.2,2.2,0,0,1,220.1,241.3Z"/><path class="ag" d="M299,188.5l.8,6.3,9.6-8.2,5.3,1.3s-5.5,11.4-9.8,15.9-6.6,5.2-8.2,5.2-3.2-2.6-3.2-2.6l-1-15.7Z"/><path class="ah" d="M299.7,194.7a4.8,4.8,0,0,0-.7,1.5,8.8,8.8,0,0,0-.2,1.7,10.1,10.1,0,0,0,.5-1.6A10.2,10.2,0,0,0,299.7,194.7Z"/><path class="ae" d="M310.3,170.6h7.3a1.8,1.8,0,0,1,1.6,2.3L312,187.1a1.6,1.6,0,0,1-1.5.9h-8.8a1.3,1.3,0,0,1-1-1.9l7-13.9A2.9,2.9,0,0,1,310.3,170.6Z"/><path class="k" d="M310.8,171.5h7.3a1.1,1.1,0,0,1,1,1.7L312,187.1a1.5,1.5,0,0,1-1.4.9h-8.8a.7.7,0,0,1-.6-1l7-13.9A2.9,2.9,0,0,1,310.8,171.5Z"/><path class="ag" d="M311.4,177.3l4.4,1.7,1,3.6-2.1,5.3-7.8,1.1,2.2-2.3-.2-2s-2.2-.7-2.3-1.1.3-1.4.6-1.5a20.8,20.8,0,0,1,2.6.8s-2.7-2.1-2.6-2.4.4-1.3.9-1.4,4.9,2,4.9,2l.7,1.6.6-2.6S310.5,179,311.4,177.3Z"/><path class="ah" d="M310.9,185.6a.6.6,0,0,0,.1-.4,2.2,2.2,0,0,0-.1-1.1,2.9,2.9,0,0,0-.6-1l-.4-.2a10.3,10.3,0,0,1,.8,1.2A6.9,6.9,0,0,1,310.9,185.6Z"/><path class="ah" d="M313,184.8a2.7,2.7,0,0,1-.2-1.1,6.9,6.9,0,0,0-.2-1.3,2.5,2.5,0,0,0-.4-.7l-.8-.4-2.7-.9-1.1-.4,1.1.5,2.7,1,.6.4.4.6a5,5,0,0,1,.2,1.2C312.7,184.4,312.9,184.9,313,184.8Z"/><path class="ah" d="M314,184a3.7,3.7,0,0,0-.1-.8c0-.5-.1-.9-.2-.9s-.1.4,0,.9S313.9,184.1,314,184Z"/><path class="ad" d="M314.1,174.1a.9.9,0,0,1-.9,1,1,1,0,0,1-1-1,1,1,0,0,1,1-.9A.9.9,0,0,1,314.1,174.1Z"/><path class="ai" d="M314,332.7l-1.7-6-11.2.6,1.7,8.8h.7c3.2,0,15.9-.2,18-1S314,332.7,314,332.7Z"/><path class="ai" d="M310.3,317l2.8-5.3-9.8-5.5-4.3,7.7.6.4c2.6,1.6,13.5,8.2,15.6,8.7S310.3,317,310.3,317Z"/><path class="aj" d="M293.2,210.8l31,43a23.1,23.1,0,0,1,2.9,21.7l-14.7,38.4-13.8-7.2,11.6-36a2.3,2.3,0,0,0-.6-2.2l-22.5-20.3-3.5-37.4Z"/><path class="ak" d="M299.8,332.8l15-2.1-13.7-60.8-9.4-59.1h-27l-1.5,17.4c.1,5.5.8,11.2,3.1,15.6l12.2,24.5C278.5,269.9,299.8,332.8,299.8,332.8Z"/><path class="al" d="M291.1,167.2a11.5,11.5,0,0,1,7.2,7.9,63.8,63.8,0,0,1,2.2,13.6l-6.4,1.5Z"/><path class="al" d="M300.5,220.4l-37.3,5.1,1.7-36.7-1.7,4.7-12.1-7.9,2.5-5.9a31.9,31.9,0,0,1,4.1-7.5,16.2,16.2,0,0,1,9-5.4l5-.8h11a72.8,72.8,0,0,1,8.5,1.1Z"/><path class="am" d="M286.6,132.6a4.4,4.4,0,0,1,5.4-.6,6.7,6.7,0,0,1,2.9,4.9c.2,1.2-.2,2.9.4,3.9a29.7,29.7,0,0,1,1.8,2.9c.5,1.4.6,4.9-1.3,6.1s-17,11-19.8,8.4"/><path class="ag" d="M286.1,167.3v-6.8s4.9-.8,5.9-7.2c.5-3.1.3-8.3.1-12.6s-2.8-8.6-7.9-8.5c0,0-11-.8-11.6,7.6l-.2,27.5a6.9,6.9,0,0,0,6.9,6.9h0A6.8,6.8,0,0,0,286.1,167.3Z"/><path class="ah" d="M286.1,160.5a15.7,15.7,0,0,1-8.5-2.3s2.1,4.4,8.4,3.8Z"/><path class="am" d="M277.2,151.4v2.3c0,2-1.5-1.3-3.3-.4s-4.7,1.4-5.8-4c-.4-1.7-2.2-1.6-2.9-3.9a6.1,6.1,0,0,1,.5-4.7,3.7,3.7,0,0,1,1.8-1.5,4.3,4.3,0,0,0,2.3-2.3,26.4,26.4,0,0,1,1.5-2.9,4.2,4.2,0,0,1,1.9-1.6l1.3-1c2.1-1.1,4.6-1.1,7-1s7.7-2.1,8,4.1a1.9,1.9,0,0,0-3.1.3,3.4,3.4,0,0,0-.5,2.6,4.2,4.2,0,0,1-.3,3.1,2.9,2.9,0,0,1-2.8,1.2,9.6,9.6,0,0,1-3-1s-.8,4-3.5,5Z"/><path class="ag" d="M289.3,194.4l-3.8-3.7a5,5,0,0,0-3.4-.7,4.2,4.2,0,0,0-2.7,1.8l-4.2,5.9-16.1,2.8,3.3-7.6.3.2-.3-.2h-.1l-10-6.5L248,197.2s-4.1,10.9,4.3,14.1S280,204,280,204h0l2.4-1.8,1.2-1a4.3,4.3,0,0,0,1.5-2.9l.4-4.1,3.3,1.7c.6.3.8,0,.9-.4A1.5,1.5,0,0,0,289.3,194.4Z"/><path class="ah" d="M285.6,194.5l-.3-.5a2.9,2.9,0,0,0-1-.8,1.2,1.2,0,0,0-1.3.3.8.8,0,0,0-.2.5l.3-.4a1.4,1.4,0,0,1,1.1-.2,2.9,2.9,0,0,1,1,.7C285.4,194.4,285.5,194.5,285.6,194.5Z"/><path class="ah" d="M282.7,196.1l.4-.2a1.5,1.5,0,0,1,1.8,0l.4.2-.3-.4a1.8,1.8,0,0,0-2,0Z"/><path class="ai" d="M148.2,184.2l9.7-1.5c.1,0,.2,0,.2.1h0v8.8H158l-10.1.2a.3.3,0,0,1-.1-.2v-7.3h.4Z"/><path class="ai" d="M139.6,185.4l7.1-1,.2.2v7.2h-7.8v-6.3h.5Z"/><path class="ai" d="M139.2,192.8h7.6a.1.1,0,0,1,.1.1v7.3h-.2l-7.5-1h-.1v-6.2Z"/><path class="ai" d="M148.3,192.8H158c.1,0,.1,0,.1.1v8.8h-.1L148,200.4h-.1v-7.4h.5Z"/><path class="an" d="M148.6,191.7v-7.5h-.7v7.3a.3.3,0,0,0,.1.2h.8C148.6,191.8,148.6,191.8,148.6,191.7Z"/><path class="an" d="M139.9,191.9v-6.4h-.7v6.3h.8Z"/><path class="ao" d="M146.9,192.7h0Z"/><path class="an" d="M139.9,199.3v-6.4h-.8v6.2h.7Z"/><path class="an" d="M148.6,200.4v-7.5h-.8v7.4h.7Z"/><path class="ai" d="M219.4,199.5l9.7-1.6.2.2h0v8.8H219v-7.4h.4Z"/><path class="ai" d="M210.8,200.7l7.1-1c.1,0,.2,0,.2.1V207h-7.8v-6.2h.5Z"/><path class="ai" d="M210.4,208h7.7v7.2l-.2.2-7.5-1h-.1v-6.3Z"/><path class="ai" d="M219.5,208h9.7c.1-.1.1,0,.1.1v8.8h-.1l-10.1-1.4h-.1v-7.4h.5Z"/><path class="an" d="M219.8,207v-7.5H219V207h.8Z"/><path class="an" d="M211.1,207.1v-6.4h-.7v6.2h.8Z"/><path class="ao" d="M218.1,208h0Z"/><path class="an" d="M211.1,214.6v-6.5h-.8v6.3h.7Z"/><path class="an" d="M219.9,215.7v-7.6H219v7.4h.8Z"/><path class="ai" d="M96,207.8l4.5-.7h.1v4c0,.1,0,.1-.1.1H95.8v-3.4H96Z"/><path class="ai" d="M92,208.4l3.3-.5h.1v3.3H91.8v-2.8H92Z"/><path class="ai" d="M91.8,211.8h3.6v3.4h0l-3.6-.4h0v-2.9Z"/><path class="ai" d="M96,211.8h4.5a.1.1,0,0,1,.1.1v4h0l-4.7-.6h-.1v-3.5H96Z"/><path class="an" d="M96.2,211.3v-3.5h-.3v3.4h.4Z"/><path class="an" d="M92.1,211.4v-3h-.3v2.8h.3Z"/><path class="ao" d="M95.4,211.8h0Z"/><path class="an" d="M92.1,214.8v-3h-.3v2.9h.3Z"/><path class="an" d="M96.2,215.3v-3.5h-.4v3.5h.4Z"/></svg>