<svg xmlns="http://www.w3.org/2000/svg" xmlns:xlink="http://www.w3.org/1999/xlink" viewBox="0 0 400 400"><defs><style>.a{isolation:isolate;}.b{fill:url(#a);}.c{fill:#d1ebff;}.d{fill-rule:evenodd;opacity:0.61;fill:url(#b);}.e,.o,.q{fill:#37b5e8;}.e{opacity:0.2;}.f{fill:#27debf;}.g{fill:url(#c);}.h,.t,.v{fill:#fff;}.i{fill:url(#d);}.j{fill:#0e71bb;}.k{fill:#2793d6;}.l{fill:#56bbed;}.m{fill:#fafafa;}.n{fill:#005284;}.o{opacity:0.3;}.p{fill:#455a64;}.af,.aj,.q{opacity:0.5;}.r{fill:#21e2e2;}.s{fill:#f5f5f5;}.t,.u{opacity:0.6;}.v{opacity:0.8;}.w{fill:#ffe7cb;}.x{fill:#f59b6b;}.y{fill:#263238;}.z{fill:url(#e);}.aa{fill:#1f364c;}.ab{fill:#152735;}.ac{fill:url(#f);}.ad{fill:#2b454e;}.ae{opacity:0.25;}.ae,.af{mix-blend-mode:overlay;}.ag{fill:#ebebeb;}.ah{fill:#e0e0e0;}.ai{fill:#e6e6e6;}.aj{mix-blend-mode:multiply;}.ak{fill:#b2d3ea;}.al{fill:#0050af;}.am{fill:#197bdd;}.an{fill:#d4ecff;}.ao{fill:#4ea4f9;}</style><linearGradient id="a" x1="1.22" y1="400.31" x2="1.22" y2="400.88" gradientTransform="matrix(740.56, 0, 0, -612.51, -676.44, 245617.49)" gradientUnits="userSpaceOnUse"><stop offset="0" stop-color="#c6e6ff"/><stop offset="1" stop-color="#fff"/></linearGradient><linearGradient id="b" x1="12.77" y1="120.94" x2="234.89" y2="120.94" gradientUnits="userSpaceOnUse"><stop offset="0" stop-color="#288ed9"/><stop offset="1" stop-color="#137fcf" stop-opacity="0.05"/></linearGradient><linearGradient id="c" x1="324.86" y1="229.33" x2="363.53" y2="229.33" gradientUnits="userSpaceOnUse"><stop offset="0" stop-color="#44989f"/><stop offset="0.21" stop-color="#39b0b4"/><stop offset="0.52" stop-color="#2ccbcd"/><stop offset="0.8" stop-color="#24dcdd"/><stop offset="1" stop-color="#21e2e2"/></linearGradient><linearGradient id="d" x1="336.59" y1="243.93" x2="375.11" y2="243.93" gradientUnits="userSpaceOnUse"><stop offset="0" stop-color="#ffbc98"/><stop offset="1" stop-color="#ff9f6c"/></linearGradient><linearGradient id="e" x1="281.03" y1="346" x2="298.27" y2="346" gradientUnits="userSpaceOnUse"><stop offset="0" stop-color="#030947"/><stop offset="0.16" stop-color="#020637"/><stop offset="0.39" stop-color="#010327"/><stop offset="0.65" stop-color="#00011d"/><stop offset="1" stop-color="#00001a"/></linearGradient><linearGradient id="f" x1="294.01" y1="338.39" x2="311.25" y2="338.39" xlink:href="#e"/></defs><title>foreign dedicatedservers</title><g class="a"><path class="b" d="M228.8,124.6c54.6,34.9,117.1,50.6,117.1,50.6s68.8,10.4,43.5,88.8-28.6,106.5-68.3,108.5c-37.6,1-58.8-14.5-96-11.8-32.7,2.5-55.3,17.2-109.9-4.3C27.6,317.7,34.1,1.8,228.8,124.6Z"/><circle class="c" cx="123.8" cy="122.5" r="111.1" transform="translate(-50.3 123.4) rotate(-45)"/><path class="d" d="M123.8,11.4a108.9,108.9,0,0,1,30.9,4.4,20.7,20.7,0,0,0-.8,9.7c1.7,11.6-4.4,22.9-17.9,19.1s-10.2,12.1-31.2,9.9C87.1,52.7,68.2,43.1,68.3,26.3a110.2,110.2,0,0,1,55.5-14.9Zm49.6,11.7c5.4,12.4,9.5,31.8-10.3,42.2-30.7,16-54.2,15.5-50.9,35.6s2,23.8-1.6,28.2,2,11.8,13.1,8.6c0,0,2.5-1.8,3,.5s-6.6,10.4.2,18.7,19.3,3.6,25.9-.8,20.8,6,23.7,14.7.8,17.6,14.6,17.3,8.7-19.6,8.6-28.7,1.1-27.9,14.1-27.4,8.9-5.6,15-7.6a11.6,11.6,0,0,1,6.1-.2v-1.7a111,111,0,0,0-61.5-99.4Zm-7.2,166.2s3.8-4.5,7.6-2.4,4.9,8.9,2,10.5-12.4-4.4-9.6-8.1ZM97.7,230.5c11.2-13.5-.5-26.8-7.3-33.1S102,162.5,79.6,162s-34.5-16-17.4-18,10.5-11.6,12.2-19.3,7.4-.8,18.5-4.7S87.6,92.6,76.6,93.2s-7.7,16.9-14.1,14.6-8-16,1.1-18.7,9.9-10.5,6.9-17.2S52,71.9,48.7,60.6c-1.7-5.7-6-8.3-10-9.5a110.6,110.6,0,0,0-25.9,71.4c0,2.4.1,4.8.2,7.1,15.2,10.2,30.6,32.9,28.5,44.8-2.8,15.8,11.6,24.1,18,28.8,3.3,2.4,4.5,8.2,4.9,13.1A110.9,110.9,0,0,0,97.7,230.5Z"/><path class="e" d="M350.4,276.5,254.1,221a1.2,1.2,0,0,0-1.4,0L145.1,283.1l-29.3-16.7a1.4,1.4,0,0,0-1.5,0L61.5,296.8a.4.4,0,0,0,0,.8l37.3,21.6,13.5-7.8,88.9,51.3a1.7,1.7,0,0,0,1.4,0l147.8-85.4A.4.4,0,0,0,350.4,276.5Z"/><ellipse class="e" cx="295.9" cy="345.6" rx="24.6" ry="14.2"/><path class="f" d="M337,268.1l-11.9-6.3s-.9-18.1.6-32.5c1.9-20.1,16.9-43.5,32.5-37.8S351,217.7,346,234.8,337,268.1,337,268.1Z"/><path class="g" d="M337,268.1l-11.9-6.3s-.9-18.1.6-32.5c1.9-20.1,16.9-43.5,32.5-37.8S351,217.7,346,234.8,337,268.1,337,268.1Z"/><path class="h" d="M331.2,266h0a.6.6,0,0,0,.5-.6c-1.5-44.8,20.8-67.3,21-67.5a.6.6,0,0,0,0-.8.5.5,0,0,0-.7,0c-.2.2-22.9,23.1-21.3,68.4A.5.5,0,0,0,331.2,266Z"/><path class="i" d="M343.1,271.6l-6.2-3.5a69.7,69.7,0,0,1,3.8-29.9c5.7-15.5,20.5-23.9,27.3-21.6,8.3,2.8,8.3,10.7,5.3,15.9S347.5,254.2,343.1,271.6Z"/><path class="h" d="M339.8,270.3h0a.5.5,0,0,0,.5-.5c-.1-28.4,26.5-47.5,26.8-47.7a.5.5,0,0,0,.1-.7c-.1-.3-.5-.3-.7-.2s-27.3,19.7-27.2,48.6A.5.5,0,0,0,339.8,270.3Z"/><path class="j" d="M256.1,235.4s-1.9.1-2.1-2.7C253,234.2,254.2,236.2,256.1,235.4Z"/><path class="f" d="M120.5,306.1a7.5,7.5,0,0,0,3.5,5.8l77.1,44.5a7.8,7.8,0,0,0,7,0l135.6-78.3a6.6,6.6,0,0,0,0-11.7l-77-44.5a8,8,0,0,0-7.1,0L124,300.2A7.6,7.6,0,0,0,120.5,306.1Z"/><path class="k" d="M347.3,272.2a7.4,7.4,0,0,1-3.6,5.9L208.1,356.4a6.7,6.7,0,0,1-3.5.8v-7.6a6.8,6.8,0,0,0,3.5-.9l135.6-78.2c1.7-1,2-2.6.7-3.7A7.9,7.9,0,0,1,347.3,272.2Z"/><path class="l" d="M124,304.3l77.1,44.4a7.3,7.3,0,0,0,7,0l135.6-78.2c2-1.2,2-3,0-4.1l-77-44.5a8,8,0,0,0-7.1,0L124,300.2C122.1,301.3,122.1,303.1,124,304.3Z"/><path class="j" d="M204.6,349.6v7.6a6.5,6.5,0,0,1-3.5-.8L124,311.9a7.5,7.5,0,0,1-3.5-5.8,7.6,7.6,0,0,1,3.2-5.7c-1.6,1.2-1.5,2.8.3,3.9l77.1,44.4A6.5,6.5,0,0,0,204.6,349.6Z"/><path class="f" d="M117.2,300.3c-1.8-1-1.7-2.8-1.7-5.1V188.8a7.7,7.7,0,0,1,3.5-6.1l135.6-78.3a7.6,7.6,0,0,1,6.9-.1c1.8,1.1,1.7,2.9,1.7,5.1V215.8a7.8,7.8,0,0,1-3.6,6.1L124,300.2A7.4,7.4,0,0,1,117.2,300.3Z"/><path class="l" d="M263.2,109.4c0-2.2-1.6-3.2-3.6-2L124,185.7a7.8,7.8,0,0,0-2.5,2.6l-5-2.9h0a7.2,7.2,0,0,1,2.5-2.7l135.6-78.3a7.4,7.4,0,0,1,6.8-.1C263.3,105.4,263.2,107.2,263.2,109.4Z"/><path class="k" d="M120.5,191.8V298.1c0,2.3,1.6,3.2,3.5,2.1l135.6-78.3a7.8,7.8,0,0,0,3.6-6.1V109.4c0-2.2-1.6-3.2-3.6-2L124,185.7A7.8,7.8,0,0,0,120.5,191.8Z"/><path class="j" d="M123.6,300.4a7.5,7.5,0,0,1-6.4-.1c-1.8-1-1.7-2.8-1.7-5.1V188.8a7.4,7.4,0,0,1,1-3.4l5,2.9h0a7.4,7.4,0,0,0-1,3.5V298.1C120.5,300.2,121.9,301.2,123.6,300.4Z"/><path class="m" d="M125.9,189.7l130.8-75.4c1.2-.7,2.1-.2,2.1,1.2v92.8a4.6,4.6,0,0,1-2.1,3.7L125.9,287.5c-1.1.7-2.1.1-2.1-1.2V193.4A5.1,5.1,0,0,1,125.9,189.7Z"/><path class="l" d="M133.8,300.4l125.9-72.7a4.3,4.3,0,0,1,3.5,0l2.1,1.2a1,1,0,0,1,0,2L139.4,303.6a4.3,4.3,0,0,1-3.5,0l-2.1-1.2C132.9,301.9,132.9,301,133.8,300.4Z"/><path class="j" d="M143.7,306.3l125.9-72.7a3.6,3.6,0,0,1,3.2-.2l32.8,18.9c.8.5.6,1.3-.3,1.9L179.5,326.8a4,4,0,0,1-3.2.2l-32.9-18.9C142.6,307.7,142.7,306.8,143.7,306.3Z"/><path class="f" d="M252.8,264.1l3.9-2.3q.3-.2,0-.3l-3.7-2.2h-.6l-3.9,2.2a.2.2,0,0,0-.1.4l3.8,2.1Zm-5.8-7.9-3.9,2.3a.2.2,0,0,0-.1.4l3.8,2.1a.6.6,0,0,0,.6,0l3.9-2.3c.2-.1.2-.2.1-.3l-3.8-2.2Zm-12.7,7.4-6.7,3.8a.2.2,0,0,0,0,.4l3.8,2.2h.5l6.7-3.8c.2-.1.2-.3,0-.3l-3.7-2.2A.6.6,0,0,0,234.3,263.6Zm7-4-4,2.2a.2.2,0,0,0,0,.4l3.8,2.2h.5l4-2.2a.3.3,0,0,0,0-.4l-3.8-2.1A.5.5,0,0,0,241.3,259.6Zm-15.5,8.9-3.9,2.3c-.2.1-.2.2-.1.3l3.8,2.2h.6l3.9-2.3c.2-.1.2-.3,0-.3l-3.7-2.2A.6.6,0,0,0,225.8,268.5Zm-5.8,3.3-3.9,2.3q-.3.1,0,.3l3.7,2.2h.6l3.9-2.3c.2-.1.2-.2.1-.3l-3.8-2.2A.6.6,0,0,0,220,271.8Zm14.8,8.9,4-2.3a.2.2,0,0,0,0-.3l-3.8-2.2h-.6l-3.9,2.3c-.2.1-.2.3,0,.3l3.7,2.2A.6.6,0,0,0,234.8,280.7Zm-5.7,3.3,3.9-2.2a.2.2,0,0,0,0-.4l-3.7-2.2h-.6l-4,2.2a.3.3,0,0,0,0,.4l3.8,2.1A.6.6,0,0,0,229.1,284Zm-5.8,3.4,3.9-2.3a.2.2,0,0,0,.1-.4l-3.8-2.1a.6.6,0,0,0-.6,0l-3.9,2.3q-.3.2,0,.3l3.7,2.2A.6.6,0,0,0,223.3,287.4Zm-5.8,3.3,4-2.3c.1-.1.2-.2,0-.3l-3.8-2.2h-.5l-4,2.3c-.1.1-.2.2,0,.3l3.8,2.2A.5.5,0,0,0,217.5,290.7ZM247,267.4l4-2.2a.3.3,0,0,0,0-.4l-3.8-2.1h-.6l-3.9,2.3q-.3.2,0,.3l3.7,2.2Zm-6.4,10,8.8-5.1a.2.2,0,0,0,0-.3l-9.2-5.3h-.5l-4.6,2.6c-.1.1-.2.3,0,.4l4.8,2.8c.2,0,.2.2,0,.3l-3.6,2.1c-.2.1-.2.2-.1.3l3.8,2.2A.6.6,0,0,0,240.6,277.4Zm-26.3-2.3-4,2.3a.3.3,0,0,0,0,.4l3.8,2.1a.5.5,0,0,0,.5,0l4-2.3q.3-.2,0-.3l-3.8-2.2C214.7,275,214.4,275.1,214.3,275.1Zm-5.8,3.4-3.9,2.2a.2.2,0,0,0-.1.4l3.8,2.2h.6l3.9-2.2a.2.2,0,0,0,.1-.4l-3.8-2.1A.6.6,0,0,0,208.5,278.5ZM176.6,314a.6.6,0,0,0,.6,0l4-2.3c.1-.1.1-.3,0-.3l-3.8-2.2h-.6l-3.9,2.3q-.3.2,0,.3Zm-14.2-8.9-3.9,2.3c-.2,0-.2.2,0,.3l3.7,2.2h.6l3.9-2.2a.2.2,0,0,0,.1-.4l-3.8-2.1A.6.6,0,0,0,162.4,305.1Zm7.3,6.6a.6.6,0,0,0,.6,0l4-2.3c.1,0,.1-.2,0-.3l-3.8-2.2h-.6l-3.9,2.2a.2.2,0,0,0,0,.4Zm15.9,3.6,4-2.3c.1-.1.2-.2,0-.3l-3.8-2.2c-.1-.1-.4,0-.5.1l-4,2.2c-.1.1-.2.3,0,.4l3.8,2.1Zm-6.3,3.4h.6l3.9-2.2a.2.2,0,0,0,.1-.4l-3.8-2.1h-.6l-3.9,2.3c-.2.1-.2.2-.1.3Zm-11.1-16.9-3.9,2.2a.2.2,0,0,0-.1.4l3.8,2.1a.6.6,0,0,0,.6,0l3.9-2.3q.3-.1,0-.3l-3.7-2.2A.7.7,0,0,0,168.2,301.8ZM197,285.1l-3.9,2.3c-.2.1-.2.2-.1.3l3.8,2.2a.6.6,0,0,0,.6,0l3.9-2.3q.3-.2,0-.3l-3.7-2.2A.6.6,0,0,0,197,285.1Zm-23,13.3-4,2.3c-.1.1-.2.2,0,.3l3.8,2.2a.5.5,0,0,0,.5,0l4-2.3c.1-.1.2-.2,0-.3l-3.8-2.2Zm28.8-16.6-4,2.3q-.3.1,0,.3l3.8,2.2h.5l4-2.3c.1-.1.1-.3,0-.3l-3.8-2.2A.5.5,0,0,0,202.8,281.8Zm-11.6,6.6-3.9,2.3a.2.2,0,0,0,0,.4l3.7,2.1a.6.6,0,0,0,.6,0l3.9-2.3c.2-.1.2-.2.1-.3l-3.8-2.2Zm-5.7,3.4-4,2.3c-.1,0-.1.2,0,.3l3.8,2.2h.5l4-2.2a.2.2,0,0,0,0-.4l-3.7-2.1A.6.6,0,0,0,185.5,291.8Zm-5.8,3.3-3.9,2.3c-.2.1-.2.2-.1.3l3.8,2.2a.6.6,0,0,0,.6,0l3.9-2.3c.2-.1.2-.3.1-.3l-3.8-2.2A.6.6,0,0,0,179.7,295.1Zm26.3,2.2,4-2.2a.3.3,0,0,0,0-.4l-3.8-2.2h-.6l-3.9,2.2a.2.2,0,0,0,0,.4l3.7,2.2Zm53.7-48.4-3.9,2.3q-.3.2,0,.3l3.7,2.2a.6.6,0,0,0,.6,0l4-2.3c.1-.1.1-.3,0-.3l-3.8-2.2Zm-6.9,4-4,2.3a.2.2,0,0,0,0,.3l3.8,2.2a.5.5,0,0,0,.5,0l4-2.3q.3-.2,0-.3l-3.8-2.2Zm12.7-7.3-3.9,2.2a.2.2,0,0,0-.1.4l3.8,2.2h.6l3.9-2.2a.2.2,0,0,0,.1-.4l-3.8-2.1Zm-31.8,29.5,3.9-2.2a.2.2,0,0,0,0-.4l-3.7-2.1h-.6l-3.9,2.3c-.2.1-.2.2-.1.3l3.8,2.2C233.2,275.3,233.5,275.2,233.7,275.1Zm38.1-32.9h-.5l-4,2.3c-.1.1-.2.3,0,.4l3.8,2.1h.5l4-2.3c.1-.1.2-.2,0-.3Zm-60,51.8,3.9-2.3c.2-.1.2-.2.1-.3l-3.8-2.2h-.6l-3.9,2.3c-.2.1-.2.3-.1.3l3.8,2.2A.6.6,0,0,0,211.8,294Zm70.6-40.8,3.9-2.2a.2.2,0,0,0,.1-.4l-3.8-2.2H282l-3.9,2.2a.2.2,0,0,0,0,.4l3.7,2.1A.6.6,0,0,0,282.4,253.2Zm-11.1.2,3.9-2.2a.2.2,0,0,0,0-.4l-3.7-2.1h-.6L267,251c-.2.1-.2.2-.1.3l3.8,2.2Zm5.9-8.1c-.1-.1-.4,0-.5.1l-4,2.2a.2.2,0,0,0,0,.4l3.7,2.1h.6l4-2.3a.2.2,0,0,0,0-.3Zm1.2-.7,9.2,5.3h.6l3.9-2.3q.3-.2,0-.3L283,242h-.6l-3.9,2.3C278.3,244.4,278.3,244.5,278.4,244.6ZM265.1,252l-3.9,2.3q-.3.1,0,.3l3.7,2.2h.6l3.9-2.3c.2-.1.2-.3.1-.3l-3.8-2.2Zm-43.3,25-4,2.3c-.1.1-.1.3,0,.3l3.8,2.2h.6l3.9-2.3q.3-.2,0-.3l-3.7-2.2A.6.6,0,0,0,221.8,277Zm54.3-20.4h.5l4-2.3a.2.2,0,0,0,0-.4l-3.7-2.1a.6.6,0,0,0-.6,0l-4,2.3a.2.2,0,0,0,0,.3Zm-48.6,17.1-3.9,2.3q-.3.2,0,.3l3.7,2.2a.6.6,0,0,0,.6,0l4-2.3a.2.2,0,0,0,0-.3l-3.8-2.2Zm-45.1,37h.6l3.9-2.2a.2.2,0,0,0,.1-.4l-3.8-2.1h-.6l-3.9,2.2a.2.2,0,0,0-.1.4Zm-6.7-7.1-3.9,2.3c-.2.1-.2.3-.1.3l3.8,2.2a.6.6,0,0,0,.6,0l3.9-2.3c.2-.1.2-.2.1-.3l-3.8-2.2A.6.6,0,0,0,175.7,303.6Zm13,3.7,4-2.3c.1-.1.2-.2,0-.3l-3.8-2.2a.5.5,0,0,0-.5,0l-4,2.3c-.1.1-.2.3,0,.4l3.8,2.1Zm5.8-3.3,3.9-2.3c.2-.1.2-.2.1-.3l-3.8-2.2h-.6l-3.9,2.3q-.3.2,0,.3l3.7,2.2A.6.6,0,0,0,194.5,304Zm5.8-3.3,3.9-2.3c.2-.1.2-.3,0-.3l-3.7-2.2h-.6l-4,2.3a.2.2,0,0,0,0,.3l3.8,2.2A.6.6,0,0,0,200.3,300.7Zm-18.8-.4-4,2.3c-.1.1-.2.2,0,.3l3.8,2.2h.5l4-2.3c.1-.1.2-.2,0-.3l-3.8-2.2A.5.5,0,0,0,181.5,300.3Zm5.7-3.3-3.9,2.3q-.3.1,0,.3l3.7,2.2a.7.7,0,0,0,.6-.1l3.9-2.2a.2.2,0,0,0,.1-.4l-3.8-2.1A.6.6,0,0,0,187.2,297Zm23.1-13.3-4,2.3c-.1.1-.2.2,0,.3l3.8,2.2c.1.1.4,0,.5-.1l4-2.2c.1-.1.2-.3,0-.4l-3.8-2.1Zm-5.8,3.3-3.9,2.3c-.2.1-.2.2-.1.3l3.8,2.2h.6l3.9-2.3q.3-.2,0-.3l-3.7-2.2A.6.6,0,0,0,204.5,287Zm11.5-6.6-3.9,2.2a.2.2,0,0,0,0,.4l3.7,2.1h.6l3.9-2.3c.2-.1.2-.2.1-.3l-3.8-2.2Zm-23,13.3-4,2.2a.3.3,0,0,0,0,.4l3.8,2.1a.6.6,0,0,0,.6,0l3.9-2.3c.2,0,.2-.2,0-.3l-3.7-2.2Zm5.7-3.4-3.9,2.3c-.2.1-.2.3,0,.3l3.7,2.2h.6l4-2.3a.2.2,0,0,0,0-.3l-3.8-2.2A.6.6,0,0,0,198.7,290.3ZM191.4,312l3.9-2.3c.2-.1.2-.2.1-.3l-3.8-2.2H191l-3.9,2.3q-.3.2,0,.3l3.7,2.2A.6.6,0,0,0,191.4,312ZM161,310.6l-3.7-2.2h-.6l-4,2.3a.2.2,0,0,0,0,.3l3.8,2.2a.5.5,0,0,0,.5,0l4-2.3C161.2,310.8,161.2,310.6,161,310.6Zm7.5,1.8-3.7-2.1a.6.6,0,0,0-.6,0l-6.1,3.5c-.1.1-.2.2,0,.3l3.8,2.2h.5l6.1-3.5A.2.2,0,0,0,168.5,312.4Zm-13.1-6.1-3.8-2.2a.5.5,0,0,0-.5,0l-4.9,2.8q-.3.2,0,.3l3.7,2.2a.6.6,0,0,0,.6,0l4.9-2.8C155.5,306.5,155.5,306.3,155.4,306.3Zm3.7-2.2h.6l3.9-2.3c.2-.1.2-.2.1-.3l-3.8-2.2a.6.6,0,0,0-.6,0l-3.9,2.3c-.2.1-.2.3-.1.3Zm16.3,10.6-3.7-2.2a.6.6,0,0,0-.6,0l-7.6,4.4q-.3.2,0,.3l3.7,2.2a.6.6,0,0,0,.6,0l7.6-4.4Q175.7,314.8,175.4,314.7Zm2.7,4.7-3.8-2.2h-.6l-4.8,2.8c-.2.1-.2.3,0,.3l3.7,2.2a.6.6,0,0,0,.6,0l4.9-2.8C178.2,319.6,178.2,319.4,178.1,319.4Zm23.8-40a.6.6,0,0,0,.6,0l4-2.3c.1-.1.1-.3,0-.3l-3.8-2.2a.6.6,0,0,0-.6,0l-3.9,2.3q-.3.2,0,.3ZM190.4,286a.6.6,0,0,0,.6,0l3.9-2.3c.2-.1.2-.2.1-.3l-3.8-2.2h-.6l-3.9,2.2a.2.2,0,0,0-.1.4Zm-25.5,14.8h.5l4-2.3c.2-.1.2-.3,0-.3l-3.7-2.2a.6.6,0,0,0-.6,0l-4,2.3a.2.2,0,0,0,0,.3Zm31.3-18.1a.6.6,0,0,0,.6,0l3.9-2.3q.3-.1,0-.3l-3.7-2.2h-.6l-4,2.3c-.1.1-.1.3,0,.3Zm-11.5,6.7c.1.1.4,0,.5-.1l4-2.2c.1-.1.2-.3,0-.4l-3.8-2.1a.5.5,0,0,0-.5,0l-4,2.3c-.1.1-.2.2,0,.3Zm-3.8,30.2a.6.6,0,0,0-.6,0l-6,3.5c-.2.1-.2.3-.1.3l3.8,2.2h.6l6.1-3.5a.2.2,0,0,0,0-.3Zm-4.5-25.5h.6l3.9-2.3q.3-.2,0-.3l-3.7-2.2a.7.7,0,0,0-.6.1l-3.9,2.2a.2.2,0,0,0-.1.4Zm-5.8,3.4h.6l3.9-2.2a.2.2,0,0,0,.1-.4l-3.8-2.1h-.6l-3.9,2.3q-.3.2,0,.3Zm117-39.5a.5.5,0,0,0-.5,0l-9.7,5.6c-.2.1-.2.3-.1.3l3.8,2.2h.6l9.7-5.6a.2.2,0,0,0,0-.3Zm-12.7,7.3h-.6l-3.9,2.2a.2.2,0,0,0-.1.4l3.8,2.1h.6l3.9-2.3c.2,0,.2-.2.1-.3Zm-77.7,43.4,3.9-2.3c.2-.1.2-.3,0-.3l-3.7-2.2h-.6l-4,2.3a.2.2,0,0,0,0,.3l3.8,2.2A.6.6,0,0,0,197.2,308.7ZM263.4,272a.6.6,0,0,0-.6,0l-3.9,2.3c-.2.1-.2.2-.1.3l3.8,2.2h.6l3.9-2.3q.3-.2,0-.3Zm30-17.3h-.6l-3.9,2.3c-.2.1-.2.2-.1.3l3.8,2.2a.7.7,0,0,0,.6-.1l3.9-2.2a.2.2,0,0,0,.1-.4Zm9.5-1.2-9.1-5.3h-.6l-4,2.3a.3.3,0,0,0,0,.4l9.2,5.2h.5l4-2.3C303,253.7,303.1,253.6,302.9,253.5Zm-61.1,30.9h-.5l-4.9,2.8c-.1.1-.2.3,0,.4l3.8,2.1a.5.5,0,0,0,.5,0l4.9-2.8q.3-.1,0-.3Zm14.6-8.4a.6.6,0,0,0-.6,0l-6,3.5a.2.2,0,0,0-.1.4l3.8,2.1a.6.6,0,0,0,.6,0l6-3.5c.2-.1.2-.2.1-.3Zm-27.9,16.1a.6.6,0,0,0-.6,0l-32.4,18.8q-.3.2,0,.3l3.7,2.2c.2.1.4,0,.6,0l32.4-18.8c.2-.1.2-.2.1-.3Zm-34.2,19.8h-.6l-4.9,2.8c-.1.1-.1.3,0,.3l3.8,2.2a.5.5,0,0,0,.5,0l4.9-2.8q.3-.1,0-.3Zm40.9-23.6a.6.6,0,0,0-.6,0l-4.8,2.8c-.2.1-.2.2-.1.3l3.8,2.2h.6l4.8-2.8a.2.2,0,0,0,.1-.4Zm-47.6,27.4H187l-4.8,2.8c-.2.1-.2.2-.1.3l3.8,2.2h.6l4.8-2.8a.2.2,0,0,0,.1-.4Zm60.9-35.1a.6.6,0,0,0-.6,0l-4.8,2.8q-.3.2,0,.3l3.7,2.2a.6.6,0,0,0,.6,0l4.9-2.8a.3.3,0,0,0,0-.4Zm20.6-11.9h-.5l-4,2.3c-.1.1-.2.2,0,.3l3.8,2.2c.1.1.4,0,.5-.1l4-2.2c.1-.1.2-.3,0-.4Zm12.9-9,4-2.3c.1-.1.2-.3,0-.3l-3.8-2.2h-.5l-4,2.3c-.1.1-.2.2,0,.3l3.8,2.2A.5.5,0,0,0,282,259.7Zm-23.5,1.1,4-2.3c.1-.1.2-.2,0-.3l-3.8-2.2h-.5l-4,2.3c-.1.1-.2.3,0,.3l3.8,2.2Zm-15.3,21.3,11.6-6.7a.2.2,0,0,0,0-.3l-3.8-2.2h-.6l-11.5,6.7c-.1.1-.2.2,0,.3l3.8,2.2ZM275.7,263a.6.6,0,0,0,.6,0l3.9-2.3q.3-.1,0-.3l-3.7-2.2h-.6l-3.9,2.3c-.2.1-.2.2-.1.3Zm-4.8-3.1,3.9-2.3c.2-.1.2-.2.1-.3l-3.8-2.2h-.6l-3.9,2.3c-.2.1-.2.2-.1.3l3.8,2.2A.6.6,0,0,0,270.9,259.9Zm-33.4,25.5,3.9-2.3q.3-.2,0-.3l-3.7-2.2a.6.6,0,0,0-.6,0l-3.9,2.3c-.2.1-.2.2-.1.3l3.8,2.2A.6.6,0,0,0,237.5,285.4Zm25.5-15h.5l4-2.2a.2.2,0,0,0,0-.4l-3.8-2.1a.5.5,0,0,0-.5,0l-4,2.2a.3.3,0,0,0,0,.4ZM208.7,302l3.9-2.3q.3-.1,0-.3l-3.7-2.2a.7.7,0,0,0-.6.1l-3.9,2.2a.2.2,0,0,0-.1.4l3.8,2.1A.6.6,0,0,0,208.7,302Zm5.7-3.3,4-2.3c.1-.1.2-.2,0-.3l-3.8-2.2h-.5l-4,2.3c-.1.1-.2.2,0,.3l3.8,2.2A.5.5,0,0,0,214.4,298.7Zm-11.5,6.6,4-2.2a.3.3,0,0,0,0-.4l-3.8-2.1a.6.6,0,0,0-.6,0l-3.9,2.3q-.3.2,0,.3l3.7,2.2ZM226,292l3.9-2.2a.2.2,0,0,0,0-.4l-3.7-2.1a.6.6,0,0,0-.6,0l-4,2.3c-.1,0-.1.2,0,.3l3.8,2.2Zm-5.8,3.4,3.9-2.3c.2-.1.2-.3.1-.3l-3.8-2.2a.6.6,0,0,0-.6,0l-3.9,2.3q-.3.2,0,.3l3.7,2.2A.6.6,0,0,0,220.2,295.4Zm11.5-6.7,4-2.3a.2.2,0,0,0,0-.3l-3.8-2.2c-.1-.1-.4,0-.6.1l-3.9,2.2a.2.2,0,0,0,0,.4l3.7,2.1A.6.6,0,0,0,231.7,288.7Zm31.4-46.2h.6l4-2.2a.3.3,0,0,0,0-.4l-1-.6h-.6l-3.9,2.2a.2.2,0,0,0-.1.4Zm-28.6,18.1h.6l3.9-2.3c.2-.1.2-.3.1-.3l-3.8-2.2a.6.6,0,0,0-.6,0l-3.9,2.3c-.2.1-.2.2-.1.3Zm11.5-6.7h.6l3.9-2.3c.2-.1.2-.2.1-.3l-3.8-2.2h-.6l-3.9,2.3a.2.2,0,0,0,0,.4Zm-18.5,10.7h.6l3.9-2.3q.3-.2,0-.3l-3.7-2.2h-.6l-4,2.2a.3.3,0,0,0,0,.4Zm12.8-7.3h.5l4-2.2a.2.2,0,0,0,0-.4l-3.7-2.1h-.6l-4,2.2a.3.3,0,0,0,0,.4Zm-24.3,14h.5l4-2.3c.1-.1.2-.2,0-.3l-3.8-2.2a.5.5,0,0,0-.5,0l-4,2.3c-.1.1-.2.2,0,.3Zm5.7-3.3a.7.7,0,0,0,.6-.1l3.9-2.2a.2.2,0,0,0,.1-.4l-3.8-2.1h-.6l-3.9,2.3q-.3.2,0,.3Zm29.9-18.9h.6l3.9-2.3c.2-.1.2-.2.1-.3l-1-.6h-.6l-3.9,2.3c-.2.1-.2.2-.1.3Zm17.3-10h.6l3.9-2.3q.3-.2,0-.3l-1-.6h-.5l-4,2.3c-.1.1-.1.3,0,.3Zm7.9,4.6a.6.6,0,0,0,.6,0l3.9-2.3c.2-.1.2-.2.1-.3l-3.8-2.2H277l-3.9,2.3q-.3.2,0,.3Zm11,12.6,3.9-2.2a.2.2,0,0,0,.1-.4l-3.8-2.1h-.6l-3.9,2.2a.2.2,0,0,0,0,.4l3.7,2.2Zm-30.4-10.5h.6l3.9-2.3c.2-.1.2-.3,0-.3l-1-.6h-.5l-4,2.3q-.3.2,0,.3Zm-47.2,28.8h.6l3.9-2.3c.2-.1.2-.2.1-.3l-3.8-2.2a.6.6,0,0,0-.6,0l-3.9,2.3c-.2.1-.2.3-.1.3Z"/><path class="n" d="M252.8,264.1l3.9-2.3q.3-.2,0-.3l-3.7-2.2h-.6l-3.9,2.2a.2.2,0,0,0-.1.4l3.8,2.1Zm-5.8-7.9-3.9,2.3a.2.2,0,0,0-.1.4l3.8,2.1a.6.6,0,0,0,.6,0l3.9-2.3c.2-.1.2-.2.1-.3l-3.8-2.2Zm-12.7,7.4-6.7,3.8a.2.2,0,0,0,0,.4l3.8,2.2h.5l6.7-3.8c.2-.1.2-.3,0-.3l-3.7-2.2A.6.6,0,0,0,234.3,263.6Zm7-4-4,2.2a.2.2,0,0,0,0,.4l3.8,2.2h.5l4-2.2a.3.3,0,0,0,0-.4l-3.8-2.1A.5.5,0,0,0,241.3,259.6Zm-15.5,8.9-3.9,2.3c-.2.1-.2.2-.1.3l3.8,2.2h.6l3.9-2.3c.2-.1.2-.3,0-.3l-3.7-2.2A.6.6,0,0,0,225.8,268.5Zm-5.8,3.3-3.9,2.3q-.3.1,0,.3l3.7,2.2h.6l3.9-2.3c.2-.1.2-.2.1-.3l-3.8-2.2A.6.6,0,0,0,220,271.8Zm14.8,8.9,4-2.3a.2.2,0,0,0,0-.3l-3.8-2.2h-.6l-3.9,2.3c-.2.1-.2.3,0,.3l3.7,2.2A.6.6,0,0,0,234.8,280.7Zm-5.7,3.3,3.9-2.2a.2.2,0,0,0,0-.4l-3.7-2.2h-.6l-4,2.2a.3.3,0,0,0,0,.4l3.8,2.1A.6.6,0,0,0,229.1,284Zm-5.8,3.4,3.9-2.3a.2.2,0,0,0,.1-.4l-3.8-2.1a.6.6,0,0,0-.6,0l-3.9,2.3q-.3.2,0,.3l3.7,2.2A.6.6,0,0,0,223.3,287.4Zm-5.8,3.3,4-2.3c.1-.1.2-.2,0-.3l-3.8-2.2h-.5l-4,2.3c-.1.1-.2.2,0,.3l3.8,2.2A.5.5,0,0,0,217.5,290.7ZM247,267.4l4-2.2a.3.3,0,0,0,0-.4l-3.8-2.1h-.6l-3.9,2.3q-.3.2,0,.3l3.7,2.2Zm-6.4,10,8.8-5.1a.2.2,0,0,0,0-.3l-9.2-5.3h-.5l-4.6,2.6c-.1.1-.2.3,0,.4l4.8,2.8c.2,0,.2.2,0,.3l-3.6,2.1c-.2.1-.2.2-.1.3l3.8,2.2A.6.6,0,0,0,240.6,277.4Zm-26.3-2.3-4,2.3a.3.3,0,0,0,0,.4l3.8,2.1a.5.5,0,0,0,.5,0l4-2.3q.3-.2,0-.3l-3.8-2.2C214.7,275,214.4,275.1,214.3,275.1Zm-5.8,3.4-3.9,2.2a.2.2,0,0,0-.1.4l3.8,2.2h.6l3.9-2.2a.2.2,0,0,0,.1-.4l-3.8-2.1A.6.6,0,0,0,208.5,278.5ZM176.6,314a.6.6,0,0,0,.6,0l4-2.3c.1-.1.1-.3,0-.3l-3.8-2.2h-.6l-3.9,2.3q-.3.2,0,.3Zm-14.2-8.9-3.9,2.3c-.2,0-.2.2,0,.3l3.7,2.2h.6l3.9-2.2a.2.2,0,0,0,.1-.4l-3.8-2.1A.6.6,0,0,0,162.4,305.1Zm7.3,6.6a.6.6,0,0,0,.6,0l4-2.3c.1,0,.1-.2,0-.3l-3.8-2.2h-.6l-3.9,2.2a.2.2,0,0,0,0,.4Zm15.9,3.6,4-2.3c.1-.1.2-.2,0-.3l-3.8-2.2c-.1-.1-.4,0-.5.1l-4,2.2c-.1.1-.2.3,0,.4l3.8,2.1Zm-6.3,3.4h.6l3.9-2.2a.2.2,0,0,0,.1-.4l-3.8-2.1h-.6l-3.9,2.3c-.2.1-.2.2-.1.3Zm-11.1-16.9-3.9,2.2a.2.2,0,0,0-.1.4l3.8,2.1a.6.6,0,0,0,.6,0l3.9-2.3q.3-.1,0-.3l-3.7-2.2A.7.7,0,0,0,168.2,301.8ZM197,285.1l-3.9,2.3c-.2.1-.2.2-.1.3l3.8,2.2a.6.6,0,0,0,.6,0l3.9-2.3q.3-.2,0-.3l-3.7-2.2A.6.6,0,0,0,197,285.1Zm-23,13.3-4,2.3c-.1.1-.2.2,0,.3l3.8,2.2a.5.5,0,0,0,.5,0l4-2.3c.1-.1.2-.2,0-.3l-3.8-2.2Zm28.8-16.6-4,2.3q-.3.1,0,.3l3.8,2.2h.5l4-2.3c.1-.1.1-.3,0-.3l-3.8-2.2A.5.5,0,0,0,202.8,281.8Zm-11.6,6.6-3.9,2.3a.2.2,0,0,0,0,.4l3.7,2.1a.6.6,0,0,0,.6,0l3.9-2.3c.2-.1.2-.2.1-.3l-3.8-2.2Zm-5.7,3.4-4,2.3c-.1,0-.1.2,0,.3l3.8,2.2h.5l4-2.2a.2.2,0,0,0,0-.4l-3.7-2.1A.6.6,0,0,0,185.5,291.8Zm-5.8,3.3-3.9,2.3c-.2.1-.2.2-.1.3l3.8,2.2a.6.6,0,0,0,.6,0l3.9-2.3c.2-.1.2-.3.1-.3l-3.8-2.2A.6.6,0,0,0,179.7,295.1Zm26.3,2.2,4-2.2a.3.3,0,0,0,0-.4l-3.8-2.2h-.6l-3.9,2.2a.2.2,0,0,0,0,.4l3.7,2.2Zm53.7-48.4-3.9,2.3q-.3.2,0,.3l3.7,2.2a.6.6,0,0,0,.6,0l4-2.3c.1-.1.1-.3,0-.3l-3.8-2.2Zm-6.9,4-4,2.3a.2.2,0,0,0,0,.3l3.8,2.2a.5.5,0,0,0,.5,0l4-2.3q.3-.2,0-.3l-3.8-2.2Zm12.7-7.3-3.9,2.2a.2.2,0,0,0-.1.4l3.8,2.2h.6l3.9-2.2a.2.2,0,0,0,.1-.4l-3.8-2.1Zm-31.8,29.5,3.9-2.2a.2.2,0,0,0,0-.4l-3.7-2.1h-.6l-3.9,2.3c-.2.1-.2.2-.1.3l3.8,2.2C233.2,275.3,233.5,275.2,233.7,275.1Zm38.1-32.9h-.5l-4,2.3c-.1.1-.2.3,0,.4l3.8,2.1h.5l4-2.3c.1-.1.2-.2,0-.3Zm-60,51.8,3.9-2.3c.2-.1.2-.2.1-.3l-3.8-2.2h-.6l-3.9,2.3c-.2.1-.2.3-.1.3l3.8,2.2A.6.6,0,0,0,211.8,294Zm70.6-40.8,3.9-2.2a.2.2,0,0,0,.1-.4l-3.8-2.2H282l-3.9,2.2a.2.2,0,0,0,0,.4l3.7,2.1A.6.6,0,0,0,282.4,253.2Zm-11.1.2,3.9-2.2a.2.2,0,0,0,0-.4l-3.7-2.1h-.6L267,251c-.2.1-.2.2-.1.3l3.8,2.2Zm5.9-8.1c-.1-.1-.4,0-.5.1l-4,2.2a.2.2,0,0,0,0,.4l3.7,2.1h.6l4-2.3a.2.2,0,0,0,0-.3Zm1.2-.7,9.2,5.3h.6l3.9-2.3q.3-.2,0-.3L283,242h-.6l-3.9,2.3C278.3,244.4,278.3,244.5,278.4,244.6ZM265.1,252l-3.9,2.3q-.3.1,0,.3l3.7,2.2h.6l3.9-2.3c.2-.1.2-.3.1-.3l-3.8-2.2Zm-43.3,25-4,2.3c-.1.1-.1.3,0,.3l3.8,2.2h.6l3.9-2.3q.3-.2,0-.3l-3.7-2.2A.6.6,0,0,0,221.8,277Zm54.3-20.4h.5l4-2.3a.2.2,0,0,0,0-.4l-3.7-2.1a.6.6,0,0,0-.6,0l-4,2.3a.2.2,0,0,0,0,.3Zm-48.6,17.1-3.9,2.3q-.3.2,0,.3l3.7,2.2a.6.6,0,0,0,.6,0l4-2.3a.2.2,0,0,0,0-.3l-3.8-2.2Zm-45.1,37h.6l3.9-2.2a.2.2,0,0,0,.1-.4l-3.8-2.1h-.6l-3.9,2.2a.2.2,0,0,0-.1.4Zm-6.7-7.1-3.9,2.3c-.2.1-.2.3-.1.3l3.8,2.2a.6.6,0,0,0,.6,0l3.9-2.3c.2-.1.2-.2.1-.3l-3.8-2.2A.6.6,0,0,0,175.7,303.6Zm13,3.7,4-2.3c.1-.1.2-.2,0-.3l-3.8-2.2a.5.5,0,0,0-.5,0l-4,2.3c-.1.1-.2.3,0,.4l3.8,2.1Zm5.8-3.3,3.9-2.3c.2-.1.2-.2.1-.3l-3.8-2.2h-.6l-3.9,2.3q-.3.2,0,.3l3.7,2.2A.6.6,0,0,0,194.5,304Zm5.8-3.3,3.9-2.3c.2-.1.2-.3,0-.3l-3.7-2.2h-.6l-4,2.3a.2.2,0,0,0,0,.3l3.8,2.2A.6.6,0,0,0,200.3,300.7Zm-18.8-.4-4,2.3c-.1.1-.2.2,0,.3l3.8,2.2h.5l4-2.3c.1-.1.2-.2,0-.3l-3.8-2.2A.5.5,0,0,0,181.5,300.3Zm5.7-3.3-3.9,2.3q-.3.1,0,.3l3.7,2.2a.7.7,0,0,0,.6-.1l3.9-2.2a.2.2,0,0,0,.1-.4l-3.8-2.1A.6.6,0,0,0,187.2,297Zm23.1-13.3-4,2.3c-.1.1-.2.2,0,.3l3.8,2.2c.1.1.4,0,.5-.1l4-2.2c.1-.1.2-.3,0-.4l-3.8-2.1Zm-5.8,3.3-3.9,2.3c-.2.1-.2.2-.1.3l3.8,2.2h.6l3.9-2.3q.3-.2,0-.3l-3.7-2.2A.6.6,0,0,0,204.5,287Zm11.5-6.6-3.9,2.2a.2.2,0,0,0,0,.4l3.7,2.1h.6l3.9-2.3c.2-.1.2-.2.1-.3l-3.8-2.2Zm-23,13.3-4,2.2a.3.3,0,0,0,0,.4l3.8,2.1a.6.6,0,0,0,.6,0l3.9-2.3c.2,0,.2-.2,0-.3l-3.7-2.2Zm5.7-3.4-3.9,2.3c-.2.1-.2.3,0,.3l3.7,2.2h.6l4-2.3a.2.2,0,0,0,0-.3l-3.8-2.2A.6.6,0,0,0,198.7,290.3ZM191.4,312l3.9-2.3c.2-.1.2-.2.1-.3l-3.8-2.2H191l-3.9,2.3q-.3.2,0,.3l3.7,2.2A.6.6,0,0,0,191.4,312ZM161,310.6l-3.7-2.2h-.6l-4,2.3a.2.2,0,0,0,0,.3l3.8,2.2a.5.5,0,0,0,.5,0l4-2.3C161.2,310.8,161.2,310.6,161,310.6Zm7.5,1.8-3.7-2.1a.6.6,0,0,0-.6,0l-6.1,3.5c-.1.1-.2.2,0,.3l3.8,2.2h.5l6.1-3.5A.2.2,0,0,0,168.5,312.4Zm-13.1-6.1-3.8-2.2a.5.5,0,0,0-.5,0l-4.9,2.8q-.3.2,0,.3l3.7,2.2a.6.6,0,0,0,.6,0l4.9-2.8C155.5,306.5,155.5,306.3,155.4,306.3Zm3.7-2.2h.6l3.9-2.3c.2-.1.2-.2.1-.3l-3.8-2.2a.6.6,0,0,0-.6,0l-3.9,2.3c-.2.1-.2.3-.1.3Zm16.3,10.6-3.7-2.2a.6.6,0,0,0-.6,0l-7.6,4.4q-.3.2,0,.3l3.7,2.2a.6.6,0,0,0,.6,0l7.6-4.4Q175.7,314.8,175.4,314.7Zm2.7,4.7-3.8-2.2h-.6l-4.8,2.8c-.2.1-.2.3,0,.3l3.7,2.2a.6.6,0,0,0,.6,0l4.9-2.8C178.2,319.6,178.2,319.4,178.1,319.4Zm23.8-40a.6.6,0,0,0,.6,0l4-2.3c.1-.1.1-.3,0-.3l-3.8-2.2a.6.6,0,0,0-.6,0l-3.9,2.3q-.3.2,0,.3ZM190.4,286a.6.6,0,0,0,.6,0l3.9-2.3c.2-.1.2-.2.1-.3l-3.8-2.2h-.6l-3.9,2.2a.2.2,0,0,0-.1.4Zm-25.5,14.8h.5l4-2.3c.2-.1.2-.3,0-.3l-3.7-2.2a.6.6,0,0,0-.6,0l-4,2.3a.2.2,0,0,0,0,.3Zm31.3-18.1a.6.6,0,0,0,.6,0l3.9-2.3q.3-.1,0-.3l-3.7-2.2h-.6l-4,2.3c-.1.1-.1.3,0,.3Zm-11.5,6.7c.1.1.4,0,.5-.1l4-2.2c.1-.1.2-.3,0-.4l-3.8-2.1a.5.5,0,0,0-.5,0l-4,2.3c-.1.1-.2.2,0,.3Zm-3.8,30.2a.6.6,0,0,0-.6,0l-6,3.5c-.2.1-.2.3-.1.3l3.8,2.2h.6l6.1-3.5a.2.2,0,0,0,0-.3Zm-4.5-25.5h.6l3.9-2.3q.3-.2,0-.3l-3.7-2.2a.7.7,0,0,0-.6.1l-3.9,2.2a.2.2,0,0,0-.1.4Zm-5.8,3.4h.6l3.9-2.2a.2.2,0,0,0,.1-.4l-3.8-2.1h-.6l-3.9,2.3q-.3.2,0,.3Zm117-39.5a.5.5,0,0,0-.5,0l-9.7,5.6c-.2.1-.2.3-.1.3l3.8,2.2h.6l9.7-5.6a.2.2,0,0,0,0-.3Zm-12.7,7.3h-.6l-3.9,2.2a.2.2,0,0,0-.1.4l3.8,2.1h.6l3.9-2.3c.2,0,.2-.2.1-.3Zm-77.7,43.4,3.9-2.3c.2-.1.2-.3,0-.3l-3.7-2.2h-.6l-4,2.3a.2.2,0,0,0,0,.3l3.8,2.2A.6.6,0,0,0,197.2,308.7ZM263.4,272a.6.6,0,0,0-.6,0l-3.9,2.3c-.2.1-.2.2-.1.3l3.8,2.2h.6l3.9-2.3q.3-.2,0-.3Zm30-17.3h-.6l-3.9,2.3c-.2.1-.2.2-.1.3l3.8,2.2a.7.7,0,0,0,.6-.1l3.9-2.2a.2.2,0,0,0,.1-.4Zm9.5-1.2-9.1-5.3h-.6l-4,2.3a.3.3,0,0,0,0,.4l9.2,5.2h.5l4-2.3C303,253.7,303.1,253.6,302.9,253.5Zm-61.1,30.9h-.5l-4.9,2.8c-.1.1-.2.3,0,.4l3.8,2.1a.5.5,0,0,0,.5,0l4.9-2.8q.3-.1,0-.3Zm14.6-8.4a.6.6,0,0,0-.6,0l-6,3.5a.2.2,0,0,0-.1.4l3.8,2.1a.6.6,0,0,0,.6,0l6-3.5c.2-.1.2-.2.1-.3Zm-27.9,16.1a.6.6,0,0,0-.6,0l-32.4,18.8q-.3.2,0,.3l3.7,2.2c.2.1.4,0,.6,0l32.4-18.8c.2-.1.2-.2.1-.3Zm-34.2,19.8h-.6l-4.9,2.8c-.1.1-.1.3,0,.3l3.8,2.2a.5.5,0,0,0,.5,0l4.9-2.8q.3-.1,0-.3Zm40.9-23.6a.6.6,0,0,0-.6,0l-4.8,2.8c-.2.1-.2.2-.1.3l3.8,2.2h.6l4.8-2.8a.2.2,0,0,0,.1-.4Zm-47.6,27.4H187l-4.8,2.8c-.2.1-.2.2-.1.3l3.8,2.2h.6l4.8-2.8a.2.2,0,0,0,.1-.4Zm60.9-35.1a.6.6,0,0,0-.6,0l-4.8,2.8q-.3.2,0,.3l3.7,2.2a.6.6,0,0,0,.6,0l4.9-2.8a.3.3,0,0,0,0-.4Zm20.6-11.9h-.5l-4,2.3c-.1.1-.2.2,0,.3l3.8,2.2c.1.1.4,0,.5-.1l4-2.2c.1-.1.2-.3,0-.4Zm12.9-9,4-2.3c.1-.1.2-.3,0-.3l-3.8-2.2h-.5l-4,2.3c-.1.1-.2.2,0,.3l3.8,2.2A.5.5,0,0,0,282,259.7Zm-23.5,1.1,4-2.3c.1-.1.2-.2,0-.3l-3.8-2.2h-.5l-4,2.3c-.1.1-.2.3,0,.3l3.8,2.2Zm-15.3,21.3,11.6-6.7a.2.2,0,0,0,0-.3l-3.8-2.2h-.6l-11.5,6.7c-.1.1-.2.2,0,.3l3.8,2.2ZM275.7,263a.6.6,0,0,0,.6,0l3.9-2.3q.3-.1,0-.3l-3.7-2.2h-.6l-3.9,2.3c-.2.1-.2.2-.1.3Zm-4.8-3.1,3.9-2.3c.2-.1.2-.2.1-.3l-3.8-2.2h-.6l-3.9,2.3c-.2.1-.2.2-.1.3l3.8,2.2A.6.6,0,0,0,270.9,259.9Zm-33.4,25.5,3.9-2.3q.3-.2,0-.3l-3.7-2.2a.6.6,0,0,0-.6,0l-3.9,2.3c-.2.1-.2.2-.1.3l3.8,2.2A.6.6,0,0,0,237.5,285.4Zm25.5-15h.5l4-2.2a.2.2,0,0,0,0-.4l-3.8-2.1a.5.5,0,0,0-.5,0l-4,2.2a.3.3,0,0,0,0,.4ZM208.7,302l3.9-2.3q.3-.1,0-.3l-3.7-2.2a.7.7,0,0,0-.6.1l-3.9,2.2a.2.2,0,0,0-.1.4l3.8,2.1A.6.6,0,0,0,208.7,302Zm5.7-3.3,4-2.3c.1-.1.2-.2,0-.3l-3.8-2.2h-.5l-4,2.3c-.1.1-.2.2,0,.3l3.8,2.2A.5.5,0,0,0,214.4,298.7Zm-11.5,6.6,4-2.2a.3.3,0,0,0,0-.4l-3.8-2.1a.6.6,0,0,0-.6,0l-3.9,2.3q-.3.2,0,.3l3.7,2.2ZM226,292l3.9-2.2a.2.2,0,0,0,0-.4l-3.7-2.1a.6.6,0,0,0-.6,0l-4,2.3c-.1,0-.1.2,0,.3l3.8,2.2Zm-5.8,3.4,3.9-2.3c.2-.1.2-.3.1-.3l-3.8-2.2a.6.6,0,0,0-.6,0l-3.9,2.3q-.3.2,0,.3l3.7,2.2A.6.6,0,0,0,220.2,295.4Zm11.5-6.7,4-2.3a.2.2,0,0,0,0-.3l-3.8-2.2c-.1-.1-.4,0-.6.1l-3.9,2.2a.2.2,0,0,0,0,.4l3.7,2.1A.6.6,0,0,0,231.7,288.7Zm31.4-46.2h.6l4-2.2a.3.3,0,0,0,0-.4l-1-.6h-.6l-3.9,2.2a.2.2,0,0,0-.1.4Zm-28.6,18.1h.6l3.9-2.3c.2-.1.2-.3.1-.3l-3.8-2.2a.6.6,0,0,0-.6,0l-3.9,2.3c-.2.1-.2.2-.1.3Zm11.5-6.7h.6l3.9-2.3c.2-.1.2-.2.1-.3l-3.8-2.2h-.6l-3.9,2.3a.2.2,0,0,0,0,.4Zm-18.5,10.7h.6l3.9-2.3q.3-.2,0-.3l-3.7-2.2h-.6l-4,2.2a.3.3,0,0,0,0,.4Zm12.8-7.3h.5l4-2.2a.2.2,0,0,0,0-.4l-3.7-2.1h-.6l-4,2.2a.3.3,0,0,0,0,.4Zm-24.3,14h.5l4-2.3c.1-.1.2-.2,0-.3l-3.8-2.2a.5.5,0,0,0-.5,0l-4,2.3c-.1.1-.2.2,0,.3Zm5.7-3.3a.7.7,0,0,0,.6-.1l3.9-2.2a.2.2,0,0,0,.1-.4l-3.8-2.1h-.6l-3.9,2.3q-.3.2,0,.3Zm29.9-18.9h.6l3.9-2.3c.2-.1.2-.2.1-.3l-1-.6h-.6l-3.9,2.3c-.2.1-.2.2-.1.3Zm17.3-10h.6l3.9-2.3q.3-.2,0-.3l-1-.6h-.5l-4,2.3c-.1.1-.1.3,0,.3Zm7.9,4.6a.6.6,0,0,0,.6,0l3.9-2.3c.2-.1.2-.2.1-.3l-3.8-2.2H277l-3.9,2.3q-.3.2,0,.3Zm11,12.6,3.9-2.2a.2.2,0,0,0,.1-.4l-3.8-2.1h-.6l-3.9,2.2a.2.2,0,0,0,0,.4l3.7,2.2Zm-30.4-10.5h.6l3.9-2.3c.2-.1.2-.3,0-.3l-1-.6h-.5l-4,2.3q-.3.2,0,.3Zm-47.2,28.8h.6l3.9-2.3c.2-.1.2-.2.1-.3l-3.8-2.2a.6.6,0,0,0-.6,0l-3.9,2.3c-.2.1-.2.3-.1.3Z"/><path class="l" d="M252.8,263.2l4-2.3c.1-.1.2-.3,0-.3l-3.8-2.2h-.5l-4,2.3c-.1.1-.2.2,0,.3l3.8,2.2A.5.5,0,0,0,252.8,263.2Zm-5.7-7.9-4,2.3a.2.2,0,0,0,0,.3l3.8,2.2c.1.1.4,0,.6-.1l3.9-2.2a.2.2,0,0,0,0-.4l-3.7-2.1A.6.6,0,0,0,247.1,255.3Zm-12.7,7.3-6.7,3.9c-.2.1-.2.2-.1.3l3.8,2.2a.6.6,0,0,0,.6,0l6.7-3.9a.2.2,0,0,0,0-.3l-3.8-2.2A.5.5,0,0,0,234.4,262.6Zm6.9-4-3.9,2.3q-.3.2,0,.3l3.7,2.2a.6.6,0,0,0,.6,0l3.9-2.3c.2-.1.2-.2.1-.3l-3.8-2.2A.6.6,0,0,0,241.3,258.6Zm-15.4,8.9-4,2.3c-.1.1-.2.3,0,.3l3.8,2.2h.5l4-2.3c.1-.1.2-.2,0-.3l-3.8-2.2A.5.5,0,0,0,225.9,267.5Zm-5.8,3.4-3.9,2.2a.2.2,0,0,0-.1.4l3.8,2.1h.6l3.9-2.2a.2.2,0,0,0,0-.4l-3.7-2.2Zm14.8,8.8,3.9-2.2a.2.2,0,0,0,.1-.4l-3.8-2.1a.6.6,0,0,0-.6,0l-3.9,2.3c-.2.1-.2.2-.1.3l3.8,2.2A.7.7,0,0,0,234.9,279.7Zm-5.8,3.4,4-2.3a.2.2,0,0,0,0-.3l-3.8-2.2a.5.5,0,0,0-.5,0l-4,2.3q-.3.1,0,.3l3.8,2.2Zm-5.7,3.3,3.9-2.3q.3-.2,0-.3l-3.7-2.2a.6.6,0,0,0-.6,0l-3.9,2.3c-.2.1-.2.3-.1.3l3.8,2.2A.6.6,0,0,0,223.4,286.4Zm-5.8,3.3,3.9-2.3c.2-.1.2-.2.1-.3l-3.8-2.2h-.6l-3.9,2.2a.2.2,0,0,0,0,.4l3.7,2.1A.6.6,0,0,0,217.6,289.7Zm29.5-23.2,3.9-2.3c.2-.1.2-.2.1-.3l-3.8-2.2h-.6l-3.9,2.3c-.2.1-.2.2-.1.3l3.8,2.2A.6.6,0,0,0,247.1,266.5Zm-6.5,9.9,8.8-5.1c.2-.1.2-.2.1-.3l-9.2-5.3h-.6l-4.5,2.7q-.3.2,0,.3l4.8,2.8c.2.1.1.2,0,.3l-3.7,2.1a.3.3,0,0,0,0,.4l3.8,2.1A.5.5,0,0,0,240.6,276.4Zm-26.3-2.2-3.9,2.3q-.3.2,0,.3l3.7,2.2c.2.1.4,0,.6,0l4-2.3a.3.3,0,0,0,0-.4l-3.8-2.1Zm-5.7,3.3-4,2.3a.2.2,0,0,0,0,.3l3.8,2.2h.6l3.9-2.3q.3-.2,0-.3l-3.7-2.2A.6.6,0,0,0,208.6,277.5ZM176.7,313a.6.6,0,0,0,.6,0l3.9-2.3c.2-.1.2-.2.1-.3l-3.8-2.2h-.6l-3.9,2.3c-.2.1-.2.3-.1.3Zm-14.2-8.9-3.9,2.3c-.2.1-.2.2-.1.3l3.8,2.2a.6.6,0,0,0,.6,0l3.9-2.3c.2-.1.2-.2.1-.3l-3.8-2.2A.6.6,0,0,0,162.5,304.1Zm7.3,6.7h.6l3.9-2.3c.2-.1.2-.3.1-.3l-3.8-2.2a.6.6,0,0,0-.6,0l-3.9,2.3c-.2.1-.2.2-.1.3Zm15.9,3.6,3.9-2.3c.2-.1.2-.3.1-.3l-3.8-2.2a.6.6,0,0,0-.6,0l-3.9,2.3q-.3.2,0,.3l3.7,2.2A.6.6,0,0,0,185.7,314.4Zm-6.3,3.3a.5.5,0,0,0,.5,0l4-2.3q.3-.1,0-.3l-3.8-2.2h-.5l-4,2.3a.2.2,0,0,0,0,.3Zm-11.1-16.9-4,2.3c-.1.1-.2.2,0,.3l3.8,2.2h.5l4-2.3c.1-.1.2-.3,0-.4l-3.8-2.1A.5.5,0,0,0,168.3,300.8Zm28.8-16.6-4,2.2c-.1.1-.2.3,0,.4l3.8,2.1a.5.5,0,0,0,.5,0l4-2.2c.1-.1.2-.3,0-.4l-3.8-2.2ZM174,297.5l-3.9,2.2a.2.2,0,0,0,0,.4l3.7,2.1a.6.6,0,0,0,.6,0l3.9-2.2a.2.2,0,0,0,.1-.4l-3.8-2.2Zm28.8-16.7-3.9,2.3c-.2.1-.2.3,0,.3l3.7,2.2h.6l3.9-2.3c.2-.1.2-.2.1-.3l-3.8-2.2A.6.6,0,0,0,202.8,280.8Zm-11.5,6.7-3.9,2.3c-.2.1-.2.2-.1.3l3.8,2.2h.6l3.9-2.3a.2.2,0,0,0,0-.4l-3.7-2.1A.6.6,0,0,0,191.3,287.5Zm-5.8,3.3-3.9,2.3q-.3.1,0,.3l3.7,2.2h.6l4-2.3a.2.2,0,0,0,0-.3l-3.8-2.2A.6.6,0,0,0,185.5,290.8Zm-5.7,3.3-4,2.3c-.1.1-.1.3,0,.3l3.8,2.2a.6.6,0,0,0,.6,0l3.9-2.3q.3-.2,0-.3l-3.7-2.2A.6.6,0,0,0,179.8,294.1Zm26.3,2.3,3.9-2.3c.2-.1.2-.2.1-.3l-3.8-2.2a.6.6,0,0,0-.6,0l-3.9,2.3c-.2.1-.2.2-.1.3l3.8,2.2A.6.6,0,0,0,206.1,296.4Zm53.7-48.5-3.9,2.3c-.2.1-.2.3-.1.3l3.8,2.2a.6.6,0,0,0,.6,0l3.9-2.3c.2-.1.2-.2.1-.3l-3.8-2.2Zm-7,4.1-3.9,2.2a.2.2,0,0,0,0,.4l3.7,2.1a.6.6,0,0,0,.6,0l4-2.3c.1,0,.1-.2,0-.3l-3.8-2.2Zm12.8-7.4-4,2.3a.2.2,0,0,0,0,.3l3.8,2.2h.5l4-2.3q.3-.2,0-.3l-3.8-2.2Zm-31.9,29.6,4-2.3c.1-.1.2-.2,0-.3l-3.8-2.2h-.5l-4,2.3c-.1.1-.2.2,0,.3l3.8,2.2A.5.5,0,0,0,233.7,274.2Zm38.2-32.9a.6.6,0,0,0-.6,0l-3.9,2.3q-.3.2,0,.3l3.7,2.2a.7.7,0,0,0,.6-.1l3.9-2.2a.2.2,0,0,0,.1-.4ZM211.8,293l4-2.2a.2.2,0,0,0,0-.4l-3.8-2.1a.5.5,0,0,0-.5,0l-4,2.3a.2.2,0,0,0,0,.3l3.8,2.2C211.4,293.2,211.7,293.1,211.8,293Zm70.7-40.7,3.9-2.3c.2-.1.2-.3.1-.3l-3.8-2.2h-.6l-3.9,2.3c-.2.1-.2.2-.1.3l3.8,2.2Zm-11.2.2,4-2.3c.1-.1.2-.2,0-.3l-3.8-2.2H271l-4,2.3c-.1.1-.2.2,0,.3l3.8,2.2Zm6-8.1h-.6l-3.9,2.3c-.2.1-.2.2-.1.3l3.8,2.2a.6.6,0,0,0,.6,0l3.9-2.3c.2-.1.2-.3.1-.3Zm1.2-.7,9.2,5.3h.5l4-2.2c.1-.1.2-.3,0-.4l-9.1-5.3h-.6l-4,2.2A.3.3,0,0,0,278.5,243.7ZM265.2,251l-3.9,2.3a.2.2,0,0,0-.1.4l3.8,2.1h.6l3.9-2.3q.3-.1,0-.3l-3.7-2.2Zm-43.3,25.1-4,2.2a.2.2,0,0,0,0,.4l3.7,2.2h.6l4-2.2a.3.3,0,0,0,0-.4l-3.8-2.1A.5.5,0,0,0,221.9,276.1Zm54.2-20.5h.6l4-2.3a.2.2,0,0,0,0-.3l-3.8-2.2a.6.6,0,0,0-.6,0l-3.9,2.3q-.3.2,0,.3Zm-48.5,17.1-3.9,2.3a.2.2,0,0,0-.1.4l3.8,2.1a.6.6,0,0,0,.6,0l3.9-2.3c.2-.1.2-.2.1-.3l-3.8-2.2Zm-45.1,37a.5.5,0,0,0,.5,0l4-2.3q.3-.1,0-.3l-3.7-2.2h-.6l-4,2.3a.2.2,0,0,0,0,.3Zm-6.7-7-4,2.3c-.1,0-.1.2,0,.3l3.8,2.2h.5l4-2.2a.2.2,0,0,0,0-.4l-3.8-2.1Zm13,3.6,3.9-2.2a.2.2,0,0,0,.1-.4l-3.8-2.1a.6.6,0,0,0-.6,0l-3.9,2.3q-.3.2,0,.3l3.7,2.2A.7.7,0,0,0,188.8,306.3Zm5.8-3.3,3.9-2.3c.2,0,.2-.2,0-.3l-3.7-2.2h-.6l-3.9,2.2a.2.2,0,0,0-.1.4L194,303A.6.6,0,0,0,194.6,303Zm5.7-3.3,4-2.3a.2.2,0,0,0,0-.3l-3.8-2.2H200l-4,2.3c-.2.1-.2.3,0,.3l3.8,2.2A.5.5,0,0,0,200.3,299.7Zm-18.8-.3-3.9,2.2a.2.2,0,0,0,0,.4l3.7,2.1h.6l3.9-2.3c.2-.1.2-.2.1-.3l-3.8-2.2C182,299.2,181.7,299.3,181.5,299.4Zm5.8-3.4-3.9,2.3c-.2.1-.2.2-.1.3l3.8,2.2h.6l3.9-2.3q.3-.2,0-.3l-3.7-2.2A.6.6,0,0,0,187.3,296Zm23-13.3-3.9,2.3q-.3.2,0,.3l3.7,2.2a.6.6,0,0,0,.6,0l3.9-2.3c.2-.1.2-.2.1-.3l-3.8-2.2Zm-5.7,3.3-4,2.3a.3.3,0,0,0,0,.4l3.8,2.1h.5l4-2.3q.3-.2,0-.3l-3.8-2.2C205,285.9,204.7,286,204.6,286Zm11.5-6.6-3.9,2.3c-.2.1-.2.2-.1.3l3.8,2.2a.6.6,0,0,0,.6,0l3.9-2.3c.2-.1.2-.3,0-.3l-3.7-2.2Zm-23,13.3-4,2.3q-.3.2,0,.3l3.8,2.2a.5.5,0,0,0,.5,0l4-2.3c.1-.1.1-.3,0-.3l-3.8-2.2Zm5.7-3.3-3.9,2.2a.2.2,0,0,0-.1.4l3.8,2.2h.6l3.9-2.2a.2.2,0,0,0,.1-.4l-3.8-2.1ZM191.5,311l3.9-2.2a.2.2,0,0,0,0-.4l-3.7-2.1a.6.6,0,0,0-.6,0l-3.9,2.2a.2.2,0,0,0-.1.4l3.8,2.2Zm-30.4-1.4-3.8-2.2h-.6l-3.9,2.3c-.2.1-.2.3,0,.3l3.7,2.2a.6.6,0,0,0,.6,0l4-2.3A.2.2,0,0,0,161.1,309.6Zm7.5,1.9-3.8-2.2a.5.5,0,0,0-.5,0l-6.1,3.5a.2.2,0,0,0,0,.4l3.7,2.1h.6l6.1-3.5A.2.2,0,0,0,168.6,311.5Zm-13.1-6.2-3.8-2.2a.6.6,0,0,0-.6,0l-4.8,2.8a.2.2,0,0,0-.1.4l3.8,2.2h.6l4.8-2.8C155.6,305.5,155.6,305.4,155.5,305.3Zm3.7-2.1h.6l3.9-2.2a.2.2,0,0,0,0-.4l-3.7-2.1h-.6l-4,2.2a.3.3,0,0,0,0,.4Zm16.3,10.5-3.8-2.2h-.5l-7.6,4.3a.2.2,0,0,0-.1.4l3.8,2.1a.6.6,0,0,0,.6,0l7.6-4.4C175.6,314,175.6,313.8,175.5,313.7Zm2.7,4.7-3.8-2.2h-.6L169,319a.2.2,0,0,0-.1.4l3.8,2.2h.6l4.8-2.8C178.3,318.6,178.3,318.5,178.2,318.4Zm23.8-40a.6.6,0,0,0,.6,0l3.9-2.3c.2-.1.2-.2.1-.3l-3.8-2.2c-.2-.1-.4,0-.6,0l-3.9,2.3a.2.2,0,0,0-.1.4Zm-11.5,6.7h.6l3.9-2.3c.2-.1.2-.3,0-.3l-3.7-2.2a.6.6,0,0,0-.6,0l-3.9,2.3c-.2.1-.2.2-.1.3Zm-25.6,14.7h.6l4-2.3a.2.2,0,0,0,0-.3l-3.8-2.2a.6.6,0,0,0-.6,0l-3.9,2.3a.2.2,0,0,0,0,.4Zm31.3-18h.6l4-2.2a.3.3,0,0,0,0-.4L197,277a.5.5,0,0,0-.5,0l-4,2.2a.2.2,0,0,0,0,.4Zm-11.5,6.6a.6.6,0,0,0,.6,0l3.9-2.3c.2-.1.2-.2.1-.3l-3.8-2.2a.6.6,0,0,0-.6,0l-3.9,2.3q-.3.2,0,.3ZM181,318.6a.7.7,0,0,0-.6.1l-6,3.5c-.2.1-.2.2-.1.3l3.8,2.2h.6l6-3.5c.2-.1.2-.2.1-.3Zm-4.5-25.4a.5.5,0,0,0,.5,0l4-2.3c.1-.1.2-.3,0-.3l-3.8-2.2h-.5l-4,2.3c-.1.1-.2.2,0,.3Zm-5.8,3.3a.6.6,0,0,0,.6,0l3.9-2.3q.3-.1,0-.3l-3.7-2.2h-.6L167,294c-.2.1-.2.2-.1.3Zm117-39.5c-.2-.1-.4,0-.6,0l-9.7,5.6c-.1.1-.2.3,0,.4l3.8,2.2h.5l9.7-5.6c.2-.1.2-.2.1-.3ZM275,264.4h-.6l-4,2.3a.2.2,0,0,0,0,.3l3.8,2.2a.6.6,0,0,0,.6,0l3.9-2.3c.2-.1.2-.3,0-.3Zm-77.8,43.3,4-2.3a.2.2,0,0,0,0-.3l-3.8-2.2h-.5l-4,2.3a.2.2,0,0,0,0,.4l3.8,2.1A.5.5,0,0,0,197.2,307.7ZM263.4,271c-.1-.1-.4,0-.5.1l-4,2.2c-.1.1-.2.3,0,.4l3.8,2.1h.5l4-2.3c.1-.1.2-.2,0-.3Zm30.1-17.3h-.6l-4,2.3a.2.2,0,0,0,0,.3l3.8,2.2a.5.5,0,0,0,.5,0l4-2.3q.3-.1,0-.3Zm9.5-1.1-9.2-5.3a.5.5,0,0,0-.5,0l-4,2.3q-.3.2,0,.3l9.1,5.3a.6.6,0,0,0,.6,0l3.9-2.3C303.1,252.8,303.1,252.6,303,252.6Zm-61.1,30.9a.6.6,0,0,0-.6,0l-4.8,2.8q-.3.1,0,.3l3.7,2.2h.6l4.9-2.8a.3.3,0,0,0,0-.4Zm14.6-8.4a.6.6,0,0,0-.6,0l-6.1,3.5a.2.2,0,0,0,0,.3l3.8,2.2h.5l6.1-3.5a.2.2,0,0,0,0-.4Zm-27.9,16.1H228l-32.4,18.7c-.2.1-.2.2-.1.3l3.8,2.2a.6.6,0,0,0,.6,0l32.4-18.7a.2.2,0,0,0,.1-.4Zm-34.3,19.7c-.1-.1-.4,0-.5.1l-4.9,2.8q-.3.1,0,.3l3.7,2.2h.6l4.9-2.8a.2.2,0,0,0,0-.3Zm40.9-23.6a.5.5,0,0,0-.5,0l-4.9,2.8c-.1.1-.2.3,0,.4l3.8,2.1h.5l4.9-2.8q.3-.2,0-.3Zm-47.5,27.5a.6.6,0,0,0-.6,0l-4.9,2.8a.2.2,0,0,0,0,.3l3.8,2.2h.5l4.9-2.8c.2-.1.2-.3,0-.3Zm60.9-35.2a.6.6,0,0,0-.6,0l-4.8,2.8a.2.2,0,0,0-.1.4l3.8,2.1a.6.6,0,0,0,.6,0l4.8-2.8c.2-.1.2-.2.1-.3Zm20.6-11.9h-.6l-3.9,2.3q-.3.2,0,.3l3.7,2.2a.6.6,0,0,0,.6,0l3.9-2.3c.2-.1.2-.2.1-.3Zm12.9-9,3.9-2.3c.2-.1.2-.2.1-.3l-3.8-2.2h-.6l-3.9,2.3c-.2.1-.2.3,0,.3l3.7,2.2A.6.6,0,0,0,282.1,258.7Zm-23.5,1.1,3.9-2.2a.2.2,0,0,0,.1-.4l-3.8-2.1h-.6l-3.9,2.2a.2.2,0,0,0,0,.4l3.7,2.2Zm-15.3,21.3,11.5-6.6a.2.2,0,0,0,.1-.4l-3.8-2.2h-.6L239,278.6c-.2.1-.2.3,0,.3l3.7,2.2ZM275.8,262a.5.5,0,0,0,.5,0l4-2.2a.2.2,0,0,0,0-.4l-3.8-2.2H276l-4,2.2a.3.3,0,0,0,0,.4Zm-4.8-3.1,3.9-2.3q.3-.2,0-.3l-3.7-2.2a.7.7,0,0,0-.6.1l-4,2.2a.3.3,0,0,0,0,.4l3.8,2.1A.6.6,0,0,0,271,258.9Zm-33.5,25.5,4-2.2c.1-.1.2-.3,0-.4l-3.8-2.2h-.5l-4,2.2c-.1.1-.2.3,0,.4l3.8,2.1A.5.5,0,0,0,237.5,284.4Zm25.5-15a.6.6,0,0,0,.6,0l4-2.3a.2.2,0,0,0,0-.3l-3.8-2.2a.6.6,0,0,0-.6,0l-3.9,2.3q-.3.2,0,.3Zm-54.3,31.7,4-2.3c.2-.1.2-.3,0-.3l-3.8-2.2a.5.5,0,0,0-.5,0l-4,2.3a.2.2,0,0,0,0,.3l3.8,2.2Zm5.8-3.4,3.9-2.2a.2.2,0,0,0,.1-.4l-3.8-2.2h-.6l-3.9,2.2a.2.2,0,0,0,0,.4l3.7,2.2ZM203,304.4l3.9-2.3c.2-.1.2-.2.1-.3l-3.8-2.2a.6.6,0,0,0-.6,0l-3.9,2.3c-.2.1-.2.2-.1.3l3.8,2.2A.6.6,0,0,0,203,304.4Zm23-13.3,4-2.3a.2.2,0,0,0,0-.3l-3.8-2.2a.5.5,0,0,0-.5,0l-4,2.3q-.3.1,0,.3l3.7,2.2Zm-5.7,3.3,3.9-2.3q.3-.2,0-.3l-3.7-2.2a.6.6,0,0,0-.6,0l-3.9,2.3c-.2.1-.2.3-.1.3l3.8,2.2A.6.6,0,0,0,220.3,294.4Zm11.5-6.6,3.9-2.3a.2.2,0,0,0,.1-.4L232,283a.6.6,0,0,0-.6,0l-3.9,2.3c-.2.1-.2.2-.1.3l3.8,2.2Zm31.4-46.3h.6l3.9-2.3c.2-.1.2-.2.1-.3l-1-.6a.6.6,0,0,0-.6,0l-4,2.3a.2.2,0,0,0,0,.3Zm-28.6,18.1h.6l3.9-2.3q.3-.2,0-.3l-3.7-2.2a.6.6,0,0,0-.6,0l-4,2.3c-.1.1-.1.3,0,.3Zm11.5-6.6h.6l3.9-2.3a.2.2,0,0,0,.1-.4l-3.8-2.1h-.6l-3.9,2.3c-.2.1-.2.2-.1.3Zm-18.5,10.7a.5.5,0,0,0,.5,0l4-2.3c.1-.1.1-.3,0-.3l-3.8-2.2h-.5l-4,2.3q-.3.2,0,.3Zm12.7-7.4h.6l4-2.3a.2.2,0,0,0,0-.3l-3.8-2.2h-.6l-3.9,2.3q-.3.1,0,.3Zm-24.3,14h.6l3.9-2.3c.2-.1.2-.2.1-.3l-3.8-2.2c-.1-.1-.4,0-.6,0l-3.9,2.3a.2.2,0,0,0,0,.4Zm5.8-3.3a.6.6,0,0,0,.6,0l3.9-2.3q.3-.1,0-.3l-3.7-2.2H222l-3.9,2.3c-.2.1-.2.2-.1.3Zm29.9-18.9h.6l3.9-2.2a.2.2,0,0,0,0-.4l-1-.6h-.5l-4,2.2c-.1.1-.2.3,0,.4Zm17.3-9.9c.1.1.4,0,.5,0l4-2.3a.2.2,0,0,0,0-.4l-1-.5h-.6l-3.9,2.3q-.3.1,0,.3Zm7.9,4.5a.6.6,0,0,0,.6,0l3.9-2.3c.2,0,.2-.2,0-.3l-3.7-2.2h-.6l-3.9,2.2a.2.2,0,0,0-.1.4Zm11,12.7,3.9-2.3q.3-.2,0-.3l-3.7-2.2h-.6l-3.9,2.3c-.2.1-.2.2-.1.3l3.8,2.2Zm-30.4-10.6h.5l4-2.3a.2.2,0,0,0,0-.3l-1-.6h-.6l-3.9,2.3c-.2.1-.2.3-.1.3Zm-47.2,28.9h.5l4-2.2a.2.2,0,0,0,0-.4l-3.8-2.1h-.5l-4,2.2a.3.3,0,0,0,0,.4Z"/><polygon class="n" points="227.2 304.3 228.1 304.8 249.5 317.2 287.7 295.1 288.5 294.7 266.2 281.8 227.2 304.3"/><polygon class="f" points="228.1 304.8 249.5 317.2 287.7 295.1 266.2 282.8 228.1 304.8"/><polygon class="j" points="228.1 304.8 249.5 317.2 287.7 295.1 266.2 282.8 228.1 304.8"/><path class="f" d="M117.2,300.3l1.1.5-1.1-.5-.3-.2Z"/><path class="f" d="M123.4,300.6Z"/><path class="o" d="M277.2,117.6v-.2h0v-.2c0-.1-.1-.2-.1-.3a.1.1,0,0,1-.1-.1h-.1v-.2h-.2c-.4-.2-.8-.1-1.4.2L138.8,195.4a4.4,4.4,0,0,0-2,3.5v98.7h0v.4a1.4,1.4,0,0,0,.7,1.3h.6l.7-.2h.1l1.9-1.2,134.3-77.5a4.3,4.3,0,0,0,2.1-3.6V117.6Z"/><path class="f" d="M276.5,116.5c-.4-.2-.8-.1-1.4.2L138.8,195.4a4.4,4.4,0,0,0-2,3.5v6.8l-2.7-1.6v-6.7a4.5,4.5,0,0,1,2.1-3.5l136.3-78.7a1.6,1.6,0,0,1,1.5-.1Z"/><path class="k" d="M277.2,117.9c0-1.3-.9-1.9-2.1-1.2L138.8,195.4a4.4,4.4,0,0,0-2,3.5v6.8l140.4-81.1Z"/><path class="l" d="M275.1,116.7,138.8,195.4a3.4,3.4,0,0,0-1.4,1.5l-2.6-1.5a2.9,2.9,0,0,1,1.4-1.5l136.3-78.7a1.6,1.6,0,0,1,1.5-.1l2.5,1.4C276.1,116.3,275.7,116.4,275.1,116.7Z"/><path class="j" d="M134.1,204.1v-6.7a4,4,0,0,1,.7-2l2.6,1.5a3.9,3.9,0,0,0-.6,2v6.8Z"/><path class="p" d="M264.8,125.5a3,3,0,0,0-1.2,2.5c0,1,.5,1.5,1.2,1.1a3.2,3.2,0,0,0,1.1-2.4C265.9,125.7,265.4,125.2,264.8,125.5Z"/><path class="p" d="M269,123.1a3,3,0,0,0-1.2,2.5c0,1,.5,1.5,1.2,1.1a3.3,3.3,0,0,0,1.1-2.5C270.1,123.2,269.6,122.7,269,123.1Z"/><path class="p" d="M273.2,120.7a3,3,0,0,0-1.2,2.5c0,.9.5,1.4,1.2,1.1a3.3,3.3,0,0,0,1.1-2.5C274.3,120.8,273.8,120.3,273.2,120.7Z"/><path class="q" d="M137.5,299.3h-.1l-2.2-1.2a2.5,2.5,0,0,1-1.1-1.6V204.1l2.7,1.6V298a1.2,1.2,0,0,0,.6,1.2Z"/><path class="r" d="M177.3,190.8a.8.8,0,0,1,.1-.4l1.4-3h.2c0-.1,0-.1.1,0h0V189l-.8,1.7.8.7h.1v1.6h-.3l-1.4-1.4c-.1,0-.1-.1-.1-.2Z"/><path class="r" d="M182.7,183.1a.4.4,0,0,1,.1-.3c0-.1.1-.1.2-.2l.6-.3h.1v.2l-2.5,10.8v.3l-.3.2-.5.3h-.2v-.2Z"/><path class="r" d="M186.6,186.2a.8.8,0,0,1-.1.4l-1.5,3h0a.1.1,0,0,0-.1.1.1.1,0,0,1-.1-.1h0V188l.8-1.7-.8-.7h-.1v-1.7h.1l1.5,1.4c.1,0,.1.1.1.2Z"/><path class="r" d="M190.7,185.5h.2v1.6h-.2l-.7.4h-.1c-.1,0-.1-.1-.1-.2v-1.1c0-.1,0-.2.1-.2v-.2Z"/><path class="r" d="M193.1,184.1h.1c0,.1.1.1.1.2v1.4a.3.3,0,0,1-.1.2l-.7.4h-.2v-1.6l.2-.2Z"/><path class="r" d="M195.4,182.8c0-.1.1,0,.1,0s.1.1.1.2v1.1a.4.4,0,0,1-.1.3h-.1l-.7.4h-.1c-.1,0-.1-.1-.1-.2v-1.1c0-.1,0-.2.1-.2s0-.2.1-.2Z"/><path class="r" d="M177.9,199.1l28.7-16.6c.4-.3.8-.1.8.3a1.5,1.5,0,0,1-.8,1.2l-28.7,16.7c-.4.2-.7,0-.7-.4A1.5,1.5,0,0,1,177.9,199.1Z"/><path class="s" d="M188.9,211.8,267,166.6c.4-.2.7-.1.7.4a1.5,1.5,0,0,1-.7,1.2l-78.1,45.1c-.4.3-.8.1-.8-.3A1.5,1.5,0,0,1,188.9,211.8Z"/><path class="s" d="M188.9,218.1l10.9-6.3c.4-.2.7-.1.7.4a1.7,1.7,0,0,1-.7,1.2l-10.9,6.3c-.4.2-.8.1-.8-.4A1.6,1.6,0,0,1,188.9,218.1Z"/><path class="s" d="M188.9,224.4l10.9-6.3c.4-.2.7,0,.7.4a1.5,1.5,0,0,1-.7,1.2L188.9,226c-.4.3-.8.1-.8-.3A1.8,1.8,0,0,1,188.9,224.4Z"/><path class="r" d="M209.5,180.8l63-36.4c.4-.2.7-.1.7.4a1.7,1.7,0,0,1-.7,1.2l-63,36.4c-.4.2-.8.1-.8-.4A1.8,1.8,0,0,1,209.5,180.8Z"/><path class="r" d="M189.1,262.3l17.5-10.1c.4-.2.8-.1.8.4a1.8,1.8,0,0,1-.8,1.2l-17.5,10.1c-.4.2-.7,0-.7-.4A1.5,1.5,0,0,1,189.1,262.3Z"/><path class="r" d="M209.5,250.6l63-36.5c.4-.2.7,0,.7.4a1.5,1.5,0,0,1-.7,1.2l-63,36.4c-.4.3-.8.1-.8-.3A1.5,1.5,0,0,1,209.5,250.6Z"/><path class="r" d="M209.5,231.6l63-36.5c.4-.2.7,0,.7.4a1.5,1.5,0,0,1-.7,1.2l-63,36.5c-.4.2-.8,0-.8-.4A1.5,1.5,0,0,1,209.5,231.6Z"/><path class="r" d="M209.5,237.9l63-36.4c.4-.3.7-.1.7.3a1.7,1.7,0,0,1-.7,1.3l-63,36.4c-.4.2-.8.1-.8-.4A1.6,1.6,0,0,1,209.5,237.9Z"/><path class="h" d="M189.1,256l17.5-10.1c.4-.3.8-.1.8.3a1.5,1.5,0,0,1-.8,1.2l-17.5,10.1c-.4.3-.7.1-.7-.3A1.4,1.4,0,0,1,189.1,256Z"/><path class="r" d="M203.3,235.1l2.2-1.3c.4-.2.7,0,.7.4a1.4,1.4,0,0,1-.7,1.2l-2.2,1.3c-.4.2-.7.1-.7-.4A1.7,1.7,0,0,1,203.3,235.1Z"/><path class="f" d="M177.9,205.4l14.5-8.4c.4-.2.7,0,.7.4a1.5,1.5,0,0,1-.7,1.2L177.9,207c-.4.3-.7.1-.7-.3A1.7,1.7,0,0,1,177.9,205.4Z"/><path class="t" d="M177.9,205.4l14.5-8.4c.4-.2.7,0,.7.4a1.5,1.5,0,0,1-.7,1.2L177.9,207c-.4.3-.7.1-.7-.3A1.7,1.7,0,0,1,177.9,205.4Z"/><path class="f" d="M177.9,211.8l6.8-3.9c.4-.3.7-.1.7.3a1.4,1.4,0,0,1-.7,1.2l-6.8,4c-.4.2-.7,0-.7-.4A1.4,1.4,0,0,1,177.9,211.8Z"/><path class="t" d="M177.9,211.8l6.8-3.9c.4-.3.7-.1.7.3a1.4,1.4,0,0,1-.7,1.2l-6.8,4c-.4.2-.7,0-.7-.4A1.4,1.4,0,0,1,177.9,211.8Z"/><path class="f" d="M177.9,218.1l6.8-3.9c.4-.2.7-.1.7.4a1.7,1.7,0,0,1-.7,1.2l-6.8,3.9c-.4.2-.7.1-.7-.4A1.5,1.5,0,0,1,177.9,218.1Z"/><path class="t" d="M177.9,218.1l6.8-3.9c.4-.2.7-.1.7.4a1.7,1.7,0,0,1-.7,1.2l-6.8,3.9c-.4.2-.7.1-.7-.4A1.5,1.5,0,0,1,177.9,218.1Z"/><path class="f" d="M177.9,224.4l6.8-3.9c.4-.2.7,0,.7.4a1.5,1.5,0,0,1-.7,1.2l-6.8,3.9c-.4.3-.7.1-.7-.3A1.7,1.7,0,0,1,177.9,224.4Z"/><path class="t" d="M177.9,224.4l6.8-3.9c.4-.2.7,0,.7.4a1.5,1.5,0,0,1-.7,1.2l-6.8,3.9c-.4.3-.7.1-.7-.3A1.7,1.7,0,0,1,177.9,224.4Z"/><path class="f" d="M177.9,230.8l6.8-3.9c.4-.3.7-.1.7.3a1.7,1.7,0,0,1-.7,1.3l-6.8,3.9c-.4.2-.7,0-.7-.4A1.5,1.5,0,0,1,177.9,230.8Z"/><path class="t" d="M177.9,230.8l6.8-3.9c.4-.3.7-.1.7.3a1.7,1.7,0,0,1-.7,1.3l-6.8,3.9c-.4.2-.7,0-.7-.4A1.5,1.5,0,0,1,177.9,230.8Z"/><path class="f" d="M195.2,195.4l8.7-5c.4-.2.7-.1.7.4a1.5,1.5,0,0,1-.7,1.2l-8.7,5c-.4.2-.7.1-.7-.4A1.5,1.5,0,0,1,195.2,195.4Z"/><path class="t" d="M195.2,195.4l8.7-5c.4-.2.7-.1.7.4a1.5,1.5,0,0,1-.7,1.2l-8.7,5c-.4.2-.7.1-.7-.4A1.5,1.5,0,0,1,195.2,195.4Z"/><path class="h" d="M208.6,225.7l63.9-36.9c.4-.2.7-.1.7.4a1.5,1.5,0,0,1-.7,1.2l-63.9,36.9c-.4.3-.7.1-.7-.3A1.7,1.7,0,0,1,208.6,225.7Z"/><path class="h" d="M263.8,187.4l8.7-4.9c.4-.3.7-.1.7.3a1.4,1.4,0,0,1-.7,1.2l-8.7,5c-.4.3-.7.1-.7-.3A1.7,1.7,0,0,1,263.8,187.4Z"/><path class="h" d="M197.1,226,261,189.1c.4-.2.7-.1.7.4a1.7,1.7,0,0,1-.7,1.2l-63.9,36.9c-.4.2-.7.1-.7-.4A1.7,1.7,0,0,1,197.1,226Z"/><path class="f" d="M188.9,205.4l14.4-8.4c.4-.2.8,0,.8.4a1.6,1.6,0,0,1-.8,1.2L188.9,207c-.4.2-.8.1-.8-.4A1.8,1.8,0,0,1,188.9,205.4Z"/><path class="t" d="M188.9,205.4l14.4-8.4c.4-.2.8,0,.8.4a1.6,1.6,0,0,1-.8,1.2L188.9,207c-.4.2-.8.1-.8-.4A1.8,1.8,0,0,1,188.9,205.4Z"/><path class="f" d="M206.2,195.4l58-33.5c.5-.3.8-.1.8.3a1.3,1.3,0,0,1-.8,1.2l-58,33.6c-.4.2-.8,0-.8-.4A1.6,1.6,0,0,1,206.2,195.4Z"/><path class="t" d="M206.2,195.4l58-33.5c.5-.3.8-.1.8.3a1.3,1.3,0,0,1-.8,1.2l-58,33.6c-.4.2-.8,0-.8-.4A1.6,1.6,0,0,1,206.2,195.4Z"/><g class="u"><path class="h" d="M167.3,203.9l4-2.3c.4-.3.7-.1.7.4v1.4a1.6,1.6,0,0,1-.7,1.3l-4,2.3c-.4.2-.7,0-.7-.4v-1.5A1.5,1.5,0,0,1,167.3,203.9Z"/><path class="h" d="M167.3,210.3l4-2.3c.4-.3.7-.1.7.4v1.4a1.6,1.6,0,0,1-.7,1.3l-4,2.3c-.4.2-.7,0-.7-.4v-1.5A1.5,1.5,0,0,1,167.3,210.3Z"/><path class="h" d="M167.3,216.7l4-2.3c.4-.3.7-.1.7.4v1.4a1.6,1.6,0,0,1-.7,1.3l-4,2.3c-.4.2-.7,0-.7-.4v-1.5A1.5,1.5,0,0,1,167.3,216.7Z"/><path class="h" d="M167.3,223.1l4-2.3c.4-.3.7-.1.7.4v1.4a1.6,1.6,0,0,1-.7,1.3l-4,2.3c-.4.2-.7,0-.7-.4v-1.5A1.5,1.5,0,0,1,167.3,223.1Z"/><path class="h" d="M167.3,229.5l4-2.3c.4-.3.7-.1.7.4V229a1.6,1.6,0,0,1-.7,1.3l-4,2.3c-.4.2-.7,0-.7-.4v-1.5A1.5,1.5,0,0,1,167.3,229.5Z"/><path class="h" d="M167.3,235.9l4-2.3c.4-.3.7-.1.7.4v1.4a1.6,1.6,0,0,1-.7,1.3l-4,2.3c-.4.2-.7,0-.7-.4v-1.5A1.5,1.5,0,0,1,167.3,235.9Z"/><path class="h" d="M167.3,242.3l4-2.3c.4-.3.7-.1.7.4v1.4a1.6,1.6,0,0,1-.7,1.3l-4,2.3c-.4.2-.7,0-.7-.4v-1.5A1.5,1.5,0,0,1,167.3,242.3Z"/><path class="h" d="M167.3,248.7l4-2.3c.4-.3.7-.1.7.4v1.4a1.6,1.6,0,0,1-.7,1.3l-4,2.3c-.4.2-.7,0-.7-.4v-1.5A1.5,1.5,0,0,1,167.3,248.7Z"/><path class="h" d="M167.3,255.1l4-2.3c.4-.3.7-.1.7.4v1.4a1.6,1.6,0,0,1-.7,1.3l-4,2.3c-.4.2-.7,0-.7-.4v-1.5A1.5,1.5,0,0,1,167.3,255.1Z"/><path class="h" d="M167.3,261.5l4-2.3c.4-.3.7-.1.7.4V261a1.6,1.6,0,0,1-.7,1.3l-4,2.3c-.4.2-.7,0-.7-.4v-1.5A1.4,1.4,0,0,1,167.3,261.5Z"/><path class="h" d="M167.3,267.9l4-2.3c.4-.3.7-.1.7.4v1.4a1.6,1.6,0,0,1-.7,1.3l-4,2.3c-.4.2-.7,0-.7-.4v-1.5A1.4,1.4,0,0,1,167.3,267.9Z"/><path class="h" d="M167.3,274.3l4-2.3c.4-.3.7-.1.7.4v1.4a1.6,1.6,0,0,1-.7,1.3l-4,2.3c-.4.2-.7,0-.7-.4v-1.5A1.4,1.4,0,0,1,167.3,274.3Z"/></g><path class="o" d="M140.9,207.2l21.5-12.4c.8-.4,1.5-.1,1.5.8v24.9a3.3,3.3,0,0,1-1.5,2.5l-21.5,12.4c-.8.5-1.4.1-1.4-.8V209.7A3.2,3.2,0,0,1,140.9,207.2Z"/><path class="f" d="M142.9,229.6l2-1.2c.4-.2.7,0,.7.4a1.5,1.5,0,0,1-.7,1.2l-2,1.2c-.4.2-.7,0-.7-.4A1.4,1.4,0,0,1,142.9,229.6Z"/><path class="t" d="M142.9,229.6l2-1.2c.4-.2.7,0,.7.4a1.5,1.5,0,0,1-.7,1.2l-2,1.2c-.4.2-.7,0-.7-.4A1.4,1.4,0,0,1,142.9,229.6Z"/><path class="f" d="M142.9,209.2l2-1.1c.4-.3.7-.1.7.3a1.7,1.7,0,0,1-.7,1.3l-2,1.1c-.4.2-.7.1-.7-.4A1.7,1.7,0,0,1,142.9,209.2Z"/><path class="t" d="M142.9,209.2l2-1.1c.4-.3.7-.1.7.3a1.7,1.7,0,0,1-.7,1.3l-2,1.1c-.4.2-.7.1-.7-.4A1.7,1.7,0,0,1,142.9,209.2Z"/><path class="f" d="M145.7,211.7l2-1.2c.4-.2.7,0,.7.4a1.5,1.5,0,0,1-.7,1.2l-2,1.2c-.4.2-.7,0-.7-.4A1.4,1.4,0,0,1,145.7,211.7Z"/><path class="t" d="M145.7,211.7l2-1.2c.4-.2.7,0,.7.4a1.5,1.5,0,0,1-.7,1.2l-2,1.2c-.4.2-.7,0-.7-.4A1.4,1.4,0,0,1,145.7,211.7Z"/><path class="f" d="M145.7,215.7l2-1.1c.4-.2.7-.1.7.4a1.7,1.7,0,0,1-.7,1.2l-2,1.1c-.4.2-.7.1-.7-.4A1.7,1.7,0,0,1,145.7,215.7Z"/><path class="t" d="M145.7,215.7l2-1.1c.4-.2.7-.1.7.4a1.7,1.7,0,0,1-.7,1.2l-2,1.1c-.4.2-.7.1-.7-.4A1.7,1.7,0,0,1,145.7,215.7Z"/><path class="f" d="M142.9,221.4l2-1.1c.4-.2.7-.1.7.4a1.7,1.7,0,0,1-.7,1.2l-2,1.1c-.4.2-.7.1-.7-.4A1.7,1.7,0,0,1,142.9,221.4Z"/><path class="t" d="M142.9,221.4l2-1.1c.4-.2.7-.1.7.4a1.7,1.7,0,0,1-.7,1.2l-2,1.1c-.4.2-.7.1-.7-.4A1.7,1.7,0,0,1,142.9,221.4Z"/><path class="f" d="M145.7,223.9l2-1.2c.4-.2.7,0,.7.4a1.4,1.4,0,0,1-.7,1.2l-2,1.2c-.4.2-.7,0-.7-.4A1.5,1.5,0,0,1,145.7,223.9Z"/><path class="t" d="M145.7,223.9l2-1.2c.4-.2.7,0,.7.4a1.4,1.4,0,0,1-.7,1.2l-2,1.2c-.4.2-.7,0-.7-.4A1.5,1.5,0,0,1,145.7,223.9Z"/><path class="f" d="M148.3,206.1l12.1-7c.5-.2.8-.1.8.4a1.4,1.4,0,0,1-.8,1.2l-12.1,7c-.4.2-.7,0-.7-.4A1.5,1.5,0,0,1,148.3,206.1Z"/><path class="v" d="M148.3,206.1l12.1-7c.5-.2.8-.1.8.4a1.4,1.4,0,0,1-.8,1.2l-12.1,7c-.4.2-.7,0-.7-.4A1.5,1.5,0,0,1,148.3,206.1Z"/><path class="f" d="M148.3,226.4l12.1-6.9c.5-.3.8-.1.8.3a1.3,1.3,0,0,1-.8,1.2l-12.1,7c-.4.3-.7.1-.7-.3A1.7,1.7,0,0,1,148.3,226.4Z"/><path class="v" d="M148.3,226.4l12.1-6.9c.5-.3.8-.1.8.3a1.3,1.3,0,0,1-.8,1.2l-12.1,7c-.4.3-.7.1-.7-.3A1.7,1.7,0,0,1,148.3,226.4Z"/><path class="f" d="M151.1,208.5l9.3-5.3c.5-.3.8-.1.8.3a1.6,1.6,0,0,1-.8,1.3l-9.3,5.3c-.4.3-.7.1-.7-.3A1.7,1.7,0,0,1,151.1,208.5Z"/><path class="v" d="M151.1,208.5l9.3-5.3c.5-.3.8-.1.8.3a1.6,1.6,0,0,1-.8,1.3l-9.3,5.3c-.4.3-.7.1-.7-.3A1.7,1.7,0,0,1,151.1,208.5Z"/><path class="f" d="M151.1,212.6l9.3-5.4c.5-.2.8,0,.8.4a1.4,1.4,0,0,1-.8,1.2l-9.3,5.4c-.4.2-.7.1-.7-.4A1.5,1.5,0,0,1,151.1,212.6Z"/><path class="v" d="M151.1,212.6l9.3-5.4c.5-.2.8,0,.8.4a1.4,1.4,0,0,1-.8,1.2l-9.3,5.4c-.4.2-.7.1-.7-.4A1.5,1.5,0,0,1,151.1,212.6Z"/><path class="f" d="M148.3,218.3l12.1-7c.5-.2.8-.1.8.4a1.4,1.4,0,0,1-.8,1.2l-12.1,7c-.4.2-.7.1-.7-.4A1.5,1.5,0,0,1,148.3,218.3Z"/><path class="v" d="M148.3,218.3l12.1-7c.5-.2.8-.1.8.4a1.4,1.4,0,0,1-.8,1.2l-12.1,7c-.4.2-.7.1-.7-.4A1.5,1.5,0,0,1,148.3,218.3Z"/><path class="f" d="M151.1,220.8l9.3-5.4c.5-.3.8-.1.8.4a1.5,1.5,0,0,1-.8,1.2l-9.3,5.3c-.4.3-.7.1-.7-.3A1.4,1.4,0,0,1,151.1,220.8Z"/><path class="v" d="M151.1,220.8l9.3-5.4c.5-.3.8-.1.8.4a1.5,1.5,0,0,1-.8,1.2l-9.3,5.3c-.4.3-.7.1-.7-.3A1.4,1.4,0,0,1,151.1,220.8Z"/><path class="o" d="M140.9,240.1l21.5-12.4c.8-.5,1.5-.1,1.5.8v49.1a3,3,0,0,1-1.5,2.5l-21.5,12.5c-.8.4-1.4.1-1.4-.9V242.6A3.2,3.2,0,0,1,140.9,240.1Z"/><path class="f" d="M142.9,242.1l2-1.2c.4-.2.7,0,.7.4a1.4,1.4,0,0,1-.7,1.2l-2,1.2c-.4.2-.7,0-.7-.4A1.5,1.5,0,0,1,142.9,242.1Z"/><path class="t" d="M142.9,242.1l2-1.2c.4-.2.7,0,.7.4a1.4,1.4,0,0,1-.7,1.2l-2,1.2c-.4.2-.7,0-.7-.4A1.5,1.5,0,0,1,142.9,242.1Z"/><path class="f" d="M145.7,244.5l2-1.1c.4-.2.7-.1.7.4a1.5,1.5,0,0,1-.7,1.2l-2,1.1c-.4.3-.7.1-.7-.3A1.7,1.7,0,0,1,145.7,244.5Z"/><path class="t" d="M145.7,244.5l2-1.1c.4-.2.7-.1.7.4a1.5,1.5,0,0,1-.7,1.2l-2,1.1c-.4.3-.7.1-.7-.3A1.7,1.7,0,0,1,145.7,244.5Z"/><path class="f" d="M145.7,248.6l2-1.1c.4-.3.7-.1.7.3a1.4,1.4,0,0,1-.7,1.2l-2,1.2c-.4.2-.7.1-.7-.4A1.5,1.5,0,0,1,145.7,248.6Z"/><path class="t" d="M145.7,248.6l2-1.1c.4-.3.7-.1.7.3a1.4,1.4,0,0,1-.7,1.2l-2,1.2c-.4.2-.7.1-.7-.4A1.5,1.5,0,0,1,145.7,248.6Z"/><path class="f" d="M142.9,254.3l2-1.1c.4-.3.7-.1.7.3a1.4,1.4,0,0,1-.7,1.2l-2,1.2c-.4.2-.7.1-.7-.4A1.5,1.5,0,0,1,142.9,254.3Z"/><path class="t" d="M142.9,254.3l2-1.1c.4-.3.7-.1.7.3a1.4,1.4,0,0,1-.7,1.2l-2,1.2c-.4.2-.7.1-.7-.4A1.5,1.5,0,0,1,142.9,254.3Z"/><path class="f" d="M148.3,239l12.1-7c.5-.3.8-.1.8.3a1.6,1.6,0,0,1-.8,1.3l-12.1,6.9c-.4.3-.7.1-.7-.3A1.4,1.4,0,0,1,148.3,239Z"/><path class="v" d="M148.3,239l12.1-7c.5-.3.8-.1.8.3a1.6,1.6,0,0,1-.8,1.3l-12.1,6.9c-.4.3-.7.1-.7-.3A1.4,1.4,0,0,1,148.3,239Z"/><path class="f" d="M151.1,241.4l9.3-5.4c.5-.2.8,0,.8.4a1.4,1.4,0,0,1-.8,1.2l-9.3,5.4c-.4.2-.7.1-.7-.4A1.5,1.5,0,0,1,151.1,241.4Z"/><path class="v" d="M151.1,241.4l9.3-5.4c.5-.2.8,0,.8.4a1.4,1.4,0,0,1-.8,1.2l-9.3,5.4c-.4.2-.7.1-.7-.4A1.5,1.5,0,0,1,151.1,241.4Z"/><path class="f" d="M151.1,245.5l9.3-5.4c.5-.2.8-.1.8.4a1.4,1.4,0,0,1-.8,1.2l-9.3,5.4c-.4.2-.7,0-.7-.4A1.5,1.5,0,0,1,151.1,245.5Z"/><path class="v" d="M151.1,245.5l9.3-5.4c.5-.2.8-.1.8.4a1.4,1.4,0,0,1-.8,1.2l-9.3,5.4c-.4.2-.7,0-.7-.4A1.5,1.5,0,0,1,151.1,245.5Z"/><path class="f" d="M148.3,251.2l12.1-7c.5-.2.8-.1.8.4a1.5,1.5,0,0,1-.8,1.2l-12.1,7c-.4.2-.7,0-.7-.4A1.4,1.4,0,0,1,148.3,251.2Z"/><path class="v" d="M148.3,251.2l12.1-7c.5-.2.8-.1.8.4a1.5,1.5,0,0,1-.8,1.2l-12.1,7c-.4.2-.7,0-.7-.4A1.4,1.4,0,0,1,148.3,251.2Z"/><path class="f" d="M145.7,256.8l2-1.2c.4-.2.7,0,.7.4a1.5,1.5,0,0,1-.7,1.2l-2,1.2c-.4.2-.7,0-.7-.4A1.5,1.5,0,0,1,145.7,256.8Z"/><path class="t" d="M145.7,256.8l2-1.2c.4-.2.7,0,.7.4a1.5,1.5,0,0,1-.7,1.2l-2,1.2c-.4.2-.7,0-.7-.4A1.5,1.5,0,0,1,145.7,256.8Z"/><path class="f" d="M145.7,260.8l2-1.1c.4-.2.7-.1.7.4a1.5,1.5,0,0,1-.7,1.2l-2,1.1c-.4.3-.7.1-.7-.3A1.7,1.7,0,0,1,145.7,260.8Z"/><path class="t" d="M145.7,260.8l2-1.1c.4-.2.7-.1.7.4a1.5,1.5,0,0,1-.7,1.2l-2,1.1c-.4.3-.7.1-.7-.3A1.7,1.7,0,0,1,145.7,260.8Z"/><path class="f" d="M151.1,253.6l9.3-5.3c.5-.3.8-.1.8.3a1.6,1.6,0,0,1-.8,1.3l-9.3,5.3c-.4.3-.7.1-.7-.3A1.7,1.7,0,0,1,151.1,253.6Z"/><path class="v" d="M151.1,253.6l9.3-5.3c.5-.3.8-.1.8.3a1.6,1.6,0,0,1-.8,1.3l-9.3,5.3c-.4.3-.7.1-.7-.3A1.7,1.7,0,0,1,151.1,253.6Z"/><path class="f" d="M151.1,257.7l9.3-5.3c.5-.3.8-.1.8.3a1.3,1.3,0,0,1-.8,1.2l-9.3,5.4c-.4.2-.7.1-.7-.4A1.7,1.7,0,0,1,151.1,257.7Z"/><path class="v" d="M151.1,257.7l9.3-5.3c.5-.3.8-.1.8.3a1.3,1.3,0,0,1-.8,1.2l-9.3,5.4c-.4.2-.7.1-.7-.4A1.7,1.7,0,0,1,151.1,257.7Z"/><path class="f" d="M142.9,274.7l2-1.1c.4-.3.7-.1.7.3a1.4,1.4,0,0,1-.7,1.2l-2,1.2c-.4.2-.7.1-.7-.4A1.5,1.5,0,0,1,142.9,274.7Z"/><path class="t" d="M142.9,274.7l2-1.1c.4-.3.7-.1.7.3a1.4,1.4,0,0,1-.7,1.2l-2,1.2c-.4.2-.7.1-.7-.4A1.5,1.5,0,0,1,142.9,274.7Z"/><path class="f" d="M148.3,271.6l12.1-7c.5-.2.8-.1.8.4a1.5,1.5,0,0,1-.8,1.2l-12.1,7c-.4.2-.7,0-.7-.4A1.5,1.5,0,0,1,148.3,271.6Z"/><path class="v" d="M148.3,271.6l12.1-7c.5-.2.8-.1.8.4a1.5,1.5,0,0,1-.8,1.2l-12.1,7c-.4.2-.7,0-.7-.4A1.5,1.5,0,0,1,148.3,271.6Z"/><path class="f" d="M145.7,277.2l2-1.2c.4-.2.7,0,.7.4a1.5,1.5,0,0,1-.7,1.2l-2,1.2c-.4.2-.7,0-.7-.4A1.5,1.5,0,0,1,145.7,277.2Z"/><path class="t" d="M145.7,277.2l2-1.2c.4-.2.7,0,.7.4a1.5,1.5,0,0,1-.7,1.2l-2,1.2c-.4.2-.7,0-.7-.4A1.5,1.5,0,0,1,145.7,277.2Z"/><path class="f" d="M145.7,281.2l2-1.1c.4-.2.7-.1.7.4a1.5,1.5,0,0,1-.7,1.2l-2,1.1c-.4.3-.7.1-.7-.3A1.7,1.7,0,0,1,145.7,281.2Z"/><path class="t" d="M145.7,281.2l2-1.1c.4-.2.7-.1.7.4a1.5,1.5,0,0,1-.7,1.2l-2,1.1c-.4.3-.7.1-.7-.3A1.7,1.7,0,0,1,145.7,281.2Z"/><path class="f" d="M151.1,274.1l9.3-5.4c.5-.2.8-.1.8.4a1.5,1.5,0,0,1-.8,1.2l-9.3,5.3c-.4.3-.7.1-.7-.3A1.4,1.4,0,0,1,151.1,274.1Z"/><path class="v" d="M151.1,274.1l9.3-5.4c.5-.2.8-.1.8.4a1.5,1.5,0,0,1-.8,1.2l-9.3,5.3c-.4.3-.7.1-.7-.3A1.4,1.4,0,0,1,151.1,274.1Z"/><path class="f" d="M151.1,278.1l9.3-5.3c.5-.3.8-.1.8.3a1.3,1.3,0,0,1-.8,1.2l-9.3,5.4c-.4.2-.7.1-.7-.4A1.7,1.7,0,0,1,151.1,278.1Z"/><path class="v" d="M151.1,278.1l9.3-5.3c.5-.3.8-.1.8.3a1.3,1.3,0,0,1-.8,1.2l-9.3,5.4c-.4.2-.7.1-.7-.4A1.7,1.7,0,0,1,151.1,278.1Z"/><path class="f" d="M145.7,264.9l2-1.2c.4-.2.7,0,.7.4a1.5,1.5,0,0,1-.7,1.2l-2,1.2c-.4.2-.7,0-.7-.4A1.5,1.5,0,0,1,145.7,264.9Z"/><path class="t" d="M145.7,264.9l2-1.2c.4-.2.7,0,.7.4a1.5,1.5,0,0,1-.7,1.2l-2,1.2c-.4.2-.7,0-.7-.4A1.5,1.5,0,0,1,145.7,264.9Z"/><path class="f" d="M142.9,270.6l2-1.2c.4-.2.7,0,.7.4a1.5,1.5,0,0,1-.7,1.2l-2,1.2c-.4.2-.7,0-.7-.4A1.5,1.5,0,0,1,142.9,270.6Z"/><path class="t" d="M142.9,270.6l2-1.2c.4-.2.7,0,.7.4a1.5,1.5,0,0,1-.7,1.2l-2,1.2c-.4.2-.7,0-.7-.4A1.5,1.5,0,0,1,142.9,270.6Z"/><path class="f" d="M151.1,261.8l9.3-5.4c.5-.2.8-.1.8.4a1.5,1.5,0,0,1-.8,1.2l-9.3,5.3c-.4.3-.7.1-.7-.3A1.4,1.4,0,0,1,151.1,261.8Z"/><path class="v" d="M151.1,261.8l9.3-5.4c.5-.2.8-.1.8.4a1.5,1.5,0,0,1-.8,1.2l-9.3,5.3c-.4.3-.7.1-.7-.3A1.4,1.4,0,0,1,151.1,261.8Z"/><path class="f" d="M148.3,267.4l12.1-6.9c.5-.3.8-.1.8.3a1.3,1.3,0,0,1-.8,1.2l-12.1,7c-.4.3-.7.1-.7-.3A1.7,1.7,0,0,1,148.3,267.4Z"/><path class="v" d="M148.3,267.4l12.1-6.9c.5-.3.8-.1.8.3a1.3,1.3,0,0,1-.8,1.2l-12.1,7c-.4.3-.7.1-.7-.3A1.7,1.7,0,0,1,148.3,267.4Z"/><path class="f" d="M142.9,287l2-1.1c.4-.3.7-.1.7.3a1.4,1.4,0,0,1-.7,1.2l-2,1.2c-.4.2-.7,0-.7-.4A1.5,1.5,0,0,1,142.9,287Z"/><path class="t" d="M142.9,287l2-1.1c.4-.3.7-.1.7.3a1.4,1.4,0,0,1-.7,1.2l-2,1.2c-.4.2-.7,0-.7-.4A1.5,1.5,0,0,1,142.9,287Z"/><path class="f" d="M148.3,283.9l12.1-7c.5-.3.8-.1.8.4a1.5,1.5,0,0,1-.8,1.2l-12.1,7c-.4.2-.7,0-.7-.4A1.4,1.4,0,0,1,148.3,283.9Z"/><path class="v" d="M148.3,283.9l12.1-7c.5-.3.8-.1.8.4a1.5,1.5,0,0,1-.8,1.2l-12.1,7c-.4.2-.7,0-.7-.4A1.4,1.4,0,0,1,148.3,283.9Z"/><path class="w" d="M263.6,256.2c3.6.5,5.7,2.5,5.8,5.3s-4.3,13.4-4.3,13.4c4.9,4.4,8.2,7.3,10.5,9s7,7.4,6.8,8.6-2.2-1.3-3.5-2.6-3.9-1.5-6.7-2.8-12.3-6.2-13.5-7.9S263.6,256.2,263.6,256.2Z"/><path class="x" d="M263.3,256.1a7.9,7.9,0,0,1,3,.7,5.7,5.7,0,0,1,3.2,3.8c.2,1.6-.4,4.1-1.4,6.9a60.7,60.7,0,0,1-2.8,5.9l-2-1.6Z"/><path class="w" d="M286,334.5s.9,6.1,2.7,8.4,2.8,4.7,4.7,6.8l1.7,1.7c.3.3.3.7-.1,1.1s-4.3,1.1-6.4-.3-4-4.3-5.2-5.5l-1.6-1.5a1.8,1.8,0,0,1-.4-1.6,4.3,4.3,0,0,0,.1-.5c.3-1.2-1.3-5.8-1.3-5.8Z"/><path class="y" d="M281.7,346.4a3.1,3.1,0,0,0,.2,1.1,4.9,4.9,0,0,0,1.9,1.4,4.1,4.1,0,0,1,2,2.1,8.2,8.2,0,0,0,3.5,3.4,11.3,11.3,0,0,0,6.3.5c2.6-.5,2.8-2.1,2.8-2.1s.1-1.4-.5-1.6Z"/><path class="z" d="M281,340a13.1,13.1,0,0,1,.2,3.8,4.1,4.1,0,0,0,.5,2.6c.8,1,2.5,1.4,3.6,2.8s2.6,4.1,6.1,4.7,6-.6,6.6-1.5.1-1.9-2.2-3.1-5.5-4.9-5.5-4.9a13.4,13.4,0,0,1-2.2-3.7l-.8-2.7C287.1,337.5,281.5,339.7,281,340Z"/><path class="aa" d="M245.9,285.6c-.6,3.9-.9,6,.5,10s5.9,7,11.3,10.1,11.2,6.1,12.6,6.7,1.5,1.4,1.3,3.9.8,6.8,3.7,11.9a98.6,98.6,0,0,1,5.1,10.5,25.9,25.9,0,0,1,6.2-2.2s-5.7-26-6.9-29.3-13.9-13.8-13.9-13.8,1.2-5.3,2.2-9.2Z"/><path class="w" d="M298.7,327.7a64.6,64.6,0,0,0,3,7.5,37.6,37.6,0,0,0,4.7,6.8l1.7,1.7a.8.8,0,0,1,0,1.2c-.9.8-4.4,1.1-6.4-.4s-4-4.3-5.2-5.4l-1.6-1.6a1.7,1.7,0,0,1-.5-1.5c.1-.2.1-.4.2-.6s-1.4-5.8-1.4-5.8Z"/><path class="ab" d="M259,277.9c-.7,3.9-.9,6.1.4,10s4.6,10.1,10,13.2,11.4,5.1,12.7,5.7,1.4,1.5,1.8,4.3,1.7,5.3,4.6,10.5,5.1,9.7,5.1,9.7c1.5-1.2,4.6-1.7,6-1.8s-6.9-25.3-8.1-28.7-9.8-8.1-13.5-10.3a113.2,113.2,0,0,1-10-6.3Z"/><path class="y" d="M294.7,338.7a3.1,3.1,0,0,0,.2,1.1,4.9,4.9,0,0,0,1.9,1.4,4.1,4.1,0,0,1,2,2.1,7.2,7.2,0,0,0,3.5,3.4,9.8,9.8,0,0,0,6.3.5c2.6-.5,2.8-2,2.8-2s.1-1.5-.5-1.7Z"/><path class="ac" d="M294,332.3a13.1,13.1,0,0,1,.2,3.8,3.5,3.5,0,0,0,.5,2.6c.8,1.1,2.4,1.4,3.5,2.8s2.7,4.1,6.2,4.7,6-.5,6.6-1.5,0-1.9-2.2-3.1-5.5-4.9-5.5-4.9a13.4,13.4,0,0,1-2.2-3.7l-.7-2.5C300.2,330,294,332.3,294,332.3Z"/><path class="ad" d="M268.5,289.9a33.5,33.5,0,0,1-2.7,3.5l.8.6A10.7,10.7,0,0,0,268.5,289.9Z"/><path class="x" d="M253.9,256.5a20.1,20.1,0,0,0-4.5.6s2.7,3.3.9,9c-1.2,4-2.2,4.2-4.5,4.9,1.6,6.9-.1,16.2-.1,16.2s4.4,3.6,13.8,2.7,8.5-5.7,8.5-5.7,0-11.5-.2-16.5-4.3-11.6-4.3-11.6h-2.9Z"/><path class="ae" d="M266,287.7c-4.3.7-10.4-.2-12.5-2.4s-3.3-7.3-2.3-10.3.8-8.7.2-12.1H251a15.1,15.1,0,0,1-.7,3.3c-1.2,4-2.2,4.2-4.5,4.9,1.4,6.7-.1,16.2-.1,16.2s4.4,3.6,13.8,2.7a11.2,11.2,0,0,0,6.5-2.2Z"/><path class="j" d="M261.8,231.9c-3.4-.6-6.4.7-6.4,3.5-4.1-.1-5.8,2.2-5.8,5.2,0,5.3,2.6,11.2,7.9,12l2.9.5c5.2.8,6.9-4.9,8.2-10,.8-3,1-4.7-.6-7a4.6,4.6,0,0,0,1.5-3.8C265.4,234.8,264,232.2,261.8,231.9Z"/><path class="w" d="M267.5,236.6c1.1.9,2.6,5.7,1.5,12s-3,6.4-3.9,6.7-2.6-.3-4.2-.8l-.4,2.2s2,5,1.3,7.5-3.5-.7-5.4-2.5a18.4,18.4,0,0,1-3.3-4.9l1.3-7.5s-.5.6-2-1.1-1-3.5-.2-4.2,2.7-.2,3.2,1.4c0,0,.8-5.1,4.9-5.8S265.9,239.1,267.5,236.6Z"/><path class="j" d="M257.6,241c-1.5,1.8-1.4,4.3-1.6,5.5a1,1,0,0,1-1.2.9h0s.3-2.8-.2-3.2S255.7,240.5,257.6,241Z"/><g class="af"><path d="M260.9,254.5c-1.7-.5-5.1-2.1-5.4-3.6a3.5,3.5,0,0,0,.9,2c.9,1,4.3,2.6,4.3,2.6Z"/></g><path class="ag" d="M253.5,299.5v.4a1.3,1.3,0,0,0,.6,1.2l13.1,7.5.7.2.6-.2,23.9-13.8a1.2,1.2,0,0,0,.7-1.2v-.3l-25.2,14.6Z"/><path class="m" d="M293.1,293.3,279,285.1a1.4,1.4,0,0,0-.9,0l-24.6,14.2c-.1.1-.1.3,0,.3l14.4,8.3Z"/><path class="w" d="M272.2,287.1c1.2.4,1.1.7,2.1,1.3a4.7,4.7,0,0,0,2.9.8,17.6,17.6,0,0,0,1.6,1.4c1.3.8,2.5,1.5,4.1,1s.5-2.2,0-3a33,33,0,0,0-3.8-3.7c-.5-.5-2.8-.9-4.8-1.5Z"/><polygon class="ah" points="267.7 306.7 260.1 302.3 282.4 289.4 290.1 293.8 267.7 306.7"/><polygon class="ah" points="264 294.4 264.1 294.5 267.9 296.7 274.5 292.8 274.7 292.7 270.8 290.5 264 294.4"/><polygon class="ai" points="264.1 294.5 267.9 296.7 274.5 292.8 270.8 290.7 264.1 294.5"/><path class="ag" d="M267.9,307.9v.9l.6-.2,23.9-13.8a1.2,1.2,0,0,0,.7-1.2v-.3Z"/><g class="aj"><path class="ah" d="M267.9,307.9v.9l.6-.2,23.9-13.8a1.2,1.2,0,0,0,.7-1.2v-.3Z"/></g><path class="ag" d="M268.2,308.1a1.7,1.7,0,0,0,1.4-.1l23.8-13.7a1.6,1.6,0,0,0,.8-1.2l2.6-15.5v-.3a1.5,1.5,0,0,0-.4-1.1l-24.8,14.2a1.1,1.1,0,0,0-.5.9Z"/><path class="m" d="M267.9,307.9h.3l2.9-16.8a1.1,1.1,0,0,1,.5-.9l24.8-14.2-.4-.3-24.7,14.3a1,1,0,0,0-.6.9Z"/><path class="ah" d="M281.6,293.8a5.2,5.2,0,0,1,2.4-3.1c1.2-.7,2-.4,1.8.7a5,5,0,0,1-2.4,3C282.3,295.1,281.5,294.8,281.6,293.8Z"/><path class="w" d="M254.7,293.7c-2.8-1.4-12.9-5.3-16-7s-3.2-1.9-2.9-3.8,5.1-17.3,6.8-20.8,3.7-4.1,7-4.8c2.3,2.7.7,10.7-1.6,13.6s-4.6,10.2-4.6,10.2,5.2,3.5,9.4,6.1a35.3,35.3,0,0,0,6.5,3.2,16.1,16.1,0,0,1,4.2,2.3,35.7,35.7,0,0,1,2.5,4.8c.4.9,1.2,2.7-.5,2.9s-2.7-.6-3.8-1.7a15.1,15.1,0,0,1-1.4-1.7,5.9,5.9,0,0,1-3.4-1.3Z"/><path class="x" d="M249.9,257s-3.6.3-5.7,2.5-2.2,3.4-3.3,6.2-3.2,9.4-3.2,9.4a8.1,8.1,0,0,0,8,3l2.8-6.7a17.3,17.3,0,0,0,2.7-6.7C251.8,260.7,251.5,258.4,249.9,257Z"/><path class="ak" d="M72,323.3,46.7,308.7c-1.5-.9-1.3-2.5.5-3.5l24.3-14.1a6.9,6.9,0,0,1,6.1-.2l25.2,14.5c1.6.9,1.4,2.5-.4,3.5L78,323C76.2,324,73.5,324.2,72,323.3Z"/><path class="al" d="M111.2,294.3h0V283.4H86.7l-8.4-4.9c-1.9-1.1-5.3-.9-7.6.4l-7.9,4.5H38.4v11.2a1.9,1.9,0,0,0,1.3,2l31.6,18.3a8.3,8.3,0,0,0,7.5-.3L109.4,297C110.7,296.2,111.3,295.2,111.2,294.3Z"/><path class="al" d="M74.8,277.8a8.4,8.4,0,0,0-4.1,1.1l-7.9,4.5H38.4v11.2a1.9,1.9,0,0,0,1.3,2l31.6,18.3a6.5,6.5,0,0,0,3.5.7Z"/><path class="am" d="M41.1,283.4H38.4v11.2a1.9,1.9,0,0,0,1.3,2l1.4.9Z"/><path class="am" d="M71.8,315.1a8.3,8.3,0,0,0,6,0V302.3h-6Z"/><path class="an" d="M71.3,303.7,39.7,285.5c-2-1.2-1.7-3.1.5-4.4l30.5-17.6c2.3-1.3,5.7-1.5,7.6-.3l31.6,18.2c1.9,1.1,1.7,3.1-.5,4.4L78.8,303.4A8.3,8.3,0,0,1,71.3,303.7Z"/><path class="am" d="M71.8,300.4,45.3,285.1c-1.6-.9-1.4-2.5.5-3.6l25.6-14.8a7,7,0,0,1,6.3-.3l26.5,15.3c1.6,1,1.4,2.6-.4,3.7L78.2,300.2A6.9,6.9,0,0,1,71.8,300.4Z"/><path class="r" d="M99.6,297.2a2.9,2.9,0,0,1-1.3,2.2c-.7.4-1.3.1-1.3-.7a2.9,2.9,0,0,1,1.3-2.2C99,296.1,99.6,296.4,99.6,297.2Z"/><path class="r" d="M103.7,294.9a2.9,2.9,0,0,1-1.3,2.2c-.7.4-1.3,0-1.3-.8a2.9,2.9,0,0,1,1.3-2.2C103.1,293.7,103.7,294,103.7,294.9Z"/><path class="an" d="M107.8,292.5a2.9,2.9,0,0,1-1.3,2.2c-.7.4-1.3.1-1.3-.7a3,3,0,0,1,1.3-2.3C107.2,291.3,107.8,291.7,107.8,292.5Z"/><path class="al" d="M111.2,276.9h0V266H86.7l-8.4-4.9c-1.9-1.1-5.3-1-7.6.3L62.8,266H38.4v11.2a2,2,0,0,0,1.3,2l31.6,18.3c1.9,1.1,5.3.9,7.5-.3l30.6-17.7A2.8,2.8,0,0,0,111.2,276.9Z"/><path class="al" d="M74.8,260.4a9.5,9.5,0,0,0-4.1,1L62.8,266H38.4v11.2a2,2,0,0,0,1.3,2l31.6,18.3a7.5,7.5,0,0,0,3.5.7Z"/><path class="am" d="M41.1,266H38.4v11.2a2,2,0,0,0,1.3,2l1.4.9Z"/><path class="am" d="M71.8,297.7a8.3,8.3,0,0,0,6-.1V284.9h-6Z"/><path class="an" d="M71.3,286.3,39.7,268c-2-1.1-1.7-3,.5-4.3L70.7,246c2.3-1.2,5.7-1.4,7.6-.3L109.9,264c1.9,1.1,1.7,3.1-.5,4.4L78.8,286A8.3,8.3,0,0,1,71.3,286.3Z"/><path class="am" d="M71.8,283,45.3,267.7c-1.6-.9-1.4-2.6.5-3.7l25.6-14.7a7,7,0,0,1,6.3-.3l26.5,15.3c1.6.9,1.4,2.6-.4,3.7L78.2,282.7A7.2,7.2,0,0,1,71.8,283Z"/><path class="an" d="M99.6,279.8a2.9,2.9,0,0,1-1.3,2.2c-.7.4-1.3.1-1.3-.7a2.9,2.9,0,0,1,1.3-2.2C99,278.7,99.6,279,99.6,279.8Z"/><path class="x" d="M103.7,277.4a2.9,2.9,0,0,1-1.3,2.2c-.7.4-1.3.1-1.3-.7a2.9,2.9,0,0,1,1.3-2.2C103.1,276.3,103.7,276.6,103.7,277.4Z"/><path class="r" d="M107.8,275.1a2.9,2.9,0,0,1-1.3,2.2c-.7.4-1.3,0-1.3-.8a2.9,2.9,0,0,1,1.3-2.2C107.2,273.9,107.8,274.2,107.8,275.1Z"/><path class="al" d="M111.2,259.5h0V248.6H86.7l-8.4-4.9c-1.9-1.1-5.3-1-7.6.3l-7.9,4.6H38.4v11.3c-.1.7.3,1.4,1.3,2L71.3,280c1.9,1.2,5.3,1,7.5-.3l30.6-17.6A2.8,2.8,0,0,0,111.2,259.5Z"/><path class="al" d="M74.8,242.9a9.6,9.6,0,0,0-4.1,1.1l-7.9,4.6H38.4v11.3c-.1.7.3,1.4,1.3,2L71.3,280a6.5,6.5,0,0,0,3.5.8Z"/><path class="am" d="M41.1,248.5H38.4v11.3c-.1.7.3,1.4,1.3,2l1.4.8Z"/><path class="am" d="M71.8,280.3a8.3,8.3,0,0,0,6-.1V267.5h-6Z"/><path class="ao" d="M71.3,268.9,39.7,250.6c-2-1.1-1.7-3.1.5-4.4l30.5-17.6c2.3-1.3,5.7-1.4,7.6-.3l31.6,18.3c1.9,1.1,1.7,3-.5,4.3L78.8,268.5C76.6,269.8,73.2,270,71.3,268.9Z"/><path class="h" d="M109.4,248.8,78.8,266.4a8.3,8.3,0,0,1-7.5.3L39.7,248.5a3,3,0,0,1-1-.9c-.7,1.1-.4,2.2,1,3l31.6,18.3c1.9,1.1,5.3.9,7.5-.4l30.6-17.6c1.7-1,2.2-2.4,1.5-3.5A4.1,4.1,0,0,1,109.4,248.8Z"/><path class="x" d="M99.6,262.4a2.9,2.9,0,0,1-1.3,2.2c-.7.4-1.3.1-1.3-.8a2.9,2.9,0,0,1,1.3-2.2C99,261.2,99.6,261.6,99.6,262.4Z"/><path class="an" d="M103.7,260a2.9,2.9,0,0,1-1.3,2.2c-.7.4-1.3.1-1.3-.7a2.9,2.9,0,0,1,1.3-2.2C103.1,258.8,103.7,259.2,103.7,260Z"/><path class="an" d="M107.8,257.6a2.9,2.9,0,0,1-1.3,2.2c-.7.4-1.3.1-1.3-.7a2.9,2.9,0,0,1,1.3-2.2C107.2,256.5,107.8,256.8,107.8,257.6Z"/><path class="am" d="M73.1,257.5,58.3,249c-.9-.5-.8-1.4.3-2l14.3-8.3a3.6,3.6,0,0,1,3.5-.1l14.8,8.5c.9.5.8,1.4-.2,2l-14.3,8.3A3.8,3.8,0,0,1,73.1,257.5Z"/><path class="an" d="M74.6,250.4l-2.1-1.2a.2.2,0,0,1,0-.3l2-1.1a.4.4,0,0,1,.5,0l2.1,1.1c.1.1.1.2-.1.3l-2,1.2Z"/><path class="al" d="M58.3,249h.3l14.3-8.3a3.9,3.9,0,0,1,3.5-.1L91.2,249c.8-.6.9-1.4,0-1.9l-14.8-8.5a3.6,3.6,0,0,0-3.5.1L58.6,247C57.5,247.6,57.4,248.5,58.3,249Z"/><path class="x" d="M69.2,272c0,.6-.4.8-.8.5a1.7,1.7,0,0,1-.9-1.4c0-.6.4-.8.9-.5A1.8,1.8,0,0,1,69.2,272Z"/><path class="r" d="M66.6,270.5c0,.6-.4.8-.9.5a1.9,1.9,0,0,1-.9-1.5c0-.5.4-.7.9-.5A2,2,0,0,1,66.6,270.5Z"/><path class="r" d="M69.2,275.3a.5.5,0,0,1-.8.5,2,2,0,0,1-.9-1.5c0-.6.4-.8.9-.5A1.9,1.9,0,0,1,69.2,275.3Z"/><path class="r" d="M66.6,273.7c0,.6-.4.8-.9.5a1.7,1.7,0,0,1-.9-1.5c0-.5.4-.7.9-.5A2,2,0,0,1,66.6,273.7Z"/><path class="an" d="M69.2,289.4c0,.5-.4.8-.8.5a2,2,0,0,1-.9-1.5c0-.6.4-.8.9-.5A2,2,0,0,1,69.2,289.4Z"/><path class="an" d="M66.6,287.9c0,.5-.4.7-.9.5a2,2,0,0,1-.9-1.5c0-.6.4-.8.9-.5A1.7,1.7,0,0,1,66.6,287.9Z"/><path class="r" d="M69.2,292.6c0,.6-.4.8-.8.5a1.9,1.9,0,0,1-.9-1.5.6.6,0,0,1,.9-.5A2.2,2.2,0,0,1,69.2,292.6Z"/><path class="x" d="M66.6,291.1c0,.5-.4.7-.9.5a2,2,0,0,1-.9-1.5c0-.6.4-.8.9-.5A1.9,1.9,0,0,1,66.6,291.1Z"/><path class="an" d="M69.2,306.7c0,.6-.4.8-.8.5a1.7,1.7,0,0,1-.9-1.5c0-.5.4-.7.9-.5A2.2,2.2,0,0,1,69.2,306.7Z"/><path class="r" d="M66.6,305.2c0,.6-.4.8-.9.5a1.9,1.9,0,0,1-.9-1.5.6.6,0,0,1,.9-.5A2,2,0,0,1,66.6,305.2Z"/><path class="x" d="M69.2,310a.5.5,0,0,1-.8.4,1.7,1.7,0,0,1-.9-1.4c0-.6.4-.8.9-.5A1.9,1.9,0,0,1,69.2,310Z"/><path class="an" d="M66.6,308.4c0,.6-.4.8-.9.5a1.9,1.9,0,0,1-.9-1.5c0-.5.4-.7.9-.5A2,2,0,0,1,66.6,308.4Z"/></g></svg>