<svg xmlns="http://www.w3.org/2000/svg" xmlns:xlink="http://www.w3.org/1999/xlink" viewBox="0 0 400 400"><defs><style>.a{fill:url(#a);}.b{fill:#d1ebff;}.c{fill-rule:evenodd;opacity:0.61;fill:url(#b);}.d{font-size:39.99px;font-family:AdobeArabic-Regular, Adobe Arabic;}.aa,.d{fill:#fff;}.e{opacity:0.5;}.f{fill:#1f364c;}.g{fill:#21e2e2;}.h{fill:#ffbc98;}.i{fill:#288ed9;}.j{fill:#137fcf;}.k,.l,.m,.r,.w,.y{fill:none;}.l,.m{stroke:#288ed9;}.l{stroke-width:0.3px;}.m,.r{stroke-linecap:round;stroke-miterlimit:10;stroke-width:1.2px;}.n{fill:url(#c);}.o{fill:#024679;}.p,.t{fill:#005b9f;}.p{opacity:0.57;isolation:isolate;}.q{fill:#043c67;}.r{stroke:#1f364c;}.s{fill:#166eaf;}.u{fill:#0e71bb;}.v{fill:#52acea;}.w{stroke:#ffbc98;}.w,.y{stroke-width:0.6px;}.x{fill:#80c9ff;}.y{stroke:#21e2e2;}.z{fill:#d6eeff;}</style><linearGradient id="a" x1="683.89" y1="688.82" x2="683.89" y2="689.43" gradientTransform="matrix(740.56, 0, 0, -612.51, -506259.27, 422308.35)" gradientUnits="userSpaceOnUse"><stop offset="0" stop-color="#c6e6ff"/><stop offset="1" stop-color="#fff"/></linearGradient><linearGradient id="b" x1="113.32" y1="137.5" x2="328.66" y2="137.5" gradientUnits="userSpaceOnUse"><stop offset="0" stop-color="#288ed9"/><stop offset="1" stop-color="#137fcf" stop-opacity="0.05"/></linearGradient><linearGradient id="c" x1="683.3" y1="694.08" x2="683.3" y2="693.31" gradientTransform="matrix(531, 0, 0, -95, -362671.41, 66183.44)" xlink:href="#b"/></defs><title>foreigndedicatedserver</title><path class="a" d="M204.9,78.1C263.7,115.6,331,132.5,331,132.5s74.1,11.2,46.8,95.6S347,342.8,304.3,344.9c-40.6,1.2-63.3-15.5-103.4-12.7-35.2,2.8-59.5,18.6-118.4-4.6C-11.8,286-4.8-54.2,204.9,78.1Z"/><circle class="b" cx="221" cy="139" r="107.7" transform="translate(-33.6 197) rotate(-45)"/><path class="c" d="M221,31.3a109.1,109.1,0,0,1,29.9,4.2,20,20,0,0,0-.7,9.5c1.6,11.2-4.3,22.2-17.4,18.5s-9.9,11.8-30.3,9.6c-17.2-1.8-35.5-11-35.3-27.4A107.6,107.6,0,0,1,221,31.3Zm48.1,11.3c5.2,12,9.2,30.9-10.1,41-29.7,15.5-52.5,15-49.3,34.5s1.9,23-1.6,27.3,2,11.4,12.8,8.3c0,0,2.4-1.7,2.9.6s-6.4,10,.1,18,18.8,3.5,25.2-.8,20.1,5.9,22.9,14.4.8,17,14.2,16.7,8.4-19,8.3-27.8,1.1-27.1,13.7-26.6,8.7-5.4,14.6-7.3a11.7,11.7,0,0,1,5.8-.3c0-.5.1-1.1.1-1.6a107.8,107.8,0,0,0-59.6-96.4Zm-7,161.2s3.6-4.4,7.4-2.4,4.7,8.7,1.9,10.2-12-4.2-9.3-7.8Zm-66.4,39.9c10.8-13.1-.5-26-7.1-32.1s11.2-33.8-10.5-34.3-33.4-15.5-16.8-17.4,10.1-11.3,11.7-18.8,7.3-.8,18-4.5-5.1-26.5-15.8-26-7.5,16.3-13.7,14.2-7.7-15.5,1.1-18.2,9.6-10.2,6.7-16.6-17.9,0-21.2-11c-1.6-5.5-5.8-8-9.6-9.2A107.2,107.2,0,0,0,113.3,139q0,3.5.3,6.9c14.7,9.9,29.6,31.9,27.6,43.4-2.7,15.3,11.2,23.4,17.4,27.9,3.2,2.4,4.4,8,4.8,12.8A107.8,107.8,0,0,0,195.7,243.7Z"/><text class="d" transform="translate(-60.1 -44.3)">)جراخ یصاصتخا روس( هحفص یلصا ریوصت</text><g class="e"><rect class="f" x="100.3" y="173.3" width="32.8" height="1.16"/><rect class="f" x="100.3" y="176.4" width="32.8" height="1.16"/><rect class="f" x="100.3" y="179.5" width="32.8" height="1.16"/><rect class="f" x="100.3" y="182.6" width="32.8" height="1.16"/><rect class="f" x="100.3" y="185.7" width="32.8" height="1.16"/></g><rect class="g" x="85.2" y="209.4" width="2.6" height="2.75" rx="1.3"/><rect class="h" x="89.1" y="209.4" width="2.6" height="2.75" rx="1.3"/><rect class="i" x="85.2" y="213" width="2.6" height="2.75" rx="1.3"/><rect class="j" x="89.1" y="213" width="2.6" height="2.75" rx="1.3"/><rect class="i" x="92.9" y="213" width="2.6" height="2.75" rx="1.3"/><rect class="i" x="92.9" y="209.4" width="2.6" height="2.75" rx="1.3"/><rect class="g" x="85.2" y="216.5" width="2.6" height="2.75" rx="1.3"/><rect class="i" x="89.1" y="216.5" width="2.6" height="2.75" rx="1.3"/><rect class="i" x="85.2" y="220.1" width="2.6" height="2.75" rx="1.3"/><rect class="j" x="89.1" y="220.1" width="2.6" height="2.75" rx="1.3"/><rect class="i" x="92.9" y="220.1" width="2.6" height="2.75" rx="1.3"/><rect class="i" x="92.9" y="216.5" width="2.6" height="2.75" rx="1.3"/><rect class="j" x="33.9" y="257.8" width="12.8" height="12.75" rx="1.9"/><path class="i" d="M40.5,261.3a3.1,3.1,0,0,1,0,6.2,3.1,3.1,0,0,1,0-6.2Z"/><circle class="k" cx="40.5" cy="264.4" r="4.2"/><circle class="l" cx="40.5" cy="264.4" r="4.1"/><path class="m" d="M81.9,251.3H58.3c-3.2,0-4.7,1.7-4.6,4.9v16.3c0,3.1-1.8,4-5,4H44.2c-2.4,0-3.9-1.6-3.9-3.3v-5.9"/><ellipse class="n" cx="160.3" cy="300.8" rx="102.4" ry="18.3"/><rect class="o" x="80.2" y="164.8" width="72.5" height="135.83" rx="3.9"/><path class="p" d="M84.4,164.8h34.8V300.7H84.4a3.9,3.9,0,0,1-3.8-3.9V168.7A3.9,3.9,0,0,1,84.4,164.8Z"/><g class="e"><rect class="f" x="99.9" y="282.1" width="32.8" height="1.16"/><rect class="f" x="99.9" y="285.2" width="32.8" height="1.16"/><rect class="f" x="99.9" y="288.3" width="32.8" height="1.16"/><rect class="f" x="99.9" y="291.4" width="32.8" height="1.16"/></g><rect class="q" x="99.9" y="195.7" width="38.6" height="71.39"/><path class="r" d="M119.1,202.6V211a2.3,2.3,0,0,0,2.6,2.6h2.4c1.6,0,2.1,1.1,2.1,2.9v49.7"/><path class="r" d="M116.5,205v3.7c0,1.7.9,2.6,2.5,2.5h2.5c1.6,0,2.1,1.1,2.1,2.9v52"/><path class="r" d="M123.9,201.3V208a1.9,1.9,0,0,0,2.2,2.2h4c1.4,0,1.8.9,1.8,2.4v2.6"/><path class="r" d="M138.3,200.7H121.6c-1.7,0-2.6.9-2.5,2.5v2.5"/><path class="r" d="M116.4,206a14.9,14.9,0,0,1,.1-2.5c0-1.6-.8-2.5-2.6-2.5H100.8"/><path class="r" d="M106.1,200.9v33.3a2.3,2.3,0,0,0,2.6,2.6h2.5c1.6,0,2.1,1,2.1,2.8V266h0"/><path class="r" d="M108.6,201v10.8c0,1.7.9,2.6,2.5,2.5h2.5c1.7,0,2.1,1,2.1,2.8v22.6"/><path class="r" d="M111,201.2v42.3c0,1.8.9,2.6,2.5,2.6H116c1.6,0,2.1,1,2.1,2.8v17.2"/><rect class="s" x="86.9" y="227.1" width="6.9" height="26.12" rx="3.5"/><path class="t" d="M89.9,245v-9.1a1.8,1.8,0,0,1,1.7-1.7h0a1.8,1.8,0,0,1,1.7,1.7V245a1.7,1.7,0,0,1-1.7,1.7h0A1.7,1.7,0,0,1,89.9,245Z"/><path class="g" d="M111.7,275.7h0A1.3,1.3,0,0,1,113,277h0a1.3,1.3,0,0,1-1.3,1.3h0a1.3,1.3,0,0,1-1.3-1.3h0A1.3,1.3,0,0,1,111.7,275.7Z"/><path class="h" d="M115.4,275.7h0a1.3,1.3,0,0,1,1.3,1.3h0a1.3,1.3,0,0,1-1.3,1.3h0a1.2,1.2,0,0,1-1.2-1.3h0A1.2,1.2,0,0,1,115.4,275.7Z"/><path class="i" d="M119.1,275.7h0a1.2,1.2,0,0,1,1.2,1.3h0a1.2,1.2,0,0,1-1.2,1.3h0a1.3,1.3,0,0,1-1.3-1.3h0A1.3,1.3,0,0,1,119.1,275.7Z"/><path class="j" d="M122.8,275.7h0A1.2,1.2,0,0,1,124,277h0a1.2,1.2,0,0,1-1.2,1.3h0a1.3,1.3,0,0,1-1.3-1.3h0A1.3,1.3,0,0,1,122.8,275.7Z"/><path class="i" d="M126.4,275.7h0a1.3,1.3,0,0,1,1.3,1.3h0a1.3,1.3,0,0,1-1.3,1.3h0a1.3,1.3,0,0,1-1.3-1.3h0A1.3,1.3,0,0,1,126.4,275.7Z"/><rect class="f" x="134.9" y="201.8" width="97.4" height="7.57"/><path class="u" d="M133.9,181.3h99.6c2,0,3.6,1.2,3.6,2.6v16.6c0,1.4-1.6,2.6-3.6,2.6H133.9c-2,0-3.5-1.2-3.5-2.6V183.9C130.4,182.5,131.9,181.3,133.9,181.3Z"/><path class="t" d="M131.9,181.3h34.5v21.8H131.9a1.5,1.5,0,0,1-1.5-1.6V182.9A1.5,1.5,0,0,1,131.9,181.3Z"/><path class="v" d="M197.6,189.1h0a1.1,1.1,0,0,1,1.1,1.1h0a1.1,1.1,0,0,1-1.1,1.2h0a1.2,1.2,0,0,1-1.2-1.2h0A1.1,1.1,0,0,1,197.6,189.1Z"/><path class="g" d="M200.3,193.6h0a1.1,1.1,0,0,1,1.1,1.2h0a1.1,1.1,0,0,1-1.1,1.1h0a1.1,1.1,0,0,1-1.1-1.1h0A1.1,1.1,0,0,1,200.3,193.6Z"/><path class="v" d="M202.1,189.1h0a1.1,1.1,0,0,1,1.1,1.1h0a1.1,1.1,0,0,1-1.1,1.2h0a1.1,1.1,0,0,1-1.1-1.2h0A1.1,1.1,0,0,1,202.1,189.1Z"/><path class="v" d="M204.8,193.6h0a1.1,1.1,0,0,1,1.1,1.2h0a1.1,1.1,0,0,1-1.1,1.1h0a1.1,1.1,0,0,1-1.1-1.1h0A1.1,1.1,0,0,1,204.8,193.6Z"/><path class="h" d="M206.6,189.1h0a1.1,1.1,0,0,1,1.1,1.1h0a1.1,1.1,0,0,1-1.1,1.2h0a1.1,1.1,0,0,1-1.1-1.2h0A1.1,1.1,0,0,1,206.6,189.1Z"/><path class="v" d="M209.3,193.6h0a1.2,1.2,0,0,1,1.2,1.2h0a1.2,1.2,0,0,1-1.2,1.1h0a1.1,1.1,0,0,1-1.1-1.1h0A1.1,1.1,0,0,1,209.3,193.6Z"/><path class="v" d="M211.1,189.1h0a1.1,1.1,0,0,1,1.2,1.1h0a1.2,1.2,0,0,1-1.2,1.2h0a1.1,1.1,0,0,1-1.1-1.2h0A1.1,1.1,0,0,1,211.1,189.1Z"/><path class="g" d="M213.8,193.6h0a1.2,1.2,0,0,1,1.2,1.2h0a1.1,1.1,0,0,1-1.2,1.1h0a1.1,1.1,0,0,1-1.1-1.1h0A1.1,1.1,0,0,1,213.8,193.6Z"/><path class="v" d="M215.7,189.1h0a1.1,1.1,0,0,1,1.1,1.1h0a1.1,1.1,0,0,1-1.1,1.2h0a1.2,1.2,0,0,1-1.2-1.2h0A1.1,1.1,0,0,1,215.7,189.1Z"/><path class="v" d="M218.4,193.6h0a1.1,1.1,0,0,1,1.1,1.2h0a1.1,1.1,0,0,1-1.1,1.1h0a1.1,1.1,0,0,1-1.2-1.1h0A1.2,1.2,0,0,1,218.4,193.6Z"/><circle class="k" cx="226.3" cy="192.3" r="1.9"/><circle class="w" cx="226.3" cy="192.3" r="1.5"/><path class="v" d="M192.3,188.3h0a.8.8,0,0,1,.9.8v6.4a.9.9,0,0,1-.9.9h0a.8.8,0,0,1-.8-.9v-6.4A.7.7,0,0,1,192.3,188.3Z"/><path class="v" d="M188.9,188.3h0a.7.7,0,0,1,.8.8v6.4a.8.8,0,0,1-.8.9h0a.9.9,0,0,1-.9-.9v-6.4A.8.8,0,0,1,188.9,188.3Z"/><rect class="t" x="171.8" y="188.3" width="13.7" height="3.42"/><rect class="t" x="171.8" y="193" width="13.7" height="3.42"/><path class="h" d="M191.5,190h1.7v5.5a.9.9,0,0,1-.9.9h0a.8.8,0,0,1-.8-.9V190Z"/><path class="g" d="M188,193.2h1.7v2.3a.8.8,0,0,1-.8.9h0a.9.9,0,0,1-.9-.9h0v-2.3Z"/><rect class="x" x="171.8" y="188.3" width="3.4" height="3.42"/><rect class="x" x="171.8" y="193" width="3.4" height="3.42"/><rect class="i" x="176.9" y="189.5" width="6.8" height="0.85"/><rect class="i" x="176.9" y="194.2" width="6.8" height="0.85"/><circle class="k" cx="226.3" cy="192.3" r="4.1"/><circle class="y" cx="226.3" cy="192.3" r="3.7"/><path class="i" d="M156.6,195.2h0a1.5,1.5,0,0,1,1.4,1.5h0a1.4,1.4,0,0,1-1.4,1.4h0a1.5,1.5,0,0,1-1.4-1.4h0A1.5,1.5,0,0,1,156.6,195.2Z"/><path class="j" d="M156.7,187h0a.7.7,0,0,1,.7.6v5.6a.7.7,0,0,1-.7.6h0a.6.6,0,0,1-.6-.6v-5.6A.6.6,0,0,1,156.7,187Z"/><path class="z" d="M152.4,195.2h0a1.5,1.5,0,0,1,1.4,1.5h0a1.5,1.5,0,0,1-1.4,1.4h0a1.4,1.4,0,0,1-1.4-1.4h0A1.5,1.5,0,0,1,152.4,195.2Z"/><path class="aa" d="M152.4,189.5h0a.7.7,0,0,1,.7.7v3a.7.7,0,0,1-.7.6h0a.6.6,0,0,1-.6-.6v-3A.7.7,0,0,1,152.4,189.5Z"/><path class="i" d="M148.1,195.2h0a1.5,1.5,0,0,1,1.4,1.5h0a1.4,1.4,0,0,1-1.4,1.4h0a1.4,1.4,0,0,1-1.4-1.4h0A1.5,1.5,0,0,1,148.1,195.2Z"/><path class="j" d="M148.2,186h0a.6.6,0,0,1,.6.6v6.6a.6.6,0,0,1-.6.6h0a.7.7,0,0,1-.7-.6v-6.6A.7.7,0,0,1,148.2,186Z"/><path class="h" d="M143.8,195.2h0a1.5,1.5,0,0,1,1.4,1.5h0a1.4,1.4,0,0,1-1.4,1.4h0a1.4,1.4,0,0,1-1.4-1.4h0A1.5,1.5,0,0,1,143.8,195.2Z"/><path class="h" d="M143.9,187.6h0c.4,0,.6.3.6.7v4.9a.6.6,0,0,1-.6.6h0a.6.6,0,0,1-.6-.6v-4.9C143.3,187.9,143.5,187.6,143.9,187.6Z"/><path class="g" d="M139.5,195.2h0a1.5,1.5,0,0,1,1.5,1.5h0a1.5,1.5,0,0,1-1.5,1.4h0a1.5,1.5,0,0,1-1.4-1.4h0A1.5,1.5,0,0,1,139.5,195.2Z"/><path class="g" d="M139.6,190.4h0a.7.7,0,0,1,.7.6v2.2a.7.7,0,0,1-.7.6h0a.6.6,0,0,1-.6-.6V191A.6.6,0,0,1,139.6,190.4Z"/><rect class="f" x="134.9" y="227.6" width="97.4" height="7.57"/><path class="u" d="M133.9,207.2h99.6c2,0,3.6,1.2,3.6,2.6v16.5c0,1.5-1.6,2.6-3.6,2.6H133.9c-2,0-3.5-1.1-3.5-2.6V209.8C130.4,208.4,131.9,207.2,133.9,207.2Z"/><path class="t" d="M131.9,207.2h34.5v21.7H131.9a1.5,1.5,0,0,1-1.5-1.5V208.7A1.5,1.5,0,0,1,131.9,207.2Z"/><path class="v" d="M197.6,215h0a1.1,1.1,0,0,1,1.1,1.1h0a1.1,1.1,0,0,1-1.1,1.1h0a1.1,1.1,0,0,1-1.2-1.1h0A1.1,1.1,0,0,1,197.6,215Z"/><path class="g" d="M200.3,219.5h0a1.1,1.1,0,0,1,1.1,1.1h0a1.2,1.2,0,0,1-1.1,1.2h0a1.2,1.2,0,0,1-1.1-1.2h0A1.1,1.1,0,0,1,200.3,219.5Z"/><path class="v" d="M202.1,215h0a1.1,1.1,0,0,1,1.1,1.1h0a1.1,1.1,0,0,1-1.1,1.1h0a1.1,1.1,0,0,1-1.1-1.1h0A1.1,1.1,0,0,1,202.1,215Z"/><path class="v" d="M204.8,219.5h0a1.1,1.1,0,0,1,1.1,1.1h0a1.2,1.2,0,0,1-1.1,1.2h0a1.2,1.2,0,0,1-1.1-1.2h0A1.1,1.1,0,0,1,204.8,219.5Z"/><path class="h" d="M206.6,215h0a1.1,1.1,0,0,1,1.1,1.1h0a1.1,1.1,0,0,1-1.1,1.1h0a1.1,1.1,0,0,1-1.1-1.1h0A1.1,1.1,0,0,1,206.6,215Z"/><path class="v" d="M209.3,219.5h0a1.2,1.2,0,0,1,1.2,1.1h0a1.3,1.3,0,0,1-1.2,1.2h0a1.2,1.2,0,0,1-1.1-1.2h0A1.1,1.1,0,0,1,209.3,219.5Z"/><path class="v" d="M211.1,215h0a1.1,1.1,0,0,1,1.2,1.1h0a1.1,1.1,0,0,1-1.2,1.1h0a1.1,1.1,0,0,1-1.1-1.1h0A1.1,1.1,0,0,1,211.1,215Z"/><path class="g" d="M213.8,219.5h0a1.1,1.1,0,0,1,1.2,1.1h0a1.2,1.2,0,0,1-1.2,1.2h0a1.2,1.2,0,0,1-1.1-1.2h0A1.1,1.1,0,0,1,213.8,219.5Z"/><path class="v" d="M215.7,215h0a1.1,1.1,0,0,1,1.1,1.1h0a1.1,1.1,0,0,1-1.1,1.1h0a1.1,1.1,0,0,1-1.2-1.1h0A1.1,1.1,0,0,1,215.7,215Z"/><path class="v" d="M218.4,219.5h0a1.1,1.1,0,0,1,1.1,1.1h0a1.2,1.2,0,0,1-1.1,1.2h0a1.2,1.2,0,0,1-1.2-1.2h0A1.1,1.1,0,0,1,218.4,219.5Z"/><circle class="k" cx="226.3" cy="218.2" r="1.9"/><circle class="w" cx="226.3" cy="218.2" r="1.5"/><path class="v" d="M192.3,214.1h0a.9.9,0,0,1,.9.9v6.4a.8.8,0,0,1-.9.8h0a.7.7,0,0,1-.8-.8V215A.8.8,0,0,1,192.3,214.1Z"/><path class="v" d="M188.9,214.1h0a.8.8,0,0,1,.8.9v6.4a.7.7,0,0,1-.8.8h0a.8.8,0,0,1-.9-.8V215A.9.9,0,0,1,188.9,214.1Z"/><rect class="t" x="171.8" y="214.1" width="13.7" height="3.42"/><rect class="t" x="171.8" y="218.8" width="13.7" height="3.42"/><path class="h" d="M191.5,215.8h1.7v5.6a.8.8,0,0,1-.9.8h0a.7.7,0,0,1-.8-.8v-5.6Z"/><path class="g" d="M188,219.1h1.7v2.3a.7.7,0,0,1-.8.8h0a.8.8,0,0,1-.9-.8h0v-2.3Z"/><rect class="x" x="171.8" y="214.1" width="3.4" height="3.42"/><rect class="x" x="171.8" y="218.8" width="3.4" height="3.42"/><rect class="i" x="176.9" y="215.4" width="6.8" height="0.85"/><rect class="i" x="176.9" y="220.1" width="6.8" height="0.85"/><circle class="k" cx="226.3" cy="218.2" r="4.1"/><circle class="y" cx="226.3" cy="218.2" r="3.7"/><path class="i" d="M156.6,221.5h0a1.4,1.4,0,0,1,1.4,1.4h0a1.4,1.4,0,0,1-1.4,1.4h0a1.4,1.4,0,0,1-1.4-1.4h0A1.4,1.4,0,0,1,156.6,221.5Z"/><path class="j" d="M156.7,213.2h0a.7.7,0,0,1,.7.7v5.5a.7.7,0,0,1-.7.7h0a.7.7,0,0,1-.6-.7v-5.5A.7.7,0,0,1,156.7,213.2Z"/><path class="z" d="M152.4,221.5h0a1.4,1.4,0,0,1,1.4,1.4h0a1.4,1.4,0,0,1-1.4,1.4h0A1.4,1.4,0,0,1,151,223h0A1.4,1.4,0,0,1,152.4,221.5Z"/><path class="aa" d="M152.4,215.8h0a.7.7,0,0,1,.7.6v3a.7.7,0,0,1-.7.7h0a.7.7,0,0,1-.6-.7v-3A.6.6,0,0,1,152.4,215.8Z"/><path class="i" d="M148.1,221.5h0a1.4,1.4,0,0,1,1.4,1.4h0a1.4,1.4,0,0,1-1.4,1.4h0a1.4,1.4,0,0,1-1.4-1.4h0A1.4,1.4,0,0,1,148.1,221.5Z"/><path class="j" d="M148.2,212.2h0a.7.7,0,0,1,.6.7v6.5a.7.7,0,0,1-.6.7h0a.7.7,0,0,1-.7-.7v-6.5A.7.7,0,0,1,148.2,212.2Z"/><path class="h" d="M143.8,221.5h0a1.4,1.4,0,0,1,1.4,1.4h0a1.4,1.4,0,0,1-1.4,1.4h0a1.4,1.4,0,0,1-1.4-1.4h0A1.4,1.4,0,0,1,143.8,221.5Z"/><path class="h" d="M143.9,213.9h0a.6.6,0,0,1,.6.6v4.9c0,.4-.2.7-.6.7h0c-.4,0-.6-.3-.6-.7v-4.9A.6.6,0,0,1,143.9,213.9Z"/><path class="g" d="M139.5,221.5h0a1.5,1.5,0,0,1,1.5,1.4h0a1.5,1.5,0,0,1-1.5,1.4h0a1.4,1.4,0,0,1-1.4-1.4h0A1.4,1.4,0,0,1,139.5,221.5Z"/><path class="g" d="M139.6,216.6h0a.7.7,0,0,1,.7.7v2.1a.7.7,0,0,1-.7.7h0a.7.7,0,0,1-.6-.7v-2.1A.7.7,0,0,1,139.6,216.6Z"/><rect class="f" x="134.9" y="253.5" width="97.4" height="7.57"/><path class="u" d="M133.9,233.1h99.6c2,0,3.6,1.1,3.6,2.5v16.6c0,1.4-1.6,2.6-3.6,2.6H133.9c-2,0-3.5-1.2-3.5-2.6V235.6C130.4,234.2,131.9,233.1,133.9,233.1Z"/><path class="t" d="M131.9,233.1h34.5v21.7H131.9a1.5,1.5,0,0,1-1.5-1.6V234.6A1.4,1.4,0,0,1,131.9,233.1Z"/><path class="v" d="M197.6,240.8h0a1.1,1.1,0,0,1,1.1,1.2h0a1.1,1.1,0,0,1-1.1,1.1h0a1.1,1.1,0,0,1-1.2-1.1h0A1.2,1.2,0,0,1,197.6,240.8Z"/><path class="g" d="M200.3,245.3h0a1.2,1.2,0,0,1,1.1,1.2h0a1.1,1.1,0,0,1-1.1,1.1h0a1.1,1.1,0,0,1-1.1-1.1h0A1.2,1.2,0,0,1,200.3,245.3Z"/><path class="v" d="M202.1,240.8h0a1.1,1.1,0,0,1,1.1,1.2h0a1.1,1.1,0,0,1-1.1,1.1h0A1.1,1.1,0,0,1,201,242h0A1.1,1.1,0,0,1,202.1,240.8Z"/><path class="v" d="M204.8,245.3h0a1.2,1.2,0,0,1,1.1,1.2h0a1.1,1.1,0,0,1-1.1,1.1h0a1.1,1.1,0,0,1-1.1-1.1h0A1.2,1.2,0,0,1,204.8,245.3Z"/><path class="h" d="M206.6,240.8h0a1.1,1.1,0,0,1,1.1,1.2h0a1.1,1.1,0,0,1-1.1,1.1h0a1.1,1.1,0,0,1-1.1-1.1h0A1.1,1.1,0,0,1,206.6,240.8Z"/><path class="v" d="M209.3,245.3h0a1.3,1.3,0,0,1,1.2,1.2h0a1.2,1.2,0,0,1-1.2,1.1h0a1.1,1.1,0,0,1-1.1-1.1h0A1.2,1.2,0,0,1,209.3,245.3Z"/><path class="v" d="M211.1,240.8h0a1.2,1.2,0,0,1,1.2,1.2h0a1.1,1.1,0,0,1-1.2,1.1h0A1.1,1.1,0,0,1,210,242h0A1.1,1.1,0,0,1,211.1,240.8Z"/><path class="g" d="M213.8,245.3h0a1.2,1.2,0,0,1,1.2,1.2h0a1.1,1.1,0,0,1-1.2,1.1h0a1.1,1.1,0,0,1-1.1-1.1h0A1.2,1.2,0,0,1,213.8,245.3Z"/><path class="v" d="M215.7,240.8h0a1.1,1.1,0,0,1,1.1,1.2h0a1.1,1.1,0,0,1-1.1,1.1h0a1.1,1.1,0,0,1-1.2-1.1h0A1.2,1.2,0,0,1,215.7,240.8Z"/><path class="v" d="M218.4,245.3h0a1.2,1.2,0,0,1,1.1,1.2h0a1.1,1.1,0,0,1-1.1,1.1h0a1.1,1.1,0,0,1-1.2-1.1h0A1.2,1.2,0,0,1,218.4,245.3Z"/><circle class="k" cx="226.3" cy="244" r="1.9"/><circle class="w" cx="226.3" cy="244" r="1.5"/><path class="v" d="M192.3,240h0a.9.9,0,0,1,.9.8v6.4a.9.9,0,0,1-.9.9h0a.8.8,0,0,1-.8-.9v-6.4A.8.8,0,0,1,192.3,240Z"/><path class="v" d="M188.9,240h0a.8.8,0,0,1,.8.8v6.4a.8.8,0,0,1-.8.9h0a.9.9,0,0,1-.9-.9v-6.4A.9.9,0,0,1,188.9,240Z"/><rect class="t" x="171.8" y="240" width="13.7" height="3.42"/><rect class="t" x="171.8" y="244.7" width="13.7" height="3.42"/><path class="h" d="M191.5,241.7h1.7v5.5a.9.9,0,0,1-.9.9h0a.8.8,0,0,1-.8-.9v-5.5Z"/><path class="g" d="M188,244.9h1.7v2.3a.8.8,0,0,1-.8.9h0a.9.9,0,0,1-.9-.9h0v-2.3Z"/><rect class="x" x="171.8" y="240" width="3.4" height="3.42"/><rect class="x" x="171.8" y="244.7" width="3.4" height="3.42"/><rect class="i" x="176.9" y="241.3" width="6.8" height="0.85"/><rect class="i" x="176.9" y="246" width="6.8" height="0.85"/><circle class="k" cx="226.3" cy="244" r="4.1"/><circle class="y" cx="226.3" cy="244" r="3.7"/><path class="i" d="M156.6,247.3h0a1.4,1.4,0,0,1,1.4,1.4v.2a1.4,1.4,0,0,1-1.4,1.4h0a1.5,1.5,0,0,1-1.4-1.4v-.2A1.5,1.5,0,0,1,156.6,247.3Z"/><path class="j" d="M156.7,239.1h0a.7.7,0,0,1,.7.6v5.6a.7.7,0,0,1-.7.6h0a.6.6,0,0,1-.6-.6v-5.6A.6.6,0,0,1,156.7,239.1Z"/><path class="z" d="M152.4,247.3h0a1.5,1.5,0,0,1,1.4,1.4v.2a1.5,1.5,0,0,1-1.4,1.4h0a1.4,1.4,0,0,1-1.4-1.4v-.2A1.4,1.4,0,0,1,152.4,247.3Z"/><path class="aa" d="M152.4,241.6h0a.7.7,0,0,1,.7.7v3a.7.7,0,0,1-.7.6h0a.6.6,0,0,1-.6-.6v-3A.7.7,0,0,1,152.4,241.6Z"/><path class="i" d="M148.1,247.3h0a1.4,1.4,0,0,1,1.4,1.4v.2a1.4,1.4,0,0,1-1.4,1.4h0a1.4,1.4,0,0,1-1.4-1.4v-.2A1.4,1.4,0,0,1,148.1,247.3Z"/><path class="j" d="M148.2,238.1h0a.6.6,0,0,1,.6.6v6.6a.6.6,0,0,1-.6.6h0a.7.7,0,0,1-.7-.6v-6.6A.7.7,0,0,1,148.2,238.1Z"/><path class="h" d="M143.8,247.3h0a1.4,1.4,0,0,1,1.4,1.4v.2a1.4,1.4,0,0,1-1.4,1.4h0a1.4,1.4,0,0,1-1.4-1.4v-.2A1.4,1.4,0,0,1,143.8,247.3Z"/><path class="h" d="M143.9,239.7h0c.4,0,.6.3.6.7v4.9a.6.6,0,0,1-.6.6h0a.6.6,0,0,1-.6-.6v-4.9C143.3,240,143.5,239.7,143.9,239.7Z"/><path class="g" d="M139.5,247.3h0a1.5,1.5,0,0,1,1.5,1.4v.2a1.5,1.5,0,0,1-1.5,1.4h0a1.5,1.5,0,0,1-1.4-1.4v-.2A1.5,1.5,0,0,1,139.5,247.3Z"/><path class="g" d="M139.6,242.5h0a.7.7,0,0,1,.7.6v2.2a.7.7,0,0,1-.7.6h0a.6.6,0,0,1-.6-.6v-2.2A.6.6,0,0,1,139.6,242.5Z"/><rect class="f" x="134.9" y="279.4" width="97.4" height="7.57"/><path class="u" d="M133.9,258.9h99.6c2,0,3.6,1.2,3.6,2.6V278c0,1.5-1.6,2.6-3.6,2.6H133.9c-2,0-3.5-1.1-3.5-2.6V261.5C130.4,260.1,131.9,258.9,133.9,258.9Z"/><path class="t" d="M131.9,258.9h34.5v21.7H131.9a1.5,1.5,0,0,1-1.5-1.5V260.4A1.5,1.5,0,0,1,131.9,258.9Z"/><path class="v" d="M197.6,266.7h0a1.1,1.1,0,0,1,1.1,1.1h0a1.1,1.1,0,0,1-1.1,1.1h0a1.1,1.1,0,0,1-1.2-1.1h0A1.1,1.1,0,0,1,197.6,266.7Z"/><path class="g" d="M200.3,271.2h0a1.1,1.1,0,0,1,1.1,1.1h0a1.1,1.1,0,0,1-1.1,1.2h0a1.1,1.1,0,0,1-1.1-1.2h0A1.1,1.1,0,0,1,200.3,271.2Z"/><path class="v" d="M202.1,266.7h0a1.1,1.1,0,0,1,1.1,1.1h0a1.1,1.1,0,0,1-1.1,1.1h0a1.1,1.1,0,0,1-1.1-1.1h0A1.1,1.1,0,0,1,202.1,266.7Z"/><path class="v" d="M204.8,271.2h0a1.1,1.1,0,0,1,1.1,1.1h0a1.1,1.1,0,0,1-1.1,1.2h0a1.1,1.1,0,0,1-1.1-1.2h0A1.1,1.1,0,0,1,204.8,271.2Z"/><path class="h" d="M206.6,266.7h0a1.1,1.1,0,0,1,1.1,1.1h0a1.1,1.1,0,0,1-1.1,1.1h0a1.1,1.1,0,0,1-1.1-1.1h0A1.1,1.1,0,0,1,206.6,266.7Z"/><path class="v" d="M209.3,271.2h0a1.2,1.2,0,0,1,1.2,1.1h0a1.2,1.2,0,0,1-1.2,1.2h0a1.1,1.1,0,0,1-1.1-1.2h0A1.1,1.1,0,0,1,209.3,271.2Z"/><path class="v" d="M211.1,266.7h0a1.1,1.1,0,0,1,1.2,1.1h0a1.1,1.1,0,0,1-1.2,1.1h0a1.1,1.1,0,0,1-1.1-1.1h0A1.1,1.1,0,0,1,211.1,266.7Z"/><path class="g" d="M213.8,271.2h0a1.1,1.1,0,0,1,1.2,1.1h0a1.2,1.2,0,0,1-1.2,1.2h0a1.1,1.1,0,0,1-1.1-1.2h0A1.1,1.1,0,0,1,213.8,271.2Z"/><path class="v" d="M215.7,266.7h0a1.1,1.1,0,0,1,1.1,1.1h0a1.1,1.1,0,0,1-1.1,1.1h0a1.1,1.1,0,0,1-1.2-1.1h0A1.1,1.1,0,0,1,215.7,266.7Z"/><path class="v" d="M218.4,271.2h0a1.1,1.1,0,0,1,1.1,1.1h0a1.1,1.1,0,0,1-1.1,1.2h0a1.2,1.2,0,0,1-1.2-1.2h0A1.1,1.1,0,0,1,218.4,271.2Z"/><circle class="k" cx="226.3" cy="269.9" r="1.9"/><circle class="w" cx="226.3" cy="269.9" r="1.5"/><path class="v" d="M192.3,265.8h0a.9.9,0,0,1,.9.9v6.4a.8.8,0,0,1-.9.8h0a.7.7,0,0,1-.8-.8v-6.4A.8.8,0,0,1,192.3,265.8Z"/><path class="v" d="M188.9,265.8h0a.8.8,0,0,1,.8.9v6.4a.7.7,0,0,1-.8.8h0a.8.8,0,0,1-.9-.8v-6.4A.9.9,0,0,1,188.9,265.8Z"/><rect class="t" x="171.8" y="265.8" width="13.7" height="3.42"/><rect class="t" x="171.8" y="270.5" width="13.7" height="3.42"/><path class="h" d="M191.5,267.5h1.7v5.6a.8.8,0,0,1-.9.8h0a.7.7,0,0,1-.8-.8v-5.6Z"/><path class="g" d="M188,270.8h1.7v2.3a.7.7,0,0,1-.8.8h0a.8.8,0,0,1-.9-.8h0v-2.3Z"/><rect class="x" x="171.8" y="265.8" width="3.4" height="3.42"/><rect class="x" x="171.8" y="270.5" width="3.4" height="3.42"/><rect class="i" x="176.9" y="267.1" width="6.8" height="0.85"/><rect class="i" x="176.9" y="271.8" width="6.8" height="0.85"/><circle class="k" cx="226.3" cy="269.9" r="4.1"/><circle class="y" cx="226.3" cy="269.9" r="3.7"/><path class="i" d="M156.6,273.2h0a1.4,1.4,0,0,1,1.4,1.4h0a1.4,1.4,0,0,1-1.4,1.4h0a1.4,1.4,0,0,1-1.4-1.4h0A1.4,1.4,0,0,1,156.6,273.2Z"/><path class="j" d="M156.7,264.9h0a.7.7,0,0,1,.7.7v5.5a.7.7,0,0,1-.7.7h0a.7.7,0,0,1-.6-.7v-5.5A.7.7,0,0,1,156.7,264.9Z"/><path class="z" d="M152.4,273.2h0a1.4,1.4,0,0,1,1.4,1.4h0a1.4,1.4,0,0,1-1.4,1.4h0a1.4,1.4,0,0,1-1.4-1.4h0A1.4,1.4,0,0,1,152.4,273.2Z"/><path class="aa" d="M152.4,267.5h0a.7.7,0,0,1,.7.6v3a.7.7,0,0,1-.7.7h0a.7.7,0,0,1-.6-.7v-3A.6.6,0,0,1,152.4,267.5Z"/><path class="i" d="M148.1,273.2h0a1.4,1.4,0,0,1,1.4,1.4h0a1.4,1.4,0,0,1-1.4,1.4h0a1.4,1.4,0,0,1-1.4-1.4h0A1.4,1.4,0,0,1,148.1,273.2Z"/><path class="j" d="M148.2,263.9h0a.7.7,0,0,1,.6.7v6.5a.7.7,0,0,1-.6.7h0a.7.7,0,0,1-.7-.7v-6.5A.7.7,0,0,1,148.2,263.9Z"/><path class="h" d="M143.8,273.2h0a1.4,1.4,0,0,1,1.4,1.4h0a1.4,1.4,0,0,1-1.4,1.4h0a1.4,1.4,0,0,1-1.4-1.4h0A1.4,1.4,0,0,1,143.8,273.2Z"/><path class="h" d="M143.9,265.6h0a.6.6,0,0,1,.6.6v4.9c0,.4-.2.7-.6.7h0c-.4,0-.6-.3-.6-.7v-4.9A.6.6,0,0,1,143.9,265.6Z"/><path class="g" d="M139.5,273.2h0a1.5,1.5,0,0,1,1.5,1.4h0a1.5,1.5,0,0,1-1.5,1.4h0a1.4,1.4,0,0,1-1.4-1.4h0A1.4,1.4,0,0,1,139.5,273.2Z"/><path class="g" d="M139.6,268.3h0a.7.7,0,0,1,.7.7v2.1a.7.7,0,0,1-.7.7h0a.7.7,0,0,1-.6-.7V269A.7.7,0,0,1,139.6,268.3Z"/><path class="u" d="M133.9,284.8h99.6c2,0,3.6,1.1,3.6,2.5v16.6c0,1.4-1.6,2.6-3.6,2.6H133.9c-2,0-3.5-1.2-3.5-2.6V287.3C130.4,285.9,131.9,284.8,133.9,284.8Z"/><path class="t" d="M131.9,284.8h34.5v21.7H131.9a1.5,1.5,0,0,1-1.5-1.6V286.3A1.4,1.4,0,0,1,131.9,284.8Z"/><path class="v" d="M197.6,292.5h0a1.1,1.1,0,0,1,1.1,1.2h0a1.1,1.1,0,0,1-1.1,1.1h0a1.1,1.1,0,0,1-1.2-1.1h0A1.2,1.2,0,0,1,197.6,292.5Z"/><path class="g" d="M200.3,297.1h0a1.1,1.1,0,0,1,1.1,1.1h0a1.1,1.1,0,0,1-1.1,1.1h0a1.1,1.1,0,0,1-1.1-1.1h0A1.1,1.1,0,0,1,200.3,297.1Z"/><path class="v" d="M202.1,292.5h0a1.1,1.1,0,0,1,1.1,1.2h0a1.1,1.1,0,0,1-1.1,1.1h0a1.1,1.1,0,0,1-1.1-1.1h0A1.1,1.1,0,0,1,202.1,292.5Z"/><path class="v" d="M204.8,297.1h0a1.1,1.1,0,0,1,1.1,1.1h0a1.1,1.1,0,0,1-1.1,1.1h0a1.1,1.1,0,0,1-1.1-1.1h0A1.1,1.1,0,0,1,204.8,297.1Z"/><path class="h" d="M206.6,292.5h0a1.1,1.1,0,0,1,1.1,1.2h0a1.1,1.1,0,0,1-1.1,1.1h0a1.1,1.1,0,0,1-1.1-1.1h0A1.1,1.1,0,0,1,206.6,292.5Z"/><path class="v" d="M209.3,297.1h0a1.2,1.2,0,0,1,1.2,1.1h0a1.2,1.2,0,0,1-1.2,1.1h0a1.1,1.1,0,0,1-1.1-1.1h0A1.1,1.1,0,0,1,209.3,297.1Z"/><path class="v" d="M211.1,292.5h0a1.2,1.2,0,0,1,1.2,1.2h0a1.1,1.1,0,0,1-1.2,1.1h0a1.1,1.1,0,0,1-1.1-1.1h0A1.1,1.1,0,0,1,211.1,292.5Z"/><path class="g" d="M213.8,297.1h0a1.1,1.1,0,0,1,1.2,1.1h0a1.1,1.1,0,0,1-1.2,1.1h0a1.1,1.1,0,0,1-1.1-1.1h0A1.1,1.1,0,0,1,213.8,297.1Z"/><path class="v" d="M215.7,292.5h0a1.1,1.1,0,0,1,1.1,1.2h0a1.1,1.1,0,0,1-1.1,1.1h0a1.1,1.1,0,0,1-1.2-1.1h0A1.2,1.2,0,0,1,215.7,292.5Z"/><path class="v" d="M218.4,297.1h0a1.1,1.1,0,0,1,1.1,1.1h0a1.1,1.1,0,0,1-1.1,1.1h0a1.1,1.1,0,0,1-1.2-1.1h0A1.1,1.1,0,0,1,218.4,297.1Z"/><circle class="k" cx="226.3" cy="295.7" r="1.9"/><circle class="w" cx="226.3" cy="295.7" r="1.5"/><path class="v" d="M192.3,291.7h0a.9.9,0,0,1,.9.8v6.4a.9.9,0,0,1-.9.9h0a.8.8,0,0,1-.8-.9v-6.4A.8.8,0,0,1,192.3,291.7Z"/><path class="v" d="M188.9,291.7h0a.8.8,0,0,1,.8.8v6.4a.8.8,0,0,1-.8.9h0a.9.9,0,0,1-.9-.9v-6.4A.9.9,0,0,1,188.9,291.7Z"/><rect class="t" x="171.8" y="291.7" width="13.7" height="3.42"/><rect class="t" x="171.8" y="296.4" width="13.7" height="3.42"/><path class="h" d="M191.5,293.4h1.7v5.5a.9.9,0,0,1-.9.9h0a.8.8,0,0,1-.8-.9v-5.5Z"/><path class="g" d="M188,296.6h1.7v2.3a.8.8,0,0,1-.8.9h0a.9.9,0,0,1-.9-.9h0v-2.3Z"/><rect class="x" x="171.8" y="291.7" width="3.4" height="3.42"/><rect class="x" x="171.8" y="296.4" width="3.4" height="3.42"/><rect class="i" x="176.9" y="293" width="6.8" height="0.85"/><rect class="i" x="176.9" y="297.7" width="6.8" height="0.85"/><circle class="k" cx="226.3" cy="295.7" r="4.1"/><circle class="y" cx="226.3" cy="295.7" r="3.7"/><path class="i" d="M156.6,298.7h0a1.4,1.4,0,0,1,1.4,1.4h0a1.4,1.4,0,0,1-1.4,1.4h0a1.4,1.4,0,0,1-1.4-1.4h0A1.4,1.4,0,0,1,156.6,298.7Z"/><path class="j" d="M156.7,290.4h0a.7.7,0,0,1,.7.6v5.6a.7.7,0,0,1-.7.6h0a.6.6,0,0,1-.6-.6V291A.6.6,0,0,1,156.7,290.4Z"/><path class="z" d="M152.4,298.7h0a1.4,1.4,0,0,1,1.4,1.4h0a1.4,1.4,0,0,1-1.4,1.4h0a1.4,1.4,0,0,1-1.4-1.4h0A1.4,1.4,0,0,1,152.4,298.7Z"/><path class="aa" d="M152.4,293h0c.4,0,.7.2.7.6v3a.7.7,0,0,1-.7.6h0a.6.6,0,0,1-.6-.6v-3A.6.6,0,0,1,152.4,293Z"/><path class="i" d="M148.1,298.7h0a1.4,1.4,0,0,1,1.4,1.4h0a1.4,1.4,0,0,1-1.4,1.4h0a1.4,1.4,0,0,1-1.4-1.4h0A1.4,1.4,0,0,1,148.1,298.7Z"/><path class="j" d="M148.2,289.4h0a.7.7,0,0,1,.6.7v6.5a.6.6,0,0,1-.6.6h0a.7.7,0,0,1-.7-.6v-6.5A.7.7,0,0,1,148.2,289.4Z"/><path class="h" d="M143.8,298.7h0a1.4,1.4,0,0,1,1.4,1.4h0a1.4,1.4,0,0,1-1.4,1.4h0a1.4,1.4,0,0,1-1.4-1.4h0A1.4,1.4,0,0,1,143.8,298.7Z"/><path class="h" d="M143.9,291h0c.4,0,.6.3.6.7v4.9a.6.6,0,0,1-.6.6h0a.6.6,0,0,1-.6-.6v-4.9C143.3,291.3,143.5,291,143.9,291Z"/><path class="g" d="M139.5,298.7h0a1.5,1.5,0,0,1,1.5,1.4h0a1.5,1.5,0,0,1-1.5,1.4h0a1.4,1.4,0,0,1-1.4-1.4h0A1.4,1.4,0,0,1,139.5,298.7Z"/><path class="g" d="M139.6,293.8h0a.7.7,0,0,1,.7.7v2.1a.7.7,0,0,1-.7.6h0a.6.6,0,0,1-.6-.6v-2.1A.7.7,0,0,1,139.6,293.8Z"/></svg>