<svg xmlns="http://www.w3.org/2000/svg" xmlns:xlink="http://www.w3.org/1999/xlink" viewBox="0 0 400 400"><defs><style>.a{isolation:isolate;}.b{font-size:39.99px;font-family:AdobeArabic-Regular, Adobe Arabic;}.b,.z{fill:#fff;}.c{fill:url(#a);}.d{fill:#97c6db;}.e,.n{opacity:0.25;mix-blend-mode:overlay;}.f{fill:url(#b);}.g{fill:url(#c);}.h{fill:url(#d);}.i,.x{mix-blend-mode:multiply;}.j{fill:url(#e);}.k{fill:#f9fbfc;}.l{fill:#1d262d;}.m{fill:#ffe7cb;}.o{fill:#0a0a0a;}.p{fill:#111114;}.q{fill:#314656;}.r{fill:#0a2033;}.s{fill:#288ed9;}.t{fill:#0e71bb;}.u{fill:#112b46;}.v{fill:url(#f);}.w{fill:url(#g);}.x{fill:#00409e;opacity:0.4;}.y{fill:#333;}.aa{fill:#c0c2c1;}.ab{fill:#e6e6e6;}.ac{fill:#000100;}.ad{fill:#fe9a0f;}.ae{fill:#e2810c;}.af{fill:#dd7f10;}.ag{fill:#ae4e32;}.ah{fill:#9e402b;}.ai{fill:#fe9b0e;}</style><linearGradient id="a" x1="57.7" y1="212.08" x2="374" y2="212.08" gradientUnits="userSpaceOnUse"><stop offset="0" stop-color="#c6e6ff"/><stop offset="1" stop-color="#fff"/></linearGradient><linearGradient id="b" x1="100.21" y1="273.71" x2="100.21" y2="308.55" gradientUnits="userSpaceOnUse"><stop offset="0" stop-color="#ffbc98"/><stop offset="1" stop-color="#ff9f6c"/></linearGradient><linearGradient id="c" x1="60.78" y1="295.85" x2="60.78" y2="313.2" xlink:href="#b"/><linearGradient id="d" x1="71.52" y1="266.72" x2="71.52" y2="306.13" xlink:href="#b"/><linearGradient id="e" x1="64.09" y1="327.91" x2="101.48" y2="327.91" xlink:href="#b"/><linearGradient id="f" x1="348.6" y1="284.31" x2="354.96" y2="284.31" gradientUnits="userSpaceOnUse"><stop offset="0" stop-color="#006c9d"/><stop offset="0" stop-color="#016499"/><stop offset="0" stop-color="#024f8f"/><stop offset="0" stop-color="#042d7e"/><stop offset="0" stop-color="#061472"/></linearGradient><linearGradient id="g" x1="203.3" y1="284.31" x2="209.65" y2="284.31" xlink:href="#f"/></defs><title>foreigndedicatedserver-linux</title><g class="a"><text class="b" transform="translate(71.8 -44.3)">جراخ سکونیل یصاصتخا روس*</text><path class="c" d="M64.9,345s-22.7-34.2,12.6-83.4S90,180.9,118.8,124s101.4-63.6,133.7,3.1c8.8,18.2,39.8,64.2,61.5,77.6,17.6,10.9,58.7,19,60,84.4.3,15.1-7.7,42.4-18.3,55.9Z"/><rect class="d" x="43.5" y="341.2" width="344.6" height="4.4"/><g class="e"><path d="M89.4,305.2l-1.1,3.4a37.6,37.6,0,0,0-1.2,5.8H88a38,38,0,0,1,1.2-5.6c.3-.9.5-1.8.7-2.4a8.4,8.4,0,0,1,.4-1l-.9-.3Z"/><path d="M81.2,306v.4a43.1,43.1,0,0,1,.3,4.9c0,1,0,2.5-.1,3.5h.9c.1-1.1.1-2.5.1-3.6a50.9,50.9,0,0,0-.3-5.4Z"/><path d="M76.7,312h0c0,.1.2.3.4.6a10.6,10.6,0,0,1,.4,1.9h.9a6.1,6.1,0,0,0-.6-2.4c-.2-.4-.4-.7-.5-.7l-.6.6Z"/></g><path class="f" d="M88.3,306.1s-4.7-5.9,2.5-18.3,22.1-15.3,22.8-13.7-7.6,4.7-9.9,14.2-2.6,14.8-5.4,17.6S91.5,309.9,88.3,306.1Z"/><path class="g" d="M78.6,307.3s-.5-6.6-12.6-10.4-23.6,3.3-23.1,4.7,7.8-1.4,15,3.4,10.5,8,14.1,8.2S78.8,311.7,78.6,307.3Z"/><path class="h" d="M85.9,303s8.1-8.7-1.3-22.6-30-14.9-30.7-12.9S62,273,65.4,283.9s5.3,16.4,8.8,19.6S82.4,307.6,85.9,303Z"/><g class="e"><path class="i" d="M90.2,304.3h-.1a.4.4,0,0,1-.3-.6c.2-.7,5.2-18.6,14.5-25.4.2-.1.5-.1.6.1a.5.5,0,0,1-.1.7c-9,6.6-14.1,24.7-14.2,24.9S90.4,304.3,90.2,304.3Z"/></g><g class="e"><path class="i" d="M80.8,302c-.2,0-.3-.1-.4-.3v-.5c-.4-6.3-3.1-27.1-19.9-31.5-.2,0-.3-.3-.3-.5a.4.4,0,0,1,.6-.3c17.4,4.5,20.1,25.8,20.5,32.3a.4.4,0,0,1,.1.3.5.5,0,0,1-.3.5Z"/></g><g class="e"><path d="M75.2,310.4c-.2,0-.4-.2-1.1-.8-7.5-6.8-14.8-10-21.6-9.6a.7.7,0,0,1-.5-.4.5.5,0,0,1,.5-.5c7-.5,14.5,2.8,22.2,9.8l.7.6c.1,0,.2.1.2.3a.5.5,0,0,1-.2.6Z"/></g><path class="j" d="M93.9,341.4H70.3a1.2,1.2,0,0,1-1.2-1l-5-23.6a2.1,2.1,0,0,1,2-2.4H99.5a2,2,0,0,1,1.9,2.5l-6.2,23.5A1.4,1.4,0,0,1,93.9,341.4Z"/><rect class="k" x="187.8" y="106.8" width="1" height="0.96"/><path class="k" d="M188.8,142h-1v-1.9h1Zm0-4.9h-1v-1.9h1Zm0-4.9h-1v-1.9h1Zm0-4.8h-1v-2h1Zm0-4.9h-1v-2h1Zm0-4.9h-1v-2h1Zm0-4.9h-1v-2h1Z"/><rect class="k" x="187.8" y="145" width="1" height="0.96"/><polygon class="l" points="258.1 220.6 206.5 220.6 206.5 217.6 256.4 217.6 280.4 173.7 283 175.1 258.1 220.6"/><path class="m" d="M175.4,127.4a23.8,23.8,0,0,1-3.4,8.8c-2.7,4.2-8.9,10.4-10.7,11s-3.1-.9-5.8-2.3l-2.7-1.5-5.8-3.3-4.1-5.8a48,48,0,0,1,9.2-20.6c4.6-6,14.7-2.4,18.4.4S176.3,121.5,175.4,127.4Z"/><path class="n" d="M152.7,128c-.2,3.8,2.3,5.2,2.8,5.8s-2.8,4.1-4.3,2.6S152.7,128,152.7,128Z"/><polygon class="m" points="245.4 316.5 247.2 325.3 235.1 327.4 232.4 317.3 245.4 316.5"/><path class="o" d="M270.4,329.4l.8,4.4-38.3,6.9-.8-4.4s34-6.5,37.7-6.8Z"/><path class="p" d="M269.8,329.5c-3.7.3-37.7,6.8-37.7,6.8l1.2-10.2a.7.7,0,0,1,.9-.6c9,1.8,12.1-2.1,13-3.7S268.4,329.2,269.8,329.5Z"/><path class="q" d="M179.7,259.8c-7.8.4-18.3,1-32,1.5-38.4,1.5-30.6-35.7-30.6-35.7l36.7-.4s54.5-.9,66,6.5S249.4,322,249.4,322l-18.2,5.1s-16.3-37.4-24.9-54.4c-3.6-6.9-6.1-12-6.3-12.6S193.9,259.1,179.7,259.8Z"/><path class="r" d="M154.9,225.1h-1.1l-36.7.4s-4.4,20.9,9.5,30.7c13.9-3.3,22.1-17.4,29.4-30Z"/><polygon class="m" points="200 318.7 200 327.1 186.9 327.1 186.9 319 200 318.7"/><path class="r" d="M200,260.1c-.5-1.3-6.1-1-20.3-.3l3.6,64.5h3.6l13.1-.3h3.3l3-51.1C202.7,265.8,200.2,260.7,200,260.1Z"/><path class="o" d="M222.1,335.3v4.5H183.2v-4.5s34.6-.4,38.3,0Z"/><path class="p" d="M221.5,335.3c-3.7-.4-38.3,0-38.3,0l2.9-9.8a.7.7,0,0,1,1-.4c8.6,3.3,12.4,0,13.5-1.4a.6.6,0,0,1,.9-.1C201.9,323.8,220.2,334.7,221.5,335.3Z"/><path class="m" d="M221.2,214.9H199.6s-32.6-5.3-39-9.2c-2.3-1.4-6.4-5.9-10.6-10.9l14.8-12.3c2.6,4.1,4.9,7.5,5.8,7.8,2.6,1,26.9,14.6,29.7,14.6S216.6,204.6,221.2,214.9Z"/><path class="s" d="M165.8,182.2,150,194.8c-7.1-8.5-14.6-18.8-14.6-18.8l22.4-13.4S163.5,176.2,165.8,182.2Z"/><path class="n" d="M165.8,182.2,150,194.8c-7.1-8.5-14.6-18.8-14.6-18.8l22.4-13.4S163.5,176.2,165.8,182.2Z"/><path class="s" d="M152.3,151.3,136.2,145s-19.3,2.2-20.6,48.6c-.2,8.9-.1,58.4,2.6,59.6,10.8,5.1,38.8-28.1,38.8-28.1s-.2-11.7,0-12.7l-1.6-.8c-2.9-1.7-8.2-8.8-13.5-16.4l16.6-13,2,3.1C160.9,160.6,152.3,151.3,152.3,151.3Z"/><path class="n" d="M157,212.4l-1.6-.8c-2.9-1.7-8.2-8.8-13.5-16.4l8.2-6.4-8.2-12.1-14.7-9.6v6.7s6.3,17.1,13.8,30.5c4.1,7.3,10.8,10.8,16.1,12.6A38.4,38.4,0,0,1,157,212.4Z"/><path class="m" d="M204.4,209.8s-34.1-14-36.5-14.5c-.7-.1-3.2-3.6-6.3-8.3l-3.1-4.8-16.6,13c5.3,7.6,10.6,14.7,13.5,16.4l1.6.8h0c9.9,3.7,45.6,5.4,46.3,5.6s4.3,1.1,7,.3a9.5,9.5,0,0,0,3.4-1.5c2.3-1.8,5.9.7,7.5,1.9s3.5.8,4.3,0C223.7,208.4,204.4,209.8,204.4,209.8Z"/><polygon class="m" points="156 143.9 155.5 144.9 154.5 147 154.3 147.4 152.3 151.3 136.2 145 142.9 134.3 153.6 142.2 156 143.9"/><path class="s" d="M127.2,173.8,144,199.6l19.3-11S158,168.4,153,157.3c-3.2-6.8-12.3-10.2-21.1-4.8S124.4,168.6,127.2,173.8Z"/><path class="t" d="M158.9,127.3c-.6-2.8-3.1-5.4-5.5-1.7a8.9,8.9,0,0,0-.8,3.2c-.4,3.9-5,5.6-8.4,5.9h-1.6a140.7,140.7,0,0,1,2.7-14.2c1.9-7.7,6.3-15.6,12.5-12.5,0,0,5.7-2.6,9.2,1.8,0,0,6-2.1,9,2.6,0,0,8.4,1.6,9.9,6.8s-7.2,8.2-10.3,6.3-5.4-5.4-7.5-5.3-1.6,3.3-1.9,5.3-3.5-.1-4.8,2.6-2,4.3-2.8,3.8S158.9,127.3,158.9,127.3Z"/><path class="n" d="M155.5,144.9l-1,2.1a7.9,7.9,0,0,1-3.3-6.1A10.7,10.7,0,0,0,155.5,144.9Z"/><path class="u" d="M94.6,182.3v.5c0,.3.1.8.2,1.6.9,5.8,4,25.9,6.9,44.5s5.7,35.7,5.7,35.7l5.8-.9-.6-3.5c-1.2-7.7-4.3-27.2-7-44.8-1.4-8.7-2.7-17.1-3.6-23.2l-1.2-7.4q-.1-1.4-.3-2.1c0-.3-.1-.4-.1-.6h0l-1.7.2h1.7l-1.7.2h1.7l-2.7.2h2.7v-.2l-2.7.2H94.6Z"/><path class="r" d="M147.4,272.6h5a1.1,1.1,0,0,1,1.1,1.1v68.3a0,0,0,0,1,0,0h-7.1a0,0,0,0,1,0,0V273.6a1.1,1.1,0,0,1,1.1-1.1Z" transform="translate(299.8 614.5) rotate(180)"/><path class="r" d="M147.4,324.9h5a1.1,1.1,0,0,1,1.1,1.1v16a0,0,0,0,1,0,0h-7.1a0,0,0,0,1,0,0V326A1.1,1.1,0,0,1,147.4,324.9Z" transform="translate(299.8 666.9) rotate(180)"/><path class="u" d="M134.5,273.5h30.8a4.1,4.1,0,0,1,4.1,4.1v1.8a0,0,0,0,1,0,0H130.4a0,0,0,0,1,0,0v-1.8A4.1,4.1,0,0,1,134.5,273.5Z" transform="translate(299.8 553) rotate(180)"/><rect class="t" x="106.7" y="259.9" width="86.5" height="13.84" rx="4.8" transform="translate(299.8 533.6) rotate(180)"/><path class="r" d="M113.1,337.8a4.1,4.1,0,0,0,4.1,4.1,4.1,4.1,0,0,0,4.2-4.1,4.2,4.2,0,0,0-4.2-4.2A4.1,4.1,0,0,0,113.1,337.8Z"/><circle class="r" cx="182.6" cy="337.8" r="4.2"/><rect class="u" x="142.8" y="319.6" width="14.3" height="12.49" transform="translate(299.8 651.7) rotate(180)"/><path class="t" d="M113.1,329.2h73.7a0,0,0,0,1,0,0v2.1A3.7,3.7,0,0,1,183,335H116.8a3.7,3.7,0,0,1-3.7-3.7v-2.1a0,0,0,0,1,0,0Z" transform="translate(299.8 664.2) rotate(180)"/><path class="t" d="M92.8,187.1l3.1,23.2a6.1,6.1,0,0,0,6.8,5.2,6,6,0,0,0,5.2-6.8l-3.1-23.2a6.1,6.1,0,1,0-12,1.6"/><rect class="v" x="348.6" y="227.5" width="6.4" height="113.69"/><rect class="w" x="203.3" y="227.5" width="6.4" height="113.69"/><rect class="t" x="198.5" y="220.4" width="162.8" height="7.94"/><path class="x" d="M296.7,213.7c0-1,11.6-5.8,12.6-13.9,1.7-14.1,6.7-14.2,6.8-17.7,11.1-6.7,3.9,27.8,12.2,27.8,14.3,0,20.6,3.7,20.4,8.1s-16.5,7.6-30.2,7.2C307.2,224.8,296.7,220.3,296.7,213.7Z"/><path class="y" d="M338.7,183.7a15.2,15.2,0,0,1-4.7-13.8,7.9,7.9,0,0,0,.1-2.2,10.8,10.8,0,0,0-10.6-10.4,11,11,0,0,0-11.3,10.9,11.2,11.2,0,0,0,.3,2.7,15.2,15.2,0,0,1-3.5,14,20.8,20.8,0,0,0-5.8,14.4c0,12.8,5,19,12.1,20.9A17.9,17.9,0,0,1,322,219a16.7,16.7,0,0,1,6.4,1.1c8.8-1.7,13-6,15.9-15.9C346.6,196.3,343,187.6,338.7,183.7Z"/><path d="M338.7,183.7a15.2,15.2,0,0,1-4.7-13.8,7.9,7.9,0,0,0,.1-2.2,10.8,10.8,0,0,0-10.6-10.4,7.5,7.5,0,0,0-1.5,0V219a16.1,16.1,0,0,1,7.2,1.5c8.3-1.3,12.3-6.7,15.1-16.3C346.6,196.3,343,187.6,338.7,183.7Z"/><path class="z" d="M307.9,201.9c0-8.4,6.6-27.7,14.9-27.7s14.9,19.4,14.9,27.7a14.9,14.9,0,1,1-29.8,0Z"/><path class="aa" d="M322.8,174.2H322v42.5h.8a14.9,14.9,0,0,0,14.9-14.9C337.7,193.6,331,174.2,322.8,174.2Z"/><ellipse class="ab" cx="317.3" cy="170" rx="2.5" ry="3.3"/><ellipse class="ac" cx="317.3" cy="170.8" rx="1.2" ry="2.2"/><ellipse class="ab" cx="326" cy="170" rx="2.5" ry="3.3"/><ellipse class="ac" cx="326" cy="170.8" rx="1.2" ry="2.2"/><path class="ad" d="M329.3,175.7c.8,1.7-5.3,5-7.4,5s-8.2-4-7.5-5,4.6-5,7.1-5S328.8,174.5,329.3,175.7Z"/><path class="ae" d="M329.3,175.7c-.5-1.1-5.2-4.5-7.3-5v10C324.2,180.6,330.1,177.4,329.3,175.7Z"/><path class="af" d="M338.7,202.5c1,2,2.7,4,4.7,4.5a3.6,3.6,0,0,1,2.9,3.2c0,.2.1.4.1.7a9.6,9.6,0,0,0,1.7,3.7,2.7,2.7,0,0,1-1.6,4.3l-15.7,3a4.1,4.1,0,0,1-4.2-6.1l8.7-13.5A1.9,1.9,0,0,1,338.7,202.5Z"/><path class="ag" d="M321.9,179.7c-2.3,0-4.5-1.1-6.8-3.2l.8-.8c2.2,2.1,4.4,3.1,6.6,2.9a6.6,6.6,0,0,0,4.6-2.9l1,.7a8.7,8.7,0,0,1-5.5,3.3Z"/><path class="ah" d="M322.5,178.6H322v1.1h.6a8.7,8.7,0,0,0,5.5-3.3l-1-.7A6.6,6.6,0,0,1,322.5,178.6Z"/><circle cx="340.8" cy="204.9" r="5"/><path class="y" d="M306.9,199.4s5.3,6.5,9.2,8-1.9,5.7-7,2.5S306.9,199.4,306.9,199.4Z"/><path class="ai" d="M304,202.5c-1.1,2-2.7,4-4.8,4.5a3.7,3.7,0,0,0-2.9,3.2v.7a8.5,8.5,0,0,1-1.8,3.7,2.7,2.7,0,0,0,1.7,4.3l15.6,3a4.1,4.1,0,0,0,4.2-6.1l-8.6-13.5A1.9,1.9,0,0,0,304,202.5Z"/></g></svg>