<svg xmlns="http://www.w3.org/2000/svg" xmlns:xlink="http://www.w3.org/1999/xlink" viewBox="0 0 400 400"><defs><style>.a{isolation:isolate;}.b{font-size:39.99px;font-family:AdobeArabic-Regular, Adobe Arabic;}.b,.z{fill:#fff;}.c{fill:url(#a);}.ab,.d{opacity:0.25;}.e,.j{fill:#37b5e8;}.f{fill:#fafafa;}.g{fill:#1a2e35;}.h,.j,.w{opacity:0.2;}.i{opacity:0.4;}.k{fill:#ffcf00;}.l{fill:red;}.m{fill:#375a64;}.n{fill:#288ed9;}.o{fill:#ffe7cb;}.p{fill:#f0d2b9;}.q{fill:#21e2e2;}.aa,.r{opacity:0.3;}.s{fill:#1f364c;}.t{fill:#152735;}.u{fill:#0e71bb;}.v{fill:#f59b6b;}.ab,.w{mix-blend-mode:overlay;}.x{fill:url(#b);}.y{fill:#e1e1e1;}</style><linearGradient id="a" x1="219.81" y1="361.76" x2="172.6" y2="93.97" gradientUnits="userSpaceOnUse"><stop offset="0" stop-color="#c6e6ff"/><stop offset="1" stop-color="#fff"/></linearGradient><linearGradient id="b" x1="67.71" y1="206.1" x2="95.45" y2="206.1" gradientUnits="userSpaceOnUse"><stop offset="0" stop-color="#ffbc98"/><stop offset="1" stop-color="#ff9f6c"/></linearGradient></defs><title>germany-dedicatedserver</title><g class="a"><text class="b" transform="translate(165.2 -39.7)">نالآ یصاصتخا روس*</text><path class="c" d="M57.9,338.7S7.5,284.9,32.7,227c24.1-55.2,64.2,4,118.2-83.6s117.8-68,135,3c20,82.6,62,52.1,84.4,88.5,25.5,41.5-2.3,88.8-19.9,103.8Z"/><g class="d"><circle class="e" cx="336" cy="90" r="22" transform="translate(-6.9 148.6) rotate(-24.7)"/></g><path class="f" d="M345.9,90.7H335.6V89.2c0-3.1.1-6,.1-8.1a18.5,18.5,0,0,1,.1-2.5v-.9c.1,0,.1.3.1.9a23.6,23.6,0,0,0,.1,2.5v9.6l-.2-.2h9.4C345.7,90.6,345.9,90.6,345.9,90.7Z"/><path class="f" d="M335.9,71.6a4.7,4.7,0,0,1,.2,1.9,4.4,4.4,0,0,1-.2,1.8,4.4,4.4,0,0,1-.2-1.8A4.7,4.7,0,0,1,335.9,71.6Z"/><path class="f" d="M345.9,74.6c.1.1-.4.7-1.1,1.4a6.3,6.3,0,0,1-1.5,1.2,6.3,6.3,0,0,1,1.2-1.5C345.2,75,345.8,74.5,345.9,74.6Z"/><path class="f" d="M351.8,81l-1.5,1-1.6.9c-.1-.1.5-.7,1.4-1.2S351.7,80.9,351.8,81Z"/><path class="f" d="M355.2,90.5a15.7,15.7,0,0,1-5,0,15.7,15.7,0,0,1,5,0Z"/><path class="f" d="M320.3,90.1a14.5,14.5,0,0,1-4.8,0h4.8Z"/><path class="f" d="M322.8,97.2,321,98.9l-2,1.4c-.1-.1.7-.9,1.8-1.7S322.7,97.1,322.8,97.2Z"/><path class="f" d="M328.9,102.7s-.5,1-1.2,2.1a10.8,10.8,0,0,1-1.4,2.1,6.1,6.1,0,0,1,1-2.3C328,103.5,328.8,102.6,328.9,102.7Z"/><path class="f" d="M335.9,109.7a8.3,8.3,0,0,1-.2-2.5,8.3,8.3,0,0,1,.2-2.5,8.3,8.3,0,0,1,.2,2.5A8.3,8.3,0,0,1,335.9,109.7Z"/><path class="f" d="M346.8,106.4a5.5,5.5,0,0,1-2.1-1.4c-1.1-.9-1.8-1.8-1.7-1.9s.9.7,1.9,1.6S346.8,106.3,346.8,106.4Z"/><path class="f" d="M351.9,100.9c-.1.1-.9-.6-1.7-1.4a9,9,0,0,1-1.5-1.7c.1-.1.9.5,1.7,1.4A10,10,0,0,1,351.9,100.9Z"/><path class="f" d="M322.5,83.4a13.4,13.4,0,0,1-1.5-1.3c-.7-.7-1.3-1.4-1.2-1.5a7.6,7.6,0,0,1,1.5,1.3C322,82.6,322.6,83.3,322.5,83.4Z"/><path class="f" d="M328.8,76.7c-.1.1-.7-.4-1.5-1.2a12.5,12.5,0,0,1-1.2-1.4c.1-.1.8.4,1.5,1.2A6.1,6.1,0,0,1,328.8,76.7Z"/><path class="g" d="M362,337.8H47c0-.2,70.5-.2,157.5-.2S362,337.6,362,337.8Z"/><rect class="f" x="155.7" y="60.8" width="138" height="126.41"/><path class="g" d="M294.1,187.6H155.3V60.5H294.1ZM156,186.9H293.3V61.2H156Z"/><rect class="g" x="152.5" y="53.2" width="143.7" height="8.06"/><g class="h"><polygon class="e" points="156 61.3 293.4 74.8 293.3 61.3 156 61.3"/></g><g class="i"><rect class="e" x="225.9" y="115.1" width="4.6" height="98.36" transform="translate(63.9 392.5) rotate(-90)"/></g><g class="h"><rect class="e" x="234.7" y="114.9" width="4.6" height="80.79" transform="translate(81.7 392.3) rotate(-90)"/></g><g class="i"><rect class="e" x="229.2" y="100.3" width="4.6" height="92.19" transform="translate(85.2 377.9) rotate(-90)"/></g><rect class="j" x="226.9" y="89.3" width="4.6" height="96.36" transform="translate(91.8 366.7) rotate(-90)"/><g class="i"><rect class="e" x="235.2" y="88.6" width="4.6" height="79.74" transform="translate(109 366) rotate(-90)"/></g><g class="h"><rect class="e" x="238.4" y="82.9" width="4.6" height="73.25" transform="translate(121.2 360.3) rotate(-90)"/></g><g class="i"><rect class="e" x="228.5" y="64.1" width="4.6" height="93.05" transform="translate(120.2 341.5) rotate(-90)"/></g><g class="h"><rect class="e" x="232.7" y="59.3" width="4.6" height="84.68" transform="translate(133.4 336.7) rotate(-90)"/></g><rect class="k" x="186" y="90.4" width="91.4" height="4.63"/><rect class="l" x="200.3" y="81.5" width="77.1" height="4.63"/><rect x="194.5" y="72.5" width="82.9" height="4.63"/><g class="h"><path class="e" d="M281,171.7c0,.1-14.8.2-32.9.2s-33-.1-33-.2,14.8-.2,33-.2S281,171.6,281,171.7Z"/></g><path class="j" d="M281,70.7c.1,0,.2,21.9.2,49s-.1,49.1-.2,49.1-.2-22-.2-49.1S280.9,70.7,281,70.7Z"/><path class="j" d="M285.1,160a20.5,20.5,0,0,1,.1,3.4,22.2,22.2,0,0,1-.1,3.5,16.5,16.5,0,0,1-.2-3.5A15.2,15.2,0,0,1,285.1,160Z"/><path class="j" d="M285.3,148.6a21.9,21.9,0,0,1,.2,4.1,21.9,21.9,0,0,1-.2,4.1,21.9,21.9,0,0,1-.2-4.1A21.9,21.9,0,0,1,285.3,148.6Z"/><path class="j" d="M285.3,138.9a21.9,21.9,0,0,1,.2,4.1,22.8,22.8,0,0,1-.2,4.1,22.8,22.8,0,0,1-.2-4.1A21.9,21.9,0,0,1,285.3,138.9Z"/><path class="j" d="M285.3,129.1a22.8,22.8,0,0,1,.2,4.1,21.9,21.9,0,0,1-.2,4.1,21.9,21.9,0,0,1-.2-4.1A22.8,22.8,0,0,1,285.3,129.1Z"/><path class="j" d="M285.3,119.4a21.9,21.9,0,0,1,.2,4.1,21.9,21.9,0,0,1-.2,4.1,21.9,21.9,0,0,1-.2-4.1A21.9,21.9,0,0,1,285.3,119.4Z"/><path class="j" d="M285.3,109.7a21.9,21.9,0,0,1,.2,4.1,21.9,21.9,0,0,1-.2,4.1,21.9,21.9,0,0,1-.2-4.1A21.9,21.9,0,0,1,285.3,109.7Z"/><path class="j" d="M285.3,100a21.9,21.9,0,0,1,.2,4.1,22.8,22.8,0,0,1-.2,4.1,22.8,22.8,0,0,1-.2-4.1A21.9,21.9,0,0,1,285.3,100Z"/><g class="h"><path class="e" d="M285.3,90.2a22.8,22.8,0,0,1,.2,4.1,23.5,23.5,0,0,1-.2,4.2,23.5,23.5,0,0,1-.2-4.2A22.8,22.8,0,0,1,285.3,90.2Z"/></g><g class="h"><path class="e" d="M285.3,80.5a22.8,22.8,0,0,1,.2,4.1,21.9,21.9,0,0,1-.2,4.1,21.9,21.9,0,0,1-.2-4.1A22.8,22.8,0,0,1,285.3,80.5Z"/></g><g class="h"><path class="e" d="M285.3,70.8a21.9,21.9,0,0,1,.2,4.1,21.9,21.9,0,0,1-.2,4.1,21.9,21.9,0,0,1-.2-4.1A21.9,21.9,0,0,1,285.3,70.8Z"/></g><path class="g" d="M203.6,134.9c-.1,0,.1-.4.7-.5a1,1,0,0,1,.9.1,1.2,1.2,0,0,1,.5.5,1.7,1.7,0,0,1-.1.7,1.4,1.4,0,0,1-1.1.6,1.9,1.9,0,0,1-.9-.5,1,1,0,0,1-.2-.7l.2-.2a.7.7,0,0,0,.2.7.9.9,0,0,0,.7.3.7.7,0,0,0,.7-.4.5.5,0,0,0-.1-.7.8.8,0,0,0-.8-.1C203.8,134.7,203.6,135,203.6,134.9Z"/><g class="h"><path class="e" d="M204.1,56.5c.1,0,.1,7.6.1,17s0,16.9-.1,16.9-.2-7.6-.2-16.9S204,56.5,204.1,56.5Z"/></g><g class="h"><path class="e" d="M199.3,68.1c.1,0,.2,4.9.2,10.9s-.1,10.9-.2,10.9-.2-4.9-.2-10.9S199.2,68.1,199.3,68.1Z"/></g><rect class="m" x="322.9" y="267.8" width="5.1" height="60.58" transform="translate(650.8 596.2) rotate(180)"/><path class="m" d="M289.6,270.6h72.3a7.8,7.8,0,0,0-7.8-7.9H297.5a7.9,7.9,0,0,0-7.9,7.9Z"/><path class="m" d="M303.3,333.9h.7a21.5,21.5,0,0,1,43,0h.7a22.2,22.2,0,0,0-44.4,0Z"/><path class="g" d="M344.1,335a3.3,3.3,0,0,0,3.3,3.3,3.3,3.3,0,0,0,0-6.6A3.3,3.3,0,0,0,344.1,335Z"/><path class="g" d="M300.1,334.5a3.4,3.4,0,1,0,6.7,0,3.4,3.4,0,0,0-6.7,0Z"/><path class="m" d="M303.5,328.4c0,.1,9.7.2,21.6.2s21.6-.1,21.6-.2-9.7-.2-21.6-.2S303.5,328.3,303.5,328.4Z"/><path class="m" d="M364.1,207.9v44.6A10.6,10.6,0,0,1,353.5,263H319.1l4.7-55.1a4.8,4.8,0,0,1,4.7-4.8h30.8A4.8,4.8,0,0,1,364.1,207.9Z"/><path class="n" d="M334.8,205.4h7.9l-2.8-13.9c-2.1-11.4-18-12.2-18-12.2l-12.6-.2s-9.2-1.3-15,5.2l-3.6,4.1-13.6,14.2-1.4-17.9L264,186.6l1.7,22.4a9.1,9.1,0,0,0,6.1,7.9c2.5.8,5.1.1,7.6-1.2,6.8-3.4,19.5-14.1,20.5-14.9-.6,1.2-.7,42.5-.7,42.5l40.9-1.7C339.3,235,334.8,205.4,334.8,205.4Z"/><path class="o" d="M316.5,237a68.6,68.6,0,0,1-6.6,4c-2.9,1.4-3,1.1-3.1.7s5-2.6,3.6-2.9-6.2,2.8-6.5,1.8,5.2-3,5.7-3.2.2-.8-.2-.6-6.8,2.7-7.2,1.4,1.2-.9,1.2-.9,6-2,5.8-2.6-3.8.4-5,.8-1.8.1-1.6-.6,3.8-1.8,4.9-2.2,4.5-1.4,2.4-2.2-3.3-2.2-3.4-2.8.7-.9,1.2-.4a6.8,6.8,0,0,0,1.9,1.1,3.4,3.4,0,0,0,1.7.5l1.3.2,4.4.3,2.2,5.8Z"/><path class="n" d="M335.6,184.5a15.6,15.6,0,0,1,5.1,7.7c1,3.1,3.8,13.8,5.8,21.8a10.2,10.2,0,0,1-6.7,12.2l-23,12.5-3.8-9.8,20.3-13.2-4.9-18.1c-.8-2.8-1.2-5.6-.2-8.3S331.4,184,335.6,184.5Z"/><path class="o" d="M264.8,187.2l-1.4-4.5c-.6-3.2,1.9-3.7,2.3-4.2a7.3,7.3,0,0,1,2.3-1.8l-.2-1.3a35.3,35.3,0,0,1-.8-4.2.8.8,0,0,1,1.6,0c.5,1.6,1.3,4.5,1.7,5.6s1.8,5,3.1,2.7a10.6,10.6,0,0,0,1.4-4.2c.3-.8,1.9-.9,1.6.6a23.8,23.8,0,0,1-.6,3.3c-.2.7-.6,1.6-.8,2.2s-.3,3.8-.4,4.4Z"/><path class="p" d="M265.5,179.4c.1,0,.2.5.4,1.3a12.1,12.1,0,0,0,.5,1.4,1.9,1.9,0,0,1,.3.9,1.1,1.1,0,0,1-.5,1,1.3,1.3,0,0,1-1.1-.3,1.7,1.7,0,0,1-.6-.6,3.6,3.6,0,0,1-.6-1.5,3.8,3.8,0,0,1-.1-1.4c.1,0,.2.6.4,1.4a4.3,4.3,0,0,0,.5,1.3l.6.5a.7.7,0,0,0,.7.2.6.6,0,0,0,.3-.6,3.1,3.1,0,0,0-.2-.8,12.1,12.1,0,0,1-.5-1.4C265.5,179.9,265.5,179.4,265.5,179.4Z"/><path class="p" d="M267.5,177.9a9,9,0,0,1,.7,1.7l.6,1.9c.1.4.3.7.4,1.1a1.7,1.7,0,0,1-.1.7c-.1.3-.2.5-.5.6a1,1,0,0,1-1.3-.1,1.7,1.7,0,0,1-.8-.9,22,22,0,0,1-1-3.7,10.1,10.1,0,0,1,.6,1.7c.2.5.4,1.2.7,1.8a1.3,1.3,0,0,0,.7.8,1.1,1.1,0,0,0,1,.1.8.8,0,0,0,.3-.9l-.3-1.1-.6-1.9C267.7,178.6,267.5,177.9,267.5,177.9Z"/><path class="g" d="M275.3,206.7s.3-1,.8-2.2.9-2.1,1-2a7,7,0,0,1-.7,2.2C275.9,205.9,275.4,206.8,275.3,206.7Z"/><path class="q" d="M253,295.8l3.1-6.3,11.7,5.6-4.3,9.2-.7-.3c-3.4-1.3-16.9-7.1-18.8-8.8S253,295.8,253,295.8Z"/><path class="q" d="M288.1,333.8v-7l13-.3.4,10.2h-.9c-3.5.3-18.2,1.3-20.7.6S288.1,333.8,288.1,333.8Z"/><g class="r"><path d="M327.3,194c.5,7.7,5,21.2-11,32.4,1.2-.6,16.5-10.8,16.5-11S329.1,202.3,327.3,194Z"/></g><path class="s" d="M340.2,239.8s-53.5-11.2-58.6-8.7-29.1,61.5-29.1,61.5l16.1,5.9,21.9-49s39.4,14.8,45.9,13.5S340.2,239.8,340.2,239.8Z"/><path class="g" d="M297.8,269.8a6.3,6.3,0,0,1,2.2.7,6.4,6.4,0,0,1,2,1.1,7,7,0,0,1-2.2-.7A8.3,8.3,0,0,1,297.8,269.8Z"/><path class="t" d="M296.4,251.7c-6.9,3.3-13.1,6.6-14,8.3-2.2,4.1,3.2,72,3.2,72h17.6l-1.1-60.3,34.3-8.7S329.1,262.7,296.4,251.7Z"/><path class="g" d="M299.4,268c.1-.1.6.9,1.4,1.9s1.6,1.8,1.5,1.9a4.4,4.4,0,0,1-1.8-1.6A4.2,4.2,0,0,1,299.4,268Z"/><path class="o" d="M308,182.8c-.1-3.8-.3-7.9-.3-7.9s-5.8-.8-6.1-6.8-.3-16.4-.3-16.4l12.8-2.5,6.7,5.1.2,28.3a6.6,6.6,0,0,1-6.5,6.6h0A6.5,6.5,0,0,1,308,182.8Z"/><path class="p" d="M307.7,174.9a14.2,14.2,0,0,0,7.8-2.6s-1.8,4.4-7.7,4Z"/><path class="q" d="M218.4,334.9v-7.2l-13.4-.2-.2,10.5h.9c3.7.2,18.8,1,21.3.3S218.4,334.9,218.4,334.9Z"/><path class="q" d="M166.3,334.9v-7.2l13.4-.2.2,10.5H179c-3.7.2-18.8,1-21.3.3S166.3,334.9,166.3,334.9Z"/><polyline class="s" points="227.2 197.7 222.3 332.1 201.4 332.6 204.9 216.1 181.4 333.5 161.5 333.5 187.1 198"/><path class="o" d="M198.3,141.7l12.9-1c.1-1.5,0-7.3,0-7.3s5.4-.9,5.4-6.2-.8-17.7-.8-17.7h0a18.7,18.7,0,0,0-18.8,2.3l-.8.7Z"/><path class="p" d="M211.2,133.3a12.2,12.2,0,0,1-7-2s1.7,3.9,7,3.4Z"/><path class="o" d="M196.9,118c-.1,0-3.7-1.1-3.6,2.6s3.8,2.8,3.8,2.7Z"/><path class="u" d="M218.4,106.1a2.1,2.1,0,0,0-.8-1.8,1.4,1.4,0,0,0-1.8.2,1.6,1.6,0,0,0-1.4-2c-.9-.1-1.6.6-2.5.8a4.3,4.3,0,0,1-2.5-.3l-2.3-1a6.7,6.7,0,0,0-5.2.2,7.1,7.1,0,0,0-3.6,3.8,3,3,0,0,0-3.2,1.2,5.4,5.4,0,0,0-.8,3.5,14,14,0,0,0,.6,2.4v.3c.1,2.9.4,6.4,1.7,6.4s1.7-4.1,1.7-4.1c2.6-1,1.6-5.1,2.3-5.7s2.1-2,7.7.9a11.5,11.5,0,0,0,6.7.7h.2a3.9,3.9,0,0,0,1.5-.6,3,3,0,0,0,1.2-1.3,1.7,1.7,0,0,0-.3-1.7A3.7,3.7,0,0,0,218.4,106.1Z"/><path class="n" d="M192.1,139.7a44.4,44.4,0,0,1,5.7-1.1h0a23.2,23.2,0,0,0,13.8,0l2.3.3c5.9.7,8.2,2,12.5,6.2l-.4,24.2s1.4,27.5,1.3,31.9H186.5V177.5L173,182.4l1.2-7.1s6-23.4,7-26.5S186.4,140.8,192.1,139.7Z"/><path class="n" d="M179.2,175.7l20.1-2.9,3.8,6.9-18.7,8.4a7.5,7.5,0,0,1-3.3.7h0a8,8,0,0,1-7.5-5l-.6-1.4Z"/><path class="o" d="M217.4,169.6l-.4-.4a10.2,10.2,0,0,0-7.9-1.8h0a13.2,13.2,0,0,0-6.2,2.9l-3.5,2.8,3.7,6.6,2.5-3.5s2.3,3.2,2.7,2.8a4,4,0,0,0,1-1.3l-1.7-2.3,4,.8,5.8-2.7-2.5-3.1,2.5.8Z"/><path class="n" d="M220.3,140.4s5.7,2,8,7.4c1.6,3.6,3.9,20.8,3.9,20.8l2.9,5.6a9.1,9.1,0,0,1,1,4.3v.8a8.9,8.9,0,0,1-2.1,5.9h0a9.2,9.2,0,0,1-6.4,3.5c-2.9.2-6.4.3-7.1-.5a30.3,30.3,0,0,1-3.3-5.5l8.4-4.5-3.6-6.7Z"/><polygon class="g" points="211.3 169 198.5 184.5 199.4 185.5 220.2 182.4 230.5 166.8 229.6 166 211.3 169"/><path class="o" d="M224.8,173h0a1.9,1.9,0,0,0-1.8,1.3,4.4,4.4,0,0,1-1.3,2c-.9.5-2.5.9-3.3.5s-4.2-3.4-4.8-3.1-1.1,1.1-.5,1.8,3.7,2.7,3.1,3.3-7.1-2.2-8.1-2-1.6.9-1.1,1.3,5.1,2.1,5.3,2.7-6.7-1.8-6.9-1.4-.7,1.1,0,1.4,6.4,1.7,6.9,2l2.6.7,2.7.9a6.1,6.1,0,0,0,4.2-.1l.7-.3a2.6,2.6,0,0,0,1.6-2.6v-2.3l.7-1.9Z"/><path class="m" d="M230.6,166.9h-.4l-1.1.2-4.1.7-6.1.9-3.6.5a7.8,7.8,0,0,0-3.5,1.5,17.4,17.4,0,0,0-2.5,2.9l-2.3,2.8-3.9,4.8-2.6,3.2-.7.9-.3.2.2-.3.7-.9,2.5-3.3,3.8-4.8c.8-.9,1.5-1.9,2.3-2.9a22.6,22.6,0,0,1,2.6-2.9,7.1,7.1,0,0,1,3.6-1.5l3.6-.5,6.1-.9,4.1-.5,1.2-.2Z"/><path class="f" d="M220.8,170.3c-.2.2-.4.3-.5.5a.6.6,0,0,0-.1.7.7.7,0,0,0,.9,0,.5.5,0,0,0,.3-.5.4.4,0,0,0-.2-.5.3.3,0,0,0-.5-.1"/><rect class="m" x="34.7" y="189.2" width="37.1" height="74.8"/><path class="m" d="M36.4,263.8h0a5.8,5.8,0,0,1-5.8-5.8V195a5.8,5.8,0,0,1,5.8-5.8h0a5.8,5.8,0,0,1,5.8,5.8v63A5.8,5.8,0,0,1,36.4,263.8Z"/><rect class="m" x="68.4" y="273.3" width="6" height="71.63"/><path class="m" d="M113.2,273.3H27.6a9.3,9.3,0,0,1,9.3-9.3h67a9.3,9.3,0,0,1,9.3,9.3Z"/><path class="m" d="M97.6,351.4h-.9a25.5,25.5,0,0,0-50.9,0H45a26.3,26.3,0,0,1,52.6,0Z"/><circle class="g" cx="45.4" cy="350.9" r="3.9"/><path class="g" d="M101.3,351.1a3.9,3.9,0,0,1-4,3.9,3.9,3.9,0,1,1,0-7.8A3.9,3.9,0,0,1,101.3,351.1Z"/><path class="m" d="M97.3,344.9c0,.1-11.4.2-25.5.2s-25.6-.1-25.6-.2,11.5-.2,25.6-.2S97.3,344.8,97.3,344.9Z"/><path class="o" d="M59.7,185.6h0c4.4,0,8.1-2.9,8.2-16.4,0-2.7-.1-5.1-.1-5.1s6.4-.6,6.9-6.8.1-20.7.1-20.7h0a22.3,22.3,0,0,0-22.2,1.5l-1,.6.3,30.6C51.9,173.6,55.3,185.6,59.7,185.6Z"/><path class="p" d="M67.8,164a14.7,14.7,0,0,1-8.1-2.8s1.6,4.6,8,4.4Z"/><path class="u" d="M75,135.4a6.3,6.3,0,0,0-1-2.7,2.8,2.8,0,0,0-.3-2.8,2.8,2.8,0,0,0-3.8-.2h0a1.4,1.4,0,0,0-.5-1.8,3.3,3.3,0,0,0-2.2-.5c-1.4,0-4.8,1.1-7.4,2.1h-.5a13.1,13.1,0,0,0-5.9,2.6,12.8,12.8,0,0,0-3.7,6.5,25.1,25.1,0,0,0-.2,9.3c.8-.7,3.6-2.4,4-1.5a11,11,0,0,1,.2,1.8,1.4,1.4,0,0,0,.9,1.4,1.3,1.3,0,0,0,1.2-.6,3.3,3.3,0,0,0,.4-1.3c.1-2-.3-3.9,0-5.9a7.6,7.6,0,0,1,2.9-4.7,7.1,7.1,0,0,1,5.5-1.1,21.7,21.7,0,0,0,3.5.7c1.7-.1,3.4-1.3,5-.6l.9.5c.6.3.9.7,1,.4A4.8,4.8,0,0,0,75,135.4Z"/><path class="o" d="M53.2,145.6c-.1,0-4-.5-3.6,4s4.9,2.7,4.9,2.5Z"/><path class="q" d="M96.2,336.1l3.5-5-13.5-9.5-5.7,7.6.8.7c3.5,3,17.9,14.7,20.9,15.8S96.2,336.1,96.2,336.1Z"/><path class="q" d="M162,351.7l-1.3-5.8-15.8,3.6,1.9,9.1,1-.2c4.4-.6,22.3-3.3,25.1-4.7S162,351.7,162,351.7Z"/><g class="r"><polygon points="145.7 353.1 161.5 349.6 161.4 348.8 145.1 350.6 145.7 353.1"/></g><path class="p" d="M121,211.4a22.3,22.3,0,0,1,3.1-3c.5-.1,8.4-3.4,8.5-3s1.1,2.1-.5,3l-1.3.4,4.6.4s5,3.7,5,4.5-.8,1.3-1.2,1,1.2,2.5,1.2,2.5,0,1.3-.7,1.1a7.2,7.2,0,0,1-1.7-1.4s1,1.5.7,1.8-1.8.4-1.9,0a9.4,9.4,0,0,1-.4-1h-.9v1.2l-13.4.5Z"/><polygon class="v" points="69 174.5 73.1 179.3 89.5 208 121.4 211.1 122.1 220.3 85.3 223.8 64.8 186.7 69 174.5"/><g class="w"><polygon points="69 174.5 73.1 179.3 89.5 208 121.4 211.1 122.1 220.3 85.3 223.8 64.8 186.7 69 174.5"/></g><path class="v" d="M72.3,188.4l-3.2-11.9v-3.9l-17.7-8.1-3.4,4.3.4.2c-1.4,1.5-11.8,12.6-11.1,20.9s16.1,54.2,16.1,54.2L89,233.7Z"/><path class="x" d="M68.7,176.7l-1,4.8,2.6,4.9v3.7L89,233.7l5.5,1.8,1-3.7s-15.6-26.5-18.3-34l-6.6-18.2Z"/><path class="v" d="M40.4,198.6c0,.4,21.6,21.3,29.4,28.9a7.6,7.6,0,0,0,6.6,2l39.6-7.8-1.3-9.3-29.7.8c-3.3.1-5.9-.9-7.8-3.5L56.6,183C56.2,182.4,40.4,198.6,40.4,198.6Z"/><path class="o" d="M133.3,212.4l-7.8-2.1-6.4,3.2h-3.7l-.5.3,1,6.9h.9a8.5,8.5,0,0,0,3.1,1.2c2.1.5,5.1-.9,5.1-.9l4.1-2.2,2.9-.9,2.2,1.3a9.7,9.7,0,0,1,.2,1.2c0,.3.8.6,1.3.6s.5-1,.5-1l-.5-2.2,1,1h2.6v-1.6Z"/><polygon class="t" points="116 263.4 82.6 322.9 100.5 335.1 130 282.6 125.1 263.4 116 263.4"/><path class="s" d="M53.3,244.1s-3.8,16.2,6.6,19.5,64.6,5,64.6,5l20.2,83.2,17.2-2.5-14.8-89.1a15.1,15.1,0,0,0-12.2-12.3c-16.1-2.9-45.2-8.1-45.6-8.7s-2.5-4.9-2.5-4.9Z"/><polygon class="m" points="315.3 219.7 120.6 219 120.6 224.8 132.1 224.8 131.7 337.4 135.8 337.5 136.2 224.9 297.1 225.4 296.7 338 300.8 338.1 301.2 225.4 315.3 225.5 315.3 219.7"/><polygon class="y" points="248.4 187.8 259.2 219.3 308.1 219.3 307.8 217.7 288 217.1 278.9 187.8 248.4 187.8"/><path class="z" d="M270.1,202.6c.3,1.3-.2,2.6-1.2,2.8a2.1,2.1,0,0,1-2.4-1.8,2.3,2.3,0,0,1,1.2-2.9A2.2,2.2,0,0,1,270.1,202.6Z"/><polygon class="y" points="200.7 188 188.8 222.9 134.7 222.9 135.1 221.1 157 220.4 167.1 188 200.7 188"/><path class="z" d="M176.8,204.4a2.4,2.4,0,0,0,1.4,3.1c1.1.3,2.3-.6,2.6-2.1a2.4,2.4,0,0,0-1.4-3.1C178.3,202,177.1,202.9,176.8,204.4Z"/><circle class="m" cx="220.2" cy="207.4" r="6" transform="translate(-19.9 391.4) rotate(-80.8)"/><rect class="y" x="200.6" y="205" width="39.1" height="14.29"/><path class="g" d="M215.6,209a52,52,0,0,1-6.3.2,53,53,0,0,1-6.4-.2,53,53,0,0,1,6.4-.2A52,52,0,0,1,215.6,209Z"/><path class="g" d="M215.6,211a52,52,0,0,1-6.3.2,53,53,0,0,1-6.4-.2,53,53,0,0,1,6.4-.2A52,52,0,0,1,215.6,211Z"/><path class="g" d="M215.6,213.1a52,52,0,0,1-6.3.2,53,53,0,0,1-6.4-.2,53,53,0,0,1,6.4-.2A52,52,0,0,1,215.6,213.1Z"/><path class="g" d="M215.6,215.1a52,52,0,0,1-6.3.2,53,53,0,0,1-6.4-.2,53,53,0,0,1,6.4-.2A52,52,0,0,1,215.6,215.1Z"/><path class="aa" d="M184.3,174.6l2.9-9.5s-2.1,8.6-1.2,8.6l13.6-1.2Z"/><path class="ab" d="M46.2,204.5l22.4,26A7.8,7.8,0,0,0,78.7,232l7.1-4.4-9.2,1.9a7.9,7.9,0,0,1-7-2.1Z"/><path class="u" d="M320.9,161.1a1.4,1.4,0,0,0,.4,1.5,1.4,1.4,0,0,0,1.5.1c.9-.5,1-1.7.9-2.7s-.6-2.1-.2-3,1-1.2,1.6-1.8a4.6,4.6,0,0,0,1.2-3.7,3.7,3.7,0,0,0-2.6-2.9c-1.4-.4-3,0-4-.9s-.8-1.9-1.4-2.7-2.7-1.5-4.3-1.3-3.1.8-4.6.4-2.3-1.2-3.5-1.7a6.9,6.9,0,0,0-8.9,9.5c.5.9,1.5,3.5,4.4,3.5"/><path class="u" d="M300.2,152.8a9.6,9.6,0,0,0,7.8-.5c2.8-1.4,6.2-2.1,6.9-1.5s.9,3.5,3.7,4.4c0,0-.2,5.6,2,5.5s1.7-11.5,1.7-11.5l-6.2-.2-6-1.2-5.7.8-4.4,1.1Z"/><path class="o" d="M320.4,158.4c.1-.1,3.7-1.4,3.9,2.4s-3.7,3.1-3.7,3S320.4,158.4,320.4,158.4Z"/><rect x="202.4" y="206.7" width="14.5" height="3.52"/><rect class="l" x="202.4" y="210.2" width="14.5" height="3.52"/><rect class="k" x="202.4" y="213.7" width="14.5" height="3.52"/></g></svg>