<svg xmlns="http://www.w3.org/2000/svg" xmlns:xlink="http://www.w3.org/1999/xlink" viewBox="0 0 400 400"><defs><style>.a{isolation:isolate;}.b{fill:url(#a);}.c{fill:url(#b);}.d{font-size:38.25px;font-family:AdobeArabic-Regular, Adobe Arabic;}.d,.h,.t,.v{fill:#fff;}.e,.o,.q{fill:#37b5e8;}.e{opacity:0.2;}.f{fill:#27debf;}.g{fill:url(#c);}.i{fill:url(#d);}.j{fill:#0e71bb;}.k{fill:#2793d6;}.l{fill:#56bbed;}.m{fill:#fafafa;}.n{fill:#005284;}.o{opacity:0.3;}.p{fill:#455a64;}.af,.aj,.q{opacity:0.5;}.r{fill:#21e2e2;}.s{fill:#f5f5f5;}.t,.u{opacity:0.6;}.v{opacity:0.8;}.w{fill:#ffe7cb;}.x{fill:#f59b6b;}.y{fill:#263238;}.z{fill:url(#e);}.aa{fill:#1f364c;}.ab{fill:#152735;}.ac{fill:url(#f);}.ad{fill:#2b454e;}.ae{opacity:0.25;}.ae,.af{mix-blend-mode:overlay;}.ag{fill:#ebebeb;}.ah{fill:#e0e0e0;}.ai{fill:#e6e6e6;}.aj{mix-blend-mode:multiply;}.ak{fill:#b2d3ea;}.al{fill:#0050af;}.am{fill:#197bdd;}.an{fill:#d4ecff;}.ao{fill:#4ea4f9;}</style><linearGradient id="a" x1="1.19" y1="400.34" x2="1.18" y2="400.91" gradientTransform="matrix(740.56, 0, 0, -612.51, -676.44, 245617.49)" gradientUnits="userSpaceOnUse"><stop offset="0" stop-color="#c6e6ff"/><stop offset="1" stop-color="#fff"/></linearGradient><linearGradient id="b" x1="126.43" y1="125.63" x2="377.11" y2="125.63" gradientUnits="userSpaceOnUse"><stop offset="0" stop-color="#a9e3ff"/><stop offset="0.4" stop-color="#a7e3ff"/><stop offset="0.55" stop-color="#a0e2ff"/><stop offset="0.65" stop-color="#95e0ff"/><stop offset="0.74" stop-color="#84ddff"/><stop offset="0.81" stop-color="#6ed9ff"/><stop offset="0.87" stop-color="#52d5ff"/><stop offset="0.93" stop-color="#32cfff"/><stop offset="0.98" stop-color="#0ec9ff"/><stop offset="1" stop-color="#00c7ff"/></linearGradient><linearGradient id="c" x1="298.8" y1="210.25" x2="337.27" y2="210.25" gradientUnits="userSpaceOnUse"><stop offset="0" stop-color="#44989f"/><stop offset="0.21" stop-color="#39b0b4"/><stop offset="0.52" stop-color="#2ccbcd"/><stop offset="0.8" stop-color="#24dcdd"/><stop offset="1" stop-color="#21e2e2"/></linearGradient><linearGradient id="d" x1="310.47" y1="224.77" x2="348.8" y2="224.77" gradientUnits="userSpaceOnUse"><stop offset="0" stop-color="#ffbc98"/><stop offset="1" stop-color="#ff9f6c"/></linearGradient><linearGradient id="e" x1="255.19" y1="326.33" x2="272.35" y2="326.33" gradientUnits="userSpaceOnUse"><stop offset="0" stop-color="#030947"/><stop offset="0.16" stop-color="#020637"/><stop offset="0.39" stop-color="#010327"/><stop offset="0.65" stop-color="#00011d"/><stop offset="1" stop-color="#00001a"/></linearGradient><linearGradient id="f" x1="268.11" y1="318.76" x2="285.26" y2="318.76" xlink:href="#e"/></defs><title>irvps</title><g class="a"><path class="b" d="M203.2,106.1c54.3,34.7,116.5,50.3,116.5,50.3s68.5,10.4,43.3,88.3-28.5,106-67.9,108c-37.5,1-58.5-14.4-95.6-11.8-32.5,2.5-54.9,17.2-109.3-4.2C3,298.2,9.5-16.1,203.2,106.1Z"/><path class="c" d="M334,55.6c-25.4-20-49.6-19.9-74.2-1.7s-70.9,4-76.1-26.3c-2.4-13.8-6.2-12.1-14-6.3-10.9,8.2-21,11.6-30.5-1.7-2.6-3.6-5.5-3-9.1-.4s-4.3,5-3.3,9c4.4,17.6,6.9,36.1,21.5,49.1,3.7,3.2,5.5,7.5,3,10.4-15.9,19.3.3,28.2,12.2,37.7,6.8,5.4,11.4,9.8,12.4,19.7.5,5.9,2.6,20.1,12.1,18.1,20.3-4.2,23.5,10.2,32.1,21.9,11.5,15.8,29,28.9,48,27.9,15.5-.8,26.2-11,38.1,10.9,6.4,11.8,32.1,6.7,49,10.1,10.9,2.3,4.6-11.8,10.8-15.2l2.9-2c4.7-3.4,8.9-16.9,8.1-22.3s-3.6-6.5-7.1-9.1c-10.9-7.8-23.7-15.7-8.3-31,3-3,4.4-9.5-.4-10.7-16.8-3.8-9.1-17.8-12.1-27.1-4.2-13.4,7.2-24.5,7.7-41.2C359.9,61,342.4,62.2,334,55.6Z"/><text class="d" transform="translate(-3 -60.4)">)ناریا یزاجم روس( هحفص یلصا ریوصت</text><path class="e" d="M324.2,257.2l-95.8-55.3a1.7,1.7,0,0,0-1.4,0L119.9,263.7,90.8,247.1a1.9,1.9,0,0,0-1.5,0L36.8,277.3q-.6.4,0,.9l37.1,21.5,13.5-7.8,88.3,51a2,2,0,0,0,1.5,0l147-84.9A.4.4,0,0,0,324.2,257.2Z"/><ellipse class="e" cx="269.9" cy="325.9" rx="24.4" ry="14.1"/><path class="f" d="M310.9,248.8l-11.8-6.2s-.9-18.1.5-32.3c2-20.1,16.9-43.4,32.3-37.7s-7.1,26.1-12.1,43.1S310.9,248.8,310.9,248.8Z"/><path class="g" d="M310.9,248.8l-11.8-6.2s-.9-18.1.5-32.3c2-20.1,16.9-43.4,32.3-37.7s-7.1,26.1-12.1,43.1S310.9,248.8,310.9,248.8Z"/><path class="h" d="M305.1,246.7h0a.5.5,0,0,0,.5-.5c-1.5-44.6,20.7-67,20.9-67.3a.5.5,0,0,0-.7-.7c-.2.2-22.7,23-21.2,68A.5.5,0,0,0,305.1,246.7Z"/><path class="i" d="M316.9,252.4l-6.1-3.6a68.8,68.8,0,0,1,3.8-29.7c5.7-15.4,20.3-23.8,27.1-21.5s8.3,10.7,5.3,15.8S321.4,235,316.9,252.4Z"/><path class="h" d="M313.7,251h0a.5.5,0,0,0,.5-.5c-.1-28.2,26.3-47.3,26.6-47.4a.5.5,0,0,0,.1-.8.5.5,0,0,0-.7-.1c-.3.2-27.2,19.6-27,48.3A.5.5,0,0,0,313.7,251Z"/><path class="j" d="M230.4,216.3s-1.9.1-2.1-2.7A1.8,1.8,0,0,0,230.4,216.3Z"/><path class="f" d="M95.5,286.6a7.5,7.5,0,0,0,3.5,5.8l76.6,44.3a8.1,8.1,0,0,0,7.1,0l134.9-77.9a7.7,7.7,0,0,0,3.5-5.9,7.5,7.5,0,0,0-3.5-5.8L241,202.9a7.5,7.5,0,0,0-7.1,0L99,280.7A7.9,7.9,0,0,0,95.5,286.6Z"/><path class="k" d="M321.1,252.9a7.7,7.7,0,0,1-3.5,5.9L182.7,336.7a8.3,8.3,0,0,1-3.6.8v-7.6a8.3,8.3,0,0,0,3.6-.8l134.9-77.9c1.7-1,1.9-2.5.6-3.7A7.9,7.9,0,0,1,321.1,252.9Z"/><path class="l" d="M99,284.8l76.6,44.3a8.1,8.1,0,0,0,7.1,0l134.9-77.9c1.9-1.2,1.9-3,0-4.1L241,202.9a7.5,7.5,0,0,0-7.1,0L99,280.7C97.1,281.9,97.1,283.7,99,284.8Z"/><path class="j" d="M179.1,329.9v7.6a8.2,8.2,0,0,1-3.5-.8L99,292.4a7.5,7.5,0,0,1-3.5-5.8,7.4,7.4,0,0,1,3.2-5.6c-1.6,1.1-1.5,2.8.3,3.8l76.6,44.3A8.2,8.2,0,0,0,179.1,329.9Z"/><path class="f" d="M92.2,280.9c-1.8-1.1-1.7-2.9-1.7-5.1V170a7.5,7.5,0,0,1,3.5-6.1L228.9,86a7.4,7.4,0,0,1,6.8-.1c1.8,1,1.7,2.8,1.7,5V196.8a7.8,7.8,0,0,1-3.5,6.1L99,280.7A7.4,7.4,0,0,1,92.2,280.9Z"/><path class="l" d="M237.4,90.9c0-2.2-1.5-3.1-3.5-2L99,166.8a7.8,7.8,0,0,0-2.5,2.6l-5-2.9h0a6.3,6.3,0,0,1,2.5-2.6L228.9,86a7.4,7.4,0,0,1,6.8-.1C237.5,86.9,237.4,88.7,237.4,90.9Z"/><path class="k" d="M95.5,172.9V278.7c0,2.3,1.6,3.2,3.5,2l134.9-77.8a7.8,7.8,0,0,0,3.5-6.1V90.9c0-2.2-1.5-3.1-3.5-2L99,166.8A7.8,7.8,0,0,0,95.5,172.9Z"/><path class="j" d="M98.6,281a7.5,7.5,0,0,1-6.4-.1c-1.8-1.1-1.7-2.9-1.7-5.1V170a7.8,7.8,0,0,1,1-3.5l5,2.9h0a7.8,7.8,0,0,0-1,3.5V278.7C95.5,280.8,96.8,281.7,98.6,281Z"/><path class="m" d="M100.9,170.9,231,95.8c1.1-.7,2.1-.1,2.1,1.2v92.4A4.7,4.7,0,0,1,231,193L100.9,268.1c-1.2.7-2.1.1-2.1-1.2V174.5A4.4,4.4,0,0,1,100.9,170.9Z"/><path class="l" d="M108.7,281,234,208.7a3.6,3.6,0,0,1,3.5,0l2.1,1.1c.9.6.9,1.5,0,2L114.3,284.1a3.6,3.6,0,0,1-3.5,0l-2.1-1.1C107.8,282.4,107.8,281.5,108.7,281Z"/><path class="j" d="M118.6,286.8l125.2-72.3a3.6,3.6,0,0,1,3.2-.2l32.6,18.8c.8.5.7,1.3-.3,1.9L154.2,307.2a3.6,3.6,0,0,1-3.2.2l-32.7-18.8C117.5,288.2,117.6,287.4,118.6,286.8Z"/><path class="f" d="M227.1,244.9l3.9-2.3q.3-.2,0-.3l-3.7-2.2h-.6l-3.9,2.3q-.3.2,0,.3l3.7,2.2Zm-5.7-7.9-4,2.3a.2.2,0,0,0,0,.3l3.7,2.2h.6l3.9-2.3c.2-.1.2-.2.1-.3l-3.8-2.2Zm-12.7,7.3-6.6,3.9c-.2.1-.2.2-.1.3l3.8,2.2c.1.1.4,0,.5-.1l6.7-3.8c.1-.1.2-.2,0-.3l-3.7-2.2A.6.6,0,0,0,208.7,244.3Zm6.9-4-3.9,2.3q-.3.2,0,.3l3.7,2.2h.6l3.9-2.3q.3-.2,0-.3l-3.7-2.2A.6.6,0,0,0,215.6,240.3Zm-15.4,8.9-3.9,2.3c-.1.1-.2.2,0,.3L200,254h.6l3.9-2.3c.2-.1.2-.2.1-.3l-3.8-2.2Zm-5.7,3.3-3.9,2.3q-.3.1,0,.3l3.7,2.2h.6l3.9-2.3q.3-.1,0-.3l-3.7-2.2Zm14.7,8.9,3.9-2.3c.2-.1.2-.2.1-.3l-3.8-2.2a.6.6,0,0,0-.6,0l-3.9,2.3c-.1.1-.2.2,0,.3l3.7,2.2A.6.6,0,0,0,209.2,261.4Zm-5.7,3.3,3.9-2.3q.3-.1,0-.3l-3.7-2.2h-.6l-3.9,2.3q-.3.2,0,.3l3.7,2.2A.6.6,0,0,0,203.5,264.7Zm-5.7,3.3,3.9-2.3c.1-.1.2-.2,0-.3l-3.7-2.2h-.6l-3.9,2.3c-.2.1-.2.2-.1.3l3.8,2.2A.6.6,0,0,0,197.8,268Zm-5.8,3.3,3.9-2.3c.2-.1.2-.2.1-.3l-3.8-2.2c-.1-.1-.4,0-.5.1l-4,2.2c-.1.1-.1.3,0,.3l3.8,2.2Zm29.3-23.1,4-2.3a.2.2,0,0,0,0-.3l-3.7-2.2H221l-3.9,2.3c-.2.1-.2.2-.1.3l3.8,2.2A.5.5,0,0,0,221.3,248.2Zm-6.4,9.9,8.8-5.1q.3-.1,0-.3l-9.1-5.3H214l-4.5,2.6c-.1.1-.2.3,0,.4l4.8,2.8c.2,0,.1.2,0,.3l-3.6,2.1c-.2.1-.2.2-.1.3l3.8,2.2Zm-26.1-2.3-3.9,2.3c-.2.1-.2.2-.1.3l3.8,2.2h.5l4-2.3a.2.2,0,0,0,0-.3l-3.7-2.2A.6.6,0,0,0,188.8,255.8Zm-5.7,3.3-4,2.3c-.1.1-.2.3,0,.3l3.7,2.2a.6.6,0,0,0,.6,0l3.9-2.3c.2-.1.2-.2.1-.3l-3.8-2.2A.5.5,0,0,0,183.1,259.1Zm-31.8,35.4a.7.7,0,0,0,.6-.1l3.9-2.2c.2-.1.2-.3.1-.3l-3.8-2.2h-.6l-3.9,2.3c-.1.1-.2.2,0,.3Zm-14.1-8.9-3.9,2.3q-.3.2,0,.3l3.7,2.2c.2.1.4,0,.6,0l3.9-2.3c.2-.1.2-.3,0-.3l-3.7-2.2A.6.6,0,0,0,137.2,285.6Zm7.3,6.6a.5.5,0,0,0,.5,0l4-2.2a.3.3,0,0,0,0-.4l-3.8-2.1a.5.5,0,0,0-.5,0l-3.9,2.2a.2.2,0,0,0-.1.4Zm15.8,3.6,3.9-2.3q.3-.2,0-.3l-3.7-2.2h-.6l-3.9,2.2a.2.2,0,0,0,0,.4l3.7,2.1Zm-6.3,3.3h.6l3.9-2.3c.1-.1.2-.2,0-.3l-3.7-2.1h-.6l-3.9,2.2a.2.2,0,0,0-.1.4Zm-11.1-16.8-3.9,2.3c-.1.1-.2.2,0,.3l3.7,2.2h.6l3.9-2.2a.2.2,0,0,0,.1-.4l-3.8-2.1A.6.6,0,0,0,142.9,282.3Zm28.7-16.5-3.9,2.2a.2.2,0,0,0-.1.4l3.8,2.1a.6.6,0,0,0,.6,0l3.9-2.3c.1-.1.2-.2,0-.3l-3.7-2.2ZM148.7,279l-4,2.3a.2.2,0,0,0,0,.3l3.8,2.2h.5l4-2.2a.3.3,0,0,0,0-.4l-3.8-2.1A.5.5,0,0,0,148.7,279Zm28.6-16.5-3.9,2.2c-.2.1-.2.3,0,.3l3.7,2.2a.6.6,0,0,0,.6,0l3.9-2.3q.3-.1,0-.3l-3.7-2.2A.7.7,0,0,0,177.3,262.5Zm-11.4,6.6-4,2.2a.3.3,0,0,0,0,.4l3.8,2.1h.5l3.9-2.3c.2-.1.2-.2.1-.3l-3.8-2.1A.5.5,0,0,0,165.9,269.1Zm-5.8,3.3-3.9,2.2a.2.2,0,0,0,0,.4l3.7,2.1h.6l3.9-2.2a.2.2,0,0,0,0-.4l-3.7-2.1Zm-5.7,3.3-3.9,2.2a.2.2,0,0,0-.1.4l3.8,2.1a.6.6,0,0,0,.6,0l3.9-2.2a.2.2,0,0,0,0-.4l-3.7-2.1Zm26.2,2.2,3.9-2.3c.1-.1.2-.2,0-.3l-3.7-2.2h-.6l-3.9,2.2a.2.2,0,0,0-.1.4l3.8,2.1A.6.6,0,0,0,180.6,277.9ZM234,229.7l-3.9,2.3q-.3.1,0,.3l3.7,2.2h.6l3.9-2.3c.2-.1.2-.3,0-.3l-3.7-2.2Zm-6.9,4-3.9,2.3c-.2.1-.2.2-.1.3l3.8,2.2h.5l4-2.3c.1-.1.2-.2,0-.3l-3.7-2.2Zm12.6-7.3-3.9,2.3c-.1.1-.2.2,0,.3l3.7,2.2a.7.7,0,0,0,.6-.1l3.9-2.2c.2-.1.2-.3.1-.3l-3.8-2.2Zm-31.6,29.4,3.9-2.2a.2.2,0,0,0,0-.4l-3.7-2.1h-.6l-3.9,2.3q-.3.2,0,.3l3.7,2.2ZM246,223.1h-.5l-3.9,2.3c-.2.1-.2.2-.1.3l3.8,2.2h.5l4-2.2a.3.3,0,0,0,0-.4Zm-59.7,51.5,3.9-2.3q.3-.2,0-.3l-3.7-2.2h-.6l-3.9,2.2a.2.2,0,0,0,0,.4l3.7,2.1ZM256.6,234l3.9-2.2a.2.2,0,0,0,0-.4l-3.7-2.1a.6.6,0,0,0-.6,0l-3.9,2.3c-.2,0-.2.2-.1.3L256,234Zm-11.1.2,3.9-2.2a.2.2,0,0,0,0-.4l-3.7-2.1h-.6l-3.9,2.3q-.3.1,0,.3l3.7,2.2Zm5.9-8h-.6l-3.9,2.3c-.1.1-.2.2,0,.3l3.7,2.2h.6l3.9-2.2a.2.2,0,0,0,.1-.4Zm1.2-.7,9.1,5.2a.6.6,0,0,0,.6,0l3.9-2.2a.2.2,0,0,0,0-.4l-9.1-5.2h-.5l-4,2.2A.3.3,0,0,0,252.6,225.5Zm-13.2,7.3-3.9,2.3c-.2.1-.2.2-.1.3l3.8,2.2c.1.1.4,0,.5-.1l4-2.2c.1-.1.1-.3,0-.3l-3.8-2.2A.5.5,0,0,0,239.4,232.8Zm-43.1,24.9-4,2.3c-.1.1-.2.2,0,.3l3.7,2.2a.7.7,0,0,0,.6-.1l3.9-2.2c.2-.1.2-.3.1-.3l-3.8-2.2Zm54-20.3h.5l4-2.2a.3.3,0,0,0,0-.4l-3.8-2.1h-.5l-4,2.3a.2.2,0,0,0,0,.3Zm-48.3,17-3.9,2.3c-.2.1-.2.2-.1.3l3.8,2.2h.5l4-2.2a.3.3,0,0,0,0-.4l-3.7-2.1Zm-44.9,36.8h.5l4-2.2a.3.3,0,0,0,0-.4l-3.8-2.1h-.5l-3.9,2.3c-.2.1-.2.2-.1.3Zm-6.7-7-3.9,2.2a.2.2,0,0,0,0,.4l3.7,2.1a.6.6,0,0,0,.6,0l3.9-2.2a.2.2,0,0,0,0-.4l-3.7-2.1Zm13,3.6,3.9-2.2a.2.2,0,0,0,0-.4l-3.7-2.1a.6.6,0,0,0-.6,0l-3.9,2.3c-.2.1-.2.2-.1.3l3.8,2.2Zm5.7-3.3,3.9-2.2a.2.2,0,0,0,.1-.4l-3.8-2.1a.6.6,0,0,0-.6,0l-3.9,2.2a.2.2,0,0,0,0,.4l3.7,2.1A.6.6,0,0,0,169.1,284.5Zm5.7-3.3,4-2.2a.3.3,0,0,0,0-.4l-3.8-2.1a.5.5,0,0,0-.5,0l-4,2.2a.3.3,0,0,0,0,.4l3.8,2.1A.5.5,0,0,0,174.8,281.2Zm-18.7-.3-3.9,2.2c-.1.1-.2.3,0,.4l3.7,2.1h.6l3.9-2.3c.2-.1.2-.2.1-.3l-3.8-2.1Zm5.8-3.3-4,2.2a.3.3,0,0,0,0,.4l3.8,2.1h.5l4-2.3a.2.2,0,0,0,0-.3l-3.8-2.2Zm22.9-13.3-3.9,2.3c-.2.1-.2.2-.1.3l3.8,2.2h.6l3.9-2.3c.1-.1.2-.2,0-.3l-3.7-2.2A.6.6,0,0,0,184.8,264.3Zm-5.7,3.3-4,2.3a.2.2,0,0,0,0,.3l3.8,2.2a.5.5,0,0,0,.5,0l3.9-2.3c.2-.1.2-.2.1-.3l-3.8-2.2A.5.5,0,0,0,179.1,267.6Zm11.4-6.6-3.9,2.3q-.3.1,0,.3l3.7,2.2h.6l3.9-2.3q.3-.2,0-.3l-3.7-2.2A.6.6,0,0,0,190.5,261Zm-22.9,13.3-3.9,2.2c-.2.1-.2.3-.1.3l3.8,2.2a.6.6,0,0,0,.6,0l3.9-2.3q.3-.1,0-.3l-3.7-2.2A.7.7,0,0,0,167.6,274.3Zm5.7-3.4-3.9,2.3c-.2.1-.2.3,0,.3l3.7,2.2a.6.6,0,0,0,.6,0l3.9-2.3q.3-.1,0-.3l-3.7-2.2ZM166,292.5l3.9-2.3c.2-.1.2-.2.1-.3l-3.8-2.2c-.1-.1-.4,0-.6.1l-3.9,2.2c-.1.1-.2.3,0,.3l3.7,2.2A.6.6,0,0,0,166,292.5Zm-30.2-1.4-3.8-2.2h-.5l-3.9,2.3c-.2.1-.2.2-.1.3l3.8,2.2a.5.5,0,0,0,.5,0l4-2.3A.2.2,0,0,0,135.8,291.1Zm7.5,1.8-3.8-2.1a.6.6,0,0,0-.6,0l-6,3.5q-.3.1,0,.3l3.7,2.2h.6l6-3.5A.2.2,0,0,0,143.3,292.9Zm-13.1-6.1-3.8-2.2a.5.5,0,0,0-.5,0l-4.8,2.8a.2.2,0,0,0-.1.4l3.8,2.1a.5.5,0,0,0,.5,0l4.9-2.8A.2.2,0,0,0,130.2,286.8Zm3.7-2.1h.6l3.9-2.2a.2.2,0,0,0,0-.4l-3.7-2.1h-.6l-3.9,2.3c-.2.1-.2.2-.1.3Zm16.2,10.5-3.7-2.2a.6.6,0,0,0-.6,0l-7.5,4.4c-.2.1-.2.2-.1.3l3.8,2.2c.1.1.4,0,.6-.1l7.5-4.3C150.3,295.4,150.3,295.2,150.1,295.2Zm2.7,4.6-3.8-2.1h-.5l-4.9,2.8a.2.2,0,0,0,0,.3l3.7,2.2h.6l4.8-2.7A.2.2,0,0,0,152.8,299.8Zm23.7-39.7h.6l3.9-2.2a.2.2,0,0,0,0-.4l-3.7-2.1a.6.6,0,0,0-.6,0l-3.9,2.3q-.3.1,0,.3ZM165,266.7c.2.1.4,0,.6,0l3.9-2.3c.2-.1.2-.3.1-.3l-3.8-2.2h-.6l-3.9,2.3c-.1.1-.2.2,0,.3Zm-25.4,14.6h.6l3.9-2.2a.2.2,0,0,0,.1-.4l-3.8-2.1a.6.6,0,0,0-.6,0l-3.9,2.3c-.2,0-.2.2,0,.3Zm31.2-17.9h.5l4-2.2c.1-.1.1-.3,0-.3l-3.8-2.2a.5.5,0,0,0-.5,0l-3.9,2.3c-.2.1-.2.2-.1.3ZM159.3,270a.6.6,0,0,0,.6,0l3.9-2.3q.3-.1,0-.3l-3.7-2.2h-.6l-3.9,2.3q-.3.2,0,.3Zm-3.7,30.1a.6.6,0,0,0-.6,0l-6,3.5q-.3.1,0,.3l3.7,2.2h.6l6-3.4a.2.2,0,0,0,0-.4Zm-4.5-25.4a.6.6,0,0,0,.6,0l3.9-2.3c.1-.1.2-.2,0-.3l-3.7-2.1a.6.6,0,0,0-.6,0l-3.9,2.2a.2.2,0,0,0-.1.4Zm-5.7,3.3a.5.5,0,0,0,.5,0l3.9-2.2a.2.2,0,0,0,.1-.4l-3.8-2.1a.5.5,0,0,0-.5,0l-4,2.2a.3.3,0,0,0,0,.4Zm116.4-39.2a.6.6,0,0,0-.6,0l-9.7,5.6a.2.2,0,0,0,0,.3l3.8,2.1h.5l9.7-5.5c.1-.1.2-.3,0-.4Zm-12.7,7.3h-.6l-3.9,2.3q-.3.2,0,.3l3.7,2.2h.6l3.9-2.2a.2.2,0,0,0,0-.4Zm-77.4,43.1,4-2.3a.2.2,0,0,0,0-.3l-3.8-2.2h-.5l-3.9,2.3c-.2.1-.2.3-.1.3l3.8,2.2A.5.5,0,0,0,171.7,289.2Zm65.9-36.5h-.5l-4,2.3a.2.2,0,0,0,0,.3l3.8,2.2c.1.1.4,0,.5,0l3.9-2.3c.2-.1.2-.3.1-.3Zm29.9-17.2h-.6l-3.9,2.2a.2.2,0,0,0,0,.4l3.7,2.1a.6.6,0,0,0,.6,0l3.9-2.2a.2.2,0,0,0,0-.4Zm9.5-1.2-9.1-5.2h-.6l-3.9,2.2a.2.2,0,0,0-.1.4l9.1,5.2h.6l3.9-2.3C277.1,234.5,277.1,234.4,277,234.3Zm-60.8,30.8a.6.6,0,0,0-.6,0l-4.8,2.8c-.1.1-.2.2,0,.3l3.7,2.2h.6l4.8-2.7a.2.2,0,0,0,.1-.4Zm14.5-8.4h-.6l-6,3.5q-.3.2,0,.3l3.7,2.2a.6.6,0,0,0,.6,0l6-3.5q.3-.1,0-.3Zm-27.8,16h-.5l-32.3,18.7q-.3.2,0,.3l3.7,2.2h.6l32.3-18.6a.2.2,0,0,0,0-.3Zm-34,19.7h-.6l-4.8,2.8c-.2.1-.2.2-.1.3l3.8,2.2a.6.6,0,0,0,.6,0l4.8-2.8c.1-.1.2-.3,0-.3Zm40.7-23.5H209l-4.8,2.8c-.2.1-.2.2-.1.3l3.8,2.2a.6.6,0,0,0,.6,0l4.8-2.8c.2-.1.2-.3,0-.3Zm-47.4,27.3h-.5l-4.9,2.8a.3.3,0,0,0,0,.4l3.7,2.1a.6.6,0,0,0,.6,0l4.8-2.8c.2-.1.2-.2.1-.3Zm60.6-35h-.5l-4.8,2.8a.2.2,0,0,0-.1.4l3.8,2.1a.5.5,0,0,0,.5,0l4.9-2.8a.2.2,0,0,0,0-.3Zm20.6-11.8h-.6l-3.9,2.3c-.2.1-.2.2-.1.3l3.8,2.2h.6l3.9-2.2c.1-.1.2-.3,0-.3Zm12.8-9,3.9-2.2a.2.2,0,0,0,0-.4l-3.7-2.1h-.6l-3.9,2.3c-.2,0-.2.2,0,.3l3.7,2.1Zm-23.4,1.2,3.9-2.3c.2-.1.2-.3.1-.3l-3.8-2.2a.6.6,0,0,0-.6,0l-3.9,2.3c-.1.1-.2.2,0,.3l3.7,2.2Zm-15.2,21.1,11.4-6.6c.2-.1.2-.2.1-.3l-3.8-2.2h-.5l-11.5,6.6a.2.2,0,0,0,0,.4l3.7,2.1A.6.6,0,0,0,217.6,262.7Zm32.3-18.9h.6l3.9-2.2c.1-.1.2-.3,0-.4l-3.7-2.1h-.6l-3.9,2.3c-.2.1-.2.2-.1.3Zm-4.8-3.2,3.9-2.2c.2-.1.2-.3.1-.3l-3.8-2.2h-.6l-3.9,2.3q-.3.2,0,.3l3.7,2.2ZM211.9,266l3.9-2.2c.1-.1.2-.3,0-.4l-3.7-2.1a.6.6,0,0,0-.6,0l-3.9,2.3c-.2,0-.2.2-.1.3l3.8,2.1A.6.6,0,0,0,211.9,266Zm25.3-14.9h.6l3.9-2.3c.2-.1.2-.3,0-.3l-3.7-2.2a.6.6,0,0,0-.6,0l-3.9,2.3q-.3.2,0,.3Zm-54,31.5,3.9-2.3c.2-.1.2-.2.1-.3l-3.8-2.2a.6.6,0,0,0-.6,0l-3.9,2.3c-.1.1-.2.2,0,.3l3.7,2.2Zm5.7-3.3,4-2.3a.2.2,0,0,0,0-.3l-3.8-2.2a.5.5,0,0,0-.5,0l-4,2.3a.2.2,0,0,0,0,.3l3.8,2.2Zm-11.4,6.6,3.9-2.3q.3-.2,0-.3l-3.7-2.2a.6.6,0,0,0-.6,0l-3.9,2.3q-.3.2,0,.3l3.7,2.2A.6.6,0,0,0,177.5,285.9Zm22.9-13.3,3.9-2.2a.2.2,0,0,0,.1-.4l-3.8-2.1H200l-3.9,2.3q-.3.2,0,.3l3.7,2.2Zm-5.7,3.3,3.9-2.2c.2-.1.2-.3,0-.3l-3.7-2.2h-.6l-3.9,2.3c-.2.1-.2.2-.1.3l3.8,2.2C194.2,276.1,194.5,276,194.7,275.9Zm11.4-6.6,3.9-2.2a.2.2,0,0,0,.1-.4l-3.8-2.1a.5.5,0,0,0-.5,0l-4,2.3a.2.2,0,0,0,0,.3l3.8,2.2Zm31.3-46h.6l3.9-2.3q.3-.1,0-.3l-1-.6h-.5l-4,2.3a.2.2,0,0,0,0,.3Zm-28.5,18h.6l3.9-2.2a.2.2,0,0,0,0-.4l-3.7-2.1h-.6l-3.9,2.2a.2.2,0,0,0,0,.4Zm11.5-6.6a.5.5,0,0,0,.5,0l4-2.3a.2.2,0,0,0,0-.3l-3.8-2.2h-.5l-3.9,2.2a.2.2,0,0,0-.1.4Zm-18.5,10.7h.6l3.9-2.3q.3-.2,0-.3l-3.7-2.2h-.6l-3.9,2.3q-.3.2,0,.3Zm12.7-7.4h.6l3.9-2.2a.2.2,0,0,0,.1-.4l-3.8-2.1a.6.6,0,0,0-.6,0l-3.9,2.2c-.1.1-.2.3,0,.4Zm-24.1,14h.5l3.9-2.3c.2-.1.2-.2.1-.3l-3.8-2.2h-.5l-4,2.3a.2.2,0,0,0,0,.3Zm5.7-3.3a.6.6,0,0,0,.6,0l3.9-2.3c.1-.1.2-.2,0-.3l-3.7-2.2h-.6l-3.9,2.3c-.2.1-.2.2-.1.3Zm29.7-18.8h.6l3.9-2.3c.2-.1.2-.2.1-.3l-1-.6h-.6L225,229c-.2.1-.2.3-.1.3Zm17.2-9.9h.6l3.9-2.3c.2-.1.2-.2.1-.3l-1-.6a.6.6,0,0,0-.6,0l-3.9,2.3c-.2.1-.2.2-.1.3Zm7.9,4.5h.6l3.9-2.2a.2.2,0,0,0,0-.4l-3.7-2.1a.6.6,0,0,0-.6,0l-3.9,2.3q-.3.2,0,.3Zm10.9,12.6,3.9-2.2a.2.2,0,0,0,.1-.4l-3.8-2.1h-.5l-4,2.2a.3.3,0,0,0,0,.4l3.8,2.1Zm-30.2-10.5h.5l4-2.3a.2.2,0,0,0,0-.3l-1-.6h-.6l-3.9,2.3c-.2.1-.2.3,0,.3Zm-47,28.7h.6l3.9-2.3c.2-.1.2-.2.1-.3l-3.8-2.2h-.6l-3.9,2.3c-.2.1-.2.3,0,.3Z"/><path class="n" d="M227.1,244.9l3.9-2.3q.3-.2,0-.3l-3.7-2.2h-.6l-3.9,2.3q-.3.2,0,.3l3.7,2.2Zm-5.7-7.9-4,2.3a.2.2,0,0,0,0,.3l3.7,2.2h.6l3.9-2.3c.2-.1.2-.2.1-.3l-3.8-2.2Zm-12.7,7.3-6.6,3.9c-.2.1-.2.2-.1.3l3.8,2.2c.1.1.4,0,.5-.1l6.7-3.8c.1-.1.2-.2,0-.3l-3.7-2.2A.6.6,0,0,0,208.7,244.3Zm6.9-4-3.9,2.3q-.3.2,0,.3l3.7,2.2h.6l3.9-2.3q.3-.2,0-.3l-3.7-2.2A.6.6,0,0,0,215.6,240.3Zm-15.4,8.9-3.9,2.3c-.1.1-.2.2,0,.3L200,254h.6l3.9-2.3c.2-.1.2-.2.1-.3l-3.8-2.2Zm-5.7,3.3-3.9,2.3q-.3.1,0,.3l3.7,2.2h.6l3.9-2.3q.3-.1,0-.3l-3.7-2.2Zm14.7,8.9,3.9-2.3c.2-.1.2-.2.1-.3l-3.8-2.2a.6.6,0,0,0-.6,0l-3.9,2.3c-.1.1-.2.2,0,.3l3.7,2.2A.6.6,0,0,0,209.2,261.4Zm-5.7,3.3,3.9-2.3q.3-.1,0-.3l-3.7-2.2h-.6l-3.9,2.3q-.3.2,0,.3l3.7,2.2A.6.6,0,0,0,203.5,264.7Zm-5.7,3.3,3.9-2.3c.1-.1.2-.2,0-.3l-3.7-2.2h-.6l-3.9,2.3c-.2.1-.2.2-.1.3l3.8,2.2A.6.6,0,0,0,197.8,268Zm-5.8,3.3,3.9-2.3c.2-.1.2-.2.1-.3l-3.8-2.2c-.1-.1-.4,0-.5.1l-4,2.2c-.1.1-.1.3,0,.3l3.8,2.2Zm29.3-23.1,4-2.3a.2.2,0,0,0,0-.3l-3.7-2.2H221l-3.9,2.3c-.2.1-.2.2-.1.3l3.8,2.2A.5.5,0,0,0,221.3,248.2Zm-6.4,9.9,8.8-5.1q.3-.1,0-.3l-9.1-5.3H214l-4.5,2.6c-.1.1-.2.3,0,.4l4.8,2.8c.2,0,.1.2,0,.3l-3.6,2.1c-.2.1-.2.2-.1.3l3.8,2.2Zm-26.1-2.3-3.9,2.3c-.2.1-.2.2-.1.3l3.8,2.2h.5l4-2.3a.2.2,0,0,0,0-.3l-3.7-2.2A.6.6,0,0,0,188.8,255.8Zm-5.7,3.3-4,2.3c-.1.1-.2.3,0,.3l3.7,2.2a.6.6,0,0,0,.6,0l3.9-2.3c.2-.1.2-.2.1-.3l-3.8-2.2A.5.5,0,0,0,183.1,259.1Zm-31.8,35.4a.7.7,0,0,0,.6-.1l3.9-2.2c.2-.1.2-.3.1-.3l-3.8-2.2h-.6l-3.9,2.3c-.1.1-.2.2,0,.3Zm-14.1-8.9-3.9,2.3q-.3.2,0,.3l3.7,2.2c.2.1.4,0,.6,0l3.9-2.3c.2-.1.2-.3,0-.3l-3.7-2.2A.6.6,0,0,0,137.2,285.6Zm7.3,6.6a.5.5,0,0,0,.5,0l4-2.2a.3.3,0,0,0,0-.4l-3.8-2.1a.5.5,0,0,0-.5,0l-3.9,2.2a.2.2,0,0,0-.1.4Zm15.8,3.6,3.9-2.3q.3-.2,0-.3l-3.7-2.2h-.6l-3.9,2.2a.2.2,0,0,0,0,.4l3.7,2.1Zm-6.3,3.3h.6l3.9-2.3c.1-.1.2-.2,0-.3l-3.7-2.1h-.6l-3.9,2.2a.2.2,0,0,0-.1.4Zm-11.1-16.8-3.9,2.3c-.1.1-.2.2,0,.3l3.7,2.2h.6l3.9-2.2a.2.2,0,0,0,.1-.4l-3.8-2.1A.6.6,0,0,0,142.9,282.3Zm28.7-16.5-3.9,2.2a.2.2,0,0,0-.1.4l3.8,2.1a.6.6,0,0,0,.6,0l3.9-2.3c.1-.1.2-.2,0-.3l-3.7-2.2ZM148.7,279l-4,2.3a.2.2,0,0,0,0,.3l3.8,2.2h.5l4-2.2a.3.3,0,0,0,0-.4l-3.8-2.1A.5.5,0,0,0,148.7,279Zm28.6-16.5-3.9,2.2c-.2.1-.2.3,0,.3l3.7,2.2a.6.6,0,0,0,.6,0l3.9-2.3q.3-.1,0-.3l-3.7-2.2A.7.7,0,0,0,177.3,262.5Zm-11.4,6.6-4,2.2a.3.3,0,0,0,0,.4l3.8,2.1h.5l3.9-2.3c.2-.1.2-.2.1-.3l-3.8-2.1A.5.5,0,0,0,165.9,269.1Zm-5.8,3.3-3.9,2.2a.2.2,0,0,0,0,.4l3.7,2.1h.6l3.9-2.2a.2.2,0,0,0,0-.4l-3.7-2.1Zm-5.7,3.3-3.9,2.2a.2.2,0,0,0-.1.4l3.8,2.1a.6.6,0,0,0,.6,0l3.9-2.2a.2.2,0,0,0,0-.4l-3.7-2.1Zm26.2,2.2,3.9-2.3c.1-.1.2-.2,0-.3l-3.7-2.2h-.6l-3.9,2.2a.2.2,0,0,0-.1.4l3.8,2.1A.6.6,0,0,0,180.6,277.9ZM234,229.7l-3.9,2.3q-.3.1,0,.3l3.7,2.2h.6l3.9-2.3c.2-.1.2-.3,0-.3l-3.7-2.2Zm-6.9,4-3.9,2.3c-.2.1-.2.2-.1.3l3.8,2.2h.5l4-2.3c.1-.1.2-.2,0-.3l-3.7-2.2Zm12.6-7.3-3.9,2.3c-.1.1-.2.2,0,.3l3.7,2.2a.7.7,0,0,0,.6-.1l3.9-2.2c.2-.1.2-.3.1-.3l-3.8-2.2Zm-31.6,29.4,3.9-2.2a.2.2,0,0,0,0-.4l-3.7-2.1h-.6l-3.9,2.3q-.3.2,0,.3l3.7,2.2ZM246,223.1h-.5l-3.9,2.3c-.2.1-.2.2-.1.3l3.8,2.2h.5l4-2.2a.3.3,0,0,0,0-.4Zm-59.7,51.5,3.9-2.3q.3-.2,0-.3l-3.7-2.2h-.6l-3.9,2.2a.2.2,0,0,0,0,.4l3.7,2.1ZM256.6,234l3.9-2.2a.2.2,0,0,0,0-.4l-3.7-2.1a.6.6,0,0,0-.6,0l-3.9,2.3c-.2,0-.2.2-.1.3L256,234Zm-11.1.2,3.9-2.2a.2.2,0,0,0,0-.4l-3.7-2.1h-.6l-3.9,2.3q-.3.1,0,.3l3.7,2.2Zm5.9-8h-.6l-3.9,2.3c-.1.1-.2.2,0,.3l3.7,2.2h.6l3.9-2.2a.2.2,0,0,0,.1-.4Zm1.2-.7,9.1,5.2a.6.6,0,0,0,.6,0l3.9-2.2a.2.2,0,0,0,0-.4l-9.1-5.2h-.5l-4,2.2A.3.3,0,0,0,252.6,225.5Zm-13.2,7.3-3.9,2.3c-.2.1-.2.2-.1.3l3.8,2.2c.1.1.4,0,.5-.1l4-2.2c.1-.1.1-.3,0-.3l-3.8-2.2A.5.5,0,0,0,239.4,232.8Zm-43.1,24.9-4,2.3c-.1.1-.2.2,0,.3l3.7,2.2a.7.7,0,0,0,.6-.1l3.9-2.2c.2-.1.2-.3.1-.3l-3.8-2.2Zm54-20.3h.5l4-2.2a.3.3,0,0,0,0-.4l-3.8-2.1h-.5l-4,2.3a.2.2,0,0,0,0,.3Zm-48.3,17-3.9,2.3c-.2.1-.2.2-.1.3l3.8,2.2h.5l4-2.2a.3.3,0,0,0,0-.4l-3.7-2.1Zm-44.9,36.8h.5l4-2.2a.3.3,0,0,0,0-.4l-3.8-2.1h-.5l-3.9,2.3c-.2.1-.2.2-.1.3Zm-6.7-7-3.9,2.2a.2.2,0,0,0,0,.4l3.7,2.1a.6.6,0,0,0,.6,0l3.9-2.2a.2.2,0,0,0,0-.4l-3.7-2.1Zm13,3.6,3.9-2.2a.2.2,0,0,0,0-.4l-3.7-2.1a.6.6,0,0,0-.6,0l-3.9,2.3c-.2.1-.2.2-.1.3l3.8,2.2Zm5.7-3.3,3.9-2.2a.2.2,0,0,0,.1-.4l-3.8-2.1a.6.6,0,0,0-.6,0l-3.9,2.2a.2.2,0,0,0,0,.4l3.7,2.1A.6.6,0,0,0,169.1,284.5Zm5.7-3.3,4-2.2a.3.3,0,0,0,0-.4l-3.8-2.1a.5.5,0,0,0-.5,0l-4,2.2a.3.3,0,0,0,0,.4l3.8,2.1A.5.5,0,0,0,174.8,281.2Zm-18.7-.3-3.9,2.2c-.1.1-.2.3,0,.4l3.7,2.1h.6l3.9-2.3c.2-.1.2-.2.1-.3l-3.8-2.1Zm5.8-3.3-4,2.2a.3.3,0,0,0,0,.4l3.8,2.1h.5l4-2.3a.2.2,0,0,0,0-.3l-3.8-2.2Zm22.9-13.3-3.9,2.3c-.2.1-.2.2-.1.3l3.8,2.2h.6l3.9-2.3c.1-.1.2-.2,0-.3l-3.7-2.2A.6.6,0,0,0,184.8,264.3Zm-5.7,3.3-4,2.3a.2.2,0,0,0,0,.3l3.8,2.2a.5.5,0,0,0,.5,0l3.9-2.3c.2-.1.2-.2.1-.3l-3.8-2.2A.5.5,0,0,0,179.1,267.6Zm11.4-6.6-3.9,2.3q-.3.1,0,.3l3.7,2.2h.6l3.9-2.3q.3-.2,0-.3l-3.7-2.2A.6.6,0,0,0,190.5,261Zm-22.9,13.3-3.9,2.2c-.2.1-.2.3-.1.3l3.8,2.2a.6.6,0,0,0,.6,0l3.9-2.3q.3-.1,0-.3l-3.7-2.2A.7.7,0,0,0,167.6,274.3Zm5.7-3.4-3.9,2.3c-.2.1-.2.3,0,.3l3.7,2.2a.6.6,0,0,0,.6,0l3.9-2.3q.3-.1,0-.3l-3.7-2.2ZM166,292.5l3.9-2.3c.2-.1.2-.2.1-.3l-3.8-2.2c-.1-.1-.4,0-.6.1l-3.9,2.2c-.1.1-.2.3,0,.3l3.7,2.2A.6.6,0,0,0,166,292.5Zm-30.2-1.4-3.8-2.2h-.5l-3.9,2.3c-.2.1-.2.2-.1.3l3.8,2.2a.5.5,0,0,0,.5,0l4-2.3A.2.2,0,0,0,135.8,291.1Zm7.5,1.8-3.8-2.1a.6.6,0,0,0-.6,0l-6,3.5q-.3.1,0,.3l3.7,2.2h.6l6-3.5A.2.2,0,0,0,143.3,292.9Zm-13.1-6.1-3.8-2.2a.5.5,0,0,0-.5,0l-4.8,2.8a.2.2,0,0,0-.1.4l3.8,2.1a.5.5,0,0,0,.5,0l4.9-2.8A.2.2,0,0,0,130.2,286.8Zm3.7-2.1h.6l3.9-2.2a.2.2,0,0,0,0-.4l-3.7-2.1h-.6l-3.9,2.3c-.2.1-.2.2-.1.3Zm16.2,10.5-3.7-2.2a.6.6,0,0,0-.6,0l-7.5,4.4c-.2.1-.2.2-.1.3l3.8,2.2c.1.1.4,0,.6-.1l7.5-4.3C150.3,295.4,150.3,295.2,150.1,295.2Zm2.7,4.6-3.8-2.1h-.5l-4.9,2.8a.2.2,0,0,0,0,.3l3.7,2.2h.6l4.8-2.7A.2.2,0,0,0,152.8,299.8Zm23.7-39.7h.6l3.9-2.2a.2.2,0,0,0,0-.4l-3.7-2.1a.6.6,0,0,0-.6,0l-3.9,2.3q-.3.1,0,.3ZM165,266.7c.2.1.4,0,.6,0l3.9-2.3c.2-.1.2-.3.1-.3l-3.8-2.2h-.6l-3.9,2.3c-.1.1-.2.2,0,.3Zm-25.4,14.6h.6l3.9-2.2a.2.2,0,0,0,.1-.4l-3.8-2.1a.6.6,0,0,0-.6,0l-3.9,2.3c-.2,0-.2.2,0,.3Zm31.2-17.9h.5l4-2.2c.1-.1.1-.3,0-.3l-3.8-2.2a.5.5,0,0,0-.5,0l-3.9,2.3c-.2.1-.2.2-.1.3ZM159.3,270a.6.6,0,0,0,.6,0l3.9-2.3q.3-.1,0-.3l-3.7-2.2h-.6l-3.9,2.3q-.3.2,0,.3Zm-3.7,30.1a.6.6,0,0,0-.6,0l-6,3.5q-.3.1,0,.3l3.7,2.2h.6l6-3.4a.2.2,0,0,0,0-.4Zm-4.5-25.4a.6.6,0,0,0,.6,0l3.9-2.3c.1-.1.2-.2,0-.3l-3.7-2.1a.6.6,0,0,0-.6,0l-3.9,2.2a.2.2,0,0,0-.1.4Zm-5.7,3.3a.5.5,0,0,0,.5,0l3.9-2.2a.2.2,0,0,0,.1-.4l-3.8-2.1a.5.5,0,0,0-.5,0l-4,2.2a.3.3,0,0,0,0,.4Zm116.4-39.2a.6.6,0,0,0-.6,0l-9.7,5.6a.2.2,0,0,0,0,.3l3.8,2.1h.5l9.7-5.5c.1-.1.2-.3,0-.4Zm-12.7,7.3h-.6l-3.9,2.3q-.3.2,0,.3l3.7,2.2h.6l3.9-2.2a.2.2,0,0,0,0-.4Zm-77.4,43.1,4-2.3a.2.2,0,0,0,0-.3l-3.8-2.2h-.5l-3.9,2.3c-.2.1-.2.3-.1.3l3.8,2.2A.5.5,0,0,0,171.7,289.2Zm65.9-36.5h-.5l-4,2.3a.2.2,0,0,0,0,.3l3.8,2.2c.1.1.4,0,.5,0l3.9-2.3c.2-.1.2-.3.1-.3Zm29.9-17.2h-.6l-3.9,2.2a.2.2,0,0,0,0,.4l3.7,2.1a.6.6,0,0,0,.6,0l3.9-2.2a.2.2,0,0,0,0-.4Zm9.5-1.2-9.1-5.2h-.6l-3.9,2.2a.2.2,0,0,0-.1.4l9.1,5.2h.6l3.9-2.3C277.1,234.5,277.1,234.4,277,234.3Zm-60.8,30.8a.6.6,0,0,0-.6,0l-4.8,2.8c-.1.1-.2.2,0,.3l3.7,2.2h.6l4.8-2.7a.2.2,0,0,0,.1-.4Zm14.5-8.4h-.6l-6,3.5q-.3.2,0,.3l3.7,2.2a.6.6,0,0,0,.6,0l6-3.5q.3-.1,0-.3Zm-27.8,16h-.5l-32.3,18.7q-.3.2,0,.3l3.7,2.2h.6l32.3-18.6a.2.2,0,0,0,0-.3Zm-34,19.7h-.6l-4.8,2.8c-.2.1-.2.2-.1.3l3.8,2.2a.6.6,0,0,0,.6,0l4.8-2.8c.1-.1.2-.3,0-.3Zm40.7-23.5H209l-4.8,2.8c-.2.1-.2.2-.1.3l3.8,2.2a.6.6,0,0,0,.6,0l4.8-2.8c.2-.1.2-.3,0-.3Zm-47.4,27.3h-.5l-4.9,2.8a.3.3,0,0,0,0,.4l3.7,2.1a.6.6,0,0,0,.6,0l4.8-2.8c.2-.1.2-.2.1-.3Zm60.6-35h-.5l-4.8,2.8a.2.2,0,0,0-.1.4l3.8,2.1a.5.5,0,0,0,.5,0l4.9-2.8a.2.2,0,0,0,0-.3Zm20.6-11.8h-.6l-3.9,2.3c-.2.1-.2.2-.1.3l3.8,2.2h.6l3.9-2.2c.1-.1.2-.3,0-.3Zm12.8-9,3.9-2.2a.2.2,0,0,0,0-.4l-3.7-2.1h-.6l-3.9,2.3c-.2,0-.2.2,0,.3l3.7,2.1Zm-23.4,1.2,3.9-2.3c.2-.1.2-.3.1-.3l-3.8-2.2a.6.6,0,0,0-.6,0l-3.9,2.3c-.1.1-.2.2,0,.3l3.7,2.2Zm-15.2,21.1,11.4-6.6c.2-.1.2-.2.1-.3l-3.8-2.2h-.5l-11.5,6.6a.2.2,0,0,0,0,.4l3.7,2.1A.6.6,0,0,0,217.6,262.7Zm32.3-18.9h.6l3.9-2.2c.1-.1.2-.3,0-.4l-3.7-2.1h-.6l-3.9,2.3c-.2.1-.2.2-.1.3Zm-4.8-3.2,3.9-2.2c.2-.1.2-.3.1-.3l-3.8-2.2h-.6l-3.9,2.3q-.3.2,0,.3l3.7,2.2ZM211.9,266l3.9-2.2c.1-.1.2-.3,0-.4l-3.7-2.1a.6.6,0,0,0-.6,0l-3.9,2.3c-.2,0-.2.2-.1.3l3.8,2.1A.6.6,0,0,0,211.9,266Zm25.3-14.9h.6l3.9-2.3c.2-.1.2-.3,0-.3l-3.7-2.2a.6.6,0,0,0-.6,0l-3.9,2.3q-.3.2,0,.3Zm-54,31.5,3.9-2.3c.2-.1.2-.2.1-.3l-3.8-2.2a.6.6,0,0,0-.6,0l-3.9,2.3c-.1.1-.2.2,0,.3l3.7,2.2Zm5.7-3.3,4-2.3a.2.2,0,0,0,0-.3l-3.8-2.2a.5.5,0,0,0-.5,0l-4,2.3a.2.2,0,0,0,0,.3l3.8,2.2Zm-11.4,6.6,3.9-2.3q.3-.2,0-.3l-3.7-2.2a.6.6,0,0,0-.6,0l-3.9,2.3q-.3.2,0,.3l3.7,2.2A.6.6,0,0,0,177.5,285.9Zm22.9-13.3,3.9-2.2a.2.2,0,0,0,.1-.4l-3.8-2.1H200l-3.9,2.3q-.3.2,0,.3l3.7,2.2Zm-5.7,3.3,3.9-2.2c.2-.1.2-.3,0-.3l-3.7-2.2h-.6l-3.9,2.3c-.2.1-.2.2-.1.3l3.8,2.2C194.2,276.1,194.5,276,194.7,275.9Zm11.4-6.6,3.9-2.2a.2.2,0,0,0,.1-.4l-3.8-2.1a.5.5,0,0,0-.5,0l-4,2.3a.2.2,0,0,0,0,.3l3.8,2.2Zm31.3-46h.6l3.9-2.3q.3-.1,0-.3l-1-.6h-.5l-4,2.3a.2.2,0,0,0,0,.3Zm-28.5,18h.6l3.9-2.2a.2.2,0,0,0,0-.4l-3.7-2.1h-.6l-3.9,2.2a.2.2,0,0,0,0,.4Zm11.5-6.6a.5.5,0,0,0,.5,0l4-2.3a.2.2,0,0,0,0-.3l-3.8-2.2h-.5l-3.9,2.2a.2.2,0,0,0-.1.4Zm-18.5,10.7h.6l3.9-2.3q.3-.2,0-.3l-3.7-2.2h-.6l-3.9,2.3q-.3.2,0,.3Zm12.7-7.4h.6l3.9-2.2a.2.2,0,0,0,.1-.4l-3.8-2.1a.6.6,0,0,0-.6,0l-3.9,2.2c-.1.1-.2.3,0,.4Zm-24.1,14h.5l3.9-2.3c.2-.1.2-.2.1-.3l-3.8-2.2h-.5l-4,2.3a.2.2,0,0,0,0,.3Zm5.7-3.3a.6.6,0,0,0,.6,0l3.9-2.3c.1-.1.2-.2,0-.3l-3.7-2.2h-.6l-3.9,2.3c-.2.1-.2.2-.1.3Zm29.7-18.8h.6l3.9-2.3c.2-.1.2-.2.1-.3l-1-.6h-.6L225,229c-.2.1-.2.3-.1.3Zm17.2-9.9h.6l3.9-2.3c.2-.1.2-.2.1-.3l-1-.6a.6.6,0,0,0-.6,0l-3.9,2.3c-.2.1-.2.2-.1.3Zm7.9,4.5h.6l3.9-2.2a.2.2,0,0,0,0-.4l-3.7-2.1a.6.6,0,0,0-.6,0l-3.9,2.3q-.3.2,0,.3Zm10.9,12.6,3.9-2.2a.2.2,0,0,0,.1-.4l-3.8-2.1h-.5l-4,2.2a.3.3,0,0,0,0,.4l3.8,2.1Zm-30.2-10.5h.5l4-2.3a.2.2,0,0,0,0-.3l-1-.6h-.6l-3.9,2.3c-.2.1-.2.3,0,.3Zm-47,28.7h.6l3.9-2.3c.2-.1.2-.2.1-.3l-3.8-2.2h-.6l-3.9,2.3c-.2.1-.2.3,0,.3Z"/><path class="l" d="M227.1,243.9l4-2.3a.2.2,0,0,0,0-.3l-3.8-2.2h-.5l-3.9,2.2a.2.2,0,0,0-.1.4l3.8,2.1Zm-5.7-7.8-3.9,2.2a.2.2,0,0,0,0,.4l3.7,2.1h.6l3.9-2.2a.2.2,0,0,0,0-.4l-3.7-2.1Zm-12.6,7.3-6.7,3.8c-.1.1-.2.3,0,.3l3.7,2.2a.6.6,0,0,0,.6,0l6.6-3.8a.2.2,0,0,0,.1-.4l-3.8-2.1Zm6.9-4-3.9,2.2a.2.2,0,0,0-.1.4l3.8,2.1h.6l3.9-2.2c.1-.1.2-.3,0-.4l-3.7-2.1Zm-15.4,8.9-3.9,2.2a.2.2,0,0,0,0,.4l3.7,2.1h.6l3.9-2.3q.3-.1,0-.3l-3.7-2.2Zm-5.7,3.3-3.9,2.2a.2.2,0,0,0-.1.4l3.8,2.1h.5l4-2.3c.1,0,.1-.2,0-.3l-3.8-2.1Zm14.7,8.8,3.9-2.3q.3-.2,0-.3l-3.7-2.1h-.6l-3.9,2.2a.2.2,0,0,0,0,.4l3.7,2.1A.6.6,0,0,0,209.3,260.4Zm-5.7,3.3,3.9-2.2c.1-.1.2-.3,0-.4l-3.7-2.1a.6.6,0,0,0-.6,0l-3.9,2.2a.2.2,0,0,0-.1.4l3.8,2.1A.6.6,0,0,0,203.6,263.7Zm-5.8,3.3,3.9-2.2a.2.2,0,0,0,.1-.4l-3.8-2.1a.5.5,0,0,0-.5,0l-4,2.3c-.1,0-.1.2,0,.3l3.8,2.1A.5.5,0,0,0,197.8,267Zm-5.7,3.3,3.9-2.2a.2.2,0,0,0,0-.4l-3.7-2.1a.6.6,0,0,0-.6,0l-3.9,2.3q-.3.2,0,.3l3.7,2.2Zm29.3-23.1,3.9-2.2a.2.2,0,0,0,.1-.4l-3.8-2.1H221l-3.9,2.2c-.1.1-.2.3,0,.4l3.7,2.1A.6.6,0,0,0,221.4,247.2Zm-6.4,9.9,8.8-5a.3.3,0,0,0,0-.4l-9.1-5.2h-.6l-4.5,2.6q-.3.2,0,.3l4.8,2.8c.1.1.1.2-.1.3l-3.6,2.1c-.1.1-.2.3,0,.4l3.7,2.1Zm-26.2-2.2-3.9,2.2c-.1.1-.2.3,0,.4l3.7,2.1h.6l3.9-2.2a.2.2,0,0,0,.1-.4l-3.8-2.1Zm-5.7,3.3-3.9,2.3c-.2,0-.2.2,0,.3l3.7,2.1a.6.6,0,0,0,.6,0l3.9-2.2a.2.2,0,0,0,0-.4l-3.7-2.1Zm-31.7,35.3a.6.6,0,0,0,.6,0l3.9-2.3q.3-.1,0-.3l-3.7-2.2h-.6l-3.9,2.2c-.2.1-.2.3,0,.3Zm-14.1-8.8-3.9,2.2c-.2.1-.2.3-.1.3l3.8,2.2a.5.5,0,0,0,.5,0l4-2.3a.2.2,0,0,0,0-.3l-3.8-2.2Zm7.2,6.6h.6L149,289c.2-.1.2-.2.1-.3l-3.8-2.2a.6.6,0,0,0-.6,0l-3.9,2.3c-.1.1-.2.2,0,.3Zm15.9,3.5,3.9-2.2c.1-.1.2-.3,0-.3l-3.7-2.2a.6.6,0,0,0-.6,0l-3.9,2.3c-.2.1-.2.2-.1.3l3.8,2.2C159.9,295,160.2,294.9,160.4,294.8Zm-6.3,3.4a.5.5,0,0,0,.5,0l3.9-2.3c.2-.1.2-.3.1-.3l-3.8-2.2h-.5l-4,2.3a.2.2,0,0,0,0,.3ZM143,281.3l-3.9,2.3c-.2.1-.2.3,0,.3l3.7,2.2h.6l3.9-2.3q.3-.2,0-.3l-3.7-2.2C143.4,281.2,143.2,281.3,143,281.3Zm28.7-16.5-4,2.3a.2.2,0,0,0,0,.3l3.8,2.2c.1.1.4,0,.5-.1l3.9-2.2c.2-.1.2-.3.1-.3l-3.8-2.2A.5.5,0,0,0,171.7,264.8Zm-23,13.2-3.9,2.3q-.3.1,0,.3l3.7,2.2h.6l3.9-2.3c.2-.1.2-.2.1-.3l-3.8-2.2A.6.6,0,0,0,148.7,278Zm28.7-16.5-3.9,2.3c-.2.1-.2.2-.1.3l3.8,2.2h.6l3.9-2.2c.1-.1.2-.3,0-.4l-3.7-2.1A.6.6,0,0,0,177.4,261.5Zm-11.5,6.6-3.9,2.3q-.3.2,0,.3l3.7,2.2c.2.1.4,0,.6,0l3.9-2.3c.2-.1.2-.3,0-.3l-3.7-2.2A.6.6,0,0,0,165.9,268.1Zm-5.7,3.3-3.9,2.3c-.2.1-.2.2-.1.3l3.8,2.2a.6.6,0,0,0,.6,0l3.9-2.3q.3-.1,0-.3l-3.7-2.2Zm-5.7,3.3-4,2.3a.2.2,0,0,0,0,.3l3.8,2.2a.5.5,0,0,0,.5,0l4-2.3a.2.2,0,0,0,0-.3l-3.8-2.2Zm26.1,2.3,4-2.3c.1-.1.1-.3,0-.3l-3.8-2.2h-.5l-4,2.3a.2.2,0,0,0,0,.3l3.8,2.2C180.2,277.1,180.5,277,180.6,277Zm53.5-48.2-3.9,2.2a.2.2,0,0,0-.1.4l3.8,2.1h.6l3.9-2.3c.1-.1.2-.2,0-.3l-3.7-2.2Zm-6.9,4-4,2.2c-.1.1-.2.3,0,.4l3.7,2.1h.6l3.9-2.3c.2-.1.2-.2.1-.3l-3.8-2.2Zm12.6-7.3-3.9,2.2c-.2.1-.2.3,0,.3l3.7,2.2a.6.6,0,0,0,.6,0l3.9-2.3q.3-.2,0-.3l-3.7-2.2A.7.7,0,0,0,239.8,225.5Zm-31.7,29.4,4-2.3a.2.2,0,0,0,0-.3l-3.8-2.2h-.5l-3.9,2.3c-.2.1-.2.2-.1.3l3.8,2.2Zm38-32.8h-.6l-3.9,2.3c-.1.1-.2.3,0,.3l3.7,2.2h.6l3.9-2.3c.2-.1.2-.2.1-.3Zm-59.7,51.5,3.9-2.2c.1-.1.2-.3,0-.3l-3.7-2.2H186l-3.9,2.3c-.2.1-.2.2-.1.3l3.8,2.2Zm70.2-40.5,4-2.3a.2.2,0,0,0,0-.3l-3.8-2.2a.5.5,0,0,0-.5,0l-4,2.3a.2.2,0,0,0,0,.3l3.8,2.2Zm-11.1.2,4-2.3a.2.2,0,0,0,0-.3l-3.8-2.2h-.5l-3.9,2.3c-.2.1-.2.3-.1.3l3.8,2.2Zm6-8.1h-.6l-3.9,2.3q-.3.1,0,.3l3.7,2.2h.6l3.9-2.3q.3-.1,0-.3Zm1.2-.7,9.1,5.3h.6l3.9-2.3c.1-.1.2-.2,0-.3l-9.1-5.3h-.6l-3.9,2.3C252.6,224.3,252.5,224.4,252.7,224.5Zm-13.3,7.4-3.9,2.2c-.1.1-.2.3,0,.3l3.7,2.2h.6l3.9-2.3c.2-.1.2-.2.1-.3l-3.8-2.2Zm-43.1,24.9-3.9,2.2c-.2.1-.2.3,0,.3l3.7,2.2a.6.6,0,0,0,.6,0l3.9-2.3q.3-.1,0-.3l-3.7-2.2Zm54-20.4h.6l3.9-2.3c.2-.1.2-.2.1-.3l-3.8-2.2h-.6l-3.9,2.3q-.3.2,0,.3Zm-48.3,17-3.9,2.3c-.1.1-.2.3,0,.3l3.7,2.2a.6.6,0,0,0,.6,0l3.9-2.3c.2-.1.2-.2.1-.3l-3.8-2.2Zm-44.9,36.8a.6.6,0,0,0,.6,0l3.9-2.3c.2-.1.2-.2.1-.3l-3.8-2.2h-.6l-3.9,2.3c-.1.1-.2.3,0,.3Zm-6.6-7-3.9,2.3c-.2.1-.2.2-.1.3l3.8,2.2a.5.5,0,0,0,.5,0l4-2.3a.2.2,0,0,0,0-.3l-3.8-2.2Zm12.9,3.7,4-2.3a.2.2,0,0,0,0-.3l-3.8-2.2a.5.5,0,0,0-.5,0l-3.9,2.3c-.2.1-.2.2-.1.3l3.8,2.2A.5.5,0,0,0,163.4,286.9Zm5.8-3.3,3.9-2.3q.3-.2,0-.3l-3.7-2.2a.6.6,0,0,0-.6,0l-3.9,2.3c-.2.1-.2.2-.1.3l3.8,2.2Zm5.7-3.3,3.9-2.3c.2-.1.2-.2.1-.3l-3.8-2.2a.6.6,0,0,0-.6,0l-3.9,2.3q-.3.1,0,.3l3.7,2.2Zm-18.7-.4-3.9,2.3q-.3.2,0,.3l3.7,2.2c.2.1.4,0,.6,0l3.9-2.3c.2-.1.2-.3,0-.3l-3.7-2.2Zm5.7-3.3-3.9,2.3q-.3.2,0,.3l3.7,2.2a.7.7,0,0,0,.6-.1l3.9-2.2c.2-.1.2-.3.1-.3l-3.8-2.2A.6.6,0,0,0,161.9,276.6Zm23-13.2-4,2.2a.3.3,0,0,0,0,.4l3.8,2.1h.5l3.9-2.3c.2,0,.2-.2.1-.3l-3.8-2.1Zm-5.8,3.3-3.9,2.2a.2.2,0,0,0,0,.4l3.7,2.1a.6.6,0,0,0,.6,0l3.9-2.2a.2.2,0,0,0,0-.4l-3.7-2.1Zm11.5-6.6-3.9,2.2a.2.2,0,0,0-.1.4l3.8,2.1h.6l3.9-2.3c.1-.1.2-.2,0-.3l-3.7-2.2Zm-22.9,13.2-4,2.3a.2.2,0,0,0,0,.3l3.8,2.2h.5l4-2.2a.3.3,0,0,0,0-.4l-3.8-2.1A.5.5,0,0,0,167.7,273.3Zm5.7-3.3-3.9,2.3c-.2,0-.2.2-.1.3l3.8,2.1a.6.6,0,0,0,.6,0l3.9-2.2a.2.2,0,0,0,0-.4L174,270A.6.6,0,0,0,173.4,270Zm-7.3,21.5,3.9-2.2a.2.2,0,0,0,0-.4l-3.7-2.1a.6.6,0,0,0-.6,0l-3.9,2.3q-.3.1,0,.3l3.7,2.2Zm-30.2-1.4-3.8-2.2h-.6l-3.9,2.2c-.1.1-.2.3,0,.4l3.7,2.1a.6.6,0,0,0,.6,0l3.9-2.3C136,290.3,136,290.2,135.9,290.1Zm7.4,1.9-3.7-2.2a.6.6,0,0,0-.6,0l-6,3.5a.2.2,0,0,0-.1.4l3.8,2.1h.6l6-3.5Q143.6,292.2,143.3,292Zm-13-6.2-3.8-2.1h-.6l-4.8,2.8c-.1.1-.2.2,0,.3l3.7,2.2a.7.7,0,0,0,.6-.1l4.8-2.7A.2.2,0,0,0,130.3,285.8Zm3.7-2.1a.5.5,0,0,0,.5,0l4-2.3a.2.2,0,0,0,0-.3l-3.8-2.2h-.5l-4,2.3a.2.2,0,0,0,0,.3Zm16.2,10.5-3.7-2.2h-.6l-7.6,4.3c-.1.1-.1.3,0,.3l3.8,2.2a.5.5,0,0,0,.5,0l7.6-4.4C150.3,294.4,150.4,294.3,150.2,294.2Zm2.6,4.7-3.7-2.2h-.6l-4.8,2.8c-.2.1-.2.3,0,.3l3.7,2.2a.6.6,0,0,0,.6,0l4.8-2.8Q153.1,299.1,152.8,298.9Zm23.8-39.8h.5l4-2.3a.2.2,0,0,0,0-.3l-3.8-2.2a.5.5,0,0,0-.5,0l-3.9,2.3c-.2.1-.2.2-.1.3Zm-11.5,6.6a.6.6,0,0,0,.6,0l3.9-2.3q.3-.1,0-.3l-3.7-2.2h-.6l-3.9,2.2a.2.2,0,0,0,0,.4Zm-25.4,14.7a.6.6,0,0,0,.6,0l3.9-2.3q.3-.2,0-.3l-3.7-2.2a.6.6,0,0,0-.6,0l-3.9,2.3c-.2.1-.2.2-.1.3Zm31.1-18a.6.6,0,0,0,.6,0l3.9-2.3c.2-.1.2-.2.1-.3l-3.8-2.2c-.1-.1-.4,0-.6.1l-3.9,2.2c-.1.1-.2.3,0,.3ZM159.4,269a.6.6,0,0,0,.6,0l3.9-2.3c.1-.1.2-.2,0-.3l-3.7-2.2h-.6l-3.9,2.2a.2.2,0,0,0-.1.4Zm-3.7,30.1a.6.6,0,0,0-.6,0l-6,3.5c-.2.1-.2.2-.1.3l3.8,2.2h.5l6.1-3.5c.1-.1.2-.2,0-.3Zm-4.5-25.3h.5l3.9-2.3c.2-.1.2-.3.1-.3l-3.8-2.2a.5.5,0,0,0-.5,0l-4,2.3a.2.2,0,0,0,0,.3Zm-5.8,3.3h.6l3.9-2.3c.2-.1.2-.2.1-.3l-3.8-2.2a.6.6,0,0,0-.6,0l-3.9,2.3q-.3.1,0,.3Zm116.4-39.3a.5.5,0,0,0-.5,0l-9.7,5.6q-.3.2,0,.3l3.7,2.2h.6l9.6-5.6c.2-.1.2-.2.1-.3Zm-12.6,7.3h-.6l-3.9,2.3c-.2.1-.2.2-.1.3l3.8,2.2h.6l3.9-2.3c.1-.1.2-.2,0-.3Zm-77.4,43.1,3.9-2.2a.2.2,0,0,0,.1-.4l-3.8-2.1a.6.6,0,0,0-.6,0l-3.9,2.3c-.1.1-.2.2,0,.3l3.7,2.1A.6.6,0,0,0,171.8,288.2Zm65.9-36.5h-.6l-3.9,2.2a.2.2,0,0,0,0,.4l3.7,2.1a.6.6,0,0,0,.6,0l3.9-2.3q.3-.1,0-.3Zm29.9-17.2H267l-3.9,2.3c-.2.1-.2.2-.1.3l3.8,2.2h.5l4-2.3c.1-.1.2-.2,0-.3Zm9.4-1.1-9.1-5.3h-.5l-4,2.3a.2.2,0,0,0,0,.3l9.1,5.3h.6l3.9-2.3C277.2,233.6,277.2,233.4,277,233.4Zm-60.7,30.7a.6.6,0,0,0-.6,0l-4.8,2.8c-.2.1-.2.3,0,.3l3.7,2.2a.6.6,0,0,0,.6,0l4.8-2.8q.3-.2,0-.3Zm14.5-8.4h-.6l-6,3.4a.2.2,0,0,0-.1.4l3.8,2.1a.5.5,0,0,0,.5,0l6.1-3.5c.1-.1.2-.2,0-.3ZM203,271.8a.6.6,0,0,0-.6,0l-32.2,18.6c-.2.1-.2.3-.1.3l3.8,2.2a.6.6,0,0,0,.6,0l32.2-18.6a.2.2,0,0,0,.1-.4Zm-34.1,19.6h-.5l-4.9,2.7a.3.3,0,0,0,0,.4l3.8,2.1a.5.5,0,0,0,.5,0l4.8-2.8c.2-.1.2-.2.1-.3Zm40.7-23.5c-.1-.1-.4,0-.5.1l-4.8,2.7a.2.2,0,0,0-.1.4l3.8,2.1a.5.5,0,0,0,.5,0l4.9-2.8a.2.2,0,0,0,0-.3Zm-47.3,27.4a.6.6,0,0,0-.6,0l-4.8,2.8q-.3.1,0,.3l3.7,2.2h.6l4.8-2.8a.2.2,0,0,0,0-.4Zm60.6-35a.6.6,0,0,0-.6,0l-4.8,2.8c-.1.1-.2.2,0,.3l3.7,2.2h.6l4.8-2.8a.2.2,0,0,0,.1-.4Zm20.5-11.9c-.1-.1-.4,0-.5.1l-4,2.2c-.1.1-.1.3,0,.3l3.8,2.2a.5.5,0,0,0,.5,0l3.9-2.3c.2-.1.2-.2.1-.3Zm12.9-8.9,3.9-2.3c.1-.1.2-.2,0-.3l-3.7-2.2h-.6L252,237c-.2.1-.2.2-.1.3l3.8,2.2Zm-23.4,1.1,3.9-2.3q.3-.2,0-.3l-3.7-2.2h-.6l-3.9,2.2a.2.2,0,0,0,0,.4l3.7,2.1Zm-15.2,21.2,11.4-6.7q.3-.2,0-.3l-3.7-2.1h-.6l-11.4,6.6c-.2.1-.2.2-.1.3l3.8,2.2Zm32.3-19h.5l3.9-2.3c.2-.1.2-.2.1-.3l-3.8-2.2h-.5l-4,2.3c-.1.1-.1.3,0,.3Zm-4.8-3.1,3.9-2.3q.3-.2,0-.3l-3.7-2.2h-.6l-3.9,2.3c-.2.1-.2.3,0,.3l3.7,2.2A.6.6,0,0,0,245.2,239.7Zm-33.3,25.4,3.9-2.3c.2-.1.2-.2.1-.3l-3.8-2.2a.5.5,0,0,0-.5,0l-4,2.3a.2.2,0,0,0,0,.3l3.8,2.2Zm25.4-15h.6l3.9-2.3c.1-.1.2-.2,0-.3l-3.7-2.2h-.6l-3.9,2.2c-.2.1-.2.3-.1.3Zm-54,31.5,3.9-2.3c.2,0,.2-.2,0-.3l-3.7-2.1h-.6l-3.9,2.2a.2.2,0,0,0,0,.4l3.7,2.1Zm5.7-3.3,3.9-2.3c.2-.1.2-.2.1-.3l-3.8-2.2h-.6l-3.9,2.2c-.1.1-.2.3,0,.4l3.7,2.1Zm-11.5,6.6,4-2.2a.3.3,0,0,0,0-.4l-3.8-2.1h-.5l-3.9,2.2a.2.2,0,0,0-.1.4l3.8,2.1A.5.5,0,0,0,177.5,284.9Zm23-13.2,3.9-2.3q.3-.1,0-.3l-3.7-2.2h-.6l-3.9,2.3c-.2.1-.2.3-.1.3l3.8,2.2A.6.6,0,0,0,200.5,271.7Zm-5.8,3.3,4-2.3a.2.2,0,0,0,0-.3l-3.8-2.2h-.5l-4,2.2c-.1.1-.1.3,0,.3l3.8,2.2A.5.5,0,0,0,194.7,275Zm11.5-6.6,3.9-2.3q.3-.2,0-.3l-3.7-2.2a.6.6,0,0,0-.6,0l-3.9,2.3q-.3.2,0,.3l3.7,2.2A.6.6,0,0,0,206.2,268.4Zm31.3-46h.5l4-2.2a.3.3,0,0,0,0-.4l-1-.5h-.6l-3.9,2.2a.2.2,0,0,0,0,.4Zm-28.5,18h.6l3.9-2.3c.1-.1.2-.2,0-.3l-3.7-2.2h-.6l-3.9,2.3c-.2.1-.2.2-.1.3Zm11.4-6.6h.6l3.9-2.3c.2-.1.2-.3.1-.3l-3.8-2.2h-.6l-3.9,2.3c-.1.1-.2.2,0,.3ZM202,244.4h.6l3.9-2.3c.1-.1.2-.2,0-.3l-3.7-2.2h-.6l-3.9,2.2a.2.2,0,0,0-.1.4Zm12.7-7.3h.6l3.9-2.3q.3-.2,0-.3l-3.7-2.2a.6.6,0,0,0-.6,0l-3.9,2.3q-.3.2,0,.3ZM190.5,251h.6l3.9-2.2a.2.2,0,0,0,.1-.4l-3.8-2.1a.6.6,0,0,0-.6,0l-3.9,2.2a.2.2,0,0,0,0,.4Zm5.8-3.3a.5.5,0,0,0,.5,0l3.9-2.2a.2.2,0,0,0,.1-.4L197,243h-.5l-4,2.2a.3.3,0,0,0,0,.4ZM226,229h.6l3.9-2.3c.2-.1.2-.3,0-.3l-1-.6a.5.5,0,0,0-.5,0l-4,2.3a.2.2,0,0,0,0,.3Zm17.2-10h.6l3.9-2.2a.2.2,0,0,0,0-.4l-1-.5h-.5l-4,2.2c-.1.1-.2.3,0,.4Zm7.9,4.6h.5l4-2.3a.2.2,0,0,0,0-.3l-3.8-2.2a.5.5,0,0,0-.5,0l-3.9,2.3c-.2.1-.2.2-.1.3ZM262,236.2l3.9-2.3q.3-.2,0-.3l-3.7-2.2h-.6l-3.9,2.3q-.3.2,0,.3l3.7,2.2A.6.6,0,0,0,262,236.2Zm-30.3-10.5h.6l3.9-2.2c.2-.1.2-.3.1-.3l-1-.6h-.6l-3.9,2.3c-.2.1-.2.2-.1.3Zm-46.9,28.7h.6l3.9-2.2a.2.2,0,0,0,0-.4l-3.7-2.1H185l-3.9,2.3c-.2.1-.2.2-.1.3Z"/><polygon class="n" points="201.7 284.9 202.5 285.3 223.8 297.6 261.8 275.7 262.6 275.3 240.4 262.5 201.7 284.9"/><polygon class="f" points="202.5 285.3 223.8 297.6 261.8 275.7 240.4 263.4 202.5 285.3"/><polygon class="j" points="202.5 285.3 223.8 297.6 261.8 275.7 240.4 263.4 202.5 285.3"/><path class="f" d="M92.2,280.9l1.1.4-1.1-.4-.3-.2Z"/><path class="f" d="M98.3,281.2h0Z"/><path class="o" d="M251.4,99.1v-.2h0v-.2a.4.4,0,0,1-.1-.3c-.1,0-.1,0-.1-.1H251c0-.1-.1-.1-.1-.2h-.2c-.4-.2-.8-.1-1.4.2L113.7,176.4a4.7,4.7,0,0,0-2,3.6v98.2h0v.4a1.6,1.6,0,0,0,.7,1.3h.1a.1.1,0,0,1,.1.1h.4l.7-.2h.1l1.9-1.1,133.6-77.1a4.6,4.6,0,0,0,2.1-3.6V99.1Z"/><path class="f" d="M250.7,98c-.4-.2-.8-.1-1.4.2L113.7,176.4a4.7,4.7,0,0,0-2,3.6v6.7l-2.7-1.5v-6.7a4.5,4.5,0,0,1,2.1-3.5L246.7,96.7a1.6,1.6,0,0,1,1.5-.1Z"/><path class="k" d="M251.4,99.4c0-1.3-1-1.9-2.1-1.2L113.7,176.5a4.4,4.4,0,0,0-2,3.5v6.7l139.7-80.6Z"/><path class="l" d="M249.3,98.2,113.7,176.5a3.4,3.4,0,0,0-1.4,1.5l-2.6-1.5a2.9,2.9,0,0,1,1.4-1.5L246.7,96.7a1.6,1.6,0,0,1,1.5-.1l2.5,1.4C250.3,97.8,249.9,97.9,249.3,98.2Z"/><path class="j" d="M109,185.2v-6.7a3.7,3.7,0,0,1,.7-2l2.6,1.5a3.6,3.6,0,0,0-.6,2v6.7Z"/><path class="p" d="M239,107a3.2,3.2,0,0,0-1.1,2.4c0,1,.5,1.5,1.1,1.1a2.7,2.7,0,0,0,1.2-2.4C240.2,107.1,239.7,106.6,239,107Z"/><path class="p" d="M243.2,104.6A3,3,0,0,0,242,107c0,1,.6,1.5,1.2,1.1a3,3,0,0,0,1.2-2.4C244.4,104.7,243.8,104.2,243.2,104.6Z"/><path class="p" d="M247.4,102.2a2.7,2.7,0,0,0-1.2,2.4c0,1,.5,1.5,1.2,1.1a2.9,2.9,0,0,0,1.1-2.4C248.5,102.3,248,101.8,247.4,102.2Z"/><path class="q" d="M112.4,279.9h-.1l-2.2-1.3a2,2,0,0,1-1-1.5.4.4,0,0,1-.1-.3V185.2l2.7,1.5v91.9a1.4,1.4,0,0,0,.6,1.2h.1Z"/><path class="r" d="M152,171.9a.4.4,0,0,1,.1-.3l1.4-3.1h.3v1.7l-.8,1.6.8.7h.1v1.6h-.3l-1.4-1.3a.4.4,0,0,1-.1-.3Z"/><path class="r" d="M157.3,164.3l.2-.3.2-.2.5-.4h.1v.2h0l-2.6,10.8a.4.4,0,0,1-.1.3l-.2.2-.5.3h-.1a.1.1,0,0,1-.1-.1V175Z"/><path class="r" d="M161.3,167.3a.5.5,0,0,1-.2.4l-1.4,3.1h-.2c-.1-.1-.1-.1-.1-.2v-1.3a.4.4,0,0,0,.1-.3l.8-1.6-.8-.7c0-.1,0-.1-.1-.2v-1.3c0-.1,0-.1.1-.2h.2l1.4,1.3c.1.1.2.1.2.3Z"/><path class="r" d="M165.3,166.6h.2v1.6l-.2.2-.6.4h-.2c0-.1-.1-.1-.1-.2v-1.1c0-.1.1-.2.1-.3l.2-.2Z"/><path class="r" d="M167.7,165.3c0-.1.1,0,.1,0s.1.1.1.2v1.1a.4.4,0,0,1-.1.3h-.1l-.7.4h-.2v-1.5c.1-.1.1-.2.2-.2Z"/><path class="r" d="M170,163.9h.1v1.8l-.7.4h-.1v-1.3a.4.4,0,0,1,.1-.3v-.2Z"/><path class="r" d="M152.6,180.2l28.6-16.6c.4-.2.7,0,.7.4a1.5,1.5,0,0,1-.7,1.2l-28.6,16.5c-.4.3-.8.1-.8-.3A1.5,1.5,0,0,1,152.6,180.2Z"/><path class="s" d="M163.5,192.8l77.7-45c.4-.2.8,0,.8.4a1.6,1.6,0,0,1-.8,1.2l-77.7,45c-.4.2-.7,0-.7-.4A1.4,1.4,0,0,1,163.5,192.8Z"/><path class="s" d="M163.5,199.1l10.8-6.3c.4-.2.8-.1.8.4a1.8,1.8,0,0,1-.8,1.2l-10.8,6.3c-.4.2-.7,0-.7-.4A1.5,1.5,0,0,1,163.5,199.1Z"/><path class="s" d="M163.5,205.4l10.8-6.3c.4-.2.8-.1.8.4a1.6,1.6,0,0,1-.8,1.2L163.5,207c-.4.2-.7,0-.7-.4A1.5,1.5,0,0,1,163.5,205.4Z"/><path class="r" d="M184,162l62.7-36.3c.4-.2.7,0,.7.4a1.5,1.5,0,0,1-.7,1.2L184,163.6c-.4.2-.7,0-.7-.4A1.5,1.5,0,0,1,184,162Z"/><path class="r" d="M163.7,243l17.5-10c.4-.2.7-.1.7.4a1.7,1.7,0,0,1-.7,1.2l-17.5,10c-.4.3-.7.1-.7-.3A1.7,1.7,0,0,1,163.7,243Z"/><path class="r" d="M184,231.4l62.7-36.3c.4-.2.7,0,.7.4a1.5,1.5,0,0,1-.7,1.2L184,232.9c-.4.3-.7.1-.7-.3A1.4,1.4,0,0,1,184,231.4Z"/><path class="r" d="M184,212.5l62.7-36.3c.4-.2.7,0,.7.4a1.5,1.5,0,0,1-.7,1.2L184,214.1c-.4.2-.7,0-.7-.4A1.5,1.5,0,0,1,184,212.5Z"/><path class="r" d="M184,218.8l62.7-36.3c.4-.2.7,0,.7.4a1.5,1.5,0,0,1-.7,1.2L184,220.4c-.4.2-.7,0-.7-.4A1.5,1.5,0,0,1,184,218.8Z"/><path class="h" d="M163.7,236.7l17.5-10c.4-.2.7-.1.7.4a1.7,1.7,0,0,1-.7,1.2l-17.5,10c-.4.3-.7.1-.7-.4A1.7,1.7,0,0,1,163.7,236.7Z"/><path class="r" d="M177.9,216l2.1-1.3c.4-.2.8,0,.8.4a1.6,1.6,0,0,1-.8,1.2l-2.1,1.3c-.4.2-.7.1-.7-.4A1.7,1.7,0,0,1,177.9,216Z"/><path class="f" d="M152.6,186.5l14.4-8.4c.4-.2.7,0,.7.4a1.5,1.5,0,0,1-.7,1.2l-14.4,8.4c-.4.2-.8,0-.8-.4A1.6,1.6,0,0,1,152.6,186.5Z"/><path class="t" d="M152.6,186.5l14.4-8.4c.4-.2.7,0,.7.4a1.5,1.5,0,0,1-.7,1.2l-14.4,8.4c-.4.2-.8,0-.8-.4A1.6,1.6,0,0,1,152.6,186.5Z"/><path class="f" d="M152.6,192.8l6.7-3.9c.4-.2.7-.1.7.4a1.7,1.7,0,0,1-.7,1.2l-6.7,3.9c-.4.2-.8,0-.8-.4A1.6,1.6,0,0,1,152.6,192.8Z"/><path class="t" d="M152.6,192.8l6.7-3.9c.4-.2.7-.1.7.4a1.7,1.7,0,0,1-.7,1.2l-6.7,3.9c-.4.2-.8,0-.8-.4A1.6,1.6,0,0,1,152.6,192.8Z"/><path class="f" d="M152.6,199.1l6.7-3.9c.4-.2.7-.1.7.4a1.7,1.7,0,0,1-.7,1.2l-6.7,3.9c-.4.2-.8,0-.8-.4A1.6,1.6,0,0,1,152.6,199.1Z"/><path class="t" d="M152.6,199.1l6.7-3.9c.4-.2.7-.1.7.4a1.7,1.7,0,0,1-.7,1.2l-6.7,3.9c-.4.2-.8,0-.8-.4A1.6,1.6,0,0,1,152.6,199.1Z"/><path class="f" d="M152.6,205.4l6.7-3.9c.4-.2.7-.1.7.4a1.7,1.7,0,0,1-.7,1.2l-6.7,3.9c-.4.2-.8,0-.8-.4A1.6,1.6,0,0,1,152.6,205.4Z"/><path class="t" d="M152.6,205.4l6.7-3.9c.4-.2.7-.1.7.4a1.7,1.7,0,0,1-.7,1.2l-6.7,3.9c-.4.2-.8,0-.8-.4A1.6,1.6,0,0,1,152.6,205.4Z"/><path class="f" d="M152.6,211.7l6.7-3.9c.4-.2.7-.1.7.4a1.7,1.7,0,0,1-.7,1.2l-6.7,3.9c-.4.2-.8,0-.8-.4A1.6,1.6,0,0,1,152.6,211.7Z"/><path class="t" d="M152.6,211.7l6.7-3.9c.4-.2.7-.1.7.4a1.7,1.7,0,0,1-.7,1.2l-6.7,3.9c-.4.2-.8,0-.8-.4A1.6,1.6,0,0,1,152.6,211.7Z"/><path class="f" d="M169.8,176.5l8.6-5c.4-.2.8,0,.8.4a1.6,1.6,0,0,1-.8,1.2l-8.6,5c-.4.2-.7,0-.7-.4A1.5,1.5,0,0,1,169.8,176.5Z"/><path class="t" d="M169.8,176.5l8.6-5c.4-.2.8,0,.8.4a1.6,1.6,0,0,1-.8,1.2l-8.6,5c-.4.2-.7,0-.7-.4A1.5,1.5,0,0,1,169.8,176.5Z"/><path class="h" d="M183.2,206.7l63.5-36.8c.4-.2.7,0,.7.4a1.5,1.5,0,0,1-.7,1.2l-63.5,36.8c-.4.2-.8,0-.8-.4A1.5,1.5,0,0,1,183.2,206.7Z"/><path class="h" d="M238.1,168.6l8.6-5c.4-.2.7-.1.7.4a1.5,1.5,0,0,1-.7,1.2l-8.6,5c-.4.2-.8,0-.8-.4A1.6,1.6,0,0,1,238.1,168.6Z"/><path class="h" d="M171.7,207l63.5-36.8c.4-.2.8-.1.8.4a1.6,1.6,0,0,1-.8,1.2l-63.5,36.7c-.4.3-.7.1-.7-.3A1.4,1.4,0,0,1,171.7,207Z"/><path class="f" d="M163.5,186.5l14.4-8.4c.4-.2.7-.1.7.4a1.5,1.5,0,0,1-.7,1.2L163.5,188c-.4.3-.7.1-.7-.3A1.4,1.4,0,0,1,163.5,186.5Z"/><path class="t" d="M163.5,186.5l14.4-8.4c.4-.2.7-.1.7.4a1.5,1.5,0,0,1-.7,1.2L163.5,188c-.4.3-.7.1-.7-.3A1.4,1.4,0,0,1,163.5,186.5Z"/><path class="f" d="M180.7,176.5l57.8-33.4c.4-.2.7,0,.7.4a1.5,1.5,0,0,1-.7,1.2l-57.8,33.4c-.4.2-.7,0-.7-.4A1.5,1.5,0,0,1,180.7,176.5Z"/><path class="t" d="M180.7,176.5l57.8-33.4c.4-.2.7,0,.7.4a1.5,1.5,0,0,1-.7,1.2l-57.8,33.4c-.4.2-.7,0-.7-.4A1.5,1.5,0,0,1,180.7,176.5Z"/><g class="u"><path class="h" d="M142.1,184.9l3.9-2.3c.4-.2.8,0,.8.4v1.5a1.5,1.5,0,0,1-.8,1.2l-3.9,2.3c-.4.3-.7.1-.7-.4v-1.4A1.6,1.6,0,0,1,142.1,184.9Z"/><path class="h" d="M142.1,191.3,146,189c.4-.2.8-.1.8.4v1.5a1.6,1.6,0,0,1-.8,1.2l-3.9,2.3c-.4.2-.7,0-.7-.4v-1.5A1.5,1.5,0,0,1,142.1,191.3Z"/><path class="h" d="M142.1,197.6l3.9-2.2a.5.5,0,0,1,.8.4v1.4a1.8,1.8,0,0,1-.8,1.3l-3.9,2.3c-.4.2-.7,0-.7-.5v-1.4A1.7,1.7,0,0,1,142.1,197.6Z"/><path class="h" d="M142.1,204l3.9-2.3c.4-.2.8,0,.8.4v1.5a1.5,1.5,0,0,1-.8,1.2l-3.9,2.3c-.4.3-.7.1-.7-.4v-1.4A1.6,1.6,0,0,1,142.1,204Z"/><path class="h" d="M142.1,210.4l3.9-2.3c.4-.2.8,0,.8.4V210a1.6,1.6,0,0,1-.8,1.2l-3.9,2.3c-.4.2-.7,0-.7-.4v-1.5A1.5,1.5,0,0,1,142.1,210.4Z"/><path class="h" d="M142.1,216.7l3.9-2.2a.5.5,0,0,1,.8.4v1.4a1.8,1.8,0,0,1-.8,1.3l-3.9,2.3c-.4.2-.7,0-.7-.5V218A1.7,1.7,0,0,1,142.1,216.7Z"/><path class="h" d="M142.1,223.1l3.9-2.3c.4-.2.8,0,.8.4v1.5a1.5,1.5,0,0,1-.8,1.2l-3.9,2.3c-.4.3-.7.1-.7-.4v-1.4A1.6,1.6,0,0,1,142.1,223.1Z"/><path class="h" d="M142.1,229.5l3.9-2.3c.4-.2.8,0,.8.4v1.5a1.6,1.6,0,0,1-.8,1.2l-3.9,2.3c-.4.2-.7,0-.7-.4v-1.5A1.5,1.5,0,0,1,142.1,229.5Z"/><path class="h" d="M142.1,235.8l3.9-2.2a.5.5,0,0,1,.8.4v1.4a1.7,1.7,0,0,1-.8,1.3l-3.9,2.3c-.4.2-.7,0-.7-.4v-1.5A1.7,1.7,0,0,1,142.1,235.8Z"/><path class="h" d="M142.1,242.2l3.9-2.3c.4-.2.8,0,.8.4v1.5a1.5,1.5,0,0,1-.8,1.2l-3.9,2.3c-.4.3-.7.1-.7-.4v-1.4A1.6,1.6,0,0,1,142.1,242.2Z"/><path class="h" d="M142.1,248.6l3.9-2.3c.4-.2.8,0,.8.4v1.5a1.6,1.6,0,0,1-.8,1.2l-3.9,2.3c-.4.2-.7,0-.7-.4v-1.5A1.5,1.5,0,0,1,142.1,248.6Z"/><path class="h" d="M142.1,255l3.9-2.3a.5.5,0,0,1,.8.4v1.4a1.7,1.7,0,0,1-.8,1.3l-3.9,2.3c-.4.2-.7,0-.7-.4v-1.5A1.4,1.4,0,0,1,142.1,255Z"/></g><path class="o" d="M115.8,188.3l21.4-12.4c.8-.4,1.5-.1,1.5.8v24.8a3.3,3.3,0,0,1-1.5,2.5l-21.4,12.3c-.8.5-1.4.1-1.4-.8V190.8A2.9,2.9,0,0,1,115.8,188.3Z"/><path class="f" d="M117.8,210.5l2-1.1c.4-.3.7-.1.7.3a1.4,1.4,0,0,1-.7,1.2l-2,1.2c-.4.2-.7,0-.7-.4A1.5,1.5,0,0,1,117.8,210.5Z"/><path class="t" d="M117.8,210.5l2-1.1c.4-.3.7-.1.7.3a1.4,1.4,0,0,1-.7,1.2l-2,1.2c-.4.2-.7,0-.7-.4A1.5,1.5,0,0,1,117.8,210.5Z"/><path class="f" d="M117.8,190.2l2-1.1c.4-.2.7-.1.7.4a1.7,1.7,0,0,1-.7,1.2l-2,1.1c-.4.2-.7.1-.7-.4A1.7,1.7,0,0,1,117.8,190.2Z"/><path class="t" d="M117.8,190.2l2-1.1c.4-.2.7-.1.7.4a1.7,1.7,0,0,1-.7,1.2l-2,1.1c-.4.2-.7.1-.7-.4A1.7,1.7,0,0,1,117.8,190.2Z"/><path class="f" d="M120.6,192.7l1.9-1.2c.4-.2.8,0,.8.4a1.6,1.6,0,0,1-.8,1.2l-1.9,1.2c-.4.2-.8,0-.8-.4A1.6,1.6,0,0,1,120.6,192.7Z"/><path class="t" d="M120.6,192.7l1.9-1.2c.4-.2.8,0,.8.4a1.6,1.6,0,0,1-.8,1.2l-1.9,1.2c-.4.2-.8,0-.8-.4A1.6,1.6,0,0,1,120.6,192.7Z"/><path class="f" d="M120.6,196.7l1.9-1.1c.4-.2.8-.1.8.4a1.8,1.8,0,0,1-.8,1.2l-1.9,1.1c-.4.2-.8.1-.8-.4A1.8,1.8,0,0,1,120.6,196.7Z"/><path class="t" d="M120.6,196.7l1.9-1.1c.4-.2.8-.1.8.4a1.8,1.8,0,0,1-.8,1.2l-1.9,1.1c-.4.2-.8.1-.8-.4A1.8,1.8,0,0,1,120.6,196.7Z"/><path class="f" d="M117.8,202.4l2-1.1c.4-.3.7-.1.7.3a1.4,1.4,0,0,1-.7,1.2l-2,1.2c-.4.2-.7,0-.7-.4A1.5,1.5,0,0,1,117.8,202.4Z"/><path class="t" d="M117.8,202.4l2-1.1c.4-.3.7-.1.7.3a1.4,1.4,0,0,1-.7,1.2l-2,1.2c-.4.2-.7,0-.7-.4A1.5,1.5,0,0,1,117.8,202.4Z"/><path class="f" d="M120.6,204.8l1.9-1.1c.4-.2.8-.1.8.4a1.8,1.8,0,0,1-.8,1.2l-1.9,1.1c-.4.2-.8.1-.8-.4A1.8,1.8,0,0,1,120.6,204.8Z"/><path class="t" d="M120.6,204.8l1.9-1.1c.4-.2.8-.1.8.4a1.8,1.8,0,0,1-.8,1.2l-1.9,1.1c-.4.2-.8.1-.8-.4A1.8,1.8,0,0,1,120.6,204.8Z"/><path class="f" d="M123.2,187.1l12-6.9c.4-.3.8-.1.8.3a1.8,1.8,0,0,1-.8,1.3l-12,6.9c-.4.2-.7.1-.7-.4A1.7,1.7,0,0,1,123.2,187.1Z"/><path class="v" d="M123.2,187.1l12-6.9c.4-.3.8-.1.8.3a1.8,1.8,0,0,1-.8,1.3l-12,6.9c-.4.2-.7.1-.7-.4A1.7,1.7,0,0,1,123.2,187.1Z"/><path class="f" d="M123.2,207.4l12-7c.4-.2.8,0,.8.4a1.6,1.6,0,0,1-.8,1.2l-12,7c-.4.2-.7,0-.7-.4A1.5,1.5,0,0,1,123.2,207.4Z"/><path class="v" d="M123.2,207.4l12-7c.4-.2.8,0,.8.4a1.6,1.6,0,0,1-.8,1.2l-12,7c-.4.2-.7,0-.7-.4A1.5,1.5,0,0,1,123.2,207.4Z"/><path class="f" d="M126,189.6l9.2-5.4c.4-.2.8,0,.8.4a1.6,1.6,0,0,1-.8,1.2l-9.2,5.3c-.4.3-.8.1-.8-.3A1.5,1.5,0,0,1,126,189.6Z"/><path class="v" d="M126,189.6l9.2-5.4c.4-.2.8,0,.8.4a1.6,1.6,0,0,1-.8,1.2l-9.2,5.3c-.4.3-.8.1-.8-.3A1.5,1.5,0,0,1,126,189.6Z"/><path class="f" d="M126,193.6l9.2-5.3c.4-.3.8-.1.8.3a1.8,1.8,0,0,1-.8,1.3l-9.2,5.3c-.4.2-.8.1-.8-.4A1.6,1.6,0,0,1,126,193.6Z"/><path class="v" d="M126,193.6l9.2-5.3c.4-.3.8-.1.8.3a1.8,1.8,0,0,1-.8,1.3l-9.2,5.3c-.4.2-.8.1-.8-.4A1.6,1.6,0,0,1,126,193.6Z"/><path class="f" d="M123.2,199.3l12-7c.4-.2.8,0,.8.4a1.6,1.6,0,0,1-.8,1.2l-12,7c-.4.2-.7,0-.7-.4A1.4,1.4,0,0,1,123.2,199.3Z"/><path class="v" d="M123.2,199.3l12-7c.4-.2.8,0,.8.4a1.6,1.6,0,0,1-.8,1.2l-12,7c-.4.2-.7,0-.7-.4A1.4,1.4,0,0,1,123.2,199.3Z"/><path class="f" d="M126,201.7l9.2-5.3c.4-.3.8-.1.8.3a1.8,1.8,0,0,1-.8,1.3l-9.2,5.3c-.4.2-.8.1-.8-.4A1.8,1.8,0,0,1,126,201.7Z"/><path class="v" d="M126,201.7l9.2-5.3c.4-.3.8-.1.8.3a1.8,1.8,0,0,1-.8,1.3l-9.2,5.3c-.4.2-.8.1-.8-.4A1.8,1.8,0,0,1,126,201.7Z"/><path class="o" d="M115.8,221l21.4-12.4c.8-.4,1.5-.1,1.5.8v48.9a3.3,3.3,0,0,1-1.5,2.5l-21.4,12.4c-.8.4-1.4.1-1.4-.9V223.5A3.1,3.1,0,0,1,115.8,221Z"/><path class="f" d="M117.8,222.9l2-1.1c.4-.2.7-.1.7.4a1.5,1.5,0,0,1-.7,1.2l-2,1.1c-.4.3-.7.1-.7-.3A1.7,1.7,0,0,1,117.8,222.9Z"/><path class="t" d="M117.8,222.9l2-1.1c.4-.2.7-.1.7.4a1.5,1.5,0,0,1-.7,1.2l-2,1.1c-.4.3-.7.1-.7-.3A1.7,1.7,0,0,1,117.8,222.9Z"/><path class="f" d="M120.6,225.4l1.9-1.1c.4-.3.8-.1.8.3a1.5,1.5,0,0,1-.8,1.2l-1.9,1.2c-.4.2-.8,0-.8-.4A1.6,1.6,0,0,1,120.6,225.4Z"/><path class="t" d="M120.6,225.4l1.9-1.1c.4-.3.8-.1.8.3a1.5,1.5,0,0,1-.8,1.2l-1.9,1.2c-.4.2-.8,0-.8-.4A1.6,1.6,0,0,1,120.6,225.4Z"/><path class="f" d="M120.6,229.4l1.9-1.1c.4-.2.8-.1.8.4a1.8,1.8,0,0,1-.8,1.2l-1.9,1.1c-.4.2-.8.1-.8-.4A1.8,1.8,0,0,1,120.6,229.4Z"/><path class="t" d="M120.6,229.4l1.9-1.1c.4-.2.8-.1.8.4a1.8,1.8,0,0,1-.8,1.2l-1.9,1.1c-.4.2-.8.1-.8-.4A1.8,1.8,0,0,1,120.6,229.4Z"/><path class="f" d="M117.8,235.1l2-1.1c.4-.3.7-.1.7.3a1.4,1.4,0,0,1-.7,1.2l-2,1.2c-.4.2-.7,0-.7-.4A1.5,1.5,0,0,1,117.8,235.1Z"/><path class="t" d="M117.8,235.1l2-1.1c.4-.3.7-.1.7.3a1.4,1.4,0,0,1-.7,1.2l-2,1.2c-.4.2-.7,0-.7-.4A1.5,1.5,0,0,1,117.8,235.1Z"/><path class="f" d="M123.2,219.8l12-6.9c.4-.3.8-.1.8.3a1.8,1.8,0,0,1-.8,1.3l-12,6.9c-.4.2-.7.1-.7-.4A1.7,1.7,0,0,1,123.2,219.8Z"/><path class="v" d="M123.2,219.8l12-6.9c.4-.3.8-.1.8.3a1.8,1.8,0,0,1-.8,1.3l-12,6.9c-.4.2-.7.1-.7-.4A1.7,1.7,0,0,1,123.2,219.8Z"/><path class="f" d="M126,222.3l9.2-5.4c.4-.2.8,0,.8.4a1.6,1.6,0,0,1-.8,1.2l-9.2,5.3c-.4.3-.8.1-.8-.3A1.5,1.5,0,0,1,126,222.3Z"/><path class="v" d="M126,222.3l9.2-5.4c.4-.2.8,0,.8.4a1.6,1.6,0,0,1-.8,1.2l-9.2,5.3c-.4.3-.8.1-.8-.3A1.5,1.5,0,0,1,126,222.3Z"/><path class="f" d="M126,226.3l9.2-5.3c.4-.3.8-.1.8.3a1.8,1.8,0,0,1-.8,1.3l-9.2,5.3c-.4.2-.8.1-.8-.4A1.8,1.8,0,0,1,126,226.3Z"/><path class="v" d="M126,226.3l9.2-5.3c.4-.3.8-.1.8.3a1.8,1.8,0,0,1-.8,1.3l-9.2,5.3c-.4.2-.8.1-.8-.4A1.8,1.8,0,0,1,126,226.3Z"/><path class="f" d="M123.2,232l12-7c.4-.2.8,0,.8.4a1.6,1.6,0,0,1-.8,1.2l-12,7c-.4.2-.7,0-.7-.4A1.5,1.5,0,0,1,123.2,232Z"/><path class="v" d="M123.2,232l12-7c.4-.2.8,0,.8.4a1.6,1.6,0,0,1-.8,1.2l-12,7c-.4.2-.7,0-.7-.4A1.5,1.5,0,0,1,123.2,232Z"/><path class="f" d="M120.6,237.6l1.9-1.2c.4-.2.8,0,.8.4a1.6,1.6,0,0,1-.8,1.2l-1.9,1.1c-.4.3-.8.1-.8-.3A1.5,1.5,0,0,1,120.6,237.6Z"/><path class="t" d="M120.6,237.6l1.9-1.2c.4-.2.8,0,.8.4a1.6,1.6,0,0,1-.8,1.2l-1.9,1.1c-.4.3-.8.1-.8-.3A1.5,1.5,0,0,1,120.6,237.6Z"/><path class="f" d="M120.6,241.6l1.9-1.1c.4-.3.8-.1.8.3a1.5,1.5,0,0,1-.8,1.2l-1.9,1.2c-.4.2-.8,0-.8-.4A1.6,1.6,0,0,1,120.6,241.6Z"/><path class="t" d="M120.6,241.6l1.9-1.1c.4-.3.8-.1.8.3a1.5,1.5,0,0,1-.8,1.2l-1.9,1.2c-.4.2-.8,0-.8-.4A1.6,1.6,0,0,1,120.6,241.6Z"/><path class="f" d="M126,234.4l9.2-5.3c.4-.2.8-.1.8.4a1.8,1.8,0,0,1-.8,1.2L126,236c-.4.3-.8.1-.8-.3A1.8,1.8,0,0,1,126,234.4Z"/><path class="v" d="M126,234.4l9.2-5.3c.4-.2.8-.1.8.4a1.8,1.8,0,0,1-.8,1.2L126,236c-.4.3-.8.1-.8-.3A1.8,1.8,0,0,1,126,234.4Z"/><path class="f" d="M126,238.5l9.2-5.3c.4-.3.8-.1.8.3a1.5,1.5,0,0,1-.8,1.2l-9.2,5.4c-.4.2-.8,0-.8-.4A1.6,1.6,0,0,1,126,238.5Z"/><path class="v" d="M126,238.5l9.2-5.3c.4-.3.8-.1.8.3a1.5,1.5,0,0,1-.8,1.2l-9.2,5.4c-.4.2-.8,0-.8-.4A1.6,1.6,0,0,1,126,238.5Z"/><path class="f" d="M117.8,255.4l2-1.1c.4-.3.7-.1.7.3a1.4,1.4,0,0,1-.7,1.2l-2,1.2c-.4.2-.7,0-.7-.4A1.5,1.5,0,0,1,117.8,255.4Z"/><path class="t" d="M117.8,255.4l2-1.1c.4-.3.7-.1.7.3a1.4,1.4,0,0,1-.7,1.2l-2,1.2c-.4.2-.7,0-.7-.4A1.5,1.5,0,0,1,117.8,255.4Z"/><path class="f" d="M123.2,252.3l12-7c.4-.2.8,0,.8.4a1.6,1.6,0,0,1-.8,1.2l-12,7c-.4.2-.7,0-.7-.4A1.5,1.5,0,0,1,123.2,252.3Z"/><path class="v" d="M123.2,252.3l12-7c.4-.2.8,0,.8.4a1.6,1.6,0,0,1-.8,1.2l-12,7c-.4.2-.7,0-.7-.4A1.5,1.5,0,0,1,123.2,252.3Z"/><path class="f" d="M120.6,257.9l1.9-1.2c.4-.2.8,0,.8.4a1.6,1.6,0,0,1-.8,1.2l-1.9,1.1c-.4.3-.8.1-.8-.3A1.5,1.5,0,0,1,120.6,257.9Z"/><path class="t" d="M120.6,257.9l1.9-1.2c.4-.2.8,0,.8.4a1.6,1.6,0,0,1-.8,1.2l-1.9,1.1c-.4.3-.8.1-.8-.3A1.5,1.5,0,0,1,120.6,257.9Z"/><path class="f" d="M120.6,261.9l1.9-1.1c.4-.3.8-.1.8.3a1.5,1.5,0,0,1-.8,1.2l-1.9,1.2c-.4.2-.8,0-.8-.4A1.6,1.6,0,0,1,120.6,261.9Z"/><path class="t" d="M120.6,261.9l1.9-1.1c.4-.3.8-.1.8.3a1.5,1.5,0,0,1-.8,1.2l-1.9,1.2c-.4.2-.8,0-.8-.4A1.6,1.6,0,0,1,120.6,261.9Z"/><path class="f" d="M126,254.7l9.2-5.3c.4-.2.8-.1.8.4a1.8,1.8,0,0,1-.8,1.2l-9.2,5.3c-.4.3-.8.1-.8-.3A1.8,1.8,0,0,1,126,254.7Z"/><path class="v" d="M126,254.7l9.2-5.3c.4-.2.8-.1.8.4a1.8,1.8,0,0,1-.8,1.2l-9.2,5.3c-.4.3-.8.1-.8-.3A1.8,1.8,0,0,1,126,254.7Z"/><path class="f" d="M126,258.8l9.2-5.3c.4-.3.8-.1.8.3a1.5,1.5,0,0,1-.8,1.2l-9.2,5.4c-.4.2-.8,0-.8-.4A1.6,1.6,0,0,1,126,258.8Z"/><path class="v" d="M126,258.8l9.2-5.3c.4-.3.8-.1.8.3a1.5,1.5,0,0,1-.8,1.2l-9.2,5.4c-.4.2-.8,0-.8-.4A1.6,1.6,0,0,1,126,258.8Z"/><path class="f" d="M120.6,245.6l1.9-1.1c.4-.2.8-.1.8.4a1.8,1.8,0,0,1-.8,1.2l-1.9,1.1c-.4.2-.8.1-.8-.4A1.8,1.8,0,0,1,120.6,245.6Z"/><path class="t" d="M120.6,245.6l1.9-1.1c.4-.2.8-.1.8.4a1.8,1.8,0,0,1-.8,1.2l-1.9,1.1c-.4.2-.8.1-.8-.4A1.8,1.8,0,0,1,120.6,245.6Z"/><path class="f" d="M117.8,251.3l2-1.1c.4-.3.7-.1.7.3a1.4,1.4,0,0,1-.7,1.2l-2,1.2c-.4.2-.7,0-.7-.4A1.5,1.5,0,0,1,117.8,251.3Z"/><path class="t" d="M117.8,251.3l2-1.1c.4-.3.7-.1.7.3a1.4,1.4,0,0,1-.7,1.2l-2,1.2c-.4.2-.7,0-.7-.4A1.5,1.5,0,0,1,117.8,251.3Z"/><path class="f" d="M126,242.5l9.2-5.3c.4-.3.8-.1.8.3a1.5,1.5,0,0,1-.8,1.2l-9.2,5.4c-.4.2-.8.1-.8-.4A1.6,1.6,0,0,1,126,242.5Z"/><path class="v" d="M126,242.5l9.2-5.3c.4-.3.8-.1.8.3a1.5,1.5,0,0,1-.8,1.2l-9.2,5.4c-.4.2-.8.1-.8-.4A1.6,1.6,0,0,1,126,242.5Z"/><path class="f" d="M123.2,248.2l12-7c.4-.2.8,0,.8.4a1.6,1.6,0,0,1-.8,1.2l-12,7c-.4.2-.7,0-.7-.4A1.4,1.4,0,0,1,123.2,248.2Z"/><path class="v" d="M123.2,248.2l12-7c.4-.2.8,0,.8.4a1.6,1.6,0,0,1-.8,1.2l-12,7c-.4.2-.7,0-.7-.4A1.4,1.4,0,0,1,123.2,248.2Z"/><path class="f" d="M117.8,267.6l2-1.1c.4-.2.7-.1.7.4a1.7,1.7,0,0,1-.7,1.2l-2,1.1c-.4.2-.7.1-.7-.4A1.7,1.7,0,0,1,117.8,267.6Z"/><path class="t" d="M117.8,267.6l2-1.1c.4-.2.7-.1.7.4a1.7,1.7,0,0,1-.7,1.2l-2,1.1c-.4.2-.7.1-.7-.4A1.7,1.7,0,0,1,117.8,267.6Z"/><path class="f" d="M123.2,264.5l12-6.9c.4-.3.8-.1.8.3a1.5,1.5,0,0,1-.8,1.2l-12,7c-.4.2-.7.1-.7-.4A1.5,1.5,0,0,1,123.2,264.5Z"/><path class="v" d="M123.2,264.5l12-6.9c.4-.3.8-.1.8.3a1.5,1.5,0,0,1-.8,1.2l-12,7c-.4.2-.7.1-.7-.4A1.5,1.5,0,0,1,123.2,264.5Z"/><path class="w" d="M237.9,237c3.5.5,5.6,2.5,5.7,5.3s-4.2,13.3-4.2,13.3c4.8,4.3,8.1,7.2,10.4,8.9s6.9,7.4,6.8,8.6-2.2-1.3-3.5-2.5-3.9-1.6-6.7-2.9-12.2-6.1-13.5-7.8S237.9,237,237.9,237Z"/><path class="x" d="M237.6,236.9a7.9,7.9,0,0,1,3,.7,5.4,5.4,0,0,1,3.1,3.8c.3,1.5-.3,4.1-1.4,6.8s-2.7,5.9-2.7,5.9l-2-1.6Z"/><path class="w" d="M260.1,314.8s.9,6.2,2.7,8.4,2.8,4.7,4.7,6.8c.4.5,1.3,1.3,1.7,1.7s.3.7-.1,1.1-4.3,1.1-6.3-.3-4-4.3-5.2-5.5l-1.6-1.5a1.4,1.4,0,0,1-.4-1.5c0-.2.1-.4.1-.6s-1.3-5.8-1.3-5.8Z"/><path class="y" d="M255.9,326.7a3.1,3.1,0,0,0,.2,1.1,5.4,5.4,0,0,0,1.8,1.4,4.2,4.2,0,0,1,2.1,2.1,7.7,7.7,0,0,0,3.5,3.4,10.8,10.8,0,0,0,6.2.5c2.6-.5,2.8-2.1,2.8-2.1s.1-1.4-.5-1.6Z"/><path class="z" d="M255.2,320.3a18.3,18.3,0,0,1,.2,3.8,3.4,3.4,0,0,0,.5,2.6c.8,1.1,2.4,1.4,3.5,2.8s2.7,4.1,6.1,4.7,6-.6,6.6-1.5,0-1.9-2.2-3.1-5.5-4.9-5.5-4.9a16.5,16.5,0,0,1-2.2-3.7l-.8-2.6C261.2,317.9,255.7,320.1,255.2,320.3Z"/><path class="aa" d="M220.3,266.2c-.7,3.9-.9,6.1.4,9.9s5.9,7.1,11.3,10.1,11.1,6.1,12.5,6.7,1.5,1.4,1.3,3.9.8,6.7,3.7,11.8a86.8,86.8,0,0,1,5,10.5,23.3,23.3,0,0,1,6.2-2.2s-5.6-25.9-6.8-29.2S240,273.9,240,273.9s1.3-5.2,2.2-9.1Z"/><path class="w" d="M272.8,308.1a49.9,49.9,0,0,0,3,7.5,32.6,32.6,0,0,0,4.6,6.8,13.6,13.6,0,0,1,1.7,1.7.7.7,0,0,1,0,1.1c-.8.8-4.4,1.1-6.4-.4s-4-4.2-5.2-5.4l-1.5-1.5a1.7,1.7,0,0,1-.5-1.5c.1-.2.1-.4.2-.6s-1.4-5.8-1.4-5.8Z"/><path class="ab" d="M233.2,258.6c-.6,3.9-.8,6,.5,9.9s4.5,10.1,9.9,13.1a134,134,0,0,0,12.7,5.7c1,.4,1.3,1.6,1.8,4.3s1.6,5.3,4.5,10.5,5.1,9.6,5.1,9.6c1.5-1.2,4.5-1.7,5.9-1.8s-6.8-25.2-8-28.5-9.8-8.1-13.5-10.3-5.7-3.4-9.9-6.3Z"/><path class="y" d="M268.8,319.1a3.4,3.4,0,0,0,.2,1.1,7,7,0,0,0,1.8,1.4,3.8,3.8,0,0,1,2.1,2.1,7,7,0,0,0,3.5,3.3,10,10,0,0,0,6.2.6c2.6-.6,2.8-2.1,2.8-2.1s.1-1.5-.5-1.7Z"/><path class="ac" d="M268.1,312.7a17.4,17.4,0,0,1,.2,3.7,3.7,3.7,0,0,0,.5,2.7c.8,1,2.4,1.3,3.5,2.8s2.7,4,6.1,4.6,6-.5,6.6-1.5.1-1.9-2.2-3-5.4-4.9-5.4-4.9a13.7,13.7,0,0,1-2.3-3.7l-.7-2.5C274.3,310.4,268.1,312.7,268.1,312.7Z"/><path class="ad" d="M242.7,270.5a27,27,0,0,1-2.7,3.4l.8.7A10.7,10.7,0,0,0,242.7,270.5Z"/><path class="x" d="M228.2,237.2a25.6,25.6,0,0,0-4.5.7s2.7,3.2,1,8.9c-1.3,4-2.3,4.2-4.6,5,1.6,6.8-.1,16.1-.1,16.1s4.4,3.5,13.8,2.7,8.4-5.8,8.4-5.8,0-11.4-.1-16.3-4.3-11.6-4.3-11.6h-2.9Z"/><path class="ae" d="M240.2,268.3c-4.2.7-10.3-.2-12.4-2.3s-3.3-7.4-2.3-10.4.8-8.6.2-11.9l-.4-.2a23.3,23.3,0,0,1-.6,3.3c-1.3,4-2.3,4.2-4.6,5,1.5,6.6-.1,16.1-.1,16.1s4.4,3.5,13.8,2.7a11.6,11.6,0,0,0,6.4-2.3Z"/><path class="j" d="M236.1,212.8c-3.4-.6-6.4.7-6.4,3.5-4.1-.1-5.7,2.2-5.7,5.2,0,5.3,2.6,11.1,7.8,11.9l2.8.5c5.3.8,6.9-4.8,8.2-10,.8-2.9,1-4.6-.5-6.9a4.6,4.6,0,0,0,1.4-3.8C239.7,215.7,238.3,213.1,236.1,212.8Z"/><path class="w" d="M241.8,217.5c1.1.9,2.6,5.6,1.4,11.9s-2.9,6.4-3.9,6.6-2.6-.2-4.1-.7l-.4,2.2s2,5,1.2,7.4-3.5-.7-5.3-2.5a17,17,0,0,1-3.3-4.8l1.3-7.4s-.5.5-1.9-1.1-1.1-3.6-.3-4.2a2.2,2.2,0,0,1,3.2,1.4s.8-5.1,4.9-5.8S240.2,220,241.8,217.5Z"/><path class="j" d="M231.9,221.9c-1.5,1.8-1.4,4.2-1.6,5.4a1,1,0,0,1-1.2.9h0s.3-2.7-.2-3.1S230,221.4,231.9,221.9Z"/><g class="af"><path d="M235.2,235.3c-1.7-.5-5.1-2.1-5.4-3.6a3.5,3.5,0,0,0,.9,2c.9,1,4.3,2.6,4.3,2.6Z"/></g><path class="ag" d="M227.8,280v.5a1.4,1.4,0,0,0,.6,1.2l13,7.4a.8.8,0,0,0,.7.2,1,1,0,0,0,.7-.2l23.7-13.7a1.2,1.2,0,0,0,.7-1.2v-.3l-25.1,14.5Z"/><path class="m" d="M267.2,273.9l-14.1-8.1a.6.6,0,0,0-.8,0l-24.4,14.1q-.3.2,0,.3l14.2,8.2Z"/><path class="w" d="M246.4,267.7c1.2.4,1.1.8,2.1,1.3a4.5,4.5,0,0,0,2.8.8l1.7,1.4c1.2.8,2.5,1.5,4,1s.5-2.2,0-3a43,43,0,0,0-3.7-3.7c-.5-.5-2.8-.8-4.8-1.4Z"/><polygon class="ah" points="242 287.2 234.3 282.8 256.6 270 264.2 274.4 242 287.2"/><polygon class="ah" points="238.2 275 238.4 275.1 242.1 277.3 248.7 273.4 248.9 273.3 245 271.1 238.2 275"/><polygon class="ai" points="238.4 275.1 242.1 277.3 248.7 273.4 245 271.3 238.4 275.1"/><path class="ag" d="M242.1,288.4v.9a1,1,0,0,0,.7-.2l23.7-13.7a1.2,1.2,0,0,0,.7-1.2v-.3Z"/><g class="aj"><path class="ah" d="M242.1,288.4v.9a1,1,0,0,0,.7-.2l23.7-13.7a1.2,1.2,0,0,0,.7-1.2v-.3Z"/></g><path class="ag" d="M242.5,288.6a1.4,1.4,0,0,0,1.4-.1l23.6-13.7a1.5,1.5,0,0,0,.8-1.1l2.6-15.4V258a1.5,1.5,0,0,0-.4-1.1l-24.7,14.2a.8.8,0,0,0-.5.8Z"/><path class="m" d="M242.1,288.4h.4l2.8-16.7a.8.8,0,0,1,.5-.8l24.7-14.2-.4-.3-24.6,14.2a1.5,1.5,0,0,0-.6.9Z"/><path class="ah" d="M255.8,274.4a4.9,4.9,0,0,1,2.4-3.1c1.1-.7,1.9-.4,1.7.7a4.8,4.8,0,0,1-2.3,3C256.4,275.7,255.6,275.4,255.8,274.4Z"/><path class="w" d="M229,274.3c-2.8-1.4-12.9-5.3-15.9-6.9s-3.2-1.9-2.9-3.9,5.1-17.2,6.7-20.6,3.7-4.1,7-4.9c2.3,2.7.7,10.7-1.6,13.6l-4.6,10.1s5.2,3.6,9.4,6.1a38.1,38.1,0,0,0,6.4,3.2c1.4.5,3.8,1.7,4.2,2.3a35.7,35.7,0,0,1,2.6,4.8c.3.9,1.2,2.7-.6,2.9s-2.7-.7-3.7-1.7a15.1,15.1,0,0,1-1.4-1.7,5.6,5.6,0,0,1-3.4-1.4Z"/><path class="x" d="M224.3,237.8s-3.7.3-5.8,2.5-2.2,3.4-3.2,6.1-3.2,9.4-3.2,9.4a7.9,7.9,0,0,0,7.9,3l2.8-6.7a15.7,15.7,0,0,0,2.7-6.7C226.1,241.4,225.9,239.1,224.3,237.8Z"/><path class="ak" d="M47.2,303.7,22.1,289.2c-1.6-.9-1.4-2.4.4-3.5l24.3-14a6.7,6.7,0,0,1,6-.2L77.9,286c1.5.9,1.3,2.4-.4,3.5l-24.3,14A6.7,6.7,0,0,1,47.2,303.7Z"/><path class="al" d="M86.2,274.9h0V264.1H61.9l-8.4-4.9a8.3,8.3,0,0,0-7.5.3l-7.9,4.6H13.8v11.2a2,2,0,0,0,1.2,2l31.5,18.2a8.3,8.3,0,0,0,7.5-.3l30.4-17.6A2.8,2.8,0,0,0,86.2,274.9Z"/><path class="al" d="M50,258.5a8.8,8.8,0,0,0-4,1l-7.9,4.6H13.8v11.2a2,2,0,0,0,1.2,2l31.5,18.2a6.5,6.5,0,0,0,3.5.7Z"/><path class="am" d="M16.5,264H13.8v11.2a2,2,0,0,0,1.2,2l1.5.9Z"/><path class="am" d="M47,295.6a8.8,8.8,0,0,0,6,0V282.9H47Z"/><path class="an" d="M46.5,284.3,15,266.1c-1.9-1.1-1.6-3.1.6-4.3L46,244.2a8.3,8.3,0,0,1,7.5-.3l31.4,18.2c2,1.1,1.7,3-.5,4.3L54,283.9C51.8,285.2,48.4,285.4,46.5,284.3Z"/><path class="am" d="M47.1,281,20.7,265.8c-1.6-1-1.4-2.6.5-3.7l25.4-14.7c1.9-1,4.7-1.2,6.3-.2l26.4,15.2c1.6.9,1.4,2.6-.5,3.6L53.4,280.7A7,7,0,0,1,47.1,281Z"/><path class="r" d="M74.7,277.8a2.9,2.9,0,0,1-1.3,2.2c-.7.4-1.3.1-1.3-.7a2.9,2.9,0,0,1,1.3-2.2C74.1,276.7,74.7,277,74.7,277.8Z"/><path class="r" d="M78.8,275.4a2.7,2.7,0,0,1-1.3,2.2c-.7.4-1.3.1-1.3-.7a2.9,2.9,0,0,1,1.3-2.2C78.2,274.3,78.8,274.6,78.8,275.4Z"/><path class="an" d="M82.8,273.1a2.7,2.7,0,0,1-1.2,2.2c-.7.4-1.3.1-1.3-.8a3,3,0,0,1,1.3-2.2C82.3,271.9,82.8,272.3,82.8,273.1Z"/><path class="al" d="M86.2,257.6h0V246.7H61.9l-8.4-4.8a8.3,8.3,0,0,0-7.5.3l-7.9,4.5H13.8v11.2a2.1,2.1,0,0,0,1.2,2L46.5,278c1.9,1.2,5.3,1,7.5-.3l30.4-17.5A2.8,2.8,0,0,0,86.2,257.6Z"/><path class="al" d="M50,241.1a8.8,8.8,0,0,0-4,1.1l-7.9,4.5H13.8v11.2a2.1,2.1,0,0,0,1.2,2L46.5,278a6.5,6.5,0,0,0,3.5.8Z"/><path class="am" d="M16.5,246.7H13.8v11.2a2.1,2.1,0,0,0,1.2,2l1.5.8Z"/><path class="am" d="M47,278.3a8.3,8.3,0,0,0,6-.1V265.5H47Z"/><path class="an" d="M46.5,266.9,15,248.8c-1.9-1.2-1.6-3.1.6-4.4L46,226.9a8.3,8.3,0,0,1,7.5-.3l31.4,18.1c2,1.1,1.7,3.1-.5,4.4L54,266.6A8.3,8.3,0,0,1,46.5,266.9Z"/><path class="am" d="M47.1,263.7,20.7,248.4c-1.6-.9-1.4-2.5.5-3.6l25.4-14.7a7,7,0,0,1,6.3-.3l26.4,15.3c1.6.9,1.4,2.5-.5,3.6L53.4,263.4A7,7,0,0,1,47.1,263.7Z"/><path class="an" d="M74.7,260.5a2.9,2.9,0,0,1-1.3,2.2c-.7.4-1.3,0-1.3-.8a2.9,2.9,0,0,1,1.3-2.2C74.1,259.3,74.7,259.6,74.7,260.5Z"/><path class="x" d="M78.8,258.1a2.9,2.9,0,0,1-1.3,2.2c-.7.4-1.3.1-1.3-.7a2.9,2.9,0,0,1,1.3-2.2C78.2,257,78.8,257.3,78.8,258.1Z"/><path class="r" d="M82.8,255.7a2.7,2.7,0,0,1-1.2,2.2c-.7.4-1.3.1-1.3-.7a2.9,2.9,0,0,1,1.3-2.2C82.3,254.6,82.8,254.9,82.8,255.7Z"/><path class="al" d="M86.2,240.3h0V229.4H61.9l-8.4-4.9c-1.9-1.1-5.3-.9-7.5.3l-7.9,4.6H13.8v11.1a2,2,0,0,0,1.2,2l31.5,18.2a8.3,8.3,0,0,0,7.5-.3l30.4-17.5C85.7,242.1,86.3,241.1,86.2,240.3Z"/><path class="al" d="M50,223.8a8.8,8.8,0,0,0-4,1l-7.9,4.6H13.8v11.1a2,2,0,0,0,1.2,2l31.5,18.2a6.5,6.5,0,0,0,3.5.7Z"/><path class="am" d="M16.5,229.4H13.8v11.1a2,2,0,0,0,1.2,2l1.5.9Z"/><path class="am" d="M47,260.9a8.8,8.8,0,0,0,6,0V248.2H47Z"/><path class="ao" d="M46.5,249.6,15,231.4c-1.9-1.1-1.6-3,.6-4.3L46,209.5c2.2-1.2,5.6-1.4,7.5-.3l31.4,18.2c2,1.1,1.7,3-.5,4.3L54,249.3A8.3,8.3,0,0,1,46.5,249.6Z"/><path class="h" d="M84.4,229.6,54,247.1c-2.2,1.3-5.6,1.5-7.5.3L15,229.3l-.9-.9a2,2,0,0,0,.9,3l31.5,18.2a8.3,8.3,0,0,0,7.5-.3l30.4-17.6c1.7-1,2.3-2.4,1.5-3.5A4.1,4.1,0,0,1,84.4,229.6Z"/><path class="x" d="M74.7,243.1a2.9,2.9,0,0,1-1.3,2.2c-.7.4-1.3.1-1.3-.7a2.9,2.9,0,0,1,1.3-2.2C74.1,242,74.7,242.3,74.7,243.1Z"/><path class="an" d="M78.8,240.8a2.9,2.9,0,0,1-1.3,2.2c-.7.4-1.3,0-1.3-.8a2.9,2.9,0,0,1,1.3-2.2C78.2,239.6,78.8,239.9,78.8,240.8Z"/><path class="an" d="M82.8,238.4a2.7,2.7,0,0,1-1.2,2.2c-.7.4-1.3.1-1.3-.7a2.9,2.9,0,0,1,1.3-2.2C82.3,237.3,82.8,237.6,82.8,238.4Z"/><path class="am" d="M48.4,238.3l-14.8-8.5c-.9-.5-.7-1.4.3-2l14.2-8.2a4,4,0,0,1,3.5-.2l14.7,8.5c1,.6.8,1.5-.2,2.1l-14.2,8.2A3.9,3.9,0,0,1,48.4,238.3Z"/><path class="an" d="M49.8,231.2,47.7,230c-.1,0-.1-.2.1-.3l1.9-1.1h.5l2.1,1.2c.1,0,.1.2-.1.2l-1.9,1.2A.4.4,0,0,1,49.8,231.2Z"/><path class="al" d="M33.6,229.8h.3l14.2-8.2a3.6,3.6,0,0,1,3.5-.1l14.7,8.4c.8-.6.9-1.4,0-1.9l-14.7-8.5a4,4,0,0,0-3.5.2l-14.2,8.2C32.9,228.4,32.7,229.3,33.6,229.8Z"/><path class="x" d="M44.5,252.7c0,.6-.4.8-.9.5a1.6,1.6,0,0,1-.8-1.4c0-.6.3-.8.8-.5A1.7,1.7,0,0,1,44.5,252.7Z"/><path class="r" d="M41.8,251.2c0,.6-.4.8-.8.5a1.9,1.9,0,0,1-.9-1.5c0-.5.4-.7.9-.5A2.2,2.2,0,0,1,41.8,251.2Z"/><path class="r" d="M44.5,255.9c0,.6-.4.8-.9.5a1.6,1.6,0,0,1-.8-1.4c0-.6.3-.8.8-.5A1.7,1.7,0,0,1,44.5,255.9Z"/><path class="r" d="M41.8,254.4c0,.6-.4.8-.8.5a1.9,1.9,0,0,1-.9-1.5c0-.5.4-.7.9-.5A2.2,2.2,0,0,1,41.8,254.4Z"/><path class="an" d="M44.5,270a.6.6,0,0,1-.9.5,1.8,1.8,0,0,1-.8-1.5c0-.5.3-.7.8-.5A2,2,0,0,1,44.5,270Z"/><path class="an" d="M41.8,268.5a.5.5,0,0,1-.8.5,2,2,0,0,1-.9-1.5.6.6,0,0,1,.9-.5A2,2,0,0,1,41.8,268.5Z"/><path class="r" d="M44.5,273.2c0,.6-.4.8-.9.5a1.8,1.8,0,0,1-.8-1.5c0-.5.3-.7.8-.5A2,2,0,0,1,44.5,273.2Z"/><path class="x" d="M41.8,271.7a.5.5,0,0,1-.8.5,2,2,0,0,1-.9-1.5.6.6,0,0,1,.9-.5A2,2,0,0,1,41.8,271.7Z"/><path class="an" d="M44.5,287.3c0,.5-.4.7-.9.5a1.9,1.9,0,0,1-.8-1.5c0-.6.3-.8.8-.5A1.9,1.9,0,0,1,44.5,287.3Z"/><path class="r" d="M41.8,285.7c0,.6-.4.8-.8.5a1.7,1.7,0,0,1-.9-1.4c0-.6.4-.8.9-.5A1.8,1.8,0,0,1,41.8,285.7Z"/><path class="x" d="M44.5,290.5c0,.5-.4.7-.9.5a1.9,1.9,0,0,1-.8-1.5c0-.6.3-.8.8-.5A1.9,1.9,0,0,1,44.5,290.5Z"/><path class="an" d="M41.8,288.9c0,.6-.4.8-.8.5a1.7,1.7,0,0,1-.9-1.4c0-.6.4-.8.9-.5A1.8,1.8,0,0,1,41.8,288.9Z"/></g></svg>