<svg xmlns="http://www.w3.org/2000/svg" xmlns:xlink="http://www.w3.org/1999/xlink" viewBox="0 0 400 400"><defs><style>.a{fill:none;}.b{isolation:isolate;}.c{fill:url(#a);}.d{mix-blend-mode:lighten;}.e{fill:#21e2e2;}.f{fill:#4ea4f9;}.g{fill:url(#b);}.h{fill:#0050af;}.i{fill:#267cd1;}.j{fill:#fff;}.k{fill:#2842a2;}.l{fill:#63b4f7;}.m{fill:#2ba0ef;}.n{opacity:0.11;}.o{clip-path:url(#c);}.p{fill:url(#d);}.q{fill:url(#e);}.r{fill:#9198db;}.s{fill:#adb1f2;}.t{fill:#24126a;}.u{opacity:0.45;mix-blend-mode:multiply;}.v{fill:#606060;}.w{fill:#333;}.x{fill:#c0c2c1;}.y{fill:#e6e6e6;}.z{fill:#000100;}.aa{fill:#fe9a0f;}.ab{fill:#e2810c;}.ac{fill:#dd7f10;}.ad{fill:#ae4e32;}.ae{fill:#9e402b;}.af{fill:#fe9b0e;}</style><linearGradient id="a" x1="-1750.21" y1="400.3" x2="-1750.22" y2="400.94" gradientTransform="matrix(740.56, 0, 0, -612.51, 1296347.34, 245617.49)" gradientUnits="userSpaceOnUse"><stop offset="0" stop-color="#c6e6ff"/><stop offset="1" stop-color="#fff"/></linearGradient><linearGradient id="b" x1="-3716.11" y1="228.51" x2="-3693.54" y2="228.51" gradientTransform="matrix(-1, 0, 0, 1, -3421.17, 0)" gradientUnits="userSpaceOnUse"><stop offset="0" stop-color="#5761d7"/><stop offset="0.18" stop-color="#5c66d9"/><stop offset="0.39" stop-color="#6a73df"/><stop offset="0.61" stop-color="#8289e8"/><stop offset="0.85" stop-color="#a3a7f5"/><stop offset="1" stop-color="#bcbeff"/></linearGradient><clipPath id="c"><polygon class="a" points="179.4 123.6 289 186.9 275.4 267.1 165.9 203.8 179.4 123.6"/></clipPath><linearGradient id="d" x1="-3707.09" y1="219.04" x2="-3521.41" y2="219.04" gradientTransform="matrix(-1, 0, 0, 1, -3421.17, 0)" gradientUnits="userSpaceOnUse"><stop offset="0" stop-color="#c0bff6"/><stop offset="0.29" stop-color="#c5c4f7"/><stop offset="0.64" stop-color="#d3d2f9"/><stop offset="1" stop-color="#e9e9fd"/></linearGradient><linearGradient id="e" x1="-3719.31" y1="205.41" x2="-3671.78" y2="205.41" xlink:href="#d"/></defs><title>linux-germany-vps</title><g class="b"><path class="c" d="M200.5,92.1c61.1,39,131,56.5,131,56.5s77,11.7,48.7,99.4-32,119.1-76.4,121.4c-42.1,1.2-65.8-16.2-107.4-13.2-36.6,2.8-61.8,19.3-123-4.8C-24.6,308.1-17.3-45.3,200.5,92.1Z"/><g class="d"><path class="e" d="M204.9,336.7a10,10,0,0,1-5.1-1.4h0l-102.2-59a2.9,2.9,0,0,1-1.5-2.5,3,3,0,0,1,1.5-2.6l64-36.9a.4.4,0,0,1,.6,0l107,61.7a3,3,0,0,1,0,5.2L210,335.3A10,10,0,0,1,204.9,336.7Zm-4.5-2.4a9.2,9.2,0,0,0,9.1,0l59.1-34.2a1.6,1.6,0,0,0,.9-1.5,1.8,1.8,0,0,0-.9-1.6L161.9,235.4h-.2L98.2,272.2a1.7,1.7,0,0,0-.9,1.6,1.6,1.6,0,0,0,.9,1.5Z"/></g><path class="f" d="M163.6,203l14.2-84.5-1.2-.4,1.8-1h0a1.2,1.2,0,0,1,1.3.1l113.7,65.6a3.2,3.2,0,0,1,1.5,2.9l-14.3,85.1q-.2.8-.6.9h0l-1.7,1-.3-1.6h.1L165,205.9A3.3,3.3,0,0,1,163.6,203Z"/><path class="g" d="M292.8,185.2l1.9-.9a2.4,2.4,0,0,1,.2,1.4l-14.3,85.1q-.2.8-.6.9h0l-1.7,1-.3-1.6h.1l-5.7-3.3Z"/><path class="h" d="M163.3,206.9,277,272.6c.9.5,1.6.2,1.8-.7l14.3-85.1a3.1,3.1,0,0,0-1.4-2.9L177.9,118.2c-.9-.5-1.6-.2-1.8.7L161.8,204A3,3,0,0,0,163.3,206.9Z"/><polygon class="h" points="179.4 123.6 289 186.9 275.4 267.1 165.9 203.8 179.4 123.6"/><path class="i" d="M91.7,247.2l6.3,3.2,62.2-35.9a4.6,4.6,0,0,1,4.1.2l107.3,61.9,5.7-2.8-2.2,5.9h0a1.2,1.2,0,0,1-.7.7l-65.5,37.9a4.6,4.6,0,0,1-4.1-.2L94.9,254.7a1.7,1.7,0,0,1-.9-1h0Z"/><path class="f" d="M92.7,248.2l112.6,65a4.8,4.8,0,0,0,4.2.2l67.2-38.8c1-.6.9-1.7-.3-2.4l-112.6-65a4.8,4.8,0,0,0-4.2-.2L92.4,245.8C91.3,246.4,91.5,247.5,92.7,248.2Z"/><path class="j" d="M92.7,247.6l112.6,65a4.5,4.5,0,0,0,4.2.1l67.2-38.8a1.3,1.3,0,0,0,.6-.7,1.1,1.1,0,0,1-.6,1.4l-67.2,38.8a4.8,4.8,0,0,1-4.2-.2l-112.6-65c-.8-.5-1.1-1.1-.9-1.7A1.9,1.9,0,0,0,92.7,247.6Z"/><path class="k" d="M239.3,299.2v-1.3c0-.1-.1-.2-.2-.1l-4.4,2.5c0,.1-.1.2-.1.3v1.2c0,.2.1.2.1.2l4.4-2.5C239.2,299.4,239.3,299.3,239.3,299.2Z"/><path class="k" d="M232.7,302.9v-1.2c0-.1,0-.2-.1-.1l-4.4,2.5c-.1,0-.1.2-.1.3v1.2c0,.1,0,.2.1.1l4.4-2.5C232.7,303.2,232.7,303,232.7,302.9Z"/><path class="l" d="M259.1,271l-93.5-54.1a2.3,2.3,0,0,0-2,0l-33.4,19.3a.9.9,0,0,0,0,1.3l93.6,54a2.3,2.3,0,0,0,2,0l33.3-19.3A.7.7,0,0,0,259.1,271Z"/><path class="m" d="M259.1,272.2l-.3.2-93.2-53.8a1.8,1.8,0,0,0-2,0l-33,19.1-.4-.2a.9.9,0,0,1,0-1.3l33.4-19.3a2.3,2.3,0,0,1,2,0L259.1,271A.7.7,0,0,1,259.1,272.2Z"/><polygon class="h" points="161 221.8 242.3 268.7 245.9 266.7 164.7 219.7 161 221.8"/><polygon class="h" points="152.2 226.9 228.4 271 232 268.9 155.8 224.9 152.2 226.9"/><polygon class="h" points="146.4 230.3 236.2 282.1 239.8 280 150 228.2 146.4 230.3"/><polygon class="h" points="140.6 233.6 230.4 285.4 234 283.3 144.3 231.5 140.6 233.6"/><polygon class="h" points="134.9 236.9 224.6 288.8 228.2 286.7 138.5 234.8 134.9 236.9"/><polygon class="h" points="247.2 271.6 250.8 273.7 254.5 271.6 250.8 269.5 247.2 271.6"/><polygon class="h" points="234.5 274.5 242 278.8 245.6 276.7 238.1 272.4 234.5 274.5"/><path class="l" d="M162,284l-25.3-14.5a1.2,1.2,0,0,1,0-2.1l17.3-10a4.5,4.5,0,0,1,3.6,0L182.8,272c1,.6,1,1.5,0,2.1L165.5,284A3.6,3.6,0,0,1,162,284Z"/><path class="m" d="M182.8,272.9l-25.2-14.6a3.8,3.8,0,0,0-3.6,0l-17.3,10a.9.9,0,0,0-.6.6,1.3,1.3,0,0,1,.6-1.5l17.3-10a4.5,4.5,0,0,1,3.6,0L182.8,272c.7.4.9,1,.6,1.5A.9.9,0,0,0,182.8,272.9Z"/><g class="n"><g class="o"><path class="p" d="M163.7,207.1l112.5,65a4.8,4.8,0,0,0,4.2.1l67.2-38.8c1.1-.6.9-1.7-.3-2.4L234.7,166a4.5,4.5,0,0,0-4.2-.1l-67.1,38.7C162.3,205.3,162.4,206.3,163.7,207.1Z"/><path class="q" d="M276.6,218.7l-25.3-14.6a1.1,1.1,0,0,1,0-2l17.3-10a3.8,3.8,0,0,1,3.6,0l25.2,14.6c1,.6,1,1.5,0,2l-17.3,10A3.6,3.6,0,0,1,276.6,218.7Z"/><path class="r" d="M297.4,207.5,272.2,193a3.8,3.8,0,0,0-3.6,0l-17.3,9.9-.6.6a1.1,1.1,0,0,1,.6-1.4l17.3-10a3.8,3.8,0,0,1,3.6,0l25.2,14.6c.7.4.9.9.6,1.4A1.7,1.7,0,0,0,297.4,207.5Z"/><path class="s" d="M308.5,241.5l-93.6-54.1a2,2,0,0,0-2,.1l-33.3,19.2a.8.8,0,0,0,0,1.3l93.5,54a2.3,2.3,0,0,0,2,0l33.4-19.3A.7.7,0,0,0,308.5,241.5Z"/><path class="r" d="M308.5,242.7l-.3.2-93.3-53.8a1.8,1.8,0,0,0-2,0l-33,19.1-.3-.2a.8.8,0,0,1,0-1.3l33.3-19.2a2,2,0,0,1,2-.1l93.6,54.1A.7.7,0,0,1,308.5,242.7Z"/><polygon class="t" points="188.3 205.4 269.8 252.5 266.6 254.3 185.1 207.3 188.3 205.4"/><polygon class="t" points="196.9 200.5 274.4 245.2 271.1 247 193.7 202.3 196.9 200.5"/><polygon class="t" points="280.2 248.5 287.4 252.7 284.2 254.6 276.9 250.4 280.2 248.5"/><polygon class="t" points="273.8 254.8 278.8 257.7 275.6 259.5 270.5 256.6 273.8 254.8"/><polygon class="t" points="202.3 197.3 292.8 249.6 289.5 251.5 199.1 199.2 202.3 197.3"/><polygon class="t" points="207.7 194.2 298.2 246.5 294.9 248.4 204.4 196.1 207.7 194.2"/><polygon class="t" points="213 191.1 303.5 243.4 300.3 245.2 209.8 193 213 191.1"/></g></g><g class="u"><path class="v" d="M318.7,308.2l-28.8,5.5a7.3,7.3,0,0,1-8.2-4.4h0l-1.5-.3h-.5l-2.2-.3h-3.9a34.4,34.4,0,0,0-10.9,1.6,7.3,7.3,0,0,1-7.8,3.6L226,308.2a4.9,4.9,0,0,1-3-7.9,16.7,16.7,0,0,0,3.1-6.9,5,5,0,0,0,.2-1.2,6.8,6.8,0,0,1,5.3-5.9c3.2-.7,5.8-3.4,7.7-6.5-.2-2.4-.4-5-.4-7.7a38.6,38.6,0,0,1,10.7-26.5,27.6,27.6,0,0,0,6.5-25.8,20.7,20.7,0,0,1-.6-5,20.2,20.2,0,0,1,18.1-20.1,12.2,12.2,0,0,1,2.7-.1A20.4,20.4,0,0,1,296,213.9a18,18,0,0,1-.3,4,28.5,28.5,0,0,0,8.6,25.4c7.3,6.5,13.4,20.2,11.3,33.5a8.9,8.9,0,0,1,1.9,5.5,9.5,9.5,0,0,1-1.6,5.3,6.6,6.6,0,0,1,2.5,4.6c.1.4.1.8.2,1.2a15.7,15.7,0,0,0,3.2,6.9A5,5,0,0,1,318.7,308.2Z"/></g><path class="w" d="M307.8,248.5c-7.1-6.4-10-16-8.6-25.4a18.5,18.5,0,0,0,.2-4.1,20.3,20.3,0,0,0-19.6-19.2A20.1,20.1,0,0,0,259,220a20.7,20.7,0,0,0,.6,5,27.6,27.6,0,0,1-6.5,25.8,38.6,38.6,0,0,0-10.7,26.5c0,23.6,9.2,35,22.4,38.6a30.4,30.4,0,0,1,12.3-2.2,30.9,30.9,0,0,1,11.8,2c16.2-3.3,23.9-11.2,29.3-29.4C322.5,271.7,315.8,255.7,307.8,248.5Z"/><path d="M307.8,248.5c-7.1-6.4-10-16-8.6-25.4a18.5,18.5,0,0,0,.2-4.1,20.3,20.3,0,0,0-19.6-19.2,12.2,12.2,0,0,0-2.7.1V313.7c5.4,0,10.2,1,13.2,2.6,15.3-2.4,22.7-12.3,27.9-30C322.5,271.7,315.8,255.7,307.8,248.5Z"/><path class="j" d="M251,282.1c0-15.4,12.3-51.1,27.6-51.1s27.5,35.9,27.5,51.1a27.6,27.6,0,0,1-55.1,0Z"/><path class="x" d="M278.6,231l-1.5.2v78.4h1.5a27.5,27.5,0,0,0,27.5-27.5C306.1,266.9,293.8,231,278.6,231Z"/><ellipse class="y" cx="268.4" cy="223.3" rx="4.5" ry="6.2"/><ellipse class="z" cx="268.4" cy="224.7" rx="2.2" ry="4"/><ellipse class="y" cx="284.6" cy="223.3" rx="4.5" ry="6.2"/><ellipse class="z" cx="284.6" cy="224.7" rx="2.2" ry="4"/><path class="aa" d="M290.6,233.8c1.5,3.1-9.8,9.1-13.7,9.1s-15.1-7.2-13.7-9.1c2.6-3.6,8.3-9.3,13-9.3S289.6,231.6,290.6,233.8Z"/><path class="ab" d="M290.6,233.8c-.9-2-9.6-8.3-13.5-9.2v18.3C281.1,242.8,292.1,236.9,290.6,233.8Z"/><path class="ac" d="M307.8,283.1c2,3.9,5,7.5,8.8,8.4a6.7,6.7,0,0,1,5.3,5.9c.1.4.1.8.2,1.2a16.7,16.7,0,0,0,3.1,6.9,4.9,4.9,0,0,1-3,7.9l-28.8,5.5a7.4,7.4,0,0,1-7.8-11.1l16-25A3.5,3.5,0,0,1,307.8,283.1Z"/><path class="ad" d="M276.9,241.2c-4.2,0-8.3-2.1-12.5-6l1.4-1.5c4.2,4,8.2,5.8,12.1,5.4,5.4-.6,8.6-5.2,8.7-5.2l1.7,1.1c-.2.2-3.9,5.4-10.2,6.1Z"/><path class="ae" d="M277.9,239.1h-.8v2h1c6.3-.7,10-5.9,10.2-6.1l-1.7-1.1C286.5,233.9,283.3,238.5,277.9,239.1Z"/><circle cx="311.7" cy="287.5" r="9.3"/><path class="w" d="M249.2,277.4s9.9,12.1,16.9,14.8-3.3,10.6-12.8,4.6S249.2,277.4,249.2,277.4Z"/><path class="af" d="M243.9,283.1c-2,3.9-5,7.5-8.8,8.4a6.8,6.8,0,0,0-5.3,5.9c-.1.4-.1.8-.2,1.2a16.7,16.7,0,0,1-3.1,6.9,4.9,4.9,0,0,0,3,7.9l28.9,5.5a7.4,7.4,0,0,0,7.7-11.1l-16-25A3.5,3.5,0,0,0,243.9,283.1Z"/></g></svg>