<svg xmlns="http://www.w3.org/2000/svg" xmlns:xlink="http://www.w3.org/1999/xlink" viewBox="0 0 400 400"><defs><style>.a{fill:url(#a);}.b{opacity:0.8;}.c{fill:#0c0f38;}.aq,.d{opacity:0.4;}.e{fill:url(#b);}.f{fill:#d4088c;}.g{fill:url(#c);}.h{fill:#6ee8fc;}.i{fill:#480689;}.j{opacity:0.5;}.k{fill:url(#d);}.l{fill:#0050af;}.m{fill:#f59b6b;}.n{opacity:0.7;}.o{fill:url(#e);}.p{fill:url(#f);}.q{fill:url(#g);}.r{fill:url(#h);}.s{fill:#25bfec;}.t{fill:url(#i);}.u{fill:url(#j);}.v{fill:url(#k);}.w{fill:url(#l);}.x{fill:url(#m);}.y{fill:url(#n);}.ap,.aq,.z{fill:#6de0f6;}.aa{fill:#267fe5;}.ab{fill:url(#o);}.ac{fill:url(#p);}.ad{fill:url(#q);}.ae{fill:url(#r);}.af{fill:url(#s);}.ag{fill:url(#t);}.ah{fill:url(#u);}.ai{fill:url(#v);}.aj{fill:url(#w);}.ak{fill:url(#x);}.al{fill:url(#y);}.am{fill:url(#z);}.an{fill:url(#aa);}.ao{fill:url(#ab);}.ap{opacity:0.1;}.ar{fill:#fff;}.as{fill:#28aae1;}.at{fill:#e1001f;}.au{fill:#f6d928;}</style><linearGradient id="a" x1="-2195.25" y1="-219.13" x2="-2195.26" y2="-218.47" gradientTransform="matrix(740.56, 0, 0, -612.51, 1625929.4, -133802.89)" gradientUnits="userSpaceOnUse"><stop offset="0" stop-color="#c6e6ff"/><stop offset="1" stop-color="#fff"/></linearGradient><linearGradient id="b" x1="120.22" y1="192.27" x2="272.22" y2="192.27" gradientUnits="userSpaceOnUse"><stop offset="0" stop-color="#a31fa9"/><stop offset="0.07" stop-color="#8b17a0"/><stop offset="0.15" stop-color="#740f98"/><stop offset="0.24" stop-color="#640a92"/><stop offset="0.34" stop-color="#5b078f"/><stop offset="0.48" stop-color="#58068e"/><stop offset="0.63" stop-color="#4d22a3"/><stop offset="0.94" stop-color="#3168da"/><stop offset="1" stop-color="#2c75e4"/></linearGradient><linearGradient id="c" x1="137.25" y1="-438.69" x2="208.96" y2="-500.79" gradientTransform="matrix(0.87, 0.5, -1, 0.58, -426.56, 359.29)" gradientUnits="userSpaceOnUse"><stop offset="0" stop-color="#8d139b"/><stop offset="0.17" stop-color="#851ba1"/><stop offset="0.43" stop-color="#6e33b2"/><stop offset="0.76" stop-color="#4958cd"/><stop offset="1" stop-color="#2979e4"/></linearGradient><linearGradient id="d" x1="120.22" y1="167.95" x2="272.22" y2="167.95" gradientUnits="userSpaceOnUse"><stop offset="0" stop-color="#0d79c9"/><stop offset="0.13" stop-color="#0f7ccb"/><stop offset="0.22" stop-color="#1785d0"/><stop offset="0.31" stop-color="#2595da"/><stop offset="0.38" stop-color="#37abe7"/><stop offset="0.45" stop-color="#4fc7f8"/><stop offset="0.48" stop-color="#59d3ff"/><stop offset="0.57" stop-color="#41b6ee"/><stop offset="0.67" stop-color="#2a9bde"/><stop offset="0.78" stop-color="#1a88d2"/><stop offset="0.89" stop-color="#107dcb"/><stop offset="1" stop-color="#0d79c9"/></linearGradient><linearGradient id="e" x1="120.22" y1="143.64" x2="272.22" y2="143.64" xlink:href="#d"/><linearGradient id="f" x1="120.22" y1="119.33" x2="272.22" y2="119.33" xlink:href="#d"/><linearGradient id="g" x1="64.31" y1="-501.86" x2="136.02" y2="-563.96" gradientTransform="matrix(0.87, 0.5, -1, 0.58, -426.56, 359.29)" gradientUnits="userSpaceOnUse"><stop offset="0" stop-color="#267fe5"/><stop offset="0.17" stop-color="#2c87e7"/><stop offset="0.44" stop-color="#3d9feb"/><stop offset="0.78" stop-color="#59c4f2"/><stop offset="1" stop-color="#6ee1f8"/></linearGradient><linearGradient id="h" x1="147.5" y1="101.67" x2="241.3" y2="101.67" gradientUnits="userSpaceOnUse"><stop offset="0" stop-color="#6de0f6"/><stop offset="0.16" stop-color="#68d8f5"/><stop offset="0.41" stop-color="#5ac0f1"/><stop offset="0.73" stop-color="#439bea"/><stop offset="1" stop-color="#2c75e4"/></linearGradient><linearGradient id="i" x1="205.33" y1="245.49" x2="357.34" y2="245.49" xlink:href="#d"/><linearGradient id="j" x1="205.33" y1="221.18" x2="357.34" y2="221.18" xlink:href="#d"/><linearGradient id="k" x1="205.33" y1="196.86" x2="357.34" y2="196.86" xlink:href="#d"/><linearGradient id="l" x1="205.33" y1="172.55" x2="357.34" y2="172.55" xlink:href="#d"/><linearGradient id="m" x1="166.68" y1="-498.33" x2="238.38" y2="-560.42" xlink:href="#g"/><linearGradient id="n" x1="232.61" y1="154.9" x2="326.41" y2="154.9" xlink:href="#h"/><linearGradient id="o" x1="34.61" y1="241.13" x2="186.61" y2="241.13" xlink:href="#d"/><linearGradient id="p" x1="34.61" y1="216.82" x2="186.61" y2="216.82" xlink:href="#d"/><linearGradient id="q" x1="34.61" y1="192.5" x2="186.61" y2="192.5" xlink:href="#d"/><linearGradient id="r" x1="34.61" y1="168.19" x2="186.61" y2="168.19" xlink:href="#d"/><linearGradient id="s" x1="63.75" y1="-416.74" x2="135.45" y2="-478.84" xlink:href="#g"/><linearGradient id="t" x1="61.89" y1="150.54" x2="155.69" y2="150.54" xlink:href="#h"/><linearGradient id="u" x1="119.72" y1="294.35" x2="271.73" y2="294.35" xlink:href="#d"/><linearGradient id="v" x1="119.72" y1="270.04" x2="271.73" y2="270.04" xlink:href="#d"/><linearGradient id="w" x1="119.72" y1="245.73" x2="271.73" y2="245.73" xlink:href="#d"/><linearGradient id="x" x1="119.72" y1="221.41" x2="271.73" y2="221.41" xlink:href="#d"/><linearGradient id="y" x1="166.11" y1="-413.21" x2="237.81" y2="-475.3" xlink:href="#g"/><linearGradient id="z" x1="147.18" y1="203.76" x2="240.62" y2="203.76" xlink:href="#h"/><linearGradient id="aa" x1="76.25" y1="-512.2" x2="124.57" y2="-554.04" xlink:href="#g"/><linearGradient id="ab" x1="184.85" y1="-422.96" x2="221.15" y2="-467.55" xlink:href="#g"/></defs><title>parspack-germany-vps</title><path class="a" d="M203.3,71.7c62.9,40.1,135,58.2,135,58.2s79.3,12,50.1,102.4-32.9,122.7-78.7,125c-43.4,1.2-67.7-16.7-110.6-13.6-37.7,2.9-63.7,19.9-126.7-4.9C-28.5,294.2-21-69.9,203.3,71.7Z"/><g class="b"><path class="c" d="M187.6,261.9l-53-30.6c-3.8-2.2-3.3-6,1-8.5l50.9-29.4c4.4-2.5,11-2.8,14.7-.6l53,30.6c3.8,2.2,3.3,6-1,8.5l-50.9,29.4C197.9,263.8,191.3,264.1,187.6,261.9Z"/></g><path class="c" d="M187.6,247.7l-53-30.6c-3.8-2.2-3.3-6,1-8.5l50.9-29.4c4.4-2.5,11-2.8,14.7-.6l53.1,30.6c3.7,2.2,3.3,6-1.1,8.5l-50.9,29.4C197.9,249.6,191.4,249.9,187.6,247.7Z"/><g class="d"><path class="e" d="M256.8,174.6H230.5l-29.3-16.9c-3.7-2.2-10.3-1.9-14.7.6l-28.2,16.3H132v17.7h0c-.1,1.4.7,2.9,2.6,3.9l53,30.6c3.7,2.2,10.3,1.9,14.7-.6l50.9-29.4c2.2-1.3,3.4-2.9,3.6-4.5h0Z"/><path class="f" d="M133.7,193.5h0V175.8H160l28.2-16.3c4.3-2.5,10.9-2.7,14.7-.6l29.3,16.9h24.6v-1.2H230.5l-29.3-16.9c-3.7-2.2-10.3-1.9-14.7.6l-28.2,16.3H132v17.7h0c-.1,1.4.7,2.9,2.6,3.9l.3.2A3.6,3.6,0,0,1,133.7,193.5Z"/><path class="g" d="M187.6,209.2l-53-30.6c-3.8-2.2-3.3-6,1-8.5l50.9-29.4c4.4-2.5,11-2.8,14.7-.6l53,30.6c3.8,2.2,3.3,6-1,8.5l-50.9,29.4C197.9,211.1,191.3,211.3,187.6,209.2Z"/><path class="h" d="M254.2,170.7l-53-30.6a13.3,13.3,0,0,0-7.4-1.5,12.2,12.2,0,0,1,5.3,1.5l53.1,30.6c3.7,2.2,3.3,6-1.1,8.5l-50.9,29.4a16.2,16.2,0,0,1-7.3,2,17.8,17.8,0,0,0,9.4-2l50.9-29.4C257.5,176.7,258,172.9,254.2,170.7Z"/><path class="i" d="M194.1,201.9a9.7,9.7,0,0,1-5-1.2l-39.5-22.8a3.7,3.7,0,0,1-2.1-3.1c0-1.5,1.1-2.9,2.9-4L188.3,149c3.4-2,8.5-2.2,11.4-.5l39.5,22.8a3.8,3.8,0,0,1,2.1,3.1c0,1.5-1.1,2.9-2.9,4l-37.9,21.9A13.8,13.8,0,0,1,194.1,201.9Zm.6-53.7a13.2,13.2,0,0,0-5.9,1.5l-37.9,21.9c-1.6.9-2.5,2.1-2.5,3.2a3,3,0,0,0,1.7,2.4l39.4,22.7c2.7,1.6,7.4,1.4,10.5-.4l37.9-21.9c1.6-.9,2.5-2,2.5-3.2a2.7,2.7,0,0,0-1.7-2.3l-39.4-22.8A9.8,9.8,0,0,0,194.7,148.2Z"/><path class="f" d="M190,209.2l-53.1-30.6c-3.7-2.2-3.3-6,1.1-8.5l50.9-29.4a17.2,17.2,0,0,1,7.2-2.1,17.4,17.4,0,0,0-9.6,2.1l-50.9,29.4c-4.3,2.5-4.8,6.3-1,8.5l53,30.6a13.8,13.8,0,0,0,7.5,1.4A11.7,11.7,0,0,1,190,209.2Z"/></g><g class="j"><path class="k" d="M256.8,150.3H230.5l-29.3-16.9c-3.7-2.2-10.3-1.9-14.7.6l-28.2,16.3H132V168h0c-.1,1.4.7,2.8,2.6,3.9l53,30.6c3.7,2.2,10.3,1.9,14.7-.6l50.9-29.4c2.2-1.3,3.4-3,3.6-4.5h0Z"/><path class="f" d="M133.7,169.2h0V151.5H160l28.2-16.3c4.3-2.5,10.9-2.8,14.7-.6l29.3,16.9h24.6v-1.2H230.5l-29.3-16.9c-3.7-2.2-10.3-1.9-14.7.6l-28.2,16.3H132V168h0c-.1,1.4.7,2.8,2.6,3.9l.3.2A3.6,3.6,0,0,1,133.7,169.2Z"/><path class="l" d="M187.6,184.9l-53-30.7c-3.8-2.1-3.3-5.9,1-8.4l50.9-29.4c4.4-2.6,11-2.8,14.7-.6l53,30.6c3.8,2.1,3.3,5.9-1,8.5l-50.9,29.3C197.9,186.8,191.3,187,187.6,184.9Z"/><path class="h" d="M254.2,146.4l-53-30.6a13.3,13.3,0,0,0-7.4-1.5,11,11,0,0,1,5.3,1.5l53.1,30.6c3.7,2.1,3.3,5.9-1.1,8.5l-50.9,29.3a16.3,16.3,0,0,1-7.3,2.1,16.9,16.9,0,0,0,9.4-2.1l50.9-29.3C257.5,152.3,258,148.5,254.2,146.4Z"/><path class="i" d="M194.1,177.6a9.7,9.7,0,0,1-5-1.2l-39.5-22.8a3.8,3.8,0,0,1-2.1-3.1c0-1.5,1.1-2.9,2.9-4l37.9-21.9c3.4-1.9,8.5-2.1,11.4-.4L239.2,147a3.8,3.8,0,0,1,2.1,3.1c0,1.5-1.1,2.9-2.9,4L200.5,176A13.8,13.8,0,0,1,194.1,177.6Zm-4.6-2c2.7,1.6,7.4,1.4,10.5-.4l37.9-21.9c1.6-.9,2.5-2.1,2.5-3.2a2.7,2.7,0,0,0-1.7-2.3L199.3,125c-2.7-1.6-7.4-1.4-10.5.4l-37.9,21.9c-1.6.9-2.5,2.1-2.5,3.2a2.7,2.7,0,0,0,1.7,2.3Z"/><path class="m" d="M190,184.9l-53.1-30.7c-3.7-2.1-3.3-5.9,1.1-8.4l50.9-29.4a17.2,17.2,0,0,1,7.2-2.1,17.4,17.4,0,0,0-9.6,2.1l-50.9,29.4c-4.3,2.5-4.8,6.3-1,8.4l53,30.7a13.8,13.8,0,0,0,7.5,1.4A13.2,13.2,0,0,1,190,184.9Z"/></g><g class="n"><path class="o" d="M256.8,126H230.5l-29.3-16.9c-3.7-2.2-10.3-1.9-14.7.6L158.3,126H132v17.6h0c-.1,1.5.7,2.9,2.6,4l53,30.6c3.7,2.2,10.3,1.9,14.7-.6l50.9-29.4c2.2-1.3,3.4-3,3.6-4.6h0Z"/><path class="f" d="M133.7,144.9h0V127.2H160l28.2-16.3c4.3-2.5,10.9-2.8,14.7-.6l29.3,16.9h24.6V126H230.5l-29.3-16.9c-3.7-2.2-10.3-1.9-14.7.6L158.3,126H132v17.6h0c-.1,1.5.7,2.9,2.6,4l.3.2A3.6,3.6,0,0,1,133.7,144.9Z"/><path class="l" d="M187.6,160.5l-53-30.6c-3.8-2.1-3.3-5.9,1-8.5L186.5,92c4.4-2.5,11-2.7,14.7-.6l53,30.6c3.8,2.2,3.3,6-1,8.5l-50.9,29.4C197.9,162.4,191.3,162.7,187.6,160.5Z"/><path class="h" d="M254.2,122l-53-30.6a13.3,13.3,0,0,0-7.4-1.4,12.2,12.2,0,0,1,5.3,1.4L252.2,122c3.7,2.2,3.3,6-1.1,8.5l-50.9,29.4a17.7,17.7,0,0,1-7.3,2.1,16.9,16.9,0,0,0,9.4-2.1l50.9-29.4C257.5,128,258,124.2,254.2,122Z"/><path class="i" d="M194.1,153.2a9.7,9.7,0,0,1-5-1.1l-39.5-22.8a3.8,3.8,0,0,1-2.1-3.1c0-1.5,1.1-2.9,2.9-4l37.9-21.9c3.4-1.9,8.5-2.1,11.4-.4l39.5,22.8a3.8,3.8,0,0,1,2.1,3.1c0,1.5-1.1,2.9-2.9,4l-37.9,21.8A12.7,12.7,0,0,1,194.1,153.2Zm-4.6-1.9c2.7,1.6,7.4,1.4,10.5-.4L237.9,129c1.6-.9,2.5-2.1,2.5-3.2a3,3,0,0,0-1.7-2.4l-39.4-22.7c-2.7-1.6-7.4-1.4-10.5.4L150.9,123c-1.6.9-2.5,2.1-2.5,3.2a2.7,2.7,0,0,0,1.7,2.3Z"/><path class="m" d="M190,160.5l-53.1-30.6c-3.7-2.1-3.3-5.9,1.1-8.5L188.9,92a18.8,18.8,0,0,1,7.2-2,18.3,18.3,0,0,0-9.6,2l-50.9,29.4c-4.3,2.6-4.8,6.4-1,8.5l53,30.6a13.9,13.9,0,0,0,7.5,1.5A11.7,11.7,0,0,1,190,160.5Z"/></g><path class="p" d="M256.8,101.7H230.5L201.2,84.8c-3.7-2.2-10.3-1.9-14.7.6l-28.2,16.3H132v17.6h0c-.1,1.5.7,2.9,2.6,4l53,30.6c3.7,2.2,10.3,1.9,14.7-.6l50.9-29.4c2.2-1.3,3.4-3,3.6-4.6h0Z"/><path class="m" d="M133.7,120.5h0V102.9H160l28.2-16.3c4.3-2.5,10.9-2.8,14.7-.6l29.3,16.9h24.6v-1.2H230.5L201.2,84.8c-3.7-2.2-10.3-1.9-14.7.6l-28.2,16.3H132v17.6h0c-.1,1.5.7,2.9,2.6,4h.3A3.4,3.4,0,0,1,133.7,120.5Z"/><path class="q" d="M187.6,136.2l-53-30.6c-3.8-2.2-3.3-6,1-8.5l50.9-29.4c4.4-2.5,11-2.8,14.7-.6l53,30.6c3.8,2.2,3.3,6-1,8.5l-50.9,29.4C197.9,138.1,191.3,138.4,187.6,136.2Z"/><path class="h" d="M254.2,97.7l-53-30.6a13.3,13.3,0,0,0-7.4-1.4,12.2,12.2,0,0,1,5.3,1.4l53.1,30.6c3.7,2.2,3.3,6-1.1,8.5l-50.9,29.4a17.7,17.7,0,0,1-7.3,2.1,17.8,17.8,0,0,0,9.4-2.1l50.9-29.4C257.5,103.7,258,99.9,254.2,97.7Z"/><path class="r" d="M194.1,128.9a9.7,9.7,0,0,1-5-1.1L149.6,105a3.8,3.8,0,0,1-2.1-3.1c0-1.5,1.1-2.9,2.9-4L188.3,76c3.4-1.9,8.5-2.1,11.4-.4l39.5,22.7a4,4,0,0,1,2.1,3.2c0,1.4-1.1,2.9-2.9,4l-37.9,21.8A12.7,12.7,0,0,1,194.1,128.9Zm-4.6-1.9c2.7,1.5,7.4,1.3,10.5-.4l37.9-21.9c1.6-.9,2.5-2.1,2.5-3.2a3,3,0,0,0-1.7-2.4L199.3,76.3c-2.7-1.5-7.4-1.3-10.5.5L150.9,98.7c-1.6.9-2.5,2-2.5,3.2a2.7,2.7,0,0,0,1.7,2.3Z"/><path class="s" d="M190,136.2l-53.1-30.6c-3.7-2.2-3.3-6,1.1-8.5l50.9-29.4a17.2,17.2,0,0,1,7.2-2,18.3,18.3,0,0,0-9.6,2L135.6,97.1c-4.3,2.5-4.8,6.3-1,8.5l53,30.6a13,13,0,0,0,7.5,1.4A11.7,11.7,0,0,1,190,136.2Z"/><g class="d"><path class="t" d="M341.9,227.8H315.6l-29.3-16.9c-3.7-2.1-10.3-1.9-14.7.7l-28.2,16.2H217.1v17.7h0c-.1,1.5.8,2.9,2.6,3.9l53,30.6c3.8,2.2,10.3,1.9,14.7-.6L338.3,250c2.3-1.3,3.5-2.9,3.6-4.5h0Z"/><path class="f" d="M218.8,246.7h0V229.1h26.3l28.2-16.3c4.3-2.5,10.9-2.8,14.7-.6l29.3,16.9h24.6v-1.3H315.6l-29.3-16.9c-3.7-2.1-10.3-1.9-14.7.7l-28.2,16.2H217.1v17.7h0c-.1,1.5.8,2.9,2.6,3.9l.3.2A3.6,3.6,0,0,1,218.8,246.7Z"/><path class="l" d="M272.7,262.4l-53-30.6c-3.8-2.2-3.3-6,1-8.5l50.9-29.4c4.4-2.5,11-2.8,14.7-.6l53.1,30.6c3.7,2.2,3.2,6-1.1,8.5l-50.9,29.4C283,264.3,276.5,264.6,272.7,262.4Z"/><path class="h" d="M339.4,223.9l-53.1-30.6a13.3,13.3,0,0,0-7.4-1.4,11.7,11.7,0,0,1,5.4,1.4l53,30.6c3.7,2.2,3.3,6-1.1,8.5l-50.9,29.4a16.2,16.2,0,0,1-7.3,2,17.8,17.8,0,0,0,9.4-2l50.9-29.4C342.6,229.9,343.1,226.1,339.4,223.9Z"/><path class="i" d="M279.2,255.1a10.9,10.9,0,0,1-5-1.1l-39.5-22.8a3.8,3.8,0,0,1-2.1-3.2c0-1.4,1.1-2.9,2.9-3.9l37.9-21.9c3.4-2,8.5-2.2,11.4-.5l39.5,22.8a3.6,3.6,0,0,1,2.1,3.2c0,1.4-1,2.9-2.9,3.9l-37.9,21.9A12.7,12.7,0,0,1,279.2,255.1Zm.6-53.6a12,12,0,0,0-5.9,1.5L236,224.8c-1.6.9-2.5,2.1-2.5,3.2a2.9,2.9,0,0,0,1.7,2.4l39.5,22.8c2.6,1.5,7.3,1.3,10.5-.5l37.9-21.9c1.5-.9,2.4-2,2.4-3.1a2.9,2.9,0,0,0-1.7-2.4l-39.4-22.8A9.5,9.5,0,0,0,279.8,201.5Z"/><path class="m" d="M275.1,262.4,222,231.8c-3.7-2.2-3.2-6,1.1-8.5L274,193.9a15.8,15.8,0,0,1,7.2-2,16.7,16.7,0,0,0-9.6,2l-50.9,29.4c-4.3,2.5-4.8,6.3-1,8.5l53,30.6a13.8,13.8,0,0,0,7.5,1.4A11.7,11.7,0,0,1,275.1,262.4Z"/></g><g class="j"><path class="u" d="M341.9,203.5H315.6l-29.3-16.9c-3.7-2.1-10.3-1.9-14.7.6l-28.2,16.3H217.1v17.7h0c-.1,1.4.8,2.9,2.6,3.9l53,30.6c3.8,2.2,10.3,1.9,14.7-.6l50.9-29.4c2.3-1.3,3.5-2.9,3.6-4.5h0Z"/><path class="f" d="M218.8,222.4h0V204.7h26.3l28.2-16.2c4.3-2.6,10.9-2.8,14.7-.7l29.3,16.9h24.6v-1.2H315.6l-29.3-16.9c-3.7-2.1-10.3-1.9-14.7.6l-28.2,16.3H217.1v17.7h0c-.1,1.4.8,2.9,2.6,3.9l.3.2A3.6,3.6,0,0,1,218.8,222.4Z"/><path class="l" d="M272.7,238.1l-53-30.6c-3.8-2.2-3.3-6,1-8.5l50.9-29.4c4.4-2.5,11-2.8,14.7-.6l53.1,30.6c3.7,2.2,3.2,6-1.1,8.5l-50.9,29.4C283,240,276.5,240.3,272.7,238.1Z"/><path class="h" d="M339.4,199.6,286.3,169a13.3,13.3,0,0,0-7.4-1.5,13.1,13.1,0,0,1,5.4,1.5l53,30.6c3.7,2.2,3.3,6-1.1,8.5l-50.9,29.4a16.2,16.2,0,0,1-7.3,2,17.8,17.8,0,0,0,9.4-2l50.9-29.4C342.6,205.6,343.1,201.8,339.4,199.6Z"/><path class="i" d="M279.2,230.8a9.7,9.7,0,0,1-5-1.2l-39.5-22.7a4,4,0,0,1-2.1-3.2c0-1.4,1.1-2.9,2.9-4l37.9-21.8c3.4-2,8.5-2.2,11.4-.5l39.5,22.8a3.6,3.6,0,0,1,2.1,3.1c0,1.5-1,2.9-2.9,4l-37.9,21.9A13.8,13.8,0,0,1,279.2,230.8Zm-4.5-1.9c2.6,1.5,7.3,1.3,10.5-.5l37.9-21.9c1.5-.9,2.4-2,2.4-3.2a2.7,2.7,0,0,0-1.7-2.3l-39.4-22.8c-2.7-1.5-7.4-1.3-10.5.4L236,200.5c-1.6.9-2.5,2.1-2.5,3.2a3,3,0,0,0,1.7,2.4Z"/><path class="m" d="M275.1,238.1,222,207.5c-3.7-2.2-3.2-6,1.1-8.5L274,169.6a17.2,17.2,0,0,1,7.2-2.1,17.6,17.6,0,0,0-9.6,2.1L220.7,199c-4.3,2.5-4.8,6.3-1,8.5l53,30.6a13.8,13.8,0,0,0,7.5,1.4A11.7,11.7,0,0,1,275.1,238.1Z"/></g><g class="n"><path class="v" d="M341.9,179.2H315.6l-29.3-16.9c-3.7-2.2-10.3-1.9-14.7.6l-28.2,16.3H217.1v17.7h0c-.1,1.4.8,2.9,2.6,3.9l53,30.6c3.8,2.2,10.3,1.9,14.7-.6l50.9-29.4c2.3-1.3,3.5-2.9,3.6-4.5h0Z"/><path class="f" d="M218.8,198.1h0V180.4h26.3l28.2-16.3c4.3-2.5,10.9-2.7,14.7-.6l29.3,16.9h24.6v-1.2H315.6l-29.3-16.9c-3.7-2.2-10.3-1.9-14.7.6l-28.2,16.3H217.1v17.7h0c-.1,1.4.8,2.9,2.6,3.9l.3.2A3.6,3.6,0,0,1,218.8,198.1Z"/><path class="l" d="M272.7,213.8l-53-30.6c-3.8-2.2-3.3-6,1-8.5l50.9-29.4c4.4-2.5,11-2.8,14.7-.6l53.1,30.6c3.7,2.1,3.2,5.9-1.1,8.5l-50.9,29.4C283,215.7,276.5,215.9,272.7,213.8Z"/><path class="h" d="M339.4,175.3l-53.1-30.6a13.3,13.3,0,0,0-7.4-1.5,11.7,11.7,0,0,1,5.4,1.5l53,30.6c3.7,2.1,3.3,5.9-1.1,8.5l-50.9,29.4a17.6,17.6,0,0,1-7.3,2,17.8,17.8,0,0,0,9.4-2l50.9-29.4C342.6,181.2,343.1,177.4,339.4,175.3Z"/><path class="i" d="M279.2,206.5a9.7,9.7,0,0,1-5-1.2l-39.5-22.8a3.8,3.8,0,0,1-2.1-3.1c0-1.5,1.1-2.9,2.9-4l37.9-21.8c3.4-2,8.5-2.2,11.4-.5l39.5,22.8a3.6,3.6,0,0,1,2.1,3.1c0,1.5-1,2.9-2.9,4l-37.9,21.9A13.8,13.8,0,0,1,279.2,206.5Zm-4.5-2c2.6,1.6,7.3,1.4,10.5-.4l37.9-21.9c1.5-.9,2.4-2.1,2.4-3.2a2.7,2.7,0,0,0-1.7-2.3l-39.4-22.8c-2.7-1.6-7.4-1.4-10.5.4L236,176.2c-1.6.9-2.5,2.1-2.5,3.2a3,3,0,0,0,1.7,2.4Z"/><path class="m" d="M275.1,213.8,222,183.2c-3.7-2.2-3.2-6,1.1-8.5L274,145.3a17.2,17.2,0,0,1,7.2-2.1,17.6,17.6,0,0,0-9.6,2.1l-50.9,29.4c-4.3,2.5-4.8,6.3-1,8.5l53,30.6a13.8,13.8,0,0,0,7.5,1.4A13.2,13.2,0,0,1,275.1,213.8Z"/></g><path class="w" d="M341.9,154.9H315.6L286.3,138c-3.7-2.2-10.3-1.9-14.7.6l-28.2,16.3H217.1v17.6h0c-.1,1.5.8,2.9,2.6,4l53,30.6c3.8,2.2,10.3,1.9,14.7-.6l50.9-29.4c2.3-1.3,3.5-3,3.6-4.6h0Z"/><path class="m" d="M218.8,173.8h0V156.1h26.3l28.2-16.3c4.3-2.5,10.9-2.8,14.7-.6l29.3,16.9h24.6v-1.2H315.6L286.3,138c-3.7-2.2-10.3-1.9-14.7.6l-28.2,16.3H217.1v17.6h0c-.1,1.5.8,2.9,2.6,4l.3.2A3.6,3.6,0,0,1,218.8,173.8Z"/><path class="x" d="M272.7,189.4l-53-30.6c-3.8-2.1-3.3-5.9,1-8.5L271.6,121c4.4-2.6,11-2.8,14.7-.7L339.4,151c3.7,2.1,3.2,5.9-1.1,8.4l-50.9,29.4C283,191.3,276.5,191.6,272.7,189.4Z"/><path class="h" d="M339.4,151l-53.1-30.7a14.2,14.2,0,0,0-7.4-1.4,13,13,0,0,1,5.4,1.4l53,30.7c3.7,2.1,3.3,5.9-1.1,8.4l-50.9,29.4a17.7,17.7,0,0,1-7.3,2.1,16.9,16.9,0,0,0,9.4-2.1l50.9-29.4C342.6,156.9,343.1,153.1,339.4,151Z"/><path class="y" d="M279.2,182.2a9.7,9.7,0,0,1-5-1.2l-39.5-22.8a3.8,3.8,0,0,1-2.1-3.1c0-1.5,1.1-2.9,2.9-4l37.9-21.9c3.4-1.9,8.5-2.1,11.4-.4l39.5,22.8a3.6,3.6,0,0,1,2.1,3.1c0,1.5-1,2.9-2.9,4l-37.9,21.9A13.8,13.8,0,0,1,279.2,182.2Zm-4.5-2c2.6,1.6,7.3,1.4,10.5-.4l37.9-21.9c1.5-.9,2.4-2.1,2.4-3.2a2.7,2.7,0,0,0-1.7-2.3l-39.4-22.8c-2.7-1.6-7.4-1.4-10.5.4L236,151.9c-1.6.9-2.5,2.1-2.5,3.2a2.7,2.7,0,0,0,1.7,2.3Z"/><path class="s" d="M275.1,189.4,222,158.8c-3.7-2.1-3.2-5.9,1.1-8.5L274,121a17.2,17.2,0,0,1,7.2-2.1,17.6,17.6,0,0,0-9.6,2.1l-50.9,29.3c-4.3,2.6-4.8,6.4-1,8.5l53,30.6a13,13,0,0,0,7.5,1.5A11.7,11.7,0,0,1,275.1,189.4Z"/><path class="z" d="M288.9,199.3l44.9-26a1.6,1.6,0,0,0,.7-1.4v-2.1c0-.6-.3-.8-.7-.6l-44.9,26a1.6,1.6,0,0,0-.7,1.4v2.1C288.2,199.3,288.5,199.5,288.9,199.3Z"/><path class="aa" d="M332.8,172.8a1.9,1.9,0,0,0,.7-1.4v-2l.3-.2c.4-.2.7,0,.7.6v2.1a1.6,1.6,0,0,1-.7,1.4l-44.9,26c-.4.2-.7,0-.7-.6h0Z"/><g class="d"><path class="ab" d="M171.2,223.5H144.9l-29.3-16.9c-3.8-2.2-10.3-1.9-14.7.6L72.7,223.5H46.4v17.6h0c-.1,1.5.7,2.9,2.5,4L102,275.7c3.7,2.2,10.3,1.9,14.7-.6l50.9-29.4c2.2-1.3,3.4-3,3.6-4.6h0Z"/><path class="m" d="M48.1,242.3h0V224.7H74.4l28.2-16.3c4.3-2.5,10.9-2.8,14.7-.6l29.2,16.9h24.7v-1.2H144.9l-29.3-16.9c-3.8-2.2-10.3-1.9-14.7.6L72.7,223.5H46.4v17.6h0c-.1,1.5.7,2.9,2.5,4h.3A3.6,3.6,0,0,1,48.1,242.3Z"/><path class="l" d="M102,258,48.9,227.4c-3.7-2.2-3.3-6,1.1-8.5l50.9-29.4c4.4-2.5,10.9-2.7,14.7-.6l53,30.6c3.8,2.2,3.3,6-1,8.5l-50.9,29.4C112.3,259.9,105.7,260.2,102,258Z"/><path class="h" d="M168.6,219.5l-53-30.6a13.3,13.3,0,0,0-7.4-1.4,12.2,12.2,0,0,1,5.3,1.4l53.1,30.6c3.7,2.2,3.3,6-1.1,8.5l-50.9,29.4a17.7,17.7,0,0,1-7.3,2.1,16.9,16.9,0,0,0,9.4-2.1L167.6,228C171.9,225.5,172.4,221.7,168.6,219.5Z"/><path class="i" d="M108.5,250.7a9.7,9.7,0,0,1-5-1.1L64,226.8a3.6,3.6,0,0,1-2.1-3.1c0-1.5,1-2.9,2.9-4l37.9-21.9c3.4-1.9,8.5-2.1,11.4-.4l39.5,22.8a3.7,3.7,0,0,1,2.1,3.1c0,1.4-1.1,2.9-2.9,4l-37.9,21.8A12.7,12.7,0,0,1,108.5,250.7Zm-4.6-1.9c2.7,1.6,7.4,1.4,10.5-.4l37.9-21.9c1.6-.9,2.5-2.1,2.5-3.2a3,3,0,0,0-1.7-2.4l-39.5-22.7c-2.6-1.6-7.3-1.4-10.5.4L65.2,220.5c-1.5.9-2.4,2-2.4,3.2a2.7,2.7,0,0,0,1.7,2.3Z"/><path class="m" d="M104.3,258l-53-30.6c-3.7-2.2-3.3-6,1.1-8.5l50.9-29.4a16.8,16.8,0,0,1,7.2-2,18.3,18.3,0,0,0-9.6,2L50,218.9c-4.4,2.5-4.8,6.3-1.1,8.5L102,258c1.9,1.2,4.7,1.6,7.5,1.5A14.3,14.3,0,0,1,104.3,258Z"/></g><g class="j"><path class="ac" d="M171.2,199.2H144.9l-29.3-16.9c-3.8-2.2-10.3-1.9-14.7.6L72.7,199.2H46.4v17.6h0c-.1,1.5.7,2.9,2.5,4L102,251.4c3.7,2.1,10.3,1.9,14.7-.6l50.9-29.4c2.2-1.3,3.4-3,3.6-4.6h0Z"/><path class="m" d="M48.1,218h0V200.4H74.4l28.2-16.3c4.3-2.5,10.9-2.8,14.7-.6l29.2,16.9h24.7v-1.2H144.9l-29.3-16.9c-3.8-2.2-10.3-1.9-14.7.6L72.7,199.2H46.4v17.6h0c-.1,1.5.7,2.9,2.5,4h.3A3.6,3.6,0,0,1,48.1,218Z"/><path class="l" d="M102,233.7,48.9,203.1c-3.7-2.2-3.3-6,1.1-8.5l50.9-29.4c4.4-2.5,10.9-2.8,14.7-.6l53,30.6c3.8,2.2,3.3,6-1,8.5l-50.9,29.4C112.3,235.6,105.7,235.9,102,233.7Z"/><path class="h" d="M168.6,195.2l-53-30.6a13.3,13.3,0,0,0-7.4-1.4,12.2,12.2,0,0,1,5.3,1.4l53.1,30.6c3.7,2.2,3.3,6-1.1,8.5l-50.9,29.4a16.2,16.2,0,0,1-7.3,2,17.8,17.8,0,0,0,9.4-2l50.9-29.4C171.9,201.2,172.4,197.4,168.6,195.2Z"/><path class="i" d="M108.5,226.4a10.9,10.9,0,0,1-5-1.1L64,202.5a3.6,3.6,0,0,1-2.1-3.1c0-1.5,1-2.9,2.9-4l37.9-21.9c3.4-1.9,8.5-2.1,11.4-.4l39.5,22.7a3.8,3.8,0,0,1,2.1,3.2c0,1.4-1.1,2.9-2.9,3.9l-37.9,21.9A12.7,12.7,0,0,1,108.5,226.4Zm.6-53.6a12.4,12.4,0,0,0-6,1.5L65.2,196.2c-1.5.9-2.4,2-2.4,3.2a2.9,2.9,0,0,0,1.7,2.3l39.4,22.8c2.7,1.5,7.4,1.3,10.5-.5l37.9-21.8c1.6-.9,2.5-2.1,2.5-3.2a2.9,2.9,0,0,0-1.7-2.4l-39.5-22.8A9.1,9.1,0,0,0,109.1,172.8Z"/><path class="m" d="M104.3,233.7l-53-30.6c-3.7-2.2-3.3-6,1.1-8.5l50.9-29.4a16.8,16.8,0,0,1,7.2-2,18.3,18.3,0,0,0-9.6,2L50,194.6c-4.4,2.5-4.8,6.3-1.1,8.5L102,233.7a12.8,12.8,0,0,0,7.5,1.4A12.5,12.5,0,0,1,104.3,233.7Z"/></g><g class="n"><path class="ad" d="M171.2,174.9H144.9L115.6,158c-3.8-2.2-10.3-1.9-14.7.6L72.7,174.9H46.4v17.6h0c-.1,1.5.7,2.9,2.5,3.9L102,227.1c3.7,2.1,10.3,1.9,14.7-.7l50.9-29.3c2.2-1.4,3.4-3,3.6-4.6h0Z"/><path class="m" d="M48.1,193.7h0V176.1H74.4l28.2-16.3c4.3-2.5,10.9-2.8,14.7-.6l29.2,16.9h24.7v-1.2H144.9L115.6,158c-3.8-2.2-10.3-1.9-14.7.6L72.7,174.9H46.4v17.6h0c-.1,1.5.7,2.9,2.5,3.9l.3.2A3.8,3.8,0,0,1,48.1,193.7Z"/><path class="l" d="M102,209.4,48.9,178.8c-3.7-2.2-3.3-6,1.1-8.5l50.9-29.4c4.4-2.5,10.9-2.8,14.7-.6l53,30.6c3.8,2.2,3.3,6-1,8.5l-50.9,29.4C112.3,211.3,105.7,211.6,102,209.4Z"/><path class="h" d="M168.6,170.9l-53-30.6a13.3,13.3,0,0,0-7.4-1.4,12.2,12.2,0,0,1,5.3,1.4l53.1,30.6c3.7,2.2,3.3,6-1.1,8.5l-50.9,29.4a16.2,16.2,0,0,1-7.3,2,17.8,17.8,0,0,0,9.4-2l50.9-29.4C171.9,176.9,172.4,173.1,168.6,170.9Z"/><path class="i" d="M108.5,202.1a10.9,10.9,0,0,1-5-1.1L64,178.2a3.6,3.6,0,0,1-2.1-3.2c0-1.4,1-2.9,2.9-3.9l37.9-21.9c3.4-1.9,8.5-2.2,11.4-.5l39.5,22.8a3.8,3.8,0,0,1,2.1,3.2c0,1.4-1.1,2.9-2.9,3.9l-37.9,21.9A12.7,12.7,0,0,1,108.5,202.1Zm.6-53.6a12.4,12.4,0,0,0-6,1.5L65.2,171.9c-1.5.9-2.4,2-2.4,3.1a2.9,2.9,0,0,0,1.7,2.4l39.4,22.8c2.7,1.5,7.4,1.3,10.5-.5l37.9-21.9c1.6-.9,2.5-2,2.5-3.1a2.9,2.9,0,0,0-1.7-2.4l-39.5-22.8A9.1,9.1,0,0,0,109.1,148.5Z"/><path class="m" d="M104.3,209.4l-53-30.6c-3.7-2.2-3.3-6,1.1-8.5l50.9-29.4a15.5,15.5,0,0,1,7.2-2,16.5,16.5,0,0,0-9.6,2L50,170.3c-4.4,2.5-4.8,6.3-1.1,8.5L102,209.4a13.7,13.7,0,0,0,7.5,1.4A12.5,12.5,0,0,1,104.3,209.4Z"/></g><path class="ae" d="M171.2,150.5H144.9l-29.3-16.9c-3.8-2.1-10.3-1.9-14.7.6L72.7,150.5H46.4v17.7h0c-.1,1.5.7,2.9,2.5,3.9L102,202.7c3.7,2.2,10.3,1.9,14.7-.6l50.9-29.4c2.2-1.3,3.4-2.9,3.6-4.5h0Z"/><path class="m" d="M48.1,169.4h0V151.8H74.4l28.2-16.3c4.3-2.5,10.9-2.8,14.7-.6l29.2,16.9h24.7v-1.3H144.9l-29.3-16.9c-3.8-2.1-10.3-1.9-14.7.6L72.7,150.5H46.4v17.7h0c-.1,1.5.7,2.9,2.5,3.9l.3.2A3.8,3.8,0,0,1,48.1,169.4Z"/><path class="af" d="M102,185.1,48.9,154.5c-3.7-2.2-3.3-6,1.1-8.5l50.9-29.4c4.4-2.5,10.9-2.8,14.7-.6l53,30.6c3.8,2.2,3.3,6-1,8.5l-50.9,29.4C112.3,187,105.7,187.3,102,185.1Z"/><path class="h" d="M168.6,146.6l-53-30.6a13.3,13.3,0,0,0-7.4-1.4,11,11,0,0,1,5.3,1.4l53.1,30.6c3.7,2.2,3.3,6-1.1,8.5l-50.9,29.4a16.2,16.2,0,0,1-7.3,2,17.8,17.8,0,0,0,9.4-2l50.9-29.4C171.9,152.6,172.4,148.8,168.6,146.6Z"/><path class="ag" d="M108.5,177.8a10.9,10.9,0,0,1-5-1.1L64,153.9a3.6,3.6,0,0,1-2.1-3.2c0-1.4,1-2.9,2.9-3.9l37.9-21.9c3.4-2,8.5-2.2,11.4-.5l39.5,22.8a3.8,3.8,0,0,1,2.1,3.2c0,1.4-1.1,2.9-2.9,3.9l-37.9,21.9A12.7,12.7,0,0,1,108.5,177.8Zm-4.6-1.9c2.7,1.5,7.4,1.3,10.5-.5l37.9-21.9c1.6-.9,2.5-2,2.5-3.1a2.9,2.9,0,0,0-1.7-2.4l-39.5-22.8c-2.6-1.5-7.3-1.3-10.5.5L65.2,147.5c-1.5.9-2.4,2.1-2.4,3.2a2.9,2.9,0,0,0,1.7,2.4Z"/><path class="s" d="M104.3,185.1l-53-30.6c-3.7-2.2-3.3-6,1.1-8.5l50.9-29.4a15.5,15.5,0,0,1,7.2-2,16.5,16.5,0,0,0-9.6,2L50,146c-4.4,2.5-4.8,6.3-1.1,8.5L102,185.1a13.7,13.7,0,0,0,7.5,1.4A12.5,12.5,0,0,1,104.3,185.1Z"/><path class="z" d="M99.6,194.9,54.8,169a2,2,0,0,1-.8-1.4v-2.2c0-.5.4-.8.8-.5l44.8,25.9a1.8,1.8,0,0,1,.8,1.4v2.2C100.4,194.9,100,195.2,99.6,194.9Z"/><path class="aa" d="M55.7,168.4A1.7,1.7,0,0,1,55,167v-2h-.2c-.4-.3-.8,0-.8.5v2.2a2,2,0,0,0,.8,1.4l44.8,25.9c.4.3.8,0,.8-.5v-.2Z"/><g class="d"><path class="ah" d="M256.3,276.7H230l-29.3-16.9c-3.7-2.2-10.3-1.9-14.7.6l-28.2,16.3H131.5v17.7h0c-.1,1.4.7,2.8,2.6,3.9l53,30.6c3.7,2.2,10.3,1.9,14.7-.6l50.9-29.4c2.2-1.3,3.5-3,3.6-4.5h0Z"/><path class="m" d="M133.2,295.6h0V277.9h26.3l28.2-16.3c4.3-2.5,10.9-2.8,14.7-.6l29.3,16.9h24.6v-1.2H230l-29.3-16.9c-3.7-2.2-10.3-1.9-14.7.6l-28.2,16.3H131.5v17.7h0c-.1,1.4.7,2.8,2.6,3.9l.3.2A3.6,3.6,0,0,1,133.2,295.6Z"/><path class="l" d="M187.1,311.3l-53-30.7c-3.8-2.1-3.3-5.9,1-8.4L186,242.8c4.4-2.5,11-2.8,14.7-.6l53,30.6c3.8,2.1,3.3,5.9-1,8.5l-50.9,29.3C197.4,313.2,190.8,313.4,187.1,311.3Z"/><path class="h" d="M253.7,272.8l-53-30.6a13.3,13.3,0,0,0-7.4-1.5,11.7,11.7,0,0,1,5.4,1.5l53,30.6c3.7,2.1,3.3,5.9-1.1,8.5l-50.9,29.3a16.3,16.3,0,0,1-7.3,2.1,16.9,16.9,0,0,0,9.4-2.1l50.9-29.3C257,278.7,257.5,274.9,253.7,272.8Z"/><path class="i" d="M193.6,304a9.7,9.7,0,0,1-5-1.2L149.1,280a3.8,3.8,0,0,1-2.1-3.1c0-1.5,1.1-2.9,2.9-4L187.8,251c3.4-1.9,8.5-2.1,11.4-.4l39.5,22.8a3.8,3.8,0,0,1,2.1,3.1c0,1.5-1.1,2.9-2.9,4L200,302.4A13.8,13.8,0,0,1,193.6,304Zm-4.6-2c2.7,1.6,7.4,1.4,10.5-.4l37.9-21.9c1.6-.9,2.5-2.1,2.5-3.2a2.7,2.7,0,0,0-1.7-2.3l-39.4-22.8c-2.7-1.6-7.4-1.4-10.5.4l-37.9,21.9c-1.6.9-2.5,2.1-2.5,3.2a2.7,2.7,0,0,0,1.7,2.3Z"/><path class="m" d="M189.5,311.3l-53.1-30.7c-3.7-2.1-3.3-5.9,1.1-8.4l50.9-29.4a17.2,17.2,0,0,1,7.2-2.1,17.4,17.4,0,0,0-9.6,2.1l-50.9,29.4c-4.3,2.5-4.8,6.3-1,8.4l53,30.7a13.8,13.8,0,0,0,7.5,1.4A13.2,13.2,0,0,1,189.5,311.3Z"/></g><g class="j"><path class="ai" d="M256.3,252.4H230l-29.3-16.9c-3.7-2.2-10.3-1.9-14.7.6l-28.2,16.3H131.5V270h0c-.1,1.5.7,2.9,2.6,4l53,30.6c3.7,2.2,10.3,1.9,14.7-.6l50.9-29.4c2.2-1.3,3.5-3,3.6-4.6h0Z"/><path class="m" d="M133.2,271.3h0V253.6h26.3l28.2-16.3c4.3-2.5,10.9-2.8,14.7-.6l29.3,16.9h24.6v-1.2H230l-29.3-16.9c-3.7-2.2-10.3-1.9-14.7.6l-28.2,16.3H131.5V270h0c-.1,1.5.7,2.9,2.6,4l.3.2A3.6,3.6,0,0,1,133.2,271.3Z"/><path class="l" d="M187.1,286.9l-53-30.6c-3.8-2.1-3.3-5.9,1-8.5L186,218.4c4.4-2.5,11-2.7,14.7-.6l53,30.6c3.8,2.2,3.3,6-1,8.5l-50.9,29.4C197.4,288.8,190.8,289.1,187.1,286.9Z"/><path class="h" d="M253.7,248.4l-53-30.6a13.3,13.3,0,0,0-7.4-1.4,13,13,0,0,1,5.4,1.4l53,30.6c3.7,2.2,3.3,6-1.1,8.5l-50.9,29.4a17.7,17.7,0,0,1-7.3,2.1,16.9,16.9,0,0,0,9.4-2.1l50.9-29.4C257,254.4,257.5,250.6,253.7,248.4Z"/><path class="i" d="M193.6,279.6a9.7,9.7,0,0,1-5-1.1l-39.5-22.8a3.8,3.8,0,0,1-2.1-3.1c0-1.5,1.1-2.9,2.9-4l37.9-21.9c3.4-1.9,8.5-2.1,11.4-.4l39.5,22.8a3.8,3.8,0,0,1,2.1,3.1c0,1.5-1.1,2.9-2.9,4L200,278A12.7,12.7,0,0,1,193.6,279.6Zm.6-53.6a12,12,0,0,0-5.9,1.5l-37.9,21.9c-1.6.9-2.5,2.1-2.5,3.2a2.7,2.7,0,0,0,1.7,2.3L189,277.7c2.7,1.6,7.4,1.4,10.5-.4l37.9-21.9c1.6-.9,2.5-2.1,2.5-3.2a3,3,0,0,0-1.7-2.4l-39.4-22.7A9.8,9.8,0,0,0,194.2,226Z"/><path class="m" d="M189.5,286.9l-53.1-30.6c-3.7-2.1-3.3-5.9,1.1-8.5l50.9-29.4a18.8,18.8,0,0,1,7.2-2,18.3,18.3,0,0,0-9.6,2l-50.9,29.4c-4.3,2.6-4.8,6.4-1,8.5l53,30.6a13.9,13.9,0,0,0,7.5,1.5A11.7,11.7,0,0,1,189.5,286.9Z"/></g><g class="n"><path class="aj" d="M256.3,228.1H230l-29.3-16.9c-3.7-2.2-10.3-1.9-14.7.6l-28.2,16.3H131.5v17.6h0c-.1,1.5.7,2.9,2.6,4l53,30.6c3.7,2.2,10.3,1.9,14.7-.6l50.9-29.4c2.2-1.3,3.5-3,3.6-4.6h0Z"/><path class="m" d="M133.2,246.9h0V229.3h26.3L187.7,213c4.3-2.5,10.9-2.8,14.7-.6l29.3,16.9h24.6v-1.2H230l-29.3-16.9c-3.7-2.2-10.3-1.9-14.7.6l-28.2,16.3H131.5v17.6h0c-.1,1.5.7,2.9,2.6,4h.3A3.4,3.4,0,0,1,133.2,246.9Z"/><path class="l" d="M187.1,262.6l-53-30.6c-3.8-2.2-3.3-6,1-8.5L186,194.1c4.4-2.5,11-2.8,14.7-.6l53,30.6c3.8,2.2,3.3,6-1,8.5L201.8,262C197.4,264.5,190.8,264.8,187.1,262.6Z"/><path class="h" d="M253.7,224.1l-53-30.6a13.3,13.3,0,0,0-7.4-1.4,13,13,0,0,1,5.4,1.4l53,30.6c3.7,2.2,3.3,6-1.1,8.5L199.7,262a17.7,17.7,0,0,1-7.3,2.1,17.8,17.8,0,0,0,9.4-2.1l50.9-29.4C257,230.1,257.5,226.3,253.7,224.1Z"/><path class="i" d="M193.6,255.3a9.7,9.7,0,0,1-5-1.1l-39.5-22.8a3.8,3.8,0,0,1-2.1-3.1c0-1.5,1.1-2.9,2.9-4l37.9-21.9c3.4-1.9,8.5-2.1,11.4-.4l39.5,22.7a4,4,0,0,1,2.1,3.2c0,1.4-1.1,2.9-2.9,4L200,253.7A12.7,12.7,0,0,1,193.6,255.3Zm.6-53.6a12,12,0,0,0-5.9,1.5l-37.9,21.9c-1.6.9-2.5,2-2.5,3.2a2.7,2.7,0,0,0,1.7,2.3L189,253.4c2.7,1.6,7.4,1.3,10.5-.4l37.9-21.9c1.6-.9,2.5-2.1,2.5-3.2a3,3,0,0,0-1.7-2.4l-39.4-22.8A9.7,9.7,0,0,0,194.2,201.7Z"/><path class="m" d="M189.5,262.6,136.4,232c-3.7-2.2-3.3-6,1.1-8.5l50.9-29.4a17.2,17.2,0,0,1,7.2-2,18.3,18.3,0,0,0-9.6,2l-50.9,29.4c-4.3,2.5-4.8,6.3-1,8.5l53,30.6a13.9,13.9,0,0,0,7.5,1.5A13.3,13.3,0,0,1,189.5,262.6Z"/></g><path class="ak" d="M256.3,203.8H230l-29.3-16.9c-3.7-2.2-10.3-1.9-14.7.6l-28.2,16.3H131.5v17.6h0c-.1,1.5.7,2.9,2.6,4l53,30.6c3.7,2.1,10.3,1.9,14.7-.6L252.7,226c2.2-1.3,3.5-3,3.6-4.6h0Z"/><path class="m" d="M133.2,222.6h0V205h26.3l28.2-16.3c4.3-2.5,10.9-2.8,14.7-.6L231.7,205h24.6v-1.2H230l-29.3-16.9c-3.7-2.2-10.3-1.9-14.7.6l-28.2,16.3H131.5v17.6h0c-.1,1.5.7,2.9,2.6,4h.3A3.4,3.4,0,0,1,133.2,222.6Z"/><path class="al" d="M187.1,238.3l-53-30.6c-3.8-2.2-3.3-6,1-8.5L186,169.8c4.4-2.5,11-2.8,14.7-.6l53,30.6c3.8,2.2,3.3,6-1,8.5l-50.9,29.4C197.4,240.2,190.8,240.5,187.1,238.3Z"/><path class="h" d="M253.7,199.8l-53-30.6a13.3,13.3,0,0,0-7.4-1.4,13,13,0,0,1,5.4,1.4l53,30.6c3.7,2.2,3.3,6-1.1,8.5l-50.9,29.4a16.2,16.2,0,0,1-7.3,2,17.8,17.8,0,0,0,9.4-2l50.9-29.4C257,205.8,257.5,202,253.7,199.8Z"/><path class="am" d="M193.6,230.8a9.4,9.4,0,0,1-4.9-1.1l-39.5-22.8a3.4,3.4,0,0,1-2-3c0-1.3,1-2.7,2.8-3.8l37.9-21.8c3.3-2,8.3-2.2,11.2-.5l39.5,22.8a3.4,3.4,0,0,1,2,3c0,1.4-1,2.8-2.8,3.8l-37.9,21.9A13.3,13.3,0,0,1,193.6,230.8Zm.6-53.6a12.1,12.1,0,0,0-6,1.5l-37.9,21.9c-1.6.9-2.6,2.2-2.6,3.3a3.3,3.3,0,0,0,1.8,2.6L189,229.2c2.7,1.6,7.5,1.4,10.6-.4l37.9-21.9c1.6-.9,2.6-2.1,2.6-3.3a3,3,0,0,0-1.8-2.5l-39.5-22.8A9.2,9.2,0,0,0,194.2,177.2Z"/><path class="s" d="M189.5,238.3l-53.1-30.6c-3.7-2.2-3.3-6,1.1-8.5l50.9-29.4a15.8,15.8,0,0,1,7.2-2,18.3,18.3,0,0,0-9.6,2l-50.9,29.4c-4.3,2.5-4.8,6.3-1,8.5l53,30.6a13,13,0,0,0,7.5,1.4A11.7,11.7,0,0,1,189.5,238.3Z"/><path class="z" d="M203.3,248.1l44.8-25.9a1.6,1.6,0,0,0,.8-1.4v-2.1c0-.6-.3-.8-.8-.6L203.3,244a2,2,0,0,0-.7,1.5v2.1C202.6,248.1,202.9,248.4,203.3,248.1Z"/><path class="aa" d="M247.2,221.6a1.6,1.6,0,0,0,.7-1.4v-2h.2c.5-.2.8,0,.8.6v2.1a1.6,1.6,0,0,1-.8,1.4l-44.8,25.9c-.4.3-.7,0-.7-.5v-.2Z"/><path class="z" d="M184.8,248.1,140,222.2a1.8,1.8,0,0,1-.8-1.4v-2.1c0-.6.4-.8.8-.6L184.8,244a2,2,0,0,1,.8,1.5v2.1C185.6,248.1,185.2,248.4,184.8,248.1Z"/><path class="aa" d="M141,221.6a1.7,1.7,0,0,1-.8-1.4v-2H140c-.4-.2-.8,0-.8.6v2.1a1.8,1.8,0,0,0,.8,1.4l44.8,25.9c.4.3.8,0,.8-.5v-.2Z"/><path class="l" d="M187.6,136.2l-53-30.6c-3.8-2.2-3.3-6,1-8.5l50.9-29.4c4.4-2.5,11-2.8,14.7-.6l53,30.6c3.8,2.2,3.3,6-1,8.5l-50.9,29.4C197.9,138.1,191.3,138.4,187.6,136.2Z"/><path class="an" d="M189.8,125l-35.7-20.7c-2.6-1.4-2.2-4,.7-5.7l34.3-19.8c2.9-1.7,7.4-1.9,9.9-.4L234.7,99c2.6,1.5,2.2,4-.7,5.7l-34.3,19.8C196.8,126.2,192.3,126.4,189.8,125Z"/><path class="l" d="M272.7,189.4l-53-30.6c-3.8-2.1-3.3-5.9,1-8.5L271.6,121c4.4-2.6,11-2.8,14.7-.7L339.4,151c3.7,2.1,3.2,5.9-1.1,8.4l-50.9,29.4C283,191.3,276.5,191.6,272.7,189.4Z"/><path class="l" d="M102,185.1,48.9,154.5c-3.7-2.2-3.3-6,1.1-8.5l50.9-29.4c4.4-2.5,10.9-2.8,14.7-.6l53,30.6c3.8,2.2,3.3,6-1,8.5l-50.9,29.4C112.3,187,105.7,187.3,102,185.1Z"/><path class="l" d="M187.1,238.3l-53-30.6c-3.8-2.2-3.3-6,1-8.5L186,169.8c4.4-2.5,11-2.8,14.7-.6l53,30.6c3.8,2.2,3.3,6-1,8.5l-50.9,29.4C197.4,240.2,190.8,240.5,187.1,238.3Z"/><path class="ao" d="M189.8,224.3l-31.5-18.2c-2.2-1.3-2-3.6.6-5l30.3-17.5c2.6-1.5,6.5-1.7,8.8-.4l31.5,18.2c2.2,1.3,2,3.6-.6,5.1l-30.3,17.4C196,225.4,192.1,225.6,189.8,224.3Z"/><polygon class="z" points="279.6 133.1 277.1 131.6 279.6 130.1 282.1 131.6 279.6 133.1"/><polygon class="ap" points="284.6 136 282.1 134.5 284.6 133.1 287.1 134.5 284.6 136"/><polygon class="aq" points="289.7 138.9 287.1 137.4 289.7 136 292.2 137.4 289.7 138.9"/><polygon class="z" points="294.7 141.8 292.2 140.3 294.7 138.9 297.2 140.3 294.7 141.8"/><polygon class="aq" points="299.7 144.7 297.2 143.2 299.7 141.8 302.2 143.2 299.7 144.7"/><polygon class="z" points="304.8 147.6 302.2 146.1 304.8 144.7 307.3 146.1 304.8 147.6"/><polygon class="z" points="309.8 150.5 307.3 149 309.8 147.6 312.3 149 309.8 150.5"/><polygon class="z" points="314.8 153.4 312.3 151.9 314.8 150.5 317.4 151.9 314.8 153.4"/><polygon class="ap" points="319.9 156.3 317.4 154.8 319.9 153.4 322.4 154.8 319.9 156.3"/><polygon class="z" points="274.5 136 272 134.5 274.5 133.1 277.1 134.5 274.5 136"/><polygon class="z" points="279.6 138.9 277.1 137.4 279.6 136 282.1 137.4 279.6 138.9"/><polygon class="z" points="284.6 141.8 282.1 140.3 284.6 138.9 287.1 140.3 284.6 141.8"/><polygon class="z" points="289.6 144.7 287.1 143.2 289.6 141.8 292.2 143.2 289.6 144.7"/><polygon class="z" points="294.7 147.6 292.2 146.1 294.7 144.7 297.2 146.1 294.7 147.6"/><polygon class="z" points="299.7 150.5 297.2 149 299.7 147.6 302.2 149 299.7 150.5"/><polygon class="z" points="304.7 153.4 302.2 152 304.7 150.5 307.3 152 304.7 153.4"/><polygon class="z" points="309.8 156.3 307.3 154.9 309.8 153.4 312.3 154.9 309.8 156.3"/><polygon class="z" points="314.8 159.2 312.3 157.8 314.8 156.3 317.3 157.8 314.8 159.2"/><polygon class="z" points="269.5 138.9 267 137.4 269.5 136 272 137.4 269.5 138.9"/><polygon class="z" points="274.5 141.8 272 140.3 274.5 138.9 277 140.3 274.5 141.8"/><polygon class="z" points="279.6 144.7 277 143.2 279.6 141.8 282.1 143.2 279.6 144.7"/><polygon class="ap" points="284.6 147.6 282.1 146.2 284.6 144.7 287.1 146.2 284.6 147.6"/><polygon class="aq" points="289.6 150.5 287.1 149.1 289.6 147.6 292.1 149.1 289.6 150.5"/><polygon class="aq" points="294.7 153.4 292.1 152 294.7 150.5 297.2 152 294.7 153.4"/><polygon class="z" points="299.7 156.3 297.2 154.9 299.7 153.4 302.2 154.9 299.7 156.3"/><polygon class="z" points="304.7 159.2 302.2 157.8 304.7 156.3 307.2 157.8 304.7 159.2"/><polygon class="z" points="309.8 162.1 307.2 160.7 309.8 159.2 312.3 160.7 309.8 162.1"/><polygon class="aq" points="264.4 141.8 261.9 140.4 264.4 138.9 266.9 140.4 264.4 141.8"/><polygon class="aq" points="269.5 144.7 266.9 143.3 269.5 141.8 272 143.3 269.5 144.7"/><polygon class="ap" points="274.5 147.6 272 146.2 274.5 144.7 277 146.2 274.5 147.6"/><polygon class="z" points="279.5 150.5 277 149.1 279.5 147.6 282 149.1 279.5 150.5"/><polygon class="z" points="284.6 153.4 282 152 284.6 150.5 287.1 152 284.6 153.4"/><polygon class="z" points="289.6 156.3 287.1 154.9 289.6 153.4 292.1 154.9 289.6 156.3"/><polygon class="aq" points="294.6 159.2 292.1 157.8 294.6 156.3 297.2 157.8 294.6 159.2"/><polygon class="z" points="299.7 162.2 297.2 160.7 299.7 159.2 302.2 160.7 299.7 162.2"/><polygon class="z" points="304.7 165.1 302.2 163.6 304.7 162.2 307.2 163.6 304.7 165.1"/><polygon class="z" points="259.4 144.7 256.9 143.3 259.4 141.8 261.9 143.3 259.4 144.7"/><polygon class="z" points="264.4 147.6 261.9 146.2 264.4 144.7 266.9 146.2 264.4 147.6"/><polygon class="z" points="269.4 150.5 266.9 149.1 269.4 147.6 272 149.1 269.4 150.5"/><polygon class="z" points="274.5 153.4 272 152 274.5 150.5 277 152 274.5 153.4"/><polygon class="z" points="279.5 156.3 277 154.9 279.5 153.4 282 154.9 279.5 156.3"/><polygon class="z" points="284.5 159.3 282 157.8 284.5 156.4 287.1 157.8 284.5 159.3"/><polygon class="z" points="289.6 162.2 287.1 160.7 289.6 159.3 292.1 160.7 289.6 162.2"/><polygon class="z" points="294.6 165.1 292.1 163.6 294.6 162.2 297.1 163.6 294.6 165.1"/><polygon class="z" points="299.6 168 297.1 166.5 299.6 165.1 302.2 166.5 299.6 168"/><polygon class="z" points="254.3 147.6 251.8 146.2 254.3 144.7 256.8 146.2 254.3 147.6"/><polygon class="z" points="259.4 150.5 256.8 149.1 259.4 147.6 261.9 149.1 259.4 150.5"/><polygon class="aq" points="264.4 153.5 261.9 152 264.4 150.5 266.9 152 264.4 153.5"/><polygon class="z" points="269.4 156.4 266.9 154.9 269.4 153.5 271.9 154.9 269.4 156.4"/><polygon class="ap" points="274.5 159.3 271.9 157.8 274.5 156.4 277 157.8 274.5 159.3"/><polygon class="z" points="279.5 162.2 277 160.7 279.5 159.3 282 160.7 279.5 162.2"/><polygon class="z" points="284.5 165.1 282 163.6 284.5 162.2 287 163.6 284.5 165.1"/><polygon class="z" points="289.6 168 287 166.5 289.6 165.1 292.1 166.5 289.6 168"/><polygon class="z" points="294.6 170.9 292.1 169.4 294.6 168 297.1 169.4 294.6 170.9"/><polygon class="z" points="249.3 150.6 246.7 149.1 249.3 147.7 251.8 149.1 249.3 150.6"/><polygon class="z" points="254.3 153.5 251.8 152 254.3 150.6 256.8 152 254.3 153.5"/><polygon class="aq" points="259.3 156.4 256.8 154.9 259.3 153.5 261.9 154.9 259.3 156.4"/><polygon class="z" points="264.4 159.3 261.9 157.8 264.4 156.4 266.9 157.8 264.4 159.3"/><polygon class="z" points="269.4 162.2 266.9 160.7 269.4 159.3 271.9 160.7 269.4 162.2"/><polygon class="ap" points="274.4 165.1 271.9 163.6 274.4 162.2 277 163.6 274.4 165.1"/><polygon class="aq" points="279.5 168 277 166.5 279.5 165.1 282 166.5 279.5 168"/><polygon class="z" points="284.5 170.9 282 169.5 284.5 168 287 169.5 284.5 170.9"/><polygon class="ap" points="289.5 173.8 287 172.4 289.5 170.9 292.1 172.4 289.5 173.8"/><polygon class="z" points="244.2 153.5 241.7 152 244.2 150.6 246.7 152 244.2 153.5"/><polygon class="aq" points="249.2 156.4 246.7 154.9 249.2 153.5 251.8 154.9 249.2 156.4"/><polygon class="z" points="254.3 159.3 251.8 157.8 254.3 156.4 256.8 157.8 254.3 159.3"/><polygon class="z" points="259.3 162.2 256.8 160.7 259.3 159.3 261.8 160.7 259.3 162.2"/><polygon class="z" points="264.3 165.1 261.8 163.7 264.3 162.2 266.9 163.7 264.3 165.1"/><polygon class="z" points="269.4 168 266.9 166.6 269.4 165.1 271.9 166.6 269.4 168"/><polygon class="z" points="274.4 170.9 271.9 169.5 274.4 168 276.9 169.5 274.4 170.9"/><polygon class="aq" points="279.4 173.8 276.9 172.4 279.4 170.9 282 172.4 279.4 173.8"/><polygon class="z" points="284.5 176.7 282 175.3 284.5 173.8 287 175.3 284.5 176.7"/><polygon class="z" points="239.2 156.4 236.6 154.9 239.2 153.5 241.7 154.9 239.2 156.4"/><polygon class="ap" points="244.2 159.3 241.7 157.9 244.2 156.4 246.7 157.9 244.2 159.3"/><polygon class="z" points="249.2 162.2 246.7 160.8 249.2 159.3 251.7 160.8 249.2 162.2"/><polygon class="z" points="254.3 165.1 251.7 163.7 254.3 162.2 256.8 163.7 254.3 165.1"/><polygon class="z" points="259.3 168 256.8 166.6 259.3 165.1 261.8 166.6 259.3 168"/><polygon class="z" points="264.3 170.9 261.8 169.5 264.3 168 266.8 169.5 264.3 170.9"/><polygon class="aq" points="269.4 173.8 266.8 172.4 269.4 170.9 271.9 172.4 269.4 173.8"/><polygon class="z" points="274.4 176.7 271.9 175.3 274.4 173.8 276.9 175.3 274.4 176.7"/><polygon class="z" points="279.4 179.7 276.9 178.2 279.4 176.7 281.9 178.2 279.4 179.7"/><path class="i" d="M279.2,182.2a9.4,9.4,0,0,1-4.9-1.1l-40-23.1a3.4,3.4,0,0,1-2-2.9c0-1.4,1-2.8,2.8-3.8l38.4-22.2c3.3-1.9,8.4-2.1,11.3-.4l39.9,23.1a3.5,3.5,0,0,1,2.1,2.9c0,1.4-1.1,2.8-2.9,3.8l-38.3,22.2A14,14,0,0,1,279.2,182.2Zm.6-54.3a11.6,11.6,0,0,0-6.1,1.6l-38.4,22.1c-1.7,1-2.7,2.2-2.7,3.5a3.2,3.2,0,0,0,1.9,2.6l40,23.1c2.7,1.6,7.6,1.4,10.9-.5l38.4-22.1c1.6-1,2.6-2.3,2.6-3.5a3.3,3.3,0,0,0-1.8-2.6l-40-23.1A10.3,10.3,0,0,0,279.8,127.9Z"/><path class="ar" d="M125.3,139c10.7,5.6,12,14.8,1.5,20.4s-29.8,5-40.1-2-7.6-15.2,3.1-19.8S115.3,133.8,125.3,139Z"/><path class="as" d="M120,139.9l-15.8-.7-.4,6.6h0l-13.1-.5-1.3,9,13.8.7h0l17.5.8-.4-9.2h0ZM107.2,141l9.7.3v5.1l-10-.4Zm-13.4,6.2,9.9.4-.4,5.5-10.2-.5Zm23.3,6.5-10.3-.5.2-5.5,10,.5Z"/><path d="M209.9,83.8,162,110.1l-8.2-5c-3.8-2.3-3.5-6.1.7-8.4L187,79c4.1-2.2,10.6-2.2,14.6.1Z"/><polygon class="at" points="225.7 92.8 177.5 119.5 162 110.1 209.9 83.8 225.7 92.8"/><path class="au" d="M234.3,106.2l-33.1,18.6c-4.3,2.4-11.1,2.3-15.2-.1l-8.5-5.2,48.2-26.7,8.6,4.8C238.5,100,238.5,103.8,234.3,106.2Z"/></svg>