<svg xmlns="http://www.w3.org/2000/svg" xmlns:xlink="http://www.w3.org/1999/xlink" viewBox="0 0 400 400"><defs><style>.a{font-size:39.99px;font-family:AdobeArabic-Regular, Adobe Arabic;}.a,.l{fill:#fff;}.b{fill:#74818e;}.c{fill:#fda080;}.d{fill:#f4907c;}.e,.h{fill:#37b5e8;}.e,.g{opacity:0.2;}.f,.m{fill:gray;}.ae,.f{opacity:0.4;}.i{fill:#e5e5e5;}.j{fill:#666;}.k{fill:#cbcbcb;}.n{fill:#a5b4c2;}.o{fill:#ffe7cb;}.p{fill:#c4ccd7;}.q{fill:#647889;}.r{fill:#f8fbfc;}.s{fill:#d4d2d1;}.t{fill:#fdf5ea;}.u{fill:#288ed9;}.v{fill:#f59b6b;}.w{fill:#ea8f68;}.x{fill:#0e71bb;}.y{fill:#2283bf;}.z{fill:#e28166;}.aa{fill:#f16a44;}.ab{fill:#93603d;}.ac{fill:#a4704c;}.ad{fill:#28aae1;}.ae{fill:#606060;}.af{fill:#d1ebff;}.ag{fill-rule:evenodd;opacity:0.61;fill:url(#a);}</style><linearGradient id="a" x1="233.37" y1="172.94" x2="252.76" y2="172.94" gradientUnits="userSpaceOnUse"><stop offset="0" stop-color="#288ed9"/><stop offset="1" stop-color="#137fcf" stop-opacity="0.05"/></linearGradient></defs><title>parspack-foreigndedicatedserver</title><text class="a" transform="translate(-6.5 -39.7)"> کپ سراپ جراخ یصاصتخا روس ایازم*</text><path class="b" d="M308.4,380.9a5.6,5.6,0,0,1-.3-11.2,59.6,59.6,0,0,0,15.7-4.2,68,68,0,0,0,29.5-23.1,5.6,5.6,0,1,1,9,6.6c-21.6,29.6-52.2,31.8-53.5,31.9Z"/><path class="b" d="M90.1,279.5a5.7,5.7,0,0,1,5.3-5.6,5.6,5.6,0,0,1,6,5.2,56.2,56.2,0,0,0,4.1,15.8,67.2,67.2,0,0,0,23.2,29.4,5.7,5.7,0,0,1-6.7,9.1c-29.6-21.7-31.8-52.3-31.9-53.5Z"/><path class="b" d="M257.7,57.6a5.6,5.6,0,0,1,.6,7.7,5.7,5.7,0,0,1-7.9.9,54.3,54.3,0,0,0-14.5-7.4,66.7,66.7,0,0,0-37.3-2.5,5.6,5.6,0,0,1-6.7-4.4,5.7,5.7,0,0,1,4.4-6.7c35.9-7.4,60.1,11.4,61.1,12.2Z"/><polygon class="c" points="118.8 274.8 151.3 257.8 163.5 289.9 131.4 301.2 118.8 274.8"/><path class="d" d="M129.3,273.4s10.2-2.1,14.5,0,8.1,15,8.1,15l21.3,1.5-19.3-36.3-20,9.5Z"/><path class="e" d="M136.4,153.1a32.4,32.4,0,0,0-16.7,42.8l55,125.3a32.5,32.5,0,0,0,42.8,16.7l119.1-52.3a68.7,68.7,0,0,0,41-62.8V152.2c0-49.5-50.9-82.7-96.2-62.8Z"/><circle class="f" cx="333.6" cy="241.9" r="10.9" transform="translate(21.8 511.2) rotate(-76.8)"/><circle class="f" cx="287.1" cy="113.6" r="10.9" transform="translate(110.8 367.1) rotate(-76.8)"/><circle class="f" cx="154" cy="190.1" r="10.9" transform="translate(-66.5 296.1) rotate(-76.7)"/><g class="g"><path class="h" d="M229.4,259.7,219,270.3l-43.8,38-6.9-1.6,6.4,14.5c.6,1.3,1.3,2.6,2,3.8,5.2-1.4,11.7-3.4,14.5-5.7,5-3.9,28-36.2,28-36.2s6.8-4.2,7.7-6.5,2.6-12.2,3.3-13.9S229.4,259.7,229.4,259.7Z"/><path class="h" d="M189.8,253.8c2.3-.2,4.1-3.5,4.1-3.5l3.6-1.6.5-3.7-6.1-2.6-34.2-9.8L136.4,228l-1.1,3.6,6.3,14.1,35.6,7.1S187.4,254,189.8,253.8Z"/></g><path class="e" d="M294.8,226.9l2.4,22.1,12.6,20.4L329,288.9l-79.5,34.8-4.7-38.3L240.3,265l-12.6-21.6,65.9-28.7a2.8,2.8,0,0,1,.5,1.4C294.2,216.8,294.8,226.9,294.8,226.9Z"/><rect class="i" x="241.5" y="238.5" width="66" height="45.06" rx="2.2" transform="translate(-81 130.3) rotate(-23.4)"/><rect class="j" x="245.7" y="240.8" width="52.4" height="28.02" rx="1.8" transform="translate(-78.8 128.7) rotate(-23.4)"/><rect class="k" x="274.3" y="269" width="12" height="10.59" rx="1.9" transform="translate(-85.8 133.6) rotate(-23.4)"/><path class="l" d="M291.8,214.3l-31.6,13.6-31.5,13.7a1.6,1.6,0,0,0-.6,2.6l7.7,8.2a1.2,1.2,0,0,0,1.4.3l28.4-12.3,28.5-12.3a1.4,1.4,0,0,0,.7-1.2l-.7-11.2A1.7,1.7,0,0,0,291.8,214.3Z"/><path class="m" d="M294.8,226.9l-.7-11.1a1.6,1.6,0,0,0-1.8-.3l-31.5,13.7-31.6,13.6a1.6,1.6,0,0,0-1,1.5l7.6,8.1a1.2,1.2,0,0,0,1.4.3l28.4-12.3,28.5-12.3A1.4,1.4,0,0,0,294.8,226.9Z"/><path class="n" d="M292,227.6l-.2-9.2a1.5,1.5,0,0,0-1.6-.1l-28.8,12.4-28.7,12.4a1.6,1.6,0,0,0-1,1.3l6.5,6.4a1.1,1.1,0,0,0,1.2.2l26-11.2,25.9-11.2A1.2,1.2,0,0,0,292,227.6Z"/><path class="o" d="M264,295l-2.5-12.3s2.4-7.8,2.2-9.3-2.8-10.8-2.8-10.8-1.8-.2-2.2.7,0,5.6,0,5.6a16.8,16.8,0,0,1-1.7-2.3c-.3-.7-.9-7.1-1.2-10.2a1.8,1.8,0,0,0-1.8-1.6h0a1.9,1.9,0,0,0-1.8,1.6l-.4,3.6-3.1.6-1.4,3.3-3.2,6.8,2,7.8,4.5,5.9,1,10.6Z"/><path class="o" d="M307,276.6l-8.4-9.3s-7.8-2.6-8.9-3.6-7.1-8.6-7.1-8.6.9-1.6,1.9-1.3S289,257,289,257a11.5,11.5,0,0,0-.9-2.7c-.3-.6-5.2-4.9-7.5-6.9a1.8,1.8,0,0,1-.3-2.4h0a1.7,1.7,0,0,1,2.3-.5l3.2,1.7,2.3-2.1,3.5.8,7.4,1.4,5.1,6.1,2.2,7.2,8,6.9Z"/><rect class="l" x="169" y="236.8" width="55.2" height="39.54" transform="translate(-74.7 80.8) rotate(-19.6)"/><rect class="p" x="168.5" y="237.1" width="53.8" height="36.61" transform="translate(-74.4 80.4) rotate(-19.6)"/><rect class="l" x="166.3" y="234" width="55.2" height="39.54" transform="translate(-73.9 79.8) rotate(-19.6)"/><path class="o" d="M170.5,232.6l6.4,2.8s7.5-1.6,9.9-.7,9.8,5.7,10.6,6.2a8.5,8.5,0,0,1,2,3.7c0,.5-1.6,2.9-3.3,3s-9.5.4-9.5.4a21.6,21.6,0,0,1,2.3,2.2c.3.5.4,1.8.1,2s-6.3-2.3-8-2.8-4.3-2.9-4.8-3.3l-2-2.3-7.2-2.9Z"/><path class="o" d="M211.4,285.4l4.5-5.4s7.4-2,9.1-4,1.2-5,1.6-5.9-.2-6.3.2-6.7,3.3-2.8,4.4-4.1.5-3.1-.5-2.7-12,7.7-12,7.7a17.3,17.3,0,0,0,1-3c.1-.6-.4-1.8-.8-1.8s-4.5,4.9-5.8,6.2-2.5,4.5-2.7,5.1-.8,3-.8,3l-5,5.8Z"/><rect class="q" x="208.3" y="158.1" width="52.7" height="35.37" rx="4.7" transform="translate(-43.5 83.1) rotate(-18.4)"/><path class="r" d="M261.2,186.8,220,200.5a5.9,5.9,0,0,1-7.4-3.7l-8.2-24.7a5.8,5.8,0,0,1,3.7-7.4L249.3,151a5.9,5.9,0,0,1,7.4,3.7l8.2,24.7A5.8,5.8,0,0,1,261.2,186.8Zm-50.5-20.5a3.6,3.6,0,0,0-2.2,4.5l8.2,24.6a3.5,3.5,0,0,0,4.4,2.2l39.3-13.1a3.4,3.4,0,0,0,2.2-4.4l-8.2-24.6a3.4,3.4,0,0,0-4.4-2.2Z"/><path class="s" d="M212.2,183.2a1.4,1.4,0,0,1-.9,1.9,1.6,1.6,0,0,1-1.9-1,1.5,1.5,0,0,1,1-1.8A1.4,1.4,0,0,1,212.2,183.2Z"/><polygon class="e" points="174.4 136.4 213.2 192.2 230.7 187.7 225.7 176 215.6 173.2 203.8 151.8 264.7 129.6 265.6 119.9 257.6 99.9 174.4 136.4"/><path class="t" d="M228.5,181.5l-8-3.7a1,1,0,0,0-1.2.3h-.1a1,1,0,0,0,.4,1.4l8.1,3.6a1.1,1.1,0,0,0,1.3-.4A1,1,0,0,0,228.5,181.5Z"/><path class="o" d="M211.2,129.6a17,17,0,0,1-4.6,1.2c-2.2.3-5-.9-6.9-.6s-6.5,3.6-6.5,3.6l-1.8,4.4-1.1,7.1,8,3.3s2.1,1,5.5-.8,9.4-7.1,9.4-7.1l4-2.1Z"/><path class="o" d="M216.9,170.2l5.4,1.9s2.9,3.1,3.4,3.9,0,3.4,0,3.4,2,1.9,1.8,3.7-2.9,4.3-6.5,4.4-7.5.5-8.3,0-4.9-8.7-4.9-8.7l-5.7-7.9,11.1-5.4Z"/><path class="u" d="M100.7,284.2s-1.8-18.7,2.4-24.6,27.3-46.4,29.3-48,42.8,20.9,42.8,20.9-4.6,10.8-5.1,11-30.7-10.8-30.7-10.8l-5.3,16.9,7.8-3,7.1,16s-8.4,5.2-22.5,12.2A119.9,119.9,0,0,1,100.7,284.2Z"/><path class="u" d="M116.4,314.9c-.2.5,20.3,15.6,28.3,12.9s38.7-10.4,42.9-13.4S214.9,284,214.9,284l-7.3-8.9-24.4,22-16.8,5.2-7.9-18.1S124.4,294.5,116.4,314.9Z"/><path class="v" d="M248.1,291l18.1-2.4,6.9,24.9,46.5-20.4-16.1-16,11-13.5L350.2,293s10.5,30.9,10.2,34.3-12.6,29.3-31.5,38.1-44.3-2.6-47.6-3.4-23.5-26.3-23.9-27.1S248.1,291,248.1,291Z"/><path class="v" d="M266.7,117.6c-2.3-12.4-3.4-40-5.7-43.9S251.1,61.3,240.1,57c0,0-47-4-57.8,2.6s-14.7,64.8-14.7,67.5,36.2,48.6,36.2,48.6l11.5-9-23.2-38.1L243.7,106l.9,6.4-36,16.6,7.1,12.8,46.2-16A7.3,7.3,0,0,0,266.7,117.6Z"/><polygon class="w" points="209.4 171.4 205 172.3 167.9 127.8 203.8 175.7 209.4 171.4"/><path class="w" d="M266.7,119.9a13.1,13.1,0,0,1-5.5,4.4c-3.4,1.3-43.3,13.5-43.3,13.5l-4.7-.6,2.5,4.6,46.2-16A7.2,7.2,0,0,0,266.7,119.9Z"/><path class="w" d="M192.1,128.6,199.5,74s21.3-2.2,27.2,0,14.8,6.2,14.8,6.2l2.2,25.8Z"/><path class="w" d="M185.7,63.5S197,77.3,197.2,90.8s4.6,7.9,4.6,7.9L199.5,74S193.7,66,185.7,63.5Z"/><path class="w" d="M242,85.9s-2.5-14.6,4.5-21.6A22.2,22.2,0,0,0,235,78.4C232.3,88.5,242,85.9,242,85.9Z"/><path class="o" d="M232.1,75.6c.4-.1-.3,9.9-.3,9.9l-3.3,5.1s-7.6,5.5-9.1,6.2-9.8.7-9.8.7-2.5,1.2-3.6.7-2.5-4.7-2.5-4.7-4.6-2.5-4.4-12.1,12.3-13.7,12.3-13.7Z"/><path class="o" d="M202.3,57.8s-2.8-1.1-4.5,1S199,65,199,65Z"/><path class="o" d="M240.1,76.1s2.1.6,2.1,2.3-4.1,6.1-6.9,5.8S240.1,76.1,240.1,76.1Z"/><path class="x" d="M197.7,78.4s-1.6-17.3,4.1-25.5,11.8-9.7,11.8-9.7A16.2,16.2,0,0,1,226.9,42a27.6,27.6,0,0,1,16.2,16.7c2.4,7.2-1.1,17.7-5.1,22.8a54.8,54.8,0,0,1-9.5,9.1s2.3-6.7-.4-7.1c0,0-10.7,8.1-17.9,7.7s-8.5-1.9-8.5-1.9,8.8-2.1,12.4-5.1c0,0-10.2,3-14.9,2.9l3.5-4.3-2.4,1.1A8.5,8.5,0,0,1,197.7,78.4Z"/><path class="y" d="M141.9,246.6l-7.8,3-4.8,12.2s7.6-1.1,9.4,0,2.3,2.6,3.7,4.6l6.6-3.8Z"/><path class="y" d="M158.5,284.2l-5.4,1.9c1.4,3.3,3.5,8.8,3,12.1-.7,5-7.1,8.7-7.1,8.7l17.4-4.6Z"/><path class="o" d="M295.3,334.3s-3.1-8.4,0-13.4,13.9-9.6,20.3-7.1c9.4,3.6,8.7,6.7,8.7,6.7Z"/><path class="x" d="M328.9,321.3s-6.8-7.4-16.9-5.8-12.4,3.8-12.4,3.8h2.7l-4.7,3.6s-5.6,9.1-5.4,15.5a19.3,19.3,0,0,0,3.2,10.6s1.2,6.4,4.1,9.1,10.2,5.6,15.7,5a28.5,28.5,0,0,0,10.1-3.4,12.6,12.6,0,0,0,8.1-4.5,13.5,13.5,0,0,0,3.2-8.5s3.3-4.1,3.4-6.5-1.6-8.5-1.6-8.5S336.1,321.6,328.9,321.3Z"/><path class="x" d="M131.7,277.1s-6.8-7.4-17-5.8-12.3,3.8-12.3,3.8H105l-4.7,3.6s-5.5,9.1-5.4,15.6a20.2,20.2,0,0,0,3.2,10.5s1.2,6.4,4.2,9.1,10.2,5.6,15.6,5a29.5,29.5,0,0,0,10.2-3.4,12.2,12.2,0,0,0,8-4.5,12.9,12.9,0,0,0,3.2-8.5s3.3-4.1,3.5-6.5-1.7-8.5-1.7-8.5S138.8,277.4,131.7,277.1Z"/><path class="w" d="M273.1,313.5l2.8,11.6,7.8,9.2s2.1-12.9,12.2-21.3,27.6-6.2,30.2-6.1,12.4,11.6,12.4,11.6l-5.4-14.3-13.5-11.1Z"/><path class="z" d="M357.3,334.9s-19,24.5-36.6,29.3c-15.4,4.3-34.1-.6-38.5-1.9,5.8,2,29.2,11.3,46.7,3.1C342.3,359.2,352.5,344.2,357.3,334.9Z"/><path class="t" d="M224.1,179.4l-8.9-4.1a1.1,1.1,0,0,0-1.3.3v.2a1.1,1.1,0,0,0,.4,1.6l9.1,3.9a.9.9,0,0,0,1.3-.4A1.1,1.1,0,0,0,224.1,179.4Z"/><rect class="l" x="286.1" y="168.1" width="55.2" height="39.54"/><rect class="p" x="286.1" y="168.1" width="53.8" height="36.61"/><rect class="l" x="284.4" y="164.6" width="55.2" height="39.54"/><path class="aa" d="M141.3,194.7a1.6,1.6,0,0,0,2.3.5l5.7-3.5-1.7-2.8-5.8,3.5A1.7,1.7,0,0,0,141.3,194.7Z"/><circle class="aa" cx="154.6" cy="186.5" r="10.2" transform="translate(-86.6 163.9) rotate(-45)"/><circle class="ab" cx="154.6" cy="186.5" r="8.2"/><path class="ac" d="M146.7,188.8a8.3,8.3,0,0,0,7.9,5.9,8.1,8.1,0,0,0,8.1-7.1,8.2,8.2,0,0,0-7.8-5.9A8.3,8.3,0,0,0,146.7,188.8Z"/><path class="aa" d="M297.7,99.4a1.7,1.7,0,0,0-2.3,0l-4.8,4.8,2.3,2.3,4.8-4.8A1.7,1.7,0,0,0,297.7,99.4Z"/><circle class="aa" cx="286.4" cy="110.8" r="10.2" transform="translate(112.5 363.9) rotate(-76.7)"/><circle class="ab" cx="286.4" cy="110.8" r="8.2"/><path class="ac" d="M278.5,113.1a8.2,8.2,0,0,0,16-1.2,8.3,8.3,0,0,0-7.9-5.9A8.2,8.2,0,0,0,278.5,113.1Z"/><path class="aa" d="M340.5,249.3a1.5,1.5,0,0,0,.4-2.1l-3.3-5.2-2.5,1.6,3.3,5.2A1.6,1.6,0,0,0,340.5,249.3Z"/><circle class="aa" cx="332.8" cy="236.4" r="9.3" transform="translate(26 505.7) rotate(-76.7)"/><circle class="ab" cx="332.8" cy="236.4" r="7.5"/><path class="ac" d="M325.6,238.6a7.5,7.5,0,0,0,14.6-1.1,7.5,7.5,0,0,0-14.6,1.1Z"/><path class="o" d="M145.8,284.2c-.2-.5-1.6-.7-2.9-.8-5.1-9.4-17.9-9.7-17.9-9.7s-1,4,4.5,10.6,5.4,19.9,5.4,19.9a26.3,26.3,0,0,0,5.8-4.7c2.4-2.7,4.8-6.6,3.8-11.8C145.3,286.4,146.1,284.8,145.8,284.2Z"/><path class="w" d="M269.1,292.9l-1.3-4.6a2.2,2.2,0,0,0-2.6-1.7l-16,2a2.5,2.5,0,0,0-2.1,3l1.2,4.9a2.5,2.5,0,0,0,2.8,1.9l16-2.4A2.4,2.4,0,0,0,269.1,292.9Z"/><path class="w" d="M298.1,274.6l3.7,3a2.4,2.4,0,0,0,3.2-.1l11.8-11a2.5,2.5,0,0,0-.1-3.6l-3.9-3.4a2.5,2.5,0,0,0-3.3.1L297.9,271A2.4,2.4,0,0,0,298.1,274.6Z"/><rect class="p" x="278.6" y="135.3" width="55.2" height="39.54" transform="translate(-20.1 48.5) rotate(-8.8)"/><rect class="l" x="278.2" y="134.9" width="55.2" height="39.54" transform="translate(-20 48.4) rotate(-8.8)"/><rect class="p" x="277.9" y="135" width="53.8" height="36.61" transform="translate(-19.8 48.3) rotate(-8.8)"/><rect class="l" x="276" y="131.7" width="55.2" height="39.54" transform="translate(-19.5 48.1) rotate(-8.8)"/><circle class="ad" cx="308.7" cy="150.7" r="10.4"/><path class="l" d="M310.8,158.8l3.9-5.3-4.2-3.1h0l3.1-4.2-5.3-3.9-3.1,4.2h0l-3.8,5.3,5.2,3.9h0Zm2.1-5-2.4,3.1-3.1-2.3,2.3-3.1Zm-1.1-7.3-2.4,3.1-3.1-2.3,2.3-3.2Zm-8.6,5,2.3-3.1,3.2,2.3-2.4,3.1Z"/><circle class="ad" cx="330.6" cy="185.4" r="4.1"/><path class="l" d="M331,188.7l1.8-1.8-1.5-1.5h0l1.5-1.5-1.8-1.8-1.5,1.5h0l-1.8,1.8,1.8,1.8h0Zm1.1-1.8L331,188l-1.1-1.1,1.1-1.1Zm0-3L331,185l-1.1-1,1.1-1.1Zm-3.7,1.5,1.1-1.1,1.1,1.1-1.1,1.1Z"/><path class="ae" d="M319.8,176.5v21.3a.7.7,0,0,1-.7.7.7.7,0,0,1-.6-.7V176.7Z"/><path class="ae" d="M312.5,177.5v20.3a.7.7,0,0,1-.6.7.7.7,0,0,1-.7-.7V177.7Z"/><path class="ae" d="M305.3,178.5v19.3a.7.7,0,0,1-.6.7.7.7,0,0,1-.7-.7V178.7Z"/><path class="ae" d="M298.1,179.8v18a.7.7,0,0,1-.6.7.7.7,0,0,1-.7-.7V180Z"/><circle class="af" cx="243.1" cy="173.1" r="9.7"/><path class="ag" d="M243.1,163.4a8.4,8.4,0,0,1,2.7.4,1,1,0,0,0-.1.8c.1,1-.4,2-1.6,1.7s-.9,1-2.7.8-3.2-1-3.2-2.4a9,9,0,0,1,4.9-1.3Zm4.3,1c.5,1.1.8,2.8-.9,3.7s-4.7,1.3-4.4,3.1.1,2.1-.2,2.5.2,1,1.2.7.2-.2.2,0-.6,1,0,1.7,1.7.3,2.3-.1,1.8.5,2.1,1.3,0,1.5,1.2,1.5.8-1.7.8-2.5.1-2.4,1.2-2.4.8-.5,1.3-.7h.6a9.7,9.7,0,0,0-5.4-8.7Zm-.6,14.5s.3-.4.6-.2.5.8.2.9-1.1-.4-.8-.7Zm-6,3.6c1-1.2-.1-2.3-.7-2.9s1.1-3-.9-3.1-3-1.4-1.5-1.5.9-1.1,1-1.7.7-.1,1.7-.4-.5-2.4-1.5-2.4-.6,1.5-1.2,1.3-.7-1.4.1-1.6a1,1,0,0,0,.6-1.5c-.3-.6-1.6,0-1.9-1a1.2,1.2,0,0,0-.9-.9,9.8,9.8,0,0,0-2.2,6.3v.6c1.3.9,2.7,2.9,2.5,3.9s1,2.1,1.5,2.5.4.7.5,1.2A9.3,9.3,0,0,0,240.8,182.5Z"/></svg>