<svg xmlns="http://www.w3.org/2000/svg" xmlns:xlink="http://www.w3.org/1999/xlink" viewBox="0 0 400 400"><defs><style>.a{isolation:isolate;}.b{fill:url(#a);}.c{fill:#37b5e8;opacity:0.2;}.d{fill:#ffa340;}.e{fill:#ffb96e;}.f{fill:#e0821b;}.g{fill:#ffd840;}.h{fill:#ffe066;}.i{fill:#f6d928;}.j{fill:#197bdd;}.k{fill:#d4ecff;}.l{fill:#21e2e2;}.m{fill:#e1001f;}.n{fill:#f59b6b;}.o{mix-blend-mode:multiply;}.p{fill:#4ea4f9;}.q{fill:#fff;}.r{fill:#0050af;}</style><linearGradient id="a" x1="228.22" y1="367.37" x2="171.91" y2="48.01" gradientUnits="userSpaceOnUse"><stop offset="0" stop-color="#c6e6ff"/><stop offset="1" stop-color="#fff"/></linearGradient></defs><title>price-germany-vps</title><g class="a"><path class="b" d="M130.3,319.5C79.9,340.2,56.4,294.2,36,265.2c-13.4-19.2-26.3-46-17.3-73.4C40.1,126.5,102.3,124.5,162,68.7S289.2,43.5,304.8,98.8c18.2,64.4,65.9,48.1,77.9,90.6,2.6,9.1,9.3,153.2-60.4,161.3C234,360.9,221.7,281.9,130.3,319.5Z"/><ellipse class="c" cx="97.5" cy="277.3" rx="55.5" ry="20"/><ellipse class="c" cx="202.4" cy="277.3" rx="55.5" ry="20"/><ellipse class="c" cx="303.2" cy="277.3" rx="55.5" ry="20"/><path class="d" d="M167.7,272.3c0,8.5,10.6,15.8,25.7,19V253.4C178.3,256.6,167.7,263.9,167.7,272.3Z"/><path class="d" d="M204.9,251.8v41.1l5.7.2V251.6Z"/><rect class="d" x="167.7" y="263.9" width="86.8" height="10.19"/><path class="d" d="M254.5,272.3c0-6.8-6.9-12.9-17.7-16.7v33.5C247.6,285.3,254.5,279.2,254.5,272.3Z"/><path class="e" d="M193.4,253.4v37.9a81.7,81.7,0,0,0,11.5,1.6V251.8A81.7,81.7,0,0,0,193.4,253.4Z"/><path class="e" d="M211.1,251.6h-.5v41.5h.5a79.7,79.7,0,0,0,25.7-4V255.6A79.7,79.7,0,0,0,211.1,251.6Z"/><ellipse class="f" cx="211.1" cy="266.2" rx="43.4" ry="20.8"/><ellipse class="g" cx="211.1" cy="264.6" rx="43.4" ry="20.8"/><ellipse class="h" cx="211.1" cy="264.6" rx="34.5" ry="16"/><path class="d" d="M201.2,266.1l-5.4-2.9L200,261l5.4,2.9a11.8,11.8,0,0,0,9.4,0c2.6-1.4,2.6-3.6.1-5l-5.7-3,4.2-2.2,5.7,3c4.8,2.6,4.7,6.8-.2,9.3S206,268.6,201.2,266.1Z"/><polygon class="d" points="221.6 269.7 202.4 259.5 206.6 257.3 225.9 267.5 221.6 269.7"/><polygon class="d" points="228.5 266.2 209.2 255.9 213.4 253.7 232.7 264 228.5 266.2"/><polygon class="d" points="199.8 275.5 201.7 263.4 195.8 263.2 194.3 272.6 199.8 275.5"/><path class="d" d="M167.7,259.5c0,8.4,10.6,15.7,25.7,18.9V240.5C178.3,243.7,167.7,251,167.7,259.5Z"/><path class="d" d="M204.9,238.9V280l5.7.2V238.7Z"/><rect class="d" x="167.7" y="251" width="86.8" height="10.19"/><path class="d" d="M254.5,259.5c0-6.9-6.9-13-17.7-16.8v33.5C247.6,272.4,254.5,266.3,254.5,259.5Z"/><path class="e" d="M193.4,240.5v37.9a81.7,81.7,0,0,0,11.5,1.6V238.9A81.7,81.7,0,0,0,193.4,240.5Z"/><path class="e" d="M211.1,238.7h-.5v41.5h.5a79.7,79.7,0,0,0,25.7-4V242.7A79.7,79.7,0,0,0,211.1,238.7Z"/><ellipse class="f" cx="211.1" cy="253.3" rx="43.4" ry="20.8"/><ellipse class="g" cx="211.1" cy="251.7" rx="43.4" ry="20.8"/><ellipse class="h" cx="211.1" cy="251.7" rx="34.5" ry="16"/><path class="d" d="M201.2,253.2l-5.4-2.9,4.2-2.2,5.4,2.9a11.8,11.8,0,0,0,9.4,0c2.6-1.4,2.6-3.6.1-4.9l-5.7-3,4.2-2.2,5.7,3c4.8,2.5,4.7,6.7-.2,9.3S206,255.7,201.2,253.2Z"/><polygon class="d" points="221.6 256.8 202.4 246.6 206.6 244.4 225.9 254.6 221.6 256.8"/><polygon class="d" points="228.5 253.3 209.2 243.1 213.4 240.9 232.7 251.1 228.5 253.3"/><polygon class="d" points="199.8 262.6 201.7 250.5 195.8 250.3 194.3 259.7 199.8 262.6"/><path class="d" d="M167.7,246.6c0,8.4,10.6,15.7,25.7,19v-38C178.3,230.9,167.7,238.1,167.7,246.6Z"/><path class="d" d="M204.9,226v41.1c1.9.2,3.8.2,5.7.3V225.8Z"/><rect class="d" x="167.7" y="238.1" width="86.8" height="10.19"/><path class="d" d="M254.5,246.6c0-6.9-6.9-13-17.7-16.8v33.5C247.6,259.5,254.5,253.5,254.5,246.6Z"/><path class="e" d="M193.4,227.6v38a100,100,0,0,0,11.5,1.5V226A81.7,81.7,0,0,0,193.4,227.6Z"/><path class="e" d="M211.1,225.8h-.5v41.6h.5a77,77,0,0,0,25.7-4.1V229.8A79.7,79.7,0,0,0,211.1,225.8Z"/><ellipse class="f" cx="211.1" cy="240.4" rx="43.4" ry="20.8"/><ellipse class="g" cx="211.1" cy="238.8" rx="43.4" ry="20.8"/><ellipse class="h" cx="211.1" cy="238.8" rx="34.5" ry="16"/><path class="d" d="M201.2,240.3l-5.4-2.9,4.2-2.2,5.4,2.9a11,11,0,0,0,9.4,0c2.6-1.4,2.6-3.6.1-4.9l-5.7-3,4.2-2.2,5.7,3c4.8,2.6,4.7,6.7-.2,9.3S206,242.9,201.2,240.3Z"/><polygon class="d" points="221.6 244 202.4 233.7 206.6 231.5 225.9 241.8 221.6 244"/><polygon class="d" points="228.5 240.4 209.2 230.2 213.4 228 232.7 238.2 228.5 240.4"/><polygon class="d" points="199.8 249.7 201.7 237.7 195.8 237.4 194.3 246.8 199.8 249.7"/><path class="d" d="M167.7,233.7c0,8.5,10.6,15.7,25.7,19v-38C178.3,218,167.7,225.3,167.7,233.7Z"/><path class="d" d="M204.9,213.2v41.1l5.7.2V212.9Z"/><rect class="d" x="167.7" y="225.2" width="86.8" height="10.19"/><path class="d" d="M254.5,233.7c0-6.9-6.9-13-17.7-16.7v33.4C247.6,246.7,254.5,240.6,254.5,233.7Z"/><path class="e" d="M193.4,214.7v38a81.7,81.7,0,0,0,11.5,1.6V213.2A81.9,81.9,0,0,0,193.4,214.7Z"/><path class="e" d="M211.1,212.9h-.5v41.6h.5a77,77,0,0,0,25.7-4.1V217A77,77,0,0,0,211.1,212.9Z"/><ellipse class="f" cx="211.1" cy="227.5" rx="43.4" ry="20.8"/><ellipse class="g" cx="211.1" cy="226" rx="43.4" ry="20.8"/><ellipse class="h" cx="211.1" cy="226" rx="34.5" ry="16"/><path class="d" d="M201.2,227.4l-5.4-2.8,4.2-2.2,5.4,2.8a11,11,0,0,0,9.4,0c2.6-1.3,2.6-3.5.1-4.9l-5.7-3,4.2-2.2,5.7,3c4.8,2.6,4.7,6.7-.2,9.3S206,230,201.2,227.4Z"/><polygon class="d" points="221.6 231.1 202.4 220.9 206.6 218.7 225.9 228.9 221.6 231.1"/><polygon class="d" points="228.5 227.5 209.2 217.3 213.4 215.1 232.7 225.3 228.5 227.5"/><polygon class="d" points="199.8 236.8 201.7 224.8 195.8 224.6 194.3 233.9 199.8 236.8"/><path class="d" d="M167.7,220.8c0,8.5,10.6,15.8,25.7,19V201.9C178.3,205.1,167.7,212.4,167.7,220.8Z"/><path class="d" d="M204.9,200.3v41.1l5.7.2V200.1Z"/><rect class="d" x="167.7" y="212.3" width="86.8" height="10.19"/><path class="d" d="M254.5,220.8c0-6.8-6.9-12.9-17.7-16.7v33.5C247.6,233.8,254.5,227.7,254.5,220.8Z"/><path class="e" d="M193.4,201.9v37.9a81.7,81.7,0,0,0,11.5,1.6V200.3A81.7,81.7,0,0,0,193.4,201.9Z"/><path class="e" d="M211.1,200h-.5v41.5h.5a79.7,79.7,0,0,0,25.7-4V204.1A77,77,0,0,0,211.1,200Z"/><ellipse class="f" cx="211.1" cy="214.6" rx="43.4" ry="20.8"/><ellipse class="g" cx="211.1" cy="213.1" rx="43.4" ry="20.8"/><ellipse class="h" cx="211.1" cy="213.1" rx="34.5" ry="16"/><path class="d" d="M201.2,214.5l-5.4-2.8,4.2-2.2,5.4,2.8a11,11,0,0,0,9.4,0c2.6-1.3,2.6-3.5.1-4.9l-5.7-3,4.2-2.2,5.7,3c4.8,2.6,4.7,6.8-.2,9.3S206,217.1,201.2,214.5Z"/><polygon class="d" points="221.6 218.2 202.4 208 206.6 205.8 225.9 216 221.6 218.2"/><polygon class="d" points="228.5 214.6 209.2 204.4 213.4 202.2 232.7 212.4 228.5 214.6"/><polygon class="d" points="199.8 224 201.7 211.9 195.8 211.7 194.3 221 199.8 224"/><path class="d" d="M66,272.3c0,8.5,10.6,15.8,25.7,19V253.4C76.6,256.6,66,263.9,66,272.3Z"/><path class="d" d="M103.2,251.8v41.1l5.7.2V251.6Z"/><rect class="d" x="66" y="263.9" width="86.8" height="10.19"/><path class="d" d="M152.9,272.3c0-6.8-7-12.9-17.8-16.7v33.5C145.9,285.3,152.9,279.2,152.9,272.3Z"/><path class="e" d="M91.7,253.4v37.9a81.7,81.7,0,0,0,11.5,1.6V251.8A81.7,81.7,0,0,0,91.7,253.4Z"/><path class="e" d="M109.4,251.6h-.5v41.5h.5a79.2,79.2,0,0,0,25.7-4V255.6A79.2,79.2,0,0,0,109.4,251.6Z"/><ellipse class="f" cx="109.4" cy="266.2" rx="43.4" ry="20.8"/><ellipse class="g" cx="109.4" cy="264.6" rx="43.4" ry="20.8"/><ellipse class="h" cx="109.4" cy="264.6" rx="34.5" ry="16"/><path class="d" d="M99.5,266.1l-5.4-2.9,4.2-2.2,5.4,2.9a11.8,11.8,0,0,0,9.4,0c2.6-1.4,2.6-3.6.1-5l-5.7-3,4.3-2.2,5.6,3c4.8,2.6,4.8,6.8-.2,9.3S104.3,268.6,99.5,266.1Z"/><polygon class="d" points="119.9 269.7 100.7 259.5 104.9 257.3 124.2 267.5 119.9 269.7"/><polygon class="d" points="126.8 266.2 107.5 255.9 111.8 253.7 131 264 126.8 266.2"/><polygon class="d" points="98.1 275.5 100 263.4 94.1 263.2 92.7 272.6 98.1 275.5"/><path class="d" d="M66,259.5c0,8.4,10.6,15.7,25.7,18.9V240.5C76.6,243.7,66,251,66,259.5Z"/><path class="d" d="M103.2,238.9V280l5.7.2V238.7Z"/><rect class="d" x="66" y="251" width="86.8" height="10.19"/><path class="d" d="M152.9,259.5c0-6.9-7-13-17.8-16.8v33.5C145.9,272.4,152.9,266.3,152.9,259.5Z"/><path class="e" d="M91.7,240.5v37.9a81.7,81.7,0,0,0,11.5,1.6V238.9A81.7,81.7,0,0,0,91.7,240.5Z"/><path class="e" d="M109.4,238.7h-.5v41.5h.5a79.2,79.2,0,0,0,25.7-4V242.7A79.2,79.2,0,0,0,109.4,238.7Z"/><ellipse class="f" cx="109.4" cy="253.3" rx="43.4" ry="20.8"/><ellipse class="g" cx="109.4" cy="251.7" rx="43.4" ry="20.8"/><ellipse class="h" cx="109.4" cy="251.7" rx="34.5" ry="16"/><path class="d" d="M99.5,253.2l-5.4-2.9,4.2-2.2,5.4,2.9a11.8,11.8,0,0,0,9.4,0c2.6-1.4,2.6-3.6.1-4.9l-5.7-3,4.3-2.2,5.6,3c4.8,2.5,4.8,6.7-.2,9.3S104.3,255.7,99.5,253.2Z"/><polygon class="d" points="119.9 256.8 100.7 246.6 104.9 244.4 124.2 254.6 119.9 256.8"/><polygon class="d" points="126.8 253.3 107.5 243.1 111.8 240.9 131 251.1 126.8 253.3"/><polygon class="d" points="98.1 262.6 100 250.5 94.1 250.3 92.7 259.7 98.1 262.6"/><path class="d" d="M66,246.6c0,8.4,10.6,15.7,25.7,19v-38C76.6,230.9,66,238.1,66,246.6Z"/><path class="d" d="M103.2,226v41.1c1.9.2,3.8.2,5.7.3V225.8Z"/><rect class="d" x="66" y="238.1" width="86.8" height="10.19"/><path class="d" d="M152.9,246.6c0-6.9-7-13-17.8-16.8v33.5C145.9,259.5,152.9,253.5,152.9,246.6Z"/><path class="e" d="M91.7,227.6v38a100,100,0,0,0,11.5,1.5V226A81.7,81.7,0,0,0,91.7,227.6Z"/><path class="e" d="M109.4,225.8h-.5v41.6h.5a76.5,76.5,0,0,0,25.7-4.1V229.8A79.2,79.2,0,0,0,109.4,225.8Z"/><ellipse class="f" cx="109.4" cy="240.4" rx="43.4" ry="20.8"/><ellipse class="g" cx="109.4" cy="238.8" rx="43.4" ry="20.8"/><ellipse class="h" cx="109.4" cy="238.8" rx="34.5" ry="16"/><path class="d" d="M99.5,240.3l-5.4-2.9,4.2-2.2,5.4,2.9a11,11,0,0,0,9.4,0c2.6-1.4,2.6-3.6.1-4.9l-5.7-3,4.3-2.2,5.6,3c4.8,2.6,4.8,6.7-.2,9.3S104.3,242.9,99.5,240.3Z"/><polygon class="d" points="119.9 244 100.7 233.7 104.9 231.5 124.2 241.8 119.9 244"/><polygon class="d" points="126.8 240.4 107.5 230.2 111.8 228 131 238.2 126.8 240.4"/><polygon class="d" points="98.1 249.7 100 237.7 94.1 237.4 92.7 246.8 98.1 249.7"/><path class="d" d="M66,233.7c0,8.5,10.6,15.7,25.7,19v-38C76.6,218,66,225.3,66,233.7Z"/><path class="d" d="M103.2,213.2v41.1l5.7.2V212.9Z"/><rect class="d" x="66" y="225.2" width="86.8" height="10.19"/><path class="d" d="M152.9,233.7c0-6.9-7-13-17.8-16.7v33.4C145.9,246.7,152.9,240.6,152.9,233.7Z"/><path class="e" d="M91.7,214.7v38a81.7,81.7,0,0,0,11.5,1.6V213.2A81.9,81.9,0,0,0,91.7,214.7Z"/><path class="e" d="M109.4,212.9h-.5v41.6h.5a76.5,76.5,0,0,0,25.7-4.1V217A76.5,76.5,0,0,0,109.4,212.9Z"/><ellipse class="f" cx="109.4" cy="227.5" rx="43.4" ry="20.8"/><ellipse class="g" cx="109.4" cy="226" rx="43.4" ry="20.8"/><ellipse class="h" cx="109.4" cy="226" rx="34.5" ry="16"/><path class="d" d="M99.5,227.4l-5.4-2.8,4.2-2.2,5.4,2.8a11,11,0,0,0,9.4,0c2.6-1.3,2.6-3.5.1-4.9l-5.7-3,4.3-2.2,5.6,3c4.8,2.6,4.8,6.7-.2,9.3S104.3,230,99.5,227.4Z"/><polygon class="d" points="119.9 231.1 100.7 220.9 104.9 218.7 124.2 228.9 119.9 231.1"/><polygon class="d" points="126.8 227.5 107.5 217.3 111.8 215.1 131 225.3 126.8 227.5"/><polygon class="d" points="98.1 236.8 100 224.8 94.1 224.6 92.7 233.9 98.1 236.8"/><path class="d" d="M66,220.8c0,8.5,10.6,15.8,25.7,19V201.9C76.6,205.1,66,212.4,66,220.8Z"/><path class="d" d="M103.2,200.3v41.1l5.7.2V200.1Z"/><rect class="d" x="66" y="212.3" width="86.8" height="10.19"/><path class="d" d="M152.9,220.8c0-6.8-7-12.9-17.8-16.7v33.5C145.9,233.8,152.9,227.7,152.9,220.8Z"/><path class="e" d="M91.7,201.9v37.9a81.7,81.7,0,0,0,11.5,1.6V200.3A81.7,81.7,0,0,0,91.7,201.9Z"/><path class="e" d="M109.4,200h-.5v41.5h.5a79.2,79.2,0,0,0,25.7-4V204.1A76.5,76.5,0,0,0,109.4,200Z"/><ellipse class="f" cx="109.4" cy="214.6" rx="43.4" ry="20.8"/><ellipse class="g" cx="109.4" cy="213.1" rx="43.4" ry="20.8"/><ellipse class="h" cx="109.4" cy="213.1" rx="34.5" ry="16"/><path class="d" d="M167.7,208c0,8.4,10.6,15.7,25.7,18.9V189C178.3,192.2,167.7,199.5,167.7,208Z"/><path class="d" d="M204.9,187.4v41.1l5.7.2V187.2Z"/><rect class="d" x="167.7" y="199.5" width="86.8" height="10.19"/><path class="d" d="M254.5,208c0-6.9-6.9-13-17.7-16.8v33.5C247.6,220.9,254.5,214.8,254.5,208Z"/><path class="e" d="M193.4,189v37.9a81.7,81.7,0,0,0,11.5,1.6V187.4A81.7,81.7,0,0,0,193.4,189Z"/><path class="e" d="M211.1,187.2h-.5v41.5h.5a79.7,79.7,0,0,0,25.7-4V191.2A79.7,79.7,0,0,0,211.1,187.2Z"/><ellipse class="f" cx="211.1" cy="201.8" rx="43.4" ry="20.8"/><ellipse class="g" cx="211.1" cy="200.2" rx="43.4" ry="20.8"/><ellipse class="h" cx="211.1" cy="200.2" rx="34.5" ry="16"/><path class="d" d="M201.2,201.7l-5.4-2.9,4.2-2.2,5.4,2.9a11.8,11.8,0,0,0,9.4,0c2.6-1.4,2.6-3.6.1-4.9l-5.7-3,4.2-2.2,5.7,3c4.8,2.5,4.7,6.7-.2,9.3S206,204.2,201.2,201.7Z"/><polygon class="d" points="221.6 205.3 202.4 195.1 206.6 192.9 225.9 203.1 221.6 205.3"/><polygon class="d" points="228.5 201.8 209.2 191.6 213.4 189.4 232.7 199.6 228.5 201.8"/><polygon class="d" points="199.8 211.1 201.7 199 195.8 198.8 194.3 208.2 199.8 211.1"/><path class="d" d="M167.7,195.1c0,8.4,10.6,15.7,25.7,18.9V176.1C178.3,179.4,167.7,186.6,167.7,195.1Z"/><path class="d" d="M204.9,174.5v41.1l5.7.2V174.3Z"/><rect class="d" x="167.7" y="186.6" width="86.8" height="10.19"/><path class="d" d="M254.5,195.1c0-6.9-6.9-13-17.7-16.8v33.5C247.6,208,254.5,201.9,254.5,195.1Z"/><path class="e" d="M193.4,176.1V214a81.7,81.7,0,0,0,11.5,1.6V174.5A81.7,81.7,0,0,0,193.4,176.1Z"/><path class="e" d="M211.1,174.3h-.5v41.5h.5a77,77,0,0,0,25.7-4.1V178.3A79.7,79.7,0,0,0,211.1,174.3Z"/><ellipse class="f" cx="211.1" cy="188.9" rx="43.4" ry="20.8"/><ellipse class="g" cx="211.1" cy="187.3" rx="43.4" ry="20.8"/><ellipse class="h" cx="211.1" cy="187.3" rx="34.5" ry="16"/><path class="d" d="M201.2,188.8l-5.4-2.9,4.2-2.2,5.4,2.9a11.8,11.8,0,0,0,9.4,0c2.6-1.4,2.6-3.6.1-4.9l-5.7-3,4.2-2.2,5.7,3c4.8,2.5,4.7,6.7-.2,9.3S206,191.4,201.2,188.8Z"/><polygon class="d" points="221.6 192.4 202.4 182.2 206.6 180 225.9 190.3 221.6 192.4"/><polygon class="d" points="228.5 188.9 209.2 178.7 213.4 176.5 232.7 186.7 228.5 188.9"/><polygon class="d" points="199.8 198.2 201.7 186.2 195.8 185.9 194.3 195.3 199.8 198.2"/><path class="d" d="M167.7,182.2c0,8.5,10.6,15.7,25.7,19v-38C178.3,166.5,167.7,173.7,167.7,182.2Z"/><path class="d" d="M204.9,161.7v41a54.4,54.4,0,0,0,5.7.3V161.4Z"/><rect class="d" x="167.7" y="173.7" width="86.8" height="10.19"/><path class="d" d="M254.5,182.2c0-6.9-6.9-13-17.7-16.7v33.4C247.6,195.2,254.5,189.1,254.5,182.2Z"/><path class="e" d="M193.4,163.2v38a81.9,81.9,0,0,0,11.5,1.5v-41A81.9,81.9,0,0,0,193.4,163.2Z"/><path class="e" d="M211.1,161.4h-.5V203h.5a77,77,0,0,0,25.7-4.1V165.5A77,77,0,0,0,211.1,161.4Z"/><ellipse class="f" cx="211.1" cy="176" rx="43.4" ry="20.8"/><ellipse class="g" cx="211.1" cy="174.5" rx="43.4" ry="20.8"/><ellipse class="h" cx="211.1" cy="174.5" rx="34.5" ry="16"/><path class="d" d="M201.2,175.9l-5.4-2.9,4.2-2.1,5.4,2.8a11,11,0,0,0,9.4,0c2.6-1.3,2.6-3.5.1-4.9l-5.7-3,4.2-2.2,5.7,3c4.8,2.6,4.7,6.7-.2,9.3S206,178.5,201.2,175.9Z"/><polygon class="d" points="221.6 179.6 202.4 169.4 206.6 167.2 225.9 177.4 221.6 179.6"/><polygon class="d" points="228.5 176 209.2 165.8 213.4 163.6 232.7 173.8 228.5 176"/><polygon class="d" points="199.8 185.3 201.7 173.3 195.8 173.1 194.3 182.4 199.8 185.3"/><path class="d" d="M167.7,169.3c0,8.5,10.6,15.7,25.7,19V150.4C178.3,153.6,167.7,160.9,167.7,169.3Z"/><path class="d" d="M204.9,148.8v41.1l5.7.2V148.6Z"/><rect class="d" x="167.7" y="160.8" width="86.8" height="10.19"/><path class="d" d="M254.5,169.3c0-6.8-6.9-12.9-17.7-16.7v33.5C247.6,182.3,254.5,176.2,254.5,169.3Z"/><path class="e" d="M193.4,150.4v37.9a81.7,81.7,0,0,0,11.5,1.6V148.8A81.7,81.7,0,0,0,193.4,150.4Z"/><path class="e" d="M211.1,148.5h-.5v41.5h.5a79.7,79.7,0,0,0,25.7-4V152.6A77,77,0,0,0,211.1,148.5Z"/><ellipse class="f" cx="211.1" cy="163.1" rx="43.4" ry="20.8"/><ellipse class="g" cx="211.1" cy="161.6" rx="43.4" ry="20.8"/><ellipse class="h" cx="211.1" cy="161.6" rx="34.5" ry="16"/><path class="d" d="M201.2,163l-5.4-2.8L200,158l5.4,2.8a11,11,0,0,0,9.4,0c2.6-1.3,2.6-3.5.1-4.9l-5.7-3,4.2-2.2,5.7,3c4.8,2.6,4.7,6.8-.2,9.3S206,165.6,201.2,163Z"/><polygon class="d" points="221.6 166.7 202.4 156.5 206.6 154.3 225.9 164.5 221.6 166.7"/><polygon class="d" points="228.5 163.1 209.2 152.9 213.4 150.7 232.7 160.9 228.5 163.1"/><polygon class="d" points="199.8 172.4 201.7 160.4 195.8 160.2 194.3 169.5 199.8 172.4"/><path class="d" d="M167.7,156.4c0,8.5,10.6,15.8,25.7,19V137.5C178.3,140.7,167.7,148,167.7,156.4Z"/><path class="d" d="M204.9,135.9V177l5.7.2V135.7Z"/><rect class="d" x="167.7" y="148" width="86.8" height="10.19"/><path class="d" d="M254.5,156.4c0-6.8-6.9-12.9-17.7-16.7v33.5C247.6,169.4,254.5,163.3,254.5,156.4Z"/><path class="e" d="M193.4,137.5v37.9a81.7,81.7,0,0,0,11.5,1.6V135.9A81.7,81.7,0,0,0,193.4,137.5Z"/><path class="e" d="M211.1,135.7h-.5v41.5h.5a79.7,79.7,0,0,0,25.7-4V139.7A79.7,79.7,0,0,0,211.1,135.7Z"/><ellipse class="f" cx="211.1" cy="150.3" rx="43.4" ry="20.8"/><ellipse class="g" cx="211.1" cy="148.7" rx="43.4" ry="20.8"/><ellipse class="h" cx="211.1" cy="148.7" rx="34.5" ry="16"/><path class="d" d="M201.2,150.2l-5.4-2.9,4.2-2.2,5.4,2.9a11.8,11.8,0,0,0,9.4,0c2.6-1.4,2.6-3.6.1-4.9l-5.7-3,4.2-2.2,5.7,3c4.8,2.5,4.7,6.7-.2,9.3S206,152.7,201.2,150.2Z"/><polygon class="d" points="221.6 153.8 202.4 143.6 206.6 141.4 225.9 151.6 221.6 153.8"/><polygon class="d" points="228.5 150.3 209.2 140.1 213.4 137.9 232.7 148.1 228.5 150.3"/><polygon class="d" points="199.8 159.6 201.7 147.5 195.8 147.3 194.3 156.7 199.8 159.6"/><path class="d" d="M167.7,143.6c0,8.4,10.6,15.7,25.7,18.9V124.6C178.3,127.8,167.7,135.1,167.7,143.6Z"/><path class="d" d="M204.9,123v41.1l5.7.2V122.8Z"/><rect class="d" x="167.7" y="135.1" width="86.8" height="10.19"/><path class="d" d="M254.5,143.6c0-6.9-6.9-13-17.7-16.8v33.5C247.6,156.5,254.5,150.4,254.5,143.6Z"/><path class="e" d="M193.4,124.6v37.9a81.7,81.7,0,0,0,11.5,1.6V123A81.7,81.7,0,0,0,193.4,124.6Z"/><path class="e" d="M211.1,122.8h-.5v41.5h.5a79.6,79.6,0,0,0,25.7-4.1V126.8A79.7,79.7,0,0,0,211.1,122.8Z"/><ellipse class="f" cx="211.1" cy="137.4" rx="43.4" ry="20.8"/><ellipse class="g" cx="211.1" cy="135.8" rx="43.4" ry="20.8"/><ellipse class="h" cx="211.1" cy="135.8" rx="34.5" ry="16"/><path class="i" d="M362.8,278.1h0v-13H333.6l-10.1-5.8a9.9,9.9,0,0,0-9,.4l-9.5,5.4H275.8v13.4a2.9,2.9,0,0,0,1.6,2.4l37.7,21.8c2.3,1.3,6.4,1.1,9-.4l36.5-21C362.1,280.4,362.9,279.2,362.8,278.1Z"/><path class="i" d="M319.3,258.4a9.8,9.8,0,0,0-4.8,1.3l-9.5,5.4H275.8v13.4a2.9,2.9,0,0,0,1.6,2.4l37.7,21.8a9,9,0,0,0,4.2.9Z"/><path class="j" d="M279.1,265.1h-3.3v13.4a2.9,2.9,0,0,0,1.6,2.4l1.7,1Z"/><path class="j" d="M315.7,303a10.5,10.5,0,0,0,7.2-.1V287.7h-7.2Z"/><path class="k" d="M315.1,289.3l-37.7-21.7c-2.3-1.4-2-3.7.6-5.3l36.5-21c2.6-1.5,6.7-1.7,9-.4l37.7,21.8c2.3,1.3,2.1,3.7-.6,5.2L324.1,289C321.5,290.5,317.4,290.7,315.1,289.3Z"/><path class="j" d="M315.8,285.4l-31.6-18.2c-2-1.2-1.7-3.1.5-4.4l30.5-17.6c2.3-1.3,5.7-1.5,7.6-.4l31.6,18.3c2,1.1,1.7,3.1-.5,4.4l-30.5,17.6C321.1,286.4,317.7,286.5,315.8,285.4Z"/><path class="l" d="M348.9,281.6a3.4,3.4,0,0,1-1.5,2.6c-.9.5-1.5.1-1.5-.9a3.2,3.2,0,0,1,1.5-2.6C348.2,280.2,348.9,280.6,348.9,281.6Z"/><path class="l" d="M353.8,278.8a3.5,3.5,0,0,1-1.5,2.6c-.9.5-1.5.1-1.5-.9a3.1,3.1,0,0,1,1.5-2.6C353.1,277.4,353.8,277.8,353.8,278.8Z"/><path class="k" d="M358.7,275.9a3.6,3.6,0,0,1-1.5,2.7c-.9.4-1.5.1-1.5-.9a3.3,3.3,0,0,1,1.5-2.7A1,1,0,0,1,358.7,275.9Z"/><path class="m" d="M362.8,257.3h0v-13H333.6l-10.1-5.8c-2.3-1.4-6.4-1.2-9,.4l-9.5,5.4H275.8v13.4a2.9,2.9,0,0,0,1.6,2.4l37.7,21.8c2.3,1.3,6.4,1.1,9-.4l36.5-21C362.1,259.6,362.9,258.4,362.8,257.3Z"/><path class="m" d="M319.3,237.6a9.8,9.8,0,0,0-4.8,1.3l-9.5,5.4H275.8v13.4a2.9,2.9,0,0,0,1.6,2.4l37.7,21.8a9,9,0,0,0,4.2.9Z"/><path class="j" d="M279.1,244.3h-3.3v13.4a2.9,2.9,0,0,0,1.6,2.4l1.7,1Z"/><path class="j" d="M315.7,282.2a10.5,10.5,0,0,0,7.2-.1V266.9h-7.2Z"/><path class="k" d="M315.1,268.5l-37.7-21.8c-2.3-1.3-2-3.6.6-5.2l36.5-21c2.6-1.5,6.7-1.7,9-.4l37.7,21.8c2.3,1.3,2.1,3.7-.6,5.2l-36.5,21.1C321.5,269.7,317.4,269.9,315.1,268.5Z"/><path class="j" d="M315.8,264.6l-31.6-18.2c-2-1.2-1.7-3.1.5-4.4l30.5-17.6c2.3-1.3,5.7-1.5,7.6-.4l31.6,18.3c2,1.1,1.7,3.1-.5,4.4l-30.5,17.6C321.1,265.6,317.7,265.7,315.8,264.6Z"/><path class="k" d="M348.9,260.8a3.4,3.4,0,0,1-1.5,2.6c-.9.5-1.5.1-1.5-.9a3.2,3.2,0,0,1,1.5-2.6C348.2,259.4,348.9,259.8,348.9,260.8Z"/><path class="n" d="M353.8,257.9a3.6,3.6,0,0,1-1.5,2.7c-.9.5-1.5.1-1.5-.9a3.1,3.1,0,0,1,1.5-2.6C353.1,256.6,353.8,257,353.8,257.9Z"/><path class="l" d="M358.7,255.1a3.6,3.6,0,0,1-1.5,2.7c-.9.4-1.5,0-1.5-.9a3.3,3.3,0,0,1,1.5-2.7C358,253.8,358.7,254.1,358.7,255.1Z"/><path class="o" d="M362.8,236.5h0v-13H333.6l-10.1-5.8c-2.3-1.4-6.4-1.2-9,.4l-9.5,5.4H275.8v13.4a2.9,2.9,0,0,0,1.6,2.4l37.7,21.8c2.3,1.3,6.4,1.1,9-.4l36.5-21C362.1,238.8,362.9,237.6,362.8,236.5Z"/><path class="o" d="M319.3,216.8a9.8,9.8,0,0,0-4.8,1.3l-9.5,5.4H275.8v13.4a2.9,2.9,0,0,0,1.6,2.4l37.7,21.8a9,9,0,0,0,4.2.9Z"/><path class="j" d="M279.1,223.5h-3.3v13.4a2.9,2.9,0,0,0,1.6,2.4l1.7,1Z"/><path class="j" d="M315.7,261.4a10.5,10.5,0,0,0,7.2-.1V246.1h-7.2Z"/><path class="p" d="M315.1,247.7l-37.7-21.8c-2.3-1.3-2-3.6.6-5.2l36.5-21a9.9,9.9,0,0,1,9-.4l37.7,21.8c2.3,1.3,2.1,3.7-.6,5.2l-36.5,21.1C321.5,248.9,317.4,249.1,315.1,247.7Z"/><path class="q" d="M360.6,223.8l-36.5,21c-2.6,1.5-6.7,1.7-9,.4l-37.7-21.8a6.3,6.3,0,0,1-1.2-1c-.8,1.2-.4,2.6,1.2,3.5l37.7,21.8c2.3,1.4,6.4,1.2,9-.4l36.5-21c2.1-1.2,2.7-2.9,1.8-4.2A5.9,5.9,0,0,1,360.6,223.8Z"/><path class="n" d="M348.9,240a3.5,3.5,0,0,1-1.5,2.6c-.9.5-1.5.1-1.5-.9a3.2,3.2,0,0,1,1.5-2.6C348.2,238.6,348.9,239,348.9,240Z"/><path class="k" d="M353.8,237.1a3.6,3.6,0,0,1-1.5,2.7c-.9.5-1.5.1-1.5-.9a3,3,0,0,1,1.5-2.6C353.1,235.8,353.8,236.2,353.8,237.1Z"/><path class="k" d="M358.7,234.3a3.6,3.6,0,0,1-1.5,2.7c-.9.4-1.5,0-1.5-.9a3.3,3.3,0,0,1,1.5-2.7C358,232.9,358.7,233.3,358.7,234.3Z"/><path class="j" d="M317.3,234.2,299.7,224c-1.1-.6-1-1.7.3-2.4l17-9.9a4.7,4.7,0,0,1,4.3-.1l17.6,10.2c1.1.6,1,1.7-.3,2.4l-17,9.8A4.7,4.7,0,0,1,317.3,234.2Z"/><path class="k" d="M319,225.7l-2.4-1.4c-.2-.1-.1-.3,0-.4l2.4-1.3h.6L322,224c.2,0,.2.2,0,.3l-2.4,1.4A.6.6,0,0,1,319,225.7Z"/><path class="r" d="M299.7,224h0l.3-.2,17-9.9a4.7,4.7,0,0,1,4.3-.1L338.9,224c1-.7,1-1.7,0-2.2l-17.6-10.2a4.7,4.7,0,0,0-4.3.1l-17,9.9C298.7,222.3,298.6,223.4,299.7,224Z"/><path class="n" d="M312.7,251.5c0,.7-.5.9-1,.6a2.2,2.2,0,0,1-1.1-1.8c0-.6.5-.9,1.1-.5A2.3,2.3,0,0,1,312.7,251.5Z"/><path class="l" d="M309.5,249.7c0,.7-.5.9-1,.6a2.2,2.2,0,0,1-1.1-1.8c0-.6.5-.9,1.1-.6A2.7,2.7,0,0,1,309.5,249.7Z"/><path class="l" d="M312.7,255.4a.6.6,0,0,1-1,.6,2.5,2.5,0,0,1-1.1-1.8c0-.7.5-.9,1.1-.6A2.4,2.4,0,0,1,312.7,255.4Z"/><path class="l" d="M309.5,253.5c0,.7-.5,1-1,.6a2.2,2.2,0,0,1-1.1-1.7c0-.7.5-1,1.1-.6A2.3,2.3,0,0,1,309.5,253.5Z"/><path class="k" d="M312.7,272.2c0,.7-.5.9-1,.6a2.2,2.2,0,0,1-1.1-1.8c0-.6.5-.9,1.1-.5A2.3,2.3,0,0,1,312.7,272.2Z"/><path class="k" d="M309.5,270.4c0,.7-.5.9-1,.6a2.2,2.2,0,0,1-1.1-1.8c0-.6.5-.9,1.1-.6A2.7,2.7,0,0,1,309.5,270.4Z"/><path class="l" d="M312.7,276.1a.6.6,0,0,1-1,.6,2.5,2.5,0,0,1-1.1-1.8c0-.7.5-.9,1.1-.6A2.4,2.4,0,0,1,312.7,276.1Z"/><path class="n" d="M309.5,274.2c0,.7-.5,1-1,.6a2.2,2.2,0,0,1-1.1-1.7c0-.7.5-1,1.1-.6A2.3,2.3,0,0,1,309.5,274.2Z"/><path class="k" d="M312.7,292.9c0,.7-.5,1-1,.6a2.2,2.2,0,0,1-1.1-1.8c0-.6.5-.9,1.1-.5A2.3,2.3,0,0,1,312.7,292.9Z"/><path class="l" d="M309.5,291.1c0,.7-.5.9-1,.6a2.2,2.2,0,0,1-1.1-1.8c0-.6.5-.9,1.1-.6A2.7,2.7,0,0,1,309.5,291.1Z"/><path class="n" d="M312.7,296.8a.6.6,0,0,1-1,.6,2.5,2.5,0,0,1-1.1-1.8c0-.7.5-.9,1.1-.6A2.4,2.4,0,0,1,312.7,296.8Z"/><path class="k" d="M309.5,294.9c0,.7-.5,1-1,.6a2.2,2.2,0,0,1-1.1-1.7c0-.7.5-1,1.1-.6A2.3,2.3,0,0,1,309.5,294.9Z"/></g></svg>