<svg xmlns="http://www.w3.org/2000/svg" xmlns:xlink="http://www.w3.org/1999/xlink" viewBox="0 0 400 400"><defs><style>.a{fill:#d1ebff;}.b{fill-rule:evenodd;opacity:0.61;fill:url(#a);}.c{font-size:39.99px;fill:#fff;font-family:AdobeArabic-Regular, Adobe Arabic;}.d,.f{fill:#606060;}.d{opacity:0.06;}.e{opacity:0.3;}.g{fill:#eeac1f;}.h{fill:#fcda00;}.i{fill:#db9927;}.j{fill:#efaa1e;}</style><linearGradient id="a" x1="47.06" y1="178.01" x2="271.76" y2="178.01" gradientUnits="userSpaceOnUse"><stop offset="0" stop-color="#288ed9"/><stop offset="1" stop-color="#137fcf" stop-opacity="0.05"/></linearGradient></defs><title>price-foreigndedicatedserver</title><circle class="a" cx="159.4" cy="179.6" r="112.3" transform="translate(-80.3 165.3) rotate(-45)"/><path class="b" d="M159.4,67.2a114.7,114.7,0,0,1,31.2,4.4,21.8,21.8,0,0,0-.7,9.9c1.6,11.7-4.5,23.2-18.2,19.3s-10.3,12.3-31.6,10c-17.9-1.9-37-11.5-36.8-28.6a112.2,112.2,0,0,1,56.1-15ZM209.6,79c5.4,12.6,9.6,32.2-10.5,42.7-31,16.2-54.8,15.7-51.4,36.1s1.9,24-1.7,28.5,2.1,11.9,13.3,8.6c0,0,2.5-1.8,3,.6s-6.7,10.5.2,18.9,19.5,3.6,26.3-.9,20.9,6.2,23.8,15,.9,17.7,14.9,17.4,8.8-19.8,8.6-29,1.1-28.2,14.3-27.7,9.1-5.7,15.2-7.7a11.6,11.6,0,0,1,6.1-.2c0-.6.1-1.2.1-1.7A112.4,112.4,0,0,0,209.6,79Zm-7.3,168.2s3.8-4.6,7.7-2.5,5,9.1,2,10.6-12.6-4.4-9.7-8.1ZM133,288.8c11.3-13.6-.5-27.1-7.4-33.5s11.7-35.2-10.9-35.8-34.9-16.2-17.6-18.1,10.6-11.8,12.3-19.6,7.5-.8,18.7-4.7-5.3-27.7-16.5-27.2-7.8,17.1-14.2,14.9-8.1-16.2,1.1-19,10-10.7,7-17.4-18.8,0-22.1-11.4c-1.7-5.8-6.1-8.4-10.1-9.6a111.7,111.7,0,0,0-26.2,72.2c0,2.4,0,4.8.2,7.2,15.3,10.3,30.9,33.2,28.8,45.3-2.8,15.9,11.8,24.3,18.2,29.1,3.4,2.5,4.6,8.3,5,13.3A110.9,110.9,0,0,0,133,288.8Z"/><text class="c" transform="translate(87.1 -39.7)">جراخ یصاصتخا روس تمیق*</text><ellipse class="d" cx="296.9" cy="294.6" rx="97" ry="17.3"/><g class="e"><path class="f" d="M18.5,292.1l-1.2-.3"/><path class="f" d="M98.9,276.1c3-1.6,7.6-3,13.3-4.2L96,266.7c-29.9-14.9-22-15.8-14.1-15.8,32.4,0,58.7,5.3,58.7,11.9v10.7c0,2.6-4.2,5-11.2,7l-1.2.3-4.8,1.1v2.9c0,2.6-4.1,5.1-11.1,7l-1.2.3a100.6,100.6,0,0,1-10.5,2.2l-1.2.2c-3.3.5-6.8.9-10.6,1.2H87.7l-10.6.7H76c-3.5.2-7,.2-10.6.3H64.2c-3.6-.1-7.1-.1-10.5-.3H52.5l-11.3-.7h-.4c-3.8-.3-7.3-.7-10.6-1.2l-1.1-.2c-4-.6-9.1-17.1-12.1-17.9"/><path class="f" d="M384.1,273.9l-5.9,9c-1.4,2.2-6.2,1.9-13.1-.3l-1.1-.3c-3-1-6.4-2.4-10.1-4l-1-.5c-3-1.4-6.2-2.9-9.6-4.7l-1-.6c-3-1.6-6.1-3.3-9.2-5.2l-1-.5-9-5.6c-.2-.1-.3-.3-.5-.3a1,1,0,0,0-.5-.4l-6.2-4.2c-.8,1.7-3.3,3.3-7.2,4.7,5.1,1.8,8,3.8,8,6v10.7c0,2.3-3.1,4.4-8.5,6.2v4.5c0,2.7-4.1,5.1-11.1,7l-1.2.4a104.6,104.6,0,0,1-10.6,2.1l-1.1.2c-3.3.5-6.9.9-10.6,1.2h-1.2l-10.5.7h-1.2l-10.6.2H249l-10.6-.2h-1.1l-11.3-.7h-.5c-3.7-.3-7.3-.7-10.5-1.2l-1.2-.2c-3.9-.6-7.5-1.3-10.6-2.1l-1.1-.4c-7-1.9-11.2-4.3-11.2-7V277.8c0-2,2.3-3.8,6.4-5.5-5.6-1.8-8.9-3.9-8.9-6.3V255.4c0-2.3,3.1-4.4,8.4-6.2-3-1.4-4.7-3-4.7-4.7V233.8c0-1.8,2-3.5,5.5-5v-5.9c0-6.6,26.2-11.9,58.6-11.9a263.2,263.2,0,0,1,28,1.4l1.6-2.5c3.6-5.5,28.5,4.3,55.7,22S387.7,268.4,384.1,273.9Z"/></g><path class="g" d="M197,291.8c0,6.6,26.3,11.9,58.6,11.9s58.7-5.3,58.7-11.9V281.1H197Z"/><path class="h" d="M314.3,281.1c0,6.6-26.3,11.9-58.7,11.9S197,287.7,197,281.1s26.3-11.9,58.6-11.9S314.3,274.5,314.3,281.1Z"/><path class="i" d="M255.6,291.6h-.9a.2.2,0,0,1-.2-.2h2.4a.2.2,0,0,1-.2.2Zm-2.9,0h-2a.2.2,0,0,1-.2-.2l.2-.2h2a.2.2,0,1,1,0,.4Zm5.9,0a.2.2,0,0,1-.2-.2l.2-.2h2l.2.2a.2.2,0,0,1-.2.2Zm-9.9-.1h-2a.2.2,0,0,1,0-.4h2a.2.2,0,0,1,.2.2C248.9,291.5,248.8,291.5,248.7,291.5Zm13.9,0c-.1,0-.2,0-.2-.1l.2-.2h2a.2.2,0,0,1,.2.2l-.2.2Zm-17.9-.1h-2l-.2-.2c0-.1.1-.1.2-.1h2a.2.2,0,1,1,0,.4Zm21.9,0a.2.2,0,0,1,0-.4h2c.1-.1.2,0,.2.1l-.2.2Zm-25.8-.2h-2c-.2,0-.2-.1-.2-.2a.2.2,0,0,1,.2-.2l2,.2c.1,0,.2,0,.2.1Zm29.8,0a.2.2,0,0,1-.2-.2c0-.1,0-.1.2-.1l1.9-.2c.2,0,.2.1.2.2s0,.2-.1.2Zm-33.8-.2h0l-2-.2a.2.2,0,0,1,0-.4l2,.2a.2.2,0,0,1,0,.4Zm37.7,0a.2.2,0,1,1,0-.4l2-.2a.2.2,0,0,1,0,.4l-2,.2Zm-41.7-.4h0l-2-.2a.2.2,0,0,1-.2-.2h.3l1.9.2c.2,0,.2.1.2.2S232.9,290.6,232.8,290.6Zm45.7,0c-.1,0-.2,0-.2-.1a.2.2,0,0,1,.2-.2l1.9-.2h.3a.2.2,0,0,1-.2.2l-2,.2Zm-49.6-.4h0l-2-.2-.2-.2a.2.2,0,0,1,.2-.2l2,.3a.2.2,0,0,1,.2.2Zm53.5,0h-.2a.2.2,0,0,1,.2-.2l2-.3a.2.2,0,0,1,.2.2c0,.1,0,.2-.2.2l-1.9.2Zm-57.5-.4h0l-2-.2c-.1,0-.1-.1-.1-.2a.2.2,0,0,1,.2-.2l2,.3c.1,0,.1.1.1.2Zm61.5-.1h-.2c0-.1,0-.2.2-.2l1.9-.3a.2.2,0,0,1,.2.2c.1.1,0,.1-.1.2l-2,.2Zm-65.4-.5h0l-2-.4c-.1,0-.2-.1-.1-.2s.1-.1.2-.1l1.9.3c.2,0,.2.1.2.2A.2.2,0,0,1,221,289.2Zm69.3,0a.2.2,0,0,1,0-.4l1.9-.3c.1-.1.2,0,.3.1l-.2.2-2,.4Zm-73.2-.7h0l-2-.5c-.1,0-.1-.1-.1-.2s.1-.1.2-.1l2,.4c.1,0,.1.1.1.2Zm77.1,0-.2-.2a.2.2,0,0,1,.2-.2l1.9-.4c.1,0,.2,0,.2.1s0,.2-.1.2l-1.9.4Zm-80.9-.9h-.1l-1.9-.5c-.1,0-.2-.1-.1-.2l.2-.2,1.9.6c.1,0,.2.1.1.2A.1.1,0,0,1,213.3,287.6Zm84.8,0h-.2c-.1-.1,0-.2.1-.3l1.9-.5.3.2-.2.2-1.9.5Zm-88.6-1.1h-.1l-1.9-.6a.4.4,0,0,1-.1-.3h.3l1.8.7c.1,0,.2.1.1.2A.1.1,0,0,1,209.5,286.5Zm92.4,0c-.1,0-.2,0-.2-.1s0-.2.1-.2l1.8-.7h.3c0,.1,0,.2-.1.2l-1.9.7Zm-96.1-1.4h-.1l-1.7-1c-.1,0-.1-.2,0-.2h.3l1.6,1c.1,0,.2.1.1.2S205.9,285.1,205.8,285.1Zm99.7,0h-.2a.4.4,0,0,1,.1-.3l1.6-.9c.1-.1.3,0,.3,0a.2.2,0,0,1,0,.3l-1.7,1Zm-102.8-2.2h-.1a2.9,2.9,0,0,1-.8-1.8c0-.1.1-.1.2-.1h0c.1,0,.2,0,.2.1a2.6,2.6,0,0,0,.7,1.5.4.4,0,0,1-.1.3Zm105.9,0h-.1a.4.4,0,0,1-.1-.3,2.4,2.4,0,0,0,.6-1.5h0a.2.2,0,0,1,.2-.2h0a.2.2,0,0,1,.2.2h0a2.3,2.3,0,0,1-.7,1.7Zm-105.9-3.2h-.2a.1.1,0,0,1,0-.2,6,6,0,0,1,1.4-1.3h.3a.2.2,0,0,1,0,.3,5.8,5.8,0,0,0-1.4,1.2Zm105.8-.1h-.1a8.7,8.7,0,0,0-1.4-1.2c-.1,0-.1-.1-.1-.2h.3a10,10,0,0,1,1.5,1.3c0,.1,0,.2-.1.2S308.6,279.6,308.5,279.6Zm-102.8-2.1h-.1a.2.2,0,0,1,0-.3l1.8-.7h.3a.4.4,0,0,1-.1.3l-1.8.8Zm99.7-.1h-.1l-1.8-.8c-.1,0-.1-.1-.1-.2h.3l1.8.8c.1,0,.1.1.1.2Zm-96-1.4c-.1,0-.2,0-.2-.1s0-.2.1-.2l1.9-.6h.2c.1.1,0,.2-.1.3l-1.9.5Zm92.4,0h-.1l-1.9-.6c-.1,0-.1-.1-.1-.2s.1-.2.2-.1l1.9.5.2.3Zm-88.6-1a.2.2,0,0,1-.2-.2c-.1-.1,0-.2.1-.2l1.9-.5.3.2-.2.2-1.9.4Zm84.8-.1h-.1l-1.9-.4c-.1-.1-.2-.2-.1-.3h.2l1.9.5a.2.2,0,0,1,.2.2Zm-81-.8h-.2c0-.1.1-.2.2-.3l1.9-.3c.1-.1.2,0,.3.1a.2.2,0,0,1-.2.2l-1.9.4Zm77.1,0h0l-2-.4c-.1,0-.2-.1-.1-.2a.2.2,0,0,1,.2-.2l2,.4c.1,0,.1.1.1.2A.2.2,0,0,1,294.1,274.1Zm-73.2-.7a.2.2,0,0,1-.2-.2l.2-.2,1.9-.3.3.2a.2.2,0,0,1-.2.2l-2,.3Zm69.3,0h0l-2-.3c-.1-.1-.2-.2-.1-.3h.2l1.9.3c.2,0,.2.1.2.2A.2.2,0,0,1,290.2,273.4Zm-65.4-.6c-.1,0-.1-.1-.2-.2s.1-.1.2-.2l2-.2c.1,0,.2,0,.2.1a.2.2,0,0,1-.2.2l-1.9.3Zm61.5,0h0l-2-.3a.2.2,0,0,1-.2-.2c0-.1.1-.1.2-.1l2,.2a.2.2,0,0,1,.2.2Zm-57.5-.5h-.2c0-.1,0-.2.2-.2l1.9-.3c.2,0,.2.1.3.2a.2.2,0,0,1-.2.2l-2,.2Zm53.5,0h0l-1.9-.2c-.2,0-.2-.1-.2-.2l.2-.2,2,.2c.1.1.2.1.1.2Zm-49.6-.4a.2.2,0,0,1-.2-.2h.2l2-.2c.1,0,.2,0,.2.1a.2.2,0,0,1-.2.2l-2,.2Zm45.7,0h0l-2-.2a.2.2,0,0,1-.2-.2c0-.1.1-.1.2-.1h2l.2.2A.2.2,0,0,1,278.4,271.9Zm-41.7-.3a.2.2,0,0,1-.2-.2l.2-.2h2a.2.2,0,0,1,.2.2h-.2l-2,.2Zm37.7,0h0l-2-.2c-.1,0-.2-.1-.1-.2h2.2c.1,0,.1.1.1.2A.2.2,0,0,1,274.4,271.6Zm-33.7-.3c-.1,0-.2,0-.2-.1s0-.2.1-.2h2c.1,0,.2,0,.2.1s0,.2-.1.2Zm29.8,0h-2a.2.2,0,0,1-.2-.2c0-.1.1-.1.2-.1h2a.2.2,0,0,1,.2.2Zm-25.9-.2c-.1,0-.2,0-.2-.1a.2.2,0,0,1,.2-.2h2l.2.2a.2.2,0,0,1-.2.2Zm21.9,0h-2a.2.2,0,1,1,0-.4h2a.2.2,0,0,1,.2.2C266.7,271.1,266.6,271.1,266.5,271.1Zm-17.9-.1a.2.2,0,0,1-.2-.2c0-.1.1-.1.2-.1h2a.2.2,0,0,1,.2.2l-.2.2Zm13.9,0h-2a.2.2,0,1,1,0-.4h2c.1.1.2.1.2.2A.2.2,0,0,1,262.5,271Zm-9.9-.1h-.2a.2.2,0,0,1,.2-.2h2.2a.2.2,0,0,1-.2.2Zm5.9,0h-1.9c-.2,0-.2-.1-.2-.2h2.1c.2,0,.2.1.2.2Z"/><ellipse class="g" cx="255.6" cy="281.1" rx="49.3" ry="8.6"/><path class="i" d="M207.4,282.8c4.5-3.9,24.4-6.8,48.2-6.8s43.7,2.9,48.3,6.8a2.1,2.1,0,0,0,1-1.7c0-4.7-22-8.6-49.3-8.6s-49.3,3.9-49.3,8.6A2.2,2.2,0,0,0,207.4,282.8Z"/><path class="i" d="M239.8,285.6a8.4,8.4,0,0,1-4.3-1.7h-2.8l-2.8-.2c-.7-.2-1.1-.4-1.1-.6s.4-.4,1.1-.6l2.8-.2h2.6c.5-.9,1.8-1.6,3.7-2.2l1.4-.3h2.1l3,.2c.8.2,1.2.3,1.2.5s-.1.2-.2.3l-.9.3-1.9,1a1.2,1.2,0,0,0-.6.9c0,.4.4.7,1,.9a8,8,0,0,0,3,.4l2-.2,1.2-.5,1.1-.8a9,9,0,0,1,2.2-1.4,12.5,12.5,0,0,1,3.5-1,35.5,35.5,0,0,1,6.3-.4,45.4,45.4,0,0,1,7.9.6c2.2.5,3.7,1,4.4,1.7h2.9a11.4,11.4,0,0,1,2.8.3c.7.1,1.1.3,1.1.6s-.4.4-1.1.5a10.9,10.9,0,0,1-2.8.3h-2.7a8.3,8.3,0,0,1-3.6,1.8,3.3,3.3,0,0,1-1.5.3h-2l-3-.2c-.8-.1-1.2-.3-1.2-.5a.2.2,0,0,1,.2-.2l.9-.4.9-.4,1.1-.6c.3-.2.5-.4.5-.6s-.4-.7-1.1-.9a12.6,12.6,0,0,0-3-.3,6.4,6.4,0,0,0-2.7.4,6.2,6.2,0,0,0-1.9,1.1,6.6,6.6,0,0,1-2,1.4,12.5,12.5,0,0,1-3.5,1,50.3,50.3,0,0,1-6.4.4A35.2,35.2,0,0,1,239.8,285.6Z"/><path class="i" d="M302,288.4v10.7l1.1-.3V288.1Z"/><path class="i" d="M290.2,290.7v10.7l1.2-.2V290.5Z"/><path class="i" d="M278.5,292.1v10.7h1.2V292Z"/><path class="i" d="M266.8,292.8v10.7h1.1V292.7Z"/><path class="i" d="M255.6,293h-.5v10.7h1.1V293Z"/><path class="i" d="M243.3,292.7v10.7h1.2V292.8Z"/><path class="i" d="M231.6,292v10.7h1.2V292.1Z"/><path class="i" d="M219.9,290.5v10.7l1.1.2V290.7Z"/><path class="i" d="M208.1,288.1v10.7l1.2.3V288.4Z"/><path class="g" d="M205.5,281c0,6.6,26.2,12,58.6,12s58.6-5.4,58.6-12V270.4H205.5Z"/><ellipse class="h" cx="264.1" cy="270.4" rx="58.6" ry="11.9"/><path class="i" d="M264.1,280.9h-1a.2.2,0,0,1,0-.4h2l.2.2a.2.2,0,0,1-.2.2Zm-2.9,0h-2c-.1,0-.2,0-.2-.1l.2-.2h2a.2.2,0,0,1,0,.4Zm5.9,0a.2.2,0,0,1,0-.4h2l.2.2c0,.1-.1.1-.2.1Zm-9.9-.1H255a.2.2,0,0,1,.2-.2h2a.2.2,0,1,1,0,.4Zm13.9,0-.2-.2a.2.2,0,0,1,.2-.2h2a.2.2,0,0,1,.2.2h-2.2Zm-17.9-.1h-2a.2.2,0,0,1-.2-.2l.2-.2h2a.2.2,0,1,1,0,.4Zm21.9,0a.2.2,0,0,1,0-.4H277c.2,0,.3.1.3.2a.2.2,0,0,1-.2.2Zm-25.9-.2h-2a.2.2,0,0,1-.2-.2l.3-.2h1.9c.2,0,.2.1.2.2A.2.2,0,0,1,249.2,280.5Zm29.8,0c-.1,0-.1-.1-.2-.2a.2.2,0,0,1,.2-.2h2a.2.2,0,0,1,.2.2c0,.1,0,.2-.2.2h-2Zm-33.7-.3h-2a.2.2,0,1,1,0-.4l2,.2a.2.2,0,0,1,.2.2Zm37.7,0h-.2a.2.2,0,0,1,.2-.2l2-.2a.2.2,0,0,1,0,.4Zm-41.7-.3h0l-2-.2a.2.2,0,0,1-.2-.2c0-.1.1-.1.2-.1h2l.2.2A.2.2,0,0,1,241.3,279.9Zm45.7,0a.2.2,0,0,1-.2-.2l.2-.2h1.9c.2-.1.2,0,.2.1s0,.2-.1.2l-2,.2Zm-49.6-.4h-.1l-1.9-.2c-.2,0-.2-.1-.2-.2a.2.2,0,0,1,.2-.2l2,.3h.2C237.5,279.4,237.5,279.5,237.4,279.5Zm53.5,0-.2-.2c0-.1.1-.1.2-.2l2-.2a.2.2,0,0,1,.2.2l-.2.2-2,.2Zm-57.5-.5h0l-2-.3c-.1,0-.2-.1-.1-.2s.1-.1.2-.1l1.9.3c.2,0,.2.1.2.2S233.5,279,233.4,279Zm61.5,0c-.1,0-.2,0-.2-.1s0-.2.1-.2l2-.3c.1,0,.2,0,.2.1s0,.2-.1.2l-2,.3Zm-65.4-.6h0l-2-.3a.2.2,0,0,1-.2-.2l.3-.2,1.9.4a.2.2,0,0,1,.2.2Zm69.3,0h-.2c0-.1,0-.2.2-.2l1.9-.4a.2.2,0,0,1,.2.2c.1.1,0,.2-.1.2l-2,.3Zm-73.2-.7h-.1l-1.9-.4c-.1,0-.2-.1-.1-.2s.1-.1.2-.1l1.9.4a.2.2,0,0,1,.2.2Zm77.1,0h-.2c0-.1,0-.2.1-.2l2-.4c.1-.1.2,0,.2.1s0,.2-.1.2l-2,.4Zm-81-.8h0l-1.9-.5-.2-.3h.3l1.9.5c.1,0,.2.1.1.2A.2.2,0,0,1,221.7,276.9Zm84.8,0a.3.3,0,0,1-.1-.2c-.1-.1,0-.2.1-.2l1.9-.5c.1,0,.2,0,.2.1s0,.2-.1.2l-1.9.6Zm-88.6-1.1h0l-1.9-.7c-.1,0-.1-.1-.1-.2h.3l1.8.7c.1,0,.2.1.1.2S218,275.8,217.9,275.8Zm92.4,0h-.2l.2-.3,1.8-.6c.1-.1.2,0,.3.1s0,.2-.1.2l-1.9.7Zm-96-1.4h-.1l-1.7-.9a.2.2,0,0,1,0-.3.1.1,0,0,1,.2,0l1.7.9a.4.4,0,0,1,.1.3Zm99.7-.1h-.2c-.1-.1,0-.2.1-.3l1.6-.9a.2.2,0,0,1,.3.3l-1.7.9Zm-102.8-2.1H211a2.8,2.8,0,0,1-.7-1.7l.2-.2h0l.2.2a2.1,2.1,0,0,0,.7,1.5.4.4,0,0,1-.1.3Zm105.9,0h-.2a.1.1,0,0,1,0-.2,2.4,2.4,0,0,0,.6-1.5h0a.2.2,0,0,1,.2-.2h0a.2.2,0,0,1,.2.2h0a2.7,2.7,0,0,1-.7,1.7Zm-106-3.3H211c-.1,0-.1-.2,0-.2a4.4,4.4,0,0,1,1.4-1.3h.3a.2.2,0,0,1,0,.3,5.8,5.8,0,0,0-1.4,1.2Zm105.9-.1h-.2a5.8,5.8,0,0,0-1.4-1.2c0-.1-.1-.2,0-.3s.2-.1.3,0a6.4,6.4,0,0,1,1.5,1.3v.2Zm-102.8-2.1H214a.4.4,0,0,1,.1-.3l1.8-.8h.3a.4.4,0,0,1-.1.3l-1.8.7Zm99.7,0h-.1l-1.8-.8c-.1,0-.1-.1-.1-.2s.2-.2.3-.1l1.8.8c.1,0,.1.1.1.2Zm-96.1-1.4a.1.1,0,0,1-.1-.1c-.1-.1,0-.2.1-.2l1.9-.6c.1,0,.2,0,.2.1s0,.2-.1.2l-1.9.6Zm92.4,0h0l-1.9-.6c-.1,0-.2-.1-.1-.2a.2.2,0,0,1,.2-.2l1.9.6c.1.1.2.2.1.2A.2.2,0,0,1,310.2,265.3Zm-88.6-1.1h-.2a.2.2,0,0,1,.2-.2l1.9-.5h.3c0,.1-.1.2-.2.3l-1.9.4Zm84.8,0h0l-1.9-.5a.2.2,0,0,1-.2-.2h.3l1.9.4c.1.1.2.2.1.3Zm-80.9-.8a.2.2,0,0,1-.2-.2c0-.1,0-.2.1-.2l2-.4a.2.2,0,0,1,.2.2c.1.1,0,.2-.1.2l-2,.4Zm77.1-.1h-.1l-1.9-.3-.2-.2.3-.2,1.9.4.2.2C302.8,263.3,302.7,263.3,302.6,263.3Zm-73.2-.6a.2.2,0,0,1-.2-.2c0-.1,0-.2.2-.2l1.9-.3c.1,0,.2,0,.2.1s0,.2-.1.2l-2,.4Zm69.3-.1h0l-2-.3-.2-.2h.3l1.9.3a.2.2,0,0,1,.2.2C298.9,262.6,298.8,262.6,298.7,262.6Zm-65.4-.5a.2.2,0,1,1,0-.4l2-.2c.1-.1.2,0,.2.1l-.2.2-2,.3Zm61.5-.1h-.1l-1.9-.2a.2.2,0,0,1,0-.4l2,.3.2.2Zm-57.5-.4a.2.2,0,0,1-.2-.2c-.1-.1,0-.2.1-.2l2-.2a.2.2,0,0,1,.2.2c0,.1,0,.2-.1.2l-2,.2Zm53.5,0h0l-2-.2c-.1-.1-.2-.1-.1-.2s0-.2.2-.2l2,.2c.1,0,.1.1.1.2A.2.2,0,0,1,290.8,261.6Zm-49.6-.4a.2.2,0,0,1,0-.4h2c.1-.1.2,0,.2.1a.2.2,0,0,1-.2.2l-2,.2Zm45.7,0h0l-2-.2-.2-.2a.2.2,0,0,1,.2-.2l2,.2a.2.2,0,1,1,0,.4Zm-41.7-.3a.2.2,0,0,1-.2-.2c0-.1,0-.2.2-.2h1.9c.1-.1.2,0,.2.1s0,.2-.1.2l-2,.2Zm37.7-.1h-2a.2.2,0,0,1-.2-.2c0-.1.1-.2.2-.1h2a.2.2,0,0,1,.2.2C283.1,260.8,283,260.8,282.9,260.8Zm-33.8-.2a.2.2,0,0,1-.2-.2l.2-.2h2a.2.2,0,0,1,.2.2l-.2.2Zm29.8,0h-2c-.1,0-.1-.1-.1-.2a.2.2,0,0,1,.2-.2h2c.1,0,.2.1.1.2S279.1,260.6,278.9,260.6Zm-25.8-.2a.2.2,0,0,1-.2-.2h2.2l.2.2c0,.1-.1.1-.2.1Zm21.9,0h-2a.2.2,0,0,1-.2-.2H275l.2.2A.2.2,0,0,1,275,260.4Zm-17.9-.1-.2-.2a.2.2,0,0,1,.2-.2h2a.2.2,0,0,1,.2.2h-2.2Zm13.9,0h-2.2a.2.2,0,0,1,.2-.2h2a.2.2,0,1,1,0,.4Zm-9.9-.1c-.2,0-.2-.1-.2-.2s0-.1.2-.1H263c.2,0,.2.1.2.2s0,.2-.2.2Zm5.9,0h-2a.2.2,0,0,1,0-.4h2c.1.1.2.1.2.2A.2.2,0,0,1,267,260.2Z"/><ellipse class="g" cx="264.1" cy="270.4" rx="49.3" ry="8.6"/><path class="i" d="M215.8,272.1c4.6-3.9,24.5-6.9,48.3-6.9s43.7,3,48.3,6.9a2.2,2.2,0,0,0,1-1.7c0-4.8-22.1-8.6-49.3-8.6s-49.3,3.8-49.3,8.6A2.6,2.6,0,0,0,215.8,272.1Z"/><path class="i" d="M248.3,274.9a8.4,8.4,0,0,1-4.3-1.7h-2.8l-2.8-.2c-.7-.2-1.1-.4-1.1-.6s.4-.5,1.1-.6a11,11,0,0,1,2.8-.2h2.6c.5-.9,1.7-1.6,3.7-2.2a3.2,3.2,0,0,1,1.4-.3H251l2.9.2c.9.1,1.3.3,1.3.5a.2.2,0,0,1-.2.2l-.9.4a6.5,6.5,0,0,0-1.9,1,1.1,1.1,0,0,0-.6.9c0,.4.3.7,1,.9a11.5,11.5,0,0,0,3,.3,5.3,5.3,0,0,0,1.9-.2,3.3,3.3,0,0,0,1.3-.4l1.1-.9a16.4,16.4,0,0,1,2.2-1.4,13.2,13.2,0,0,1,3.5-.9,34.8,34.8,0,0,1,6.3-.4,46.2,46.2,0,0,1,7.9.6c2.2.4,3.7,1,4.4,1.7H287l2.9.2c.7.2,1.1.4,1.1.6s-.4.5-1.1.6a11.9,11.9,0,0,1-2.9.2h-2.6c-.5.7-1.7,1.3-3.6,1.9l-1.5.3h-2l-3-.2c-.8-.2-1.2-.3-1.2-.5s0-.2.2-.3l.9-.3.9-.4,1.1-.6c.3-.2.5-.4.5-.7s-.4-.6-1.2-.8a11.2,11.2,0,0,0-2.9-.3,9.9,9.9,0,0,0-2.8.3,9.4,9.4,0,0,0-1.8,1.2,9,9,0,0,1-2,1.4,10.2,10.2,0,0,1-3.5.9,36.7,36.7,0,0,1-6.4.4A42.6,42.6,0,0,1,248.3,274.9Z"/><path class="i" d="M310.4,277.7v10.7l1.2-.4V277.4Z"/><path class="i" d="M298.7,280v10.7l1.2-.2V279.8Z"/><path class="i" d="M287,281.3V292h1.1V281.2Z"/><path class="i" d="M275.3,282.1v10.7h1.1V282Z"/><path class="i" d="M264.1,282.3h-.6V293h1.2V282.3Z"/><path class="i" d="M251.8,282v10.7H253V282.1Z"/><path class="i" d="M240.1,281.2v10.7h1.1V281.3Z"/><path class="i" d="M228.4,279.8v10.7l1.1.2V280Z"/><path class="i" d="M216.6,277.4V288l1.2.4V277.7Z"/><path class="j" d="M194.5,269.4c0,6.5,26.2,11.9,58.6,11.9s58.7-5.4,58.7-11.9V258.7H194.5Z"/><ellipse class="h" cx="253.1" cy="258.7" rx="58.6" ry="11.9"/><path class="i" d="M253.1,269.2h-.9c-.2,0-.2-.1-.2-.2s0-.2.2-.2h1.9c.2,0,.2.1.2.2s0,.2-.2.2Zm-2.9,0h-2a.2.2,0,0,1,0-.4h2a.2.2,0,1,1,0,.4Zm5.9,0a.2.2,0,0,1,0-.4h2a.2.2,0,0,1,0,.4Zm-9.9-.1h-2a.2.2,0,0,1-.2-.2l.2-.2h2.2A.2.2,0,0,1,246.2,269.1Zm13.9,0a.2.2,0,0,1-.2-.2h2.2l.2.2a.2.2,0,0,1-.2.2Zm-17.9-.1h-2a.2.2,0,0,1,0-.4h2a.2.2,0,0,1,0,.4Zm21.9,0a.2.2,0,1,1,0-.4h2l.2.2a.2.2,0,0,1-.2.2Zm-25.9-.2h-2c-.1,0-.1-.1-.1-.2a.2.2,0,0,1,.2-.2h2c.1,0,.2.1.1.2S238.4,268.8,238.2,268.8Zm29.9,0-.2-.2c0-.1,0-.2.1-.2h2a.2.2,0,0,1,.2.2c0,.1,0,.2-.1.2Zm-33.8-.3h-2a.2.2,0,0,1,0-.4l2,.2.2.2C234.5,268.5,234.4,268.5,234.3,268.5Zm37.7,0c-.1,0-.2,0-.2-.1a.2.2,0,0,1,.2-.2l2-.2a.2.2,0,1,1,0,.4Zm-41.7-.3h0l-2-.2a.2.2,0,0,1-.2-.2h.3l1.9.2a.2.2,0,0,1,.2.2Zm45.7,0h-.2a.2.2,0,0,1,.2-.2l1.9-.2c.2,0,.3,0,.3.1a.2.2,0,0,1-.2.2l-2,.2Zm-49.6-.4h-.1l-1.9-.2a.2.2,0,0,1-.2-.2l.2-.2,2,.3a.2.2,0,0,1,.2.2C226.6,267.8,226.5,267.8,226.4,267.8Zm53.5,0h-.2l.2-.2,2-.3.2.2a.2.2,0,0,1-.2.2l-1.9.2Zm-57.5-.5h0l-2-.2c-.1-.1-.2-.2-.1-.2l.2-.2,2,.3c.1,0,.1.1.1.2S222.5,267.3,222.4,267.3Zm61.5,0c-.1,0-.2,0-.2-.1s0-.2.1-.2l2-.3c.1,0,.2,0,.2.1s0,.2-.1.2l-2,.3Zm-65.4-.5h0l-2-.4c-.1,0-.2-.1-.1-.2s.1-.2.2-.1l1.9.3a.2.2,0,0,1,.2.2Zm69.3-.1h-.2a.2.2,0,0,1,.2-.2l1.9-.3c.1-.1.2,0,.3.1a.2.2,0,0,1-.2.2l-2,.3Zm-73.2-.7h0l-2-.4c-.1,0-.2-.1-.1-.2h.2l1.9.4c.2,0,.2.1.2.2S214.7,266,214.6,266Zm77.1,0c-.1,0-.2,0-.2-.1s0-.2.2-.2l1.9-.4h.2c.1.1,0,.2-.1.2l-2,.4Zm-81-.8h0l-1.9-.5-.2-.2.3-.2,1.9.5c.1.1.2.2.1.3Zm84.9,0a.2.2,0,0,1-.2-.2c-.1,0,0-.1.1-.2l1.9-.5h.3c0,.1-.1.2-.2.3l-1.9.5ZM207,264.1h-.1l-1.9-.7c-.1,0-.1-.1-.1-.2h.3l1.8.7c.1,0,.2.1.1.2A.1.1,0,0,1,207,264.1Zm92.3,0a.1.1,0,0,1-.1-.1c-.1-.1,0-.2.1-.2l1.8-.7h.3c0,.1,0,.2-.1.2l-1.9.7Zm-96-1.4h-.1l-1.7-1c-.1-.1-.1-.2,0-.2s.2-.1.3-.1l1.6.9a.4.4,0,0,1,.1.3Zm99.7,0h-.2a.4.4,0,0,1,.1-.3l1.6-.9h.3a.2.2,0,0,1,0,.3l-1.7.9Zm-102.8-2.2a.1.1,0,0,1-.1-.1,2.5,2.5,0,0,1-.8-1.7.2.2,0,0,1,.2-.2h0a.2.2,0,0,1,.2.2,2.6,2.6,0,0,0,.7,1.5.4.4,0,0,1-.1.3Zm105.9,0c-.1,0-.1,0-.1-.1s-.2-.1-.1-.2a2.4,2.4,0,0,0,.6-1.5h0a.2.2,0,0,1,.2-.2h0a.2.2,0,0,1,.2.2h0a2.5,2.5,0,0,1-.7,1.7A.1.1,0,0,1,306.1,260.5Zm-105.9-3.2H200c-.1,0-.1-.1,0-.2a4.4,4.4,0,0,1,1.4-1.3h.3a.2.2,0,0,1,0,.3,5.8,5.8,0,0,0-1.4,1.2Zm105.8-.1h-.1l-1.4-1.2c-.1,0-.1-.2-.1-.2h.3a10,10,0,0,1,1.5,1.3c0,.1,0,.2-.1.2Zm-102.8-2.1h-.1a.2.2,0,0,1,0-.3l1.8-.8h.3a.4.4,0,0,1-.1.3l-1.8.7Zm99.7-.1h-.1l-1.8-.8c-.1,0-.1-.1-.1-.2h.3l1.8.8c.1,0,.1.1.1.2Zm-96-1.4h-.2c-.1-.1,0-.2.1-.2l1.9-.6c.1,0,.2,0,.2.1s0,.2-.1.2l-1.9.6Zm92.4,0h-.1l-1.9-.6c-.1,0-.2-.1-.1-.2s.1-.2.2-.1l1.9.5c.1.1.2.2.1.3Zm-88.7-1.1h-.1c-.1-.1,0-.2.1-.2l1.9-.5.3.2-.2.2-1.9.4Zm84.9,0h-.1l-1.9-.4-.2-.3h.3l1.9.5a.2.2,0,0,1,.2.2Zm-81-.8-.2-.2.2-.2,1.9-.3c.1-.1.2,0,.2.1s0,.2-.1.2l-1.9.4Zm77.1,0h0l-2-.3c-.1,0-.2-.1-.1-.2l.2-.2,1.9.4c.2,0,.2.1.2.2Zm-73.2-.7-.2-.2a.2.2,0,0,1,.2-.2l1.9-.3.3.2-.2.2-2,.3Zm69.3-.1h0l-2-.3c-.1,0-.2-.1-.1-.2h.2l1.9.3a.2.2,0,0,1,.2.2Zm-65.4-.5a.2.2,0,1,1,0-.4l2-.2h.2l-.2.2-1.9.3Zm61.5,0h0l-2-.3a.2.2,0,0,1-.2-.2c0-.1.1-.2.2-.1l2,.2.2.2A.2.2,0,0,1,283.8,250.4Zm-57.5-.5a.2.2,0,0,1-.2-.2v-.2l2-.2a.2.2,0,0,1,.2.2c.1.1,0,.2-.1.2l-2,.2Zm53.5,0h0l-2-.2c-.1,0-.1-.1-.1-.2l.2-.2,2,.2c.1,0,.2.1.1.2A.2.2,0,0,1,279.8,249.9Zm-49.6-.4-.2-.2c0-.1.1-.1.2-.2h2.2a.2.2,0,0,1-.2.2l-2,.2Zm45.7,0h0l-2-.2-.2-.2c0-.1.1-.2.2-.1h2a.2.2,0,0,1,.2.2Zm-41.7-.3-.2-.2.2-.2h2c.1,0,.2,0,.2.1a.2.2,0,0,1-.2.2l-2,.2Zm37.7,0h0l-2-.2-.2-.2h2.2c.2,0,.2.1.2.2Zm-33.8-.3c-.1,0-.1-.1-.1-.2h2.1c.1-.1.2,0,.2.1s0,.2-.2.2h-2Zm29.9,0h-2a.2.2,0,1,1,0-.4h0l2,.2h.2A.2.2,0,0,1,268,248.9Zm-25.9-.2h-.2l.2-.2h2l.2.2-.2.2Zm21.9,0h-2.2a.2.2,0,0,1,.2-.2h2.2A.2.2,0,0,1,264,248.7Zm-17.9-.1-.2-.2a.2.2,0,0,1,.2-.2h2l.2.2-.2.2Zm13.9,0h-2.2a.2.2,0,0,1,.2-.2h2a.2.2,0,1,1,0,.4Zm-9.9-.1-.2-.2c0-.1.1-.1.2-.1h2c.1,0,.2,0,.2.1l-.2.2Zm5.9,0h-2l-.2-.2c0-.1.1-.1.2-.1h2c.2,0,.2,0,.2.1A.2.2,0,0,1,256,248.5Z"/><ellipse class="j" cx="253.1" cy="258.7" rx="49.3" ry="8.6"/><path class="i" d="M204.8,260.4c4.6-3.9,24.5-6.8,48.3-6.8s43.7,2.9,48.3,6.8a2.2,2.2,0,0,0,1-1.7c0-4.8-22.1-8.6-49.3-8.6s-49.3,3.8-49.3,8.6A2.6,2.6,0,0,0,204.8,260.4Z"/><path class="i" d="M237.3,263.2a8.4,8.4,0,0,1-4.3-1.7h-2.8l-2.8-.2c-.7-.2-1.1-.4-1.1-.6s.4-.4,1.1-.6l2.8-.2h2.6c.5-.9,1.8-1.6,3.7-2.2a3.2,3.2,0,0,1,1.4-.3H240l3,.2c.8.1,1.2.3,1.2.5s-.1.2-.2.3l-.9.3-1.9,1a1.2,1.2,0,0,0-.6.9c0,.4.4.7,1,.9a11.5,11.5,0,0,0,3,.3h2l1.2-.5,1.1-.8a14.3,14.3,0,0,1,2.2-1.5,18.8,18.8,0,0,1,3.5-.9,34.8,34.8,0,0,1,6.3-.4,45.4,45.4,0,0,1,7.9.6c2.2.5,3.7,1,4.4,1.7h2.9a11.4,11.4,0,0,1,2.8.3c.7.1,1.1.3,1.1.5s-.4.5-1.1.6a11.4,11.4,0,0,1-2.8.2h-2.7c-.5.7-1.7,1.3-3.6,1.9a3.3,3.3,0,0,1-1.5.3h-2l-3-.2c-.8-.1-1.2-.3-1.2-.5s.1-.2.2-.3l.9-.3.9-.4,1.1-.6c.3-.2.5-.4.5-.7s-.4-.6-1.1-.8a12.6,12.6,0,0,0-3-.3,9.1,9.1,0,0,0-2.7.3,7.6,7.6,0,0,0-1.9,1.2,6.6,6.6,0,0,1-2,1.4,12.5,12.5,0,0,1-3.5,1,50.3,50.3,0,0,1-6.4.4A41.6,41.6,0,0,1,237.3,263.2Z"/><path class="i" d="M299.5,266v10.7l1.1-.3V265.7Z"/><path class="i" d="M287.7,268.3V279l1.2-.2V268.1Z"/><path class="i" d="M276,269.7v10.6h1.2V269.6Z"/><path class="i" d="M264.3,270.4v10.7h1.1V270.3Z"/><path class="i" d="M253.1,270.6h-.6v10.7h1.2V270.6Z"/><path class="i" d="M240.8,270.3V281H242V270.4Z"/><path class="i" d="M229.1,269.6v10.6h1.2V269.7Z"/><path class="i" d="M217.4,268.1v10.7l1.1.2V268.3Z"/><path class="i" d="M205.6,265.7v10.7l1.2.3V266Z"/><path class="g" d="M204.9,258.6c0,6.5,26.3,11.9,58.7,11.9s58.6-5.4,58.6-11.9V247.9H204.9Z"/><ellipse class="h" cx="263.6" cy="247.9" rx="58.6" ry="11.9"/><path class="i" d="M263.6,258.4h-1a.2.2,0,0,1,0-.4h2l.2.2a.2.2,0,0,1-.2.2Zm-3,0h-2c-.1-.1-.2-.1-.2-.2a.2.2,0,0,1,.2-.2h2l.2.2A.2.2,0,0,1,260.6,258.4Zm6,0a.2.2,0,0,1,0-.4h2l.2.2c0,.1-.1.1-.2.1Zm-10-.1h-2l-.2-.2a.2.2,0,0,1,.2-.2h2c.1,0,.2,0,.2.1Zm13.9,0a.2.2,0,0,1-.2-.2c0-.1.1-.1.2-.1h2a.2.2,0,0,1,.2.2l-.2.2h-2Zm-17.8-.1h-2c-.2,0-.2-.1-.2-.2l.2-.2h2a.2.2,0,0,1,.2.2C252.8,258.1,252.8,258.2,252.7,258.2Zm21.8,0a.2.2,0,0,1,0-.4h2a.2.2,0,0,1,0,.4Zm-25.8-.2h-2a.2.2,0,0,1,0-.4h2a.2.2,0,0,1,0,.4Zm29.8,0a.2.2,0,1,1,0-.4h2a.2.2,0,1,1,0,.4Zm-33.8-.3h-2a.2.2,0,0,1-.2-.2c0-.1.1-.2.3-.2l1.9.2a.2.2,0,0,1,.2.2Zm37.8,0h-.2c0-.1,0-.2.1-.2l2-.2c.2,0,.2.1.2.2s0,.2-.1.2Zm-41.7-.3h-.1l-1.9-.2c-.2,0-.2-.1-.2-.2s.1-.1.2-.1l2,.2a.2.2,0,0,1,.2.2Zm45.6,0a.2.2,0,0,1-.2-.2h.2l2-.2c.1-.1.2,0,.2.1a.2.2,0,0,1-.2.2l-2,.2Zm-49.6-.4h0l-2-.2a.2.2,0,0,1-.2-.2c0-.1.1-.2.3-.2l1.9.3.2.2Zm53.6,0h-.2c0-.1,0-.2.1-.2l2-.3a.2.2,0,0,1,.2.2c.1.1,0,.2-.1.2l-2,.2Zm-57.5-.5h-.1l-1.9-.3a.2.2,0,0,1-.2-.2h.2l2,.3.2.2Zm61.4,0c-.1,0-.2,0-.2-.1a.2.2,0,0,1,.2-.2l1.9-.3h.3a.2.2,0,0,1-.2.2l-2,.3Zm-65.4-.6h0l-2-.3c-.1,0-.1-.1-.1-.2s.1-.2.2-.1l2,.3c.1,0,.2.1.1.2Zm69.3,0H298a.2.2,0,0,1,.2-.2l1.9-.4c.2,0,.3.1.3.2a.2.2,0,0,1-.2.2l-1.9.3Zm-73.2-.7h0l-1.9-.4c-.2,0-.2-.1-.2-.2h.2l2,.4c.1,0,.2.1.1.2Zm77.1,0h-.2l.2-.2,1.9-.4c.1-.1.2,0,.3.1l-.2.2-1.9.4Zm-80.9-.8h-.1l-1.9-.5c-.1-.1-.2-.2-.1-.3h.2l1.9.5c.1.1.2.2.2.3Zm84.8,0a.2.2,0,0,1-.2-.2c0-.1,0-.2.1-.2l1.9-.5h.3a.4.4,0,0,1-.1.3l-2,.5Zm-88.6-1.1h-.1a9.6,9.6,0,0,1-1.8-.7c-.1,0-.2-.1-.1-.2h.2l1.9.7c.1,0,.1.1.1.2Zm92.4,0h-.2a.4.4,0,0,1,.1-.3l1.8-.6h.3c.1.1,0,.2-.1.2l-1.8.7Zm-96-1.4h-.1l-1.8-1c0-.1-.1-.2,0-.3h.3l1.6.9c.1.1.2.2.1.3Zm99.6,0h-.2a.4.4,0,0,1,.1-.3l1.7-.9h.3a.4.4,0,0,1-.1.3l-1.7.9Zm-102.8-2.2h-.1a2.3,2.3,0,0,1-.7-1.7c0-.1,0-.2.2-.2h0a.2.2,0,0,1,.2.2,2.4,2.4,0,0,0,.6,1.5.2.2,0,0,1,0,.3Zm105.9,0h-.1c-.1,0-.1-.1-.1-.2a2.1,2.1,0,0,0,.7-1.5h0c0-.1,0-.2.2-.2h0a.2.2,0,0,1,.2.2h0a3.1,3.1,0,0,1-.7,1.7Zm-105.9-3.2h-.1c-.1,0-.1-.1-.1-.2a6.4,6.4,0,0,1,1.5-1.3h.2a.2.2,0,0,1,0,.3,5.1,5.1,0,0,0-1.3,1.2Zm105.8-.1h-.1a5.8,5.8,0,0,0-1.4-1.2c-.1-.1-.1-.2,0-.2h.2a6.4,6.4,0,0,1,1.5,1.3c.1,0,.1.2,0,.2Zm-102.7-2.1h-.2c-.1-.1,0-.2.1-.3l1.8-.8h.2c.1.1,0,.2-.1.3l-1.7.7Zm99.6-.1h-.1l-1.7-.8c-.1,0-.2-.1-.1-.2h.2a7.5,7.5,0,0,1,1.8.8c.1,0,.2.1.1.2Zm-96-1.4c-.1,0-.2,0-.2-.1s0-.2.1-.2l1.9-.6h.3a.2.2,0,0,1-.2.2l-1.8.6Zm92.4,0h-.1l-1.9-.6c-.1,0-.1-.1-.1-.2a.2.2,0,0,1,.3-.1l1.9.5a.4.4,0,0,1,.1.3Zm-88.6-1.1h-.2c0-.1,0-.2.1-.2l2-.5.2.2c0,.1,0,.2-.1.2l-2,.4Zm84.8,0h-.1l-1.9-.5c-.1,0-.1-.1-.1-.2h.2l2,.5c.1,0,.1.1.1.2Zm-81-.8-.2-.2.2-.2,1.9-.4c.2,0,.3.1.3.2l-.2.2-1.9.4Zm77.1-.1h0l-1.9-.3c-.2,0-.2-.1-.2-.2a.2.2,0,0,1,.2-.2l2,.4c.1,0,.2.1.1.2S302.1,240.8,302,240.8Zm-73.2-.6c-.1,0-.1-.1-.2-.2a.2.2,0,0,1,.2-.2l2-.3.2.2-.2.2-1.9.3Zm69.3-.1h0l-2-.3c-.1,0-.1-.1-.1-.2h.2l2,.3c.1,0,.2.1.1.2Zm-65.3-.5-.2-.2c-.1-.1,0-.2.1-.2l2-.2h.2c0,.1,0,.2-.1.2l-2,.3Zm61.4,0h0l-2-.3-.2-.2c.1-.1.1-.2.3-.2l1.9.3c.2,0,.2.1.2.2A.2.2,0,0,1,294.2,239.6Zm-57.5-.5-.2-.2a.2.2,0,0,1,.2-.2l2-.2a.2.2,0,1,1,0,.4l-2,.2Zm53.6,0h0l-2-.2a.2.2,0,1,1,0-.4l2,.2.2.2Zm-49.6-.4-.2-.2c-.1-.1,0-.2.1-.2h2c.1-.1.2,0,.2.1s0,.2-.1.2l-2,.2Zm45.6,0h0l-2-.2a.2.2,0,0,1-.2-.2c.1-.1.2-.2.3-.1h1.9c.2,0,.2.1.2.2Zm-41.7-.3a.2.2,0,0,1-.2-.2l.2-.2h2.2l-.2.2-2,.2Zm37.8,0h-.1l-1.9-.2-.2-.2h2.2l.2.2A.2.2,0,0,1,282.4,238.4Zm-33.8-.3-.2-.2h.2l2-.2a.2.2,0,0,1,.2.2l-.2.2Zm29.8,0h-2l-.2-.2a.2.2,0,0,1,.2-.2h2l.2.2Zm-25.8-.2c-.2,0-.2-.1-.2-.2h2.1l.2.2c0,.1,0,.1-.2.1Zm21.8,0h-2c-.1,0-.2,0-.2-.1l.2-.2h2.2A.2.2,0,0,1,274.4,237.9Zm-17.9-.1a.2.2,0,1,1,0-.4h2a.2.2,0,0,1,.2.2h-2.2Zm13.9,0h-2.1a.2.2,0,0,1,.2-.2h2c.1,0,.1.1.1.2S270.6,237.8,270.4,237.8Zm-9.9-.1a.2.2,0,0,1-.2-.2h2.2a.2.2,0,0,1,0,.4Zm6,0h-2a.2.2,0,0,1,0-.4h2.2A.2.2,0,0,1,266.5,237.7Z"/><ellipse class="g" cx="263.6" cy="247.9" rx="49.3" ry="8.6"/><path class="i" d="M215.3,249.6c4.6-3.9,24.4-6.8,48.3-6.8s43.6,2.9,48.2,6.8a2.2,2.2,0,0,0,1-1.7c0-4.8-22-8.6-49.2-8.6s-49.3,3.8-49.3,8.6A2.2,2.2,0,0,0,215.3,249.6Z"/><path class="i" d="M247.7,252.4c-2.1-.4-3.6-1-4.2-1.7h-2.8l-2.9-.2c-.7-.2-1-.4-1-.6s.3-.5,1-.6a12.3,12.3,0,0,1,2.9-.2h2.5c.6-.9,1.8-1.6,3.7-2.2a3.2,3.2,0,0,1,1.4-.3h2.1l3,.2c.8.1,1.2.3,1.2.5s0,.2-.2.3l-.8.3a9,9,0,0,0-2,1,1.1,1.1,0,0,0-.5.9c0,.4.3.7,1,.9a10.2,10.2,0,0,0,2.9.3h2l1.2-.5,1.1-.8,2.2-1.5a14.4,14.4,0,0,1,3.5-.9,36.2,36.2,0,0,1,6.3-.4,44.6,44.6,0,0,1,7.9.6c2.3.4,3.7,1,4.4,1.7h2.9a10.9,10.9,0,0,1,2.8.3c.7.1,1.1.3,1.1.5s-.4.5-1.1.6a11,11,0,0,1-2.8.2h-2.7c-.5.7-1.7,1.3-3.6,1.9l-1.5.3h-2l-2.9-.2c-.9-.2-1.3-.3-1.3-.5l.2-.3.9-.3.9-.4,1.2-.6a.8.8,0,0,0,.4-.7c0-.3-.4-.6-1.1-.8a11.5,11.5,0,0,0-3-.3,9.1,9.1,0,0,0-2.7.3l-1.8,1.2a12.8,12.8,0,0,1-2.1,1.4,11.7,11.7,0,0,1-3.4,1,52.1,52.1,0,0,1-6.5.4A43.4,43.4,0,0,1,247.7,252.4Z"/><path class="i" d="M309.9,255.2v10.7l1.1-.3V254.9Z"/><path class="i" d="M298.2,257.5v10.7l1.1-.2V257.3Z"/><path class="i" d="M286.4,258.9v10.6h1.2V258.7Z"/><path class="i" d="M274.7,259.6v10.7h1.2V259.5Z"/><path class="i" d="M263.6,259.8H263v10.7h1.1V259.8Z"/><path class="i" d="M251.3,259.5v10.7h1.1V259.6Z"/><path class="i" d="M239.5,258.7v10.7h1.2V258.9Z"/><path class="i" d="M227.8,257.3V268l1.2.2V257.5Z"/><path class="i" d="M216.1,254.9v10.7l1.1.3V255.2Z"/><path class="g" d="M198.1,247.8c0,6.6,26.3,12,58.7,12s58.6-5.4,58.6-12V237.1H198.1Z"/><path class="h" d="M315.4,237.1c0,6.6-26.2,12-58.6,12s-58.7-5.4-58.7-12,26.3-11.9,58.7-11.9S315.4,230.6,315.4,237.1Z"/><path class="i" d="M256.8,247.7h-1a.2.2,0,0,1,0-.4h2l.2.2-.2.2Zm-3-.1h-2l-.2-.2h2.2l.2.2Zm6,0h-.2a.2.2,0,0,1,.2-.2H262l-.2.2Zm-10,0h-2c-.1,0-.1-.1-.1-.2s0-.2.2-.1h1.9c.2,0,.2.1.2.2S250,247.6,249.8,247.6Zm14,0a.2.2,0,0,1-.2-.2c0-.1,0-.2.2-.2h1.9c.2,0,.2,0,.2.1s0,.2-.1.2Zm-17.9-.1h-2a.2.2,0,0,1-.2-.2l.2-.2h2a.2.2,0,0,1,.2.2Zm21.8-.1h-.2a.2.2,0,0,1,.2-.2h2a.2.2,0,0,1,0,.4Zm-25.8-.1h0l-2-.2h-.2l.2-.2h2l.2.2A.2.2,0,0,1,241.9,247.3Zm29.8,0-.2-.2.2-.2h2.2a.2.2,0,0,1-.2.2l-2,.2Zm-33.8-.3h-2c-.1-.1-.2-.1-.2-.2s.1-.2.3-.2l1.9.2c.2,0,.2,0,.2.1Zm37.8,0-.2-.2c0-.1,0-.1.2-.2h1.9c.2,0,.2.1.3.2s-.1.1-.2.2Zm-41.7-.3h-.1l-1.9-.2-.2-.2a.2.2,0,0,1,.2-.2l2,.2.2.2Zm45.6,0-.2-.2.2-.2,2-.2a.2.2,0,0,1,.2.2l-.2.2-1.9.2Zm-49.6-.4h0l-2-.2-.2-.2.3-.2,1.9.2.2.2A.2.2,0,0,1,230,246.3Zm53.6,0a.2.2,0,0,1-.2-.2l.2-.2,1.9-.2h.3l-.2.2-2,.3Zm-57.5-.5H226l-1.9-.3-.2-.2c0-.1.1-.1.2-.1l2,.2.2.2Zm61.4,0a.2.2,0,0,1-.2-.2l.2-.2,2-.2c.1-.1.2,0,.2.1a.2.2,0,0,1-.2.2l-1.9.3Zm-65.3-.6h-.1l-1.9-.3a.2.2,0,0,1-.2-.2l.2-.2,2,.4c.1,0,.2.1.1.2Zm69.3,0h-.2c-.1-.1,0-.2.1-.2l2-.4.2.2c0,.1,0,.1-.2.2l-1.9.3Zm-73.2-.7h-.1l-1.9-.4-.2-.2a.2.2,0,0,1,.3-.1l1.9.4c.1,0,.2.1.1.2Zm77,0h-.1c-.1-.1,0-.2.1-.2l1.9-.5.3.2-.2.2-1.9.4Zm-80.9-.8h-.1l-1.9-.5c-.1,0-.1-.1-.1-.2h.2l1.9.5c.2,0,.2.1.2.2Zm84.8-.1H299c0-.1,0-.2.2-.2l1.9-.5h.2c0,.1,0,.2-.1.2l-1.9.5Zm-88.6-1h-.1l-1.8-.7c-.1,0-.2-.1-.1-.2s.1-.2.2-.1l1.9.6a.4.4,0,0,1,.1.3Zm92.4,0a.2.2,0,0,1-.2-.2s0-.2.1-.2l1.9-.6c.1-.1.2,0,.2.1s0,.1-.1.2l-1.8.6Zm-96-1.5h-.1l-1.7-.9a.4.4,0,0,1-.1-.3h.3l1.7.9a.2.2,0,0,1,0,.3Zm99.6,0h-.1c-.1-.1-.1-.2,0-.2l1.7-.9h.3c0,.1,0,.2-.1.2a6.9,6.9,0,0,1-1.7,1ZM203.9,239h-.2a2.5,2.5,0,0,1-.7-1.7l.2-.2h0a.2.2,0,0,1,.2.2,2.4,2.4,0,0,0,.6,1.5c.1.1.1.2,0,.2Zm105.8-.1h-.1c-.1-.1-.1-.2,0-.2a2.7,2.7,0,0,0,.6-1.6h0l.2-.2h0l.2.2h0a3.4,3.4,0,0,1-.7,1.8Zm-105.9-3.2h-.1a.4.4,0,0,1-.1-.3l1.5-1.2h.3c0,.1,0,.2-.1.2a4,4,0,0,0-1.3,1.3Zm105.9-.1h-.2a5.8,5.8,0,0,0-1.4-1.2.2.2,0,0,1,0-.3h.2a4.9,4.9,0,0,1,1.5,1.2.2.2,0,0,1,0,.3Zm-102.8-2.1h-.2s0-.2.1-.2l1.8-.8h.2c.1.1,0,.2-.1.2l-1.7.8Zm99.6,0h0l-1.8-.7c-.1-.1-.2-.2-.1-.2s.1-.2.2-.1l1.8.7c.1.1.2.2.1.3Zm-96-1.4h-.2a.4.4,0,0,1,.1-.3l1.9-.5c.1-.1.2,0,.3.1s0,.2-.1.2l-1.9.6Zm92.4-.1h-.1l-1.8-.5c-.1-.1-.2-.2-.2-.3h.3l1.9.6c.1,0,.1.1.1.2Zm-88.6-1h-.2c0-.1,0-.2.1-.2l2-.5c.1,0,.2,0,.2.1s0,.2-.1.2l-1.9.5Zm84.8,0h0l-2-.5c-.1,0-.1-.1-.1-.2s.1-.2.2-.1l2,.4c.1,0,.1.1.1.2Zm-80.9-.9H218c-.1-.1,0-.2.1-.2l2-.4.2.2-.2.2-1.9.3Zm77.1,0h-.1l-1.9-.4a.2.2,0,0,1-.2-.2h.2l2,.4c.1,0,.2.1.1.2Zm-73.2-.7h-.2c-.1-.1,0-.2.1-.2l2-.3h.2c0,.1,0,.2-.2.2l-1.9.3Zm69.3,0h-.1l-1.9-.3-.2-.2c0-.1.1-.2.2-.1l2,.3a.2.2,0,0,1,.2.2Zm-65.4-.6c-.1,0-.2,0-.2-.1s0-.2.1-.2l2-.3a.2.2,0,0,1,.2.2c.1.1,0,.2-.1.2l-2,.2Zm61.4,0h0l-2-.2c-.1,0-.2-.1-.1-.2a.2.2,0,0,1,.2-.2l2,.3c.1,0,.1.1.1.2S287.5,228.8,287.4,228.8Zm-57.5-.4a.2.2,0,0,1-.2-.2l.2-.2,2-.2.2.2h-.2l-2,.3Zm53.6-.1h0l-2-.2a.2.2,0,0,1-.2-.2h.2l2,.2a.2.2,0,0,1,.2.2C283.7,228.3,283.6,228.3,283.5,228.3Zm-49.6-.3-.2-.2c0-.1,0-.2.1-.2l2-.2.2.2c.1.1,0,.2-.1.2l-2,.2Zm45.6-.1h-2c-.1,0-.2-.1-.1-.2l.2-.2,2,.2c.1,0,.1.1.1.2Zm-41.7-.3h-.2a.2.2,0,0,1,.2-.2l2-.2a.2.2,0,0,1,.2.2l-.2.2Zm37.8,0h-2l-.2-.2a.2.2,0,0,1,.2-.2l2,.2.2.2Zm-33.8-.2a.2.2,0,0,1,0-.4h2l.2.2a.2.2,0,0,1-.2.2Zm29.8,0h-2a.2.2,0,0,1-.2-.2l.2-.2h2l.2.2A.2.2,0,0,1,271.6,227.4Zm-25.8-.2a.2.2,0,0,1,0-.4H248l-.2.2Zm21.8,0h-2c-.1,0-.2-.1-.1-.2h2.1c.2,0,.2.1.2.2Zm-17.9-.1-.2-.2a.2.2,0,0,1,.2-.2h2c.1,0,.2,0,.2.1a.2.2,0,0,1-.2.2h-2Zm14,0h-2l-.2-.2c0-.1.1-.1.2-.1h2a.2.2,0,0,1,0,.4Zm-10-.1-.2-.2a.2.2,0,0,1,.2-.2h2a.2.2,0,1,1,0,.4Zm6,0h-2l-.2-.2a.2.2,0,0,1,.2-.2h2a.2.2,0,0,1,0,.4Z"/><path class="g" d="M306.1,237.1c0,4.8-22.1,8.6-49.3,8.6s-49.3-3.8-49.3-8.6,22.1-8.5,49.3-8.5S306.1,232.4,306.1,237.1Z"/><path class="i" d="M208.5,238.9c4.6-3.9,24.5-6.9,48.3-6.9s43.7,3,48.3,6.9a2.8,2.8,0,0,0,1-1.8c0-4.7-22.1-8.5-49.3-8.5s-49.3,3.8-49.3,8.5A2.4,2.4,0,0,0,208.5,238.9Z"/><path class="i" d="M303.1,244.4v10.7l1.2-.3V244.1Z"/><path class="i" d="M291.4,246.8v10.7l1.1-.2V246.6Z"/><path class="i" d="M279.6,248.1v10.7h1.2V248Z"/><path class="i" d="M267.9,248.8v10.7h1.2V248.8Z"/><path class="i" d="M256.8,249.1h-.6v10.6h1.2V249.1Z"/><path class="i" d="M244.5,248.8v10.7h1.1V248.8Z"/><path class="i" d="M232.7,248v10.7h1.2V248.1Z"/><path class="i" d="M221,246.6v10.7l1.2.2V246.8Z"/><path class="i" d="M209.3,244.1v10.7l1.2.3V244.4Z"/><path class="j" d="M12.3,288.2c0,6.5,26.2,11.9,58.6,11.9s58.6-5.4,58.6-11.9V277.5H12.3Z"/><ellipse class="h" cx="70.9" cy="277.5" rx="58.6" ry="11.9"/><path class="i" d="M70.9,288h-1a.2.2,0,0,1,0-.4h2a.2.2,0,1,1,0,.4Zm-3,0h-2a.2.2,0,0,1,0-.4h2a.2.2,0,1,1,0,.4Zm6,0a.2.2,0,0,1,0-.4h2a.2.2,0,1,1,0,.4Zm-10-.1H62c-.2,0-.2-.1-.2-.2s0-.2.2-.2h2c.1,0,.2,0,.1.1S64.1,287.9,63.9,287.9Zm14,0a.2.2,0,0,1-.2-.2h2.2a.2.2,0,1,1,0,.4ZM60,287.8H58a.2.2,0,0,1,0-.4h2a.2.2,0,0,1,.2.2Zm21.8,0-.2-.2a.2.2,0,0,1,.2-.2h2a.2.2,0,1,1,0,.4ZM56,287.6H54a.2.2,0,0,1,0-.4h2l.2.2A.2.2,0,0,1,56,287.6Zm29.8,0a.2.2,0,0,1-.2-.2l.2-.2h2a.2.2,0,1,1,0,.4ZM52,287.3H50c-.1,0-.2-.1-.1-.2s0-.2.2-.2l2,.2c.1,0,.1.1.1.2S52.1,287.3,52,287.3Zm37.8,0c-.1,0-.2,0-.2-.1l.2-.2,1.9-.2c.2,0,.2.1.3.2a.2.2,0,0,1-.2.2ZM48.1,287h0l-2-.2-.2-.2c0-.1.1-.1.2-.1l2,.2a.2.2,0,0,1,.2.2C48.3,287,48.2,287,48.1,287Zm45.6,0h-.2a.2.2,0,0,1,.2-.2l2-.2c.1,0,.2,0,.2.1s0,.2-.2.2l-1.9.2Zm-49.6-.4h0l-2-.2c-.1,0-.2-.1-.1-.2a.2.2,0,0,1,.2-.2l1.9.3c.2,0,.2.1.2.2S44.2,286.6,44.1,286.6Zm53.6,0h-.2a.2.2,0,0,1,.2-.2l1.9-.3.3.2a.2.2,0,0,1-.2.2l-2,.2Zm-57.5-.5h0l-2-.2-.2-.3h.2l2,.3a.2.2,0,0,1,.2.2C40.4,286.1,40.3,286.1,40.2,286.1Zm61.4,0h-.2a.2.2,0,0,1,.2-.2l2-.3c.1,0,.2,0,.2.1a.2.2,0,0,1-.2.2l-1.9.3Zm-65.3-.5c-.1,0-.1,0-.1-.1l-1.9-.3a.2.2,0,0,1-.2-.2c0-.1.1-.2.2-.1l2,.3.2.2C36.4,285.5,36.4,285.6,36.3,285.6Zm69.3-.1c-.1,0-.2,0-.2-.1s0-.2.1-.2l2-.3c.1-.1.2,0,.2.1s0,.2-.2.2l-1.9.3Zm-73.2-.7h-.1l-1.9-.4a.2.2,0,0,1-.2-.2h.3l1.9.4a.2.2,0,0,1,.2.2Zm77.1,0c-.1,0-.2,0-.2-.1s0-.2.1-.2l1.9-.4h.3a.2.2,0,0,1-.2.2l-1.9.4Zm-81-.8h-.1l-1.9-.5v-.2c0-.1.1-.2.3-.2l1.9.5a.4.4,0,0,1,.1.3Zm84.8,0-.2-.2c0-.1.1-.1.2-.2l1.9-.5h.2a.4.4,0,0,1-.1.3l-1.9.5Zm-88.6-1.1h-.1l-1.8-.7c-.1,0-.2-.1-.1-.2s.1-.1.2-.1l1.9.7c.1,0,.1.1.1.2Zm92.4,0h-.2c0-.1,0-.2.1-.2l1.9-.7c.1,0,.2,0,.2.1s0,.2-.1.2l-1.8.7Zm-96-1.4H21l-1.7-1v-.2h.3l1.7.9a.2.2,0,0,1,0,.3Zm99.6,0h-.1a.2.2,0,0,1,0-.3l1.7-.9h.3a.4.4,0,0,1-.1.3l-1.7.9C120.8,281.5,120.8,281.5,120.7,281.5ZM18,279.3c-.1,0-.2,0-.2-.1a2.3,2.3,0,0,1-.7-1.7.2.2,0,0,1,.2-.2h0a.2.2,0,0,1,.2.2,2.4,2.4,0,0,0,.6,1.5.2.2,0,0,1,0,.3Zm105.8,0a.1.1,0,0,1-.1-.1c-.1,0-.1-.1,0-.2a2.4,2.4,0,0,0,.6-1.5h0l.2-.2h0l.2.2h0a3.1,3.1,0,0,1-.7,1.7ZM17.9,276.1a.1.1,0,0,1-.1-.1c-.1,0-.1-.1-.1-.2a6.4,6.4,0,0,1,1.5-1.3c.1-.1.2,0,.3,0a.4.4,0,0,1-.1.3,7.7,7.7,0,0,0-1.3,1.2Zm105.9-.1h-.2a5.8,5.8,0,0,0-1.4-1.2c-.1,0-.1-.2,0-.2s.2-.1.3-.1a4.4,4.4,0,0,1,1.4,1.3c.1.1.1.2,0,.2ZM21,273.9h-.2a.4.4,0,0,1,.1-.3l1.8-.8H23c0,.1,0,.2-.2.3l-1.7.7Zm99.7-.1h-.1l-1.8-.8c-.1,0-.2-.1-.1-.2s.1-.1.2-.1a7.5,7.5,0,0,1,1.8.8c.1,0,.2.1.1.2A.1.1,0,0,1,120.7,273.8Zm-96.1-1.4h-.2c0-.1,0-.2.1-.2l1.9-.6c.1,0,.3,0,.3.1s0,.2-.1.2l-1.9.6Zm92.4,0h-.1l-1.8-.6-.2-.2c.1-.1.2-.2.3-.1l1.9.5a.4.4,0,0,1,.1.3Zm-88.6-1.1c-.1,0-.2,0-.2-.1s0-.2.2-.2l1.9-.5.2.2c0,.1,0,.2-.1.2l-1.9.4Zm84.8,0h0l-2-.4a.4.4,0,0,1-.1-.3c0-.1.1-.1.2-.1l2,.5c.1,0,.1.1.1.2S113.3,271.3,113.2,271.3Zm-80.9-.8-.2-.2c-.1-.1,0-.2.1-.2l2-.3c.1-.1.2,0,.2.1s0,.2-.2.2l-1.9.4Zm77.1-.1h-.1l-1.9-.3a.2.2,0,0,1-.2-.2c0-.1.1-.2.3-.2l1.9.4a.2.2,0,0,1,.2.2Zm-73.2-.6-.2-.2c-.1-.1,0-.2.1-.2l2-.3a.2.2,0,0,1,.2.2v.2l-2,.3Zm69.3-.1h-.1l-1.9-.3a.2.2,0,0,1-.2-.2h.2l2,.3a.2.2,0,0,1,.2.2Zm-65.4-.5a.2.2,0,0,1-.2-.2c0-.1,0-.2.2-.2l1.9-.2h.2c.1.1,0,.2-.1.2l-2,.3Zm61.4,0h0l-2-.3c-.1,0-.1-.1-.1-.2s.1-.2.2-.1l2,.2c.1,0,.1.1.1.2A.2.2,0,0,1,101.5,269.2ZM44,268.7a.2.2,0,0,1-.2-.2c0-.1.1-.1.2-.2l2-.2a.2.2,0,1,1,0,.4l-2,.2Zm53.6,0h0l-2-.2a.2.2,0,1,1,0-.4l2,.2a.2.2,0,1,1,0,.4ZM48,268.3l-.2-.2c0-.1,0-.2.2-.2h2.2a.2.2,0,0,1-.2.2l-2,.2Zm45.6,0h0l-2-.2c-.1,0-.1-.1-.1-.2s.1-.2.2-.1h2c.1,0,.2.1.1.2A.2.2,0,0,1,93.6,268.3ZM51.9,268a.2.2,0,1,1,0-.4h2c.1,0,.2,0,.2.1l-.2.2L52,268Zm37.8,0h0l-2-.2a.2.2,0,0,1-.2-.2c0-.1.1-.1.2-.1h2a.2.2,0,0,1,.2.2Zm-33.8-.3a.2.2,0,0,1-.2-.2c0-.1.1-.1.2-.1h2c.1-.1.2,0,.2.1a.2.2,0,0,1-.2.2Zm29.8,0h-2a.2.2,0,0,1,0-.4h0l2,.2c.1,0,.2,0,.2.1A.2.2,0,0,1,85.7,267.7Zm-25.8-.2h-.2a.2.2,0,0,1,.2-.2h2s.2.1.2.2l-.2.2Zm21.8,0H79.6c0-.1,0-.2.2-.2h2c.1,0,.1,0,.1.1Zm-17.8-.1c-.2,0-.2-.1-.2-.2s0-.2.1-.2h2a.2.2,0,0,1,.2.2c0,.1,0,.1-.2.2Zm13.9,0h-2c-.1,0-.2,0-.2-.1l.2-.2h2a.2.2,0,1,1,0,.4Zm-10-.1-.2-.2c0-.1.1-.1.2-.1h2c.1,0,.2,0,.2.1a.2.2,0,0,1-.2.2Zm6,0h-2l-.2-.2c0-.1.1-.1.2-.1h2c.1,0,.2,0,.2.1A.2.2,0,0,1,73.8,267.3Z"/><ellipse class="j" cx="70.9" cy="277.5" rx="49.3" ry="8.6"/><path class="i" d="M22.6,279.2c4.6-3.9,24.5-6.8,48.3-6.8s43.7,2.9,48.3,6.8a2.6,2.6,0,0,0,1-1.7c0-4.8-22.1-8.6-49.3-8.6s-49.3,3.8-49.3,8.6A2.2,2.2,0,0,0,22.6,279.2Z"/><path class="i" d="M55,282a8.4,8.4,0,0,1-4.2-1.7H48l-2.8-.2c-.8-.2-1.1-.4-1.1-.6s.3-.4,1.1-.6l2.8-.2h2.5c.6-.9,1.8-1.6,3.7-2.2a3.7,3.7,0,0,1,1.5-.3h2.1l2.9.2c.8.1,1.3.3,1.3.5l-.3.3-.8.3-2,1a1.4,1.4,0,0,0-.5.9c0,.4.3.7,1,.9a10.5,10.5,0,0,0,3,.3h1.9l1.2-.5,1.2-.8a10.7,10.7,0,0,1,2.2-1.5,12.3,12.3,0,0,1,3.4-.9,36.7,36.7,0,0,1,6.4-.4,44.2,44.2,0,0,1,7.8.6c2.3.5,3.8,1,4.5,1.7h2.8a10.9,10.9,0,0,1,2.8.3c.8.1,1.1.3,1.1.5s-.3.5-1.1.6a11,11,0,0,1-2.8.2H91.1c-.5.7-1.6,1.3-3.5,1.9a4,4,0,0,1-1.5.3H84l-2.9-.2c-.8-.1-1.3-.3-1.3-.5s.1-.2.3-.3l.8-.3,1-.4,1.1-.6a.8.8,0,0,0,.4-.7c0-.3-.3-.6-1.1-.8a11.5,11.5,0,0,0-3-.3,9.1,9.1,0,0,0-2.7.3,9.4,9.4,0,0,0-1.8,1.2,9.6,9.6,0,0,1-2.1,1.4,11.7,11.7,0,0,1-3.4,1,50.3,50.3,0,0,1-6.4.4A43.7,43.7,0,0,1,55,282Z"/><path class="i" d="M117.2,284.8v10.7l1.2-.3V284.5Z"/><path class="i" d="M105.5,287.1v10.7l1.1-.2V286.9Z"/><path class="i" d="M93.8,288.5v10.6h1.1V288.4Z"/><path class="i" d="M82,289.2v10.7h1.2V289.1Z"/><path class="i" d="M70.9,289.4h-.6v10.7h1.2V289.4Z"/><path class="i" d="M58.6,289.1v10.7h1.1V289.2Z"/><path class="i" d="M46.8,288.4V299H48V288.5Z"/><path class="i" d="M35.1,286.9v10.7l1.2.2V287.1Z"/><path class="i" d="M23.4,284.5v10.7l1.2.3V284.8Z"/><path class="j" d="M203.7,236.9c0,6.6,26.2,12,58.6,12s58.6-5.4,58.6-12V226.3H203.7Z"/><ellipse class="h" cx="262.3" cy="226.3" rx="58.6" ry="11.9"/><path class="i" d="M262.3,236.8h-1a.2.2,0,1,1,0-.4h2l.2.2-.2.2Zm-3,0h-2.1c0-.1,0-.2.2-.2h1.9c.2,0,.2.1.2.2S259.5,236.8,259.3,236.8Zm6,0a.2.2,0,1,1,0-.4h2.2l-.2.2Zm-9.9-.1h-2l-.2-.2h2.2l.2.2Zm13.9,0a.2.2,0,0,1,0-.4h2.2l-.2.2Zm-17.9-.1h-2l-.2-.2a.2.2,0,0,1,.2-.2h2a.2.2,0,0,1,.2.2Zm21.9,0a.2.2,0,0,1-.2-.2c0-.1,0-.2.1-.2h2c.2,0,.2.1.2.2s0,.2-.1.2Zm-25.9-.2h-2l-.2-.2c0-.1.1-.2.3-.2h1.9l.2.2A.2.2,0,0,1,247.4,236.4Zm29.8,0a.2.2,0,0,1-.2-.2l.2-.2h2a.2.2,0,0,1,.2.2h-.2l-2,.2Zm-33.7-.3h-2c-.2,0-.2-.1-.2-.2a.2.2,0,0,1,.2-.2l2,.2.2.2Zm37.7,0H281l.2-.2,2-.2a.2.2,0,0,1,0,.4Zm-41.7-.3h0l-2-.2-.2-.2a.2.2,0,0,1,.2-.2l2,.2.2.2A.2.2,0,0,1,239.5,235.8Zm45.7,0-.2-.2c0-.1,0-.2.1-.2l2-.2.2.2c0,.1,0,.2-.1.2l-2,.2Zm-49.7-.4h0l-2-.2c-.1,0-.1-.1-.1-.2l.2-.2,2,.2c.1.1.2.1.1.2A.2.2,0,0,1,235.5,235.4Zm53.6,0a.2.2,0,0,1-.2-.2l.2-.2,2-.2.2.2-.2.2-2,.2Zm-57.5-.5h0l-2-.3-.2-.2h.3l1.9.3a.2.2,0,0,1,.2.2Zm61.5,0h-.2c-.1-.1,0-.2.1-.3l2-.2h.2c0,.1,0,.2-.2.2l-1.9.3Zm-65.4-.6h-.1l-1.9-.3-.2-.2c0-.1.1-.2.3-.2l1.9.4a.2.2,0,0,1,.2.2C227.9,234.3,227.8,234.3,227.7,234.3Zm69.3,0c-.1,0-.2,0-.2-.1s0-.2.1-.2l2-.4a.2.2,0,0,1,.2.2c0,.1,0,.2-.1.2l-2,.3Zm-73.2-.7h-.1l-1.9-.4a.2.2,0,0,1-.2-.2c.1-.1.2-.2.3-.1l1.9.4.2.2Zm77.1,0h-.2c0-.1,0-.2.1-.2l2-.4c.1-.1.2,0,.2.1s0,.2-.1.2l-2,.4Zm-81-.8h0l-1.9-.5c-.2-.1-.2-.2-.2-.3h.3l1.9.5c.1,0,.1.1.1.2A.2.2,0,0,1,219.9,232.8Zm84.8,0-.2-.2.2-.2,1.9-.5h.2c.1.1,0,.2-.1.2l-1.9.5A.1.1,0,0,1,304.7,232.8Zm-88.6-1.1h0l-1.9-.7c-.1,0-.1-.1-.1-.2s.2-.1.3-.1l1.8.6c.1.1.2.2.1.3Zm92.4,0h-.2c0-.1,0-.2.2-.3l1.8-.6c.1-.1.2,0,.3.1l-.2.2-1.8.7Zm-96-1.4a.1.1,0,0,1-.1-.1l-1.7-.9a.4.4,0,0,1-.1-.3h.3l1.7.9a.4.4,0,0,1,.1.3Zm99.7-.1H312c-.1,0,0-.2.1-.2l1.6-.9h.3c.1.1,0,.2,0,.3l-1.7.9Zm-102.8-2.1h-.2a2.8,2.8,0,0,1-.7-1.7.2.2,0,0,1,.2-.2h0a.2.2,0,0,1,.2.2,2.4,2.4,0,0,0,.6,1.5.2.2,0,0,1,0,.3Zm105.8,0h-.1c-.1,0-.1-.2,0-.2a2.4,2.4,0,0,0,.6-1.5h0l.2-.2h0l.2.2h0a2.7,2.7,0,0,1-.7,1.7Zm-105.9-3.3h-.1c-.1-.1-.1-.2,0-.2a4.4,4.4,0,0,1,1.4-1.3.2.2,0,0,1,.3,0c.1.1,0,.2,0,.3a5.8,5.8,0,0,0-1.4,1.2Zm105.9-.1H315a5.8,5.8,0,0,0-1.4-1.2.2.2,0,0,1,0-.3h.3a5.8,5.8,0,0,1,1.4,1.2.2.2,0,0,1,0,.3Zm-102.8-2.1h-.2v-.2l1.8-.8h.3c0,.1,0,.2-.1.2l-1.8.8Zm99.7,0H312l-1.8-.8c-.1,0-.1-.1-.1-.2a.2.2,0,0,1,.3-.1l1.8.7a.2.2,0,0,1,0,.3ZM216,221.2h-.2l.2-.2,1.9-.6c.1-.1.2,0,.2.1s0,.2-.1.2l-1.9.6Zm92.4,0h0l-1.9-.5c-.1-.1-.2-.2-.1-.2a.2.2,0,0,1,.2-.2l1.9.6c.1,0,.2.1.1.2Zm-88.6-1.1h-.2a.2.2,0,0,1,.2-.2l1.9-.5h.2c.1.1,0,.2-.1.3l-1.9.4Zm84.8,0h0l-1.9-.5-.2-.2h.3l1.9.4c.1.1.2.2.1.3Zm-80.9-.8a.2.2,0,0,1-.2-.2c0-.1,0-.2.1-.2l2-.4.2.2c0,.1,0,.2-.1.2l-2,.3Zm77.1-.1h-.1l-1.9-.3-.2-.3h.3l1.9.4.2.2Zm-73.2-.7h-.2c0-.1,0-.2.1-.2l2-.3h.2c.1.1,0,.2-.1.2l-2,.3Zm69.3,0h-.1l-1.9-.3-.2-.2c0-.1.1-.2.3-.1l1.9.3a.2.2,0,0,1,.2.2Zm-65.4-.5-.2-.2a.2.2,0,0,1,.2-.2l1.9-.3c.2,0,.3.1.3.2l-.2.2-2,.3Zm61.5-.1h-.1l-1.9-.2c-.2,0-.2-.1-.2-.2a.2.2,0,0,1,.2-.2l2,.3a.2.2,0,0,1,.2.2Zm-57.6-.4-.2-.2a.2.2,0,0,1,.2-.2l2-.2.2.2-.2.2-1.9.2Zm53.6,0h0l-2-.3a.2.2,0,0,1-.2-.2h.3l1.9.2a.2.2,0,0,1,0,.4Zm-49.6-.4-.2-.2.2-.2,2-.2.2.2a.2.2,0,0,1-.2.2l-2,.2Zm45.7,0H285l-1.9-.2a.2.2,0,0,1-.2-.2l.2-.2,2,.2.2.2Zm-41.7-.4h-.2c-.1-.1,0-.2.1-.2h2c.1-.1.2,0,.2.1s0,.2-.1.2Zm37.7,0h-2l-.2-.2a.2.2,0,0,1,.2-.2l2,.2.2.2Zm-33.8-.2a.2.2,0,0,1,0-.4h2l.2.2a.2.2,0,0,1-.2.2Zm29.8,0h-2a.2.2,0,0,1-.2-.2l.2-.2h2c.2,0,.2.1.2.2Zm-25.8-.2a.2.2,0,0,1-.2-.2l.2-.2h2.2l-.2.2Zm21.9,0h-2l-.2-.2h2.2a.2.2,0,0,1,0,.4Zm-17.9-.1a.2.2,0,0,1,0-.4h2.2l-.2.2Zm13.9,0h-2l-.2-.2h2.2a.2.2,0,0,1,0,.4Zm-10-.1-.2-.2.2-.2h2a.2.2,0,0,1,0,.4Zm6,0h-2l-.2-.2.2-.2h2a.2.2,0,0,1,0,.4Z"/><ellipse class="j" cx="262.3" cy="226.3" rx="49.3" ry="8.6"/><path class="i" d="M214,228c4.6-3.9,24.5-6.9,48.3-6.9s43.7,3,48.3,6.9a2.8,2.8,0,0,0,1-1.7c0-4.8-22.1-8.6-49.3-8.6s-49.3,3.8-49.3,8.6A2.8,2.8,0,0,0,214,228Z"/><path class="i" d="M308.6,233.6v10.6l1.2-.3V233.2Z"/><path class="i" d="M296.9,235.9v10.7l1.2-.2V235.7Z"/><path class="i" d="M285.2,237.2v10.7h1.1V237.1Z"/><path class="i" d="M273.4,238v10.6h1.2V237.9Z"/><path class="i" d="M262.3,238.2h-.6v10.7h1.2V238.2Z"/><path class="i" d="M250,237.9v10.7h1.2V238Z"/><path class="i" d="M238.3,237.1v10.7h1.1V237.2Z"/><path class="i" d="M226.5,235.7v10.7l1.2.2V235.9Z"/><path class="i" d="M214.8,233.2v10.7l1.2.3V233.6Z"/><path class="j" d="M29.4,276.8c0,6.6,26.2,11.9,58.6,11.9s58.6-5.3,58.6-11.9V266.1H29.4Z"/><ellipse class="h" cx="88" cy="266.1" rx="58.6" ry="11.9"/><path class="i" d="M88,276.6H87c-.1,0-.2,0-.2-.1a.2.2,0,0,1,.2-.2h2a.2.2,0,0,1,.2.2c0,.1-.1.1-.2.1Zm-3,0H83c-.1,0-.2-.1-.1-.2s0-.2.2-.2h2.1A.2.2,0,0,1,85,276.6Zm6,0a.2.2,0,0,1-.2-.2H93l.2.2a.2.2,0,0,1-.2.2Zm-9.9-.1h-2a.2.2,0,1,1,0-.4h2a.2.2,0,0,1,.2.2C81.3,276.5,81.2,276.5,81.1,276.5Zm13.9,0c-.1,0-.2,0-.2-.1l.2-.2h2a.2.2,0,0,1,.2.2l-.2.2Zm-17.9-.1h-2l-.2-.2h2.4A.2.2,0,0,1,77.1,276.4Zm21.9,0c-.2,0-.2-.1-.2-.2h2.1c.2,0,.2,0,.2.1s0,.2-.1.2Zm-25.9-.2h-2a.2.2,0,0,1-.2-.2c0-.1.1-.2.2-.1h2a.2.2,0,0,1,.2.2Zm29.8,0h-.2a.2.2,0,0,1,.2-.2h2c.1-.1.2,0,.2.1a.2.2,0,0,1-.2.2ZM69.2,276h-.1l-1.9-.2c-.2,0-.2-.1-.2-.2s.1-.1.2-.1h2c.1,0,.2.1.1.2S69.3,276,69.2,276Zm37.7,0a.2.2,0,1,1,0-.4h2c.1,0,.2,0,.2.1l-.2.2-2,.2Zm-41.7-.3h0l-2-.2a.2.2,0,1,1,0-.4l2,.2a.2.2,0,1,1,0,.4Zm45.7-.1c-.1,0-.2,0-.2-.1s0-.2.1-.2l2-.2a.2.2,0,0,1,.2.2v.2Zm-49.7-.3h0l-2-.3c-.1,0-.1-.1-.1-.2s.1-.1.2-.1l2,.2c.1,0,.1.1.1.2Zm53.6-.1h-.2a.2.2,0,0,1,.2-.2l2-.2c.1,0,.2,0,.2.1a.2.2,0,0,1-.2.2l-2,.2Zm-57.5-.4h0l-2-.3-.2-.2.3-.2,1.9.3a.2.2,0,0,1,.2.2Zm61.4,0v-.2c-.1-.1,0-.2.1-.2l2-.3a.2.2,0,0,1,.2.2c0,.1,0,.2-.2.2l-1.9.3Zm-65.3-.6h-.1l-1.9-.4a.2.2,0,0,1-.2-.2c0-.1.1-.1.3-.1l1.9.3c.1.1.2.1.2.2A.2.2,0,0,1,53.4,274.2Zm69.3,0a.2.2,0,0,1-.2-.2c0-.1,0-.2.1-.2l2-.3c.1,0,.2,0,.2.1s0,.2-.1.2l-2,.4Zm-73.2-.7h-.1l-1.9-.4-.2-.2.3-.2,1.9.4c.1.1.2.1.2.2S49.6,273.5,49.5,273.5Zm77.1,0a.2.2,0,0,1-.2-.2c0-.1,0-.2.1-.2l2-.4c.1,0,.2,0,.2.1a.4.4,0,0,1-.1.3l-2,.4Zm-81-.9h0l-2-.5c-.1,0-.1-.1-.1-.2s.2-.2.3-.1l1.9.5c.1,0,.1.1.1.2S45.7,272.6,45.6,272.6Zm84.8,0h-.2a.2.2,0,0,1,.2-.2l1.9-.5c.1-.1.2,0,.2.1s0,.2-.1.2l-1.9.5Zm-88.6-1.1h0l-1.9-.6c-.1-.1-.2-.2-.1-.3s.2-.1.3-.1a7.5,7.5,0,0,0,1.8.7c.1,0,.1.1.1.2S41.9,271.5,41.8,271.5Zm92.4,0H134c0-.1,0-.2.1-.2l1.9-.7c.1,0,.2,0,.2.1s0,.2-.1.3l-1.8.6Zm-96-1.4h-.1a6.9,6.9,0,0,1-1.7-1c-.1,0-.1-.1-.1-.2h.3l1.7.9c.1,0,.1.1.1.2Zm99.7,0c-.1,0-.2,0-.2-.1s0-.2.1-.2l1.6-1h.3c.1,0,0,.1-.1.2a8.5,8.5,0,0,1-1.7,1ZM35.1,267.9h-.2a3.4,3.4,0,0,1-.7-1.7.2.2,0,0,1,.2-.2h0c.1,0,.2,0,.2.1a2.5,2.5,0,0,0,.6,1.6c.1,0,.1.2,0,.2Zm105.8,0h-.1a.2.2,0,0,1,0-.3,2.4,2.4,0,0,0,.6-1.5h0c0-.1.1-.1.2-.2h0a.2.2,0,0,1,.2.2h0a2.3,2.3,0,0,1-.7,1.7ZM35,264.7h-.1a.2.2,0,0,1,0-.3,9.2,9.2,0,0,1,1.4-1.3h.3c.1,0,0,.2-.1.2a7.7,7.7,0,0,0-1.3,1.2Zm105.9-.1h-.2a5.8,5.8,0,0,0-1.4-1.2c-.1,0-.1-.1,0-.2a.2.2,0,0,1,.3,0,5.8,5.8,0,0,1,1.4,1.2.2.2,0,0,1,0,.3ZM38.1,262.5h-.2c0-.1,0-.2.1-.2l1.8-.8c.1-.1.2,0,.3.1s0,.2-.1.2l-1.8.8Zm99.7-.1h-.1l-1.8-.7c-.1-.1-.2-.2-.1-.3h.3l1.8.8c.1,0,.1.2,0,.2Zm-96.1-1.3-.2-.2.2-.2,1.9-.6a.2.2,0,0,1,.2.2v.2l-1.9.5C41.8,261.1,41.8,261.1,41.7,261.1Zm92.4-.1h0l-1.9-.6c-.1,0-.2-.1-.1-.2h.2l1.9.6c.1,0,.2.1.1.2S134.2,261,134.1,261Zm-88.6-1c-.1,0-.1-.1-.2-.2s.1-.1.2-.2l1.9-.4c.1-.1.2,0,.2.1s0,.2-.1.2l-1.9.5Zm84.8-.1h0l-1.9-.4-.2-.2c0-.1.2-.2.3-.2l1.9.5c.1,0,.2.1.1.2Zm-80.9-.8c-.1,0-.2,0-.2-.1s0-.2.1-.2l2-.4c.1,0,.2,0,.2.1s0,.2-.1.2l-2,.4Zm77.1,0h-.1l-1.9-.4a.2.2,0,0,1-.2-.2c.1-.1.2-.2.3-.1l1.9.3.2.2C126.6,259,126.6,259.1,126.5,259.1Zm-73.2-.7h-.2c0-.1,0-.2.1-.2l2-.4.2.2c0,.1,0,.2-.1.2l-2,.3Zm69.3,0h-.1l-1.9-.3a.2.2,0,0,1-.2-.2l.2-.2,2,.3a.2.2,0,1,1,0,.4Zm-65.4-.6c-.1,0-.2,0-.2-.1a.2.2,0,0,1,.2-.2l1.9-.3c.2,0,.3.1.3.2s-.1.1-.2.2l-2,.2Zm61.5,0h-.1l-1.9-.3c-.2,0-.2-.1-.2-.2s.1-.1.2-.1l2,.2c.1.1.2.1.1.2Zm-57.6-.5h-.2a.2.2,0,0,1,.2-.2l2-.2h.2a.2.2,0,0,1-.2.2l-1.9.2Zm53.6,0h0l-2-.2a.2.2,0,0,1-.2-.2c.1-.1.1-.2.3-.2l1.9.3.2.2Zm-49.6-.4h-.2a.2.2,0,0,1,.2-.2l2-.2a.2.2,0,0,1,.2.2l-.2.2Zm45.7,0h-.1l-1.9-.2h-.2a.2.2,0,0,1,.2-.2l2,.2a.2.2,0,0,1,.2.2Zm-41.7-.3c-.2,0-.2-.1-.2-.2s0-.1.1-.2h2a.2.2,0,0,1,.2.2c0,.1,0,.2-.1.2Zm37.7,0h-2l-.2-.2a.2.2,0,0,1,.2-.2h2a.2.2,0,0,1,0,.4ZM73,256.3c-.1,0-.2,0-.2-.1l.2-.2h2a.2.2,0,0,1,.2.2H73Zm29.8,0h-2.2l.2-.2h2c.2,0,.2.1.2.2S102.9,256.3,102.8,256.3ZM77,256.2a.2.2,0,0,1-.2-.2l.2-.2h2l.2.2a.2.2,0,0,1-.2.2Zm21.9,0h-2a.2.2,0,1,1,0-.4h2l.2.2A.2.2,0,0,1,98.9,256.2ZM81,256h-.2l.2-.2h2a.2.2,0,0,1,.2.2l-.2.2Zm13.9,0h-2l-.2-.2a.2.2,0,0,1,.2-.2h2a.2.2,0,0,1,.2.2Zm-10,0-.2-.2a.2.2,0,0,1,.2-.2h2a.2.2,0,0,1,.2.2H84.9Zm6,0H88.7a.2.2,0,0,1,.2-.2h2a.2.2,0,0,1,.2.2Z"/><ellipse class="j" cx="88" cy="266.1" rx="49.3" ry="8.6"/><path class="i" d="M39.7,267.8c4.6-3.9,24.5-6.8,48.3-6.8s43.7,2.9,48.3,6.8a2.4,2.4,0,0,0,1-1.7c0-4.7-22.1-8.6-49.3-8.6s-49.3,3.9-49.3,8.6A2.4,2.4,0,0,0,39.7,267.8Z"/><path class="i" d="M134.3,273.4v10.7l1.2-.3V273.1Z"/><path class="i" d="M122.6,275.7v10.7l1.2-.2V275.6Z"/><path class="i" d="M110.9,277.1v10.7H112V277Z"/><path class="i" d="M99.1,277.8v10.7h1.2V277.8Z"/><path class="i" d="M88,278h-.6v10.7h1.2V278Z"/><path class="i" d="M75.7,277.8v10.7h1.2V277.8Z"/><path class="i" d="M64,277v10.7h1.1V277.1Z"/><path class="i" d="M52.2,275.6v10.6l1.2.2V275.7Z"/><path class="i" d="M40.5,273.1v10.7l1.2.3V273.4Z"/><path class="j" d="M286.1,222.2c-3.6,5.5,15.5,24.3,42.6,42s52,27.5,55.6,22l5.9-9-98.3-64Z"/><ellipse class="h" cx="341" cy="245.2" rx="11.9" ry="58.6" transform="translate(-50.6 397.1) rotate(-56.9)"/><path class="i" d="M335.3,254.1l-.8-.6c-.1,0-.1-.2-.1-.2h.3l.8.6.8.5h0c.1.1.2.2.1.3h-.3Zm-2.5-1.7h0l-1.6-1.1c-.1,0-.2-.2-.1-.2h.3l1.6,1.1a.4.4,0,0,1,.1.3Zm5,3.3a.4.4,0,0,1-.1-.3h.3l1.7,1h0a.4.4,0,0,1,.1.3.2.2,0,0,1-.3,0l-1.7-1Zm-8.3-5.5h0l-1.6-1.1a.4.4,0,0,1-.1-.3.2.2,0,0,1,.3,0l1.6,1.1a.4.4,0,0,1,.1.3C329.7,250.2,329.6,250.3,329.5,250.2Zm11.7,7.6a.4.4,0,0,1-.1-.3c.1,0,.2-.1.3,0l1.7,1h0a.4.4,0,0,1,.1.3h-.3l-1.7-1Zm-14.9-9.9h0l-1.7-1.1c0-.1-.1-.2,0-.3h.3l1.6,1.1a.2.2,0,0,1,0,.3Zm18.3,12a.4.4,0,0,1-.1-.3h.3l1.7,1.1c.1,0,.1.1.1.2h-.3l-1.7-1ZM323,245.6h0l-1.6-1.2a.2.2,0,0,1,0-.3h.2l1.6,1.2c.1.1.2.2.1.3Zm25,16.3a.4.4,0,0,1-.1-.3.2.2,0,0,1,.3,0l1.7.9c.1.1.2.2.1.3h-.2l-1.8-1Zm-28.1-18.7h-.1l-1.5-1.2a.4.4,0,0,1-.1-.3h.3l1.6,1.2a.2.2,0,0,1,0,.3C320.1,243.3,319.9,243.3,319.9,243.2Zm31.6,20.6c-.1,0-.1-.1-.1-.2h.3l1.7,1c.1,0,.1.1.1.2s-.2.1-.3.1l-1.7-1Zm-34.8-23h0l-1.6-1.3s-.1-.2,0-.2a.2.2,0,0,1,.3,0l1.5,1.2a.4.4,0,0,1,.1.3ZM355,265.7a.3.3,0,0,1-.1-.2.2.2,0,0,1,.3-.1l1.7.9c.1.1.2.2.1.3h-.2l-1.8-.9Zm-41.4-27.4h0l-1.5-1.3a.4.4,0,0,1-.1-.3h.3l1.5,1.3a.4.4,0,0,1,.1.3Zm44.9,29.2c-.1,0-.1-.1-.1-.2h.3l1.8.9v.2c-.1.1-.2.2-.3.1l-1.8-.9Zm-47.9-31.8h0c-.6-.4-1-.9-1.5-1.3a.4.4,0,0,1-.1-.3h.3l1.5,1.3a.2.2,0,0,1,0,.3C310.8,235.8,310.7,235.8,310.6,235.7Zm51.5,33.6a.4.4,0,0,1-.1-.3c0-.1.1-.1.2,0l1.8.8a.2.2,0,0,1,.2.2c-.1.1-.2.2-.3.1l-1.8-.8Zm-54.5-36.2h0l-1.5-1.4c0-.1-.1-.2,0-.2h.3l1.4,1.3a.4.4,0,0,1,.1.3Zm58.1,37.8c-.1,0-.1-.1-.1-.2h.2l1.9.8c.1,0,.1.1.1.2s-.2.2-.3.1l-1.8-.8Zm-61-40.5h0l-1.4-1.5c-.1,0-.1-.1,0-.2h.3a18.5,18.5,0,0,0,1.4,1.4v.3Zm64.6,42.1c0-.1-.1-.2-.1-.3h.3l1.8.8a.2.2,0,0,1,.2.2h-.3l-1.8-.7ZM302,227.6h-.1l-1.3-1.5c-.1,0-.1-.2,0-.2a.2.2,0,0,1,.3,0l1.3,1.5c.1.1.1.2,0,.2Zm71,46.2v-.2h.3l1.9.6a.4.4,0,0,1,.1.3c0,.1-.1.1-.2.1l-1.9-.6Zm-73.6-49.2h-.1l-1.2-1.5a.4.4,0,0,1,.1-.3c.1,0,.2,0,.2.1l1.2,1.5a.2.2,0,0,1,0,.3ZM376.8,275c-.1,0-.1-.1-.1-.2s.1-.1.2-.1l1.9.4.2.3c0,.1-.1.1-.2.1l-1.9-.5Zm-79.7-53.6H297l-.9-1.7c0-.1,0-.2.1-.2a.2.2,0,0,1,.3.1,9.5,9.5,0,0,0,.9,1.7c0,.1,0,.2-.1.2Zm83.5,54.4v-.2c0-.1.1-.2.2-.1h1.9a.2.2,0,0,1,.2.2c.1.1,0,.1-.1.1a6.9,6.9,0,0,1-2-.1Zm-84.9-57.9c-.1,0-.1-.1-.1-.2a2.7,2.7,0,0,1,.3-1.8h.3c.1,0,.1.1.1.2a2.1,2.1,0,0,0-.3,1.6.2.2,0,0,1-.2.2Zm88.7,57.7h-.1a.4.4,0,0,1,.1-.3,2.8,2.8,0,0,0,1.4-.9h0a.2.2,0,0,1,.3,0h0c.1,0,.1.1.1.2h-.1a2.5,2.5,0,0,1-1.5,1.1Zm-87-60.5h-.1c0-.1,0-.2.1-.2a5.8,5.8,0,0,1,1.9-.3c.2,0,.3.1.3.2a.2.2,0,0,1-.2.2,4.8,4.8,0,0,0-1.8.3Zm88.8,57.7a.1.1,0,0,1-.1-.1c-.1-.5-.3-1.1-.5-1.8s0-.2.1-.2.2,0,.2.1a8.2,8.2,0,0,1,.6,1.9.2.2,0,0,1-.2.2Zm-85-57.8v-.2a.2.2,0,0,1,.2-.2l1.9.4a.2.2,0,0,1,.2.2c0,.1-.1.1-.2.1l-1.9-.3Zm83.5,54.3h0a16.3,16.3,0,0,0-1.1-1.7c-.1,0,0-.2,0-.2s.2,0,.3.1l1.1,1.6c.1.1,0,.2-.1.2ZM305,215.7v-.2h.3l1.9.6c.1,0,.1.1.1.2s-.1.1-.2.1l-1.9-.5A.1.1,0,0,1,305,215.7Zm77.5,50.4h-.1l-1.2-1.5a.2.2,0,0,1,0-.3h.2l1.3,1.5a.2.2,0,0,1,0,.3Zm-73.7-49.2c-.1,0-.1-.1-.1-.2s.1-.2.2-.1l1.9.7c.1,0,.2.1.1.2h-.2l-1.9-.7Zm71.1,46.3h-.1l-1.3-1.4c-.1-.1-.1-.2,0-.2s.2-.1.2,0l1.4,1.4a.2.2,0,0,1,0,.3Zm-67.4-44.9v-.2a.2.2,0,0,1,.3-.1l1.8.7a.4.4,0,0,1,.1.3h-.2l-1.9-.8Zm64.6,42.1h0l-1.5-1.3v-.3h.3l1.4,1.4c.1.1.1.2,0,.2Zm-61-40.6a.1.1,0,0,1,0-.2h.2l1.8.8c.1.1.2.2.1.3H318l-1.8-.8Zm58.1,37.8h0l-1.5-1.3a.2.2,0,0,1,0-.3h.3a18.5,18.5,0,0,1,1.4,1.4c.1,0,.1.1.1.2Zm-54.4-36.1c-.1-.1-.2-.2-.1-.3h.2l1.8.8c.1.1.2.2.1.3h-.2l-1.8-.8ZM371.3,255h-.1l-1.5-1.3a.2.2,0,0,1,0-.3h.3l1.5,1.3a.2.2,0,0,1,0,.3Zm-48-31.8c-.1,0-.1-.1-.1-.2h.3l1.8.9a.4.4,0,0,1,.1.3h-.3l-1.8-.9Zm44.9,29.2h0l-1.5-1.2a.4.4,0,0,1-.1-.3h.3l1.5,1.3c.1,0,.1.1.1.2ZM326.9,225c-.1,0-.2-.1-.1-.2s.1-.1.2-.1l1.8,1c.1,0,.1.1.1.2h-.3a9.5,9.5,0,0,1-1.7-1Zm38.2,25h0l-1.6-1.2s-.1-.2,0-.2h.3l1.5,1.3c.1,0,.1.2.1.2Zm-34.8-23.1a.1.1,0,0,1,0-.2h.2l1.8,1c.1,0,.1.2.1.2s-.2.2-.3.1a9.5,9.5,0,0,1-1.7-1ZM362,247.5h0l-1.6-1.2c-.1,0-.1-.2-.1-.2h.3l1.6,1.2a.2.2,0,0,1,0,.3Zm-28.2-18.6a.4.4,0,0,1-.1-.3h.3l1.7,1c.1,0,.2.1.1.2h-.3a9.5,9.5,0,0,0-1.7-1Zm25,16.2h0l-1.6-1.1a.4.4,0,0,1-.1-.3h.3l1.6,1.2c.1,0,.1.1.1.2Zm-21.6-14.2c0-.1-.1-.2,0-.3h.2l1.7,1c.1.1.2.2.1.3H339l-1.7-1Zm18.4,11.9h0l-1.7-1.1a.2.2,0,0,1,0-.3h.2l1.7,1.1a.2.2,0,0,1,0,.3Zm-15-9.9a.1.1,0,0,1,0-.2h.2l1.7,1.1h0c.1.1.2.2.1.3h-.3l-1.6-1Zm11.7,7.6h0l-1.6-1.1c-.1,0-.2-.2-.1-.2h.3l1.6,1.1a.4.4,0,0,1,.1.3Zm-8.3-5.4a.4.4,0,0,1-.1-.3.2.2,0,0,1,.3,0l1.7,1h0a.4.4,0,0,1,.1.3h-.3l-1.7-1Zm5,3.2h0l-1.6-1.1c-.1,0-.2-.2-.1-.2h.3l1.6,1.1a.4.4,0,0,1,.1.3Z"/><ellipse class="j" cx="341" cy="245.2" rx="8.6" ry="49.3" transform="translate(-50.6 397.1) rotate(-56.9)"/><path class="i" d="M299.6,220.3c6-.7,24.3,7.6,44.2,20.6s35,26.4,36.7,32.1a2.2,2.2,0,0,0,1.8-.9c2.6-3.9-13.8-19.2-36.6-34.1s-43.4-23.6-46-19.7A2.7,2.7,0,0,0,299.6,220.3Z"/><path class="i" d="M375.9,276.6l-5.9,9,1.2.4,5.8-9Z"/><path class="i" d="M364.8,272.2l-5.9,8.9,1.1.5,5.8-8.9Z"/><path class="i" d="M354.2,266.9l-5.8,9,1,.5,5.8-8.9Z"/><path class="i" d="M344,261.1l-5.9,9,1,.6,5.9-9Z"/><path class="i" d="M334.5,255.2l-.5-.3-5.8,9,.5.3.5.3,5.8-9Z"/><path class="i" d="M324.4,248.3l-5.9,8.9,1,.7,5.8-8.9Z"/><path class="i" d="M315,241.2l-5.9,9,.9.7,5.9-9Z"/><path class="i" d="M305.9,233.6l-5.8,9,.9.8,5.8-9Z"/><path class="i" d="M297.4,225.2l-5.8,8.9.8.9,5.8-8.9Z"/></svg>