<svg xmlns="http://www.w3.org/2000/svg" xmlns:xlink="http://www.w3.org/1999/xlink" viewBox="0 0 400 400"><defs><style>.a{fill:url(#a);}.b{fill:#d1ebff;}.c{fill-rule:evenodd;opacity:0.61;fill:url(#b);}.d{font-size:43.01px;font-family:AdobeArabic-Regular, Adobe Arabic;}.d,.k{fill:#fff;}.e{fill:#b2d3ea;}.f{fill:#0050af;}.g{fill:#5793ce;}.h{fill:#197bdd;}.i{fill:#d4ecff;}.j{fill:#4ea4f9;}.l{fill:#fafdff;}.m{fill:#173d7a;}.n{fill:#396caa;}.o{fill:#f59b6b;}.p{fill:#21e2e2;}</style><linearGradient id="a" x1="244.2" y1="363.84" x2="197.98" y2="101.7" gradientUnits="userSpaceOnUse"><stop offset="0" stop-color="#c6e6ff"/><stop offset="1" stop-color="#fff"/></linearGradient><linearGradient id="b" x1="19.92" y1="138.31" x2="210.28" y2="138.31" gradientUnits="userSpaceOnUse"><stop offset="0" stop-color="#288ed9"/><stop offset="1" stop-color="#137fcf" stop-opacity="0.05"/></linearGradient></defs><title>usage-foreign-dedicatedservers</title><path class="a" d="M130.2,307.2c-51.7-21.4-84.3-73.7-79-129.5,2-21.2,9.2-40.1,26-49.9,52.7-30.7,93.8,16.8,129,52.8s137.4,4.1,171,46.5,3.7,118.9-71.8,125.5C260.6,356.5,184.5,329.6,130.2,307.2Z"/><circle class="b" cx="115.1" cy="139.6" r="95.2" transform="translate(-65 122.3) rotate(-45)"/><path class="c" d="M115.1,44.4a95.2,95.2,0,0,1,26.4,3.8,17.8,17.8,0,0,0-.6,8.3c1.4,10-3.8,19.7-15.4,16.4s-8.7,10.4-26.7,8.5c-15.2-1.6-31.4-9.8-31.3-24.2a94.9,94.9,0,0,1,47.6-12.8Zm42.5,10c4.6,10.7,8.2,27.3-8.9,36.2-26.3,13.8-46.4,13.3-43.5,30.6s1.6,20.3-1.5,24.1,1.8,10.1,11.3,7.4c0,0,2.1-1.6,2.6.4s-5.7,8.9.1,16,16.6,3.1,22.3-.7,17.7,5.2,20.2,12.7.7,15,12.6,14.8,7.4-16.8,7.3-24.7.9-23.9,12.1-23.4,7.7-4.8,12.9-6.5a9.3,9.3,0,0,1,5.2-.2v-1.5a95.4,95.4,0,0,0-52.7-85.2Zm-6.2,142.5s3.2-3.9,6.6-2.1,4.2,7.7,1.7,9-10.7-3.7-8.3-6.9ZM92.7,232.2c9.6-11.6-.4-23-6.2-28.4s9.9-29.8-9.3-30.3-29.6-13.7-14.9-15.4,9-9.9,10.4-16.6,6.4-.7,15.9-4-4.5-23.4-14-23S68,129,62.5,127.1s-6.8-13.7,1-16.1,8.5-9,5.9-14.7-15.9,0-18.7-9.7c-1.4-4.9-5.1-7.1-8.5-8.1a94.5,94.5,0,0,0-22.3,61.1c0,2.1.1,4.1.2,6.2,13,8.7,26.2,28.1,24.4,38.3-2.3,13.5,10,20.6,15.4,24.7,2.9,2.1,3.9,7,4.3,11.2A95.2,95.2,0,0,0,92.7,232.2Z"/><text class="d" transform="translate(98.1 -34)">جراخ یزاجم روس دربراک*</text><path class="e" d="M318,252.3a4,4,0,0,1-2.2-.6l-13.2-7.9.8-1.3,13.2,7.8a2.6,2.6,0,0,0,2.7,0l21.4-12.4a1.2,1.2,0,0,0,.5-1,1,1,0,0,0-.6-.9l-28.4-15.3.7-1.3,28.5,15.2a3,3,0,0,1,1.4,2.3,2.8,2.8,0,0,1-1.3,2.3l-21.4,12.5A4.2,4.2,0,0,1,318,252.3Z"/><path class="e" d="M264.9,370.5a6,6,0,0,1-2.7-.7l-52.4-29.2a2.4,2.4,0,0,1,0-4.2L233.5,323a.7.7,0,0,0,.4-.7.7.7,0,0,0-.4-.7l-26.4-15.1a2.8,2.8,0,0,1-1.2-2,2.5,2.5,0,0,1,1.1-2.1l10.8-6.8.8,1.3-10.7,6.8a.7.7,0,0,0-.4.7.7.7,0,0,0,.4.7l26.4,15.2a2.4,2.4,0,0,1,1.2,2,2.4,2.4,0,0,1-1.2,2.1l-23.7,13.3a.9.9,0,0,0,0,1.6l52.3,29.1a3.8,3.8,0,0,0,4-.1l20-12.2a.5.5,0,0,0,.1-.3.4.4,0,0,0-.2-.4l-14.4-8.7.8-1.3,14.5,8.7a2.2,2.2,0,0,1,.9,1.7,2,2,0,0,1-.9,1.6l-20,12.3A5.4,5.4,0,0,1,264.9,370.5Z"/><path class="e" d="M287.5,253.1l-25.3-14.6c-1.5-.9-1.3-2.5.5-3.5l24.4-14.1a6.7,6.7,0,0,1,6-.2l25.3,14.5c1.5.9,1.3,2.5-.5,3.5l-24.4,14.1C291.7,253.8,289,254,287.5,253.1Z"/><path class="f" d="M326.7,223.9h0V213H302.3l-8.5-4.9c-1.9-1.1-5.3-.9-7.6.4l-7.9,4.5H253.9v11.2a1.9,1.9,0,0,0,1.3,2l31.6,18.3c1.9,1.1,5.3,1,7.6-.3l30.5-17.6C326.2,225.8,326.8,224.8,326.7,223.9Z"/><path class="f" d="M290.3,207.6a9.5,9.5,0,0,0-4.1,1l-7.9,4.6H253.9v11.2a1.9,1.9,0,0,0,1.3,2l31.6,18.3a6.5,6.5,0,0,0,3.5.7Z"/><path class="g" d="M256.6,213.2h-2.7v11.2a1.9,1.9,0,0,0,1.3,2l1.4.9Z"/><path class="h" d="M287.3,244.9a8.8,8.8,0,0,0,6,0V232.1h-6Z"/><path class="i" d="M286.8,233.5l-31.6-18.2c-2-1.2-1.7-3.1.5-4.4l30.5-17.6c2.3-1.3,5.7-1.5,7.6-.4l31.6,18.3c2,1.1,1.7,3.1-.5,4.4l-30.5,17.6C292.1,234.5,288.7,234.6,286.8,233.5Z"/><path class="h" d="M287.4,230.2l-26.5-15.3c-1.7-.9-1.5-2.6.4-3.6l25.6-14.8a7,7,0,0,1,6.3-.3l26.5,15.3c1.7,1,1.5,2.6-.4,3.7L293.7,230C291.8,231,289,231.2,287.4,230.2Z"/><path class="i" d="M315.1,227a2.9,2.9,0,0,1-1.3,2.2c-.7.4-1.3.1-1.3-.7a2.9,2.9,0,0,1,1.3-2.2C314.5,225.9,315.1,226.2,315.1,227Z"/><path class="i" d="M319.2,224.6a3,3,0,0,1-1.3,2.3c-.7.4-1.2,0-1.2-.8a2.7,2.7,0,0,1,1.2-2.2C318.6,223.5,319.2,223.8,319.2,224.6Z"/><path class="i" d="M323.3,222.3a2.9,2.9,0,0,1-1.3,2.2c-.7.4-1.2.1-1.2-.8a2.7,2.7,0,0,1,1.2-2.2C322.7,221.1,323.3,221.5,323.3,222.3Z"/><path class="f" d="M326.7,206.5h0V195.6H302.3l-8.5-4.9c-1.9-1.1-5.3-1-7.6.3l-7.9,4.6H253.9v11.2a2,2,0,0,0,1.3,2l31.6,18.3c1.9,1.1,5.3.9,7.6-.4l30.5-17.6A2.8,2.8,0,0,0,326.7,206.5Z"/><path class="f" d="M290.3,190.1a9.6,9.6,0,0,0-4.1,1.1l-7.9,4.6H253.9V207a2,2,0,0,0,1.3,2l31.6,18.3a7.5,7.5,0,0,0,3.5.7Z"/><path class="g" d="M256.6,195.7h-2.7V207a2,2,0,0,0,1.3,2l1.4.8Z"/><path class="h" d="M287.3,227.5a8.3,8.3,0,0,0,6-.1V214.7h-6Z"/><path class="i" d="M286.8,216.1l-31.6-18.3c-2-1.1-1.7-3.1.5-4.4l30.5-17.6c2.3-1.3,5.7-1.4,7.6-.3l31.6,18.3c2,1.1,1.7,3-.5,4.3l-30.5,17.7C292.1,217.1,288.7,217.2,286.8,216.1Z"/><path class="h" d="M287.4,212.8l-26.5-15.3c-1.7-1-1.5-2.6.4-3.7l25.6-14.7a7,7,0,0,1,6.3-.3l26.5,15.3c1.7.9,1.5,2.6-.4,3.7l-25.6,14.7A7,7,0,0,1,287.4,212.8Z"/><path class="i" d="M315.1,209.6a2.9,2.9,0,0,1-1.3,2.2c-.7.4-1.3.1-1.3-.7a2.9,2.9,0,0,1,1.3-2.3C314.5,208.4,315.1,208.8,315.1,209.6Z"/><path class="i" d="M319.2,207.2a2.9,2.9,0,0,1-1.3,2.2c-.7.4-1.2.1-1.2-.7a2.7,2.7,0,0,1,1.2-2.2C318.6,206.1,319.2,206.4,319.2,207.2Z"/><path class="i" d="M323.3,204.8A2.9,2.9,0,0,1,322,207c-.7.5-1.2.1-1.2-.7a2.7,2.7,0,0,1,1.2-2.2C322.7,203.7,323.3,204,323.3,204.8Z"/><path class="f" d="M326.7,189.1h0V178.2H302.3l-8.5-4.9c-1.9-1.2-5.3-1-7.6.3l-7.9,4.5H253.9v11.2a2.1,2.1,0,0,0,1.3,2.1l31.6,18.2c1.9,1.1,5.3,1,7.6-.3l30.5-17.6C326.2,190.9,326.8,190,326.7,189.1Z"/><path class="f" d="M290.3,172.7a8.4,8.4,0,0,0-4.1,1.1l-7.9,4.5H253.9v11.2a2.1,2.1,0,0,0,1.3,2.1l31.6,18.2a6.5,6.5,0,0,0,3.5.8Z"/><path class="g" d="M256.6,178.3h-2.7v11.2a2.1,2.1,0,0,0,1.3,2.1l1.4.8Z"/><path class="h" d="M287.3,210.1a8.9,8.9,0,0,0,6-.1V197.2h-6Z"/><path class="j" d="M286.8,198.6l-31.6-18.2c-2-1.1-1.7-3.1.5-4.4l30.5-17.6c2.3-1.3,5.7-1.5,7.6-.3l31.6,18.2c2,1.1,1.7,3.1-.5,4.4l-30.5,17.6C292.1,199.6,288.7,199.8,286.8,198.6Z"/><path class="k" d="M324.9,178.5l-30.5,17.7c-2.3,1.3-5.7,1.4-7.6.3l-31.6-18.3a2.1,2.1,0,0,1-1-.8c-.7,1-.4,2.2,1,3l31.6,18.2c1.9,1.2,5.3,1,7.6-.3l30.5-17.6c1.7-1,2.3-2.4,1.5-3.5A3.9,3.9,0,0,1,324.9,178.5Z"/><path class="i" d="M315.1,192.1a3,3,0,0,1-1.3,2.3c-.7.4-1.3,0-1.3-.8a2.9,2.9,0,0,1,1.3-2.2C314.5,191,315.1,191.3,315.1,192.1Z"/><path class="i" d="M319.2,189.8a2.9,2.9,0,0,1-1.3,2.2c-.7.4-1.2.1-1.2-.8a2.7,2.7,0,0,1,1.2-2.2C318.6,188.6,319.2,189,319.2,189.8Z"/><path class="i" d="M323.3,187.4a2.9,2.9,0,0,1-1.3,2.2c-.7.4-1.2.1-1.2-.7a2.7,2.7,0,0,1,1.2-2.2C322.7,186.3,323.3,186.6,323.3,187.4Z"/><path class="h" d="M288.7,187.3l-14.8-8.5c-1-.5-.8-1.5.2-2.1l14.3-8.2a4,4,0,0,1,3.5-.2l14.8,8.6c.9.5.8,1.4-.2,2l-14.3,8.3A3.9,3.9,0,0,1,288.7,187.3Z"/><path class="i" d="M290.1,180.2,288,179c-.1-.1-.1-.2.1-.3l1.9-1.1h.5l2.1,1.2c.1.1.1.2-.1.3l-1.9,1.1Z"/><path class="f" d="M273.9,178.8h.2l14.3-8.3a3.6,3.6,0,0,1,3.5-.1l14.8,8.5c.8-.6.9-1.4,0-1.9l-14.8-8.6a4,4,0,0,0-3.5.2l-14.3,8.2C273.1,177.3,272.9,178.3,273.9,178.8Z"/><path class="e" d="M230.6,305.4,176,274.2c-2-1.1-1.7-3.1.6-4.4L208,251.6c2.3-1.3,5.8-1.5,7.8-.3l54.6,31.1c2,1.2,1.7,3.2-.6,4.5L238.4,305A8.6,8.6,0,0,1,230.6,305.4Z"/><path class="f" d="M275.2,271.8h0V144.4l-50.6-13.3-9.4-5.4c-2.1-1.2-5.8-1.1-8.3.4l-8.7,5h-27l8,123a2.4,2.4,0,0,0,1.4,2.2l50.6,38.1c2.1,1.3,5.8,1.1,8.3-.3l33.7-19.5C274.6,273.8,275.3,272.7,275.2,271.8Z"/><path class="j" d="M211.4,125.1a9.7,9.7,0,0,0-4.5,1.1l-8.7,5.1h-27V259a2.4,2.4,0,0,0,1.4,2.2l58.6,33.4a7.6,7.6,0,0,0,3.8.9l.6-128.6Z"/><path class="h" d="M231.7,294.9a9.7,9.7,0,0,0,6.7-.1V165.4h-6.7Z"/><path class="j" d="M231.2,166.9l-58.6-33.4c-2.1-1.2-1.9-3.4.6-4.8l33.7-19.4c2.5-1.5,6.2-1.6,8.3-.4l58.6,33.4c2.1,1.2,1.9,3.4-.6,4.8l-33.7,19.5C237,168,233.3,168.2,231.2,166.9Z"/><path class="l" d="M273.2,144.8l-33.7,19.4c-2.5,1.4-6.2,1.6-8.3.3l-58.6-33.3a3.6,3.6,0,0,1-1.1-1,2.2,2.2,0,0,0,1.1,3.3l58.6,33.4c2.1,1.3,5.8,1.1,8.3-.3l33.7-19.5c1.9-1.1,2.5-2.6,1.7-3.9A5.3,5.3,0,0,1,273.2,144.8Z"/><path class="h" d="M232.8,153.4l-39-22.6c-1-.6-.8-1.6.3-2.3l15.8-9.1a4.5,4.5,0,0,1,3.9-.1l39,22.6c1,.5.8,1.6-.3,2.2l-15.8,9.1A4.2,4.2,0,0,1,232.8,153.4Z"/><path class="i" d="M211.8,131.8l-2.3-1.3a.2.2,0,0,1,0-.3l2.2-1.3h.6l2.2,1.3c.2.1.1.2,0,.3l-2.2,1.3Z"/><path class="i" d="M219.3,136.1l-2.2-1.3c-.2,0-.2-.2,0-.3l2.2-1.2h.5l2.3,1.4c.1,0,.1.2-.1.3l-2.1,1.2Z"/><path class="i" d="M226.9,140.5l-2.3-1.3a.2.2,0,0,1,0-.3l2.2-1.3h.6l2.2,1.3c.2.1.1.2,0,.3l-2.2,1.3Z"/><path class="i" d="M234.4,144.8l-2.3-1.3c-.1-.1-.1-.2.1-.3l2.2-1.3h.5l2.3,1.3c.1.1.1.3-.1.3l-2.2,1.3Z"/><path class="f" d="M193.8,130.8h.3l15.8-9.1a4.2,4.2,0,0,1,3.9-.2L252.7,144c.9-.7,1-1.6.1-2.1l-39-22.6a4.5,4.5,0,0,0-3.9.1l-15.8,9.1C193,129.2,192.8,130.2,193.8,130.8Z"/><path class="m" d="M246.1,192.2l22.1-12.7a5.3,5.3,0,0,0,2.3-4.3v-8c0-1.6-1-2.4-2.3-1.7l-22.1,12.7a5.3,5.3,0,0,0-2.3,4.3v8C243.8,192.1,244.8,192.9,246.1,192.2Z"/><path class="k" d="M269.3,165.3a2,2,0,0,1,.6,1.6v8a5.5,5.5,0,0,1-2.2,4.3l-22.2,12.7a1.5,1.5,0,0,1-1.1.2,1.3,1.3,0,0,0,1.7.1l22.1-12.7a5.3,5.3,0,0,0,2.3-4.3v-8C270.5,166.1,270,165.4,269.3,165.3Z"/><path class="n" d="M252.7,183.6l2.1-1.2a1.2,1.2,0,0,0,.5-1v-2.1c0-.4-.2-.6-.5-.4l-2.1,1.2a1.1,1.1,0,0,0-.4.9v2.2C252.3,183.5,252.5,183.7,252.7,183.6Z"/><path class="k" d="M259.5,179.6l2.1-1.1a1.2,1.2,0,0,0,.5-1v-2.2c0-.3-.2-.5-.5-.3l-2.1,1.1a1.5,1.5,0,0,0-.4,1v2.2C259.1,179.6,259.3,179.8,259.5,179.6Z"/><path class="m" d="M246.1,249.4l22.1-12.7a5.2,5.2,0,0,0,2.3-4.3v-7.9c0-1.7-1-2.4-2.3-1.7l-22.1,12.7a5.2,5.2,0,0,0-2.3,4.3v7.9C243.8,249.4,244.8,250.1,246.1,249.4Z"/><path class="k" d="M269.3,222.6a1.8,1.8,0,0,1,.6,1.6v7.9a5.4,5.4,0,0,1-2.2,4.3l-22.2,12.7a1.7,1.7,0,0,1-1.1.3c.4.4,1,.4,1.7,0l22.1-12.7a5.2,5.2,0,0,0,2.3-4.3v-7.9C270.5,223.4,270,222.7,269.3,222.6Z"/><path class="n" d="M252.7,240.8l2.1-1.2a.9.9,0,0,0,.5-.9v-2.2c0-.3-.2-.5-.5-.3l-2.1,1.1a1.5,1.5,0,0,0-.4,1v2.1C252.3,240.8,252.5,241,252.7,240.8Z"/><path class="n" d="M259.5,236.9l2.1-1.2a1.1,1.1,0,0,0,.5-.9v-2.2c0-.4-.2-.5-.5-.4l-2.1,1.2a1.5,1.5,0,0,0-.4,1v2.1C259.1,236.9,259.3,237.1,259.5,236.9Z"/><path class="m" d="M246.1,278.1l22.1-12.7a5.3,5.3,0,0,0,2.3-4.3v-8c0-1.6-1-2.4-2.3-1.7l-22.1,12.7a5.3,5.3,0,0,0-2.3,4.3v8C243.8,278,244.8,278.8,246.1,278.1Z"/><path class="k" d="M269.3,251.2a2,2,0,0,1,.6,1.6v8a5.5,5.5,0,0,1-2.2,4.3l-22.2,12.7a1.5,1.5,0,0,1-1.1.2,1.3,1.3,0,0,0,1.7.1l22.1-12.7a5.3,5.3,0,0,0,2.3-4.3v-8C270.5,252,270,251.3,269.3,251.2Z"/><path class="k" d="M252.7,269.5l2.1-1.2a1.2,1.2,0,0,0,.5-1v-2.1c0-.4-.2-.6-.5-.4l-2.1,1.2a1.1,1.1,0,0,0-.4.9v2.2C252.3,269.4,252.5,269.6,252.7,269.5Z"/><path class="n" d="M259.5,265.5l2.1-1.1a1.2,1.2,0,0,0,.5-1v-2.2c0-.3-.2-.5-.5-.3l-2.1,1.1a1.5,1.5,0,0,0-.4,1v2.2C259.1,265.5,259.3,265.7,259.5,265.5Z"/><path class="m" d="M246.1,220.8l22.1-12.7a5.2,5.2,0,0,0,2.3-4.3v-7.9c0-1.7-1-2.5-2.3-1.7l-22.1,12.6a5.5,5.5,0,0,0-2.3,4.4v7.9C243.8,220.8,244.8,221.5,246.1,220.8Z"/><path class="k" d="M269.3,193.9a2.1,2.1,0,0,1,.6,1.7v7.9a5.4,5.4,0,0,1-2.2,4.3l-22.2,12.7a1.5,1.5,0,0,1-1.1.2,1.3,1.3,0,0,0,1.7.1l22.1-12.7a5.2,5.2,0,0,0,2.3-4.3v-7.9C270.5,194.7,270,194,269.3,193.9Z"/><path class="k" d="M252.7,212.2l2.1-1.2a1.1,1.1,0,0,0,.5-.9v-2.2c0-.4-.2-.5-.5-.4l-2.1,1.2a1.5,1.5,0,0,0-.4.9v2.2C252.3,212.2,252.5,212.3,252.7,212.2Z"/><path class="k" d="M259.5,208.3l2.1-1.2a1.2,1.2,0,0,0,.5-1V204c0-.4-.2-.6-.5-.4l-2.1,1.2a1.3,1.3,0,0,0-.4.9v2.2C259.1,208.3,259.3,208.4,259.5,208.3Z"/><path class="f" d="M226.9,184l-51.1-29.5a4.7,4.7,0,0,1-2.1-3.9v-9.8c0-1.5.9-2.2,2.1-1.5l51.1,29.5a4.9,4.9,0,0,1,2.1,3.9v9.8C229,184,228,184.7,226.9,184Z"/><path class="j" d="M225.4,180.6l-48.2-27.8a2.3,2.3,0,0,1-1-2v-7.3c0-.8.4-1.2,1-.8l48.2,27.8a2.4,2.4,0,0,1,1.1,2v7.3C226.5,180.6,226,181,225.4,180.6Z"/><path class="o" d="M187.3,154.9l-7.2-4.2a2.3,2.3,0,0,1-1-1.9h0c0-.8.4-1.1,1-.8l7.2,4.2a2.6,2.6,0,0,1,1,1.9h0C188.3,154.9,187.8,155.2,187.3,154.9Z"/><path class="p" d="M193.4,157.1c0,.7-.5,1-1.2.7a2.8,2.8,0,0,1-1.2-2.1.8.8,0,0,1,1.2-.7A2.6,2.6,0,0,1,193.4,157.1Z"/><path class="p" d="M197.6,159.5a.8.8,0,0,1-1.2.7,2.6,2.6,0,0,1-1.2-2.1c0-.7.5-1,1.2-.7A2.8,2.8,0,0,1,197.6,159.5Z"/><path class="o" d="M201.7,161.9c0,.7-.5,1-1.2.7a2.7,2.7,0,0,1-1.1-2.1c0-.7.5-1,1.1-.7A2.6,2.6,0,0,1,201.7,161.9Z"/><path class="p" d="M205.9,164.3a.8.8,0,0,1-1.2.7,2.6,2.6,0,0,1-1.2-2.1c0-.7.5-1,1.2-.7A2.8,2.8,0,0,1,205.9,164.3Z"/><path class="p" d="M223.4,176.5l-2.4-1.4a1.4,1.4,0,0,1-.7-1.2v-2.6c0-.4.3-.7.7-.5l2.4,1.4a1.5,1.5,0,0,1,.6,1.3v2.6C224,176.5,223.8,176.8,223.4,176.5Z"/><path class="f" d="M226.9,201.2l-51.1-29.5a4.7,4.7,0,0,1-2.1-3.9V158c0-1.5.9-2.2,2.1-1.6L226.9,186a4.9,4.9,0,0,1,2.1,3.9v9.8C229,201.2,228,201.9,226.9,201.2Z"/><path class="j" d="M225.4,197.8,177.2,170a2.3,2.3,0,0,1-1-2v-7.3c0-.8.4-1.2,1-.8l48.2,27.8a2.4,2.4,0,0,1,1.1,2V197C226.5,197.8,226,198.2,225.4,197.8Z"/><path class="o" d="M187.3,172.1l-7.2-4.2a2.3,2.3,0,0,1-1-1.9h0c0-.8.4-1.1,1-.8l7.2,4.2a2.6,2.6,0,0,1,1,1.9h0C188.3,172.1,187.8,172.4,187.3,172.1Z"/><path class="o" d="M193.4,174.3c0,.7-.5,1-1.2.6a2.5,2.5,0,0,1-1.2-2,.7.7,0,0,1,1.2-.7A2.6,2.6,0,0,1,193.4,174.3Z"/><path class="p" d="M197.6,176.7a.7.7,0,0,1-1.2.6,2.3,2.3,0,0,1-1.2-2c0-.7.5-1,1.2-.7A2.8,2.8,0,0,1,197.6,176.7Z"/><path class="o" d="M201.7,179.1c0,.7-.5,1-1.2.6a2.4,2.4,0,0,1-1.1-2c0-.7.5-1,1.1-.7A2.6,2.6,0,0,1,201.7,179.1Z"/><path class="p" d="M205.9,181.5a.8.8,0,0,1-1.2.7,2.6,2.6,0,0,1-1.2-2.1c0-.7.5-1,1.2-.7A2.8,2.8,0,0,1,205.9,181.5Z"/><path class="p" d="M223.4,193.7l-2.4-1.4a1.4,1.4,0,0,1-.7-1.2v-2.6c0-.5.3-.7.7-.5l2.4,1.4a1.5,1.5,0,0,1,.6,1.3v2.5C224,193.7,223.8,193.9,223.4,193.7Z"/><path class="f" d="M226.9,218.4l-51.1-29.5a4.7,4.7,0,0,1-2.1-3.9v-9.8c0-1.5.9-2.2,2.1-1.6l51.1,29.6a4.9,4.9,0,0,1,2.1,3.9v9.8C229,218.4,228,219.1,226.9,218.4Z"/><path class="j" d="M225.4,215l-48.2-27.8a2.3,2.3,0,0,1-1-2v-7.3c0-.8.4-1.2,1-.8l48.2,27.8a2.4,2.4,0,0,1,1.1,2v7.3C226.5,215,226,215.3,225.4,215Z"/><path class="o" d="M187.3,189.3l-7.2-4.2a2.3,2.3,0,0,1-1-1.9h0c0-.8.4-1.1,1-.8l7.2,4.2a2.6,2.6,0,0,1,1,1.9h0C188.3,189.3,187.8,189.6,187.3,189.3Z"/><path class="o" d="M193.4,191.5c0,.7-.5,1-1.2.6a2.5,2.5,0,0,1-1.2-2c0-.8.6-1.1,1.2-.7A2.6,2.6,0,0,1,193.4,191.5Z"/><path class="p" d="M197.6,193.9a.7.7,0,0,1-1.2.6,2.3,2.3,0,0,1-1.2-2c0-.8.5-1.1,1.2-.7A2.8,2.8,0,0,1,197.6,193.9Z"/><path class="o" d="M201.7,196.3c0,.7-.5,1-1.2.6a2.4,2.4,0,0,1-1.1-2c0-.8.5-1.1,1.1-.7A2.6,2.6,0,0,1,201.7,196.3Z"/><path class="p" d="M205.9,198.7a.7.7,0,0,1-1.2.6,2.3,2.3,0,0,1-1.2-2c0-.8.5-1.1,1.2-.7A2.8,2.8,0,0,1,205.9,198.7Z"/><path class="p" d="M223.4,210.9l-2.4-1.4a1.4,1.4,0,0,1-.7-1.2v-2.6c0-.5.3-.7.7-.5l2.4,1.4a1.5,1.5,0,0,1,.6,1.3v2.5C224,210.9,223.8,211.1,223.4,210.9Z"/><path class="f" d="M226.9,235.6l-51.1-29.5a4.9,4.9,0,0,1-2.1-4v-9.7c0-1.5.9-2.2,2.1-1.6l51.1,29.5a5.3,5.3,0,0,1,2.1,4v9.8C229,235.6,228,236.3,226.9,235.6Z"/><path class="j" d="M225.4,232.2l-48.2-27.8a2.6,2.6,0,0,1-1-2V195c0-.7.4-1.1,1-.8l48.2,27.9a2.4,2.4,0,0,1,1.1,2v7.3C226.5,232.2,226,232.5,225.4,232.2Z"/><path class="o" d="M187.3,206.5l-7.2-4.2a2.3,2.3,0,0,1-1-1.9h0c0-.8.4-1.1,1-.8l7.2,4.2a2.6,2.6,0,0,1,1,1.9h0C188.3,206.5,187.8,206.8,187.3,206.5Z"/><path class="p" d="M193.4,208.7c0,.7-.5,1-1.2.6a2.7,2.7,0,0,1-1.2-2c0-.8.6-1.1,1.2-.7A2.6,2.6,0,0,1,193.4,208.7Z"/><path class="p" d="M197.6,211.1a.7.7,0,0,1-1.2.6,2.4,2.4,0,0,1-1.2-2c0-.8.5-1.1,1.2-.7A2.8,2.8,0,0,1,197.6,211.1Z"/><path class="o" d="M201.7,213.5c0,.7-.5,1-1.2.6a2.6,2.6,0,0,1-1.1-2c0-.8.5-1.1,1.1-.7A2.6,2.6,0,0,1,201.7,213.5Z"/><path class="p" d="M205.9,215.9a.7.7,0,0,1-1.2.6,2.4,2.4,0,0,1-1.2-2c0-.8.5-1.1,1.2-.7A2.8,2.8,0,0,1,205.9,215.9Z"/><path class="o" d="M223.4,228.1l-2.4-1.4a1.4,1.4,0,0,1-.7-1.2v-2.6c0-.5.3-.7.7-.5l2.4,1.4a1.5,1.5,0,0,1,.6,1.3v2.5C224,228.1,223.8,228.3,223.4,228.1Z"/><path class="f" d="M226.9,252.8l-51.1-29.5a4.9,4.9,0,0,1-2.1-4v-9.7c0-1.5.9-2.2,2.1-1.6l51.1,29.5a5.3,5.3,0,0,1,2.1,4v9.7C229,252.8,228,253.5,226.9,252.8Z"/><path class="j" d="M225.4,249.4l-48.2-27.8a2.6,2.6,0,0,1-1-2v-7.4c0-.7.4-1.1,1-.8l48.2,27.9a2.4,2.4,0,0,1,1.1,2v7.3C226.5,249.4,226,249.7,225.4,249.4Z"/><path class="o" d="M187.3,223.7l-7.2-4.2a2.3,2.3,0,0,1-1-1.9h0c0-.8.4-1.1,1-.8l7.2,4.1a2.8,2.8,0,0,1,1,2h0C188.3,223.6,187.8,224,187.3,223.7Z"/><path class="p" d="M193.4,225.8c0,.8-.5,1.1-1.2.7a2.8,2.8,0,0,1-1.2-2c0-.8.6-1.1,1.2-.7A2.5,2.5,0,0,1,193.4,225.8Z"/><path class="o" d="M197.6,228.2c0,.8-.6,1.1-1.2.7a2.5,2.5,0,0,1-1.2-2c0-.8.5-1.1,1.2-.7A2.8,2.8,0,0,1,197.6,228.2Z"/><path class="o" d="M201.7,230.6c0,.8-.5,1.1-1.2.7a2.6,2.6,0,0,1-1.1-2c0-.8.5-1.1,1.1-.7A2.5,2.5,0,0,1,201.7,230.6Z"/><path class="o" d="M205.9,233c0,.8-.6,1.1-1.2.7a2.4,2.4,0,0,1-1.2-2c0-.8.5-1.1,1.2-.7A2.8,2.8,0,0,1,205.9,233Z"/><path class="o" d="M223.4,245.3l-2.4-1.4a1.5,1.5,0,0,1-.7-1.2v-2.6c0-.5.3-.7.7-.5l2.4,1.4a1.5,1.5,0,0,1,.6,1.3v2.5C224,245.3,223.8,245.5,223.4,245.3Z"/><path class="f" d="M226.9,270l-51.1-29.5a4.9,4.9,0,0,1-2.1-4v-9.7c0-1.5.9-2.2,2.1-1.6l51.1,29.5a5.3,5.3,0,0,1,2.1,4v9.7C229,270,228,270.7,226.9,270Z"/><path class="j" d="M225.4,266.6l-48.2-27.8a2.6,2.6,0,0,1-1-2v-7.4c0-.7.4-1.1,1-.8l48.2,27.9a2.4,2.4,0,0,1,1.1,2v7.3C226.5,266.6,226,266.9,225.4,266.6Z"/><path class="o" d="M187.3,240.9l-7.2-4.2a2.3,2.3,0,0,1-1-1.9h0c0-.8.4-1.1,1-.8l7.2,4.1a2.8,2.8,0,0,1,1,2h0C188.3,240.8,187.8,241.2,187.3,240.9Z"/><path class="p" d="M193.4,243c0,.8-.5,1.1-1.2.7a2.8,2.8,0,0,1-1.2-2c0-.8.6-1.1,1.2-.7A2.5,2.5,0,0,1,193.4,243Z"/><path class="p" d="M197.6,245.4c0,.8-.6,1.1-1.2.7a2.5,2.5,0,0,1-1.2-2c0-.8.5-1.1,1.2-.7A2.8,2.8,0,0,1,197.6,245.4Z"/><path class="o" d="M201.7,247.8c0,.8-.5,1.1-1.2.7a2.7,2.7,0,0,1-1.1-2c0-.8.5-1.1,1.1-.7A2.5,2.5,0,0,1,201.7,247.8Z"/><path class="p" d="M205.9,250.2c0,.8-.6,1.1-1.2.7a2.5,2.5,0,0,1-1.2-2c0-.8.5-1.1,1.2-.7A2.8,2.8,0,0,1,205.9,250.2Z"/><path class="p" d="M223.4,262.5l-2.4-1.4a1.5,1.5,0,0,1-.7-1.2v-2.6c0-.5.3-.7.7-.5l2.4,1.4a1.5,1.5,0,0,1,.6,1.3V262C224,262.5,223.8,262.7,223.4,262.5Z"/><path class="f" d="M226.9,287.2l-51.1-29.5a5,5,0,0,1-2.1-4V244c0-1.6.9-2.3,2.1-1.6l51.1,29.5a5.3,5.3,0,0,1,2.1,4v9.7C229,287.2,228,287.9,226.9,287.2Z"/><path class="j" d="M225.4,283.8,177.2,256a2.7,2.7,0,0,1-1-2.1v-7.3c0-.8.4-1.1,1-.8l48.2,27.8a2.7,2.7,0,0,1,1.1,2.1V283C226.5,283.8,226,284.1,225.4,283.8Z"/><path class="o" d="M187.3,258.1l-7.2-4.2a2.3,2.3,0,0,1-1-2h0c0-.7.4-1,1-.7l7.2,4.1a2.8,2.8,0,0,1,1,2h0C188.3,258,187.8,258.4,187.3,258.1Z"/><path class="o" d="M193.4,260.2c0,.8-.5,1.1-1.2.7a2.8,2.8,0,0,1-1.2-2c0-.8.6-1.1,1.2-.7A2.5,2.5,0,0,1,193.4,260.2Z"/><path class="p" d="M197.6,262.6c0,.8-.6,1.1-1.2.7a2.5,2.5,0,0,1-1.2-2c0-.8.5-1.1,1.2-.7A2.8,2.8,0,0,1,197.6,262.6Z"/><path class="o" d="M201.7,265c0,.8-.5,1.1-1.2.7a2.7,2.7,0,0,1-1.1-2c0-.8.5-1.1,1.1-.7A2.5,2.5,0,0,1,201.7,265Z"/><path class="p" d="M205.9,267.4c0,.8-.6,1.1-1.2.7a2.5,2.5,0,0,1-1.2-2c0-.8.5-1.1,1.2-.7A2.8,2.8,0,0,1,205.9,267.4Z"/><path class="o" d="M223.4,279.7l-2.4-1.4a1.5,1.5,0,0,1-.7-1.2v-2.6c0-.5.3-.7.7-.5l2.4,1.4a1.4,1.4,0,0,1,.6,1.2v2.6C224,279.7,223.8,279.9,223.4,279.7Z"/><polygon class="k" points="254.3 267.1 253.2 267.1 253.2 209.6 260 205.6 260 177.3 261.1 177.3 261.1 206.2 254.3 210.2 254.3 267.1"/><path class="e" d="M90.9,279.6a4.1,4.1,0,0,1-1.8-.5L70.3,268.5a1.9,1.9,0,0,1,0-3.2l46.9-27.1a9,9,0,0,1,8.7,0l53.5,31-.7,1.3-53.6-30.9a7.1,7.1,0,0,0-7.2,0L71.1,266.7c-.1,0-.1.1-.1.2s0,.2.1.2l18.8,10.7a2,2,0,0,0,2-.1l8-5.1.8,1.3L92.8,279A3.5,3.5,0,0,1,90.9,279.6Z"/><path class="e" d="M115.3,283.7,90.1,269.1c-1.6-.9-1.4-2.5.4-3.5l24.4-14.1a6.7,6.7,0,0,1,6-.2l25.3,14.6c1.5.8,1.3,2.4-.5,3.4l-24.3,14.1A6.6,6.6,0,0,1,115.3,283.7Z"/><path class="f" d="M154.6,254.8h0v-11H130.1l-8.5-4.9c-1.9-1.1-5.3-.9-7.5.4l-7.9,4.5H81.7V255a2.1,2.1,0,0,0,1.3,2l31.6,18.3a8.5,8.5,0,0,0,7.6-.3l30.5-17.6C154,256.6,154.6,255.7,154.6,254.8Z"/><path class="f" d="M118.1,238.2a7.7,7.7,0,0,0-4,1.1l-7.9,4.5H81.7V255a2.1,2.1,0,0,0,1.3,2l31.6,18.3a7.5,7.5,0,0,0,3.5.8Z"/><path class="h" d="M84.5,243.8H81.7V255a2.1,2.1,0,0,0,1.3,2l1.5.9Z"/><path class="h" d="M115.1,275.5a8.5,8.5,0,0,0,6.1,0V262.7h-6.1Z"/><path class="i" d="M114.6,264.1,83,245.9c-1.9-1.2-1.7-3.1.5-4.4l30.6-17.6c2.2-1.3,5.6-1.5,7.5-.3l31.7,18.2c1.9,1.1,1.7,3.1-.6,4.4l-30.5,17.6A8.5,8.5,0,0,1,114.6,264.1Z"/><path class="h" d="M115.2,260.8,88.7,245.5c-1.6-.9-1.4-2.5.4-3.6l25.6-14.8a7.2,7.2,0,0,1,6.4-.3l26.5,15.3c1.6,1,1.4,2.6-.5,3.7l-25.6,14.8A6.7,6.7,0,0,1,115.2,260.8Z"/><path class="p" d="M142.9,257.6a2.7,2.7,0,0,1-1.2,2.2c-.8.4-1.3.1-1.3-.7a2.6,2.6,0,0,1,1.3-2.2C142.4,256.5,142.9,256.8,142.9,257.6Z"/><path class="p" d="M147,255.3a2.7,2.7,0,0,1-1.2,2.2c-.7.4-1.3,0-1.3-.8a2.9,2.9,0,0,1,1.3-2.2C146.5,254.1,147,254.4,147,255.3Z"/><path class="i" d="M151.1,252.9a2.7,2.7,0,0,1-1.2,2.2c-.7.4-1.3.1-1.3-.7a3,3,0,0,1,1.3-2.3C150.6,251.7,151.1,252.1,151.1,252.9Z"/><path class="f" d="M154.6,237.3h0V226.4H130.1l-8.5-4.9a8.3,8.3,0,0,0-7.5.3l-7.9,4.6H81.7v11.2a2.2,2.2,0,0,0,1.3,2l31.6,18.3c2,1.1,5.3.9,7.6-.3l30.5-17.7A3.1,3.1,0,0,0,154.6,237.3Z"/><path class="f" d="M118.1,220.8a8.8,8.8,0,0,0-4,1l-7.9,4.6H81.7v11.2a2.2,2.2,0,0,0,1.3,2l31.6,18.3a6.5,6.5,0,0,0,3.5.7Z"/><path class="h" d="M84.5,226.4H81.7v11.2a2.2,2.2,0,0,0,1.3,2l1.5.9Z"/><path class="h" d="M115.1,258.1a8.6,8.6,0,0,0,6.1-.1V245.3h-6.1Z"/><path class="i" d="M114.6,246.7,83,228.4c-1.9-1.1-1.7-3,.5-4.3l30.6-17.7a8.3,8.3,0,0,1,7.5-.3l31.7,18.3c1.9,1.1,1.7,3.1-.6,4.3l-30.5,17.7A8.5,8.5,0,0,1,114.6,246.7Z"/><path class="h" d="M115.2,243.4,88.7,228.1c-1.6-.9-1.4-2.6.4-3.7l25.6-14.7a7.2,7.2,0,0,1,6.4-.3l26.5,15.3c1.6.9,1.4,2.6-.5,3.7l-25.6,14.7A7,7,0,0,1,115.2,243.4Z"/><path class="i" d="M142.9,240.2a2.7,2.7,0,0,1-1.2,2.2c-.8.4-1.3.1-1.3-.7a2.6,2.6,0,0,1,1.3-2.2C142.4,239.1,142.9,239.4,142.9,240.2Z"/><path class="o" d="M147,237.8a2.7,2.7,0,0,1-1.2,2.2c-.7.4-1.3.1-1.3-.7a2.9,2.9,0,0,1,1.3-2.2C146.5,236.7,147,237,147,237.8Z"/><path class="p" d="M151.1,235.4a2.8,2.8,0,0,1-1.2,2.3c-.7.4-1.3,0-1.3-.8a2.9,2.9,0,0,1,1.3-2.2C150.6,234.3,151.1,234.6,151.1,235.4Z"/><path class="f" d="M154.6,219.9h0V209H130.1l-8.5-4.9a8.3,8.3,0,0,0-7.5.3l-7.9,4.5H81.7v11.3c-.1.7.4,1.4,1.3,2l31.6,18.2c2,1.2,5.3,1,7.6-.3l30.5-17.6C154,221.7,154.6,220.8,154.6,219.9Z"/><path class="f" d="M118.1,203.3a8.8,8.8,0,0,0-4,1.1l-7.9,4.5H81.7v11.3c-.1.7.4,1.4,1.3,2l31.6,18.2a6.5,6.5,0,0,0,3.5.8Z"/><path class="h" d="M84.5,208.9H81.7v11.3c-.1.7.4,1.4,1.3,2l1.5.8Z"/><path class="h" d="M115.1,240.7a8.6,8.6,0,0,0,6.1-.1V227.9h-6.1Z"/><path class="j" d="M114.6,229.3,83,211c-1.9-1.1-1.7-3.1.5-4.4L114.1,189a8.3,8.3,0,0,1,7.5-.3l31.7,18.2c1.9,1.2,1.7,3.1-.6,4.4l-30.5,17.6C119.9,230.2,116.6,230.4,114.6,229.3Z"/><path class="k" d="M152.7,209.2l-30.5,17.6a8.5,8.5,0,0,1-7.6.3L83,208.9a4.5,4.5,0,0,1-1-.9c-.6,1.1-.3,2.2,1,3l31.6,18.3c2,1.1,5.3.9,7.6-.4l30.5-17.6c1.8-1,2.3-2.4,1.5-3.5A4.1,4.1,0,0,1,152.7,209.2Z"/><path class="o" d="M142.9,222.8a2.7,2.7,0,0,1-1.2,2.2c-.8.4-1.3,0-1.3-.8a2.6,2.6,0,0,1,1.3-2.2C142.4,221.6,142.9,221.9,142.9,222.8Z"/><path class="i" d="M147,220.4a2.7,2.7,0,0,1-1.2,2.2c-.7.4-1.3.1-1.3-.7a2.7,2.7,0,0,1,1.3-2.2C146.5,219.2,147,219.6,147,220.4Z"/><path class="i" d="M151.1,218a2.7,2.7,0,0,1-1.2,2.2c-.7.4-1.3.1-1.3-.7a2.9,2.9,0,0,1,1.3-2.2C150.6,216.9,151.1,217.2,151.1,218Z"/><path class="h" d="M116.5,217.9l-14.8-8.5c-.9-.5-.8-1.4.2-2.1l14.3-8.2a3.8,3.8,0,0,1,3.6-.1l14.8,8.5c.9.5.8,1.4-.3,2L120,217.8A3.6,3.6,0,0,1,116.5,217.9Z"/><path class="i" d="M117.9,210.8l-2-1.2q-.3-.2,0-.3l2-1.1h.5l2,1.1a.2.2,0,0,1,0,.3l-2,1.2Z"/><path class="f" d="M101.7,209.4h.2l14.3-8.3a4.1,4.1,0,0,1,3.6-.1l14.7,8.5c.9-.6.9-1.4.1-1.9L119.8,199a3.8,3.8,0,0,0-3.6.1l-14.3,8.2C100.9,208,100.8,208.9,101.7,209.4Z"/><path class="o" d="M112.6,232.4c0,.6-.4.8-.9.5a1.6,1.6,0,0,1-.8-1.4c0-.6.3-.8.8-.5A1.7,1.7,0,0,1,112.6,232.4Z"/><path class="p" d="M109.9,230.9c0,.6-.4.8-.8.5a1.9,1.9,0,0,1-.9-1.5c0-.5.4-.7.9-.5A2.2,2.2,0,0,1,109.9,230.9Z"/><path class="p" d="M112.6,235.7c0,.5-.4.7-.9.5a1.9,1.9,0,0,1-.8-1.5c0-.6.3-.8.8-.5A1.7,1.7,0,0,1,112.6,235.7Z"/><path class="p" d="M109.9,234.1c0,.6-.4.8-.8.5a1.7,1.7,0,0,1-.9-1.5c0-.5.4-.7.9-.5A2.2,2.2,0,0,1,109.9,234.1Z"/><path class="i" d="M112.6,249.8a.6.6,0,0,1-.9.5,1.9,1.9,0,0,1-.8-1.5c0-.5.3-.8.8-.5A1.9,1.9,0,0,1,112.6,249.8Z"/><path class="i" d="M109.9,248.3a.5.5,0,0,1-.8.5,2,2,0,0,1-.9-1.5c0-.6.4-.8.9-.5A1.9,1.9,0,0,1,109.9,248.3Z"/><path class="p" d="M112.6,253c0,.6-.4.8-.9.5a1.8,1.8,0,0,1-.8-1.5c0-.5.3-.8.8-.5A2,2,0,0,1,112.6,253Z"/><path class="o" d="M109.9,251.5a.5.5,0,0,1-.8.5,2,2,0,0,1-.9-1.5c0-.6.4-.8.9-.5A2,2,0,0,1,109.9,251.5Z"/><path class="i" d="M112.6,267.1c0,.6-.4.8-.9.5a1.6,1.6,0,0,1-.8-1.5c0-.5.3-.7.8-.4A1.7,1.7,0,0,1,112.6,267.1Z"/><path class="p" d="M109.9,265.6c0,.6-.4.8-.8.5a1.9,1.9,0,0,1-.9-1.5.6.6,0,0,1,.9-.5A2.2,2.2,0,0,1,109.9,265.6Z"/><path class="o" d="M112.6,270.4c0,.5-.4.7-.9.5a1.9,1.9,0,0,1-.8-1.5c0-.6.3-.8.8-.5A1.7,1.7,0,0,1,112.6,270.4Z"/><path class="i" d="M109.9,268.8c0,.6-.4.8-.8.5a1.9,1.9,0,0,1-.9-1.5c0-.5.4-.7.9-.5A2.2,2.2,0,0,1,109.9,268.8Z"/><path class="e" d="M118.5,296.6a4.8,4.8,0,0,1-2.6-.7L100,286.7a1.7,1.7,0,0,1,0-3l10.5-6.1.7,1.4-10.4,6v.2a.3.3,0,0,0,.1.2l15.9,9.2a3.5,3.5,0,0,0,3.7,0l31.2-17.8a5.1,5.1,0,0,1,5.2.1L182.9,292a4,4,0,0,0,3.7,0l12.6-7.3.8,1.3-12.6,7.3a5.5,5.5,0,0,1-5.3,0L156,278.2a3.5,3.5,0,0,0-3.7,0L121.1,296A5.8,5.8,0,0,1,118.5,296.6Z"/><path class="e" d="M257,355.5l-25.3-14.6c-1.5-.9-1.4-2.5.4-3.5l24.4-14.1a6.9,6.9,0,0,1,6.1-.2l25.2,14.6c1.6.9,1.4,2.4-.4,3.4L263,355.2A6.4,6.4,0,0,1,257,355.5Z"/><path class="f" d="M296.2,326.4h0V315.5H271.7l-8.4-4.8c-2-1.2-5.4-1-7.6.3l-7.9,4.5H223.3v11.2a2.5,2.5,0,0,0,1.3,2.1l31.6,18.2a8.5,8.5,0,0,0,7.6-.3L294.3,329C295.6,328.2,296.3,327.3,296.2,326.4Z"/><path class="f" d="M259.8,310a8.1,8.1,0,0,0-4.1,1.1l-7.9,4.5H223.3v11.2a2.5,2.5,0,0,0,1.3,2.1l31.6,18.2a8,8,0,0,0,3.6.8Z"/><path class="h" d="M226.1,315.6h-2.8v11.2a2.5,2.5,0,0,0,1.3,2.1l1.5.8Z"/><path class="h" d="M256.7,347.3a8.5,8.5,0,0,0,6.1,0V334.5h-6.1Z"/><path class="i" d="M256.2,335.9l-31.6-18.2c-1.9-1.1-1.7-3.1.6-4.4l30.5-17.6c2.2-1.3,5.6-1.5,7.6-.3l31.6,18.2c1.9,1.1,1.7,3.1-.6,4.4l-30.5,17.6A8.5,8.5,0,0,1,256.2,335.9Z"/><path class="h" d="M256.8,332.6l-26.5-15.3c-1.6-.9-1.4-2.5.5-3.6l25.6-14.8a7,7,0,0,1,6.3-.3l26.5,15.3c1.6,1,1.4,2.6-.5,3.7l-25.5,14.8A6.9,6.9,0,0,1,256.8,332.6Z"/><path class="o" d="M284.6,329.4a2.9,2.9,0,0,1-1.3,2.2c-.7.5-1.3.1-1.3-.7a2.9,2.9,0,0,1,1.3-2.2C284,328.3,284.6,328.6,284.6,329.4Z"/><path class="p" d="M288.7,327.1a2.9,2.9,0,0,1-1.3,2.2c-.7.4-1.3,0-1.3-.8a2.9,2.9,0,0,1,1.3-2.2C288.1,325.9,288.7,326.2,288.7,327.1Z"/><path class="p" d="M292.8,324.7a2.9,2.9,0,0,1-1.3,2.2c-.7.4-1.3.1-1.3-.7a2.7,2.7,0,0,1,1.3-2.2C292.2,323.5,292.8,323.9,292.8,324.7Z"/><path class="f" d="M296.2,308.9h0V298H271.7l-8.4-4.9a8.5,8.5,0,0,0-7.6.3l-7.9,4.6H223.3v11.2a2.2,2.2,0,0,0,1.3,2l31.6,18.3a8.5,8.5,0,0,0,7.6-.3l30.5-17.7C295.6,310.8,296.3,309.8,296.2,308.9Z"/><path class="f" d="M259.8,292.6a9.2,9.2,0,0,0-4.1,1l-7.9,4.6H223.3v11.2a2.3,2.3,0,0,0,1.3,2l31.6,18.3a6.8,6.8,0,0,0,3.6.7Z"/><path class="h" d="M226.1,298.2h-2.8v11.2a2.3,2.3,0,0,0,1.3,2l1.5.9Z"/><path class="h" d="M256.7,329.9a8.6,8.6,0,0,0,6.1-.1V317.1h-6.1Z"/><path class="i" d="M256.2,318.5l-31.6-18.3c-1.9-1.1-1.7-3,.6-4.3l30.5-17.7a8.5,8.5,0,0,1,7.6-.3l31.6,18.3c1.9,1.1,1.7,3.1-.6,4.4l-30.5,17.6A8.5,8.5,0,0,1,256.2,318.5Z"/><path class="h" d="M256.8,315.2l-26.5-15.3c-1.6-.9-1.4-2.6.5-3.7l25.6-14.7a7,7,0,0,1,6.3-.3l26.5,15.3c1.6.9,1.4,2.6-.5,3.7l-25.5,14.7A7.3,7.3,0,0,1,256.8,315.2Z"/><path class="o" d="M284.6,312a2.9,2.9,0,0,1-1.3,2.2c-.7.4-1.3.1-1.3-.7a2.9,2.9,0,0,1,1.3-2.2C284,310.9,284.6,311.2,284.6,312Z"/><path class="p" d="M288.7,309.6a2.9,2.9,0,0,1-1.3,2.2c-.7.4-1.3.1-1.3-.7a2.9,2.9,0,0,1,1.3-2.2C288.1,308.5,288.7,308.8,288.7,309.6Z"/><path class="o" d="M292.8,307.3a2.9,2.9,0,0,1-1.3,2.2c-.7.4-1.3,0-1.3-.8a2.9,2.9,0,0,1,1.3-2.2C292.2,306.1,292.8,306.4,292.8,307.3Z"/><path class="f" d="M296.2,291.5h0V280.6H271.7l-8.4-4.9a8.5,8.5,0,0,0-7.6.3l-7.9,4.6H223.3v11.3a2.3,2.3,0,0,0,1.3,2L256.2,312c2,1.2,5.4,1,7.6-.3l30.5-17.6C295.6,293.4,296.3,292.4,296.2,291.5Z"/><path class="f" d="M259.8,275.1a9.3,9.3,0,0,0-4.1,1.1l-7.9,4.5H223.3V292a2.5,2.5,0,0,0,1.3,2l31.6,18.2a6.8,6.8,0,0,0,3.6.8Z"/><path class="h" d="M226.1,280.7h-2.8V292a2.5,2.5,0,0,0,1.3,2l1.5.8Z"/><path class="h" d="M256.7,312.5a8.6,8.6,0,0,0,6.1-.1V299.7h-6.1Z"/><path class="j" d="M256.2,301.1l-31.6-18.3c-1.9-1.1-1.7-3.1.6-4.4l30.5-17.6a8.5,8.5,0,0,1,7.6-.3l31.6,18.2c1.9,1.2,1.7,3.1-.6,4.4l-30.5,17.6A8.5,8.5,0,0,1,256.2,301.1Z"/><path class="k" d="M294.3,281l-30.5,17.6a8.5,8.5,0,0,1-7.6.3l-31.6-18.2a3.8,3.8,0,0,1-.9-.9c-.7,1.1-.4,2.2.9,3l31.6,18.3a8.5,8.5,0,0,0,7.6-.4l30.5-17.6c1.8-1,2.3-2.4,1.6-3.5A4.5,4.5,0,0,1,294.3,281Z"/><path class="p" d="M284.6,294.6a2.9,2.9,0,0,1-1.3,2.2c-.7.4-1.3.1-1.3-.8a2.9,2.9,0,0,1,1.3-2.2C284,293.4,284.6,293.7,284.6,294.6Z"/><path class="i" d="M288.7,292.2a2.9,2.9,0,0,1-1.3,2.2c-.7.4-1.3.1-1.3-.7a2.9,2.9,0,0,1,1.3-2.2C288.1,291,288.7,291.4,288.7,292.2Z"/><path class="o" d="M292.8,289.8a2.9,2.9,0,0,1-1.3,2.2c-.7.4-1.3.1-1.3-.7a2.9,2.9,0,0,1,1.3-2.2C292.2,288.7,292.8,289,292.8,289.8Z"/><path class="h" d="M258.1,289.7l-14.8-8.5c-.9-.5-.8-1.4.3-2l14.3-8.3a3.6,3.6,0,0,1,3.5-.1l14.8,8.5c.9.5.8,1.4-.3,2l-14.2,8.3A3.8,3.8,0,0,1,258.1,289.7Z"/><path class="i" d="M259.5,282.6l-2-1.2a.2.2,0,0,1,0-.3l2-1.1a.5.5,0,0,1,.5,0l2,1.1c.2.1.1.2,0,.3l-2,1.2Z"/><path class="f" d="M243.3,281.2h.3l14.3-8.3a3.9,3.9,0,0,1,3.5-.1l14.8,8.5c.8-.6.8-1.4,0-1.9l-14.8-8.5a3.6,3.6,0,0,0-3.5.1l-14.3,8.3C242.5,279.8,242.4,280.7,243.3,281.2Z"/></svg>