<svg xmlns="http://www.w3.org/2000/svg" xmlns:xlink="http://www.w3.org/1999/xlink" viewBox="0 0 400 400"><defs><style>.a{isolation:isolate;}.b{fill:url(#a);}.c{fill:#1a2e35;}.d{fill:#fafafa;}.e,.h,.u{opacity:0.2;}.f,.h{fill:#37b5e8;}.g{opacity:0.4;}.i{fill:#ffcf00;}.j{fill:red;}.k{fill:#375a64;}.l{fill:#288ed9;}.m{fill:#ffe7cb;}.n{fill:#f0d2b9;}.o{fill:#21e2e2;}.p,.y{opacity:0.3;}.q{fill:#1f364c;}.r{fill:#152735;}.s{fill:#0e71bb;}.t{fill:#f59b6b;}.u,.z{mix-blend-mode:overlay;}.v{fill:url(#b);}.w{fill:#e1e1e1;}.x{fill:#fff;}.z{opacity:0.25;}</style><linearGradient id="a" x1="213.35" y1="390.96" x2="164.38" y2="113.24" gradientUnits="userSpaceOnUse"><stop offset="0" stop-color="#c6e6ff"/><stop offset="1" stop-color="#fff"/></linearGradient><linearGradient id="b" x1="68.32" y1="226.59" x2="94.35" y2="226.59" gradientUnits="userSpaceOnUse"><stop offset="0" stop-color="#ffbc98"/><stop offset="1" stop-color="#ff9f6c"/></linearGradient></defs><title>usage-germany-vps</title><g class="a"><path class="b" d="M45.4,367.1S-6.9,311.3,19.3,251.2c25-57.3,66.6,4.1,122.6-86.7S264,94,281.8,167.6c20.8,85.7,64.4,54.1,87.6,91.8,26.5,43.1-2.4,92.1-20.6,107.7Z"/><path class="c" d="M360.8,366.1c0,.1-73.1.2-163.3.2s-163.4-.1-163.4-.2,73.1-.2,163.4-.2S360.8,366,360.8,366.1Z"/><rect class="d" x="146.8" y="78.9" width="143.1" height="131.1"/><path class="c" d="M290.4,210.3H146.5V78.5H290.4Zm-143.2-.7H289.6V79.2H147.2Z"/><rect class="c" x="143.5" y="71" width="149" height="8.36"/><g class="e"><polygon class="f" points="147.2 79.3 289.7 93.3 289.6 79.3 147.2 79.3"/></g><g class="g"><rect class="f" x="219.6" y="135.1" width="4.8" height="102.01" transform="translate(35.9 408.2) rotate(-90)"/></g><g class="e"><rect class="f" x="228.8" y="135" width="4.8" height="83.79" transform="translate(54.3 408) rotate(-90)"/></g><g class="g"><rect class="f" x="223.1" y="119.8" width="4.8" height="95.61" transform="translate(57.9 393.1) rotate(-90)"/></g><rect class="h" x="220.7" y="108.4" width="4.8" height="99.94" transform="translate(64.8 381.4) rotate(-90)"/><g class="g"><rect class="f" x="229.3" y="107.7" width="4.8" height="82.7" transform="translate(82.7 380.8) rotate(-90)"/></g><g class="e"><rect class="f" x="232.7" y="101.8" width="4.8" height="75.97" transform="translate(95.3 374.9) rotate(-90)"/></g><g class="g"><rect class="f" x="222.4" y="82.3" width="4.8" height="96.5" transform="translate(94.3 355.3) rotate(-90)"/></g><g class="e"><rect class="f" x="226.7" y="77.3" width="4.8" height="87.83" transform="translate(107.9 350.4) rotate(-90)"/></g><rect class="i" x="178.3" y="109.6" width="94.8" height="4.8"/><rect class="j" x="193.1" y="100.3" width="80" height="4.8"/><rect x="187.1" y="91" width="86" height="4.8"/><g class="e"><path class="f" d="M276.8,193.8c0,.1-15.3.2-34.2.2s-34.1-.1-34.1-.2,15.3-.2,34.1-.2S276.8,193.7,276.8,193.8Z"/></g><path class="h" d="M276.8,89.1c.1,0,.2,22.7.2,50.8s-.1,50.9-.2,50.9-.2-22.8-.2-50.9S276.7,89.1,276.8,89.1Z"/><path class="h" d="M281,181.7a17.1,17.1,0,0,1,.2,3.6,16.5,16.5,0,0,1-.2,3.5,16.5,16.5,0,0,1-.2-3.5A17.1,17.1,0,0,1,281,181.7Z"/><path class="h" d="M281.2,169.9a23.5,23.5,0,0,1,.2,4.2,24.2,24.2,0,0,1-.2,4.3,24.2,24.2,0,0,1-.2-4.3A23.5,23.5,0,0,1,281.2,169.9Z"/><path class="h" d="M281.2,159.8a23.5,23.5,0,0,1,.2,4.2,24.2,24.2,0,0,1-.2,4.3,24.2,24.2,0,0,1-.2-4.3A23.5,23.5,0,0,1,281.2,159.8Z"/><path class="h" d="M281.2,149.7a24.2,24.2,0,0,1,.2,4.3,23.5,23.5,0,0,1-.2,4.2,23.5,23.5,0,0,1-.2-4.2A24.2,24.2,0,0,1,281.2,149.7Z"/><path class="h" d="M281.2,139.6a24.2,24.2,0,0,1,.2,4.3,23.5,23.5,0,0,1-.2,4.2,23.5,23.5,0,0,1-.2-4.2A24.2,24.2,0,0,1,281.2,139.6Z"/><path class="h" d="M281.2,129.5a24.2,24.2,0,0,1,.2,4.3,25.2,25.2,0,0,1-.2,4.3,25.2,25.2,0,0,1-.2-4.3A24.2,24.2,0,0,1,281.2,129.5Z"/><path class="h" d="M281.2,119.4a25.2,25.2,0,0,1,.2,4.3,24.2,24.2,0,0,1-.2,4.3,24.2,24.2,0,0,1-.2-4.3A25.2,25.2,0,0,1,281.2,119.4Z"/><g class="e"><path class="f" d="M281.2,109.4a23.5,23.5,0,0,1,.2,4.2,24.2,24.2,0,0,1-.2,4.3,24.2,24.2,0,0,1-.2-4.3A23.5,23.5,0,0,1,281.2,109.4Z"/></g><g class="e"><path class="f" d="M281.2,99.3a23.5,23.5,0,0,1,.2,4.2,24.2,24.2,0,0,1-.2,4.3,24.2,24.2,0,0,1-.2-4.3A23.5,23.5,0,0,1,281.2,99.3Z"/></g><g class="e"><path class="f" d="M281.2,89.2a24.2,24.2,0,0,1,.2,4.3,23.5,23.5,0,0,1-.2,4.2,23.5,23.5,0,0,1-.2-4.2A24.2,24.2,0,0,1,281.2,89.2Z"/></g><path class="c" d="M196.5,155.7a1,1,0,0,1,.7-.6,2,2,0,0,1,1,.2.8.8,0,0,1,.5.5,1.7,1.7,0,0,1-.1.7,1.4,1.4,0,0,1-1.2.6,1.3,1.3,0,0,1-.9-.5.9.9,0,0,1-.1-.7v-.2c.1,0-.1.4.3.7a.8.8,0,0,0,.7.3.7.7,0,0,0,.7-.4.4.4,0,0,0-.2-.7,1,1,0,0,0-.7-.2Z"/><g class="e"><path class="f" d="M197,74.4c.1,0,.2,7.9.2,17.6s-.1,17.6-.2,17.6-.2-7.9-.2-17.6S196.9,74.4,197,74.4Z"/></g><g class="e"><path class="f" d="M192.1,86.4c.1,0,.2,5.1.2,11.3s-.1,11.3-.2,11.3-.2-5-.2-11.3S192,86.4,192.1,86.4Z"/></g><rect class="k" x="320.2" y="293.5" width="5.2" height="62.82" transform="translate(645.7 649.9) rotate(180)"/><path class="k" d="M285.8,296.4h74.9a8.2,8.2,0,0,0-8.1-8.2H293.9a8.2,8.2,0,0,0-8.1,8.2Z"/><path class="k" d="M299.9,362.1h.8a22.3,22.3,0,1,1,44.6,0h.7a23.1,23.1,0,1,0-46.1,0Z"/><path class="c" d="M342.2,363.2a3.5,3.5,0,1,0,3.5-3.5A3.5,3.5,0,0,0,342.2,363.2Z"/><path class="c" d="M296.7,362.7a3.5,3.5,0,0,0,3.4,3.5,3.5,3.5,0,0,0,3.5-3.5,3.5,3.5,0,0,0-3.5-3.4A3.4,3.4,0,0,0,296.7,362.7Z"/><path class="k" d="M300.1,356.4c0,.1,10.1.2,22.4.2s22.4-.1,22.4-.2-10-.2-22.4-.2S300.1,356.3,300.1,356.4Z"/><path class="k" d="M362.9,231.3v46.3a10.9,10.9,0,0,1-10.9,11H316.3l4.9-57.3a4.8,4.8,0,0,1,4.9-4.8h32A4.7,4.7,0,0,1,362.9,231.3Z"/><path class="l" d="M332.6,228.8h8.1l-2.8-14.5c-2.2-11.8-18.7-12.6-18.7-12.6l-13-.2s-9.6-1.3-15.6,5.4l-3.7,4.2-14.1,14.8-1.5-18.5-12.1,1.9,1.7,23.2a9.5,9.5,0,0,0,6.4,8.2c2.6.9,5.2.1,7.9-1.2,7-3.5,20.2-14.6,21.2-15.5-.6,1.2-.7,44.1-.7,44.1l42.4-1.7C337.3,259.5,332.6,228.8,332.6,228.8Z"/><path class="m" d="M313.7,261.5a80.5,80.5,0,0,1-6.9,4.2c-3,1.4-3.2,1.2-3.3.8s5.2-2.7,3.8-3-6.5,2.8-6.7,1.8,5.4-3.1,5.9-3.3.2-.9-.2-.7-7.1,2.9-7.5,1.5,1.2-.9,1.2-.9,6.2-2,6-2.7-3.9.4-5.1.9-1.9,0-1.7-.7,3.9-1.9,5.1-2.3,4.6-1.5,2.5-2.3-3.5-2.2-3.6-2.8.8-1,1.3-.5a6.9,6.9,0,0,0,1.9,1.2,6.1,6.1,0,0,0,1.8.5h1.4l4.5.4,2.3,6Z"/><path class="l" d="M333.4,207.1a16.3,16.3,0,0,1,5.4,8c1,3.3,3.8,14.4,6,22.6a10.7,10.7,0,0,1-7,12.7l-23.9,12.9L310,253.2l21-13.8-5.1-18.7c-.8-2.9-1.2-5.8-.1-8.6S329,206.6,333.4,207.1Z"/><path class="m" d="M260,209.9l-1.4-4.6c-.7-3.3,1.9-3.9,2.3-4.4a6.3,6.3,0,0,1,2.4-1.8l-.2-1.4a37.9,37.9,0,0,1-.8-4.3.9.9,0,0,1,1.7-.1c.5,1.7,1.3,4.7,1.7,5.8s1.9,5.2,3.3,2.9a11.9,11.9,0,0,0,1.4-4.5c.2-.7,1.9-.9,1.6.7a28.1,28.1,0,0,1-.6,3.5c-.2.7-.6,1.5-.8,2.3s-.3,3.9-.5,4.5Z"/><path class="n" d="M260.8,201.8s.1.6.3,1.4a5.3,5.3,0,0,0,.6,1.4l.3,1a1.2,1.2,0,0,1-.6,1,1.4,1.4,0,0,1-1.1-.3,2.3,2.3,0,0,1-.7-.7,4.4,4.4,0,0,1-.5-1.5c-.2-.8-.2-1.4-.1-1.4l.3,1.4a7.5,7.5,0,0,0,.6,1.3l.6.6a.9.9,0,0,0,.8.2.7.7,0,0,0,.3-.6,1.9,1.9,0,0,0-.3-.8,5.6,5.6,0,0,1-.4-1.5C260.7,202.4,260.7,201.8,260.8,201.8Z"/><path class="n" d="M262.8,200.3a4.8,4.8,0,0,1,.7,1.8c.2.6.4,1.2.7,1.9l.3,1.2a.9.9,0,0,1,0,.7,1,1,0,0,1-.5.6,1.2,1.2,0,0,1-1.4-.1,2.2,2.2,0,0,1-.9-1c-.3-.7-.4-1.4-.6-1.9a6.7,6.7,0,0,1-.4-1.9l.7,1.8c.2.5.3,1.2.6,1.9a2,2,0,0,0,.8.8,1.2,1.2,0,0,0,1,.1,1.1,1.1,0,0,0,.4-.9c-.1-.4-.3-.8-.4-1.2a14.6,14.6,0,0,1-.5-2Z"/><path class="c" d="M270.9,230.2a8.3,8.3,0,0,1,.8-2.3c.5-1.2,1-2.2,1.1-2.1a8,8,0,0,1-.7,2.3A10.2,10.2,0,0,1,270.9,230.2Z"/><path class="o" d="M247.8,322.6l3.1-6.5,12.3,5.7-4.5,9.6-.8-.3c-3.5-1.4-17.5-7.4-19.4-9.2S247.8,322.6,247.8,322.6Z"/><path class="o" d="M284.2,362v-7.3l13.5-.3.3,10.5h-.8c-3.8.3-19,1.3-21.5.6S284.2,362,284.2,362Z"/><g class="p"><path d="M324.8,217c.6,8,5.3,22-11.4,33.5,1.3-.5,17.1-11.1,17.1-11.4S326.7,225.6,324.8,217Z"/></g><path class="q" d="M338.2,264.5s-55.4-11.6-60.8-9.1-30.2,63.8-30.2,63.8l16.8,6.1,22.6-50.8s40.9,15.4,47.7,14S338.2,264.5,338.2,264.5Z"/><path class="c" d="M294.3,295.6a6,6,0,0,1,2.2.8,7.9,7.9,0,0,1,2.1,1.1,5.7,5.7,0,0,1-2.3-.8C295.1,296.2,294.2,295.7,294.3,295.6Z"/><path class="r" d="M292.8,276.8c-7.2,3.4-13.6,6.8-14.6,8.7-2.2,4.2,3.3,74.6,3.3,74.6h18.3l-1.1-62.6,35.6-9S326.7,288.2,292.8,276.8Z"/><path class="c" d="M295.9,293.7c.1-.1.6.9,1.4,2s1.7,1.9,1.6,2-1-.6-1.9-1.7A4.6,4.6,0,0,1,295.9,293.7Z"/><path class="m" d="M304.8,205.4c-.1-4-.3-8.3-.3-8.3s-6-.7-6.3-6.9-.3-17.1-.3-17.1l13.2-2.6,7,5.3.2,29.4a6.8,6.8,0,0,1-6.8,6.8h0A6.7,6.7,0,0,1,304.8,205.4Z"/><path class="n" d="M304.5,197.1a15.3,15.3,0,0,0,8.1-2.6s-1.9,4.5-8,4.1Z"/><path class="o" d="M211.9,363.1v-7.5H198l-.2,10.8h.9c3.8.3,19.5,1,22.1.3S211.9,363.1,211.9,363.1Z"/><path class="o" d="M157.8,363.1v-7.5h13.9l.2,10.8H171c-3.8.3-19.5,1-22.1.3S157.8,363.1,157.8,363.1Z"/><polyline class="q" points="221 220.8 215.9 360.2 194.2 360.7 197.8 239.9 173.5 361.6 152.9 361.6 179.4 221.1"/><path class="m" d="M191.1,162.8l13.3-1.1c.1-1.6,0-7.6,0-7.6s5.6-.9,5.6-6.4-.9-18.4-.9-18.4h0a19.4,19.4,0,0,0-19.4,2.5l-.8.6Z"/><path class="n" d="M204.4,154a12.8,12.8,0,0,1-7.2-2s1.7,4,7.2,3.5Z"/><path class="m" d="M189.6,138.2c-.1-.1-3.9-1.2-3.7,2.6s3.9,2.9,3.9,2.8Z"/><path class="s" d="M211.9,125.8a2.1,2.1,0,0,0-.8-1.8,1.5,1.5,0,0,0-1.9.1,1.6,1.6,0,0,0-1.5-2c-.9-.1-1.6.6-2.5.8a3.4,3.4,0,0,1-2.6-.3l-2.4-1.1a8,8,0,0,0-5.5.2,7.4,7.4,0,0,0-3.6,4,3.1,3.1,0,0,0-3.4,1.3,5.7,5.7,0,0,0-.8,3.6,18.3,18.3,0,0,0,.6,2.5v.2c.1,3.1.4,6.7,1.8,6.7s1.7-4.2,1.7-4.2c2.8-1.1,1.7-5.3,2.4-5.9s2.2-2.1,8,.8a11.1,11.1,0,0,0,7,.8h.2l1.5-.6a2.8,2.8,0,0,0,1.2-1.4,1.4,1.4,0,0,0-.3-1.7A3.7,3.7,0,0,0,211.9,125.8Z"/><path class="l" d="M184.6,160.7a34.2,34.2,0,0,1,5.9-1.2h0a24.1,24.1,0,0,0,14.3.1l2.4.2c6.2.8,8.6,2.1,13,6.4l-.5,25.1s1.5,28.5,1.4,33.2H178.8V199.8l-13.9,5.1,1.3-7.3s6.2-24.2,7.2-27.5S178.7,161.8,184.6,160.7Z"/><path class="l" d="M171.2,198l20.8-3,4,7.1-19.4,8.8a8,8,0,0,1-3.4.7h0a8.4,8.4,0,0,1-7.8-5.2l-.6-1.5Z"/><path class="m" d="M210.8,191.6l-.4-.3a10.1,10.1,0,0,0-8.2-1.9h0a13.5,13.5,0,0,0-6.4,3l-3.6,2.9,3.8,6.8,2.6-3.6s2.4,3.3,2.8,3a5.3,5.3,0,0,0,1-1.4l-1.7-2.4,4.1.8,6-2.7-2.5-3.3,2.5.8Z"/><path class="l" d="M213.8,161.4a15.4,15.4,0,0,1,8.4,7.7c1.6,3.7,4,21.5,4,21.5l3,5.8a10,10,0,0,1,1.1,4.5v.9a9.7,9.7,0,0,1-2.2,6.1h0a10.4,10.4,0,0,1-6.7,3.6c-3,.2-6.6.3-7.4-.5a45.8,45.8,0,0,1-3.4-5.8l8.7-4.6-3.7-7Z"/><polygon class="c" points="204.5 191 191.2 207.1 192.2 208.2 213.8 204.9 224.5 188.8 223.5 187.9 204.5 191"/><path class="m" d="M218.6,195.2h0a2.3,2.3,0,0,0-2,1.4c-.3.8-.7,1.8-1.3,2a4.3,4.3,0,0,1-3.4.6c-.9-.5-4.4-3.6-5-3.3s-1.1,1.2-.5,1.9,3.8,2.8,3.2,3.5-7.4-2.4-8.5-2.1-1.6.9-1,1.3,5.2,2.1,5.5,2.8-7-1.9-7.2-1.4-.7,1.1,0,1.4l7.2,2a10.2,10.2,0,0,0,2.7.8l2.8.9a5.8,5.8,0,0,0,4.3-.1l.7-.3a2.6,2.6,0,0,0,1.7-2.7v-2.4l.8-1.9Z"/><path class="k" d="M224.5,188.9h-.4l-1.2.2-4.2.7-6.3.9-3.7.6a6.8,6.8,0,0,0-3.6,1.5,19.3,19.3,0,0,0-2.7,3l-2.3,2.9-4,5-2.8,3.3-.7.9-.3.3.2-.3.7-1c.7-.8,1.6-2,2.6-3.4l4-5,2.3-2.9a20,20,0,0,1,2.7-3.1,7.1,7.1,0,0,1,3.8-1.6l3.7-.5,6.3-.9,4.3-.5,1.2-.2Z"/><path class="d" d="M214.4,192.4l-.6.5c-.1.2-.2.5,0,.7s.6.2.9,0a.9.9,0,0,0,.3-.5.4.4,0,0,0-.2-.5c-.1-.2-.4-.2-.6-.1"/><rect class="k" x="37.3" y="210.7" width="34.8" height="70.18"/><path class="k" d="M38.9,280.7h0a5.4,5.4,0,0,1-5.4-5.4V216.2a5.5,5.5,0,0,1,5.4-5.5h0a5.5,5.5,0,0,1,5.5,5.5v59.1A5.5,5.5,0,0,1,38.9,280.7Z"/><rect class="k" x="69" y="289.6" width="5.6" height="67.2"/><path class="k" d="M111,289.6H30.7a8.7,8.7,0,0,1,8.7-8.7h62.8a8.7,8.7,0,0,1,8.8,8.7Z"/><path class="k" d="M96.3,362.9h-.8a23.9,23.9,0,1,0-47.7,0H47a24.7,24.7,0,1,1,49.3,0Z"/><circle class="c" cx="47.4" cy="362.5" r="3.7"/><path class="c" d="M99.8,362.6a3.7,3.7,0,0,1-7.4,0,3.7,3.7,0,0,1,7.4,0Z"/><path class="k" d="M96.1,356.8c0,.1-10.7.2-24,.2s-23.9-.1-23.9-.2,10.7-.2,23.9-.2S96.1,356.7,96.1,356.8Z"/><path class="m" d="M60.8,207.4h0c4.1,0,7.6-2.8,7.7-15.5,0-2.5-.1-4.7-.1-4.7s6-.6,6.5-6.4.1-19.4.1-19.4h0a20.9,20.9,0,0,0-20.9,1.4l-.9.6.3,28.7C53.5,196.1,56.7,207.4,60.8,207.4Z"/><path class="n" d="M68.4,187.1a13.8,13.8,0,0,1-7.6-2.6s1.5,4.3,7.5,4.1Z"/><path class="s" d="M75.2,160.3a6.4,6.4,0,0,0-1-2.6,2.5,2.5,0,0,0-.3-2.6,2.5,2.5,0,0,0-3.5-.2h0a1.5,1.5,0,0,0-.5-1.7,3.3,3.3,0,0,0-2-.5,37.3,37.3,0,0,0-7,2h-.4a14,14,0,0,0-5.6,2.4,12.8,12.8,0,0,0-3.5,6.2c-.6,2.3-.6,4.7-.1,8.7.7-.7,3.3-2.3,3.7-1.4a8.8,8.8,0,0,1,.2,1.6,1.5,1.5,0,0,0,.8,1.4,1.1,1.1,0,0,0,1.1-.6,1.7,1.7,0,0,0,.4-1.2c.2-1.8-.3-3.7,0-5.5a6.6,6.6,0,0,1,2.8-4.4,6.3,6.3,0,0,1,5.1-1.1,19.4,19.4,0,0,0,3.3.7c1.6-.1,3.2-1.3,4.7-.6l.8.5c.6.3.8.6,1,.3A7.4,7.4,0,0,0,75.2,160.3Z"/><path class="m" d="M54.7,169.9c-.1-.1-3.7-.6-3.4,3.7s4.6,2.5,4.6,2.4S54.7,169.9,54.7,169.9Z"/><path class="o" d="M95,348.5l3.3-4.6L85.6,335l-5.2,7.1.7.7c3.3,2.7,16.8,13.7,19.6,14.8S95,348.5,95,348.5Z"/><path class="o" d="M156.7,363.2l-1.1-5.4-14.8,3.3,1.7,8.5h.9c4.2-.6,21-3.1,23.6-4.5S156.7,363.2,156.7,363.2Z"/><g class="p"><polygon points="141.5 364.5 156.3 361.2 156.2 360.4 141 362.2 141.5 364.5"/></g><path class="n" d="M118.3,231.6a12.9,12.9,0,0,1,2.9-2.8c.4-.1,7.9-3.2,8-2.9s1,2-.5,2.8l-1.1.4,4.2.4s4.8,3.5,4.7,4.2-.7,1.3-1.1.9,1.1,2.4,1.1,2.4,0,1.2-.6,1a4.7,4.7,0,0,1-1.6-1.3s.9,1.4.6,1.7-1.6.4-1.8,0l-.3-1H132v1.1l-12.6.4Z"/><polygon class="t" points="69.6 196.9 73.4 201.5 88.8 228.3 118.7 231.3 119.4 240 84.9 243.2 65.6 208.4 69.6 196.9"/><g class="u"><polygon points="69.6 196.9 73.4 201.5 88.8 228.3 118.7 231.3 119.4 240 84.9 243.2 65.6 208.4 69.6 196.9"/></g><path class="t" d="M72.6,210l-3-11.2v-3.6l-16.7-7.6-3.2,4,.4.2c-1.3,1.4-11,11.8-10.4,19.6s15.1,50.8,15.1,50.8l33.5-9.7Z"/><path class="v" d="M69.3,199l-1,4.6,2.5,4.6v3.4l17.5,40.9,5.2,1.7.8-3.5s-14.5-24.9-17.1-31.9S71,201.7,71,201.7Z"/><path class="t" d="M42.7,219.6c0,.3,20.2,20,27.6,27.1a6.8,6.8,0,0,0,6.1,1.8l37.3-7.3-1.3-8.7-27.9.8a8.2,8.2,0,0,1-7.3-3.3c-6-7.8-19-24.6-19.3-25.1S42.7,219.6,42.7,219.6Z"/><path class="m" d="M129.9,232.5l-7.3-2-6.1,3.1h-3.4l-.5.2.9,6.5h.9a8.5,8.5,0,0,0,2.9,1.1c1.9.4,4.7-.8,4.7-.8l3.9-2.1,2.7-.8,2.1,1.2a7.5,7.5,0,0,1,.2,1.1c0,.3.7.6,1.2.6s.5-1,.5-1l-.5-2,1,.9h2.4v-1.5Z"/><polygon class="r" points="113.7 280.3 82.3 336.2 99.1 347.6 126.8 298.4 122.1 280.3 113.7 280.3"/><path class="q" d="M54.8,262.2s-3.6,15.2,6.2,18.3,60.6,4.7,60.6,4.7l18.9,78.1,16.2-2.3-13.9-83.7a14.4,14.4,0,0,0-11.5-11.5c-15.1-2.7-42.4-7.6-42.8-8.2s-2.2-4.5-2.2-4.5Z"/><polygon class="k" points="312.4 243.6 110.5 242.9 110.4 248.9 122.4 249 122 365.7 126.2 365.8 126.7 249 293.5 249.6 293.1 366.4 297.3 366.4 297.7 249.6 312.4 249.6 312.4 243.6"/><polygon class="w" points="243 210.5 254.2 243.2 305 243.2 304.6 241.6 284.1 240.9 274.6 210.5 243 210.5"/><path class="x" d="M265.5,225.9a2.3,2.3,0,0,1-1.3,2.9c-1,.3-2.1-.6-2.5-1.9s.3-2.7,1.3-2.9A2.1,2.1,0,0,1,265.5,225.9Z"/><polygon class="w" points="193.1 209.6 181.9 242.3 131.2 242.3 131.6 240.6 152.1 240 161.5 209.6 193.1 209.6"/><path class="x" d="M170.6,225a2.4,2.4,0,0,0,1.3,2.9,2.2,2.2,0,0,0,2.5-1.9,2.3,2.3,0,0,0-1.3-3A2.4,2.4,0,0,0,170.6,225Z"/><circle class="k" cx="213.7" cy="230.9" r="6.2" transform="translate(-48.5 404.7) rotate(-80.8)"/><rect class="w" x="193.4" y="228.4" width="40.6" height="14.82"/><path class="c" d="M209,232.5a56.5,56.5,0,0,1-6.6.2,58,58,0,0,1-6.6-.2,58,58,0,0,1,6.6-.2A56.5,56.5,0,0,1,209,232.5Z"/><path class="c" d="M209,234.6a56.5,56.5,0,0,1-6.6.2,58,58,0,0,1-6.6-.2,58,58,0,0,1,6.6-.2A56.5,56.5,0,0,1,209,234.6Z"/><path class="c" d="M209,236.8a56.5,56.5,0,0,1-6.6.2,58,58,0,0,1-6.6-.2,58,58,0,0,1,6.6-.2A56.5,56.5,0,0,1,209,236.8Z"/><path class="c" d="M209,238.9a56.5,56.5,0,0,1-6.6.2,58,58,0,0,1-6.6-.2,58,58,0,0,1,6.6-.2A56.5,56.5,0,0,1,209,238.9Z"/><path class="y" d="M177.7,197.1l2.7-9s-1.9,8.1-1.1,8.1L192,195Z"/><path class="z" d="M48.1,225.1l21,24.4a7.5,7.5,0,0,0,9.5,1.4l6.7-4.1-8.6,1.7a7.2,7.2,0,0,1-6.6-1.9Z"/><path class="s" d="M318.1,182.9a1.7,1.7,0,0,0,.5,1.5,1.5,1.5,0,0,0,1.6.1c.9-.5,1-1.8.8-2.8a5.5,5.5,0,0,1-.1-3.1,4.6,4.6,0,0,1,1.6-1.8,4.5,4.5,0,0,0,1.2-3.9,3.7,3.7,0,0,0-2.6-3c-1.4-.4-3.1,0-4.2-1s-.8-1.9-1.4-2.7-2.8-1.6-4.4-1.3-3.3.7-4.9.4-2.4-1.3-3.6-1.8a7.1,7.1,0,0,0-9.2,9.8c.5,1,1.6,3.7,4.6,3.6"/><path class="s" d="M296.7,174.2a9.8,9.8,0,0,0,8.1-.5c2.9-1.4,6.4-2.1,7.2-1.5s.9,3.6,3.8,4.6c0,0-.3,5.8,2.1,5.6s1.7-11.9,1.7-11.9l-6.4-.2-6.3-1.2-5.8.8-4.6,1.2Z"/><path class="m" d="M317.7,180c.1,0,3.8-1.4,4,2.5s-3.9,3.2-3.9,3.1Z"/><rect x="195.3" y="230.1" width="15" height="3.65"/><rect class="j" x="195.3" y="233.8" width="15" height="3.65"/><rect class="i" x="195.3" y="237.4" width="15" height="3.65"/></g></svg>