<svg xmlns="http://www.w3.org/2000/svg" xmlns:xlink="http://www.w3.org/1999/xlink" viewBox="0 0 400 400"><defs><style>.a{font-size:39.99px;font-family:AdobeArabic-Regular, Adobe Arabic;}.a,.y{fill:#fff;}.b{fill:url(#a);}.c{fill:#137fcf;}.d{fill:#288ed9;}.e,.f,.g,.n,.u,.w{fill:none;}.f,.g{stroke:#288ed9;}.f{stroke-width:0.26px;}.g,.n{stroke-linecap:round;stroke-miterlimit:10;stroke-width:1.04px;}.h{fill:url(#b);}.i{fill:#024679;}.j,.p{fill:#005b9f;}.j{opacity:0.57;isolation:isolate;}.k{opacity:0.5;}.l{fill:#1f364c;}.m{fill:#043c67;}.n{stroke:#1f364c;}.o{fill:#166eaf;}.q{fill:#21e2e2;}.r{fill:#ffbc98;}.s{fill:#0e71bb;}.t{fill:#52acea;}.u{stroke:#ffbc98;}.u,.w{stroke-width:0.52px;}.v{fill:#80c9ff;}.w{stroke:#21e2e2;}.x{fill:#d6eeff;}.z{fill:#375a64;}.aa{fill:#ffe7cb;}.ab{fill:#1a2e35;}.ac{opacity:0.2;}.ad{fill:#f0d2b9;}.ae{fill:#152735;}.af{fill:#173d7a;}.ag{fill:url(#c);}</style><linearGradient id="a" x1="-269.77" y1="688.82" x2="-269.77" y2="689.36" gradientTransform="matrix(740.56, 0, 0, -612.51, 199985.86, 422308.35)" gradientUnits="userSpaceOnUse"><stop offset="0" stop-color="#c6e6ff"/><stop offset="1" stop-color="#fff"/></linearGradient><linearGradient id="b" x1="-269.89" y1="693.96" x2="-269.89" y2="693.29" gradientTransform="matrix(531, 0, 0, -95, 143450.69, 66183.44)" gradientUnits="userSpaceOnUse"><stop offset="0" stop-color="#288ed9"/><stop offset="1" stop-color="#137fcf" stop-opacity="0.05"/></linearGradient><linearGradient id="c" x1="331.69" y1="215.09" x2="351.4" y2="215.09" gradientUnits="userSpaceOnUse"><stop offset="0" stop-color="#ffbc98"/><stop offset="1" stop-color="#ff9f6c"/></linearGradient></defs><title>usageforeigndedicatedserver</title><text class="a" transform="translate(41.8 -44.3)">جراخ یصاصتخا روس یاهدربراک*</text><path class="b" d="M203.3,116.9c51.3,32.8,110.1,47.5,110.1,47.5s64.8,9.9,41,83.5-27,100.1-64.3,102c-35.4,1-55.3-13.6-90.3-11.1-30.7,2.4-51.9,16.2-103.3-4C14.1,298.4,20.2,1.5,203.3,116.9Z"/><path class="c" d="M55.3,268.1h6c.7,0,1.3.7,1.3,1.7v7.6c0,1-.6,1.7-1.3,1.7h-6c-.7,0-1.3-.7-1.3-1.7v-7.6C54,268.8,54.6,268.1,55.3,268.1Z"/><path class="d" d="M58.4,271.1c1.2,0,2.1,1.2,2.1,2.7a2.4,2.4,0,0,1-2.1,2.6,2.5,2.5,0,0,1-2.1-2.6A2.5,2.5,0,0,1,58.4,271.1Z"/><ellipse class="e" cx="58.4" cy="273.8" rx="2.9" ry="3.7"/><ellipse class="f" cx="58.4" cy="273.8" rx="2.7" ry="3.5"/><path class="g" d="M86.4,262.4H70.5c-2.2,0-3.2,1.5-3.1,4.2v14.2c0,2.6-1.3,3.4-3.4,3.4H60.9a2.7,2.7,0,0,1-2.6-2.9v-5.1"/><ellipse class="h" cx="139.3" cy="305.3" rx="69.2" ry="15.8"/><path class="i" d="M87.9,187.7h43.7c1.5,0,2.6,1.5,2.6,3.4V301.8c0,1.8-1.1,3.3-2.6,3.3H87.9c-1.5,0-2.6-1.5-2.6-3.3V191.1C85.3,189.2,86.4,187.7,87.9,187.7Z"/><path class="j" d="M88.1,187.7h23.5V305.1H88.1c-1.4,0-2.6-1.5-2.6-3.3V191.1C85.5,189.2,86.7,187.7,88.1,187.7Z"/><g class="k"><rect class="l" x="98.8" y="195.1" width="22.1" height="1"/><rect class="l" x="98.8" y="197.7" width="22.1" height="1"/><rect class="l" x="98.8" y="200.4" width="22.1" height="1"/><rect class="l" x="98.8" y="203.1" width="22.1" height="1"/><rect class="l" x="98.8" y="205.8" width="22.1" height="1"/></g><g class="k"><rect class="l" x="98.5" y="289.1" width="22.1" height="1"/><rect class="l" x="98.5" y="291.8" width="22.1" height="1"/><rect class="l" x="98.5" y="294.4" width="22.1" height="1"/><rect class="l" x="98.5" y="297.1" width="22.1" height="1"/></g><rect class="m" x="98.5" y="214.4" width="26.1" height="61.67"/><path class="n" d="M111.5,220.4v7.2c0,1.6.6,2.3,1.8,2.2h1.6c1.1,0,1.4.9,1.4,2.5v42.9"/><path class="n" d="M109.7,222.5v3.1c0,1.5.7,2.3,1.8,2.2h1.6c1.1,0,1.5.9,1.5,2.5v44.9"/><path class="n" d="M114.7,219.2v5.9c0,1.3.6,1.9,1.5,1.8H119c.9,0,1.2.8,1.2,2.1v2.3"/><path class="n" d="M124.5,218.7H113.2c-1.2,0-1.7.8-1.7,2.2v2.2"/><path class="n" d="M109.7,223.3v-2.1c.1-1.4-.5-2.2-1.7-2.2H99.2"/><path class="n" d="M102.8,219v28.7c0,1.5.6,2.3,1.7,2.2h1.7c1.1,0,1.4.9,1.4,2.4v22.8h0"/><path class="n" d="M104.4,219v9.3c0,1.5.6,2.2,1.7,2.2h1.7c1.1,0,1.5.9,1.5,2.4v19.6"/><path class="n" d="M106,219.2v36.5c0,1.6.7,2.3,1.7,2.3h1.7c1.1,0,1.5.9,1.5,2.5v14.8"/><path class="o" d="M89.8,261.1V244.6c0-1.7,1.1-3,2.3-3h0c1.3,0,2.4,1.3,2.4,3v16.5c0,1.7-1.1,3-2.4,3h0C90.9,264.1,89.8,262.8,89.8,261.1Z"/><path class="p" d="M91.8,257v-7.8c0-.8.5-1.5,1.1-1.5h0a1.4,1.4,0,0,1,1.2,1.5V257a1.4,1.4,0,0,1-1.2,1.5h0C92.3,258.5,91.8,257.8,91.8,257Z"/><path class="q" d="M106.5,283.5h0a1,1,0,0,1,.9,1.1h0a1,1,0,0,1-.9,1.1h0c-.4,0-.8-.5-.8-1.1h0C105.7,284,106.1,283.5,106.5,283.5Z"/><path class="r" d="M109,283.5h0a1,1,0,0,1,.9,1.1h0a1,1,0,0,1-.9,1.1h0c-.4,0-.8-.5-.8-1.1h0C108.2,284,108.6,283.5,109,283.5Z"/><path class="d" d="M111.5,283.5h0a1,1,0,0,1,.9,1.1h0a1,1,0,0,1-.9,1.1h0a1,1,0,0,1-.9-1.1h0A1,1,0,0,1,111.5,283.5Z"/><path class="c" d="M114,283.5h0a1,1,0,0,1,.9,1.1h0a1,1,0,0,1-.9,1.1h0a1,1,0,0,1-.9-1.1h0A1,1,0,0,1,114,283.5Z"/><path class="d" d="M116.4,283.5h0a1,1,0,0,1,.9,1.1h0a1,1,0,0,1-.9,1.1h0c-.4,0-.8-.5-.8-1.1h0C115.6,284,116,283.5,116.4,283.5Z"/><path class="q" d="M89.6,226.3h0c.4,0,.8.5.8,1.1h0c0,.6-.4,1.1-.8,1.1h0a1,1,0,0,1-.9-1.1h0A1,1,0,0,1,89.6,226.3Z"/><path class="r" d="M92.2,226.3h0c.4,0,.8.5.8,1.1h0c0,.6-.4,1.1-.8,1.1h0a1,1,0,0,1-.9-1.1h0A1,1,0,0,1,92.2,226.3Z"/><path class="d" d="M89.6,229.4h0a1,1,0,0,1,.9,1.1h0a1,1,0,0,1-.9,1.1h0a1,1,0,0,1-.9-1.1h0A1,1,0,0,1,89.6,229.4Z"/><path class="c" d="M92.2,229.4h0a1,1,0,0,1,.9,1.1h0a1,1,0,0,1-.9,1.1h0a1,1,0,0,1-.9-1.1h0A1,1,0,0,1,92.2,229.4Z"/><path class="d" d="M94.7,229.4h0a1,1,0,0,1,.9,1.1h0a1,1,0,0,1-.9,1.1h0a1,1,0,0,1-.9-1.1h0A1,1,0,0,1,94.7,229.4Z"/><path class="d" d="M94.7,226.3h0a1,1,0,0,1,.9,1.1h0a1,1,0,0,1-.9,1.1h0a1,1,0,0,1-.9-1.1h0A1,1,0,0,1,94.7,226.3Z"/><path class="q" d="M89.6,232.4h0c.4,0,.8.5.8,1.1h0c0,.7-.4,1.2-.8,1.2h0c-.5,0-.9-.5-.9-1.2h0A1,1,0,0,1,89.6,232.4Z"/><path class="d" d="M92.2,232.4h0c.4,0,.8.5.8,1.1h0c0,.7-.4,1.2-.8,1.2h0c-.5,0-.9-.5-.9-1.2h0A1,1,0,0,1,92.2,232.4Z"/><path class="d" d="M89.6,235.5h0c.5,0,.9.5.9,1.2h0a1,1,0,0,1-.9,1.1h0a1,1,0,0,1-.9-1.1h0C88.7,236,89.1,235.5,89.6,235.5Z"/><path class="c" d="M92.2,235.5h0c.5,0,.9.5.9,1.2h0a1,1,0,0,1-.9,1.1h0a1,1,0,0,1-.9-1.1h0C91.3,236,91.7,235.5,92.2,235.5Z"/><path class="d" d="M94.7,235.5h0c.5,0,.9.5.9,1.2h0a1,1,0,0,1-.9,1.1h0a1,1,0,0,1-.9-1.1h0C93.8,236,94.2,235.5,94.7,235.5Z"/><path class="d" d="M94.7,232.4h0a1,1,0,0,1,.9,1.1h0c0,.7-.4,1.2-.9,1.2h0c-.5,0-.9-.5-.9-1.2h0A1,1,0,0,1,94.7,232.4Z"/><rect class="l" x="122.2" y="219.7" width="65.8" height="6.54"/><path class="s" d="M121.5,202h67.3a2.3,2.3,0,0,1,2.4,2.3v14.2a2.3,2.3,0,0,1-2.4,2.3H121.5a2.3,2.3,0,0,1-2.4-2.3V204.3A2.3,2.3,0,0,1,121.5,202Z"/><path class="p" d="M120.2,202h23.2v18.8H120.2a1.3,1.3,0,0,1-1.1-1.4v-16A1.3,1.3,0,0,1,120.2,202Z"/><path class="t" d="M164.5,208.7h0a1,1,0,0,1,.8,1h0a1,1,0,0,1-.8,1h0a1,1,0,0,1-.8-1h0A1,1,0,0,1,164.5,208.7Z"/><path class="q" d="M166.3,212.6h0a.9.9,0,0,1,.8,1h0c0,.6-.3,1-.8,1h0c-.4,0-.7-.4-.7-1h0C165.6,213.1,165.9,212.6,166.3,212.6Z"/><path class="t" d="M167.6,208.7h0c.4,0,.7.5.7,1h0c0,.5-.3,1-.7,1h0a.9.9,0,0,1-.8-1h0A.9.9,0,0,1,167.6,208.7Z"/><path class="t" d="M169.4,212.6h0a1,1,0,0,1,.8,1h0a.9.9,0,0,1-.8,1h0a.9.9,0,0,1-.8-1h0A1,1,0,0,1,169.4,212.6Z"/><path class="r" d="M170.6,208.7h0a1,1,0,0,1,.8,1h0a1,1,0,0,1-.8,1h0c-.4,0-.7-.5-.7-1h0C169.9,209.2,170.2,208.7,170.6,208.7Z"/><path class="t" d="M172.4,212.6h0a.9.9,0,0,1,.8,1h0c0,.6-.3,1-.8,1h0c-.4,0-.7-.4-.7-1h0C171.7,213.1,172,212.6,172.4,212.6Z"/><path class="t" d="M173.7,208.7h0c.4,0,.7.5.7,1h0c0,.5-.3,1-.7,1h0a.9.9,0,0,1-.8-1h0A.9.9,0,0,1,173.7,208.7Z"/><path class="q" d="M175.5,212.6h0a1,1,0,0,1,.8,1h0a.9.9,0,0,1-.8,1h0a.9.9,0,0,1-.8-1h0A1,1,0,0,1,175.5,212.6Z"/><path class="t" d="M176.7,208.7h0a1,1,0,0,1,.8,1h0a1,1,0,0,1-.8,1h0c-.4,0-.7-.5-.7-1h0C176,209.2,176.3,208.7,176.7,208.7Z"/><path class="t" d="M178.6,212.6h0c.4,0,.7.5.7,1h0c0,.6-.3,1-.7,1h0c-.5,0-.8-.4-.8-1h0A.9.9,0,0,1,178.6,212.6Z"/><ellipse class="e" cx="183.9" cy="211.5" rx="1.3" ry="1.7"/><ellipse class="u" cx="183.9" cy="211.5" rx="1" ry="1.3"/><path class="t" d="M161,208h0c.3,0,.5.3.5.7v5.6c0,.4-.2.7-.5.7h0c-.4,0-.6-.3-.6-.7v-5.6C160.4,208.3,160.6,208,161,208Z"/><path class="t" d="M158.6,208h0c.4,0,.6.3.6.7v5.6c0,.4-.2.7-.6.7h0c-.3,0-.5-.3-.5-.7v-5.6C158.1,208.3,158.3,208,158.6,208Z"/><rect class="p" x="147.1" y="208" width="9.2" height="2.95"/><rect class="p" x="147.1" y="212.1" width="9.2" height="2.95"/><path class="r" d="M160.4,209.5h1.1v4.8c0,.4-.2.7-.5.7h0c-.4,0-.6-.3-.6-.7v-4.8Z"/><path class="q" d="M158.1,212.3h1.1v2c0,.4-.2.7-.6.7h0c-.3,0-.5-.3-.5-.7h0v-2Z"/><rect class="v" x="147.1" y="208" width="2.3" height="2.95"/><rect class="v" x="147.1" y="212.1" width="2.3" height="2.95"/><rect class="d" x="150.6" y="209.1" width="4.6" height="0.74"/><rect class="d" x="150.6" y="213.2" width="4.6" height="0.74"/><ellipse class="e" cx="183.9" cy="211.5" rx="2.7" ry="3.5"/><ellipse class="w" cx="183.9" cy="211.5" rx="2.5" ry="3.2"/><path class="d" d="M136.9,214h0c.5,0,.9.6.9,1.2h0c0,.7-.4,1.3-.9,1.3h0c-.6,0-1-.6-1-1.3h0A1.1,1.1,0,0,1,136.9,214Z"/><path class="c" d="M136.9,206.9h0a.5.5,0,0,1,.5.5v4.8a.6.6,0,0,1-.5.6h0c-.2,0-.4-.3-.4-.6v-4.8A.5.5,0,0,1,136.9,206.9Z"/><path class="x" d="M134,214h0c.5,0,.9.6.9,1.2h0c0,.7-.4,1.3-.9,1.3h0a1.2,1.2,0,0,1-1-1.3h0A1.2,1.2,0,0,1,134,214Z"/><path class="y" d="M134,209.1h0a.6.6,0,0,1,.5.6v2.5a.6.6,0,0,1-.5.6h0c-.2,0-.4-.3-.4-.6v-2.5C133.6,209.4,133.8,209.1,134,209.1Z"/><path class="d" d="M131.1,214h0a1.2,1.2,0,0,1,1,1.2h0a1.2,1.2,0,0,1-1,1.3h0a1.2,1.2,0,0,1-1-1.3h0A1.2,1.2,0,0,1,131.1,214Z"/><path class="c" d="M131.2,206h0c.2,0,.4.3.4.6v5.6c0,.3-.2.6-.4.6h0a.6.6,0,0,1-.5-.6v-5.6A.6.6,0,0,1,131.2,206Z"/><path class="r" d="M128.2,214h0a1.2,1.2,0,0,1,1,1.2h0a1.2,1.2,0,0,1-1,1.3h0c-.5,0-.9-.6-.9-1.3h0C127.3,214.6,127.7,214,128.2,214Z"/><path class="r" d="M128.3,207.4h0c.2,0,.4.3.4.6v4.2c0,.3-.2.6-.4.6h0a.6.6,0,0,1-.5-.6V208A.6.6,0,0,1,128.3,207.4Z"/><path class="q" d="M125.3,214h0a1.1,1.1,0,0,1,1,1.2h0c0,.7-.4,1.3-1,1.3h0c-.5,0-.9-.6-.9-1.3h0C124.4,214.6,124.8,214,125.3,214Z"/><path class="q" d="M125.4,209.8h0c.2,0,.4.3.4.6v1.8c0,.3-.2.6-.4.6h0c-.3,0-.4-.3-.4-.6v-1.8C125,210.1,125.1,209.8,125.4,209.8Z"/><rect class="l" x="122.2" y="242" width="65.8" height="6.54"/><path class="s" d="M121.5,224.4h67.3a2.3,2.3,0,0,1,2.4,2.2v14.3a2.3,2.3,0,0,1-2.4,2.2H121.5a2.3,2.3,0,0,1-2.4-2.2V226.6A2.3,2.3,0,0,1,121.5,224.4Z"/><path class="p" d="M120.2,224.4h23.2v18.7H120.2a1.2,1.2,0,0,1-1.1-1.3V225.7A1.2,1.2,0,0,1,120.2,224.4Z"/><path class="t" d="M164.5,231.1h0a.9.9,0,0,1,.8.9h0a.9.9,0,0,1-.8,1h0a.9.9,0,0,1-.8-1h0A.9.9,0,0,1,164.5,231.1Z"/><path class="q" d="M166.3,235h0c.5,0,.8.4.8,1h0a.8.8,0,0,1-.8.9h0a.8.8,0,0,1-.7-.9h0C165.6,235.4,165.9,235,166.3,235Z"/><path class="t" d="M167.6,231.1h0a.8.8,0,0,1,.7.9h0c0,.6-.3,1-.7,1h0c-.5,0-.8-.4-.8-1h0A.8.8,0,0,1,167.6,231.1Z"/><path class="t" d="M169.4,235h0a.9.9,0,0,1,.8,1h0a.9.9,0,0,1-.8.9h0a.9.9,0,0,1-.8-.9h0A.9.9,0,0,1,169.4,235Z"/><path class="r" d="M170.6,231.1h0a.9.9,0,0,1,.8.9h0a.9.9,0,0,1-.8,1h0c-.4,0-.7-.4-.7-1h0A.8.8,0,0,1,170.6,231.1Z"/><path class="t" d="M172.4,235h0c.5,0,.8.4.8,1h0a.8.8,0,0,1-.8.9h0a.8.8,0,0,1-.7-.9h0C171.7,235.4,172,235,172.4,235Z"/><path class="t" d="M173.7,231.1h0a.8.8,0,0,1,.7.9h0c0,.6-.3,1-.7,1h0c-.5,0-.8-.4-.8-1h0A.8.8,0,0,1,173.7,231.1Z"/><path class="q" d="M175.5,235h0a.9.9,0,0,1,.8,1h0a.9.9,0,0,1-.8.9h0a.9.9,0,0,1-.8-.9h0A.9.9,0,0,1,175.5,235Z"/><path class="t" d="M176.7,231.1h0a.9.9,0,0,1,.8.9h0a.9.9,0,0,1-.8,1h0c-.4,0-.7-.4-.7-1h0A.8.8,0,0,1,176.7,231.1Z"/><path class="t" d="M178.6,235h0c.4,0,.7.4.7,1h0a.8.8,0,0,1-.7.9h0a.8.8,0,0,1-.8-.9h0C177.8,235.4,178.1,235,178.6,235Z"/><ellipse class="e" cx="183.9" cy="233.8" rx="1.3" ry="1.7"/><ellipse class="u" cx="183.9" cy="233.8" rx="1" ry="1.3"/><path class="t" d="M161,230.3h0c.3,0,.5.4.5.8v5.5c0,.4-.2.7-.5.7h0c-.4,0-.6-.3-.6-.7v-5.5C160.4,230.7,160.6,230.3,161,230.3Z"/><path class="t" d="M158.6,230.3h0c.4,0,.6.4.6.8v5.5c0,.4-.2.7-.6.7h0c-.3,0-.5-.3-.5-.7v-5.5C158.1,230.7,158.3,230.3,158.6,230.3Z"/><rect class="p" x="147.1" y="230.3" width="9.2" height="2.95"/><rect class="p" x="147.1" y="234.4" width="9.2" height="2.95"/><path class="r" d="M160.4,231.8h1.1v4.8c0,.4-.2.7-.5.7h0c-.4,0-.6-.3-.6-.7v-4.8Z"/><path class="q" d="M158.1,234.6h1.1v2c0,.4-.2.7-.6.7h0c-.3,0-.5-.3-.5-.7h0v-2Z"/><rect class="v" x="147.1" y="230.3" width="2.3" height="2.95"/><rect class="v" x="147.1" y="234.4" width="2.3" height="2.95"/><rect class="d" x="150.6" y="231.4" width="4.6" height="0.74"/><rect class="d" x="150.6" y="235.5" width="4.6" height="0.74"/><ellipse class="e" cx="183.9" cy="233.8" rx="2.7" ry="3.5"/><ellipse class="w" cx="183.9" cy="233.8" rx="2.5" ry="3.2"/><path class="d" d="M136.9,236.7h0c.5,0,.9.5.9,1.2h0c0,.7-.4,1.2-.9,1.2h0c-.6,0-1-.5-1-1.2h0C135.9,237.2,136.3,236.7,136.9,236.7Z"/><path class="c" d="M136.9,229.6h0a.5.5,0,0,1,.5.5v4.8a.6.6,0,0,1-.5.6h0c-.2,0-.4-.3-.4-.6v-4.8A.5.5,0,0,1,136.9,229.6Z"/><path class="x" d="M134,236.7h0c.5,0,.9.5.9,1.2h0c0,.7-.4,1.2-.9,1.2h0a1.1,1.1,0,0,1-1-1.2h0A1.1,1.1,0,0,1,134,236.7Z"/><path class="y" d="M134,231.8h0a.5.5,0,0,1,.5.5v2.6a.6.6,0,0,1-.5.6h0c-.2,0-.4-.3-.4-.6v-2.6A.5.5,0,0,1,134,231.8Z"/><path class="d" d="M131.1,236.7h0a1.1,1.1,0,0,1,1,1.2h0a1.1,1.1,0,0,1-1,1.2h0a1.1,1.1,0,0,1-1-1.2h0A1.1,1.1,0,0,1,131.1,236.7Z"/><path class="c" d="M131.2,228.7h0c.2,0,.4.3.4.6v5.6c0,.3-.2.6-.4.6h0a.6.6,0,0,1-.5-.6v-5.6A.6.6,0,0,1,131.2,228.7Z"/><path class="r" d="M128.2,236.7h0a1.1,1.1,0,0,1,1,1.2h0a1.1,1.1,0,0,1-1,1.2h0c-.5,0-.9-.5-.9-1.2h0C127.3,237.2,127.7,236.7,128.2,236.7Z"/><path class="r" d="M128.3,230.1h0c.2,0,.4.3.4.6v4.2c0,.3-.2.6-.4.6h0a.6.6,0,0,1-.5-.6v-4.2A.6.6,0,0,1,128.3,230.1Z"/><path class="q" d="M125.3,236.7h0c.6,0,1,.5,1,1.2h0c0,.7-.4,1.2-1,1.2h0c-.5,0-.9-.5-.9-1.2h0C124.4,237.2,124.8,236.7,125.3,236.7Z"/><path class="q" d="M125.4,232.5h0c.2,0,.4.3.4.6v1.8c0,.3-.2.6-.4.6h0c-.3,0-.4-.3-.4-.6v-1.8C125,232.8,125.1,232.5,125.4,232.5Z"/><rect class="l" x="122.2" y="264.4" width="65.8" height="6.54"/><path class="s" d="M121.5,246.7h67.3a2.3,2.3,0,0,1,2.4,2.2v14.3a2.3,2.3,0,0,1-2.4,2.2H121.5a2.3,2.3,0,0,1-2.4-2.2V248.9A2.3,2.3,0,0,1,121.5,246.7Z"/><path class="p" d="M120.2,246.7h23.2v18.7H120.2a1.2,1.2,0,0,1-1.1-1.3V248A1.2,1.2,0,0,1,120.2,246.7Z"/><path class="t" d="M164.5,253.4h0a.9.9,0,0,1,.8,1h0a1,1,0,0,1-.8,1h0a1,1,0,0,1-.8-1h0A.9.9,0,0,1,164.5,253.4Z"/><path class="q" d="M166.3,257.3h0c.5,0,.8.4.8,1h0a.9.9,0,0,1-.8,1h0c-.4,0-.7-.5-.7-1h0C165.6,257.7,165.9,257.3,166.3,257.3Z"/><path class="t" d="M167.6,253.4h0c.4,0,.7.4.7,1h0c0,.5-.3,1-.7,1h0a.9.9,0,0,1-.8-1h0C166.8,253.8,167.1,253.4,167.6,253.4Z"/><path class="t" d="M169.4,257.3h0a.9.9,0,0,1,.8,1h0a1,1,0,0,1-.8,1h0a1,1,0,0,1-.8-1h0A.9.9,0,0,1,169.4,257.3Z"/><path class="r" d="M170.6,253.4h0a.9.9,0,0,1,.8,1h0a1,1,0,0,1-.8,1h0c-.4,0-.7-.5-.7-1h0C169.9,253.8,170.2,253.4,170.6,253.4Z"/><path class="t" d="M172.4,257.3h0c.5,0,.8.4.8,1h0a.9.9,0,0,1-.8,1h0c-.4,0-.7-.5-.7-1h0C171.7,257.7,172,257.3,172.4,257.3Z"/><path class="t" d="M173.7,253.4h0c.4,0,.7.4.7,1h0c0,.5-.3,1-.7,1h0a.9.9,0,0,1-.8-1h0C172.9,253.8,173.2,253.4,173.7,253.4Z"/><path class="q" d="M175.5,257.3h0a.9.9,0,0,1,.8,1h0a1,1,0,0,1-.8,1h0a1,1,0,0,1-.8-1h0A.9.9,0,0,1,175.5,257.3Z"/><path class="t" d="M176.7,253.4h0a.9.9,0,0,1,.8,1h0a1,1,0,0,1-.8,1h0c-.4,0-.7-.5-.7-1h0C176,253.8,176.3,253.4,176.7,253.4Z"/><path class="t" d="M178.6,257.3h0c.4,0,.7.4.7,1h0c0,.5-.3,1-.7,1h0a.9.9,0,0,1-.8-1h0C177.8,257.7,178.1,257.3,178.6,257.3Z"/><ellipse class="e" cx="183.9" cy="256.2" rx="1.3" ry="1.7"/><ellipse class="u" cx="183.9" cy="256.2" rx="1" ry="1.3"/><path class="t" d="M161,252.7h0c.3,0,.5.3.5.7v5.5c0,.4-.2.8-.5.8h0c-.4,0-.6-.4-.6-.8v-5.5C160.4,253,160.6,252.7,161,252.7Z"/><path class="t" d="M158.6,252.7h0c.4,0,.6.3.6.7v5.5c0,.4-.2.8-.6.8h0c-.3,0-.5-.4-.5-.8v-5.5C158.1,253,158.3,252.7,158.6,252.7Z"/><rect class="p" x="147.1" y="252.7" width="9.2" height="2.95"/><rect class="p" x="147.1" y="256.7" width="9.2" height="2.95"/><path class="r" d="M160.4,254.1h1.1v4.8c0,.4-.2.8-.5.8h0c-.4,0-.6-.4-.6-.8v-4.8Z"/><path class="q" d="M158.1,257h1.1v1.9c0,.4-.2.8-.6.8h0c-.3,0-.5-.4-.5-.8h0V257Z"/><rect class="v" x="147.1" y="252.7" width="2.3" height="2.95"/><rect class="v" x="147.1" y="256.7" width="2.3" height="2.95"/><rect class="d" x="150.6" y="253.8" width="4.6" height="0.74"/><rect class="d" x="150.6" y="257.8" width="4.6" height="0.74"/><ellipse class="e" cx="183.9" cy="256.2" rx="2.7" ry="3.5"/><ellipse class="w" cx="183.9" cy="256.2" rx="2.5" ry="3.2"/><path class="d" d="M136.9,259h0c.5,0,.9.6.9,1.2h0c0,.7-.4,1.3-.9,1.3h0c-.6,0-1-.6-1-1.3h0A1.1,1.1,0,0,1,136.9,259Z"/><path class="c" d="M136.9,251.9h0a.5.5,0,0,1,.5.5v4.8c0,.4-.2.6-.5.6h0c-.2,0-.4-.2-.4-.6v-4.8A.5.5,0,0,1,136.9,251.9Z"/><path class="x" d="M134,259h0c.5,0,.9.6.9,1.2h0c0,.7-.4,1.3-.9,1.3h0a1.2,1.2,0,0,1-1-1.3h0A1.2,1.2,0,0,1,134,259Z"/><path class="y" d="M134,254.1h0a.6.6,0,0,1,.5.6v2.5c0,.4-.2.6-.5.6h0c-.2,0-.4-.2-.4-.6v-2.5C133.6,254.4,133.8,254.1,134,254.1Z"/><path class="d" d="M131.1,259h0a1.2,1.2,0,0,1,1,1.2h0a1.2,1.2,0,0,1-1,1.3h0a1.2,1.2,0,0,1-1-1.3h0A1.2,1.2,0,0,1,131.1,259Z"/><path class="c" d="M131.2,251h0c.2,0,.4.3.4.6v5.6c0,.4-.2.6-.4.6h0c-.3,0-.5-.2-.5-.6v-5.6A.6.6,0,0,1,131.2,251Z"/><path class="r" d="M128.2,259h0a1.2,1.2,0,0,1,1,1.2h0a1.2,1.2,0,0,1-1,1.3h0c-.5,0-.9-.6-.9-1.3h0C127.3,259.6,127.7,259,128.2,259Z"/><path class="r" d="M128.3,252.5h0a.5.5,0,0,1,.4.5v4.2c0,.4-.2.6-.4.6h0c-.3,0-.5-.2-.5-.6V253A.5.5,0,0,1,128.3,252.5Z"/><path class="q" d="M125.3,259h0a1.1,1.1,0,0,1,1,1.2h0c0,.7-.4,1.3-1,1.3h0c-.5,0-.9-.6-.9-1.3h0C124.4,259.6,124.8,259,125.3,259Z"/><path class="q" d="M125.4,254.8h0c.2,0,.4.3.4.6v1.8c0,.4-.2.6-.4.6h0c-.3,0-.4-.2-.4-.6v-1.8C125,255.1,125.1,254.8,125.4,254.8Z"/><rect class="l" x="122.2" y="286.7" width="65.8" height="6.54"/><path class="s" d="M121.5,269h67.3a2.3,2.3,0,0,1,2.4,2.3v14.2a2.3,2.3,0,0,1-2.4,2.3H121.5a2.3,2.3,0,0,1-2.4-2.3V271.3A2.3,2.3,0,0,1,121.5,269Z"/><path class="p" d="M120.2,269h23.2v18.8H120.2a1.3,1.3,0,0,1-1.1-1.4v-16A1.3,1.3,0,0,1,120.2,269Z"/><path class="t" d="M164.5,275.7h0a1,1,0,0,1,.8,1h0a.9.9,0,0,1-.8,1h0a.9.9,0,0,1-.8-1h0A1,1,0,0,1,164.5,275.7Z"/><path class="q" d="M166.3,279.6h0a.9.9,0,0,1,.8,1h0c0,.6-.3,1-.8,1h0c-.4,0-.7-.4-.7-1h0C165.6,280.1,165.9,279.6,166.3,279.6Z"/><path class="t" d="M167.6,275.7h0c.4,0,.7.5.7,1h0c0,.6-.3,1-.7,1h0c-.5,0-.8-.4-.8-1h0A.9.9,0,0,1,167.6,275.7Z"/><path class="t" d="M169.4,279.6h0a1,1,0,0,1,.8,1h0a.9.9,0,0,1-.8,1h0a.9.9,0,0,1-.8-1h0A1,1,0,0,1,169.4,279.6Z"/><path class="r" d="M170.6,275.7h0a1,1,0,0,1,.8,1h0a.9.9,0,0,1-.8,1h0c-.4,0-.7-.4-.7-1h0C169.9,276.2,170.2,275.7,170.6,275.7Z"/><path class="t" d="M172.4,279.6h0a.9.9,0,0,1,.8,1h0c0,.6-.3,1-.8,1h0c-.4,0-.7-.4-.7-1h0C171.7,280.1,172,279.6,172.4,279.6Z"/><path class="t" d="M173.7,275.7h0c.4,0,.7.5.7,1h0c0,.6-.3,1-.7,1h0c-.5,0-.8-.4-.8-1h0A.9.9,0,0,1,173.7,275.7Z"/><path class="q" d="M175.5,279.6h0a1,1,0,0,1,.8,1h0a.9.9,0,0,1-.8,1h0a.9.9,0,0,1-.8-1h0A1,1,0,0,1,175.5,279.6Z"/><path class="t" d="M176.7,275.7h0a1,1,0,0,1,.8,1h0a.9.9,0,0,1-.8,1h0c-.4,0-.7-.4-.7-1h0C176,276.2,176.3,275.7,176.7,275.7Z"/><path class="t" d="M178.6,279.6h0c.4,0,.7.5.7,1h0c0,.6-.3,1-.7,1h0c-.5,0-.8-.4-.8-1h0A.9.9,0,0,1,178.6,279.6Z"/><ellipse class="e" cx="183.9" cy="278.5" rx="1.3" ry="1.7"/><ellipse class="u" cx="183.9" cy="278.5" rx="1" ry="1.3"/><path class="t" d="M161,275h0c.3,0,.5.3.5.7v5.6c0,.4-.2.7-.5.7h0c-.4,0-.6-.3-.6-.7v-5.6C160.4,275.3,160.6,275,161,275Z"/><path class="t" d="M158.6,275h0c.4,0,.6.3.6.7v5.6c0,.4-.2.7-.6.7h0c-.3,0-.5-.3-.5-.7v-5.6C158.1,275.3,158.3,275,158.6,275Z"/><rect class="p" x="147.1" y="275" width="9.2" height="2.95"/><rect class="p" x="147.1" y="279.1" width="9.2" height="2.95"/><path class="r" d="M160.4,276.5h1.1v4.8c0,.4-.2.7-.5.7h0c-.4,0-.6-.3-.6-.7v-4.8Z"/><path class="q" d="M158.1,279.3h1.1v2c0,.4-.2.7-.6.7h0c-.3,0-.5-.3-.5-.7h0v-2Z"/><rect class="v" x="147.1" y="275" width="2.3" height="2.95"/><rect class="v" x="147.1" y="279.1" width="2.3" height="2.95"/><rect class="d" x="150.6" y="276.1" width="4.6" height="0.74"/><rect class="d" x="150.6" y="280.2" width="4.6" height="0.74"/><ellipse class="e" cx="183.9" cy="278.5" rx="2.7" ry="3.5"/><ellipse class="w" cx="183.9" cy="278.5" rx="2.5" ry="3.2"/><path class="d" d="M136.9,281.4h0c.5,0,.9.5.9,1.2h0c0,.7-.4,1.2-.9,1.2h0c-.6,0-1-.5-1-1.2h0C135.9,281.9,136.3,281.4,136.9,281.4Z"/><path class="c" d="M136.9,274.2h0a.6.6,0,0,1,.5.6v4.8a.5.5,0,0,1-.5.5h0a.5.5,0,0,1-.4-.5v-4.8C136.5,274.5,136.7,274.2,136.9,274.2Z"/><path class="x" d="M134,281.4h0c.5,0,.9.5.9,1.2h0c0,.7-.4,1.2-.9,1.2h0a1.1,1.1,0,0,1-1-1.2h0A1.1,1.1,0,0,1,134,281.4Z"/><path class="y" d="M134,276.4h0a.6.6,0,0,1,.5.6v2.6a.5.5,0,0,1-.5.5h0a.5.5,0,0,1-.4-.5V277C133.6,276.7,133.8,276.4,134,276.4Z"/><path class="d" d="M131.1,281.4h0a1.1,1.1,0,0,1,1,1.2h0a1.1,1.1,0,0,1-1,1.2h0a1.1,1.1,0,0,1-1-1.2h0A1.1,1.1,0,0,1,131.1,281.4Z"/><path class="c" d="M131.2,273.4h0a.5.5,0,0,1,.4.5v5.7a.5.5,0,0,1-.4.5h0a.5.5,0,0,1-.5-.5v-5.7A.5.5,0,0,1,131.2,273.4Z"/><path class="r" d="M128.2,281.4h0a1.1,1.1,0,0,1,1,1.2h0a1.1,1.1,0,0,1-1,1.2h0c-.5,0-.9-.5-.9-1.2h0C127.3,281.9,127.7,281.4,128.2,281.4Z"/><path class="r" d="M128.3,274.8h0a.5.5,0,0,1,.4.5v4.3a.5.5,0,0,1-.4.5h0a.5.5,0,0,1-.5-.5v-4.3A.5.5,0,0,1,128.3,274.8Z"/><path class="q" d="M125.3,281.4h0c.6,0,1,.5,1,1.2h0c0,.7-.4,1.2-1,1.2h0c-.5,0-.9-.5-.9-1.2h0C124.4,281.9,124.8,281.4,125.3,281.4Z"/><path class="q" d="M125.4,277.2h0a.5.5,0,0,1,.4.5v1.9a.5.5,0,0,1-.4.5h0c-.3,0-.4-.2-.4-.5v-1.9C125,277.4,125.1,277.2,125.4,277.2Z"/><path class="s" d="M121.5,291.4h67.3a2.3,2.3,0,0,1,2.4,2.2v14.3a2.3,2.3,0,0,1-2.4,2.2H121.5a2.3,2.3,0,0,1-2.4-2.2V293.6A2.3,2.3,0,0,1,121.5,291.4Z"/><path class="p" d="M120.2,291.4h23.2v18.7H120.2a1.2,1.2,0,0,1-1.1-1.3V292.7A1.2,1.2,0,0,1,120.2,291.4Z"/><path class="t" d="M164.5,298.1h0a.9.9,0,0,1,.8,1h0a.9.9,0,0,1-.8.9h0a.9.9,0,0,1-.8-.9h0A.9.9,0,0,1,164.5,298.1Z"/><path class="q" d="M166.3,302h0c.5,0,.8.4.8,1h0a.8.8,0,0,1-.8.9h0a.8.8,0,0,1-.7-.9h0C165.6,302.4,165.9,302,166.3,302Z"/><path class="t" d="M167.6,298.1h0c.4,0,.7.4.7,1h0a.8.8,0,0,1-.7.9h0a.8.8,0,0,1-.8-.9h0C166.8,298.5,167.1,298.1,167.6,298.1Z"/><path class="t" d="M169.4,302h0a.9.9,0,0,1,.8,1h0a.9.9,0,0,1-.8.9h0a.9.9,0,0,1-.8-.9h0A.9.9,0,0,1,169.4,302Z"/><path class="r" d="M170.6,298.1h0a.9.9,0,0,1,.8,1h0a.9.9,0,0,1-.8.9h0a.8.8,0,0,1-.7-.9h0C169.9,298.5,170.2,298.1,170.6,298.1Z"/><path class="t" d="M172.4,302h0c.5,0,.8.4.8,1h0a.8.8,0,0,1-.8.9h0a.8.8,0,0,1-.7-.9h0C171.7,302.4,172,302,172.4,302Z"/><path class="t" d="M173.7,298.1h0c.4,0,.7.4.7,1h0a.8.8,0,0,1-.7.9h0a.8.8,0,0,1-.8-.9h0C172.9,298.5,173.2,298.1,173.7,298.1Z"/><path class="q" d="M175.5,302h0a.9.9,0,0,1,.8,1h0a.9.9,0,0,1-.8.9h0a.9.9,0,0,1-.8-.9h0A.9.9,0,0,1,175.5,302Z"/><path class="t" d="M176.7,298.1h0a.9.9,0,0,1,.8,1h0a.9.9,0,0,1-.8.9h0a.8.8,0,0,1-.7-.9h0C176,298.5,176.3,298.1,176.7,298.1Z"/><path class="t" d="M178.6,302h0c.4,0,.7.4.7,1h0a.8.8,0,0,1-.7.9h0a.8.8,0,0,1-.8-.9h0C177.8,302.4,178.1,302,178.6,302Z"/><ellipse class="e" cx="183.9" cy="300.8" rx="1.3" ry="1.7"/><ellipse class="u" cx="183.9" cy="300.8" rx="1" ry="1.3"/><path class="t" d="M161,297.3h0c.3,0,.5.4.5.8v5.5c0,.4-.2.8-.5.8h0c-.4,0-.6-.4-.6-.8v-5.5C160.4,297.7,160.6,297.3,161,297.3Z"/><path class="t" d="M158.6,297.3h0c.4,0,.6.4.6.8v5.5c0,.4-.2.8-.6.8h0c-.3,0-.5-.4-.5-.8v-5.5C158.1,297.7,158.3,297.3,158.6,297.3Z"/><rect class="p" x="147.1" y="297.3" width="9.2" height="2.95"/><rect class="p" x="147.1" y="301.4" width="9.2" height="2.95"/><path class="r" d="M160.4,298.8h1.1v4.8c0,.4-.2.8-.5.8h0c-.4,0-.6-.4-.6-.8v-4.8Z"/><path class="q" d="M158.1,301.6h1.1v2c0,.4-.2.8-.6.8h0c-.3,0-.5-.4-.5-.8h0v-2Z"/><rect class="v" x="147.1" y="297.3" width="2.3" height="2.95"/><rect class="v" x="147.1" y="301.4" width="2.3" height="2.95"/><rect class="d" x="150.6" y="298.4" width="4.6" height="0.74"/><rect class="d" x="150.6" y="302.5" width="4.6" height="0.74"/><ellipse class="e" cx="183.9" cy="300.8" rx="2.7" ry="3.5"/><ellipse class="w" cx="183.9" cy="300.8" rx="2.5" ry="3.2"/><path class="d" d="M136.9,303.4h0c.5,0,.9.5.9,1.2h0c0,.7-.4,1.2-.9,1.2h0c-.6,0-1-.5-1-1.2h0C135.9,303.9,136.3,303.4,136.9,303.4Z"/><path class="c" d="M136.9,296.2h0a.6.6,0,0,1,.5.6v4.8a.5.5,0,0,1-.5.5h0a.5.5,0,0,1-.4-.5v-4.8C136.5,296.5,136.7,296.2,136.9,296.2Z"/><path class="x" d="M134,303.4h0c.5,0,.9.5.9,1.2h0c0,.7-.4,1.2-.9,1.2h0a1.1,1.1,0,0,1-1-1.2h0A1.1,1.1,0,0,1,134,303.4Z"/><path class="y" d="M134,298.4h0a.6.6,0,0,1,.5.6v2.6a.5.5,0,0,1-.5.5h0a.5.5,0,0,1-.4-.5V299C133.6,298.7,133.8,298.4,134,298.4Z"/><path class="d" d="M131.1,303.4h0a1.1,1.1,0,0,1,1,1.2h0a1.1,1.1,0,0,1-1,1.2h0a1.1,1.1,0,0,1-1-1.2h0A1.1,1.1,0,0,1,131.1,303.4Z"/><path class="c" d="M131.2,295.4h0a.5.5,0,0,1,.4.5v5.7a.5.5,0,0,1-.4.5h0a.5.5,0,0,1-.5-.5v-5.7A.5.5,0,0,1,131.2,295.4Z"/><path class="r" d="M128.2,303.4h0a1.1,1.1,0,0,1,1,1.2h0a1.1,1.1,0,0,1-1,1.2h0c-.5,0-.9-.5-.9-1.2h0C127.3,303.9,127.7,303.4,128.2,303.4Z"/><path class="r" d="M128.3,296.8h0a.5.5,0,0,1,.4.5v4.3a.5.5,0,0,1-.4.5h0a.5.5,0,0,1-.5-.5v-4.3A.5.5,0,0,1,128.3,296.8Z"/><path class="q" d="M125.3,303.4h0c.6,0,1,.5,1,1.2h0c0,.7-.4,1.2-1,1.2h0c-.5,0-.9-.5-.9-1.2h0C124.4,303.9,124.8,303.4,125.3,303.4Z"/><path class="q" d="M125.4,299.2h0a.5.5,0,0,1,.4.5v1.9a.5.5,0,0,1-.4.5h0c-.3,0-.4-.2-.4-.5v-1.9C125,299.4,125.1,299.2,125.4,299.2Z"/><path class="s" d="M296.2,135.5c-.5-2.2-2.4-3.7-4.2-3.1s-1.2.7-1.9.6a4.1,4.1,0,0,1-1.7-.7c-2.5-1.4-5.8.4-6.8,3.8a4,4,0,0,0-5.3.5,7.4,7.4,0,0,0-1.7,6.5,5.4,5.4,0,0,0-3.5,4.8c-.1,2.3,1,4.7,2.7,5.6a7.8,7.8,0,0,0-.1,5.8,5.3,5.3,0,0,0,3.6,3.3c3.1,5.3,17.2,7.9,22.2-.4,1.8.7,3.9-.3,5-2.3a7.4,7.4,0,0,0-.2-6.8,4.1,4.1,0,0,0,3.4-3.5,7.7,7.7,0,0,0-.8-5.6,6.8,6.8,0,0,0-3.9-3.1,7.2,7.2,0,0,0-2.3-4.4,4.1,4.1,0,0,0-4.1-.7"/><polygon class="z" points="290.5 264.5 288.7 336.6 286 336.6 286.6 264.7 290.5 264.5"/><polygon class="z" points="300.2 263.7 313.4 339.7 316.2 339.5 305.3 263.7 300.2 263.7"/><polygon class="z" points="275.7 264.5 260.3 339.7 256.9 339.5 271.4 264.2 275.7 264.5"/><path class="z" d="M313.2,190s14.4-1.1,13,20.2-2.3,42.9-7.6,50.3-59.2,7.6-63.7,1.6,8.6-5.8,11.1-5.8,17.6,1.8,22.6-14.8S292.3,188.9,313.2,190Z"/><path class="z" d="M314.2,190s11,2.9,9.9,17.6-3.9,40.5-9.2,47.1-26.3,8-37.6,7.1c-13.2-1.1-21.5-4.3-21.5-4.3s-2.4,2-1.7,3.3,7.2,6.4,38.3,5.5,28.9-6.7,30.2-13.1,4-40.6,3.6-48.1S322.9,191.3,314.2,190Z"/><path class="q" d="M247.9,335.2v-8.4l12.2-.2.2,12.2h-.8c-3.4.3-17.2,1.2-19.5.4S247.9,335.2,247.9,335.2Z"/><path class="q" d="M275.8,335.2v-8.4l12.3-.2.2,12.2h-.8c-3.4.3-17.2,1.2-19.5.4S275.8,335.2,275.8,335.2Z"/><path class="aa" d="M252,162.7c-.8,11-3.1,44.2,8.8,43,14-1.4,17.2-15.5,17.2-15.5l-2.8-12.7s-13.7,15.3-14.1,13.5c-1.9-10.2-1.4-24.1-1.1-29.1"/><path class="d" d="M314.1,202l-2.6-15.5c-1.7-12.6-15.5-13.4-15.5-13.4l-10.8-.3a18.9,18.9,0,0,0-13,5.8c-5.8,6.1-9.6,10.7-9.6,10.7l9,13.4,5.4-4.5,2.4,38.2,32.1.4-4.1-34.6Z"/><path class="ab" d="M271.6,202.7c0,.1-2.1-2.9-4.5-6.7s-4.2-6.8-4.2-6.9a73.2,73.2,0,0,1,4.5,6.6A77.1,77.1,0,0,1,271.6,202.7Z"/><polygon class="ac" points="279.3 233.3 278.9 224.6 309.8 224.6 310.9 232.1 279.3 233.3"/><path class="ac" d="M298.2,187c.1,5.3,1.2,10.7,1.3,16a12.5,12.5,0,0,1-.5,5.1c-1.1,2.6-3.7,3.4-5.9,4l-13.8,3.7,24.6-1.6Z"/><path class="aa" d="M315.4,214.2c-.7-7.4-1.5-12.2-1.5-12.2l-12.5.3s1.1,8.1.7,10.3-24.5,3.1-30.8,3.2c-.4-.3-.9.3-1.4-.3a5.6,5.6,0,0,1-1.1-1.7,12.1,12.1,0,0,1-.8-2.5c-.1-.8-1-1-1.2-.3s0,3,1.2,5.2-1.9,1.1-3.1.7-4.7-1.4-5.1-1-.2,1.4.9,1.7,4.6,1.8,4.4,2.6-6-1.4-6-1.4-1.2-.7-1.4.2,5.9,3.3,6.5,3.4.2,1-.2.8-5.8-2.2-6.3-.6,5.2,1.4,6.1,2.7-4.2-.7-4.4.5,2,.7,5,1.2a57.7,57.7,0,0,0,9.5.5c7.1.5,32.1,1.1,37.5.7S315.6,216.7,315.4,214.2Z"/><path class="aa" d="M259.8,164.6s.1-1.3.4-4.7l2.8-7.4s-.7-1.5-2.2,1.8c-.7,1.4-3,.8-2.6-1.5s2.7-3.4,4.2-1.1a.9.9,0,0,0,1-.8c.1-1-2-3.3-3.8-2.6a4.8,4.8,0,0,0-2,1.4s.4-7.7-.1-7.8-1.2.4-1.5,8.9c0,0-.2-6.7-.3-7.5s-1-1.5-1.1.7c-.1.2-.4,6.8-.4,6.8s-.6-4.3-.6-4.7-.9-.8-1,.4-.2,4.8-.2,4.8l-.4,11.9v.6"/><path class="aa" d="M284.3,176.9l-.2-8.1s-4.6-.8-4.8-6.7.3-19.7.3-19.7l8.4-5.1,7.3,10.6v28.8c0,3.9-2.5,7.1-5.6,7.1h0C286.8,183.8,284.3,180.7,284.3,176.9Z"/><path class="ad" d="M284.1,168.8a9.5,9.5,0,0,0,6-2.5,5.8,5.8,0,0,1-6,3.9Z"/><path class="s" d="M279.3,141a4.3,4.3,0,0,0-1.5,4.2c.4,1.6,1.6,2.9,2.9,2.9s2.5-1.1,2.9-2.7a3.7,3.7,0,0,0,.6,3.8,2.5,2.5,0,0,0,3,.6,4.5,4.5,0,0,0,2.1-3.1,4.9,4.9,0,0,0,1.3,3.4,2.8,2.8,0,0,0,3,.6,5,5,0,0,0-1.5,4,4.1,4.1,0,0,0,2.1,3.4,4.6,4.6,0,0,0-1.1,4.8,2.9,2.9,0,0,0,3.5,2c1.4-.6,2.3-2.4,2.9-4.2a25.2,25.2,0,0,0-.1-14.9c-1.6-4.7-4.9-8.4-8.8-9.6s-8.2.4-10.9,4.1"/><path class="ae" d="M258.1,235.9a148.1,148.1,0,0,1,32.5-.6l-13.7,25.3H264.5l-2.7,72.5H245.5l1.5-81.4c.2-8.1,4.9-14.8,11.1-15.8Z"/><path class="l" d="M288.3,262.6s24.6,2.1,23.9-26.1c0,0-39.3-8.5-41.9,6.1-.8,4.7,1.5,91.1,1.5,91.1H289"/><polygon class="af" points="235.6 183.8 244.9 221.1 296.5 222.3 296.1 220.3 277.3 219.5 268.6 183.8 235.6 183.8"/><path class="y" d="M256.5,202.4c.3,1.6-.2,3.2-1.1,3.5s-2-.7-2.3-2.3.2-3.1,1.1-3.4S256.2,200.9,256.5,202.4Z"/><path class="ag" d="M350.4,210.4a3.8,3.8,0,0,0-2.9-1.1v-1.1H331.7s-.5,13.3,7.5,13.8c3.5.2,5.6-1.9,6.7-4.4l1.8.2a3.4,3.4,0,0,0,2.5-.9,4.2,4.2,0,0,0,1.2-3.4A4.8,4.8,0,0,0,350.4,210.4Zm-1.1,5a3.2,3.2,0,0,1-2.7.3,18.7,18.7,0,0,0,.8-4.4,3.3,3.3,0,0,1,2,.6,3.6,3.6,0,0,1-.1,3.5Z"/><polygon class="ab" points="364.4 221.2 202.7 221.2 202.7 227.6 211.3 227.6 206.7 339.5 209.2 339.5 213.8 227.6 355.5 226.6 358.8 339.2 361.5 339.4 358 227.6 364.4 227.6 364.4 221.2"/></svg>