<svg xmlns="http://www.w3.org/2000/svg" xmlns:xlink="http://www.w3.org/1999/xlink" viewBox="0 0 400 400"><defs><style>.a{fill:url(#a);}.b{fill:#d1ebff;}.c{fill-rule:evenodd;opacity:0.61;fill:url(#b);}.d{fill:#b2d3ea;}.e{fill:#0050af;}.f{fill:#4ea4f9;}.g{fill:#197bdd;}.h{fill:#fafdff;}.i{fill:#d4ecff;}.j{fill:#173d7a;}.k{fill:#fff;}.l{fill:#396caa;}.m{fill:#f59b6b;}.n{fill:#21e2e2;}</style><linearGradient id="a" x1="-468.23" y1="400.25" x2="-468.24" y2="400.92" gradientTransform="matrix(740.56, 0, 0, -612.51, 346964.56, 245617.49)" gradientUnits="userSpaceOnUse"><stop offset="0" stop-color="#c6e6ff"/><stop offset="1" stop-color="#fff"/></linearGradient><linearGradient id="b" x1="139.72" y1="136.15" x2="382.91" y2="136.15" gradientUnits="userSpaceOnUse"><stop offset="0" stop-color="#288ed9"/><stop offset="1" stop-color="#137fcf" stop-opacity="0.05"/></linearGradient></defs><title>what-is-foreign dedicatedservers</title><path class="a" d="M205.7,108.5c64.1,41,137.7,59.4,137.7,59.4s80.9,12.3,51.1,104.5-33.6,125.2-80.3,127.5c-44.3,1.3-69.1-17-112.9-13.8-38.5,2.9-65,20.3-129.2-5C-30.9,335.5-23.2-35.9,205.7,108.5Z"/><circle class="b" cx="261.3" cy="137.8" r="121.6" transform="translate(-20.9 225.2) rotate(-45)"/><path class="c" d="M261.3,16.2A121.6,121.6,0,0,1,295.1,21a23.5,23.5,0,0,0-.8,10.7c1.8,12.7-4.9,25.1-19.7,20.8s-11.2,13.4-34.2,10.9c-19.3-2-40-12.4-39.9-30.9a121.7,121.7,0,0,1,60.8-16.3ZM315.6,29c5.9,13.6,10.4,34.9-11.3,46.2-33.6,17.6-59.3,17-55.7,39.1s2.1,26-1.8,30.8,2.3,12.9,14.4,9.4c0,0,2.7-2,3.3.6s-7.3,11.3.1,20.4,21.2,3.9,28.5-.9,22.7,6.7,25.8,16.2.9,19.2,16.1,18.9,9.5-21.5,9.3-31.5,1.3-30.5,15.5-29.9,9.8-6.2,16.5-8.3a12.5,12.5,0,0,1,6.6-.3v-1.9A121.7,121.7,0,0,0,315.6,29Zm-7.9,182s4.1-4.9,8.4-2.7,5.3,9.9,2.2,11.5-13.7-4.7-10.6-8.8Zm-74.9,45.1c12.1-14.8-.6-29.4-8.1-36.3s12.7-38.1-11.8-38.7-37.8-17.5-19-19.7,11.5-12.7,13.3-21.1,8.1-.9,20.2-5.2-5.7-29.9-17.8-29.3-8.5,18.4-15.4,16-8.8-17.5,1.2-20.6,10.9-11.4,7.5-18.7-20.2,0-23.9-12.4c-1.8-6.2-6.5-9.1-10.8-10.4a120.8,120.8,0,0,0-28.5,78.1c0,2.7.1,5.3.3,7.9,16.6,11.1,33.5,35.9,31.2,49-3.1,17.3,12.7,26.3,19.6,31.5,3.7,2.7,5,9,5.4,14.4A122.8,122.8,0,0,0,232.8,256.1Z"/><path class="d" d="M185.1,360l-72.2-41.2c-2.7-1.5-2.3-4.2.7-5.9l41.6-24c3-1.8,7.7-2,10.3-.5l72.2,41.2c2.7,1.5,2.3,4.2-.7,6l-41.6,24C192.4,361.3,187.8,361.5,185.1,360Z"/><path class="e" d="M244.2,315.5h0V146.9l-67.1-17.6-12.3-7.1c-2.9-1.7-7.8-1.4-11.1.4l-11.5,6.7H106.4L117,292.1a3.3,3.3,0,0,0,1.9,2.9l66.9,50.5c2.9,1.7,7.8,1.5,11.1-.4l44.6-25.8C243.4,318.2,244.3,316.8,244.2,315.5Z"/><path class="f" d="M159.7,121.3a13.4,13.4,0,0,0-6,1.6l-11.5,6.6H106.4V298.6a3.5,3.5,0,0,0,1.9,3l77.5,44.2a10.8,10.8,0,0,0,5.2,1.1l.8-170.2Z"/><path class="g" d="M186.5,346.1a12.4,12.4,0,0,0,8.9-.1V174.7h-8.9Z"/><path class="f" d="M185.8,176.7l-77.5-44.2c-2.8-1.6-2.4-4.4.8-6.3l44.6-25.8c3.3-1.9,8.2-2.1,11.1-.4l77.5,44.1c2.8,1.7,2.5,4.5-.8,6.4l-44.6,25.8C193.6,178.2,188.7,178.4,185.8,176.7Z"/><path class="h" d="M241.5,147.4l-44.6,25.7c-3.3,1.9-8.2,2.1-11.1.5l-77.5-44.2a5.8,5.8,0,0,1-1.4-1.2c-.9,1.5-.5,3.2,1.4,4.3l77.5,44.2c2.9,1.7,7.8,1.5,11.1-.4l44.6-25.8c2.5-1.4,3.3-3.5,2.2-5.1A7.2,7.2,0,0,1,241.5,147.4Z"/><path class="g" d="M188,158.8l-51.6-29.9c-1.3-.7-1.1-2.1.4-3l20.9-12a5.4,5.4,0,0,1,5.1-.2l51.6,29.9c1.4.7,1.2,2.1-.3,3l-20.9,12A5.6,5.6,0,0,1,188,158.8Z"/><path class="i" d="M160.2,130.3l-3-1.8a.2.2,0,0,1,0-.4l2.9-1.6a.6.6,0,0,1,.7-.1l3,1.8c.2.1.2.2,0,.4l-2.9,1.6A.6.6,0,0,1,160.2,130.3Z"/><path class="i" d="M170.2,136l-3-1.7a.2.2,0,0,1,0-.4l2.9-1.7h.7l3,1.7a.2.2,0,0,1,0,.4l-2.9,1.7Z"/><path class="i" d="M180.2,141.7l-3-1.7a.2.2,0,0,1,0-.4l2.9-1.7h.7l3,1.7c.2.1.2.3,0,.5l-2.9,1.6C180.7,141.8,180.3,141.9,180.2,141.7Z"/><path class="i" d="M190.1,147.5l-2.9-1.7a.2.2,0,0,1,0-.4l2.9-1.7c.2-.1.5-.2.7,0l3,1.7c.2.1.2.3-.1.4l-2.8,1.7Z"/><path class="e" d="M136.4,128.9h.1l.3-.3,20.9-12a5.4,5.4,0,0,1,5.1-.2l51.6,29.9c1.2-.9,1.3-2.1,0-2.8l-51.6-29.9a5.4,5.4,0,0,0-5.1.2l-20.9,12C135.3,126.8,135.1,128.2,136.4,128.9Z"/><path class="j" d="M205.6,210.1l29.3-16.7a7.3,7.3,0,0,0,3-5.8V177.1c0-2.2-1.3-3.2-3-2.2l-29.3,16.8a7.2,7.2,0,0,0-3,5.7v10.5C202.6,210.1,204,211.1,205.6,210.1Z"/><path class="k" d="M236.4,174.6a3.2,3.2,0,0,1,.7,2.2v10.4a7.3,7.3,0,0,1-3,5.8l-29.3,16.8a2.5,2.5,0,0,1-1.4.3,1.7,1.7,0,0,0,2.2,0l29.3-16.7a7.3,7.3,0,0,0,3-5.8V177.1C237.9,175.7,237.3,174.7,236.4,174.6Z"/><path class="l" d="M214.4,198.8l2.7-1.6a1.5,1.5,0,0,0,.7-1.2v-2.9c0-.5-.3-.7-.7-.5l-2.7,1.5a1.8,1.8,0,0,0-.6,1.3v2.9C213.8,198.7,214.1,199,214.4,198.8Z"/><path class="k" d="M223.4,193.6l2.7-1.6a1.5,1.5,0,0,0,.7-1.2v-2.9c0-.5-.3-.7-.7-.5l-2.7,1.5a2,2,0,0,0-.6,1.3v2.9C222.8,193.5,223.1,193.8,223.4,193.6Z"/><path class="j" d="M205.6,286l29.3-16.8a7.3,7.3,0,0,0,3-5.8V253c0-2.2-1.3-3.3-3-2.3l-29.3,16.8a7.2,7.2,0,0,0-3,5.7v10.5C202.6,285.9,204,286.9,205.6,286Z"/><path class="k" d="M236.4,250.4a3.2,3.2,0,0,1,.7,2.2v10.5a7.1,7.1,0,0,1-3,5.7l-29.3,16.8a2.5,2.5,0,0,1-1.4.3,1.8,1.8,0,0,0,2.2.1l29.3-16.8a7.3,7.3,0,0,0,3-5.8V253C237.9,251.5,237.3,250.5,236.4,250.4Z"/><path class="l" d="M214.4,274.6l2.7-1.6a1.5,1.5,0,0,0,.7-1.2v-2.9c0-.5-.3-.7-.7-.5l-2.7,1.5a2,2,0,0,0-.6,1.3v2.9C213.8,274.5,214.1,274.8,214.4,274.6Z"/><path class="l" d="M223.4,269.4l2.7-1.6a1.5,1.5,0,0,0,.7-1.2v-2.9c0-.5-.3-.7-.7-.5l-2.7,1.5a2,2,0,0,0-.6,1.3v2.9C222.8,269.3,223.1,269.6,223.4,269.4Z"/><path class="j" d="M205.6,323.9l29.3-16.8a7.3,7.3,0,0,0,3-5.8V290.9c0-2.2-1.3-3.3-3-2.3l-29.3,16.8a7.2,7.2,0,0,0-3,5.7v10.5C202.6,323.8,204,324.8,205.6,323.9Z"/><path class="k" d="M236.4,288.3a3.2,3.2,0,0,1,.7,2.2V301a7.1,7.1,0,0,1-3,5.7l-29.3,16.8a2.5,2.5,0,0,1-1.4.3,1.8,1.8,0,0,0,2.2.1l29.3-16.8a7.3,7.3,0,0,0,3-5.8V290.9C237.9,289.4,237.3,288.4,236.4,288.3Z"/><path class="k" d="M214.4,312.5l2.7-1.6a1.5,1.5,0,0,0,.7-1.2v-2.9c0-.5-.3-.7-.7-.5l-2.7,1.5a2,2,0,0,0-.6,1.3V312C213.8,312.4,214.1,312.7,214.4,312.5Z"/><path class="l" d="M223.4,307.3l2.7-1.6a1.5,1.5,0,0,0,.7-1.2v-2.9c0-.5-.3-.7-.7-.5l-2.7,1.6a1.6,1.6,0,0,0-.6,1.2v2.9C222.8,307.3,223.1,307.5,223.4,307.3Z"/><path class="j" d="M205.6,248l29.3-16.7a7.3,7.3,0,0,0,3-5.8V215.1c0-2.2-1.3-3.3-3-2.3l-29.3,16.8a7.2,7.2,0,0,0-3,5.7v10.5C202.6,248,204,249,205.6,248Z"/><path class="k" d="M236.4,212.5a3.2,3.2,0,0,1,.7,2.2v10.4a7.3,7.3,0,0,1-3,5.8l-29.3,16.8a2.5,2.5,0,0,1-1.4.3,1.7,1.7,0,0,0,2.2,0l29.3-16.7a7.3,7.3,0,0,0,3-5.8V215.1C237.9,213.6,237.3,212.6,236.4,212.5Z"/><path class="k" d="M214.4,236.7l2.7-1.6a1.5,1.5,0,0,0,.7-1.2V231c0-.5-.3-.7-.7-.5l-2.7,1.5a1.8,1.8,0,0,0-.6,1.3v2.9C213.8,236.6,214.1,236.9,214.4,236.7Z"/><path class="k" d="M223.4,231.5l2.7-1.6a1.5,1.5,0,0,0,.7-1.2v-2.9c0-.5-.3-.7-.7-.5l-2.7,1.5a2,2,0,0,0-.6,1.3V231C222.8,231.4,223.1,231.7,223.4,231.5Z"/><path class="e" d="M180.2,199.4l-67.7-39.1c-1.5-.8-2.7-3.2-2.7-5.2V142.2c0-2,1.2-3,2.7-2.1l67.7,39.1a6.6,6.6,0,0,1,2.7,5.2v12.9C182.9,199.4,181.7,200.3,180.2,199.4Z"/><path class="f" d="M178.3,194.9l-63.8-36.8a3.5,3.5,0,0,1-1.4-2.7v-9.7c0-1,.6-1.5,1.4-1.1l63.8,36.9a3.3,3.3,0,0,1,1.3,2.6v9.7C179.6,194.9,179,195.3,178.3,194.9Z"/><path class="m" d="M127.8,160.8l-9.6-5.5a3.3,3.3,0,0,1-1.3-2.6h0c0-.9.6-1.4,1.3-1l9.6,5.5a3.5,3.5,0,0,1,1.3,2.6h0C129.1,160.8,128.5,161.3,127.8,160.8Z"/><path class="n" d="M135.9,163.7c0,1-.7,1.4-1.6.9a3.4,3.4,0,0,1-1.6-2.7c0-1,.7-1.4,1.6-.9A3.4,3.4,0,0,1,135.9,163.7Z"/><path class="n" d="M141.4,166.9c0,1-.7,1.4-1.6.9a3.4,3.4,0,0,1-1.6-2.7c0-1,.7-1.4,1.6-.9A3.4,3.4,0,0,1,141.4,166.9Z"/><path class="m" d="M146.9,170.1c0,1-.7,1.4-1.6.9a3.6,3.6,0,0,1-1.5-2.7c0-1,.7-1.4,1.5-.9A3.4,3.4,0,0,1,146.9,170.1Z"/><path class="n" d="M152.4,173.2c0,1-.7,1.4-1.6.9a3.6,3.6,0,0,1-1.5-2.7c0-1,.7-1.4,1.5-.9A3.4,3.4,0,0,1,152.4,173.2Z"/><path class="n" d="M175.6,189.5l-3.2-1.9a1.9,1.9,0,0,1-.9-1.6v-3.4c0-.7.4-1,.9-.7l3.2,1.9a2.3,2.3,0,0,1,.8,1.6v3.4C176.4,189.5,176,189.8,175.6,189.5Z"/><path class="e" d="M180.2,222.2l-67.7-39.1a6.6,6.6,0,0,1-2.7-5.2v-13c0-2,1.2-2.9,2.7-2l67.7,39a6.8,6.8,0,0,1,2.7,5.3v12.9C182.9,222.1,181.7,223,180.2,222.2Z"/><path class="f" d="M178.3,217.6l-63.8-36.8a3.1,3.1,0,0,1-1.4-2.6v-9.8c0-1,.6-1.4,1.4-1l63.8,36.8a3.7,3.7,0,0,1,1.3,2.7v9.7C179.6,217.6,179,218.1,178.3,217.6Z"/><path class="m" d="M127.8,183.6l-9.6-5.5a3.3,3.3,0,0,1-1.3-2.6h0c0-1,.6-1.5,1.3-1l9.6,5.5a3.3,3.3,0,0,1,1.3,2.6h0C129.1,183.6,128.5,184,127.8,183.6Z"/><path class="m" d="M135.9,186.5c0,1-.7,1.4-1.6.9a3.4,3.4,0,0,1-1.6-2.7c0-1,.7-1.4,1.6-.9A3.4,3.4,0,0,1,135.9,186.5Z"/><path class="n" d="M141.4,189.6c0,1-.7,1.4-1.6.9a3.4,3.4,0,0,1-1.6-2.7c0-1,.7-1.4,1.6-.9A3.4,3.4,0,0,1,141.4,189.6Z"/><path class="m" d="M146.9,192.8c0,1-.7,1.4-1.6.9a3.6,3.6,0,0,1-1.5-2.7c0-1,.7-1.4,1.5-.9A3.4,3.4,0,0,1,146.9,192.8Z"/><path class="n" d="M152.4,196c0,1-.7,1.4-1.6.9a3.6,3.6,0,0,1-1.5-2.7c0-1,.7-1.4,1.5-.9A3.4,3.4,0,0,1,152.4,196Z"/><path class="n" d="M175.6,212.2l-3.2-1.8a2.1,2.1,0,0,1-.9-1.7v-3.4c0-.6.4-.9.9-.6l3.2,1.8a2.3,2.3,0,0,1,.8,1.7v3.4C176.4,212.2,176,212.5,175.6,212.2Z"/><path class="e" d="M180.2,244.9l-67.7-39.1c-1.5-.8-2.7-3.2-2.7-5.2V187.7c0-2,1.2-2.9,2.7-2.1l67.7,39.1a6.6,6.6,0,0,1,2.7,5.2v12.9C182.9,244.9,181.7,245.8,180.2,244.9Z"/><path class="f" d="M178.3,240.4l-63.8-36.8a3.5,3.5,0,0,1-1.4-2.7v-9.7c0-1,.6-1.5,1.4-1L178.3,227a3.3,3.3,0,0,1,1.3,2.6v9.7C179.6,240.4,179,240.8,178.3,240.4Z"/><path class="m" d="M127.8,206.3l-9.6-5.5a3.1,3.1,0,0,1-1.3-2.5h0c0-1,.6-1.5,1.3-1.1l9.6,5.5a3.5,3.5,0,0,1,1.3,2.6h0C129.1,206.3,128.5,206.8,127.8,206.3Z"/><path class="m" d="M135.9,209.2c0,1-.7,1.4-1.6.9a3.4,3.4,0,0,1-1.6-2.7c0-1,.7-1.4,1.6-.9A3.4,3.4,0,0,1,135.9,209.2Z"/><path class="n" d="M141.4,212.4c0,1-.7,1.4-1.6.9a3.4,3.4,0,0,1-1.6-2.7c0-1,.7-1.4,1.6-.9A3.4,3.4,0,0,1,141.4,212.4Z"/><path class="m" d="M146.9,215.6c0,1-.7,1.4-1.6.9a3.6,3.6,0,0,1-1.5-2.7c0-1,.7-1.4,1.5-.9A3.4,3.4,0,0,1,146.9,215.6Z"/><path class="n" d="M152.4,218.8a1,1,0,0,1-1.6.9,3.7,3.7,0,0,1-1.5-2.7c0-1,.7-1.4,1.5-.9A3.2,3.2,0,0,1,152.4,218.8Z"/><path class="n" d="M175.6,235l-3.2-1.9a1.9,1.9,0,0,1-.9-1.6v-3.4c0-.6.4-.9.9-.7l3.2,1.9a2.3,2.3,0,0,1,.8,1.6v3.4C176.4,235,176,235.3,175.6,235Z"/><path class="e" d="M180.2,267.7l-67.7-39.1a6.6,6.6,0,0,1-2.7-5.2V210.5c0-2.1,1.2-3,2.7-2.1l67.7,39.1c1.5.8,2.7,3.2,2.7,5.2v12.9C182.9,267.6,181.7,268.6,180.2,267.7Z"/><path class="f" d="M178.3,263.2l-63.8-36.9a3.1,3.1,0,0,1-1.4-2.6V214c0-1.1.6-1.5,1.4-1.1l63.8,36.8a3.7,3.7,0,0,1,1.3,2.7v9.7C179.6,263.1,179,263.6,178.3,263.2Z"/><path class="m" d="M127.8,229.1l-9.6-5.5a3.3,3.3,0,0,1-1.3-2.6h0c0-1,.6-1.4,1.3-1l9.6,5.5a3.3,3.3,0,0,1,1.3,2.6h0C129.1,229.1,128.5,229.5,127.8,229.1Z"/><path class="n" d="M135.9,232c0,1-.7,1.4-1.6.9a3.4,3.4,0,0,1-1.6-2.7c0-1,.7-1.4,1.6-.9A3.4,3.4,0,0,1,135.9,232Z"/><path class="n" d="M141.4,235.2a1,1,0,0,1-1.6.9,3.5,3.5,0,0,1-1.6-2.7c0-1,.7-1.4,1.6-.9A3.2,3.2,0,0,1,141.4,235.2Z"/><path class="m" d="M146.9,238.3c0,1-.7,1.4-1.6.9a3.6,3.6,0,0,1-1.5-2.7c0-1,.7-1.4,1.5-.9A3.4,3.4,0,0,1,146.9,238.3Z"/><path class="n" d="M152.4,241.5c0,1-.7,1.4-1.6.9a3.6,3.6,0,0,1-1.5-2.7c0-1,.7-1.4,1.5-.9A3.4,3.4,0,0,1,152.4,241.5Z"/><path class="m" d="M175.6,257.8l-3.2-1.9a2.1,2.1,0,0,1-.9-1.7v-3.4c0-.6.4-.9.9-.6l3.2,1.8a2.5,2.5,0,0,1,.8,1.7v3.4C176.4,257.7,176,258,175.6,257.8Z"/><path class="e" d="M180.2,290.4l-67.7-39a6.8,6.8,0,0,1-2.7-5.3V233.2c0-2,1.2-2.9,2.7-2.1l67.7,39.1a6.6,6.6,0,0,1,2.7,5.3v12.9C182.9,290.4,181.7,291.3,180.2,290.4Z"/><path class="f" d="M178.3,285.9l-63.8-36.8a3.5,3.5,0,0,1-1.4-2.7v-9.7c0-1,.6-1.5,1.4-1l63.8,36.8a3.4,3.4,0,0,1,1.3,2.7v9.7C179.6,285.9,179,286.4,178.3,285.9Z"/><path class="m" d="M127.8,251.8l-9.6-5.4a3.5,3.5,0,0,1-1.3-2.6h0c0-1,.6-1.5,1.3-1l9.6,5.4a3.5,3.5,0,0,1,1.3,2.6h0C129.1,251.8,128.5,252.3,127.8,251.8Z"/><path class="n" d="M135.9,254.7c0,1-.7,1.4-1.6.9a3.4,3.4,0,0,1-1.6-2.7c0-1,.7-1.4,1.6-.9A3.4,3.4,0,0,1,135.9,254.7Z"/><path class="m" d="M141.4,257.9c0,1-.7,1.4-1.6.9a3.4,3.4,0,0,1-1.6-2.7c0-1,.7-1.4,1.6-.9A3.4,3.4,0,0,1,141.4,257.9Z"/><path class="m" d="M146.9,261.1c0,1-.7,1.4-1.6.9a3.6,3.6,0,0,1-1.5-2.7c0-1,.7-1.4,1.5-.9A3.4,3.4,0,0,1,146.9,261.1Z"/><path class="m" d="M152.4,264.3c0,1-.7,1.4-1.6.9a3.6,3.6,0,0,1-1.5-2.7c0-1,.7-1.4,1.5-.9A3.4,3.4,0,0,1,152.4,264.3Z"/><path class="m" d="M175.6,280.5l-3.2-1.8a2.2,2.2,0,0,1-.9-1.7v-3.4c0-.6.4-.9.9-.7l3.2,1.9a2.3,2.3,0,0,1,.8,1.7v3.4C176.4,280.5,176,280.8,175.6,280.5Z"/><path class="e" d="M180.2,313.2l-67.7-39.1a6.6,6.6,0,0,1-2.7-5.2V256c0-2,1.2-3,2.7-2.1L180.2,293c1.5.8,2.7,3.2,2.7,5.2v12.9C182.9,313.1,181.7,314.1,180.2,313.2Z"/><path class="f" d="M178.3,308.7l-63.8-36.9a3.1,3.1,0,0,1-1.4-2.6v-9.7c0-1,.6-1.5,1.4-1.1l63.8,36.9a3.3,3.3,0,0,1,1.3,2.6v9.7C179.6,308.6,179,309.1,178.3,308.7Z"/><path class="m" d="M127.8,274.6l-9.6-5.5a3.3,3.3,0,0,1-1.3-2.6h0c0-1,.6-1.4,1.3-1l9.6,5.5a3.3,3.3,0,0,1,1.3,2.6h0C129.1,274.6,128.5,275,127.8,274.6Z"/><path class="n" d="M135.9,277.5c0,1-.7,1.4-1.6.9a3.4,3.4,0,0,1-1.6-2.7c0-1,.7-1.4,1.6-.9A3.4,3.4,0,0,1,135.9,277.5Z"/><path class="n" d="M141.4,280.7c0,1-.7,1.4-1.6.9a3.4,3.4,0,0,1-1.6-2.7c0-1,.7-1.4,1.6-.9A3.4,3.4,0,0,1,141.4,280.7Z"/><path class="m" d="M146.9,283.8c0,1-.7,1.4-1.6.9a3.6,3.6,0,0,1-1.5-2.7c0-1,.7-1.4,1.5-.9A3.4,3.4,0,0,1,146.9,283.8Z"/><path class="n" d="M152.4,287c0,1-.7,1.4-1.6.9a3.6,3.6,0,0,1-1.5-2.7c0-1,.7-1.4,1.5-.9A3.4,3.4,0,0,1,152.4,287Z"/><path class="n" d="M175.6,303.3l-3.2-1.9a2,2,0,0,1-.9-1.6v-3.4c0-.7.4-1,.9-.7l3.2,1.9a2.1,2.1,0,0,1,.8,1.6v3.4C176.4,303.2,176,303.5,175.6,303.3Z"/><path class="e" d="M180.2,335.9l-67.7-39a6.6,6.6,0,0,1-2.7-5.3V278.7c0-2,1.2-2.9,2.7-2l67.7,39a6.6,6.6,0,0,1,2.7,5.3v12.9C182.9,335.9,181.7,336.8,180.2,335.9Z"/><path class="f" d="M178.3,331.4l-63.8-36.8a3.3,3.3,0,0,1-1.4-2.7v-9.7c0-1,.6-1.5,1.4-1L178.3,318a3.5,3.5,0,0,1,1.3,2.7v9.7C179.6,331.4,179,331.9,178.3,331.4Z"/><path class="m" d="M127.8,297.4l-9.6-5.5a3.5,3.5,0,0,1-1.3-2.6h0c0-1,.6-1.5,1.3-1l9.6,5.5a3.1,3.1,0,0,1,1.3,2.5h0C129.1,297.3,128.5,297.8,127.8,297.4Z"/><path class="m" d="M135.9,300.2c0,1-.7,1.4-1.6.9a3.4,3.4,0,0,1-1.6-2.7c0-1,.7-1.4,1.6-.9A3.5,3.5,0,0,1,135.9,300.2Z"/><path class="n" d="M141.4,303.4c0,1-.7,1.4-1.6.9a3.4,3.4,0,0,1-1.6-2.7c0-1,.7-1.4,1.6-.9A3.4,3.4,0,0,1,141.4,303.4Z"/><path class="m" d="M146.9,306.6c0,1-.7,1.4-1.6.9a3.6,3.6,0,0,1-1.5-2.7c0-1,.7-1.4,1.5-.9A3.4,3.4,0,0,1,146.9,306.6Z"/><path class="n" d="M152.4,309.8c0,1-.7,1.4-1.6.9a3.6,3.6,0,0,1-1.5-2.7c0-1,.7-1.4,1.5-.9A3.4,3.4,0,0,1,152.4,309.8Z"/><path class="m" d="M175.6,326l-3.2-1.8a2.1,2.1,0,0,1-.9-1.7v-3.4c0-.6.4-.9.9-.6l3.2,1.8a2.3,2.3,0,0,1,.8,1.7v3.4C176.4,326,176,326.3,175.6,326Z"/></svg>