<svg xmlns="http://www.w3.org/2000/svg" xmlns:xlink="http://www.w3.org/1999/xlink" viewBox="0 0 400 400"><defs><style>.a{fill:url(#a);}.b{font-size:39.99px;font-family:AdobeArabic-Regular, Adobe Arabic;}.b,.s{fill:#fff;}.c{fill:#d1ebff;}.d{fill-rule:evenodd;opacity:0.61;fill:url(#b);}.e{fill:url(#c);}.f{fill:#1f364c;}.g{fill:#0e71bb;}.h{fill:#005b9f;}.i{fill:#52acea;}.j{fill:#21e2e2;}.k{fill:#ffbc98;}.l,.m,.p,.t,.u{fill:none;}.m{stroke:#ffbc98;}.m,.p{stroke-width:0.6px;}.n{fill:#80c9ff;}.o{fill:#288ed9;}.p{stroke:#21e2e2;}.q{fill:#137fcf;}.r{fill:#d6eeff;}.t,.u{stroke:#f7941d;stroke-miterlimit:10;}.u{stroke-dasharray:5.3 5.3;}</style><linearGradient id="a" x1="207.06" y1="688.77" x2="207.06" y2="689.36" gradientTransform="matrix(740.56, 0, 0, -612.51, -153136.7, 422308.35)" gradientUnits="userSpaceOnUse"><stop offset="0" stop-color="#c6e6ff"/><stop offset="1" stop-color="#fff"/></linearGradient><linearGradient id="b" x1="136.67" y1="73.57" x2="261.55" y2="73.57" gradientUnits="userSpaceOnUse"><stop offset="0" stop-color="#288ed9"/><stop offset="1" stop-color="#137fcf" stop-opacity="0.05"/></linearGradient><linearGradient id="c" x1="206.8" y1="693.37" x2="206.8" y2="692.78" gradientTransform="matrix(531, 0, 0, -95, -109610.36, 66183.44)" xlink:href="#b"/></defs><title>whatis-foreigndedicatedserver</title><path class="a" d="M204.7,122.8c55.9,35.7,119.9,51.7,119.9,51.7s70.5,10.7,44.6,91-29.3,109-70,111c-38.5,1.1-60.2-14.8-98.3-12-33.5,2.6-56.5,17.6-112.5-4.4C-1.3,320.5,5.4-2.9,204.7,122.8Z"/><text class="b" transform="translate(75.2 -44.3)">تسیچ جراخ یصاصتخا روس*</text><circle class="c" cx="199.1" cy="74.4" r="62.4" transform="translate(-9.6 34.3) rotate(-9.6)"/><path class="d" d="M199.1,12a66.4,66.4,0,0,1,17.4,2.4,11.6,11.6,0,0,0-.5,5.5c1,6.5-2.4,12.9-10.1,10.7s-5.7,6.9-17.5,5.6c-10-1-20.6-6.4-20.5-15.9A62.1,62.1,0,0,1,199.1,12ZM227,18.6c3,6.9,5.3,17.9-5.8,23.7-17.3,9-30.5,8.7-28.6,20s1.1,13.4-.9,15.9,1.1,6.6,7.3,4.8c0,0,1.4-1,1.7.3s-3.7,5.8.1,10.5,10.9,2,14.6-.5,11.7,3.4,13.3,8.3.5,9.9,8.2,9.7,4.9-11,4.9-16.1.6-15.7,7.9-15.4,5-3.2,8.4-4.3a6.6,6.6,0,0,1,3.4-.1c0-.3.1-.6.1-1A62.4,62.4,0,0,0,227,18.6ZM223,112s2.1-2.5,4.2-1.4,2.8,5.1,1.2,5.9-7-2.4-5.4-4.5Zm-38.6,23.1c6.3-7.5-.2-15-4.1-18.6s6.5-19.5-6-19.8-19.5-9.1-9.8-10.1,5.9-6.6,6.8-10.9,4.2-.5,10.4-2.7-2.9-15.3-9.1-15-4.4,9.5-8,8.2-4.5-9,.7-10.6,5.5-5.9,3.8-9.6-10.4,0-12.2-6.3a8.1,8.1,0,0,0-5.6-5.4,62.4,62.4,0,0,0-14.6,40.1c0,1.4,0,2.7.1,4.1,8.5,5.7,17.2,18.4,16,25.1-1.5,8.9,6.6,13.6,10.1,16.2,1.9,1.4,2.6,4.6,2.8,7.4A62,62,0,0,0,184.4,135.1Z"/><ellipse class="e" cx="199.1" cy="355.4" rx="75.9" ry="13.9"/><rect class="f" x="152.7" y="260.5" width="92.6" height="7.19"/><path class="g" d="M151.8,241.1h94.7c1.8,0,3.3,1.1,3.3,2.5v15.7c0,1.3-1.5,2.4-3.3,2.4H151.8c-1.9,0-3.4-1.1-3.4-2.4V243.6C148.4,242.2,149.9,241.1,151.8,241.1Z"/><path class="h" d="M149.8,241.1h32.8v20.6H149.8a1.4,1.4,0,0,1-1.4-1.4V242.6A1.5,1.5,0,0,1,149.8,241.1Z"/><path class="i" d="M212.3,248.5h0a1.1,1.1,0,0,1,1.1,1.1h0a1,1,0,0,1-1.1,1h0a1,1,0,0,1-1.1-1h0A1.1,1.1,0,0,1,212.3,248.5Z"/><path class="j" d="M214.9,252.8h0a1,1,0,0,1,1,1.1h0a.9.9,0,0,1-1,1h0a1,1,0,0,1-1.1-1h0A1.1,1.1,0,0,1,214.9,252.8Z"/><path class="i" d="M216.6,248.5h0a1.1,1.1,0,0,1,1.1,1.1h0a1,1,0,0,1-1.1,1h0a1,1,0,0,1-1.1-1h0A1.1,1.1,0,0,1,216.6,248.5Z"/><path class="i" d="M219.2,252.8h0a1,1,0,0,1,1,1.1h0a.9.9,0,0,1-1,1h0a1,1,0,0,1-1.1-1h0A1.1,1.1,0,0,1,219.2,252.8Z"/><path class="k" d="M220.9,248.5h0a1.1,1.1,0,0,1,1.1,1.1h0a1,1,0,0,1-1.1,1h0a1,1,0,0,1-1.1-1h0A1.1,1.1,0,0,1,220.9,248.5Z"/><path class="i" d="M223.5,252.8h0a1,1,0,0,1,1,1.1h0a.9.9,0,0,1-1,1h0a1,1,0,0,1-1.1-1h0A1.1,1.1,0,0,1,223.5,252.8Z"/><path class="i" d="M225.2,248.5h0a1.1,1.1,0,0,1,1.1,1.1h0a1,1,0,0,1-1.1,1h0a1,1,0,0,1-1.1-1h0A1.1,1.1,0,0,1,225.2,248.5Z"/><path class="j" d="M227.8,252.8h0a1,1,0,0,1,1,1.1h0a.9.9,0,0,1-1,1h0a1,1,0,0,1-1.1-1h0A1.1,1.1,0,0,1,227.8,252.8Z"/><path class="i" d="M229.5,248.5h0a1.1,1.1,0,0,1,1.1,1.1h0a1,1,0,0,1-1.1,1h0a1,1,0,0,1-1.1-1h0A1.1,1.1,0,0,1,229.5,248.5Z"/><path class="i" d="M232.1,252.8h0a1.1,1.1,0,0,1,1,1.1h0a1,1,0,0,1-1,1h0a1,1,0,0,1-1.1-1h0A1.1,1.1,0,0,1,232.1,252.8Z"/><circle class="l" cx="239.6" cy="251.5" r="1.8"/><circle class="m" cx="239.6" cy="251.5" r="1.5"/><path class="i" d="M207.3,247.7h0a.8.8,0,0,1,.8.8v6.1a.9.9,0,0,1-.8.8h0a.8.8,0,0,1-.8-.8v-6.1A.7.7,0,0,1,207.3,247.7Z"/><path class="i" d="M204,247.7h0a.7.7,0,0,1,.8.8v6.1a.8.8,0,0,1-.8.8h0a.9.9,0,0,1-.8-.8v-6.1A.8.8,0,0,1,204,247.7Z"/><rect class="h" x="187.8" y="247.7" width="13" height="3.25"/><rect class="h" x="187.8" y="252.2" width="13" height="3.25"/><path class="k" d="M206.5,249.3h1.6v5.3a.9.9,0,0,1-.8.8h0a.8.8,0,0,1-.8-.8v-5.3Z"/><path class="j" d="M203.2,252.4h1.6v2.2a.8.8,0,0,1-.8.8h0a.9.9,0,0,1-.8-.8h0v-2.2Z"/><rect class="n" x="187.8" y="247.7" width="3.2" height="3.25"/><rect class="n" x="187.8" y="252.2" width="3.2" height="3.25"/><rect class="o" x="192.7" y="248.9" width="6.5" height="0.81"/><rect class="o" x="192.7" y="253.4" width="6.5" height="0.81"/><circle class="l" cx="239.6" cy="251.5" r="3.9"/><circle class="p" cx="239.6" cy="251.5" r="3.5"/><path class="o" d="M173.4,254.3h0a1.3,1.3,0,0,1,1.3,1.4h0a1.3,1.3,0,0,1-1.3,1.3h0a1.3,1.3,0,0,1-1.4-1.3h0A1.4,1.4,0,0,1,173.4,254.3Z"/><path class="q" d="M173.4,246.5h0c.4,0,.7.2.7.6v5.3a.7.7,0,0,1-.7.6h0a.6.6,0,0,1-.6-.6v-5.3A.6.6,0,0,1,173.4,246.5Z"/><path class="r" d="M169.3,254.3h0a1.3,1.3,0,0,1,1.3,1.4h0a1.3,1.3,0,0,1-1.3,1.3h0a1.3,1.3,0,0,1-1.3-1.3h0A1.3,1.3,0,0,1,169.3,254.3Z"/><path class="s" d="M169.4,248.9h0a.6.6,0,0,1,.6.6v2.9a.6.6,0,0,1-.6.6h0a.6.6,0,0,1-.6-.6v-2.9A.6.6,0,0,1,169.4,248.9Z"/><path class="o" d="M165.2,254.3h0a1.4,1.4,0,0,1,1.4,1.4h0a1.3,1.3,0,0,1-1.4,1.3h0a1.3,1.3,0,0,1-1.3-1.3h0A1.3,1.3,0,0,1,165.2,254.3Z"/><path class="q" d="M165.3,245.5h0a.6.6,0,0,1,.6.6v6.3a.6.6,0,0,1-.6.6h0a.6.6,0,0,1-.6-.6v-6.3A.6.6,0,0,1,165.3,245.5Z"/><path class="k" d="M161.2,254.3h0a1.3,1.3,0,0,1,1.3,1.4h0a1.3,1.3,0,0,1-1.3,1.3h0a1.3,1.3,0,0,1-1.4-1.3h0A1.4,1.4,0,0,1,161.2,254.3Z"/><path class="k" d="M161.3,247.1h0a.6.6,0,0,1,.6.6v4.7a.6.6,0,0,1-.6.6h0a.6.6,0,0,1-.6-.6v-4.7A.6.6,0,0,1,161.3,247.1Z"/><path class="j" d="M157.1,254.3h0a1.4,1.4,0,0,1,1.4,1.4h0a1.3,1.3,0,0,1-1.4,1.3h0a1.3,1.3,0,0,1-1.3-1.3h0A1.3,1.3,0,0,1,157.1,254.3Z"/><path class="j" d="M157.2,249.7h0a.6.6,0,0,1,.6.6v2.1a.6.6,0,0,1-.6.6h0a.6.6,0,0,1-.6-.6v-2.1A.6.6,0,0,1,157.2,249.7Z"/><rect class="f" x="152.7" y="285.1" width="92.6" height="7.19"/><path class="g" d="M151.8,265.7h94.7c1.8,0,3.3,1.1,3.3,2.4v15.8c0,1.3-1.5,2.4-3.3,2.4H151.8c-1.9,0-3.4-1.1-3.4-2.4V268.1C148.4,266.8,149.9,265.7,151.8,265.7Z"/><path class="h" d="M149.8,265.7h32.8v20.6H149.8a1.4,1.4,0,0,1-1.4-1.4V267.2A1.4,1.4,0,0,1,149.8,265.7Z"/><path class="i" d="M212.3,273.1h0a1.1,1.1,0,0,1,1.1,1h0a1.1,1.1,0,0,1-1.1,1.1h0a1.1,1.1,0,0,1-1.1-1.1h0A1.1,1.1,0,0,1,212.3,273.1Z"/><path class="j" d="M214.9,277.4h0a1,1,0,0,1,1,1h0a1,1,0,0,1-1,1.1h0a1.1,1.1,0,0,1-1.1-1.1h0A1.1,1.1,0,0,1,214.9,277.4Z"/><path class="i" d="M216.6,273.1h0a1.1,1.1,0,0,1,1.1,1h0a1.1,1.1,0,0,1-1.1,1.1h0a1.1,1.1,0,0,1-1.1-1.1h0A1.1,1.1,0,0,1,216.6,273.1Z"/><path class="i" d="M219.2,277.4h0a1,1,0,0,1,1,1h0a1,1,0,0,1-1,1.1h0a1.1,1.1,0,0,1-1.1-1.1h0A1.1,1.1,0,0,1,219.2,277.4Z"/><path class="k" d="M220.9,273.1h0a1.1,1.1,0,0,1,1.1,1h0a1.1,1.1,0,0,1-1.1,1.1h0a1.1,1.1,0,0,1-1.1-1.1h0A1.1,1.1,0,0,1,220.9,273.1Z"/><path class="i" d="M223.5,277.4h0a1,1,0,0,1,1,1h0a1,1,0,0,1-1,1.1h0a1.1,1.1,0,0,1-1.1-1.1h0A1.1,1.1,0,0,1,223.5,277.4Z"/><path class="i" d="M225.2,273.1h0a1.1,1.1,0,0,1,1.1,1h0a1.1,1.1,0,0,1-1.1,1.1h0a1.1,1.1,0,0,1-1.1-1.1h0A1.1,1.1,0,0,1,225.2,273.1Z"/><path class="j" d="M227.8,277.4h0a1,1,0,0,1,1,1h0a1,1,0,0,1-1,1.1h0a1.1,1.1,0,0,1-1.1-1.1h0A1.1,1.1,0,0,1,227.8,277.4Z"/><path class="i" d="M229.5,273.1h0a1.1,1.1,0,0,1,1.1,1h0a1.1,1.1,0,0,1-1.1,1.1h0a1.1,1.1,0,0,1-1.1-1.1h0A1.1,1.1,0,0,1,229.5,273.1Z"/><path class="i" d="M232.1,277.4h0a1.1,1.1,0,0,1,1,1h0a1.1,1.1,0,0,1-1,1.1h0a1.1,1.1,0,0,1-1.1-1.1h0A1.1,1.1,0,0,1,232.1,277.4Z"/><circle class="l" cx="239.6" cy="276.1" r="1.8"/><circle class="m" cx="239.6" cy="276.1" r="1.5"/><path class="i" d="M207.3,272.3h0a.8.8,0,0,1,.8.8v6.1a.9.9,0,0,1-.8.8h0a.8.8,0,0,1-.8-.8v-6.1A.7.7,0,0,1,207.3,272.3Z"/><path class="i" d="M204,272.3h0a.7.7,0,0,1,.8.8v6.1a.8.8,0,0,1-.8.8h0a.9.9,0,0,1-.8-.8v-6.1A.8.8,0,0,1,204,272.3Z"/><rect class="h" x="187.8" y="272.3" width="13" height="3.25"/><rect class="h" x="187.8" y="276.7" width="13" height="3.25"/><path class="k" d="M206.5,273.9h1.6v5.3a.9.9,0,0,1-.8.8h0a.8.8,0,0,1-.8-.8v-5.3Z"/><path class="j" d="M203.2,277h1.6v2.2a.8.8,0,0,1-.8.8h0a.9.9,0,0,1-.8-.8h0V277Z"/><rect class="n" x="187.8" y="272.3" width="3.2" height="3.25"/><rect class="n" x="187.8" y="276.7" width="3.2" height="3.25"/><rect class="o" x="192.7" y="273.5" width="6.5" height="0.81"/><rect class="o" x="192.7" y="277.9" width="6.5" height="0.81"/><circle class="l" cx="239.6" cy="276.1" r="3.9"/><circle class="p" cx="239.6" cy="276.1" r="3.5"/><path class="o" d="M173.4,279.3h0a1.3,1.3,0,0,1,1.3,1.3h0a1.3,1.3,0,0,1-1.3,1.4h0a1.4,1.4,0,0,1-1.4-1.4h0A1.3,1.3,0,0,1,173.4,279.3Z"/><path class="q" d="M173.4,271.4h0a.7.7,0,0,1,.7.6v5.3a.7.7,0,0,1-.7.6h0a.6.6,0,0,1-.6-.6V272A.6.6,0,0,1,173.4,271.4Z"/><path class="r" d="M169.3,279.3h0a1.3,1.3,0,0,1,1.3,1.3h0a1.3,1.3,0,0,1-1.3,1.4h0a1.3,1.3,0,0,1-1.3-1.4h0A1.3,1.3,0,0,1,169.3,279.3Z"/><path class="s" d="M169.4,273.8h0a.7.7,0,0,1,.6.7v2.8a.6.6,0,0,1-.6.6h0a.6.6,0,0,1-.6-.6v-2.8C168.8,274.1,169,273.8,169.4,273.8Z"/><path class="o" d="M165.2,279.3h0a1.3,1.3,0,0,1,1.4,1.3h0a1.4,1.4,0,0,1-1.4,1.4h0a1.3,1.3,0,0,1-1.3-1.4h0A1.3,1.3,0,0,1,165.2,279.3Z"/><path class="q" d="M165.3,270.5h0a.6.6,0,0,1,.6.6v6.2a.6.6,0,0,1-.6.6h0a.6.6,0,0,1-.6-.6v-6.2A.6.6,0,0,1,165.3,270.5Z"/><path class="k" d="M161.2,279.3h0a1.3,1.3,0,0,1,1.3,1.3h0a1.3,1.3,0,0,1-1.3,1.4h0a1.4,1.4,0,0,1-1.4-1.4h0A1.3,1.3,0,0,1,161.2,279.3Z"/><path class="k" d="M161.3,272h0a.6.6,0,0,1,.6.6v4.7a.6.6,0,0,1-.6.6h0a.6.6,0,0,1-.6-.6v-4.7A.6.6,0,0,1,161.3,272Z"/><path class="j" d="M157.1,279.3h0a1.3,1.3,0,0,1,1.4,1.3h0a1.4,1.4,0,0,1-1.4,1.4h0a1.3,1.3,0,0,1-1.3-1.4h0A1.3,1.3,0,0,1,157.1,279.3Z"/><path class="j" d="M157.2,274.7h0a.6.6,0,0,1,.6.6v2a.6.6,0,0,1-.6.6h0a.6.6,0,0,1-.6-.6v-2A.6.6,0,0,1,157.2,274.7Z"/><rect class="f" x="152.7" y="309.7" width="92.6" height="7.19"/><path class="g" d="M151.8,290.3h94.7c1.8,0,3.3,1.1,3.3,2.4v15.7c0,1.4-1.5,2.5-3.3,2.5H151.8c-1.9,0-3.4-1.1-3.4-2.5V292.7C148.4,291.4,149.9,290.3,151.8,290.3Z"/><path class="h" d="M149.8,290.3h32.8v20.6H149.8a1.5,1.5,0,0,1-1.4-1.5V291.7A1.4,1.4,0,0,1,149.8,290.3Z"/><path class="i" d="M212.3,297.7h0a1,1,0,0,1,1.1,1h0a1.1,1.1,0,0,1-1.1,1.1h0a1.1,1.1,0,0,1-1.1-1.1h0A1,1,0,0,1,212.3,297.7Z"/><path class="j" d="M214.9,302h0a.9.9,0,0,1,1,1h0a1,1,0,0,1-1,1.1h0a1.1,1.1,0,0,1-1.1-1.1h0A1,1,0,0,1,214.9,302Z"/><path class="i" d="M216.6,297.7h0a1,1,0,0,1,1.1,1h0a1.1,1.1,0,0,1-1.1,1.1h0a1.1,1.1,0,0,1-1.1-1.1h0A1,1,0,0,1,216.6,297.7Z"/><path class="i" d="M219.2,302h0a.9.9,0,0,1,1,1h0a1,1,0,0,1-1,1.1h0a1.1,1.1,0,0,1-1.1-1.1h0A1,1,0,0,1,219.2,302Z"/><path class="k" d="M220.9,297.7h0a1,1,0,0,1,1.1,1h0a1.1,1.1,0,0,1-1.1,1.1h0a1.1,1.1,0,0,1-1.1-1.1h0A1,1,0,0,1,220.9,297.7Z"/><path class="i" d="M223.5,302h0a.9.9,0,0,1,1,1h0a1,1,0,0,1-1,1.1h0a1.1,1.1,0,0,1-1.1-1.1h0A1,1,0,0,1,223.5,302Z"/><path class="i" d="M225.2,297.7h0a1,1,0,0,1,1.1,1h0a1.1,1.1,0,0,1-1.1,1.1h0a1.1,1.1,0,0,1-1.1-1.1h0A1,1,0,0,1,225.2,297.7Z"/><path class="j" d="M227.8,302h0a.9.9,0,0,1,1,1h0a1,1,0,0,1-1,1.1h0a1.1,1.1,0,0,1-1.1-1.1h0A1,1,0,0,1,227.8,302Z"/><path class="i" d="M229.5,297.7h0a1,1,0,0,1,1.1,1h0a1.1,1.1,0,0,1-1.1,1.1h0a1.1,1.1,0,0,1-1.1-1.1h0A1,1,0,0,1,229.5,297.7Z"/><path class="i" d="M232.1,302h0a1,1,0,0,1,1,1h0a1.1,1.1,0,0,1-1,1.1h0A1.1,1.1,0,0,1,231,303h0A1,1,0,0,1,232.1,302Z"/><circle class="l" cx="239.6" cy="300.7" r="1.8"/><circle class="m" cx="239.6" cy="300.7" r="1.5"/><path class="i" d="M207.3,296.8h0a.9.9,0,0,1,.8.9v6a.9.9,0,0,1-.8.9h0a.8.8,0,0,1-.8-.9v-6A.8.8,0,0,1,207.3,296.8Z"/><path class="i" d="M204,296.8h0a.8.8,0,0,1,.8.9v6a.8.8,0,0,1-.8.9h0a.9.9,0,0,1-.8-.9v-6A.9.9,0,0,1,204,296.8Z"/><rect class="h" x="187.8" y="296.8" width="13" height="3.25"/><rect class="h" x="187.8" y="301.3" width="13" height="3.25"/><path class="k" d="M206.5,298.5h1.6v5.2a.9.9,0,0,1-.8.9h0a.8.8,0,0,1-.8-.9v-5.2Z"/><path class="j" d="M203.2,301.6h1.6v2.1a.8.8,0,0,1-.8.9h0a.9.9,0,0,1-.8-.9h0v-2.1Z"/><rect class="n" x="187.8" y="296.8" width="3.2" height="3.25"/><rect class="n" x="187.8" y="301.3" width="3.2" height="3.25"/><rect class="o" x="192.7" y="298.1" width="6.5" height="0.81"/><rect class="o" x="192.7" y="302.5" width="6.5" height="0.81"/><circle class="l" cx="239.6" cy="300.7" r="3.9"/><circle class="p" cx="239.6" cy="300.7" r="3.5"/><path class="o" d="M173.4,303.8h0a1.3,1.3,0,0,1,1.3,1.4h0a1.3,1.3,0,0,1-1.3,1.3h0a1.3,1.3,0,0,1-1.4-1.3h0A1.4,1.4,0,0,1,173.4,303.8Z"/><path class="q" d="M173.4,296h0a.7.7,0,0,1,.7.6v5.3a.7.7,0,0,1-.7.6h0a.6.6,0,0,1-.6-.6v-5.3A.6.6,0,0,1,173.4,296Z"/><path class="r" d="M169.3,303.8h0a1.3,1.3,0,0,1,1.3,1.4h0a1.3,1.3,0,0,1-1.3,1.3h0a1.3,1.3,0,0,1-1.3-1.3h0A1.3,1.3,0,0,1,169.3,303.8Z"/><path class="s" d="M169.4,298.4h0a.6.6,0,0,1,.6.6v2.9a.6.6,0,0,1-.6.6h0a.6.6,0,0,1-.6-.6V299A.6.6,0,0,1,169.4,298.4Z"/><path class="o" d="M165.2,303.8h0a1.4,1.4,0,0,1,1.4,1.4h0a1.3,1.3,0,0,1-1.4,1.3h0a1.3,1.3,0,0,1-1.3-1.3h0A1.3,1.3,0,0,1,165.2,303.8Z"/><path class="q" d="M165.3,295.1h0a.5.5,0,0,1,.6.6v6.2a.6.6,0,0,1-.6.6h0a.6.6,0,0,1-.6-.6v-6.2A.6.6,0,0,1,165.3,295.1Z"/><path class="k" d="M161.2,303.8h0a1.3,1.3,0,0,1,1.3,1.4h0a1.3,1.3,0,0,1-1.3,1.3h0a1.3,1.3,0,0,1-1.4-1.3h0A1.4,1.4,0,0,1,161.2,303.8Z"/><path class="k" d="M161.3,296.6h0a.6.6,0,0,1,.6.6v4.7a.6.6,0,0,1-.6.6h0a.6.6,0,0,1-.6-.6v-4.7A.6.6,0,0,1,161.3,296.6Z"/><path class="j" d="M157.1,303.8h0a1.4,1.4,0,0,1,1.4,1.4h0a1.3,1.3,0,0,1-1.4,1.3h0a1.3,1.3,0,0,1-1.3-1.3h0A1.3,1.3,0,0,1,157.1,303.8Z"/><path class="j" d="M157.2,299.2h0a.6.6,0,0,1,.6.6v2.1a.6.6,0,0,1-.6.6h0a.6.6,0,0,1-.6-.6v-2.1A.6.6,0,0,1,157.2,299.2Z"/><rect class="f" x="152.7" y="334.3" width="92.6" height="7.19"/><path class="g" d="M151.8,314.8h94.7c1.8,0,3.3,1.1,3.3,2.5V333c0,1.4-1.5,2.5-3.3,2.5H151.8c-1.9,0-3.4-1.1-3.4-2.5V317.3C148.4,315.9,149.9,314.8,151.8,314.8Z"/><path class="h" d="M149.8,314.8h32.8v20.7H149.8a1.5,1.5,0,0,1-1.4-1.5V316.3A1.5,1.5,0,0,1,149.8,314.8Z"/><path class="i" d="M212.3,322.2h0a1.1,1.1,0,0,1,1.1,1.1h0a1.1,1.1,0,0,1-1.1,1.1h0a1.1,1.1,0,0,1-1.1-1.1h0A1.1,1.1,0,0,1,212.3,322.2Z"/><path class="j" d="M214.9,326.5h0a1,1,0,0,1,1,1.1h0a1,1,0,0,1-1,1.1h0a1.1,1.1,0,0,1-1.1-1.1h0A1.1,1.1,0,0,1,214.9,326.5Z"/><path class="i" d="M216.6,322.2h0a1.1,1.1,0,0,1,1.1,1.1h0a1.1,1.1,0,0,1-1.1,1.1h0a1.1,1.1,0,0,1-1.1-1.1h0A1.1,1.1,0,0,1,216.6,322.2Z"/><path class="i" d="M219.2,326.5h0a1,1,0,0,1,1,1.1h0a1,1,0,0,1-1,1.1h0a1.1,1.1,0,0,1-1.1-1.1h0A1.1,1.1,0,0,1,219.2,326.5Z"/><path class="k" d="M220.9,322.2h0a1.1,1.1,0,0,1,1.1,1.1h0a1.1,1.1,0,0,1-1.1,1.1h0a1.1,1.1,0,0,1-1.1-1.1h0A1.1,1.1,0,0,1,220.9,322.2Z"/><path class="i" d="M223.5,326.5h0a1,1,0,0,1,1,1.1h0a1,1,0,0,1-1,1.1h0a1.1,1.1,0,0,1-1.1-1.1h0A1.1,1.1,0,0,1,223.5,326.5Z"/><path class="i" d="M225.2,322.2h0a1.1,1.1,0,0,1,1.1,1.1h0a1.1,1.1,0,0,1-1.1,1.1h0a1.1,1.1,0,0,1-1.1-1.1h0A1.1,1.1,0,0,1,225.2,322.2Z"/><path class="j" d="M227.8,326.5h0a1,1,0,0,1,1,1.1h0a1,1,0,0,1-1,1.1h0a1.1,1.1,0,0,1-1.1-1.1h0A1.1,1.1,0,0,1,227.8,326.5Z"/><path class="i" d="M229.5,322.2h0a1.1,1.1,0,0,1,1.1,1.1h0a1.1,1.1,0,0,1-1.1,1.1h0a1.1,1.1,0,0,1-1.1-1.1h0A1.1,1.1,0,0,1,229.5,322.2Z"/><path class="i" d="M232.1,326.5h0a1.1,1.1,0,0,1,1,1.1h0a1.1,1.1,0,0,1-1,1.1h0a1.1,1.1,0,0,1-1.1-1.1h0A1.1,1.1,0,0,1,232.1,326.5Z"/><circle class="l" cx="239.6" cy="325.3" r="1.8"/><circle class="m" cx="239.6" cy="325.3" r="1.5"/><path class="i" d="M207.3,321.4h0a.9.9,0,0,1,.8.8v6.1a.8.8,0,0,1-.8.8h0a.7.7,0,0,1-.8-.8v-6.1A.8.8,0,0,1,207.3,321.4Z"/><path class="i" d="M204,321.4h0a.8.8,0,0,1,.8.8v6.1a.7.7,0,0,1-.8.8h0a.8.8,0,0,1-.8-.8v-6.1A.9.9,0,0,1,204,321.4Z"/><rect class="h" x="187.8" y="321.4" width="13" height="3.25"/><rect class="h" x="187.8" y="325.9" width="13" height="3.25"/><path class="k" d="M206.5,323h1.6v5.3a.8.8,0,0,1-.8.8h0a.7.7,0,0,1-.8-.8V323Z"/><path class="j" d="M203.2,326.1h1.6v2.2a.7.7,0,0,1-.8.8h0a.8.8,0,0,1-.8-.8h0v-2.2Z"/><rect class="n" x="187.8" y="321.4" width="3.2" height="3.25"/><rect class="n" x="187.8" y="325.9" width="3.2" height="3.25"/><rect class="o" x="192.7" y="322.6" width="6.5" height="0.81"/><rect class="o" x="192.7" y="327.1" width="6.5" height="0.81"/><circle class="l" cx="239.6" cy="325.3" r="3.9"/><circle class="p" cx="239.6" cy="325.3" r="3.5"/><path class="o" d="M173.4,328.4h0a1.3,1.3,0,0,1,1.3,1.4h0a1.3,1.3,0,0,1-1.3,1.3h0a1.3,1.3,0,0,1-1.4-1.3h0A1.4,1.4,0,0,1,173.4,328.4Z"/><path class="q" d="M173.4,320.6h0c.4,0,.7.2.7.6v5.3a.7.7,0,0,1-.7.6h0a.6.6,0,0,1-.6-.6v-5.3A.6.6,0,0,1,173.4,320.6Z"/><path class="r" d="M169.3,328.4h0a1.3,1.3,0,0,1,1.3,1.4h0a1.3,1.3,0,0,1-1.3,1.3h0a1.3,1.3,0,0,1-1.3-1.3h0A1.3,1.3,0,0,1,169.3,328.4Z"/><path class="s" d="M169.4,323h0a.6.6,0,0,1,.6.6v2.9a.6.6,0,0,1-.6.6h0a.6.6,0,0,1-.6-.6v-2.9A.6.6,0,0,1,169.4,323Z"/><path class="o" d="M165.2,328.4h0a1.4,1.4,0,0,1,1.4,1.4h0a1.3,1.3,0,0,1-1.4,1.3h0a1.3,1.3,0,0,1-1.3-1.3h0A1.3,1.3,0,0,1,165.2,328.4Z"/><path class="q" d="M165.3,319.6h0a.6.6,0,0,1,.6.6v6.3a.6.6,0,0,1-.6.6h0a.6.6,0,0,1-.6-.6v-6.3A.6.6,0,0,1,165.3,319.6Z"/><path class="k" d="M161.2,328.4h0a1.3,1.3,0,0,1,1.3,1.4h0a1.3,1.3,0,0,1-1.3,1.3h0a1.3,1.3,0,0,1-1.4-1.3h0A1.4,1.4,0,0,1,161.2,328.4Z"/><path class="k" d="M161.3,321.2h0a.6.6,0,0,1,.6.6v4.7a.6.6,0,0,1-.6.6h0a.6.6,0,0,1-.6-.6v-4.7A.6.6,0,0,1,161.3,321.2Z"/><path class="j" d="M157.1,328.4h0a1.4,1.4,0,0,1,1.4,1.4h0a1.3,1.3,0,0,1-1.4,1.3h0a1.3,1.3,0,0,1-1.3-1.3h0A1.3,1.3,0,0,1,157.1,328.4Z"/><path class="j" d="M157.2,323.8h0a.6.6,0,0,1,.6.6v2.1a.6.6,0,0,1-.6.6h0a.6.6,0,0,1-.6-.6v-2.1A.6.6,0,0,1,157.2,323.8Z"/><path class="g" d="M151.8,339.4h94.7c1.8,0,3.3,1.1,3.3,2.5v15.7c0,1.4-1.5,2.5-3.3,2.5H151.8c-1.9,0-3.4-1.1-3.4-2.5V341.9C148.4,340.5,149.9,339.4,151.8,339.4Z"/><path class="h" d="M149.8,339.4h32.8v20.7H149.8a1.5,1.5,0,0,1-1.4-1.5V340.9A1.5,1.5,0,0,1,149.8,339.4Z"/><path class="i" d="M212.3,346.8h0a1.1,1.1,0,0,1,1.1,1.1h0a1.1,1.1,0,0,1-1.1,1.1h0a1.1,1.1,0,0,1-1.1-1.1h0A1.1,1.1,0,0,1,212.3,346.8Z"/><path class="j" d="M214.9,351.1h0a1,1,0,0,1,1,1.1h0a1,1,0,0,1-1,1.1h0a1.1,1.1,0,0,1-1.1-1.1h0A1.1,1.1,0,0,1,214.9,351.1Z"/><path class="i" d="M216.6,346.8h0a1.1,1.1,0,0,1,1.1,1.1h0a1.1,1.1,0,0,1-1.1,1.1h0a1.1,1.1,0,0,1-1.1-1.1h0A1.1,1.1,0,0,1,216.6,346.8Z"/><path class="i" d="M219.2,351.1h0a1,1,0,0,1,1,1.1h0a1,1,0,0,1-1,1.1h0a1.1,1.1,0,0,1-1.1-1.1h0A1.1,1.1,0,0,1,219.2,351.1Z"/><path class="k" d="M220.9,346.8h0a1.1,1.1,0,0,1,1.1,1.1h0a1.1,1.1,0,0,1-1.1,1.1h0a1.1,1.1,0,0,1-1.1-1.1h0A1.1,1.1,0,0,1,220.9,346.8Z"/><path class="i" d="M223.5,351.1h0a1,1,0,0,1,1,1.1h0a1,1,0,0,1-1,1.1h0a1.1,1.1,0,0,1-1.1-1.1h0A1.1,1.1,0,0,1,223.5,351.1Z"/><path class="i" d="M225.2,346.8h0a1.1,1.1,0,0,1,1.1,1.1h0a1.1,1.1,0,0,1-1.1,1.1h0a1.1,1.1,0,0,1-1.1-1.1h0A1.1,1.1,0,0,1,225.2,346.8Z"/><path class="j" d="M227.8,351.1h0a1,1,0,0,1,1,1.1h0a1,1,0,0,1-1,1.1h0a1.1,1.1,0,0,1-1.1-1.1h0A1.1,1.1,0,0,1,227.8,351.1Z"/><path class="i" d="M229.5,346.8h0a1.1,1.1,0,0,1,1.1,1.1h0a1.1,1.1,0,0,1-1.1,1.1h0a1.1,1.1,0,0,1-1.1-1.1h0A1.1,1.1,0,0,1,229.5,346.8Z"/><path class="i" d="M232.1,351.1h0a1.1,1.1,0,0,1,1,1.1h0a1.1,1.1,0,0,1-1,1.1h0a1.1,1.1,0,0,1-1.1-1.1h0A1.1,1.1,0,0,1,232.1,351.1Z"/><circle class="l" cx="239.6" cy="349.9" r="1.8"/><circle class="m" cx="239.6" cy="349.9" r="1.5"/><path class="i" d="M207.3,346h0a.9.9,0,0,1,.8.8v6.1a.8.8,0,0,1-.8.8h0a.7.7,0,0,1-.8-.8v-6.1A.8.8,0,0,1,207.3,346Z"/><path class="i" d="M204,346h0a.8.8,0,0,1,.8.8v6.1a.7.7,0,0,1-.8.8h0a.8.8,0,0,1-.8-.8v-6.1A.9.9,0,0,1,204,346Z"/><rect class="h" x="187.8" y="346" width="13" height="3.25"/><rect class="h" x="187.8" y="350.5" width="13" height="3.25"/><path class="k" d="M206.5,347.6h1.6v5.3a.8.8,0,0,1-.8.8h0a.7.7,0,0,1-.8-.8v-5.3Z"/><path class="j" d="M203.2,350.7h1.6v2.2a.7.7,0,0,1-.8.8h0a.8.8,0,0,1-.8-.8h0v-2.2Z"/><rect class="n" x="187.8" y="346" width="3.2" height="3.25"/><rect class="n" x="187.8" y="350.5" width="3.2" height="3.25"/><rect class="o" x="192.7" y="347.2" width="6.5" height="0.81"/><rect class="o" x="192.7" y="351.7" width="6.5" height="0.81"/><circle class="l" cx="239.6" cy="349.9" r="3.9"/><circle class="p" cx="239.6" cy="349.9" r="3.5"/><path class="o" d="M173.4,352.6h0a1.3,1.3,0,0,1,1.3,1.4h0a1.3,1.3,0,0,1-1.3,1.3h0a1.3,1.3,0,0,1-1.4-1.3h0A1.4,1.4,0,0,1,173.4,352.6Z"/><path class="q" d="M173.4,344.8h0a.7.7,0,0,1,.7.6v5.3a.7.7,0,0,1-.7.6h0a.6.6,0,0,1-.6-.6v-5.3A.6.6,0,0,1,173.4,344.8Z"/><path class="r" d="M169.3,352.6h0a1.3,1.3,0,0,1,1.3,1.4h0a1.3,1.3,0,0,1-1.3,1.3h0a1.3,1.3,0,0,1-1.3-1.3h0A1.3,1.3,0,0,1,169.3,352.6Z"/><path class="s" d="M169.4,347.2h0a.6.6,0,0,1,.6.6v2.9a.6.6,0,0,1-.6.6h0a.6.6,0,0,1-.6-.6v-2.9A.6.6,0,0,1,169.4,347.2Z"/><path class="o" d="M165.2,352.6h0a1.4,1.4,0,0,1,1.4,1.4h0a1.3,1.3,0,0,1-1.4,1.3h0a1.3,1.3,0,0,1-1.3-1.3h0A1.3,1.3,0,0,1,165.2,352.6Z"/><path class="q" d="M165.3,343.9h0a.5.5,0,0,1,.6.6v6.2a.6.6,0,0,1-.6.6h0a.6.6,0,0,1-.6-.6v-6.2A.6.6,0,0,1,165.3,343.9Z"/><path class="k" d="M161.2,352.6h0a1.3,1.3,0,0,1,1.3,1.4h0a1.3,1.3,0,0,1-1.3,1.3h0a1.3,1.3,0,0,1-1.4-1.3h0A1.4,1.4,0,0,1,161.2,352.6Z"/><path class="k" d="M161.3,345.4h0a.6.6,0,0,1,.6.6v4.7a.6.6,0,0,1-.6.6h0a.6.6,0,0,1-.6-.6V346A.6.6,0,0,1,161.3,345.4Z"/><path class="j" d="M157.1,352.6h0a1.4,1.4,0,0,1,1.4,1.4h0a1.3,1.3,0,0,1-1.4,1.3h0a1.3,1.3,0,0,1-1.3-1.3h0A1.3,1.3,0,0,1,157.1,352.6Z"/><path class="j" d="M157.2,348h0a.6.6,0,0,1,.6.6v2.1a.6.6,0,0,1-.6.6h0a.6.6,0,0,1-.6-.6v-2.1A.6.6,0,0,1,157.2,348Z"/><line class="t" x1="199.1" y1="147.1" x2="199.1" y2="149.6"/><line class="u" x1="199.1" y1="154.9" x2="199.1" y2="226.4"/><line class="t" x1="199.1" y1="229.1" x2="199.1" y2="231.6"/></svg>