<svg xmlns="http://www.w3.org/2000/svg" xmlns:xlink="http://www.w3.org/1999/xlink" viewBox="0 0 400 400"><defs><style>.a{fill:none;}.b{isolation:isolate;}.c{fill:url(#a);}.d{mix-blend-mode:lighten;}.e{fill:#21e2e2;}.f{fill:#4ea4f9;}.g{fill:url(#b);}.h{fill:#0050af;}.i{fill:#267cd1;}.j{fill:#fff;}.k{fill:#2842a2;}.l{fill:#63b4f7;}.m{fill:#2ba0ef;}.n{opacity:0.11;}.o{clip-path:url(#c);}.p{fill:url(#d);}.q{fill:url(#e);}.r{fill:#9198db;}.s{fill:#adb1f2;}.t{fill:#24126a;}.u{fill:#00c1bc;}.v{fill:#4987ce;}</style><linearGradient id="a" x1="1.18" y1="-219.14" x2="1.18" y2="-218.53" gradientTransform="matrix(740.56, 0, 0, -612.51, -677.44, -133802.89)" gradientUnits="userSpaceOnUse"><stop offset="0" stop-color="#c6e6ff"/><stop offset="1" stop-color="#fff"/></linearGradient><linearGradient id="b" x1="-201.88" y1="231.51" x2="-180.25" y2="231.51" gradientTransform="matrix(-1, 0, 0, 1, 86.37, 0)" gradientUnits="userSpaceOnUse"><stop offset="0" stop-color="#5761d7"/><stop offset="0.18" stop-color="#5c66d9"/><stop offset="0.39" stop-color="#6a73df"/><stop offset="0.61" stop-color="#8289e8"/><stop offset="0.85" stop-color="#a3a7f5"/><stop offset="1" stop-color="#bcbeff"/></linearGradient><clipPath id="c"><polygon class="a" points="177.5 131 282.6 191.7 269.6 268.5 164.5 207.9 177.5 131"/></clipPath><linearGradient id="d" x1="-193.23" y1="222.44" x2="-15.25" y2="222.44" gradientTransform="matrix(-1, 0, 0, 1, 86.37, 0)" gradientUnits="userSpaceOnUse"><stop offset="0" stop-color="#c0bff6"/><stop offset="0.29" stop-color="#c5c4f7"/><stop offset="0.64" stop-color="#d3d2f9"/><stop offset="1" stop-color="#e9e9fd"/></linearGradient><linearGradient id="e" x1="-204.95" y1="209.37" x2="-159.39" y2="209.37" xlink:href="#d"/></defs><title>windows-germany-vps</title><g class="b"><path class="c" d="M197.7,100.8c58.6,37.3,125.6,54.1,125.6,54.1s73.8,11.3,46.7,95.3-30.7,114.2-73.3,116.3c-40.3,1.2-63-15.5-102.9-12.6-35.1,2.7-59.3,18.5-117.9-4.6C-18,307.8-11-30.9,197.7,100.8Z"/><g class="d"><path class="e" d="M202,335.2a10.6,10.6,0,0,1-5-1.3h0L99.1,277.3a2.7,2.7,0,0,1-1.4-2.4,2.9,2.9,0,0,1,1.4-2.5L160.4,237h.6l102.6,59.2a3.1,3.1,0,0,1,1.4,2.5,2.9,2.9,0,0,1-1.4,2.4l-56.7,32.8A10.5,10.5,0,0,1,202,335.2Zm-4.4-2.3a9,9,0,0,0,8.7,0L263,300.2a1.7,1.7,0,0,0,0-3L160.7,238.1l-.2.2L99.7,273.4a1.7,1.7,0,0,0,0,3Z"/></g><path class="f" d="M162.3,207,176,126.1l-1.1-.5,1.6-.9h0a1.2,1.2,0,0,1,1.3.1l109,62.9a3.1,3.1,0,0,1,1.4,2.8l-13.7,81.6a1,1,0,0,1-.6.8h0l-1.6,1-.3-1.6h.1L163.7,209.8A3.1,3.1,0,0,1,162.3,207Z"/><path class="g" d="M286.2,190l1.8-.8a2,2,0,0,1,.2,1.3l-13.7,81.6a1,1,0,0,1-.6.8h0l-1.6,1-.3-1.6h.1l-5.5-3.2Z"/><path class="h" d="M162,210.8l109,62.9c.9.5,1.6.2,1.8-.6l13.7-81.6a3,3,0,0,0-1.4-2.8l-109-62.9c-.9-.5-1.6-.2-1.7.6L160.6,208A3,3,0,0,0,162,210.8Z"/><polygon class="h" points="177.5 131 282.6 191.7 269.6 268.5 164.5 207.9 177.5 131"/><path class="i" d="M93.5,249.4l5.9,3.1,59.7-34.4a4.5,4.5,0,0,1,3.9.1l102.9,59.4,5.5-2.7-2.2,5.7h0a1.3,1.3,0,0,1-.6.7l-62.9,36.3a4.5,4.5,0,0,1-3.9-.2L96.5,256.6a2.2,2.2,0,0,1-.8-.9h-.1Z"/><path class="f" d="M94.4,250.4l107.9,62.3a4.4,4.4,0,0,0,4,.2l64.4-37.2c1-.6.9-1.6-.3-2.3L162.5,211.1a4.4,4.4,0,0,0-4-.2L94.1,248.1C93.1,248.7,93.2,249.7,94.4,250.4Z"/><path class="j" d="M94.4,249.8l107.9,62.3a4.4,4.4,0,0,0,4,.1l64.4-37.1a1,1,0,0,0,.6-.7c.2.5,0,.9-.6,1.3l-64.4,37.2a4.4,4.4,0,0,1-4-.2L94.4,250.4c-.8-.5-1.1-1.1-.9-1.6A2,2,0,0,0,94.4,249.8Z"/><path class="k" d="M234.9,299.2V298c0-.1-.1-.1-.2-.1l-4.2,2.4c0,.1-.1.2-.1.3v1.2c0,.1.1.2.1.1l4.2-2.4C234.8,299.5,234.9,299.3,234.9,299.2Z"/><path class="k" d="M228.6,302.8v-1.2c0-.1,0-.1-.1-.1l-4.2,2.4a.4.4,0,0,0-.1.3v1.2c0,.1,0,.2.1.1l4.2-2.4C228.6,303.1,228.6,302.9,228.6,302.8Z"/><path class="l" d="M253.9,272.2l-89.7-51.8a2.1,2.1,0,0,0-1.9,0l-31.9,18.5a.7.7,0,0,0,0,1.2L220,291.8a1.7,1.7,0,0,0,1.9,0l32-18.4A.7.7,0,0,0,253.9,272.2Z"/><path class="m" d="M253.9,273.4l-.3.2L164.2,222a1.7,1.7,0,0,0-1.9,0l-31.6,18.3-.3-.2a.7.7,0,0,1,0-1.2l31.9-18.5a2.1,2.1,0,0,1,1.9,0l89.7,51.8A.7.7,0,0,1,253.9,273.4Z"/><polygon class="h" points="159.9 225.1 237.8 270.1 241.3 268.1 163.4 223.1 159.9 225.1"/><polygon class="h" points="151.4 230 224.5 272.2 227.9 270.2 154.9 228 151.4 230"/><polygon class="h" points="145.9 233.2 231.9 282.9 235.4 280.9 149.3 231.2 145.9 233.2"/><polygon class="h" points="140.3 236.4 226.4 286.1 229.8 284.1 143.8 234.4 140.3 236.4"/><polygon class="h" points="134.8 239.6 220.8 289.3 224.3 287.3 138.3 237.6 134.8 239.6"/><polygon class="h" points="242.5 272.8 246 274.8 249.4 272.8 246 270.8 242.5 272.8"/><polygon class="h" points="230.3 275.5 237.5 279.7 240.9 277.7 233.8 273.6 230.3 275.5"/><path class="l" d="M160.8,284.7l-24.2-13.9c-.9-.6-.9-1.5,0-2l16.5-9.6a4.3,4.3,0,0,1,3.5,0l24.1,14c1,.6,1,1.4,0,2l-16.5,9.5A3.4,3.4,0,0,1,160.8,284.7Z"/><path class="m" d="M180.7,274l-24.1-13.9a3.6,3.6,0,0,0-3.5,0l-16.5,9.5a1.7,1.7,0,0,0-.6.6,1.1,1.1,0,0,1,.6-1.4l16.5-9.6a4.3,4.3,0,0,1,3.5,0l24.1,14c.7.4.9.9.6,1.4A1.7,1.7,0,0,0,180.7,274Z"/><g class="n"><g class="o"><path class="p" d="M162.4,210.9l107.9,62.4a4.7,4.7,0,0,0,4,.1l64.4-37.2c1-.6.9-1.6-.3-2.3L230.5,171.6a4.4,4.4,0,0,0-4-.1l-64.4,37.1C161.1,209.2,161.2,210.3,162.4,210.9Z"/><path class="q" d="M270.6,222.1l-24.1-13.9c-1-.6-1-1.5,0-2l16.5-9.6a4,4,0,0,1,3.4,0l24.2,14c.9.5.9,1.4,0,2l-16.5,9.5A3.6,3.6,0,0,1,270.6,222.1Z"/><path class="r" d="M290.6,211.4l-24.2-14a4,4,0,0,0-3.4,0L246.5,207a1.7,1.7,0,0,0-.6.6c-.3-.5-.1-1,.6-1.4l16.5-9.6a4,4,0,0,1,3.4,0l24.2,14a1,1,0,0,1,.6,1.4A1.7,1.7,0,0,0,290.6,211.4Z"/><path class="s" d="M301.2,243.9l-89.7-51.7a1.7,1.7,0,0,0-1.9,0l-31.9,18.4a.7.7,0,0,0,0,1.2l89.6,51.8a2.3,2.3,0,0,0,2,0l31.9-18.5A.7.7,0,0,0,301.2,243.9Z"/><path class="r" d="M301.2,245.1l-.3.2-89.4-51.6a2.1,2.1,0,0,0-1.9,0L178,212l-.3-.2a.7.7,0,0,1,0-1.2l31.9-18.4a1.7,1.7,0,0,1,1.9,0l89.7,51.7A.7.7,0,0,1,301.2,245.1Z"/><polygon class="t" points="186 209.4 264.2 254.5 261.1 256.3 182.9 211.2 186 209.4"/><polygon class="t" points="194.3 204.6 268.5 247.5 265.4 249.3 191.2 206.4 194.3 204.6"/><polygon class="t" points="274.1 250.7 281 254.7 277.9 256.5 271 252.5 274.1 250.7"/><polygon class="t" points="268 256.7 272.8 259.5 269.7 261.2 264.9 258.4 268 256.7"/><polygon class="t" points="199.4 201.6 286.2 251.7 283.1 253.5 196.3 203.4 199.4 201.6"/><polygon class="t" points="204.6 198.7 291.3 248.7 288.2 250.5 201.5 200.4 204.6 198.7"/><polygon class="t" points="209.7 195.7 296.5 245.8 293.4 247.6 206.7 197.5 209.7 195.7"/></g></g><path class="e" d="M219.9,189.8l13.9,2.6.2.3h0l-4.3,12.4h-.2l-13-6.7c-.1,0-.1-.1-.1-.2l2.7-7.7.2-.7h.6Z"/><path class="e" d="M211.2,188.1l7,1.4c.1,0,.1.1.1.2l-2.8,8h-.2l-6.7-3.4v-.2l2-5.8v-.3h.5Z"/><path class="e" d="M208.4,195.1c2,1.1,4.1,2.4,6.6,3.6,0,.1.1.2,0,.2l-2.8,8.2H212l-5.9-5.6a.1.1,0,0,1,0-.2l2.1-6.1Z"/><path class="e" d="M216.5,199.6l12.5,6.9a.4.4,0,0,1,.1.3l-4.2,12.1v.4h-.3c-4.3-4.3-8.2-7.9-11.5-11.1V208l2.9-8.5h.6Z"/><path class="u" d="M217.2,198.6l2.8-7.9.2-.7h-.9l-.2.7-2.7,7.7c0,.1,0,.2.1.2l.8.4C217.2,198.8,217.2,198.7,217.2,198.6Z"/><path class="u" d="M209.2,194.5l2.1-6v-.3h-.7v.3l-2,5.8v.2l.6.3Z"/><path class="v" d="M215,198.8h0Z"/><path class="u" d="M206.6,201.9l2.2-6.4h.1l-.5-.3h-.2l-2.1,6.1a.1.1,0,0,0,0,.2l.5.4Z"/><path class="u" d="M213.7,208.7l3-8.7h.2l-.4-.3h-.6L213,208v.2l.7.6Z"/></g></svg>